<?xml version="1.0" encoding="UTF-8" standalone="no"?>
<!DOCTYPE svg PUBLIC "-//W3C//DTD SVG 1.1//EN"
 "http://www.w3.org/Graphics/SVG/1.1/DTD/svg11.dtd">
<!-- Generated by graphviz version 2.38.0 (20140413.2041)
 -->
<!-- Title: auxgetstr Pages: 1 -->
<svg width="933pt" height="788pt"
 viewBox="0.00 0.00 933.00 788.00" xmlns="http://www.w3.org/2000/svg" xmlns:xlink="http://www.w3.org/1999/xlink">
<g id="graph0" class="graph" transform="scale(1 1) rotate(0) translate(4 784)">
<title>auxgetstr</title>
<polygon fill="white" stroke="none" points="-4,4 -4,-784 929,-784 929,4 -4,4"/>
<!-- Node1 -->
<g id="node1" class="node"><title>Node1</title>
<g id="a_node1"><a xlink:title=" ">
<polygon fill="#bfbfbf" stroke="black" points="868,-432.5 868,-451.5 925,-451.5 925,-432.5 868,-432.5"/>
<text text-anchor="middle" x="896.5" y="-439.5" font-family="Helvetica,sans-Serif" font-size="10.00">auxgetstr</text>
</a>
</g>
</g>
<!-- Node2 -->
<g id="node2" class="node"><title>Node2</title>
<g id="a_node2"><a xlink:href="lua_8h.html#aa97386935b690dd478abd7c6fb89bef8" target="_top" xlink:title=" ">
<polygon fill="white" stroke="black" points="767,-342.5 767,-361.5 832,-361.5 832,-342.5 767,-342.5"/>
<text text-anchor="middle" x="799.5" y="-349.5" font-family="Helvetica,sans-Serif" font-size="10.00">lua_getfield</text>
</a>
</g>
</g>
<!-- Node1&#45;&gt;Node2 -->
<g id="edge1" class="edge"><title>Node1&#45;&gt;Node2</title>
<path fill="none" stroke="midnightblue" d="M877.885,-425.312C858.084,-406.554 826.617,-376.743 810.594,-361.562"/>
<polygon fill="midnightblue" stroke="midnightblue" points="875.667,-428.032 885.333,-432.368 880.481,-422.95 875.667,-428.032"/>
</g>
<!-- Node168 -->
<g id="node41" class="node"><title>Node168</title>
<g id="a_node41"><a xlink:href="lua_8h.html#aed0bba8f94a9dc573ac77becd0f0c5e9" target="_top" xlink:title=" ">
<polygon fill="white" stroke="black" points="641.5,-665.5 641.5,-684.5 715.5,-684.5 715.5,-665.5 641.5,-665.5"/>
<text text-anchor="middle" x="678.5" y="-672.5" font-family="Helvetica,sans-Serif" font-size="10.00">lua_getglobal</text>
</a>
</g>
</g>
<!-- Node1&#45;&gt;Node168 -->
<g id="edge50" class="edge"><title>Node1&#45;&gt;Node168</title>
<path fill="none" stroke="midnightblue" d="M882.509,-460.096C856.231,-496.045 793.9,-578.066 731,-637 719.648,-647.636 705.31,-658.004 694.647,-665.216"/>
<polygon fill="midnightblue" stroke="midnightblue" points="885.625,-461.761 888.664,-451.612 879.959,-457.65 885.625,-461.761"/>
</g>
<!-- Node3 -->
<g id="node3" class="node"><title>Node3</title>
<g id="a_node3"><a xlink:href="loadlib_8c.html#a245afa8e0d4941d4266eee8ec83c4adc" target="_top" xlink:title=" ">
<polygon fill="white" stroke="black" points="649.5,-456.5 649.5,-475.5 707.5,-475.5 707.5,-456.5 649.5,-456.5"/>
<text text-anchor="middle" x="678.5" y="-463.5" font-family="Helvetica,sans-Serif" font-size="10.00">checkclib</text>
</a>
</g>
</g>
<!-- Node2&#45;&gt;Node3 -->
<g id="edge2" class="edge"><title>Node2&#45;&gt;Node3</title>
<path fill="none" stroke="midnightblue" d="M788.462,-370.334C776.831,-390.176 756.024,-421.694 731,-442 723.723,-447.905 714.755,-452.732 706.353,-456.469"/>
<polygon fill="midnightblue" stroke="midnightblue" points="791.51,-372.055 793.413,-361.632 785.426,-368.593 791.51,-372.055"/>
</g>
<!-- Node11 -->
<g id="node11" class="node"><title>Node11</title>
<g id="a_node11"><a xlink:href="loadlib_8c.html#af8f7333f1a59f3d7aab8c9b79b7a4ab2" target="_top" xlink:title=" ">
<polygon fill="white" stroke="black" points="414,-418.5 414,-437.5 458,-437.5 458,-418.5 414,-418.5"/>
<text text-anchor="middle" x="436" y="-425.5" font-family="Helvetica,sans-Serif" font-size="10.00">findfile</text>
</a>
</g>
</g>
<!-- Node2&#45;&gt;Node11 -->
<g id="edge11" class="edge"><title>Node2&#45;&gt;Node11</title>
<path fill="none" stroke="midnightblue" d="M782.117,-369.059C769.41,-381.097 750.694,-396.386 731,-404 634.752,-441.213 507.874,-434.713 458.214,-430.26"/>
<polygon fill="midnightblue" stroke="midnightblue" points="784.886,-371.244 789.55,-361.731 779.972,-366.259 784.886,-371.244"/>
</g>
<!-- Node13 -->
<g id="node13" class="node"><title>Node13</title>
<g id="a_node13"><a xlink:href="loadlib_8c.html#aeea4101591c7cab25273f4dfe7d811d6" target="_top" xlink:title=" ">
<polygon fill="white" stroke="black" points="649.5,-266.5 649.5,-285.5 707.5,-285.5 707.5,-266.5 649.5,-266.5"/>
<text text-anchor="middle" x="678.5" y="-273.5" font-family="Helvetica,sans-Serif" font-size="10.00">findloader</text>
</a>
</g>
</g>
<!-- Node2&#45;&gt;Node13 -->
<g id="edge16" class="edge"><title>Node2&#45;&gt;Node13</title>
<path fill="none" stroke="midnightblue" d="M782.03,-335.223C769.083,-322.783 750.099,-306.122 731,-295 723.753,-290.78 715.403,-287.216 707.564,-284.355"/>
<polygon fill="midnightblue" stroke="midnightblue" points="779.676,-337.817 789.259,-342.336 784.586,-332.827 779.676,-337.817"/>
</g>
<!-- Node14 -->
<g id="node14" class="node"><title>Node14</title>
<g id="a_node14"><a xlink:href="loadlib_8c.html#a136874f5faa236dc52fb50109281e157" target="_top" xlink:title=" ">
<polygon fill="white" stroke="black" points="522,-228.5 522,-247.5 578,-247.5 578,-228.5 522,-228.5"/>
<text text-anchor="middle" x="550" y="-235.5" font-family="Helvetica,sans-Serif" font-size="10.00">ll_require</text>
</a>
</g>
</g>
<!-- Node2&#45;&gt;Node14 -->
<g id="edge31" class="edge"><title>Node2&#45;&gt;Node14</title>
<path fill="none" stroke="midnightblue" d="M790.83,-332.944C780.731,-310.586 760.703,-274.368 731,-257 682.986,-228.925 615.318,-230.59 578.128,-234.291"/>
<polygon fill="midnightblue" stroke="midnightblue" points="787.723,-334.581 794.879,-342.394 794.157,-331.824 787.723,-334.581"/>
</g>
<!-- Node15 -->
<g id="node15" class="node"><title>Node15</title>
<g id="a_node15"><a xlink:href="liolib_8c.html#aae942558ff528b4e1a483297c64e6886" target="_top" xlink:title=" ">
<polygon fill="white" stroke="black" points="655,-190.5 655,-209.5 702,-209.5 702,-190.5 655,-190.5"/>
<text text-anchor="middle" x="678.5" y="-197.5" font-family="Helvetica,sans-Serif" font-size="10.00">g_iofile</text>
</a>
</g>
</g>
<!-- Node2&#45;&gt;Node15 -->
<g id="edge18" class="edge"><title>Node2&#45;&gt;Node15</title>
<path fill="none" stroke="midnightblue" d="M792.726,-332.738C783.642,-305.351 763.609,-255.043 731,-224 722.927,-216.314 711.946,-210.738 702.198,-206.905"/>
<polygon fill="midnightblue" stroke="midnightblue" points="789.409,-333.86 795.768,-342.334 796.082,-331.744 789.409,-333.86"/>
</g>
<!-- Node18 -->
<g id="node18" class="node"><title>Node18</title>
<g id="a_node18"><a xlink:href="loslib_8c.html#a5dbd1fc25ad13c0f325d09f811bb6172" target="_top" xlink:title=" ">
<polygon fill="white" stroke="black" points="646,-114.5 646,-133.5 711,-133.5 711,-114.5 646,-114.5"/>
<text text-anchor="middle" x="678.5" y="-121.5" font-family="Helvetica,sans-Serif" font-size="10.00">getboolfield</text>
</a>
</g>
</g>
<!-- Node2&#45;&gt;Node18 -->
<g id="edge21" class="edge"><title>Node2&#45;&gt;Node18</title>
<path fill="none" stroke="midnightblue" d="M797.665,-332.153C794.889,-291.288 782.888,-197.063 731,-143 725.589,-137.362 718.36,-133.386 711.034,-130.587"/>
<polygon fill="midnightblue" stroke="midnightblue" points="794.173,-332.398 798.229,-342.186 801.162,-332.005 794.173,-332.398"/>
</g>
<!-- Node20 -->
<g id="node20" class="node"><title>Node20</title>
<g id="a_node20"><a xlink:href="loslib_8c.html#aa0a7f676dc564dbc1a3c16c917b933c9" target="_top" xlink:title=" ">
<polygon fill="white" stroke="black" points="655,-152.5 655,-171.5 702,-171.5 702,-152.5 655,-152.5"/>
<text text-anchor="middle" x="678.5" y="-159.5" font-family="Helvetica,sans-Serif" font-size="10.00">getfield</text>
</a>
</g>
</g>
<!-- Node2&#45;&gt;Node20 -->
<g id="edge23" class="edge"><title>Node2&#45;&gt;Node20</title>
<path fill="none" stroke="midnightblue" d="M796.034,-332.435C790.607,-297.36 774.45,-223.483 731,-181 723.164,-173.338 711.975,-168.726 702.028,-165.969"/>
<polygon fill="midnightblue" stroke="midnightblue" points="792.573,-332.96 797.44,-342.371 799.504,-331.979 792.573,-332.96"/>
</g>
<!-- Node21 -->
<g id="node21" class="node"><title>Node21</title>
<g id="a_node21"><a xlink:href="liolib_8c.html#a3bccbdacdc9f21f22a603525be1f3699" target="_top" xlink:title=" ">
<polygon fill="white" stroke="black" points="653.5,-76.5 653.5,-95.5 703.5,-95.5 703.5,-76.5 653.5,-76.5"/>
<text text-anchor="middle" x="678.5" y="-83.5" font-family="Helvetica,sans-Serif" font-size="10.00">getiofile</text>
</a>
</g>
</g>
<!-- Node2&#45;&gt;Node21 -->
<g id="edge25" class="edge"><title>Node2&#45;&gt;Node21</title>
<path fill="none" stroke="midnightblue" d="M798.853,-331.794C798.556,-285.532 791.376,-170.85 731,-105 723.915,-97.2732 713.411,-92.6786 703.733,-89.9511"/>
<polygon fill="midnightblue" stroke="midnightblue" points="795.353,-331.995 798.809,-342.01 802.353,-332.026 795.353,-331.995"/>
</g>
<!-- Node25 -->
<g id="node25" class="node"><title>Node25</title>
<g id="a_node25"><a xlink:href="liolib_8c.html#a1c6f8e04184b0f7939e45e24d2d7ef8a" target="_top" xlink:title=" ">
<polygon fill="white" stroke="black" points="652,-38.5 652,-57.5 705,-57.5 705,-38.5 652,-38.5"/>
<text text-anchor="middle" x="678.5" y="-45.5" font-family="Helvetica,sans-Serif" font-size="10.00">io_close</text>
</a>
</g>
</g>
<!-- Node2&#45;&gt;Node25 -->
<g id="edge29" class="edge"><title>Node2&#45;&gt;Node25</title>
<path fill="none" stroke="midnightblue" d="M796.267,-332.348C789.347,-274.628 766.561,-107.143 731,-67 724.365,-59.5098 714.509,-54.9676 705.19,-52.2151"/>
<polygon fill="midnightblue" stroke="midnightblue" points="792.8,-332.833 797.439,-342.358 799.753,-332.019 792.8,-332.833"/>
</g>
<!-- Node26 -->
<g id="node26" class="node"><title>Node26</title>
<g id="a_node26"><a xlink:href="liolib_8c.html#ab08031b51605d4ef676ec33a3b96a286" target="_top" xlink:title=" ">
<polygon fill="white" stroke="black" points="653.5,-608.5 653.5,-627.5 703.5,-627.5 703.5,-608.5 653.5,-608.5"/>
<text text-anchor="middle" x="678.5" y="-615.5" font-family="Helvetica,sans-Serif" font-size="10.00">io_lines</text>
</a>
</g>
</g>
<!-- Node2&#45;&gt;Node26 -->
<g id="edge30" class="edge"><title>Node2&#45;&gt;Node26</title>
<path fill="none" stroke="midnightblue" d="M795.158,-371.874C786.157,-423.4 760.112,-559.671 731,-594 723.918,-602.351 713.296,-607.972 703.534,-611.661"/>
<polygon fill="midnightblue" stroke="midnightblue" points="798.659,-372.166 796.901,-361.718 791.76,-370.982 798.659,-372.166"/>
</g>
<!-- Node27 -->
<g id="node27" class="node"><title>Node27</title>
<g id="a_node27"><a xlink:href="lauxlib_8h.html#a2605da7ef3a12d7e9cfa85939245f941" target="_top" xlink:title=" ">
<polygon fill="white" stroke="black" points="633.5,-494.5 633.5,-513.5 723.5,-513.5 723.5,-494.5 633.5,-494.5"/>
<text text-anchor="middle" x="678.5" y="-501.5" font-family="Helvetica,sans-Serif" font-size="10.00">luaL_getsubtable</text>
</a>
</g>
</g>
<!-- Node2&#45;&gt;Node27 -->
<g id="edge32" class="edge"><title>Node2&#45;&gt;Node27</title>
<path fill="none" stroke="midnightblue" d="M793.525,-371.545C785.251,-400.27 766.005,-453.844 731,-485 726.658,-488.865 721.461,-491.967 716.063,-494.45"/>
<polygon fill="midnightblue" stroke="midnightblue" points="797.002,-372.099 796.252,-361.53 790.248,-370.26 797.002,-372.099"/>
</g>
<!-- Node28 -->
<g id="node28" class="node"><title>Node28</title>
<g id="a_node28"><a xlink:href="lauxlib_8h.html#af6e3e3ca0a445a50f34cfc26f89c7d61" target="_top" xlink:title=" ">
<polygon fill="white" stroke="black" points="514.5,-570.5 514.5,-589.5 585.5,-589.5 585.5,-570.5 514.5,-570.5"/>
<text text-anchor="middle" x="550" y="-577.5" font-family="Helvetica,sans-Serif" font-size="10.00">luaL_requiref</text>
</a>
</g>
</g>
<!-- Node2&#45;&gt;Node28 -->
<g id="edge37" class="edge"><title>Node2&#45;&gt;Node28</title>
<path fill="none" stroke="midnightblue" d="M798.701,-372.087C797.929,-414.557 789.579,-513.457 731,-561 690.01,-594.268 625.3,-592.055 585.655,-586.602"/>
<polygon fill="midnightblue" stroke="midnightblue" points="802.202,-371.93 798.755,-361.912 795.202,-371.893 802.202,-371.93"/>
</g>
<!-- Node32 -->
<g id="node31" class="node"><title>Node32</title>
<g id="a_node31"><a xlink:href="lualib_8h.html#a3010f48526cfc95537c1192011374eb3" target="_top" xlink:title=" ">
<polygon fill="white" stroke="black" points="640,-532.5 640,-551.5 717,-551.5 717,-532.5 640,-532.5"/>
<text text-anchor="middle" x="678.5" y="-539.5" font-family="Helvetica,sans-Serif" font-size="10.00">luaopen_table</text>
</a>
</g>
</g>
<!-- Node2&#45;&gt;Node32 -->
<g id="edge38" class="edge"><title>Node2&#45;&gt;Node32</title>
<path fill="none" stroke="midnightblue" d="M796.034,-371.565C790.607,-406.64 774.45,-480.517 731,-523 727.048,-526.864 722.243,-529.953 717.175,-532.419"/>
<polygon fill="midnightblue" stroke="midnightblue" points="799.504,-372.021 797.44,-361.629 792.573,-371.04 799.504,-372.021"/>
</g>
<!-- Node33 -->
<g id="node32" class="node"><title>Node33</title>
<g id="a_node32"><a xlink:href="loadlib_8c.html#a10314b90f6fd35b69745366d3f4961ce" target="_top" xlink:title=" ">
<polygon fill="white" stroke="black" points="296,-342.5 296,-361.5 337,-361.5 337,-342.5 296,-342.5"/>
<text text-anchor="middle" x="316.5" y="-349.5" font-family="Helvetica,sans-Serif" font-size="10.00">noenv</text>
</a>
</g>
</g>
<!-- Node2&#45;&gt;Node33 -->
<g id="edge39" class="edge"><title>Node2&#45;&gt;Node33</title>
<path fill="none" stroke="midnightblue" d="M756.662,-352C657.08,-352 408.952,-352 337.215,-352"/>
<polygon fill="midnightblue" stroke="midnightblue" points="756.94,-355.5 766.94,-352 756.94,-348.5 756.94,-355.5"/>
</g>
<!-- Node35 -->
<g id="node34" class="node"><title>Node35</title>
<g id="a_node34"><a xlink:href="lauxlib_8c.html#a4f35430f7ecfcbd5f507e550937046b4" target="_top" xlink:title=" ">
<polygon fill="white" stroke="black" points="626,-304.5 626,-323.5 731,-323.5 731,-304.5 626,-304.5"/>
<text text-anchor="middle" x="678.5" y="-311.5" font-family="Helvetica,sans-Serif" font-size="10.00">pushglobalfuncname</text>
</a>
</g>
</g>
<!-- Node2&#45;&gt;Node35 -->
<g id="edge42" class="edge"><title>Node2&#45;&gt;Node35</title>
<path fill="none" stroke="midnightblue" d="M758.79,-339.32C742.711,-334.185 724.457,-328.356 709.519,-323.586"/>
<polygon fill="midnightblue" stroke="midnightblue" points="757.88,-342.703 768.471,-342.411 760.01,-336.035 757.88,-342.703"/>
</g>
<!-- Node167 -->
<g id="node40" class="node"><title>Node167</title>
<g id="a_node40"><a xlink:href="loadlib_8c.html#a68e1957952958cc41d9ede92dabda1c6" target="_top" xlink:title=" ">
<polygon fill="white" stroke="black" points="271,-380.5 271,-399.5 362,-399.5 362,-380.5 271,-380.5"/>
<text text-anchor="middle" x="316.5" y="-387.5" font-family="Helvetica,sans-Serif" font-size="10.00">searcher_preload</text>
</a>
</g>
</g>
<!-- Node2&#45;&gt;Node167 -->
<g id="edge48" class="edge"><title>Node2&#45;&gt;Node167</title>
<path fill="none" stroke="midnightblue" d="M756.672,-361.669C748.212,-363.343 739.351,-364.898 731,-366 597.508,-383.621 438.073,-388.305 362.066,-389.549"/>
<polygon fill="midnightblue" stroke="midnightblue" points="757.647,-365.041 766.731,-359.589 756.229,-358.186 757.647,-365.041"/>
</g>
<!-- Node4 -->
<g id="node4" class="node"><title>Node4</title>
<g id="a_node4"><a xlink:href="loadlib_8c.html#ad7ea39bad1ff41ec6a7f95c1e23722be" target="_top" xlink:title=" ">
<polygon fill="white" stroke="black" points="518.5,-456.5 518.5,-475.5 581.5,-475.5 581.5,-456.5 518.5,-456.5"/>
<text text-anchor="middle" x="550" y="-463.5" font-family="Helvetica,sans-Serif" font-size="10.00">lookforfunc</text>
</a>
</g>
</g>
<!-- Node3&#45;&gt;Node4 -->
<g id="edge3" class="edge"><title>Node3&#45;&gt;Node4</title>
<path fill="none" stroke="midnightblue" d="M639.294,-466C620.841,-466 598.997,-466 581.652,-466"/>
<polygon fill="midnightblue" stroke="midnightblue" points="639.426,-469.5 649.426,-466 639.426,-462.5 639.426,-469.5"/>
</g>
<!-- Node5 -->
<g id="node5" class="node"><title>Node5</title>
<g id="a_node5"><a xlink:href="loadlib_8c.html#aac7e69bc5b4403e49e2609425f0fb7b0" target="_top" xlink:title=" ">
<polygon fill="white" stroke="black" points="409,-494.5 409,-513.5 463,-513.5 463,-494.5 409,-494.5"/>
<text text-anchor="middle" x="436" y="-501.5" font-family="Helvetica,sans-Serif" font-size="10.00">ll_loadlib</text>
</a>
</g>
</g>
<!-- Node4&#45;&gt;Node5 -->
<g id="edge4" class="edge"><title>Node4&#45;&gt;Node5</title>
<path fill="none" stroke="midnightblue" d="M511.266,-478.803C495.522,-484.144 477.615,-490.22 463.33,-495.067"/>
<polygon fill="midnightblue" stroke="midnightblue" points="512.392,-482.116 520.738,-475.589 510.143,-475.488 512.392,-482.116"/>
</g>
<!-- Node6 -->
<g id="node6" class="node"><title>Node6</title>
<g id="a_node6"><a xlink:href="loadlib_8c.html#a91ac5b5231cf039af46226806dcc3884" target="_top" xlink:title=" ">
<polygon fill="white" stroke="black" points="409.5,-456.5 409.5,-475.5 462.5,-475.5 462.5,-456.5 409.5,-456.5"/>
<text text-anchor="middle" x="436" y="-463.5" font-family="Helvetica,sans-Serif" font-size="10.00">loadfunc</text>
</a>
</g>
</g>
<!-- Node4&#45;&gt;Node6 -->
<g id="edge5" class="edge"><title>Node4&#45;&gt;Node6</title>
<path fill="none" stroke="midnightblue" d="M508.178,-466C492.958,-466 476.119,-466 462.642,-466"/>
<polygon fill="midnightblue" stroke="midnightblue" points="508.396,-469.5 518.396,-466 508.395,-462.5 508.396,-469.5"/>
</g>
<!-- Node7 -->
<g id="node7" class="node"><title>Node7</title>
<g id="a_node7"><a xlink:href="loadlib_8c.html#a9a915ea950c831cee2f1e7b0a3bd9005" target="_top" xlink:title=" ">
<polygon fill="white" stroke="black" points="283.5,-456.5 283.5,-475.5 349.5,-475.5 349.5,-456.5 283.5,-456.5"/>
<text text-anchor="middle" x="316.5" y="-463.5" font-family="Helvetica,sans-Serif" font-size="10.00">searcher_C</text>
</a>
</g>
</g>
<!-- Node6&#45;&gt;Node7 -->
<g id="edge6" class="edge"><title>Node6&#45;&gt;Node7</title>
<path fill="none" stroke="midnightblue" d="M398.79,-466C383.046,-466 364.757,-466 349.518,-466"/>
<polygon fill="midnightblue" stroke="midnightblue" points="399.214,-469.5 409.214,-466 399.214,-462.5 399.214,-469.5"/>
</g>
<!-- Node10 -->
<g id="node10" class="node"><title>Node10</title>
<g id="a_node10"><a xlink:href="loadlib_8c.html#a1ec05cd98a045c271aeda9f9c6041e1c" target="_top" xlink:title=" ">
<polygon fill="white" stroke="black" points="275,-494.5 275,-513.5 358,-513.5 358,-494.5 275,-494.5"/>
<text text-anchor="middle" x="316.5" y="-501.5" font-family="Helvetica,sans-Serif" font-size="10.00">searcher_Croot</text>
</a>
</g>
</g>
<!-- Node6&#45;&gt;Node10 -->
<g id="edge9" class="edge"><title>Node6&#45;&gt;Node10</title>
<path fill="none" stroke="midnightblue" d="M399.236,-477.566C382.501,-482.978 362.812,-489.346 346.951,-494.475"/>
<polygon fill="midnightblue" stroke="midnightblue" points="400.776,-480.747 409.214,-474.339 398.622,-474.086 400.776,-480.747"/>
</g>
<!-- Node8 -->
<g id="node8" class="node"><title>Node8</title>
<g id="a_node8"><a xlink:href="loadlib_8c.html#a8fc66c8b852ee2960dc20797521d1d9e" target="_top" xlink:title=" ">
<polygon fill="white" stroke="black" points="128,-437.5 128,-456.5 235,-456.5 235,-437.5 128,-437.5"/>
<text text-anchor="middle" x="181.5" y="-444.5" font-family="Helvetica,sans-Serif" font-size="10.00">createsearcherstable</text>
</a>
</g>
</g>
<!-- Node7&#45;&gt;Node8 -->
<g id="edge7" class="edge"><title>Node7&#45;&gt;Node8</title>
<path fill="none" stroke="midnightblue" d="M273.07,-459.939C261.013,-458.216 247.734,-456.319 235.149,-454.521"/>
<polygon fill="midnightblue" stroke="midnightblue" points="272.91,-463.451 283.304,-461.401 273.9,-456.522 272.91,-463.451"/>
</g>
<!-- Node9 -->
<g id="node9" class="node"><title>Node9</title>
<g id="a_node9"><a xlink:href="lualib_8h.html#a05e0befc0439f926b6152129ab4f8dea" target="_top" xlink:title=" ">
<polygon fill="white" stroke="black" points="0,-437.5 0,-456.5 92,-456.5 92,-437.5 0,-437.5"/>
<text text-anchor="middle" x="46" y="-444.5" font-family="Helvetica,sans-Serif" font-size="10.00">luaopen_package</text>
</a>
</g>
</g>
<!-- Node8&#45;&gt;Node9 -->
<g id="edge8" class="edge"><title>Node8&#45;&gt;Node9</title>
<path fill="none" stroke="midnightblue" d="M117.665,-447C109.021,-447 100.289,-447 92.0516,-447"/>
<polygon fill="midnightblue" stroke="midnightblue" points="117.737,-450.5 127.737,-447 117.737,-443.5 117.737,-450.5"/>
</g>
<!-- Node10&#45;&gt;Node8 -->
<g id="edge10" class="edge"><title>Node10&#45;&gt;Node8</title>
<path fill="none" stroke="midnightblue" d="M283.352,-490.283C279.195,-488.507 274.996,-486.711 271,-485 248.404,-475.325 222.577,-464.232 204.681,-456.539"/>
<polygon fill="midnightblue" stroke="midnightblue" points="282.287,-493.634 292.858,-494.343 285.036,-487.197 282.287,-493.634"/>
</g>
<!-- Node11&#45;&gt;Node7 -->
<g id="edge12" class="edge"><title>Node11&#45;&gt;Node7</title>
<path fill="none" stroke="midnightblue" d="M404.191,-437.964C386.57,-443.663 364.577,-450.775 347.153,-456.41"/>
<polygon fill="midnightblue" stroke="midnightblue" points="405.556,-441.201 413.993,-434.794 403.402,-434.541 405.556,-441.201"/>
</g>
<!-- Node11&#45;&gt;Node10 -->
<g id="edge13" class="edge"><title>Node11&#45;&gt;Node10</title>
<path fill="none" stroke="midnightblue" d="M404.992,-442.28C402.562,-443.772 400.199,-445.351 398,-447 379.387,-460.957 381.096,-471.711 362,-485 356.76,-488.647 350.709,-491.803 344.791,-494.438"/>
<polygon fill="midnightblue" stroke="midnightblue" points="406.9,-445.223 413.909,-437.277 403.475,-439.118 406.9,-445.223"/>
</g>
<!-- Node12 -->
<g id="node12" class="node"><title>Node12</title>
<g id="a_node12"><a xlink:href="loadlib_8c.html#a8b2f1d86fe37c0829143579a6b568243" target="_top" xlink:title=" ">
<polygon fill="white" stroke="black" points="279,-418.5 279,-437.5 354,-437.5 354,-418.5 279,-418.5"/>
<text text-anchor="middle" x="316.5" y="-425.5" font-family="Helvetica,sans-Serif" font-size="10.00">searcher_Lua</text>
</a>
</g>
</g>
<!-- Node11&#45;&gt;Node12 -->
<g id="edge14" class="edge"><title>Node11&#45;&gt;Node12</title>
<path fill="none" stroke="midnightblue" d="M403.97,-428C388.633,-428 370.027,-428 354.009,-428"/>
<polygon fill="midnightblue" stroke="midnightblue" points="403.993,-431.5 413.993,-428 403.993,-424.5 403.993,-431.5"/>
</g>
<!-- Node12&#45;&gt;Node8 -->
<g id="edge15" class="edge"><title>Node12&#45;&gt;Node8</title>
<path fill="none" stroke="midnightblue" d="M268.651,-434.693C257.768,-436.247 246.114,-437.912 235.005,-439.499"/>
<polygon fill="midnightblue" stroke="midnightblue" points="269.401,-438.121 278.805,-433.242 268.411,-431.192 269.401,-438.121"/>
</g>
<!-- Node13&#45;&gt;Node14 -->
<g id="edge17" class="edge"><title>Node13&#45;&gt;Node14</title>
<path fill="none" stroke="midnightblue" d="M639.77,-264.666C619.948,-258.712 596.109,-251.55 578.128,-246.149"/>
<polygon fill="midnightblue" stroke="midnightblue" points="638.841,-268.042 649.426,-267.567 640.855,-261.338 638.841,-268.042"/>
</g>
<!-- Node16 -->
<g id="node16" class="node"><title>Node16</title>
<g id="a_node16"><a xlink:href="liolib_8c.html#a827044fde6f2c21ab965ba3d729f6a0f" target="_top" xlink:title=" ">
<polygon fill="white" stroke="black" points="525,-190.5 525,-209.5 575,-209.5 575,-190.5 525,-190.5"/>
<text text-anchor="middle" x="550" y="-197.5" font-family="Helvetica,sans-Serif" font-size="10.00">io_input</text>
</a>
</g>
</g>
<!-- Node15&#45;&gt;Node16 -->
<g id="edge19" class="edge"><title>Node15&#45;&gt;Node16</title>
<path fill="none" stroke="midnightblue" d="M644.772,-200C623.002,-200 594.888,-200 575.143,-200"/>
<polygon fill="midnightblue" stroke="midnightblue" points="644.884,-203.5 654.884,-200 644.884,-196.5 644.884,-203.5"/>
</g>
<!-- Node17 -->
<g id="node17" class="node"><title>Node17</title>
<g id="a_node17"><a xlink:href="liolib_8c.html#a4464f89f0151ad432557b0a51258582c" target="_top" xlink:title=" ">
<polygon fill="white" stroke="black" points="522,-152.5 522,-171.5 578,-171.5 578,-152.5 522,-152.5"/>
<text text-anchor="middle" x="550" y="-159.5" font-family="Helvetica,sans-Serif" font-size="10.00">io_output</text>
</a>
</g>
</g>
<!-- Node15&#45;&gt;Node17 -->
<g id="edge20" class="edge"><title>Node15&#45;&gt;Node17</title>
<path fill="none" stroke="midnightblue" d="M645.244,-190.31C624.528,-184.087 597.919,-176.094 578.261,-170.189"/>
<polygon fill="midnightblue" stroke="midnightblue" points="644.3,-193.681 654.884,-193.206 646.314,-186.977 644.3,-193.681"/>
</g>
<!-- Node19 -->
<g id="node19" class="node"><title>Node19</title>
<g id="a_node19"><a xlink:href="loslib_8c.html#ae32288bc9696b48450146e11c241f943" target="_top" xlink:title=" ">
<polygon fill="white" stroke="black" points="524.5,-114.5 524.5,-133.5 575.5,-133.5 575.5,-114.5 524.5,-114.5"/>
<text text-anchor="middle" x="550" y="-121.5" font-family="Helvetica,sans-Serif" font-size="10.00">os_time</text>
</a>
</g>
</g>
<!-- Node18&#45;&gt;Node19 -->
<g id="edge22" class="edge"><title>Node18&#45;&gt;Node19</title>
<path fill="none" stroke="midnightblue" d="M635.867,-124C616.014,-124 592.932,-124 575.856,-124"/>
<polygon fill="midnightblue" stroke="midnightblue" points="635.905,-127.5 645.905,-124 635.905,-120.5 635.905,-127.5"/>
</g>
<!-- Node20&#45;&gt;Node19 -->
<g id="edge24" class="edge"><title>Node20&#45;&gt;Node19</title>
<path fill="none" stroke="midnightblue" d="M645.134,-152.277C623.475,-145.771 595.412,-137.341 575.58,-131.384"/>
<polygon fill="midnightblue" stroke="midnightblue" points="644.3,-155.681 654.884,-155.206 646.314,-148.977 644.3,-155.681"/>
</g>
<!-- Node22 -->
<g id="node22" class="node"><title>Node22</title>
<g id="a_node22"><a xlink:href="liolib_8c.html#a2f93672e01db50e1e5361f5f01c71bd6" target="_top" xlink:title=" ">
<polygon fill="white" stroke="black" points="525,-38.5 525,-57.5 575,-57.5 575,-38.5 525,-38.5"/>
<text text-anchor="middle" x="550" y="-45.5" font-family="Helvetica,sans-Serif" font-size="10.00">io_flush</text>
</a>
</g>
</g>
<!-- Node21&#45;&gt;Node22 -->
<g id="edge26" class="edge"><title>Node21&#45;&gt;Node22</title>
<path fill="none" stroke="midnightblue" d="M643.62,-75.8227C621.966,-69.3179 594.408,-61.0397 575.002,-55.21"/>
<polygon fill="midnightblue" stroke="midnightblue" points="642.824,-79.2381 653.409,-78.763 644.838,-72.534 642.824,-79.2381"/>
</g>
<!-- Node23 -->
<g id="node23" class="node"><title>Node23</title>
<g id="a_node23"><a xlink:href="liolib_8c.html#a45307aa59a628966c6ea270e9b476d9a" target="_top" xlink:title=" ">
<polygon fill="white" stroke="black" points="526,-0.5 526,-19.5 574,-19.5 574,-0.5 526,-0.5"/>
<text text-anchor="middle" x="550" y="-7.5" font-family="Helvetica,sans-Serif" font-size="10.00">io_read</text>
</a>
</g>
</g>
<!-- Node21&#45;&gt;Node23 -->
<g id="edge27" class="edge"><title>Node21&#45;&gt;Node23</title>
<path fill="none" stroke="midnightblue" d="M643.792,-76.1087C637.625,-73.6022 631.43,-70.5804 626,-67 606.578,-54.1936 608.759,-42.7602 590,-29 585.142,-25.4362 579.511,-22.2444 574.066,-19.54"/>
<polygon fill="midnightblue" stroke="midnightblue" points="642.75,-79.4551 653.344,-79.6297 645.171,-72.887 642.75,-79.4551"/>
</g>
<!-- Node24 -->
<g id="node24" class="node"><title>Node24</title>
<g id="a_node24"><a xlink:href="liolib_8c.html#ada35daf906cc262cc6944cad92b93ac3" target="_top" xlink:title=" ">
<polygon fill="white" stroke="black" points="525,-76.5 525,-95.5 575,-95.5 575,-76.5 525,-76.5"/>
<text text-anchor="middle" x="550" y="-83.5" font-family="Helvetica,sans-Serif" font-size="10.00">io_write</text>
</a>
</g>
</g>
<!-- Node21&#45;&gt;Node24 -->
<g id="edge28" class="edge"><title>Node21&#45;&gt;Node24</title>
<path fill="none" stroke="midnightblue" d="M643.326,-86C621.717,-86 594.321,-86 575.002,-86"/>
<polygon fill="midnightblue" stroke="midnightblue" points="643.409,-89.5001 653.409,-86 643.409,-82.5001 643.409,-89.5001"/>
</g>
<!-- Node27&#45;&gt;Node9 -->
<g id="edge36" class="edge"><title>Node27&#45;&gt;Node9</title>
<path fill="none" stroke="midnightblue" d="M630.46,-515.903C582.228,-527.049 504.879,-542 437,-542 437,-542 437,-542 315.5,-542 213.888,-542 102.394,-480.784 62.3605,-456.632"/>
<polygon fill="midnightblue" stroke="midnightblue" points="631.363,-519.286 640.296,-513.589 629.76,-512.472 631.363,-519.286"/>
</g>
<!-- Node27&#45;&gt;Node28 -->
<g id="edge33" class="edge"><title>Node27&#45;&gt;Node28</title>
<path fill="none" stroke="midnightblue" d="M636.145,-517.6C632.629,-519.249 629.198,-521.049 626,-523 607.47,-534.302 607.321,-542.92 590,-556 583.148,-561.174 575.136,-566.254 568.163,-570.399"/>
<polygon fill="midnightblue" stroke="midnightblue" points="637.727,-520.731 645.551,-513.587 634.98,-514.292 637.727,-520.731"/>
</g>
<!-- Node29 -->
<g id="node29" class="node"><title>Node29</title>
<g id="a_node29"><a xlink:href="lualib_8h.html#a3744dadc460fb2a20df474eef4d4253d" target="_top" xlink:title=" ">
<polygon fill="white" stroke="black" points="398,-570.5 398,-589.5 474,-589.5 474,-570.5 398,-570.5"/>
<text text-anchor="middle" x="436" y="-577.5" font-family="Helvetica,sans-Serif" font-size="10.00">luaL_openlibs</text>
</a>
</g>
</g>
<!-- Node28&#45;&gt;Node29 -->
<g id="edge34" class="edge"><title>Node28&#45;&gt;Node29</title>
<path fill="none" stroke="midnightblue" d="M504.347,-580C494.395,-580 483.943,-580 474.322,-580"/>
<polygon fill="midnightblue" stroke="midnightblue" points="504.482,-583.5 514.482,-580 504.482,-576.5 504.482,-583.5"/>
</g>
<!-- Node30 -->
<g id="node30" class="node"><title>Node30</title>
<g id="a_node30"><a xlink:href="lua_8c.html#aa0f8bc082ef913cb0a4df437bf5f5019" target="_top" xlink:title=" ">
<polygon fill="white" stroke="red" points="295,-627.5 295,-646.5 338,-646.5 338,-627.5 295,-627.5"/>
<text text-anchor="middle" x="316.5" y="-634.5" font-family="Helvetica,sans-Serif" font-size="10.00">pmain</text>
</a>
</g>
</g>
<!-- Node29&#45;&gt;Node30 -->
<g id="edge35" class="edge"><title>Node29&#45;&gt;Node30</title>
<path fill="none" stroke="midnightblue" d="M406.064,-594.037C384.656,-604.422 356.062,-618.293 337.231,-627.428"/>
<polygon fill="midnightblue" stroke="midnightblue" points="407.864,-597.054 415.333,-589.541 404.808,-590.756 407.864,-597.054"/>
</g>
<!-- Node34 -->
<g id="node33" class="node"><title>Node34</title>
<g id="a_node33"><a xlink:href="loadlib_8c.html#ad3773b767d767b19dc36cab61cf5c57d" target="_top" xlink:title=" ">
<polygon fill="white" stroke="black" points="157,-380.5 157,-399.5 206,-399.5 206,-380.5 157,-380.5"/>
<text text-anchor="middle" x="181.5" y="-387.5" font-family="Helvetica,sans-Serif" font-size="10.00">setpath</text>
</a>
</g>
</g>
<!-- Node33&#45;&gt;Node34 -->
<g id="edge40" class="edge"><title>Node33&#45;&gt;Node34</title>
<path fill="none" stroke="midnightblue" d="M286.227,-360.364C262.207,-367.226 228.628,-376.821 206.254,-383.213"/>
<polygon fill="midnightblue" stroke="midnightblue" points="287.222,-363.72 295.875,-357.607 285.299,-356.989 287.222,-363.72"/>
</g>
<!-- Node34&#45;&gt;Node9 -->
<g id="edge41" class="edge"><title>Node34&#45;&gt;Node9</title>
<path fill="none" stroke="midnightblue" d="M148.93,-403.479C124.475,-413.921 91.1989,-428.129 69.4178,-437.428"/>
<polygon fill="midnightblue" stroke="midnightblue" points="150.333,-406.686 158.155,-399.541 147.584,-400.248 150.333,-406.686"/>
</g>
<!-- Node36 -->
<g id="node35" class="node"><title>Node36</title>
<g id="a_node35"><a xlink:href="lauxlib_8h.html#ad0599591343ae7836d46e685b16e69de" target="_top" xlink:title=" ">
<polygon fill="white" stroke="red" points="513.5,-304.5 513.5,-323.5 586.5,-323.5 586.5,-304.5 513.5,-304.5"/>
<text text-anchor="middle" x="550" y="-311.5" font-family="Helvetica,sans-Serif" font-size="10.00">luaL_argerror</text>
</a>
</g>
</g>
<!-- Node35&#45;&gt;Node36 -->
<g id="edge43" class="edge"><title>Node35&#45;&gt;Node36</title>
<path fill="none" stroke="midnightblue" d="M615.455,-314C605.589,-314 595.684,-314 586.7,-314"/>
<polygon fill="midnightblue" stroke="midnightblue" points="615.683,-317.5 625.683,-314 615.683,-310.5 615.683,-317.5"/>
</g>
<!-- Node155 -->
<g id="node39" class="node"><title>Node155</title>
<g id="a_node39"><a xlink:href="lauxlib_8c.html#a0aa557042467d3f84d0663c742b32946" target="_top" xlink:title=" ">
<polygon fill="white" stroke="red" points="510,-266.5 510,-285.5 590,-285.5 590,-266.5 510,-266.5"/>
<text text-anchor="middle" x="550" y="-273.5" font-family="Helvetica,sans-Serif" font-size="10.00">pushfuncname</text>
</a>
</g>
</g>
<!-- Node35&#45;&gt;Node155 -->
<g id="edge47" class="edge"><title>Node35&#45;&gt;Node155</title>
<path fill="none" stroke="midnightblue" d="M635.771,-301.465C618.562,-296.295 598.94,-290.401 582.911,-285.586"/>
<polygon fill="midnightblue" stroke="midnightblue" points="634.995,-304.886 645.579,-304.411 637.008,-298.182 634.995,-304.886"/>
</g>
<!-- Node37 -->
<g id="node36" class="node"><title>Node37</title>
<g id="a_node36"><a xlink:href="lstrlib_8c.html#a2ff59847baa24a18f7d78d47dc1d3220" target="_top" xlink:title=" ">
<polygon fill="white" stroke="red" points="408,-304.5 408,-323.5 464,-323.5 464,-304.5 408,-304.5"/>
<text text-anchor="middle" x="436" y="-311.5" font-family="Helvetica,sans-Serif" font-size="10.00">addliteral</text>
</a>
</g>
</g>
<!-- Node36&#45;&gt;Node37 -->
<g id="edge44" class="edge"><title>Node36&#45;&gt;Node37</title>
<path fill="none" stroke="midnightblue" d="M502.93,-314C489.783,-314 475.882,-314 464.251,-314"/>
<polygon fill="midnightblue" stroke="midnightblue" points="503.255,-317.5 513.255,-314 503.255,-310.5 503.255,-317.5"/>
</g>
<!-- Node39 -->
<g id="node37" class="node"><title>Node39</title>
<g id="a_node37"><a xlink:href="loslib_8c.html#aaa168f0d57d7a806d86b6b8b20eb51c7" target="_top" xlink:title=" ">
<polygon fill="white" stroke="red" points="401.5,-266.5 401.5,-285.5 470.5,-285.5 470.5,-266.5 401.5,-266.5"/>
<text text-anchor="middle" x="436" y="-273.5" font-family="Helvetica,sans-Serif" font-size="10.00">checkoption</text>
</a>
</g>
</g>
<!-- Node36&#45;&gt;Node39 -->
<g id="edge45" class="edge"><title>Node36&#45;&gt;Node39</title>
<path fill="none" stroke="midnightblue" d="M511.197,-301.174C496.169,-296.075 479.18,-290.311 465.253,-285.586"/>
<polygon fill="midnightblue" stroke="midnightblue" points="510.143,-304.512 520.738,-304.411 512.392,-297.884 510.143,-304.512"/>
</g>
<!-- Node41 -->
<g id="node38" class="node"><title>Node41</title>
<g id="a_node38"><a xlink:href="ldblib_8c.html#a4eb57e66c2efb2d31c9b9e1b01d27e13" target="_top" xlink:title=" ">
<polygon fill="white" stroke="black" points="405.5,-228.5 405.5,-247.5 466.5,-247.5 466.5,-228.5 405.5,-228.5"/>
<text text-anchor="middle" x="436" y="-235.5" font-family="Helvetica,sans-Serif" font-size="10.00">db_getinfo</text>
</a>
</g>
</g>
<!-- Node36&#45;&gt;Node41 -->
<g id="edge46" class="edge"><title>Node36&#45;&gt;Node41</title>
<path fill="none" stroke="midnightblue" d="M516.991,-299.605C514.561,-298.153 512.201,-296.615 510,-295 491.241,-281.24 492.613,-270.957 474,-257 469.378,-253.534 464.032,-250.379 458.865,-247.679"/>
<polygon fill="midnightblue" stroke="midnightblue" points="515.476,-302.765 525.934,-304.46 518.816,-296.613 515.476,-302.765"/>
</g>
<!-- Node167&#45;&gt;Node8 -->
<g id="edge49" class="edge"><title>Node167&#45;&gt;Node8</title>
<path fill="none" stroke="midnightblue" d="M283.352,-403.717C279.195,-405.493 274.996,-407.289 271,-409 248.404,-418.675 222.577,-429.768 204.681,-437.461"/>
<polygon fill="midnightblue" stroke="midnightblue" points="285.036,-406.803 292.858,-399.657 282.287,-400.366 285.036,-406.803"/>
</g>
<!-- Node164 -->
<g id="node42" class="node"><title>Node164</title>
<g id="a_node42"><a xlink:href="lua_8c.html#ad256d556c3f941b29351d92606e67753" target="_top" xlink:title=" ">
<polygon fill="white" stroke="black" points="523.5,-760.5 523.5,-779.5 576.5,-779.5 576.5,-760.5 523.5,-760.5"/>
<text text-anchor="middle" x="550" y="-767.5" font-family="Helvetica,sans-Serif" font-size="10.00">dolibrary</text>
</a>
</g>
</g>
<!-- Node168&#45;&gt;Node164 -->
<g id="edge51" class="edge"><title>Node168&#45;&gt;Node164</title>
<path fill="none" stroke="midnightblue" d="M660.547,-692.137C643.676,-708.585 616.539,-733.451 590,-751 584.849,-754.407 578.996,-757.58 573.42,-760.321"/>
<polygon fill="midnightblue" stroke="midnightblue" points="663.309,-694.328 667.957,-684.808 658.387,-689.352 663.309,-694.328"/>
</g>
<!-- Node169 -->
<g id="node44" class="node"><title>Node169</title>
<g id="a_node44"><a xlink:href="lua_8c.html#af30330b1ce029ad490faaeab255cf52d" target="_top" xlink:title=" ">
<polygon fill="white" stroke="black" points="517.5,-722.5 517.5,-741.5 582.5,-741.5 582.5,-722.5 517.5,-722.5"/>
<text text-anchor="middle" x="550" y="-729.5" font-family="Helvetica,sans-Serif" font-size="10.00">get_prompt</text>
</a>
</g>
</g>
<!-- Node168&#45;&gt;Node169 -->
<g id="edge54" class="edge"><title>Node168&#45;&gt;Node169</title>
<path fill="none" stroke="midnightblue" d="M646.968,-688.757C623.855,-699.172 592.699,-713.211 572.242,-722.428"/>
<polygon fill="midnightblue" stroke="midnightblue" points="648.647,-691.84 656.327,-684.541 645.772,-685.458 648.647,-691.84"/>
</g>
<!-- Node173 -->
<g id="node46" class="node"><title>Node173</title>
<g id="a_node46"><a xlink:href="lua_8c.html#aa6faba0570416a2dfe7783da2dcbf6df" target="_top" xlink:title=" ">
<polygon fill="white" stroke="black" points="528.5,-646.5 528.5,-665.5 571.5,-665.5 571.5,-646.5 528.5,-646.5"/>
<text text-anchor="middle" x="550" y="-653.5" font-family="Helvetica,sans-Serif" font-size="10.00">l_print</text>
</a>
</g>
</g>
<!-- Node168&#45;&gt;Node173 -->
<g id="edge56" class="edge"><title>Node168&#45;&gt;Node173</title>
<path fill="none" stroke="midnightblue" d="M631.194,-668.045C610.837,-664.987 587.952,-661.55 571.856,-659.132"/>
<polygon fill="midnightblue" stroke="midnightblue" points="630.841,-671.531 641.25,-669.555 631.881,-664.609 630.841,-671.531"/>
</g>
<!-- Node174 -->
<g id="node48" class="node"><title>Node174</title>
<g id="a_node48"><a xlink:href="lbaselib_8c.html#a865eb761a305c588d6940da5272375b7" target="_top" xlink:title=" ">
<polygon fill="white" stroke="black" points="520,-684.5 520,-703.5 580,-703.5 580,-684.5 520,-684.5"/>
<text text-anchor="middle" x="550" y="-691.5" font-family="Helvetica,sans-Serif" font-size="10.00">luaB_print</text>
</a>
</g>
</g>
<!-- Node168&#45;&gt;Node174 -->
<g id="edge59" class="edge"><title>Node168&#45;&gt;Node174</title>
<path fill="none" stroke="midnightblue" d="M630.915,-681.997C613.877,-684.556 595.101,-687.376 580.033,-689.639"/>
<polygon fill="midnightblue" stroke="midnightblue" points="631.881,-685.391 641.25,-680.445 630.841,-678.469 631.881,-685.391"/>
</g>
<!-- Node175 -->
<g id="node49" class="node"><title>Node175</title>
<g id="a_node49"><a xlink:href="lua_8c.html#a1e73bab660617a11ddcbb7d647980d40" target="_top" xlink:title=" ">
<polygon fill="white" stroke="black" points="522,-608.5 522,-627.5 578,-627.5 578,-608.5 522,-608.5"/>
<text text-anchor="middle" x="550" y="-615.5" font-family="Helvetica,sans-Serif" font-size="10.00">pushargs</text>
</a>
</g>
</g>
<!-- Node168&#45;&gt;Node175 -->
<g id="edge60" class="edge"><title>Node168&#45;&gt;Node175</title>
<path fill="none" stroke="midnightblue" d="M646.968,-661.243C623.855,-650.828 592.699,-636.789 572.242,-627.572"/>
<polygon fill="midnightblue" stroke="midnightblue" points="645.772,-664.542 656.327,-665.459 648.647,-658.16 645.772,-664.542"/>
</g>
<!-- Node163 -->
<g id="node43" class="node"><title>Node163</title>
<g id="a_node43"><a xlink:href="lua_8c.html#a95a376c847572def6b3f78d33a7bc881" target="_top" xlink:title=" ">
<polygon fill="white" stroke="black" points="411.5,-760.5 411.5,-779.5 460.5,-779.5 460.5,-760.5 411.5,-760.5"/>
<text text-anchor="middle" x="436" y="-767.5" font-family="Helvetica,sans-Serif" font-size="10.00">runargs</text>
</a>
</g>
</g>
<!-- Node164&#45;&gt;Node163 -->
<g id="edge52" class="edge"><title>Node164&#45;&gt;Node163</title>
<path fill="none" stroke="midnightblue" d="M513.069,-770C495.917,-770 475.871,-770 460.665,-770"/>
<polygon fill="midnightblue" stroke="midnightblue" points="513.305,-773.5 523.305,-770 513.305,-766.5 513.305,-773.5"/>
</g>
<!-- Node163&#45;&gt;Node30 -->
<g id="edge53" class="edge"><title>Node163&#45;&gt;Node30</title>
<path fill="none" stroke="midnightblue" d="M403.39,-755.154C401.499,-753.848 399.683,-752.462 398,-751 361.599,-719.383 333.147,-668.034 322.282,-646.736"/>
<polygon fill="midnightblue" stroke="midnightblue" points="401.626,-758.178 411.992,-760.367 405.253,-752.191 401.626,-758.178"/>
</g>
<!-- Node170 -->
<g id="node45" class="node"><title>Node170</title>
<g id="a_node45"><a xlink:href="lua_8c.html#a83a7cb21b34095ca93f2a2a863f58fda" target="_top" xlink:title=" ">
<polygon fill="white" stroke="red" points="409.5,-722.5 409.5,-741.5 462.5,-741.5 462.5,-722.5 409.5,-722.5"/>
<text text-anchor="middle" x="436" y="-729.5" font-family="Helvetica,sans-Serif" font-size="10.00">pushline</text>
</a>
</g>
</g>
<!-- Node169&#45;&gt;Node170 -->
<g id="edge55" class="edge"><title>Node169&#45;&gt;Node170</title>
<path fill="none" stroke="midnightblue" d="M507.187,-732C492.304,-732 475.991,-732 462.84,-732"/>
<polygon fill="midnightblue" stroke="midnightblue" points="507.205,-735.5 517.205,-732 507.205,-728.5 507.205,-735.5"/>
</g>
<!-- Node165 -->
<g id="node47" class="node"><title>Node165</title>
<g id="a_node47"><a xlink:href="lua_8c.html#a946f2675cba972bd3580d9046abf2b6b" target="_top" xlink:title=" ">
<polygon fill="white" stroke="black" points="409.5,-646.5 409.5,-665.5 462.5,-665.5 462.5,-646.5 409.5,-646.5"/>
<text text-anchor="middle" x="436" y="-653.5" font-family="Helvetica,sans-Serif" font-size="10.00">doREPL</text>
</a>
</g>
</g>
<!-- Node173&#45;&gt;Node165 -->
<g id="edge57" class="edge"><title>Node173&#45;&gt;Node165</title>
<path fill="none" stroke="midnightblue" d="M518.184,-656C500.692,-656 479.059,-656 462.524,-656"/>
<polygon fill="midnightblue" stroke="midnightblue" points="518.458,-659.5 528.457,-656 518.457,-652.5 518.458,-659.5"/>
</g>
<!-- Node165&#45;&gt;Node30 -->
<g id="edge58" class="edge"><title>Node165&#45;&gt;Node30</title>
<path fill="none" stroke="midnightblue" d="M399.202,-650.211C379.204,-646.978 354.997,-643.063 338.146,-640.338"/>
<polygon fill="midnightblue" stroke="midnightblue" points="398.784,-653.689 409.214,-651.83 399.901,-646.779 398.784,-653.689"/>
</g>
<!-- Node166 -->
<g id="node50" class="node"><title>Node166</title>
<g id="a_node50"><a xlink:href="lua_8c.html#a5a944babaacde1035f1aa8b4156cc06a" target="_top" xlink:title=" ">
<polygon fill="white" stroke="black" points="399,-608.5 399,-627.5 473,-627.5 473,-608.5 399,-608.5"/>
<text text-anchor="middle" x="436" y="-615.5" font-family="Helvetica,sans-Serif" font-size="10.00">handle_script</text>
</a>
</g>
</g>
<!-- Node175&#45;&gt;Node166 -->
<g id="edge61" class="edge"><title>Node175&#45;&gt;Node166</title>
<path fill="none" stroke="midnightblue" d="M511.829,-618C499.387,-618 485.54,-618 473.175,-618"/>
<polygon fill="midnightblue" stroke="midnightblue" points="511.888,-621.5 521.888,-618 511.888,-614.5 511.888,-621.5"/>
</g>
<!-- Node166&#45;&gt;Node30 -->
<g id="edge62" class="edge"><title>Node166&#45;&gt;Node30</title>
<path fill="none" stroke="midnightblue" d="M388.684,-625.489C371.133,-628.327 352.032,-631.416 338.038,-633.679"/>
<polygon fill="midnightblue" stroke="midnightblue" points="389.474,-628.907 398.787,-623.856 388.357,-621.997 389.474,-628.907"/>
</g>
</g>
</svg>
