<?xml version="1.0" encoding="UTF-8" standalone="no"?>
<!DOCTYPE svg PUBLIC "-//W3C//DTD SVG 1.1//EN"
 "http://www.w3.org/Graphics/SVG/1.1/DTD/svg11.dtd">
<!-- Generated by graphviz version 2.38.0 (20140413.2041)
 -->
<!-- Title: aux_upvalue Pages: 1 -->
<svg width="411pt" height="218pt"
 viewBox="0.00 0.00 411.00 218.00" xmlns="http://www.w3.org/2000/svg" xmlns:xlink="http://www.w3.org/1999/xlink">
<g id="graph0" class="graph" transform="scale(1 1) rotate(0) translate(4 214)">
<title>aux_upvalue</title>
<polygon fill="white" stroke="none" points="-4,4 -4,-214 407,-214 407,4 -4,4"/>
<!-- Node1 -->
<g id="node1" class="node"><title>Node1</title>
<g id="a_node1"><a xlink:title=" ">
<polygon fill="#bfbfbf" stroke="black" points="333,-95.5 333,-114.5 403,-114.5 403,-95.5 333,-95.5"/>
<text text-anchor="middle" x="368" y="-102.5" font-family="Helvetica,sans-Serif" font-size="10.00">aux_upvalue</text>
</a>
</g>
</g>
<!-- Node2 -->
<g id="node2" class="node"><title>Node2</title>
<g id="a_node2"><a xlink:href="lua_8h.html#af30136978fa4de5e7fa8a434b8ca8611" target="_top" xlink:title=" ">
<polygon fill="white" stroke="black" points="217,-114.5 217,-133.5 297,-133.5 297,-114.5 217,-114.5"/>
<text text-anchor="middle" x="257" y="-121.5" font-family="Helvetica,sans-Serif" font-size="10.00">lua_getupvalue</text>
</a>
</g>
</g>
<!-- Node1&#45;&gt;Node2 -->
<g id="edge1" class="edge"><title>Node1&#45;&gt;Node2</title>
<path fill="none" stroke="midnightblue" d="M322.951,-112.678C314.365,-114.175 305.42,-115.734 297.011,-117.2"/>
<polygon fill="midnightblue" stroke="midnightblue" points="323.56,-116.125 332.811,-110.96 322.358,-109.229 323.56,-116.125"/>
</g>
<!-- Node9 -->
<g id="node9" class="node"><title>Node9</title>
<g id="a_node9"><a xlink:href="lua_8h.html#a6a2640dd28d1b773dcf36f1c8112835e" target="_top" xlink:title=" ">
<polygon fill="white" stroke="black" points="217,-76.5 217,-95.5 297,-95.5 297,-76.5 217,-76.5"/>
<text text-anchor="middle" x="257" y="-83.5" font-family="Helvetica,sans-Serif" font-size="10.00">lua_setupvalue</text>
</a>
</g>
</g>
<!-- Node1&#45;&gt;Node9 -->
<g id="edge8" class="edge"><title>Node1&#45;&gt;Node9</title>
<path fill="none" stroke="midnightblue" d="M322.951,-97.3217C314.365,-95.8251 305.42,-94.2659 297.011,-92.8001"/>
<polygon fill="midnightblue" stroke="midnightblue" points="322.358,-100.771 332.811,-99.0404 323.56,-93.8751 322.358,-100.771"/>
</g>
<!-- Node3 -->
<g id="node3" class="node"><title>Node3</title>
<g id="a_node3"><a xlink:href="ldblib_8c.html#a31ebacb3668352430584fe277ac74923" target="_top" xlink:title=" ">
<polygon fill="white" stroke="black" points="116,-95.5 116,-114.5 181,-114.5 181,-95.5 116,-95.5"/>
<text text-anchor="middle" x="148.5" y="-102.5" font-family="Helvetica,sans-Serif" font-size="10.00">auxupvalue</text>
</a>
</g>
</g>
<!-- Node2&#45;&gt;Node3 -->
<g id="edge2" class="edge"><title>Node2&#45;&gt;Node3</title>
<path fill="none" stroke="midnightblue" d="M206.85,-115.232C198.143,-113.678 189.289,-112.098 181.226,-110.66"/>
<polygon fill="midnightblue" stroke="midnightblue" points="206.489,-118.722 216.948,-117.033 207.718,-111.831 206.489,-118.722"/>
</g>
<!-- Node6 -->
<g id="node6" class="node"><title>Node6</title>
<g id="a_node6"><a xlink:href="ldblib_8c.html#a0951daf8c0b66e39bd3aa618aff380bf" target="_top" xlink:title=" ">
<polygon fill="white" stroke="black" points="116,-152.5 116,-171.5 181,-171.5 181,-152.5 116,-152.5"/>
<text text-anchor="middle" x="148.5" y="-159.5" font-family="Helvetica,sans-Serif" font-size="10.00">checkupval</text>
</a>
</g>
</g>
<!-- Node2&#45;&gt;Node6 -->
<g id="edge5" class="edge"><title>Node2&#45;&gt;Node6</title>
<path fill="none" stroke="midnightblue" d="M219.645,-136.972C205.456,-142.034 189.482,-147.734 176.366,-152.414"/>
<polygon fill="midnightblue" stroke="midnightblue" points="220.883,-140.246 229.126,-133.589 218.531,-133.653 220.883,-140.246"/>
</g>
<!-- Node4 -->
<g id="node4" class="node"><title>Node4</title>
<g id="a_node4"><a xlink:href="ldblib_8c.html#a7a4124c791de7d76bd4fa752eb1569b6" target="_top" xlink:title=" ">
<polygon fill="white" stroke="black" points="1,-114.5 1,-133.5 79,-133.5 79,-114.5 1,-114.5"/>
<text text-anchor="middle" x="40" y="-121.5" font-family="Helvetica,sans-Serif" font-size="10.00">db_getupvalue</text>
</a>
</g>
</g>
<!-- Node3&#45;&gt;Node4 -->
<g id="edge3" class="edge"><title>Node3&#45;&gt;Node4</title>
<path fill="none" stroke="midnightblue" d="M105.784,-112.442C96.9986,-114.01 87.7728,-115.656 79.127,-117.198"/>
<polygon fill="midnightblue" stroke="midnightblue" points="106.605,-115.851 115.835,-110.649 105.376,-108.96 106.605,-115.851"/>
</g>
<!-- Node5 -->
<g id="node5" class="node"><title>Node5</title>
<g id="a_node5"><a xlink:href="ldblib_8c.html#acd61487bdd057d6c668ec0bd88728670" target="_top" xlink:title=" ">
<polygon fill="white" stroke="black" points="1,-76.5 1,-95.5 79,-95.5 79,-76.5 1,-76.5"/>
<text text-anchor="middle" x="40" y="-83.5" font-family="Helvetica,sans-Serif" font-size="10.00">db_setupvalue</text>
</a>
</g>
</g>
<!-- Node3&#45;&gt;Node5 -->
<g id="edge4" class="edge"><title>Node3&#45;&gt;Node5</title>
<path fill="none" stroke="midnightblue" d="M105.784,-97.5578C96.9986,-95.9904 87.7728,-94.3444 79.127,-92.802"/>
<polygon fill="midnightblue" stroke="midnightblue" points="105.376,-101.04 115.835,-99.3508 106.605,-94.1488 105.376,-101.04"/>
</g>
<!-- Node7 -->
<g id="node7" class="node"><title>Node7</title>
<g id="a_node7"><a xlink:href="ldblib_8c.html#ade86533c6188a941aae1be4396a20393" target="_top" xlink:title=" ">
<polygon fill="white" stroke="black" points="4,-190.5 4,-209.5 76,-209.5 76,-190.5 4,-190.5"/>
<text text-anchor="middle" x="40" y="-197.5" font-family="Helvetica,sans-Serif" font-size="10.00">db_upvalueid</text>
</a>
</g>
</g>
<!-- Node6&#45;&gt;Node7 -->
<g id="edge6" class="edge"><title>Node6&#45;&gt;Node7</title>
<path fill="none" stroke="midnightblue" d="M111.145,-174.972C96.9561,-180.034 80.9821,-185.734 67.8658,-190.414"/>
<polygon fill="midnightblue" stroke="midnightblue" points="112.383,-178.246 120.626,-171.589 110.031,-171.653 112.383,-178.246"/>
</g>
<!-- Node8 -->
<g id="node8" class="node"><title>Node8</title>
<g id="a_node8"><a xlink:href="ldblib_8c.html#acd80bdb3262b3580eb6955f6f3eb3549" target="_top" xlink:title=" ">
<polygon fill="white" stroke="black" points="0,-152.5 0,-171.5 80,-171.5 80,-152.5 0,-152.5"/>
<text text-anchor="middle" x="40" y="-159.5" font-family="Helvetica,sans-Serif" font-size="10.00">db_upvaluejoin</text>
</a>
</g>
</g>
<!-- Node6&#45;&gt;Node8 -->
<g id="edge7" class="edge"><title>Node6&#45;&gt;Node8</title>
<path fill="none" stroke="midnightblue" d="M105.559,-162C97.2312,-162 88.5169,-162 80.282,-162"/>
<polygon fill="midnightblue" stroke="midnightblue" points="105.835,-165.5 115.835,-162 105.835,-158.5 105.835,-165.5"/>
</g>
<!-- Node9&#45;&gt;Node3 -->
<g id="edge9" class="edge"><title>Node9&#45;&gt;Node3</title>
<path fill="none" stroke="midnightblue" d="M206.85,-94.7685C198.143,-96.3219 189.289,-97.9015 181.226,-99.34"/>
<polygon fill="midnightblue" stroke="midnightblue" points="207.718,-98.169 216.948,-92.967 206.489,-91.2778 207.718,-98.169"/>
</g>
<!-- Node10 -->
<g id="node10" class="node"><title>Node10</title>
<g id="a_node10"><a xlink:href="lbaselib_8c.html#a32e7b00b9c21d72a3e6a56e12c3f0e08" target="_top" xlink:title=" ">
<polygon fill="white" stroke="black" points="120.5,-38.5 120.5,-57.5 176.5,-57.5 176.5,-38.5 120.5,-38.5"/>
<text text-anchor="middle" x="148.5" y="-45.5" font-family="Helvetica,sans-Serif" font-size="10.00">load_aux</text>
</a>
</g>
</g>
<!-- Node9&#45;&gt;Node10 -->
<g id="edge10" class="edge"><title>Node9&#45;&gt;Node10</title>
<path fill="none" stroke="midnightblue" d="M219.645,-73.0282C205.456,-67.9656 189.482,-62.2659 176.366,-57.5859"/>
<polygon fill="midnightblue" stroke="midnightblue" points="218.531,-76.3468 229.126,-76.411 220.883,-69.7539 218.531,-76.3468"/>
</g>
<!-- Node11 -->
<g id="node11" class="node"><title>Node11</title>
<g id="a_node11"><a xlink:href="lbaselib_8c.html#a4a9a3613fcf80fe033e044f7e19bed69" target="_top" xlink:title=" ">
<polygon fill="white" stroke="black" points="10.5,-38.5 10.5,-57.5 69.5,-57.5 69.5,-38.5 10.5,-38.5"/>
<text text-anchor="middle" x="40" y="-45.5" font-family="Helvetica,sans-Serif" font-size="10.00">luaB_load</text>
</a>
</g>
</g>
<!-- Node10&#45;&gt;Node11 -->
<g id="edge11" class="edge"><title>Node10&#45;&gt;Node11</title>
<path fill="none" stroke="midnightblue" d="M110.069,-48C96.7727,-48 82.0295,-48 69.5904,-48"/>
<polygon fill="midnightblue" stroke="midnightblue" points="110.35,-51.5001 120.35,-48 110.35,-44.5001 110.35,-51.5001"/>
</g>
<!-- Node12 -->
<g id="node12" class="node"><title>Node12</title>
<g id="a_node12"><a xlink:href="lbaselib_8c.html#aeb4cb83db820979bbdd7710109b52957" target="_top" xlink:title=" ">
<polygon fill="white" stroke="black" points="4.5,-0.5 4.5,-19.5 75.5,-19.5 75.5,-0.5 4.5,-0.5"/>
<text text-anchor="middle" x="40" y="-7.5" font-family="Helvetica,sans-Serif" font-size="10.00">luaB_loadfile</text>
</a>
</g>
</g>
<!-- Node10&#45;&gt;Node12 -->
<g id="edge12" class="edge"><title>Node10&#45;&gt;Node12</title>
<path fill="none" stroke="midnightblue" d="M111.145,-35.0282C96.9561,-29.9656 80.9821,-24.2659 67.8658,-19.5859"/>
<polygon fill="midnightblue" stroke="midnightblue" points="110.031,-38.3468 120.626,-38.411 112.383,-31.7539 110.031,-38.3468"/>
</g>
</g>
</svg>
