<?xml version="1.0" encoding="UTF-8" standalone="no"?>
<!DOCTYPE svg PUBLIC "-//W3C//DTD SVG 1.1//EN"
 "http://www.w3.org/Graphics/SVG/1.1/DTD/svg11.dtd">
<!-- Generated by graphviz version 2.38.0 (20140413.2041)
 -->
<!-- Title: luaL_pushresultsize Pages: 1 -->
<svg width="1752pt" height="725pt"
 viewBox="0.00 0.00 1752.00 724.62" xmlns="http://www.w3.org/2000/svg" xmlns:xlink="http://www.w3.org/1999/xlink">
<g id="graph0" class="graph" transform="scale(1 1) rotate(0) translate(4 720.623)">
<title>luaL_pushresultsize</title>
<polygon fill="white" stroke="none" points="-4,4 -4,-720.623 1748,-720.623 1748,4 -4,4"/>
<!-- Node1 -->
<g id="node1" class="node"><title>Node1</title>
<g id="a_node1"><a xlink:title=" ">
<polygon fill="#bfbfbf" stroke="black" points="0,-467.5 0,-486.5 103,-486.5 103,-467.5 0,-467.5"/>
<text text-anchor="middle" x="51.5" y="-474.5" font-family="Helvetica,sans-Serif" font-size="10.00">luaL_pushresultsize</text>
</a>
</g>
</g>
<!-- Node2 -->
<g id="node2" class="node"><title>Node2</title>
<g id="a_node2"><a xlink:href="lauxlib_8c.html#a3a1f80033814e2057583a7d24cee23b4" target="_top" xlink:title=" ">
<polygon fill="white" stroke="black" points="139,-467.5 139,-486.5 224,-486.5 224,-467.5 139,-467.5"/>
<text text-anchor="middle" x="181.5" y="-474.5" font-family="Helvetica,sans-Serif" font-size="10.00">luaL_pushresult</text>
</a>
</g>
</g>
<!-- Node1&#45;&gt;Node2 -->
<g id="edge1" class="edge"><title>Node1&#45;&gt;Node2</title>
<path fill="none" stroke="midnightblue" d="M103.089,-477C111.535,-477 120.306,-477 128.78,-477"/>
<polygon fill="midnightblue" stroke="midnightblue" points="128.926,-480.5 138.925,-477 128.925,-473.5 128.926,-480.5"/>
</g>
<!-- Node3 -->
<g id="node3" class="node"><title>Node3</title>
<g id="a_node3"><a xlink:href="lapi_8c.html#a2c325311534c23450cdf11931a8db0ae" target="_top" xlink:title=" ">
<polygon fill="white" stroke="black" points="355,-506.5 355,-525.5 437,-525.5 437,-506.5 355,-506.5"/>
<text text-anchor="middle" x="396" y="-513.5" font-family="Helvetica,sans-Serif" font-size="10.00">lua_pushlstring</text>
</a>
</g>
</g>
<!-- Node2&#45;&gt;Node3 -->
<g id="edge2" class="edge"><title>Node2&#45;&gt;Node3</title>
<path fill="none" stroke="midnightblue" d="M224.23,-484.659C258.811,-491.005 308.067,-500.045 344.801,-506.787"/>
<polygon fill="midnightblue" stroke="midnightblue" points="344.339,-510.261 354.806,-508.623 345.603,-503.376 344.339,-510.261"/>
</g>
<!-- Node116 -->
<g id="node36" class="node"><title>Node116</title>
<g id="a_node36"><a xlink:href="lauxlib_8c.html#acdf7f3169e55f9c8bd3d314358a9e778" target="_top" xlink:title=" ">
<polygon fill="white" stroke="black" points="260,-439.5 260,-458.5 319,-458.5 319,-439.5 260,-439.5"/>
<text text-anchor="middle" x="289.5" y="-446.5" font-family="Helvetica,sans-Serif" font-size="10.00">resizebox</text>
</a>
</g>
</g>
<!-- Node2&#45;&gt;Node116 -->
<g id="edge48" class="edge"><title>Node2&#45;&gt;Node116</title>
<path fill="none" stroke="midnightblue" d="M218.683,-467.442C228.759,-464.781 239.739,-461.88 249.946,-459.184"/>
<polygon fill="midnightblue" stroke="midnightblue" points="251.058,-462.511 259.832,-456.573 249.27,-455.743 251.058,-462.511"/>
</g>
<!-- Node4 -->
<g id="node4" class="node"><title>Node4</title>
<g id="a_node4"><a xlink:href="lstring_8c.html#a6d47e53be6b8e58202bb927752f4824b" target="_top" xlink:title=" ">
<polygon fill="white" stroke="black" points="475.5,-525.5 475.5,-544.5 534.5,-544.5 534.5,-525.5 475.5,-525.5"/>
<text text-anchor="middle" x="505" y="-532.5" font-family="Helvetica,sans-Serif" font-size="10.00">luaS_new</text>
</a>
</g>
</g>
<!-- Node3&#45;&gt;Node4 -->
<g id="edge3" class="edge"><title>Node3&#45;&gt;Node4</title>
<path fill="none" stroke="midnightblue" d="M437.147,-523.129C446.368,-524.766 456.153,-526.504 465.31,-528.13"/>
<polygon fill="midnightblue" stroke="midnightblue" points="464.86,-531.605 475.318,-529.907 466.084,-524.712 464.86,-531.605"/>
</g>
<!-- Node5 -->
<g id="node5" class="node"><title>Node5</title>
<g id="a_node5"><a xlink:href="lstring_8c.html#ab41fb084ce3ea5e2779f6659ccc2484d" target="_top" xlink:title=" ">
<polygon fill="white" stroke="black" points="580,-516.5 580,-535.5 652,-535.5 652,-516.5 580,-516.5"/>
<text text-anchor="middle" x="616" y="-523.5" font-family="Helvetica,sans-Serif" font-size="10.00">luaS_newlstr</text>
</a>
</g>
</g>
<!-- Node3&#45;&gt;Node5 -->
<g id="edge47" class="edge"><title>Node3&#45;&gt;Node5</title>
<path fill="none" stroke="midnightblue" d="M437.174,-514.645C465.183,-514.031 503.405,-513.855 537,-516 547.635,-516.679 559.036,-517.874 569.747,-519.206"/>
<polygon fill="midnightblue" stroke="midnightblue" points="569.388,-522.689 579.758,-520.514 570.295,-515.748 569.388,-522.689"/>
</g>
<!-- Node4&#45;&gt;Node5 -->
<g id="edge4" class="edge"><title>Node4&#45;&gt;Node5</title>
<path fill="none" stroke="midnightblue" d="M534.638,-532.635C545.371,-531.749 557.846,-530.719 569.719,-529.739"/>
<polygon fill="midnightblue" stroke="midnightblue" points="570.262,-533.206 579.94,-528.895 569.686,-526.23 570.262,-533.206"/>
</g>
<!-- Node6 -->
<g id="node6" class="node"><title>Node6</title>
<g id="a_node6"><a xlink:href="lstring_8c.html#a9b2c32c59a280de24f20df1c7f0433a1" target="_top" xlink:title=" ">
<polygon fill="white" stroke="black" points="698.5,-649.5 698.5,-668.5 763.5,-668.5 763.5,-649.5 698.5,-649.5"/>
<text text-anchor="middle" x="731" y="-656.5" font-family="Helvetica,sans-Serif" font-size="10.00">internshrstr</text>
</a>
</g>
</g>
<!-- Node5&#45;&gt;Node6 -->
<g id="edge5" class="edge"><title>Node5&#45;&gt;Node6</title>
<path fill="none" stroke="midnightblue" d="M625.127,-535.565C643.93,-557.696 690.673,-612.713 714.902,-641.229"/>
<polygon fill="midnightblue" stroke="midnightblue" points="712.5,-643.808 721.642,-649.163 717.835,-639.276 712.5,-643.808"/>
</g>
<!-- Node11 -->
<g id="node11" class="node"><title>Node11</title>
<g id="a_node11"><a xlink:href="lmem_8c.html#a8fc7df43dd830ccbe7581fd53f65bdbe" target="_top" xlink:title=" ">
<polygon fill="white" stroke="black" points="696.5,-325.5 696.5,-344.5 765.5,-344.5 765.5,-325.5 696.5,-325.5"/>
<text text-anchor="middle" x="731" y="-332.5" font-family="Helvetica,sans-Serif" font-size="10.00">luaM_toobig</text>
</a>
</g>
</g>
<!-- Node5&#45;&gt;Node11 -->
<g id="edge10" class="edge"><title>Node5&#45;&gt;Node11</title>
<path fill="none" stroke="midnightblue" d="M622.759,-516.266C640.625,-486.067 695.324,-393.611 718.946,-353.684"/>
<polygon fill="midnightblue" stroke="midnightblue" points="722.037,-355.332 724.117,-344.944 716.013,-351.768 722.037,-355.332"/>
</g>
<!-- Node24 -->
<g id="node24" class="node"><title>Node24</title>
<g id="a_node24"><a xlink:href="lstring_8c.html#a8790c7d6e706f935dd6e9eefd068921c" target="_top" xlink:title=" ">
<polygon fill="white" stroke="black" points="1405,-592.5 1405,-611.5 1510,-611.5 1510,-592.5 1405,-592.5"/>
<text text-anchor="middle" x="1457.5" y="-599.5" font-family="Helvetica,sans-Serif" font-size="10.00">luaS_createlngstrobj</text>
</a>
</g>
</g>
<!-- Node5&#45;&gt;Node24 -->
<g id="edge46" class="edge"><title>Node5&#45;&gt;Node24</title>
<path fill="none" stroke="midnightblue" d="M633.449,-535.625C670.003,-556.076 761.296,-602 844,-602 844,-602 844,-602 1213.5,-602 1275.14,-602 1345.57,-602 1394.68,-602"/>
<polygon fill="midnightblue" stroke="midnightblue" points="1394.83,-605.5 1404.83,-602 1394.83,-598.5 1394.83,-605.5"/>
</g>
<!-- Node7 -->
<g id="node7" class="node"><title>Node7</title>
<g id="a_node7"><a xlink:href="lstring_8c.html#a85a1a917ef263701e47c36e68011d917" target="_top" xlink:title=" ">
<polygon fill="white" stroke="black" points="1557.5,-592.5 1557.5,-611.5 1625.5,-611.5 1625.5,-592.5 1557.5,-592.5"/>
<text text-anchor="middle" x="1591.5" y="-599.5" font-family="Helvetica,sans-Serif" font-size="10.00">createstrobj</text>
</a>
</g>
</g>
<!-- Node6&#45;&gt;Node7 -->
<g id="edge6" class="edge"><title>Node6&#45;&gt;Node7</title>
<path fill="none" stroke="midnightblue" d="M745.984,-668.528C759.822,-677.449 781.929,-690.371 803,-697 871.31,-718.491 891.389,-716 963,-716 963,-716 963,-716 1333,-716 1428.85,-716 1528.92,-649.138 1570.52,-617.825"/>
<polygon fill="midnightblue" stroke="midnightblue" points="1572.68,-620.58 1578.49,-611.72 1568.42,-615.023 1572.68,-620.58"/>
</g>
<!-- Node9 -->
<g id="node9" class="node"><title>Node9</title>
<g id="a_node9"><a xlink:href="lstring_8c.html#ac453c0e85b7bb4e9b146fc140b1b7c9e" target="_top" xlink:title=" ">
<polygon fill="white" stroke="black" points="814,-668.5 814,-687.5 876,-687.5 876,-668.5 814,-668.5"/>
<text text-anchor="middle" x="845" y="-675.5" font-family="Helvetica,sans-Serif" font-size="10.00">luaS_hash</text>
</a>
</g>
</g>
<!-- Node6&#45;&gt;Node9 -->
<g id="edge8" class="edge"><title>Node6&#45;&gt;Node9</title>
<path fill="none" stroke="midnightblue" d="M763.795,-664.394C776.144,-666.489 790.438,-668.914 803.509,-671.131"/>
<polygon fill="midnightblue" stroke="midnightblue" points="803.224,-674.632 813.668,-672.854 804.394,-667.731 803.224,-674.632"/>
</g>
<!-- Node10 -->
<g id="node10" class="node"><title>Node10</title>
<g id="a_node10"><a xlink:href="lstring_8c.html#a88a409a2e7eee2106940f69d7884c471" target="_top" xlink:title=" ">
<polygon fill="white" stroke="black" points="811,-630.5 811,-649.5 879,-649.5 879,-630.5 811,-630.5"/>
<text text-anchor="middle" x="845" y="-637.5" font-family="Helvetica,sans-Serif" font-size="10.00">luaS_resize</text>
</a>
</g>
</g>
<!-- Node6&#45;&gt;Node10 -->
<g id="edge9" class="edge"><title>Node6&#45;&gt;Node10</title>
<path fill="none" stroke="midnightblue" d="M763.795,-653.606C775.315,-651.652 788.527,-649.411 800.859,-647.319"/>
<polygon fill="midnightblue" stroke="midnightblue" points="801.681,-650.729 810.955,-645.606 800.51,-643.828 801.681,-650.729"/>
</g>
<!-- Node8 -->
<g id="node8" class="node"><title>Node8</title>
<g id="a_node8"><a xlink:href="lgc_8c.html#abfc8404c5fbd2a1770202fa0b087d451" target="_top" xlink:title=" ">
<polygon fill="white" stroke="black" points="1673,-592.5 1673,-611.5 1744,-611.5 1744,-592.5 1673,-592.5"/>
<text text-anchor="middle" x="1708.5" y="-599.5" font-family="Helvetica,sans-Serif" font-size="10.00">luaC_newobj</text>
</a>
</g>
</g>
<!-- Node7&#45;&gt;Node8 -->
<g id="edge7" class="edge"><title>Node7&#45;&gt;Node8</title>
<path fill="none" stroke="midnightblue" d="M1625.76,-602C1637.27,-602 1650.36,-602 1662.64,-602"/>
<polygon fill="midnightblue" stroke="midnightblue" points="1662.71,-605.5 1672.71,-602 1662.71,-598.5 1662.71,-605.5"/>
</g>
<!-- Node12 -->
<g id="node12" class="node"><title>Node12</title>
<g id="a_node12"><a xlink:href="ldebug_8c.html#a88d38ca5da2e7a1492fc9d5ad70c32c5" target="_top" xlink:title=" ">
<polygon fill="white" stroke="black" points="807.5,-264.5 807.5,-283.5 882.5,-283.5 882.5,-264.5 807.5,-264.5"/>
<text text-anchor="middle" x="845" y="-271.5" font-family="Helvetica,sans-Serif" font-size="10.00">luaG_runerror</text>
</a>
</g>
</g>
<!-- Node11&#45;&gt;Node12 -->
<g id="edge11" class="edge"><title>Node11&#45;&gt;Node12</title>
<path fill="none" stroke="midnightblue" d="M749.5,-325.469C767.64,-315.589 796.226,-300.02 817.211,-288.59"/>
<polygon fill="midnightblue" stroke="midnightblue" points="819.145,-291.522 826.253,-283.666 815.797,-285.375 819.145,-291.522"/>
</g>
<!-- Node13 -->
<g id="node13" class="node"><title>Node13</title>
<g id="a_node13"><a xlink:href="ldebug_8c.html#a9834508872dae133075c7efe6404a9d8" target="_top" xlink:title=" ">
<polygon fill="white" stroke="black" points="933,-194.5 933,-213.5 995,-213.5 995,-194.5 933,-194.5"/>
<text text-anchor="middle" x="964" y="-201.5" font-family="Helvetica,sans-Serif" font-size="10.00">currentline</text>
</a>
</g>
</g>
<!-- Node12&#45;&gt;Node13 -->
<g id="edge12" class="edge"><title>Node12&#45;&gt;Node13</title>
<path fill="none" stroke="midnightblue" d="M862.268,-264.267C881.915,-252.513 915.168,-232.617 938.06,-218.921"/>
<polygon fill="midnightblue" stroke="midnightblue" points="940.085,-221.788 946.87,-213.651 936.491,-215.781 940.085,-221.788"/>
</g>
<!-- Node15 -->
<g id="node15" class="node"><title>Node15</title>
<g id="a_node15"><a xlink:href="ldebug_8c.html#a7e1dc7518150bf19bd9aa5dda166a2eb" target="_top" xlink:title=" ">
<polygon fill="white" stroke="black" points="927.5,-288.5 927.5,-307.5 1000.5,-307.5 1000.5,-288.5 927.5,-288.5"/>
<text text-anchor="middle" x="964" y="-295.5" font-family="Helvetica,sans-Serif" font-size="10.00">luaG_addinfo</text>
</a>
</g>
</g>
<!-- Node12&#45;&gt;Node15 -->
<g id="edge14" class="edge"><title>Node12&#45;&gt;Node15</title>
<path fill="none" stroke="midnightblue" d="M882.699,-281.528C893.687,-283.782 905.873,-286.282 917.363,-288.639"/>
<polygon fill="midnightblue" stroke="midnightblue" points="916.734,-292.082 927.233,-290.663 918.14,-285.225 916.734,-292.082"/>
</g>
<!-- Node18 -->
<g id="node18" class="node"><title>Node18</title>
<g id="a_node18"><a xlink:href="lobject_8c.html#aa83fa444a36d79521e846a766fa083d5" target="_top" xlink:title=" ">
<polygon fill="white" stroke="black" points="1166,-288.5 1166,-307.5 1259,-307.5 1259,-288.5 1166,-288.5"/>
<text text-anchor="middle" x="1212.5" y="-295.5" font-family="Helvetica,sans-Serif" font-size="10.00">luaO_pushvfstring</text>
</a>
</g>
</g>
<!-- Node12&#45;&gt;Node18 -->
<g id="edge45" class="edge"><title>Node12&#45;&gt;Node18</title>
<path fill="none" stroke="midnightblue" d="M882.938,-266.302C937.291,-261.045 1041.91,-259.081 1130,-270 1150.82,-272.58 1174.08,-278.293 1190.4,-284.399"/>
<polygon fill="midnightblue" stroke="midnightblue" points="1189.46,-287.799 1200.03,-288.439 1192.16,-281.343 1189.46,-287.799"/>
</g>
<!-- Node115 -->
<g id="node31" class="node"><title>Node115</title>
<g id="a_node31"><a xlink:href="ldebug_8c.html#af7366920f8408bb33ed01b1d6c0e1238" target="_top" xlink:title=" ">
<polygon fill="white" stroke="black" points="924,-28.5 924,-47.5 1004,-47.5 1004,-28.5 924,-28.5"/>
<text text-anchor="middle" x="964" y="-35.5" font-family="Helvetica,sans-Serif" font-size="10.00">luaG_errormsg</text>
</a>
</g>
</g>
<!-- Node12&#45;&gt;Node115 -->
<g id="edge39" class="edge"><title>Node12&#45;&gt;Node115</title>
<path fill="none" stroke="midnightblue" d="M855.701,-264.258C864.896,-254.543 878.529,-238.825 887,-223 912.076,-176.157 901.847,-157.741 923,-109 931.055,-90.4409 942.592,-70.4619 951.208,-56.4402"/>
<polygon fill="midnightblue" stroke="midnightblue" points="954.292,-58.1096 956.627,-47.7753 948.357,-54.3977 954.292,-58.1096"/>
</g>
<!-- Node14 -->
<g id="node14" class="node"><title>Node14</title>
<g id="a_node14"><a xlink:href="ldebug_8c.html#a7db2a3f5cbcf0ac3ef6d4cfa15ab4dbc" target="_top" xlink:title=" ">
<polygon fill="white" stroke="black" points="1057,-194.5 1057,-213.5 1114,-213.5 1114,-194.5 1057,-194.5"/>
<text text-anchor="middle" x="1085.5" y="-201.5" font-family="Helvetica,sans-Serif" font-size="10.00">currentpc</text>
</a>
</g>
</g>
<!-- Node13&#45;&gt;Node14 -->
<g id="edge13" class="edge"><title>Node13&#45;&gt;Node14</title>
<path fill="none" stroke="midnightblue" d="M995.155,-204C1010.7,-204 1029.81,-204 1046.37,-204"/>
<polygon fill="midnightblue" stroke="midnightblue" points="1046.81,-207.5 1056.81,-204 1046.81,-200.5 1046.81,-207.5"/>
</g>
<!-- Node16 -->
<g id="node16" class="node"><title>Node16</title>
<g id="a_node16"><a xlink:href="lobject_8c.html#a4708cca3615b7fafb7ea4631f486983b" target="_top" xlink:title=" ">
<polygon fill="white" stroke="black" points="1047.5,-326.5 1047.5,-345.5 1123.5,-345.5 1123.5,-326.5 1047.5,-326.5"/>
<text text-anchor="middle" x="1085.5" y="-333.5" font-family="Helvetica,sans-Serif" font-size="10.00">luaO_chunkid</text>
</a>
</g>
</g>
<!-- Node15&#45;&gt;Node16 -->
<g id="edge15" class="edge"><title>Node15&#45;&gt;Node16</title>
<path fill="none" stroke="midnightblue" d="M995.155,-307.589C1010.16,-312.359 1028.49,-318.189 1044.63,-323.323"/>
<polygon fill="midnightblue" stroke="midnightblue" points="1043.76,-326.719 1054.35,-326.414 1045.89,-320.048 1043.76,-326.719"/>
</g>
<!-- Node17 -->
<g id="node17" class="node"><title>Node17</title>
<g id="a_node17"><a xlink:href="lobject_8c.html#a8e224db7123c74d695076a96d1bfda61" target="_top" xlink:title=" ">
<polygon fill="white" stroke="black" points="1041,-288.5 1041,-307.5 1130,-307.5 1130,-288.5 1041,-288.5"/>
<text text-anchor="middle" x="1085.5" y="-295.5" font-family="Helvetica,sans-Serif" font-size="10.00">luaO_pushfstring</text>
</a>
</g>
</g>
<!-- Node15&#45;&gt;Node17 -->
<g id="edge16" class="edge"><title>Node15&#45;&gt;Node17</title>
<path fill="none" stroke="midnightblue" d="M1000.53,-298C1010.02,-298 1020.5,-298 1030.74,-298"/>
<polygon fill="midnightblue" stroke="midnightblue" points="1030.86,-301.5 1040.86,-298 1030.86,-294.5 1030.86,-301.5"/>
</g>
<!-- Node17&#45;&gt;Node18 -->
<g id="edge17" class="edge"><title>Node17&#45;&gt;Node18</title>
<path fill="none" stroke="midnightblue" d="M1130.22,-291.529C1138.43,-291.278 1147.11,-291.197 1155.63,-291.284"/>
<polygon fill="midnightblue" stroke="midnightblue" points="1155.83,-294.788 1165.9,-291.474 1155.96,-287.789 1155.83,-294.788"/>
</g>
<!-- Node18&#45;&gt;Node12 -->
<g id="edge19" class="edge"><title>Node18&#45;&gt;Node12</title>
<path fill="none" stroke="midnightblue" d="M1165.69,-294.247C1154.13,-291.881 1141.68,-289.448 1130,-288 1047.07,-277.721 949.495,-278.859 892.996,-278.193"/>
<polygon fill="midnightblue" stroke="midnightblue" points="892.988,-274.693 882.938,-278.045 892.885,-281.692 892.988,-274.693"/>
</g>
<!-- Node18&#45;&gt;Node17 -->
<g id="edge20" class="edge"><title>Node18&#45;&gt;Node17</title>
<path fill="none" stroke="midnightblue" d="M1165.9,-304.526C1157.62,-304.75 1148.91,-304.806 1140.42,-304.693"/>
<polygon fill="midnightblue" stroke="midnightblue" points="1140.29,-301.19 1130.22,-304.471 1140.14,-308.188 1140.29,-301.19"/>
</g>
<!-- Node19 -->
<g id="node19" class="node"><title>Node19</title>
<g id="a_node19"><a xlink:href="ldo_8c.html#a4dd006aa3210fdc854d0441e2a98c9af" target="_top" xlink:title=" ">
<polygon fill="white" stroke="black" points="1423.5,-307.5 1423.5,-326.5 1491.5,-326.5 1491.5,-307.5 1423.5,-307.5"/>
<text text-anchor="middle" x="1457.5" y="-314.5" font-family="Helvetica,sans-Serif" font-size="10.00">luaD_inctop</text>
</a>
</g>
</g>
<!-- Node18&#45;&gt;Node19 -->
<g id="edge18" class="edge"><title>Node18&#45;&gt;Node19</title>
<path fill="none" stroke="midnightblue" d="M1259.22,-295.442C1290.28,-294.331 1332.23,-294.053 1369,-298 1383.55,-299.562 1399.23,-302.545 1413.25,-305.692"/>
<polygon fill="midnightblue" stroke="midnightblue" points="1412.58,-309.131 1423.12,-307.995 1414.18,-302.314 1412.58,-309.131"/>
</g>
<!-- Node20 -->
<g id="node20" class="node"><title>Node20</title>
<g id="a_node20"><a xlink:href="lobject_8c.html#a00c5c37438b02ff7efcf8e8dfa98da7c" target="_top" xlink:title=" ">
<polygon fill="white" stroke="black" points="1295,-497.5 1295,-516.5 1369,-516.5 1369,-497.5 1295,-497.5"/>
<text text-anchor="middle" x="1332" y="-504.5" font-family="Helvetica,sans-Serif" font-size="10.00">luaO_tostring</text>
</a>
</g>
</g>
<!-- Node18&#45;&gt;Node20 -->
<g id="edge21" class="edge"><title>Node18&#45;&gt;Node20</title>
<path fill="none" stroke="midnightblue" d="M1216.94,-307.833C1226.68,-334.965 1256.29,-412.604 1295,-469 1300.14,-476.481 1306.74,-483.906 1312.89,-490.182"/>
<polygon fill="midnightblue" stroke="midnightblue" points="1310.69,-492.933 1320.29,-497.434 1315.6,-487.934 1310.69,-492.933"/>
</g>
<!-- Node21 -->
<g id="node21" class="node"><title>Node21</title>
<g id="a_node21"><a xlink:href="lobject_8c.html#af3136de4693789b08f78aafda9604676" target="_top" xlink:title=" ">
<polygon fill="white" stroke="black" points="1295,-307.5 1295,-326.5 1369,-326.5 1369,-307.5 1295,-307.5"/>
<text text-anchor="middle" x="1332" y="-314.5" font-family="Helvetica,sans-Serif" font-size="10.00">luaO_utf8esc</text>
</a>
</g>
</g>
<!-- Node18&#45;&gt;Node21 -->
<g id="edge23" class="edge"><title>Node18&#45;&gt;Node21</title>
<path fill="none" stroke="midnightblue" d="M1259.27,-305.4C1267.69,-306.763 1276.5,-308.187 1284.94,-309.551"/>
<polygon fill="midnightblue" stroke="midnightblue" points="1284.57,-313.037 1295,-311.178 1285.68,-306.127 1284.57,-313.037"/>
</g>
<!-- Node22 -->
<g id="node22" class="node"><title>Node22</title>
<g id="a_node22"><a xlink:href="lvm_8c.html#a2f076040af405dcb50d661edd692eca7" target="_top" xlink:title=" ">
<polygon fill="white" stroke="black" points="1296.5,-440.5 1296.5,-459.5 1367.5,-459.5 1367.5,-440.5 1296.5,-440.5"/>
<text text-anchor="middle" x="1332" y="-447.5" font-family="Helvetica,sans-Serif" font-size="10.00">luaV_concat</text>
</a>
</g>
</g>
<!-- Node18&#45;&gt;Node22 -->
<g id="edge24" class="edge"><title>Node18&#45;&gt;Node22</title>
<path fill="none" stroke="midnightblue" d="M1220.85,-307.508C1240.14,-332.46 1292.43,-400.106 1317.39,-432.392"/>
<polygon fill="midnightblue" stroke="midnightblue" points="1314.77,-434.724 1323.65,-440.495 1320.31,-430.443 1314.77,-434.724"/>
</g>
<!-- Node114 -->
<g id="node30" class="node"><title>Node114</title>
<g id="a_node30"><a xlink:href="lobject_8c.html#aa65db03553a5abd73e466d307bb17a37" target="_top" xlink:title=" ">
<polygon fill="white" stroke="black" points="1307.5,-345.5 1307.5,-364.5 1356.5,-364.5 1356.5,-345.5 1307.5,-345.5"/>
<text text-anchor="middle" x="1332" y="-352.5" font-family="Helvetica,sans-Serif" font-size="10.00">pushstr</text>
</a>
</g>
</g>
<!-- Node18&#45;&gt;Node114 -->
<g id="edge36" class="edge"><title>Node18&#45;&gt;Node114</title>
<path fill="none" stroke="midnightblue" d="M1233.17,-307.541C1251.98,-316.665 1280.57,-330.534 1301.99,-340.927"/>
<polygon fill="midnightblue" stroke="midnightblue" points="1300.74,-344.213 1311.27,-345.428 1303.8,-337.915 1300.74,-344.213"/>
</g>
<!-- Node20&#45;&gt;Node5 -->
<g id="edge22" class="edge"><title>Node20&#45;&gt;Node5</title>
<path fill="none" stroke="midnightblue" d="M1294.93,-516.412C1229.61,-532.602 1087.18,-564 965,-564 844,-564 844,-564 844,-564 780.105,-564 707.464,-549.174 661.933,-538.043"/>
<polygon fill="midnightblue" stroke="midnightblue" points="662.632,-534.61 652.083,-535.589 660.94,-541.403 662.632,-534.61"/>
</g>
<!-- Node22&#45;&gt;Node5 -->
<g id="edge29" class="edge"><title>Node22&#45;&gt;Node5</title>
<path fill="none" stroke="midnightblue" d="M1303.85,-459.625C1243.67,-480.076 1094.15,-526 965,-526 844,-526 844,-526 844,-526 781.114,-526 708.428,-526 662.592,-526"/>
<polygon fill="midnightblue" stroke="midnightblue" points="662.387,-522.5 652.387,-526 662.387,-529.5 662.387,-522.5"/>
</g>
<!-- Node22&#45;&gt;Node12 -->
<g id="edge26" class="edge"><title>Node22&#45;&gt;Node12</title>
<path fill="none" stroke="midnightblue" d="M1296.32,-441.148C1224.88,-422.385 1056.79,-375.502 923,-317 904.528,-308.923 884.688,-297.779 869.773,-288.86"/>
<polygon fill="midnightblue" stroke="midnightblue" points="871.544,-285.84 861.18,-283.641 867.91,-291.824 871.544,-285.84"/>
</g>
<!-- Node23 -->
<g id="node23" class="node"><title>Node23</title>
<g id="a_node23"><a xlink:href="lvm_8c.html#a7f03a9c23b77ec5cd280bb955ec430b8" target="_top" xlink:title=" ">
<polygon fill="white" stroke="black" points="1428.5,-440.5 1428.5,-459.5 1486.5,-459.5 1486.5,-440.5 1428.5,-440.5"/>
<text text-anchor="middle" x="1457.5" y="-447.5" font-family="Helvetica,sans-Serif" font-size="10.00">copy2buff</text>
</a>
</g>
</g>
<!-- Node22&#45;&gt;Node23 -->
<g id="edge25" class="edge"><title>Node22&#45;&gt;Node23</title>
<path fill="none" stroke="midnightblue" d="M1367.73,-450C1383.41,-450 1402,-450 1418.1,-450"/>
<polygon fill="midnightblue" stroke="midnightblue" points="1418.26,-453.5 1428.26,-450 1418.26,-446.5 1418.26,-453.5"/>
</g>
<!-- Node22&#45;&gt;Node24 -->
<g id="edge27" class="edge"><title>Node22&#45;&gt;Node24</title>
<path fill="none" stroke="midnightblue" d="M1342.76,-459.74C1350.18,-467.267 1360.5,-478.046 1369,-488 1396.9,-520.692 1426.87,-561.007 1443.5,-583.882"/>
<polygon fill="midnightblue" stroke="midnightblue" points="1440.87,-586.225 1449.57,-592.278 1446.54,-582.124 1440.87,-586.225"/>
</g>
<!-- Node25 -->
<g id="node25" class="node"><title>Node25</title>
<g id="a_node25"><a xlink:href="ltm_8c.html#a2adc638eccb971b8abaf27f60611e913" target="_top" xlink:title=" ">
<polygon fill="white" stroke="black" points="1419,-478.5 1419,-497.5 1496,-497.5 1496,-478.5 1419,-478.5"/>
<text text-anchor="middle" x="1457.5" y="-485.5" font-family="Helvetica,sans-Serif" font-size="10.00">luaT_trybinTM</text>
</a>
</g>
</g>
<!-- Node22&#45;&gt;Node25 -->
<g id="edge30" class="edge"><title>Node22&#45;&gt;Node25</title>
<path fill="none" stroke="midnightblue" d="M1364.16,-459.589C1379.81,-464.404 1398.97,-470.299 1415.77,-475.468"/>
<polygon fill="midnightblue" stroke="midnightblue" points="1414.76,-478.818 1425.35,-478.414 1416.82,-472.128 1414.76,-478.818"/>
</g>
<!-- Node24&#45;&gt;Node7 -->
<g id="edge28" class="edge"><title>Node24&#45;&gt;Node7</title>
<path fill="none" stroke="midnightblue" d="M1510.29,-602C1522.58,-602 1535.56,-602 1547.42,-602"/>
<polygon fill="midnightblue" stroke="midnightblue" points="1547.5,-605.5 1557.5,-602 1547.5,-598.5 1547.5,-605.5"/>
</g>
<!-- Node26 -->
<g id="node26" class="node"><title>Node26</title>
<g id="a_node26"><a xlink:href="ldebug_8c.html#a04641ef359f3943a2ca88f52c3fe283c" target="_top" xlink:title=" ">
<polygon fill="white" stroke="red" points="1546,-440.5 1546,-459.5 1637,-459.5 1637,-440.5 1546,-440.5"/>
<text text-anchor="middle" x="1591.5" y="-447.5" font-family="Helvetica,sans-Serif" font-size="10.00">luaG_concaterror</text>
</a>
</g>
</g>
<!-- Node25&#45;&gt;Node26 -->
<g id="edge31" class="edge"><title>Node25&#45;&gt;Node26</title>
<path fill="none" stroke="midnightblue" d="M1491.81,-478.411C1508.69,-473.551 1529.39,-467.591 1547.47,-462.387"/>
<polygon fill="midnightblue" stroke="midnightblue" points="1548.56,-465.716 1557.2,-459.586 1546.62,-458.989 1548.56,-465.716"/>
</g>
<!-- Node39 -->
<g id="node27" class="node"><title>Node39</title>
<g id="a_node27"><a xlink:href="ldebug_8c.html#a5a3d4fd14bbb9329188c53a9548b7402" target="_top" xlink:title=" ">
<polygon fill="white" stroke="red" points="1550,-516.5 1550,-535.5 1633,-535.5 1633,-516.5 1550,-516.5"/>
<text text-anchor="middle" x="1591.5" y="-523.5" font-family="Helvetica,sans-Serif" font-size="10.00">luaG_opinterror</text>
</a>
</g>
</g>
<!-- Node25&#45;&gt;Node39 -->
<g id="edge32" class="edge"><title>Node25&#45;&gt;Node39</title>
<path fill="none" stroke="midnightblue" d="M1491.81,-497.589C1508.69,-502.449 1529.39,-508.409 1547.47,-513.613"/>
<polygon fill="midnightblue" stroke="midnightblue" points="1546.62,-517.011 1557.2,-516.414 1548.56,-510.284 1546.62,-517.011"/>
</g>
<!-- Node40 -->
<g id="node28" class="node"><title>Node40</title>
<g id="a_node28"><a xlink:href="ldebug_8c.html#ada97dce3c670f83e257a5b27299bf09b" target="_top" xlink:title=" ">
<polygon fill="white" stroke="red" points="1551.5,-554.5 1551.5,-573.5 1631.5,-573.5 1631.5,-554.5 1551.5,-554.5"/>
<text text-anchor="middle" x="1591.5" y="-561.5" font-family="Helvetica,sans-Serif" font-size="10.00">luaG_tointerror</text>
</a>
</g>
</g>
<!-- Node25&#45;&gt;Node40 -->
<g id="edge33" class="edge"><title>Node25&#45;&gt;Node40</title>
<path fill="none" stroke="midnightblue" d="M1471.7,-497.639C1488.45,-509.63 1518.49,-530.312 1546,-545 1549.49,-546.861 1553.19,-548.679 1556.92,-550.408"/>
<polygon fill="midnightblue" stroke="midnightblue" points="1555.56,-553.635 1566.12,-554.494 1558.4,-547.237 1555.56,-553.635"/>
</g>
<!-- Node41 -->
<g id="node29" class="node"><title>Node41</title>
<g id="a_node29"><a xlink:href="ltm_8c.html#a218e3b031d69a9888eb20da1927058c4" target="_top" xlink:title=" ">
<polygon fill="white" stroke="red" points="1551,-478.5 1551,-497.5 1632,-497.5 1632,-478.5 1551,-478.5"/>
<text text-anchor="middle" x="1591.5" y="-485.5" font-family="Helvetica,sans-Serif" font-size="10.00">luaT_callbinTM</text>
</a>
</g>
</g>
<!-- Node25&#45;&gt;Node41 -->
<g id="edge35" class="edge"><title>Node25&#45;&gt;Node41</title>
<path fill="none" stroke="midnightblue" d="M1496.33,-488C1510.06,-488 1525.79,-488 1540.42,-488"/>
<polygon fill="midnightblue" stroke="midnightblue" points="1540.83,-491.5 1550.83,-488 1540.83,-484.5 1540.83,-491.5"/>
</g>
<!-- Node40&#45;&gt;Node12 -->
<g id="edge34" class="edge"><title>Node40&#45;&gt;Node12</title>
<path fill="none" stroke="midnightblue" d="M1551.44,-562.932C1494.1,-560.486 1384.27,-552.441 1295,-526 1119.08,-473.893 1074.04,-451.164 923,-347 899.239,-330.614 875.719,-306.939 861.046,-291.037"/>
<polygon fill="midnightblue" stroke="midnightblue" points="863.533,-288.569 854.225,-283.509 858.346,-293.269 863.533,-288.569"/>
</g>
<!-- Node114&#45;&gt;Node5 -->
<g id="edge38" class="edge"><title>Node114&#45;&gt;Node5</title>
<path fill="none" stroke="midnightblue" d="M1307.4,-360.652C1205.08,-385.157 798.851,-482.448 662.154,-515.186"/>
<polygon fill="midnightblue" stroke="midnightblue" points="661.317,-511.787 652.407,-517.52 662.948,-518.595 661.317,-511.787"/>
</g>
<!-- Node114&#45;&gt;Node19 -->
<g id="edge37" class="edge"><title>Node114&#45;&gt;Node19</title>
<path fill="none" stroke="midnightblue" d="M1356.52,-347.763C1373.28,-342.605 1396.24,-335.54 1415.94,-329.481"/>
<polygon fill="midnightblue" stroke="midnightblue" points="1417.06,-332.797 1425.59,-326.511 1415,-326.107 1417.06,-332.797"/>
</g>
<!-- Node113 -->
<g id="node32" class="node"><title>Node113</title>
<g id="a_node32"><a xlink:href="ldo_8c.html#a61c0a0185ef5ae1493dad10027f4db7e" target="_top" xlink:title=" ">
<polygon fill="white" stroke="black" points="1042,-56.5 1042,-75.5 1129,-75.5 1129,-56.5 1042,-56.5"/>
<text text-anchor="middle" x="1085.5" y="-63.5" font-family="Helvetica,sans-Serif" font-size="10.00">luaD_callnoyield</text>
</a>
</g>
</g>
<!-- Node115&#45;&gt;Node113 -->
<g id="edge40" class="edge"><title>Node115&#45;&gt;Node113</title>
<path fill="none" stroke="midnightblue" d="M1004.13,-47.1682C1013.62,-49.3932 1023.91,-51.8036 1033.86,-54.1334"/>
<polygon fill="midnightblue" stroke="midnightblue" points="1033.11,-57.5527 1043.64,-56.4264 1034.7,-50.7373 1033.11,-57.5527"/>
</g>
<!-- Node74 -->
<g id="node34" class="node"><title>Node74</title>
<g id="a_node34"><a xlink:href="ldo_8c.html#a2b46d9db5b9ca3d5402a0c2ac640a6b0" target="_top" xlink:title=" ">
<polygon fill="white" stroke="black" points="1053,-0.5 1053,-19.5 1118,-19.5 1118,-0.5 1053,-0.5"/>
<text text-anchor="middle" x="1085.5" y="-7.5" font-family="Helvetica,sans-Serif" font-size="10.00">luaD_throw</text>
</a>
</g>
</g>
<!-- Node115&#45;&gt;Node74 -->
<g id="edge42" class="edge"><title>Node115&#45;&gt;Node74</title>
<path fill="none" stroke="midnightblue" d="M1004.13,-28.8318C1016.59,-25.9121 1030.41,-22.6728 1043.03,-19.7157"/>
<polygon fill="midnightblue" stroke="midnightblue" points="1043.91,-23.1053 1052.85,-17.4162 1042.31,-16.2899 1043.91,-23.1053"/>
</g>
<!-- Node43 -->
<g id="node33" class="node"><title>Node43</title>
<g id="a_node33"><a xlink:href="ldo_8c.html#a5483fddd87ca999e7d037bf397ab7997" target="_top" xlink:title=" ">
<polygon fill="white" stroke="red" points="1184.5,-56.5 1184.5,-75.5 1240.5,-75.5 1240.5,-56.5 1184.5,-56.5"/>
<text text-anchor="middle" x="1212.5" y="-63.5" font-family="Helvetica,sans-Serif" font-size="10.00">luaD_call</text>
</a>
</g>
</g>
<!-- Node113&#45;&gt;Node43 -->
<g id="edge41" class="edge"><title>Node113&#45;&gt;Node43</title>
<path fill="none" stroke="midnightblue" d="M1129.17,-66C1143.71,-66 1159.85,-66 1173.96,-66"/>
<polygon fill="midnightblue" stroke="midnightblue" points="1174.29,-69.5001 1184.29,-66 1174.29,-62.5001 1174.29,-69.5001"/>
</g>
<!-- Node74&#45;&gt;Node74 -->
<g id="edge43" class="edge"><title>Node74&#45;&gt;Node74</title>
<path fill="none" stroke="midnightblue" d="M1067,-19.7571C1058.01,-28.5653 1064.17,-38 1085.5,-38 1099.16,-38 1106.6,-34.128 1107.82,-29.0292"/>
<polygon fill="midnightblue" stroke="midnightblue" points="1111.05,-27.6661 1104,-19.7571 1104.57,-30.3361 1111.05,-27.6661"/>
</g>
<!-- Node75 -->
<g id="node35" class="node"><title>Node75</title>
<g id="a_node35"><a xlink:href="ldo_8c.html#af5721b7fac08574c3bf04058268daec7" target="_top" xlink:title=" ">
<polygon fill="white" stroke="black" points="1181.5,-0.5 1181.5,-19.5 1243.5,-19.5 1243.5,-0.5 1181.5,-0.5"/>
<text text-anchor="middle" x="1212.5" y="-7.5" font-family="Helvetica,sans-Serif" font-size="10.00">seterrorobj</text>
</a>
</g>
</g>
<!-- Node74&#45;&gt;Node75 -->
<g id="edge44" class="edge"><title>Node74&#45;&gt;Node75</title>
<path fill="none" stroke="midnightblue" d="M1118.04,-10C1134.09,-10 1153.79,-10 1170.96,-10"/>
<polygon fill="midnightblue" stroke="midnightblue" points="1171.26,-13.5001 1181.26,-10 1171.26,-6.5001 1171.26,-13.5001"/>
</g>
<!-- Node117 -->
<g id="node37" class="node"><title>Node117</title>
<g id="a_node37"><a xlink:href="lapi_8c.html#a3dbff8747b32b799cf63603c46da06cc" target="_top" xlink:title=" ">
<polygon fill="white" stroke="black" points="360.5,-468.5 360.5,-487.5 431.5,-487.5 431.5,-468.5 360.5,-468.5"/>
<text text-anchor="middle" x="396" y="-475.5" font-family="Helvetica,sans-Serif" font-size="10.00">lua_getallocf</text>
</a>
</g>
</g>
<!-- Node116&#45;&gt;Node117 -->
<g id="edge49" class="edge"><title>Node116&#45;&gt;Node117</title>
<path fill="none" stroke="midnightblue" d="M319.055,-456.924C328.864,-459.646 340.086,-462.761 350.839,-465.745"/>
<polygon fill="midnightblue" stroke="midnightblue" points="349.958,-469.132 360.529,-468.434 351.83,-462.387 349.958,-469.132"/>
</g>
<!-- Node118 -->
<g id="node38" class="node"><title>Node118</title>
<g id="a_node38"><a xlink:href="lapi_8c.html#a0444ddf13e5618bca969e4b3b47bc0cc" target="_top" xlink:title=" ">
<polygon fill="white" stroke="black" points="356,-430.5 356,-449.5 436,-449.5 436,-430.5 356,-430.5"/>
<text text-anchor="middle" x="396" y="-437.5" font-family="Helvetica,sans-Serif" font-size="10.00">lua_touserdata</text>
</a>
</g>
</g>
<!-- Node116&#45;&gt;Node118 -->
<g id="edge50" class="edge"><title>Node116&#45;&gt;Node118</title>
<path fill="none" stroke="midnightblue" d="M319.055,-446.541C327.31,-445.83 336.565,-445.033 345.7,-444.246"/>
<polygon fill="midnightblue" stroke="midnightblue" points="346.24,-447.713 355.902,-443.367 345.639,-440.738 346.24,-447.713"/>
</g>
<!-- Node120 -->
<g id="node40" class="node"><title>Node120</title>
<g id="a_node40"><a xlink:href="lauxlib_8c.html#a6c51d83d29244779392551388913e08a" target="_top" xlink:title=" ">
<polygon fill="white" stroke="black" points="366.5,-156.5 366.5,-175.5 425.5,-175.5 425.5,-156.5 366.5,-156.5"/>
<text text-anchor="middle" x="396" y="-163.5" font-family="Helvetica,sans-Serif" font-size="10.00">luaL_error</text>
</a>
</g>
</g>
<!-- Node116&#45;&gt;Node120 -->
<g id="edge52" class="edge"><title>Node116&#45;&gt;Node120</title>
<path fill="none" stroke="midnightblue" d="M294.097,-439.258C309.171,-398.438 367.413,-240.709 387.857,-185.344"/>
<polygon fill="midnightblue" stroke="midnightblue" points="391.237,-186.294 391.418,-175.701 384.671,-183.869 391.237,-186.294"/>
</g>
<!-- Node119 -->
<g id="node39" class="node"><title>Node119</title>
<g id="a_node39"><a xlink:href="lapi_8c.html#ae54b9bb381b32c86235a084984e40215" target="_top" xlink:title=" ">
<polygon fill="white" stroke="black" points="473,-435.5 473,-454.5 537,-454.5 537,-435.5 473,-435.5"/>
<text text-anchor="middle" x="505" y="-442.5" font-family="Helvetica,sans-Serif" font-size="10.00">index2addr</text>
</a>
</g>
</g>
<!-- Node118&#45;&gt;Node119 -->
<g id="edge51" class="edge"><title>Node118&#45;&gt;Node119</title>
<path fill="none" stroke="midnightblue" d="M436.235,-441.833C444.801,-442.234 453.892,-442.659 462.541,-443.063"/>
<polygon fill="midnightblue" stroke="midnightblue" points="462.654,-446.572 472.806,-443.542 462.981,-439.579 462.654,-446.572"/>
</g>
<!-- Node121 -->
<g id="node41" class="node"><title>Node121</title>
<g id="a_node41"><a xlink:href="lapi_8c.html#a1de3afee1daece63d455f23818c883d9" target="_top" xlink:title=" ">
<polygon fill="white" stroke="black" points="473,-397.5 473,-416.5 537,-416.5 537,-397.5 473,-397.5"/>
<text text-anchor="middle" x="505" y="-404.5" font-family="Helvetica,sans-Serif" font-size="10.00">lua_concat</text>
</a>
</g>
</g>
<!-- Node120&#45;&gt;Node121 -->
<g id="edge53" class="edge"><title>Node120&#45;&gt;Node121</title>
<path fill="none" stroke="midnightblue" d="M401.327,-175.746C417.427,-212.008 474.043,-339.527 495.59,-388.057"/>
<polygon fill="midnightblue" stroke="midnightblue" points="492.48,-389.677 499.736,-397.397 498.877,-386.837 492.48,-389.677"/>
</g>
<!-- Node122 -->
<g id="node42" class="node"><title>Node122</title>
<g id="a_node42"><a xlink:href="lapi_8c.html#a6ba7b91143fe8a03910420d800de8e97" target="_top" xlink:title=" ">
<polygon fill="white" stroke="black" points="589,-80.5 589,-99.5 643,-99.5 643,-80.5 589,-80.5"/>
<text text-anchor="middle" x="616" y="-87.5" font-family="Helvetica,sans-Serif" font-size="10.00">lua_error</text>
</a>
</g>
</g>
<!-- Node120&#45;&gt;Node122 -->
<g id="edge56" class="edge"><title>Node120&#45;&gt;Node122</title>
<path fill="none" stroke="midnightblue" d="M423.71,-156.444C438.27,-151.252 456.613,-144.738 473,-139 509.109,-126.356 550.465,-112.112 579.197,-102.254"/>
<polygon fill="midnightblue" stroke="midnightblue" points="580.479,-105.514 588.804,-98.9601 578.209,-98.8929 580.479,-105.514"/>
</g>
<!-- Node123 -->
<g id="node43" class="node"><title>Node123</title>
<g id="a_node43"><a xlink:href="lapi_8c.html#a426c9cb1d582be3e43060c4772854e5a" target="_top" xlink:title=" ">
<polygon fill="white" stroke="black" points="573,-156.5 573,-175.5 659,-175.5 659,-156.5 573,-156.5"/>
<text text-anchor="middle" x="616" y="-163.5" font-family="Helvetica,sans-Serif" font-size="10.00">lua_pushvfstring</text>
</a>
</g>
</g>
<!-- Node120&#45;&gt;Node123 -->
<g id="edge58" class="edge"><title>Node120&#45;&gt;Node123</title>
<path fill="none" stroke="midnightblue" d="M425.949,-166C460.723,-166 519.724,-166 562.58,-166"/>
<polygon fill="midnightblue" stroke="midnightblue" points="562.829,-169.5 572.829,-166 562.829,-162.5 562.829,-169.5"/>
</g>
<!-- Node124 -->
<g id="node44" class="node"><title>Node124</title>
<g id="a_node44"><a xlink:href="lauxlib_8c.html#a0f4d3c30c07eae36aa25605df84279a0" target="_top" xlink:title=" ">
<polygon fill="white" stroke="black" points="583.5,-118.5 583.5,-137.5 648.5,-137.5 648.5,-118.5 583.5,-118.5"/>
<text text-anchor="middle" x="616" y="-125.5" font-family="Helvetica,sans-Serif" font-size="10.00">luaL_where</text>
</a>
</g>
</g>
<!-- Node120&#45;&gt;Node124 -->
<g id="edge60" class="edge"><title>Node120&#45;&gt;Node124</title>
<path fill="none" stroke="midnightblue" d="M425.949,-160.954C463.799,-154.356 530.351,-142.755 573.545,-135.226"/>
<polygon fill="midnightblue" stroke="midnightblue" points="574.206,-138.664 583.457,-133.498 573.004,-131.768 574.206,-138.664"/>
</g>
<!-- Node121&#45;&gt;Node5 -->
<g id="edge54" class="edge"><title>Node121&#45;&gt;Node5</title>
<path fill="none" stroke="midnightblue" d="M524.146,-416.621C528.572,-419.363 533.14,-422.552 537,-426 564.749,-450.789 589.852,-486.427 603.71,-507.788"/>
<polygon fill="midnightblue" stroke="midnightblue" points="600.775,-509.694 609.096,-516.252 606.681,-505.936 600.775,-509.694"/>
</g>
<!-- Node121&#45;&gt;Node22 -->
<g id="edge55" class="edge"><title>Node121&#45;&gt;Node22</title>
<path fill="none" stroke="midnightblue" d="M537.159,-408.135C580.425,-409.61 661.15,-412 730,-412 730,-412 730,-412 846,-412 931.125,-412 1182.9,-435.561 1286.1,-445.578"/>
<polygon fill="midnightblue" stroke="midnightblue" points="1285.91,-449.075 1296.2,-446.561 1286.58,-442.108 1285.91,-449.075"/>
</g>
<!-- Node122&#45;&gt;Node115 -->
<g id="edge57" class="edge"><title>Node122&#45;&gt;Node115</title>
<path fill="none" stroke="midnightblue" d="M625.954,-80.3889C639.398,-66.7427 666.301,-42.3688 695,-33 768.145,-9.12195 858.602,-18.1741 913.496,-27.5797"/>
<polygon fill="midnightblue" stroke="midnightblue" points="913.193,-31.0808 923.652,-29.394 914.424,-24.1899 913.193,-31.0808"/>
</g>
<!-- Node123&#45;&gt;Node18 -->
<g id="edge59" class="edge"><title>Node123&#45;&gt;Node18</title>
<path fill="none" stroke="midnightblue" d="M659.255,-166C704.842,-166 779.565,-166 844,-166 844,-166 844,-166 965,-166 1038.82,-166 1066.32,-147.663 1130,-185 1167.21,-206.817 1192.13,-253.071 1203.82,-279.131"/>
<polygon fill="midnightblue" stroke="midnightblue" points="1200.61,-280.531 1207.78,-288.336 1207.04,-277.767 1200.61,-280.531"/>
</g>
<!-- Node125 -->
<g id="node45" class="node"><title>Node125</title>
<g id="a_node45"><a xlink:href="ldebug_8c.html#acaafc35d8e385c4d167229486165df6d" target="_top" xlink:title=" ">
<polygon fill="white" stroke="black" points="699.5,-80.5 699.5,-99.5 762.5,-99.5 762.5,-80.5 699.5,-80.5"/>
<text text-anchor="middle" x="731" y="-87.5" font-family="Helvetica,sans-Serif" font-size="10.00">lua_getinfo</text>
</a>
</g>
</g>
<!-- Node124&#45;&gt;Node125 -->
<g id="edge61" class="edge"><title>Node124&#45;&gt;Node125</title>
<path fill="none" stroke="midnightblue" d="M645.515,-118.411C659.567,-113.686 676.708,-107.921 691.87,-102.823"/>
<polygon fill="midnightblue" stroke="midnightblue" points="693.132,-106.091 701.494,-99.5859 690.9,-99.456 693.132,-106.091"/>
</g>
<!-- Node132 -->
<g id="node49" class="node"><title>Node132</title>
<g id="a_node49"><a xlink:href="ldebug_8c.html#ac1fc03c27ee46caa4037df2d70f22110" target="_top" xlink:title=" ">
<polygon fill="white" stroke="black" points="695,-42.5 695,-61.5 767,-61.5 767,-42.5 695,-42.5"/>
<text text-anchor="middle" x="731" y="-49.5" font-family="Helvetica,sans-Serif" font-size="10.00">lua_getstack</text>
</a>
</g>
</g>
<!-- Node124&#45;&gt;Node132 -->
<g id="edge66" class="edge"><title>Node124&#45;&gt;Node132</title>
<path fill="none" stroke="midnightblue" d="M642.303,-118.467C648.029,-115.798 653.914,-112.62 659,-109 677.953,-95.5086 676.548,-85.1696 695,-71 696.827,-69.5972 698.771,-68.2377 700.77,-66.9341"/>
<polygon fill="midnightblue" stroke="midnightblue" points="702.903,-69.7381 709.704,-61.6149 699.322,-63.7234 702.903,-69.7381"/>
</g>
<!-- Node133 -->
<g id="node50" class="node"><title>Node133</title>
<g id="a_node50"><a xlink:href="lapi_8c.html#ab190c226d38b289e6ca57683a9d4e0f0" target="_top" xlink:title=" ">
<polygon fill="white" stroke="black" points="923,-118.5 923,-137.5 1005,-137.5 1005,-118.5 923,-118.5"/>
<text text-anchor="middle" x="964" y="-125.5" font-family="Helvetica,sans-Serif" font-size="10.00">lua_pushfstring</text>
</a>
</g>
</g>
<!-- Node124&#45;&gt;Node133 -->
<g id="edge67" class="edge"><title>Node124&#45;&gt;Node133</title>
<path fill="none" stroke="midnightblue" d="M648.622,-128C708.806,-128 840.257,-128 912.665,-128"/>
<polygon fill="midnightblue" stroke="midnightblue" points="912.904,-131.5 922.904,-128 912.904,-124.5 912.904,-131.5"/>
</g>
<!-- Node126 -->
<g id="node46" class="node"><title>Node126</title>
<g id="a_node46"><a xlink:href="ldebug_8c.html#ad72fa774194e83872bac4e5bf6ec1160" target="_top" xlink:title=" ">
<polygon fill="white" stroke="red" points="814.5,-194.5 814.5,-213.5 875.5,-213.5 875.5,-194.5 814.5,-194.5"/>
<text text-anchor="middle" x="845" y="-201.5" font-family="Helvetica,sans-Serif" font-size="10.00">auxgetinfo</text>
</a>
</g>
</g>
<!-- Node125&#45;&gt;Node126 -->
<g id="edge62" class="edge"><title>Node125&#45;&gt;Node126</title>
<path fill="none" stroke="midnightblue" d="M741.549,-99.7196C760.56,-119.07 803.358,-162.632 827.184,-186.884"/>
<polygon fill="midnightblue" stroke="midnightblue" points="824.97,-189.625 834.475,-194.305 829.964,-184.719 824.97,-189.625"/>
</g>
<!-- Node130 -->
<g id="node47" class="node"><title>Node130</title>
<g id="a_node47"><a xlink:href="ldebug_8c.html#a6e3195fc94af1f75142c2801ca8cf058" target="_top" xlink:title=" ">
<polygon fill="white" stroke="red" points="803,-42.5 803,-61.5 887,-61.5 887,-42.5 803,-42.5"/>
<text text-anchor="middle" x="845" y="-49.5" font-family="Helvetica,sans-Serif" font-size="10.00">collectvalidlines</text>
</a>
</g>
</g>
<!-- Node125&#45;&gt;Node130 -->
<g id="edge64" class="edge"><title>Node125&#45;&gt;Node130</title>
<path fill="none" stroke="midnightblue" d="M760.262,-80.411C774.19,-75.6856 791.18,-69.9211 806.207,-64.8226"/>
<polygon fill="midnightblue" stroke="midnightblue" points="807.401,-68.1134 815.747,-61.5859 805.152,-61.4845 807.401,-68.1134"/>
</g>
<!-- Node131 -->
<g id="node48" class="node"><title>Node131</title>
<g id="a_node48"><a xlink:href="ldebug_8c.html#a1f8af4428461705c53893e5ddb8b55aa" target="_top" xlink:title=" ">
<polygon fill="white" stroke="black" points="814.5,-80.5 814.5,-99.5 875.5,-99.5 875.5,-80.5 814.5,-80.5"/>
<text text-anchor="middle" x="845" y="-87.5" font-family="Helvetica,sans-Serif" font-size="10.00">swapextra</text>
</a>
</g>
</g>
<!-- Node125&#45;&gt;Node131 -->
<g id="edge65" class="edge"><title>Node125&#45;&gt;Node131</title>
<path fill="none" stroke="midnightblue" d="M762.604,-90C775.404,-90 790.45,-90 804.1,-90"/>
<polygon fill="midnightblue" stroke="midnightblue" points="804.207,-93.5001 814.207,-90 804.207,-86.5001 804.207,-93.5001"/>
</g>
<!-- Node126&#45;&gt;Node13 -->
<g id="edge63" class="edge"><title>Node126&#45;&gt;Node13</title>
<path fill="none" stroke="midnightblue" d="M875.524,-204C889.715,-204 906.949,-204 922.356,-204"/>
<polygon fill="midnightblue" stroke="midnightblue" points="922.67,-207.5 932.67,-204 922.67,-200.5 922.67,-207.5"/>
</g>
<!-- Node133&#45;&gt;Node18 -->
<g id="edge68" class="edge"><title>Node133&#45;&gt;Node18</title>
<path fill="none" stroke="midnightblue" d="M1005.22,-124.353C1041.03,-123.167 1093.28,-126.717 1130,-152 1174.48,-182.634 1197.36,-245.862 1206.54,-278.123"/>
<polygon fill="midnightblue" stroke="midnightblue" points="1203.25,-279.387 1209.22,-288.138 1210.01,-277.573 1203.25,-279.387"/>
</g>
</g>
</svg>
