<?xml version="1.0" encoding="UTF-8" standalone="no"?>
<!DOCTYPE svg PUBLIC "-//W3C//DTD SVG 1.1//EN"
 "http://www.w3.org/Graphics/SVG/1.1/DTD/svg11.dtd">
<!-- Generated by graphviz version 2.38.0 (20140413.2041)
 -->
<!-- Title: luaL_buffinitsize Pages: 1 -->
<svg width="1544pt" height="693pt"
 viewBox="0.00 0.00 1544.00 693.00" xmlns="http://www.w3.org/2000/svg" xmlns:xlink="http://www.w3.org/1999/xlink">
<g id="graph0" class="graph" transform="scale(1 1) rotate(0) translate(4 689)">
<title>luaL_buffinitsize</title>
<polygon fill="white" stroke="none" points="-4,4 -4,-689 1540,-689 1540,4 -4,4"/>
<!-- Node1 -->
<g id="node1" class="node"><title>Node1</title>
<g id="a_node1"><a xlink:title=" ">
<polygon fill="#bfbfbf" stroke="black" points="0,-152.5 0,-171.5 86,-171.5 86,-152.5 0,-152.5"/>
<text text-anchor="middle" x="43" y="-159.5" font-family="Helvetica,sans-Serif" font-size="10.00">luaL_buffinitsize</text>
</a>
</g>
</g>
<!-- Node2 -->
<g id="node2" class="node"><title>Node2</title>
<g id="a_node2"><a xlink:href="lauxlib_8c.html#a0830ef75e335f6d7590b0e058f82a5eb" target="_top" xlink:title=" ">
<polygon fill="white" stroke="black" points="134,-171.5 134,-190.5 202,-190.5 202,-171.5 134,-171.5"/>
<text text-anchor="middle" x="168" y="-178.5" font-family="Helvetica,sans-Serif" font-size="10.00">luaL_buffinit</text>
</a>
</g>
</g>
<!-- Node1&#45;&gt;Node2 -->
<g id="edge1" class="edge"><title>Node1&#45;&gt;Node2</title>
<path fill="none" stroke="midnightblue" d="M86.3296,-168.539C98.4906,-170.417 111.763,-172.467 123.966,-174.352"/>
<polygon fill="midnightblue" stroke="midnightblue" points="123.5,-177.822 133.917,-175.89 124.568,-170.904 123.5,-177.822"/>
</g>
<!-- Node3 -->
<g id="node3" class="node"><title>Node3</title>
<g id="a_node3"><a xlink:href="lauxlib_8c.html#ae695ed340bec54979c499b70d7d29318" target="_top" xlink:title=" ">
<polygon fill="white" stroke="black" points="122,-133.5 122,-152.5 214,-152.5 214,-133.5 122,-133.5"/>
<text text-anchor="middle" x="168" y="-140.5" font-family="Helvetica,sans-Serif" font-size="10.00">luaL_prepbuffsize</text>
</a>
</g>
</g>
<!-- Node1&#45;&gt;Node3 -->
<g id="edge2" class="edge"><title>Node1&#45;&gt;Node3</title>
<path fill="none" stroke="midnightblue" d="M86.3296,-155.461C94.5209,-154.196 103.216,-152.853 111.75,-151.535"/>
<polygon fill="midnightblue" stroke="midnightblue" points="112.304,-154.991 121.652,-150.005 111.235,-148.073 112.304,-154.991"/>
</g>
<!-- Node4 -->
<g id="node4" class="node"><title>Node4</title>
<g id="a_node4"><a xlink:href="lauxlib_8c.html#a6c51d83d29244779392551388913e08a" target="_top" xlink:title=" ">
<polygon fill="white" stroke="black" points="619.5,-304.5 619.5,-323.5 678.5,-323.5 678.5,-304.5 619.5,-304.5"/>
<text text-anchor="middle" x="649" y="-311.5" font-family="Helvetica,sans-Serif" font-size="10.00">luaL_error</text>
</a>
</g>
</g>
<!-- Node3&#45;&gt;Node4 -->
<g id="edge3" class="edge"><title>Node3&#45;&gt;Node4</title>
<path fill="none" stroke="midnightblue" d="M192.505,-152.525C199.473,-155.456 207.087,-158.765 214,-162 330.842,-216.685 348.446,-257.893 472,-295 517.811,-308.758 572.971,-312.81 609.181,-313.873"/>
<polygon fill="midnightblue" stroke="midnightblue" points="609.244,-317.375 619.322,-314.106 609.406,-310.377 609.244,-317.375"/>
</g>
<!-- Node130 -->
<g id="node32" class="node"><title>Node130</title>
<g id="a_node32"><a xlink:href="lauxlib_8c.html#a48ce842bce537df89aa9c13594263c73" target="_top" xlink:title=" ">
<polygon fill="white" stroke="black" points="250,-133.5 250,-152.5 300,-152.5 300,-133.5 250,-133.5"/>
<text text-anchor="middle" x="275" y="-140.5" font-family="Helvetica,sans-Serif" font-size="10.00">newbox</text>
</a>
</g>
</g>
<!-- Node3&#45;&gt;Node130 -->
<g id="edge44" class="edge"><title>Node3&#45;&gt;Node130</title>
<path fill="none" stroke="midnightblue" d="M214.139,-143C222.641,-143 231.407,-143 239.519,-143"/>
<polygon fill="midnightblue" stroke="midnightblue" points="239.73,-146.5 249.73,-143 239.73,-139.5 239.73,-146.5"/>
</g>
<!-- Node132 -->
<g id="node34" class="node"><title>Node132</title>
<g id="a_node34"><a xlink:href="lauxlib_8c.html#acdf7f3169e55f9c8bd3d314358a9e778" target="_top" xlink:title=" ">
<polygon fill="white" stroke="black" points="493,-38.5 493,-57.5 552,-57.5 552,-38.5 493,-38.5"/>
<text text-anchor="middle" x="522.5" y="-45.5" font-family="Helvetica,sans-Serif" font-size="10.00">resizebox</text>
</a>
</g>
</g>
<!-- Node3&#45;&gt;Node132 -->
<g id="edge72" class="edge"><title>Node3&#45;&gt;Node132</title>
<path fill="none" stroke="midnightblue" d="M178.402,-133.415C202.156,-109.974 267.575,-50.128 336,-29 385.691,-13.6566 446.064,-25.0515 484.145,-35.6691"/>
<polygon fill="midnightblue" stroke="midnightblue" points="483.217,-39.0441 493.797,-38.4773 485.173,-32.3228 483.217,-39.0441"/>
</g>
<!-- Node5 -->
<g id="node5" class="node"><title>Node5</title>
<g id="a_node5"><a xlink:href="lapi_8c.html#a1de3afee1daece63d455f23818c883d9" target="_top" xlink:title=" ">
<polygon fill="white" stroke="black" points="726,-304.5 726,-323.5 790,-323.5 790,-304.5 726,-304.5"/>
<text text-anchor="middle" x="758" y="-311.5" font-family="Helvetica,sans-Serif" font-size="10.00">lua_concat</text>
</a>
</g>
</g>
<!-- Node4&#45;&gt;Node5 -->
<g id="edge4" class="edge"><title>Node4&#45;&gt;Node5</title>
<path fill="none" stroke="midnightblue" d="M678.674,-314C690.088,-314 703.438,-314 715.85,-314"/>
<polygon fill="midnightblue" stroke="midnightblue" points="715.993,-317.5 725.993,-314 715.993,-310.5 715.993,-317.5"/>
</g>
<!-- Node118 -->
<g id="node23" class="node"><title>Node118</title>
<g id="a_node23"><a xlink:href="lapi_8c.html#a6ba7b91143fe8a03910420d800de8e97" target="_top" xlink:title=" ">
<polygon fill="white" stroke="black" points="1071,-209.5 1071,-228.5 1125,-228.5 1125,-209.5 1071,-209.5"/>
<text text-anchor="middle" x="1098" y="-216.5" font-family="Helvetica,sans-Serif" font-size="10.00">lua_error</text>
</a>
</g>
</g>
<!-- Node4&#45;&gt;Node118 -->
<g id="edge32" class="edge"><title>Node4&#45;&gt;Node118</title>
<path fill="none" stroke="midnightblue" d="M668.521,-304.449C700.098,-288.658 766.788,-257.42 827,-243 908.992,-223.363 1008.46,-219.457 1060.79,-218.881"/>
<polygon fill="midnightblue" stroke="midnightblue" points="1060.93,-222.38 1070.91,-218.806 1060.88,-215.38 1060.93,-222.38"/>
</g>
<!-- Node119 -->
<g id="node24" class="node"><title>Node119</title>
<g id="a_node24"><a xlink:href="lapi_8c.html#a426c9cb1d582be3e43060c4772854e5a" target="_top" xlink:title=" ">
<polygon fill="white" stroke="black" points="1055,-513.5 1055,-532.5 1141,-532.5 1141,-513.5 1055,-513.5"/>
<text text-anchor="middle" x="1098" y="-520.5" font-family="Helvetica,sans-Serif" font-size="10.00">lua_pushvfstring</text>
</a>
</g>
</g>
<!-- Node4&#45;&gt;Node119 -->
<g id="edge34" class="edge"><title>Node4&#45;&gt;Node119</title>
<path fill="none" stroke="midnightblue" d="M660.355,-323.664C695.542,-355.852 815.003,-459.874 935,-504 970.134,-516.92 1012.18,-521.563 1044.63,-523.032"/>
<polygon fill="midnightblue" stroke="midnightblue" points="1044.69,-526.536 1054.81,-523.404 1044.94,-519.541 1044.69,-526.536"/>
</g>
<!-- Node120 -->
<g id="node25" class="node"><title>Node120</title>
<g id="a_node25"><a xlink:href="lauxlib_8c.html#a0f4d3c30c07eae36aa25605df84279a0" target="_top" xlink:title=" ">
<polygon fill="white" stroke="black" points="725.5,-532.5 725.5,-551.5 790.5,-551.5 790.5,-532.5 725.5,-532.5"/>
<text text-anchor="middle" x="758" y="-539.5" font-family="Helvetica,sans-Serif" font-size="10.00">luaL_where</text>
</a>
</g>
</g>
<!-- Node4&#45;&gt;Node120 -->
<g id="edge36" class="edge"><title>Node4&#45;&gt;Node120</title>
<path fill="none" stroke="midnightblue" d="M654.461,-323.507C670.641,-357.982 726.42,-476.838 748.194,-523.237"/>
<polygon fill="midnightblue" stroke="midnightblue" points="745.103,-524.887 752.52,-532.453 751.44,-521.913 745.103,-524.887"/>
</g>
<!-- Node6 -->
<g id="node6" class="node"><title>Node6</title>
<g id="a_node6"><a xlink:href="lstring_8c.html#ab41fb084ce3ea5e2779f6659ccc2484d" target="_top" xlink:title=" ">
<polygon fill="white" stroke="black" points="827,-342.5 827,-361.5 899,-361.5 899,-342.5 827,-342.5"/>
<text text-anchor="middle" x="863" y="-349.5" font-family="Helvetica,sans-Serif" font-size="10.00">luaS_newlstr</text>
</a>
</g>
</g>
<!-- Node5&#45;&gt;Node6 -->
<g id="edge5" class="edge"><title>Node5&#45;&gt;Node6</title>
<path fill="none" stroke="midnightblue" d="M784.991,-323.589C797.556,-328.224 812.83,-333.86 826.452,-338.885"/>
<polygon fill="midnightblue" stroke="midnightblue" points="825.424,-342.236 836.017,-342.414 827.847,-335.669 825.424,-342.236"/>
</g>
<!-- Node23 -->
<g id="node18" class="node"><title>Node23</title>
<g id="a_node18"><a xlink:href="lvm_8c.html#a2f076040af405dcb50d661edd692eca7" target="_top" xlink:title=" ">
<polygon fill="white" stroke="black" points="1315,-361.5 1315,-380.5 1386,-380.5 1386,-361.5 1315,-361.5"/>
<text text-anchor="middle" x="1350.5" y="-368.5" font-family="Helvetica,sans-Serif" font-size="10.00">luaV_concat</text>
</a>
</g>
</g>
<!-- Node5&#45;&gt;Node23 -->
<g id="edge31" class="edge"><title>Node5&#45;&gt;Node23</title>
<path fill="none" stroke="midnightblue" d="M790.29,-312.281C839.201,-309.982 936.697,-306.955 1019,-314 1122.04,-322.82 1241.19,-346.839 1304.5,-360.721"/>
<polygon fill="midnightblue" stroke="midnightblue" points="1304.02,-364.2 1314.54,-362.941 1305.53,-357.365 1304.02,-364.2"/>
</g>
<!-- Node7 -->
<g id="node7" class="node"><title>Node7</title>
<g id="a_node7"><a xlink:href="lstring_8c.html#a9b2c32c59a280de24f20df1c7f0433a1" target="_top" xlink:title=" ">
<polygon fill="white" stroke="red" points="944.5,-323.5 944.5,-342.5 1009.5,-342.5 1009.5,-323.5 944.5,-323.5"/>
<text text-anchor="middle" x="977" y="-330.5" font-family="Helvetica,sans-Serif" font-size="10.00">internshrstr</text>
</a>
</g>
</g>
<!-- Node6&#45;&gt;Node7 -->
<g id="edge6" class="edge"><title>Node6&#45;&gt;Node7</title>
<path fill="none" stroke="midnightblue" d="M899.13,-346.04C910.344,-344.138 922.86,-342.015 934.483,-340.043"/>
<polygon fill="midnightblue" stroke="midnightblue" points="935.138,-343.482 944.412,-338.359 933.967,-336.581 935.138,-343.482"/>
</g>
<!-- Node12 -->
<g id="node8" class="node"><title>Node12</title>
<g id="a_node8"><a xlink:href="lmem_8c.html#a8fc7df43dd830ccbe7581fd53f65bdbe" target="_top" xlink:title=" ">
<polygon fill="white" stroke="black" points="942.5,-475.5 942.5,-494.5 1011.5,-494.5 1011.5,-475.5 942.5,-475.5"/>
<text text-anchor="middle" x="977" y="-482.5" font-family="Helvetica,sans-Serif" font-size="10.00">luaM_toobig</text>
</a>
</g>
</g>
<!-- Node6&#45;&gt;Node12 -->
<g id="edge7" class="edge"><title>Node6&#45;&gt;Node12</title>
<path fill="none" stroke="midnightblue" d="M868.444,-361.808C878.112,-382.302 902.798,-430.3 935,-461 938.545,-464.379 942.65,-467.482 946.867,-470.255"/>
<polygon fill="midnightblue" stroke="midnightblue" points="945.158,-473.311 955.531,-475.465 948.765,-467.312 945.158,-473.311"/>
</g>
<!-- Node25 -->
<g id="node20" class="node"><title>Node25</title>
<g id="a_node20"><a xlink:href="lstring_8c.html#a8790c7d6e706f935dd6e9eefd068921c" target="_top" xlink:title=" ">
<polygon fill="white" stroke="red" points="1431,-276.5 1431,-295.5 1536,-295.5 1536,-276.5 1431,-276.5"/>
<text text-anchor="middle" x="1483.5" y="-283.5" font-family="Helvetica,sans-Serif" font-size="10.00">luaS_createlngstrobj</text>
</a>
</g>
</g>
<!-- Node6&#45;&gt;Node25 -->
<g id="edge30" class="edge"><title>Node6&#45;&gt;Node25</title>
<path fill="none" stroke="midnightblue" d="M878.961,-342.482C892.965,-333.945 914.714,-321.622 935,-314 1127.79,-241.561 1191.51,-226.235 1395,-258 1413.53,-260.893 1433.5,-267.036 1449.68,-272.833"/>
<polygon fill="midnightblue" stroke="midnightblue" points="1448.62,-276.174 1459.21,-276.366 1451.05,-269.61 1448.62,-276.174"/>
</g>
<!-- Node13 -->
<g id="node9" class="node"><title>Node13</title>
<g id="a_node9"><a xlink:href="ldebug_8c.html#a88d38ca5da2e7a1492fc9d5ad70c32c5" target="_top" xlink:title=" ">
<polygon fill="white" stroke="red" points="1060.5,-475.5 1060.5,-494.5 1135.5,-494.5 1135.5,-475.5 1060.5,-475.5"/>
<text text-anchor="middle" x="1098" y="-482.5" font-family="Helvetica,sans-Serif" font-size="10.00">luaG_runerror</text>
</a>
</g>
</g>
<!-- Node12&#45;&gt;Node13 -->
<g id="edge8" class="edge"><title>Node12&#45;&gt;Node13</title>
<path fill="none" stroke="midnightblue" d="M1011.78,-485C1023.71,-485 1037.35,-485 1050.16,-485"/>
<polygon fill="midnightblue" stroke="midnightblue" points="1050.21,-488.5 1060.21,-485 1050.21,-481.5 1050.21,-488.5"/>
</g>
<!-- Node117 -->
<g id="node10" class="node"><title>Node117</title>
<g id="a_node10"><a xlink:href="ldebug_8c.html#af7366920f8408bb33ed01b1d6c0e1238" target="_top" xlink:title=" ">
<polygon fill="white" stroke="black" points="1183.5,-267.5 1183.5,-286.5 1263.5,-286.5 1263.5,-267.5 1183.5,-267.5"/>
<text text-anchor="middle" x="1223.5" y="-274.5" font-family="Helvetica,sans-Serif" font-size="10.00">luaG_errormsg</text>
</a>
</g>
</g>
<!-- Node13&#45;&gt;Node117 -->
<g id="edge9" class="edge"><title>Node13&#45;&gt;Node117</title>
<path fill="none" stroke="midnightblue" d="M1104.79,-475.247C1124.03,-442.84 1186.05,-338.392 1211.47,-295.574"/>
<polygon fill="midnightblue" stroke="midnightblue" points="1214.48,-297.36 1216.58,-286.974 1208.46,-293.786 1214.48,-297.36"/>
</g>
<!-- Node19 -->
<g id="node13" class="node"><title>Node19</title>
<g id="a_node13"><a xlink:href="lobject_8c.html#aa83fa444a36d79521e846a766fa083d5" target="_top" xlink:title=" ">
<polygon fill="white" stroke="black" points="1177,-513.5 1177,-532.5 1270,-532.5 1270,-513.5 1177,-513.5"/>
<text text-anchor="middle" x="1223.5" y="-520.5" font-family="Helvetica,sans-Serif" font-size="10.00">luaO_pushvfstring</text>
</a>
</g>
</g>
<!-- Node13&#45;&gt;Node19 -->
<g id="edge13" class="edge"><title>Node13&#45;&gt;Node19</title>
<path fill="none" stroke="midnightblue" d="M1135.72,-490.068C1155.45,-495.275 1179.29,-502.825 1196.99,-509.562"/>
<polygon fill="midnightblue" stroke="midnightblue" points="1196.03,-512.95 1206.62,-513.412 1198.63,-506.45 1196.03,-512.95"/>
</g>
<!-- Node115 -->
<g id="node11" class="node"><title>Node115</title>
<g id="a_node11"><a xlink:href="ldo_8c.html#a61c0a0185ef5ae1493dad10027f4db7e" target="_top" xlink:title=" ">
<polygon fill="white" stroke="red" points="1307,-267.5 1307,-286.5 1394,-286.5 1394,-267.5 1307,-267.5"/>
<text text-anchor="middle" x="1350.5" y="-274.5" font-family="Helvetica,sans-Serif" font-size="10.00">luaD_callnoyield</text>
</a>
</g>
</g>
<!-- Node117&#45;&gt;Node115 -->
<g id="edge10" class="edge"><title>Node117&#45;&gt;Node115</title>
<path fill="none" stroke="midnightblue" d="M1263.71,-277C1274.23,-277 1285.79,-277 1296.91,-277"/>
<polygon fill="midnightblue" stroke="midnightblue" points="1296.96,-280.5 1306.96,-277 1296.96,-273.5 1296.96,-280.5"/>
</g>
<!-- Node76 -->
<g id="node12" class="node"><title>Node76</title>
<g id="a_node12"><a xlink:href="ldo_8c.html#a2b46d9db5b9ca3d5402a0c2ac640a6b0" target="_top" xlink:title=" ">
<polygon fill="white" stroke="red" points="1318,-305.5 1318,-324.5 1383,-324.5 1383,-305.5 1318,-305.5"/>
<text text-anchor="middle" x="1350.5" y="-312.5" font-family="Helvetica,sans-Serif" font-size="10.00">luaD_throw</text>
</a>
</g>
</g>
<!-- Node117&#45;&gt;Node76 -->
<g id="edge11" class="edge"><title>Node117&#45;&gt;Node76</title>
<path fill="none" stroke="midnightblue" d="M1256.04,-286.589C1271.88,-291.404 1291.27,-297.299 1308.28,-302.468"/>
<polygon fill="midnightblue" stroke="midnightblue" points="1307.38,-305.854 1317.97,-305.414 1309.42,-299.157 1307.38,-305.854"/>
</g>
<!-- Node76&#45;&gt;Node76 -->
<g id="edge12" class="edge"><title>Node76&#45;&gt;Node76</title>
<path fill="none" stroke="midnightblue" d="M1331.08,-324.757C1321.63,-333.565 1328.11,-343 1350.5,-343 1364.85,-343 1372.66,-339.128 1373.94,-334.029"/>
<polygon fill="midnightblue" stroke="midnightblue" points="1377.11,-332.541 1369.92,-324.757 1370.68,-335.324 1377.11,-332.541"/>
</g>
<!-- Node19&#45;&gt;Node13 -->
<g id="edge15" class="edge"><title>Node19&#45;&gt;Node13</title>
<path fill="none" stroke="midnightblue" d="M1176.9,-515.509C1159.23,-510.54 1139.66,-504.203 1124.56,-498.454"/>
<polygon fill="midnightblue" stroke="midnightblue" points="1125.48,-495.053 1114.89,-494.592 1122.88,-501.553 1125.48,-495.053"/>
</g>
<!-- Node20 -->
<g id="node14" class="node"><title>Node20</title>
<g id="a_node14"><a xlink:href="ldo_8c.html#a4dd006aa3210fdc854d0441e2a98c9af" target="_top" xlink:title=" ">
<polygon fill="white" stroke="black" points="1449.5,-456.5 1449.5,-475.5 1517.5,-475.5 1517.5,-456.5 1449.5,-456.5"/>
<text text-anchor="middle" x="1483.5" y="-463.5" font-family="Helvetica,sans-Serif" font-size="10.00">luaD_inctop</text>
</a>
</g>
</g>
<!-- Node19&#45;&gt;Node20 -->
<g id="edge14" class="edge"><title>Node19&#45;&gt;Node20</title>
<path fill="none" stroke="midnightblue" d="M1264.68,-513.49C1277.84,-510.414 1292.53,-507.019 1306,-504 1351.37,-493.827 1403.43,-482.683 1439.19,-475.11"/>
<polygon fill="midnightblue" stroke="midnightblue" points="1440.22,-478.469 1449.28,-472.976 1438.77,-471.621 1440.22,-478.469"/>
</g>
<!-- Node18 -->
<g id="node15" class="node"><title>Node18</title>
<g id="a_node15"><a xlink:href="lobject_8c.html#a8e224db7123c74d695076a96d1bfda61" target="_top" xlink:title=" ">
<polygon fill="white" stroke="black" points="1306,-551.5 1306,-570.5 1395,-570.5 1395,-551.5 1306,-551.5"/>
<text text-anchor="middle" x="1350.5" y="-558.5" font-family="Helvetica,sans-Serif" font-size="10.00">luaO_pushfstring</text>
</a>
</g>
</g>
<!-- Node19&#45;&gt;Node18 -->
<g id="edge16" class="edge"><title>Node19&#45;&gt;Node18</title>
<path fill="none" stroke="midnightblue" d="M1270.34,-530.402C1288.51,-535.441 1308.72,-541.91 1324.16,-547.746"/>
<polygon fill="midnightblue" stroke="midnightblue" points="1322.97,-551.039 1333.56,-551.468 1325.55,-544.531 1322.97,-551.039"/>
</g>
<!-- Node21 -->
<g id="node16" class="node"><title>Node21</title>
<g id="a_node16"><a xlink:href="lobject_8c.html#a00c5c37438b02ff7efcf8e8dfa98da7c" target="_top" xlink:title=" ">
<polygon fill="white" stroke="black" points="1313.5,-399.5 1313.5,-418.5 1387.5,-418.5 1387.5,-399.5 1313.5,-399.5"/>
<text text-anchor="middle" x="1350.5" y="-406.5" font-family="Helvetica,sans-Serif" font-size="10.00">luaO_tostring</text>
</a>
</g>
</g>
<!-- Node19&#45;&gt;Node21 -->
<g id="edge18" class="edge"><title>Node19&#45;&gt;Node21</title>
<path fill="none" stroke="midnightblue" d="M1249.5,-513.282C1256.74,-509.603 1264.24,-504.856 1270,-499 1294.82,-473.782 1280.27,-452.289 1306,-428 1307.48,-426.6 1309.09,-425.293 1310.77,-424.074"/>
<polygon fill="midnightblue" stroke="midnightblue" points="1312.95,-426.846 1319.72,-418.692 1309.35,-420.847 1312.95,-426.846"/>
</g>
<!-- Node22 -->
<g id="node17" class="node"><title>Node22</title>
<g id="a_node17"><a xlink:href="lobject_8c.html#af3136de4693789b08f78aafda9604676" target="_top" xlink:title=" ">
<polygon fill="white" stroke="black" points="1313.5,-513.5 1313.5,-532.5 1387.5,-532.5 1387.5,-513.5 1313.5,-513.5"/>
<text text-anchor="middle" x="1350.5" y="-520.5" font-family="Helvetica,sans-Serif" font-size="10.00">luaO_utf8esc</text>
</a>
</g>
</g>
<!-- Node19&#45;&gt;Node22 -->
<g id="edge20" class="edge"><title>Node19&#45;&gt;Node22</title>
<path fill="none" stroke="midnightblue" d="M1270.34,-523C1281.11,-523 1292.59,-523 1303.38,-523"/>
<polygon fill="midnightblue" stroke="midnightblue" points="1303.45,-526.5 1313.45,-523 1303.45,-519.5 1303.45,-526.5"/>
</g>
<!-- Node19&#45;&gt;Node23 -->
<g id="edge21" class="edge"><title>Node19&#45;&gt;Node23</title>
<path fill="none" stroke="midnightblue" d="M1251.01,-513.31C1257.96,-509.711 1264.92,-505 1270,-499 1302.95,-460.052 1271.64,-427.71 1306,-390 1307.18,-388.702 1308.47,-387.488 1309.84,-386.354"/>
<polygon fill="midnightblue" stroke="midnightblue" points="1311.96,-389.144 1318.35,-380.69 1308.08,-383.316 1311.96,-389.144"/>
</g>
<!-- Node116 -->
<g id="node22" class="node"><title>Node116</title>
<g id="a_node22"><a xlink:href="lobject_8c.html#aa65db03553a5abd73e466d307bb17a37" target="_top" xlink:title=" ">
<polygon fill="white" stroke="black" points="1326,-437.5 1326,-456.5 1375,-456.5 1375,-437.5 1326,-437.5"/>
<text text-anchor="middle" x="1350.5" y="-444.5" font-family="Helvetica,sans-Serif" font-size="10.00">pushstr</text>
</a>
</g>
</g>
<!-- Node19&#45;&gt;Node116 -->
<g id="edge27" class="edge"><title>Node19&#45;&gt;Node116</title>
<path fill="none" stroke="midnightblue" d="M1244.41,-513.455C1252.53,-509.32 1261.9,-504.231 1270,-499 1287.03,-488.007 1289.07,-482.152 1306,-471 1310.86,-467.797 1316.18,-464.614 1321.39,-461.664"/>
<polygon fill="midnightblue" stroke="midnightblue" points="1323.42,-464.539 1330.49,-456.651 1320.04,-458.407 1323.42,-464.539"/>
</g>
<!-- Node18&#45;&gt;Node19 -->
<g id="edge17" class="edge"><title>Node18&#45;&gt;Node19</title>
<path fill="none" stroke="midnightblue" d="M1305.81,-554.188C1287.27,-549.12 1266.31,-542.451 1250.31,-536.431"/>
<polygon fill="midnightblue" stroke="midnightblue" points="1251.17,-533.01 1240.59,-532.592 1248.6,-539.521 1251.17,-533.01"/>
</g>
<!-- Node21&#45;&gt;Node6 -->
<g id="edge19" class="edge"><title>Node21&#45;&gt;Node6</title>
<path fill="none" stroke="midnightblue" d="M1313.49,-407.486C1241.26,-404.036 1073.71,-393.961 935,-370 925.89,-368.426 916.228,-366.295 907.062,-364.049"/>
<polygon fill="midnightblue" stroke="midnightblue" points="907.914,-360.654 897.36,-361.588 906.193,-367.439 907.914,-360.654"/>
</g>
<!-- Node23&#45;&gt;Node6 -->
<g id="edge25" class="edge"><title>Node23&#45;&gt;Node6</title>
<path fill="none" stroke="midnightblue" d="M1314.98,-369.649C1229.06,-366.287 1005.67,-357.544 909.32,-353.774"/>
<polygon fill="midnightblue" stroke="midnightblue" points="909.436,-350.276 899.307,-353.382 909.162,-357.27 909.436,-350.276"/>
</g>
<!-- Node23&#45;&gt;Node13 -->
<g id="edge23" class="edge"><title>Node23&#45;&gt;Node13</title>
<path fill="none" stroke="midnightblue" d="M1327.34,-380.587C1320.48,-383.576 1312.92,-386.901 1306,-390 1242.66,-418.367 1168.86,-452.495 1128.73,-471.149"/>
<polygon fill="midnightblue" stroke="midnightblue" points="1127.1,-468.045 1119.51,-475.435 1130.05,-474.392 1127.1,-468.045"/>
</g>
<!-- Node24 -->
<g id="node19" class="node"><title>Node24</title>
<g id="a_node19"><a xlink:href="lvm_8c.html#a7f03a9c23b77ec5cd280bb955ec430b8" target="_top" xlink:title=" ">
<polygon fill="white" stroke="black" points="1454.5,-342.5 1454.5,-361.5 1512.5,-361.5 1512.5,-342.5 1454.5,-342.5"/>
<text text-anchor="middle" x="1483.5" y="-349.5" font-family="Helvetica,sans-Serif" font-size="10.00">copy2buff</text>
</a>
</g>
</g>
<!-- Node23&#45;&gt;Node24 -->
<g id="edge22" class="edge"><title>Node23&#45;&gt;Node24</title>
<path fill="none" stroke="midnightblue" d="M1386.26,-365.958C1404.09,-363.373 1425.84,-360.218 1444.15,-357.562"/>
<polygon fill="midnightblue" stroke="midnightblue" points="1444.81,-361.004 1454.2,-356.104 1443.8,-354.076 1444.81,-361.004"/>
</g>
<!-- Node23&#45;&gt;Node25 -->
<g id="edge24" class="edge"><title>Node23&#45;&gt;Node25</title>
<path fill="none" stroke="midnightblue" d="M1376.38,-361.326C1382.61,-358.586 1389.17,-355.411 1395,-352 1420.04,-337.362 1446.28,-316.756 1463.42,-302.479"/>
<polygon fill="midnightblue" stroke="midnightblue" points="1466.11,-304.783 1471.49,-295.656 1461.6,-299.436 1466.11,-304.783"/>
</g>
<!-- Node26 -->
<g id="node21" class="node"><title>Node26</title>
<g id="a_node21"><a xlink:href="ltm_8c.html#a2adc638eccb971b8abaf27f60611e913" target="_top" xlink:title=" ">
<polygon fill="white" stroke="red" points="1445,-380.5 1445,-399.5 1522,-399.5 1522,-380.5 1445,-380.5"/>
<text text-anchor="middle" x="1483.5" y="-387.5" font-family="Helvetica,sans-Serif" font-size="10.00">luaT_trybinTM</text>
</a>
</g>
</g>
<!-- Node23&#45;&gt;Node26 -->
<g id="edge26" class="edge"><title>Node23&#45;&gt;Node26</title>
<path fill="none" stroke="midnightblue" d="M1386.26,-376.042C1401.06,-378.188 1418.57,-380.727 1434.56,-383.047"/>
<polygon fill="midnightblue" stroke="midnightblue" points="1434.42,-386.562 1444.81,-384.534 1435.42,-379.635 1434.42,-386.562"/>
</g>
<!-- Node116&#45;&gt;Node6 -->
<g id="edge29" class="edge"><title>Node116&#45;&gt;Node6</title>
<path fill="none" stroke="midnightblue" d="M1325.94,-446.651C1261.64,-445.09 1078.35,-436.56 935,-390 918.038,-384.491 900.351,-375.037 886.873,-366.937"/>
<polygon fill="midnightblue" stroke="midnightblue" points="888.62,-363.902 878.276,-361.611 884.934,-369.853 888.62,-363.902"/>
</g>
<!-- Node116&#45;&gt;Node20 -->
<g id="edge28" class="edge"><title>Node116&#45;&gt;Node20</title>
<path fill="none" stroke="midnightblue" d="M1375.22,-450.441C1392.96,-453.014 1417.72,-456.605 1438.99,-459.689"/>
<polygon fill="midnightblue" stroke="midnightblue" points="1438.7,-463.184 1449.1,-461.156 1439.7,-456.256 1438.7,-463.184"/>
</g>
<!-- Node118&#45;&gt;Node117 -->
<g id="edge33" class="edge"><title>Node118&#45;&gt;Node117</title>
<path fill="none" stroke="midnightblue" d="M1119.39,-228.578C1139.42,-237.981 1170.17,-252.426 1192.89,-263.093"/>
<polygon fill="midnightblue" stroke="midnightblue" points="1191.54,-266.325 1202.08,-267.408 1194.51,-259.989 1191.54,-266.325"/>
</g>
<!-- Node119&#45;&gt;Node19 -->
<g id="edge35" class="edge"><title>Node119&#45;&gt;Node19</title>
<path fill="none" stroke="midnightblue" d="M1141.16,-523C1149.3,-523 1157.96,-523 1166.47,-523"/>
<polygon fill="midnightblue" stroke="midnightblue" points="1166.73,-526.5 1176.73,-523 1166.73,-519.5 1166.73,-526.5"/>
</g>
<!-- Node121 -->
<g id="node26" class="node"><title>Node121</title>
<g id="a_node26"><a xlink:href="ldebug_8c.html#acaafc35d8e385c4d167229486165df6d" target="_top" xlink:title=" ">
<polygon fill="white" stroke="black" points="831.5,-608.5 831.5,-627.5 894.5,-627.5 894.5,-608.5 831.5,-608.5"/>
<text text-anchor="middle" x="863" y="-615.5" font-family="Helvetica,sans-Serif" font-size="10.00">lua_getinfo</text>
</a>
</g>
</g>
<!-- Node120&#45;&gt;Node121 -->
<g id="edge37" class="edge"><title>Node120&#45;&gt;Node121</title>
<path fill="none" stroke="midnightblue" d="M772.045,-551.625C789.381,-564.417 820.224,-587.175 840.894,-602.427"/>
<polygon fill="midnightblue" stroke="midnightblue" points="838.936,-605.332 849.061,-608.453 843.092,-599.699 838.936,-605.332"/>
</g>
<!-- Node128 -->
<g id="node30" class="node"><title>Node128</title>
<g id="a_node30"><a xlink:href="ldebug_8c.html#ac1fc03c27ee46caa4037df2d70f22110" target="_top" xlink:title=" ">
<polygon fill="white" stroke="black" points="827,-513.5 827,-532.5 899,-532.5 899,-513.5 827,-513.5"/>
<text text-anchor="middle" x="863" y="-520.5" font-family="Helvetica,sans-Serif" font-size="10.00">lua_getstack</text>
</a>
</g>
</g>
<!-- Node120&#45;&gt;Node128 -->
<g id="edge41" class="edge"><title>Node120&#45;&gt;Node128</title>
<path fill="none" stroke="midnightblue" d="M790.744,-536.144C799.075,-534.607 808.22,-532.921 817.099,-531.283"/>
<polygon fill="midnightblue" stroke="midnightblue" points="817.753,-534.721 826.953,-529.465 816.484,-527.837 817.753,-534.721"/>
</g>
<!-- Node129 -->
<g id="node31" class="node"><title>Node129</title>
<g id="a_node31"><a xlink:href="lapi_8c.html#ab190c226d38b289e6ca57683a9d4e0f0" target="_top" xlink:title=" ">
<polygon fill="white" stroke="black" points="1057,-551.5 1057,-570.5 1139,-570.5 1139,-551.5 1057,-551.5"/>
<text text-anchor="middle" x="1098" y="-558.5" font-family="Helvetica,sans-Serif" font-size="10.00">lua_pushfstring</text>
</a>
</g>
</g>
<!-- Node120&#45;&gt;Node129 -->
<g id="edge42" class="edge"><title>Node120&#45;&gt;Node129</title>
<path fill="none" stroke="midnightblue" d="M790.798,-543.787C849.692,-547.098 976.158,-554.207 1046.75,-558.175"/>
<polygon fill="midnightblue" stroke="midnightblue" points="1046.56,-561.67 1056.74,-558.737 1046.96,-554.681 1046.56,-561.67"/>
</g>
<!-- Node122 -->
<g id="node27" class="node"><title>Node122</title>
<g id="a_node27"><a xlink:href="ldebug_8c.html#ad72fa774194e83872bac4e5bf6ec1160" target="_top" xlink:title=" ">
<polygon fill="white" stroke="red" points="946.5,-665.5 946.5,-684.5 1007.5,-684.5 1007.5,-665.5 946.5,-665.5"/>
<text text-anchor="middle" x="977" y="-672.5" font-family="Helvetica,sans-Serif" font-size="10.00">auxgetinfo</text>
</a>
</g>
</g>
<!-- Node121&#45;&gt;Node122 -->
<g id="edge38" class="edge"><title>Node121&#45;&gt;Node122</title>
<path fill="none" stroke="midnightblue" d="M881.361,-627.652C895.647,-635.507 916.484,-646.764 935,-656 938.357,-657.674 941.89,-659.386 945.416,-661.063"/>
<polygon fill="midnightblue" stroke="midnightblue" points="944.069,-664.296 954.609,-665.369 947.038,-657.958 944.069,-664.296"/>
</g>
<!-- Node126 -->
<g id="node28" class="node"><title>Node126</title>
<g id="a_node28"><a xlink:href="ldebug_8c.html#a6e3195fc94af1f75142c2801ca8cf058" target="_top" xlink:title=" ">
<polygon fill="white" stroke="red" points="935,-627.5 935,-646.5 1019,-646.5 1019,-627.5 935,-627.5"/>
<text text-anchor="middle" x="977" y="-634.5" font-family="Helvetica,sans-Serif" font-size="10.00">collectvalidlines</text>
</a>
</g>
</g>
<!-- Node121&#45;&gt;Node126 -->
<g id="edge39" class="edge"><title>Node121&#45;&gt;Node126</title>
<path fill="none" stroke="midnightblue" d="M894.604,-623.192C903.931,-624.774 914.45,-626.558 924.753,-628.306"/>
<polygon fill="midnightblue" stroke="midnightblue" points="924.487,-631.811 934.931,-630.033 925.658,-624.91 924.487,-631.811"/>
</g>
<!-- Node127 -->
<g id="node29" class="node"><title>Node127</title>
<g id="a_node29"><a xlink:href="ldebug_8c.html#a1f8af4428461705c53893e5ddb8b55aa" target="_top" xlink:title=" ">
<polygon fill="white" stroke="black" points="946.5,-589.5 946.5,-608.5 1007.5,-608.5 1007.5,-589.5 946.5,-589.5"/>
<text text-anchor="middle" x="977" y="-596.5" font-family="Helvetica,sans-Serif" font-size="10.00">swapextra</text>
</a>
</g>
</g>
<!-- Node121&#45;&gt;Node127 -->
<g id="edge40" class="edge"><title>Node121&#45;&gt;Node127</title>
<path fill="none" stroke="midnightblue" d="M894.604,-612.808C907.404,-610.637 922.45,-608.084 936.1,-605.769"/>
<polygon fill="midnightblue" stroke="midnightblue" points="936.933,-609.178 946.207,-604.054 935.762,-602.276 936.933,-609.178"/>
</g>
<!-- Node129&#45;&gt;Node19 -->
<g id="edge43" class="edge"><title>Node129&#45;&gt;Node19</title>
<path fill="none" stroke="midnightblue" d="M1130.16,-551.411C1145.81,-546.596 1164.97,-540.701 1181.77,-535.532"/>
<polygon fill="midnightblue" stroke="midnightblue" points="1182.82,-538.872 1191.35,-532.586 1180.76,-532.182 1182.82,-538.872"/>
</g>
<!-- Node131 -->
<g id="node33" class="node"><title>Node131</title>
<g id="a_node33"><a xlink:href="lauxlib_8c.html#a1957766835de815798e07848d3d14810" target="_top" xlink:title=" ">
<polygon fill="white" stroke="black" points="364.5,-38.5 364.5,-57.5 407.5,-57.5 407.5,-38.5 364.5,-38.5"/>
<text text-anchor="middle" x="386" y="-45.5" font-family="Helvetica,sans-Serif" font-size="10.00">boxgc</text>
</a>
</g>
</g>
<!-- Node130&#45;&gt;Node131 -->
<g id="edge45" class="edge"><title>Node130&#45;&gt;Node131</title>
<path fill="none" stroke="midnightblue" d="M282.336,-133.16C292.284,-118.328 312.838,-90.0619 336,-72 341.721,-67.5384 348.406,-63.5981 354.964,-60.2666"/>
<polygon fill="midnightblue" stroke="midnightblue" points="356.809,-63.2663 364.357,-55.8314 353.82,-56.9365 356.809,-63.2663"/>
</g>
<!-- Node130&#45;&gt;Node132 -->
<g id="edge71" class="edge"><title>Node130&#45;&gt;Node132</title>
<path fill="none" stroke="midnightblue" d="M287.722,-133.319C299.345,-124.137 317.976,-110.515 336,-102 362.065,-89.6859 436.756,-69.5634 483.024,-57.6697"/>
<polygon fill="midnightblue" stroke="midnightblue" points="483.898,-61.059 492.719,-55.1909 482.164,-54.2771 483.898,-61.059"/>
</g>
<!-- Node136 -->
<g id="node38" class="node"><title>Node136</title>
<g id="a_node38"><a xlink:href="lapi_8c.html#a467bb6f4780b27d6e7de6ee10a80dac5" target="_top" xlink:title=" ">
<polygon fill="white" stroke="black" points="341.5,-408.5 341.5,-427.5 430.5,-427.5 430.5,-408.5 341.5,-408.5"/>
<text text-anchor="middle" x="386" y="-415.5" font-family="Helvetica,sans-Serif" font-size="10.00">lua_newuserdata</text>
</a>
</g>
</g>
<!-- Node130&#45;&gt;Node136 -->
<g id="edge51" class="edge"><title>Node130&#45;&gt;Node136</title>
<path fill="none" stroke="midnightblue" d="M279.879,-152.787C295.772,-192.883 356.071,-345.013 377.438,-398.92"/>
<polygon fill="midnightblue" stroke="midnightblue" points="374.229,-400.323 381.167,-408.33 380.736,-397.744 374.229,-400.323"/>
</g>
<!-- Node138 -->
<g id="node41" class="node"><title>Node138</title>
<g id="a_node41"><a xlink:href="lapi_8c.html#a3f2f542ee6728d82e51b1c302f9606df" target="_top" xlink:title=" ">
<polygon fill="white" stroke="black" points="490,-76.5 490,-95.5 555,-95.5 555,-76.5 490,-76.5"/>
<text text-anchor="middle" x="522.5" y="-83.5" font-family="Helvetica,sans-Serif" font-size="10.00">lua_setfield</text>
</a>
</g>
</g>
<!-- Node130&#45;&gt;Node138 -->
<g id="edge55" class="edge"><title>Node130&#45;&gt;Node138</title>
<path fill="none" stroke="midnightblue" d="M300.437,-137.326C342.393,-127.585 428.572,-107.576 480.061,-95.6214"/>
<polygon fill="midnightblue" stroke="midnightblue" points="480.923,-99.0143 489.873,-93.3432 479.34,-92.1956 480.923,-99.0143"/>
</g>
<!-- Node141 -->
<g id="node45" class="node"><title>Node141</title>
<g id="a_node45"><a xlink:href="lapi_8c.html#a15719ea4119bdf5b3f2a406534431a7e" target="_top" xlink:title=" ">
<polygon fill="white" stroke="black" points="340.5,-190.5 340.5,-209.5 431.5,-209.5 431.5,-190.5 340.5,-190.5"/>
<text text-anchor="middle" x="386" y="-197.5" font-family="Helvetica,sans-Serif" font-size="10.00">lua_setmetatable</text>
</a>
</g>
</g>
<!-- Node130&#45;&gt;Node141 -->
<g id="edge61" class="edge"><title>Node130&#45;&gt;Node141</title>
<path fill="none" stroke="midnightblue" d="M289.377,-152.539C301.252,-160.745 319.267,-172.558 336,-181 339.849,-182.942 343.946,-184.814 348.07,-186.576"/>
<polygon fill="midnightblue" stroke="midnightblue" points="347.05,-189.94 357.632,-190.47 349.69,-183.457 347.05,-189.94"/>
</g>
<!-- Node154 -->
<g id="node47" class="node"><title>Node154</title>
<g id="a_node47"><a xlink:href="lauxlib_8c.html#a2664eb7bcc85bbf6eeded2a81cf09b01" target="_top" xlink:title=" ">
<polygon fill="white" stroke="black" points="336,-152.5 336,-171.5 436,-171.5 436,-152.5 336,-152.5"/>
<text text-anchor="middle" x="386" y="-159.5" font-family="Helvetica,sans-Serif" font-size="10.00">luaL_newmetatable</text>
</a>
</g>
</g>
<!-- Node130&#45;&gt;Node154 -->
<g id="edge64" class="edge"><title>Node130&#45;&gt;Node154</title>
<path fill="none" stroke="midnightblue" d="M300.191,-147.217C307.929,-148.566 316.862,-150.123 325.965,-151.71"/>
<polygon fill="midnightblue" stroke="midnightblue" points="325.409,-155.165 335.861,-153.435 326.611,-148.269 325.409,-155.165"/>
</g>
<!-- Node131&#45;&gt;Node132 -->
<g id="edge46" class="edge"><title>Node131&#45;&gt;Node132</title>
<path fill="none" stroke="midnightblue" d="M407.721,-48C427.58,-48 458.056,-48 482.471,-48"/>
<polygon fill="midnightblue" stroke="midnightblue" points="482.515,-51.5001 492.515,-48 482.515,-44.5001 482.515,-51.5001"/>
</g>
<!-- Node132&#45;&gt;Node4 -->
<g id="edge50" class="edge"><title>Node132&#45;&gt;Node4</title>
<path fill="none" stroke="midnightblue" d="M552.249,-53.585C559.995,-56.405 567.69,-60.6411 573,-67 628.09,-132.969 576.034,-177.627 609,-257 614.893,-271.188 624.656,-285.452 632.939,-296.162"/>
<polygon fill="midnightblue" stroke="midnightblue" points="630.44,-298.639 639.432,-304.243 635.897,-294.255 630.44,-298.639"/>
</g>
<!-- Node133 -->
<g id="node35" class="node"><title>Node133</title>
<g id="a_node35"><a xlink:href="lapi_8c.html#a3dbff8747b32b799cf63603c46da06cc" target="_top" xlink:title=" ">
<polygon fill="white" stroke="black" points="613.5,-0.5 613.5,-19.5 684.5,-19.5 684.5,-0.5 613.5,-0.5"/>
<text text-anchor="middle" x="649" y="-7.5" font-family="Helvetica,sans-Serif" font-size="10.00">lua_getallocf</text>
</a>
</g>
</g>
<!-- Node132&#45;&gt;Node133 -->
<g id="edge47" class="edge"><title>Node132&#45;&gt;Node133</title>
<path fill="none" stroke="midnightblue" d="M552.063,-39.282C568.296,-34.3272 588.904,-28.0374 606.855,-22.5582"/>
<polygon fill="midnightblue" stroke="midnightblue" points="607.968,-25.8781 616.51,-19.6113 605.924,-19.183 607.968,-25.8781"/>
</g>
<!-- Node134 -->
<g id="node36" class="node"><title>Node134</title>
<g id="a_node36"><a xlink:href="lapi_8c.html#a0444ddf13e5618bca969e4b3b47bc0cc" target="_top" xlink:title=" ">
<polygon fill="white" stroke="black" points="609,-38.5 609,-57.5 689,-57.5 689,-38.5 609,-38.5"/>
<text text-anchor="middle" x="649" y="-45.5" font-family="Helvetica,sans-Serif" font-size="10.00">lua_touserdata</text>
</a>
</g>
</g>
<!-- Node132&#45;&gt;Node134 -->
<g id="edge48" class="edge"><title>Node132&#45;&gt;Node134</title>
<path fill="none" stroke="midnightblue" d="M552.063,-48C565.843,-48 582.775,-48 598.559,-48"/>
<polygon fill="midnightblue" stroke="midnightblue" points="598.721,-51.5001 608.721,-48 598.721,-44.5001 598.721,-51.5001"/>
</g>
<!-- Node135 -->
<g id="node37" class="node"><title>Node135</title>
<g id="a_node37"><a xlink:href="lapi_8c.html#ae54b9bb381b32c86235a084984e40215" target="_top" xlink:title=" ">
<polygon fill="white" stroke="black" points="726,-95.5 726,-114.5 790,-114.5 790,-95.5 726,-95.5"/>
<text text-anchor="middle" x="758" y="-102.5" font-family="Helvetica,sans-Serif" font-size="10.00">index2addr</text>
</a>
</g>
</g>
<!-- Node134&#45;&gt;Node135 -->
<g id="edge49" class="edge"><title>Node134&#45;&gt;Node135</title>
<path fill="none" stroke="midnightblue" d="M668.151,-57.6693C685.163,-66.7315 710.805,-80.3914 730.176,-90.7108"/>
<polygon fill="midnightblue" stroke="midnightblue" points="728.646,-93.8609 739.117,-95.4735 731.937,-87.6828 728.646,-93.8609"/>
</g>
<!-- Node137 -->
<g id="node39" class="node"><title>Node137</title>
<g id="a_node39"><a xlink:href="lstring_8c.html#a91255fe58c6be556cba13f83bf2850cb" target="_top" xlink:title=" ">
<polygon fill="white" stroke="black" points="481,-475.5 481,-494.5 564,-494.5 564,-475.5 481,-475.5"/>
<text text-anchor="middle" x="522.5" y="-482.5" font-family="Helvetica,sans-Serif" font-size="10.00">luaS_newudata</text>
</a>
</g>
</g>
<!-- Node136&#45;&gt;Node137 -->
<g id="edge52" class="edge"><title>Node136&#45;&gt;Node137</title>
<path fill="none" stroke="midnightblue" d="M406.271,-427.599C429.042,-438.943 467.129,-457.916 493.238,-470.922"/>
<polygon fill="midnightblue" stroke="midnightblue" points="491.754,-474.092 502.265,-475.418 494.875,-467.827 491.754,-474.092"/>
</g>
<!-- Node137&#45;&gt;Node12 -->
<g id="edge54" class="edge"><title>Node137&#45;&gt;Node12</title>
<path fill="none" stroke="midnightblue" d="M564.055,-485C648.895,-485 844.491,-485 932.132,-485"/>
<polygon fill="midnightblue" stroke="midnightblue" points="932.27,-488.5 942.27,-485 932.27,-481.5 932.27,-488.5"/>
</g>
<!-- Node9 -->
<g id="node40" class="node"><title>Node9</title>
<g id="a_node40"><a xlink:href="lgc_8c.html#abfc8404c5fbd2a1770202fa0b087d451" target="_top" xlink:title=" ">
<polygon fill="white" stroke="black" points="613.5,-513.5 613.5,-532.5 684.5,-532.5 684.5,-513.5 613.5,-513.5"/>
<text text-anchor="middle" x="649" y="-520.5" font-family="Helvetica,sans-Serif" font-size="10.00">luaC_newobj</text>
</a>
</g>
</g>
<!-- Node137&#45;&gt;Node9 -->
<g id="edge53" class="edge"><title>Node137&#45;&gt;Node9</title>
<path fill="none" stroke="midnightblue" d="M554.917,-494.589C570.693,-499.404 590.005,-505.299 606.941,-510.468"/>
<polygon fill="midnightblue" stroke="midnightblue" points="606.007,-513.842 616.593,-513.414 608.051,-507.147 606.007,-513.842"/>
</g>
<!-- Node138&#45;&gt;Node135 -->
<g id="edge60" class="edge"><title>Node138&#45;&gt;Node135</title>
<path fill="none" stroke="midnightblue" d="M555.478,-88.602C597.077,-91.987 669.83,-97.9069 715.603,-101.632"/>
<polygon fill="midnightblue" stroke="midnightblue" points="715.53,-105.137 725.781,-102.46 716.098,-98.1601 715.53,-105.137"/>
</g>
<!-- Node139 -->
<g id="node42" class="node"><title>Node139</title>
<g id="a_node42"><a xlink:href="lapi_8c.html#a0667fbf88666853554967226d9a3df4d" target="_top" xlink:title=" ">
<polygon fill="white" stroke="red" points="620.5,-190.5 620.5,-209.5 677.5,-209.5 677.5,-190.5 620.5,-190.5"/>
<text text-anchor="middle" x="649" y="-197.5" font-family="Helvetica,sans-Serif" font-size="10.00">auxsetstr</text>
</a>
</g>
</g>
<!-- Node138&#45;&gt;Node139 -->
<g id="edge56" class="edge"><title>Node138&#45;&gt;Node139</title>
<path fill="none" stroke="midnightblue" d="M555.184,-95.2479C561.412,-97.8495 567.662,-101.071 573,-105 601.471,-125.956 624.912,-160.396 637.638,-181.548"/>
<polygon fill="midnightblue" stroke="midnightblue" points="634.646,-183.364 642.711,-190.235 640.69,-179.834 634.646,-183.364"/>
</g>
<!-- Node65 -->
<g id="node43" class="node"><title>Node65</title>
<g id="a_node43"><a xlink:href="ltable_8c.html#ae273e09d2342a84f5cdfa976c66f28c0" target="_top" xlink:title=" ">
<polygon fill="white" stroke="red" points="725,-152.5 725,-171.5 791,-171.5 791,-152.5 725,-152.5"/>
<text text-anchor="middle" x="758" y="-159.5" font-family="Helvetica,sans-Serif" font-size="10.00">luaH_getstr</text>
</a>
</g>
</g>
<!-- Node139&#45;&gt;Node65 -->
<g id="edge57" class="edge"><title>Node139&#45;&gt;Node65</title>
<path fill="none" stroke="midnightblue" d="M677.001,-190.411C690.18,-185.731 706.229,-180.031 720.484,-174.968"/>
<polygon fill="midnightblue" stroke="midnightblue" points="721.756,-178.231 730.008,-171.586 719.413,-171.634 721.756,-178.231"/>
</g>
<!-- Node31 -->
<g id="node44" class="node"><title>Node31</title>
<g id="a_node44"><a xlink:href="lstring_8c.html#a6d47e53be6b8e58202bb927752f4824b" target="_top" xlink:title=" ">
<polygon fill="white" stroke="black" points="728.5,-190.5 728.5,-209.5 787.5,-209.5 787.5,-190.5 728.5,-190.5"/>
<text text-anchor="middle" x="758" y="-197.5" font-family="Helvetica,sans-Serif" font-size="10.00">luaS_new</text>
</a>
</g>
</g>
<!-- Node139&#45;&gt;Node31 -->
<g id="edge58" class="edge"><title>Node139&#45;&gt;Node31</title>
<path fill="none" stroke="midnightblue" d="M677.555,-200C689.99,-200 704.891,-200 718.412,-200"/>
<polygon fill="midnightblue" stroke="midnightblue" points="718.418,-203.5 728.418,-200 718.418,-196.5 718.418,-203.5"/>
</g>
<!-- Node31&#45;&gt;Node6 -->
<g id="edge59" class="edge"><title>Node31&#45;&gt;Node6</title>
<path fill="none" stroke="midnightblue" d="M765.443,-209.508C782.279,-234.353 827.799,-301.528 849.786,-333.976"/>
<polygon fill="midnightblue" stroke="midnightblue" points="847.052,-336.18 855.559,-342.495 852.847,-332.254 847.052,-336.18"/>
</g>
<!-- Node141&#45;&gt;Node135 -->
<g id="edge62" class="edge"><title>Node141&#45;&gt;Node135</title>
<path fill="none" stroke="midnightblue" d="M431.595,-199.059C469.67,-197.401 525.628,-192.932 573,-181 630.9,-166.416 694.448,-136.905 729.654,-119.255"/>
<polygon fill="midnightblue" stroke="midnightblue" points="731.469,-122.259 738.803,-114.614 728.302,-116.016 731.469,-122.259"/>
</g>
<!-- Node142 -->
<g id="node46" class="node"><title>Node142</title>
<g id="a_node46"><a xlink:href="lgc_8c.html#a0d4f5fb6a8831817e117cfff473aeb0e" target="_top" xlink:title=" ">
<polygon fill="white" stroke="red" points="472,-266.5 472,-285.5 573,-285.5 573,-266.5 472,-266.5"/>
<text text-anchor="middle" x="522.5" y="-273.5" font-family="Helvetica,sans-Serif" font-size="10.00">luaC_checkfinalizer</text>
</a>
</g>
</g>
<!-- Node141&#45;&gt;Node142 -->
<g id="edge63" class="edge"><title>Node141&#45;&gt;Node142</title>
<path fill="none" stroke="midnightblue" d="M401.787,-209.655C418.542,-220.451 446.802,-238.226 472,-252 478.194,-255.385 484.937,-258.817 491.396,-261.985"/>
<polygon fill="midnightblue" stroke="midnightblue" points="490.031,-265.212 500.559,-266.402 493.071,-258.907 490.031,-265.212"/>
</g>
<!-- Node154&#45;&gt;Node138 -->
<g id="edge70" class="edge"><title>Node154&#45;&gt;Node138</title>
<path fill="none" stroke="midnightblue" d="M410.197,-152.306C418.618,-148.361 428.019,-143.445 436,-138 453.93,-125.768 453.544,-116.423 472,-105 475.16,-103.044 478.555,-101.232 482.031,-99.5683"/>
<polygon fill="midnightblue" stroke="midnightblue" points="483.558,-102.721 491.32,-95.5099 480.756,-96.3063 483.558,-102.721"/>
</g>
<!-- Node155 -->
<g id="node48" class="node"><title>Node155</title>
<g id="a_node48"><a xlink:href="lapi_8c.html#a7f93e3baf3101cad59ec61b7744a55d8" target="_top" xlink:title=" ">
<polygon fill="white" stroke="red" points="481,-152.5 481,-171.5 564,-171.5 564,-152.5 481,-152.5"/>
<text text-anchor="middle" x="522.5" y="-159.5" font-family="Helvetica,sans-Serif" font-size="10.00">lua_createtable</text>
</a>
</g>
</g>
<!-- Node154&#45;&gt;Node155 -->
<g id="edge65" class="edge"><title>Node154&#45;&gt;Node155</title>
<path fill="none" stroke="midnightblue" d="M436.319,-162C447.455,-162 459.298,-162 470.502,-162"/>
<polygon fill="midnightblue" stroke="midnightblue" points="470.572,-165.5 480.572,-162 470.572,-158.5 470.572,-165.5"/>
</g>
<!-- Node156 -->
<g id="node49" class="node"><title>Node156</title>
<g id="a_node49"><a xlink:href="lapi_8c.html#a771d300f2e64b2197d1df9bf31660ebf" target="_top" xlink:title=" ">
<polygon fill="white" stroke="black" points="609,-228.5 609,-247.5 689,-247.5 689,-228.5 609,-228.5"/>
<text text-anchor="middle" x="649" y="-235.5" font-family="Helvetica,sans-Serif" font-size="10.00">lua_pushstring</text>
</a>
</g>
</g>
<!-- Node154&#45;&gt;Node156 -->
<g id="edge66" class="edge"><title>Node154&#45;&gt;Node156</title>
<path fill="none" stroke="midnightblue" d="M419.792,-171.548C466.77,-185.228 553.275,-210.417 605.229,-225.546"/>
<polygon fill="midnightblue" stroke="midnightblue" points="604.558,-228.995 615.137,-228.431 606.515,-222.275 604.558,-228.995"/>
</g>
<!-- Node157 -->
<g id="node50" class="node"><title>Node157</title>
<g id="a_node50"><a xlink:href="lapi_8c.html#a602f61a9b583d69dc1c72c8970bd65e8" target="_top" xlink:title=" ">
<polygon fill="white" stroke="black" points="484,-114.5 484,-133.5 561,-133.5 561,-114.5 484,-114.5"/>
<text text-anchor="middle" x="522.5" y="-121.5" font-family="Helvetica,sans-Serif" font-size="10.00">lua_pushvalue</text>
</a>
</g>
</g>
<!-- Node154&#45;&gt;Node157 -->
<g id="edge68" class="edge"><title>Node154&#45;&gt;Node157</title>
<path fill="none" stroke="midnightblue" d="M420.94,-152.411C438.223,-147.528 459.433,-141.536 477.911,-136.315"/>
<polygon fill="midnightblue" stroke="midnightblue" points="478.899,-139.673 487.571,-133.586 476.996,-132.937 478.899,-139.673"/>
</g>
<!-- Node156&#45;&gt;Node31 -->
<g id="edge67" class="edge"><title>Node156&#45;&gt;Node31</title>
<path fill="none" stroke="midnightblue" d="M677.001,-228.411C690.18,-223.731 706.229,-218.031 720.484,-212.968"/>
<polygon fill="midnightblue" stroke="midnightblue" points="721.756,-216.231 730.008,-209.586 719.413,-209.634 721.756,-216.231"/>
</g>
<!-- Node157&#45;&gt;Node135 -->
<g id="edge69" class="edge"><title>Node157&#45;&gt;Node135</title>
<path fill="none" stroke="midnightblue" d="M561.016,-120.947C603.384,-117.5 672.113,-111.907 715.903,-108.344"/>
<polygon fill="midnightblue" stroke="midnightblue" points="716.244,-111.828 725.927,-107.528 715.676,-104.851 716.244,-111.828"/>
</g>
</g>
</svg>
