<?xml version="1.0" encoding="UTF-8" standalone="no"?>
<!DOCTYPE svg PUBLIC "-//W3C//DTD SVG 1.1//EN"
 "http://www.w3.org/Graphics/SVG/1.1/DTD/svg11.dtd">
<!-- Generated by graphviz version 2.38.0 (20140413.2041)
 -->
<!-- Title: interror Pages: 1 -->
<svg width="1229pt" height="824pt"
 viewBox="0.00 0.00 1229.00 823.87" xmlns="http://www.w3.org/2000/svg" xmlns:xlink="http://www.w3.org/1999/xlink">
<g id="graph0" class="graph" transform="scale(1 1) rotate(0) translate(4 819.866)">
<title>interror</title>
<polygon fill="white" stroke="none" points="-4,4 -4,-819.866 1225,-819.866 1225,4 -4,4"/>
<!-- Node1 -->
<g id="node1" class="node"><title>Node1</title>
<g id="a_node1"><a xlink:title=" ">
<polygon fill="#bfbfbf" stroke="black" points="0,-476.5 0,-495.5 47,-495.5 47,-476.5 0,-476.5"/>
<text text-anchor="middle" x="23.5" y="-483.5" font-family="Helvetica,sans-Serif" font-size="10.00">interror</text>
</a>
</g>
</g>
<!-- Node2 -->
<g id="node2" class="node"><title>Node2</title>
<g id="a_node2"><a xlink:href="lapi_8c.html#a99451f234bf085c9c46c3d17a5aef905" target="_top" xlink:title=" ">
<polygon fill="white" stroke="black" points="287,-725.5 287,-744.5 361,-744.5 361,-725.5 287,-725.5"/>
<text text-anchor="middle" x="324" y="-732.5" font-family="Helvetica,sans-Serif" font-size="10.00">lua_isnumber</text>
</a>
</g>
</g>
<!-- Node1&#45;&gt;Node2 -->
<g id="edge1" class="edge"><title>Node1&#45;&gt;Node2</title>
<path fill="none" stroke="midnightblue" d="M36.2016,-495.761C81.6208,-533.649 246.532,-671.212 303.492,-718.727"/>
<polygon fill="midnightblue" stroke="midnightblue" points="301.458,-721.588 311.379,-725.306 305.942,-716.213 301.458,-721.588"/>
</g>
<!-- Node4 -->
<g id="node4" class="node"><title>Node4</title>
<g id="a_node4"><a xlink:href="lauxlib_8c.html#ac607576dd107a3120cd51948989f1ed2" target="_top" xlink:title=" ">
<polygon fill="white" stroke="black" points="287.5,-304.5 287.5,-323.5 360.5,-323.5 360.5,-304.5 287.5,-304.5"/>
<text text-anchor="middle" x="324" y="-311.5" font-family="Helvetica,sans-Serif" font-size="10.00">luaL_argerror</text>
</a>
</g>
</g>
<!-- Node1&#45;&gt;Node4 -->
<g id="edge3" class="edge"><title>Node1&#45;&gt;Node4</title>
<path fill="none" stroke="midnightblue" d="M41.4039,-476.26C91.2752,-447.523 238.018,-362.968 297.511,-328.687"/>
<polygon fill="midnightblue" stroke="midnightblue" points="299.364,-331.659 306.281,-323.633 295.87,-325.594 299.364,-331.659"/>
</g>
<!-- Node145 -->
<g id="node45" class="node"><title>Node145</title>
<g id="a_node45"><a xlink:href="lauxlib_8c.html#ab8e946260debec8d4bbc714b76a1613b" target="_top" xlink:title=" ">
<polygon fill="white" stroke="black" points="83,-476.5 83,-495.5 138,-495.5 138,-476.5 83,-476.5"/>
<text text-anchor="middle" x="110.5" y="-483.5" font-family="Helvetica,sans-Serif" font-size="10.00">tag_error</text>
</a>
</g>
</g>
<!-- Node1&#45;&gt;Node145 -->
<g id="edge59" class="edge"><title>Node1&#45;&gt;Node145</title>
<path fill="none" stroke="midnightblue" d="M47.2784,-486C55.0398,-486 63.9286,-486 72.5123,-486"/>
<polygon fill="midnightblue" stroke="midnightblue" points="72.7349,-489.5 82.7349,-486 72.7349,-482.5 72.7349,-489.5"/>
</g>
<!-- Node3 -->
<g id="node3" class="node"><title>Node3</title>
<g id="a_node3"><a xlink:href="lapi_8c.html#ae54b9bb381b32c86235a084984e40215" target="_top" xlink:title=" ">
<polygon fill="white" stroke="black" points="807.5,-570.5 807.5,-589.5 871.5,-589.5 871.5,-570.5 807.5,-570.5"/>
<text text-anchor="middle" x="839.5" y="-577.5" font-family="Helvetica,sans-Serif" font-size="10.00">index2addr</text>
</a>
</g>
</g>
<!-- Node2&#45;&gt;Node3 -->
<g id="edge2" class="edge"><title>Node2&#45;&gt;Node3</title>
<path fill="none" stroke="midnightblue" d="M344.008,-744.681C409.614,-776.588 629.516,-870.817 757,-770 811.454,-726.936 756.49,-677.049 793,-618 798.326,-609.386 806.281,-601.779 814.056,-595.678"/>
<polygon fill="midnightblue" stroke="midnightblue" points="816.273,-598.394 822.29,-589.673 812.148,-592.738 816.273,-598.394"/>
</g>
<!-- Node5 -->
<g id="node5" class="node"><title>Node5</title>
<g id="a_node5"><a xlink:href="ldebug_8c.html#acaafc35d8e385c4d167229486165df6d" target="_top" xlink:title=" ">
<polygon fill="white" stroke="black" points="680,-171.5 680,-190.5 743,-190.5 743,-171.5 680,-171.5"/>
<text text-anchor="middle" x="711.5" y="-178.5" font-family="Helvetica,sans-Serif" font-size="10.00">lua_getinfo</text>
</a>
</g>
</g>
<!-- Node4&#45;&gt;Node5 -->
<g id="edge4" class="edge"><title>Node4&#45;&gt;Node5</title>
<path fill="none" stroke="midnightblue" d="M332.581,-304.171C344.868,-288.697 370.446,-258.329 397,-238 453.527,-194.725 468.974,-179.418 538,-162 582.669,-150.728 635.518,-159.7 670.839,-168.754"/>
<polygon fill="midnightblue" stroke="midnightblue" points="670.196,-172.205 680.761,-171.418 672.011,-165.444 670.196,-172.205"/>
</g>
<!-- Node124 -->
<g id="node21" class="node"><title>Node124</title>
<g id="a_node21"><a xlink:href="ldebug_8c.html#ac1fc03c27ee46caa4037df2d70f22110" target="_top" xlink:title=" ">
<polygon fill="white" stroke="black" points="675.5,-114.5 675.5,-133.5 747.5,-133.5 747.5,-114.5 675.5,-114.5"/>
<text text-anchor="middle" x="711.5" y="-121.5" font-family="Helvetica,sans-Serif" font-size="10.00">lua_getstack</text>
</a>
</g>
</g>
<!-- Node4&#45;&gt;Node124 -->
<g id="edge21" class="edge"><title>Node4&#45;&gt;Node124</title>
<path fill="none" stroke="midnightblue" d="M326.677,-304.306C331.807,-277.844 349.901,-204.083 397,-170 477.163,-111.991 599.451,-112.791 665.09,-118.396"/>
<polygon fill="midnightblue" stroke="midnightblue" points="664.842,-121.887 675.123,-119.328 665.49,-114.918 664.842,-121.887"/>
</g>
<!-- Node125 -->
<g id="node22" class="node"><title>Node125</title>
<g id="a_node22"><a xlink:href="lauxlib_8c.html#a6c51d83d29244779392551388913e08a" target="_top" xlink:title=" ">
<polygon fill="white" stroke="black" points="420,-247.5 420,-266.5 479,-266.5 479,-247.5 420,-247.5"/>
<text text-anchor="middle" x="449.5" y="-254.5" font-family="Helvetica,sans-Serif" font-size="10.00">luaL_error</text>
</a>
</g>
</g>
<!-- Node4&#45;&gt;Node125 -->
<g id="edge22" class="edge"><title>Node4&#45;&gt;Node125</title>
<path fill="none" stroke="midnightblue" d="M345.671,-304.459C365.619,-295.253 396.034,-281.215 418.616,-270.793"/>
<polygon fill="midnightblue" stroke="midnightblue" points="420.149,-273.94 427.761,-266.572 417.215,-267.584 420.149,-273.94"/>
</g>
<!-- Node131 -->
<g id="node32" class="node"><title>Node131</title>
<g id="a_node32"><a xlink:href="lauxlib_8c.html#a4f35430f7ecfcbd5f507e550937046b4" target="_top" xlink:title=" ">
<polygon fill="white" stroke="black" points="397,-456.5 397,-475.5 502,-475.5 502,-456.5 397,-456.5"/>
<text text-anchor="middle" x="449.5" y="-463.5" font-family="Helvetica,sans-Serif" font-size="10.00">pushglobalfuncname</text>
</a>
</g>
</g>
<!-- Node4&#45;&gt;Node131 -->
<g id="edge37" class="edge"><title>Node4&#45;&gt;Node131</title>
<path fill="none" stroke="midnightblue" d="M332.725,-323.508C352.998,-348.46 407.961,-416.106 434.193,-448.392"/>
<polygon fill="midnightblue" stroke="midnightblue" points="431.755,-450.941 440.777,-456.495 437.188,-446.527 431.755,-450.941"/>
</g>
<!-- Node6 -->
<g id="node6" class="node"><title>Node6</title>
<g id="a_node6"><a xlink:href="ldebug_8c.html#ad72fa774194e83872bac4e5bf6ec1160" target="_top" xlink:title=" ">
<polygon fill="white" stroke="black" points="809,-171.5 809,-190.5 870,-190.5 870,-171.5 809,-171.5"/>
<text text-anchor="middle" x="839.5" y="-178.5" font-family="Helvetica,sans-Serif" font-size="10.00">auxgetinfo</text>
</a>
</g>
</g>
<!-- Node5&#45;&gt;Node6 -->
<g id="edge5" class="edge"><title>Node5&#45;&gt;Node6</title>
<path fill="none" stroke="midnightblue" d="M743.001,-181C759.683,-181 780.551,-181 798.522,-181"/>
<polygon fill="midnightblue" stroke="midnightblue" points="798.715,-184.5 808.715,-181 798.715,-177.5 798.715,-184.5"/>
</g>
<!-- Node19 -->
<g id="node13" class="node"><title>Node19</title>
<g id="a_node13"><a xlink:href="ldebug_8c.html#a6e3195fc94af1f75142c2801ca8cf058" target="_top" xlink:title=" ">
<polygon fill="white" stroke="black" points="797.5,-95.5 797.5,-114.5 881.5,-114.5 881.5,-95.5 797.5,-95.5"/>
<text text-anchor="middle" x="839.5" y="-102.5" font-family="Helvetica,sans-Serif" font-size="10.00">collectvalidlines</text>
</a>
</g>
</g>
<!-- Node5&#45;&gt;Node19 -->
<g id="edge13" class="edge"><title>Node5&#45;&gt;Node19</title>
<path fill="none" stroke="midnightblue" d="M728.458,-171.375C750.044,-158.355 788.748,-135.009 814.024,-119.764"/>
<polygon fill="midnightblue" stroke="midnightblue" points="815.916,-122.709 822.672,-114.547 812.301,-116.715 815.916,-122.709"/>
</g>
<!-- Node123 -->
<g id="node20" class="node"><title>Node123</title>
<g id="a_node20"><a xlink:href="ldebug_8c.html#a1f8af4428461705c53893e5ddb8b55aa" target="_top" xlink:title=" ">
<polygon fill="white" stroke="black" points="809,-209.5 809,-228.5 870,-228.5 870,-209.5 809,-209.5"/>
<text text-anchor="middle" x="839.5" y="-216.5" font-family="Helvetica,sans-Serif" font-size="10.00">swapextra</text>
</a>
</g>
</g>
<!-- Node5&#45;&gt;Node123 -->
<g id="edge20" class="edge"><title>Node5&#45;&gt;Node123</title>
<path fill="none" stroke="midnightblue" d="M743.001,-190.199C759.839,-195.277 780.942,-201.641 799.025,-207.095"/>
<polygon fill="midnightblue" stroke="midnightblue" points="798.13,-210.481 808.715,-210.017 800.151,-203.779 798.13,-210.481"/>
</g>
<!-- Node7 -->
<g id="node7" class="node"><title>Node7</title>
<g id="a_node7"><a xlink:href="ldebug_8c.html#a9834508872dae133075c7efe6404a9d8" target="_top" xlink:title=" ">
<polygon fill="white" stroke="black" points="927,-152.5 927,-171.5 989,-171.5 989,-152.5 927,-152.5"/>
<text text-anchor="middle" x="958" y="-159.5" font-family="Helvetica,sans-Serif" font-size="10.00">currentline</text>
</a>
</g>
</g>
<!-- Node6&#45;&gt;Node7 -->
<g id="edge6" class="edge"><title>Node6&#45;&gt;Node7</title>
<path fill="none" stroke="midnightblue" d="M870.199,-176.156C884.331,-173.852 901.441,-171.061 916.722,-168.569"/>
<polygon fill="midnightblue" stroke="midnightblue" points="917.644,-171.965 926.95,-166.901 916.517,-165.056 917.644,-171.965"/>
</g>
<!-- Node9 -->
<g id="node9" class="node"><title>Node9</title>
<g id="a_node9"><a xlink:href="ldebug_8c.html#a84af60873d130ffee87eb1721f3231e4" target="_top" xlink:title=" ">
<polygon fill="white" stroke="black" points="933,-190.5 933,-209.5 983,-209.5 983,-190.5 933,-190.5"/>
<text text-anchor="middle" x="958" y="-197.5" font-family="Helvetica,sans-Serif" font-size="10.00">funcinfo</text>
</a>
</g>
</g>
<!-- Node6&#45;&gt;Node9 -->
<g id="edge8" class="edge"><title>Node6&#45;&gt;Node9</title>
<path fill="none" stroke="midnightblue" d="M870.199,-185.844C886.278,-188.466 906.211,-191.717 922.92,-194.442"/>
<polygon fill="midnightblue" stroke="midnightblue" points="922.41,-197.905 932.843,-196.06 923.537,-190.996 922.41,-197.905"/>
</g>
<!-- Node11 -->
<g id="node11" class="node"><title>Node11</title>
<g id="a_node11"><a xlink:href="ldebug_8c.html#a118ab79b6b538a857353e4b9259667e1" target="_top" xlink:title=" ">
<polygon fill="white" stroke="black" points="922,-228.5 922,-247.5 994,-247.5 994,-228.5 922,-228.5"/>
<text text-anchor="middle" x="958" y="-235.5" font-family="Helvetica,sans-Serif" font-size="10.00">getfuncname</text>
</a>
</g>
</g>
<!-- Node6&#45;&gt;Node11 -->
<g id="edge10" class="edge"><title>Node6&#45;&gt;Node11</title>
<path fill="none" stroke="midnightblue" d="M864.776,-190.632C871.693,-193.512 879.196,-196.768 886,-200 890.49,-202.133 911.901,-213.623 930.049,-223.415"/>
<polygon fill="midnightblue" stroke="midnightblue" points="928.672,-226.65 939.134,-228.323 931.999,-220.491 928.672,-226.65"/>
</g>
<!-- Node8 -->
<g id="node8" class="node"><title>Node8</title>
<g id="a_node8"><a xlink:href="ldebug_8c.html#a7db2a3f5cbcf0ac3ef6d4cfa15ab4dbc" target="_top" xlink:title=" ">
<polygon fill="white" stroke="black" points="1164,-190.5 1164,-209.5 1221,-209.5 1221,-190.5 1164,-190.5"/>
<text text-anchor="middle" x="1192.5" y="-197.5" font-family="Helvetica,sans-Serif" font-size="10.00">currentpc</text>
</a>
</g>
</g>
<!-- Node7&#45;&gt;Node8 -->
<g id="edge7" class="edge"><title>Node7&#45;&gt;Node8</title>
<path fill="none" stroke="midnightblue" d="M989.171,-163.759C1023.18,-166.119 1079.98,-171.198 1128,-181 1136.59,-182.753 1145.69,-185.146 1154.24,-187.642"/>
<polygon fill="midnightblue" stroke="midnightblue" points="1153.37,-191.035 1163.95,-190.587 1155.4,-184.337 1153.37,-191.035"/>
</g>
<!-- Node10 -->
<g id="node10" class="node"><title>Node10</title>
<g id="a_node10"><a xlink:href="lobject_8c.html#a4708cca3615b7fafb7ea4631f486983b" target="_top" xlink:title=" ">
<polygon fill="white" stroke="black" points="1041,-190.5 1041,-209.5 1117,-209.5 1117,-190.5 1041,-190.5"/>
<text text-anchor="middle" x="1079" y="-197.5" font-family="Helvetica,sans-Serif" font-size="10.00">luaO_chunkid</text>
</a>
</g>
</g>
<!-- Node9&#45;&gt;Node10 -->
<g id="edge9" class="edge"><title>Node9&#45;&gt;Node10</title>
<path fill="none" stroke="midnightblue" d="M983.081,-200C996.675,-200 1014.15,-200 1030.39,-200"/>
<polygon fill="midnightblue" stroke="midnightblue" points="1030.83,-203.5 1040.83,-200 1030.83,-196.5 1030.83,-203.5"/>
</g>
<!-- Node12 -->
<g id="node12" class="node"><title>Node12</title>
<g id="a_node12"><a xlink:href="ldebug_8c.html#aa4c19bd41574279b6de1a01e01186f14" target="_top" xlink:title=" ">
<polygon fill="white" stroke="red" points="1030,-228.5 1030,-247.5 1128,-247.5 1128,-228.5 1030,-228.5"/>
<text text-anchor="middle" x="1079" y="-235.5" font-family="Helvetica,sans-Serif" font-size="10.00">funcnamefromcode</text>
</a>
</g>
</g>
<!-- Node11&#45;&gt;Node12 -->
<g id="edge11" class="edge"><title>Node11&#45;&gt;Node12</title>
<path fill="none" stroke="midnightblue" d="M994.06,-238C1002.14,-238 1010.95,-238 1019.72,-238"/>
<polygon fill="midnightblue" stroke="midnightblue" points="1019.96,-241.5 1029.96,-238 1019.96,-234.5 1019.96,-241.5"/>
</g>
<!-- Node12&#45;&gt;Node8 -->
<g id="edge12" class="edge"><title>Node12&#45;&gt;Node8</title>
<path fill="none" stroke="midnightblue" d="M1108.14,-228.411C1122.11,-223.65 1139.17,-217.833 1154.22,-212.706"/>
<polygon fill="midnightblue" stroke="midnightblue" points="1155.42,-215.993 1163.76,-209.454 1153.16,-209.367 1155.42,-215.993"/>
</g>
<!-- Node20 -->
<g id="node14" class="node"><title>Node20</title>
<g id="a_node14"><a xlink:href="ltable_8c.html#a6c97fb2d6a020b0a6f852562fef93d97" target="_top" xlink:title=" ">
<polygon fill="white" stroke="black" points="928.5,-95.5 928.5,-114.5 987.5,-114.5 987.5,-95.5 928.5,-95.5"/>
<text text-anchor="middle" x="958" y="-102.5" font-family="Helvetica,sans-Serif" font-size="10.00">luaH_new</text>
</a>
</g>
</g>
<!-- Node19&#45;&gt;Node20 -->
<g id="edge14" class="edge"><title>Node19&#45;&gt;Node20</title>
<path fill="none" stroke="midnightblue" d="M881.574,-105C893.531,-105 906.549,-105 918.352,-105"/>
<polygon fill="midnightblue" stroke="midnightblue" points="918.354,-108.5 928.354,-105 918.354,-101.5 918.354,-108.5"/>
</g>
<!-- Node94 -->
<g id="node17" class="node"><title>Node94</title>
<g id="a_node17"><a xlink:href="ltable_8c.html#a9eefa8191c63f55cffb6b7b58217467c" target="_top" xlink:title=" ">
<polygon fill="white" stroke="black" points="925.5,-38.5 925.5,-57.5 990.5,-57.5 990.5,-38.5 925.5,-38.5"/>
<text text-anchor="middle" x="958" y="-45.5" font-family="Helvetica,sans-Serif" font-size="10.00">luaH_setint</text>
</a>
</g>
</g>
<!-- Node19&#45;&gt;Node94 -->
<g id="edge17" class="edge"><title>Node19&#45;&gt;Node94</title>
<path fill="none" stroke="midnightblue" d="M859.999,-95.4595C878.649,-86.335 906.996,-72.4656 928.238,-62.0726"/>
<polygon fill="midnightblue" stroke="midnightblue" points="929.993,-65.1104 937.437,-57.5716 926.916,-58.8227 929.993,-65.1104"/>
</g>
<!-- Node21 -->
<g id="node15" class="node"><title>Node21</title>
<g id="a_node15"><a xlink:href="lgc_8c.html#abfc8404c5fbd2a1770202fa0b087d451" target="_top" xlink:title=" ">
<polygon fill="white" stroke="black" points="1043.5,-114.5 1043.5,-133.5 1114.5,-133.5 1114.5,-114.5 1043.5,-114.5"/>
<text text-anchor="middle" x="1079" y="-121.5" font-family="Helvetica,sans-Serif" font-size="10.00">luaC_newobj</text>
</a>
</g>
</g>
<!-- Node20&#45;&gt;Node21 -->
<g id="edge15" class="edge"><title>Node20&#45;&gt;Node21</title>
<path fill="none" stroke="midnightblue" d="M987.503,-109.551C1001.14,-111.727 1017.78,-114.385 1033.06,-116.824"/>
<polygon fill="midnightblue" stroke="midnightblue" points="1032.94,-120.349 1043.36,-118.47 1034.04,-113.437 1032.94,-120.349"/>
</g>
<!-- Node22 -->
<g id="node16" class="node"><title>Node22</title>
<g id="a_node16"><a xlink:href="ltable_8c.html#aee50b49395de01da3f8e14608f400108" target="_top" xlink:title=" ">
<polygon fill="white" stroke="red" points="1040.5,-76.5 1040.5,-95.5 1117.5,-95.5 1117.5,-76.5 1040.5,-76.5"/>
<text text-anchor="middle" x="1079" y="-83.5" font-family="Helvetica,sans-Serif" font-size="10.00">setnodevector</text>
</a>
</g>
</g>
<!-- Node20&#45;&gt;Node22 -->
<g id="edge16" class="edge"><title>Node20&#45;&gt;Node22</title>
<path fill="none" stroke="midnightblue" d="M987.503,-100.449C1000.23,-98.4172 1015.58,-95.9662 1029.99,-93.6647"/>
<polygon fill="midnightblue" stroke="midnightblue" points="1030.95,-97.0563 1040.27,-92.0233 1029.85,-90.1439 1030.95,-97.0563"/>
</g>
<!-- Node84 -->
<g id="node18" class="node"><title>Node84</title>
<g id="a_node18"><a xlink:href="ltable_8c.html#ae142cefd44452389877c3e3187c7973e" target="_top" xlink:title=" ">
<polygon fill="white" stroke="black" points="1046.5,-38.5 1046.5,-57.5 1111.5,-57.5 1111.5,-38.5 1046.5,-38.5"/>
<text text-anchor="middle" x="1079" y="-45.5" font-family="Helvetica,sans-Serif" font-size="10.00">luaH_getint</text>
</a>
</g>
</g>
<!-- Node94&#45;&gt;Node84 -->
<g id="edge18" class="edge"><title>Node94&#45;&gt;Node84</title>
<path fill="none" stroke="midnightblue" d="M990.577,-48C1004.56,-48 1021.21,-48 1036.21,-48"/>
<polygon fill="midnightblue" stroke="midnightblue" points="1036.28,-51.5001 1046.28,-48 1036.28,-44.5001 1036.28,-51.5001"/>
</g>
<!-- Node85 -->
<g id="node19" class="node"><title>Node85</title>
<g id="a_node19"><a xlink:href="ltable_8c.html#acd27c97015f505846bd7052b144f3133" target="_top" xlink:title=" ">
<polygon fill="white" stroke="red" points="1042,-0.5 1042,-19.5 1116,-19.5 1116,-0.5 1042,-0.5"/>
<text text-anchor="middle" x="1079" y="-7.5" font-family="Helvetica,sans-Serif" font-size="10.00">luaH_newkey</text>
</a>
</g>
</g>
<!-- Node94&#45;&gt;Node85 -->
<g id="edge19" class="edge"><title>Node94&#45;&gt;Node85</title>
<path fill="none" stroke="midnightblue" d="M989.029,-38.411C1003.97,-33.6406 1022.22,-27.8112 1038.3,-22.6771"/>
<polygon fill="midnightblue" stroke="midnightblue" points="1039.52,-25.9621 1047.98,-19.5859 1037.39,-19.2938 1039.52,-25.9621"/>
</g>
<!-- Node126 -->
<g id="node23" class="node"><title>Node126</title>
<g id="a_node23"><a xlink:href="lapi_8c.html#a1de3afee1daece63d455f23818c883d9" target="_top" xlink:title=" ">
<polygon fill="white" stroke="black" points="807.5,-323.5 807.5,-342.5 871.5,-342.5 871.5,-323.5 807.5,-323.5"/>
<text text-anchor="middle" x="839.5" y="-330.5" font-family="Helvetica,sans-Serif" font-size="10.00">lua_concat</text>
</a>
</g>
</g>
<!-- Node125&#45;&gt;Node126 -->
<g id="edge23" class="edge"><title>Node125&#45;&gt;Node126</title>
<path fill="none" stroke="midnightblue" d="M476.63,-247.448C531.51,-229.032 661.571,-194.134 757,-238 791.055,-253.654 816.216,-291.337 829.01,-314.26"/>
<polygon fill="midnightblue" stroke="midnightblue" points="826.066,-316.177 833.865,-323.348 832.24,-312.878 826.066,-316.177"/>
</g>
<!-- Node127 -->
<g id="node26" class="node"><title>Node127</title>
<g id="a_node26"><a xlink:href="lapi_8c.html#a6ba7b91143fe8a03910420d800de8e97" target="_top" xlink:title=" ">
<polygon fill="white" stroke="black" points="557,-247.5 557,-266.5 611,-266.5 611,-247.5 557,-247.5"/>
<text text-anchor="middle" x="584" y="-254.5" font-family="Helvetica,sans-Serif" font-size="10.00">lua_error</text>
</a>
</g>
</g>
<!-- Node125&#45;&gt;Node127 -->
<g id="edge27" class="edge"><title>Node125&#45;&gt;Node127</title>
<path fill="none" stroke="midnightblue" d="M479.251,-257C498.914,-257 525.15,-257 546.318,-257"/>
<polygon fill="midnightblue" stroke="midnightblue" points="546.557,-260.5 556.557,-257 546.557,-253.5 546.557,-260.5"/>
</g>
<!-- Node128 -->
<g id="node28" class="node"><title>Node128</title>
<g id="a_node28"><a xlink:href="lapi_8c.html#a426c9cb1d582be3e43060c4772854e5a" target="_top" xlink:title=" ">
<polygon fill="white" stroke="black" points="541,-323.5 541,-342.5 627,-342.5 627,-323.5 541,-323.5"/>
<text text-anchor="middle" x="584" y="-330.5" font-family="Helvetica,sans-Serif" font-size="10.00">lua_pushvfstring</text>
</a>
</g>
</g>
<!-- Node125&#45;&gt;Node128 -->
<g id="edge29" class="edge"><title>Node125&#45;&gt;Node128</title>
<path fill="none" stroke="midnightblue" d="M467.281,-266.625C490.08,-279.703 531.038,-303.196 557.61,-318.437"/>
<polygon fill="midnightblue" stroke="midnightblue" points="555.939,-321.513 566.355,-323.453 559.422,-315.441 555.939,-321.513"/>
</g>
<!-- Node129 -->
<g id="node30" class="node"><title>Node129</title>
<g id="a_node30"><a xlink:href="lauxlib_8c.html#a0f4d3c30c07eae36aa25605df84279a0" target="_top" xlink:title=" ">
<polygon fill="white" stroke="black" points="551.5,-171.5 551.5,-190.5 616.5,-190.5 616.5,-171.5 551.5,-171.5"/>
<text text-anchor="middle" x="584" y="-178.5" font-family="Helvetica,sans-Serif" font-size="10.00">luaL_where</text>
</a>
</g>
</g>
<!-- Node125&#45;&gt;Node129 -->
<g id="edge32" class="edge"><title>Node125&#45;&gt;Node129</title>
<path fill="none" stroke="midnightblue" d="M466.179,-247.385C483.591,-236.777 512.597,-219.312 538,-205 543.67,-201.806 549.793,-198.467 555.643,-195.331"/>
<polygon fill="midnightblue" stroke="midnightblue" points="557.319,-198.403 564.504,-190.618 554.032,-192.223 557.319,-198.403"/>
</g>
<!-- Node29 -->
<g id="node24" class="node"><title>Node29</title>
<g id="a_node24"><a xlink:href="lstring_8c.html#ab41fb084ce3ea5e2779f6659ccc2484d" target="_top" xlink:title=" ">
<polygon fill="white" stroke="red" points="1043,-361.5 1043,-380.5 1115,-380.5 1115,-361.5 1043,-361.5"/>
<text text-anchor="middle" x="1079" y="-368.5" font-family="Helvetica,sans-Serif" font-size="10.00">luaS_newlstr</text>
</a>
</g>
</g>
<!-- Node126&#45;&gt;Node29 -->
<g id="edge24" class="edge"><title>Node126&#45;&gt;Node29</title>
<path fill="none" stroke="midnightblue" d="M871.505,-335.925C902.604,-339.072 951.808,-344.636 994,-352 1006.67,-354.211 1020.31,-357.081 1032.83,-359.918"/>
<polygon fill="midnightblue" stroke="midnightblue" points="1032.07,-363.333 1042.6,-362.172 1033.64,-356.513 1032.07,-363.333"/>
</g>
<!-- Node37 -->
<g id="node25" class="node"><title>Node37</title>
<g id="a_node25"><a xlink:href="lvm_8c.html#a2f076040af405dcb50d661edd692eca7" target="_top" xlink:title=" ">
<polygon fill="white" stroke="red" points="922.5,-361.5 922.5,-380.5 993.5,-380.5 993.5,-361.5 922.5,-361.5"/>
<text text-anchor="middle" x="958" y="-368.5" font-family="Helvetica,sans-Serif" font-size="10.00">luaV_concat</text>
</a>
</g>
</g>
<!-- Node126&#45;&gt;Node37 -->
<g id="edge25" class="edge"><title>Node126&#45;&gt;Node37</title>
<path fill="none" stroke="midnightblue" d="M869.898,-342.589C884.385,-347.314 902.058,-353.079 917.689,-358.177"/>
<polygon fill="midnightblue" stroke="midnightblue" points="917.019,-361.64 927.612,-361.414 919.19,-354.986 917.019,-361.64"/>
</g>
<!-- Node37&#45;&gt;Node29 -->
<g id="edge26" class="edge"><title>Node37&#45;&gt;Node29</title>
<path fill="none" stroke="midnightblue" d="M993.74,-371C1005.87,-371 1019.66,-371 1032.53,-371"/>
<polygon fill="midnightblue" stroke="midnightblue" points="1032.6,-374.5 1042.6,-371 1032.6,-367.5 1032.6,-374.5"/>
</g>
<!-- Node122 -->
<g id="node27" class="node"><title>Node122</title>
<g id="a_node27"><a xlink:href="ldebug_8c.html#af7366920f8408bb33ed01b1d6c0e1238" target="_top" xlink:title=" ">
<polygon fill="white" stroke="red" points="671.5,-247.5 671.5,-266.5 751.5,-266.5 751.5,-247.5 671.5,-247.5"/>
<text text-anchor="middle" x="711.5" y="-254.5" font-family="Helvetica,sans-Serif" font-size="10.00">luaG_errormsg</text>
</a>
</g>
</g>
<!-- Node127&#45;&gt;Node122 -->
<g id="edge28" class="edge"><title>Node127&#45;&gt;Node122</title>
<path fill="none" stroke="midnightblue" d="M611.004,-257C625.392,-257 643.76,-257 660.789,-257"/>
<polygon fill="midnightblue" stroke="midnightblue" points="661.17,-260.5 671.17,-257 661.17,-253.5 661.17,-260.5"/>
</g>
<!-- Node26 -->
<g id="node29" class="node"><title>Node26</title>
<g id="a_node29"><a xlink:href="lobject_8c.html#aa83fa444a36d79521e846a766fa083d5" target="_top" xlink:title=" ">
<polygon fill="white" stroke="red" points="793,-361.5 793,-380.5 886,-380.5 886,-361.5 793,-361.5"/>
<text text-anchor="middle" x="839.5" y="-368.5" font-family="Helvetica,sans-Serif" font-size="10.00">luaO_pushvfstring</text>
</a>
</g>
</g>
<!-- Node128&#45;&gt;Node26 -->
<g id="edge30" class="edge"><title>Node128&#45;&gt;Node26</title>
<path fill="none" stroke="midnightblue" d="M627.145,-339.318C669.773,-345.708 735.899,-355.62 782.822,-362.654"/>
<polygon fill="midnightblue" stroke="midnightblue" points="782.416,-366.132 792.824,-364.153 783.453,-359.209 782.416,-366.132"/>
</g>
<!-- Node26&#45;&gt;Node37 -->
<g id="edge31" class="edge"><title>Node26&#45;&gt;Node37</title>
<path fill="none" stroke="midnightblue" d="M886.21,-371C894.73,-371 903.625,-371 912.12,-371"/>
<polygon fill="midnightblue" stroke="midnightblue" points="912.231,-374.5 922.231,-371 912.231,-367.5 912.231,-374.5"/>
</g>
<!-- Node129&#45;&gt;Node5 -->
<g id="edge33" class="edge"><title>Node129&#45;&gt;Node5</title>
<path fill="none" stroke="midnightblue" d="M616.669,-181C632.664,-181 652.265,-181 669.407,-181"/>
<polygon fill="midnightblue" stroke="midnightblue" points="669.709,-184.5 679.709,-181 669.709,-177.5 669.709,-184.5"/>
</g>
<!-- Node129&#45;&gt;Node124 -->
<g id="edge34" class="edge"><title>Node129&#45;&gt;Node124</title>
<path fill="none" stroke="midnightblue" d="M606.006,-171.459C626.277,-162.253 657.184,-148.215 680.132,-137.793"/>
<polygon fill="midnightblue" stroke="midnightblue" points="681.768,-140.894 689.426,-133.572 678.873,-134.52 681.768,-140.894"/>
</g>
<!-- Node130 -->
<g id="node31" class="node"><title>Node130</title>
<g id="a_node31"><a xlink:href="lapi_8c.html#ab190c226d38b289e6ca57683a9d4e0f0" target="_top" xlink:title=" ">
<polygon fill="white" stroke="black" points="670.5,-285.5 670.5,-304.5 752.5,-304.5 752.5,-285.5 670.5,-285.5"/>
<text text-anchor="middle" x="711.5" y="-292.5" font-family="Helvetica,sans-Serif" font-size="10.00">lua_pushfstring</text>
</a>
</g>
</g>
<!-- Node129&#45;&gt;Node130 -->
<g id="edge35" class="edge"><title>Node129&#45;&gt;Node130</title>
<path fill="none" stroke="midnightblue" d="M592.838,-190.692C611.398,-213.565 657.139,-269.483 666,-276 668.347,-277.726 670.876,-279.334 673.493,-280.823"/>
<polygon fill="midnightblue" stroke="midnightblue" points="672.095,-284.038 682.598,-285.43 675.255,-277.792 672.095,-284.038"/>
</g>
<!-- Node130&#45;&gt;Node26 -->
<g id="edge36" class="edge"><title>Node130&#45;&gt;Node26</title>
<path fill="none" stroke="midnightblue" d="M724.226,-304.563C739.433,-316.661 767.085,-337.645 793,-352 796.262,-353.807 799.732,-355.549 803.243,-357.196"/>
<polygon fill="midnightblue" stroke="midnightblue" points="801.964,-360.458 812.524,-361.313 804.803,-354.059 801.964,-360.458"/>
</g>
<!-- Node131&#45;&gt;Node5 -->
<g id="edge54" class="edge"><title>Node131&#45;&gt;Node5</title>
<path fill="none" stroke="midnightblue" d="M453.553,-456.378C462.382,-430.006 490.389,-355.765 538,-314 571.257,-284.826 594.247,-302.055 630,-276 645.56,-264.66 678.44,-223.108 697.004,-198.877"/>
<polygon fill="midnightblue" stroke="midnightblue" points="699.864,-200.898 703.137,-190.821 694.295,-196.657 699.864,-200.898"/>
</g>
<!-- Node132 -->
<g id="node33" class="node"><title>Node132</title>
<g id="a_node33"><a xlink:href="lauxlib_8c.html#a36c8f149b779f8c9a5c042ea9784d80a" target="_top" xlink:title=" ">
<polygon fill="white" stroke="black" points="559.5,-437.5 559.5,-456.5 608.5,-456.5 608.5,-437.5 559.5,-437.5"/>
<text text-anchor="middle" x="584" y="-444.5" font-family="Helvetica,sans-Serif" font-size="10.00">findfield</text>
</a>
</g>
</g>
<!-- Node131&#45;&gt;Node132 -->
<g id="edge38" class="edge"><title>Node131&#45;&gt;Node132</title>
<path fill="none" stroke="midnightblue" d="M502.107,-458.6C518.012,-456.319 535.101,-453.869 549.456,-451.81"/>
<polygon fill="midnightblue" stroke="midnightblue" points="549.967,-455.273 559.369,-450.389 548.973,-448.344 549.967,-455.273"/>
</g>
<!-- Node139 -->
<g id="node38" class="node"><title>Node139</title>
<g id="a_node38"><a xlink:href="lapi_8c.html#a111bd3fa34fe656f415edae5e343e13e" target="_top" xlink:title=" ">
<polygon fill="white" stroke="black" points="556,-399.5 556,-418.5 612,-418.5 612,-399.5 556,-399.5"/>
<text text-anchor="middle" x="584" y="-406.5" font-family="Helvetica,sans-Serif" font-size="10.00">lua_copy</text>
</a>
</g>
</g>
<!-- Node131&#45;&gt;Node139 -->
<g id="edge47" class="edge"><title>Node131&#45;&gt;Node139</title>
<path fill="none" stroke="midnightblue" d="M472.409,-456.412C490.091,-448.691 515.62,-437.584 538,-428 542.146,-426.224 546.512,-424.366 550.827,-422.537"/>
<polygon fill="midnightblue" stroke="midnightblue" points="552.241,-425.739 560.088,-418.621 549.515,-419.292 552.241,-425.739"/>
</g>
<!-- Node140 -->
<g id="node39" class="node"><title>Node140</title>
<g id="a_node39"><a xlink:href="lapi_8c.html#a8b47f1b5685c3f8018ba926abb99af24" target="_top" xlink:title=" ">
<polygon fill="white" stroke="black" points="551.5,-589.5 551.5,-608.5 616.5,-608.5 616.5,-589.5 551.5,-589.5"/>
<text text-anchor="middle" x="584" y="-596.5" font-family="Helvetica,sans-Serif" font-size="10.00">lua_getfield</text>
</a>
</g>
</g>
<!-- Node131&#45;&gt;Node140 -->
<g id="edge49" class="edge"><title>Node131&#45;&gt;Node140</title>
<path fill="none" stroke="midnightblue" d="M460.029,-475.565C482.267,-497.887 537.834,-553.664 566.025,-581.961"/>
<polygon fill="midnightblue" stroke="midnightblue" points="563.662,-584.549 573.2,-589.163 568.622,-579.608 563.662,-584.549"/>
</g>
<!-- Node142 -->
<g id="node42" class="node"><title>Node142</title>
<g id="a_node42"><a xlink:href="lapi_8c.html#afbb08ecb69421875494105d4de68e5bf" target="_top" xlink:title=" ">
<polygon fill="white" stroke="black" points="553,-513.5 553,-532.5 615,-532.5 615,-513.5 553,-513.5"/>
<text text-anchor="middle" x="584" y="-520.5" font-family="Helvetica,sans-Serif" font-size="10.00">lua_gettop</text>
</a>
</g>
</g>
<!-- Node131&#45;&gt;Node142 -->
<g id="edge55" class="edge"><title>Node131&#45;&gt;Node142</title>
<path fill="none" stroke="midnightblue" d="M472.409,-475.588C490.091,-483.309 515.62,-494.416 538,-504 542.146,-505.776 546.512,-507.634 550.827,-509.463"/>
<polygon fill="midnightblue" stroke="midnightblue" points="549.515,-512.708 560.088,-513.379 552.241,-506.261 549.515,-512.708"/>
</g>
<!-- Node143 -->
<g id="node43" class="node"><title>Node143</title>
<g id="a_node43"><a xlink:href="lapi_8c.html#a771d300f2e64b2197d1df9bf31660ebf" target="_top" xlink:title=" ">
<polygon fill="white" stroke="black" points="671.5,-741.5 671.5,-760.5 751.5,-760.5 751.5,-741.5 671.5,-741.5"/>
<text text-anchor="middle" x="711.5" y="-748.5" font-family="Helvetica,sans-Serif" font-size="10.00">lua_pushstring</text>
</a>
</g>
</g>
<!-- Node131&#45;&gt;Node143 -->
<g id="edge56" class="edge"><title>Node131&#45;&gt;Node143</title>
<path fill="none" stroke="midnightblue" d="M451.036,-475.887C453.552,-512.154 467.274,-639.129 538,-704 571.454,-734.685 622.983,-745.649 661.017,-749.411"/>
<polygon fill="midnightblue" stroke="midnightblue" points="661.1,-752.93 671.36,-750.291 661.693,-745.956 661.1,-752.93"/>
</g>
<!-- Node144 -->
<g id="node44" class="node"><title>Node144</title>
<g id="a_node44"><a xlink:href="lapi_8c.html#adaa30f0d34786144c94644039d1d1b6e" target="_top" xlink:title=" ">
<polygon fill="white" stroke="black" points="553,-475.5 553,-494.5 615,-494.5 615,-475.5 553,-475.5"/>
<text text-anchor="middle" x="584" y="-482.5" font-family="Helvetica,sans-Serif" font-size="10.00">lua_settop</text>
</a>
</g>
</g>
<!-- Node131&#45;&gt;Node144 -->
<g id="edge58" class="edge"><title>Node131&#45;&gt;Node144</title>
<path fill="none" stroke="midnightblue" d="M502.107,-473.4C515.639,-475.341 530.028,-477.404 542.861,-479.244"/>
<polygon fill="midnightblue" stroke="midnightblue" points="542.378,-482.711 552.773,-480.666 543.371,-475.781 542.378,-482.711"/>
</g>
<!-- Node132&#45;&gt;Node126 -->
<g id="edge39" class="edge"><title>Node132&#45;&gt;Node126</title>
<path fill="none" stroke="midnightblue" d="M607.963,-437.496C615.052,-434.511 622.87,-431.166 630,-428 703.053,-395.56 719.883,-384.296 793,-352 796.964,-350.249 801.14,-348.448 805.288,-346.684"/>
<polygon fill="midnightblue" stroke="midnightblue" points="806.946,-349.784 814.807,-342.68 804.232,-343.331 806.946,-349.784"/>
</g>
<!-- Node133 -->
<g id="node34" class="node"><title>Node133</title>
<g id="a_node34"><a xlink:href="lapi_8c.html#aa8bf464b98335a075732200ad91ce1de" target="_top" xlink:title=" ">
<polygon fill="white" stroke="red" points="685,-475.5 685,-494.5 738,-494.5 738,-475.5 685,-475.5"/>
<text text-anchor="middle" x="711.5" y="-482.5" font-family="Helvetica,sans-Serif" font-size="10.00">lua_next</text>
</a>
</g>
</g>
<!-- Node132&#45;&gt;Node133 -->
<g id="edge40" class="edge"><title>Node132&#45;&gt;Node133</title>
<path fill="none" stroke="midnightblue" d="M608.606,-454.148C627.362,-459.827 653.889,-467.859 675.174,-474.304"/>
<polygon fill="midnightblue" stroke="midnightblue" points="674.255,-477.682 684.841,-477.231 676.284,-470.983 674.255,-477.682"/>
</g>
<!-- Node136 -->
<g id="node35" class="node"><title>Node136</title>
<g id="a_node35"><a xlink:href="lapi_8c.html#a1b4cd0d80f51e5545a97ca6c28c03c50" target="_top" xlink:title=" ">
<polygon fill="white" stroke="black" points="679,-513.5 679,-532.5 744,-532.5 744,-513.5 679,-513.5"/>
<text text-anchor="middle" x="711.5" y="-520.5" font-family="Helvetica,sans-Serif" font-size="10.00">lua_pushnil</text>
</a>
</g>
</g>
<!-- Node132&#45;&gt;Node136 -->
<g id="edge42" class="edge"><title>Node132&#45;&gt;Node136</title>
<path fill="none" stroke="midnightblue" d="M608.846,-454.931C615.972,-457.853 623.587,-461.556 630,-466 649.122,-479.25 646.904,-490.711 666,-504 668.538,-505.766 671.267,-507.418 674.078,-508.95"/>
<polygon fill="midnightblue" stroke="midnightblue" points="672.691,-512.168 683.209,-513.438 675.779,-505.886 672.691,-512.168"/>
</g>
<!-- Node137 -->
<g id="node36" class="node"><title>Node137</title>
<g id="a_node36"><a xlink:href="lapi_8c.html#ace66ea78ced7fda0b367f45d09d10d83" target="_top" xlink:title=" ">
<polygon fill="white" stroke="black" points="675,-437.5 675,-456.5 748,-456.5 748,-437.5 675,-437.5"/>
<text text-anchor="middle" x="711.5" y="-444.5" font-family="Helvetica,sans-Serif" font-size="10.00">lua_rawequal</text>
</a>
</g>
</g>
<!-- Node132&#45;&gt;Node137 -->
<g id="edge43" class="edge"><title>Node132&#45;&gt;Node137</title>
<path fill="none" stroke="midnightblue" d="M608.606,-447C624.302,-447 645.439,-447 664.393,-447"/>
<polygon fill="midnightblue" stroke="midnightblue" points="664.65,-450.5 674.65,-447 664.65,-443.5 664.65,-450.5"/>
</g>
<!-- Node138 -->
<g id="node37" class="node"><title>Node138</title>
<g id="a_node37"><a xlink:href="lapi_8c.html#a652b273947f0656686f998d8e90cd3ea" target="_top" xlink:title=" ">
<polygon fill="white" stroke="black" points="685,-551.5 685,-570.5 738,-570.5 738,-551.5 685,-551.5"/>
<text text-anchor="middle" x="711.5" y="-558.5" font-family="Helvetica,sans-Serif" font-size="10.00">lua_type</text>
</a>
</g>
</g>
<!-- Node132&#45;&gt;Node138 -->
<g id="edge45" class="edge"><title>Node132&#45;&gt;Node138</title>
<path fill="none" stroke="midnightblue" d="M608.873,-453.388C616.324,-456.288 624.121,-460.368 630,-466 656.989,-491.856 639.063,-516.09 666,-542 668.766,-544.661 671.962,-546.977 675.347,-548.987"/>
<polygon fill="midnightblue" stroke="midnightblue" points="674.072,-552.263 684.58,-553.618 677.21,-546.006 674.072,-552.263"/>
</g>
<!-- Node133&#45;&gt;Node3 -->
<g id="edge41" class="edge"><title>Node133&#45;&gt;Node3</title>
<path fill="none" stroke="midnightblue" d="M738.227,-494.193C744.586,-496.942 751.227,-500.242 757,-504 782.918,-520.87 808.244,-546.303 823.613,-563.028"/>
<polygon fill="midnightblue" stroke="midnightblue" points="821.021,-565.38 830.316,-570.464 826.22,-560.693 821.021,-565.38"/>
</g>
<!-- Node137&#45;&gt;Node3 -->
<g id="edge44" class="edge"><title>Node137&#45;&gt;Node3</title>
<path fill="none" stroke="midnightblue" d="M741.578,-456.682C747.012,-459.228 752.416,-462.317 757,-466 790.339,-492.786 816.32,-536.536 829.328,-561.324"/>
<polygon fill="midnightblue" stroke="midnightblue" points="826.293,-563.076 833.952,-570.396 832.529,-559.897 826.293,-563.076"/>
</g>
<!-- Node138&#45;&gt;Node3 -->
<g id="edge46" class="edge"><title>Node138&#45;&gt;Node3</title>
<path fill="none" stroke="midnightblue" d="M738.302,-564.891C755.268,-567.449 777.842,-570.853 797.268,-573.782"/>
<polygon fill="midnightblue" stroke="midnightblue" points="796.975,-577.278 807.386,-575.308 798.019,-570.356 796.975,-577.278"/>
</g>
<!-- Node139&#45;&gt;Node3 -->
<g id="edge48" class="edge"><title>Node139&#45;&gt;Node3</title>
<path fill="none" stroke="midnightblue" d="M612.058,-404.733C648.323,-400.515 713.191,-398.393 757,-428 803.807,-459.633 825.889,-527.201 834.266,-560.553"/>
<polygon fill="midnightblue" stroke="midnightblue" points="830.898,-561.52 836.598,-570.451 837.711,-559.915 830.898,-561.52"/>
</g>
<!-- Node140&#45;&gt;Node3 -->
<g id="edge53" class="edge"><title>Node140&#45;&gt;Node3</title>
<path fill="none" stroke="midnightblue" d="M616.593,-596.632C662.193,-593.214 746.513,-586.894 797.058,-583.106"/>
<polygon fill="midnightblue" stroke="midnightblue" points="797.594,-586.576 807.305,-582.338 797.071,-579.595 797.594,-586.576"/>
</g>
<!-- Node141 -->
<g id="node40" class="node"><title>Node141</title>
<g id="a_node40"><a xlink:href="lapi_8c.html#a1b28b3a312121ffb29541632648b9f78" target="_top" xlink:title=" ">
<polygon fill="white" stroke="red" points="683,-627.5 683,-646.5 740,-646.5 740,-627.5 683,-627.5"/>
<text text-anchor="middle" x="711.5" y="-634.5" font-family="Helvetica,sans-Serif" font-size="10.00">auxgetstr</text>
</a>
</g>
</g>
<!-- Node140&#45;&gt;Node141 -->
<g id="edge50" class="edge"><title>Node140&#45;&gt;Node141</title>
<path fill="none" stroke="midnightblue" d="M616.669,-608.589C633.824,-613.783 655.125,-620.233 673.094,-625.674"/>
<polygon fill="midnightblue" stroke="midnightblue" points="672.101,-629.03 682.686,-628.578 674.13,-622.331 672.101,-629.03"/>
</g>
<!-- Node44 -->
<g id="node41" class="node"><title>Node44</title>
<g id="a_node41"><a xlink:href="lstring_8c.html#a6d47e53be6b8e58202bb927752f4824b" target="_top" xlink:title=" ">
<polygon fill="white" stroke="black" points="810,-627.5 810,-646.5 869,-646.5 869,-627.5 810,-627.5"/>
<text text-anchor="middle" x="839.5" y="-634.5" font-family="Helvetica,sans-Serif" font-size="10.00">luaS_new</text>
</a>
</g>
</g>
<!-- Node141&#45;&gt;Node44 -->
<g id="edge51" class="edge"><title>Node141&#45;&gt;Node44</title>
<path fill="none" stroke="midnightblue" d="M740.151,-637C757.51,-637 780.163,-637 799.352,-637"/>
<polygon fill="midnightblue" stroke="midnightblue" points="799.6,-640.5 809.6,-637 799.6,-633.5 799.6,-640.5"/>
</g>
<!-- Node44&#45;&gt;Node29 -->
<g id="edge52" class="edge"><title>Node44&#45;&gt;Node29</title>
<path fill="none" stroke="midnightblue" d="M853.372,-627.24C862.778,-619.877 875.645,-609.313 886,-599 959.136,-526.161 1034.86,-428.414 1064.74,-388.792"/>
<polygon fill="midnightblue" stroke="midnightblue" points="1067.67,-390.729 1070.87,-380.63 1062.07,-386.527 1067.67,-390.729"/>
</g>
<!-- Node143&#45;&gt;Node44 -->
<g id="edge57" class="edge"><title>Node143&#45;&gt;Node44</title>
<path fill="none" stroke="midnightblue" d="M740.393,-741.418C746.153,-738.814 751.987,-735.676 757,-732 786.483,-710.384 812.413,-676.151 826.727,-655.22"/>
<polygon fill="midnightblue" stroke="midnightblue" points="829.818,-656.892 832.457,-646.631 823.995,-653.007 829.818,-656.892"/>
</g>
<!-- Node146 -->
<g id="node46" class="node"><title>Node146</title>
<g id="a_node46"><a xlink:href="lapi_8c.html#a7d64f87addab440bbda96bb088816e17" target="_top" xlink:title=" ">
<polygon fill="white" stroke="black" points="174,-457.5 174,-476.5 251,-476.5 251,-457.5 174,-457.5"/>
<text text-anchor="middle" x="212.5" y="-464.5" font-family="Helvetica,sans-Serif" font-size="10.00">lua_typename</text>
</a>
</g>
</g>
<!-- Node145&#45;&gt;Node146 -->
<g id="edge60" class="edge"><title>Node145&#45;&gt;Node146</title>
<path fill="none" stroke="midnightblue" d="M138.036,-480.958C146.023,-479.441 155.044,-477.727 163.961,-476.032"/>
<polygon fill="midnightblue" stroke="midnightblue" points="164.752,-479.445 173.922,-474.14 163.445,-472.568 164.752,-479.445"/>
</g>
<!-- Node147 -->
<g id="node47" class="node"><title>Node147</title>
<g id="a_node47"><a xlink:href="lauxlib_8c.html#a49f5eae5db02430a59c67dff7b06d98f" target="_top" xlink:title=" ">
<polygon fill="white" stroke="black" points="185,-495.5 185,-514.5 240,-514.5 240,-495.5 185,-495.5"/>
<text text-anchor="middle" x="212.5" y="-502.5" font-family="Helvetica,sans-Serif" font-size="10.00">typeerror</text>
</a>
</g>
</g>
<!-- Node145&#45;&gt;Node147 -->
<g id="edge61" class="edge"><title>Node145&#45;&gt;Node147</title>
<path fill="none" stroke="midnightblue" d="M138.036,-491.042C149.337,-493.189 162.706,-495.729 174.922,-498.05"/>
<polygon fill="midnightblue" stroke="midnightblue" points="174.363,-501.506 184.84,-499.935 175.669,-494.629 174.363,-501.506"/>
</g>
<!-- Node147&#45;&gt;Node4 -->
<g id="edge64" class="edge"><title>Node147&#45;&gt;Node4</title>
<path fill="none" stroke="midnightblue" d="M239.759,-495.292C243.973,-492.791 247.945,-489.724 251,-486 288.751,-439.978 259.271,-409.671 287,-357 291.93,-347.636 299.162,-338.473 305.854,-331.027"/>
<polygon fill="midnightblue" stroke="midnightblue" points="308.455,-333.371 312.768,-323.694 303.362,-328.569 308.455,-333.371"/>
</g>
<!-- Node147&#45;&gt;Node130 -->
<g id="edge62" class="edge"><title>Node147&#45;&gt;Node130</title>
<path fill="none" stroke="midnightblue" d="M240.206,-495.651C326.361,-465.428 593.48,-371.203 630,-352 652.252,-340.299 675.457,-323.273 691.204,-310.877"/>
<polygon fill="midnightblue" stroke="midnightblue" points="693.512,-313.512 699.131,-304.53 689.137,-308.048 693.512,-313.512"/>
</g>
<!-- Node147&#45;&gt;Node138 -->
<g id="edge63" class="edge"><title>Node147&#45;&gt;Node138</title>
<path fill="none" stroke="midnightblue" d="M240.42,-508.105C296.013,-514.509 427.556,-529.621 538,-542 585.214,-547.292 639.713,-553.273 674.608,-557.087"/>
<polygon fill="midnightblue" stroke="midnightblue" points="674.458,-560.591 684.778,-558.198 675.218,-553.633 674.458,-560.591"/>
</g>
<!-- Node148 -->
<g id="node48" class="node"><title>Node148</title>
<g id="a_node48"><a xlink:href="lauxlib_8c.html#add7cea31816ff3f61014031248e0daa6" target="_top" xlink:title=" ">
<polygon fill="white" stroke="black" points="538,-675.5 538,-694.5 630,-694.5 630,-675.5 538,-675.5"/>
<text text-anchor="middle" x="584" y="-682.5" font-family="Helvetica,sans-Serif" font-size="10.00">luaL_getmetafield</text>
</a>
</g>
</g>
<!-- Node147&#45;&gt;Node148 -->
<g id="edge65" class="edge"><title>Node147&#45;&gt;Node148</title>
<path fill="none" stroke="midnightblue" d="M221.556,-514.906C234.126,-529.796 259.8,-558.007 287,-575 366.278,-624.528 471.261,-656.878 532.539,-672.961"/>
<polygon fill="midnightblue" stroke="midnightblue" points="531.797,-676.384 542.354,-675.496 533.547,-669.607 531.797,-676.384"/>
</g>
<!-- Node148&#45;&gt;Node143 -->
<g id="edge68" class="edge"><title>Node148&#45;&gt;Node143</title>
<path fill="none" stroke="midnightblue" d="M600.219,-694.583C616.272,-704.511 642.454,-720.197 666,-732 669.614,-733.812 673.442,-735.614 677.276,-737.345"/>
<polygon fill="midnightblue" stroke="midnightblue" points="676.134,-740.666 686.698,-741.472 678.942,-734.254 676.134,-740.666"/>
</g>
<!-- Node149 -->
<g id="node49" class="node"><title>Node149</title>
<g id="a_node49"><a xlink:href="lapi_8c.html#a4caa9ca5e47a30bd45e33d83bf2d6d6e" target="_top" xlink:title=" ">
<polygon fill="white" stroke="black" points="666,-703.5 666,-722.5 757,-722.5 757,-703.5 666,-703.5"/>
<text text-anchor="middle" x="711.5" y="-710.5" font-family="Helvetica,sans-Serif" font-size="10.00">lua_getmetatable</text>
</a>
</g>
</g>
<!-- Node148&#45;&gt;Node149 -->
<g id="edge66" class="edge"><title>Node148&#45;&gt;Node149</title>
<path fill="none" stroke="midnightblue" d="M627.839,-694.558C637.532,-696.72 647.931,-699.04 657.972,-701.281"/>
<polygon fill="midnightblue" stroke="midnightblue" points="657.332,-704.724 667.854,-703.485 658.856,-697.892 657.332,-704.724"/>
</g>
<!-- Node150 -->
<g id="node50" class="node"><title>Node150</title>
<g id="a_node50"><a xlink:href="lapi_8c.html#a52944e714d1c64bda7b83f511c14b2d3" target="_top" xlink:title=" ">
<polygon fill="white" stroke="red" points="680,-665.5 680,-684.5 743,-684.5 743,-665.5 680,-665.5"/>
<text text-anchor="middle" x="711.5" y="-672.5" font-family="Helvetica,sans-Serif" font-size="10.00">lua_rawget</text>
</a>
</g>
</g>
<!-- Node148&#45;&gt;Node150 -->
<g id="edge69" class="edge"><title>Node148&#45;&gt;Node150</title>
<path fill="none" stroke="midnightblue" d="M630.308,-681.39C643.144,-680.367 657.037,-679.26 669.596,-678.259"/>
<polygon fill="midnightblue" stroke="midnightblue" points="670.089,-681.731 679.779,-677.448 669.533,-674.753 670.089,-681.731"/>
</g>
<!-- Node149&#45;&gt;Node3 -->
<g id="edge67" class="edge"><title>Node149&#45;&gt;Node3</title>
<path fill="none" stroke="midnightblue" d="M743.049,-703.489C748.111,-700.968 753.004,-697.844 757,-694 783.937,-668.09 770.123,-647.557 793,-618 799.384,-609.752 807.844,-602.079 815.736,-595.818"/>
<polygon fill="midnightblue" stroke="midnightblue" points="818.077,-598.436 823.951,-589.619 813.861,-592.849 818.077,-598.436"/>
</g>
<!-- Node150&#45;&gt;Node3 -->
<g id="edge70" class="edge"><title>Node150&#45;&gt;Node3</title>
<path fill="none" stroke="midnightblue" d="M739.791,-665.438C745.709,-662.803 751.76,-659.647 757,-656 776.096,-642.711 776.043,-633.928 793,-618 801.017,-610.469 810.271,-602.603 818.331,-595.995"/>
<polygon fill="midnightblue" stroke="midnightblue" points="820.624,-598.641 826.196,-589.63 816.221,-593.2 820.624,-598.641"/>
</g>
</g>
</svg>
