<?xml version="1.0" encoding="UTF-8" standalone="no"?>
<!DOCTYPE svg PUBLIC "-//W3C//DTD SVG 1.1//EN"
 "http://www.w3.org/Graphics/SVG/1.1/DTD/svg11.dtd">
<!-- Generated by graphviz version 2.38.0 (20140413.2041)
 -->
<!-- Title: luaL_addvalue Pages: 1 -->
<svg width="2100pt" height="605pt"
 viewBox="0.00 0.00 2100.00 605.00" xmlns="http://www.w3.org/2000/svg" xmlns:xlink="http://www.w3.org/1999/xlink">
<g id="graph0" class="graph" transform="scale(1 1) rotate(0) translate(4 601)">
<title>luaL_addvalue</title>
<polygon fill="white" stroke="none" points="-4,4 -4,-601 2096,-601 2096,4 -4,4"/>
<!-- Node1 -->
<g id="node1" class="node"><title>Node1</title>
<g id="a_node1"><a xlink:title=" ">
<polygon fill="#bfbfbf" stroke="black" points="0,-171.5 0,-190.5 77,-190.5 77,-171.5 0,-171.5"/>
<text text-anchor="middle" x="38.5" y="-178.5" font-family="Helvetica,sans-Serif" font-size="10.00">luaL_addvalue</text>
</a>
</g>
</g>
<!-- Node2 -->
<g id="node2" class="node"><title>Node2</title>
<g id="a_node2"><a xlink:href="lapi_8c.html#a3fc7dbcac3f2610f3d687ec15343bd3f" target="_top" xlink:title=" ">
<polygon fill="white" stroke="black" points="723.5,-142.5 723.5,-161.5 792.5,-161.5 792.5,-142.5 723.5,-142.5"/>
<text text-anchor="middle" x="758" y="-149.5" font-family="Helvetica,sans-Serif" font-size="10.00">lua_tolstring</text>
</a>
</g>
</g>
<!-- Node1&#45;&gt;Node2 -->
<g id="edge1" class="edge"><title>Node1&#45;&gt;Node2</title>
<path fill="none" stroke="midnightblue" d="M77.1086,-176.107C123.703,-170.477 205.563,-162 276,-162 276,-162 276,-162 496,-162 572.362,-162 661.198,-157.673 713.055,-154.712"/>
<polygon fill="midnightblue" stroke="midnightblue" points="713.45,-158.195 723.23,-154.121 713.044,-151.206 713.45,-158.195"/>
</g>
<!-- Node116 -->
<g id="node26" class="node"><title>Node116</title>
<g id="a_node26"><a xlink:href="lauxlib_8c.html#a0d56993399c45ae61ebb9b448dc30538" target="_top" xlink:title=" ">
<polygon fill="white" stroke="black" points="113,-190.5 113,-209.5 195,-209.5 195,-190.5 113,-190.5"/>
<text text-anchor="middle" x="154" y="-197.5" font-family="Helvetica,sans-Serif" font-size="10.00">luaL_addlstring</text>
</a>
</g>
</g>
<!-- Node1&#45;&gt;Node116 -->
<g id="edge34" class="edge"><title>Node1&#45;&gt;Node116</title>
<path fill="none" stroke="midnightblue" d="M77.2939,-187.327C85.4514,-188.692 94.1994,-190.157 102.748,-191.588"/>
<polygon fill="midnightblue" stroke="midnightblue" points="102.204,-195.045 112.645,-193.244 103.36,-188.141 102.204,-195.045"/>
</g>
<!-- Node3 -->
<g id="node3" class="node"><title>Node3</title>
<g id="a_node3"><a xlink:href="lapi_8c.html#ae54b9bb381b32c86235a084984e40215" target="_top" xlink:title=" ">
<polygon fill="white" stroke="black" points="839,-218.5 839,-237.5 903,-237.5 903,-218.5 839,-218.5"/>
<text text-anchor="middle" x="871" y="-225.5" font-family="Helvetica,sans-Serif" font-size="10.00">index2addr</text>
</a>
</g>
</g>
<!-- Node2&#45;&gt;Node3 -->
<g id="edge2" class="edge"><title>Node2&#45;&gt;Node3</title>
<path fill="none" stroke="midnightblue" d="M780.906,-161.644C786.605,-164.428 792.645,-167.631 798,-171 817.222,-183.091 837.344,-199.373 851.413,-211.44"/>
<polygon fill="midnightblue" stroke="midnightblue" points="849.489,-214.405 859.329,-218.332 854.086,-209.126 849.489,-214.405"/>
</g>
<!-- Node4 -->
<g id="node4" class="node"><title>Node4</title>
<g id="a_node4"><a xlink:href="lobject_8c.html#a00c5c37438b02ff7efcf8e8dfa98da7c" target="_top" xlink:title=" ">
<polygon fill="white" stroke="black" points="834,-142.5 834,-161.5 908,-161.5 908,-142.5 834,-142.5"/>
<text text-anchor="middle" x="871" y="-149.5" font-family="Helvetica,sans-Serif" font-size="10.00">luaO_tostring</text>
</a>
</g>
</g>
<!-- Node2&#45;&gt;Node4 -->
<g id="edge3" class="edge"><title>Node2&#45;&gt;Node4</title>
<path fill="none" stroke="midnightblue" d="M792.605,-152C802.368,-152 813.207,-152 823.607,-152"/>
<polygon fill="midnightblue" stroke="midnightblue" points="823.806,-155.5 833.806,-152 823.806,-148.5 823.806,-155.5"/>
</g>
<!-- Node5 -->
<g id="node5" class="node"><title>Node5</title>
<g id="a_node5"><a xlink:href="lstring_8c.html#ab41fb084ce3ea5e2779f6659ccc2484d" target="_top" xlink:title=" ">
<polygon fill="white" stroke="black" points="949.5,-161.5 949.5,-180.5 1021.5,-180.5 1021.5,-161.5 949.5,-161.5"/>
<text text-anchor="middle" x="985.5" y="-168.5" font-family="Helvetica,sans-Serif" font-size="10.00">luaS_newlstr</text>
</a>
</g>
</g>
<!-- Node4&#45;&gt;Node5 -->
<g id="edge4" class="edge"><title>Node4&#45;&gt;Node5</title>
<path fill="none" stroke="midnightblue" d="M908.215,-158.116C918.043,-159.776 928.809,-161.594 939.075,-163.328"/>
<polygon fill="midnightblue" stroke="midnightblue" points="938.678,-166.811 949.121,-165.025 939.844,-159.908 938.678,-166.811"/>
</g>
<!-- Node6 -->
<g id="node6" class="node"><title>Node6</title>
<g id="a_node6"><a xlink:href="lstring_8c.html#a9b2c32c59a280de24f20df1c7f0433a1" target="_top" xlink:title=" ">
<polygon fill="white" stroke="black" points="1073.5,-85.5 1073.5,-104.5 1138.5,-104.5 1138.5,-85.5 1073.5,-85.5"/>
<text text-anchor="middle" x="1106" y="-92.5" font-family="Helvetica,sans-Serif" font-size="10.00">internshrstr</text>
</a>
</g>
</g>
<!-- Node5&#45;&gt;Node6 -->
<g id="edge5" class="edge"><title>Node5&#45;&gt;Node6</title>
<path fill="none" stroke="midnightblue" d="M1001.51,-161.375C1021.72,-148.412 1057.89,-125.214 1081.67,-109.965"/>
<polygon fill="midnightblue" stroke="midnightblue" points="1083.59,-112.892 1090.11,-104.547 1079.81,-107 1083.59,-112.892"/>
</g>
<!-- Node11 -->
<g id="node11" class="node"><title>Node11</title>
<g id="a_node11"><a xlink:href="lmem_8c.html#a8fc7df43dd830ccbe7581fd53f65bdbe" target="_top" xlink:title=" ">
<polygon fill="white" stroke="black" points="1071.5,-436.5 1071.5,-455.5 1140.5,-455.5 1140.5,-436.5 1071.5,-436.5"/>
<text text-anchor="middle" x="1106" y="-443.5" font-family="Helvetica,sans-Serif" font-size="10.00">luaM_toobig</text>
</a>
</g>
</g>
<!-- Node5&#45;&gt;Node11 -->
<g id="edge10" class="edge"><title>Node5&#45;&gt;Node11</title>
<path fill="none" stroke="midnightblue" d="M989.703,-180.723C999.437,-209.923 1030.02,-299.206 1063,-370 1072.4,-390.178 1084.93,-412.363 1093.85,-427.527"/>
<polygon fill="midnightblue" stroke="midnightblue" points="1091,-429.583 1099.12,-436.386 1097.02,-426.003 1091,-429.583"/>
</g>
<!-- Node23 -->
<g id="node21" class="node"><title>Node23</title>
<g id="a_node21"><a xlink:href="lstring_8c.html#a8790c7d6e706f935dd6e9eefd068921c" target="_top" xlink:title=" ">
<polygon fill="white" stroke="black" points="1776,-180.5 1776,-199.5 1881,-199.5 1881,-180.5 1776,-180.5"/>
<text text-anchor="middle" x="1828.5" y="-187.5" font-family="Helvetica,sans-Serif" font-size="10.00">luaS_createlngstrobj</text>
</a>
</g>
</g>
<!-- Node5&#45;&gt;Node23 -->
<g id="edge33" class="edge"><title>Node5&#45;&gt;Node23</title>
<path fill="none" stroke="midnightblue" d="M1021.86,-175.648C1067.79,-181.273 1150.48,-190 1221.5,-190 1221.5,-190 1221.5,-190 1584.5,-190 1646.14,-190 1716.57,-190 1765.68,-190"/>
<polygon fill="midnightblue" stroke="midnightblue" points="1765.83,-193.5 1775.83,-190 1765.83,-186.5 1765.83,-193.5"/>
</g>
<!-- Node7 -->
<g id="node7" class="node"><title>Node7</title>
<g id="a_node7"><a xlink:href="lstring_8c.html#a85a1a917ef263701e47c36e68011d917" target="_top" xlink:title=" ">
<polygon fill="white" stroke="black" points="1917,-180.5 1917,-199.5 1985,-199.5 1985,-180.5 1917,-180.5"/>
<text text-anchor="middle" x="1951" y="-187.5" font-family="Helvetica,sans-Serif" font-size="10.00">createstrobj</text>
</a>
</g>
</g>
<!-- Node6&#45;&gt;Node7 -->
<g id="edge6" class="edge"><title>Node6&#45;&gt;Node7</title>
<path fill="none" stroke="midnightblue" d="M1138.65,-99.3114C1182.61,-104.917 1264.69,-114 1335,-114 1335,-114 1335,-114 1704,-114 1786.87,-114 1878.73,-153.86 1923.1,-175.846"/>
<polygon fill="midnightblue" stroke="midnightblue" points="1921.57,-178.995 1932.07,-180.375 1924.72,-172.746 1921.57,-178.995"/>
</g>
<!-- Node9 -->
<g id="node9" class="node"><title>Node9</title>
<g id="a_node9"><a xlink:href="lstring_8c.html#ac453c0e85b7bb4e9b146fc140b1b7c9e" target="_top" xlink:title=" ">
<polygon fill="white" stroke="black" points="1191.5,-28.5 1191.5,-47.5 1253.5,-47.5 1253.5,-28.5 1191.5,-28.5"/>
<text text-anchor="middle" x="1222.5" y="-35.5" font-family="Helvetica,sans-Serif" font-size="10.00">luaS_hash</text>
</a>
</g>
</g>
<!-- Node6&#45;&gt;Node9 -->
<g id="edge8" class="edge"><title>Node6&#45;&gt;Node9</title>
<path fill="none" stroke="midnightblue" d="M1126.16,-85.4595C1144.49,-76.335 1172.35,-62.4656 1193.23,-52.0726"/>
<polygon fill="midnightblue" stroke="midnightblue" points="1194.88,-55.1614 1202.27,-47.5716 1191.76,-48.895 1194.88,-55.1614"/>
</g>
<!-- Node10 -->
<g id="node10" class="node"><title>Node10</title>
<g id="a_node10"><a xlink:href="lstring_8c.html#a88a409a2e7eee2106940f69d7884c471" target="_top" xlink:title=" ">
<polygon fill="white" stroke="black" points="1188.5,-66.5 1188.5,-85.5 1256.5,-85.5 1256.5,-66.5 1188.5,-66.5"/>
<text text-anchor="middle" x="1222.5" y="-73.5" font-family="Helvetica,sans-Serif" font-size="10.00">luaS_resize</text>
</a>
</g>
</g>
<!-- Node6&#45;&gt;Node10 -->
<g id="edge9" class="edge"><title>Node6&#45;&gt;Node10</title>
<path fill="none" stroke="midnightblue" d="M1138.59,-89.7579C1150.93,-87.7097 1165.28,-85.3285 1178.54,-83.1286"/>
<polygon fill="midnightblue" stroke="midnightblue" points="1179.12,-86.5801 1188.41,-81.4902 1177.98,-79.6745 1179.12,-86.5801"/>
</g>
<!-- Node8 -->
<g id="node8" class="node"><title>Node8</title>
<g id="a_node8"><a xlink:href="lgc_8c.html#abfc8404c5fbd2a1770202fa0b087d451" target="_top" xlink:title=" ">
<polygon fill="white" stroke="black" points="2021,-383.5 2021,-402.5 2092,-402.5 2092,-383.5 2021,-383.5"/>
<text text-anchor="middle" x="2056.5" y="-390.5" font-family="Helvetica,sans-Serif" font-size="10.00">luaC_newobj</text>
</a>
</g>
</g>
<!-- Node7&#45;&gt;Node8 -->
<g id="edge7" class="edge"><title>Node7&#45;&gt;Node8</title>
<path fill="none" stroke="midnightblue" d="M1956.85,-199.519C1972.91,-231.014 2024.52,-332.228 2045.99,-374.343"/>
<polygon fill="midnightblue" stroke="midnightblue" points="2042.88,-375.946 2050.54,-383.266 2049.11,-372.767 2042.88,-375.946"/>
</g>
<!-- Node12 -->
<g id="node12" class="node"><title>Node12</title>
<g id="a_node12"><a xlink:href="ldebug_8c.html#a88d38ca5da2e7a1492fc9d5ad70c32c5" target="_top" xlink:title=" ">
<polygon fill="white" stroke="black" points="1185,-436.5 1185,-455.5 1260,-455.5 1260,-436.5 1185,-436.5"/>
<text text-anchor="middle" x="1222.5" y="-443.5" font-family="Helvetica,sans-Serif" font-size="10.00">luaG_runerror</text>
</a>
</g>
</g>
<!-- Node11&#45;&gt;Node12 -->
<g id="edge11" class="edge"><title>Node11&#45;&gt;Node12</title>
<path fill="none" stroke="midnightblue" d="M1140.73,-446C1151.34,-446 1163.25,-446 1174.6,-446"/>
<polygon fill="midnightblue" stroke="midnightblue" points="1174.81,-449.5 1184.81,-446 1174.81,-442.5 1174.81,-449.5"/>
</g>
<!-- Node13 -->
<g id="node13" class="node"><title>Node13</title>
<g id="a_node13"><a xlink:href="ldebug_8c.html#a9834508872dae133075c7efe6404a9d8" target="_top" xlink:title=" ">
<polygon fill="white" stroke="red" points="1305,-417.5 1305,-436.5 1367,-436.5 1367,-417.5 1305,-417.5"/>
<text text-anchor="middle" x="1336" y="-424.5" font-family="Helvetica,sans-Serif" font-size="10.00">currentline</text>
</a>
</g>
</g>
<!-- Node12&#45;&gt;Node13 -->
<g id="edge12" class="edge"><title>Node12&#45;&gt;Node13</title>
<path fill="none" stroke="midnightblue" d="M1260.01,-439.779C1271.1,-437.889 1283.34,-435.803 1294.66,-433.874"/>
<polygon fill="midnightblue" stroke="midnightblue" points="1295.47,-437.286 1304.74,-432.156 1294.3,-430.385 1295.47,-437.286"/>
</g>
<!-- Node15 -->
<g id="node14" class="node"><title>Node15</title>
<g id="a_node14"><a xlink:href="ldebug_8c.html#a7e1dc7518150bf19bd9aa5dda166a2eb" target="_top" xlink:title=" ">
<polygon fill="white" stroke="red" points="1299.5,-455.5 1299.5,-474.5 1372.5,-474.5 1372.5,-455.5 1299.5,-455.5"/>
<text text-anchor="middle" x="1336" y="-462.5" font-family="Helvetica,sans-Serif" font-size="10.00">luaG_addinfo</text>
</a>
</g>
</g>
<!-- Node12&#45;&gt;Node15 -->
<g id="edge13" class="edge"><title>Node12&#45;&gt;Node15</title>
<path fill="none" stroke="midnightblue" d="M1260.01,-452.221C1269.34,-453.812 1279.5,-455.542 1289.23,-457.201"/>
<polygon fill="midnightblue" stroke="midnightblue" points="1288.72,-460.665 1299.17,-458.894 1289.9,-453.764 1288.72,-460.665"/>
</g>
<!-- Node18 -->
<g id="node16" class="node"><title>Node18</title>
<g id="a_node16"><a xlink:href="lobject_8c.html#aa83fa444a36d79521e846a766fa083d5" target="_top" xlink:title=" ">
<polygon fill="white" stroke="red" points="1537,-455.5 1537,-474.5 1630,-474.5 1630,-455.5 1537,-455.5"/>
<text text-anchor="middle" x="1583.5" y="-462.5" font-family="Helvetica,sans-Serif" font-size="10.00">luaO_pushvfstring</text>
</a>
</g>
</g>
<!-- Node12&#45;&gt;Node18 -->
<g id="edge32" class="edge"><title>Node12&#45;&gt;Node18</title>
<path fill="none" stroke="midnightblue" d="M1249.79,-455.609C1263.04,-462.605 1279.72,-470.991 1296,-475 1384.47,-496.78 1410.49,-485.411 1501,-475 1509.4,-474.033 1518.2,-472.524 1526.77,-470.874"/>
<polygon fill="midnightblue" stroke="midnightblue" points="1527.58,-474.283 1536.7,-468.897 1526.21,-467.417 1527.58,-474.283"/>
</g>
<!-- Node115 -->
<g id="node23" class="node"><title>Node115</title>
<g id="a_node23"><a xlink:href="ldebug_8c.html#af7366920f8408bb33ed01b1d6c0e1238" target="_top" xlink:title=" ">
<polygon fill="white" stroke="black" points="1296,-294.5 1296,-313.5 1376,-313.5 1376,-294.5 1296,-294.5"/>
<text text-anchor="middle" x="1336" y="-301.5" font-family="Helvetica,sans-Serif" font-size="10.00">luaG_errormsg</text>
</a>
</g>
</g>
<!-- Node12&#45;&gt;Node115 -->
<g id="edge28" class="edge"><title>Node12&#45;&gt;Node115</title>
<path fill="none" stroke="midnightblue" d="M1231.16,-436.24C1249.7,-412.629 1297.19,-352.148 1320.98,-321.853"/>
<polygon fill="midnightblue" stroke="midnightblue" points="1323.86,-323.855 1327.28,-313.829 1318.35,-319.532 1323.86,-323.855"/>
</g>
<!-- Node17 -->
<g id="node15" class="node"><title>Node17</title>
<g id="a_node15"><a xlink:href="lobject_8c.html#a8e224db7123c74d695076a96d1bfda61" target="_top" xlink:title=" ">
<polygon fill="white" stroke="black" points="1412,-455.5 1412,-474.5 1501,-474.5 1501,-455.5 1412,-455.5"/>
<text text-anchor="middle" x="1456.5" y="-462.5" font-family="Helvetica,sans-Serif" font-size="10.00">luaO_pushfstring</text>
</a>
</g>
</g>
<!-- Node15&#45;&gt;Node17 -->
<g id="edge14" class="edge"><title>Node15&#45;&gt;Node17</title>
<path fill="none" stroke="midnightblue" d="M1372.55,-465C1381.66,-465 1391.66,-465 1401.47,-465"/>
<polygon fill="midnightblue" stroke="midnightblue" points="1401.58,-468.5 1411.58,-465 1401.58,-461.5 1401.58,-468.5"/>
</g>
<!-- Node17&#45;&gt;Node18 -->
<g id="edge15" class="edge"><title>Node17&#45;&gt;Node18</title>
<path fill="none" stroke="midnightblue" d="M1501.22,-458.529C1509.43,-458.278 1518.11,-458.197 1526.63,-458.284"/>
<polygon fill="midnightblue" stroke="midnightblue" points="1526.83,-461.788 1536.9,-458.474 1526.96,-454.789 1526.83,-461.788"/>
</g>
<!-- Node18&#45;&gt;Node4 -->
<g id="edge19" class="edge"><title>Node18&#45;&gt;Node4</title>
<path fill="none" stroke="midnightblue" d="M1582.11,-455.288C1578.83,-388.512 1550.62,-0 1337,-0 1105,-0 1105,-0 1105,-0 1007.36,-0 918.625,-94.7938 885.624,-134.662"/>
<polygon fill="midnightblue" stroke="midnightblue" points="882.855,-132.519 879.278,-142.492 888.294,-136.927 882.855,-132.519"/>
</g>
<!-- Node18&#45;&gt;Node12 -->
<g id="edge17" class="edge"><title>Node18&#45;&gt;Node12</title>
<path fill="none" stroke="midnightblue" d="M1571.04,-474.626C1555.4,-482.193 1526.4,-490.078 1501,-493 1410.49,-503.411 1384.47,-514.78 1296,-493 1273.83,-487.542 1250.93,-473.969 1236.95,-462.391"/>
<polygon fill="midnightblue" stroke="midnightblue" points="1239.22,-459.719 1229.49,-455.531 1234.48,-464.874 1239.22,-459.719"/>
</g>
<!-- Node18&#45;&gt;Node17 -->
<g id="edge18" class="edge"><title>Node18&#45;&gt;Node17</title>
<path fill="none" stroke="midnightblue" d="M1536.9,-471.526C1528.62,-471.75 1519.91,-471.806 1511.42,-471.693"/>
<polygon fill="midnightblue" stroke="midnightblue" points="1511.29,-468.19 1501.22,-471.471 1511.14,-475.188 1511.29,-468.19"/>
</g>
<!-- Node19 -->
<g id="node17" class="node"><title>Node19</title>
<g id="a_node17"><a xlink:href="ldo_8c.html#a4dd006aa3210fdc854d0441e2a98c9af" target="_top" xlink:title=" ">
<polygon fill="white" stroke="black" points="1669,-474.5 1669,-493.5 1737,-493.5 1737,-474.5 1669,-474.5"/>
<text text-anchor="middle" x="1703" y="-481.5" font-family="Helvetica,sans-Serif" font-size="10.00">luaD_inctop</text>
</a>
</g>
</g>
<!-- Node18&#45;&gt;Node19 -->
<g id="edge16" class="edge"><title>Node18&#45;&gt;Node19</title>
<path fill="none" stroke="midnightblue" d="M1630.27,-472.4C1639.73,-473.931 1649.67,-475.538 1659.03,-477.051"/>
<polygon fill="midnightblue" stroke="midnightblue" points="1658.48,-480.508 1668.91,-478.649 1659.6,-473.597 1658.48,-480.508"/>
</g>
<!-- Node20 -->
<g id="node18" class="node"><title>Node20</title>
<g id="a_node18"><a xlink:href="lobject_8c.html#af3136de4693789b08f78aafda9604676" target="_top" xlink:title=" ">
<polygon fill="white" stroke="black" points="1666,-436.5 1666,-455.5 1740,-455.5 1740,-436.5 1666,-436.5"/>
<text text-anchor="middle" x="1703" y="-443.5" font-family="Helvetica,sans-Serif" font-size="10.00">luaO_utf8esc</text>
</a>
</g>
</g>
<!-- Node18&#45;&gt;Node20 -->
<g id="edge20" class="edge"><title>Node18&#45;&gt;Node20</title>
<path fill="none" stroke="midnightblue" d="M1630.27,-457.6C1638.69,-456.237 1647.5,-454.813 1655.94,-453.449"/>
<polygon fill="midnightblue" stroke="midnightblue" points="1656.68,-456.873 1666,-451.822 1655.57,-449.963 1656.68,-456.873"/>
</g>
<!-- Node21 -->
<g id="node19" class="node"><title>Node21</title>
<g id="a_node19"><a xlink:href="lvm_8c.html#a2f076040af405dcb50d661edd692eca7" target="_top" xlink:title=" ">
<polygon fill="white" stroke="black" points="1667.5,-218.5 1667.5,-237.5 1738.5,-237.5 1738.5,-218.5 1667.5,-218.5"/>
<text text-anchor="middle" x="1703" y="-225.5" font-family="Helvetica,sans-Serif" font-size="10.00">luaV_concat</text>
</a>
</g>
</g>
<!-- Node18&#45;&gt;Node21 -->
<g id="edge21" class="edge"><title>Node18&#45;&gt;Node21</title>
<path fill="none" stroke="midnightblue" d="M1594.68,-455.246C1604.73,-445.176 1620,-428.63 1630,-412 1663.49,-356.288 1686.85,-282.238 1696.73,-247.523"/>
<polygon fill="midnightblue" stroke="midnightblue" points="1700.15,-248.279 1699.46,-237.707 1693.4,-246.404 1700.15,-248.279"/>
</g>
<!-- Node21&#45;&gt;Node5 -->
<g id="edge26" class="edge"><title>Node21&#45;&gt;Node5</title>
<path fill="none" stroke="midnightblue" d="M1684.19,-218.375C1644.63,-197.924 1545.96,-152 1457.5,-152 1221.5,-152 1221.5,-152 1221.5,-152 1155.48,-152 1079.36,-159.543 1032.08,-165.124"/>
<polygon fill="midnightblue" stroke="midnightblue" points="1031.37,-161.683 1021.86,-166.352 1032.21,-168.633 1031.37,-161.683"/>
</g>
<!-- Node21&#45;&gt;Node12 -->
<g id="edge23" class="edge"><title>Node21&#45;&gt;Node12</title>
<path fill="none" stroke="midnightblue" d="M1687.39,-237.545C1654.94,-258.447 1573.93,-308.952 1501,-341 1413.24,-379.561 1384.31,-370.732 1296,-408 1279.83,-414.824 1262.39,-423.907 1248.67,-431.482"/>
<polygon fill="midnightblue" stroke="midnightblue" points="1246.83,-428.497 1239.82,-436.439 1250.26,-434.604 1246.83,-428.497"/>
</g>
<!-- Node22 -->
<g id="node20" class="node"><title>Node22</title>
<g id="a_node20"><a xlink:href="lvm_8c.html#a7f03a9c23b77ec5cd280bb955ec430b8" target="_top" xlink:title=" ">
<polygon fill="white" stroke="black" points="1799.5,-256.5 1799.5,-275.5 1857.5,-275.5 1857.5,-256.5 1799.5,-256.5"/>
<text text-anchor="middle" x="1828.5" y="-263.5" font-family="Helvetica,sans-Serif" font-size="10.00">copy2buff</text>
</a>
</g>
</g>
<!-- Node21&#45;&gt;Node22 -->
<g id="edge22" class="edge"><title>Node21&#45;&gt;Node22</title>
<path fill="none" stroke="midnightblue" d="M1735.16,-237.589C1751.65,-242.662 1772.03,-248.932 1789.44,-254.29"/>
<polygon fill="midnightblue" stroke="midnightblue" points="1788.71,-257.728 1799.3,-257.324 1790.77,-251.038 1788.71,-257.728"/>
</g>
<!-- Node21&#45;&gt;Node23 -->
<g id="edge24" class="edge"><title>Node21&#45;&gt;Node23</title>
<path fill="none" stroke="midnightblue" d="M1735.16,-218.411C1750.81,-213.596 1769.97,-207.701 1786.77,-202.532"/>
<polygon fill="midnightblue" stroke="midnightblue" points="1787.82,-205.872 1796.35,-199.586 1785.76,-199.182 1787.82,-205.872"/>
</g>
<!-- Node24 -->
<g id="node22" class="node"><title>Node24</title>
<g id="a_node22"><a xlink:href="ltm_8c.html#a2adc638eccb971b8abaf27f60611e913" target="_top" xlink:title=" ">
<polygon fill="white" stroke="red" points="1790,-218.5 1790,-237.5 1867,-237.5 1867,-218.5 1790,-218.5"/>
<text text-anchor="middle" x="1828.5" y="-225.5" font-family="Helvetica,sans-Serif" font-size="10.00">luaT_trybinTM</text>
</a>
</g>
</g>
<!-- Node21&#45;&gt;Node24 -->
<g id="edge27" class="edge"><title>Node21&#45;&gt;Node24</title>
<path fill="none" stroke="midnightblue" d="M1738.73,-228C1751.35,-228 1765.85,-228 1779.42,-228"/>
<polygon fill="midnightblue" stroke="midnightblue" points="1779.57,-231.5 1789.57,-228 1779.57,-224.5 1779.57,-231.5"/>
</g>
<!-- Node23&#45;&gt;Node7 -->
<g id="edge25" class="edge"><title>Node23&#45;&gt;Node7</title>
<path fill="none" stroke="midnightblue" d="M1881.3,-190C1889.73,-190 1898.39,-190 1906.6,-190"/>
<polygon fill="midnightblue" stroke="midnightblue" points="1906.69,-193.5 1916.69,-190 1906.69,-186.5 1906.69,-193.5"/>
</g>
<!-- Node113 -->
<g id="node24" class="node"><title>Node113</title>
<g id="a_node24"><a xlink:href="ldo_8c.html#a61c0a0185ef5ae1493dad10027f4db7e" target="_top" xlink:title=" ">
<polygon fill="white" stroke="red" points="1413,-256.5 1413,-275.5 1500,-275.5 1500,-256.5 1413,-256.5"/>
<text text-anchor="middle" x="1456.5" y="-263.5" font-family="Helvetica,sans-Serif" font-size="10.00">luaD_callnoyield</text>
</a>
</g>
</g>
<!-- Node115&#45;&gt;Node113 -->
<g id="edge29" class="edge"><title>Node115&#45;&gt;Node113</title>
<path fill="none" stroke="midnightblue" d="M1366.9,-294.411C1381.78,-289.641 1399.96,-283.811 1415.97,-278.677"/>
<polygon fill="midnightblue" stroke="midnightblue" points="1417.15,-281.972 1425.61,-275.586 1415.02,-275.307 1417.15,-281.972"/>
</g>
<!-- Node74 -->
<g id="node25" class="node"><title>Node74</title>
<g id="a_node25"><a xlink:href="ldo_8c.html#a2b46d9db5b9ca3d5402a0c2ac640a6b0" target="_top" xlink:title=" ">
<polygon fill="white" stroke="red" points="1424,-294.5 1424,-313.5 1489,-313.5 1489,-294.5 1424,-294.5"/>
<text text-anchor="middle" x="1456.5" y="-301.5" font-family="Helvetica,sans-Serif" font-size="10.00">luaD_throw</text>
</a>
</g>
</g>
<!-- Node115&#45;&gt;Node74 -->
<g id="edge30" class="edge"><title>Node115&#45;&gt;Node74</title>
<path fill="none" stroke="midnightblue" d="M1376.13,-304C1388.12,-304 1401.36,-304 1413.54,-304"/>
<polygon fill="midnightblue" stroke="midnightblue" points="1413.9,-307.5 1423.9,-304 1413.9,-300.5 1413.9,-307.5"/>
</g>
<!-- Node74&#45;&gt;Node74 -->
<g id="edge31" class="edge"><title>Node74&#45;&gt;Node74</title>
<path fill="none" stroke="midnightblue" d="M1438,-313.757C1429.01,-322.565 1435.17,-332 1456.5,-332 1470.16,-332 1477.6,-328.128 1478.82,-323.029"/>
<polygon fill="midnightblue" stroke="midnightblue" points="1482.05,-321.666 1475,-313.757 1475.57,-324.336 1482.05,-321.666"/>
</g>
<!-- Node117 -->
<g id="node27" class="node"><title>Node117</title>
<g id="a_node27"><a xlink:href="lauxlib_8c.html#ae695ed340bec54979c499b70d7d29318" target="_top" xlink:title=" ">
<polygon fill="white" stroke="black" points="231,-266.5 231,-285.5 323,-285.5 323,-266.5 231,-266.5"/>
<text text-anchor="middle" x="277" y="-273.5" font-family="Helvetica,sans-Serif" font-size="10.00">luaL_prepbuffsize</text>
</a>
</g>
</g>
<!-- Node116&#45;&gt;Node117 -->
<g id="edge35" class="edge"><title>Node116&#45;&gt;Node117</title>
<path fill="none" stroke="midnightblue" d="M170.325,-209.625C190.963,-222.588 227.896,-245.786 252.175,-261.035"/>
<polygon fill="midnightblue" stroke="midnightblue" points="250.47,-264.098 260.8,-266.453 254.193,-258.17 250.47,-264.098"/>
</g>
<!-- Node118 -->
<g id="node28" class="node"><title>Node118</title>
<g id="a_node28"><a xlink:href="lauxlib_8c.html#a6c51d83d29244779392551388913e08a" target="_top" xlink:title=" ">
<polygon fill="white" stroke="black" points="728.5,-370.5 728.5,-389.5 787.5,-389.5 787.5,-370.5 728.5,-370.5"/>
<text text-anchor="middle" x="758" y="-377.5" font-family="Helvetica,sans-Serif" font-size="10.00">luaL_error</text>
</a>
</g>
</g>
<!-- Node117&#45;&gt;Node118 -->
<g id="edge36" class="edge"><title>Node117&#45;&gt;Node118</title>
<path fill="none" stroke="midnightblue" d="M283.207,-285.636C301.101,-317.81 363.494,-422.465 445,-475 497.751,-509.001 518.822,-504.477 581,-513 625.473,-519.096 643.239,-535.641 682,-513 724.199,-488.35 744.515,-430.227 752.581,-399.626"/>
<polygon fill="midnightblue" stroke="midnightblue" points="756.03,-400.257 755.016,-389.711 749.232,-398.587 756.03,-400.257"/>
</g>
<!-- Node132 -->
<g id="node36" class="node"><title>Node132</title>
<g id="a_node36"><a xlink:href="lauxlib_8c.html#a48ce842bce537df89aa9c13594263c73" target="_top" xlink:title=" ">
<polygon fill="white" stroke="black" points="359,-323.5 359,-342.5 409,-342.5 409,-323.5 359,-323.5"/>
<text text-anchor="middle" x="384" y="-330.5" font-family="Helvetica,sans-Serif" font-size="10.00">newbox</text>
</a>
</g>
</g>
<!-- Node117&#45;&gt;Node132 -->
<g id="edge49" class="edge"><title>Node117&#45;&gt;Node132</title>
<path fill="none" stroke="midnightblue" d="M295.812,-285.669C312.429,-294.69 337.44,-308.267 356.418,-318.57"/>
<polygon fill="midnightblue" stroke="midnightblue" points="354.993,-321.779 365.451,-323.474 358.333,-315.627 354.993,-321.779"/>
</g>
<!-- Node134 -->
<g id="node38" class="node"><title>Node134</title>
<g id="a_node38"><a xlink:href="lauxlib_8c.html#acdf7f3169e55f9c8bd3d314358a9e778" target="_top" xlink:title=" ">
<polygon fill="white" stroke="black" points="602,-209.5 602,-228.5 661,-228.5 661,-209.5 602,-209.5"/>
<text text-anchor="middle" x="631.5" y="-216.5" font-family="Helvetica,sans-Serif" font-size="10.00">resizebox</text>
</a>
</g>
</g>
<!-- Node117&#45;&gt;Node134 -->
<g id="edge73" class="edge"><title>Node117&#45;&gt;Node134</title>
<path fill="none" stroke="midnightblue" d="M313.91,-266.496C347.561,-257.908 399.376,-245.499 445,-238 495.369,-229.721 554.062,-224.433 591.718,-221.592"/>
<polygon fill="midnightblue" stroke="midnightblue" points="592.04,-225.078 601.756,-220.855 591.527,-218.096 592.04,-225.078"/>
</g>
<!-- Node119 -->
<g id="node29" class="node"><title>Node119</title>
<g id="a_node29"><a xlink:href="lapi_8c.html#a1de3afee1daece63d455f23818c883d9" target="_top" xlink:title=" ">
<polygon fill="white" stroke="black" points="839,-256.5 839,-275.5 903,-275.5 903,-256.5 839,-256.5"/>
<text text-anchor="middle" x="871" y="-263.5" font-family="Helvetica,sans-Serif" font-size="10.00">lua_concat</text>
</a>
</g>
</g>
<!-- Node118&#45;&gt;Node119 -->
<g id="edge37" class="edge"><title>Node118&#45;&gt;Node119</title>
<path fill="none" stroke="midnightblue" d="M779.101,-370.317C785.664,-366.493 792.637,-361.651 798,-356 821.001,-331.763 811.443,-314.65 834,-290 836.773,-286.969 840.004,-284.138 843.371,-281.56"/>
<polygon fill="midnightblue" stroke="midnightblue" points="845.606,-284.27 851.837,-275.701 841.622,-278.514 845.606,-284.27"/>
</g>
<!-- Node120 -->
<g id="node30" class="node"><title>Node120</title>
<g id="a_node30"><a xlink:href="lapi_8c.html#a6ba7b91143fe8a03910420d800de8e97" target="_top" xlink:title=" ">
<polygon fill="white" stroke="black" points="1195.5,-294.5 1195.5,-313.5 1249.5,-313.5 1249.5,-294.5 1195.5,-294.5"/>
<text text-anchor="middle" x="1222.5" y="-301.5" font-family="Helvetica,sans-Serif" font-size="10.00">lua_error</text>
</a>
</g>
</g>
<!-- Node118&#45;&gt;Node120 -->
<g id="edge40" class="edge"><title>Node118&#45;&gt;Node120</title>
<path fill="none" stroke="midnightblue" d="M777.92,-370.463C792.79,-363.393 814.225,-354.129 834,-349 960.012,-316.316 1115.25,-307.344 1184.79,-304.902"/>
<polygon fill="midnightblue" stroke="midnightblue" points="1185.31,-308.386 1195.2,-304.563 1185.09,-301.39 1185.31,-308.386"/>
</g>
<!-- Node121 -->
<g id="node31" class="node"><title>Node121</title>
<g id="a_node31"><a xlink:href="lapi_8c.html#a426c9cb1d582be3e43060c4772854e5a" target="_top" xlink:title=" ">
<polygon fill="white" stroke="black" points="1063,-341.5 1063,-360.5 1149,-360.5 1149,-341.5 1063,-341.5"/>
<text text-anchor="middle" x="1106" y="-348.5" font-family="Helvetica,sans-Serif" font-size="10.00">lua_pushvfstring</text>
</a>
</g>
</g>
<!-- Node118&#45;&gt;Node121 -->
<g id="edge42" class="edge"><title>Node118&#45;&gt;Node121</title>
<path fill="none" stroke="midnightblue" d="M787.563,-371.252C801.441,-367.392 818.444,-363.232 834,-361 909.524,-350.165 998.027,-349.04 1052.81,-349.674"/>
<polygon fill="midnightblue" stroke="midnightblue" points="1052.92,-353.176 1062.97,-349.816 1053.02,-346.177 1052.92,-353.176"/>
</g>
<!-- Node122 -->
<g id="node32" class="node"><title>Node122</title>
<g id="a_node32"><a xlink:href="lauxlib_8c.html#a0f4d3c30c07eae36aa25605df84279a0" target="_top" xlink:title=" ">
<polygon fill="white" stroke="black" points="838.5,-370.5 838.5,-389.5 903.5,-389.5 903.5,-370.5 838.5,-370.5"/>
<text text-anchor="middle" x="871" y="-377.5" font-family="Helvetica,sans-Serif" font-size="10.00">luaL_where</text>
</a>
</g>
</g>
<!-- Node118&#45;&gt;Node122 -->
<g id="edge44" class="edge"><title>Node118&#45;&gt;Node122</title>
<path fill="none" stroke="midnightblue" d="M787.585,-380C799.973,-380 814.72,-380 828.293,-380"/>
<polygon fill="midnightblue" stroke="midnightblue" points="828.385,-383.5 838.384,-380 828.384,-376.5 828.385,-383.5"/>
</g>
<!-- Node119&#45;&gt;Node5 -->
<g id="edge38" class="edge"><title>Node119&#45;&gt;Node5</title>
<path fill="none" stroke="midnightblue" d="M892.814,-256.356C897.959,-253.615 903.331,-250.432 908,-247 920.794,-237.596 950.221,-207.286 968.621,-187.904"/>
<polygon fill="midnightblue" stroke="midnightblue" points="971.2,-190.27 975.526,-180.599 966.113,-185.462 971.2,-190.27"/>
</g>
<!-- Node119&#45;&gt;Node21 -->
<g id="edge39" class="edge"><title>Node119&#45;&gt;Node21</title>
<path fill="none" stroke="midnightblue" d="M903.018,-257.661C947.424,-246.475 1031.84,-228 1105,-228 1105,-228 1105,-228 1457.5,-228 1527.1,-228 1607.85,-228 1656.91,-228"/>
<polygon fill="midnightblue" stroke="midnightblue" points="1657.18,-231.5 1667.18,-228 1657.18,-224.5 1657.18,-231.5"/>
</g>
<!-- Node120&#45;&gt;Node115 -->
<g id="edge41" class="edge"><title>Node120&#45;&gt;Node115</title>
<path fill="none" stroke="midnightblue" d="M1249.64,-304C1260.4,-304 1273.24,-304 1285.64,-304"/>
<polygon fill="midnightblue" stroke="midnightblue" points="1285.91,-307.5 1295.91,-304 1285.91,-300.5 1285.91,-307.5"/>
</g>
<!-- Node121&#45;&gt;Node18 -->
<g id="edge43" class="edge"><title>Node121&#45;&gt;Node18</title>
<path fill="none" stroke="midnightblue" d="M1149.11,-359.103C1202.22,-369.51 1296.23,-388.557 1376,-408 1433.25,-421.953 1498.73,-440.468 1540.33,-452.553"/>
<polygon fill="midnightblue" stroke="midnightblue" points="1539.53,-455.967 1550.11,-455.406 1541.49,-449.247 1539.53,-455.967"/>
</g>
<!-- Node123 -->
<g id="node33" class="node"><title>Node123</title>
<g id="a_node33"><a xlink:href="ldebug_8c.html#acaafc35d8e385c4d167229486165df6d" target="_top" xlink:title=" ">
<polygon fill="white" stroke="red" points="954,-370.5 954,-389.5 1017,-389.5 1017,-370.5 954,-370.5"/>
<text text-anchor="middle" x="985.5" y="-377.5" font-family="Helvetica,sans-Serif" font-size="10.00">lua_getinfo</text>
</a>
</g>
</g>
<!-- Node122&#45;&gt;Node123 -->
<g id="edge45" class="edge"><title>Node122&#45;&gt;Node123</title>
<path fill="none" stroke="midnightblue" d="M903.637,-380C916.047,-380 930.448,-380 943.628,-380"/>
<polygon fill="midnightblue" stroke="midnightblue" points="943.876,-383.5 953.876,-380 943.876,-376.5 943.876,-383.5"/>
</g>
<!-- Node130 -->
<g id="node34" class="node"><title>Node130</title>
<g id="a_node34"><a xlink:href="ldebug_8c.html#ac1fc03c27ee46caa4037df2d70f22110" target="_top" xlink:title=" ">
<polygon fill="white" stroke="black" points="949.5,-446.5 949.5,-465.5 1021.5,-465.5 1021.5,-446.5 949.5,-446.5"/>
<text text-anchor="middle" x="985.5" y="-453.5" font-family="Helvetica,sans-Serif" font-size="10.00">lua_getstack</text>
</a>
</g>
</g>
<!-- Node122&#45;&gt;Node130 -->
<g id="edge46" class="edge"><title>Node122&#45;&gt;Node130</title>
<path fill="none" stroke="midnightblue" d="M886.879,-389.569C893.431,-393.872 901.175,-399.081 908,-404 924.444,-415.852 927.248,-420.588 944,-432 948.528,-435.084 953.461,-438.199 958.277,-441.116"/>
<polygon fill="midnightblue" stroke="midnightblue" points="956.867,-444.349 967.257,-446.424 960.429,-438.323 956.867,-444.349"/>
</g>
<!-- Node131 -->
<g id="node35" class="node"><title>Node131</title>
<g id="a_node35"><a xlink:href="lapi_8c.html#ab190c226d38b289e6ca57683a9d4e0f0" target="_top" xlink:title=" ">
<polygon fill="white" stroke="black" points="1065,-521.5 1065,-540.5 1147,-540.5 1147,-521.5 1065,-521.5"/>
<text text-anchor="middle" x="1106" y="-528.5" font-family="Helvetica,sans-Serif" font-size="10.00">lua_pushfstring</text>
</a>
</g>
</g>
<!-- Node122&#45;&gt;Node131 -->
<g id="edge47" class="edge"><title>Node122&#45;&gt;Node131</title>
<path fill="none" stroke="midnightblue" d="M903.589,-389.471C942.713,-401.566 1006.69,-422.644 1027,-437 1056.13,-457.592 1080.66,-491.714 1094.06,-512.691"/>
<polygon fill="midnightblue" stroke="midnightblue" points="1091.16,-514.657 1099.4,-521.308 1097.1,-510.966 1091.16,-514.657"/>
</g>
<!-- Node131&#45;&gt;Node18 -->
<g id="edge48" class="edge"><title>Node131&#45;&gt;Node18</title>
<path fill="none" stroke="midnightblue" d="M1147.17,-535.173C1219.6,-541.371 1376.16,-548.664 1501,-512 1523.4,-505.421 1546.2,-491.535 1561.96,-480.554"/>
<polygon fill="midnightblue" stroke="midnightblue" points="1564.3,-483.182 1570.37,-474.501 1560.21,-477.5 1564.3,-483.182"/>
</g>
<!-- Node133 -->
<g id="node37" class="node"><title>Node133</title>
<g id="a_node37"><a xlink:href="lauxlib_8c.html#a1957766835de815798e07848d3d14810" target="_top" xlink:title=" ">
<polygon fill="white" stroke="black" points="473.5,-247.5 473.5,-266.5 516.5,-266.5 516.5,-247.5 473.5,-247.5"/>
<text text-anchor="middle" x="495" y="-254.5" font-family="Helvetica,sans-Serif" font-size="10.00">boxgc</text>
</a>
</g>
</g>
<!-- Node132&#45;&gt;Node133 -->
<g id="edge50" class="edge"><title>Node132&#45;&gt;Node133</title>
<path fill="none" stroke="midnightblue" d="M394.55,-323.322C405.885,-312.183 425.69,-293.783 445,-281 450.944,-277.065 457.627,-273.37 464.101,-270.113"/>
<polygon fill="midnightblue" stroke="midnightblue" points="465.83,-273.166 473.327,-265.679 462.798,-266.857 465.83,-273.166"/>
</g>
<!-- Node132&#45;&gt;Node134 -->
<g id="edge72" class="edge"><title>Node132&#45;&gt;Node134</title>
<path fill="none" stroke="midnightblue" d="M409.08,-325.112C450.814,-311.34 533.263,-283.645 545,-276 564.494,-263.303 561.662,-250.933 581,-238 584.572,-235.611 588.488,-233.461 592.503,-231.543"/>
<polygon fill="midnightblue" stroke="midnightblue" points="594.134,-234.652 601.937,-227.484 591.368,-228.222 594.134,-234.652"/>
</g>
<!-- Node137 -->
<g id="node41" class="node"><title>Node137</title>
<g id="a_node41"><a xlink:href="lapi_8c.html#a467bb6f4780b27d6e7de6ee10a80dac5" target="_top" xlink:title=" ">
<polygon fill="white" stroke="black" points="450.5,-399.5 450.5,-418.5 539.5,-418.5 539.5,-399.5 450.5,-399.5"/>
<text text-anchor="middle" x="495" y="-406.5" font-family="Helvetica,sans-Serif" font-size="10.00">lua_newuserdata</text>
</a>
</g>
</g>
<!-- Node132&#45;&gt;Node137 -->
<g id="edge56" class="edge"><title>Node132&#45;&gt;Node137</title>
<path fill="none" stroke="midnightblue" d="M394.55,-342.678C405.885,-353.817 425.69,-372.217 445,-385 450.391,-388.569 456.39,-391.94 462.29,-394.967"/>
<polygon fill="midnightblue" stroke="midnightblue" points="460.858,-398.162 471.378,-399.416 463.936,-391.875 460.858,-398.162"/>
</g>
<!-- Node139 -->
<g id="node43" class="node"><title>Node139</title>
<g id="a_node43"><a xlink:href="lapi_8c.html#a3f2f542ee6728d82e51b1c302f9606df" target="_top" xlink:title=" ">
<polygon fill="white" stroke="black" points="599,-361.5 599,-380.5 664,-380.5 664,-361.5 599,-361.5"/>
<text text-anchor="middle" x="631.5" y="-368.5" font-family="Helvetica,sans-Serif" font-size="10.00">lua_setfield</text>
</a>
</g>
</g>
<!-- Node132&#45;&gt;Node139 -->
<g id="edge60" class="edge"><title>Node132&#45;&gt;Node139</title>
<path fill="none" stroke="midnightblue" d="M409.221,-341.914C420.035,-345.569 433.017,-349.516 445,-352 493.679,-362.089 550.705,-366.911 588.548,-369.154"/>
<polygon fill="midnightblue" stroke="midnightblue" points="588.51,-372.658 598.69,-369.721 588.901,-365.669 588.51,-372.658"/>
</g>
<!-- Node142 -->
<g id="node45" class="node"><title>Node142</title>
<g id="a_node45"><a xlink:href="lapi_8c.html#a15719ea4119bdf5b3f2a406534431a7e" target="_top" xlink:title=" ">
<polygon fill="white" stroke="black" points="449.5,-446.5 449.5,-465.5 540.5,-465.5 540.5,-446.5 449.5,-446.5"/>
<text text-anchor="middle" x="495" y="-453.5" font-family="Helvetica,sans-Serif" font-size="10.00">lua_setmetatable</text>
</a>
</g>
</g>
<!-- Node132&#45;&gt;Node142 -->
<g id="edge63" class="edge"><title>Node132&#45;&gt;Node142</title>
<path fill="none" stroke="midnightblue" d="M389.17,-342.7C397.509,-361.194 417.797,-401.973 445,-428 450.232,-433.006 456.527,-437.455 462.835,-441.252"/>
<polygon fill="midnightblue" stroke="midnightblue" points="461.525,-444.529 471.965,-446.337 464.931,-438.413 461.525,-444.529"/>
</g>
<!-- Node155 -->
<g id="node47" class="node"><title>Node155</title>
<g id="a_node47"><a xlink:href="lauxlib_8c.html#a2664eb7bcc85bbf6eeded2a81cf09b01" target="_top" xlink:title=" ">
<polygon fill="white" stroke="black" points="445,-323.5 445,-342.5 545,-342.5 545,-323.5 445,-323.5"/>
<text text-anchor="middle" x="495" y="-330.5" font-family="Helvetica,sans-Serif" font-size="10.00">luaL_newmetatable</text>
</a>
</g>
</g>
<!-- Node132&#45;&gt;Node155 -->
<g id="edge66" class="edge"><title>Node132&#45;&gt;Node155</title>
<path fill="none" stroke="midnightblue" d="M409.191,-333C416.846,-333 425.672,-333 434.675,-333"/>
<polygon fill="midnightblue" stroke="midnightblue" points="434.861,-336.5 444.861,-333 434.861,-329.5 434.861,-336.5"/>
</g>
<!-- Node133&#45;&gt;Node134 -->
<g id="edge51" class="edge"><title>Node133&#45;&gt;Node134</title>
<path fill="none" stroke="midnightblue" d="M516.721,-251.146C536.668,-245.51 567.329,-236.848 591.798,-229.934"/>
<polygon fill="midnightblue" stroke="midnightblue" points="592.843,-233.276 601.515,-227.189 590.94,-226.54 592.843,-233.276"/>
</g>
<!-- Node134&#45;&gt;Node118 -->
<g id="edge55" class="edge"><title>Node134&#45;&gt;Node118</title>
<path fill="none" stroke="midnightblue" d="M661.206,-225.632C668.68,-228.458 676.241,-232.435 682,-238 711.501,-266.511 698.319,-287.003 718,-323 725.46,-336.644 735.37,-351.092 743.334,-362.029"/>
<polygon fill="midnightblue" stroke="midnightblue" points="740.698,-364.35 749.469,-370.294 746.319,-360.178 740.698,-364.35"/>
</g>
<!-- Node135 -->
<g id="node39" class="node"><title>Node135</title>
<g id="a_node39"><a xlink:href="lapi_8c.html#a3dbff8747b32b799cf63603c46da06cc" target="_top" xlink:title=" ">
<polygon fill="white" stroke="black" points="722.5,-180.5 722.5,-199.5 793.5,-199.5 793.5,-180.5 722.5,-180.5"/>
<text text-anchor="middle" x="758" y="-187.5" font-family="Helvetica,sans-Serif" font-size="10.00">lua_getallocf</text>
</a>
</g>
</g>
<!-- Node134&#45;&gt;Node135 -->
<g id="edge52" class="edge"><title>Node134&#45;&gt;Node135</title>
<path fill="none" stroke="midnightblue" d="M661.063,-212.347C676.306,-208.796 695.405,-204.347 712.541,-200.356"/>
<polygon fill="midnightblue" stroke="midnightblue" points="713.415,-203.746 722.36,-198.069 711.827,-196.929 713.415,-203.746"/>
</g>
<!-- Node136 -->
<g id="node40" class="node"><title>Node136</title>
<g id="a_node40"><a xlink:href="lapi_8c.html#a0444ddf13e5618bca969e4b3b47bc0cc" target="_top" xlink:title=" ">
<polygon fill="white" stroke="black" points="718,-218.5 718,-237.5 798,-237.5 798,-218.5 718,-218.5"/>
<text text-anchor="middle" x="758" y="-225.5" font-family="Helvetica,sans-Serif" font-size="10.00">lua_touserdata</text>
</a>
</g>
</g>
<!-- Node134&#45;&gt;Node136 -->
<g id="edge53" class="edge"><title>Node134&#45;&gt;Node136</title>
<path fill="none" stroke="midnightblue" d="M661.063,-221.065C674.843,-222.061 691.775,-223.285 707.559,-224.426"/>
<polygon fill="midnightblue" stroke="midnightblue" points="707.495,-227.93 717.721,-225.161 707.999,-220.949 707.495,-227.93"/>
</g>
<!-- Node136&#45;&gt;Node3 -->
<g id="edge54" class="edge"><title>Node136&#45;&gt;Node3</title>
<path fill="none" stroke="midnightblue" d="M798.134,-228C808.048,-228 818.727,-228 828.742,-228"/>
<polygon fill="midnightblue" stroke="midnightblue" points="828.879,-231.5 838.878,-228 828.878,-224.5 828.879,-231.5"/>
</g>
<!-- Node138 -->
<g id="node42" class="node"><title>Node138</title>
<g id="a_node42"><a xlink:href="lstring_8c.html#a91255fe58c6be556cba13f83bf2850cb" target="_top" xlink:title=" ">
<polygon fill="white" stroke="black" points="944,-484.5 944,-503.5 1027,-503.5 1027,-484.5 944,-484.5"/>
<text text-anchor="middle" x="985.5" y="-491.5" font-family="Helvetica,sans-Serif" font-size="10.00">luaS_newudata</text>
</a>
</g>
</g>
<!-- Node137&#45;&gt;Node138 -->
<g id="edge57" class="edge"><title>Node137&#45;&gt;Node138</title>
<path fill="none" stroke="midnightblue" d="M539.781,-416.618C630.275,-432.364 837.49,-468.42 933.694,-485.16"/>
<polygon fill="midnightblue" stroke="midnightblue" points="933.306,-488.645 943.758,-486.911 934.506,-481.748 933.306,-488.645"/>
</g>
<!-- Node138&#45;&gt;Node8 -->
<g id="edge58" class="edge"><title>Node138&#45;&gt;Node8</title>
<path fill="none" stroke="midnightblue" d="M997.12,-503.642C1011.22,-515.983 1037.34,-537.283 1063,-550 1128.84,-582.625 1148.02,-597 1221.5,-597 1221.5,-597 1221.5,-597 1829.5,-597 1939.53,-597 2020.05,-462.122 2046.3,-411.71"/>
<polygon fill="midnightblue" stroke="midnightblue" points="2049.54,-413.067 2050.94,-402.566 2043.3,-409.896 2049.54,-413.067"/>
</g>
<!-- Node138&#45;&gt;Node11 -->
<g id="edge59" class="edge"><title>Node138&#45;&gt;Node11</title>
<path fill="none" stroke="midnightblue" d="M1010.2,-484.402C1027.88,-477.24 1052.26,-467.363 1071.87,-459.42"/>
<polygon fill="midnightblue" stroke="midnightblue" points="1073.39,-462.58 1081.35,-455.582 1070.76,-456.092 1073.39,-462.58"/>
</g>
<!-- Node139&#45;&gt;Node3 -->
<g id="edge62" class="edge"><title>Node139&#45;&gt;Node3</title>
<path fill="none" stroke="midnightblue" d="M664.158,-369.434C700.416,-366.073 759.733,-355.584 798,-323 826.457,-298.769 808.149,-273.994 834,-247 835.21,-245.737 836.522,-244.54 837.906,-243.409"/>
<polygon fill="midnightblue" stroke="midnightblue" points="840.091,-246.156 846.395,-237.641 836.157,-240.366 840.091,-246.156"/>
</g>
<!-- Node140 -->
<g id="node44" class="node"><title>Node140</title>
<g id="a_node44"><a xlink:href="lapi_8c.html#a0667fbf88666853554967226d9a3df4d" target="_top" xlink:title=" ">
<polygon fill="white" stroke="red" points="729.5,-294.5 729.5,-313.5 786.5,-313.5 786.5,-294.5 729.5,-294.5"/>
<text text-anchor="middle" x="758" y="-301.5" font-family="Helvetica,sans-Serif" font-size="10.00">auxsetstr</text>
</a>
</g>
</g>
<!-- Node139&#45;&gt;Node140 -->
<g id="edge61" class="edge"><title>Node139&#45;&gt;Node140</title>
<path fill="none" stroke="midnightblue" d="M653.372,-361.274C662.265,-357.029 672.711,-351.907 682,-347 698.983,-338.028 717.728,-327.281 732.23,-318.776"/>
<polygon fill="midnightblue" stroke="midnightblue" points="734.251,-321.647 741.085,-313.551 730.694,-315.618 734.251,-321.647"/>
</g>
<!-- Node142&#45;&gt;Node3 -->
<g id="edge64" class="edge"><title>Node142&#45;&gt;Node3</title>
<path fill="none" stroke="midnightblue" d="M540.591,-461.364C606.11,-466.576 728.159,-465.7 798,-399 848.207,-351.052 791.497,-301.893 834,-247 834.919,-245.813 835.934,-244.691 837.022,-243.634"/>
<polygon fill="midnightblue" stroke="midnightblue" points="839.19,-246.382 845.031,-237.543 834.952,-240.811 839.19,-246.382"/>
</g>
<!-- Node143 -->
<g id="node46" class="node"><title>Node143</title>
<g id="a_node46"><a xlink:href="lgc_8c.html#a0d4f5fb6a8831817e117cfff473aeb0e" target="_top" xlink:title=" ">
<polygon fill="white" stroke="red" points="581,-484.5 581,-503.5 682,-503.5 682,-484.5 581,-484.5"/>
<text text-anchor="middle" x="631.5" y="-491.5" font-family="Helvetica,sans-Serif" font-size="10.00">luaC_checkfinalizer</text>
</a>
</g>
</g>
<!-- Node142&#45;&gt;Node143 -->
<g id="edge65" class="edge"><title>Node142&#45;&gt;Node143</title>
<path fill="none" stroke="midnightblue" d="M529.94,-465.589C547.223,-470.472 568.433,-476.464 586.911,-481.685"/>
<polygon fill="midnightblue" stroke="midnightblue" points="585.996,-485.063 596.571,-484.414 587.899,-478.327 585.996,-485.063"/>
</g>
<!-- Node155&#45;&gt;Node139 -->
<g id="edge71" class="edge"><title>Node155&#45;&gt;Node139</title>
<path fill="none" stroke="midnightblue" d="M529.94,-342.589C547.883,-347.658 570.058,-353.923 589.015,-359.279"/>
<polygon fill="midnightblue" stroke="midnightblue" points="588.306,-362.716 598.881,-362.067 590.209,-355.98 588.306,-362.716"/>
</g>
<!-- Node156 -->
<g id="node48" class="node"><title>Node156</title>
<g id="a_node48"><a xlink:href="lapi_8c.html#a7f93e3baf3101cad59ec61b7744a55d8" target="_top" xlink:title=" ">
<polygon fill="white" stroke="red" points="590,-247.5 590,-266.5 673,-266.5 673,-247.5 590,-247.5"/>
<text text-anchor="middle" x="631.5" y="-254.5" font-family="Helvetica,sans-Serif" font-size="10.00">lua_createtable</text>
</a>
</g>
</g>
<!-- Node155&#45;&gt;Node156 -->
<g id="edge67" class="edge"><title>Node155&#45;&gt;Node156</title>
<path fill="none" stroke="midnightblue" d="M519.197,-323.306C527.618,-319.361 537.019,-314.445 545,-309 562.93,-296.768 562.544,-287.423 581,-276 584.16,-274.044 587.555,-272.232 591.031,-270.568"/>
<polygon fill="midnightblue" stroke="midnightblue" points="592.558,-273.721 600.32,-266.51 589.756,-267.306 592.558,-273.721"/>
</g>
<!-- Node157 -->
<g id="node49" class="node"><title>Node157</title>
<g id="a_node49"><a xlink:href="lapi_8c.html#a771d300f2e64b2197d1df9bf31660ebf" target="_top" xlink:title=" ">
<polygon fill="white" stroke="red" points="591.5,-285.5 591.5,-304.5 671.5,-304.5 671.5,-285.5 591.5,-285.5"/>
<text text-anchor="middle" x="631.5" y="-292.5" font-family="Helvetica,sans-Serif" font-size="10.00">lua_pushstring</text>
</a>
</g>
</g>
<!-- Node155&#45;&gt;Node157 -->
<g id="edge68" class="edge"><title>Node155&#45;&gt;Node157</title>
<path fill="none" stroke="midnightblue" d="M529.94,-323.411C547.223,-318.528 568.433,-312.536 586.911,-307.315"/>
<polygon fill="midnightblue" stroke="midnightblue" points="587.899,-310.673 596.571,-304.586 585.996,-303.937 587.899,-310.673"/>
</g>
<!-- Node158 -->
<g id="node50" class="node"><title>Node158</title>
<g id="a_node50"><a xlink:href="lapi_8c.html#a602f61a9b583d69dc1c72c8970bd65e8" target="_top" xlink:title=" ">
<polygon fill="white" stroke="black" points="719.5,-256.5 719.5,-275.5 796.5,-275.5 796.5,-256.5 719.5,-256.5"/>
<text text-anchor="middle" x="758" y="-263.5" font-family="Helvetica,sans-Serif" font-size="10.00">lua_pushvalue</text>
</a>
</g>
</g>
<!-- Node155&#45;&gt;Node158 -->
<g id="edge69" class="edge"><title>Node155&#45;&gt;Node158</title>
<path fill="none" stroke="midnightblue" d="M545.233,-335.47C583.833,-335.662 638.167,-332.016 682,-314 701.003,-306.19 700.655,-296.013 718,-285 720.587,-283.357 723.337,-281.757 726.132,-280.227"/>
<polygon fill="midnightblue" stroke="midnightblue" points="727.792,-283.309 735.074,-275.613 724.583,-277.088 727.792,-283.309"/>
</g>
<!-- Node158&#45;&gt;Node3 -->
<g id="edge70" class="edge"><title>Node158&#45;&gt;Node3</title>
<path fill="none" stroke="midnightblue" d="M787.01,-256.411C800.682,-251.731 817.331,-246.031 832.118,-240.968"/>
<polygon fill="midnightblue" stroke="midnightblue" points="833.672,-244.136 841.999,-237.586 831.404,-237.514 833.672,-244.136"/>
</g>
</g>
</svg>
