<?xml version="1.0" encoding="UTF-8" standalone="no"?>
<!DOCTYPE svg PUBLIC "-//W3C//DTD SVG 1.1//EN"
 "http://www.w3.org/Graphics/SVG/1.1/DTD/svg11.dtd">
<!-- Generated by graphviz version 2.38.0 (20140413.2041)
 -->
<!-- Title: luaL_checklstring Pages: 1 -->
<svg width="314pt" height="712pt"
 viewBox="0.00 0.00 314.00 712.00" xmlns="http://www.w3.org/2000/svg" xmlns:xlink="http://www.w3.org/1999/xlink">
<g id="graph0" class="graph" transform="scale(1 1) rotate(0) translate(4 708)">
<title>luaL_checklstring</title>
<polygon fill="white" stroke="none" points="-4,4 -4,-708 310,-708 310,4 -4,4"/>
<!-- Node1 -->
<g id="node1" class="node"><title>Node1</title>
<g id="a_node1"><a xlink:title=" ">
<polygon fill="#bfbfbf" stroke="black" points="214,-342.5 214,-361.5 306,-361.5 306,-342.5 214,-342.5"/>
<text text-anchor="middle" x="260" y="-349.5" font-family="Helvetica,sans-Serif" font-size="10.00">luaL_checklstring</text>
</a>
</g>
</g>
<!-- Node2 -->
<g id="node2" class="node"><title>Node2</title>
<g id="a_node2"><a xlink:href="lutf8lib_8c.html#a805a182cc5dde6d73e07922e8454eaf7" target="_top" xlink:title=" ">
<polygon fill="white" stroke="black" points="108.5,-684.5 108.5,-703.5 167.5,-703.5 167.5,-684.5 108.5,-684.5"/>
<text text-anchor="middle" x="138" y="-691.5" font-family="Helvetica,sans-Serif" font-size="10.00">byteoffset</text>
</a>
</g>
</g>
<!-- Node1&#45;&gt;Node2 -->
<g id="edge1" class="edge"><title>Node1&#45;&gt;Node2</title>
<path fill="none" stroke="midnightblue" d="M259.514,-371.808C259.894,-426.466 253.83,-581.53 178,-675 174.963,-678.743 171.007,-681.802 166.782,-684.286"/>
<polygon fill="midnightblue" stroke="midnightblue" points="263.013,-371.672 259.358,-361.727 256.013,-371.78 263.013,-371.672"/>
</g>
<!-- Node3 -->
<g id="node3" class="node"><title>Node3</title>
<g id="a_node3"><a xlink:href="lutf8lib_8c.html#af4280cee645f392590f2ed63a6301320" target="_top" xlink:title=" ">
<polygon fill="white" stroke="black" points="108.5,-646.5 108.5,-665.5 167.5,-665.5 167.5,-646.5 108.5,-646.5"/>
<text text-anchor="middle" x="138" y="-653.5" font-family="Helvetica,sans-Serif" font-size="10.00">codepoint</text>
</a>
</g>
</g>
<!-- Node1&#45;&gt;Node3 -->
<g id="edge2" class="edge"><title>Node1&#45;&gt;Node3</title>
<path fill="none" stroke="midnightblue" d="M258.699,-371.779C256.921,-421.994 245.715,-556.145 178,-637 174.808,-640.811 170.67,-643.92 166.286,-646.435"/>
<polygon fill="midnightblue" stroke="midnightblue" points="262.201,-371.726 258.965,-361.638 255.204,-371.543 262.201,-371.726"/>
</g>
<!-- Node4 -->
<g id="node4" class="node"><title>Node4</title>
<g id="a_node4"><a xlink:href="liolib_8c.html#a88c73a30c7d135dfb4958b7bfaa90cc7" target="_top" xlink:title=" ">
<polygon fill="white" stroke="black" points="114.5,-608.5 114.5,-627.5 161.5,-627.5 161.5,-608.5 114.5,-608.5"/>
<text text-anchor="middle" x="138" y="-615.5" font-family="Helvetica,sans-Serif" font-size="10.00">g_write</text>
</a>
</g>
</g>
<!-- Node1&#45;&gt;Node4 -->
<g id="edge3" class="edge"><title>Node1&#45;&gt;Node4</title>
<path fill="none" stroke="midnightblue" d="M257.644,-371.859C253.547,-417.392 237.61,-530.646 178,-599 173.644,-603.995 167.674,-607.801 161.715,-610.646"/>
<polygon fill="midnightblue" stroke="midnightblue" points="261.139,-372.058 258.45,-361.81 254.161,-371.498 261.139,-372.058"/>
</g>
<!-- Node7 -->
<g id="node7" class="node"><title>Node7</title>
<g id="a_node7"><a xlink:href="lstrlib_8c.html#ab55a72bb412d6186c82fd75de44cd031" target="_top" xlink:title=" ">
<polygon fill="white" stroke="black" points="113.5,-570.5 113.5,-589.5 162.5,-589.5 162.5,-570.5 113.5,-570.5"/>
<text text-anchor="middle" x="138" y="-577.5" font-family="Helvetica,sans-Serif" font-size="10.00">gmatch</text>
</a>
</g>
</g>
<!-- Node1&#45;&gt;Node7 -->
<g id="edge6" class="edge"><title>Node1&#45;&gt;Node7</title>
<path fill="none" stroke="midnightblue" d="M256.256,-371.745C249.704,-412.075 229.659,-504.831 178,-561 173.819,-565.546 168.315,-569.129 162.765,-571.899"/>
<polygon fill="midnightblue" stroke="midnightblue" points="259.752,-372.038 257.791,-361.627 252.831,-370.989 259.752,-372.038"/>
</g>
<!-- Node8 -->
<g id="node8" class="node"><title>Node8</title>
<g id="a_node8"><a xlink:href="lutf8lib_8c.html#a43c0d087501aef0f0d064d38a29dd922" target="_top" xlink:title=" ">
<polygon fill="white" stroke="black" points="112.5,-532.5 112.5,-551.5 163.5,-551.5 163.5,-532.5 112.5,-532.5"/>
<text text-anchor="middle" x="138" y="-539.5" font-family="Helvetica,sans-Serif" font-size="10.00">iter_aux</text>
</a>
</g>
</g>
<!-- Node1&#45;&gt;Node8 -->
<g id="edge7" class="edge"><title>Node1&#45;&gt;Node8</title>
<path fill="none" stroke="midnightblue" d="M254.303,-371.666C245.125,-406.314 221.774,-478.744 178,-523 173.975,-527.07 168.902,-530.397 163.759,-533.065"/>
<polygon fill="midnightblue" stroke="midnightblue" points="257.732,-372.382 256.793,-361.829 250.946,-370.664 257.732,-372.382"/>
</g>
<!-- Node10 -->
<g id="node10" class="node"><title>Node10</title>
<g id="a_node10"><a xlink:href="lauxlib_8h.html#a3340783871347b1c95cf4ede72d5c67b" target="_top" xlink:title=" ">
<polygon fill="white" stroke="black" points="98,-494.5 98,-513.5 178,-513.5 178,-494.5 98,-494.5"/>
<text text-anchor="middle" x="138" y="-501.5" font-family="Helvetica,sans-Serif" font-size="10.00">luaL_optlstring</text>
</a>
</g>
</g>
<!-- Node1&#45;&gt;Node10 -->
<g id="edge9" class="edge"><title>Node1&#45;&gt;Node10</title>
<path fill="none" stroke="midnightblue" d="M250.37,-371.099C237.553,-397.893 211.368,-447.048 178,-480 172.343,-485.586 165.155,-490.47 158.495,-494.348"/>
<polygon fill="midnightblue" stroke="midnightblue" points="253.699,-372.243 254.754,-361.701 247.355,-369.284 253.699,-372.243"/>
</g>
<!-- Node12 -->
<g id="node12" class="node"><title>Node12</title>
<g id="a_node12"><a xlink:href="lstrlib_8c.html#acaee4c84f29e2ec7366728ca04d3569c" target="_top" xlink:title=" ">
<polygon fill="white" stroke="black" points="7.5,-456.5 7.5,-475.5 54.5,-475.5 54.5,-456.5 7.5,-456.5"/>
<text text-anchor="middle" x="31" y="-463.5" font-family="Helvetica,sans-Serif" font-size="10.00">str_rep</text>
</a>
</g>
</g>
<!-- Node1&#45;&gt;Node12 -->
<g id="edge22" class="edge"><title>Node1&#45;&gt;Node12</title>
<path fill="none" stroke="midnightblue" d="M249.054,-370.383C235.953,-392.617 210.693,-429.263 178,-447 138.57,-468.392 84.5858,-469.383 54.5338,-467.891"/>
<polygon fill="midnightblue" stroke="midnightblue" points="252.165,-371.992 254.056,-361.568 246.077,-368.538 252.165,-371.992"/>
</g>
<!-- Node14 -->
<g id="node14" class="node"><title>Node14</title>
<g id="a_node14"><a xlink:href="lstrlib_8c.html#ae561770420cfd1894054415df9d4c423" target="_top" xlink:title=" ">
<polygon fill="white" stroke="black" points="112,-418.5 112,-437.5 164,-437.5 164,-418.5 112,-418.5"/>
<text text-anchor="middle" x="138" y="-425.5" font-family="Helvetica,sans-Serif" font-size="10.00">str_byte</text>
</a>
</g>
</g>
<!-- Node1&#45;&gt;Node14 -->
<g id="edge13" class="edge"><title>Node1&#45;&gt;Node14</title>
<path fill="none" stroke="midnightblue" d="M238.672,-367.676C222.646,-379.693 199.49,-396.314 178,-409 172.422,-412.293 166.191,-415.517 160.374,-418.348"/>
<polygon fill="midnightblue" stroke="midnightblue" points="240.93,-370.356 246.787,-361.527 236.703,-364.777 240.93,-370.356"/>
</g>
<!-- Node15 -->
<g id="node15" class="node"><title>Node15</title>
<g id="a_node15"><a xlink:href="lstrlib_8c.html#a692514aa32ae2668683a4db15259d26b" target="_top" xlink:title=" ">
<polygon fill="white" stroke="black" points="103.5,-380.5 103.5,-399.5 172.5,-399.5 172.5,-380.5 103.5,-380.5"/>
<text text-anchor="middle" x="138" y="-387.5" font-family="Helvetica,sans-Serif" font-size="10.00">str_find_aux</text>
</a>
</g>
</g>
<!-- Node1&#45;&gt;Node15 -->
<g id="edge14" class="edge"><title>Node1&#45;&gt;Node15</title>
<path fill="none" stroke="midnightblue" d="M218.957,-364.68C202.743,-369.815 184.334,-375.644 169.271,-380.414"/>
<polygon fill="midnightblue" stroke="midnightblue" points="220.242,-367.945 228.719,-361.589 218.129,-361.271 220.242,-367.945"/>
</g>
<!-- Node18 -->
<g id="node18" class="node"><title>Node18</title>
<g id="a_node18"><a xlink:href="lstrlib_8c.html#ae26a9374857058119e59d0328208c2f2" target="_top" xlink:title=" ">
<polygon fill="white" stroke="black" points="108,-342.5 108,-361.5 168,-361.5 168,-342.5 108,-342.5"/>
<text text-anchor="middle" x="138" y="-349.5" font-family="Helvetica,sans-Serif" font-size="10.00">str_format</text>
</a>
</g>
</g>
<!-- Node1&#45;&gt;Node18 -->
<g id="edge17" class="edge"><title>Node1&#45;&gt;Node18</title>
<path fill="none" stroke="midnightblue" d="M203.783,-352C191.521,-352 178.991,-352 168.258,-352"/>
<polygon fill="midnightblue" stroke="midnightblue" points="203.975,-355.5 213.975,-352 203.975,-348.5 203.975,-355.5"/>
</g>
<!-- Node19 -->
<g id="node19" class="node"><title>Node19</title>
<g id="a_node19"><a xlink:href="lstrlib_8c.html#a42337c674d265175bcc2b2f3809c7339" target="_top" xlink:title=" ">
<polygon fill="white" stroke="black" points="111,-304.5 111,-323.5 165,-323.5 165,-304.5 111,-304.5"/>
<text text-anchor="middle" x="138" y="-311.5" font-family="Helvetica,sans-Serif" font-size="10.00">str_gsub</text>
</a>
</g>
</g>
<!-- Node1&#45;&gt;Node19 -->
<g id="edge18" class="edge"><title>Node1&#45;&gt;Node19</title>
<path fill="none" stroke="midnightblue" d="M219.174,-339.388C201.414,-333.765 180.986,-327.296 165.195,-322.295"/>
<polygon fill="midnightblue" stroke="midnightblue" points="218.129,-342.729 228.719,-342.411 220.242,-336.055 218.129,-342.729"/>
</g>
<!-- Node20 -->
<g id="node20" class="node"><title>Node20</title>
<g id="a_node20"><a xlink:href="lstrlib_8c.html#a357ce37478dde24252724e3c4c66ce11" target="_top" xlink:title=" ">
<polygon fill="white" stroke="black" points="115,-266.5 115,-285.5 161,-285.5 161,-266.5 115,-266.5"/>
<text text-anchor="middle" x="138" y="-273.5" font-family="Helvetica,sans-Serif" font-size="10.00">str_len</text>
</a>
</g>
</g>
<!-- Node1&#45;&gt;Node20 -->
<g id="edge19" class="edge"><title>Node1&#45;&gt;Node20</title>
<path fill="none" stroke="midnightblue" d="M238.672,-336.324C222.646,-324.307 199.49,-307.686 178,-295 172.422,-291.707 166.191,-288.483 160.374,-285.652"/>
<polygon fill="midnightblue" stroke="midnightblue" points="236.703,-339.223 246.787,-342.473 240.93,-333.644 236.703,-339.223"/>
</g>
<!-- Node21 -->
<g id="node21" class="node"><title>Node21</title>
<g id="a_node21"><a xlink:href="lstrlib_8c.html#ab2235f81205d0482d03c8ae456a98992" target="_top" xlink:title=" ">
<polygon fill="white" stroke="black" points="110,-228.5 110,-247.5 166,-247.5 166,-228.5 110,-228.5"/>
<text text-anchor="middle" x="138" y="-235.5" font-family="Helvetica,sans-Serif" font-size="10.00">str_lower</text>
</a>
</g>
</g>
<!-- Node1&#45;&gt;Node21 -->
<g id="edge20" class="edge"><title>Node1&#45;&gt;Node21</title>
<path fill="none" stroke="midnightblue" d="M246.908,-333.711C232.48,-312.988 206.678,-279.214 178,-257 173.356,-253.403 167.921,-250.233 162.609,-247.566"/>
<polygon fill="midnightblue" stroke="midnightblue" points="244.185,-335.93 252.706,-342.226 249.971,-331.99 244.185,-335.93"/>
</g>
<!-- Node22 -->
<g id="node22" class="node"><title>Node22</title>
<g id="a_node22"><a xlink:href="lstrlib_8c.html#abcf8553ae8937fd4f4bf85c72f528710" target="_top" xlink:title=" ">
<polygon fill="white" stroke="black" points="111,-190.5 111,-209.5 165,-209.5 165,-190.5 111,-190.5"/>
<text text-anchor="middle" x="138" y="-197.5" font-family="Helvetica,sans-Serif" font-size="10.00">str_pack</text>
</a>
</g>
</g>
<!-- Node1&#45;&gt;Node22 -->
<g id="edge21" class="edge"><title>Node1&#45;&gt;Node22</title>
<path fill="none" stroke="midnightblue" d="M251.512,-332.874C239.662,-304.725 214.162,-251.923 178,-219 173.99,-215.349 169.151,-212.249 164.266,-209.679"/>
<polygon fill="midnightblue" stroke="midnightblue" points="248.364,-334.423 255.38,-342.363 254.846,-331.781 248.364,-334.423"/>
</g>
<!-- Node23 -->
<g id="node23" class="node"><title>Node23</title>
<g id="a_node23"><a xlink:href="lstrlib_8c.html#a4b2ffac60e817b9bfc54b32f8da3a6b4" target="_top" xlink:title=" ">
<polygon fill="white" stroke="black" points="106,-152.5 106,-171.5 170,-171.5 170,-152.5 106,-152.5"/>
<text text-anchor="middle" x="138" y="-159.5" font-family="Helvetica,sans-Serif" font-size="10.00">str_reverse</text>
</a>
</g>
</g>
<!-- Node1&#45;&gt;Node23 -->
<g id="edge23" class="edge"><title>Node1&#45;&gt;Node23</title>
<path fill="none" stroke="midnightblue" d="M254.303,-332.334C245.125,-297.686 221.774,-225.256 178,-181 174.293,-177.252 169.697,-174.133 164.975,-171.579"/>
<polygon fill="midnightblue" stroke="midnightblue" points="250.946,-333.336 256.793,-342.171 257.732,-331.618 250.946,-333.336"/>
</g>
<!-- Node24 -->
<g id="node24" class="node"><title>Node24</title>
<g id="a_node24"><a xlink:href="lstrlib_8c.html#a039b391d5f43533a0ce750c5e40d7752" target="_top" xlink:title=" ">
<polygon fill="white" stroke="black" points="113.5,-114.5 113.5,-133.5 162.5,-133.5 162.5,-114.5 113.5,-114.5"/>
<text text-anchor="middle" x="138" y="-121.5" font-family="Helvetica,sans-Serif" font-size="10.00">str_sub</text>
</a>
</g>
</g>
<!-- Node1&#45;&gt;Node24 -->
<g id="edge24" class="edge"><title>Node1&#45;&gt;Node24</title>
<path fill="none" stroke="midnightblue" d="M256.256,-332.255C249.704,-291.925 229.659,-199.169 178,-143 173.819,-138.454 168.315,-134.871 162.765,-132.101"/>
<polygon fill="midnightblue" stroke="midnightblue" points="252.831,-333.011 257.791,-342.373 259.752,-331.962 252.831,-333.011"/>
</g>
<!-- Node25 -->
<g id="node25" class="node"><title>Node25</title>
<g id="a_node25"><a xlink:href="lstrlib_8c.html#a3f3c1925e7829cbe972a744fa9168ec3" target="_top" xlink:title=" ">
<polygon fill="white" stroke="black" points="105.5,-76.5 105.5,-95.5 170.5,-95.5 170.5,-76.5 105.5,-76.5"/>
<text text-anchor="middle" x="138" y="-83.5" font-family="Helvetica,sans-Serif" font-size="10.00">str_unpack</text>
</a>
</g>
</g>
<!-- Node1&#45;&gt;Node25 -->
<g id="edge25" class="edge"><title>Node1&#45;&gt;Node25</title>
<path fill="none" stroke="midnightblue" d="M257.644,-332.141C253.547,-286.608 237.61,-173.354 178,-105 174.733,-101.254 170.558,-98.1761 166.161,-95.6715"/>
<polygon fill="midnightblue" stroke="midnightblue" points="254.161,-332.502 258.45,-342.19 261.139,-331.942 254.161,-332.502"/>
</g>
<!-- Node26 -->
<g id="node26" class="node"><title>Node26</title>
<g id="a_node26"><a xlink:href="lstrlib_8c.html#a38ed99b74af58070449ca344a7351f6a" target="_top" xlink:title=" ">
<polygon fill="white" stroke="black" points="109.5,-38.5 109.5,-57.5 166.5,-57.5 166.5,-38.5 109.5,-38.5"/>
<text text-anchor="middle" x="138" y="-45.5" font-family="Helvetica,sans-Serif" font-size="10.00">str_upper</text>
</a>
</g>
</g>
<!-- Node1&#45;&gt;Node26 -->
<g id="edge26" class="edge"><title>Node1&#45;&gt;Node26</title>
<path fill="none" stroke="midnightblue" d="M258.699,-332.221C256.921,-282.006 245.715,-147.855 178,-67 174.808,-63.1891 170.67,-60.0803 166.286,-57.5649"/>
<polygon fill="midnightblue" stroke="midnightblue" points="255.204,-332.457 258.965,-342.362 262.201,-332.274 255.204,-332.457"/>
</g>
<!-- Node27 -->
<g id="node27" class="node"><title>Node27</title>
<g id="a_node27"><a xlink:href="lutf8lib_8c.html#a840e09db1ade39da79b0b4dece0e46eb" target="_top" xlink:title=" ">
<polygon fill="white" stroke="black" points="118,-0.5 118,-19.5 158,-19.5 158,-0.5 118,-0.5"/>
<text text-anchor="middle" x="138" y="-7.5" font-family="Helvetica,sans-Serif" font-size="10.00">utflen</text>
</a>
</g>
</g>
<!-- Node1&#45;&gt;Node27 -->
<g id="edge27" class="edge"><title>Node1&#45;&gt;Node27</title>
<path fill="none" stroke="midnightblue" d="M259.514,-332.192C259.894,-277.534 253.83,-122.47 178,-29 172.97,-22.8002 165.419,-18.4771 158.297,-15.5395"/>
<polygon fill="midnightblue" stroke="midnightblue" points="256.013,-332.22 259.358,-342.273 263.013,-332.328 256.013,-332.22"/>
</g>
<!-- Node5 -->
<g id="node5" class="node"><title>Node5</title>
<g id="a_node5"><a xlink:href="liolib_8c.html#adba67ef94aaa532d9224ca04f8126ac2" target="_top" xlink:title=" ">
<polygon fill="white" stroke="black" points="9,-646.5 9,-665.5 53,-665.5 53,-646.5 9,-646.5"/>
<text text-anchor="middle" x="31" y="-653.5" font-family="Helvetica,sans-Serif" font-size="10.00">f_write</text>
</a>
</g>
</g>
<!-- Node4&#45;&gt;Node5 -->
<g id="edge4" class="edge"><title>Node4&#45;&gt;Node5</title>
<path fill="none" stroke="midnightblue" d="M105,-629.581C88.1398,-635.683 67.933,-642.996 53.058,-648.379"/>
<polygon fill="midnightblue" stroke="midnightblue" points="106.263,-632.846 114.475,-626.152 103.881,-626.264 106.263,-632.846"/>
</g>
<!-- Node6 -->
<g id="node6" class="node"><title>Node6</title>
<g id="a_node6"><a xlink:href="liolib_8c.html#ada35daf906cc262cc6944cad92b93ac3" target="_top" xlink:title=" ">
<polygon fill="white" stroke="black" points="6,-608.5 6,-627.5 56,-627.5 56,-608.5 6,-608.5"/>
<text text-anchor="middle" x="31" y="-615.5" font-family="Helvetica,sans-Serif" font-size="10.00">io_write</text>
</a>
</g>
</g>
<!-- Node4&#45;&gt;Node6 -->
<g id="edge5" class="edge"><title>Node4&#45;&gt;Node6</title>
<path fill="none" stroke="midnightblue" d="M104.256,-618C88.7571,-618 70.5688,-618 56.3179,-618"/>
<polygon fill="midnightblue" stroke="midnightblue" points="104.475,-621.5 114.475,-618 104.475,-614.5 104.475,-621.5"/>
</g>
<!-- Node9 -->
<g id="node9" class="node"><title>Node9</title>
<g id="a_node9"><a xlink:href="lutf8lib_8c.html#aaead346d7a9236dc0d97fe7914cae6e5" target="_top" xlink:title=" ">
<polygon fill="white" stroke="black" points="0,-570.5 0,-589.5 62,-589.5 62,-570.5 0,-570.5"/>
<text text-anchor="middle" x="31" y="-577.5" font-family="Helvetica,sans-Serif" font-size="10.00">iter_codes</text>
</a>
</g>
</g>
<!-- Node8&#45;&gt;Node9 -->
<g id="edge8" class="edge"><title>Node8&#45;&gt;Node9</title>
<path fill="none" stroke="midnightblue" d="M102.779,-554.385C88.3288,-559.614 71.7672,-565.608 58.2991,-570.482"/>
<polygon fill="midnightblue" stroke="midnightblue" points="104.17,-557.604 112.382,-550.909 101.788,-551.021 104.17,-557.604"/>
</g>
<!-- Node11 -->
<g id="node11" class="node"><title>Node11</title>
<g id="a_node11"><a xlink:href="loslib_8c.html#a6520f2562b500aee87a6a475995adefb" target="_top" xlink:title=" ">
<polygon fill="white" stroke="black" points="5.5,-532.5 5.5,-551.5 56.5,-551.5 56.5,-532.5 5.5,-532.5"/>
<text text-anchor="middle" x="31" y="-539.5" font-family="Helvetica,sans-Serif" font-size="10.00">os_date</text>
</a>
</g>
</g>
<!-- Node10&#45;&gt;Node11 -->
<g id="edge10" class="edge"><title>Node10&#45;&gt;Node11</title>
<path fill="none" stroke="midnightblue" d="M100.787,-517.106C86.2322,-522.373 69.8239,-528.311 56.6842,-533.067"/>
<polygon fill="midnightblue" stroke="midnightblue" points="102.292,-520.283 110.504,-513.589 99.9098,-513.701 102.292,-520.283"/>
</g>
<!-- Node10&#45;&gt;Node12 -->
<g id="edge11" class="edge"><title>Node10&#45;&gt;Node12</title>
<path fill="none" stroke="midnightblue" d="M100.781,-490.892C85.4373,-485.339 68.0348,-479.041 54.5735,-474.169"/>
<polygon fill="midnightblue" stroke="midnightblue" points="99.9098,-494.299 110.504,-494.411 102.292,-487.717 99.9098,-494.299"/>
</g>
<!-- Node13 -->
<g id="node13" class="node"><title>Node13</title>
<g id="a_node13"><a xlink:href="ltablib_8c.html#add6973c515a288f41265aca8e0ae6412" target="_top" xlink:title=" ">
<polygon fill="white" stroke="black" points="6.5,-494.5 6.5,-513.5 55.5,-513.5 55.5,-494.5 6.5,-494.5"/>
<text text-anchor="middle" x="31" y="-501.5" font-family="Helvetica,sans-Serif" font-size="10.00">tconcat</text>
</a>
</g>
</g>
<!-- Node10&#45;&gt;Node13 -->
<g id="edge12" class="edge"><title>Node10&#45;&gt;Node13</title>
<path fill="none" stroke="midnightblue" d="M87.7256,-504C76.5205,-504 65.1187,-504 55.5722,-504"/>
<polygon fill="midnightblue" stroke="midnightblue" points="87.9019,-507.5 97.9019,-504 87.9018,-500.5 87.9019,-507.5"/>
</g>
<!-- Node16 -->
<g id="node16" class="node"><title>Node16</title>
<g id="a_node16"><a xlink:href="lstrlib_8c.html#a362a4bc9ba81ce87253cc3d74f015808" target="_top" xlink:title=" ">
<polygon fill="white" stroke="black" points="7,-399.5 7,-418.5 55,-418.5 55,-399.5 7,-399.5"/>
<text text-anchor="middle" x="31" y="-406.5" font-family="Helvetica,sans-Serif" font-size="10.00">str_find</text>
</a>
</g>
</g>
<!-- Node15&#45;&gt;Node16 -->
<g id="edge15" class="edge"><title>Node15&#45;&gt;Node16</title>
<path fill="none" stroke="midnightblue" d="M93.6384,-397.846C80.4813,-400.227 66.5342,-402.751 55.2408,-404.795"/>
<polygon fill="midnightblue" stroke="midnightblue" points="94.2717,-401.289 103.489,-396.064 93.0252,-394.401 94.2717,-401.289"/>
</g>
<!-- Node17 -->
<g id="node17" class="node"><title>Node17</title>
<g id="a_node17"><a xlink:href="lstrlib_8c.html#a4b605e43b8f5738db9eae902bbc00f00" target="_top" xlink:title=" ">
<polygon fill="white" stroke="black" points="1,-361.5 1,-380.5 61,-380.5 61,-361.5 1,-361.5"/>
<text text-anchor="middle" x="31" y="-368.5" font-family="Helvetica,sans-Serif" font-size="10.00">str_match</text>
</a>
</g>
</g>
<!-- Node15&#45;&gt;Node17 -->
<g id="edge16" class="edge"><title>Node15&#45;&gt;Node17</title>
<path fill="none" stroke="midnightblue" d="M93.3517,-382.102C82.5496,-380.147 71.2326,-378.099 61.3018,-376.302"/>
<polygon fill="midnightblue" stroke="midnightblue" points="93.0252,-385.599 103.489,-383.936 94.2717,-378.711 93.0252,-385.599"/>
</g>
</g>
</svg>
