<?xml version="1.0" encoding="UTF-8" standalone="no"?>
<!DOCTYPE svg PUBLIC "-//W3C//DTD SVG 1.1//EN"
 "http://www.w3.org/Graphics/SVG/1.1/DTD/svg11.dtd">
<!-- Generated by graphviz version 2.38.0 (20140413.2041)
 -->
<!-- Title: luaL_addstring Pages: 1 -->
<svg width="787pt" height="180pt"
 viewBox="0.00 0.00 787.00 180.00" xmlns="http://www.w3.org/2000/svg" xmlns:xlink="http://www.w3.org/1999/xlink">
<g id="graph0" class="graph" transform="scale(1 1) rotate(0) translate(4 176)">
<title>luaL_addstring</title>
<polygon fill="white" stroke="none" points="-4,4 -4,-176 783,-176 783,4 -4,4"/>
<!-- Node1 -->
<g id="node1" class="node"><title>Node1</title>
<g id="a_node1"><a xlink:title=" ">
<polygon fill="#bfbfbf" stroke="black" points="699,-113.5 699,-132.5 779,-132.5 779,-113.5 699,-113.5"/>
<text text-anchor="middle" x="739" y="-120.5" font-family="Helvetica,sans-Serif" font-size="10.00">luaL_addstring</text>
</a>
</g>
</g>
<!-- Node2 -->
<g id="node2" class="node"><title>Node2</title>
<g id="a_node2"><a xlink:href="lstrlib_8c.html#a7c264397b481e5d854b43aaa37b0386f" target="_top" xlink:title=" ">
<polygon fill="white" stroke="black" points="601,-142.5 601,-161.5 663,-161.5 663,-142.5 601,-142.5"/>
<text text-anchor="middle" x="632" y="-149.5" font-family="Helvetica,sans-Serif" font-size="10.00">addquoted</text>
</a>
</g>
</g>
<!-- Node1&#45;&gt;Node2 -->
<g id="edge1" class="edge"><title>Node1&#45;&gt;Node2</title>
<path fill="none" stroke="midnightblue" d="M693.628,-135.255C683.318,-138.103 672.579,-141.069 663.055,-143.699"/>
<polygon fill="midnightblue" stroke="midnightblue" points="694.621,-138.612 703.328,-132.576 692.757,-131.865 694.621,-138.612"/>
</g>
<!-- Node5 -->
<g id="node5" class="node"><title>Node5</title>
<g id="a_node5"><a xlink:href="lauxlib_8h.html#a46672be75da57e1a464c5c6d80f19064" target="_top" xlink:title=" ">
<polygon fill="white" stroke="black" points="601.5,-85.5 601.5,-104.5 662.5,-104.5 662.5,-85.5 601.5,-85.5"/>
<text text-anchor="middle" x="632" y="-92.5" font-family="Helvetica,sans-Serif" font-size="10.00">luaL_gsub</text>
</a>
</g>
</g>
<!-- Node1&#45;&gt;Node5 -->
<g id="edge4" class="edge"><title>Node1&#45;&gt;Node5</title>
<path fill="none" stroke="midnightblue" d="M692.312,-110.816C682.298,-108.146 671.947,-105.386 662.751,-102.934"/>
<polygon fill="midnightblue" stroke="midnightblue" points="691.594,-114.247 702.159,-113.442 693.398,-107.484 691.594,-114.247"/>
</g>
<!-- Node3 -->
<g id="node3" class="node"><title>Node3</title>
<g id="a_node3"><a xlink:href="lstrlib_8c.html#a2ff59847baa24a18f7d78d47dc1d3220" target="_top" xlink:title=" ">
<polygon fill="white" stroke="black" points="504.5,-152.5 504.5,-171.5 560.5,-171.5 560.5,-152.5 504.5,-152.5"/>
<text text-anchor="middle" x="532.5" y="-159.5" font-family="Helvetica,sans-Serif" font-size="10.00">addliteral</text>
</a>
</g>
</g>
<!-- Node2&#45;&gt;Node3 -->
<g id="edge2" class="edge"><title>Node2&#45;&gt;Node3</title>
<path fill="none" stroke="midnightblue" d="M590.984,-156.104C580.772,-157.152 570.031,-158.253 560.634,-159.217"/>
<polygon fill="midnightblue" stroke="midnightblue" points="591.361,-159.584 600.951,-155.082 590.646,-152.621 591.361,-159.584"/>
</g>
<!-- Node4 -->
<g id="node4" class="node"><title>Node4</title>
<g id="a_node4"><a xlink:href="lstrlib_8c.html#ae26a9374857058119e59d0328208c2f2" target="_top" xlink:title=" ">
<polygon fill="white" stroke="black" points="397,-152.5 397,-171.5 457,-171.5 457,-152.5 397,-152.5"/>
<text text-anchor="middle" x="427" y="-159.5" font-family="Helvetica,sans-Serif" font-size="10.00">str_format</text>
</a>
</g>
</g>
<!-- Node3&#45;&gt;Node4 -->
<g id="edge3" class="edge"><title>Node3&#45;&gt;Node4</title>
<path fill="none" stroke="midnightblue" d="M494.014,-162C481.886,-162 468.623,-162 457.188,-162"/>
<polygon fill="midnightblue" stroke="midnightblue" points="494.307,-165.5 504.307,-162 494.307,-158.5 494.307,-165.5"/>
</g>
<!-- Node6 -->
<g id="node6" class="node"><title>Node6</title>
<g id="a_node6"><a xlink:href="loadlib_8c.html#a91ac5b5231cf039af46226806dcc3884" target="_top" xlink:title=" ">
<polygon fill="white" stroke="black" points="400.5,-0.5 400.5,-19.5 453.5,-19.5 453.5,-0.5 400.5,-0.5"/>
<text text-anchor="middle" x="427" y="-7.5" font-family="Helvetica,sans-Serif" font-size="10.00">loadfunc</text>
</a>
</g>
</g>
<!-- Node5&#45;&gt;Node6 -->
<g id="edge5" class="edge"><title>Node5&#45;&gt;Node6</title>
<path fill="none" stroke="midnightblue" d="M598.95,-81.35C588.169,-76.7727 576.07,-71.651 565,-67 525.1,-50.2361 478.568,-30.927 451.292,-19.6328"/>
<polygon fill="midnightblue" stroke="midnightblue" points="597.84,-84.6813 608.412,-85.3715 600.578,-78.2389 597.84,-84.6813"/>
</g>
<!-- Node11 -->
<g id="node11" class="node"><title>Node11</title>
<g id="a_node11"><a xlink:href="loadlib_8c.html#a9aa5433859d896c2db1a7af366e04b65" target="_top" xlink:title=" ">
<polygon fill="white" stroke="black" points="500,-76.5 500,-95.5 565,-95.5 565,-76.5 500,-76.5"/>
<text text-anchor="middle" x="532.5" y="-83.5" font-family="Helvetica,sans-Serif" font-size="10.00">searchpath</text>
</a>
</g>
</g>
<!-- Node5&#45;&gt;Node11 -->
<g id="edge11" class="edge"><title>Node5&#45;&gt;Node11</title>
<path fill="none" stroke="midnightblue" d="M591.506,-91.3544C582.788,-90.5496 573.659,-89.707 565.292,-88.9347"/>
<polygon fill="midnightblue" stroke="midnightblue" points="591.203,-94.8412 601.482,-92.2753 591.846,-87.8708 591.203,-94.8412"/>
</g>
<!-- Node15 -->
<g id="node15" class="node"><title>Node15</title>
<g id="a_node15"><a xlink:href="loadlib_8c.html#ad3773b767d767b19dc36cab61cf5c57d" target="_top" xlink:title=" ">
<polygon fill="white" stroke="black" points="157,-104.5 157,-123.5 206,-123.5 206,-104.5 157,-104.5"/>
<text text-anchor="middle" x="181.5" y="-111.5" font-family="Helvetica,sans-Serif" font-size="10.00">setpath</text>
</a>
</g>
</g>
<!-- Node5&#45;&gt;Node15 -->
<g id="edge18" class="edge"><title>Node5&#45;&gt;Node15</title>
<path fill="none" stroke="midnightblue" d="M591.039,-101.887C582.472,-103.13 573.454,-104.263 565,-105 429.675,-116.796 266.469,-115.489 206.281,-114.486"/>
<polygon fill="midnightblue" stroke="midnightblue" points="591.841,-105.305 601.198,-100.335 590.784,-98.385 591.841,-105.305"/>
</g>
<!-- Node7 -->
<g id="node7" class="node"><title>Node7</title>
<g id="a_node7"><a xlink:href="loadlib_8c.html#a9a915ea950c831cee2f1e7b0a3bd9005" target="_top" xlink:title=" ">
<polygon fill="white" stroke="black" points="279.5,-38.5 279.5,-57.5 345.5,-57.5 345.5,-38.5 279.5,-38.5"/>
<text text-anchor="middle" x="312.5" y="-45.5" font-family="Helvetica,sans-Serif" font-size="10.00">searcher_C</text>
</a>
</g>
</g>
<!-- Node6&#45;&gt;Node7 -->
<g id="edge6" class="edge"><title>Node6&#45;&gt;Node7</title>
<path fill="none" stroke="midnightblue" d="M390.995,-21.824C375.136,-27.1806 356.637,-33.4292 341.691,-38.4777"/>
<polygon fill="midnightblue" stroke="midnightblue" points="392.118,-25.139 400.472,-18.6228 389.878,-18.5071 392.118,-25.139"/>
</g>
<!-- Node10 -->
<g id="node10" class="node"><title>Node10</title>
<g id="a_node10"><a xlink:href="loadlib_8c.html#a1ec05cd98a045c271aeda9f9c6041e1c" target="_top" xlink:title=" ">
<polygon fill="white" stroke="black" points="271,-0.5 271,-19.5 354,-19.5 354,-0.5 271,-0.5"/>
<text text-anchor="middle" x="312.5" y="-7.5" font-family="Helvetica,sans-Serif" font-size="10.00">searcher_Croot</text>
</a>
</g>
</g>
<!-- Node6&#45;&gt;Node10 -->
<g id="edge9" class="edge"><title>Node6&#45;&gt;Node10</title>
<path fill="none" stroke="midnightblue" d="M390.395,-10C378.945,-10 366.169,-10 354.371,-10"/>
<polygon fill="midnightblue" stroke="midnightblue" points="390.472,-13.5001 400.472,-10 390.472,-6.5001 390.472,-13.5001"/>
</g>
<!-- Node8 -->
<g id="node8" class="node"><title>Node8</title>
<g id="a_node8"><a xlink:href="loadlib_8c.html#a8fc66c8b852ee2960dc20797521d1d9e" target="_top" xlink:title=" ">
<polygon fill="white" stroke="black" points="128,-47.5 128,-66.5 235,-66.5 235,-47.5 128,-47.5"/>
<text text-anchor="middle" x="181.5" y="-54.5" font-family="Helvetica,sans-Serif" font-size="10.00">createsearcherstable</text>
</a>
</g>
</g>
<!-- Node7&#45;&gt;Node8 -->
<g id="edge7" class="edge"><title>Node7&#45;&gt;Node8</title>
<path fill="none" stroke="midnightblue" d="M269.185,-50.9522C258.298,-51.7117 246.452,-52.5383 235.112,-53.3294"/>
<polygon fill="midnightblue" stroke="midnightblue" points="269.548,-54.4355 279.281,-50.2479 269.061,-47.4524 269.548,-54.4355"/>
</g>
<!-- Node9 -->
<g id="node9" class="node"><title>Node9</title>
<g id="a_node9"><a xlink:href="lualib_8h.html#a05e0befc0439f926b6152129ab4f8dea" target="_top" xlink:title=" ">
<polygon fill="white" stroke="black" points="0,-75.5 0,-94.5 92,-94.5 92,-75.5 0,-75.5"/>
<text text-anchor="middle" x="46" y="-82.5" font-family="Helvetica,sans-Serif" font-size="10.00">luaopen_package</text>
</a>
</g>
</g>
<!-- Node8&#45;&gt;Node9 -->
<g id="edge8" class="edge"><title>Node8&#45;&gt;Node9</title>
<path fill="none" stroke="midnightblue" d="M125.078,-68.624C114.186,-70.9085 102.879,-73.28 92.3644,-75.4854"/>
<polygon fill="midnightblue" stroke="midnightblue" points="125.862,-72.036 134.93,-66.5577 124.425,-65.185 125.862,-72.036"/>
</g>
<!-- Node10&#45;&gt;Node8 -->
<g id="edge10" class="edge"><title>Node10&#45;&gt;Node8</title>
<path fill="none" stroke="midnightblue" d="M275.788,-23.0115C254.642,-30.7158 228.302,-40.3124 209.009,-47.3417"/>
<polygon fill="midnightblue" stroke="midnightblue" points="277.197,-26.223 285.395,-19.5112 274.801,-19.646 277.197,-26.223"/>
</g>
<!-- Node12 -->
<g id="node12" class="node"><title>Node12</title>
<g id="a_node12"><a xlink:href="loadlib_8c.html#af8f7333f1a59f3d7aab8c9b79b7a4ab2" target="_top" xlink:title=" ">
<polygon fill="white" stroke="black" points="405,-76.5 405,-95.5 449,-95.5 449,-76.5 405,-76.5"/>
<text text-anchor="middle" x="427" y="-83.5" font-family="Helvetica,sans-Serif" font-size="10.00">findfile</text>
</a>
</g>
</g>
<!-- Node11&#45;&gt;Node12 -->
<g id="edge12" class="edge"><title>Node11&#45;&gt;Node12</title>
<path fill="none" stroke="midnightblue" d="M489.559,-86C475.718,-86 460.906,-86 449.281,-86"/>
<polygon fill="midnightblue" stroke="midnightblue" points="489.884,-89.5001 499.884,-86 489.884,-82.5001 489.884,-89.5001"/>
</g>
<!-- Node14 -->
<g id="node14" class="node"><title>Node14</title>
<g id="a_node14"><a xlink:href="loadlib_8c.html#a3e9eb01c860846336b6f50d6c77448a2" target="_top" xlink:title=" ">
<polygon fill="white" stroke="black" points="390,-38.5 390,-57.5 464,-57.5 464,-38.5 390,-38.5"/>
<text text-anchor="middle" x="427" y="-45.5" font-family="Helvetica,sans-Serif" font-size="10.00">ll_searchpath</text>
</a>
</g>
</g>
<!-- Node11&#45;&gt;Node14 -->
<g id="edge17" class="edge"><title>Node11&#45;&gt;Node14</title>
<path fill="none" stroke="midnightblue" d="M495.771,-72.882C482.082,-67.8561 466.733,-62.2209 454.109,-57.5859"/>
<polygon fill="midnightblue" stroke="midnightblue" points="494.789,-76.2499 505.383,-76.411 497.202,-69.6788 494.789,-76.2499"/>
</g>
<!-- Node12&#45;&gt;Node7 -->
<g id="edge13" class="edge"><title>Node12&#45;&gt;Node7</title>
<path fill="none" stroke="midnightblue" d="M395.027,-75.5381C378.381,-69.9153 358.006,-63.033 341.789,-57.5553"/>
<polygon fill="midnightblue" stroke="midnightblue" points="394.245,-78.9682 404.84,-78.8525 396.486,-72.3363 394.245,-78.9682"/>
</g>
<!-- Node12&#45;&gt;Node10 -->
<g id="edge14" class="edge"><title>Node12&#45;&gt;Node10</title>
<path fill="none" stroke="midnightblue" d="M396.403,-71.4137C394.181,-70.0084 392.02,-68.5324 390,-67 371.466,-52.9388 372.859,-42.6221 354,-29 349.089,-25.4529 343.411,-22.3035 337.889,-19.6387"/>
<polygon fill="midnightblue" stroke="midnightblue" points="394.705,-74.4747 405.113,-76.4536 398.21,-68.4159 394.705,-74.4747"/>
</g>
<!-- Node13 -->
<g id="node13" class="node"><title>Node13</title>
<g id="a_node13"><a xlink:href="loadlib_8c.html#a8b2f1d86fe37c0829143579a6b568243" target="_top" xlink:title=" ">
<polygon fill="white" stroke="black" points="275,-76.5 275,-95.5 350,-95.5 350,-76.5 275,-76.5"/>
<text text-anchor="middle" x="312.5" y="-83.5" font-family="Helvetica,sans-Serif" font-size="10.00">searcher_Lua</text>
</a>
</g>
</g>
<!-- Node12&#45;&gt;Node13 -->
<g id="edge15" class="edge"><title>Node12&#45;&gt;Node13</title>
<path fill="none" stroke="midnightblue" d="M394.805,-86C380.933,-86 364.507,-86 350.062,-86"/>
<polygon fill="midnightblue" stroke="midnightblue" points="394.84,-89.5001 404.84,-86 394.84,-82.5001 394.84,-89.5001"/>
</g>
<!-- Node13&#45;&gt;Node8 -->
<g id="edge16" class="edge"><title>Node13&#45;&gt;Node8</title>
<path fill="none" stroke="midnightblue" d="M264.764,-75.4934C251.819,-72.5834 237.84,-69.4407 225.142,-66.5861"/>
<polygon fill="midnightblue" stroke="midnightblue" points="264.355,-78.9887 274.879,-77.7673 265.89,-72.1592 264.355,-78.9887"/>
</g>
<!-- Node15&#45;&gt;Node9 -->
<g id="edge19" class="edge"><title>Node15&#45;&gt;Node9</title>
<path fill="none" stroke="midnightblue" d="M146.91,-106.703C129.911,-103.011 109.064,-98.4821 90.8198,-94.5189"/>
<polygon fill="midnightblue" stroke="midnightblue" points="146.425,-110.18 156.94,-108.882 147.911,-103.339 146.425,-110.18"/>
</g>
</g>
</svg>
