<?xml version="1.0" encoding="UTF-8" standalone="no"?>
<!DOCTYPE svg PUBLIC "-//W3C//DTD SVG 1.1//EN"
 "http://www.w3.org/Graphics/SVG/1.1/DTD/svg11.dtd">
<!-- Generated by graphviz version 2.38.0 (20140413.2041)
 -->
<!-- Title: luaB_tonumber Pages: 1 -->
<svg width="1432pt" height="978pt"
 viewBox="0.00 0.00 1432.00 978.00" xmlns="http://www.w3.org/2000/svg" xmlns:xlink="http://www.w3.org/1999/xlink">
<g id="graph0" class="graph" transform="scale(1 1) rotate(0) translate(4 974)">
<title>luaB_tonumber</title>
<polygon fill="white" stroke="none" points="-4,4 -4,-974 1428,-974 1428,4 -4,4"/>
<!-- Node1 -->
<g id="node1" class="node"><title>Node1</title>
<g id="a_node1"><a xlink:title=" ">
<polygon fill="#bfbfbf" stroke="black" points="0,-393.5 0,-412.5 82,-412.5 82,-393.5 0,-393.5"/>
<text text-anchor="middle" x="41" y="-400.5" font-family="Helvetica,sans-Serif" font-size="10.00">luaB_tonumber</text>
</a>
</g>
</g>
<!-- Node2 -->
<g id="node2" class="node"><title>Node2</title>
<g id="a_node2"><a xlink:href="lbaselib_8c.html#a78f1ffc60cf4b6e7e1cb7089eb11072d" target="_top" xlink:title=" ">
<polygon fill="white" stroke="black" points="140.5,-950.5 140.5,-969.5 194.5,-969.5 194.5,-950.5 140.5,-950.5"/>
<text text-anchor="middle" x="167.5" y="-957.5" font-family="Helvetica,sans-Serif" font-size="10.00">b_str2int</text>
</a>
</g>
</g>
<!-- Node1&#45;&gt;Node2 -->
<g id="edge1" class="edge"><title>Node1&#45;&gt;Node2</title>
<path fill="none" stroke="midnightblue" d="M42.0754,-412.735C42.7677,-478.227 49.7075,-854.601 118,-941 121.47,-945.39 126.096,-948.767 131.116,-951.366"/>
<polygon fill="midnightblue" stroke="midnightblue" points="129.838,-954.625 140.414,-955.252 132.537,-948.166 129.838,-954.625"/>
</g>
<!-- Node4 -->
<g id="node4" class="node"><title>Node4</title>
<g id="a_node4"><a xlink:href="lapi_8c.html#adcec46ff05dfee9a3c4c05828b40c213" target="_top" xlink:title=" ">
<polygon fill="white" stroke="black" points="125,-912.5 125,-931.5 210,-931.5 210,-912.5 125,-912.5"/>
<text text-anchor="middle" x="167.5" y="-919.5" font-family="Helvetica,sans-Serif" font-size="10.00">lua_pushinteger</text>
</a>
</g>
</g>
<!-- Node1&#45;&gt;Node4 -->
<g id="edge3" class="edge"><title>Node1&#45;&gt;Node4</title>
<path fill="none" stroke="midnightblue" d="M42.2946,-412.686C44.3531,-474.733 58.3054,-816.438 118,-898 120.559,-901.497 123.771,-904.513 127.316,-907.107"/>
<polygon fill="midnightblue" stroke="midnightblue" points="125.685,-910.212 136.046,-912.425 129.327,-904.234 125.685,-910.212"/>
</g>
<!-- Node5 -->
<g id="node5" class="node"><title>Node5</title>
<g id="a_node5"><a xlink:href="lapi_8c.html#a1b4cd0d80f51e5545a97ca6c28c03c50" target="_top" xlink:title=" ">
<polygon fill="white" stroke="black" points="985.5,-798.5 985.5,-817.5 1050.5,-817.5 1050.5,-798.5 985.5,-798.5"/>
<text text-anchor="middle" x="1018" y="-805.5" font-family="Helvetica,sans-Serif" font-size="10.00">lua_pushnil</text>
</a>
</g>
</g>
<!-- Node1&#45;&gt;Node5 -->
<g id="edge4" class="edge"><title>Node1&#45;&gt;Node5</title>
<path fill="none" stroke="midnightblue" d="M43.1225,-412.612C50.8611,-473.943 101.854,-808 294.5,-808 294.5,-808 294.5,-808 767.5,-808 840.696,-808 925.97,-808 975.485,-808"/>
<polygon fill="midnightblue" stroke="midnightblue" points="975.491,-811.5 985.491,-808 975.491,-804.5 975.491,-811.5"/>
</g>
<!-- Node6 -->
<g id="node6" class="node"><title>Node6</title>
<g id="a_node6"><a xlink:href="lapi_8c.html#adaa30f0d34786144c94644039d1d1b6e" target="_top" xlink:title=" ">
<polygon fill="white" stroke="black" points="867,-304.5 867,-323.5 929,-323.5 929,-304.5 867,-304.5"/>
<text text-anchor="middle" x="898" y="-311.5" font-family="Helvetica,sans-Serif" font-size="10.00">lua_settop</text>
</a>
</g>
</g>
<!-- Node1&#45;&gt;Node6 -->
<g id="edge5" class="edge"><title>Node1&#45;&gt;Node6</title>
<path fill="none" stroke="midnightblue" d="M49.4928,-393.173C77.5065,-357.651 180.341,-238 294.5,-238 294.5,-238 294.5,-238 508.5,-238 638.855,-238 789.312,-279.72 858.527,-301.338"/>
<polygon fill="midnightblue" stroke="midnightblue" points="857.547,-304.699 868.137,-304.375 859.656,-298.024 857.547,-304.699"/>
</g>
<!-- Node7 -->
<g id="node7" class="node"><title>Node7</title>
<g id="a_node7"><a xlink:href="lapi_8c.html#ab9c2fb9e2b2c7dad7474dd4b6f1bbcd0" target="_top" xlink:title=" ">
<polygon fill="white" stroke="black" points="118,-76.5 118,-95.5 217,-95.5 217,-76.5 118,-76.5"/>
<text text-anchor="middle" x="167.5" y="-83.5" font-family="Helvetica,sans-Serif" font-size="10.00">lua_stringtonumber</text>
</a>
</g>
</g>
<!-- Node1&#45;&gt;Node7 -->
<g id="edge6" class="edge"><title>Node1&#45;&gt;Node7</title>
<path fill="none" stroke="midnightblue" d="M41.7684,-393.391C41.3146,-353.694 44.5782,-200.325 118,-110 120.912,-106.418 124.493,-103.326 128.379,-100.669"/>
<polygon fill="midnightblue" stroke="midnightblue" points="130.344,-103.575 137.232,-95.5251 126.827,-97.5231 130.344,-103.575"/>
</g>
<!-- Node14 -->
<g id="node14" class="node"><title>Node14</title>
<g id="a_node14"><a xlink:href="lapi_8c.html#a3fc7dbcac3f2610f3d687ec15343bd3f" target="_top" xlink:title=" ">
<polygon fill="white" stroke="black" points="863.5,-912.5 863.5,-931.5 932.5,-931.5 932.5,-912.5 863.5,-912.5"/>
<text text-anchor="middle" x="898" y="-919.5" font-family="Helvetica,sans-Serif" font-size="10.00">lua_tolstring</text>
</a>
</g>
</g>
<!-- Node1&#45;&gt;Node14 -->
<g id="edge13" class="edge"><title>Node1&#45;&gt;Node14</title>
<path fill="none" stroke="midnightblue" d="M42.4661,-412.714C45.371,-469.401 62.7062,-757.174 118,-822 171.956,-885.258 211.357,-884 294.5,-884 294.5,-884 294.5,-884 633,-884 711.358,-884 801.476,-900.604 853.57,-911.86"/>
<polygon fill="midnightblue" stroke="midnightblue" points="852.948,-915.307 863.467,-914.034 854.45,-908.47 852.948,-915.307"/>
</g>
<!-- Node122 -->
<g id="node22" class="node"><title>Node122</title>
<g id="a_node22"><a xlink:href="lapi_8c.html#a652b273947f0656686f998d8e90cd3ea" target="_top" xlink:title=" ">
<polygon fill="white" stroke="black" points="991.5,-209.5 991.5,-228.5 1044.5,-228.5 1044.5,-209.5 991.5,-209.5"/>
<text text-anchor="middle" x="1018" y="-216.5" font-family="Helvetica,sans-Serif" font-size="10.00">lua_type</text>
</a>
</g>
</g>
<!-- Node1&#45;&gt;Node122 -->
<g id="edge22" class="edge"><title>Node1&#45;&gt;Node122</title>
<path fill="none" stroke="midnightblue" d="M45.1655,-393.396C61.9994,-344.337 145.877,-124 294.5,-124 294.5,-124 294.5,-124 767.5,-124 856.237,-124 951.793,-177.133 994.338,-203.927"/>
<polygon fill="midnightblue" stroke="midnightblue" points="992.516,-206.916 1002.82,-209.368 996.294,-201.024 992.516,-206.916"/>
</g>
<!-- Node123 -->
<g id="node23" class="node"><title>Node123</title>
<g id="a_node23"><a xlink:href="lauxlib_8c.html#a8ebfe706b773eaaf50283e6583d4642e" target="_top" xlink:title=" ">
<polygon fill="white" stroke="black" points="466.5,-315.5 466.5,-334.5 548.5,-334.5 548.5,-315.5 466.5,-315.5"/>
<text text-anchor="middle" x="507.5" y="-322.5" font-family="Helvetica,sans-Serif" font-size="10.00">luaL_checkany</text>
</a>
</g>
</g>
<!-- Node1&#45;&gt;Node123 -->
<g id="edge24" class="edge"><title>Node1&#45;&gt;Node123</title>
<path fill="none" stroke="midnightblue" d="M82.005,-396.282C166.636,-382.071 363.632,-348.991 456.44,-333.406"/>
<polygon fill="midnightblue" stroke="midnightblue" points="457.144,-336.837 466.426,-331.729 455.985,-329.934 457.144,-336.837"/>
</g>
<!-- Node150 -->
<g id="node42" class="node"><title>Node150</title>
<g id="a_node42"><a xlink:href="lauxlib_8c.html#aa15bea412c49bfdee1f3dbff096ce7d2" target="_top" xlink:title=" ">
<polygon fill="white" stroke="black" points="120,-434.5 120,-453.5 215,-453.5 215,-434.5 120,-434.5"/>
<text text-anchor="middle" x="167.5" y="-441.5" font-family="Helvetica,sans-Serif" font-size="10.00">luaL_checkinteger</text>
</a>
</g>
</g>
<!-- Node1&#45;&gt;Node150 -->
<g id="edge54" class="edge"><title>Node1&#45;&gt;Node150</title>
<path fill="none" stroke="midnightblue" d="M70.8757,-412.509C87.8031,-418.084 109.405,-425.198 127.793,-431.253"/>
<polygon fill="midnightblue" stroke="midnightblue" points="126.757,-434.597 137.35,-434.4 128.946,-427.948 126.757,-434.597"/>
</g>
<!-- Node160 -->
<g id="node50" class="node"><title>Node160</title>
<g id="a_node50"><a xlink:href="lauxlib_8c.html#a0f8f78c4edc5cbf890690b3cf9615dc8" target="_top" xlink:title=" ">
<polygon fill="white" stroke="black" points="253,-315.5 253,-334.5 338,-334.5 338,-315.5 253,-315.5"/>
<text text-anchor="middle" x="295.5" y="-322.5" font-family="Helvetica,sans-Serif" font-size="10.00">luaL_checktype</text>
</a>
</g>
</g>
<!-- Node1&#45;&gt;Node160 -->
<g id="edge69" class="edge"><title>Node1&#45;&gt;Node160</title>
<path fill="none" stroke="midnightblue" d="M52.3358,-393.115C66.1111,-380.579 91.8087,-359.354 118,-349 157.917,-333.221 206.434,-327.497 242.491,-325.563"/>
<polygon fill="midnightblue" stroke="midnightblue" points="242.953,-329.046 252.784,-325.095 242.636,-322.053 242.953,-329.046"/>
</g>
<!-- Node3 -->
<g id="node3" class="node"><title>Node3</title>
<g id="a_node3"><a xlink:href="lstrlib_8c.html#a9605f4d16ae762782f8be8b54aef0a22" target="_top" xlink:title=" ">
<polygon fill="white" stroke="black" points="278,-950.5 278,-969.5 313,-969.5 313,-950.5 278,-950.5"/>
<text text-anchor="middle" x="295.5" y="-957.5" font-family="Helvetica,sans-Serif" font-size="10.00">digit</text>
</a>
</g>
</g>
<!-- Node2&#45;&gt;Node3 -->
<g id="edge2" class="edge"><title>Node2&#45;&gt;Node3</title>
<path fill="none" stroke="midnightblue" d="M194.607,-960C215.943,-960 245.995,-960 267.555,-960"/>
<polygon fill="midnightblue" stroke="midnightblue" points="267.673,-963.5 277.672,-960 267.672,-956.5 267.673,-963.5"/>
</g>
<!-- Node8 -->
<g id="node8" class="node"><title>Node8</title>
<g id="a_node8"><a xlink:href="lobject_8c.html#ab1956c979ca7ff39b07534390714505d" target="_top" xlink:title=" ">
<polygon fill="white" stroke="black" points="257,-76.5 257,-95.5 334,-95.5 334,-76.5 257,-76.5"/>
<text text-anchor="middle" x="295.5" y="-83.5" font-family="Helvetica,sans-Serif" font-size="10.00">luaO_str2num</text>
</a>
</g>
</g>
<!-- Node7&#45;&gt;Node8 -->
<g id="edge7" class="edge"><title>Node7&#45;&gt;Node8</title>
<path fill="none" stroke="midnightblue" d="M217.215,-86C226.878,-86 237.013,-86 246.647,-86"/>
<polygon fill="midnightblue" stroke="midnightblue" points="246.857,-89.5001 256.857,-86 246.857,-82.5001 246.857,-89.5001"/>
</g>
<!-- Node9 -->
<g id="node9" class="node"><title>Node9</title>
<g id="a_node9"><a xlink:href="lobject_8c.html#a331ebab44d182775ef47eeebeeb58dbd" target="_top" xlink:title=" ">
<polygon fill="white" stroke="black" points="378.5,-76.5 378.5,-95.5 424.5,-95.5 424.5,-76.5 378.5,-76.5"/>
<text text-anchor="middle" x="401.5" y="-83.5" font-family="Helvetica,sans-Serif" font-size="10.00">l_str2d</text>
</a>
</g>
</g>
<!-- Node8&#45;&gt;Node9 -->
<g id="edge8" class="edge"><title>Node8&#45;&gt;Node9</title>
<path fill="none" stroke="midnightblue" d="M334.046,-86C345.217,-86 357.355,-86 368.164,-86"/>
<polygon fill="midnightblue" stroke="midnightblue" points="368.444,-89.5001 378.444,-86 368.444,-82.5001 368.444,-89.5001"/>
</g>
<!-- Node11 -->
<g id="node11" class="node"><title>Node11</title>
<g id="a_node11"><a xlink:href="lobject_8c.html#ac5f6271088cb629a2359a93c283dc6ce" target="_top" xlink:title=" ">
<polygon fill="white" stroke="black" points="376,-38.5 376,-57.5 427,-57.5 427,-38.5 376,-38.5"/>
<text text-anchor="middle" x="401.5" y="-45.5" font-family="Helvetica,sans-Serif" font-size="10.00">l_str2int</text>
</a>
</g>
</g>
<!-- Node8&#45;&gt;Node11 -->
<g id="edge10" class="edge"><title>Node8&#45;&gt;Node11</title>
<path fill="none" stroke="midnightblue" d="M322.744,-76.411C335.944,-71.5877 352.108,-65.6818 366.272,-60.5066"/>
<polygon fill="midnightblue" stroke="midnightblue" points="367.505,-63.7821 375.697,-57.0627 365.103,-57.2073 367.505,-63.7821"/>
</g>
<!-- Node10 -->
<g id="node10" class="node"><title>Node10</title>
<g id="a_node10"><a xlink:href="lobject_8c.html#a58b5660686590a5ed833cc0f89fbe832" target="_top" xlink:title=" ">
<polygon fill="white" stroke="black" points="478,-76.5 478,-95.5 537,-95.5 537,-76.5 478,-76.5"/>
<text text-anchor="middle" x="507.5" y="-83.5" font-family="Helvetica,sans-Serif" font-size="10.00">l_str2dloc</text>
</a>
</g>
</g>
<!-- Node9&#45;&gt;Node10 -->
<g id="edge9" class="edge"><title>Node9&#45;&gt;Node10</title>
<path fill="none" stroke="midnightblue" d="M424.556,-86C437.03,-86 452.993,-86 467.51,-86"/>
<polygon fill="midnightblue" stroke="midnightblue" points="467.755,-89.5001 477.755,-86 467.755,-82.5001 467.755,-89.5001"/>
</g>
<!-- Node12 -->
<g id="node12" class="node"><title>Node12</title>
<g id="a_node12"><a xlink:href="lobject_8c.html#a3234b1ccb9cfbbd0892dcc6190a45876" target="_top" xlink:title=" ">
<polygon fill="white" stroke="black" points="487.5,-38.5 487.5,-57.5 527.5,-57.5 527.5,-38.5 487.5,-38.5"/>
<text text-anchor="middle" x="507.5" y="-45.5" font-family="Helvetica,sans-Serif" font-size="10.00">isneg</text>
</a>
</g>
</g>
<!-- Node11&#45;&gt;Node12 -->
<g id="edge11" class="edge"><title>Node11&#45;&gt;Node12</title>
<path fill="none" stroke="midnightblue" d="M427.147,-48C442.081,-48 461.223,-48 476.964,-48"/>
<polygon fill="midnightblue" stroke="midnightblue" points="477.226,-51.5001 487.226,-48 477.226,-44.5001 477.226,-51.5001"/>
</g>
<!-- Node13 -->
<g id="node13" class="node"><title>Node13</title>
<g id="a_node13"><a xlink:href="lobject_8c.html#ab73b1325bd3b1a6f9affc08fb46c07ec" target="_top" xlink:title=" ">
<polygon fill="white" stroke="black" points="465,-0.5 465,-19.5 550,-19.5 550,-0.5 465,-0.5"/>
<text text-anchor="middle" x="507.5" y="-7.5" font-family="Helvetica,sans-Serif" font-size="10.00">luaO_hexavalue</text>
</a>
</g>
</g>
<!-- Node11&#45;&gt;Node13 -->
<g id="edge12" class="edge"><title>Node11&#45;&gt;Node13</title>
<path fill="none" stroke="midnightblue" d="M427.147,-38.9945C440.128,-34.2511 456.29,-28.3459 470.634,-23.1049"/>
<polygon fill="midnightblue" stroke="midnightblue" points="472.021,-26.3245 480.212,-19.6051 469.618,-19.7497 472.021,-26.3245"/>
</g>
<!-- Node15 -->
<g id="node15" class="node"><title>Node15</title>
<g id="a_node15"><a xlink:href="lapi_8c.html#ae54b9bb381b32c86235a084984e40215" target="_top" xlink:title=" ">
<polygon fill="white" stroke="black" points="1105,-670.5 1105,-689.5 1169,-689.5 1169,-670.5 1105,-670.5"/>
<text text-anchor="middle" x="1137" y="-677.5" font-family="Helvetica,sans-Serif" font-size="10.00">index2addr</text>
</a>
</g>
</g>
<!-- Node14&#45;&gt;Node15 -->
<g id="edge14" class="edge"><title>Node14&#45;&gt;Node15</title>
<path fill="none" stroke="midnightblue" d="M932.826,-927.143C968.905,-930.571 1025.38,-929.701 1059,-898 1115.5,-844.714 1060.35,-796.51 1095,-727 1100.56,-715.837 1109.42,-705.204 1117.48,-696.885"/>
<polygon fill="midnightblue" stroke="midnightblue" points="1120.14,-699.176 1124.83,-689.675 1115.24,-694.178 1120.14,-699.176"/>
</g>
<!-- Node16 -->
<g id="node16" class="node"><title>Node16</title>
<g id="a_node16"><a xlink:href="lobject_8c.html#a00c5c37438b02ff7efcf8e8dfa98da7c" target="_top" xlink:title=" ">
<polygon fill="white" stroke="black" points="981,-950.5 981,-969.5 1055,-969.5 1055,-950.5 981,-950.5"/>
<text text-anchor="middle" x="1018" y="-957.5" font-family="Helvetica,sans-Serif" font-size="10.00">luaO_tostring</text>
</a>
</g>
</g>
<!-- Node14&#45;&gt;Node16 -->
<g id="edge15" class="edge"><title>Node14&#45;&gt;Node16</title>
<path fill="none" stroke="midnightblue" d="M928.776,-931.589C943.59,-936.359 961.691,-942.189 977.634,-947.323"/>
<polygon fill="midnightblue" stroke="midnightblue" points="976.642,-950.68 987.233,-950.414 978.787,-944.017 976.642,-950.68"/>
</g>
<!-- Node17 -->
<g id="node17" class="node"><title>Node17</title>
<g id="a_node17"><a xlink:href="lstring_8c.html#ab41fb084ce3ea5e2779f6659ccc2484d" target="_top" xlink:title=" ">
<polygon fill="white" stroke="black" points="1101,-736.5 1101,-755.5 1173,-755.5 1173,-736.5 1101,-736.5"/>
<text text-anchor="middle" x="1137" y="-743.5" font-family="Helvetica,sans-Serif" font-size="10.00">luaS_newlstr</text>
</a>
</g>
</g>
<!-- Node16&#45;&gt;Node17 -->
<g id="edge16" class="edge"><title>Node16&#45;&gt;Node17</title>
<path fill="none" stroke="midnightblue" d="M1040.84,-950.28C1047.34,-946.557 1054.05,-941.784 1059,-936 1103.45,-884.04 1124.55,-803.057 1132.31,-765.879"/>
<polygon fill="midnightblue" stroke="midnightblue" points="1135.79,-766.317 1134.31,-755.828 1128.93,-764.957 1135.79,-766.317"/>
</g>
<!-- Node18 -->
<g id="node18" class="node"><title>Node18</title>
<g id="a_node18"><a xlink:href="lstring_8c.html#a9b2c32c59a280de24f20df1c7f0433a1" target="_top" xlink:title=" ">
<polygon fill="white" stroke="red" points="1235,-736.5 1235,-755.5 1300,-755.5 1300,-736.5 1235,-736.5"/>
<text text-anchor="middle" x="1267.5" y="-743.5" font-family="Helvetica,sans-Serif" font-size="10.00">internshrstr</text>
</a>
</g>
</g>
<!-- Node17&#45;&gt;Node18 -->
<g id="edge17" class="edge"><title>Node17&#45;&gt;Node18</title>
<path fill="none" stroke="midnightblue" d="M1173.11,-746C1189.11,-746 1208.17,-746 1224.89,-746"/>
<polygon fill="midnightblue" stroke="midnightblue" points="1224.94,-749.5 1234.94,-746 1224.94,-742.5 1224.94,-749.5"/>
</g>
<!-- Node23 -->
<g id="node20" class="node"><title>Node23</title>
<g id="a_node20"><a xlink:href="lmem_8c.html#a8fc7df43dd830ccbe7581fd53f65bdbe" target="_top" xlink:title=" ">
<polygon fill="white" stroke="red" points="1233,-698.5 1233,-717.5 1302,-717.5 1302,-698.5 1233,-698.5"/>
<text text-anchor="middle" x="1267.5" y="-705.5" font-family="Helvetica,sans-Serif" font-size="10.00">luaM_toobig</text>
</a>
</g>
</g>
<!-- Node17&#45;&gt;Node23 -->
<g id="edge19" class="edge"><title>Node17&#45;&gt;Node23</title>
<path fill="none" stroke="midnightblue" d="M1170.43,-736.411C1186.71,-731.596 1206.64,-725.701 1224.12,-720.532"/>
<polygon fill="midnightblue" stroke="midnightblue" points="1225.49,-723.778 1234.08,-717.586 1223.5,-717.065 1225.49,-723.778"/>
</g>
<!-- Node35 -->
<g id="node21" class="node"><title>Node35</title>
<g id="a_node21"><a xlink:href="lstring_8c.html#a8790c7d6e706f935dd6e9eefd068921c" target="_top" xlink:title=" ">
<polygon fill="white" stroke="black" points="1215,-774.5 1215,-793.5 1320,-793.5 1320,-774.5 1215,-774.5"/>
<text text-anchor="middle" x="1267.5" y="-781.5" font-family="Helvetica,sans-Serif" font-size="10.00">luaS_createlngstrobj</text>
</a>
</g>
</g>
<!-- Node17&#45;&gt;Node35 -->
<g id="edge20" class="edge"><title>Node17&#45;&gt;Node35</title>
<path fill="none" stroke="midnightblue" d="M1170.43,-755.589C1186.71,-760.404 1206.64,-766.299 1224.12,-771.468"/>
<polygon fill="midnightblue" stroke="midnightblue" points="1223.5,-774.935 1234.08,-774.414 1225.49,-768.222 1223.5,-774.935"/>
</g>
<!-- Node19 -->
<g id="node19" class="node"><title>Node19</title>
<g id="a_node19"><a xlink:href="lstring_8c.html#a85a1a917ef263701e47c36e68011d917" target="_top" xlink:title=" ">
<polygon fill="white" stroke="red" points="1356,-755.5 1356,-774.5 1424,-774.5 1424,-755.5 1356,-755.5"/>
<text text-anchor="middle" x="1390" y="-762.5" font-family="Helvetica,sans-Serif" font-size="10.00">createstrobj</text>
</a>
</g>
</g>
<!-- Node18&#45;&gt;Node19 -->
<g id="edge18" class="edge"><title>Node18&#45;&gt;Node19</title>
<path fill="none" stroke="midnightblue" d="M1300.16,-750.992C1314.1,-753.19 1330.69,-755.806 1345.75,-758.18"/>
<polygon fill="midnightblue" stroke="midnightblue" points="1345.45,-761.676 1355.87,-759.776 1346.54,-754.761 1345.45,-761.676"/>
</g>
<!-- Node35&#45;&gt;Node19 -->
<g id="edge21" class="edge"><title>Node35&#45;&gt;Node19</title>
<path fill="none" stroke="midnightblue" d="M1320.3,-775.832C1328.73,-774.502 1337.39,-773.137 1345.6,-771.844"/>
<polygon fill="midnightblue" stroke="midnightblue" points="1346.36,-775.266 1355.69,-770.252 1345.27,-768.352 1346.36,-775.266"/>
</g>
<!-- Node122&#45;&gt;Node15 -->
<g id="edge23" class="edge"><title>Node122&#45;&gt;Node15</title>
<path fill="none" stroke="midnightblue" d="M1021.44,-228.629C1035.96,-285.811 1110.87,-580.976 1131.01,-660.335"/>
<polygon fill="midnightblue" stroke="midnightblue" points="1127.72,-661.593 1133.57,-670.424 1134.5,-659.871 1127.72,-661.593"/>
</g>
<!-- Node123&#45;&gt;Node122 -->
<g id="edge25" class="edge"><title>Node123&#45;&gt;Node122</title>
<path fill="none" stroke="midnightblue" d="M517.637,-315.491C531.296,-301.795 558.396,-276.567 586,-262 717.8,-192.447 903.83,-204.812 981.141,-213.945"/>
<polygon fill="midnightblue" stroke="midnightblue" points="980.958,-217.449 991.312,-215.204 981.817,-210.502 980.958,-217.449"/>
</g>
<!-- Node124 -->
<g id="node24" class="node"><title>Node124</title>
<g id="a_node24"><a xlink:href="lauxlib_8c.html#ac607576dd107a3120cd51948989f1ed2" target="_top" xlink:title=" ">
<polygon fill="white" stroke="black" points="595.5,-434.5 595.5,-453.5 668.5,-453.5 668.5,-434.5 595.5,-434.5"/>
<text text-anchor="middle" x="632" y="-441.5" font-family="Helvetica,sans-Serif" font-size="10.00">luaL_argerror</text>
</a>
</g>
</g>
<!-- Node123&#45;&gt;Node124 -->
<g id="edge26" class="edge"><title>Node123&#45;&gt;Node124</title>
<path fill="none" stroke="midnightblue" d="M536.502,-334.633C541.381,-337.16 546.125,-340.256 550,-344 575.728,-368.861 561.904,-389.554 586,-416 590.474,-420.91 596.002,-425.277 601.635,-429.017"/>
<polygon fill="midnightblue" stroke="midnightblue" points="600.073,-432.164 610.437,-434.367 603.709,-426.182 600.073,-432.164"/>
</g>
<!-- Node125 -->
<g id="node25" class="node"><title>Node125</title>
<g id="a_node25"><a xlink:href="ldebug_8c.html#acaafc35d8e385c4d167229486165df6d" target="_top" xlink:title=" ">
<polygon fill="white" stroke="black" points="986.5,-418.5 986.5,-437.5 1049.5,-437.5 1049.5,-418.5 986.5,-418.5"/>
<text text-anchor="middle" x="1018" y="-425.5" font-family="Helvetica,sans-Serif" font-size="10.00">lua_getinfo</text>
</a>
</g>
</g>
<!-- Node124&#45;&gt;Node125 -->
<g id="edge27" class="edge"><title>Node124&#45;&gt;Node125</title>
<path fill="none" stroke="midnightblue" d="M648.33,-434.435C693.745,-407.354 831.259,-334.42 941,-371 964.543,-378.848 986.667,-397.162 1000.91,-410.928"/>
<polygon fill="midnightblue" stroke="midnightblue" points="998.796,-413.771 1008.33,-418.394 1003.76,-408.835 998.796,-413.771"/>
</g>
<!-- Node132 -->
<g id="node29" class="node"><title>Node132</title>
<g id="a_node29"><a xlink:href="ldebug_8c.html#ac1fc03c27ee46caa4037df2d70f22110" target="_top" xlink:title=" ">
<polygon fill="white" stroke="black" points="982,-760.5 982,-779.5 1054,-779.5 1054,-760.5 982,-760.5"/>
<text text-anchor="middle" x="1018" y="-767.5" font-family="Helvetica,sans-Serif" font-size="10.00">lua_getstack</text>
</a>
</g>
</g>
<!-- Node124&#45;&gt;Node132 -->
<g id="edge31" class="edge"><title>Node124&#45;&gt;Node132</title>
<path fill="none" stroke="midnightblue" d="M633.677,-453.764C636.588,-488.517 650.945,-607.703 714,-675 782.16,-747.746 905.207,-765.122 971.594,-769.054"/>
<polygon fill="midnightblue" stroke="midnightblue" points="971.579,-772.558 981.746,-769.576 971.939,-765.567 971.579,-772.558"/>
</g>
<!-- Node133 -->
<g id="node30" class="node"><title>Node133</title>
<g id="a_node30"><a xlink:href="lauxlib_8c.html#a6c51d83d29244779392551388913e08a" target="_top" xlink:title=" ">
<polygon fill="white" stroke="black" points="737,-646.5 737,-665.5 796,-665.5 796,-646.5 737,-646.5"/>
<text text-anchor="middle" x="766.5" y="-653.5" font-family="Helvetica,sans-Serif" font-size="10.00">luaL_error</text>
</a>
</g>
</g>
<!-- Node124&#45;&gt;Node133 -->
<g id="edge32" class="edge"><title>Node124&#45;&gt;Node133</title>
<path fill="none" stroke="midnightblue" d="M639.038,-453.66C659.559,-486.494 726.85,-594.16 753.995,-637.591"/>
<polygon fill="midnightblue" stroke="midnightblue" points="751.159,-639.658 759.427,-646.283 757.095,-635.948 751.159,-639.658"/>
</g>
<!-- Node139 -->
<g id="node36" class="node"><title>Node139</title>
<g id="a_node36"><a xlink:href="lauxlib_8c.html#a4f35430f7ecfcbd5f507e550937046b4" target="_top" xlink:title=" ">
<polygon fill="white" stroke="black" points="714,-453.5 714,-472.5 819,-472.5 819,-453.5 714,-453.5"/>
<text text-anchor="middle" x="766.5" y="-460.5" font-family="Helvetica,sans-Serif" font-size="10.00">pushglobalfuncname</text>
</a>
</g>
</g>
<!-- Node124&#45;&gt;Node139 -->
<g id="edge41" class="edge"><title>Node124&#45;&gt;Node139</title>
<path fill="none" stroke="midnightblue" d="M668.508,-449.092C679.407,-450.655 691.733,-452.422 703.853,-454.16"/>
<polygon fill="midnightblue" stroke="midnightblue" points="703.553,-457.653 713.949,-455.608 704.547,-450.724 703.553,-457.653"/>
</g>
<!-- Node126 -->
<g id="node26" class="node"><title>Node126</title>
<g id="a_node26"><a xlink:href="ldebug_8c.html#ad72fa774194e83872bac4e5bf6ec1160" target="_top" xlink:title=" ">
<polygon fill="white" stroke="red" points="1106.5,-380.5 1106.5,-399.5 1167.5,-399.5 1167.5,-380.5 1106.5,-380.5"/>
<text text-anchor="middle" x="1137" y="-387.5" font-family="Helvetica,sans-Serif" font-size="10.00">auxgetinfo</text>
</a>
</g>
</g>
<!-- Node125&#45;&gt;Node126 -->
<g id="edge28" class="edge"><title>Node125&#45;&gt;Node126</title>
<path fill="none" stroke="midnightblue" d="M1048.52,-418.411C1063.21,-413.641 1081.16,-407.811 1096.97,-402.677"/>
<polygon fill="midnightblue" stroke="midnightblue" points="1098.06,-406.004 1106.49,-399.586 1095.89,-399.346 1098.06,-406.004"/>
</g>
<!-- Node130 -->
<g id="node27" class="node"><title>Node130</title>
<g id="a_node27"><a xlink:href="ldebug_8c.html#a6e3195fc94af1f75142c2801ca8cf058" target="_top" xlink:title=" ">
<polygon fill="white" stroke="red" points="1095,-456.5 1095,-475.5 1179,-475.5 1179,-456.5 1095,-456.5"/>
<text text-anchor="middle" x="1137" y="-463.5" font-family="Helvetica,sans-Serif" font-size="10.00">collectvalidlines</text>
</a>
</g>
</g>
<!-- Node125&#45;&gt;Node130 -->
<g id="edge29" class="edge"><title>Node125&#45;&gt;Node130</title>
<path fill="none" stroke="midnightblue" d="M1048.52,-437.589C1063.21,-442.359 1081.16,-448.189 1096.97,-453.323"/>
<polygon fill="midnightblue" stroke="midnightblue" points="1095.89,-456.654 1106.49,-456.414 1098.06,-449.996 1095.89,-456.654"/>
</g>
<!-- Node131 -->
<g id="node28" class="node"><title>Node131</title>
<g id="a_node28"><a xlink:href="ldebug_8c.html#a1f8af4428461705c53893e5ddb8b55aa" target="_top" xlink:title=" ">
<polygon fill="white" stroke="black" points="1106.5,-418.5 1106.5,-437.5 1167.5,-437.5 1167.5,-418.5 1106.5,-418.5"/>
<text text-anchor="middle" x="1137" y="-425.5" font-family="Helvetica,sans-Serif" font-size="10.00">swapextra</text>
</a>
</g>
</g>
<!-- Node125&#45;&gt;Node131 -->
<g id="edge30" class="edge"><title>Node125&#45;&gt;Node131</title>
<path fill="none" stroke="midnightblue" d="M1049.74,-428C1063.93,-428 1080.96,-428 1096.13,-428"/>
<polygon fill="midnightblue" stroke="midnightblue" points="1096.27,-431.5 1106.27,-428 1096.27,-424.5 1096.27,-431.5"/>
</g>
<!-- Node134 -->
<g id="node31" class="node"><title>Node134</title>
<g id="a_node31"><a xlink:href="lapi_8c.html#a1de3afee1daece63d455f23818c883d9" target="_top" xlink:title=" ">
<polygon fill="white" stroke="red" points="986,-722.5 986,-741.5 1050,-741.5 1050,-722.5 986,-722.5"/>
<text text-anchor="middle" x="1018" y="-729.5" font-family="Helvetica,sans-Serif" font-size="10.00">lua_concat</text>
</a>
</g>
</g>
<!-- Node133&#45;&gt;Node134 -->
<g id="edge33" class="edge"><title>Node133&#45;&gt;Node134</title>
<path fill="none" stroke="midnightblue" d="M778.467,-665.593C794.205,-678.754 824.653,-702.023 855,-713 894.287,-727.21 942.096,-731.352 975.556,-732.311"/>
<polygon fill="midnightblue" stroke="midnightblue" points="975.818,-735.817 985.886,-732.519 975.959,-728.818 975.818,-735.817"/>
</g>
<!-- Node135 -->
<g id="node32" class="node"><title>Node135</title>
<g id="a_node32"><a xlink:href="lapi_8c.html#a6ba7b91143fe8a03910420d800de8e97" target="_top" xlink:title=" ">
<polygon fill="white" stroke="red" points="871,-646.5 871,-665.5 925,-665.5 925,-646.5 871,-646.5"/>
<text text-anchor="middle" x="898" y="-653.5" font-family="Helvetica,sans-Serif" font-size="10.00">lua_error</text>
</a>
</g>
</g>
<!-- Node133&#45;&gt;Node135 -->
<g id="edge35" class="edge"><title>Node133&#45;&gt;Node135</title>
<path fill="none" stroke="midnightblue" d="M796.24,-656C815.277,-656 840.402,-656 860.8,-656"/>
<polygon fill="midnightblue" stroke="midnightblue" points="860.979,-659.5 870.979,-656 860.979,-652.5 860.979,-659.5"/>
</g>
<!-- Node136 -->
<g id="node33" class="node"><title>Node136</title>
<g id="a_node33"><a xlink:href="lapi_8c.html#a426c9cb1d582be3e43060c4772854e5a" target="_top" xlink:title=" ">
<polygon fill="white" stroke="red" points="855,-684.5 855,-703.5 941,-703.5 941,-684.5 855,-684.5"/>
<text text-anchor="middle" x="898" y="-691.5" font-family="Helvetica,sans-Serif" font-size="10.00">lua_pushvfstring</text>
</a>
</g>
</g>
<!-- Node133&#45;&gt;Node136 -->
<g id="edge36" class="edge"><title>Node133&#45;&gt;Node136</title>
<path fill="none" stroke="midnightblue" d="M796.24,-664.433C813.373,-669.461 835.437,-675.935 854.549,-681.543"/>
<polygon fill="midnightblue" stroke="midnightblue" points="853.652,-684.928 864.233,-684.385 855.623,-678.211 853.652,-684.928"/>
</g>
<!-- Node137 -->
<g id="node34" class="node"><title>Node137</title>
<g id="a_node34"><a xlink:href="lauxlib_8c.html#a0f4d3c30c07eae36aa25605df84279a0" target="_top" xlink:title=" ">
<polygon fill="white" stroke="black" points="865.5,-608.5 865.5,-627.5 930.5,-627.5 930.5,-608.5 865.5,-608.5"/>
<text text-anchor="middle" x="898" y="-615.5" font-family="Helvetica,sans-Serif" font-size="10.00">luaL_where</text>
</a>
</g>
</g>
<!-- Node133&#45;&gt;Node137 -->
<g id="edge37" class="edge"><title>Node133&#45;&gt;Node137</title>
<path fill="none" stroke="midnightblue" d="M796.24,-647.567C813.627,-642.465 836.092,-635.873 855.397,-630.208"/>
<polygon fill="midnightblue" stroke="midnightblue" points="856.55,-633.517 865.16,-627.343 854.579,-626.8 856.55,-633.517"/>
</g>
<!-- Node134&#45;&gt;Node17 -->
<g id="edge34" class="edge"><title>Node134&#45;&gt;Node17</title>
<path fill="none" stroke="midnightblue" d="M1050.05,-735.715C1062.45,-737.2 1076.99,-738.939 1090.55,-740.561"/>
<polygon fill="midnightblue" stroke="midnightblue" points="1090.32,-744.059 1100.67,-741.772 1091.16,-737.109 1090.32,-744.059"/>
</g>
<!-- Node137&#45;&gt;Node125 -->
<g id="edge38" class="edge"><title>Node137&#45;&gt;Node125</title>
<path fill="none" stroke="midnightblue" d="M928.089,-608.5C932.841,-605.978 937.384,-602.85 941,-599 971.912,-566.089 958.451,-545.166 977,-504 986.045,-483.928 997.963,-461.726 1006.43,-446.53"/>
<polygon fill="midnightblue" stroke="midnightblue" points="1009.58,-448.079 1011.43,-437.648 1003.48,-444.644 1009.58,-448.079"/>
</g>
<!-- Node137&#45;&gt;Node132 -->
<g id="edge39" class="edge"><title>Node137&#45;&gt;Node132</title>
<path fill="none" stroke="midnightblue" d="M928.7,-627.567C933.275,-630.067 937.6,-633.169 941,-637 976.271,-676.738 942.1,-710.936 977,-751 978.146,-752.315 979.402,-753.547 980.742,-754.698"/>
<polygon fill="midnightblue" stroke="midnightblue" points="978.891,-757.674 989.113,-760.46 982.86,-751.907 978.891,-757.674"/>
</g>
<!-- Node138 -->
<g id="node35" class="node"><title>Node138</title>
<g id="a_node35"><a xlink:href="lapi_8c.html#ab190c226d38b289e6ca57683a9d4e0f0" target="_top" xlink:title=" ">
<polygon fill="white" stroke="red" points="977,-589.5 977,-608.5 1059,-608.5 1059,-589.5 977,-589.5"/>
<text text-anchor="middle" x="1018" y="-596.5" font-family="Helvetica,sans-Serif" font-size="10.00">lua_pushfstring</text>
</a>
</g>
</g>
<!-- Node137&#45;&gt;Node138 -->
<g id="edge40" class="edge"><title>Node137&#45;&gt;Node138</title>
<path fill="none" stroke="midnightblue" d="M930.622,-612.908C941.715,-611.122 954.468,-609.069 966.709,-607.098"/>
<polygon fill="midnightblue" stroke="midnightblue" points="967.508,-610.514 976.824,-605.469 966.395,-603.603 967.508,-610.514"/>
</g>
<!-- Node139&#45;&gt;Node6 -->
<g id="edge53" class="edge"><title>Node139&#45;&gt;Node6</title>
<path fill="none" stroke="midnightblue" d="M775.997,-453.224C797.496,-428.487 854.293,-363.138 881.733,-331.566"/>
<polygon fill="midnightblue" stroke="midnightblue" points="884.722,-333.462 888.64,-323.619 879.439,-328.87 884.722,-333.462"/>
</g>
<!-- Node139&#45;&gt;Node125 -->
<g id="edge50" class="edge"><title>Node139&#45;&gt;Node125</title>
<path fill="none" stroke="midnightblue" d="M816.462,-453.475C828.999,-451.194 842.477,-448.877 855,-447 896.19,-440.825 943.525,-435.474 976.347,-432.038"/>
<polygon fill="midnightblue" stroke="midnightblue" points="976.881,-435.502 986.468,-430.991 976.16,-428.539 976.881,-435.502"/>
</g>
<!-- Node140 -->
<g id="node37" class="node"><title>Node140</title>
<g id="a_node37"><a xlink:href="lauxlib_8c.html#a36c8f149b779f8c9a5c042ea9784d80a" target="_top" xlink:title=" ">
<polygon fill="white" stroke="red" points="873.5,-570.5 873.5,-589.5 922.5,-589.5 922.5,-570.5 873.5,-570.5"/>
<text text-anchor="middle" x="898" y="-577.5" font-family="Helvetica,sans-Serif" font-size="10.00">findfield</text>
</a>
</g>
</g>
<!-- Node139&#45;&gt;Node140 -->
<g id="edge42" class="edge"><title>Node139&#45;&gt;Node140</title>
<path fill="none" stroke="midnightblue" d="M774.904,-472.591C789.067,-490.513 821.572,-529.652 855,-556 859.18,-559.295 863.864,-562.429 868.547,-565.28"/>
<polygon fill="midnightblue" stroke="midnightblue" points="867.004,-568.43 877.418,-570.383 870.495,-562.363 867.004,-568.43"/>
</g>
<!-- Node145 -->
<g id="node38" class="node"><title>Node145</title>
<g id="a_node38"><a xlink:href="lapi_8c.html#a111bd3fa34fe656f415edae5e343e13e" target="_top" xlink:title=" ">
<polygon fill="white" stroke="black" points="990,-513.5 990,-532.5 1046,-532.5 1046,-513.5 990,-513.5"/>
<text text-anchor="middle" x="1018" y="-520.5" font-family="Helvetica,sans-Serif" font-size="10.00">lua_copy</text>
</a>
</g>
</g>
<!-- Node139&#45;&gt;Node145 -->
<g id="edge46" class="edge"><title>Node139&#45;&gt;Node145</title>
<path fill="none" stroke="midnightblue" d="M804.938,-472.552C820.42,-476.466 838.561,-481.006 855,-485 897.681,-495.371 946.809,-506.827 979.669,-514.421"/>
<polygon fill="midnightblue" stroke="midnightblue" points="979.207,-517.906 989.738,-516.745 980.781,-511.086 979.207,-517.906"/>
</g>
<!-- Node146 -->
<g id="node39" class="node"><title>Node146</title>
<g id="a_node39"><a xlink:href="lapi_8c.html#a8b47f1b5685c3f8018ba926abb99af24" target="_top" xlink:title=" ">
<polygon fill="white" stroke="red" points="985.5,-649.5 985.5,-668.5 1050.5,-668.5 1050.5,-649.5 985.5,-649.5"/>
<text text-anchor="middle" x="1018" y="-656.5" font-family="Helvetica,sans-Serif" font-size="10.00">lua_getfield</text>
</a>
</g>
</g>
<!-- Node139&#45;&gt;Node146 -->
<g id="edge48" class="edge"><title>Node139&#45;&gt;Node146</title>
<path fill="none" stroke="midnightblue" d="M785.714,-472.634C827.637,-494.901 928.347,-548.954 941,-561 962.701,-581.66 958.436,-594.481 977,-618 983.696,-626.484 991.917,-635.154 999.16,-642.324"/>
<polygon fill="midnightblue" stroke="midnightblue" points="996.895,-645.002 1006.52,-649.434 1001.76,-639.968 996.895,-645.002"/>
</g>
<!-- Node148 -->
<g id="node40" class="node"><title>Node148</title>
<g id="a_node40"><a xlink:href="lapi_8c.html#afbb08ecb69421875494105d4de68e5bf" target="_top" xlink:title=" ">
<polygon fill="white" stroke="black" points="867,-456.5 867,-475.5 929,-475.5 929,-456.5 867,-456.5"/>
<text text-anchor="middle" x="898" y="-463.5" font-family="Helvetica,sans-Serif" font-size="10.00">lua_gettop</text>
</a>
</g>
</g>
<!-- Node139&#45;&gt;Node148 -->
<g id="edge51" class="edge"><title>Node139&#45;&gt;Node148</title>
<path fill="none" stroke="midnightblue" d="M819.054,-464.194C831.601,-464.485 844.839,-464.792 856.773,-465.068"/>
<polygon fill="midnightblue" stroke="midnightblue" points="856.796,-468.569 866.874,-465.302 856.958,-461.571 856.796,-468.569"/>
</g>
<!-- Node149 -->
<g id="node41" class="node"><title>Node149</title>
<g id="a_node41"><a xlink:href="lapi_8c.html#a771d300f2e64b2197d1df9bf31660ebf" target="_top" xlink:title=" ">
<polygon fill="white" stroke="red" points="858,-380.5 858,-399.5 938,-399.5 938,-380.5 858,-380.5"/>
<text text-anchor="middle" x="898" y="-387.5" font-family="Helvetica,sans-Serif" font-size="10.00">lua_pushstring</text>
</a>
</g>
</g>
<!-- Node139&#45;&gt;Node149 -->
<g id="edge52" class="edge"><title>Node139&#45;&gt;Node149</title>
<path fill="none" stroke="midnightblue" d="M784.43,-453.457C806.534,-440.996 845.437,-419.067 871.217,-404.534"/>
<polygon fill="midnightblue" stroke="midnightblue" points="873.073,-407.505 880.066,-399.546 869.636,-401.408 873.073,-407.505"/>
</g>
<!-- Node140&#45;&gt;Node5 -->
<g id="edge44" class="edge"><title>Node140&#45;&gt;Node5</title>
<path fill="none" stroke="midnightblue" d="M922.582,-586.093C929.45,-588.955 936.348,-593.088 941,-599 994.143,-666.548 924.488,-720.961 977,-789 977.819,-790.061 978.712,-791.066 979.665,-792.017"/>
<polygon fill="midnightblue" stroke="midnightblue" points="977.844,-795.029 987.92,-798.305 982.085,-789.461 977.844,-795.029"/>
</g>
<!-- Node140&#45;&gt;Node122 -->
<g id="edge45" class="edge"><title>Node140&#45;&gt;Node122</title>
<path fill="none" stroke="midnightblue" d="M903.741,-570.47C912.036,-553.556 929.4,-517.048 941,-485 973.7,-394.656 1001.7,-283.078 1012.38,-238.619"/>
<polygon fill="midnightblue" stroke="midnightblue" points="1015.8,-239.355 1014.72,-228.816 1008.99,-237.734 1015.8,-239.355"/>
</g>
<!-- Node140&#45;&gt;Node134 -->
<g id="edge43" class="edge"><title>Node140&#45;&gt;Node134</title>
<path fill="none" stroke="midnightblue" d="M922.643,-587.19C929.195,-590.056 935.9,-593.914 941,-599 968.321,-626.246 957.409,-644.759 977,-678 984.59,-690.878 994.602,-704.392 1002.71,-714.679"/>
<polygon fill="midnightblue" stroke="midnightblue" points="999.986,-716.876 1008.98,-722.477 1005.44,-712.49 999.986,-716.876"/>
</g>
<!-- Node145&#45;&gt;Node15 -->
<g id="edge47" class="edge"><title>Node145&#45;&gt;Node15</title>
<path fill="none" stroke="midnightblue" d="M1026.32,-532.821C1045.52,-558.593 1097.59,-628.464 1122.45,-661.812"/>
<polygon fill="midnightblue" stroke="midnightblue" points="1119.9,-664.256 1128.68,-670.183 1125.51,-660.073 1119.9,-664.256"/>
</g>
<!-- Node146&#45;&gt;Node15 -->
<g id="edge49" class="edge"><title>Node146&#45;&gt;Node15</title>
<path fill="none" stroke="midnightblue" d="M1050.66,-664.683C1064.17,-667.107 1080.11,-669.968 1094.54,-672.558"/>
<polygon fill="midnightblue" stroke="midnightblue" points="1094.26,-676.064 1104.72,-674.385 1095.49,-669.174 1094.26,-676.064"/>
</g>
<!-- Node151 -->
<g id="node43" class="node"><title>Node151</title>
<g id="a_node43"><a xlink:href="lauxlib_8c.html#ac900510f548ea0ea6d53358d2aedd100" target="_top" xlink:title=" ">
<polygon fill="white" stroke="black" points="272,-434.5 272,-453.5 319,-453.5 319,-434.5 272,-434.5"/>
<text text-anchor="middle" x="295.5" y="-441.5" font-family="Helvetica,sans-Serif" font-size="10.00">interror</text>
</a>
</g>
</g>
<!-- Node150&#45;&gt;Node151 -->
<g id="edge55" class="edge"><title>Node150&#45;&gt;Node151</title>
<path fill="none" stroke="midnightblue" d="M215.06,-444C230.478,-444 247.309,-444 261.493,-444"/>
<polygon fill="midnightblue" stroke="midnightblue" points="261.758,-447.5 271.758,-444 261.758,-440.5 261.758,-447.5"/>
</g>
<!-- Node159 -->
<g id="node49" class="node"><title>Node159</title>
<g id="a_node49"><a xlink:href="lapi_8c.html#af81c9a68425546e1f8c6354728c95170" target="_top" xlink:title=" ">
<polygon fill="white" stroke="black" points="728,-836.5 728,-855.5 805,-855.5 805,-836.5 728,-836.5"/>
<text text-anchor="middle" x="766.5" y="-843.5" font-family="Helvetica,sans-Serif" font-size="10.00">lua_tointegerx</text>
</a>
</g>
</g>
<!-- Node150&#45;&gt;Node159 -->
<g id="edge67" class="edge"><title>Node150&#45;&gt;Node159</title>
<path fill="none" stroke="midnightblue" d="M171.574,-453.562C187.308,-500.469 263.476,-704 400.5,-704 400.5,-704 400.5,-704 508.5,-704 610.82,-704 710.683,-791.297 749.039,-828.997"/>
<polygon fill="midnightblue" stroke="midnightblue" points="746.727,-831.635 756.269,-836.24 751.681,-826.69 746.727,-831.635"/>
</g>
<!-- Node151&#45;&gt;Node124 -->
<g id="edge58" class="edge"><title>Node151&#45;&gt;Node124</title>
<path fill="none" stroke="midnightblue" d="M319.229,-444C373.678,-444 512.441,-444 585.083,-444"/>
<polygon fill="midnightblue" stroke="midnightblue" points="585.303,-447.5 595.303,-444 585.303,-440.5 585.303,-447.5"/>
</g>
<!-- Node152 -->
<g id="node44" class="node"><title>Node152</title>
<g id="a_node44"><a xlink:href="lapi_8c.html#a99451f234bf085c9c46c3d17a5aef905" target="_top" xlink:title=" ">
<polygon fill="white" stroke="black" points="595,-638.5 595,-657.5 669,-657.5 669,-638.5 595,-638.5"/>
<text text-anchor="middle" x="632" y="-645.5" font-family="Helvetica,sans-Serif" font-size="10.00">lua_isnumber</text>
</a>
</g>
</g>
<!-- Node151&#45;&gt;Node152 -->
<g id="edge56" class="edge"><title>Node151&#45;&gt;Node152</title>
<path fill="none" stroke="midnightblue" d="M312.185,-453.566C365.738,-486.226 541.621,-593.491 606.595,-633.116"/>
<polygon fill="midnightblue" stroke="midnightblue" points="604.989,-636.236 615.349,-638.455 608.634,-630.26 604.989,-636.236"/>
</g>
<!-- Node153 -->
<g id="node45" class="node"><title>Node153</title>
<g id="a_node45"><a xlink:href="lauxlib_8c.html#ab8e946260debec8d4bbc714b76a1613b" target="_top" xlink:title=" ">
<polygon fill="white" stroke="black" points="374,-391.5 374,-410.5 429,-410.5 429,-391.5 374,-391.5"/>
<text text-anchor="middle" x="401.5" y="-398.5" font-family="Helvetica,sans-Serif" font-size="10.00">tag_error</text>
</a>
</g>
</g>
<!-- Node151&#45;&gt;Node153 -->
<g id="edge59" class="edge"><title>Node151&#45;&gt;Node153</title>
<path fill="none" stroke="midnightblue" d="M319.066,-434.67C333.315,-428.779 351.959,-421.07 367.812,-414.515"/>
<polygon fill="midnightblue" stroke="midnightblue" points="369.354,-417.665 377.257,-410.61 366.679,-411.196 369.354,-417.665"/>
</g>
<!-- Node152&#45;&gt;Node15 -->
<g id="edge57" class="edge"><title>Node152&#45;&gt;Node15</title>
<path fill="none" stroke="midnightblue" d="M643.588,-657.776C663.73,-676.317 706.252,-715.18 714,-720 821.15,-786.659 853.155,-802.771 977,-827 1012.77,-833.997 1029.18,-847.956 1059,-827 1097.65,-799.838 1071.06,-767.722 1095,-727 1101.4,-716.106 1110.49,-705.377 1118.48,-696.927"/>
<polygon fill="midnightblue" stroke="midnightblue" points="1121.18,-699.179 1125.68,-689.592 1116.18,-694.274 1121.18,-699.179"/>
</g>
<!-- Node154 -->
<g id="node46" class="node"><title>Node154</title>
<g id="a_node46"><a xlink:href="lapi_8c.html#a7d64f87addab440bbda96bb088816e17" target="_top" xlink:title=" ">
<polygon fill="white" stroke="black" points="469,-353.5 469,-372.5 546,-372.5 546,-353.5 469,-353.5"/>
<text text-anchor="middle" x="507.5" y="-360.5" font-family="Helvetica,sans-Serif" font-size="10.00">lua_typename</text>
</a>
</g>
</g>
<!-- Node153&#45;&gt;Node154 -->
<g id="edge60" class="edge"><title>Node153&#45;&gt;Node154</title>
<path fill="none" stroke="midnightblue" d="M428.744,-391.411C441.43,-386.776 456.853,-381.14 470.607,-376.115"/>
<polygon fill="midnightblue" stroke="midnightblue" points="472.073,-379.305 480.265,-372.586 469.671,-372.731 472.073,-379.305"/>
</g>
<!-- Node155 -->
<g id="node47" class="node"><title>Node155</title>
<g id="a_node47"><a xlink:href="lauxlib_8c.html#a49f5eae5db02430a59c67dff7b06d98f" target="_top" xlink:title=" ">
<polygon fill="white" stroke="black" points="480,-391.5 480,-410.5 535,-410.5 535,-391.5 480,-391.5"/>
<text text-anchor="middle" x="507.5" y="-398.5" font-family="Helvetica,sans-Serif" font-size="10.00">typeerror</text>
</a>
</g>
</g>
<!-- Node153&#45;&gt;Node155 -->
<g id="edge61" class="edge"><title>Node153&#45;&gt;Node155</title>
<path fill="none" stroke="midnightblue" d="M429.013,-401C441.264,-401 456.023,-401 469.359,-401"/>
<polygon fill="midnightblue" stroke="midnightblue" points="469.674,-404.5 479.674,-401 469.674,-397.5 469.674,-404.5"/>
</g>
<!-- Node155&#45;&gt;Node122 -->
<g id="edge63" class="edge"><title>Node155&#45;&gt;Node122</title>
<path fill="none" stroke="midnightblue" d="M535.364,-392.181C540.683,-389.529 545.886,-386.179 550,-382 577.923,-353.636 556.151,-326.33 586,-300 644.895,-248.048 888.762,-227.226 981.232,-221.099"/>
<polygon fill="midnightblue" stroke="midnightblue" points="981.475,-224.591 991.229,-220.455 981.025,-217.605 981.475,-224.591"/>
</g>
<!-- Node155&#45;&gt;Node124 -->
<g id="edge64" class="edge"><title>Node155&#45;&gt;Node124</title>
<path fill="none" stroke="midnightblue" d="M535.081,-410.33C552.338,-416.388 575.071,-424.368 594.074,-431.038"/>
<polygon fill="midnightblue" stroke="midnightblue" points="593.028,-434.38 603.623,-434.39 595.347,-427.776 593.028,-434.38"/>
</g>
<!-- Node155&#45;&gt;Node138 -->
<g id="edge62" class="edge"><title>Node155&#45;&gt;Node138</title>
<path fill="none" stroke="midnightblue" d="M529.244,-391.407C606.595,-356.3 877.043,-239.689 941,-295 982.956,-331.284 956.512,-490.453 977,-542 982.778,-556.538 992.936,-570.943 1001.57,-581.635"/>
<polygon fill="midnightblue" stroke="midnightblue" points="998.937,-583.944 1008.05,-589.345 1004.29,-579.439 998.937,-583.944"/>
</g>
<!-- Node156 -->
<g id="node48" class="node"><title>Node156</title>
<g id="a_node48"><a xlink:href="lauxlib_8c.html#add7cea31816ff3f61014031248e0daa6" target="_top" xlink:title=" ">
<polygon fill="white" stroke="red" points="586,-387.5 586,-406.5 678,-406.5 678,-387.5 586,-387.5"/>
<text text-anchor="middle" x="632" y="-394.5" font-family="Helvetica,sans-Serif" font-size="10.00">luaL_getmetafield</text>
</a>
</g>
</g>
<!-- Node155&#45;&gt;Node156 -->
<g id="edge65" class="edge"><title>Node155&#45;&gt;Node156</title>
<path fill="none" stroke="midnightblue" d="M535.081,-400.132C546.972,-399.744 561.462,-399.271 575.541,-398.811"/>
<polygon fill="midnightblue" stroke="midnightblue" points="575.796,-402.305 585.676,-398.48 575.568,-395.308 575.796,-402.305"/>
</g>
<!-- Node156&#45;&gt;Node149 -->
<g id="edge66" class="edge"><title>Node156&#45;&gt;Node149</title>
<path fill="none" stroke="midnightblue" d="M678.083,-395.805C725.143,-394.557 798.736,-392.605 847.41,-391.315"/>
<polygon fill="midnightblue" stroke="midnightblue" points="847.798,-394.806 857.702,-391.042 847.613,-387.808 847.798,-394.806"/>
</g>
<!-- Node159&#45;&gt;Node15 -->
<g id="edge68" class="edge"><title>Node159&#45;&gt;Node15</title>
<path fill="none" stroke="midnightblue" d="M789.307,-855.589C841.885,-877.079 977.323,-922.508 1059,-860 1107.63,-822.782 1066.13,-781.009 1095,-727 1100.88,-716 1109.77,-705.383 1117.77,-697.032"/>
<polygon fill="midnightblue" stroke="midnightblue" points="1120.43,-699.321 1125.04,-689.781 1115.49,-694.365 1120.43,-699.321"/>
</g>
<!-- Node160&#45;&gt;Node122 -->
<g id="edge70" class="edge"><title>Node160&#45;&gt;Node122</title>
<path fill="none" stroke="midnightblue" d="M318.956,-315.484C367.051,-295.464 483.946,-248.719 586,-223 702.284,-193.695 735.081,-202.425 855,-202 893.222,-201.864 903.009,-197.803 941,-202 954.361,-203.476 968.807,-206.37 981.48,-209.357"/>
<polygon fill="midnightblue" stroke="midnightblue" points="980.663,-212.76 991.209,-211.748 982.333,-205.963 980.663,-212.76"/>
</g>
<!-- Node160&#45;&gt;Node153 -->
<g id="edge71" class="edge"><title>Node160&#45;&gt;Node153</title>
<path fill="none" stroke="midnightblue" d="M309.672,-334.625C327.176,-347.417 358.318,-370.175 379.189,-385.427"/>
<polygon fill="midnightblue" stroke="midnightblue" points="377.296,-388.378 387.435,-391.453 381.426,-382.727 377.296,-388.378"/>
</g>
</g>
</svg>
