<?xml version="1.0" encoding="UTF-8" standalone="no"?>
<!DOCTYPE svg PUBLIC "-//W3C//DTD SVG 1.1//EN"
 "http://www.w3.org/Graphics/SVG/1.1/DTD/svg11.dtd">
<!-- Generated by graphviz version 2.38.0 (20140413.2041)
 -->
<!-- Title: luaB_xpcall Pages: 1 -->
<svg width="1037pt" height="1111pt"
 viewBox="0.00 0.00 1037.00 1111.00" xmlns="http://www.w3.org/2000/svg" xmlns:xlink="http://www.w3.org/1999/xlink">
<g id="graph0" class="graph" transform="scale(1 1) rotate(0) translate(4 1107)">
<title>luaB_xpcall</title>
<polygon fill="white" stroke="none" points="-4,4 -4,-1107 1033,-1107 1033,4 -4,4"/>
<!-- Node1 -->
<g id="node1" class="node"><title>Node1</title>
<g id="a_node1"><a xlink:title=" ">
<polygon fill="#bfbfbf" stroke="black" points="0,-741.5 0,-760.5 67,-760.5 67,-741.5 0,-741.5"/>
<text text-anchor="middle" x="33.5" y="-748.5" font-family="Helvetica,sans-Serif" font-size="10.00">luaB_xpcall</text>
</a>
</g>
</g>
<!-- Node2 -->
<g id="node2" class="node"><title>Node2</title>
<g id="a_node2"><a xlink:href="lbaselib_8c.html#a4157e08e6e4e7f4e7ec65b96ca2a22d8" target="_top" xlink:title=" ">
<polygon fill="white" stroke="black" points="116,-817.5 116,-836.5 175,-836.5 175,-817.5 116,-817.5"/>
<text text-anchor="middle" x="145.5" y="-824.5" font-family="Helvetica,sans-Serif" font-size="10.00">finishpcall</text>
</a>
</g>
</g>
<!-- Node1&#45;&gt;Node2 -->
<g id="edge1" class="edge"><title>Node1&#45;&gt;Node2</title>
<path fill="none" stroke="midnightblue" d="M46.2935,-760.673C59.6861,-771.486 82.3612,-789.276 103,-803 107.765,-806.168 112.963,-809.366 118.019,-812.348"/>
<polygon fill="midnightblue" stroke="midnightblue" points="116.429,-815.472 126.841,-817.432 119.924,-809.406 116.429,-815.472"/>
</g>
<!-- Node3 -->
<g id="node3" class="node"><title>Node3</title>
<g id="a_node3"><a xlink:href="lapi_8c.html#afbb08ecb69421875494105d4de68e5bf" target="_top" xlink:title=" ">
<polygon fill="white" stroke="black" points="237.5,-855.5 237.5,-874.5 299.5,-874.5 299.5,-855.5 237.5,-855.5"/>
<text text-anchor="middle" x="268.5" y="-862.5" font-family="Helvetica,sans-Serif" font-size="10.00">lua_gettop</text>
</a>
</g>
</g>
<!-- Node1&#45;&gt;Node3 -->
<g id="edge6" class="edge"><title>Node1&#45;&gt;Node3</title>
<path fill="none" stroke="midnightblue" d="M38.2327,-760.582C46.5102,-780.4 68.4495,-825.731 103,-846 140.753,-868.148 191.784,-870.672 226.947,-869.08"/>
<polygon fill="midnightblue" stroke="midnightblue" points="227.54,-872.552 237.317,-868.471 227.129,-865.564 227.54,-872.552"/>
</g>
<!-- Node4 -->
<g id="node4" class="node"><title>Node4</title>
<g id="a_node4"><a xlink:href="lapi_8c.html#a56bbb7479265e38da2e2596e6ec25faa" target="_top" xlink:title=" ">
<polygon fill="white" stroke="black" points="224,-817.5 224,-836.5 313,-836.5 313,-817.5 224,-817.5"/>
<text text-anchor="middle" x="268.5" y="-824.5" font-family="Helvetica,sans-Serif" font-size="10.00">lua_pushboolean</text>
</a>
</g>
</g>
<!-- Node1&#45;&gt;Node4 -->
<g id="edge62" class="edge"><title>Node1&#45;&gt;Node4</title>
<path fill="none" stroke="midnightblue" d="M64.0096,-760.625C105.764,-774.245 182.157,-799.163 228.532,-814.289"/>
<polygon fill="midnightblue" stroke="midnightblue" points="227.638,-817.679 238.23,-817.453 229.808,-811.024 227.638,-817.679"/>
</g>
<!-- Node5 -->
<g id="node5" class="node"><title>Node5</title>
<g id="a_node5"><a xlink:href="lapi_8c.html#a602f61a9b583d69dc1c72c8970bd65e8" target="_top" xlink:title=" ">
<polygon fill="white" stroke="black" points="230,-703.5 230,-722.5 307,-722.5 307,-703.5 230,-703.5"/>
<text text-anchor="middle" x="268.5" y="-710.5" font-family="Helvetica,sans-Serif" font-size="10.00">lua_pushvalue</text>
</a>
</g>
</g>
<!-- Node1&#45;&gt;Node5 -->
<g id="edge63" class="edge"><title>Node1&#45;&gt;Node5</title>
<path fill="none" stroke="midnightblue" d="M64.9469,-741.46C76.7356,-738.056 90.4028,-734.459 103,-732 141.828,-724.421 186.444,-719.5 219.406,-716.569"/>
<polygon fill="midnightblue" stroke="midnightblue" points="220.013,-720.03 229.677,-715.687 219.414,-713.056 220.013,-720.03"/>
</g>
<!-- Node7 -->
<g id="node7" class="node"><title>Node7</title>
<g id="a_node7"><a xlink:href="lapi_8c.html#a624df4cb2312b762c4fb528ecc889385" target="_top" xlink:title=" ">
<polygon fill="white" stroke="black" points="115.5,-551.5 115.5,-570.5 175.5,-570.5 175.5,-551.5 115.5,-551.5"/>
<text text-anchor="middle" x="145.5" y="-558.5" font-family="Helvetica,sans-Serif" font-size="10.00">lua_pcallk</text>
</a>
</g>
</g>
<!-- Node1&#45;&gt;Node7 -->
<g id="edge7" class="edge"><title>Node1&#45;&gt;Node7</title>
<path fill="none" stroke="midnightblue" d="M40.1061,-741.317C57.4612,-711.34 110.52,-619.693 133.593,-579.839"/>
<polygon fill="midnightblue" stroke="midnightblue" points="136.792,-581.3 138.773,-570.892 130.734,-577.792 136.792,-581.3"/>
</g>
<!-- Node128 -->
<g id="node44" class="node"><title>Node128</title>
<g id="a_node44"><a xlink:href="lapi_8c.html#af680e24129c0e021b4fbb7700cf185dc" target="_top" xlink:title=" ">
<polygon fill="white" stroke="black" points="116,-665.5 116,-684.5 175,-684.5 175,-665.5 116,-665.5"/>
<text text-anchor="middle" x="145.5" y="-672.5" font-family="Helvetica,sans-Serif" font-size="10.00">lua_rotate</text>
</a>
</g>
</g>
<!-- Node1&#45;&gt;Node128 -->
<g id="edge64" class="edge"><title>Node1&#45;&gt;Node128</title>
<path fill="none" stroke="midnightblue" d="M46.2935,-741.327C59.6861,-730.514 82.3612,-712.724 103,-699 107.765,-695.832 112.963,-692.634 118.019,-689.652"/>
<polygon fill="midnightblue" stroke="midnightblue" points="119.924,-692.594 126.841,-684.568 116.429,-686.528 119.924,-692.594"/>
</g>
<!-- Node130 -->
<g id="node46" class="node"><title>Node130</title>
<g id="a_node46"><a xlink:href="lauxlib_8c.html#a0f8f78c4edc5cbf890690b3cf9615dc8" target="_top" xlink:title=" ">
<polygon fill="white" stroke="black" points="103,-741.5 103,-760.5 188,-760.5 188,-741.5 103,-741.5"/>
<text text-anchor="middle" x="145.5" y="-748.5" font-family="Helvetica,sans-Serif" font-size="10.00">luaL_checktype</text>
</a>
</g>
</g>
<!-- Node1&#45;&gt;Node130 -->
<g id="edge67" class="edge"><title>Node1&#45;&gt;Node130</title>
<path fill="none" stroke="midnightblue" d="M67.2058,-751C75.2171,-751 83.988,-751 92.6541,-751"/>
<polygon fill="midnightblue" stroke="midnightblue" points="92.7275,-754.5 102.727,-751 92.7274,-747.5 92.7275,-754.5"/>
</g>
<!-- Node2&#45;&gt;Node3 -->
<g id="edge2" class="edge"><title>Node2&#45;&gt;Node3</title>
<path fill="none" stroke="midnightblue" d="M175.175,-836.005C190.832,-840.922 210.463,-847.088 227.594,-852.467"/>
<polygon fill="midnightblue" stroke="midnightblue" points="226.753,-855.872 237.342,-855.529 228.85,-849.193 226.753,-855.872"/>
</g>
<!-- Node2&#45;&gt;Node4 -->
<g id="edge3" class="edge"><title>Node2&#45;&gt;Node4</title>
<path fill="none" stroke="midnightblue" d="M175.175,-827C186.759,-827 200.518,-827 213.831,-827"/>
<polygon fill="midnightblue" stroke="midnightblue" points="213.88,-830.5 223.88,-827 213.88,-823.5 213.88,-830.5"/>
</g>
<!-- Node2&#45;&gt;Node5 -->
<g id="edge4" class="edge"><title>Node2&#45;&gt;Node5</title>
<path fill="none" stroke="midnightblue" d="M153.569,-817.198C169.28,-795.613 207.044,-744.867 224,-732 226.277,-730.272 228.736,-728.663 231.285,-727.174"/>
<polygon fill="midnightblue" stroke="midnightblue" points="232.904,-730.277 240.169,-722.565 229.681,-724.063 232.904,-730.277"/>
</g>
<!-- Node6 -->
<g id="node6" class="node"><title>Node6</title>
<g id="a_node6"><a xlink:href="lapi_8c.html#ae54b9bb381b32c86235a084984e40215" target="_top" xlink:title=" ">
<polygon fill="white" stroke="black" points="570,-646.5 570,-665.5 634,-665.5 634,-646.5 570,-646.5"/>
<text text-anchor="middle" x="602" y="-653.5" font-family="Helvetica,sans-Serif" font-size="10.00">index2addr</text>
</a>
</g>
</g>
<!-- Node5&#45;&gt;Node6 -->
<g id="edge5" class="edge"><title>Node5&#45;&gt;Node6</title>
<path fill="none" stroke="midnightblue" d="M306.567,-703.451C319.892,-700.202 335.07,-696.71 349,-694 422.795,-679.645 509.645,-667.605 559.711,-661.131"/>
<polygon fill="midnightblue" stroke="midnightblue" points="560.344,-664.579 569.818,-659.835 559.454,-657.636 560.344,-664.579"/>
</g>
<!-- Node7&#45;&gt;Node6 -->
<g id="edge55" class="edge"><title>Node7&#45;&gt;Node6</title>
<path fill="none" stroke="midnightblue" d="M175.622,-567.087C253.913,-583.452 469.108,-628.432 559.818,-647.392"/>
<polygon fill="midnightblue" stroke="midnightblue" points="559.232,-650.845 569.737,-649.465 560.664,-643.993 559.232,-650.845"/>
</g>
<!-- Node8 -->
<g id="node8" class="node"><title>Node8</title>
<g id="a_node8"><a xlink:href="lapi_8c.html#ac3926c93fb08234f9f47e24653124910" target="_top" xlink:title=" ">
<polygon fill="white" stroke="black" points="249,-513.5 249,-532.5 288,-532.5 288,-513.5 249,-513.5"/>
<text text-anchor="middle" x="268.5" y="-520.5" font-family="Helvetica,sans-Serif" font-size="10.00">f_call</text>
</a>
</g>
</g>
<!-- Node7&#45;&gt;Node8 -->
<g id="edge8" class="edge"><title>Node7&#45;&gt;Node8</title>
<path fill="none" stroke="midnightblue" d="M175.791,-551.801C195,-545.769 219.989,-537.921 239.03,-531.941"/>
<polygon fill="midnightblue" stroke="midnightblue" points="240.16,-535.255 248.652,-528.919 238.063,-528.576 240.16,-535.255"/>
</g>
<!-- Node10 -->
<g id="node10" class="node"><title>Node10</title>
<g id="a_node10"><a xlink:href="ldo_8c.html#a5483fddd87ca999e7d037bf397ab7997" target="_top" xlink:title=" ">
<polygon fill="white" stroke="black" points="472,-551.5 472,-570.5 528,-570.5 528,-551.5 472,-551.5"/>
<text text-anchor="middle" x="500" y="-558.5" font-family="Helvetica,sans-Serif" font-size="10.00">luaD_call</text>
</a>
</g>
</g>
<!-- Node7&#45;&gt;Node10 -->
<g id="edge56" class="edge"><title>Node7&#45;&gt;Node10</title>
<path fill="none" stroke="midnightblue" d="M175.646,-561C239.346,-561 390.908,-561 461.554,-561"/>
<polygon fill="midnightblue" stroke="midnightblue" points="461.771,-564.5 471.771,-561 461.771,-557.5 461.771,-564.5"/>
</g>
<!-- Node121 -->
<g id="node41" class="node"><title>Node121</title>
<g id="a_node41"><a xlink:href="ldo_8c.html#a1ad7f845cc62b110e3fcc0ae187d7c85" target="_top" xlink:title=" ">
<polygon fill="white" stroke="black" points="571,-76.5 571,-95.5 633,-95.5 633,-76.5 571,-76.5"/>
<text text-anchor="middle" x="602" y="-83.5" font-family="Helvetica,sans-Serif" font-size="10.00">luaD_pcall</text>
</a>
</g>
</g>
<!-- Node7&#45;&gt;Node121 -->
<g id="edge57" class="edge"><title>Node7&#45;&gt;Node121</title>
<path fill="none" stroke="midnightblue" d="M155.993,-551.079C213.062,-491.435 510.563,-180.516 584.401,-103.347"/>
<polygon fill="midnightblue" stroke="midnightblue" points="587.175,-105.511 591.559,-95.8665 582.117,-100.672 587.175,-105.511"/>
</g>
<!-- Node9 -->
<g id="node9" class="node"><title>Node9</title>
<g id="a_node9"><a xlink:href="ldo_8c.html#a61c0a0185ef5ae1493dad10027f4db7e" target="_top" xlink:title=" ">
<polygon fill="white" stroke="black" points="349,-513.5 349,-532.5 436,-532.5 436,-513.5 349,-513.5"/>
<text text-anchor="middle" x="392.5" y="-520.5" font-family="Helvetica,sans-Serif" font-size="10.00">luaD_callnoyield</text>
</a>
</g>
</g>
<!-- Node8&#45;&gt;Node9 -->
<g id="edge9" class="edge"><title>Node8&#45;&gt;Node9</title>
<path fill="none" stroke="midnightblue" d="M288.029,-523C301.577,-523 320.673,-523 338.779,-523"/>
<polygon fill="midnightblue" stroke="midnightblue" points="338.983,-526.5 348.983,-523 338.983,-519.5 338.983,-526.5"/>
</g>
<!-- Node9&#45;&gt;Node10 -->
<g id="edge10" class="edge"><title>Node9&#45;&gt;Node10</title>
<path fill="none" stroke="midnightblue" d="M420.122,-532.589C432.991,-537.224 448.637,-542.86 462.59,-547.885"/>
<polygon fill="midnightblue" stroke="midnightblue" points="461.792,-551.318 472.386,-551.414 464.164,-544.732 461.792,-551.318"/>
</g>
<!-- Node11 -->
<g id="node11" class="node"><title>Node11</title>
<g id="a_node11"><a xlink:href="ldo_8c.html#a457e0f1c2e2f960d4132af6899f52488" target="_top" xlink:title=" ">
<polygon fill="white" stroke="black" points="687,-988.5 687,-1007.5 757,-1007.5 757,-988.5 687,-988.5"/>
<text text-anchor="middle" x="722" y="-995.5" font-family="Helvetica,sans-Serif" font-size="10.00">luaD_precall</text>
</a>
</g>
</g>
<!-- Node10&#45;&gt;Node11 -->
<g id="edge11" class="edge"><title>Node10&#45;&gt;Node11</title>
<path fill="none" stroke="midnightblue" d="M528.146,-567.644C560.612,-577.134 613.845,-597.913 640,-637 721.803,-759.25 601.534,-839.146 676,-966 679.87,-972.593 685.696,-978.184 691.884,-982.757"/>
<polygon fill="midnightblue" stroke="midnightblue" points="690.119,-985.785 700.396,-988.361 693.968,-979.939 690.119,-985.785"/>
</g>
<!-- Node62 -->
<g id="node17" class="node"><title>Node62</title>
<g id="a_node17"><a xlink:href="lvm_8c.html#ac2f06b04f1a3f67775bbccfe589ecb74" target="_top" xlink:title=" ">
<polygon fill="white" stroke="black" points="564,-551.5 564,-570.5 640,-570.5 640,-551.5 564,-551.5"/>
<text text-anchor="middle" x="602" y="-558.5" font-family="Helvetica,sans-Serif" font-size="10.00">luaV_execute</text>
</a>
</g>
</g>
<!-- Node10&#45;&gt;Node62 -->
<g id="edge20" class="edge"><title>Node10&#45;&gt;Node62</title>
<path fill="none" stroke="midnightblue" d="M528.061,-554.926C535.961,-554.426 544.835,-554.203 553.602,-554.258"/>
<polygon fill="midnightblue" stroke="midnightblue" points="553.716,-557.761 563.78,-554.45 553.848,-550.762 553.716,-557.761"/>
</g>
<!-- Node120 -->
<g id="node40" class="node"><title>Node120</title>
<g id="a_node40"><a xlink:href="ldo_8c.html#a2ca9990655e286c331473003cf0bebb1" target="_top" xlink:title=" ">
<polygon fill="white" stroke="red" points="572,-342.5 572,-361.5 632,-361.5 632,-342.5 572,-342.5"/>
<text text-anchor="middle" x="602" y="-349.5" font-family="Helvetica,sans-Serif" font-size="10.00">stackerror</text>
</a>
</g>
</g>
<!-- Node10&#45;&gt;Node120 -->
<g id="edge53" class="edge"><title>Node10&#45;&gt;Node120</title>
<path fill="none" stroke="midnightblue" d="M505.557,-551.477C520.979,-519.243 571.404,-413.856 592.057,-370.691"/>
<polygon fill="midnightblue" stroke="midnightblue" points="595.258,-372.111 596.417,-361.579 588.943,-369.089 595.258,-372.111"/>
</g>
<!-- Node11&#45;&gt;Node11 -->
<g id="edge18" class="edge"><title>Node11&#45;&gt;Node11</title>
<path fill="none" stroke="midnightblue" d="M703.505,-1007.76C694.507,-1016.57 700.672,-1026 722,-1026 735.663,-1026 743.104,-1022.13 744.321,-1017.03"/>
<polygon fill="midnightblue" stroke="midnightblue" points="747.545,-1015.67 740.495,-1007.76 741.074,-1018.34 747.545,-1015.67"/>
</g>
<!-- Node12 -->
<g id="node12" class="node"><title>Node12</title>
<g id="a_node12"><a xlink:href="ldo_8c.html#a1851ef3d36678d781b30a079c397c300" target="_top" xlink:title=" ">
<polygon fill="white" stroke="black" points="804,-1083.5 804,-1102.5 883,-1102.5 883,-1083.5 804,-1083.5"/>
<text text-anchor="middle" x="843.5" y="-1090.5" font-family="Helvetica,sans-Serif" font-size="10.00">adjust_varargs</text>
</a>
</g>
</g>
<!-- Node11&#45;&gt;Node12 -->
<g id="edge12" class="edge"><title>Node11&#45;&gt;Node12</title>
<path fill="none" stroke="midnightblue" d="M731.697,-1007.86C745.751,-1023.37 774.837,-1053.79 804,-1074 806.355,-1075.63 808.87,-1077.2 811.446,-1078.69"/>
<polygon fill="midnightblue" stroke="midnightblue" points="809.814,-1081.79 820.282,-1083.42 813.119,-1075.62 809.814,-1081.79"/>
</g>
<!-- Node13 -->
<g id="node13" class="node"><title>Node13</title>
<g id="a_node13"><a xlink:href="ldo_8c.html#a357a5e33e4ca8106aba1a348aab9eed2" target="_top" xlink:title=" ">
<polygon fill="white" stroke="black" points="817,-1045.5 817,-1064.5 870,-1064.5 870,-1045.5 817,-1045.5"/>
<text text-anchor="middle" x="843.5" y="-1052.5" font-family="Helvetica,sans-Serif" font-size="10.00">callhook</text>
</a>
</g>
</g>
<!-- Node11&#45;&gt;Node13 -->
<g id="edge13" class="edge"><title>Node11&#45;&gt;Node13</title>
<path fill="none" stroke="midnightblue" d="M743.002,-1007.54C762.217,-1016.71 791.47,-1030.66 813.291,-1041.07"/>
<polygon fill="midnightblue" stroke="midnightblue" points="811.9,-1044.28 822.433,-1045.43 814.914,-1037.96 811.9,-1044.28"/>
</g>
<!-- Node14 -->
<g id="node14" class="node"><title>Node14</title>
<g id="a_node14"><a xlink:href="ldo_8c.html#a1307240b4568c46e58a37dff64f4a255" target="_top" xlink:title=" ">
<polygon fill="white" stroke="black" points="943,-969.5 943,-988.5 1005,-988.5 1005,-969.5 943,-969.5"/>
<text text-anchor="middle" x="974" y="-976.5" font-family="Helvetica,sans-Serif" font-size="10.00">luaD_hook</text>
</a>
</g>
</g>
<!-- Node11&#45;&gt;Node14 -->
<g id="edge15" class="edge"><title>Node11&#45;&gt;Node14</title>
<path fill="none" stroke="midnightblue" d="M757.237,-995.398C802.96,-991.923 883.836,-985.776 932.524,-982.076"/>
<polygon fill="midnightblue" stroke="midnightblue" points="932.989,-985.551 942.695,-981.303 932.459,-978.571 932.989,-985.551"/>
</g>
<!-- Node15 -->
<g id="node15" class="node"><title>Node15</title>
<g id="a_node15"><a xlink:href="ldo_8c.html#a43b2bc73f8881b1bcb5f650395f35522" target="_top" xlink:title=" ">
<polygon fill="white" stroke="red" points="807.5,-931.5 807.5,-950.5 879.5,-950.5 879.5,-931.5 807.5,-931.5"/>
<text text-anchor="middle" x="843.5" y="-938.5" font-family="Helvetica,sans-Serif" font-size="10.00">luaD_poscall</text>
</a>
</g>
</g>
<!-- Node11&#45;&gt;Node15 -->
<g id="edge16" class="edge"><title>Node11&#45;&gt;Node15</title>
<path fill="none" stroke="midnightblue" d="M743.002,-988.459C762.217,-979.294 791.47,-965.341 813.291,-954.932"/>
<polygon fill="midnightblue" stroke="midnightblue" points="814.914,-958.036 822.433,-950.572 811.9,-951.718 814.914,-958.036"/>
</g>
<!-- Node17 -->
<g id="node16" class="node"><title>Node17</title>
<g id="a_node16"><a xlink:href="ldo_8c.html#a47c0dbcf19b5c674e4204a3e69e17608" target="_top" xlink:title=" ">
<polygon fill="white" stroke="red" points="814,-1007.5 814,-1026.5 873,-1026.5 873,-1007.5 814,-1007.5"/>
<text text-anchor="middle" x="843.5" y="-1014.5" font-family="Helvetica,sans-Serif" font-size="10.00">tryfuncTM</text>
</a>
</g>
</g>
<!-- Node11&#45;&gt;Node17 -->
<g id="edge19" class="edge"><title>Node11&#45;&gt;Node17</title>
<path fill="none" stroke="midnightblue" d="M757.244,-1003.44C771.814,-1005.76 788.874,-1008.47 803.89,-1010.86"/>
<polygon fill="midnightblue" stroke="midnightblue" points="803.477,-1014.34 813.903,-1012.45 804.577,-1007.43 803.477,-1014.34"/>
</g>
<!-- Node13&#45;&gt;Node14 -->
<g id="edge14" class="edge"><title>Node13&#45;&gt;Node14</title>
<path fill="none" stroke="midnightblue" d="M865.09,-1045.34C870.944,-1042.46 877.28,-1039.21 883,-1036 906.485,-1022.82 932.372,-1006.19 950.331,-994.3"/>
<polygon fill="midnightblue" stroke="midnightblue" points="952.564,-997.018 958.944,-988.559 948.682,-991.193 952.564,-997.018"/>
</g>
<!-- Node15&#45;&gt;Node14 -->
<g id="edge17" class="edge"><title>Node15&#45;&gt;Node14</title>
<path fill="none" stroke="midnightblue" d="M876.926,-950.589C893.989,-955.635 915.059,-961.866 933.115,-967.205"/>
<polygon fill="midnightblue" stroke="midnightblue" points="932.209,-970.587 942.791,-970.067 934.194,-963.874 932.209,-970.587"/>
</g>
<!-- Node62&#45;&gt;Node10 -->
<g id="edge23" class="edge"><title>Node62&#45;&gt;Node10</title>
<path fill="none" stroke="midnightblue" d="M563.78,-567.55C555.448,-567.816 546.607,-567.817 538.272,-567.552"/>
<polygon fill="midnightblue" stroke="midnightblue" points="538.214,-564.045 528.061,-567.074 537.887,-571.038 538.214,-564.045"/>
</g>
<!-- Node62&#45;&gt;Node11 -->
<g id="edge25" class="edge"><title>Node62&#45;&gt;Node11</title>
<path fill="none" stroke="midnightblue" d="M618.523,-570.677C626.349,-576.437 635.181,-584.477 640,-594 716.598,-745.368 581.948,-832.813 676,-974 678.255,-977.385 681.15,-980.328 684.382,-982.879"/>
<polygon fill="midnightblue" stroke="midnightblue" points="682.647,-985.925 692.939,-988.439 686.461,-980.056 682.647,-985.925"/>
</g>
<!-- Node62&#45;&gt;Node15 -->
<g id="edge24" class="edge"><title>Node62&#45;&gt;Node15</title>
<path fill="none" stroke="midnightblue" d="M618.489,-570.695C626.306,-576.459 635.138,-584.498 640,-594 675.312,-663.016 618.423,-889.087 676,-941 710.93,-972.494 768.715,-963.955 806.194,-953.549"/>
<polygon fill="midnightblue" stroke="midnightblue" points="807.592,-956.785 816.191,-950.596 805.609,-950.072 807.592,-956.785"/>
</g>
<!-- Node63 -->
<g id="node18" class="node"><title>Node63</title>
<g id="a_node18"><a xlink:href="lvm_8c.html#a5067d82b91193d8a032fdf9170e6eb42" target="_top" xlink:title=" ">
<polygon fill="white" stroke="red" points="699.5,-608.5 699.5,-627.5 744.5,-627.5 744.5,-608.5 699.5,-608.5"/>
<text text-anchor="middle" x="722" y="-615.5" font-family="Helvetica,sans-Serif" font-size="10.00">forlimit</text>
</a>
</g>
</g>
<!-- Node62&#45;&gt;Node63 -->
<g id="edge21" class="edge"><title>Node62&#45;&gt;Node63</title>
<path fill="none" stroke="midnightblue" d="M620.502,-570.616C635.167,-578.551 656.736,-589.937 676,-599 680.465,-601.101 685.225,-603.228 689.916,-605.261"/>
<polygon fill="midnightblue" stroke="midnightblue" points="688.756,-608.571 699.328,-609.264 691.496,-602.13 688.756,-608.571"/>
</g>
<!-- Node71 -->
<g id="node19" class="node"><title>Node71</title>
<g id="a_node19"><a xlink:href="lvm_8c.html#a73d3c508b2a67ebfac739e46d8246ed1" target="_top" xlink:title=" ">
<polygon fill="white" stroke="black" points="691,-570.5 691,-589.5 753,-589.5 753,-570.5 691,-570.5"/>
<text text-anchor="middle" x="722" y="-577.5" font-family="Helvetica,sans-Serif" font-size="10.00">getcached</text>
</a>
</g>
</g>
<!-- Node62&#45;&gt;Node71 -->
<g id="edge22" class="edge"><title>Node62&#45;&gt;Node71</title>
<path fill="none" stroke="midnightblue" d="M640.012,-566.96C652.918,-569.038 667.463,-571.38 680.628,-573.499"/>
<polygon fill="midnightblue" stroke="midnightblue" points="680.404,-577.008 690.833,-575.143 681.517,-570.097 680.404,-577.008"/>
</g>
<!-- Node72 -->
<g id="node20" class="node"><title>Node72</title>
<g id="a_node20"><a xlink:href="lfunc_8c.html#ab50c76a12250379a898290f481de4ab6" target="_top" xlink:title=" ">
<polygon fill="white" stroke="black" points="690,-114.5 690,-133.5 754,-133.5 754,-114.5 690,-114.5"/>
<text text-anchor="middle" x="722" y="-121.5" font-family="Helvetica,sans-Serif" font-size="10.00">luaF_close</text>
</a>
</g>
</g>
<!-- Node62&#45;&gt;Node72 -->
<g id="edge26" class="edge"><title>Node62&#45;&gt;Node72</title>
<path fill="none" stroke="midnightblue" d="M605.039,-551.131C610.818,-523.029 627.689,-440.149 640,-371 657.597,-272.16 617.631,-229.683 676,-148 678.365,-144.691 681.33,-141.796 684.604,-139.274"/>
<polygon fill="midnightblue" stroke="midnightblue" points="686.687,-142.096 693.211,-133.749 682.905,-136.206 686.687,-142.096"/>
</g>
<!-- Node19 -->
<g id="node21" class="node"><title>Node19</title>
<g id="a_node21"><a xlink:href="ldebug_8c.html#a88d38ca5da2e7a1492fc9d5ad70c32c5" target="_top" xlink:title=" ">
<polygon fill="white" stroke="red" points="806,-437.5 806,-456.5 881,-456.5 881,-437.5 806,-437.5"/>
<text text-anchor="middle" x="843.5" y="-444.5" font-family="Helvetica,sans-Serif" font-size="10.00">luaG_runerror</text>
</a>
</g>
</g>
<!-- Node62&#45;&gt;Node19 -->
<g id="edge27" class="edge"><title>Node62&#45;&gt;Node19</title>
<path fill="none" stroke="midnightblue" d="M604.184,-551.211C608.177,-523.047 623.964,-441.735 676,-409 721.421,-380.426 785.837,-411.247 819.689,-431.763"/>
<polygon fill="midnightblue" stroke="midnightblue" points="818.054,-434.869 828.385,-437.218 821.774,-428.939 818.054,-434.869"/>
</g>
<!-- Node73 -->
<g id="node22" class="node"><title>Node73</title>
<g id="a_node22"><a xlink:href="ltable_8c.html#ae273e09d2342a84f5cdfa976c66f28c0" target="_top" xlink:title=" ">
<polygon fill="white" stroke="red" points="689,-342.5 689,-361.5 755,-361.5 755,-342.5 689,-342.5"/>
<text text-anchor="middle" x="722" y="-349.5" font-family="Helvetica,sans-Serif" font-size="10.00">luaH_getstr</text>
</a>
</g>
</g>
<!-- Node62&#45;&gt;Node73 -->
<g id="edge28" class="edge"><title>Node62&#45;&gt;Node73</title>
<path fill="none" stroke="midnightblue" d="M604.41,-551.325C609.188,-521.65 627.276,-430.627 676,-376 679.067,-372.562 682.745,-369.53 686.661,-366.881"/>
<polygon fill="midnightblue" stroke="midnightblue" points="688.632,-369.782 695.466,-361.685 685.075,-363.753 688.632,-369.782"/>
</g>
<!-- Node78 -->
<g id="node23" class="node"><title>Node78</title>
<g id="a_node23"><a xlink:href="ltable_8c.html#a6c97fb2d6a020b0a6f852562fef93d97" target="_top" xlink:title=" ">
<polygon fill="white" stroke="red" points="692.5,-304.5 692.5,-323.5 751.5,-323.5 751.5,-304.5 692.5,-304.5"/>
<text text-anchor="middle" x="722" y="-311.5" font-family="Helvetica,sans-Serif" font-size="10.00">luaH_new</text>
</a>
</g>
</g>
<!-- Node62&#45;&gt;Node78 -->
<g id="edge29" class="edge"><title>Node62&#45;&gt;Node78</title>
<path fill="none" stroke="midnightblue" d="M603.33,-551.372C605.007,-517.105 615.147,-399.569 676,-333 678.231,-330.559 680.827,-328.421 683.625,-326.55"/>
<polygon fill="midnightblue" stroke="midnightblue" points="685.376,-329.581 692.46,-321.702 682.009,-323.444 685.376,-329.581"/>
</g>
<!-- Node81 -->
<g id="node24" class="node"><title>Node81</title>
<g id="a_node24"><a xlink:href="ltable_8c.html#a261bfad2fb15273968f2b07c6cbd803a" target="_top" xlink:title=" ">
<polygon fill="white" stroke="red" points="809.5,-190.5 809.5,-209.5 877.5,-209.5 877.5,-190.5 809.5,-190.5"/>
<text text-anchor="middle" x="843.5" y="-197.5" font-family="Helvetica,sans-Serif" font-size="10.00">luaH_resize</text>
</a>
</g>
</g>
<!-- Node62&#45;&gt;Node81 -->
<g id="edge30" class="edge"><title>Node62&#45;&gt;Node81</title>
<path fill="none" stroke="midnightblue" d="M604.906,-551.315C615.763,-496.25 669.538,-224.866 676,-219 708.983,-189.061 762.068,-188.137 799.413,-192.231"/>
<polygon fill="midnightblue" stroke="midnightblue" points="799.141,-195.724 809.5,-193.499 800.014,-188.779 799.141,-195.724"/>
</g>
<!-- Node95 -->
<g id="node26" class="node"><title>Node95</title>
<g id="a_node26"><a xlink:href="ltable_8c.html#a9eefa8191c63f55cffb6b7b58217467c" target="_top" xlink:title=" ">
<polygon fill="white" stroke="red" points="941.5,-513.5 941.5,-532.5 1006.5,-532.5 1006.5,-513.5 941.5,-513.5"/>
<text text-anchor="middle" x="974" y="-520.5" font-family="Helvetica,sans-Serif" font-size="10.00">luaH_setint</text>
</a>
</g>
</g>
<!-- Node62&#45;&gt;Node95 -->
<g id="edge35" class="edge"><title>Node62&#45;&gt;Node95</title>
<path fill="none" stroke="midnightblue" d="M631.739,-570.654C634.875,-572.675 637.742,-575.099 640,-578 694.127,-647.551 608.261,-716.622 676,-773 707.428,-799.157 729.631,-787.131 768,-773 877.41,-732.705 944.238,-593.2 965.552,-542.019"/>
<polygon fill="midnightblue" stroke="midnightblue" points="968.895,-543.088 969.408,-532.505 962.408,-540.458 968.895,-543.088"/>
</g>
<!-- Node97 -->
<g id="node27" class="node"><title>Node97</title>
<g id="a_node27"><a xlink:href="ltable_8c.html#aeb5ce72fe8d43709093264d6522a27d4" target="_top" xlink:title=" ">
<polygon fill="white" stroke="black" points="677.5,-228.5 677.5,-247.5 766.5,-247.5 766.5,-228.5 677.5,-228.5"/>
<text text-anchor="middle" x="722" y="-235.5" font-family="Helvetica,sans-Serif" font-size="10.00">luaH_resizearray</text>
</a>
</g>
</g>
<!-- Node62&#45;&gt;Node97 -->
<g id="edge33" class="edge"><title>Node62&#45;&gt;Node97</title>
<path fill="none" stroke="midnightblue" d="M604.77,-551.411C613.903,-502.322 656.031,-280.542 676,-257 677.131,-255.666 678.373,-254.424 679.699,-253.267"/>
<polygon fill="midnightblue" stroke="midnightblue" points="681.784,-256.081 688.045,-247.535 677.821,-250.311 681.784,-256.081"/>
</g>
<!-- Node98 -->
<g id="node28" class="node"><title>Node98</title>
<g id="a_node28"><a xlink:href="lobject_8c.html#a343c0628f26c31dfeb37043a67d7cc63" target="_top" xlink:title=" ">
<polygon fill="white" stroke="black" points="689.5,-266.5 689.5,-285.5 754.5,-285.5 754.5,-266.5 689.5,-266.5"/>
<text text-anchor="middle" x="722" y="-273.5" font-family="Helvetica,sans-Serif" font-size="10.00">luaO_fb2int</text>
</a>
</g>
</g>
<!-- Node62&#45;&gt;Node98 -->
<g id="edge36" class="edge"><title>Node62&#45;&gt;Node98</title>
<path fill="none" stroke="midnightblue" d="M604.48,-551.461C611.272,-508.741 640.652,-335.338 676,-295 677.341,-293.469 678.827,-292.059 680.417,-290.759"/>
<polygon fill="midnightblue" stroke="midnightblue" points="682.586,-293.524 689.067,-285.143 678.774,-287.653 682.586,-293.524"/>
</g>
<!-- Node39 -->
<g id="node29" class="node"><title>Node39</title>
<g id="a_node29"><a xlink:href="ltm_8c.html#a2adc638eccb971b8abaf27f60611e913" target="_top" xlink:title=" ">
<polygon fill="white" stroke="red" points="805,-646.5 805,-665.5 882,-665.5 882,-646.5 805,-646.5"/>
<text text-anchor="middle" x="843.5" y="-653.5" font-family="Helvetica,sans-Serif" font-size="10.00">luaT_trybinTM</text>
</a>
</g>
</g>
<!-- Node62&#45;&gt;Node39 -->
<g id="edge37" class="edge"><title>Node62&#45;&gt;Node39</title>
<path fill="none" stroke="midnightblue" d="M617.664,-570.664C625.431,-576.524 634.481,-584.664 640,-594 676.434,-655.624 620.007,-706.393 676,-751 707.981,-776.478 731.233,-768.891 768,-751 800.506,-735.182 823.028,-697.556 834.264,-674.688"/>
<polygon fill="midnightblue" stroke="midnightblue" points="837.438,-676.164 838.507,-665.623 831.098,-673.197 837.438,-676.164"/>
</g>
<!-- Node37 -->
<g id="node30" class="node"><title>Node37</title>
<g id="a_node30"><a xlink:href="lvm_8c.html#a2f076040af405dcb50d661edd692eca7" target="_top" xlink:title=" ">
<polygon fill="white" stroke="red" points="686.5,-532.5 686.5,-551.5 757.5,-551.5 757.5,-532.5 686.5,-532.5"/>
<text text-anchor="middle" x="722" y="-539.5" font-family="Helvetica,sans-Serif" font-size="10.00">luaV_concat</text>
</a>
</g>
</g>
<!-- Node62&#45;&gt;Node37 -->
<g id="edge38" class="edge"><title>Node62&#45;&gt;Node37</title>
<path fill="none" stroke="midnightblue" d="M640.012,-555.04C651.408,-553.205 664.082,-551.165 675.955,-549.253"/>
<polygon fill="midnightblue" stroke="midnightblue" points="676.815,-552.66 686.131,-547.614 675.702,-545.749 676.815,-552.66"/>
</g>
<!-- Node99 -->
<g id="node31" class="node"><title>Node99</title>
<g id="a_node31"><a xlink:href="lvm_8c.html#aa0942a9dfc7ebca250866958c7f0bd6f" target="_top" xlink:title=" ">
<polygon fill="white" stroke="black" points="695.5,-456.5 695.5,-475.5 748.5,-475.5 748.5,-456.5 695.5,-456.5"/>
<text text-anchor="middle" x="722" y="-463.5" font-family="Helvetica,sans-Serif" font-size="10.00">luaV_div</text>
</a>
</g>
</g>
<!-- Node62&#45;&gt;Node99 -->
<g id="edge41" class="edge"><title>Node62&#45;&gt;Node99</title>
<path fill="none" stroke="midnightblue" d="M610.101,-551.386C622.131,-535.666 647.963,-504.285 676,-485 679.118,-482.855 682.516,-480.881 686.002,-479.083"/>
<polygon fill="midnightblue" stroke="midnightblue" points="687.724,-482.142 695.304,-474.738 684.762,-475.799 687.724,-482.142"/>
</g>
<!-- Node100 -->
<g id="node32" class="node"><title>Node100</title>
<g id="a_node32"><a xlink:href="lvm_8c.html#a4826066036eb5f7cf0f8a33f7073f49e" target="_top" xlink:title=" ">
<polygon fill="white" stroke="red" points="683.5,-912.5 683.5,-931.5 760.5,-931.5 760.5,-912.5 683.5,-912.5"/>
<text text-anchor="middle" x="722" y="-919.5" font-family="Helvetica,sans-Serif" font-size="10.00">luaV_equalobj</text>
</a>
</g>
</g>
<!-- Node62&#45;&gt;Node100 -->
<g id="edge43" class="edge"><title>Node62&#45;&gt;Node100</title>
<path fill="none" stroke="midnightblue" d="M618.442,-570.719C626.244,-576.491 635.079,-584.529 640,-594 703.752,-716.687 593.028,-792.401 676,-903 676.802,-904.068 677.675,-905.077 678.608,-906.03"/>
<polygon fill="midnightblue" stroke="midnightblue" points="676.677,-908.96 686.736,-912.286 680.946,-903.413 676.677,-908.96"/>
</g>
<!-- Node102 -->
<g id="node33" class="node"><title>Node102</title>
<g id="a_node33"><a xlink:href="lvm_8c.html#a45c30a70c51ed843f58bd446aa2096c9" target="_top" xlink:title=" ">
<polygon fill="white" stroke="red" points="683.5,-418.5 683.5,-437.5 760.5,-437.5 760.5,-418.5 683.5,-418.5"/>
<text text-anchor="middle" x="722" y="-425.5" font-family="Helvetica,sans-Serif" font-size="10.00">luaV_finishget</text>
</a>
</g>
</g>
<!-- Node62&#45;&gt;Node102 -->
<g id="edge44" class="edge"><title>Node62&#45;&gt;Node102</title>
<path fill="none" stroke="midnightblue" d="M606.792,-551.37C615.721,-529.834 640.061,-477.294 676,-447 677.791,-445.49 679.72,-444.085 681.735,-442.779"/>
<polygon fill="midnightblue" stroke="midnightblue" points="683.911,-445.576 690.972,-437.677 680.526,-439.449 683.911,-445.576"/>
</g>
<!-- Node103 -->
<g id="node34" class="node"><title>Node103</title>
<g id="a_node34"><a xlink:href="lvm_8c.html#a03d32b640c60651c78bc5ae0f2bc0549" target="_top" xlink:title=" ">
<polygon fill="white" stroke="red" points="680.5,-874.5 680.5,-893.5 763.5,-893.5 763.5,-874.5 680.5,-874.5"/>
<text text-anchor="middle" x="722" y="-881.5" font-family="Helvetica,sans-Serif" font-size="10.00">luaV_lessequal</text>
</a>
</g>
</g>
<!-- Node62&#45;&gt;Node103 -->
<g id="edge46" class="edge"><title>Node62&#45;&gt;Node103</title>
<path fill="none" stroke="midnightblue" d="M618.381,-570.751C626.166,-576.532 635.003,-584.569 640,-594 696.89,-701.361 602.306,-768.397 676,-865 676.81,-866.062 677.691,-867.065 678.63,-868.013"/>
<polygon fill="midnightblue" stroke="midnightblue" points="676.72,-870.957 686.792,-874.243 680.967,-865.393 676.72,-870.957"/>
</g>
<!-- Node110 -->
<g id="node35" class="node"><title>Node110</title>
<g id="a_node35"><a xlink:href="lvm_8c.html#a82cf4e4e2322eef8c4c53b98669e2ada" target="_top" xlink:title=" ">
<polygon fill="white" stroke="red" points="683,-836.5 683,-855.5 761,-855.5 761,-836.5 683,-836.5"/>
<text text-anchor="middle" x="722" y="-843.5" font-family="Helvetica,sans-Serif" font-size="10.00">luaV_lessthan</text>
</a>
</g>
</g>
<!-- Node62&#45;&gt;Node110 -->
<g id="edge47" class="edge"><title>Node62&#45;&gt;Node110</title>
<path fill="none" stroke="midnightblue" d="M617.915,-570.522C625.761,-576.337 634.805,-584.48 640,-594 689.142,-684.053 616.499,-738.429 676,-822 678.359,-825.313 681.32,-828.21 684.592,-830.734"/>
<polygon fill="midnightblue" stroke="midnightblue" points="682.892,-833.802 693.197,-836.261 686.675,-827.912 682.892,-833.802"/>
</g>
<!-- Node112 -->
<g id="node36" class="node"><title>Node112</title>
<g id="a_node36"><a xlink:href="lvm_8c.html#af1241d1650e114f39843626fd879d3d6" target="_top" xlink:title=" ">
<polygon fill="white" stroke="black" points="692,-494.5 692,-513.5 752,-513.5 752,-494.5 692,-494.5"/>
<text text-anchor="middle" x="722" y="-501.5" font-family="Helvetica,sans-Serif" font-size="10.00">luaV_mod</text>
</a>
</g>
</g>
<!-- Node62&#45;&gt;Node112 -->
<g id="edge48" class="edge"><title>Node62&#45;&gt;Node112</title>
<path fill="none" stroke="midnightblue" d="M620.502,-551.384C635.167,-543.449 656.736,-532.063 676,-523 679.885,-521.172 683.993,-519.325 688.084,-517.536"/>
<polygon fill="midnightblue" stroke="midnightblue" points="689.673,-520.663 697.486,-513.508 686.916,-514.229 689.673,-520.663"/>
</g>
<!-- Node113 -->
<g id="node37" class="node"><title>Node113</title>
<g id="a_node37"><a xlink:href="lvm_8c.html#aae23b597659b2aae680f1d0a0b39ab3b" target="_top" xlink:title=" ">
<polygon fill="white" stroke="red" points="688.5,-722.5 688.5,-741.5 755.5,-741.5 755.5,-722.5 688.5,-722.5"/>
<text text-anchor="middle" x="722" y="-729.5" font-family="Helvetica,sans-Serif" font-size="10.00">luaV_objlen</text>
</a>
</g>
</g>
<!-- Node62&#45;&gt;Node113 -->
<g id="edge50" class="edge"><title>Node62&#45;&gt;Node113</title>
<path fill="none" stroke="midnightblue" d="M617.054,-570.535C624.822,-576.463 634.072,-584.713 640,-594 669.731,-640.576 639.048,-671.918 676,-713 677.17,-714.3 678.443,-715.515 679.796,-716.648"/>
<polygon fill="midnightblue" stroke="midnightblue" points="677.982,-719.646 688.241,-722.294 681.873,-713.827 677.982,-719.646"/>
</g>
<!-- Node116 -->
<g id="node38" class="node"><title>Node116</title>
<g id="a_node38"><a xlink:href="lvm_8c.html#ade6c9565152d0bb1f6116a90ea2c867a" target="_top" xlink:title=" ">
<polygon fill="white" stroke="black" points="691,-684.5 691,-703.5 753,-703.5 753,-684.5 691,-684.5"/>
<text text-anchor="middle" x="722" y="-691.5" font-family="Helvetica,sans-Serif" font-size="10.00">luaV_shiftl</text>
</a>
</g>
</g>
<!-- Node62&#45;&gt;Node116 -->
<g id="edge51" class="edge"><title>Node62&#45;&gt;Node116</title>
<path fill="none" stroke="midnightblue" d="M616.273,-570.544C623.966,-576.592 633.405,-584.961 640,-594 663.221,-625.824 647.884,-647.405 676,-675 677.854,-676.819 679.908,-678.475 682.088,-679.981"/>
<polygon fill="midnightblue" stroke="midnightblue" points="680.547,-683.132 690.963,-685.07 684.029,-677.059 680.547,-683.132"/>
</g>
<!-- Node117 -->
<g id="node39" class="node"><title>Node117</title>
<g id="a_node39"><a xlink:href="lvm_8c.html#a4bcc07915cc8b4d397b6d411e4d2723c" target="_top" xlink:title=" ">
<polygon fill="white" stroke="red" points="687.5,-646.5 687.5,-665.5 756.5,-665.5 756.5,-646.5 687.5,-646.5"/>
<text text-anchor="middle" x="722" y="-653.5" font-family="Helvetica,sans-Serif" font-size="10.00">pushclosure</text>
</a>
</g>
</g>
<!-- Node62&#45;&gt;Node117 -->
<g id="edge52" class="edge"><title>Node62&#45;&gt;Node117</title>
<path fill="none" stroke="midnightblue" d="M614.731,-570.698C622.212,-577.064 631.973,-585.718 640,-594 657.346,-611.898 655.958,-622.182 676,-637 678.301,-638.702 680.778,-640.285 683.344,-641.751"/>
<polygon fill="midnightblue" stroke="midnightblue" points="681.784,-644.884 692.285,-646.289 684.952,-638.642 681.784,-644.884"/>
</g>
<!-- Node83 -->
<g id="node25" class="node"><title>Node83</title>
<g id="a_node25"><a xlink:href="ldo_8c.html#ab0872b1738a995ecbf1cdc8a9bc0fdf6" target="_top" xlink:title=" ">
<polygon fill="white" stroke="black" points="919,-133.5 919,-152.5 1029,-152.5 1029,-133.5 919,-133.5"/>
<text text-anchor="middle" x="974" y="-140.5" font-family="Helvetica,sans-Serif" font-size="10.00">luaD_rawrunprotected</text>
</a>
</g>
</g>
<!-- Node81&#45;&gt;Node83 -->
<g id="edge31" class="edge"><title>Node81&#45;&gt;Node83</title>
<path fill="none" stroke="midnightblue" d="M866.008,-190.459C886.856,-181.212 918.692,-167.09 942.22,-156.653"/>
<polygon fill="midnightblue" stroke="midnightblue" points="943.7,-159.826 951.422,-152.572 940.862,-153.427 943.7,-159.826"/>
</g>
<!-- Node81&#45;&gt;Node95 -->
<g id="edge32" class="edge"><title>Node81&#45;&gt;Node95</title>
<path fill="none" stroke="midnightblue" d="M848.346,-209.667C866.191,-254.524 941.087,-442.782 965.367,-503.813"/>
<polygon fill="midnightblue" stroke="midnightblue" points="962.221,-505.373 969.169,-513.371 968.725,-502.785 962.221,-505.373"/>
</g>
<!-- Node97&#45;&gt;Node81 -->
<g id="edge34" class="edge"><title>Node97&#45;&gt;Node81</title>
<path fill="none" stroke="midnightblue" d="M753.155,-228.411C768.157,-223.641 786.488,-217.811 802.634,-212.677"/>
<polygon fill="midnightblue" stroke="midnightblue" points="803.886,-215.952 812.355,-209.586 801.764,-209.281 803.886,-215.952"/>
</g>
<!-- Node37&#45;&gt;Node19 -->
<g id="edge39" class="edge"><title>Node37&#45;&gt;Node19</title>
<path fill="none" stroke="midnightblue" d="M750.553,-532.407C756.541,-529.773 762.671,-526.626 768,-523 792.196,-506.538 814.97,-481.353 828.82,-464.541"/>
<polygon fill="midnightblue" stroke="midnightblue" points="831.665,-466.588 835.209,-456.603 826.212,-462.199 831.665,-466.588"/>
</g>
<!-- Node37&#45;&gt;Node39 -->
<g id="edge40" class="edge"><title>Node37&#45;&gt;Node39</title>
<path fill="none" stroke="midnightblue" d="M751.805,-551.59C757.467,-554.167 763.149,-557.292 768,-561 796.015,-582.414 819.383,-616.71 832.113,-637.709"/>
<polygon fill="midnightblue" stroke="midnightblue" points="829.099,-639.489 837.192,-646.328 835.13,-635.935 829.099,-639.489"/>
</g>
<!-- Node99&#45;&gt;Node19 -->
<g id="edge42" class="edge"><title>Node99&#45;&gt;Node19</title>
<path fill="none" stroke="midnightblue" d="M748.636,-461.924C762.25,-459.759 779.418,-457.03 795.337,-454.499"/>
<polygon fill="midnightblue" stroke="midnightblue" points="796.241,-457.899 805.568,-452.872 795.142,-450.986 796.241,-457.899"/>
</g>
<!-- Node102&#45;&gt;Node19 -->
<g id="edge45" class="edge"><title>Node102&#45;&gt;Node19</title>
<path fill="none" stroke="midnightblue" d="M760.811,-434.012C771.917,-435.778 784.197,-437.73 795.789,-439.573"/>
<polygon fill="midnightblue" stroke="midnightblue" points="795.327,-443.044 805.752,-441.157 796.426,-436.13 795.327,-443.044"/>
</g>
<!-- Node112&#45;&gt;Node19 -->
<g id="edge49" class="edge"><title>Node112&#45;&gt;Node19</title>
<path fill="none" stroke="midnightblue" d="M746.497,-494.456C753.464,-491.525 761.08,-488.22 768,-485 783.936,-477.583 801.461,-468.683 815.507,-461.361"/>
<polygon fill="midnightblue" stroke="midnightblue" points="817.386,-464.328 824.614,-456.582 814.133,-458.13 817.386,-464.328"/>
</g>
<!-- Node120&#45;&gt;Node19 -->
<g id="edge54" class="edge"><title>Node120&#45;&gt;Node19</title>
<path fill="none" stroke="midnightblue" d="M604.843,-342.3C610.309,-316.589 629.079,-246.77 676,-219 711.188,-198.174 734.9,-194.994 768,-219 836.057,-268.36 843.105,-381.67 843.044,-427.364"/>
<polygon fill="midnightblue" stroke="midnightblue" points="839.543,-427.398 842.908,-437.444 846.542,-427.492 839.543,-427.398"/>
</g>
<!-- Node121&#45;&gt;Node72 -->
<g id="edge60" class="edge"><title>Node121&#45;&gt;Node72</title>
<path fill="none" stroke="midnightblue" d="M632.776,-95.589C647.59,-100.359 665.691,-106.189 681.634,-111.323"/>
<polygon fill="midnightblue" stroke="midnightblue" points="680.642,-114.68 691.233,-114.414 682.787,-108.017 680.642,-114.68"/>
</g>
<!-- Node121&#45;&gt;Node83 -->
<g id="edge58" class="edge"><title>Node121&#45;&gt;Node83</title>
<path fill="none" stroke="midnightblue" d="M632.498,-76.4958C645.66,-72.7318 661.451,-68.8623 676,-67 716.558,-61.8084 727.754,-59.7798 768,-67 833.957,-78.8326 906.434,-110.488 945.073,-128.999"/>
<polygon fill="midnightblue" stroke="midnightblue" points="943.618,-132.183 954.142,-133.402 946.675,-125.886 943.618,-132.183"/>
</g>
<!-- Node122 -->
<g id="node42" class="node"><title>Node122</title>
<g id="a_node42"><a xlink:href="ldo_8c.html#a219aa86777779dccae2c1bf9008db70a" target="_top" xlink:title=" ">
<polygon fill="white" stroke="red" points="676,-76.5 676,-95.5 768,-95.5 768,-76.5 676,-76.5"/>
<text text-anchor="middle" x="722" y="-83.5" font-family="Helvetica,sans-Serif" font-size="10.00">luaD_shrinkstack</text>
</a>
</g>
</g>
<!-- Node121&#45;&gt;Node122 -->
<g id="edge59" class="edge"><title>Node121&#45;&gt;Node122</title>
<path fill="none" stroke="midnightblue" d="M633.082,-86C643.015,-86 654.4,-86 665.612,-86"/>
<polygon fill="midnightblue" stroke="midnightblue" points="665.812,-89.5001 675.812,-86 665.812,-82.5001 665.812,-89.5001"/>
</g>
<!-- Node59 -->
<g id="node43" class="node"><title>Node59</title>
<g id="a_node43"><a xlink:href="ldo_8c.html#af5721b7fac08574c3bf04058268daec7" target="_top" xlink:title=" ">
<polygon fill="white" stroke="black" points="691,-0.5 691,-19.5 753,-19.5 753,-0.5 691,-0.5"/>
<text text-anchor="middle" x="722" y="-7.5" font-family="Helvetica,sans-Serif" font-size="10.00">seterrorobj</text>
</a>
</g>
</g>
<!-- Node121&#45;&gt;Node59 -->
<g id="edge61" class="edge"><title>Node121&#45;&gt;Node59</title>
<path fill="none" stroke="midnightblue" d="M615.324,-76.4757C629.573,-65.6412 653.907,-47.6809 676,-34 681.305,-30.7151 687.099,-27.4201 692.711,-24.3695"/>
<polygon fill="midnightblue" stroke="midnightblue" points="694.673,-27.2906 701.865,-19.5111 691.391,-21.1075 694.673,-27.2906"/>
</g>
<!-- Node128&#45;&gt;Node6 -->
<g id="edge65" class="edge"><title>Node128&#45;&gt;Node6</title>
<path fill="none" stroke="midnightblue" d="M175.268,-666.198C189.737,-662.221 207.634,-657.977 224,-656 345.14,-641.367 489.778,-648.047 559.445,-652.758"/>
<polygon fill="midnightblue" stroke="midnightblue" points="559.348,-656.26 569.568,-653.465 559.836,-649.277 559.348,-656.26"/>
</g>
<!-- Node129 -->
<g id="node45" class="node"><title>Node129</title>
<g id="a_node45"><a xlink:href="lapi_8c.html#a2c07d0a193ad3ae19b4682ed92973c70" target="_top" xlink:title=" ">
<polygon fill="white" stroke="black" points="245,-665.5 245,-684.5 292,-684.5 292,-665.5 245,-665.5"/>
<text text-anchor="middle" x="268.5" y="-672.5" font-family="Helvetica,sans-Serif" font-size="10.00">reverse</text>
</a>
</g>
</g>
<!-- Node128&#45;&gt;Node129 -->
<g id="edge66" class="edge"><title>Node128&#45;&gt;Node129</title>
<path fill="none" stroke="midnightblue" d="M175.175,-675C193.018,-675 216.023,-675 234.606,-675"/>
<polygon fill="midnightblue" stroke="midnightblue" points="234.688,-678.5 244.688,-675 234.687,-671.5 234.688,-678.5"/>
</g>
<!-- Node131 -->
<g id="node47" class="node"><title>Node131</title>
<g id="a_node47"><a xlink:href="lapi_8c.html#a652b273947f0656686f998d8e90cd3ea" target="_top" xlink:title=" ">
<polygon fill="white" stroke="black" points="473.5,-741.5 473.5,-760.5 526.5,-760.5 526.5,-741.5 473.5,-741.5"/>
<text text-anchor="middle" x="500" y="-748.5" font-family="Helvetica,sans-Serif" font-size="10.00">lua_type</text>
</a>
</g>
</g>
<!-- Node130&#45;&gt;Node131 -->
<g id="edge68" class="edge"><title>Node130&#45;&gt;Node131</title>
<path fill="none" stroke="midnightblue" d="M177.856,-760.506C191.837,-764.27 208.596,-768.139 224,-770 317.542,-781.299 342.786,-783.75 436,-770 445.115,-768.655 454.739,-766.272 463.647,-763.639"/>
<polygon fill="midnightblue" stroke="midnightblue" points="464.841,-766.932 473.335,-760.6 462.746,-760.253 464.841,-766.932"/>
</g>
<!-- Node132 -->
<g id="node48" class="node"><title>Node132</title>
<g id="a_node48"><a xlink:href="lauxlib_8c.html#ab8e946260debec8d4bbc714b76a1613b" target="_top" xlink:title=" ">
<polygon fill="white" stroke="black" points="241,-741.5 241,-760.5 296,-760.5 296,-741.5 241,-741.5"/>
<text text-anchor="middle" x="268.5" y="-748.5" font-family="Helvetica,sans-Serif" font-size="10.00">tag_error</text>
</a>
</g>
</g>
<!-- Node130&#45;&gt;Node132 -->
<g id="edge70" class="edge"><title>Node130&#45;&gt;Node132</title>
<path fill="none" stroke="midnightblue" d="M188.141,-751C201.95,-751 217.216,-751 230.639,-751"/>
<polygon fill="midnightblue" stroke="midnightblue" points="230.946,-754.5 240.946,-751 230.946,-747.5 230.946,-754.5"/>
</g>
<!-- Node131&#45;&gt;Node6 -->
<g id="edge69" class="edge"><title>Node131&#45;&gt;Node6</title>
<path fill="none" stroke="midnightblue" d="M511.325,-741.191C528.405,-724.965 562.724,-692.362 583.601,-672.529"/>
<polygon fill="midnightblue" stroke="midnightblue" points="586.041,-675.039 590.88,-665.614 581.219,-669.964 586.041,-675.039"/>
</g>
<!-- Node133 -->
<g id="node49" class="node"><title>Node133</title>
<g id="a_node49"><a xlink:href="lapi_8c.html#a7d64f87addab440bbda96bb088816e17" target="_top" xlink:title=" ">
<polygon fill="white" stroke="black" points="354,-703.5 354,-722.5 431,-722.5 431,-703.5 354,-703.5"/>
<text text-anchor="middle" x="392.5" y="-710.5" font-family="Helvetica,sans-Serif" font-size="10.00">lua_typename</text>
</a>
</g>
</g>
<!-- Node132&#45;&gt;Node133 -->
<g id="edge71" class="edge"><title>Node132&#45;&gt;Node133</title>
<path fill="none" stroke="midnightblue" d="M296.273,-742.661C312.371,-737.647 333.17,-731.168 351.222,-725.546"/>
<polygon fill="midnightblue" stroke="midnightblue" points="352.414,-728.84 360.921,-722.525 350.332,-722.157 352.414,-728.84"/>
</g>
<!-- Node134 -->
<g id="node50" class="node"><title>Node134</title>
<g id="a_node50"><a xlink:href="lauxlib_8c.html#a49f5eae5db02430a59c67dff7b06d98f" target="_top" xlink:title=" ">
<polygon fill="white" stroke="red" points="365,-741.5 365,-760.5 420,-760.5 420,-741.5 365,-741.5"/>
<text text-anchor="middle" x="392.5" y="-748.5" font-family="Helvetica,sans-Serif" font-size="10.00">typeerror</text>
</a>
</g>
</g>
<!-- Node132&#45;&gt;Node134 -->
<g id="edge72" class="edge"><title>Node132&#45;&gt;Node134</title>
<path fill="none" stroke="midnightblue" d="M296.273,-751C313.436,-751 335.944,-751 354.768,-751"/>
<polygon fill="midnightblue" stroke="midnightblue" points="354.789,-754.5 364.789,-751 354.789,-747.5 354.789,-754.5"/>
</g>
<!-- Node134&#45;&gt;Node131 -->
<g id="edge73" class="edge"><title>Node134&#45;&gt;Node131</title>
<path fill="none" stroke="midnightblue" d="M420.122,-751C433.158,-751 449.043,-751 463.132,-751"/>
<polygon fill="midnightblue" stroke="midnightblue" points="463.478,-754.5 473.478,-751 463.478,-747.5 463.478,-754.5"/>
</g>
</g>
</svg>
