<?xml version="1.0" encoding="UTF-8" standalone="no"?>
<!DOCTYPE svg PUBLIC "-//W3C//DTD SVG 1.1//EN"
 "http://www.w3.org/Graphics/SVG/1.1/DTD/svg11.dtd">
<!-- Generated by graphviz version 2.38.0 (20140413.2041)
 -->
<!-- Title: luaB_load Pages: 1 -->
<svg width="1291pt" height="728pt"
 viewBox="0.00 0.00 1291.00 727.95" xmlns="http://www.w3.org/2000/svg" xmlns:xlink="http://www.w3.org/1999/xlink">
<g id="graph0" class="graph" transform="scale(1 1) rotate(0) translate(4 723.951)">
<title>luaB_load</title>
<polygon fill="white" stroke="none" points="-4,4 -4,-723.951 1287,-723.951 1287,4 -4,4"/>
<!-- Node1 -->
<g id="node1" class="node"><title>Node1</title>
<g id="a_node1"><a xlink:title=" ">
<polygon fill="#bfbfbf" stroke="black" points="0,-487.5 0,-506.5 59,-506.5 59,-487.5 0,-487.5"/>
<text text-anchor="middle" x="29.5" y="-494.5" font-family="Helvetica,sans-Serif" font-size="10.00">luaB_load</text>
</a>
</g>
</g>
<!-- Node2 -->
<g id="node2" class="node"><title>Node2</title>
<g id="a_node2"><a xlink:href="lbaselib_8c.html#ad467c787e381e8d18e4c7b46b4f1b05d" target="_top" xlink:title=" ">
<polygon fill="white" stroke="black" points="217,-532.5 217,-551.5 297,-551.5 297,-532.5 217,-532.5"/>
<text text-anchor="middle" x="257" y="-539.5" font-family="Helvetica,sans-Serif" font-size="10.00">generic_reader</text>
</a>
</g>
</g>
<!-- Node1&#45;&gt;Node2 -->
<g id="edge1" class="edge"><title>Node1&#45;&gt;Node2</title>
<path fill="none" stroke="midnightblue" d="M59.1927,-506.297C70.2959,-509.672 83.1608,-513.312 95,-516 132.122,-524.43 174.66,-531.176 206.686,-535.683"/>
<polygon fill="midnightblue" stroke="midnightblue" points="206.309,-539.164 216.694,-537.067 207.268,-532.23 206.309,-539.164"/>
</g>
<!-- Node6 -->
<g id="node6" class="node"><title>Node6</title>
<g id="a_node6"><a xlink:href="lapi_8c.html#a3fc7dbcac3f2610f3d687ec15343bd3f" target="_top" xlink:title=" ">
<polygon fill="white" stroke="black" points="486,-684.5 486,-703.5 555,-703.5 555,-684.5 486,-684.5"/>
<text text-anchor="middle" x="520.5" y="-691.5" font-family="Helvetica,sans-Serif" font-size="10.00">lua_tolstring</text>
</a>
</g>
</g>
<!-- Node1&#45;&gt;Node6 -->
<g id="edge54" class="edge"><title>Node1&#45;&gt;Node6</title>
<path fill="none" stroke="midnightblue" d="M37.622,-506.837C48.7221,-521.721 71.3415,-550.311 95,-570 189.852,-648.939 214.085,-680.023 333,-713 382.662,-726.772 442.243,-716.237 480.472,-706.196"/>
<polygon fill="midnightblue" stroke="midnightblue" points="481.467,-709.553 490.186,-703.534 479.617,-702.801 481.467,-709.553"/>
</g>
<!-- Node139 -->
<g id="node26" class="node"><title>Node139</title>
<g id="a_node26"><a xlink:href="lbaselib_8c.html#a32e7b00b9c21d72a3e6a56e12c3f0e08" target="_top" xlink:title=" ">
<polygon fill="white" stroke="black" points="229,-589.5 229,-608.5 285,-608.5 285,-589.5 229,-589.5"/>
<text text-anchor="middle" x="257" y="-596.5" font-family="Helvetica,sans-Serif" font-size="10.00">load_aux</text>
</a>
</g>
</g>
<!-- Node1&#45;&gt;Node139 -->
<g id="edge33" class="edge"><title>Node1&#45;&gt;Node139</title>
<path fill="none" stroke="midnightblue" d="M43.8641,-506.639C56.5886,-515.535 76.4911,-528.733 95,-538 136.056,-558.556 185.809,-576.406 219.04,-587.396"/>
<polygon fill="midnightblue" stroke="midnightblue" points="218.202,-590.805 228.794,-590.582 220.375,-584.151 218.202,-590.805"/>
</g>
<!-- Node143 -->
<g id="node30" class="node"><title>Node143</title>
<g id="a_node30"><a xlink:href="lapi_8c.html#aa7a94c45f3eec251e5b258d7482ffe87" target="_top" xlink:title=" ">
<polygon fill="white" stroke="black" points="230.5,-312.5 230.5,-331.5 283.5,-331.5 283.5,-312.5 230.5,-312.5"/>
<text text-anchor="middle" x="257" y="-319.5" font-family="Helvetica,sans-Serif" font-size="10.00">lua_load</text>
</a>
</g>
</g>
<!-- Node1&#45;&gt;Node143 -->
<g id="edge39" class="edge"><title>Node1&#45;&gt;Node143</title>
<path fill="none" stroke="midnightblue" d="M42.9451,-487.342C79.9834,-458.598 189.768,-373.399 235.571,-337.854"/>
<polygon fill="midnightblue" stroke="midnightblue" points="237.839,-340.524 243.593,-331.628 233.547,-334.994 237.839,-340.524"/>
</g>
<!-- Node346 -->
<g id="node43" class="node"><title>Node346</title>
<g id="a_node43"><a xlink:href="lapi_8c.html#adaa30f0d34786144c94644039d1d1b6e" target="_top" xlink:title=" ">
<polygon fill="white" stroke="black" points="107,-288.5 107,-307.5 169,-307.5 169,-288.5 107,-288.5"/>
<text text-anchor="middle" x="138" y="-295.5" font-family="Helvetica,sans-Serif" font-size="10.00">lua_settop</text>
</a>
</g>
</g>
<!-- Node1&#45;&gt;Node346 -->
<g id="edge53" class="edge"><title>Node1&#45;&gt;Node346</title>
<path fill="none" stroke="midnightblue" d="M31.3327,-487.46C34.365,-458.225 47.2867,-368.731 95,-317 96.1937,-315.706 97.4924,-314.494 98.8693,-313.359"/>
<polygon fill="midnightblue" stroke="midnightblue" points="101.029,-316.126 107.423,-307.678 97.1562,-310.295 101.029,-316.126"/>
</g>
<!-- Node347 -->
<g id="node44" class="node"><title>Node347</title>
<g id="a_node44"><a xlink:href="lauxlib_8c.html#a0f8f78c4edc5cbf890690b3cf9615dc8" target="_top" xlink:title=" ">
<polygon fill="white" stroke="black" points="95.5,-487.5 95.5,-506.5 180.5,-506.5 180.5,-487.5 95.5,-487.5"/>
<text text-anchor="middle" x="138" y="-494.5" font-family="Helvetica,sans-Serif" font-size="10.00">luaL_checktype</text>
</a>
</g>
</g>
<!-- Node1&#45;&gt;Node347 -->
<g id="edge55" class="edge"><title>Node1&#45;&gt;Node347</title>
<path fill="none" stroke="midnightblue" d="M59.04,-497C67.0981,-497 76.1261,-497 85.1028,-497"/>
<polygon fill="midnightblue" stroke="midnightblue" points="85.1616,-500.5 95.1615,-497 85.1615,-493.5 85.1616,-500.5"/>
</g>
<!-- Node367 -->
<g id="node49" class="node"><title>Node367</title>
<g id="a_node49"><a xlink:href="lauxlib_8c.html#a867ca33afe2cb3d07bfc238cbb438f61" target="_top" xlink:title=" ">
<polygon fill="white" stroke="black" points="95,-326.5 95,-345.5 181,-345.5 181,-326.5 95,-326.5"/>
<text text-anchor="middle" x="138" y="-333.5" font-family="Helvetica,sans-Serif" font-size="10.00">luaL_loadbufferx</text>
</a>
</g>
</g>
<!-- Node1&#45;&gt;Node367 -->
<g id="edge63" class="edge"><title>Node1&#45;&gt;Node367</title>
<path fill="none" stroke="midnightblue" d="M35.5761,-487.382C45.9227,-468.029 70.5469,-423.221 95,-388 103.292,-376.056 113.529,-363.347 121.82,-353.483"/>
<polygon fill="midnightblue" stroke="midnightblue" points="124.683,-355.519 128.507,-345.638 119.356,-350.978 124.683,-355.519"/>
</g>
<!-- Node3 -->
<g id="node3" class="node"><title>Node3</title>
<g id="a_node3"><a xlink:href="lapi_8c.html#a9f20233199a414b04c1c4b43f5d040f3" target="_top" xlink:title=" ">
<polygon fill="white" stroke="black" points="487.5,-532.5 487.5,-551.5 553.5,-551.5 553.5,-532.5 487.5,-532.5"/>
<text text-anchor="middle" x="520.5" y="-539.5" font-family="Helvetica,sans-Serif" font-size="10.00">lua_isstring</text>
</a>
</g>
</g>
<!-- Node2&#45;&gt;Node3 -->
<g id="edge2" class="edge"><title>Node2&#45;&gt;Node3</title>
<path fill="none" stroke="midnightblue" d="M297.149,-542C345.435,-542 427.215,-542 476.995,-542"/>
<polygon fill="midnightblue" stroke="midnightblue" points="477.108,-545.5 487.108,-542 477.108,-538.5 477.108,-545.5"/>
</g>
<!-- Node5 -->
<g id="node5" class="node"><title>Node5</title>
<g id="a_node5"><a xlink:href="lapi_8c.html#a602f61a9b583d69dc1c72c8970bd65e8" target="_top" xlink:title=" ">
<polygon fill="white" stroke="black" points="349,-570.5 349,-589.5 426,-589.5 426,-570.5 349,-570.5"/>
<text text-anchor="middle" x="387.5" y="-577.5" font-family="Helvetica,sans-Serif" font-size="10.00">lua_pushvalue</text>
</a>
</g>
</g>
<!-- Node2&#45;&gt;Node5 -->
<g id="edge4" class="edge"><title>Node2&#45;&gt;Node5</title>
<path fill="none" stroke="midnightblue" d="M290.426,-551.589C306.71,-556.404 326.642,-562.299 344.122,-567.468"/>
<polygon fill="midnightblue" stroke="midnightblue" points="343.502,-570.935 354.084,-570.414 345.487,-564.222 343.502,-570.935"/>
</g>
<!-- Node2&#45;&gt;Node6 -->
<g id="edge6" class="edge"><title>Node2&#45;&gt;Node6</title>
<path fill="none" stroke="midnightblue" d="M269.287,-551.69C277.475,-559.018 288.55,-569.569 297,-580 315.86,-603.282 309.184,-618.818 333,-637 344.542,-645.812 424.375,-668.413 475.783,-682.363"/>
<polygon fill="midnightblue" stroke="midnightblue" points="475.09,-685.802 485.657,-685.032 476.916,-679.044 475.09,-685.802"/>
</g>
<!-- Node119 -->
<g id="node11" class="node"><title>Node119</title>
<g id="a_node11"><a xlink:href="lauxlib_8c.html#a7c46517055e0e8cb25e61b959709083a" target="_top" xlink:title=" ">
<polygon fill="white" stroke="black" points="342.5,-380.5 342.5,-399.5 432.5,-399.5 432.5,-380.5 342.5,-380.5"/>
<text text-anchor="middle" x="387.5" y="-387.5" font-family="Helvetica,sans-Serif" font-size="10.00">luaL_checkstack</text>
</a>
</g>
</g>
<!-- Node2&#45;&gt;Node119 -->
<g id="edge12" class="edge"><title>Node2&#45;&gt;Node119</title>
<path fill="none" stroke="midnightblue" d="M265.311,-532.169C273.47,-521.009 286.858,-502.126 297,-485 315.028,-454.557 307.394,-438.415 333,-414 337.006,-410.18 341.724,-406.9 346.671,-404.103"/>
<polygon fill="midnightblue" stroke="midnightblue" points="348.34,-407.182 355.717,-399.578 345.208,-400.921 348.34,-407.182"/>
</g>
<!-- Node125 -->
<g id="node15" class="node"><title>Node125</title>
<g id="a_node15"><a xlink:href="lauxlib_8c.html#a6c51d83d29244779392551388913e08a" target="_top" xlink:title=" ">
<polygon fill="white" stroke="black" points="491,-399.5 491,-418.5 550,-418.5 550,-399.5 491,-399.5"/>
<text text-anchor="middle" x="520.5" y="-406.5" font-family="Helvetica,sans-Serif" font-size="10.00">luaL_error</text>
</a>
</g>
</g>
<!-- Node2&#45;&gt;Node125 -->
<g id="edge32" class="edge"><title>Node2&#45;&gt;Node125</title>
<path fill="none" stroke="midnightblue" d="M264.408,-532.262C279.037,-510.321 315.015,-458.07 333,-447 378.464,-419.016 440.824,-411.218 480.647,-409.274"/>
<polygon fill="midnightblue" stroke="midnightblue" points="480.897,-412.767 490.754,-408.882 480.626,-405.772 480.897,-412.767"/>
</g>
<!-- Node4 -->
<g id="node4" class="node"><title>Node4</title>
<g id="a_node4"><a xlink:href="lapi_8c.html#ae54b9bb381b32c86235a084984e40215" target="_top" xlink:title=" ">
<polygon fill="white" stroke="black" points="622,-570.5 622,-589.5 686,-589.5 686,-570.5 622,-570.5"/>
<text text-anchor="middle" x="654" y="-577.5" font-family="Helvetica,sans-Serif" font-size="10.00">index2addr</text>
</a>
</g>
</g>
<!-- Node3&#45;&gt;Node4 -->
<g id="edge3" class="edge"><title>Node3&#45;&gt;Node4</title>
<path fill="none" stroke="midnightblue" d="M553.669,-551.296C571.2,-556.362 593.085,-562.686 611.847,-568.108"/>
<polygon fill="midnightblue" stroke="midnightblue" points="611.039,-571.517 621.617,-570.931 612.982,-564.793 611.039,-571.517"/>
</g>
<!-- Node5&#45;&gt;Node4 -->
<g id="edge5" class="edge"><title>Node5&#45;&gt;Node4</title>
<path fill="none" stroke="midnightblue" d="M426.116,-580C475.116,-580 560.515,-580 611.4,-580"/>
<polygon fill="midnightblue" stroke="midnightblue" points="611.71,-583.5 621.71,-580 611.709,-576.5 611.71,-583.5"/>
</g>
<!-- Node6&#45;&gt;Node4 -->
<g id="edge7" class="edge"><title>Node6&#45;&gt;Node4</title>
<path fill="none" stroke="midnightblue" d="M546.498,-684.432C552.156,-681.764 557.973,-678.596 563,-675 579.53,-663.177 616.911,-621.482 637.927,-597.441"/>
<polygon fill="midnightblue" stroke="midnightblue" points="640.694,-599.593 644.617,-589.752 635.413,-594.999 640.694,-599.593"/>
</g>
<!-- Node7 -->
<g id="node7" class="node"><title>Node7</title>
<g id="a_node7"><a xlink:href="lobject_8c.html#a00c5c37438b02ff7efcf8e8dfa98da7c" target="_top" xlink:title=" ">
<polygon fill="white" stroke="black" points="996,-456.5 996,-475.5 1070,-475.5 1070,-456.5 996,-456.5"/>
<text text-anchor="middle" x="1033" y="-463.5" font-family="Helvetica,sans-Serif" font-size="10.00">luaO_tostring</text>
</a>
</g>
</g>
<!-- Node6&#45;&gt;Node7 -->
<g id="edge8" class="edge"><title>Node6&#45;&gt;Node7</title>
<path fill="none" stroke="midnightblue" d="M544.53,-684.434C596.092,-662.945 724.642,-608.969 831,-561 892.79,-533.132 964.394,-498.792 1003.27,-479.974"/>
<polygon fill="midnightblue" stroke="midnightblue" points="1004.95,-483.049 1012.42,-475.538 1001.9,-476.75 1004.95,-483.049"/>
</g>
<!-- Node8 -->
<g id="node8" class="node"><title>Node8</title>
<g id="a_node8"><a xlink:href="lstring_8c.html#ab41fb084ce3ea5e2779f6659ccc2484d" target="_top" xlink:title=" ">
<polygon fill="white" stroke="red" points="1106,-418.5 1106,-437.5 1178,-437.5 1178,-418.5 1106,-418.5"/>
<text text-anchor="middle" x="1142" y="-425.5" font-family="Helvetica,sans-Serif" font-size="10.00">luaS_newlstr</text>
</a>
</g>
</g>
<!-- Node7&#45;&gt;Node8 -->
<g id="edge9" class="edge"><title>Node7&#45;&gt;Node8</title>
<path fill="none" stroke="midnightblue" d="M1061,-456.411C1074.18,-451.731 1090.23,-446.031 1104.48,-440.968"/>
<polygon fill="midnightblue" stroke="midnightblue" points="1105.76,-444.231 1114.01,-437.586 1103.41,-437.634 1105.76,-444.231"/>
</g>
<!-- Node9 -->
<g id="node9" class="node"><title>Node9</title>
<g id="a_node9"><a xlink:href="lstring_8c.html#a9b2c32c59a280de24f20df1c7f0433a1" target="_top" xlink:title=" ">
<polygon fill="white" stroke="red" points="1216,-437.5 1216,-456.5 1281,-456.5 1281,-437.5 1216,-437.5"/>
<text text-anchor="middle" x="1248.5" y="-444.5" font-family="Helvetica,sans-Serif" font-size="10.00">internshrstr</text>
</a>
</g>
</g>
<!-- Node8&#45;&gt;Node9 -->
<g id="edge10" class="edge"><title>Node8&#45;&gt;Node9</title>
<path fill="none" stroke="midnightblue" d="M1178.09,-434.38C1186.96,-435.993 1196.58,-437.742 1205.75,-439.409"/>
<polygon fill="midnightblue" stroke="midnightblue" points="1205.38,-442.899 1215.84,-441.244 1206.63,-436.012 1205.38,-442.899"/>
</g>
<!-- Node14 -->
<g id="node10" class="node"><title>Node14</title>
<g id="a_node10"><a xlink:href="lmem_8c.html#a8fc7df43dd830ccbe7581fd53f65bdbe" target="_top" xlink:title=" ">
<polygon fill="white" stroke="red" points="1214,-399.5 1214,-418.5 1283,-418.5 1283,-399.5 1214,-399.5"/>
<text text-anchor="middle" x="1248.5" y="-406.5" font-family="Helvetica,sans-Serif" font-size="10.00">luaM_toobig</text>
</a>
</g>
</g>
<!-- Node8&#45;&gt;Node14 -->
<g id="edge11" class="edge"><title>Node8&#45;&gt;Node14</title>
<path fill="none" stroke="midnightblue" d="M1178.09,-421.62C1186.36,-420.117 1195.27,-418.497 1203.86,-416.934"/>
<polygon fill="midnightblue" stroke="midnightblue" points="1204.53,-420.37 1213.74,-415.137 1203.28,-413.483 1204.53,-420.37"/>
</g>
<!-- Node120 -->
<g id="node12" class="node"><title>Node120</title>
<g id="a_node12"><a xlink:href="lapi_8c.html#a1d762b92d5d82d6fa9f54ccf5c89d6a2" target="_top" xlink:title=" ">
<polygon fill="white" stroke="black" points="478,-304.5 478,-323.5 563,-323.5 563,-304.5 478,-304.5"/>
<text text-anchor="middle" x="520.5" y="-311.5" font-family="Helvetica,sans-Serif" font-size="10.00">lua_checkstack</text>
</a>
</g>
</g>
<!-- Node119&#45;&gt;Node120 -->
<g id="edge13" class="edge"><title>Node119&#45;&gt;Node120</title>
<path fill="none" stroke="midnightblue" d="M420.276,-380.442C427.589,-377.774 435.208,-374.603 442,-371 463.461,-359.616 485.554,-342.767 500.632,-330.339"/>
<polygon fill="midnightblue" stroke="midnightblue" points="503.239,-332.72 508.642,-323.606 498.735,-327.362 503.239,-332.72"/>
</g>
<!-- Node119&#45;&gt;Node125 -->
<g id="edge16" class="edge"><title>Node119&#45;&gt;Node125</title>
<path fill="none" stroke="midnightblue" d="M432.851,-396.433C448.41,-398.689 465.754,-401.205 480.812,-403.389"/>
<polygon fill="midnightblue" stroke="midnightblue" points="480.423,-406.869 490.822,-404.841 481.428,-399.941 480.423,-406.869"/>
</g>
<!-- Node121 -->
<g id="node13" class="node"><title>Node121</title>
<g id="a_node13"><a xlink:href="lapi_8c.html#ab3a8303d450a61e55f7928da1fe14302" target="_top" xlink:title=" ">
<polygon fill="white" stroke="red" points="623.5,-304.5 623.5,-323.5 684.5,-323.5 684.5,-304.5 623.5,-304.5"/>
<text text-anchor="middle" x="654" y="-311.5" font-family="Helvetica,sans-Serif" font-size="10.00">growstack</text>
</a>
</g>
</g>
<!-- Node120&#45;&gt;Node121 -->
<g id="edge14" class="edge"><title>Node120&#45;&gt;Node121</title>
<path fill="none" stroke="midnightblue" d="M563.107,-314C579.156,-314 597.432,-314 613.296,-314"/>
<polygon fill="midnightblue" stroke="midnightblue" points="613.325,-317.5 623.325,-314 613.325,-310.5 613.325,-317.5"/>
</g>
<!-- Node76 -->
<g id="node14" class="node"><title>Node76</title>
<g id="a_node14"><a xlink:href="ldo_8c.html#ab0872b1738a995ecbf1cdc8a9bc0fdf6" target="_top" xlink:title=" ">
<polygon fill="white" stroke="black" points="599,-266.5 599,-285.5 709,-285.5 709,-266.5 599,-266.5"/>
<text text-anchor="middle" x="654" y="-273.5" font-family="Helvetica,sans-Serif" font-size="10.00">luaD_rawrunprotected</text>
</a>
</g>
</g>
<!-- Node120&#45;&gt;Node76 -->
<g id="edge15" class="edge"><title>Node120&#45;&gt;Node76</title>
<path fill="none" stroke="midnightblue" d="M554.683,-304.411C571.503,-299.551 592.126,-293.591 610.134,-288.387"/>
<polygon fill="midnightblue" stroke="midnightblue" points="611.192,-291.725 619.828,-285.586 609.249,-285 611.192,-291.725"/>
</g>
<!-- Node126 -->
<g id="node16" class="node"><title>Node126</title>
<g id="a_node16"><a xlink:href="lapi_8c.html#a1de3afee1daece63d455f23818c883d9" target="_top" xlink:title=" ">
<polygon fill="white" stroke="black" points="881.5,-380.5 881.5,-399.5 945.5,-399.5 945.5,-380.5 881.5,-380.5"/>
<text text-anchor="middle" x="913.5" y="-387.5" font-family="Helvetica,sans-Serif" font-size="10.00">lua_concat</text>
</a>
</g>
</g>
<!-- Node125&#45;&gt;Node126 -->
<g id="edge17" class="edge"><title>Node125&#45;&gt;Node126</title>
<path fill="none" stroke="midnightblue" d="M550.071,-400.948C604.638,-386.579 727.471,-359.092 831,-371 844.325,-372.533 858.639,-375.431 871.495,-378.51"/>
<polygon fill="midnightblue" stroke="midnightblue" points="870.896,-381.968 881.446,-380.996 872.592,-375.177 870.896,-381.968"/>
</g>
<!-- Node127 -->
<g id="node18" class="node"><title>Node127</title>
<g id="a_node18"><a xlink:href="lapi_8c.html#a6ba7b91143fe8a03910420d800de8e97" target="_top" xlink:title=" ">
<polygon fill="white" stroke="black" points="627,-418.5 627,-437.5 681,-437.5 681,-418.5 627,-418.5"/>
<text text-anchor="middle" x="654" y="-425.5" font-family="Helvetica,sans-Serif" font-size="10.00">lua_error</text>
</a>
</g>
</g>
<!-- Node125&#45;&gt;Node127 -->
<g id="edge21" class="edge"><title>Node125&#45;&gt;Node127</title>
<path fill="none" stroke="midnightblue" d="M550.034,-413.123C569.549,-415.942 595.586,-419.704 616.595,-422.74"/>
<polygon fill="midnightblue" stroke="midnightblue" points="616.359,-426.242 626.757,-424.208 617.36,-419.314 616.359,-426.242"/>
</g>
<!-- Node128 -->
<g id="node20" class="node"><title>Node128</title>
<g id="a_node20"><a xlink:href="lapi_8c.html#a426c9cb1d582be3e43060c4772854e5a" target="_top" xlink:title=" ">
<polygon fill="white" stroke="black" points="745,-380.5 745,-399.5 831,-399.5 831,-380.5 745,-380.5"/>
<text text-anchor="middle" x="788" y="-387.5" font-family="Helvetica,sans-Serif" font-size="10.00">lua_pushvfstring</text>
</a>
</g>
</g>
<!-- Node125&#45;&gt;Node128 -->
<g id="edge23" class="edge"><title>Node125&#45;&gt;Node128</title>
<path fill="none" stroke="midnightblue" d="M550.165,-406.949C594.254,-403.793 679.392,-397.701 734.671,-393.745"/>
<polygon fill="midnightblue" stroke="midnightblue" points="735.244,-397.213 744.969,-393.008 734.744,-390.231 735.244,-397.213"/>
</g>
<!-- Node129 -->
<g id="node22" class="node"><title>Node129</title>
<g id="a_node22"><a xlink:href="lauxlib_8c.html#a0f4d3c30c07eae36aa25605df84279a0" target="_top" xlink:title=" ">
<polygon fill="white" stroke="black" points="621.5,-494.5 621.5,-513.5 686.5,-513.5 686.5,-494.5 621.5,-494.5"/>
<text text-anchor="middle" x="654" y="-501.5" font-family="Helvetica,sans-Serif" font-size="10.00">luaL_where</text>
</a>
</g>
</g>
<!-- Node125&#45;&gt;Node129 -->
<g id="edge27" class="edge"><title>Node125&#45;&gt;Node129</title>
<path fill="none" stroke="midnightblue" d="M535.078,-418.809C557.934,-435.321 604.265,-468.792 631.555,-488.507"/>
<polygon fill="midnightblue" stroke="midnightblue" points="629.537,-491.367 639.692,-494.386 633.636,-485.693 629.537,-491.367"/>
</g>
<!-- Node126&#45;&gt;Node8 -->
<g id="edge18" class="edge"><title>Node126&#45;&gt;Node8</title>
<path fill="none" stroke="midnightblue" d="M945.679,-392.517C977.218,-395.365 1027.28,-400.716 1070,-409 1079.58,-410.857 1089.76,-413.299 1099.34,-415.811"/>
<polygon fill="midnightblue" stroke="midnightblue" points="1098.49,-419.206 1109.06,-418.433 1100.32,-412.448 1098.49,-419.206"/>
</g>
<!-- Node24 -->
<g id="node17" class="node"><title>Node24</title>
<g id="a_node17"><a xlink:href="lvm_8c.html#a2f076040af405dcb50d661edd692eca7" target="_top" xlink:title=" ">
<polygon fill="white" stroke="red" points="997.5,-418.5 997.5,-437.5 1068.5,-437.5 1068.5,-418.5 997.5,-418.5"/>
<text text-anchor="middle" x="1033" y="-425.5" font-family="Helvetica,sans-Serif" font-size="10.00">luaV_concat</text>
</a>
</g>
</g>
<!-- Node126&#45;&gt;Node24 -->
<g id="edge19" class="edge"><title>Node126&#45;&gt;Node24</title>
<path fill="none" stroke="midnightblue" d="M944.15,-399.589C958.901,-404.359 976.926,-410.189 992.801,-415.323"/>
<polygon fill="midnightblue" stroke="midnightblue" points="991.767,-418.667 1002.36,-418.414 993.921,-412.007 991.767,-418.667"/>
</g>
<!-- Node24&#45;&gt;Node8 -->
<g id="edge20" class="edge"><title>Node24&#45;&gt;Node8</title>
<path fill="none" stroke="midnightblue" d="M1068.74,-428C1077.25,-428 1086.48,-428 1095.41,-428"/>
<polygon fill="midnightblue" stroke="midnightblue" points="1095.7,-431.5 1105.7,-428 1095.7,-424.5 1095.7,-431.5"/>
</g>
<!-- Node118 -->
<g id="node19" class="node"><title>Node118</title>
<g id="a_node19"><a xlink:href="ldebug_8c.html#af7366920f8408bb33ed01b1d6c0e1238" target="_top" xlink:title=" ">
<polygon fill="white" stroke="red" points="748,-418.5 748,-437.5 828,-437.5 828,-418.5 748,-418.5"/>
<text text-anchor="middle" x="788" y="-425.5" font-family="Helvetica,sans-Serif" font-size="10.00">luaG_errormsg</text>
</a>
</g>
</g>
<!-- Node127&#45;&gt;Node118 -->
<g id="edge22" class="edge"><title>Node127&#45;&gt;Node118</title>
<path fill="none" stroke="midnightblue" d="M681.079,-428C697.256,-428 718.558,-428 737.814,-428"/>
<polygon fill="midnightblue" stroke="midnightblue" points="737.957,-431.5 747.956,-428 737.956,-424.5 737.957,-431.5"/>
</g>
<!-- Node21 -->
<g id="node21" class="node"><title>Node21</title>
<g id="a_node21"><a xlink:href="lobject_8c.html#aa83fa444a36d79521e846a766fa083d5" target="_top" xlink:title=" ">
<polygon fill="white" stroke="red" points="867,-418.5 867,-437.5 960,-437.5 960,-418.5 867,-418.5"/>
<text text-anchor="middle" x="913.5" y="-425.5" font-family="Helvetica,sans-Serif" font-size="10.00">luaO_pushvfstring</text>
</a>
</g>
</g>
<!-- Node128&#45;&gt;Node21 -->
<g id="edge24" class="edge"><title>Node128&#45;&gt;Node21</title>
<path fill="none" stroke="midnightblue" d="M820.164,-399.589C835.814,-404.404 854.971,-410.299 871.771,-415.468"/>
<polygon fill="midnightblue" stroke="midnightblue" points="870.759,-418.818 881.346,-418.414 872.817,-412.128 870.759,-418.818"/>
</g>
<!-- Node21&#45;&gt;Node7 -->
<g id="edge25" class="edge"><title>Node21&#45;&gt;Node7</title>
<path fill="none" stroke="midnightblue" d="M944.15,-437.589C958.901,-442.359 976.926,-448.189 992.801,-453.323"/>
<polygon fill="midnightblue" stroke="midnightblue" points="991.767,-456.667 1002.36,-456.414 993.921,-450.007 991.767,-456.667"/>
</g>
<!-- Node21&#45;&gt;Node24 -->
<g id="edge26" class="edge"><title>Node21&#45;&gt;Node24</title>
<path fill="none" stroke="midnightblue" d="M960.265,-428C969.157,-428 978.468,-428 987.324,-428"/>
<polygon fill="midnightblue" stroke="midnightblue" points="987.461,-431.5 997.461,-428 987.461,-424.5 987.461,-431.5"/>
</g>
<!-- Node130 -->
<g id="node23" class="node"><title>Node130</title>
<g id="a_node23"><a xlink:href="ldebug_8c.html#acaafc35d8e385c4d167229486165df6d" target="_top" xlink:title=" ">
<polygon fill="white" stroke="red" points="756.5,-532.5 756.5,-551.5 819.5,-551.5 819.5,-532.5 756.5,-532.5"/>
<text text-anchor="middle" x="788" y="-539.5" font-family="Helvetica,sans-Serif" font-size="10.00">lua_getinfo</text>
</a>
</g>
</g>
<!-- Node129&#45;&gt;Node130 -->
<g id="edge28" class="edge"><title>Node129&#45;&gt;Node130</title>
<path fill="none" stroke="midnightblue" d="M686.617,-513.102C704.543,-518.263 727.165,-524.775 746.393,-530.31"/>
<polygon fill="midnightblue" stroke="midnightblue" points="745.518,-533.7 756.096,-533.103 747.455,-526.974 745.518,-533.7"/>
</g>
<!-- Node137 -->
<g id="node24" class="node"><title>Node137</title>
<g id="a_node24"><a xlink:href="ldebug_8c.html#ac1fc03c27ee46caa4037df2d70f22110" target="_top" xlink:title=" ">
<polygon fill="white" stroke="black" points="752,-494.5 752,-513.5 824,-513.5 824,-494.5 752,-494.5"/>
<text text-anchor="middle" x="788" y="-501.5" font-family="Helvetica,sans-Serif" font-size="10.00">lua_getstack</text>
</a>
</g>
</g>
<!-- Node129&#45;&gt;Node137 -->
<g id="edge29" class="edge"><title>Node129&#45;&gt;Node137</title>
<path fill="none" stroke="midnightblue" d="M686.617,-504C703.144,-504 723.661,-504 741.831,-504"/>
<polygon fill="midnightblue" stroke="midnightblue" points="741.926,-507.5 751.926,-504 741.926,-500.5 741.926,-507.5"/>
</g>
<!-- Node138 -->
<g id="node25" class="node"><title>Node138</title>
<g id="a_node25"><a xlink:href="lapi_8c.html#ab190c226d38b289e6ca57683a9d4e0f0" target="_top" xlink:title=" ">
<polygon fill="white" stroke="black" points="747,-456.5 747,-475.5 829,-475.5 829,-456.5 747,-456.5"/>
<text text-anchor="middle" x="788" y="-463.5" font-family="Helvetica,sans-Serif" font-size="10.00">lua_pushfstring</text>
</a>
</g>
</g>
<!-- Node129&#45;&gt;Node138 -->
<g id="edge30" class="edge"><title>Node129&#45;&gt;Node138</title>
<path fill="none" stroke="midnightblue" d="M686.617,-494.898C703.815,-489.947 725.333,-483.753 744.032,-478.37"/>
<polygon fill="midnightblue" stroke="midnightblue" points="745.157,-481.688 753.799,-475.558 743.221,-474.961 745.157,-481.688"/>
</g>
<!-- Node138&#45;&gt;Node21 -->
<g id="edge31" class="edge"><title>Node138&#45;&gt;Node21</title>
<path fill="none" stroke="midnightblue" d="M820.164,-456.411C835.814,-451.596 854.971,-445.701 871.771,-440.532"/>
<polygon fill="midnightblue" stroke="midnightblue" points="872.817,-443.872 881.346,-437.586 870.759,-437.182 872.817,-443.872"/>
</g>
<!-- Node139&#45;&gt;Node5 -->
<g id="edge35" class="edge"><title>Node139&#45;&gt;Node5</title>
<path fill="none" stroke="midnightblue" d="M285.252,-594.971C300.72,-592.683 320.528,-589.755 338.516,-587.095"/>
<polygon fill="midnightblue" stroke="midnightblue" points="339.184,-590.534 348.565,-585.609 338.16,-583.61 339.184,-590.534"/>
</g>
<!-- Node140 -->
<g id="node27" class="node"><title>Node140</title>
<g id="a_node27"><a xlink:href="lapi_8c.html#a1b4cd0d80f51e5545a97ca6c28c03c50" target="_top" xlink:title=" ">
<polygon fill="white" stroke="black" points="355,-684.5 355,-703.5 420,-703.5 420,-684.5 355,-684.5"/>
<text text-anchor="middle" x="387.5" y="-691.5" font-family="Helvetica,sans-Serif" font-size="10.00">lua_pushnil</text>
</a>
</g>
</g>
<!-- Node139&#45;&gt;Node140 -->
<g id="edge34" class="edge"><title>Node139&#45;&gt;Node140</title>
<path fill="none" stroke="midnightblue" d="M266.38,-608.818C279.415,-623.621 305.882,-651.849 333,-670 338.684,-673.804 345.069,-677.265 351.397,-680.3"/>
<polygon fill="midnightblue" stroke="midnightblue" points="349.983,-683.502 360.537,-684.433 352.867,-677.124 349.983,-683.502"/>
</g>
<!-- Node141 -->
<g id="node28" class="node"><title>Node141</title>
<g id="a_node28"><a xlink:href="lapi_8c.html#a6e2e5717e848fca56335a64739a8f2c0" target="_top" xlink:title=" ">
<polygon fill="white" stroke="black" points="347.5,-608.5 347.5,-627.5 427.5,-627.5 427.5,-608.5 347.5,-608.5"/>
<text text-anchor="middle" x="387.5" y="-615.5" font-family="Helvetica,sans-Serif" font-size="10.00">lua_setupvalue</text>
</a>
</g>
</g>
<!-- Node139&#45;&gt;Node141 -->
<g id="edge36" class="edge"><title>Node139&#45;&gt;Node141</title>
<path fill="none" stroke="midnightblue" d="M285.252,-603.029C300.278,-605.251 319.401,-608.079 336.971,-610.677"/>
<polygon fill="midnightblue" stroke="midnightblue" points="336.69,-614.173 347.094,-612.173 337.714,-607.248 336.69,-614.173"/>
</g>
<!-- Node141&#45;&gt;Node4 -->
<g id="edge38" class="edge"><title>Node141&#45;&gt;Node4</title>
<path fill="none" stroke="midnightblue" d="M427.685,-612.812C463.07,-608.079 516.555,-600.806 563,-594 578.89,-591.672 596.338,-588.987 611.606,-586.596"/>
<polygon fill="midnightblue" stroke="midnightblue" points="612.447,-590.006 621.782,-584.995 611.359,-583.091 612.447,-590.006"/>
</g>
<!-- Node142 -->
<g id="node29" class="node"><title>Node142</title>
<g id="a_node29"><a xlink:href="lapi_8c.html#a1ec28eaa66a0d7b4af7cadba811dd06f" target="_top" xlink:title=" ">
<polygon fill="white" stroke="black" points="485.5,-646.5 485.5,-665.5 555.5,-665.5 555.5,-646.5 485.5,-646.5"/>
<text text-anchor="middle" x="520.5" y="-653.5" font-family="Helvetica,sans-Serif" font-size="10.00">aux_upvalue</text>
</a>
</g>
</g>
<!-- Node141&#45;&gt;Node142 -->
<g id="edge37" class="edge"><title>Node141&#45;&gt;Node142</title>
<path fill="none" stroke="midnightblue" d="M421.557,-627.589C438.313,-632.449 458.858,-638.409 476.797,-643.613"/>
<polygon fill="midnightblue" stroke="midnightblue" points="475.875,-646.99 486.454,-646.414 477.825,-640.267 475.875,-646.99"/>
</g>
<!-- Node144 -->
<g id="node31" class="node"><title>Node144</title>
<g id="a_node31"><a xlink:href="ldo_8c.html#a451f5a18e45a63e1da2eed7d8a2060f5" target="_top" xlink:title=" ">
<polygon fill="white" stroke="black" points="333,-209.5 333,-228.5 442,-228.5 442,-209.5 333,-209.5"/>
<text text-anchor="middle" x="387.5" y="-216.5" font-family="Helvetica,sans-Serif" font-size="10.00">luaD_protectedparser</text>
</a>
</g>
</g>
<!-- Node143&#45;&gt;Node144 -->
<g id="edge40" class="edge"><title>Node143&#45;&gt;Node144</title>
<path fill="none" stroke="midnightblue" d="M282.128,-312.368C287.304,-309.736 292.549,-306.599 297,-303 317.186,-286.675 314.221,-274.926 333,-257 341.833,-248.568 352.648,-240.535 362.238,-234.045"/>
<polygon fill="midnightblue" stroke="midnightblue" points="364.168,-236.965 370.607,-228.552 360.327,-231.113 364.168,-236.965"/>
</g>
<!-- Node81 -->
<g id="node41" class="node"><title>Node81</title>
<g id="a_node41"><a xlink:href="ltable_8c.html#ae142cefd44452389877c3e3187c7973e" target="_top" xlink:title=" ">
<polygon fill="white" stroke="black" points="355,-304.5 355,-323.5 420,-323.5 420,-304.5 355,-304.5"/>
<text text-anchor="middle" x="387.5" y="-311.5" font-family="Helvetica,sans-Serif" font-size="10.00">luaH_getint</text>
</a>
</g>
</g>
<!-- Node143&#45;&gt;Node81 -->
<g id="edge51" class="edge"><title>Node143&#45;&gt;Node81</title>
<path fill="none" stroke="midnightblue" d="M283.695,-320.4C301.159,-319.313 324.652,-317.85 344.773,-316.598"/>
<polygon fill="midnightblue" stroke="midnightblue" points="345.174,-320.08 354.937,-315.965 344.739,-313.093 345.174,-320.08"/>
</g>
<!-- Node345 -->
<g id="node42" class="node"><title>Node345</title>
<g id="a_node42"><a xlink:href="lzio_8c.html#aeac95715238190000a710e2c304133a2" target="_top" xlink:title=" ">
<polygon fill="white" stroke="black" points="361,-266.5 361,-285.5 414,-285.5 414,-266.5 361,-266.5"/>
<text text-anchor="middle" x="387.5" y="-273.5" font-family="Helvetica,sans-Serif" font-size="10.00">luaZ_init</text>
</a>
</g>
</g>
<!-- Node143&#45;&gt;Node345 -->
<g id="edge52" class="edge"><title>Node143&#45;&gt;Node345</title>
<path fill="none" stroke="midnightblue" d="M283.677,-312.725C298.156,-307.503 316.581,-300.871 333,-295 338.969,-292.866 345.315,-290.605 351.473,-288.415"/>
<polygon fill="midnightblue" stroke="midnightblue" points="352.66,-291.708 360.912,-285.062 350.317,-285.112 352.66,-291.708"/>
</g>
<!-- Node145 -->
<g id="node32" class="node"><title>Node145</title>
<g id="a_node32"><a xlink:href="ldo_8c.html#a14df0fa118ab124dfcc6d227bdd38ca5" target="_top" xlink:title=" ">
<polygon fill="white" stroke="black" points="495,-76.5 495,-95.5 546,-95.5 546,-76.5 495,-76.5"/>
<text text-anchor="middle" x="520.5" y="-83.5" font-family="Helvetica,sans-Serif" font-size="10.00">f_parser</text>
</a>
</g>
</g>
<!-- Node144&#45;&gt;Node145 -->
<g id="edge41" class="edge"><title>Node144&#45;&gt;Node145</title>
<path fill="none" stroke="midnightblue" d="M397.921,-209.435C419.907,-187.113 474.846,-131.336 502.717,-103.039"/>
<polygon fill="midnightblue" stroke="midnightblue" points="505.287,-105.418 509.811,-95.8372 500.3,-100.506 505.287,-105.418"/>
</g>
<!-- Node340 -->
<g id="node37" class="node"><title>Node340</title>
<g id="a_node37"><a xlink:href="ldo_8c.html#a1ad7f845cc62b110e3fcc0ae187d7c85" target="_top" xlink:title=" ">
<polygon fill="white" stroke="black" points="489.5,-209.5 489.5,-228.5 551.5,-228.5 551.5,-209.5 489.5,-209.5"/>
<text text-anchor="middle" x="520.5" y="-216.5" font-family="Helvetica,sans-Serif" font-size="10.00">luaD_pcall</text>
</a>
</g>
</g>
<!-- Node144&#45;&gt;Node340 -->
<g id="edge46" class="edge"><title>Node144&#45;&gt;Node340</title>
<path fill="none" stroke="midnightblue" d="M442.161,-219C454.495,-219 467.409,-219 479.073,-219"/>
<polygon fill="midnightblue" stroke="midnightblue" points="479.382,-222.5 489.382,-219 479.382,-215.5 479.382,-222.5"/>
</g>
<!-- Node146 -->
<g id="node33" class="node"><title>Node146</title>
<g id="a_node33"><a xlink:href="ldo_8c.html#a47f3a8ae373112059c6cf957958c70a6" target="_top" xlink:title=" ">
<polygon fill="white" stroke="red" points="620.5,-76.5 620.5,-95.5 687.5,-95.5 687.5,-76.5 620.5,-76.5"/>
<text text-anchor="middle" x="654" y="-83.5" font-family="Helvetica,sans-Serif" font-size="10.00">checkmode</text>
</a>
</g>
</g>
<!-- Node145&#45;&gt;Node146 -->
<g id="edge42" class="edge"><title>Node145&#45;&gt;Node146</title>
<path fill="none" stroke="midnightblue" d="M546.234,-86C564.264,-86 589.146,-86 610.353,-86"/>
<polygon fill="midnightblue" stroke="midnightblue" points="610.423,-89.5001 620.423,-86 610.423,-82.5001 610.423,-89.5001"/>
</g>
<!-- Node147 -->
<g id="node34" class="node"><title>Node147</title>
<g id="a_node34"><a xlink:href="lfunc_8c.html#a8d0e32d70d1bddfe4311a219927c769c" target="_top" xlink:title=" ">
<polygon fill="white" stroke="black" points="614,-0.5 614,-19.5 694,-19.5 694,-0.5 614,-0.5"/>
<text text-anchor="middle" x="654" y="-7.5" font-family="Helvetica,sans-Serif" font-size="10.00">luaF_initupvals</text>
</a>
</g>
</g>
<!-- Node145&#45;&gt;Node147 -->
<g id="edge43" class="edge"><title>Node145&#45;&gt;Node147</title>
<path fill="none" stroke="midnightblue" d="M532.352,-76.382C546.737,-64.0326 573.307,-42.5805 599,-29 602.962,-26.9058 607.204,-24.9598 611.504,-23.1748"/>
<polygon fill="midnightblue" stroke="midnightblue" points="612.862,-26.4024 620.924,-19.5293 610.335,-19.8742 612.862,-26.4024"/>
</g>
<!-- Node148 -->
<g id="node35" class="node"><title>Node148</title>
<g id="a_node35"><a xlink:href="lundump_8c.html#a388a74bf67456b3abf167ef9fc85b3db" target="_top" xlink:title=" ">
<polygon fill="white" stroke="red" points="616,-38.5 616,-57.5 692,-57.5 692,-38.5 616,-38.5"/>
<text text-anchor="middle" x="654" y="-45.5" font-family="Helvetica,sans-Serif" font-size="10.00">luaU_undump</text>
</a>
</g>
</g>
<!-- Node145&#45;&gt;Node148 -->
<g id="edge44" class="edge"><title>Node145&#45;&gt;Node148</title>
<path fill="none" stroke="midnightblue" d="M546.234,-78.8525C564.218,-73.6557 589.018,-66.4892 610.189,-60.3712"/>
<polygon fill="midnightblue" stroke="midnightblue" points="611.298,-63.6939 619.934,-57.5553 609.355,-56.9691 611.298,-63.6939"/>
</g>
<!-- Node164 -->
<g id="node36" class="node"><title>Node164</title>
<g id="a_node36"><a xlink:href="lparser_8c.html#ab1aebed32ae816b2979db5b8dd2d1554" target="_top" xlink:title=" ">
<polygon fill="white" stroke="red" points="620,-114.5 620,-133.5 688,-133.5 688,-114.5 620,-114.5"/>
<text text-anchor="middle" x="654" y="-121.5" font-family="Helvetica,sans-Serif" font-size="10.00">luaY_parser</text>
</a>
</g>
</g>
<!-- Node145&#45;&gt;Node164 -->
<g id="edge45" class="edge"><title>Node145&#45;&gt;Node164</title>
<path fill="none" stroke="midnightblue" d="M546.234,-93.1475C564.218,-98.3443 589.018,-105.511 610.189,-111.629"/>
<polygon fill="midnightblue" stroke="midnightblue" points="609.355,-115.031 619.934,-114.445 611.298,-108.306 609.355,-115.031"/>
</g>
<!-- Node340&#45;&gt;Node76 -->
<g id="edge47" class="edge"><title>Node340&#45;&gt;Node76</title>
<path fill="none" stroke="midnightblue" d="M539.387,-228.517C554.919,-236.601 578.133,-248.249 599,-257 603.859,-259.038 609.021,-261.046 614.153,-262.95"/>
<polygon fill="midnightblue" stroke="midnightblue" points="613.301,-266.364 623.896,-266.464 615.676,-259.779 613.301,-266.364"/>
</g>
<!-- Node341 -->
<g id="node38" class="node"><title>Node341</title>
<g id="a_node38"><a xlink:href="ldo_8c.html#a219aa86777779dccae2c1bf9008db70a" target="_top" xlink:title=" ">
<polygon fill="white" stroke="red" points="608,-152.5 608,-171.5 700,-171.5 700,-152.5 608,-152.5"/>
<text text-anchor="middle" x="654" y="-159.5" font-family="Helvetica,sans-Serif" font-size="10.00">luaD_shrinkstack</text>
</a>
</g>
</g>
<!-- Node340&#45;&gt;Node341 -->
<g id="edge48" class="edge"><title>Node340&#45;&gt;Node341</title>
<path fill="none" stroke="midnightblue" d="M539.387,-209.483C554.919,-201.399 578.133,-189.751 599,-181 603.859,-178.962 609.021,-176.954 614.153,-175.05"/>
<polygon fill="midnightblue" stroke="midnightblue" points="615.676,-178.221 623.896,-171.536 613.301,-171.636 615.676,-178.221"/>
</g>
<!-- Node65 -->
<g id="node39" class="node"><title>Node65</title>
<g id="a_node39"><a xlink:href="lfunc_8c.html#ab50c76a12250379a898290f481de4ab6" target="_top" xlink:title=" ">
<polygon fill="white" stroke="black" points="622,-228.5 622,-247.5 686,-247.5 686,-228.5 622,-228.5"/>
<text text-anchor="middle" x="654" y="-235.5" font-family="Helvetica,sans-Serif" font-size="10.00">luaF_close</text>
</a>
</g>
</g>
<!-- Node340&#45;&gt;Node65 -->
<g id="edge49" class="edge"><title>Node340&#45;&gt;Node65</title>
<path fill="none" stroke="midnightblue" d="M551.669,-223.359C569.409,-225.922 592.094,-229.2 611.501,-232.004"/>
<polygon fill="midnightblue" stroke="midnightblue" points="611.201,-235.497 621.599,-233.463 612.202,-228.569 611.201,-235.497"/>
</g>
<!-- Node78 -->
<g id="node40" class="node"><title>Node78</title>
<g id="a_node40"><a xlink:href="ldo_8c.html#af5721b7fac08574c3bf04058268daec7" target="_top" xlink:title=" ">
<polygon fill="white" stroke="black" points="623,-190.5 623,-209.5 685,-209.5 685,-190.5 623,-190.5"/>
<text text-anchor="middle" x="654" y="-197.5" font-family="Helvetica,sans-Serif" font-size="10.00">seterrorobj</text>
</a>
</g>
</g>
<!-- Node340&#45;&gt;Node78 -->
<g id="edge50" class="edge"><title>Node340&#45;&gt;Node78</title>
<path fill="none" stroke="midnightblue" d="M551.669,-214.641C569.878,-212.01 593.297,-208.626 613.034,-205.775"/>
<polygon fill="midnightblue" stroke="midnightblue" points="613.575,-209.233 622.972,-204.339 612.574,-202.305 613.575,-209.233"/>
</g>
<!-- Node348 -->
<g id="node45" class="node"><title>Node348</title>
<g id="a_node45"><a xlink:href="lapi_8c.html#a652b273947f0656686f998d8e90cd3ea" target="_top" xlink:title=" ">
<polygon fill="white" stroke="black" points="494,-494.5 494,-513.5 547,-513.5 547,-494.5 494,-494.5"/>
<text text-anchor="middle" x="520.5" y="-501.5" font-family="Helvetica,sans-Serif" font-size="10.00">lua_type</text>
</a>
</g>
</g>
<!-- Node347&#45;&gt;Node348 -->
<g id="edge56" class="edge"><title>Node347&#45;&gt;Node348</title>
<path fill="none" stroke="midnightblue" d="M180.809,-497.769C256.096,-499.154 413.188,-502.044 483.788,-503.343"/>
<polygon fill="midnightblue" stroke="midnightblue" points="483.891,-506.845 493.954,-503.53 484.02,-499.847 483.891,-506.845"/>
</g>
<!-- Node349 -->
<g id="node46" class="node"><title>Node349</title>
<g id="a_node46"><a xlink:href="lauxlib_8c.html#ab8e946260debec8d4bbc714b76a1613b" target="_top" xlink:title=" ">
<polygon fill="white" stroke="black" points="229.5,-456.5 229.5,-475.5 284.5,-475.5 284.5,-456.5 229.5,-456.5"/>
<text text-anchor="middle" x="257" y="-463.5" font-family="Helvetica,sans-Serif" font-size="10.00">tag_error</text>
</a>
</g>
</g>
<!-- Node347&#45;&gt;Node349 -->
<g id="edge58" class="edge"><title>Node347&#45;&gt;Node349</title>
<path fill="none" stroke="midnightblue" d="M175.059,-487.446C189.106,-483.724 205.189,-479.463 219.298,-475.725"/>
<polygon fill="midnightblue" stroke="midnightblue" points="220.395,-479.055 229.165,-473.11 218.602,-472.288 220.395,-479.055"/>
</g>
<!-- Node348&#45;&gt;Node4 -->
<g id="edge57" class="edge"><title>Node348&#45;&gt;Node4</title>
<path fill="none" stroke="midnightblue" d="M543.74,-513.513C550.051,-516.391 556.87,-519.676 563,-523 586.674,-535.84 612.536,-552.515 630.436,-564.508"/>
<polygon fill="midnightblue" stroke="midnightblue" points="628.772,-567.608 639.017,-570.308 632.692,-561.809 628.772,-567.608"/>
</g>
<!-- Node350 -->
<g id="node47" class="node"><title>Node350</title>
<g id="a_node47"><a xlink:href="lapi_8c.html#a7d64f87addab440bbda96bb088816e17" target="_top" xlink:title=" ">
<polygon fill="white" stroke="black" points="349,-342.5 349,-361.5 426,-361.5 426,-342.5 349,-342.5"/>
<text text-anchor="middle" x="387.5" y="-349.5" font-family="Helvetica,sans-Serif" font-size="10.00">lua_typename</text>
</a>
</g>
</g>
<!-- Node349&#45;&gt;Node350 -->
<g id="edge59" class="edge"><title>Node349&#45;&gt;Node350</title>
<path fill="none" stroke="midnightblue" d="M263.073,-456.455C273.612,-437.497 299.695,-394.871 333,-371 335.644,-369.105 338.495,-367.383 341.456,-365.821"/>
<polygon fill="midnightblue" stroke="midnightblue" points="342.968,-368.978 350.572,-361.6 340.027,-362.625 342.968,-368.978"/>
</g>
<!-- Node351 -->
<g id="node48" class="node"><title>Node351</title>
<g id="a_node48"><a xlink:href="lauxlib_8c.html#a49f5eae5db02430a59c67dff7b06d98f" target="_top" xlink:title=" ">
<polygon fill="white" stroke="red" points="360,-456.5 360,-475.5 415,-475.5 415,-456.5 360,-456.5"/>
<text text-anchor="middle" x="387.5" y="-463.5" font-family="Helvetica,sans-Serif" font-size="10.00">typeerror</text>
</a>
</g>
</g>
<!-- Node349&#45;&gt;Node351 -->
<g id="edge60" class="edge"><title>Node349&#45;&gt;Node351</title>
<path fill="none" stroke="midnightblue" d="M284.625,-466C303.492,-466 329.041,-466 349.833,-466"/>
<polygon fill="midnightblue" stroke="midnightblue" points="349.909,-469.5 359.909,-466 349.909,-462.5 349.909,-469.5"/>
</g>
<!-- Node351&#45;&gt;Node138 -->
<g id="edge61" class="edge"><title>Node351&#45;&gt;Node138</title>
<path fill="none" stroke="midnightblue" d="M415.265,-466C481.018,-466 651.311,-466 736.672,-466"/>
<polygon fill="midnightblue" stroke="midnightblue" points="736.896,-469.5 746.896,-466 736.896,-462.5 736.896,-469.5"/>
</g>
<!-- Node351&#45;&gt;Node348 -->
<g id="edge62" class="edge"><title>Node351&#45;&gt;Node348</title>
<path fill="none" stroke="midnightblue" d="M415.01,-473.69C434.889,-479.456 462.301,-487.408 484.06,-493.72"/>
<polygon fill="midnightblue" stroke="midnightblue" points="483.342,-497.156 493.921,-496.58 485.292,-490.433 483.342,-497.156"/>
</g>
<!-- Node367&#45;&gt;Node143 -->
<g id="edge65" class="edge"><title>Node367&#45;&gt;Node143</title>
<path fill="none" stroke="midnightblue" d="M181.24,-330.946C193.896,-329.431 207.656,-327.785 219.88,-326.322"/>
<polygon fill="midnightblue" stroke="midnightblue" points="220.648,-329.755 230.161,-325.092 219.816,-322.805 220.648,-329.755"/>
</g>
<!-- Node368 -->
<g id="node50" class="node"><title>Node368</title>
<g id="a_node50"><a xlink:href="lauxlib_8c.html#a7fb82f42d22d1cbde5e3af0561389cbf" target="_top" xlink:title=" ">
<polygon fill="white" stroke="black" points="238.5,-274.5 238.5,-293.5 275.5,-293.5 275.5,-274.5 238.5,-274.5"/>
<text text-anchor="middle" x="257" y="-281.5" font-family="Helvetica,sans-Serif" font-size="10.00">getS</text>
</a>
</g>
</g>
<!-- Node367&#45;&gt;Node368 -->
<g id="edge64" class="edge"><title>Node367&#45;&gt;Node368</title>
<path fill="none" stroke="midnightblue" d="M160.46,-326.462C179.823,-317.856 208.384,-305.163 229.233,-295.896"/>
<polygon fill="midnightblue" stroke="midnightblue" points="230.775,-299.041 238.492,-291.781 227.932,-292.645 230.775,-299.041"/>
</g>
</g>
</svg>
