<?xml version="1.0" encoding="UTF-8" standalone="no"?>
<!DOCTYPE svg PUBLIC "-//W3C//DTD SVG 1.1//EN"
 "http://www.w3.org/Graphics/SVG/1.1/DTD/svg11.dtd">
<!-- Generated by graphviz version 2.38.0 (20140413.2041)
 -->
<!-- Title: luaB_coresume Pages: 1 -->
<svg width="1175pt" height="997pt"
 viewBox="0.00 0.00 1175.00 997.00" xmlns="http://www.w3.org/2000/svg" xmlns:xlink="http://www.w3.org/1999/xlink">
<g id="graph0" class="graph" transform="scale(1 1) rotate(0) translate(4 993)">
<title>luaB_coresume</title>
<polygon fill="white" stroke="none" points="-4,4 -4,-993 1171,-993 1171,4 -4,4"/>
<!-- Node1 -->
<g id="node1" class="node"><title>Node1</title>
<g id="a_node1"><a xlink:title=" ">
<polygon fill="#bfbfbf" stroke="black" points="0,-855.5 0,-874.5 84,-874.5 84,-855.5 0,-855.5"/>
<text text-anchor="middle" x="42" y="-862.5" font-family="Helvetica,sans-Serif" font-size="10.00">luaB_coresume</text>
</a>
</g>
</g>
<!-- Node2 -->
<g id="node2" class="node"><title>Node2</title>
<g id="a_node2"><a xlink:href="lcorolib_8c.html#aaa37b3a30ab0c6daef7fae8951fef3e7" target="_top" xlink:title=" ">
<polygon fill="white" stroke="black" points="132,-874.5 132,-893.5 197,-893.5 197,-874.5 132,-874.5"/>
<text text-anchor="middle" x="164.5" y="-881.5" font-family="Helvetica,sans-Serif" font-size="10.00">auxresume</text>
</a>
</g>
</g>
<!-- Node1&#45;&gt;Node2 -->
<g id="edge1" class="edge"><title>Node1&#45;&gt;Node2</title>
<path fill="none" stroke="midnightblue" d="M84.1322,-871.486C96.2767,-873.4 109.577,-875.498 121.76,-877.419"/>
<polygon fill="midnightblue" stroke="midnightblue" points="121.257,-880.882 131.68,-878.983 122.347,-873.968 121.257,-880.882"/>
</g>
<!-- Node120 -->
<g id="node11" class="node"><title>Node120</title>
<g id="a_node11"><a xlink:href="lapi_8c.html#afbb08ecb69421875494105d4de68e5bf" target="_top" xlink:title=" ">
<polygon fill="white" stroke="black" points="249,-969.5 249,-988.5 311,-988.5 311,-969.5 249,-969.5"/>
<text text-anchor="middle" x="280" y="-976.5" font-family="Helvetica,sans-Serif" font-size="10.00">lua_gettop</text>
</a>
</g>
</g>
<!-- Node1&#45;&gt;Node120 -->
<g id="edge74" class="edge"><title>Node1&#45;&gt;Node120</title>
<path fill="none" stroke="midnightblue" d="M62.2702,-874.593C77.8254,-882.317 100.288,-893.426 120,-903 165.143,-924.927 217.714,-949.957 249.66,-965.111"/>
<polygon fill="midnightblue" stroke="midnightblue" points="248.346,-968.362 258.881,-969.483 251.345,-962.036 248.346,-968.362"/>
</g>
<!-- Node135 -->
<g id="node47" class="node"><title>Node135</title>
<g id="a_node47"><a xlink:href="lcorolib_8c.html#a4b416d01703982d717374b9d7b98fdc2" target="_top" xlink:title=" ">
<polygon fill="white" stroke="black" points="144,-836.5 144,-855.5 185,-855.5 185,-836.5 144,-836.5"/>
<text text-anchor="middle" x="164.5" y="-843.5" font-family="Helvetica,sans-Serif" font-size="10.00">getco</text>
</a>
</g>
</g>
<!-- Node1&#45;&gt;Node135 -->
<g id="edge71" class="edge"><title>Node1&#45;&gt;Node135</title>
<path fill="none" stroke="midnightblue" d="M84.1322,-858.514C100.372,-855.954 118.678,-853.067 133.615,-850.712"/>
<polygon fill="midnightblue" stroke="midnightblue" points="134.484,-854.118 143.817,-849.104 133.394,-847.204 134.484,-854.118"/>
</g>
<!-- Node138 -->
<g id="node50" class="node"><title>Node138</title>
<g id="a_node50"><a xlink:href="lapi_8c.html#a56bbb7479265e38da2e2596e6ec25faa" target="_top" xlink:title=" ">
<polygon fill="white" stroke="black" points="120,-798.5 120,-817.5 209,-817.5 209,-798.5 120,-798.5"/>
<text text-anchor="middle" x="164.5" y="-805.5" font-family="Helvetica,sans-Serif" font-size="10.00">lua_pushboolean</text>
</a>
</g>
</g>
<!-- Node1&#45;&gt;Node138 -->
<g id="edge75" class="edge"><title>Node1&#45;&gt;Node138</title>
<path fill="none" stroke="midnightblue" d="M61.8676,-855.382C77.3835,-847.548 99.993,-836.3 120,-827 123.678,-825.29 127.55,-823.536 131.405,-821.817"/>
<polygon fill="midnightblue" stroke="midnightblue" points="133.093,-824.897 140.833,-817.662 130.271,-818.492 133.093,-824.897"/>
</g>
<!-- Node3 -->
<g id="node3" class="node"><title>Node3</title>
<g id="a_node3"><a xlink:href="lapi_8c.html#a1d762b92d5d82d6fa9f54ccf5c89d6a2" target="_top" xlink:title=" ">
<polygon fill="white" stroke="black" points="461,-931.5 461,-950.5 546,-950.5 546,-931.5 461,-931.5"/>
<text text-anchor="middle" x="503.5" y="-938.5" font-family="Helvetica,sans-Serif" font-size="10.00">lua_checkstack</text>
</a>
</g>
</g>
<!-- Node2&#45;&gt;Node3 -->
<g id="edge2" class="edge"><title>Node2&#45;&gt;Node3</title>
<path fill="none" stroke="midnightblue" d="M197.083,-892.224C211.613,-895.833 229.115,-899.936 245,-903 315.924,-916.681 398.669,-928.092 450.823,-934.734"/>
<polygon fill="midnightblue" stroke="midnightblue" points="450.474,-938.218 460.833,-935.998 451.351,-931.273 450.474,-938.218"/>
</g>
<!-- Node2&#45;&gt;Node120 -->
<g id="edge11" class="edge"><title>Node2&#45;&gt;Node120</title>
<path fill="none" stroke="midnightblue" d="M175.467,-893.576C190.217,-907.589 218.929,-934.268 245,-955 248.499,-957.783 252.293,-960.622 256.035,-963.328"/>
<polygon fill="midnightblue" stroke="midnightblue" points="254.32,-966.402 264.508,-969.312 258.358,-960.685 254.32,-966.402"/>
</g>
<!-- Node121 -->
<g id="node12" class="node"><title>Node121</title>
<g id="a_node12"><a xlink:href="ldo_8c.html#a14b0620a515807e942a6440bc1e32a68" target="_top" xlink:title=" ">
<polygon fill="white" stroke="black" points="246.5,-874.5 246.5,-893.5 313.5,-893.5 313.5,-874.5 246.5,-874.5"/>
<text text-anchor="middle" x="280" y="-881.5" font-family="Helvetica,sans-Serif" font-size="10.00">lua_resume</text>
</a>
</g>
</g>
<!-- Node2&#45;&gt;Node121 -->
<g id="edge12" class="edge"><title>Node2&#45;&gt;Node121</title>
<path fill="none" stroke="midnightblue" d="M197.116,-884C209.227,-884 223.252,-884 236.236,-884"/>
<polygon fill="midnightblue" stroke="midnightblue" points="236.369,-887.5 246.369,-884 236.369,-880.5 236.369,-887.5"/>
</g>
<!-- Node133 -->
<g id="node45" class="node"><title>Node133</title>
<g id="a_node45"><a xlink:href="lapi_8c.html#aadea4b6f60174a1334ebde560968a615" target="_top" xlink:title=" ">
<polygon fill="white" stroke="black" points="249,-836.5 249,-855.5 311,-855.5 311,-836.5 249,-836.5"/>
<text text-anchor="middle" x="280" y="-843.5" font-family="Helvetica,sans-Serif" font-size="10.00">lua_status</text>
</a>
</g>
</g>
<!-- Node2&#45;&gt;Node133 -->
<g id="edge69" class="edge"><title>Node2&#45;&gt;Node133</title>
<path fill="none" stroke="midnightblue" d="M194.141,-874.411C208.255,-869.686 225.472,-863.921 240.701,-858.823"/>
<polygon fill="midnightblue" stroke="midnightblue" points="241.997,-862.08 250.368,-855.586 239.774,-855.442 241.997,-862.08"/>
</g>
<!-- Node134 -->
<g id="node46" class="node"><title>Node134</title>
<g id="a_node46"><a xlink:href="lapi_8c.html#ae27bb8d0218710bbbfefc1f573839d6d" target="_top" xlink:title=" ">
<polygon fill="white" stroke="black" points="249,-798.5 249,-817.5 311,-817.5 311,-798.5 249,-798.5"/>
<text text-anchor="middle" x="280" y="-805.5" font-family="Helvetica,sans-Serif" font-size="10.00">lua_xmove</text>
</a>
</g>
</g>
<!-- Node2&#45;&gt;Node134 -->
<g id="edge70" class="edge"><title>Node2&#45;&gt;Node134</title>
<path fill="none" stroke="midnightblue" d="M192.172,-874.367C197.958,-871.735 203.874,-868.599 209,-865 228.04,-851.632 226.636,-841.282 245,-827 246.778,-825.617 248.669,-824.272 250.614,-822.979"/>
<polygon fill="midnightblue" stroke="midnightblue" points="252.582,-825.879 259.297,-817.683 248.937,-819.903 252.582,-825.879"/>
</g>
<!-- Node4 -->
<g id="node4" class="node"><title>Node4</title>
<g id="a_node4"><a xlink:href="lapi_8c.html#ab3a8303d450a61e55f7928da1fe14302" target="_top" xlink:title=" ">
<polygon fill="white" stroke="black" points="590,-760.5 590,-779.5 651,-779.5 651,-760.5 590,-760.5"/>
<text text-anchor="middle" x="620.5" y="-767.5" font-family="Helvetica,sans-Serif" font-size="10.00">growstack</text>
</a>
</g>
</g>
<!-- Node3&#45;&gt;Node4 -->
<g id="edge3" class="edge"><title>Node3&#45;&gt;Node4</title>
<path fill="none" stroke="midnightblue" d="M512.434,-931.297C521.256,-920.252 535.625,-901.472 546,-884 565.083,-851.863 560.571,-838.623 582,-808 587.231,-800.525 593.984,-793.18 600.315,-786.97"/>
<polygon fill="midnightblue" stroke="midnightblue" points="603.069,-789.185 607.962,-779.787 598.277,-784.082 603.069,-789.185"/>
</g>
<!-- Node79 -->
<g id="node10" class="node"><title>Node79</title>
<g id="a_node10"><a xlink:href="ldo_8c.html#ab0872b1738a995ecbf1cdc8a9bc0fdf6" target="_top" xlink:title=" ">
<polygon fill="white" stroke="black" points="953,-893.5 953,-912.5 1063,-912.5 1063,-893.5 953,-893.5"/>
<text text-anchor="middle" x="1008" y="-900.5" font-family="Helvetica,sans-Serif" font-size="10.00">luaD_rawrunprotected</text>
</a>
</g>
</g>
<!-- Node3&#45;&gt;Node79 -->
<g id="edge10" class="edge"><title>Node3&#45;&gt;Node79</title>
<path fill="none" stroke="midnightblue" d="M546.18,-939.9C620.745,-937.638 781.827,-931.412 917,-917 925.363,-916.108 934.136,-914.983 942.787,-913.759"/>
<polygon fill="midnightblue" stroke="midnightblue" points="943.468,-917.197 952.856,-912.286 942.454,-910.271 943.468,-917.197"/>
</g>
<!-- Node5 -->
<g id="node5" class="node"><title>Node5</title>
<g id="a_node5"><a xlink:href="ldo_8c.html#a7dafde5820970358b662483594666cdb" target="_top" xlink:title=" ">
<polygon fill="white" stroke="black" points="698,-741.5 698,-760.5 784,-760.5 784,-741.5 698,-741.5"/>
<text text-anchor="middle" x="741" y="-748.5" font-family="Helvetica,sans-Serif" font-size="10.00">luaD_growstack</text>
</a>
</g>
</g>
<!-- Node4&#45;&gt;Node5 -->
<g id="edge4" class="edge"><title>Node4&#45;&gt;Node5</title>
<path fill="none" stroke="midnightblue" d="M651.097,-765.255C662.24,-763.468 675.268,-761.379 687.862,-759.36"/>
<polygon fill="midnightblue" stroke="midnightblue" points="688.504,-762.802 697.824,-757.762 687.396,-755.89 688.504,-762.802"/>
</g>
<!-- Node6 -->
<g id="node6" class="node"><title>Node6</title>
<g id="a_node6"><a xlink:href="ldo_8c.html#af9e1a13760752fc0ba594072b1fef5f3" target="_top" xlink:title=" ">
<polygon fill="white" stroke="red" points="823,-703.5 823,-722.5 917,-722.5 917,-703.5 823,-703.5"/>
<text text-anchor="middle" x="870" y="-710.5" font-family="Helvetica,sans-Serif" font-size="10.00">luaD_reallocstack</text>
</a>
</g>
</g>
<!-- Node5&#45;&gt;Node6 -->
<g id="edge5" class="edge"><title>Node5&#45;&gt;Node6</title>
<path fill="none" stroke="midnightblue" d="M774.047,-741.411C790.141,-736.596 809.841,-730.701 827.117,-725.532"/>
<polygon fill="midnightblue" stroke="midnightblue" points="828.386,-728.806 836.963,-722.586 826.379,-722.099 828.386,-728.806"/>
</g>
<!-- Node8 -->
<g id="node7" class="node"><title>Node8</title>
<g id="a_node7"><a xlink:href="ldo_8c.html#a2b46d9db5b9ca3d5402a0c2ac640a6b0" target="_top" xlink:title=" ">
<polygon fill="white" stroke="black" points="975.5,-665.5 975.5,-684.5 1040.5,-684.5 1040.5,-665.5 975.5,-665.5"/>
<text text-anchor="middle" x="1008" y="-672.5" font-family="Helvetica,sans-Serif" font-size="10.00">luaD_throw</text>
</a>
</g>
</g>
<!-- Node5&#45;&gt;Node8 -->
<g id="edge6" class="edge"><title>Node5&#45;&gt;Node8</title>
<path fill="none" stroke="midnightblue" d="M769.6,-741.474C775.584,-738.837 781.702,-735.671 787,-732 806.122,-718.75 802.13,-704.279 823,-694 867.767,-671.951 925.981,-669.669 964.823,-671.28"/>
<polygon fill="midnightblue" stroke="midnightblue" points="965.068,-674.798 975.238,-671.825 965.434,-667.807 965.068,-674.798"/>
</g>
<!-- Node10 -->
<g id="node9" class="node"><title>Node10</title>
<g id="a_node9"><a xlink:href="ldebug_8c.html#a88d38ca5da2e7a1492fc9d5ad70c32c5" target="_top" xlink:title=" ">
<polygon fill="white" stroke="red" points="832.5,-627.5 832.5,-646.5 907.5,-646.5 907.5,-627.5 832.5,-627.5"/>
<text text-anchor="middle" x="870" y="-634.5" font-family="Helvetica,sans-Serif" font-size="10.00">luaG_runerror</text>
</a>
</g>
</g>
<!-- Node5&#45;&gt;Node10 -->
<g id="edge9" class="edge"><title>Node5&#45;&gt;Node10</title>
<path fill="none" stroke="midnightblue" d="M772.805,-741.446C777.933,-738.929 782.907,-735.817 787,-732 812.875,-707.87 798.128,-686.162 823,-661 826.459,-657.501 830.536,-654.402 834.81,-651.692"/>
<polygon fill="midnightblue" stroke="midnightblue" points="836.729,-654.629 843.725,-646.673 833.294,-648.529 836.729,-654.629"/>
</g>
<!-- Node8&#45;&gt;Node8 -->
<g id="edge7" class="edge"><title>Node8&#45;&gt;Node8</title>
<path fill="none" stroke="midnightblue" d="M988.888,-684.757C979.59,-693.565 985.961,-703 1008,-703 1022.12,-703 1029.81,-699.128 1031.07,-694.029"/>
<polygon fill="midnightblue" stroke="midnightblue" points="1034.25,-692.583 1027.11,-684.757 1027.81,-695.329 1034.25,-692.583"/>
</g>
<!-- Node9 -->
<g id="node8" class="node"><title>Node9</title>
<g id="a_node8"><a xlink:href="ldo_8c.html#af5721b7fac08574c3bf04058268daec7" target="_top" xlink:title=" ">
<polygon fill="white" stroke="black" points="1102,-855.5 1102,-874.5 1164,-874.5 1164,-855.5 1102,-855.5"/>
<text text-anchor="middle" x="1133" y="-862.5" font-family="Helvetica,sans-Serif" font-size="10.00">seterrorobj</text>
</a>
</g>
</g>
<!-- Node8&#45;&gt;Node9 -->
<g id="edge8" class="edge"><title>Node8&#45;&gt;Node9</title>
<path fill="none" stroke="midnightblue" d="M1015.27,-684.683C1034.76,-714.787 1094.51,-807.085 1120.13,-846.665"/>
<polygon fill="midnightblue" stroke="midnightblue" points="1117.22,-848.616 1125.6,-855.108 1123.1,-844.812 1117.22,-848.616"/>
</g>
<!-- Node121&#45;&gt;Node9 -->
<g id="edge67" class="edge"><title>Node121&#45;&gt;Node9</title>
<path fill="none" stroke="midnightblue" d="M293.657,-893.809C326.286,-918.081 416.723,-979 502.5,-979 502.5,-979 502.5,-979 871,-979 960.014,-979 984.439,-963.855 1063,-922 1082.76,-911.473 1102.14,-894.738 1115.3,-882.118"/>
<polygon fill="midnightblue" stroke="midnightblue" points="1117.97,-884.397 1122.64,-874.885 1113.06,-879.41 1117.97,-884.397"/>
</g>
<!-- Node121&#45;&gt;Node79 -->
<g id="edge13" class="edge"><title>Node121&#45;&gt;Node79</title>
<path fill="none" stroke="midnightblue" d="M313.576,-888.551C356.7,-894.172 435.15,-903 502.5,-903 502.5,-903 502.5,-903 742,-903 810.614,-903 889.221,-903 942.891,-903"/>
<polygon fill="midnightblue" stroke="midnightblue" points="942.948,-906.5 952.948,-903 942.948,-899.5 942.948,-906.5"/>
</g>
<!-- Node122 -->
<g id="node13" class="node"><title>Node122</title>
<g id="a_node13"><a xlink:href="ldo_8c.html#a8f3e3ff2aa0a4a251774a476cb0036ea" target="_top" xlink:title=" ">
<polygon fill="white" stroke="black" points="597,-817.5 597,-836.5 644,-836.5 644,-817.5 597,-817.5"/>
<text text-anchor="middle" x="620.5" y="-824.5" font-family="Helvetica,sans-Serif" font-size="10.00">recover</text>
</a>
</g>
</g>
<!-- Node121&#45;&gt;Node122 -->
<g id="edge14" class="edge"><title>Node121&#45;&gt;Node122</title>
<path fill="none" stroke="midnightblue" d="M298.088,-874.488C317.883,-863.505 348.163,-846.828 351,-846 433.085,-822.041 535.005,-822.625 586.466,-824.908"/>
<polygon fill="midnightblue" stroke="midnightblue" points="586.495,-828.414 596.656,-825.413 586.841,-821.422 586.495,-828.414"/>
</g>
<!-- Node128 -->
<g id="node20" class="node"><title>Node128</title>
<g id="a_node20"><a xlink:href="ldo_8c.html#abd7632c715de5db6e7797b7fa3f7010f" target="_top" xlink:title=" ">
<polygon fill="white" stroke="black" points="363.5,-494.5 363.5,-513.5 412.5,-513.5 412.5,-494.5 363.5,-494.5"/>
<text text-anchor="middle" x="388" y="-501.5" font-family="Helvetica,sans-Serif" font-size="10.00">resume</text>
</a>
</g>
</g>
<!-- Node121&#45;&gt;Node128 -->
<g id="edge23" class="edge"><title>Node121&#45;&gt;Node128</title>
<path fill="none" stroke="midnightblue" d="M304.768,-874.373C308.688,-871.845 312.336,-868.748 315,-865 368.34,-789.958 332.706,-751.232 351,-661 361.101,-611.181 375.008,-552.953 382.223,-523.376"/>
<polygon fill="midnightblue" stroke="midnightblue" points="385.658,-524.067 384.639,-513.521 378.859,-522.4 385.658,-524.067"/>
</g>
<!-- Node129 -->
<g id="node40" class="node"><title>Node129</title>
<g id="a_node40"><a xlink:href="ldo_8c.html#a3baab9d298c0c32cb74a9a079d7244de" target="_top" xlink:title=" ">
<polygon fill="white" stroke="black" points="483.5,-551.5 483.5,-570.5 523.5,-570.5 523.5,-551.5 483.5,-551.5"/>
<text text-anchor="middle" x="503.5" y="-558.5" font-family="Helvetica,sans-Serif" font-size="10.00">unroll</text>
</a>
</g>
</g>
<!-- Node121&#45;&gt;Node129 -->
<g id="edge68" class="edge"><title>Node121&#45;&gt;Node129</title>
<path fill="none" stroke="midnightblue" d="M302.285,-874.302C306.784,-871.673 311.289,-868.555 315,-865 327.139,-853.372 453.269,-643.282 491.547,-579.324"/>
<polygon fill="midnightblue" stroke="midnightblue" points="494.59,-581.054 496.72,-570.676 488.582,-577.461 494.59,-581.054"/>
</g>
<!-- Node132 -->
<g id="node43" class="node"><title>Node132</title>
<g id="a_node43"><a xlink:href="ldo_8c.html#a8a351e424df030a908f2db9eec0b4f30" target="_top" xlink:title=" ">
<polygon fill="white" stroke="black" points="351,-855.5 351,-874.5 425,-874.5 425,-855.5 351,-855.5"/>
<text text-anchor="middle" x="388" y="-862.5" font-family="Helvetica,sans-Serif" font-size="10.00">resume_error</text>
</a>
</g>
</g>
<!-- Node121&#45;&gt;Node132 -->
<g id="edge65" class="edge"><title>Node121&#45;&gt;Node132</title>
<path fill="none" stroke="midnightblue" d="M313.668,-878.144C322.335,-876.591 331.856,-874.884 341.086,-873.23"/>
<polygon fill="midnightblue" stroke="midnightblue" points="341.706,-876.675 350.932,-871.465 340.471,-869.784 341.706,-876.675"/>
</g>
<!-- Node122&#45;&gt;Node9 -->
<g id="edge22" class="edge"><title>Node122&#45;&gt;Node9</title>
<path fill="none" stroke="midnightblue" d="M644.091,-834.151C658.502,-838.384 677.663,-843.412 695,-846 839.722,-867.607 1014.16,-867.452 1091.59,-866.053"/>
<polygon fill="midnightblue" stroke="midnightblue" points="1091.93,-869.547 1101.86,-865.85 1091.79,-862.549 1091.93,-869.547"/>
</g>
<!-- Node123 -->
<g id="node14" class="node"><title>Node123</title>
<g id="a_node14"><a xlink:href="ldo_8c.html#a5688fb12458a47b8a42cdd5aa4f543a0" target="_top" xlink:title=" ">
<polygon fill="white" stroke="black" points="715,-779.5 715,-798.5 767,-798.5 767,-779.5 715,-779.5"/>
<text text-anchor="middle" x="741" y="-786.5" font-family="Helvetica,sans-Serif" font-size="10.00">findpcall</text>
</a>
</g>
</g>
<!-- Node122&#45;&gt;Node123 -->
<g id="edge15" class="edge"><title>Node122&#45;&gt;Node123</title>
<path fill="none" stroke="midnightblue" d="M644.068,-819.763C661.302,-814.237 685.362,-806.521 705.075,-800.2"/>
<polygon fill="midnightblue" stroke="midnightblue" points="706.187,-803.519 714.64,-797.132 704.049,-796.853 706.187,-803.519"/>
</g>
<!-- Node124 -->
<g id="node15" class="node"><title>Node124</title>
<g id="a_node15"><a xlink:href="ldo_8c.html#a219aa86777779dccae2c1bf9008db70a" target="_top" xlink:title=" ">
<polygon fill="white" stroke="black" points="695,-817.5 695,-836.5 787,-836.5 787,-817.5 695,-817.5"/>
<text text-anchor="middle" x="741" y="-824.5" font-family="Helvetica,sans-Serif" font-size="10.00">luaD_shrinkstack</text>
</a>
</g>
</g>
<!-- Node122&#45;&gt;Node124 -->
<g id="edge16" class="edge"><title>Node122&#45;&gt;Node124</title>
<path fill="none" stroke="midnightblue" d="M644.068,-827C655.632,-827 670.269,-827 684.604,-827"/>
<polygon fill="midnightblue" stroke="midnightblue" points="684.94,-830.5 694.94,-827 684.94,-823.5 684.94,-830.5"/>
</g>
<!-- Node68 -->
<g id="node19" class="node"><title>Node68</title>
<g id="a_node19"><a xlink:href="lfunc_8c.html#ab50c76a12250379a898290f481de4ab6" target="_top" xlink:title=" ">
<polygon fill="white" stroke="black" points="709,-703.5 709,-722.5 773,-722.5 773,-703.5 709,-703.5"/>
<text text-anchor="middle" x="741" y="-710.5" font-family="Helvetica,sans-Serif" font-size="10.00">luaF_close</text>
</a>
</g>
</g>
<!-- Node122&#45;&gt;Node68 -->
<g id="edge21" class="edge"><title>Node122&#45;&gt;Node68</title>
<path fill="none" stroke="midnightblue" d="M632.317,-817.237C640.173,-809.872 650.816,-799.308 659,-789 677.631,-765.534 672.151,-751.383 695,-732 696.786,-730.485 698.711,-729.075 700.724,-727.766"/>
<polygon fill="midnightblue" stroke="midnightblue" points="702.901,-730.561 709.953,-722.655 699.509,-724.438 702.901,-730.561"/>
</g>
<!-- Node124&#45;&gt;Node6 -->
<g id="edge17" class="edge"><title>Node124&#45;&gt;Node6</title>
<path fill="none" stroke="midnightblue" d="M773.355,-817.305C778.309,-814.819 783.081,-811.755 787,-808 813.989,-782.144 795.91,-757.751 823,-732 824.628,-730.452 826.4,-729.023 828.27,-727.704"/>
<polygon fill="midnightblue" stroke="midnightblue" points="830.103,-730.686 836.951,-722.602 826.556,-724.651 830.103,-730.686"/>
</g>
<!-- Node125 -->
<g id="node16" class="node"><title>Node125</title>
<g id="a_node16"><a xlink:href="lstate_8c.html#a1153e60541fafca38e049159a2d56cdd" target="_top" xlink:title=" ">
<polygon fill="white" stroke="black" points="837,-817.5 837,-836.5 903,-836.5 903,-817.5 837,-817.5"/>
<text text-anchor="middle" x="870" y="-824.5" font-family="Helvetica,sans-Serif" font-size="10.00">luaE_freeCI</text>
</a>
</g>
</g>
<!-- Node124&#45;&gt;Node125 -->
<g id="edge18" class="edge"><title>Node124&#45;&gt;Node125</title>
<path fill="none" stroke="midnightblue" d="M787.133,-827C799.944,-827 813.846,-827 826.496,-827"/>
<polygon fill="midnightblue" stroke="midnightblue" points="826.776,-830.5 836.776,-827 826.775,-823.5 826.776,-830.5"/>
</g>
<!-- Node126 -->
<g id="node17" class="node"><title>Node126</title>
<g id="a_node17"><a xlink:href="lstate_8c.html#a59bcd5586c176d9e24bcdf9e4d07adbe" target="_top" xlink:title=" ">
<polygon fill="white" stroke="black" points="831.5,-779.5 831.5,-798.5 908.5,-798.5 908.5,-779.5 831.5,-779.5"/>
<text text-anchor="middle" x="870" y="-786.5" font-family="Helvetica,sans-Serif" font-size="10.00">luaE_shrinkCI</text>
</a>
</g>
</g>
<!-- Node124&#45;&gt;Node126 -->
<g id="edge19" class="edge"><title>Node124&#45;&gt;Node126</title>
<path fill="none" stroke="midnightblue" d="M774.047,-817.411C790.141,-812.596 809.841,-806.701 827.117,-801.532"/>
<polygon fill="midnightblue" stroke="midnightblue" points="828.386,-804.806 836.963,-798.586 826.379,-798.099 828.386,-804.806"/>
</g>
<!-- Node127 -->
<g id="node18" class="node"><title>Node127</title>
<g id="a_node18"><a xlink:href="ldo_8c.html#ac2956ef8f7aba184c6591001f2017a54" target="_top" xlink:title=" ">
<polygon fill="white" stroke="black" points="838,-741.5 838,-760.5 902,-760.5 902,-741.5 838,-741.5"/>
<text text-anchor="middle" x="870" y="-748.5" font-family="Helvetica,sans-Serif" font-size="10.00">stackinuse</text>
</a>
</g>
</g>
<!-- Node124&#45;&gt;Node127 -->
<g id="edge20" class="edge"><title>Node124&#45;&gt;Node127</title>
<path fill="none" stroke="midnightblue" d="M769.6,-817.474C775.584,-814.837 781.702,-811.671 787,-808 806.122,-794.75 803.826,-783.176 823,-770 825.553,-768.246 828.292,-766.611 831.116,-765.095"/>
<polygon fill="midnightblue" stroke="midnightblue" points="832.814,-768.162 840.299,-760.664 829.772,-761.858 832.814,-768.162"/>
</g>
<!-- Node54 -->
<g id="node21" class="node"><title>Node54</title>
<g id="a_node21"><a xlink:href="ldo_8c.html#a43b2bc73f8881b1bcb5f650395f35522" target="_top" xlink:title=" ">
<polygon fill="white" stroke="black" points="972,-152.5 972,-171.5 1044,-171.5 1044,-152.5 972,-152.5"/>
<text text-anchor="middle" x="1008" y="-159.5" font-family="Helvetica,sans-Serif" font-size="10.00">luaD_poscall</text>
</a>
</g>
</g>
<!-- Node128&#45;&gt;Node54 -->
<g id="edge24" class="edge"><title>Node128&#45;&gt;Node54</title>
<path fill="none" stroke="midnightblue" d="M410.417,-494.448C415.44,-491.744 420.604,-488.555 425,-485 497.739,-426.169 610.25,-201.616 695,-162 782.155,-121.26 898.557,-137.05 961.67,-150.541"/>
<polygon fill="midnightblue" stroke="midnightblue" points="961.181,-154.017 971.701,-152.762 962.695,-147.183 961.181,-154.017"/>
</g>
<!-- Node50 -->
<g id="node24" class="node"><title>Node50</title>
<g id="a_node24"><a xlink:href="ldo_8c.html#a457e0f1c2e2f960d4132af6899f52488" target="_top" xlink:title=" ">
<polygon fill="white" stroke="black" points="835,-57.5 835,-76.5 905,-76.5 905,-57.5 835,-57.5"/>
<text text-anchor="middle" x="870" y="-64.5" font-family="Helvetica,sans-Serif" font-size="10.00">luaD_precall</text>
</a>
</g>
</g>
<!-- Node128&#45;&gt;Node50 -->
<g id="edge27" class="edge"><title>Node128&#45;&gt;Node50</title>
<path fill="none" stroke="midnightblue" d="M412.575,-495.868C417.405,-493.141 421.942,-489.586 425,-485 473.78,-411.853 397.833,-152.155 461,-91 561.22,6.02774 748.123,-31.8134 829.473,-54.6018"/>
<polygon fill="midnightblue" stroke="midnightblue" points="828.739,-58.0324 839.316,-57.4314 830.673,-51.3048 828.739,-58.0324"/>
</g>
<!-- Node58 -->
<g id="node28" class="node"><title>Node58</title>
<g id="a_node28"><a xlink:href="lvm_8c.html#ac2f06b04f1a3f67775bbccfe589ecb74" target="_top" xlink:title=" ">
<polygon fill="white" stroke="red" points="582.5,-418.5 582.5,-437.5 658.5,-437.5 658.5,-418.5 582.5,-418.5"/>
<text text-anchor="middle" x="620.5" y="-425.5" font-family="Helvetica,sans-Serif" font-size="10.00">luaV_execute</text>
</a>
</g>
</g>
<!-- Node128&#45;&gt;Node58 -->
<g id="edge35" class="edge"><title>Node128&#45;&gt;Node58</title>
<path fill="none" stroke="midnightblue" d="M412.799,-496.153C452.532,-483.052 532.737,-456.607 580.719,-440.787"/>
<polygon fill="midnightblue" stroke="midnightblue" points="582.041,-444.036 590.442,-437.581 579.849,-437.388 582.041,-444.036"/>
</g>
<!-- Node128&#45;&gt;Node129 -->
<g id="edge59" class="edge"><title>Node128&#45;&gt;Node129</title>
<path fill="none" stroke="midnightblue" d="M407.997,-513.541C426.166,-522.665 453.784,-536.534 474.478,-546.927"/>
<polygon fill="midnightblue" stroke="midnightblue" points="472.934,-550.068 483.441,-551.428 476.075,-543.813 472.934,-550.068"/>
</g>
<!-- Node53 -->
<g id="node22" class="node"><title>Node53</title>
<g id="a_node22"><a xlink:href="ldo_8c.html#a1307240b4568c46e58a37dff64f4a255" target="_top" xlink:title=" ">
<polygon fill="white" stroke="black" points="1102,-114.5 1102,-133.5 1164,-133.5 1164,-114.5 1102,-114.5"/>
<text text-anchor="middle" x="1133" y="-121.5" font-family="Helvetica,sans-Serif" font-size="10.00">luaD_hook</text>
</a>
</g>
</g>
<!-- Node54&#45;&gt;Node53 -->
<g id="edge25" class="edge"><title>Node54&#45;&gt;Node53</title>
<path fill="none" stroke="midnightblue" d="M1040.04,-152.411C1055.86,-147.522 1075.29,-141.521 1092.2,-136.296"/>
<polygon fill="midnightblue" stroke="midnightblue" points="1093.3,-139.619 1101.82,-133.323 1091.23,-132.931 1093.3,-139.619"/>
</g>
<!-- Node55 -->
<g id="node23" class="node"><title>Node55</title>
<g id="a_node23"><a xlink:href="ldo_8c.html#a1b30fd90005c3dcba41a82e332c7e16a" target="_top" xlink:title=" ">
<polygon fill="white" stroke="black" points="1099,-152.5 1099,-171.5 1167,-171.5 1167,-152.5 1099,-152.5"/>
<text text-anchor="middle" x="1133" y="-159.5" font-family="Helvetica,sans-Serif" font-size="10.00">moveresults</text>
</a>
</g>
</g>
<!-- Node54&#45;&gt;Node55 -->
<g id="edge26" class="edge"><title>Node54&#45;&gt;Node55</title>
<path fill="none" stroke="midnightblue" d="M1044.25,-162C1058.07,-162 1074.07,-162 1088.6,-162"/>
<polygon fill="midnightblue" stroke="midnightblue" points="1088.86,-165.5 1098.86,-162 1088.86,-158.5 1088.86,-165.5"/>
</g>
<!-- Node50&#45;&gt;Node54 -->
<g id="edge32" class="edge"><title>Node50&#45;&gt;Node54</title>
<path fill="none" stroke="midnightblue" d="M881.239,-76.5424C899.646,-93.5807 937.82,-128.357 953,-138 958.935,-141.77 965.562,-145.241 972.085,-148.304"/>
<polygon fill="midnightblue" stroke="midnightblue" points="970.917,-151.615 981.476,-152.486 973.764,-145.22 970.917,-151.615"/>
</g>
<!-- Node50&#45;&gt;Node53 -->
<g id="edge31" class="edge"><title>Node50&#45;&gt;Node53</title>
<path fill="none" stroke="midnightblue" d="M887.345,-76.5371C903.471,-85.465 929.106,-98.391 953,-105 999.467,-117.853 1054.93,-122.115 1091.68,-123.472"/>
<polygon fill="midnightblue" stroke="midnightblue" points="1091.88,-126.98 1101.99,-123.795 1092.1,-119.984 1091.88,-126.98"/>
</g>
<!-- Node50&#45;&gt;Node50 -->
<g id="edge33" class="edge"><title>Node50&#45;&gt;Node50</title>
<path fill="none" stroke="midnightblue" d="M850.271,-76.7571C840.674,-85.5653 847.25,-95 870,-95 884.574,-95 892.511,-91.128 893.809,-86.0292"/>
<polygon fill="midnightblue" stroke="midnightblue" points="896.96,-84.4998 889.729,-76.7571 890.553,-87.3197 896.96,-84.4998"/>
</g>
<!-- Node51 -->
<g id="node25" class="node"><title>Node51</title>
<g id="a_node25"><a xlink:href="ldo_8c.html#a1851ef3d36678d781b30a079c397c300" target="_top" xlink:title=" ">
<polygon fill="white" stroke="black" points="968.5,-76.5 968.5,-95.5 1047.5,-95.5 1047.5,-76.5 968.5,-76.5"/>
<text text-anchor="middle" x="1008" y="-83.5" font-family="Helvetica,sans-Serif" font-size="10.00">adjust_varargs</text>
</a>
</g>
</g>
<!-- Node50&#45;&gt;Node51 -->
<g id="edge28" class="edge"><title>Node50&#45;&gt;Node51</title>
<path fill="none" stroke="midnightblue" d="M905.319,-71.7945C921.369,-74.0368 940.768,-76.747 958.301,-79.1965"/>
<polygon fill="midnightblue" stroke="midnightblue" points="957.981,-82.6856 968.369,-80.603 958.949,-75.753 957.981,-82.6856"/>
</g>
<!-- Node52 -->
<g id="node26" class="node"><title>Node52</title>
<g id="a_node26"><a xlink:href="ldo_8c.html#a357a5e33e4ca8106aba1a348aab9eed2" target="_top" xlink:title=" ">
<polygon fill="white" stroke="black" points="981.5,-0.5 981.5,-19.5 1034.5,-19.5 1034.5,-0.5 981.5,-0.5"/>
<text text-anchor="middle" x="1008" y="-7.5" font-family="Helvetica,sans-Serif" font-size="10.00">callhook</text>
</a>
</g>
</g>
<!-- Node50&#45;&gt;Node52 -->
<g id="edge29" class="edge"><title>Node50&#45;&gt;Node52</title>
<path fill="none" stroke="midnightblue" d="M890.32,-57.4093C906.792,-49.3867 931.197,-37.8639 953,-29 958.981,-26.5683 965.405,-24.1471 971.661,-21.8877"/>
<polygon fill="midnightblue" stroke="midnightblue" points="973.004,-25.1252 981.266,-18.4922 970.671,-18.5254 973.004,-25.1252"/>
</g>
<!-- Node56 -->
<g id="node27" class="node"><title>Node56</title>
<g id="a_node27"><a xlink:href="ldo_8c.html#a47c0dbcf19b5c674e4204a3e69e17608" target="_top" xlink:title=" ">
<polygon fill="white" stroke="red" points="978.5,-38.5 978.5,-57.5 1037.5,-57.5 1037.5,-38.5 978.5,-38.5"/>
<text text-anchor="middle" x="1008" y="-45.5" font-family="Helvetica,sans-Serif" font-size="10.00">tryfuncTM</text>
</a>
</g>
</g>
<!-- Node50&#45;&gt;Node56 -->
<g id="edge34" class="edge"><title>Node50&#45;&gt;Node56</title>
<path fill="none" stroke="midnightblue" d="M905.319,-62.2055C924.483,-59.5281 948.423,-56.1836 968.258,-53.4124"/>
<polygon fill="midnightblue" stroke="midnightblue" points="968.79,-56.8722 978.21,-52.0222 967.822,-49.9395 968.79,-56.8722"/>
</g>
<!-- Node52&#45;&gt;Node53 -->
<g id="edge30" class="edge"><title>Node52&#45;&gt;Node53</title>
<path fill="none" stroke="midnightblue" d="M1034.74,-15.6082C1044.25,-18.5297 1054.71,-22.8235 1063,-29 1090.51,-49.5058 1111.68,-84.1221 1122.95,-105.424"/>
<polygon fill="midnightblue" stroke="midnightblue" points="1119.88,-107.117 1127.54,-114.435 1126.12,-103.936 1119.88,-107.117"/>
</g>
<!-- Node58&#45;&gt;Node10 -->
<g id="edge44" class="edge"><title>Node58&#45;&gt;Node10</title>
<path fill="none" stroke="midnightblue" d="M624.75,-437.747C631.302,-457.427 646.535,-503.331 659,-542 675.302,-592.57 652.144,-624.592 695,-656 738.087,-687.578 804.047,-666.828 841.149,-650.726"/>
<polygon fill="midnightblue" stroke="midnightblue" points="842.696,-653.868 850.368,-646.562 839.814,-647.489 842.696,-653.868"/>
</g>
<!-- Node58&#45;&gt;Node68 -->
<g id="edge43" class="edge"><title>Node58&#45;&gt;Node68</title>
<path fill="none" stroke="midnightblue" d="M624.967,-437.681C631.91,-457.242 647.812,-502.943 659,-542 677.523,-606.663 653.732,-635.883 695,-689 697.628,-692.382 700.869,-695.343 704.399,-697.922"/>
<polygon fill="midnightblue" stroke="midnightblue" points="702.661,-700.962 713.004,-703.261 706.352,-695.014 702.661,-700.962"/>
</g>
<!-- Node58&#45;&gt;Node54 -->
<g id="edge41" class="edge"><title>Node58&#45;&gt;Node54</title>
<path fill="none" stroke="midnightblue" d="M648.194,-418.432C681.929,-405.749 741.125,-381.497 787,-352 870.665,-298.205 955.906,-214.622 990.705,-179.005"/>
<polygon fill="midnightblue" stroke="midnightblue" points="993.262,-181.396 997.712,-171.781 988.238,-176.522 993.262,-181.396"/>
</g>
<!-- Node58&#45;&gt;Node50 -->
<g id="edge42" class="edge"><title>Node58&#45;&gt;Node50</title>
<path fill="none" stroke="midnightblue" d="M621.572,-418.346C622.335,-381.055 629.668,-244.41 695,-162 728.41,-119.857 785.861,-93.7666 825.557,-79.8337"/>
<polygon fill="midnightblue" stroke="midnightblue" points="826.894,-83.0762 835.241,-76.5511 824.647,-76.4467 826.894,-83.0762"/>
</g>
<!-- Node59 -->
<g id="node29" class="node"><title>Node59</title>
<g id="a_node29"><a xlink:href="lvm_8c.html#a5067d82b91193d8a032fdf9170e6eb42" target="_top" xlink:title=" ">
<polygon fill="white" stroke="red" points="718.5,-209.5 718.5,-228.5 763.5,-228.5 763.5,-209.5 718.5,-209.5"/>
<text text-anchor="middle" x="741" y="-216.5" font-family="Helvetica,sans-Serif" font-size="10.00">forlimit</text>
</a>
</g>
</g>
<!-- Node58&#45;&gt;Node59 -->
<g id="edge36" class="edge"><title>Node58&#45;&gt;Node59</title>
<path fill="none" stroke="midnightblue" d="M622.585,-418.296C626.497,-387.698 642.546,-292.073 695,-238 698.912,-233.967 703.813,-230.75 708.929,-228.195"/>
<polygon fill="midnightblue" stroke="midnightblue" points="710.351,-231.393 718.203,-224.28 707.629,-224.944 710.351,-231.393"/>
</g>
<!-- Node67 -->
<g id="node30" class="node"><title>Node67</title>
<g id="a_node30"><a xlink:href="lvm_8c.html#a73d3c508b2a67ebfac739e46d8246ed1" target="_top" xlink:title=" ">
<polygon fill="white" stroke="black" points="710,-437.5 710,-456.5 772,-456.5 772,-437.5 710,-437.5"/>
<text text-anchor="middle" x="741" y="-444.5" font-family="Helvetica,sans-Serif" font-size="10.00">getcached</text>
</a>
</g>
</g>
<!-- Node58&#45;&gt;Node67 -->
<g id="edge37" class="edge"><title>Node58&#45;&gt;Node67</title>
<path fill="none" stroke="midnightblue" d="M658.669,-433.96C671.63,-436.038 686.236,-438.38 699.457,-440.499"/>
<polygon fill="midnightblue" stroke="midnightblue" points="699.278,-444.015 709.706,-442.143 700.386,-437.104 699.278,-444.015"/>
</g>
<!-- Node49 -->
<g id="node31" class="node"><title>Node49</title>
<g id="a_node31"><a xlink:href="ldo_8c.html#a5483fddd87ca999e7d037bf397ab7997" target="_top" xlink:title=" ">
<polygon fill="white" stroke="red" points="713,-171.5 713,-190.5 769,-190.5 769,-171.5 713,-171.5"/>
<text text-anchor="middle" x="741" y="-178.5" font-family="Helvetica,sans-Serif" font-size="10.00">luaD_call</text>
</a>
</g>
</g>
<!-- Node58&#45;&gt;Node49 -->
<g id="edge38" class="edge"><title>Node58&#45;&gt;Node49</title>
<path fill="none" stroke="midnightblue" d="M621.709,-418.453C622.995,-382.737 632.076,-259.697 695,-191 697.556,-188.209 700.588,-185.814 703.853,-183.809"/>
<polygon fill="midnightblue" stroke="midnightblue" points="705.419,-186.94 712.871,-179.41 702.349,-180.649 705.419,-186.94"/>
</g>
<!-- Node69 -->
<g id="node32" class="node"><title>Node69</title>
<g id="a_node32"><a xlink:href="ltable_8c.html#ae273e09d2342a84f5cdfa976c66f28c0" target="_top" xlink:title=" ">
<polygon fill="white" stroke="red" points="708,-323.5 708,-342.5 774,-342.5 774,-323.5 708,-323.5"/>
<text text-anchor="middle" x="741" y="-330.5" font-family="Helvetica,sans-Serif" font-size="10.00">luaH_getstr</text>
</a>
</g>
</g>
<!-- Node58&#45;&gt;Node69 -->
<g id="edge45" class="edge"><title>Node58&#45;&gt;Node69</title>
<path fill="none" stroke="midnightblue" d="M629.829,-418.394C642.756,-403.869 668.89,-375.998 695,-357 699.654,-353.614 704.845,-350.4 710.001,-347.489"/>
<polygon fill="midnightblue" stroke="midnightblue" points="711.958,-350.412 719.121,-342.605 708.653,-344.241 711.958,-350.412"/>
</g>
<!-- Node74 -->
<g id="node33" class="node"><title>Node74</title>
<g id="a_node33"><a xlink:href="ltable_8c.html#a6c97fb2d6a020b0a6f852562fef93d97" target="_top" xlink:title=" ">
<polygon fill="white" stroke="red" points="711.5,-285.5 711.5,-304.5 770.5,-304.5 770.5,-285.5 711.5,-285.5"/>
<text text-anchor="middle" x="741" y="-292.5" font-family="Helvetica,sans-Serif" font-size="10.00">luaH_new</text>
</a>
</g>
</g>
<!-- Node58&#45;&gt;Node74 -->
<g id="edge46" class="edge"><title>Node58&#45;&gt;Node74</title>
<path fill="none" stroke="midnightblue" d="M625.336,-418.371C634.364,-396.836 658.942,-344.298 695,-314 697.252,-312.108 699.72,-310.379 702.304,-308.805"/>
<polygon fill="midnightblue" stroke="midnightblue" points="704.165,-311.781 711.391,-304.034 700.911,-305.584 704.165,-311.781"/>
</g>
<!-- Node77 -->
<g id="node34" class="node"><title>Node77</title>
<g id="a_node34"><a xlink:href="ltable_8c.html#a261bfad2fb15273968f2b07c6cbd803a" target="_top" xlink:title=" ">
<polygon fill="white" stroke="red" points="836,-513.5 836,-532.5 904,-532.5 904,-513.5 836,-513.5"/>
<text text-anchor="middle" x="870" y="-520.5" font-family="Helvetica,sans-Serif" font-size="10.00">luaH_resize</text>
</a>
</g>
</g>
<!-- Node58&#45;&gt;Node77 -->
<g id="edge47" class="edge"><title>Node58&#45;&gt;Node77</title>
<path fill="none" stroke="midnightblue" d="M638.065,-437.54C652.727,-445.746 674.862,-457.56 695,-466 738.68,-484.307 790.455,-500.612 826.106,-511.044"/>
<polygon fill="midnightblue" stroke="midnightblue" points="825.135,-514.406 835.714,-513.827 827.083,-507.683 825.135,-514.406"/>
</g>
<!-- Node91 -->
<g id="node35" class="node"><title>Node91</title>
<g id="a_node35"><a xlink:href="ltable_8c.html#a9eefa8191c63f55cffb6b7b58217467c" target="_top" xlink:title=" ">
<polygon fill="white" stroke="red" points="975.5,-475.5 975.5,-494.5 1040.5,-494.5 1040.5,-475.5 975.5,-475.5"/>
<text text-anchor="middle" x="1008" y="-482.5" font-family="Helvetica,sans-Serif" font-size="10.00">luaH_setint</text>
</a>
</g>
</g>
<!-- Node58&#45;&gt;Node91 -->
<g id="edge53" class="edge"><title>Node58&#45;&gt;Node91</title>
<path fill="none" stroke="midnightblue" d="M658.808,-425.318C692.463,-423.535 743.249,-422.424 787,-428 852.541,-436.353 926.471,-458.167 969.772,-472.258"/>
<polygon fill="midnightblue" stroke="midnightblue" points="968.722,-475.597 979.315,-475.4 970.911,-468.948 968.722,-475.597"/>
</g>
<!-- Node93 -->
<g id="node36" class="node"><title>Node93</title>
<g id="a_node36"><a xlink:href="ltable_8c.html#aeb5ce72fe8d43709093264d6522a27d4" target="_top" xlink:title=" ">
<polygon fill="white" stroke="black" points="696.5,-513.5 696.5,-532.5 785.5,-532.5 785.5,-513.5 696.5,-513.5"/>
<text text-anchor="middle" x="741" y="-520.5" font-family="Helvetica,sans-Serif" font-size="10.00">luaH_resizearray</text>
</a>
</g>
</g>
<!-- Node58&#45;&gt;Node93 -->
<g id="edge51" class="edge"><title>Node58&#45;&gt;Node93</title>
<path fill="none" stroke="midnightblue" d="M629.829,-437.606C642.756,-452.131 668.89,-480.002 695,-499 699.654,-502.386 704.845,-505.6 710.001,-508.511"/>
<polygon fill="midnightblue" stroke="midnightblue" points="708.653,-511.759 719.121,-513.395 711.958,-505.588 708.653,-511.759"/>
</g>
<!-- Node94 -->
<g id="node37" class="node"><title>Node94</title>
<g id="a_node37"><a xlink:href="lobject_8c.html#a343c0628f26c31dfeb37043a67d7cc63" target="_top" xlink:title=" ">
<polygon fill="white" stroke="black" points="708.5,-247.5 708.5,-266.5 773.5,-266.5 773.5,-247.5 708.5,-247.5"/>
<text text-anchor="middle" x="741" y="-254.5" font-family="Helvetica,sans-Serif" font-size="10.00">luaO_fb2int</text>
</a>
</g>
</g>
<!-- Node58&#45;&gt;Node94 -->
<g id="edge54" class="edge"><title>Node58&#45;&gt;Node94</title>
<path fill="none" stroke="midnightblue" d="M623.622,-418.402C629.906,-392.094 650.805,-318.001 695,-276 696.475,-274.598 698.07,-273.292 699.747,-272.076"/>
<polygon fill="midnightblue" stroke="midnightblue" points="701.896,-274.868 708.67,-266.722 698.294,-268.866 701.896,-274.868"/>
</g>
<!-- Node30 -->
<g id="node38" class="node"><title>Node30</title>
<g id="a_node38"><a xlink:href="ltm_8c.html#a2adc638eccb971b8abaf27f60611e913" target="_top" xlink:title=" ">
<polygon fill="white" stroke="red" points="831.5,-589.5 831.5,-608.5 908.5,-608.5 908.5,-589.5 831.5,-589.5"/>
<text text-anchor="middle" x="870" y="-596.5" font-family="Helvetica,sans-Serif" font-size="10.00">luaT_trybinTM</text>
</a>
</g>
</g>
<!-- Node58&#45;&gt;Node30 -->
<g id="edge55" class="edge"><title>Node58&#45;&gt;Node30</title>
<path fill="none" stroke="midnightblue" d="M625.032,-437.52C633.589,-459.295 657.531,-513.079 695,-542 731.917,-570.495 783.666,-585.05 821.123,-592.284"/>
<polygon fill="midnightblue" stroke="midnightblue" points="820.819,-595.787 831.284,-594.136 822.074,-588.9 820.819,-595.787"/>
</g>
<!-- Node28 -->
<g id="node39" class="node"><title>Node28</title>
<g id="a_node39"><a xlink:href="lvm_8c.html#a2f076040af405dcb50d661edd692eca7" target="_top" xlink:title=" ">
<polygon fill="white" stroke="red" points="705.5,-627.5 705.5,-646.5 776.5,-646.5 776.5,-627.5 705.5,-627.5"/>
<text text-anchor="middle" x="741" y="-634.5" font-family="Helvetica,sans-Serif" font-size="10.00">luaV_concat</text>
</a>
</g>
</g>
<!-- Node58&#45;&gt;Node28 -->
<g id="edge56" class="edge"><title>Node58&#45;&gt;Node28</title>
<path fill="none" stroke="midnightblue" d="M624.358,-437.626C634.574,-471.556 670.008,-585.045 695,-613 698.071,-616.434 701.752,-619.464 705.669,-622.112"/>
<polygon fill="midnightblue" stroke="midnightblue" points="704.083,-625.24 714.474,-627.307 707.64,-619.211 704.083,-625.24"/>
</g>
<!-- Node49&#45;&gt;Node50 -->
<g id="edge39" class="edge"><title>Node49&#45;&gt;Node50</title>
<path fill="none" stroke="midnightblue" d="M763.521,-171.413C771.278,-167.48 779.87,-162.544 787,-157 814.639,-135.509 840.839,-104.152 855.892,-84.6925"/>
<polygon fill="midnightblue" stroke="midnightblue" points="858.727,-86.747 861.989,-76.6669 853.153,-82.5124 858.727,-86.747"/>
</g>
<!-- Node49&#45;&gt;Node58 -->
<g id="edge40" class="edge"><title>Node49&#45;&gt;Node58</title>
<path fill="none" stroke="midnightblue" d="M727.257,-190.611C717.193,-194.841 703.477,-199.745 695,-209 641.22,-267.714 626.772,-366.123 622.905,-408.255"/>
<polygon fill="midnightblue" stroke="midnightblue" points="619.406,-408.1 622.086,-418.351 626.383,-408.666 619.406,-408.1"/>
</g>
<!-- Node77&#45;&gt;Node8 -->
<g id="edge49" class="edge"><title>Node77&#45;&gt;Node8</title>
<path fill="none" stroke="midnightblue" d="M879.507,-532.508C901.928,-557.566 962.876,-625.684 991.614,-657.804"/>
<polygon fill="midnightblue" stroke="midnightblue" points="989.219,-660.377 998.496,-665.495 994.436,-655.709 989.219,-660.377"/>
</g>
<!-- Node77&#45;&gt;Node79 -->
<g id="edge48" class="edge"><title>Node77&#45;&gt;Node79</title>
<path fill="none" stroke="midnightblue" d="M880.874,-532.599C891.298,-543.261 907.506,-561.431 917,-580 944.682,-634.143 936.728,-653.408 953,-712 970.473,-774.917 991.666,-849.34 1001.5,-883.764"/>
<polygon fill="midnightblue" stroke="midnightblue" points="998.158,-884.816 1004.27,-893.469 1004.89,-882.892 998.158,-884.816"/>
</g>
<!-- Node77&#45;&gt;Node91 -->
<g id="edge50" class="edge"><title>Node77&#45;&gt;Node91</title>
<path fill="none" stroke="midnightblue" d="M904.269,-513.704C922.836,-508.516 946.126,-502.009 965.834,-496.502"/>
<polygon fill="midnightblue" stroke="midnightblue" points="966.787,-499.87 975.476,-493.808 964.903,-493.128 966.787,-499.87"/>
</g>
<!-- Node93&#45;&gt;Node77 -->
<g id="edge52" class="edge"><title>Node93&#45;&gt;Node77</title>
<path fill="none" stroke="midnightblue" d="M785.706,-523C798.615,-523 812.736,-523 825.623,-523"/>
<polygon fill="midnightblue" stroke="midnightblue" points="825.648,-526.5 835.648,-523 825.648,-519.5 825.648,-526.5"/>
</g>
<!-- Node28&#45;&gt;Node10 -->
<g id="edge57" class="edge"><title>Node28&#45;&gt;Node10</title>
<path fill="none" stroke="midnightblue" d="M776.703,-637C790.666,-637 806.987,-637 821.988,-637"/>
<polygon fill="midnightblue" stroke="midnightblue" points="822.117,-640.5 832.117,-637 822.117,-633.5 822.117,-640.5"/>
</g>
<!-- Node28&#45;&gt;Node30 -->
<g id="edge58" class="edge"><title>Node28&#45;&gt;Node30</title>
<path fill="none" stroke="midnightblue" d="M774.047,-627.411C790.141,-622.596 809.841,-616.701 827.117,-611.532"/>
<polygon fill="midnightblue" stroke="midnightblue" points="828.386,-614.806 836.963,-608.586 826.379,-608.099 828.386,-614.806"/>
</g>
<!-- Node129&#45;&gt;Node58 -->
<g id="edge62" class="edge"><title>Node129&#45;&gt;Node58</title>
<path fill="none" stroke="midnightblue" d="M512.771,-551.435C531.989,-529.209 579.888,-473.812 604.452,-445.403"/>
<polygon fill="midnightblue" stroke="midnightblue" points="607.101,-447.691 610.994,-437.837 601.806,-443.112 607.101,-447.691"/>
</g>
<!-- Node130 -->
<g id="node41" class="node"><title>Node130</title>
<g id="a_node41"><a xlink:href="ldo_8c.html#a03174ea718a42ddef337dfb648ce4996" target="_top" xlink:title=" ">
<polygon fill="white" stroke="black" points="590,-551.5 590,-570.5 651,-570.5 651,-551.5 590,-551.5"/>
<text text-anchor="middle" x="620.5" y="-558.5" font-family="Helvetica,sans-Serif" font-size="10.00">finishCcall</text>
</a>
</g>
</g>
<!-- Node129&#45;&gt;Node130 -->
<g id="edge60" class="edge"><title>Node129&#45;&gt;Node130</title>
<path fill="none" stroke="midnightblue" d="M523.748,-561C538.962,-561 560.715,-561 579.643,-561"/>
<polygon fill="midnightblue" stroke="midnightblue" points="579.809,-564.5 589.809,-561 579.809,-557.5 579.809,-564.5"/>
</g>
<!-- Node131 -->
<g id="node42" class="node"><title>Node131</title>
<g id="a_node42"><a xlink:href="lvm_8c.html#a8ccb90ee001013b54a5005df64c7359d" target="_top" xlink:title=" ">
<polygon fill="white" stroke="black" points="582,-608.5 582,-627.5 659,-627.5 659,-608.5 582,-608.5"/>
<text text-anchor="middle" x="620.5" y="-615.5" font-family="Helvetica,sans-Serif" font-size="10.00">luaV_finishOp</text>
</a>
</g>
</g>
<!-- Node129&#45;&gt;Node131 -->
<g id="edge63" class="edge"><title>Node129&#45;&gt;Node131</title>
<path fill="none" stroke="midnightblue" d="M523.748,-570.541C542.157,-579.665 570.14,-593.534 591.108,-603.927"/>
<polygon fill="midnightblue" stroke="midnightblue" points="589.675,-607.123 600.189,-608.428 592.783,-600.851 589.675,-607.123"/>
</g>
<!-- Node130&#45;&gt;Node54 -->
<g id="edge61" class="edge"><title>Node130&#45;&gt;Node54</title>
<path fill="none" stroke="midnightblue" d="M651.061,-565.132C686.389,-568.486 745.878,-568.951 787,-542 822.09,-519.002 959.52,-254.547 997.327,-180.921"/>
<polygon fill="midnightblue" stroke="midnightblue" points="1000.53,-182.339 1001.98,-171.843 994.304,-179.146 1000.53,-182.339"/>
</g>
<!-- Node131&#45;&gt;Node28 -->
<g id="edge64" class="edge"><title>Node131&#45;&gt;Node28</title>
<path fill="none" stroke="midnightblue" d="M659.32,-624.064C670.741,-625.895 683.389,-627.923 695.218,-629.82"/>
<polygon fill="midnightblue" stroke="midnightblue" points="694.922,-633.317 705.35,-631.444 696.031,-626.405 694.922,-633.317"/>
</g>
<!-- Node35 -->
<g id="node44" class="node"><title>Node35</title>
<g id="a_node44"><a xlink:href="lstring_8c.html#a6d47e53be6b8e58202bb927752f4824b" target="_top" xlink:title=" ">
<polygon fill="white" stroke="red" points="474,-855.5 474,-874.5 533,-874.5 533,-855.5 474,-855.5"/>
<text text-anchor="middle" x="503.5" y="-862.5" font-family="Helvetica,sans-Serif" font-size="10.00">luaS_new</text>
</a>
</g>
</g>
<!-- Node132&#45;&gt;Node35 -->
<g id="edge66" class="edge"><title>Node132&#45;&gt;Node35</title>
<path fill="none" stroke="midnightblue" d="M425.224,-865C437.49,-865 451.234,-865 463.692,-865"/>
<polygon fill="midnightblue" stroke="midnightblue" points="463.794,-868.5 473.794,-865 463.794,-861.5 463.794,-868.5"/>
</g>
<!-- Node136 -->
<g id="node48" class="node"><title>Node136</title>
<g id="a_node48"><a xlink:href="lapi_8c.html#ad1dcea410edb5c5595fc070f8bf2e9a0" target="_top" xlink:title=" ">
<polygon fill="white" stroke="black" points="245,-608.5 245,-627.5 315,-627.5 315,-608.5 245,-608.5"/>
<text text-anchor="middle" x="280" y="-615.5" font-family="Helvetica,sans-Serif" font-size="10.00">lua_tothread</text>
</a>
</g>
</g>
<!-- Node135&#45;&gt;Node136 -->
<g id="edge72" class="edge"><title>Node135&#45;&gt;Node136</title>
<path fill="none" stroke="midnightblue" d="M185.392,-841.192C193.664,-838.297 202.769,-833.809 209,-827 259.659,-771.64 273.782,-678.453 277.617,-637.878"/>
<polygon fill="midnightblue" stroke="midnightblue" points="281.123,-637.95 278.462,-627.695 274.147,-637.371 281.123,-637.95"/>
</g>
<!-- Node137 -->
<g id="node49" class="node"><title>Node137</title>
<g id="a_node49"><a xlink:href="lapi_8c.html#ae54b9bb381b32c86235a084984e40215" target="_top" xlink:title=" ">
<polygon fill="white" stroke="black" points="356,-456.5 356,-475.5 420,-475.5 420,-456.5 356,-456.5"/>
<text text-anchor="middle" x="388" y="-463.5" font-family="Helvetica,sans-Serif" font-size="10.00">index2addr</text>
</a>
</g>
</g>
<!-- Node136&#45;&gt;Node137 -->
<g id="edge73" class="edge"><title>Node136&#45;&gt;Node137</title>
<path fill="none" stroke="midnightblue" d="M283.835,-608.428C291.267,-584.756 313.382,-522.661 351,-485 352.386,-483.612 353.894,-482.303 355.483,-481.07"/>
<polygon fill="midnightblue" stroke="midnightblue" points="357.455,-483.962 363.889,-475.545 353.61,-478.112 357.455,-483.962"/>
</g>
</g>
</svg>
