<?xml version="1.0" encoding="UTF-8" standalone="no"?>
<!DOCTYPE svg PUBLIC "-//W3C//DTD SVG 1.1//EN"
 "http://www.w3.org/Graphics/SVG/1.1/DTD/svg11.dtd">
<!-- Generated by graphviz version 2.38.0 (20140413.2041)
 -->
<!-- Title: checkstack Pages: 1 -->
<svg width="178pt" height="180pt"
 viewBox="0.00 0.00 178.00 180.00" xmlns="http://www.w3.org/2000/svg" xmlns:xlink="http://www.w3.org/1999/xlink">
<g id="graph0" class="graph" transform="scale(1 1) rotate(0) translate(4 176)">
<title>checkstack</title>
<polygon fill="white" stroke="none" points="-4,4 -4,-176 174,-176 174,4 -4,4"/>
<!-- Node1 -->
<g id="node1" class="node"><title>Node1</title>
<g id="a_node1"><a xlink:title=" ">
<polygon fill="#bfbfbf" stroke="black" points="103,-76.5 103,-95.5 170,-95.5 170,-76.5 103,-76.5"/>
<text text-anchor="middle" x="136.5" y="-83.5" font-family="Helvetica,sans-Serif" font-size="10.00">checkstack</text>
</a>
</g>
</g>
<!-- Node2 -->
<g id="node2" class="node"><title>Node2</title>
<g id="a_node2"><a xlink:href="ldblib_8c.html#a6a624ae8d8ff673e72a317b280ed008d" target="_top" xlink:title=" ">
<polygon fill="white" stroke="black" points="0,-152.5 0,-171.5 67,-171.5 67,-152.5 0,-152.5"/>
<text text-anchor="middle" x="33.5" y="-159.5" font-family="Helvetica,sans-Serif" font-size="10.00">db_gethook</text>
</a>
</g>
</g>
<!-- Node1&#45;&gt;Node2 -->
<g id="edge1" class="edge"><title>Node1&#45;&gt;Node2</title>
<path fill="none" stroke="midnightblue" d="M117.2,-102.646C103.768,-114.506 84.8332,-130.495 67,-143 62.2908,-146.302 56.9788,-149.579 52.035,-152.458"/>
<polygon fill="midnightblue" stroke="midnightblue" points="119.667,-105.136 124.793,-95.8639 115.004,-99.9155 119.667,-105.136"/>
</g>
<!-- Node3 -->
<g id="node3" class="node"><title>Node3</title>
<g id="a_node3"><a xlink:href="ldblib_8c.html#a4eb57e66c2efb2d31c9b9e1b01d27e13" target="_top" xlink:title=" ">
<polygon fill="white" stroke="black" points="3,-114.5 3,-133.5 64,-133.5 64,-114.5 3,-114.5"/>
<text text-anchor="middle" x="33.5" y="-121.5" font-family="Helvetica,sans-Serif" font-size="10.00">db_getinfo</text>
</a>
</g>
</g>
<!-- Node1&#45;&gt;Node3 -->
<g id="edge2" class="edge"><title>Node1&#45;&gt;Node3</title>
<path fill="none" stroke="midnightblue" d="M100.634,-99.118C87.2753,-104.144 72.2977,-109.779 59.9784,-114.414"/>
<polygon fill="midnightblue" stroke="midnightblue" points="101.886,-102.386 110.013,-95.589 99.4214,-95.8346 101.886,-102.386"/>
</g>
<!-- Node4 -->
<g id="node4" class="node"><title>Node4</title>
<g id="a_node4"><a xlink:href="ldblib_8c.html#ae802ce7397e9ebb08a90b69976578ecc" target="_top" xlink:title=" ">
<polygon fill="white" stroke="black" points="0.5,-76.5 0.5,-95.5 66.5,-95.5 66.5,-76.5 0.5,-76.5"/>
<text text-anchor="middle" x="33.5" y="-83.5" font-family="Helvetica,sans-Serif" font-size="10.00">db_getlocal</text>
</a>
</g>
</g>
<!-- Node1&#45;&gt;Node4 -->
<g id="edge3" class="edge"><title>Node1&#45;&gt;Node4</title>
<path fill="none" stroke="midnightblue" d="M92.876,-86C84.0786,-86 74.9543,-86 66.6067,-86"/>
<polygon fill="midnightblue" stroke="midnightblue" points="92.987,-89.5001 102.987,-86 92.987,-82.5001 92.987,-89.5001"/>
</g>
<!-- Node5 -->
<g id="node5" class="node"><title>Node5</title>
<g id="a_node5"><a xlink:href="ldblib_8c.html#aa0c362d361f8f9bd8a002c34c393e2b0" target="_top" xlink:title=" ">
<polygon fill="white" stroke="black" points="0,-38.5 0,-57.5 67,-57.5 67,-38.5 0,-38.5"/>
<text text-anchor="middle" x="33.5" y="-45.5" font-family="Helvetica,sans-Serif" font-size="10.00">db_sethook</text>
</a>
</g>
</g>
<!-- Node1&#45;&gt;Node5 -->
<g id="edge4" class="edge"><title>Node1&#45;&gt;Node5</title>
<path fill="none" stroke="midnightblue" d="M100.634,-72.882C87.2753,-67.8561 72.2977,-62.2209 59.9784,-57.5859"/>
<polygon fill="midnightblue" stroke="midnightblue" points="99.4214,-76.1654 110.013,-76.411 101.886,-69.6137 99.4214,-76.1654"/>
</g>
<!-- Node6 -->
<g id="node6" class="node"><title>Node6</title>
<g id="a_node6"><a xlink:href="ldblib_8c.html#a11cfe90e96e7ea907a767f5109f7ef4b" target="_top" xlink:title=" ">
<polygon fill="white" stroke="black" points="0.5,-0.5 0.5,-19.5 66.5,-19.5 66.5,-0.5 0.5,-0.5"/>
<text text-anchor="middle" x="33.5" y="-7.5" font-family="Helvetica,sans-Serif" font-size="10.00">db_setlocal</text>
</a>
</g>
</g>
<!-- Node1&#45;&gt;Node6 -->
<g id="edge5" class="edge"><title>Node1&#45;&gt;Node6</title>
<path fill="none" stroke="midnightblue" d="M117.2,-69.3535C103.768,-57.4938 84.8332,-41.5045 67,-29 62.2908,-25.6979 56.9788,-22.4209 52.035,-19.5419"/>
<polygon fill="midnightblue" stroke="midnightblue" points="115.004,-72.0845 124.793,-76.1361 119.667,-66.864 115.004,-72.0845"/>
</g>
</g>
</svg>
