<?xml version="1.0" encoding="UTF-8" standalone="no"?>
<!DOCTYPE svg PUBLIC "-//W3C//DTD SVG 1.1//EN"
 "http://www.w3.org/Graphics/SVG/1.1/DTD/svg11.dtd">
<!-- Generated by graphviz version 2.38.0 (20140413.2041)
 -->
<!-- Title: db_gethook Pages: 1 -->
<svg width="1081pt" height="674pt"
 viewBox="0.00 0.00 1081.00 674.00" xmlns="http://www.w3.org/2000/svg" xmlns:xlink="http://www.w3.org/1999/xlink">
<g id="graph0" class="graph" transform="scale(1 1) rotate(0) translate(4 670)">
<title>db_gethook</title>
<polygon fill="white" stroke="none" points="-4,4 -4,-670 1077,-670 1077,4 -4,4"/>
<!-- Node1 -->
<g id="node1" class="node"><title>Node1</title>
<g id="a_node1"><a xlink:title=" ">
<polygon fill="#bfbfbf" stroke="black" points="0,-247.5 0,-266.5 67,-266.5 67,-247.5 0,-247.5"/>
<text text-anchor="middle" x="33.5" y="-254.5" font-family="Helvetica,sans-Serif" font-size="10.00">db_gethook</text>
</a>
</g>
</g>
<!-- Node2 -->
<g id="node2" class="node"><title>Node2</title>
<g id="a_node2"><a xlink:href="ldblib_8c.html#aef541490d49259cf4cb14e7f9597600e" target="_top" xlink:title=" ">
<polygon fill="white" stroke="black" points="116,-494.5 116,-513.5 183,-513.5 183,-494.5 116,-494.5"/>
<text text-anchor="middle" x="149.5" y="-501.5" font-family="Helvetica,sans-Serif" font-size="10.00">checkstack</text>
</a>
</g>
</g>
<!-- Node1&#45;&gt;Node2 -->
<g id="edge1" class="edge"><title>Node1&#45;&gt;Node2</title>
<path fill="none" stroke="midnightblue" d="M34.9075,-266.697C36.7961,-300.189 47.1989,-412.626 103,-480 105.898,-483.499 109.441,-486.556 113.259,-489.207"/>
<polygon fill="midnightblue" stroke="midnightblue" points="111.531,-492.251 121.91,-494.378 115.122,-486.243 111.531,-492.251"/>
</g>
<!-- Node134 -->
<g id="node31" class="node"><title>Node134</title>
<g id="a_node31"><a xlink:href="ldblib_8c.html#a75169427eed495886306b6236f365512" target="_top" xlink:title=" ">
<polygon fill="white" stroke="black" points="121,-190.5 121,-209.5 178,-209.5 178,-190.5 121,-190.5"/>
<text text-anchor="middle" x="149.5" y="-197.5" font-family="Helvetica,sans-Serif" font-size="10.00">getthread</text>
</a>
</g>
</g>
<!-- Node1&#45;&gt;Node134 -->
<g id="edge34" class="edge"><title>Node1&#45;&gt;Node134</title>
<path fill="none" stroke="midnightblue" d="M53.581,-247.459C71.8299,-238.335 99.5689,-224.466 120.355,-214.073"/>
<polygon fill="midnightblue" stroke="midnightblue" points="121.978,-217.174 129.357,-209.572 118.847,-210.913 121.978,-217.174"/>
</g>
<!-- Node137 -->
<g id="node34" class="node"><title>Node137</title>
<g id="a_node34"><a xlink:href="ldblib_8c.html#a5caaa985f31fc5cbd014f831833205e7" target="_top" xlink:title=" ">
<polygon fill="white" stroke="black" points="129.5,-342.5 129.5,-361.5 169.5,-361.5 169.5,-342.5 129.5,-342.5"/>
<text text-anchor="middle" x="149.5" y="-349.5" font-family="Helvetica,sans-Serif" font-size="10.00">hookf</text>
</a>
</g>
</g>
<!-- Node1&#45;&gt;Node137 -->
<g id="edge37" class="edge"><title>Node1&#45;&gt;Node137</title>
<path fill="none" stroke="midnightblue" d="M42.1146,-266.674C53.9696,-281.289 78.0775,-309.275 103,-328 108.248,-331.943 114.233,-335.6 120.1,-338.811"/>
<polygon fill="midnightblue" stroke="midnightblue" points="118.607,-341.979 129.097,-343.465 121.823,-335.762 118.607,-341.979"/>
</g>
<!-- Node138 -->
<g id="node35" class="node"><title>Node138</title>
<g id="a_node35"><a xlink:href="lapi_8c.html#adcec46ff05dfee9a3c4c05828b40c213" target="_top" xlink:title=" ">
<polygon fill="white" stroke="black" points="232,-418.5 232,-437.5 317,-437.5 317,-418.5 232,-418.5"/>
<text text-anchor="middle" x="274.5" y="-425.5" font-family="Helvetica,sans-Serif" font-size="10.00">lua_pushinteger</text>
</a>
</g>
</g>
<!-- Node1&#45;&gt;Node138 -->
<g id="edge58" class="edge"><title>Node1&#45;&gt;Node138</title>
<path fill="none" stroke="midnightblue" d="M36.159,-266.709C41.1149,-292.526 58.3354,-363.2 103,-397 136.736,-422.529 184.854,-429.366 221.375,-430.343"/>
<polygon fill="midnightblue" stroke="midnightblue" points="221.783,-433.848 231.826,-430.473 221.871,-426.848 221.783,-433.848"/>
</g>
<!-- Node139 -->
<g id="node36" class="node"><title>Node139</title>
<g id="a_node36"><a xlink:href="lapi_8c.html#a1b4cd0d80f51e5545a97ca6c28c03c50" target="_top" xlink:title=" ">
<polygon fill="white" stroke="black" points="242,-380.5 242,-399.5 307,-399.5 307,-380.5 242,-380.5"/>
<text text-anchor="middle" x="274.5" y="-387.5" font-family="Helvetica,sans-Serif" font-size="10.00">lua_pushnil</text>
</a>
</g>
</g>
<!-- Node1&#45;&gt;Node139 -->
<g id="edge59" class="edge"><title>Node1&#45;&gt;Node139</title>
<path fill="none" stroke="midnightblue" d="M37.1174,-266.716C43.7884,-289.397 63.7415,-345.817 103,-371 141.333,-395.589 194.701,-397.583 231.468,-395.201"/>
<polygon fill="midnightblue" stroke="midnightblue" points="232.145,-398.659 241.84,-394.385 231.596,-391.68 232.145,-398.659"/>
</g>
<!-- Node140 -->
<g id="node37" class="node"><title>Node140</title>
<g id="a_node37"><a xlink:href="lapi_8c.html#a771d300f2e64b2197d1df9bf31660ebf" target="_top" xlink:title=" ">
<polygon fill="white" stroke="black" points="234.5,-513.5 234.5,-532.5 314.5,-532.5 314.5,-513.5 234.5,-513.5"/>
<text text-anchor="middle" x="274.5" y="-520.5" font-family="Helvetica,sans-Serif" font-size="10.00">lua_pushstring</text>
</a>
</g>
</g>
<!-- Node1&#45;&gt;Node140 -->
<g id="edge60" class="edge"><title>Node1&#45;&gt;Node140</title>
<path fill="none" stroke="midnightblue" d="M36.162,-266.509C41.4037,-294.097 59.8645,-375.41 103,-426 113.868,-438.746 217.194,-496.168 232,-504 235.275,-505.732 238.737,-507.466 242.21,-509.142"/>
<polygon fill="midnightblue" stroke="midnightblue" points="240.764,-512.329 251.304,-513.405 243.735,-505.991 240.764,-512.329"/>
</g>
<!-- Node141 -->
<g id="node39" class="node"><title>Node141</title>
<g id="a_node39"><a xlink:href="lapi_8c.html#a4175aeea9aa6dbf096ecfca7b190fa4a" target="_top" xlink:title=" ">
<polygon fill="white" stroke="black" points="233,-304.5 233,-323.5 316,-323.5 316,-304.5 233,-304.5"/>
<text text-anchor="middle" x="274.5" y="-311.5" font-family="Helvetica,sans-Serif" font-size="10.00">lua_pushthread</text>
</a>
</g>
</g>
<!-- Node1&#45;&gt;Node141 -->
<g id="edge61" class="edge"><title>Node1&#45;&gt;Node141</title>
<path fill="none" stroke="midnightblue" d="M60.2859,-266.523C73.0249,-271.005 88.6961,-276.189 103,-280 142.78,-290.599 188.569,-299.555 222.672,-305.61"/>
<polygon fill="midnightblue" stroke="midnightblue" points="222.407,-309.117 232.861,-307.395 223.615,-302.222 222.407,-309.117"/>
</g>
<!-- Node142 -->
<g id="node40" class="node"><title>Node142</title>
<g id="a_node40"><a xlink:href="lapi_8c.html#a52944e714d1c64bda7b83f511c14b2d3" target="_top" xlink:title=" ">
<polygon fill="white" stroke="black" points="243,-266.5 243,-285.5 306,-285.5 306,-266.5 243,-266.5"/>
<text text-anchor="middle" x="274.5" y="-273.5" font-family="Helvetica,sans-Serif" font-size="10.00">lua_rawget</text>
</a>
</g>
</g>
<!-- Node1&#45;&gt;Node142 -->
<g id="edge62" class="edge"><title>Node1&#45;&gt;Node142</title>
<path fill="none" stroke="midnightblue" d="M67.2308,-259.602C110.256,-263.022 185.841,-269.031 232.592,-272.748"/>
<polygon fill="midnightblue" stroke="midnightblue" points="232.432,-276.246 242.677,-273.55 232.986,-269.268 232.432,-276.246"/>
</g>
<!-- Node143 -->
<g id="node45" class="node"><title>Node143</title>
<g id="a_node45"><a xlink:href="lapi_8c.html#acf10870c7165e0e440eb14827a52de93" target="_top" xlink:title=" ">
<polygon fill="white" stroke="black" points="240.5,-228.5 240.5,-247.5 308.5,-247.5 308.5,-228.5 240.5,-228.5"/>
<text text-anchor="middle" x="274.5" y="-235.5" font-family="Helvetica,sans-Serif" font-size="10.00">lua_rawgetp</text>
</a>
</g>
</g>
<!-- Node1&#45;&gt;Node143 -->
<g id="edge63" class="edge"><title>Node1&#45;&gt;Node143</title>
<path fill="none" stroke="midnightblue" d="M67.2308,-254.398C109.543,-251.034 183.344,-245.167 230.243,-241.439"/>
<polygon fill="midnightblue" stroke="midnightblue" points="230.706,-244.913 240.398,-240.632 230.152,-237.935 230.706,-244.913"/>
</g>
<!-- Node144 -->
<g id="node46" class="node"><title>Node144</title>
<g id="a_node46"><a xlink:href="ldebug_8c.html#a44b9923035977dcfa57279761f7379b4" target="_top" xlink:title=" ">
<polygon fill="white" stroke="black" points="115,-152.5 115,-171.5 184,-171.5 184,-152.5 115,-152.5"/>
<text text-anchor="middle" x="149.5" y="-159.5" font-family="Helvetica,sans-Serif" font-size="10.00">lua_gethook</text>
</a>
</g>
</g>
<!-- Node1&#45;&gt;Node144 -->
<g id="edge55" class="edge"><title>Node1&#45;&gt;Node144</title>
<path fill="none" stroke="midnightblue" d="M41.0171,-247.345C52.0964,-231.565 76.0415,-200.1 103,-181 105.504,-179.226 108.198,-177.577 110.981,-176.051"/>
<polygon fill="midnightblue" stroke="midnightblue" points="112.61,-179.15 120.045,-171.602 109.526,-172.867 112.61,-179.15"/>
</g>
<!-- Node145 -->
<g id="node47" class="node"><title>Node145</title>
<g id="a_node47"><a xlink:href="ldebug_8c.html#a18f065f752cfa08eefd338b4cbd7254b" target="_top" xlink:title=" ">
<polygon fill="white" stroke="black" points="103,-114.5 103,-133.5 196,-133.5 196,-114.5 103,-114.5"/>
<text text-anchor="middle" x="149.5" y="-121.5" font-family="Helvetica,sans-Serif" font-size="10.00">lua_gethookcount</text>
</a>
</g>
</g>
<!-- Node1&#45;&gt;Node145 -->
<g id="edge56" class="edge"><title>Node1&#45;&gt;Node145</title>
<path fill="none" stroke="midnightblue" d="M37.8835,-247.356C45.9043,-225.79 68.0591,-173.194 103,-143 104.927,-141.335 107.02,-139.8 109.216,-138.388"/>
<polygon fill="midnightblue" stroke="midnightblue" points="110.973,-141.416 118.051,-133.533 107.602,-135.281 110.973,-141.416"/>
</g>
<!-- Node146 -->
<g id="node48" class="node"><title>Node146</title>
<g id="a_node48"><a xlink:href="ldebug_8c.html#a0b41dd9ab46652c8433b861f679fadb8" target="_top" xlink:title=" ">
<polygon fill="white" stroke="black" points="103,-76.5 103,-95.5 196,-95.5 196,-76.5 103,-76.5"/>
<text text-anchor="middle" x="149.5" y="-83.5" font-family="Helvetica,sans-Serif" font-size="10.00">lua_gethookmask</text>
</a>
</g>
</g>
<!-- Node1&#45;&gt;Node146 -->
<g id="edge57" class="edge"><title>Node1&#45;&gt;Node146</title>
<path fill="none" stroke="midnightblue" d="M36.2695,-247.4C41.5944,-221.084 59.8403,-146.975 103,-105 104.473,-103.568 106.069,-102.237 107.754,-101.001"/>
<polygon fill="midnightblue" stroke="midnightblue" points="109.98,-103.746 116.737,-95.5855 106.366,-97.7509 109.98,-103.746"/>
</g>
<!-- Node147 -->
<g id="node49" class="node"><title>Node147</title>
<g id="a_node49"><a xlink:href="lapi_8c.html#ae27bb8d0218710bbbfefc1f573839d6d" target="_top" xlink:title=" ">
<polygon fill="white" stroke="black" points="118.5,-38.5 118.5,-57.5 180.5,-57.5 180.5,-38.5 118.5,-38.5"/>
<text text-anchor="middle" x="149.5" y="-45.5" font-family="Helvetica,sans-Serif" font-size="10.00">lua_xmove</text>
</a>
</g>
</g>
<!-- Node1&#45;&gt;Node147 -->
<g id="edge64" class="edge"><title>Node1&#45;&gt;Node147</title>
<path fill="none" stroke="midnightblue" d="M35.2907,-247.298C38.2826,-216.708 51.5127,-121.104 103,-67 104.859,-65.0466 106.949,-63.2863 109.186,-61.7011"/>
<polygon fill="midnightblue" stroke="midnightblue" points="111.44,-64.4417 118.358,-56.417 107.946,-58.3763 111.44,-64.4417"/>
</g>
<!-- Node148 -->
<g id="node50" class="node"><title>Node148</title>
<g id="a_node50"><a xlink:href="ldblib_8c.html#aa21335f2f9cd444bde1f824b7bcc5659" target="_top" xlink:title=" ">
<polygon fill="white" stroke="black" points="112,-0.5 112,-19.5 187,-19.5 187,-0.5 112,-0.5"/>
<text text-anchor="middle" x="149.5" y="-7.5" font-family="Helvetica,sans-Serif" font-size="10.00">unmakemask</text>
</a>
</g>
</g>
<!-- Node1&#45;&gt;Node148 -->
<g id="edge65" class="edge"><title>Node1&#45;&gt;Node148</title>
<path fill="none" stroke="midnightblue" d="M34.6042,-247.376C35.4857,-213.122 42.953,-95.6215 103,-29 104.182,-27.6885 105.469,-26.465 106.836,-25.3239"/>
<polygon fill="midnightblue" stroke="midnightblue" points="108.983,-28.0995 115.374,-19.6489 105.108,-22.2698 108.983,-28.0995"/>
</g>
<!-- Node3 -->
<g id="node3" class="node"><title>Node3</title>
<g id="a_node3"><a xlink:href="lapi_8c.html#a1d762b92d5d82d6fa9f54ccf5c89d6a2" target="_top" xlink:title=" ">
<polygon fill="white" stroke="black" points="232,-608.5 232,-627.5 317,-627.5 317,-608.5 232,-608.5"/>
<text text-anchor="middle" x="274.5" y="-615.5" font-family="Helvetica,sans-Serif" font-size="10.00">lua_checkstack</text>
</a>
</g>
</g>
<!-- Node2&#45;&gt;Node3 -->
<g id="edge2" class="edge"><title>Node2&#45;&gt;Node3</title>
<path fill="none" stroke="midnightblue" d="M160.987,-513.72C181.956,-533.154 229.275,-577.011 255.372,-601.199"/>
<polygon fill="midnightblue" stroke="midnightblue" points="253.326,-604.074 263.04,-608.305 258.084,-598.94 253.326,-604.074"/>
</g>
<!-- Node120 -->
<g id="node7" class="node"><title>Node120</title>
<g id="a_node7"><a xlink:href="lauxlib_8c.html#a6c51d83d29244779392551388913e08a" target="_top" xlink:title=" ">
<polygon fill="white" stroke="black" points="245,-475.5 245,-494.5 304,-494.5 304,-475.5 245,-475.5"/>
<text text-anchor="middle" x="274.5" y="-482.5" font-family="Helvetica,sans-Serif" font-size="10.00">luaL_error</text>
</a>
</g>
</g>
<!-- Node2&#45;&gt;Node120 -->
<g id="edge6" class="edge"><title>Node2&#45;&gt;Node120</title>
<path fill="none" stroke="midnightblue" d="M183.139,-498.958C199.052,-496.5 218.3,-493.527 234.934,-490.957"/>
<polygon fill="midnightblue" stroke="midnightblue" points="235.552,-494.403 244.901,-489.418 234.484,-487.485 235.552,-494.403"/>
</g>
<!-- Node4 -->
<g id="node4" class="node"><title>Node4</title>
<g id="a_node4"><a xlink:href="lapi_8c.html#ab3a8303d450a61e55f7928da1fe14302" target="_top" xlink:title=" ">
<polygon fill="white" stroke="black" points="377.5,-646.5 377.5,-665.5 438.5,-665.5 438.5,-646.5 377.5,-646.5"/>
<text text-anchor="middle" x="408" y="-653.5" font-family="Helvetica,sans-Serif" font-size="10.00">growstack</text>
</a>
</g>
</g>
<!-- Node3&#45;&gt;Node4 -->
<g id="edge3" class="edge"><title>Node3&#45;&gt;Node4</title>
<path fill="none" stroke="midnightblue" d="M308.683,-627.589C326.612,-632.77 348.864,-639.2 367.662,-644.632"/>
<polygon fill="midnightblue" stroke="midnightblue" points="366.839,-648.038 377.417,-647.451 368.782,-641.313 366.839,-648.038"/>
</g>
<!-- Node79 -->
<g id="node6" class="node"><title>Node79</title>
<g id="a_node6"><a xlink:href="ldo_8c.html#ab0872b1738a995ecbf1cdc8a9bc0fdf6" target="_top" xlink:title=" ">
<polygon fill="white" stroke="black" points="353,-608.5 353,-627.5 463,-627.5 463,-608.5 353,-608.5"/>
<text text-anchor="middle" x="408" y="-615.5" font-family="Helvetica,sans-Serif" font-size="10.00">luaD_rawrunprotected</text>
</a>
</g>
</g>
<!-- Node3&#45;&gt;Node79 -->
<g id="edge5" class="edge"><title>Node3&#45;&gt;Node79</title>
<path fill="none" stroke="midnightblue" d="M317.107,-618C325.22,-618 333.902,-618 342.553,-618"/>
<polygon fill="midnightblue" stroke="midnightblue" points="342.66,-621.5 352.66,-618 342.66,-614.5 342.66,-621.5"/>
</g>
<!-- Node5 -->
<g id="node5" class="node"><title>Node5</title>
<g id="a_node5"><a xlink:href="ldo_8c.html#a7dafde5820970358b662483594666cdb" target="_top" xlink:title=" ">
<polygon fill="white" stroke="red" points="500,-646.5 500,-665.5 586,-665.5 586,-646.5 500,-646.5"/>
<text text-anchor="middle" x="543" y="-653.5" font-family="Helvetica,sans-Serif" font-size="10.00">luaD_growstack</text>
</a>
</g>
</g>
<!-- Node4&#45;&gt;Node5 -->
<g id="edge4" class="edge"><title>Node4&#45;&gt;Node5</title>
<path fill="none" stroke="midnightblue" d="M438.517,-656C453.615,-656 472.442,-656 489.882,-656"/>
<polygon fill="midnightblue" stroke="midnightblue" points="489.952,-659.5 499.952,-656 489.952,-652.5 489.952,-659.5"/>
</g>
<!-- Node121 -->
<g id="node8" class="node"><title>Node121</title>
<g id="a_node8"><a xlink:href="lapi_8c.html#a1de3afee1daece63d455f23818c883d9" target="_top" xlink:title=" ">
<polygon fill="white" stroke="black" points="637.5,-494.5 637.5,-513.5 701.5,-513.5 701.5,-494.5 637.5,-494.5"/>
<text text-anchor="middle" x="669.5" y="-501.5" font-family="Helvetica,sans-Serif" font-size="10.00">lua_concat</text>
</a>
</g>
</g>
<!-- Node120&#45;&gt;Node121 -->
<g id="edge7" class="edge"><title>Node120&#45;&gt;Node121</title>
<path fill="none" stroke="midnightblue" d="M304.08,-486.382C372.712,-489.7 547.053,-498.128 627.132,-502"/>
<polygon fill="midnightblue" stroke="midnightblue" points="627.172,-505.506 637.33,-502.493 627.51,-498.514 627.172,-505.506"/>
</g>
<!-- Node122 -->
<g id="node14" class="node"><title>Node122</title>
<g id="a_node14"><a xlink:href="lapi_8c.html#a6ba7b91143fe8a03910420d800de8e97" target="_top" xlink:title=" ">
<polygon fill="white" stroke="black" points="381,-532.5 381,-551.5 435,-551.5 435,-532.5 381,-532.5"/>
<text text-anchor="middle" x="408" y="-539.5" font-family="Helvetica,sans-Serif" font-size="10.00">lua_error</text>
</a>
</g>
</g>
<!-- Node120&#45;&gt;Node122 -->
<g id="edge15" class="edge"><title>Node120&#45;&gt;Node122</title>
<path fill="none" stroke="midnightblue" d="M297.51,-494.541C318.845,-503.788 351.424,-517.91 375.502,-528.347"/>
<polygon fill="midnightblue" stroke="midnightblue" points="374.351,-531.663 384.918,-532.428 377.135,-525.24 374.351,-531.663"/>
</g>
<!-- Node123 -->
<g id="node16" class="node"><title>Node123</title>
<g id="a_node16"><a xlink:href="lapi_8c.html#a426c9cb1d582be3e43060c4772854e5a" target="_top" xlink:title=" ">
<polygon fill="white" stroke="black" points="365,-390.5 365,-409.5 451,-409.5 451,-390.5 365,-390.5"/>
<text text-anchor="middle" x="408" y="-397.5" font-family="Helvetica,sans-Serif" font-size="10.00">lua_pushvfstring</text>
</a>
</g>
</g>
<!-- Node120&#45;&gt;Node123 -->
<g id="edge17" class="edge"><title>Node120&#45;&gt;Node123</title>
<path fill="none" stroke="midnightblue" d="M287.436,-475.309C302.314,-463.447 328.745,-443.08 353,-428 360.8,-423.151 369.532,-418.365 377.663,-414.159"/>
<polygon fill="midnightblue" stroke="midnightblue" points="379.496,-417.154 386.841,-409.519 376.337,-410.907 379.496,-417.154"/>
</g>
<!-- Node124 -->
<g id="node18" class="node"><title>Node124</title>
<g id="a_node18"><a xlink:href="lauxlib_8c.html#a0f4d3c30c07eae36aa25605df84279a0" target="_top" xlink:title=" ">
<polygon fill="white" stroke="black" points="375.5,-437.5 375.5,-456.5 440.5,-456.5 440.5,-437.5 375.5,-437.5"/>
<text text-anchor="middle" x="408" y="-444.5" font-family="Helvetica,sans-Serif" font-size="10.00">luaL_where</text>
</a>
</g>
</g>
<!-- Node120&#45;&gt;Node124 -->
<g id="edge20" class="edge"><title>Node120&#45;&gt;Node124</title>
<path fill="none" stroke="midnightblue" d="M304.034,-476.755C321.998,-471.563 345.489,-464.775 365.497,-458.993"/>
<polygon fill="midnightblue" stroke="midnightblue" points="366.661,-462.3 375.296,-456.162 364.717,-455.575 366.661,-462.3"/>
</g>
<!-- Node19 -->
<g id="node9" class="node"><title>Node19</title>
<g id="a_node9"><a xlink:href="lstring_8c.html#ab41fb084ce3ea5e2779f6659ccc2484d" target="_top" xlink:title=" ">
<polygon fill="white" stroke="black" points="860,-518.5 860,-537.5 932,-537.5 932,-518.5 860,-518.5"/>
<text text-anchor="middle" x="896" y="-525.5" font-family="Helvetica,sans-Serif" font-size="10.00">luaS_newlstr</text>
</a>
</g>
</g>
<!-- Node121&#45;&gt;Node19 -->
<g id="edge8" class="edge"><title>Node121&#45;&gt;Node19</title>
<path fill="none" stroke="midnightblue" d="M701.716,-507.337C740.197,-511.451 805.884,-518.473 849.859,-523.174"/>
<polygon fill="midnightblue" stroke="midnightblue" points="849.676,-526.675 859.991,-524.257 850.42,-519.714 849.676,-526.675"/>
</g>
<!-- Node28 -->
<g id="node13" class="node"><title>Node28</title>
<g id="a_node13"><a xlink:href="lvm_8c.html#a2f076040af405dcb50d661edd692eca7" target="_top" xlink:title=" ">
<polygon fill="white" stroke="red" points="752.5,-480.5 752.5,-499.5 823.5,-499.5 823.5,-480.5 752.5,-480.5"/>
<text text-anchor="middle" x="788" y="-487.5" font-family="Helvetica,sans-Serif" font-size="10.00">luaV_concat</text>
</a>
</g>
</g>
<!-- Node121&#45;&gt;Node28 -->
<g id="edge12" class="edge"><title>Node121&#45;&gt;Node28</title>
<path fill="none" stroke="midnightblue" d="M701.72,-500.248C714.18,-498.751 728.761,-496.999 742.307,-495.371"/>
<polygon fill="midnightblue" stroke="midnightblue" points="742.9,-498.825 752.411,-494.157 742.065,-491.875 742.9,-498.825"/>
</g>
<!-- Node20 -->
<g id="node10" class="node"><title>Node20</title>
<g id="a_node10"><a xlink:href="lstring_8c.html#a9b2c32c59a280de24f20df1c7f0433a1" target="_top" xlink:title=" ">
<polygon fill="white" stroke="red" points="988,-518.5 988,-537.5 1053,-537.5 1053,-518.5 988,-518.5"/>
<text text-anchor="middle" x="1020.5" y="-525.5" font-family="Helvetica,sans-Serif" font-size="10.00">internshrstr</text>
</a>
</g>
</g>
<!-- Node19&#45;&gt;Node20 -->
<g id="edge9" class="edge"><title>Node19&#45;&gt;Node20</title>
<path fill="none" stroke="midnightblue" d="M932.104,-528C946.213,-528 962.601,-528 977.347,-528"/>
<polygon fill="midnightblue" stroke="midnightblue" points="977.739,-531.5 987.739,-528 977.739,-524.5 977.739,-531.5"/>
</g>
<!-- Node25 -->
<g id="node11" class="node"><title>Node25</title>
<g id="a_node11"><a xlink:href="lmem_8c.html#a8fc7df43dd830ccbe7581fd53f65bdbe" target="_top" xlink:title=" ">
<polygon fill="white" stroke="red" points="986,-556.5 986,-575.5 1055,-575.5 1055,-556.5 986,-556.5"/>
<text text-anchor="middle" x="1020.5" y="-563.5" font-family="Helvetica,sans-Serif" font-size="10.00">luaM_toobig</text>
</a>
</g>
</g>
<!-- Node19&#45;&gt;Node25 -->
<g id="edge10" class="edge"><title>Node19&#45;&gt;Node25</title>
<path fill="none" stroke="midnightblue" d="M927.912,-537.589C943.29,-542.359 962.082,-548.189 978.633,-553.323"/>
<polygon fill="midnightblue" stroke="midnightblue" points="978.01,-556.794 988.598,-556.414 980.084,-550.108 978.01,-556.794"/>
</g>
<!-- Node26 -->
<g id="node12" class="node"><title>Node26</title>
<g id="a_node12"><a xlink:href="lstring_8c.html#a8790c7d6e706f935dd6e9eefd068921c" target="_top" xlink:title=" ">
<polygon fill="white" stroke="red" points="968,-480.5 968,-499.5 1073,-499.5 1073,-480.5 968,-480.5"/>
<text text-anchor="middle" x="1020.5" y="-487.5" font-family="Helvetica,sans-Serif" font-size="10.00">luaS_createlngstrobj</text>
</a>
</g>
</g>
<!-- Node19&#45;&gt;Node26 -->
<g id="edge11" class="edge"><title>Node19&#45;&gt;Node26</title>
<path fill="none" stroke="midnightblue" d="M927.912,-518.411C943.29,-513.641 962.082,-507.811 978.633,-502.677"/>
<polygon fill="midnightblue" stroke="midnightblue" points="980.084,-505.892 988.598,-499.586 978.01,-499.206 980.084,-505.892"/>
</g>
<!-- Node28&#45;&gt;Node19 -->
<g id="edge14" class="edge"><title>Node28&#45;&gt;Node19</title>
<path fill="none" stroke="midnightblue" d="M815.748,-499.589C828.804,-504.269 844.703,-509.969 858.825,-515.032"/>
<polygon fill="midnightblue" stroke="midnightblue" points="857.666,-518.334 868.26,-518.414 860.028,-511.745 857.666,-518.334"/>
</g>
<!-- Node28&#45;&gt;Node26 -->
<g id="edge13" class="edge"><title>Node28&#45;&gt;Node26</title>
<path fill="none" stroke="midnightblue" d="M823.508,-490C858.854,-490 914.561,-490 957.565,-490"/>
<polygon fill="midnightblue" stroke="midnightblue" points="957.646,-493.5 967.646,-490 957.646,-486.5 957.646,-493.5"/>
</g>
<!-- Node119 -->
<g id="node15" class="node"><title>Node119</title>
<g id="a_node15"><a xlink:href="ldebug_8c.html#af7366920f8408bb33ed01b1d6c0e1238" target="_top" xlink:title=" ">
<polygon fill="white" stroke="red" points="503,-532.5 503,-551.5 583,-551.5 583,-532.5 503,-532.5"/>
<text text-anchor="middle" x="543" y="-539.5" font-family="Helvetica,sans-Serif" font-size="10.00">luaG_errormsg</text>
</a>
</g>
</g>
<!-- Node122&#45;&gt;Node119 -->
<g id="edge16" class="edge"><title>Node122&#45;&gt;Node119</title>
<path fill="none" stroke="midnightblue" d="M435.277,-542C451.64,-542 473.208,-542 492.67,-542"/>
<polygon fill="midnightblue" stroke="midnightblue" points="492.917,-545.5 502.917,-542 492.917,-538.5 492.917,-545.5"/>
</g>
<!-- Node16 -->
<g id="node17" class="node"><title>Node16</title>
<g id="a_node17"><a xlink:href="lobject_8c.html#aa83fa444a36d79521e846a766fa083d5" target="_top" xlink:title=" ">
<polygon fill="white" stroke="red" points="623,-437.5 623,-456.5 716,-456.5 716,-437.5 623,-437.5"/>
<text text-anchor="middle" x="669.5" y="-444.5" font-family="Helvetica,sans-Serif" font-size="10.00">luaO_pushvfstring</text>
</a>
</g>
</g>
<!-- Node123&#45;&gt;Node16 -->
<g id="edge18" class="edge"><title>Node123&#45;&gt;Node16</title>
<path fill="none" stroke="midnightblue" d="M451.169,-397.068C487.756,-395.711 541.797,-396.583 587,-409 604.446,-413.792 606.636,-420.284 623,-428 626.833,-429.807 630.884,-431.626 634.927,-433.384"/>
<polygon fill="midnightblue" stroke="midnightblue" points="633.664,-436.65 644.236,-437.343 636.403,-430.208 633.664,-436.65"/>
</g>
<!-- Node16&#45;&gt;Node28 -->
<g id="edge19" class="edge"><title>Node16&#45;&gt;Node28</title>
<path fill="none" stroke="midnightblue" d="M696.355,-456.543C712.645,-462.556 733.89,-470.397 751.718,-476.977"/>
<polygon fill="midnightblue" stroke="midnightblue" points="750.624,-480.304 761.217,-480.484 753.048,-473.737 750.624,-480.304"/>
</g>
<!-- Node125 -->
<g id="node19" class="node"><title>Node125</title>
<g id="a_node19"><a xlink:href="ldebug_8c.html#acaafc35d8e385c4d167229486165df6d" target="_top" xlink:title=" ">
<polygon fill="white" stroke="black" points="511.5,-342.5 511.5,-361.5 574.5,-361.5 574.5,-342.5 511.5,-342.5"/>
<text text-anchor="middle" x="543" y="-349.5" font-family="Helvetica,sans-Serif" font-size="10.00">lua_getinfo</text>
</a>
</g>
</g>
<!-- Node124&#45;&gt;Node125 -->
<g id="edge21" class="edge"><title>Node124&#45;&gt;Node125</title>
<path fill="none" stroke="midnightblue" d="M430.136,-437.414C440.37,-432.433 452.652,-425.942 463,-419 485.638,-403.814 509.164,-383.122 524.59,-368.769"/>
<polygon fill="midnightblue" stroke="midnightblue" points="526.997,-371.31 531.871,-361.903 522.194,-366.217 526.997,-371.31"/>
</g>
<!-- Node132 -->
<g id="node29" class="node"><title>Node132</title>
<g id="a_node29"><a xlink:href="ldebug_8c.html#ac1fc03c27ee46caa4037df2d70f22110" target="_top" xlink:title=" ">
<polygon fill="white" stroke="black" points="507,-456.5 507,-475.5 579,-475.5 579,-456.5 507,-456.5"/>
<text text-anchor="middle" x="543" y="-463.5" font-family="Helvetica,sans-Serif" font-size="10.00">lua_getstack</text>
</a>
</g>
</g>
<!-- Node124&#45;&gt;Node132 -->
<g id="edge31" class="edge"><title>Node124&#45;&gt;Node132</title>
<path fill="none" stroke="midnightblue" d="M440.519,-451.503C457.371,-453.91 478.412,-456.916 496.959,-459.566"/>
<polygon fill="midnightblue" stroke="midnightblue" points="496.569,-463.045 506.963,-460.995 497.559,-456.116 496.569,-463.045"/>
</g>
<!-- Node133 -->
<g id="node30" class="node"><title>Node133</title>
<g id="a_node30"><a xlink:href="lapi_8c.html#ab190c226d38b289e6ca57683a9d4e0f0" target="_top" xlink:title=" ">
<polygon fill="white" stroke="black" points="502,-418.5 502,-437.5 584,-437.5 584,-418.5 502,-418.5"/>
<text text-anchor="middle" x="543" y="-425.5" font-family="Helvetica,sans-Serif" font-size="10.00">lua_pushfstring</text>
</a>
</g>
</g>
<!-- Node124&#45;&gt;Node133 -->
<g id="edge32" class="edge"><title>Node124&#45;&gt;Node133</title>
<path fill="none" stroke="midnightblue" d="M440.519,-442.497C455.802,-440.314 474.531,-437.638 491.72,-435.183"/>
<polygon fill="midnightblue" stroke="midnightblue" points="492.22,-438.647 501.625,-433.768 491.23,-431.717 492.22,-438.647"/>
</g>
<!-- Node126 -->
<g id="node20" class="node"><title>Node126</title>
<g id="a_node20"><a xlink:href="ldebug_8c.html#ad72fa774194e83872bac4e5bf6ec1160" target="_top" xlink:title=" ">
<polygon fill="white" stroke="black" points="639,-323.5 639,-342.5 700,-342.5 700,-323.5 639,-323.5"/>
<text text-anchor="middle" x="669.5" y="-330.5" font-family="Helvetica,sans-Serif" font-size="10.00">auxgetinfo</text>
</a>
</g>
</g>
<!-- Node125&#45;&gt;Node126 -->
<g id="edge22" class="edge"><title>Node125&#45;&gt;Node126</title>
<path fill="none" stroke="midnightblue" d="M574.775,-347.303C591.148,-344.805 611.463,-341.704 628.99,-339.03"/>
<polygon fill="midnightblue" stroke="midnightblue" points="629.579,-342.48 638.936,-337.512 628.522,-335.561 629.579,-342.48"/>
</g>
<!-- Node130 -->
<g id="node24" class="node"><title>Node130</title>
<g id="a_node24"><a xlink:href="ldebug_8c.html#a6e3195fc94af1f75142c2801ca8cf058" target="_top" xlink:title=" ">
<polygon fill="white" stroke="black" points="627.5,-361.5 627.5,-380.5 711.5,-380.5 711.5,-361.5 627.5,-361.5"/>
<text text-anchor="middle" x="669.5" y="-368.5" font-family="Helvetica,sans-Serif" font-size="10.00">collectvalidlines</text>
</a>
</g>
</g>
<!-- Node125&#45;&gt;Node130 -->
<g id="edge26" class="edge"><title>Node125&#45;&gt;Node130</title>
<path fill="none" stroke="midnightblue" d="M574.775,-356.697C587.523,-358.642 602.66,-360.952 617.011,-363.142"/>
<polygon fill="midnightblue" stroke="midnightblue" points="616.862,-366.66 627.276,-364.709 617.918,-359.74 616.862,-366.66"/>
</g>
<!-- Node131 -->
<g id="node28" class="node"><title>Node131</title>
<g id="a_node28"><a xlink:href="ldebug_8c.html#a1f8af4428461705c53893e5ddb8b55aa" target="_top" xlink:title=" ">
<polygon fill="white" stroke="black" points="639,-399.5 639,-418.5 700,-418.5 700,-399.5 639,-399.5"/>
<text text-anchor="middle" x="669.5" y="-406.5" font-family="Helvetica,sans-Serif" font-size="10.00">swapextra</text>
</a>
</g>
</g>
<!-- Node125&#45;&gt;Node131 -->
<g id="edge30" class="edge"><title>Node125&#45;&gt;Node131</title>
<path fill="none" stroke="midnightblue" d="M563.346,-361.658C579.258,-369.516 602.451,-380.775 623,-390 626.954,-391.775 631.123,-393.591 635.268,-395.362"/>
<polygon fill="midnightblue" stroke="midnightblue" points="634.208,-398.714 644.783,-399.374 636.928,-392.264 634.208,-398.714"/>
</g>
<!-- Node11 -->
<g id="node21" class="node"><title>Node11</title>
<g id="a_node21"><a xlink:href="ldebug_8c.html#a9834508872dae133075c7efe6404a9d8" target="_top" xlink:title=" ">
<polygon fill="white" stroke="red" points="757,-323.5 757,-342.5 819,-342.5 819,-323.5 757,-323.5"/>
<text text-anchor="middle" x="788" y="-330.5" font-family="Helvetica,sans-Serif" font-size="10.00">currentline</text>
</a>
</g>
</g>
<!-- Node126&#45;&gt;Node11 -->
<g id="edge23" class="edge"><title>Node126&#45;&gt;Node11</title>
<path fill="none" stroke="midnightblue" d="M700.199,-333C714.331,-333 731.441,-333 746.722,-333"/>
<polygon fill="midnightblue" stroke="midnightblue" points="746.95,-336.5 756.95,-333 746.95,-329.5 746.95,-336.5"/>
</g>
<!-- Node127 -->
<g id="node22" class="node"><title>Node127</title>
<g id="a_node22"><a xlink:href="ldebug_8c.html#a84af60873d130ffee87eb1721f3231e4" target="_top" xlink:title=" ">
<polygon fill="white" stroke="red" points="763,-285.5 763,-304.5 813,-304.5 813,-285.5 763,-285.5"/>
<text text-anchor="middle" x="788" y="-292.5" font-family="Helvetica,sans-Serif" font-size="10.00">funcinfo</text>
</a>
</g>
</g>
<!-- Node126&#45;&gt;Node127 -->
<g id="edge24" class="edge"><title>Node126&#45;&gt;Node127</title>
<path fill="none" stroke="midnightblue" d="M699.898,-323.411C715.974,-318.167 735.973,-311.644 752.752,-306.171"/>
<polygon fill="midnightblue" stroke="midnightblue" points="754.298,-309.348 762.72,-302.92 752.127,-302.693 754.298,-309.348"/>
</g>
<!-- Node128 -->
<g id="node23" class="node"><title>Node128</title>
<g id="a_node23"><a xlink:href="ldebug_8c.html#a118ab79b6b538a857353e4b9259667e1" target="_top" xlink:title=" ">
<polygon fill="white" stroke="red" points="752,-361.5 752,-380.5 824,-380.5 824,-361.5 752,-361.5"/>
<text text-anchor="middle" x="788" y="-368.5" font-family="Helvetica,sans-Serif" font-size="10.00">getfuncname</text>
</a>
</g>
</g>
<!-- Node126&#45;&gt;Node128 -->
<g id="edge25" class="edge"><title>Node126&#45;&gt;Node128</title>
<path fill="none" stroke="midnightblue" d="M699.898,-342.589C714.385,-347.314 732.058,-353.079 747.689,-358.177"/>
<polygon fill="midnightblue" stroke="midnightblue" points="747.019,-361.64 757.612,-361.414 749.19,-354.986 747.019,-361.64"/>
</g>
<!-- Node74 -->
<g id="node25" class="node"><title>Node74</title>
<g id="a_node25"><a xlink:href="ltable_8c.html#a6c97fb2d6a020b0a6f852562fef93d97" target="_top" xlink:title=" ">
<polygon fill="white" stroke="red" points="758.5,-437.5 758.5,-456.5 817.5,-456.5 817.5,-437.5 758.5,-437.5"/>
<text text-anchor="middle" x="788" y="-444.5" font-family="Helvetica,sans-Serif" font-size="10.00">luaH_new</text>
</a>
</g>
</g>
<!-- Node130&#45;&gt;Node74 -->
<g id="edge27" class="edge"><title>Node130&#45;&gt;Node74</title>
<path fill="none" stroke="midnightblue" d="M698.887,-380.7C704.785,-383.297 710.786,-386.402 716,-390 735.148,-403.213 733.548,-413.83 752,-428 753.827,-429.403 755.771,-430.762 757.77,-432.066"/>
<polygon fill="midnightblue" stroke="midnightblue" points="756.322,-435.277 766.704,-437.385 759.903,-429.262 756.322,-435.277"/>
</g>
<!-- Node91 -->
<g id="node26" class="node"><title>Node91</title>
<g id="a_node26"><a xlink:href="ltable_8c.html#a9eefa8191c63f55cffb6b7b58217467c" target="_top" xlink:title=" ">
<polygon fill="white" stroke="red" points="755.5,-399.5 755.5,-418.5 820.5,-418.5 820.5,-399.5 755.5,-399.5"/>
<text text-anchor="middle" x="788" y="-406.5" font-family="Helvetica,sans-Serif" font-size="10.00">luaH_setint</text>
</a>
</g>
</g>
<!-- Node130&#45;&gt;Node91 -->
<g id="edge28" class="edge"><title>Node130&#45;&gt;Node91</title>
<path fill="none" stroke="midnightblue" d="M699.898,-380.589C714.385,-385.314 732.058,-391.079 747.689,-396.177"/>
<polygon fill="midnightblue" stroke="midnightblue" points="747.019,-399.64 757.612,-399.414 749.19,-392.986 747.019,-399.64"/>
</g>
<!-- Node82 -->
<g id="node27" class="node"><title>Node82</title>
<g id="a_node27"><a xlink:href="ltable_8c.html#ae142cefd44452389877c3e3187c7973e" target="_top" xlink:title=" ">
<polygon fill="white" stroke="black" points="863.5,-323.5 863.5,-342.5 928.5,-342.5 928.5,-323.5 863.5,-323.5"/>
<text text-anchor="middle" x="896" y="-330.5" font-family="Helvetica,sans-Serif" font-size="10.00">luaH_getint</text>
</a>
</g>
</g>
<!-- Node91&#45;&gt;Node82 -->
<g id="edge29" class="edge"><title>Node91&#45;&gt;Node82</title>
<path fill="none" stroke="midnightblue" d="M808.254,-399.348C813.475,-396.517 819.049,-393.293 824,-390 842.748,-377.531 862.613,-361.292 876.548,-349.338"/>
<polygon fill="midnightblue" stroke="midnightblue" points="879.142,-351.721 884.396,-342.52 874.551,-346.436 879.142,-351.721"/>
</g>
<!-- Node133&#45;&gt;Node16 -->
<g id="edge33" class="edge"><title>Node133&#45;&gt;Node16</title>
<path fill="none" stroke="midnightblue" d="M584.078,-434.116C593.258,-435.517 603.178,-437.031 612.88,-438.512"/>
<polygon fill="midnightblue" stroke="midnightblue" points="612.459,-441.988 622.873,-440.037 613.515,-435.068 612.459,-441.988"/>
</g>
<!-- Node135 -->
<g id="node32" class="node"><title>Node135</title>
<g id="a_node32"><a xlink:href="lapi_8c.html#ad1dcea410edb5c5595fc070f8bf2e9a0" target="_top" xlink:title=" ">
<polygon fill="white" stroke="black" points="239.5,-190.5 239.5,-209.5 309.5,-209.5 309.5,-190.5 239.5,-190.5"/>
<text text-anchor="middle" x="274.5" y="-197.5" font-family="Helvetica,sans-Serif" font-size="10.00">lua_tothread</text>
</a>
</g>
</g>
<!-- Node134&#45;&gt;Node135 -->
<g id="edge35" class="edge"><title>Node134&#45;&gt;Node135</title>
<path fill="none" stroke="midnightblue" d="M178.104,-200C193.119,-200 212.056,-200 229.091,-200"/>
<polygon fill="midnightblue" stroke="midnightblue" points="229.401,-203.5 239.401,-200 229.401,-196.5 229.401,-203.5"/>
</g>
<!-- Node136 -->
<g id="node33" class="node"><title>Node136</title>
<g id="a_node33"><a xlink:href="lapi_8c.html#ae54b9bb381b32c86235a084984e40215" target="_top" xlink:title=" ">
<polygon fill="white" stroke="black" points="376,-190.5 376,-209.5 440,-209.5 440,-190.5 376,-190.5"/>
<text text-anchor="middle" x="408" y="-197.5" font-family="Helvetica,sans-Serif" font-size="10.00">index2addr</text>
</a>
</g>
</g>
<!-- Node135&#45;&gt;Node136 -->
<g id="edge36" class="edge"><title>Node135&#45;&gt;Node136</title>
<path fill="none" stroke="midnightblue" d="M309.707,-200C326.755,-200 347.512,-200 365.468,-200"/>
<polygon fill="midnightblue" stroke="midnightblue" points="365.667,-203.5 375.667,-200 365.667,-196.5 365.667,-203.5"/>
</g>
<!-- Node137&#45;&gt;Node125 -->
<g id="edge38" class="edge"><title>Node137&#45;&gt;Node125</title>
<path fill="none" stroke="midnightblue" d="M169.648,-352C230.082,-352 417.706,-352 501.207,-352"/>
<polygon fill="midnightblue" stroke="midnightblue" points="501.332,-355.5 511.332,-352 501.332,-348.5 501.332,-355.5"/>
</g>
<!-- Node137&#45;&gt;Node138 -->
<g id="edge39" class="edge"><title>Node137&#45;&gt;Node138</title>
<path fill="none" stroke="midnightblue" d="M162.741,-361.619C178.295,-373.588 206.225,-394.248 232,-409 235.05,-410.745 238.288,-412.456 241.558,-414.092"/>
<polygon fill="midnightblue" stroke="midnightblue" points="240.196,-417.32 250.728,-418.47 243.212,-411.003 240.196,-417.32"/>
</g>
<!-- Node137&#45;&gt;Node139 -->
<g id="edge40" class="edge"><title>Node137&#45;&gt;Node139</title>
<path fill="none" stroke="midnightblue" d="M169.719,-357.938C186.517,-363.127 211.473,-370.837 232.703,-377.396"/>
<polygon fill="midnightblue" stroke="midnightblue" points="231.874,-380.803 242.462,-380.411 233.941,-374.115 231.874,-380.803"/>
</g>
<!-- Node137&#45;&gt;Node140 -->
<g id="edge41" class="edge"><title>Node137&#45;&gt;Node140</title>
<path fill="none" stroke="midnightblue" d="M154.658,-361.577C167.77,-391.441 208.754,-482.17 232,-504 233.643,-505.543 235.432,-506.977 237.316,-508.308"/>
<polygon fill="midnightblue" stroke="midnightblue" points="235.634,-511.38 246.015,-513.498 239.221,-505.369 235.634,-511.38"/>
</g>
<!-- Node137&#45;&gt;Node141 -->
<g id="edge44" class="edge"><title>Node137&#45;&gt;Node141</title>
<path fill="none" stroke="midnightblue" d="M169.719,-346.063C186.517,-340.873 211.473,-333.163 232.703,-326.604"/>
<polygon fill="midnightblue" stroke="midnightblue" points="233.941,-329.885 242.462,-323.589 231.874,-323.197 233.941,-329.885"/>
</g>
<!-- Node137&#45;&gt;Node142 -->
<g id="edge45" class="edge"><title>Node137&#45;&gt;Node142</title>
<path fill="none" stroke="midnightblue" d="M162.741,-342.381C178.295,-330.412 206.225,-309.752 232,-295 235.05,-293.255 238.288,-291.544 241.558,-289.908"/>
<polygon fill="midnightblue" stroke="midnightblue" points="243.212,-292.997 250.728,-285.53 240.196,-286.68 243.212,-292.997"/>
</g>
<!-- Node137&#45;&gt;Node143 -->
<g id="edge52" class="edge"><title>Node137&#45;&gt;Node143</title>
<path fill="none" stroke="midnightblue" d="M156.6,-342.445C168.885,-323.842 198.326,-282.363 232,-257 234.18,-255.358 236.524,-253.814 238.949,-252.372"/>
<polygon fill="midnightblue" stroke="midnightblue" points="240.747,-255.38 247.936,-247.597 237.463,-249.198 240.747,-255.38"/>
</g>
<!-- Node35 -->
<g id="node38" class="node"><title>Node35</title>
<g id="a_node38"><a xlink:href="lstring_8c.html#a6d47e53be6b8e58202bb927752f4824b" target="_top" xlink:title=" ">
<polygon fill="white" stroke="black" points="640,-567.5 640,-586.5 699,-586.5 699,-567.5 640,-567.5"/>
<text text-anchor="middle" x="669.5" y="-574.5" font-family="Helvetica,sans-Serif" font-size="10.00">luaS_new</text>
</a>
</g>
</g>
<!-- Node140&#45;&gt;Node35 -->
<g id="edge42" class="edge"><title>Node140&#45;&gt;Node35</title>
<path fill="none" stroke="midnightblue" d="M290.513,-532.661C305.624,-541.817 329.934,-555.03 353,-561 449.92,-586.086 569.034,-583.532 629.414,-580.001"/>
<polygon fill="midnightblue" stroke="midnightblue" points="629.876,-583.479 639.638,-579.36 629.438,-576.492 629.876,-583.479"/>
</g>
<!-- Node35&#45;&gt;Node19 -->
<g id="edge43" class="edge"><title>Node35&#45;&gt;Node19</title>
<path fill="none" stroke="midnightblue" d="M699.39,-570.694C737.514,-562.373 805.028,-547.638 849.902,-537.843"/>
<polygon fill="midnightblue" stroke="midnightblue" points="850.928,-541.202 859.952,-535.65 849.435,-534.363 850.928,-541.202"/>
</g>
<!-- Node142&#45;&gt;Node136 -->
<g id="edge46" class="edge"><title>Node142&#45;&gt;Node136</title>
<path fill="none" stroke="midnightblue" d="M300.498,-266.432C306.156,-263.764 311.973,-260.596 317,-257 335.922,-243.466 333.481,-231.659 353,-219 357.109,-216.335 361.637,-213.992 366.271,-211.945"/>
<polygon fill="midnightblue" stroke="midnightblue" points="367.825,-215.094 375.83,-208.154 365.244,-208.588 367.825,-215.094"/>
</g>
<!-- Node81 -->
<g id="node41" class="node"><title>Node81</title>
<g id="a_node41"><a xlink:href="ltable_8c.html#a8b4fce00d7db27ee9caac3d49863dea3" target="_top" xlink:title=" ">
<polygon fill="white" stroke="black" points="380.5,-228.5 380.5,-247.5 435.5,-247.5 435.5,-228.5 380.5,-228.5"/>
<text text-anchor="middle" x="408" y="-235.5" font-family="Helvetica,sans-Serif" font-size="10.00">luaH_get</text>
</a>
</g>
</g>
<!-- Node142&#45;&gt;Node81 -->
<g id="edge47" class="edge"><title>Node142&#45;&gt;Node81</title>
<path fill="none" stroke="midnightblue" d="M306.331,-267.091C325.553,-261.536 350.386,-254.36 370.577,-248.525"/>
<polygon fill="midnightblue" stroke="midnightblue" points="371.729,-251.836 380.364,-245.697 369.786,-245.111 371.729,-251.836"/>
</g>
<!-- Node81&#45;&gt;Node82 -->
<g id="edge49" class="edge"><title>Node81&#45;&gt;Node82</title>
<path fill="none" stroke="midnightblue" d="M435.545,-238.442C515.514,-240.084 752.975,-247.311 824,-276 845.809,-284.809 866.252,-302.635 879.549,-316.019"/>
<polygon fill="midnightblue" stroke="midnightblue" points="877.064,-318.484 886.509,-323.285 882.119,-313.642 877.064,-318.484"/>
</g>
<!-- Node70 -->
<g id="node42" class="node"><title>Node70</title>
<g id="a_node42"><a xlink:href="ltable_8c.html#a4de8d73b4c27cd4f7cefa861e54caf37" target="_top" xlink:title=" ">
<polygon fill="white" stroke="red" points="512,-209.5 512,-228.5 574,-228.5 574,-209.5 512,-209.5"/>
<text text-anchor="middle" x="543" y="-216.5" font-family="Helvetica,sans-Serif" font-size="10.00">getgeneric</text>
</a>
</g>
</g>
<!-- Node81&#45;&gt;Node70 -->
<g id="edge48" class="edge"><title>Node81&#45;&gt;Node70</title>
<path fill="none" stroke="midnightblue" d="M435.595,-234.201C454.487,-231.502 480.198,-227.829 501.614,-224.769"/>
<polygon fill="midnightblue" stroke="midnightblue" points="502.329,-228.203 511.733,-223.324 501.339,-221.273 502.329,-228.203"/>
</g>
<!-- Node34 -->
<g id="node43" class="node"><title>Node34</title>
<g id="a_node43"><a xlink:href="ltable_8c.html#ae8a52507e1c8966d9cf3f2dd5a0c325f" target="_top" xlink:title=" ">
<polygon fill="white" stroke="black" points="499,-171.5 499,-190.5 587,-190.5 587,-171.5 499,-171.5"/>
<text text-anchor="middle" x="543" y="-178.5" font-family="Helvetica,sans-Serif" font-size="10.00">luaH_getshortstr</text>
</a>
</g>
</g>
<!-- Node81&#45;&gt;Node34 -->
<g id="edge50" class="edge"><title>Node81&#45;&gt;Node34</title>
<path fill="none" stroke="midnightblue" d="M435.669,-229.489C444.478,-226.447 454.257,-222.82 463,-219 479.578,-211.756 482.716,-207.883 499,-200 502.616,-198.25 506.43,-196.47 510.234,-194.737"/>
<polygon fill="midnightblue" stroke="midnightblue" points="511.849,-197.849 519.547,-190.569 508.99,-191.46 511.849,-197.849"/>
</g>
<!-- Node60 -->
<g id="node44" class="node"><title>Node60</title>
<g id="a_node44"><a xlink:href="lvm_8c.html#acdf7e8db180808362a373d9b5484452e" target="_top" xlink:title=" ">
<polygon fill="white" stroke="red" points="503.5,-133.5 503.5,-152.5 582.5,-152.5 582.5,-133.5 503.5,-133.5"/>
<text text-anchor="middle" x="543" y="-140.5" font-family="Helvetica,sans-Serif" font-size="10.00">luaV_tointeger</text>
</a>
</g>
</g>
<!-- Node81&#45;&gt;Node60 -->
<g id="edge51" class="edge"><title>Node81&#45;&gt;Node60</title>
<path fill="none" stroke="midnightblue" d="M435.507,-232.504C444.89,-229.618 455.073,-225.318 463,-219 486.432,-200.325 476.312,-181.571 499,-162 500.757,-160.484 502.655,-159.07 504.64,-157.755"/>
<polygon fill="midnightblue" stroke="midnightblue" points="506.759,-160.577 513.738,-152.605 503.311,-154.485 506.759,-160.577"/>
</g>
<!-- Node143&#45;&gt;Node136 -->
<g id="edge53" class="edge"><title>Node143&#45;&gt;Node136</title>
<path fill="none" stroke="midnightblue" d="M308.683,-228.411C326.096,-223.379 347.587,-217.169 366.031,-211.839"/>
<polygon fill="midnightblue" stroke="midnightblue" points="367.003,-215.201 375.638,-209.063 365.06,-208.477 367.003,-215.201"/>
</g>
<!-- Node143&#45;&gt;Node81 -->
<g id="edge54" class="edge"><title>Node143&#45;&gt;Node81</title>
<path fill="none" stroke="midnightblue" d="M308.683,-238C327.429,-238 350.899,-238 370.207,-238"/>
<polygon fill="midnightblue" stroke="midnightblue" points="370.448,-241.5 380.448,-238 370.448,-234.5 370.448,-241.5"/>
</g>
</g>
</svg>
