<?xml version="1.0" encoding="UTF-8" standalone="no"?>
<!DOCTYPE svg PUBLIC "-//W3C//DTD SVG 1.1//EN"
 "http://www.w3.org/Graphics/SVG/1.1/DTD/svg11.dtd">
<!-- Generated by graphviz version 2.38.0 (20140413.2041)
 -->
<!-- Title: db_traceback Pages: 1 -->
<svg width="1610pt" height="709pt"
 viewBox="0.00 0.00 1610.00 709.00" xmlns="http://www.w3.org/2000/svg" xmlns:xlink="http://www.w3.org/1999/xlink">
<g id="graph0" class="graph" transform="scale(1 1) rotate(0) translate(4 705)">
<title>db_traceback</title>
<polygon fill="white" stroke="none" points="-4,4 -4,-705 1606,-705 1606,4 -4,4"/>
<!-- Node1 -->
<g id="node1" class="node"><title>Node1</title>
<g id="a_node1"><a xlink:title=" ">
<polygon fill="#bfbfbf" stroke="black" points="0,-612.5 0,-631.5 75,-631.5 75,-612.5 0,-612.5"/>
<text text-anchor="middle" x="37.5" y="-619.5" font-family="Helvetica,sans-Serif" font-size="10.00">db_traceback</text>
</a>
</g>
</g>
<!-- Node2 -->
<g id="node2" class="node"><title>Node2</title>
<g id="a_node2"><a xlink:href="ldblib_8c.html#a75169427eed495886306b6236f365512" target="_top" xlink:title=" ">
<polygon fill="white" stroke="black" points="124,-636.5 124,-655.5 181,-655.5 181,-636.5 124,-636.5"/>
<text text-anchor="middle" x="152.5" y="-643.5" font-family="Helvetica,sans-Serif" font-size="10.00">getthread</text>
</a>
</g>
</g>
<!-- Node1&#45;&gt;Node2 -->
<g id="edge1" class="edge"><title>Node1&#45;&gt;Node2</title>
<path fill="none" stroke="midnightblue" d="M75.1879,-629.792C87.5732,-632.423 101.413,-635.362 113.87,-638.008"/>
<polygon fill="midnightblue" stroke="midnightblue" points="113.437,-641.494 123.946,-640.148 114.892,-634.647 113.437,-641.494"/>
</g>
<!-- Node5 -->
<g id="node5" class="node"><title>Node5</title>
<g id="a_node5"><a xlink:href="lapi_8c.html#a602f61a9b583d69dc1c72c8970bd65e8" target="_top" xlink:title=" ">
<polygon fill="white" stroke="black" points="239,-681.5 239,-700.5 316,-700.5 316,-681.5 239,-681.5"/>
<text text-anchor="middle" x="277.5" y="-688.5" font-family="Helvetica,sans-Serif" font-size="10.00">lua_pushvalue</text>
</a>
</g>
</g>
<!-- Node1&#45;&gt;Node5 -->
<g id="edge4" class="edge"><title>Node1&#45;&gt;Node5</title>
<path fill="none" stroke="midnightblue" d="M51.1112,-631.519C65.0158,-641.509 88.4189,-656.87 111,-665 149.192,-678.75 194.93,-685.235 228.635,-688.29"/>
<polygon fill="midnightblue" stroke="midnightblue" points="228.43,-691.785 238.687,-689.133 229.014,-684.81 228.43,-691.785"/>
</g>
<!-- Node6 -->
<g id="node6" class="node"><title>Node6</title>
<g id="a_node6"><a xlink:href="lauxlib_8c.html#ab10ff110a5ba19b4385947de7834ee3c" target="_top" xlink:title=" ">
<polygon fill="white" stroke="black" points="111,-589.5 111,-608.5 194,-608.5 194,-589.5 111,-589.5"/>
<text text-anchor="middle" x="152.5" y="-596.5" font-family="Helvetica,sans-Serif" font-size="10.00">luaL_optinteger</text>
</a>
</g>
</g>
<!-- Node1&#45;&gt;Node6 -->
<g id="edge6" class="edge"><title>Node1&#45;&gt;Node6</title>
<path fill="none" stroke="midnightblue" d="M75.1879,-614.533C83.34,-612.873 92.1222,-611.086 100.726,-609.335"/>
<polygon fill="midnightblue" stroke="midnightblue" points="101.593,-612.73 110.694,-607.306 100.197,-605.87 101.593,-612.73"/>
</g>
<!-- Node158 -->
<g id="node43" class="node"><title>Node158</title>
<g id="a_node43"><a xlink:href="lauxlib_8c.html#a67bf3728d34d2c9badb2bd2f57c75233" target="_top" xlink:title=" ">
<polygon fill="white" stroke="black" points="361,-342.5 361,-361.5 444,-361.5 444,-342.5 361,-342.5"/>
<text text-anchor="middle" x="402.5" y="-349.5" font-family="Helvetica,sans-Serif" font-size="10.00">luaL_traceback</text>
</a>
</g>
</g>
<!-- Node1&#45;&gt;Node158 -->
<g id="edge57" class="edge"><title>Node1&#45;&gt;Node158</title>
<path fill="none" stroke="midnightblue" d="M51.4194,-612.391C105.328,-572.293 312.658,-418.081 380.139,-367.888"/>
<polygon fill="midnightblue" stroke="midnightblue" points="382.421,-370.553 388.356,-361.776 378.243,-364.936 382.421,-370.553"/>
</g>
<!-- Node3 -->
<g id="node3" class="node"><title>Node3</title>
<g id="a_node3"><a xlink:href="lapi_8c.html#ad1dcea410edb5c5595fc070f8bf2e9a0" target="_top" xlink:title=" ">
<polygon fill="white" stroke="black" points="242.5,-638.5 242.5,-657.5 312.5,-657.5 312.5,-638.5 242.5,-638.5"/>
<text text-anchor="middle" x="277.5" y="-645.5" font-family="Helvetica,sans-Serif" font-size="10.00">lua_tothread</text>
</a>
</g>
</g>
<!-- Node2&#45;&gt;Node3 -->
<g id="edge2" class="edge"><title>Node2&#45;&gt;Node3</title>
<path fill="none" stroke="midnightblue" d="M181.104,-646.449C196.119,-646.693 215.056,-647.001 232.091,-647.278"/>
<polygon fill="midnightblue" stroke="midnightblue" points="232.345,-650.782 242.401,-647.446 232.459,-643.783 232.345,-650.782"/>
</g>
<!-- Node4 -->
<g id="node4" class="node"><title>Node4</title>
<g id="a_node4"><a xlink:href="lapi_8c.html#ae54b9bb381b32c86235a084984e40215" target="_top" xlink:title=" ">
<polygon fill="white" stroke="black" points="626.5,-608.5 626.5,-627.5 690.5,-627.5 690.5,-608.5 626.5,-608.5"/>
<text text-anchor="middle" x="658.5" y="-615.5" font-family="Helvetica,sans-Serif" font-size="10.00">index2addr</text>
</a>
</g>
</g>
<!-- Node3&#45;&gt;Node4 -->
<g id="edge3" class="edge"><title>Node3&#45;&gt;Node4</title>
<path fill="none" stroke="midnightblue" d="M312.766,-648.653C367.408,-649.258 477.552,-648.689 570,-637 585.14,-635.086 601.536,-631.845 615.998,-628.578"/>
<polygon fill="midnightblue" stroke="midnightblue" points="617.198,-631.892 626.141,-626.212 615.608,-625.075 617.198,-631.892"/>
</g>
<!-- Node5&#45;&gt;Node4 -->
<g id="edge5" class="edge"><title>Node5&#45;&gt;Node4</title>
<path fill="none" stroke="midnightblue" d="M316.378,-689.381C372.574,-686.267 480.975,-677.519 570,-654 590.445,-648.599 612.454,-639.526 629.285,-631.84"/>
<polygon fill="midnightblue" stroke="midnightblue" points="630.967,-634.918 638.545,-627.514 628.003,-628.576 630.967,-634.918"/>
</g>
<!-- Node7 -->
<g id="node7" class="node"><title>Node7</title>
<g id="a_node7"><a xlink:href="lauxlib_8c.html#aa15bea412c49bfdee1f3dbff096ce7d2" target="_top" xlink:title=" ">
<polygon fill="white" stroke="black" points="230,-570.5 230,-589.5 325,-589.5 325,-570.5 230,-570.5"/>
<text text-anchor="middle" x="277.5" y="-577.5" font-family="Helvetica,sans-Serif" font-size="10.00">luaL_checkinteger</text>
</a>
</g>
</g>
<!-- Node6&#45;&gt;Node7 -->
<g id="edge7" class="edge"><title>Node6&#45;&gt;Node7</title>
<path fill="none" stroke="midnightblue" d="M194.116,-592.726C202.364,-591.452 211.181,-590.09 219.868,-588.748"/>
<polygon fill="midnightblue" stroke="midnightblue" points="220.615,-592.174 229.963,-587.189 219.546,-585.256 220.615,-592.174"/>
</g>
<!-- Node8 -->
<g id="node8" class="node"><title>Node8</title>
<g id="a_node8"><a xlink:href="lauxlib_8c.html#ac900510f548ea0ea6d53358d2aedd100" target="_top" xlink:title=" ">
<polygon fill="white" stroke="black" points="379,-570.5 379,-589.5 426,-589.5 426,-570.5 379,-570.5"/>
<text text-anchor="middle" x="402.5" y="-577.5" font-family="Helvetica,sans-Serif" font-size="10.00">interror</text>
</a>
</g>
</g>
<!-- Node7&#45;&gt;Node8 -->
<g id="edge8" class="edge"><title>Node7&#45;&gt;Node8</title>
<path fill="none" stroke="midnightblue" d="M325.001,-580C339.495,-580 355.172,-580 368.538,-580"/>
<polygon fill="midnightblue" stroke="midnightblue" points="368.696,-583.5 378.696,-580 368.696,-576.5 368.696,-583.5"/>
</g>
<!-- Node157 -->
<g id="node42" class="node"><title>Node157</title>
<g id="a_node42"><a xlink:href="lapi_8c.html#af81c9a68425546e1f8c6354728c95170" target="_top" xlink:title=" ">
<polygon fill="white" stroke="black" points="364,-532.5 364,-551.5 441,-551.5 441,-532.5 364,-532.5"/>
<text text-anchor="middle" x="402.5" y="-539.5" font-family="Helvetica,sans-Serif" font-size="10.00">lua_tointegerx</text>
</a>
</g>
</g>
<!-- Node7&#45;&gt;Node157 -->
<g id="edge55" class="edge"><title>Node7&#45;&gt;Node157</title>
<path fill="none" stroke="midnightblue" d="M309.538,-570.411C324.979,-565.641 343.848,-559.811 360.466,-554.677"/>
<polygon fill="midnightblue" stroke="midnightblue" points="361.951,-557.882 370.472,-551.586 359.884,-551.194 361.951,-557.882"/>
</g>
<!-- Node9 -->
<g id="node9" class="node"><title>Node9</title>
<g id="a_node9"><a xlink:href="lapi_8c.html#a99451f234bf085c9c46c3d17a5aef905" target="_top" xlink:title=" ">
<polygon fill="white" stroke="black" points="488,-570.5 488,-589.5 562,-589.5 562,-570.5 488,-570.5"/>
<text text-anchor="middle" x="525" y="-577.5" font-family="Helvetica,sans-Serif" font-size="10.00">lua_isnumber</text>
</a>
</g>
</g>
<!-- Node8&#45;&gt;Node9 -->
<g id="edge9" class="edge"><title>Node8&#45;&gt;Node9</title>
<path fill="none" stroke="midnightblue" d="M426.165,-580C440.641,-580 459.936,-580 477.563,-580"/>
<polygon fill="midnightblue" stroke="midnightblue" points="477.701,-583.5 487.7,-580 477.7,-576.5 477.701,-583.5"/>
</g>
<!-- Node10 -->
<g id="node10" class="node"><title>Node10</title>
<g id="a_node10"><a xlink:href="lauxlib_8c.html#ac607576dd107a3120cd51948989f1ed2" target="_top" xlink:title=" ">
<polygon fill="white" stroke="black" points="488.5,-380.5 488.5,-399.5 561.5,-399.5 561.5,-380.5 488.5,-380.5"/>
<text text-anchor="middle" x="525" y="-387.5" font-family="Helvetica,sans-Serif" font-size="10.00">luaL_argerror</text>
</a>
</g>
</g>
<!-- Node8&#45;&gt;Node10 -->
<g id="edge11" class="edge"><title>Node8&#45;&gt;Node10</title>
<path fill="none" stroke="midnightblue" d="M426.274,-573.217C432.74,-570.342 439.294,-566.376 444,-561 478.996,-521.02 455.387,-494.089 480,-447 487.494,-432.663 498.654,-418.256 507.86,-407.513"/>
<polygon fill="midnightblue" stroke="midnightblue" points="510.717,-409.565 514.716,-399.754 505.472,-404.93 510.717,-409.565"/>
</g>
<!-- Node151 -->
<g id="node41" class="node"><title>Node151</title>
<g id="a_node41"><a xlink:href="lauxlib_8c.html#ab8e946260debec8d4bbc714b76a1613b" target="_top" xlink:title=" ">
<polygon fill="white" stroke="red" points="497.5,-608.5 497.5,-627.5 552.5,-627.5 552.5,-608.5 497.5,-608.5"/>
<text text-anchor="middle" x="525" y="-615.5" font-family="Helvetica,sans-Serif" font-size="10.00">tag_error</text>
</a>
</g>
</g>
<!-- Node8&#45;&gt;Node151 -->
<g id="edge54" class="edge"><title>Node8&#45;&gt;Node151</title>
<path fill="none" stroke="midnightblue" d="M426.165,-587.148C443.428,-592.592 467.546,-600.197 487.516,-606.495"/>
<polygon fill="midnightblue" stroke="midnightblue" points="486.639,-609.888 497.229,-609.558 488.745,-603.212 486.639,-609.888"/>
</g>
<!-- Node9&#45;&gt;Node4 -->
<g id="edge10" class="edge"><title>Node9&#45;&gt;Node4</title>
<path fill="none" stroke="midnightblue" d="M559.183,-589.589C576.596,-594.621 598.087,-600.831 616.531,-606.161"/>
<polygon fill="midnightblue" stroke="midnightblue" points="615.56,-609.523 626.138,-608.937 617.503,-602.799 615.56,-609.523"/>
</g>
<!-- Node11 -->
<g id="node11" class="node"><title>Node11</title>
<g id="a_node11"><a xlink:href="ldebug_8c.html#acaafc35d8e385c4d167229486165df6d" target="_top" xlink:title=" ">
<polygon fill="white" stroke="black" points="770.5,-418.5 770.5,-437.5 833.5,-437.5 833.5,-418.5 770.5,-418.5"/>
<text text-anchor="middle" x="802" y="-425.5" font-family="Helvetica,sans-Serif" font-size="10.00">lua_getinfo</text>
</a>
</g>
</g>
<!-- Node10&#45;&gt;Node11 -->
<g id="edge12" class="edge"><title>Node10&#45;&gt;Node11</title>
<path fill="none" stroke="midnightblue" d="M561.609,-392.534C598.967,-395.454 659.324,-400.915 711,-409 727.307,-411.551 745.118,-415.14 760.559,-418.512"/>
<polygon fill="midnightblue" stroke="midnightblue" points="759.803,-421.929 770.325,-420.684 761.323,-415.096 759.803,-421.929"/>
</g>
<!-- Node130 -->
<g id="node20" class="node"><title>Node130</title>
<g id="a_node20"><a xlink:href="ldebug_8c.html#ac1fc03c27ee46caa4037df2d70f22110" target="_top" xlink:title=" ">
<polygon fill="white" stroke="black" points="622.5,-456.5 622.5,-475.5 694.5,-475.5 694.5,-456.5 622.5,-456.5"/>
<text text-anchor="middle" x="658.5" y="-463.5" font-family="Helvetica,sans-Serif" font-size="10.00">lua_getstack</text>
</a>
</g>
</g>
<!-- Node10&#45;&gt;Node130 -->
<g id="edge21" class="edge"><title>Node10&#45;&gt;Node130</title>
<path fill="none" stroke="midnightblue" d="M545.888,-399.539C553.663,-403.599 562.497,-408.636 570,-414 587.657,-426.623 587.47,-435.698 606,-447 609.198,-448.951 612.629,-450.751 616.145,-452.4"/>
<polygon fill="midnightblue" stroke="midnightblue" points="614.98,-455.708 625.551,-456.413 617.727,-449.269 614.98,-455.708"/>
</g>
<!-- Node131 -->
<g id="node21" class="node"><title>Node131</title>
<g id="a_node21"><a xlink:href="lauxlib_8c.html#a6c51d83d29244779392551388913e08a" target="_top" xlink:title=" ">
<polygon fill="white" stroke="red" points="629,-228.5 629,-247.5 688,-247.5 688,-228.5 629,-228.5"/>
<text text-anchor="middle" x="658.5" y="-235.5" font-family="Helvetica,sans-Serif" font-size="10.00">luaL_error</text>
</a>
</g>
</g>
<!-- Node10&#45;&gt;Node131 -->
<g id="edge22" class="edge"><title>Node10&#45;&gt;Node131</title>
<path fill="none" stroke="midnightblue" d="M554.864,-380.415C560.227,-377.862 565.539,-374.744 570,-371 608.464,-338.716 636.405,-285.265 649.385,-256.954"/>
<polygon fill="midnightblue" stroke="midnightblue" points="652.614,-258.306 653.482,-247.747 646.219,-255.46 652.614,-258.306"/>
</g>
<!-- Node137 -->
<g id="node39" class="node"><title>Node137</title>
<g id="a_node39"><a xlink:href="lauxlib_8c.html#a4f35430f7ecfcbd5f507e550937046b4" target="_top" xlink:title=" ">
<polygon fill="white" stroke="red" points="606,-418.5 606,-437.5 711,-437.5 711,-418.5 606,-418.5"/>
<text text-anchor="middle" x="658.5" y="-425.5" font-family="Helvetica,sans-Serif" font-size="10.00">pushglobalfuncname</text>
</a>
</g>
</g>
<!-- Node10&#45;&gt;Node137 -->
<g id="edge51" class="edge"><title>Node10&#45;&gt;Node137</title>
<path fill="none" stroke="midnightblue" d="M559.183,-399.589C576.003,-404.449 596.626,-410.409 614.634,-415.613"/>
<polygon fill="midnightblue" stroke="midnightblue" points="613.749,-419 624.328,-418.414 615.692,-412.275 613.749,-419"/>
</g>
<!-- Node12 -->
<g id="node12" class="node"><title>Node12</title>
<g id="a_node12"><a xlink:href="ldebug_8c.html#ad72fa774194e83872bac4e5bf6ec1160" target="_top" xlink:title=" ">
<polygon fill="white" stroke="black" points="904.5,-418.5 904.5,-437.5 965.5,-437.5 965.5,-418.5 904.5,-418.5"/>
<text text-anchor="middle" x="935" y="-425.5" font-family="Helvetica,sans-Serif" font-size="10.00">auxgetinfo</text>
</a>
</g>
</g>
<!-- Node11&#45;&gt;Node12 -->
<g id="edge13" class="edge"><title>Node11&#45;&gt;Node12</title>
<path fill="none" stroke="midnightblue" d="M833.714,-428C851.791,-428 874.848,-428 894.295,-428"/>
<polygon fill="midnightblue" stroke="midnightblue" points="894.38,-431.5 904.38,-428 894.38,-424.5 894.38,-431.5"/>
</g>
<!-- Node25 -->
<g id="node16" class="node"><title>Node25</title>
<g id="a_node16"><a xlink:href="ldebug_8c.html#a6e3195fc94af1f75142c2801ca8cf058" target="_top" xlink:title=" ">
<polygon fill="white" stroke="black" points="893,-570.5 893,-589.5 977,-589.5 977,-570.5 893,-570.5"/>
<text text-anchor="middle" x="935" y="-577.5" font-family="Helvetica,sans-Serif" font-size="10.00">collectvalidlines</text>
</a>
</g>
</g>
<!-- Node11&#45;&gt;Node25 -->
<g id="edge17" class="edge"><title>Node11&#45;&gt;Node25</title>
<path fill="none" stroke="midnightblue" d="M821.946,-437.545C833.443,-444.168 847.653,-453.954 857,-466 884.68,-501.672 862.238,-527.948 893,-561 894.213,-562.303 895.532,-563.524 896.931,-564.668"/>
<polygon fill="midnightblue" stroke="midnightblue" points="895.328,-567.804 905.6,-570.401 899.189,-561.965 895.328,-567.804"/>
</g>
<!-- Node129 -->
<g id="node19" class="node"><title>Node129</title>
<g id="a_node19"><a xlink:href="ldebug_8c.html#a1f8af4428461705c53893e5ddb8b55aa" target="_top" xlink:title=" ">
<polygon fill="white" stroke="black" points="904.5,-532.5 904.5,-551.5 965.5,-551.5 965.5,-532.5 904.5,-532.5"/>
<text text-anchor="middle" x="935" y="-539.5" font-family="Helvetica,sans-Serif" font-size="10.00">swapextra</text>
</a>
</g>
</g>
<!-- Node11&#45;&gt;Node129 -->
<g id="edge20" class="edge"><title>Node11&#45;&gt;Node129</title>
<path fill="none" stroke="midnightblue" d="M819.74,-437.621C831.035,-444.606 845.857,-454.771 857,-466 876.8,-485.952 872.384,-498.893 893,-518 896.592,-521.329 900.723,-524.405 904.95,-527.166"/>
<polygon fill="midnightblue" stroke="midnightblue" points="903.245,-530.224 913.62,-532.371 906.848,-524.223 903.245,-530.224"/>
</g>
<!-- Node13 -->
<g id="node13" class="node"><title>Node13</title>
<g id="a_node13"><a xlink:href="ldebug_8c.html#a9834508872dae133075c7efe6404a9d8" target="_top" xlink:title=" ">
<polygon fill="white" stroke="red" points="1258.5,-342.5 1258.5,-361.5 1320.5,-361.5 1320.5,-342.5 1258.5,-342.5"/>
<text text-anchor="middle" x="1289.5" y="-349.5" font-family="Helvetica,sans-Serif" font-size="10.00">currentline</text>
</a>
</g>
</g>
<!-- Node12&#45;&gt;Node13 -->
<g id="edge14" class="edge"><title>Node12&#45;&gt;Node13</title>
<path fill="none" stroke="midnightblue" d="M965.555,-420.429C979.855,-416.837 997.289,-412.562 1013,-409 1096.46,-390.077 1194.73,-370.356 1248.44,-359.794"/>
<polygon fill="midnightblue" stroke="midnightblue" points="1249.11,-363.228 1258.25,-357.868 1247.77,-356.359 1249.11,-363.228"/>
</g>
<!-- Node15 -->
<g id="node14" class="node"><title>Node15</title>
<g id="a_node14"><a xlink:href="ldebug_8c.html#a84af60873d130ffee87eb1721f3231e4" target="_top" xlink:title=" ">
<polygon fill="white" stroke="red" points="1024,-418.5 1024,-437.5 1074,-437.5 1074,-418.5 1024,-418.5"/>
<text text-anchor="middle" x="1049" y="-425.5" font-family="Helvetica,sans-Serif" font-size="10.00">funcinfo</text>
</a>
</g>
</g>
<!-- Node12&#45;&gt;Node15 -->
<g id="edge15" class="edge"><title>Node12&#45;&gt;Node15</title>
<path fill="none" stroke="midnightblue" d="M965.72,-428C980.463,-428 998.349,-428 1013.67,-428"/>
<polygon fill="midnightblue" stroke="midnightblue" points="1013.81,-431.5 1023.81,-428 1013.81,-424.5 1013.81,-431.5"/>
</g>
<!-- Node17 -->
<g id="node15" class="node"><title>Node17</title>
<g id="a_node15"><a xlink:href="ldebug_8c.html#a118ab79b6b538a857353e4b9259667e1" target="_top" xlink:title=" ">
<polygon fill="white" stroke="red" points="1013,-456.5 1013,-475.5 1085,-475.5 1085,-456.5 1013,-456.5"/>
<text text-anchor="middle" x="1049" y="-463.5" font-family="Helvetica,sans-Serif" font-size="10.00">getfuncname</text>
</a>
</g>
</g>
<!-- Node12&#45;&gt;Node17 -->
<g id="edge16" class="edge"><title>Node12&#45;&gt;Node17</title>
<path fill="none" stroke="midnightblue" d="M964.262,-437.589C978.19,-442.314 995.18,-448.079 1010.21,-453.177"/>
<polygon fill="midnightblue" stroke="midnightblue" points="1009.15,-456.515 1019.75,-456.414 1011.4,-449.887 1009.15,-456.515"/>
</g>
<!-- Node26 -->
<g id="node17" class="node"><title>Node26</title>
<g id="a_node17"><a xlink:href="ltable_8c.html#a6c97fb2d6a020b0a6f852562fef93d97" target="_top" xlink:title=" ">
<polygon fill="white" stroke="red" points="1019.5,-551.5 1019.5,-570.5 1078.5,-570.5 1078.5,-551.5 1019.5,-551.5"/>
<text text-anchor="middle" x="1049" y="-558.5" font-family="Helvetica,sans-Serif" font-size="10.00">luaH_new</text>
</a>
</g>
</g>
<!-- Node25&#45;&gt;Node26 -->
<g id="edge18" class="edge"><title>Node25&#45;&gt;Node26</title>
<path fill="none" stroke="midnightblue" d="M977.069,-573.033C987.557,-571.254 998.799,-569.347 1009.17,-567.587"/>
<polygon fill="midnightblue" stroke="midnightblue" points="1009.92,-571.01 1019.19,-565.887 1008.75,-564.109 1009.92,-571.01"/>
</g>
<!-- Node100 -->
<g id="node18" class="node"><title>Node100</title>
<g id="a_node18"><a xlink:href="ltable_8c.html#a9eefa8191c63f55cffb6b7b58217467c" target="_top" xlink:title=" ">
<polygon fill="white" stroke="red" points="1016.5,-589.5 1016.5,-608.5 1081.5,-608.5 1081.5,-589.5 1016.5,-589.5"/>
<text text-anchor="middle" x="1049" y="-596.5" font-family="Helvetica,sans-Serif" font-size="10.00">luaH_setint</text>
</a>
</g>
</g>
<!-- Node25&#45;&gt;Node100 -->
<g id="edge19" class="edge"><title>Node25&#45;&gt;Node100</title>
<path fill="none" stroke="midnightblue" d="M977.069,-586.967C986.605,-588.585 996.765,-590.308 1006.33,-591.93"/>
<polygon fill="midnightblue" stroke="midnightblue" points="1005.97,-595.419 1016.41,-593.641 1007.14,-588.518 1005.97,-595.419"/>
</g>
<!-- Node132 -->
<g id="node22" class="node"><title>Node132</title>
<g id="a_node22"><a xlink:href="lapi_8c.html#a1de3afee1daece63d455f23818c883d9" target="_top" xlink:title=" ">
<polygon fill="white" stroke="black" points="770,-266.5 770,-285.5 834,-285.5 834,-266.5 770,-266.5"/>
<text text-anchor="middle" x="802" y="-273.5" font-family="Helvetica,sans-Serif" font-size="10.00">lua_concat</text>
</a>
</g>
</g>
<!-- Node131&#45;&gt;Node132 -->
<g id="edge23" class="edge"><title>Node131&#45;&gt;Node132</title>
<path fill="none" stroke="midnightblue" d="M688.135,-245.69C708.816,-251.244 737.047,-258.825 760.1,-265.016"/>
<polygon fill="midnightblue" stroke="midnightblue" points="759.387,-268.449 769.953,-267.662 761.203,-261.688 759.387,-268.449"/>
</g>
<!-- Node133 -->
<g id="node37" class="node"><title>Node133</title>
<g id="a_node37"><a xlink:href="lapi_8c.html#a6ba7b91143fe8a03910420d800de8e97" target="_top" xlink:title=" ">
<polygon fill="white" stroke="red" points="775,-228.5 775,-247.5 829,-247.5 829,-228.5 775,-228.5"/>
<text text-anchor="middle" x="802" y="-235.5" font-family="Helvetica,sans-Serif" font-size="10.00">lua_error</text>
</a>
</g>
</g>
<!-- Node131&#45;&gt;Node133 -->
<g id="edge48" class="edge"><title>Node131&#45;&gt;Node133</title>
<path fill="none" stroke="midnightblue" d="M688.135,-238C710.223,-238 740.923,-238 764.729,-238"/>
<polygon fill="midnightblue" stroke="midnightblue" points="764.794,-241.5 774.794,-238 764.794,-234.5 764.794,-241.5"/>
</g>
<!-- Node134 -->
<g id="node38" class="node"><title>Node134</title>
<g id="a_node38"><a xlink:href="lapi_8c.html#a426c9cb1d582be3e43060c4772854e5a" target="_top" xlink:title=" ">
<polygon fill="white" stroke="black" points="1121,-114.5 1121,-133.5 1207,-133.5 1207,-114.5 1121,-114.5"/>
<text text-anchor="middle" x="1164" y="-121.5" font-family="Helvetica,sans-Serif" font-size="10.00">lua_pushvfstring</text>
</a>
</g>
</g>
<!-- Node131&#45;&gt;Node134 -->
<g id="edge49" class="edge"><title>Node131&#45;&gt;Node134</title>
<path fill="none" stroke="midnightblue" d="M688.162,-229.76C748.079,-212.744 891.138,-173.208 1013,-148 1045.34,-141.31 1081.94,-135.422 1110.89,-131.152"/>
<polygon fill="midnightblue" stroke="midnightblue" points="1111.4,-134.615 1120.79,-129.711 1110.39,-127.688 1111.4,-134.615"/>
</g>
<!-- Node35 -->
<g id="node23" class="node"><title>Node35</title>
<g id="a_node23"><a xlink:href="lstring_8c.html#ab41fb084ce3ea5e2779f6659ccc2484d" target="_top" xlink:title=" ">
<polygon fill="white" stroke="black" points="899,-266.5 899,-285.5 971,-285.5 971,-266.5 899,-266.5"/>
<text text-anchor="middle" x="935" y="-273.5" font-family="Helvetica,sans-Serif" font-size="10.00">luaS_newlstr</text>
</a>
</g>
</g>
<!-- Node132&#45;&gt;Node35 -->
<g id="edge24" class="edge"><title>Node132&#45;&gt;Node35</title>
<path fill="none" stroke="midnightblue" d="M834.045,-276C850.312,-276 870.543,-276 888.54,-276"/>
<polygon fill="midnightblue" stroke="midnightblue" points="888.55,-279.5 898.55,-276 888.549,-272.5 888.55,-279.5"/>
</g>
<!-- Node43 -->
<g id="node32" class="node"><title>Node43</title>
<g id="a_node32"><a xlink:href="lvm_8c.html#a2f076040af405dcb50d661edd692eca7" target="_top" xlink:title=" ">
<polygon fill="white" stroke="black" points="1381,-342.5 1381,-361.5 1452,-361.5 1452,-342.5 1381,-342.5"/>
<text text-anchor="middle" x="1416.5" y="-349.5" font-family="Helvetica,sans-Serif" font-size="10.00">luaV_concat</text>
</a>
</g>
</g>
<!-- Node132&#45;&gt;Node43 -->
<g id="edge47" class="edge"><title>Node132&#45;&gt;Node43</title>
<path fill="none" stroke="midnightblue" d="M805.429,-285.67C813.14,-314.436 839.752,-400.359 893,-447 948.213,-495.363 974.601,-504 1048,-504 1048,-504 1048,-504 1165,-504 1268.06,-504 1364.88,-408.808 1400.8,-369.088"/>
<polygon fill="midnightblue" stroke="midnightblue" points="1403.5,-371.313 1407.52,-361.508 1398.26,-366.669 1403.5,-371.313"/>
</g>
<!-- Node36 -->
<g id="node24" class="node"><title>Node36</title>
<g id="a_node24"><a xlink:href="lstring_8c.html#a9b2c32c59a280de24f20df1c7f0433a1" target="_top" xlink:title=" ">
<polygon fill="white" stroke="red" points="1016.5,-228.5 1016.5,-247.5 1081.5,-247.5 1081.5,-228.5 1016.5,-228.5"/>
<text text-anchor="middle" x="1049" y="-235.5" font-family="Helvetica,sans-Serif" font-size="10.00">internshrstr</text>
</a>
</g>
</g>
<!-- Node35&#45;&gt;Node36 -->
<g id="edge25" class="edge"><title>Node35&#45;&gt;Node36</title>
<path fill="none" stroke="midnightblue" d="M964.262,-266.411C978.19,-261.686 995.18,-255.921 1010.21,-250.823"/>
<polygon fill="midnightblue" stroke="midnightblue" points="1011.4,-254.113 1019.75,-247.586 1009.15,-247.485 1011.4,-254.113"/>
</g>
<!-- Node40 -->
<g id="node25" class="node"><title>Node40</title>
<g id="a_node25"><a xlink:href="lmem_8c.html#a8fc7df43dd830ccbe7581fd53f65bdbe" target="_top" xlink:title=" ">
<polygon fill="white" stroke="black" points="1014.5,-304.5 1014.5,-323.5 1083.5,-323.5 1083.5,-304.5 1014.5,-304.5"/>
<text text-anchor="middle" x="1049" y="-311.5" font-family="Helvetica,sans-Serif" font-size="10.00">luaM_toobig</text>
</a>
</g>
</g>
<!-- Node35&#45;&gt;Node40 -->
<g id="edge26" class="edge"><title>Node35&#45;&gt;Node40</title>
<path fill="none" stroke="midnightblue" d="M964.262,-285.589C978.19,-290.314 995.18,-296.079 1010.21,-301.177"/>
<polygon fill="midnightblue" stroke="midnightblue" points="1009.15,-304.515 1019.75,-304.414 1011.4,-297.887 1009.15,-304.515"/>
</g>
<!-- Node41 -->
<g id="node34" class="node"><title>Node41</title>
<g id="a_node34"><a xlink:href="lstring_8c.html#a8790c7d6e706f935dd6e9eefd068921c" target="_top" xlink:title=" ">
<polygon fill="white" stroke="red" points="1497,-304.5 1497,-323.5 1602,-323.5 1602,-304.5 1497,-304.5"/>
<text text-anchor="middle" x="1549.5" y="-311.5" font-family="Helvetica,sans-Serif" font-size="10.00">luaS_createlngstrobj</text>
</a>
</g>
</g>
<!-- Node35&#45;&gt;Node41 -->
<g id="edge46" class="edge"><title>Node35&#45;&gt;Node41</title>
<path fill="none" stroke="midnightblue" d="M971.131,-278.18C1071.26,-284.392 1359.09,-302.249 1486.52,-310.155"/>
<polygon fill="midnightblue" stroke="midnightblue" points="1486.68,-313.671 1496.88,-310.797 1487.12,-306.685 1486.68,-313.671"/>
</g>
<!-- Node29 -->
<g id="node26" class="node"><title>Node29</title>
<g id="a_node26"><a xlink:href="ldebug_8c.html#a88d38ca5da2e7a1492fc9d5ad70c32c5" target="_top" xlink:title=" ">
<polygon fill="white" stroke="red" points="1126.5,-304.5 1126.5,-323.5 1201.5,-323.5 1201.5,-304.5 1126.5,-304.5"/>
<text text-anchor="middle" x="1164" y="-311.5" font-family="Helvetica,sans-Serif" font-size="10.00">luaG_runerror</text>
</a>
</g>
</g>
<!-- Node40&#45;&gt;Node29 -->
<g id="edge27" class="edge"><title>Node40&#45;&gt;Node29</title>
<path fill="none" stroke="midnightblue" d="M1083.6,-314C1093.75,-314 1105.1,-314 1115.96,-314"/>
<polygon fill="midnightblue" stroke="midnightblue" points="1116.18,-317.5 1126.18,-314 1116.18,-310.5 1116.18,-317.5"/>
</g>
<!-- Node29&#45;&gt;Node13 -->
<g id="edge28" class="edge"><title>Node29&#45;&gt;Node13</title>
<path fill="none" stroke="midnightblue" d="M1196.16,-323.589C1212.05,-328.478 1231.56,-334.479 1248.54,-339.704"/>
<polygon fill="midnightblue" stroke="midnightblue" points="1247.61,-343.081 1258.2,-342.677 1249.67,-336.391 1247.61,-343.081"/>
</g>
<!-- Node32 -->
<g id="node27" class="node"><title>Node32</title>
<g id="a_node27"><a xlink:href="lobject_8c.html#aa83fa444a36d79521e846a766fa083d5" target="_top" xlink:title=" ">
<polygon fill="white" stroke="black" points="1243,-228.5 1243,-247.5 1336,-247.5 1336,-228.5 1243,-228.5"/>
<text text-anchor="middle" x="1289.5" y="-235.5" font-family="Helvetica,sans-Serif" font-size="10.00">luaO_pushvfstring</text>
</a>
</g>
</g>
<!-- Node29&#45;&gt;Node32 -->
<g id="edge29" class="edge"><title>Node29&#45;&gt;Node32</title>
<path fill="none" stroke="midnightblue" d="M1174.69,-304.193C1191.75,-290.826 1227.91,-267.83 1254.92,-252.584"/>
<polygon fill="midnightblue" stroke="midnightblue" points="1256.63,-255.638 1263.68,-247.736 1253.24,-249.512 1256.63,-255.638"/>
</g>
<!-- Node32&#45;&gt;Node29 -->
<g id="edge31" class="edge"><title>Node32&#45;&gt;Node29</title>
<path fill="none" stroke="midnightblue" d="M1278.97,-247.68C1261.89,-261.091 1225.33,-284.341 1198.2,-299.633"/>
<polygon fill="midnightblue" stroke="midnightblue" points="1196.46,-296.593 1189.4,-304.489 1199.85,-302.721 1196.46,-296.593"/>
</g>
<!-- Node33 -->
<g id="node28" class="node"><title>Node33</title>
<g id="a_node28"><a xlink:href="ldo_8c.html#a4dd006aa3210fdc854d0441e2a98c9af" target="_top" xlink:title=" ">
<polygon fill="white" stroke="black" points="1515.5,-171.5 1515.5,-190.5 1583.5,-190.5 1583.5,-171.5 1515.5,-171.5"/>
<text text-anchor="middle" x="1549.5" y="-178.5" font-family="Helvetica,sans-Serif" font-size="10.00">luaD_inctop</text>
</a>
</g>
</g>
<!-- Node32&#45;&gt;Node33 -->
<g id="edge30" class="edge"><title>Node32&#45;&gt;Node33</title>
<path fill="none" stroke="midnightblue" d="M1330.68,-228.49C1343.84,-225.414 1358.53,-222.019 1372,-219 1417.37,-208.827 1469.43,-197.683 1505.19,-190.11"/>
<polygon fill="midnightblue" stroke="midnightblue" points="1506.22,-193.469 1515.28,-187.976 1504.77,-186.621 1506.22,-193.469"/>
</g>
<!-- Node31 -->
<g id="node29" class="node"><title>Node31</title>
<g id="a_node29"><a xlink:href="lobject_8c.html#a8e224db7123c74d695076a96d1bfda61" target="_top" xlink:title=" ">
<polygon fill="white" stroke="black" points="1372,-228.5 1372,-247.5 1461,-247.5 1461,-228.5 1372,-228.5"/>
<text text-anchor="middle" x="1416.5" y="-235.5" font-family="Helvetica,sans-Serif" font-size="10.00">luaO_pushfstring</text>
</a>
</g>
</g>
<!-- Node32&#45;&gt;Node31 -->
<g id="edge32" class="edge"><title>Node32&#45;&gt;Node31</title>
<path fill="none" stroke="midnightblue" d="M1336.34,-231.468C1344.56,-231.248 1353.2,-231.195 1361.62,-231.307"/>
<polygon fill="midnightblue" stroke="midnightblue" points="1361.68,-234.809 1371.75,-231.528 1361.83,-227.811 1361.68,-234.809"/>
</g>
<!-- Node34 -->
<g id="node30" class="node"><title>Node34</title>
<g id="a_node30"><a xlink:href="lobject_8c.html#a00c5c37438b02ff7efcf8e8dfa98da7c" target="_top" xlink:title=" ">
<polygon fill="white" stroke="black" points="1379.5,-114.5 1379.5,-133.5 1453.5,-133.5 1453.5,-114.5 1379.5,-114.5"/>
<text text-anchor="middle" x="1416.5" y="-121.5" font-family="Helvetica,sans-Serif" font-size="10.00">luaO_tostring</text>
</a>
</g>
</g>
<!-- Node32&#45;&gt;Node34 -->
<g id="edge34" class="edge"><title>Node32&#45;&gt;Node34</title>
<path fill="none" stroke="midnightblue" d="M1296.56,-228.393C1308.78,-209.698 1338.1,-168.067 1372,-143 1374.3,-141.3 1376.77,-139.712 1379.33,-138.237"/>
<polygon fill="midnightblue" stroke="midnightblue" points="1380.95,-141.343 1388.24,-133.657 1377.74,-135.118 1380.95,-141.343"/>
</g>
<!-- Node42 -->
<g id="node31" class="node"><title>Node42</title>
<g id="a_node31"><a xlink:href="lobject_8c.html#af3136de4693789b08f78aafda9604676" target="_top" xlink:title=" ">
<polygon fill="white" stroke="black" points="1379.5,-266.5 1379.5,-285.5 1453.5,-285.5 1453.5,-266.5 1379.5,-266.5"/>
<text text-anchor="middle" x="1416.5" y="-273.5" font-family="Helvetica,sans-Serif" font-size="10.00">luaO_utf8esc</text>
</a>
</g>
</g>
<!-- Node32&#45;&gt;Node42 -->
<g id="edge36" class="edge"><title>Node32&#45;&gt;Node42</title>
<path fill="none" stroke="midnightblue" d="M1322.04,-247.589C1337.88,-252.404 1357.27,-258.299 1374.28,-263.468"/>
<polygon fill="midnightblue" stroke="midnightblue" points="1373.38,-266.854 1383.97,-266.414 1375.42,-260.157 1373.38,-266.854"/>
</g>
<!-- Node32&#45;&gt;Node43 -->
<g id="edge37" class="edge"><title>Node32&#45;&gt;Node43</title>
<path fill="none" stroke="midnightblue" d="M1301.16,-247.72C1322.56,-267.238 1370.97,-311.391 1397.42,-335.512"/>
<polygon fill="midnightblue" stroke="midnightblue" points="1395.12,-338.153 1404.87,-342.305 1399.84,-332.98 1395.12,-338.153"/>
</g>
<!-- Node127 -->
<g id="node36" class="node"><title>Node127</title>
<g id="a_node36"><a xlink:href="lobject_8c.html#aa65db03553a5abd73e466d307bb17a37" target="_top" xlink:title=" ">
<polygon fill="white" stroke="black" points="1392,-152.5 1392,-171.5 1441,-171.5 1441,-152.5 1392,-152.5"/>
<text text-anchor="middle" x="1416.5" y="-159.5" font-family="Helvetica,sans-Serif" font-size="10.00">pushstr</text>
</a>
</g>
</g>
<!-- Node32&#45;&gt;Node127 -->
<g id="edge43" class="edge"><title>Node32&#45;&gt;Node127</title>
<path fill="none" stroke="midnightblue" d="M1310.41,-228.455C1318.53,-224.32 1327.9,-219.231 1336,-214 1353.03,-203.007 1355.07,-197.152 1372,-186 1376.86,-182.797 1382.18,-179.614 1387.39,-176.664"/>
<polygon fill="midnightblue" stroke="midnightblue" points="1389.42,-179.539 1396.49,-171.651 1386.04,-173.407 1389.42,-179.539"/>
</g>
<!-- Node31&#45;&gt;Node32 -->
<g id="edge33" class="edge"><title>Node31&#45;&gt;Node32</title>
<path fill="none" stroke="midnightblue" d="M1371.75,-244.472C1363.6,-244.721 1354.99,-244.802 1346.53,-244.718"/>
<polygon fill="midnightblue" stroke="midnightblue" points="1346.4,-241.215 1336.34,-244.532 1346.27,-248.214 1346.4,-241.215"/>
</g>
<!-- Node34&#45;&gt;Node35 -->
<g id="edge35" class="edge"><title>Node34&#45;&gt;Node35</title>
<path fill="none" stroke="midnightblue" d="M1379.33,-127.089C1292.79,-134.956 1076.27,-157.591 1013,-192 984.194,-207.666 960.41,-238.259 947.222,-257.883"/>
<polygon fill="midnightblue" stroke="midnightblue" points="944.282,-255.984 941.775,-266.278 950.154,-259.794 944.282,-255.984"/>
</g>
<!-- Node43&#45;&gt;Node35 -->
<g id="edge41" class="edge"><title>Node43&#45;&gt;Node35</title>
<path fill="none" stroke="midnightblue" d="M1383.32,-361.506C1368.97,-365.271 1351.78,-369.14 1336,-371 1192.45,-387.916 1146.11,-389.354 1013,-333 990.466,-323.46 968.401,-306.059 953.708,-292.983"/>
<polygon fill="midnightblue" stroke="midnightblue" points="955.696,-290.058 945.961,-285.877 950.964,-295.216 955.696,-290.058"/>
</g>
<!-- Node43&#45;&gt;Node29 -->
<g id="edge39" class="edge"><title>Node43&#45;&gt;Node29</title>
<path fill="none" stroke="midnightblue" d="M1380.87,-342.736C1367,-339.285 1350.82,-335.584 1336,-333 1294.27,-325.723 1246.29,-320.678 1211.8,-317.624"/>
<polygon fill="midnightblue" stroke="midnightblue" points="1211.81,-314.113 1201.55,-316.741 1211.21,-321.087 1211.81,-314.113"/>
</g>
<!-- Node44 -->
<g id="node33" class="node"><title>Node44</title>
<g id="a_node33"><a xlink:href="lvm_8c.html#a7f03a9c23b77ec5cd280bb955ec430b8" target="_top" xlink:title=" ">
<polygon fill="white" stroke="black" points="1520.5,-380.5 1520.5,-399.5 1578.5,-399.5 1578.5,-380.5 1520.5,-380.5"/>
<text text-anchor="middle" x="1549.5" y="-387.5" font-family="Helvetica,sans-Serif" font-size="10.00">copy2buff</text>
</a>
</g>
</g>
<!-- Node43&#45;&gt;Node44 -->
<g id="edge38" class="edge"><title>Node43&#45;&gt;Node44</title>
<path fill="none" stroke="midnightblue" d="M1450.56,-361.589C1468.8,-366.882 1491.54,-373.478 1510.52,-378.983"/>
<polygon fill="midnightblue" stroke="midnightblue" points="1509.76,-382.406 1520.34,-381.831 1511.71,-375.683 1509.76,-382.406"/>
</g>
<!-- Node43&#45;&gt;Node41 -->
<g id="edge40" class="edge"><title>Node43&#45;&gt;Node41</title>
<path fill="none" stroke="midnightblue" d="M1450.56,-342.411C1467.31,-337.551 1487.86,-331.591 1505.8,-326.387"/>
<polygon fill="midnightblue" stroke="midnightblue" points="1506.82,-329.733 1515.45,-323.586 1504.87,-323.01 1506.82,-329.733"/>
</g>
<!-- Node45 -->
<g id="node35" class="node"><title>Node45</title>
<g id="a_node35"><a xlink:href="ltm_8c.html#a2adc638eccb971b8abaf27f60611e913" target="_top" xlink:title=" ">
<polygon fill="white" stroke="red" points="1511,-342.5 1511,-361.5 1588,-361.5 1588,-342.5 1511,-342.5"/>
<text text-anchor="middle" x="1549.5" y="-349.5" font-family="Helvetica,sans-Serif" font-size="10.00">luaT_trybinTM</text>
</a>
</g>
</g>
<!-- Node43&#45;&gt;Node45 -->
<g id="edge42" class="edge"><title>Node43&#45;&gt;Node45</title>
<path fill="none" stroke="midnightblue" d="M1452.26,-352C1467.06,-352 1484.57,-352 1500.56,-352"/>
<polygon fill="midnightblue" stroke="midnightblue" points="1500.81,-355.5 1510.81,-352 1500.81,-348.5 1500.81,-355.5"/>
</g>
<!-- Node127&#45;&gt;Node35 -->
<g id="edge45" class="edge"><title>Node127&#45;&gt;Node35</title>
<path fill="none" stroke="midnightblue" d="M1391.89,-166.426C1376.1,-169.32 1354.84,-173.089 1336,-176 1192.88,-198.119 1147.23,-164.638 1013,-219 990.061,-228.29 967.775,-246.037 953.132,-259.272"/>
<polygon fill="midnightblue" stroke="midnightblue" points="950.369,-257.063 945.447,-266.445 955.145,-262.18 950.369,-257.063"/>
</g>
<!-- Node127&#45;&gt;Node33 -->
<g id="edge44" class="edge"><title>Node127&#45;&gt;Node33</title>
<path fill="none" stroke="midnightblue" d="M1441.22,-165.441C1458.96,-168.014 1483.72,-171.605 1504.99,-174.689"/>
<polygon fill="midnightblue" stroke="midnightblue" points="1504.7,-178.184 1515.1,-176.156 1505.7,-171.256 1504.7,-178.184"/>
</g>
<!-- Node134&#45;&gt;Node32 -->
<g id="edge50" class="edge"><title>Node134&#45;&gt;Node32</title>
<path fill="none" stroke="midnightblue" d="M1175.53,-133.72C1196.67,-153.238 1244.51,-197.391 1270.64,-221.512"/>
<polygon fill="midnightblue" stroke="midnightblue" points="1268.28,-224.094 1278,-228.305 1273.02,-218.95 1268.28,-224.094"/>
</g>
<!-- Node137&#45;&gt;Node11 -->
<g id="edge52" class="edge"><title>Node137&#45;&gt;Node11</title>
<path fill="none" stroke="midnightblue" d="M711.386,-428C727.407,-428 744.821,-428 760.001,-428"/>
<polygon fill="midnightblue" stroke="midnightblue" points="760.108,-431.5 770.108,-428 760.108,-424.5 760.108,-431.5"/>
</g>
<!-- Node148 -->
<g id="node40" class="node"><title>Node148</title>
<g id="a_node40"><a xlink:href="lapi_8c.html#afbb08ecb69421875494105d4de68e5bf" target="_top" xlink:title=" ">
<polygon fill="white" stroke="black" points="771,-475.5 771,-494.5 833,-494.5 833,-475.5 771,-475.5"/>
<text text-anchor="middle" x="802" y="-482.5" font-family="Helvetica,sans-Serif" font-size="10.00">lua_gettop</text>
</a>
</g>
</g>
<!-- Node137&#45;&gt;Node148 -->
<g id="edge53" class="edge"><title>Node137&#45;&gt;Node148</title>
<path fill="none" stroke="midnightblue" d="M686.053,-437.531C694.096,-440.489 702.935,-443.812 711,-447 730.514,-454.715 752.187,-463.848 769.374,-471.227"/>
<polygon fill="midnightblue" stroke="midnightblue" points="768.357,-474.599 778.925,-475.344 771.128,-468.171 768.357,-474.599"/>
</g>
<!-- Node157&#45;&gt;Node4 -->
<g id="edge56" class="edge"><title>Node157&#45;&gt;Node4</title>
<path fill="none" stroke="midnightblue" d="M441.321,-541.413C475.818,-542.008 527.706,-545.777 570,-561 595.857,-570.307 621.77,-588.576 638.608,-601.931"/>
<polygon fill="midnightblue" stroke="midnightblue" points="636.575,-604.789 646.537,-608.394 640.997,-599.363 636.575,-604.789"/>
</g>
<!-- Node158&#45;&gt;Node11 -->
<g id="edge61" class="edge"><title>Node158&#45;&gt;Node11</title>
<path fill="none" stroke="midnightblue" d="M434.444,-342.495C448.242,-338.73 464.786,-334.861 480,-333 519.704,-328.143 530.759,-325.246 570,-333 648.538,-348.519 733.937,-391.062 775.455,-413.581"/>
<polygon fill="midnightblue" stroke="midnightblue" points="773.884,-416.711 784.334,-418.456 777.253,-410.575 773.884,-416.711"/>
</g>
<!-- Node158&#45;&gt;Node130 -->
<g id="edge62" class="edge"><title>Node158&#45;&gt;Node130</title>
<path fill="none" stroke="midnightblue" d="M414.132,-361.737C428.245,-374.215 454.379,-395.806 480,-409 522.741,-431.01 575.639,-446.668 612.519,-455.935"/>
<polygon fill="midnightblue" stroke="midnightblue" points="611.929,-459.394 622.475,-458.379 613.598,-452.596 611.929,-459.394"/>
</g>
<!-- Node158&#45;&gt;Node132 -->
<g id="edge60" class="edge"><title>Node158&#45;&gt;Node132</title>
<path fill="none" stroke="midnightblue" d="M413.898,-342.247C427.758,-329.922 453.618,-309.208 480,-300 575.765,-266.575 697.092,-268.482 759.597,-272.422"/>
<polygon fill="midnightblue" stroke="midnightblue" points="759.624,-275.932 769.838,-273.12 760.1,-268.948 759.624,-275.932"/>
</g>
<!-- Node158&#45;&gt;Node148 -->
<g id="edge63" class="edge"><title>Node158&#45;&gt;Node148</title>
<path fill="none" stroke="midnightblue" d="M405.589,-361.718C411.711,-387.473 432.27,-457.392 480,-485 569.063,-536.517 696.618,-513.727 760.824,-497.015"/>
<polygon fill="midnightblue" stroke="midnightblue" points="761.819,-500.371 770.569,-494.397 760.003,-493.611 761.819,-500.371"/>
</g>
<!-- Node159 -->
<g id="node44" class="node"><title>Node159</title>
<g id="a_node44"><a xlink:href="lauxlib_8c.html#af3eb164386f8acd9cfd63e7ea4ad4dad" target="_top" xlink:title=" ">
<polygon fill="white" stroke="black" points="499.5,-456.5 499.5,-475.5 550.5,-475.5 550.5,-456.5 499.5,-456.5"/>
<text text-anchor="middle" x="525" y="-463.5" font-family="Helvetica,sans-Serif" font-size="10.00">lastlevel</text>
</a>
</g>
</g>
<!-- Node158&#45;&gt;Node159 -->
<g id="edge58" class="edge"><title>Node158&#45;&gt;Node159</title>
<path fill="none" stroke="midnightblue" d="M409.914,-361.68C421.985,-379.351 449.614,-417.285 480,-442 484.196,-445.413 488.948,-448.583 493.739,-451.427"/>
<polygon fill="midnightblue" stroke="midnightblue" points="492.419,-454.697 502.864,-456.474 495.807,-448.571 492.419,-454.697"/>
</g>
<!-- Node136 -->
<g id="node45" class="node"><title>Node136</title>
<g id="a_node45"><a xlink:href="lapi_8c.html#ab190c226d38b289e6ca57683a9d4e0f0" target="_top" xlink:title=" ">
<polygon fill="white" stroke="black" points="617.5,-190.5 617.5,-209.5 699.5,-209.5 699.5,-190.5 617.5,-190.5"/>
<text text-anchor="middle" x="658.5" y="-197.5" font-family="Helvetica,sans-Serif" font-size="10.00">lua_pushfstring</text>
</a>
</g>
</g>
<!-- Node158&#45;&gt;Node136 -->
<g id="edge64" class="edge"><title>Node158&#45;&gt;Node136</title>
<path fill="none" stroke="midnightblue" d="M405.854,-342.191C412.509,-316.826 434.033,-248.967 480,-219 517.495,-194.556 569.176,-191.645 607.104,-193.751"/>
<polygon fill="midnightblue" stroke="midnightblue" points="607.196,-197.266 617.414,-194.464 607.679,-190.282 607.196,-197.266"/>
</g>
<!-- Node160 -->
<g id="node46" class="node"><title>Node160</title>
<g id="a_node46"><a xlink:href="lauxlib_8c.html#a7c46517055e0e8cb25e61b959709083a" target="_top" xlink:title=" ">
<polygon fill="white" stroke="black" points="480,-228.5 480,-247.5 570,-247.5 570,-228.5 480,-228.5"/>
<text text-anchor="middle" x="525" y="-235.5" font-family="Helvetica,sans-Serif" font-size="10.00">luaL_checkstack</text>
</a>
</g>
</g>
<!-- Node158&#45;&gt;Node160 -->
<g id="edge66" class="edge"><title>Node158&#45;&gt;Node160</title>
<path fill="none" stroke="midnightblue" d="M409.914,-342.32C421.985,-324.649 449.614,-286.715 480,-262 484.196,-258.587 488.948,-255.417 493.739,-252.573"/>
<polygon fill="midnightblue" stroke="midnightblue" points="495.807,-255.429 502.864,-247.526 492.419,-249.303 495.807,-255.429"/>
</g>
<!-- Node166 -->
<g id="node50" class="node"><title>Node166</title>
<g id="a_node50"><a xlink:href="lauxlib_8c.html#a0aa557042467d3f84d0663c742b32946" target="_top" xlink:title=" ">
<polygon fill="white" stroke="black" points="485,-342.5 485,-361.5 565,-361.5 565,-342.5 485,-342.5"/>
<text text-anchor="middle" x="525" y="-349.5" font-family="Helvetica,sans-Serif" font-size="10.00">pushfuncname</text>
</a>
</g>
</g>
<!-- Node158&#45;&gt;Node166 -->
<g id="edge71" class="edge"><title>Node158&#45;&gt;Node166</title>
<path fill="none" stroke="midnightblue" d="M444.296,-352C454.025,-352 464.513,-352 474.583,-352"/>
<polygon fill="midnightblue" stroke="midnightblue" points="474.877,-355.5 484.877,-352 474.877,-348.5 474.877,-355.5"/>
</g>
<!-- Node159&#45;&gt;Node130 -->
<g id="edge59" class="edge"><title>Node159&#45;&gt;Node130</title>
<path fill="none" stroke="midnightblue" d="M550.734,-466C568.046,-466 591.674,-466 612.302,-466"/>
<polygon fill="midnightblue" stroke="midnightblue" points="612.455,-469.5 622.455,-466 612.455,-462.5 612.455,-469.5"/>
</g>
<!-- Node136&#45;&gt;Node32 -->
<g id="edge65" class="edge"><title>Node136&#45;&gt;Node32</title>
<path fill="none" stroke="midnightblue" d="M672.137,-190.477C709.793,-163.078 825.377,-86 934,-86 934,-86 934,-86 1050,-86 1120.29,-86 1147.85,-67.0276 1207,-105 1248.81,-131.842 1272.55,-188.522 1282.65,-218.485"/>
<polygon fill="midnightblue" stroke="midnightblue" points="1279.38,-219.752 1285.76,-228.21 1286.05,-217.619 1279.38,-219.752"/>
</g>
<!-- Node160&#45;&gt;Node131 -->
<g id="edge70" class="edge"><title>Node160&#45;&gt;Node131</title>
<path fill="none" stroke="midnightblue" d="M570.153,-238C585.916,-238 603.54,-238 618.808,-238"/>
<polygon fill="midnightblue" stroke="midnightblue" points="618.949,-241.5 628.949,-238 618.949,-234.5 618.949,-241.5"/>
</g>
<!-- Node161 -->
<g id="node47" class="node"><title>Node161</title>
<g id="a_node47"><a xlink:href="lapi_8c.html#a1d762b92d5d82d6fa9f54ccf5c89d6a2" target="_top" xlink:title=" ">
<polygon fill="white" stroke="black" points="616,-38.5 616,-57.5 701,-57.5 701,-38.5 616,-38.5"/>
<text text-anchor="middle" x="658.5" y="-45.5" font-family="Helvetica,sans-Serif" font-size="10.00">lua_checkstack</text>
</a>
</g>
</g>
<!-- Node160&#45;&gt;Node161 -->
<g id="edge67" class="edge"><title>Node160&#45;&gt;Node161</title>
<path fill="none" stroke="midnightblue" d="M532.702,-228.317C553.537,-198.213 617.417,-105.915 644.81,-66.3353"/>
<polygon fill="midnightblue" stroke="midnightblue" points="647.841,-68.1063 650.654,-57.8917 642.085,-64.1225 647.841,-68.1063"/>
</g>
<!-- Node162 -->
<g id="node48" class="node"><title>Node162</title>
<g id="a_node48"><a xlink:href="lapi_8c.html#ab3a8303d450a61e55f7928da1fe14302" target="_top" xlink:title=" ">
<polygon fill="white" stroke="red" points="771.5,-0.5 771.5,-19.5 832.5,-19.5 832.5,-0.5 771.5,-0.5"/>
<text text-anchor="middle" x="802" y="-7.5" font-family="Helvetica,sans-Serif" font-size="10.00">growstack</text>
</a>
</g>
</g>
<!-- Node161&#45;&gt;Node162 -->
<g id="edge68" class="edge"><title>Node161&#45;&gt;Node162</title>
<path fill="none" stroke="midnightblue" d="M695.206,-38.411C715.329,-33.0071 740.511,-26.2443 761.258,-20.6726"/>
<polygon fill="midnightblue" stroke="midnightblue" points="762.296,-24.0182 771.046,-18.0443 760.48,-17.2578 762.296,-24.0182"/>
</g>
<!-- Node85 -->
<g id="node49" class="node"><title>Node85</title>
<g id="a_node49"><a xlink:href="ldo_8c.html#ab0872b1738a995ecbf1cdc8a9bc0fdf6" target="_top" xlink:title=" ">
<polygon fill="white" stroke="black" points="747,-38.5 747,-57.5 857,-57.5 857,-38.5 747,-38.5"/>
<text text-anchor="middle" x="802" y="-45.5" font-family="Helvetica,sans-Serif" font-size="10.00">luaD_rawrunprotected</text>
</a>
</g>
</g>
<!-- Node161&#45;&gt;Node85 -->
<g id="edge69" class="edge"><title>Node161&#45;&gt;Node85</title>
<path fill="none" stroke="midnightblue" d="M701.189,-48C712.335,-48 724.645,-48 736.703,-48"/>
<polygon fill="midnightblue" stroke="midnightblue" points="736.741,-51.5001 746.741,-48 736.741,-44.5001 736.741,-51.5001"/>
</g>
<!-- Node166&#45;&gt;Node137 -->
<g id="edge73" class="edge"><title>Node166&#45;&gt;Node137</title>
<path fill="none" stroke="midnightblue" d="M550.098,-361.532C556.66,-364.362 563.695,-367.617 570,-371 593.399,-383.556 618.665,-400.403 636.003,-412.521"/>
<polygon fill="midnightblue" stroke="midnightblue" points="634.108,-415.467 644.295,-418.379 638.147,-409.75 634.108,-415.467"/>
</g>
<!-- Node166&#45;&gt;Node136 -->
<g id="edge72" class="edge"><title>Node166&#45;&gt;Node136</title>
<path fill="none" stroke="midnightblue" d="M529.193,-342.461C537.745,-318.319 563.445,-254.219 606,-219 608.024,-217.325 610.208,-215.791 612.496,-214.386"/>
<polygon fill="midnightblue" stroke="midnightblue" points="614.457,-217.311 621.708,-209.587 611.223,-211.103 614.457,-217.311"/>
</g>
</g>
</svg>
