<?xml version="1.0" encoding="UTF-8" standalone="no"?>
<!DOCTYPE svg PUBLIC "-//W3C//DTD SVG 1.1//EN"
 "http://www.w3.org/Graphics/SVG/1.1/DTD/svg11.dtd">
<!-- Generated by graphviz version 2.38.0 (20140413.2041)
 -->
<!-- Title: luaG_typeerror Pages: 1 -->
<svg width="744pt" height="999pt"
 viewBox="0.00 0.00 744.00 998.66" xmlns="http://www.w3.org/2000/svg" xmlns:xlink="http://www.w3.org/1999/xlink">
<g id="graph0" class="graph" transform="scale(1 1) rotate(0) translate(4 994.658)">
<title>luaG_typeerror</title>
<polygon fill="white" stroke="none" points="-4,4 -4,-994.658 740,-994.658 740,4 -4,4"/>
<!-- Node1 -->
<g id="node1" class="node"><title>Node1</title>
<g id="a_node1"><a xlink:title=" ">
<polygon fill="#bfbfbf" stroke="black" points="656,-742.158 656,-761.158 736,-761.158 736,-742.158 656,-742.158"/>
<text text-anchor="middle" x="696" y="-749.158" font-family="Helvetica,sans-Serif" font-size="10.00">luaG_typeerror</text>
</a>
</g>
</g>
<!-- Node2 -->
<g id="node2" class="node"><title>Node2</title>
<g id="a_node2"><a xlink:href="ldebug_8h.html#af54afa3e0397d5d99cb1b47bf0314b34" target="_top" xlink:title=" ">
<polygon fill="white" stroke="black" points="529,-837.158 529,-856.158 620,-856.158 620,-837.158 529,-837.158"/>
<text text-anchor="middle" x="574.5" y="-844.158" font-family="Helvetica,sans-Serif" font-size="10.00">luaG_concaterror</text>
</a>
</g>
</g>
<!-- Node1&#45;&gt;Node2 -->
<g id="edge1" class="edge"><title>Node1&#45;&gt;Node2</title>
<path fill="none" stroke="midnightblue" d="M681.189,-769.172C667.218,-785.963 644.27,-811.133 620,-827.658 614.723,-831.251 608.657,-834.385 602.736,-837.016"/>
<polygon fill="midnightblue" stroke="midnightblue" points="684.042,-771.211 687.637,-761.245 678.611,-766.794 684.042,-771.211"/>
</g>
<!-- Node395 -->
<g id="node15" class="node"><title>Node395</title>
<g id="a_node15"><a xlink:href="ldebug_8h.html#a2cd0d4056a77c01bf1bc52a2054570d1" target="_top" xlink:title=" ">
<polygon fill="white" stroke="black" points="533,-799.158 533,-818.158 616,-818.158 616,-799.158 533,-799.158"/>
<text text-anchor="middle" x="574.5" y="-806.158" font-family="Helvetica,sans-Serif" font-size="10.00">luaG_opinterror</text>
</a>
</g>
</g>
<!-- Node1&#45;&gt;Node395 -->
<g id="edge18" class="edge"><title>Node1&#45;&gt;Node395</title>
<path fill="none" stroke="midnightblue" d="M667.804,-765.977C653.657,-773.288 636.016,-782.191 620,-789.658 613.148,-792.852 605.613,-796.149 598.724,-799.081"/>
<polygon fill="midnightblue" stroke="midnightblue" points="669.719,-768.926 676.977,-761.207 666.49,-762.716 669.719,-768.926"/>
</g>
<!-- Node354 -->
<g id="node16" class="node"><title>Node354</title>
<g id="a_node16"><a xlink:href="lvm_8h.html#a282d1037898c9b77aae41b12327a6c72" target="_top" xlink:title=" ">
<polygon fill="white" stroke="black" points="536,-600.158 536,-619.158 613,-619.158 613,-600.158 536,-600.158"/>
<text text-anchor="middle" x="574.5" y="-607.158" font-family="Helvetica,sans-Serif" font-size="10.00">luaV_finishget</text>
</a>
</g>
</g>
<!-- Node1&#45;&gt;Node354 -->
<g id="edge20" class="edge"><title>Node1&#45;&gt;Node354</title>
<path fill="none" stroke="midnightblue" d="M680.049,-733.892C654.604,-703.656 603.7,-643.168 583.771,-619.486"/>
<polygon fill="midnightblue" stroke="midnightblue" points="677.669,-736.5 686.786,-741.898 683.025,-731.993 677.669,-736.5"/>
</g>
<!-- Node367 -->
<g id="node39" class="node"><title>Node367</title>
<g id="a_node39"><a xlink:href="lvm_8h.html#a57c2754ff3ea895f8206b4a67e762337" target="_top" xlink:title=" ">
<polygon fill="white" stroke="black" points="536,-363.158 536,-382.158 613,-382.158 613,-363.158 536,-363.158"/>
<text text-anchor="middle" x="574.5" y="-370.158" font-family="Helvetica,sans-Serif" font-size="10.00">luaV_finishset</text>
</a>
</g>
</g>
<!-- Node1&#45;&gt;Node367 -->
<g id="edge46" class="edge"><title>Node1&#45;&gt;Node367</title>
<path fill="none" stroke="midnightblue" d="M688.904,-732.325C667.236,-663.604 594.387,-432.559 578.554,-382.343"/>
<polygon fill="midnightblue" stroke="midnightblue" points="685.581,-733.424 691.926,-741.908 692.257,-731.319 685.581,-733.424"/>
</g>
<!-- Node388 -->
<g id="node46" class="node"><title>Node388</title>
<g id="a_node46"><a xlink:href="lvm_8h.html#a414b4b487239935324f2f16e1e7715db" target="_top" xlink:title=" ">
<polygon fill="white" stroke="black" points="541,-723.158 541,-742.158 608,-742.158 608,-723.158 541,-723.158"/>
<text text-anchor="middle" x="574.5" y="-730.158" font-family="Helvetica,sans-Serif" font-size="10.00">luaV_objlen</text>
</a>
</g>
</g>
<!-- Node1&#45;&gt;Node388 -->
<g id="edge61" class="edge"><title>Node1&#45;&gt;Node388</title>
<path fill="none" stroke="midnightblue" d="M645.904,-743.852C633.243,-741.839 619.923,-739.721 608.317,-737.875"/>
<polygon fill="midnightblue" stroke="midnightblue" points="645.446,-747.323 655.871,-745.436 646.545,-740.41 645.446,-747.323"/>
</g>
<!-- Node396 -->
<g id="node49" class="node"><title>Node396</title>
<g id="a_node49"><a xlink:href="ldo_8c.html#a47c0dbcf19b5c674e4204a3e69e17608" target="_top" xlink:title=" ">
<polygon fill="white" stroke="black" points="545,-761.158 545,-780.158 604,-780.158 604,-761.158 545,-761.158"/>
<text text-anchor="middle" x="574.5" y="-768.158" font-family="Helvetica,sans-Serif" font-size="10.00">tryfuncTM</text>
</a>
</g>
</g>
<!-- Node1&#45;&gt;Node396 -->
<g id="edge66" class="edge"><title>Node1&#45;&gt;Node396</title>
<path fill="none" stroke="midnightblue" d="M645.741,-759.49C631.566,-761.743 616.578,-764.126 604.104,-766.11"/>
<polygon fill="midnightblue" stroke="midnightblue" points="646.545,-762.906 655.871,-757.879 645.446,-755.993 646.545,-762.906"/>
</g>
<!-- Node3 -->
<g id="node3" class="node"><title>Node3</title>
<g id="a_node3"><a xlink:href="ltm_8h.html#a52f9c211746126a08117801bd7e2d826" target="_top" xlink:title=" ">
<polygon fill="white" stroke="black" points="416,-837.158 416,-856.158 493,-856.158 493,-837.158 416,-837.158"/>
<text text-anchor="middle" x="454.5" y="-844.158" font-family="Helvetica,sans-Serif" font-size="10.00">luaT_trybinTM</text>
</a>
</g>
</g>
<!-- Node2&#45;&gt;Node3 -->
<g id="edge2" class="edge"><title>Node2&#45;&gt;Node3</title>
<path fill="none" stroke="midnightblue" d="M518.83,-846.658C510.173,-846.658 501.392,-846.658 493.237,-846.658"/>
<polygon fill="midnightblue" stroke="midnightblue" points="518.889,-850.158 528.889,-846.658 518.889,-843.158 518.889,-850.158"/>
</g>
<!-- Node4 -->
<g id="node4" class="node"><title>Node4</title>
<g id="a_node4"><a xlink:href="lobject_8h.html#a00fa395f057580ca2a3eb3894b5282e4" target="_top" xlink:title=" ">
<polygon fill="white" stroke="black" points="312.5,-933.158 312.5,-952.158 373.5,-952.158 373.5,-933.158 312.5,-933.158"/>
<text text-anchor="middle" x="343" y="-940.158" font-family="Helvetica,sans-Serif" font-size="10.00">luaO_arith</text>
</a>
</g>
</g>
<!-- Node3&#45;&gt;Node4 -->
<g id="edge3" class="edge"><title>Node3&#45;&gt;Node4</title>
<path fill="none" stroke="midnightblue" d="M434.888,-862.975C411.89,-883.138 373.518,-916.779 354.856,-933.141"/>
<polygon fill="midnightblue" stroke="midnightblue" points="437.388,-865.438 442.6,-856.214 432.774,-860.174 437.388,-865.438"/>
</g>
<!-- Node58 -->
<g id="node7" class="node"><title>Node58</title>
<g id="a_node7"><a xlink:href="lvm_8h.html#aee84bfc563cb4bdd21a013218a289aa7" target="_top" xlink:title=" ">
<polygon fill="white" stroke="black" points="307.5,-875.158 307.5,-894.158 378.5,-894.158 378.5,-875.158 307.5,-875.158"/>
<text text-anchor="middle" x="343" y="-882.158" font-family="Helvetica,sans-Serif" font-size="10.00">luaV_concat</text>
</a>
</g>
</g>
<!-- Node3&#45;&gt;Node58 -->
<g id="edge6" class="edge"><title>Node3&#45;&gt;Node58</title>
<path fill="none" stroke="midnightblue" d="M416.121,-859.63C401.532,-864.692 385.108,-870.392 371.623,-875.072"/>
<polygon fill="midnightblue" stroke="midnightblue" points="417.569,-862.832 425.869,-856.247 415.274,-856.219 417.569,-862.832"/>
</g>
<!-- Node325 -->
<g id="node10" class="node"><title>Node325</title>
<g id="a_node10"><a xlink:href="lvm_8h.html#ae93565adc36c6e2157dbbd875433ede1" target="_top" xlink:title=" ">
<polygon fill="white" stroke="black" points="185.5,-781.158 185.5,-800.158 261.5,-800.158 261.5,-781.158 185.5,-781.158"/>
<text text-anchor="middle" x="223.5" y="-788.158" font-family="Helvetica,sans-Serif" font-size="10.00">luaV_execute</text>
</a>
</g>
</g>
<!-- Node3&#45;&gt;Node325 -->
<g id="edge17" class="edge"><title>Node3&#45;&gt;Node325</title>
<path fill="none" stroke="midnightblue" d="M405.818,-841.514C376.66,-837.727 338.789,-831.652 306,-822.658 294.639,-819.541 267.158,-808.468 247.242,-800.215"/>
<polygon fill="midnightblue" stroke="midnightblue" points="405.388,-844.988 415.746,-842.76 406.259,-838.042 405.388,-844.988"/>
</g>
<!-- Node5 -->
<g id="node5" class="node"><title>Node5</title>
<g id="a_node5"><a xlink:href="lcode_8c.html#a690b5c3cf2d262aaef28188ecc62d1b2" target="_top" xlink:title=" ">
<polygon fill="white" stroke="red" points="189.5,-971.158 189.5,-990.158 257.5,-990.158 257.5,-971.158 189.5,-971.158"/>
<text text-anchor="middle" x="223.5" y="-978.158" font-family="Helvetica,sans-Serif" font-size="10.00">constfolding</text>
</a>
</g>
</g>
<!-- Node4&#45;&gt;Node5 -->
<g id="edge4" class="edge"><title>Node4&#45;&gt;Node5</title>
<path fill="none" stroke="midnightblue" d="M302.791,-955.338C286.915,-960.473 268.89,-966.302 254.141,-971.072"/>
<polygon fill="midnightblue" stroke="midnightblue" points="303.912,-958.654 312.35,-952.247 301.758,-951.994 303.912,-958.654"/>
</g>
<!-- Node57 -->
<g id="node6" class="node"><title>Node57</title>
<g id="a_node6"><a xlink:href="lua_8h.html#ab0a8e0d4a119fa51c2785e25d5b5aa08" target="_top" xlink:title=" ">
<polygon fill="white" stroke="black" points="197,-933.158 197,-952.158 250,-952.158 250,-933.158 197,-933.158"/>
<text text-anchor="middle" x="223.5" y="-940.158" font-family="Helvetica,sans-Serif" font-size="10.00">lua_arith</text>
</a>
</g>
</g>
<!-- Node4&#45;&gt;Node57 -->
<g id="edge5" class="edge"><title>Node4&#45;&gt;Node57</title>
<path fill="none" stroke="midnightblue" d="M302.035,-942.658C284.875,-942.658 265.325,-942.658 250.15,-942.658"/>
<polygon fill="midnightblue" stroke="midnightblue" points="302.35,-946.158 312.35,-942.658 302.35,-939.158 302.35,-946.158"/>
</g>
<!-- Node59 -->
<g id="node8" class="node"><title>Node59</title>
<g id="a_node8"><a xlink:href="lua_8h.html#a4eba0457df5bafff4d44071d1d8080b6" target="_top" xlink:title=" ">
<polygon fill="white" stroke="red" points="191.5,-895.158 191.5,-914.158 255.5,-914.158 255.5,-895.158 191.5,-895.158"/>
<text text-anchor="middle" x="223.5" y="-902.158" font-family="Helvetica,sans-Serif" font-size="10.00">lua_concat</text>
</a>
</g>
</g>
<!-- Node58&#45;&gt;Node59 -->
<g id="edge7" class="edge"><title>Node58&#45;&gt;Node59</title>
<path fill="none" stroke="midnightblue" d="M297.485,-892.235C283.55,-894.607 268.479,-897.172 255.67,-899.352"/>
<polygon fill="midnightblue" stroke="midnightblue" points="298.111,-895.679 307.382,-890.55 296.936,-888.778 298.111,-895.679"/>
</g>
<!-- Node289 -->
<g id="node9" class="node"><title>Node289</title>
<g id="a_node9"><a xlink:href="lobject_8h.html#a0d323372aa00f179e1c070d305f879f3" target="_top" xlink:title=" ">
<polygon fill="white" stroke="red" points="177,-857.158 177,-876.158 270,-876.158 270,-857.158 177,-857.158"/>
<text text-anchor="middle" x="223.5" y="-864.158" font-family="Helvetica,sans-Serif" font-size="10.00">luaO_pushvfstring</text>
</a>
</g>
</g>
<!-- Node58&#45;&gt;Node289 -->
<g id="edge8" class="edge"><title>Node58&#45;&gt;Node289</title>
<path fill="none" stroke="midnightblue" d="M297.246,-877.802C288.392,-876.445 279.087,-875.02 270.202,-873.659"/>
<polygon fill="midnightblue" stroke="midnightblue" points="296.967,-881.3 307.382,-879.354 298.027,-874.381 296.967,-881.3"/>
</g>
<!-- Node58&#45;&gt;Node325 -->
<g id="edge9" class="edge"><title>Node58&#45;&gt;Node325</title>
<path fill="none" stroke="midnightblue" d="M316.402,-869.318C312.738,-866.641 309.148,-863.723 306,-860.658 286.122,-841.302 291.646,-827.014 270,-809.658 265.325,-805.909 259.805,-802.79 254.251,-800.236"/>
<polygon fill="midnightblue" stroke="midnightblue" points="314.674,-872.375 324.916,-875.086 318.6,-866.58 314.674,-872.375"/>
</g>
<!-- Node555 -->
<g id="node14" class="node"><title>Node555</title>
<g id="a_node14"><a xlink:href="lvm_8h.html#a5db3e64b3cc2f63c3b10b27f7ecd1d03" target="_top" xlink:title=" ">
<polygon fill="white" stroke="black" points="185,-819.158 185,-838.158 262,-838.158 262,-819.158 185,-819.158"/>
<text text-anchor="middle" x="223.5" y="-826.158" font-family="Helvetica,sans-Serif" font-size="10.00">luaV_finishOp</text>
</a>
</g>
</g>
<!-- Node58&#45;&gt;Node555 -->
<g id="edge15" class="edge"><title>Node58&#45;&gt;Node555</title>
<path fill="none" stroke="midnightblue" d="M315.271,-870.283C301.816,-863.212 285.178,-854.713 270,-847.658 263.014,-844.41 255.316,-841.098 248.271,-838.167"/>
<polygon fill="midnightblue" stroke="midnightblue" points="313.964,-873.552 324.44,-875.14 317.241,-867.366 313.964,-873.552"/>
</g>
<!-- Node326 -->
<g id="node11" class="node"><title>Node326</title>
<g id="a_node11"><a xlink:href="ldo_8h.html#a4797364de1dd297aac52f9c10565523f" target="_top" xlink:title=" ">
<polygon fill="white" stroke="red" points="85,-743.158 85,-762.158 141,-762.158 141,-743.158 85,-743.158"/>
<text text-anchor="middle" x="113" y="-750.158" font-family="Helvetica,sans-Serif" font-size="10.00">luaD_call</text>
</a>
</g>
</g>
<!-- Node325&#45;&gt;Node326 -->
<g id="edge10" class="edge"><title>Node325&#45;&gt;Node326</title>
<path fill="none" stroke="midnightblue" d="M199.075,-776.784C182.044,-769.473 158.947,-761.296 141.117,-756.22"/>
<polygon fill="midnightblue" stroke="midnightblue" points="197.761,-780.032 208.316,-780.959 200.643,-773.652 197.761,-780.032"/>
</g>
<!-- Node390 -->
<g id="node12" class="node"><title>Node390</title>
<g id="a_node12"><a xlink:href="ldo_8c.html#abd7632c715de5db6e7797b7fa3f7010f" target="_top" xlink:title=" ">
<polygon fill="white" stroke="red" points="0,-781.158 0,-800.158 49,-800.158 49,-781.158 0,-781.158"/>
<text text-anchor="middle" x="24.5" y="-788.158" font-family="Helvetica,sans-Serif" font-size="10.00">resume</text>
</a>
</g>
</g>
<!-- Node325&#45;&gt;Node390 -->
<g id="edge12" class="edge"><title>Node325&#45;&gt;Node390</title>
<path fill="none" stroke="midnightblue" d="M175.426,-790.658C135.601,-790.658 80.1888,-790.658 49.0931,-790.658"/>
<polygon fill="midnightblue" stroke="midnightblue" points="175.446,-794.158 185.446,-790.658 175.446,-787.158 175.446,-794.158"/>
</g>
<!-- Node392 -->
<g id="node13" class="node"><title>Node392</title>
<g id="a_node13"><a xlink:href="ldo_8c.html#a3baab9d298c0c32cb74a9a079d7244de" target="_top" xlink:title=" ">
<polygon fill="white" stroke="red" points="93,-819.158 93,-838.158 133,-838.158 133,-819.158 93,-819.158"/>
<text text-anchor="middle" x="113" y="-826.158" font-family="Helvetica,sans-Serif" font-size="10.00">unroll</text>
</a>
</g>
</g>
<!-- Node325&#45;&gt;Node392 -->
<g id="edge13" class="edge"><title>Node325&#45;&gt;Node392</title>
<path fill="none" stroke="midnightblue" d="M185.666,-803.558C168.04,-809.731 147.671,-816.865 133.163,-821.946"/>
<polygon fill="midnightblue" stroke="midnightblue" points="186.84,-806.856 195.121,-800.247 184.526,-800.249 186.84,-806.856"/>
</g>
<!-- Node326&#45;&gt;Node325 -->
<g id="edge11" class="edge"><title>Node326&#45;&gt;Node325</title>
<path fill="none" stroke="midnightblue" d="M137.178,-766.425C151.223,-772.468 169.458,-779.117 185.464,-784.125"/>
<polygon fill="midnightblue" stroke="midnightblue" points="138.337,-763.108 127.785,-762.164 135.446,-769.483 138.337,-763.108"/>
</g>
<!-- Node392&#45;&gt;Node390 -->
<g id="edge14" class="edge"><title>Node392&#45;&gt;Node390</title>
<path fill="none" stroke="midnightblue" d="M83.4209,-816.103C71.6881,-810.948 58.3212,-805.076 47.387,-800.273"/>
<polygon fill="midnightblue" stroke="midnightblue" points="82.2396,-819.407 92.8028,-820.224 85.0551,-812.998 82.2396,-819.407"/>
</g>
<!-- Node555&#45;&gt;Node392 -->
<g id="edge16" class="edge"><title>Node555&#45;&gt;Node392</title>
<path fill="none" stroke="midnightblue" d="M174.444,-828.658C159.915,-828.658 144.786,-828.658 133.298,-828.658"/>
<polygon fill="midnightblue" stroke="midnightblue" points="174.857,-832.158 184.856,-828.658 174.856,-825.158 174.857,-832.158"/>
</g>
<!-- Node395&#45;&gt;Node3 -->
<g id="edge19" class="edge"><title>Node395&#45;&gt;Node3</title>
<path fill="none" stroke="midnightblue" d="M534.124,-821.338C518.18,-826.473 500.079,-832.302 485.267,-837.072"/>
<polygon fill="midnightblue" stroke="midnightblue" points="535.278,-824.644 543.724,-818.247 533.132,-817.981 535.278,-824.644"/>
</g>
<!-- Node354&#45;&gt;Node325 -->
<g id="edge45" class="edge"><title>Node354&#45;&gt;Node325</title>
<path fill="none" stroke="midnightblue" d="M547.199,-624.494C514.852,-643.297 458.955,-677.624 416,-713.658 398.177,-728.61 400.084,-739.915 380,-751.658 343.118,-773.222 294.559,-782.947 261.586,-787.279"/>
<polygon fill="midnightblue" stroke="midnightblue" points="549.137,-627.417 556.055,-619.393 545.643,-621.351 549.137,-627.417"/>
</g>
<!-- Node355 -->
<g id="node17" class="node"><title>Node355</title>
<g id="a_node17"><a xlink:href="lapi_8c.html#a1b28b3a312121ffb29541632648b9f78" target="_top" xlink:title=" ">
<polygon fill="white" stroke="black" points="426,-249.158 426,-268.158 483,-268.158 483,-249.158 426,-249.158"/>
<text text-anchor="middle" x="454.5" y="-256.158" font-family="Helvetica,sans-Serif" font-size="10.00">auxgetstr</text>
</a>
</g>
</g>
<!-- Node354&#45;&gt;Node355 -->
<g id="edge21" class="edge"><title>Node354&#45;&gt;Node355</title>
<path fill="none" stroke="midnightblue" d="M567.851,-590.041C555.33,-546.951 523.9,-440.924 493,-353.658 481.814,-322.067 466.705,-285.341 459.563,-268.282"/>
<polygon fill="midnightblue" stroke="midnightblue" points="564.536,-591.176 570.678,-599.809 571.26,-589.23 564.536,-591.176"/>
</g>
<!-- Node366 -->
<g id="node30" class="node"><title>Node366</title>
<g id="a_node30"><a xlink:href="lua_8h.html#aa61540e05598186dd6afb26e0f37716c" target="_top" xlink:title=" ">
<polygon fill="white" stroke="black" points="429.5,-515.158 429.5,-534.158 479.5,-534.158 479.5,-515.158 429.5,-515.158"/>
<text text-anchor="middle" x="454.5" y="-522.158" font-family="Helvetica,sans-Serif" font-size="10.00">lua_geti</text>
</a>
</g>
</g>
<!-- Node354&#45;&gt;Node366 -->
<g id="edge35" class="edge"><title>Node354&#45;&gt;Node366</title>
<path fill="none" stroke="midnightblue" d="M551.733,-593.978C527.487,-576.513 489.056,-548.829 468.878,-534.295"/>
<polygon fill="midnightblue" stroke="midnightblue" points="549.804,-596.902 559.964,-599.907 553.896,-591.222 549.804,-596.902"/>
</g>
<!-- Node356 -->
<g id="node18" class="node"><title>Node356</title>
<g id="a_node18"><a xlink:href="lua_8h.html#aa97386935b690dd478abd7c6fb89bef8" target="_top" xlink:title=" ">
<polygon fill="white" stroke="red" points="310.5,-249.158 310.5,-268.158 375.5,-268.158 375.5,-249.158 310.5,-249.158"/>
<text text-anchor="middle" x="343" y="-256.158" font-family="Helvetica,sans-Serif" font-size="10.00">lua_getfield</text>
</a>
</g>
</g>
<!-- Node355&#45;&gt;Node356 -->
<g id="edge22" class="edge"><title>Node355&#45;&gt;Node356</title>
<path fill="none" stroke="midnightblue" d="M415.812,-258.658C402.811,-258.658 388.385,-258.658 375.893,-258.658"/>
<polygon fill="midnightblue" stroke="midnightblue" points="415.869,-262.158 425.869,-258.658 415.868,-255.158 415.869,-262.158"/>
</g>
<!-- Node364 -->
<g id="node29" class="node"><title>Node364</title>
<g id="a_node29"><a xlink:href="lua_8h.html#aed0bba8f94a9dc573ac77becd0f0c5e9" target="_top" xlink:title=" ">
<polygon fill="white" stroke="red" points="306,-173.158 306,-192.158 380,-192.158 380,-173.158 306,-173.158"/>
<text text-anchor="middle" x="343" y="-180.158" font-family="Helvetica,sans-Serif" font-size="10.00">lua_getglobal</text>
</a>
</g>
</g>
<!-- Node355&#45;&gt;Node364 -->
<g id="edge34" class="edge"><title>Node355&#45;&gt;Node364</title>
<path fill="none" stroke="midnightblue" d="M431.947,-243.173C417.356,-232.748 397.605,-218.75 380,-206.658 373.065,-201.894 365.308,-196.705 358.775,-192.375"/>
<polygon fill="midnightblue" stroke="midnightblue" points="430.131,-246.177 440.3,-249.153 434.206,-240.486 430.131,-246.177"/>
</g>
<!-- Node357 -->
<g id="node19" class="node"><title>Node357</title>
<g id="a_node19"><a xlink:href="loadlib_8c.html#a245afa8e0d4941d4266eee8ec83c4adc" target="_top" xlink:title=" ">
<polygon fill="white" stroke="red" points="194.5,-173.158 194.5,-192.158 252.5,-192.158 252.5,-173.158 194.5,-173.158"/>
<text text-anchor="middle" x="223.5" y="-180.158" font-family="Helvetica,sans-Serif" font-size="10.00">checkclib</text>
</a>
</g>
</g>
<!-- Node356&#45;&gt;Node357 -->
<g id="edge23" class="edge"><title>Node356&#45;&gt;Node357</title>
<path fill="none" stroke="midnightblue" d="M317.931,-243.36C313.872,-240.569 309.759,-237.605 306,-234.658 288.92,-221.265 288.288,-213.348 270,-201.658 264.374,-198.062 257.952,-194.893 251.742,-192.225"/>
<polygon fill="midnightblue" stroke="midnightblue" points="316.31,-246.486 326.573,-249.118 320.192,-240.66 316.31,-246.486"/>
</g>
<!-- Node221 -->
<g id="node20" class="node"><title>Node221</title>
<g id="a_node20"><a xlink:href="loadlib_8c.html#af8f7333f1a59f3d7aab8c9b79b7a4ab2" target="_top" xlink:title=" ">
<polygon fill="white" stroke="red" points="201.5,-135.158 201.5,-154.158 245.5,-154.158 245.5,-135.158 201.5,-135.158"/>
<text text-anchor="middle" x="223.5" y="-142.158" font-family="Helvetica,sans-Serif" font-size="10.00">findfile</text>
</a>
</g>
</g>
<!-- Node356&#45;&gt;Node221 -->
<g id="edge24" class="edge"><title>Node356&#45;&gt;Node221</title>
<path fill="none" stroke="midnightblue" d="M315.286,-243.174C311.932,-240.584 308.727,-237.73 306,-234.658 282.511,-208.2 295.922,-187.737 270,-163.658 263.226,-157.366 254.07,-153.001 245.747,-150.057"/>
<polygon fill="midnightblue" stroke="midnightblue" points="313.532,-246.217 323.744,-249.041 317.521,-240.465 313.532,-246.217"/>
</g>
<!-- Node222 -->
<g id="node21" class="node"><title>Node222</title>
<g id="a_node21"><a xlink:href="loadlib_8c.html#aeea4101591c7cab25273f4dfe7d811d6" target="_top" xlink:title=" ">
<polygon fill="white" stroke="black" points="194.5,-97.1577 194.5,-116.158 252.5,-116.158 252.5,-97.1577 194.5,-97.1577"/>
<text text-anchor="middle" x="223.5" y="-104.158" font-family="Helvetica,sans-Serif" font-size="10.00">findloader</text>
</a>
</g>
</g>
<!-- Node356&#45;&gt;Node222 -->
<g id="edge25" class="edge"><title>Node356&#45;&gt;Node222</title>
<path fill="none" stroke="midnightblue" d="M314.182,-242.999C311.146,-240.491 308.321,-237.705 306,-234.658 275.088,-194.071 304.668,-163.088 270,-125.658 265.346,-120.633 259.158,-116.894 252.848,-114.127"/>
<polygon fill="midnightblue" stroke="midnightblue" points="312.345,-245.988 322.511,-248.974 316.426,-240.301 312.345,-245.988"/>
</g>
<!-- Node223 -->
<g id="node22" class="node"><title>Node223</title>
<g id="a_node22"><a xlink:href="loadlib_8c.html#a136874f5faa236dc52fb50109281e157" target="_top" xlink:title=" ">
<polygon fill="white" stroke="black" points="85,-97.1577 85,-116.158 141,-116.158 141,-97.1577 85,-97.1577"/>
<text text-anchor="middle" x="113" y="-104.158" font-family="Helvetica,sans-Serif" font-size="10.00">ll_require</text>
</a>
</g>
</g>
<!-- Node356&#45;&gt;Node223 -->
<g id="edge33" class="edge"><title>Node356&#45;&gt;Node223</title>
<path fill="none" stroke="midnightblue" d="M314.249,-272.296C279.037,-287.436 217.97,-306.226 177,-277.658 121.722,-239.113 114.817,-146.33 114.056,-116.248"/>
<polygon fill="midnightblue" stroke="midnightblue" points="315.765,-275.452 323.456,-268.165 312.9,-269.065 315.765,-275.452"/>
</g>
<!-- Node267 -->
<g id="node23" class="node"><title>Node267</title>
<g id="a_node23"><a xlink:href="liolib_8c.html#aae942558ff528b4e1a483297c64e6886" target="_top" xlink:title=" ">
<polygon fill="white" stroke="red" points="200,-59.1577 200,-78.1577 247,-78.1577 247,-59.1577 200,-59.1577"/>
<text text-anchor="middle" x="223.5" y="-66.1577" font-family="Helvetica,sans-Serif" font-size="10.00">g_iofile</text>
</a>
</g>
</g>
<!-- Node356&#45;&gt;Node267 -->
<g id="edge27" class="edge"><title>Node356&#45;&gt;Node267</title>
<path fill="none" stroke="midnightblue" d="M313.761,-243.011C310.837,-240.515 308.153,-237.729 306,-234.658 267.385,-179.582 313.727,-138.769 270,-87.6577 264.212,-80.8929 255.618,-76.4887 247.452,-73.6437"/>
<polygon fill="midnightblue" stroke="midnightblue" points="311.728,-245.86 321.867,-248.934 315.858,-240.208 311.728,-245.86"/>
</g>
<!-- Node358 -->
<g id="node24" class="node"><title>Node358</title>
<g id="a_node24"><a xlink:href="loslib_8c.html#a5dbd1fc25ad13c0f325d09f811bb6172" target="_top" xlink:title=" ">
<polygon fill="white" stroke="red" points="191,-401.158 191,-420.158 256,-420.158 256,-401.158 191,-401.158"/>
<text text-anchor="middle" x="223.5" y="-408.158" font-family="Helvetica,sans-Serif" font-size="10.00">getboolfield</text>
</a>
</g>
</g>
<!-- Node356&#45;&gt;Node358 -->
<g id="edge28" class="edge"><title>Node356&#45;&gt;Node358</title>
<path fill="none" stroke="midnightblue" d="M329.699,-276.88C322.457,-287.905 313.315,-302.358 306,-315.658 287.988,-348.407 297.04,-365.855 270,-391.658 266.036,-395.44 261.211,-398.519 256.202,-401.009"/>
<polygon fill="midnightblue" stroke="midnightblue" points="332.63,-278.792 335.252,-268.527 326.801,-274.917 332.63,-278.792"/>
</g>
<!-- Node225 -->
<g id="node25" class="node"><title>Node225</title>
<g id="a_node25"><a xlink:href="loslib_8c.html#aa0a7f676dc564dbc1a3c16c917b933c9" target="_top" xlink:title=" ">
<polygon fill="white" stroke="red" points="200,-363.158 200,-382.158 247,-382.158 247,-363.158 200,-363.158"/>
<text text-anchor="middle" x="223.5" y="-370.158" font-family="Helvetica,sans-Serif" font-size="10.00">getfield</text>
</a>
</g>
</g>
<!-- Node356&#45;&gt;Node225 -->
<g id="edge29" class="edge"><title>Node356&#45;&gt;Node225</title>
<path fill="none" stroke="midnightblue" d="M330.14,-276.507C313.759,-300.75 284.581,-342.366 270,-353.658 263.232,-358.899 254.808,-362.945 247.056,-365.929"/>
<polygon fill="midnightblue" stroke="midnightblue" points="333.071,-278.42 335.735,-268.165 327.258,-274.52 333.071,-278.42"/>
</g>
<!-- Node226 -->
<g id="node26" class="node"><title>Node226</title>
<g id="a_node26"><a xlink:href="liolib_8c.html#a3bccbdacdc9f21f22a603525be1f3699" target="_top" xlink:title=" ">
<polygon fill="white" stroke="red" points="198.5,-325.158 198.5,-344.158 248.5,-344.158 248.5,-325.158 198.5,-325.158"/>
<text text-anchor="middle" x="223.5" y="-332.158" font-family="Helvetica,sans-Serif" font-size="10.00">getiofile</text>
</a>
</g>
</g>
<!-- Node356&#45;&gt;Node226 -->
<g id="edge30" class="edge"><title>Node356&#45;&gt;Node226</title>
<path fill="none" stroke="midnightblue" d="M321.825,-274.396C307.674,-285.142 288.119,-299.413 270,-310.658 261.805,-315.744 252.426,-320.81 244.321,-324.968"/>
<polygon fill="midnightblue" stroke="midnightblue" points="324.073,-277.083 329.877,-268.219 319.813,-271.529 324.073,-277.083"/>
</g>
<!-- Node284 -->
<g id="node27" class="node"><title>Node284</title>
<g id="a_node27"><a xlink:href="liolib_8c.html#a1c6f8e04184b0f7939e45e24d2d7ef8a" target="_top" xlink:title=" ">
<polygon fill="white" stroke="black" points="197,-249.158 197,-268.158 250,-268.158 250,-249.158 197,-249.158"/>
<text text-anchor="middle" x="223.5" y="-256.158" font-family="Helvetica,sans-Serif" font-size="10.00">io_close</text>
</a>
</g>
</g>
<!-- Node356&#45;&gt;Node284 -->
<g id="edge31" class="edge"><title>Node356&#45;&gt;Node284</title>
<path fill="none" stroke="midnightblue" d="M300.094,-258.658C283.358,-258.658 264.63,-258.658 250.001,-258.658"/>
<polygon fill="midnightblue" stroke="midnightblue" points="300.203,-262.158 310.203,-258.658 300.203,-255.158 300.203,-262.158"/>
</g>
<!-- Node76 -->
<g id="node28" class="node"><title>Node76</title>
<g id="a_node28"><a xlink:href="liolib_8c.html#ab08031b51605d4ef676ec33a3b96a286" target="_top" xlink:title=" ">
<polygon fill="white" stroke="black" points="198.5,-211.158 198.5,-230.158 248.5,-230.158 248.5,-211.158 198.5,-211.158"/>
<text text-anchor="middle" x="223.5" y="-218.158" font-family="Helvetica,sans-Serif" font-size="10.00">io_lines</text>
</a>
</g>
</g>
<!-- Node356&#45;&gt;Node76 -->
<g id="edge32" class="edge"><title>Node356&#45;&gt;Node76</title>
<path fill="none" stroke="midnightblue" d="M302.729,-245.957C284.818,-240.165 264.184,-233.492 248.606,-228.454"/>
<polygon fill="midnightblue" stroke="midnightblue" points="301.758,-249.322 312.35,-249.069 303.912,-242.661 301.758,-249.322"/>
</g>
<!-- Node222&#45;&gt;Node223 -->
<g id="edge26" class="edge"><title>Node222&#45;&gt;Node223</title>
<path fill="none" stroke="midnightblue" d="M183.888,-106.658C169.821,-106.658 154.22,-106.658 141.333,-106.658"/>
<polygon fill="midnightblue" stroke="midnightblue" points="184.276,-110.158 194.276,-106.658 184.276,-103.158 184.276,-110.158"/>
</g>
<!-- Node202 -->
<g id="node31" class="node"><title>Node202</title>
<g id="a_node31"><a xlink:href="ltablib_8c.html#a598479e00f1b316a182b1582012df5d0" target="_top" xlink:title=" ">
<polygon fill="white" stroke="red" points="318,-591.158 318,-610.158 368,-610.158 368,-591.158 318,-591.158"/>
<text text-anchor="middle" x="343" y="-598.158" font-family="Helvetica,sans-Serif" font-size="10.00">addfield</text>
</a>
</g>
</g>
<!-- Node366&#45;&gt;Node202 -->
<g id="edge36" class="edge"><title>Node366&#45;&gt;Node202</title>
<path fill="none" stroke="midnightblue" d="M434.761,-540.662C420.293,-552.648 399.514,-569.077 380,-581.658 374.892,-584.951 369.153,-588.176 363.784,-591.006"/>
<polygon fill="midnightblue" stroke="midnightblue" points="437.078,-543.287 442.493,-534.18 432.581,-537.922 437.078,-543.287"/>
</g>
<!-- Node272 -->
<g id="node32" class="node"><title>Node272</title>
<g id="a_node32"><a xlink:href="ltablib_8c.html#a151c51c8905acb3db7d6f1e58265b709" target="_top" xlink:title=" ">
<polygon fill="white" stroke="red" points="88.5,-477.158 88.5,-496.158 137.5,-496.158 137.5,-477.158 88.5,-477.158"/>
<text text-anchor="middle" x="113" y="-484.158" font-family="Helvetica,sans-Serif" font-size="10.00">auxsort</text>
</a>
</g>
</g>
<!-- Node366&#45;&gt;Node272 -->
<g id="edge37" class="edge"><title>Node366&#45;&gt;Node272</title>
<path fill="none" stroke="midnightblue" d="M419.109,-524.759C366.514,-524.362 263.128,-521.398 177,-505.658 163.739,-503.234 149.318,-499.008 137.624,-495.156"/>
<polygon fill="midnightblue" stroke="midnightblue" points="419.217,-528.259 429.234,-524.808 419.251,-521.26 419.217,-528.259"/>
</g>
<!-- Node90 -->
<g id="node33" class="node"><title>Node90</title>
<g id="a_node33"><a xlink:href="lbaselib_8c.html#a9e49fcec5e66e36e817b1951123efc03" target="_top" xlink:title=" ">
<polygon fill="white" stroke="red" points="315,-553.158 315,-572.158 371,-572.158 371,-553.158 315,-553.158"/>
<text text-anchor="middle" x="343" y="-560.158" font-family="Helvetica,sans-Serif" font-size="10.00">ipairsaux</text>
</a>
</g>
</g>
<!-- Node366&#45;&gt;Node90 -->
<g id="edge38" class="edge"><title>Node366&#45;&gt;Node90</title>
<path fill="none" stroke="midnightblue" d="M419.654,-536.403C404.032,-541.825 385.738,-548.173 371.053,-553.269"/>
<polygon fill="midnightblue" stroke="midnightblue" points="421.17,-539.582 429.47,-532.997 418.875,-532.969 421.17,-539.582"/>
</g>
<!-- Node271 -->
<g id="node34" class="node"><title>Node271</title>
<g id="a_node34"><a xlink:href="ltablib_8c.html#a1d53059f696e353656cd98be725ffbd2" target="_top" xlink:title=" ">
<polygon fill="white" stroke="black" points="198,-477.158 198,-496.158 249,-496.158 249,-477.158 198,-477.158"/>
<text text-anchor="middle" x="223.5" y="-484.158" font-family="Helvetica,sans-Serif" font-size="10.00">partition</text>
</a>
</g>
</g>
<!-- Node366&#45;&gt;Node271 -->
<g id="edge39" class="edge"><title>Node366&#45;&gt;Node271</title>
<path fill="none" stroke="midnightblue" d="M419.433,-517.911C407.036,-515.524 392.901,-512.881 380,-510.658 333.833,-502.701 279.735,-494.634 249.052,-490.175"/>
<polygon fill="midnightblue" stroke="midnightblue" points="418.889,-521.371 429.373,-519.841 420.224,-514.499 418.889,-521.371"/>
</g>
<!-- Node122 -->
<g id="node35" class="node"><title>Node122</title>
<g id="a_node35"><a xlink:href="ltablib_8c.html#a214ed6966e2b1b4c376ab0de0d09032e" target="_top" xlink:title=" ">
<polygon fill="white" stroke="black" points="321,-363.158 321,-382.158 365,-382.158 365,-363.158 321,-363.158"/>
<text text-anchor="middle" x="343" y="-370.158" font-family="Helvetica,sans-Serif" font-size="10.00">tinsert</text>
</a>
</g>
</g>
<!-- Node366&#45;&gt;Node122 -->
<g id="edge41" class="edge"><title>Node366&#45;&gt;Node122</title>
<path fill="none" stroke="midnightblue" d="M447.029,-505.659C436.688,-477.673 414.067,-425.076 380,-391.658 375.762,-387.501 370.429,-384.026 365.177,-381.234"/>
<polygon fill="midnightblue" stroke="midnightblue" points="443.736,-506.844 450.39,-515.089 450.33,-504.495 443.736,-506.844"/>
</g>
<!-- Node123 -->
<g id="node36" class="node"><title>Node123</title>
<g id="a_node36"><a xlink:href="ltablib_8c.html#a2206b11cc9a180fbc33aabb81308fd74" target="_top" xlink:title=" ">
<polygon fill="white" stroke="black" points="322,-401.158 322,-420.158 364,-420.158 364,-401.158 322,-401.158"/>
<text text-anchor="middle" x="343" y="-408.158" font-family="Helvetica,sans-Serif" font-size="10.00">tmove</text>
</a>
</g>
</g>
<!-- Node366&#45;&gt;Node123 -->
<g id="edge42" class="edge"><title>Node366&#45;&gt;Node123</title>
<path fill="none" stroke="midnightblue" d="M442.603,-506.176C429.707,-485.51 406.597,-452.013 380,-429.658 375.239,-425.656 369.498,-422.161 364.012,-419.296"/>
<polygon fill="midnightblue" stroke="midnightblue" points="439.745,-508.212 447.934,-514.934 445.724,-504.572 439.745,-508.212"/>
</g>
<!-- Node113 -->
<g id="node37" class="node"><title>Node113</title>
<g id="a_node37"><a xlink:href="ltablib_8c.html#ad8c41fe887a472709c6fdf075ba39d56" target="_top" xlink:title=" ">
<polygon fill="white" stroke="black" points="318,-439.158 318,-458.158 368,-458.158 368,-439.158 318,-439.158"/>
<text text-anchor="middle" x="343" y="-446.158" font-family="Helvetica,sans-Serif" font-size="10.00">tremove</text>
</a>
</g>
</g>
<!-- Node366&#45;&gt;Node113 -->
<g id="edge43" class="edge"><title>Node366&#45;&gt;Node113</title>
<path fill="none" stroke="midnightblue" d="M431.947,-509.173C417.356,-498.748 397.605,-484.75 380,-472.658 373.065,-467.894 365.308,-462.705 358.775,-458.375"/>
<polygon fill="midnightblue" stroke="midnightblue" points="430.131,-512.177 440.3,-515.153 434.206,-506.486 430.131,-512.177"/>
</g>
<!-- Node114 -->
<g id="node38" class="node"><title>Node114</title>
<g id="a_node38"><a xlink:href="ltablib_8c.html#aab557c98c16305370f73c4c716f5725d" target="_top" xlink:title=" ">
<polygon fill="white" stroke="black" points="199.5,-648.158 199.5,-667.158 247.5,-667.158 247.5,-648.158 199.5,-648.158"/>
<text text-anchor="middle" x="223.5" y="-655.158" font-family="Helvetica,sans-Serif" font-size="10.00">unpack</text>
</a>
</g>
</g>
<!-- Node366&#45;&gt;Node114 -->
<g id="edge44" class="edge"><title>Node366&#45;&gt;Node114</title>
<path fill="none" stroke="midnightblue" d="M444.248,-543.093C432.379,-564.805 409.725,-600.353 380,-619.658 338.63,-646.526 279.872,-654.404 247.727,-656.709"/>
<polygon fill="midnightblue" stroke="midnightblue" points="447.369,-544.678 448.929,-534.198 441.174,-541.418 447.369,-544.678"/>
</g>
<!-- Node271&#45;&gt;Node272 -->
<g id="edge40" class="edge"><title>Node271&#45;&gt;Node272</title>
<path fill="none" stroke="midnightblue" d="M187.638,-486.658C171.353,-486.658 152.384,-486.658 137.777,-486.658"/>
<polygon fill="midnightblue" stroke="midnightblue" points="187.88,-490.158 197.88,-486.658 187.88,-483.158 187.88,-490.158"/>
</g>
<!-- Node368 -->
<g id="node40" class="node"><title>Node368</title>
<g id="a_node40"><a xlink:href="lapi_8c.html#a0667fbf88666853554967226d9a3df4d" target="_top" xlink:title=" ">
<polygon fill="white" stroke="black" points="426,-40.1577 426,-59.1577 483,-59.1577 483,-40.1577 426,-40.1577"/>
<text text-anchor="middle" x="454.5" y="-47.1577" font-family="Helvetica,sans-Serif" font-size="10.00">auxsetstr</text>
</a>
</g>
</g>
<!-- Node367&#45;&gt;Node368 -->
<g id="edge47" class="edge"><title>Node367&#45;&gt;Node368</title>
<path fill="none" stroke="midnightblue" d="M566.472,-353.419C544.15,-292.317 475.376,-104.063 459.018,-59.2868"/>
<polygon fill="midnightblue" stroke="midnightblue" points="563.25,-354.799 569.968,-362.991 569.824,-352.397 563.25,-354.799"/>
</g>
<!-- Node386 -->
<g id="node44" class="node"><title>Node386</title>
<g id="a_node44"><a xlink:href="lua_8h.html#a12ba17fc94b8cf0122aa367170688453" target="_top" xlink:title=" ">
<polygon fill="white" stroke="black" points="429.5,-363.158 429.5,-382.158 479.5,-382.158 479.5,-363.158 429.5,-363.158"/>
<text text-anchor="middle" x="454.5" y="-370.158" font-family="Helvetica,sans-Serif" font-size="10.00">lua_seti</text>
</a>
</g>
</g>
<!-- Node367&#45;&gt;Node386 -->
<g id="edge53" class="edge"><title>Node367&#45;&gt;Node386</title>
<path fill="none" stroke="midnightblue" d="M525.692,-372.658C509.931,-372.658 493.064,-372.658 479.816,-372.658"/>
<polygon fill="midnightblue" stroke="midnightblue" points="525.84,-376.158 535.84,-372.658 525.84,-369.158 525.84,-376.158"/>
</g>
<!-- Node369 -->
<g id="node41" class="node"><title>Node369</title>
<g id="a_node41"><a xlink:href="lua_8h.html#a9580a15c141cbe4bf2a63fea625c3878" target="_top" xlink:title=" ">
<polygon fill="white" stroke="red" points="310.5,-40.1577 310.5,-59.1577 375.5,-59.1577 375.5,-40.1577 310.5,-40.1577"/>
<text text-anchor="middle" x="343" y="-47.1577" font-family="Helvetica,sans-Serif" font-size="10.00">lua_setfield</text>
</a>
</g>
</g>
<!-- Node368&#45;&gt;Node369 -->
<g id="edge48" class="edge"><title>Node368&#45;&gt;Node369</title>
<path fill="none" stroke="midnightblue" d="M415.812,-49.6577C402.811,-49.6577 388.385,-49.6577 375.893,-49.6577"/>
<polygon fill="midnightblue" stroke="midnightblue" points="415.869,-53.1578 425.869,-49.6577 415.868,-46.1578 415.869,-53.1578"/>
</g>
<!-- Node384 -->
<g id="node43" class="node"><title>Node384</title>
<g id="a_node43"><a xlink:href="lua_8h.html#a8da855aa334f38b822cbaceda0d633be" target="_top" xlink:title=" ">
<polygon fill="white" stroke="red" points="306,-2.15774 306,-21.1577 380,-21.1577 380,-2.15774 306,-2.15774"/>
<text text-anchor="middle" x="343" y="-9.15774" font-family="Helvetica,sans-Serif" font-size="10.00">lua_setglobal</text>
</a>
</g>
</g>
<!-- Node368&#45;&gt;Node384 -->
<g id="edge52" class="edge"><title>Node368&#45;&gt;Node384</title>
<path fill="none" stroke="midnightblue" d="M416.121,-36.686C401.532,-31.6233 385.108,-25.9236 371.623,-21.2437"/>
<polygon fill="midnightblue" stroke="midnightblue" points="415.274,-40.0967 425.869,-40.0687 417.569,-33.4836 415.274,-40.0967"/>
</g>
<!-- Node369&#45;&gt;Node223 -->
<g id="edge50" class="edge"><title>Node369&#45;&gt;Node223</title>
<path fill="none" stroke="midnightblue" d="M314.886,-35.3358C294.509,-24.5742 270.08,-11.6775 270,-11.6577 229.879,-1.71987 213.419,7.89004 177,-11.6577 142.475,-30.1893 123.669,-76.8844 116.92,-97.0918"/>
<polygon fill="midnightblue" stroke="midnightblue" points="313.384,-38.5008 323.861,-40.0761 316.653,-32.311 313.384,-38.5008"/>
</g>
<!-- Node369&#45;&gt;Node267 -->
<g id="edge49" class="edge"><title>Node369&#45;&gt;Node267</title>
<path fill="none" stroke="midnightblue" d="M300.246,-56.4095C282.309,-59.3099 262.059,-62.5843 247.013,-65.0174"/>
<polygon fill="midnightblue" stroke="midnightblue" points="300.89,-59.8509 310.203,-54.7994 299.772,-52.9407 300.89,-59.8509"/>
</g>
<!-- Node376 -->
<g id="node42" class="node"><title>Node376</title>
<g id="a_node42"><a xlink:href="ltablib_8c.html#a46a372295cbd1692b06bdbac4ca58881" target="_top" xlink:title=" ">
<polygon fill="white" stroke="black" points="204.5,-21.1577 204.5,-40.1577 242.5,-40.1577 242.5,-21.1577 204.5,-21.1577"/>
<text text-anchor="middle" x="223.5" y="-28.1577" font-family="Helvetica,sans-Serif" font-size="10.00">pack</text>
</a>
</g>
</g>
<!-- Node369&#45;&gt;Node376 -->
<g id="edge51" class="edge"><title>Node369&#45;&gt;Node376</title>
<path fill="none" stroke="midnightblue" d="M300.22,-42.9018C280.546,-39.7205 258.094,-36.09 242.78,-33.6136"/>
<polygon fill="midnightblue" stroke="midnightblue" points="299.772,-46.3748 310.203,-44.5161 300.89,-39.4646 299.772,-46.3748"/>
</g>
<!-- Node386&#45;&gt;Node122 -->
<g id="edge58" class="edge"><title>Node386&#45;&gt;Node122</title>
<path fill="none" stroke="midnightblue" d="M419.452,-372.658C401.647,-372.658 380.417,-372.658 365.019,-372.658"/>
<polygon fill="midnightblue" stroke="midnightblue" points="419.47,-376.158 429.47,-372.658 419.47,-369.158 419.47,-376.158"/>
</g>
<!-- Node386&#45;&gt;Node123 -->
<g id="edge59" class="edge"><title>Node386&#45;&gt;Node123</title>
<path fill="none" stroke="midnightblue" d="M419.82,-384.346C401.663,-390.647 379.857,-398.214 364.3,-403.613"/>
<polygon fill="midnightblue" stroke="midnightblue" points="421.17,-387.582 429.47,-380.997 418.875,-380.969 421.17,-387.582"/>
</g>
<!-- Node386&#45;&gt;Node113 -->
<g id="edge60" class="edge"><title>Node386&#45;&gt;Node113</title>
<path fill="none" stroke="midnightblue" d="M434.761,-388.662C420.293,-400.648 399.514,-417.077 380,-429.658 374.892,-432.951 369.153,-436.176 363.784,-439.006"/>
<polygon fill="midnightblue" stroke="midnightblue" points="437.078,-391.287 442.493,-382.18 432.581,-385.922 437.078,-391.287"/>
</g>
<!-- Node386&#45;&gt;Node376 -->
<g id="edge54" class="edge"><title>Node386&#45;&gt;Node376</title>
<path fill="none" stroke="midnightblue" d="M447.078,-353.61C436.798,-325.56 414.254,-272.884 380,-239.658 353.462,-213.916 328.799,-230.763 306,-201.658 263.19,-147.004 314.931,-102.582 270,-49.6577 263.13,-41.5657 252.24,-36.8551 242.837,-34.1486"/>
<polygon fill="midnightblue" stroke="midnightblue" points="443.786,-354.799 450.416,-363.063 450.386,-352.468 443.786,-354.799"/>
</g>
<!-- Node387 -->
<g id="node45" class="node"><title>Node387</title>
<g id="a_node45"><a xlink:href="ltablib_8c.html#a66d39e7dbcc639daedcc8618fd2a18e1" target="_top" xlink:title=" ">
<polygon fill="white" stroke="black" points="325.5,-325.158 325.5,-344.158 360.5,-344.158 360.5,-325.158 325.5,-325.158"/>
<text text-anchor="middle" x="343" y="-332.158" font-family="Helvetica,sans-Serif" font-size="10.00">set2</text>
</a>
</g>
</g>
<!-- Node386&#45;&gt;Node387 -->
<g id="edge55" class="edge"><title>Node386&#45;&gt;Node387</title>
<path fill="none" stroke="midnightblue" d="M419.915,-361.003C400.212,-354.165 376.188,-345.828 360.514,-340.389"/>
<polygon fill="midnightblue" stroke="midnightblue" points="418.875,-364.346 429.47,-364.318 421.17,-357.733 418.875,-364.346"/>
</g>
<!-- Node387&#45;&gt;Node272 -->
<g id="edge56" class="edge"><title>Node387&#45;&gt;Node272</title>
<path fill="none" stroke="midnightblue" d="M316.51,-345.416C312.69,-347.758 309.024,-350.5 306,-353.658 280.149,-380.652 297.617,-404.473 270,-429.658 259.88,-438.887 178.85,-465.814 137.742,-479.086"/>
<polygon fill="midnightblue" stroke="midnightblue" points="318.275,-348.442 325.475,-340.67 314.999,-342.256 318.275,-348.442"/>
</g>
<!-- Node387&#45;&gt;Node271 -->
<g id="edge57" class="edge"><title>Node387&#45;&gt;Node271</title>
<path fill="none" stroke="midnightblue" d="M316.37,-344.976C312.516,-347.382 308.875,-350.258 306,-353.658 273.052,-392.61 302.953,-423.709 270,-462.658 264.462,-469.203 256.679,-474.214 249.114,-477.922"/>
<polygon fill="midnightblue" stroke="midnightblue" points="318.262,-347.936 325.495,-340.193 315.013,-341.736 318.262,-347.936"/>
</g>
<!-- Node388&#45;&gt;Node325 -->
<g id="edge65" class="edge"><title>Node388&#45;&gt;Node325</title>
<path fill="none" stroke="midnightblue" d="M535.956,-745.439C497.355,-757.938 435.249,-776.277 380,-784.658 339.933,-790.736 293.433,-791.751 261.795,-791.55"/>
<polygon fill="midnightblue" stroke="midnightblue" points="537.307,-748.679 545.719,-742.239 535.127,-742.027 537.307,-748.679"/>
</g>
<!-- Node389 -->
<g id="node47" class="node"><title>Node389</title>
<g id="a_node47"><a xlink:href="lua_8h.html#ac7ade66f92b5e325c42371926f879818" target="_top" xlink:title=" ">
<polygon fill="white" stroke="black" points="431,-723.158 431,-742.158 478,-742.158 478,-723.158 431,-723.158"/>
<text text-anchor="middle" x="454.5" y="-730.158" font-family="Helvetica,sans-Serif" font-size="10.00">lua_len</text>
</a>
</g>
</g>
<!-- Node388&#45;&gt;Node389 -->
<g id="edge62" class="edge"><title>Node388&#45;&gt;Node389</title>
<path fill="none" stroke="midnightblue" d="M530.784,-732.658C513.018,-732.658 493.114,-732.658 478.236,-732.658"/>
<polygon fill="midnightblue" stroke="midnightblue" points="530.944,-736.158 540.944,-732.658 530.944,-729.158 530.944,-736.158"/>
</g>
<!-- Node242 -->
<g id="node48" class="node"><title>Node242</title>
<g id="a_node48"><a xlink:href="lauxlib_8h.html#ac9d38b77e425247b630afdb212401a05" target="_top" xlink:title=" ">
<polygon fill="white" stroke="red" points="316.5,-667.158 316.5,-686.158 369.5,-686.158 369.5,-667.158 316.5,-667.158"/>
<text text-anchor="middle" x="343" y="-674.158" font-family="Helvetica,sans-Serif" font-size="10.00">luaL_len</text>
</a>
</g>
</g>
<!-- Node389&#45;&gt;Node242 -->
<g id="edge63" class="edge"><title>Node389&#45;&gt;Node242</title>
<path fill="none" stroke="midnightblue" d="M425.337,-718.255C405.707,-708.216 380.055,-695.097 362.855,-686.3"/>
<polygon fill="midnightblue" stroke="midnightblue" points="423.93,-721.466 434.427,-722.903 427.117,-715.234 423.93,-721.466"/>
</g>
<!-- Node242&#45;&gt;Node114 -->
<g id="edge64" class="edge"><title>Node242&#45;&gt;Node114</title>
<path fill="none" stroke="midnightblue" d="M306.139,-670.859C287.194,-667.796 264.486,-664.124 247.834,-661.431"/>
<polygon fill="midnightblue" stroke="midnightblue" points="305.784,-674.347 316.214,-672.488 306.901,-667.437 305.784,-674.347"/>
</g>
<!-- Node397 -->
<g id="node50" class="node"><title>Node397</title>
<g id="a_node50"><a xlink:href="ldo_8h.html#af2326bf8464de1e4ce3c5f7aef2ed5d4" target="_top" xlink:title=" ">
<polygon fill="white" stroke="black" points="308,-705.158 308,-724.158 378,-724.158 378,-705.158 308,-705.158"/>
<text text-anchor="middle" x="343" y="-712.158" font-family="Helvetica,sans-Serif" font-size="10.00">luaD_precall</text>
</a>
</g>
</g>
<!-- Node396&#45;&gt;Node397 -->
<g id="edge67" class="edge"><title>Node396&#45;&gt;Node397</title>
<path fill="none" stroke="midnightblue" d="M534.611,-769.781C502.242,-768.154 455.273,-763.694 416,-751.658 395.038,-745.234 372.887,-732.899 358.78,-724.244"/>
<polygon fill="midnightblue" stroke="midnightblue" points="534.854,-773.295 544.996,-770.231 535.157,-766.302 534.854,-773.295"/>
</g>
<!-- Node397&#45;&gt;Node325 -->
<g id="edge70" class="edge"><title>Node397&#45;&gt;Node325</title>
<path fill="none" stroke="midnightblue" d="M321.825,-730.396C307.674,-741.142 288.119,-755.413 270,-766.658 261.805,-771.744 252.426,-776.81 244.321,-780.968"/>
<polygon fill="midnightblue" stroke="midnightblue" points="324.073,-733.083 329.877,-724.219 319.813,-727.529 324.073,-733.083"/>
</g>
<!-- Node397&#45;&gt;Node326 -->
<g id="edge68" class="edge"><title>Node397&#45;&gt;Node326</title>
<path fill="none" stroke="midnightblue" d="M298.151,-723.47C288.868,-725.255 279.121,-727.07 270,-728.658 224.917,-736.506 172.267,-744.328 141.108,-748.818"/>
<polygon fill="midnightblue" stroke="midnightblue" points="298.841,-726.901 307.989,-721.556 297.505,-720.03 298.841,-726.901"/>
</g>
<!-- Node397&#45;&gt;Node390 -->
<g id="edge71" class="edge"><title>Node397&#45;&gt;Node390</title>
<path fill="none" stroke="midnightblue" d="M297.708,-709.151C244.682,-704.488 154.355,-702.78 85,-733.658 61.7383,-744.014 42.0591,-767.526 32.2265,-780.892"/>
<polygon fill="midnightblue" stroke="midnightblue" points="297.511,-712.648 307.798,-710.114 298.176,-705.679 297.511,-712.648"/>
</g>
<!-- Node397&#45;&gt;Node397 -->
<g id="edge69" class="edge"><title>Node397&#45;&gt;Node397</title>
<path fill="none" stroke="midnightblue" d="M363.369,-734.058C362.009,-738.972 355.219,-742.658 343,-742.658 323.449,-742.658 317.798,-733.223 326.046,-724.415"/>
<polygon fill="midnightblue" stroke="midnightblue" points="366.592,-732.673 359.954,-724.415 359.993,-735.01 366.592,-732.673"/>
</g>
</g>
</svg>
