<?xml version="1.0" encoding="UTF-8" standalone="no"?>
<!DOCTYPE svg PUBLIC "-//W3C//DTD SVG 1.1//EN"
 "http://www.w3.org/Graphics/SVG/1.1/DTD/svg11.dtd">
<!-- Generated by graphviz version 2.38.0 (20140413.2041)
 -->
<!-- Title: moveresults Pages: 1 -->
<svg width="1717pt" height="1090pt"
 viewBox="0.00 0.00 1717.00 1090.00" xmlns="http://www.w3.org/2000/svg" xmlns:xlink="http://www.w3.org/1999/xlink">
<g id="graph0" class="graph" transform="scale(1 1) rotate(0) translate(4 1086)">
<title>moveresults</title>
<polygon fill="white" stroke="none" points="-4,4 -4,-1086 1713,-1086 1713,4 -4,4"/>
<!-- Node1 -->
<g id="node1" class="node"><title>Node1</title>
<g id="a_node1"><a xlink:title=" ">
<polygon fill="#bfbfbf" stroke="black" points="1641,-1001.5 1641,-1020.5 1709,-1020.5 1709,-1001.5 1641,-1001.5"/>
<text text-anchor="middle" x="1675" y="-1008.5" font-family="Helvetica,sans-Serif" font-size="10.00">moveresults</text>
</a>
</g>
</g>
<!-- Node2 -->
<g id="node2" class="node"><title>Node2</title>
<g id="a_node2"><a xlink:href="ldo_8h.html#a9535108eb40deb7df6ed33d0fd2b67fb" target="_top" xlink:title=" ">
<polygon fill="white" stroke="black" points="1533,-1001.5 1533,-1020.5 1605,-1020.5 1605,-1001.5 1533,-1001.5"/>
<text text-anchor="middle" x="1569" y="-1008.5" font-family="Helvetica,sans-Serif" font-size="10.00">luaD_poscall</text>
</a>
</g>
</g>
<!-- Node1&#45;&gt;Node2 -->
<g id="edge1" class="edge"><title>Node1&#45;&gt;Node2</title>
<path fill="none" stroke="midnightblue" d="M1630.62,-1011C1622.09,-1011 1613.24,-1011 1605.03,-1011"/>
<polygon fill="midnightblue" stroke="midnightblue" points="1630.81,-1014.5 1640.81,-1011 1630.81,-1007.5 1630.81,-1014.5"/>
</g>
<!-- Node3 -->
<g id="node3" class="node"><title>Node3</title>
<g id="a_node3"><a xlink:href="ldo_8c.html#a03174ea718a42ddef337dfb648ce4996" target="_top" xlink:title=" ">
<polygon fill="white" stroke="black" points="1330,-351.5 1330,-370.5 1391,-370.5 1391,-351.5 1330,-351.5"/>
<text text-anchor="middle" x="1360.5" y="-358.5" font-family="Helvetica,sans-Serif" font-size="10.00">finishCcall</text>
</a>
</g>
</g>
<!-- Node2&#45;&gt;Node3 -->
<g id="edge2" class="edge"><title>Node2&#45;&gt;Node3</title>
<path fill="none" stroke="midnightblue" d="M1561.86,-991.672C1530.36,-892.517 1387.48,-442.792 1364.6,-370.749"/>
<polygon fill="midnightblue" stroke="midnightblue" points="1558.56,-992.836 1564.92,-1001.31 1565.23,-990.717 1558.56,-992.836"/>
</g>
<!-- Node10 -->
<g id="node10" class="node"><title>Node10</title>
<g id="a_node10"><a xlink:href="ldo_8c.html#abd7632c715de5db6e7797b7fa3f7010f" target="_top" xlink:title=" ">
<polygon fill="white" stroke="black" points="432,-845.5 432,-864.5 481,-864.5 481,-845.5 432,-845.5"/>
<text text-anchor="middle" x="456.5" y="-852.5" font-family="Helvetica,sans-Serif" font-size="10.00">resume</text>
</a>
</g>
</g>
<!-- Node2&#45;&gt;Node10 -->
<g id="edge75" class="edge"><title>Node2&#45;&gt;Node10</title>
<path fill="none" stroke="midnightblue" d="M1543.26,-1025.5C1505.44,-1046.27 1430.35,-1082 1361.5,-1082 1361.5,-1082 1361.5,-1082 630,-1082 617.117,-1082 544.453,-1041.96 517,-1008 479.909,-962.122 463.899,-890.402 459.128,-864.628"/>
<polygon fill="midnightblue" stroke="midnightblue" points="1545.04,-1028.52 1552.05,-1020.58 1541.62,-1022.41 1545.04,-1028.52"/>
</g>
<!-- Node11 -->
<g id="node11" class="node"><title>Node11</title>
<g id="a_node11"><a xlink:href="ldo_8h.html#af2326bf8464de1e4ce3c5f7aef2ed5d4" target="_top" xlink:title=" ">
<polygon fill="white" stroke="black" points="1427,-968.5 1427,-987.5 1497,-987.5 1497,-968.5 1427,-968.5"/>
<text text-anchor="middle" x="1462" y="-975.5" font-family="Helvetica,sans-Serif" font-size="10.00">luaD_precall</text>
</a>
</g>
</g>
<!-- Node2&#45;&gt;Node11 -->
<g id="edge11" class="edge"><title>Node2&#45;&gt;Node11</title>
<path fill="none" stroke="midnightblue" d="M1527.83,-998.375C1516.37,-994.772 1504.07,-990.908 1493.3,-987.524"/>
<polygon fill="midnightblue" stroke="midnightblue" points="1527.04,-1001.8 1537.63,-1001.46 1529.14,-995.118 1527.04,-1001.8"/>
</g>
<!-- Node276 -->
<g id="node35" class="node"><title>Node276</title>
<g id="a_node35"><a xlink:href="lvm_8h.html#ae93565adc36c6e2157dbbd875433ede1" target="_top" xlink:title=" ">
<polygon fill="white" stroke="black" points="593,-826.5 593,-845.5 669,-845.5 669,-826.5 593,-826.5"/>
<text text-anchor="middle" x="631" y="-833.5" font-family="Helvetica,sans-Serif" font-size="10.00">luaV_execute</text>
</a>
</g>
</g>
<!-- Node2&#45;&gt;Node276 -->
<g id="edge74" class="edge"><title>Node2&#45;&gt;Node276</title>
<path fill="none" stroke="midnightblue" d="M1523,-1022.4C1481.39,-1031.94 1417.68,-1044 1361.5,-1044 1361.5,-1044 1361.5,-1044 1249.5,-1044 1004.7,-1044 906.527,-1099.97 705,-961 662.794,-931.896 641.498,-869.8 634.588,-845.775"/>
<polygon fill="midnightblue" stroke="midnightblue" points="1523.89,-1025.79 1532.83,-1020.1 1522.29,-1018.98 1523.89,-1025.79"/>
</g>
<!-- Node4 -->
<g id="node4" class="node"><title>Node4</title>
<g id="a_node4"><a xlink:href="ldo_8c.html#a3baab9d298c0c32cb74a9a079d7244de" target="_top" xlink:title=" ">
<polygon fill="white" stroke="black" points="517,-807.5 517,-826.5 557,-826.5 557,-807.5 517,-807.5"/>
<text text-anchor="middle" x="537" y="-814.5" font-family="Helvetica,sans-Serif" font-size="10.00">unroll</text>
</a>
</g>
</g>
<!-- Node3&#45;&gt;Node4 -->
<g id="edge3" class="edge"><title>Node3&#45;&gt;Node4</title>
<path fill="none" stroke="midnightblue" d="M1356.9,-341.305C1345.72,-265.931 1294.77,-0 1132,-0 1132,-0 1132,-0 749,-0 573.573,-0 541.709,-715.078 538.33,-807.256"/>
<polygon fill="midnightblue" stroke="midnightblue" points="1353.45,-341.931 1358.31,-351.344 1360.38,-340.953 1353.45,-341.931"/>
</g>
<!-- Node5 -->
<g id="node5" class="node"><title>Node5</title>
<g id="a_node5"><a xlink:href="lua_8h.html#a434479f022eda738b99000aad5ddd929" target="_top" xlink:title=" ">
<polygon fill="white" stroke="black" points="329,-807.5 329,-826.5 396,-826.5 396,-807.5 329,-807.5"/>
<text text-anchor="middle" x="362.5" y="-814.5" font-family="Helvetica,sans-Serif" font-size="10.00">lua_resume</text>
</a>
</g>
</g>
<!-- Node4&#45;&gt;Node5 -->
<g id="edge4" class="edge"><title>Node4&#45;&gt;Node5</title>
<path fill="none" stroke="midnightblue" d="M506.829,-817C476.202,-817 428.149,-817 396.244,-817"/>
<polygon fill="midnightblue" stroke="midnightblue" points="506.88,-820.5 516.88,-817 506.88,-813.5 506.88,-820.5"/>
</g>
<!-- Node4&#45;&gt;Node10 -->
<g id="edge9" class="edge"><title>Node4&#45;&gt;Node10</title>
<path fill="none" stroke="midnightblue" d="M507.707,-830.696C497.576,-835.6 486.387,-841.016 477.147,-845.489"/>
<polygon fill="midnightblue" stroke="midnightblue" points="509.521,-833.706 516.997,-826.199 506.471,-827.406 509.521,-833.706"/>
</g>
<!-- Node6 -->
<g id="node6" class="node"><title>Node6</title>
<g id="a_node6"><a xlink:href="lcorolib_8c.html#aaa37b3a30ab0c6daef7fae8951fef3e7" target="_top" xlink:title=" ">
<polygon fill="white" stroke="black" points="228,-493.5 228,-512.5 293,-512.5 293,-493.5 228,-493.5"/>
<text text-anchor="middle" x="260.5" y="-500.5" font-family="Helvetica,sans-Serif" font-size="10.00">auxresume</text>
</a>
</g>
</g>
<!-- Node5&#45;&gt;Node6 -->
<g id="edge5" class="edge"><title>Node5&#45;&gt;Node6</title>
<path fill="none" stroke="midnightblue" d="M355.291,-797.504C336.153,-737.41 278.519,-556.439 264.566,-512.628"/>
<polygon fill="midnightblue" stroke="midnightblue" points="352.028,-798.792 358.398,-807.258 358.698,-796.668 352.028,-798.792"/>
</g>
<!-- Node7 -->
<g id="node7" class="node"><title>Node7</title>
<g id="a_node7"><a xlink:href="lcorolib_8c.html#a777abb20385a69ce4787f72bd90375a7" target="_top" xlink:title=" ">
<polygon fill="white" stroke="black" points="111.5,-299.5 111.5,-318.5 188.5,-318.5 188.5,-299.5 111.5,-299.5"/>
<text text-anchor="middle" x="150" y="-306.5" font-family="Helvetica,sans-Serif" font-size="10.00">luaB_auxwrap</text>
</a>
</g>
</g>
<!-- Node6&#45;&gt;Node7 -->
<g id="edge6" class="edge"><title>Node6&#45;&gt;Node7</title>
<path fill="none" stroke="midnightblue" d="M249.2,-484.584C226.643,-444.251 173.524,-349.273 156.413,-318.679"/>
<polygon fill="midnightblue" stroke="midnightblue" points="246.183,-486.36 254.119,-493.38 252.293,-482.943 246.183,-486.36"/>
</g>
<!-- Node9 -->
<g id="node9" class="node"><title>Node9</title>
<g id="a_node9"><a xlink:href="lcorolib_8c.html#a76f5d80387eeb1c7d31eb5f9cb6c9392" target="_top" xlink:title=" ">
<polygon fill="white" stroke="black" points="108,-493.5 108,-512.5 192,-512.5 192,-493.5 108,-493.5"/>
<text text-anchor="middle" x="150" y="-500.5" font-family="Helvetica,sans-Serif" font-size="10.00">luaB_coresume</text>
</a>
</g>
</g>
<!-- Node6&#45;&gt;Node9 -->
<g id="edge8" class="edge"><title>Node6&#45;&gt;Node9</title>
<path fill="none" stroke="midnightblue" d="M217.565,-503C209.242,-503 200.51,-503 192.211,-503"/>
<polygon fill="midnightblue" stroke="midnightblue" points="217.826,-506.5 227.826,-503 217.826,-499.5 217.826,-506.5"/>
</g>
<!-- Node8 -->
<g id="node8" class="node"><title>Node8</title>
<g id="a_node8"><a xlink:href="lcorolib_8c.html#a1c0429e27f504b08e25f437f733edad1" target="_top" xlink:title=" ">
<polygon fill="white" stroke="black" points="0,-299.5 0,-318.5 72,-318.5 72,-299.5 0,-299.5"/>
<text text-anchor="middle" x="36" y="-306.5" font-family="Helvetica,sans-Serif" font-size="10.00">luaB_cowrap</text>
</a>
</g>
</g>
<!-- Node7&#45;&gt;Node8 -->
<g id="edge7" class="edge"><title>Node7&#45;&gt;Node8</title>
<path fill="none" stroke="midnightblue" d="M101.332,-309C91.5057,-309 81.3287,-309 72.0487,-309"/>
<polygon fill="midnightblue" stroke="midnightblue" points="101.394,-312.5 111.394,-309 101.394,-305.5 101.394,-312.5"/>
</g>
<!-- Node10&#45;&gt;Node5 -->
<g id="edge10" class="edge"><title>Node10&#45;&gt;Node5</title>
<path fill="none" stroke="midnightblue" d="M423.03,-841.589C411.044,-836.638 397.712,-831.131 386.708,-826.586"/>
<polygon fill="midnightblue" stroke="midnightblue" points="421.706,-844.828 432.285,-845.411 424.378,-838.358 421.706,-844.828"/>
</g>
<!-- Node11&#45;&gt;Node10 -->
<g id="edge73" class="edge"><title>Node11&#45;&gt;Node10</title>
<path fill="none" stroke="midnightblue" d="M1417.06,-986.554C1321.39,-1004.41 1086.88,-1044 888.5,-1044 888.5,-1044 888.5,-1044 630,-1044 531.822,-1044 474.598,-903.147 460.786,-864.632"/>
<polygon fill="midnightblue" stroke="midnightblue" points="1417.78,-989.981 1426.96,-984.692 1416.48,-983.101 1417.78,-989.981"/>
</g>
<!-- Node11&#45;&gt;Node11 -->
<g id="edge71" class="edge"><title>Node11&#45;&gt;Node11</title>
<path fill="none" stroke="midnightblue" d="M1480.52,-997.4C1479.28,-1002.31 1473.11,-1006 1462,-1006 1444.23,-1006 1439.09,-996.565 1446.59,-987.757"/>
<polygon fill="midnightblue" stroke="midnightblue" points="1483.81,-996.203 1477.41,-987.757 1477.15,-998.349 1483.81,-996.203"/>
</g>
<!-- Node12 -->
<g id="node12" class="node"><title>Node12</title>
<g id="a_node12"><a xlink:href="ldo_8h.html#a4797364de1dd297aac52f9c10565523f" target="_top" xlink:title=" ">
<polygon fill="white" stroke="black" points="1332.5,-769.5 1332.5,-788.5 1388.5,-788.5 1388.5,-769.5 1332.5,-769.5"/>
<text text-anchor="middle" x="1360.5" y="-776.5" font-family="Helvetica,sans-Serif" font-size="10.00">luaD_call</text>
</a>
</g>
</g>
<!-- Node11&#45;&gt;Node12 -->
<g id="edge12" class="edge"><title>Node11&#45;&gt;Node12</title>
<path fill="none" stroke="midnightblue" d="M1451.7,-959.397C1431,-918.003 1381.75,-819.491 1366.25,-788.502"/>
<polygon fill="midnightblue" stroke="midnightblue" points="1448.6,-961.023 1456.2,-968.402 1454.86,-957.892 1448.6,-961.023"/>
</g>
<!-- Node11&#45;&gt;Node276 -->
<g id="edge72" class="edge"><title>Node11&#45;&gt;Node276</title>
<path fill="none" stroke="midnightblue" d="M1416.93,-974.673C1374.55,-971.764 1308.69,-968 1251.5,-968 1251.5,-968 1251.5,-968 886.5,-968 803.992,-968 774.972,-972.721 705,-929 671.056,-907.791 646.468,-864.932 636.677,-845.712"/>
<polygon fill="midnightblue" stroke="midnightblue" points="1416.69,-978.165 1426.91,-975.373 1417.18,-971.182 1416.69,-978.165"/>
</g>
<!-- Node13 -->
<g id="node13" class="node"><title>Node13</title>
<g id="a_node13"><a xlink:href="lua_8h.html#aeebb647cb91c051b1955fac1207de386" target="_top" xlink:title=" ">
<polygon fill="white" stroke="black" points="1103.5,-446.5 1103.5,-465.5 1158.5,-465.5 1158.5,-446.5 1103.5,-446.5"/>
<text text-anchor="middle" x="1131" y="-453.5" font-family="Helvetica,sans-Serif" font-size="10.00">lua_callk</text>
</a>
</g>
</g>
<!-- Node12&#45;&gt;Node13 -->
<g id="edge13" class="edge"><title>Node12&#45;&gt;Node13</title>
<path fill="none" stroke="midnightblue" d="M1359.64,-759.153C1358.93,-713.645 1351.14,-600.439 1294,-532 1258.76,-489.791 1194.81,-469.618 1158.69,-461.187"/>
<polygon fill="midnightblue" stroke="midnightblue" points="1356.14,-759.215 1359.7,-769.196 1363.14,-759.177 1356.14,-759.215"/>
</g>
<!-- Node15 -->
<g id="node15" class="node"><title>Node15</title>
<g id="a_node15"><a xlink:href="lua_8h.html#ab03ab465d4ca870dc66e228b8dfd3f06" target="_top" xlink:title=" ">
<polygon fill="white" stroke="black" points="987.5,-66.5 987.5,-85.5 1047.5,-85.5 1047.5,-66.5 987.5,-66.5"/>
<text text-anchor="middle" x="1017.5" y="-73.5" font-family="Helvetica,sans-Serif" font-size="10.00">lua_pcallk</text>
</a>
</g>
</g>
<!-- Node12&#45;&gt;Node15 -->
<g id="edge15" class="edge"><title>Node12&#45;&gt;Node15</title>
<path fill="none" stroke="midnightblue" d="M1357.94,-759.273C1353.45,-709.426 1337.86,-575.117 1294,-473 1220.17,-301.101 1065.92,-127.437 1027.37,-85.5206"/>
<polygon fill="midnightblue" stroke="midnightblue" points="1354.46,-759.662 1358.8,-769.329 1361.44,-759.068 1354.46,-759.662"/>
</g>
<!-- Node18 -->
<g id="node18" class="node"><title>Node18</title>
<g id="a_node18"><a xlink:href="ldo_8h.html#a5315637506edcbdd30e9271e75416ae1" target="_top" xlink:title=" ">
<polygon fill="white" stroke="black" points="1207,-541.5 1207,-560.5 1294,-560.5 1294,-541.5 1207,-541.5"/>
<text text-anchor="middle" x="1250.5" y="-548.5" font-family="Helvetica,sans-Serif" font-size="10.00">luaD_callnoyield</text>
</a>
</g>
</g>
<!-- Node12&#45;&gt;Node18 -->
<g id="edge18" class="edge"><title>Node12&#45;&gt;Node18</title>
<path fill="none" stroke="midnightblue" d="M1350.64,-760.291C1328.69,-713.949 1272.38,-595.089 1256.02,-560.547"/>
<polygon fill="midnightblue" stroke="midnightblue" points="1347.55,-761.954 1355,-769.493 1353.88,-758.958 1347.55,-761.954"/>
</g>
<!-- Node12&#45;&gt;Node276 -->
<g id="edge70" class="edge"><title>Node12&#45;&gt;Node276</title>
<path fill="none" stroke="midnightblue" d="M1340.44,-796.259C1304.25,-832.528 1221.17,-912 1132,-912 1132,-912 1132,-912 886.5,-912 804.879,-912 779.921,-916.385 705,-884 683.156,-874.558 662.17,-856.982 648.352,-845.572"/>
<polygon fill="midnightblue" stroke="midnightblue" points="1343.26,-798.384 1347.83,-788.824 1338.3,-793.449 1343.26,-798.384"/>
</g>
<!-- Node554 -->
<g id="node46" class="node"><title>Node554</title>
<g id="a_node46"><a xlink:href="ltm_8h.html#a2d29ad84f74a0d1b498d3a26e6cb6537" target="_top" xlink:title=" ">
<polygon fill="white" stroke="black" points="983.5,-769.5 983.5,-788.5 1051.5,-788.5 1051.5,-769.5 983.5,-769.5"/>
<text text-anchor="middle" x="1017.5" y="-776.5" font-family="Helvetica,sans-Serif" font-size="10.00">luaT_callTM</text>
</a>
</g>
</g>
<!-- Node12&#45;&gt;Node554 -->
<g id="edge69" class="edge"><title>Node12&#45;&gt;Node554</title>
<path fill="none" stroke="midnightblue" d="M1322.37,-779C1255.45,-779 1115.67,-779 1051.72,-779"/>
<polygon fill="midnightblue" stroke="midnightblue" points="1322.46,-782.5 1332.46,-779 1322.46,-775.5 1322.46,-782.5"/>
</g>
<!-- Node14 -->
<g id="node14" class="node"><title>Node14</title>
<g id="a_node14"><a xlink:href="lbaselib_8c.html#a86a4e35d9c9ad4661a0dbbac3758c049" target="_top" xlink:title=" ">
<polygon fill="white" stroke="black" points="855.5,-104.5 855.5,-123.5 919.5,-123.5 919.5,-104.5 855.5,-104.5"/>
<text text-anchor="middle" x="887.5" y="-111.5" font-family="Helvetica,sans-Serif" font-size="10.00">luaB_dofile</text>
</a>
</g>
</g>
<!-- Node13&#45;&gt;Node14 -->
<g id="edge14" class="edge"><title>Node13&#45;&gt;Node14</title>
<path fill="none" stroke="midnightblue" d="M1119.64,-437.096C1110.81,-420.223 1098.41,-394.604 1091,-371 1063.95,-284.827 1113.84,-239.521 1055,-171 1020.86,-131.247 957.74,-119.175 919.788,-115.537"/>
<polygon fill="midnightblue" stroke="midnightblue" points="1116.8,-439.205 1124.6,-446.375 1122.98,-435.906 1116.8,-439.205"/>
</g>
<!-- Node16 -->
<g id="node16" class="node"><title>Node16</title>
<g id="a_node16"><a xlink:href="lbaselib_8c.html#a1fb2725eed679431d070b2e9e7abc223" target="_top" xlink:title=" ">
<polygon fill="white" stroke="black" points="856.5,-28.5 856.5,-47.5 918.5,-47.5 918.5,-28.5 856.5,-28.5"/>
<text text-anchor="middle" x="887.5" y="-35.5" font-family="Helvetica,sans-Serif" font-size="10.00">luaB_pcall</text>
</a>
</g>
</g>
<!-- Node15&#45;&gt;Node16 -->
<g id="edge16" class="edge"><title>Node15&#45;&gt;Node16</title>
<path fill="none" stroke="midnightblue" d="M977.65,-64.4665C958.752,-58.856 936.374,-52.2125 918.766,-46.9852"/>
<polygon fill="midnightblue" stroke="midnightblue" points="976.872,-67.8864 987.455,-67.3772 978.864,-61.1759 976.872,-67.8864"/>
</g>
<!-- Node17 -->
<g id="node17" class="node"><title>Node17</title>
<g id="a_node17"><a xlink:href="lbaselib_8c.html#a5fbb0094fa1a56f0a4c2547f1ec4c5ab" target="_top" xlink:title=" ">
<polygon fill="white" stroke="black" points="854,-66.5 854,-85.5 921,-85.5 921,-66.5 854,-66.5"/>
<text text-anchor="middle" x="887.5" y="-73.5" font-family="Helvetica,sans-Serif" font-size="10.00">luaB_xpcall</text>
</a>
</g>
</g>
<!-- Node15&#45;&gt;Node17 -->
<g id="edge17" class="edge"><title>Node15&#45;&gt;Node17</title>
<path fill="none" stroke="midnightblue" d="M977.261,-76C959.249,-76 938.143,-76 921.033,-76"/>
<polygon fill="midnightblue" stroke="midnightblue" points="977.455,-79.5001 987.455,-76 977.455,-72.5001 977.455,-79.5001"/>
</g>
<!-- Node18&#45;&gt;Node13 -->
<g id="edge25" class="edge"><title>Node18&#45;&gt;Node13</title>
<path fill="none" stroke="midnightblue" d="M1234.21,-533.263C1219.29,-516.706 1195.34,-492.058 1171,-475 1166.07,-471.542 1160.41,-468.39 1154.96,-465.69"/>
<polygon fill="midnightblue" stroke="midnightblue" points="1231.9,-535.929 1241.15,-541.1 1237.14,-531.291 1231.9,-535.929"/>
</g>
<!-- Node19 -->
<g id="node19" class="node"><title>Node19</title>
<g id="a_node19"><a xlink:href="lgc_8c.html#a929058f72c03750fa82374f6bfa639ee" target="_top" xlink:title=" ">
<polygon fill="white" stroke="black" points="1103,-560.5 1103,-579.5 1159,-579.5 1159,-560.5 1103,-560.5"/>
<text text-anchor="middle" x="1131" y="-567.5" font-family="Helvetica,sans-Serif" font-size="10.00">dothecall</text>
</a>
</g>
</g>
<!-- Node18&#45;&gt;Node19 -->
<g id="edge19" class="edge"><title>Node18&#45;&gt;Node19</title>
<path fill="none" stroke="midnightblue" d="M1196.52,-559.567C1183.61,-561.654 1170.32,-563.803 1159.19,-565.604"/>
<polygon fill="midnightblue" stroke="midnightblue" points="1197.43,-562.965 1206.75,-557.913 1196.32,-556.054 1197.43,-562.965"/>
</g>
<!-- Node38 -->
<g id="node23" class="node"><title>Node38</title>
<g id="a_node23"><a xlink:href="lapi_8c.html#ac3926c93fb08234f9f47e24653124910" target="_top" xlink:title=" ">
<polygon fill="white" stroke="black" points="1111.5,-342.5 1111.5,-361.5 1150.5,-361.5 1150.5,-342.5 1111.5,-342.5"/>
<text text-anchor="middle" x="1131" y="-349.5" font-family="Helvetica,sans-Serif" font-size="10.00">f_call</text>
</a>
</g>
</g>
<!-- Node18&#45;&gt;Node38 -->
<g id="edge23" class="edge"><title>Node18&#45;&gt;Node38</title>
<path fill="none" stroke="midnightblue" d="M1238.67,-532.659C1214.32,-491.419 1155.95,-392.556 1137.61,-361.502"/>
<polygon fill="midnightblue" stroke="midnightblue" points="1235.73,-534.57 1243.83,-541.402 1241.76,-531.011 1235.73,-534.57"/>
</g>
<!-- Node39 -->
<g id="node24" class="node"><title>Node39</title>
<g id="a_node24"><a xlink:href="ldebug_8h.html#acd5ef9f67a8e9d08f6540636fdbeafe6" target="_top" xlink:title=" ">
<polygon fill="white" stroke="black" points="1091,-484.5 1091,-503.5 1171,-503.5 1171,-484.5 1091,-484.5"/>
<text text-anchor="middle" x="1131" y="-491.5" font-family="Helvetica,sans-Serif" font-size="10.00">luaG_errormsg</text>
</a>
</g>
</g>
<!-- Node18&#45;&gt;Node39 -->
<g id="edge26" class="edge"><title>Node18&#45;&gt;Node39</title>
<path fill="none" stroke="midnightblue" d="M1220.56,-536.963C1199.16,-526.578 1170.56,-512.707 1151.73,-503.572"/>
<polygon fill="midnightblue" stroke="midnightblue" points="1219.31,-540.244 1229.83,-541.459 1222.36,-533.946 1219.31,-540.244"/>
</g>
<!-- Node18&#45;&gt;Node554 -->
<g id="edge59" class="edge"><title>Node18&#45;&gt;Node554</title>
<path fill="none" stroke="midnightblue" d="M1232.57,-567.712C1187.15,-612.536 1063.68,-734.403 1028.17,-769.453"/>
<polygon fill="midnightblue" stroke="midnightblue" points="1235.21,-570.022 1239.87,-560.507 1230.29,-565.04 1235.21,-570.022"/>
</g>
<!-- Node20 -->
<g id="node20" class="node"><title>Node20</title>
<g id="a_node20"><a xlink:href="lgc_8c.html#ab9ec6b56580b9e66f41743e393e7e033" target="_top" xlink:title=" ">
<polygon fill="white" stroke="black" points="995.5,-636.5 995.5,-655.5 1039.5,-655.5 1039.5,-636.5 995.5,-636.5"/>
<text text-anchor="middle" x="1017.5" y="-643.5" font-family="Helvetica,sans-Serif" font-size="10.00">GCTM</text>
</a>
</g>
</g>
<!-- Node19&#45;&gt;Node20 -->
<g id="edge20" class="edge"><title>Node19&#45;&gt;Node20</title>
<path fill="none" stroke="midnightblue" d="M1107.61,-585.259C1085.19,-600.542 1051.38,-623.588 1032.51,-636.453"/>
<polygon fill="midnightblue" stroke="midnightblue" points="1109.59,-588.15 1115.88,-579.625 1105.64,-582.366 1109.59,-588.15"/>
</g>
<!-- Node21 -->
<g id="node21" class="node"><title>Node21</title>
<g id="a_node21"><a xlink:href="lgc_8c.html#a3c6f43e1b63924361ed0ce31b6d30f8b" target="_top" xlink:title=" ">
<polygon fill="white" stroke="red" points="831,-636.5 831,-655.5 944,-655.5 944,-636.5 831,-636.5"/>
<text text-anchor="middle" x="887.5" y="-643.5" font-family="Helvetica,sans-Serif" font-size="10.00">callallpendingfinalizers</text>
</a>
</g>
</g>
<!-- Node20&#45;&gt;Node21 -->
<g id="edge21" class="edge"><title>Node20&#45;&gt;Node21</title>
<path fill="none" stroke="midnightblue" d="M985.146,-646C972.792,-646 958.221,-646 944.192,-646"/>
<polygon fill="midnightblue" stroke="midnightblue" points="985.363,-649.5 995.363,-646 985.363,-642.5 985.363,-649.5"/>
</g>
<!-- Node30 -->
<g id="node22" class="node"><title>Node30</title>
<g id="a_node22"><a xlink:href="lgc_8c.html#a2227b99225928218094ad77f66a712ac" target="_top" xlink:title=" ">
<polygon fill="white" stroke="red" points="843.5,-674.5 843.5,-693.5 931.5,-693.5 931.5,-674.5 843.5,-674.5"/>
<text text-anchor="middle" x="887.5" y="-681.5" font-family="Helvetica,sans-Serif" font-size="10.00">runafewfinalizers</text>
</a>
</g>
</g>
<!-- Node20&#45;&gt;Node30 -->
<g id="edge22" class="edge"><title>Node20&#45;&gt;Node30</title>
<path fill="none" stroke="midnightblue" d="M985.675,-655.151C966.03,-660.983 940.621,-668.527 920.712,-674.437"/>
<polygon fill="midnightblue" stroke="midnightblue" points="986.773,-658.476 995.363,-652.275 984.781,-651.766 986.773,-658.476"/>
</g>
<!-- Node38&#45;&gt;Node15 -->
<g id="edge24" class="edge"><title>Node38&#45;&gt;Node15</title>
<path fill="none" stroke="midnightblue" d="M1124.25,-332.679C1108.62,-280.319 1065.75,-138.329 1055,-119 1047.96,-106.335 1036.86,-93.9421 1028.75,-85.7397"/>
<polygon fill="midnightblue" stroke="midnightblue" points="1120.95,-333.831 1127.16,-342.415 1127.65,-331.832 1120.95,-333.831"/>
</g>
<!-- Node40 -->
<g id="node25" class="node"><title>Node40</title>
<g id="a_node25"><a xlink:href="lua_8h.html#aae6c05ddea7bd110a3e84595ef92e601" target="_top" xlink:title=" ">
<polygon fill="white" stroke="black" points="990.5,-180.5 990.5,-199.5 1044.5,-199.5 1044.5,-180.5 990.5,-180.5"/>
<text text-anchor="middle" x="1017.5" y="-187.5" font-family="Helvetica,sans-Serif" font-size="10.00">lua_error</text>
</a>
</g>
</g>
<!-- Node39&#45;&gt;Node40 -->
<g id="edge27" class="edge"><title>Node39&#45;&gt;Node40</title>
<path fill="none" stroke="midnightblue" d="M1094.1,-478.308C1092.99,-477.27 1091.95,-476.168 1091,-475 1019.76,-387.498 1017.49,-238.676 1018.2,-199.618"/>
<polygon fill="midnightblue" stroke="midnightblue" points="1092.1,-481.179 1102.23,-484.277 1096.24,-475.537 1092.1,-481.179"/>
</g>
<!-- Node259 -->
<g id="node28" class="node"><title>Node259</title>
<g id="a_node28"><a xlink:href="ldebug_8h.html#a6f27f64630215e18a11be9ba21d3c4bf" target="_top" xlink:title=" ">
<polygon fill="white" stroke="red" points="980,-446.5 980,-465.5 1055,-465.5 1055,-446.5 980,-446.5"/>
<text text-anchor="middle" x="1017.5" y="-453.5" font-family="Helvetica,sans-Serif" font-size="10.00">luaG_runerror</text>
</a>
</g>
</g>
<!-- Node39&#45;&gt;Node259 -->
<g id="edge32" class="edge"><title>Node39&#45;&gt;Node259</title>
<path fill="none" stroke="midnightblue" d="M1092.37,-481.174C1077.41,-476.075 1060.49,-470.311 1046.63,-465.586"/>
<polygon fill="midnightblue" stroke="midnightblue" points="1091.27,-484.498 1101.86,-484.411 1093.53,-477.872 1091.27,-484.498"/>
</g>
<!-- Node40&#45;&gt;Node7 -->
<g id="edge28" class="edge"><title>Node40&#45;&gt;Node7</title>
<path fill="none" stroke="midnightblue" d="M980.457,-179.353C968.898,-176.263 955.987,-173.147 944,-171 859.158,-155.805 837.192,-152 751,-152 751,-152 751,-152 361.5,-152 262.569,-152 180.108,-264.808 157.28,-299.179"/>
<polygon fill="midnightblue" stroke="midnightblue" points="979.638,-182.758 990.209,-182.037 981.496,-176.009 979.638,-182.758"/>
</g>
<!-- Node40&#45;&gt;Node14 -->
<g id="edge29" class="edge"><title>Node40&#45;&gt;Node14</title>
<path fill="none" stroke="midnightblue" d="M996.69,-174.02C982.536,-163.053 962.753,-148.617 944,-138 934.408,-132.569 923.348,-127.556 913.637,-123.531"/>
<polygon fill="midnightblue" stroke="midnightblue" points="994.693,-176.903 1004.72,-180.336 999.022,-171.401 994.693,-176.903"/>
</g>
<!-- Node41 -->
<g id="node26" class="node"><title>Node41</title>
<g id="a_node26"><a xlink:href="lbaselib_8c.html#a2ecfa987569d0b4c1063f3e204e42dd2" target="_top" xlink:title=" ">
<polygon fill="white" stroke="red" points="857,-180.5 857,-199.5 918,-199.5 918,-180.5 857,-180.5"/>
<text text-anchor="middle" x="887.5" y="-187.5" font-family="Helvetica,sans-Serif" font-size="10.00">luaB_error</text>
</a>
</g>
</g>
<!-- Node40&#45;&gt;Node41 -->
<g id="edge30" class="edge"><title>Node40&#45;&gt;Node41</title>
<path fill="none" stroke="midnightblue" d="M980.2,-190C960.614,-190 936.74,-190 918.262,-190"/>
<polygon fill="midnightblue" stroke="midnightblue" points="980.288,-193.5 990.288,-190 980.288,-186.5 980.288,-193.5"/>
</g>
<!-- Node43 -->
<g id="node27" class="node"><title>Node43</title>
<g id="a_node27"><a xlink:href="lauxlib_8h.html#a994f73d7985c30672469a260d9e86ae6" target="_top" xlink:title=" ">
<polygon fill="white" stroke="red" points="858,-218.5 858,-237.5 917,-237.5 917,-218.5 858,-218.5"/>
<text text-anchor="middle" x="887.5" y="-225.5" font-family="Helvetica,sans-Serif" font-size="10.00">luaL_error</text>
</a>
</g>
</g>
<!-- Node40&#45;&gt;Node43 -->
<g id="edge31" class="edge"><title>Node40&#45;&gt;Node43</title>
<path fill="none" stroke="midnightblue" d="M980.601,-200.658C960.619,-206.59 936.076,-213.876 917.352,-219.435"/>
<polygon fill="midnightblue" stroke="midnightblue" points="981.698,-203.983 990.288,-197.782 979.706,-197.272 981.698,-203.983"/>
</g>
<!-- Node260 -->
<g id="node29" class="node"><title>Node260</title>
<g id="a_node29"><a xlink:href="ltable_8c.html#afac29fc748fed24ad34a4779df7cc176" target="_top" xlink:title=" ">
<polygon fill="white" stroke="red" points="860,-484.5 860,-503.5 915,-503.5 915,-484.5 860,-484.5"/>
<text text-anchor="middle" x="887.5" y="-491.5" font-family="Helvetica,sans-Serif" font-size="10.00">findindex</text>
</a>
</g>
</g>
<!-- Node259&#45;&gt;Node260 -->
<g id="edge33" class="edge"><title>Node259&#45;&gt;Node260</title>
<path fill="none" stroke="midnightblue" d="M974.6,-468.439C955.046,-474.244 932.355,-480.981 915.177,-486.08"/>
<polygon fill="midnightblue" stroke="midnightblue" points="975.61,-471.79 984.2,-465.589 973.618,-465.08 975.61,-471.79"/>
</g>
<!-- Node266 -->
<g id="node30" class="node"><title>Node266</title>
<g id="a_node30"><a xlink:href="lua_8h.html#af2786755dac30d9e89f9a02948a84def" target="_top" xlink:title=" ">
<polygon fill="white" stroke="black" points="857.5,-446.5 857.5,-465.5 917.5,-465.5 917.5,-446.5 857.5,-446.5"/>
<text text-anchor="middle" x="887.5" y="-453.5" font-family="Helvetica,sans-Serif" font-size="10.00">lua_yieldk</text>
</a>
</g>
</g>
<!-- Node259&#45;&gt;Node266 -->
<g id="edge34" class="edge"><title>Node259&#45;&gt;Node266</title>
<path fill="none" stroke="midnightblue" d="M969.362,-456C952.122,-456 933.124,-456 917.877,-456"/>
<polygon fill="midnightblue" stroke="midnightblue" points="969.82,-459.5 979.82,-456 969.82,-452.5 969.82,-459.5"/>
</g>
<!-- Node267 -->
<g id="node31" class="node"><title>Node267</title>
<g id="a_node31"><a xlink:href="ldo_8h.html#ab83418a7edbfafe87886f156aa6a9988" target="_top" xlink:title=" ">
<polygon fill="white" stroke="red" points="844.5,-408.5 844.5,-427.5 930.5,-427.5 930.5,-408.5 844.5,-408.5"/>
<text text-anchor="middle" x="887.5" y="-415.5" font-family="Helvetica,sans-Serif" font-size="10.00">luaD_growstack</text>
</a>
</g>
</g>
<!-- Node259&#45;&gt;Node267 -->
<g id="edge35" class="edge"><title>Node259&#45;&gt;Node267</title>
<path fill="none" stroke="midnightblue" d="M974.276,-443.465C956.863,-438.295 937.008,-432.401 920.789,-427.586"/>
<polygon fill="midnightblue" stroke="midnightblue" points="973.618,-446.92 984.2,-446.411 975.61,-440.21 973.618,-446.92"/>
</g>
<!-- Node270 -->
<g id="node32" class="node"><title>Node270</title>
<g id="a_node32"><a xlink:href="ldebug_8h.html#a7ae9c3f6343c93b4a8bb80e68706a6a3" target="_top" xlink:title=" ">
<polygon fill="white" stroke="red" points="846,-332.5 846,-351.5 929,-351.5 929,-332.5 846,-332.5"/>
<text text-anchor="middle" x="887.5" y="-339.5" font-family="Helvetica,sans-Serif" font-size="10.00">luaG_ordererror</text>
</a>
</g>
</g>
<!-- Node259&#45;&gt;Node270 -->
<g id="edge36" class="edge"><title>Node259&#45;&gt;Node270</title>
<path fill="none" stroke="midnightblue" d="M1006.79,-437.393C994.756,-416.062 972.336,-381.418 944,-361 938.712,-357.19 932.599,-354.097 926.404,-351.601"/>
<polygon fill="midnightblue" stroke="midnightblue" points="1003.85,-439.311 1011.7,-446.417 1009.99,-435.962 1003.85,-439.311"/>
</g>
<!-- Node278 -->
<g id="node33" class="node"><title>Node278</title>
<g id="a_node33"><a xlink:href="ldebug_8h.html#a74cd5eddc3de05ee203215f97aeacdfa" target="_top" xlink:title=" ">
<polygon fill="white" stroke="black" points="847.5,-598.5 847.5,-617.5 927.5,-617.5 927.5,-598.5 847.5,-598.5"/>
<text text-anchor="middle" x="887.5" y="-605.5" font-family="Helvetica,sans-Serif" font-size="10.00">luaG_tointerror</text>
</a>
</g>
</g>
<!-- Node259&#45;&gt;Node278 -->
<g id="edge37" class="edge"><title>Node259&#45;&gt;Node278</title>
<path fill="none" stroke="midnightblue" d="M1010.04,-475.386C999.957,-502.925 978.051,-553.417 944,-584 937.205,-590.103 928.619,-594.829 920.243,-598.41"/>
<polygon fill="midnightblue" stroke="midnightblue" points="1013.41,-476.328 1013.42,-465.733 1006.81,-474.009 1013.41,-476.328"/>
</g>
<!-- Node259&#45;&gt;Node276 -->
<g id="edge56" class="edge"><title>Node259&#45;&gt;Node276</title>
<path fill="none" stroke="midnightblue" d="M1003.11,-473.494C989.571,-490.319 967.365,-515.684 944,-533 898.968,-566.374 874.956,-554.22 831,-589 762.187,-643.448 759.742,-672.421 705,-741 680.345,-771.887 652.076,-809.256 639.138,-826.472"/>
<polygon fill="midnightblue" stroke="midnightblue" points="1005.92,-475.583 1009.36,-465.562 1000.42,-471.251 1005.92,-475.583"/>
</g>
<!-- Node454 -->
<g id="node36" class="node"><title>Node454</title>
<g id="a_node36"><a xlink:href="ldebug_8h.html#a375161dd1513420561f20f0b4c7b7e66" target="_top" xlink:title=" ">
<polygon fill="white" stroke="red" points="847.5,-370.5 847.5,-389.5 927.5,-389.5 927.5,-370.5 847.5,-370.5"/>
<text text-anchor="middle" x="887.5" y="-377.5" font-family="Helvetica,sans-Serif" font-size="10.00">luaG_typeerror</text>
</a>
</g>
</g>
<!-- Node259&#45;&gt;Node454 -->
<g id="edge43" class="edge"><title>Node259&#45;&gt;Node454</title>
<path fill="none" stroke="midnightblue" d="M999.064,-439.517C985.074,-427.009 964.459,-410.125 944,-399 937.29,-395.351 929.748,-392.209 922.437,-389.591"/>
<polygon fill="midnightblue" stroke="midnightblue" points="996.741,-442.135 1006.48,-446.298 1001.46,-436.968 996.741,-442.135"/>
</g>
<!-- Node457 -->
<g id="node37" class="node"><title>Node457</title>
<g id="a_node37"><a xlink:href="lvm_8h.html#a282d1037898c9b77aae41b12327a6c72" target="_top" xlink:title=" ">
<polygon fill="white" stroke="black" points="711.5,-503.5 711.5,-522.5 788.5,-522.5 788.5,-503.5 711.5,-503.5"/>
<text text-anchor="middle" x="750" y="-510.5" font-family="Helvetica,sans-Serif" font-size="10.00">luaV_finishget</text>
</a>
</g>
</g>
<!-- Node259&#45;&gt;Node457 -->
<g id="edge57" class="edge"><title>Node259&#45;&gt;Node457</title>
<path fill="none" stroke="midnightblue" d="M1001.3,-473.057C987.817,-486.813 966.767,-505.122 944,-513 892.545,-530.805 828.649,-526.006 788.838,-520.125"/>
<polygon fill="midnightblue" stroke="midnightblue" points="1004.02,-475.277 1008.33,-465.596 998.923,-470.479 1004.02,-475.277"/>
</g>
<!-- Node470 -->
<g id="node40" class="node"><title>Node470</title>
<g id="a_node40"><a xlink:href="lvm_8h.html#a57c2754ff3ea895f8206b4a67e762337" target="_top" xlink:title=" ">
<polygon fill="white" stroke="black" points="711.5,-332.5 711.5,-351.5 788.5,-351.5 788.5,-332.5 711.5,-332.5"/>
<text text-anchor="middle" x="750" y="-339.5" font-family="Helvetica,sans-Serif" font-size="10.00">luaV_finishset</text>
</a>
</g>
</g>
<!-- Node259&#45;&gt;Node470 -->
<g id="edge58" class="edge"><title>Node259&#45;&gt;Node470</title>
<path fill="none" stroke="midnightblue" d="M1014.92,-436.29C1010.75,-399.13 995.897,-319.366 944,-285 902.126,-257.272 878.835,-269.702 831,-285 801.762,-294.351 774.089,-318.732 760.235,-332.384"/>
<polygon fill="midnightblue" stroke="midnightblue" points="1011.45,-436.743 1015.9,-446.357 1018.41,-436.065 1011.45,-436.743"/>
</g>
<!-- Node495 -->
<g id="node45" class="node"><title>Node495</title>
<g id="a_node45"><a xlink:href="ltable_8h.html#a61547e63b2d74aa68da53a7fd235e77e" target="_top" xlink:title=" ">
<polygon fill="white" stroke="red" points="850.5,-294.5 850.5,-313.5 924.5,-313.5 924.5,-294.5 850.5,-294.5"/>
<text text-anchor="middle" x="887.5" y="-301.5" font-family="Helvetica,sans-Serif" font-size="10.00">luaH_newkey</text>
</a>
</g>
</g>
<!-- Node259&#45;&gt;Node495 -->
<g id="edge54" class="edge"><title>Node259&#45;&gt;Node495</title>
<path fill="none" stroke="midnightblue" d="M1010.97,-436.716C1001.74,-407.932 980.539,-353.824 944,-323 938.395,-318.272 931.553,-314.7 924.613,-312.009"/>
<polygon fill="midnightblue" stroke="midnightblue" points="1007.66,-437.863 1013.92,-446.407 1014.35,-435.82 1007.66,-437.863"/>
</g>
<!-- Node279 -->
<g id="node34" class="node"><title>Node279</title>
<g id="a_node34"><a xlink:href="ltm_8h.html#a52f9c211746126a08117801bd7e2d826" target="_top" xlink:title=" ">
<polygon fill="white" stroke="red" points="711.5,-750.5 711.5,-769.5 788.5,-769.5 788.5,-750.5 711.5,-750.5"/>
<text text-anchor="middle" x="750" y="-757.5" font-family="Helvetica,sans-Serif" font-size="10.00">luaT_trybinTM</text>
</a>
</g>
</g>
<!-- Node278&#45;&gt;Node279 -->
<g id="edge38" class="edge"><title>Node278&#45;&gt;Node279</title>
<path fill="none" stroke="midnightblue" d="M838.285,-622.01C835.717,-623.512 833.265,-625.17 831,-627 788.033,-661.714 762.58,-726.118 754.144,-750.401"/>
<polygon fill="midnightblue" stroke="midnightblue" points="839.976,-625.077 847.363,-617.482 836.852,-618.813 839.976,-625.077"/>
</g>
<!-- Node279&#45;&gt;Node276 -->
<g id="edge39" class="edge"><title>Node279&#45;&gt;Node276</title>
<path fill="none" stroke="midnightblue" d="M714.531,-773.864C711.253,-775.485 708.026,-777.205 705,-779 681.212,-793.107 656.436,-813.989 642.737,-826.173"/>
<polygon fill="midnightblue" stroke="midnightblue" points="716.182,-776.957 723.785,-769.577 713.24,-770.605 716.182,-776.957"/>
</g>
<!-- Node276&#45;&gt;Node4 -->
<g id="edge42" class="edge"><title>Node276&#45;&gt;Node4</title>
<path fill="none" stroke="midnightblue" d="M582.953,-826.284C573.794,-824.392 564.69,-822.512 557.095,-820.943"/>
<polygon fill="midnightblue" stroke="midnightblue" points="582.344,-829.732 592.845,-828.327 583.76,-822.876 582.344,-829.732"/>
</g>
<!-- Node276&#45;&gt;Node10 -->
<g id="edge41" class="edge"><title>Node276&#45;&gt;Node10</title>
<path fill="none" stroke="midnightblue" d="M582.673,-841.213C549.744,-844.84 507.238,-849.522 481.196,-852.39"/>
<polygon fill="midnightblue" stroke="midnightblue" points="583.438,-844.65 592.994,-840.076 582.671,-837.692 583.438,-844.65"/>
</g>
<!-- Node276&#45;&gt;Node12 -->
<g id="edge40" class="edge"><title>Node276&#45;&gt;Node12</title>
<path fill="none" stroke="midnightblue" d="M642.979,-854.02C656.303,-869.894 680.093,-891.234 705,-902 779.921,-934.385 804.879,-930 886.5,-930 1132,-930 1132,-930 1132,-930 1235.83,-930 1331.4,-822.25 1354.31,-788.522"/>
<polygon fill="midnightblue" stroke="midnightblue" points="645.582,-851.663 636.714,-845.866 640.031,-855.928 645.582,-851.663"/>
</g>
<!-- Node454&#45;&gt;Node457 -->
<g id="edge44" class="edge"><title>Node454&#45;&gt;Node457</title>
<path fill="none" stroke="midnightblue" d="M838.961,-393.91C836.166,-395.441 833.485,-397.133 831,-399 792.339,-428.048 765.258,-481.289 755.26,-503.191"/>
<polygon fill="midnightblue" stroke="midnightblue" points="840.638,-396.988 848.176,-389.543 837.64,-390.662 840.638,-396.988"/>
</g>
<!-- Node454&#45;&gt;Node470 -->
<g id="edge48" class="edge"><title>Node454&#45;&gt;Node470</title>
<path fill="none" stroke="midnightblue" d="M842.575,-367.682C823.959,-362.461 802.591,-356.468 785.181,-351.586"/>
<polygon fill="midnightblue" stroke="midnightblue" points="841.734,-371.081 852.308,-370.411 843.624,-364.341 841.734,-371.081"/>
</g>
<!-- Node491 -->
<g id="node43" class="node"><title>Node491</title>
<g id="a_node43"><a xlink:href="lvm_8h.html#a414b4b487239935324f2f16e1e7715db" target="_top" xlink:title=" ">
<polygon fill="white" stroke="black" points="716.5,-541.5 716.5,-560.5 783.5,-560.5 783.5,-541.5 716.5,-541.5"/>
<text text-anchor="middle" x="750" y="-548.5" font-family="Helvetica,sans-Serif" font-size="10.00">luaV_objlen</text>
</a>
</g>
</g>
<!-- Node454&#45;&gt;Node491 -->
<g id="edge51" class="edge"><title>Node454&#45;&gt;Node491</title>
<path fill="none" stroke="midnightblue" d="M838.63,-392.635C835.845,-394.475 833.263,-396.584 831,-399 789.139,-443.697 835.091,-485.709 795,-532 791.732,-535.774 787.578,-538.822 783.134,-541.278"/>
<polygon fill="midnightblue" stroke="midnightblue" points="840.325,-395.698 847.474,-387.879 837.009,-389.533 840.325,-395.698"/>
</g>
<!-- Node457&#45;&gt;Node276 -->
<g id="edge47" class="edge"><title>Node457&#45;&gt;Node276</title>
<path fill="none" stroke="midnightblue" d="M708.261,-528.633C707.098,-529.685 706.004,-530.806 705,-532 665.515,-578.934 638.853,-779.925 633.146,-826.388"/>
<polygon fill="midnightblue" stroke="midnightblue" points="710.61,-531.26 716.77,-522.64 706.579,-525.537 710.61,-531.26"/>
</g>
<!-- Node458 -->
<g id="node38" class="node"><title>Node458</title>
<g id="a_node38"><a xlink:href="lapi_8c.html#a1b28b3a312121ffb29541632648b9f78" target="_top" xlink:title=" ">
<polygon fill="white" stroke="red" points="602.5,-503.5 602.5,-522.5 659.5,-522.5 659.5,-503.5 602.5,-503.5"/>
<text text-anchor="middle" x="631" y="-510.5" font-family="Helvetica,sans-Serif" font-size="10.00">auxgetstr</text>
</a>
</g>
</g>
<!-- Node457&#45;&gt;Node458 -->
<g id="edge45" class="edge"><title>Node457&#45;&gt;Node458</title>
<path fill="none" stroke="midnightblue" d="M701.219,-513C687.046,-513 672.003,-513 659.575,-513"/>
<polygon fill="midnightblue" stroke="midnightblue" points="701.336,-516.5 711.336,-513 701.336,-509.5 701.336,-516.5"/>
</g>
<!-- Node469 -->
<g id="node39" class="node"><title>Node469</title>
<g id="a_node39"><a xlink:href="lua_8h.html#aa61540e05598186dd6afb26e0f37716c" target="_top" xlink:title=" ">
<polygon fill="white" stroke="red" points="606,-465.5 606,-484.5 656,-484.5 656,-465.5 606,-465.5"/>
<text text-anchor="middle" x="631" y="-472.5" font-family="Helvetica,sans-Serif" font-size="10.00">lua_geti</text>
</a>
</g>
</g>
<!-- Node457&#45;&gt;Node469 -->
<g id="edge46" class="edge"><title>Node457&#45;&gt;Node469</title>
<path fill="none" stroke="midnightblue" d="M709.896,-500.3C692.062,-494.507 671.515,-487.834 656.003,-482.796"/>
<polygon fill="midnightblue" stroke="midnightblue" points="708.884,-503.651 719.476,-503.411 711.046,-496.993 708.884,-503.651"/>
</g>
<!-- Node471 -->
<g id="node41" class="node"><title>Node471</title>
<g id="a_node41"><a xlink:href="lapi_8c.html#a0667fbf88666853554967226d9a3df4d" target="_top" xlink:title=" ">
<polygon fill="white" stroke="red" points="602.5,-351.5 602.5,-370.5 659.5,-370.5 659.5,-351.5 602.5,-351.5"/>
<text text-anchor="middle" x="631" y="-358.5" font-family="Helvetica,sans-Serif" font-size="10.00">auxsetstr</text>
</a>
</g>
</g>
<!-- Node470&#45;&gt;Node471 -->
<g id="edge49" class="edge"><title>Node470&#45;&gt;Node471</title>
<path fill="none" stroke="midnightblue" d="M701.219,-349.759C687.046,-352.061 672.003,-354.504 659.575,-356.522"/>
<polygon fill="midnightblue" stroke="midnightblue" points="702.027,-353.174 711.336,-348.116 700.905,-346.265 702.027,-353.174"/>
</g>
<!-- Node489 -->
<g id="node42" class="node"><title>Node489</title>
<g id="a_node42"><a xlink:href="lua_8h.html#a12ba17fc94b8cf0122aa367170688453" target="_top" xlink:title=" ">
<polygon fill="white" stroke="red" points="606,-313.5 606,-332.5 656,-332.5 656,-313.5 606,-313.5"/>
<text text-anchor="middle" x="631" y="-320.5" font-family="Helvetica,sans-Serif" font-size="10.00">lua_seti</text>
</a>
</g>
</g>
<!-- Node470&#45;&gt;Node489 -->
<g id="edge50" class="edge"><title>Node470&#45;&gt;Node489</title>
<path fill="none" stroke="midnightblue" d="M701.367,-334.265C685.893,-331.752 669.367,-329.068 656.329,-326.951"/>
<polygon fill="midnightblue" stroke="midnightblue" points="700.905,-337.735 711.336,-335.884 702.027,-330.826 700.905,-337.735"/>
</g>
<!-- Node491&#45;&gt;Node276 -->
<g id="edge53" class="edge"><title>Node491&#45;&gt;Node276</title>
<path fill="none" stroke="midnightblue" d="M714.534,-566.076C710.971,-568.665 707.682,-571.63 705,-575 640.843,-655.633 633.031,-789.315 632.113,-826.273"/>
<polygon fill="midnightblue" stroke="midnightblue" points="716.537,-568.952 723.183,-560.7 712.842,-563.006 716.537,-568.952"/>
</g>
<!-- Node492 -->
<g id="node44" class="node"><title>Node492</title>
<g id="a_node44"><a xlink:href="lua_8h.html#ac7ade66f92b5e325c42371926f879818" target="_top" xlink:title=" ">
<polygon fill="white" stroke="red" points="607.5,-541.5 607.5,-560.5 654.5,-560.5 654.5,-541.5 607.5,-541.5"/>
<text text-anchor="middle" x="631" y="-548.5" font-family="Helvetica,sans-Serif" font-size="10.00">lua_len</text>
</a>
</g>
</g>
<!-- Node491&#45;&gt;Node492 -->
<g id="edge52" class="edge"><title>Node491&#45;&gt;Node492</title>
<path fill="none" stroke="midnightblue" d="M705.927,-551C688.592,-551 669.31,-551 654.787,-551"/>
<polygon fill="midnightblue" stroke="midnightblue" points="706.409,-554.5 716.409,-551 706.409,-547.5 706.409,-554.5"/>
</g>
<!-- Node495&#45;&gt;Node470 -->
<g id="edge55" class="edge"><title>Node495&#45;&gt;Node470</title>
<path fill="none" stroke="midnightblue" d="M842.575,-316.318C823.959,-321.539 802.591,-327.532 785.181,-332.414"/>
<polygon fill="midnightblue" stroke="midnightblue" points="843.624,-319.659 852.308,-313.589 841.734,-312.919 843.624,-319.659"/>
</g>
<!-- Node554&#45;&gt;Node457 -->
<g id="edge66" class="edge"><title>Node554&#45;&gt;Node457</title>
<path fill="none" stroke="midnightblue" d="M973.432,-774.498C924.889,-768.514 850.219,-756.268 831,-736 767.65,-669.193 852.095,-604.226 795,-532 792.007,-528.214 788.112,-525.168 783.877,-522.722"/>
<polygon fill="midnightblue" stroke="midnightblue" points="973.021,-777.974 983.365,-775.68 973.849,-771.023 973.021,-777.974"/>
</g>
<!-- Node554&#45;&gt;Node470 -->
<g id="edge67" class="edge"><title>Node554&#45;&gt;Node470</title>
<path fill="none" stroke="midnightblue" d="M994.181,-763.77C980.227,-754.76 961.617,-743.652 944,-736 896.011,-715.158 865.837,-742.036 831,-703 768.24,-632.675 816.137,-585.856 795,-494 782.432,-439.384 761.954,-375.291 754.153,-351.506"/>
<polygon fill="midnightblue" stroke="midnightblue" points="992.345,-766.751 1002.62,-769.33 996.196,-760.906 992.345,-766.751"/>
</g>
<!-- Node554&#45;&gt;Node491 -->
<g id="edge68" class="edge"><title>Node554&#45;&gt;Node491</title>
<path fill="none" stroke="midnightblue" d="M973.609,-790.543C932.951,-798.782 872.137,-803.783 831,-774 758.371,-721.417 751.426,-596.679 750.964,-560.806"/>
<polygon fill="midnightblue" stroke="midnightblue" points="974.458,-793.94 983.487,-788.397 972.972,-787.099 974.458,-793.94"/>
</g>
<!-- Node555 -->
<g id="node47" class="node"><title>Node555</title>
<g id="a_node47"><a xlink:href="ltm_8h.html#a6de2b3f5bf0afa1b9e4e8783113f4cab" target="_top" xlink:title=" ">
<polygon fill="white" stroke="black" points="847,-826.5 847,-845.5 928,-845.5 928,-826.5 847,-826.5"/>
<text text-anchor="middle" x="887.5" y="-833.5" font-family="Helvetica,sans-Serif" font-size="10.00">luaT_callbinTM</text>
</a>
</g>
</g>
<!-- Node554&#45;&gt;Node555 -->
<g id="edge60" class="edge"><title>Node554&#45;&gt;Node555</title>
<path fill="none" stroke="midnightblue" d="M986.211,-792.942C973.237,-798.873 957.901,-805.831 944,-812 933.157,-816.812 921.073,-822.052 910.956,-826.404"/>
<polygon fill="midnightblue" stroke="midnightblue" points="987.975,-795.984 995.608,-788.636 985.059,-789.62 987.975,-795.984"/>
</g>
<!-- Node557 -->
<g id="node49" class="node"><title>Node557</title>
<g id="a_node49"><a xlink:href="lvm_8h.html#a2f779d315adf5ac6a26c88409b58eeec" target="_top" xlink:title=" ">
<polygon fill="white" stroke="black" points="849,-864.5 849,-883.5 926,-883.5 926,-864.5 849,-864.5"/>
<text text-anchor="middle" x="887.5" y="-871.5" font-family="Helvetica,sans-Serif" font-size="10.00">luaV_equalobj</text>
</a>
</g>
</g>
<!-- Node554&#45;&gt;Node557 -->
<g id="edge63" class="edge"><title>Node554&#45;&gt;Node557</title>
<path fill="none" stroke="midnightblue" d="M1003.74,-796.655C990.54,-813.759 968.457,-839.345 944,-855 938.081,-858.789 931.322,-861.915 924.604,-864.461"/>
<polygon fill="midnightblue" stroke="midnightblue" points="1006.6,-798.68 1009.8,-788.581 1001,-794.479 1006.6,-798.68"/>
</g>
<!-- Node555&#45;&gt;Node279 -->
<g id="edge62" class="edge"><title>Node555&#45;&gt;Node279</title>
<path fill="none" stroke="midnightblue" d="M850.121,-822.352C843.554,-819.312 836.919,-815.836 831,-812 812.786,-800.195 813.217,-790.8 795,-779 789.553,-775.472 783.34,-772.329 777.334,-769.666"/>
<polygon fill="midnightblue" stroke="midnightblue" points="849.038,-825.698 859.603,-826.486 851.835,-819.281 849.038,-825.698"/>
</g>
<!-- Node556 -->
<g id="node48" class="node"><title>Node556</title>
<g id="a_node48"><a xlink:href="ltm_8h.html#a42fa775919957ebfb826d96c80e65f92" target="_top" xlink:title=" ">
<polygon fill="white" stroke="red" points="705,-788.5 705,-807.5 795,-807.5 795,-788.5 705,-788.5"/>
<text text-anchor="middle" x="750" y="-795.5" font-family="Helvetica,sans-Serif" font-size="10.00">luaT_callorderTM</text>
</a>
</g>
</g>
<!-- Node555&#45;&gt;Node556 -->
<g id="edge61" class="edge"><title>Node555&#45;&gt;Node556</title>
<path fill="none" stroke="midnightblue" d="M842.575,-823.682C823.959,-818.461 802.591,-812.468 785.181,-807.586"/>
<polygon fill="midnightblue" stroke="midnightblue" points="841.734,-827.081 852.308,-826.411 843.624,-820.341 841.734,-827.081"/>
</g>
<!-- Node557&#45;&gt;Node276 -->
<g id="edge65" class="edge"><title>Node557&#45;&gt;Node276</title>
<path fill="none" stroke="midnightblue" d="M838.837,-863.268C824.767,-860.327 809.306,-857.314 795,-855 751.969,-848.039 702.151,-842.612 669.029,-839.371"/>
<polygon fill="midnightblue" stroke="midnightblue" points="838.29,-866.73 848.8,-865.387 839.746,-859.883 838.29,-866.73"/>
</g>
<!-- Node272 -->
<g id="node50" class="node"><title>Node272</title>
<g id="a_node50"><a xlink:href="lua_8h.html#a603a5975f5a19c1824e6af53c1326b5c" target="_top" xlink:title=" ">
<polygon fill="white" stroke="red" points="714,-864.5 714,-883.5 786,-883.5 786,-864.5 714,-864.5"/>
<text text-anchor="middle" x="750" y="-871.5" font-family="Helvetica,sans-Serif" font-size="10.00">lua_compare</text>
</a>
</g>
</g>
<!-- Node557&#45;&gt;Node272 -->
<g id="edge64" class="edge"><title>Node557&#45;&gt;Node272</title>
<path fill="none" stroke="midnightblue" d="M838.335,-874C821.144,-874 802.114,-874 786.217,-874"/>
<polygon fill="midnightblue" stroke="midnightblue" points="838.756,-877.5 848.756,-874 838.756,-870.5 838.756,-877.5"/>
</g>
</g>
</svg>
