<?xml version="1.0" encoding="UTF-8" standalone="no"?>
<!DOCTYPE svg PUBLIC "-//W3C//DTD SVG 1.1//EN"
 "http://www.w3.org/Graphics/SVG/1.1/DTD/svg11.dtd">
<!-- Generated by graphviz version 2.38.0 (20140413.2041)
 -->
<!-- Title: luaD_reallocstack Pages: 1 -->
<svg width="1161pt" height="955pt"
 viewBox="0.00 0.00 1161.00 955.49" xmlns="http://www.w3.org/2000/svg" xmlns:xlink="http://www.w3.org/1999/xlink">
<g id="graph0" class="graph" transform="scale(1 1) rotate(0) translate(4 951.486)">
<title>luaD_reallocstack</title>
<polygon fill="white" stroke="none" points="-4,4 -4,-951.486 1157,-951.486 1157,4 -4,4"/>
<!-- Node1 -->
<g id="node1" class="node"><title>Node1</title>
<g id="a_node1"><a xlink:title=" ">
<polygon fill="#bfbfbf" stroke="black" points="1059,-256.986 1059,-275.986 1153,-275.986 1153,-256.986 1059,-256.986"/>
<text text-anchor="middle" x="1106" y="-263.986" font-family="Helvetica,sans-Serif" font-size="10.00">luaD_reallocstack</text>
</a>
</g>
</g>
<!-- Node2 -->
<g id="node2" class="node"><title>Node2</title>
<g id="a_node2"><a xlink:href="ldo_8h.html#ab83418a7edbfafe87886f156aa6a9988" target="_top" xlink:title=" ">
<polygon fill="white" stroke="black" points="934,-292.986 934,-311.986 1020,-311.986 1020,-292.986 934,-292.986"/>
<text text-anchor="middle" x="977" y="-299.986" font-family="Helvetica,sans-Serif" font-size="10.00">luaD_growstack</text>
</a>
</g>
</g>
<!-- Node1&#45;&gt;Node2 -->
<g id="edge1" class="edge"><title>Node1&#45;&gt;Node2</title>
<path fill="none" stroke="midnightblue" d="M1061.49,-278.82C1045.26,-283.42 1027.09,-288.57 1011.86,-292.889"/>
<polygon fill="midnightblue" stroke="midnightblue" points="1062.63,-282.134 1071.3,-276.039 1060.72,-275.399 1062.63,-282.134"/>
</g>
<!-- Node58 -->
<g id="node28" class="node"><title>Node58</title>
<g id="a_node28"><a xlink:href="ldo_8h.html#a14e1a8d3ba0e5f6d55decb8b48826750" target="_top" xlink:title=" ">
<polygon fill="white" stroke="black" points="931,-221.986 931,-240.986 1023,-240.986 1023,-221.986 931,-221.986"/>
<text text-anchor="middle" x="977" y="-228.986" font-family="Helvetica,sans-Serif" font-size="10.00">luaD_shrinkstack</text>
</a>
</g>
</g>
<!-- Node1&#45;&gt;Node58 -->
<g id="edge28" class="edge"><title>Node1&#45;&gt;Node58</title>
<path fill="none" stroke="midnightblue" d="M1060.31,-254.169C1044.67,-249.859 1027.36,-245.088 1012.66,-241.038"/>
<polygon fill="midnightblue" stroke="midnightblue" points="1059.73,-257.639 1070.3,-256.922 1061.59,-250.891 1059.73,-257.639"/>
</g>
<!-- Node3 -->
<g id="node3" class="node"><title>Node3</title>
<g id="a_node3"><a xlink:href="lapi_8c.html#ab3a8303d450a61e55f7928da1fe14302" target="_top" xlink:title=" ">
<polygon fill="white" stroke="black" points="826,-309.986 826,-328.986 887,-328.986 887,-309.986 826,-309.986"/>
<text text-anchor="middle" x="856.5" y="-316.986" font-family="Helvetica,sans-Serif" font-size="10.00">growstack</text>
</a>
</g>
</g>
<!-- Node2&#45;&gt;Node3 -->
<g id="edge2" class="edge"><title>Node2&#45;&gt;Node3</title>
<path fill="none" stroke="midnightblue" d="M923.939,-309.955C911.361,-311.759 898.344,-313.627 887.202,-315.225"/>
<polygon fill="midnightblue" stroke="midnightblue" points="924.486,-313.412 933.888,-308.528 923.492,-306.483 924.486,-313.412"/>
</g>
<!-- Node4 -->
<g id="node4" class="node"><title>Node4</title>
<g id="a_node4"><a xlink:href="lua_8h.html#a3da4830349a139e15b4c08ced6739f0a" target="_top" xlink:title=" ">
<polygon fill="white" stroke="black" points="685,-338.986 685,-357.986 770,-357.986 770,-338.986 685,-338.986"/>
<text text-anchor="middle" x="727.5" y="-345.986" font-family="Helvetica,sans-Serif" font-size="10.00">lua_checkstack</text>
</a>
</g>
</g>
<!-- Node3&#45;&gt;Node4 -->
<g id="edge3" class="edge"><title>Node3&#45;&gt;Node4</title>
<path fill="none" stroke="midnightblue" d="M815.574,-328.603C801.101,-331.908 784.723,-335.648 770.108,-338.985"/>
<polygon fill="midnightblue" stroke="midnightblue" points="816.754,-331.924 825.724,-326.285 815.196,-325.099 816.754,-331.924"/>
</g>
<!-- Node5 -->
<g id="node5" class="node"><title>Node5</title>
<g id="a_node5"><a xlink:href="lcorolib_8c.html#aaa37b3a30ab0c6daef7fae8951fef3e7" target="_top" xlink:title=" ">
<polygon fill="white" stroke="black" points="559.5,-205.986 559.5,-224.986 624.5,-224.986 624.5,-205.986 559.5,-205.986"/>
<text text-anchor="middle" x="592" y="-212.986" font-family="Helvetica,sans-Serif" font-size="10.00">auxresume</text>
</a>
</g>
</g>
<!-- Node4&#45;&gt;Node5 -->
<g id="edge4" class="edge"><title>Node4&#45;&gt;Node5</title>
<path fill="none" stroke="midnightblue" d="M702.389,-333.279C692.822,-326.765 681.983,-318.758 673,-310.486 657.139,-295.88 617.233,-246.112 600.533,-225.038"/>
<polygon fill="midnightblue" stroke="midnightblue" points="700.459,-336.198 710.728,-338.805 704.326,-330.363 700.459,-336.198"/>
</g>
<!-- Node9 -->
<g id="node8" class="node"><title>Node9</title>
<g id="a_node8"><a xlink:href="ldblib_8c.html#aef541490d49259cf4cb14e7f9597600e" target="_top" xlink:title=" ">
<polygon fill="white" stroke="black" points="558.5,-414.986 558.5,-433.986 625.5,-433.986 625.5,-414.986 558.5,-414.986"/>
<text text-anchor="middle" x="592" y="-421.986" font-family="Helvetica,sans-Serif" font-size="10.00">checkstack</text>
</a>
</g>
</g>
<!-- Node4&#45;&gt;Node9 -->
<g id="edge7" class="edge"><title>Node4&#45;&gt;Node9</title>
<path fill="none" stroke="midnightblue" d="M700.758,-363.141C673.928,-378.415 632.668,-401.903 609.771,-414.939"/>
<polygon fill="midnightblue" stroke="midnightblue" points="702.633,-366.101 709.592,-358.112 699.17,-360.017 702.633,-366.101"/>
</g>
<!-- Node15 -->
<g id="node14" class="node"><title>Node15</title>
<g id="a_node14"><a xlink:href="lauxlib_8h.html#a724f5a5aeee97c0b40948c8bca91341c" target="_top" xlink:title=" ">
<polygon fill="white" stroke="black" points="547,-718.986 547,-737.986 637,-737.986 637,-718.986 547,-718.986"/>
<text text-anchor="middle" x="592" y="-725.986" font-family="Helvetica,sans-Serif" font-size="10.00">luaL_checkstack</text>
</a>
</g>
</g>
<!-- Node4&#45;&gt;Node15 -->
<g id="edge13" class="edge"><title>Node4&#45;&gt;Node15</title>
<path fill="none" stroke="midnightblue" d="M719.69,-367.87C695.484,-436.772 614.1,-668.427 596.411,-718.776"/>
<polygon fill="midnightblue" stroke="midnightblue" points="723.053,-368.856 723.066,-358.261 716.449,-366.536 723.053,-368.856"/>
</g>
<!-- Node57 -->
<g id="node27" class="node"><title>Node57</title>
<g id="a_node27"><a xlink:href="ltablib_8c.html#aab557c98c16305370f73c4c716f5725d" target="_top" xlink:title=" ">
<polygon fill="white" stroke="black" points="568,-338.986 568,-357.986 616,-357.986 616,-338.986 568,-338.986"/>
<text text-anchor="middle" x="592" y="-345.986" font-family="Helvetica,sans-Serif" font-size="10.00">unpack</text>
</a>
</g>
</g>
<!-- Node4&#45;&gt;Node57 -->
<g id="edge27" class="edge"><title>Node4&#45;&gt;Node57</title>
<path fill="none" stroke="midnightblue" d="M674.922,-348.486C654.644,-348.486 632.394,-348.486 616.206,-348.486"/>
<polygon fill="midnightblue" stroke="midnightblue" points="674.992,-351.986 684.992,-348.486 674.992,-344.986 674.992,-351.986"/>
</g>
<!-- Node6 -->
<g id="node6" class="node"><title>Node6</title>
<g id="a_node6"><a xlink:href="lcorolib_8c.html#a777abb20385a69ce4787f72bd90375a7" target="_top" xlink:title=" ">
<polygon fill="white" stroke="red" points="418.5,-129.986 418.5,-148.986 495.5,-148.986 495.5,-129.986 418.5,-129.986"/>
<text text-anchor="middle" x="457" y="-136.986" font-family="Helvetica,sans-Serif" font-size="10.00">luaB_auxwrap</text>
</a>
</g>
</g>
<!-- Node5&#45;&gt;Node6 -->
<g id="edge5" class="edge"><title>Node5&#45;&gt;Node6</title>
<path fill="none" stroke="midnightblue" d="M554.989,-201.411C552.209,-199.884 549.511,-198.241 547,-196.486 527.932,-183.158 530.481,-171.203 511,-158.486 505.27,-154.746 498.711,-151.631 492.205,-149.078"/>
<polygon fill="midnightblue" stroke="midnightblue" points="553.505,-204.582 564.019,-205.889 556.615,-198.31 553.505,-204.582"/>
</g>
<!-- Node8 -->
<g id="node7" class="node"><title>Node8</title>
<g id="a_node7"><a xlink:href="lcorolib_8c.html#a76f5d80387eeb1c7d31eb5f9cb6c9392" target="_top" xlink:title=" ">
<polygon fill="white" stroke="black" points="415,-167.986 415,-186.986 499,-186.986 499,-167.986 415,-167.986"/>
<text text-anchor="middle" x="457" y="-174.986" font-family="Helvetica,sans-Serif" font-size="10.00">luaB_coresume</text>
</a>
</g>
</g>
<!-- Node5&#45;&gt;Node8 -->
<g id="edge6" class="edge"><title>Node5&#45;&gt;Node8</title>
<path fill="none" stroke="midnightblue" d="M549.756,-203.702C531.079,-198.366 509.281,-192.138 491.618,-187.091"/>
<polygon fill="midnightblue" stroke="midnightblue" points="548.904,-207.099 559.481,-206.481 550.827,-200.368 548.904,-207.099"/>
</g>
<!-- Node10 -->
<g id="node9" class="node"><title>Node10</title>
<g id="a_node9"><a xlink:href="ldblib_8c.html#a6a624ae8d8ff673e72a317b280ed008d" target="_top" xlink:title=" ">
<polygon fill="white" stroke="black" points="423.5,-433.986 423.5,-452.986 490.5,-452.986 490.5,-433.986 423.5,-433.986"/>
<text text-anchor="middle" x="457" y="-440.986" font-family="Helvetica,sans-Serif" font-size="10.00">db_gethook</text>
</a>
</g>
</g>
<!-- Node9&#45;&gt;Node10 -->
<g id="edge8" class="edge"><title>Node9&#45;&gt;Node10</title>
<path fill="none" stroke="midnightblue" d="M548.413,-430.57C529.699,-433.243 508.071,-436.333 490.661,-438.82"/>
<polygon fill="midnightblue" stroke="midnightblue" points="549.06,-434.013 558.465,-429.134 548.07,-427.084 549.06,-434.013"/>
</g>
<!-- Node11 -->
<g id="node10" class="node"><title>Node11</title>
<g id="a_node10"><a xlink:href="ldblib_8c.html#a4eb57e66c2efb2d31c9b9e1b01d27e13" target="_top" xlink:title=" ">
<polygon fill="white" stroke="black" points="426.5,-395.986 426.5,-414.986 487.5,-414.986 487.5,-395.986 426.5,-395.986"/>
<text text-anchor="middle" x="457" y="-402.986" font-family="Helvetica,sans-Serif" font-size="10.00">db_getinfo</text>
</a>
</g>
</g>
<!-- Node9&#45;&gt;Node11 -->
<g id="edge9" class="edge"><title>Node9&#45;&gt;Node11</title>
<path fill="none" stroke="midnightblue" d="M548.491,-418.413C528.766,-415.596 505.79,-412.313 487.925,-409.761"/>
<polygon fill="midnightblue" stroke="midnightblue" points="548.07,-421.889 558.465,-419.838 549.06,-414.959 548.07,-421.889"/>
</g>
<!-- Node12 -->
<g id="node11" class="node"><title>Node12</title>
<g id="a_node11"><a xlink:href="ldblib_8c.html#ae802ce7397e9ebb08a90b69976578ecc" target="_top" xlink:title=" ">
<polygon fill="white" stroke="black" points="424,-357.986 424,-376.986 490,-376.986 490,-357.986 424,-357.986"/>
<text text-anchor="middle" x="457" y="-364.986" font-family="Helvetica,sans-Serif" font-size="10.00">db_getlocal</text>
</a>
</g>
</g>
<!-- Node9&#45;&gt;Node12 -->
<g id="edge10" class="edge"><title>Node9&#45;&gt;Node12</title>
<path fill="none" stroke="midnightblue" d="M562.817,-410.258C547.63,-402.806 528.471,-393.746 511,-386.486 503.057,-383.185 494.312,-379.909 486.255,-377.03"/>
<polygon fill="midnightblue" stroke="midnightblue" points="561.651,-413.587 572.166,-414.888 564.758,-407.314 561.651,-413.587"/>
</g>
<!-- Node13 -->
<g id="node12" class="node"><title>Node13</title>
<g id="a_node12"><a xlink:href="ldblib_8c.html#aa0c362d361f8f9bd8a002c34c393e2b0" target="_top" xlink:title=" ">
<polygon fill="white" stroke="black" points="423.5,-509.986 423.5,-528.986 490.5,-528.986 490.5,-509.986 423.5,-509.986"/>
<text text-anchor="middle" x="457" y="-516.986" font-family="Helvetica,sans-Serif" font-size="10.00">db_sethook</text>
</a>
</g>
</g>
<!-- Node9&#45;&gt;Node13 -->
<g id="edge11" class="edge"><title>Node9&#45;&gt;Node13</title>
<path fill="none" stroke="midnightblue" d="M576.246,-442.268C561.327,-459.259 536.837,-484.575 511,-500.486 504.758,-504.33 497.624,-507.553 490.657,-510.188"/>
<polygon fill="midnightblue" stroke="midnightblue" points="579.281,-444.105 583.132,-434.235 573.967,-439.549 579.281,-444.105"/>
</g>
<!-- Node14 -->
<g id="node13" class="node"><title>Node14</title>
<g id="a_node13"><a xlink:href="ldblib_8c.html#a11cfe90e96e7ea907a767f5109f7ef4b" target="_top" xlink:title=" ">
<polygon fill="white" stroke="black" points="424,-471.986 424,-490.986 490,-490.986 490,-471.986 424,-471.986"/>
<text text-anchor="middle" x="457" y="-478.986" font-family="Helvetica,sans-Serif" font-size="10.00">db_setlocal</text>
</a>
</g>
</g>
<!-- Node9&#45;&gt;Node14 -->
<g id="edge12" class="edge"><title>Node9&#45;&gt;Node14</title>
<path fill="none" stroke="midnightblue" d="M562.817,-438.714C547.63,-446.166 528.471,-455.226 511,-462.486 503.057,-465.787 494.312,-469.064 486.255,-471.943"/>
<polygon fill="midnightblue" stroke="midnightblue" points="564.758,-441.658 572.166,-434.084 561.651,-435.385 564.758,-441.658"/>
</g>
<!-- Node16 -->
<g id="node15" class="node"><title>Node16</title>
<g id="a_node15"><a xlink:href="lutf8lib_8c.html#af4280cee645f392590f2ed63a6301320" target="_top" xlink:title=" ">
<polygon fill="white" stroke="black" points="427.5,-623.986 427.5,-642.986 486.5,-642.986 486.5,-623.986 427.5,-623.986"/>
<text text-anchor="middle" x="457" y="-630.986" font-family="Helvetica,sans-Serif" font-size="10.00">codepoint</text>
</a>
</g>
</g>
<!-- Node15&#45;&gt;Node16 -->
<g id="edge14" class="edge"><title>Node15&#45;&gt;Node16</title>
<path fill="none" stroke="midnightblue" d="M576.246,-710.705C561.327,-693.713 536.837,-668.398 511,-652.486 503.509,-647.873 494.735,-644.155 486.505,-641.273"/>
<polygon fill="midnightblue" stroke="midnightblue" points="573.967,-713.423 583.132,-718.738 579.281,-708.867 573.967,-713.423"/>
</g>
<!-- Node17 -->
<g id="node16" class="node"><title>Node17</title>
<g id="a_node16"><a xlink:href="liolib_8c.html#addece2406777a40f0f591e3518293932" target="_top" xlink:title=" ">
<polygon fill="white" stroke="red" points="434,-661.986 434,-680.986 480,-680.986 480,-661.986 434,-661.986"/>
<text text-anchor="middle" x="457" y="-668.986" font-family="Helvetica,sans-Serif" font-size="10.00">g_read</text>
</a>
</g>
</g>
<!-- Node15&#45;&gt;Node17 -->
<g id="edge15" class="edge"><title>Node15&#45;&gt;Node17</title>
<path fill="none" stroke="midnightblue" d="M562.817,-714.258C547.63,-706.806 528.471,-697.746 511,-690.486 500.981,-686.323 489.686,-682.198 480.105,-678.86"/>
<polygon fill="midnightblue" stroke="midnightblue" points="561.651,-717.587 572.166,-718.888 564.758,-711.314 561.651,-717.587"/>
</g>
<!-- Node20 -->
<g id="node17" class="node"><title>Node20</title>
<g id="a_node17"><a xlink:href="liolib_8c.html#ac37d80ee2cc364b4adafcb6f7c20f28b" target="_top" xlink:title=" ">
<polygon fill="white" stroke="red" points="279,-737.986 279,-756.986 342,-756.986 342,-737.986 279,-737.986"/>
<text text-anchor="middle" x="310.5" y="-744.986" font-family="Helvetica,sans-Serif" font-size="10.00">io_readline</text>
</a>
</g>
</g>
<!-- Node15&#45;&gt;Node20 -->
<g id="edge19" class="edge"><title>Node15&#45;&gt;Node20</title>
<path fill="none" stroke="midnightblue" d="M578.771,-746.316C564.846,-764.874 540.203,-792.826 511,-804.486 466.422,-822.285 449.15,-817.685 403,-804.486 370.611,-795.223 338.533,-770.806 322.341,-757.125"/>
<polygon fill="midnightblue" stroke="midnightblue" points="581.706,-748.23 584.719,-738.073 576.029,-744.134 581.706,-748.23"/>
</g>
<!-- Node24 -->
<g id="node18" class="node"><title>Node24</title>
<g id="a_node18"><a xlink:href="lbaselib_8c.html#ad467c787e381e8d18e4c7b46b4f1b05d" target="_top" xlink:title=" ">
<polygon fill="white" stroke="black" points="417,-585.986 417,-604.986 497,-604.986 497,-585.986 417,-585.986"/>
<text text-anchor="middle" x="457" y="-592.986" font-family="Helvetica,sans-Serif" font-size="10.00">generic_reader</text>
</a>
</g>
</g>
<!-- Node15&#45;&gt;Node24 -->
<g id="edge17" class="edge"><title>Node15&#45;&gt;Node24</title>
<path fill="none" stroke="midnightblue" d="M582.312,-709.512C569.898,-684.388 544.795,-640.26 511,-614.486 505.948,-610.633 500.045,-607.512 494.048,-604.999"/>
<polygon fill="midnightblue" stroke="midnightblue" points="579.241,-711.203 586.71,-718.717 585.557,-708.185 579.241,-711.203"/>
</g>
<!-- Node26 -->
<g id="node20" class="node"><title>Node26</title>
<g id="a_node20"><a xlink:href="lua_8c.html#aa6faba0570416a2dfe7783da2dcbf6df" target="_top" xlink:title=" ">
<polygon fill="white" stroke="red" points="435.5,-547.986 435.5,-566.986 478.5,-566.986 478.5,-547.986 435.5,-547.986"/>
<text text-anchor="middle" x="457" y="-554.986" font-family="Helvetica,sans-Serif" font-size="10.00">l_print</text>
</a>
</g>
</g>
<!-- Node15&#45;&gt;Node26 -->
<g id="edge20" class="edge"><title>Node15&#45;&gt;Node26</title>
<path fill="none" stroke="midnightblue" d="M585.729,-708.799C576.146,-676.662 552.887,-612.874 511,-576.486 501.924,-568.601 489.334,-563.907 478.702,-561.158"/>
<polygon fill="midnightblue" stroke="midnightblue" points="582.456,-710.086 588.556,-718.749 589.189,-708.173 582.456,-710.086"/>
</g>
<!-- Node30 -->
<g id="node21" class="node"><title>Node30</title>
<g id="a_node21"><a xlink:href="lauxlib_8h.html#a8750009b9bbc508e4c3818ebd15b4e14" target="_top" xlink:title=" ">
<polygon fill="white" stroke="red" points="418.5,-927.986 418.5,-946.986 495.5,-946.986 495.5,-927.986 418.5,-927.986"/>
<text text-anchor="middle" x="457" y="-934.986" font-family="Helvetica,sans-Serif" font-size="10.00">luaL_setfuncs</text>
</a>
</g>
</g>
<!-- Node15&#45;&gt;Node30 -->
<g id="edge21" class="edge"><title>Node15&#45;&gt;Node30</title>
<path fill="none" stroke="midnightblue" d="M588.052,-748.2C581.333,-786.365 561.377,-870.773 511,-918.486 506.6,-922.654 501.222,-925.917 495.599,-928.469"/>
<polygon fill="midnightblue" stroke="midnightblue" points="591.506,-748.765 589.672,-738.33 584.599,-747.631 591.506,-748.765"/>
</g>
<!-- Node35 -->
<g id="node22" class="node"><title>Node35</title>
<g id="a_node22"><a xlink:href="lauxlib_8h.html#a664cc293d6c7a7dc67857fe95583a10e" target="_top" xlink:title=" ">
<polygon fill="white" stroke="red" points="415.5,-889.986 415.5,-908.986 498.5,-908.986 498.5,-889.986 415.5,-889.986"/>
<text text-anchor="middle" x="457" y="-896.986" font-family="Helvetica,sans-Serif" font-size="10.00">luaL_traceback</text>
</a>
</g>
</g>
<!-- Node15&#45;&gt;Node35 -->
<g id="edge22" class="edge"><title>Node15&#45;&gt;Node35</title>
<path fill="none" stroke="midnightblue" d="M585.729,-748.174C576.146,-780.31 552.887,-844.098 511,-880.486 506.573,-884.332 501.309,-887.419 495.845,-889.892"/>
<polygon fill="midnightblue" stroke="midnightblue" points="589.189,-748.799 588.556,-738.223 582.456,-746.886 589.189,-748.799"/>
</g>
<!-- Node46 -->
<g id="node23" class="node"><title>Node46</title>
<g id="a_node23"><a xlink:href="lstrlib_8c.html#ad14703c4bc40d7c1951dedb7bc7554f7" target="_top" xlink:title=" ">
<polygon fill="white" stroke="red" points="417,-851.986 417,-870.986 497,-870.986 497,-851.986 417,-851.986"/>
<text text-anchor="middle" x="457" y="-858.986" font-family="Helvetica,sans-Serif" font-size="10.00">push_captures</text>
</a>
</g>
</g>
<!-- Node15&#45;&gt;Node46 -->
<g id="edge23" class="edge"><title>Node15&#45;&gt;Node46</title>
<path fill="none" stroke="midnightblue" d="M581.228,-747.26C568.06,-771.003 542.586,-811.869 511,-837.486 503.704,-843.403 494.715,-848.189 486.225,-851.884"/>
<polygon fill="midnightblue" stroke="midnightblue" points="584.433,-748.691 586.1,-738.228 578.272,-745.367 584.433,-748.691"/>
</g>
<!-- Node54 -->
<g id="node24" class="node"><title>Node54</title>
<g id="a_node24"><a xlink:href="lua_8c.html#a1e73bab660617a11ddcbb7d647980d40" target="_top" xlink:title=" ">
<polygon fill="white" stroke="red" points="429,-775.986 429,-794.986 485,-794.986 485,-775.986 429,-775.986"/>
<text text-anchor="middle" x="457" y="-782.986" font-family="Helvetica,sans-Serif" font-size="10.00">pushargs</text>
</a>
</g>
</g>
<!-- Node15&#45;&gt;Node54 -->
<g id="edge24" class="edge"><title>Node15&#45;&gt;Node54</title>
<path fill="none" stroke="midnightblue" d="M562.817,-742.714C547.63,-750.166 528.471,-759.226 511,-766.486 502.696,-769.937 493.515,-773.361 485.161,-776.333"/>
<polygon fill="midnightblue" stroke="midnightblue" points="564.758,-745.658 572.166,-738.084 561.651,-739.385 564.758,-745.658"/>
</g>
<!-- Node55 -->
<g id="node25" class="node"><title>Node55</title>
<g id="a_node25"><a xlink:href="lstrlib_8c.html#ae561770420cfd1894054415df9d4c423" target="_top" xlink:title=" ">
<polygon fill="white" stroke="black" points="431,-737.986 431,-756.986 483,-756.986 483,-737.986 431,-737.986"/>
<text text-anchor="middle" x="457" y="-744.986" font-family="Helvetica,sans-Serif" font-size="10.00">str_byte</text>
</a>
</g>
</g>
<!-- Node15&#45;&gt;Node55 -->
<g id="edge25" class="edge"><title>Node15&#45;&gt;Node55</title>
<path fill="none" stroke="midnightblue" d="M536.585,-736.26C518.045,-738.908 498.209,-741.742 483.104,-743.9"/>
<polygon fill="midnightblue" stroke="midnightblue" points="537.308,-739.692 546.713,-734.813 536.318,-732.762 537.308,-739.692"/>
</g>
<!-- Node56 -->
<g id="node26" class="node"><title>Node56</title>
<g id="a_node26"><a xlink:href="lstrlib_8c.html#a3f3c1925e7829cbe972a744fa9168ec3" target="_top" xlink:title=" ">
<polygon fill="white" stroke="black" points="424.5,-699.986 424.5,-718.986 489.5,-718.986 489.5,-699.986 424.5,-699.986"/>
<text text-anchor="middle" x="457" y="-706.986" font-family="Helvetica,sans-Serif" font-size="10.00">str_unpack</text>
</a>
</g>
</g>
<!-- Node15&#45;&gt;Node56 -->
<g id="edge26" class="edge"><title>Node15&#45;&gt;Node56</title>
<path fill="none" stroke="midnightblue" d="M536.478,-720.697C520.638,-718.434 503.861,-716.038 489.902,-714.044"/>
<polygon fill="midnightblue" stroke="midnightblue" points="536.318,-724.21 546.713,-722.159 537.308,-717.28 536.318,-724.21"/>
</g>
<!-- Node17&#45;&gt;Node20 -->
<g id="edge16" class="edge"><title>Node17&#45;&gt;Node20</title>
<path fill="none" stroke="midnightblue" d="M424.437,-681.555C417.269,-684.183 409.775,-687.208 403,-690.486 373.855,-704.589 342.315,-725.662 324.927,-737.844"/>
<polygon fill="midnightblue" stroke="midnightblue" points="425.634,-684.845 433.911,-678.232 423.317,-678.239 425.634,-684.845"/>
</g>
<!-- Node25 -->
<g id="node19" class="node"><title>Node25</title>
<g id="a_node19"><a xlink:href="lbaselib_8c.html#a4a9a3613fcf80fe033e044f7e19bed69" target="_top" xlink:title=" ">
<polygon fill="white" stroke="black" points="281,-281.986 281,-300.986 340,-300.986 340,-281.986 281,-281.986"/>
<text text-anchor="middle" x="310.5" y="-288.986" font-family="Helvetica,sans-Serif" font-size="10.00">luaB_load</text>
</a>
</g>
</g>
<!-- Node24&#45;&gt;Node25 -->
<g id="edge18" class="edge"><title>Node24&#45;&gt;Node25</title>
<path fill="none" stroke="midnightblue" d="M408.127,-580.963C406.296,-579.602 404.573,-578.113 403,-576.486 322.985,-493.739 312.934,-340.824 311.678,-301.111"/>
<polygon fill="midnightblue" stroke="midnightblue" points="406.363,-583.986 416.734,-586.153 409.978,-577.991 406.363,-583.986"/>
</g>
<!-- Node59 -->
<g id="node29" class="node"><title>Node59</title>
<g id="a_node29"><a xlink:href="ldo_8h.html#ad1087faa52e2bb98c00806ea1ac198a6" target="_top" xlink:title=" ">
<polygon fill="white" stroke="black" points="825.5,-243.986 825.5,-262.986 887.5,-262.986 887.5,-243.986 825.5,-243.986"/>
<text text-anchor="middle" x="856.5" y="-250.986" font-family="Helvetica,sans-Serif" font-size="10.00">luaD_pcall</text>
</a>
</g>
</g>
<!-- Node58&#45;&gt;Node59 -->
<g id="edge29" class="edge"><title>Node58&#45;&gt;Node59</title>
<path fill="none" stroke="midnightblue" d="M920.943,-241.708C909.546,-243.824 897.941,-245.978 887.827,-247.856"/>
<polygon fill="midnightblue" stroke="midnightblue" points="921.669,-245.133 930.862,-239.866 920.391,-238.25 921.669,-245.133"/>
</g>
<!-- Node85 -->
<g id="node44" class="node"><title>Node85</title>
<g id="a_node44"><a xlink:href="ldo_8c.html#a8f3e3ff2aa0a4a251774a476cb0036ea" target="_top" xlink:title=" ">
<polygon fill="white" stroke="black" points="833,-205.986 833,-224.986 880,-224.986 880,-205.986 833,-205.986"/>
<text text-anchor="middle" x="856.5" y="-212.986" font-family="Helvetica,sans-Serif" font-size="10.00">recover</text>
</a>
</g>
</g>
<!-- Node58&#45;&gt;Node85 -->
<g id="edge47" class="edge"><title>Node58&#45;&gt;Node85</title>
<path fill="none" stroke="midnightblue" d="M920.598,-224.006C906.364,-222.084 891.833,-220.122 880.309,-218.566"/>
<polygon fill="midnightblue" stroke="midnightblue" points="920.484,-227.522 930.862,-225.392 921.42,-220.585 920.484,-227.522"/>
</g>
<!-- Node87 -->
<g id="node46" class="node"><title>Node87</title>
<g id="a_node46"><a xlink:href="lgc_8c.html#a10086932f19fc92b3ebbcd507d879866" target="_top" xlink:title=" ">
<polygon fill="white" stroke="black" points="818,-129.986 818,-148.986 895,-148.986 895,-129.986 818,-129.986"/>
<text text-anchor="middle" x="856.5" y="-136.986" font-family="Helvetica,sans-Serif" font-size="10.00">traversethread</text>
</a>
</g>
</g>
<!-- Node58&#45;&gt;Node87 -->
<g id="edge50" class="edge"><title>Node58&#45;&gt;Node87</title>
<path fill="none" stroke="midnightblue" d="M955.33,-215.439C930.731,-196.34 890.433,-165.055 870.09,-149.261"/>
<polygon fill="midnightblue" stroke="midnightblue" points="953.273,-218.273 963.318,-221.641 957.566,-212.743 953.273,-218.273"/>
</g>
<!-- Node60 -->
<g id="node30" class="node"><title>Node60</title>
<g id="a_node30"><a xlink:href="lgc_8c.html#ab9ec6b56580b9e66f41743e393e7e033" target="_top" xlink:title=" ">
<polygon fill="white" stroke="black" points="435,-205.986 435,-224.986 479,-224.986 479,-205.986 435,-205.986"/>
<text text-anchor="middle" x="457" y="-212.986" font-family="Helvetica,sans-Serif" font-size="10.00">GCTM</text>
</a>
</g>
</g>
<!-- Node59&#45;&gt;Node60 -->
<g id="edge30" class="edge"><title>Node59&#45;&gt;Node60</title>
<path fill="none" stroke="midnightblue" d="M815.092,-252.911C755.972,-251.637 642.544,-247.553 547,-234.486 523.519,-231.275 496.999,-225.304 479.063,-220.909"/>
<polygon fill="midnightblue" stroke="midnightblue" points="815.07,-256.411 825.138,-253.111 815.21,-249.413 815.07,-256.411"/>
</g>
<!-- Node77 -->
<g id="node37" class="node"><title>Node77</title>
<g id="a_node37"><a xlink:href="lua_8h.html#ab03ab465d4ca870dc66e228b8dfd3f06" target="_top" xlink:title=" ">
<polygon fill="white" stroke="black" points="697.5,-167.986 697.5,-186.986 757.5,-186.986 757.5,-167.986 697.5,-167.986"/>
<text text-anchor="middle" x="727.5" y="-174.986" font-family="Helvetica,sans-Serif" font-size="10.00">lua_pcallk</text>
</a>
</g>
</g>
<!-- Node59&#45;&gt;Node77 -->
<g id="edge38" class="edge"><title>Node59&#45;&gt;Node77</title>
<path fill="none" stroke="midnightblue" d="M824.49,-238.868C822.237,-237.478 820.048,-236.013 818,-234.486 799.349,-220.58 801.5,-209.174 782,-196.486 774.647,-191.702 765.94,-187.948 757.71,-185.086"/>
<polygon fill="midnightblue" stroke="midnightblue" points="822.903,-241.991 833.335,-243.842 826.334,-235.89 822.903,-241.991"/>
</g>
<!-- Node80 -->
<g id="node40" class="node"><title>Node80</title>
<g id="a_node40"><a xlink:href="ldo_8h.html#a5dffa85d966f14d3f3464db580f5b3fa" target="_top" xlink:title=" ">
<polygon fill="white" stroke="black" points="673,-281.986 673,-300.986 782,-300.986 782,-281.986 673,-281.986"/>
<text text-anchor="middle" x="727.5" y="-288.986" font-family="Helvetica,sans-Serif" font-size="10.00">luaD_protectedparser</text>
</a>
</g>
</g>
<!-- Node59&#45;&gt;Node80 -->
<g id="edge41" class="edge"><title>Node59&#45;&gt;Node80</title>
<path fill="none" stroke="midnightblue" d="M815.375,-265.492C797.707,-270.778 777.234,-276.904 760.601,-281.881"/>
<polygon fill="midnightblue" stroke="midnightblue" points="816.826,-268.711 825.403,-262.492 814.819,-262.005 816.826,-268.711"/>
</g>
<!-- Node61 -->
<g id="node31" class="node"><title>Node61</title>
<g id="a_node31"><a xlink:href="lgc_8c.html#a3c6f43e1b63924361ed0ce31b6d30f8b" target="_top" xlink:title=" ">
<polygon fill="white" stroke="black" points="254,-205.986 254,-224.986 367,-224.986 367,-205.986 254,-205.986"/>
<text text-anchor="middle" x="310.5" y="-212.986" font-family="Helvetica,sans-Serif" font-size="10.00">callallpendingfinalizers</text>
</a>
</g>
</g>
<!-- Node60&#45;&gt;Node61 -->
<g id="edge31" class="edge"><title>Node60&#45;&gt;Node61</title>
<path fill="none" stroke="midnightblue" d="M424.649,-215.486C407.855,-215.486 386.664,-215.486 367.175,-215.486"/>
<polygon fill="midnightblue" stroke="midnightblue" points="424.988,-218.986 434.988,-215.486 424.988,-211.986 424.988,-218.986"/>
</g>
<!-- Node69 -->
<g id="node33" class="node"><title>Node69</title>
<g id="a_node33"><a xlink:href="lgc_8c.html#a2227b99225928218094ad77f66a712ac" target="_top" xlink:title=" ">
<polygon fill="white" stroke="black" points="266.5,-129.986 266.5,-148.986 354.5,-148.986 354.5,-129.986 266.5,-129.986"/>
<text text-anchor="middle" x="310.5" y="-136.986" font-family="Helvetica,sans-Serif" font-size="10.00">runafewfinalizers</text>
</a>
</g>
</g>
<!-- Node60&#45;&gt;Node69 -->
<g id="edge33" class="edge"><title>Node60&#45;&gt;Node69</title>
<path fill="none" stroke="midnightblue" d="M425.456,-205.789C417.983,-203.076 410.097,-199.92 403,-196.486 373.855,-182.383 342.315,-161.31 324.927,-149.129"/>
<polygon fill="midnightblue" stroke="midnightblue" points="424.347,-209.109 434.942,-209.085 426.645,-202.497 424.347,-209.109"/>
</g>
<!-- Node62 -->
<g id="node32" class="node"><title>Node62</title>
<g id="a_node32"><a xlink:href="lgc_8h.html#a9aa52a500c9cc2076edb1707e6d8a045" target="_top" xlink:title=" ">
<polygon fill="white" stroke="red" points="120,-205.986 120,-224.986 218,-224.986 218,-205.986 120,-205.986"/>
<text text-anchor="middle" x="169" y="-212.986" font-family="Helvetica,sans-Serif" font-size="10.00">luaC_freeallobjects</text>
</a>
</g>
</g>
<!-- Node61&#45;&gt;Node62 -->
<g id="edge32" class="edge"><title>Node61&#45;&gt;Node62</title>
<path fill="none" stroke="midnightblue" d="M243.861,-215.486C235.192,-215.486 226.439,-215.486 218.139,-215.486"/>
<polygon fill="midnightblue" stroke="midnightblue" points="243.965,-218.986 253.965,-215.486 243.965,-211.986 243.965,-218.986"/>
</g>
<!-- Node70 -->
<g id="node34" class="node"><title>Node70</title>
<g id="a_node34"><a xlink:href="lgc_8h.html#a6c71cc4b9e503c0e96c0c4ffcff93900" target="_top" xlink:title=" ">
<polygon fill="white" stroke="red" points="12,-129.986 12,-148.986 72,-148.986 72,-129.986 12,-129.986"/>
<text text-anchor="middle" x="42" y="-136.986" font-family="Helvetica,sans-Serif" font-size="10.00">luaC_step</text>
</a>
</g>
</g>
<!-- Node69&#45;&gt;Node70 -->
<g id="edge34" class="edge"><title>Node69&#45;&gt;Node70</title>
<path fill="none" stroke="midnightblue" d="M256.058,-139.486C200.67,-139.486 116.151,-139.486 72.0588,-139.486"/>
<polygon fill="midnightblue" stroke="midnightblue" points="256.386,-142.986 266.386,-139.486 256.386,-135.986 256.386,-142.986"/>
</g>
<!-- Node73 -->
<g id="node35" class="node"><title>Node73</title>
<g id="a_node35"><a xlink:href="lgc_8c.html#ae34e22198155f5d365fe500d3735c150" target="_top" xlink:title=" ">
<polygon fill="white" stroke="black" points="138.5,-91.9861 138.5,-110.986 199.5,-110.986 199.5,-91.9861 138.5,-91.9861"/>
<text text-anchor="middle" x="169" y="-98.9861" font-family="Helvetica,sans-Serif" font-size="10.00">singlestep</text>
</a>
</g>
</g>
<!-- Node69&#45;&gt;Node73 -->
<g id="edge35" class="edge"><title>Node69&#45;&gt;Node73</title>
<path fill="none" stroke="midnightblue" d="M264.489,-127.225C243.204,-121.427 218.389,-114.667 199.531,-109.53"/>
<polygon fill="midnightblue" stroke="midnightblue" points="263.73,-130.646 274.298,-129.897 265.57,-123.892 263.73,-130.646"/>
</g>
<!-- Node73&#45;&gt;Node70 -->
<g id="edge37" class="edge"><title>Node73&#45;&gt;Node70</title>
<path fill="none" stroke="midnightblue" d="M128.628,-113.455C110.429,-118.988 89.1856,-125.446 72.4106,-130.545"/>
<polygon fill="midnightblue" stroke="midnightblue" points="129.827,-116.749 138.377,-110.492 127.791,-110.052 129.827,-116.749"/>
</g>
<!-- Node74 -->
<g id="node36" class="node"><title>Node74</title>
<g id="a_node36"><a xlink:href="lgc_8h.html#a1da32357417ce5766ed5e3ada033c32f" target="_top" xlink:title=" ">
<polygon fill="white" stroke="red" points="0,-91.9861 0,-110.986 84,-110.986 84,-91.9861 0,-91.9861"/>
<text text-anchor="middle" x="42" y="-98.9861" font-family="Helvetica,sans-Serif" font-size="10.00">luaC_runtilstate</text>
</a>
</g>
</g>
<!-- Node73&#45;&gt;Node74 -->
<g id="edge36" class="edge"><title>Node73&#45;&gt;Node74</title>
<path fill="none" stroke="midnightblue" d="M128.07,-101.486C114.074,-101.486 98.3334,-101.486 84.2328,-101.486"/>
<polygon fill="midnightblue" stroke="midnightblue" points="128.377,-104.986 138.377,-101.486 128.377,-97.9862 128.377,-104.986"/>
</g>
<!-- Node78 -->
<g id="node38" class="node"><title>Node78</title>
<g id="a_node38"><a xlink:href="lbaselib_8c.html#a1fb2725eed679431d070b2e9e7abc223" target="_top" xlink:title=" ">
<polygon fill="white" stroke="black" points="561,-167.986 561,-186.986 623,-186.986 623,-167.986 561,-167.986"/>
<text text-anchor="middle" x="592" y="-174.986" font-family="Helvetica,sans-Serif" font-size="10.00">luaB_pcall</text>
</a>
</g>
</g>
<!-- Node77&#45;&gt;Node78 -->
<g id="edge39" class="edge"><title>Node77&#45;&gt;Node78</title>
<path fill="none" stroke="midnightblue" d="M686.951,-177.486C666.534,-177.486 642.021,-177.486 623.154,-177.486"/>
<polygon fill="midnightblue" stroke="midnightblue" points="687.203,-180.986 697.203,-177.486 687.203,-173.986 687.203,-180.986"/>
</g>
<!-- Node79 -->
<g id="node39" class="node"><title>Node79</title>
<g id="a_node39"><a xlink:href="lbaselib_8c.html#a5fbb0094fa1a56f0a4c2547f1ec4c5ab" target="_top" xlink:title=" ">
<polygon fill="white" stroke="black" points="558.5,-129.986 558.5,-148.986 625.5,-148.986 625.5,-129.986 558.5,-129.986"/>
<text text-anchor="middle" x="592" y="-136.986" font-family="Helvetica,sans-Serif" font-size="10.00">luaB_xpcall</text>
</a>
</g>
</g>
<!-- Node77&#45;&gt;Node79 -->
<g id="edge40" class="edge"><title>Node77&#45;&gt;Node79</title>
<path fill="none" stroke="midnightblue" d="M687.324,-166.335C667.669,-160.74 644.145,-154.044 625.506,-148.739"/>
<polygon fill="midnightblue" stroke="midnightblue" points="686.627,-169.775 697.203,-169.147 688.543,-163.043 686.627,-169.775"/>
</g>
<!-- Node81 -->
<g id="node41" class="node"><title>Node81</title>
<g id="a_node41"><a xlink:href="lua_8h.html#a3f4c1ed5e0bd437dc527d62c5768b463" target="_top" xlink:title=" ">
<polygon fill="white" stroke="black" points="565.5,-281.986 565.5,-300.986 618.5,-300.986 618.5,-281.986 565.5,-281.986"/>
<text text-anchor="middle" x="592" y="-288.986" font-family="Helvetica,sans-Serif" font-size="10.00">lua_load</text>
</a>
</g>
</g>
<!-- Node80&#45;&gt;Node81 -->
<g id="edge42" class="edge"><title>Node80&#45;&gt;Node81</title>
<path fill="none" stroke="midnightblue" d="M662.777,-291.486C647.163,-291.486 631.328,-291.486 618.698,-291.486"/>
<polygon fill="midnightblue" stroke="midnightblue" points="662.97,-294.986 672.97,-291.486 662.97,-287.986 662.97,-294.986"/>
</g>
<!-- Node81&#45;&gt;Node25 -->
<g id="edge43" class="edge"><title>Node81&#45;&gt;Node25</title>
<path fill="none" stroke="midnightblue" d="M555.315,-281.131C541.589,-277.646 525.688,-274.206 511,-272.486 463.326,-266.902 450.749,-267.581 403,-272.486 381.696,-274.675 358.035,-279.658 340.111,-283.972"/>
<polygon fill="midnightblue" stroke="midnightblue" points="554.77,-284.607 565.333,-283.778 556.558,-277.839 554.77,-284.607"/>
</g>
<!-- Node82 -->
<g id="node42" class="node"><title>Node82</title>
<g id="a_node42"><a xlink:href="lauxlib_8h.html#a3ab1955dd9322cf03e2d3626ebfae669" target="_top" xlink:title=" ">
<polygon fill="white" stroke="black" points="414,-281.986 414,-300.986 500,-300.986 500,-281.986 414,-281.986"/>
<text text-anchor="middle" x="457" y="-288.986" font-family="Helvetica,sans-Serif" font-size="10.00">luaL_loadbufferx</text>
</a>
</g>
</g>
<!-- Node81&#45;&gt;Node82 -->
<g id="edge44" class="edge"><title>Node81&#45;&gt;Node82</title>
<path fill="none" stroke="midnightblue" d="M555.265,-291.486C538.256,-291.486 517.801,-291.486 500.048,-291.486"/>
<polygon fill="midnightblue" stroke="midnightblue" points="555.356,-294.986 565.356,-291.486 555.356,-287.986 555.356,-294.986"/>
</g>
<!-- Node83 -->
<g id="node43" class="node"><title>Node83</title>
<g id="a_node43"><a xlink:href="lauxlib_8h.html#a8c38c6dcf9db7e110e525b46742bacf8" target="_top" xlink:title=" ">
<polygon fill="white" stroke="red" points="419.5,-319.986 419.5,-338.986 494.5,-338.986 494.5,-319.986 419.5,-319.986"/>
<text text-anchor="middle" x="457" y="-326.986" font-family="Helvetica,sans-Serif" font-size="10.00">luaL_loadfilex</text>
</a>
</g>
</g>
<!-- Node81&#45;&gt;Node83 -->
<g id="edge46" class="edge"><title>Node81&#45;&gt;Node83</title>
<path fill="none" stroke="midnightblue" d="M555.477,-301.635C535.664,-307.296 511.126,-314.307 491.626,-319.879"/>
<polygon fill="midnightblue" stroke="midnightblue" points="556.703,-304.926 565.356,-298.813 554.779,-298.195 556.703,-304.926"/>
</g>
<!-- Node82&#45;&gt;Node25 -->
<g id="edge45" class="edge"><title>Node82&#45;&gt;Node25</title>
<path fill="none" stroke="midnightblue" d="M403.561,-291.486C382.187,-291.486 358.306,-291.486 340.224,-291.486"/>
<polygon fill="midnightblue" stroke="midnightblue" points="403.816,-294.986 413.816,-291.486 403.816,-287.986 403.816,-294.986"/>
</g>
<!-- Node86 -->
<g id="node45" class="node"><title>Node86</title>
<g id="a_node45"><a xlink:href="lua_8h.html#a434479f022eda738b99000aad5ddd929" target="_top" xlink:title=" ">
<polygon fill="white" stroke="black" points="694,-205.986 694,-224.986 761,-224.986 761,-205.986 694,-205.986"/>
<text text-anchor="middle" x="727.5" y="-212.986" font-family="Helvetica,sans-Serif" font-size="10.00">lua_resume</text>
</a>
</g>
</g>
<!-- Node85&#45;&gt;Node86 -->
<g id="edge48" class="edge"><title>Node85&#45;&gt;Node86</title>
<path fill="none" stroke="midnightblue" d="M822.544,-215.486C803.602,-215.486 779.9,-215.486 761.03,-215.486"/>
<polygon fill="midnightblue" stroke="midnightblue" points="822.795,-218.986 832.795,-215.486 822.795,-211.986 822.795,-218.986"/>
</g>
<!-- Node86&#45;&gt;Node5 -->
<g id="edge49" class="edge"><title>Node86&#45;&gt;Node5</title>
<path fill="none" stroke="midnightblue" d="M683.597,-215.486C664.516,-215.486 642.442,-215.486 624.86,-215.486"/>
<polygon fill="midnightblue" stroke="midnightblue" points="683.842,-218.986 693.842,-215.486 683.842,-211.986 683.842,-218.986"/>
</g>
<!-- Node88 -->
<g id="node47" class="node"><title>Node88</title>
<g id="a_node47"><a xlink:href="lgc_8c.html#accb36b237a98cbde36fa5bcf16a4ec1f" target="_top" xlink:title=" ">
<polygon fill="white" stroke="black" points="687,-91.9861 687,-110.986 768,-110.986 768,-91.9861 687,-91.9861"/>
<text text-anchor="middle" x="727.5" y="-98.9861" font-family="Helvetica,sans-Serif" font-size="10.00">propagatemark</text>
</a>
</g>
</g>
<!-- Node87&#45;&gt;Node88 -->
<g id="edge51" class="edge"><title>Node87&#45;&gt;Node88</title>
<path fill="none" stroke="midnightblue" d="M813.606,-126.951C796.329,-121.781 776.629,-115.887 760.537,-111.072"/>
<polygon fill="midnightblue" stroke="midnightblue" points="812.869,-130.384 823.453,-129.897 814.876,-123.677 812.869,-130.384"/>
</g>
<!-- Node88&#45;&gt;Node73 -->
<g id="edge58" class="edge"><title>Node88&#45;&gt;Node73</title>
<path fill="none" stroke="midnightblue" d="M676.815,-101.486C563.749,-101.486 290.034,-101.486 199.571,-101.486"/>
<polygon fill="midnightblue" stroke="midnightblue" points="676.924,-104.986 686.924,-101.486 676.924,-97.9862 676.924,-104.986"/>
</g>
<!-- Node89 -->
<g id="node48" class="node"><title>Node89</title>
<g id="a_node48"><a xlink:href="lgc_8c.html#a9a291e8a23c3611b6c79d792fe421f5c" target="_top" xlink:title=" ">
<polygon fill="white" stroke="black" points="557.5,-34.9861 557.5,-53.9861 626.5,-53.9861 626.5,-34.9861 557.5,-34.9861"/>
<text text-anchor="middle" x="592" y="-41.9861" font-family="Helvetica,sans-Serif" font-size="10.00">propagateall</text>
</a>
</g>
</g>
<!-- Node88&#45;&gt;Node89 -->
<g id="edge52" class="edge"><title>Node88&#45;&gt;Node89</title>
<path fill="none" stroke="midnightblue" d="M694.93,-88.0068C670.475,-77.5653 637.199,-63.3576 615.418,-54.0578"/>
<polygon fill="midnightblue" stroke="midnightblue" points="693.584,-91.2377 704.155,-91.9456 696.333,-84.7999 693.584,-91.2377"/>
</g>
<!-- Node89&#45;&gt;Node73 -->
<g id="edge57" class="edge"><title>Node89&#45;&gt;Node73</title>
<path fill="none" stroke="midnightblue" d="M567.273,-29.7774C551.866,-21.1141 530.999,-10.9945 511,-6.48612 464.175,4.06965 450.626,-0.508624 403,-6.48612 335.19,-14.9968 316.32,-16.4347 254,-44.4861 225.876,-57.1453 196.95,-79.1332 181.46,-91.78"/>
<polygon fill="midnightblue" stroke="midnightblue" points="565.7,-32.9119 576.103,-34.9201 569.223,-26.863 565.7,-32.9119"/>
</g>
<!-- Node90 -->
<g id="node49" class="node"><title>Node90</title>
<g id="a_node49"><a xlink:href="lgc_8c.html#aeeb04d4803ad9d53a05a8605130a31d0" target="_top" xlink:title=" ">
<polygon fill="white" stroke="black" points="287.5,-53.9861 287.5,-72.9861 333.5,-72.9861 333.5,-53.9861 287.5,-53.9861"/>
<text text-anchor="middle" x="310.5" y="-60.9861" font-family="Helvetica,sans-Serif" font-size="10.00">atomic</text>
</a>
</g>
</g>
<!-- Node89&#45;&gt;Node90 -->
<g id="edge53" class="edge"><title>Node89&#45;&gt;Node90</title>
<path fill="none" stroke="midnightblue" d="M547.273,-47.4586C486.771,-51.5714 379.78,-58.8445 333.666,-61.9793"/>
<polygon fill="midnightblue" stroke="midnightblue" points="547.546,-50.9482 557.286,-46.778 547.071,-43.9643 547.546,-50.9482"/>
</g>
<!-- Node91 -->
<g id="node50" class="node"><title>Node91</title>
<g id="a_node50"><a xlink:href="lgc_8c.html#a467150a6e5a6ef4402432c4964817ffc" target="_top" xlink:title=" ">
<polygon fill="white" stroke="black" points="403,-15.9861 403,-34.9861 511,-34.9861 511,-15.9861 403,-15.9861"/>
<text text-anchor="middle" x="457" y="-22.9861" font-family="Helvetica,sans-Serif" font-size="10.00">convergeephemerons</text>
</a>
</g>
</g>
<!-- Node89&#45;&gt;Node91 -->
<g id="edge55" class="edge"><title>Node89&#45;&gt;Node91</title>
<path fill="none" stroke="midnightblue" d="M547.208,-38.2301C535.701,-36.5863 523.164,-34.7953 511.222,-33.0893"/>
<polygon fill="midnightblue" stroke="midnightblue" points="547.044,-41.7421 557.438,-39.6916 548.034,-34.8125 547.044,-41.7421"/>
</g>
<!-- Node90&#45;&gt;Node73 -->
<g id="edge54" class="edge"><title>Node90&#45;&gt;Node73</title>
<path fill="none" stroke="midnightblue" d="M277.567,-72.1847C254.092,-78.5794 222.425,-87.2056 199.534,-93.4409"/>
<polygon fill="midnightblue" stroke="midnightblue" points="278.667,-75.5126 287.396,-69.5073 276.827,-68.7587 278.667,-75.5126"/>
</g>
<!-- Node91&#45;&gt;Node90 -->
<g id="edge56" class="edge"><title>Node91&#45;&gt;Node90</title>
<path fill="none" stroke="midnightblue" d="M409.679,-37.6674C384.176,-44.3741 353.704,-52.3875 333.545,-57.6889"/>
<polygon fill="midnightblue" stroke="midnightblue" points="410.756,-41.0034 419.537,-35.0751 408.975,-34.2336 410.756,-41.0034"/>
</g>
</g>
</svg>
