<?xml version="1.0" encoding="UTF-8" standalone="no"?>
<!DOCTYPE svg PUBLIC "-//W3C//DTD SVG 1.1//EN"
 "http://www.w3.org/Graphics/SVG/1.1/DTD/svg11.dtd">
<!-- Generated by graphviz version 2.38.0 (20140413.2041)
 -->
<!-- Title: luaD_shrinkstack Pages: 1 -->
<svg width="1348pt" height="367pt"
 viewBox="0.00 0.00 1348.00 366.90" xmlns="http://www.w3.org/2000/svg" xmlns:xlink="http://www.w3.org/1999/xlink">
<g id="graph0" class="graph" transform="scale(1 1) rotate(0) translate(4 362.902)">
<title>luaD_shrinkstack</title>
<polygon fill="white" stroke="none" points="-4,4 -4,-362.902 1344,-362.902 1344,4 -4,4"/>
<!-- Node1 -->
<g id="node1" class="node"><title>Node1</title>
<g id="a_node1"><a xlink:title=" ">
<polygon fill="#bfbfbf" stroke="black" points="1248,-149.402 1248,-168.402 1340,-168.402 1340,-149.402 1248,-149.402"/>
<text text-anchor="middle" x="1294" y="-156.402" font-family="Helvetica,sans-Serif" font-size="10.00">luaD_shrinkstack</text>
</a>
</g>
</g>
<!-- Node2 -->
<g id="node2" class="node"><title>Node2</title>
<g id="a_node2"><a xlink:href="ldo_8h.html#ad1087faa52e2bb98c00806ea1ac198a6" target="_top" xlink:title=" ">
<polygon fill="white" stroke="black" points="916.5,-225.402 916.5,-244.402 978.5,-244.402 978.5,-225.402 916.5,-225.402"/>
<text text-anchor="middle" x="947.5" y="-232.402" font-family="Helvetica,sans-Serif" font-size="10.00">luaD_pcall</text>
</a>
</g>
</g>
<!-- Node1&#45;&gt;Node2 -->
<g id="edge1" class="edge"><title>Node1&#45;&gt;Node2</title>
<path fill="none" stroke="midnightblue" d="M1243.02,-170.769C1232.77,-173.163 1222.04,-175.639 1212,-177.902 1127.53,-196.943 1027.54,-218.231 978.57,-228.574"/>
<polygon fill="midnightblue" stroke="midnightblue" points="1244.13,-174.103 1253.07,-168.414 1242.53,-167.288 1244.13,-174.103"/>
</g>
<!-- Node30 -->
<g id="node30" class="node"><title>Node30</title>
<g id="a_node30"><a xlink:href="ldo_8c.html#a8f3e3ff2aa0a4a251774a476cb0036ea" target="_top" xlink:title=" ">
<polygon fill="white" stroke="black" points="1150,-149.402 1150,-168.402 1197,-168.402 1197,-149.402 1150,-149.402"/>
<text text-anchor="middle" x="1173.5" y="-156.402" font-family="Helvetica,sans-Serif" font-size="10.00">recover</text>
</a>
</g>
</g>
<!-- Node1&#45;&gt;Node30 -->
<g id="edge34" class="edge"><title>Node1&#45;&gt;Node30</title>
<path fill="none" stroke="midnightblue" d="M1237.6,-158.902C1223.36,-158.902 1208.83,-158.902 1197.31,-158.902"/>
<polygon fill="midnightblue" stroke="midnightblue" points="1237.86,-162.402 1247.86,-158.902 1237.86,-155.402 1237.86,-162.402"/>
</g>
<!-- Node36 -->
<g id="node36" class="node"><title>Node36</title>
<g id="a_node36"><a xlink:href="lgc_8c.html#a10086932f19fc92b3ebbcd507d879866" target="_top" xlink:title=" ">
<polygon fill="white" stroke="black" points="1135,-101.402 1135,-120.402 1212,-120.402 1212,-101.402 1135,-101.402"/>
<text text-anchor="middle" x="1173.5" y="-108.402" font-family="Helvetica,sans-Serif" font-size="10.00">traversethread</text>
</a>
</g>
</g>
<!-- Node1&#45;&gt;Node36 -->
<g id="edge40" class="edge"><title>Node1&#45;&gt;Node36</title>
<path fill="none" stroke="midnightblue" d="M1259.82,-145.464C1240.21,-137.517 1215.82,-127.641 1198.15,-120.483"/>
<polygon fill="midnightblue" stroke="midnightblue" points="1258.72,-148.793 1269.3,-149.304 1261.35,-142.305 1258.72,-148.793"/>
</g>
<!-- Node3 -->
<g id="node3" class="node"><title>Node3</title>
<g id="a_node3"><a xlink:href="lgc_8c.html#ab9ec6b56580b9e66f41743e393e7e033" target="_top" xlink:title=" ">
<polygon fill="white" stroke="black" points="800.5,-244.402 800.5,-263.402 844.5,-263.402 844.5,-244.402 800.5,-244.402"/>
<text text-anchor="middle" x="822.5" y="-251.402" font-family="Helvetica,sans-Serif" font-size="10.00">GCTM</text>
</a>
</g>
</g>
<!-- Node2&#45;&gt;Node3 -->
<g id="edge2" class="edge"><title>Node2&#45;&gt;Node3</title>
<path fill="none" stroke="midnightblue" d="M906.374,-241.1C885.857,-244.269 861.715,-247.999 844.798,-250.612"/>
<polygon fill="midnightblue" stroke="midnightblue" points="907.062,-244.535 916.411,-239.55 905.994,-237.617 907.062,-244.535"/>
</g>
<!-- Node21 -->
<g id="node21" class="node"><title>Node21</title>
<g id="a_node21"><a xlink:href="lua_8h.html#ab03ab465d4ca870dc66e228b8dfd3f06" target="_top" xlink:title=" ">
<polygon fill="white" stroke="black" points="792.5,-206.402 792.5,-225.402 852.5,-225.402 852.5,-206.402 792.5,-206.402"/>
<text text-anchor="middle" x="822.5" y="-213.402" font-family="Helvetica,sans-Serif" font-size="10.00">lua_pcallk</text>
</a>
</g>
</g>
<!-- Node2&#45;&gt;Node21 -->
<g id="edge24" class="edge"><title>Node2&#45;&gt;Node21</title>
<path fill="none" stroke="midnightblue" d="M906.483,-228.72C889.015,-226.022 868.903,-222.915 852.854,-220.436"/>
<polygon fill="midnightblue" stroke="midnightblue" points="905.994,-232.186 916.411,-230.254 907.062,-225.268 905.994,-232.186"/>
</g>
<!-- Node24 -->
<g id="node24" class="node"><title>Node24</title>
<g id="a_node24"><a xlink:href="ldo_8h.html#a5dffa85d966f14d3f3464db580f5b3fa" target="_top" xlink:title=" ">
<polygon fill="white" stroke="black" points="768,-301.402 768,-320.402 877,-320.402 877,-301.402 768,-301.402"/>
<text text-anchor="middle" x="822.5" y="-308.402" font-family="Helvetica,sans-Serif" font-size="10.00">luaD_protectedparser</text>
</a>
</g>
</g>
<!-- Node2&#45;&gt;Node24 -->
<g id="edge27" class="edge"><title>Node2&#45;&gt;Node24</title>
<path fill="none" stroke="midnightblue" d="M922.132,-249.959C897.4,-265.24 859.864,-288.433 838.952,-301.354"/>
<polygon fill="midnightblue" stroke="midnightblue" points="924.255,-252.761 930.922,-244.527 920.575,-246.806 924.255,-252.761"/>
</g>
<!-- Node4 -->
<g id="node4" class="node"><title>Node4</title>
<g id="a_node4"><a xlink:href="lgc_8c.html#a3c6f43e1b63924361ed0ce31b6d30f8b" target="_top" xlink:title=" ">
<polygon fill="white" stroke="black" points="619,-282.402 619,-301.402 732,-301.402 732,-282.402 619,-282.402"/>
<text text-anchor="middle" x="675.5" y="-289.402" font-family="Helvetica,sans-Serif" font-size="10.00">callallpendingfinalizers</text>
</a>
</g>
</g>
<!-- Node3&#45;&gt;Node4 -->
<g id="edge3" class="edge"><title>Node3&#45;&gt;Node4</title>
<path fill="none" stroke="midnightblue" d="M790.584,-262.004C767.798,-267.975 736.732,-276.117 712.771,-282.396"/>
<polygon fill="midnightblue" stroke="midnightblue" points="791.63,-265.348 800.416,-259.427 789.855,-258.577 791.63,-265.348"/>
</g>
<!-- Node13 -->
<g id="node13" class="node"><title>Node13</title>
<g id="a_node13"><a xlink:href="lgc_8c.html#a2227b99225928218094ad77f66a712ac" target="_top" xlink:title=" ">
<polygon fill="white" stroke="black" points="631.5,-244.402 631.5,-263.402 719.5,-263.402 719.5,-244.402 631.5,-244.402"/>
<text text-anchor="middle" x="675.5" y="-251.402" font-family="Helvetica,sans-Serif" font-size="10.00">runafewfinalizers</text>
</a>
</g>
</g>
<!-- Node3&#45;&gt;Node13 -->
<g id="edge14" class="edge"><title>Node3&#45;&gt;Node13</title>
<path fill="none" stroke="midnightblue" d="M790.314,-253.902C769.719,-253.902 742.447,-253.902 719.762,-253.902"/>
<polygon fill="midnightblue" stroke="midnightblue" points="790.416,-257.402 800.416,-253.902 790.416,-250.402 790.416,-257.402"/>
</g>
<!-- Node5 -->
<g id="node5" class="node"><title>Node5</title>
<g id="a_node5"><a xlink:href="lgc_8h.html#a9aa52a500c9cc2076edb1707e6d8a045" target="_top" xlink:title=" ">
<polygon fill="white" stroke="black" points="485,-244.402 485,-263.402 583,-263.402 583,-244.402 485,-244.402"/>
<text text-anchor="middle" x="534" y="-251.402" font-family="Helvetica,sans-Serif" font-size="10.00">luaC_freeallobjects</text>
</a>
</g>
</g>
<!-- Node4&#45;&gt;Node5 -->
<g id="edge4" class="edge"><title>Node4&#45;&gt;Node5</title>
<path fill="none" stroke="midnightblue" d="M629.544,-279.656C610.315,-274.418 588.197,-268.393 570.19,-263.488"/>
<polygon fill="midnightblue" stroke="midnightblue" points="628.73,-283.061 639.298,-282.313 630.57,-276.307 628.73,-283.061"/>
</g>
<!-- Node6 -->
<g id="node6" class="node"><title>Node6</title>
<g id="a_node6"><a xlink:href="lstate_8c.html#a4940327dfa3b86df0ef008180bb3fcb3" target="_top" xlink:title=" ">
<polygon fill="white" stroke="black" points="373.5,-244.402 373.5,-263.402 440.5,-263.402 440.5,-244.402 373.5,-244.402"/>
<text text-anchor="middle" x="407" y="-251.402" font-family="Helvetica,sans-Serif" font-size="10.00">close_state</text>
</a>
</g>
</g>
<!-- Node5&#45;&gt;Node6 -->
<g id="edge5" class="edge"><title>Node5&#45;&gt;Node6</title>
<path fill="none" stroke="midnightblue" d="M474.549,-253.902C462.93,-253.902 451.123,-253.902 440.744,-253.902"/>
<polygon fill="midnightblue" stroke="midnightblue" points="474.672,-257.402 484.672,-253.902 474.672,-250.402 474.672,-257.402"/>
</g>
<!-- Node7 -->
<g id="node7" class="node"><title>Node7</title>
<g id="a_node7"><a xlink:href="lua_8h.html#afe030a97e84f24dfab3afb598faa2fff" target="_top" xlink:title=" ">
<polygon fill="white" stroke="black" points="263,-244.402 263,-263.402 321,-263.402 321,-244.402 263,-244.402"/>
<text text-anchor="middle" x="292" y="-251.402" font-family="Helvetica,sans-Serif" font-size="10.00">lua_close</text>
</a>
</g>
</g>
<!-- Node6&#45;&gt;Node7 -->
<g id="edge6" class="edge"><title>Node6&#45;&gt;Node7</title>
<path fill="none" stroke="midnightblue" d="M363.288,-253.902C349.142,-253.902 333.769,-253.902 321.016,-253.902"/>
<polygon fill="midnightblue" stroke="midnightblue" points="363.316,-257.402 373.316,-253.902 363.316,-250.402 363.316,-257.402"/>
</g>
<!-- Node10 -->
<g id="node10" class="node"><title>Node10</title>
<g id="a_node10"><a xlink:href="lua_8h.html#af722e4ac7fc0eba5920f59f0162c1b97" target="_top" xlink:title=" ">
<polygon fill="white" stroke="black" points="255,-187.402 255,-206.402 329,-206.402 329,-187.402 255,-187.402"/>
<text text-anchor="middle" x="292" y="-194.402" font-family="Helvetica,sans-Serif" font-size="10.00">lua_newstate</text>
</a>
</g>
</g>
<!-- Node6&#45;&gt;Node10 -->
<g id="edge9" class="edge"><title>Node6&#45;&gt;Node10</title>
<path fill="none" stroke="midnightblue" d="M377.893,-239.724C357.336,-229.355 330.004,-215.567 311.975,-206.473"/>
<polygon fill="midnightblue" stroke="midnightblue" points="376.582,-242.982 387.086,-244.361 379.734,-236.732 376.582,-242.982"/>
</g>
<!-- Node8 -->
<g id="node8" class="node"><title>Node8</title>
<g id="a_node8"><a xlink:href="lua_8c.html#a3c04138a5bfe5d72780bb7e82a18e627" target="_top" xlink:title=" ">
<polygon fill="white" stroke="black" points="33,-244.402 33,-263.402 71,-263.402 71,-244.402 33,-244.402"/>
<text text-anchor="middle" x="52" y="-251.402" font-family="Helvetica,sans-Serif" font-size="10.00">main</text>
</a>
</g>
</g>
<!-- Node7&#45;&gt;Node8 -->
<g id="edge7" class="edge"><title>Node7&#45;&gt;Node8</title>
<path fill="none" stroke="midnightblue" d="M253.268,-265.814C242.328,-268.733 230.288,-271.437 219,-272.902 184.181,-277.419 174.908,-276.669 140,-272.902 115.868,-270.297 88.6132,-263.741 71.1427,-259.06"/>
<polygon fill="midnightblue" stroke="midnightblue" points="254.266,-269.17 262.952,-263.103 252.379,-262.429 254.266,-269.17"/>
</g>
<!-- Node9 -->
<g id="node9" class="node"><title>Node9</title>
<g id="a_node9"><a xlink:href="loslib_8c.html#a905e81425fe3d6d0b363c10162a2a37b" target="_top" xlink:title=" ">
<polygon fill="white" stroke="black" points="155.5,-244.402 155.5,-263.402 203.5,-263.402 203.5,-244.402 155.5,-244.402"/>
<text text-anchor="middle" x="179.5" y="-251.402" font-family="Helvetica,sans-Serif" font-size="10.00">os_exit</text>
</a>
</g>
</g>
<!-- Node7&#45;&gt;Node9 -->
<g id="edge8" class="edge"><title>Node7&#45;&gt;Node9</title>
<path fill="none" stroke="midnightblue" d="M252.53,-253.902C236.285,-253.902 217.902,-253.902 203.773,-253.902"/>
<polygon fill="midnightblue" stroke="midnightblue" points="252.83,-257.402 262.83,-253.902 252.83,-250.402 252.83,-257.402"/>
</g>
<!-- Node11 -->
<g id="node11" class="node"><title>Node11</title>
<g id="a_node11"><a xlink:href="lauxlib_8h.html#a7d8712fcede90ae93d5a9a7b409c586e" target="_top" xlink:title=" ">
<polygon fill="white" stroke="black" points="140,-206.402 140,-225.402 219,-225.402 219,-206.402 140,-206.402"/>
<text text-anchor="middle" x="179.5" y="-213.402" font-family="Helvetica,sans-Serif" font-size="10.00">luaL_newstate</text>
</a>
</g>
</g>
<!-- Node10&#45;&gt;Node11 -->
<g id="edge10" class="edge"><title>Node10&#45;&gt;Node11</title>
<path fill="none" stroke="midnightblue" d="M244.909,-204.827C236.304,-206.307 227.394,-207.839 219.046,-209.274"/>
<polygon fill="midnightblue" stroke="midnightblue" points="245.556,-208.267 254.818,-203.123 244.37,-201.368 245.556,-208.267"/>
</g>
<!-- Node12 -->
<g id="node12" class="node"><title>Node12</title>
<g id="a_node12"><a xlink:href="lstate_8c.html#a8a0fc0aca5367250347c6bb6a788f05f" target="_top" xlink:title=" ">
<polygon fill="white" stroke="black" points="148.5,-168.402 148.5,-187.402 210.5,-187.402 210.5,-168.402 148.5,-168.402"/>
<text text-anchor="middle" x="179.5" y="-175.402" font-family="Helvetica,sans-Serif" font-size="10.00">makeseed</text>
</a>
</g>
</g>
<!-- Node10&#45;&gt;Node12 -->
<g id="edge12" class="edge"><title>Node10&#45;&gt;Node12</title>
<path fill="none" stroke="midnightblue" d="M258.146,-185.022C243.04,-181.685 225.244,-178.675 210.503,-176.981"/>
<polygon fill="midnightblue" stroke="midnightblue" points="257.568,-188.481 268.104,-187.372 259.176,-181.669 257.568,-188.481"/>
</g>
<!-- Node11&#45;&gt;Node8 -->
<g id="edge11" class="edge"><title>Node11&#45;&gt;Node8</title>
<path fill="none" stroke="midnightblue" d="M137.205,-228.405C114.809,-235.187 88.2687,-243.223 71.0562,-248.434"/>
<polygon fill="midnightblue" stroke="midnightblue" points="138.274,-231.739 146.831,-225.491 136.246,-225.039 138.274,-231.739"/>
</g>
<!-- Node12&#45;&gt;Node10 -->
<g id="edge13" class="edge"><title>Node12&#45;&gt;Node10</title>
<path fill="none" stroke="midnightblue" d="M213.499,-189.814C226.515,-192.684 241.508,-195.309 254.818,-197.06"/>
<polygon fill="midnightblue" stroke="midnightblue" points="214.091,-186.357 203.555,-187.472 212.486,-193.171 214.091,-186.357"/>
</g>
<!-- Node14 -->
<g id="node14" class="node"><title>Node14</title>
<g id="a_node14"><a xlink:href="lgc_8h.html#a6c71cc4b9e503c0e96c0c4ffcff93900" target="_top" xlink:title=" ">
<polygon fill="white" stroke="black" points="377,-130.402 377,-149.402 437,-149.402 437,-130.402 377,-130.402"/>
<text text-anchor="middle" x="407" y="-137.402" font-family="Helvetica,sans-Serif" font-size="10.00">luaC_step</text>
</a>
</g>
</g>
<!-- Node13&#45;&gt;Node14 -->
<g id="edge15" class="edge"><title>Node13&#45;&gt;Node14</title>
<path fill="none" stroke="midnightblue" d="M635.218,-240.964C629.742,-239.012 624.209,-236.961 619,-234.902 547.268,-206.546 464.446,-167.287 427.519,-149.429"/>
<polygon fill="midnightblue" stroke="midnightblue" points="634.339,-244.364 644.934,-244.35 636.643,-237.754 634.339,-244.364"/>
</g>
<!-- Node17 -->
<g id="node17" class="node"><title>Node17</title>
<g id="a_node17"><a xlink:href="lgc_8c.html#ae34e22198155f5d365fe500d3735c150" target="_top" xlink:title=" ">
<polygon fill="white" stroke="black" points="503.5,-92.4017 503.5,-111.402 564.5,-111.402 564.5,-92.4017 503.5,-92.4017"/>
<text text-anchor="middle" x="534" y="-99.4017" font-family="Helvetica,sans-Serif" font-size="10.00">singlestep</text>
</a>
</g>
</g>
<!-- Node13&#45;&gt;Node17 -->
<g id="edge18" class="edge"><title>Node13&#45;&gt;Node17</title>
<path fill="none" stroke="midnightblue" d="M625.276,-239.553C623.059,-238.144 620.95,-236.597 619,-234.902 592.301,-211.688 601.914,-193.802 583,-163.902 570.628,-144.345 553.521,-123.421 543.423,-111.57"/>
<polygon fill="midnightblue" stroke="midnightblue" points="623.785,-242.724 634.255,-244.341 627.078,-236.548 623.785,-242.724"/>
</g>
<!-- Node15 -->
<g id="node15" class="node"><title>Node15</title>
<g id="a_node15"><a xlink:href="lua_8h.html#a6bac487d3f900b21271e8c591bd801cd" target="_top" xlink:title=" ">
<polygon fill="white" stroke="black" points="157,-130.402 157,-149.402 202,-149.402 202,-130.402 157,-130.402"/>
<text text-anchor="middle" x="179.5" y="-137.402" font-family="Helvetica,sans-Serif" font-size="10.00">lua_gc</text>
</a>
</g>
</g>
<!-- Node14&#45;&gt;Node15 -->
<g id="edge16" class="edge"><title>Node14&#45;&gt;Node15</title>
<path fill="none" stroke="midnightblue" d="M366.726,-139.902C319.04,-139.902 240.293,-139.902 202.316,-139.902"/>
<polygon fill="midnightblue" stroke="midnightblue" points="366.981,-143.402 376.981,-139.902 366.981,-136.402 366.981,-143.402"/>
</g>
<!-- Node16 -->
<g id="node16" class="node"><title>Node16</title>
<g id="a_node16"><a xlink:href="lbaselib_8c.html#a07f71966c943cc9761ab129f64d4ac80" target="_top" xlink:title=" ">
<polygon fill="white" stroke="black" points="0,-130.402 0,-149.402 104,-149.402 104,-130.402 0,-130.402"/>
<text text-anchor="middle" x="52" y="-137.402" font-family="Helvetica,sans-Serif" font-size="10.00">luaB_collectgarbage</text>
</a>
</g>
</g>
<!-- Node15&#45;&gt;Node16 -->
<g id="edge17" class="edge"><title>Node15&#45;&gt;Node16</title>
<path fill="none" stroke="midnightblue" d="M146.72,-139.902C133.837,-139.902 118.63,-139.902 104.256,-139.902"/>
<polygon fill="midnightblue" stroke="midnightblue" points="146.926,-143.402 156.926,-139.902 146.926,-136.402 146.926,-143.402"/>
</g>
<!-- Node17&#45;&gt;Node14 -->
<g id="edge23" class="edge"><title>Node17&#45;&gt;Node14</title>
<path fill="none" stroke="midnightblue" d="M493.628,-113.871C475.429,-119.403 454.186,-125.861 437.411,-130.961"/>
<polygon fill="midnightblue" stroke="midnightblue" points="494.827,-117.165 503.377,-110.907 492.791,-110.467 494.827,-117.165"/>
</g>
<!-- Node18 -->
<g id="node18" class="node"><title>Node18</title>
<g id="a_node18"><a xlink:href="lgc_8h.html#a1da32357417ce5766ed5e3ada033c32f" target="_top" xlink:title=" ">
<polygon fill="white" stroke="black" points="365,-92.4017 365,-111.402 449,-111.402 449,-92.4017 365,-92.4017"/>
<text text-anchor="middle" x="407" y="-99.4017" font-family="Helvetica,sans-Serif" font-size="10.00">luaC_runtilstate</text>
</a>
</g>
</g>
<!-- Node17&#45;&gt;Node18 -->
<g id="edge19" class="edge"><title>Node17&#45;&gt;Node18</title>
<path fill="none" stroke="midnightblue" d="M493.07,-101.902C479.074,-101.902 463.333,-101.902 449.233,-101.902"/>
<polygon fill="midnightblue" stroke="midnightblue" points="493.377,-105.402 503.377,-101.902 493.377,-98.4018 493.377,-105.402"/>
</g>
<!-- Node19 -->
<g id="node19" class="node"><title>Node19</title>
<g id="a_node19"><a xlink:href="lgc_8h.html#aa0b753c3ed80e1eed0379ec58592c404" target="_top" xlink:title=" ">
<polygon fill="white" stroke="black" points="260,-92.4017 260,-111.402 324,-111.402 324,-92.4017 260,-92.4017"/>
<text text-anchor="middle" x="292" y="-99.4017" font-family="Helvetica,sans-Serif" font-size="10.00">luaC_fullgc</text>
</a>
</g>
</g>
<!-- Node18&#45;&gt;Node19 -->
<g id="edge20" class="edge"><title>Node18&#45;&gt;Node19</title>
<path fill="none" stroke="midnightblue" d="M354.67,-101.902C344.325,-101.902 333.747,-101.902 324.338,-101.902"/>
<polygon fill="midnightblue" stroke="midnightblue" points="354.885,-105.402 364.885,-101.902 354.885,-98.4018 354.885,-105.402"/>
</g>
<!-- Node19&#45;&gt;Node15 -->
<g id="edge21" class="edge"><title>Node19&#45;&gt;Node15</title>
<path fill="none" stroke="midnightblue" d="M253.396,-114.833C236.296,-120.714 216.675,-127.461 202.101,-132.473"/>
<polygon fill="midnightblue" stroke="midnightblue" points="254.798,-118.053 263.116,-111.491 252.522,-111.433 254.798,-118.053"/>
</g>
<!-- Node20 -->
<g id="node20" class="node"><title>Node20</title>
<g id="a_node20"><a xlink:href="lmem_8h.html#ae7dc8a57fc5dbca825653a88a356a72d" target="_top" xlink:title=" ">
<polygon fill="white" stroke="black" points="141,-92.4017 141,-111.402 218,-111.402 218,-92.4017 141,-92.4017"/>
<text text-anchor="middle" x="179.5" y="-99.4017" font-family="Helvetica,sans-Serif" font-size="10.00">luaM_realloc_</text>
</a>
</g>
</g>
<!-- Node19&#45;&gt;Node20 -->
<g id="edge22" class="edge"><title>Node19&#45;&gt;Node20</title>
<path fill="none" stroke="midnightblue" d="M249.8,-101.902C239.377,-101.902 228.239,-101.902 218.009,-101.902"/>
<polygon fill="midnightblue" stroke="midnightblue" points="249.926,-105.402 259.926,-101.902 249.925,-98.4018 249.926,-105.402"/>
</g>
<!-- Node22 -->
<g id="node22" class="node"><title>Node22</title>
<g id="a_node22"><a xlink:href="lbaselib_8c.html#a1fb2725eed679431d070b2e9e7abc223" target="_top" xlink:title=" ">
<polygon fill="white" stroke="black" points="644.5,-168.402 644.5,-187.402 706.5,-187.402 706.5,-168.402 644.5,-168.402"/>
<text text-anchor="middle" x="675.5" y="-175.402" font-family="Helvetica,sans-Serif" font-size="10.00">luaB_pcall</text>
</a>
</g>
</g>
<!-- Node21&#45;&gt;Node22 -->
<g id="edge25" class="edge"><title>Node21&#45;&gt;Node22</title>
<path fill="none" stroke="midnightblue" d="M782.357,-205.644C758.514,-199.395 728.516,-191.533 706.547,-185.776"/>
<polygon fill="midnightblue" stroke="midnightblue" points="781.596,-209.062 792.157,-208.212 783.371,-202.291 781.596,-209.062"/>
</g>
<!-- Node23 -->
<g id="node23" class="node"><title>Node23</title>
<g id="a_node23"><a xlink:href="lbaselib_8c.html#a5fbb0094fa1a56f0a4c2547f1ec4c5ab" target="_top" xlink:title=" ">
<polygon fill="white" stroke="black" points="642,-206.402 642,-225.402 709,-225.402 709,-206.402 642,-206.402"/>
<text text-anchor="middle" x="675.5" y="-213.402" font-family="Helvetica,sans-Serif" font-size="10.00">luaB_xpcall</text>
</a>
</g>
</g>
<!-- Node21&#45;&gt;Node23 -->
<g id="edge26" class="edge"><title>Node21&#45;&gt;Node23</title>
<path fill="none" stroke="midnightblue" d="M782.079,-215.902C759.188,-215.902 730.697,-215.902 709.083,-215.902"/>
<polygon fill="midnightblue" stroke="midnightblue" points="782.157,-219.402 792.157,-215.902 782.157,-212.402 782.157,-219.402"/>
</g>
<!-- Node25 -->
<g id="node25" class="node"><title>Node25</title>
<g id="a_node25"><a xlink:href="lua_8h.html#a3f4c1ed5e0bd437dc527d62c5768b463" target="_top" xlink:title=" ">
<polygon fill="white" stroke="black" points="649,-320.402 649,-339.402 702,-339.402 702,-320.402 649,-320.402"/>
<text text-anchor="middle" x="675.5" y="-327.402" font-family="Helvetica,sans-Serif" font-size="10.00">lua_load</text>
</a>
</g>
</g>
<!-- Node24&#45;&gt;Node25 -->
<g id="edge28" class="edge"><title>Node24&#45;&gt;Node25</title>
<path fill="none" stroke="midnightblue" d="M757.791,-319.25C738.213,-321.815 717.768,-324.494 702.278,-326.524"/>
<polygon fill="midnightblue" stroke="midnightblue" points="758.459,-322.692 767.919,-317.923 757.549,-315.752 758.459,-322.692"/>
</g>
<!-- Node26 -->
<g id="node26" class="node"><title>Node26</title>
<g id="a_node26"><a xlink:href="lbaselib_8c.html#a4a9a3613fcf80fe033e044f7e19bed69" target="_top" xlink:title=" ">
<polygon fill="white" stroke="black" points="377.5,-339.402 377.5,-358.402 436.5,-358.402 436.5,-339.402 377.5,-339.402"/>
<text text-anchor="middle" x="407" y="-346.402" font-family="Helvetica,sans-Serif" font-size="10.00">luaB_load</text>
</a>
</g>
</g>
<!-- Node25&#45;&gt;Node26 -->
<g id="edge29" class="edge"><title>Node25&#45;&gt;Node26</title>
<path fill="none" stroke="midnightblue" d="M638.743,-339.098C621.948,-342.96 601.578,-346.993 583,-348.902 531.621,-354.18 471.308,-352.448 436.584,-350.689"/>
<polygon fill="midnightblue" stroke="midnightblue" points="639.77,-342.451 648.691,-336.736 638.153,-335.641 639.77,-342.451"/>
</g>
<!-- Node27 -->
<g id="node27" class="node"><title>Node27</title>
<g id="a_node27"><a xlink:href="lauxlib_8h.html#a3ab1955dd9322cf03e2d3626ebfae669" target="_top" xlink:title=" ">
<polygon fill="white" stroke="black" points="491,-320.402 491,-339.402 577,-339.402 577,-320.402 491,-320.402"/>
<text text-anchor="middle" x="534" y="-327.402" font-family="Helvetica,sans-Serif" font-size="10.00">luaL_loadbufferx</text>
</a>
</g>
</g>
<!-- Node25&#45;&gt;Node27 -->
<g id="edge30" class="edge"><title>Node25&#45;&gt;Node27</title>
<path fill="none" stroke="midnightblue" d="M638.694,-329.902C619.907,-329.902 596.775,-329.902 577.13,-329.902"/>
<polygon fill="midnightblue" stroke="midnightblue" points="638.914,-333.402 648.914,-329.902 638.914,-326.402 638.914,-333.402"/>
</g>
<!-- Node28 -->
<g id="node28" class="node"><title>Node28</title>
<g id="a_node28"><a xlink:href="lauxlib_8h.html#a8c38c6dcf9db7e110e525b46742bacf8" target="_top" xlink:title=" ">
<polygon fill="white" stroke="black" points="496.5,-282.402 496.5,-301.402 571.5,-301.402 571.5,-282.402 496.5,-282.402"/>
<text text-anchor="middle" x="534" y="-289.402" font-family="Helvetica,sans-Serif" font-size="10.00">luaL_loadfilex</text>
</a>
</g>
</g>
<!-- Node25&#45;&gt;Node28 -->
<g id="edge32" class="edge"><title>Node25&#45;&gt;Node28</title>
<path fill="none" stroke="midnightblue" d="M639.005,-320.233C617.8,-314.457 590.976,-307.15 569.881,-301.403"/>
<polygon fill="midnightblue" stroke="midnightblue" points="638.345,-323.681 648.914,-322.932 640.185,-316.927 638.345,-323.681"/>
</g>
<!-- Node27&#45;&gt;Node26 -->
<g id="edge31" class="edge"><title>Node27&#45;&gt;Node26</title>
<path fill="none" stroke="midnightblue" d="M480.426,-337.893C465.367,-340.182 449.52,-342.591 436.501,-344.57"/>
<polygon fill="midnightblue" stroke="midnightblue" points="481.32,-341.297 490.681,-336.334 480.268,-334.377 481.32,-341.297"/>
</g>
<!-- Node29 -->
<g id="node29" class="node"><title>Node29</title>
<g id="a_node29"><a xlink:href="lbaselib_8c.html#aeb4cb83db820979bbdd7710109b52957" target="_top" xlink:title=" ">
<polygon fill="white" stroke="black" points="371.5,-282.402 371.5,-301.402 442.5,-301.402 442.5,-282.402 371.5,-282.402"/>
<text text-anchor="middle" x="407" y="-289.402" font-family="Helvetica,sans-Serif" font-size="10.00">luaB_loadfile</text>
</a>
</g>
</g>
<!-- Node28&#45;&gt;Node29 -->
<g id="edge33" class="edge"><title>Node28&#45;&gt;Node29</title>
<path fill="none" stroke="midnightblue" d="M486,-291.902C471.685,-291.902 456.212,-291.902 442.851,-291.902"/>
<polygon fill="midnightblue" stroke="midnightblue" points="486.172,-295.402 496.172,-291.902 486.172,-288.402 486.172,-295.402"/>
</g>
<!-- Node31 -->
<g id="node31" class="node"><title>Node31</title>
<g id="a_node31"><a xlink:href="lua_8h.html#a434479f022eda738b99000aad5ddd929" target="_top" xlink:title=" ">
<polygon fill="white" stroke="black" points="1025,-149.402 1025,-168.402 1092,-168.402 1092,-149.402 1025,-149.402"/>
<text text-anchor="middle" x="1058.5" y="-156.402" font-family="Helvetica,sans-Serif" font-size="10.00">lua_resume</text>
</a>
</g>
</g>
<!-- Node30&#45;&gt;Node31 -->
<g id="edge35" class="edge"><title>Node30&#45;&gt;Node31</title>
<path fill="none" stroke="midnightblue" d="M1139.62,-158.902C1124.74,-158.902 1107.21,-158.902 1092.34,-158.902"/>
<polygon fill="midnightblue" stroke="midnightblue" points="1139.9,-162.402 1149.9,-158.902 1139.9,-155.402 1139.9,-162.402"/>
</g>
<!-- Node32 -->
<g id="node32" class="node"><title>Node32</title>
<g id="a_node32"><a xlink:href="lcorolib_8c.html#aaa37b3a30ab0c6daef7fae8951fef3e7" target="_top" xlink:title=" ">
<polygon fill="white" stroke="black" points="915,-149.402 915,-168.402 980,-168.402 980,-149.402 915,-149.402"/>
<text text-anchor="middle" x="947.5" y="-156.402" font-family="Helvetica,sans-Serif" font-size="10.00">auxresume</text>
</a>
</g>
</g>
<!-- Node31&#45;&gt;Node32 -->
<g id="edge36" class="edge"><title>Node31&#45;&gt;Node32</title>
<path fill="none" stroke="midnightblue" d="M1014.51,-158.902C1003.01,-158.902 990.807,-158.902 980.057,-158.902"/>
<polygon fill="midnightblue" stroke="midnightblue" points="1014.8,-162.402 1024.8,-158.902 1014.8,-155.402 1014.8,-162.402"/>
</g>
<!-- Node33 -->
<g id="node33" class="node"><title>Node33</title>
<g id="a_node33"><a xlink:href="lcorolib_8c.html#a777abb20385a69ce4787f72bd90375a7" target="_top" xlink:title=" ">
<polygon fill="white" stroke="black" points="784,-130.402 784,-149.402 861,-149.402 861,-130.402 784,-130.402"/>
<text text-anchor="middle" x="822.5" y="-137.402" font-family="Helvetica,sans-Serif" font-size="10.00">luaB_auxwrap</text>
</a>
</g>
</g>
<!-- Node32&#45;&gt;Node33 -->
<g id="edge37" class="edge"><title>Node32&#45;&gt;Node33</title>
<path fill="none" stroke="midnightblue" d="M904.856,-152.469C890.716,-150.285 875.009,-147.858 861.195,-145.725"/>
<polygon fill="midnightblue" stroke="midnightblue" points="904.407,-155.941 914.824,-154.009 905.476,-149.023 904.407,-155.941"/>
</g>
<!-- Node35 -->
<g id="node35" class="node"><title>Node35</title>
<g id="a_node35"><a xlink:href="lcorolib_8c.html#a76f5d80387eeb1c7d31eb5f9cb6c9392" target="_top" xlink:title=" ">
<polygon fill="white" stroke="black" points="780.5,-168.402 780.5,-187.402 864.5,-187.402 864.5,-168.402 780.5,-168.402"/>
<text text-anchor="middle" x="822.5" y="-175.402" font-family="Helvetica,sans-Serif" font-size="10.00">luaB_coresume</text>
</a>
</g>
</g>
<!-- Node32&#45;&gt;Node35 -->
<g id="edge39" class="edge"><title>Node32&#45;&gt;Node35</title>
<path fill="none" stroke="midnightblue" d="M904.805,-165.342C891.902,-167.336 877.696,-169.53 864.818,-171.519"/>
<polygon fill="midnightblue" stroke="midnightblue" points="905.476,-168.78 914.824,-163.795 904.407,-161.862 905.476,-168.78"/>
</g>
<!-- Node34 -->
<g id="node34" class="node"><title>Node34</title>
<g id="a_node34"><a xlink:href="lcorolib_8c.html#a1c0429e27f504b08e25f437f733edad1" target="_top" xlink:title=" ">
<polygon fill="white" stroke="black" points="639.5,-130.402 639.5,-149.402 711.5,-149.402 711.5,-130.402 639.5,-130.402"/>
<text text-anchor="middle" x="675.5" y="-137.402" font-family="Helvetica,sans-Serif" font-size="10.00">luaB_cowrap</text>
</a>
</g>
</g>
<!-- Node33&#45;&gt;Node34 -->
<g id="edge38" class="edge"><title>Node33&#45;&gt;Node34</title>
<path fill="none" stroke="midnightblue" d="M773.778,-139.902C753.473,-139.902 730.22,-139.902 711.541,-139.902"/>
<polygon fill="midnightblue" stroke="midnightblue" points="773.782,-143.402 783.781,-139.902 773.781,-136.402 773.782,-143.402"/>
</g>
<!-- Node37 -->
<g id="node37" class="node"><title>Node37</title>
<g id="a_node37"><a xlink:href="lgc_8c.html#accb36b237a98cbde36fa5bcf16a4ec1f" target="_top" xlink:title=" ">
<polygon fill="white" stroke="black" points="1018,-92.4017 1018,-111.402 1099,-111.402 1099,-92.4017 1018,-92.4017"/>
<text text-anchor="middle" x="1058.5" y="-99.4017" font-family="Helvetica,sans-Serif" font-size="10.00">propagatemark</text>
</a>
</g>
</g>
<!-- Node36&#45;&gt;Node37 -->
<g id="edge41" class="edge"><title>Node36&#45;&gt;Node37</title>
<path fill="none" stroke="midnightblue" d="M1124.72,-107.097C1116.25,-106.422 1107.51,-105.725 1099.29,-105.071"/>
<polygon fill="midnightblue" stroke="midnightblue" points="1124.63,-110.6 1134.87,-107.905 1125.18,-103.622 1124.63,-110.6"/>
</g>
<!-- Node37&#45;&gt;Node17 -->
<g id="edge48" class="edge"><title>Node37&#45;&gt;Node17</title>
<path fill="none" stroke="midnightblue" d="M1007.56,-101.902C900.239,-101.902 650.38,-101.902 564.562,-101.902"/>
<polygon fill="midnightblue" stroke="midnightblue" points="1007.8,-105.402 1017.8,-101.902 1007.8,-98.4018 1007.8,-105.402"/>
</g>
<!-- Node38 -->
<g id="node38" class="node"><title>Node38</title>
<g id="a_node38"><a xlink:href="lgc_8c.html#a9a291e8a23c3611b6c79d792fe421f5c" target="_top" xlink:title=" ">
<polygon fill="white" stroke="black" points="913,-35.4017 913,-54.4017 982,-54.4017 982,-35.4017 913,-35.4017"/>
<text text-anchor="middle" x="947.5" y="-42.4017" font-family="Helvetica,sans-Serif" font-size="10.00">propagateall</text>
</a>
</g>
</g>
<!-- Node37&#45;&gt;Node38 -->
<g id="edge42" class="edge"><title>Node37&#45;&gt;Node38</title>
<path fill="none" stroke="midnightblue" d="M1030.13,-87.5902C1010.3,-77.219 984.032,-63.4827 966.717,-54.4282"/>
<polygon fill="midnightblue" stroke="midnightblue" points="1028.53,-90.6999 1039.01,-92.2324 1031.77,-84.4969 1028.53,-90.6999"/>
</g>
<!-- Node38&#45;&gt;Node17 -->
<g id="edge47" class="edge"><title>Node38&#45;&gt;Node17</title>
<path fill="none" stroke="midnightblue" d="M903.028,-50.1238C840.237,-57.7767 720.548,-72.7776 619,-87.9017 600.867,-90.6024 580.593,-93.9714 564.505,-96.7277"/>
<polygon fill="midnightblue" stroke="midnightblue" points="903.468,-53.5961 912.973,-48.9152 902.624,-46.6473 903.468,-53.5961"/>
</g>
<!-- Node39 -->
<g id="node39" class="node"><title>Node39</title>
<g id="a_node39"><a xlink:href="lgc_8c.html#aeeb04d4803ad9d53a05a8605130a31d0" target="_top" xlink:title=" ">
<polygon fill="white" stroke="black" points="652.5,-16.4017 652.5,-35.4017 698.5,-35.4017 698.5,-16.4017 652.5,-16.4017"/>
<text text-anchor="middle" x="675.5" y="-23.4017" font-family="Helvetica,sans-Serif" font-size="10.00">atomic</text>
</a>
</g>
</g>
<!-- Node38&#45;&gt;Node39 -->
<g id="edge43" class="edge"><title>Node38&#45;&gt;Node39</title>
<path fill="none" stroke="midnightblue" d="M925.152,-29.5636C911.972,-21.0577 894.321,-11.3277 877,-6.90172 813.651,9.28589 735.867,-8.3137 698.539,-18.977"/>
<polygon fill="midnightblue" stroke="midnightblue" points="923.251,-32.503 933.503,-35.1764 927.156,-26.6932 923.251,-32.503"/>
</g>
<!-- Node40 -->
<g id="node40" class="node"><title>Node40</title>
<g id="a_node40"><a xlink:href="lgc_8c.html#a467150a6e5a6ef4402432c4964817ffc" target="_top" xlink:title=" ">
<polygon fill="white" stroke="black" points="768.5,-16.4017 768.5,-35.4017 876.5,-35.4017 876.5,-16.4017 768.5,-16.4017"/>
<text text-anchor="middle" x="822.5" y="-23.4017" font-family="Helvetica,sans-Serif" font-size="10.00">convergeephemerons</text>
</a>
</g>
</g>
<!-- Node38&#45;&gt;Node40 -->
<g id="edge45" class="edge"><title>Node38&#45;&gt;Node40</title>
<path fill="none" stroke="midnightblue" d="M902.93,-38.1713C894.526,-36.8732 885.633,-35.4995 876.958,-34.1594"/>
<polygon fill="midnightblue" stroke="midnightblue" points="902.473,-41.6422 912.89,-39.7099 903.541,-34.7242 902.473,-41.6422"/>
</g>
<!-- Node39&#45;&gt;Node17 -->
<g id="edge44" class="edge"><title>Node39&#45;&gt;Node17</title>
<path fill="none" stroke="midnightblue" d="M642.94,-38.6005C635.017,-42.046 626.608,-45.9291 619,-49.9017 593.61,-63.1597 565.6,-81.2489 549.192,-92.2241"/>
<polygon fill="midnightblue" stroke="midnightblue" points="644.438,-41.7668 652.276,-34.6381 641.703,-35.3231 644.438,-41.7668"/>
</g>
<!-- Node40&#45;&gt;Node39 -->
<g id="edge46" class="edge"><title>Node40&#45;&gt;Node39</title>
<path fill="none" stroke="midnightblue" d="M758.309,-25.9017C736.981,-25.9017 714.559,-25.9017 698.594,-25.9017"/>
<polygon fill="midnightblue" stroke="midnightblue" points="758.331,-29.4018 768.331,-25.9017 758.331,-22.4018 758.331,-29.4018"/>
</g>
</g>
</svg>
