<?xml version="1.0" encoding="UTF-8" standalone="no"?>
<!DOCTYPE svg PUBLIC "-//W3C//DTD SVG 1.1//EN"
 "http://www.w3.org/Graphics/SVG/1.1/DTD/svg11.dtd">
<!-- Generated by graphviz version 2.38.0 (20140413.2041)
 -->
<!-- Title: traverseephemeron Pages: 1 -->
<svg width="1231pt" height="123pt"
 viewBox="0.00 0.00 1231.00 123.00" xmlns="http://www.w3.org/2000/svg" xmlns:xlink="http://www.w3.org/1999/xlink">
<g id="graph0" class="graph" transform="scale(1 1) rotate(0) translate(4 119)">
<title>traverseephemeron</title>
<polygon fill="white" stroke="none" points="-4,4 -4,-119 1227,-119 1227,4 -4,4"/>
<!-- Node1 -->
<g id="node1" class="node"><title>Node1</title>
<g id="a_node1"><a xlink:title=" ">
<polygon fill="#bfbfbf" stroke="black" points="1125,-76.5 1125,-95.5 1223,-95.5 1223,-76.5 1125,-76.5"/>
<text text-anchor="middle" x="1174" y="-83.5" font-family="Helvetica,sans-Serif" font-size="10.00">traverseephemeron</text>
</a>
</g>
</g>
<!-- Node2 -->
<g id="node2" class="node"><title>Node2</title>
<g id="a_node2"><a xlink:href="lgc_8c.html#a467150a6e5a6ef4402432c4964817ffc" target="_top" xlink:title=" ">
<polygon fill="white" stroke="black" points="652,-95.5 652,-114.5 760,-114.5 760,-95.5 652,-95.5"/>
<text text-anchor="middle" x="706" y="-102.5" font-family="Helvetica,sans-Serif" font-size="10.00">convergeephemerons</text>
</a>
</g>
</g>
<!-- Node1&#45;&gt;Node2 -->
<g id="edge1" class="edge"><title>Node1&#45;&gt;Node2</title>
<path fill="none" stroke="midnightblue" d="M1114.72,-88.3763C1023.46,-92.0971 848.202,-99.2429 760.188,-102.831"/>
<polygon fill="midnightblue" stroke="midnightblue" points="1115.04,-91.8663 1124.88,-87.9618 1114.75,-84.8722 1115.04,-91.8663"/>
</g>
<!-- Node11 -->
<g id="node11" class="node"><title>Node11</title>
<g id="a_node11"><a xlink:href="lgc_8c.html#a86c4c1008df3c908a9cca3cf72abc195" target="_top" xlink:title=" ">
<polygon fill="white" stroke="black" points="1018,-57.5 1018,-76.5 1089,-76.5 1089,-57.5 1018,-57.5"/>
<text text-anchor="middle" x="1053.5" y="-64.5" font-family="Helvetica,sans-Serif" font-size="10.00">traversetable</text>
</a>
</g>
</g>
<!-- Node1&#45;&gt;Node11 -->
<g id="edge11" class="edge"><title>Node1&#45;&gt;Node11</title>
<path fill="none" stroke="midnightblue" d="M1114.93,-76.6888C1106.13,-75.2786 1097.3,-73.8628 1089.21,-72.5658"/>
<polygon fill="midnightblue" stroke="midnightblue" points="1114.37,-80.1446 1124.8,-78.272 1115.48,-73.2329 1114.37,-80.1446"/>
</g>
<!-- Node3 -->
<g id="node3" class="node"><title>Node3</title>
<g id="a_node3"><a xlink:href="lgc_8c.html#aeeb04d4803ad9d53a05a8605130a31d0" target="_top" xlink:title=" ">
<polygon fill="white" stroke="black" points="570,-57.5 570,-76.5 616,-76.5 616,-57.5 570,-57.5"/>
<text text-anchor="middle" x="593" y="-64.5" font-family="Helvetica,sans-Serif" font-size="10.00">atomic</text>
</a>
</g>
</g>
<!-- Node2&#45;&gt;Node3 -->
<g id="edge2" class="edge"><title>Node2&#45;&gt;Node3</title>
<path fill="none" stroke="midnightblue" d="M667.294,-92.0917C650.239,-86.2531 630.677,-79.5561 616.054,-74.5502"/>
<polygon fill="midnightblue" stroke="midnightblue" points="666.395,-95.4834 676.99,-95.411 668.663,-88.8607 666.395,-95.4834"/>
</g>
<!-- Node4 -->
<g id="node4" class="node"><title>Node4</title>
<g id="a_node4"><a xlink:href="lgc_8c.html#ae34e22198155f5d365fe500d3735c150" target="_top" xlink:title=" ">
<polygon fill="white" stroke="black" points="473,-19.5 473,-38.5 534,-38.5 534,-19.5 473,-19.5"/>
<text text-anchor="middle" x="503.5" y="-26.5" font-family="Helvetica,sans-Serif" font-size="10.00">singlestep</text>
</a>
</g>
</g>
<!-- Node3&#45;&gt;Node4 -->
<g id="edge3" class="edge"><title>Node3&#45;&gt;Node4</title>
<path fill="none" stroke="midnightblue" d="M560.44,-53.2938C549.217,-48.4199 536.831,-43.0409 526.573,-38.5859"/>
<polygon fill="midnightblue" stroke="midnightblue" points="559.353,-56.6378 569.92,-57.411 562.142,-50.2172 559.353,-56.6378"/>
</g>
<!-- Node5 -->
<g id="node5" class="node"><title>Node5</title>
<g id="a_node5"><a xlink:href="lgc_8h.html#a1da32357417ce5766ed5e3ada033c32f" target="_top" xlink:title=" ">
<polygon fill="white" stroke="black" points="353,-38.5 353,-57.5 437,-57.5 437,-38.5 353,-38.5"/>
<text text-anchor="middle" x="395" y="-45.5" font-family="Helvetica,sans-Serif" font-size="10.00">luaC_runtilstate</text>
</a>
</g>
</g>
<!-- Node4&#45;&gt;Node5 -->
<g id="edge4" class="edge"><title>Node4&#45;&gt;Node5</title>
<path fill="none" stroke="midnightblue" d="M462.861,-36.0718C454.436,-37.5748 445.523,-39.1648 437.047,-40.677"/>
<polygon fill="midnightblue" stroke="midnightblue" points="463.604,-39.4945 472.834,-34.2926 462.375,-32.6034 463.604,-39.4945"/>
</g>
<!-- Node10 -->
<g id="node10" class="node"><title>Node10</title>
<g id="a_node10"><a xlink:href="lgc_8h.html#a6c71cc4b9e503c0e96c0c4ffcff93900" target="_top" xlink:title=" ">
<polygon fill="white" stroke="black" points="255,-0.5 255,-19.5 315,-19.5 315,-0.5 255,-0.5"/>
<text text-anchor="middle" x="285" y="-7.5" font-family="Helvetica,sans-Serif" font-size="10.00">luaC_step</text>
</a>
</g>
</g>
<!-- Node4&#45;&gt;Node10 -->
<g id="edge9" class="edge"><title>Node4&#45;&gt;Node10</title>
<path fill="none" stroke="midnightblue" d="M462.825,-25.5181C420.185,-21.7761 353.414,-15.9163 315.291,-12.5706"/>
<polygon fill="midnightblue" stroke="midnightblue" points="462.583,-29.0102 472.851,-26.398 463.195,-22.037 462.583,-29.0102"/>
</g>
<!-- Node6 -->
<g id="node6" class="node"><title>Node6</title>
<g id="a_node6"><a xlink:href="lgc_8h.html#aa0b753c3ed80e1eed0379ec58592c404" target="_top" xlink:title=" ">
<polygon fill="white" stroke="black" points="253,-38.5 253,-57.5 317,-57.5 317,-38.5 253,-38.5"/>
<text text-anchor="middle" x="285" y="-45.5" font-family="Helvetica,sans-Serif" font-size="10.00">luaC_fullgc</text>
</a>
</g>
</g>
<!-- Node5&#45;&gt;Node6 -->
<g id="edge5" class="edge"><title>Node5&#45;&gt;Node6</title>
<path fill="none" stroke="midnightblue" d="M342.751,-48C334.054,-48 325.262,-48 317.28,-48"/>
<polygon fill="midnightblue" stroke="midnightblue" points="342.862,-51.5001 352.862,-48 342.862,-44.5001 342.862,-51.5001"/>
</g>
<!-- Node7 -->
<g id="node7" class="node"><title>Node7</title>
<g id="a_node7"><a xlink:href="lua_8h.html#a6bac487d3f900b21271e8c591bd801cd" target="_top" xlink:title=" ">
<polygon fill="white" stroke="black" points="156,-0.5 156,-19.5 201,-19.5 201,-0.5 156,-0.5"/>
<text text-anchor="middle" x="178.5" y="-7.5" font-family="Helvetica,sans-Serif" font-size="10.00">lua_gc</text>
</a>
</g>
</g>
<!-- Node6&#45;&gt;Node7 -->
<g id="edge6" class="edge"><title>Node6&#45;&gt;Node7</title>
<path fill="none" stroke="midnightblue" d="M247.812,-34.8406C232.314,-29.2049 214.727,-22.8098 201.279,-17.9198"/>
<polygon fill="midnightblue" stroke="midnightblue" points="247.036,-38.2828 257.63,-38.411 249.428,-31.7042 247.036,-38.2828"/>
</g>
<!-- Node9 -->
<g id="node9" class="node"><title>Node9</title>
<g id="a_node9"><a xlink:href="lmem_8h.html#ae7dc8a57fc5dbca825653a88a356a72d" target="_top" xlink:title=" ">
<polygon fill="white" stroke="black" points="140,-38.5 140,-57.5 217,-57.5 217,-38.5 140,-38.5"/>
<text text-anchor="middle" x="178.5" y="-45.5" font-family="Helvetica,sans-Serif" font-size="10.00">luaM_realloc_</text>
</a>
</g>
</g>
<!-- Node6&#45;&gt;Node9 -->
<g id="edge8" class="edge"><title>Node6&#45;&gt;Node9</title>
<path fill="none" stroke="midnightblue" d="M242.897,-48C234.455,-48 225.606,-48 217.288,-48"/>
<polygon fill="midnightblue" stroke="midnightblue" points="242.93,-51.5001 252.929,-48 242.929,-44.5001 242.93,-51.5001"/>
</g>
<!-- Node8 -->
<g id="node8" class="node"><title>Node8</title>
<g id="a_node8"><a xlink:href="lbaselib_8c.html#a07f71966c943cc9761ab129f64d4ac80" target="_top" xlink:title=" ">
<polygon fill="white" stroke="black" points="0,-0.5 0,-19.5 104,-19.5 104,-0.5 0,-0.5"/>
<text text-anchor="middle" x="52" y="-7.5" font-family="Helvetica,sans-Serif" font-size="10.00">luaB_collectgarbage</text>
</a>
</g>
</g>
<!-- Node7&#45;&gt;Node8 -->
<g id="edge7" class="edge"><title>Node7&#45;&gt;Node8</title>
<path fill="none" stroke="midnightblue" d="M145.783,-10C133.137,-10 118.257,-10 104.161,-10"/>
<polygon fill="midnightblue" stroke="midnightblue" points="145.814,-13.5001 155.814,-10 145.814,-6.5001 145.814,-13.5001"/>
</g>
<!-- Node10&#45;&gt;Node7 -->
<g id="edge10" class="edge"><title>Node10&#45;&gt;Node7</title>
<path fill="none" stroke="midnightblue" d="M244.514,-10C229.815,-10 213.681,-10 201.162,-10"/>
<polygon fill="midnightblue" stroke="midnightblue" points="244.891,-13.5001 254.891,-10 244.891,-6.5001 244.891,-13.5001"/>
</g>
<!-- Node12 -->
<g id="node12" class="node"><title>Node12</title>
<g id="a_node12"><a xlink:href="lgc_8c.html#accb36b237a98cbde36fa5bcf16a4ec1f" target="_top" xlink:title=" ">
<polygon fill="white" stroke="black" points="901,-57.5 901,-76.5 982,-76.5 982,-57.5 901,-57.5"/>
<text text-anchor="middle" x="941.5" y="-64.5" font-family="Helvetica,sans-Serif" font-size="10.00">propagatemark</text>
</a>
</g>
</g>
<!-- Node11&#45;&gt;Node12 -->
<g id="edge12" class="edge"><title>Node11&#45;&gt;Node12</title>
<path fill="none" stroke="midnightblue" d="M1007.88,-67C999.398,-67 990.576,-67 982.259,-67"/>
<polygon fill="midnightblue" stroke="midnightblue" points="1008,-70.5001 1018,-67 1008,-63.5001 1008,-70.5001"/>
</g>
<!-- Node12&#45;&gt;Node4 -->
<g id="edge17" class="edge"><title>Node12&#45;&gt;Node4</title>
<path fill="none" stroke="midnightblue" d="M898.734,-54.9832C887.837,-52.2639 876.049,-49.6851 865,-48 743.254,-29.4316 596.009,-28.1743 534.14,-28.5928"/>
<polygon fill="midnightblue" stroke="midnightblue" points="897.886,-58.379 908.444,-57.4984 899.641,-51.6026 897.886,-58.379"/>
</g>
<!-- Node13 -->
<g id="node13" class="node"><title>Node13</title>
<g id="a_node13"><a xlink:href="lgc_8c.html#a9a291e8a23c3611b6c79d792fe421f5c" target="_top" xlink:title=" ">
<polygon fill="white" stroke="black" points="796,-57.5 796,-76.5 865,-76.5 865,-57.5 796,-57.5"/>
<text text-anchor="middle" x="830.5" y="-64.5" font-family="Helvetica,sans-Serif" font-size="10.00">propagateall</text>
</a>
</g>
</g>
<!-- Node12&#45;&gt;Node13 -->
<g id="edge13" class="edge"><title>Node12&#45;&gt;Node13</title>
<path fill="none" stroke="midnightblue" d="M890.798,-67C882.135,-67 873.309,-67 865.205,-67"/>
<polygon fill="midnightblue" stroke="midnightblue" points="890.84,-70.5001 900.84,-67 890.84,-63.5001 890.84,-70.5001"/>
</g>
<!-- Node13&#45;&gt;Node2 -->
<g id="edge15" class="edge"><title>Node13&#45;&gt;Node2</title>
<path fill="none" stroke="midnightblue" d="M788.622,-79.6804C772.071,-84.8148 753.279,-90.6441 737.902,-95.4141"/>
<polygon fill="midnightblue" stroke="midnightblue" points="790.074,-82.8947 798.588,-76.589 788,-76.209 790.074,-82.8947"/>
</g>
<!-- Node13&#45;&gt;Node3 -->
<g id="edge14" class="edge"><title>Node13&#45;&gt;Node3</title>
<path fill="none" stroke="midnightblue" d="M785.495,-67C735.131,-67 654.641,-67 616.044,-67"/>
<polygon fill="midnightblue" stroke="midnightblue" points="785.759,-70.5001 795.759,-67 785.759,-63.5001 785.759,-70.5001"/>
</g>
<!-- Node13&#45;&gt;Node4 -->
<g id="edge16" class="edge"><title>Node13&#45;&gt;Node4</title>
<path fill="none" stroke="midnightblue" d="M785.682,-61.8766C718.43,-54.0133 591.531,-39.1759 534.084,-32.459"/>
<polygon fill="midnightblue" stroke="midnightblue" points="785.605,-65.3914 795.943,-63.0765 786.418,-58.4387 785.605,-65.3914"/>
</g>
</g>
</svg>
