<?xml version="1.0" encoding="UTF-8" standalone="no"?>
<!DOCTYPE svg PUBLIC "-//W3C//DTD SVG 1.1//EN"
 "http://www.w3.org/Graphics/SVG/1.1/DTD/svg11.dtd">
<!-- Generated by graphviz version 2.38.0 (20140413.2041)
 -->
<!-- Title: udata2finalize Pages: 1 -->
<svg width="932pt" height="192pt"
 viewBox="0.00 0.00 932.00 192.20" xmlns="http://www.w3.org/2000/svg" xmlns:xlink="http://www.w3.org/1999/xlink">
<g id="graph0" class="graph" transform="scale(1 1) rotate(0) translate(4 188.2)">
<title>udata2finalize</title>
<polygon fill="white" stroke="none" points="-4,4 -4,-188.2 928,-188.2 928,4 -4,4"/>
<!-- Node1 -->
<g id="node1" class="node"><title>Node1</title>
<g id="a_node1"><a xlink:title=" ">
<polygon fill="#bfbfbf" stroke="black" points="848,-57.5 848,-76.5 924,-76.5 924,-57.5 848,-57.5"/>
<text text-anchor="middle" x="886" y="-64.5" font-family="Helvetica,sans-Serif" font-size="10.00">udata2finalize</text>
</a>
</g>
</g>
<!-- Node2 -->
<g id="node2" class="node"><title>Node2</title>
<g id="a_node2"><a xlink:href="lgc_8c.html#ab9ec6b56580b9e66f41743e393e7e033" target="_top" xlink:title=" ">
<polygon fill="white" stroke="black" points="768,-57.5 768,-76.5 812,-76.5 812,-57.5 768,-57.5"/>
<text text-anchor="middle" x="790" y="-64.5" font-family="Helvetica,sans-Serif" font-size="10.00">GCTM</text>
</a>
</g>
</g>
<!-- Node1&#45;&gt;Node2 -->
<g id="edge1" class="edge"><title>Node1&#45;&gt;Node2</title>
<path fill="none" stroke="midnightblue" d="M837.779,-67C828.802,-67 819.836,-67 812.191,-67"/>
<polygon fill="midnightblue" stroke="midnightblue" points="837.849,-70.5001 847.849,-67 837.849,-63.5001 837.849,-70.5001"/>
</g>
<!-- Node3 -->
<g id="node3" class="node"><title>Node3</title>
<g id="a_node3"><a xlink:href="lgc_8c.html#a3c6f43e1b63924361ed0ce31b6d30f8b" target="_top" xlink:title=" ">
<polygon fill="white" stroke="black" points="619,-76.5 619,-95.5 732,-95.5 732,-76.5 619,-76.5"/>
<text text-anchor="middle" x="675.5" y="-83.5" font-family="Helvetica,sans-Serif" font-size="10.00">callallpendingfinalizers</text>
</a>
</g>
</g>
<!-- Node2&#45;&gt;Node3 -->
<g id="edge2" class="edge"><title>Node2&#45;&gt;Node3</title>
<path fill="none" stroke="midnightblue" d="M757.893,-72.2537C749.896,-73.6042 741.047,-75.0988 732.214,-76.5905"/>
<polygon fill="midnightblue" stroke="midnightblue" points="758.562,-75.6903 767.84,-70.5738 757.396,-68.788 758.562,-75.6903"/>
</g>
<!-- Node12 -->
<g id="node12" class="node"><title>Node12</title>
<g id="a_node12"><a xlink:href="lgc_8c.html#a2227b99225928218094ad77f66a712ac" target="_top" xlink:title=" ">
<polygon fill="white" stroke="black" points="631.5,-38.5 631.5,-57.5 719.5,-57.5 719.5,-38.5 631.5,-38.5"/>
<text text-anchor="middle" x="675.5" y="-45.5" font-family="Helvetica,sans-Serif" font-size="10.00">runafewfinalizers</text>
</a>
</g>
</g>
<!-- Node2&#45;&gt;Node12 -->
<g id="edge13" class="edge"><title>Node2&#45;&gt;Node12</title>
<path fill="none" stroke="midnightblue" d="M757.69,-61.7121C746.003,-59.7383 732.514,-57.4602 719.93,-55.3349"/>
<polygon fill="midnightblue" stroke="midnightblue" points="757.396,-65.212 767.84,-63.4262 758.562,-58.3097 757.396,-65.212"/>
</g>
<!-- Node4 -->
<g id="node4" class="node"><title>Node4</title>
<g id="a_node4"><a xlink:href="lgc_8h.html#a9aa52a500c9cc2076edb1707e6d8a045" target="_top" xlink:title=" ">
<polygon fill="white" stroke="black" points="485,-76.5 485,-95.5 583,-95.5 583,-76.5 485,-76.5"/>
<text text-anchor="middle" x="534" y="-83.5" font-family="Helvetica,sans-Serif" font-size="10.00">luaC_freeallobjects</text>
</a>
</g>
</g>
<!-- Node3&#45;&gt;Node4 -->
<g id="edge3" class="edge"><title>Node3&#45;&gt;Node4</title>
<path fill="none" stroke="midnightblue" d="M608.861,-86C600.192,-86 591.439,-86 583.139,-86"/>
<polygon fill="midnightblue" stroke="midnightblue" points="608.965,-89.5001 618.965,-86 608.965,-82.5001 608.965,-89.5001"/>
</g>
<!-- Node5 -->
<g id="node5" class="node"><title>Node5</title>
<g id="a_node5"><a xlink:href="lstate_8c.html#a4940327dfa3b86df0ef008180bb3fcb3" target="_top" xlink:title=" ">
<polygon fill="white" stroke="black" points="373.5,-76.5 373.5,-95.5 440.5,-95.5 440.5,-76.5 373.5,-76.5"/>
<text text-anchor="middle" x="407" y="-83.5" font-family="Helvetica,sans-Serif" font-size="10.00">close_state</text>
</a>
</g>
</g>
<!-- Node4&#45;&gt;Node5 -->
<g id="edge4" class="edge"><title>Node4&#45;&gt;Node5</title>
<path fill="none" stroke="midnightblue" d="M474.549,-86C462.93,-86 451.123,-86 440.744,-86"/>
<polygon fill="midnightblue" stroke="midnightblue" points="474.672,-89.5001 484.672,-86 474.672,-82.5001 474.672,-89.5001"/>
</g>
<!-- Node6 -->
<g id="node6" class="node"><title>Node6</title>
<g id="a_node6"><a xlink:href="lua_8h.html#afe030a97e84f24dfab3afb598faa2fff" target="_top" xlink:title=" ">
<polygon fill="white" stroke="black" points="263,-152.5 263,-171.5 321,-171.5 321,-152.5 263,-152.5"/>
<text text-anchor="middle" x="292" y="-159.5" font-family="Helvetica,sans-Serif" font-size="10.00">lua_close</text>
</a>
</g>
</g>
<!-- Node5&#45;&gt;Node6 -->
<g id="edge5" class="edge"><title>Node5&#45;&gt;Node6</title>
<path fill="none" stroke="midnightblue" d="M383.312,-101.259C360.589,-116.542 326.323,-139.588 307.195,-152.453"/>
<polygon fill="midnightblue" stroke="midnightblue" points="385.344,-104.111 391.688,-95.6255 381.437,-98.3021 385.344,-104.111"/>
</g>
<!-- Node9 -->
<g id="node9" class="node"><title>Node9</title>
<g id="a_node9"><a xlink:href="lua_8h.html#af722e4ac7fc0eba5920f59f0162c1b97" target="_top" xlink:title=" ">
<polygon fill="white" stroke="black" points="255,-76.5 255,-95.5 329,-95.5 329,-76.5 255,-76.5"/>
<text text-anchor="middle" x="292" y="-83.5" font-family="Helvetica,sans-Serif" font-size="10.00">lua_newstate</text>
</a>
</g>
</g>
<!-- Node5&#45;&gt;Node9 -->
<g id="edge8" class="edge"><title>Node5&#45;&gt;Node9</title>
<path fill="none" stroke="midnightblue" d="M363.271,-86C352.037,-86 340.03,-86 329.176,-86"/>
<polygon fill="midnightblue" stroke="midnightblue" points="363.316,-89.5001 373.316,-86 363.316,-82.5001 363.316,-89.5001"/>
</g>
<!-- Node7 -->
<g id="node7" class="node"><title>Node7</title>
<g id="a_node7"><a xlink:href="lua_8c.html#a3c04138a5bfe5d72780bb7e82a18e627" target="_top" xlink:title=" ">
<polygon fill="white" stroke="black" points="33,-152.5 33,-171.5 71,-171.5 71,-152.5 33,-152.5"/>
<text text-anchor="middle" x="52" y="-159.5" font-family="Helvetica,sans-Serif" font-size="10.00">main</text>
</a>
</g>
</g>
<!-- Node6&#45;&gt;Node7 -->
<g id="edge6" class="edge"><title>Node6&#45;&gt;Node7</title>
<path fill="none" stroke="midnightblue" d="M253.268,-173.913C242.328,-176.831 230.288,-179.536 219,-181 184.181,-185.517 174.908,-184.767 140,-181 115.868,-178.396 88.6132,-171.839 71.1427,-167.158"/>
<polygon fill="midnightblue" stroke="midnightblue" points="254.266,-177.268 262.952,-171.202 252.379,-170.527 254.266,-177.268"/>
</g>
<!-- Node8 -->
<g id="node8" class="node"><title>Node8</title>
<g id="a_node8"><a xlink:href="loslib_8c.html#a905e81425fe3d6d0b363c10162a2a37b" target="_top" xlink:title=" ">
<polygon fill="white" stroke="black" points="155.5,-152.5 155.5,-171.5 203.5,-171.5 203.5,-152.5 155.5,-152.5"/>
<text text-anchor="middle" x="179.5" y="-159.5" font-family="Helvetica,sans-Serif" font-size="10.00">os_exit</text>
</a>
</g>
</g>
<!-- Node6&#45;&gt;Node8 -->
<g id="edge7" class="edge"><title>Node6&#45;&gt;Node8</title>
<path fill="none" stroke="midnightblue" d="M252.53,-162C236.285,-162 217.902,-162 203.773,-162"/>
<polygon fill="midnightblue" stroke="midnightblue" points="252.83,-165.5 262.83,-162 252.83,-158.5 252.83,-165.5"/>
</g>
<!-- Node10 -->
<g id="node10" class="node"><title>Node10</title>
<g id="a_node10"><a xlink:href="lauxlib_8h.html#a7d8712fcede90ae93d5a9a7b409c586e" target="_top" xlink:title=" ">
<polygon fill="white" stroke="black" points="140,-114.5 140,-133.5 219,-133.5 219,-114.5 140,-114.5"/>
<text text-anchor="middle" x="179.5" y="-121.5" font-family="Helvetica,sans-Serif" font-size="10.00">luaL_newstate</text>
</a>
</g>
</g>
<!-- Node9&#45;&gt;Node10 -->
<g id="edge9" class="edge"><title>Node9&#45;&gt;Node10</title>
<path fill="none" stroke="midnightblue" d="M253.279,-98.9718C238.558,-104.034 221.984,-109.734 208.375,-114.414"/>
<polygon fill="midnightblue" stroke="midnightblue" points="254.798,-102.151 263.116,-95.589 252.522,-95.5313 254.798,-102.151"/>
</g>
<!-- Node11 -->
<g id="node11" class="node"><title>Node11</title>
<g id="a_node11"><a xlink:href="lstate_8c.html#a8a0fc0aca5367250347c6bb6a788f05f" target="_top" xlink:title=" ">
<polygon fill="white" stroke="black" points="148.5,-76.5 148.5,-95.5 210.5,-95.5 210.5,-76.5 148.5,-76.5"/>
<text text-anchor="middle" x="179.5" y="-83.5" font-family="Helvetica,sans-Serif" font-size="10.00">makeseed</text>
</a>
</g>
</g>
<!-- Node9&#45;&gt;Node11 -->
<g id="edge11" class="edge"><title>Node9&#45;&gt;Node11</title>
<path fill="none" stroke="midnightblue" d="M244.557,-79.3268C233.164,-79.1266 221.258,-79.3179 210.845,-79.9007"/>
<polygon fill="midnightblue" stroke="midnightblue" points="244.722,-82.8329 254.818,-79.6208 244.923,-75.8357 244.722,-82.8329"/>
</g>
<!-- Node10&#45;&gt;Node7 -->
<g id="edge10" class="edge"><title>Node10&#45;&gt;Node7</title>
<path fill="none" stroke="midnightblue" d="M137.205,-136.504C114.809,-143.285 88.2687,-151.321 71.0562,-156.533"/>
<polygon fill="midnightblue" stroke="midnightblue" points="138.274,-139.837 146.831,-133.589 136.246,-133.137 138.274,-139.837"/>
</g>
<!-- Node11&#45;&gt;Node9 -->
<g id="edge12" class="edge"><title>Node11&#45;&gt;Node9</title>
<path fill="none" stroke="midnightblue" d="M221.112,-92.5349C232.155,-92.8666 244.038,-92.8147 254.818,-92.3792"/>
<polygon fill="midnightblue" stroke="midnightblue" points="220.985,-89.0264 210.845,-92.0993 220.688,-96.0201 220.985,-89.0264"/>
</g>
<!-- Node13 -->
<g id="node13" class="node"><title>Node13</title>
<g id="a_node13"><a xlink:href="lgc_8h.html#a6c71cc4b9e503c0e96c0c4ffcff93900" target="_top" xlink:title=" ">
<polygon fill="white" stroke="black" points="377,-38.5 377,-57.5 437,-57.5 437,-38.5 377,-38.5"/>
<text text-anchor="middle" x="407" y="-45.5" font-family="Helvetica,sans-Serif" font-size="10.00">luaC_step</text>
</a>
</g>
</g>
<!-- Node12&#45;&gt;Node13 -->
<g id="edge14" class="edge"><title>Node12&#45;&gt;Node13</title>
<path fill="none" stroke="midnightblue" d="M621.058,-48C565.67,-48 481.151,-48 437.059,-48"/>
<polygon fill="midnightblue" stroke="midnightblue" points="621.386,-51.5001 631.386,-48 621.386,-44.5001 621.386,-51.5001"/>
</g>
<!-- Node16 -->
<g id="node16" class="node"><title>Node16</title>
<g id="a_node16"><a xlink:href="lgc_8c.html#ae34e22198155f5d365fe500d3735c150" target="_top" xlink:title=" ">
<polygon fill="white" stroke="black" points="503.5,-0.5 503.5,-19.5 564.5,-19.5 564.5,-0.5 503.5,-0.5"/>
<text text-anchor="middle" x="534" y="-7.5" font-family="Helvetica,sans-Serif" font-size="10.00">singlestep</text>
</a>
</g>
</g>
<!-- Node12&#45;&gt;Node16 -->
<g id="edge17" class="edge"><title>Node12&#45;&gt;Node16</title>
<path fill="none" stroke="midnightblue" d="M629.489,-35.7389C608.204,-29.941 583.389,-23.1812 564.531,-18.0443"/>
<polygon fill="midnightblue" stroke="midnightblue" points="628.73,-39.1596 639.298,-38.411 630.57,-32.4057 628.73,-39.1596"/>
</g>
<!-- Node14 -->
<g id="node14" class="node"><title>Node14</title>
<g id="a_node14"><a xlink:href="lua_8h.html#a6bac487d3f900b21271e8c591bd801cd" target="_top" xlink:title=" ">
<polygon fill="white" stroke="black" points="157,-38.5 157,-57.5 202,-57.5 202,-38.5 157,-38.5"/>
<text text-anchor="middle" x="179.5" y="-45.5" font-family="Helvetica,sans-Serif" font-size="10.00">lua_gc</text>
</a>
</g>
</g>
<!-- Node13&#45;&gt;Node14 -->
<g id="edge15" class="edge"><title>Node13&#45;&gt;Node14</title>
<path fill="none" stroke="midnightblue" d="M366.726,-48C319.04,-48 240.293,-48 202.316,-48"/>
<polygon fill="midnightblue" stroke="midnightblue" points="366.981,-51.5001 376.981,-48 366.981,-44.5001 366.981,-51.5001"/>
</g>
<!-- Node15 -->
<g id="node15" class="node"><title>Node15</title>
<g id="a_node15"><a xlink:href="lbaselib_8c.html#a07f71966c943cc9761ab129f64d4ac80" target="_top" xlink:title=" ">
<polygon fill="white" stroke="black" points="0,-38.5 0,-57.5 104,-57.5 104,-38.5 0,-38.5"/>
<text text-anchor="middle" x="52" y="-45.5" font-family="Helvetica,sans-Serif" font-size="10.00">luaB_collectgarbage</text>
</a>
</g>
</g>
<!-- Node14&#45;&gt;Node15 -->
<g id="edge16" class="edge"><title>Node14&#45;&gt;Node15</title>
<path fill="none" stroke="midnightblue" d="M146.72,-48C133.837,-48 118.63,-48 104.256,-48"/>
<polygon fill="midnightblue" stroke="midnightblue" points="146.926,-51.5001 156.926,-48 146.926,-44.5001 146.926,-51.5001"/>
</g>
<!-- Node16&#45;&gt;Node13 -->
<g id="edge22" class="edge"><title>Node16&#45;&gt;Node13</title>
<path fill="none" stroke="midnightblue" d="M493.628,-21.9692C475.429,-27.5015 454.186,-33.9596 437.411,-39.0592"/>
<polygon fill="midnightblue" stroke="midnightblue" points="494.827,-25.2628 503.377,-19.0055 492.791,-18.5654 494.827,-25.2628"/>
</g>
<!-- Node17 -->
<g id="node17" class="node"><title>Node17</title>
<g id="a_node17"><a xlink:href="lgc_8h.html#a1da32357417ce5766ed5e3ada033c32f" target="_top" xlink:title=" ">
<polygon fill="white" stroke="black" points="365,-0.5 365,-19.5 449,-19.5 449,-0.5 365,-0.5"/>
<text text-anchor="middle" x="407" y="-7.5" font-family="Helvetica,sans-Serif" font-size="10.00">luaC_runtilstate</text>
</a>
</g>
</g>
<!-- Node16&#45;&gt;Node17 -->
<g id="edge18" class="edge"><title>Node16&#45;&gt;Node17</title>
<path fill="none" stroke="midnightblue" d="M493.07,-10C479.074,-10 463.333,-10 449.233,-10"/>
<polygon fill="midnightblue" stroke="midnightblue" points="493.377,-13.5001 503.377,-10 493.377,-6.5001 493.377,-13.5001"/>
</g>
<!-- Node18 -->
<g id="node18" class="node"><title>Node18</title>
<g id="a_node18"><a xlink:href="lgc_8h.html#aa0b753c3ed80e1eed0379ec58592c404" target="_top" xlink:title=" ">
<polygon fill="white" stroke="black" points="260,-0.5 260,-19.5 324,-19.5 324,-0.5 260,-0.5"/>
<text text-anchor="middle" x="292" y="-7.5" font-family="Helvetica,sans-Serif" font-size="10.00">luaC_fullgc</text>
</a>
</g>
</g>
<!-- Node17&#45;&gt;Node18 -->
<g id="edge19" class="edge"><title>Node17&#45;&gt;Node18</title>
<path fill="none" stroke="midnightblue" d="M354.67,-10C344.325,-10 333.747,-10 324.338,-10"/>
<polygon fill="midnightblue" stroke="midnightblue" points="354.885,-13.5001 364.885,-10 354.885,-6.5001 354.885,-13.5001"/>
</g>
<!-- Node18&#45;&gt;Node14 -->
<g id="edge20" class="edge"><title>Node18&#45;&gt;Node14</title>
<path fill="none" stroke="midnightblue" d="M253.396,-22.9317C236.296,-28.8124 216.675,-35.5596 202.101,-40.5717"/>
<polygon fill="midnightblue" stroke="midnightblue" points="254.798,-26.1508 263.116,-19.589 252.522,-19.5313 254.798,-26.1508"/>
</g>
<!-- Node19 -->
<g id="node19" class="node"><title>Node19</title>
<g id="a_node19"><a xlink:href="lmem_8h.html#ae7dc8a57fc5dbca825653a88a356a72d" target="_top" xlink:title=" ">
<polygon fill="white" stroke="black" points="141,-0.5 141,-19.5 218,-19.5 218,-0.5 141,-0.5"/>
<text text-anchor="middle" x="179.5" y="-7.5" font-family="Helvetica,sans-Serif" font-size="10.00">luaM_realloc_</text>
</a>
</g>
</g>
<!-- Node18&#45;&gt;Node19 -->
<g id="edge21" class="edge"><title>Node18&#45;&gt;Node19</title>
<path fill="none" stroke="midnightblue" d="M249.8,-10C239.377,-10 228.239,-10 218.009,-10"/>
<polygon fill="midnightblue" stroke="midnightblue" points="249.926,-13.5001 259.926,-10 249.925,-6.5001 249.926,-13.5001"/>
</g>
</g>
</svg>
