<?xml version="1.0" encoding="UTF-8" standalone="no"?>
<!DOCTYPE svg PUBLIC "-//W3C//DTD SVG 1.1//EN"
 "http://www.w3.org/Graphics/SVG/1.1/DTD/svg11.dtd">
<!-- Generated by graphviz version 2.38.0 (20140413.2041)
 -->
<!-- Title: f_close Pages: 1 -->
<svg width="1571pt" height="762pt"
 viewBox="0.00 0.00 1571.00 762.00" xmlns="http://www.w3.org/2000/svg" xmlns:xlink="http://www.w3.org/1999/xlink">
<g id="graph0" class="graph" transform="scale(1 1) rotate(0) translate(4 758)">
<title>f_close</title>
<polygon fill="white" stroke="none" points="-4,4 -4,-758 1567,-758 1567,4 -4,4"/>
<!-- Node1 -->
<g id="node1" class="node"><title>Node1</title>
<g id="a_node1"><a xlink:title=" ">
<polygon fill="#bfbfbf" stroke="black" points="0,-380.5 0,-399.5 47,-399.5 47,-380.5 0,-380.5"/>
<text text-anchor="middle" x="23.5" y="-387.5" font-family="Helvetica,sans-Serif" font-size="10.00">f_close</text>
</a>
</g>
</g>
<!-- Node2 -->
<g id="node2" class="node"><title>Node2</title>
<g id="a_node2"><a xlink:href="liolib_8c.html#a17cd174f91e6d1fdf0de674448dc84f2" target="_top" xlink:title=" ">
<polygon fill="white" stroke="black" points="83,-399.5 83,-418.5 144,-418.5 144,-399.5 83,-399.5"/>
<text text-anchor="middle" x="113.5" y="-406.5" font-family="Helvetica,sans-Serif" font-size="10.00">aux_close</text>
</a>
</g>
</g>
<!-- Node1&#45;&gt;Node2 -->
<g id="edge1" class="edge"><title>Node1&#45;&gt;Node2</title>
<path fill="none" stroke="midnightblue" d="M47.1622,-394.893C55.0803,-396.603 64.2148,-398.575 73.0967,-400.492"/>
<polygon fill="midnightblue" stroke="midnightblue" points="72.4256,-403.928 82.9391,-402.618 73.903,-397.086 72.4256,-403.928"/>
</g>
<!-- Node3 -->
<g id="node3" class="node"><title>Node3</title>
<g id="a_node3"><a xlink:href="liolib_8c.html#a3a596f9304846a90435b75c75c55acda" target="_top" xlink:title=" ">
<polygon fill="white" stroke="black" points="95,-361.5 95,-380.5 132,-380.5 132,-361.5 95,-361.5"/>
<text text-anchor="middle" x="113.5" y="-368.5" font-family="Helvetica,sans-Serif" font-size="10.00">tofile</text>
</a>
</g>
</g>
<!-- Node1&#45;&gt;Node3 -->
<g id="edge2" class="edge"><title>Node1&#45;&gt;Node3</title>
<path fill="none" stroke="midnightblue" d="M47.1622,-385.107C58.6634,-382.624 72.731,-379.586 84.8631,-376.967"/>
<polygon fill="midnightblue" stroke="midnightblue" points="85.8772,-380.329 94.9133,-374.797 84.3998,-373.487 85.8772,-380.329"/>
</g>
<!-- Node4 -->
<g id="node4" class="node"><title>Node4</title>
<g id="a_node4"><a xlink:href="lauxlib_8c.html#a6c51d83d29244779392551388913e08a" target="_top" xlink:title=" ">
<polygon fill="white" stroke="black" points="180,-361.5 180,-380.5 239,-380.5 239,-361.5 180,-361.5"/>
<text text-anchor="middle" x="209.5" y="-368.5" font-family="Helvetica,sans-Serif" font-size="10.00">luaL_error</text>
</a>
</g>
</g>
<!-- Node3&#45;&gt;Node4 -->
<g id="edge3" class="edge"><title>Node3&#45;&gt;Node4</title>
<path fill="none" stroke="midnightblue" d="M132.181,-371C142.756,-371 156.628,-371 169.641,-371"/>
<polygon fill="midnightblue" stroke="midnightblue" points="169.814,-374.5 179.814,-371 169.814,-367.5 169.814,-374.5"/>
</g>
<!-- Node5 -->
<g id="node5" class="node"><title>Node5</title>
<g id="a_node5"><a xlink:href="lapi_8c.html#a1de3afee1daece63d455f23818c883d9" target="_top" xlink:title=" ">
<polygon fill="white" stroke="black" points="275,-606.5 275,-625.5 339,-625.5 339,-606.5 275,-606.5"/>
<text text-anchor="middle" x="307" y="-613.5" font-family="Helvetica,sans-Serif" font-size="10.00">lua_concat</text>
</a>
</g>
</g>
<!-- Node4&#45;&gt;Node5 -->
<g id="edge4" class="edge"><title>Node4&#45;&gt;Node5</title>
<path fill="none" stroke="midnightblue" d="M214.244,-380.604C228.476,-417.118 279.385,-547.72 298.593,-596.998"/>
<polygon fill="midnightblue" stroke="midnightblue" points="295.389,-598.416 302.282,-606.462 301.911,-595.874 295.389,-598.416"/>
</g>
<!-- Node118 -->
<g id="node38" class="node"><title>Node118</title>
<g id="a_node38"><a xlink:href="lapi_8c.html#a6ba7b91143fe8a03910420d800de8e97" target="_top" xlink:title=" ">
<polygon fill="white" stroke="black" points="280,-342.5 280,-361.5 334,-361.5 334,-342.5 280,-342.5"/>
<text text-anchor="middle" x="307" y="-349.5" font-family="Helvetica,sans-Serif" font-size="10.00">lua_error</text>
</a>
</g>
</g>
<!-- Node4&#45;&gt;Node118 -->
<g id="edge52" class="edge"><title>Node4&#45;&gt;Node118</title>
<path fill="none" stroke="midnightblue" d="M239.153,-365.299C248.878,-363.365 259.868,-361.178 270.086,-359.145"/>
<polygon fill="midnightblue" stroke="midnightblue" points="270.846,-362.563 279.971,-357.178 269.48,-355.697 270.846,-362.563"/>
</g>
<!-- Node119 -->
<g id="node39" class="node"><title>Node119</title>
<g id="a_node39"><a xlink:href="lapi_8c.html#a426c9cb1d582be3e43060c4772854e5a" target="_top" xlink:title=" ">
<polygon fill="white" stroke="black" points="375,-384.5 375,-403.5 461,-403.5 461,-384.5 375,-384.5"/>
<text text-anchor="middle" x="418" y="-391.5" font-family="Helvetica,sans-Serif" font-size="10.00">lua_pushvfstring</text>
</a>
</g>
</g>
<!-- Node4&#45;&gt;Node119 -->
<g id="edge54" class="edge"><title>Node4&#45;&gt;Node119</title>
<path fill="none" stroke="midnightblue" d="M239.213,-374.198C271.632,-377.809 325.044,-383.758 364.877,-388.194"/>
<polygon fill="midnightblue" stroke="midnightblue" points="364.621,-391.688 374.947,-389.316 365.396,-384.731 364.621,-391.688"/>
</g>
<!-- Node120 -->
<g id="node40" class="node"><title>Node120</title>
<g id="a_node40"><a xlink:href="lauxlib_8c.html#a0f4d3c30c07eae36aa25605df84279a0" target="_top" xlink:title=" ">
<polygon fill="white" stroke="black" points="385.5,-57.5 385.5,-76.5 450.5,-76.5 450.5,-57.5 385.5,-57.5"/>
<text text-anchor="middle" x="418" y="-64.5" font-family="Helvetica,sans-Serif" font-size="10.00">luaL_where</text>
</a>
</g>
</g>
<!-- Node4&#45;&gt;Node120 -->
<g id="edge56" class="edge"><title>Node4&#45;&gt;Node120</title>
<path fill="none" stroke="midnightblue" d="M217.137,-361.23C246.629,-317.812 366.056,-141.997 404.8,-84.9604"/>
<polygon fill="midnightblue" stroke="midnightblue" points="407.767,-86.8211 410.491,-76.5823 401.977,-82.8877 407.767,-86.8211"/>
</g>
<!-- Node6 -->
<g id="node6" class="node"><title>Node6</title>
<g id="a_node6"><a xlink:href="lstring_8c.html#ab41fb084ce3ea5e2779f6659ccc2484d" target="_top" xlink:title=" ">
<polygon fill="white" stroke="black" points="382,-606.5 382,-625.5 454,-625.5 454,-606.5 382,-606.5"/>
<text text-anchor="middle" x="418" y="-613.5" font-family="Helvetica,sans-Serif" font-size="10.00">luaS_newlstr</text>
</a>
</g>
</g>
<!-- Node5&#45;&gt;Node6 -->
<g id="edge5" class="edge"><title>Node5&#45;&gt;Node6</title>
<path fill="none" stroke="midnightblue" d="M339.235,-616C349.342,-616 360.762,-616 371.678,-616"/>
<polygon fill="midnightblue" stroke="midnightblue" points="371.928,-619.5 381.928,-616 371.928,-612.5 371.928,-619.5"/>
</g>
<!-- Node23 -->
<g id="node23" class="node"><title>Node23</title>
<g id="a_node23"><a xlink:href="lvm_8c.html#a2f076040af405dcb50d661edd692eca7" target="_top" xlink:title=" ">
<polygon fill="white" stroke="black" points="1106.5,-668.5 1106.5,-687.5 1177.5,-687.5 1177.5,-668.5 1106.5,-668.5"/>
<text text-anchor="middle" x="1142" y="-675.5" font-family="Helvetica,sans-Serif" font-size="10.00">luaV_concat</text>
</a>
</g>
</g>
<!-- Node5&#45;&gt;Node23 -->
<g id="edge51" class="edge"><title>Node5&#45;&gt;Node23</title>
<path fill="none" stroke="midnightblue" d="M316.448,-625.925C344.383,-657.567 437.666,-754 537,-754 537,-754 537,-754 896.5,-754 974.91,-754 995.448,-744.171 1069,-717 1086.01,-710.716 1103.95,-701.011 1117.66,-692.855"/>
<polygon fill="midnightblue" stroke="midnightblue" points="1119.7,-695.71 1126.42,-687.517 1116.06,-689.733 1119.7,-695.71"/>
</g>
<!-- Node7 -->
<g id="node7" class="node"><title>Node7</title>
<g id="a_node7"><a xlink:href="lstring_8c.html#a9b2c32c59a280de24f20df1c7f0433a1" target="_top" xlink:title=" ">
<polygon fill="white" stroke="black" points="505.5,-559.5 505.5,-578.5 570.5,-578.5 570.5,-559.5 505.5,-559.5"/>
<text text-anchor="middle" x="538" y="-566.5" font-family="Helvetica,sans-Serif" font-size="10.00">internshrstr</text>
</a>
</g>
</g>
<!-- Node6&#45;&gt;Node7 -->
<g id="edge6" class="edge"><title>Node6&#45;&gt;Node7</title>
<path fill="none" stroke="midnightblue" d="M442.879,-606.489C460.277,-599.559 484.082,-590.077 503.398,-582.384"/>
<polygon fill="midnightblue" stroke="midnightblue" points="504.756,-585.61 512.751,-578.658 502.166,-579.107 504.756,-585.61"/>
</g>
<!-- Node12 -->
<g id="node12" class="node"><title>Node12</title>
<g id="a_node12"><a xlink:href="lmem_8c.html#a8fc7df43dd830ccbe7581fd53f65bdbe" target="_top" xlink:title=" ">
<polygon fill="white" stroke="black" points="503.5,-502.5 503.5,-521.5 572.5,-521.5 572.5,-502.5 503.5,-502.5"/>
<text text-anchor="middle" x="538" y="-509.5" font-family="Helvetica,sans-Serif" font-size="10.00">luaM_toobig</text>
</a>
</g>
</g>
<!-- Node6&#45;&gt;Node12 -->
<g id="edge11" class="edge"><title>Node6&#45;&gt;Node12</title>
<path fill="none" stroke="midnightblue" d="M429.89,-606.402C450.086,-588.602 493.555,-550.291 518.462,-528.339"/>
<polygon fill="midnightblue" stroke="midnightblue" points="520.949,-530.812 526.137,-521.574 516.32,-525.561 520.949,-530.812"/>
</g>
<!-- Node25 -->
<g id="node25" class="node"><title>Node25</title>
<g id="a_node25"><a xlink:href="lstring_8c.html#a8790c7d6e706f935dd6e9eefd068921c" target="_top" xlink:title=" ">
<polygon fill="white" stroke="black" points="1215,-630.5 1215,-649.5 1320,-649.5 1320,-630.5 1215,-630.5"/>
<text text-anchor="middle" x="1267.5" y="-637.5" font-family="Helvetica,sans-Serif" font-size="10.00">luaS_createlngstrobj</text>
</a>
</g>
</g>
<!-- Node6&#45;&gt;Node25 -->
<g id="edge50" class="edge"><title>Node6&#45;&gt;Node25</title>
<path fill="none" stroke="midnightblue" d="M440.4,-625.552C481.376,-642.943 574.129,-678 656,-678 656,-678 656,-678 776,-678 930.566,-678 1111.71,-659.011 1204.62,-647.88"/>
<polygon fill="midnightblue" stroke="midnightblue" points="1205.19,-651.337 1214.69,-646.663 1204.35,-644.388 1205.19,-651.337"/>
</g>
<!-- Node8 -->
<g id="node8" class="node"><title>Node8</title>
<g id="a_node8"><a xlink:href="lstring_8c.html#a85a1a917ef263701e47c36e68011d917" target="_top" xlink:title=" ">
<polygon fill="white" stroke="black" points="1367.5,-138.5 1367.5,-157.5 1435.5,-157.5 1435.5,-138.5 1367.5,-138.5"/>
<text text-anchor="middle" x="1401.5" y="-145.5" font-family="Helvetica,sans-Serif" font-size="10.00">createstrobj</text>
</a>
</g>
</g>
<!-- Node7&#45;&gt;Node8 -->
<g id="edge7" class="edge"><title>Node7&#45;&gt;Node8</title>
<path fill="none" stroke="midnightblue" d="M551.338,-559.345C559.89,-552.194 571.114,-541.846 579,-531 626.229,-466.043 674.649,-257.988 735,-205 783.781,-162.171 956.586,-148 1021.5,-148 1021.5,-148 1021.5,-148 1143,-148 1218.28,-148 1305.94,-148 1357.12,-148"/>
<polygon fill="midnightblue" stroke="midnightblue" points="1357.17,-151.5 1367.17,-148 1357.17,-144.5 1357.17,-151.5"/>
</g>
<!-- Node10 -->
<g id="node10" class="node"><title>Node10</title>
<g id="a_node10"><a xlink:href="lstring_8c.html#ac453c0e85b7bb4e9b146fc140b1b7c9e" target="_top" xlink:title=" ">
<polygon fill="white" stroke="black" points="626,-568.5 626,-587.5 688,-587.5 688,-568.5 626,-568.5"/>
<text text-anchor="middle" x="657" y="-575.5" font-family="Helvetica,sans-Serif" font-size="10.00">luaS_hash</text>
</a>
</g>
</g>
<!-- Node7&#45;&gt;Node10 -->
<g id="edge9" class="edge"><title>Node7&#45;&gt;Node10</title>
<path fill="none" stroke="midnightblue" d="M570.662,-571.436C584.494,-572.5 600.882,-573.76 615.581,-574.891"/>
<polygon fill="midnightblue" stroke="midnightblue" points="615.686,-578.409 625.925,-575.687 616.223,-571.43 615.686,-578.409"/>
</g>
<!-- Node11 -->
<g id="node11" class="node"><title>Node11</title>
<g id="a_node11"><a xlink:href="lstring_8c.html#a88a409a2e7eee2106940f69d7884c471" target="_top" xlink:title=" ">
<polygon fill="white" stroke="black" points="623,-530.5 623,-549.5 691,-549.5 691,-530.5 623,-530.5"/>
<text text-anchor="middle" x="657" y="-537.5" font-family="Helvetica,sans-Serif" font-size="10.00">luaS_resize</text>
</a>
</g>
</g>
<!-- Node7&#45;&gt;Node11 -->
<g id="edge10" class="edge"><title>Node7&#45;&gt;Node11</title>
<path fill="none" stroke="midnightblue" d="M570.662,-561.152C583.623,-557.94 598.828,-554.171 612.785,-550.712"/>
<polygon fill="midnightblue" stroke="midnightblue" points="613.813,-554.063 622.677,-548.26 612.128,-547.268 613.813,-554.063"/>
</g>
<!-- Node9 -->
<g id="node9" class="node"><title>Node9</title>
<g id="a_node9"><a xlink:href="lgc_8c.html#abfc8404c5fbd2a1770202fa0b087d451" target="_top" xlink:title=" ">
<polygon fill="white" stroke="black" points="1487.5,-110.5 1487.5,-129.5 1558.5,-129.5 1558.5,-110.5 1487.5,-110.5"/>
<text text-anchor="middle" x="1523" y="-117.5" font-family="Helvetica,sans-Serif" font-size="10.00">luaC_newobj</text>
</a>
</g>
</g>
<!-- Node8&#45;&gt;Node9 -->
<g id="edge8" class="edge"><title>Node8&#45;&gt;Node9</title>
<path fill="none" stroke="midnightblue" d="M1435.79,-140.2C1448.68,-137.18 1463.63,-133.676 1477.43,-130.443"/>
<polygon fill="midnightblue" stroke="midnightblue" points="1478.29,-133.837 1487.22,-128.148 1476.69,-127.022 1478.29,-133.837"/>
</g>
<!-- Node13 -->
<g id="node13" class="node"><title>Node13</title>
<g id="a_node13"><a xlink:href="ldebug_8c.html#a88d38ca5da2e7a1492fc9d5ad70c32c5" target="_top" xlink:title=" ">
<polygon fill="white" stroke="black" points="619.5,-469.5 619.5,-488.5 694.5,-488.5 694.5,-469.5 619.5,-469.5"/>
<text text-anchor="middle" x="657" y="-476.5" font-family="Helvetica,sans-Serif" font-size="10.00">luaG_runerror</text>
</a>
</g>
</g>
<!-- Node12&#45;&gt;Node13 -->
<g id="edge12" class="edge"><title>Node12&#45;&gt;Node13</title>
<path fill="none" stroke="midnightblue" d="M572.528,-502.544C584.904,-499.053 599.116,-495.044 612.263,-491.336"/>
<polygon fill="midnightblue" stroke="midnightblue" points="613.387,-494.656 622.062,-488.572 611.487,-487.918 613.387,-494.656"/>
</g>
<!-- Node14 -->
<g id="node14" class="node"><title>Node14</title>
<g id="a_node14"><a xlink:href="ldebug_8c.html#a9834508872dae133075c7efe6404a9d8" target="_top" xlink:title=" ">
<polygon fill="white" stroke="black" points="744,-214.5 744,-233.5 806,-233.5 806,-214.5 744,-214.5"/>
<text text-anchor="middle" x="775" y="-221.5" font-family="Helvetica,sans-Serif" font-size="10.00">currentline</text>
</a>
</g>
</g>
<!-- Node13&#45;&gt;Node14 -->
<g id="edge13" class="edge"><title>Node13&#45;&gt;Node14</title>
<path fill="none" stroke="midnightblue" d="M660.111,-469.258C668.907,-429.379 703.656,-278.997 735,-243 736.02,-241.828 737.129,-240.722 738.306,-239.679"/>
<polygon fill="midnightblue" stroke="midnightblue" points="740.677,-242.289 746.834,-233.667 736.644,-236.568 740.677,-242.289"/>
</g>
<!-- Node16 -->
<g id="node16" class="node"><title>Node16</title>
<g id="a_node16"><a xlink:href="ldebug_8c.html#a7e1dc7518150bf19bd9aa5dda166a2eb" target="_top" xlink:title=" ">
<polygon fill="white" stroke="black" points="738.5,-422.5 738.5,-441.5 811.5,-441.5 811.5,-422.5 738.5,-422.5"/>
<text text-anchor="middle" x="775" y="-429.5" font-family="Helvetica,sans-Serif" font-size="10.00">luaG_addinfo</text>
</a>
</g>
</g>
<!-- Node13&#45;&gt;Node16 -->
<g id="edge15" class="edge"><title>Node13&#45;&gt;Node16</title>
<path fill="none" stroke="midnightblue" d="M681.474,-469.489C698.5,-462.591 721.765,-453.164 740.707,-445.489"/>
<polygon fill="midnightblue" stroke="midnightblue" points="742.209,-448.657 750.162,-441.658 739.58,-442.17 742.209,-448.657"/>
</g>
<!-- Node19 -->
<g id="node19" class="node"><title>Node19</title>
<g id="a_node19"><a xlink:href="lobject_8c.html#aa83fa444a36d79521e846a766fa083d5" target="_top" xlink:title=" ">
<polygon fill="white" stroke="black" points="976,-422.5 976,-441.5 1069,-441.5 1069,-422.5 976,-422.5"/>
<text text-anchor="middle" x="1022.5" y="-429.5" font-family="Helvetica,sans-Serif" font-size="10.00">luaO_pushvfstring</text>
</a>
</g>
</g>
<!-- Node13&#45;&gt;Node19 -->
<g id="edge49" class="edge"><title>Node13&#45;&gt;Node19</title>
<path fill="none" stroke="midnightblue" d="M694.704,-471.013C748.708,-464.428 852.63,-456.459 940,-442 948.345,-440.619 957.109,-438.883 965.671,-437.132"/>
<polygon fill="midnightblue" stroke="midnightblue" points="966.503,-440.534 975.591,-435.089 965.09,-433.678 966.503,-440.534"/>
</g>
<!-- Node117 -->
<g id="node33" class="node"><title>Node117</title>
<g id="a_node33"><a xlink:href="ldebug_8c.html#af7366920f8408bb33ed01b1d6c0e1238" target="_top" xlink:title=" ">
<polygon fill="white" stroke="black" points="735,-335.5 735,-354.5 815,-354.5 815,-335.5 735,-335.5"/>
<text text-anchor="middle" x="775" y="-342.5" font-family="Helvetica,sans-Serif" font-size="10.00">luaG_errormsg</text>
</a>
</g>
</g>
<!-- Node13&#45;&gt;Node117 -->
<g id="edge43" class="edge"><title>Node13&#45;&gt;Node117</title>
<path fill="none" stroke="midnightblue" d="M666.342,-469.363C685.822,-446.86 734.516,-390.611 759.182,-362.117"/>
<polygon fill="midnightblue" stroke="midnightblue" points="761.834,-364.401 765.733,-354.55 756.542,-359.82 761.834,-364.401"/>
</g>
<!-- Node15 -->
<g id="node15" class="node"><title>Node15</title>
<g id="a_node15"><a xlink:href="ldebug_8c.html#a7db2a3f5cbcf0ac3ef6d4cfa15ab4dbc" target="_top" xlink:title=" ">
<polygon fill="white" stroke="black" points="867,-176.5 867,-195.5 924,-195.5 924,-176.5 867,-176.5"/>
<text text-anchor="middle" x="895.5" y="-183.5" font-family="Helvetica,sans-Serif" font-size="10.00">currentpc</text>
</a>
</g>
</g>
<!-- Node14&#45;&gt;Node15 -->
<g id="edge14" class="edge"><title>Node14&#45;&gt;Node15</title>
<path fill="none" stroke="midnightblue" d="M805.903,-214.411C821.347,-209.458 840.35,-203.365 856.791,-198.092"/>
<polygon fill="midnightblue" stroke="midnightblue" points="858.189,-201.32 866.642,-194.933 856.051,-194.654 858.189,-201.32"/>
</g>
<!-- Node17 -->
<g id="node17" class="node"><title>Node17</title>
<g id="a_node17"><a xlink:href="lobject_8c.html#a4708cca3615b7fafb7ea4631f486983b" target="_top" xlink:title=" ">
<polygon fill="white" stroke="black" points="857.5,-252.5 857.5,-271.5 933.5,-271.5 933.5,-252.5 857.5,-252.5"/>
<text text-anchor="middle" x="895.5" y="-259.5" font-family="Helvetica,sans-Serif" font-size="10.00">luaO_chunkid</text>
</a>
</g>
</g>
<!-- Node16&#45;&gt;Node17 -->
<g id="edge16" class="edge"><title>Node16&#45;&gt;Node17</title>
<path fill="none" stroke="midnightblue" d="M782.172,-422.054C790.18,-408.974 804.381,-385.166 815,-364 833.03,-328.06 822.604,-309.469 851,-281 852.397,-279.6 853.914,-278.295 855.517,-277.08"/>
<polygon fill="midnightblue" stroke="midnightblue" points="857.455,-279.996 864.082,-271.73 853.747,-274.059 857.455,-279.996"/>
</g>
<!-- Node18 -->
<g id="node18" class="node"><title>Node18</title>
<g id="a_node18"><a xlink:href="lobject_8c.html#a8e224db7123c74d695076a96d1bfda61" target="_top" xlink:title=" ">
<polygon fill="white" stroke="black" points="851,-422.5 851,-441.5 940,-441.5 940,-422.5 851,-422.5"/>
<text text-anchor="middle" x="895.5" y="-429.5" font-family="Helvetica,sans-Serif" font-size="10.00">luaO_pushfstring</text>
</a>
</g>
</g>
<!-- Node16&#45;&gt;Node18 -->
<g id="edge17" class="edge"><title>Node16&#45;&gt;Node18</title>
<path fill="none" stroke="midnightblue" d="M811.554,-432C820.661,-432 830.663,-432 840.473,-432"/>
<polygon fill="midnightblue" stroke="midnightblue" points="840.58,-435.5 850.58,-432 840.58,-428.5 840.58,-435.5"/>
</g>
<!-- Node18&#45;&gt;Node19 -->
<g id="edge18" class="edge"><title>Node18&#45;&gt;Node19</title>
<path fill="none" stroke="midnightblue" d="M940.219,-425.529C948.427,-425.278 957.113,-425.197 965.631,-425.284"/>
<polygon fill="midnightblue" stroke="midnightblue" points="965.834,-428.788 975.897,-425.474 965.963,-421.789 965.834,-428.788"/>
</g>
<!-- Node19&#45;&gt;Node13 -->
<g id="edge20" class="edge"><title>Node19&#45;&gt;Node13</title>
<path fill="none" stroke="midnightblue" d="M1009.45,-441.503C993.629,-448.578 964.941,-455.873 940,-460 857.92,-473.583 761.231,-481.439 705.047,-482.613"/>
<polygon fill="midnightblue" stroke="midnightblue" points="704.654,-479.118 694.704,-482.756 704.752,-486.117 704.654,-479.118"/>
</g>
<!-- Node19&#45;&gt;Node18 -->
<g id="edge21" class="edge"><title>Node19&#45;&gt;Node18</title>
<path fill="none" stroke="midnightblue" d="M975.897,-438.526C967.619,-438.75 958.914,-438.806 950.425,-438.693"/>
<polygon fill="midnightblue" stroke="midnightblue" points="950.293,-435.19 940.219,-438.471 950.141,-442.188 950.293,-435.19"/>
</g>
<!-- Node20 -->
<g id="node20" class="node"><title>Node20</title>
<g id="a_node20"><a xlink:href="ldo_8c.html#a4dd006aa3210fdc854d0441e2a98c9af" target="_top" xlink:title=" ">
<polygon fill="white" stroke="black" points="1233.5,-384.5 1233.5,-403.5 1301.5,-403.5 1301.5,-384.5 1233.5,-384.5"/>
<text text-anchor="middle" x="1267.5" y="-391.5" font-family="Helvetica,sans-Serif" font-size="10.00">luaD_inctop</text>
</a>
</g>
</g>
<!-- Node19&#45;&gt;Node20 -->
<g id="edge19" class="edge"><title>Node19&#45;&gt;Node20</title>
<path fill="none" stroke="midnightblue" d="M1069.21,-424.852C1113.5,-417.926 1180.17,-407.5 1223.52,-400.722"/>
<polygon fill="midnightblue" stroke="midnightblue" points="1224.13,-404.169 1233.47,-399.166 1223.05,-397.253 1224.13,-404.169"/>
</g>
<!-- Node21 -->
<g id="node21" class="node"><title>Node21</title>
<g id="a_node21"><a xlink:href="lobject_8c.html#a00c5c37438b02ff7efcf8e8dfa98da7c" target="_top" xlink:title=" ">
<polygon fill="white" stroke="black" points="1105,-554.5 1105,-573.5 1179,-573.5 1179,-554.5 1105,-554.5"/>
<text text-anchor="middle" x="1142" y="-561.5" font-family="Helvetica,sans-Serif" font-size="10.00">luaO_tostring</text>
</a>
</g>
</g>
<!-- Node19&#45;&gt;Node21 -->
<g id="edge22" class="edge"><title>Node19&#45;&gt;Node21</title>
<path fill="none" stroke="midnightblue" d="M1032.33,-441.921C1052.16,-464.199 1100.44,-518.436 1125.43,-546.513"/>
<polygon fill="midnightblue" stroke="midnightblue" points="1123.12,-549.18 1132.39,-554.322 1128.35,-544.526 1123.12,-549.18"/>
</g>
<!-- Node22 -->
<g id="node22" class="node"><title>Node22</title>
<g id="a_node22"><a xlink:href="lobject_8c.html#af3136de4693789b08f78aafda9604676" target="_top" xlink:title=" ">
<polygon fill="white" stroke="black" points="1105,-441.5 1105,-460.5 1179,-460.5 1179,-441.5 1105,-441.5"/>
<text text-anchor="middle" x="1142" y="-448.5" font-family="Helvetica,sans-Serif" font-size="10.00">luaO_utf8esc</text>
</a>
</g>
</g>
<!-- Node19&#45;&gt;Node22 -->
<g id="edge24" class="edge"><title>Node19&#45;&gt;Node22</title>
<path fill="none" stroke="midnightblue" d="M1069.27,-439.4C1077.69,-440.763 1086.5,-442.187 1094.94,-443.551"/>
<polygon fill="midnightblue" stroke="midnightblue" points="1094.57,-447.037 1105,-445.178 1095.68,-440.127 1094.57,-447.037"/>
</g>
<!-- Node19&#45;&gt;Node23 -->
<g id="edge25" class="edge"><title>Node19&#45;&gt;Node23</title>
<path fill="none" stroke="midnightblue" d="M1028.11,-441.643C1045.65,-478.383 1108.52,-609.991 1132.03,-659.23"/>
<polygon fill="midnightblue" stroke="midnightblue" points="1128.96,-660.908 1136.43,-668.423 1135.27,-657.891 1128.96,-660.908"/>
</g>
<!-- Node116 -->
<g id="node32" class="node"><title>Node116</title>
<g id="a_node32"><a xlink:href="lobject_8c.html#aa65db03553a5abd73e466d307bb17a37" target="_top" xlink:title=" ">
<polygon fill="white" stroke="black" points="1117.5,-365.5 1117.5,-384.5 1166.5,-384.5 1166.5,-365.5 1117.5,-365.5"/>
<text text-anchor="middle" x="1142" y="-372.5" font-family="Helvetica,sans-Serif" font-size="10.00">pushstr</text>
</a>
</g>
</g>
<!-- Node19&#45;&gt;Node116 -->
<g id="edge40" class="edge"><title>Node19&#45;&gt;Node116</title>
<path fill="none" stroke="midnightblue" d="M1043.17,-422.459C1061.98,-413.335 1090.57,-399.466 1111.99,-389.073"/>
<polygon fill="midnightblue" stroke="midnightblue" points="1113.8,-392.085 1121.27,-384.572 1110.74,-385.787 1113.8,-392.085"/>
</g>
<!-- Node21&#45;&gt;Node6 -->
<g id="edge23" class="edge"><title>Node21&#45;&gt;Node6</title>
<path fill="none" stroke="midnightblue" d="M1113.93,-573.625C1053.92,-594.076 904.807,-640 776,-640 656,-640 656,-640 656,-640 588.959,-640 511.792,-630.377 464.204,-623.317"/>
<polygon fill="midnightblue" stroke="midnightblue" points="464.632,-619.843 454.222,-621.81 463.587,-626.764 464.632,-619.843"/>
</g>
<!-- Node23&#45;&gt;Node6 -->
<g id="edge30" class="edge"><title>Node23&#45;&gt;Node6</title>
<path fill="none" stroke="midnightblue" d="M1106.44,-686.813C1059.32,-698.039 972.105,-716 896.5,-716 656,-716 656,-716 656,-716 584.533,-716 561.003,-723.799 497,-692 469.748,-678.46 445.933,-651.906 432.004,-634.053"/>
<polygon fill="midnightblue" stroke="midnightblue" points="434.468,-631.507 425.656,-625.625 428.877,-635.718 434.468,-631.507"/>
</g>
<!-- Node23&#45;&gt;Node13 -->
<g id="edge27" class="edge"><title>Node23&#45;&gt;Node13</title>
<path fill="none" stroke="midnightblue" d="M1106.45,-677.883C1031.61,-675.97 851.9,-662.251 735,-578 710.692,-560.481 717.567,-544.517 699,-521 692.137,-512.308 683.711,-503.425 676.287,-496.082"/>
<polygon fill="midnightblue" stroke="midnightblue" points="678.369,-493.227 668.745,-488.798 673.507,-498.263 678.369,-493.227"/>
</g>
<!-- Node24 -->
<g id="node24" class="node"><title>Node24</title>
<g id="a_node24"><a xlink:href="lvm_8c.html#a7f03a9c23b77ec5cd280bb955ec430b8" target="_top" xlink:title=" ">
<polygon fill="white" stroke="black" points="1238.5,-668.5 1238.5,-687.5 1296.5,-687.5 1296.5,-668.5 1238.5,-668.5"/>
<text text-anchor="middle" x="1267.5" y="-675.5" font-family="Helvetica,sans-Serif" font-size="10.00">copy2buff</text>
</a>
</g>
</g>
<!-- Node23&#45;&gt;Node24 -->
<g id="edge26" class="edge"><title>Node23&#45;&gt;Node24</title>
<path fill="none" stroke="midnightblue" d="M1177.73,-678C1193.41,-678 1212,-678 1228.1,-678"/>
<polygon fill="midnightblue" stroke="midnightblue" points="1228.26,-681.5 1238.26,-678 1228.26,-674.5 1228.26,-681.5"/>
</g>
<!-- Node23&#45;&gt;Node25 -->
<g id="edge28" class="edge"><title>Node23&#45;&gt;Node25</title>
<path fill="none" stroke="midnightblue" d="M1174.16,-668.411C1189.81,-663.596 1208.97,-657.701 1225.77,-652.532"/>
<polygon fill="midnightblue" stroke="midnightblue" points="1226.82,-655.872 1235.35,-649.586 1224.76,-649.182 1226.82,-655.872"/>
</g>
<!-- Node26 -->
<g id="node26" class="node"><title>Node26</title>
<g id="a_node26"><a xlink:href="ltm_8c.html#a2adc638eccb971b8abaf27f60611e913" target="_top" xlink:title=" ">
<polygon fill="white" stroke="black" points="1229,-706.5 1229,-725.5 1306,-725.5 1306,-706.5 1229,-706.5"/>
<text text-anchor="middle" x="1267.5" y="-713.5" font-family="Helvetica,sans-Serif" font-size="10.00">luaT_trybinTM</text>
</a>
</g>
</g>
<!-- Node23&#45;&gt;Node26 -->
<g id="edge31" class="edge"><title>Node23&#45;&gt;Node26</title>
<path fill="none" stroke="midnightblue" d="M1174.16,-687.589C1189.81,-692.404 1208.97,-698.299 1225.77,-703.468"/>
<polygon fill="midnightblue" stroke="midnightblue" points="1224.76,-706.818 1235.35,-706.414 1226.82,-700.128 1224.76,-706.818"/>
</g>
<!-- Node25&#45;&gt;Node8 -->
<g id="edge29" class="edge"><title>Node25&#45;&gt;Node8</title>
<path fill="none" stroke="midnightblue" d="M1271.14,-630.172C1287.29,-569.963 1372.92,-250.788 1395.2,-167.756"/>
<polygon fill="midnightblue" stroke="midnightblue" points="1398.65,-168.417 1397.86,-157.851 1391.89,-166.603 1398.65,-168.417"/>
</g>
<!-- Node27 -->
<g id="node27" class="node"><title>Node27</title>
<g id="a_node27"><a xlink:href="ldebug_8c.html#a04641ef359f3943a2ca88f52c3fe283c" target="_top" xlink:title=" ">
<polygon fill="white" stroke="black" points="1356,-734.5 1356,-753.5 1447,-753.5 1447,-734.5 1356,-734.5"/>
<text text-anchor="middle" x="1401.5" y="-741.5" font-family="Helvetica,sans-Serif" font-size="10.00">luaG_concaterror</text>
</a>
</g>
</g>
<!-- Node26&#45;&gt;Node27 -->
<g id="edge32" class="edge"><title>Node26&#45;&gt;Node27</title>
<path fill="none" stroke="midnightblue" d="M1306.33,-724.024C1318.59,-726.625 1332.45,-729.565 1345.69,-732.374"/>
<polygon fill="midnightblue" stroke="midnightblue" points="1345.15,-735.837 1355.66,-734.488 1346.6,-728.989 1345.15,-735.837"/>
</g>
<!-- Node41 -->
<g id="node29" class="node"><title>Node41</title>
<g id="a_node29"><a xlink:href="ldebug_8c.html#a5a3d4fd14bbb9329188c53a9548b7402" target="_top" xlink:title=" ">
<polygon fill="white" stroke="black" points="1360,-658.5 1360,-677.5 1443,-677.5 1443,-658.5 1360,-658.5"/>
<text text-anchor="middle" x="1401.5" y="-665.5" font-family="Helvetica,sans-Serif" font-size="10.00">luaG_opinterror</text>
</a>
</g>
</g>
<!-- Node26&#45;&gt;Node41 -->
<g id="edge35" class="edge"><title>Node26&#45;&gt;Node41</title>
<path fill="none" stroke="midnightblue" d="M1294.89,-706.402C1314.86,-699.142 1342.5,-689.092 1364.49,-681.094"/>
<polygon fill="midnightblue" stroke="midnightblue" points="1365.95,-684.288 1374.15,-677.582 1363.56,-677.71 1365.95,-684.288"/>
</g>
<!-- Node42 -->
<g id="node30" class="node"><title>Node42</title>
<g id="a_node30"><a xlink:href="ldebug_8c.html#ada97dce3c670f83e257a5b27299bf09b" target="_top" xlink:title=" ">
<polygon fill="white" stroke="red" points="1361.5,-601.5 1361.5,-620.5 1441.5,-620.5 1441.5,-601.5 1361.5,-601.5"/>
<text text-anchor="middle" x="1401.5" y="-608.5" font-family="Helvetica,sans-Serif" font-size="10.00">luaG_tointerror</text>
</a>
</g>
</g>
<!-- Node26&#45;&gt;Node42 -->
<g id="edge37" class="edge"><title>Node26&#45;&gt;Node42</title>
<path fill="none" stroke="midnightblue" d="M1302.89,-706.461C1308.91,-703.935 1314.88,-700.815 1320,-697 1341.38,-681.067 1337.75,-668.443 1356,-649 1363.25,-641.276 1371.98,-633.539 1379.78,-627.081"/>
<polygon fill="midnightblue" stroke="midnightblue" points="1382.18,-629.642 1387.76,-620.638 1377.78,-624.195 1382.18,-629.642"/>
</g>
<!-- Node43 -->
<g id="node31" class="node"><title>Node43</title>
<g id="a_node31"><a xlink:href="ltm_8c.html#a218e3b031d69a9888eb20da1927058c4" target="_top" xlink:title=" ">
<polygon fill="white" stroke="red" points="1361,-696.5 1361,-715.5 1442,-715.5 1442,-696.5 1361,-696.5"/>
<text text-anchor="middle" x="1401.5" y="-703.5" font-family="Helvetica,sans-Serif" font-size="10.00">luaT_callbinTM</text>
</a>
</g>
</g>
<!-- Node26&#45;&gt;Node43 -->
<g id="edge39" class="edge"><title>Node26&#45;&gt;Node43</title>
<path fill="none" stroke="midnightblue" d="M1306.33,-713.134C1320.19,-712.084 1336.1,-710.879 1350.84,-709.762"/>
<polygon fill="midnightblue" stroke="midnightblue" points="1351.12,-713.251 1360.83,-709.005 1350.59,-706.271 1351.12,-713.251"/>
</g>
<!-- Node28 -->
<g id="node28" class="node"><title>Node28</title>
<g id="a_node28"><a xlink:href="ldebug_8c.html#a60bf9ce85441bd5065f2b73640163711" target="_top" xlink:title=" ">
<polygon fill="white" stroke="red" points="1483,-658.5 1483,-677.5 1563,-677.5 1563,-658.5 1483,-658.5"/>
<text text-anchor="middle" x="1523" y="-665.5" font-family="Helvetica,sans-Serif" font-size="10.00">luaG_typeerror</text>
</a>
</g>
</g>
<!-- Node27&#45;&gt;Node28 -->
<g id="edge33" class="edge"><title>Node27&#45;&gt;Node28</title>
<path fill="none" stroke="midnightblue" d="M1427.97,-734.398C1434.34,-731.656 1441.05,-728.463 1447,-725 1467.33,-713.179 1488.48,-696.656 1503.12,-684.442"/>
<polygon fill="midnightblue" stroke="midnightblue" points="1505.57,-686.954 1510.93,-677.816 1501.04,-681.616 1505.57,-686.954"/>
</g>
<!-- Node28&#45;&gt;Node13 -->
<g id="edge34" class="edge"><title>Node28&#45;&gt;Node13</title>
<path fill="none" stroke="midnightblue" d="M1514.74,-658.254C1502.44,-642.344 1475.97,-610.696 1447,-592 1375.93,-546.137 1353.08,-526 1268.5,-526 894.5,-526 894.5,-526 894.5,-526 823.519,-526 742.815,-505.381 696.405,-491.457"/>
<polygon fill="midnightblue" stroke="midnightblue" points="697.347,-488.085 686.761,-488.511 695.302,-494.78 697.347,-488.085"/>
</g>
<!-- Node41&#45;&gt;Node28 -->
<g id="edge36" class="edge"><title>Node41&#45;&gt;Node28</title>
<path fill="none" stroke="midnightblue" d="M1443.29,-668C1452.63,-668 1462.65,-668 1472.31,-668"/>
<polygon fill="midnightblue" stroke="midnightblue" points="1472.6,-671.5 1482.6,-668 1472.6,-664.5 1472.6,-671.5"/>
</g>
<!-- Node42&#45;&gt;Node13 -->
<g id="edge38" class="edge"><title>Node42&#45;&gt;Node13</title>
<path fill="none" stroke="midnightblue" d="M1361.49,-614.285C1255.9,-621.643 957.469,-632.185 735,-540 711.071,-530.085 688.434,-510.465 673.977,-496.144"/>
<polygon fill="midnightblue" stroke="midnightblue" points="676.323,-493.537 666.831,-488.829 671.316,-498.428 676.323,-493.537"/>
</g>
<!-- Node116&#45;&gt;Node6 -->
<g id="edge42" class="edge"><title>Node116&#45;&gt;Node6</title>
<path fill="none" stroke="midnightblue" d="M1134.61,-365.452C1122.67,-347.91 1095.77,-309.719 1069,-281 957.788,-161.704 895.686,-101.08 735,-129 679.182,-138.699 656.469,-133.4 615,-172 481.502,-296.262 433.634,-527.804 422.03,-596.38"/>
<polygon fill="midnightblue" stroke="midnightblue" points="418.572,-595.839 420.421,-606.271 425.481,-596.963 418.572,-595.839"/>
</g>
<!-- Node116&#45;&gt;Node20 -->
<g id="edge41" class="edge"><title>Node116&#45;&gt;Node20</title>
<path fill="none" stroke="midnightblue" d="M1166.52,-378.618C1182.54,-381.083 1204.21,-384.417 1223.29,-387.352"/>
<polygon fill="midnightblue" stroke="midnightblue" points="1222.86,-390.826 1233.27,-388.888 1223.92,-383.908 1222.86,-390.826"/>
</g>
<!-- Node115 -->
<g id="node34" class="node"><title>Node115</title>
<g id="a_node34"><a xlink:href="ldo_8c.html#a61c0a0185ef5ae1493dad10027f4db7e" target="_top" xlink:title=" ">
<polygon fill="white" stroke="black" points="852,-290.5 852,-309.5 939,-309.5 939,-290.5 852,-290.5"/>
<text text-anchor="middle" x="895.5" y="-297.5" font-family="Helvetica,sans-Serif" font-size="10.00">luaD_callnoyield</text>
</a>
</g>
</g>
<!-- Node117&#45;&gt;Node115 -->
<g id="edge44" class="edge"><title>Node117&#45;&gt;Node115</title>
<path fill="none" stroke="midnightblue" d="M801.131,-335.457C818.256,-328.954 841.149,-320.26 859.98,-313.109"/>
<polygon fill="midnightblue" stroke="midnightblue" points="861.299,-316.352 869.405,-309.53 858.814,-309.808 861.299,-316.352"/>
</g>
<!-- Node76 -->
<g id="node36" class="node"><title>Node76</title>
<g id="a_node36"><a xlink:href="ldo_8c.html#a2b46d9db5b9ca3d5402a0c2ac640a6b0" target="_top" xlink:title=" ">
<polygon fill="white" stroke="black" points="863,-328.5 863,-347.5 928,-347.5 928,-328.5 863,-328.5"/>
<text text-anchor="middle" x="895.5" y="-335.5" font-family="Helvetica,sans-Serif" font-size="10.00">luaD_throw</text>
</a>
</g>
</g>
<!-- Node117&#45;&gt;Node76 -->
<g id="edge46" class="edge"><title>Node117&#45;&gt;Node76</title>
<path fill="none" stroke="midnightblue" d="M815.13,-342.689C827.243,-341.973 840.63,-341.182 852.905,-340.457"/>
<polygon fill="midnightblue" stroke="midnightblue" points="853.125,-343.95 862.901,-339.867 852.712,-336.962 853.125,-343.95"/>
</g>
<!-- Node45 -->
<g id="node35" class="node"><title>Node45</title>
<g id="a_node35"><a xlink:href="ldo_8c.html#a5483fddd87ca999e7d037bf397ab7997" target="_top" xlink:title=" ">
<polygon fill="white" stroke="red" points="994.5,-290.5 994.5,-309.5 1050.5,-309.5 1050.5,-290.5 994.5,-290.5"/>
<text text-anchor="middle" x="1022.5" y="-297.5" font-family="Helvetica,sans-Serif" font-size="10.00">luaD_call</text>
</a>
</g>
</g>
<!-- Node115&#45;&gt;Node45 -->
<g id="edge45" class="edge"><title>Node115&#45;&gt;Node45</title>
<path fill="none" stroke="midnightblue" d="M939.168,-300C953.709,-300 969.847,-300 983.956,-300"/>
<polygon fill="midnightblue" stroke="midnightblue" points="984.289,-303.5 994.289,-300 984.289,-296.5 984.289,-303.5"/>
</g>
<!-- Node76&#45;&gt;Node76 -->
<g id="edge47" class="edge"><title>Node76&#45;&gt;Node76</title>
<path fill="none" stroke="midnightblue" d="M877.005,-347.757C868.007,-356.565 874.172,-366 895.5,-366 909.163,-366 916.604,-362.128 917.821,-357.029"/>
<polygon fill="midnightblue" stroke="midnightblue" points="921.045,-355.666 913.995,-347.757 914.574,-358.336 921.045,-355.666"/>
</g>
<!-- Node77 -->
<g id="node37" class="node"><title>Node77</title>
<g id="a_node37"><a xlink:href="ldo_8c.html#af5721b7fac08574c3bf04058268daec7" target="_top" xlink:title=" ">
<polygon fill="white" stroke="black" points="991.5,-328.5 991.5,-347.5 1053.5,-347.5 1053.5,-328.5 991.5,-328.5"/>
<text text-anchor="middle" x="1022.5" y="-335.5" font-family="Helvetica,sans-Serif" font-size="10.00">seterrorobj</text>
</a>
</g>
</g>
<!-- Node76&#45;&gt;Node77 -->
<g id="edge48" class="edge"><title>Node76&#45;&gt;Node77</title>
<path fill="none" stroke="midnightblue" d="M928.043,-338C944.094,-338 963.79,-338 980.956,-338"/>
<polygon fill="midnightblue" stroke="midnightblue" points="981.261,-341.5 991.261,-338 981.261,-334.5 981.261,-341.5"/>
</g>
<!-- Node118&#45;&gt;Node117 -->
<g id="edge53" class="edge"><title>Node118&#45;&gt;Node117</title>
<path fill="none" stroke="midnightblue" d="M334.053,-351.609C409.044,-350.482 626.322,-347.218 724.641,-345.741"/>
<polygon fill="midnightblue" stroke="midnightblue" points="724.955,-349.237 734.902,-345.587 724.85,-342.238 724.955,-349.237"/>
</g>
<!-- Node119&#45;&gt;Node19 -->
<g id="edge55" class="edge"><title>Node119&#45;&gt;Node19</title>
<path fill="none" stroke="midnightblue" d="M461.384,-394C508.801,-394 587.904,-394 656,-394 656,-394 656,-394 776,-394 845.256,-394 924.222,-408.951 973.467,-420.097"/>
<polygon fill="midnightblue" stroke="midnightblue" points="972.98,-423.576 983.511,-422.411 974.552,-416.755 972.98,-423.576"/>
</g>
<!-- Node121 -->
<g id="node41" class="node"><title>Node121</title>
<g id="a_node41"><a xlink:href="ldebug_8c.html#acaafc35d8e385c4d167229486165df6d" target="_top" xlink:title=" ">
<polygon fill="white" stroke="black" points="506.5,-38.5 506.5,-57.5 569.5,-57.5 569.5,-38.5 506.5,-38.5"/>
<text text-anchor="middle" x="538" y="-45.5" font-family="Helvetica,sans-Serif" font-size="10.00">lua_getinfo</text>
</a>
</g>
</g>
<!-- Node120&#45;&gt;Node121 -->
<g id="edge57" class="edge"><title>Node120&#45;&gt;Node121</title>
<path fill="none" stroke="midnightblue" d="M450.622,-61.9083C464.6,-59.6577 481.212,-56.9829 496.116,-54.5831"/>
<polygon fill="midnightblue" stroke="midnightblue" points="496.791,-58.0195 506.108,-52.9742 495.678,-51.1085 496.791,-58.0195"/>
</g>
<!-- Node128 -->
<g id="node49" class="node"><title>Node128</title>
<g id="a_node49"><a xlink:href="ldebug_8c.html#ac1fc03c27ee46caa4037df2d70f22110" target="_top" xlink:title=" ">
<polygon fill="white" stroke="black" points="502,-0.5 502,-19.5 574,-19.5 574,-0.5 502,-0.5"/>
<text text-anchor="middle" x="538" y="-7.5" font-family="Helvetica,sans-Serif" font-size="10.00">lua_getstack</text>
</a>
</g>
</g>
<!-- Node120&#45;&gt;Node128 -->
<g id="edge68" class="edge"><title>Node120&#45;&gt;Node128</title>
<path fill="none" stroke="midnightblue" d="M438.528,-57.4202C454.289,-49.7041 477.046,-38.5994 497,-29 500.386,-27.371 503.937,-25.6715 507.467,-23.9878"/>
<polygon fill="midnightblue" stroke="midnightblue" points="509.106,-27.0839 516.632,-19.6269 506.099,-20.7629 509.106,-27.0839"/>
</g>
<!-- Node129 -->
<g id="node50" class="node"><title>Node129</title>
<g id="a_node50"><a xlink:href="lapi_8c.html#ab190c226d38b289e6ca57683a9d4e0f0" target="_top" xlink:title=" ">
<polygon fill="white" stroke="black" points="497,-76.5 497,-95.5 579,-95.5 579,-76.5 497,-76.5"/>
<text text-anchor="middle" x="538" y="-83.5" font-family="Helvetica,sans-Serif" font-size="10.00">lua_pushfstring</text>
</a>
</g>
</g>
<!-- Node120&#45;&gt;Node129 -->
<g id="edge69" class="edge"><title>Node120&#45;&gt;Node129</title>
<path fill="none" stroke="midnightblue" d="M450.622,-72.0917C461.715,-73.8779 474.468,-75.9313 486.709,-77.9024"/>
<polygon fill="midnightblue" stroke="midnightblue" points="486.395,-81.3967 496.824,-79.531 487.508,-74.4857 486.395,-81.3967"/>
</g>
<!-- Node122 -->
<g id="node42" class="node"><title>Node122</title>
<g id="a_node42"><a xlink:href="ldebug_8c.html#ad72fa774194e83872bac4e5bf6ec1160" target="_top" xlink:title=" ">
<polygon fill="white" stroke="black" points="626.5,-181.5 626.5,-200.5 687.5,-200.5 687.5,-181.5 626.5,-181.5"/>
<text text-anchor="middle" x="657" y="-188.5" font-family="Helvetica,sans-Serif" font-size="10.00">auxgetinfo</text>
</a>
</g>
</g>
<!-- Node121&#45;&gt;Node122 -->
<g id="edge58" class="edge"><title>Node121&#45;&gt;Node122</title>
<path fill="none" stroke="midnightblue" d="M564.891,-57.6203C569.903,-60.195 574.872,-63.3116 579,-67 612.696,-97.1111 636.811,-145.442 648.342,-171.998"/>
<polygon fill="midnightblue" stroke="midnightblue" points="645.162,-173.465 652.262,-181.329 651.616,-170.753 645.162,-173.465"/>
</g>
<!-- Node126 -->
<g id="node45" class="node"><title>Node126</title>
<g id="a_node45"><a xlink:href="ldebug_8c.html#a6e3195fc94af1f75142c2801ca8cf058" target="_top" xlink:title=" ">
<polygon fill="white" stroke="black" points="615,-57.5 615,-76.5 699,-76.5 699,-57.5 615,-57.5"/>
<text text-anchor="middle" x="657" y="-64.5" font-family="Helvetica,sans-Serif" font-size="10.00">collectvalidlines</text>
</a>
</g>
</g>
<!-- Node121&#45;&gt;Node126 -->
<g id="edge63" class="edge"><title>Node121&#45;&gt;Node126</title>
<path fill="none" stroke="midnightblue" d="M569.74,-52.992C580.531,-54.7443 592.962,-56.763 604.966,-58.7125"/>
<polygon fill="midnightblue" stroke="midnightblue" points="604.473,-62.1781 614.904,-60.3264 605.595,-55.2686 604.473,-62.1781"/>
</g>
<!-- Node127 -->
<g id="node48" class="node"><title>Node127</title>
<g id="a_node48"><a xlink:href="ldebug_8c.html#a1f8af4428461705c53893e5ddb8b55aa" target="_top" xlink:title=" ">
<polygon fill="white" stroke="black" points="626.5,-19.5 626.5,-38.5 687.5,-38.5 687.5,-19.5 626.5,-19.5"/>
<text text-anchor="middle" x="657" y="-26.5" font-family="Helvetica,sans-Serif" font-size="10.00">swapextra</text>
</a>
</g>
</g>
<!-- Node121&#45;&gt;Node127 -->
<g id="edge67" class="edge"><title>Node121&#45;&gt;Node127</title>
<path fill="none" stroke="midnightblue" d="M569.74,-43.008C583.933,-40.7032 600.964,-37.9375 616.129,-35.4747"/>
<polygon fill="midnightblue" stroke="midnightblue" points="616.963,-38.8853 626.273,-33.8275 615.841,-31.9758 616.963,-38.8853"/>
</g>
<!-- Node122&#45;&gt;Node14 -->
<g id="edge59" class="edge"><title>Node122&#45;&gt;Node14</title>
<path fill="none" stroke="midnightblue" d="M687.572,-199.413C701.668,-203.423 718.741,-208.28 733.977,-212.614"/>
<polygon fill="midnightblue" stroke="midnightblue" points="733.098,-216.003 743.674,-215.373 735.013,-209.27 733.098,-216.003"/>
</g>
<!-- Node123 -->
<g id="node43" class="node"><title>Node123</title>
<g id="a_node43"><a xlink:href="ldebug_8c.html#a84af60873d130ffee87eb1721f3231e4" target="_top" xlink:title=" ">
<polygon fill="white" stroke="black" points="750,-252.5 750,-271.5 800,-271.5 800,-252.5 750,-252.5"/>
<text text-anchor="middle" x="775" y="-259.5" font-family="Helvetica,sans-Serif" font-size="10.00">funcinfo</text>
</a>
</g>
</g>
<!-- Node122&#45;&gt;Node123 -->
<g id="edge60" class="edge"><title>Node122&#45;&gt;Node123</title>
<path fill="none" stroke="midnightblue" d="M670.99,-200.601C686.012,-211.505 711.671,-229.529 735,-243 737.87,-244.657 740.905,-246.306 743.965,-247.9"/>
<polygon fill="midnightblue" stroke="midnightblue" points="742.565,-251.114 753.073,-252.474 745.707,-244.858 742.565,-251.114"/>
</g>
<!-- Node124 -->
<g id="node44" class="node"><title>Node124</title>
<g id="a_node44"><a xlink:href="ldebug_8c.html#a118ab79b6b538a857353e4b9259667e1" target="_top" xlink:title=" ">
<polygon fill="white" stroke="red" points="739,-138.5 739,-157.5 811,-157.5 811,-138.5 739,-138.5"/>
<text text-anchor="middle" x="775" y="-145.5" font-family="Helvetica,sans-Serif" font-size="10.00">getfuncname</text>
</a>
</g>
</g>
<!-- Node122&#45;&gt;Node124 -->
<g id="edge62" class="edge"><title>Node122&#45;&gt;Node124</title>
<path fill="none" stroke="midnightblue" d="M683.744,-181.457C699.964,-175.444 721.118,-167.603 738.869,-161.023"/>
<polygon fill="midnightblue" stroke="midnightblue" points="740.168,-164.274 748.328,-157.516 737.735,-157.71 740.168,-164.274"/>
</g>
<!-- Node123&#45;&gt;Node17 -->
<g id="edge61" class="edge"><title>Node123&#45;&gt;Node17</title>
<path fill="none" stroke="midnightblue" d="M800.266,-262C813.708,-262 830.893,-262 846.897,-262"/>
<polygon fill="midnightblue" stroke="midnightblue" points="847.193,-265.5 857.193,-262 847.193,-258.5 847.193,-265.5"/>
</g>
<!-- Node70 -->
<g id="node46" class="node"><title>Node70</title>
<g id="a_node46"><a xlink:href="ltable_8c.html#a6c97fb2d6a020b0a6f852562fef93d97" target="_top" xlink:title=" ">
<polygon fill="white" stroke="red" points="993,-43.5 993,-62.5 1052,-62.5 1052,-43.5 993,-43.5"/>
<text text-anchor="middle" x="1022.5" y="-50.5" font-family="Helvetica,sans-Serif" font-size="10.00">luaH_new</text>
</a>
</g>
</g>
<!-- Node126&#45;&gt;Node70 -->
<g id="edge64" class="edge"><title>Node126&#45;&gt;Node70</title>
<path fill="none" stroke="midnightblue" d="M699.373,-58.0666C710.854,-55.9737 723.362,-54.0494 735,-53 823.424,-45.0268 927.825,-48.1722 982.935,-50.8076"/>
<polygon fill="midnightblue" stroke="midnightblue" points="982.797,-54.3049 992.959,-51.3077 983.146,-47.3136 982.797,-54.3049"/>
</g>
<!-- Node89 -->
<g id="node47" class="node"><title>Node89</title>
<g id="a_node47"><a xlink:href="ltable_8c.html#a9eefa8191c63f55cffb6b7b58217467c" target="_top" xlink:title=" ">
<polygon fill="white" stroke="red" points="742.5,-62.5 742.5,-81.5 807.5,-81.5 807.5,-62.5 742.5,-62.5"/>
<text text-anchor="middle" x="775" y="-69.5" font-family="Helvetica,sans-Serif" font-size="10.00">luaH_setint</text>
</a>
</g>
</g>
<!-- Node126&#45;&gt;Node89 -->
<g id="edge66" class="edge"><title>Node126&#45;&gt;Node89</title>
<path fill="none" stroke="midnightblue" d="M699.224,-68.7769C709.982,-69.2406 721.583,-69.7406 732.362,-70.2053"/>
<polygon fill="midnightblue" stroke="midnightblue" points="732.25,-73.7036 742.391,-70.6375 732.551,-66.7101 732.25,-73.7036"/>
</g>
<!-- Node70&#45;&gt;Node9 -->
<g id="edge65" class="edge"><title>Node70&#45;&gt;Node9</title>
<path fill="none" stroke="midnightblue" d="M1052.09,-56.8429C1135.11,-68.0013 1376.67,-100.467 1477.24,-113.984"/>
<polygon fill="midnightblue" stroke="midnightblue" points="1477,-117.483 1487.37,-115.346 1477.93,-110.545 1477,-117.483"/>
</g>
<!-- Node129&#45;&gt;Node19 -->
<g id="edge70" class="edge"><title>Node129&#45;&gt;Node19</title>
<path fill="none" stroke="midnightblue" d="M543.009,-95.7809C552.608,-118.258 578.835,-174.394 615,-210 659.159,-253.476 675.229,-264.642 735,-281 769.294,-290.386 782.338,-295.049 815,-281 836.371,-271.808 829.629,-252.192 851,-243 887.337,-227.37 908.095,-219.618 940,-243 982.856,-274.408 954.063,-308.607 976,-357 985.181,-377.254 998.691,-398.803 1008.61,-413.58"/>
<polygon fill="midnightblue" stroke="midnightblue" points="1005.99,-415.951 1014.52,-422.231 1011.77,-412.001 1005.99,-415.951"/>
</g>
</g>
</svg>
