<?xml version="1.0" encoding="UTF-8" standalone="no"?>
<!DOCTYPE svg PUBLIC "-//W3C//DTD SVG 1.1//EN"
 "http://www.w3.org/Graphics/SVG/1.1/DTD/svg11.dtd">
<!-- Generated by graphviz version 2.38.0 (20140413.2041)
 -->
<!-- Title: io_read Pages: 1 -->
<svg width="1036pt" height="1041pt"
 viewBox="0.00 0.00 1036.00 1041.45" xmlns="http://www.w3.org/2000/svg" xmlns:xlink="http://www.w3.org/1999/xlink">
<g id="graph0" class="graph" transform="scale(1 1) rotate(0) translate(4 1037.45)">
<title>io_read</title>
<polygon fill="white" stroke="none" points="-4,4 -4,-1037.45 1032,-1037.45 1032,4 -4,4"/>
<!-- Node1 -->
<g id="node1" class="node"><title>Node1</title>
<g id="a_node1"><a xlink:title=" ">
<polygon fill="#bfbfbf" stroke="black" points="0,-760.5 0,-779.5 48,-779.5 48,-760.5 0,-760.5"/>
<text text-anchor="middle" x="24" y="-767.5" font-family="Helvetica,sans-Serif" font-size="10.00">io_read</text>
</a>
</g>
</g>
<!-- Node2 -->
<g id="node2" class="node"><title>Node2</title>
<g id="a_node2"><a xlink:href="liolib_8c.html#addece2406777a40f0f591e3518293932" target="_top" xlink:title=" ">
<polygon fill="white" stroke="black" points="84,-627.5 84,-646.5 130,-646.5 130,-627.5 84,-627.5"/>
<text text-anchor="middle" x="107" y="-634.5" font-family="Helvetica,sans-Serif" font-size="10.00">g_read</text>
</a>
</g>
</g>
<!-- Node1&#45;&gt;Node2 -->
<g id="edge1" class="edge"><title>Node1&#45;&gt;Node2</title>
<path fill="none" stroke="midnightblue" d="M30.8253,-760.435C44.1874,-738.495 77.234,-684.233 94.7246,-655.514"/>
<polygon fill="midnightblue" stroke="midnightblue" points="97.7966,-657.199 100.009,-646.837 91.8181,-653.557 97.7966,-657.199"/>
</g>
<!-- Node204 -->
<g id="node49" class="node"><title>Node204</title>
<g id="a_node49"><a xlink:href="liolib_8c.html#a3bccbdacdc9f21f22a603525be1f3699" target="_top" xlink:title=" ">
<polygon fill="white" stroke="black" points="453,-950.5 453,-969.5 503,-969.5 503,-950.5 453,-950.5"/>
<text text-anchor="middle" x="478" y="-957.5" font-family="Helvetica,sans-Serif" font-size="10.00">getiofile</text>
</a>
</g>
</g>
<!-- Node1&#45;&gt;Node204 -->
<g id="edge71" class="edge"><title>Node1&#45;&gt;Node204</title>
<path fill="none" stroke="midnightblue" d="M36.7087,-779.683C59.9873,-798.512 114.306,-840.367 166,-865 261.677,-910.591 384.272,-940.403 442.855,-953.062"/>
<polygon fill="midnightblue" stroke="midnightblue" points="442.186,-956.498 452.696,-955.156 443.643,-949.651 442.186,-956.498"/>
</g>
<!-- Node3 -->
<g id="node3" class="node"><title>Node3</title>
<g id="a_node3"><a xlink:href="lapi_8c.html#afbb08ecb69421875494105d4de68e5bf" target="_top" xlink:title=" ">
<polygon fill="white" stroke="black" points="714.5,-760.5 714.5,-779.5 776.5,-779.5 776.5,-760.5 714.5,-760.5"/>
<text text-anchor="middle" x="745.5" y="-767.5" font-family="Helvetica,sans-Serif" font-size="10.00">lua_gettop</text>
</a>
</g>
</g>
<!-- Node2&#45;&gt;Node3 -->
<g id="edge2" class="edge"><title>Node2&#45;&gt;Node3</title>
<path fill="none" stroke="midnightblue" d="M109.721,-646.683C114.3,-669.292 129.05,-725.569 166,-751 232.084,-796.483 265.277,-770 345.5,-770 345.5,-770 345.5,-770 479,-770 558.777,-770 652.039,-770 704.086,-770"/>
<polygon fill="midnightblue" stroke="midnightblue" points="704.239,-773.5 714.239,-770 704.239,-766.5 704.239,-773.5"/>
</g>
<!-- Node4 -->
<g id="node4" class="node"><title>Node4</title>
<g id="a_node4"><a xlink:href="lapi_8c.html#a1b4cd0d80f51e5545a97ca6c28c03c50" target="_top" xlink:title=" ">
<polygon fill="white" stroke="black" points="834.5,-228.5 834.5,-247.5 899.5,-247.5 899.5,-228.5 834.5,-228.5"/>
<text text-anchor="middle" x="867" y="-235.5" font-family="Helvetica,sans-Serif" font-size="10.00">lua_pushnil</text>
</a>
</g>
</g>
<!-- Node2&#45;&gt;Node4 -->
<g id="edge3" class="edge"><title>Node2&#45;&gt;Node4</title>
<path fill="none" stroke="midnightblue" d="M108.181,-627.079C109.985,-558.867 129.754,-162 345.5,-162 345.5,-162 345.5,-162 613.5,-162 693.145,-162 715.3,-165.374 790,-193 809.771,-200.312 830.223,-212.747 844.924,-222.695"/>
<polygon fill="midnightblue" stroke="midnightblue" points="843.068,-225.667 853.277,-228.499 847.062,-219.918 843.068,-225.667"/>
</g>
<!-- Node5 -->
<g id="node5" class="node"><title>Node5</title>
<g id="a_node5"><a xlink:href="lapi_8c.html#a652b273947f0656686f998d8e90cd3ea" target="_top" xlink:title=" ">
<polygon fill="white" stroke="black" points="840.5,-798.5 840.5,-817.5 893.5,-817.5 893.5,-798.5 840.5,-798.5"/>
<text text-anchor="middle" x="867" y="-805.5" font-family="Helvetica,sans-Serif" font-size="10.00">lua_type</text>
</a>
</g>
</g>
<!-- Node2&#45;&gt;Node5 -->
<g id="edge4" class="edge"><title>Node2&#45;&gt;Node5</title>
<path fill="none" stroke="midnightblue" d="M108.643,-646.616C110.965,-672.841 121.345,-745.796 166,-778 262.659,-847.708 581.898,-810.886 701,-815 740.532,-816.365 750.486,-816.816 790,-815 803.133,-814.396 817.502,-813.209 830.176,-811.981"/>
<polygon fill="midnightblue" stroke="midnightblue" points="830.763,-815.44 840.36,-810.953 830.059,-808.476 830.763,-815.44"/>
</g>
<!-- Node7 -->
<g id="node7" class="node"><title>Node7</title>
<g id="a_node7"><a xlink:href="lauxlib_8c.html#ac607576dd107a3120cd51948989f1ed2" target="_top" xlink:title=" ">
<polygon fill="white" stroke="black" points="441.5,-684.5 441.5,-703.5 514.5,-703.5 514.5,-684.5 441.5,-684.5"/>
<text text-anchor="middle" x="478" y="-691.5" font-family="Helvetica,sans-Serif" font-size="10.00">luaL_argerror</text>
</a>
</g>
</g>
<!-- Node2&#45;&gt;Node7 -->
<g id="edge6" class="edge"><title>Node2&#45;&gt;Node7</title>
<path fill="none" stroke="midnightblue" d="M130.054,-645.219C140.778,-648.958 153.93,-653.17 166,-656 258.615,-677.715 369.829,-687.495 431.009,-691.513"/>
<polygon fill="midnightblue" stroke="midnightblue" points="430.91,-695.013 441.111,-692.153 431.353,-688.027 430.91,-695.013"/>
</g>
<!-- Node145 -->
<g id="node26" class="node"><title>Node145</title>
<g id="a_node26"><a xlink:href="lauxlib_8c.html#aa15bea412c49bfdee1f3dbff096ce7d2" target="_top" xlink:title=" ">
<polygon fill="white" stroke="black" points="166,-836.5 166,-855.5 261,-855.5 261,-836.5 166,-836.5"/>
<text text-anchor="middle" x="213.5" y="-843.5" font-family="Helvetica,sans-Serif" font-size="10.00">luaL_checkinteger</text>
</a>
</g>
</g>
<!-- Node2&#45;&gt;Node145 -->
<g id="edge34" class="edge"><title>Node2&#45;&gt;Node145</title>
<path fill="none" stroke="midnightblue" d="M108.482,-646.676C110.439,-676.353 120.081,-767.379 166,-822 168.974,-825.538 172.603,-828.617 176.508,-831.281"/>
<polygon fill="midnightblue" stroke="midnightblue" points="174.956,-834.428 185.353,-836.464 178.495,-828.389 174.956,-834.428"/>
</g>
<!-- Node155 -->
<g id="node31" class="node"><title>Node155</title>
<g id="a_node31"><a xlink:href="lauxlib_8c.html#a7c46517055e0e8cb25e61b959709083a" target="_top" xlink:title=" ">
<polygon fill="white" stroke="black" points="168.5,-627.5 168.5,-646.5 258.5,-646.5 258.5,-627.5 168.5,-627.5"/>
<text text-anchor="middle" x="213.5" y="-634.5" font-family="Helvetica,sans-Serif" font-size="10.00">luaL_checkstack</text>
</a>
</g>
</g>
<!-- Node2&#45;&gt;Node155 -->
<g id="edge42" class="edge"><title>Node2&#45;&gt;Node155</title>
<path fill="none" stroke="midnightblue" d="M130.162,-637C138.432,-637 148.229,-637 158.127,-637"/>
<polygon fill="midnightblue" stroke="midnightblue" points="158.419,-640.5 168.419,-637 158.419,-633.5 158.419,-640.5"/>
</g>
<!-- Node161 -->
<g id="node34" class="node"><title>Node161</title>
<g id="a_node34"><a xlink:href="lauxlib_8c.html#a86309080a5d45b232bcc240b45d06942" target="_top" xlink:title=" ">
<polygon fill="white" stroke="black" points="574.5,-323.5 574.5,-342.5 650.5,-342.5 650.5,-323.5 574.5,-323.5"/>
<text text-anchor="middle" x="612.5" y="-330.5" font-family="Helvetica,sans-Serif" font-size="10.00">luaL_fileresult</text>
</a>
</g>
</g>
<!-- Node2&#45;&gt;Node161 -->
<g id="edge46" class="edge"><title>Node2&#45;&gt;Node161</title>
<path fill="none" stroke="midnightblue" d="M108.894,-627.275C111.857,-600.641 123.723,-525.793 166,-485 279.421,-375.56 474.799,-344.748 564.27,-336.206"/>
<polygon fill="midnightblue" stroke="midnightblue" points="564.743,-339.677 574.388,-335.292 564.114,-332.706 564.743,-339.677"/>
</g>
<!-- Node164 -->
<g id="node37" class="node"><title>Node164</title>
<g id="a_node37"><a xlink:href="liolib_8c.html#a48a16089fed2e802a76635a3f8bfe8e3" target="_top" xlink:title=" ">
<polygon fill="white" stroke="black" points="188.5,-532.5 188.5,-551.5 238.5,-551.5 238.5,-532.5 188.5,-532.5"/>
<text text-anchor="middle" x="213.5" y="-539.5" font-family="Helvetica,sans-Serif" font-size="10.00">read_all</text>
</a>
</g>
</g>
<!-- Node2&#45;&gt;Node164 -->
<g id="edge52" class="edge"><title>Node2&#45;&gt;Node164</title>
<path fill="none" stroke="midnightblue" d="M113.14,-627.27C121.977,-611.383 141.487,-579.767 166,-561 169.865,-558.041 174.254,-555.469 178.757,-553.257"/>
<polygon fill="midnightblue" stroke="midnightblue" points="180.26,-556.419 188.024,-549.209 177.459,-550.004 180.26,-556.419"/>
</g>
<!-- Node171 -->
<g id="node40" class="node"><title>Node171</title>
<g id="a_node40"><a xlink:href="liolib_8c.html#a6735c0513432f83bfa1b88b056ab379b" target="_top" xlink:title=" ">
<polygon fill="white" stroke="black" points="181,-494.5 181,-513.5 246,-513.5 246,-494.5 181,-494.5"/>
<text text-anchor="middle" x="213.5" y="-501.5" font-family="Helvetica,sans-Serif" font-size="10.00">read_chars</text>
</a>
</g>
</g>
<!-- Node2&#45;&gt;Node171 -->
<g id="edge55" class="edge"><title>Node2&#45;&gt;Node171</title>
<path fill="none" stroke="midnightblue" d="M110.421,-627.339C116.304,-605.739 133.324,-553.078 166,-523 167.72,-521.416 169.59,-519.956 171.56,-518.611"/>
<polygon fill="midnightblue" stroke="midnightblue" points="173.718,-521.41 180.677,-513.421 170.255,-515.326 173.718,-521.41"/>
</g>
<!-- Node196 -->
<g id="node42" class="node"><title>Node196</title>
<g id="a_node42"><a xlink:href="liolib_8c.html#ae697e23c2b1ea23d8935f579aa21200c" target="_top" xlink:title=" ">
<polygon fill="white" stroke="black" points="185.5,-570.5 185.5,-589.5 241.5,-589.5 241.5,-570.5 185.5,-570.5"/>
<text text-anchor="middle" x="213.5" y="-577.5" font-family="Helvetica,sans-Serif" font-size="10.00">read_line</text>
</a>
</g>
</g>
<!-- Node2&#45;&gt;Node196 -->
<g id="edge60" class="edge"><title>Node2&#45;&gt;Node196</title>
<path fill="none" stroke="midnightblue" d="M125.727,-627.331C142.266,-618.31 167.157,-604.733 186.045,-594.43"/>
<polygon fill="midnightblue" stroke="midnightblue" points="187.932,-597.388 195.035,-589.526 184.58,-591.242 187.932,-597.388"/>
</g>
<!-- Node198 -->
<g id="node44" class="node"><title>Node198</title>
<g id="a_node44"><a xlink:href="liolib_8c.html#a5345908bf60e4bd37d768b052ac26ec7" target="_top" xlink:title=" ">
<polygon fill="white" stroke="black" points="177,-76.5 177,-95.5 250,-95.5 250,-76.5 177,-76.5"/>
<text text-anchor="middle" x="213.5" y="-83.5" font-family="Helvetica,sans-Serif" font-size="10.00">read_number</text>
</a>
</g>
</g>
<!-- Node2&#45;&gt;Node198 -->
<g id="edge65" class="edge"><title>Node2&#45;&gt;Node198</title>
<path fill="none" stroke="midnightblue" d="M108.462,-627.34C111.455,-566.873 129.144,-240.066 166,-148 172.76,-131.114 185.348,-114.772 195.723,-103.109"/>
<polygon fill="midnightblue" stroke="midnightblue" points="198.542,-105.217 202.772,-95.5027 193.407,-100.459 198.542,-105.217"/>
</g>
<!-- Node203 -->
<g id="node48" class="node"><title>Node203</title>
<g id="a_node48"><a xlink:href="liolib_8c.html#ace61fce0bdea311d6d7c2206881165c7" target="_top" xlink:title=" ">
<polygon fill="white" stroke="black" points="188,-722.5 188,-741.5 239,-741.5 239,-722.5 188,-722.5"/>
<text text-anchor="middle" x="213.5" y="-729.5" font-family="Helvetica,sans-Serif" font-size="10.00">test_eof</text>
</a>
</g>
</g>
<!-- Node2&#45;&gt;Node203 -->
<g id="edge70" class="edge"><title>Node2&#45;&gt;Node203</title>
<path fill="none" stroke="midnightblue" d="M114.096,-646.795C123.675,-661.569 143.496,-689.759 166,-708 170.411,-711.575 175.44,-714.835 180.522,-717.721"/>
<polygon fill="midnightblue" stroke="midnightblue" points="179.125,-720.941 189.605,-722.498 182.383,-714.746 179.125,-720.941"/>
</g>
<!-- Node6 -->
<g id="node6" class="node"><title>Node6</title>
<g id="a_node6"><a xlink:href="lapi_8c.html#ae54b9bb381b32c86235a084984e40215" target="_top" xlink:title=" ">
<polygon fill="white" stroke="black" points="954,-874.5 954,-893.5 1018,-893.5 1018,-874.5 954,-874.5"/>
<text text-anchor="middle" x="986" y="-881.5" font-family="Helvetica,sans-Serif" font-size="10.00">index2addr</text>
</a>
</g>
</g>
<!-- Node5&#45;&gt;Node6 -->
<g id="edge5" class="edge"><title>Node5&#45;&gt;Node6</title>
<path fill="none" stroke="midnightblue" d="M889.99,-817.508C895.956,-820.338 902.33,-823.599 908,-827 928.507,-839.302 950.268,-855.766 965.406,-867.836"/>
<polygon fill="midnightblue" stroke="midnightblue" points="963.515,-870.808 973.493,-874.37 967.914,-865.363 963.515,-870.808"/>
</g>
<!-- Node8 -->
<g id="node8" class="node"><title>Node8</title>
<g id="a_node8"><a xlink:href="ldebug_8c.html#acaafc35d8e385c4d167229486165df6d" target="_top" xlink:title=" ">
<polygon fill="white" stroke="black" points="835.5,-342.5 835.5,-361.5 898.5,-361.5 898.5,-342.5 835.5,-342.5"/>
<text text-anchor="middle" x="867" y="-349.5" font-family="Helvetica,sans-Serif" font-size="10.00">lua_getinfo</text>
</a>
</g>
</g>
<!-- Node7&#45;&gt;Node8 -->
<g id="edge7" class="edge"><title>Node7&#45;&gt;Node8</title>
<path fill="none" stroke="midnightblue" d="M513.322,-684.329C517.443,-681.882 521.182,-678.822 524,-675 619.688,-545.222 477.288,-452.409 560,-314 616.734,-219.062 694.342,-163.487 790,-219 811.992,-231.762 843.533,-299.664 858.088,-333.212"/>
<polygon fill="midnightblue" stroke="midnightblue" points="854.877,-334.606 862.03,-342.421 861.312,-331.851 854.877,-334.606"/>
</g>
<!-- Node127 -->
<g id="node12" class="node"><title>Node127</title>
<g id="a_node12"><a xlink:href="ldebug_8c.html#ac1fc03c27ee46caa4037df2d70f22110" target="_top" xlink:title=" ">
<polygon fill="white" stroke="black" points="831,-608.5 831,-627.5 903,-627.5 903,-608.5 831,-608.5"/>
<text text-anchor="middle" x="867" y="-615.5" font-family="Helvetica,sans-Serif" font-size="10.00">lua_getstack</text>
</a>
</g>
</g>
<!-- Node7&#45;&gt;Node127 -->
<g id="edge11" class="edge"><title>Node7&#45;&gt;Node127</title>
<path fill="none" stroke="midnightblue" d="M489.941,-703.678C532.919,-740.508 692.579,-866.043 790,-789 844.454,-745.936 782.349,-690.985 826,-637 826.967,-635.804 828.027,-634.68 829.159,-633.622"/>
<polygon fill="midnightblue" stroke="midnightblue" points="831.443,-636.288 837.471,-627.575 827.325,-630.628 831.443,-636.288"/>
</g>
<!-- Node128 -->
<g id="node13" class="node"><title>Node128</title>
<g id="a_node13"><a xlink:href="lauxlib_8c.html#a6c51d83d29244779392551388913e08a" target="_top" xlink:title=" ">
<polygon fill="white" stroke="black" points="583,-589.5 583,-608.5 642,-608.5 642,-589.5 583,-589.5"/>
<text text-anchor="middle" x="612.5" y="-596.5" font-family="Helvetica,sans-Serif" font-size="10.00">luaL_error</text>
</a>
</g>
</g>
<!-- Node7&#45;&gt;Node128 -->
<g id="edge12" class="edge"><title>Node7&#45;&gt;Node128</title>
<path fill="none" stroke="midnightblue" d="M505.399,-684.495C511.689,-681.79 518.242,-678.588 524,-675 551.001,-658.171 578.03,-633.136 594.75,-616.453"/>
<polygon fill="midnightblue" stroke="midnightblue" points="597.561,-618.587 602.085,-609.006 592.574,-613.675 597.561,-618.587"/>
</g>
<!-- Node134 -->
<g id="node19" class="node"><title>Node134</title>
<g id="a_node19"><a xlink:href="lauxlib_8c.html#a4f35430f7ecfcbd5f507e550937046b4" target="_top" xlink:title=" ">
<polygon fill="white" stroke="black" points="560,-684.5 560,-703.5 665,-703.5 665,-684.5 560,-684.5"/>
<text text-anchor="middle" x="612.5" y="-691.5" font-family="Helvetica,sans-Serif" font-size="10.00">pushglobalfuncname</text>
</a>
</g>
</g>
<!-- Node7&#45;&gt;Node134 -->
<g id="edge20" class="edge"><title>Node7&#45;&gt;Node134</title>
<path fill="none" stroke="midnightblue" d="M514.508,-694C525.407,-694 537.733,-694 549.853,-694"/>
<polygon fill="midnightblue" stroke="midnightblue" points="549.949,-697.5 559.949,-694 549.949,-690.5 549.949,-697.5"/>
</g>
<!-- Node9 -->
<g id="node9" class="node"><title>Node9</title>
<g id="a_node9"><a xlink:href="ldebug_8c.html#ad72fa774194e83872bac4e5bf6ec1160" target="_top" xlink:title=" ">
<polygon fill="white" stroke="red" points="955.5,-380.5 955.5,-399.5 1016.5,-399.5 1016.5,-380.5 955.5,-380.5"/>
<text text-anchor="middle" x="986" y="-387.5" font-family="Helvetica,sans-Serif" font-size="10.00">auxgetinfo</text>
</a>
</g>
</g>
<!-- Node8&#45;&gt;Node9 -->
<g id="edge8" class="edge"><title>Node8&#45;&gt;Node9</title>
<path fill="none" stroke="midnightblue" d="M897.524,-361.589C912.212,-366.359 930.16,-372.189 945.968,-377.323"/>
<polygon fill="midnightblue" stroke="midnightblue" points="944.893,-380.654 955.485,-380.414 947.056,-373.996 944.893,-380.654"/>
</g>
<!-- Node22 -->
<g id="node10" class="node"><title>Node22</title>
<g id="a_node10"><a xlink:href="ldebug_8c.html#a6e3195fc94af1f75142c2801ca8cf058" target="_top" xlink:title=" ">
<polygon fill="white" stroke="red" points="944,-342.5 944,-361.5 1028,-361.5 1028,-342.5 944,-342.5"/>
<text text-anchor="middle" x="986" y="-349.5" font-family="Helvetica,sans-Serif" font-size="10.00">collectvalidlines</text>
</a>
</g>
</g>
<!-- Node8&#45;&gt;Node22 -->
<g id="edge9" class="edge"><title>Node8&#45;&gt;Node22</title>
<path fill="none" stroke="midnightblue" d="M898.74,-352C909.423,-352 921.713,-352 933.606,-352"/>
<polygon fill="midnightblue" stroke="midnightblue" points="933.904,-355.5 943.904,-352 933.904,-348.5 933.904,-355.5"/>
</g>
<!-- Node126 -->
<g id="node11" class="node"><title>Node126</title>
<g id="a_node11"><a xlink:href="ldebug_8c.html#a1f8af4428461705c53893e5ddb8b55aa" target="_top" xlink:title=" ">
<polygon fill="white" stroke="black" points="955.5,-304.5 955.5,-323.5 1016.5,-323.5 1016.5,-304.5 955.5,-304.5"/>
<text text-anchor="middle" x="986" y="-311.5" font-family="Helvetica,sans-Serif" font-size="10.00">swapextra</text>
</a>
</g>
</g>
<!-- Node8&#45;&gt;Node126 -->
<g id="edge10" class="edge"><title>Node8&#45;&gt;Node126</title>
<path fill="none" stroke="midnightblue" d="M897.524,-342.411C912.212,-337.641 930.16,-331.811 945.968,-326.677"/>
<polygon fill="midnightblue" stroke="midnightblue" points="947.056,-330.004 955.485,-323.586 944.893,-323.346 947.056,-330.004"/>
</g>
<!-- Node129 -->
<g id="node14" class="node"><title>Node129</title>
<g id="a_node14"><a xlink:href="lapi_8c.html#a1de3afee1daece63d455f23818c883d9" target="_top" xlink:title=" ">
<polygon fill="white" stroke="red" points="835,-646.5 835,-665.5 899,-665.5 899,-646.5 835,-646.5"/>
<text text-anchor="middle" x="867" y="-653.5" font-family="Helvetica,sans-Serif" font-size="10.00">lua_concat</text>
</a>
</g>
</g>
<!-- Node128&#45;&gt;Node129 -->
<g id="edge13" class="edge"><title>Node128&#45;&gt;Node129</title>
<path fill="none" stroke="midnightblue" d="M642.302,-604.897C677.297,-612.133 738.1,-624.929 790,-637 801.475,-639.669 813.886,-642.707 825.286,-645.559"/>
<polygon fill="midnightblue" stroke="midnightblue" points="824.443,-648.956 834.995,-648.004 826.152,-642.168 824.443,-648.956"/>
</g>
<!-- Node130 -->
<g id="node15" class="node"><title>Node130</title>
<g id="a_node15"><a xlink:href="lapi_8c.html#a6ba7b91143fe8a03910420d800de8e97" target="_top" xlink:title=" ">
<polygon fill="white" stroke="red" points="718.5,-456.5 718.5,-475.5 772.5,-475.5 772.5,-456.5 718.5,-456.5"/>
<text text-anchor="middle" x="745.5" y="-463.5" font-family="Helvetica,sans-Serif" font-size="10.00">lua_error</text>
</a>
</g>
</g>
<!-- Node128&#45;&gt;Node130 -->
<g id="edge14" class="edge"><title>Node128&#45;&gt;Node130</title>
<path fill="none" stroke="midnightblue" d="M618.588,-589.436C630.402,-568.034 661.702,-515.751 701,-485 703.596,-482.969 706.443,-481.108 709.399,-479.415"/>
<polygon fill="midnightblue" stroke="midnightblue" points="711.11,-482.471 718.451,-474.832 707.949,-476.226 711.11,-482.471"/>
</g>
<!-- Node131 -->
<g id="node16" class="node"><title>Node131</title>
<g id="a_node16"><a xlink:href="lapi_8c.html#a426c9cb1d582be3e43060c4772854e5a" target="_top" xlink:title=" ">
<polygon fill="white" stroke="red" points="702.5,-418.5 702.5,-437.5 788.5,-437.5 788.5,-418.5 702.5,-418.5"/>
<text text-anchor="middle" x="745.5" y="-425.5" font-family="Helvetica,sans-Serif" font-size="10.00">lua_pushvfstring</text>
</a>
</g>
</g>
<!-- Node128&#45;&gt;Node131 -->
<g id="edge15" class="edge"><title>Node128&#45;&gt;Node131</title>
<path fill="none" stroke="midnightblue" d="M618.576,-589.392C635.377,-557.708 688.806,-457.916 701,-447 702.696,-445.482 704.533,-444.07 706.46,-442.759"/>
<polygon fill="midnightblue" stroke="midnightblue" points="708.418,-445.67 715.333,-437.643 704.921,-439.606 708.418,-445.67"/>
</g>
<!-- Node132 -->
<g id="node17" class="node"><title>Node132</title>
<g id="a_node17"><a xlink:href="lauxlib_8c.html#a0f4d3c30c07eae36aa25605df84279a0" target="_top" xlink:title=" ">
<polygon fill="white" stroke="black" points="713,-570.5 713,-589.5 778,-589.5 778,-570.5 713,-570.5"/>
<text text-anchor="middle" x="745.5" y="-577.5" font-family="Helvetica,sans-Serif" font-size="10.00">luaL_where</text>
</a>
</g>
</g>
<!-- Node128&#45;&gt;Node132 -->
<g id="edge16" class="edge"><title>Node128&#45;&gt;Node132</title>
<path fill="none" stroke="midnightblue" d="M642.249,-594.83C659.95,-592.263 682.947,-588.928 702.647,-586.07"/>
<polygon fill="midnightblue" stroke="midnightblue" points="703.209,-589.525 712.603,-584.626 702.204,-582.598 703.209,-589.525"/>
</g>
<!-- Node132&#45;&gt;Node8 -->
<g id="edge17" class="edge"><title>Node132&#45;&gt;Node8</title>
<path fill="none" stroke="midnightblue" d="M770.803,-570.47C777.742,-566.799 784.818,-562.009 790,-556 814.968,-527.046 847.94,-416.442 860.67,-371.329"/>
<polygon fill="midnightblue" stroke="midnightblue" points="864.071,-372.161 863.39,-361.588 857.329,-370.278 864.071,-372.161"/>
</g>
<!-- Node132&#45;&gt;Node127 -->
<g id="edge18" class="edge"><title>Node132&#45;&gt;Node127</title>
<path fill="none" stroke="midnightblue" d="M776.655,-589.589C791.657,-594.359 809.988,-600.189 826.134,-605.323"/>
<polygon fill="midnightblue" stroke="midnightblue" points="825.264,-608.719 835.855,-608.414 827.386,-602.048 825.264,-608.719"/>
</g>
<!-- Node133 -->
<g id="node18" class="node"><title>Node133</title>
<g id="a_node18"><a xlink:href="lapi_8c.html#ab190c226d38b289e6ca57683a9d4e0f0" target="_top" xlink:title=" ">
<polygon fill="white" stroke="red" points="826,-494.5 826,-513.5 908,-513.5 908,-494.5 826,-494.5"/>
<text text-anchor="middle" x="867" y="-501.5" font-family="Helvetica,sans-Serif" font-size="10.00">lua_pushfstring</text>
</a>
</g>
</g>
<!-- Node132&#45;&gt;Node133 -->
<g id="edge19" class="edge"><title>Node132&#45;&gt;Node133</title>
<path fill="none" stroke="midnightblue" d="M764.925,-570.341C772.754,-566.107 781.922,-560.976 790,-556 808.712,-544.473 829.243,-530.331 844.243,-519.707"/>
<polygon fill="midnightblue" stroke="midnightblue" points="846.695,-522.258 852.803,-513.601 842.629,-516.559 846.695,-522.258"/>
</g>
<!-- Node134&#45;&gt;Node3 -->
<g id="edge31" class="edge"><title>Node134&#45;&gt;Node3</title>
<path fill="none" stroke="midnightblue" d="M636.891,-703.562C645.911,-707.591 656.162,-712.599 665,-718 682.296,-728.57 684.074,-734.848 701,-746 705.862,-749.203 711.184,-752.386 716.385,-755.336"/>
<polygon fill="midnightblue" stroke="midnightblue" points="715.045,-758.593 725.493,-760.349 718.421,-752.461 715.045,-758.593"/>
</g>
<!-- Node134&#45;&gt;Node8 -->
<g id="edge30" class="edge"><title>Node134&#45;&gt;Node8</title>
<path fill="none" stroke="midnightblue" d="M620.268,-684.23C630.212,-669.827 649.291,-642.006 665,-618 681.406,-592.928 678.19,-580.429 701,-561 733.743,-533.111 759.365,-553.189 790,-523 834.058,-479.585 854.62,-406.162 862.265,-371.381"/>
<polygon fill="midnightblue" stroke="midnightblue" points="865.703,-372.036 864.307,-361.534 858.849,-370.615 865.703,-372.036"/>
</g>
<!-- Node135 -->
<g id="node20" class="node"><title>Node135</title>
<g id="a_node20"><a xlink:href="lauxlib_8c.html#a36c8f149b779f8c9a5c042ea9784d80a" target="_top" xlink:title=" ">
<polygon fill="white" stroke="red" points="721,-646.5 721,-665.5 770,-665.5 770,-646.5 721,-646.5"/>
<text text-anchor="middle" x="745.5" y="-653.5" font-family="Helvetica,sans-Serif" font-size="10.00">findfield</text>
</a>
</g>
</g>
<!-- Node134&#45;&gt;Node135 -->
<g id="edge21" class="edge"><title>Node134&#45;&gt;Node135</title>
<path fill="none" stroke="midnightblue" d="M646.557,-684.411C666.308,-678.682 691.324,-671.425 711.13,-665.68"/>
<polygon fill="midnightblue" stroke="midnightblue" points="712.328,-668.977 720.957,-662.829 710.378,-662.254 712.328,-668.977"/>
</g>
<!-- Node140 -->
<g id="node21" class="node"><title>Node140</title>
<g id="a_node21"><a xlink:href="lapi_8c.html#a111bd3fa34fe656f415edae5e343e13e" target="_top" xlink:title=" ">
<polygon fill="white" stroke="black" points="839,-836.5 839,-855.5 895,-855.5 895,-836.5 839,-836.5"/>
<text text-anchor="middle" x="867" y="-843.5" font-family="Helvetica,sans-Serif" font-size="10.00">lua_copy</text>
</a>
</g>
</g>
<!-- Node134&#45;&gt;Node140 -->
<g id="edge25" class="edge"><title>Node134&#45;&gt;Node140</title>
<path fill="none" stroke="midnightblue" d="M655.747,-703.545C701.252,-714.523 769.853,-733.316 790,-751 818.089,-775.656 799.586,-800.557 826,-827 827.386,-828.387 828.892,-829.686 830.481,-830.901"/>
<polygon fill="midnightblue" stroke="midnightblue" points="828.631,-833.872 838.945,-836.294 832.392,-827.969 828.631,-833.872"/>
</g>
<!-- Node141 -->
<g id="node22" class="node"><title>Node141</title>
<g id="a_node22"><a xlink:href="lapi_8c.html#a8b47f1b5685c3f8018ba926abb99af24" target="_top" xlink:title=" ">
<polygon fill="white" stroke="black" points="713,-950.5 713,-969.5 778,-969.5 778,-950.5 713,-950.5"/>
<text text-anchor="middle" x="745.5" y="-957.5" font-family="Helvetica,sans-Serif" font-size="10.00">lua_getfield</text>
</a>
</g>
</g>
<!-- Node134&#45;&gt;Node141 -->
<g id="edge27" class="edge"><title>Node134&#45;&gt;Node141</title>
<path fill="none" stroke="midnightblue" d="M618.318,-703.783C637.619,-742.974 709.549,-889.03 735.276,-941.271"/>
<polygon fill="midnightblue" stroke="midnightblue" points="732.219,-942.984 739.777,-950.409 738.498,-939.892 732.219,-942.984"/>
</g>
<!-- Node143 -->
<g id="node24" class="node"><title>Node143</title>
<g id="a_node24"><a xlink:href="lapi_8c.html#a771d300f2e64b2197d1df9bf31660ebf" target="_top" xlink:title=" ">
<polygon fill="white" stroke="red" points="705.5,-494.5 705.5,-513.5 785.5,-513.5 785.5,-494.5 705.5,-494.5"/>
<text text-anchor="middle" x="745.5" y="-501.5" font-family="Helvetica,sans-Serif" font-size="10.00">lua_pushstring</text>
</a>
</g>
</g>
<!-- Node134&#45;&gt;Node143 -->
<g id="edge32" class="edge"><title>Node134&#45;&gt;Node143</title>
<path fill="none" stroke="midnightblue" d="M621.225,-684.112C631.996,-670.013 651.697,-643.058 665,-618 685.2,-579.948 672.477,-560.287 701,-528 704.037,-524.562 707.69,-521.516 711.572,-518.849"/>
<polygon fill="midnightblue" stroke="midnightblue" points="713.52,-521.761 720.284,-513.607 709.911,-515.763 713.52,-521.761"/>
</g>
<!-- Node144 -->
<g id="node25" class="node"><title>Node144</title>
<g id="a_node25"><a xlink:href="lapi_8c.html#adaa30f0d34786144c94644039d1d1b6e" target="_top" xlink:title=" ">
<polygon fill="white" stroke="black" points="714.5,-684.5 714.5,-703.5 776.5,-703.5 776.5,-684.5 714.5,-684.5"/>
<text text-anchor="middle" x="745.5" y="-691.5" font-family="Helvetica,sans-Serif" font-size="10.00">lua_settop</text>
</a>
</g>
</g>
<!-- Node134&#45;&gt;Node144 -->
<g id="edge33" class="edge"><title>Node134&#45;&gt;Node144</title>
<path fill="none" stroke="midnightblue" d="M665.275,-694C678.108,-694 691.676,-694 703.889,-694"/>
<polygon fill="midnightblue" stroke="midnightblue" points="704.22,-697.5 714.22,-694 704.22,-690.5 704.22,-697.5"/>
</g>
<!-- Node135&#45;&gt;Node4 -->
<g id="edge23" class="edge"><title>Node135&#45;&gt;Node4</title>
<path fill="none" stroke="midnightblue" d="M756.663,-646.123C766.906,-635.505 782.273,-617.627 790,-599 835.709,-488.804 794.579,-448.088 826,-333 833.511,-305.489 847.171,-275.416 856.414,-256.632"/>
<polygon fill="midnightblue" stroke="midnightblue" points="859.55,-258.185 860.908,-247.678 853.294,-255.045 859.55,-258.185"/>
</g>
<!-- Node135&#45;&gt;Node5 -->
<g id="edge24" class="edge"><title>Node135&#45;&gt;Node5</title>
<path fill="none" stroke="midnightblue" d="M770.239,-663.165C777.154,-666.056 784.359,-669.934 790,-675 825.792,-707.143 848.949,-760.267 859.455,-788.672"/>
<polygon fill="midnightblue" stroke="midnightblue" points="856.214,-790.004 862.863,-798.254 862.81,-787.659 856.214,-790.004"/>
</g>
<!-- Node135&#45;&gt;Node129 -->
<g id="edge22" class="edge"><title>Node135&#45;&gt;Node129</title>
<path fill="none" stroke="midnightblue" d="M770.109,-656C785.648,-656 806.409,-656 824.64,-656"/>
<polygon fill="midnightblue" stroke="midnightblue" points="824.739,-659.5 834.739,-656 824.739,-652.5 824.739,-659.5"/>
</g>
<!-- Node140&#45;&gt;Node6 -->
<g id="edge26" class="edge"><title>Node140&#45;&gt;Node6</title>
<path fill="none" stroke="midnightblue" d="M895.136,-854.813C910.118,-859.679 928.997,-865.811 945.579,-871.197"/>
<polygon fill="midnightblue" stroke="midnightblue" points="944.959,-874.675 955.551,-874.436 947.122,-868.018 944.959,-874.675"/>
</g>
<!-- Node141&#45;&gt;Node6 -->
<g id="edge29" class="edge"><title>Node141&#45;&gt;Node6</title>
<path fill="none" stroke="midnightblue" d="M768.086,-969.599C800.24,-982.386 861.874,-1000.99 908,-979 941.054,-963.243 964.52,-925.596 976.314,-902.707"/>
<polygon fill="midnightblue" stroke="midnightblue" points="979.504,-904.152 980.777,-893.634 973.223,-901.063 979.504,-904.152"/>
</g>
<!-- Node142 -->
<g id="node23" class="node"><title>Node142</title>
<g id="a_node23"><a xlink:href="lapi_8c.html#a1b28b3a312121ffb29541632648b9f78" target="_top" xlink:title=" ">
<polygon fill="white" stroke="red" points="838.5,-950.5 838.5,-969.5 895.5,-969.5 895.5,-950.5 838.5,-950.5"/>
<text text-anchor="middle" x="867" y="-957.5" font-family="Helvetica,sans-Serif" font-size="10.00">auxgetstr</text>
</a>
</g>
</g>
<!-- Node141&#45;&gt;Node142 -->
<g id="edge28" class="edge"><title>Node141&#45;&gt;Node142</title>
<path fill="none" stroke="midnightblue" d="M778.21,-960C793.525,-960 812.018,-960 828.074,-960"/>
<polygon fill="midnightblue" stroke="midnightblue" points="828.215,-963.5 838.215,-960 828.215,-956.5 828.215,-963.5"/>
</g>
<!-- Node146 -->
<g id="node27" class="node"><title>Node146</title>
<g id="a_node27"><a xlink:href="lauxlib_8c.html#ac900510f548ea0ea6d53358d2aedd100" target="_top" xlink:title=" ">
<polygon fill="white" stroke="black" points="323,-836.5 323,-855.5 370,-855.5 370,-836.5 323,-836.5"/>
<text text-anchor="middle" x="346.5" y="-843.5" font-family="Helvetica,sans-Serif" font-size="10.00">interror</text>
</a>
</g>
</g>
<!-- Node145&#45;&gt;Node146 -->
<g id="edge35" class="edge"><title>Node145&#45;&gt;Node146</title>
<path fill="none" stroke="midnightblue" d="M261.055,-846C278.144,-846 297.115,-846 312.741,-846"/>
<polygon fill="midnightblue" stroke="midnightblue" points="312.959,-849.5 322.959,-846 312.959,-842.5 312.959,-849.5"/>
</g>
<!-- Node154 -->
<g id="node30" class="node"><title>Node154</title>
<g id="a_node30"><a xlink:href="lapi_8c.html#af81c9a68425546e1f8c6354728c95170" target="_top" xlink:title=" ">
<polygon fill="white" stroke="black" points="439.5,-912.5 439.5,-931.5 516.5,-931.5 516.5,-912.5 439.5,-912.5"/>
<text text-anchor="middle" x="478" y="-919.5" font-family="Helvetica,sans-Serif" font-size="10.00">lua_tointegerx</text>
</a>
</g>
</g>
<!-- Node145&#45;&gt;Node154 -->
<g id="edge40" class="edge"><title>Node145&#45;&gt;Node154</title>
<path fill="none" stroke="midnightblue" d="M247.48,-855.548C294.827,-869.256 382.093,-894.522 434.309,-909.64"/>
<polygon fill="midnightblue" stroke="midnightblue" points="433.37,-913.012 443.948,-912.431 435.316,-906.288 433.37,-913.012"/>
</g>
<!-- Node146&#45;&gt;Node7 -->
<g id="edge38" class="edge"><title>Node146&#45;&gt;Node7</title>
<path fill="none" stroke="midnightblue" d="M355.601,-836.492C376.949,-811.434 434.984,-743.316 462.349,-711.196"/>
<polygon fill="midnightblue" stroke="midnightblue" points="465.081,-713.387 468.902,-703.505 459.753,-708.847 465.081,-713.387"/>
</g>
<!-- Node147 -->
<g id="node28" class="node"><title>Node147</title>
<g id="a_node28"><a xlink:href="lapi_8c.html#a99451f234bf085c9c46c3d17a5aef905" target="_top" xlink:title=" ">
<polygon fill="white" stroke="black" points="575.5,-874.5 575.5,-893.5 649.5,-893.5 649.5,-874.5 575.5,-874.5"/>
<text text-anchor="middle" x="612.5" y="-881.5" font-family="Helvetica,sans-Serif" font-size="10.00">lua_isnumber</text>
</a>
</g>
</g>
<!-- Node146&#45;&gt;Node147 -->
<g id="edge36" class="edge"><title>Node146&#45;&gt;Node147</title>
<path fill="none" stroke="midnightblue" d="M370.313,-851.882C387.238,-856.062 410.932,-861.528 432,-865 476.887,-872.397 528.587,-877.514 564.94,-880.559"/>
<polygon fill="midnightblue" stroke="midnightblue" points="564.983,-884.074 575.235,-881.4 565.553,-877.097 564.983,-884.074"/>
</g>
<!-- Node148 -->
<g id="node29" class="node"><title>Node148</title>
<g id="a_node29"><a xlink:href="lauxlib_8c.html#ab8e946260debec8d4bbc714b76a1613b" target="_top" xlink:title=" ">
<polygon fill="white" stroke="red" points="450.5,-836.5 450.5,-855.5 505.5,-855.5 505.5,-836.5 450.5,-836.5"/>
<text text-anchor="middle" x="478" y="-843.5" font-family="Helvetica,sans-Serif" font-size="10.00">tag_error</text>
</a>
</g>
</g>
<!-- Node146&#45;&gt;Node148 -->
<g id="edge39" class="edge"><title>Node146&#45;&gt;Node148</title>
<path fill="none" stroke="midnightblue" d="M370.057,-846C389.325,-846 417.422,-846 439.982,-846"/>
<polygon fill="midnightblue" stroke="midnightblue" points="440.226,-849.5 450.226,-846 440.226,-842.5 440.226,-849.5"/>
</g>
<!-- Node147&#45;&gt;Node6 -->
<g id="edge37" class="edge"><title>Node147&#45;&gt;Node6</title>
<path fill="none" stroke="midnightblue" d="M649.797,-884C719.231,-884 870.451,-884 943.654,-884"/>
<polygon fill="midnightblue" stroke="midnightblue" points="943.869,-887.5 953.869,-884 943.869,-880.5 943.869,-887.5"/>
</g>
<!-- Node154&#45;&gt;Node6 -->
<g id="edge41" class="edge"><title>Node154&#45;&gt;Node6</title>
<path fill="none" stroke="midnightblue" d="M516.723,-921.459C591.58,-920.039 764.103,-915.04 908,-898 919.688,-896.616 932.283,-894.565 943.832,-892.458"/>
<polygon fill="midnightblue" stroke="midnightblue" points="944.484,-895.897 953.664,-890.607 943.189,-889.018 944.484,-895.897"/>
</g>
<!-- Node155&#45;&gt;Node128 -->
<g id="edge45" class="edge"><title>Node155&#45;&gt;Node128</title>
<path fill="none" stroke="midnightblue" d="M258.503,-632.788C336.625,-625.31 498.301,-609.835 572.605,-602.723"/>
<polygon fill="midnightblue" stroke="midnightblue" points="573.293,-606.173 582.914,-601.736 572.626,-599.205 573.293,-606.173"/>
</g>
<!-- Node156 -->
<g id="node32" class="node"><title>Node156</title>
<g id="a_node32"><a xlink:href="lapi_8c.html#a1d762b92d5d82d6fa9f54ccf5c89d6a2" target="_top" xlink:title=" ">
<polygon fill="white" stroke="red" points="304,-646.5 304,-665.5 389,-665.5 389,-646.5 304,-646.5"/>
<text text-anchor="middle" x="346.5" y="-653.5" font-family="Helvetica,sans-Serif" font-size="10.00">lua_checkstack</text>
</a>
</g>
</g>
<!-- Node155&#45;&gt;Node156 -->
<g id="edge43" class="edge"><title>Node155&#45;&gt;Node156</title>
<path fill="none" stroke="midnightblue" d="M258.851,-643.433C270.103,-645.065 282.288,-646.832 293.867,-648.511"/>
<polygon fill="midnightblue" stroke="midnightblue" points="293.449,-651.987 303.848,-649.959 294.454,-645.06 293.449,-651.987"/>
</g>
<!-- Node157 -->
<g id="node33" class="node"><title>Node157</title>
<g id="a_node33"><a xlink:href="lapi_8c.html#ab3a8303d450a61e55f7928da1fe14302" target="_top" xlink:title=" ">
<polygon fill="white" stroke="red" points="447.5,-646.5 447.5,-665.5 508.5,-665.5 508.5,-646.5 447.5,-646.5"/>
<text text-anchor="middle" x="478" y="-653.5" font-family="Helvetica,sans-Serif" font-size="10.00">growstack</text>
</a>
</g>
</g>
<!-- Node156&#45;&gt;Node157 -->
<g id="edge44" class="edge"><title>Node156&#45;&gt;Node157</title>
<path fill="none" stroke="midnightblue" d="M389.187,-656C404.567,-656 421.943,-656 437.155,-656"/>
<polygon fill="midnightblue" stroke="midnightblue" points="437.29,-659.5 447.29,-656 437.29,-652.5 437.29,-659.5"/>
</g>
<!-- Node161&#45;&gt;Node4 -->
<g id="edge50" class="edge"><title>Node161&#45;&gt;Node4</title>
<path fill="none" stroke="midnightblue" d="M650.786,-329.672C687.549,-325.327 744.653,-315.675 790,-295 812.079,-284.933 833.882,-267.611 848.434,-254.698"/>
<polygon fill="midnightblue" stroke="midnightblue" points="851.083,-257.018 856.111,-247.692 846.365,-251.847 851.083,-257.018"/>
</g>
<!-- Node161&#45;&gt;Node133 -->
<g id="edge48" class="edge"><title>Node161&#45;&gt;Node133</title>
<path fill="none" stroke="midnightblue" d="M648.642,-342.54C686.289,-353.969 746.487,-375.83 790,-409 818.259,-430.542 842.198,-464.798 855.291,-485.754"/>
<polygon fill="midnightblue" stroke="midnightblue" points="852.334,-487.628 860.52,-494.354 858.315,-483.991 852.334,-487.628"/>
</g>
<!-- Node161&#45;&gt;Node143 -->
<g id="edge51" class="edge"><title>Node161&#45;&gt;Node143</title>
<path fill="none" stroke="midnightblue" d="M616.598,-342.572C625.54,-368.816 653.811,-442.758 701,-485 702.696,-486.518 704.533,-487.93 706.46,-489.241"/>
<polygon fill="midnightblue" stroke="midnightblue" points="704.921,-492.394 715.333,-494.357 708.418,-486.33 704.921,-492.394"/>
</g>
<!-- Node162 -->
<g id="node35" class="node"><title>Node162</title>
<g id="a_node35"><a xlink:href="lapi_8c.html#a56bbb7479265e38da2e2596e6ec25faa" target="_top" xlink:title=" ">
<polygon fill="white" stroke="black" points="701,-266.5 701,-285.5 790,-285.5 790,-266.5 701,-266.5"/>
<text text-anchor="middle" x="745.5" y="-273.5" font-family="Helvetica,sans-Serif" font-size="10.00">lua_pushboolean</text>
</a>
</g>
</g>
<!-- Node161&#45;&gt;Node162 -->
<g id="edge47" class="edge"><title>Node161&#45;&gt;Node162</title>
<path fill="none" stroke="midnightblue" d="M635.426,-323.459C656.68,-314.212 689.136,-300.09 713.122,-289.653"/>
<polygon fill="midnightblue" stroke="midnightblue" points="714.729,-292.771 722.502,-285.572 711.936,-286.352 714.729,-292.771"/>
</g>
<!-- Node163 -->
<g id="node36" class="node"><title>Node163</title>
<g id="a_node36"><a xlink:href="lapi_8c.html#adcec46ff05dfee9a3c4c05828b40c213" target="_top" xlink:title=" ">
<polygon fill="white" stroke="black" points="703,-228.5 703,-247.5 788,-247.5 788,-228.5 703,-228.5"/>
<text text-anchor="middle" x="745.5" y="-235.5" font-family="Helvetica,sans-Serif" font-size="10.00">lua_pushinteger</text>
</a>
</g>
</g>
<!-- Node161&#45;&gt;Node163 -->
<g id="edge49" class="edge"><title>Node161&#45;&gt;Node163</title>
<path fill="none" stroke="midnightblue" d="M622.944,-323.039C638.192,-307.385 669.701,-276.775 701,-257 703.787,-255.239 706.765,-253.565 709.806,-251.993"/>
<polygon fill="midnightblue" stroke="midnightblue" points="711.481,-255.072 718.992,-247.6 708.461,-248.757 711.481,-255.072"/>
</g>
<!-- Node165 -->
<g id="node38" class="node"><title>Node165</title>
<g id="a_node38"><a xlink:href="lauxlib_8c.html#a0830ef75e335f6d7590b0e058f82a5eb" target="_top" xlink:title=" ">
<polygon fill="white" stroke="black" points="312.5,-494.5 312.5,-513.5 380.5,-513.5 380.5,-494.5 312.5,-494.5"/>
<text text-anchor="middle" x="346.5" y="-501.5" font-family="Helvetica,sans-Serif" font-size="10.00">luaL_buffinit</text>
</a>
</g>
</g>
<!-- Node164&#45;&gt;Node165 -->
<g id="edge53" class="edge"><title>Node164&#45;&gt;Node165</title>
<path fill="none" stroke="midnightblue" d="M238.527,-535.03C256.509,-529.814 281.576,-522.543 302.924,-516.35"/>
<polygon fill="midnightblue" stroke="midnightblue" points="304.115,-519.649 312.744,-513.502 302.165,-512.926 304.115,-519.649"/>
</g>
<!-- Node166 -->
<g id="node39" class="node"><title>Node166</title>
<g id="a_node39"><a xlink:href="lauxlib_8c.html#a3a1f80033814e2057583a7d24cee23b4" target="_top" xlink:title=" ">
<polygon fill="white" stroke="red" points="304,-532.5 304,-551.5 389,-551.5 389,-532.5 304,-532.5"/>
<text text-anchor="middle" x="346.5" y="-539.5" font-family="Helvetica,sans-Serif" font-size="10.00">luaL_pushresult</text>
</a>
</g>
</g>
<!-- Node164&#45;&gt;Node166 -->
<g id="edge54" class="edge"><title>Node164&#45;&gt;Node166</title>
<path fill="none" stroke="midnightblue" d="M238.527,-542C253.992,-542 274.698,-542 293.771,-542"/>
<polygon fill="midnightblue" stroke="midnightblue" points="293.857,-545.5 303.857,-542 293.857,-538.5 293.857,-545.5"/>
</g>
<!-- Node171&#45;&gt;Node165 -->
<g id="edge56" class="edge"><title>Node171&#45;&gt;Node165</title>
<path fill="none" stroke="midnightblue" d="M246.211,-504C263,-504 283.868,-504 302.133,-504"/>
<polygon fill="midnightblue" stroke="midnightblue" points="302.253,-507.5 312.253,-504 302.253,-500.5 302.253,-507.5"/>
</g>
<!-- Node171&#45;&gt;Node166 -->
<g id="edge59" class="edge"><title>Node171&#45;&gt;Node166</title>
<path fill="none" stroke="midnightblue" d="M246.211,-513.199C263.285,-518.151 284.577,-524.328 303.06,-529.689"/>
<polygon fill="midnightblue" stroke="midnightblue" points="302.133,-533.065 312.713,-532.489 304.084,-526.342 302.133,-533.065"/>
</g>
<!-- Node172 -->
<g id="node41" class="node"><title>Node172</title>
<g id="a_node41"><a xlink:href="lauxlib_8c.html#ae695ed340bec54979c499b70d7d29318" target="_top" xlink:title=" ">
<polygon fill="white" stroke="red" points="432,-494.5 432,-513.5 524,-513.5 524,-494.5 432,-494.5"/>
<text text-anchor="middle" x="478" y="-501.5" font-family="Helvetica,sans-Serif" font-size="10.00">luaL_prepbuffsize</text>
</a>
</g>
</g>
<!-- Node171&#45;&gt;Node172 -->
<g id="edge57" class="edge"><title>Node171&#45;&gt;Node172</title>
<path fill="none" stroke="midnightblue" d="M246.335,-494.896C261.532,-491.007 280.06,-486.926 297,-485 340.718,-480.031 352.292,-479.942 396,-485 408.555,-486.453 421.99,-489.132 434.237,-492.03"/>
<polygon fill="midnightblue" stroke="midnightblue" points="433.652,-495.491 444.2,-494.493 435.332,-488.695 433.652,-495.491"/>
</g>
<!-- Node172&#45;&gt;Node128 -->
<g id="edge58" class="edge"><title>Node172&#45;&gt;Node128</title>
<path fill="none" stroke="midnightblue" d="M492.681,-513.809C515.711,-530.321 562.395,-563.792 589.892,-583.507"/>
<polygon fill="midnightblue" stroke="midnightblue" points="587.925,-586.404 598.091,-589.386 592.003,-580.715 587.925,-586.404"/>
</g>
<!-- Node196&#45;&gt;Node165 -->
<g id="edge63" class="edge"><title>Node196&#45;&gt;Node165</title>
<path fill="none" stroke="midnightblue" d="M241.565,-571.197C248.207,-568.44 255.099,-565.039 261,-561 280.199,-547.861 277.706,-535.999 297,-523 299.737,-521.156 302.68,-519.451 305.714,-517.884"/>
<polygon fill="midnightblue" stroke="midnightblue" points="307.374,-520.972 314.975,-513.591 304.43,-514.621 307.374,-520.972"/>
</g>
<!-- Node196&#45;&gt;Node166 -->
<g id="edge64" class="edge"><title>Node196&#45;&gt;Node166</title>
<path fill="none" stroke="midnightblue" d="M241.643,-572.126C259.21,-567.031 282.459,-560.287 302.507,-554.471"/>
<polygon fill="midnightblue" stroke="midnightblue" points="303.722,-557.763 312.351,-551.616 301.771,-551.04 303.722,-557.763"/>
</g>
<!-- Node197 -->
<g id="node43" class="node"><title>Node197</title>
<g id="a_node43"><a xlink:href="lapi_8c.html#a69a7802ba2e3877296652e20d82799b3" target="_top" xlink:title=" ">
<polygon fill="white" stroke="red" points="581.5,-475.5 581.5,-494.5 643.5,-494.5 643.5,-475.5 581.5,-475.5"/>
<text text-anchor="middle" x="612.5" y="-482.5" font-family="Helvetica,sans-Serif" font-size="10.00">lua_rawlen</text>
</a>
</g>
</g>
<!-- Node196&#45;&gt;Node197 -->
<g id="edge61" class="edge"><title>Node196&#45;&gt;Node197</title>
<path fill="none" stroke="midnightblue" d="M241.794,-578.713C277.515,-576.671 341.933,-571.76 396,-561 454.202,-549.417 468.238,-543.301 524,-523 543.644,-515.848 565.189,-506.511 581.985,-498.881"/>
<polygon fill="midnightblue" stroke="midnightblue" points="583.647,-501.97 591.275,-494.616 580.726,-495.608 583.647,-501.97"/>
</g>
<!-- Node197&#45;&gt;Node6 -->
<g id="edge62" class="edge"><title>Node197&#45;&gt;Node6</title>
<path fill="none" stroke="midnightblue" d="M620.596,-475.391C634.011,-458.137 665,-422.452 701,-409 792.805,-374.697 853.098,-403.817 908,-485 950.959,-548.524 976.485,-791.899 983.206,-863.852"/>
<polygon fill="midnightblue" stroke="midnightblue" points="979.757,-864.575 984.153,-874.214 986.728,-863.937 979.757,-864.575"/>
</g>
<!-- Node198&#45;&gt;Node4 -->
<g id="edge66" class="edge"><title>Node198&#45;&gt;Node4</title>
<path fill="none" stroke="midnightblue" d="M250.047,-95.1797C264.531,-98.6601 281.489,-102.405 297,-105 376.342,-118.274 396.556,-124 477,-124 477,-124 477,-124 613.5,-124 692.666,-124 720.614,-109.883 790,-148 820.174,-164.576 843.527,-198.269 855.983,-219.399"/>
<polygon fill="midnightblue" stroke="midnightblue" points="853.092,-221.398 861.065,-228.376 859.184,-217.949 853.092,-221.398"/>
</g>
<!-- Node199 -->
<g id="node45" class="node"><title>Node199</title>
<g id="a_node45"><a xlink:href="lapi_8c.html#ab9c2fb9e2b2c7dad7474dd4b6f1bbcd0" target="_top" xlink:title=" ">
<polygon fill="white" stroke="red" points="297,-76.5 297,-95.5 396,-95.5 396,-76.5 297,-76.5"/>
<text text-anchor="middle" x="346.5" y="-83.5" font-family="Helvetica,sans-Serif" font-size="10.00">lua_stringtonumber</text>
</a>
</g>
</g>
<!-- Node198&#45;&gt;Node199 -->
<g id="edge67" class="edge"><title>Node198&#45;&gt;Node199</title>
<path fill="none" stroke="midnightblue" d="M250.296,-86C261.541,-86 274.268,-86 286.672,-86"/>
<polygon fill="midnightblue" stroke="midnightblue" points="286.976,-89.5001 296.976,-86 286.976,-82.5001 286.976,-89.5001"/>
</g>
<!-- Node200 -->
<g id="node46" class="node"><title>Node200</title>
<g id="a_node46"><a xlink:href="liolib_8c.html#a7ab70833e31129b3a9d2b49869c72978" target="_top" xlink:title=" ">
<polygon fill="white" stroke="red" points="317,-38.5 317,-57.5 376,-57.5 376,-38.5 317,-38.5"/>
<text text-anchor="middle" x="346.5" y="-45.5" font-family="Helvetica,sans-Serif" font-size="10.00">readdigits</text>
</a>
</g>
</g>
<!-- Node198&#45;&gt;Node200 -->
<g id="edge68" class="edge"><title>Node198&#45;&gt;Node200</title>
<path fill="none" stroke="midnightblue" d="M247.557,-76.411C265.675,-71.1553 288.224,-64.6143 307.118,-59.1338"/>
<polygon fill="midnightblue" stroke="midnightblue" points="308.274,-62.4427 316.903,-56.2952 306.324,-55.7198 308.274,-62.4427"/>
</g>
<!-- Node202 -->
<g id="node47" class="node"><title>Node202</title>
<g id="a_node47"><a xlink:href="liolib_8c.html#a5c7dc3feb7edf50432b742767d4748f4" target="_top" xlink:title=" ">
<polygon fill="white" stroke="red" points="327.5,-0.5 327.5,-19.5 365.5,-19.5 365.5,-0.5 327.5,-0.5"/>
<text text-anchor="middle" x="346.5" y="-7.5" font-family="Helvetica,sans-Serif" font-size="10.00">test2</text>
</a>
</g>
</g>
<!-- Node198&#45;&gt;Node202 -->
<g id="edge69" class="edge"><title>Node198&#45;&gt;Node202</title>
<path fill="none" stroke="midnightblue" d="M226.509,-76.3715C242.083,-64.2044 270.412,-43.1472 297,-29 303.437,-25.5751 310.63,-22.423 317.464,-19.7114"/>
<polygon fill="midnightblue" stroke="midnightblue" points="318.974,-22.8826 327.091,-16.0735 316.499,-16.3345 318.974,-22.8826"/>
</g>
<!-- Node204&#45;&gt;Node128 -->
<g id="edge75" class="edge"><title>Node204&#45;&gt;Node128</title>
<path fill="none" stroke="midnightblue" d="M503.026,-954.937C510.855,-952.109 518.848,-947.736 524,-941 596.474,-846.237 517.412,-786.439 560,-675 568.371,-653.096 584.13,-631.267 596.021,-616.661"/>
<polygon fill="midnightblue" stroke="midnightblue" points="598.744,-618.861 602.489,-608.95 593.381,-614.362 598.744,-618.861"/>
</g>
<!-- Node204&#45;&gt;Node141 -->
<g id="edge72" class="edge"><title>Node204&#45;&gt;Node141</title>
<path fill="none" stroke="midnightblue" d="M503.03,-960C548.119,-960 645.927,-960 702.25,-960"/>
<polygon fill="midnightblue" stroke="midnightblue" points="702.598,-963.5 712.598,-960 702.598,-956.5 702.598,-963.5"/>
</g>
<!-- Node170 -->
<g id="node50" class="node"><title>Node170</title>
<g id="a_node50"><a xlink:href="lapi_8c.html#a0444ddf13e5618bca969e4b3b47bc0cc" target="_top" xlink:title=" ">
<polygon fill="white" stroke="black" points="572.5,-1007.5 572.5,-1026.5 652.5,-1026.5 652.5,-1007.5 572.5,-1007.5"/>
<text text-anchor="middle" x="612.5" y="-1014.5" font-family="Helvetica,sans-Serif" font-size="10.00">lua_touserdata</text>
</a>
</g>
</g>
<!-- Node204&#45;&gt;Node170 -->
<g id="edge73" class="edge"><title>Node204&#45;&gt;Node170</title>
<path fill="none" stroke="midnightblue" d="M501.178,-969.541C522.674,-978.788 555.502,-992.91 579.762,-1003.35"/>
<polygon fill="midnightblue" stroke="midnightblue" points="578.681,-1006.69 589.25,-1007.43 581.447,-1000.26 578.681,-1006.69"/>
</g>
<!-- Node170&#45;&gt;Node6 -->
<g id="edge74" class="edge"><title>Node170&#45;&gt;Node6</title>
<path fill="none" stroke="midnightblue" d="M652.819,-1024.78C712.383,-1034.42 827.105,-1044.38 908,-998 944.967,-976.805 967.808,-929.78 978.256,-903.224"/>
<polygon fill="midnightblue" stroke="midnightblue" points="981.655,-904.127 981.874,-893.535 975.097,-901.679 981.655,-904.127"/>
</g>
</g>
</svg>
