<?xml version="1.0" encoding="UTF-8" standalone="no"?>
<!DOCTYPE svg PUBLIC "-//W3C//DTD SVG 1.1//EN"
 "http://www.w3.org/Graphics/SVG/1.1/DTD/svg11.dtd">
<!-- Generated by graphviz version 2.38.0 (20140413.2041)
 -->
<!-- Title: gmatch Pages: 1 -->
<svg width="1261pt" height="674pt"
 viewBox="0.00 0.00 1261.00 674.00" xmlns="http://www.w3.org/2000/svg" xmlns:xlink="http://www.w3.org/1999/xlink">
<g id="graph0" class="graph" transform="scale(1 1) rotate(0) translate(4 670)">
<title>gmatch</title>
<polygon fill="white" stroke="none" points="-4,4 -4,-670 1257,-670 1257,4 -4,4"/>
<!-- Node1 -->
<g id="node1" class="node"><title>Node1</title>
<g id="a_node1"><a xlink:title=" ">
<polygon fill="#bfbfbf" stroke="black" points="0,-494.5 0,-513.5 49,-513.5 49,-494.5 0,-494.5"/>
<text text-anchor="middle" x="24.5" y="-501.5" font-family="Helvetica,sans-Serif" font-size="10.00">gmatch</text>
</a>
</g>
</g>
<!-- Node2 -->
<g id="node2" class="node"><title>Node2</title>
<g id="a_node2"><a xlink:href="lstrlib_8c.html#ab7cb0ba6191e1aa9455f6522d3483a02" target="_top" xlink:title=" ">
<polygon fill="white" stroke="black" points="96,-475.5 96,-494.5 166,-494.5 166,-475.5 96,-475.5"/>
<text text-anchor="middle" x="131" y="-482.5" font-family="Helvetica,sans-Serif" font-size="10.00">gmatch_aux</text>
</a>
</g>
</g>
<!-- Node1&#45;&gt;Node2 -->
<g id="edge1" class="edge"><title>Node1&#45;&gt;Node2</title>
<path fill="none" stroke="midnightblue" d="M49.2127,-499.689C60.0464,-497.719 73.2412,-495.32 85.8002,-493.036"/>
<polygon fill="midnightblue" stroke="midnightblue" points="86.4662,-496.473 95.6788,-491.24 85.2139,-489.586 86.4662,-496.473"/>
</g>
<!-- Node155 -->
<g id="node35" class="node"><title>Node155</title>
<g id="a_node35"><a xlink:href="lapi_8c.html#a467bb6f4780b27d6e7de6ee10a80dac5" target="_top" xlink:title=" ">
<polygon fill="white" stroke="black" points="86.5,-636.5 86.5,-655.5 175.5,-655.5 175.5,-636.5 86.5,-636.5"/>
<text text-anchor="middle" x="131" y="-643.5" font-family="Helvetica,sans-Serif" font-size="10.00">lua_newuserdata</text>
</a>
</g>
</g>
<!-- Node1&#45;&gt;Node155 -->
<g id="edge52" class="edge"><title>Node1&#45;&gt;Node155</title>
<path fill="none" stroke="midnightblue" d="M29.6024,-513.592C38.1039,-532.805 59.0364,-576.835 85,-608 91.7291,-616.077 100.311,-623.796 108.173,-630.141"/>
<polygon fill="midnightblue" stroke="midnightblue" points="106.251,-633.079 116.299,-636.439 110.539,-627.547 106.251,-633.079"/>
</g>
<!-- Node157 -->
<g id="node38" class="node"><title>Node157</title>
<g id="a_node38"><a xlink:href="lapi_8c.html#a142802b91cdd22516b54599f51e101e4" target="_top" xlink:title=" ">
<polygon fill="white" stroke="black" points="85,-579.5 85,-598.5 177,-598.5 177,-579.5 85,-579.5"/>
<text text-anchor="middle" x="131" y="-586.5" font-family="Helvetica,sans-Serif" font-size="10.00">lua_pushcclosure</text>
</a>
</g>
</g>
<!-- Node1&#45;&gt;Node157 -->
<g id="edge56" class="edge"><title>Node1&#45;&gt;Node157</title>
<path fill="none" stroke="midnightblue" d="M34.2374,-513.509C45.3876,-525.366 65.5666,-545.909 85,-561 90.8594,-565.55 97.4916,-570.011 103.829,-573.989"/>
<polygon fill="midnightblue" stroke="midnightblue" points="102.413,-577.224 112.777,-579.423 106.047,-571.241 102.413,-577.224"/>
</g>
<!-- Node159 -->
<g id="node40" class="node"><title>Node159</title>
<g id="a_node40"><a xlink:href="lapi_8c.html#adaa30f0d34786144c94644039d1d1b6e" target="_top" xlink:title=" ">
<polygon fill="white" stroke="black" points="100,-437.5 100,-456.5 162,-456.5 162,-437.5 100,-437.5"/>
<text text-anchor="middle" x="131" y="-444.5" font-family="Helvetica,sans-Serif" font-size="10.00">lua_settop</text>
</a>
</g>
</g>
<!-- Node1&#45;&gt;Node159 -->
<g id="edge59" class="edge"><title>Node1&#45;&gt;Node159</title>
<path fill="none" stroke="midnightblue" d="M39.2852,-494.25C51.0954,-486.13 68.726,-474.554 85,-466 88.5304,-464.144 92.2825,-462.329 96.0556,-460.602"/>
<polygon fill="midnightblue" stroke="midnightblue" points="97.6122,-463.742 105.364,-456.519 94.7999,-457.331 97.6122,-463.742"/>
</g>
<!-- Node160 -->
<g id="node41" class="node"><title>Node160</title>
<g id="a_node41"><a xlink:href="lauxlib_8c.html#a79405166c5a94624ebe0427e6b0c07e0" target="_top" xlink:title=" ">
<polygon fill="white" stroke="black" points="85,-532.5 85,-551.5 177,-551.5 177,-532.5 85,-532.5"/>
<text text-anchor="middle" x="131" y="-539.5" font-family="Helvetica,sans-Serif" font-size="10.00">luaL_checklstring</text>
</a>
</g>
</g>
<!-- Node1&#45;&gt;Node160 -->
<g id="edge60" class="edge"><title>Node1&#45;&gt;Node160</title>
<path fill="none" stroke="midnightblue" d="M49.2127,-512.623C62.5501,-517.473 79.4662,-523.624 94.3689,-529.043"/>
<polygon fill="midnightblue" stroke="midnightblue" points="93.2195,-532.349 103.814,-532.478 95.6117,-525.771 93.2195,-532.349"/>
</g>
<!-- Node182 -->
<g id="node50" class="node"><title>Node182</title>
<g id="a_node50"><a xlink:href="lstrlib_8c.html#a901e492edece737eb5d7197219fb0fa1" target="_top" xlink:title=" ">
<polygon fill="white" stroke="black" points="102.5,-399.5 102.5,-418.5 159.5,-418.5 159.5,-399.5 102.5,-399.5"/>
<text text-anchor="middle" x="131" y="-406.5" font-family="Helvetica,sans-Serif" font-size="10.00">prepstate</text>
</a>
</g>
</g>
<!-- Node1&#45;&gt;Node182 -->
<g id="edge74" class="edge"><title>Node1&#45;&gt;Node182</title>
<path fill="none" stroke="midnightblue" d="M30.8606,-494.308C40.0525,-478.477 60.2451,-446.938 85,-428 87.4795,-426.103 90.1764,-424.359 92.9769,-422.763"/>
<polygon fill="midnightblue" stroke="midnightblue" points="94.7704,-425.779 102.135,-418.162 91.6284,-419.523 94.7704,-425.779"/>
</g>
<!-- Node3 -->
<g id="node3" class="node"><title>Node3</title>
<g id="a_node3"><a xlink:href="lapi_8c.html#a0444ddf13e5618bca969e4b3b47bc0cc" target="_top" xlink:title=" ">
<polygon fill="white" stroke="black" points="221,-475.5 221,-494.5 301,-494.5 301,-475.5 221,-475.5"/>
<text text-anchor="middle" x="261" y="-482.5" font-family="Helvetica,sans-Serif" font-size="10.00">lua_touserdata</text>
</a>
</g>
</g>
<!-- Node2&#45;&gt;Node3 -->
<g id="edge2" class="edge"><title>Node2&#45;&gt;Node3</title>
<path fill="none" stroke="midnightblue" d="M166.302,-485C179.9,-485 195.796,-485 210.593,-485"/>
<polygon fill="midnightblue" stroke="midnightblue" points="210.62,-488.5 220.62,-485 210.62,-481.5 210.62,-488.5"/>
</g>
<!-- Node5 -->
<g id="node5" class="node"><title>Node5</title>
<g id="a_node5"><a xlink:href="lstrlib_8c.html#a52a45835b75e5d31ec66421456bbb728" target="_top" xlink:title=" ">
<polygon fill="white" stroke="black" points="239,-266.5 239,-285.5 283,-285.5 283,-266.5 239,-266.5"/>
<text text-anchor="middle" x="261" y="-273.5" font-family="Helvetica,sans-Serif" font-size="10.00">match</text>
</a>
</g>
</g>
<!-- Node2&#45;&gt;Node5 -->
<g id="edge4" class="edge"><title>Node2&#45;&gt;Node5</title>
<path fill="none" stroke="midnightblue" d="M163.453,-475.405C168.395,-472.909 173.139,-469.814 177,-466 226.435,-417.172 248.509,-333.953 256.378,-295.968"/>
<polygon fill="midnightblue" stroke="midnightblue" points="259.898,-296.206 258.379,-285.72 253.027,-294.865 259.898,-296.206"/>
</g>
<!-- Node144 -->
<g id="node28" class="node"><title>Node144</title>
<g id="a_node28"><a xlink:href="lstrlib_8c.html#ad14703c4bc40d7c1951dedb7bc7554f7" target="_top" xlink:title=" ">
<polygon fill="white" stroke="black" points="345.5,-38.5 345.5,-57.5 425.5,-57.5 425.5,-38.5 345.5,-38.5"/>
<text text-anchor="middle" x="385.5" y="-45.5" font-family="Helvetica,sans-Serif" font-size="10.00">push_captures</text>
</a>
</g>
</g>
<!-- Node2&#45;&gt;Node144 -->
<g id="edge42" class="edge"><title>Node2&#45;&gt;Node144</title>
<path fill="none" stroke="midnightblue" d="M165.629,-475.398C169.96,-472.935 173.942,-469.852 177,-466 235.601,-392.174 177.262,-344.219 213,-257 251.986,-161.854 266.754,-133.709 345,-67 346.741,-65.5158 348.618,-64.1182 350.574,-62.8073"/>
<polygon fill="midnightblue" stroke="midnightblue" points="352.61,-65.6719 359.491,-57.6154 349.088,-59.6225 352.61,-65.6719"/>
</g>
<!-- Node154 -->
<g id="node34" class="node"><title>Node154</title>
<g id="a_node34"><a xlink:href="lstrlib_8c.html#a09158e3beed6006b5dd7d5329f4474c9" target="_top" xlink:title=" ">
<polygon fill="white" stroke="black" points="228.5,-437.5 228.5,-456.5 293.5,-456.5 293.5,-437.5 228.5,-437.5"/>
<text text-anchor="middle" x="261" y="-444.5" font-family="Helvetica,sans-Serif" font-size="10.00">reprepstate</text>
</a>
</g>
</g>
<!-- Node2&#45;&gt;Node154 -->
<g id="edge51" class="edge"><title>Node2&#45;&gt;Node154</title>
<path fill="none" stroke="midnightblue" d="M164.3,-475.411C180.644,-470.559 200.678,-464.611 218.185,-459.414"/>
<polygon fill="midnightblue" stroke="midnightblue" points="219.564,-462.656 228.154,-456.454 217.571,-455.945 219.564,-462.656"/>
</g>
<!-- Node4 -->
<g id="node4" class="node"><title>Node4</title>
<g id="a_node4"><a xlink:href="lapi_8c.html#ae54b9bb381b32c86235a084984e40215" target="_top" xlink:title=" ">
<polygon fill="white" stroke="black" points="607.5,-494.5 607.5,-513.5 671.5,-513.5 671.5,-494.5 607.5,-494.5"/>
<text text-anchor="middle" x="639.5" y="-501.5" font-family="Helvetica,sans-Serif" font-size="10.00">index2addr</text>
</a>
</g>
</g>
<!-- Node3&#45;&gt;Node4 -->
<g id="edge3" class="edge"><title>Node3&#45;&gt;Node4</title>
<path fill="none" stroke="midnightblue" d="M301.353,-482.254C357.582,-478.953 464.063,-475.013 554,-485 568.291,-486.587 583.695,-489.639 597.388,-492.841"/>
<polygon fill="midnightblue" stroke="midnightblue" points="596.934,-496.333 607.478,-495.297 598.589,-489.531 596.934,-496.333"/>
</g>
<!-- Node6 -->
<g id="node6" class="node"><title>Node6</title>
<g id="a_node6"><a xlink:href="lstrlib_8c.html#a72b26c2a339f5e84ef087e961b547f95" target="_top" xlink:title=" ">
<polygon fill="white" stroke="black" points="480,-228.5 480,-247.5 536,-247.5 536,-228.5 480,-228.5"/>
<text text-anchor="middle" x="508" y="-235.5" font-family="Helvetica,sans-Serif" font-size="10.00">classend</text>
</a>
</g>
</g>
<!-- Node5&#45;&gt;Node6 -->
<g id="edge5" class="edge"><title>Node5&#45;&gt;Node6</title>
<path fill="none" stroke="midnightblue" d="M283.024,-270.524C299.727,-266.334 323.732,-260.67 345,-257 387.554,-249.656 436.895,-244.319 469.837,-241.205"/>
<polygon fill="midnightblue" stroke="midnightblue" points="470.292,-244.678 479.927,-240.272 469.647,-237.707 470.292,-244.678"/>
</g>
<!-- Node7 -->
<g id="node7" class="node"><title>Node7</title>
<g id="a_node7"><a xlink:href="lauxlib_8c.html#a6c51d83d29244779392551388913e08a" target="_top" xlink:title=" ">
<polygon fill="white" stroke="black" points="610,-190.5 610,-209.5 669,-209.5 669,-190.5 610,-190.5"/>
<text text-anchor="middle" x="639.5" y="-197.5" font-family="Helvetica,sans-Serif" font-size="10.00">luaL_error</text>
</a>
</g>
</g>
<!-- Node5&#45;&gt;Node7 -->
<g id="edge22" class="edge"><title>Node5&#45;&gt;Node7</title>
<path fill="none" stroke="midnightblue" d="M267.395,-266.184C283.743,-236.616 332.385,-149.997 345,-143 426.229,-97.9429 465.17,-115.84 554,-143 579.939,-150.931 605.11,-169.799 621.133,-183.664"/>
<polygon fill="midnightblue" stroke="midnightblue" points="618.847,-186.316 628.634,-190.374 623.514,-181.098 618.847,-186.316"/>
</g>
<!-- Node133 -->
<g id="node17" class="node"><title>Node133</title>
<g id="a_node17"><a xlink:href="lstrlib_8c.html#ab0ecc0f25602beb821f6a5e62517d18e" target="_top" xlink:title=" ">
<polygon fill="white" stroke="black" points="350.5,-152.5 350.5,-171.5 420.5,-171.5 420.5,-152.5 350.5,-152.5"/>
<text text-anchor="middle" x="385.5" y="-159.5" font-family="Helvetica,sans-Serif" font-size="10.00">end_capture</text>
</a>
</g>
</g>
<!-- Node5&#45;&gt;Node133 -->
<g id="edge18" class="edge"><title>Node5&#45;&gt;Node133</title>
<path fill="none" stroke="midnightblue" d="M265.682,-266.27C275.599,-246.877 304.385,-205.69 342.156,-174.745"/>
<polygon fill="midnightblue" stroke="midnightblue" points="344.648,-177.239 350.349,-168.309 340.323,-171.734 344.648,-177.239"/>
</g>
<!-- Node135 -->
<g id="node19" class="node"><title>Node135</title>
<g id="a_node19"><a xlink:href="lstrlib_8c.html#af71e61c103df8b6163925c900470ee37" target="_top" xlink:title=" ">
<polygon fill="white" stroke="black" points="345,-76.5 345,-95.5 426,-95.5 426,-76.5 345,-76.5"/>
<text text-anchor="middle" x="385.5" y="-83.5" font-family="Helvetica,sans-Serif" font-size="10.00">match_capture</text>
</a>
</g>
</g>
<!-- Node5&#45;&gt;Node135 -->
<g id="edge23" class="edge"><title>Node5&#45;&gt;Node135</title>
<path fill="none" stroke="midnightblue" d="M264.753,-266.278C272.929,-238.832 299.382,-159.538 345,-110 348.08,-106.656 351.731,-103.616 355.55,-100.91"/>
<polygon fill="midnightblue" stroke="midnightblue" points="357.456,-103.846 364.021,-95.531 353.703,-97.937 357.456,-103.846"/>
</g>
<!-- Node137 -->
<g id="node21" class="node"><title>Node137</title>
<g id="a_node21"><a xlink:href="lstrlib_8c.html#aacb8f9104a816720da707ecf5219a96e" target="_top" xlink:title=" ">
<polygon fill="white" stroke="black" points="347,-266.5 347,-285.5 424,-285.5 424,-266.5 347,-266.5"/>
<text text-anchor="middle" x="385.5" y="-273.5" font-family="Helvetica,sans-Serif" font-size="10.00">matchbalance</text>
</a>
</g>
</g>
<!-- Node5&#45;&gt;Node137 -->
<g id="edge26" class="edge"><title>Node5&#45;&gt;Node137</title>
<path fill="none" stroke="midnightblue" d="M283.059,-276C297.834,-276 318.198,-276 336.804,-276"/>
<polygon fill="midnightblue" stroke="midnightblue" points="336.913,-279.5 346.913,-276 336.913,-272.5 336.913,-279.5"/>
</g>
<!-- Node138 -->
<g id="node22" class="node"><title>Node138</title>
<g id="a_node22"><a xlink:href="lstrlib_8c.html#a14c5b9fff2918ecc568b9bcf1bfdb241" target="_top" xlink:title=" ">
<polygon fill="white" stroke="black" points="590,-342.5 590,-361.5 689,-361.5 689,-342.5 590,-342.5"/>
<text text-anchor="middle" x="639.5" y="-349.5" font-family="Helvetica,sans-Serif" font-size="10.00">matchbracketclass</text>
</a>
</g>
</g>
<!-- Node5&#45;&gt;Node138 -->
<g id="edge28" class="edge"><title>Node5&#45;&gt;Node138</title>
<path fill="none" stroke="midnightblue" d="M264.543,-285.749C271.872,-311.58 295.731,-381.671 345,-409 388.913,-433.358 534.103,-388.336 602.396,-364.895"/>
<polygon fill="midnightblue" stroke="midnightblue" points="603.591,-368.185 611.893,-361.604 601.298,-361.571 603.591,-368.185"/>
</g>
<!-- Node140 -->
<g id="node24" class="node"><title>Node140</title>
<g id="a_node24"><a xlink:href="lstrlib_8c.html#ad0b55e65b16045801315919fb67a4070" target="_top" xlink:title=" ">
<polygon fill="white" stroke="black" points="349.5,-380.5 349.5,-399.5 421.5,-399.5 421.5,-380.5 349.5,-380.5"/>
<text text-anchor="middle" x="385.5" y="-387.5" font-family="Helvetica,sans-Serif" font-size="10.00">max_expand</text>
</a>
</g>
</g>
<!-- Node5&#45;&gt;Node140 -->
<g id="edge30" class="edge"><title>Node5&#45;&gt;Node140</title>
<path fill="none" stroke="midnightblue" d="M272.758,-285.719C287.229,-303.328 314.675,-338.922 345,-362 351.744,-367.133 360.097,-371.396 367.381,-375.315"/>
<polygon fill="midnightblue" stroke="midnightblue" points="365.987,-378.551 376.402,-380.497 369.474,-372.481 365.987,-378.551"/>
</g>
<!-- Node141 -->
<g id="node25" class="node"><title>Node141</title>
<g id="a_node25"><a xlink:href="lstrlib_8c.html#a0fe170ffbc6b4ec3181d2db25ea4deb0" target="_top" xlink:title=" ">
<polygon fill="white" stroke="black" points="473.5,-304.5 473.5,-323.5 542.5,-323.5 542.5,-304.5 473.5,-304.5"/>
<text text-anchor="middle" x="508" y="-311.5" font-family="Helvetica,sans-Serif" font-size="10.00">singlematch</text>
</a>
</g>
</g>
<!-- Node5&#45;&gt;Node141 -->
<g id="edge38" class="edge"><title>Node5&#45;&gt;Node141</title>
<path fill="none" stroke="midnightblue" d="M283.024,-281.476C299.727,-285.666 323.732,-291.33 345,-295 384.785,-301.866 430.501,-306.977 463.203,-310.159"/>
<polygon fill="midnightblue" stroke="midnightblue" points="463.052,-313.66 473.339,-311.124 463.716,-306.692 463.052,-313.66"/>
</g>
<!-- Node142 -->
<g id="node26" class="node"><title>Node142</title>
<g id="a_node26"><a xlink:href="lstrlib_8c.html#a3b42ede2ccaf027b891a6a4f1cdf3902" target="_top" xlink:title=" ">
<polygon fill="white" stroke="black" points="351,-342.5 351,-361.5 420,-361.5 420,-342.5 351,-342.5"/>
<text text-anchor="middle" x="385.5" y="-349.5" font-family="Helvetica,sans-Serif" font-size="10.00">min_expand</text>
</a>
</g>
</g>
<!-- Node5&#45;&gt;Node142 -->
<g id="edge35" class="edge"><title>Node5&#45;&gt;Node142</title>
<path fill="none" stroke="midnightblue" d="M283.101,-282.001C299.847,-290.884 323.872,-305.964 345,-319 353.54,-324.27 363.163,-330.118 370.773,-335.772"/>
<polygon fill="midnightblue" stroke="midnightblue" points="368.668,-338.573 378.596,-342.273 373.142,-333.19 368.668,-338.573"/>
</g>
<!-- Node143 -->
<g id="node27" class="node"><title>Node143</title>
<g id="a_node27"><a xlink:href="lstrlib_8c.html#a31cf026bdaa00bf9c72a1e4f72319147" target="_top" xlink:title=" ">
<polygon fill="white" stroke="black" points="348.5,-190.5 348.5,-209.5 422.5,-209.5 422.5,-190.5 348.5,-190.5"/>
<text text-anchor="middle" x="385.5" y="-197.5" font-family="Helvetica,sans-Serif" font-size="10.00">start_capture</text>
</a>
</g>
</g>
<!-- Node5&#45;&gt;Node143 -->
<g id="edge39" class="edge"><title>Node5&#45;&gt;Node143</title>
<path fill="none" stroke="midnightblue" d="M269.307,-266.292C283.736,-253.253 316.926,-232.322 345,-215 345.09,-214.945 345.179,-214.889 345.269,-214.834"/>
<polygon fill="midnightblue" stroke="midnightblue" points="347.135,-217.796 353.853,-209.604 343.493,-211.818 347.135,-217.796"/>
</g>
<!-- Node6&#45;&gt;Node7 -->
<g id="edge6" class="edge"><title>Node6&#45;&gt;Node7</title>
<path fill="none" stroke="midnightblue" d="M536.147,-230.034C554.631,-224.61 579.371,-217.35 599.898,-211.327"/>
<polygon fill="midnightblue" stroke="midnightblue" points="600.98,-214.657 609.59,-208.483 599.009,-207.941 600.98,-214.657"/>
</g>
<!-- Node8 -->
<g id="node8" class="node"><title>Node8</title>
<g id="a_node8"><a xlink:href="lapi_8c.html#a1de3afee1daece63d455f23818c883d9" target="_top" xlink:title=" ">
<polygon fill="white" stroke="black" points="736,-195.5 736,-214.5 800,-214.5 800,-195.5 736,-195.5"/>
<text text-anchor="middle" x="768" y="-202.5" font-family="Helvetica,sans-Serif" font-size="10.00">lua_concat</text>
</a>
</g>
</g>
<!-- Node7&#45;&gt;Node8 -->
<g id="edge7" class="edge"><title>Node7&#45;&gt;Node8</title>
<path fill="none" stroke="midnightblue" d="M669.205,-201.135C685.857,-201.793 707.117,-202.633 725.559,-203.362"/>
<polygon fill="midnightblue" stroke="midnightblue" points="725.62,-206.867 735.751,-203.765 725.897,-199.873 725.62,-206.867"/>
</g>
<!-- Node121 -->
<g id="node13" class="node"><title>Node121</title>
<g id="a_node13"><a xlink:href="lapi_8c.html#a6ba7b91143fe8a03910420d800de8e97" target="_top" xlink:title=" ">
<polygon fill="white" stroke="red" points="741,-157.5 741,-176.5 795,-176.5 795,-157.5 741,-157.5"/>
<text text-anchor="middle" x="768" y="-164.5" font-family="Helvetica,sans-Serif" font-size="10.00">lua_error</text>
</a>
</g>
</g>
<!-- Node7&#45;&gt;Node121 -->
<g id="edge14" class="edge"><title>Node7&#45;&gt;Node121</title>
<path fill="none" stroke="midnightblue" d="M669.205,-192.512C687.579,-187.718 711.564,-181.461 731.182,-176.344"/>
<polygon fill="midnightblue" stroke="midnightblue" points="732.198,-179.696 740.99,-173.785 730.431,-172.923 732.198,-179.696"/>
</g>
<!-- Node122 -->
<g id="node14" class="node"><title>Node122</title>
<g id="a_node14"><a xlink:href="lapi_8c.html#a426c9cb1d582be3e43060c4772854e5a" target="_top" xlink:title=" ">
<polygon fill="white" stroke="red" points="725,-233.5 725,-252.5 811,-252.5 811,-233.5 725,-233.5"/>
<text text-anchor="middle" x="768" y="-240.5" font-family="Helvetica,sans-Serif" font-size="10.00">lua_pushvfstring</text>
</a>
</g>
</g>
<!-- Node7&#45;&gt;Node122 -->
<g id="edge15" class="edge"><title>Node7&#45;&gt;Node122</title>
<path fill="none" stroke="midnightblue" d="M668.574,-209.543C686.508,-215.639 709.973,-223.615 729.494,-230.251"/>
<polygon fill="midnightblue" stroke="midnightblue" points="728.41,-233.579 739.004,-233.484 730.663,-226.951 728.41,-233.579"/>
</g>
<!-- Node123 -->
<g id="node15" class="node"><title>Node123</title>
<g id="a_node15"><a xlink:href="lauxlib_8c.html#a0f4d3c30c07eae36aa25605df84279a0" target="_top" xlink:title=" ">
<polygon fill="white" stroke="red" points="735.5,-280.5 735.5,-299.5 800.5,-299.5 800.5,-280.5 735.5,-280.5"/>
<text text-anchor="middle" x="768" y="-287.5" font-family="Helvetica,sans-Serif" font-size="10.00">luaL_where</text>
</a>
</g>
</g>
<!-- Node7&#45;&gt;Node123 -->
<g id="edge16" class="edge"><title>Node7&#45;&gt;Node123</title>
<path fill="none" stroke="midnightblue" d="M653.254,-209.635C669.686,-221.984 699.208,-243.954 725,-262 730.982,-266.186 737.519,-270.612 743.616,-274.68"/>
<polygon fill="midnightblue" stroke="midnightblue" points="741.848,-277.707 752.118,-280.313 745.714,-271.872 741.848,-277.707"/>
</g>
<!-- Node9 -->
<g id="node9" class="node"><title>Node9</title>
<g id="a_node9"><a xlink:href="lstring_8c.html#ab41fb084ce3ea5e2779f6659ccc2484d" target="_top" xlink:title=" ">
<polygon fill="white" stroke="red" points="965,-252.5 965,-271.5 1037,-271.5 1037,-252.5 965,-252.5"/>
<text text-anchor="middle" x="1001" y="-259.5" font-family="Helvetica,sans-Serif" font-size="10.00">luaS_newlstr</text>
</a>
</g>
</g>
<!-- Node8&#45;&gt;Node9 -->
<g id="edge8" class="edge"><title>Node8&#45;&gt;Node9</title>
<path fill="none" stroke="midnightblue" d="M794.303,-214.533C800.029,-217.202 805.914,-220.38 811,-224 829.953,-237.491 825.629,-252.808 847,-262 880.871,-276.569 922.993,-275.339 954.461,-271.159"/>
<polygon fill="midnightblue" stroke="midnightblue" points="955.315,-274.571 964.696,-269.647 954.292,-267.646 955.315,-274.571"/>
</g>
<!-- Node26 -->
<g id="node12" class="node"><title>Node26</title>
<g id="a_node12"><a xlink:href="lvm_8c.html#a2f076040af405dcb50d661edd692eca7" target="_top" xlink:title=" ">
<polygon fill="white" stroke="red" points="852.5,-195.5 852.5,-214.5 923.5,-214.5 923.5,-195.5 852.5,-195.5"/>
<text text-anchor="middle" x="888" y="-202.5" font-family="Helvetica,sans-Serif" font-size="10.00">luaV_concat</text>
</a>
</g>
</g>
<!-- Node8&#45;&gt;Node26 -->
<g id="edge11" class="edge"><title>Node8&#45;&gt;Node26</title>
<path fill="none" stroke="midnightblue" d="M800.003,-205C812.971,-205 828.287,-205 842.426,-205"/>
<polygon fill="midnightblue" stroke="midnightblue" points="842.463,-208.5 852.463,-205 842.463,-201.5 842.463,-208.5"/>
</g>
<!-- Node15 -->
<g id="node10" class="node"><title>Node15</title>
<g id="a_node10"><a xlink:href="lmem_8c.html#a8fc7df43dd830ccbe7581fd53f65bdbe" target="_top" xlink:title=" ">
<polygon fill="white" stroke="black" points="1073,-252.5 1073,-271.5 1142,-271.5 1142,-252.5 1073,-252.5"/>
<text text-anchor="middle" x="1107.5" y="-259.5" font-family="Helvetica,sans-Serif" font-size="10.00">luaM_toobig</text>
</a>
</g>
</g>
<!-- Node9&#45;&gt;Node15 -->
<g id="edge9" class="edge"><title>Node9&#45;&gt;Node15</title>
<path fill="none" stroke="midnightblue" d="M1037.09,-262C1045.27,-262 1054.07,-262 1062.58,-262"/>
<polygon fill="midnightblue" stroke="midnightblue" points="1062.74,-265.5 1072.74,-262 1062.74,-258.5 1062.74,-265.5"/>
</g>
<!-- Node16 -->
<g id="node11" class="node"><title>Node16</title>
<g id="a_node11"><a xlink:href="ldebug_8c.html#a88d38ca5da2e7a1492fc9d5ad70c32c5" target="_top" xlink:title=" ">
<polygon fill="white" stroke="red" points="1178,-233.5 1178,-252.5 1253,-252.5 1253,-233.5 1178,-233.5"/>
<text text-anchor="middle" x="1215.5" y="-240.5" font-family="Helvetica,sans-Serif" font-size="10.00">luaG_runerror</text>
</a>
</g>
</g>
<!-- Node15&#45;&gt;Node16 -->
<g id="edge10" class="edge"><title>Node15&#45;&gt;Node16</title>
<path fill="none" stroke="midnightblue" d="M1142.04,-255.988C1150.23,-254.519 1159.15,-252.921 1167.84,-251.364"/>
<polygon fill="midnightblue" stroke="midnightblue" points="1168.65,-254.775 1177.87,-249.565 1167.41,-247.885 1168.65,-254.775"/>
</g>
<!-- Node26&#45;&gt;Node9 -->
<g id="edge13" class="edge"><title>Node26&#45;&gt;Node9</title>
<path fill="none" stroke="midnightblue" d="M909.853,-214.673C916.045,-217.608 922.823,-220.882 929,-224 943.864,-231.503 960.264,-240.249 973.554,-247.457"/>
<polygon fill="midnightblue" stroke="midnightblue" points="972.16,-250.683 982.615,-252.395 975.509,-244.537 972.16,-250.683"/>
</g>
<!-- Node26&#45;&gt;Node16 -->
<g id="edge12" class="edge"><title>Node26&#45;&gt;Node16</title>
<path fill="none" stroke="midnightblue" d="M923.526,-209.031C982.232,-215.884 1101.56,-229.815 1167.71,-237.537"/>
<polygon fill="midnightblue" stroke="midnightblue" points="1167.51,-241.038 1177.85,-238.721 1168.32,-234.085 1167.51,-241.038"/>
</g>
<!-- Node132 -->
<g id="node16" class="node"><title>Node132</title>
<g id="a_node16"><a xlink:href="lapi_8c.html#ab190c226d38b289e6ca57683a9d4e0f0" target="_top" xlink:title=" ">
<polygon fill="white" stroke="red" points="847,-364.5 847,-383.5 929,-383.5 929,-364.5 847,-364.5"/>
<text text-anchor="middle" x="888" y="-371.5" font-family="Helvetica,sans-Serif" font-size="10.00">lua_pushfstring</text>
</a>
</g>
</g>
<!-- Node123&#45;&gt;Node132 -->
<g id="edge17" class="edge"><title>Node123&#45;&gt;Node132</title>
<path fill="none" stroke="midnightblue" d="M782.536,-299.636C802.808,-314.067 841.25,-341.433 865.422,-358.639"/>
<polygon fill="midnightblue" stroke="midnightblue" points="863.445,-361.528 873.622,-364.477 867.505,-355.826 863.445,-361.528"/>
</g>
<!-- Node133&#45;&gt;Node5 -->
<g id="edge21" class="edge"><title>Node133&#45;&gt;Node5</title>
<path fill="none" stroke="midnightblue" d="M376.402,-171.503C368.022,-176.909 354.81,-182.534 345,-190 318.703,-210.013 294.57,-239.438 279.187,-258.385"/>
<polygon fill="midnightblue" stroke="midnightblue" points="276.357,-256.316 272.758,-266.281 281.786,-260.736 276.357,-256.316"/>
</g>
<!-- Node134 -->
<g id="node18" class="node"><title>Node134</title>
<g id="a_node18"><a xlink:href="lstrlib_8c.html#a5e8b364a8f8d4300aa5007c0feb42abf" target="_top" xlink:title=" ">
<polygon fill="white" stroke="black" points="462.5,-152.5 462.5,-171.5 553.5,-171.5 553.5,-152.5 462.5,-152.5"/>
<text text-anchor="middle" x="508" y="-159.5" font-family="Helvetica,sans-Serif" font-size="10.00">capture_to_close</text>
</a>
</g>
</g>
<!-- Node133&#45;&gt;Node134 -->
<g id="edge19" class="edge"><title>Node133&#45;&gt;Node134</title>
<path fill="none" stroke="midnightblue" d="M420.708,-162C430.516,-162 441.463,-162 452.18,-162"/>
<polygon fill="midnightblue" stroke="midnightblue" points="452.339,-165.5 462.339,-162 452.339,-158.5 452.339,-165.5"/>
</g>
<!-- Node134&#45;&gt;Node7 -->
<g id="edge20" class="edge"><title>Node134&#45;&gt;Node7</title>
<path fill="none" stroke="midnightblue" d="M541.678,-171.589C559.462,-176.807 581.564,-183.293 600.159,-188.749"/>
<polygon fill="midnightblue" stroke="midnightblue" points="599.219,-192.121 609.8,-191.578 601.19,-185.404 599.219,-192.121"/>
</g>
<!-- Node136 -->
<g id="node20" class="node"><title>Node136</title>
<g id="a_node20"><a xlink:href="lstrlib_8c.html#aa8c1a193fa762ecfe81888d86981a586" target="_top" xlink:title=" ">
<polygon fill="white" stroke="black" points="468,-76.5 468,-95.5 548,-95.5 548,-76.5 468,-76.5"/>
<text text-anchor="middle" x="508" y="-83.5" font-family="Helvetica,sans-Serif" font-size="10.00">check_capture</text>
</a>
</g>
</g>
<!-- Node135&#45;&gt;Node136 -->
<g id="edge24" class="edge"><title>Node135&#45;&gt;Node136</title>
<path fill="none" stroke="midnightblue" d="M426.29,-86C436.265,-86 447.088,-86 457.472,-86"/>
<polygon fill="midnightblue" stroke="midnightblue" points="457.662,-89.5001 467.662,-86 457.662,-82.5001 457.662,-89.5001"/>
</g>
<!-- Node136&#45;&gt;Node7 -->
<g id="edge25" class="edge"><title>Node136&#45;&gt;Node7</title>
<path fill="none" stroke="midnightblue" d="M530.476,-95.6456C538.229,-99.5845 546.829,-104.51 554,-110 582.187,-131.581 609.272,-162.911 624.882,-182.341"/>
<polygon fill="midnightblue" stroke="midnightblue" points="622.265,-184.674 631.21,-190.353 627.759,-180.336 622.265,-184.674"/>
</g>
<!-- Node137&#45;&gt;Node7 -->
<g id="edge27" class="edge"><title>Node137&#45;&gt;Node7</title>
<path fill="none" stroke="midnightblue" d="M424.269,-276.788C459.011,-276.346 511.437,-272.691 554,-257 578.936,-247.807 603.697,-229.782 619.906,-216.452"/>
<polygon fill="midnightblue" stroke="midnightblue" points="622.609,-218.75 627.978,-209.616 618.085,-213.408 622.609,-218.75"/>
</g>
<!-- Node139 -->
<g id="node23" class="node"><title>Node139</title>
<g id="a_node23"><a xlink:href="lstrlib_8c.html#a46c1d8d4310cb940caa503ef10a0decf" target="_top" xlink:title=" ">
<polygon fill="white" stroke="black" points="732,-337.5 732,-356.5 804,-356.5 804,-337.5 732,-337.5"/>
<text text-anchor="middle" x="768" y="-344.5" font-family="Helvetica,sans-Serif" font-size="10.00">match_class</text>
</a>
</g>
</g>
<!-- Node138&#45;&gt;Node139 -->
<g id="edge29" class="edge"><title>Node138&#45;&gt;Node139</title>
<path fill="none" stroke="midnightblue" d="M689.046,-350.081C699.707,-349.66 710.957,-349.215 721.493,-348.799"/>
<polygon fill="midnightblue" stroke="midnightblue" points="721.888,-352.286 731.742,-348.394 721.611,-345.291 721.888,-352.286"/>
</g>
<!-- Node140&#45;&gt;Node5 -->
<g id="edge31" class="edge"><title>Node140&#45;&gt;Node5</title>
<path fill="none" stroke="midnightblue" d="M349.164,-382.932C347.727,-381.994 346.332,-381.014 345,-380 313.128,-355.744 284.437,-317.664 270.646,-294.608"/>
<polygon fill="midnightblue" stroke="midnightblue" points="273.618,-292.75 265.682,-285.73 267.508,-296.167 273.618,-292.75"/>
</g>
<!-- Node140&#45;&gt;Node141 -->
<g id="edge32" class="edge"><title>Node140&#45;&gt;Node141</title>
<path fill="none" stroke="midnightblue" d="M409.865,-380.495C415.381,-377.79 421.082,-374.588 426,-371 444.793,-357.287 442.878,-346.25 462,-333 464.566,-331.222 467.325,-329.562 470.167,-328.024"/>
<polygon fill="midnightblue" stroke="midnightblue" points="471.943,-331.052 479.4,-323.526 468.878,-324.759 471.943,-331.052"/>
</g>
<!-- Node141&#45;&gt;Node138 -->
<g id="edge34" class="edge"><title>Node141&#45;&gt;Node138</title>
<path fill="none" stroke="midnightblue" d="M541.678,-323.589C558.089,-328.404 578.176,-334.299 595.792,-339.468"/>
<polygon fill="midnightblue" stroke="midnightblue" points="595.251,-342.957 605.832,-342.414 597.222,-336.24 595.251,-342.957"/>
</g>
<!-- Node141&#45;&gt;Node139 -->
<g id="edge33" class="edge"><title>Node141&#45;&gt;Node139</title>
<path fill="none" stroke="midnightblue" d="M542.596,-316.814C578.82,-320.018 638.135,-325.76 689,-333 699.632,-334.513 711.031,-336.405 721.742,-338.304"/>
<polygon fill="midnightblue" stroke="midnightblue" points="721.29,-341.779 731.753,-340.115 722.536,-334.891 721.29,-341.779"/>
</g>
<!-- Node142&#45;&gt;Node5 -->
<g id="edge36" class="edge"><title>Node142&#45;&gt;Node5</title>
<path fill="none" stroke="midnightblue" d="M353.853,-342.396C350.858,-340.605 347.868,-338.77 345,-337 321.312,-322.385 293.983,-305.2 277.354,-292.354"/>
<polygon fill="midnightblue" stroke="midnightblue" points="279.246,-289.378 269.307,-285.708 274.788,-294.775 279.246,-289.378"/>
</g>
<!-- Node142&#45;&gt;Node141 -->
<g id="edge37" class="edge"><title>Node142&#45;&gt;Node141</title>
<path fill="none" stroke="midnightblue" d="M416.907,-342.411C432.035,-337.641 450.52,-331.811 466.8,-326.677"/>
<polygon fill="midnightblue" stroke="midnightblue" points="468.118,-329.931 476.602,-323.586 466.013,-323.256 468.118,-329.931"/>
</g>
<!-- Node143&#45;&gt;Node5 -->
<g id="edge41" class="edge"><title>Node143&#45;&gt;Node5</title>
<path fill="none" stroke="midnightblue" d="M378.596,-209.727C370.86,-217.216 356.882,-225.668 345,-233 327.338,-243.897 307.652,-256.223 291.886,-265.163"/>
<polygon fill="midnightblue" stroke="midnightblue" points="290.174,-262.111 283.101,-269.999 293.549,-268.243 290.174,-262.111"/>
</g>
<!-- Node143&#45;&gt;Node7 -->
<g id="edge40" class="edge"><title>Node143&#45;&gt;Node7</title>
<path fill="none" stroke="midnightblue" d="M422.605,-200C469.645,-200 551.563,-200 599.831,-200"/>
<polygon fill="midnightblue" stroke="midnightblue" points="599.886,-203.5 609.886,-200 599.886,-196.5 599.886,-203.5"/>
</g>
<!-- Node145 -->
<g id="node29" class="node"><title>Node145</title>
<g id="a_node29"><a xlink:href="lauxlib_8c.html#a7c46517055e0e8cb25e61b959709083a" target="_top" xlink:title=" ">
<polygon fill="white" stroke="black" points="463,-0.5 463,-19.5 553,-19.5 553,-0.5 463,-0.5"/>
<text text-anchor="middle" x="508" y="-7.5" font-family="Helvetica,sans-Serif" font-size="10.00">luaL_checkstack</text>
</a>
</g>
</g>
<!-- Node144&#45;&gt;Node145 -->
<g id="edge43" class="edge"><title>Node144&#45;&gt;Node145</title>
<path fill="none" stroke="midnightblue" d="M416.907,-38.411C432.035,-33.6406 450.52,-27.8112 466.8,-22.6771"/>
<polygon fill="midnightblue" stroke="midnightblue" points="468.118,-25.9315 476.602,-19.5859 466.013,-19.2556 468.118,-25.9315"/>
</g>
<!-- Node151 -->
<g id="node31" class="node"><title>Node151</title>
<g id="a_node31"><a xlink:href="lstrlib_8c.html#a24a14b4e6e90bac4610dd334bb0b51b6" target="_top" xlink:title=" ">
<polygon fill="white" stroke="black" points="462.5,-38.5 462.5,-57.5 553.5,-57.5 553.5,-38.5 462.5,-38.5"/>
<text text-anchor="middle" x="508" y="-45.5" font-family="Helvetica,sans-Serif" font-size="10.00">push_onecapture</text>
</a>
</g>
</g>
<!-- Node144&#45;&gt;Node151 -->
<g id="edge46" class="edge"><title>Node144&#45;&gt;Node151</title>
<path fill="none" stroke="midnightblue" d="M425.623,-48C434.111,-48 443.24,-48 452.206,-48"/>
<polygon fill="midnightblue" stroke="midnightblue" points="452.217,-51.5001 462.217,-48 452.217,-44.5001 452.217,-51.5001"/>
</g>
<!-- Node145&#45;&gt;Node7 -->
<g id="edge45" class="edge"><title>Node145&#45;&gt;Node7</title>
<path fill="none" stroke="midnightblue" d="M539.838,-19.5196C544.962,-22.0396 549.926,-25.1617 554,-29 599.887,-72.2371 624.259,-145.746 633.737,-180.584"/>
<polygon fill="midnightblue" stroke="midnightblue" points="630.397,-181.649 636.299,-190.448 637.172,-179.889 630.397,-181.649"/>
</g>
<!-- Node146 -->
<g id="node30" class="node"><title>Node146</title>
<g id="a_node30"><a xlink:href="lapi_8c.html#a1d762b92d5d82d6fa9f54ccf5c89d6a2" target="_top" xlink:title=" ">
<polygon fill="white" stroke="red" points="597,-0.5 597,-19.5 682,-19.5 682,-0.5 597,-0.5"/>
<text text-anchor="middle" x="639.5" y="-7.5" font-family="Helvetica,sans-Serif" font-size="10.00">lua_checkstack</text>
</a>
</g>
</g>
<!-- Node145&#45;&gt;Node146 -->
<g id="edge44" class="edge"><title>Node145&#45;&gt;Node146</title>
<path fill="none" stroke="midnightblue" d="M553.204,-10C563.865,-10 575.355,-10 586.342,-10"/>
<polygon fill="midnightblue" stroke="midnightblue" points="586.679,-13.5001 596.679,-10 586.679,-6.5001 586.679,-13.5001"/>
</g>
<!-- Node151&#45;&gt;Node7 -->
<g id="edge50" class="edge"><title>Node151&#45;&gt;Node7</title>
<path fill="none" stroke="midnightblue" d="M539.039,-57.6646C544.359,-60.1891 549.597,-63.2755 554,-67 591.946,-99.1016 618.593,-152.629 630.865,-181"/>
<polygon fill="midnightblue" stroke="midnightblue" points="627.639,-182.357 634.731,-190.228 634.095,-179.652 627.639,-182.357"/>
</g>
<!-- Node152 -->
<g id="node32" class="node"><title>Node152</title>
<g id="a_node32"><a xlink:href="lapi_8c.html#adcec46ff05dfee9a3c4c05828b40c213" target="_top" xlink:title=" ">
<polygon fill="white" stroke="black" points="597,-38.5 597,-57.5 682,-57.5 682,-38.5 597,-38.5"/>
<text text-anchor="middle" x="639.5" y="-45.5" font-family="Helvetica,sans-Serif" font-size="10.00">lua_pushinteger</text>
</a>
</g>
</g>
<!-- Node151&#45;&gt;Node152 -->
<g id="edge47" class="edge"><title>Node151&#45;&gt;Node152</title>
<path fill="none" stroke="midnightblue" d="M553.567,-48C564.212,-48 575.666,-48 586.609,-48"/>
<polygon fill="midnightblue" stroke="midnightblue" points="586.902,-51.5001 596.902,-48 586.902,-44.5001 586.902,-51.5001"/>
</g>
<!-- Node153 -->
<g id="node33" class="node"><title>Node153</title>
<g id="a_node33"><a xlink:href="lapi_8c.html#a2c325311534c23450cdf11931a8db0ae" target="_top" xlink:title=" ">
<polygon fill="white" stroke="red" points="847,-233.5 847,-252.5 929,-252.5 929,-233.5 847,-233.5"/>
<text text-anchor="middle" x="888" y="-240.5" font-family="Helvetica,sans-Serif" font-size="10.00">lua_pushlstring</text>
</a>
</g>
</g>
<!-- Node151&#45;&gt;Node153 -->
<g id="edge48" class="edge"><title>Node151&#45;&gt;Node153</title>
<path fill="none" stroke="midnightblue" d="M550.743,-57.5135C623.991,-74.8929 771.644,-113.196 811,-148 838.998,-172.76 820.586,-197.557 847,-224 848.386,-225.387 849.892,-226.686 851.481,-227.901"/>
<polygon fill="midnightblue" stroke="midnightblue" points="849.631,-230.872 859.945,-233.294 853.392,-224.969 849.631,-230.872"/>
</g>
<!-- Node153&#45;&gt;Node9 -->
<g id="edge49" class="edge"><title>Node153&#45;&gt;Node9</title>
<path fill="none" stroke="midnightblue" d="M929.074,-249.859C937.373,-251.28 946.173,-252.786 954.647,-254.237"/>
<polygon fill="midnightblue" stroke="midnightblue" points="954.317,-257.731 964.765,-255.969 955.498,-250.832 954.317,-257.731"/>
</g>
<!-- Node156 -->
<g id="node36" class="node"><title>Node156</title>
<g id="a_node36"><a xlink:href="lstring_8c.html#a91255fe58c6be556cba13f83bf2850cb" target="_top" xlink:title=" ">
<polygon fill="white" stroke="black" points="219.5,-646.5 219.5,-665.5 302.5,-665.5 302.5,-646.5 219.5,-646.5"/>
<text text-anchor="middle" x="261" y="-653.5" font-family="Helvetica,sans-Serif" font-size="10.00">luaS_newudata</text>
</a>
</g>
</g>
<!-- Node155&#45;&gt;Node156 -->
<g id="edge53" class="edge"><title>Node155&#45;&gt;Node156</title>
<path fill="none" stroke="midnightblue" d="M175.692,-649.413C186.34,-650.245 197.824,-651.142 208.786,-651.999"/>
<polygon fill="midnightblue" stroke="midnightblue" points="208.849,-655.514 219.092,-652.804 209.395,-648.536 208.849,-655.514"/>
</g>
<!-- Node156&#45;&gt;Node15 -->
<g id="edge55" class="edge"><title>Node156&#45;&gt;Node15</title>
<path fill="none" stroke="midnightblue" d="M302.749,-656C351.369,-656 435.116,-656 507,-656 507,-656 507,-656 889,-656 1061.77,-656 1098.35,-362.037 1105.11,-281.944"/>
<polygon fill="midnightblue" stroke="midnightblue" points="1108.62,-281.981 1105.9,-271.739 1101.64,-281.438 1108.62,-281.981"/>
</g>
<!-- Node12 -->
<g id="node37" class="node"><title>Node12</title>
<g id="a_node37"><a xlink:href="lgc_8c.html#abfc8404c5fbd2a1770202fa0b087d451" target="_top" xlink:title=" ">
<polygon fill="white" stroke="black" points="350,-608.5 350,-627.5 421,-627.5 421,-608.5 350,-608.5"/>
<text text-anchor="middle" x="385.5" y="-615.5" font-family="Helvetica,sans-Serif" font-size="10.00">luaC_newobj</text>
</a>
</g>
</g>
<!-- Node156&#45;&gt;Node12 -->
<g id="edge54" class="edge"><title>Node156&#45;&gt;Node12</title>
<path fill="none" stroke="midnightblue" d="M292.912,-646.411C308.29,-641.641 327.082,-635.811 343.633,-630.677"/>
<polygon fill="midnightblue" stroke="midnightblue" points="345.084,-633.892 353.598,-627.586 343.01,-627.206 345.084,-633.892"/>
</g>
<!-- Node158 -->
<g id="node39" class="node"><title>Node158</title>
<g id="a_node39"><a xlink:href="lfunc_8c.html#a1f3c8568e17e64660d1765868dc16720" target="_top" xlink:title=" ">
<polygon fill="white" stroke="black" points="213,-608.5 213,-627.5 309,-627.5 309,-608.5 213,-608.5"/>
<text text-anchor="middle" x="261" y="-615.5" font-family="Helvetica,sans-Serif" font-size="10.00">luaF_newCclosure</text>
</a>
</g>
</g>
<!-- Node157&#45;&gt;Node158 -->
<g id="edge57" class="edge"><title>Node157&#45;&gt;Node158</title>
<path fill="none" stroke="midnightblue" d="M174.267,-598.576C184.971,-601.001 196.596,-603.635 207.731,-606.158"/>
<polygon fill="midnightblue" stroke="midnightblue" points="207.251,-609.638 217.778,-608.434 208.798,-602.811 207.251,-609.638"/>
</g>
<!-- Node158&#45;&gt;Node12 -->
<g id="edge58" class="edge"><title>Node158&#45;&gt;Node12</title>
<path fill="none" stroke="midnightblue" d="M309.011,-618C319.127,-618 329.791,-618 339.815,-618"/>
<polygon fill="midnightblue" stroke="midnightblue" points="339.98,-621.5 349.98,-618 339.979,-614.5 339.98,-621.5"/>
</g>
<!-- Node161 -->
<g id="node42" class="node"><title>Node161</title>
<g id="a_node42"><a xlink:href="lapi_8c.html#a3fc7dbcac3f2610f3d687ec15343bd3f" target="_top" xlink:title=" ">
<polygon fill="white" stroke="black" points="473.5,-570.5 473.5,-589.5 542.5,-589.5 542.5,-570.5 473.5,-570.5"/>
<text text-anchor="middle" x="508" y="-577.5" font-family="Helvetica,sans-Serif" font-size="10.00">lua_tolstring</text>
</a>
</g>
</g>
<!-- Node160&#45;&gt;Node161 -->
<g id="edge61" class="edge"><title>Node160&#45;&gt;Node161</title>
<path fill="none" stroke="midnightblue" d="M177.073,-542.596C234.981,-543.892 338.474,-547.998 426,-561 438.278,-562.824 451.441,-565.564 463.511,-568.401"/>
<polygon fill="midnightblue" stroke="midnightblue" points="462.805,-571.831 473.349,-570.787 464.456,-565.028 462.805,-571.831"/>
</g>
<!-- Node162 -->
<g id="node44" class="node"><title>Node162</title>
<g id="a_node44"><a xlink:href="lauxlib_8c.html#ab8e946260debec8d4bbc714b76a1613b" target="_top" xlink:title=" ">
<polygon fill="white" stroke="black" points="233.5,-570.5 233.5,-589.5 288.5,-589.5 288.5,-570.5 233.5,-570.5"/>
<text text-anchor="middle" x="261" y="-577.5" font-family="Helvetica,sans-Serif" font-size="10.00">tag_error</text>
</a>
</g>
</g>
<!-- Node160&#45;&gt;Node162 -->
<g id="edge65" class="edge"><title>Node160&#45;&gt;Node162</title>
<path fill="none" stroke="midnightblue" d="M164.3,-551.589C182.38,-556.957 204.975,-563.665 223.67,-569.215"/>
<polygon fill="midnightblue" stroke="midnightblue" points="222.74,-572.589 233.323,-572.08 224.732,-565.879 222.74,-572.589"/>
</g>
<!-- Node161&#45;&gt;Node4 -->
<g id="edge62" class="edge"><title>Node161&#45;&gt;Node4</title>
<path fill="none" stroke="midnightblue" d="M534.162,-570.39C540.739,-567.605 547.737,-564.393 554,-561 576.58,-548.767 600.715,-532.086 617.385,-519.931"/>
<polygon fill="midnightblue" stroke="midnightblue" points="619.856,-522.457 625.821,-513.701 615.698,-516.826 619.856,-522.457"/>
</g>
<!-- Node24 -->
<g id="node43" class="node"><title>Node24</title>
<g id="a_node43"><a xlink:href="lobject_8c.html#a00c5c37438b02ff7efcf8e8dfa98da7c" target="_top" xlink:title=" ">
<polygon fill="white" stroke="black" points="851,-494.5 851,-513.5 925,-513.5 925,-494.5 851,-494.5"/>
<text text-anchor="middle" x="888" y="-501.5" font-family="Helvetica,sans-Serif" font-size="10.00">luaO_tostring</text>
</a>
</g>
</g>
<!-- Node161&#45;&gt;Node24 -->
<g id="edge63" class="edge"><title>Node161&#45;&gt;Node24</title>
<path fill="none" stroke="midnightblue" d="M542.545,-573.256C610.33,-559.627 763.713,-528.788 840.861,-513.277"/>
<polygon fill="midnightblue" stroke="midnightblue" points="841.663,-516.685 850.777,-511.283 840.283,-509.823 841.663,-516.685"/>
</g>
<!-- Node24&#45;&gt;Node9 -->
<g id="edge64" class="edge"><title>Node24&#45;&gt;Node9</title>
<path fill="none" stroke="midnightblue" d="M893.489,-494.214C910.191,-457.801 968.923,-329.753 991.275,-281.021"/>
<polygon fill="midnightblue" stroke="midnightblue" points="994.589,-282.192 995.577,-271.643 988.226,-279.273 994.589,-282.192"/>
</g>
<!-- Node163 -->
<g id="node45" class="node"><title>Node163</title>
<g id="a_node45"><a xlink:href="lapi_8c.html#a7d64f87addab440bbda96bb088816e17" target="_top" xlink:title=" ">
<polygon fill="white" stroke="black" points="347,-570.5 347,-589.5 424,-589.5 424,-570.5 347,-570.5"/>
<text text-anchor="middle" x="385.5" y="-577.5" font-family="Helvetica,sans-Serif" font-size="10.00">lua_typename</text>
</a>
</g>
</g>
<!-- Node162&#45;&gt;Node163 -->
<g id="edge66" class="edge"><title>Node162&#45;&gt;Node163</title>
<path fill="none" stroke="midnightblue" d="M288.581,-580C302.55,-580 320.106,-580 336.368,-580"/>
<polygon fill="midnightblue" stroke="midnightblue" points="336.817,-583.5 346.817,-580 336.817,-576.5 336.817,-583.5"/>
</g>
<!-- Node164 -->
<g id="node46" class="node"><title>Node164</title>
<g id="a_node46"><a xlink:href="lauxlib_8c.html#a49f5eae5db02430a59c67dff7b06d98f" target="_top" xlink:title=" ">
<polygon fill="white" stroke="black" points="358,-494.5 358,-513.5 413,-513.5 413,-494.5 358,-494.5"/>
<text text-anchor="middle" x="385.5" y="-501.5" font-family="Helvetica,sans-Serif" font-size="10.00">typeerror</text>
</a>
</g>
</g>
<!-- Node162&#45;&gt;Node164 -->
<g id="edge67" class="edge"><title>Node162&#45;&gt;Node164</title>
<path fill="none" stroke="midnightblue" d="M277.515,-570.375C298.409,-557.412 335.8,-534.214 360.379,-518.965"/>
<polygon fill="midnightblue" stroke="midnightblue" points="362.459,-521.793 369.111,-513.547 358.769,-515.845 362.459,-521.793"/>
</g>
<!-- Node164&#45;&gt;Node132 -->
<g id="edge68" class="edge"><title>Node164&#45;&gt;Node132</title>
<path fill="none" stroke="midnightblue" d="M413.056,-497.102C493.928,-476.097 737.907,-412.725 840.624,-386.046"/>
<polygon fill="midnightblue" stroke="midnightblue" points="841.605,-389.407 850.404,-383.505 839.845,-382.632 841.605,-389.407"/>
</g>
<!-- Node165 -->
<g id="node47" class="node"><title>Node165</title>
<g id="a_node47"><a xlink:href="lapi_8c.html#a652b273947f0656686f998d8e90cd3ea" target="_top" xlink:title=" ">
<polygon fill="white" stroke="black" points="481.5,-494.5 481.5,-513.5 534.5,-513.5 534.5,-494.5 481.5,-494.5"/>
<text text-anchor="middle" x="508" y="-501.5" font-family="Helvetica,sans-Serif" font-size="10.00">lua_type</text>
</a>
</g>
</g>
<!-- Node164&#45;&gt;Node165 -->
<g id="edge69" class="edge"><title>Node164&#45;&gt;Node165</title>
<path fill="none" stroke="midnightblue" d="M413.243,-504C430.247,-504 452.471,-504 471.014,-504"/>
<polygon fill="midnightblue" stroke="midnightblue" points="471.159,-507.5 481.159,-504 471.159,-500.5 471.159,-507.5"/>
</g>
<!-- Node166 -->
<g id="node48" class="node"><title>Node166</title>
<g id="a_node48"><a xlink:href="lauxlib_8c.html#ac607576dd107a3120cd51948989f1ed2" target="_top" xlink:title=" ">
<polygon fill="white" stroke="red" points="471.5,-342.5 471.5,-361.5 544.5,-361.5 544.5,-342.5 471.5,-342.5"/>
<text text-anchor="middle" x="508" y="-349.5" font-family="Helvetica,sans-Serif" font-size="10.00">luaL_argerror</text>
</a>
</g>
</g>
<!-- Node164&#45;&gt;Node166 -->
<g id="edge71" class="edge"><title>Node164&#45;&gt;Node166</title>
<path fill="none" stroke="midnightblue" d="M394.038,-494.492C413.818,-469.54 467.445,-401.894 493.041,-369.608"/>
<polygon fill="midnightblue" stroke="midnightblue" points="495.995,-371.515 499.465,-361.505 490.51,-367.167 495.995,-371.515"/>
</g>
<!-- Node179 -->
<g id="node49" class="node"><title>Node179</title>
<g id="a_node49"><a xlink:href="lauxlib_8c.html#add7cea31816ff3f61014031248e0daa6" target="_top" xlink:title=" ">
<polygon fill="white" stroke="red" points="462,-532.5 462,-551.5 554,-551.5 554,-532.5 462,-532.5"/>
<text text-anchor="middle" x="508" y="-539.5" font-family="Helvetica,sans-Serif" font-size="10.00">luaL_getmetafield</text>
</a>
</g>
</g>
<!-- Node164&#45;&gt;Node179 -->
<g id="edge73" class="edge"><title>Node164&#45;&gt;Node179</title>
<path fill="none" stroke="midnightblue" d="M413.243,-512.433C428.892,-517.369 448.964,-523.698 466.518,-529.234"/>
<polygon fill="midnightblue" stroke="midnightblue" points="465.92,-532.715 476.51,-532.385 468.026,-526.039 465.92,-532.715"/>
</g>
<!-- Node165&#45;&gt;Node4 -->
<g id="edge70" class="edge"><title>Node165&#45;&gt;Node4</title>
<path fill="none" stroke="midnightblue" d="M534.585,-504C552.493,-504 576.804,-504 597.409,-504"/>
<polygon fill="midnightblue" stroke="midnightblue" points="597.487,-507.5 607.487,-504 597.487,-500.5 597.487,-507.5"/>
</g>
<!-- Node166&#45;&gt;Node7 -->
<g id="edge72" class="edge"><title>Node166&#45;&gt;Node7</title>
<path fill="none" stroke="midnightblue" d="M539.039,-342.335C544.359,-339.811 549.597,-336.724 554,-333 591.946,-300.898 618.593,-247.371 630.865,-219"/>
<polygon fill="midnightblue" stroke="midnightblue" points="634.095,-220.348 634.731,-209.772 627.639,-217.643 634.095,-220.348"/>
</g>
</g>
</svg>
