<?xml version="1.0" encoding="UTF-8" standalone="no"?>
<!DOCTYPE svg PUBLIC "-//W3C//DTD SVG 1.1//EN"
 "http://www.w3.org/Graphics/SVG/1.1/DTD/svg11.dtd">
<!-- Generated by graphviz version 2.38.0 (20140413.2041)
 -->
<!-- Title: getnumlimit Pages: 1 -->
<svg width="1494pt" height="786pt"
 viewBox="0.00 0.00 1494.00 786.00" xmlns="http://www.w3.org/2000/svg" xmlns:xlink="http://www.w3.org/1999/xlink">
<g id="graph0" class="graph" transform="scale(1 1) rotate(0) translate(4 782)">
<title>getnumlimit</title>
<polygon fill="white" stroke="none" points="-4,4 -4,-782 1490,-782 1490,4 -4,4"/>
<!-- Node1 -->
<g id="node1" class="node"><title>Node1</title>
<g id="a_node1"><a xlink:title=" ">
<polygon fill="#bfbfbf" stroke="black" points="0,-446.5 0,-465.5 67,-465.5 67,-446.5 0,-446.5"/>
<text text-anchor="middle" x="33.5" y="-453.5" font-family="Helvetica,sans-Serif" font-size="10.00">getnumlimit</text>
</a>
</g>
</g>
<!-- Node2 -->
<g id="node2" class="node"><title>Node2</title>
<g id="a_node2"><a xlink:href="lstrlib_8c.html#a22adbe647ff5710f14b6f6c18ae0d5a4" target="_top" xlink:title=" ">
<polygon fill="white" stroke="black" points="108,-475.5 108,-494.5 157,-494.5 157,-475.5 108,-475.5"/>
<text text-anchor="middle" x="132.5" y="-482.5" font-family="Helvetica,sans-Serif" font-size="10.00">getnum</text>
</a>
</g>
</g>
<!-- Node1&#45;&gt;Node2 -->
<g id="edge1" class="edge"><title>Node1&#45;&gt;Node2</title>
<path fill="none" stroke="midnightblue" d="M66.5303,-465.576C76.6288,-468.595 87.8084,-471.938 98.0062,-474.986"/>
<polygon fill="midnightblue" stroke="midnightblue" points="97.2167,-478.403 107.8,-477.914 99.2218,-471.697 97.2167,-478.403"/>
</g>
<!-- Node4 -->
<g id="node4" class="node"><title>Node4</title>
<g id="a_node4"><a xlink:href="lauxlib_8c.html#a6c51d83d29244779392551388913e08a" target="_top" xlink:title=" ">
<polygon fill="white" stroke="black" points="103,-418.5 103,-437.5 162,-437.5 162,-418.5 103,-418.5"/>
<text text-anchor="middle" x="132.5" y="-425.5" font-family="Helvetica,sans-Serif" font-size="10.00">luaL_error</text>
</a>
</g>
</g>
<!-- Node1&#45;&gt;Node4 -->
<g id="edge3" class="edge"><title>Node1&#45;&gt;Node4</title>
<path fill="none" stroke="midnightblue" d="M67.0694,-446.599C75.3768,-444.201 84.3855,-441.6 92.9603,-439.125"/>
<polygon fill="midnightblue" stroke="midnightblue" points="94.1217,-442.433 102.759,-436.296 92.1803,-435.707 94.1217,-442.433"/>
</g>
<!-- Node3 -->
<g id="node3" class="node"><title>Node3</title>
<g id="a_node3"><a xlink:href="lstrlib_8c.html#a9605f4d16ae762782f8be8b54aef0a22" target="_top" xlink:title=" ">
<polygon fill="white" stroke="black" points="212.5,-494.5 212.5,-513.5 247.5,-513.5 247.5,-494.5 212.5,-494.5"/>
<text text-anchor="middle" x="230" y="-501.5" font-family="Helvetica,sans-Serif" font-size="10.00">digit</text>
</a>
</g>
</g>
<!-- Node2&#45;&gt;Node3 -->
<g id="edge2" class="edge"><title>Node2&#45;&gt;Node3</title>
<path fill="none" stroke="midnightblue" d="M157.107,-489.697C170.752,-492.411 187.966,-495.836 202.128,-498.654"/>
<polygon fill="midnightblue" stroke="midnightblue" points="201.763,-502.15 212.254,-500.668 203.129,-495.284 201.763,-502.15"/>
</g>
<!-- Node5 -->
<g id="node5" class="node"><title>Node5</title>
<g id="a_node5"><a xlink:href="lapi_8c.html#a1de3afee1daece63d455f23818c883d9" target="_top" xlink:title=" ">
<polygon fill="white" stroke="black" points="198,-418.5 198,-437.5 262,-437.5 262,-418.5 198,-418.5"/>
<text text-anchor="middle" x="230" y="-425.5" font-family="Helvetica,sans-Serif" font-size="10.00">lua_concat</text>
</a>
</g>
</g>
<!-- Node4&#45;&gt;Node5 -->
<g id="edge4" class="edge"><title>Node4&#45;&gt;Node5</title>
<path fill="none" stroke="midnightblue" d="M162.153,-428C170.121,-428 178.939,-428 187.486,-428"/>
<polygon fill="midnightblue" stroke="midnightblue" points="187.701,-431.5 197.701,-428 187.701,-424.5 187.701,-431.5"/>
</g>
<!-- Node118 -->
<g id="node38" class="node"><title>Node118</title>
<g id="a_node38"><a xlink:href="lapi_8c.html#a6ba7b91143fe8a03910420d800de8e97" target="_top" xlink:title=" ">
<polygon fill="white" stroke="black" points="203,-456.5 203,-475.5 257,-475.5 257,-456.5 203,-456.5"/>
<text text-anchor="middle" x="230" y="-463.5" font-family="Helvetica,sans-Serif" font-size="10.00">lua_error</text>
</a>
</g>
</g>
<!-- Node4&#45;&gt;Node118 -->
<g id="edge52" class="edge"><title>Node4&#45;&gt;Node118</title>
<path fill="none" stroke="midnightblue" d="M157.599,-437.589C169.022,-442.134 182.861,-447.641 195.303,-452.592"/>
<polygon fill="midnightblue" stroke="midnightblue" points="194.324,-455.969 204.909,-456.414 196.912,-449.465 194.324,-455.969"/>
</g>
<!-- Node119 -->
<g id="node39" class="node"><title>Node119</title>
<g id="a_node39"><a xlink:href="lapi_8c.html#a426c9cb1d582be3e43060c4772854e5a" target="_top" xlink:title=" ">
<polygon fill="white" stroke="black" points="298,-380.5 298,-399.5 384,-399.5 384,-380.5 298,-380.5"/>
<text text-anchor="middle" x="341" y="-387.5" font-family="Helvetica,sans-Serif" font-size="10.00">lua_pushvfstring</text>
</a>
</g>
</g>
<!-- Node4&#45;&gt;Node119 -->
<g id="edge54" class="edge"><title>Node4&#45;&gt;Node119</title>
<path fill="none" stroke="midnightblue" d="M162.155,-418.533C173.254,-415.137 186.125,-411.528 198,-409 227.445,-402.732 260.79,-398.144 287.764,-395.048"/>
<polygon fill="midnightblue" stroke="midnightblue" points="288.218,-398.519 297.769,-393.934 287.443,-391.562 288.218,-398.519"/>
</g>
<!-- Node120 -->
<g id="node40" class="node"><title>Node120</title>
<g id="a_node40"><a xlink:href="lauxlib_8c.html#a0f4d3c30c07eae36aa25605df84279a0" target="_top" xlink:title=" ">
<polygon fill="white" stroke="black" points="308.5,-76.5 308.5,-95.5 373.5,-95.5 373.5,-76.5 308.5,-76.5"/>
<text text-anchor="middle" x="341" y="-83.5" font-family="Helvetica,sans-Serif" font-size="10.00">luaL_where</text>
</a>
</g>
</g>
<!-- Node4&#45;&gt;Node120 -->
<g id="edge56" class="edge"><title>Node4&#45;&gt;Node120</title>
<path fill="none" stroke="midnightblue" d="M139.239,-418.496C167.372,-371.902 290.897,-167.323 328.861,-104.449"/>
<polygon fill="midnightblue" stroke="midnightblue" points="332.019,-105.99 334.191,-95.6201 326.026,-102.372 332.019,-105.99"/>
</g>
<!-- Node6 -->
<g id="node6" class="node"><title>Node6</title>
<g id="a_node6"><a xlink:href="lstring_8c.html#ab41fb084ce3ea5e2779f6659ccc2484d" target="_top" xlink:title=" ">
<polygon fill="white" stroke="black" points="305,-418.5 305,-437.5 377,-437.5 377,-418.5 305,-418.5"/>
<text text-anchor="middle" x="341" y="-425.5" font-family="Helvetica,sans-Serif" font-size="10.00">luaS_newlstr</text>
</a>
</g>
</g>
<!-- Node5&#45;&gt;Node6 -->
<g id="edge5" class="edge"><title>Node5&#45;&gt;Node6</title>
<path fill="none" stroke="midnightblue" d="M262.235,-428C272.342,-428 283.762,-428 294.678,-428"/>
<polygon fill="midnightblue" stroke="midnightblue" points="294.928,-431.5 304.928,-428 294.928,-424.5 294.928,-431.5"/>
</g>
<!-- Node23 -->
<g id="node23" class="node"><title>Node23</title>
<g id="a_node23"><a xlink:href="lvm_8c.html#a2f076040af405dcb50d661edd692eca7" target="_top" xlink:title=" ">
<polygon fill="white" stroke="black" points="1029.5,-550.5 1029.5,-569.5 1100.5,-569.5 1100.5,-550.5 1029.5,-550.5"/>
<text text-anchor="middle" x="1065" y="-557.5" font-family="Helvetica,sans-Serif" font-size="10.00">luaV_concat</text>
</a>
</g>
</g>
<!-- Node5&#45;&gt;Node23 -->
<g id="edge51" class="edge"><title>Node5&#45;&gt;Node23</title>
<path fill="none" stroke="midnightblue" d="M247.7,-437.621C252.415,-440.501 257.488,-443.759 262,-447 351.884,-511.566 349.33,-598 460,-598 460,-598 460,-598 819.5,-598 890.085,-598 970.786,-582.345 1019.54,-571.132"/>
<polygon fill="midnightblue" stroke="midnightblue" points="1020.5,-574.501 1029.44,-568.813 1018.91,-567.685 1020.5,-574.501"/>
</g>
<!-- Node7 -->
<g id="node7" class="node"><title>Node7</title>
<g id="a_node7"><a xlink:href="lstring_8c.html#a9b2c32c59a280de24f20df1c7f0433a1" target="_top" xlink:title=" ">
<polygon fill="white" stroke="black" points="428.5,-323.5 428.5,-342.5 493.5,-342.5 493.5,-323.5 428.5,-323.5"/>
<text text-anchor="middle" x="461" y="-330.5" font-family="Helvetica,sans-Serif" font-size="10.00">internshrstr</text>
</a>
</g>
</g>
<!-- Node6&#45;&gt;Node7 -->
<g id="edge6" class="edge"><title>Node6&#45;&gt;Node7</title>
<path fill="none" stroke="midnightblue" d="M367.233,-418.367C372.962,-415.702 378.866,-412.551 384,-409 408.307,-392.187 431.629,-367.086 445.88,-350.388"/>
<polygon fill="midnightblue" stroke="midnightblue" points="448.736,-352.429 452.463,-342.511 443.365,-347.94 448.736,-352.429"/>
</g>
<!-- Node12 -->
<g id="node12" class="node"><title>Node12</title>
<g id="a_node12"><a xlink:href="lmem_8c.html#a8fc7df43dd830ccbe7581fd53f65bdbe" target="_top" xlink:title=" ">
<polygon fill="white" stroke="black" points="426.5,-550.5 426.5,-569.5 495.5,-569.5 495.5,-550.5 426.5,-550.5"/>
<text text-anchor="middle" x="461" y="-557.5" font-family="Helvetica,sans-Serif" font-size="10.00">luaM_toobig</text>
</a>
</g>
</g>
<!-- Node6&#45;&gt;Node12 -->
<g id="edge11" class="edge"><title>Node6&#45;&gt;Node12</title>
<path fill="none" stroke="midnightblue" d="M347.172,-437.654C358.341,-457.839 386.441,-505.181 420,-536 423.612,-539.318 427.754,-542.409 431.973,-545.195"/>
<polygon fill="midnightblue" stroke="midnightblue" points="430.237,-548.235 440.595,-550.46 433.885,-542.261 430.237,-548.235"/>
</g>
<!-- Node25 -->
<g id="node25" class="node"><title>Node25</title>
<g id="a_node25"><a xlink:href="lstring_8c.html#a8790c7d6e706f935dd6e9eefd068921c" target="_top" xlink:title=" ">
<polygon fill="white" stroke="black" points="1138,-474.5 1138,-493.5 1243,-493.5 1243,-474.5 1138,-474.5"/>
<text text-anchor="middle" x="1190.5" y="-481.5" font-family="Helvetica,sans-Serif" font-size="10.00">luaS_createlngstrobj</text>
</a>
</g>
</g>
<!-- Node6&#45;&gt;Node25 -->
<g id="edge50" class="edge"><title>Node6&#45;&gt;Node25</title>
<path fill="none" stroke="midnightblue" d="M377.07,-430.317C506.878,-438.895 961.146,-468.911 1127.69,-479.916"/>
<polygon fill="midnightblue" stroke="midnightblue" points="1127.56,-483.415 1137.77,-480.582 1128.02,-476.43 1127.56,-483.415"/>
</g>
<!-- Node8 -->
<g id="node8" class="node"><title>Node8</title>
<g id="a_node8"><a xlink:href="lstring_8c.html#a85a1a917ef263701e47c36e68011d917" target="_top" xlink:title=" ">
<polygon fill="white" stroke="black" points="1290.5,-114.5 1290.5,-133.5 1358.5,-133.5 1358.5,-114.5 1290.5,-114.5"/>
<text text-anchor="middle" x="1324.5" y="-121.5" font-family="Helvetica,sans-Serif" font-size="10.00">createstrobj</text>
</a>
</g>
</g>
<!-- Node7&#45;&gt;Node8 -->
<g id="edge7" class="edge"><title>Node7&#45;&gt;Node8</title>
<path fill="none" stroke="midnightblue" d="M469.088,-323.362C481.373,-307.321 508.18,-275.12 538,-257 585.809,-227.948 603.457,-231.44 658,-219 889.529,-166.195 1173.43,-137.316 1280.19,-127.688"/>
<polygon fill="midnightblue" stroke="midnightblue" points="1280.61,-131.165 1290.26,-126.79 1279.98,-124.192 1280.61,-131.165"/>
</g>
<!-- Node10 -->
<g id="node10" class="node"><title>Node10</title>
<g id="a_node10"><a xlink:href="lstring_8c.html#ac453c0e85b7bb4e9b146fc140b1b7c9e" target="_top" xlink:title=" ">
<polygon fill="white" stroke="black" points="549,-304.5 549,-323.5 611,-323.5 611,-304.5 549,-304.5"/>
<text text-anchor="middle" x="580" y="-311.5" font-family="Helvetica,sans-Serif" font-size="10.00">luaS_hash</text>
</a>
</g>
</g>
<!-- Node7&#45;&gt;Node10 -->
<g id="edge9" class="edge"><title>Node7&#45;&gt;Node10</title>
<path fill="none" stroke="midnightblue" d="M493.662,-327.858C507.628,-325.59 524.201,-322.899 539.009,-320.494"/>
<polygon fill="midnightblue" stroke="midnightblue" points="539.616,-323.942 548.925,-318.884 538.494,-317.032 539.616,-323.942"/>
</g>
<!-- Node11 -->
<g id="node11" class="node"><title>Node11</title>
<g id="a_node11"><a xlink:href="lstring_8c.html#a88a409a2e7eee2106940f69d7884c471" target="_top" xlink:title=" ">
<polygon fill="white" stroke="black" points="546,-342.5 546,-361.5 614,-361.5 614,-342.5 546,-342.5"/>
<text text-anchor="middle" x="580" y="-349.5" font-family="Helvetica,sans-Serif" font-size="10.00">luaS_resize</text>
</a>
</g>
</g>
<!-- Node7&#45;&gt;Node11 -->
<g id="edge10" class="edge"><title>Node7&#45;&gt;Node11</title>
<path fill="none" stroke="midnightblue" d="M493.662,-338.142C506.623,-340.246 521.828,-342.716 535.785,-344.982"/>
<polygon fill="midnightblue" stroke="midnightblue" points="535.245,-348.44 545.677,-346.589 536.367,-341.531 535.245,-348.44"/>
</g>
<!-- Node9 -->
<g id="node9" class="node"><title>Node9</title>
<g id="a_node9"><a xlink:href="lgc_8c.html#abfc8404c5fbd2a1770202fa0b087d451" target="_top" xlink:title=" ">
<polygon fill="white" stroke="black" points="1410.5,-91.5 1410.5,-110.5 1481.5,-110.5 1481.5,-91.5 1410.5,-91.5"/>
<text text-anchor="middle" x="1446" y="-98.5" font-family="Helvetica,sans-Serif" font-size="10.00">luaC_newobj</text>
</a>
</g>
</g>
<!-- Node8&#45;&gt;Node9 -->
<g id="edge8" class="edge"><title>Node8&#45;&gt;Node9</title>
<path fill="none" stroke="midnightblue" d="M1358.79,-117.593C1371.56,-115.136 1386.34,-112.29 1400.03,-109.656"/>
<polygon fill="midnightblue" stroke="midnightblue" points="1401.07,-113.02 1410.22,-107.693 1399.74,-106.146 1401.07,-113.02"/>
</g>
<!-- Node13 -->
<g id="node13" class="node"><title>Node13</title>
<g id="a_node13"><a xlink:href="ldebug_8c.html#a88d38ca5da2e7a1492fc9d5ad70c32c5" target="_top" xlink:title=" ">
<polygon fill="white" stroke="black" points="542.5,-550.5 542.5,-569.5 617.5,-569.5 617.5,-550.5 542.5,-550.5"/>
<text text-anchor="middle" x="580" y="-557.5" font-family="Helvetica,sans-Serif" font-size="10.00">luaG_runerror</text>
</a>
</g>
</g>
<!-- Node12&#45;&gt;Node13 -->
<g id="edge12" class="edge"><title>Node12&#45;&gt;Node13</title>
<path fill="none" stroke="midnightblue" d="M495.528,-560C506.923,-560 519.874,-560 532.118,-560"/>
<polygon fill="midnightblue" stroke="midnightblue" points="532.186,-563.5 542.186,-560 532.186,-556.5 532.186,-563.5"/>
</g>
<!-- Node14 -->
<g id="node14" class="node"><title>Node14</title>
<g id="a_node14"><a xlink:href="ldebug_8c.html#a9834508872dae133075c7efe6404a9d8" target="_top" xlink:title=" ">
<polygon fill="white" stroke="black" points="667,-266.5 667,-285.5 729,-285.5 729,-266.5 667,-266.5"/>
<text text-anchor="middle" x="698" y="-273.5" font-family="Helvetica,sans-Serif" font-size="10.00">currentline</text>
</a>
</g>
</g>
<!-- Node13&#45;&gt;Node14 -->
<g id="edge13" class="edge"><title>Node13&#45;&gt;Node14</title>
<path fill="none" stroke="midnightblue" d="M582.74,-550.251C590.551,-507.382 623.504,-335.945 658,-295 659.001,-293.812 660.094,-292.692 661.257,-291.637"/>
<polygon fill="midnightblue" stroke="midnightblue" points="663.631,-294.242 669.733,-285.58 659.562,-288.547 663.631,-294.242"/>
</g>
<!-- Node16 -->
<g id="node16" class="node"><title>Node16</title>
<g id="a_node16"><a xlink:href="ldebug_8c.html#a7e1dc7518150bf19bd9aa5dda166a2eb" target="_top" xlink:title=" ">
<polygon fill="white" stroke="black" points="661.5,-342.5 661.5,-361.5 734.5,-361.5 734.5,-342.5 661.5,-342.5"/>
<text text-anchor="middle" x="698" y="-349.5" font-family="Helvetica,sans-Serif" font-size="10.00">luaG_addinfo</text>
</a>
</g>
</g>
<!-- Node13&#45;&gt;Node16 -->
<g id="edge15" class="edge"><title>Node13&#45;&gt;Node16</title>
<path fill="none" stroke="midnightblue" d="M586.439,-550.247C604.474,-517.908 662.517,-413.831 686.49,-370.845"/>
<polygon fill="midnightblue" stroke="midnightblue" points="689.623,-372.413 691.437,-361.974 683.51,-369.003 689.623,-372.413"/>
</g>
<!-- Node19 -->
<g id="node19" class="node"><title>Node19</title>
<g id="a_node19"><a xlink:href="lobject_8c.html#aa83fa444a36d79521e846a766fa083d5" target="_top" xlink:title=" ">
<polygon fill="white" stroke="black" points="899,-342.5 899,-361.5 992,-361.5 992,-342.5 899,-342.5"/>
<text text-anchor="middle" x="945.5" y="-349.5" font-family="Helvetica,sans-Serif" font-size="10.00">luaO_pushvfstring</text>
</a>
</g>
</g>
<!-- Node13&#45;&gt;Node19 -->
<g id="edge49" class="edge"><title>Node13&#45;&gt;Node19</title>
<path fill="none" stroke="midnightblue" d="M592.427,-550.341C630.979,-524.731 759.614,-456.496 863,-395 878.265,-385.92 894.835,-375.462 909.024,-366.952"/>
<polygon fill="midnightblue" stroke="midnightblue" points="911.133,-369.771 917.967,-361.675 907.575,-363.743 911.133,-369.771"/>
</g>
<!-- Node117 -->
<g id="node33" class="node"><title>Node117</title>
<g id="a_node33"><a xlink:href="ldebug_8c.html#af7366920f8408bb33ed01b1d6c0e1238" target="_top" xlink:title=" ">
<polygon fill="white" stroke="black" points="658,-702.5 658,-721.5 738,-721.5 738,-702.5 658,-702.5"/>
<text text-anchor="middle" x="698" y="-709.5" font-family="Helvetica,sans-Serif" font-size="10.00">luaG_errormsg</text>
</a>
</g>
</g>
<!-- Node13&#45;&gt;Node117 -->
<g id="edge43" class="edge"><title>Node13&#45;&gt;Node117</title>
<path fill="none" stroke="midnightblue" d="M584.913,-569.714C594.51,-592.599 621.145,-650.772 658,-688 661.234,-691.266 664.996,-694.281 668.883,-696.992"/>
<polygon fill="midnightblue" stroke="midnightblue" points="667.116,-700.016 677.435,-702.419 670.867,-694.106 667.116,-700.016"/>
</g>
<!-- Node15 -->
<g id="node15" class="node"><title>Node15</title>
<g id="a_node15"><a xlink:href="ldebug_8c.html#a7db2a3f5cbcf0ac3ef6d4cfa15ab4dbc" target="_top" xlink:title=" ">
<polygon fill="white" stroke="black" points="790,-266.5 790,-285.5 847,-285.5 847,-266.5 790,-266.5"/>
<text text-anchor="middle" x="818.5" y="-273.5" font-family="Helvetica,sans-Serif" font-size="10.00">currentpc</text>
</a>
</g>
</g>
<!-- Node14&#45;&gt;Node15 -->
<g id="edge14" class="edge"><title>Node14&#45;&gt;Node15</title>
<path fill="none" stroke="midnightblue" d="M729.209,-276C744.509,-276 763.242,-276 779.509,-276"/>
<polygon fill="midnightblue" stroke="midnightblue" points="779.783,-279.5 789.782,-276 779.782,-272.5 779.783,-279.5"/>
</g>
<!-- Node17 -->
<g id="node17" class="node"><title>Node17</title>
<g id="a_node17"><a xlink:href="lobject_8c.html#a4708cca3615b7fafb7ea4631f486983b" target="_top" xlink:title=" ">
<polygon fill="white" stroke="black" points="780.5,-304.5 780.5,-323.5 856.5,-323.5 856.5,-304.5 780.5,-304.5"/>
<text text-anchor="middle" x="818.5" y="-311.5" font-family="Helvetica,sans-Serif" font-size="10.00">luaO_chunkid</text>
</a>
</g>
</g>
<!-- Node16&#45;&gt;Node17 -->
<g id="edge16" class="edge"><title>Node16&#45;&gt;Node17</title>
<path fill="none" stroke="midnightblue" d="M728.903,-342.411C743.779,-337.641 761.957,-331.811 777.967,-326.677"/>
<polygon fill="midnightblue" stroke="midnightblue" points="779.153,-329.972 787.607,-323.586 777.016,-323.307 779.153,-329.972"/>
</g>
<!-- Node18 -->
<g id="node18" class="node"><title>Node18</title>
<g id="a_node18"><a xlink:href="lobject_8c.html#a8e224db7123c74d695076a96d1bfda61" target="_top" xlink:title=" ">
<polygon fill="white" stroke="black" points="774,-342.5 774,-361.5 863,-361.5 863,-342.5 774,-342.5"/>
<text text-anchor="middle" x="818.5" y="-349.5" font-family="Helvetica,sans-Serif" font-size="10.00">luaO_pushfstring</text>
</a>
</g>
</g>
<!-- Node16&#45;&gt;Node18 -->
<g id="edge17" class="edge"><title>Node16&#45;&gt;Node18</title>
<path fill="none" stroke="midnightblue" d="M734.554,-352C743.661,-352 753.663,-352 763.473,-352"/>
<polygon fill="midnightblue" stroke="midnightblue" points="763.58,-355.5 773.58,-352 763.58,-348.5 763.58,-355.5"/>
</g>
<!-- Node18&#45;&gt;Node19 -->
<g id="edge18" class="edge"><title>Node18&#45;&gt;Node19</title>
<path fill="none" stroke="midnightblue" d="M863.219,-345.529C871.427,-345.278 880.113,-345.197 888.631,-345.284"/>
<polygon fill="midnightblue" stroke="midnightblue" points="888.834,-348.788 898.897,-345.474 888.963,-341.789 888.834,-348.788"/>
</g>
<!-- Node19&#45;&gt;Node13 -->
<g id="edge20" class="edge"><title>Node19&#45;&gt;Node13</title>
<path fill="none" stroke="midnightblue" d="M937.399,-361.827C923.359,-375.075 890.985,-396.354 863,-413 776.811,-464.267 673.073,-520.218 618.611,-546.073"/>
<polygon fill="midnightblue" stroke="midnightblue" points="616.929,-542.995 609.348,-550.397 619.89,-549.338 616.929,-542.995"/>
</g>
<!-- Node19&#45;&gt;Node18 -->
<g id="edge21" class="edge"><title>Node19&#45;&gt;Node18</title>
<path fill="none" stroke="midnightblue" d="M898.897,-358.526C890.619,-358.75 881.914,-358.806 873.425,-358.693"/>
<polygon fill="midnightblue" stroke="midnightblue" points="873.293,-355.19 863.219,-358.471 873.141,-362.188 873.293,-355.19"/>
</g>
<!-- Node20 -->
<g id="node20" class="node"><title>Node20</title>
<g id="a_node20"><a xlink:href="ldo_8c.html#a4dd006aa3210fdc854d0441e2a98c9af" target="_top" xlink:title=" ">
<polygon fill="white" stroke="black" points="1156.5,-285.5 1156.5,-304.5 1224.5,-304.5 1224.5,-285.5 1156.5,-285.5"/>
<text text-anchor="middle" x="1190.5" y="-292.5" font-family="Helvetica,sans-Serif" font-size="10.00">luaD_inctop</text>
</a>
</g>
</g>
<!-- Node19&#45;&gt;Node20 -->
<g id="edge19" class="edge"><title>Node19&#45;&gt;Node20</title>
<path fill="none" stroke="midnightblue" d="M987.173,-342.459C1031.26,-332.118 1101.34,-315.68 1146.37,-305.118"/>
<polygon fill="midnightblue" stroke="midnightblue" points="1147.19,-308.519 1156.13,-302.827 1145.6,-301.704 1147.19,-308.519"/>
</g>
<!-- Node21 -->
<g id="node21" class="node"><title>Node21</title>
<g id="a_node21"><a xlink:href="lobject_8c.html#a00c5c37438b02ff7efcf8e8dfa98da7c" target="_top" xlink:title=" ">
<polygon fill="white" stroke="black" points="1028,-285.5 1028,-304.5 1102,-304.5 1102,-285.5 1028,-285.5"/>
<text text-anchor="middle" x="1065" y="-292.5" font-family="Helvetica,sans-Serif" font-size="10.00">luaO_tostring</text>
</a>
</g>
</g>
<!-- Node19&#45;&gt;Node21 -->
<g id="edge22" class="edge"><title>Node19&#45;&gt;Node21</title>
<path fill="none" stroke="midnightblue" d="M966.167,-342.459C984.976,-333.335 1013.57,-319.466 1034.99,-309.073"/>
<polygon fill="midnightblue" stroke="midnightblue" points="1036.8,-312.085 1044.27,-304.572 1033.74,-305.787 1036.8,-312.085"/>
</g>
<!-- Node22 -->
<g id="node22" class="node"><title>Node22</title>
<g id="a_node22"><a xlink:href="lobject_8c.html#af3136de4693789b08f78aafda9604676" target="_top" xlink:title=" ">
<polygon fill="white" stroke="black" points="1028,-361.5 1028,-380.5 1102,-380.5 1102,-361.5 1028,-361.5"/>
<text text-anchor="middle" x="1065" y="-368.5" font-family="Helvetica,sans-Serif" font-size="10.00">luaO_utf8esc</text>
</a>
</g>
</g>
<!-- Node19&#45;&gt;Node22 -->
<g id="edge24" class="edge"><title>Node19&#45;&gt;Node22</title>
<path fill="none" stroke="midnightblue" d="M992.265,-359.4C1000.69,-360.763 1009.5,-362.187 1017.94,-363.551"/>
<polygon fill="midnightblue" stroke="midnightblue" points="1017.57,-367.037 1028,-365.178 1018.68,-360.127 1017.57,-367.037"/>
</g>
<!-- Node19&#45;&gt;Node23 -->
<g id="edge25" class="edge"><title>Node19&#45;&gt;Node23</title>
<path fill="none" stroke="midnightblue" d="M952.01,-361.753C970.278,-394.092 1029.07,-498.169 1053.35,-541.155"/>
<polygon fill="midnightblue" stroke="midnightblue" points="1050.4,-543.04 1058.37,-550.026 1056.49,-539.597 1050.4,-543.04"/>
</g>
<!-- Node116 -->
<g id="node32" class="node"><title>Node116</title>
<g id="a_node32"><a xlink:href="lobject_8c.html#aa65db03553a5abd73e466d307bb17a37" target="_top" xlink:title=" ">
<polygon fill="white" stroke="black" points="1040.5,-247.5 1040.5,-266.5 1089.5,-266.5 1089.5,-247.5 1040.5,-247.5"/>
<text text-anchor="middle" x="1065" y="-254.5" font-family="Helvetica,sans-Serif" font-size="10.00">pushstr</text>
</a>
</g>
</g>
<!-- Node19&#45;&gt;Node116 -->
<g id="edge40" class="edge"><title>Node19&#45;&gt;Node116</title>
<path fill="none" stroke="midnightblue" d="M955.329,-342.241C969.577,-326.865 998.987,-296.627 1028,-276 1030.12,-274.495 1032.37,-273.031 1034.67,-271.626"/>
<polygon fill="midnightblue" stroke="midnightblue" points="1036.66,-274.521 1043.64,-266.547 1033.21,-268.431 1036.66,-274.521"/>
</g>
<!-- Node21&#45;&gt;Node6 -->
<g id="edge23" class="edge"><title>Node21&#45;&gt;Node6</title>
<path fill="none" stroke="midnightblue" d="M1044.67,-285.368C995.512,-261.216 866.292,-200 819.5,-200 579,-200 579,-200 579,-200 492.047,-200 473.003,-245.068 420,-314 392.477,-349.794 414.912,-376.089 384,-409 382.644,-410.444 381.157,-411.786 379.579,-413.033"/>
<polygon fill="midnightblue" stroke="midnightblue" points="377.601,-410.143 371.089,-418.5 381.391,-416.028 377.601,-410.143"/>
</g>
<!-- Node23&#45;&gt;Node6 -->
<g id="edge30" class="edge"><title>Node23&#45;&gt;Node6</title>
<path fill="none" stroke="midnightblue" d="M1029.44,-551.187C982.318,-539.961 895.105,-522 819.5,-522 579,-522 579,-522 579,-522 494.611,-522 404.471,-469.866 363.95,-443.249"/>
<polygon fill="midnightblue" stroke="midnightblue" points="365.667,-440.187 355.41,-437.531 361.772,-446.003 365.667,-440.187"/>
</g>
<!-- Node23&#45;&gt;Node13 -->
<g id="edge27" class="edge"><title>Node23&#45;&gt;Node13</title>
<path fill="none" stroke="midnightblue" d="M1029.31,-560C944.09,-560 724.371,-560 627.758,-560"/>
<polygon fill="midnightblue" stroke="midnightblue" points="627.7,-556.5 617.7,-560 627.7,-563.5 627.7,-556.5"/>
</g>
<!-- Node24 -->
<g id="node24" class="node"><title>Node24</title>
<g id="a_node24"><a xlink:href="lvm_8c.html#a7f03a9c23b77ec5cd280bb955ec430b8" target="_top" xlink:title=" ">
<polygon fill="white" stroke="black" points="1161.5,-588.5 1161.5,-607.5 1219.5,-607.5 1219.5,-588.5 1161.5,-588.5"/>
<text text-anchor="middle" x="1190.5" y="-595.5" font-family="Helvetica,sans-Serif" font-size="10.00">copy2buff</text>
</a>
</g>
</g>
<!-- Node23&#45;&gt;Node24 -->
<g id="edge26" class="edge"><title>Node23&#45;&gt;Node24</title>
<path fill="none" stroke="midnightblue" d="M1097.16,-569.589C1113.65,-574.662 1134.03,-580.932 1151.44,-586.29"/>
<polygon fill="midnightblue" stroke="midnightblue" points="1150.71,-589.728 1161.3,-589.324 1152.77,-583.038 1150.71,-589.728"/>
</g>
<!-- Node23&#45;&gt;Node25 -->
<g id="edge28" class="edge"><title>Node23&#45;&gt;Node25</title>
<path fill="none" stroke="midnightblue" d="M1081.64,-550.375C1102.71,-537.412 1140.4,-514.214 1165.18,-498.965"/>
<polygon fill="midnightblue" stroke="midnightblue" points="1167.3,-501.769 1173.99,-493.547 1163.63,-495.808 1167.3,-501.769"/>
</g>
<!-- Node26 -->
<g id="node26" class="node"><title>Node26</title>
<g id="a_node26"><a xlink:href="ltm_8c.html#a2adc638eccb971b8abaf27f60611e913" target="_top" xlink:title=" ">
<polygon fill="white" stroke="black" points="1152,-550.5 1152,-569.5 1229,-569.5 1229,-550.5 1152,-550.5"/>
<text text-anchor="middle" x="1190.5" y="-557.5" font-family="Helvetica,sans-Serif" font-size="10.00">luaT_trybinTM</text>
</a>
</g>
</g>
<!-- Node23&#45;&gt;Node26 -->
<g id="edge31" class="edge"><title>Node23&#45;&gt;Node26</title>
<path fill="none" stroke="midnightblue" d="M1100.73,-560C1113.35,-560 1127.85,-560 1141.42,-560"/>
<polygon fill="midnightblue" stroke="midnightblue" points="1141.57,-563.5 1151.57,-560 1141.57,-556.5 1141.57,-563.5"/>
</g>
<!-- Node25&#45;&gt;Node8 -->
<g id="edge29" class="edge"><title>Node25&#45;&gt;Node8</title>
<path fill="none" stroke="midnightblue" d="M1195.03,-474.371C1212.74,-426.071 1292.01,-209.889 1316.36,-143.472"/>
<polygon fill="midnightblue" stroke="midnightblue" points="1319.74,-144.421 1319.9,-133.828 1313.17,-142.011 1319.74,-144.421"/>
</g>
<!-- Node27 -->
<g id="node27" class="node"><title>Node27</title>
<g id="a_node27"><a xlink:href="ldebug_8c.html#a04641ef359f3943a2ca88f52c3fe283c" target="_top" xlink:title=" ">
<polygon fill="white" stroke="black" points="1279,-550.5 1279,-569.5 1370,-569.5 1370,-550.5 1279,-550.5"/>
<text text-anchor="middle" x="1324.5" y="-557.5" font-family="Helvetica,sans-Serif" font-size="10.00">luaG_concaterror</text>
</a>
</g>
</g>
<!-- Node26&#45;&gt;Node27 -->
<g id="edge32" class="edge"><title>Node26&#45;&gt;Node27</title>
<path fill="none" stroke="midnightblue" d="M1229.33,-560C1241.47,-560 1255.18,-560 1268.3,-560"/>
<polygon fill="midnightblue" stroke="midnightblue" points="1268.66,-563.5 1278.66,-560 1268.66,-556.5 1268.66,-563.5"/>
</g>
<!-- Node41 -->
<g id="node29" class="node"><title>Node41</title>
<g id="a_node29"><a xlink:href="ldebug_8c.html#a5a3d4fd14bbb9329188c53a9548b7402" target="_top" xlink:title=" ">
<polygon fill="white" stroke="black" points="1283,-588.5 1283,-607.5 1366,-607.5 1366,-588.5 1283,-588.5"/>
<text text-anchor="middle" x="1324.5" y="-595.5" font-family="Helvetica,sans-Serif" font-size="10.00">luaG_opinterror</text>
</a>
</g>
</g>
<!-- Node26&#45;&gt;Node41 -->
<g id="edge35" class="edge"><title>Node26&#45;&gt;Node41</title>
<path fill="none" stroke="midnightblue" d="M1224.81,-569.589C1241.69,-574.449 1262.39,-580.409 1280.47,-585.613"/>
<polygon fill="midnightblue" stroke="midnightblue" points="1279.62,-589.011 1290.2,-588.414 1281.56,-582.284 1279.62,-589.011"/>
</g>
<!-- Node42 -->
<g id="node30" class="node"><title>Node42</title>
<g id="a_node30"><a xlink:href="ldebug_8c.html#ada97dce3c670f83e257a5b27299bf09b" target="_top" xlink:title=" ">
<polygon fill="white" stroke="red" points="1284.5,-626.5 1284.5,-645.5 1364.5,-645.5 1364.5,-626.5 1284.5,-626.5"/>
<text text-anchor="middle" x="1324.5" y="-633.5" font-family="Helvetica,sans-Serif" font-size="10.00">luaG_tointerror</text>
</a>
</g>
</g>
<!-- Node26&#45;&gt;Node42 -->
<g id="edge37" class="edge"><title>Node26&#45;&gt;Node42</title>
<path fill="none" stroke="midnightblue" d="M1224.46,-569.591C1230.87,-572.155 1237.35,-575.275 1243,-579 1262.42,-591.806 1259.9,-603.711 1279,-617 1281.54,-618.766 1284.27,-620.418 1287.08,-621.95"/>
<polygon fill="midnightblue" stroke="midnightblue" points="1285.69,-625.168 1296.21,-626.438 1288.78,-618.886 1285.69,-625.168"/>
</g>
<!-- Node43 -->
<g id="node31" class="node"><title>Node43</title>
<g id="a_node31"><a xlink:href="ltm_8c.html#a218e3b031d69a9888eb20da1927058c4" target="_top" xlink:title=" ">
<polygon fill="white" stroke="red" points="1284,-512.5 1284,-531.5 1365,-531.5 1365,-512.5 1284,-512.5"/>
<text text-anchor="middle" x="1324.5" y="-519.5" font-family="Helvetica,sans-Serif" font-size="10.00">luaT_callbinTM</text>
</a>
</g>
</g>
<!-- Node26&#45;&gt;Node43 -->
<g id="edge39" class="edge"><title>Node26&#45;&gt;Node43</title>
<path fill="none" stroke="midnightblue" d="M1224.81,-550.411C1241.69,-545.551 1262.39,-539.591 1280.47,-534.387"/>
<polygon fill="midnightblue" stroke="midnightblue" points="1281.56,-537.716 1290.2,-531.586 1279.62,-530.989 1281.56,-537.716"/>
</g>
<!-- Node28 -->
<g id="node28" class="node"><title>Node28</title>
<g id="a_node28"><a xlink:href="ldebug_8c.html#a60bf9ce85441bd5065f2b73640163711" target="_top" xlink:title=" ">
<polygon fill="white" stroke="red" points="1406,-588.5 1406,-607.5 1486,-607.5 1486,-588.5 1406,-588.5"/>
<text text-anchor="middle" x="1446" y="-595.5" font-family="Helvetica,sans-Serif" font-size="10.00">luaG_typeerror</text>
</a>
</g>
</g>
<!-- Node27&#45;&gt;Node28 -->
<g id="edge33" class="edge"><title>Node27&#45;&gt;Node28</title>
<path fill="none" stroke="midnightblue" d="M1355.65,-569.589C1370.66,-574.359 1388.99,-580.189 1405.13,-585.323"/>
<polygon fill="midnightblue" stroke="midnightblue" points="1404.26,-588.719 1414.85,-588.414 1406.39,-582.048 1404.26,-588.719"/>
</g>
<!-- Node28&#45;&gt;Node13 -->
<g id="edge34" class="edge"><title>Node28&#45;&gt;Node13</title>
<path fill="none" stroke="midnightblue" d="M1435.89,-607.658C1422.75,-620.897 1397.06,-644.257 1370,-655 1295.85,-684.441 1271.28,-674 1191.5,-674 817.5,-674 817.5,-674 817.5,-674 743.471,-674 722.95,-661.522 658,-626 634.279,-613.026 611.309,-591.869 596.726,-577.014"/>
<polygon fill="midnightblue" stroke="midnightblue" points="598.978,-574.305 589.535,-569.502 593.921,-579.146 598.978,-574.305"/>
</g>
<!-- Node41&#45;&gt;Node28 -->
<g id="edge36" class="edge"><title>Node41&#45;&gt;Node28</title>
<path fill="none" stroke="midnightblue" d="M1366.29,-598C1375.63,-598 1385.65,-598 1395.31,-598"/>
<polygon fill="midnightblue" stroke="midnightblue" points="1395.6,-601.5 1405.6,-598 1395.6,-594.5 1395.6,-601.5"/>
</g>
<!-- Node42&#45;&gt;Node13 -->
<g id="edge38" class="edge"><title>Node42&#45;&gt;Node13</title>
<path fill="none" stroke="midnightblue" d="M1284.24,-636C1233.74,-636 1143.34,-636 1066,-636 817.5,-636 817.5,-636 817.5,-636 737.712,-636 649.729,-596.307 607.067,-574.292"/>
<polygon fill="midnightblue" stroke="midnightblue" points="608.669,-571.18 598.189,-569.625 605.412,-577.376 608.669,-571.18"/>
</g>
<!-- Node116&#45;&gt;Node6 -->
<g id="edge42" class="edge"><title>Node116&#45;&gt;Node6</title>
<path fill="none" stroke="midnightblue" d="M1052.93,-247.316C1010.42,-211.142 852.251,-86 699,-86 579,-86 579,-86 579,-86 507.831,-86 470.298,-54.6489 420,-105 323.845,-201.257 464.367,-299.218 384,-409 383.202,-410.09 382.327,-411.118 381.388,-412.089"/>
<polygon fill="midnightblue" stroke="midnightblue" points="378.933,-409.564 373.172,-418.456 383.221,-415.097 378.933,-409.564"/>
</g>
<!-- Node116&#45;&gt;Node20 -->
<g id="edge41" class="edge"><title>Node116&#45;&gt;Node20</title>
<path fill="none" stroke="midnightblue" d="M1089.52,-264.237C1106.28,-269.395 1129.24,-276.46 1148.94,-282.519"/>
<polygon fill="midnightblue" stroke="midnightblue" points="1148,-285.893 1158.59,-285.489 1150.06,-279.203 1148,-285.893"/>
</g>
<!-- Node115 -->
<g id="node34" class="node"><title>Node115</title>
<g id="a_node34"><a xlink:href="ldo_8c.html#a61c0a0185ef5ae1493dad10027f4db7e" target="_top" xlink:title=" ">
<polygon fill="white" stroke="black" points="775,-758.5 775,-777.5 862,-777.5 862,-758.5 775,-758.5"/>
<text text-anchor="middle" x="818.5" y="-765.5" font-family="Helvetica,sans-Serif" font-size="10.00">luaD_callnoyield</text>
</a>
</g>
</g>
<!-- Node117&#45;&gt;Node115 -->
<g id="edge44" class="edge"><title>Node117&#45;&gt;Node115</title>
<path fill="none" stroke="midnightblue" d="M717.685,-721.519C732.789,-729.14 754.645,-740.005 774,-749 777.678,-750.709 781.55,-752.464 785.405,-754.183"/>
<polygon fill="midnightblue" stroke="midnightblue" points="784.271,-757.508 794.833,-758.337 787.093,-751.102 784.271,-757.508"/>
</g>
<!-- Node76 -->
<g id="node36" class="node"><title>Node76</title>
<g id="a_node36"><a xlink:href="ldo_8c.html#a2b46d9db5b9ca3d5402a0c2ac640a6b0" target="_top" xlink:title=" ">
<polygon fill="white" stroke="black" points="786,-702.5 786,-721.5 851,-721.5 851,-702.5 786,-702.5"/>
<text text-anchor="middle" x="818.5" y="-709.5" font-family="Helvetica,sans-Serif" font-size="10.00">luaD_throw</text>
</a>
</g>
</g>
<!-- Node117&#45;&gt;Node76 -->
<g id="edge46" class="edge"><title>Node117&#45;&gt;Node76</title>
<path fill="none" stroke="midnightblue" d="M738.13,-712C750.122,-712 763.363,-712 775.536,-712"/>
<polygon fill="midnightblue" stroke="midnightblue" points="775.901,-715.5 785.901,-712 775.901,-708.5 775.901,-715.5"/>
</g>
<!-- Node45 -->
<g id="node35" class="node"><title>Node45</title>
<g id="a_node35"><a xlink:href="ldo_8c.html#a5483fddd87ca999e7d037bf397ab7997" target="_top" xlink:title=" ">
<polygon fill="white" stroke="red" points="917.5,-758.5 917.5,-777.5 973.5,-777.5 973.5,-758.5 917.5,-758.5"/>
<text text-anchor="middle" x="945.5" y="-765.5" font-family="Helvetica,sans-Serif" font-size="10.00">luaD_call</text>
</a>
</g>
</g>
<!-- Node115&#45;&gt;Node45 -->
<g id="edge45" class="edge"><title>Node115&#45;&gt;Node45</title>
<path fill="none" stroke="midnightblue" d="M862.168,-768C876.709,-768 892.847,-768 906.956,-768"/>
<polygon fill="midnightblue" stroke="midnightblue" points="907.289,-771.5 917.289,-768 907.289,-764.5 907.289,-771.5"/>
</g>
<!-- Node76&#45;&gt;Node76 -->
<g id="edge47" class="edge"><title>Node76&#45;&gt;Node76</title>
<path fill="none" stroke="midnightblue" d="M800.005,-721.757C791.007,-730.565 797.172,-740 818.5,-740 832.163,-740 839.604,-736.128 840.821,-731.029"/>
<polygon fill="midnightblue" stroke="midnightblue" points="844.045,-729.666 836.995,-721.757 837.574,-732.336 844.045,-729.666"/>
</g>
<!-- Node77 -->
<g id="node37" class="node"><title>Node77</title>
<g id="a_node37"><a xlink:href="ldo_8c.html#af5721b7fac08574c3bf04058268daec7" target="_top" xlink:title=" ">
<polygon fill="white" stroke="black" points="914.5,-702.5 914.5,-721.5 976.5,-721.5 976.5,-702.5 914.5,-702.5"/>
<text text-anchor="middle" x="945.5" y="-709.5" font-family="Helvetica,sans-Serif" font-size="10.00">seterrorobj</text>
</a>
</g>
</g>
<!-- Node76&#45;&gt;Node77 -->
<g id="edge48" class="edge"><title>Node76&#45;&gt;Node77</title>
<path fill="none" stroke="midnightblue" d="M851.043,-712C867.094,-712 886.79,-712 903.956,-712"/>
<polygon fill="midnightblue" stroke="midnightblue" points="904.261,-715.5 914.261,-712 904.261,-708.5 904.261,-715.5"/>
</g>
<!-- Node118&#45;&gt;Node117 -->
<g id="edge53" class="edge"><title>Node118&#45;&gt;Node117</title>
<path fill="none" stroke="midnightblue" d="M251.448,-475.51C255.398,-478.119 259.178,-481.277 262,-485 297.439,-531.755 255.884,-571.156 298,-612 394.235,-705.329 563.88,-715.555 647.528,-714.371"/>
<polygon fill="midnightblue" stroke="midnightblue" points="647.849,-717.865 657.776,-714.162 647.707,-710.867 647.849,-717.865"/>
</g>
<!-- Node119&#45;&gt;Node19 -->
<g id="edge55" class="edge"><title>Node119&#45;&gt;Node19</title>
<path fill="none" stroke="midnightblue" d="M384.384,-390C431.801,-390 510.904,-390 579,-390 579,-390 579,-390 699,-390 768.256,-390 847.222,-375.049 896.467,-363.903"/>
<polygon fill="midnightblue" stroke="midnightblue" points="897.552,-367.245 906.511,-361.589 895.98,-360.424 897.552,-367.245"/>
</g>
<!-- Node121 -->
<g id="node41" class="node"><title>Node121</title>
<g id="a_node41"><a xlink:href="ldebug_8c.html#acaafc35d8e385c4d167229486165df6d" target="_top" xlink:title=" ">
<polygon fill="white" stroke="black" points="429.5,-38.5 429.5,-57.5 492.5,-57.5 492.5,-38.5 429.5,-38.5"/>
<text text-anchor="middle" x="461" y="-45.5" font-family="Helvetica,sans-Serif" font-size="10.00">lua_getinfo</text>
</a>
</g>
</g>
<!-- Node120&#45;&gt;Node121 -->
<g id="edge57" class="edge"><title>Node120&#45;&gt;Node121</title>
<path fill="none" stroke="midnightblue" d="M371.776,-76.411C386.59,-71.6406 404.691,-65.8112 420.634,-60.6771"/>
<polygon fill="midnightblue" stroke="midnightblue" points="421.787,-63.9828 430.233,-57.5859 419.642,-57.3198 421.787,-63.9828"/>
</g>
<!-- Node128 -->
<g id="node49" class="node"><title>Node128</title>
<g id="a_node49"><a xlink:href="ldebug_8c.html#ac1fc03c27ee46caa4037df2d70f22110" target="_top" xlink:title=" ">
<polygon fill="white" stroke="black" points="425,-0.5 425,-19.5 497,-19.5 497,-0.5 425,-0.5"/>
<text text-anchor="middle" x="461" y="-7.5" font-family="Helvetica,sans-Serif" font-size="10.00">lua_getstack</text>
</a>
</g>
</g>
<!-- Node120&#45;&gt;Node128 -->
<g id="edge68" class="edge"><title>Node120&#45;&gt;Node128</title>
<path fill="none" stroke="midnightblue" d="M353.678,-76.3853C368.525,-64.4196 395.216,-43.7641 420,-29 422.84,-27.3081 425.855,-25.6485 428.905,-24.0581"/>
<polygon fill="midnightblue" stroke="midnightblue" points="430.623,-27.1128 438.024,-19.5314 427.511,-20.8427 430.623,-27.1128"/>
</g>
<!-- Node129 -->
<g id="node50" class="node"><title>Node129</title>
<g id="a_node50"><a xlink:href="lapi_8c.html#ab190c226d38b289e6ca57683a9d4e0f0" target="_top" xlink:title=" ">
<polygon fill="white" stroke="black" points="420,-114.5 420,-133.5 502,-133.5 502,-114.5 420,-114.5"/>
<text text-anchor="middle" x="461" y="-121.5" font-family="Helvetica,sans-Serif" font-size="10.00">lua_pushfstring</text>
</a>
</g>
</g>
<!-- Node120&#45;&gt;Node129 -->
<g id="edge69" class="edge"><title>Node120&#45;&gt;Node129</title>
<path fill="none" stroke="midnightblue" d="M371.776,-95.589C386.59,-100.359 404.691,-106.189 420.634,-111.323"/>
<polygon fill="midnightblue" stroke="midnightblue" points="419.642,-114.68 430.233,-114.414 421.787,-108.017 419.642,-114.68"/>
</g>
<!-- Node122 -->
<g id="node42" class="node"><title>Node122</title>
<g id="a_node42"><a xlink:href="ldebug_8c.html#ad72fa774194e83872bac4e5bf6ec1160" target="_top" xlink:title=" ">
<polygon fill="white" stroke="black" points="549.5,-266.5 549.5,-285.5 610.5,-285.5 610.5,-266.5 549.5,-266.5"/>
<text text-anchor="middle" x="580" y="-273.5" font-family="Helvetica,sans-Serif" font-size="10.00">auxgetinfo</text>
</a>
</g>
</g>
<!-- Node121&#45;&gt;Node122 -->
<g id="edge58" class="edge"><title>Node121&#45;&gt;Node122</title>
<path fill="none" stroke="midnightblue" d="M469.674,-57.7147C478.201,-68.7702 492.072,-87.5594 502,-105 532.1,-157.877 559.286,-224.676 571.773,-256.896"/>
<polygon fill="midnightblue" stroke="midnightblue" points="568.579,-258.342 575.428,-266.426 575.115,-255.836 568.579,-258.342"/>
</g>
<!-- Node126 -->
<g id="node45" class="node"><title>Node126</title>
<g id="a_node45"><a xlink:href="ldebug_8c.html#a6e3195fc94af1f75142c2801ca8cf058" target="_top" xlink:title=" ">
<polygon fill="white" stroke="black" points="538,-38.5 538,-57.5 622,-57.5 622,-38.5 538,-38.5"/>
<text text-anchor="middle" x="580" y="-45.5" font-family="Helvetica,sans-Serif" font-size="10.00">collectvalidlines</text>
</a>
</g>
</g>
<!-- Node121&#45;&gt;Node126 -->
<g id="edge63" class="edge"><title>Node121&#45;&gt;Node126</title>
<path fill="none" stroke="midnightblue" d="M492.74,-48C503.423,-48 515.713,-48 527.606,-48"/>
<polygon fill="midnightblue" stroke="midnightblue" points="527.904,-51.5001 537.904,-48 527.904,-44.5001 527.904,-51.5001"/>
</g>
<!-- Node127 -->
<g id="node48" class="node"><title>Node127</title>
<g id="a_node48"><a xlink:href="ldebug_8c.html#a1f8af4428461705c53893e5ddb8b55aa" target="_top" xlink:title=" ">
<polygon fill="white" stroke="black" points="549.5,-0.5 549.5,-19.5 610.5,-19.5 610.5,-0.5 549.5,-0.5"/>
<text text-anchor="middle" x="580" y="-7.5" font-family="Helvetica,sans-Serif" font-size="10.00">swapextra</text>
</a>
</g>
</g>
<!-- Node121&#45;&gt;Node127 -->
<g id="edge67" class="edge"><title>Node121&#45;&gt;Node127</title>
<path fill="none" stroke="midnightblue" d="M491.524,-38.411C506.212,-33.6406 524.16,-27.8112 539.968,-22.6771"/>
<polygon fill="midnightblue" stroke="midnightblue" points="541.056,-26.0039 549.485,-19.5859 538.893,-19.3462 541.056,-26.0039"/>
</g>
<!-- Node122&#45;&gt;Node14 -->
<g id="edge59" class="edge"><title>Node122&#45;&gt;Node14</title>
<path fill="none" stroke="midnightblue" d="M610.572,-276C624.534,-276 641.416,-276 656.541,-276"/>
<polygon fill="midnightblue" stroke="midnightblue" points="656.674,-279.5 666.674,-276 656.674,-272.5 656.674,-279.5"/>
</g>
<!-- Node123 -->
<g id="node43" class="node"><title>Node123</title>
<g id="a_node43"><a xlink:href="ldebug_8c.html#a84af60873d130ffee87eb1721f3231e4" target="_top" xlink:title=" ">
<polygon fill="white" stroke="black" points="673,-304.5 673,-323.5 723,-323.5 723,-304.5 673,-304.5"/>
<text text-anchor="middle" x="698" y="-311.5" font-family="Helvetica,sans-Serif" font-size="10.00">funcinfo</text>
</a>
</g>
</g>
<!-- Node122&#45;&gt;Node123 -->
<g id="edge60" class="edge"><title>Node122&#45;&gt;Node123</title>
<path fill="none" stroke="midnightblue" d="M610.272,-285.589C626.279,-290.833 646.192,-297.356 662.899,-302.829"/>
<polygon fill="midnightblue" stroke="midnightblue" points="662.231,-306.293 672.824,-306.08 664.41,-299.641 662.231,-306.293"/>
</g>
<!-- Node124 -->
<g id="node44" class="node"><title>Node124</title>
<g id="a_node44"><a xlink:href="ldebug_8c.html#a118ab79b6b538a857353e4b9259667e1" target="_top" xlink:title=" ">
<polygon fill="white" stroke="red" points="662,-228.5 662,-247.5 734,-247.5 734,-228.5 662,-228.5"/>
<text text-anchor="middle" x="698" y="-235.5" font-family="Helvetica,sans-Serif" font-size="10.00">getfuncname</text>
</a>
</g>
</g>
<!-- Node122&#45;&gt;Node124 -->
<g id="edge62" class="edge"><title>Node122&#45;&gt;Node124</title>
<path fill="none" stroke="midnightblue" d="M610.272,-266.411C624.697,-261.686 642.293,-255.921 657.857,-250.823"/>
<polygon fill="midnightblue" stroke="midnightblue" points="659.324,-254.025 667.738,-247.586 657.145,-247.373 659.324,-254.025"/>
</g>
<!-- Node123&#45;&gt;Node17 -->
<g id="edge61" class="edge"><title>Node123&#45;&gt;Node17</title>
<path fill="none" stroke="midnightblue" d="M723.266,-314C736.708,-314 753.893,-314 769.897,-314"/>
<polygon fill="midnightblue" stroke="midnightblue" points="770.193,-317.5 780.193,-314 770.193,-310.5 770.193,-317.5"/>
</g>
<!-- Node70 -->
<g id="node46" class="node"><title>Node70</title>
<g id="a_node46"><a xlink:href="ltable_8c.html#a6c97fb2d6a020b0a6f852562fef93d97" target="_top" xlink:title=" ">
<polygon fill="white" stroke="red" points="916,-48.5 916,-67.5 975,-67.5 975,-48.5 916,-48.5"/>
<text text-anchor="middle" x="945.5" y="-55.5" font-family="Helvetica,sans-Serif" font-size="10.00">luaH_new</text>
</a>
</g>
</g>
<!-- Node126&#45;&gt;Node70 -->
<g id="edge64" class="edge"><title>Node126&#45;&gt;Node70</title>
<path fill="none" stroke="midnightblue" d="M622.344,-49.1374C693.142,-51.0851 836.615,-55.032 905.658,-56.9314"/>
<polygon fill="midnightblue" stroke="midnightblue" points="905.59,-60.4308 915.682,-57.2072 905.783,-53.4334 905.59,-60.4308"/>
</g>
<!-- Node89 -->
<g id="node47" class="node"><title>Node89</title>
<g id="a_node47"><a xlink:href="ltable_8c.html#a9eefa8191c63f55cffb6b7b58217467c" target="_top" xlink:title=" ">
<polygon fill="white" stroke="red" points="665.5,-0.5 665.5,-19.5 730.5,-19.5 730.5,-0.5 665.5,-0.5"/>
<text text-anchor="middle" x="698" y="-7.5" font-family="Helvetica,sans-Serif" font-size="10.00">luaH_setint</text>
</a>
</g>
</g>
<!-- Node126&#45;&gt;Node89 -->
<g id="edge66" class="edge"><title>Node126&#45;&gt;Node89</title>
<path fill="none" stroke="midnightblue" d="M610.272,-38.411C624.697,-33.6856 642.293,-27.9211 657.857,-22.8226"/>
<polygon fill="midnightblue" stroke="midnightblue" points="659.324,-26.0252 667.738,-19.5859 657.145,-19.373 659.324,-26.0252"/>
</g>
<!-- Node70&#45;&gt;Node9 -->
<g id="edge65" class="edge"><title>Node70&#45;&gt;Node9</title>
<path fill="none" stroke="midnightblue" d="M975.092,-60.4663C1058.11,-67.6277 1299.67,-88.4638 1400.24,-97.1391"/>
<polygon fill="midnightblue" stroke="midnightblue" points="1400.11,-100.641 1410.37,-98.0133 1400.71,-93.6668 1400.11,-100.641"/>
</g>
<!-- Node129&#45;&gt;Node19 -->
<g id="edge70" class="edge"><title>Node129&#45;&gt;Node19</title>
<path fill="none" stroke="midnightblue" d="M502.136,-129.968C578.096,-142.769 745.755,-178.329 863,-257 893.652,-277.567 919.509,-312.666 933.439,-333.957"/>
<polygon fill="midnightblue" stroke="midnightblue" points="930.496,-335.852 938.817,-342.411 936.402,-332.094 930.496,-335.852"/>
</g>
</g>
</svg>
