<?xml version="1.0" encoding="UTF-8" standalone="no"?>
<!DOCTYPE svg PUBLIC "-//W3C//DTD SVG 1.1//EN"
 "http://www.w3.org/Graphics/SVG/1.1/DTD/svg11.dtd">
<!-- Generated by graphviz version 2.38.0 (20140413.2041)
 -->
<!-- Title: str_unpack Pages: 1 -->
<svg width="1445pt" height="636pt"
 viewBox="0.00 0.00 1445.00 636.00" xmlns="http://www.w3.org/2000/svg" xmlns:xlink="http://www.w3.org/1999/xlink">
<g id="graph0" class="graph" transform="scale(1 1) rotate(0) translate(4 632)">
<title>str_unpack</title>
<polygon fill="white" stroke="none" points="-4,4 -4,-632 1441,-632 1441,4 -4,4"/>
<!-- Node1 -->
<g id="node1" class="node"><title>Node1</title>
<g id="a_node1"><a xlink:title=" ">
<polygon fill="#bfbfbf" stroke="black" points="0,-399.5 0,-418.5 65,-418.5 65,-399.5 0,-399.5"/>
<text text-anchor="middle" x="32.5" y="-406.5" font-family="Helvetica,sans-Serif" font-size="10.00">str_unpack</text>
</a>
</g>
</g>
<!-- Node2 -->
<g id="node2" class="node"><title>Node2</title>
<g id="a_node2"><a xlink:href="lstrlib_8c.html#a09c1ccdd2ecff511ba28d2154a59336e" target="_top" xlink:title=" ">
<polygon fill="white" stroke="black" points="104.5,-608.5 104.5,-627.5 187.5,-627.5 187.5,-608.5 104.5,-608.5"/>
<text text-anchor="middle" x="146" y="-615.5" font-family="Helvetica,sans-Serif" font-size="10.00">copywithendian</text>
</a>
</g>
</g>
<!-- Node1&#45;&gt;Node2 -->
<g id="edge1" class="edge"><title>Node1&#45;&gt;Node2</title>
<path fill="none" stroke="midnightblue" d="M34.6064,-418.648C38.4561,-448.244 53.7186,-539.064 101,-594 103.953,-597.432 107.524,-600.46 111.339,-603.106"/>
<polygon fill="midnightblue" stroke="midnightblue" points="109.566,-606.125 119.935,-608.3 113.186,-600.133 109.566,-606.125"/>
</g>
<!-- Node3 -->
<g id="node3" class="node"><title>Node3</title>
<g id="a_node3"><a xlink:href="lstrlib_8c.html#a22b9520cbe8f1b1b493e107acfa6a711" target="_top" xlink:title=" ">
<polygon fill="white" stroke="black" points="513,-532.5 513,-551.5 572,-551.5 572,-532.5 513,-532.5"/>
<text text-anchor="middle" x="542.5" y="-539.5" font-family="Helvetica,sans-Serif" font-size="10.00">getdetails</text>
</a>
</g>
</g>
<!-- Node1&#45;&gt;Node3 -->
<g id="edge2" class="edge"><title>Node1&#45;&gt;Node3</title>
<path fill="none" stroke="midnightblue" d="M35.8309,-418.551C41.9703,-441.383 60.9438,-499.008 101,-523 168.014,-563.139 408.166,-551.352 502.787,-544.923"/>
<polygon fill="midnightblue" stroke="midnightblue" points="503.066,-548.412 512.798,-544.226 502.579,-541.429 503.066,-548.412"/>
</g>
<!-- Node134 -->
<g id="node21" class="node"><title>Node134</title>
<g id="a_node21"><a xlink:href="lauxlib_8c.html#ac607576dd107a3120cd51948989f1ed2" target="_top" xlink:title=" ">
<polygon fill="white" stroke="black" points="730,-361.5 730,-380.5 803,-380.5 803,-361.5 730,-361.5"/>
<text text-anchor="middle" x="766.5" y="-368.5" font-family="Helvetica,sans-Serif" font-size="10.00">luaL_argerror</text>
</a>
</g>
</g>
<!-- Node1&#45;&gt;Node134 -->
<g id="edge45" class="edge"><title>Node1&#45;&gt;Node134</title>
<path fill="none" stroke="midnightblue" d="M46.7094,-399.418C59.8013,-390.457 80.7727,-377.507 101,-371 174.425,-347.381 196.37,-352 273.5,-352 273.5,-352 273.5,-352 543.5,-352 604.688,-352 675.017,-359.254 719.831,-364.797"/>
<polygon fill="midnightblue" stroke="midnightblue" points="719.463,-368.279 729.822,-366.058 720.339,-361.334 719.463,-368.279"/>
</g>
<!-- Node150 -->
<g id="node31" class="node"><title>Node150</title>
<g id="a_node31"><a xlink:href="lstrlib_8c.html#a1d1417c36ff4629b5fa8540daa9ca2bd" target="_top" xlink:title=" ">
<polygon fill="white" stroke="black" points="116.5,-494.5 116.5,-513.5 175.5,-513.5 175.5,-494.5 116.5,-494.5"/>
<text text-anchor="middle" x="146" y="-501.5" font-family="Helvetica,sans-Serif" font-size="10.00">initheader</text>
</a>
</g>
</g>
<!-- Node1&#45;&gt;Node150 -->
<g id="edge39" class="edge"><title>Node1&#45;&gt;Node150</title>
<path fill="none" stroke="midnightblue" d="M39.9146,-418.625C50.8216,-434.361 74.4023,-465.766 101,-485 103.339,-486.691 105.852,-488.273 108.448,-489.744"/>
<polygon fill="midnightblue" stroke="midnightblue" points="106.967,-492.917 117.469,-494.316 110.132,-486.673 106.967,-492.917"/>
</g>
<!-- Node151 -->
<g id="node32" class="node"><title>Node151</title>
<g id="a_node32"><a xlink:href="lapi_8c.html#adcec46ff05dfee9a3c4c05828b40c213" target="_top" xlink:title=" ">
<polygon fill="white" stroke="black" points="103.5,-456.5 103.5,-475.5 188.5,-475.5 188.5,-456.5 103.5,-456.5"/>
<text text-anchor="middle" x="146" y="-463.5" font-family="Helvetica,sans-Serif" font-size="10.00">lua_pushinteger</text>
</a>
</g>
</g>
<!-- Node1&#45;&gt;Node151 -->
<g id="edge40" class="edge"><title>Node1&#45;&gt;Node151</title>
<path fill="none" stroke="midnightblue" d="M49.3384,-418.542C62.8584,-426.535 82.9263,-438.041 101,-447 104.588,-448.778 108.382,-450.56 112.177,-452.28"/>
<polygon fill="midnightblue" stroke="midnightblue" points="110.937,-455.558 121.499,-456.393 113.763,-449.154 110.937,-455.558"/>
</g>
<!-- Node152 -->
<g id="node33" class="node"><title>Node152</title>
<g id="a_node33"><a xlink:href="lapi_8c.html#a2c325311534c23450cdf11931a8db0ae" target="_top" xlink:title=" ">
<polygon fill="white" stroke="black" points="982,-0.5 982,-19.5 1064,-19.5 1064,-0.5 982,-0.5"/>
<text text-anchor="middle" x="1023" y="-7.5" font-family="Helvetica,sans-Serif" font-size="10.00">lua_pushlstring</text>
</a>
</g>
</g>
<!-- Node1&#45;&gt;Node152 -->
<g id="edge41" class="edge"><title>Node1&#45;&gt;Node152</title>
<path fill="none" stroke="midnightblue" d="M34.4877,-399.137C41.2267,-337.694 85.959,-10 273.5,-10 273.5,-10 273.5,-10 767.5,-10 838.392,-10 920.391,-10 971.728,-10"/>
<polygon fill="midnightblue" stroke="midnightblue" points="971.888,-13.5001 981.888,-10 971.888,-6.5001 971.888,-13.5001"/>
</g>
<!-- Node153 -->
<g id="node34" class="node"><title>Node153</title>
<g id="a_node34"><a xlink:href="lapi_8c.html#a328625a03fbb5548f27b1af10f109f6a" target="_top" xlink:title=" ">
<polygon fill="white" stroke="black" points="102,-380.5 102,-399.5 190,-399.5 190,-380.5 102,-380.5"/>
<text text-anchor="middle" x="146" y="-387.5" font-family="Helvetica,sans-Serif" font-size="10.00">lua_pushnumber</text>
</a>
</g>
</g>
<!-- Node1&#45;&gt;Node153 -->
<g id="edge44" class="edge"><title>Node1&#45;&gt;Node153</title>
<path fill="none" stroke="midnightblue" d="M65.1532,-403.606C73.3862,-402.203 82.4874,-400.652 91.5096,-399.115"/>
<polygon fill="midnightblue" stroke="midnightblue" points="92.3419,-402.524 101.612,-397.393 91.166,-395.623 92.3419,-402.524"/>
</g>
<!-- Node154 -->
<g id="node35" class="node"><title>Node154</title>
<g id="a_node35"><a xlink:href="lauxlib_8c.html#a79405166c5a94624ebe0427e6b0c07e0" target="_top" xlink:title=" ">
<polygon fill="white" stroke="black" points="367,-266.5 367,-285.5 459,-285.5 459,-266.5 367,-266.5"/>
<text text-anchor="middle" x="413" y="-273.5" font-family="Helvetica,sans-Serif" font-size="10.00">luaL_checklstring</text>
</a>
</g>
</g>
<!-- Node1&#45;&gt;Node154 -->
<g id="edge46" class="edge"><title>Node1&#45;&gt;Node154</title>
<path fill="none" stroke="midnightblue" d="M39.6661,-399.403C50.2158,-383.831 73.2945,-353.27 101,-338 182.468,-293.099 291.871,-280.46 356.846,-277.056"/>
<polygon fill="midnightblue" stroke="midnightblue" points="357.057,-280.55 366.882,-276.586 356.729,-273.558 357.057,-280.55"/>
</g>
<!-- Node162 -->
<g id="node41" class="node"><title>Node162</title>
<g id="a_node41"><a xlink:href="lauxlib_8c.html#a7c46517055e0e8cb25e61b959709083a" target="_top" xlink:title=" ">
<polygon fill="white" stroke="black" points="101,-418.5 101,-437.5 191,-437.5 191,-418.5 101,-418.5"/>
<text text-anchor="middle" x="146" y="-425.5" font-family="Helvetica,sans-Serif" font-size="10.00">luaL_checkstack</text>
</a>
</g>
</g>
<!-- Node1&#45;&gt;Node162 -->
<g id="edge55" class="edge"><title>Node1&#45;&gt;Node162</title>
<path fill="none" stroke="midnightblue" d="M65.1532,-414.394C73.1991,-415.765 82.0742,-417.277 90.8943,-418.78"/>
<polygon fill="midnightblue" stroke="midnightblue" points="90.3362,-422.235 100.782,-420.465 91.5122,-415.335 90.3362,-422.235"/>
</g>
<!-- Node168 -->
<g id="node45" class="node"><title>Node168</title>
<g id="a_node45"><a xlink:href="lauxlib_8c.html#ab10ff110a5ba19b4385947de7834ee3c" target="_top" xlink:title=" ">
<polygon fill="white" stroke="black" points="104.5,-266.5 104.5,-285.5 187.5,-285.5 187.5,-266.5 104.5,-266.5"/>
<text text-anchor="middle" x="146" y="-273.5" font-family="Helvetica,sans-Serif" font-size="10.00">luaL_optinteger</text>
</a>
</g>
</g>
<!-- Node1&#45;&gt;Node168 -->
<g id="edge60" class="edge"><title>Node1&#45;&gt;Node168</title>
<path fill="none" stroke="midnightblue" d="M37.3952,-399.415C46.1165,-378.931 68.9899,-330.293 101,-300 104.602,-296.591 108.782,-293.51 113.103,-290.78"/>
<polygon fill="midnightblue" stroke="midnightblue" points="115.086,-293.678 122.032,-285.678 111.613,-287.601 115.086,-293.678"/>
</g>
<!-- Node173 -->
<g id="node49" class="node"><title>Node173</title>
<g id="a_node49"><a xlink:href="lstrlib_8c.html#a785f2c6df4ea95da11d05a3cfc71affe" target="_top" xlink:title=" ">
<polygon fill="white" stroke="black" points="120.5,-228.5 120.5,-247.5 171.5,-247.5 171.5,-228.5 120.5,-228.5"/>
<text text-anchor="middle" x="146" y="-235.5" font-family="Helvetica,sans-Serif" font-size="10.00">posrelat</text>
</a>
</g>
</g>
<!-- Node1&#45;&gt;Node173 -->
<g id="edge67" class="edge"><title>Node1&#45;&gt;Node173</title>
<path fill="none" stroke="midnightblue" d="M35.2273,-399.429C40.4325,-373.187 58.3149,-299.248 101,-257 103.911,-254.119 107.329,-251.644 110.951,-249.524"/>
<polygon fill="midnightblue" stroke="midnightblue" points="112.784,-252.523 120.205,-244.961 109.688,-246.245 112.784,-252.523"/>
</g>
<!-- Node174 -->
<g id="node50" class="node"><title>Node174</title>
<g id="a_node50"><a xlink:href="lstrlib_8c.html#a06e60d2c39a3041308dc6caa50c1d394" target="_top" xlink:title=" ">
<polygon fill="white" stroke="black" points="245,-570.5 245,-589.5 304,-589.5 304,-570.5 245,-570.5"/>
<text text-anchor="middle" x="274.5" y="-577.5" font-family="Helvetica,sans-Serif" font-size="10.00">unpackint</text>
</a>
</g>
</g>
<!-- Node1&#45;&gt;Node174 -->
<g id="edge68" class="edge"><title>Node1&#45;&gt;Node174</title>
<path fill="none" stroke="midnightblue" d="M34.7272,-418.504C38.7146,-445.164 53.8976,-520.982 101,-556 139.593,-584.692 196.815,-586.996 234.621,-584.626"/>
<polygon fill="midnightblue" stroke="midnightblue" points="235.035,-588.105 244.738,-583.852 234.5,-581.125 235.035,-588.105"/>
</g>
<!-- Node4 -->
<g id="node4" class="node"><title>Node4</title>
<g id="a_node4"><a xlink:href="lstrlib_8c.html#adcf5c53b9f1a52366c286fea5f9aeda7" target="_top" xlink:title=" ">
<polygon fill="white" stroke="black" points="627.5,-532.5 627.5,-551.5 683.5,-551.5 683.5,-532.5 627.5,-532.5"/>
<text text-anchor="middle" x="655.5" y="-539.5" font-family="Helvetica,sans-Serif" font-size="10.00">getoption</text>
</a>
</g>
</g>
<!-- Node3&#45;&gt;Node4 -->
<g id="edge3" class="edge"><title>Node3&#45;&gt;Node4</title>
<path fill="none" stroke="midnightblue" d="M572.085,-542C585.731,-542 602.242,-542 616.89,-542"/>
<polygon fill="midnightblue" stroke="midnightblue" points="617.16,-545.5 627.16,-542 617.16,-538.5 617.16,-545.5"/>
</g>
<!-- Node3&#45;&gt;Node134 -->
<g id="edge22" class="edge"><title>Node3&#45;&gt;Node134</title>
<path fill="none" stroke="midnightblue" d="M556.072,-532.316C592.704,-504.1 699.614,-421.75 744.875,-386.887"/>
<polygon fill="midnightblue" stroke="midnightblue" points="747.28,-389.453 753.066,-380.577 743.008,-383.907 747.28,-389.453"/>
</g>
<!-- Node5 -->
<g id="node5" class="node"><title>Node5</title>
<g id="a_node5"><a xlink:href="lstrlib_8c.html#a22adbe647ff5710f14b6f6c18ae0d5a4" target="_top" xlink:title=" ">
<polygon fill="white" stroke="red" points="867,-589.5 867,-608.5 916,-608.5 916,-589.5 867,-589.5"/>
<text text-anchor="middle" x="891.5" y="-596.5" font-family="Helvetica,sans-Serif" font-size="10.00">getnum</text>
</a>
</g>
</g>
<!-- Node4&#45;&gt;Node5 -->
<g id="edge4" class="edge"><title>Node4&#45;&gt;Node5</title>
<path fill="none" stroke="midnightblue" d="M683.692,-549.171C697.538,-552.786 714.648,-557.199 730,-561 773.767,-571.837 824.414,-583.719 856.919,-591.26"/>
<polygon fill="midnightblue" stroke="midnightblue" points="856.272,-594.703 866.804,-593.55 857.852,-587.884 856.272,-594.703"/>
</g>
<!-- Node7 -->
<g id="node6" class="node"><title>Node7</title>
<g id="a_node6"><a xlink:href="lstrlib_8c.html#a2e2809fc0c800ac97e4122f33434b94a" target="_top" xlink:title=" ">
<polygon fill="white" stroke="black" points="733,-532.5 733,-551.5 800,-551.5 800,-532.5 733,-532.5"/>
<text text-anchor="middle" x="766.5" y="-539.5" font-family="Helvetica,sans-Serif" font-size="10.00">getnumlimit</text>
</a>
</g>
</g>
<!-- Node4&#45;&gt;Node7 -->
<g id="edge5" class="edge"><title>Node4&#45;&gt;Node7</title>
<path fill="none" stroke="midnightblue" d="M683.724,-542C695.466,-542 709.485,-542 722.57,-542"/>
<polygon fill="midnightblue" stroke="midnightblue" points="722.803,-545.5 732.803,-542 722.803,-538.5 722.803,-545.5"/>
</g>
<!-- Node8 -->
<g id="node7" class="node"><title>Node8</title>
<g id="a_node7"><a xlink:href="lauxlib_8c.html#a6c51d83d29244779392551388913e08a" target="_top" xlink:title=" ">
<polygon fill="white" stroke="black" points="862,-532.5 862,-551.5 921,-551.5 921,-532.5 862,-532.5"/>
<text text-anchor="middle" x="891.5" y="-539.5" font-family="Helvetica,sans-Serif" font-size="10.00">luaL_error</text>
</a>
</g>
</g>
<!-- Node4&#45;&gt;Node8 -->
<g id="edge21" class="edge"><title>Node4&#45;&gt;Node8</title>
<path fill="none" stroke="midnightblue" d="M683.752,-533.2C697.465,-529.223 714.441,-524.978 730,-523 762.185,-518.907 770.741,-519.538 803,-523 819.2,-524.739 836.802,-528.238 851.943,-531.766"/>
<polygon fill="midnightblue" stroke="midnightblue" points="851.442,-535.246 861.984,-534.191 853.085,-528.441 851.442,-535.246"/>
</g>
<!-- Node7&#45;&gt;Node5 -->
<g id="edge6" class="edge"><title>Node7&#45;&gt;Node5</title>
<path fill="none" stroke="midnightblue" d="M788.087,-551.541C807.954,-560.747 838.246,-574.785 860.737,-585.207"/>
<polygon fill="midnightblue" stroke="midnightblue" points="859.301,-588.399 869.845,-589.428 862.244,-582.048 859.301,-588.399"/>
</g>
<!-- Node7&#45;&gt;Node8 -->
<g id="edge7" class="edge"><title>Node7&#45;&gt;Node8</title>
<path fill="none" stroke="midnightblue" d="M800.139,-542C815.902,-542 834.937,-542 851.463,-542"/>
<polygon fill="midnightblue" stroke="midnightblue" points="851.901,-545.5 861.901,-542 851.901,-538.5 851.901,-545.5"/>
</g>
<!-- Node9 -->
<g id="node8" class="node"><title>Node9</title>
<g id="a_node8"><a xlink:href="lapi_8c.html#a1de3afee1daece63d455f23818c883d9" target="_top" xlink:title=" ">
<polygon fill="white" stroke="red" points="1107,-266.5 1107,-285.5 1171,-285.5 1171,-266.5 1107,-266.5"/>
<text text-anchor="middle" x="1139" y="-273.5" font-family="Helvetica,sans-Serif" font-size="10.00">lua_concat</text>
</a>
</g>
</g>
<!-- Node8&#45;&gt;Node9 -->
<g id="edge8" class="edge"><title>Node8&#45;&gt;Node9</title>
<path fill="none" stroke="midnightblue" d="M901.438,-532.285C917.266,-515.085 951.264,-478.149 980,-447 1031.86,-390.787 1093.37,-324.255 1121.94,-293.366"/>
<polygon fill="midnightblue" stroke="midnightblue" points="1124.87,-295.355 1129.09,-285.637 1119.73,-290.602 1124.87,-295.355"/>
</g>
<!-- Node122 -->
<g id="node13" class="node"><title>Node122</title>
<g id="a_node13"><a xlink:href="lapi_8c.html#a6ba7b91143fe8a03910420d800de8e97" target="_top" xlink:title=" ">
<polygon fill="white" stroke="red" points="996,-532.5 996,-551.5 1050,-551.5 1050,-532.5 996,-532.5"/>
<text text-anchor="middle" x="1023" y="-539.5" font-family="Helvetica,sans-Serif" font-size="10.00">lua_error</text>
</a>
</g>
</g>
<!-- Node8&#45;&gt;Node122 -->
<g id="edge13" class="edge"><title>Node8&#45;&gt;Node122</title>
<path fill="none" stroke="midnightblue" d="M921.24,-542C940.277,-542 965.402,-542 985.8,-542"/>
<polygon fill="midnightblue" stroke="midnightblue" points="985.979,-545.5 995.979,-542 985.979,-538.5 985.979,-545.5"/>
</g>
<!-- Node123 -->
<g id="node14" class="node"><title>Node123</title>
<g id="a_node14"><a xlink:href="lapi_8c.html#a426c9cb1d582be3e43060c4772854e5a" target="_top" xlink:title=" ">
<polygon fill="white" stroke="red" points="980,-570.5 980,-589.5 1066,-589.5 1066,-570.5 980,-570.5"/>
<text text-anchor="middle" x="1023" y="-577.5" font-family="Helvetica,sans-Serif" font-size="10.00">lua_pushvfstring</text>
</a>
</g>
</g>
<!-- Node8&#45;&gt;Node123 -->
<g id="edge14" class="edge"><title>Node8&#45;&gt;Node123</title>
<path fill="none" stroke="midnightblue" d="M921.24,-550.433C938.373,-555.461 960.437,-561.935 979.549,-567.543"/>
<polygon fill="midnightblue" stroke="midnightblue" points="978.652,-570.928 989.233,-570.385 980.623,-564.211 978.652,-570.928"/>
</g>
<!-- Node124 -->
<g id="node15" class="node"><title>Node124</title>
<g id="a_node15"><a xlink:href="lauxlib_8c.html#a0f4d3c30c07eae36aa25605df84279a0" target="_top" xlink:title=" ">
<polygon fill="white" stroke="red" points="990.5,-456.5 990.5,-475.5 1055.5,-475.5 1055.5,-456.5 990.5,-456.5"/>
<text text-anchor="middle" x="1023" y="-463.5" font-family="Helvetica,sans-Serif" font-size="10.00">luaL_where</text>
</a>
</g>
</g>
<!-- Node8&#45;&gt;Node124 -->
<g id="edge15" class="edge"><title>Node8&#45;&gt;Node124</title>
<path fill="none" stroke="midnightblue" d="M908.901,-532.375C931.087,-519.355 970.866,-496.009 996.844,-480.764"/>
<polygon fill="midnightblue" stroke="midnightblue" points="998.879,-483.627 1005.73,-475.547 995.336,-477.59 998.879,-483.627"/>
</g>
<!-- Node10 -->
<g id="node9" class="node"><title>Node10</title>
<g id="a_node9"><a xlink:href="lstring_8c.html#ab41fb084ce3ea5e2779f6659ccc2484d" target="_top" xlink:title=" ">
<polygon fill="white" stroke="black" points="1218,-95.5 1218,-114.5 1290,-114.5 1290,-95.5 1218,-95.5"/>
<text text-anchor="middle" x="1254" y="-102.5" font-family="Helvetica,sans-Serif" font-size="10.00">luaS_newlstr</text>
</a>
</g>
</g>
<!-- Node9&#45;&gt;Node10 -->
<g id="edge9" class="edge"><title>Node9&#45;&gt;Node10</title>
<path fill="none" stroke="midnightblue" d="M1146.4,-266.316C1164.66,-238.687 1217.21,-159.158 1241.02,-123.127"/>
<polygon fill="midnightblue" stroke="midnightblue" points="1244.08,-124.85 1246.67,-114.577 1238.24,-120.991 1244.08,-124.85"/>
</g>
<!-- Node11 -->
<g id="node10" class="node"><title>Node11</title>
<g id="a_node10"><a xlink:href="lstring_8c.html#a9b2c32c59a280de24f20df1c7f0433a1" target="_top" xlink:title=" ">
<polygon fill="white" stroke="red" points="1352,-133.5 1352,-152.5 1417,-152.5 1417,-133.5 1352,-133.5"/>
<text text-anchor="middle" x="1384.5" y="-140.5" font-family="Helvetica,sans-Serif" font-size="10.00">internshrstr</text>
</a>
</g>
</g>
<!-- Node10&#45;&gt;Node11 -->
<g id="edge10" class="edge"><title>Node10&#45;&gt;Node11</title>
<path fill="none" stroke="midnightblue" d="M1287.43,-114.589C1303.96,-119.478 1324.25,-125.479 1341.92,-130.704"/>
<polygon fill="midnightblue" stroke="midnightblue" points="1341.39,-134.197 1351.97,-133.677 1343.38,-127.485 1341.39,-134.197"/>
</g>
<!-- Node16 -->
<g id="node11" class="node"><title>Node16</title>
<g id="a_node11"><a xlink:href="lmem_8c.html#a8fc7df43dd830ccbe7581fd53f65bdbe" target="_top" xlink:title=" ">
<polygon fill="white" stroke="red" points="1350,-95.5 1350,-114.5 1419,-114.5 1419,-95.5 1350,-95.5"/>
<text text-anchor="middle" x="1384.5" y="-102.5" font-family="Helvetica,sans-Serif" font-size="10.00">luaM_toobig</text>
</a>
</g>
</g>
<!-- Node10&#45;&gt;Node16 -->
<g id="edge11" class="edge"><title>Node10&#45;&gt;Node16</title>
<path fill="none" stroke="midnightblue" d="M1290.11,-105C1305.35,-105 1323.37,-105 1339.49,-105"/>
<polygon fill="midnightblue" stroke="midnightblue" points="1339.76,-108.5 1349.76,-105 1339.76,-101.5 1339.76,-108.5"/>
</g>
<!-- Node29 -->
<g id="node12" class="node"><title>Node29</title>
<g id="a_node12"><a xlink:href="lstring_8c.html#a8790c7d6e706f935dd6e9eefd068921c" target="_top" xlink:title=" ">
<polygon fill="white" stroke="red" points="1332,-57.5 1332,-76.5 1437,-76.5 1437,-57.5 1332,-57.5"/>
<text text-anchor="middle" x="1384.5" y="-64.5" font-family="Helvetica,sans-Serif" font-size="10.00">luaS_createlngstrobj</text>
</a>
</g>
</g>
<!-- Node10&#45;&gt;Node29 -->
<g id="edge12" class="edge"><title>Node10&#45;&gt;Node29</title>
<path fill="none" stroke="midnightblue" d="M1287.43,-95.411C1303.71,-90.5956 1323.64,-84.7012 1341.12,-79.532"/>
<polygon fill="midnightblue" stroke="midnightblue" points="1342.49,-82.7781 1351.08,-76.5859 1340.5,-76.0655 1342.49,-82.7781"/>
</g>
<!-- Node125 -->
<g id="node16" class="node"><title>Node125</title>
<g id="a_node16"><a xlink:href="ldebug_8c.html#acaafc35d8e385c4d167229486165df6d" target="_top" xlink:title=" ">
<polygon fill="white" stroke="black" points="1107.5,-418.5 1107.5,-437.5 1170.5,-437.5 1170.5,-418.5 1107.5,-418.5"/>
<text text-anchor="middle" x="1139" y="-425.5" font-family="Helvetica,sans-Serif" font-size="10.00">lua_getinfo</text>
</a>
</g>
</g>
<!-- Node124&#45;&gt;Node125 -->
<g id="edge16" class="edge"><title>Node124&#45;&gt;Node125</title>
<path fill="none" stroke="midnightblue" d="M1052.77,-456.411C1066.94,-451.686 1084.24,-445.921 1099.53,-440.823"/>
<polygon fill="midnightblue" stroke="midnightblue" points="1100.86,-444.069 1109.24,-437.586 1098.65,-437.428 1100.86,-444.069"/>
</g>
<!-- Node132 -->
<g id="node20" class="node"><title>Node132</title>
<g id="a_node20"><a xlink:href="ldebug_8c.html#ac1fc03c27ee46caa4037df2d70f22110" target="_top" xlink:title=" ">
<polygon fill="white" stroke="black" points="1103,-475.5 1103,-494.5 1175,-494.5 1175,-475.5 1103,-475.5"/>
<text text-anchor="middle" x="1139" y="-482.5" font-family="Helvetica,sans-Serif" font-size="10.00">lua_getstack</text>
</a>
</g>
</g>
<!-- Node124&#45;&gt;Node132 -->
<g id="edge20" class="edge"><title>Node124&#45;&gt;Node132</title>
<path fill="none" stroke="midnightblue" d="M1055.76,-471.293C1067.18,-473.197 1080.3,-475.384 1092.66,-477.444"/>
<polygon fill="midnightblue" stroke="midnightblue" points="1092.37,-480.943 1102.81,-479.135 1093.52,-474.039 1092.37,-480.943"/>
</g>
<!-- Node126 -->
<g id="node17" class="node"><title>Node126</title>
<g id="a_node17"><a xlink:href="ldebug_8c.html#ad72fa774194e83872bac4e5bf6ec1160" target="_top" xlink:title=" ">
<polygon fill="white" stroke="red" points="1223.5,-418.5 1223.5,-437.5 1284.5,-437.5 1284.5,-418.5 1223.5,-418.5"/>
<text text-anchor="middle" x="1254" y="-425.5" font-family="Helvetica,sans-Serif" font-size="10.00">auxgetinfo</text>
</a>
</g>
</g>
<!-- Node125&#45;&gt;Node126 -->
<g id="edge17" class="edge"><title>Node125&#45;&gt;Node126</title>
<path fill="none" stroke="midnightblue" d="M1170.58,-428C1183.6,-428 1198.97,-428 1212.88,-428"/>
<polygon fill="midnightblue" stroke="midnightblue" points="1213.18,-431.5 1223.18,-428 1213.18,-424.5 1213.18,-431.5"/>
</g>
<!-- Node130 -->
<g id="node18" class="node"><title>Node130</title>
<g id="a_node18"><a xlink:href="ldebug_8c.html#a6e3195fc94af1f75142c2801ca8cf058" target="_top" xlink:title=" ">
<polygon fill="white" stroke="red" points="1212,-380.5 1212,-399.5 1296,-399.5 1296,-380.5 1212,-380.5"/>
<text text-anchor="middle" x="1254" y="-387.5" font-family="Helvetica,sans-Serif" font-size="10.00">collectvalidlines</text>
</a>
</g>
</g>
<!-- Node125&#45;&gt;Node130 -->
<g id="edge18" class="edge"><title>Node125&#45;&gt;Node130</title>
<path fill="none" stroke="midnightblue" d="M1168.51,-418.411C1182.57,-413.686 1199.71,-407.921 1214.87,-402.823"/>
<polygon fill="midnightblue" stroke="midnightblue" points="1216.13,-406.091 1224.49,-399.586 1213.9,-399.456 1216.13,-406.091"/>
</g>
<!-- Node131 -->
<g id="node19" class="node"><title>Node131</title>
<g id="a_node19"><a xlink:href="ldebug_8c.html#a1f8af4428461705c53893e5ddb8b55aa" target="_top" xlink:title=" ">
<polygon fill="white" stroke="black" points="1223.5,-456.5 1223.5,-475.5 1284.5,-475.5 1284.5,-456.5 1223.5,-456.5"/>
<text text-anchor="middle" x="1254" y="-463.5" font-family="Helvetica,sans-Serif" font-size="10.00">swapextra</text>
</a>
</g>
</g>
<!-- Node125&#45;&gt;Node131 -->
<g id="edge19" class="edge"><title>Node125&#45;&gt;Node131</title>
<path fill="none" stroke="midnightblue" d="M1168.51,-437.589C1182.57,-442.314 1199.71,-448.079 1214.87,-453.177"/>
<polygon fill="midnightblue" stroke="midnightblue" points="1213.9,-456.544 1224.49,-456.414 1216.13,-449.909 1213.9,-456.544"/>
</g>
<!-- Node134&#45;&gt;Node8 -->
<g id="edge25" class="edge"><title>Node134&#45;&gt;Node8</title>
<path fill="none" stroke="midnightblue" d="M777.378,-380.832C785.216,-389.088 795.985,-401.508 803,-414 826.951,-456.648 806.237,-481.681 839,-518 842.84,-522.257 847.592,-525.819 852.643,-528.78"/>
<polygon fill="midnightblue" stroke="midnightblue" points="851.423,-532.086 861.925,-533.485 854.588,-525.842 851.423,-532.086"/>
</g>
<!-- Node134&#45;&gt;Node125 -->
<g id="edge23" class="edge"><title>Node134&#45;&gt;Node125</title>
<path fill="none" stroke="midnightblue" d="M803.025,-376.465C872.077,-387.089 1024.03,-410.466 1097.13,-421.712"/>
<polygon fill="midnightblue" stroke="midnightblue" points="1096.91,-425.22 1107.33,-423.281 1097.97,-418.301 1096.91,-425.22"/>
</g>
<!-- Node134&#45;&gt;Node132 -->
<g id="edge24" class="edge"><title>Node134&#45;&gt;Node132</title>
<path fill="none" stroke="midnightblue" d="M779.988,-380.624C811.41,-404.153 897.169,-464.185 980,-485 1017.05,-494.31 1060.54,-493.491 1092.51,-490.808"/>
<polygon fill="midnightblue" stroke="midnightblue" points="1093.25,-494.254 1102.88,-489.839 1092.6,-487.285 1093.25,-494.254"/>
</g>
<!-- Node135 -->
<g id="node22" class="node"><title>Node135</title>
<g id="a_node22"><a xlink:href="lauxlib_8c.html#a4f35430f7ecfcbd5f507e550937046b4" target="_top" xlink:title=" ">
<polygon fill="white" stroke="black" points="839,-247.5 839,-266.5 944,-266.5 944,-247.5 839,-247.5"/>
<text text-anchor="middle" x="891.5" y="-254.5" font-family="Helvetica,sans-Serif" font-size="10.00">pushglobalfuncname</text>
</a>
</g>
</g>
<!-- Node134&#45;&gt;Node135 -->
<g id="edge26" class="edge"><title>Node134&#45;&gt;Node135</title>
<path fill="none" stroke="midnightblue" d="M777.987,-361.28C798.956,-341.846 846.275,-297.989 872.372,-273.801"/>
<polygon fill="midnightblue" stroke="midnightblue" points="875.084,-276.06 880.04,-266.695 870.326,-270.926 875.084,-276.06"/>
</g>
<!-- Node135&#45;&gt;Node125 -->
<g id="edge33" class="edge"><title>Node135&#45;&gt;Node125</title>
<path fill="none" stroke="midnightblue" d="M902.52,-266.736C918.297,-281.821 950.209,-311.358 980,-333 1023.84,-364.846 1078.79,-396.117 1110.99,-413.647"/>
<polygon fill="midnightblue" stroke="midnightblue" points="1109.36,-416.748 1119.82,-418.424 1112.69,-410.59 1109.36,-416.748"/>
</g>
<!-- Node136 -->
<g id="node23" class="node"><title>Node136</title>
<g id="a_node23"><a xlink:href="lauxlib_8c.html#a36c8f149b779f8c9a5c042ea9784d80a" target="_top" xlink:title=" ">
<polygon fill="white" stroke="red" points="998.5,-266.5 998.5,-285.5 1047.5,-285.5 1047.5,-266.5 998.5,-266.5"/>
<text text-anchor="middle" x="1023" y="-273.5" font-family="Helvetica,sans-Serif" font-size="10.00">findfield</text>
</a>
</g>
</g>
<!-- Node135&#45;&gt;Node136 -->
<g id="edge27" class="edge"><title>Node135&#45;&gt;Node136</title>
<path fill="none" stroke="midnightblue" d="M944.054,-264.564C958.858,-266.736 974.624,-269.049 988.075,-271.023"/>
<polygon fill="midnightblue" stroke="midnightblue" points="987.901,-274.534 998.303,-272.523 988.917,-267.609 987.901,-274.534"/>
</g>
<!-- Node144 -->
<g id="node24" class="node"><title>Node144</title>
<g id="a_node24"><a xlink:href="lapi_8c.html#a111bd3fa34fe656f415edae5e343e13e" target="_top" xlink:title=" ">
<polygon fill="white" stroke="black" points="995,-190.5 995,-209.5 1051,-209.5 1051,-190.5 995,-190.5"/>
<text text-anchor="middle" x="1023" y="-197.5" font-family="Helvetica,sans-Serif" font-size="10.00">lua_copy</text>
</a>
</g>
</g>
<!-- Node135&#45;&gt;Node144 -->
<g id="edge29" class="edge"><title>Node135&#45;&gt;Node144</title>
<path fill="none" stroke="midnightblue" d="M914.175,-247.459C935.186,-238.212 967.27,-224.09 990.981,-213.653"/>
<polygon fill="midnightblue" stroke="midnightblue" points="992.511,-216.804 1000.25,-209.572 989.691,-210.397 992.511,-216.804"/>
</g>
<!-- Node145 -->
<g id="node26" class="node"><title>Node145</title>
<g id="a_node26"><a xlink:href="lapi_8c.html#a8b47f1b5685c3f8018ba926abb99af24" target="_top" xlink:title=" ">
<polygon fill="white" stroke="red" points="990.5,-152.5 990.5,-171.5 1055.5,-171.5 1055.5,-152.5 990.5,-152.5"/>
<text text-anchor="middle" x="1023" y="-159.5" font-family="Helvetica,sans-Serif" font-size="10.00">lua_getfield</text>
</a>
</g>
</g>
<!-- Node135&#45;&gt;Node145 -->
<g id="edge31" class="edge"><title>Node135&#45;&gt;Node145</title>
<path fill="none" stroke="midnightblue" d="M901.974,-247.088C917.265,-231.5 948.831,-200.979 980,-181 982.611,-179.326 985.394,-177.724 988.237,-176.21"/>
<polygon fill="midnightblue" stroke="midnightblue" points="989.967,-179.259 997.384,-171.694 986.868,-172.982 989.967,-179.259"/>
</g>
<!-- Node147 -->
<g id="node27" class="node"><title>Node147</title>
<g id="a_node27"><a xlink:href="lapi_8c.html#afbb08ecb69421875494105d4de68e5bf" target="_top" xlink:title=" ">
<polygon fill="white" stroke="black" points="992,-228.5 992,-247.5 1054,-247.5 1054,-228.5 992,-228.5"/>
<text text-anchor="middle" x="1023" y="-235.5" font-family="Helvetica,sans-Serif" font-size="10.00">lua_gettop</text>
</a>
</g>
</g>
<!-- Node135&#45;&gt;Node147 -->
<g id="edge34" class="edge"><title>Node135&#45;&gt;Node147</title>
<path fill="none" stroke="midnightblue" d="M944.054,-249.436C956.601,-247.595 969.839,-245.653 981.773,-243.902"/>
<polygon fill="midnightblue" stroke="midnightblue" points="982.488,-247.335 991.874,-242.42 981.472,-240.409 982.488,-247.335"/>
</g>
<!-- Node148 -->
<g id="node28" class="node"><title>Node148</title>
<g id="a_node28"><a xlink:href="lapi_8c.html#a771d300f2e64b2197d1df9bf31660ebf" target="_top" xlink:title=" ">
<polygon fill="white" stroke="black" points="983,-76.5 983,-95.5 1063,-95.5 1063,-76.5 983,-76.5"/>
<text text-anchor="middle" x="1023" y="-83.5" font-family="Helvetica,sans-Serif" font-size="10.00">lua_pushstring</text>
</a>
</g>
</g>
<!-- Node135&#45;&gt;Node148 -->
<g id="edge35" class="edge"><title>Node135&#45;&gt;Node148</title>
<path fill="none" stroke="midnightblue" d="M895.627,-247.46C904.644,-221.299 933.087,-147.548 980,-105 981.686,-103.471 983.515,-102.047 985.436,-100.724"/>
<polygon fill="midnightblue" stroke="midnightblue" points="987.41,-103.624 994.275,-95.5548 983.876,-97.582 987.41,-103.624"/>
</g>
<!-- Node149 -->
<g id="node30" class="node"><title>Node149</title>
<g id="a_node30"><a xlink:href="lapi_8c.html#adaa30f0d34786144c94644039d1d1b6e" target="_top" xlink:title=" ">
<polygon fill="white" stroke="black" points="992,-304.5 992,-323.5 1054,-323.5 1054,-304.5 992,-304.5"/>
<text text-anchor="middle" x="1023" y="-311.5" font-family="Helvetica,sans-Serif" font-size="10.00">lua_settop</text>
</a>
</g>
</g>
<!-- Node135&#45;&gt;Node149 -->
<g id="edge38" class="edge"><title>Node135&#45;&gt;Node149</title>
<path fill="none" stroke="midnightblue" d="M914.175,-266.541C935.186,-275.788 967.27,-289.91 990.981,-300.347"/>
<polygon fill="midnightblue" stroke="midnightblue" points="989.691,-303.603 1000.25,-304.428 992.511,-297.196 989.691,-303.603"/>
</g>
<!-- Node136&#45;&gt;Node9 -->
<g id="edge28" class="edge"><title>Node136&#45;&gt;Node9</title>
<path fill="none" stroke="midnightblue" d="M1047.62,-276C1061.64,-276 1079.81,-276 1096.18,-276"/>
<polygon fill="midnightblue" stroke="midnightblue" points="1096.62,-279.5 1106.62,-276 1096.62,-272.5 1096.62,-279.5"/>
</g>
<!-- Node138 -->
<g id="node25" class="node"><title>Node138</title>
<g id="a_node25"><a xlink:href="lapi_8c.html#ae54b9bb381b32c86235a084984e40215" target="_top" xlink:title=" ">
<polygon fill="white" stroke="black" points="1107,-152.5 1107,-171.5 1171,-171.5 1171,-152.5 1107,-152.5"/>
<text text-anchor="middle" x="1139" y="-159.5" font-family="Helvetica,sans-Serif" font-size="10.00">index2addr</text>
</a>
</g>
</g>
<!-- Node144&#45;&gt;Node138 -->
<g id="edge30" class="edge"><title>Node144&#45;&gt;Node138</title>
<path fill="none" stroke="midnightblue" d="M1051.02,-190.995C1065.52,-186.16 1083.64,-180.118 1099.59,-174.803"/>
<polygon fill="midnightblue" stroke="midnightblue" points="1100.8,-178.088 1109.18,-171.605 1098.59,-171.447 1100.8,-178.088"/>
</g>
<!-- Node145&#45;&gt;Node138 -->
<g id="edge32" class="edge"><title>Node145&#45;&gt;Node138</title>
<path fill="none" stroke="midnightblue" d="M1055.76,-162C1068.46,-162 1083.26,-162 1096.78,-162"/>
<polygon fill="midnightblue" stroke="midnightblue" points="1096.81,-165.5 1106.81,-162 1096.81,-158.5 1096.81,-165.5"/>
</g>
<!-- Node35 -->
<g id="node29" class="node"><title>Node35</title>
<g id="a_node29"><a xlink:href="lstring_8c.html#a6d47e53be6b8e58202bb927752f4824b" target="_top" xlink:title=" ">
<polygon fill="white" stroke="black" points="1109.5,-76.5 1109.5,-95.5 1168.5,-95.5 1168.5,-76.5 1109.5,-76.5"/>
<text text-anchor="middle" x="1139" y="-83.5" font-family="Helvetica,sans-Serif" font-size="10.00">luaS_new</text>
</a>
</g>
</g>
<!-- Node148&#45;&gt;Node35 -->
<g id="edge36" class="edge"><title>Node148&#45;&gt;Node35</title>
<path fill="none" stroke="midnightblue" d="M1063.23,-86C1074.87,-86 1087.61,-86 1099.21,-86"/>
<polygon fill="midnightblue" stroke="midnightblue" points="1099.49,-89.5001 1109.49,-86 1099.49,-82.5001 1099.49,-89.5001"/>
</g>
<!-- Node35&#45;&gt;Node10 -->
<g id="edge37" class="edge"><title>Node35&#45;&gt;Node10</title>
<path fill="none" stroke="midnightblue" d="M1168.51,-90.7945C1180.39,-92.7919 1194.48,-95.1605 1207.71,-97.3853"/>
<polygon fill="midnightblue" stroke="midnightblue" points="1207.17,-100.844 1217.61,-99.0502 1208.33,-93.9404 1207.17,-100.844"/>
</g>
<!-- Node152&#45;&gt;Node10 -->
<g id="edge43" class="edge"><title>Node152&#45;&gt;Node10</title>
<path fill="none" stroke="midnightblue" d="M1052.07,-19.5802C1082.83,-30.2963 1133.46,-48.5792 1176,-67 1192.83,-74.2882 1211.27,-83.3492 1225.89,-90.7951"/>
<polygon fill="midnightblue" stroke="midnightblue" points="1224.39,-93.9602 1234.88,-95.42 1227.59,-87.7348 1224.39,-93.9602"/>
</g>
<!-- Node152&#45;&gt;Node35 -->
<g id="edge42" class="edge"><title>Node152&#45;&gt;Node35</title>
<path fill="none" stroke="midnightblue" d="M1041.82,-19.6327C1049.39,-23.8622 1058.23,-28.9969 1066,-34 1083.82,-45.4796 1103.26,-59.6249 1117.45,-70.2628"/>
<polygon fill="midnightblue" stroke="midnightblue" points="1115.45,-73.1407 1125.54,-76.3779 1119.67,-67.5562 1115.45,-73.1407"/>
</g>
<!-- Node155 -->
<g id="node36" class="node"><title>Node155</title>
<g id="a_node36"><a xlink:href="lapi_8c.html#a3fc7dbcac3f2610f3d687ec15343bd3f" target="_top" xlink:title=" ">
<polygon fill="white" stroke="black" points="988.5,-114.5 988.5,-133.5 1057.5,-133.5 1057.5,-114.5 988.5,-114.5"/>
<text text-anchor="middle" x="1023" y="-121.5" font-family="Helvetica,sans-Serif" font-size="10.00">lua_tolstring</text>
</a>
</g>
</g>
<!-- Node154&#45;&gt;Node155 -->
<g id="edge47" class="edge"><title>Node154&#45;&gt;Node155</title>
<path fill="none" stroke="midnightblue" d="M443.418,-266.444C451.471,-263.614 460.143,-260.366 468,-257 553.508,-220.371 561.477,-162 654.5,-162 654.5,-162 654.5,-162 767.5,-162 842.312,-162 928.152,-145.739 978.578,-134.492"/>
<polygon fill="midnightblue" stroke="midnightblue" points="979.503,-137.871 988.481,-132.245 977.954,-131.044 979.503,-137.871"/>
</g>
<!-- Node156 -->
<g id="node38" class="node"><title>Node156</title>
<g id="a_node38"><a xlink:href="lauxlib_8c.html#ab8e946260debec8d4bbc714b76a1613b" target="_top" xlink:title=" ">
<polygon fill="white" stroke="black" points="515,-266.5 515,-285.5 570,-285.5 570,-266.5 515,-266.5"/>
<text text-anchor="middle" x="542.5" y="-273.5" font-family="Helvetica,sans-Serif" font-size="10.00">tag_error</text>
</a>
</g>
</g>
<!-- Node154&#45;&gt;Node156 -->
<g id="edge51" class="edge"><title>Node154&#45;&gt;Node156</title>
<path fill="none" stroke="midnightblue" d="M459.311,-276C474.14,-276 490.427,-276 504.562,-276"/>
<polygon fill="midnightblue" stroke="midnightblue" points="504.893,-279.5 514.893,-276 504.893,-272.5 504.893,-279.5"/>
</g>
<!-- Node155&#45;&gt;Node138 -->
<g id="edge48" class="edge"><title>Node155&#45;&gt;Node138</title>
<path fill="none" stroke="midnightblue" d="M1052.77,-133.589C1066.94,-138.314 1084.24,-144.079 1099.53,-149.177"/>
<polygon fill="midnightblue" stroke="midnightblue" points="1098.65,-152.572 1109.24,-152.414 1100.86,-145.931 1098.65,-152.572"/>
</g>
<!-- Node25 -->
<g id="node37" class="node"><title>Node25</title>
<g id="a_node37"><a xlink:href="lobject_8c.html#a00c5c37438b02ff7efcf8e8dfa98da7c" target="_top" xlink:title=" ">
<polygon fill="white" stroke="black" points="1102,-114.5 1102,-133.5 1176,-133.5 1176,-114.5 1102,-114.5"/>
<text text-anchor="middle" x="1139" y="-121.5" font-family="Helvetica,sans-Serif" font-size="10.00">luaO_tostring</text>
</a>
</g>
</g>
<!-- Node155&#45;&gt;Node25 -->
<g id="edge49" class="edge"><title>Node155&#45;&gt;Node25</title>
<path fill="none" stroke="midnightblue" d="M1057.59,-124C1068.25,-124 1080.23,-124 1091.63,-124"/>
<polygon fill="midnightblue" stroke="midnightblue" points="1091.87,-127.5 1101.87,-124 1091.87,-120.5 1091.87,-127.5"/>
</g>
<!-- Node25&#45;&gt;Node10 -->
<g id="edge50" class="edge"><title>Node25&#45;&gt;Node10</title>
<path fill="none" stroke="midnightblue" d="M1176.06,-117.936C1186.15,-116.241 1197.23,-114.377 1207.78,-112.604"/>
<polygon fill="midnightblue" stroke="midnightblue" points="1208.38,-116.051 1217.66,-110.941 1207.22,-109.148 1208.38,-116.051"/>
</g>
<!-- Node157 -->
<g id="node39" class="node"><title>Node157</title>
<g id="a_node39"><a xlink:href="lapi_8c.html#a7d64f87addab440bbda96bb088816e17" target="_top" xlink:title=" ">
<polygon fill="white" stroke="black" points="617,-266.5 617,-285.5 694,-285.5 694,-266.5 617,-266.5"/>
<text text-anchor="middle" x="655.5" y="-273.5" font-family="Helvetica,sans-Serif" font-size="10.00">lua_typename</text>
</a>
</g>
</g>
<!-- Node156&#45;&gt;Node157 -->
<g id="edge52" class="edge"><title>Node156&#45;&gt;Node157</title>
<path fill="none" stroke="midnightblue" d="M570.087,-276C581.011,-276 594.007,-276 606.489,-276"/>
<polygon fill="midnightblue" stroke="midnightblue" points="606.796,-279.5 616.796,-276 606.796,-272.5 606.796,-279.5"/>
</g>
<!-- Node158 -->
<g id="node40" class="node"><title>Node158</title>
<g id="a_node40"><a xlink:href="lauxlib_8c.html#a49f5eae5db02430a59c67dff7b06d98f" target="_top" xlink:title=" ">
<polygon fill="white" stroke="red" points="628,-304.5 628,-323.5 683,-323.5 683,-304.5 628,-304.5"/>
<text text-anchor="middle" x="655.5" y="-311.5" font-family="Helvetica,sans-Serif" font-size="10.00">typeerror</text>
</a>
</g>
</g>
<!-- Node156&#45;&gt;Node158 -->
<g id="edge53" class="edge"><title>Node156&#45;&gt;Node158</title>
<path fill="none" stroke="midnightblue" d="M570.087,-285.102C584.398,-290.001 602.267,-296.118 617.875,-301.462"/>
<polygon fill="midnightblue" stroke="midnightblue" points="617.15,-304.913 627.745,-304.841 619.418,-298.29 617.15,-304.913"/>
</g>
<!-- Node158&#45;&gt;Node134 -->
<g id="edge54" class="edge"><title>Node158&#45;&gt;Node134</title>
<path fill="none" stroke="midnightblue" d="M674.99,-323.669C692.32,-332.731 718.441,-346.391 738.175,-356.711"/>
<polygon fill="midnightblue" stroke="midnightblue" points="736.799,-359.941 747.283,-361.474 740.043,-353.738 736.799,-359.941"/>
</g>
<!-- Node162&#45;&gt;Node8 -->
<g id="edge59" class="edge"><title>Node162&#45;&gt;Node8</title>
<path fill="none" stroke="midnightblue" d="M191.076,-428C243.664,-428 334.248,-428 412,-428 412,-428 412,-428 656.5,-428 744.726,-428 834.48,-494.304 872.119,-525.78"/>
<polygon fill="midnightblue" stroke="midnightblue" points="869.861,-528.455 879.741,-532.28 874.404,-523.128 869.861,-528.455"/>
</g>
<!-- Node163 -->
<g id="node42" class="node"><title>Node163</title>
<g id="a_node42"><a xlink:href="lapi_8c.html#a1d762b92d5d82d6fa9f54ccf5c89d6a2" target="_top" xlink:title=" ">
<polygon fill="white" stroke="black" points="232,-456.5 232,-475.5 317,-475.5 317,-456.5 232,-456.5"/>
<text text-anchor="middle" x="274.5" y="-463.5" font-family="Helvetica,sans-Serif" font-size="10.00">lua_checkstack</text>
</a>
</g>
</g>
<!-- Node162&#45;&gt;Node163 -->
<g id="edge56" class="edge"><title>Node162&#45;&gt;Node163</title>
<path fill="none" stroke="midnightblue" d="M178.921,-437.589C194.952,-442.404 214.574,-448.299 231.782,-453.468"/>
<polygon fill="midnightblue" stroke="midnightblue" points="231.005,-456.889 241.589,-456.414 233.019,-450.185 231.005,-456.889"/>
</g>
<!-- Node164 -->
<g id="node43" class="node"><title>Node164</title>
<g id="a_node43"><a xlink:href="lapi_8c.html#ab3a8303d450a61e55f7928da1fe14302" target="_top" xlink:title=" ">
<polygon fill="white" stroke="red" points="382.5,-494.5 382.5,-513.5 443.5,-513.5 443.5,-494.5 382.5,-494.5"/>
<text text-anchor="middle" x="413" y="-501.5" font-family="Helvetica,sans-Serif" font-size="10.00">growstack</text>
</a>
</g>
</g>
<!-- Node163&#45;&gt;Node164 -->
<g id="edge57" class="edge"><title>Node163&#45;&gt;Node164</title>
<path fill="none" stroke="midnightblue" d="M309.945,-475.589C328.998,-480.893 352.753,-487.506 372.55,-493.017"/>
<polygon fill="midnightblue" stroke="midnightblue" points="371.63,-496.395 382.203,-495.705 373.508,-489.651 371.63,-496.395"/>
</g>
<!-- Node79 -->
<g id="node44" class="node"><title>Node79</title>
<g id="a_node44"><a xlink:href="ldo_8c.html#ab0872b1738a995ecbf1cdc8a9bc0fdf6" target="_top" xlink:title=" ">
<polygon fill="white" stroke="black" points="358,-456.5 358,-475.5 468,-475.5 468,-456.5 358,-456.5"/>
<text text-anchor="middle" x="413" y="-463.5" font-family="Helvetica,sans-Serif" font-size="10.00">luaD_rawrunprotected</text>
</a>
</g>
</g>
<!-- Node163&#45;&gt;Node79 -->
<g id="edge58" class="edge"><title>Node163&#45;&gt;Node79</title>
<path fill="none" stroke="midnightblue" d="M317.196,-466C326.84,-466 337.321,-466 347.681,-466"/>
<polygon fill="midnightblue" stroke="midnightblue" points="347.966,-469.5 357.966,-466 347.966,-462.5 347.966,-469.5"/>
</g>
<!-- Node169 -->
<g id="node46" class="node"><title>Node169</title>
<g id="a_node46"><a xlink:href="lauxlib_8c.html#aa15bea412c49bfdee1f3dbff096ce7d2" target="_top" xlink:title=" ">
<polygon fill="white" stroke="black" points="227,-228.5 227,-247.5 322,-247.5 322,-228.5 227,-228.5"/>
<text text-anchor="middle" x="274.5" y="-235.5" font-family="Helvetica,sans-Serif" font-size="10.00">luaL_checkinteger</text>
</a>
</g>
</g>
<!-- Node168&#45;&gt;Node169 -->
<g id="edge61" class="edge"><title>Node168&#45;&gt;Node169</title>
<path fill="none" stroke="midnightblue" d="M178.921,-266.411C194.952,-261.596 214.574,-255.701 231.782,-250.532"/>
<polygon fill="midnightblue" stroke="midnightblue" points="233.019,-253.815 241.589,-247.586 231.005,-247.111 233.019,-253.815"/>
</g>
<!-- Node170 -->
<g id="node47" class="node"><title>Node170</title>
<g id="a_node47"><a xlink:href="lauxlib_8c.html#ac900510f548ea0ea6d53358d2aedd100" target="_top" xlink:title=" ">
<polygon fill="white" stroke="red" points="389.5,-228.5 389.5,-247.5 436.5,-247.5 436.5,-228.5 389.5,-228.5"/>
<text text-anchor="middle" x="413" y="-235.5" font-family="Helvetica,sans-Serif" font-size="10.00">interror</text>
</a>
</g>
</g>
<!-- Node169&#45;&gt;Node170 -->
<g id="edge62" class="edge"><title>Node169&#45;&gt;Node170</title>
<path fill="none" stroke="midnightblue" d="M322.094,-238C340.897,-238 362.148,-238 379.266,-238"/>
<polygon fill="midnightblue" stroke="midnightblue" points="379.332,-241.5 389.332,-238 379.332,-234.5 379.332,-241.5"/>
</g>
<!-- Node172 -->
<g id="node48" class="node"><title>Node172</title>
<g id="a_node48"><a xlink:href="lapi_8c.html#af81c9a68425546e1f8c6354728c95170" target="_top" xlink:title=" ">
<polygon fill="white" stroke="black" points="504,-57.5 504,-76.5 581,-76.5 581,-57.5 504,-57.5"/>
<text text-anchor="middle" x="542.5" y="-64.5" font-family="Helvetica,sans-Serif" font-size="10.00">lua_tointegerx</text>
</a>
</g>
</g>
<!-- Node169&#45;&gt;Node172 -->
<g id="edge65" class="edge"><title>Node169&#45;&gt;Node172</title>
<path fill="none" stroke="midnightblue" d="M290.563,-228.316C334.822,-199.864 464.696,-116.374 518.127,-82.0253"/>
<polygon fill="midnightblue" stroke="midnightblue" points="520.083,-84.9292 526.602,-76.5774 516.297,-79.0409 520.083,-84.9292"/>
</g>
<!-- Node170&#45;&gt;Node134 -->
<g id="edge63" class="edge"><title>Node170&#45;&gt;Node134</title>
<path fill="none" stroke="midnightblue" d="M436.707,-233.075C487.137,-223.432 610.588,-207.093 694,-257 729.769,-278.401 750.41,-325.345 759.635,-351.833"/>
<polygon fill="midnightblue" stroke="midnightblue" points="756.363,-353.086 762.808,-361.496 763.014,-350.903 756.363,-353.086"/>
</g>
<!-- Node170&#45;&gt;Node156 -->
<g id="edge64" class="edge"><title>Node170&#45;&gt;Node156</title>
<path fill="none" stroke="midnightblue" d="M436.501,-244.706C455.471,-250.36 482.982,-258.559 505.085,-265.147"/>
<polygon fill="midnightblue" stroke="midnightblue" points="504.226,-268.543 514.809,-268.045 506.226,-261.835 504.226,-268.543"/>
</g>
<!-- Node172&#45;&gt;Node138 -->
<g id="edge66" class="edge"><title>Node172&#45;&gt;Node138</title>
<path fill="none" stroke="midnightblue" d="M581.125,-61.8082C625.214,-56.1826 700.513,-48 765.5,-48 765.5,-48 765.5,-48 892.5,-48 970.072,-48 1002.81,-22.0069 1066,-67 1096.45,-88.6785 1076.15,-116.006 1102,-143 1103.21,-144.263 1104.52,-145.46 1105.91,-146.591"/>
<polygon fill="midnightblue" stroke="midnightblue" points="1104.16,-149.634 1114.4,-152.359 1108.09,-143.844 1104.16,-149.634"/>
</g>
<!-- Node174&#45;&gt;Node8 -->
<g id="edge69" class="edge"><title>Node174&#45;&gt;Node8</title>
<path fill="none" stroke="midnightblue" d="M304.235,-580C353.014,-580 455.142,-580 541.5,-580 541.5,-580 541.5,-580 656.5,-580 726.139,-580 805.946,-563.4 852.058,-552.143"/>
<polygon fill="midnightblue" stroke="midnightblue" points="853.063,-555.499 861.923,-549.69 851.374,-548.706 853.063,-555.499"/>
</g>
</g>
</svg>
