<?xml version="1.0" encoding="UTF-8" standalone="no"?>
<!DOCTYPE svg PUBLIC "-//W3C//DTD SVG 1.1//EN"
 "http://www.w3.org/Graphics/SVG/1.1/DTD/svg11.dtd">
<!-- Generated by graphviz version 2.38.0 (20140413.2041)
 -->
<!-- Title: internshrstr Pages: 1 -->
<svg width="800pt" height="902pt"
 viewBox="0.00 0.00 800.00 902.00" xmlns="http://www.w3.org/2000/svg" xmlns:xlink="http://www.w3.org/1999/xlink">
<g id="graph0" class="graph" transform="scale(1 1) rotate(0) translate(4 898)">
<title>internshrstr</title>
<polygon fill="white" stroke="none" points="-4,4 -4,-898 796,-898 796,4 -4,4"/>
<!-- Node1 -->
<g id="node1" class="node"><title>Node1</title>
<g id="a_node1"><a xlink:title=" ">
<polygon fill="#bfbfbf" stroke="black" points="727,-665.5 727,-684.5 792,-684.5 792,-665.5 727,-665.5"/>
<text text-anchor="middle" x="759.5" y="-672.5" font-family="Helvetica,sans-Serif" font-size="10.00">internshrstr</text>
</a>
</g>
</g>
<!-- Node2 -->
<g id="node2" class="node"><title>Node2</title>
<g id="a_node2"><a xlink:href="lstring_8h.html#a248e72694b9116b07b2e7f4a9a3a5331" target="_top" xlink:title=" ">
<polygon fill="white" stroke="black" points="619,-665.5 619,-684.5 691,-684.5 691,-665.5 619,-665.5"/>
<text text-anchor="middle" x="655" y="-672.5" font-family="Helvetica,sans-Serif" font-size="10.00">luaS_newlstr</text>
</a>
</g>
</g>
<!-- Node1&#45;&gt;Node2 -->
<g id="edge1" class="edge"><title>Node1&#45;&gt;Node2</title>
<path fill="none" stroke="midnightblue" d="M716.806,-675C708.321,-675 699.473,-675 691.239,-675"/>
<polygon fill="midnightblue" stroke="midnightblue" points="716.91,-678.5 726.91,-675 716.91,-671.5 716.91,-678.5"/>
</g>
<!-- Node3 -->
<g id="node3" class="node"><title>Node3</title>
<g id="a_node3"><a xlink:href="lundump_8c.html#a4b73637582e9f1a3ee8991124d47ce0d" target="_top" xlink:title=" ">
<polygon fill="white" stroke="black" points="511,-817.5 511,-836.5 574,-836.5 574,-817.5 511,-817.5"/>
<text text-anchor="middle" x="542.5" y="-824.5" font-family="Helvetica,sans-Serif" font-size="10.00">LoadString</text>
</a>
</g>
</g>
<!-- Node2&#45;&gt;Node3 -->
<g id="edge2" class="edge"><title>Node2&#45;&gt;Node3</title>
<path fill="none" stroke="midnightblue" d="M644.32,-693.549C631.719,-716.911 608.3,-757.771 583,-789 574.494,-799.499 563.271,-810.043 554.962,-817.351"/>
<polygon fill="midnightblue" stroke="midnightblue" points="647.428,-695.16 649.032,-684.687 641.247,-691.874 647.428,-695.16"/>
</g>
<!-- Node16 -->
<g id="node9" class="node"><title>Node16</title>
<g id="a_node9"><a xlink:href="lua_8h.html#a4eba0457df5bafff4d44071d1d8080b6" target="_top" xlink:title=" ">
<polygon fill="white" stroke="black" points="384,-684.5 384,-703.5 448,-703.5 448,-684.5 384,-684.5"/>
<text text-anchor="middle" x="416" y="-691.5" font-family="Helvetica,sans-Serif" font-size="10.00">lua_concat</text>
</a>
</g>
</g>
<!-- Node2&#45;&gt;Node16 -->
<g id="edge11" class="edge"><title>Node2&#45;&gt;Node16</title>
<path fill="none" stroke="midnightblue" d="M608.556,-678.643C561.504,-682.415 489.255,-688.207 448.253,-691.494"/>
<polygon fill="midnightblue" stroke="midnightblue" points="609.086,-682.112 618.775,-677.824 608.527,-675.134 609.086,-682.112"/>
</g>
<!-- Node246 -->
<g id="node19" class="node"><title>Node246</title>
<g id="a_node19"><a xlink:href="lua_8h.html#a48a8d31a66ddacf1ea049b980cf09ab2" target="_top" xlink:title=" ">
<polygon fill="white" stroke="black" points="375,-190.5 375,-209.5 457,-209.5 457,-190.5 375,-190.5"/>
<text text-anchor="middle" x="416" y="-197.5" font-family="Helvetica,sans-Serif" font-size="10.00">lua_pushlstring</text>
</a>
</g>
</g>
<!-- Node2&#45;&gt;Node246 -->
<g id="edge22" class="edge"><title>Node2&#45;&gt;Node246</title>
<path fill="none" stroke="midnightblue" d="M651.563,-655.399C645.161,-608.039 625.361,-484.325 583,-390 545.274,-305.996 538.161,-276.208 466,-219 461.21,-215.202 455.57,-212.091 449.855,-209.567"/>
<polygon fill="midnightblue" stroke="midnightblue" points="648.116,-656.034 652.878,-665.498 655.057,-655.13 648.116,-656.034"/>
</g>
<!-- Node250 -->
<g id="node28" class="node"><title>Node250</title>
<g id="a_node28"><a xlink:href="lobject_8h.html#a59378d55bf2d90c04cbd5ad97d24e1ef" target="_top" xlink:title=" ">
<polygon fill="white" stroke="black" points="505.5,-760.5 505.5,-779.5 579.5,-779.5 579.5,-760.5 505.5,-760.5"/>
<text text-anchor="middle" x="542.5" y="-767.5" font-family="Helvetica,sans-Serif" font-size="10.00">luaO_tostring</text>
</a>
</g>
</g>
<!-- Node2&#45;&gt;Node250 -->
<g id="edge35" class="edge"><title>Node2&#45;&gt;Node250</title>
<path fill="none" stroke="midnightblue" d="M640.16,-693.334C626.891,-709.981 605.587,-734.397 583,-751 578.217,-754.515 572.682,-757.653 567.297,-760.315"/>
<polygon fill="midnightblue" stroke="midnightblue" points="643.28,-695.024 646.663,-684.984 637.757,-690.723 643.28,-695.024"/>
</g>
<!-- Node544 -->
<g id="node31" class="node"><title>Node544</title>
<g id="a_node31"><a xlink:href="lstring_8h.html#a6929da8cfde3e74a0d51a6467909ef9d" target="_top" xlink:title=" ">
<polygon fill="white" stroke="black" points="513,-399.5 513,-418.5 572,-418.5 572,-399.5 513,-399.5"/>
<text text-anchor="middle" x="542.5" y="-406.5" font-family="Helvetica,sans-Serif" font-size="10.00">luaS_new</text>
</a>
</g>
</g>
<!-- Node2&#45;&gt;Node544 -->
<g id="edge39" class="edge"><title>Node2&#45;&gt;Node544</title>
<path fill="none" stroke="midnightblue" d="M645.976,-655.684C624.031,-602.858 563.586,-457.351 547.484,-418.591"/>
<polygon fill="midnightblue" stroke="midnightblue" points="642.868,-657.325 649.936,-665.217 649.332,-654.64 642.868,-657.325"/>
</g>
<!-- Node364 -->
<g id="node42" class="node"><title>Node364</title>
<g id="a_node42"><a xlink:href="lvm_8h.html#aee84bfc563cb4bdd21a013218a289aa7" target="_top" xlink:title=" ">
<polygon fill="white" stroke="black" points="507,-646.5 507,-665.5 578,-665.5 578,-646.5 507,-646.5"/>
<text text-anchor="middle" x="542.5" y="-653.5" font-family="Helvetica,sans-Serif" font-size="10.00">luaV_concat</text>
</a>
</g>
</g>
<!-- Node2&#45;&gt;Node364 -->
<g id="edge53" class="edge"><title>Node2&#45;&gt;Node364</title>
<path fill="none" stroke="midnightblue" d="M608.709,-667.212C598.473,-665.452 587.765,-663.611 578.054,-661.941"/>
<polygon fill="midnightblue" stroke="midnightblue" points="608.285,-670.691 618.733,-668.936 609.471,-663.792 608.285,-670.691"/>
</g>
<!-- Node451 -->
<g id="node45" class="node"><title>Node451</title>
<g id="a_node45"><a xlink:href="llex_8h.html#aa6e79179f823cf156f61899a09239ca6" target="_top" xlink:title=" ">
<polygon fill="white" stroke="black" points="502,-76.5 502,-95.5 583,-95.5 583,-76.5 502,-76.5"/>
<text text-anchor="middle" x="542.5" y="-83.5" font-family="Helvetica,sans-Serif" font-size="10.00">luaX_newstring</text>
</a>
</g>
</g>
<!-- Node2&#45;&gt;Node451 -->
<g id="edge58" class="edge"><title>Node2&#45;&gt;Node451</title>
<path fill="none" stroke="midnightblue" d="M650.946,-655.108C641.7,-595.398 612.813,-412.54 583,-262 570.346,-198.104 552.179,-121.852 545.811,-95.5032"/>
<polygon fill="midnightblue" stroke="midnightblue" points="647.544,-656.013 652.528,-665.362 654.462,-654.946 647.544,-656.013"/>
</g>
<!-- Node555 -->
<g id="node50" class="node"><title>Node555</title>
<g id="a_node50"><a xlink:href="lobject_8c.html#aa65db03553a5abd73e466d307bb17a37" target="_top" xlink:title=" ">
<polygon fill="white" stroke="black" points="518,-722.5 518,-741.5 567,-741.5 567,-722.5 518,-722.5"/>
<text text-anchor="middle" x="542.5" y="-729.5" font-family="Helvetica,sans-Serif" font-size="10.00">pushstr</text>
</a>
</g>
</g>
<!-- Node2&#45;&gt;Node555 -->
<g id="edge65" class="edge"><title>Node2&#45;&gt;Node555</title>
<path fill="none" stroke="midnightblue" d="M626.256,-689.312C606.15,-699.683 579.521,-713.419 561.968,-722.474"/>
<polygon fill="midnightblue" stroke="midnightblue" points="627.972,-692.364 635.255,-684.669 624.763,-686.143 627.972,-692.364"/>
</g>
<!-- Node4 -->
<g id="node4" class="node"><title>Node4</title>
<g id="a_node4"><a xlink:href="lundump_8c.html#a1854dcefef99e90599873a480c49da5f" target="_top" xlink:title=" ">
<polygon fill="white" stroke="black" points="375,-874.5 375,-893.5 457,-893.5 457,-874.5 375,-874.5"/>
<text text-anchor="middle" x="416" y="-881.5" font-family="Helvetica,sans-Serif" font-size="10.00">LoadConstants</text>
</a>
</g>
</g>
<!-- Node3&#45;&gt;Node4 -->
<g id="edge3" class="edge"><title>Node3&#45;&gt;Node4</title>
<path fill="none" stroke="midnightblue" d="M511.451,-840.757C488.703,-851.172 458.039,-865.211 437.906,-874.428"/>
<polygon fill="midnightblue" stroke="midnightblue" points="513.026,-843.886 520.661,-836.541 510.112,-837.521 513.026,-843.886"/>
</g>
<!-- Node5 -->
<g id="node5" class="node"><title>Node5</title>
<g id="a_node5"><a xlink:href="lundump_8c.html#adb80904e547ca41184ece3351e61f05d" target="_top" xlink:title=" ">
<polygon fill="white" stroke="black" points="245.5,-836.5 245.5,-855.5 320.5,-855.5 320.5,-836.5 245.5,-836.5"/>
<text text-anchor="middle" x="283" y="-843.5" font-family="Helvetica,sans-Serif" font-size="10.00">LoadFunction</text>
</a>
</g>
</g>
<!-- Node3&#45;&gt;Node5 -->
<g id="edge10" class="edge"><title>Node3&#45;&gt;Node5</title>
<path fill="none" stroke="midnightblue" d="M500.918,-829.994C451.407,-833.648 368.423,-839.771 320.729,-843.29"/>
<polygon fill="midnightblue" stroke="midnightblue" points="501.235,-833.481 510.95,-829.254 500.72,-826.5 501.235,-833.481"/>
</g>
<!-- Node15 -->
<g id="node8" class="node"><title>Node15</title>
<g id="a_node8"><a xlink:href="lundump_8c.html#a89f9807f8a7395e26b0bce7b7f208d20" target="_top" xlink:title=" ">
<polygon fill="white" stroke="black" points="383.5,-798.5 383.5,-817.5 448.5,-817.5 448.5,-798.5 383.5,-798.5"/>
<text text-anchor="middle" x="416" y="-805.5" font-family="Helvetica,sans-Serif" font-size="10.00">LoadDebug</text>
</a>
</g>
</g>
<!-- Node3&#45;&gt;Node15 -->
<g id="edge8" class="edge"><title>Node3&#45;&gt;Node15</title>
<path fill="none" stroke="midnightblue" d="M500.585,-820.756C483.724,-818.183 464.486,-815.247 448.721,-812.841"/>
<polygon fill="midnightblue" stroke="midnightblue" points="500.311,-824.255 510.725,-822.303 501.367,-817.335 500.311,-824.255"/>
</g>
<!-- Node4&#45;&gt;Node5 -->
<g id="edge4" class="edge"><title>Node4&#45;&gt;Node5</title>
<path fill="none" stroke="midnightblue" d="M372.285,-871.609C354.345,-866.406 333.8,-860.446 317.046,-855.586"/>
<polygon fill="midnightblue" stroke="midnightblue" points="371.364,-874.986 381.943,-874.411 373.314,-868.264 371.364,-874.986"/>
</g>
<!-- Node6 -->
<g id="node6" class="node"><title>Node6</title>
<g id="a_node6"><a xlink:href="lundump_8c.html#a0b7e793e9d9afdc0da0bb8540a3f556b" target="_top" xlink:title=" ">
<polygon fill="white" stroke="black" points="114.5,-836.5 114.5,-855.5 180.5,-855.5 180.5,-836.5 114.5,-836.5"/>
<text text-anchor="middle" x="147.5" y="-843.5" font-family="Helvetica,sans-Serif" font-size="10.00">LoadProtos</text>
</a>
</g>
</g>
<!-- Node5&#45;&gt;Node6 -->
<g id="edge5" class="edge"><title>Node5&#45;&gt;Node6</title>
<path fill="none" stroke="midnightblue" d="M235.138,-839.524C217.129,-839.014 196.995,-839.216 180.672,-840.13"/>
<polygon fill="midnightblue" stroke="midnightblue" points="235.045,-843.023 245.167,-839.893 235.303,-836.027 235.045,-843.023"/>
</g>
<!-- Node7 -->
<g id="node7" class="node"><title>Node7</title>
<g id="a_node7"><a xlink:href="lundump_8h.html#ae777344c08970a8fc2de3624c4067dde" target="_top" xlink:title=" ">
<polygon fill="white" stroke="red" points="109.5,-798.5 109.5,-817.5 185.5,-817.5 185.5,-798.5 109.5,-798.5"/>
<text text-anchor="middle" x="147.5" y="-805.5" font-family="Helvetica,sans-Serif" font-size="10.00">luaU_undump</text>
</a>
</g>
</g>
<!-- Node5&#45;&gt;Node7 -->
<g id="edge7" class="edge"><title>Node5&#45;&gt;Node7</title>
<path fill="none" stroke="midnightblue" d="M238.47,-833.609C220.188,-828.406 199.251,-822.446 182.177,-817.586"/>
<polygon fill="midnightblue" stroke="midnightblue" points="237.736,-837.04 248.312,-836.411 239.653,-830.307 237.736,-837.04"/>
</g>
<!-- Node6&#45;&gt;Node5 -->
<g id="edge6" class="edge"><title>Node6&#45;&gt;Node5</title>
<path fill="none" stroke="midnightblue" d="M191.121,-852.342C208.509,-852.955 228.422,-852.877 245.167,-852.107"/>
<polygon fill="midnightblue" stroke="midnightblue" points="190.819,-848.825 180.672,-851.87 190.504,-855.817 190.819,-848.825"/>
</g>
<!-- Node15&#45;&gt;Node5 -->
<g id="edge9" class="edge"><title>Node15&#45;&gt;Node5</title>
<path fill="none" stroke="midnightblue" d="M373.461,-820.049C355.156,-825.359 333.955,-831.509 316.787,-836.489"/>
<polygon fill="midnightblue" stroke="midnightblue" points="374.66,-823.346 383.289,-817.199 372.709,-816.623 374.66,-823.346"/>
</g>
<!-- Node17 -->
<g id="node10" class="node"><title>Node17</title>
<g id="a_node10"><a xlink:href="lauxlib_8c.html#a36c8f149b779f8c9a5c042ea9784d80a" target="_top" xlink:title=" ">
<polygon fill="white" stroke="black" points="258.5,-456.5 258.5,-475.5 307.5,-475.5 307.5,-456.5 258.5,-456.5"/>
<text text-anchor="middle" x="283" y="-463.5" font-family="Helvetica,sans-Serif" font-size="10.00">findfield</text>
</a>
</g>
</g>
<!-- Node16&#45;&gt;Node17 -->
<g id="edge12" class="edge"><title>Node16&#45;&gt;Node17</title>
<path fill="none" stroke="midnightblue" d="M375.07,-682.803C371.665,-680.643 368.553,-678.068 366,-675 311.022,-608.937 384.255,-551.658 330,-485 324.436,-478.165 316.004,-473.76 307.872,-470.934"/>
<polygon fill="midnightblue" stroke="midnightblue" points="373.489,-685.925 383.985,-687.362 376.676,-679.693 373.489,-685.925"/>
</g>
<!-- Node155 -->
<g id="node12" class="node"><title>Node155</title>
<g id="a_node12"><a xlink:href="lcorolib_8c.html#a777abb20385a69ce4787f72bd90375a7" target="_top" xlink:title=" ">
<polygon fill="white" stroke="red" points="244.5,-684.5 244.5,-703.5 321.5,-703.5 321.5,-684.5 244.5,-684.5"/>
<text text-anchor="middle" x="283" y="-691.5" font-family="Helvetica,sans-Serif" font-size="10.00">luaB_auxwrap</text>
</a>
</g>
</g>
<!-- Node16&#45;&gt;Node155 -->
<g id="edge14" class="edge"><title>Node16&#45;&gt;Node155</title>
<path fill="none" stroke="midnightblue" d="M373.945,-694C357.281,-694 338.153,-694 321.833,-694"/>
<polygon fill="midnightblue" stroke="midnightblue" points="373.955,-697.5 383.955,-694 373.955,-690.5 373.955,-697.5"/>
</g>
<!-- Node60 -->
<g id="node13" class="node"><title>Node60</title>
<g id="a_node13"><a xlink:href="lbaselib_8c.html#a2ecfa987569d0b4c1063f3e204e42dd2" target="_top" xlink:title=" ">
<polygon fill="white" stroke="red" points="252.5,-646.5 252.5,-665.5 313.5,-665.5 313.5,-646.5 252.5,-646.5"/>
<text text-anchor="middle" x="283" y="-653.5" font-family="Helvetica,sans-Serif" font-size="10.00">luaB_error</text>
</a>
</g>
</g>
<!-- Node16&#45;&gt;Node60 -->
<g id="edge15" class="edge"><title>Node16&#45;&gt;Node60</title>
<path fill="none" stroke="midnightblue" d="M374.121,-682.142C354.638,-676.49 331.754,-669.852 313.921,-664.679"/>
<polygon fill="midnightblue" stroke="midnightblue" points="373.376,-685.57 383.955,-684.995 375.326,-678.847 373.376,-685.57"/>
</g>
<!-- Node156 -->
<g id="node14" class="node"><title>Node156</title>
<g id="a_node14"><a xlink:href="lauxlib_8h.html#a994f73d7985c30672469a260d9e86ae6" target="_top" xlink:title=" ">
<polygon fill="white" stroke="red" points="253.5,-494.5 253.5,-513.5 312.5,-513.5 312.5,-494.5 253.5,-494.5"/>
<text text-anchor="middle" x="283" y="-501.5" font-family="Helvetica,sans-Serif" font-size="10.00">luaL_error</text>
</a>
</g>
</g>
<!-- Node16&#45;&gt;Node156 -->
<g id="edge16" class="edge"><title>Node16&#45;&gt;Node156</title>
<path fill="none" stroke="midnightblue" d="M374.765,-682.256C371.523,-680.209 368.529,-677.811 366,-675 325.043,-629.474 363.167,-593.479 330,-542 322.482,-530.332 310.231,-520.467 300.262,-513.715"/>
<polygon fill="midnightblue" stroke="midnightblue" points="373.285,-685.43 383.778,-686.89 376.486,-679.205 373.285,-685.43"/>
</g>
<!-- Node142 -->
<g id="node17" class="node"><title>Node142</title>
<g id="a_node17"><a xlink:href="lauxlib_8h.html#a664cc293d6c7a7dc67857fe95583a10e" target="_top" xlink:title=" ">
<polygon fill="white" stroke="red" points="241.5,-608.5 241.5,-627.5 324.5,-627.5 324.5,-608.5 241.5,-608.5"/>
<text text-anchor="middle" x="283" y="-615.5" font-family="Helvetica,sans-Serif" font-size="10.00">luaL_traceback</text>
</a>
</g>
</g>
<!-- Node16&#45;&gt;Node142 -->
<g id="edge20" class="edge"><title>Node16&#45;&gt;Node142</title>
<path fill="none" stroke="midnightblue" d="M374.803,-680.142C371.738,-678.569 368.765,-676.856 366,-675 346.684,-662.034 349.174,-650.176 330,-637 324.73,-633.379 318.663,-630.264 312.701,-627.664"/>
<polygon fill="midnightblue" stroke="midnightblue" points="373.611,-683.446 384.159,-684.444 376.536,-677.087 373.611,-683.446"/>
</g>
<!-- Node244 -->
<g id="node18" class="node"><title>Node244</title>
<g id="a_node18"><a xlink:href="lua_8c.html#affef5a04b31963c2c3f5028518777e12" target="_top" xlink:title=" ">
<polygon fill="white" stroke="red" points="121,-722.5 121,-741.5 174,-741.5 174,-722.5 121,-722.5"/>
<text text-anchor="middle" x="147.5" y="-729.5" font-family="Helvetica,sans-Serif" font-size="10.00">multiline</text>
</a>
</g>
</g>
<!-- Node16&#45;&gt;Node244 -->
<g id="edge21" class="edge"><title>Node16&#45;&gt;Node244</title>
<path fill="none" stroke="midnightblue" d="M373.926,-704.187C360.043,-707.361 344.41,-710.643 330,-713 274.813,-722.025 209.449,-727.637 174.173,-730.252"/>
<polygon fill="midnightblue" stroke="midnightblue" points="374.74,-707.591 383.683,-701.91 373.149,-700.774 374.74,-707.591"/>
</g>
<!-- Node18 -->
<g id="node11" class="node"><title>Node18</title>
<g id="a_node11"><a xlink:href="lauxlib_8c.html#a4f35430f7ecfcbd5f507e550937046b4" target="_top" xlink:title=" ">
<polygon fill="white" stroke="red" points="95,-385.5 95,-404.5 200,-404.5 200,-385.5 95,-385.5"/>
<text text-anchor="middle" x="147.5" y="-392.5" font-family="Helvetica,sans-Serif" font-size="10.00">pushglobalfuncname</text>
</a>
</g>
</g>
<!-- Node17&#45;&gt;Node18 -->
<g id="edge13" class="edge"><title>Node17&#45;&gt;Node18</title>
<path fill="none" stroke="midnightblue" d="M254.942,-451.61C228.633,-437.618 189.406,-416.755 166.646,-404.65"/>
<polygon fill="midnightblue" stroke="midnightblue" points="253.523,-454.819 263.996,-456.425 256.81,-448.639 253.523,-454.819"/>
</g>
<!-- Node158 -->
<g id="node15" class="node"><title>Node158</title>
<g id="a_node15"><a xlink:href="lstrlib_8c.html#ad24cfa73e5ad25ec99a1b48f0916471e" target="_top" xlink:title=" ">
<polygon fill="white" stroke="red" points="0,-442.5 0,-461.5 59,-461.5 59,-442.5 0,-442.5"/>
<text text-anchor="middle" x="29.5" y="-449.5" font-family="Helvetica,sans-Serif" font-size="10.00">add_value</text>
</a>
</g>
</g>
<!-- Node156&#45;&gt;Node158 -->
<g id="edge17" class="edge"><title>Node156&#45;&gt;Node158</title>
<path fill="none" stroke="midnightblue" d="M243.159,-498.442C205.156,-492.701 145.752,-482.914 95,-471 83.1807,-468.225 70.3196,-464.569 59.2137,-461.206"/>
<polygon fill="midnightblue" stroke="midnightblue" points="242.878,-501.939 253.285,-499.953 243.911,-495.016 242.878,-501.939"/>
</g>
<!-- Node230 -->
<g id="node16" class="node"><title>Node230</title>
<g id="a_node16"><a xlink:href="lstrlib_8c.html#a24a14b4e6e90bac4610dd334bb0b51b6" target="_top" xlink:title=" ">
<polygon fill="white" stroke="red" points="102,-442.5 102,-461.5 193,-461.5 193,-442.5 102,-442.5"/>
<text text-anchor="middle" x="147.5" y="-449.5" font-family="Helvetica,sans-Serif" font-size="10.00">push_onecapture</text>
</a>
</g>
</g>
<!-- Node156&#45;&gt;Node230 -->
<g id="edge18" class="edge"><title>Node156&#45;&gt;Node230</title>
<path fill="none" stroke="midnightblue" d="M248.008,-490.76C224.704,-481.682 194.316,-469.846 173.283,-461.653"/>
<polygon fill="midnightblue" stroke="midnightblue" points="246.926,-494.094 257.514,-494.462 249.466,-487.571 246.926,-494.094"/>
</g>
<!-- Node230&#45;&gt;Node158 -->
<g id="edge19" class="edge"><title>Node230&#45;&gt;Node158</title>
<path fill="none" stroke="midnightblue" d="M91.7774,-452C80.5617,-452 69.1821,-452 59.3232,-452"/>
<polygon fill="midnightblue" stroke="midnightblue" points="91.9832,-455.5 101.983,-452 91.9831,-448.5 91.9832,-455.5"/>
</g>
<!-- Node246&#45;&gt;Node158 -->
<g id="edge23" class="edge"><title>Node246&#45;&gt;Node158</title>
<path fill="none" stroke="midnightblue" d="M370.411,-214.976C368.838,-216.214 367.358,-217.553 366,-219 329.651,-257.754 369.842,-297.847 330,-333 250.381,-403.247 186.931,-322.872 95,-376 66.6812,-392.366 45.0206,-425.991 35.6223,-442.471"/>
<polygon fill="midnightblue" stroke="midnightblue" points="372.334,-217.901 378.903,-209.589 368.584,-211.99 372.334,-217.901"/>
</g>
<!-- Node246&#45;&gt;Node230 -->
<g id="edge28" class="edge"><title>Node246&#45;&gt;Node230</title>
<path fill="none" stroke="midnightblue" d="M369.189,-215.665C368.053,-216.707 366.985,-217.817 366,-219 311.022,-285.063 389.379,-346.863 330,-409 311.431,-428.432 240.628,-440.743 193.14,-446.998"/>
<polygon fill="midnightblue" stroke="midnightblue" points="371.389,-218.396 377.508,-209.747 367.331,-212.692 371.389,-218.396"/>
</g>
<!-- Node203 -->
<g id="node20" class="node"><title>Node203</title>
<g id="a_node20"><a xlink:href="loadlib_8c.html#a91ac5b5231cf039af46226806dcc3884" target="_top" xlink:title=" ">
<polygon fill="white" stroke="red" points="256.5,-114.5 256.5,-133.5 309.5,-133.5 309.5,-114.5 256.5,-114.5"/>
<text text-anchor="middle" x="283" y="-121.5" font-family="Helvetica,sans-Serif" font-size="10.00">loadfunc</text>
</a>
</g>
</g>
<!-- Node246&#45;&gt;Node203 -->
<g id="edge24" class="edge"><title>Node246&#45;&gt;Node203</title>
<path fill="none" stroke="midnightblue" d="M391.465,-185.007C374.544,-174.374 351.088,-159.933 330,-148 321.22,-143.031 311.317,-137.817 302.956,-133.522"/>
<polygon fill="midnightblue" stroke="midnightblue" points="389.813,-188.103 400.137,-190.482 393.55,-182.184 389.813,-188.103"/>
</g>
<!-- Node173 -->
<g id="node21" class="node"><title>Node173</title>
<g id="a_node21"><a xlink:href="loadlib_8c.html#a1ec05cd98a045c271aeda9f9c6041e1c" target="_top" xlink:title=" ">
<polygon fill="white" stroke="red" points="106,-152.5 106,-171.5 189,-171.5 189,-152.5 106,-152.5"/>
<text text-anchor="middle" x="147.5" y="-159.5" font-family="Helvetica,sans-Serif" font-size="10.00">searcher_Croot</text>
</a>
</g>
</g>
<!-- Node246&#45;&gt;Node173 -->
<g id="edge32" class="edge"><title>Node246&#45;&gt;Node173</title>
<path fill="none" stroke="midnightblue" d="M366.852,-188.222C354.866,-185.57 342.008,-182.964 330,-181 281.848,-173.125 225.949,-167.849 189.047,-164.895"/>
<polygon fill="midnightblue" stroke="midnightblue" points="366.152,-191.652 376.678,-190.446 367.697,-184.824 366.152,-191.652"/>
</g>
<!-- Node234 -->
<g id="node22" class="node"><title>Node234</title>
<g id="a_node22"><a xlink:href="lauxlib_8h.html#aac5dfab9ba0ced4f5ae3b22aa35faffe" target="_top" xlink:title=" ">
<polygon fill="white" stroke="red" points="240.5,-304.5 240.5,-323.5 325.5,-323.5 325.5,-304.5 240.5,-304.5"/>
<text text-anchor="middle" x="283" y="-311.5" font-family="Helvetica,sans-Serif" font-size="10.00">luaL_pushresult</text>
</a>
</g>
</g>
<!-- Node246&#45;&gt;Node234 -->
<g id="edge26" class="edge"><title>Node246&#45;&gt;Node234</title>
<path fill="none" stroke="midnightblue" d="M371.434,-214.668C369.509,-215.994 367.683,-217.435 366,-219 338.631,-244.454 357.09,-269.249 330,-295 325.992,-298.81 321.113,-301.902 316.049,-304.398"/>
<polygon fill="midnightblue" stroke="midnightblue" points="373.423,-217.562 380.367,-209.559 369.948,-211.485 373.423,-217.562"/>
</g>
<!-- Node247 -->
<g id="node23" class="node"><title>Node247</title>
<g id="a_node23"><a xlink:href="lutf8lib_8c.html#ae1247f71bc4b3f3be7da9c9d5c7668b1" target="_top" xlink:title=" ">
<polygon fill="white" stroke="black" points="247.5,-266.5 247.5,-285.5 318.5,-285.5 318.5,-266.5 247.5,-266.5"/>
<text text-anchor="middle" x="283" y="-273.5" font-family="Helvetica,sans-Serif" font-size="10.00">luaopen_utf8</text>
</a>
</g>
</g>
<!-- Node246&#45;&gt;Node247 -->
<g id="edge27" class="edge"><title>Node246&#45;&gt;Node247</title>
<path fill="none" stroke="midnightblue" d="M374.803,-213.858C371.738,-215.431 368.765,-217.144 366,-219 346.684,-231.966 349.174,-243.824 330,-257 324.73,-260.621 318.663,-263.736 312.701,-266.336"/>
<polygon fill="midnightblue" stroke="midnightblue" points="376.536,-216.913 384.159,-209.556 373.611,-210.554 376.536,-216.913"/>
</g>
<!-- Node248 -->
<g id="node24" class="node"><title>Node248</title>
<g id="a_node24"><a xlink:href="lua_8c.html#a83a7cb21b34095ca93f2a2a863f58fda" target="_top" xlink:title=" ">
<polygon fill="white" stroke="red" points="256.5,-551.5 256.5,-570.5 309.5,-570.5 309.5,-551.5 256.5,-551.5"/>
<text text-anchor="middle" x="283" y="-558.5" font-family="Helvetica,sans-Serif" font-size="10.00">pushline</text>
</a>
</g>
</g>
<!-- Node246&#45;&gt;Node248 -->
<g id="edge29" class="edge"><title>Node246&#45;&gt;Node248</title>
<path fill="none" stroke="midnightblue" d="M369.08,-215.578C367.975,-216.644 366.943,-217.783 366,-219 282.649,-326.534 395.122,-403.542 330,-523 323.455,-535.005 311.43,-544.733 301.316,-551.34"/>
<polygon fill="midnightblue" stroke="midnightblue" points="371.288,-218.299 377.259,-209.547 367.133,-212.665 371.288,-218.299"/>
</g>
<!-- Node249 -->
<g id="node25" class="node"><title>Node249</title>
<g id="a_node25"><a xlink:href="loadlib_8c.html#aa1ea5ee1b54a06650a887c4ee05a8547" target="_top" xlink:title=" ">
<polygon fill="white" stroke="red" points="236,-228.5 236,-247.5 330,-247.5 330,-228.5 236,-228.5"/>
<text text-anchor="middle" x="283" y="-235.5" font-family="Helvetica,sans-Serif" font-size="10.00">pushnexttemplate</text>
</a>
</g>
</g>
<!-- Node246&#45;&gt;Node249 -->
<g id="edge31" class="edge"><title>Node246&#45;&gt;Node249</title>
<path fill="none" stroke="midnightblue" d="M372.285,-212.391C354.345,-217.594 333.8,-223.554 317.046,-228.414"/>
<polygon fill="midnightblue" stroke="midnightblue" points="373.314,-215.736 381.943,-209.589 371.364,-209.014 373.314,-215.736"/>
</g>
<!-- Node68 -->
<g id="node26" class="node"><title>Node68</title>
<g id="a_node26"><a xlink:href="lstrlib_8c.html#a039b391d5f43533a0ce750c5e40d7752" target="_top" xlink:title=" ">
<polygon fill="white" stroke="black" points="258.5,-190.5 258.5,-209.5 307.5,-209.5 307.5,-190.5 258.5,-190.5"/>
<text text-anchor="middle" x="283" y="-197.5" font-family="Helvetica,sans-Serif" font-size="10.00">str_sub</text>
</a>
</g>
</g>
<!-- Node246&#45;&gt;Node68 -->
<g id="edge33" class="edge"><title>Node246&#45;&gt;Node68</title>
<path fill="none" stroke="midnightblue" d="M364.941,-200C345.316,-200 323.731,-200 307.79,-200"/>
<polygon fill="midnightblue" stroke="midnightblue" points="364.984,-203.5 374.984,-200 364.984,-196.5 364.984,-203.5"/>
</g>
<!-- Node37 -->
<g id="node27" class="node"><title>Node37</title>
<g id="a_node27"><a xlink:href="lstrlib_8c.html#a3f3c1925e7829cbe972a744fa9168ec3" target="_top" xlink:title=" ">
<polygon fill="white" stroke="black" points="250.5,-76.5 250.5,-95.5 315.5,-95.5 315.5,-76.5 250.5,-76.5"/>
<text text-anchor="middle" x="283" y="-83.5" font-family="Helvetica,sans-Serif" font-size="10.00">str_unpack</text>
</a>
</g>
</g>
<!-- Node246&#45;&gt;Node37 -->
<g id="edge34" class="edge"><title>Node246&#45;&gt;Node37</title>
<path fill="none" stroke="midnightblue" d="M399.998,-182.397C377.879,-156.573 338.234,-110.833 330,-105 324.782,-101.304 318.738,-98.1574 312.78,-95.5511"/>
<polygon fill="midnightblue" stroke="midnightblue" points="397.599,-184.977 406.757,-190.305 402.921,-180.429 397.599,-184.977"/>
</g>
<!-- Node203&#45;&gt;Node173 -->
<g id="edge25" class="edge"><title>Node203&#45;&gt;Node173</title>
<path fill="none" stroke="midnightblue" d="M246.617,-134.071C226.682,-139.746 201.915,-146.796 182.252,-152.393"/>
<polygon fill="midnightblue" stroke="midnightblue" points="247.6,-137.431 256.26,-131.327 245.684,-130.698 247.6,-137.431"/>
</g>
<!-- Node248&#45;&gt;Node244 -->
<g id="edge30" class="edge"><title>Node248&#45;&gt;Node244</title>
<path fill="none" stroke="midnightblue" d="M260.193,-576.817C252.118,-583.219 243.187,-590.988 236,-599 198.721,-640.562 165.794,-699.342 153.561,-722.291"/>
<polygon fill="midnightblue" stroke="midnightblue" points="262.383,-579.548 268.189,-570.686 258.124,-573.993 262.383,-579.548"/>
</g>
<!-- Node251 -->
<g id="node29" class="node"><title>Node251</title>
<g id="a_node29"><a xlink:href="lua_8h.html#aabf845b1c7ffc0462988b67ba83955cf" target="_top" xlink:title=" ">
<polygon fill="white" stroke="red" points="248.5,-760.5 248.5,-779.5 317.5,-779.5 317.5,-760.5 248.5,-760.5"/>
<text text-anchor="middle" x="283" y="-767.5" font-family="Helvetica,sans-Serif" font-size="10.00">lua_tolstring</text>
</a>
</g>
</g>
<!-- Node250&#45;&gt;Node251 -->
<g id="edge36" class="edge"><title>Node250&#45;&gt;Node251</title>
<path fill="none" stroke="midnightblue" d="M495.32,-770C444.263,-770 363.238,-770 317.784,-770"/>
<polygon fill="midnightblue" stroke="midnightblue" points="495.425,-773.5 505.425,-770 495.425,-766.5 495.425,-773.5"/>
</g>
<!-- Node253 -->
<g id="node30" class="node"><title>Node253</title>
<g id="a_node30"><a xlink:href="lobject_8h.html#a0d323372aa00f179e1c070d305f879f3" target="_top" xlink:title=" ">
<polygon fill="white" stroke="red" points="369.5,-722.5 369.5,-741.5 462.5,-741.5 462.5,-722.5 369.5,-722.5"/>
<text text-anchor="middle" x="416" y="-729.5" font-family="Helvetica,sans-Serif" font-size="10.00">luaO_pushvfstring</text>
</a>
</g>
</g>
<!-- Node250&#45;&gt;Node253 -->
<g id="edge38" class="edge"><title>Node250&#45;&gt;Node253</title>
<path fill="none" stroke="midnightblue" d="M500.43,-757.465C483.494,-752.295 464.182,-746.401 448.407,-741.586"/>
<polygon fill="midnightblue" stroke="midnightblue" points="499.497,-760.839 510.083,-760.411 501.541,-754.144 499.497,-760.839"/>
</g>
<!-- Node251&#45;&gt;Node244 -->
<g id="edge37" class="edge"><title>Node251&#45;&gt;Node244</title>
<path fill="none" stroke="midnightblue" d="M238.518,-757.623C217.248,-751.569 192.375,-744.489 174.171,-739.307"/>
<polygon fill="midnightblue" stroke="midnightblue" points="237.736,-761.04 248.312,-760.411 239.653,-754.307 237.736,-761.04"/>
</g>
<!-- Node544&#45;&gt;Node246 -->
<g id="edge44" class="edge"><title>Node544&#45;&gt;Node246</title>
<path fill="none" stroke="midnightblue" d="M534.826,-389.713C518.853,-343.955 478.804,-231.698 466,-219 462.113,-215.145 457.356,-212.054 452.351,-209.579"/>
<polygon fill="midnightblue" stroke="midnightblue" points="531.587,-391.055 538.177,-399.351 538.198,-388.756 531.587,-391.055"/>
</g>
<!-- Node371 -->
<g id="node32" class="node"><title>Node371</title>
<g id="a_node32"><a xlink:href="lapi_8c.html#a1b28b3a312121ffb29541632648b9f78" target="_top" xlink:title=" ">
<polygon fill="white" stroke="red" points="387.5,-570.5 387.5,-589.5 444.5,-589.5 444.5,-570.5 387.5,-570.5"/>
<text text-anchor="middle" x="416" y="-577.5" font-family="Helvetica,sans-Serif" font-size="10.00">auxgetstr</text>
</a>
</g>
</g>
<!-- Node544&#45;&gt;Node371 -->
<g id="edge40" class="edge"><title>Node544&#45;&gt;Node371</title>
<path fill="none" stroke="midnightblue" d="M536.74,-428.559C528.006,-460.512 506.491,-524.04 466,-561 460.002,-566.475 452.253,-570.439 444.694,-573.282"/>
<polygon fill="midnightblue" stroke="midnightblue" points="540.182,-429.228 539.307,-418.67 533.407,-427.47 540.182,-429.228"/>
</g>
<!-- Node384 -->
<g id="node33" class="node"><title>Node384</title>
<g id="a_node33"><a xlink:href="lapi_8c.html#a0667fbf88666853554967226d9a3df4d" target="_top" xlink:title=" ">
<polygon fill="white" stroke="red" points="387.5,-532.5 387.5,-551.5 444.5,-551.5 444.5,-532.5 387.5,-532.5"/>
<text text-anchor="middle" x="416" y="-539.5" font-family="Helvetica,sans-Serif" font-size="10.00">auxsetstr</text>
</a>
</g>
</g>
<!-- Node544&#45;&gt;Node384 -->
<g id="edge41" class="edge"><title>Node544&#45;&gt;Node384</title>
<path fill="none" stroke="midnightblue" d="M533.48,-427.857C521.966,-452.851 498.502,-496.831 466,-523 459.746,-528.035 452.002,-531.854 444.53,-534.698"/>
<polygon fill="midnightblue" stroke="midnightblue" points="536.685,-429.264 537.551,-418.704 530.289,-426.419 536.685,-429.264"/>
</g>
<!-- Node487 -->
<g id="node34" class="node"><title>Node487</title>
<g id="a_node34"><a xlink:href="lparser_8c.html#ae8d2e6222dfdaa75cf6fb0c40da47755" target="_top" xlink:title=" ">
<polygon fill="white" stroke="red" points="385.5,-494.5 385.5,-513.5 446.5,-513.5 446.5,-494.5 385.5,-494.5"/>
<text text-anchor="middle" x="416" y="-501.5" font-family="Helvetica,sans-Serif" font-size="10.00">breaklabel</text>
</a>
</g>
</g>
<!-- Node544&#45;&gt;Node487 -->
<g id="edge42" class="edge"><title>Node544&#45;&gt;Node487</title>
<path fill="none" stroke="midnightblue" d="M527.693,-426.688C513.701,-443.609 490.652,-468.873 466,-485 460.121,-488.846 453.345,-492.097 446.744,-494.764"/>
<polygon fill="midnightblue" stroke="midnightblue" points="530.589,-428.672 534.146,-418.692 525.142,-424.276 530.589,-428.672"/>
</g>
<!-- Node456 -->
<g id="node35" class="node"><title>Node456</title>
<g id="a_node35"><a xlink:href="lparser_8c.html#a1b148e344a9d7e35aba2da4a0a3d7c9d" target="_top" xlink:title=" ">
<polygon fill="white" stroke="red" points="390,-456.5 390,-475.5 442,-475.5 442,-456.5 390,-456.5"/>
<text text-anchor="middle" x="416" y="-463.5" font-family="Helvetica,sans-Serif" font-size="10.00">gotostat</text>
</a>
</g>
</g>
<!-- Node544&#45;&gt;Node456 -->
<g id="edge43" class="edge"><title>Node544&#45;&gt;Node456</title>
<path fill="none" stroke="midnightblue" d="M514.501,-423.383C500.238,-430.779 482.344,-439.739 466,-447 458.329,-450.408 449.843,-453.821 442.119,-456.794"/>
<polygon fill="midnightblue" stroke="midnightblue" points="516.495,-426.29 523.733,-418.553 513.25,-420.088 516.495,-426.29"/>
</g>
<!-- Node545 -->
<g id="node36" class="node"><title>Node545</title>
<g id="a_node36"><a xlink:href="lua_8h.html#a341ab0333f0da3035bb3a1266b3bb41e" target="_top" xlink:title=" ">
<polygon fill="white" stroke="red" points="243,-380.5 243,-399.5 323,-399.5 323,-380.5 243,-380.5"/>
<text text-anchor="middle" x="283" y="-387.5" font-family="Helvetica,sans-Serif" font-size="10.00">lua_pushstring</text>
</a>
</g>
</g>
<!-- Node544&#45;&gt;Node545 -->
<g id="edge45" class="edge"><title>Node544&#45;&gt;Node545</title>
<path fill="none" stroke="midnightblue" d="M518.807,-394.054C504.351,-385.449 484.856,-375.478 466,-371 414.072,-358.669 351.919,-370.705 315.324,-380.437"/>
<polygon fill="midnightblue" stroke="midnightblue" points="517.175,-397.16 527.522,-399.44 520.855,-391.205 517.175,-397.16"/>
</g>
<!-- Node551 -->
<g id="node37" class="node"><title>Node551</title>
<g id="a_node37"><a xlink:href="ltm_8h.html#adadf25053747df0beeec91a8836b2dfc" target="_top" xlink:title=" ">
<polygon fill="white" stroke="red" points="389.5,-418.5 389.5,-437.5 442.5,-437.5 442.5,-418.5 389.5,-418.5"/>
<text text-anchor="middle" x="416" y="-425.5" font-family="Helvetica,sans-Serif" font-size="10.00">luaT_init</text>
</a>
</g>
</g>
<!-- Node544&#45;&gt;Node551 -->
<g id="edge48" class="edge"><title>Node544&#45;&gt;Node551</title>
<path fill="none" stroke="midnightblue" d="M502.831,-414.901C483.334,-417.877 460.216,-421.405 442.887,-424.049"/>
<polygon fill="midnightblue" stroke="midnightblue" points="503.58,-418.328 512.937,-413.359 502.524,-411.408 503.58,-418.328"/>
</g>
<!-- Node552 -->
<g id="node38" class="node"><title>Node552</title>
<g id="a_node38"><a xlink:href="ltm_8h.html#a98684f08704c2f0fefcc4e191e33212d" target="_top" xlink:title=" ">
<polygon fill="white" stroke="red" points="368.5,-380.5 368.5,-399.5 463.5,-399.5 463.5,-380.5 368.5,-380.5"/>
<text text-anchor="middle" x="416" y="-387.5" font-family="Helvetica,sans-Serif" font-size="10.00">luaT_objtypename</text>
</a>
</g>
</g>
<!-- Node544&#45;&gt;Node552 -->
<g id="edge49" class="edge"><title>Node544&#45;&gt;Node552</title>
<path fill="none" stroke="midnightblue" d="M502.972,-403.12C490.637,-401.238 476.84,-399.132 463.972,-397.168"/>
<polygon fill="midnightblue" stroke="midnightblue" points="502.524,-406.592 512.937,-404.641 503.58,-399.672 502.524,-406.592"/>
</g>
<!-- Node553 -->
<g id="node39" class="node"><title>Node553</title>
<g id="a_node39"><a xlink:href="llex_8h.html#a5f7573e2f03006437bd01422a0e390df" target="_top" xlink:title=" ">
<polygon fill="white" stroke="red" points="389.5,-304.5 389.5,-323.5 442.5,-323.5 442.5,-304.5 389.5,-304.5"/>
<text text-anchor="middle" x="416" y="-311.5" font-family="Helvetica,sans-Serif" font-size="10.00">luaX_init</text>
</a>
</g>
</g>
<!-- Node544&#45;&gt;Node553 -->
<g id="edge50" class="edge"><title>Node544&#45;&gt;Node553</title>
<path fill="none" stroke="midnightblue" d="M525.824,-391.543C511.353,-376.126 488.725,-353.717 466,-338 458.053,-332.504 448.66,-327.578 440.235,-323.639"/>
<polygon fill="midnightblue" stroke="midnightblue" points="523.623,-394.319 532.973,-399.301 528.771,-389.576 523.623,-394.319"/>
</g>
<!-- Node345 -->
<g id="node40" class="node"><title>Node345</title>
<g id="a_node40"><a xlink:href="lparser_8h.html#a71163cae919941bd5b31805e92de2e9b" target="_top" xlink:title=" ">
<polygon fill="white" stroke="red" points="382,-266.5 382,-285.5 450,-285.5 450,-266.5 382,-266.5"/>
<text text-anchor="middle" x="416" y="-273.5" font-family="Helvetica,sans-Serif" font-size="10.00">luaY_parser</text>
</a>
</g>
</g>
<!-- Node544&#45;&gt;Node345 -->
<g id="edge51" class="edge"><title>Node544&#45;&gt;Node345</title>
<path fill="none" stroke="midnightblue" d="M533.48,-390.143C521.966,-365.149 498.502,-321.169 466,-295 461.238,-291.166 455.613,-288.038 449.902,-285.508"/>
<polygon fill="midnightblue" stroke="midnightblue" points="530.289,-391.581 537.551,-399.296 536.685,-388.736 530.289,-391.581"/>
</g>
<!-- Node554 -->
<g id="node41" class="node"><title>Node554</title>
<g id="a_node41"><a xlink:href="ldo_8c.html#a8a351e424df030a908f2db9eec0b4f30" target="_top" xlink:title=" ">
<polygon fill="white" stroke="red" points="379,-228.5 379,-247.5 453,-247.5 453,-228.5 379,-228.5"/>
<text text-anchor="middle" x="416" y="-235.5" font-family="Helvetica,sans-Serif" font-size="10.00">resume_error</text>
</a>
</g>
</g>
<!-- Node544&#45;&gt;Node554 -->
<g id="edge52" class="edge"><title>Node544&#45;&gt;Node554</title>
<path fill="none" stroke="midnightblue" d="M536.74,-389.441C528.006,-357.488 506.491,-293.96 466,-257 461.755,-253.125 456.631,-250.006 451.319,-247.507"/>
<polygon fill="midnightblue" stroke="midnightblue" points="533.407,-390.53 539.307,-399.33 540.182,-388.772 533.407,-390.53"/>
</g>
<!-- Node545&#45;&gt;Node18 -->
<g id="edge46" class="edge"><title>Node545&#45;&gt;Node18</title>
<path fill="none" stroke="midnightblue" d="M232.461,-391.855C222.012,-392.247 210.959,-392.661 200.425,-393.055"/>
<polygon fill="midnightblue" stroke="midnightblue" points="232.806,-395.345 242.668,-391.473 232.544,-388.35 232.806,-395.345"/>
</g>
<!-- Node545&#45;&gt;Node173 -->
<g id="edge47" class="edge"><title>Node545&#45;&gt;Node173</title>
<path fill="none" stroke="midnightblue" d="M266.573,-372.814C257.138,-361.855 245.162,-347.107 236,-333 198.22,-274.827 164.069,-198.298 152.59,-171.645"/>
<polygon fill="midnightblue" stroke="midnightblue" points="263.982,-375.168 273.204,-380.383 269.247,-370.555 263.982,-375.168"/>
</g>
<!-- Node364&#45;&gt;Node16 -->
<g id="edge54" class="edge"><title>Node364&#45;&gt;Node16</title>
<path fill="none" stroke="midnightblue" d="M500.43,-668.535C483.494,-673.705 464.182,-679.599 448.407,-684.414"/>
<polygon fill="midnightblue" stroke="midnightblue" points="501.541,-671.856 510.083,-665.589 499.497,-665.161 501.541,-671.856"/>
</g>
<!-- Node364&#45;&gt;Node253 -->
<g id="edge55" class="edge"><title>Node364&#45;&gt;Node253</title>
<path fill="none" stroke="midnightblue" d="M523.097,-672.203C508.396,-684.558 486.869,-701.374 466,-713 459.624,-716.552 452.447,-719.74 445.594,-722.444"/>
<polygon fill="midnightblue" stroke="midnightblue" points="525.587,-674.679 530.908,-665.517 521.035,-669.362 525.587,-674.679"/>
</g>
<!-- Node288 -->
<g id="node43" class="node"><title>Node288</title>
<g id="a_node43"><a xlink:href="lvm_8h.html#ae93565adc36c6e2157dbbd875433ede1" target="_top" xlink:title=" ">
<polygon fill="white" stroke="red" points="378,-608.5 378,-627.5 454,-627.5 454,-608.5 378,-608.5"/>
<text text-anchor="middle" x="416" y="-615.5" font-family="Helvetica,sans-Serif" font-size="10.00">luaV_execute</text>
</a>
</g>
</g>
<!-- Node364&#45;&gt;Node288 -->
<g id="edge56" class="edge"><title>Node364&#45;&gt;Node288</title>
<path fill="none" stroke="midnightblue" d="M500.43,-643.465C483.494,-638.295 464.182,-632.401 448.407,-627.586"/>
<polygon fill="midnightblue" stroke="midnightblue" points="499.497,-646.839 510.083,-646.411 501.541,-640.144 499.497,-646.839"/>
</g>
<!-- Node365 -->
<g id="node44" class="node"><title>Node365</title>
<g id="a_node44"><a xlink:href="lvm_8h.html#a5db3e64b3cc2f63c3b10b27f7ecd1d03" target="_top" xlink:title=" ">
<polygon fill="white" stroke="red" points="377.5,-646.5 377.5,-665.5 454.5,-665.5 454.5,-646.5 377.5,-646.5"/>
<text text-anchor="middle" x="416" y="-653.5" font-family="Helvetica,sans-Serif" font-size="10.00">luaV_finishOp</text>
</a>
</g>
</g>
<!-- Node364&#45;&gt;Node365 -->
<g id="edge57" class="edge"><title>Node364&#45;&gt;Node365</title>
<path fill="none" stroke="midnightblue" d="M496.571,-656C482.791,-656 467.78,-656 454.547,-656"/>
<polygon fill="midnightblue" stroke="midnightblue" points="496.82,-659.5 506.82,-656 496.82,-652.5 496.82,-659.5"/>
</g>
<!-- Node452 -->
<g id="node46" class="node"><title>Node452</title>
<g id="a_node46"><a xlink:href="llex_8c.html#a83faab0338a28c8b97ff1156725cc61b" target="_top" xlink:title=" ">
<polygon fill="white" stroke="red" points="267,-38.5 267,-57.5 299,-57.5 299,-38.5 267,-38.5"/>
<text text-anchor="middle" x="283" y="-45.5" font-family="Helvetica,sans-Serif" font-size="10.00">llex</text>
</a>
</g>
</g>
<!-- Node451&#45;&gt;Node452 -->
<g id="edge59" class="edge"><title>Node451&#45;&gt;Node452</title>
<path fill="none" stroke="midnightblue" d="M491.891,-82.2259C456.623,-79.1542 408.215,-74.1495 366,-67 342.371,-62.9982 315.364,-56.3261 299.004,-52.0474"/>
<polygon fill="midnightblue" stroke="midnightblue" points="491.672,-85.7198 501.932,-83.0792 492.265,-78.7449 491.672,-85.7198"/>
</g>
<!-- Node461 -->
<g id="node47" class="node"><title>Node461</title>
<g id="a_node47"><a xlink:href="lparser_8c.html#a6d7842332c47d1f9dc803977228e4179" target="_top" xlink:title=" ">
<polygon fill="white" stroke="black" points="366,-38.5 366,-57.5 466,-57.5 466,-38.5 366,-38.5"/>
<text text-anchor="middle" x="416" y="-45.5" font-family="Helvetica,sans-Serif" font-size="10.00">new_localvarliteral_</text>
</a>
</g>
</g>
<!-- Node451&#45;&gt;Node461 -->
<g id="edge60" class="edge"><title>Node451&#45;&gt;Node461</title>
<path fill="none" stroke="midnightblue" d="M500.43,-73.4647C483.494,-68.2952 464.182,-62.4009 448.407,-57.5859"/>
<polygon fill="midnightblue" stroke="midnightblue" points="499.497,-76.8392 510.083,-76.411 501.541,-70.1441 499.497,-76.8392"/>
</g>
<!-- Node462 -->
<g id="node48" class="node"><title>Node462</title>
<g id="a_node48"><a xlink:href="llex_8c.html#a87255185250aab5f03dafe716cdda273" target="_top" xlink:title=" ">
<polygon fill="white" stroke="black" points="372,-0.5 372,-19.5 460,-19.5 460,-0.5 372,-0.5"/>
<text text-anchor="middle" x="416" y="-7.5" font-family="Helvetica,sans-Serif" font-size="10.00">read_long_string</text>
</a>
</g>
</g>
<!-- Node451&#45;&gt;Node462 -->
<g id="edge61" class="edge"><title>Node451&#45;&gt;Node462</title>
<path fill="none" stroke="midnightblue" d="M523.097,-69.7969C508.396,-57.442 486.869,-40.6263 466,-29 459.624,-25.4476 452.447,-22.2599 445.594,-19.556"/>
<polygon fill="midnightblue" stroke="midnightblue" points="521.035,-72.6385 530.908,-76.4828 525.587,-67.3208 521.035,-72.6385"/>
</g>
<!-- Node463 -->
<g id="node49" class="node"><title>Node463</title>
<g id="a_node49"><a xlink:href="llex_8c.html#a5a2d8bb78e2b8e9ee25f901c811b2275" target="_top" xlink:title=" ">
<polygon fill="white" stroke="black" points="383.5,-114.5 383.5,-133.5 448.5,-133.5 448.5,-114.5 383.5,-114.5"/>
<text text-anchor="middle" x="416" y="-121.5" font-family="Helvetica,sans-Serif" font-size="10.00">read_string</text>
</a>
</g>
</g>
<!-- Node451&#45;&gt;Node463 -->
<g id="edge63" class="edge"><title>Node451&#45;&gt;Node463</title>
<path fill="none" stroke="midnightblue" d="M500.43,-98.5353C483.494,-103.705 464.182,-109.599 448.407,-114.414"/>
<polygon fill="midnightblue" stroke="midnightblue" points="501.541,-101.856 510.083,-95.589 499.497,-95.1608 501.541,-101.856"/>
</g>
<!-- Node462&#45;&gt;Node452 -->
<g id="edge62" class="edge"><title>Node462&#45;&gt;Node452</title>
<path fill="none" stroke="midnightblue" d="M372.266,-22.3961C347.189,-29.6705 317.026,-38.4199 299.244,-43.5782"/>
<polygon fill="midnightblue" stroke="midnightblue" points="373.314,-25.7364 381.943,-19.589 371.364,-19.0136 373.314,-25.7364"/>
</g>
<!-- Node463&#45;&gt;Node452 -->
<g id="edge64" class="edge"><title>Node463&#45;&gt;Node452</title>
<path fill="none" stroke="midnightblue" d="M382.456,-109.697C376.808,-106.76 371.113,-103.488 366,-100 348.07,-87.7677 348.311,-78.6547 330,-67 320.378,-60.8758 308.449,-56.0156 299.15,-52.7442"/>
<polygon fill="midnightblue" stroke="midnightblue" points="381.286,-113.023 391.803,-114.306 384.381,-106.744 381.286,-113.023"/>
</g>
<!-- Node555&#45;&gt;Node253 -->
<g id="edge66" class="edge"><title>Node555&#45;&gt;Node253</title>
<path fill="none" stroke="midnightblue" d="M507.693,-732C493.793,-732 477.482,-732 462.555,-732"/>
<polygon fill="midnightblue" stroke="midnightblue" points="507.789,-735.5 517.789,-732 507.789,-728.5 507.789,-735.5"/>
</g>
</g>
</svg>
