<?xml version="1.0" encoding="UTF-8" standalone="no"?>
<!DOCTYPE svg PUBLIC "-//W3C//DTD SVG 1.1//EN"
 "http://www.w3.org/Graphics/SVG/1.1/DTD/svg11.dtd">
<!-- Generated by graphviz version 2.38.0 (20140413.2041)
 -->
<!-- Title: luaH_set Pages: 1 -->
<svg width="1047pt" height="664pt"
 viewBox="0.00 0.00 1047.00 664.32" xmlns="http://www.w3.org/2000/svg" xmlns:xlink="http://www.w3.org/1999/xlink">
<g id="graph0" class="graph" transform="scale(1 1) rotate(0) translate(4 660.316)">
<title>luaH_set</title>
<polygon fill="white" stroke="none" points="-4,4 -4,-660.316 1043,-660.316 1043,4 -4,4"/>
<!-- Node1 -->
<g id="node1" class="node"><title>Node1</title>
<g id="a_node1"><a xlink:title=" ">
<polygon fill="#bfbfbf" stroke="black" points="0,-193.064 0,-212.064 55,-212.064 55,-193.064 0,-193.064"/>
<text text-anchor="middle" x="27.5" y="-200.064" font-family="Helvetica,sans-Serif" font-size="10.00">luaH_set</text>
</a>
</g>
</g>
<!-- Node2 -->
<g id="node2" class="node"><title>Node2</title>
<g id="a_node2"><a xlink:href="ltable_8c.html#a8b4fce00d7db27ee9caac3d49863dea3" target="_top" xlink:title=" ">
<polygon fill="white" stroke="black" points="100.5,-146.064 100.5,-165.064 155.5,-165.064 155.5,-146.064 100.5,-146.064"/>
<text text-anchor="middle" x="128" y="-153.064" font-family="Helvetica,sans-Serif" font-size="10.00">luaH_get</text>
</a>
</g>
</g>
<!-- Node1&#45;&gt;Node2 -->
<g id="edge1" class="edge"><title>Node1&#45;&gt;Node2</title>
<path fill="none" stroke="midnightblue" d="M48.4329,-193.053C62.4919,-186.345 81.5622,-177.245 97.3936,-169.691"/>
<polygon fill="midnightblue" stroke="midnightblue" points="99.2407,-172.688 106.759,-165.222 96.2261,-166.37 99.2407,-172.688"/>
</g>
<!-- Node17 -->
<g id="node17" class="node"><title>Node17</title>
<g id="a_node17"><a xlink:href="ltable_8c.html#acd27c97015f505846bd7052b144f3133" target="_top" xlink:title=" ">
<polygon fill="white" stroke="black" points="91,-241.064 91,-260.064 165,-260.064 165,-241.064 91,-241.064"/>
<text text-anchor="middle" x="128" y="-248.064" font-family="Helvetica,sans-Serif" font-size="10.00">luaH_newkey</text>
</a>
</g>
</g>
<!-- Node1&#45;&gt;Node17 -->
<g id="edge16" class="edge"><title>Node1&#45;&gt;Node17</title>
<path fill="none" stroke="midnightblue" d="M55.1555,-209.479C71.607,-216.439 92.353,-226.732 107.317,-235.447"/>
<polygon fill="midnightblue" stroke="midnightblue" points="105.857,-238.657 116.212,-240.896 109.513,-232.688 105.857,-238.657"/>
</g>
<!-- Node3 -->
<g id="node3" class="node"><title>Node3</title>
<g id="a_node3"><a xlink:href="ltable_8c.html#a4de8d73b4c27cd4f7cefa861e54caf37" target="_top" xlink:title=" ">
<polygon fill="white" stroke="black" points="214,-146.064 214,-165.064 276,-165.064 276,-146.064 214,-146.064"/>
<text text-anchor="middle" x="245" y="-153.064" font-family="Helvetica,sans-Serif" font-size="10.00">getgeneric</text>
</a>
</g>
</g>
<!-- Node2&#45;&gt;Node3 -->
<g id="edge2" class="edge"><title>Node2&#45;&gt;Node3</title>
<path fill="none" stroke="midnightblue" d="M155.672,-155.564C169.933,-155.564 187.785,-155.564 203.701,-155.564"/>
<polygon fill="midnightblue" stroke="midnightblue" points="203.823,-159.064 213.823,-155.564 203.823,-152.064 203.823,-159.064"/>
</g>
<!-- Node8 -->
<g id="node8" class="node"><title>Node8</title>
<g id="a_node8"><a xlink:href="ltable_8c.html#ae142cefd44452389877c3e3187c7973e" target="_top" xlink:title=" ">
<polygon fill="white" stroke="black" points="601,-80.0641 601,-99.0641 666,-99.0641 666,-80.0641 601,-80.0641"/>
<text text-anchor="middle" x="633.5" y="-87.0641" font-family="Helvetica,sans-Serif" font-size="10.00">luaH_getint</text>
</a>
</g>
</g>
<!-- Node2&#45;&gt;Node8 -->
<g id="edge7" class="edge"><title>Node2&#45;&gt;Node8</title>
<path fill="none" stroke="midnightblue" d="M149.96,-145.936C199.35,-123.843 327.436,-69.993 441,-51.5641 489.258,-43.733 503.27,-40.9836 551,-51.5641 571.322,-56.0688 592.582,-66.1887 608.292,-74.8529"/>
<polygon fill="midnightblue" stroke="midnightblue" points="606.878,-78.0762 617.298,-79.9963 610.35,-71.9976 606.878,-78.0762"/>
</g>
<!-- Node9 -->
<g id="node9" class="node"><title>Node9</title>
<g id="a_node9"><a xlink:href="ltable_8c.html#ae8a52507e1c8966d9cf3f2dd5a0c325f" target="_top" xlink:title=" ">
<polygon fill="white" stroke="black" points="201,-23.0641 201,-42.0641 289,-42.0641 289,-23.0641 201,-23.0641"/>
<text text-anchor="middle" x="245" y="-30.0641" font-family="Helvetica,sans-Serif" font-size="10.00">luaH_getshortstr</text>
</a>
</g>
</g>
<!-- Node2&#45;&gt;Node9 -->
<g id="edge8" class="edge"><title>Node2&#45;&gt;Node9</title>
<path fill="none" stroke="midnightblue" d="M134.035,-146.064C144.449,-127.11 169.995,-84.0623 201,-56.5641 204.898,-53.1072 209.376,-49.9362 213.938,-47.1108"/>
<polygon fill="midnightblue" stroke="midnightblue" points="215.733,-50.1162 222.683,-42.1192 212.263,-44.0368 215.733,-50.1162"/>
</g>
<!-- Node10 -->
<g id="node10" class="node"><title>Node10</title>
<g id="a_node10"><a xlink:href="lvm_8c.html#acdf7e8db180808362a373d9b5484452e" target="_top" xlink:title=" ">
<polygon fill="white" stroke="black" points="205.5,-222.064 205.5,-241.064 284.5,-241.064 284.5,-222.064 205.5,-222.064"/>
<text text-anchor="middle" x="245" y="-229.064" font-family="Helvetica,sans-Serif" font-size="10.00">luaV_tointeger</text>
</a>
</g>
</g>
<!-- Node2&#45;&gt;Node10 -->
<g id="edge9" class="edge"><title>Node2&#45;&gt;Node10</title>
<path fill="none" stroke="midnightblue" d="M143.565,-165.19C163.093,-178.095 197.973,-201.146 221.05,-216.397"/>
<polygon fill="midnightblue" stroke="midnightblue" points="219.281,-219.423 229.553,-222.017 223.14,-213.583 219.281,-219.423"/>
</g>
<!-- Node4 -->
<g id="node4" class="node"><title>Node4</title>
<g id="a_node4"><a xlink:href="ltable_8c.html#a598108bce7f1fdba262aae74191caeec" target="_top" xlink:title=" ">
<polygon fill="white" stroke="black" points="329.5,-260.064 329.5,-279.064 400.5,-279.064 400.5,-260.064 329.5,-260.064"/>
<text text-anchor="middle" x="365" y="-267.064" font-family="Helvetica,sans-Serif" font-size="10.00">mainposition</text>
</a>
</g>
</g>
<!-- Node3&#45;&gt;Node4 -->
<g id="edge3" class="edge"><title>Node3&#45;&gt;Node4</title>
<path fill="none" stroke="midnightblue" d="M253.264,-165.312C269.399,-186.788 308.123,-237.324 325,-250.564 327.022,-252.15 329.198,-253.652 331.451,-255.062"/>
<polygon fill="midnightblue" stroke="midnightblue" points="329.922,-258.217 340.359,-260.04 333.337,-252.106 329.922,-258.217"/>
</g>
<!-- Node5 -->
<g id="node5" class="node"><title>Node5</title>
<g id="a_node5"><a xlink:href="ltable_8c.html#ac726a5642652c5e7d5417c03047fc3d5" target="_top" xlink:title=" ">
<polygon fill="white" stroke="black" points="464.5,-327.064 464.5,-346.064 527.5,-346.064 527.5,-327.064 464.5,-327.064"/>
<text text-anchor="middle" x="496" y="-334.064" font-family="Helvetica,sans-Serif" font-size="10.00">l_hashfloat</text>
</a>
</g>
</g>
<!-- Node4&#45;&gt;Node5 -->
<g id="edge4" class="edge"><title>Node4&#45;&gt;Node5</title>
<path fill="none" stroke="midnightblue" d="M387.926,-279.177C393.624,-281.961 399.659,-285.173 405,-288.564 422.345,-299.577 423.051,-307.566 441,-317.564 445.279,-319.947 449.911,-322.117 454.603,-324.068"/>
<polygon fill="midnightblue" stroke="midnightblue" points="453.631,-327.444 464.221,-327.76 456.14,-320.909 453.631,-327.444"/>
</g>
<!-- Node6 -->
<g id="node6" class="node"><title>Node6</title>
<g id="a_node6"><a xlink:href="lstring_8c.html#ac51f4a1e06f41eeeb4690a3581016217" target="_top" xlink:title=" ">
<polygon fill="white" stroke="black" points="450,-289.064 450,-308.064 542,-308.064 542,-289.064 450,-289.064"/>
<text text-anchor="middle" x="496" y="-296.064" font-family="Helvetica,sans-Serif" font-size="10.00">luaS_hashlongstr</text>
</a>
</g>
</g>
<!-- Node4&#45;&gt;Node6 -->
<g id="edge5" class="edge"><title>Node4&#45;&gt;Node6</title>
<path fill="none" stroke="midnightblue" d="M400.57,-277.336C413.421,-280.225 428.31,-283.572 442.412,-286.742"/>
<polygon fill="midnightblue" stroke="midnightblue" points="441.977,-290.231 452.501,-289.01 443.512,-283.402 441.977,-290.231"/>
</g>
<!-- Node7 -->
<g id="node7" class="node"><title>Node7</title>
<g id="a_node7"><a xlink:href="lstring_8c.html#ac453c0e85b7bb4e9b146fc140b1b7c9e" target="_top" xlink:title=" ">
<polygon fill="white" stroke="black" points="602.5,-289.064 602.5,-308.064 664.5,-308.064 664.5,-289.064 602.5,-289.064"/>
<text text-anchor="middle" x="633.5" y="-296.064" font-family="Helvetica,sans-Serif" font-size="10.00">luaS_hash</text>
</a>
</g>
</g>
<!-- Node6&#45;&gt;Node7 -->
<g id="edge6" class="edge"><title>Node6&#45;&gt;Node7</title>
<path fill="none" stroke="midnightblue" d="M542.12,-298.564C558.133,-298.564 576.051,-298.564 591.685,-298.564"/>
<polygon fill="midnightblue" stroke="midnightblue" points="592.091,-302.064 602.091,-298.564 592.091,-295.064 592.091,-302.064"/>
</g>
<!-- Node11 -->
<g id="node11" class="node"><title>Node11</title>
<g id="a_node11"><a xlink:href="lobject_8c.html#ab1956c979ca7ff39b07534390714505d" target="_top" xlink:title=" ">
<polygon fill="white" stroke="black" points="326.5,-222.064 326.5,-241.064 403.5,-241.064 403.5,-222.064 326.5,-222.064"/>
<text text-anchor="middle" x="365" y="-229.064" font-family="Helvetica,sans-Serif" font-size="10.00">luaO_str2num</text>
</a>
</g>
</g>
<!-- Node10&#45;&gt;Node11 -->
<g id="edge10" class="edge"><title>Node10&#45;&gt;Node11</title>
<path fill="none" stroke="midnightblue" d="M284.638,-231.564C294.72,-231.564 305.706,-231.564 316.202,-231.564"/>
<polygon fill="midnightblue" stroke="midnightblue" points="316.482,-235.064 326.482,-231.564 316.482,-228.064 316.482,-235.064"/>
</g>
<!-- Node12 -->
<g id="node12" class="node"><title>Node12</title>
<g id="a_node12"><a xlink:href="lobject_8c.html#a331ebab44d182775ef47eeebeeb58dbd" target="_top" xlink:title=" ">
<polygon fill="white" stroke="black" points="473,-213.064 473,-232.064 519,-232.064 519,-213.064 473,-213.064"/>
<text text-anchor="middle" x="496" y="-220.064" font-family="Helvetica,sans-Serif" font-size="10.00">l_str2d</text>
</a>
</g>
</g>
<!-- Node11&#45;&gt;Node12 -->
<g id="edge11" class="edge"><title>Node11&#45;&gt;Node12</title>
<path fill="none" stroke="midnightblue" d="M403.659,-228.937C422.433,-227.627 444.9,-226.059 462.854,-224.807"/>
<polygon fill="midnightblue" stroke="midnightblue" points="463.109,-228.298 472.841,-224.11 462.622,-221.315 463.109,-228.298"/>
</g>
<!-- Node14 -->
<g id="node14" class="node"><title>Node14</title>
<g id="a_node14"><a xlink:href="lobject_8c.html#ac5f6271088cb629a2359a93c283dc6ce" target="_top" xlink:title=" ">
<polygon fill="white" stroke="black" points="470.5,-251.064 470.5,-270.064 521.5,-270.064 521.5,-251.064 470.5,-251.064"/>
<text text-anchor="middle" x="496" y="-258.064" font-family="Helvetica,sans-Serif" font-size="10.00">l_str2int</text>
</a>
</g>
</g>
<!-- Node11&#45;&gt;Node14 -->
<g id="edge13" class="edge"><title>Node11&#45;&gt;Node14</title>
<path fill="none" stroke="midnightblue" d="M403.659,-240.03C421.563,-244.055 442.825,-248.835 460.329,-252.77"/>
<polygon fill="midnightblue" stroke="midnightblue" points="459.622,-256.198 470.147,-254.977 461.158,-249.369 459.622,-256.198"/>
</g>
<!-- Node13 -->
<g id="node13" class="node"><title>Node13</title>
<g id="a_node13"><a xlink:href="lobject_8c.html#a58b5660686590a5ed833cc0f89fbe832" target="_top" xlink:title=" ">
<polygon fill="white" stroke="black" points="604,-175.064 604,-194.064 663,-194.064 663,-175.064 604,-175.064"/>
<text text-anchor="middle" x="633.5" y="-182.064" font-family="Helvetica,sans-Serif" font-size="10.00">l_str2dloc</text>
</a>
</g>
</g>
<!-- Node12&#45;&gt;Node13 -->
<g id="edge12" class="edge"><title>Node12&#45;&gt;Node13</title>
<path fill="none" stroke="midnightblue" d="M519.072,-216.374C539.372,-210.681 569.914,-202.116 594.193,-195.307"/>
<polygon fill="midnightblue" stroke="midnightblue" points="595.145,-198.675 603.829,-192.605 593.255,-191.935 595.145,-198.675"/>
</g>
<!-- Node15 -->
<g id="node15" class="node"><title>Node15</title>
<g id="a_node15"><a xlink:href="lobject_8c.html#a3234b1ccb9cfbbd0892dcc6190a45876" target="_top" xlink:title=" ">
<polygon fill="white" stroke="black" points="613.5,-213.064 613.5,-232.064 653.5,-232.064 653.5,-213.064 613.5,-213.064"/>
<text text-anchor="middle" x="633.5" y="-220.064" font-family="Helvetica,sans-Serif" font-size="10.00">isneg</text>
</a>
</g>
</g>
<!-- Node14&#45;&gt;Node15 -->
<g id="edge14" class="edge"><title>Node14&#45;&gt;Node15</title>
<path fill="none" stroke="midnightblue" d="M521.538,-253.683C544.627,-247.207 579.208,-237.509 603.617,-230.664"/>
<polygon fill="midnightblue" stroke="midnightblue" points="604.709,-233.993 613.393,-227.923 602.819,-227.253 604.709,-233.993"/>
</g>
<!-- Node16 -->
<g id="node16" class="node"><title>Node16</title>
<g id="a_node16"><a xlink:href="lobject_8c.html#ab73b1325bd3b1a6f9affc08fb46c07ec" target="_top" xlink:title=" ">
<polygon fill="white" stroke="black" points="591,-251.064 591,-270.064 676,-270.064 676,-251.064 591,-251.064"/>
<text text-anchor="middle" x="633.5" y="-258.064" font-family="Helvetica,sans-Serif" font-size="10.00">luaO_hexavalue</text>
</a>
</g>
</g>
<!-- Node14&#45;&gt;Node16 -->
<g id="edge15" class="edge"><title>Node14&#45;&gt;Node16</title>
<path fill="none" stroke="midnightblue" d="M521.538,-260.564C538.044,-260.564 560.424,-260.564 580.761,-260.564"/>
<polygon fill="midnightblue" stroke="midnightblue" points="580.856,-264.064 590.856,-260.564 580.856,-257.064 580.856,-264.064"/>
</g>
<!-- Node17&#45;&gt;Node1 -->
<g id="edge47" class="edge"><title>Node17&#45;&gt;Node1</title>
<path fill="none" stroke="midnightblue" d="M94.3036,-241.03C78.8664,-234.186 60.9738,-225.161 47.7464,-217.426"/>
<polygon fill="midnightblue" stroke="midnightblue" points="49.3926,-214.33 39.0412,-212.071 45.725,-220.292 49.3926,-214.33"/>
</g>
<!-- Node17&#45;&gt;Node4 -->
<g id="edge49" class="edge"><title>Node17&#45;&gt;Node4</title>
<path fill="none" stroke="midnightblue" d="M165.204,-253.491C206.651,-256.842 274.569,-262.334 319.285,-265.949"/>
<polygon fill="midnightblue" stroke="midnightblue" points="319.039,-269.44 329.288,-266.758 319.603,-262.463 319.039,-269.44"/>
</g>
<!-- Node17&#45;&gt;Node10 -->
<g id="edge48" class="edge"><title>Node17&#45;&gt;Node10</title>
<path fill="none" stroke="midnightblue" d="M165.071,-244.605C174.655,-243.021 185.166,-241.284 195.304,-239.61"/>
<polygon fill="midnightblue" stroke="midnightblue" points="195.972,-243.047 205.268,-237.963 194.831,-236.14 195.972,-243.047"/>
</g>
<!-- Node18 -->
<g id="node18" class="node"><title>Node18</title>
<g id="a_node18"><a xlink:href="ltable_8c.html#aadac41ebb50daf5143d8deb998418a50" target="_top" xlink:title=" ">
<polygon fill="white" stroke="black" points="214,-336.064 214,-355.064 276,-355.064 276,-336.064 214,-336.064"/>
<text text-anchor="middle" x="245" y="-343.064" font-family="Helvetica,sans-Serif" font-size="10.00">getfreepos</text>
</a>
</g>
</g>
<!-- Node17&#45;&gt;Node18 -->
<g id="edge17" class="edge"><title>Node17&#45;&gt;Node18</title>
<path fill="none" stroke="midnightblue" d="M136.009,-260.133C147.883,-275.789 173.373,-307.08 201,-326.564 203.376,-328.24 205.924,-329.817 208.549,-331.291"/>
<polygon fill="midnightblue" stroke="midnightblue" points="207.135,-334.498 217.637,-335.896 210.299,-328.254 207.135,-334.498"/>
</g>
<!-- Node19 -->
<g id="node19" class="node"><title>Node19</title>
<g id="a_node19"><a xlink:href="ldebug_8c.html#a88d38ca5da2e7a1492fc9d5ad70c32c5" target="_top" xlink:title=" ">
<polygon fill="white" stroke="black" points="207.5,-544.064 207.5,-563.064 282.5,-563.064 282.5,-544.064 207.5,-544.064"/>
<text text-anchor="middle" x="245" y="-551.064" font-family="Helvetica,sans-Serif" font-size="10.00">luaG_runerror</text>
</a>
</g>
</g>
<!-- Node17&#45;&gt;Node19 -->
<g id="edge18" class="edge"><title>Node17&#45;&gt;Node19</title>
<path fill="none" stroke="midnightblue" d="M132.696,-260.302C149.019,-303.309 214.809,-476.651 236.8,-534.594"/>
<polygon fill="midnightblue" stroke="midnightblue" points="233.554,-535.906 240.375,-544.013 240.099,-533.422 233.554,-535.906"/>
</g>
<!-- Node107 -->
<g id="node39" class="node"><title>Node107</title>
<g id="a_node39"><a xlink:href="ltable_8c.html#ad775daa2a19a375c7385ed30834a3eeb" target="_top" xlink:title=" ">
<polygon fill="white" stroke="black" points="222,-298.064 222,-317.064 268,-317.064 268,-298.064 222,-298.064"/>
<text text-anchor="middle" x="245" y="-305.064" font-family="Helvetica,sans-Serif" font-size="10.00">rehash</text>
</a>
</g>
</g>
<!-- Node17&#45;&gt;Node107 -->
<g id="edge50" class="edge"><title>Node17&#45;&gt;Node107</title>
<path fill="none" stroke="midnightblue" d="M148.248,-260.105C166.657,-269.229 194.64,-283.099 215.608,-293.491"/>
<polygon fill="midnightblue" stroke="midnightblue" points="214.175,-296.687 224.689,-297.992 217.283,-290.416 214.175,-296.687"/>
</g>
<!-- Node20 -->
<g id="node20" class="node"><title>Node20</title>
<g id="a_node20"><a xlink:href="ldebug_8c.html#a9834508872dae133075c7efe6404a9d8" target="_top" xlink:title=" ">
<polygon fill="white" stroke="black" points="334,-592.064 334,-611.064 396,-611.064 396,-592.064 334,-592.064"/>
<text text-anchor="middle" x="365" y="-599.064" font-family="Helvetica,sans-Serif" font-size="10.00">currentline</text>
</a>
</g>
</g>
<!-- Node19&#45;&gt;Node20 -->
<g id="edge19" class="edge"><title>Node19&#45;&gt;Node20</title>
<path fill="none" stroke="midnightblue" d="M269.595,-563.162C287.201,-570.324 311.482,-580.201 331.01,-588.144"/>
<polygon fill="midnightblue" stroke="midnightblue" points="329.864,-591.457 340.445,-591.983 332.501,-584.972 329.864,-591.457"/>
</g>
<!-- Node22 -->
<g id="node22" class="node"><title>Node22</title>
<g id="a_node22"><a xlink:href="ldebug_8c.html#a7e1dc7518150bf19bd9aa5dda166a2eb" target="_top" xlink:title=" ">
<polygon fill="white" stroke="black" points="328.5,-544.064 328.5,-563.064 401.5,-563.064 401.5,-544.064 328.5,-544.064"/>
<text text-anchor="middle" x="365" y="-551.064" font-family="Helvetica,sans-Serif" font-size="10.00">luaG_addinfo</text>
</a>
</g>
</g>
<!-- Node19&#45;&gt;Node22 -->
<g id="edge21" class="edge"><title>Node19&#45;&gt;Node22</title>
<path fill="none" stroke="midnightblue" d="M282.689,-553.564C293.887,-553.564 306.342,-553.564 318.072,-553.564"/>
<polygon fill="midnightblue" stroke="midnightblue" points="318.143,-557.064 328.143,-553.564 318.143,-550.064 318.143,-557.064"/>
</g>
<!-- Node25 -->
<g id="node25" class="node"><title>Node25</title>
<g id="a_node25"><a xlink:href="lobject_8c.html#aa83fa444a36d79521e846a766fa083d5" target="_top" xlink:title=" ">
<polygon fill="white" stroke="black" points="587,-573.064 587,-592.064 680,-592.064 680,-573.064 587,-573.064"/>
<text text-anchor="middle" x="633.5" y="-580.064" font-family="Helvetica,sans-Serif" font-size="10.00">luaO_pushvfstring</text>
</a>
</g>
</g>
<!-- Node19&#45;&gt;Node25 -->
<g id="edge46" class="edge"><title>Node19&#45;&gt;Node25</title>
<path fill="none" stroke="midnightblue" d="M260.251,-563.122C274.855,-576.629 299.043,-599.57 325,-611.564 372.424,-633.479 388.929,-626.328 441,-630.564 489.728,-634.528 504.37,-645.252 551,-630.564 571.926,-623.973 592.156,-609.882 607.227,-598.461"/>
<polygon fill="midnightblue" stroke="midnightblue" points="609.677,-600.993 615.471,-592.122 605.41,-595.444 609.677,-600.993"/>
</g>
<!-- Node106 -->
<g id="node34" class="node"><title>Node106</title>
<g id="a_node34"><a xlink:href="ldebug_8c.html#af7366920f8408bb33ed01b1d6c0e1238" target="_top" xlink:title=" ">
<polygon fill="white" stroke="black" points="325,-459.064 325,-478.064 405,-478.064 405,-459.064 325,-459.064"/>
<text text-anchor="middle" x="365" y="-466.064" font-family="Helvetica,sans-Serif" font-size="10.00">luaG_errormsg</text>
</a>
</g>
</g>
<!-- Node19&#45;&gt;Node106 -->
<g id="edge40" class="edge"><title>Node19&#45;&gt;Node106</title>
<path fill="none" stroke="midnightblue" d="M257.75,-543.859C272.929,-531.471 300.336,-509.604 325,-492.564 329.384,-489.535 334.147,-486.447 338.788,-483.538"/>
<polygon fill="midnightblue" stroke="midnightblue" points="340.745,-486.444 347.434,-478.228 337.081,-480.479 340.745,-486.444"/>
</g>
<!-- Node21 -->
<g id="node21" class="node"><title>Node21</title>
<g id="a_node21"><a xlink:href="ldebug_8c.html#a7db2a3f5cbcf0ac3ef6d4cfa15ab4dbc" target="_top" xlink:title=" ">
<polygon fill="white" stroke="black" points="467.5,-611.064 467.5,-630.064 524.5,-630.064 524.5,-611.064 467.5,-611.064"/>
<text text-anchor="middle" x="496" y="-618.064" font-family="Helvetica,sans-Serif" font-size="10.00">currentpc</text>
</a>
</g>
</g>
<!-- Node20&#45;&gt;Node21 -->
<g id="edge20" class="edge"><title>Node20&#45;&gt;Node21</title>
<path fill="none" stroke="midnightblue" d="M396.245,-606.019C414.425,-608.696 437.719,-612.127 457.118,-614.985"/>
<polygon fill="midnightblue" stroke="midnightblue" points="456.745,-618.467 467.148,-616.462 457.765,-611.542 456.745,-618.467"/>
</g>
<!-- Node23 -->
<g id="node23" class="node"><title>Node23</title>
<g id="a_node23"><a xlink:href="lobject_8c.html#a4708cca3615b7fafb7ea4631f486983b" target="_top" xlink:title=" ">
<polygon fill="white" stroke="black" points="458,-573.064 458,-592.064 534,-592.064 534,-573.064 458,-573.064"/>
<text text-anchor="middle" x="496" y="-580.064" font-family="Helvetica,sans-Serif" font-size="10.00">luaO_chunkid</text>
</a>
</g>
</g>
<!-- Node22&#45;&gt;Node23 -->
<g id="edge22" class="edge"><title>Node22&#45;&gt;Node23</title>
<path fill="none" stroke="midnightblue" d="M401.591,-561.565C415.907,-564.783 432.617,-568.54 447.915,-571.979"/>
<polygon fill="midnightblue" stroke="midnightblue" points="447.2,-575.406 457.724,-574.184 448.736,-568.576 447.2,-575.406"/>
</g>
<!-- Node24 -->
<g id="node24" class="node"><title>Node24</title>
<g id="a_node24"><a xlink:href="lobject_8c.html#a8e224db7123c74d695076a96d1bfda61" target="_top" xlink:title=" ">
<polygon fill="white" stroke="black" points="451.5,-535.064 451.5,-554.064 540.5,-554.064 540.5,-535.064 451.5,-535.064"/>
<text text-anchor="middle" x="496" y="-542.064" font-family="Helvetica,sans-Serif" font-size="10.00">luaO_pushfstring</text>
</a>
</g>
</g>
<!-- Node22&#45;&gt;Node24 -->
<g id="edge23" class="edge"><title>Node22&#45;&gt;Node24</title>
<path fill="none" stroke="midnightblue" d="M401.591,-551.081C413.834,-550.227 427.828,-549.251 441.192,-548.318"/>
<polygon fill="midnightblue" stroke="midnightblue" points="441.517,-551.804 451.249,-547.616 441.03,-544.821 441.517,-551.804"/>
</g>
<!-- Node24&#45;&gt;Node25 -->
<g id="edge24" class="edge"><title>Node24&#45;&gt;Node25</title>
<path fill="none" stroke="midnightblue" d="M540.619,-550.443C562.03,-555.715 587.139,-563.04 605.693,-569.54"/>
<polygon fill="midnightblue" stroke="midnightblue" points="604.668,-572.892 615.261,-573.048 607.078,-566.32 604.668,-572.892"/>
</g>
<!-- Node25&#45;&gt;Node19 -->
<g id="edge26" class="edge"><title>Node25&#45;&gt;Node19</title>
<path fill="none" stroke="midnightblue" d="M627.592,-592.282C615.778,-608.654 584.267,-638.085 551,-648.564 504.37,-663.252 489.728,-652.528 441,-648.564 388.929,-644.328 372.424,-651.479 325,-629.564 296.38,-616.339 269.91,-589.806 256.067,-571.504"/>
<polygon fill="midnightblue" stroke="midnightblue" points="258.921,-569.478 250.332,-563.275 253.179,-573.48 258.921,-569.478"/>
</g>
<!-- Node25&#45;&gt;Node24 -->
<g id="edge27" class="edge"><title>Node25&#45;&gt;Node24</title>
<path fill="none" stroke="midnightblue" d="M586.9,-576.194C566.005,-570.981 541.952,-563.936 523.987,-557.651"/>
<polygon fill="midnightblue" stroke="midnightblue" points="525.031,-554.306 514.437,-554.156 522.625,-560.88 525.031,-554.306"/>
</g>
<!-- Node26 -->
<g id="node26" class="node"><title>Node26</title>
<g id="a_node26"><a xlink:href="ldo_8c.html#a4dd006aa3210fdc854d0441e2a98c9af" target="_top" xlink:title=" ">
<polygon fill="white" stroke="black" points="828,-611.064 828,-630.064 896,-630.064 896,-611.064 828,-611.064"/>
<text text-anchor="middle" x="862" y="-618.064" font-family="Helvetica,sans-Serif" font-size="10.00">luaD_inctop</text>
</a>
</g>
</g>
<!-- Node25&#45;&gt;Node26 -->
<g id="edge25" class="edge"><title>Node25&#45;&gt;Node26</title>
<path fill="none" stroke="midnightblue" d="M643.946,-592.183C658.107,-605.84 686.356,-630.226 716,-639.564 752.768,-651.146 796.929,-642.305 826.779,-633.194"/>
<polygon fill="midnightblue" stroke="midnightblue" points="827.875,-636.518 836.322,-630.122 825.731,-629.854 827.875,-636.518"/>
</g>
<!-- Node27 -->
<g id="node27" class="node"><title>Node27</title>
<g id="a_node27"><a xlink:href="lobject_8c.html#a00c5c37438b02ff7efcf8e8dfa98da7c" target="_top" xlink:title=" ">
<polygon fill="white" stroke="black" points="716,-535.064 716,-554.064 790,-554.064 790,-535.064 716,-535.064"/>
<text text-anchor="middle" x="753" y="-542.064" font-family="Helvetica,sans-Serif" font-size="10.00">luaO_tostring</text>
</a>
</g>
</g>
<!-- Node25&#45;&gt;Node27 -->
<g id="edge28" class="edge"><title>Node25&#45;&gt;Node27</title>
<path fill="none" stroke="midnightblue" d="M664.15,-572.975C678.901,-568.205 696.926,-562.375 712.801,-557.241"/>
<polygon fill="midnightblue" stroke="midnightblue" points="713.921,-560.557 722.359,-554.15 711.767,-553.897 713.921,-560.557"/>
</g>
<!-- Node35 -->
<g id="node30" class="node"><title>Node35</title>
<g id="a_node30"><a xlink:href="lobject_8c.html#af3136de4693789b08f78aafda9604676" target="_top" xlink:title=" ">
<polygon fill="white" stroke="black" points="716,-611.064 716,-630.064 790,-630.064 790,-611.064 716,-611.064"/>
<text text-anchor="middle" x="753" y="-618.064" font-family="Helvetica,sans-Serif" font-size="10.00">luaO_utf8esc</text>
</a>
</g>
</g>
<!-- Node25&#45;&gt;Node35 -->
<g id="edge31" class="edge"><title>Node25&#45;&gt;Node35</title>
<path fill="none" stroke="midnightblue" d="M664.15,-592.153C678.901,-596.924 696.926,-602.753 712.801,-607.887"/>
<polygon fill="midnightblue" stroke="midnightblue" points="711.767,-611.231 722.359,-610.978 713.921,-604.571 711.767,-611.231"/>
</g>
<!-- Node36 -->
<g id="node31" class="node"><title>Node36</title>
<g id="a_node31"><a xlink:href="lvm_8c.html#a2f076040af405dcb50d661edd692eca7" target="_top" xlink:title=" ">
<polygon fill="white" stroke="red" points="717.5,-497.064 717.5,-516.064 788.5,-516.064 788.5,-497.064 717.5,-497.064"/>
<text text-anchor="middle" x="753" y="-504.064" font-family="Helvetica,sans-Serif" font-size="10.00">luaV_concat</text>
</a>
</g>
</g>
<!-- Node25&#45;&gt;Node36 -->
<g id="edge32" class="edge"><title>Node25&#45;&gt;Node36</title>
<path fill="none" stroke="midnightblue" d="M647.153,-572.972C662.9,-561.211 690.797,-540.946 716,-525.564 718.488,-524.045 721.109,-522.523 723.756,-521.037"/>
<polygon fill="midnightblue" stroke="midnightblue" points="725.575,-524.032 732.696,-516.186 722.237,-517.879 725.575,-524.032"/>
</g>
<!-- Node105 -->
<g id="node33" class="node"><title>Node105</title>
<g id="a_node33"><a xlink:href="lobject_8c.html#aa65db03553a5abd73e466d307bb17a37" target="_top" xlink:title=" ">
<polygon fill="white" stroke="black" points="728.5,-573.064 728.5,-592.064 777.5,-592.064 777.5,-573.064 728.5,-573.064"/>
<text text-anchor="middle" x="753" y="-580.064" font-family="Helvetica,sans-Serif" font-size="10.00">pushstr</text>
</a>
</g>
</g>
<!-- Node25&#45;&gt;Node105 -->
<g id="edge37" class="edge"><title>Node25&#45;&gt;Node105</title>
<path fill="none" stroke="midnightblue" d="M680.265,-582.564C692.796,-582.564 706.157,-582.564 717.909,-582.564"/>
<polygon fill="midnightblue" stroke="midnightblue" points="718.18,-586.064 728.18,-582.564 718.18,-579.064 718.18,-586.064"/>
</g>
<!-- Node28 -->
<g id="node28" class="node"><title>Node28</title>
<g id="a_node28"><a xlink:href="lstring_8c.html#ab41fb084ce3ea5e2779f6659ccc2484d" target="_top" xlink:title=" ">
<polygon fill="white" stroke="red" points="826,-535.064 826,-554.064 898,-554.064 898,-535.064 826,-535.064"/>
<text text-anchor="middle" x="862" y="-542.064" font-family="Helvetica,sans-Serif" font-size="10.00">luaS_newlstr</text>
</a>
</g>
</g>
<!-- Node27&#45;&gt;Node28 -->
<g id="edge29" class="edge"><title>Node27&#45;&gt;Node28</title>
<path fill="none" stroke="midnightblue" d="M790.225,-544.564C798.415,-544.564 807.209,-544.564 815.72,-544.564"/>
<polygon fill="midnightblue" stroke="midnightblue" points="815.899,-548.064 825.899,-544.564 815.899,-541.064 815.899,-548.064"/>
</g>
<!-- Node34 -->
<g id="node29" class="node"><title>Node34</title>
<g id="a_node29"><a xlink:href="lstring_8c.html#a8790c7d6e706f935dd6e9eefd068921c" target="_top" xlink:title=" ">
<polygon fill="white" stroke="red" points="934,-516.064 934,-535.064 1039,-535.064 1039,-516.064 934,-516.064"/>
<text text-anchor="middle" x="986.5" y="-523.064" font-family="Helvetica,sans-Serif" font-size="10.00">luaS_createlngstrobj</text>
</a>
</g>
</g>
<!-- Node28&#45;&gt;Node34 -->
<g id="edge30" class="edge"><title>Node28&#45;&gt;Node34</title>
<path fill="none" stroke="midnightblue" d="M898.104,-539.119C906.22,-537.861 915.09,-536.485 923.968,-535.108"/>
<polygon fill="midnightblue" stroke="midnightblue" points="924.61,-538.55 933.955,-533.559 923.537,-531.633 924.61,-538.55"/>
</g>
<!-- Node36&#45;&gt;Node19 -->
<g id="edge34" class="edge"><title>Node36&#45;&gt;Node19</title>
<path fill="none" stroke="midnightblue" d="M717.448,-506.7C644.493,-507.454 469.56,-511.72 325,-534.564 313.692,-536.351 301.614,-538.914 290.391,-541.582"/>
<polygon fill="midnightblue" stroke="midnightblue" points="289.248,-538.259 280.371,-544.043 290.917,-545.057 289.248,-538.259"/>
</g>
<!-- Node36&#45;&gt;Node28 -->
<g id="edge36" class="edge"><title>Node36&#45;&gt;Node28</title>
<path fill="none" stroke="midnightblue" d="M781.001,-516.153C794.18,-520.834 810.229,-526.533 824.484,-531.596"/>
<polygon fill="midnightblue" stroke="midnightblue" points="823.413,-534.93 834.008,-534.978 825.756,-528.333 823.413,-534.93"/>
</g>
<!-- Node36&#45;&gt;Node34 -->
<g id="edge35" class="edge"><title>Node36&#45;&gt;Node34</title>
<path fill="none" stroke="midnightblue" d="M788.658,-509.409C824.274,-512.332 880.474,-516.944 923.722,-520.494"/>
<polygon fill="midnightblue" stroke="midnightblue" points="923.604,-523.996 933.856,-521.326 924.176,-517.019 923.604,-523.996"/>
</g>
<!-- Node37 -->
<g id="node32" class="node"><title>Node37</title>
<g id="a_node32"><a xlink:href="lvm_8c.html#a7f03a9c23b77ec5cd280bb955ec430b8" target="_top" xlink:title=" ">
<polygon fill="white" stroke="black" points="833,-459.064 833,-478.064 891,-478.064 891,-459.064 833,-459.064"/>
<text text-anchor="middle" x="862" y="-466.064" font-family="Helvetica,sans-Serif" font-size="10.00">copy2buff</text>
</a>
</g>
</g>
<!-- Node36&#45;&gt;Node37 -->
<g id="edge33" class="edge"><title>Node36&#45;&gt;Node37</title>
<path fill="none" stroke="midnightblue" d="M781.001,-496.975C794.18,-492.295 810.229,-486.595 824.484,-481.533"/>
<polygon fill="midnightblue" stroke="midnightblue" points="825.756,-484.795 834.008,-478.15 823.413,-478.199 825.756,-484.795"/>
</g>
<!-- Node105&#45;&gt;Node26 -->
<g id="edge38" class="edge"><title>Node105&#45;&gt;Node26</title>
<path fill="none" stroke="midnightblue" d="M777.747,-590.998C791.383,-595.84 808.801,-602.026 824.177,-607.487"/>
<polygon fill="midnightblue" stroke="midnightblue" points="823.331,-610.9 833.926,-610.949 825.674,-604.304 823.331,-610.9"/>
</g>
<!-- Node105&#45;&gt;Node28 -->
<g id="edge39" class="edge"><title>Node105&#45;&gt;Node28</title>
<path fill="none" stroke="midnightblue" d="M777.747,-574.131C791.383,-569.288 808.801,-563.102 824.177,-557.641"/>
<polygon fill="midnightblue" stroke="midnightblue" points="825.674,-560.824 833.926,-554.179 823.331,-554.228 825.674,-560.824"/>
</g>
<!-- Node104 -->
<g id="node35" class="node"><title>Node104</title>
<g id="a_node35"><a xlink:href="ldo_8c.html#a61c0a0185ef5ae1493dad10027f4db7e" target="_top" xlink:title=" ">
<polygon fill="white" stroke="black" points="452.5,-459.064 452.5,-478.064 539.5,-478.064 539.5,-459.064 452.5,-459.064"/>
<text text-anchor="middle" x="496" y="-466.064" font-family="Helvetica,sans-Serif" font-size="10.00">luaD_callnoyield</text>
</a>
</g>
</g>
<!-- Node106&#45;&gt;Node104 -->
<g id="edge41" class="edge"><title>Node106&#45;&gt;Node104</title>
<path fill="none" stroke="midnightblue" d="M405.054,-468.564C416.757,-468.564 429.791,-468.564 442.223,-468.564"/>
<polygon fill="midnightblue" stroke="midnightblue" points="442.483,-472.064 452.483,-468.564 442.483,-465.064 442.483,-472.064"/>
</g>
<!-- Node76 -->
<g id="node37" class="node"><title>Node76</title>
<g id="a_node37"><a xlink:href="ldo_8c.html#a2b46d9db5b9ca3d5402a0c2ac640a6b0" target="_top" xlink:title=" ">
<polygon fill="white" stroke="black" points="463.5,-403.064 463.5,-422.064 528.5,-422.064 528.5,-403.064 463.5,-403.064"/>
<text text-anchor="middle" x="496" y="-410.064" font-family="Helvetica,sans-Serif" font-size="10.00">luaD_throw</text>
</a>
</g>
</g>
<!-- Node106&#45;&gt;Node76 -->
<g id="edge43" class="edge"><title>Node106&#45;&gt;Node76</title>
<path fill="none" stroke="midnightblue" d="M388.176,-458.937C408.977,-449.908 440.292,-436.313 463.646,-426.175"/>
<polygon fill="midnightblue" stroke="midnightblue" points="465.334,-429.258 473.113,-422.065 462.547,-422.837 465.334,-429.258"/>
</g>
<!-- Node56 -->
<g id="node36" class="node"><title>Node56</title>
<g id="a_node36"><a xlink:href="ldo_8c.html#a5483fddd87ca999e7d037bf397ab7997" target="_top" xlink:title=" ">
<polygon fill="white" stroke="red" points="605.5,-459.064 605.5,-478.064 661.5,-478.064 661.5,-459.064 605.5,-459.064"/>
<text text-anchor="middle" x="633.5" y="-466.064" font-family="Helvetica,sans-Serif" font-size="10.00">luaD_call</text>
</a>
</g>
</g>
<!-- Node104&#45;&gt;Node56 -->
<g id="edge42" class="edge"><title>Node104&#45;&gt;Node56</title>
<path fill="none" stroke="midnightblue" d="M539.501,-468.564C557.241,-468.564 577.675,-468.564 594.863,-468.564"/>
<polygon fill="midnightblue" stroke="midnightblue" points="595.092,-472.064 605.092,-468.564 595.092,-465.064 595.092,-472.064"/>
</g>
<!-- Node76&#45;&gt;Node76 -->
<g id="edge44" class="edge"><title>Node76&#45;&gt;Node76</title>
<path fill="none" stroke="midnightblue" d="M475.963,-422.321C466.216,-431.129 472.895,-440.564 496,-440.564 510.802,-440.564 518.862,-436.692 520.181,-431.593"/>
<polygon fill="midnightblue" stroke="midnightblue" points="523.313,-430.022 516.037,-422.321 516.922,-432.879 523.313,-430.022"/>
</g>
<!-- Node77 -->
<g id="node38" class="node"><title>Node77</title>
<g id="a_node38"><a xlink:href="ldo_8c.html#af5721b7fac08574c3bf04058268daec7" target="_top" xlink:title=" ">
<polygon fill="white" stroke="black" points="602.5,-403.064 602.5,-422.064 664.5,-422.064 664.5,-403.064 602.5,-403.064"/>
<text text-anchor="middle" x="633.5" y="-410.064" font-family="Helvetica,sans-Serif" font-size="10.00">seterrorobj</text>
</a>
</g>
</g>
<!-- Node76&#45;&gt;Node77 -->
<g id="edge45" class="edge"><title>Node76&#45;&gt;Node77</title>
<path fill="none" stroke="midnightblue" d="M528.769,-412.564C547.686,-412.564 571.876,-412.564 592.137,-412.564"/>
<polygon fill="midnightblue" stroke="midnightblue" points="592.326,-416.064 602.326,-412.564 592.326,-409.064 592.326,-416.064"/>
</g>
<!-- Node108 -->
<g id="node40" class="node"><title>Node108</title>
<g id="a_node40"><a xlink:href="ltable_8c.html#a257cec771edd330f1dbfbd995aff684d" target="_top" xlink:title=" ">
<polygon fill="white" stroke="black" points="326.5,-374.064 326.5,-393.064 403.5,-393.064 403.5,-374.064 326.5,-374.064"/>
<text text-anchor="middle" x="365" y="-381.064" font-family="Helvetica,sans-Serif" font-size="10.00">computesizes</text>
</a>
</g>
</g>
<!-- Node107&#45;&gt;Node108 -->
<g id="edge51" class="edge"><title>Node107&#45;&gt;Node108</title>
<path fill="none" stroke="midnightblue" d="M268.151,-315.717C275.075,-318.689 282.579,-322.366 289,-326.564 307.167,-338.441 307.679,-346.484 325,-359.564 329.068,-362.636 333.546,-365.675 337.972,-368.505"/>
<polygon fill="midnightblue" stroke="midnightblue" points="336.487,-371.701 346.837,-373.963 340.156,-365.74 336.487,-371.701"/>
</g>
<!-- Node109 -->
<g id="node41" class="node"><title>Node109</title>
<g id="a_node41"><a xlink:href="ltable_8c.html#ac3bf1d883dc02576f118cd7815d89065" target="_top" xlink:title=" ">
<polygon fill="white" stroke="black" points="470.5,-365.064 470.5,-384.064 521.5,-384.064 521.5,-365.064 470.5,-365.064"/>
<text text-anchor="middle" x="496" y="-372.064" font-family="Helvetica,sans-Serif" font-size="10.00">countint</text>
</a>
</g>
</g>
<!-- Node107&#45;&gt;Node109 -->
<g id="edge52" class="edge"><title>Node107&#45;&gt;Node109</title>
<path fill="none" stroke="midnightblue" d="M268.097,-313.51C311.615,-325.219 408.69,-351.34 460.638,-365.318"/>
<polygon fill="midnightblue" stroke="midnightblue" points="459.831,-368.725 470.397,-367.944 461.65,-361.966 459.831,-368.725"/>
</g>
<!-- Node73 -->
<g id="node44" class="node"><title>Node73</title>
<g id="a_node44"><a xlink:href="ltable_8c.html#a261bfad2fb15273968f2b07c6cbd803a" target="_top" xlink:title=" ">
<polygon fill="white" stroke="black" points="331,-137.064 331,-156.064 399,-156.064 399,-137.064 331,-137.064"/>
<text text-anchor="middle" x="365" y="-144.064" font-family="Helvetica,sans-Serif" font-size="10.00">luaH_resize</text>
</a>
</g>
</g>
<!-- Node107&#45;&gt;Node73 -->
<g id="edge55" class="edge"><title>Node107&#45;&gt;Node73</title>
<path fill="none" stroke="midnightblue" d="M253.368,-297.93C261.983,-286.634 276.638,-267.323 289,-250.564 311.216,-220.446 336.599,-185.033 351.408,-164.269"/>
<polygon fill="midnightblue" stroke="midnightblue" points="354.291,-166.253 357.243,-156.078 348.59,-162.192 354.291,-166.253"/>
</g>
<!-- Node111 -->
<g id="node49" class="node"><title>Node111</title>
<g id="a_node49"><a xlink:href="ltable_8c.html#aa1bb1405b21d33c8b3c41b78ef555d22" target="_top" xlink:title=" ">
<polygon fill="white" stroke="black" points="328.5,-412.064 328.5,-431.064 401.5,-431.064 401.5,-412.064 328.5,-412.064"/>
<text text-anchor="middle" x="365" y="-419.064" font-family="Helvetica,sans-Serif" font-size="10.00">numusearray</text>
</a>
</g>
</g>
<!-- Node107&#45;&gt;Node111 -->
<g id="edge64" class="edge"><title>Node107&#45;&gt;Node111</title>
<path fill="none" stroke="midnightblue" d="M268.373,-313.965C275.626,-316.891 283.27,-320.983 289,-326.564 315.774,-352.643 298.717,-375.991 325,-402.564 326.39,-403.97 327.906,-405.287 329.505,-406.519"/>
<polygon fill="midnightblue" stroke="midnightblue" points="327.718,-409.53 338.025,-411.985 331.498,-403.639 327.718,-409.53"/>
</g>
<!-- Node112 -->
<g id="node50" class="node"><title>Node112</title>
<g id="a_node50"><a xlink:href="ltable_8c.html#a383b5912900c91c788f78adb36c9d3f9" target="_top" xlink:title=" ">
<polygon fill="white" stroke="black" points="329,-298.064 329,-317.064 401,-317.064 401,-298.064 329,-298.064"/>
<text text-anchor="middle" x="365" y="-305.064" font-family="Helvetica,sans-Serif" font-size="10.00">numusehash</text>
</a>
</g>
</g>
<!-- Node107&#45;&gt;Node112 -->
<g id="edge65" class="edge"><title>Node107&#45;&gt;Node112</title>
<path fill="none" stroke="midnightblue" d="M268.195,-307.564C282.348,-307.564 301.206,-307.564 318.447,-307.564"/>
<polygon fill="midnightblue" stroke="midnightblue" points="318.916,-311.064 328.916,-307.564 318.916,-304.064 318.916,-311.064"/>
</g>
<!-- Node110 -->
<g id="node42" class="node"><title>Node110</title>
<g id="a_node42"><a xlink:href="ltable_8c.html#abceda42498428941972c64b70d996d93" target="_top" xlink:title=" ">
<polygon fill="white" stroke="black" points="602.5,-365.064 602.5,-384.064 664.5,-384.064 664.5,-365.064 602.5,-365.064"/>
<text text-anchor="middle" x="633.5" y="-372.064" font-family="Helvetica,sans-Serif" font-size="10.00">arrayindex</text>
</a>
</g>
</g>
<!-- Node109&#45;&gt;Node110 -->
<g id="edge53" class="edge"><title>Node109&#45;&gt;Node110</title>
<path fill="none" stroke="midnightblue" d="M521.538,-374.564C541.246,-374.564 569.328,-374.564 592.309,-374.564"/>
<polygon fill="midnightblue" stroke="midnightblue" points="592.461,-378.064 602.461,-374.564 592.461,-371.064 592.461,-378.064"/>
</g>
<!-- Node72 -->
<g id="node43" class="node"><title>Node72</title>
<g id="a_node43"><a xlink:href="lobject_8c.html#a731a3a2f9db35aaddeadf8cb19d507bd" target="_top" xlink:title=" ">
<polygon fill="white" stroke="black" points="596,-327.064 596,-346.064 671,-346.064 671,-327.064 596,-327.064"/>
<text text-anchor="middle" x="633.5" y="-334.064" font-family="Helvetica,sans-Serif" font-size="10.00">luaO_ceillog2</text>
</a>
</g>
</g>
<!-- Node109&#45;&gt;Node72 -->
<g id="edge54" class="edge"><title>Node109&#45;&gt;Node72</title>
<path fill="none" stroke="midnightblue" d="M521.538,-367.683C540.188,-362.452 566.337,-355.119 588.566,-348.885"/>
<polygon fill="midnightblue" stroke="midnightblue" points="589.779,-352.18 598.462,-346.11 587.888,-345.44 589.779,-352.18"/>
</g>
<!-- Node73&#45;&gt;Node1 -->
<g id="edge59" class="edge"><title>Node73&#45;&gt;Node1</title>
<path fill="none" stroke="midnightblue" d="M362.016,-136.853C356.175,-111.118 336.381,-41.241 289,-13.5641 255.228,6.16292 236.783,2.22318 201,-13.5641 120.067,-49.2713 60.6719,-143.779 38.2756,-184.01"/>
<polygon fill="midnightblue" stroke="midnightblue" points="35.0895,-182.543 33.3881,-193 41.2395,-185.886 35.0895,-182.543"/>
</g>
<!-- Node73&#45;&gt;Node76 -->
<g id="edge58" class="edge"><title>Node73&#45;&gt;Node76</title>
<path fill="none" stroke="midnightblue" d="M373.202,-156.312C382.032,-168.738 396.828,-191.18 405,-212.564 434.279,-289.18 387.263,-331.599 441,-393.564 444.622,-397.741 449.219,-400.999 454.197,-403.541"/>
<polygon fill="midnightblue" stroke="midnightblue" points="452.863,-406.777 463.44,-407.388 455.552,-400.314 452.863,-406.777"/>
</g>
<!-- Node74 -->
<g id="node45" class="node"><title>Node74</title>
<g id="a_node45"><a xlink:href="ltable_8c.html#abcbddb6cbdabfbe78d65ac5d660d6406" target="_top" xlink:title=" ">
<polygon fill="white" stroke="red" points="462.5,-99.0641 462.5,-118.064 529.5,-118.064 529.5,-99.0641 462.5,-99.0641"/>
<text text-anchor="middle" x="496" y="-106.064" font-family="Helvetica,sans-Serif" font-size="10.00">auxsetnode</text>
</a>
</g>
</g>
<!-- Node73&#45;&gt;Node74 -->
<g id="edge56" class="edge"><title>Node73&#45;&gt;Node74</title>
<path fill="none" stroke="midnightblue" d="M398.552,-136.975C414.899,-132.16 434.909,-126.265 452.457,-121.096"/>
<polygon fill="midnightblue" stroke="midnightblue" points="453.855,-124.333 462.458,-118.15 451.877,-117.618 453.855,-124.333"/>
</g>
<!-- Node75 -->
<g id="node46" class="node"><title>Node75</title>
<g id="a_node46"><a xlink:href="ldo_8c.html#ab0872b1738a995ecbf1cdc8a9bc0fdf6" target="_top" xlink:title=" ">
<polygon fill="white" stroke="black" points="441,-61.0641 441,-80.0641 551,-80.0641 551,-61.0641 441,-61.0641"/>
<text text-anchor="middle" x="496" y="-68.0641" font-family="Helvetica,sans-Serif" font-size="10.00">luaD_rawrunprotected</text>
</a>
</g>
</g>
<!-- Node73&#45;&gt;Node75 -->
<g id="edge57" class="edge"><title>Node73&#45;&gt;Node75</title>
<path fill="none" stroke="midnightblue" d="M376.444,-136.92C390.302,-124.542 415.947,-103.059 441,-89.5641 444.79,-87.5227 448.843,-85.6282 452.962,-83.8893"/>
<polygon fill="midnightblue" stroke="midnightblue" points="454.562,-87.0217 462.599,-80.1185 452.011,-80.503 454.562,-87.0217"/>
</g>
<!-- Node78 -->
<g id="node47" class="node"><title>Node78</title>
<g id="a_node47"><a xlink:href="ltable_8c.html#a9eefa8191c63f55cffb6b7b58217467c" target="_top" xlink:title=" ">
<polygon fill="white" stroke="black" points="463.5,-175.064 463.5,-194.064 528.5,-194.064 528.5,-175.064 463.5,-175.064"/>
<text text-anchor="middle" x="496" y="-182.064" font-family="Helvetica,sans-Serif" font-size="10.00">luaH_setint</text>
</a>
</g>
</g>
<!-- Node73&#45;&gt;Node78 -->
<g id="edge60" class="edge"><title>Node73&#45;&gt;Node78</title>
<path fill="none" stroke="midnightblue" d="M398.552,-156.153C415.304,-161.088 435.902,-167.155 453.756,-172.415"/>
<polygon fill="midnightblue" stroke="midnightblue" points="452.769,-175.772 463.35,-175.241 454.747,-169.058 452.769,-175.772"/>
</g>
<!-- Node79 -->
<g id="node48" class="node"><title>Node79</title>
<g id="a_node48"><a xlink:href="ltable_8c.html#a2b86f93462054beeec2f8fc341af1bd5" target="_top" xlink:title=" ">
<polygon fill="white" stroke="black" points="457.5,-137.064 457.5,-156.064 534.5,-156.064 534.5,-137.064 457.5,-137.064"/>
<text text-anchor="middle" x="496" y="-144.064" font-family="Helvetica,sans-Serif" font-size="10.00">setarrayvector</text>
</a>
</g>
</g>
<!-- Node73&#45;&gt;Node79 -->
<g id="edge63" class="edge"><title>Node73&#45;&gt;Node79</title>
<path fill="none" stroke="midnightblue" d="M399.221,-146.564C413.795,-146.564 431.181,-146.564 447.116,-146.564"/>
<polygon fill="midnightblue" stroke="midnightblue" points="447.333,-150.064 457.333,-146.564 447.333,-143.064 447.333,-150.064"/>
</g>
<!-- Node78&#45;&gt;Node8 -->
<g id="edge61" class="edge"><title>Node78&#45;&gt;Node8</title>
<path fill="none" stroke="midnightblue" d="M528.549,-175.912C536.179,-173.166 544.114,-169.733 551,-165.564 577.596,-149.462 602.917,-123.627 618.084,-106.624"/>
<polygon fill="midnightblue" stroke="midnightblue" points="620.739,-108.905 624.674,-99.0678 615.463,-104.303 620.739,-108.905"/>
</g>
<!-- Node78&#45;&gt;Node17 -->
<g id="edge62" class="edge"><title>Node78&#45;&gt;Node17</title>
<path fill="none" stroke="midnightblue" d="M463.339,-183.601C408.622,-182.806 293.36,-184.974 201,-212.564 183.614,-217.758 165.56,-227.298 151.879,-235.52"/>
<polygon fill="midnightblue" stroke="midnightblue" points="149.815,-232.681 143.168,-240.932 153.51,-238.627 149.815,-232.681"/>
</g>
<!-- Node112&#45;&gt;Node109 -->
<g id="edge66" class="edge"><title>Node112&#45;&gt;Node109</title>
<path fill="none" stroke="midnightblue" d="M382.021,-317.243C389.101,-321.566 397.503,-326.76 405,-331.564 421.191,-341.938 423.796,-346.973 441,-355.564 447.213,-358.667 454.057,-361.491 460.725,-363.958"/>
<polygon fill="midnightblue" stroke="midnightblue" points="459.68,-367.301 470.275,-367.307 461.997,-360.695 459.68,-367.301"/>
</g>
</g>
</svg>
