<?xml version="1.0" encoding="UTF-8" standalone="no"?>
<!DOCTYPE svg PUBLIC "-//W3C//DTD SVG 1.1//EN"
 "http://www.w3.org/Graphics/SVG/1.1/DTD/svg11.dtd">
<!-- Generated by graphviz version 2.38.0 (20140413.2041)
 -->
<!-- Title: luaH_get Pages: 1 -->
<svg width="549pt" height="199pt"
 viewBox="0.00 0.00 549.00 199.00" xmlns="http://www.w3.org/2000/svg" xmlns:xlink="http://www.w3.org/1999/xlink">
<g id="graph0" class="graph" transform="scale(1 1) rotate(0) translate(4 195)">
<title>luaH_get</title>
<polygon fill="white" stroke="none" points="-4,4 -4,-195 545,-195 545,4 -4,4"/>
<!-- Node1 -->
<g id="node1" class="node"><title>Node1</title>
<g id="a_node1"><a xlink:title=" ">
<polygon fill="#bfbfbf" stroke="black" points="0,-104.5 0,-123.5 55,-123.5 55,-104.5 0,-104.5"/>
<text text-anchor="middle" x="27.5" y="-111.5" font-family="Helvetica,sans-Serif" font-size="10.00">luaH_get</text>
</a>
</g>
</g>
<!-- Node2 -->
<g id="node2" class="node"><title>Node2</title>
<g id="a_node2"><a xlink:href="ltable_8c.html#a4de8d73b4c27cd4f7cefa861e54caf37" target="_top" xlink:title=" ">
<polygon fill="white" stroke="black" points="104,-161.5 104,-180.5 166,-180.5 166,-161.5 104,-161.5"/>
<text text-anchor="middle" x="135" y="-168.5" font-family="Helvetica,sans-Serif" font-size="10.00">getgeneric</text>
</a>
</g>
</g>
<!-- Node1&#45;&gt;Node2 -->
<g id="edge1" class="edge"><title>Node1&#45;&gt;Node2</title>
<path fill="none" stroke="midnightblue" d="M43.0878,-123.615C55.5591,-131.653 74.1146,-143.184 91,-152 94.3823,-153.766 97.9633,-155.52 101.558,-157.209"/>
<polygon fill="midnightblue" stroke="midnightblue" points="100.423,-160.538 110.976,-161.486 103.318,-154.164 100.423,-160.538"/>
</g>
<!-- Node7 -->
<g id="node7" class="node"><title>Node7</title>
<g id="a_node7"><a xlink:href="ltable_8c.html#ae142cefd44452389877c3e3187c7973e" target="_top" xlink:title=" ">
<polygon fill="white" stroke="black" points="102.5,-123.5 102.5,-142.5 167.5,-142.5 167.5,-123.5 102.5,-123.5"/>
<text text-anchor="middle" x="135" y="-130.5" font-family="Helvetica,sans-Serif" font-size="10.00">luaH_getint</text>
</a>
</g>
</g>
<!-- Node1&#45;&gt;Node7 -->
<g id="edge6" class="edge"><title>Node1&#45;&gt;Node7</title>
<path fill="none" stroke="midnightblue" d="M55.1221,-118.795C66.2813,-120.804 79.5277,-123.19 91.948,-125.427"/>
<polygon fill="midnightblue" stroke="midnightblue" points="91.6609,-128.931 102.123,-127.259 92.9016,-122.042 91.6609,-128.931"/>
</g>
<!-- Node8 -->
<g id="node8" class="node"><title>Node8</title>
<g id="a_node8"><a xlink:href="ltable_8c.html#ae8a52507e1c8966d9cf3f2dd5a0c325f" target="_top" xlink:title=" ">
<polygon fill="white" stroke="black" points="91,-85.5 91,-104.5 179,-104.5 179,-85.5 91,-85.5"/>
<text text-anchor="middle" x="135" y="-92.5" font-family="Helvetica,sans-Serif" font-size="10.00">luaH_getshortstr</text>
</a>
</g>
</g>
<!-- Node1&#45;&gt;Node8 -->
<g id="edge7" class="edge"><title>Node1&#45;&gt;Node8</title>
<path fill="none" stroke="midnightblue" d="M55.1221,-109.205C63.0166,-107.784 71.9555,-106.174 80.9076,-104.562"/>
<polygon fill="midnightblue" stroke="midnightblue" points="81.7442,-107.967 90.9655,-102.75 80.5034,-101.078 81.7442,-107.967"/>
</g>
<!-- Node9 -->
<g id="node9" class="node"><title>Node9</title>
<g id="a_node9"><a xlink:href="lvm_8c.html#acdf7e8db180808362a373d9b5484452e" target="_top" xlink:title=" ">
<polygon fill="white" stroke="black" points="95.5,-47.5 95.5,-66.5 174.5,-66.5 174.5,-47.5 95.5,-47.5"/>
<text text-anchor="middle" x="135" y="-54.5" font-family="Helvetica,sans-Serif" font-size="10.00">luaV_tointeger</text>
</a>
</g>
</g>
<!-- Node1&#45;&gt;Node9 -->
<g id="edge8" class="edge"><title>Node1&#45;&gt;Node9</title>
<path fill="none" stroke="midnightblue" d="M43.0878,-104.385C55.5591,-96.3469 74.1146,-84.8159 91,-76 94.3823,-74.2341 97.9633,-72.4795 101.558,-70.7911"/>
<polygon fill="midnightblue" stroke="midnightblue" points="103.318,-73.8356 110.976,-66.5135 100.423,-67.4622 103.318,-73.8356"/>
</g>
<!-- Node3 -->
<g id="node3" class="node"><title>Node3</title>
<g id="a_node3"><a xlink:href="ltable_8c.html#a598108bce7f1fdba262aae74191caeec" target="_top" xlink:title=" ">
<polygon fill="white" stroke="black" points="218,-161.5 218,-180.5 289,-180.5 289,-161.5 218,-161.5"/>
<text text-anchor="middle" x="253.5" y="-168.5" font-family="Helvetica,sans-Serif" font-size="10.00">mainposition</text>
</a>
</g>
</g>
<!-- Node2&#45;&gt;Node3 -->
<g id="edge2" class="edge"><title>Node2&#45;&gt;Node3</title>
<path fill="none" stroke="midnightblue" d="M166.002,-171C178.573,-171 193.461,-171 207.31,-171"/>
<polygon fill="midnightblue" stroke="midnightblue" points="207.642,-174.5 217.642,-171 207.642,-167.5 207.642,-174.5"/>
</g>
<!-- Node4 -->
<g id="node4" class="node"><title>Node4</title>
<g id="a_node4"><a xlink:href="ltable_8c.html#ac726a5642652c5e7d5417c03047fc3d5" target="_top" xlink:title=" ">
<polygon fill="white" stroke="black" points="342.5,-171.5 342.5,-190.5 405.5,-190.5 405.5,-171.5 342.5,-171.5"/>
<text text-anchor="middle" x="374" y="-178.5" font-family="Helvetica,sans-Serif" font-size="10.00">l_hashfloat</text>
</a>
</g>
</g>
<!-- Node3&#45;&gt;Node4 -->
<g id="edge3" class="edge"><title>Node3&#45;&gt;Node4</title>
<path fill="none" stroke="midnightblue" d="M289.094,-173.919C302.485,-175.049 317.922,-176.352 331.876,-177.53"/>
<polygon fill="midnightblue" stroke="midnightblue" points="331.939,-181.047 342.198,-178.401 332.528,-174.072 331.939,-181.047"/>
</g>
<!-- Node5 -->
<g id="node5" class="node"><title>Node5</title>
<g id="a_node5"><a xlink:href="lstring_8c.html#ac51f4a1e06f41eeeb4690a3581016217" target="_top" xlink:title=" ">
<polygon fill="white" stroke="black" points="328,-133.5 328,-152.5 420,-152.5 420,-133.5 328,-133.5"/>
<text text-anchor="middle" x="374" y="-140.5" font-family="Helvetica,sans-Serif" font-size="10.00">luaS_hashlongstr</text>
</a>
</g>
</g>
<!-- Node3&#45;&gt;Node5 -->
<g id="edge4" class="edge"><title>Node3&#45;&gt;Node5</title>
<path fill="none" stroke="midnightblue" d="M289.094,-162.826C299.661,-160.329 311.502,-157.531 322.882,-154.842"/>
<polygon fill="midnightblue" stroke="midnightblue" points="323.794,-158.223 332.721,-152.517 322.184,-151.411 323.794,-158.223"/>
</g>
<!-- Node6 -->
<g id="node6" class="node"><title>Node6</title>
<g id="a_node6"><a xlink:href="lstring_8c.html#ac453c0e85b7bb4e9b146fc140b1b7c9e" target="_top" xlink:title=" ">
<polygon fill="white" stroke="black" points="467.5,-133.5 467.5,-152.5 529.5,-152.5 529.5,-133.5 467.5,-133.5"/>
<text text-anchor="middle" x="498.5" y="-140.5" font-family="Helvetica,sans-Serif" font-size="10.00">luaS_hash</text>
</a>
</g>
</g>
<!-- Node5&#45;&gt;Node6 -->
<g id="edge5" class="edge"><title>Node5&#45;&gt;Node6</title>
<path fill="none" stroke="midnightblue" d="M420.266,-143C432.391,-143 445.413,-143 457.246,-143"/>
<polygon fill="midnightblue" stroke="midnightblue" points="457.287,-146.5 467.287,-143 457.287,-139.5 457.287,-146.5"/>
</g>
<!-- Node10 -->
<g id="node10" class="node"><title>Node10</title>
<g id="a_node10"><a xlink:href="lobject_8c.html#ab1956c979ca7ff39b07534390714505d" target="_top" xlink:title=" ">
<polygon fill="white" stroke="black" points="215,-47.5 215,-66.5 292,-66.5 292,-47.5 215,-47.5"/>
<text text-anchor="middle" x="253.5" y="-54.5" font-family="Helvetica,sans-Serif" font-size="10.00">luaO_str2num</text>
</a>
</g>
</g>
<!-- Node9&#45;&gt;Node10 -->
<g id="edge9" class="edge"><title>Node9&#45;&gt;Node10</title>
<path fill="none" stroke="midnightblue" d="M174.793,-57C184.323,-57 194.639,-57 204.544,-57"/>
<polygon fill="midnightblue" stroke="midnightblue" points="204.668,-60.5001 214.668,-57 204.668,-53.5001 204.668,-60.5001"/>
</g>
<!-- Node11 -->
<g id="node11" class="node"><title>Node11</title>
<g id="a_node11"><a xlink:href="lobject_8c.html#a331ebab44d182775ef47eeebeeb58dbd" target="_top" xlink:title=" ">
<polygon fill="white" stroke="black" points="351,-76.5 351,-95.5 397,-95.5 397,-76.5 351,-76.5"/>
<text text-anchor="middle" x="374" y="-83.5" font-family="Helvetica,sans-Serif" font-size="10.00">l_str2d</text>
</a>
</g>
</g>
<!-- Node10&#45;&gt;Node11 -->
<g id="edge10" class="edge"><title>Node10&#45;&gt;Node11</title>
<path fill="none" stroke="midnightblue" d="M292.32,-66.2555C307.95,-70.0805 325.879,-74.4682 340.86,-78.1344"/>
<polygon fill="midnightblue" stroke="midnightblue" points="340.15,-81.5641 350.696,-80.5416 341.814,-74.7647 340.15,-81.5641"/>
</g>
<!-- Node13 -->
<g id="node13" class="node"><title>Node13</title>
<g id="a_node13"><a xlink:href="lobject_8c.html#ac5f6271088cb629a2359a93c283dc6ce" target="_top" xlink:title=" ">
<polygon fill="white" stroke="black" points="348.5,-38.5 348.5,-57.5 399.5,-57.5 399.5,-38.5 348.5,-38.5"/>
<text text-anchor="middle" x="374" y="-45.5" font-family="Helvetica,sans-Serif" font-size="10.00">l_str2int</text>
</a>
</g>
</g>
<!-- Node10&#45;&gt;Node13 -->
<g id="edge12" class="edge"><title>Node10&#45;&gt;Node13</title>
<path fill="none" stroke="midnightblue" d="M292.32,-54.1276C307.036,-53.0099 323.791,-51.7374 338.204,-50.6427"/>
<polygon fill="midnightblue" stroke="midnightblue" points="338.517,-54.1292 348.223,-49.8818 337.986,-47.1493 338.517,-54.1292"/>
</g>
<!-- Node12 -->
<g id="node12" class="node"><title>Node12</title>
<g id="a_node12"><a xlink:href="lobject_8c.html#a58b5660686590a5ed833cc0f89fbe832" target="_top" xlink:title=" ">
<polygon fill="white" stroke="black" points="469,-76.5 469,-95.5 528,-95.5 528,-76.5 469,-76.5"/>
<text text-anchor="middle" x="498.5" y="-83.5" font-family="Helvetica,sans-Serif" font-size="10.00">l_str2dloc</text>
</a>
</g>
</g>
<!-- Node11&#45;&gt;Node12 -->
<g id="edge11" class="edge"><title>Node11&#45;&gt;Node12</title>
<path fill="none" stroke="midnightblue" d="M397.184,-86C414.211,-86 438.15,-86 458.373,-86"/>
<polygon fill="midnightblue" stroke="midnightblue" points="458.553,-89.5001 468.553,-86 458.553,-82.5001 458.553,-89.5001"/>
</g>
<!-- Node14 -->
<g id="node14" class="node"><title>Node14</title>
<g id="a_node14"><a xlink:href="lobject_8c.html#a3234b1ccb9cfbbd0892dcc6190a45876" target="_top" xlink:title=" ">
<polygon fill="white" stroke="black" points="478.5,-38.5 478.5,-57.5 518.5,-57.5 518.5,-38.5 478.5,-38.5"/>
<text text-anchor="middle" x="498.5" y="-45.5" font-family="Helvetica,sans-Serif" font-size="10.00">isneg</text>
</a>
</g>
</g>
<!-- Node13&#45;&gt;Node14 -->
<g id="edge13" class="edge"><title>Node13&#45;&gt;Node14</title>
<path fill="none" stroke="midnightblue" d="M399.79,-48C419.555,-48 447.285,-48 468.157,-48"/>
<polygon fill="midnightblue" stroke="midnightblue" points="468.368,-51.5001 478.368,-48 468.368,-44.5001 468.368,-51.5001"/>
</g>
<!-- Node15 -->
<g id="node15" class="node"><title>Node15</title>
<g id="a_node15"><a xlink:href="lobject_8c.html#ab73b1325bd3b1a6f9affc08fb46c07ec" target="_top" xlink:title=" ">
<polygon fill="white" stroke="black" points="456,-0.5 456,-19.5 541,-19.5 541,-0.5 456,-0.5"/>
<text text-anchor="middle" x="498.5" y="-7.5" font-family="Helvetica,sans-Serif" font-size="10.00">luaO_hexavalue</text>
</a>
</g>
</g>
<!-- Node13&#45;&gt;Node15 -->
<g id="edge14" class="edge"><title>Node13&#45;&gt;Node15</title>
<path fill="none" stroke="midnightblue" d="M399.79,-40.3101C416.221,-35.213 438.157,-28.4085 457.081,-22.5382"/>
<polygon fill="midnightblue" stroke="midnightblue" points="458.143,-25.8732 466.657,-19.5675 456.069,-19.1875 458.143,-25.8732"/>
</g>
</g>
</svg>
