<?xml version="1.0" encoding="UTF-8" standalone="no"?>
<!DOCTYPE svg PUBLIC "-//W3C//DTD SVG 1.1//EN"
 "http://www.w3.org/Graphics/SVG/1.1/DTD/svg11.dtd">
<!-- Generated by graphviz version 2.38.0 (20140413.2041)
 -->
<!-- Title: setnodevector Pages: 1 -->
<svg width="1317pt" height="933pt"
 viewBox="0.00 0.00 1317.00 933.07" xmlns="http://www.w3.org/2000/svg" xmlns:xlink="http://www.w3.org/1999/xlink">
<g id="graph0" class="graph" transform="scale(1 1) rotate(0) translate(4 929.065)">
<title>setnodevector</title>
<polygon fill="white" stroke="none" points="-4,4 -4,-929.065 1313,-929.065 1313,4 -4,4"/>
<!-- Node1 -->
<g id="node1" class="node"><title>Node1</title>
<g id="a_node1"><a xlink:title=" ">
<polygon fill="#bfbfbf" stroke="black" points="1232,-670.5 1232,-689.5 1309,-689.5 1309,-670.5 1232,-670.5"/>
<text text-anchor="middle" x="1270.5" y="-677.5" font-family="Helvetica,sans-Serif" font-size="10.00">setnodevector</text>
</a>
</g>
</g>
<!-- Node2 -->
<g id="node2" class="node"><title>Node2</title>
<g id="a_node2"><a xlink:href="ltable_8c.html#abcbddb6cbdabfbe78d65ac5d660d6406" target="_top" xlink:title=" ">
<polygon fill="white" stroke="black" points="1129,-708.5 1129,-727.5 1196,-727.5 1196,-708.5 1129,-708.5"/>
<text text-anchor="middle" x="1162.5" y="-715.5" font-family="Helvetica,sans-Serif" font-size="10.00">auxsetnode</text>
</a>
</g>
</g>
<!-- Node1&#45;&gt;Node2 -->
<g id="edge1" class="edge"><title>Node1&#45;&gt;Node2</title>
<path fill="none" stroke="midnightblue" d="M1233.32,-692.972C1219.19,-698.034 1203.29,-703.734 1190.24,-708.414"/>
<polygon fill="midnightblue" stroke="midnightblue" points="1234.52,-696.258 1242.75,-689.589 1232.16,-689.669 1234.52,-696.258"/>
</g>
<!-- Node554 -->
<g id="node47" class="node"><title>Node554</title>
<g id="a_node47"><a xlink:href="ltable_8h.html#a6c2bd58b13986496a52f597b005a0016" target="_top" xlink:title=" ">
<polygon fill="white" stroke="black" points="720,-632.5 720,-651.5 779,-651.5 779,-632.5 720,-632.5"/>
<text text-anchor="middle" x="749.5" y="-639.5" font-family="Helvetica,sans-Serif" font-size="10.00">luaH_new</text>
</a>
</g>
</g>
<!-- Node1&#45;&gt;Node554 -->
<g id="edge63" class="edge"><title>Node1&#45;&gt;Node554</title>
<path fill="none" stroke="midnightblue" d="M1227.29,-667.746C1185.27,-656.64 1118.74,-642 1060,-642 1060,-642 1060,-642 965,-642 898.527,-642 820.467,-642 779.297,-642"/>
<polygon fill="midnightblue" stroke="midnightblue" points="1226.6,-671.185 1237.17,-670.411 1228.43,-664.427 1226.6,-671.185"/>
</g>
<!-- Node3 -->
<g id="node3" class="node"><title>Node3</title>
<g id="a_node3"><a xlink:href="ltable_8h.html#ae5c4f9153b2f7118209c50711409b4d4" target="_top" xlink:title=" ">
<polygon fill="white" stroke="black" points="1025,-765.5 1025,-784.5 1093,-784.5 1093,-765.5 1025,-765.5"/>
<text text-anchor="middle" x="1059" y="-772.5" font-family="Helvetica,sans-Serif" font-size="10.00">luaH_resize</text>
</a>
</g>
</g>
<!-- Node2&#45;&gt;Node3 -->
<g id="edge2" class="edge"><title>Node2&#45;&gt;Node3</title>
<path fill="none" stroke="midnightblue" d="M1135.51,-732.594C1117.11,-742.931 1092.94,-756.501 1076.96,-765.474"/>
<polygon fill="midnightblue" stroke="midnightblue" points="1137.28,-735.618 1144.28,-727.669 1133.85,-729.514 1137.28,-735.618"/>
</g>
<!-- Node4 -->
<g id="node4" class="node"><title>Node4</title>
<g id="a_node4"><a xlink:href="lstate_8c.html#a3f769cc49eb8309417a7cbef2b4d2d8b" target="_top" xlink:title=" ">
<polygon fill="white" stroke="black" points="605.5,-784.5 605.5,-803.5 672.5,-803.5 672.5,-784.5 605.5,-784.5"/>
<text text-anchor="middle" x="639" y="-791.5" font-family="Helvetica,sans-Serif" font-size="10.00">init_registry</text>
</a>
</g>
</g>
<!-- Node3&#45;&gt;Node4 -->
<g id="edge3" class="edge"><title>Node3&#45;&gt;Node4</title>
<path fill="none" stroke="midnightblue" d="M1052.23,-794.382C1043.36,-820.221 1023.68,-864.91 989,-884 883.097,-942.299 826.806,-934.565 717,-884 680.391,-867.142 654.704,-823.341 644.674,-803.736"/>
<polygon fill="midnightblue" stroke="midnightblue" points="1055.65,-795.183 1055.38,-784.591 1048.98,-793.04 1055.65,-795.183"/>
</g>
<!-- Node10 -->
<g id="node7" class="node"><title>Node10</title>
<g id="a_node7"><a xlink:href="lua_8h.html#a022ddaeee46ccb89860c78480e54db05" target="_top" xlink:title=" ">
<polygon fill="white" stroke="black" points="597.5,-209.5 597.5,-228.5 680.5,-228.5 680.5,-209.5 597.5,-209.5"/>
<text text-anchor="middle" x="639" y="-216.5" font-family="Helvetica,sans-Serif" font-size="10.00">lua_createtable</text>
</a>
</g>
</g>
<!-- Node3&#45;&gt;Node10 -->
<g id="edge6" class="edge"><title>Node3&#45;&gt;Node10</title>
<path fill="none" stroke="midnightblue" d="M1044.68,-757.289C979.713,-670.867 697.087,-294.933 647.455,-228.916"/>
<polygon fill="midnightblue" stroke="midnightblue" points="1041.94,-759.46 1050.74,-765.35 1047.53,-755.253 1041.94,-759.46"/>
</g>
<!-- Node68 -->
<g id="node21" class="node"><title>Node68</title>
<g id="a_node21"><a xlink:href="ltable_8h.html#a5a11320761545d5a718dd0dd57ae1d7e" target="_top" xlink:title=" ">
<polygon fill="white" stroke="black" points="818,-708.5 818,-727.5 907,-727.5 907,-708.5 818,-708.5"/>
<text text-anchor="middle" x="862.5" y="-715.5" font-family="Helvetica,sans-Serif" font-size="10.00">luaH_resizearray</text>
</a>
</g>
</g>
<!-- Node3&#45;&gt;Node68 -->
<g id="edge21" class="edge"><title>Node3&#45;&gt;Node68</title>
<path fill="none" stroke="midnightblue" d="M1032.16,-760.692C1019.48,-754.178 1003.78,-746.857 989,-742 962.447,-733.273 931.63,-727.323 907.178,-723.53"/>
<polygon fill="midnightblue" stroke="midnightblue" points="1030.73,-763.894 1041.21,-765.461 1034,-757.702 1030.73,-763.894"/>
</g>
<!-- Node69 -->
<g id="node22" class="node"><title>Node69</title>
<g id="a_node22"><a xlink:href="lvm_8h.html#ae93565adc36c6e2157dbbd875433ede1" target="_top" xlink:title=" ">
<polygon fill="white" stroke="black" points="601,-708.5 601,-727.5 677,-727.5 677,-708.5 601,-708.5"/>
<text text-anchor="middle" x="639" y="-715.5" font-family="Helvetica,sans-Serif" font-size="10.00">luaV_execute</text>
</a>
</g>
</g>
<!-- Node3&#45;&gt;Node69 -->
<g id="edge37" class="edge"><title>Node3&#45;&gt;Node69</title>
<path fill="none" stroke="midnightblue" d="M1042.83,-792.506C1030.02,-805.872 1010.39,-823.266 989,-831 983.786,-832.885 818.811,-832.076 818,-832 772.521,-827.759 756.228,-836.398 717,-813 707.747,-807.481 664.751,-750.979 647.345,-727.82"/>
<polygon fill="midnightblue" stroke="midnightblue" points="1045.7,-794.561 1049.88,-784.827 1040.54,-789.828 1045.7,-794.561"/>
</g>
<!-- Node553 -->
<g id="node32" class="node"><title>Node553</title>
<g id="a_node32"><a xlink:href="ltable_8c.html#ad775daa2a19a375c7385ed30834a3eeb" target="_top" xlink:title=" ">
<polygon fill="white" stroke="black" points="943,-784.5 943,-803.5 989,-803.5 989,-784.5 943,-784.5"/>
<text text-anchor="middle" x="966" y="-791.5" font-family="Helvetica,sans-Serif" font-size="10.00">rehash</text>
</a>
</g>
</g>
<!-- Node3&#45;&gt;Node553 -->
<g id="edge38" class="edge"><title>Node3&#45;&gt;Node553</title>
<path fill="none" stroke="midnightblue" d="M1014.93,-783.992C1006,-785.856 996.949,-787.747 989.149,-789.375"/>
<polygon fill="midnightblue" stroke="midnightblue" points="1015.82,-787.383 1024.89,-781.913 1014.39,-780.531 1015.82,-787.383"/>
</g>
<!-- Node5 -->
<g id="node5" class="node"><title>Node5</title>
<g id="a_node5"><a xlink:href="lstate_8c.html#ab65e96a7498fd886f7223b92e91fd830" target="_top" xlink:title=" ">
<polygon fill="white" stroke="black" points="478.5,-803.5 478.5,-822.5 536.5,-822.5 536.5,-803.5 478.5,-803.5"/>
<text text-anchor="middle" x="507.5" y="-810.5" font-family="Helvetica,sans-Serif" font-size="10.00">f_luaopen</text>
</a>
</g>
</g>
<!-- Node4&#45;&gt;Node5 -->
<g id="edge4" class="edge"><title>Node4&#45;&gt;Node5</title>
<path fill="none" stroke="midnightblue" d="M595.287,-800.267C576.06,-803.088 553.889,-806.341 536.769,-808.852"/>
<polygon fill="midnightblue" stroke="midnightblue" points="595.936,-803.709 605.322,-798.795 594.92,-796.783 595.936,-803.709"/>
</g>
<!-- Node6 -->
<g id="node6" class="node"><title>Node6</title>
<g id="a_node6"><a xlink:href="lua_8h.html#af722e4ac7fc0eba5920f59f0162c1b97" target="_top" xlink:title=" ">
<polygon fill="white" stroke="red" points="326.5,-817.5 326.5,-836.5 400.5,-836.5 400.5,-817.5 326.5,-817.5"/>
<text text-anchor="middle" x="363.5" y="-824.5" font-family="Helvetica,sans-Serif" font-size="10.00">lua_newstate</text>
</a>
</g>
</g>
<!-- Node5&#45;&gt;Node6 -->
<g id="edge5" class="edge"><title>Node5&#45;&gt;Node6</title>
<path fill="none" stroke="midnightblue" d="M468.254,-816.771C447.22,-818.845 421.274,-821.403 400.591,-823.442"/>
<polygon fill="midnightblue" stroke="midnightblue" points="468.837,-820.23 478.445,-815.766 468.15,-813.264 468.837,-820.23"/>
</g>
<!-- Node11 -->
<g id="node8" class="node"><title>Node11</title>
<g id="a_node8"><a xlink:href="lua_8c.html#ae97a68ae8a927b55520b65d0a56a59d2" target="_top" xlink:title=" ">
<polygon fill="white" stroke="black" points="468.5,-190.5 468.5,-209.5 546.5,-209.5 546.5,-190.5 468.5,-190.5"/>
<text text-anchor="middle" x="507.5" y="-197.5" font-family="Helvetica,sans-Serif" font-size="10.00">createargtable</text>
</a>
</g>
</g>
<!-- Node10&#45;&gt;Node11 -->
<g id="edge7" class="edge"><title>Node10&#45;&gt;Node11</title>
<path fill="none" stroke="midnightblue" d="M587.278,-211.558C573.796,-209.58 559.461,-207.477 546.767,-205.614"/>
<polygon fill="midnightblue" stroke="midnightblue" points="586.979,-215.052 597.381,-213.04 587.995,-208.126 586.979,-215.052"/>
</g>
<!-- Node13 -->
<g id="node10" class="node"><title>Node13</title>
<g id="a_node10"><a xlink:href="loadlib_8c.html#a5988b4ef518a60291ed34e836f549b34" target="_top" xlink:title=" ">
<polygon fill="white" stroke="black" points="465,-152.5 465,-171.5 550,-171.5 550,-152.5 465,-152.5"/>
<text text-anchor="middle" x="507.5" y="-159.5" font-family="Helvetica,sans-Serif" font-size="10.00">createclibstable</text>
</a>
</g>
</g>
<!-- Node10&#45;&gt;Node13 -->
<g id="edge9" class="edge"><title>Node10&#45;&gt;Node13</title>
<path fill="none" stroke="midnightblue" d="M610.921,-204.716C596.317,-197.248 577.875,-188.191 561,-181 553.242,-177.694 544.694,-174.441 536.788,-171.586"/>
<polygon fill="midnightblue" stroke="midnightblue" points="609.418,-207.879 619.909,-209.359 612.63,-201.66 609.418,-207.879"/>
</g>
<!-- Node15 -->
<g id="node12" class="node"><title>Node15</title>
<g id="a_node12"><a xlink:href="lstrlib_8c.html#a16d034da6b46e6beae228472f26ec07b" target="_top" xlink:title=" ">
<polygon fill="white" stroke="black" points="464.5,-76.5 464.5,-95.5 550.5,-95.5 550.5,-76.5 464.5,-76.5"/>
<text text-anchor="middle" x="507.5" y="-83.5" font-family="Helvetica,sans-Serif" font-size="10.00">createmetatable</text>
</a>
</g>
</g>
<!-- Node10&#45;&gt;Node15 -->
<g id="edge11" class="edge"><title>Node10&#45;&gt;Node15</title>
<path fill="none" stroke="midnightblue" d="M629.811,-200.036C618.057,-174.922 594.114,-130.806 561,-105 556.107,-101.187 550.379,-98.0926 544.54,-95.5963"/>
<polygon fill="midnightblue" stroke="midnightblue" points="626.661,-201.564 633.967,-209.236 633.04,-198.682 626.661,-201.564"/>
</g>
<!-- Node17 -->
<g id="node14" class="node"><title>Node17</title>
<g id="a_node14"><a xlink:href="loadlib_8c.html#a8fc66c8b852ee2960dc20797521d1d9e" target="_top" xlink:title=" ">
<polygon fill="white" stroke="black" points="454,-114.5 454,-133.5 561,-133.5 561,-114.5 454,-114.5"/>
<text text-anchor="middle" x="507.5" y="-121.5" font-family="Helvetica,sans-Serif" font-size="10.00">createsearcherstable</text>
</a>
</g>
</g>
<!-- Node10&#45;&gt;Node17 -->
<g id="edge13" class="edge"><title>Node10&#45;&gt;Node17</title>
<path fill="none" stroke="midnightblue" d="M624.155,-201.478C609.913,-184.475 586.293,-158.965 561,-143 555.098,-139.275 548.363,-136.142 541.731,-133.563"/>
<polygon fill="midnightblue" stroke="midnightblue" points="621.67,-203.969 630.707,-209.499 627.091,-199.54 621.67,-203.969"/>
</g>
<!-- Node18 -->
<g id="node15" class="node"><title>Node18</title>
<g id="a_node15"><a xlink:href="ldblib_8c.html#aa0c362d361f8f9bd8a002c34c393e2b0" target="_top" xlink:title=" ">
<polygon fill="white" stroke="black" points="203,-285.5 203,-304.5 270,-304.5 270,-285.5 203,-285.5"/>
<text text-anchor="middle" x="236.5" y="-292.5" font-family="Helvetica,sans-Serif" font-size="10.00">db_sethook</text>
</a>
</g>
</g>
<!-- Node10&#45;&gt;Node18 -->
<g id="edge15" class="edge"><title>Node10&#45;&gt;Node18</title>
<path fill="none" stroke="midnightblue" d="M614.134,-233.758C599.387,-242.106 579.755,-251.873 561,-257 452.657,-286.617 419.746,-257.275 309,-276 295.576,-278.27 281.01,-281.917 268.55,-285.413"/>
<polygon fill="midnightblue" stroke="midnightblue" points="616.193,-236.609 623.061,-228.541 612.661,-230.565 616.193,-236.609"/>
</g>
<!-- Node19 -->
<g id="node16" class="node"><title>Node19</title>
<g id="a_node16"><a xlink:href="lauxlib_8h.html#a0e9e032108e7aedc05836b0c1d72a0fa" target="_top" xlink:title=" ">
<polygon fill="white" stroke="black" points="457.5,-304.5 457.5,-323.5 557.5,-323.5 557.5,-304.5 457.5,-304.5"/>
<text text-anchor="middle" x="507.5" y="-311.5" font-family="Helvetica,sans-Serif" font-size="10.00">luaL_newmetatable</text>
</a>
</g>
</g>
<!-- Node10&#45;&gt;Node19 -->
<g id="edge16" class="edge"><title>Node10&#45;&gt;Node19</title>
<path fill="none" stroke="midnightblue" d="M622.456,-236.151C607.742,-251.662 584.467,-274.395 561,-290 552.571,-295.605 542.622,-300.523 533.663,-304.423"/>
<polygon fill="midnightblue" stroke="midnightblue" points="625.072,-238.478 629.326,-228.774 619.949,-233.707 625.072,-238.478"/>
</g>
<!-- Node57 -->
<g id="node19" class="node"><title>Node57</title>
<g id="a_node19"><a xlink:href="loslib_8c.html#a6520f2562b500aee87a6a475995adefb" target="_top" xlink:title=" ">
<polygon fill="white" stroke="black" points="0,-247.5 0,-266.5 51,-266.5 51,-247.5 0,-247.5"/>
<text text-anchor="middle" x="25.5" y="-254.5" font-family="Helvetica,sans-Serif" font-size="10.00">os_date</text>
</a>
</g>
</g>
<!-- Node10&#45;&gt;Node57 -->
<g id="edge19" class="edge"><title>Node10&#45;&gt;Node57</title>
<path fill="none" stroke="midnightblue" d="M629.629,-200.025C612.288,-161.114 573.054,-75.2312 561,-67 488.542,-17.5198 452.241,-48 364.5,-48 364.5,-48 364.5,-48 235.5,-48 121.069,-48 47.4082,-206.59 30.3189,-247.477"/>
<polygon fill="midnightblue" stroke="midnightblue" points="626.463,-201.521 633.718,-209.242 632.862,-198.682 626.463,-201.521"/>
</g>
<!-- Node67 -->
<g id="node20" class="node"><title>Node67</title>
<g id="a_node20"><a xlink:href="ltablib_8c.html#a46a372295cbd1692b06bdbac4ca58881" target="_top" xlink:title=" ">
<polygon fill="white" stroke="black" points="488.5,-228.5 488.5,-247.5 526.5,-247.5 526.5,-228.5 488.5,-228.5"/>
<text text-anchor="middle" x="507.5" y="-235.5" font-family="Helvetica,sans-Serif" font-size="10.00">pack</text>
</a>
</g>
</g>
<!-- Node10&#45;&gt;Node67 -->
<g id="edge20" class="edge"><title>Node10&#45;&gt;Node67</title>
<path fill="none" stroke="midnightblue" d="M587.402,-226.424C565.97,-229.568 542.364,-233.032 526.609,-235.343"/>
<polygon fill="midnightblue" stroke="midnightblue" points="587.995,-229.874 597.381,-224.96 586.979,-222.948 587.995,-229.874"/>
</g>
<!-- Node12 -->
<g id="node9" class="node"><title>Node12</title>
<g id="a_node9"><a xlink:href="lua_8c.html#aa0f8bc082ef913cb0a4df437bf5f5019" target="_top" xlink:title=" ">
<polygon fill="white" stroke="red" points="342,-190.5 342,-209.5 385,-209.5 385,-190.5 342,-190.5"/>
<text text-anchor="middle" x="363.5" y="-197.5" font-family="Helvetica,sans-Serif" font-size="10.00">pmain</text>
</a>
</g>
</g>
<!-- Node11&#45;&gt;Node12 -->
<g id="edge8" class="edge"><title>Node11&#45;&gt;Node12</title>
<path fill="none" stroke="midnightblue" d="M458.401,-200C433.424,-200 404.212,-200 385.084,-200"/>
<polygon fill="midnightblue" stroke="midnightblue" points="458.447,-203.5 468.447,-200 458.447,-196.5 458.447,-203.5"/>
</g>
<!-- Node14 -->
<g id="node11" class="node"><title>Node14</title>
<g id="a_node11"><a xlink:href="lualib_8h.html#a05e0befc0439f926b6152129ab4f8dea" target="_top" xlink:title=" ">
<polygon fill="white" stroke="black" points="317.5,-133.5 317.5,-152.5 409.5,-152.5 409.5,-133.5 317.5,-133.5"/>
<text text-anchor="middle" x="363.5" y="-140.5" font-family="Helvetica,sans-Serif" font-size="10.00">luaopen_package</text>
</a>
</g>
</g>
<!-- Node13&#45;&gt;Node14 -->
<g id="edge10" class="edge"><title>Node13&#45;&gt;Node14</title>
<path fill="none" stroke="midnightblue" d="M454.646,-155.062C439.85,-153.082 423.854,-150.942 409.503,-149.022"/>
<polygon fill="midnightblue" stroke="midnightblue" points="454.287,-158.545 464.663,-156.402 455.216,-151.607 454.287,-158.545"/>
</g>
<!-- Node16 -->
<g id="node13" class="node"><title>Node16</title>
<g id="a_node13"><a xlink:href="lualib_8h.html#a3cc052c1be81497507ee76524482eaec" target="_top" xlink:title=" ">
<polygon fill="white" stroke="black" points="323.5,-76.5 323.5,-95.5 403.5,-95.5 403.5,-76.5 323.5,-76.5"/>
<text text-anchor="middle" x="363.5" y="-83.5" font-family="Helvetica,sans-Serif" font-size="10.00">luaopen_string</text>
</a>
</g>
</g>
<!-- Node15&#45;&gt;Node16 -->
<g id="edge12" class="edge"><title>Node15&#45;&gt;Node16</title>
<path fill="none" stroke="midnightblue" d="M454.154,-86C437.53,-86 419.436,-86 403.885,-86"/>
<polygon fill="midnightblue" stroke="midnightblue" points="454.28,-89.5001 464.28,-86 454.28,-82.5001 454.28,-89.5001"/>
</g>
<!-- Node17&#45;&gt;Node14 -->
<g id="edge14" class="edge"><title>Node17&#45;&gt;Node14</title>
<path fill="none" stroke="midnightblue" d="M443.627,-132.413C432.131,-133.951 420.348,-135.527 409.503,-136.978"/>
<polygon fill="midnightblue" stroke="midnightblue" points="444.177,-135.87 453.624,-131.075 443.249,-128.932 444.177,-135.87"/>
</g>
<!-- Node20 -->
<g id="node17" class="node"><title>Node20</title>
<g id="a_node17"><a xlink:href="liolib_8c.html#a2edb7e84ca2f51dafb5d77b9c81a804c" target="_top" xlink:title=" ">
<polygon fill="white" stroke="red" points="331,-323.5 331,-342.5 396,-342.5 396,-323.5 331,-323.5"/>
<text text-anchor="middle" x="363.5" y="-330.5" font-family="Helvetica,sans-Serif" font-size="10.00">createmeta</text>
</a>
</g>
</g>
<!-- Node19&#45;&gt;Node20 -->
<g id="edge17" class="edge"><title>Node19&#45;&gt;Node20</title>
<path fill="none" stroke="midnightblue" d="M447.122,-321.945C429.704,-324.276 411.326,-326.735 396.337,-328.74"/>
<polygon fill="midnightblue" stroke="midnightblue" points="447.786,-325.387 457.234,-320.592 446.858,-318.449 447.786,-325.387"/>
</g>
<!-- Node22 -->
<g id="node18" class="node"><title>Node22</title>
<g id="a_node18"><a xlink:href="lauxlib_8c.html#a48ce842bce537df89aa9c13594263c73" target="_top" xlink:title=" ">
<polygon fill="white" stroke="red" points="338.5,-285.5 338.5,-304.5 388.5,-304.5 388.5,-285.5 338.5,-285.5"/>
<text text-anchor="middle" x="363.5" y="-292.5" font-family="Helvetica,sans-Serif" font-size="10.00">newbox</text>
</a>
</g>
</g>
<!-- Node19&#45;&gt;Node22 -->
<g id="edge18" class="edge"><title>Node19&#45;&gt;Node22</title>
<path fill="none" stroke="midnightblue" d="M447.261,-306.074C426.661,-303.317 404.701,-300.379 388.582,-298.222"/>
<polygon fill="midnightblue" stroke="midnightblue" points="446.858,-309.551 457.234,-307.408 447.786,-302.613 446.858,-309.551"/>
</g>
<!-- Node68&#45;&gt;Node69 -->
<g id="edge22" class="edge"><title>Node68&#45;&gt;Node69</title>
<path fill="none" stroke="midnightblue" d="M807.507,-718C767.038,-718 712.715,-718 677.055,-718"/>
<polygon fill="midnightblue" stroke="midnightblue" points="807.739,-721.5 817.739,-718 807.739,-714.5 807.739,-721.5"/>
</g>
<!-- Node70 -->
<g id="node23" class="node"><title>Node70</title>
<g id="a_node23"><a xlink:href="ldo_8h.html#a4797364de1dd297aac52f9c10565523f" target="_top" xlink:title=" ">
<polygon fill="white" stroke="black" points="479.5,-670.5 479.5,-689.5 535.5,-689.5 535.5,-670.5 479.5,-670.5"/>
<text text-anchor="middle" x="507.5" y="-677.5" font-family="Helvetica,sans-Serif" font-size="10.00">luaD_call</text>
</a>
</g>
</g>
<!-- Node69&#45;&gt;Node70 -->
<g id="edge23" class="edge"><title>Node69&#45;&gt;Node70</title>
<path fill="none" stroke="midnightblue" d="M611.936,-704.814C589.888,-696.761 558.391,-687.487 535.956,-682.421"/>
<polygon fill="midnightblue" stroke="midnightblue" points="610.745,-708.105 621.335,-708.408 613.245,-701.567 610.745,-708.105"/>
</g>
<!-- Node495 -->
<g id="node29" class="node"><title>Node495</title>
<g id="a_node29"><a xlink:href="ldo_8c.html#abd7632c715de5db6e7797b7fa3f7010f" target="_top" xlink:title=" ">
<polygon fill="white" stroke="black" points="339,-741.5 339,-760.5 388,-760.5 388,-741.5 339,-741.5"/>
<text text-anchor="middle" x="363.5" y="-748.5" font-family="Helvetica,sans-Serif" font-size="10.00">resume</text>
</a>
</g>
</g>
<!-- Node69&#45;&gt;Node495 -->
<g id="edge32" class="edge"><title>Node69&#45;&gt;Node495</title>
<path fill="none" stroke="midnightblue" d="M590.874,-722.182C553.654,-725.651 500.431,-730.975 454,-737 431.541,-739.914 406.03,-743.98 388.007,-746.979"/>
<polygon fill="midnightblue" stroke="midnightblue" points="591.293,-725.659 600.929,-721.254 590.65,-718.688 591.293,-725.659"/>
</g>
<!-- Node498 -->
<g id="node31" class="node"><title>Node498</title>
<g id="a_node31"><a xlink:href="ldo_8c.html#a3baab9d298c0c32cb74a9a079d7244de" target="_top" xlink:title=" ">
<polygon fill="white" stroke="black" points="487.5,-746.5 487.5,-765.5 527.5,-765.5 527.5,-746.5 487.5,-746.5"/>
<text text-anchor="middle" x="507.5" y="-753.5" font-family="Helvetica,sans-Serif" font-size="10.00">unroll</text>
</a>
</g>
</g>
<!-- Node69&#45;&gt;Node498 -->
<g id="edge34" class="edge"><title>Node69&#45;&gt;Node498</title>
<path fill="none" stroke="midnightblue" d="M595.451,-730.486C572.489,-737.223 545.29,-745.205 527.504,-750.424"/>
<polygon fill="midnightblue" stroke="midnightblue" points="596.712,-733.763 605.322,-727.589 594.741,-727.046 596.712,-733.763"/>
</g>
<!-- Node70&#45;&gt;Node69 -->
<g id="edge31" class="edge"><title>Node70&#45;&gt;Node69</title>
<path fill="none" stroke="midnightblue" d="M534.697,-693.235C553.722,-700.175 579.73,-708.015 600.89,-713.281"/>
<polygon fill="midnightblue" stroke="midnightblue" points="535.775,-689.9 525.184,-689.6 533.276,-696.439 535.775,-689.9"/>
</g>
<!-- Node71 -->
<g id="node24" class="node"><title>Node71</title>
<g id="a_node24"><a xlink:href="lua_8h.html#aeebb647cb91c051b1955fac1207de386" target="_top" xlink:title=" ">
<polygon fill="white" stroke="red" points="209,-693.5 209,-712.5 264,-712.5 264,-693.5 209,-693.5"/>
<text text-anchor="middle" x="236.5" y="-700.5" font-family="Helvetica,sans-Serif" font-size="10.00">lua_callk</text>
</a>
</g>
</g>
<!-- Node70&#45;&gt;Node71 -->
<g id="edge24" class="edge"><title>Node70&#45;&gt;Node71</title>
<path fill="none" stroke="midnightblue" d="M469.551,-686.75C453.727,-689.406 435.008,-692.236 418,-694 363.542,-699.649 299.459,-701.778 264.176,-702.562"/>
<polygon fill="midnightblue" stroke="midnightblue" points="470.223,-690.186 479.485,-685.043 469.037,-683.287 470.223,-690.186"/>
</g>
<!-- Node73 -->
<g id="node25" class="node"><title>Node73</title>
<g id="a_node25"><a xlink:href="lua_8h.html#ab03ab465d4ca870dc66e228b8dfd3f06" target="_top" xlink:title=" ">
<polygon fill="white" stroke="red" points="333.5,-665.5 333.5,-684.5 393.5,-684.5 393.5,-665.5 333.5,-665.5"/>
<text text-anchor="middle" x="363.5" y="-672.5" font-family="Helvetica,sans-Serif" font-size="10.00">lua_pcallk</text>
</a>
</g>
</g>
<!-- Node70&#45;&gt;Node73 -->
<g id="edge25" class="edge"><title>Node70&#45;&gt;Node73</title>
<path fill="none" stroke="midnightblue" d="M469.155,-678.685C445.638,-677.857 415.712,-676.803 393.89,-676.035"/>
<polygon fill="midnightblue" stroke="midnightblue" points="469.34,-682.194 479.457,-679.048 469.586,-675.198 469.34,-682.194"/>
</g>
<!-- Node76 -->
<g id="node26" class="node"><title>Node76</title>
<g id="a_node26"><a xlink:href="ldo_8h.html#a5315637506edcbdd30e9271e75416ae1" target="_top" xlink:title=" ">
<polygon fill="white" stroke="red" points="320,-627.5 320,-646.5 407,-646.5 407,-627.5 320,-627.5"/>
<text text-anchor="middle" x="363.5" y="-634.5" font-family="Helvetica,sans-Serif" font-size="10.00">luaD_callnoyield</text>
</a>
</g>
</g>
<!-- Node70&#45;&gt;Node76 -->
<g id="edge26" class="edge"><title>Node70&#45;&gt;Node76</title>
<path fill="none" stroke="midnightblue" d="M469.747,-668.871C446.852,-661.938 417.71,-653.113 395.899,-646.508"/>
<polygon fill="midnightblue" stroke="midnightblue" points="468.871,-672.262 479.457,-671.811 470.9,-665.563 468.871,-672.262"/>
</g>
<!-- Node549 -->
<g id="node27" class="node"><title>Node549</title>
<g id="a_node27"><a xlink:href="ltm_8h.html#a2d29ad84f74a0d1b498d3a26e6cb6537" target="_top" xlink:title=" ">
<polygon fill="white" stroke="red" points="202.5,-627.5 202.5,-646.5 270.5,-646.5 270.5,-627.5 202.5,-627.5"/>
<text text-anchor="middle" x="236.5" y="-634.5" font-family="Helvetica,sans-Serif" font-size="10.00">luaT_callTM</text>
</a>
</g>
</g>
<!-- Node70&#45;&gt;Node549 -->
<g id="edge30" class="edge"><title>Node70&#45;&gt;Node549</title>
<path fill="none" stroke="midnightblue" d="M489.717,-663.407C473.102,-648.244 446.136,-626.875 418,-618 365.562,-601.459 300.745,-616.296 264.79,-627.42"/>
<polygon fill="midnightblue" stroke="midnightblue" points="487.323,-665.96 497.002,-670.27 492.123,-660.865 487.323,-665.96"/>
</g>
<!-- Node76&#45;&gt;Node71 -->
<g id="edge27" class="edge"><title>Node76&#45;&gt;Node71</title>
<path fill="none" stroke="midnightblue" d="M321.993,-650.21C317.544,-652.006 313.133,-653.945 309,-656 287.185,-666.846 263.977,-683.084 250.114,-693.355"/>
<polygon fill="midnightblue" stroke="midnightblue" points="323.6,-653.343 331.701,-646.515 321.11,-646.801 323.6,-653.343"/>
</g>
<!-- Node76&#45;&gt;Node549 -->
<g id="edge28" class="edge"><title>Node76&#45;&gt;Node549</title>
<path fill="none" stroke="midnightblue" d="M309.804,-637C296.48,-637 282.547,-637 270.508,-637"/>
<polygon fill="midnightblue" stroke="midnightblue" points="309.832,-640.5 319.832,-637 309.832,-633.5 309.832,-640.5"/>
</g>
<!-- Node475 -->
<g id="node28" class="node"><title>Node475</title>
<g id="a_node28"><a xlink:href="lvm_8h.html#a57c2754ff3ea895f8206b4a67e762337" target="_top" xlink:title=" ">
<polygon fill="white" stroke="red" points="87,-741.5 87,-760.5 164,-760.5 164,-741.5 87,-741.5"/>
<text text-anchor="middle" x="125.5" y="-748.5" font-family="Helvetica,sans-Serif" font-size="10.00">luaV_finishset</text>
</a>
</g>
</g>
<!-- Node549&#45;&gt;Node475 -->
<g id="edge29" class="edge"><title>Node549&#45;&gt;Node475</title>
<path fill="none" stroke="midnightblue" d="M219.105,-654.147C195.901,-678.415 154.252,-721.975 135.77,-741.305"/>
<polygon fill="midnightblue" stroke="midnightblue" points="221.826,-656.366 226.207,-646.72 216.766,-651.529 221.826,-656.366"/>
</g>
<!-- Node496 -->
<g id="node30" class="node"><title>Node496</title>
<g id="a_node30"><a xlink:href="lua_8h.html#a434479f022eda738b99000aad5ddd929" target="_top" xlink:title=" ">
<polygon fill="white" stroke="red" points="203,-750.5 203,-769.5 270,-769.5 270,-750.5 203,-750.5"/>
<text text-anchor="middle" x="236.5" y="-757.5" font-family="Helvetica,sans-Serif" font-size="10.00">lua_resume</text>
</a>
</g>
</g>
<!-- Node495&#45;&gt;Node496 -->
<g id="edge33" class="edge"><title>Node495&#45;&gt;Node496</title>
<path fill="none" stroke="midnightblue" d="M328.843,-753.423C310.686,-754.731 288.369,-756.337 270.34,-757.636"/>
<polygon fill="midnightblue" stroke="midnightblue" points="329.266,-756.902 338.988,-752.693 328.763,-749.92 329.266,-756.902"/>
</g>
<!-- Node498&#45;&gt;Node495 -->
<g id="edge36" class="edge"><title>Node498&#45;&gt;Node495</title>
<path fill="none" stroke="midnightblue" d="M477.187,-754.968C450.798,-754.039 412.513,-752.691 388.063,-751.83"/>
<polygon fill="midnightblue" stroke="midnightblue" points="477.232,-758.472 487.349,-755.326 477.479,-751.476 477.232,-758.472"/>
</g>
<!-- Node498&#45;&gt;Node496 -->
<g id="edge35" class="edge"><title>Node498&#45;&gt;Node496</title>
<path fill="none" stroke="midnightblue" d="M477.282,-761.804C460.099,-764.92 437.906,-768.435 418,-770 369.705,-773.796 357.328,-773.363 309,-770 296.246,-769.112 282.305,-767.345 270.147,-765.539"/>
<polygon fill="midnightblue" stroke="midnightblue" points="478.082,-765.215 487.268,-759.936 476.795,-758.334 478.082,-765.215"/>
</g>
<!-- Node499 -->
<g id="node33" class="node"><title>Node499</title>
<g id="a_node33"><a xlink:href="ltable_8h.html#a61547e63b2d74aa68da53a7fd235e77e" target="_top" xlink:title=" ">
<polygon fill="white" stroke="black" points="825.5,-784.5 825.5,-803.5 899.5,-803.5 899.5,-784.5 825.5,-784.5"/>
<text text-anchor="middle" x="862.5" y="-791.5" font-family="Helvetica,sans-Serif" font-size="10.00">luaH_newkey</text>
</a>
</g>
</g>
<!-- Node553&#45;&gt;Node499 -->
<g id="edge39" class="edge"><title>Node553&#45;&gt;Node499</title>
<path fill="none" stroke="midnightblue" d="M932.952,-794C922.432,-794 910.664,-794 899.848,-794"/>
<polygon fill="midnightblue" stroke="midnightblue" points="932.976,-797.5 942.976,-794 932.976,-790.5 932.976,-797.5"/>
</g>
<!-- Node499&#45;&gt;Node475 -->
<g id="edge62" class="edge"><title>Node499&#45;&gt;Node475</title>
<path fill="none" stroke="midnightblue" d="M822.281,-806.459C730.906,-833.6 497.296,-892.074 309,-846 239.955,-829.105 167.975,-781.072 139.345,-760.519"/>
<polygon fill="midnightblue" stroke="midnightblue" points="823.383,-809.782 831.948,-803.546 821.363,-803.08 823.383,-809.782"/>
</g>
<!-- Node500 -->
<g id="node34" class="node"><title>Node500</title>
<g id="a_node34"><a xlink:href="ltable_8h.html#aad12092dcea6ae55728aadeeb0210d91" target="_top" xlink:title=" ">
<polygon fill="white" stroke="red" points="722,-746.5 722,-765.5 777,-765.5 777,-746.5 722,-746.5"/>
<text text-anchor="middle" x="749.5" y="-753.5" font-family="Helvetica,sans-Serif" font-size="10.00">luaH_set</text>
</a>
</g>
</g>
<!-- Node499&#45;&gt;Node500 -->
<g id="edge40" class="edge"><title>Node499&#45;&gt;Node500</title>
<path fill="none" stroke="midnightblue" d="M837.396,-780.068C819.704,-772.654 795.669,-764.36 777.361,-759.318"/>
<polygon fill="midnightblue" stroke="midnightblue" points="836.427,-783.466 846.989,-784.301 839.253,-777.062 836.427,-783.466"/>
</g>
<!-- Node511 -->
<g id="node35" class="node"><title>Node511</title>
<g id="a_node35"><a xlink:href="ltable_8h.html#ac62838e269732b63812012592c454462" target="_top" xlink:title=" ">
<polygon fill="white" stroke="red" points="717,-784.5 717,-803.5 782,-803.5 782,-784.5 717,-784.5"/>
<text text-anchor="middle" x="749.5" y="-791.5" font-family="Helvetica,sans-Serif" font-size="10.00">luaH_setint</text>
</a>
</g>
</g>
<!-- Node499&#45;&gt;Node511 -->
<g id="edge43" class="edge"><title>Node499&#45;&gt;Node511</title>
<path fill="none" stroke="midnightblue" d="M815.415,-794C804.256,-794 792.574,-794 782.245,-794"/>
<polygon fill="midnightblue" stroke="midnightblue" points="815.462,-797.5 825.461,-794 815.461,-790.5 815.462,-797.5"/>
</g>
<!-- Node500&#45;&gt;Node3 -->
<g id="edge42" class="edge"><title>Node500&#45;&gt;Node3</title>
<path fill="none" stroke="midnightblue" d="M787.547,-758.289C848.005,-762.025 966.932,-769.373 1024.8,-772.949"/>
<polygon fill="midnightblue" stroke="midnightblue" points="787.512,-754.78 777.315,-757.657 787.08,-761.767 787.512,-754.78"/>
</g>
<!-- Node500&#45;&gt;Node499 -->
<g id="edge41" class="edge"><title>Node500&#45;&gt;Node499</title>
<path fill="none" stroke="midnightblue" d="M774.314,-769.81C789.213,-776.07 808.694,-782.976 825.461,-788.029"/>
<polygon fill="midnightblue" stroke="midnightblue" points="775.381,-766.455 764.82,-765.609 772.549,-772.856 775.381,-766.455"/>
</g>
<!-- Node511&#45;&gt;Node3 -->
<g id="edge60" class="edge"><title>Node511&#45;&gt;Node3</title>
<path fill="none" stroke="midnightblue" d="M787.557,-806.398C797.344,-809.128 807.975,-811.616 818,-813 893.286,-823.394 915.395,-831.928 989,-813 1010.19,-807.551 1031.85,-794.069 1045.11,-784.724"/>
<polygon fill="midnightblue" stroke="midnightblue" points="788.306,-802.97 777.724,-803.502 786.328,-809.685 788.306,-802.97"/>
</g>
<!-- Node511&#45;&gt;Node4 -->
<g id="edge59" class="edge"><title>Node511&#45;&gt;Node4</title>
<path fill="none" stroke="midnightblue" d="M706.727,-794C695.431,-794 683.372,-794 672.656,-794"/>
<polygon fill="midnightblue" stroke="midnightblue" points="706.826,-797.5 716.826,-794 706.826,-790.5 706.826,-797.5"/>
</g>
<!-- Node511&#45;&gt;Node69 -->
<g id="edge61" class="edge"><title>Node511&#45;&gt;Node69</title>
<path fill="none" stroke="midnightblue" d="M723.021,-778.916C720.969,-777.615 718.94,-776.299 717,-775 693.505,-759.269 667.259,-739.295 652.276,-727.65"/>
<polygon fill="midnightblue" stroke="midnightblue" points="721.617,-782.162 731.967,-784.428 725.289,-776.202 721.617,-782.162"/>
</g>
<!-- Node512 -->
<g id="node36" class="node"><title>Node512</title>
<g id="a_node36"><a xlink:href="ldebug_8c.html#a6e3195fc94af1f75142c2801ca8cf058" target="_top" xlink:title=" ">
<polygon fill="white" stroke="black" points="597,-632.5 597,-651.5 681,-651.5 681,-632.5 597,-632.5"/>
<text text-anchor="middle" x="639" y="-639.5" font-family="Helvetica,sans-Serif" font-size="10.00">collectvalidlines</text>
</a>
</g>
</g>
<!-- Node511&#45;&gt;Node512 -->
<g id="edge44" class="edge"><title>Node511&#45;&gt;Node512</title>
<path fill="none" stroke="midnightblue" d="M720.275,-778.238C719.117,-777.205 718.017,-776.125 717,-775 691.931,-747.279 699.99,-731.192 681,-699 670.719,-681.571 656.532,-662.779 647.827,-651.719"/>
<polygon fill="midnightblue" stroke="midnightblue" points="718.398,-781.204 728.509,-784.369 722.578,-775.589 718.398,-781.204"/>
</g>
<!-- Node513 -->
<g id="node37" class="node"><title>Node513</title>
<g id="a_node37"><a xlink:href="lua_8h.html#a9cf23593facaabc7fb42e4d232a507d7" target="_top" xlink:title=" ">
<polygon fill="white" stroke="black" points="476,-475.5 476,-494.5 539,-494.5 539,-475.5 476,-475.5"/>
<text text-anchor="middle" x="507.5" y="-482.5" font-family="Helvetica,sans-Serif" font-size="10.00">lua_getinfo</text>
</a>
</g>
</g>
<!-- Node512&#45;&gt;Node513 -->
<g id="edge45" class="edge"><title>Node512&#45;&gt;Node513</title>
<path fill="none" stroke="midnightblue" d="M623.345,-624.233C595.978,-591.054 537.943,-520.695 516.598,-494.817"/>
<polygon fill="midnightblue" stroke="midnightblue" points="620.836,-626.692 629.899,-632.179 626.236,-622.237 620.836,-626.692"/>
</g>
<!-- Node117 -->
<g id="node38" class="node"><title>Node117</title>
<g id="a_node38"><a xlink:href="ldblib_8c.html#a4eb57e66c2efb2d31c9b9e1b01d27e13" target="_top" xlink:title=" ">
<polygon fill="white" stroke="black" points="95,-399.5 95,-418.5 156,-418.5 156,-399.5 95,-399.5"/>
<text text-anchor="middle" x="125.5" y="-406.5" font-family="Helvetica,sans-Serif" font-size="10.00">db_getinfo</text>
</a>
</g>
</g>
<!-- Node513&#45;&gt;Node117 -->
<g id="edge46" class="edge"><title>Node513&#45;&gt;Node117</title>
<path fill="none" stroke="midnightblue" d="M487.755,-468.845C470.782,-455.27 444.455,-436.727 418,-428 326.492,-397.813 210.246,-401.969 156.388,-406.118"/>
<polygon fill="midnightblue" stroke="midnightblue" points="485.785,-471.757 495.729,-475.413 490.235,-466.354 485.785,-471.757"/>
</g>
<!-- Node514 -->
<g id="node39" class="node"><title>Node514</title>
<g id="a_node39"><a xlink:href="ldblib_8c.html#a5caaa985f31fc5cbd014f831833205e7" target="_top" xlink:title=" ">
<polygon fill="white" stroke="black" points="343.5,-361.5 343.5,-380.5 383.5,-380.5 383.5,-361.5 343.5,-361.5"/>
<text text-anchor="middle" x="363.5" y="-368.5" font-family="Helvetica,sans-Serif" font-size="10.00">hookf</text>
</a>
</g>
</g>
<!-- Node513&#45;&gt;Node514 -->
<g id="edge47" class="edge"><title>Node513&#45;&gt;Node514</title>
<path fill="none" stroke="midnightblue" d="M492.814,-467.595C476.636,-447.925 448.088,-415.928 418,-395 407.47,-387.676 394.345,-381.747 383.731,-377.615"/>
<polygon fill="midnightblue" stroke="midnightblue" points="490.144,-469.86 499.148,-475.442 495.59,-465.463 490.144,-469.86"/>
</g>
<!-- Node149 -->
<g id="node41" class="node"><title>Node149</title>
<g id="a_node41"><a xlink:href="lauxlib_8h.html#ad0599591343ae7836d46e685b16e69de" target="_top" xlink:title=" ">
<polygon fill="white" stroke="red" points="200,-437.5 200,-456.5 273,-456.5 273,-437.5 200,-437.5"/>
<text text-anchor="middle" x="236.5" y="-444.5" font-family="Helvetica,sans-Serif" font-size="10.00">luaL_argerror</text>
</a>
</g>
</g>
<!-- Node513&#45;&gt;Node149 -->
<g id="edge50" class="edge"><title>Node513&#45;&gt;Node149</title>
<path fill="none" stroke="midnightblue" d="M465.647,-483.027C425.522,-480.63 362.686,-475.648 309,-466 295.726,-463.615 281.313,-459.99 268.928,-456.543"/>
<polygon fill="midnightblue" stroke="midnightblue" points="465.654,-486.533 475.838,-483.609 466.054,-479.544 465.654,-486.533"/>
</g>
<!-- Node230 -->
<g id="node44" class="node"><title>Node230</title>
<g id="a_node44"><a xlink:href="lauxlib_8h.html#a664cc293d6c7a7dc67857fe95583a10e" target="_top" xlink:title=" ">
<polygon fill="white" stroke="red" points="322,-551.5 322,-570.5 405,-570.5 405,-551.5 322,-551.5"/>
<text text-anchor="middle" x="363.5" y="-558.5" font-family="Helvetica,sans-Serif" font-size="10.00">luaL_traceback</text>
</a>
</g>
</g>
<!-- Node513&#45;&gt;Node230 -->
<g id="edge55" class="edge"><title>Node513&#45;&gt;Node230</title>
<path fill="none" stroke="midnightblue" d="M485.258,-500.677C467.825,-513.042 442.164,-530.126 418,-542 410.835,-545.521 402.847,-548.716 395.276,-551.439"/>
<polygon fill="midnightblue" stroke="midnightblue" points="487.5,-503.375 493.572,-494.693 483.411,-497.693 487.5,-503.375"/>
</g>
<!-- Node357 -->
<g id="node45" class="node"><title>Node357</title>
<g id="a_node45"><a xlink:href="lauxlib_8h.html#a269122a77674ca63c9193c2a30b4729e" target="_top" xlink:title=" ">
<polygon fill="white" stroke="red" points="331,-513.5 331,-532.5 396,-532.5 396,-513.5 331,-513.5"/>
<text text-anchor="middle" x="363.5" y="-520.5" font-family="Helvetica,sans-Serif" font-size="10.00">luaL_where</text>
</a>
</g>
</g>
<!-- Node513&#45;&gt;Node357 -->
<g id="edge56" class="edge"><title>Node513&#45;&gt;Node357</title>
<path fill="none" stroke="midnightblue" d="M465.905,-495.863C443.782,-501.784 416.802,-509.004 396.235,-514.508"/>
<polygon fill="midnightblue" stroke="midnightblue" points="466.933,-499.212 475.688,-493.245 465.123,-492.45 466.933,-499.212"/>
</g>
<!-- Node268 -->
<g id="node46" class="node"><title>Node268</title>
<g id="a_node46"><a xlink:href="lauxlib_8c.html#a4f35430f7ecfcbd5f507e550937046b4" target="_top" xlink:title=" ">
<polygon fill="white" stroke="red" points="311,-437.5 311,-456.5 416,-456.5 416,-437.5 311,-437.5"/>
<text text-anchor="middle" x="363.5" y="-444.5" font-family="Helvetica,sans-Serif" font-size="10.00">pushglobalfuncname</text>
</a>
</g>
</g>
<!-- Node513&#45;&gt;Node268 -->
<g id="edge57" class="edge"><title>Node513&#45;&gt;Node268</title>
<path fill="none" stroke="midnightblue" d="M465.868,-474.127C445.08,-468.564 420.013,-461.856 400.008,-456.502"/>
<polygon fill="midnightblue" stroke="midnightblue" points="465.123,-477.55 475.688,-476.755 466.933,-470.788 465.123,-477.55"/>
</g>
<!-- Node514&#45;&gt;Node18 -->
<g id="edge49" class="edge"><title>Node514&#45;&gt;Node18</title>
<path fill="none" stroke="midnightblue" d="M333.656,-362.719C325.445,-359.844 316.657,-356.254 309,-352 284.854,-338.584 260.5,-317.073 247.376,-304.669"/>
<polygon fill="midnightblue" stroke="midnightblue" points="332.678,-366.081 343.27,-365.867 334.856,-359.429 332.678,-366.081"/>
</g>
<!-- Node116 -->
<g id="node40" class="node"><title>Node116</title>
<g id="a_node40"><a xlink:href="ldblib_8c.html#a6a624ae8d8ff673e72a317b280ed008d" target="_top" xlink:title=" ">
<polygon fill="white" stroke="black" points="203,-361.5 203,-380.5 270,-380.5 270,-361.5 203,-361.5"/>
<text text-anchor="middle" x="236.5" y="-368.5" font-family="Helvetica,sans-Serif" font-size="10.00">db_gethook</text>
</a>
</g>
</g>
<!-- Node514&#45;&gt;Node116 -->
<g id="edge48" class="edge"><title>Node514&#45;&gt;Node116</title>
<path fill="none" stroke="midnightblue" d="M333.129,-371C314.238,-371 289.666,-371 270.161,-371"/>
<polygon fill="midnightblue" stroke="midnightblue" points="333.243,-374.5 343.243,-371 333.243,-367.5 333.243,-374.5"/>
</g>
<!-- Node149&#45;&gt;Node117 -->
<g id="edge54" class="edge"><title>Node149&#45;&gt;Node117</title>
<path fill="none" stroke="midnightblue" d="M198.291,-434.028C183.77,-428.966 167.421,-423.266 153.997,-418.586"/>
<polygon fill="midnightblue" stroke="midnightblue" points="197.4,-437.424 207.995,-437.411 199.704,-430.814 197.4,-437.424"/>
</g>
<!-- Node24 -->
<g id="node42" class="node"><title>Node24</title>
<g id="a_node42"><a xlink:href="lstrlib_8c.html#a2ff59847baa24a18f7d78d47dc1d3220" target="_top" xlink:title=" ">
<polygon fill="white" stroke="red" points="97.5,-437.5 97.5,-456.5 153.5,-456.5 153.5,-437.5 97.5,-437.5"/>
<text text-anchor="middle" x="125.5" y="-444.5" font-family="Helvetica,sans-Serif" font-size="10.00">addliteral</text>
</a>
</g>
</g>
<!-- Node149&#45;&gt;Node24 -->
<g id="edge51" class="edge"><title>Node149&#45;&gt;Node24</title>
<path fill="none" stroke="midnightblue" d="M189.694,-447C177.414,-447 164.531,-447 153.623,-447"/>
<polygon fill="midnightblue" stroke="midnightblue" points="189.809,-450.5 199.809,-447 189.809,-443.5 189.809,-450.5"/>
</g>
<!-- Node150 -->
<g id="node43" class="node"><title>Node150</title>
<g id="a_node43"><a xlink:href="loslib_8c.html#aaa168f0d57d7a806d86b6b8b20eb51c7" target="_top" xlink:title=" ">
<polygon fill="white" stroke="black" points="91,-475.5 91,-494.5 160,-494.5 160,-475.5 91,-475.5"/>
<text text-anchor="middle" x="125.5" y="-482.5" font-family="Helvetica,sans-Serif" font-size="10.00">checkoption</text>
</a>
</g>
</g>
<!-- Node149&#45;&gt;Node150 -->
<g id="edge52" class="edge"><title>Node149&#45;&gt;Node150</title>
<path fill="none" stroke="midnightblue" d="M198.291,-459.972C183.77,-465.034 167.421,-470.734 153.997,-475.414"/>
<polygon fill="midnightblue" stroke="midnightblue" points="199.704,-463.186 207.995,-456.589 197.4,-456.576 199.704,-463.186"/>
</g>
<!-- Node150&#45;&gt;Node57 -->
<g id="edge53" class="edge"><title>Node150&#45;&gt;Node57</title>
<path fill="none" stroke="midnightblue" d="M90.228,-469.384C89.0729,-468.321 87.9894,-467.194 87,-466 35.191,-403.457 27.732,-298.551 26.6717,-266.553"/>
<polygon fill="midnightblue" stroke="midnightblue" points="88.5038,-472.457 98.6543,-475.493 92.6127,-466.79 88.5038,-472.457"/>
</g>
<!-- Node268&#45;&gt;Node149 -->
<g id="edge58" class="edge"><title>Node268&#45;&gt;Node149</title>
<path fill="none" stroke="midnightblue" d="M300.771,-447C291.357,-447 281.921,-447 273.315,-447"/>
<polygon fill="midnightblue" stroke="midnightblue" points="300.936,-450.5 310.936,-447 300.936,-443.5 300.936,-450.5"/>
</g>
<!-- Node554&#45;&gt;Node4 -->
<g id="edge65" class="edge"><title>Node554&#45;&gt;Node4</title>
<path fill="none" stroke="midnightblue" d="M735.697,-660.085C722.143,-679.215 700.111,-710.267 681,-737 669.09,-753.66 655.155,-773.001 646.981,-784.33"/>
<polygon fill="midnightblue" stroke="midnightblue" points="738.696,-661.907 741.619,-651.723 732.983,-657.861 738.696,-661.907"/>
</g>
<!-- Node554&#45;&gt;Node10 -->
<g id="edge66" class="edge"><title>Node554&#45;&gt;Node10</title>
<path fill="none" stroke="midnightblue" d="M723.503,-625.917C721.026,-623.509 718.776,-620.863 717,-618 674.329,-549.204 646.282,-283.087 640.933,-228.73"/>
<polygon fill="midnightblue" stroke="midnightblue" points="721.43,-628.743 731.373,-632.402 725.881,-623.341 721.43,-628.743"/>
</g>
<!-- Node554&#45;&gt;Node69 -->
<g id="edge67" class="edge"><title>Node554&#45;&gt;Node69</title>
<path fill="none" stroke="midnightblue" d="M726.425,-657.463C704.606,-672.746 671.915,-695.645 653.63,-708.453"/>
<polygon fill="midnightblue" stroke="midnightblue" points="728.576,-660.229 734.758,-651.625 724.56,-654.496 728.576,-660.229"/>
</g>
<!-- Node554&#45;&gt;Node512 -->
<g id="edge64" class="edge"><title>Node554&#45;&gt;Node512</title>
<path fill="none" stroke="midnightblue" d="M709.9,-642C700.653,-642 690.743,-642 681.377,-642"/>
<polygon fill="midnightblue" stroke="midnightblue" points="709.993,-645.5 719.993,-642 709.993,-638.5 709.993,-645.5"/>
</g>
<!-- Node312 -->
<g id="node48" class="node"><title>Node312</title>
<g id="a_node48"><a xlink:href="lparser_8h.html#a71163cae919941bd5b31805e92de2e9b" target="_top" xlink:title=" ">
<polygon fill="white" stroke="black" points="605,-95.5 605,-114.5 673,-114.5 673,-95.5 605,-95.5"/>
<text text-anchor="middle" x="639" y="-102.5" font-family="Helvetica,sans-Serif" font-size="10.00">luaY_parser</text>
</a>
</g>
</g>
<!-- Node554&#45;&gt;Node312 -->
<g id="edge68" class="edge"><title>Node554&#45;&gt;Node312</title>
<path fill="none" stroke="midnightblue" d="M747.301,-622.432C743.087,-559.806 726.661,-359.098 681,-200 671.684,-167.539 653.939,-131.521 645.17,-114.677"/>
<polygon fill="midnightblue" stroke="midnightblue" points="743.812,-622.724 747.95,-632.477 750.798,-622.272 743.812,-622.724"/>
</g>
<!-- Node313 -->
<g id="node49" class="node"><title>Node313</title>
<g id="a_node49"><a xlink:href="ldo_8c.html#a14df0fa118ab124dfcc6d227bdd38ca5" target="_top" xlink:title=" ">
<polygon fill="white" stroke="black" points="482,-0.5 482,-19.5 533,-19.5 533,-0.5 482,-0.5"/>
<text text-anchor="middle" x="507.5" y="-7.5" font-family="Helvetica,sans-Serif" font-size="10.00">f_parser</text>
</a>
</g>
</g>
<!-- Node312&#45;&gt;Node313 -->
<g id="edge69" class="edge"><title>Node312&#45;&gt;Node313</title>
<path fill="none" stroke="midnightblue" d="M622.456,-87.8488C607.742,-72.338 584.467,-49.6049 561,-34 552.404,-28.2842 542.227,-23.2827 533.132,-19.346"/>
<polygon fill="midnightblue" stroke="midnightblue" points="619.949,-90.2929 629.326,-95.2257 625.072,-85.5223 619.949,-90.2929"/>
</g>
<!-- Node314 -->
<g id="node50" class="node"><title>Node314</title>
<g id="a_node50"><a xlink:href="ldo_8h.html#a5dffa85d966f14d3f3464db580f5b3fa" target="_top" xlink:title=" ">
<polygon fill="white" stroke="red" points="309,-0.5 309,-19.5 418,-19.5 418,-0.5 309,-0.5"/>
<text text-anchor="middle" x="363.5" y="-7.5" font-family="Helvetica,sans-Serif" font-size="10.00">luaD_protectedparser</text>
</a>
</g>
</g>
<!-- Node313&#45;&gt;Node314 -->
<g id="edge70" class="edge"><title>Node313&#45;&gt;Node314</title>
<path fill="none" stroke="midnightblue" d="M471.704,-10C455.566,-10 436.022,-10 418.064,-10"/>
<polygon fill="midnightblue" stroke="midnightblue" points="471.766,-13.5001 481.765,-10 471.765,-6.5001 471.766,-13.5001"/>
</g>
</g>
</svg>
