<?xml version="1.0" encoding="UTF-8" standalone="no"?>
<!DOCTYPE svg PUBLIC "-//W3C//DTD SVG 1.1//EN"
 "http://www.w3.org/Graphics/SVG/1.1/DTD/svg11.dtd">
<!-- Generated by graphviz version 2.38.0 (20140413.2041)
 -->
<!-- Title: lua_pushvfstring Pages: 1 -->
<svg width="564pt" height="1821pt"
 viewBox="0.00 0.00 564.00 1821.36" xmlns="http://www.w3.org/2000/svg" xmlns:xlink="http://www.w3.org/1999/xlink">
<g id="graph0" class="graph" transform="scale(1 1) rotate(0) translate(4 1817.36)">
<title>lua_pushvfstring</title>
<polygon fill="white" stroke="none" points="-4,4 -4,-1817.36 560,-1817.36 560,4 -4,4"/>
<!-- Node1 -->
<g id="node1" class="node"><title>Node1</title>
<g id="a_node1"><a xlink:title=" ">
<polygon fill="#bfbfbf" stroke="black" points="470,-893.5 470,-912.5 556,-912.5 556,-893.5 470,-893.5"/>
<text text-anchor="middle" x="513" y="-900.5" font-family="Helvetica,sans-Serif" font-size="10.00">lua_pushvfstring</text>
</a>
</g>
</g>
<!-- Node2 -->
<g id="node2" class="node"><title>Node2</title>
<g id="a_node2"><a xlink:href="lauxlib_8h.html#a994f73d7985c30672469a260d9e86ae6" target="_top" xlink:title=" ">
<polygon fill="white" stroke="red" points="375,-893.5 375,-912.5 434,-912.5 434,-893.5 375,-893.5"/>
<text text-anchor="middle" x="404.5" y="-900.5" font-family="Helvetica,sans-Serif" font-size="10.00">luaL_error</text>
</a>
</g>
</g>
<!-- Node1&#45;&gt;Node2 -->
<g id="edge1" class="edge"><title>Node1&#45;&gt;Node2</title>
<path fill="none" stroke="midnightblue" d="M459.673,-903C450.892,-903 442.077,-903 434.185,-903"/>
<polygon fill="midnightblue" stroke="midnightblue" points="459.908,-906.5 469.908,-903 459.908,-899.5 459.908,-906.5"/>
</g>
<!-- Node3 -->
<g id="node3" class="node"><title>Node3</title>
<g id="a_node3"><a xlink:href="lstrlib_8c.html#ad5f7e3fbcadc8825f7f650ecf458fc72" target="_top" xlink:title=" ">
<polygon fill="white" stroke="black" points="134.5,-1710.5 134.5,-1729.5 177.5,-1729.5 177.5,-1710.5 134.5,-1710.5"/>
<text text-anchor="middle" x="156" y="-1717.5" font-family="Helvetica,sans-Serif" font-size="10.00">add_s</text>
</a>
</g>
</g>
<!-- Node2&#45;&gt;Node3 -->
<g id="edge2" class="edge"><title>Node2&#45;&gt;Node3</title>
<path fill="none" stroke="midnightblue" d="M403.38,-922.617C402.476,-1039.74 395.105,-1643.57 339,-1701 296.487,-1744.52 215.735,-1733.56 177.742,-1725.28"/>
<polygon fill="midnightblue" stroke="midnightblue" points="406.88,-922.597 403.451,-912.573 399.881,-922.548 406.88,-922.597"/>
</g>
<!-- Node4 -->
<g id="node4" class="node"><title>Node4</title>
<g id="a_node4"><a xlink:href="lstrlib_8c.html#ad24cfa73e5ad25ec99a1b48f0916471e" target="_top" xlink:title=" ">
<polygon fill="white" stroke="red" points="7.5,-1748.5 7.5,-1767.5 66.5,-1767.5 66.5,-1748.5 7.5,-1748.5"/>
<text text-anchor="middle" x="37" y="-1755.5" font-family="Helvetica,sans-Serif" font-size="10.00">add_value</text>
</a>
</g>
</g>
<!-- Node2&#45;&gt;Node4 -->
<g id="edge4" class="edge"><title>Node2&#45;&gt;Node4</title>
<path fill="none" stroke="midnightblue" d="M403.61,-922.996C404.096,-1047.84 403.659,-1716.94 339,-1777 259.205,-1851.12 110.37,-1792.25 57.3619,-1767.57"/>
<polygon fill="midnightblue" stroke="midnightblue" points="407.109,-922.635 403.563,-912.652 400.109,-922.668 407.109,-922.635"/>
</g>
<!-- Node6 -->
<g id="node5" class="node"><title>Node6</title>
<g id="a_node5"><a xlink:href="ltablib_8c.html#a598479e00f1b316a182b1582012df5d0" target="_top" xlink:title=" ">
<polygon fill="white" stroke="red" points="263.5,-1406.5 263.5,-1425.5 313.5,-1425.5 313.5,-1406.5 263.5,-1406.5"/>
<text text-anchor="middle" x="288.5" y="-1413.5" font-family="Helvetica,sans-Serif" font-size="10.00">addfield</text>
</a>
</g>
</g>
<!-- Node2&#45;&gt;Node6 -->
<g id="edge5" class="edge"><title>Node2&#45;&gt;Node6</title>
<path fill="none" stroke="midnightblue" d="M403.532,-922.773C403.285,-1005.31 398.412,-1321.55 339,-1397 332.792,-1404.88 322.897,-1409.5 313.58,-1412.2"/>
<polygon fill="midnightblue" stroke="midnightblue" points="407.032,-922.73 403.542,-912.727 400.032,-922.724 407.032,-922.73"/>
</g>
<!-- Node8 -->
<g id="node6" class="node"><title>Node8</title>
<g id="a_node6"><a xlink:href="lutf8lib_8c.html#a805a182cc5dde6d73e07922e8454eaf7" target="_top" xlink:title=" ">
<polygon fill="white" stroke="black" points="259,-1368.5 259,-1387.5 318,-1387.5 318,-1368.5 259,-1368.5"/>
<text text-anchor="middle" x="288.5" y="-1375.5" font-family="Helvetica,sans-Serif" font-size="10.00">byteoffset</text>
</a>
</g>
</g>
<!-- Node2&#45;&gt;Node8 -->
<g id="edge6" class="edge"><title>Node2&#45;&gt;Node8</title>
<path fill="none" stroke="midnightblue" d="M403.285,-923.222C402.057,-1002.37 393.831,-1290.13 339,-1359 333.782,-1365.55 326.02,-1369.85 318.18,-1372.66"/>
<polygon fill="midnightblue" stroke="midnightblue" points="406.791,-922.786 403.425,-912.741 399.792,-922.693 406.791,-922.786"/>
</g>
<!-- Node9 -->
<g id="node7" class="node"><title>Node9</title>
<g id="a_node7"><a xlink:href="lstrlib_8c.html#a5e8b364a8f8d4300aa5007c0feb42abf" target="_top" xlink:title=" ">
<polygon fill="white" stroke="red" points="243,-1330.5 243,-1349.5 334,-1349.5 334,-1330.5 243,-1330.5"/>
<text text-anchor="middle" x="288.5" y="-1337.5" font-family="Helvetica,sans-Serif" font-size="10.00">capture_to_close</text>
</a>
</g>
</g>
<!-- Node2&#45;&gt;Node9 -->
<g id="edge7" class="edge"><title>Node2&#45;&gt;Node9</title>
<path fill="none" stroke="midnightblue" d="M403.004,-922.958C400.772,-997.495 389.429,-1258.47 339,-1321 335.879,-1324.87 331.873,-1327.95 327.493,-1330.41"/>
<polygon fill="midnightblue" stroke="midnightblue" points="406.511,-922.748 403.289,-912.655 399.514,-922.555 406.511,-922.748"/>
</g>
<!-- Node20 -->
<g id="node8" class="node"><title>Node20</title>
<g id="a_node8"><a xlink:href="lstrlib_8c.html#aa8c1a193fa762ecfe81888d86981a586" target="_top" xlink:title=" ">
<polygon fill="white" stroke="red" points="248.5,-1292.5 248.5,-1311.5 328.5,-1311.5 328.5,-1292.5 248.5,-1292.5"/>
<text text-anchor="middle" x="288.5" y="-1299.5" font-family="Helvetica,sans-Serif" font-size="10.00">check_capture</text>
</a>
</g>
</g>
<!-- Node2&#45;&gt;Node20 -->
<g id="edge8" class="edge"><title>Node2&#45;&gt;Node20</title>
<path fill="none" stroke="midnightblue" d="M402.665,-922.934C399.351,-993.012 384.987,-1226.85 339,-1283 335.85,-1286.85 331.827,-1289.91 327.439,-1292.36"/>
<polygon fill="midnightblue" stroke="midnightblue" points="406.167,-922.958 403.119,-912.811 399.174,-922.644 406.167,-922.958"/>
</g>
<!-- Node22 -->
<g id="node9" class="node"><title>Node22</title>
<g id="a_node9"><a xlink:href="loadlib_8c.html#abe3af664b33d2158ef6526094c84bb17" target="_top" xlink:title=" ">
<polygon fill="white" stroke="red" points="258,-1254.5 258,-1273.5 319,-1273.5 319,-1254.5 258,-1254.5"/>
<text text-anchor="middle" x="288.5" y="-1261.5" font-family="Helvetica,sans-Serif" font-size="10.00">checkload</text>
</a>
</g>
</g>
<!-- Node2&#45;&gt;Node22 -->
<g id="edge9" class="edge"><title>Node2&#45;&gt;Node22</title>
<path fill="none" stroke="midnightblue" d="M402.245,-923.021C397.762,-988.543 380.538,-1195.22 339,-1245 333.869,-1251.15 326.509,-1255.31 319.027,-1258.13"/>
<polygon fill="midnightblue" stroke="midnightblue" points="405.752,-923.019 402.917,-912.81 398.767,-922.559 405.752,-923.019"/>
</g>
<!-- Node28 -->
<g id="node10" class="node"><title>Node28</title>
<g id="a_node10"><a xlink:href="ldblib_8c.html#aef541490d49259cf4cb14e7f9597600e" target="_top" xlink:title=" ">
<polygon fill="white" stroke="red" points="255,-1216.5 255,-1235.5 322,-1235.5 322,-1216.5 255,-1216.5"/>
<text text-anchor="middle" x="288.5" y="-1223.5" font-family="Helvetica,sans-Serif" font-size="10.00">checkstack</text>
</a>
</g>
</g>
<!-- Node2&#45;&gt;Node28 -->
<g id="edge10" class="edge"><title>Node2&#45;&gt;Node28</title>
<path fill="none" stroke="midnightblue" d="M401.507,-922.668C395.156,-981.987 373.749,-1157.77 339,-1202 334.103,-1208.23 327.178,-1212.95 320.055,-1216.47"/>
<polygon fill="midnightblue" stroke="midnightblue" points="404.988,-923.026 402.547,-912.716 398.026,-922.298 404.988,-923.026"/>
</g>
<!-- Node34 -->
<g id="node11" class="node"><title>Node34</title>
<g id="a_node11"><a xlink:href="lstrlib_8c.html#a72b26c2a339f5e84ef087e961b547f95" target="_top" xlink:title=" ">
<polygon fill="white" stroke="black" points="260.5,-1102.5 260.5,-1121.5 316.5,-1121.5 316.5,-1102.5 260.5,-1102.5"/>
<text text-anchor="middle" x="288.5" y="-1109.5" font-family="Helvetica,sans-Serif" font-size="10.00">classend</text>
</a>
</g>
</g>
<!-- Node2&#45;&gt;Node34 -->
<g id="edge11" class="edge"><title>Node2&#45;&gt;Node34</title>
<path fill="none" stroke="midnightblue" d="M402.172,-923.033C398.599,-961.129 385.606,-1044.53 339,-1093 333.003,-1099.24 324.736,-1103.46 316.675,-1106.3"/>
<polygon fill="midnightblue" stroke="midnightblue" points="405.686,-923.004 403.005,-912.754 398.708,-922.438 405.686,-923.004"/>
</g>
<!-- Node11 -->
<g id="node12" class="node"><title>Node11</title>
<g id="a_node12"><a xlink:href="lstrlib_8c.html#a52a45835b75e5d31ec66421456bbb728" target="_top" xlink:title=" ">
<polygon fill="white" stroke="red" points="134,-1121.5 134,-1140.5 178,-1140.5 178,-1121.5 134,-1121.5"/>
<text text-anchor="middle" x="156" y="-1128.5" font-family="Helvetica,sans-Serif" font-size="10.00">match</text>
</a>
</g>
</g>
<!-- Node2&#45;&gt;Node11 -->
<g id="edge48" class="edge"><title>Node2&#45;&gt;Node11</title>
<path fill="none" stroke="midnightblue" d="M400.987,-922.483C394.046,-972.88 372.857,-1105.39 339,-1131 291.371,-1167.02 214.868,-1149.86 178.086,-1138.4"/>
<polygon fill="midnightblue" stroke="midnightblue" points="404.46,-922.915 402.316,-912.539 397.522,-921.987 404.46,-922.915"/>
</g>
<!-- Node16 -->
<g id="node13" class="node"><title>Node16</title>
<g id="a_node13"><a xlink:href="lstrlib_8c.html#a31cf026bdaa00bf9c72a1e4f72319147" target="_top" xlink:title=" ">
<polygon fill="white" stroke="black" points="0,-1121.5 0,-1140.5 74,-1140.5 74,-1121.5 0,-1121.5"/>
<text text-anchor="middle" x="37" y="-1128.5" font-family="Helvetica,sans-Serif" font-size="10.00">start_capture</text>
</a>
</g>
</g>
<!-- Node2&#45;&gt;Node16 -->
<g id="edge65" class="edge"><title>Node2&#45;&gt;Node16</title>
<path fill="none" stroke="midnightblue" d="M401.517,-922.703C395.615,-976.9 376.218,-1126.11 339,-1155 253.281,-1221.54 109.385,-1164.78 57.4399,-1140.61"/>
<polygon fill="midnightblue" stroke="midnightblue" points="405.008,-922.968 402.573,-912.657 398.046,-922.236 405.008,-922.968"/>
</g>
<!-- Node35 -->
<g id="node14" class="node"><title>Node35</title>
<g id="a_node14"><a xlink:href="lutf8lib_8c.html#af4280cee645f392590f2ed63a6301320" target="_top" xlink:title=" ">
<polygon fill="white" stroke="black" points="126.5,-1026.5 126.5,-1045.5 185.5,-1045.5 185.5,-1026.5 126.5,-1026.5"/>
<text text-anchor="middle" x="156" y="-1033.5" font-family="Helvetica,sans-Serif" font-size="10.00">codepoint</text>
</a>
</g>
</g>
<!-- Node2&#45;&gt;Node35 -->
<g id="edge15" class="edge"><title>Node2&#45;&gt;Node35</title>
<path fill="none" stroke="midnightblue" d="M396.239,-921.987C386.657,-944.352 367.586,-980.875 339,-1000 292.017,-1031.43 223.917,-1036.69 185.734,-1036.88"/>
<polygon fill="midnightblue" stroke="midnightblue" points="399.551,-923.134 400.078,-912.552 393.067,-920.495 399.551,-923.134"/>
</g>
<!-- Node36 -->
<g id="node15" class="node"><title>Node36</title>
<g id="a_node15"><a xlink:href="loadlib_8c.html#af8f7333f1a59f3d7aab8c9b79b7a4ab2" target="_top" xlink:title=" ">
<polygon fill="white" stroke="red" points="266.5,-760.5 266.5,-779.5 310.5,-779.5 310.5,-760.5 266.5,-760.5"/>
<text text-anchor="middle" x="288.5" y="-767.5" font-family="Helvetica,sans-Serif" font-size="10.00">findfile</text>
</a>
</g>
</g>
<!-- Node2&#45;&gt;Node36 -->
<g id="edge16" class="edge"><title>Node2&#45;&gt;Node36</title>
<path fill="none" stroke="midnightblue" d="M396.294,-883.964C386.487,-860.236 366.905,-819.683 339,-794 330.989,-786.627 320.297,-781.061 310.9,-777.155"/>
<polygon fill="midnightblue" stroke="midnightblue" points="393.054,-885.29 400.001,-893.29 399.559,-882.705 393.054,-885.29"/>
</g>
<!-- Node37 -->
<g id="node16" class="node"><title>Node37</title>
<g id="a_node16"><a xlink:href="loadlib_8c.html#aeea4101591c7cab25273f4dfe7d811d6" target="_top" xlink:title=" ">
<polygon fill="white" stroke="red" points="259.5,-722.5 259.5,-741.5 317.5,-741.5 317.5,-722.5 259.5,-722.5"/>
<text text-anchor="middle" x="288.5" y="-729.5" font-family="Helvetica,sans-Serif" font-size="10.00">findloader</text>
</a>
</g>
</g>
<!-- Node2&#45;&gt;Node37 -->
<g id="edge17" class="edge"><title>Node2&#45;&gt;Node37</title>
<path fill="none" stroke="midnightblue" d="M400.279,-883.461C394.035,-851.539 377.366,-788.053 339,-751 333.107,-745.309 325.329,-741.278 317.688,-738.442"/>
<polygon fill="midnightblue" stroke="midnightblue" points="396.842,-884.127 402.071,-893.341 403.73,-882.877 396.842,-884.127"/>
</g>
<!-- Node39 -->
<g id="node17" class="node"><title>Node39</title>
<g id="a_node17"><a xlink:href="lbaselib_8c.html#ad467c787e381e8d18e4c7b46b4f1b05d" target="_top" xlink:title=" ">
<polygon fill="white" stroke="red" points="116,-969.5 116,-988.5 196,-988.5 196,-969.5 116,-969.5"/>
<text text-anchor="middle" x="156" y="-976.5" font-family="Helvetica,sans-Serif" font-size="10.00">generic_reader</text>
</a>
</g>
</g>
<!-- Node2&#45;&gt;Node39 -->
<g id="edge18" class="edge"><title>Node2&#45;&gt;Node39</title>
<path fill="none" stroke="midnightblue" d="M394.069,-921.485C383.49,-939.95 364.426,-967.23 339,-979 293.552,-1000.04 234.614,-995.025 196.313,-988.155"/>
<polygon fill="midnightblue" stroke="midnightblue" points="397.238,-922.983 398.938,-912.525 391.088,-919.64 397.238,-922.983"/>
</g>
<!-- Node41 -->
<g id="node18" class="node"><title>Node41</title>
<g id="a_node18"><a xlink:href="loslib_8c.html#aa0a7f676dc564dbc1a3c16c917b933c9" target="_top" xlink:title=" ">
<polygon fill="white" stroke="black" points="265,-646.5 265,-665.5 312,-665.5 312,-646.5 265,-646.5"/>
<text text-anchor="middle" x="288.5" y="-653.5" font-family="Helvetica,sans-Serif" font-size="10.00">getfield</text>
</a>
</g>
</g>
<!-- Node2&#45;&gt;Node41 -->
<g id="edge19" class="edge"><title>Node2&#45;&gt;Node41</title>
<path fill="none" stroke="midnightblue" d="M402.984,-883.152C400.876,-840.903 390.398,-740.967 339,-680 332.044,-671.749 321.584,-666.106 312.069,-662.376"/>
<polygon fill="midnightblue" stroke="midnightblue" points="399.49,-883.387 403.378,-893.243 406.485,-883.114 399.49,-883.387"/>
</g>
<!-- Node42 -->
<g id="node19" class="node"><title>Node42</title>
<g id="a_node19"><a xlink:href="loslib_8c.html#ae32288bc9696b48450146e11c241f943" target="_top" xlink:title=" ">
<polygon fill="white" stroke="black" points="130.5,-665.5 130.5,-684.5 181.5,-684.5 181.5,-665.5 130.5,-665.5"/>
<text text-anchor="middle" x="156" y="-672.5" font-family="Helvetica,sans-Serif" font-size="10.00">os_time</text>
</a>
</g>
</g>
<!-- Node2&#45;&gt;Node42 -->
<g id="edge54" class="edge"><title>Node2&#45;&gt;Node42</title>
<path fill="none" stroke="midnightblue" d="M402.914,-883.312C400.636,-844.499 389.799,-757.977 339,-713 315.92,-692.565 225.968,-681.47 181.778,-677.153"/>
<polygon fill="midnightblue" stroke="midnightblue" points="399.418,-883.495 403.368,-893.326 406.411,-883.178 399.418,-883.495"/>
</g>
<!-- Node43 -->
<g id="node20" class="node"><title>Node43</title>
<g id="a_node20"><a xlink:href="liolib_8c.html#a3bccbdacdc9f21f22a603525be1f3699" target="_top" xlink:title=" ">
<polygon fill="white" stroke="red" points="263.5,-608.5 263.5,-627.5 313.5,-627.5 313.5,-608.5 263.5,-608.5"/>
<text text-anchor="middle" x="288.5" y="-615.5" font-family="Helvetica,sans-Serif" font-size="10.00">getiofile</text>
</a>
</g>
</g>
<!-- Node2&#45;&gt;Node43 -->
<g id="edge21" class="edge"><title>Node2&#45;&gt;Node43</title>
<path fill="none" stroke="midnightblue" d="M401.104,-883.265C394.055,-828.173 371.804,-674.319 339,-637 332.497,-629.602 322.783,-625.069 313.678,-622.299"/>
<polygon fill="midnightblue" stroke="midnightblue" points="397.663,-883.955 402.376,-893.444 404.609,-883.087 397.663,-883.955"/>
</g>
<!-- Node47 -->
<g id="node21" class="node"><title>Node47</title>
<g id="a_node21"><a xlink:href="lstrlib_8c.html#a2e2809fc0c800ac97e4122f33434b94a" target="_top" xlink:title=" ">
<polygon fill="white" stroke="black" points="255,-532.5 255,-551.5 322,-551.5 322,-532.5 255,-532.5"/>
<text text-anchor="middle" x="288.5" y="-539.5" font-family="Helvetica,sans-Serif" font-size="10.00">getnumlimit</text>
</a>
</g>
</g>
<!-- Node2&#45;&gt;Node47 -->
<g id="edge22" class="edge"><title>Node2&#45;&gt;Node47</title>
<path fill="none" stroke="midnightblue" d="M402.038,-883.402C396.908,-819.247 377.899,-616.723 339,-566 334.234,-559.786 327.443,-555.09 320.412,-551.578"/>
<polygon fill="midnightblue" stroke="midnightblue" points="398.55,-883.699 402.813,-893.399 405.529,-883.158 398.55,-883.699"/>
</g>
<!-- Node48 -->
<g id="node22" class="node"><title>Node48</title>
<g id="a_node22"><a xlink:href="lstrlib_8c.html#adcf5c53b9f1a52366c286fea5f9aeda7" target="_top" xlink:title=" ">
<polygon fill="white" stroke="red" points="128,-551.5 128,-570.5 184,-570.5 184,-551.5 128,-551.5"/>
<text text-anchor="middle" x="156" y="-558.5" font-family="Helvetica,sans-Serif" font-size="10.00">getoption</text>
</a>
</g>
</g>
<!-- Node2&#45;&gt;Node48 -->
<g id="edge24" class="edge"><title>Node2&#45;&gt;Node48</title>
<path fill="none" stroke="midnightblue" d="M402.05,-882.998C397.21,-821.902 379.565,-639.434 339,-599 317.51,-577.58 229.43,-567.127 184.153,-563.085"/>
<polygon fill="midnightblue" stroke="midnightblue" points="398.58,-883.522 402.829,-893.227 405.56,-882.99 398.58,-883.522"/>
</g>
<!-- Node53 -->
<g id="node23" class="node"><title>Node53</title>
<g id="a_node23"><a xlink:href="liolib_8c.html#ac37d80ee2cc364b4adafcb6f7c20f28b" target="_top" xlink:title=" ">
<polygon fill="white" stroke="red" points="124.5,-921.5 124.5,-940.5 187.5,-940.5 187.5,-921.5 124.5,-921.5"/>
<text text-anchor="middle" x="156" y="-928.5" font-family="Helvetica,sans-Serif" font-size="10.00">io_readline</text>
</a>
</g>
</g>
<!-- Node2&#45;&gt;Node53 -->
<g id="edge25" class="edge"><title>Node2&#45;&gt;Node53</title>
<path fill="none" stroke="midnightblue" d="M364.521,-907.428C315.451,-913.001 232.187,-922.459 187.501,-927.535"/>
<polygon fill="midnightblue" stroke="midnightblue" points="365.2,-910.873 374.741,-906.267 364.41,-903.918 365.2,-910.873"/>
</g>
<!-- Node57 -->
<g id="node24" class="node"><title>Node57</title>
<g id="a_node24"><a xlink:href="lutf8lib_8c.html#a43c0d087501aef0f0d064d38a29dd922" target="_top" xlink:title=" ">
<polygon fill="white" stroke="red" points="263,-494.5 263,-513.5 314,-513.5 314,-494.5 263,-494.5"/>
<text text-anchor="middle" x="288.5" y="-501.5" font-family="Helvetica,sans-Serif" font-size="10.00">iter_aux</text>
</a>
</g>
</g>
<!-- Node2&#45;&gt;Node57 -->
<g id="edge26" class="edge"><title>Node2&#45;&gt;Node57</title>
<path fill="none" stroke="midnightblue" d="M402.665,-883.066C399.351,-812.988 384.987,-579.15 339,-523 332.818,-515.451 323.268,-510.896 314.2,-508.15"/>
<polygon fill="midnightblue" stroke="midnightblue" points="399.174,-883.356 403.119,-893.189 406.167,-883.042 399.174,-883.356"/>
</g>
<!-- Node59 -->
<g id="node25" class="node"><title>Node59</title>
<g id="a_node25"><a xlink:href="lua_8c.html#a6da2ce581018529235ae1da1e32c7919" target="_top" xlink:title=" ">
<polygon fill="white" stroke="red" points="269.5,-456.5 269.5,-475.5 307.5,-475.5 307.5,-456.5 269.5,-456.5"/>
<text text-anchor="middle" x="288.5" y="-463.5" font-family="Helvetica,sans-Serif" font-size="10.00">lstop</text>
</a>
</g>
</g>
<!-- Node2&#45;&gt;Node59 -->
<g id="edge27" class="edge"><title>Node2&#45;&gt;Node59</title>
<path fill="none" stroke="midnightblue" d="M403.004,-883.042C400.772,-808.505 389.429,-547.527 339,-485 331.372,-475.542 318.45,-470.786 307.721,-468.398"/>
<polygon fill="midnightblue" stroke="midnightblue" points="399.514,-883.445 403.289,-893.345 406.511,-883.252 399.514,-883.445"/>
</g>
<!-- Node72 -->
<g id="node26" class="node"><title>Node72</title>
<g id="a_node26"><a xlink:href="lbaselib_8c.html#a865eb761a305c588d6940da5272375b7" target="_top" xlink:title=" ">
<polygon fill="white" stroke="black" points="258.5,-418.5 258.5,-437.5 318.5,-437.5 318.5,-418.5 258.5,-418.5"/>
<text text-anchor="middle" x="288.5" y="-425.5" font-family="Helvetica,sans-Serif" font-size="10.00">luaB_print</text>
</a>
</g>
</g>
<!-- Node2&#45;&gt;Node72 -->
<g id="edge28" class="edge"><title>Node2&#45;&gt;Node72</title>
<path fill="none" stroke="midnightblue" d="M403.285,-882.778C402.057,-803.632 393.831,-515.867 339,-447 333.897,-440.591 326.36,-436.342 318.697,-433.525"/>
<polygon fill="midnightblue" stroke="midnightblue" points="399.792,-883.307 403.425,-893.259 406.791,-883.214 399.792,-883.307"/>
</g>
<!-- Node73 -->
<g id="node27" class="node"><title>Node73</title>
<g id="a_node27"><a xlink:href="lbaselib_8c.html#af7799a987ba6d158a96a52e80fb5beaf" target="_top" xlink:title=" ">
<polygon fill="white" stroke="black" points="239.5,-380.5 239.5,-399.5 337.5,-399.5 337.5,-380.5 239.5,-380.5"/>
<text text-anchor="middle" x="288.5" y="-387.5" font-family="Helvetica,sans-Serif" font-size="10.00">luaB_setmetatable</text>
</a>
</g>
</g>
<!-- Node2&#45;&gt;Node73 -->
<g id="edge29" class="edge"><title>Node2&#45;&gt;Node73</title>
<path fill="none" stroke="midnightblue" d="M403.532,-883.227C403.285,-800.689 398.412,-484.445 339,-409 335.925,-405.095 331.944,-401.992 327.577,-399.526"/>
<polygon fill="midnightblue" stroke="midnightblue" points="400.032,-883.276 403.542,-893.273 407.032,-883.27 400.032,-883.276"/>
</g>
<!-- Node74 -->
<g id="node28" class="node"><title>Node74</title>
<g id="a_node28"><a xlink:href="lauxlib_8h.html#ad0599591343ae7836d46e685b16e69de" target="_top" xlink:title=" ">
<polygon fill="white" stroke="red" points="119.5,-1596.5 119.5,-1615.5 192.5,-1615.5 192.5,-1596.5 119.5,-1596.5"/>
<text text-anchor="middle" x="156" y="-1603.5" font-family="Helvetica,sans-Serif" font-size="10.00">luaL_argerror</text>
</a>
</g>
</g>
<!-- Node2&#45;&gt;Node74 -->
<g id="edge30" class="edge"><title>Node2&#45;&gt;Node74</title>
<path fill="none" stroke="midnightblue" d="M403.031,-922.767C400.328,-1028.99 385.202,-1529.07 339,-1578 301.799,-1617.4 234.073,-1616.9 192.553,-1612.06"/>
<polygon fill="midnightblue" stroke="midnightblue" points="406.53,-922.848 403.278,-912.765 399.532,-922.675 406.53,-922.848"/>
</g>
<!-- Node76 -->
<g id="node29" class="node"><title>Node76</title>
<g id="a_node29"><a xlink:href="lstrlib_8c.html#ae26a9374857058119e59d0328208c2f2" target="_top" xlink:title=" ">
<polygon fill="white" stroke="black" points="7,-1596.5 7,-1615.5 67,-1615.5 67,-1596.5 7,-1596.5"/>
<text text-anchor="middle" x="37" y="-1603.5" font-family="Helvetica,sans-Serif" font-size="10.00">str_format</text>
</a>
</g>
</g>
<!-- Node2&#45;&gt;Node76 -->
<g id="edge68" class="edge"><title>Node2&#45;&gt;Node76</title>
<path fill="none" stroke="midnightblue" d="M403.153,-923.037C401.058,-1032.96 388.475,-1559.62 339,-1610 263.931,-1686.44 116.073,-1637.89 60.1405,-1615.51"/>
<polygon fill="midnightblue" stroke="midnightblue" points="406.658,-922.787 403.342,-912.725 399.659,-922.659 406.658,-922.787"/>
</g>
<!-- Node170 -->
<g id="node30" class="node"><title>Node170</title>
<g id="a_node30"><a xlink:href="lauxlib_8h.html#a724f5a5aeee97c0b40948c8bca91341c" target="_top" xlink:title=" ">
<polygon fill="white" stroke="red" points="243.5,-950.5 243.5,-969.5 333.5,-969.5 333.5,-950.5 243.5,-950.5"/>
<text text-anchor="middle" x="288.5" y="-957.5" font-family="Helvetica,sans-Serif" font-size="10.00">luaL_checkstack</text>
</a>
</g>
</g>
<!-- Node2&#45;&gt;Node170 -->
<g id="edge32" class="edge"><title>Node2&#45;&gt;Node170</title>
<path fill="none" stroke="midnightblue" d="M375.886,-917.293C364.492,-923.146 351.138,-929.953 339,-936 329.426,-940.77 318.754,-945.96 309.778,-950.289"/>
<polygon fill="midnightblue" stroke="midnightblue" points="377.637,-920.327 384.925,-912.637 374.432,-914.104 377.637,-920.327"/>
</g>
<!-- Node179 -->
<g id="node31" class="node"><title>Node179</title>
<g id="a_node31"><a xlink:href="lua_8c.html#a1e73bab660617a11ddcbb7d647980d40" target="_top" xlink:title=" ">
<polygon fill="white" stroke="red" points="128,-874.5 128,-893.5 184,-893.5 184,-874.5 128,-874.5"/>
<text text-anchor="middle" x="156" y="-881.5" font-family="Helvetica,sans-Serif" font-size="10.00">pushargs</text>
</a>
</g>
</g>
<!-- Node2&#45;&gt;Node179 -->
<g id="edge60" class="edge"><title>Node2&#45;&gt;Node179</title>
<path fill="none" stroke="midnightblue" d="M364.573,-900C314.227,-896.119 227.819,-889.459 184.072,-886.087"/>
<polygon fill="midnightblue" stroke="midnightblue" points="364.501,-903.504 374.741,-900.783 365.039,-896.525 364.501,-903.504"/>
</g>
<!-- Node103 -->
<g id="node32" class="node"><title>Node103</title>
<g id="a_node32"><a xlink:href="lstrlib_8c.html#ae561770420cfd1894054415df9d4c423" target="_top" xlink:title=" ">
<polygon fill="white" stroke="black" points="130,-817.5 130,-836.5 182,-836.5 182,-817.5 130,-817.5"/>
<text text-anchor="middle" x="156" y="-824.5" font-family="Helvetica,sans-Serif" font-size="10.00">str_byte</text>
</a>
</g>
</g>
<!-- Node2&#45;&gt;Node103 -->
<g id="edge66" class="edge"><title>Node2&#45;&gt;Node103</title>
<path fill="none" stroke="midnightblue" d="M394.069,-884.515C383.49,-866.05 364.426,-838.77 339,-827 287.53,-803.174 218.76,-812.76 182.255,-820.617"/>
<polygon fill="midnightblue" stroke="midnightblue" points="391.088,-886.36 398.938,-893.475 397.238,-883.017 391.088,-886.36"/>
</g>
<!-- Node180 -->
<g id="node33" class="node"><title>Node180</title>
<g id="a_node33"><a xlink:href="lauxlib_8h.html#ab42194a5a9cd8a6f6ee9123ef1807e52" target="_top" xlink:title=" ">
<polygon fill="white" stroke="black" points="238,-342.5 238,-361.5 339,-361.5 339,-342.5 238,-342.5"/>
<text text-anchor="middle" x="288.5" y="-349.5" font-family="Helvetica,sans-Serif" font-size="10.00">luaL_checkversion_</text>
</a>
</g>
</g>
<!-- Node2&#45;&gt;Node180 -->
<g id="edge38" class="edge"><title>Node2&#45;&gt;Node180</title>
<path fill="none" stroke="midnightblue" d="M403.74,-883.115C404.396,-796.506 402.874,-452.881 339,-371 336.056,-367.226 332.265,-364.201 328.094,-361.777"/>
<polygon fill="midnightblue" stroke="midnightblue" points="400.237,-883.345 403.641,-893.378 407.237,-883.413 400.237,-883.345"/>
</g>
<!-- Node181 -->
<g id="node34" class="node"><title>Node181</title>
<g id="a_node34"><a xlink:href="lauxlib_8h.html#ac9d38b77e425247b630afdb212401a05" target="_top" xlink:title=" ">
<polygon fill="white" stroke="red" points="262,-836.5 262,-855.5 315,-855.5 315,-836.5 262,-836.5"/>
<text text-anchor="middle" x="288.5" y="-843.5" font-family="Helvetica,sans-Serif" font-size="10.00">luaL_len</text>
</a>
</g>
</g>
<!-- Node2&#45;&gt;Node181 -->
<g id="edge39" class="edge"><title>Node2&#45;&gt;Node181</title>
<path fill="none" stroke="midnightblue" d="M375.886,-888.707C364.492,-882.854 351.138,-876.047 339,-870 329.426,-865.23 318.754,-860.04 309.778,-855.711"/>
<polygon fill="midnightblue" stroke="midnightblue" points="374.432,-891.896 384.925,-893.363 377.637,-885.673 374.432,-891.896"/>
</g>
<!-- Node188 -->
<g id="node35" class="node"><title>Node188</title>
<g id="a_node35"><a xlink:href="lauxlib_8h.html#a0fb6d10de24960ceed452061b47c2c06" target="_top" xlink:title=" ">
<polygon fill="white" stroke="red" points="110,-1501.5 110,-1520.5 202,-1520.5 202,-1501.5 110,-1501.5"/>
<text text-anchor="middle" x="156" y="-1508.5" font-family="Helvetica,sans-Serif" font-size="10.00">luaL_prepbuffsize</text>
</a>
</g>
</g>
<!-- Node2&#45;&gt;Node188 -->
<g id="edge41" class="edge"><title>Node2&#45;&gt;Node188</title>
<path fill="none" stroke="midnightblue" d="M402.565,-922.968C397.915,-1018.54 376.012,-1426.33 339,-1468 321.105,-1488.15 249.892,-1500.25 202.032,-1506.26"/>
<polygon fill="midnightblue" stroke="midnightblue" points="406.065,-923.063 403.047,-912.907 399.073,-922.728 406.065,-923.063"/>
</g>
<!-- Node78 -->
<g id="node36" class="node"><title>Node78</title>
<g id="a_node36"><a xlink:href="loslib_8c.html#a6520f2562b500aee87a6a475995adefb" target="_top" xlink:title=" ">
<polygon fill="white" stroke="black" points="11.5,-1482.5 11.5,-1501.5 62.5,-1501.5 62.5,-1482.5 11.5,-1482.5"/>
<text text-anchor="middle" x="37" y="-1489.5" font-family="Helvetica,sans-Serif" font-size="10.00">os_date</text>
</a>
</g>
</g>
<!-- Node2&#45;&gt;Node78 -->
<g id="edge53" class="edge"><title>Node2&#45;&gt;Node78</title>
<path fill="none" stroke="midnightblue" d="M402.457,-922.978C397.46,-1015.19 374.736,-1396.8 339,-1435 320.014,-1455.29 131.406,-1480.44 62.7919,-1488.99"/>
<polygon fill="midnightblue" stroke="midnightblue" points="405.963,-922.956 403,-912.784 398.973,-922.584 405.963,-922.956"/>
</g>
<!-- Node202 -->
<g id="node37" class="node"><title>Node202</title>
<g id="a_node37"><a xlink:href="lauxlib_8h.html#aef6da057d1e26ed6449b92177f1f2f5a" target="_top" xlink:title=" ">
<polygon fill="white" stroke="red" points="251.5,-1672.5 251.5,-1691.5 325.5,-1691.5 325.5,-1672.5 251.5,-1672.5"/>
<text text-anchor="middle" x="288.5" y="-1679.5" font-family="Helvetica,sans-Serif" font-size="10.00">luaL_tolstring</text>
</a>
</g>
</g>
<!-- Node2&#45;&gt;Node202 -->
<g id="edge44" class="edge"><title>Node2&#45;&gt;Node202</title>
<path fill="none" stroke="midnightblue" d="M402.96,-923.052C399.747,-1036.57 381.829,-1595.7 339,-1658 334.671,-1664.3 328.214,-1669 321.382,-1672.49"/>
<polygon fill="midnightblue" stroke="midnightblue" points="406.468,-922.809 403.246,-912.716 399.47,-922.616 406.468,-922.809"/>
</g>
<!-- Node203 -->
<g id="node38" class="node"><title>Node203</title>
<g id="a_node38"><a xlink:href="lualib_8h.html#abb41e0d9276447688b5958aa96d919e2" target="_top" xlink:title=" ">
<polygon fill="white" stroke="black" points="250,-304.5 250,-323.5 327,-323.5 327,-304.5 250,-304.5"/>
<text text-anchor="middle" x="288.5" y="-311.5" font-family="Helvetica,sans-Serif" font-size="10.00">luaopen_bit32</text>
</a>
</g>
</g>
<!-- Node2&#45;&gt;Node203 -->
<g id="edge47" class="edge"><title>Node2&#45;&gt;Node203</title>
<path fill="none" stroke="midnightblue" d="M403.92,-883.132C405.44,-792.792 407.377,-421.378 339,-333 335.846,-328.923 331.703,-325.72 327.155,-323.205"/>
<polygon fill="midnightblue" stroke="midnightblue" points="400.42,-883.073 403.733,-893.137 407.419,-883.204 400.42,-883.073"/>
</g>
<!-- Node204 -->
<g id="node39" class="node"><title>Node204</title>
<g id="a_node39"><a xlink:href="lstrlib_8c.html#aacb8f9104a816720da707ecf5219a96e" target="_top" xlink:title=" ">
<polygon fill="white" stroke="black" points="250,-1064.5 250,-1083.5 327,-1083.5 327,-1064.5 250,-1064.5"/>
<text text-anchor="middle" x="288.5" y="-1071.5" font-family="Helvetica,sans-Serif" font-size="10.00">matchbalance</text>
</a>
</g>
</g>
<!-- Node2&#45;&gt;Node204 -->
<g id="edge49" class="edge"><title>Node2&#45;&gt;Node204</title>
<path fill="none" stroke="midnightblue" d="M399.546,-922.397C392.396,-953.046 374.635,-1012.99 339,-1050 333.171,-1056.05 325.5,-1060.78 317.943,-1064.38"/>
<polygon fill="midnightblue" stroke="midnightblue" points="402.986,-923.045 401.713,-912.527 396.149,-921.544 402.986,-923.045"/>
</g>
<!-- Node108 -->
<g id="node40" class="node"><title>Node108</title>
<g id="a_node40"><a xlink:href="lmathlib_8c.html#aa3ad02d4204d21d35a0825281915fb22" target="_top" xlink:title=" ">
<polygon fill="white" stroke="black" points="250.5,-266.5 250.5,-285.5 326.5,-285.5 326.5,-266.5 250.5,-266.5"/>
<text text-anchor="middle" x="288.5" y="-273.5" font-family="Helvetica,sans-Serif" font-size="10.00">math_random</text>
</a>
</g>
</g>
<!-- Node2&#45;&gt;Node108 -->
<g id="edge51" class="edge"><title>Node2&#45;&gt;Node108</title>
<path fill="none" stroke="midnightblue" d="M402.618,-883.215C398.03,-783.921 375.697,-342.775 339,-295 335.748,-290.766 331.428,-287.475 326.692,-284.918"/>
<polygon fill="midnightblue" stroke="midnightblue" points="399.128,-883.526 403.079,-893.356 406.121,-883.208 399.128,-883.526"/>
</g>
<!-- Node205 -->
<g id="node41" class="node"><title>Node205</title>
<g id="a_node41"><a xlink:href="liolib_8c.html#a91ec9c6fa0ef33085f29a15532ac80a7" target="_top" xlink:title=" ">
<polygon fill="white" stroke="red" points="256.5,-228.5 256.5,-247.5 320.5,-247.5 320.5,-228.5 256.5,-228.5"/>
<text text-anchor="middle" x="288.5" y="-235.5" font-family="Helvetica,sans-Serif" font-size="10.00">opencheck</text>
</a>
</g>
</g>
<!-- Node2&#45;&gt;Node205 -->
<g id="edge52" class="edge"><title>Node2&#45;&gt;Node205</title>
<path fill="none" stroke="midnightblue" d="M402.738,-882.964C398.638,-779.442 377.93,-308.008 339,-257 334.421,-251 327.696,-246.894 320.671,-244.085"/>
<polygon fill="midnightblue" stroke="midnightblue" points="399.252,-883.392 403.138,-893.249 406.247,-883.12 399.252,-883.392"/>
</g>
<!-- Node209 -->
<g id="node42" class="node"><title>Node209</title>
<g id="a_node42"><a xlink:href="loslib_8c.html#a89a90062784a8adc223ff4cbe576321d" target="_top" xlink:title=" ">
<polygon fill="white" stroke="black" points="252,-190.5 252,-209.5 325,-209.5 325,-190.5 252,-190.5"/>
<text text-anchor="middle" x="288.5" y="-197.5" font-family="Helvetica,sans-Serif" font-size="10.00">os_tmpname</text>
</a>
</g>
</g>
<!-- Node2&#45;&gt;Node209 -->
<g id="edge55" class="edge"><title>Node2&#45;&gt;Node209</title>
<path fill="none" stroke="midnightblue" d="M402.861,-883.132C399.264,-776.34 380.22,-273.317 339,-219 335.383,-214.234 330.412,-210.663 325.007,-207.988"/>
<polygon fill="midnightblue" stroke="midnightblue" points="399.365,-883.307 403.193,-893.186 406.361,-883.076 399.365,-883.307"/>
</g>
<!-- Node210 -->
<g id="node43" class="node"><title>Node210</title>
<g id="a_node43"><a xlink:href="ltablib_8c.html#a1d53059f696e353656cd98be725ffbd2" target="_top" xlink:title=" ">
<polygon fill="white" stroke="red" points="263,-152.5 263,-171.5 314,-171.5 314,-152.5 263,-152.5"/>
<text text-anchor="middle" x="288.5" y="-159.5" font-family="Helvetica,sans-Serif" font-size="10.00">partition</text>
</a>
</g>
</g>
<!-- Node2&#45;&gt;Node210 -->
<g id="edge56" class="edge"><title>Node2&#45;&gt;Node210</title>
<path fill="none" stroke="midnightblue" d="M402.973,-883.422C399.864,-773.767 382.531,-238.656 339,-181 333.065,-173.139 323.444,-168.531 314.255,-165.828"/>
<polygon fill="midnightblue" stroke="midnightblue" points="399.475,-883.526 403.251,-893.425 406.472,-883.332 399.475,-883.526"/>
</g>
<!-- Node212 -->
<g id="node44" class="node"><title>Node212</title>
<g id="a_node44"><a xlink:href="lstrlib_8c.html#a24a14b4e6e90bac4610dd334bb0b51b6" target="_top" xlink:title=" ">
<polygon fill="white" stroke="red" points="243,-1748.5 243,-1767.5 334,-1767.5 334,-1748.5 243,-1748.5"/>
<text text-anchor="middle" x="288.5" y="-1755.5" font-family="Helvetica,sans-Serif" font-size="10.00">push_onecapture</text>
</a>
</g>
</g>
<!-- Node2&#45;&gt;Node212 -->
<g id="edge57" class="edge"><title>Node2&#45;&gt;Node212</title>
<path fill="none" stroke="midnightblue" d="M403.131,-922.788C400.75,-1042.29 386.136,-1664.86 339,-1734 334.75,-1740.23 328.409,-1744.91 321.672,-1748.39"/>
<polygon fill="midnightblue" stroke="midnightblue" points="406.635,-922.628 403.329,-912.562 399.636,-922.492 406.635,-922.628"/>
</g>
<!-- Node213 -->
<g id="node45" class="node"><title>Node213</title>
<g id="a_node45"><a xlink:href="lauxlib_8c.html#acdf7f3169e55f9c8bd3d314358a9e778" target="_top" xlink:title=" ">
<polygon fill="white" stroke="red" points="259,-1520.5 259,-1539.5 318,-1539.5 318,-1520.5 259,-1520.5"/>
<text text-anchor="middle" x="288.5" y="-1527.5" font-family="Helvetica,sans-Serif" font-size="10.00">resizebox</text>
</a>
</g>
</g>
<!-- Node2&#45;&gt;Node213 -->
<g id="edge61" class="edge"><title>Node2&#45;&gt;Node213</title>
<path fill="none" stroke="midnightblue" d="M403.887,-922.985C405.325,-1016.35 407.173,-1409.07 339,-1506 333.945,-1513.19 326.131,-1518.31 318.193,-1521.92"/>
<polygon fill="midnightblue" stroke="midnightblue" points="407.385,-922.847 403.714,-912.909 400.386,-922.967 407.385,-922.847"/>
</g>
<!-- Node220 -->
<g id="node46" class="node"><title>Node220</title>
<g id="a_node46"><a xlink:href="lstrlib_8c.html#aa02d130952004540df86ae92853cfc22" target="_top" xlink:title=" ">
<polygon fill="white" stroke="black" points="123.5,-1558.5 123.5,-1577.5 188.5,-1577.5 188.5,-1558.5 123.5,-1558.5"/>
<text text-anchor="middle" x="156" y="-1565.5" font-family="Helvetica,sans-Serif" font-size="10.00">scanformat</text>
</a>
</g>
</g>
<!-- Node2&#45;&gt;Node220 -->
<g id="edge63" class="edge"><title>Node2&#45;&gt;Node220</title>
<path fill="none" stroke="midnightblue" d="M402.979,-922.922C400.071,-1026.81 384.317,-1503.48 339,-1549 299.889,-1588.29 229.534,-1582.84 188.701,-1575.39"/>
<polygon fill="midnightblue" stroke="midnightblue" points="406.48,-922.943 403.253,-912.851 399.482,-922.753 406.48,-922.943"/>
</g>
<!-- Node169 -->
<g id="node47" class="node"><title>Node169</title>
<g id="a_node47"><a xlink:href="lstrlib_8c.html#abc94e3a13f1b6ddb2c9b20c9fd89e87f" target="_top" xlink:title=" ">
<polygon fill="white" stroke="black" points="260,-114.5 260,-133.5 317,-133.5 317,-114.5 260,-114.5"/>
<text text-anchor="middle" x="288.5" y="-121.5" font-family="Helvetica,sans-Serif" font-size="10.00">str_dump</text>
</a>
</g>
</g>
<!-- Node2&#45;&gt;Node169 -->
<g id="edge67" class="edge"><title>Node2&#45;&gt;Node169</title>
<path fill="none" stroke="midnightblue" d="M403.058,-883.116C400.37,-769.352 384.765,-203.896 339,-143 333.691,-135.936 325.403,-131.498 317.116,-128.71"/>
<polygon fill="midnightblue" stroke="midnightblue" points="399.567,-883.538 403.296,-893.455 406.565,-883.377 399.567,-883.538"/>
</g>
<!-- Node113 -->
<g id="node48" class="node"><title>Node113</title>
<g id="a_node48"><a xlink:href="lstrlib_8c.html#acaee4c84f29e2ec7366728ca04d3569c" target="_top" xlink:title=" ">
<polygon fill="white" stroke="black" points="265,-76.5 265,-95.5 312,-95.5 312,-76.5 265,-76.5"/>
<text text-anchor="middle" x="288.5" y="-83.5" font-family="Helvetica,sans-Serif" font-size="10.00">str_rep</text>
</a>
</g>
</g>
<!-- Node2&#45;&gt;Node113 -->
<g id="edge69" class="edge"><title>Node2&#45;&gt;Node113</title>
<path fill="none" stroke="midnightblue" d="M403.145,-883.212C400.889,-766.34 387.057,-169.213 339,-105 332.657,-96.5248 322.024,-91.8299 312.235,-89.2292"/>
<polygon fill="midnightblue" stroke="midnightblue" points="399.647,-883.32 403.333,-893.253 406.645,-883.189 399.647,-883.32"/>
</g>
<!-- Node114 -->
<g id="node49" class="node"><title>Node114</title>
<g id="a_node49"><a xlink:href="ltablib_8c.html#a214ed6966e2b1b4c376ab0de0d09032e" target="_top" xlink:title=" ">
<polygon fill="white" stroke="black" points="266.5,-38.5 266.5,-57.5 310.5,-57.5 310.5,-38.5 266.5,-38.5"/>
<text text-anchor="middle" x="288.5" y="-45.5" font-family="Helvetica,sans-Serif" font-size="10.00">tinsert</text>
</a>
</g>
</g>
<!-- Node2&#45;&gt;Node114 -->
<g id="edge70" class="edge"><title>Node2&#45;&gt;Node114</title>
<path fill="none" stroke="midnightblue" d="M403.22,-883.036C401.363,-762.471 389.313,-134.484 339,-67 332.343,-58.0705 320.92,-53.3375 310.724,-50.8288"/>
<polygon fill="midnightblue" stroke="midnightblue" points="399.725,-883.405 403.372,-893.352 406.724,-883.302 399.725,-883.405"/>
</g>
<!-- Node221 -->
<g id="node50" class="node"><title>Node221</title>
<g id="a_node50"><a xlink:href="liolib_8c.html#a3a596f9304846a90435b75c75c55acda" target="_top" xlink:title=" ">
<polygon fill="white" stroke="red" points="270,-0.5 270,-19.5 307,-19.5 307,-0.5 270,-0.5"/>
<text text-anchor="middle" x="288.5" y="-7.5" font-family="Helvetica,sans-Serif" font-size="10.00">tofile</text>
</a>
</g>
</g>
<!-- Node2&#45;&gt;Node221 -->
<g id="edge71" class="edge"><title>Node2&#45;&gt;Node221</title>
<path fill="none" stroke="midnightblue" d="M403.294,-883.288C401.842,-760.177 391.632,-99.8403 339,-29 331.534,-18.951 318.03,-14.2168 307.011,-11.9865"/>
<polygon fill="midnightblue" stroke="midnightblue" points="399.796,-883.527 403.408,-893.487 406.795,-883.448 399.796,-883.527"/>
</g>
<!-- Node3&#45;&gt;Node4 -->
<g id="edge3" class="edge"><title>Node3&#45;&gt;Node4</title>
<path fill="none" stroke="midnightblue" d="M124.703,-1729.84C106.842,-1735.64 84.3697,-1742.94 66.7795,-1748.65"/>
<polygon fill="midnightblue" stroke="midnightblue" points="125.922,-1733.12 134.352,-1726.71 123.76,-1726.47 125.922,-1733.12"/>
</g>
<!-- Node34&#45;&gt;Node11 -->
<g id="edge12" class="edge"><title>Node34&#45;&gt;Node11</title>
<path fill="none" stroke="midnightblue" d="M250.553,-1117.38C227.238,-1120.77 197.942,-1125.04 178.406,-1127.88"/>
<polygon fill="midnightblue" stroke="midnightblue" points="251.069,-1120.84 260.46,-1115.94 250.06,-1113.91 251.069,-1120.84"/>
</g>
<!-- Node11&#45;&gt;Node16 -->
<g id="edge13" class="edge"><title>Node11&#45;&gt;Node16</title>
<path fill="none" stroke="midnightblue" d="M123.824,-1124.95C108.554,-1124.11 90.0809,-1124.02 74.1908,-1124.71"/>
<polygon fill="midnightblue" stroke="midnightblue" points="123.59,-1128.44 133.812,-1125.66 124.085,-1121.46 123.59,-1128.44"/>
</g>
<!-- Node16&#45;&gt;Node11 -->
<g id="edge14" class="edge"><title>Node16&#45;&gt;Node11</title>
<path fill="none" stroke="midnightblue" d="M84.5669,-1137.62C101.612,-1137.99 120.07,-1137.56 133.812,-1136.34"/>
<polygon fill="midnightblue" stroke="midnightblue" points="84.2971,-1134.11 74.1908,-1137.29 84.0744,-1141.11 84.2971,-1134.11"/>
</g>
<!-- Node41&#45;&gt;Node42 -->
<g id="edge20" class="edge"><title>Node41&#45;&gt;Node42</title>
<path fill="none" stroke="midnightblue" d="M254.594,-660.791C231.942,-664.089 202.329,-668.4 181.69,-671.405"/>
<polygon fill="midnightblue" stroke="midnightblue" points="255.377,-664.214 264.769,-659.31 254.369,-657.287 255.377,-664.214"/>
</g>
<!-- Node47&#45;&gt;Node48 -->
<g id="edge23" class="edge"><title>Node47&#45;&gt;Node48</title>
<path fill="none" stroke="midnightblue" d="M244.839,-548.211C224.943,-551.108 201.851,-554.47 184.337,-557.02"/>
<polygon fill="midnightblue" stroke="midnightblue" points="245.515,-551.65 254.906,-546.745 244.506,-544.723 245.515,-551.65"/>
</g>
<!-- Node74&#45;&gt;Node76 -->
<g id="edge31" class="edge"><title>Node74&#45;&gt;Node76</title>
<path fill="none" stroke="midnightblue" d="M109.211,-1606C95.0891,-1606 79.9287,-1606 67.2411,-1606"/>
<polygon fill="midnightblue" stroke="midnightblue" points="109.26,-1609.5 119.26,-1606 109.26,-1602.5 109.26,-1609.5"/>
</g>
<!-- Node170&#45;&gt;Node35 -->
<g id="edge33" class="edge"><title>Node170&#45;&gt;Node35</title>
<path fill="none" stroke="midnightblue" d="M261.992,-974.855C235.758,-990.133 195.679,-1013.47 173.394,-1026.45"/>
<polygon fill="midnightblue" stroke="midnightblue" points="264.092,-977.683 270.972,-969.625 260.569,-971.634 264.092,-977.683"/>
</g>
<!-- Node170&#45;&gt;Node39 -->
<g id="edge34" class="edge"><title>Node170&#45;&gt;Node39</title>
<path fill="none" stroke="midnightblue" d="M233.116,-967.918C220.773,-969.715 207.897,-971.59 196.32,-973.275"/>
<polygon fill="midnightblue" stroke="midnightblue" points="233.927,-971.337 243.319,-966.433 232.919,-964.41 233.927,-971.337"/>
</g>
<!-- Node170&#45;&gt;Node53 -->
<g id="edge35" class="edge"><title>Node170&#45;&gt;Node53</title>
<path fill="none" stroke="midnightblue" d="M234.633,-948.252C218.663,-944.703 201.666,-940.926 187.66,-937.813"/>
<polygon fill="midnightblue" stroke="midnightblue" points="233.887,-951.671 244.408,-950.424 235.405,-944.838 233.887,-951.671"/>
</g>
<!-- Node170&#45;&gt;Node179 -->
<g id="edge36" class="edge"><title>Node170&#45;&gt;Node179</title>
<path fill="none" stroke="midnightblue" d="M261.992,-945.145C235.758,-929.867 195.679,-906.526 173.394,-893.547"/>
<polygon fill="midnightblue" stroke="midnightblue" points="260.569,-948.366 270.972,-950.375 264.092,-942.317 260.569,-948.366"/>
</g>
<!-- Node170&#45;&gt;Node103 -->
<g id="edge37" class="edge"><title>Node170&#45;&gt;Node103</title>
<path fill="none" stroke="midnightblue" d="M273.149,-942.669C256.678,-923.114 228.514,-890.69 202,-865 191.425,-854.754 178.509,-844.011 169.231,-836.572"/>
<polygon fill="midnightblue" stroke="midnightblue" points="270.549,-945.015 279.65,-950.44 275.919,-940.524 270.549,-945.015"/>
</g>
<!-- Node181&#45;&gt;Node179 -->
<g id="edge40" class="edge"><title>Node181&#45;&gt;Node179</title>
<path fill="none" stroke="midnightblue" d="M252.007,-856.335C230.604,-862.567 203.765,-870.383 184.077,-876.116"/>
<polygon fill="midnightblue" stroke="midnightblue" points="253.095,-859.664 261.717,-853.508 251.138,-852.943 253.095,-859.664"/>
</g>
<!-- Node188&#45;&gt;Node76 -->
<g id="edge43" class="edge"><title>Node188&#45;&gt;Node76</title>
<path fill="none" stroke="midnightblue" d="M134.993,-1527.24C110.505,-1547.13 69.8361,-1580.15 49.8404,-1596.39"/>
<polygon fill="midnightblue" stroke="midnightblue" points="137.363,-1529.83 142.92,-1520.81 132.95,-1524.4 137.363,-1529.83"/>
</g>
<!-- Node188&#45;&gt;Node78 -->
<g id="edge42" class="edge"><title>Node188&#45;&gt;Node78</title>
<path fill="none" stroke="midnightblue" d="M99.8374,-1502.04C86.7414,-1499.92 73.4217,-1497.75 62.5148,-1495.98"/>
<polygon fill="midnightblue" stroke="midnightblue" points="99.333,-1505.51 109.765,-1503.65 100.455,-1498.6 99.333,-1505.51"/>
</g>
<!-- Node202&#45;&gt;Node3 -->
<g id="edge45" class="edge"><title>Node202&#45;&gt;Node3</title>
<path fill="none" stroke="midnightblue" d="M244.872,-1694.41C222.328,-1700.98 195.672,-1708.74 177.678,-1713.98"/>
<polygon fill="midnightblue" stroke="midnightblue" points="245.947,-1697.75 254.569,-1691.59 243.99,-1691.02 245.947,-1697.75"/>
</g>
<!-- Node202&#45;&gt;Node76 -->
<g id="edge46" class="edge"><title>Node202&#45;&gt;Node76</title>
<path fill="none" stroke="midnightblue" d="M240.762,-1681.84C204.024,-1680.28 152.186,-1674.85 110,-1658 85.0839,-1648.05 60.7759,-1627.6 47.76,-1615.53"/>
<polygon fill="midnightblue" stroke="midnightblue" points="241.062,-1685.36 251.176,-1682.2 241.301,-1678.36 241.062,-1685.36"/>
</g>
<!-- Node204&#45;&gt;Node11 -->
<g id="edge50" class="edge"><title>Node204&#45;&gt;Node11</title>
<path fill="none" stroke="midnightblue" d="M252.071,-1087.24C247.319,-1089.12 242.526,-1091.07 238,-1093 216.706,-1102.07 192.76,-1113.45 176.463,-1121.39"/>
<polygon fill="midnightblue" stroke="midnightblue" points="253.615,-1090.4 261.667,-1083.51 251.078,-1083.87 253.615,-1090.4"/>
</g>
<!-- Node212&#45;&gt;Node3 -->
<g id="edge58" class="edge"><title>Node212&#45;&gt;Node3</title>
<path fill="none" stroke="midnightblue" d="M244.872,-1745.59C222.328,-1739.02 195.672,-1731.26 177.678,-1726.02"/>
<polygon fill="midnightblue" stroke="midnightblue" points="243.99,-1748.98 254.569,-1748.41 245.947,-1742.25 243.99,-1748.98"/>
</g>
<!-- Node212&#45;&gt;Node4 -->
<g id="edge59" class="edge"><title>Node212&#45;&gt;Node4</title>
<path fill="none" stroke="midnightblue" d="M232.661,-1758C181.46,-1758 107.056,-1758 66.6741,-1758"/>
<polygon fill="midnightblue" stroke="midnightblue" points="232.894,-1761.5 242.894,-1758 232.894,-1754.5 232.894,-1761.5"/>
</g>
<!-- Node213&#45;&gt;Node188 -->
<g id="edge62" class="edge"><title>Node213&#45;&gt;Node188</title>
<path fill="none" stroke="midnightblue" d="M248.665,-1524.35C234.074,-1522.22 217.364,-1519.79 202.241,-1517.59"/>
<polygon fill="midnightblue" stroke="midnightblue" points="248.461,-1527.85 258.861,-1525.83 249.47,-1520.93 248.461,-1527.85"/>
</g>
<!-- Node220&#45;&gt;Node76 -->
<g id="edge64" class="edge"><title>Node220&#45;&gt;Node76</title>
<path fill="none" stroke="midnightblue" d="M115.882,-1580.7C99.9464,-1585.88 81.8468,-1591.76 67.1093,-1596.55"/>
<polygon fill="midnightblue" stroke="midnightblue" points="117.046,-1584.01 125.476,-1577.59 114.884,-1577.35 117.046,-1584.01"/>
</g>
</g>
</svg>
