<?xml version="1.0" encoding="UTF-8" standalone="no"?>
<!DOCTYPE svg PUBLIC "-//W3C//DTD SVG 1.1//EN"
 "http://www.w3.org/Graphics/SVG/1.1/DTD/svg11.dtd">
<!-- Generated by graphviz version 2.38.0 (20140413.2041)
 -->
<!-- Title: lua_next Pages: 1 -->
<svg width="1312pt" height="709pt"
 viewBox="0.00 0.00 1312.00 709.00" xmlns="http://www.w3.org/2000/svg" xmlns:xlink="http://www.w3.org/1999/xlink">
<g id="graph0" class="graph" transform="scale(1 1) rotate(0) translate(4 705)">
<title>lua_next</title>
<polygon fill="white" stroke="none" points="-4,4 -4,-705 1308,-705 1308,4 -4,4"/>
<!-- Node1 -->
<g id="node1" class="node"><title>Node1</title>
<g id="a_node1"><a xlink:title=" ">
<polygon fill="#bfbfbf" stroke="black" points="0,-273.5 0,-292.5 53,-292.5 53,-273.5 0,-273.5"/>
<text text-anchor="middle" x="26.5" y="-280.5" font-family="Helvetica,sans-Serif" font-size="10.00">lua_next</text>
</a>
</g>
</g>
<!-- Node2 -->
<g id="node2" class="node"><title>Node2</title>
<g id="a_node2"><a xlink:href="lapi_8c.html#ae54b9bb381b32c86235a084984e40215" target="_top" xlink:title=" ">
<polygon fill="white" stroke="black" points="89,-292.5 89,-311.5 153,-311.5 153,-292.5 89,-292.5"/>
<text text-anchor="middle" x="121" y="-299.5" font-family="Helvetica,sans-Serif" font-size="10.00">index2addr</text>
</a>
</g>
</g>
<!-- Node1&#45;&gt;Node2 -->
<g id="edge1" class="edge"><title>Node1&#45;&gt;Node2</title>
<path fill="none" stroke="midnightblue" d="M53.2664,-288.293C61.1814,-289.918 70.0994,-291.75 78.7783,-293.533"/>
<polygon fill="midnightblue" stroke="midnightblue" points="78.2827,-297.004 88.7825,-295.588 79.6912,-290.147 78.2827,-297.004"/>
</g>
<!-- Node3 -->
<g id="node3" class="node"><title>Node3</title>
<g id="a_node3"><a xlink:href="ltable_8c.html#a3c4370ade14fcc86ede5ca90271d0f30" target="_top" xlink:title=" ">
<polygon fill="white" stroke="black" points="91,-254.5 91,-273.5 151,-273.5 151,-254.5 91,-254.5"/>
<text text-anchor="middle" x="121" y="-261.5" font-family="Helvetica,sans-Serif" font-size="10.00">luaH_next</text>
</a>
</g>
</g>
<!-- Node1&#45;&gt;Node3 -->
<g id="edge2" class="edge"><title>Node1&#45;&gt;Node3</title>
<path fill="none" stroke="midnightblue" d="M53.2664,-277.707C61.8245,-275.95 71.5553,-273.951 80.8886,-272.034"/>
<polygon fill="midnightblue" stroke="midnightblue" points="81.6948,-275.441 90.786,-270.001 80.2863,-268.584 81.6948,-275.441"/>
</g>
<!-- Node4 -->
<g id="node4" class="node"><title>Node4</title>
<g id="a_node4"><a xlink:href="ltable_8c.html#afac29fc748fed24ad34a4779df7cc176" target="_top" xlink:title=" ">
<polygon fill="white" stroke="black" points="189,-254.5 189,-273.5 244,-273.5 244,-254.5 189,-254.5"/>
<text text-anchor="middle" x="216.5" y="-261.5" font-family="Helvetica,sans-Serif" font-size="10.00">findindex</text>
</a>
</g>
</g>
<!-- Node3&#45;&gt;Node4 -->
<g id="edge3" class="edge"><title>Node3&#45;&gt;Node4</title>
<path fill="none" stroke="midnightblue" d="M151.071,-264C159.874,-264 169.657,-264 178.887,-264"/>
<polygon fill="midnightblue" stroke="midnightblue" points="178.99,-267.5 188.99,-264 178.99,-260.5 178.99,-267.5"/>
</g>
<!-- Node5 -->
<g id="node5" class="node"><title>Node5</title>
<g id="a_node5"><a xlink:href="ltable_8c.html#abceda42498428941972c64b70d996d93" target="_top" xlink:title=" ">
<polygon fill="white" stroke="black" points="286.5,-292.5 286.5,-311.5 348.5,-311.5 348.5,-292.5 286.5,-292.5"/>
<text text-anchor="middle" x="317.5" y="-299.5" font-family="Helvetica,sans-Serif" font-size="10.00">arrayindex</text>
</a>
</g>
</g>
<!-- Node4&#45;&gt;Node5 -->
<g id="edge4" class="edge"><title>Node4&#45;&gt;Node5</title>
<path fill="none" stroke="midnightblue" d="M242.482,-273.589C254.441,-278.179 268.955,-283.75 281.951,-288.739"/>
<polygon fill="midnightblue" stroke="midnightblue" points="280.936,-292.098 291.526,-292.414 283.444,-285.563 280.936,-292.098"/>
</g>
<!-- Node6 -->
<g id="node6" class="node"><title>Node6</title>
<g id="a_node6"><a xlink:href="ldebug_8c.html#a88d38ca5da2e7a1492fc9d5ad70c32c5" target="_top" xlink:title=" ">
<polygon fill="white" stroke="black" points="280,-254.5 280,-273.5 355,-273.5 355,-254.5 280,-254.5"/>
<text text-anchor="middle" x="317.5" y="-261.5" font-family="Helvetica,sans-Serif" font-size="10.00">luaG_runerror</text>
</a>
</g>
</g>
<!-- Node4&#45;&gt;Node6 -->
<g id="edge5" class="edge"><title>Node4&#45;&gt;Node6</title>
<path fill="none" stroke="midnightblue" d="M244.03,-264C251.934,-264 260.842,-264 269.639,-264"/>
<polygon fill="midnightblue" stroke="midnightblue" points="269.847,-267.5 279.847,-264 269.847,-260.5 269.847,-267.5"/>
</g>
<!-- Node67 -->
<g id="node48" class="node"><title>Node67</title>
<g id="a_node48"><a xlink:href="ltable_8c.html#a598108bce7f1fdba262aae74191caeec" target="_top" xlink:title=" ">
<polygon fill="white" stroke="black" points="282,-26.5 282,-45.5 353,-45.5 353,-26.5 282,-26.5"/>
<text text-anchor="middle" x="317.5" y="-33.5" font-family="Helvetica,sans-Serif" font-size="10.00">mainposition</text>
</a>
</g>
</g>
<!-- Node4&#45;&gt;Node67 -->
<g id="edge70" class="edge"><title>Node4&#45;&gt;Node67</title>
<path fill="none" stroke="midnightblue" d="M221.628,-254.493C236.597,-220.018 288.206,-101.162 308.353,-54.7634"/>
<polygon fill="midnightblue" stroke="midnightblue" points="311.582,-56.1138 312.355,-45.5472 305.161,-53.3258 311.582,-56.1138"/>
</g>
<!-- Node7 -->
<g id="node7" class="node"><title>Node7</title>
<g id="a_node7"><a xlink:href="ldebug_8c.html#a9834508872dae133075c7efe6404a9d8" target="_top" xlink:title=" ">
<polygon fill="white" stroke="black" points="400,-64.5 400,-83.5 462,-83.5 462,-64.5 400,-64.5"/>
<text text-anchor="middle" x="431" y="-71.5" font-family="Helvetica,sans-Serif" font-size="10.00">currentline</text>
</a>
</g>
</g>
<!-- Node6&#45;&gt;Node7 -->
<g id="edge6" class="edge"><title>Node6&#45;&gt;Node7</title>
<path fill="none" stroke="midnightblue" d="M320.574,-254.285C326.846,-226.858 347.886,-147.61 391,-98 393.816,-94.7596 397.179,-91.8184 400.734,-89.1943"/>
<polygon fill="midnightblue" stroke="midnightblue" points="402.752,-92.0568 409.207,-83.6554 398.921,-86.1977 402.752,-92.0568"/>
</g>
<!-- Node9 -->
<g id="node9" class="node"><title>Node9</title>
<g id="a_node9"><a xlink:href="ldebug_8c.html#a7e1dc7518150bf19bd9aa5dda166a2eb" target="_top" xlink:title=" ">
<polygon fill="white" stroke="black" points="394.5,-207.5 394.5,-226.5 467.5,-226.5 467.5,-207.5 394.5,-207.5"/>
<text text-anchor="middle" x="431" y="-214.5" font-family="Helvetica,sans-Serif" font-size="10.00">luaG_addinfo</text>
</a>
</g>
</g>
<!-- Node6&#45;&gt;Node9 -->
<g id="edge8" class="edge"><title>Node6&#45;&gt;Node9</title>
<path fill="none" stroke="midnightblue" d="M341.064,-254.489C357.354,-247.622 379.587,-238.25 397.748,-230.595"/>
<polygon fill="midnightblue" stroke="midnightblue" points="399.232,-233.768 407.087,-226.658 396.513,-227.317 399.232,-233.768"/>
</g>
<!-- Node12 -->
<g id="node12" class="node"><title>Node12</title>
<g id="a_node12"><a xlink:href="lobject_8c.html#aa83fa444a36d79521e846a766fa083d5" target="_top" xlink:title=" ">
<polygon fill="white" stroke="black" points="632,-187.5 632,-206.5 725,-206.5 725,-187.5 632,-187.5"/>
<text text-anchor="middle" x="678.5" y="-194.5" font-family="Helvetica,sans-Serif" font-size="10.00">luaO_pushvfstring</text>
</a>
</g>
</g>
<!-- Node6&#45;&gt;Node12 -->
<g id="edge69" class="edge"><title>Node6&#45;&gt;Node12</title>
<path fill="none" stroke="midnightblue" d="M355.162,-258.414C408.98,-254.818 512.079,-250.537 596,-227 610.098,-223.046 624.75,-216.79 637.679,-210.874"/>
<polygon fill="midnightblue" stroke="midnightblue" points="639.157,-214.046 646.755,-206.663 636.211,-207.696 639.157,-214.046"/>
</g>
<!-- Node116 -->
<g id="node30" class="node"><title>Node116</title>
<g id="a_node30"><a xlink:href="ldebug_8c.html#af7366920f8408bb33ed01b1d6c0e1238" target="_top" xlink:title=" ">
<polygon fill="white" stroke="black" points="391,-444.5 391,-463.5 471,-463.5 471,-444.5 391,-444.5"/>
<text text-anchor="middle" x="431" y="-451.5" font-family="Helvetica,sans-Serif" font-size="10.00">luaG_errormsg</text>
</a>
</g>
</g>
<!-- Node6&#45;&gt;Node116 -->
<g id="edge39" class="edge"><title>Node6&#45;&gt;Node116</title>
<path fill="none" stroke="midnightblue" d="M343.685,-273.591C347.924,-276.123 351.936,-279.23 355,-283 392.274,-328.858 362.388,-359.292 391,-411 396.304,-420.584 404.134,-429.781 411.389,-437.192"/>
<polygon fill="midnightblue" stroke="midnightblue" points="409.274,-440.017 418.889,-444.467 414.147,-434.992 409.274,-440.017"/>
</g>
<!-- Node8 -->
<g id="node8" class="node"><title>Node8</title>
<g id="a_node8"><a xlink:href="ldebug_8c.html#a7db2a3f5cbcf0ac3ef6d4cfa15ab4dbc" target="_top" xlink:title=" ">
<polygon fill="white" stroke="black" points="523,-64.5 523,-83.5 580,-83.5 580,-64.5 523,-64.5"/>
<text text-anchor="middle" x="551.5" y="-71.5" font-family="Helvetica,sans-Serif" font-size="10.00">currentpc</text>
</a>
</g>
</g>
<!-- Node7&#45;&gt;Node8 -->
<g id="edge7" class="edge"><title>Node7&#45;&gt;Node8</title>
<path fill="none" stroke="midnightblue" d="M462.209,-74C477.509,-74 496.242,-74 512.509,-74"/>
<polygon fill="midnightblue" stroke="midnightblue" points="512.783,-77.5001 522.782,-74 512.782,-70.5001 512.783,-77.5001"/>
</g>
<!-- Node10 -->
<g id="node10" class="node"><title>Node10</title>
<g id="a_node10"><a xlink:href="lobject_8c.html#a4708cca3615b7fafb7ea4631f486983b" target="_top" xlink:title=" ">
<polygon fill="white" stroke="black" points="513.5,-207.5 513.5,-226.5 589.5,-226.5 589.5,-207.5 513.5,-207.5"/>
<text text-anchor="middle" x="551.5" y="-214.5" font-family="Helvetica,sans-Serif" font-size="10.00">luaO_chunkid</text>
</a>
</g>
</g>
<!-- Node9&#45;&gt;Node10 -->
<g id="edge9" class="edge"><title>Node9&#45;&gt;Node10</title>
<path fill="none" stroke="midnightblue" d="M467.554,-217C478.732,-217 491.258,-217 503.121,-217"/>
<polygon fill="midnightblue" stroke="midnightblue" points="503.326,-220.5 513.326,-217 503.326,-213.5 503.326,-220.5"/>
</g>
<!-- Node11 -->
<g id="node11" class="node"><title>Node11</title>
<g id="a_node11"><a xlink:href="lobject_8c.html#a8e224db7123c74d695076a96d1bfda61" target="_top" xlink:title=" ">
<polygon fill="white" stroke="black" points="507,-169.5 507,-188.5 596,-188.5 596,-169.5 507,-169.5"/>
<text text-anchor="middle" x="551.5" y="-176.5" font-family="Helvetica,sans-Serif" font-size="10.00">luaO_pushfstring</text>
</a>
</g>
</g>
<!-- Node9&#45;&gt;Node11 -->
<g id="edge10" class="edge"><title>Node9&#45;&gt;Node11</title>
<path fill="none" stroke="midnightblue" d="M461.903,-207.411C476.779,-202.641 494.957,-196.811 510.967,-191.677"/>
<polygon fill="midnightblue" stroke="midnightblue" points="512.153,-194.972 520.607,-188.586 510.016,-188.307 512.153,-194.972"/>
</g>
<!-- Node11&#45;&gt;Node12 -->
<g id="edge11" class="edge"><title>Node11&#45;&gt;Node12</title>
<path fill="none" stroke="midnightblue" d="M596.219,-178.824C610.693,-180.467 626.649,-182.848 640.563,-185.46"/>
<polygon fill="midnightblue" stroke="midnightblue" points="640.255,-188.968 650.747,-187.495 641.626,-182.103 640.255,-188.968"/>
</g>
<!-- Node12&#45;&gt;Node6 -->
<g id="edge13" class="edge"><title>Node12&#45;&gt;Node6</title>
<path fill="none" stroke="midnightblue" d="M670.203,-206.772C656.343,-218.996 624.998,-236.867 596,-245 517.16,-267.112 421.395,-272.229 365.464,-270.561"/>
<polygon fill="midnightblue" stroke="midnightblue" points="365.291,-267.052 355.162,-270.157 365.017,-274.046 365.291,-267.052"/>
</g>
<!-- Node12&#45;&gt;Node11 -->
<g id="edge14" class="edge"><title>Node12&#45;&gt;Node11</title>
<path fill="none" stroke="midnightblue" d="M631.54,-196.917C617.677,-195.289 602.645,-193.019 589.448,-190.542"/>
<polygon fill="midnightblue" stroke="midnightblue" points="589.807,-187.045 579.316,-188.519 588.437,-193.909 589.807,-187.045"/>
</g>
<!-- Node13 -->
<g id="node13" class="node"><title>Node13</title>
<g id="a_node13"><a xlink:href="ldo_8c.html#a4dd006aa3210fdc854d0441e2a98c9af" target="_top" xlink:title=" ">
<polygon fill="white" stroke="black" points="874.5,-187.5 874.5,-206.5 942.5,-206.5 942.5,-187.5 874.5,-187.5"/>
<text text-anchor="middle" x="908.5" y="-194.5" font-family="Helvetica,sans-Serif" font-size="10.00">luaD_inctop</text>
</a>
</g>
</g>
<!-- Node12&#45;&gt;Node13 -->
<g id="edge12" class="edge"><title>Node12&#45;&gt;Node13</title>
<path fill="none" stroke="midnightblue" d="M688.946,-206.619C703.107,-220.276 731.356,-244.662 761,-254 793.217,-264.148 805.971,-267.347 837,-254 858.371,-244.808 854.591,-230.225 873,-216 874.802,-214.607 876.72,-213.255 878.692,-211.957"/>
<polygon fill="midnightblue" stroke="midnightblue" points="880.742,-214.808 887.5,-206.649 877.129,-208.812 880.742,-214.808"/>
</g>
<!-- Node14 -->
<g id="node14" class="node"><title>Node14</title>
<g id="a_node14"><a xlink:href="lobject_8c.html#a00c5c37438b02ff7efcf8e8dfa98da7c" target="_top" xlink:title=" ">
<polygon fill="white" stroke="black" points="762,-111.5 762,-130.5 836,-130.5 836,-111.5 762,-111.5"/>
<text text-anchor="middle" x="799" y="-118.5" font-family="Helvetica,sans-Serif" font-size="10.00">luaO_tostring</text>
</a>
</g>
</g>
<!-- Node12&#45;&gt;Node14 -->
<g id="edge15" class="edge"><title>Node12&#45;&gt;Node14</title>
<path fill="none" stroke="midnightblue" d="M692.124,-187.361C707.843,-175.553 735.711,-155.24 761,-140 763.636,-138.411 766.42,-136.825 769.23,-135.284"/>
<polygon fill="midnightblue" stroke="midnightblue" points="770.939,-138.34 778.142,-130.571 767.666,-132.152 770.939,-138.34"/>
</g>
<!-- Node23 -->
<g id="node21" class="node"><title>Node23</title>
<g id="a_node21"><a xlink:href="lobject_8c.html#af3136de4693789b08f78aafda9604676" target="_top" xlink:title=" ">
<polygon fill="white" stroke="black" points="762,-225.5 762,-244.5 836,-244.5 836,-225.5 762,-225.5"/>
<text text-anchor="middle" x="799" y="-232.5" font-family="Helvetica,sans-Serif" font-size="10.00">luaO_utf8esc</text>
</a>
</g>
</g>
<!-- Node12&#45;&gt;Node23 -->
<g id="edge24" class="edge"><title>Node12&#45;&gt;Node23</title>
<path fill="none" stroke="midnightblue" d="M709.403,-206.589C724.279,-211.359 742.457,-217.189 758.467,-222.323"/>
<polygon fill="midnightblue" stroke="midnightblue" points="757.516,-225.693 768.107,-225.414 759.653,-219.028 757.516,-225.693"/>
</g>
<!-- Node24 -->
<g id="node22" class="node"><title>Node24</title>
<g id="a_node22"><a xlink:href="lvm_8c.html#a2f076040af405dcb50d661edd692eca7" target="_top" xlink:title=" ">
<polygon fill="white" stroke="black" points="873,-225.5 873,-244.5 944,-244.5 944,-225.5 873,-225.5"/>
<text text-anchor="middle" x="908.5" y="-232.5" font-family="Helvetica,sans-Serif" font-size="10.00">luaV_concat</text>
</a>
</g>
</g>
<!-- Node12&#45;&gt;Node24 -->
<g id="edge25" class="edge"><title>Node12&#45;&gt;Node24</title>
<path fill="none" stroke="midnightblue" d="M725.258,-200.774C756.835,-203.805 799.688,-208.76 837,-216 846.413,-217.826 856.418,-220.232 865.844,-222.716"/>
<polygon fill="midnightblue" stroke="midnightblue" points="865.221,-226.173 875.789,-225.417 867.056,-219.418 865.221,-226.173"/>
</g>
<!-- Node115 -->
<g id="node29" class="node"><title>Node115</title>
<g id="a_node29"><a xlink:href="lobject_8c.html#aa65db03553a5abd73e466d307bb17a37" target="_top" xlink:title=" ">
<polygon fill="white" stroke="black" points="774.5,-149.5 774.5,-168.5 823.5,-168.5 823.5,-149.5 774.5,-149.5"/>
<text text-anchor="middle" x="799" y="-156.5" font-family="Helvetica,sans-Serif" font-size="10.00">pushstr</text>
</a>
</g>
</g>
<!-- Node12&#45;&gt;Node115 -->
<g id="edge36" class="edge"><title>Node12&#45;&gt;Node115</title>
<path fill="none" stroke="midnightblue" d="M709.403,-187.411C726.253,-182.007 747.341,-175.245 764.715,-169.674"/>
<polygon fill="midnightblue" stroke="midnightblue" points="766.002,-172.937 774.455,-166.55 763.864,-166.271 766.002,-172.937"/>
</g>
<!-- Node15 -->
<g id="node15" class="node"><title>Node15</title>
<g id="a_node15"><a xlink:href="lstring_8c.html#ab41fb084ce3ea5e2779f6659ccc2484d" target="_top" xlink:title=" ">
<polygon fill="white" stroke="black" points="983.5,-120.5 983.5,-139.5 1055.5,-139.5 1055.5,-120.5 983.5,-120.5"/>
<text text-anchor="middle" x="1019.5" y="-127.5" font-family="Helvetica,sans-Serif" font-size="10.00">luaS_newlstr</text>
</a>
</g>
</g>
<!-- Node14&#45;&gt;Node15 -->
<g id="edge16" class="edge"><title>Node14&#45;&gt;Node15</title>
<path fill="none" stroke="midnightblue" d="M836.081,-122.486C873.658,-124.034 932.609,-126.462 973.273,-128.137"/>
<polygon fill="midnightblue" stroke="midnightblue" points="973.315,-131.642 983.451,-128.556 973.604,-124.648 973.315,-131.642"/>
</g>
<!-- Node16 -->
<g id="node16" class="node"><title>Node16</title>
<g id="a_node16"><a xlink:href="lstring_8c.html#a9b2c32c59a280de24f20df1c7f0433a1" target="_top" xlink:title=" ">
<polygon fill="white" stroke="red" points="1115,-120.5 1115,-139.5 1180,-139.5 1180,-120.5 1115,-120.5"/>
<text text-anchor="middle" x="1147.5" y="-127.5" font-family="Helvetica,sans-Serif" font-size="10.00">internshrstr</text>
</a>
</g>
</g>
<!-- Node15&#45;&gt;Node16 -->
<g id="edge17" class="edge"><title>Node15&#45;&gt;Node16</title>
<path fill="none" stroke="midnightblue" d="M1055.6,-130C1070.77,-130 1088.65,-130 1104.52,-130"/>
<polygon fill="midnightblue" stroke="midnightblue" points="1104.61,-133.5 1114.61,-130 1104.61,-126.5 1104.61,-133.5"/>
</g>
<!-- Node21 -->
<g id="node19" class="node"><title>Node21</title>
<g id="a_node19"><a xlink:href="lmem_8c.html#a8fc7df43dd830ccbe7581fd53f65bdbe" target="_top" xlink:title=" ">
<polygon fill="white" stroke="black" points="1113,-73.5 1113,-92.5 1182,-92.5 1182,-73.5 1113,-73.5"/>
<text text-anchor="middle" x="1147.5" y="-80.5" font-family="Helvetica,sans-Serif" font-size="10.00">luaM_toobig</text>
</a>
</g>
</g>
<!-- Node15&#45;&gt;Node21 -->
<g id="edge20" class="edge"><title>Node15&#45;&gt;Node21</title>
<path fill="none" stroke="midnightblue" d="M1046,-120.489C1064.75,-113.496 1090.46,-103.904 1111.18,-96.1735"/>
<polygon fill="midnightblue" stroke="midnightblue" points="1112.46,-99.4326 1120.61,-92.6583 1110.01,-92.874 1112.46,-99.4326"/>
</g>
<!-- Node22 -->
<g id="node20" class="node"><title>Node22</title>
<g id="a_node20"><a xlink:href="lstring_8c.html#a8790c7d6e706f935dd6e9eefd068921c" target="_top" xlink:title=" ">
<polygon fill="white" stroke="black" points="1095,-158.5 1095,-177.5 1200,-177.5 1200,-158.5 1095,-158.5"/>
<text text-anchor="middle" x="1147.5" y="-165.5" font-family="Helvetica,sans-Serif" font-size="10.00">luaS_createlngstrobj</text>
</a>
</g>
</g>
<!-- Node15&#45;&gt;Node22 -->
<g id="edge22" class="edge"><title>Node15&#45;&gt;Node22</title>
<path fill="none" stroke="midnightblue" d="M1052.3,-139.589C1068.26,-144.404 1087.81,-150.299 1104.95,-155.468"/>
<polygon fill="midnightblue" stroke="midnightblue" points="1104.13,-158.878 1114.72,-158.414 1106.15,-152.176 1104.13,-158.878"/>
</g>
<!-- Node17 -->
<g id="node17" class="node"><title>Node17</title>
<g id="a_node17"><a xlink:href="lstring_8c.html#a85a1a917ef263701e47c36e68011d917" target="_top" xlink:title=" ">
<polygon fill="white" stroke="red" points="1236,-139.5 1236,-158.5 1304,-158.5 1304,-139.5 1236,-139.5"/>
<text text-anchor="middle" x="1270" y="-146.5" font-family="Helvetica,sans-Serif" font-size="10.00">createstrobj</text>
</a>
</g>
</g>
<!-- Node16&#45;&gt;Node17 -->
<g id="edge18" class="edge"><title>Node16&#45;&gt;Node17</title>
<path fill="none" stroke="midnightblue" d="M1180.16,-134.992C1194.1,-137.19 1210.69,-139.806 1225.75,-142.18"/>
<polygon fill="midnightblue" stroke="midnightblue" points="1225.45,-145.676 1235.87,-143.776 1226.54,-138.761 1225.45,-145.676"/>
</g>
<!-- Node19 -->
<g id="node18" class="node"><title>Node19</title>
<g id="a_node18"><a xlink:href="lstring_8c.html#ac453c0e85b7bb4e9b146fc140b1b7c9e" target="_top" xlink:title=" ">
<polygon fill="white" stroke="black" points="1239,-71.5 1239,-90.5 1301,-90.5 1301,-71.5 1239,-71.5"/>
<text text-anchor="middle" x="1270" y="-78.5" font-family="Helvetica,sans-Serif" font-size="10.00">luaS_hash</text>
</a>
</g>
</g>
<!-- Node16&#45;&gt;Node19 -->
<g id="edge19" class="edge"><title>Node16&#45;&gt;Node19</title>
<path fill="none" stroke="midnightblue" d="M1172.02,-120.436C1190.27,-113.016 1215.78,-102.641 1236.06,-94.3948"/>
<polygon fill="midnightblue" stroke="midnightblue" points="1237.59,-97.549 1245.54,-90.5399 1234.96,-91.0646 1237.59,-97.549"/>
</g>
<!-- Node21&#45;&gt;Node6 -->
<g id="edge21" class="edge"><title>Node21&#45;&gt;Node6</title>
<path fill="none" stroke="midnightblue" d="M1112.8,-82.6838C1045.56,-82.4882 890.112,-84.2169 761,-102 646.288,-117.8 618.583,-129.054 507,-160 454.722,-174.498 437.876,-170.69 391,-198 368.663,-211.013 347.313,-231.815 333.64,-246.585"/>
<polygon fill="midnightblue" stroke="midnightblue" points="330.976,-244.312 326.876,-254.081 336.173,-249.001 330.976,-244.312"/>
</g>
<!-- Node22&#45;&gt;Node17 -->
<g id="edge23" class="edge"><title>Node22&#45;&gt;Node17</title>
<path fill="none" stroke="midnightblue" d="M1200.3,-159.832C1208.73,-158.502 1217.39,-157.137 1225.6,-155.844"/>
<polygon fill="midnightblue" stroke="midnightblue" points="1226.36,-159.266 1235.69,-154.252 1225.27,-152.352 1226.36,-159.266"/>
</g>
<!-- Node24&#45;&gt;Node6 -->
<g id="edge27" class="edge"><title>Node24&#45;&gt;Node6</title>
<path fill="none" stroke="midnightblue" d="M892.047,-244.502C878.091,-252.741 856.771,-264.49 837,-272 769.586,-297.608 751.614,-311 679.5,-311 550.5,-311 550.5,-311 550.5,-311 480.964,-311 401.998,-290.468 356.444,-276.545"/>
<polygon fill="midnightblue" stroke="midnightblue" points="357.288,-273.142 346.7,-273.511 355.207,-279.826 357.288,-273.142"/>
</g>
<!-- Node24&#45;&gt;Node15 -->
<g id="edge29" class="edge"><title>Node24&#45;&gt;Node15</title>
<path fill="none" stroke="midnightblue" d="M930.601,-225.4C935.292,-222.734 940.041,-219.574 944,-216 964.865,-197.164 961.329,-185.012 980,-164 985.457,-157.859 991.972,-151.735 998.077,-146.411"/>
<polygon fill="midnightblue" stroke="midnightblue" points="1000.62,-148.842 1006.01,-139.72 996.11,-143.491 1000.62,-148.842"/>
</g>
<!-- Node24&#45;&gt;Node22 -->
<g id="edge28" class="edge"><title>Node24&#45;&gt;Node22</title>
<path fill="none" stroke="midnightblue" d="M943.205,-225.472C985.114,-213.624 1056.74,-193.376 1102.82,-180.349"/>
<polygon fill="midnightblue" stroke="midnightblue" points="1103.86,-183.692 1112.53,-177.604 1101.95,-176.956 1103.86,-183.692"/>
</g>
<!-- Node25 -->
<g id="node23" class="node"><title>Node25</title>
<g id="a_node23"><a xlink:href="lvm_8c.html#a7f03a9c23b77ec5cd280bb955ec430b8" target="_top" xlink:title=" ">
<polygon fill="white" stroke="black" points="990.5,-225.5 990.5,-244.5 1048.5,-244.5 1048.5,-225.5 990.5,-225.5"/>
<text text-anchor="middle" x="1019.5" y="-232.5" font-family="Helvetica,sans-Serif" font-size="10.00">copy2buff</text>
</a>
</g>
</g>
<!-- Node24&#45;&gt;Node25 -->
<g id="edge26" class="edge"><title>Node24&#45;&gt;Node25</title>
<path fill="none" stroke="midnightblue" d="M944.288,-235C955.641,-235 968.313,-235 979.927,-235"/>
<polygon fill="midnightblue" stroke="midnightblue" points="980.227,-238.5 990.227,-235 980.227,-231.5 980.227,-238.5"/>
</g>
<!-- Node26 -->
<g id="node24" class="node"><title>Node26</title>
<g id="a_node24"><a xlink:href="ltm_8c.html#a2adc638eccb971b8abaf27f60611e913" target="_top" xlink:title=" ">
<polygon fill="white" stroke="black" points="981,-301.5 981,-320.5 1058,-320.5 1058,-301.5 981,-301.5"/>
<text text-anchor="middle" x="1019.5" y="-308.5" font-family="Helvetica,sans-Serif" font-size="10.00">luaT_trybinTM</text>
</a>
</g>
</g>
<!-- Node24&#45;&gt;Node26 -->
<g id="edge30" class="edge"><title>Node24&#45;&gt;Node26</title>
<path fill="none" stroke="midnightblue" d="M923.305,-244.625C941.733,-257.474 974.582,-280.378 996.457,-295.63"/>
<polygon fill="midnightblue" stroke="midnightblue" points="994.602,-298.604 1004.81,-301.453 998.606,-292.862 994.602,-298.604"/>
</g>
<!-- Node27 -->
<g id="node25" class="node"><title>Node27</title>
<g id="a_node25"><a xlink:href="ldebug_8c.html#a04641ef359f3943a2ca88f52c3fe283c" target="_top" xlink:title=" ">
<polygon fill="white" stroke="red" points="1102,-301.5 1102,-320.5 1193,-320.5 1193,-301.5 1102,-301.5"/>
<text text-anchor="middle" x="1147.5" y="-308.5" font-family="Helvetica,sans-Serif" font-size="10.00">luaG_concaterror</text>
</a>
</g>
</g>
<!-- Node26&#45;&gt;Node27 -->
<g id="edge31" class="edge"><title>Node26&#45;&gt;Node27</title>
<path fill="none" stroke="midnightblue" d="M1058.3,-311C1068.74,-311 1080.28,-311 1091.47,-311"/>
<polygon fill="midnightblue" stroke="midnightblue" points="1091.62,-314.5 1101.62,-311 1091.62,-307.5 1091.62,-314.5"/>
</g>
<!-- Node41 -->
<g id="node26" class="node"><title>Node41</title>
<g id="a_node26"><a xlink:href="ldebug_8c.html#a5a3d4fd14bbb9329188c53a9548b7402" target="_top" xlink:title=" ">
<polygon fill="white" stroke="red" points="1106,-377.5 1106,-396.5 1189,-396.5 1189,-377.5 1106,-377.5"/>
<text text-anchor="middle" x="1147.5" y="-384.5" font-family="Helvetica,sans-Serif" font-size="10.00">luaG_opinterror</text>
</a>
</g>
</g>
<!-- Node26&#45;&gt;Node41 -->
<g id="edge32" class="edge"><title>Node26&#45;&gt;Node41</title>
<path fill="none" stroke="midnightblue" d="M1030.89,-320.592C1044.68,-332.912 1070.18,-354.333 1095,-368 1098.66,-370.017 1102.58,-371.9 1106.56,-373.637"/>
<polygon fill="midnightblue" stroke="midnightblue" points="1105.29,-376.898 1115.87,-377.416 1107.93,-370.412 1105.29,-376.898"/>
</g>
<!-- Node42 -->
<g id="node27" class="node"><title>Node42</title>
<g id="a_node27"><a xlink:href="ldebug_8c.html#ada97dce3c670f83e257a5b27299bf09b" target="_top" xlink:title=" ">
<polygon fill="white" stroke="red" points="1107.5,-263.5 1107.5,-282.5 1187.5,-282.5 1187.5,-263.5 1107.5,-263.5"/>
<text text-anchor="middle" x="1147.5" y="-270.5" font-family="Helvetica,sans-Serif" font-size="10.00">luaG_tointerror</text>
</a>
</g>
</g>
<!-- Node26&#45;&gt;Node42 -->
<g id="edge33" class="edge"><title>Node26&#45;&gt;Node42</title>
<path fill="none" stroke="midnightblue" d="M1052.3,-301.411C1068.26,-296.596 1087.81,-290.701 1104.95,-285.532"/>
<polygon fill="midnightblue" stroke="midnightblue" points="1106.15,-288.824 1114.72,-282.586 1104.13,-282.122 1106.15,-288.824"/>
</g>
<!-- Node43 -->
<g id="node28" class="node"><title>Node43</title>
<g id="a_node28"><a xlink:href="ltm_8c.html#a218e3b031d69a9888eb20da1927058c4" target="_top" xlink:title=" ">
<polygon fill="white" stroke="red" points="1107,-339.5 1107,-358.5 1188,-358.5 1188,-339.5 1107,-339.5"/>
<text text-anchor="middle" x="1147.5" y="-346.5" font-family="Helvetica,sans-Serif" font-size="10.00">luaT_callbinTM</text>
</a>
</g>
</g>
<!-- Node26&#45;&gt;Node43 -->
<g id="edge35" class="edge"><title>Node26&#45;&gt;Node43</title>
<path fill="none" stroke="midnightblue" d="M1052.3,-320.589C1068.26,-325.404 1087.81,-331.299 1104.95,-336.468"/>
<polygon fill="midnightblue" stroke="midnightblue" points="1104.13,-339.878 1114.72,-339.414 1106.15,-333.176 1104.13,-339.878"/>
</g>
<!-- Node42&#45;&gt;Node6 -->
<g id="edge34" class="edge"><title>Node42&#45;&gt;Node6</title>
<path fill="none" stroke="midnightblue" d="M1107.47,-277.373C1073.72,-281.173 1023.63,-286.86 980,-292 932.424,-297.605 920.196,-296.789 873,-305 786.11,-320.116 767.695,-349 679.5,-349 550.5,-349 550.5,-349 550.5,-349 477.416,-349 457.259,-339.838 391,-309 373.107,-300.672 371.798,-293.362 355,-283 352.492,-281.453 349.844,-279.911 347.168,-278.413"/>
<polygon fill="midnightblue" stroke="midnightblue" points="348.578,-275.198 338.113,-273.544 345.263,-281.363 348.578,-275.198"/>
</g>
<!-- Node115&#45;&gt;Node13 -->
<g id="edge37" class="edge"><title>Node115&#45;&gt;Node13</title>
<path fill="none" stroke="midnightblue" d="M823.591,-167.339C837.513,-172.26 855.426,-178.592 871.123,-184.141"/>
<polygon fill="midnightblue" stroke="midnightblue" points="869.96,-187.442 880.555,-187.475 872.293,-180.843 869.96,-187.442"/>
</g>
<!-- Node115&#45;&gt;Node15 -->
<g id="edge38" class="edge"><title>Node115&#45;&gt;Node15</title>
<path fill="none" stroke="midnightblue" d="M823.799,-155.841C859.509,-151.102 927.6,-142.065 973.037,-136.034"/>
<polygon fill="midnightblue" stroke="midnightblue" points="973.763,-139.468 983.216,-134.683 972.842,-132.529 973.763,-139.468"/>
</g>
<!-- Node114 -->
<g id="node31" class="node"><title>Node114</title>
<g id="a_node31"><a xlink:href="ldo_8c.html#a61c0a0185ef5ae1493dad10027f4db7e" target="_top" xlink:title=" ">
<polygon fill="white" stroke="black" points="508,-444.5 508,-463.5 595,-463.5 595,-444.5 508,-444.5"/>
<text text-anchor="middle" x="551.5" y="-451.5" font-family="Helvetica,sans-Serif" font-size="10.00">luaD_callnoyield</text>
</a>
</g>
</g>
<!-- Node116&#45;&gt;Node114 -->
<g id="edge40" class="edge"><title>Node116&#45;&gt;Node114</title>
<path fill="none" stroke="midnightblue" d="M471.13,-454C479.561,-454 488.609,-454 497.469,-454"/>
<polygon fill="midnightblue" stroke="midnightblue" points="497.736,-457.5 507.736,-454 497.736,-450.5 497.736,-457.5"/>
</g>
<!-- Node76 -->
<g id="node46" class="node"><title>Node76</title>
<g id="a_node46"><a xlink:href="ldo_8c.html#a2b46d9db5b9ca3d5402a0c2ac640a6b0" target="_top" xlink:title=" ">
<polygon fill="white" stroke="black" points="876,-623.5 876,-642.5 941,-642.5 941,-623.5 876,-623.5"/>
<text text-anchor="middle" x="908.5" y="-630.5" font-family="Helvetica,sans-Serif" font-size="10.00">luaD_throw</text>
</a>
</g>
</g>
<!-- Node116&#45;&gt;Node76 -->
<g id="edge68" class="edge"><title>Node116&#45;&gt;Node76</title>
<path fill="none" stroke="midnightblue" d="M466.551,-463.573C479.208,-466.863 493.69,-470.374 507,-473 579.672,-487.338 779.09,-473.812 837,-520 871.975,-547.895 843.617,-580.266 873,-614 874.011,-615.16 875.11,-616.263 876.275,-617.31"/>
<polygon fill="midnightblue" stroke="midnightblue" points="874.519,-620.361 884.663,-623.417 878.639,-614.702 874.519,-620.361"/>
</g>
<!-- Node45 -->
<g id="node32" class="node"><title>Node45</title>
<g id="a_node32"><a xlink:href="ldo_8c.html#a5483fddd87ca999e7d037bf397ab7997" target="_top" xlink:title=" ">
<polygon fill="white" stroke="black" points="650.5,-444.5 650.5,-463.5 706.5,-463.5 706.5,-444.5 650.5,-444.5"/>
<text text-anchor="middle" x="678.5" y="-451.5" font-family="Helvetica,sans-Serif" font-size="10.00">luaD_call</text>
</a>
</g>
</g>
<!-- Node114&#45;&gt;Node45 -->
<g id="edge41" class="edge"><title>Node114&#45;&gt;Node45</title>
<path fill="none" stroke="midnightblue" d="M595.168,-454C609.709,-454 625.847,-454 639.956,-454"/>
<polygon fill="midnightblue" stroke="midnightblue" points="640.289,-457.5 650.289,-454 640.289,-450.5 640.289,-457.5"/>
</g>
<!-- Node46 -->
<g id="node33" class="node"><title>Node46</title>
<g id="a_node33"><a xlink:href="ldo_8c.html#a457e0f1c2e2f960d4132af6899f52488" target="_top" xlink:title=" ">
<polygon fill="white" stroke="black" points="873.5,-567.5 873.5,-586.5 943.5,-586.5 943.5,-567.5 873.5,-567.5"/>
<text text-anchor="middle" x="908.5" y="-574.5" font-family="Helvetica,sans-Serif" font-size="10.00">luaD_precall</text>
</a>
</g>
</g>
<!-- Node45&#45;&gt;Node46 -->
<g id="edge42" class="edge"><title>Node45&#45;&gt;Node46</title>
<path fill="none" stroke="midnightblue" d="M706.603,-453.753C739.96,-454.7 797.078,-460.507 837,-487 860.421,-502.543 855.515,-516.991 873,-539 878.612,-546.064 885.182,-553.485 891.073,-559.874"/>
<polygon fill="midnightblue" stroke="midnightblue" points="888.657,-562.414 898.051,-567.313 893.762,-557.625 888.657,-562.414"/>
</g>
<!-- Node54 -->
<g id="node39" class="node"><title>Node54</title>
<g id="a_node39"><a xlink:href="lvm_8c.html#ac2f06b04f1a3f67775bbccfe589ecb74" target="_top" xlink:title=" ">
<polygon fill="white" stroke="red" points="761,-415.5 761,-434.5 837,-434.5 837,-415.5 761,-415.5"/>
<text text-anchor="middle" x="799" y="-422.5" font-family="Helvetica,sans-Serif" font-size="10.00">luaV_execute</text>
</a>
</g>
</g>
<!-- Node45&#45;&gt;Node54 -->
<g id="edge51" class="edge"><title>Node45&#45;&gt;Node54</title>
<path fill="none" stroke="midnightblue" d="M697.756,-444.496C711.954,-439.565 732.312,-434.055 750.978,-429.887"/>
<polygon fill="midnightblue" stroke="midnightblue" points="751.784,-433.294 760.832,-427.781 750.322,-426.448 751.784,-433.294"/>
</g>
<!-- Node113 -->
<g id="node45" class="node"><title>Node113</title>
<g id="a_node45"><a xlink:href="ldo_8c.html#a2ca9990655e286c331473003cf0bebb1" target="_top" xlink:title=" ">
<polygon fill="white" stroke="black" points="769,-529.5 769,-548.5 829,-548.5 829,-529.5 769,-529.5"/>
<text text-anchor="middle" x="799" y="-536.5" font-family="Helvetica,sans-Serif" font-size="10.00">stackerror</text>
</a>
</g>
</g>
<!-- Node45&#45;&gt;Node113 -->
<g id="edge63" class="edge"><title>Node45&#45;&gt;Node113</title>
<path fill="none" stroke="midnightblue" d="M693.093,-463.751C713.452,-478.353 752.057,-506.045 776.331,-523.457"/>
<polygon fill="midnightblue" stroke="midnightblue" points="774.399,-526.379 784.565,-529.363 778.479,-520.69 774.399,-526.379"/>
</g>
<!-- Node46&#45;&gt;Node46 -->
<g id="edge49" class="edge"><title>Node46&#45;&gt;Node46</title>
<path fill="none" stroke="midnightblue" d="M891.854,-586.757C883.756,-595.565 889.305,-605 908.5,-605 920.497,-605 927.163,-601.315 928.499,-596.4"/>
<polygon fill="midnightblue" stroke="midnightblue" points="931.736,-595.053 925.146,-586.757 925.124,-597.352 931.736,-595.053"/>
</g>
<!-- Node47 -->
<g id="node34" class="node"><title>Node47</title>
<g id="a_node34"><a xlink:href="ldo_8c.html#a1851ef3d36678d781b30a079c397c300" target="_top" xlink:title=" ">
<polygon fill="white" stroke="black" points="980,-605.5 980,-624.5 1059,-624.5 1059,-605.5 980,-605.5"/>
<text text-anchor="middle" x="1019.5" y="-612.5" font-family="Helvetica,sans-Serif" font-size="10.00">adjust_varargs</text>
</a>
</g>
</g>
<!-- Node46&#45;&gt;Node47 -->
<g id="edge43" class="edge"><title>Node46&#45;&gt;Node47</title>
<path fill="none" stroke="midnightblue" d="M937.005,-586.589C950.431,-591.269 966.78,-596.969 981.301,-602.032"/>
<polygon fill="midnightblue" stroke="midnightblue" points="980.409,-605.427 991.003,-605.414 982.713,-598.817 980.409,-605.427"/>
</g>
<!-- Node48 -->
<g id="node35" class="node"><title>Node48</title>
<g id="a_node35"><a xlink:href="ldo_8c.html#a357a5e33e4ca8106aba1a348aab9eed2" target="_top" xlink:title=" ">
<polygon fill="white" stroke="black" points="993,-529.5 993,-548.5 1046,-548.5 1046,-529.5 993,-529.5"/>
<text text-anchor="middle" x="1019.5" y="-536.5" font-family="Helvetica,sans-Serif" font-size="10.00">callhook</text>
</a>
</g>
</g>
<!-- Node46&#45;&gt;Node48 -->
<g id="edge44" class="edge"><title>Node46&#45;&gt;Node48</title>
<path fill="none" stroke="midnightblue" d="M937.005,-567.411C951.077,-562.505 968.361,-556.48 983.385,-551.242"/>
<polygon fill="midnightblue" stroke="midnightblue" points="984.585,-554.53 992.875,-547.933 982.281,-547.92 984.585,-554.53"/>
</g>
<!-- Node49 -->
<g id="node36" class="node"><title>Node49</title>
<g id="a_node36"><a xlink:href="ldo_8c.html#a1307240b4568c46e58a37dff64f4a255" target="_top" xlink:title=" ">
<polygon fill="white" stroke="black" points="1116.5,-529.5 1116.5,-548.5 1178.5,-548.5 1178.5,-529.5 1116.5,-529.5"/>
<text text-anchor="middle" x="1147.5" y="-536.5" font-family="Helvetica,sans-Serif" font-size="10.00">luaD_hook</text>
</a>
</g>
</g>
<!-- Node46&#45;&gt;Node49 -->
<g id="edge46" class="edge"><title>Node46&#45;&gt;Node49</title>
<path fill="none" stroke="midnightblue" d="M943.768,-573.507C974.151,-570.204 1019.68,-564.755 1059,-558 1074.56,-555.327 1091.55,-551.785 1106.38,-548.483"/>
<polygon fill="midnightblue" stroke="midnightblue" points="1107.27,-551.869 1116.26,-546.25 1105.73,-545.041 1107.27,-551.869"/>
</g>
<!-- Node50 -->
<g id="node37" class="node"><title>Node50</title>
<g id="a_node37"><a xlink:href="ldo_8c.html#a43b2bc73f8881b1bcb5f650395f35522" target="_top" xlink:title=" ">
<polygon fill="white" stroke="red" points="983.5,-491.5 983.5,-510.5 1055.5,-510.5 1055.5,-491.5 983.5,-491.5"/>
<text text-anchor="middle" x="1019.5" y="-498.5" font-family="Helvetica,sans-Serif" font-size="10.00">luaD_poscall</text>
</a>
</g>
</g>
<!-- Node46&#45;&gt;Node50 -->
<g id="edge47" class="edge"><title>Node46&#45;&gt;Node50</title>
<path fill="none" stroke="midnightblue" d="M924.25,-567.379C930.482,-563.151 937.733,-558.015 944,-553 960.947,-539.439 962.088,-532.259 980,-520 982.364,-518.382 984.887,-516.821 987.466,-515.337"/>
<polygon fill="midnightblue" stroke="midnightblue" points="989.137,-518.413 996.31,-510.616 985.84,-512.238 989.137,-518.413"/>
</g>
<!-- Node52 -->
<g id="node38" class="node"><title>Node52</title>
<g id="a_node38"><a xlink:href="ldo_8c.html#a47c0dbcf19b5c674e4204a3e69e17608" target="_top" xlink:title=" ">
<polygon fill="white" stroke="red" points="990,-643.5 990,-662.5 1049,-662.5 1049,-643.5 990,-643.5"/>
<text text-anchor="middle" x="1019.5" y="-650.5" font-family="Helvetica,sans-Serif" font-size="10.00">tryfuncTM</text>
</a>
</g>
</g>
<!-- Node46&#45;&gt;Node52 -->
<g id="edge50" class="edge"><title>Node46&#45;&gt;Node52</title>
<path fill="none" stroke="midnightblue" d="M919.924,-586.671C933.21,-598.695 957.196,-619.41 980,-634 982.472,-635.582 985.095,-637.126 987.763,-638.608"/>
<polygon fill="midnightblue" stroke="midnightblue" points="986.374,-641.831 996.857,-643.364 989.618,-635.628 986.374,-641.831"/>
</g>
<!-- Node48&#45;&gt;Node49 -->
<g id="edge45" class="edge"><title>Node48&#45;&gt;Node49</title>
<path fill="none" stroke="midnightblue" d="M1046.3,-539C1063.51,-539 1086.49,-539 1106.1,-539"/>
<polygon fill="midnightblue" stroke="midnightblue" points="1106.3,-542.5 1116.3,-539 1106.3,-535.5 1106.3,-542.5"/>
</g>
<!-- Node50&#45;&gt;Node49 -->
<g id="edge48" class="edge"><title>Node50&#45;&gt;Node49</title>
<path fill="none" stroke="midnightblue" d="M1052.3,-510.589C1068.75,-515.551 1089,-521.66 1106.51,-526.939"/>
<polygon fill="midnightblue" stroke="midnightblue" points="1105.87,-530.401 1116.45,-529.937 1107.89,-523.699 1105.87,-530.401"/>
</g>
<!-- Node54&#45;&gt;Node6 -->
<g id="edge58" class="edge"><title>Node54&#45;&gt;Node6</title>
<path fill="none" stroke="midnightblue" d="M760.976,-423.797C671.938,-420.219 448.915,-406.987 391,-363 359.95,-339.418 381.772,-311.346 355,-283 353.786,-281.715 352.465,-280.5 351.071,-279.355"/>
<polygon fill="midnightblue" stroke="midnightblue" points="352.731,-276.252 342.489,-273.541 348.805,-282.048 352.731,-276.252"/>
</g>
<!-- Node54&#45;&gt;Node24 -->
<g id="edge62" class="edge"><title>Node54&#45;&gt;Node24</title>
<path fill="none" stroke="midnightblue" d="M805.479,-415.317C822.439,-385.34 874.292,-293.693 896.841,-253.839"/>
<polygon fill="midnightblue" stroke="midnightblue" points="900.025,-255.319 901.903,-244.892 893.933,-251.872 900.025,-255.319"/>
</g>
<!-- Node54&#45;&gt;Node26 -->
<g id="edge61" class="edge"><title>Node54&#45;&gt;Node26</title>
<path fill="none" stroke="midnightblue" d="M806.153,-415.174C820.215,-393.049 854.887,-340.436 873,-330 902.42,-313.048 940.646,-308.598 970.534,-308.227"/>
<polygon fill="midnightblue" stroke="midnightblue" points="970.721,-311.727 980.729,-308.251 970.738,-304.727 970.721,-311.727"/>
</g>
<!-- Node54&#45;&gt;Node45 -->
<g id="edge54" class="edge"><title>Node54&#45;&gt;Node45</title>
<path fill="none" stroke="midnightblue" d="M779.422,-434.615C762.637,-440.417 737.435,-446.999 716.541,-451.245"/>
<polygon fill="midnightblue" stroke="midnightblue" points="715.852,-447.813 706.686,-453.128 717.166,-454.689 715.852,-447.813"/>
</g>
<!-- Node54&#45;&gt;Node46 -->
<g id="edge56" class="edge"><title>Node54&#45;&gt;Node46</title>
<path fill="none" stroke="midnightblue" d="M819.982,-434.624C826.132,-438.391 832.468,-443.213 837,-449 867.156,-487.511 843.472,-514.005 873,-553 875.293,-556.028 878.081,-558.818 881.066,-561.34"/>
<polygon fill="midnightblue" stroke="midnightblue" points="879.107,-564.244 889.229,-567.373 883.268,-558.614 879.107,-564.244"/>
</g>
<!-- Node54&#45;&gt;Node50 -->
<g id="edge55" class="edge"><title>Node54&#45;&gt;Node50</title>
<path fill="none" stroke="midnightblue" d="M818.771,-434.532C825.115,-438.399 831.881,-443.306 837,-449 860.655,-475.31 842.852,-501.484 873,-520 908.846,-542.015 958.986,-527.724 990.066,-514.804"/>
<polygon fill="midnightblue" stroke="midnightblue" points="991.683,-517.917 999.445,-510.705 988.88,-511.503 991.683,-517.917"/>
</g>
<!-- Node55 -->
<g id="node40" class="node"><title>Node55</title>
<g id="a_node40"><a xlink:href="lvm_8c.html#a5067d82b91193d8a032fdf9170e6eb42" target="_top" xlink:title=" ">
<polygon fill="white" stroke="red" points="886,-491.5 886,-510.5 931,-510.5 931,-491.5 886,-491.5"/>
<text text-anchor="middle" x="908.5" y="-498.5" font-family="Helvetica,sans-Serif" font-size="10.00">forlimit</text>
</a>
</g>
</g>
<!-- Node54&#45;&gt;Node55 -->
<g id="edge52" class="edge"><title>Node54&#45;&gt;Node55</title>
<path fill="none" stroke="midnightblue" d="M816.244,-434.715C822.854,-438.876 830.461,-443.939 837,-449 854.164,-462.285 855.368,-469.341 873,-482 874.895,-483.361 876.899,-484.697 878.947,-485.99"/>
<polygon fill="midnightblue" stroke="midnightblue" points="877.631,-489.276 888.024,-491.331 881.181,-483.243 877.631,-489.276"/>
</g>
<!-- Node63 -->
<g id="node41" class="node"><title>Node63</title>
<g id="a_node41"><a xlink:href="lvm_8c.html#a73d3c508b2a67ebfac739e46d8246ed1" target="_top" xlink:title=" ">
<polygon fill="white" stroke="black" points="877.5,-453.5 877.5,-472.5 939.5,-472.5 939.5,-453.5 877.5,-453.5"/>
<text text-anchor="middle" x="908.5" y="-460.5" font-family="Helvetica,sans-Serif" font-size="10.00">getcached</text>
</a>
</g>
</g>
<!-- Node54&#45;&gt;Node63 -->
<g id="edge53" class="edge"><title>Node54&#45;&gt;Node63</title>
<path fill="none" stroke="midnightblue" d="M827.127,-434.589C840.367,-439.269 856.492,-444.969 870.813,-450.032"/>
<polygon fill="midnightblue" stroke="midnightblue" points="869.787,-453.381 880.382,-453.414 872.12,-446.781 869.787,-453.381"/>
</g>
<!-- Node64 -->
<g id="node42" class="node"><title>Node64</title>
<g id="a_node42"><a xlink:href="lfunc_8c.html#ab50c76a12250379a898290f481de4ab6" target="_top" xlink:title=" ">
<polygon fill="white" stroke="black" points="876.5,-415.5 876.5,-434.5 940.5,-434.5 940.5,-415.5 876.5,-415.5"/>
<text text-anchor="middle" x="908.5" y="-422.5" font-family="Helvetica,sans-Serif" font-size="10.00">luaF_close</text>
</a>
</g>
</g>
<!-- Node54&#45;&gt;Node64 -->
<g id="edge57" class="edge"><title>Node54&#45;&gt;Node64</title>
<path fill="none" stroke="midnightblue" d="M837.297,-425C846.649,-425 856.736,-425 866.268,-425"/>
<polygon fill="midnightblue" stroke="midnightblue" points="866.331,-428.5 876.331,-425 866.331,-421.5 866.331,-428.5"/>
</g>
<!-- Node65 -->
<g id="node43" class="node"><title>Node65</title>
<g id="a_node43"><a xlink:href="ltable_8c.html#ae273e09d2342a84f5cdfa976c66f28c0" target="_top" xlink:title=" ">
<polygon fill="white" stroke="red" points="875.5,-377.5 875.5,-396.5 941.5,-396.5 941.5,-377.5 875.5,-377.5"/>
<text text-anchor="middle" x="908.5" y="-384.5" font-family="Helvetica,sans-Serif" font-size="10.00">luaH_getstr</text>
</a>
</g>
</g>
<!-- Node54&#45;&gt;Node65 -->
<g id="edge59" class="edge"><title>Node54&#45;&gt;Node65</title>
<path fill="none" stroke="midnightblue" d="M827.127,-415.411C840.367,-410.731 856.492,-405.031 870.813,-399.968"/>
<polygon fill="midnightblue" stroke="midnightblue" points="872.12,-403.219 880.382,-396.586 869.787,-396.619 872.12,-403.219"/>
</g>
<!-- Node70 -->
<g id="node44" class="node"><title>Node70</title>
<g id="a_node44"><a xlink:href="ltable_8c.html#a6c97fb2d6a020b0a6f852562fef93d97" target="_top" xlink:title=" ">
<polygon fill="white" stroke="red" points="879,-339.5 879,-358.5 938,-358.5 938,-339.5 879,-339.5"/>
<text text-anchor="middle" x="908.5" y="-346.5" font-family="Helvetica,sans-Serif" font-size="10.00">luaH_new</text>
</a>
</g>
</g>
<!-- Node54&#45;&gt;Node70 -->
<g id="edge60" class="edge"><title>Node54&#45;&gt;Node70</title>
<path fill="none" stroke="midnightblue" d="M811.455,-415.12C825.478,-403.249 850.183,-383.053 873,-368 875.276,-366.499 877.68,-365.004 880.117,-363.55"/>
<polygon fill="midnightblue" stroke="midnightblue" points="881.967,-366.524 888.917,-358.527 878.497,-360.445 881.967,-366.524"/>
</g>
<!-- Node113&#45;&gt;Node6 -->
<g id="edge67" class="edge"><title>Node113&#45;&gt;Node6</title>
<path fill="none" stroke="midnightblue" d="M768.766,-544.332C694.359,-556.068 496.258,-575.506 391,-473 329.427,-413.037 406.262,-351.986 355,-283 354.209,-281.936 353.341,-280.926 352.411,-279.968"/>
<polygon fill="midnightblue" stroke="midnightblue" points="354.349,-277.04 344.326,-273.608 350.022,-282.542 354.349,-277.04"/>
</g>
<!-- Node113&#45;&gt;Node76 -->
<g id="edge64" class="edge"><title>Node113&#45;&gt;Node76</title>
<path fill="none" stroke="midnightblue" d="M807.765,-548.652C820.33,-563.856 846.408,-593.736 873,-614 874.812,-615.381 876.736,-616.724 878.713,-618.016"/>
<polygon fill="midnightblue" stroke="midnightblue" points="877.157,-621.163 887.532,-623.309 880.76,-615.162 877.157,-621.163"/>
</g>
<!-- Node76&#45;&gt;Node76 -->
<g id="edge65" class="edge"><title>Node76&#45;&gt;Node76</title>
<path fill="none" stroke="midnightblue" d="M891.854,-642.757C883.756,-651.565 889.305,-661 908.5,-661 920.497,-661 927.163,-657.315 928.499,-652.4"/>
<polygon fill="midnightblue" stroke="midnightblue" points="931.736,-651.053 925.146,-642.757 925.124,-653.352 931.736,-651.053"/>
</g>
<!-- Node77 -->
<g id="node47" class="node"><title>Node77</title>
<g id="a_node47"><a xlink:href="ldo_8c.html#af5721b7fac08574c3bf04058268daec7" target="_top" xlink:title=" ">
<polygon fill="white" stroke="black" points="988.5,-681.5 988.5,-700.5 1050.5,-700.5 1050.5,-681.5 988.5,-681.5"/>
<text text-anchor="middle" x="1019.5" y="-688.5" font-family="Helvetica,sans-Serif" font-size="10.00">seterrorobj</text>
</a>
</g>
</g>
<!-- Node76&#45;&gt;Node77 -->
<g id="edge66" class="edge"><title>Node76&#45;&gt;Node77</title>
<path fill="none" stroke="midnightblue" d="M926.189,-642.521C940.399,-650.558 961.408,-662.277 980,-672 982.972,-673.554 986.089,-675.149 989.208,-676.723"/>
<polygon fill="midnightblue" stroke="midnightblue" points="987.916,-679.99 998.428,-681.315 991.037,-673.724 987.916,-679.99"/>
</g>
<!-- Node68 -->
<g id="node49" class="node"><title>Node68</title>
<g id="a_node49"><a xlink:href="ltable_8c.html#ac726a5642652c5e7d5417c03047fc3d5" target="_top" xlink:title=" ">
<polygon fill="white" stroke="black" points="399.5,-26.5 399.5,-45.5 462.5,-45.5 462.5,-26.5 399.5,-26.5"/>
<text text-anchor="middle" x="431" y="-33.5" font-family="Helvetica,sans-Serif" font-size="10.00">l_hashfloat</text>
</a>
</g>
</g>
<!-- Node67&#45;&gt;Node68 -->
<g id="edge71" class="edge"><title>Node67&#45;&gt;Node68</title>
<path fill="none" stroke="midnightblue" d="M353.168,-36C364.54,-36 377.285,-36 389.076,-36"/>
<polygon fill="midnightblue" stroke="midnightblue" points="389.133,-39.5001 399.133,-36 389.133,-32.5001 389.133,-39.5001"/>
</g>
<!-- Node69 -->
<g id="node50" class="node"><title>Node69</title>
<g id="a_node50"><a xlink:href="lstring_8c.html#ac51f4a1e06f41eeeb4690a3581016217" target="_top" xlink:title=" ">
<polygon fill="white" stroke="black" points="632.5,-0.5 632.5,-19.5 724.5,-19.5 724.5,-0.5 632.5,-0.5"/>
<text text-anchor="middle" x="678.5" y="-7.5" font-family="Helvetica,sans-Serif" font-size="10.00">luaS_hashlongstr</text>
</a>
</g>
</g>
<!-- Node67&#45;&gt;Node69 -->
<g id="edge72" class="edge"><title>Node67&#45;&gt;Node69</title>
<path fill="none" stroke="midnightblue" d="M348.517,-26.4633C361.449,-22.7921 376.828,-19.0025 391,-17 470.704,-5.73816 564.093,-5.915 622.036,-7.57048"/>
<polygon fill="midnightblue" stroke="midnightblue" points="621.975,-11.0702 632.078,-7.88251 622.192,-4.07356 621.975,-11.0702"/>
</g>
<!-- Node69&#45;&gt;Node19 -->
<g id="edge73" class="edge"><title>Node69&#45;&gt;Node19</title>
<path fill="none" stroke="midnightblue" d="M724.885,-13.7969C770.872,-17.3125 844.079,-22 907.5,-22 907.5,-22 907.5,-22 1020.5,-22 1099.36,-22 1188.59,-50.4759 1235.71,-67.8619"/>
<polygon fill="midnightblue" stroke="midnightblue" points="1234.52,-71.1522 1245.11,-71.3893 1236.98,-64.5986 1234.52,-71.1522"/>
</g>
</g>
</svg>
