<?xml version="1.0" encoding="UTF-8" standalone="no"?>
<!DOCTYPE svg PUBLIC "-//W3C//DTD SVG 1.1//EN"
 "http://www.w3.org/Graphics/SVG/1.1/DTD/svg11.dtd">
<!-- Generated by graphviz version 2.38.0 (20140413.2041)
 -->
<!-- Title: lua_error Pages: 1 -->
<svg width="550pt" height="1710pt"
 viewBox="0.00 0.00 550.00 1710.42" xmlns="http://www.w3.org/2000/svg" xmlns:xlink="http://www.w3.org/1999/xlink">
<g id="graph0" class="graph" transform="scale(1 1) rotate(0) translate(4 1706.42)">
<title>lua_error</title>
<polygon fill="white" stroke="none" points="-4,4 -4,-1706.42 546,-1706.42 546,4 -4,4"/>
<!-- Node1 -->
<g id="node1" class="node"><title>Node1</title>
<g id="a_node1"><a xlink:title=" ">
<polygon fill="#bfbfbf" stroke="black" points="488,-1625.92 488,-1644.92 542,-1644.92 542,-1625.92 488,-1625.92"/>
<text text-anchor="middle" x="515" y="-1632.92" font-family="Helvetica,sans-Serif" font-size="10.00">lua_error</text>
</a>
</g>
</g>
<!-- Node2 -->
<g id="node2" class="node"><title>Node2</title>
<g id="a_node2"><a xlink:href="lcorolib_8c.html#a777abb20385a69ce4787f72bd90375a7" target="_top" xlink:title=" ">
<polygon fill="white" stroke="black" points="375,-1682.92 375,-1701.92 452,-1701.92 452,-1682.92 375,-1682.92"/>
<text text-anchor="middle" x="413.5" y="-1689.92" font-family="Helvetica,sans-Serif" font-size="10.00">luaB_auxwrap</text>
</a>
</g>
</g>
<!-- Node1&#45;&gt;Node2 -->
<g id="edge1" class="edge"><title>Node1&#45;&gt;Node2</title>
<path fill="none" stroke="midnightblue" d="M490.587,-1650.39C479.091,-1657.57 464.958,-1666.18 452,-1673.42 446.265,-1676.62 439.928,-1679.92 434.121,-1682.85"/>
<polygon fill="midnightblue" stroke="midnightblue" points="492.574,-1653.27 499.167,-1644.98 488.841,-1647.35 492.574,-1653.27"/>
</g>
<!-- Node4 -->
<g id="node4" class="node"><title>Node4</title>
<g id="a_node4"><a xlink:href="lbaselib_8c.html#a86a4e35d9c9ad4661a0dbbac3758c049" target="_top" xlink:title=" ">
<polygon fill="white" stroke="black" points="381.5,-1644.92 381.5,-1663.92 445.5,-1663.92 445.5,-1644.92 381.5,-1644.92"/>
<text text-anchor="middle" x="413.5" y="-1651.92" font-family="Helvetica,sans-Serif" font-size="10.00">luaB_dofile</text>
</a>
</g>
</g>
<!-- Node1&#45;&gt;Node4 -->
<g id="edge3" class="edge"><title>Node1&#45;&gt;Node4</title>
<path fill="none" stroke="midnightblue" d="M477.744,-1642.34C467.266,-1644.34 455.924,-1646.51 445.778,-1648.45"/>
<polygon fill="midnightblue" stroke="midnightblue" points="478.692,-1645.72 487.858,-1640.41 477.379,-1638.85 478.692,-1645.72"/>
</g>
<!-- Node5 -->
<g id="node5" class="node"><title>Node5</title>
<g id="a_node5"><a xlink:href="lbaselib_8c.html#a2ecfa987569d0b4c1063f3e204e42dd2" target="_top" xlink:title=" ">
<polygon fill="white" stroke="black" points="383,-1606.92 383,-1625.92 444,-1625.92 444,-1606.92 383,-1606.92"/>
<text text-anchor="middle" x="413.5" y="-1613.92" font-family="Helvetica,sans-Serif" font-size="10.00">luaB_error</text>
</a>
</g>
</g>
<!-- Node1&#45;&gt;Node5 -->
<g id="edge4" class="edge"><title>Node1&#45;&gt;Node5</title>
<path fill="none" stroke="midnightblue" d="M477.709,-1628.49C466.742,-1626.39 454.831,-1624.12 444.336,-1622.12"/>
<polygon fill="midnightblue" stroke="midnightblue" points="477.379,-1631.99 487.858,-1630.43 478.692,-1625.11 477.379,-1631.99"/>
</g>
<!-- Node7 -->
<g id="node7" class="node"><title>Node7</title>
<g id="a_node7"><a xlink:href="lauxlib_8h.html#a994f73d7985c30672469a260d9e86ae6" target="_top" xlink:title=" ">
<polygon fill="white" stroke="red" points="384,-808.918 384,-827.918 443,-827.918 443,-808.918 384,-808.918"/>
<text text-anchor="middle" x="413.5" y="-815.918" font-family="Helvetica,sans-Serif" font-size="10.00">luaL_error</text>
</a>
</g>
</g>
<!-- Node1&#45;&gt;Node7 -->
<g id="edge6" class="edge"><title>Node1&#45;&gt;Node7</title>
<path fill="none" stroke="midnightblue" d="M511.601,-1615.72C497.505,-1499.98 425.717,-910.524 415.669,-828.015"/>
<polygon fill="midnightblue" stroke="midnightblue" points="508.13,-1616.17 512.813,-1625.67 515.079,-1615.32 508.13,-1616.17"/>
</g>
<!-- Node3 -->
<g id="node3" class="node"><title>Node3</title>
<g id="a_node3"><a xlink:href="lcorolib_8c.html#a1c0429e27f504b08e25f437f733edad1" target="_top" xlink:title=" ">
<polygon fill="white" stroke="black" points="252.5,-1682.92 252.5,-1701.92 324.5,-1701.92 324.5,-1682.92 252.5,-1682.92"/>
<text text-anchor="middle" x="288.5" y="-1689.92" font-family="Helvetica,sans-Serif" font-size="10.00">luaB_cowrap</text>
</a>
</g>
</g>
<!-- Node2&#45;&gt;Node3 -->
<g id="edge2" class="edge"><title>Node2&#45;&gt;Node3</title>
<path fill="none" stroke="midnightblue" d="M364.927,-1692.42C351.555,-1692.42 337.255,-1692.42 324.742,-1692.42"/>
<polygon fill="midnightblue" stroke="midnightblue" points="364.928,-1695.92 374.928,-1692.42 364.928,-1688.92 364.928,-1695.92"/>
</g>
<!-- Node6 -->
<g id="node6" class="node"><title>Node6</title>
<g id="a_node6"><a xlink:href="lbaselib_8c.html#a8ba9378d5d46ef34a7429d52c3f3e4c7" target="_top" xlink:title=" ">
<polygon fill="white" stroke="black" points="254.5,-1625.92 254.5,-1644.92 322.5,-1644.92 322.5,-1625.92 254.5,-1625.92"/>
<text text-anchor="middle" x="288.5" y="-1632.92" font-family="Helvetica,sans-Serif" font-size="10.00">luaB_assert</text>
</a>
</g>
</g>
<!-- Node5&#45;&gt;Node6 -->
<g id="edge5" class="edge"><title>Node5&#45;&gt;Node6</title>
<path fill="none" stroke="midnightblue" d="M372.558,-1622.59C356.512,-1625.07 338.225,-1627.89 322.902,-1630.26"/>
<polygon fill="midnightblue" stroke="midnightblue" points="373.377,-1626 382.725,-1621.02 372.308,-1619.08 373.377,-1626"/>
</g>
<!-- Node8 -->
<g id="node8" class="node"><title>Node8</title>
<g id="a_node8"><a xlink:href="lstrlib_8c.html#ad5f7e3fbcadc8825f7f650ecf458fc72" target="_top" xlink:title=" ">
<polygon fill="white" stroke="black" points="134.5,-1321.92 134.5,-1340.92 177.5,-1340.92 177.5,-1321.92 134.5,-1321.92"/>
<text text-anchor="middle" x="156" y="-1328.92" font-family="Helvetica,sans-Serif" font-size="10.00">add_s</text>
</a>
</g>
</g>
<!-- Node7&#45;&gt;Node8 -->
<g id="edge7" class="edge"><title>Node7&#45;&gt;Node8</title>
<path fill="none" stroke="midnightblue" d="M411.899,-838.502C409.155,-917.094 395.402,-1202.73 339,-1269.42 328.222,-1282.16 223.201,-1312.83 177.77,-1325.64"/>
<polygon fill="midnightblue" stroke="midnightblue" points="415.41,-838.202 412.239,-828.093 408.414,-837.973 415.41,-838.202"/>
</g>
<!-- Node9 -->
<g id="node9" class="node"><title>Node9</title>
<g id="a_node9"><a xlink:href="lstrlib_8c.html#ad24cfa73e5ad25ec99a1b48f0916471e" target="_top" xlink:title=" ">
<polygon fill="white" stroke="red" points="7.5,-1321.92 7.5,-1340.92 66.5,-1340.92 66.5,-1321.92 7.5,-1321.92"/>
<text text-anchor="middle" x="37" y="-1328.92" font-family="Helvetica,sans-Serif" font-size="10.00">add_value</text>
</a>
</g>
</g>
<!-- Node7&#45;&gt;Node9 -->
<g id="edge9" class="edge"><title>Node7&#45;&gt;Node9</title>
<path fill="none" stroke="midnightblue" d="M411.66,-838.497C408.13,-913.466 392.125,-1175.79 339,-1236.42 336.664,-1239.08 141.305,-1299.55 66.6044,-1322.6"/>
<polygon fill="midnightblue" stroke="midnightblue" points="415.173,-838.279 412.123,-828.133 408.18,-837.966 415.173,-838.279"/>
</g>
<!-- Node11 -->
<g id="node10" class="node"><title>Node11</title>
<g id="a_node10"><a xlink:href="ltablib_8c.html#a598479e00f1b316a182b1582012df5d0" target="_top" xlink:title=" ">
<polygon fill="white" stroke="red" points="263.5,-1207.92 263.5,-1226.92 313.5,-1226.92 313.5,-1207.92 263.5,-1207.92"/>
<text text-anchor="middle" x="288.5" y="-1214.92" font-family="Helvetica,sans-Serif" font-size="10.00">addfield</text>
</a>
</g>
</g>
<!-- Node7&#45;&gt;Node11 -->
<g id="edge10" class="edge"><title>Node7&#45;&gt;Node11</title>
<path fill="none" stroke="midnightblue" d="M411.158,-838.372C406.068,-908.521 385.822,-1142.57 339,-1198.42 332.613,-1206.04 322.805,-1210.61 313.6,-1213.35"/>
<polygon fill="midnightblue" stroke="midnightblue" points="414.66,-838.46 411.869,-828.24 407.678,-837.97 414.66,-838.46"/>
</g>
<!-- Node13 -->
<g id="node11" class="node"><title>Node13</title>
<g id="a_node11"><a xlink:href="lutf8lib_8c.html#a805a182cc5dde6d73e07922e8454eaf7" target="_top" xlink:title=" ">
<polygon fill="white" stroke="black" points="259,-1169.92 259,-1188.92 318,-1188.92 318,-1169.92 259,-1169.92"/>
<text text-anchor="middle" x="288.5" y="-1176.92" font-family="Helvetica,sans-Serif" font-size="10.00">byteoffset</text>
</a>
</g>
</g>
<!-- Node7&#45;&gt;Node13 -->
<g id="edge11" class="edge"><title>Node7&#45;&gt;Node13</title>
<path fill="none" stroke="midnightblue" d="M410.681,-838.461C404.359,-904.051 381.38,-1110.91 339,-1160.42 333.612,-1166.71 325.895,-1170.93 318.152,-1173.75"/>
<polygon fill="midnightblue" stroke="midnightblue" points="414.191,-838.522 411.64,-828.239 407.221,-837.868 414.191,-838.522"/>
</g>
<!-- Node14 -->
<g id="node12" class="node"><title>Node14</title>
<g id="a_node12"><a xlink:href="lstrlib_8c.html#a5e8b364a8f8d4300aa5007c0feb42abf" target="_top" xlink:title=" ">
<polygon fill="white" stroke="red" points="243,-1131.92 243,-1150.92 334,-1150.92 334,-1131.92 243,-1131.92"/>
<text text-anchor="middle" x="288.5" y="-1138.92" font-family="Helvetica,sans-Serif" font-size="10.00">capture_to_close</text>
</a>
</g>
</g>
<!-- Node7&#45;&gt;Node14 -->
<g id="edge12" class="edge"><title>Node7&#45;&gt;Node14</title>
<path fill="none" stroke="midnightblue" d="M410.133,-838.169C402.539,-898.535 377.041,-1079.11 339,-1122.42 335.598,-1126.29 331.316,-1129.38 326.701,-1131.84"/>
<polygon fill="midnightblue" stroke="midnightblue" points="413.629,-838.417 411.377,-828.065 406.681,-837.562 413.629,-838.417"/>
</g>
<!-- Node25 -->
<g id="node13" class="node"><title>Node25</title>
<g id="a_node13"><a xlink:href="lstrlib_8c.html#aa8c1a193fa762ecfe81888d86981a586" target="_top" xlink:title=" ">
<polygon fill="white" stroke="red" points="248.5,-1093.92 248.5,-1112.92 328.5,-1112.92 328.5,-1093.92 248.5,-1093.92"/>
<text text-anchor="middle" x="288.5" y="-1100.92" font-family="Helvetica,sans-Serif" font-size="10.00">check_capture</text>
</a>
</g>
</g>
<!-- Node7&#45;&gt;Node25 -->
<g id="edge13" class="edge"><title>Node7&#45;&gt;Node25</title>
<path fill="none" stroke="midnightblue" d="M412.762,-838.159C412.332,-886.507 404.577,-1012.16 339,-1084.42 335.536,-1088.24 331.219,-1091.29 326.587,-1093.74"/>
<polygon fill="midnightblue" stroke="midnightblue" points="416.262,-838.084 412.751,-828.088 409.262,-838.093 416.262,-838.084"/>
</g>
<!-- Node27 -->
<g id="node14" class="node"><title>Node27</title>
<g id="a_node14"><a xlink:href="loadlib_8c.html#abe3af664b33d2158ef6526094c84bb17" target="_top" xlink:title=" ">
<polygon fill="white" stroke="red" points="258,-1055.92 258,-1074.92 319,-1074.92 319,-1055.92 258,-1055.92"/>
<text text-anchor="middle" x="288.5" y="-1062.92" font-family="Helvetica,sans-Serif" font-size="10.00">checkload</text>
</a>
</g>
</g>
<!-- Node7&#45;&gt;Node27 -->
<g id="edge14" class="edge"><title>Node7&#45;&gt;Node27</title>
<path fill="none" stroke="midnightblue" d="M411.663,-838.225C408.778,-881.674 395.958,-986.259 339,-1046.42 333.621,-1052.1 326.356,-1056.1 319.052,-1058.92"/>
<polygon fill="midnightblue" stroke="midnightblue" points="415.164,-838.296 412.222,-828.117 408.175,-837.908 415.164,-838.296"/>
</g>
<!-- Node33 -->
<g id="node15" class="node"><title>Node33</title>
<g id="a_node15"><a xlink:href="ldblib_8c.html#aef541490d49259cf4cb14e7f9597600e" target="_top" xlink:title=" ">
<polygon fill="white" stroke="red" points="255,-1017.92 255,-1036.92 322,-1036.92 322,-1017.92 255,-1017.92"/>
<text text-anchor="middle" x="288.5" y="-1024.92" font-family="Helvetica,sans-Serif" font-size="10.00">checkstack</text>
</a>
</g>
</g>
<!-- Node7&#45;&gt;Node33 -->
<g id="edge15" class="edge"><title>Node7&#45;&gt;Node33</title>
<path fill="none" stroke="midnightblue" d="M409.498,-838.138C402.953,-874.948 384.199,-954.779 339,-1003.42 333.344,-1009.5 325.815,-1014.23 318.34,-1017.81"/>
<polygon fill="midnightblue" stroke="midnightblue" points="412.966,-838.616 411.153,-828.178 406.061,-837.469 412.966,-838.616"/>
</g>
<!-- Node39 -->
<g id="node16" class="node"><title>Node39</title>
<g id="a_node16"><a xlink:href="lstrlib_8c.html#a72b26c2a339f5e84ef087e961b547f95" target="_top" xlink:title=" ">
<polygon fill="white" stroke="black" points="260.5,-903.918 260.5,-922.918 316.5,-922.918 316.5,-903.918 260.5,-903.918"/>
<text text-anchor="middle" x="288.5" y="-910.918" font-family="Helvetica,sans-Serif" font-size="10.00">classend</text>
</a>
</g>
</g>
<!-- Node7&#45;&gt;Node39 -->
<g id="edge16" class="edge"><title>Node7&#45;&gt;Node39</title>
<path fill="none" stroke="midnightblue" d="M399.169,-836.144C385.629,-853.095 363.25,-878.38 339,-894.418 332.243,-898.886 324.283,-902.528 316.744,-905.383"/>
<polygon fill="midnightblue" stroke="midnightblue" points="402.024,-838.174 405.406,-828.133 396.501,-833.873 402.024,-838.174"/>
</g>
<!-- Node16 -->
<g id="node17" class="node"><title>Node16</title>
<g id="a_node17"><a xlink:href="lstrlib_8c.html#a52a45835b75e5d31ec66421456bbb728" target="_top" xlink:title=" ">
<polygon fill="white" stroke="red" points="134,-922.918 134,-941.918 178,-941.918 178,-922.918 134,-922.918"/>
<text text-anchor="middle" x="156" y="-929.918" font-family="Helvetica,sans-Serif" font-size="10.00">match</text>
</a>
</g>
</g>
<!-- Node7&#45;&gt;Node16 -->
<g id="edge50" class="edge"><title>Node7&#45;&gt;Node16</title>
<path fill="none" stroke="midnightblue" d="M406.505,-837.941C397.061,-864.856 375.89,-912.309 339,-932.418 287.12,-960.697 213.921,-947.662 178.231,-938.581"/>
<polygon fill="midnightblue" stroke="midnightblue" points="409.938,-838.705 409.751,-828.111 403.291,-836.51 409.938,-838.705"/>
</g>
<!-- Node21 -->
<g id="node18" class="node"><title>Node21</title>
<g id="a_node18"><a xlink:href="lstrlib_8c.html#a31cf026bdaa00bf9c72a1e4f72319147" target="_top" xlink:title=" ">
<polygon fill="white" stroke="black" points="0,-922.918 0,-941.918 74,-941.918 74,-922.918 0,-922.918"/>
<text text-anchor="middle" x="37" y="-929.918" font-family="Helvetica,sans-Serif" font-size="10.00">start_capture</text>
</a>
</g>
</g>
<!-- Node7&#45;&gt;Node21 -->
<g id="edge66" class="edge"><title>Node7&#45;&gt;Node21</title>
<path fill="none" stroke="midnightblue" d="M408.546,-838.004C401.092,-869.128 381.704,-928.956 339,-954.418 247.868,-1008.76 112.572,-963.364 60.0029,-942.018"/>
<polygon fill="midnightblue" stroke="midnightblue" points="412.027,-838.474 410.774,-827.953 405.193,-836.959 412.027,-838.474"/>
</g>
<!-- Node40 -->
<g id="node19" class="node"><title>Node40</title>
<g id="a_node19"><a xlink:href="lutf8lib_8c.html#af4280cee645f392590f2ed63a6301320" target="_top" xlink:title=" ">
<polygon fill="white" stroke="black" points="126.5,-827.918 126.5,-846.918 185.5,-846.918 185.5,-827.918 126.5,-827.918"/>
<text text-anchor="middle" x="156" y="-834.918" font-family="Helvetica,sans-Serif" font-size="10.00">codepoint</text>
</a>
</g>
</g>
<!-- Node7&#45;&gt;Node40 -->
<g id="edge20" class="edge"><title>Node7&#45;&gt;Node40</title>
<path fill="none" stroke="midnightblue" d="M373.572,-821.313C321.851,-825.159 231.67,-831.865 185.707,-835.283"/>
<polygon fill="midnightblue" stroke="midnightblue" points="373.975,-824.792 383.688,-820.56 373.456,-817.812 373.975,-824.792"/>
</g>
<!-- Node41 -->
<g id="node20" class="node"><title>Node41</title>
<g id="a_node20"><a xlink:href="loadlib_8c.html#af8f7333f1a59f3d7aab8c9b79b7a4ab2" target="_top" xlink:title=" ">
<polygon fill="white" stroke="red" points="266.5,-561.918 266.5,-580.918 310.5,-580.918 310.5,-561.918 266.5,-561.918"/>
<text text-anchor="middle" x="288.5" y="-568.918" font-family="Helvetica,sans-Serif" font-size="10.00">findfile</text>
</a>
</g>
</g>
<!-- Node7&#45;&gt;Node41 -->
<g id="edge21" class="edge"><title>Node7&#45;&gt;Node41</title>
<path fill="none" stroke="midnightblue" d="M411.067,-798.528C407.031,-756.198 392.114,-656.115 339,-595.418 331.579,-586.937 320.482,-581.175 310.675,-577.428"/>
<polygon fill="midnightblue" stroke="midnightblue" points="407.592,-798.971 411.924,-808.639 414.567,-798.38 407.592,-798.971"/>
</g>
<!-- Node42 -->
<g id="node21" class="node"><title>Node42</title>
<g id="a_node21"><a xlink:href="loadlib_8c.html#aeea4101591c7cab25273f4dfe7d811d6" target="_top" xlink:title=" ">
<polygon fill="white" stroke="red" points="259.5,-523.918 259.5,-542.918 317.5,-542.918 317.5,-523.918 259.5,-523.918"/>
<text text-anchor="middle" x="288.5" y="-530.918" font-family="Helvetica,sans-Serif" font-size="10.00">findloader</text>
</a>
</g>
</g>
<!-- Node7&#45;&gt;Node42 -->
<g id="edge22" class="edge"><title>Node7&#45;&gt;Node42</title>
<path fill="none" stroke="midnightblue" d="M412.762,-798.677C412.332,-750.329 404.577,-624.679 339,-552.418 333.371,-546.215 325.489,-542.021 317.667,-539.192"/>
<polygon fill="midnightblue" stroke="midnightblue" points="409.262,-798.743 412.751,-808.747 416.262,-798.751 409.262,-798.743"/>
</g>
<!-- Node44 -->
<g id="node22" class="node"><title>Node44</title>
<g id="a_node22"><a xlink:href="lbaselib_8c.html#ad467c787e381e8d18e4c7b46b4f1b05d" target="_top" xlink:title=" ">
<polygon fill="white" stroke="red" points="116,-789.918 116,-808.918 196,-808.918 196,-789.918 116,-789.918"/>
<text text-anchor="middle" x="156" y="-796.918" font-family="Helvetica,sans-Serif" font-size="10.00">generic_reader</text>
</a>
</g>
</g>
<!-- Node7&#45;&gt;Node44 -->
<g id="edge23" class="edge"><title>Node7&#45;&gt;Node44</title>
<path fill="none" stroke="midnightblue" d="M373.676,-815.531C325.634,-811.958 244.296,-805.909 196.118,-802.327"/>
<polygon fill="midnightblue" stroke="midnightblue" points="373.456,-819.024 383.688,-816.275 373.975,-812.043 373.456,-819.024"/>
</g>
<!-- Node46 -->
<g id="node23" class="node"><title>Node46</title>
<g id="a_node23"><a xlink:href="loslib_8c.html#aa0a7f676dc564dbc1a3c16c917b933c9" target="_top" xlink:title=" ">
<polygon fill="white" stroke="black" points="265,-485.918 265,-504.918 312,-504.918 312,-485.918 265,-485.918"/>
<text text-anchor="middle" x="288.5" y="-492.918" font-family="Helvetica,sans-Serif" font-size="10.00">getfield</text>
</a>
</g>
</g>
<!-- Node7&#45;&gt;Node46 -->
<g id="edge24" class="edge"><title>Node7&#45;&gt;Node46</title>
<path fill="none" stroke="midnightblue" d="M410.133,-798.666C402.539,-738.301 377.041,-557.725 339,-514.418 332.135,-506.603 321.686,-501.985 312.155,-499.265"/>
<polygon fill="midnightblue" stroke="midnightblue" points="406.681,-799.274 411.377,-808.771 413.629,-798.418 406.681,-799.274"/>
</g>
<!-- Node47 -->
<g id="node24" class="node"><title>Node47</title>
<g id="a_node24"><a xlink:href="loslib_8c.html#ae32288bc9696b48450146e11c241f943" target="_top" xlink:title=" ">
<polygon fill="white" stroke="black" points="130.5,-466.918 130.5,-485.918 181.5,-485.918 181.5,-466.918 130.5,-466.918"/>
<text text-anchor="middle" x="156" y="-473.918" font-family="Helvetica,sans-Serif" font-size="10.00">os_time</text>
</a>
</g>
</g>
<!-- Node7&#45;&gt;Node47 -->
<g id="edge56" class="edge"><title>Node7&#45;&gt;Node47</title>
<path fill="none" stroke="midnightblue" d="M411.387,-798.564C407.194,-731.84 389.908,-517.547 339,-476.418 293.899,-439.98 219.943,-455.779 181.672,-467.65"/>
<polygon fill="midnightblue" stroke="midnightblue" points="407.896,-798.827 411.987,-808.6 414.884,-798.409 407.896,-798.827"/>
</g>
<!-- Node48 -->
<g id="node25" class="node"><title>Node48</title>
<g id="a_node25"><a xlink:href="liolib_8c.html#a3bccbdacdc9f21f22a603525be1f3699" target="_top" xlink:title=" ">
<polygon fill="white" stroke="red" points="263.5,-409.918 263.5,-428.918 313.5,-428.918 313.5,-409.918 263.5,-409.918"/>
<text text-anchor="middle" x="288.5" y="-416.918" font-family="Helvetica,sans-Serif" font-size="10.00">getiofile</text>
</a>
</g>
</g>
<!-- Node7&#45;&gt;Node48 -->
<g id="edge26" class="edge"><title>Node7&#45;&gt;Node48</title>
<path fill="none" stroke="midnightblue" d="M410.919,-798.43C405.089,-729.129 382.825,-500.302 339,-443.418 332.705,-435.247 322.911,-429.699 313.692,-426.015"/>
<polygon fill="midnightblue" stroke="midnightblue" points="407.463,-799.11 411.767,-808.792 414.44,-798.54 407.463,-799.11"/>
</g>
<!-- Node52 -->
<g id="node26" class="node"><title>Node52</title>
<g id="a_node26"><a xlink:href="lstrlib_8c.html#a2e2809fc0c800ac97e4122f33434b94a" target="_top" xlink:title=" ">
<polygon fill="white" stroke="black" points="255,-371.918 255,-390.918 322,-390.918 322,-371.918 255,-371.918"/>
<text text-anchor="middle" x="288.5" y="-378.918" font-family="Helvetica,sans-Serif" font-size="10.00">getnumlimit</text>
</a>
</g>
</g>
<!-- Node7&#45;&gt;Node52 -->
<g id="edge27" class="edge"><title>Node7&#45;&gt;Node52</title>
<path fill="none" stroke="midnightblue" d="M411.542,-798.44C407.588,-723.831 390.258,-462.628 339,-400.418 334.61,-395.09 328.543,-391.253 322.16,-388.49"/>
<polygon fill="midnightblue" stroke="midnightblue" points="408.063,-798.943 412.065,-808.753 415.054,-798.588 408.063,-798.943"/>
</g>
<!-- Node53 -->
<g id="node27" class="node"><title>Node53</title>
<g id="a_node27"><a xlink:href="lstrlib_8c.html#adcf5c53b9f1a52366c286fea5f9aeda7" target="_top" xlink:title=" ">
<polygon fill="white" stroke="red" points="128,-352.918 128,-371.918 184,-371.918 184,-352.918 128,-352.918"/>
<text text-anchor="middle" x="156" y="-359.918" font-family="Helvetica,sans-Serif" font-size="10.00">getoption</text>
</a>
</g>
</g>
<!-- Node7&#45;&gt;Node53 -->
<g id="edge29" class="edge"><title>Node7&#45;&gt;Node53</title>
<path fill="none" stroke="midnightblue" d="M412.537,-798.536C412.228,-718.301 406.495,-419.905 339,-362.418 295.461,-325.335 222.508,-340.689 183.5,-352.869"/>
<polygon fill="midnightblue" stroke="midnightblue" points="409.037,-798.741 412.55,-808.736 416.037,-798.732 409.037,-798.741"/>
</g>
<!-- Node58 -->
<g id="node28" class="node"><title>Node58</title>
<g id="a_node28"><a xlink:href="liolib_8c.html#ac37d80ee2cc364b4adafcb6f7c20f28b" target="_top" xlink:title=" ">
<polygon fill="white" stroke="red" points="124.5,-732.918 124.5,-751.918 187.5,-751.918 187.5,-732.918 124.5,-732.918"/>
<text text-anchor="middle" x="156" y="-739.918" font-family="Helvetica,sans-Serif" font-size="10.00">io_readline</text>
</a>
</g>
</g>
<!-- Node7&#45;&gt;Node58 -->
<g id="edge30" class="edge"><title>Node7&#45;&gt;Node58</title>
<path fill="none" stroke="midnightblue" d="M374.033,-806.975C323.117,-791.83 234.359,-765.429 187.688,-751.546"/>
<polygon fill="midnightblue" stroke="midnightblue" points="373.105,-810.351 383.688,-809.847 375.101,-803.641 373.105,-810.351"/>
</g>
<!-- Node62 -->
<g id="node29" class="node"><title>Node62</title>
<g id="a_node29"><a xlink:href="lutf8lib_8c.html#a43c0d087501aef0f0d064d38a29dd922" target="_top" xlink:title=" ">
<polygon fill="white" stroke="red" points="263,-295.918 263,-314.918 314,-314.918 314,-295.918 263,-295.918"/>
<text text-anchor="middle" x="288.5" y="-302.918" font-family="Helvetica,sans-Serif" font-size="10.00">iter_aux</text>
</a>
</g>
</g>
<!-- Node7&#45;&gt;Node62 -->
<g id="edge31" class="edge"><title>Node7&#45;&gt;Node62</title>
<path fill="none" stroke="midnightblue" d="M411.929,-798.454C409.223,-716.425 395.368,-406.039 339,-329.418 332.944,-321.186 323.303,-315.643 314.132,-311.979"/>
<polygon fill="midnightblue" stroke="midnightblue" points="408.443,-798.958 412.251,-808.845 415.439,-798.741 408.443,-798.958"/>
</g>
<!-- Node64 -->
<g id="node30" class="node"><title>Node64</title>
<g id="a_node30"><a xlink:href="lua_8c.html#a6da2ce581018529235ae1da1e32c7919" target="_top" xlink:title=" ">
<polygon fill="white" stroke="red" points="269.5,-257.918 269.5,-276.918 307.5,-276.918 307.5,-257.918 269.5,-257.918"/>
<text text-anchor="middle" x="288.5" y="-264.918" font-family="Helvetica,sans-Serif" font-size="10.00">lstop</text>
</a>
</g>
</g>
<!-- Node7&#45;&gt;Node64 -->
<g id="edge32" class="edge"><title>Node7&#45;&gt;Node64</title>
<path fill="none" stroke="midnightblue" d="M412.378,-798.78C411.465,-712.535 403.758,-368.024 339,-286.418 331.447,-276.9 318.523,-272.146 307.774,-269.773"/>
<polygon fill="midnightblue" stroke="midnightblue" points="408.878,-798.818 412.465,-808.788 415.878,-798.758 408.878,-798.818"/>
</g>
<!-- Node77 -->
<g id="node31" class="node"><title>Node77</title>
<g id="a_node31"><a xlink:href="lbaselib_8c.html#a865eb761a305c588d6940da5272375b7" target="_top" xlink:title=" ">
<polygon fill="white" stroke="black" points="258.5,-219.918 258.5,-238.918 318.5,-238.918 318.5,-219.918 258.5,-219.918"/>
<text text-anchor="middle" x="288.5" y="-226.918" font-family="Helvetica,sans-Serif" font-size="10.00">luaB_print</text>
</a>
</g>
</g>
<!-- Node7&#45;&gt;Node77 -->
<g id="edge33" class="edge"><title>Node7&#45;&gt;Node77</title>
<path fill="none" stroke="midnightblue" d="M412.58,-798.533C412.556,-708.119 408.193,-336.427 339,-248.418 333.937,-241.977 326.411,-237.719 318.747,-234.903"/>
<polygon fill="midnightblue" stroke="midnightblue" points="409.08,-798.54 412.563,-808.546 416.08,-798.552 409.08,-798.54"/>
</g>
<!-- Node78 -->
<g id="node32" class="node"><title>Node78</title>
<g id="a_node32"><a xlink:href="lbaselib_8c.html#af7799a987ba6d158a96a52e80fb5beaf" target="_top" xlink:title=" ">
<polygon fill="white" stroke="black" points="239.5,-181.918 239.5,-200.918 337.5,-200.918 337.5,-181.918 239.5,-181.918"/>
<text text-anchor="middle" x="288.5" y="-188.918" font-family="Helvetica,sans-Serif" font-size="10.00">luaB_setmetatable</text>
</a>
</g>
</g>
<!-- Node7&#45;&gt;Node78 -->
<g id="edge34" class="edge"><title>Node7&#45;&gt;Node78</title>
<path fill="none" stroke="midnightblue" d="M412.757,-798.722C413.596,-705.021 412.748,-304.991 339,-210.418 336.057,-206.643 332.266,-203.618 328.095,-201.194"/>
<polygon fill="midnightblue" stroke="midnightblue" points="409.256,-798.767 412.648,-808.804 416.256,-798.842 409.256,-798.767"/>
</g>
<!-- Node79 -->
<g id="node33" class="node"><title>Node79</title>
<g id="a_node33"><a xlink:href="lauxlib_8h.html#ad0599591343ae7836d46e685b16e69de" target="_top" xlink:title=" ">
<polygon fill="white" stroke="red" points="252,-143.918 252,-162.918 325,-162.918 325,-143.918 252,-143.918"/>
<text text-anchor="middle" x="288.5" y="-150.918" font-family="Helvetica,sans-Serif" font-size="10.00">luaL_argerror</text>
</a>
</g>
</g>
<!-- Node7&#45;&gt;Node79 -->
<g id="edge35" class="edge"><title>Node7&#45;&gt;Node79</title>
<path fill="none" stroke="midnightblue" d="M412.919,-798.429C414.576,-700.657 417.186,-273.41 339,-172.418 335.394,-167.759 330.497,-164.243 325.18,-161.588"/>
<polygon fill="midnightblue" stroke="midnightblue" points="409.415,-798.612 412.727,-808.676 416.414,-798.743 409.415,-798.612"/>
</g>
<!-- Node172 -->
<g id="node34" class="node"><title>Node172</title>
<g id="a_node34"><a xlink:href="lauxlib_8h.html#a724f5a5aeee97c0b40948c8bca91341c" target="_top" xlink:title=" ">
<polygon fill="white" stroke="red" points="243.5,-713.918 243.5,-732.918 333.5,-732.918 333.5,-713.918 243.5,-713.918"/>
<text text-anchor="middle" x="288.5" y="-720.918" font-family="Helvetica,sans-Serif" font-size="10.00">luaL_checkstack</text>
</a>
</g>
</g>
<!-- Node7&#45;&gt;Node172 -->
<g id="edge36" class="edge"><title>Node7&#45;&gt;Node172</title>
<path fill="none" stroke="midnightblue" d="M397.341,-800.906C383.321,-785.452 361.334,-763.02 339,-747.418 331.014,-741.839 321.534,-736.896 313.018,-732.967"/>
<polygon fill="midnightblue" stroke="midnightblue" points="395,-803.54 404.262,-808.685 400.23,-798.887 395,-803.54"/>
</g>
<!-- Node181 -->
<g id="node35" class="node"><title>Node181</title>
<g id="a_node35"><a xlink:href="lua_8c.html#a1e73bab660617a11ddcbb7d647980d40" target="_top" xlink:title=" ">
<polygon fill="white" stroke="red" points="128,-675.918 128,-694.918 184,-694.918 184,-675.918 128,-675.918"/>
<text text-anchor="middle" x="156" y="-682.918" font-family="Helvetica,sans-Serif" font-size="10.00">pushargs</text>
</a>
</g>
</g>
<!-- Node7&#45;&gt;Node181 -->
<g id="edge62" class="edge"><title>Node7&#45;&gt;Node181</title>
<path fill="none" stroke="midnightblue" d="M409.644,-798.505C403.566,-764.436 385.851,-695.804 339,-666.418 287.865,-634.345 212.38,-660.346 176.857,-675.885"/>
<polygon fill="midnightblue" stroke="midnightblue" points="406.23,-799.315 411.285,-808.627 413.14,-798.195 406.23,-799.315"/>
</g>
<!-- Node106 -->
<g id="node36" class="node"><title>Node106</title>
<g id="a_node36"><a xlink:href="lstrlib_8c.html#ae561770420cfd1894054415df9d4c423" target="_top" xlink:title=" ">
<polygon fill="white" stroke="black" points="130,-618.918 130,-637.918 182,-637.918 182,-618.918 130,-618.918"/>
<text text-anchor="middle" x="156" y="-625.918" font-family="Helvetica,sans-Serif" font-size="10.00">str_byte</text>
</a>
</g>
</g>
<!-- Node7&#45;&gt;Node106 -->
<g id="edge67" class="edge"><title>Node7&#45;&gt;Node106</title>
<path fill="none" stroke="midnightblue" d="M410.452,-798.528C405.504,-761.706 389.31,-683.314 339,-646.418 292.401,-612.243 220.071,-617.563 182.149,-623.494"/>
<polygon fill="midnightblue" stroke="midnightblue" points="406.986,-799.018 411.652,-808.529 413.936,-798.184 406.986,-799.018"/>
</g>
<!-- Node182 -->
<g id="node37" class="node"><title>Node182</title>
<g id="a_node37"><a xlink:href="lauxlib_8h.html#ab42194a5a9cd8a6f6ee9123ef1807e52" target="_top" xlink:title=" ">
<polygon fill="white" stroke="black" points="238,-105.918 238,-124.918 339,-124.918 339,-105.918 238,-105.918"/>
<text text-anchor="middle" x="288.5" y="-112.918" font-family="Helvetica,sans-Serif" font-size="10.00">luaL_checkversion_</text>
</a>
</g>
</g>
<!-- Node7&#45;&gt;Node182 -->
<g id="edge42" class="edge"><title>Node7&#45;&gt;Node182</title>
<path fill="none" stroke="midnightblue" d="M411.589,-798.543C406.532,-691.715 380.628,-188.536 339,-134.418 336.082,-130.624 332.306,-127.587 328.143,-125.157"/>
<polygon fill="midnightblue" stroke="midnightblue" points="408.096,-798.775 412.058,-808.601 415.088,-798.448 408.096,-798.775"/>
</g>
<!-- Node183 -->
<g id="node38" class="node"><title>Node183</title>
<g id="a_node38"><a xlink:href="lauxlib_8h.html#ac9d38b77e425247b630afdb212401a05" target="_top" xlink:title=" ">
<polygon fill="white" stroke="red" points="262,-675.918 262,-694.918 315,-694.918 315,-675.918 262,-675.918"/>
<text text-anchor="middle" x="288.5" y="-682.918" font-family="Helvetica,sans-Serif" font-size="10.00">luaL_len</text>
</a>
</g>
</g>
<!-- Node7&#45;&gt;Node183 -->
<g id="edge43" class="edge"><title>Node7&#45;&gt;Node183</title>
<path fill="none" stroke="midnightblue" d="M404.688,-799.206C393.586,-774.135 370.984,-730.404 339,-704.418 332.07,-698.787 323.285,-694.696 315.046,-691.785"/>
<polygon fill="midnightblue" stroke="midnightblue" points="401.594,-800.875 408.735,-808.703 408.034,-798.131 401.594,-800.875"/>
</g>
<!-- Node190 -->
<g id="node39" class="node"><title>Node190</title>
<g id="a_node39"><a xlink:href="lauxlib_8h.html#a0fb6d10de24960ceed452061b47c2c06" target="_top" xlink:title=" ">
<polygon fill="white" stroke="red" points="110,-29.9178 110,-48.9178 202,-48.9178 202,-29.9178 110,-29.9178"/>
<text text-anchor="middle" x="156" y="-36.9178" font-family="Helvetica,sans-Serif" font-size="10.00">luaL_prepbuffsize</text>
</a>
</g>
</g>
<!-- Node7&#45;&gt;Node190 -->
<g id="edge45" class="edge"><title>Node7&#45;&gt;Node190</title>
<path fill="none" stroke="midnightblue" d="M412.234,-798.708C410.445,-681.037 398.376,-74.5764 339,-20.4178 292.996,21.544 210.75,-11.8856 174.725,-29.8608"/>
<polygon fill="midnightblue" stroke="midnightblue" points="408.735,-798.85 412.38,-808.799 415.735,-798.749 408.735,-798.85"/>
</g>
<!-- Node83 -->
<g id="node40" class="node"><title>Node83</title>
<g id="a_node40"><a xlink:href="loslib_8c.html#a6520f2562b500aee87a6a475995adefb" target="_top" xlink:title=" ">
<polygon fill="white" stroke="black" points="11.5,-48.9178 11.5,-67.9178 62.5,-67.9178 62.5,-48.9178 11.5,-48.9178"/>
<text text-anchor="middle" x="37" y="-55.9178" font-family="Helvetica,sans-Serif" font-size="10.00">os_date</text>
</a>
</g>
</g>
<!-- Node7&#45;&gt;Node83 -->
<g id="edge55" class="edge"><title>Node7&#45;&gt;Node83</title>
<path fill="none" stroke="midnightblue" d="M411.929,-798.652C408.546,-687.969 389.523,-148.175 339,-96.4178 319.776,-76.7241 131.319,-63.8588 62.7678,-59.7986"/>
<polygon fill="midnightblue" stroke="midnightblue" points="408.434,-798.859 412.23,-808.75 415.43,-798.65 408.434,-798.859"/>
</g>
<!-- Node204 -->
<g id="node41" class="node"><title>Node204</title>
<g id="a_node41"><a xlink:href="lauxlib_8h.html#aef6da057d1e26ed6449b92177f1f2f5a" target="_top" xlink:title=" ">
<polygon fill="white" stroke="red" points="251.5,-1321.92 251.5,-1340.92 325.5,-1340.92 325.5,-1321.92 251.5,-1321.92"/>
<text text-anchor="middle" x="288.5" y="-1328.92" font-family="Helvetica,sans-Serif" font-size="10.00">luaL_tolstring</text>
</a>
</g>
</g>
<!-- Node7&#45;&gt;Node204 -->
<g id="edge47" class="edge"><title>Node7&#45;&gt;Node204</title>
<path fill="none" stroke="midnightblue" d="M411.929,-838.382C409.223,-920.411 395.368,-1230.8 339,-1307.42 334.416,-1313.65 327.777,-1318.34 320.843,-1321.84"/>
<polygon fill="midnightblue" stroke="midnightblue" points="415.439,-838.095 412.251,-827.991 408.443,-837.878 415.439,-838.095"/>
</g>
<!-- Node205 -->
<g id="node42" class="node"><title>Node205</title>
<g id="a_node42"><a xlink:href="lualib_8h.html#abb41e0d9276447688b5958aa96d919e2" target="_top" xlink:title=" ">
<polygon fill="white" stroke="black" points="250,-1587.92 250,-1606.92 327,-1606.92 327,-1587.92 250,-1587.92"/>
<text text-anchor="middle" x="288.5" y="-1594.92" font-family="Helvetica,sans-Serif" font-size="10.00">luaopen_bit32</text>
</a>
</g>
</g>
<!-- Node7&#45;&gt;Node205 -->
<g id="edge49" class="edge"><title>Node7&#45;&gt;Node205</title>
<path fill="none" stroke="midnightblue" d="M411.826,-837.964C407.769,-950.963 385.218,-1517.67 339,-1578.42 335.879,-1582.52 331.755,-1585.74 327.215,-1588.26"/>
<polygon fill="midnightblue" stroke="midnightblue" points="415.324,-838.083 412.178,-827.966 408.328,-837.836 415.324,-838.083"/>
</g>
<!-- Node206 -->
<g id="node43" class="node"><title>Node206</title>
<g id="a_node43"><a xlink:href="lstrlib_8c.html#aacb8f9104a816720da707ecf5219a96e" target="_top" xlink:title=" ">
<polygon fill="white" stroke="black" points="250,-865.918 250,-884.918 327,-884.918 327,-865.918 250,-865.918"/>
<text text-anchor="middle" x="288.5" y="-872.918" font-family="Helvetica,sans-Serif" font-size="10.00">matchbalance</text>
</a>
</g>
</g>
<!-- Node7&#45;&gt;Node206 -->
<g id="edge51" class="edge"><title>Node7&#45;&gt;Node206</title>
<path fill="none" stroke="midnightblue" d="M382.813,-832.175C360.34,-842.59 330.045,-856.629 310.155,-865.846"/>
<polygon fill="midnightblue" stroke="midnightblue" points="384.311,-835.339 391.913,-827.958 381.368,-828.987 384.311,-835.339"/>
</g>
<!-- Node111 -->
<g id="node44" class="node"><title>Node111</title>
<g id="a_node44"><a xlink:href="lmathlib_8c.html#aa3ad02d4204d21d35a0825281915fb22" target="_top" xlink:title=" ">
<polygon fill="white" stroke="black" points="250.5,-1549.92 250.5,-1568.92 326.5,-1568.92 326.5,-1549.92 250.5,-1549.92"/>
<text text-anchor="middle" x="288.5" y="-1556.92" font-family="Helvetica,sans-Serif" font-size="10.00">math_random</text>
</a>
</g>
</g>
<!-- Node7&#45;&gt;Node111 -->
<g id="edge53" class="edge"><title>Node7&#45;&gt;Node111</title>
<path fill="none" stroke="midnightblue" d="M411.719,-838.002C407.189,-947.693 382.938,-1482.96 339,-1540.42 335.757,-1544.66 331.442,-1547.95 326.708,-1550.51"/>
<polygon fill="midnightblue" stroke="midnightblue" points="415.217,-838.13 412.126,-827.996 408.223,-837.845 415.217,-838.13"/>
</g>
<!-- Node207 -->
<g id="node45" class="node"><title>Node207</title>
<g id="a_node45"><a xlink:href="liolib_8c.html#a91ec9c6fa0ef33085f29a15532ac80a7" target="_top" xlink:title=" ">
<polygon fill="white" stroke="red" points="256.5,-1511.92 256.5,-1530.92 320.5,-1530.92 320.5,-1511.92 256.5,-1511.92"/>
<text text-anchor="middle" x="288.5" y="-1518.92" font-family="Helvetica,sans-Serif" font-size="10.00">opencheck</text>
</a>
</g>
</g>
<!-- Node7&#45;&gt;Node207 -->
<g id="edge54" class="edge"><title>Node7&#45;&gt;Node207</title>
<path fill="none" stroke="midnightblue" d="M411.589,-838.293C406.532,-945.12 380.628,-1448.3 339,-1502.42 334.398,-1508.4 327.665,-1512.5 320.639,-1515.31"/>
<polygon fill="midnightblue" stroke="midnightblue" points="415.088,-838.387 412.058,-828.235 408.096,-838.061 415.088,-838.387"/>
</g>
<!-- Node211 -->
<g id="node46" class="node"><title>Node211</title>
<g id="a_node46"><a xlink:href="loslib_8c.html#a89a90062784a8adc223ff4cbe576321d" target="_top" xlink:title=" ">
<polygon fill="white" stroke="black" points="252,-1473.92 252,-1492.92 325,-1492.92 325,-1473.92 252,-1473.92"/>
<text text-anchor="middle" x="288.5" y="-1480.92" font-family="Helvetica,sans-Serif" font-size="10.00">os_tmpname</text>
</a>
</g>
</g>
<!-- Node7&#45;&gt;Node211 -->
<g id="edge57" class="edge"><title>Node7&#45;&gt;Node211</title>
<path fill="none" stroke="midnightblue" d="M412.919,-838.406C414.576,-936.179 417.186,-1363.43 339,-1464.42 335.394,-1469.08 330.497,-1472.59 325.18,-1475.25"/>
<polygon fill="midnightblue" stroke="midnightblue" points="416.414,-838.093 412.727,-828.16 409.415,-838.224 416.414,-838.093"/>
</g>
<!-- Node212 -->
<g id="node47" class="node"><title>Node212</title>
<g id="a_node47"><a xlink:href="ltablib_8c.html#a1d53059f696e353656cd98be725ffbd2" target="_top" xlink:title=" ">
<polygon fill="white" stroke="red" points="263,-1435.92 263,-1454.92 314,-1454.92 314,-1435.92 263,-1435.92"/>
<text text-anchor="middle" x="288.5" y="-1442.92" font-family="Helvetica,sans-Serif" font-size="10.00">partition</text>
</a>
</g>
</g>
<!-- Node7&#45;&gt;Node212 -->
<g id="edge58" class="edge"><title>Node7&#45;&gt;Node212</title>
<path fill="none" stroke="midnightblue" d="M412.757,-838.113C413.596,-931.815 412.748,-1331.84 339,-1426.42 332.943,-1434.18 323.302,-1438.78 314.131,-1441.49"/>
<polygon fill="midnightblue" stroke="midnightblue" points="416.256,-837.993 412.648,-828.032 409.256,-838.069 416.256,-837.993"/>
</g>
<!-- Node214 -->
<g id="node48" class="node"><title>Node214</title>
<g id="a_node48"><a xlink:href="lstrlib_8c.html#a24a14b4e6e90bac4610dd334bb0b51b6" target="_top" xlink:title=" ">
<polygon fill="white" stroke="red" points="243,-1359.92 243,-1378.92 334,-1378.92 334,-1359.92 243,-1359.92"/>
<text text-anchor="middle" x="288.5" y="-1366.92" font-family="Helvetica,sans-Serif" font-size="10.00">push_onecapture</text>
</a>
</g>
</g>
<!-- Node7&#45;&gt;Node214 -->
<g id="edge59" class="edge"><title>Node7&#45;&gt;Node214</title>
<path fill="none" stroke="midnightblue" d="M412.378,-838.056C411.465,-924.301 403.758,-1268.81 339,-1350.42 335.91,-1354.31 331.921,-1357.41 327.55,-1359.87"/>
<polygon fill="midnightblue" stroke="midnightblue" points="415.878,-838.078 412.465,-828.048 408.878,-838.017 415.878,-838.078"/>
</g>
<!-- Node215 -->
<g id="node49" class="node"><title>Node215</title>
<g id="a_node49"><a xlink:href="lauxlib_8c.html#acdf7f3169e55f9c8bd3d314358a9e778" target="_top" xlink:title=" ">
<polygon fill="white" stroke="red" points="259,-29.9178 259,-48.9178 318,-48.9178 318,-29.9178 259,-29.9178"/>
<text text-anchor="middle" x="288.5" y="-36.9178" font-family="Helvetica,sans-Serif" font-size="10.00">resizebox</text>
</a>
</g>
</g>
<!-- Node7&#45;&gt;Node215 -->
<g id="edge63" class="edge"><title>Node7&#45;&gt;Node215</title>
<path fill="none" stroke="midnightblue" d="M411.724,-798.703C407.138,-685.945 382.287,-125.59 339,-63.4178 333.979,-56.2068 326.175,-51.0792 318.235,-47.4687"/>
<polygon fill="midnightblue" stroke="midnightblue" points="408.227,-798.847 412.125,-808.699 415.222,-798.566 408.227,-798.847"/>
</g>
<!-- Node222 -->
<g id="node50" class="node"><title>Node222</title>
<g id="a_node50"><a xlink:href="lstrlib_8c.html#aa02d130952004540df86ae92853cfc22" target="_top" xlink:title=" ">
<polygon fill="white" stroke="red" points="256,-1397.92 256,-1416.92 321,-1416.92 321,-1397.92 256,-1397.92"/>
<text text-anchor="middle" x="288.5" y="-1404.92" font-family="Helvetica,sans-Serif" font-size="10.00">scanformat</text>
</a>
</g>
</g>
<!-- Node7&#45;&gt;Node222 -->
<g id="edge65" class="edge"><title>Node7&#45;&gt;Node222</title>
<path fill="none" stroke="midnightblue" d="M412.58,-838.303C412.556,-928.717 408.193,-1300.41 339,-1388.42 334.449,-1394.21 327.908,-1398.23 321.066,-1401.03"/>
<polygon fill="midnightblue" stroke="midnightblue" points="416.08,-838.284 412.563,-828.29 409.08,-838.295 416.08,-838.284"/>
</g>
<!-- Node8&#45;&gt;Node9 -->
<g id="edge8" class="edge"><title>Node8&#45;&gt;Node9</title>
<path fill="none" stroke="midnightblue" d="M124.203,-1331.42C106.424,-1331.42 84.206,-1331.42 66.7795,-1331.42"/>
<polygon fill="midnightblue" stroke="midnightblue" points="124.352,-1334.92 134.352,-1331.42 124.352,-1327.92 124.352,-1334.92"/>
</g>
<!-- Node39&#45;&gt;Node16 -->
<g id="edge17" class="edge"><title>Node39&#45;&gt;Node16</title>
<path fill="none" stroke="midnightblue" d="M250.553,-918.797C227.238,-922.192 197.942,-926.457 178.406,-929.301"/>
<polygon fill="midnightblue" stroke="midnightblue" points="251.069,-922.259 260.46,-917.355 250.06,-915.332 251.069,-922.259"/>
</g>
<!-- Node16&#45;&gt;Node21 -->
<g id="edge18" class="edge"><title>Node16&#45;&gt;Node21</title>
<path fill="none" stroke="midnightblue" d="M123.824,-926.37C108.554,-925.524 90.0809,-925.442 74.1908,-926.124"/>
<polygon fill="midnightblue" stroke="midnightblue" points="123.59,-929.862 133.812,-927.078 124.085,-922.88 123.59,-929.862"/>
</g>
<!-- Node21&#45;&gt;Node16 -->
<g id="edge19" class="edge"><title>Node21&#45;&gt;Node16</title>
<path fill="none" stroke="midnightblue" d="M84.5669,-939.041C101.612,-939.407 120.07,-938.979 133.812,-937.758"/>
<polygon fill="midnightblue" stroke="midnightblue" points="84.2971,-935.531 74.1908,-938.711 84.0744,-942.528 84.2971,-935.531"/>
</g>
<!-- Node46&#45;&gt;Node47 -->
<g id="edge25" class="edge"><title>Node46&#45;&gt;Node47</title>
<path fill="none" stroke="midnightblue" d="M254.594,-490.627C231.942,-487.329 202.329,-483.017 181.69,-480.012"/>
<polygon fill="midnightblue" stroke="midnightblue" points="254.369,-494.131 264.769,-492.108 255.377,-487.204 254.369,-494.131"/>
</g>
<!-- Node52&#45;&gt;Node53 -->
<g id="edge28" class="edge"><title>Node52&#45;&gt;Node53</title>
<path fill="none" stroke="midnightblue" d="M244.839,-375.207C224.943,-372.31 201.851,-368.948 184.337,-366.398"/>
<polygon fill="midnightblue" stroke="midnightblue" points="244.506,-378.695 254.906,-376.672 245.515,-371.768 244.506,-378.695"/>
</g>
<!-- Node172&#45;&gt;Node40 -->
<g id="edge37" class="edge"><title>Node172&#45;&gt;Node40</title>
<path fill="none" stroke="midnightblue" d="M275.17,-741.343C260.022,-762.236 232.546,-796.668 202,-818.418 196.888,-822.058 190.971,-825.181 185.142,-827.782"/>
<polygon fill="midnightblue" stroke="midnightblue" points="278.126,-743.224 281.055,-733.042 272.416,-739.175 278.126,-743.224"/>
</g>
<!-- Node172&#45;&gt;Node44 -->
<g id="edge38" class="edge"><title>Node172&#45;&gt;Node44</title>
<path fill="none" stroke="midnightblue" d="M261.992,-738.273C235.758,-753.551 195.679,-776.892 173.394,-789.87"/>
<polygon fill="midnightblue" stroke="midnightblue" points="264.092,-741.1 270.972,-733.043 260.569,-735.051 264.092,-741.1"/>
</g>
<!-- Node172&#45;&gt;Node58 -->
<g id="edge39" class="edge"><title>Node172&#45;&gt;Node58</title>
<path fill="none" stroke="midnightblue" d="M233.231,-731.319C217.633,-733.59 201.173,-735.987 187.555,-737.969"/>
<polygon fill="midnightblue" stroke="midnightblue" points="233.927,-734.755 243.319,-729.85 232.919,-727.828 233.927,-734.755"/>
</g>
<!-- Node172&#45;&gt;Node181 -->
<g id="edge40" class="edge"><title>Node172&#45;&gt;Node181</title>
<path fill="none" stroke="midnightblue" d="M244.781,-710.979C224.846,-705.174 201.711,-698.437 184.198,-693.338"/>
<polygon fill="midnightblue" stroke="midnightblue" points="243.99,-714.393 254.569,-713.829 245.947,-707.673 243.99,-714.393"/>
</g>
<!-- Node172&#45;&gt;Node106 -->
<g id="edge41" class="edge"><title>Node172&#45;&gt;Node106</title>
<path fill="none" stroke="midnightblue" d="M247.182,-709.733C243.983,-708.114 240.88,-706.344 238,-704.418 218.662,-691.485 218.913,-682.392 202,-666.418 191.295,-656.308 178.395,-645.548 169.156,-638.068"/>
<polygon fill="midnightblue" stroke="midnightblue" points="245.791,-712.945 256.343,-713.898 248.688,-706.573 245.791,-712.945"/>
</g>
<!-- Node183&#45;&gt;Node181 -->
<g id="edge44" class="edge"><title>Node183&#45;&gt;Node181</title>
<path fill="none" stroke="midnightblue" d="M251.717,-685.418C230.361,-685.418 203.676,-685.418 184.077,-685.418"/>
<polygon fill="midnightblue" stroke="midnightblue" points="251.717,-688.918 261.717,-685.418 251.717,-681.918 251.717,-688.918"/>
</g>
<!-- Node190&#45;&gt;Node83 -->
<g id="edge46" class="edge"><title>Node190&#45;&gt;Node83</title>
<path fill="none" stroke="midnightblue" d="M99.8374,-48.3758C86.7414,-50.5025 73.4217,-52.6656 62.5148,-54.4368"/>
<polygon fill="midnightblue" stroke="midnightblue" points="100.455,-51.8214 109.765,-46.7637 99.333,-44.912 100.455,-51.8214"/>
</g>
<!-- Node204&#45;&gt;Node8 -->
<g id="edge48" class="edge"><title>Node204&#45;&gt;Node8</title>
<path fill="none" stroke="midnightblue" d="M241.458,-1331.42C219.749,-1331.42 194.925,-1331.42 177.837,-1331.42"/>
<polygon fill="midnightblue" stroke="midnightblue" points="241.495,-1334.92 251.495,-1331.42 241.495,-1327.92 241.495,-1334.92"/>
</g>
<!-- Node206&#45;&gt;Node16 -->
<g id="edge52" class="edge"><title>Node206&#45;&gt;Node16</title>
<path fill="none" stroke="midnightblue" d="M252.071,-888.66C247.319,-890.54 242.526,-892.491 238,-894.418 216.706,-903.485 192.76,-914.871 176.463,-922.804"/>
<polygon fill="midnightblue" stroke="midnightblue" points="253.615,-891.815 261.667,-884.93 251.078,-885.291 253.615,-891.815"/>
</g>
<!-- Node214&#45;&gt;Node8 -->
<g id="edge60" class="edge"><title>Node214&#45;&gt;Node8</title>
<path fill="none" stroke="midnightblue" d="M244.872,-1357.01C222.328,-1350.44 195.672,-1342.68 177.678,-1337.44"/>
<polygon fill="midnightblue" stroke="midnightblue" points="243.99,-1360.39 254.569,-1359.83 245.947,-1353.67 243.99,-1360.39"/>
</g>
<!-- Node214&#45;&gt;Node9 -->
<g id="edge61" class="edge"><title>Node214&#45;&gt;Node9</title>
<path fill="none" stroke="midnightblue" d="M232.649,-1365.7C197.415,-1362.79 150.778,-1357.94 110,-1350.42 95.5065,-1347.75 79.6434,-1343.69 66.5047,-1340"/>
<polygon fill="midnightblue" stroke="midnightblue" points="232.485,-1369.2 242.733,-1366.51 233.044,-1362.22 232.485,-1369.2"/>
</g>
<!-- Node215&#45;&gt;Node190 -->
<g id="edge64" class="edge"><title>Node215&#45;&gt;Node190</title>
<path fill="none" stroke="midnightblue" d="M248.665,-39.4178C234.074,-39.4178 217.364,-39.4178 202.241,-39.4178"/>
<polygon fill="midnightblue" stroke="midnightblue" points="248.861,-42.9179 258.861,-39.4178 248.861,-35.9179 248.861,-42.9179"/>
</g>
</g>
</svg>
