<?xml version="1.0" encoding="UTF-8" standalone="no"?>
<!DOCTYPE svg PUBLIC "-//W3C//DTD SVG 1.1//EN"
 "http://www.w3.org/Graphics/SVG/1.1/DTD/svg11.dtd">
<!-- Generated by graphviz version 2.38.0 (20140413.2041)
 -->
<!-- Title: SParser Pages: 1 -->
<svg width="820pt" height="675pt"
 viewBox="0.00 0.00 820.00 675.00" xmlns="http://www.w3.org/2000/svg" xmlns:xlink="http://www.w3.org/1999/xlink">
<g id="graph0" class="graph" transform="scale(1 1) rotate(0) translate(4 671)">
<title>SParser</title>
<polygon fill="white" stroke="none" points="-4,4 -4,-671 816,-671 816,4 -4,4"/>
<!-- Node1 -->
<g id="node1" class="node"><title>Node1</title>
<g id="a_node1"><a xlink:title=" ">
<polygon fill="#bfbfbf" stroke="black" points="364,-0.5 364,-19.5 416,-19.5 416,-0.5 364,-0.5"/>
<text text-anchor="middle" x="390" y="-7.5" font-family="Helvetica,sans-Serif" font-size="10.00">SParser</text>
</a>
</g>
</g>
<!-- Node2 -->
<g id="node2" class="node"><title>Node2</title>
<g id="a_node2"><a xlink:href="struct_dyndata.html" target="_top" xlink:title=" ">
<polygon fill="white" stroke="black" points="243.5,-147.5 243.5,-166.5 296.5,-166.5 296.5,-147.5 243.5,-147.5"/>
<text text-anchor="middle" x="270" y="-154.5" font-family="Helvetica,sans-Serif" font-size="10.00">Dyndata</text>
</a>
</g>
</g>
<!-- Node2&#45;&gt;Node1 -->
<g id="edge1" class="edge"><title>Node2&#45;&gt;Node1</title>
<path fill="none" stroke="#9a32cd" stroke-dasharray="5,2" d="M283.833,-139.286C309.4,-108.391 363.224,-43.354 382.739,-19.7743"/>
<polygon fill="#9a32cd" stroke="#9a32cd" points="280.827,-137.428 277.147,-147.364 286.219,-141.891 280.827,-137.428"/>
<text text-anchor="middle" x="351.5" y="-75.5" font-family="Helvetica,sans-Serif" font-size="10.00"> dyd</text>
</g>
<!-- Node3 -->
<g id="node3" class="node"><title>Node3</title>
<g id="a_node3"><a xlink:href="struct_labellist.html" target="_top" xlink:title=" ">
<polygon fill="white" stroke="black" points="172.5,-236.5 172.5,-255.5 225.5,-255.5 225.5,-236.5 172.5,-236.5"/>
<text text-anchor="middle" x="199" y="-243.5" font-family="Helvetica,sans-Serif" font-size="10.00">Labellist</text>
</a>
</g>
</g>
<!-- Node3&#45;&gt;Node2 -->
<g id="edge2" class="edge"><title>Node3&#45;&gt;Node2</title>
<path fill="none" stroke="#9a32cd" stroke-dasharray="5,2" d="M211.43,-227.925C220.463,-215.735 233.133,-199.074 245,-185 250.271,-178.749 256.521,-171.999 261.453,-166.811"/>
<polygon fill="#9a32cd" stroke="#9a32cd" points="208.408,-226.127 205.306,-236.258 214.049,-230.273 208.408,-226.127"/>
<text text-anchor="middle" x="255.5" y="-204.5" font-family="Helvetica,sans-Serif" font-size="10.00"> gt</text>
<text text-anchor="middle" x="255.5" y="-193.5" font-family="Helvetica,sans-Serif" font-size="10.00">label</text>
</g>
<!-- Node4 -->
<g id="node4" class="node"><title>Node4</title>
<g id="a_node4"><a xlink:href="struct_labeldesc.html" target="_top" xlink:title=" ">
<polygon fill="white" stroke="black" points="168.5,-354 168.5,-373 229.5,-373 229.5,-354 168.5,-354"/>
<text text-anchor="middle" x="199" y="-361" font-family="Helvetica,sans-Serif" font-size="10.00">Labeldesc</text>
</a>
</g>
</g>
<!-- Node4&#45;&gt;Node3 -->
<g id="edge3" class="edge"><title>Node4&#45;&gt;Node3</title>
<path fill="none" stroke="#9a32cd" stroke-dasharray="5,2" d="M199,-343.664C199,-318.365 199,-274.435 199,-255.782"/>
<polygon fill="#9a32cd" stroke="#9a32cd" points="195.5,-343.819 199,-353.819 202.5,-343.819 195.5,-343.819"/>
<text text-anchor="middle" x="206.5" y="-277" font-family="Helvetica,sans-Serif" font-size="10.00"> arr</text>
</g>
<!-- Node5 -->
<g id="node5" class="node"><title>Node5</title>
<g id="a_node5"><a xlink:href="struct_t_string.html" target="_top" xlink:title=" ">
<polygon fill="white" stroke="black" points="74.5,-493.5 74.5,-512.5 121.5,-512.5 121.5,-493.5 74.5,-493.5"/>
<text text-anchor="middle" x="98" y="-500.5" font-family="Helvetica,sans-Serif" font-size="10.00">TString</text>
</a>
</g>
</g>
<!-- Node5&#45;&gt;Node4 -->
<g id="edge4" class="edge"><title>Node5&#45;&gt;Node4</title>
<path fill="none" stroke="#9a32cd" stroke-dasharray="5,2" d="M110.259,-485.311C131.925,-455.815 176.249,-395.472 192.684,-373.098"/>
<polygon fill="#9a32cd" stroke="#9a32cd" points="107.417,-483.267 104.318,-493.399 113.059,-487.411 107.417,-483.267"/>
<text text-anchor="middle" x="154" y="-456" font-family="Helvetica,sans-Serif" font-size="10.00"> name</text>
</g>
<!-- Node5&#45;&gt;Node5 -->
<g id="edge5" class="edge"><title>Node5&#45;&gt;Node5</title>
<path fill="none" stroke="#9a32cd" stroke-dasharray="5,2" d="M132.015,-509.287C136.515,-508.216 139.5,-506.121 139.5,-503 139.5,-497.879 131.46,-495.518 121.882,-495.918"/>
<polygon fill="#9a32cd" stroke="#9a32cd" points="131.578,-505.81 121.882,-510.082 132.125,-512.789 131.578,-505.81"/>
<text text-anchor="middle" x="153.5" y="-500.5" font-family="Helvetica,sans-Serif" font-size="10.00"> hnext</text>
</g>
<!-- Node12 -->
<g id="node12" class="node"><title>Node12</title>
<g id="a_node12"><a xlink:href="structglobal___state.html" target="_top" xlink:title=" ">
<polygon fill="white" stroke="black" points="314.5,-236.5 314.5,-255.5 385.5,-255.5 385.5,-236.5 314.5,-236.5"/>
<text text-anchor="middle" x="350" y="-243.5" font-family="Helvetica,sans-Serif" font-size="10.00">global_State</text>
</a>
</g>
</g>
<!-- Node5&#45;&gt;Node12 -->
<g id="edge19" class="edge"><title>Node5&#45;&gt;Node12</title>
<path fill="none" stroke="#9a32cd" stroke-dasharray="5,2" d="M92.5921,-483.577C82.6253,-445.501 65.917,-357.174 107,-303 161.652,-230.934 216.013,-272.174 305,-256 307.979,-255.459 311.065,-254.88 314.16,-254.286"/>
<polygon fill="#9a32cd" stroke="#9a32cd" points="89.2433,-484.599 95.2845,-493.303 95.9895,-482.731 89.2433,-484.599"/>
<text text-anchor="middle" x="133" y="-372" font-family="Helvetica,sans-Serif" font-size="10.00"> strcache</text>
<text text-anchor="middle" x="133" y="-361" font-family="Helvetica,sans-Serif" font-size="10.00">tmname</text>
<text text-anchor="middle" x="133" y="-350" font-family="Helvetica,sans-Serif" font-size="10.00">memerrmsg</text>
</g>
<!-- Node13 -->
<g id="node13" class="node"><title>Node13</title>
<g id="a_node13"><a xlink:href="structstringtable.html" target="_top" xlink:title=" ">
<polygon fill="white" stroke="black" points="0,-354 0,-373 62,-373 62,-354 0,-354"/>
<text text-anchor="middle" x="31" y="-361" font-family="Helvetica,sans-Serif" font-size="10.00">stringtable</text>
</a>
</g>
</g>
<!-- Node5&#45;&gt;Node13 -->
<g id="edge18" class="edge"><title>Node5&#45;&gt;Node13</title>
<path fill="none" stroke="#9a32cd" stroke-dasharray="5,2" d="M71.6086,-487.642C66.8497,-484.049 62.3455,-479.82 59,-475 36.3195,-442.321 31.9933,-392.838 31.1813,-373.085"/>
<polygon fill="#9a32cd" stroke="#9a32cd" points="69.9939,-490.772 80.2543,-493.413 73.8802,-484.95 69.9939,-490.772"/>
<text text-anchor="middle" x="71.5" y="-456" font-family="Helvetica,sans-Serif" font-size="10.00"> hash</text>
</g>
<!-- Node6 -->
<g id="node6" class="node"><title>Node6</title>
<g id="a_node6"><a xlink:href="struct_vardesc.html" target="_top" xlink:title=" ">
<polygon fill="white" stroke="black" points="243.5,-236.5 243.5,-255.5 296.5,-255.5 296.5,-236.5 243.5,-236.5"/>
<text text-anchor="middle" x="270" y="-243.5" font-family="Helvetica,sans-Serif" font-size="10.00">Vardesc</text>
</a>
</g>
</g>
<!-- Node6&#45;&gt;Node2 -->
<g id="edge6" class="edge"><title>Node6&#45;&gt;Node2</title>
<path fill="none" stroke="#9a32cd" stroke-dasharray="5,2" d="M270,-226.195C270,-207.738 270,-180.412 270,-166.625"/>
<polygon fill="#9a32cd" stroke="#9a32cd" points="266.5,-226.34 270,-236.34 273.5,-226.34 266.5,-226.34"/>
<text text-anchor="middle" x="277.5" y="-199" font-family="Helvetica,sans-Serif" font-size="10.00"> arr</text>
</g>
<!-- Node7 -->
<g id="node7" class="node"><title>Node7</title>
<g id="a_node7"><a xlink:href="struct_zio.html" target="_top" xlink:title=" ">
<polygon fill="white" stroke="black" points="375.5,-68.5 375.5,-87.5 404.5,-87.5 404.5,-68.5 375.5,-68.5"/>
<text text-anchor="middle" x="390" y="-75.5" font-family="Helvetica,sans-Serif" font-size="10.00">Zio</text>
</a>
</g>
</g>
<!-- Node7&#45;&gt;Node1 -->
<g id="edge7" class="edge"><title>Node7&#45;&gt;Node1</title>
<path fill="none" stroke="#9a32cd" stroke-dasharray="5,2" d="M390,-58.0413C390,-45.4724 390,-29.5631 390,-19.8411"/>
<polygon fill="#9a32cd" stroke="#9a32cd" points="386.5,-58.3716 390,-68.3717 393.5,-58.3717 386.5,-58.3716"/>
<text text-anchor="middle" x="394.5" y="-41" font-family="Helvetica,sans-Serif" font-size="10.00"> z</text>
</g>
<!-- Node8 -->
<g id="node8" class="node"><title>Node8</title>
<g id="a_node8"><a xlink:href="structlua___state.html" target="_top" xlink:title=" ">
<polygon fill="white" stroke="black" points="497,-147.5 497,-166.5 555,-166.5 555,-147.5 497,-147.5"/>
<text text-anchor="middle" x="526" y="-154.5" font-family="Helvetica,sans-Serif" font-size="10.00">lua_State</text>
</a>
</g>
</g>
<!-- Node8&#45;&gt;Node7 -->
<g id="edge8" class="edge"><title>Node8&#45;&gt;Node7</title>
<path fill="none" stroke="#9a32cd" stroke-dasharray="5,2" d="M502.123,-142.481C473.988,-126.552 428.12,-100.583 404.728,-87.3387"/>
<polygon fill="#9a32cd" stroke="#9a32cd" points="500.499,-145.584 510.926,-147.465 503.948,-139.493 500.499,-145.584"/>
<text text-anchor="middle" x="494.5" y="-121" font-family="Helvetica,sans-Serif" font-size="10.00"> reader</text>
<text text-anchor="middle" x="494.5" y="-110" font-family="Helvetica,sans-Serif" font-size="10.00">L</text>
</g>
<!-- Node8&#45;&gt;Node8 -->
<g id="edge31" class="edge"><title>Node8&#45;&gt;Node8</title>
<path fill="none" stroke="#9a32cd" stroke-dasharray="5,2" d="M565.603,-163.038C570.091,-161.907 573,-159.895 573,-157 573,-152.25 565.167,-149.875 555.375,-149.875"/>
<polygon fill="#9a32cd" stroke="#9a32cd" points="564.949,-159.588 555.375,-164.125 565.689,-166.548 564.949,-159.588"/>
<text text-anchor="middle" x="587.5" y="-154.5" font-family="Helvetica,sans-Serif" font-size="10.00"> twups</text>
</g>
<!-- Node8&#45;&gt;Node12 -->
<g id="edge29" class="edge"><title>Node8&#45;&gt;Node12</title>
<path fill="none" stroke="#9a32cd" stroke-dasharray="5,2" d="M486.89,-168.219C472.977,-172.539 457.44,-178.17 444,-185 421.569,-196.4 419.219,-204.478 398,-218 387.679,-224.577 375.679,-231.327 366.259,-236.433"/>
<polygon fill="#9a32cd" stroke="#9a32cd" points="488.092,-171.513 496.679,-165.307 486.096,-164.803 488.092,-171.513"/>
<text text-anchor="middle" x="468.5" y="-210" font-family="Helvetica,sans-Serif" font-size="10.00"> panic</text>
<text text-anchor="middle" x="468.5" y="-199" font-family="Helvetica,sans-Serif" font-size="10.00">mainthread</text>
<text text-anchor="middle" x="468.5" y="-188" font-family="Helvetica,sans-Serif" font-size="10.00">twups</text>
</g>
<!-- Node18 -->
<g id="node18" class="node"><title>Node18</title>
<g id="a_node18"><a xlink:href="struct_call_info.html" target="_top" xlink:title=" ">
<polygon fill="white" stroke="black" points="534,-68.5 534,-87.5 582,-87.5 582,-68.5 534,-68.5"/>
<text text-anchor="middle" x="558" y="-75.5" font-family="Helvetica,sans-Serif" font-size="10.00">CallInfo</text>
</a>
</g>
</g>
<!-- Node8&#45;&gt;Node18 -->
<g id="edge34" class="edge"><title>Node8&#45;&gt;Node18</title>
<path fill="none" stroke="#9a32cd" stroke-dasharray="5,2" d="M522.969,-137.247C522.269,-127.777 522.733,-116.346 527,-107 530.614,-99.0834 537.652,-92.4362 544.109,-87.6079"/>
<polygon fill="#9a32cd" stroke="#9a32cd" points="519.5,-137.71 524.169,-147.22 526.449,-136.874 519.5,-137.71"/>
<text text-anchor="middle" x="531.5" y="-115.5" font-family="Helvetica,sans-Serif" font-size="10.00"> k</text>
</g>
<!-- Node9 -->
<g id="node9" class="node"><title>Node9</title>
<g id="a_node9"><a xlink:href="struct_up_val.html" target="_top" xlink:title=" ">
<polygon fill="white" stroke="black" points="499.5,-531.5 499.5,-550.5 542.5,-550.5 542.5,-531.5 499.5,-531.5"/>
<text text-anchor="middle" x="521" y="-538.5" font-family="Helvetica,sans-Serif" font-size="10.00">UpVal</text>
</a>
</g>
</g>
<!-- Node9&#45;&gt;Node8 -->
<g id="edge9" class="edge"><title>Node9&#45;&gt;Node8</title>
<path fill="none" stroke="#9a32cd" stroke-dasharray="5,2" d="M523.329,-521.334C528.477,-477.954 540.13,-366.954 537,-274 535.666,-234.377 535.951,-224.335 531,-185 530.238,-178.946 528.988,-172.196 527.928,-166.959"/>
<polygon fill="#9a32cd" stroke="#9a32cd" points="519.852,-520.933 522.12,-531.282 526.801,-521.778 519.852,-520.933"/>
<text text-anchor="middle" x="561" y="-361" font-family="Helvetica,sans-Serif" font-size="10.00"> openupval</text>
</g>
<!-- Node9&#45;&gt;Node9 -->
<g id="edge10" class="edge"><title>Node9&#45;&gt;Node9</title>
<path fill="none" stroke="#9a32cd" stroke-dasharray="5,2" d="M552.809,-547.42C557.406,-546.397 560.5,-544.256 560.5,-541 560.5,-535.656 552.168,-533.318 542.534,-533.986"/>
<polygon fill="#9a32cd" stroke="#9a32cd" points="552.316,-543.943 542.534,-548.014 552.719,-550.931 552.316,-543.943"/>
<text text-anchor="middle" x="571.5" y="-538.5" font-family="Helvetica,sans-Serif" font-size="10.00"> next</text>
</g>
<!-- Node10 -->
<g id="node10" class="node"><title>Node10</title>
<g id="a_node10"><a xlink:href="structlua___t_value.html" target="_top" xlink:title=" ">
<polygon fill="white" stroke="black" points="404.5,-647.5 404.5,-666.5 469.5,-666.5 469.5,-647.5 404.5,-647.5"/>
<text text-anchor="middle" x="437" y="-654.5" font-family="Helvetica,sans-Serif" font-size="10.00">lua_TValue</text>
</a>
</g>
</g>
<!-- Node10&#45;&gt;Node8 -->
<g id="edge12" class="edge"><title>Node10&#45;&gt;Node8</title>
<path fill="none" stroke="#9a32cd" stroke-dasharray="5,2" d="M479.893,-653.623C560.377,-647.984 726,-630.271 726,-580 726,-580 726,-580 726,-245 726,-171.352 610.551,-159.394 555.082,-157.899"/>
<polygon fill="#9a32cd" stroke="#9a32cd" points="479.335,-650.153 469.59,-654.312 479.801,-657.137 479.335,-650.153"/>
<text text-anchor="middle" x="749" y="-467" font-family="Helvetica,sans-Serif" font-size="10.00"> stack</text>
<text text-anchor="middle" x="749" y="-456" font-family="Helvetica,sans-Serif" font-size="10.00">stack_last</text>
<text text-anchor="middle" x="749" y="-445" font-family="Helvetica,sans-Serif" font-size="10.00">top</text>
</g>
<!-- Node10&#45;&gt;Node9 -->
<g id="edge11" class="edge"><title>Node10&#45;&gt;Node9</title>
<path fill="none" stroke="#9a32cd" stroke-dasharray="5,2" d="M449.478,-639.173C451.971,-635.805 454.571,-632.291 457,-629 478.159,-600.337 503.164,-566.297 514.651,-550.651"/>
<polygon fill="#9a32cd" stroke="#9a32cd" points="446.454,-637.375 443.313,-647.493 452.078,-641.542 446.454,-637.375"/>
<text text-anchor="middle" x="485.5" y="-621" font-family="Helvetica,sans-Serif" font-size="10.00"> value</text>
<text text-anchor="middle" x="485.5" y="-610" font-family="Helvetica,sans-Serif" font-size="10.00">v</text>
</g>
<!-- Node10&#45;&gt;Node12 -->
<g id="edge16" class="edge"><title>Node10&#45;&gt;Node12</title>
<path fill="none" stroke="#9a32cd" stroke-dasharray="5,2" d="M394.011,-655.703C341.05,-652.804 258,-638.872 258,-580 258,-580 258,-580 258,-362.5 258,-334.149 264.321,-325.926 281,-303 295.885,-282.54 320.016,-265.312 335.438,-255.572"/>
<polygon fill="#9a32cd" stroke="#9a32cd" points="394.026,-659.207 404.169,-656.146 394.331,-652.214 394.026,-659.207"/>
<text text-anchor="middle" x="279.5" y="-500.5" font-family="Helvetica,sans-Serif" font-size="10.00"> l_registry</text>
</g>
<!-- Node14 -->
<g id="node14" class="node"><title>Node14</title>
<g id="a_node14"><a xlink:href="struct_table.html" target="_top" xlink:title=" ">
<polygon fill="white" stroke="black" points="290,-354 290,-373 330,-373 330,-354 290,-354"/>
<text text-anchor="middle" x="310" y="-361" font-family="Helvetica,sans-Serif" font-size="10.00">Table</text>
</a>
</g>
</g>
<!-- Node10&#45;&gt;Node14 -->
<g id="edge25" class="edge"><title>Node10&#45;&gt;Node14</title>
<path fill="none" stroke="#9a32cd" stroke-dasharray="5,2" d="M409.162,-642.368C403.061,-638.58 396.953,-634.088 392,-629 364.236,-600.481 363.191,-587.789 348,-551 321.137,-485.945 312.669,-400.036 310.582,-373.012"/>
<polygon fill="#9a32cd" stroke="#9a32cd" points="407.542,-645.474 417.96,-647.401 411.018,-639.398 407.542,-645.474"/>
<text text-anchor="middle" x="360.5" y="-538.5" font-family="Helvetica,sans-Serif" font-size="10.00"> array</text>
</g>
<!-- Node15 -->
<g id="node15" class="node"><title>Node15</title>
<g id="a_node15"><a xlink:href="struct_node.html" target="_top" xlink:title=" ">
<polygon fill="white" stroke="black" points="357.5,-493.5 357.5,-512.5 396.5,-512.5 396.5,-493.5 357.5,-493.5"/>
<text text-anchor="middle" x="377" y="-500.5" font-family="Helvetica,sans-Serif" font-size="10.00">Node</text>
</a>
</g>
</g>
<!-- Node10&#45;&gt;Node15 -->
<g id="edge22" class="edge"><title>Node10&#45;&gt;Node15</title>
<path fill="none" stroke="#9a32cd" stroke-dasharray="5,2" d="M420.81,-640.081C409.015,-627.415 393.79,-608.615 386,-589 375.538,-562.658 375.677,-528.308 376.423,-512.562"/>
<polygon fill="#9a32cd" stroke="#9a32cd" points="418.485,-642.712 427.954,-647.466 423.516,-637.845 418.485,-642.712"/>
<text text-anchor="middle" x="397" y="-576.5" font-family="Helvetica,sans-Serif" font-size="10.00"> i_val</text>
</g>
<!-- Node16 -->
<g id="node16" class="node"><title>Node16</title>
<g id="a_node16"><a xlink:href="union_t_key.html" target="_top" xlink:title=" ">
<polygon fill="white" stroke="black" points="417.5,-569.5 417.5,-588.5 456.5,-588.5 456.5,-569.5 417.5,-569.5"/>
<text text-anchor="middle" x="437" y="-576.5" font-family="Helvetica,sans-Serif" font-size="10.00">TKey</text>
</a>
</g>
</g>
<!-- Node10&#45;&gt;Node16 -->
<g id="edge24" class="edge"><title>Node10&#45;&gt;Node16</title>
<path fill="none" stroke="#9a32cd" stroke-dasharray="5,2" d="M437,-637.224C437,-621.697 437,-600.358 437,-588.616"/>
<polygon fill="#9a32cd" stroke="#9a32cd" points="433.5,-637.282 437,-647.282 440.5,-637.282 433.5,-637.282"/>
<text text-anchor="middle" x="445" y="-615.5" font-family="Helvetica,sans-Serif" font-size="10.00"> tvk</text>
</g>
<!-- Node10&#45;&gt;Node18 -->
<g id="edge33" class="edge"><title>Node10&#45;&gt;Node18</title>
<path fill="none" stroke="#9a32cd" stroke-dasharray="5,2" d="M479.86,-655.608C573.29,-653.595 787,-642.193 787,-580 787,-580 787,-580 787,-156 787,-113.112 640.869,-89.6086 582.074,-81.8878"/>
<polygon fill="#9a32cd" stroke="#9a32cd" points="479.545,-652.114 469.613,-655.802 479.677,-659.112 479.545,-652.114"/>
<text text-anchor="middle" x="799.5" y="-372" font-family="Helvetica,sans-Serif" font-size="10.00"> base</text>
<text text-anchor="middle" x="799.5" y="-361" font-family="Helvetica,sans-Serif" font-size="10.00">func</text>
<text text-anchor="middle" x="799.5" y="-350" font-family="Helvetica,sans-Serif" font-size="10.00">top</text>
</g>
<!-- Node11 -->
<g id="node11" class="node"><title>Node11</title>
<g id="a_node11"><a xlink:href="structlua__longjmp.html" target="_top" xlink:title=" ">
<polygon fill="white" stroke="black" points="573,-236.5 573,-255.5 641,-255.5 641,-236.5 573,-236.5"/>
<text text-anchor="middle" x="607" y="-243.5" font-family="Helvetica,sans-Serif" font-size="10.00">lua_longjmp</text>
</a>
</g>
</g>
<!-- Node11&#45;&gt;Node8 -->
<g id="edge13" class="edge"><title>Node11&#45;&gt;Node8</title>
<path fill="none" stroke="#9a32cd" stroke-dasharray="5,2" d="M595.086,-228.238C585.864,-215.751 572.436,-198.585 559,-185 552.441,-178.369 544.344,-171.724 537.813,-166.686"/>
<polygon fill="#9a32cd" stroke="#9a32cd" points="592.292,-230.348 600.998,-236.386 597.958,-226.236 592.292,-230.348"/>
<text text-anchor="middle" x="607.5" y="-199" font-family="Helvetica,sans-Serif" font-size="10.00"> errorJmp</text>
</g>
<!-- Node11&#45;&gt;Node11 -->
<g id="edge14" class="edge"><title>Node11&#45;&gt;Node11</title>
<path fill="none" stroke="#9a32cd" stroke-dasharray="5,2" d="M651.148,-251.019C655.925,-250.056 659,-248.383 659,-246 659,-242.188 651.127,-240.192 641.008,-240.013"/>
<polygon fill="#9a32cd" stroke="#9a32cd" points="650.631,-247.553 641.008,-251.987 651.296,-254.521 650.631,-247.553"/>
<text text-anchor="middle" x="678.5" y="-243.5" font-family="Helvetica,sans-Serif" font-size="10.00"> previous</text>
</g>
<!-- Node12&#45;&gt;Node8 -->
<g id="edge15" class="edge"><title>Node12&#45;&gt;Node8</title>
<path fill="none" stroke="#9a32cd" stroke-dasharray="5,2" d="M354.087,-226.729C358.105,-213.112 365.639,-195.181 379,-185 397.111,-171.2 459.476,-163.632 496.907,-160.237"/>
<polygon fill="#9a32cd" stroke="#9a32cd" points="350.677,-225.936 351.573,-236.493 357.456,-227.681 350.677,-225.936"/>
<text text-anchor="middle" x="388.5" y="-199" font-family="Helvetica,sans-Serif" font-size="10.00"> l_G</text>
</g>
<!-- Node13&#45;&gt;Node12 -->
<g id="edge17" class="edge"><title>Node13&#45;&gt;Node12</title>
<path fill="none" stroke="#9a32cd" stroke-dasharray="5,2" d="M32.6896,-343.803C35.6503,-323.061 43.7725,-290.366 66,-274 87.4447,-258.21 278.616,-259.618 305,-256 307.999,-255.589 311.1,-255.101 314.205,-254.569"/>
<polygon fill="#9a32cd" stroke="#9a32cd" points="29.192,-343.581 31.5189,-353.917 36.1456,-344.386 29.192,-343.581"/>
<text text-anchor="middle" x="75" y="-277" font-family="Helvetica,sans-Serif" font-size="10.00"> strt</text>
</g>
<!-- Node14&#45;&gt;Node12 -->
<g id="edge20" class="edge"><title>Node14&#45;&gt;Node12</title>
<path fill="none" stroke="#9a32cd" stroke-dasharray="5,2" d="M316.288,-344.343C325.01,-319.159 340.44,-274.603 346.959,-255.782"/>
<polygon fill="#9a32cd" stroke="#9a32cd" points="312.972,-343.224 313.007,-353.819 319.586,-345.515 312.972,-343.224"/>
<text text-anchor="middle" x="348.5" y="-277" font-family="Helvetica,sans-Serif" font-size="10.00"> mt</text>
</g>
<!-- Node14&#45;&gt;Node14 -->
<g id="edge26" class="edge"><title>Node14&#45;&gt;Node14</title>
<path fill="none" stroke="#9a32cd" stroke-dasharray="5,2" d="M327.097,-378.106C337.793,-381.699 348,-376.83 348,-363.5 348,-346.438 331.276,-343.238 318.21,-353.902"/>
<polygon fill="#9a32cd" stroke="#9a32cd" points="328.641,-374.958 318.21,-373.098 325.204,-381.057 328.641,-374.958"/>
<text text-anchor="middle" x="371" y="-361" font-family="Helvetica,sans-Serif" font-size="10.00"> metatable</text>
</g>
<!-- Node15&#45;&gt;Node14 -->
<g id="edge21" class="edge"><title>Node15&#45;&gt;Node14</title>
<path fill="none" stroke="#9a32cd" stroke-dasharray="5,2" d="M356.252,-486.736C352.452,-483.212 348.806,-479.241 346,-475 323.731,-441.348 314.284,-392.834 311.217,-373.219"/>
<polygon fill="#9a32cd" stroke="#9a32cd" points="354.141,-489.534 364.051,-493.283 358.642,-484.173 354.141,-489.534"/>
<text text-anchor="middle" x="362" y="-461.5" font-family="Helvetica,sans-Serif" font-size="10.00"> node</text>
<text text-anchor="middle" x="362" y="-450.5" font-family="Helvetica,sans-Serif" font-size="10.00">lastfree</text>
</g>
<!-- Node16&#45;&gt;Node15 -->
<g id="edge23" class="edge"><title>Node16&#45;&gt;Node15</title>
<path fill="none" stroke="#9a32cd" stroke-dasharray="5,2" d="M423.397,-561.223C411.191,-546.169 393.757,-524.667 384.109,-512.768"/>
<polygon fill="#9a32cd" stroke="#9a32cd" points="420.865,-563.657 429.882,-569.221 426.302,-559.249 420.865,-563.657"/>
<text text-anchor="middle" x="428.5" y="-538.5" font-family="Helvetica,sans-Serif" font-size="10.00"> i_key</text>
</g>
<!-- Node17 -->
<g id="node17" class="node"><title>Node17</title>
<g id="a_node17"><a xlink:href="struct_g_c_object.html" target="_top" xlink:title=" ">
<polygon fill="white" stroke="black" points="414.5,-493.5 414.5,-512.5 473.5,-512.5 473.5,-493.5 414.5,-493.5"/>
<text text-anchor="middle" x="444" y="-500.5" font-family="Helvetica,sans-Serif" font-size="10.00">GCObject</text>
</a>
</g>
</g>
<!-- Node17&#45;&gt;Node8 -->
<g id="edge30" class="edge"><title>Node17&#45;&gt;Node8</title>
<path fill="none" stroke="#9a32cd" stroke-dasharray="5,2" d="M456.985,-485.192C467.952,-470.058 483.099,-446.758 491,-424 513.039,-360.517 501.187,-340.619 510,-274 515.306,-233.894 522.031,-186.046 524.763,-166.727"/>
<polygon fill="#9a32cd" stroke="#9a32cd" points="453.974,-483.375 450.798,-493.482 459.584,-487.561 453.974,-483.375"/>
<text text-anchor="middle" x="523.5" y="-277" font-family="Helvetica,sans-Serif" font-size="10.00"> gclist</text>
</g>
<!-- Node17&#45;&gt;Node12 -->
<g id="edge28" class="edge"><title>Node17&#45;&gt;Node12</title>
<path fill="none" stroke="#9a32cd" stroke-dasharray="5,2" d="M443.517,-483.317C441.868,-446.678 434.634,-363.683 403,-303 392.728,-283.296 373.493,-265.599 361.237,-255.591"/>
<polygon fill="#9a32cd" stroke="#9a32cd" points="440.025,-483.628 443.88,-493.497 447.021,-483.378 440.025,-483.628"/>
<text text-anchor="middle" x="462.5" y="-416" font-family="Helvetica,sans-Serif" font-size="10.00"> fixedgc</text>
<text text-anchor="middle" x="462.5" y="-405" font-family="Helvetica,sans-Serif" font-size="10.00">gray</text>
<text text-anchor="middle" x="462.5" y="-394" font-family="Helvetica,sans-Serif" font-size="10.00">grayagain</text>
<text text-anchor="middle" x="462.5" y="-383" font-family="Helvetica,sans-Serif" font-size="10.00">tobefnz</text>
<text text-anchor="middle" x="462.5" y="-372" font-family="Helvetica,sans-Serif" font-size="10.00">allgc</text>
<text text-anchor="middle" x="462.5" y="-361" font-family="Helvetica,sans-Serif" font-size="10.00">weak</text>
<text text-anchor="middle" x="462.5" y="-350" font-family="Helvetica,sans-Serif" font-size="10.00">ephemeron</text>
<text text-anchor="middle" x="462.5" y="-339" font-family="Helvetica,sans-Serif" font-size="10.00">finobj</text>
<text text-anchor="middle" x="462.5" y="-328" font-family="Helvetica,sans-Serif" font-size="10.00">sweepgc</text>
<text text-anchor="middle" x="462.5" y="-317" font-family="Helvetica,sans-Serif" font-size="10.00">allweak</text>
<text text-anchor="middle" x="462.5" y="-306" font-family="Helvetica,sans-Serif" font-size="10.00">...</text>
</g>
<!-- Node17&#45;&gt;Node14 -->
<g id="edge27" class="edge"><title>Node17&#45;&gt;Node14</title>
<path fill="none" stroke="#9a32cd" stroke-dasharray="5,2" d="M418.352,-488.251C412.314,-484.396 406.145,-479.903 401,-475 388.059,-462.666 389.024,-456.074 378,-442 357.691,-416.071 331.447,-387.378 318.292,-373.29"/>
<polygon fill="#9a32cd" stroke="#9a32cd" points="416.593,-491.277 426.97,-493.415 420.191,-485.273 416.593,-491.277"/>
<text text-anchor="middle" x="414.5" y="-456" font-family="Helvetica,sans-Serif" font-size="10.00"> gclist</text>
</g>
<!-- Node18&#45;&gt;Node8 -->
<g id="edge32" class="edge"><title>Node18&#45;&gt;Node8</title>
<path fill="none" stroke="#9a32cd" stroke-dasharray="5,2" d="M550.464,-97.1346C543.864,-113.016 534.566,-135.388 529.547,-147.465"/>
<polygon fill="#9a32cd" stroke="#9a32cd" points="553.733,-98.3869 554.339,-87.8094 547.269,-95.7006 553.733,-98.3869"/>
<text text-anchor="middle" x="563" y="-121" font-family="Helvetica,sans-Serif" font-size="10.00"> ci</text>
<text text-anchor="middle" x="563" y="-110" font-family="Helvetica,sans-Serif" font-size="10.00">base_ci</text>
</g>
<!-- Node18&#45;&gt;Node18 -->
<g id="edge35" class="edge"><title>Node18&#45;&gt;Node18</title>
<path fill="none" stroke="#9a32cd" stroke-dasharray="5,2" d="M592.425,-83.6249C596.979,-82.6671 600,-80.7922 600,-78 600,-73.418 591.864,-71.3059 582.17,-71.6639"/>
<polygon fill="#9a32cd" stroke="#9a32cd" points="591.904,-80.1525 582.17,-84.3361 592.388,-87.1358 591.904,-80.1525"/>
<text text-anchor="middle" x="619.5" y="-81" font-family="Helvetica,sans-Serif" font-size="10.00"> previous</text>
<text text-anchor="middle" x="619.5" y="-70" font-family="Helvetica,sans-Serif" font-size="10.00">next</text>
</g>
<!-- Node19 -->
<g id="node19" class="node"><title>Node19</title>
<g id="a_node19"><a xlink:href="struct_mbuffer.html" target="_top" xlink:title=" ">
<polygon fill="white" stroke="black" points="423,-68.5 423,-87.5 471,-87.5 471,-68.5 423,-68.5"/>
<text text-anchor="middle" x="447" y="-75.5" font-family="Helvetica,sans-Serif" font-size="10.00">Mbuffer</text>
</a>
</g>
</g>
<!-- Node19&#45;&gt;Node1 -->
<g id="edge36" class="edge"><title>Node19&#45;&gt;Node1</title>
<path fill="none" stroke="#9a32cd" stroke-dasharray="5,2" d="M432.905,-60.68C421.762,-47.7768 406.632,-30.2575 397.636,-19.8411"/>
<polygon fill="#9a32cd" stroke="#9a32cd" points="430.363,-63.0911 439.548,-68.3717 435.661,-58.5157 430.363,-63.0911"/>
<text text-anchor="middle" x="431.5" y="-41" font-family="Helvetica,sans-Serif" font-size="10.00"> buff</text>
</g>
</g>
</svg>
