<?xml version="1.0" encoding="UTF-8" standalone="no"?>
<!DOCTYPE svg PUBLIC "-//W3C//DTD SVG 1.1//EN"
 "http://www.w3.org/Graphics/SVG/1.1/DTD/svg11.dtd">
<!-- Generated by graphviz version 2.38.0 (20140413.2041)
 -->
<!-- Title: Proto Pages: 1 -->
<svg width="365pt" height="240pt"
 viewBox="0.00 0.00 365.00 240.00" xmlns="http://www.w3.org/2000/svg" xmlns:xlink="http://www.w3.org/1999/xlink">
<g id="graph0" class="graph" transform="scale(1 1) rotate(0) translate(4 236)">
<title>Proto</title>
<polygon fill="white" stroke="none" points="-4,4 -4,-236 361,-236 361,4 -4,4"/>
<!-- Node1 -->
<g id="node1" class="node"><title>Node1</title>
<g id="a_node1"><a xlink:title=" ">
<polygon fill="#bfbfbf" stroke="black" points="124.5,-67.5 124.5,-86.5 164.5,-86.5 164.5,-67.5 124.5,-67.5"/>
<text text-anchor="middle" x="144.5" y="-74.5" font-family="Helvetica,sans-Serif" font-size="10.00">Proto</text>
</a>
</g>
</g>
<!-- Node1&#45;&gt;Node1 -->
<g id="edge2" class="edge"><title>Node1&#45;&gt;Node1</title>
<path fill="none" stroke="#9a32cd" stroke-dasharray="5,2" d="M174.916,-82.4421C179.44,-81.5943 182.5,-79.7803 182.5,-77 182.5,-72.4375 174.26,-70.4771 164.829,-71.1187"/>
<polygon fill="#9a32cd" stroke="#9a32cd" points="174.668,-78.9495 164.829,-82.8813 174.972,-85.9429 174.668,-78.9495"/>
<text text-anchor="middle" x="187" y="-74.5" font-family="Helvetica,sans-Serif" font-size="10.00"> p</text>
</g>
<!-- Node5 -->
<g id="node5" class="node"><title>Node5</title>
<g id="a_node5"><a xlink:href="struct_l_closure.html" target="_top" xlink:title=" ">
<polygon fill="white" stroke="black" points="85,-0.5 85,-19.5 140,-19.5 140,-0.5 85,-0.5"/>
<text text-anchor="middle" x="112.5" y="-7.5" font-family="Helvetica,sans-Serif" font-size="10.00">LClosure</text>
</a>
</g>
</g>
<!-- Node1&#45;&gt;Node5 -->
<g id="edge11" class="edge"><title>Node1&#45;&gt;Node5</title>
<path fill="none" stroke="#9a32cd" stroke-dasharray="5,2" d="M123.079,-60.6936C119.651,-57.2462 116.559,-53.314 114.5,-49 110.061,-39.699 110.289,-27.6228 111.145,-19.6074"/>
<polygon fill="#9a32cd" stroke="#9a32cd" points="121,-63.5237 130.85,-67.4264 125.584,-58.2331 121,-63.5237"/>
<text text-anchor="middle" x="119" y="-41" font-family="Helvetica,sans-Serif" font-size="10.00"> p</text>
</g>
<!-- Node2 -->
<g id="node2" class="node"><title>Node2</title>
<g id="a_node2"><a xlink:href="structlua___t_value.html" target="_top" xlink:title=" ">
<polygon fill="white" stroke="black" points="0,-145.5 0,-164.5 65,-164.5 65,-145.5 0,-145.5"/>
<text text-anchor="middle" x="32.5" y="-152.5" font-family="Helvetica,sans-Serif" font-size="10.00">lua_TValue</text>
</a>
</g>
</g>
<!-- Node2&#45;&gt;Node1 -->
<g id="edge1" class="edge"><title>Node2&#45;&gt;Node1</title>
<path fill="none" stroke="#9a32cd" stroke-dasharray="5,2" d="M47.0855,-137.388C58.0606,-125.165 72.3856,-109.867 79.5,-105 93.3171,-95.5479 110.961,-88.48 124.379,-83.9513"/>
<polygon fill="#9a32cd" stroke="#9a32cd" points="44.1772,-135.392 40.1523,-145.192 49.4104,-140.041 44.1772,-135.392"/>
<text text-anchor="middle" x="84" y="-113.5" font-family="Helvetica,sans-Serif" font-size="10.00"> k</text>
</g>
<!-- Node6 -->
<g id="node6" class="node"><title>Node6</title>
<g id="a_node6"><a xlink:href="struct_up_val.html" target="_top" xlink:title=" ">
<polygon fill="white" stroke="black" points="18,-67.5 18,-86.5 61,-86.5 61,-67.5 18,-67.5"/>
<text text-anchor="middle" x="39.5" y="-74.5" font-family="Helvetica,sans-Serif" font-size="10.00">UpVal</text>
</a>
</g>
</g>
<!-- Node2&#45;&gt;Node6 -->
<g id="edge10" class="edge"><title>Node2&#45;&gt;Node6</title>
<path fill="none" stroke="#9a32cd" stroke-dasharray="5,2" d="M30.6854,-135.301C30.1588,-126.126 30.0587,-114.938 31.5,-105 32.3982,-98.807 34.3982,-92.057 36.1736,-86.8552"/>
<polygon fill="#9a32cd" stroke="#9a32cd" points="27.1962,-135.576 31.4644,-145.273 34.1749,-135.03 27.1962,-135.576"/>
<text text-anchor="middle" x="44" y="-119" font-family="Helvetica,sans-Serif" font-size="10.00"> value</text>
<text text-anchor="middle" x="44" y="-108" font-family="Helvetica,sans-Serif" font-size="10.00">v</text>
</g>
<!-- Node3 -->
<g id="node3" class="node"><title>Node3</title>
<g id="a_node3"><a xlink:href="struct_loc_var.html" target="_top" xlink:title=" ">
<polygon fill="white" stroke="black" points="154,-145.5 154,-164.5 201,-164.5 201,-145.5 154,-145.5"/>
<text text-anchor="middle" x="177.5" y="-152.5" font-family="Helvetica,sans-Serif" font-size="10.00">LocVar</text>
</a>
</g>
</g>
<!-- Node3&#45;&gt;Node1 -->
<g id="edge3" class="edge"><title>Node3&#45;&gt;Node1</title>
<path fill="none" stroke="#9a32cd" stroke-dasharray="5,2" d="M169.543,-135.674C162.786,-120.113 153.389,-98.4722 148.241,-86.6165"/>
<polygon fill="#9a32cd" stroke="#9a32cd" points="166.521,-137.503 173.714,-145.282 172.942,-134.715 166.521,-137.503"/>
<text text-anchor="middle" x="182.5" y="-113.5" font-family="Helvetica,sans-Serif" font-size="10.00"> locvars</text>
</g>
<!-- Node4 -->
<g id="node4" class="node"><title>Node4</title>
<g id="a_node4"><a xlink:href="struct_t_string.html" target="_top" xlink:title=" ">
<polygon fill="white" stroke="black" points="154,-212.5 154,-231.5 201,-231.5 201,-212.5 154,-212.5"/>
<text text-anchor="middle" x="177.5" y="-219.5" font-family="Helvetica,sans-Serif" font-size="10.00">TString</text>
</a>
</g>
</g>
<!-- Node4&#45;&gt;Node1 -->
<g id="edge6" class="edge"><title>Node4&#45;&gt;Node1</title>
<path fill="none" stroke="#9a32cd" stroke-dasharray="5,2" d="M152.08,-207.091C137.252,-197.435 119.865,-183.068 111.5,-165 98.537,-137.001 123.287,-102.353 136.691,-86.5628"/>
<polygon fill="#9a32cd" stroke="#9a32cd" points="150.524,-210.243 160.879,-212.486 154.183,-204.275 150.524,-210.243"/>
<text text-anchor="middle" x="128" y="-152.5" font-family="Helvetica,sans-Serif" font-size="10.00"> source</text>
</g>
<!-- Node4&#45;&gt;Node3 -->
<g id="edge4" class="edge"><title>Node4&#45;&gt;Node3</title>
<path fill="none" stroke="#9a32cd" stroke-dasharray="5,2" d="M177.5,-202.037C177.5,-189.67 177.5,-174.12 177.5,-164.627"/>
<polygon fill="#9a32cd" stroke="#9a32cd" points="174,-202.234 177.5,-212.234 181,-202.234 174,-202.234"/>
<text text-anchor="middle" x="197.5" y="-186" font-family="Helvetica,sans-Serif" font-size="10.00"> varname</text>
</g>
<!-- Node4&#45;&gt;Node4 -->
<g id="edge5" class="edge"><title>Node4&#45;&gt;Node4</title>
<path fill="none" stroke="#9a32cd" stroke-dasharray="5,2" d="M211.515,-227.294C216.015,-226.393 219,-224.628 219,-222 219,-217.688 210.96,-215.7 201.382,-216.037"/>
<polygon fill="#9a32cd" stroke="#9a32cd" points="211.129,-223.812 201.382,-227.963 211.591,-230.797 211.129,-223.812"/>
<text text-anchor="middle" x="233" y="-219.5" font-family="Helvetica,sans-Serif" font-size="10.00"> hnext</text>
</g>
<!-- Node8 -->
<g id="node8" class="node"><title>Node8</title>
<g id="a_node8"><a xlink:href="struct_upvaldesc.html" target="_top" xlink:title=" ">
<polygon fill="white" stroke="black" points="219,-145.5 219,-164.5 280,-164.5 280,-145.5 219,-145.5"/>
<text text-anchor="middle" x="249.5" y="-152.5" font-family="Helvetica,sans-Serif" font-size="10.00">Upvaldesc</text>
</a>
</g>
</g>
<!-- Node4&#45;&gt;Node8 -->
<g id="edge14" class="edge"><title>Node4&#45;&gt;Node8</title>
<path fill="none" stroke="#9a32cd" stroke-dasharray="5,2" d="M203.664,-207.23C209.845,-203.376 216.179,-198.889 221.5,-194 231.035,-185.24 239.466,-172.818 244.523,-164.591"/>
<polygon fill="#9a32cd" stroke="#9a32cd" points="201.71,-204.319 194.854,-212.397 205.251,-210.357 201.71,-204.319"/>
<text text-anchor="middle" x="245.5" y="-186" font-family="Helvetica,sans-Serif" font-size="10.00"> name</text>
</g>
<!-- Node5&#45;&gt;Node1 -->
<g id="edge7" class="edge"><title>Node5&#45;&gt;Node1</title>
<path fill="none" stroke="#9a32cd" stroke-dasharray="5,2" d="M121.194,-28.6594C127.348,-41.1598 135.338,-57.3903 140.184,-67.2338"/>
<polygon fill="#9a32cd" stroke="#9a32cd" points="124.304,-27.0531 116.747,-19.6273 118.024,-30.1449 124.304,-27.0531"/>
<text text-anchor="middle" x="145.5" y="-41" font-family="Helvetica,sans-Serif" font-size="10.00"> cache</text>
</g>
<!-- Node6&#45;&gt;Node5 -->
<g id="edge8" class="edge"><title>Node6&#45;&gt;Node5</title>
<path fill="none" stroke="#9a32cd" stroke-dasharray="5,2" d="M54.0762,-59.9425C60.6861,-52.9515 68.7457,-44.8164 76.5,-38 84.0107,-31.3978 93.0107,-24.6478 100.133,-19.5483"/>
<polygon fill="#9a32cd" stroke="#9a32cd" points="51.3226,-57.7645 47.0879,-67.4762 56.4546,-62.525 51.3226,-57.7645"/>
<text text-anchor="middle" x="92" y="-41" font-family="Helvetica,sans-Serif" font-size="10.00"> upvals</text>
</g>
<!-- Node6&#45;&gt;Node6 -->
<g id="edge9" class="edge"><title>Node6&#45;&gt;Node6</title>
<path fill="none" stroke="#9a32cd" stroke-dasharray="5,2" d="M71.3088,-82.4067C75.906,-81.5444 79,-79.7422 79,-77 79,-72.5 70.668,-70.5313 61.0341,-71.0938"/>
<polygon fill="#9a32cd" stroke="#9a32cd" points="70.8523,-78.9247 61.0341,-82.9063 71.1923,-85.9164 70.8523,-78.9247"/>
<text text-anchor="middle" x="90" y="-74.5" font-family="Helvetica,sans-Serif" font-size="10.00"> next</text>
</g>
<!-- Node7 -->
<g id="node7" class="node"><title>Node7</title>
<g id="a_node7"><a xlink:href="struct_g_c_object.html" target="_top" xlink:title=" ">
<polygon fill="white" stroke="black" points="298,-145.5 298,-164.5 357,-164.5 357,-145.5 298,-145.5"/>
<text text-anchor="middle" x="327.5" y="-152.5" font-family="Helvetica,sans-Serif" font-size="10.00">GCObject</text>
</a>
</g>
</g>
<!-- Node7&#45;&gt;Node1 -->
<g id="edge12" class="edge"><title>Node7&#45;&gt;Node1</title>
<path fill="none" stroke="#9a32cd" stroke-dasharray="5,2" d="M313.402,-137.593C303.144,-126.705 288.327,-112.996 272.5,-105 237.229,-87.1796 190.771,-81.1104 164.629,-79.0508"/>
<polygon fill="#9a32cd" stroke="#9a32cd" points="310.998,-140.153 320.299,-145.227 316.193,-135.46 310.998,-140.153"/>
<text text-anchor="middle" x="316" y="-113.5" font-family="Helvetica,sans-Serif" font-size="10.00"> gclist</text>
</g>
<!-- Node8&#45;&gt;Node1 -->
<g id="edge13" class="edge"><title>Node8&#45;&gt;Node1</title>
<path fill="none" stroke="#9a32cd" stroke-dasharray="5,2" d="M236.839,-137.524C228.273,-127.194 216.233,-114.149 203.5,-105 191.608,-96.4547 176.579,-89.6256 164.666,-84.9734"/>
<polygon fill="#9a32cd" stroke="#9a32cd" points="234.175,-139.797 243.156,-145.418 239.64,-135.423 234.175,-139.797"/>
<text text-anchor="middle" x="248" y="-113.5" font-family="Helvetica,sans-Serif" font-size="10.00"> upvalues</text>
</g>
</g>
</svg>
