<?xml version="1.0" encoding="UTF-8" standalone="no"?>
<!DOCTYPE svg PUBLIC "-//W3C//DTD SVG 1.1//EN"
 "http://www.w3.org/Graphics/SVG/1.1/DTD/svg11.dtd">
<!-- Generated by graphviz version 2.38.0 (20140413.2041)
 -->
<!-- Title: FuncState Pages: 1 -->
<svg width="978pt" height="848pt"
 viewBox="0.00 0.00 978.00 847.93" xmlns="http://www.w3.org/2000/svg" xmlns:xlink="http://www.w3.org/1999/xlink">
<g id="graph0" class="graph" transform="scale(1 1) rotate(0) translate(4 843.926)">
<title>FuncState</title>
<polygon fill="white" stroke="none" points="-4,4 -4,-843.926 974,-843.926 974,4 -4,4"/>
<!-- Node1 -->
<g id="node1" class="node"><title>Node1</title>
<g id="a_node1"><a xlink:title=" ">
<polygon fill="#bfbfbf" stroke="black" points="797,-582.426 797,-601.426 859,-601.426 859,-582.426 797,-582.426"/>
<text text-anchor="middle" x="828" y="-589.426" font-family="Helvetica,sans-Serif" font-size="10.00">FuncState</text>
</a>
</g>
</g>
<!-- Node1&#45;&gt;Node1 -->
<g id="edge57" class="edge"><title>Node1&#45;&gt;Node1</title>
<path fill="none" stroke="#9a32cd" stroke-dasharray="5,2" d="M817.319,-611.692C818.158,-616.422 821.718,-619.926 828,-619.926 838.309,-619.926 841.288,-610.491 836.939,-601.683"/>
<polygon fill="#9a32cd" stroke="#9a32cd" points="820.794,-612.135 819.061,-601.683 813.898,-610.935 820.794,-612.135"/>
<text text-anchor="middle" x="828" y="-622.926" font-family="Helvetica,sans-Serif" font-size="10.00"> prev</text>
</g>
<!-- Node10 -->
<g id="node10" class="node"><title>Node10</title>
<g id="a_node10"><a xlink:href="struct_lex_state.html" target="_top" xlink:title=" ">
<polygon fill="white" stroke="black" points="914,-515.426 914,-534.426 970,-534.426 970,-515.426 914,-515.426"/>
<text text-anchor="middle" x="942" y="-522.426" font-family="Helvetica,sans-Serif" font-size="10.00">LexState</text>
</a>
</g>
</g>
<!-- Node1&#45;&gt;Node10 -->
<g id="edge54" class="edge"><title>Node1&#45;&gt;Node10</title>
<path fill="none" stroke="#9a32cd" stroke-dasharray="5,2" d="M849.303,-575.967C857.665,-569.703 867.585,-562.657 877,-556.926 890.794,-548.528 907.083,-540.407 919.775,-534.448"/>
<polygon fill="#9a32cd" stroke="#9a32cd" points="847.063,-573.274 841.239,-582.124 851.311,-578.838 847.063,-573.274"/>
<text text-anchor="middle" x="886.5" y="-559.926" font-family="Helvetica,sans-Serif" font-size="10.00"> fs</text>
</g>
<!-- Node2 -->
<g id="node2" class="node"><title>Node2</title>
<g id="a_node2"><a xlink:href="struct_proto.html" target="_top" xlink:title=" ">
<polygon fill="white" stroke="black" points="514.5,-582.426 514.5,-601.426 554.5,-601.426 554.5,-582.426 514.5,-582.426"/>
<text text-anchor="middle" x="534.5" y="-589.426" font-family="Helvetica,sans-Serif" font-size="10.00">Proto</text>
</a>
</g>
</g>
<!-- Node2&#45;&gt;Node1 -->
<g id="edge1" class="edge"><title>Node2&#45;&gt;Node1</title>
<path fill="none" stroke="#9a32cd" stroke-dasharray="5,2" d="M564.849,-591.926C620.458,-591.926 740.629,-591.926 796.851,-591.926"/>
<polygon fill="#9a32cd" stroke="#9a32cd" points="564.626,-588.426 554.626,-591.926 564.626,-595.426 564.626,-588.426"/>
<text text-anchor="middle" x="684" y="-594.926" font-family="Helvetica,sans-Serif" font-size="10.00"> f</text>
</g>
<!-- Node2&#45;&gt;Node2 -->
<g id="edge3" class="edge"><title>Node2&#45;&gt;Node2</title>
<path fill="none" stroke="#9a32cd" stroke-dasharray="5,2" d="M520.872,-611.692C521.943,-616.422 526.485,-619.926 534.5,-619.926 547.652,-619.926 551.454,-610.491 545.906,-601.683"/>
<polygon fill="#9a32cd" stroke="#9a32cd" points="524.344,-612.204 523.094,-601.683 517.51,-610.687 524.344,-612.204"/>
<text text-anchor="middle" x="534.5" y="-622.926" font-family="Helvetica,sans-Serif" font-size="10.00"> p</text>
</g>
<!-- Node6 -->
<g id="node6" class="node"><title>Node6</title>
<g id="a_node6"><a xlink:href="struct_l_closure.html" target="_top" xlink:title=" ">
<polygon fill="white" stroke="black" points="656.5,-522.426 656.5,-541.426 711.5,-541.426 711.5,-522.426 656.5,-522.426"/>
<text text-anchor="middle" x="684" y="-529.426" font-family="Helvetica,sans-Serif" font-size="10.00">LClosure</text>
</a>
</g>
</g>
<!-- Node2&#45;&gt;Node6 -->
<g id="edge12" class="edge"><title>Node2&#45;&gt;Node6</title>
<path fill="none" stroke="#9a32cd" stroke-dasharray="5,2" d="M546.111,-573.272C555.216,-559.303 569.749,-541.232 588,-532.926 609.468,-523.156 636.595,-523.989 656.36,-526.628"/>
<polygon fill="#9a32cd" stroke="#9a32cd" points="542.932,-571.76 540.694,-582.116 548.902,-575.416 542.932,-571.76"/>
<text text-anchor="middle" x="612.5" y="-535.926" font-family="Helvetica,sans-Serif" font-size="10.00"> p</text>
</g>
<!-- Node3 -->
<g id="node3" class="node"><title>Node3</title>
<g id="a_node3"><a xlink:href="structlua___t_value.html" target="_top" xlink:title=" ">
<polygon fill="white" stroke="black" points="0,-237.426 0,-256.426 65,-256.426 65,-237.426 0,-237.426"/>
<text text-anchor="middle" x="32.5" y="-244.426" font-family="Helvetica,sans-Serif" font-size="10.00">lua_TValue</text>
</a>
</g>
</g>
<!-- Node3&#45;&gt;Node2 -->
<g id="edge2" class="edge"><title>Node3&#45;&gt;Node2</title>
<path fill="none" stroke="#9a32cd" stroke-dasharray="5,2" d="M34.8209,-266.659C41.8871,-368.394 77.0993,-828.926 135.5,-828.926 135.5,-828.926 135.5,-828.926 320,-828.926 399.318,-828.926 433.503,-815.451 481,-751.926 511.19,-711.548 479.773,-686.532 499,-639.926 505.027,-625.316 516.288,-610.913 524.304,-601.756"/>
<polygon fill="#9a32cd" stroke="#9a32cd" points="38.3032,-266.28 34.1296,-256.542 31.3195,-266.757 38.3032,-266.28"/>
<text text-anchor="middle" x="248.5" y="-831.926" font-family="Helvetica,sans-Serif" font-size="10.00"> k</text>
</g>
<!-- Node7 -->
<g id="node7" class="node"><title>Node7</title>
<g id="a_node7"><a xlink:href="struct_up_val.html" target="_top" xlink:title=" ">
<polygon fill="white" stroke="black" points="513,-437.426 513,-456.426 556,-456.426 556,-437.426 513,-437.426"/>
<text text-anchor="middle" x="534.5" y="-444.426" font-family="Helvetica,sans-Serif" font-size="10.00">UpVal</text>
</a>
</g>
</g>
<!-- Node3&#45;&gt;Node7 -->
<g id="edge11" class="edge"><title>Node3&#45;&gt;Node7</title>
<path fill="none" stroke="#9a32cd" stroke-dasharray="5,2" d="M36.2683,-266.924C42.4771,-308.656 58.8846,-402.814 83,-422.926 149.09,-478.044 433.667,-456.22 512.935,-448.934"/>
<polygon fill="#9a32cd" stroke="#9a32cd" points="39.7094,-266.264 34.8196,-256.865 32.7809,-267.262 39.7094,-266.264"/>
<text text-anchor="middle" x="248.5" y="-472.926" font-family="Helvetica,sans-Serif" font-size="10.00"> value</text>
<text text-anchor="middle" x="248.5" y="-461.926" font-family="Helvetica,sans-Serif" font-size="10.00">v</text>
</g>
<!-- Node17 -->
<g id="node17" class="node"><title>Node17</title>
<g id="a_node17"><a xlink:href="struct_table.html" target="_top" xlink:title=" ">
<polygon fill="white" stroke="black" points="371,-52.4257 371,-71.4257 411,-71.4257 411,-52.4257 371,-52.4257"/>
<text text-anchor="middle" x="391" y="-59.4257" font-family="Helvetica,sans-Serif" font-size="10.00">Table</text>
</a>
</g>
</g>
<!-- Node3&#45;&gt;Node17 -->
<g id="edge31" class="edge"><title>Node3&#45;&gt;Node17</title>
<path fill="none" stroke="#9a32cd" stroke-dasharray="5,2" d="M57.6908,-231.979C92.7138,-210.57 159.834,-170.396 219,-139.926 273.102,-112.063 339.131,-83.3999 370.996,-69.8902"/>
<polygon fill="#9a32cd" stroke="#9a32cd" points="55.7935,-229.037 49.0991,-237.249 59.4534,-235.004 55.7935,-229.037"/>
<text text-anchor="middle" x="187.5" y="-166.926" font-family="Helvetica,sans-Serif" font-size="10.00"> array</text>
</g>
<!-- Node18 -->
<g id="node18" class="node"><title>Node18</title>
<g id="a_node18"><a xlink:href="struct_node.html" target="_top" xlink:title=" ">
<polygon fill="white" stroke="black" points="229,-44.4257 229,-63.4257 268,-63.4257 268,-44.4257 229,-44.4257"/>
<text text-anchor="middle" x="248.5" y="-51.4257" font-family="Helvetica,sans-Serif" font-size="10.00">Node</text>
</a>
</g>
</g>
<!-- Node3&#45;&gt;Node18 -->
<g id="edge28" class="edge"><title>Node3&#45;&gt;Node18</title>
<path fill="none" stroke="#9a32cd" stroke-dasharray="5,2" d="M34.1098,-226.812C36.7026,-183.357 49.9804,-82.4847 117,-55.9257 154.496,-41.0666 202.941,-45.904 228.981,-50.2313"/>
<polygon fill="#9a32cd" stroke="#9a32cd" points="30.6049,-226.842 33.64,-236.992 37.5974,-227.164 30.6049,-226.842"/>
<text text-anchor="middle" x="136.5" y="-58.9257" font-family="Helvetica,sans-Serif" font-size="10.00"> i_val</text>
</g>
<!-- Node19 -->
<g id="node19" class="node"><title>Node19</title>
<g id="a_node19"><a xlink:href="union_t_key.html" target="_top" xlink:title=" ">
<polygon fill="white" stroke="black" points="117,-76.4257 117,-95.4257 156,-95.4257 156,-76.4257 117,-76.4257"/>
<text text-anchor="middle" x="136.5" y="-83.4257" font-family="Helvetica,sans-Serif" font-size="10.00">TKey</text>
</a>
</g>
</g>
<!-- Node3&#45;&gt;Node19 -->
<g id="edge30" class="edge"><title>Node3&#45;&gt;Node19</title>
<path fill="none" stroke="#9a32cd" stroke-dasharray="5,2" d="M34.3016,-227.062C36.6939,-195.241 46.1185,-132.968 83,-98.9257 92.1079,-90.519 105.781,-87.3254 116.891,-86.204"/>
<polygon fill="#9a32cd" stroke="#9a32cd" points="30.7928,-227.111 33.7006,-237.299 37.7808,-227.521 30.7928,-227.111"/>
<text text-anchor="middle" x="91" y="-101.926" font-family="Helvetica,sans-Serif" font-size="10.00"> tvk</text>
</g>
<!-- Node21 -->
<g id="node21" class="node"><title>Node21</title>
<g id="a_node21"><a xlink:href="structlua___state.html" target="_top" xlink:title=" ">
<polygon fill="white" stroke="black" points="655,-373.426 655,-392.426 713,-392.426 713,-373.426 655,-373.426"/>
<text text-anchor="middle" x="684" y="-380.426" font-family="Helvetica,sans-Serif" font-size="10.00">lua_State</text>
</a>
</g>
</g>
<!-- Node3&#45;&gt;Node21 -->
<g id="edge37" class="edge"><title>Node3&#45;&gt;Node21</title>
<path fill="none" stroke="#9a32cd" stroke-dasharray="5,2" d="M36.4515,-266.714C44.1339,-309.933 68.99,-408.926 135.5,-408.926 135.5,-408.926 135.5,-408.926 535.5,-408.926 577.624,-408.926 625.501,-398.514 654.982,-390.868"/>
<polygon fill="#9a32cd" stroke="#9a32cd" points="39.8606,-265.875 34.7859,-256.574 32.9531,-267.01 39.8606,-265.875"/>
<text text-anchor="middle" x="319" y="-433.926" font-family="Helvetica,sans-Serif" font-size="10.00"> stack</text>
<text text-anchor="middle" x="319" y="-422.926" font-family="Helvetica,sans-Serif" font-size="10.00">stack_last</text>
<text text-anchor="middle" x="319" y="-411.926" font-family="Helvetica,sans-Serif" font-size="10.00">top</text>
</g>
<!-- Node23 -->
<g id="node23" class="node"><title>Node23</title>
<g id="a_node23"><a xlink:href="structglobal___state.html" target="_top" xlink:title=" ">
<polygon fill="white" stroke="black" points="499,-294.426 499,-313.426 570,-313.426 570,-294.426 499,-294.426"/>
<text text-anchor="middle" x="534.5" y="-301.426" font-family="Helvetica,sans-Serif" font-size="10.00">global_State</text>
</a>
</g>
</g>
<!-- Node3&#45;&gt;Node23 -->
<g id="edge41" class="edge"><title>Node3&#45;&gt;Node23</title>
<path fill="none" stroke="#9a32cd" stroke-dasharray="5,2" d="M63.7064,-260.826C120.337,-286.034 246.963,-338.396 360,-356.926 387.193,-361.383 395.12,-362.989 422,-356.926 441.026,-352.634 489.355,-327.657 515.706,-313.575"/>
<polygon fill="#9a32cd" stroke="#9a32cd" points="64.8371,-257.497 54.281,-256.592 61.9689,-263.882 64.8371,-257.497"/>
<text text-anchor="middle" x="248.5" y="-341.926" font-family="Helvetica,sans-Serif" font-size="10.00"> l_registry</text>
</g>
<!-- Node25 -->
<g id="node25" class="node"><title>Node25</title>
<g id="a_node25"><a xlink:href="struct_call_info.html" target="_top" xlink:title=" ">
<polygon fill="white" stroke="black" points="804,-340.426 804,-359.426 852,-359.426 852,-340.426 804,-340.426"/>
<text text-anchor="middle" x="828" y="-347.426" font-family="Helvetica,sans-Serif" font-size="10.00">CallInfo</text>
</a>
</g>
</g>
<!-- Node3&#45;&gt;Node25 -->
<g id="edge51" class="edge"><title>Node3&#45;&gt;Node25</title>
<path fill="none" stroke="#9a32cd" stroke-dasharray="5,2" d="M32.8094,-227.133C31.8885,-168.687 37.7583,-0.925737 135.5,-0.925737 135.5,-0.925737 135.5,-0.925737 613.5,-0.925737 658.99,-0.925737 680.335,6.73477 713,-24.9257 814.269,-123.081 713.109,-217.559 797,-330.926 799.714,-334.593 803.365,-337.728 807.186,-340.331"/>
<polygon fill="#9a32cd" stroke="#9a32cd" points="29.3141,-227.371 33.0589,-237.282 36.312,-227.199 29.3141,-227.371"/>
<text text-anchor="middle" x="391" y="-25.9257" font-family="Helvetica,sans-Serif" font-size="10.00"> base</text>
<text text-anchor="middle" x="391" y="-14.9257" font-family="Helvetica,sans-Serif" font-size="10.00">func</text>
<text text-anchor="middle" x="391" y="-3.92574" font-family="Helvetica,sans-Serif" font-size="10.00">top</text>
</g>
<!-- Node4 -->
<g id="node4" class="node"><title>Node4</title>
<g id="a_node4"><a xlink:href="struct_loc_var.html" target="_top" xlink:title=" ">
<polygon fill="white" stroke="black" points="367.5,-667.426 367.5,-686.426 414.5,-686.426 414.5,-667.426 367.5,-667.426"/>
<text text-anchor="middle" x="391" y="-674.426" font-family="Helvetica,sans-Serif" font-size="10.00">LocVar</text>
</a>
</g>
</g>
<!-- Node4&#45;&gt;Node2 -->
<g id="edge4" class="edge"><title>Node4&#45;&gt;Node2</title>
<path fill="none" stroke="#9a32cd" stroke-dasharray="5,2" d="M424.506,-671.476C442.198,-667.462 463.898,-660.763 481,-649.926 501.191,-637.13 518.434,-614.515 527.239,-601.629"/>
<polygon fill="#9a32cd" stroke="#9a32cd" points="423.692,-668.07 414.618,-673.54 425.122,-674.923 423.692,-668.07"/>
<text text-anchor="middle" x="460.5" y="-669.926" font-family="Helvetica,sans-Serif" font-size="10.00"> locvars</text>
</g>
<!-- Node5 -->
<g id="node5" class="node"><title>Node5</title>
<g id="a_node5"><a xlink:href="struct_t_string.html" target="_top" xlink:title=" ">
<polygon fill="white" stroke="black" points="225,-646.426 225,-665.426 272,-665.426 272,-646.426 225,-646.426"/>
<text text-anchor="middle" x="248.5" y="-653.426" font-family="Helvetica,sans-Serif" font-size="10.00">TString</text>
</a>
</g>
</g>
<!-- Node5&#45;&gt;Node2 -->
<g id="edge7" class="edge"><title>Node5&#45;&gt;Node2</title>
<path fill="none" stroke="#9a32cd" stroke-dasharray="5,2" d="M282.357,-649.72C327.382,-641.047 410.685,-624.39 481,-606.926 492.04,-604.184 504.265,-600.717 514.139,-597.806"/>
<polygon fill="#9a32cd" stroke="#9a32cd" points="281.456,-646.329 272.293,-651.649 282.773,-653.204 281.456,-646.329"/>
<text text-anchor="middle" x="391" y="-635.926" font-family="Helvetica,sans-Serif" font-size="10.00"> source</text>
</g>
<!-- Node5&#45;&gt;Node4 -->
<g id="edge5" class="edge"><title>Node5&#45;&gt;Node4</title>
<path fill="none" stroke="#9a32cd" stroke-dasharray="5,2" d="M282.277,-660.825C308.459,-664.738 344.459,-670.119 367.482,-673.56"/>
<polygon fill="#9a32cd" stroke="#9a32cd" points="282.481,-657.317 272.074,-659.3 281.446,-664.24 282.481,-657.317"/>
<text text-anchor="middle" x="319" y="-671.926" font-family="Helvetica,sans-Serif" font-size="10.00"> varname</text>
</g>
<!-- Node5&#45;&gt;Node5 -->
<g id="edge6" class="edge"><title>Node5&#45;&gt;Node5</title>
<path fill="none" stroke="#9a32cd" stroke-dasharray="5,2" d="M237.451,-675.692C238.318,-680.422 242.002,-683.926 248.5,-683.926 259.164,-683.926 262.247,-674.491 257.748,-665.683"/>
<polygon fill="#9a32cd" stroke="#9a32cd" points="240.925,-676.145 239.252,-665.683 234.036,-674.905 240.925,-676.145"/>
<text text-anchor="middle" x="248.5" y="-686.926" font-family="Helvetica,sans-Serif" font-size="10.00"> hnext</text>
</g>
<!-- Node9 -->
<g id="node9" class="node"><title>Node9</title>
<g id="a_node9"><a xlink:href="struct_upvaldesc.html" target="_top" xlink:title=" ">
<polygon fill="white" stroke="black" points="360.5,-582.426 360.5,-601.426 421.5,-601.426 421.5,-582.426 360.5,-582.426"/>
<text text-anchor="middle" x="391" y="-589.426" font-family="Helvetica,sans-Serif" font-size="10.00">Upvaldesc</text>
</a>
</g>
</g>
<!-- Node5&#45;&gt;Node9 -->
<g id="edge15" class="edge"><title>Node5&#45;&gt;Node9</title>
<path fill="none" stroke="#9a32cd" stroke-dasharray="5,2" d="M264.202,-638.476C272.633,-629.55 283.923,-619.26 296,-612.926 315.991,-602.44 341.039,-597.174 360.25,-594.538"/>
<polygon fill="#9a32cd" stroke="#9a32cd" points="261.4,-636.358 257.324,-646.137 266.609,-641.035 261.4,-636.358"/>
<text text-anchor="middle" x="319" y="-615.926" font-family="Helvetica,sans-Serif" font-size="10.00"> name</text>
</g>
<!-- Node5&#45;&gt;Node10 -->
<g id="edge25" class="edge"><title>Node5&#45;&gt;Node10</title>
<path fill="none" stroke="#9a32cd" stroke-dasharray="5,2" d="M254.23,-675.276C260.432,-696.879 273.29,-731.6 296,-752.926 328.849,-783.773 344.938,-790.926 390,-790.926 390,-790.926 390,-790.926 829,-790.926 942.493,-790.926 942.831,-582.698 941.402,-534.708"/>
<polygon fill="#9a32cd" stroke="#9a32cd" points="257.601,-674.336 251.64,-665.577 250.838,-676.142 257.601,-674.336"/>
<text text-anchor="middle" x="612.5" y="-804.926" font-family="Helvetica,sans-Serif" font-size="10.00"> envn</text>
<text text-anchor="middle" x="612.5" y="-793.926" font-family="Helvetica,sans-Serif" font-size="10.00">source</text>
</g>
<!-- Node13 -->
<g id="node13" class="node"><title>Node13</title>
<g id="a_node13"><a xlink:href="struct_labeldesc.html" target="_top" xlink:title=" ">
<polygon fill="white" stroke="black" points="360.5,-705.426 360.5,-724.426 421.5,-724.426 421.5,-705.426 360.5,-705.426"/>
<text text-anchor="middle" x="391" y="-712.426" font-family="Helvetica,sans-Serif" font-size="10.00">Labeldesc</text>
</a>
</g>
</g>
<!-- Node5&#45;&gt;Node13 -->
<g id="edge20" class="edge"><title>Node5&#45;&gt;Node13</title>
<path fill="none" stroke="#9a32cd" stroke-dasharray="5,2" d="M272.406,-671.106C279.754,-675.594 288.051,-680.278 296,-683.926 316.772,-693.459 341.332,-701.454 360.138,-706.936"/>
<polygon fill="#9a32cd" stroke="#9a32cd" points="274.029,-667.992 263.703,-665.618 270.295,-673.913 274.029,-667.992"/>
<text text-anchor="middle" x="319" y="-703.926" font-family="Helvetica,sans-Serif" font-size="10.00"> name</text>
</g>
<!-- Node16 -->
<g id="node16" class="node"><title>Node16</title>
<g id="a_node16"><a xlink:href="union_sem_info.html" target="_top" xlink:title=" ">
<polygon fill="white" stroke="black" points="365,-743.426 365,-762.426 417,-762.426 417,-743.426 365,-743.426"/>
<text text-anchor="middle" x="391" y="-750.426" font-family="Helvetica,sans-Serif" font-size="10.00">SemInfo</text>
</a>
</g>
</g>
<!-- Node5&#45;&gt;Node16 -->
<g id="edge24" class="edge"><title>Node5&#45;&gt;Node16</title>
<path fill="none" stroke="#9a32cd" stroke-dasharray="5,2" d="M260.109,-674.45C268.424,-687.559 281.066,-704.731 296,-715.926 316.629,-731.389 344.561,-741.294 364.607,-746.925"/>
<polygon fill="#9a32cd" stroke="#9a32cd" points="263.023,-672.505 254.848,-665.766 257.036,-676.132 263.023,-672.505"/>
<text text-anchor="middle" x="319" y="-740.926" font-family="Helvetica,sans-Serif" font-size="10.00"> ts</text>
</g>
<!-- Node5&#45;&gt;Node23 -->
<g id="edge44" class="edge"><title>Node5&#45;&gt;Node23</title>
<path fill="none" stroke="#9a32cd" stroke-dasharray="5,2" d="M256.038,-636.638C263.662,-615.78 277.602,-582.135 296,-556.926 362.184,-466.24 422.111,-480.51 481,-384.926 496.051,-360.497 481.07,-345.327 499,-322.926 501.991,-319.189 505.926,-316.075 510.065,-313.523"/>
<polygon fill="#9a32cd" stroke="#9a32cd" points="252.667,-635.674 252.637,-646.268 259.267,-638.005 252.667,-635.674"/>
<text text-anchor="middle" x="391" y="-517.926" font-family="Helvetica,sans-Serif" font-size="10.00"> strcache</text>
<text text-anchor="middle" x="391" y="-506.926" font-family="Helvetica,sans-Serif" font-size="10.00">tmname</text>
<text text-anchor="middle" x="391" y="-495.926" font-family="Helvetica,sans-Serif" font-size="10.00">memerrmsg</text>
</g>
<!-- Node24 -->
<g id="node24" class="node"><title>Node24</title>
<g id="a_node24"><a xlink:href="structstringtable.html" target="_top" xlink:title=" ">
<polygon fill="white" stroke="black" points="360,-544.426 360,-563.426 422,-563.426 422,-544.426 360,-544.426"/>
<text text-anchor="middle" x="391" y="-551.426" font-family="Helvetica,sans-Serif" font-size="10.00">stringtable</text>
</a>
</g>
</g>
<!-- Node5&#45;&gt;Node24 -->
<g id="edge43" class="edge"><title>Node5&#45;&gt;Node24</title>
<path fill="none" stroke="#9a32cd" stroke-dasharray="5,2" d="M256.897,-636.786C264.34,-619.978 277.389,-596.063 296,-581.926 314.577,-567.814 340.191,-560.788 359.991,-557.304"/>
<polygon fill="#9a32cd" stroke="#9a32cd" points="253.598,-635.605 252.988,-646.182 260.061,-638.294 253.598,-635.605"/>
<text text-anchor="middle" x="319" y="-584.926" font-family="Helvetica,sans-Serif" font-size="10.00"> hash</text>
</g>
<!-- Node6&#45;&gt;Node2 -->
<g id="edge8" class="edge"><title>Node6&#45;&gt;Node2</title>
<path fill="none" stroke="#9a32cd" stroke-dasharray="5,2" d="M646.664,-544.433C628.837,-550.791 607.134,-558.865 588,-566.926 576.836,-571.629 564.603,-577.416 554.755,-582.237"/>
<polygon fill="#9a32cd" stroke="#9a32cd" points="647.867,-547.72 656.129,-541.088 645.534,-541.12 647.867,-547.72"/>
<text text-anchor="middle" x="612.5" y="-569.926" font-family="Helvetica,sans-Serif" font-size="10.00"> cache</text>
</g>
<!-- Node7&#45;&gt;Node6 -->
<g id="edge9" class="edge"><title>Node7&#45;&gt;Node6</title>
<path fill="none" stroke="#9a32cd" stroke-dasharray="5,2" d="M560.817,-461.515C590.952,-478.881 640.426,-507.392 666.201,-522.245"/>
<polygon fill="#9a32cd" stroke="#9a32cd" points="562.545,-458.472 552.133,-456.511 559.05,-464.537 562.545,-458.472"/>
<text text-anchor="middle" x="612.5" y="-506.926" font-family="Helvetica,sans-Serif" font-size="10.00"> upvals</text>
</g>
<!-- Node7&#45;&gt;Node7 -->
<g id="edge10" class="edge"><title>Node7&#45;&gt;Node7</title>
<path fill="none" stroke="#9a32cd" stroke-dasharray="5,2" d="M520.872,-466.692C521.943,-471.422 526.485,-474.926 534.5,-474.926 547.652,-474.926 551.454,-465.491 545.906,-456.683"/>
<polygon fill="#9a32cd" stroke="#9a32cd" points="524.344,-467.204 523.094,-456.683 517.51,-465.687 524.344,-467.204"/>
<text text-anchor="middle" x="534.5" y="-477.926" font-family="Helvetica,sans-Serif" font-size="10.00"> next</text>
</g>
<!-- Node7&#45;&gt;Node21 -->
<g id="edge36" class="edge"><title>Node7&#45;&gt;Node21</title>
<path fill="none" stroke="#9a32cd" stroke-dasharray="5,2" d="M566.266,-443.58C587.117,-440.39 614.81,-434.309 637,-422.926 651.878,-415.294 665.913,-401.846 674.479,-392.668"/>
<polygon fill="#9a32cd" stroke="#9a32cd" points="565.765,-440.116 556.343,-444.961 566.729,-447.049 565.765,-440.116"/>
<text text-anchor="middle" x="612.5" y="-441.926" font-family="Helvetica,sans-Serif" font-size="10.00"> openupval</text>
</g>
<!-- Node8 -->
<g id="node8" class="node"><title>Node8</title>
<g id="a_node8"><a xlink:href="struct_g_c_object.html" target="_top" xlink:title=" ">
<polygon fill="white" stroke="black" points="219,-149.426 219,-168.426 278,-168.426 278,-149.426 219,-149.426"/>
<text text-anchor="middle" x="248.5" y="-156.426" font-family="Helvetica,sans-Serif" font-size="10.00">GCObject</text>
</a>
</g>
</g>
<!-- Node8&#45;&gt;Node2 -->
<g id="edge13" class="edge"><title>Node8&#45;&gt;Node2</title>
<path fill="none" stroke="#9a32cd" stroke-dasharray="5,2" d="M263.847,-176.709C297.147,-218.934 380.036,-329.668 422,-435.926 437.144,-474.272 417.43,-492.424 440,-526.926 458.182,-554.72 492.767,-574.028 514.396,-584.017"/>
<polygon fill="#9a32cd" stroke="#9a32cd" points="266.491,-174.411 257.526,-168.764 261.013,-178.769 266.491,-174.411"/>
<text text-anchor="middle" x="391" y="-438.926" font-family="Helvetica,sans-Serif" font-size="10.00"> gclist</text>
</g>
<!-- Node8&#45;&gt;Node17 -->
<g id="edge33" class="edge"><title>Node8&#45;&gt;Node17</title>
<path fill="none" stroke="#9a32cd" stroke-dasharray="5,2" d="M269.42,-143.227C277.466,-137.19 286.97,-130.431 296,-124.926 315.516,-113.027 322.87,-114.437 342,-101.926 355.981,-92.7821 370.511,-80.1643 379.87,-71.5611"/>
<polygon fill="#9a32cd" stroke="#9a32cd" points="267.166,-140.544 261.353,-149.401 271.421,-146.103 267.166,-140.544"/>
<text text-anchor="middle" x="319" y="-127.926" font-family="Helvetica,sans-Serif" font-size="10.00"> gclist</text>
</g>
<!-- Node8&#45;&gt;Node21 -->
<g id="edge48" class="edge"><title>Node8&#45;&gt;Node21</title>
<path fill="none" stroke="#9a32cd" stroke-dasharray="5,2" d="M288.061,-149.113C344.565,-135.518 446.853,-114.106 481,-127.926 570.446,-164.125 581.796,-199.783 637,-278.926 659.025,-310.502 674.186,-354.316 680.161,-373.404"/>
<polygon fill="#9a32cd" stroke="#9a32cd" points="286.955,-145.78 278.07,-151.55 288.614,-152.581 286.955,-145.78"/>
<text text-anchor="middle" x="460.5" y="-130.926" font-family="Helvetica,sans-Serif" font-size="10.00"> gclist</text>
</g>
<!-- Node8&#45;&gt;Node23 -->
<g id="edge46" class="edge"><title>Node8&#45;&gt;Node23</title>
<path fill="none" stroke="#9a32cd" stroke-dasharray="5,2" d="M288.253,-162.848C331.799,-167.744 399.363,-176.952 422,-188.926 471.656,-215.19 512.371,-271.607 527.338,-294.24"/>
<polygon fill="#9a32cd" stroke="#9a32cd" points="288.6,-159.365 278.279,-161.755 287.837,-166.324 288.6,-159.365"/>
<text text-anchor="middle" x="391" y="-301.926" font-family="Helvetica,sans-Serif" font-size="10.00"> fixedgc</text>
<text text-anchor="middle" x="391" y="-290.926" font-family="Helvetica,sans-Serif" font-size="10.00">gray</text>
<text text-anchor="middle" x="391" y="-279.926" font-family="Helvetica,sans-Serif" font-size="10.00">grayagain</text>
<text text-anchor="middle" x="391" y="-268.926" font-family="Helvetica,sans-Serif" font-size="10.00">tobefnz</text>
<text text-anchor="middle" x="391" y="-257.926" font-family="Helvetica,sans-Serif" font-size="10.00">allgc</text>
<text text-anchor="middle" x="391" y="-246.926" font-family="Helvetica,sans-Serif" font-size="10.00">weak</text>
<text text-anchor="middle" x="391" y="-235.926" font-family="Helvetica,sans-Serif" font-size="10.00">ephemeron</text>
<text text-anchor="middle" x="391" y="-224.926" font-family="Helvetica,sans-Serif" font-size="10.00">finobj</text>
<text text-anchor="middle" x="391" y="-213.926" font-family="Helvetica,sans-Serif" font-size="10.00">sweepgc</text>
<text text-anchor="middle" x="391" y="-202.926" font-family="Helvetica,sans-Serif" font-size="10.00">allweak</text>
<text text-anchor="middle" x="391" y="-191.926" font-family="Helvetica,sans-Serif" font-size="10.00">...</text>
</g>
<!-- Node9&#45;&gt;Node2 -->
<g id="edge14" class="edge"><title>Node9&#45;&gt;Node2</title>
<path fill="none" stroke="#9a32cd" stroke-dasharray="5,2" d="M431.952,-591.926C458.893,-591.926 493.237,-591.926 514.283,-591.926"/>
<polygon fill="#9a32cd" stroke="#9a32cd" points="431.663,-588.426 421.663,-591.926 431.663,-595.426 431.663,-588.426"/>
<text text-anchor="middle" x="460.5" y="-594.926" font-family="Helvetica,sans-Serif" font-size="10.00"> upvalues</text>
</g>
<!-- Node10&#45;&gt;Node1 -->
<g id="edge16" class="edge"><title>Node10&#45;&gt;Node1</title>
<path fill="none" stroke="#9a32cd" stroke-dasharray="5,2" d="M927.061,-542.409C918.868,-551.695 907.817,-562.659 896,-569.926 884.841,-576.788 871.306,-581.757 859.33,-585.217"/>
<polygon fill="#9a32cd" stroke="#9a32cd" points="929.953,-544.408 933.722,-534.506 924.601,-539.897 929.953,-544.408"/>
<text text-anchor="middle" x="886.5" y="-580.926" font-family="Helvetica,sans-Serif" font-size="10.00"> ls</text>
</g>
<!-- Node11 -->
<g id="node11" class="node"><title>Node11</title>
<g id="a_node11"><a xlink:href="struct_dyndata.html" target="_top" xlink:title=" ">
<polygon fill="white" stroke="black" points="657.5,-622.426 657.5,-641.426 710.5,-641.426 710.5,-622.426 657.5,-622.426"/>
<text text-anchor="middle" x="684" y="-629.426" font-family="Helvetica,sans-Serif" font-size="10.00">Dyndata</text>
</a>
</g>
</g>
<!-- Node11&#45;&gt;Node10 -->
<g id="edge17" class="edge"><title>Node11&#45;&gt;Node10</title>
<path fill="none" stroke="#9a32cd" stroke-dasharray="5,2" d="M705.516,-616.382C727.202,-600.623 762.919,-576.538 797,-561.926 836.025,-545.193 884.355,-534.687 913.919,-529.314"/>
<polygon fill="#9a32cd" stroke="#9a32cd" points="703.362,-613.621 697.393,-622.374 707.518,-619.254 703.362,-613.621"/>
<text text-anchor="middle" x="828" y="-564.926" font-family="Helvetica,sans-Serif" font-size="10.00"> dyd</text>
</g>
<!-- Node12 -->
<g id="node12" class="node"><title>Node12</title>
<g id="a_node12"><a xlink:href="struct_labellist.html" target="_top" xlink:title=" ">
<polygon fill="white" stroke="black" points="508,-690.426 508,-709.426 561,-709.426 561,-690.426 508,-690.426"/>
<text text-anchor="middle" x="534.5" y="-697.426" font-family="Helvetica,sans-Serif" font-size="10.00">Labellist</text>
</a>
</g>
</g>
<!-- Node12&#45;&gt;Node11 -->
<g id="edge18" class="edge"><title>Node12&#45;&gt;Node11</title>
<path fill="none" stroke="#9a32cd" stroke-dasharray="5,2" d="M570.862,-689.387C590.786,-682.875 615.842,-673.707 637,-662.926 637.858,-662.488 655.612,-650.488 668.807,-641.55"/>
<polygon fill="#9a32cd" stroke="#9a32cd" points="569.709,-686.081 561.247,-692.456 571.837,-692.75 569.709,-686.081"/>
<text text-anchor="middle" x="612.5" y="-696.926" font-family="Helvetica,sans-Serif" font-size="10.00"> gt</text>
<text text-anchor="middle" x="612.5" y="-685.926" font-family="Helvetica,sans-Serif" font-size="10.00">label</text>
</g>
<!-- Node13&#45;&gt;Node12 -->
<g id="edge19" class="edge"><title>Node13&#45;&gt;Node12</title>
<path fill="none" stroke="#9a32cd" stroke-dasharray="5,2" d="M431.728,-708.019C434.523,-707.621 437.302,-707.251 440,-706.926 462.787,-704.18 488.837,-702.335 507.643,-701.232"/>
<polygon fill="#9a32cd" stroke="#9a32cd" points="431.001,-704.589 421.642,-709.555 432.055,-711.509 431.001,-704.589"/>
<text text-anchor="middle" x="460.5" y="-709.926" font-family="Helvetica,sans-Serif" font-size="10.00"> arr</text>
</g>
<!-- Node14 -->
<g id="node14" class="node"><title>Node14</title>
<g id="a_node14"><a xlink:href="struct_vardesc.html" target="_top" xlink:title=" ">
<polygon fill="white" stroke="black" points="508,-649.426 508,-668.426 561,-668.426 561,-649.426 508,-649.426"/>
<text text-anchor="middle" x="534.5" y="-656.426" font-family="Helvetica,sans-Serif" font-size="10.00">Vardesc</text>
</a>
</g>
</g>
<!-- Node14&#45;&gt;Node11 -->
<g id="edge21" class="edge"><title>Node14&#45;&gt;Node11</title>
<path fill="none" stroke="#9a32cd" stroke-dasharray="5,2" d="M571.226,-652.386C597.743,-647.532 633.287,-641.026 657.107,-636.665"/>
<polygon fill="#9a32cd" stroke="#9a32cd" points="570.399,-648.979 561.193,-654.223 571.659,-655.865 570.399,-648.979"/>
<text text-anchor="middle" x="612.5" y="-650.926" font-family="Helvetica,sans-Serif" font-size="10.00"> arr</text>
</g>
<!-- Node15 -->
<g id="node15" class="node"><title>Node15</title>
<g id="a_node15"><a xlink:href="struct_token.html" target="_top" xlink:title=" ">
<polygon fill="white" stroke="black" points="591,-729.426 591,-748.426 634,-748.426 634,-729.426 591,-729.426"/>
<text text-anchor="middle" x="612.5" y="-736.426" font-family="Helvetica,sans-Serif" font-size="10.00">Token</text>
</a>
</g>
</g>
<!-- Node15&#45;&gt;Node10 -->
<g id="edge22" class="edge"><title>Node15&#45;&gt;Node10</title>
<path fill="none" stroke="#9a32cd" stroke-dasharray="5,2" d="M644.263,-734.737C664.247,-731.459 690.642,-726.07 713,-717.926 782.125,-692.745 802.603,-687.167 859,-639.926 896.595,-608.434 925.497,-555.958 936.342,-534.506"/>
<polygon fill="#9a32cd" stroke="#9a32cd" points="643.515,-731.312 634.17,-736.304 644.588,-738.229 643.515,-731.312"/>
<text text-anchor="middle" x="755" y="-723.926" font-family="Helvetica,sans-Serif" font-size="10.00"> lookahead</text>
<text text-anchor="middle" x="755" y="-712.926" font-family="Helvetica,sans-Serif" font-size="10.00">t</text>
</g>
<!-- Node16&#45;&gt;Node15 -->
<g id="edge23" class="edge"><title>Node16&#45;&gt;Node15</title>
<path fill="none" stroke="#9a32cd" stroke-dasharray="5,2" d="M427.355,-750.671C473.651,-747.718 553.318,-742.637 590.828,-740.244"/>
<polygon fill="#9a32cd" stroke="#9a32cd" points="426.936,-747.19 417.179,-751.32 427.382,-754.176 426.936,-747.19"/>
<text text-anchor="middle" x="460.5" y="-751.926" font-family="Helvetica,sans-Serif" font-size="10.00"> seminfo</text>
</g>
<!-- Node17&#45;&gt;Node10 -->
<g id="edge26" class="edge"><title>Node17&#45;&gt;Node10</title>
<path fill="none" stroke="#9a32cd" stroke-dasharray="5,2" d="M421.262,-57.0005C449.809,-52.6277 494.509,-46.9257 533.5,-46.9257 533.5,-46.9257 533.5,-46.9257 829,-46.9257 928.936,-46.9257 939.764,-448.008 940.877,-515.378"/>
<polygon fill="#9a32cd" stroke="#9a32cd" points="420.488,-53.5792 411.157,-58.5968 421.581,-60.4935 420.488,-53.5792"/>
<text text-anchor="middle" x="684" y="-49.9257" font-family="Helvetica,sans-Serif" font-size="10.00"> h</text>
</g>
<!-- Node17&#45;&gt;Node17 -->
<g id="edge32" class="edge"><title>Node17&#45;&gt;Node17</title>
<path fill="none" stroke="#9a32cd" stroke-dasharray="5,2" d="M378.477,-81.692C379.461,-86.4223 383.635,-89.9257 391,-89.9257 403.086,-89.9257 406.58,-80.491 401.481,-71.6828"/>
<polygon fill="#9a32cd" stroke="#9a32cd" points="381.95,-82.1806 380.519,-71.6828 375.091,-80.7814 381.95,-82.1806"/>
<text text-anchor="middle" x="391" y="-92.9257" font-family="Helvetica,sans-Serif" font-size="10.00"> metatable</text>
</g>
<!-- Node17&#45;&gt;Node23 -->
<g id="edge45" class="edge"><title>Node17&#45;&gt;Node23</title>
<path fill="none" stroke="#9a32cd" stroke-dasharray="5,2" d="M400.186,-81.0905C408.31,-98.375 422.124,-123.66 440,-140.926 455.029,-155.441 467.394,-148.069 481,-163.926 515.653,-204.311 528.473,-269.792 532.205,-294.279"/>
<polygon fill="#9a32cd" stroke="#9a32cd" points="403.17,-79.1911 395.877,-71.5055 396.785,-82.0614 403.17,-79.1911"/>
<text text-anchor="middle" x="460.5" y="-166.926" font-family="Helvetica,sans-Serif" font-size="10.00"> mt</text>
</g>
<!-- Node18&#45;&gt;Node17 -->
<g id="edge27" class="edge"><title>Node18&#45;&gt;Node17</title>
<path fill="none" stroke="#9a32cd" stroke-dasharray="5,2" d="M278.329,-53.2462C296.601,-53.0606 320.719,-53.2665 342,-54.9257 351.571,-55.672 362.137,-57.1418 370.913,-58.5426"/>
<polygon fill="#9a32cd" stroke="#9a32cd" points="278.259,-49.7468 268.312,-53.3927 278.362,-56.746 278.259,-49.7468"/>
<text text-anchor="middle" x="319" y="-68.9257" font-family="Helvetica,sans-Serif" font-size="10.00"> node</text>
<text text-anchor="middle" x="319" y="-57.9257" font-family="Helvetica,sans-Serif" font-size="10.00">lastfree</text>
</g>
<!-- Node19&#45;&gt;Node18 -->
<g id="edge29" class="edge"><title>Node19&#45;&gt;Node18</title>
<path fill="none" stroke="#9a32cd" stroke-dasharray="5,2" d="M165.875,-77.6713C185.656,-71.9168 211.493,-64.4005 228.748,-59.3807"/>
<polygon fill="#9a32cd" stroke="#9a32cd" points="164.784,-74.3433 156.16,-80.4974 166.74,-81.0647 164.784,-74.3433"/>
<text text-anchor="middle" x="187.5" y="-77.9257" font-family="Helvetica,sans-Serif" font-size="10.00"> i_key</text>
</g>
<!-- Node20 -->
<g id="node20" class="node"><title>Node20</title>
<g id="a_node20"><a xlink:href="struct_zio.html" target="_top" xlink:title=" ">
<polygon fill="white" stroke="black" points="813.5,-467.426 813.5,-486.426 842.5,-486.426 842.5,-467.426 813.5,-467.426"/>
<text text-anchor="middle" x="828" y="-474.426" font-family="Helvetica,sans-Serif" font-size="10.00">Zio</text>
</a>
</g>
</g>
<!-- Node20&#45;&gt;Node10 -->
<g id="edge34" class="edge"><title>Node20&#45;&gt;Node10</title>
<path fill="none" stroke="#9a32cd" stroke-dasharray="5,2" d="M852.256,-483.795C865.327,-487.93 881.816,-493.61 896,-499.926 905.961,-504.361 916.648,-510.246 925.106,-515.193"/>
<polygon fill="#9a32cd" stroke="#9a32cd" points="853.203,-480.424 842.616,-480.827 851.143,-487.114 853.203,-480.424"/>
<text text-anchor="middle" x="886.5" y="-502.926" font-family="Helvetica,sans-Serif" font-size="10.00"> z</text>
</g>
<!-- Node21&#45;&gt;Node10 -->
<g id="edge56" class="edge"><title>Node21&#45;&gt;Node10</title>
<path fill="none" stroke="#9a32cd" stroke-dasharray="5,2" d="M722.605,-395.845C770.08,-412.297 847.039,-439.486 859,-446.926 890.199,-466.331 919.572,-499.006 933.14,-515.21"/>
<polygon fill="#9a32cd" stroke="#9a32cd" points="723.55,-392.469 712.955,-392.509 721.262,-399.085 723.55,-392.469"/>
<text text-anchor="middle" x="828" y="-449.926" font-family="Helvetica,sans-Serif" font-size="10.00"> L</text>
</g>
<!-- Node21&#45;&gt;Node20 -->
<g id="edge35" class="edge"><title>Node21&#45;&gt;Node20</title>
<path fill="none" stroke="#9a32cd" stroke-dasharray="5,2" d="M693.288,-402.072C700.92,-417.487 713.684,-438.557 731,-450.926 756.291,-468.991 793.478,-474.506 813.328,-476.188"/>
<polygon fill="#9a32cd" stroke="#9a32cd" points="696.414,-400.493 689.017,-392.907 690.069,-403.45 696.414,-400.493"/>
<text text-anchor="middle" x="755" y="-483.926" font-family="Helvetica,sans-Serif" font-size="10.00"> reader</text>
<text text-anchor="middle" x="755" y="-472.926" font-family="Helvetica,sans-Serif" font-size="10.00">L</text>
</g>
<!-- Node21&#45;&gt;Node21 -->
<g id="edge49" class="edge"><title>Node21&#45;&gt;Node21</title>
<path fill="none" stroke="#9a32cd" stroke-dasharray="5,2" d="M671.109,-402.692C672.122,-407.422 676.419,-410.926 684,-410.926 696.441,-410.926 700.038,-401.491 694.789,-392.683"/>
<polygon fill="#9a32cd" stroke="#9a32cd" points="674.581,-403.189 673.211,-392.683 667.73,-401.75 674.581,-403.189"/>
<text text-anchor="middle" x="684" y="-413.926" font-family="Helvetica,sans-Serif" font-size="10.00"> twups</text>
</g>
<!-- Node21&#45;&gt;Node23 -->
<g id="edge47" class="edge"><title>Node21&#45;&gt;Node23</title>
<path fill="none" stroke="#9a32cd" stroke-dasharray="5,2" d="M679.591,-363.381C674.558,-341.174 662.789,-305.941 637,-289.926 611.764,-274.254 576.259,-284.986 554.623,-294.343"/>
<polygon fill="#9a32cd" stroke="#9a32cd" points="676.196,-364.253 681.6,-373.366 683.059,-362.873 676.196,-364.253"/>
<text text-anchor="middle" x="612.5" y="-314.926" font-family="Helvetica,sans-Serif" font-size="10.00"> panic</text>
<text text-anchor="middle" x="612.5" y="-303.926" font-family="Helvetica,sans-Serif" font-size="10.00">mainthread</text>
<text text-anchor="middle" x="612.5" y="-292.926" font-family="Helvetica,sans-Serif" font-size="10.00">twups</text>
</g>
<!-- Node21&#45;&gt;Node25 -->
<g id="edge52" class="edge"><title>Node21&#45;&gt;Node25</title>
<path fill="none" stroke="#9a32cd" stroke-dasharray="5,2" d="M701.118,-366.493C709.31,-359.31 719.875,-351.677 731,-347.926 754.853,-339.883 783.967,-342.024 803.836,-345.133"/>
<polygon fill="#9a32cd" stroke="#9a32cd" points="698.687,-363.974 693.783,-373.366 703.473,-369.082 698.687,-363.974"/>
<text text-anchor="middle" x="755" y="-350.926" font-family="Helvetica,sans-Serif" font-size="10.00"> k</text>
</g>
<!-- Node22 -->
<g id="node22" class="node"><title>Node22</title>
<g id="a_node22"><a xlink:href="structlua__longjmp.html" target="_top" xlink:title=" ">
<polygon fill="white" stroke="black" points="500.5,-332.426 500.5,-351.426 568.5,-351.426 568.5,-332.426 500.5,-332.426"/>
<text text-anchor="middle" x="534.5" y="-339.426" font-family="Helvetica,sans-Serif" font-size="10.00">lua_longjmp</text>
</a>
</g>
</g>
<!-- Node22&#45;&gt;Node21 -->
<g id="edge38" class="edge"><title>Node22&#45;&gt;Node21</title>
<path fill="none" stroke="#9a32cd" stroke-dasharray="5,2" d="M569.298,-354.829C575.477,-356.995 581.9,-359.123 588,-360.926 610.242,-367.5 635.885,-373.339 654.92,-377.346"/>
<polygon fill="#9a32cd" stroke="#9a32cd" points="570.465,-351.529 559.871,-351.432 568.092,-358.114 570.465,-351.529"/>
<text text-anchor="middle" x="612.5" y="-376.926" font-family="Helvetica,sans-Serif" font-size="10.00"> errorJmp</text>
</g>
<!-- Node22&#45;&gt;Node22 -->
<g id="edge39" class="edge"><title>Node22&#45;&gt;Node22</title>
<path fill="none" stroke="#9a32cd" stroke-dasharray="5,2" d="M520.872,-361.692C521.943,-366.422 526.485,-369.926 534.5,-369.926 547.652,-369.926 551.454,-360.491 545.906,-351.683"/>
<polygon fill="#9a32cd" stroke="#9a32cd" points="524.344,-362.204 523.094,-351.683 517.51,-360.687 524.344,-362.204"/>
<text text-anchor="middle" x="534.5" y="-372.926" font-family="Helvetica,sans-Serif" font-size="10.00"> previous</text>
</g>
<!-- Node23&#45;&gt;Node21 -->
<g id="edge40" class="edge"><title>Node23&#45;&gt;Node21</title>
<path fill="none" stroke="#9a32cd" stroke-dasharray="5,2" d="M566.487,-317.55C573.553,-320.643 581.032,-323.906 588,-326.926 609.74,-336.346 616.529,-335.996 637,-347.926 649.658,-355.303 662.84,-365.649 671.831,-373.179"/>
<polygon fill="#9a32cd" stroke="#9a32cd" points="567.758,-314.286 557.194,-313.477 564.948,-320.697 567.758,-314.286"/>
<text text-anchor="middle" x="612.5" y="-350.926" font-family="Helvetica,sans-Serif" font-size="10.00"> l_G</text>
</g>
<!-- Node24&#45;&gt;Node23 -->
<g id="edge42" class="edge"><title>Node24&#45;&gt;Node23</title>
<path fill="none" stroke="#9a32cd" stroke-dasharray="5,2" d="M425.348,-539.882C444.948,-529.798 468.303,-514.218 481,-492.926 519.914,-427.67 456.954,-386.209 499,-322.926 501.497,-319.167 505,-316.083 508.824,-313.577"/>
<polygon fill="#9a32cd" stroke="#9a32cd" points="423.548,-536.865 416.091,-544.391 426.614,-543.158 423.548,-536.865"/>
<text text-anchor="middle" x="460.5" y="-532.926" font-family="Helvetica,sans-Serif" font-size="10.00"> strt</text>
</g>
<!-- Node25&#45;&gt;Node21 -->
<g id="edge50" class="edge"><title>Node25&#45;&gt;Node21</title>
<path fill="none" stroke="#9a32cd" stroke-dasharray="5,2" d="M793.765,-357.649C769.246,-363.347 736.252,-371.015 713.055,-376.406"/>
<polygon fill="#9a32cd" stroke="#9a32cd" points="794.753,-361.013 803.701,-355.34 793.168,-354.195 794.753,-361.013"/>
<text text-anchor="middle" x="755" y="-385.926" font-family="Helvetica,sans-Serif" font-size="10.00"> ci</text>
<text text-anchor="middle" x="755" y="-374.926" font-family="Helvetica,sans-Serif" font-size="10.00">base_ci</text>
</g>
<!-- Node25&#45;&gt;Node25 -->
<g id="edge53" class="edge"><title>Node25&#45;&gt;Node25</title>
<path fill="none" stroke="#9a32cd" stroke-dasharray="5,2" d="M817.319,-369.692C818.158,-374.422 821.718,-377.926 828,-377.926 838.309,-377.926 841.288,-368.491 836.939,-359.683"/>
<polygon fill="#9a32cd" stroke="#9a32cd" points="820.794,-370.135 819.061,-359.683 813.898,-368.935 820.794,-370.135"/>
<text text-anchor="middle" x="828" y="-391.926" font-family="Helvetica,sans-Serif" font-size="10.00"> previous</text>
<text text-anchor="middle" x="828" y="-380.926" font-family="Helvetica,sans-Serif" font-size="10.00">next</text>
</g>
<!-- Node26 -->
<g id="node26" class="node"><title>Node26</title>
<g id="a_node26"><a xlink:href="struct_mbuffer.html" target="_top" xlink:title=" ">
<polygon fill="white" stroke="black" points="804,-302.426 804,-321.426 852,-321.426 852,-302.426 804,-302.426"/>
<text text-anchor="middle" x="828" y="-309.426" font-family="Helvetica,sans-Serif" font-size="10.00">Mbuffer</text>
</a>
</g>
</g>
<!-- Node26&#45;&gt;Node10 -->
<g id="edge55" class="edge"><title>Node26&#45;&gt;Node10</title>
<path fill="none" stroke="#9a32cd" stroke-dasharray="5,2" d="M855.81,-327.661C856.94,-328.704 858.012,-329.793 859,-330.926 910.201,-389.616 932.967,-484.943 939.17,-515.312"/>
<polygon fill="#9a32cd" stroke="#9a32cd" points="857.814,-324.787 847.757,-321.453 853.54,-330.331 857.814,-324.787"/>
<text text-anchor="middle" x="886.5" y="-386.926" font-family="Helvetica,sans-Serif" font-size="10.00"> buff</text>
</g>
<!-- Node27 -->
<g id="node27" class="node"><title>Node27</title>
<g id="a_node27"><a xlink:href="struct_block_cnt.html" target="_top" xlink:title=" ">
<polygon fill="white" stroke="black" points="656,-660.426 656,-679.426 712,-679.426 712,-660.426 656,-660.426"/>
<text text-anchor="middle" x="684" y="-667.426" font-family="Helvetica,sans-Serif" font-size="10.00">BlockCnt</text>
</a>
</g>
</g>
<!-- Node27&#45;&gt;Node1 -->
<g id="edge58" class="edge"><title>Node27&#45;&gt;Node1</title>
<path fill="none" stroke="#9a32cd" stroke-dasharray="5,2" d="M711.443,-655.401C740.058,-639.682 784.881,-615.061 809.446,-601.568"/>
<polygon fill="#9a32cd" stroke="#9a32cd" points="709.492,-652.479 702.412,-660.361 712.862,-658.615 709.492,-652.479"/>
<text text-anchor="middle" x="755" y="-644.926" font-family="Helvetica,sans-Serif" font-size="10.00"> bl</text>
</g>
<!-- Node27&#45;&gt;Node27 -->
<g id="edge59" class="edge"><title>Node27&#45;&gt;Node27</title>
<path fill="none" stroke="#9a32cd" stroke-dasharray="5,2" d="M671.109,-689.692C672.122,-694.422 676.419,-697.926 684,-697.926 696.441,-697.926 700.038,-688.491 694.789,-679.683"/>
<polygon fill="#9a32cd" stroke="#9a32cd" points="674.581,-690.189 673.211,-679.683 667.73,-688.75 674.581,-690.189"/>
<text text-anchor="middle" x="684" y="-700.926" font-family="Helvetica,sans-Serif" font-size="10.00"> previous</text>
</g>
</g>
</svg>
