<?xml version="1.0" encoding="UTF-8" standalone="no"?>
<!DOCTYPE svg PUBLIC "-//W3C//DTD SVG 1.1//EN"
 "http://www.w3.org/Graphics/SVG/1.1/DTD/svg11.dtd">
<!-- Generated by graphviz version 2.38.0 (20140413.2041)
 -->
<!-- Title: GCUnion Pages: 1 -->
<svg width="1146pt" height="545pt"
 viewBox="0.00 0.00 1145.50 545.00" xmlns="http://www.w3.org/2000/svg" xmlns:xlink="http://www.w3.org/1999/xlink">
<g id="graph0" class="graph" transform="scale(1 1) rotate(0) translate(4 541)">
<title>GCUnion</title>
<polygon fill="white" stroke="none" points="-4,4 -4,-541 1141.5,-541 1141.5,4 -4,4"/>
<!-- Node1 -->
<g id="node1" class="node"><title>Node1</title>
<g id="a_node1"><a xlink:title=" ">
<polygon fill="#bfbfbf" stroke="black" points="312.5,-0.5 312.5,-19.5 368.5,-19.5 368.5,-0.5 312.5,-0.5"/>
<text text-anchor="middle" x="340.5" y="-7.5" font-family="Helvetica,sans-Serif" font-size="10.00">GCUnion</text>
</a>
</g>
</g>
<!-- Node2 -->
<g id="node2" class="node"><title>Node2</title>
<g id="a_node2"><a xlink:href="struct_proto.html" target="_top" xlink:title=" ">
<polygon fill="white" stroke="black" points="907.5,-331 907.5,-350 947.5,-350 947.5,-331 907.5,-331"/>
<text text-anchor="middle" x="927.5" y="-338" font-family="Helvetica,sans-Serif" font-size="10.00">Proto</text>
</a>
</g>
</g>
<!-- Node2&#45;&gt;Node1 -->
<g id="edge1" class="edge"><title>Node2&#45;&gt;Node1</title>
<path fill="none" stroke="#9a32cd" stroke-dasharray="5,2" d="M940.66,-322.568C943.862,-317.512 946.84,-311.772 948.5,-306 978.487,-201.704 986.787,-130.106 898.5,-67 855.035,-35.9317 475.88,-16.971 368.645,-12.1958"/>
<polygon fill="#9a32cd" stroke="#9a32cd" points="937.771,-320.591 934.892,-330.787 943.501,-324.612 937.771,-320.591"/>
<text text-anchor="middle" x="952" y="-108" font-family="Helvetica,sans-Serif" font-size="10.00"> p</text>
</g>
<!-- Node2&#45;&gt;Node2 -->
<g id="edge3" class="edge"><title>Node2&#45;&gt;Node2</title>
<path fill="none" stroke="#9a32cd" stroke-dasharray="5,2" d="M957.916,-349.003C962.44,-347.679 965.5,-344.844 965.5,-340.5 965.5,-333.371 957.26,-330.308 947.829,-331.31"/>
<polygon fill="#9a32cd" stroke="#9a32cd" points="957.569,-345.519 947.829,-349.69 958.044,-352.503 957.569,-345.519"/>
<text text-anchor="middle" x="970" y="-338" font-family="Helvetica,sans-Serif" font-size="10.00"> p</text>
</g>
<!-- Node6 -->
<g id="node6" class="node"><title>Node6</title>
<g id="a_node6"><a xlink:href="struct_l_closure.html" target="_top" xlink:title=" ">
<polygon fill="white" stroke="black" points="867,-141 867,-160 922,-160 922,-141 867,-141"/>
<text text-anchor="middle" x="894.5" y="-148" font-family="Helvetica,sans-Serif" font-size="10.00">LClosure</text>
</a>
</g>
</g>
<!-- Node2&#45;&gt;Node6 -->
<g id="edge12" class="edge"><title>Node2&#45;&gt;Node6</title>
<path fill="none" stroke="#9a32cd" stroke-dasharray="5,2" d="M902.914,-325.177C896.357,-320.033 890.101,-313.591 886.5,-306 862.444,-255.28 882.999,-184.399 891.358,-160.082"/>
<polygon fill="#9a32cd" stroke="#9a32cd" points="901.005,-328.113 911.202,-330.989 905.024,-322.382 901.005,-328.113"/>
<text text-anchor="middle" x="891" y="-243" font-family="Helvetica,sans-Serif" font-size="10.00"> p</text>
</g>
<!-- Node3 -->
<g id="node3" class="node"><title>Node3</title>
<g id="a_node3"><a xlink:href="structlua___t_value.html" target="_top" xlink:title=" ">
<polygon fill="white" stroke="black" points="362,-517.5 362,-536.5 427,-536.5 427,-517.5 362,-517.5"/>
<text text-anchor="middle" x="394.5" y="-524.5" font-family="Helvetica,sans-Serif" font-size="10.00">lua_TValue</text>
</a>
</g>
</g>
<!-- Node3&#45;&gt;Node2 -->
<g id="edge2" class="edge"><title>Node3&#45;&gt;Node2</title>
<path fill="none" stroke="#9a32cd" stroke-dasharray="5,2" d="M437.051,-526.41C521.601,-526.656 707.591,-524.205 765.5,-499 842.47,-465.5 903.96,-377.948 922.065,-350.122"/>
<polygon fill="#9a32cd" stroke="#9a32cd" points="437.032,-522.91 427.017,-526.366 437.002,-529.91 437.032,-522.91"/>
<text text-anchor="middle" x="867" y="-440" font-family="Helvetica,sans-Serif" font-size="10.00"> k</text>
</g>
<!-- Node7 -->
<g id="node7" class="node"><title>Node7</title>
<g id="a_node7"><a xlink:href="struct_up_val.html" target="_top" xlink:title=" ">
<polygon fill="white" stroke="black" points="640,-433 640,-452 683,-452 683,-433 640,-433"/>
<text text-anchor="middle" x="661.5" y="-440" font-family="Helvetica,sans-Serif" font-size="10.00">UpVal</text>
</a>
</g>
</g>
<!-- Node3&#45;&gt;Node7 -->
<g id="edge11" class="edge"><title>Node3&#45;&gt;Node7</title>
<path fill="none" stroke="#9a32cd" stroke-dasharray="5,2" d="M437.337,-525.287C495.303,-523.604 594.987,-517.955 625.5,-499 643.06,-488.091 653.724,-465.085 658.508,-452.386"/>
<polygon fill="#9a32cd" stroke="#9a32cd" points="436.93,-521.796 427.026,-525.557 437.114,-528.794 436.93,-521.796"/>
<text text-anchor="middle" x="659" y="-491" font-family="Helvetica,sans-Serif" font-size="10.00"> value</text>
<text text-anchor="middle" x="659" y="-480" font-family="Helvetica,sans-Serif" font-size="10.00">v</text>
</g>
<!-- Node11 -->
<g id="node11" class="node"><title>Node11</title>
<g id="a_node11"><a xlink:href="struct_c_closure.html" target="_top" xlink:title=" ">
<polygon fill="white" stroke="black" points="707.5,-141 707.5,-160 763.5,-160 763.5,-141 707.5,-141"/>
<text text-anchor="middle" x="735.5" y="-148" font-family="Helvetica,sans-Serif" font-size="10.00">CClosure</text>
</a>
</g>
</g>
<!-- Node3&#45;&gt;Node11 -->
<g id="edge19" class="edge"><title>Node3&#45;&gt;Node11</title>
<path fill="none" stroke="#9a32cd" stroke-dasharray="5,2" d="M437.449,-524.592C505.066,-521.919 633.018,-514.894 675.5,-499 704.147,-488.282 717.328,-486.105 731.5,-459 759.64,-405.182 740.925,-204.173 736.409,-160.084"/>
<polygon fill="#9a32cd" stroke="#9a32cd" points="436.997,-521.106 427.137,-524.984 437.263,-528.101 436.997,-521.106"/>
<text text-anchor="middle" x="764.5" y="-389" font-family="Helvetica,sans-Serif" font-size="10.00"> upvalue</text>
</g>
<!-- Node12 -->
<g id="node12" class="node"><title>Node12</title>
<g id="a_node12"><a xlink:href="structlua___state.html" target="_top" xlink:title=" ">
<polygon fill="white" stroke="black" points="451.5,-331 451.5,-350 509.5,-350 509.5,-331 451.5,-331"/>
<text text-anchor="middle" x="480.5" y="-338" font-family="Helvetica,sans-Serif" font-size="10.00">lua_State</text>
</a>
</g>
</g>
<!-- Node3&#45;&gt;Node12 -->
<g id="edge22" class="edge"><title>Node3&#45;&gt;Node12</title>
<path fill="none" stroke="#9a32cd" stroke-dasharray="5,2" d="M392.722,-507.198C391.527,-486.414 391.894,-452.387 403.5,-426 418.123,-392.753 451.187,-363.859 468.855,-350.084"/>
<polygon fill="#9a32cd" stroke="#9a32cd" points="389.238,-507.543 393.485,-517.249 396.218,-507.013 389.238,-507.543"/>
<text text-anchor="middle" x="426.5" y="-451" font-family="Helvetica,sans-Serif" font-size="10.00"> stack</text>
<text text-anchor="middle" x="426.5" y="-440" font-family="Helvetica,sans-Serif" font-size="10.00">stack_last</text>
<text text-anchor="middle" x="426.5" y="-429" font-family="Helvetica,sans-Serif" font-size="10.00">top</text>
</g>
<!-- Node14 -->
<g id="node14" class="node"><title>Node14</title>
<g id="a_node14"><a xlink:href="structglobal___state.html" target="_top" xlink:title=" ">
<polygon fill="white" stroke="black" points="403,-67.5 403,-86.5 474,-86.5 474,-67.5 403,-67.5"/>
<text text-anchor="middle" x="438.5" y="-74.5" font-family="Helvetica,sans-Serif" font-size="10.00">global_State</text>
</a>
</g>
</g>
<!-- Node3&#45;&gt;Node14 -->
<g id="edge26" class="edge"><title>Node3&#45;&gt;Node14</title>
<path fill="none" stroke="#9a32cd" stroke-dasharray="5,2" d="M389.773,-507.205C389.246,-504.469 388.793,-501.673 388.5,-499 387.433,-489.281 388.467,-486.778 388.5,-477 388.944,-347.22 362.904,-311.813 390.5,-185 398.942,-146.206 422.373,-104.429 433.061,-86.7226"/>
<polygon fill="#9a32cd" stroke="#9a32cd" points="386.387,-508.099 392.003,-517.082 393.215,-506.557 386.387,-508.099"/>
<text text-anchor="middle" x="404" y="-338" font-family="Helvetica,sans-Serif" font-size="10.00"> l_registry</text>
</g>
<!-- Node16 -->
<g id="node16" class="node"><title>Node16</title>
<g id="a_node16"><a xlink:href="struct_table.html" target="_top" xlink:title=" ">
<polygon fill="white" stroke="black" points="74.5,-141 74.5,-160 114.5,-160 114.5,-141 74.5,-141"/>
<text text-anchor="middle" x="94.5" y="-148" font-family="Helvetica,sans-Serif" font-size="10.00">Table</text>
</a>
</g>
</g>
<!-- Node3&#45;&gt;Node16 -->
<g id="edge35" class="edge"><title>Node3&#45;&gt;Node16</title>
<path fill="none" stroke="#9a32cd" stroke-dasharray="5,2" d="M357.809,-514.036C325.964,-502.675 279.453,-483.676 243.5,-459 217.071,-440.86 211.642,-433.712 192.5,-408 161.744,-366.688 155.69,-354.185 137.5,-306 118.005,-254.358 127.083,-237.323 109.5,-185 106.577,-176.302 102.196,-166.789 98.9226,-160.131"/>
<polygon fill="#9a32cd" stroke="#9a32cd" points="357.007,-517.462 367.602,-517.453 359.313,-510.853 357.007,-517.462"/>
<text text-anchor="middle" x="205" y="-389" font-family="Helvetica,sans-Serif" font-size="10.00"> array</text>
</g>
<!-- Node17 -->
<g id="node17" class="node"><title>Node17</title>
<g id="a_node17"><a xlink:href="struct_node.html" target="_top" xlink:title=" ">
<polygon fill="white" stroke="black" points="56,-331 56,-350 95,-350 95,-331 56,-331"/>
<text text-anchor="middle" x="75.5" y="-338" font-family="Helvetica,sans-Serif" font-size="10.00">Node</text>
</a>
</g>
</g>
<!-- Node3&#45;&gt;Node17 -->
<g id="edge32" class="edge"><title>Node3&#45;&gt;Node17</title>
<path fill="none" stroke="#9a32cd" stroke-dasharray="5,2" d="M351.676,-526.701C282.48,-527.055 149.944,-524.272 111.5,-499 61.3421,-466.028 69.8855,-378.121 74.0388,-350.165"/>
<polygon fill="#9a32cd" stroke="#9a32cd" points="351.837,-530.2 361.811,-526.624 351.784,-523.2 351.837,-530.2"/>
<text text-anchor="middle" x="92.5" y="-440" font-family="Helvetica,sans-Serif" font-size="10.00"> i_val</text>
</g>
<!-- Node18 -->
<g id="node18" class="node"><title>Node18</title>
<g id="a_node18"><a xlink:href="union_t_key.html" target="_top" xlink:title=" ">
<polygon fill="white" stroke="black" points="0,-433 0,-452 39,-452 39,-433 0,-433"/>
<text text-anchor="middle" x="19.5" y="-440" font-family="Helvetica,sans-Serif" font-size="10.00">TKey</text>
</a>
</g>
</g>
<!-- Node3&#45;&gt;Node18 -->
<g id="edge34" class="edge"><title>Node3&#45;&gt;Node18</title>
<path fill="none" stroke="#9a32cd" stroke-dasharray="5,2" d="M351.666,-525.079C263.974,-522.851 70.1473,-516.042 45.5,-499 29.7464,-488.108 23.2923,-465.094 20.8486,-452.39"/>
<polygon fill="#9a32cd" stroke="#9a32cd" points="351.732,-528.582 361.815,-525.328 351.904,-521.584 351.732,-528.582"/>
<text text-anchor="middle" x="53.5" y="-485.5" font-family="Helvetica,sans-Serif" font-size="10.00"> tvk</text>
</g>
<!-- Node19 -->
<g id="node19" class="node"><title>Node19</title>
<g id="a_node19"><a xlink:href="struct_call_info.html" target="_top" xlink:title=" ">
<polygon fill="white" stroke="black" points="560.5,-141 560.5,-160 608.5,-160 608.5,-141 560.5,-141"/>
<text text-anchor="middle" x="584.5" y="-148" font-family="Helvetica,sans-Serif" font-size="10.00">CallInfo</text>
</a>
</g>
</g>
<!-- Node3&#45;&gt;Node19 -->
<g id="edge43" class="edge"><title>Node3&#45;&gt;Node19</title>
<path fill="none" stroke="#9a32cd" stroke-dasharray="5,2" d="M437.34,-525.156C484.195,-521.657 557.3,-508.072 592.5,-459 601.049,-447.082 600.211,-438.476 592.5,-426 583.095,-410.783 565.905,-423.217 556.5,-408 548.789,-395.524 551.782,-388.887 556.5,-375 568.939,-338.386 597.061,-342.614 609.5,-306 626.799,-255.08 626.445,-236.038 609.5,-185 606.344,-175.496 599.326,-166.503 593.527,-160.233"/>
<polygon fill="#9a32cd" stroke="#9a32cd" points="436.95,-521.673 427.187,-525.788 437.385,-528.66 436.95,-521.673"/>
<text text-anchor="middle" x="569" y="-400" font-family="Helvetica,sans-Serif" font-size="10.00"> base</text>
<text text-anchor="middle" x="569" y="-389" font-family="Helvetica,sans-Serif" font-size="10.00">func</text>
<text text-anchor="middle" x="569" y="-378" font-family="Helvetica,sans-Serif" font-size="10.00">top</text>
</g>
<!-- Node4 -->
<g id="node4" class="node"><title>Node4</title>
<g id="a_node4"><a xlink:href="struct_loc_var.html" target="_top" xlink:title=" ">
<polygon fill="white" stroke="black" points="901,-433 901,-452 948,-452 948,-433 901,-433"/>
<text text-anchor="middle" x="924.5" y="-440" font-family="Helvetica,sans-Serif" font-size="10.00">LocVar</text>
</a>
</g>
</g>
<!-- Node4&#45;&gt;Node2 -->
<g id="edge4" class="edge"><title>Node4&#45;&gt;Node2</title>
<path fill="none" stroke="#9a32cd" stroke-dasharray="5,2" d="M925.064,-422.694C925.717,-400.919 926.765,-366.002 927.245,-350.004"/>
<polygon fill="#9a32cd" stroke="#9a32cd" points="921.557,-422.874 924.756,-432.974 928.554,-423.084 921.557,-422.874"/>
<text text-anchor="middle" x="943.5" y="-389" font-family="Helvetica,sans-Serif" font-size="10.00"> locvars</text>
</g>
<!-- Node5 -->
<g id="node5" class="node"><title>Node5</title>
<g id="a_node5"><a xlink:href="struct_t_string.html" target="_top" xlink:title=" ">
<polygon fill="white" stroke="black" points="932,-517.5 932,-536.5 979,-536.5 979,-517.5 932,-517.5"/>
<text text-anchor="middle" x="955.5" y="-524.5" font-family="Helvetica,sans-Serif" font-size="10.00">TString</text>
</a>
</g>
</g>
<!-- Node5&#45;&gt;Node1 -->
<g id="edge16" class="edge"><title>Node5&#45;&gt;Node1</title>
<path fill="none" stroke="#9a32cd" stroke-dasharray="5,2" d="M989.411,-524.316C1039.01,-519.825 1125.5,-503.404 1125.5,-443.5 1125.5,-443.5 1125.5,-443.5 1125.5,-76 1125.5,-37.2396 509.637,-16.1476 368.902,-11.8338"/>
<polygon fill="#9a32cd" stroke="#9a32cd" points="988.832,-520.851 979.138,-525.125 989.382,-527.829 988.832,-520.851"/>
<text text-anchor="middle" x="1131.5" y="-243" font-family="Helvetica,sans-Serif" font-size="10.00"> ts</text>
</g>
<!-- Node5&#45;&gt;Node2 -->
<g id="edge7" class="edge"><title>Node5&#45;&gt;Node2</title>
<path fill="none" stroke="#9a32cd" stroke-dasharray="5,2" d="M966.85,-508.529C968.356,-505.461 969.666,-502.218 970.5,-499 978.44,-468.357 992.804,-434.064 964.5,-375 959.557,-364.685 949.874,-356.101 941.654,-350.205"/>
<polygon fill="#9a32cd" stroke="#9a32cd" points="963.653,-507.068 961.709,-517.483 969.723,-510.554 963.653,-507.068"/>
<text text-anchor="middle" x="998" y="-440" font-family="Helvetica,sans-Serif" font-size="10.00"> source</text>
</g>
<!-- Node5&#45;&gt;Node4 -->
<g id="edge5" class="edge"><title>Node5&#45;&gt;Node4</title>
<path fill="none" stroke="#9a32cd" stroke-dasharray="5,2" d="M937.606,-509.907C934.81,-506.57 932.266,-502.879 930.5,-499 923.511,-483.653 923.251,-463.529 923.801,-452.211"/>
<polygon fill="#9a32cd" stroke="#9a32cd" points="935.328,-512.589 944.777,-517.382 940.379,-507.742 935.328,-512.589"/>
<text text-anchor="middle" x="950.5" y="-485.5" font-family="Helvetica,sans-Serif" font-size="10.00"> varname</text>
</g>
<!-- Node5&#45;&gt;Node5 -->
<g id="edge6" class="edge"><title>Node5&#45;&gt;Node5</title>
<path fill="none" stroke="#9a32cd" stroke-dasharray="5,2" d="M989.515,-533.287C994.015,-532.216 997,-530.121 997,-527 997,-521.879 988.96,-519.518 979.382,-519.918"/>
<polygon fill="#9a32cd" stroke="#9a32cd" points="989.078,-529.81 979.382,-534.082 989.625,-536.789 989.078,-529.81"/>
<text text-anchor="middle" x="1011" y="-524.5" font-family="Helvetica,sans-Serif" font-size="10.00"> hnext</text>
</g>
<!-- Node9 -->
<g id="node9" class="node"><title>Node9</title>
<g id="a_node9"><a xlink:href="struct_upvaldesc.html" target="_top" xlink:title=" ">
<polygon fill="white" stroke="black" points="1036,-433 1036,-452 1097,-452 1097,-433 1036,-433"/>
<text text-anchor="middle" x="1066.5" y="-440" font-family="Helvetica,sans-Serif" font-size="10.00">Upvaldesc</text>
</a>
</g>
</g>
<!-- Node5&#45;&gt;Node9 -->
<g id="edge15" class="edge"><title>Node5&#45;&gt;Node9</title>
<path fill="none" stroke="#9a32cd" stroke-dasharray="5,2" d="M979.055,-511.942C985.468,-507.918 992.342,-503.421 998.5,-499 1020.04,-483.538 1043.71,-463.455 1056.67,-452.176"/>
<polygon fill="#9a32cd" stroke="#9a32cd" points="976.81,-509.214 970.126,-517.435 980.477,-515.177 976.81,-509.214"/>
<text text-anchor="middle" x="1039.5" y="-485.5" font-family="Helvetica,sans-Serif" font-size="10.00"> name</text>
</g>
<!-- Node5&#45;&gt;Node14 -->
<g id="edge29" class="edge"><title>Node5&#45;&gt;Node14</title>
<path fill="none" stroke="#9a32cd" stroke-dasharray="5,2" d="M935.125,-511.212C930.449,-507.447 925.639,-503.255 921.5,-499 906.005,-483.071 902.623,-478.238 891.5,-459 871.17,-423.836 872.59,-411.847 855.5,-375 851.737,-366.886 849.177,-365.534 846.5,-357 823.377,-283.294 843.145,-259.153 821.5,-185 814.533,-161.131 815.905,-151.758 798.5,-134 777.488,-112.561 766.456,-112.918 737.5,-105 644.994,-79.7046 531.001,-76.8231 474.198,-77.2032"/>
<polygon fill="#9a32cd" stroke="#9a32cd" points="933.166,-514.121 943.225,-517.45 937.438,-508.576 933.166,-514.121"/>
<text text-anchor="middle" x="872.5" y="-349" font-family="Helvetica,sans-Serif" font-size="10.00"> strcache</text>
<text text-anchor="middle" x="872.5" y="-338" font-family="Helvetica,sans-Serif" font-size="10.00">tmname</text>
<text text-anchor="middle" x="872.5" y="-327" font-family="Helvetica,sans-Serif" font-size="10.00">memerrmsg</text>
</g>
<!-- Node15 -->
<g id="node15" class="node"><title>Node15</title>
<g id="a_node15"><a xlink:href="structstringtable.html" target="_top" xlink:title=" ">
<polygon fill="white" stroke="black" points="792.5,-382 792.5,-401 854.5,-401 854.5,-382 792.5,-382"/>
<text text-anchor="middle" x="823.5" y="-389" font-family="Helvetica,sans-Serif" font-size="10.00">stringtable</text>
</a>
</g>
</g>
<!-- Node5&#45;&gt;Node15 -->
<g id="edge28" class="edge"><title>Node5&#45;&gt;Node15</title>
<path fill="none" stroke="#9a32cd" stroke-dasharray="5,2" d="M921.765,-522.755C890.391,-518.997 846.833,-511.643 835.5,-499 810.536,-471.152 817.376,-421.38 821.467,-401.279"/>
<polygon fill="#9a32cd" stroke="#9a32cd" points="921.545,-526.252 931.874,-523.894 922.329,-519.296 921.545,-526.252"/>
<text text-anchor="middle" x="848" y="-485.5" font-family="Helvetica,sans-Serif" font-size="10.00"> hash</text>
</g>
<!-- Node6&#45;&gt;Node2 -->
<g id="edge8" class="edge"><title>Node6&#45;&gt;Node2</title>
<path fill="none" stroke="#9a32cd" stroke-dasharray="5,2" d="M896.751,-170.292C900.4,-199.496 908.243,-257.467 918.5,-306 920.293,-314.485 922.917,-324.024 924.869,-330.746"/>
<polygon fill="#9a32cd" stroke="#9a32cd" points="900.214,-169.772 895.524,-160.272 893.266,-170.623 900.214,-169.772"/>
<text text-anchor="middle" x="933.5" y="-243" font-family="Helvetica,sans-Serif" font-size="10.00"> cache</text>
</g>
<!-- Node10 -->
<g id="node10" class="node"><title>Node10</title>
<g id="a_node10"><a xlink:href="union_closure.html" target="_top" xlink:title=" ">
<polygon fill="white" stroke="black" points="839.5,-67.5 839.5,-86.5 889.5,-86.5 889.5,-67.5 839.5,-67.5"/>
<text text-anchor="middle" x="864.5" y="-74.5" font-family="Helvetica,sans-Serif" font-size="10.00">Closure</text>
</a>
</g>
</g>
<!-- Node6&#45;&gt;Node10 -->
<g id="edge46" class="edge"><title>Node6&#45;&gt;Node10</title>
<path fill="none" stroke="#9a32cd" stroke-dasharray="5,2" d="M886.918,-131.429C880.938,-117.178 872.857,-97.917 868.209,-86.839"/>
<polygon fill="#9a32cd" stroke="#9a32cd" points="883.725,-132.866 890.821,-140.733 890.18,-130.157 883.725,-132.866"/>
<text text-anchor="middle" x="883.5" y="-108" font-family="Helvetica,sans-Serif" font-size="10.00"> l</text>
</g>
<!-- Node7&#45;&gt;Node6 -->
<g id="edge9" class="edge"><title>Node7&#45;&gt;Node6</title>
<path fill="none" stroke="#9a32cd" stroke-dasharray="5,2" d="M663.635,-422.691C670.08,-375.065 693.812,-248.961 769.5,-185 797.042,-161.725 839.183,-154.467 866.791,-152.291"/>
<polygon fill="#9a32cd" stroke="#9a32cd" points="660.14,-422.436 662.374,-432.792 667.086,-423.303 660.14,-422.436"/>
<text text-anchor="middle" x="702" y="-338" font-family="Helvetica,sans-Serif" font-size="10.00"> upvals</text>
</g>
<!-- Node7&#45;&gt;Node7 -->
<g id="edge10" class="edge"><title>Node7&#45;&gt;Node7</title>
<path fill="none" stroke="#9a32cd" stroke-dasharray="5,2" d="M693.309,-449.934C697.906,-448.749 701,-446.271 701,-442.5 701,-436.313 692.668,-433.605 683.034,-434.379"/>
<polygon fill="#9a32cd" stroke="#9a32cd" points="692.778,-446.462 683.034,-450.621 693.245,-453.446 692.778,-446.462"/>
<text text-anchor="middle" x="712" y="-440" font-family="Helvetica,sans-Serif" font-size="10.00"> next</text>
</g>
<!-- Node7&#45;&gt;Node12 -->
<g id="edge21" class="edge"><title>Node7&#45;&gt;Node12</title>
<path fill="none" stroke="#9a32cd" stroke-dasharray="5,2" d="M635.344,-427.803C626.275,-422.347 616.408,-415.56 608.5,-408 595.577,-395.646 599.888,-385.611 585.5,-375 563.017,-358.418 532.027,-349.854 509.546,-345.556"/>
<polygon fill="#9a32cd" stroke="#9a32cd" points="633.63,-430.854 644.046,-432.794 637.113,-424.782 633.63,-430.854"/>
<text text-anchor="middle" x="631.5" y="-389" font-family="Helvetica,sans-Serif" font-size="10.00"> openupval</text>
</g>
<!-- Node8 -->
<g id="node8" class="node"><title>Node8</title>
<g id="a_node8"><a xlink:href="struct_g_c_object.html" target="_top" xlink:title=" ">
<polygon fill="white" stroke="black" points="253,-433 253,-452 312,-452 312,-433 253,-433"/>
<text text-anchor="middle" x="282.5" y="-440" font-family="Helvetica,sans-Serif" font-size="10.00">GCObject</text>
</a>
</g>
</g>
<!-- Node8&#45;&gt;Node1 -->
<g id="edge53" class="edge"><title>Node8&#45;&gt;Node1</title>
<path fill="none" stroke="#9a32cd" stroke-dasharray="5,2" d="M280.133,-423.02C277.774,-402.977 274.5,-370.023 274.5,-341.5 274.5,-341.5 274.5,-341.5 274.5,-76 274.5,-49.3035 302.251,-29.8984 321.764,-19.5538"/>
<polygon fill="#9a32cd" stroke="#9a32cd" points="276.661,-423.459 281.354,-432.957 283.608,-422.605 276.661,-423.459"/>
<text text-anchor="middle" x="281.5" y="-148" font-family="Helvetica,sans-Serif" font-size="10.00"> gc</text>
</g>
<!-- Node8&#45;&gt;Node2 -->
<g id="edge13" class="edge"><title>Node8&#45;&gt;Node2</title>
<path fill="none" stroke="#9a32cd" stroke-dasharray="5,2" d="M322.24,-433.707C337.854,-430.894 355.965,-427.938 372.5,-426 435.748,-418.585 598.749,-430.026 658.5,-408 681.436,-399.545 679.699,-383.811 702.5,-375 782.034,-344.268 811.119,-378.99 893.5,-357 899.642,-355.36 906.065,-352.705 911.652,-350.051"/>
<polygon fill="#9a32cd" stroke="#9a32cd" points="321.583,-430.269 312.383,-435.522 322.851,-437.153 321.583,-430.269"/>
<text text-anchor="middle" x="716" y="-389" font-family="Helvetica,sans-Serif" font-size="10.00"> gclist</text>
</g>
<!-- Node8&#45;&gt;Node12 -->
<g id="edge40" class="edge"><title>Node8&#45;&gt;Node12</title>
<path fill="none" stroke="#9a32cd" stroke-dasharray="5,2" d="M296.947,-425.188C311.184,-410.077 334.267,-388.032 358.5,-375 360.598,-373.872 415.89,-358.886 451.309,-349.344"/>
<polygon fill="#9a32cd" stroke="#9a32cd" points="294.176,-423.031 289.997,-432.767 299.335,-427.762 294.176,-423.031"/>
<text text-anchor="middle" x="372" y="-389" font-family="Helvetica,sans-Serif" font-size="10.00"> gclist</text>
</g>
<!-- Node8&#45;&gt;Node14 -->
<g id="edge38" class="edge"><title>Node8&#45;&gt;Node14</title>
<path fill="none" stroke="#9a32cd" stroke-dasharray="5,2" d="M284.479,-422.638C290.54,-365.237 308.728,-195.909 313.5,-185 332.203,-142.247 344.474,-133.402 381.5,-105 391.491,-97.3358 404.009,-91.1089 414.766,-86.5746"/>
<polygon fill="#9a32cd" stroke="#9a32cd" points="280.973,-422.508 283.407,-432.82 287.935,-423.241 280.973,-422.508"/>
<text text-anchor="middle" x="338" y="-298" font-family="Helvetica,sans-Serif" font-size="10.00"> fixedgc</text>
<text text-anchor="middle" x="338" y="-287" font-family="Helvetica,sans-Serif" font-size="10.00">gray</text>
<text text-anchor="middle" x="338" y="-276" font-family="Helvetica,sans-Serif" font-size="10.00">grayagain</text>
<text text-anchor="middle" x="338" y="-265" font-family="Helvetica,sans-Serif" font-size="10.00">tobefnz</text>
<text text-anchor="middle" x="338" y="-254" font-family="Helvetica,sans-Serif" font-size="10.00">allgc</text>
<text text-anchor="middle" x="338" y="-243" font-family="Helvetica,sans-Serif" font-size="10.00">weak</text>
<text text-anchor="middle" x="338" y="-232" font-family="Helvetica,sans-Serif" font-size="10.00">ephemeron</text>
<text text-anchor="middle" x="338" y="-221" font-family="Helvetica,sans-Serif" font-size="10.00">finobj</text>
<text text-anchor="middle" x="338" y="-210" font-family="Helvetica,sans-Serif" font-size="10.00">sweepgc</text>
<text text-anchor="middle" x="338" y="-199" font-family="Helvetica,sans-Serif" font-size="10.00">allweak</text>
<text text-anchor="middle" x="338" y="-188" font-family="Helvetica,sans-Serif" font-size="10.00">...</text>
</g>
<!-- Node8&#45;&gt;Node16 -->
<g id="edge37" class="edge"><title>Node8&#45;&gt;Node16</title>
<path fill="none" stroke="#9a32cd" stroke-dasharray="5,2" d="M264.509,-426.107C258.52,-420.638 251.983,-414.277 246.5,-408 228.247,-387.105 223.996,-381.241 210.5,-357 170.103,-284.443 188.098,-250.85 137.5,-185 129.774,-174.945 118.354,-166.237 109.225,-160.222"/>
<polygon fill="#9a32cd" stroke="#9a32cd" points="262.383,-428.9 272.186,-432.919 267.029,-423.664 262.383,-428.9"/>
<text text-anchor="middle" x="224" y="-338" font-family="Helvetica,sans-Serif" font-size="10.00"> gclist</text>
</g>
<!-- Node21 -->
<g id="node21" class="node"><title>Node21</title>
<g id="a_node21"><a xlink:href="union_value.html" target="_top" xlink:title=" ">
<polygon fill="white" stroke="black" points="197,-141 197,-160 238,-160 238,-141 197,-141"/>
<text text-anchor="middle" x="217.5" y="-148" font-family="Helvetica,sans-Serif" font-size="10.00">Value</text>
</a>
</g>
</g>
<!-- Node8&#45;&gt;Node21 -->
<g id="edge51" class="edge"><title>Node8&#45;&gt;Node21</title>
<path fill="none" stroke="#9a32cd" stroke-dasharray="5,2" d="M269.856,-424.493C266.467,-419.379 263.043,-413.627 260.5,-408 250.819,-386.581 251.263,-380.018 246.5,-357 230.875,-281.494 221.108,-188.623 218.324,-160.182"/>
<polygon fill="#9a32cd" stroke="#9a32cd" points="267.108,-426.67 275.718,-432.843 272.837,-422.648 267.108,-426.67"/>
<text text-anchor="middle" x="253.5" y="-338" font-family="Helvetica,sans-Serif" font-size="10.00"> gc</text>
</g>
<!-- Node9&#45;&gt;Node2 -->
<g id="edge14" class="edge"><title>Node9&#45;&gt;Node2</title>
<path fill="none" stroke="#9a32cd" stroke-dasharray="5,2" d="M1052.61,-425.102C1039.7,-410.581 1019.35,-389.499 998.5,-375 982.609,-363.952 962.502,-354.853 947.746,-348.94"/>
<polygon fill="#9a32cd" stroke="#9a32cd" points="1050.1,-427.549 1059.31,-432.794 1055.38,-422.953 1050.1,-427.549"/>
<text text-anchor="middle" x="1057" y="-389" font-family="Helvetica,sans-Serif" font-size="10.00"> upvalues</text>
</g>
<!-- Node10&#45;&gt;Node1 -->
<g id="edge17" class="edge"><title>Node10&#45;&gt;Node1</title>
<path fill="none" stroke="#9a32cd" stroke-dasharray="5,2" d="M829.241,-71.6262C731.318,-59.4793 457.421,-25.5035 368.655,-14.4925"/>
<polygon fill="#9a32cd" stroke="#9a32cd" points="828.872,-75.1072 839.226,-72.8649 829.733,-68.1604 828.872,-75.1072"/>
<text text-anchor="middle" x="640" y="-41" font-family="Helvetica,sans-Serif" font-size="10.00"> cl</text>
</g>
<!-- Node11&#45;&gt;Node10 -->
<g id="edge18" class="edge"><title>Node11&#45;&gt;Node10</title>
<path fill="none" stroke="#9a32cd" stroke-dasharray="5,2" d="M759.975,-135.934C786.119,-121.444 826.771,-98.9118 848.884,-86.6552"/>
<polygon fill="#9a32cd" stroke="#9a32cd" points="758.11,-132.966 751.06,-140.875 761.504,-139.089 758.11,-132.966"/>
<text text-anchor="middle" x="820" y="-108" font-family="Helvetica,sans-Serif" font-size="10.00"> c</text>
</g>
<!-- Node12&#45;&gt;Node1 -->
<g id="edge54" class="edge"><title>Node12&#45;&gt;Node1</title>
<path fill="none" stroke="#9a32cd" stroke-dasharray="5,2" d="M460.23,-324.495C454.376,-319.241 448.497,-312.91 444.5,-306 416.863,-258.218 433.843,-237.404 416.5,-185 394.854,-119.594 357.896,-45.0093 345.056,-19.8275"/>
<polygon fill="#9a32cd" stroke="#9a32cd" points="458.083,-327.261 468.017,-330.944 462.548,-321.87 458.083,-327.261"/>
<text text-anchor="middle" x="396.5" y="-108" font-family="Helvetica,sans-Serif" font-size="10.00"> th</text>
</g>
<!-- Node12&#45;&gt;Node11 -->
<g id="edge20" class="edge"><title>Node12&#45;&gt;Node11</title>
<path fill="none" stroke="#9a32cd" stroke-dasharray="5,2" d="M519.284,-333.413C539.31,-328.672 563.119,-320.375 580.5,-306 628.037,-266.684 601.846,-225.359 648.5,-185 665.27,-170.493 689.007,-161.919 707.451,-157.082"/>
<polygon fill="#9a32cd" stroke="#9a32cd" points="518.544,-329.992 509.507,-335.523 520.021,-336.834 518.544,-329.992"/>
<text text-anchor="middle" x="651.5" y="-243" font-family="Helvetica,sans-Serif" font-size="10.00"> f</text>
</g>
<!-- Node12&#45;&gt;Node12 -->
<g id="edge41" class="edge"><title>Node12&#45;&gt;Node12</title>
<path fill="none" stroke="#9a32cd" stroke-dasharray="5,2" d="M520.103,-348.444C524.591,-346.957 527.5,-344.309 527.5,-340.5 527.5,-334.25 519.667,-331.125 509.875,-331.125"/>
<polygon fill="#9a32cd" stroke="#9a32cd" points="519.294,-345.024 509.875,-349.875 520.263,-351.956 519.294,-345.024"/>
<text text-anchor="middle" x="542" y="-338" font-family="Helvetica,sans-Serif" font-size="10.00"> twups</text>
</g>
<!-- Node12&#45;&gt;Node14 -->
<g id="edge39" class="edge"><title>Node12&#45;&gt;Node14</title>
<path fill="none" stroke="#9a32cd" stroke-dasharray="5,2" d="M475.348,-320.804C464.944,-282.691 442.109,-197.082 438.5,-167 434.984,-137.698 436.715,-102.578 437.82,-86.6322"/>
<polygon fill="#9a32cd" stroke="#9a32cd" points="472.015,-321.884 478.035,-330.603 478.766,-320.033 472.015,-321.884"/>
<text text-anchor="middle" x="463" y="-159" font-family="Helvetica,sans-Serif" font-size="10.00"> panic</text>
<text text-anchor="middle" x="463" y="-148" font-family="Helvetica,sans-Serif" font-size="10.00">mainthread</text>
<text text-anchor="middle" x="463" y="-137" font-family="Helvetica,sans-Serif" font-size="10.00">twups</text>
</g>
<!-- Node12&#45;&gt;Node19 -->
<g id="edge44" class="edge"><title>Node12&#45;&gt;Node19</title>
<path fill="none" stroke="#9a32cd" stroke-dasharray="5,2" d="M487.027,-321.065C488.618,-316.202 490.227,-310.934 491.5,-306 505.178,-252.996 481.105,-228.374 514.5,-185 517.808,-180.703 544.642,-168.561 564.102,-160.141"/>
<polygon fill="#9a32cd" stroke="#9a32cd" points="483.631,-320.181 483.709,-330.775 490.255,-322.444 483.631,-320.181"/>
<text text-anchor="middle" x="519" y="-243" font-family="Helvetica,sans-Serif" font-size="10.00"> k</text>
</g>
<!-- Node12&#45;&gt;Node21 -->
<g id="edge52" class="edge"><title>Node12&#45;&gt;Node21</title>
<path fill="none" stroke="#9a32cd" stroke-dasharray="5,2" d="M443.482,-326.859C432.71,-321.742 421.66,-314.894 413.5,-306 374.387,-263.37 410.647,-221.178 365.5,-185 325.814,-153.199 301.269,-181.417 252.5,-167 246.509,-165.229 240.199,-162.669 234.612,-160.138"/>
<polygon fill="#9a32cd" stroke="#9a32cd" points="442.231,-330.132 452.796,-330.918 445.027,-323.714 442.231,-330.132"/>
<text text-anchor="middle" x="416.5" y="-243" font-family="Helvetica,sans-Serif" font-size="10.00"> f</text>
</g>
<!-- Node13 -->
<g id="node13" class="node"><title>Node13</title>
<g id="a_node13"><a xlink:href="structlua__longjmp.html" target="_top" xlink:title=" ">
<polygon fill="white" stroke="black" points="458.5,-433 458.5,-452 526.5,-452 526.5,-433 458.5,-433"/>
<text text-anchor="middle" x="492.5" y="-440" font-family="Helvetica,sans-Serif" font-size="10.00">lua_longjmp</text>
</a>
</g>
</g>
<!-- Node13&#45;&gt;Node12 -->
<g id="edge23" class="edge"><title>Node13&#45;&gt;Node12</title>
<path fill="none" stroke="#9a32cd" stroke-dasharray="5,2" d="M490.279,-422.994C487.669,-401.241 483.449,-366.076 481.521,-350.004"/>
<polygon fill="#9a32cd" stroke="#9a32cd" points="486.81,-423.462 491.477,-432.974 493.76,-422.628 486.81,-423.462"/>
<text text-anchor="middle" x="509" y="-389" font-family="Helvetica,sans-Serif" font-size="10.00"> errorJmp</text>
</g>
<!-- Node13&#45;&gt;Node13 -->
<g id="edge24" class="edge"><title>Node13&#45;&gt;Node13</title>
<path fill="none" stroke="#9a32cd" stroke-dasharray="5,2" d="M536.648,-449.401C541.425,-448.077 544.5,-445.776 544.5,-442.5 544.5,-437.258 536.627,-434.514 526.508,-434.268"/>
<polygon fill="#9a32cd" stroke="#9a32cd" points="535.968,-445.961 526.508,-450.732 536.879,-452.901 535.968,-445.961"/>
<text text-anchor="middle" x="564" y="-440" font-family="Helvetica,sans-Serif" font-size="10.00"> previous</text>
</g>
<!-- Node14&#45;&gt;Node12 -->
<g id="edge25" class="edge"><title>Node14&#45;&gt;Node12</title>
<path fill="none" stroke="#9a32cd" stroke-dasharray="5,2" d="M458.819,-92.8483C470.813,-102.936 484.901,-117.428 491.5,-134 498.836,-152.422 485.176,-293.432 481.419,-330.563"/>
<polygon fill="#9a32cd" stroke="#9a32cd" points="460.972,-90.088 450.968,-86.5966 456.611,-95.564 460.972,-90.088"/>
<text text-anchor="middle" x="504" y="-148" font-family="Helvetica,sans-Serif" font-size="10.00"> l_G</text>
</g>
<!-- Node15&#45;&gt;Node14 -->
<g id="edge27" class="edge"><title>Node15&#45;&gt;Node14</title>
<path fill="none" stroke="#9a32cd" stroke-dasharray="5,2" d="M818.771,-371.845C814.516,-354.767 808.226,-328.764 803.5,-306 787.71,-229.946 827.759,-188.589 772.5,-134 730.777,-92.783 551.244,-81.7975 474.029,-78.9562"/>
<polygon fill="#9a32cd" stroke="#9a32cd" points="815.404,-372.81 821.236,-381.655 822.193,-371.104 815.404,-372.81"/>
<text text-anchor="middle" x="812.5" y="-243" font-family="Helvetica,sans-Serif" font-size="10.00"> strt</text>
</g>
<!-- Node16&#45;&gt;Node1 -->
<g id="edge47" class="edge"><title>Node16&#45;&gt;Node1</title>
<path fill="none" stroke="#9a32cd" stroke-dasharray="5,2" d="M97.0261,-130.746C98.9767,-122.129 102.423,-112.241 108.5,-105 161.445,-41.9217 263.13,-20.7218 312.386,-13.9642"/>
<polygon fill="#9a32cd" stroke="#9a32cd" points="93.5633,-130.229 95.2695,-140.685 100.457,-131.447 93.5633,-130.229"/>
<text text-anchor="middle" x="156" y="-74.5" font-family="Helvetica,sans-Serif" font-size="10.00"> h</text>
</g>
<!-- Node16&#45;&gt;Node14 -->
<g id="edge30" class="edge"><title>Node16&#45;&gt;Node14</title>
<path fill="none" stroke="#9a32cd" stroke-dasharray="5,2" d="M122.777,-136.805C149.231,-125.122 186.935,-109.014 202.5,-105 271.984,-87.082 356.039,-81.0479 402.758,-79.0208"/>
<polygon fill="#9a32cd" stroke="#9a32cd" points="121.321,-133.622 113.601,-140.879 124.161,-140.02 121.321,-133.622"/>
<text text-anchor="middle" x="210" y="-108" font-family="Helvetica,sans-Serif" font-size="10.00"> mt</text>
</g>
<!-- Node16&#45;&gt;Node16 -->
<g id="edge36" class="edge"><title>Node16&#45;&gt;Node16</title>
<path fill="none" stroke="#9a32cd" stroke-dasharray="5,2" d="M124.916,-157.303C129.44,-156.243 132.5,-153.975 132.5,-150.5 132.5,-144.797 124.26,-142.346 114.829,-143.148"/>
<polygon fill="#9a32cd" stroke="#9a32cd" points="124.624,-153.813 114.829,-157.852 125.005,-160.803 124.624,-153.813"/>
<text text-anchor="middle" x="155.5" y="-148" font-family="Helvetica,sans-Serif" font-size="10.00"> metatable</text>
</g>
<!-- Node20 -->
<g id="node20" class="node"><title>Node20</title>
<g id="a_node20"><a xlink:href="struct_udata.html" target="_top" xlink:title=" ">
<polygon fill="white" stroke="black" points="204.5,-67.5 204.5,-86.5 246.5,-86.5 246.5,-67.5 204.5,-67.5"/>
<text text-anchor="middle" x="225.5" y="-74.5" font-family="Helvetica,sans-Serif" font-size="10.00">Udata</text>
</a>
</g>
</g>
<!-- Node16&#45;&gt;Node20 -->
<g id="edge49" class="edge"><title>Node16&#45;&gt;Node20</title>
<path fill="none" stroke="#9a32cd" stroke-dasharray="5,2" d="M101.782,-131.734C106.425,-122.488 113.311,-111.739 122.5,-105 146.799,-87.1803 181.912,-81.1068 204.217,-79.0457"/>
<polygon fill="#9a32cd" stroke="#9a32cd" points="98.5608,-130.362 97.6202,-140.915 104.936,-133.252 98.5608,-130.362"/>
<text text-anchor="middle" x="145.5" y="-108" font-family="Helvetica,sans-Serif" font-size="10.00"> metatable</text>
</g>
<!-- Node17&#45;&gt;Node16 -->
<g id="edge31" class="edge"><title>Node17&#45;&gt;Node16</title>
<path fill="none" stroke="#9a32cd" stroke-dasharray="5,2" d="M73.067,-320.905C69.8162,-291.535 65.7305,-232.831 77.5,-185 79.7129,-176.007 84.7014,-166.683 88.7054,-160.163"/>
<polygon fill="#9a32cd" stroke="#9a32cd" points="69.6069,-321.447 74.2785,-330.956 76.5567,-320.609 69.6069,-321.447"/>
<text text-anchor="middle" x="93.5" y="-248.5" font-family="Helvetica,sans-Serif" font-size="10.00"> node</text>
<text text-anchor="middle" x="93.5" y="-237.5" font-family="Helvetica,sans-Serif" font-size="10.00">lastfree</text>
</g>
<!-- Node18&#45;&gt;Node17 -->
<g id="edge33" class="edge"><title>Node18&#45;&gt;Node17</title>
<path fill="none" stroke="#9a32cd" stroke-dasharray="5,2" d="M20.4662,-422.661C21.931,-408.62 25.5613,-389.456 34.5,-375 40.8811,-364.68 51.5824,-356.096 60.452,-350.201"/>
<polygon fill="#9a32cd" stroke="#9a32cd" points="16.9764,-422.395 19.6958,-432.635 23.9556,-422.934 16.9764,-422.395"/>
<text text-anchor="middle" x="48" y="-389" font-family="Helvetica,sans-Serif" font-size="10.00"> i_key</text>
</g>
<!-- Node19&#45;&gt;Node12 -->
<g id="edge42" class="edge"><title>Node19&#45;&gt;Node12</title>
<path fill="none" stroke="#9a32cd" stroke-dasharray="5,2" d="M562.654,-166.454C556.558,-171.65 550.512,-177.961 546.5,-185 519.393,-232.558 552.037,-259.286 523.5,-306 517.087,-316.498 506.098,-324.973 496.835,-330.772"/>
<polygon fill="#9a32cd" stroke="#9a32cd" points="565.075,-169.005 570.811,-160.097 560.772,-163.483 565.075,-169.005"/>
<text text-anchor="middle" x="563.5" y="-248.5" font-family="Helvetica,sans-Serif" font-size="10.00"> ci</text>
<text text-anchor="middle" x="563.5" y="-237.5" font-family="Helvetica,sans-Serif" font-size="10.00">base_ci</text>
</g>
<!-- Node19&#45;&gt;Node19 -->
<g id="edge45" class="edge"><title>Node19&#45;&gt;Node19</title>
<path fill="none" stroke="#9a32cd" stroke-dasharray="5,2" d="M618.925,-157.118C623.479,-155.991 626.5,-153.785 626.5,-150.5 626.5,-145.109 618.364,-142.625 608.67,-143.046"/>
<polygon fill="#9a32cd" stroke="#9a32cd" points="618.352,-153.653 608.67,-157.954 618.921,-160.629 618.352,-153.653"/>
<text text-anchor="middle" x="646" y="-153.5" font-family="Helvetica,sans-Serif" font-size="10.00"> previous</text>
<text text-anchor="middle" x="646" y="-142.5" font-family="Helvetica,sans-Serif" font-size="10.00">next</text>
</g>
<!-- Node20&#45;&gt;Node1 -->
<g id="edge48" class="edge"><title>Node20&#45;&gt;Node1</title>
<path fill="none" stroke="#9a32cd" stroke-dasharray="5,2" d="M234.144,-58.3594C238.466,-51.1403 244.32,-43.2641 251.5,-38 269.34,-24.9202 293.574,-18.1073 312.25,-14.5997"/>
<polygon fill="#9a32cd" stroke="#9a32cd" points="230.886,-57.0266 229.218,-67.4893 237.047,-60.3505 230.886,-57.0266"/>
<text text-anchor="middle" x="256" y="-41" font-family="Helvetica,sans-Serif" font-size="10.00"> u</text>
</g>
<!-- Node21&#45;&gt;Node20 -->
<g id="edge50" class="edge"><title>Node21&#45;&gt;Node20</title>
<path fill="none" stroke="#9a32cd" stroke-dasharray="5,2" d="M219.615,-130.594C221.2,-116.433 223.296,-97.7019 224.511,-86.839"/>
<polygon fill="#9a32cd" stroke="#9a32cd" points="216.115,-130.405 218.481,-140.733 223.071,-131.184 216.115,-130.405"/>
<text text-anchor="middle" x="236.5" y="-108" font-family="Helvetica,sans-Serif" font-size="10.00"> user_</text>
</g>
</g>
</svg>
