<?xml version="1.0" encoding="UTF-8" standalone="no"?>
<!DOCTYPE svg PUBLIC "-//W3C//DTD SVG 1.1//EN"
 "http://www.w3.org/Graphics/SVG/1.1/DTD/svg11.dtd">
<!-- Generated by graphviz version 2.38.0 (20140413.2041)
 -->
<!-- Title: lua_isinteger Pages: 1 -->
<svg width="812pt" height="541pt"
 viewBox="0.00 0.00 812.00 541.00" xmlns="http://www.w3.org/2000/svg" xmlns:xlink="http://www.w3.org/1999/xlink">
<g id="graph0" class="graph" transform="scale(1 1) rotate(0) translate(4 537)">
<title>lua_isinteger</title>
<polygon fill="white" stroke="none" points="-4,4 -4,-537 808,-537 808,4 -4,4"/>
<!-- Node1 -->
<g id="node1" class="node"><title>Node1</title>
<g id="a_node1"><a xlink:title=" ">
<polygon fill="#bfbfbf" stroke="black" points="733,-190.5 733,-209.5 804,-209.5 804,-190.5 733,-190.5"/>
<text text-anchor="middle" x="768.5" y="-197.5" font-family="Helvetica,sans-Serif" font-size="10.00">lua_isinteger</text>
</a>
</g>
</g>
<!-- Node2 -->
<g id="node2" class="node"><title>Node2</title>
<g id="a_node2"><a xlink:href="lstrlib_8c.html#a2ff59847baa24a18f7d78d47dc1d3220" target="_top" xlink:title=" ">
<polygon fill="white" stroke="black" points="522,-247.5 522,-266.5 578,-266.5 578,-247.5 522,-247.5"/>
<text text-anchor="middle" x="550" y="-254.5" font-family="Helvetica,sans-Serif" font-size="10.00">addliteral</text>
</a>
</g>
</g>
<!-- Node1&#45;&gt;Node2 -->
<g id="edge1" class="edge"><title>Node1&#45;&gt;Node2</title>
<path fill="none" stroke="midnightblue" d="M752.819,-217.047C739.764,-230.797 719.328,-249.103 697,-257 657.451,-270.988 608.018,-266.89 578.01,-262.244"/>
<polygon fill="midnightblue" stroke="midnightblue" points="755.464,-219.34 759.611,-209.59 750.289,-214.626 755.464,-219.34"/>
</g>
<!-- Node4 -->
<g id="node4" class="node"><title>Node4</title>
<g id="a_node4"><a xlink:href="liolib_8c.html#a88c73a30c7d135dfb4958b7bfaa90cc7" target="_top" xlink:title=" ">
<polygon fill="white" stroke="black" points="636.5,-475.5 636.5,-494.5 683.5,-494.5 683.5,-475.5 636.5,-475.5"/>
<text text-anchor="middle" x="660" y="-482.5" font-family="Helvetica,sans-Serif" font-size="10.00">g_write</text>
</a>
</g>
</g>
<!-- Node1&#45;&gt;Node4 -->
<g id="edge3" class="edge"><title>Node1&#45;&gt;Node4</title>
<path fill="none" stroke="midnightblue" d="M760.329,-219.189C739.586,-274.7 680.015,-434.115 664.651,-475.231"/>
<polygon fill="midnightblue" stroke="midnightblue" points="763.612,-220.403 763.834,-209.81 757.055,-217.953 763.612,-220.403"/>
</g>
<!-- Node7 -->
<g id="node7" class="node"><title>Node7</title>
<g id="a_node7"><a xlink:href="lauxlib_8h.html#a2b69e67252d95df410818251f4b2d8e5" target="_top" xlink:title=" ">
<polygon fill="white" stroke="black" points="635,-304.5 635,-323.5 685,-323.5 685,-304.5 635,-304.5"/>
<text text-anchor="middle" x="660" y="-311.5" font-family="Helvetica,sans-Serif" font-size="10.00">luaL_ref</text>
</a>
</g>
</g>
<!-- Node1&#45;&gt;Node7 -->
<g id="edge6" class="edge"><title>Node1&#45;&gt;Node7</title>
<path fill="none" stroke="midnightblue" d="M755.811,-218.199C742.902,-237.434 720.776,-267.977 697,-290 691.269,-295.309 684.253,-300.265 677.942,-304.279"/>
<polygon fill="midnightblue" stroke="midnightblue" points="758.798,-220.028 761.375,-209.752 752.952,-216.178 758.798,-220.028"/>
</g>
<!-- Node8 -->
<g id="node8" class="node"><title>Node8</title>
<g id="a_node8"><a xlink:href="lauxlib_8h.html#aef6da057d1e26ed6449b92177f1f2f5a" target="_top" xlink:title=" ">
<polygon fill="white" stroke="black" points="623,-342.5 623,-361.5 697,-361.5 697,-342.5 623,-342.5"/>
<text text-anchor="middle" x="660" y="-349.5" font-family="Helvetica,sans-Serif" font-size="10.00">luaL_tolstring</text>
</a>
</g>
</g>
<!-- Node1&#45;&gt;Node8 -->
<g id="edge7" class="edge"><title>Node1&#45;&gt;Node8</title>
<path fill="none" stroke="midnightblue" d="M761.367,-219.375C751.644,-247.46 730.31,-299.75 697,-333 693.299,-336.695 688.729,-339.841 684.103,-342.447"/>
<polygon fill="midnightblue" stroke="midnightblue" points="764.792,-220.165 764.626,-209.571 758.15,-217.957 764.792,-220.165"/>
</g>
<!-- Node19 -->
<g id="node19" class="node"><title>Node19</title>
<g id="a_node19"><a xlink:href="lauxlib_8h.html#a6200030ecae784852045161274501e0e" target="_top" xlink:title=" ">
<polygon fill="white" stroke="black" points="629.5,-228.5 629.5,-247.5 690.5,-247.5 690.5,-228.5 629.5,-228.5"/>
<text text-anchor="middle" x="660" y="-235.5" font-family="Helvetica,sans-Serif" font-size="10.00">luaL_unref</text>
</a>
</g>
</g>
<!-- Node1&#45;&gt;Node19 -->
<g id="edge21" class="edge"><title>Node1&#45;&gt;Node19</title>
<path fill="none" stroke="midnightblue" d="M731.145,-212.972C716.956,-218.034 700.982,-223.734 687.866,-228.414"/>
<polygon fill="midnightblue" stroke="midnightblue" points="732.383,-216.246 740.626,-209.589 730.031,-209.653 732.383,-216.246"/>
</g>
<!-- Node20 -->
<g id="node20" class="node"><title>Node20</title>
<g id="a_node20"><a xlink:href="lmathlib_8c.html#a9545dd3926974393ff34e33a108df628" target="_top" xlink:title=" ">
<polygon fill="white" stroke="black" points="630.5,-190.5 630.5,-209.5 689.5,-209.5 689.5,-190.5 630.5,-190.5"/>
<text text-anchor="middle" x="660" y="-197.5" font-family="Helvetica,sans-Serif" font-size="10.00">math_abs</text>
</a>
</g>
</g>
<!-- Node1&#45;&gt;Node20 -->
<g id="edge22" class="edge"><title>Node1&#45;&gt;Node20</title>
<path fill="none" stroke="midnightblue" d="M722.836,-200C711.629,-200 699.9,-200 689.708,-200"/>
<polygon fill="midnightblue" stroke="midnightblue" points="722.923,-203.5 732.923,-200 722.922,-196.5 722.923,-203.5"/>
</g>
<!-- Node21 -->
<g id="node21" class="node"><title>Node21</title>
<g id="a_node21"><a xlink:href="lmathlib_8c.html#ae4f0dc771c626a9badef237db9d433da" target="_top" xlink:title=" ">
<polygon fill="white" stroke="black" points="630.5,-152.5 630.5,-171.5 689.5,-171.5 689.5,-152.5 630.5,-152.5"/>
<text text-anchor="middle" x="660" y="-159.5" font-family="Helvetica,sans-Serif" font-size="10.00">math_ceil</text>
</a>
</g>
</g>
<!-- Node1&#45;&gt;Node21 -->
<g id="edge23" class="edge"><title>Node1&#45;&gt;Node21</title>
<path fill="none" stroke="midnightblue" d="M731.145,-187.028C716.956,-181.966 700.982,-176.266 687.866,-171.586"/>
<polygon fill="midnightblue" stroke="midnightblue" points="730.031,-190.347 740.626,-190.411 732.383,-183.754 730.031,-190.347"/>
</g>
<!-- Node22 -->
<g id="node22" class="node"><title>Node22</title>
<g id="a_node22"><a xlink:href="lmathlib_8c.html#aa063dcd93e924af13c5e311f89b18d03" target="_top" xlink:title=" ">
<polygon fill="white" stroke="black" points="629,-114.5 629,-133.5 691,-133.5 691,-114.5 629,-114.5"/>
<text text-anchor="middle" x="660" y="-121.5" font-family="Helvetica,sans-Serif" font-size="10.00">math_floor</text>
</a>
</g>
</g>
<!-- Node1&#45;&gt;Node22 -->
<g id="edge24" class="edge"><title>Node1&#45;&gt;Node22</title>
<path fill="none" stroke="midnightblue" d="M749.239,-183.585C735.433,-171.592 715.719,-155.338 697,-143 691.925,-139.655 686.198,-136.414 680.828,-133.583"/>
<polygon fill="midnightblue" stroke="midnightblue" points="747.193,-186.447 757.011,-190.429 751.819,-181.193 747.193,-186.447"/>
</g>
<!-- Node23 -->
<g id="node23" class="node"><title>Node23</title>
<g id="a_node23"><a xlink:href="lmathlib_8c.html#a25b3f7d30cf85b8248a72de20049564e" target="_top" xlink:title=" ">
<polygon fill="white" stroke="black" points="627.5,-76.5 627.5,-95.5 692.5,-95.5 692.5,-76.5 627.5,-76.5"/>
<text text-anchor="middle" x="660" y="-83.5" font-family="Helvetica,sans-Serif" font-size="10.00">math_fmod</text>
</a>
</g>
</g>
<!-- Node1&#45;&gt;Node23 -->
<g id="edge25" class="edge"><title>Node1&#45;&gt;Node23</title>
<path fill="none" stroke="midnightblue" d="M757.217,-181.491C745.001,-160.799 722.973,-127.28 697,-105 692.816,-101.411 687.84,-98.2453 682.942,-95.578"/>
<polygon fill="midnightblue" stroke="midnightblue" points="754.24,-183.336 762.259,-190.26 760.309,-179.847 754.24,-183.336"/>
</g>
<!-- Node24 -->
<g id="node24" class="node"><title>Node24</title>
<g id="a_node24"><a xlink:href="lmathlib_8c.html#adff369706deb34be360be3103f31d4c4" target="_top" xlink:title=" ">
<polygon fill="white" stroke="black" points="627.5,-38.5 627.5,-57.5 692.5,-57.5 692.5,-38.5 627.5,-38.5"/>
<text text-anchor="middle" x="660" y="-45.5" font-family="Helvetica,sans-Serif" font-size="10.00">math_modf</text>
</a>
</g>
</g>
<!-- Node1&#45;&gt;Node24 -->
<g id="edge26" class="edge"><title>Node1&#45;&gt;Node24</title>
<path fill="none" stroke="midnightblue" d="M761.367,-180.625C751.644,-152.54 730.31,-100.25 697,-67 693.299,-63.3054 688.729,-60.1592 684.103,-57.553"/>
<polygon fill="midnightblue" stroke="midnightblue" points="758.15,-182.043 764.626,-190.429 764.792,-179.835 758.15,-182.043"/>
</g>
<!-- Node25 -->
<g id="node25" class="node"><title>Node25</title>
<g id="a_node25"><a xlink:href="lmathlib_8c.html#af58a749fbaa6093fab0db96dcfd822a7" target="_top" xlink:title=" ">
<polygon fill="white" stroke="black" points="629,-0.5 629,-19.5 691,-19.5 691,-0.5 629,-0.5"/>
<text text-anchor="middle" x="660" y="-7.5" font-family="Helvetica,sans-Serif" font-size="10.00">math_type</text>
</a>
</g>
</g>
<!-- Node1&#45;&gt;Node25 -->
<g id="edge27" class="edge"><title>Node1&#45;&gt;Node25</title>
<path fill="none" stroke="midnightblue" d="M763.895,-180.038C756.737,-145.456 737.768,-73.8176 697,-29 693.576,-25.236 689.231,-22.0863 684.753,-19.5031"/>
<polygon fill="midnightblue" stroke="midnightblue" points="760.537,-181.106 765.884,-190.253 767.408,-179.768 760.537,-181.106"/>
</g>
<!-- Node3 -->
<g id="node3" class="node"><title>Node3</title>
<g id="a_node3"><a xlink:href="lstrlib_8c.html#ae26a9374857058119e59d0328208c2f2" target="_top" xlink:title=" ">
<polygon fill="white" stroke="black" points="417,-323.5 417,-342.5 477,-342.5 477,-323.5 417,-323.5"/>
<text text-anchor="middle" x="447" y="-330.5" font-family="Helvetica,sans-Serif" font-size="10.00">str_format</text>
</a>
</g>
</g>
<!-- Node2&#45;&gt;Node3 -->
<g id="edge2" class="edge"><title>Node2&#45;&gt;Node3</title>
<path fill="none" stroke="midnightblue" d="M519.72,-271.698C517.407,-273.086 515.139,-274.528 513,-276 491.734,-290.636 469.702,-311.335 457.533,-323.344"/>
<polygon fill="midnightblue" stroke="midnightblue" points="521.704,-274.598 528.707,-266.648 518.274,-268.496 521.704,-274.598"/>
</g>
<!-- Node5 -->
<g id="node5" class="node"><title>Node5</title>
<g id="a_node5"><a xlink:href="liolib_8c.html#adba67ef94aaa532d9224ca04f8126ac2" target="_top" xlink:title=" ">
<polygon fill="white" stroke="black" points="528,-513.5 528,-532.5 572,-532.5 572,-513.5 528,-513.5"/>
<text text-anchor="middle" x="550" y="-520.5" font-family="Helvetica,sans-Serif" font-size="10.00">f_write</text>
</a>
</g>
</g>
<!-- Node4&#45;&gt;Node5 -->
<g id="edge4" class="edge"><title>Node4&#45;&gt;Node5</title>
<path fill="none" stroke="midnightblue" d="M626.48,-496.442C608.864,-502.64 587.605,-510.121 572.143,-515.561"/>
<polygon fill="midnightblue" stroke="midnightblue" points="628.088,-499.587 636.36,-492.966 625.765,-492.984 628.088,-499.587"/>
</g>
<!-- Node6 -->
<g id="node6" class="node"><title>Node6</title>
<g id="a_node6"><a xlink:href="liolib_8c.html#ada35daf906cc262cc6944cad92b93ac3" target="_top" xlink:title=" ">
<polygon fill="white" stroke="black" points="525,-475.5 525,-494.5 575,-494.5 575,-475.5 525,-475.5"/>
<text text-anchor="middle" x="550" y="-482.5" font-family="Helvetica,sans-Serif" font-size="10.00">io_write</text>
</a>
</g>
</g>
<!-- Node4&#45;&gt;Node6 -->
<g id="edge5" class="edge"><title>Node4&#45;&gt;Node6</title>
<path fill="none" stroke="midnightblue" d="M626.086,-485C609.653,-485 590.13,-485 575.11,-485"/>
<polygon fill="midnightblue" stroke="midnightblue" points="626.36,-488.5 636.36,-485 626.36,-481.5 626.36,-488.5"/>
</g>
<!-- Node8&#45;&gt;Node2 -->
<g id="edge8" class="edge"><title>Node8&#45;&gt;Node2</title>
<path fill="none" stroke="midnightblue" d="M627.742,-336.895C626.074,-335.667 624.478,-334.368 623,-333 601.006,-312.652 608.994,-296.348 587,-276 583.058,-272.353 578.283,-269.196 573.518,-266.561"/>
<polygon fill="midnightblue" stroke="midnightblue" points="626.163,-340.038 636.482,-342.439 629.913,-334.127 626.163,-340.038"/>
</g>
<!-- Node8&#45;&gt;Node3 -->
<g id="edge20" class="edge"><title>Node8&#45;&gt;Node3</title>
<path fill="none" stroke="midnightblue" d="M637.061,-367.185C623.352,-375.73 604.947,-385.555 587,-390 555.076,-397.908 543.781,-401.585 513,-390 487.715,-380.484 465.852,-356.17 455.099,-342.572"/>
<polygon fill="midnightblue" stroke="midnightblue" points="639.255,-369.934 645.739,-361.555 635.445,-364.062 639.255,-369.934"/>
</g>
<!-- Node9 -->
<g id="node9" class="node"><title>Node9</title>
<g id="a_node9"><a xlink:href="ldblib_8c.html#ad72cc206e90f6ebc343460376c950a14" target="_top" xlink:title=" ">
<polygon fill="white" stroke="black" points="520.5,-285.5 520.5,-304.5 579.5,-304.5 579.5,-285.5 520.5,-285.5"/>
<text text-anchor="middle" x="550" y="-292.5" font-family="Helvetica,sans-Serif" font-size="10.00">db_debug</text>
</a>
</g>
</g>
<!-- Node8&#45;&gt;Node9 -->
<g id="edge9" class="edge"><title>Node8&#45;&gt;Node9</title>
<path fill="none" stroke="midnightblue" d="M631.616,-337.547C611.997,-327.193 586.128,-313.54 569.05,-304.526"/>
<polygon fill="midnightblue" stroke="midnightblue" points="630.202,-340.758 640.679,-342.331 633.469,-334.568 630.202,-340.758"/>
</g>
<!-- Node10 -->
<g id="node10" class="node"><title>Node10</title>
<g id="a_node10"><a xlink:href="lua_8c.html#af30330b1ce029ad490faaeab255cf52d" target="_top" xlink:title=" ">
<polygon fill="white" stroke="black" points="517.5,-437.5 517.5,-456.5 582.5,-456.5 582.5,-437.5 517.5,-437.5"/>
<text text-anchor="middle" x="550" y="-444.5" font-family="Helvetica,sans-Serif" font-size="10.00">get_prompt</text>
</a>
</g>
</g>
<!-- Node8&#45;&gt;Node10 -->
<g id="edge10" class="edge"><title>Node8&#45;&gt;Node10</title>
<path fill="none" stroke="midnightblue" d="M643.218,-369.329C629.162,-384.319 607.678,-406.169 587,-423 580.708,-428.121 573.318,-433.193 566.876,-437.345"/>
<polygon fill="midnightblue" stroke="midnightblue" points="645.981,-371.497 650.21,-361.783 640.846,-366.739 645.981,-371.497"/>
</g>
<!-- Node17 -->
<g id="node17" class="node"><title>Node17</title>
<g id="a_node17"><a xlink:href="lbaselib_8c.html#a865eb761a305c588d6940da5272375b7" target="_top" xlink:title=" ">
<polygon fill="white" stroke="black" points="520,-361.5 520,-380.5 580,-380.5 580,-361.5 520,-361.5"/>
<text text-anchor="middle" x="550" y="-368.5" font-family="Helvetica,sans-Serif" font-size="10.00">luaB_print</text>
</a>
</g>
</g>
<!-- Node8&#45;&gt;Node17 -->
<g id="edge18" class="edge"><title>Node8&#45;&gt;Node17</title>
<path fill="none" stroke="midnightblue" d="M612.766,-360.134C601.712,-362.078 590.216,-364.101 580.181,-365.866"/>
<polygon fill="midnightblue" stroke="midnightblue" points="613.495,-363.559 622.737,-358.38 612.282,-356.665 613.495,-363.559"/>
</g>
<!-- Node18 -->
<g id="node18" class="node"><title>Node18</title>
<g id="a_node18"><a xlink:href="lbaselib_8c.html#a15bd8ce3f719c87883bcb578c60677e7" target="_top" xlink:title=" ">
<polygon fill="white" stroke="black" points="513,-323.5 513,-342.5 587,-342.5 587,-323.5 513,-323.5"/>
<text text-anchor="middle" x="550" y="-330.5" font-family="Helvetica,sans-Serif" font-size="10.00">luaB_tostring</text>
</a>
</g>
</g>
<!-- Node8&#45;&gt;Node18 -->
<g id="edge19" class="edge"><title>Node8&#45;&gt;Node18</title>
<path fill="none" stroke="midnightblue" d="M612.613,-343.839C604.163,-342.353 595.459,-340.821 587.351,-339.395"/>
<polygon fill="midnightblue" stroke="midnightblue" points="612.282,-347.335 622.737,-345.62 613.495,-340.441 612.282,-347.335"/>
</g>
<!-- Node11 -->
<g id="node11" class="node"><title>Node11</title>
<g id="a_node11"><a xlink:href="lua_8c.html#a83a7cb21b34095ca93f2a2a863f58fda" target="_top" xlink:title=" ">
<polygon fill="white" stroke="black" points="420.5,-437.5 420.5,-456.5 473.5,-456.5 473.5,-437.5 420.5,-437.5"/>
<text text-anchor="middle" x="447" y="-444.5" font-family="Helvetica,sans-Serif" font-size="10.00">pushline</text>
</a>
</g>
</g>
<!-- Node10&#45;&gt;Node11 -->
<g id="edge11" class="edge"><title>Node10&#45;&gt;Node11</title>
<path fill="none" stroke="midnightblue" d="M507.173,-447C495.867,-447 483.963,-447 473.821,-447"/>
<polygon fill="midnightblue" stroke="midnightblue" points="507.32,-450.5 517.32,-447 507.32,-443.5 507.32,-450.5"/>
</g>
<!-- Node12 -->
<g id="node12" class="node"><title>Node12</title>
<g id="a_node12"><a xlink:href="lua_8c.html#ad7e840f79b193c164616ed9748e68ec6" target="_top" xlink:title=" ">
<polygon fill="white" stroke="black" points="242,-437.5 242,-456.5 292,-456.5 292,-437.5 242,-437.5"/>
<text text-anchor="middle" x="267" y="-444.5" font-family="Helvetica,sans-Serif" font-size="10.00">loadline</text>
</a>
</g>
</g>
<!-- Node11&#45;&gt;Node12 -->
<g id="edge12" class="edge"><title>Node11&#45;&gt;Node12</title>
<path fill="none" stroke="midnightblue" d="M410.196,-447C375.054,-447 322.432,-447 292.03,-447"/>
<polygon fill="midnightblue" stroke="midnightblue" points="410.497,-450.5 420.497,-447 410.497,-443.5 410.497,-450.5"/>
</g>
<!-- Node16 -->
<g id="node16" class="node"><title>Node16</title>
<g id="a_node16"><a xlink:href="lua_8c.html#affef5a04b31963c2c3f5028518777e12" target="_top" xlink:title=" ">
<polygon fill="white" stroke="black" points="328,-418.5 328,-437.5 381,-437.5 381,-418.5 328,-418.5"/>
<text text-anchor="middle" x="354.5" y="-425.5" font-family="Helvetica,sans-Serif" font-size="10.00">multiline</text>
</a>
</g>
</g>
<!-- Node11&#45;&gt;Node16 -->
<g id="edge16" class="edge"><title>Node11&#45;&gt;Node16</title>
<path fill="none" stroke="midnightblue" d="M410.461,-439.539C400.715,-437.493 390.338,-435.314 381.256,-433.407"/>
<polygon fill="midnightblue" stroke="midnightblue" points="409.803,-442.977 420.308,-441.606 411.241,-436.126 409.803,-442.977"/>
</g>
<!-- Node13 -->
<g id="node13" class="node"><title>Node13</title>
<g id="a_node13"><a xlink:href="lua_8c.html#a946f2675cba972bd3580d9046abf2b6b" target="_top" xlink:title=" ">
<polygon fill="white" stroke="black" points="153,-437.5 153,-456.5 206,-456.5 206,-437.5 153,-437.5"/>
<text text-anchor="middle" x="179.5" y="-444.5" font-family="Helvetica,sans-Serif" font-size="10.00">doREPL</text>
</a>
</g>
</g>
<!-- Node12&#45;&gt;Node13 -->
<g id="edge13" class="edge"><title>Node12&#45;&gt;Node13</title>
<path fill="none" stroke="midnightblue" d="M231.628,-447C223.079,-447 214.065,-447 206.026,-447"/>
<polygon fill="midnightblue" stroke="midnightblue" points="231.728,-450.5 241.728,-447 231.728,-443.5 231.728,-450.5"/>
</g>
<!-- Node14 -->
<g id="node14" class="node"><title>Node14</title>
<g id="a_node14"><a xlink:href="lua_8c.html#aa0f8bc082ef913cb0a4df437bf5f5019" target="_top" xlink:title=" ">
<polygon fill="white" stroke="black" points="74,-437.5 74,-456.5 117,-456.5 117,-437.5 74,-437.5"/>
<text text-anchor="middle" x="95.5" y="-444.5" font-family="Helvetica,sans-Serif" font-size="10.00">pmain</text>
</a>
</g>
</g>
<!-- Node13&#45;&gt;Node14 -->
<g id="edge14" class="edge"><title>Node13&#45;&gt;Node14</title>
<path fill="none" stroke="midnightblue" d="M142.275,-447C133.646,-447 124.731,-447 117.086,-447"/>
<polygon fill="midnightblue" stroke="midnightblue" points="142.555,-450.5 152.555,-447 142.555,-443.5 142.555,-450.5"/>
</g>
<!-- Node15 -->
<g id="node15" class="node"><title>Node15</title>
<g id="a_node15"><a xlink:href="lua_8c.html#a3c04138a5bfe5d72780bb7e82a18e627" target="_top" xlink:title=" ">
<polygon fill="white" stroke="black" points="0,-437.5 0,-456.5 38,-456.5 38,-437.5 0,-437.5"/>
<text text-anchor="middle" x="19" y="-444.5" font-family="Helvetica,sans-Serif" font-size="10.00">main</text>
</a>
</g>
</g>
<!-- Node14&#45;&gt;Node15 -->
<g id="edge15" class="edge"><title>Node14&#45;&gt;Node15</title>
<path fill="none" stroke="midnightblue" d="M63.5465,-447C54.8861,-447 45.758,-447 38.1087,-447"/>
<polygon fill="midnightblue" stroke="midnightblue" points="63.7476,-450.5 73.7476,-447 63.7476,-443.5 63.7476,-450.5"/>
</g>
<!-- Node16&#45;&gt;Node12 -->
<g id="edge17" class="edge"><title>Node16&#45;&gt;Node12</title>
<path fill="none" stroke="midnightblue" d="M317.937,-435.903C309.259,-437.831 300.175,-439.85 292.171,-441.629"/>
<polygon fill="midnightblue" stroke="midnightblue" points="318.845,-439.287 327.847,-433.701 317.326,-432.453 318.845,-439.287"/>
</g>
</g>
</svg>
