<?xml version="1.0" encoding="UTF-8" standalone="no"?>
<!DOCTYPE svg PUBLIC "-//W3C//DTD SVG 1.1//EN"
 "http://www.w3.org/Graphics/SVG/1.1/DTD/svg11.dtd">
<!-- Generated by graphviz version 2.38.0 (20140413.2041)
 -->
<!-- Title: lua_settable Pages: 1 -->
<svg width="1260pt" height="853pt"
 viewBox="0.00 0.00 1260.00 853.00" xmlns="http://www.w3.org/2000/svg" xmlns:xlink="http://www.w3.org/1999/xlink">
<g id="graph0" class="graph" transform="scale(1 1) rotate(0) translate(4 849)">
<title>lua_settable</title>
<polygon fill="white" stroke="none" points="-4,4 -4,-849 1256,-849 1256,4 -4,4"/>
<!-- Node1 -->
<g id="node1" class="node"><title>Node1</title>
<g id="a_node1"><a xlink:title=" ">
<polygon fill="#bfbfbf" stroke="black" points="0,-787.5 0,-806.5 69,-806.5 69,-787.5 0,-787.5"/>
<text text-anchor="middle" x="34.5" y="-794.5" font-family="Helvetica,sans-Serif" font-size="10.00">lua_settable</text>
</a>
</g>
</g>
<!-- Node2 -->
<g id="node2" class="node"><title>Node2</title>
<g id="a_node2"><a xlink:href="lapi_8c.html#a7c66797ff8396fc9258bb9fc08e959d8" target="_top" xlink:title=" ">
<polygon fill="white" stroke="black" points="110,-825.5 110,-844.5 177,-844.5 177,-825.5 110,-825.5"/>
<text text-anchor="middle" x="143.5" y="-832.5" font-family="Helvetica,sans-Serif" font-size="10.00">index2value</text>
</a>
</g>
</g>
<!-- Node1&#45;&gt;Node2 -->
<g id="edge1" class="edge"><title>Node1&#45;&gt;Node2</title>
<path fill="none" stroke="midnightblue" d="M62.5006,-806.589C75.6797,-811.269 91.729,-816.969 105.984,-822.032"/>
<polygon fill="midnightblue" stroke="midnightblue" points="104.913,-825.366 115.508,-825.414 107.256,-818.769 104.913,-825.366"/>
</g>
<!-- Node3 -->
<g id="node3" class="node"><title>Node3</title>
<g id="a_node3"><a xlink:href="ltable_8c.html#a8b4fce00d7db27ee9caac3d49863dea3" target="_top" xlink:title=" ">
<polygon fill="white" stroke="black" points="601.5,-749.5 601.5,-768.5 656.5,-768.5 656.5,-749.5 601.5,-749.5"/>
<text text-anchor="middle" x="629" y="-756.5" font-family="Helvetica,sans-Serif" font-size="10.00">luaH_get</text>
</a>
</g>
</g>
<!-- Node1&#45;&gt;Node3 -->
<g id="edge2" class="edge"><title>Node1&#45;&gt;Node3</title>
<path fill="none" stroke="midnightblue" d="M69.12,-797C113.185,-797 192.88,-797 261,-797 261,-797 261,-797 383,-797 458.849,-797 478.556,-796.532 553,-782 565.845,-779.493 579.614,-775.627 591.804,-771.776"/>
<polygon fill="midnightblue" stroke="midnightblue" points="593.196,-775.003 601.617,-768.575 591.025,-768.349 593.196,-775.003"/>
</g>
<!-- Node16 -->
<g id="node15" class="node"><title>Node16</title>
<g id="a_node15"><a xlink:href="lvm_8c.html#a190116824dc13c5d37a6b2962f425a0d" target="_top" xlink:title=" ">
<polygon fill="white" stroke="black" points="105,-626.5 105,-645.5 182,-645.5 182,-626.5 105,-626.5"/>
<text text-anchor="middle" x="143.5" y="-633.5" font-family="Helvetica,sans-Serif" font-size="10.00">luaV_finishset</text>
</a>
</g>
</g>
<!-- Node1&#45;&gt;Node16 -->
<g id="edge14" class="edge"><title>Node1&#45;&gt;Node16</title>
<path fill="none" stroke="midnightblue" d="M41.8729,-787.411C59.2273,-761.298 107.548,-688.592 130.325,-654.319"/>
<polygon fill="midnightblue" stroke="midnightblue" points="133.405,-656.008 136.025,-645.742 127.575,-652.134 133.405,-656.008"/>
</g>
<!-- Node4 -->
<g id="node4" class="node"><title>Node4</title>
<g id="a_node4"><a xlink:href="ltable_8c.html#a9170d329b0dd746ca9b15db8c22a2127" target="_top" xlink:title=" ">
<polygon fill="white" stroke="black" points="718.5,-730.5 718.5,-749.5 780.5,-749.5 780.5,-730.5 718.5,-730.5"/>
<text text-anchor="middle" x="749.5" y="-737.5" font-family="Helvetica,sans-Serif" font-size="10.00">getgeneric</text>
</a>
</g>
</g>
<!-- Node3&#45;&gt;Node4 -->
<g id="edge3" class="edge"><title>Node3&#45;&gt;Node4</title>
<path fill="none" stroke="midnightblue" d="M656.594,-754.736C671.738,-752.308 691.022,-749.216 708.012,-746.492"/>
<polygon fill="midnightblue" stroke="midnightblue" points="708.916,-749.892 718.236,-744.853 707.808,-742.98 708.916,-749.892"/>
</g>
<!-- Node12 -->
<g id="node11" class="node"><title>Node12</title>
<g id="a_node11"><a xlink:href="ltable_8c.html#ae142cefd44452389877c3e3187c7973e" target="_top" xlink:title=" ">
<polygon fill="white" stroke="black" points="717,-768.5 717,-787.5 782,-787.5 782,-768.5 717,-768.5"/>
<text text-anchor="middle" x="749.5" y="-775.5" font-family="Helvetica,sans-Serif" font-size="10.00">luaH_getint</text>
</a>
</g>
</g>
<!-- Node3&#45;&gt;Node12 -->
<g id="edge10" class="edge"><title>Node3&#45;&gt;Node12</title>
<path fill="none" stroke="midnightblue" d="M656.594,-763.264C671.399,-765.638 690.161,-768.646 706.867,-771.325"/>
<polygon fill="midnightblue" stroke="midnightblue" points="706.522,-774.814 716.95,-772.941 707.63,-767.902 706.522,-774.814"/>
</g>
<!-- Node14 -->
<g id="node13" class="node"><title>Node14</title>
<g id="a_node13"><a xlink:href="ltable_8c.html#ae8a52507e1c8966d9cf3f2dd5a0c325f" target="_top" xlink:title=" ">
<polygon fill="white" stroke="black" points="705.5,-654.5 705.5,-673.5 793.5,-673.5 793.5,-654.5 705.5,-654.5"/>
<text text-anchor="middle" x="749.5" y="-661.5" font-family="Helvetica,sans-Serif" font-size="10.00">luaH_getshortstr</text>
</a>
</g>
</g>
<!-- Node3&#45;&gt;Node14 -->
<g id="edge12" class="edge"><title>Node3&#45;&gt;Node14</title>
<path fill="none" stroke="midnightblue" d="M648.969,-749.449C655.727,-745.52 663.114,-740.577 669,-735 689.404,-715.667 683.295,-700.861 705,-683 706.949,-681.396 709.054,-679.904 711.25,-678.521"/>
<polygon fill="midnightblue" stroke="midnightblue" points="712.944,-681.584 720.033,-673.71 709.581,-675.444 712.944,-681.584"/>
</g>
<!-- Node15 -->
<g id="node14" class="node"><title>Node15</title>
<g id="a_node14"><a xlink:href="lvm_8c.html#a3a9a9378ccdbd0ea4cba6555673dccf9" target="_top" xlink:title=" ">
<polygon fill="white" stroke="black" points="706.5,-692.5 706.5,-711.5 792.5,-711.5 792.5,-692.5 706.5,-692.5"/>
<text text-anchor="middle" x="749.5" y="-699.5" font-family="Helvetica,sans-Serif" font-size="10.00">luaV_flttointeger</text>
</a>
</g>
</g>
<!-- Node3&#45;&gt;Node15 -->
<g id="edge13" class="edge"><title>Node3&#45;&gt;Node15</title>
<path fill="none" stroke="midnightblue" d="M648.043,-749.493C663.147,-741.623 685.326,-730.271 705,-721 708.669,-719.271 712.535,-717.504 716.387,-715.779"/>
<polygon fill="midnightblue" stroke="midnightblue" points="718.078,-718.858 725.812,-711.618 715.25,-712.455 718.078,-718.858"/>
</g>
<!-- Node5 -->
<g id="node5" class="node"><title>Node5</title>
<g id="a_node5"><a xlink:href="ltable_8c.html#af84f7eafe0a1b410624263c29224fec9" target="_top" xlink:title=" ">
<polygon fill="white" stroke="black" points="848.5,-730.5 848.5,-749.5 904.5,-749.5 904.5,-730.5 848.5,-730.5"/>
<text text-anchor="middle" x="876.5" y="-737.5" font-family="Helvetica,sans-Serif" font-size="10.00">equalkey</text>
</a>
</g>
</g>
<!-- Node4&#45;&gt;Node5 -->
<g id="edge4" class="edge"><title>Node4&#45;&gt;Node5</title>
<path fill="none" stroke="midnightblue" d="M780.759,-740C798.114,-740 820.037,-740 838.421,-740"/>
<polygon fill="midnightblue" stroke="midnightblue" points="838.497,-743.5 848.497,-740 838.497,-736.5 838.497,-743.5"/>
</g>
<!-- Node7 -->
<g id="node7" class="node"><title>Node7</title>
<g id="a_node7"><a xlink:href="ltable_8c.html#a3f0add4aa38ab8e59a5983ebab80ab42" target="_top" xlink:title=" ">
<polygon fill="white" stroke="black" points="835,-559.5 835,-578.5 918,-578.5 918,-559.5 835,-559.5"/>
<text text-anchor="middle" x="876.5" y="-566.5" font-family="Helvetica,sans-Serif" font-size="10.00">mainpositionTV</text>
</a>
</g>
</g>
<!-- Node4&#45;&gt;Node7 -->
<g id="edge6" class="edge"><title>Node4&#45;&gt;Node7</title>
<path fill="none" stroke="midnightblue" d="M779.759,-730.458C784.882,-727.922 789.881,-724.8 794,-721 834.945,-683.22 859.424,-620.064 869.743,-588.376"/>
<polygon fill="midnightblue" stroke="midnightblue" points="873.164,-589.162 872.806,-578.573 866.483,-587.074 873.164,-589.162"/>
</g>
<!-- Node6 -->
<g id="node6" class="node"><title>Node6</title>
<g id="a_node6"><a xlink:href="lstring_8c.html#a99b8eea92097f11885050ff629ff0f83" target="_top" xlink:title=" ">
<polygon fill="white" stroke="black" points="959,-730.5 959,-749.5 1035,-749.5 1035,-730.5 959,-730.5"/>
<text text-anchor="middle" x="997" y="-737.5" font-family="Helvetica,sans-Serif" font-size="10.00">luaS_eqlngstr</text>
</a>
</g>
</g>
<!-- Node5&#45;&gt;Node6 -->
<g id="edge5" class="edge"><title>Node5&#45;&gt;Node6</title>
<path fill="none" stroke="midnightblue" d="M904.686,-740C917.678,-740 933.612,-740 948.512,-740"/>
<polygon fill="midnightblue" stroke="midnightblue" points="948.614,-743.5 958.614,-740 948.614,-736.5 948.614,-743.5"/>
</g>
<!-- Node8 -->
<g id="node8" class="node"><title>Node8</title>
<g id="a_node8"><a xlink:href="ltable_8c.html#a97b549a3507ec326a9d138a741f39bbc" target="_top" xlink:title=" ">
<polygon fill="white" stroke="black" points="961.5,-540.5 961.5,-559.5 1032.5,-559.5 1032.5,-540.5 961.5,-540.5"/>
<text text-anchor="middle" x="997" y="-547.5" font-family="Helvetica,sans-Serif" font-size="10.00">mainposition</text>
</a>
</g>
</g>
<!-- Node7&#45;&gt;Node8 -->
<g id="edge7" class="edge"><title>Node7&#45;&gt;Node8</title>
<path fill="none" stroke="midnightblue" d="M918.281,-562.461C928.935,-560.753 940.475,-558.903 951.32,-557.164"/>
<polygon fill="midnightblue" stroke="midnightblue" points="952.134,-560.578 961.454,-555.539 951.026,-553.666 952.134,-560.578"/>
</g>
<!-- Node9 -->
<g id="node9" class="node"><title>Node9</title>
<g id="a_node9"><a xlink:href="ltable_8c.html#ac726a5642652c5e7d5417c03047fc3d5" target="_top" xlink:title=" ">
<polygon fill="white" stroke="black" points="1085.5,-559.5 1085.5,-578.5 1148.5,-578.5 1148.5,-559.5 1085.5,-559.5"/>
<text text-anchor="middle" x="1117" y="-566.5" font-family="Helvetica,sans-Serif" font-size="10.00">l_hashfloat</text>
</a>
</g>
</g>
<!-- Node8&#45;&gt;Node9 -->
<g id="edge8" class="edge"><title>Node8&#45;&gt;Node9</title>
<path fill="none" stroke="midnightblue" d="M1032.77,-555.598C1046.09,-557.744 1061.42,-560.211 1075.25,-562.439"/>
<polygon fill="midnightblue" stroke="midnightblue" points="1075.06,-565.953 1085.49,-564.087 1076.17,-559.042 1075.06,-565.953"/>
</g>
<!-- Node10 -->
<g id="node10" class="node"><title>Node10</title>
<g id="a_node10"><a xlink:href="lstring_8c.html#ac51f4a1e06f41eeeb4690a3581016217" target="_top" xlink:title=" ">
<polygon fill="white" stroke="red" points="1071,-521.5 1071,-540.5 1163,-540.5 1163,-521.5 1071,-521.5"/>
<text text-anchor="middle" x="1117" y="-528.5" font-family="Helvetica,sans-Serif" font-size="10.00">luaS_hashlongstr</text>
</a>
</g>
</g>
<!-- Node8&#45;&gt;Node10 -->
<g id="edge9" class="edge"><title>Node8&#45;&gt;Node10</title>
<path fill="none" stroke="midnightblue" d="M1032.77,-544.402C1041.65,-542.972 1051.41,-541.4 1061.04,-539.85"/>
<polygon fill="midnightblue" stroke="midnightblue" points="1061.65,-543.296 1070.97,-538.251 1060.54,-536.385 1061.65,-543.296"/>
</g>
<!-- Node13 -->
<g id="node12" class="node"><title>Node13</title>
<g id="a_node12"><a xlink:href="ltable_8c.html#a8f20a204b7a78780847939086b847781" target="_top" xlink:title=" ">
<polygon fill="white" stroke="black" points="836.5,-768.5 836.5,-787.5 916.5,-787.5 916.5,-768.5 836.5,-768.5"/>
<text text-anchor="middle" x="876.5" y="-775.5" font-family="Helvetica,sans-Serif" font-size="10.00">luaH_realasize</text>
</a>
</g>
</g>
<!-- Node12&#45;&gt;Node13 -->
<g id="edge11" class="edge"><title>Node12&#45;&gt;Node13</title>
<path fill="none" stroke="midnightblue" d="M782.043,-778C795.441,-778 811.378,-778 826.264,-778"/>
<polygon fill="midnightblue" stroke="midnightblue" points="826.356,-781.5 836.356,-778 826.356,-774.5 826.356,-781.5"/>
</g>
<!-- Node16&#45;&gt;Node3 -->
<g id="edge64" class="edge"><title>Node16&#45;&gt;Node3</title>
<path fill="none" stroke="midnightblue" d="M149.883,-645.573C160.387,-663.214 185.461,-700.554 218,-717 342.775,-780.067 515.925,-771.33 590.919,-763.657"/>
<polygon fill="midnightblue" stroke="midnightblue" points="591.687,-767.095 601.254,-762.542 590.936,-760.135 591.687,-767.095"/>
</g>
<!-- Node17 -->
<g id="node16" class="node"><title>Node17</title>
<g id="a_node16"><a xlink:href="ldebug_8c.html#a88d38ca5da2e7a1492fc9d5ad70c32c5" target="_top" xlink:title=" ">
<polygon fill="white" stroke="black" points="468,-407.5 468,-426.5 543,-426.5 543,-407.5 468,-407.5"/>
<text text-anchor="middle" x="505.5" y="-414.5" font-family="Helvetica,sans-Serif" font-size="10.00">luaG_runerror</text>
</a>
</g>
</g>
<!-- Node16&#45;&gt;Node17 -->
<g id="edge15" class="edge"><title>Node16&#45;&gt;Node17</title>
<path fill="none" stroke="midnightblue" d="M148.092,-626.307C156.944,-603.481 181.748,-545.522 218,-509 263.053,-463.611 281.38,-456.374 342,-436 379.535,-423.385 424.381,-418.875 457.443,-417.383"/>
<polygon fill="midnightblue" stroke="midnightblue" points="457.876,-420.87 467.739,-416.999 457.615,-413.874 457.876,-420.87"/>
</g>
<!-- Node98 -->
<g id="node36" class="node"><title>Node98</title>
<g id="a_node36"><a xlink:href="ldebug_8c.html#a60bf9ce85441bd5065f2b73640163711" target="_top" xlink:title=" ">
<polygon fill="white" stroke="black" points="342,-445.5 342,-464.5 422,-464.5 422,-445.5 342,-445.5"/>
<text text-anchor="middle" x="382" y="-452.5" font-family="Helvetica,sans-Serif" font-size="10.00">luaG_typeerror</text>
</a>
</g>
</g>
<!-- Node16&#45;&gt;Node98 -->
<g id="edge42" class="edge"><title>Node16&#45;&gt;Node98</title>
<path fill="none" stroke="midnightblue" d="M157.215,-626.269C195.964,-596.613 312.821,-507.179 360.455,-470.724"/>
<polygon fill="midnightblue" stroke="midnightblue" points="362.695,-473.417 368.509,-464.56 358.44,-467.858 362.695,-473.417"/>
</g>
<!-- Node147 -->
<g id="node43" class="node"><title>Node147</title>
<g id="a_node43"><a xlink:href="ltable_8c.html#a72e6b8ad422b01d0b34197134cec1f7a" target="_top" xlink:title=" ">
<polygon fill="white" stroke="black" points="223.5,-626.5 223.5,-645.5 300.5,-645.5 300.5,-626.5 223.5,-626.5"/>
<text text-anchor="middle" x="262" y="-633.5" font-family="Helvetica,sans-Serif" font-size="10.00">luaH_finishset</text>
</a>
</g>
</g>
<!-- Node16&#45;&gt;Node147 -->
<g id="edge53" class="edge"><title>Node16&#45;&gt;Node147</title>
<path fill="none" stroke="midnightblue" d="M182.003,-636C191.88,-636 202.674,-636 213.021,-636"/>
<polygon fill="midnightblue" stroke="midnightblue" points="213.168,-639.5 223.168,-636 213.168,-632.5 213.168,-639.5"/>
</g>
<!-- Node444 -->
<g id="node48" class="node"><title>Node444</title>
<g id="a_node48"><a xlink:href="ltm_8c.html#a719f499f44a66a0fe32eef5a2c485ba3" target="_top" xlink:title=" ">
<polygon fill="white" stroke="black" points="595,-38.5 595,-57.5 663,-57.5 663,-38.5 595,-38.5"/>
<text text-anchor="middle" x="629" y="-45.5" font-family="Helvetica,sans-Serif" font-size="10.00">luaT_callTM</text>
</a>
</g>
</g>
<!-- Node16&#45;&gt;Node444 -->
<g id="edge65" class="edge"><title>Node16&#45;&gt;Node444</title>
<path fill="none" stroke="midnightblue" d="M146.771,-626.268C153.869,-597.135 177.608,-508.751 218,-446 345.581,-247.796 397.802,-204.86 589,-67 591.215,-65.4032 593.584,-63.8777 596.02,-62.4352"/>
<polygon fill="midnightblue" stroke="midnightblue" points="597.841,-65.4294 604.975,-57.5965 594.514,-59.2708 597.841,-65.4294"/>
</g>
<!-- Node90 -->
<g id="node50" class="node"><title>Node90</title>
<g id="a_node50"><a xlink:href="ltm_8c.html#a0a3a3df9d6e7f17d806f74d411e59b2d" target="_top" xlink:title=" ">
<polygon fill="white" stroke="black" points="218,-688.5 218,-707.5 306,-707.5 306,-688.5 218,-688.5"/>
<text text-anchor="middle" x="262" y="-695.5" font-family="Helvetica,sans-Serif" font-size="10.00">luaT_gettmbyobj</text>
</a>
</g>
</g>
<!-- Node16&#45;&gt;Node90 -->
<g id="edge69" class="edge"><title>Node16&#45;&gt;Node90</title>
<path fill="none" stroke="midnightblue" d="M162.448,-645.552C181.548,-655.716 211.987,-671.916 233.986,-683.624"/>
<polygon fill="midnightblue" stroke="midnightblue" points="232.368,-686.727 242.84,-688.335 235.656,-680.548 232.368,-686.727"/>
</g>
<!-- Node18 -->
<g id="node17" class="node"><title>Node18</title>
<g id="a_node17"><a xlink:href="ldebug_8c.html#ad6bc24d619df8e849e2ae8b00455d86f" target="_top" xlink:title=" ">
<polygon fill="white" stroke="black" points="591.5,-284.5 591.5,-303.5 666.5,-303.5 666.5,-284.5 591.5,-284.5"/>
<text text-anchor="middle" x="629" y="-291.5" font-family="Helvetica,sans-Serif" font-size="10.00">getcurrentline</text>
</a>
</g>
</g>
<!-- Node17&#45;&gt;Node18 -->
<g id="edge16" class="edge"><title>Node17&#45;&gt;Node18</title>
<path fill="none" stroke="midnightblue" d="M516.034,-407.348C536.617,-386.511 585.439,-337.086 611.284,-310.922"/>
<polygon fill="midnightblue" stroke="midnightblue" points="613.973,-313.181 618.51,-303.607 608.993,-308.261 613.973,-313.181"/>
</g>
<!-- Node22 -->
<g id="node21" class="node"><title>Node22</title>
<g id="a_node21"><a xlink:href="ldebug_8c.html#a7e1dc7518150bf19bd9aa5dda166a2eb" target="_top" xlink:title=" ">
<polygon fill="white" stroke="black" points="592.5,-360.5 592.5,-379.5 665.5,-379.5 665.5,-360.5 592.5,-360.5"/>
<text text-anchor="middle" x="629" y="-367.5" font-family="Helvetica,sans-Serif" font-size="10.00">luaG_addinfo</text>
</a>
</g>
</g>
<!-- Node17&#45;&gt;Node22 -->
<g id="edge20" class="edge"><title>Node17&#45;&gt;Node22</title>
<path fill="none" stroke="midnightblue" d="M531.087,-407.489C549.084,-400.527 573.736,-390.991 593.674,-383.279"/>
<polygon fill="midnightblue" stroke="midnightblue" points="594.968,-386.53 603.032,-379.658 592.443,-380.002 594.968,-386.53"/>
</g>
<!-- Node25 -->
<g id="node24" class="node"><title>Node25</title>
<g id="a_node24"><a xlink:href="lobject_8c.html#aa83fa444a36d79521e846a766fa083d5" target="_top" xlink:title=" ">
<polygon fill="white" stroke="black" points="830,-407.5 830,-426.5 923,-426.5 923,-407.5 830,-407.5"/>
<text text-anchor="middle" x="876.5" y="-414.5" font-family="Helvetica,sans-Serif" font-size="10.00">luaO_pushvfstring</text>
</a>
</g>
</g>
<!-- Node17&#45;&gt;Node25 -->
<g id="edge41" class="edge"><title>Node17&#45;&gt;Node25</title>
<path fill="none" stroke="midnightblue" d="M543.23,-412.757C607.997,-409.694 742.875,-409.438 819.374,-411.988"/>
<polygon fill="midnightblue" stroke="midnightblue" points="819.647,-415.5 829.767,-412.366 819.901,-408.505 819.647,-415.5"/>
</g>
<!-- Node443 -->
<g id="node30" class="node"><title>Node443</title>
<g id="a_node30"><a xlink:href="ldebug_8c.html#af7366920f8408bb33ed01b1d6c0e1238" target="_top" xlink:title=" ">
<polygon fill="white" stroke="black" points="589,-76.5 589,-95.5 669,-95.5 669,-76.5 589,-76.5"/>
<text text-anchor="middle" x="629" y="-83.5" font-family="Helvetica,sans-Serif" font-size="10.00">luaG_errormsg</text>
</a>
</g>
</g>
<!-- Node17&#45;&gt;Node443 -->
<g id="edge34" class="edge"><title>Node17&#45;&gt;Node443</title>
<path fill="none" stroke="midnightblue" d="M510.005,-407.451C526.669,-362.053 598.018,-167.679 620.905,-105.33"/>
<polygon fill="midnightblue" stroke="midnightblue" points="624.32,-106.182 624.481,-95.588 617.749,-103.769 624.32,-106.182"/>
</g>
<!-- Node19 -->
<g id="node18" class="node"><title>Node19</title>
<g id="a_node18"><a xlink:href="ldebug_8c.html#a7db2a3f5cbcf0ac3ef6d4cfa15ab4dbc" target="_top" xlink:title=" ">
<polygon fill="white" stroke="black" points="721,-246.5 721,-265.5 778,-265.5 778,-246.5 721,-246.5"/>
<text text-anchor="middle" x="749.5" y="-253.5" font-family="Helvetica,sans-Serif" font-size="10.00">currentpc</text>
</a>
</g>
</g>
<!-- Node18&#45;&gt;Node19 -->
<g id="edge17" class="edge"><title>Node18&#45;&gt;Node19</title>
<path fill="none" stroke="midnightblue" d="M659.903,-284.411C675.347,-279.458 694.35,-273.365 710.791,-268.092"/>
<polygon fill="midnightblue" stroke="midnightblue" points="712.189,-271.32 720.642,-264.933 710.051,-264.654 712.189,-271.32"/>
</g>
<!-- Node20 -->
<g id="node19" class="node"><title>Node20</title>
<g id="a_node19"><a xlink:href="ldebug_8c.html#ae7a6d2f88b11cc05758e44acd433ee2f" target="_top" xlink:title=" ">
<polygon fill="white" stroke="black" points="705,-284.5 705,-303.5 794,-303.5 794,-284.5 705,-284.5"/>
<text text-anchor="middle" x="749.5" y="-291.5" font-family="Helvetica,sans-Serif" font-size="10.00">luaG_getfuncline</text>
</a>
</g>
</g>
<!-- Node18&#45;&gt;Node20 -->
<g id="edge18" class="edge"><title>Node18&#45;&gt;Node20</title>
<path fill="none" stroke="midnightblue" d="M666.521,-294C675.41,-294 685.104,-294 694.612,-294"/>
<polygon fill="midnightblue" stroke="midnightblue" points="694.81,-297.5 704.81,-294 694.81,-290.5 694.81,-297.5"/>
</g>
<!-- Node21 -->
<g id="node20" class="node"><title>Node21</title>
<g id="a_node20"><a xlink:href="ldebug_8c.html#a355ee1f29ee39ff665aa01ef4493f453" target="_top" xlink:title=" ">
<polygon fill="white" stroke="black" points="843.5,-284.5 843.5,-303.5 909.5,-303.5 909.5,-284.5 843.5,-284.5"/>
<text text-anchor="middle" x="876.5" y="-291.5" font-family="Helvetica,sans-Serif" font-size="10.00">getbaseline</text>
</a>
</g>
</g>
<!-- Node20&#45;&gt;Node21 -->
<g id="edge19" class="edge"><title>Node20&#45;&gt;Node21</title>
<path fill="none" stroke="midnightblue" d="M794.219,-294C806.869,-294 820.652,-294 833.213,-294"/>
<polygon fill="midnightblue" stroke="midnightblue" points="833.426,-297.5 843.426,-294 833.426,-290.5 833.426,-297.5"/>
</g>
<!-- Node23 -->
<g id="node22" class="node"><title>Node23</title>
<g id="a_node22"><a xlink:href="lobject_8c.html#ac331b4119bbeb45a8a7e5a1afe553b2e" target="_top" xlink:title=" ">
<polygon fill="white" stroke="black" points="711.5,-360.5 711.5,-379.5 787.5,-379.5 787.5,-360.5 711.5,-360.5"/>
<text text-anchor="middle" x="749.5" y="-367.5" font-family="Helvetica,sans-Serif" font-size="10.00">luaO_chunkid</text>
</a>
</g>
</g>
<!-- Node22&#45;&gt;Node23 -->
<g id="edge21" class="edge"><title>Node22&#45;&gt;Node23</title>
<path fill="none" stroke="midnightblue" d="M665.554,-370C676.732,-370 689.258,-370 701.121,-370"/>
<polygon fill="midnightblue" stroke="midnightblue" points="701.326,-373.5 711.326,-370 701.326,-366.5 701.326,-373.5"/>
</g>
<!-- Node24 -->
<g id="node23" class="node"><title>Node24</title>
<g id="a_node23"><a xlink:href="lobject_8c.html#a8e224db7123c74d695076a96d1bfda61" target="_top" xlink:title=" ">
<polygon fill="white" stroke="black" points="705,-322.5 705,-341.5 794,-341.5 794,-322.5 705,-322.5"/>
<text text-anchor="middle" x="749.5" y="-329.5" font-family="Helvetica,sans-Serif" font-size="10.00">luaO_pushfstring</text>
</a>
</g>
</g>
<!-- Node22&#45;&gt;Node24 -->
<g id="edge22" class="edge"><title>Node22&#45;&gt;Node24</title>
<path fill="none" stroke="midnightblue" d="M659.903,-360.411C674.779,-355.641 692.957,-349.811 708.967,-344.677"/>
<polygon fill="midnightblue" stroke="midnightblue" points="710.153,-347.972 718.607,-341.586 708.016,-341.307 710.153,-347.972"/>
</g>
<!-- Node24&#45;&gt;Node25 -->
<g id="edge23" class="edge"><title>Node24&#45;&gt;Node25</title>
<path fill="none" stroke="midnightblue" d="M775.467,-341.535C781.688,-344.278 788.226,-347.489 794,-351 817.582,-365.337 841.811,-385.834 857.653,-400.171"/>
<polygon fill="midnightblue" stroke="midnightblue" points="855.395,-402.849 865.125,-407.041 860.132,-397.696 855.395,-402.849"/>
</g>
<!-- Node25&#45;&gt;Node17 -->
<g id="edge32" class="edge"><title>Node25&#45;&gt;Node17</title>
<path fill="none" stroke="midnightblue" d="M829.767,-421.634C759.189,-424.442 624.451,-424.455 553.258,-421.674"/>
<polygon fill="midnightblue" stroke="midnightblue" points="553.371,-418.176 543.23,-421.243 553.071,-425.169 553.371,-418.176"/>
</g>
<!-- Node26 -->
<g id="node25" class="node"><title>Node26</title>
<g id="a_node25"><a xlink:href="lobject_8c.html#a1d02fb9304e4700ce1fd20e34ae68784" target="_top" xlink:title=" ">
<polygon fill="white" stroke="red" points="961.5,-407.5 961.5,-426.5 1032.5,-426.5 1032.5,-407.5 961.5,-407.5"/>
<text text-anchor="middle" x="997" y="-414.5" font-family="Helvetica,sans-Serif" font-size="10.00">addnum2buff</text>
</a>
</g>
</g>
<!-- Node25&#45;&gt;Node26 -->
<g id="edge24" class="edge"><title>Node25&#45;&gt;Node26</title>
<path fill="none" stroke="midnightblue" d="M923.315,-417C932.495,-417 942.13,-417 951.272,-417"/>
<polygon fill="midnightblue" stroke="midnightblue" points="951.335,-420.5 961.335,-417 951.335,-413.5 951.335,-420.5"/>
</g>
<!-- Node27 -->
<g id="node26" class="node"><title>Node27</title>
<g id="a_node26"><a xlink:href="lobject_8c.html#ac4ab924f2ea45ef73319f1159033eab1" target="_top" xlink:title=" ">
<polygon fill="white" stroke="black" points="1094.5,-407.5 1094.5,-426.5 1139.5,-426.5 1139.5,-407.5 1094.5,-407.5"/>
<text text-anchor="middle" x="1117" y="-414.5" font-family="Helvetica,sans-Serif" font-size="10.00">getbuff</text>
</a>
</g>
</g>
<!-- Node25&#45;&gt;Node27 -->
<g id="edge31" class="edge"><title>Node25&#45;&gt;Node27</title>
<path fill="none" stroke="midnightblue" d="M886.946,-426.619C901.107,-440.276 929.356,-464.662 959,-474 991.217,-484.148 1002.8,-484.195 1035,-474 1059.9,-466.118 1083.76,-447.526 1099.06,-433.707"/>
<polygon fill="midnightblue" stroke="midnightblue" points="1101.72,-436.009 1106.62,-426.618 1096.93,-430.9 1101.72,-436.009"/>
</g>
<!-- Node28 -->
<g id="node27" class="node"><title>Node28</title>
<g id="a_node27"><a xlink:href="lobject_8c.html#a6ec2716e64cd75e3e6614a87ee92e4d2" target="_top" xlink:title=" ">
<polygon fill="white" stroke="red" points="1199,-369.5 1199,-388.5 1252,-388.5 1252,-369.5 1199,-369.5"/>
<text text-anchor="middle" x="1225.5" y="-376.5" font-family="Helvetica,sans-Serif" font-size="10.00">clearbuff</text>
</a>
</g>
</g>
<!-- Node25&#45;&gt;Node28 -->
<g id="edge30" class="edge"><title>Node25&#45;&gt;Node28</title>
<path fill="none" stroke="midnightblue" d="M886.946,-407.381C901.107,-393.724 929.356,-369.338 959,-360 1038.34,-335.009 1137.37,-354.555 1189.17,-368.363"/>
<polygon fill="midnightblue" stroke="midnightblue" points="1188.31,-371.757 1198.88,-371.033 1190.17,-365.007 1188.31,-371.757"/>
</g>
<!-- Node442 -->
<g id="node28" class="node"><title>Node442</title>
<g id="a_node28"><a xlink:href="lobject_8c.html#a874ab64f433ee35f2197a81e10452cb1" target="_top" xlink:title=" ">
<polygon fill="white" stroke="red" points="965,-369.5 965,-388.5 1029,-388.5 1029,-369.5 965,-369.5"/>
<text text-anchor="middle" x="997" y="-376.5" font-family="Helvetica,sans-Serif" font-size="10.00">addstr2buff</text>
</a>
</g>
</g>
<!-- Node25&#45;&gt;Node442 -->
<g id="edge27" class="edge"><title>Node25&#45;&gt;Node442</title>
<path fill="none" stroke="midnightblue" d="M907.403,-407.411C922.279,-402.641 940.457,-396.811 956.467,-391.677"/>
<polygon fill="midnightblue" stroke="midnightblue" points="957.653,-394.972 966.107,-388.586 955.516,-388.307 957.653,-394.972"/>
</g>
<!-- Node257 -->
<g id="node29" class="node"><title>Node257</title>
<g id="a_node29"><a xlink:href="lobject_8c.html#af3136de4693789b08f78aafda9604676" target="_top" xlink:title=" ">
<polygon fill="white" stroke="black" points="960,-445.5 960,-464.5 1034,-464.5 1034,-445.5 960,-445.5"/>
<text text-anchor="middle" x="997" y="-452.5" font-family="Helvetica,sans-Serif" font-size="10.00">luaO_utf8esc</text>
</a>
</g>
</g>
<!-- Node25&#45;&gt;Node257 -->
<g id="edge33" class="edge"><title>Node25&#45;&gt;Node257</title>
<path fill="none" stroke="midnightblue" d="M907.403,-426.589C922.279,-431.359 940.457,-437.189 956.467,-442.323"/>
<polygon fill="midnightblue" stroke="midnightblue" points="955.516,-445.693 966.107,-445.414 957.653,-439.028 955.516,-445.693"/>
</g>
<!-- Node26&#45;&gt;Node27 -->
<g id="edge25" class="edge"><title>Node26&#45;&gt;Node27</title>
<path fill="none" stroke="midnightblue" d="M1032.77,-417C1049.01,-417 1068.21,-417 1084.08,-417"/>
<polygon fill="midnightblue" stroke="midnightblue" points="1084.45,-420.5 1094.45,-417 1084.45,-413.5 1084.45,-420.5"/>
</g>
<!-- Node27&#45;&gt;Node28 -->
<g id="edge26" class="edge"><title>Node27&#45;&gt;Node28</title>
<path fill="none" stroke="midnightblue" d="M1139.55,-409.31C1153.75,-404.246 1172.66,-397.495 1189.04,-391.651"/>
<polygon fill="midnightblue" stroke="midnightblue" points="1190.61,-394.809 1198.85,-388.152 1188.26,-388.216 1190.61,-394.809"/>
</g>
<!-- Node442&#45;&gt;Node27 -->
<g id="edge29" class="edge"><title>Node442&#45;&gt;Node27</title>
<path fill="none" stroke="midnightblue" d="M1027.78,-388.589C1045.13,-394.176 1066.99,-401.216 1084.61,-406.891"/>
<polygon fill="midnightblue" stroke="midnightblue" points="1083.83,-410.318 1094.43,-410.052 1085.98,-403.655 1083.83,-410.318"/>
</g>
<!-- Node442&#45;&gt;Node28 -->
<g id="edge28" class="edge"><title>Node442&#45;&gt;Node28</title>
<path fill="none" stroke="midnightblue" d="M1029.02,-379C1070.66,-379 1144.47,-379 1188.5,-379"/>
<polygon fill="midnightblue" stroke="midnightblue" points="1188.76,-382.5 1198.76,-379 1188.76,-375.5 1188.76,-382.5"/>
</g>
<!-- Node75 -->
<g id="node31" class="node"><title>Node75</title>
<g id="a_node31"><a xlink:href="ldo_8c.html#a61c0a0185ef5ae1493dad10027f4db7e" target="_top" xlink:title=" ">
<polygon fill="white" stroke="black" points="706,-38.5 706,-57.5 793,-57.5 793,-38.5 706,-38.5"/>
<text text-anchor="middle" x="749.5" y="-45.5" font-family="Helvetica,sans-Serif" font-size="10.00">luaD_callnoyield</text>
</a>
</g>
</g>
<!-- Node443&#45;&gt;Node75 -->
<g id="edge35" class="edge"><title>Node443&#45;&gt;Node75</title>
<path fill="none" stroke="midnightblue" d="M659.903,-76.411C674.779,-71.6406 692.957,-65.8112 708.967,-60.6771"/>
<polygon fill="midnightblue" stroke="midnightblue" points="710.153,-63.9724 718.607,-57.5859 708.016,-57.3068 710.153,-63.9724"/>
</g>
<!-- Node113 -->
<g id="node33" class="node"><title>Node113</title>
<g id="a_node33"><a xlink:href="ldo_8c.html#a2b46d9db5b9ca3d5402a0c2ac640a6b0" target="_top" xlink:title=" ">
<polygon fill="white" stroke="black" points="717,-76.5 717,-95.5 782,-95.5 782,-76.5 717,-76.5"/>
<text text-anchor="middle" x="749.5" y="-83.5" font-family="Helvetica,sans-Serif" font-size="10.00">luaD_throw</text>
</a>
</g>
</g>
<!-- Node443&#45;&gt;Node113 -->
<g id="edge37" class="edge"><title>Node443&#45;&gt;Node113</title>
<path fill="none" stroke="midnightblue" d="M669.13,-86C681.122,-86 694.363,-86 706.536,-86"/>
<polygon fill="midnightblue" stroke="midnightblue" points="706.901,-89.5001 716.901,-86 706.901,-82.5001 706.901,-89.5001"/>
</g>
<!-- Node76 -->
<g id="node32" class="node"><title>Node76</title>
<g id="a_node32"><a xlink:href="ldo_8c.html#aa7d32ccef16c2d4fe63604c4c457831d" target="_top" xlink:title=" ">
<polygon fill="white" stroke="red" points="858,-9.5 858,-28.5 895,-28.5 895,-9.5 858,-9.5"/>
<text text-anchor="middle" x="876.5" y="-16.5" font-family="Helvetica,sans-Serif" font-size="10.00">ccall</text>
</a>
</g>
</g>
<!-- Node75&#45;&gt;Node76 -->
<g id="edge36" class="edge"><title>Node75&#45;&gt;Node76</title>
<path fill="none" stroke="midnightblue" d="M791.776,-38.4239C810.21,-34.1473 831.439,-29.2222 847.907,-25.4015"/>
<polygon fill="midnightblue" stroke="midnightblue" points="849.015,-28.7376 857.965,-23.0681 847.433,-21.9187 849.015,-28.7376"/>
</g>
<!-- Node113&#45;&gt;Node113 -->
<g id="edge39" class="edge"><title>Node113&#45;&gt;Node113</title>
<path fill="none" stroke="midnightblue" d="M731.005,-95.7571C722.007,-104.565 728.172,-114 749.5,-114 763.163,-114 770.604,-110.128 771.821,-105.029"/>
<polygon fill="midnightblue" stroke="midnightblue" points="775.045,-103.666 767.995,-95.7571 768.574,-106.336 775.045,-103.666"/>
</g>
<!-- Node86 -->
<g id="node34" class="node"><title>Node86</title>
<g id="a_node34"><a xlink:href="ldo_8c.html#a2a5656cf723dffe2e9b5314260bd8896" target="_top" xlink:title=" ">
<polygon fill="white" stroke="black" points="833,-66.5 833,-85.5 920,-85.5 920,-66.5 833,-66.5"/>
<text text-anchor="middle" x="876.5" y="-73.5" font-family="Helvetica,sans-Serif" font-size="10.00">luaD_seterrorobj</text>
</a>
</g>
</g>
<!-- Node113&#45;&gt;Node86 -->
<g id="edge38" class="edge"><title>Node113&#45;&gt;Node86</title>
<path fill="none" stroke="midnightblue" d="M782.043,-83.4766C794.261,-82.4991 808.591,-81.3527 822.309,-80.2553"/>
<polygon fill="midnightblue" stroke="midnightblue" points="822.946,-83.7156 832.635,-79.4292 822.388,-76.7379 822.946,-83.7156"/>
</g>
<!-- Node81 -->
<g id="node35" class="node"><title>Node81</title>
<g id="a_node35"><a xlink:href="lfunc_8c.html#ae9fcbf80b5969afd9412b9aed102f94e" target="_top" xlink:title=" ">
<polygon fill="white" stroke="red" points="844.5,-104.5 844.5,-123.5 908.5,-123.5 908.5,-104.5 844.5,-104.5"/>
<text text-anchor="middle" x="876.5" y="-111.5" font-family="Helvetica,sans-Serif" font-size="10.00">luaF_close</text>
</a>
</g>
</g>
<!-- Node113&#45;&gt;Node81 -->
<g id="edge40" class="edge"><title>Node113&#45;&gt;Node81</title>
<path fill="none" stroke="midnightblue" d="M782.043,-93.0656C797.855,-96.6075 817.203,-100.942 834.185,-104.746"/>
<polygon fill="midnightblue" stroke="midnightblue" points="833.877,-108.263 844.4,-107.034 835.407,-101.432 833.877,-108.263"/>
</g>
<!-- Node98&#45;&gt;Node17 -->
<g id="edge43" class="edge"><title>Node98&#45;&gt;Node17</title>
<path fill="none" stroke="midnightblue" d="M413.66,-445.411C428.912,-440.641 447.551,-434.811 463.967,-429.677"/>
<polygon fill="midnightblue" stroke="midnightblue" points="465.351,-432.911 473.85,-426.586 463.261,-426.231 465.351,-432.911"/>
</g>
<!-- Node99 -->
<g id="node37" class="node"><title>Node99</title>
<g id="a_node37"><a xlink:href="ltm_8c.html#a6774390baf68edcb78194d0e0f8546ab" target="_top" xlink:title=" ">
<polygon fill="white" stroke="black" points="458,-445.5 458,-464.5 553,-464.5 553,-445.5 458,-445.5"/>
<text text-anchor="middle" x="505.5" y="-452.5" font-family="Helvetica,sans-Serif" font-size="10.00">luaT_objtypename</text>
</a>
</g>
</g>
<!-- Node98&#45;&gt;Node99 -->
<g id="edge44" class="edge"><title>Node98&#45;&gt;Node99</title>
<path fill="none" stroke="midnightblue" d="M422.112,-455C430.289,-455 439.068,-455 447.738,-455"/>
<polygon fill="midnightblue" stroke="midnightblue" points="447.824,-458.5 457.824,-455 447.824,-451.5 447.824,-458.5"/>
</g>
<!-- Node101 -->
<g id="node39" class="node"><title>Node101</title>
<g id="a_node39"><a xlink:href="ldebug_8c.html#a86692faa1669d631d38c24993d511dd5" target="_top" xlink:title=" ">
<polygon fill="white" stroke="black" points="607,-227.5 607,-246.5 651,-246.5 651,-227.5 607,-227.5"/>
<text text-anchor="middle" x="629" y="-234.5" font-family="Helvetica,sans-Serif" font-size="10.00">varinfo</text>
</a>
</g>
</g>
<!-- Node98&#45;&gt;Node101 -->
<g id="edge47" class="edge"><title>Node98&#45;&gt;Node101</title>
<path fill="none" stroke="midnightblue" d="M393.843,-445.352C432.187,-411.233 561.647,-296.041 609.778,-253.214"/>
<polygon fill="midnightblue" stroke="midnightblue" points="612.138,-255.799 617.282,-246.537 607.484,-250.57 612.138,-255.799"/>
</g>
<!-- Node99&#45;&gt;Node14 -->
<g id="edge45" class="edge"><title>Node99&#45;&gt;Node14</title>
<path fill="none" stroke="midnightblue" d="M517.527,-464.523C555.559,-497.369 681.542,-606.173 729.626,-647.699"/>
<polygon fill="midnightblue" stroke="midnightblue" points="727.552,-650.533 737.408,-654.421 732.128,-645.236 727.552,-650.533"/>
</g>
<!-- Node100 -->
<g id="node38" class="node"><title>Node100</title>
<g id="a_node38"><a xlink:href="lstring_8c.html#a6d47e53be6b8e58202bb927752f4824b" target="_top" xlink:title=" ">
<polygon fill="white" stroke="red" points="599.5,-454.5 599.5,-473.5 658.5,-473.5 658.5,-454.5 599.5,-454.5"/>
<text text-anchor="middle" x="629" y="-461.5" font-family="Helvetica,sans-Serif" font-size="10.00">luaS_new</text>
</a>
</g>
</g>
<!-- Node99&#45;&gt;Node100 -->
<g id="edge46" class="edge"><title>Node99&#45;&gt;Node100</title>
<path fill="none" stroke="midnightblue" d="M553.128,-458.454C565.014,-459.334 577.665,-460.271 589.119,-461.12"/>
<polygon fill="midnightblue" stroke="midnightblue" points="589.013,-464.622 599.245,-461.87 589.531,-457.641 589.013,-464.622"/>
</g>
<!-- Node101&#45;&gt;Node19 -->
<g id="edge48" class="edge"><title>Node101&#45;&gt;Node19</title>
<path fill="none" stroke="midnightblue" d="M651.185,-240.397C667.739,-243.051 691.167,-246.807 710.887,-249.969"/>
<polygon fill="midnightblue" stroke="midnightblue" points="710.378,-253.432 720.806,-251.56 711.486,-246.52 710.378,-253.432"/>
</g>
<!-- Node101&#45;&gt;Node24 -->
<g id="edge52" class="edge"><title>Node101&#45;&gt;Node24</title>
<path fill="none" stroke="midnightblue" d="M640.046,-246.575C647.987,-254.195 659.309,-265.172 669,-275 685.335,-291.565 685.96,-299.632 705,-313 707.403,-314.687 709.979,-316.272 712.635,-317.752"/>
<polygon fill="midnightblue" stroke="midnightblue" points="711.321,-321.008 721.828,-322.367 714.461,-314.752 711.321,-321.008"/>
</g>
<!-- Node102 -->
<g id="node40" class="node"><title>Node102</title>
<g id="a_node40"><a xlink:href="ldebug_8c.html#a5ccea5c2124ac2e629562b0ff7f440a6" target="_top" xlink:title=" ">
<polygon fill="white" stroke="red" points="716,-132.5 716,-151.5 783,-151.5 783,-132.5 716,-132.5"/>
<text text-anchor="middle" x="749.5" y="-139.5" font-family="Helvetica,sans-Serif" font-size="10.00">getobjname</text>
</a>
</g>
</g>
<!-- Node101&#45;&gt;Node102 -->
<g id="edge49" class="edge"><title>Node101&#45;&gt;Node102</title>
<path fill="none" stroke="midnightblue" d="M637.381,-227.44C649.866,-211.797 676.58,-180.523 705,-161 707.566,-159.237 710.323,-157.581 713.157,-156.038"/>
<polygon fill="midnightblue" stroke="midnightblue" points="714.921,-159.07 722.339,-151.504 711.822,-152.793 714.921,-159.07"/>
</g>
<!-- Node110 -->
<g id="node41" class="node"><title>Node110</title>
<g id="a_node41"><a xlink:href="ldebug_8c.html#aa34de8e3a8dd64cda6ce15e2296dff9b" target="_top" xlink:title=" ">
<polygon fill="white" stroke="red" points="711.5,-208.5 711.5,-227.5 787.5,-227.5 787.5,-208.5 711.5,-208.5"/>
<text text-anchor="middle" x="749.5" y="-215.5" font-family="Helvetica,sans-Serif" font-size="10.00">getupvalname</text>
</a>
</g>
</g>
<!-- Node101&#45;&gt;Node110 -->
<g id="edge50" class="edge"><title>Node101&#45;&gt;Node110</title>
<path fill="none" stroke="midnightblue" d="M651.185,-233.603C665.098,-231.372 683.866,-228.363 701.208,-225.583"/>
<polygon fill="midnightblue" stroke="midnightblue" points="701.887,-229.019 711.207,-223.98 700.779,-222.107 701.887,-229.019"/>
</g>
<!-- Node111 -->
<g id="node42" class="node"><title>Node111</title>
<g id="a_node42"><a xlink:href="ldebug_8c.html#a9f58a8099ec72d2ec0e0937b868fccdb" target="_top" xlink:title=" ">
<polygon fill="white" stroke="black" points="721.5,-170.5 721.5,-189.5 777.5,-189.5 777.5,-170.5 721.5,-170.5"/>
<text text-anchor="middle" x="749.5" y="-177.5" font-family="Helvetica,sans-Serif" font-size="10.00">isinstack</text>
</a>
</g>
</g>
<!-- Node101&#45;&gt;Node111 -->
<g id="edge51" class="edge"><title>Node101&#45;&gt;Node111</title>
<path fill="none" stroke="midnightblue" d="M648.043,-227.493C663.147,-219.623 685.326,-208.271 705,-199 708.669,-197.271 712.535,-195.504 716.387,-193.779"/>
<polygon fill="midnightblue" stroke="midnightblue" points="718.078,-196.858 725.812,-189.618 715.25,-190.455 718.078,-196.858"/>
</g>
<!-- Node148 -->
<g id="node44" class="node"><title>Node148</title>
<g id="a_node44"><a xlink:href="ltable_8c.html#a6ce3d9b25029784215e203196f0d0686" target="_top" xlink:title=" ">
<polygon fill="white" stroke="black" points="345,-578.5 345,-597.5 419,-597.5 419,-578.5 345,-578.5"/>
<text text-anchor="middle" x="382" y="-585.5" font-family="Helvetica,sans-Serif" font-size="10.00">luaH_newkey</text>
</a>
</g>
</g>
<!-- Node147&#45;&gt;Node148 -->
<g id="edge54" class="edge"><title>Node147&#45;&gt;Node148</title>
<path fill="none" stroke="midnightblue" d="M286.595,-626.402C304.201,-619.24 328.482,-609.363 348.01,-601.42"/>
<polygon fill="midnightblue" stroke="midnightblue" points="349.501,-604.592 357.445,-597.582 346.864,-598.108 349.501,-604.592"/>
</g>
<!-- Node148&#45;&gt;Node7 -->
<g id="edge62" class="edge"><title>Node148&#45;&gt;Node7</title>
<path fill="none" stroke="midnightblue" d="M419.215,-586.603C505.785,-583.263 724.918,-574.809 824.659,-570.961"/>
<polygon fill="midnightblue" stroke="midnightblue" points="824.931,-574.454 834.788,-570.571 824.661,-567.459 824.931,-574.454"/>
</g>
<!-- Node148&#45;&gt;Node8 -->
<g id="edge61" class="edge"><title>Node148&#45;&gt;Node8</title>
<path fill="none" stroke="midnightblue" d="M388.732,-578.431C399.662,-561.241 425.334,-525.658 458,-512 546.59,-474.96 838.55,-521.661 951.154,-541.697"/>
<polygon fill="midnightblue" stroke="midnightblue" points="950.703,-545.172 961.164,-543.492 951.939,-538.282 950.703,-545.172"/>
</g>
<!-- Node148&#45;&gt;Node15 -->
<g id="edge60" class="edge"><title>Node148&#45;&gt;Node15</title>
<path fill="none" stroke="midnightblue" d="M399.512,-597.659C414.407,-606.055 437.118,-618.082 458,-626 539.099,-656.751 637.485,-679.632 696.434,-691.884"/>
<polygon fill="midnightblue" stroke="midnightblue" points="695.757,-695.318 706.257,-693.903 697.167,-688.462 695.757,-695.318"/>
</g>
<!-- Node148&#45;&gt;Node17 -->
<g id="edge56" class="edge"><title>Node148&#45;&gt;Node17</title>
<path fill="none" stroke="midnightblue" d="M385.199,-578.374C391.697,-551.992 413.222,-477.728 458,-436 459.659,-434.454 461.46,-433.026 463.358,-431.709"/>
<polygon fill="midnightblue" stroke="midnightblue" points="465.259,-434.652 472.156,-426.61 461.749,-428.596 465.259,-434.652"/>
</g>
<!-- Node149 -->
<g id="node45" class="node"><title>Node149</title>
<g id="a_node45"><a xlink:href="ltable_8c.html#aadac41ebb50daf5143d8deb998418a50" target="_top" xlink:title=" ">
<polygon fill="white" stroke="black" points="474.5,-521.5 474.5,-540.5 536.5,-540.5 536.5,-521.5 474.5,-521.5"/>
<text text-anchor="middle" x="505.5" y="-528.5" font-family="Helvetica,sans-Serif" font-size="10.00">getfreepos</text>
</a>
</g>
</g>
<!-- Node148&#45;&gt;Node149 -->
<g id="edge55" class="edge"><title>Node148&#45;&gt;Node149</title>
<path fill="none" stroke="midnightblue" d="M403.336,-578.459C422.873,-569.294 452.616,-555.341 474.802,-544.932"/>
<polygon fill="midnightblue" stroke="midnightblue" points="476.531,-547.988 484.097,-540.572 473.557,-541.65 476.531,-547.988"/>
</g>
<!-- Node150 -->
<g id="node46" class="node"><title>Node150</title>
<g id="a_node46"><a xlink:href="ltable_8c.html#a2ea4f5ea50911a03375ba4d22ef72419" target="_top" xlink:title=" ">
<polygon fill="white" stroke="black" points="478,-673.5 478,-692.5 533,-692.5 533,-673.5 478,-673.5"/>
<text text-anchor="middle" x="505.5" y="-680.5" font-family="Helvetica,sans-Serif" font-size="10.00">luaH_set</text>
</a>
</g>
</g>
<!-- Node148&#45;&gt;Node150 -->
<g id="edge57" class="edge"><title>Node148&#45;&gt;Node150</title>
<path fill="none" stroke="midnightblue" d="M391.507,-597.633C404.708,-612.195 431.389,-640.113 458,-659 462.936,-662.503 468.452,-665.809 473.912,-668.782"/>
<polygon fill="midnightblue" stroke="midnightblue" points="472.446,-671.964 482.936,-673.448 475.661,-665.746 472.446,-671.964"/>
</g>
<!-- Node151 -->
<g id="node47" class="node"><title>Node151</title>
<g id="a_node47"><a xlink:href="ltable_8c.html#ad775daa2a19a375c7385ed30834a3eeb" target="_top" xlink:title=" ">
<polygon fill="white" stroke="red" points="482.5,-597.5 482.5,-616.5 528.5,-616.5 528.5,-597.5 482.5,-597.5"/>
<text text-anchor="middle" x="505.5" y="-604.5" font-family="Helvetica,sans-Serif" font-size="10.00">rehash</text>
</a>
</g>
</g>
<!-- Node148&#45;&gt;Node151 -->
<g id="edge63" class="edge"><title>Node148&#45;&gt;Node151</title>
<path fill="none" stroke="midnightblue" d="M419.125,-593.649C435.995,-596.287 455.915,-599.402 472.269,-601.96"/>
<polygon fill="midnightblue" stroke="midnightblue" points="472.012,-605.462 482.432,-603.549 473.093,-598.546 472.012,-605.462"/>
</g>
<!-- Node150&#45;&gt;Node3 -->
<g id="edge59" class="edge"><title>Node150&#45;&gt;Node3</title>
<path fill="none" stroke="midnightblue" d="M521.888,-692.625C542.612,-705.588 579.698,-728.786 604.076,-744.035"/>
<polygon fill="midnightblue" stroke="midnightblue" points="602.403,-747.117 612.737,-749.453 606.115,-741.182 602.403,-747.117"/>
</g>
<!-- Node150&#45;&gt;Node147 -->
<g id="edge58" class="edge"><title>Node150&#45;&gt;Node147</title>
<path fill="none" stroke="midnightblue" d="M477.849,-677.813C437.604,-669.981 360.719,-655.018 310.675,-645.278"/>
<polygon fill="midnightblue" stroke="midnightblue" points="311.219,-641.819 300.734,-643.344 309.882,-648.69 311.219,-641.819"/>
</g>
<!-- Node444&#45;&gt;Node75 -->
<g id="edge68" class="edge"><title>Node444&#45;&gt;Node75</title>
<path fill="none" stroke="midnightblue" d="M663.009,-48C673.181,-48 684.646,-48 695.797,-48"/>
<polygon fill="midnightblue" stroke="midnightblue" points="695.905,-51.5001 705.905,-48 695.904,-44.5001 695.905,-51.5001"/>
</g>
<!-- Node377 -->
<g id="node49" class="node"><title>Node377</title>
<g id="a_node49"><a xlink:href="ldo_8c.html#a5483fddd87ca999e7d037bf397ab7997" target="_top" xlink:title=" ">
<polygon fill="white" stroke="black" points="721.5,-0.5 721.5,-19.5 777.5,-19.5 777.5,-0.5 721.5,-0.5"/>
<text text-anchor="middle" x="749.5" y="-7.5" font-family="Helvetica,sans-Serif" font-size="10.00">luaD_call</text>
</a>
</g>
</g>
<!-- Node444&#45;&gt;Node377 -->
<g id="edge66" class="edge"><title>Node444&#45;&gt;Node377</title>
<path fill="none" stroke="midnightblue" d="M659.903,-38.411C675.574,-33.3857 694.909,-27.1852 711.515,-21.8603"/>
<polygon fill="midnightblue" stroke="midnightblue" points="712.99,-25.0628 721.444,-18.6763 710.853,-18.3971 712.99,-25.0628"/>
</g>
<!-- Node377&#45;&gt;Node76 -->
<g id="edge67" class="edge"><title>Node377&#45;&gt;Node76</title>
<path fill="none" stroke="midnightblue" d="M777.623,-11.9529C798.29,-13.4409 826.653,-15.483 847.527,-16.9859"/>
<polygon fill="midnightblue" stroke="midnightblue" points="847.454,-20.4897 857.68,-17.7169 847.957,-13.5077 847.454,-20.4897"/>
</g>
<!-- Node90&#45;&gt;Node14 -->
<g id="edge70" class="edge"><title>Node90&#45;&gt;Node14</title>
<path fill="none" stroke="midnightblue" d="M306.358,-701.553C363.159,-705.531 465.791,-710.397 553,-702 604.132,-697.077 661.76,-685.07 701.123,-675.859"/>
<polygon fill="midnightblue" stroke="midnightblue" points="702.048,-679.236 710.971,-673.523 700.433,-672.425 702.048,-679.236"/>
</g>
</g>
</svg>
