<?xml version="1.0" encoding="UTF-8" standalone="no"?>
<!DOCTYPE svg PUBLIC "-//W3C//DTD SVG 1.1//EN"
 "http://www.w3.org/Graphics/SVG/1.1/DTD/svg11.dtd">
<!-- Generated by graphviz version 2.38.0 (20140413.2041)
 -->
<!-- Title: finishrawget Pages: 1 -->
<svg width="917pt" height="887pt"
 viewBox="0.00 0.00 917.00 886.81" xmlns="http://www.w3.org/2000/svg" xmlns:xlink="http://www.w3.org/1999/xlink">
<g id="graph0" class="graph" transform="scale(1 1) rotate(0) translate(4 882.813)">
<title>finishrawget</title>
<polygon fill="white" stroke="none" points="-4,4 -4,-882.813 913,-882.813 913,4 -4,4"/>
<!-- Node1 -->
<g id="node1" class="node"><title>Node1</title>
<g id="a_node1"><a xlink:title=" ">
<polygon fill="#bfbfbf" stroke="black" points="841,-95.5 841,-114.5 909,-114.5 909,-95.5 841,-95.5"/>
<text text-anchor="middle" x="875" y="-102.5" font-family="Helvetica,sans-Serif" font-size="10.00">finishrawget</text>
</a>
</g>
</g>
<!-- Node2 -->
<g id="node2" class="node"><title>Node2</title>
<g id="a_node2"><a xlink:href="lua_8h.html#ae8f0d7f0543fcfe008d5ab1bab1fcd21" target="_top" xlink:title=" ">
<polygon fill="white" stroke="black" points="739.5,-760.5 739.5,-779.5 802.5,-779.5 802.5,-760.5 739.5,-760.5"/>
<text text-anchor="middle" x="771" y="-767.5" font-family="Helvetica,sans-Serif" font-size="10.00">lua_rawget</text>
</a>
</g>
</g>
<!-- Node1&#45;&gt;Node2 -->
<g id="edge1" class="edge"><title>Node1&#45;&gt;Node2</title>
<path fill="none" stroke="midnightblue" d="M870.969,-124.759C855.382,-226.385 784.538,-688.258 773.459,-760.487"/>
<polygon fill="midnightblue" stroke="midnightblue" points="874.462,-125.072 872.519,-114.657 867.543,-124.011 874.462,-125.072"/>
</g>
<!-- Node148 -->
<g id="node41" class="node"><title>Node148</title>
<g id="a_node41"><a xlink:href="lua_8h.html#a4cb16fd79ac268b68742136d6db8d288" target="_top" xlink:title=" ">
<polygon fill="white" stroke="black" points="738.5,-95.5 738.5,-114.5 803.5,-114.5 803.5,-95.5 738.5,-95.5"/>
<text text-anchor="middle" x="771" y="-102.5" font-family="Helvetica,sans-Serif" font-size="10.00">lua_rawgeti</text>
</a>
</g>
</g>
<!-- Node1&#45;&gt;Node148 -->
<g id="edge49" class="edge"><title>Node1&#45;&gt;Node148</title>
<path fill="none" stroke="midnightblue" d="M830.78,-105C821.645,-105 812.17,-105 803.563,-105"/>
<polygon fill="midnightblue" stroke="midnightblue" points="830.884,-108.5 840.884,-105 830.883,-101.5 830.884,-108.5"/>
</g>
<!-- Node157 -->
<g id="node50" class="node"><title>Node157</title>
<g id="a_node50"><a xlink:href="lua_8h.html#a8aaccfd5ff3c7acbbd8a48f325a0b779" target="_top" xlink:title=" ">
<polygon fill="white" stroke="black" points="737,-57.5 737,-76.5 805,-76.5 805,-57.5 737,-57.5"/>
<text text-anchor="middle" x="771" y="-64.5" font-family="Helvetica,sans-Serif" font-size="10.00">lua_rawgetp</text>
</a>
</g>
</g>
<!-- Node1&#45;&gt;Node157 -->
<g id="edge59" class="edge"><title>Node1&#45;&gt;Node157</title>
<path fill="none" stroke="midnightblue" d="M838.789,-91.882C825.298,-86.8561 810.172,-81.2209 797.731,-76.5859"/>
<polygon fill="midnightblue" stroke="midnightblue" points="837.668,-95.1996 848.261,-95.411 840.112,-88.6401 837.668,-95.1996"/>
</g>
<!-- Node3 -->
<g id="node3" class="node"><title>Node3</title>
<g id="a_node3"><a xlink:href="ltablib_8c.html#a641ec2ebb32db79b3eb9d972ad4997ea" target="_top" xlink:title=" ">
<polygon fill="white" stroke="black" points="363,-855.5 363,-874.5 423,-874.5 423,-855.5 363,-855.5"/>
<text text-anchor="middle" x="393" y="-862.5" font-family="Helvetica,sans-Serif" font-size="10.00">checkfield</text>
</a>
</g>
</g>
<!-- Node2&#45;&gt;Node3 -->
<g id="edge2" class="edge"><title>Node2&#45;&gt;Node3</title>
<path fill="none" stroke="midnightblue" d="M759.405,-788.229C747.691,-806.455 726.992,-833.517 701,-846 607.855,-890.733 480.123,-878.697 423.305,-870.154"/>
<polygon fill="midnightblue" stroke="midnightblue" points="762.438,-789.979 764.692,-779.627 756.474,-786.313 762.438,-789.979"/>
</g>
<!-- Node6 -->
<g id="node6" class="node"><title>Node6</title>
<g id="a_node6"><a xlink:href="ldblib_8c.html#a6a624ae8d8ff673e72a317b280ed008d" target="_top" xlink:title=" ">
<polygon fill="white" stroke="black" points="490.5,-779.5 490.5,-798.5 557.5,-798.5 557.5,-779.5 490.5,-779.5"/>
<text text-anchor="middle" x="524" y="-786.5" font-family="Helvetica,sans-Serif" font-size="10.00">db_gethook</text>
</a>
</g>
</g>
<!-- Node2&#45;&gt;Node6 -->
<g id="edge5" class="edge"><title>Node2&#45;&gt;Node6</title>
<path fill="none" stroke="midnightblue" d="M729.416,-773.147C681.366,-776.874 602.276,-783.007 557.876,-786.45"/>
<polygon fill="midnightblue" stroke="midnightblue" points="729.767,-776.631 739.466,-772.368 729.225,-769.652 729.767,-776.631"/>
</g>
<!-- Node7 -->
<g id="node7" class="node"><title>Node7</title>
<g id="a_node7"><a xlink:href="ldblib_8c.html#a5caaa985f31fc5cbd014f831833205e7" target="_top" xlink:title=" ">
<polygon fill="white" stroke="black" points="635,-817.5 635,-836.5 675,-836.5 675,-817.5 635,-817.5"/>
<text text-anchor="middle" x="655" y="-824.5" font-family="Helvetica,sans-Serif" font-size="10.00">hookf</text>
</a>
</g>
</g>
<!-- Node2&#45;&gt;Node7 -->
<g id="edge6" class="edge"><title>Node2&#45;&gt;Node7</title>
<path fill="none" stroke="midnightblue" d="M741.926,-784.037C721.156,-794.422 693.414,-808.293 675.143,-817.428"/>
<polygon fill="midnightblue" stroke="midnightblue" points="743.54,-787.143 750.919,-779.541 740.409,-780.882 743.54,-787.143"/>
</g>
<!-- Node9 -->
<g id="node9" class="node"><title>Node9</title>
<g id="a_node9"><a xlink:href="lbaselib_8c.html#a248a6847a33f31c69a43a76b6b8bcb4b" target="_top" xlink:title=" ">
<polygon fill="white" stroke="black" points="93,-729.5 93,-748.5 163,-748.5 163,-729.5 93,-729.5"/>
<text text-anchor="middle" x="128" y="-736.5" font-family="Helvetica,sans-Serif" font-size="10.00">luaB_rawget</text>
</a>
</g>
</g>
<!-- Node2&#45;&gt;Node9 -->
<g id="edge9" class="edge"><title>Node2&#45;&gt;Node9</title>
<path fill="none" stroke="midnightblue" d="M729.429,-770.112C637.395,-770.038 405.806,-768.01 213,-751 196.565,-749.55 178.432,-747.072 163.233,-744.743"/>
<polygon fill="midnightblue" stroke="midnightblue" points="729.438,-773.612 739.438,-770.112 729.438,-766.612 729.438,-773.612"/>
</g>
<!-- Node10 -->
<g id="node10" class="node"><title>Node10</title>
<g id="a_node10"><a xlink:href="lauxlib_8h.html#aed3f129411ba1ec14f813d650f16384d" target="_top" xlink:title=" ">
<polygon fill="white" stroke="black" points="609,-551.5 609,-570.5 701,-570.5 701,-551.5 609,-551.5"/>
<text text-anchor="middle" x="655" y="-558.5" font-family="Helvetica,sans-Serif" font-size="10.00">luaL_getmetafield</text>
</a>
</g>
</g>
<!-- Node2&#45;&gt;Node10 -->
<g id="edge10" class="edge"><title>Node2&#45;&gt;Node10</title>
<path fill="none" stroke="midnightblue" d="M759.994,-751.655C736.583,-708.736 678.89,-602.965 661.225,-570.579"/>
<polygon fill="midnightblue" stroke="midnightblue" points="756.944,-753.374 764.805,-760.477 763.089,-750.022 756.944,-753.374"/>
</g>
<!-- Node4 -->
<g id="node4" class="node"><title>Node4</title>
<g id="a_node4"><a xlink:href="ltablib_8c.html#abe77aa6d8b3f0a5102aba10fa05d31c2" target="_top" xlink:title=" ">
<polygon fill="white" stroke="black" points="100,-847.5 100,-866.5 156,-866.5 156,-847.5 100,-847.5"/>
<text text-anchor="middle" x="128" y="-854.5" font-family="Helvetica,sans-Serif" font-size="10.00">checktab</text>
</a>
</g>
</g>
<!-- Node3&#45;&gt;Node4 -->
<g id="edge3" class="edge"><title>Node3&#45;&gt;Node4</title>
<path fill="none" stroke="midnightblue" d="M352.637,-863.803C298.663,-862.161 203.064,-859.253 156.299,-857.83"/>
<polygon fill="midnightblue" stroke="midnightblue" points="352.748,-867.308 362.85,-864.113 352.961,-860.311 352.748,-867.308"/>
</g>
<!-- Node5 -->
<g id="node5" class="node"><title>Node5</title>
<g id="a_node5"><a xlink:href="ltablib_8c.html#a2206b11cc9a180fbc33aabb81308fd74" target="_top" xlink:title=" ">
<polygon fill="white" stroke="black" points="0.5,-847.5 0.5,-866.5 42.5,-866.5 42.5,-847.5 0.5,-847.5"/>
<text text-anchor="middle" x="21.5" y="-854.5" font-family="Helvetica,sans-Serif" font-size="10.00">tmove</text>
</a>
</g>
</g>
<!-- Node4&#45;&gt;Node5 -->
<g id="edge4" class="edge"><title>Node4&#45;&gt;Node5</title>
<path fill="none" stroke="midnightblue" d="M89.7382,-857C73.8537,-857 55.9504,-857 42.6138,-857"/>
<polygon fill="midnightblue" stroke="midnightblue" points="89.8167,-860.5 99.8167,-857 89.8166,-853.5 89.8167,-860.5"/>
</g>
<!-- Node7&#45;&gt;Node6 -->
<g id="edge7" class="edge"><title>Node7&#45;&gt;Node6</title>
<path fill="none" stroke="midnightblue" d="M625.135,-818.497C605.035,-812.576 578.206,-804.673 557.378,-798.538"/>
<polygon fill="midnightblue" stroke="midnightblue" points="624.384,-821.925 634.966,-821.393 626.362,-815.21 624.384,-821.925"/>
</g>
<!-- Node8 -->
<g id="node8" class="node"><title>Node8</title>
<g id="a_node8"><a xlink:href="ldblib_8c.html#aa0c362d361f8f9bd8a002c34c393e2b0" target="_top" xlink:title=" ">
<polygon fill="white" stroke="black" points="94.5,-795.5 94.5,-814.5 161.5,-814.5 161.5,-795.5 94.5,-795.5"/>
<text text-anchor="middle" x="128" y="-802.5" font-family="Helvetica,sans-Serif" font-size="10.00">db_sethook</text>
</a>
</g>
</g>
<!-- Node7&#45;&gt;Node8 -->
<g id="edge8" class="edge"><title>Node7&#45;&gt;Node8</title>
<path fill="none" stroke="midnightblue" d="M624.532,-825.765C533.482,-821.95 257.055,-810.366 161.729,-806.372"/>
<polygon fill="midnightblue" stroke="midnightblue" points="624.555,-829.269 634.692,-826.191 624.848,-822.275 624.555,-829.269"/>
</g>
<!-- Node11 -->
<g id="node11" class="node"><title>Node11</title>
<g id="a_node11"><a xlink:href="lbaselib_8c.html#addfd66adcbe4c777cf5e10536d27d8b1" target="_top" xlink:title=" ">
<polygon fill="white" stroke="black" points="475,-570.5 475,-589.5 573,-589.5 573,-570.5 475,-570.5"/>
<text text-anchor="middle" x="524" y="-577.5" font-family="Helvetica,sans-Serif" font-size="10.00">luaB_getmetatable</text>
</a>
</g>
</g>
<!-- Node10&#45;&gt;Node11 -->
<g id="edge11" class="edge"><title>Node10&#45;&gt;Node11</title>
<path fill="none" stroke="midnightblue" d="M598.741,-569.139C590.306,-570.381 581.656,-571.655 573.385,-572.874"/>
<polygon fill="midnightblue" stroke="midnightblue" points="599.499,-572.565 608.882,-567.645 598.479,-565.64 599.499,-572.565"/>
</g>
<!-- Node12 -->
<g id="node12" class="node"><title>Node12</title>
<g id="a_node12"><a xlink:href="lbaselib_8c.html#a36def102f87ba8c40734489231e90109" target="_top" xlink:title=" ">
<polygon fill="white" stroke="black" points="493,-532.5 493,-551.5 555,-551.5 555,-532.5 493,-532.5"/>
<text text-anchor="middle" x="524" y="-539.5" font-family="Helvetica,sans-Serif" font-size="10.00">luaB_pairs</text>
</a>
</g>
</g>
<!-- Node10&#45;&gt;Node12 -->
<g id="edge12" class="edge"><title>Node10&#45;&gt;Node12</title>
<path fill="none" stroke="midnightblue" d="M598.723,-552.858C583.836,-550.666 568.281,-548.375 555.316,-546.465"/>
<polygon fill="midnightblue" stroke="midnightblue" points="598.479,-556.36 608.882,-554.355 599.499,-549.435 598.479,-556.36"/>
</g>
<!-- Node13 -->
<g id="node13" class="node"><title>Node13</title>
<g id="a_node13"><a xlink:href="lbaselib_8c.html#af7799a987ba6d158a96a52e80fb5beaf" target="_top" xlink:title=" ">
<polygon fill="white" stroke="black" points="79,-687.5 79,-706.5 177,-706.5 177,-687.5 79,-687.5"/>
<text text-anchor="middle" x="128" y="-694.5" font-family="Helvetica,sans-Serif" font-size="10.00">luaB_setmetatable</text>
</a>
</g>
</g>
<!-- Node10&#45;&gt;Node13 -->
<g id="edge13" class="edge"><title>Node10&#45;&gt;Node13</title>
<path fill="none" stroke="midnightblue" d="M640.755,-578.594C626.236,-596.472 601.219,-623.411 573,-637 440.547,-700.786 261.663,-703.091 177.101,-699.929"/>
<polygon fill="midnightblue" stroke="midnightblue" points="643.577,-580.667 647.007,-570.643 638.074,-576.34 643.577,-580.667"/>
</g>
<!-- Node14 -->
<g id="node14" class="node"><title>Node14</title>
<g id="a_node14"><a xlink:href="lauxlib_8h.html#af26aec8cce4a3f4448c60f402d78f17d" target="_top" xlink:title=" ">
<polygon fill="white" stroke="black" points="485.5,-456.5 485.5,-475.5 562.5,-475.5 562.5,-456.5 485.5,-456.5"/>
<text text-anchor="middle" x="524" y="-463.5" font-family="Helvetica,sans-Serif" font-size="10.00">luaL_callmeta</text>
</a>
</g>
</g>
<!-- Node10&#45;&gt;Node14 -->
<g id="edge14" class="edge"><title>Node10&#45;&gt;Node14</title>
<path fill="none" stroke="midnightblue" d="M637.354,-544.11C621.672,-528.78 597.055,-506.165 573,-490 564.958,-484.596 555.528,-479.621 547.165,-475.62"/>
<polygon fill="midnightblue" stroke="midnightblue" points="635.126,-546.831 644.69,-551.39 640.057,-541.862 635.126,-546.831"/>
</g>
<!-- Node15 -->
<g id="node15" class="node"><title>Node15</title>
<g id="a_node15"><a xlink:href="lauxlib_8h.html#aef6da057d1e26ed6449b92177f1f2f5a" target="_top" xlink:title=" ">
<polygon fill="white" stroke="black" points="356,-456.5 356,-475.5 430,-475.5 430,-456.5 356,-456.5"/>
<text text-anchor="middle" x="393" y="-463.5" font-family="Helvetica,sans-Serif" font-size="10.00">luaL_tolstring</text>
</a>
</g>
</g>
<!-- Node10&#45;&gt;Node15 -->
<g id="edge28" class="edge"><title>Node10&#45;&gt;Node15</title>
<path fill="none" stroke="midnightblue" d="M626.295,-546.906C610.828,-539.317 591.085,-530.087 573,-523 523.656,-503.664 464.831,-485.909 428.445,-475.519"/>
<polygon fill="midnightblue" stroke="midnightblue" points="624.806,-550.074 635.32,-551.385 627.919,-543.804 624.806,-550.074"/>
</g>
<!-- Node37 -->
<g id="node27" class="node"><title>Node37</title>
<g id="a_node27"><a xlink:href="lauxlib_8h.html#a38cc1bb8d85efadc840f38b33e37326b" target="_top" xlink:title=" ">
<polygon fill="white" stroke="black" points="485,-608.5 485,-627.5 563,-627.5 563,-608.5 485,-608.5"/>
<text text-anchor="middle" x="524" y="-615.5" font-family="Helvetica,sans-Serif" font-size="10.00">luaL_typeerror</text>
</a>
</g>
</g>
<!-- Node10&#45;&gt;Node37 -->
<g id="edge29" class="edge"><title>Node10&#45;&gt;Node37</title>
<path fill="none" stroke="midnightblue" d="M625.477,-574.907C610.046,-582.297 590.595,-591.399 573,-599 565.595,-602.199 557.464,-605.497 550.033,-608.429"/>
<polygon fill="midnightblue" stroke="midnightblue" points="627.022,-578.048 634.513,-570.556 623.984,-571.741 627.022,-578.048"/>
</g>
<!-- Node138 -->
<g id="node33" class="node"><title>Node138</title>
<g id="a_node33"><a xlink:href="lstrlib_8c.html#a0f8612c62e1158d37a19d06453dcbc97" target="_top" xlink:title=" ">
<polygon fill="white" stroke="black" points="504.5,-294.5 504.5,-313.5 543.5,-313.5 543.5,-294.5 504.5,-294.5"/>
<text text-anchor="middle" x="524" y="-301.5" font-family="Helvetica,sans-Serif" font-size="10.00">trymt</text>
</a>
</g>
</g>
<!-- Node10&#45;&gt;Node138 -->
<g id="edge41" class="edge"><title>Node10&#45;&gt;Node138</title>
<path fill="none" stroke="midnightblue" d="M644.459,-541.992C618.811,-490.895 549.03,-351.873 529.904,-313.771"/>
<polygon fill="midnightblue" stroke="midnightblue" points="641.486,-543.872 649.101,-551.239 647.743,-540.732 641.486,-543.872"/>
</g>
<!-- Node14&#45;&gt;Node15 -->
<g id="edge15" class="edge"><title>Node14&#45;&gt;Node15</title>
<path fill="none" stroke="midnightblue" d="M475.261,-466C460.342,-466 444.137,-466 430.152,-466"/>
<polygon fill="midnightblue" stroke="midnightblue" points="475.341,-469.5 485.341,-466 475.341,-462.5 475.341,-469.5"/>
</g>
<!-- Node28 -->
<g id="node23" class="node"><title>Node28</title>
<g id="a_node23"><a xlink:href="lua_8c.html#aaf236b6f4e03469c893b4a32e9a02ab2" target="_top" xlink:title=" ">
<polygon fill="white" stroke="black" points="359.5,-361.5 359.5,-380.5 426.5,-380.5 426.5,-361.5 359.5,-361.5"/>
<text text-anchor="middle" x="393" y="-368.5" font-family="Helvetica,sans-Serif" font-size="10.00">msghandler</text>
</a>
</g>
</g>
<!-- Node14&#45;&gt;Node28 -->
<g id="edge24" class="edge"><title>Node14&#45;&gt;Node28</title>
<path fill="none" stroke="midnightblue" d="M501.294,-450.015C474.334,-430.161 429.198,-396.921 407.055,-380.614"/>
<polygon fill="midnightblue" stroke="midnightblue" points="499.553,-453.079 509.681,-456.191 503.704,-447.443 499.553,-453.079"/>
</g>
<!-- Node16 -->
<g id="node16" class="node"><title>Node16</title>
<g id="a_node16"><a xlink:href="lstrlib_8c.html#a2ff59847baa24a18f7d78d47dc1d3220" target="_top" xlink:title=" ">
<polygon fill="white" stroke="black" points="234,-380.5 234,-399.5 290,-399.5 290,-380.5 234,-380.5"/>
<text text-anchor="middle" x="262" y="-387.5" font-family="Helvetica,sans-Serif" font-size="10.00">addliteral</text>
</a>
</g>
</g>
<!-- Node15&#45;&gt;Node16 -->
<g id="edge16" class="edge"><title>Node15&#45;&gt;Node16</title>
<path fill="none" stroke="midnightblue" d="M369.279,-450.486C353.261,-439.78 331.156,-425.465 311,-414 302.092,-408.933 291.977,-403.789 283.337,-399.57"/>
<polygon fill="midnightblue" stroke="midnightblue" points="367.696,-453.64 377.946,-456.324 371.607,-447.834 367.696,-453.64"/>
</g>
<!-- Node17 -->
<g id="node17" class="node"><title>Node17</title>
<g id="a_node17"><a xlink:href="lstrlib_8c.html#ae26a9374857058119e59d0328208c2f2" target="_top" xlink:title=" ">
<polygon fill="white" stroke="black" points="98,-513.5 98,-532.5 158,-532.5 158,-513.5 98,-513.5"/>
<text text-anchor="middle" x="128" y="-520.5" font-family="Helvetica,sans-Serif" font-size="10.00">str_format</text>
</a>
</g>
</g>
<!-- Node15&#45;&gt;Node17 -->
<g id="edge23" class="edge"><title>Node15&#45;&gt;Node17</title>
<path fill="none" stroke="midnightblue" d="M357.533,-453.182C320.556,-441.495 260.714,-428.619 213,-447 177.948,-460.503 148.441,-496.163 135.717,-513.401"/>
<polygon fill="midnightblue" stroke="midnightblue" points="356.734,-456.604 367.327,-456.419 358.931,-449.957 356.734,-456.604"/>
</g>
<!-- Node18 -->
<g id="node18" class="node"><title>Node18</title>
<g id="a_node18"><a xlink:href="ldblib_8c.html#ad72cc206e90f6ebc343460376c950a14" target="_top" xlink:title=" ">
<polygon fill="white" stroke="black" points="232.5,-532.5 232.5,-551.5 291.5,-551.5 291.5,-532.5 232.5,-532.5"/>
<text text-anchor="middle" x="262" y="-539.5" font-family="Helvetica,sans-Serif" font-size="10.00">db_debug</text>
</a>
</g>
</g>
<!-- Node15&#45;&gt;Node18 -->
<g id="edge18" class="edge"><title>Node15&#45;&gt;Node18</title>
<path fill="none" stroke="midnightblue" d="M372.213,-481.929C356.32,-494.218 333.086,-511.075 311,-523 304.533,-526.491 297.284,-529.696 290.418,-532.438"/>
<polygon fill="midnightblue" stroke="midnightblue" points="374.528,-484.561 380.232,-475.633 370.205,-479.055 374.528,-484.561"/>
</g>
<!-- Node19 -->
<g id="node19" class="node"><title>Node19</title>
<g id="a_node19"><a xlink:href="lua_8c.html#af30330b1ce029ad490faaeab255cf52d" target="_top" xlink:title=" ">
<polygon fill="white" stroke="black" points="229.5,-342.5 229.5,-361.5 294.5,-361.5 294.5,-342.5 229.5,-342.5"/>
<text text-anchor="middle" x="262" y="-349.5" font-family="Helvetica,sans-Serif" font-size="10.00">get_prompt</text>
</a>
</g>
</g>
<!-- Node15&#45;&gt;Node19 -->
<g id="edge19" class="edge"><title>Node15&#45;&gt;Node19</title>
<path fill="none" stroke="midnightblue" d="M380.425,-447.638C366.317,-426.571 340.659,-392.212 311,-371 305.751,-367.246 299.658,-364.101 293.611,-361.519"/>
<polygon fill="midnightblue" stroke="midnightblue" points="377.671,-449.823 386.066,-456.287 383.534,-445.999 377.671,-449.823"/>
</g>
<!-- Node26 -->
<g id="node21" class="node"><title>Node26</title>
<g id="a_node21"><a xlink:href="lbaselib_8c.html#a865eb761a305c588d6940da5272375b7" target="_top" xlink:title=" ">
<polygon fill="white" stroke="black" points="232,-494.5 232,-513.5 292,-513.5 292,-494.5 232,-494.5"/>
<text text-anchor="middle" x="262" y="-501.5" font-family="Helvetica,sans-Serif" font-size="10.00">luaB_print</text>
</a>
</g>
</g>
<!-- Node15&#45;&gt;Node26 -->
<g id="edge21" class="edge"><title>Node15&#45;&gt;Node26</title>
<path fill="none" stroke="midnightblue" d="M349.598,-478.491C330.732,-484.048 308.996,-490.451 292.02,-495.451"/>
<polygon fill="midnightblue" stroke="midnightblue" points="350.844,-481.772 359.448,-475.589 348.866,-475.057 350.844,-481.772"/>
</g>
<!-- Node27 -->
<g id="node22" class="node"><title>Node27</title>
<g id="a_node22"><a xlink:href="lbaselib_8c.html#a15bd8ce3f719c87883bcb578c60677e7" target="_top" xlink:title=" ">
<polygon fill="white" stroke="black" points="225,-456.5 225,-475.5 299,-475.5 299,-456.5 225,-456.5"/>
<text text-anchor="middle" x="262" y="-463.5" font-family="Helvetica,sans-Serif" font-size="10.00">luaB_tostring</text>
</a>
</g>
</g>
<!-- Node15&#45;&gt;Node27 -->
<g id="edge22" class="edge"><title>Node15&#45;&gt;Node27</title>
<path fill="none" stroke="midnightblue" d="M345.419,-466C330.132,-466 313.386,-466 299.005,-466"/>
<polygon fill="midnightblue" stroke="midnightblue" points="345.723,-469.5 355.723,-466 345.723,-462.5 345.723,-469.5"/>
</g>
<!-- Node16&#45;&gt;Node17 -->
<g id="edge17" class="edge"><title>Node16&#45;&gt;Node17</title>
<path fill="none" stroke="midnightblue" d="M227.576,-404.237C222.45,-407.107 217.405,-410.372 213,-414 176.485,-444.072 146.205,-492.831 134.358,-513.381"/>
<polygon fill="midnightblue" stroke="midnightblue" points="229.479,-407.195 236.771,-399.508 226.278,-400.97 229.479,-407.195"/>
</g>
<!-- Node20 -->
<g id="node20" class="node"><title>Node20</title>
<g id="a_node20"><a xlink:href="lua_8c.html#a83a7cb21b34095ca93f2a2a863f58fda" target="_top" xlink:title=" ">
<polygon fill="white" stroke="red" points="101.5,-342.5 101.5,-361.5 154.5,-361.5 154.5,-342.5 101.5,-342.5"/>
<text text-anchor="middle" x="128" y="-349.5" font-family="Helvetica,sans-Serif" font-size="10.00">pushline</text>
</a>
</g>
</g>
<!-- Node19&#45;&gt;Node20 -->
<g id="edge20" class="edge"><title>Node19&#45;&gt;Node20</title>
<path fill="none" stroke="midnightblue" d="M219.323,-352C198.096,-352 172.967,-352 154.61,-352"/>
<polygon fill="midnightblue" stroke="midnightblue" points="219.383,-355.5 229.383,-352 219.383,-348.5 219.383,-355.5"/>
</g>
<!-- Node29 -->
<g id="node24" class="node"><title>Node29</title>
<g id="a_node24"><a xlink:href="lua_8c.html#a49e04420c2846b52e378ef6272bbf75b" target="_top" xlink:title=" ">
<polygon fill="white" stroke="red" points="241,-304.5 241,-323.5 283,-323.5 283,-304.5 241,-304.5"/>
<text text-anchor="middle" x="262" y="-311.5" font-family="Helvetica,sans-Serif" font-size="10.00">docall</text>
</a>
</g>
</g>
<!-- Node28&#45;&gt;Node29 -->
<g id="edge25" class="edge"><title>Node28&#45;&gt;Node29</title>
<path fill="none" stroke="midnightblue" d="M363.477,-357.093C348.046,-349.703 328.595,-340.601 311,-333 301.95,-329.09 291.815,-325.033 283.198,-321.676"/>
<polygon fill="midnightblue" stroke="midnightblue" points="361.984,-360.259 372.513,-361.444 365.022,-353.952 361.984,-360.259"/>
</g>
<!-- Node36 -->
<g id="node25" class="node"><title>Node36</title>
<g id="a_node25"><a xlink:href="lua_8c.html#a5a944babaacde1035f1aa8b4156cc06a" target="_top" xlink:title=" ">
<polygon fill="white" stroke="black" points="91,-171.5 91,-190.5 165,-190.5 165,-171.5 91,-171.5"/>
<text text-anchor="middle" x="128" y="-178.5" font-family="Helvetica,sans-Serif" font-size="10.00">handle_script</text>
</a>
</g>
</g>
<!-- Node29&#45;&gt;Node36 -->
<g id="edge26" class="edge"><title>Node29&#45;&gt;Node36</title>
<path fill="none" stroke="midnightblue" d="M230.885,-305.068C224.618,-302.414 218.312,-299.092 213,-295 174.047,-264.996 144.689,-212.293 133.708,-190.671"/>
<polygon fill="midnightblue" stroke="midnightblue" points="229.958,-308.459 240.55,-308.702 232.421,-301.907 229.958,-308.459"/>
</g>
<!-- Node23 -->
<g id="node26" class="node"><title>Node23</title>
<g id="a_node26"><a xlink:href="lua_8c.html#aa0f8bc082ef913cb0a4df437bf5f5019" target="_top" xlink:title=" ">
<polygon fill="white" stroke="red" points="0,-171.5 0,-190.5 43,-190.5 43,-171.5 0,-171.5"/>
<text text-anchor="middle" x="21.5" y="-178.5" font-family="Helvetica,sans-Serif" font-size="10.00">pmain</text>
</a>
</g>
</g>
<!-- Node36&#45;&gt;Node23 -->
<g id="edge27" class="edge"><title>Node36&#45;&gt;Node23</title>
<path fill="none" stroke="midnightblue" d="M80.4429,-181C67.391,-181 53.8595,-181 43.1585,-181"/>
<polygon fill="midnightblue" stroke="midnightblue" points="80.7443,-184.5 90.7442,-181 80.7442,-177.5 80.7443,-184.5"/>
</g>
<!-- Node38 -->
<g id="node28" class="node"><title>Node38</title>
<g id="a_node28"><a xlink:href="lauxlib_8c.html#ab8e946260debec8d4bbc714b76a1613b" target="_top" xlink:title=" ">
<polygon fill="white" stroke="black" points="365.5,-608.5 365.5,-627.5 420.5,-627.5 420.5,-608.5 365.5,-608.5"/>
<text text-anchor="middle" x="393" y="-615.5" font-family="Helvetica,sans-Serif" font-size="10.00">tag_error</text>
</a>
</g>
</g>
<!-- Node37&#45;&gt;Node38 -->
<g id="edge30" class="edge"><title>Node37&#45;&gt;Node38</title>
<path fill="none" stroke="midnightblue" d="M474.773,-618C456.474,-618 436.306,-618 420.7,-618"/>
<polygon fill="midnightblue" stroke="midnightblue" points="474.993,-621.5 484.993,-618 474.993,-614.5 474.993,-621.5"/>
</g>
<!-- Node39 -->
<g id="node29" class="node"><title>Node39</title>
<g id="a_node29"><a xlink:href="lauxlib_8c.html#ac900510f548ea0ea6d53358d2aedd100" target="_top" xlink:title=" ">
<polygon fill="white" stroke="red" points="238.5,-570.5 238.5,-589.5 285.5,-589.5 285.5,-570.5 238.5,-570.5"/>
<text text-anchor="middle" x="262" y="-577.5" font-family="Helvetica,sans-Serif" font-size="10.00">interror</text>
</a>
</g>
</g>
<!-- Node38&#45;&gt;Node39 -->
<g id="edge31" class="edge"><title>Node38&#45;&gt;Node39</title>
<path fill="none" stroke="midnightblue" d="M355.427,-607.226C333.037,-600.631 305.084,-592.397 285.814,-586.72"/>
<polygon fill="midnightblue" stroke="midnightblue" points="354.69,-610.658 365.271,-610.126 356.668,-603.943 354.69,-610.658"/>
</g>
<!-- Node96 -->
<g id="node30" class="node"><title>Node96</title>
<g id="a_node30"><a xlink:href="lauxlib_8h.html#aba7169b56524dab1c9f67f71b0417d86" target="_top" xlink:title=" ">
<polygon fill="white" stroke="red" points="216,-608.5 216,-627.5 308,-627.5 308,-608.5 216,-608.5"/>
<text text-anchor="middle" x="262" y="-615.5" font-family="Helvetica,sans-Serif" font-size="10.00">luaL_checklstring</text>
</a>
</g>
</g>
<!-- Node38&#45;&gt;Node96 -->
<g id="edge32" class="edge"><title>Node38&#45;&gt;Node96</title>
<path fill="none" stroke="midnightblue" d="M355.105,-618C340.501,-618 323.57,-618 308.238,-618"/>
<polygon fill="midnightblue" stroke="midnightblue" points="355.271,-621.5 365.271,-618 355.271,-614.5 355.271,-621.5"/>
</g>
<!-- Node110 -->
<g id="node31" class="node"><title>Node110</title>
<g id="a_node31"><a xlink:href="lauxlib_8h.html#ac0919af2e419b4b9e86d6ddb355cec65" target="_top" xlink:title=" ">
<polygon fill="white" stroke="red" points="213,-646.5 213,-665.5 311,-665.5 311,-646.5 213,-646.5"/>
<text text-anchor="middle" x="262" y="-653.5" font-family="Helvetica,sans-Serif" font-size="10.00">luaL_checknumber</text>
</a>
</g>
</g>
<!-- Node38&#45;&gt;Node110 -->
<g id="edge34" class="edge"><title>Node38&#45;&gt;Node110</title>
<path fill="none" stroke="midnightblue" d="M355.547,-628.738C336.706,-634.288 313.901,-641.006 295.643,-646.384"/>
<polygon fill="midnightblue" stroke="midnightblue" points="356.668,-632.057 365.271,-625.874 354.69,-625.342 356.668,-632.057"/>
</g>
<!-- Node128 -->
<g id="node32" class="node"><title>Node128</title>
<g id="a_node32"><a xlink:href="lauxlib_8h.html#ae9c9f80f66ca2ff9567e4db4d1d704e3" target="_top" xlink:title=" ">
<polygon fill="white" stroke="red" points="219.5,-722.5 219.5,-741.5 304.5,-741.5 304.5,-722.5 219.5,-722.5"/>
<text text-anchor="middle" x="262" y="-729.5" font-family="Helvetica,sans-Serif" font-size="10.00">luaL_checktype</text>
</a>
</g>
</g>
<!-- Node38&#45;&gt;Node128 -->
<g id="edge36" class="edge"><title>Node38&#45;&gt;Node128</title>
<path fill="none" stroke="midnightblue" d="M373.308,-634.519C345.995,-658.656 296.034,-702.807 273.971,-722.305"/>
<polygon fill="midnightblue" stroke="midnightblue" points="375.826,-636.964 381.002,-627.72 371.191,-631.719 375.826,-636.964"/>
</g>
<!-- Node96&#45;&gt;Node17 -->
<g id="edge33" class="edge"><title>Node96&#45;&gt;Node17</title>
<path fill="none" stroke="midnightblue" d="M222.578,-604.253C219.261,-602.632 216.022,-600.879 213,-599 181.934,-579.688 151.668,-548.319 137.439,-532.608"/>
<polygon fill="midnightblue" stroke="midnightblue" points="221.454,-607.584 232.012,-608.467 224.309,-601.192 221.454,-607.584"/>
</g>
<!-- Node110&#45;&gt;Node17 -->
<g id="edge35" class="edge"><title>Node110&#45;&gt;Node17</title>
<path fill="none" stroke="midnightblue" d="M220.364,-641.884C217.779,-640.394 215.297,-638.769 213,-637 174.047,-606.996 144.689,-554.293 133.708,-532.671"/>
<polygon fill="midnightblue" stroke="midnightblue" points="218.917,-645.074 229.424,-646.438 222.061,-638.819 218.917,-645.074"/>
</g>
<!-- Node128&#45;&gt;Node4 -->
<g id="edge37" class="edge"><title>Node128&#45;&gt;Node4</title>
<path fill="none" stroke="midnightblue" d="M247.087,-749.503C231.235,-768.877 204.014,-800.471 177,-824 166.934,-832.767 154.487,-841.267 144.79,-847.444"/>
<polygon fill="midnightblue" stroke="midnightblue" points="249.964,-751.511 253.529,-741.534 244.52,-747.11 249.964,-751.511"/>
</g>
<!-- Node128&#45;&gt;Node8 -->
<g id="edge38" class="edge"><title>Node128&#45;&gt;Node8</title>
<path fill="none" stroke="midnightblue" d="M234.724,-746.531C208.448,-761.063 168.794,-782.993 146.261,-795.454"/>
<polygon fill="midnightblue" stroke="midnightblue" points="236.686,-749.446 243.743,-741.543 233.299,-743.32 236.686,-749.446"/>
</g>
<!-- Node128&#45;&gt;Node9 -->
<g id="edge39" class="edge"><title>Node128&#45;&gt;Node9</title>
<path fill="none" stroke="midnightblue" d="M208.872,-734.764C193.602,-735.574 177.295,-736.439 163.423,-737.175"/>
<polygon fill="midnightblue" stroke="midnightblue" points="209.434,-738.24 219.234,-734.215 209.063,-731.249 209.434,-738.24"/>
</g>
<!-- Node128&#45;&gt;Node13 -->
<g id="edge40" class="edge"><title>Node128&#45;&gt;Node13</title>
<path fill="none" stroke="midnightblue" d="M215.01,-719.806C198.635,-715.464 180.445,-710.641 165.026,-706.552"/>
<polygon fill="midnightblue" stroke="midnightblue" points="214.367,-723.256 224.93,-722.436 216.161,-716.49 214.367,-723.256"/>
</g>
<!-- Node139 -->
<g id="node34" class="node"><title>Node139</title>
<g id="a_node34"><a xlink:href="lstrlib_8c.html#afa2c944dafe82820f6f04dff68703634" target="_top" xlink:title=" ">
<polygon fill="white" stroke="red" points="375.5,-190.5 375.5,-209.5 410.5,-209.5 410.5,-190.5 375.5,-190.5"/>
<text text-anchor="middle" x="393" y="-197.5" font-family="Helvetica,sans-Serif" font-size="10.00">arith</text>
</a>
</g>
</g>
<!-- Node138&#45;&gt;Node139 -->
<g id="edge42" class="edge"><title>Node138&#45;&gt;Node139</title>
<path fill="none" stroke="midnightblue" d="M503.052,-287.918C475.865,-266 428.029,-227.434 405.876,-209.574"/>
<polygon fill="midnightblue" stroke="midnightblue" points="501.113,-290.851 511.095,-294.402 505.507,-285.401 501.113,-290.851"/>
</g>
<!-- Node140 -->
<g id="node35" class="node"><title>Node140</title>
<g id="a_node35"><a xlink:href="lstrlib_8c.html#a83cdf2094cab994d34c18858a990e555" target="_top" xlink:title=" ">
<polygon fill="white" stroke="black" points="234,-190.5 234,-209.5 290,-209.5 290,-190.5 234,-190.5"/>
<text text-anchor="middle" x="262" y="-197.5" font-family="Helvetica,sans-Serif" font-size="10.00">arith_add</text>
</a>
</g>
</g>
<!-- Node139&#45;&gt;Node140 -->
<g id="edge43" class="edge"><title>Node139&#45;&gt;Node140</title>
<path fill="none" stroke="midnightblue" d="M365.142,-200C343.228,-200 312.396,-200 290.35,-200"/>
<polygon fill="midnightblue" stroke="midnightblue" points="365.4,-203.5 375.4,-200 365.4,-196.5 365.4,-203.5"/>
</g>
<!-- Node141 -->
<g id="node36" class="node"><title>Node141</title>
<g id="a_node36"><a xlink:href="lstrlib_8c.html#afd1d2f5e7f8c83185c68d20fc5dc8600" target="_top" xlink:title=" ">
<polygon fill="white" stroke="black" points="236,-152.5 236,-171.5 288,-171.5 288,-152.5 236,-152.5"/>
<text text-anchor="middle" x="262" y="-159.5" font-family="Helvetica,sans-Serif" font-size="10.00">arith_div</text>
</a>
</g>
</g>
<!-- Node139&#45;&gt;Node141 -->
<g id="edge44" class="edge"><title>Node139&#45;&gt;Node141</title>
<path fill="none" stroke="midnightblue" d="M365.781,-192.277C343.187,-185.621 310.774,-176.073 288.416,-169.487"/>
<polygon fill="midnightblue" stroke="midnightblue" points="364.818,-195.642 375.4,-195.11 366.796,-188.927 364.818,-195.642"/>
</g>
<!-- Node142 -->
<g id="node37" class="node"><title>Node142</title>
<g id="a_node37"><a xlink:href="lstrlib_8c.html#a86a1afce81f747da4c0cf708065acd92" target="_top" xlink:title=" ">
<polygon fill="white" stroke="black" points="235,-114.5 235,-133.5 289,-133.5 289,-114.5 235,-114.5"/>
<text text-anchor="middle" x="262" y="-121.5" font-family="Helvetica,sans-Serif" font-size="10.00">arith_idiv</text>
</a>
</g>
</g>
<!-- Node139&#45;&gt;Node142 -->
<g id="edge45" class="edge"><title>Node139&#45;&gt;Node142</title>
<path fill="none" stroke="midnightblue" d="M372.213,-184.071C356.32,-171.782 333.086,-154.925 311,-143 304.139,-139.296 296.397,-135.915 289.166,-133.065"/>
<polygon fill="midnightblue" stroke="midnightblue" points="370.205,-186.945 380.232,-190.367 374.528,-181.439 370.205,-186.945"/>
</g>
<!-- Node143 -->
<g id="node38" class="node"><title>Node143</title>
<g id="a_node38"><a xlink:href="lstrlib_8c.html#a2a1f4d692fc02d6586bc12a07924f488" target="_top" xlink:title=" ">
<polygon fill="white" stroke="black" points="232.5,-76.5 232.5,-95.5 291.5,-95.5 291.5,-76.5 232.5,-76.5"/>
<text text-anchor="middle" x="262" y="-83.5" font-family="Helvetica,sans-Serif" font-size="10.00">arith_mod</text>
</a>
</g>
</g>
<!-- Node139&#45;&gt;Node143 -->
<g id="edge46" class="edge"><title>Node139&#45;&gt;Node143</title>
<path fill="none" stroke="midnightblue" d="M370.361,-183.981C362.52,-177.618 353.904,-169.928 347,-162 327.324,-139.403 334.067,-124.123 311,-105 305.342,-100.31 298.384,-96.6745 291.539,-93.9"/>
<polygon fill="midnightblue" stroke="midnightblue" points="368.415,-186.903 378.445,-190.314 372.731,-181.392 368.415,-186.903"/>
</g>
<!-- Node144 -->
<g id="node39" class="node"><title>Node144</title>
<g id="a_node39"><a xlink:href="lstrlib_8c.html#a9162078e35bac5d03f26e9473a0ebf37" target="_top" xlink:title=" ">
<polygon fill="white" stroke="black" points="234,-266.5 234,-285.5 290,-285.5 290,-266.5 234,-266.5"/>
<text text-anchor="middle" x="262" y="-273.5" font-family="Helvetica,sans-Serif" font-size="10.00">arith_mul</text>
</a>
</g>
</g>
<!-- Node139&#45;&gt;Node144 -->
<g id="edge47" class="edge"><title>Node139&#45;&gt;Node144</title>
<path fill="none" stroke="midnightblue" d="M372.213,-215.929C356.32,-228.218 333.086,-245.075 311,-257 304.454,-260.534 297.107,-263.774 290.167,-266.538"/>
<polygon fill="midnightblue" stroke="midnightblue" points="374.528,-218.561 380.232,-209.633 370.205,-213.055 374.528,-218.561"/>
</g>
<!-- Node145 -->
<g id="node40" class="node"><title>Node145</title>
<g id="a_node40"><a xlink:href="lstrlib_8c.html#ad8c2b27458937cc9a19a949872938fc6" target="_top" xlink:title=" ">
<polygon fill="white" stroke="black" points="233,-228.5 233,-247.5 291,-247.5 291,-228.5 233,-228.5"/>
<text text-anchor="middle" x="262" y="-235.5" font-family="Helvetica,sans-Serif" font-size="10.00">arith_pow</text>
</a>
</g>
</g>
<!-- Node139&#45;&gt;Node145 -->
<g id="edge48" class="edge"><title>Node139&#45;&gt;Node145</title>
<path fill="none" stroke="midnightblue" d="M365.577,-207.783C343.96,-214.151 313.455,-223.137 291.335,-229.653"/>
<polygon fill="midnightblue" stroke="midnightblue" points="366.796,-211.073 375.4,-204.89 364.818,-204.358 366.796,-211.073"/>
</g>
<!-- Node149 -->
<g id="node42" class="node"><title>Node149</title>
<g id="a_node42"><a xlink:href="loadlib_8c.html#aeea4101591c7cab25273f4dfe7d811d6" target="_top" xlink:title=" ">
<polygon fill="white" stroke="black" points="626,-114.5 626,-133.5 684,-133.5 684,-114.5 626,-114.5"/>
<text text-anchor="middle" x="655" y="-121.5" font-family="Helvetica,sans-Serif" font-size="10.00">findloader</text>
</a>
</g>
</g>
<!-- Node148&#45;&gt;Node149 -->
<g id="edge50" class="edge"><title>Node148&#45;&gt;Node149</title>
<path fill="none" stroke="midnightblue" d="M728.341,-111.943C713.618,-114.397 697.42,-117.097 684.091,-119.318"/>
<polygon fill="midnightblue" stroke="midnightblue" points="728.956,-115.389 738.245,-110.293 727.805,-108.484 728.956,-115.389"/>
</g>
<!-- Node151 -->
<g id="node44" class="node"><title>Node151</title>
<g id="a_node44"><a xlink:href="loadlib_8c.html#a59926ced6bee14c7b952ef79d3520084" target="_top" xlink:title=" ">
<polygon fill="white" stroke="black" points="636,-76.5 636,-95.5 674,-95.5 674,-76.5 636,-76.5"/>
<text text-anchor="middle" x="655" y="-83.5" font-family="Helvetica,sans-Serif" font-size="10.00">gctm</text>
</a>
</g>
</g>
<!-- Node148&#45;&gt;Node151 -->
<g id="edge52" class="edge"><title>Node148&#45;&gt;Node151</title>
<path fill="none" stroke="midnightblue" d="M728.196,-98.0327C709.576,-94.9294 688.623,-91.4371 674.105,-89.0175"/>
<polygon fill="midnightblue" stroke="midnightblue" points="727.805,-101.516 738.245,-99.7074 728.956,-94.611 727.805,-101.516"/>
</g>
<!-- Node154 -->
<g id="node47" class="node"><title>Node154</title>
<g id="a_node47"><a xlink:href="lauxlib_8h.html#a2b69e67252d95df410818251f4b2d8e5" target="_top" xlink:title=" ">
<polygon fill="white" stroke="black" points="630,-38.5 630,-57.5 680,-57.5 680,-38.5 630,-38.5"/>
<text text-anchor="middle" x="655" y="-45.5" font-family="Helvetica,sans-Serif" font-size="10.00">luaL_ref</text>
</a>
</g>
</g>
<!-- Node148&#45;&gt;Node154 -->
<g id="edge55" class="edge"><title>Node148&#45;&gt;Node154</title>
<path fill="none" stroke="midnightblue" d="M744.043,-90.3394C728.157,-81.4393 709.332,-71.0399 701,-67 694.285,-63.7442 686.869,-60.4816 680.028,-57.6017"/>
<polygon fill="midnightblue" stroke="midnightblue" points="742.522,-93.4995 752.954,-95.347 745.951,-87.397 742.522,-93.4995"/>
</g>
<!-- Node155 -->
<g id="node48" class="node"><title>Node155</title>
<g id="a_node48"><a xlink:href="lauxlib_8h.html#a6200030ecae784852045161274501e0e" target="_top" xlink:title=" ">
<polygon fill="white" stroke="black" points="624.5,-0.5 624.5,-19.5 685.5,-19.5 685.5,-0.5 624.5,-0.5"/>
<text text-anchor="middle" x="655" y="-7.5" font-family="Helvetica,sans-Serif" font-size="10.00">luaL_unref</text>
</a>
</g>
</g>
<!-- Node148&#45;&gt;Node155 -->
<g id="edge56" class="edge"><title>Node148&#45;&gt;Node155</title>
<path fill="none" stroke="midnightblue" d="M741.085,-89.5331C739.652,-88.4063 738.279,-87.2275 737,-86 715.384,-65.2508 723.849,-48.3827 701,-29 696.473,-25.1599 691.057,-21.9993 685.577,-19.4336"/>
<polygon fill="midnightblue" stroke="midnightblue" points="739.48,-92.6739 749.719,-95.3958 743.412,-86.8827 739.48,-92.6739"/>
</g>
<!-- Node156 -->
<g id="node49" class="node"><title>Node156</title>
<g id="a_node49"><a xlink:href="lua_8c.html#a1e73bab660617a11ddcbb7d647980d40" target="_top" xlink:title=" ">
<polygon fill="white" stroke="black" points="365,-133.5 365,-152.5 421,-152.5 421,-133.5 365,-133.5"/>
<text text-anchor="middle" x="393" y="-140.5" font-family="Helvetica,sans-Serif" font-size="10.00">pushargs</text>
</a>
</g>
</g>
<!-- Node148&#45;&gt;Node156 -->
<g id="edge57" class="edge"><title>Node148&#45;&gt;Node156</title>
<path fill="none" stroke="midnightblue" d="M748.822,-120.337C735.742,-128.842 718.218,-138.572 701,-143 600.601,-168.818 475.547,-155.405 421.258,-147.47"/>
<polygon fill="midnightblue" stroke="midnightblue" points="750.791,-123.23 757.108,-114.724 746.866,-117.434 750.791,-123.23"/>
</g>
<!-- Node150 -->
<g id="node43" class="node"><title>Node150</title>
<g id="a_node43"><a xlink:href="loadlib_8c.html#a136874f5faa236dc52fb50109281e157" target="_top" xlink:title=" ">
<polygon fill="white" stroke="black" points="496,-114.5 496,-133.5 552,-133.5 552,-114.5 496,-114.5"/>
<text text-anchor="middle" x="524" y="-121.5" font-family="Helvetica,sans-Serif" font-size="10.00">ll_require</text>
</a>
</g>
</g>
<!-- Node149&#45;&gt;Node150 -->
<g id="edge51" class="edge"><title>Node149&#45;&gt;Node150</title>
<path fill="none" stroke="midnightblue" d="M615.495,-124C595.175,-124 570.721,-124 552.359,-124"/>
<polygon fill="midnightblue" stroke="midnightblue" points="615.69,-127.5 625.69,-124 615.69,-120.5 615.69,-127.5"/>
</g>
<!-- Node152 -->
<g id="node45" class="node"><title>Node152</title>
<g id="a_node45"><a xlink:href="loadlib_8c.html#a5988b4ef518a60291ed34e836f549b34" target="_top" xlink:title=" ">
<polygon fill="white" stroke="black" points="481.5,-76.5 481.5,-95.5 566.5,-95.5 566.5,-76.5 481.5,-76.5"/>
<text text-anchor="middle" x="524" y="-83.5" font-family="Helvetica,sans-Serif" font-size="10.00">createclibstable</text>
</a>
</g>
</g>
<!-- Node151&#45;&gt;Node152 -->
<g id="edge53" class="edge"><title>Node151&#45;&gt;Node152</title>
<path fill="none" stroke="midnightblue" d="M625.734,-86C608.387,-86 585.865,-86 566.517,-86"/>
<polygon fill="midnightblue" stroke="midnightblue" points="625.791,-89.5001 635.791,-86 625.791,-82.5001 625.791,-89.5001"/>
</g>
<!-- Node153 -->
<g id="node46" class="node"><title>Node153</title>
<g id="a_node46"><a xlink:href="lualib_8h.html#a05e0befc0439f926b6152129ab4f8dea" target="_top" xlink:title=" ">
<polygon fill="white" stroke="black" points="347,-76.5 347,-95.5 439,-95.5 439,-76.5 347,-76.5"/>
<text text-anchor="middle" x="393" y="-83.5" font-family="Helvetica,sans-Serif" font-size="10.00">luaopen_package</text>
</a>
</g>
</g>
<!-- Node152&#45;&gt;Node153 -->
<g id="edge54" class="edge"><title>Node152&#45;&gt;Node153</title>
<path fill="none" stroke="midnightblue" d="M471.394,-86C460.68,-86 449.471,-86 439.016,-86"/>
<polygon fill="midnightblue" stroke="midnightblue" points="471.474,-89.5001 481.474,-86 471.473,-82.5001 471.474,-89.5001"/>
</g>
<!-- Node156&#45;&gt;Node36 -->
<g id="edge58" class="edge"><title>Node156&#45;&gt;Node36</title>
<path fill="none" stroke="midnightblue" d="M372.068,-126.978C364.099,-120.365 354.945,-112.504 347,-105 330.087,-89.026 332.371,-76.1925 311,-67 270.989,-49.7899 251.874,-47.3565 213,-67 168.458,-89.5076 141.738,-148.003 132.583,-171.259"/>
<polygon fill="midnightblue" stroke="midnightblue" points="369.891,-129.718 379.844,-133.349 374.327,-124.304 369.891,-129.718"/>
</g>
</g>
</svg>
