<?xml version="1.0" encoding="UTF-8" standalone="no"?>
<!DOCTYPE svg PUBLIC "-//W3C//DTD SVG 1.1//EN"
 "http://www.w3.org/Graphics/SVG/1.1/DTD/svg11.dtd">
<!-- Generated by graphviz version 2.38.0 (20140413.2041)
 -->
<!-- Title: luaL_optnumber Pages: 1 -->
<svg width="1465pt" height="829pt"
 viewBox="0.00 0.00 1465.00 828.94" xmlns="http://www.w3.org/2000/svg" xmlns:xlink="http://www.w3.org/1999/xlink">
<g id="graph0" class="graph" transform="scale(1 1) rotate(0) translate(4 824.937)">
<title>luaL_optnumber</title>
<polygon fill="white" stroke="none" points="-4,4 -4,-824.937 1461,-824.937 1461,4 -4,4"/>
<!-- Node1 -->
<g id="node1" class="node"><title>Node1</title>
<g id="a_node1"><a xlink:title=" ">
<polygon fill="#bfbfbf" stroke="black" points="0,-689.5 0,-708.5 86,-708.5 86,-689.5 0,-689.5"/>
<text text-anchor="middle" x="43" y="-696.5" font-family="Helvetica,sans-Serif" font-size="10.00">luaL_optnumber</text>
</a>
</g>
</g>
<!-- Node2 -->
<g id="node2" class="node"><title>Node2</title>
<g id="a_node2"><a xlink:href="lauxlib_8c.html#a9f2c941bb5eb7d3a7746f35c4fe3cced" target="_top" xlink:title=" ">
<polygon fill="white" stroke="black" points="122,-689.5 122,-708.5 220,-708.5 220,-689.5 122,-689.5"/>
<text text-anchor="middle" x="171" y="-696.5" font-family="Helvetica,sans-Serif" font-size="10.00">luaL_checknumber</text>
</a>
</g>
</g>
<!-- Node1&#45;&gt;Node2 -->
<g id="edge1" class="edge"><title>Node1&#45;&gt;Node2</title>
<path fill="none" stroke="midnightblue" d="M86.3067,-699C94.5284,-699 103.279,-699 111.906,-699"/>
<polygon fill="midnightblue" stroke="midnightblue" points="111.938,-702.5 121.938,-699 111.938,-695.5 111.938,-702.5"/>
</g>
<!-- Node3 -->
<g id="node3" class="node"><title>Node3</title>
<g id="a_node3"><a xlink:href="lapi_8c.html#a375da41304604b0cba0b8c798499e673" target="_top" xlink:title=" ">
<polygon fill="white" stroke="black" points="461,-708.5 461,-727.5 541,-727.5 541,-708.5 461,-708.5"/>
<text text-anchor="middle" x="501" y="-715.5" font-family="Helvetica,sans-Serif" font-size="10.00">lua_tonumberx</text>
</a>
</g>
</g>
<!-- Node2&#45;&gt;Node3 -->
<g id="edge2" class="edge"><title>Node2&#45;&gt;Node3</title>
<path fill="none" stroke="midnightblue" d="M220.045,-701.783C281.737,-705.357 388.247,-711.527 450.591,-715.138"/>
<polygon fill="midnightblue" stroke="midnightblue" points="450.391,-718.632 460.577,-715.716 450.796,-711.644 450.391,-718.632"/>
</g>
<!-- Node5 -->
<g id="node5" class="node"><title>Node5</title>
<g id="a_node5"><a xlink:href="lauxlib_8c.html#ab8e946260debec8d4bbc714b76a1613b" target="_top" xlink:title=" ">
<polygon fill="white" stroke="black" points="256,-670.5 256,-689.5 311,-689.5 311,-670.5 256,-670.5"/>
<text text-anchor="middle" x="283.5" y="-677.5" font-family="Helvetica,sans-Serif" font-size="10.00">tag_error</text>
</a>
</g>
</g>
<!-- Node2&#45;&gt;Node5 -->
<g id="edge4" class="edge"><title>Node2&#45;&gt;Node5</title>
<path fill="none" stroke="midnightblue" d="M220.145,-690.722C228.733,-689.245 237.553,-687.728 245.758,-686.318"/>
<polygon fill="midnightblue" stroke="midnightblue" points="246.495,-689.742 255.758,-684.598 245.309,-682.844 246.495,-689.742"/>
</g>
<!-- Node4 -->
<g id="node4" class="node"><title>Node4</title>
<g id="a_node4"><a xlink:href="lapi_8c.html#a7c66797ff8396fc9258bb9fc08e959d8" target="_top" xlink:title=" ">
<polygon fill="white" stroke="black" points="976,-670.5 976,-689.5 1043,-689.5 1043,-670.5 976,-670.5"/>
<text text-anchor="middle" x="1009.5" y="-677.5" font-family="Helvetica,sans-Serif" font-size="10.00">index2value</text>
</a>
</g>
</g>
<!-- Node3&#45;&gt;Node4 -->
<g id="edge3" class="edge"><title>Node3&#45;&gt;Node4</title>
<path fill="none" stroke="midnightblue" d="M517.714,-727.548C575.698,-761.449 781.787,-870.07 927,-795 965.956,-774.861 990.31,-726.561 1001.42,-699.398"/>
<polygon fill="midnightblue" stroke="midnightblue" points="1004.78,-700.402 1005.14,-689.813 998.256,-697.866 1004.78,-700.402"/>
</g>
<!-- Node6 -->
<g id="node6" class="node"><title>Node6</title>
<g id="a_node6"><a xlink:href="lapi_8c.html#a7d64f87addab440bbda96bb088816e17" target="_top" xlink:title=" ">
<polygon fill="white" stroke="black" points="347.5,-670.5 347.5,-689.5 424.5,-689.5 424.5,-670.5 347.5,-670.5"/>
<text text-anchor="middle" x="386" y="-677.5" font-family="Helvetica,sans-Serif" font-size="10.00">lua_typename</text>
</a>
</g>
</g>
<!-- Node5&#45;&gt;Node6 -->
<g id="edge5" class="edge"><title>Node5&#45;&gt;Node6</title>
<path fill="none" stroke="midnightblue" d="M311.168,-680C319.196,-680 328.262,-680 337.223,-680"/>
<polygon fill="midnightblue" stroke="midnightblue" points="337.235,-683.5 347.235,-680 337.235,-676.5 337.235,-683.5"/>
</g>
<!-- Node7 -->
<g id="node7" class="node"><title>Node7</title>
<g id="a_node7"><a xlink:href="lauxlib_8c.html#ab8ddc4ac13516f3548a6c102dd6fa114" target="_top" xlink:title=" ">
<polygon fill="white" stroke="black" points="347,-632.5 347,-651.5 425,-651.5 425,-632.5 347,-632.5"/>
<text text-anchor="middle" x="386" y="-639.5" font-family="Helvetica,sans-Serif" font-size="10.00">luaL_typeerror</text>
</a>
</g>
</g>
<!-- Node5&#45;&gt;Node7 -->
<g id="edge6" class="edge"><title>Node5&#45;&gt;Node7</title>
<path fill="none" stroke="midnightblue" d="M309.86,-670.411C322.001,-665.821 336.734,-660.25 349.928,-655.261"/>
<polygon fill="midnightblue" stroke="midnightblue" points="351.532,-658.397 359.648,-651.586 349.056,-651.849 351.532,-658.397"/>
</g>
<!-- Node8 -->
<g id="node8" class="node"><title>Node8</title>
<g id="a_node8"><a xlink:href="lapi_8c.html#ab190c226d38b289e6ca57683a9d4e0f0" target="_top" xlink:title=" ">
<polygon fill="white" stroke="black" points="845,-167.5 845,-186.5 927,-186.5 927,-167.5 845,-167.5"/>
<text text-anchor="middle" x="886" y="-174.5" font-family="Helvetica,sans-Serif" font-size="10.00">lua_pushfstring</text>
</a>
</g>
</g>
<!-- Node7&#45;&gt;Node8 -->
<g id="edge7" class="edge"><title>Node7&#45;&gt;Node8</title>
<path fill="none" stroke="midnightblue" d="M387.64,-632.454C390.521,-594.865 404.723,-454.37 461,-357 497.172,-294.416 518.828,-285.909 577,-243 634.291,-200.741 648.974,-184.418 718,-167 756.411,-157.307 801.296,-160.781 834.854,-166.143"/>
<polygon fill="midnightblue" stroke="midnightblue" points="834.438,-169.623 844.885,-167.855 835.616,-162.723 834.438,-169.623"/>
</g>
<!-- Node451 -->
<g id="node21" class="node"><title>Node451</title>
<g id="a_node21"><a xlink:href="lapi_8c.html#a652b273947f0656686f998d8e90cd3ea" target="_top" xlink:title=" ">
<polygon fill="white" stroke="black" points="859.5,-594.5 859.5,-613.5 912.5,-613.5 912.5,-594.5 859.5,-594.5"/>
<text text-anchor="middle" x="886" y="-601.5" font-family="Helvetica,sans-Serif" font-size="10.00">lua_type</text>
</a>
</g>
</g>
<!-- Node7&#45;&gt;Node451 -->
<g id="edge26" class="edge"><title>Node7&#45;&gt;Node451</title>
<path fill="none" stroke="midnightblue" d="M425.069,-642.822C499.337,-643.866 668.58,-643.503 809,-623 822.38,-621.046 836.83,-617.744 849.501,-614.436"/>
<polygon fill="midnightblue" stroke="midnightblue" points="850.487,-617.795 859.228,-611.807 848.661,-611.038 850.487,-617.795"/>
</g>
<!-- Node452 -->
<g id="node22" class="node"><title>Node452</title>
<g id="a_node22"><a xlink:href="lauxlib_8c.html#ac607576dd107a3120cd51948989f1ed2" target="_top" xlink:title=" ">
<polygon fill="white" stroke="black" points="464.5,-366.5 464.5,-385.5 537.5,-385.5 537.5,-366.5 464.5,-366.5"/>
<text text-anchor="middle" x="501" y="-373.5" font-family="Helvetica,sans-Serif" font-size="10.00">luaL_argerror</text>
</a>
</g>
</g>
<!-- Node7&#45;&gt;Node452 -->
<g id="edge28" class="edge"><title>Node7&#45;&gt;Node452</title>
<path fill="none" stroke="midnightblue" d="M391.156,-632.217C407.77,-593.108 469.593,-447.578 491.905,-395.057"/>
<polygon fill="midnightblue" stroke="midnightblue" points="495.237,-396.163 495.926,-385.591 488.794,-393.426 495.237,-396.163"/>
</g>
<!-- Node480 -->
<g id="node45" class="node"><title>Node480</title>
<g id="a_node45"><a xlink:href="lauxlib_8c.html#add7cea31816ff3f61014031248e0daa6" target="_top" xlink:title=" ">
<polygon fill="white" stroke="black" points="583.5,-689.5 583.5,-708.5 675.5,-708.5 675.5,-689.5 583.5,-689.5"/>
<text text-anchor="middle" x="629.5" y="-696.5" font-family="Helvetica,sans-Serif" font-size="10.00">luaL_getmetafield</text>
</a>
</g>
</g>
<!-- Node7&#45;&gt;Node480 -->
<g id="edge62" class="edge"><title>Node7&#45;&gt;Node480</title>
<path fill="none" stroke="midnightblue" d="M425,-650.969C466.246,-660.704 532.313,-676.297 577.923,-687.063"/>
<polygon fill="midnightblue" stroke="midnightblue" points="577.364,-690.527 587.901,-689.418 578.972,-683.714 577.364,-690.527"/>
</g>
<!-- Node9 -->
<g id="node9" class="node"><title>Node9</title>
<g id="a_node9"><a xlink:href="lobject_8c.html#aa83fa444a36d79521e846a766fa083d5" target="_top" xlink:title=" ">
<polygon fill="white" stroke="black" points="963,-129.5 963,-148.5 1056,-148.5 1056,-129.5 963,-129.5"/>
<text text-anchor="middle" x="1009.5" y="-136.5" font-family="Helvetica,sans-Serif" font-size="10.00">luaO_pushvfstring</text>
</a>
</g>
</g>
<!-- Node8&#45;&gt;Node9 -->
<g id="edge8" class="edge"><title>Node8&#45;&gt;Node9</title>
<path fill="none" stroke="midnightblue" d="M917.66,-167.411C932.912,-162.641 951.551,-156.811 967.967,-151.677"/>
<polygon fill="midnightblue" stroke="midnightblue" points="969.351,-154.911 977.85,-148.586 967.261,-148.231 969.351,-154.911"/>
</g>
<!-- Node10 -->
<g id="node10" class="node"><title>Node10</title>
<g id="a_node10"><a xlink:href="lobject_8c.html#a1d02fb9304e4700ce1fd20e34ae68784" target="_top" xlink:title=" ">
<polygon fill="white" stroke="black" points="1094,-162.5 1094,-181.5 1165,-181.5 1165,-162.5 1094,-162.5"/>
<text text-anchor="middle" x="1129.5" y="-169.5" font-family="Helvetica,sans-Serif" font-size="10.00">addnum2buff</text>
</a>
</g>
</g>
<!-- Node9&#45;&gt;Node10 -->
<g id="edge9" class="edge"><title>Node9&#45;&gt;Node10</title>
<path fill="none" stroke="midnightblue" d="M1044.63,-148.545C1057.11,-152.034 1071.4,-156.03 1084.6,-159.724"/>
<polygon fill="midnightblue" stroke="midnightblue" points="1083.87,-163.154 1094.45,-162.476 1085.76,-156.412 1083.87,-163.154"/>
</g>
<!-- Node11 -->
<g id="node11" class="node"><title>Node11</title>
<g id="a_node11"><a xlink:href="lobject_8c.html#ac4ab924f2ea45ef73319f1159033eab1" target="_top" xlink:title=" ">
<polygon fill="white" stroke="black" points="1220.5,-48.5 1220.5,-67.5 1265.5,-67.5 1265.5,-48.5 1220.5,-48.5"/>
<text text-anchor="middle" x="1243" y="-55.5" font-family="Helvetica,sans-Serif" font-size="10.00">getbuff</text>
</a>
</g>
</g>
<!-- Node9&#45;&gt;Node11 -->
<g id="edge19" class="edge"><title>Node9&#45;&gt;Node11</title>
<path fill="none" stroke="midnightblue" d="M1021.15,-129.119C1035.87,-116.065 1063.83,-93.3983 1092,-82 1130.71,-66.3378 1178.91,-60.8687 1210.06,-58.9753"/>
<polygon fill="midnightblue" stroke="midnightblue" points="1210.52,-62.4564 1220.33,-58.4439 1210.16,-55.4658 1210.52,-62.4564"/>
</g>
<!-- Node12 -->
<g id="node12" class="node"><title>Node12</title>
<g id="a_node12"><a xlink:href="lobject_8c.html#a6ec2716e64cd75e3e6614a87ee92e4d2" target="_top" xlink:title=" ">
<polygon fill="white" stroke="black" points="1319,-29.5 1319,-48.5 1372,-48.5 1372,-29.5 1319,-29.5"/>
<text text-anchor="middle" x="1345.5" y="-36.5" font-family="Helvetica,sans-Serif" font-size="10.00">clearbuff</text>
</a>
</g>
</g>
<!-- Node9&#45;&gt;Node12 -->
<g id="edge18" class="edge"><title>Node9&#45;&gt;Node12</title>
<path fill="none" stroke="midnightblue" d="M1040.51,-129.459C1055.83,-124.769 1074.81,-119.231 1092,-115 1176.04,-94.3097 1202.46,-108.696 1283,-77 1297.38,-71.3424 1312.15,-62.3398 1323.61,-54.5171"/>
<polygon fill="midnightblue" stroke="midnightblue" points="1325.87,-57.2075 1332.02,-48.5829 1321.83,-51.4876 1325.87,-57.2075"/>
</g>
<!-- Node450 -->
<g id="node15" class="node"><title>Node450</title>
<g id="a_node15"><a xlink:href="lobject_8c.html#a874ab64f433ee35f2197a81e10452cb1" target="_top" xlink:title=" ">
<polygon fill="white" stroke="black" points="1097.5,-10.5 1097.5,-29.5 1161.5,-29.5 1161.5,-10.5 1097.5,-10.5"/>
<text text-anchor="middle" x="1129.5" y="-17.5" font-family="Helvetica,sans-Serif" font-size="10.00">addstr2buff</text>
</a>
</g>
</g>
<!-- Node9&#45;&gt;Node450 -->
<g id="edge14" class="edge"><title>Node9&#45;&gt;Node450</title>
<path fill="none" stroke="midnightblue" d="M1017.36,-129.325C1030.5,-111.22 1060.68,-71.5646 1092,-44 1095.49,-40.9296 1099.4,-37.9539 1103.33,-35.2035"/>
<polygon fill="midnightblue" stroke="midnightblue" points="1105.4,-38.0305 1111.81,-29.5931 1101.54,-32.1929 1105.4,-38.0305"/>
</g>
<!-- Node82 -->
<g id="node16" class="node"><title>Node82</title>
<g id="a_node16"><a xlink:href="ldebug_8c.html#a88d38ca5da2e7a1492fc9d5ad70c32c5" target="_top" xlink:title=" ">
<polygon fill="white" stroke="black" points="1092,-200.5 1092,-219.5 1167,-219.5 1167,-200.5 1092,-200.5"/>
<text text-anchor="middle" x="1129.5" y="-207.5" font-family="Helvetica,sans-Serif" font-size="10.00">luaG_runerror</text>
</a>
</g>
</g>
<!-- Node9&#45;&gt;Node82 -->
<g id="edge20" class="edge"><title>Node9&#45;&gt;Node82</title>
<path fill="none" stroke="midnightblue" d="M1036.57,-148.636C1052.39,-157.845 1073.11,-171.084 1092,-182 1099.14,-186.128 1107.27,-190.399 1114.04,-194.67"/>
<polygon fill="midnightblue" stroke="midnightblue" points="1112.03,-197.536 1122.21,-200.48 1116.09,-191.832 1112.03,-197.536"/>
</g>
<!-- Node263 -->
<g id="node20" class="node"><title>Node263</title>
<g id="a_node20"><a xlink:href="lobject_8c.html#af3136de4693789b08f78aafda9604676" target="_top" xlink:title=" ">
<polygon fill="white" stroke="black" points="1092.5,-124.5 1092.5,-143.5 1166.5,-143.5 1166.5,-124.5 1092.5,-124.5"/>
<text text-anchor="middle" x="1129.5" y="-131.5" font-family="Helvetica,sans-Serif" font-size="10.00">luaO_utf8esc</text>
</a>
</g>
</g>
<!-- Node9&#45;&gt;Node263 -->
<g id="edge25" class="edge"><title>Node9&#45;&gt;Node263</title>
<path fill="none" stroke="midnightblue" d="M1056.12,-137.067C1064.61,-136.707 1073.48,-136.331 1081.99,-135.971"/>
<polygon fill="midnightblue" stroke="midnightblue" points="1082.3,-139.461 1092.14,-135.541 1082,-132.467 1082.3,-139.461"/>
</g>
<!-- Node10&#45;&gt;Node11 -->
<g id="edge10" class="edge"><title>Node10&#45;&gt;Node11</title>
<path fill="none" stroke="midnightblue" d="M1152.67,-162.369C1157.64,-159.704 1162.71,-156.552 1167,-153 1193.97,-130.681 1217.61,-97.1734 1230.82,-76.495"/>
<polygon fill="midnightblue" stroke="midnightblue" points="1233.96,-78.0683 1236.29,-67.7312 1228.02,-74.3638 1233.96,-78.0683"/>
</g>
<!-- Node449 -->
<g id="node14" class="node"><title>Node449</title>
<g id="a_node14"><a xlink:href="lobject_8c.html#a8a7886b6335aca97db23dfe3e220c728" target="_top" xlink:title=" ">
<polygon fill="white" stroke="black" points="1211,-162.5 1211,-181.5 1275,-181.5 1275,-162.5 1211,-162.5"/>
<text text-anchor="middle" x="1243" y="-169.5" font-family="Helvetica,sans-Serif" font-size="10.00">tostringbuff</text>
</a>
</g>
</g>
<!-- Node10&#45;&gt;Node449 -->
<g id="edge13" class="edge"><title>Node10&#45;&gt;Node449</title>
<path fill="none" stroke="midnightblue" d="M1165.17,-172C1176.33,-172 1188.81,-172 1200.41,-172"/>
<polygon fill="midnightblue" stroke="midnightblue" points="1200.76,-175.5 1210.76,-172 1200.76,-168.5 1200.76,-175.5"/>
</g>
<!-- Node11&#45;&gt;Node12 -->
<g id="edge11" class="edge"><title>Node11&#45;&gt;Node12</title>
<path fill="none" stroke="midnightblue" d="M1265.81,-53.8773C1278.35,-51.506 1294.42,-48.4683 1308.76,-45.7567"/>
<polygon fill="midnightblue" stroke="midnightblue" points="1309.65,-49.1509 1318.82,-43.8541 1308.35,-42.2727 1309.65,-49.1509"/>
</g>
<!-- Node13 -->
<g id="node13" class="node"><title>Node13</title>
<g id="a_node13"><a xlink:href="lobject_8c.html#a90720e7e38c0e352e9b97d3f8def9e1a" target="_top" xlink:title=" ">
<polygon fill="white" stroke="red" points="1408,-0.5 1408,-19.5 1457,-19.5 1457,-0.5 1408,-0.5"/>
<text text-anchor="middle" x="1432.5" y="-7.5" font-family="Helvetica,sans-Serif" font-size="10.00">pushstr</text>
</a>
</g>
</g>
<!-- Node12&#45;&gt;Node13 -->
<g id="edge12" class="edge"><title>Node12&#45;&gt;Node13</title>
<path fill="none" stroke="midnightblue" d="M1372,-30.299C1380.25,-27.4868 1389.51,-24.3261 1398.23,-21.3511"/>
<polygon fill="midnightblue" stroke="midnightblue" points="1399.43,-24.6414 1407.76,-18.0998 1397.16,-18.0164 1399.43,-24.6414"/>
</g>
<!-- Node450&#45;&gt;Node11 -->
<g id="edge16" class="edge"><title>Node450&#45;&gt;Node11</title>
<path fill="none" stroke="midnightblue" d="M1158.64,-29.589C1174.45,-34.9785 1194.23,-41.7196 1210.55,-47.2827"/>
<polygon fill="midnightblue" stroke="midnightblue" points="1209.61,-50.6587 1220.2,-50.5717 1211.87,-44.0329 1209.61,-50.6587"/>
</g>
<!-- Node450&#45;&gt;Node12 -->
<g id="edge15" class="edge"><title>Node450&#45;&gt;Node12</title>
<path fill="none" stroke="midnightblue" d="M1161.62,-22.7628C1200.65,-26.2281 1267.43,-32.1574 1308.59,-35.8115"/>
<polygon fill="midnightblue" stroke="midnightblue" points="1308.45,-39.3128 1318.72,-36.711 1309.07,-32.3402 1308.45,-39.3128"/>
</g>
<!-- Node450&#45;&gt;Node13 -->
<g id="edge17" class="edge"><title>Node450&#45;&gt;Node13</title>
<path fill="none" stroke="midnightblue" d="M1161.58,-18.9675C1218.42,-17.079 1338.7,-13.0829 1397.59,-11.1267"/>
<polygon fill="midnightblue" stroke="midnightblue" points="1397.96,-14.6163 1407.84,-10.7861 1397.73,-7.62018 1397.96,-14.6163"/>
</g>
<!-- Node82&#45;&gt;Node9 -->
<g id="edge24" class="edge"><title>Node82&#45;&gt;Node9</title>
<path fill="none" stroke="midnightblue" d="M1092.75,-200.429C1092.5,-200.286 1092.25,-200.143 1092,-200 1068.21,-186.255 1041.52,-168.828 1025.37,-155.694"/>
<polygon fill="midnightblue" stroke="midnightblue" points="1027.4,-152.822 1017.56,-148.89 1022.8,-158.099 1027.4,-152.822"/>
</g>
<!-- Node83 -->
<g id="node17" class="node"><title>Node83</title>
<g id="a_node17"><a xlink:href="ldebug_8c.html#ad6bc24d619df8e849e2ae8b00455d86f" target="_top" xlink:title=" ">
<polygon fill="white" stroke="red" points="1205.5,-295.5 1205.5,-314.5 1280.5,-314.5 1280.5,-295.5 1205.5,-295.5"/>
<text text-anchor="middle" x="1243" y="-302.5" font-family="Helvetica,sans-Serif" font-size="10.00">getcurrentline</text>
</a>
</g>
</g>
<!-- Node82&#45;&gt;Node83 -->
<g id="edge21" class="edge"><title>Node82&#45;&gt;Node83</title>
<path fill="none" stroke="midnightblue" d="M1142.01,-219.809C1161.14,-236.106 1199.66,-268.926 1222.91,-288.732"/>
<polygon fill="midnightblue" stroke="midnightblue" points="1220.83,-291.565 1230.72,-295.386 1225.37,-286.236 1220.83,-291.565"/>
</g>
<!-- Node86 -->
<g id="node18" class="node"><title>Node86</title>
<g id="a_node18"><a xlink:href="ldebug_8c.html#a7e1dc7518150bf19bd9aa5dda166a2eb" target="_top" xlink:title=" ">
<polygon fill="white" stroke="red" points="1206.5,-200.5 1206.5,-219.5 1279.5,-219.5 1279.5,-200.5 1206.5,-200.5"/>
<text text-anchor="middle" x="1243" y="-207.5" font-family="Helvetica,sans-Serif" font-size="10.00">luaG_addinfo</text>
</a>
</g>
</g>
<!-- Node82&#45;&gt;Node86 -->
<g id="edge22" class="edge"><title>Node82&#45;&gt;Node86</title>
<path fill="none" stroke="midnightblue" d="M1167.01,-210C1176.24,-210 1186.28,-210 1195.92,-210"/>
<polygon fill="midnightblue" stroke="midnightblue" points="1196.17,-213.5 1206.17,-210 1196.17,-206.5 1196.17,-213.5"/>
</g>
<!-- Node89 -->
<g id="node19" class="node"><title>Node89</title>
<g id="a_node19"><a xlink:href="ldebug_8c.html#af7366920f8408bb33ed01b1d6c0e1238" target="_top" xlink:title=" ">
<polygon fill="white" stroke="red" points="1203,-238.5 1203,-257.5 1283,-257.5 1283,-238.5 1203,-238.5"/>
<text text-anchor="middle" x="1243" y="-245.5" font-family="Helvetica,sans-Serif" font-size="10.00">luaG_errormsg</text>
</a>
</g>
</g>
<!-- Node82&#45;&gt;Node89 -->
<g id="edge23" class="edge"><title>Node82&#45;&gt;Node89</title>
<path fill="none" stroke="midnightblue" d="M1158.64,-219.589C1172.5,-224.314 1189.42,-230.079 1204.38,-235.177"/>
<polygon fill="midnightblue" stroke="midnightblue" points="1203.28,-238.501 1213.87,-238.414 1205.54,-231.875 1203.28,-238.501"/>
</g>
<!-- Node451&#45;&gt;Node4 -->
<g id="edge27" class="edge"><title>Node451&#45;&gt;Node4</title>
<path fill="none" stroke="midnightblue" d="M908.93,-613.61C914.896,-616.44 921.285,-619.675 927,-623 948.66,-635.6 971.953,-652.232 988.068,-664.276"/>
<polygon fill="midnightblue" stroke="midnightblue" points="986.137,-667.204 996.226,-670.44 990.357,-661.619 986.137,-667.204"/>
</g>
<!-- Node453 -->
<g id="node23" class="node"><title>Node453</title>
<g id="a_node23"><a xlink:href="ldebug_8c.html#acaafc35d8e385c4d167229486165df6d" target="_top" xlink:title=" ">
<polygon fill="white" stroke="black" points="854.5,-366.5 854.5,-385.5 917.5,-385.5 917.5,-366.5 854.5,-366.5"/>
<text text-anchor="middle" x="886" y="-373.5" font-family="Helvetica,sans-Serif" font-size="10.00">lua_getinfo</text>
</a>
</g>
</g>
<!-- Node452&#45;&gt;Node453 -->
<g id="edge29" class="edge"><title>Node452&#45;&gt;Node453</title>
<path fill="none" stroke="midnightblue" d="M537.688,-376C609.075,-376 769.054,-376 844.35,-376"/>
<polygon fill="midnightblue" stroke="midnightblue" points="844.394,-379.5 854.394,-376 844.394,-372.5 844.394,-379.5"/>
</g>
<!-- Node460 -->
<g id="node31" class="node"><title>Node460</title>
<g id="a_node31"><a xlink:href="ldebug_8c.html#ac1fc03c27ee46caa4037df2d70f22110" target="_top" xlink:title=" ">
<polygon fill="white" stroke="black" points="850,-271.5 850,-290.5 922,-290.5 922,-271.5 850,-271.5"/>
<text text-anchor="middle" x="886" y="-278.5" font-family="Helvetica,sans-Serif" font-size="10.00">lua_getstack</text>
</a>
</g>
</g>
<!-- Node452&#45;&gt;Node460 -->
<g id="edge38" class="edge"><title>Node452&#45;&gt;Node460</title>
<path fill="none" stroke="midnightblue" d="M537.688,-367.148C607.711,-349.779 762.97,-311.268 839.94,-292.177"/>
<polygon fill="midnightblue" stroke="midnightblue" points="840.956,-295.531 849.819,-289.726 839.27,-288.737 840.956,-295.531"/>
</g>
<!-- Node461 -->
<g id="node32" class="node"><title>Node461</title>
<g id="a_node32"><a xlink:href="lauxlib_8c.html#a6c51d83d29244779392551388913e08a" target="_top" xlink:title=" ">
<polygon fill="white" stroke="black" points="600,-252.5 600,-271.5 659,-271.5 659,-252.5 600,-252.5"/>
<text text-anchor="middle" x="629.5" y="-259.5" font-family="Helvetica,sans-Serif" font-size="10.00">luaL_error</text>
</a>
</g>
</g>
<!-- Node452&#45;&gt;Node461 -->
<g id="edge39" class="edge"><title>Node452&#45;&gt;Node461</title>
<path fill="none" stroke="midnightblue" d="M507.917,-366.404C519.341,-348.536 546.056,-309.822 577,-286 581.857,-282.261 587.391,-278.923 592.986,-276.012"/>
<polygon fill="midnightblue" stroke="midnightblue" points="594.849,-279 602.353,-271.519 591.822,-272.688 594.849,-279"/>
</g>
<!-- Node466 -->
<g id="node37" class="node"><title>Node466</title>
<g id="a_node37"><a xlink:href="lauxlib_8c.html#a4f35430f7ecfcbd5f507e550937046b4" target="_top" xlink:title=" ">
<polygon fill="white" stroke="black" points="577,-499.5 577,-518.5 682,-518.5 682,-499.5 577,-499.5"/>
<text text-anchor="middle" x="629.5" y="-506.5" font-family="Helvetica,sans-Serif" font-size="10.00">pushglobalfuncname</text>
</a>
</g>
</g>
<!-- Node452&#45;&gt;Node466 -->
<g id="edge49" class="edge"><title>Node452&#45;&gt;Node466</title>
<path fill="none" stroke="midnightblue" d="M511.098,-385.565C532.238,-407.791 584.927,-463.188 611.947,-491.597"/>
<polygon fill="midnightblue" stroke="midnightblue" points="609.716,-494.329 619.144,-499.163 614.788,-489.505 609.716,-494.329"/>
</g>
<!-- Node454 -->
<g id="node24" class="node"><title>Node454</title>
<g id="a_node24"><a xlink:href="ldebug_8c.html#ad72fa774194e83872bac4e5bf6ec1160" target="_top" xlink:title=" ">
<polygon fill="white" stroke="black" points="979,-347.5 979,-366.5 1040,-366.5 1040,-347.5 979,-347.5"/>
<text text-anchor="middle" x="1009.5" y="-354.5" font-family="Helvetica,sans-Serif" font-size="10.00">auxgetinfo</text>
</a>
</g>
</g>
<!-- Node453&#45;&gt;Node454 -->
<g id="edge30" class="edge"><title>Node453&#45;&gt;Node454</title>
<path fill="none" stroke="midnightblue" d="M917.66,-371.205C933.145,-368.784 952.121,-365.816 968.717,-363.221"/>
<polygon fill="midnightblue" stroke="midnightblue" points="969.351,-366.665 978.69,-361.662 968.27,-359.749 969.351,-366.665"/>
</g>
<!-- Node458 -->
<g id="node27" class="node"><title>Node458</title>
<g id="a_node27"><a xlink:href="ldebug_8c.html#a6e3195fc94af1f75142c2801ca8cf058" target="_top" xlink:title=" ">
<polygon fill="white" stroke="black" points="967.5,-409.5 967.5,-428.5 1051.5,-428.5 1051.5,-409.5 967.5,-409.5"/>
<text text-anchor="middle" x="1009.5" y="-416.5" font-family="Helvetica,sans-Serif" font-size="10.00">collectvalidlines</text>
</a>
</g>
</g>
<!-- Node453&#45;&gt;Node458 -->
<g id="edge34" class="edge"><title>Node453&#45;&gt;Node458</title>
<path fill="none" stroke="midnightblue" d="M913.965,-385.543C931.032,-391.583 953.316,-399.47 971.961,-406.069"/>
<polygon fill="midnightblue" stroke="midnightblue" points="971.016,-409.447 981.611,-409.484 973.351,-402.848 971.016,-409.447"/>
</g>
<!-- Node454&#45;&gt;Node83 -->
<g id="edge32" class="edge"><title>Node454&#45;&gt;Node83</title>
<path fill="none" stroke="midnightblue" d="M1040.29,-350.308C1079.66,-341.466 1149.41,-325.799 1195.68,-315.405"/>
<polygon fill="midnightblue" stroke="midnightblue" points="1196.47,-318.813 1205.46,-313.207 1194.94,-311.984 1196.47,-318.813"/>
</g>
<!-- Node455 -->
<g id="node25" class="node"><title>Node455</title>
<g id="a_node25"><a xlink:href="ldebug_8c.html#a84af60873d130ffee87eb1721f3231e4" target="_top" xlink:title=" ">
<polygon fill="white" stroke="red" points="1104.5,-276.5 1104.5,-295.5 1154.5,-295.5 1154.5,-276.5 1104.5,-276.5"/>
<text text-anchor="middle" x="1129.5" y="-283.5" font-family="Helvetica,sans-Serif" font-size="10.00">funcinfo</text>
</a>
</g>
</g>
<!-- Node454&#45;&gt;Node455 -->
<g id="edge31" class="edge"><title>Node454&#45;&gt;Node455</title>
<path fill="none" stroke="midnightblue" d="M1026.41,-347.425C1046.3,-335.462 1080.53,-314.863 1103.82,-300.848"/>
<polygon fill="midnightblue" stroke="midnightblue" points="1105.7,-303.805 1112.46,-295.65 1102.09,-297.807 1105.7,-303.805"/>
</g>
<!-- Node456 -->
<g id="node26" class="node"><title>Node456</title>
<g id="a_node26"><a xlink:href="ldebug_8c.html#a118ab79b6b538a857353e4b9259667e1" target="_top" xlink:title=" ">
<polygon fill="white" stroke="red" points="1093.5,-352.5 1093.5,-371.5 1165.5,-371.5 1165.5,-352.5 1093.5,-352.5"/>
<text text-anchor="middle" x="1129.5" y="-359.5" font-family="Helvetica,sans-Serif" font-size="10.00">getfuncname</text>
</a>
</g>
</g>
<!-- Node454&#45;&gt;Node456 -->
<g id="edge33" class="edge"><title>Node454&#45;&gt;Node456</title>
<path fill="none" stroke="midnightblue" d="M1040.28,-358.262C1053.24,-358.811 1068.73,-359.467 1083.08,-360.075"/>
<polygon fill="midnightblue" stroke="midnightblue" points="1083.14,-363.581 1093.28,-360.507 1083.43,-356.587 1083.14,-363.581"/>
</g>
<!-- Node394 -->
<g id="node28" class="node"><title>Node394</title>
<g id="a_node28"><a xlink:href="ltable_8c.html#a6c97fb2d6a020b0a6f852562fef93d97" target="_top" xlink:title=" ">
<polygon fill="white" stroke="red" points="1100,-466.5 1100,-485.5 1159,-485.5 1159,-466.5 1100,-466.5"/>
<text text-anchor="middle" x="1129.5" y="-473.5" font-family="Helvetica,sans-Serif" font-size="10.00">luaH_new</text>
</a>
</g>
</g>
<!-- Node458&#45;&gt;Node394 -->
<g id="edge35" class="edge"><title>Node458&#45;&gt;Node394</title>
<path fill="none" stroke="midnightblue" d="M1030.25,-428.541C1049.22,-437.706 1078.11,-451.659 1099.66,-462.068"/>
<polygon fill="midnightblue" stroke="midnightblue" points="1098.16,-465.23 1108.69,-466.428 1101.2,-458.927 1098.16,-465.23"/>
</g>
<!-- Node165 -->
<g id="node29" class="node"><title>Node165</title>
<g id="a_node29"><a xlink:href="ltable_8c.html#a9eefa8191c63f55cffb6b7b58217467c" target="_top" xlink:title=" ">
<polygon fill="white" stroke="red" points="1097,-428.5 1097,-447.5 1162,-447.5 1162,-428.5 1097,-428.5"/>
<text text-anchor="middle" x="1129.5" y="-435.5" font-family="Helvetica,sans-Serif" font-size="10.00">luaH_setint</text>
</a>
</g>
</g>
<!-- Node458&#45;&gt;Node165 -->
<g id="edge36" class="edge"><title>Node458&#45;&gt;Node165</title>
<path fill="none" stroke="midnightblue" d="M1051.77,-425.645C1063.07,-427.464 1075.32,-429.437 1086.65,-431.261"/>
<polygon fill="midnightblue" stroke="midnightblue" points="1086.31,-434.751 1096.74,-432.886 1087.42,-427.84 1086.31,-434.751"/>
</g>
<!-- Node459 -->
<g id="node30" class="node"><title>Node459</title>
<g id="a_node30"><a xlink:href="ldebug_8c.html#a34dcc3fce752d518b34773a35b3763ad" target="_top" xlink:title=" ">
<polygon fill="white" stroke="red" points="1104.5,-390.5 1104.5,-409.5 1154.5,-409.5 1154.5,-390.5 1104.5,-390.5"/>
<text text-anchor="middle" x="1129.5" y="-397.5" font-family="Helvetica,sans-Serif" font-size="10.00">nextline</text>
</a>
</g>
</g>
<!-- Node458&#45;&gt;Node459 -->
<g id="edge37" class="edge"><title>Node458&#45;&gt;Node459</title>
<path fill="none" stroke="midnightblue" d="M1051.77,-412.355C1065.62,-410.126 1080.9,-407.665 1094.15,-405.531"/>
<polygon fill="midnightblue" stroke="midnightblue" points="1094.97,-408.945 1104.28,-403.899 1093.85,-402.034 1094.97,-408.945"/>
</g>
<!-- Node462 -->
<g id="node33" class="node"><title>Node462</title>
<g id="a_node33"><a xlink:href="lapi_8c.html#a1de3afee1daece63d455f23818c883d9" target="_top" xlink:title=" ">
<polygon fill="white" stroke="red" points="854,-499.5 854,-518.5 918,-518.5 918,-499.5 854,-499.5"/>
<text text-anchor="middle" x="886" y="-506.5" font-family="Helvetica,sans-Serif" font-size="10.00">lua_concat</text>
</a>
</g>
</g>
<!-- Node461&#45;&gt;Node462 -->
<g id="edge40" class="edge"><title>Node461&#45;&gt;Node462</title>
<path fill="none" stroke="midnightblue" d="M638.971,-271.695C666.845,-303.35 758.86,-405.901 845,-480 850.292,-484.552 856.261,-489.14 861.942,-493.282"/>
<polygon fill="midnightblue" stroke="midnightblue" points="860.314,-496.418 870.494,-499.353 864.366,-490.71 860.314,-496.418"/>
</g>
<!-- Node463 -->
<g id="node34" class="node"><title>Node463</title>
<g id="a_node34"><a xlink:href="lapi_8c.html#a6ba7b91143fe8a03910420d800de8e97" target="_top" xlink:title=" ">
<polygon fill="white" stroke="black" points="982.5,-228.5 982.5,-247.5 1036.5,-247.5 1036.5,-228.5 982.5,-228.5"/>
<text text-anchor="middle" x="1009.5" y="-235.5" font-family="Helvetica,sans-Serif" font-size="10.00">lua_error</text>
</a>
</g>
</g>
<!-- Node461&#45;&gt;Node463 -->
<g id="edge41" class="edge"><title>Node461&#45;&gt;Node463</title>
<path fill="none" stroke="midnightblue" d="M659.03,-254.318C676.018,-250.118 698.081,-245.311 718,-243 808.894,-232.453 916.841,-234.343 972.032,-236.34"/>
<polygon fill="midnightblue" stroke="midnightblue" points="972.219,-239.849 982.346,-236.737 972.488,-232.855 972.219,-239.849"/>
</g>
<!-- Node464 -->
<g id="node35" class="node"><title>Node464</title>
<g id="a_node35"><a xlink:href="lapi_8c.html#a426c9cb1d582be3e43060c4772854e5a" target="_top" xlink:title=" ">
<polygon fill="white" stroke="black" points="720.5,-176.5 720.5,-195.5 806.5,-195.5 806.5,-176.5 720.5,-176.5"/>
<text text-anchor="middle" x="763.5" y="-183.5" font-family="Helvetica,sans-Serif" font-size="10.00">lua_pushvfstring</text>
</a>
</g>
</g>
<!-- Node461&#45;&gt;Node464 -->
<g id="edge43" class="edge"><title>Node461&#45;&gt;Node464</title>
<path fill="none" stroke="midnightblue" d="M646.192,-252.407C663.615,-241.819 692.631,-224.371 718,-210 723.48,-206.896 729.384,-203.646 735.043,-200.577"/>
<polygon fill="midnightblue" stroke="midnightblue" points="737.072,-203.46 744.219,-195.639 733.755,-197.296 737.072,-203.46"/>
</g>
<!-- Node465 -->
<g id="node36" class="node"><title>Node465</title>
<g id="a_node36"><a xlink:href="lauxlib_8c.html#a0f4d3c30c07eae36aa25605df84279a0" target="_top" xlink:title=" ">
<polygon fill="white" stroke="black" points="731,-252.5 731,-271.5 796,-271.5 796,-252.5 731,-252.5"/>
<text text-anchor="middle" x="763.5" y="-259.5" font-family="Helvetica,sans-Serif" font-size="10.00">luaL_where</text>
</a>
</g>
</g>
<!-- Node461&#45;&gt;Node465 -->
<g id="edge45" class="edge"><title>Node461&#45;&gt;Node465</title>
<path fill="none" stroke="midnightblue" d="M659.142,-262C677.092,-262 700.54,-262 720.564,-262"/>
<polygon fill="midnightblue" stroke="midnightblue" points="720.675,-265.5 730.675,-262 720.675,-258.5 720.675,-265.5"/>
</g>
<!-- Node463&#45;&gt;Node89 -->
<g id="edge42" class="edge"><title>Node463&#45;&gt;Node89</title>
<path fill="none" stroke="midnightblue" d="M1036.61,-239.128C1074.39,-240.76 1145.02,-243.811 1192.78,-245.874"/>
<polygon fill="midnightblue" stroke="midnightblue" points="1192.75,-249.376 1202.9,-246.311 1193.06,-242.382 1192.75,-249.376"/>
</g>
<!-- Node464&#45;&gt;Node9 -->
<g id="edge44" class="edge"><title>Node464&#45;&gt;Node9</title>
<path fill="none" stroke="midnightblue" d="M787.703,-176.409C803.575,-170.228 825.24,-162.527 845,-158 880.44,-149.881 921.038,-145.139 952.913,-142.423"/>
<polygon fill="midnightblue" stroke="midnightblue" points="953.254,-145.907 962.938,-141.61 952.688,-138.93 953.254,-145.907"/>
</g>
<!-- Node465&#45;&gt;Node8 -->
<g id="edge48" class="edge"><title>Node465&#45;&gt;Node8</title>
<path fill="none" stroke="midnightblue" d="M778.323,-252.249C799.025,-237.647 838.281,-209.955 862.965,-192.543"/>
<polygon fill="midnightblue" stroke="midnightblue" points="865.184,-195.261 871.338,-186.637 861.149,-189.541 865.184,-195.261"/>
</g>
<!-- Node465&#45;&gt;Node453 -->
<g id="edge46" class="edge"><title>Node465&#45;&gt;Node453</title>
<path fill="none" stroke="midnightblue" d="M774.774,-271.72C795.316,-291.154 841.674,-335.011 867.241,-359.199"/>
<polygon fill="midnightblue" stroke="midnightblue" points="865.083,-361.975 874.752,-366.305 869.893,-356.89 865.083,-361.975"/>
</g>
<!-- Node465&#45;&gt;Node460 -->
<g id="edge47" class="edge"><title>Node465&#45;&gt;Node460</title>
<path fill="none" stroke="midnightblue" d="M796.16,-266.992C809.402,-269.08 825.043,-271.546 839.482,-273.823"/>
<polygon fill="midnightblue" stroke="midnightblue" points="839.308,-277.339 849.731,-275.439 840.398,-270.424 839.308,-277.339"/>
</g>
<!-- Node466&#45;&gt;Node453 -->
<g id="edge57" class="edge"><title>Node466&#45;&gt;Node453</title>
<path fill="none" stroke="midnightblue" d="M645.763,-499.394C663.048,-488.642 692.172,-470.906 718,-457 764.869,-431.765 820.788,-405.37 854.562,-389.819"/>
<polygon fill="midnightblue" stroke="midnightblue" points="856.255,-392.893 863.886,-385.543 853.337,-386.53 856.255,-392.893"/>
</g>
<!-- Node467 -->
<g id="node38" class="node"><title>Node467</title>
<g id="a_node38"><a xlink:href="lauxlib_8c.html#a36c8f149b779f8c9a5c042ea9784d80a" target="_top" xlink:title=" ">
<polygon fill="white" stroke="red" points="739,-594.5 739,-613.5 788,-613.5 788,-594.5 739,-594.5"/>
<text text-anchor="middle" x="763.5" y="-601.5" font-family="Helvetica,sans-Serif" font-size="10.00">findfield</text>
</a>
</g>
</g>
<!-- Node466&#45;&gt;Node467 -->
<g id="edge50" class="edge"><title>Node466&#45;&gt;Node467</title>
<path fill="none" stroke="midnightblue" d="M639.924,-518.992C655.146,-534.688 686.62,-565.354 718,-585 721.605,-587.257 725.524,-589.364 729.492,-591.292"/>
<polygon fill="midnightblue" stroke="midnightblue" points="728.162,-594.532 738.716,-595.454 731.041,-588.151 728.162,-594.532"/>
</g>
<!-- Node474 -->
<g id="node39" class="node"><title>Node474</title>
<g id="a_node39"><a xlink:href="lapi_8c.html#a111bd3fa34fe656f415edae5e343e13e" target="_top" xlink:title=" ">
<polygon fill="white" stroke="black" points="858,-451.5 858,-470.5 914,-470.5 914,-451.5 858,-451.5"/>
<text text-anchor="middle" x="886" y="-458.5" font-family="Helvetica,sans-Serif" font-size="10.00">lua_copy</text>
</a>
</g>
</g>
<!-- Node466&#45;&gt;Node474 -->
<g id="edge53" class="edge"><title>Node466&#45;&gt;Node474</title>
<path fill="none" stroke="midnightblue" d="M647.636,-499.406C664.838,-490.301 692.389,-477.125 718,-471 761.776,-460.53 813.749,-459.072 847.953,-459.551"/>
<polygon fill="midnightblue" stroke="midnightblue" points="847.9,-463.051 857.969,-459.754 848.042,-456.052 847.9,-463.051"/>
</g>
<!-- Node475 -->
<g id="node40" class="node"><title>Node475</title>
<g id="a_node40"><a xlink:href="lapi_8c.html#a8b47f1b5685c3f8018ba926abb99af24" target="_top" xlink:title=" ">
<polygon fill="white" stroke="red" points="731,-556.5 731,-575.5 796,-575.5 796,-556.5 731,-556.5"/>
<text text-anchor="middle" x="763.5" y="-563.5" font-family="Helvetica,sans-Serif" font-size="10.00">lua_getfield</text>
</a>
</g>
</g>
<!-- Node466&#45;&gt;Node475 -->
<g id="edge55" class="edge"><title>Node466&#45;&gt;Node475</title>
<path fill="none" stroke="midnightblue" d="M652.419,-518.564C670.107,-526.271 695.639,-537.371 718,-547 721.993,-548.719 726.19,-550.52 730.345,-552.299"/>
<polygon fill="midnightblue" stroke="midnightblue" points="729.279,-555.649 739.85,-556.361 732.03,-549.213 729.279,-555.649"/>
</g>
<!-- Node477 -->
<g id="node41" class="node"><title>Node477</title>
<g id="a_node41"><a xlink:href="lapi_8c.html#afbb08ecb69421875494105d4de68e5bf" target="_top" xlink:title=" ">
<polygon fill="white" stroke="black" points="732.5,-518.5 732.5,-537.5 794.5,-537.5 794.5,-518.5 732.5,-518.5"/>
<text text-anchor="middle" x="763.5" y="-525.5" font-family="Helvetica,sans-Serif" font-size="10.00">lua_gettop</text>
</a>
</g>
</g>
<!-- Node466&#45;&gt;Node477 -->
<g id="edge58" class="edge"><title>Node466&#45;&gt;Node477</title>
<path fill="none" stroke="midnightblue" d="M682.291,-516.455C695.495,-518.355 709.496,-520.371 722.041,-522.176"/>
<polygon fill="midnightblue" stroke="midnightblue" points="721.79,-525.676 732.187,-523.637 722.787,-518.748 721.79,-525.676"/>
</g>
<!-- Node478 -->
<g id="node42" class="node"><title>Node478</title>
<g id="a_node42"><a xlink:href="lapi_8c.html#a771d300f2e64b2197d1df9bf31660ebf" target="_top" xlink:title=" ">
<polygon fill="white" stroke="black" points="723.5,-670.5 723.5,-689.5 803.5,-689.5 803.5,-670.5 723.5,-670.5"/>
<text text-anchor="middle" x="763.5" y="-677.5" font-family="Helvetica,sans-Serif" font-size="10.00">lua_pushstring</text>
</a>
</g>
</g>
<!-- Node466&#45;&gt;Node478 -->
<g id="edge59" class="edge"><title>Node466&#45;&gt;Node478</title>
<path fill="none" stroke="midnightblue" d="M637.964,-518.78C653.039,-538.521 688.219,-584.528 718,-623 728.187,-636.16 739.756,-650.975 748.545,-662.202"/>
<polygon fill="midnightblue" stroke="midnightblue" points="745.995,-664.623 754.917,-670.337 751.505,-660.306 745.995,-664.623"/>
</g>
<!-- Node479 -->
<g id="node44" class="node"><title>Node479</title>
<g id="a_node44"><a xlink:href="lapi_8c.html#adaa30f0d34786144c94644039d1d1b6e" target="_top" xlink:title=" ">
<polygon fill="white" stroke="red" points="732.5,-480.5 732.5,-499.5 794.5,-499.5 794.5,-480.5 732.5,-480.5"/>
<text text-anchor="middle" x="763.5" y="-487.5" font-family="Helvetica,sans-Serif" font-size="10.00">lua_settop</text>
</a>
</g>
</g>
<!-- Node466&#45;&gt;Node479 -->
<g id="edge61" class="edge"><title>Node466&#45;&gt;Node479</title>
<path fill="none" stroke="midnightblue" d="M682.291,-501.545C695.495,-499.645 709.496,-497.629 722.041,-495.824"/>
<polygon fill="midnightblue" stroke="midnightblue" points="722.787,-499.252 732.187,-494.363 721.79,-492.324 722.787,-499.252"/>
</g>
<!-- Node467&#45;&gt;Node451 -->
<g id="edge52" class="edge"><title>Node467&#45;&gt;Node451</title>
<path fill="none" stroke="midnightblue" d="M788.02,-604C805.437,-604 829.476,-604 849.263,-604"/>
<polygon fill="midnightblue" stroke="midnightblue" points="849.457,-607.5 859.457,-604 849.457,-600.5 849.457,-607.5"/>
</g>
<!-- Node467&#45;&gt;Node462 -->
<g id="edge51" class="edge"><title>Node467&#45;&gt;Node462</title>
<path fill="none" stroke="midnightblue" d="M788.006,-595.927C795.05,-593 802.597,-589.328 809,-585 833.485,-568.447 856.765,-543.284 870.958,-526.502"/>
<polygon fill="midnightblue" stroke="midnightblue" points="873.834,-528.516 877.51,-518.579 868.44,-524.055 873.834,-528.516"/>
</g>
<!-- Node474&#45;&gt;Node4 -->
<g id="edge54" class="edge"><title>Node474&#45;&gt;Node4</title>
<path fill="none" stroke="midnightblue" d="M904.23,-470.56C911.992,-475.545 920.787,-482.228 927,-490 970.057,-543.865 994.39,-623.894 1003.85,-660.477"/>
<polygon fill="midnightblue" stroke="midnightblue" points="1000.5,-661.502 1006.32,-670.359 1007.29,-659.809 1000.5,-661.502"/>
</g>
<!-- Node475&#45;&gt;Node4 -->
<g id="edge56" class="edge"><title>Node475&#45;&gt;Node4</title>
<path fill="none" stroke="midnightblue" d="M796.131,-563.134C830.417,-561.463 885.753,-563.049 927,-585 959.92,-602.519 985.327,-639.239 998.501,-661.546"/>
<polygon fill="midnightblue" stroke="midnightblue" points="995.545,-663.429 1003.53,-670.393 1001.63,-659.97 995.545,-663.429"/>
</g>
<!-- Node96 -->
<g id="node43" class="node"><title>Node96</title>
<g id="a_node43"><a xlink:href="lstring_8c.html#a6d47e53be6b8e58202bb927752f4824b" target="_top" xlink:title=" ">
<polygon fill="white" stroke="red" points="856.5,-632.5 856.5,-651.5 915.5,-651.5 915.5,-632.5 856.5,-632.5"/>
<text text-anchor="middle" x="886" y="-639.5" font-family="Helvetica,sans-Serif" font-size="10.00">luaS_new</text>
</a>
</g>
</g>
<!-- Node478&#45;&gt;Node96 -->
<g id="edge60" class="edge"><title>Node478&#45;&gt;Node96</title>
<path fill="none" stroke="midnightblue" d="M794.907,-670.411C810.496,-665.495 829.652,-659.454 846.285,-654.209"/>
<polygon fill="midnightblue" stroke="midnightblue" points="847.777,-657.408 856.262,-651.063 845.672,-650.732 847.777,-657.408"/>
</g>
<!-- Node480&#45;&gt;Node478 -->
<g id="edge65" class="edge"><title>Node480&#45;&gt;Node478</title>
<path fill="none" stroke="midnightblue" d="M675.558,-692.514C687.694,-690.767 700.885,-688.869 713.238,-687.091"/>
<polygon fill="midnightblue" stroke="midnightblue" points="713.976,-690.521 723.376,-685.632 712.979,-683.592 713.976,-690.521"/>
</g>
<!-- Node481 -->
<g id="node46" class="node"><title>Node481</title>
<g id="a_node46"><a xlink:href="lapi_8c.html#a4caa9ca5e47a30bd45e33d83bf2d6d6e" target="_top" xlink:title=" ">
<polygon fill="white" stroke="black" points="718,-765.5 718,-784.5 809,-784.5 809,-765.5 718,-765.5"/>
<text text-anchor="middle" x="763.5" y="-772.5" font-family="Helvetica,sans-Serif" font-size="10.00">lua_getmetatable</text>
</a>
</g>
</g>
<!-- Node480&#45;&gt;Node481 -->
<g id="edge63" class="edge"><title>Node480&#45;&gt;Node481</title>
<path fill="none" stroke="midnightblue" d="M647.218,-708.625C669.931,-721.703 710.735,-745.196 737.206,-760.437"/>
<polygon fill="midnightblue" stroke="midnightblue" points="735.505,-763.496 745.918,-765.453 738.998,-757.43 735.505,-763.496"/>
</g>
<!-- Node482 -->
<g id="node47" class="node"><title>Node482</title>
<g id="a_node47"><a xlink:href="lapi_8c.html#a52944e714d1c64bda7b83f511c14b2d3" target="_top" xlink:title=" ">
<polygon fill="white" stroke="black" points="732,-708.5 732,-727.5 795,-727.5 795,-708.5 732,-708.5"/>
<text text-anchor="middle" x="763.5" y="-715.5" font-family="Helvetica,sans-Serif" font-size="10.00">lua_rawget</text>
</a>
</g>
</g>
<!-- Node480&#45;&gt;Node482 -->
<g id="edge66" class="edge"><title>Node480&#45;&gt;Node482</title>
<path fill="none" stroke="midnightblue" d="M675.558,-705.486C690.462,-707.631 706.957,-710.005 721.537,-712.104"/>
<polygon fill="midnightblue" stroke="midnightblue" points="721.369,-715.616 731.765,-713.576 722.366,-708.687 721.369,-715.616"/>
</g>
<!-- Node481&#45;&gt;Node4 -->
<g id="edge64" class="edge"><title>Node481&#45;&gt;Node4</title>
<path fill="none" stroke="midnightblue" d="M807.995,-784.529C841.984,-789.784 889.575,-792.203 927,-775 961.055,-759.346 986.216,-721.663 999.01,-698.74"/>
<polygon fill="midnightblue" stroke="midnightblue" points="1002.24,-700.122 1003.87,-689.652 996.066,-696.823 1002.24,-700.122"/>
</g>
<!-- Node483 -->
<g id="node48" class="node"><title>Node483</title>
<g id="a_node48"><a xlink:href="lapi_8c.html#a33830676158a2e9fde44f07109035425" target="_top" xlink:title=" ">
<polygon fill="white" stroke="black" points="852,-708.5 852,-727.5 920,-727.5 920,-708.5 852,-708.5"/>
<text text-anchor="middle" x="886" y="-715.5" font-family="Helvetica,sans-Serif" font-size="10.00">finishrawget</text>
</a>
</g>
</g>
<!-- Node482&#45;&gt;Node483 -->
<g id="edge67" class="edge"><title>Node482&#45;&gt;Node483</title>
<path fill="none" stroke="midnightblue" d="M795.219,-718C809.269,-718 826.166,-718 841.493,-718"/>
<polygon fill="midnightblue" stroke="midnightblue" points="841.799,-721.5 851.799,-718 841.799,-714.5 841.799,-721.5"/>
</g>
<!-- Node469 -->
<g id="node49" class="node"><title>Node469</title>
<g id="a_node49"><a xlink:href="lapi_8c.html#a4ebfbcdc1a7a4f0332d4dd532a817212" target="_top" xlink:title=" ">
<polygon fill="white" stroke="black" points="860.5,-746.5 860.5,-765.5 911.5,-765.5 911.5,-746.5 860.5,-746.5"/>
<text text-anchor="middle" x="886" y="-753.5" font-family="Helvetica,sans-Serif" font-size="10.00">gettable</text>
</a>
</g>
</g>
<!-- Node482&#45;&gt;Node469 -->
<g id="edge68" class="edge"><title>Node482&#45;&gt;Node469</title>
<path fill="none" stroke="midnightblue" d="M794.907,-727.589C811.809,-732.919 832.903,-739.571 850.43,-745.098"/>
<polygon fill="midnightblue" stroke="midnightblue" points="849.689,-748.534 860.279,-748.204 851.794,-741.859 849.689,-748.534"/>
</g>
<!-- Node147 -->
<g id="node50" class="node"><title>Node147</title>
<g id="a_node50"><a xlink:href="ltable_8c.html#a8b4fce00d7db27ee9caac3d49863dea3" target="_top" xlink:title=" ">
<polygon fill="white" stroke="red" points="858.5,-670.5 858.5,-689.5 913.5,-689.5 913.5,-670.5 858.5,-670.5"/>
<text text-anchor="middle" x="886" y="-677.5" font-family="Helvetica,sans-Serif" font-size="10.00">luaH_get</text>
</a>
</g>
</g>
<!-- Node482&#45;&gt;Node147 -->
<g id="edge70" class="edge"><title>Node482&#45;&gt;Node147</title>
<path fill="none" stroke="midnightblue" d="M794.907,-708.411C811.226,-703.265 831.453,-696.886 848.604,-691.477"/>
<polygon fill="midnightblue" stroke="midnightblue" points="849.81,-694.767 858.295,-688.422 847.705,-688.091 849.81,-694.767"/>
</g>
<!-- Node469&#45;&gt;Node4 -->
<g id="edge69" class="edge"><title>Node469&#45;&gt;Node4</title>
<path fill="none" stroke="midnightblue" d="M908.93,-746.39C914.896,-743.56 921.285,-740.325 927,-737 948.66,-724.4 971.953,-707.768 988.068,-695.724"/>
<polygon fill="midnightblue" stroke="midnightblue" points="990.357,-698.381 996.226,-689.56 986.137,-692.796 990.357,-698.381"/>
</g>
</g>
</svg>
