<?xml version="1.0" encoding="UTF-8" standalone="no"?>
<!DOCTYPE svg PUBLIC "-//W3C//DTD SVG 1.1//EN"
 "http://www.w3.org/Graphics/SVG/1.1/DTD/svg11.dtd">
<!-- Generated by graphviz version 2.38.0 (20140413.2041)
 -->
<!-- Title: luaL_pushresult Pages: 1 -->
<svg width="922pt" height="674pt"
 viewBox="0.00 0.00 922.00 674.00" xmlns="http://www.w3.org/2000/svg" xmlns:xlink="http://www.w3.org/1999/xlink">
<g id="graph0" class="graph" transform="scale(1 1) rotate(0) translate(4 670)">
<title>luaL_pushresult</title>
<polygon fill="white" stroke="none" points="-4,4 -4,-670 918,-670 918,4 -4,4"/>
<!-- Node1 -->
<g id="node1" class="node"><title>Node1</title>
<g id="a_node1"><a xlink:title=" ">
<polygon fill="#bfbfbf" stroke="black" points="829,-304.5 829,-323.5 914,-323.5 914,-304.5 829,-304.5"/>
<text text-anchor="middle" x="871.5" y="-311.5" font-family="Helvetica,sans-Serif" font-size="10.00">luaL_pushresult</text>
</a>
</g>
</g>
<!-- Node2 -->
<g id="node2" class="node"><title>Node2</title>
<g id="a_node2"><a xlink:href="loadlib_8c.html#aeea4101591c7cab25273f4dfe7d811d6" target="_top" xlink:title=" ">
<polygon fill="white" stroke="black" points="712.5,-646.5 712.5,-665.5 770.5,-665.5 770.5,-646.5 712.5,-646.5"/>
<text text-anchor="middle" x="741.5" y="-653.5" font-family="Helvetica,sans-Serif" font-size="10.00">findloader</text>
</a>
</g>
</g>
<!-- Node1&#45;&gt;Node2 -->
<g id="edge1" class="edge"><title>Node1&#45;&gt;Node2</title>
<path fill="none" stroke="midnightblue" d="M871.22,-333.869C872.128,-388.051 867.517,-540.434 793,-632 787.241,-639.077 778.902,-644.193 770.655,-647.834"/>
<polygon fill="midnightblue" stroke="midnightblue" points="874.711,-333.497 870.956,-323.591 867.714,-333.677 874.711,-333.497"/>
</g>
<!-- Node4 -->
<g id="node4" class="node"><title>Node4</title>
<g id="a_node4"><a xlink:href="lauxlib_8h.html#a46672be75da57e1a464c5c6d80f19064" target="_top" xlink:title=" ">
<polygon fill="white" stroke="black" points="711,-532.5 711,-551.5 772,-551.5 772,-532.5 711,-532.5"/>
<text text-anchor="middle" x="741.5" y="-539.5" font-family="Helvetica,sans-Serif" font-size="10.00">luaL_gsub</text>
</a>
</g>
</g>
<!-- Node1&#45;&gt;Node4 -->
<g id="edge3" class="edge"><title>Node1&#45;&gt;Node4</title>
<path fill="none" stroke="midnightblue" d="M867.947,-333.862C861.876,-373.581 843.142,-463.645 793,-518 787.34,-524.136 779.783,-528.858 772.243,-532.423"/>
<polygon fill="midnightblue" stroke="midnightblue" points="871.426,-334.252 869.366,-323.859 864.496,-333.268 871.426,-334.252"/>
</g>
<!-- Node10 -->
<g id="node10" class="node"><title>Node10</title>
<g id="a_node10"><a xlink:href="loadlib_8c.html#a9aa5433859d896c2db1a7af366e04b65" target="_top" xlink:title=" ">
<polygon fill="white" stroke="black" points="584,-532.5 584,-551.5 649,-551.5 649,-532.5 584,-532.5"/>
<text text-anchor="middle" x="616.5" y="-539.5" font-family="Helvetica,sans-Serif" font-size="10.00">searchpath</text>
</a>
</g>
</g>
<!-- Node1&#45;&gt;Node10 -->
<g id="edge54" class="edge"><title>Node1&#45;&gt;Node10</title>
<path fill="none" stroke="midnightblue" d="M866.953,-333.785C859.577,-369.211 839.258,-443.632 793,-485 782.045,-494.797 696.624,-519.835 649.119,-533.232"/>
<polygon fill="midnightblue" stroke="midnightblue" points="870.432,-334.229 868.91,-323.744 863.562,-332.89 870.432,-334.229"/>
</g>
<!-- Node14 -->
<g id="node14" class="node"><title>Node14</title>
<g id="a_node14"><a xlink:href="lauxlib_8h.html#ac12082513e8da6bfd5b834e840789682" target="_top" xlink:title=" ">
<polygon fill="white" stroke="black" points="690,-418.5 690,-437.5 793,-437.5 793,-418.5 690,-418.5"/>
<text text-anchor="middle" x="741.5" y="-425.5" font-family="Helvetica,sans-Serif" font-size="10.00">luaL_pushresultsize</text>
</a>
</g>
</g>
<!-- Node1&#45;&gt;Node14 -->
<g id="edge17" class="edge"><title>Node1&#45;&gt;Node14</title>
<path fill="none" stroke="midnightblue" d="M859.672,-332.473C846.407,-353.643 822.078,-388.101 793,-409 787.751,-412.772 781.664,-415.891 775.57,-418.435"/>
<polygon fill="midnightblue" stroke="midnightblue" points="862.755,-334.139 864.965,-323.777 856.776,-330.499 862.755,-334.139"/>
</g>
<!-- Node20 -->
<g id="node20" class="node"><title>Node20</title>
<g id="a_node20"><a xlink:href="lauxlib_8h.html#a664cc293d6c7a7dc67857fe95583a10e" target="_top" xlink:title=" ">
<polygon fill="white" stroke="black" points="700,-380.5 700,-399.5 783,-399.5 783,-380.5 700,-380.5"/>
<text text-anchor="middle" x="741.5" y="-387.5" font-family="Helvetica,sans-Serif" font-size="10.00">luaL_traceback</text>
</a>
</g>
</g>
<!-- Node1&#45;&gt;Node20 -->
<g id="edge23" class="edge"><title>Node1&#45;&gt;Node20</title>
<path fill="none" stroke="midnightblue" d="M851.572,-330.227C836.462,-342.595 814.355,-359.417 793,-371 786.413,-374.573 779.011,-377.768 771.947,-380.473"/>
<polygon fill="midnightblue" stroke="midnightblue" points="854.163,-332.625 859.602,-323.533 849.68,-327.248 854.163,-332.625"/>
</g>
<!-- Node34 -->
<g id="node32" class="node"><title>Node34</title>
<g id="a_node32"><a xlink:href="loslib_8c.html#a6520f2562b500aee87a6a475995adefb" target="_top" xlink:title=" ">
<polygon fill="white" stroke="black" points="716,-342.5 716,-361.5 767,-361.5 767,-342.5 716,-342.5"/>
<text text-anchor="middle" x="741.5" y="-349.5" font-family="Helvetica,sans-Serif" font-size="10.00">os_date</text>
</a>
</g>
</g>
<!-- Node1&#45;&gt;Node34 -->
<g id="edge39" class="edge"><title>Node1&#45;&gt;Node34</title>
<path fill="none" stroke="midnightblue" d="M828.533,-326.459C808.2,-332.495 784.488,-339.535 767.113,-344.693"/>
<polygon fill="midnightblue" stroke="midnightblue" points="829.61,-329.79 838.2,-323.589 827.618,-323.08 829.61,-329.79"/>
</g>
<!-- Node35 -->
<g id="node33" class="node"><title>Node35</title>
<g id="a_node33"><a xlink:href="loadlib_8c.html#a8c34f770d4f7748069b3b26c070e2473" target="_top" xlink:title=" ">
<polygon fill="white" stroke="black" points="694.5,-456.5 694.5,-475.5 788.5,-475.5 788.5,-456.5 694.5,-456.5"/>
<text text-anchor="middle" x="741.5" y="-463.5" font-family="Helvetica,sans-Serif" font-size="10.00">pusherrornotfound</text>
</a>
</g>
</g>
<!-- Node1&#45;&gt;Node35 -->
<g id="edge40" class="edge"><title>Node1&#45;&gt;Node35</title>
<path fill="none" stroke="midnightblue" d="M864.091,-333.151C853.593,-361.762 830.108,-415.648 793,-447 788.421,-450.869 782.975,-453.991 777.382,-456.498"/>
<polygon fill="midnightblue" stroke="midnightblue" points="867.462,-334.117 867.481,-323.523 860.859,-331.793 867.462,-334.117"/>
</g>
<!-- Node36 -->
<g id="node34" class="node"><title>Node36</title>
<g id="a_node34"><a xlink:href="liolib_8c.html#a48a16089fed2e802a76635a3f8bfe8e3" target="_top" xlink:title=" ">
<polygon fill="white" stroke="black" points="716.5,-304.5 716.5,-323.5 766.5,-323.5 766.5,-304.5 716.5,-304.5"/>
<text text-anchor="middle" x="741.5" y="-311.5" font-family="Helvetica,sans-Serif" font-size="10.00">read_all</text>
</a>
</g>
</g>
<!-- Node1&#45;&gt;Node36 -->
<g id="edge42" class="edge"><title>Node1&#45;&gt;Node36</title>
<path fill="none" stroke="midnightblue" d="M818.82,-314C800.796,-314 781.417,-314 766.697,-314"/>
<polygon fill="midnightblue" stroke="midnightblue" points="818.942,-317.5 828.942,-314 818.942,-310.5 818.942,-317.5"/>
</g>
<!-- Node44 -->
<g id="node42" class="node"><title>Node44</title>
<g id="a_node42"><a xlink:href="liolib_8c.html#a6735c0513432f83bfa1b88b056ab379b" target="_top" xlink:title=" ">
<polygon fill="white" stroke="black" points="709,-266.5 709,-285.5 774,-285.5 774,-266.5 709,-266.5"/>
<text text-anchor="middle" x="741.5" y="-273.5" font-family="Helvetica,sans-Serif" font-size="10.00">read_chars</text>
</a>
</g>
</g>
<!-- Node1&#45;&gt;Node44 -->
<g id="edge50" class="edge"><title>Node1&#45;&gt;Node44</title>
<path fill="none" stroke="midnightblue" d="M828.198,-301.441C810.644,-296.23 790.621,-290.286 774.346,-285.454"/>
<polygon fill="midnightblue" stroke="midnightblue" points="827.618,-304.92 838.2,-304.411 829.61,-298.21 827.618,-304.92"/>
</g>
<!-- Node45 -->
<g id="node43" class="node"><title>Node45</title>
<g id="a_node43"><a xlink:href="liolib_8c.html#ae697e23c2b1ea23d8935f579aa21200c" target="_top" xlink:title=" ">
<polygon fill="white" stroke="black" points="713.5,-228.5 713.5,-247.5 769.5,-247.5 769.5,-228.5 713.5,-228.5"/>
<text text-anchor="middle" x="741.5" y="-235.5" font-family="Helvetica,sans-Serif" font-size="10.00">read_line</text>
</a>
</g>
</g>
<!-- Node1&#45;&gt;Node45 -->
<g id="edge52" class="edge"><title>Node1&#45;&gt;Node45</title>
<path fill="none" stroke="midnightblue" d="M851.572,-297.773C836.462,-285.405 814.355,-268.583 793,-257 785.672,-253.025 777.335,-249.517 769.577,-246.633"/>
<polygon fill="midnightblue" stroke="midnightblue" points="849.68,-300.752 859.602,-304.467 854.163,-295.375 849.68,-300.752"/>
</g>
<!-- Node46 -->
<g id="node44" class="node"><title>Node46</title>
<g id="a_node44"><a xlink:href="loadlib_8c.html#ad3773b767d767b19dc36cab61cf5c57d" target="_top" xlink:title=" ">
<polygon fill="white" stroke="black" points="236,-598.5 236,-617.5 285,-617.5 285,-598.5 236,-598.5"/>
<text text-anchor="middle" x="260.5" y="-605.5" font-family="Helvetica,sans-Serif" font-size="10.00">setpath</text>
</a>
</g>
</g>
<!-- Node1&#45;&gt;Node46 -->
<g id="edge55" class="edge"><title>Node1&#45;&gt;Node46</title>
<path fill="none" stroke="midnightblue" d="M870.133,-333.798C868.187,-380.122 856.839,-496.52 793,-561 735.3,-619.28 699.511,-618 617.5,-618 617.5,-618 617.5,-618 505,-618 424.4,-618 328.918,-612.463 285.335,-609.629"/>
<polygon fill="midnightblue" stroke="midnightblue" points="873.637,-333.709 870.451,-323.604 866.64,-333.49 873.637,-333.709"/>
</g>
<!-- Node47 -->
<g id="node45" class="node"><title>Node47</title>
<g id="a_node45"><a xlink:href="lstrlib_8c.html#abc94e3a13f1b6ddb2c9b20c9fd89e87f" target="_top" xlink:title=" ">
<polygon fill="white" stroke="black" points="713,-190.5 713,-209.5 770,-209.5 770,-190.5 713,-190.5"/>
<text text-anchor="middle" x="741.5" y="-197.5" font-family="Helvetica,sans-Serif" font-size="10.00">str_dump</text>
</a>
</g>
</g>
<!-- Node1&#45;&gt;Node47 -->
<g id="edge57" class="edge"><title>Node1&#45;&gt;Node47</title>
<path fill="none" stroke="midnightblue" d="M859.672,-295.527C846.407,-274.357 822.078,-239.899 793,-219 786.154,-214.08 777.88,-210.271 770.028,-207.4"/>
<polygon fill="midnightblue" stroke="midnightblue" points="856.776,-297.501 864.965,-304.223 862.755,-293.861 856.776,-297.501"/>
</g>
<!-- Node48 -->
<g id="node46" class="node"><title>Node48</title>
<g id="a_node46"><a xlink:href="lstrlib_8c.html#ae26a9374857058119e59d0328208c2f2" target="_top" xlink:title=" ">
<polygon fill="white" stroke="black" points="711.5,-152.5 711.5,-171.5 771.5,-171.5 771.5,-152.5 711.5,-152.5"/>
<text text-anchor="middle" x="741.5" y="-159.5" font-family="Helvetica,sans-Serif" font-size="10.00">str_format</text>
</a>
</g>
</g>
<!-- Node1&#45;&gt;Node48 -->
<g id="edge58" class="edge"><title>Node1&#45;&gt;Node48</title>
<path fill="none" stroke="midnightblue" d="M864.091,-294.849C853.593,-266.238 830.108,-212.352 793,-181 786.846,-175.801 779.128,-171.951 771.591,-169.13"/>
<polygon fill="midnightblue" stroke="midnightblue" points="860.859,-296.207 867.481,-304.477 867.462,-293.883 860.859,-296.207"/>
</g>
<!-- Node49 -->
<g id="node47" class="node"><title>Node49</title>
<g id="a_node47"><a xlink:href="lstrlib_8c.html#a42337c674d265175bcc2b2f3809c7339" target="_top" xlink:title=" ">
<polygon fill="white" stroke="black" points="714.5,-114.5 714.5,-133.5 768.5,-133.5 768.5,-114.5 714.5,-114.5"/>
<text text-anchor="middle" x="741.5" y="-121.5" font-family="Helvetica,sans-Serif" font-size="10.00">str_gsub</text>
</a>
</g>
</g>
<!-- Node1&#45;&gt;Node49 -->
<g id="edge59" class="edge"><title>Node1&#45;&gt;Node49</title>
<path fill="none" stroke="midnightblue" d="M866.764,-294.422C859.085,-259.326 838.298,-185.417 793,-143 786.231,-136.661 777.145,-132.384 768.546,-129.521"/>
<polygon fill="midnightblue" stroke="midnightblue" points="863.366,-295.275 868.811,-304.364 870.223,-293.863 863.366,-295.275"/>
</g>
<!-- Node50 -->
<g id="node48" class="node"><title>Node50</title>
<g id="a_node48"><a xlink:href="lstrlib_8c.html#abcf8553ae8937fd4f4bf85c72f528710" target="_top" xlink:title=" ">
<polygon fill="white" stroke="black" points="714.5,-76.5 714.5,-95.5 768.5,-95.5 768.5,-76.5 714.5,-76.5"/>
<text text-anchor="middle" x="741.5" y="-83.5" font-family="Helvetica,sans-Serif" font-size="10.00">str_pack</text>
</a>
</g>
</g>
<!-- Node1&#45;&gt;Node50 -->
<g id="edge60" class="edge"><title>Node1&#45;&gt;Node50</title>
<path fill="none" stroke="midnightblue" d="M868.582,-294.127C863.601,-253.215 846.649,-158.905 793,-105 786.392,-98.3605 777.241,-94.009 768.542,-91.171"/>
<polygon fill="midnightblue" stroke="midnightblue" points="865.114,-294.617 869.69,-304.173 872.072,-293.849 865.114,-294.617"/>
</g>
<!-- Node51 -->
<g id="node49" class="node"><title>Node51</title>
<g id="a_node49"><a xlink:href="ltablib_8c.html#add6973c515a288f41265aca8e0ae6412" target="_top" xlink:title=" ">
<polygon fill="white" stroke="black" points="717,-38.5 717,-57.5 766,-57.5 766,-38.5 717,-38.5"/>
<text text-anchor="middle" x="741.5" y="-45.5" font-family="Helvetica,sans-Serif" font-size="10.00">tconcat</text>
</a>
</g>
</g>
<!-- Node1&#45;&gt;Node51 -->
<g id="edge61" class="edge"><title>Node1&#45;&gt;Node51</title>
<path fill="none" stroke="midnightblue" d="M869.932,-294.396C867.556,-248.489 855.345,-132.926 793,-67 785.92,-59.5134 775.601,-54.9526 766.133,-52.1855"/>
<polygon fill="midnightblue" stroke="midnightblue" points="866.44,-294.647 870.349,-304.494 873.434,-294.358 866.44,-294.647"/>
</g>
<!-- Node52 -->
<g id="node50" class="node"><title>Node52</title>
<g id="a_node50"><a xlink:href="lutf8lib_8c.html#a7269a837d8746044cb3f33e6db94b00f" target="_top" xlink:title=" ">
<polygon fill="white" stroke="black" points="718.5,-0.5 718.5,-19.5 764.5,-19.5 764.5,-0.5 718.5,-0.5"/>
<text text-anchor="middle" x="741.5" y="-7.5" font-family="Helvetica,sans-Serif" font-size="10.00">utfchar</text>
</a>
</g>
</g>
<!-- Node1&#45;&gt;Node52 -->
<g id="edge62" class="edge"><title>Node1&#45;&gt;Node52</title>
<path fill="none" stroke="midnightblue" d="M870.921,-294.198C870.917,-243.39 863.911,-106.937 793,-29 785.687,-20.9627 774.633,-16.3081 764.729,-13.6208"/>
<polygon fill="midnightblue" stroke="midnightblue" points="867.419,-294.41 870.821,-304.444 874.418,-294.479 867.419,-294.41"/>
</g>
<!-- Node3 -->
<g id="node3" class="node"><title>Node3</title>
<g id="a_node3"><a xlink:href="loadlib_8c.html#a136874f5faa236dc52fb50109281e157" target="_top" xlink:title=" ">
<polygon fill="white" stroke="black" points="588.5,-646.5 588.5,-665.5 644.5,-665.5 644.5,-646.5 588.5,-646.5"/>
<text text-anchor="middle" x="616.5" y="-653.5" font-family="Helvetica,sans-Serif" font-size="10.00">ll_require</text>
</a>
</g>
</g>
<!-- Node2&#45;&gt;Node3 -->
<g id="edge2" class="edge"><title>Node2&#45;&gt;Node3</title>
<path fill="none" stroke="midnightblue" d="M702.061,-656C683.468,-656 661.587,-656 644.742,-656"/>
<polygon fill="midnightblue" stroke="midnightblue" points="702.281,-659.5 712.281,-656 702.281,-652.5 702.281,-659.5"/>
</g>
<!-- Node5 -->
<g id="node5" class="node"><title>Node5</title>
<g id="a_node5"><a xlink:href="loadlib_8c.html#a91ac5b5231cf039af46226806dcc3884" target="_top" xlink:title=" ">
<polygon fill="white" stroke="black" points="479.5,-570.5 479.5,-589.5 532.5,-589.5 532.5,-570.5 479.5,-570.5"/>
<text text-anchor="middle" x="506" y="-577.5" font-family="Helvetica,sans-Serif" font-size="10.00">loadfunc</text>
</a>
</g>
</g>
<!-- Node4&#45;&gt;Node5 -->
<g id="edge4" class="edge"><title>Node4&#45;&gt;Node5</title>
<path fill="none" stroke="midnightblue" d="M700.838,-551.477C686.176,-554.778 669.384,-558.322 654,-561 611.663,-568.371 562.006,-574.211 532.596,-577.38"/>
<polygon fill="midnightblue" stroke="midnightblue" points="701.636,-554.885 710.604,-549.244 700.075,-548.061 701.636,-554.885"/>
</g>
<!-- Node4&#45;&gt;Node10 -->
<g id="edge10" class="edge"><title>Node4&#45;&gt;Node10</title>
<path fill="none" stroke="midnightblue" d="M700.699,-542C684.004,-542 664.862,-542 649.151,-542"/>
<polygon fill="midnightblue" stroke="midnightblue" points="700.725,-545.5 710.725,-542 700.725,-538.5 700.725,-545.5"/>
</g>
<!-- Node6 -->
<g id="node6" class="node"><title>Node6</title>
<g id="a_node6"><a xlink:href="loadlib_8c.html#a9a915ea950c831cee2f1e7b0a3bd9005" target="_top" xlink:title=" ">
<polygon fill="white" stroke="black" points="358.5,-570.5 358.5,-589.5 424.5,-589.5 424.5,-570.5 358.5,-570.5"/>
<text text-anchor="middle" x="391.5" y="-577.5" font-family="Helvetica,sans-Serif" font-size="10.00">searcher_C</text>
</a>
</g>
</g>
<!-- Node5&#45;&gt;Node6 -->
<g id="edge5" class="edge"><title>Node5&#45;&gt;Node6</title>
<path fill="none" stroke="midnightblue" d="M469.061,-580C454.841,-580 438.622,-580 424.783,-580"/>
<polygon fill="midnightblue" stroke="midnightblue" points="469.472,-583.5 479.472,-580 469.472,-576.5 469.472,-583.5"/>
</g>
<!-- Node9 -->
<g id="node9" class="node"><title>Node9</title>
<g id="a_node9"><a xlink:href="loadlib_8c.html#a1ec05cd98a045c271aeda9f9c6041e1c" target="_top" xlink:title=" ">
<polygon fill="white" stroke="black" points="350,-532.5 350,-551.5 433,-551.5 433,-532.5 350,-532.5"/>
<text text-anchor="middle" x="391.5" y="-539.5" font-family="Helvetica,sans-Serif" font-size="10.00">searcher_Croot</text>
</a>
</g>
</g>
<!-- Node5&#45;&gt;Node9 -->
<g id="edge8" class="edge"><title>Node5&#45;&gt;Node9</title>
<path fill="none" stroke="midnightblue" d="M469.995,-568.176C454.136,-562.819 435.637,-556.571 420.691,-551.522"/>
<polygon fill="midnightblue" stroke="midnightblue" points="468.878,-571.493 479.472,-571.377 471.118,-564.861 468.878,-571.493"/>
</g>
<!-- Node7 -->
<g id="node7" class="node"><title>Node7</title>
<g id="a_node7"><a xlink:href="loadlib_8c.html#a8fc66c8b852ee2960dc20797521d1d9e" target="_top" xlink:title=" ">
<polygon fill="white" stroke="black" points="207,-541.5 207,-560.5 314,-560.5 314,-541.5 207,-541.5"/>
<text text-anchor="middle" x="260.5" y="-548.5" font-family="Helvetica,sans-Serif" font-size="10.00">createsearcherstable</text>
</a>
</g>
</g>
<!-- Node6&#45;&gt;Node7 -->
<g id="edge6" class="edge"><title>Node6&#45;&gt;Node7</title>
<path fill="none" stroke="midnightblue" d="M348.277,-570.508C334.076,-567.316 318.233,-563.754 304.01,-560.557"/>
<polygon fill="midnightblue" stroke="midnightblue" points="347.756,-573.978 358.281,-572.757 349.292,-567.149 347.756,-573.978"/>
</g>
<!-- Node8 -->
<g id="node8" class="node"><title>Node8</title>
<g id="a_node8"><a xlink:href="lualib_8h.html#a05e0befc0439f926b6152129ab4f8dea" target="_top" xlink:title=" ">
<polygon fill="white" stroke="black" points="79,-569.5 79,-588.5 171,-588.5 171,-569.5 79,-569.5"/>
<text text-anchor="middle" x="125" y="-576.5" font-family="Helvetica,sans-Serif" font-size="10.00">luaopen_package</text>
</a>
</g>
</g>
<!-- Node7&#45;&gt;Node8 -->
<g id="edge7" class="edge"><title>Node7&#45;&gt;Node8</title>
<path fill="none" stroke="midnightblue" d="M204.078,-562.624C193.186,-564.909 181.879,-567.28 171.364,-569.485"/>
<polygon fill="midnightblue" stroke="midnightblue" points="204.862,-566.036 213.93,-560.558 203.425,-559.185 204.862,-566.036"/>
</g>
<!-- Node9&#45;&gt;Node7 -->
<g id="edge9" class="edge"><title>Node9&#45;&gt;Node7</title>
<path fill="none" stroke="midnightblue" d="M339.441,-545.562C331.19,-546.138 322.633,-546.735 314.341,-547.313"/>
<polygon fill="midnightblue" stroke="midnightblue" points="339.951,-549.035 349.684,-544.848 339.464,-542.052 339.951,-549.035"/>
</g>
<!-- Node11 -->
<g id="node11" class="node"><title>Node11</title>
<g id="a_node11"><a xlink:href="loadlib_8c.html#af8f7333f1a59f3d7aab8c9b79b7a4ab2" target="_top" xlink:title=" ">
<polygon fill="white" stroke="black" points="484,-494.5 484,-513.5 528,-513.5 528,-494.5 484,-494.5"/>
<text text-anchor="middle" x="506" y="-501.5" font-family="Helvetica,sans-Serif" font-size="10.00">findfile</text>
</a>
</g>
</g>
<!-- Node10&#45;&gt;Node11 -->
<g id="edge11" class="edge"><title>Node10&#45;&gt;Node11</title>
<path fill="none" stroke="midnightblue" d="M578.577,-529.068C561.786,-523.188 542.521,-516.44 528.21,-511.428"/>
<polygon fill="midnightblue" stroke="midnightblue" points="577.526,-532.409 588.121,-532.411 579.84,-525.802 577.526,-532.409"/>
</g>
<!-- Node13 -->
<g id="node13" class="node"><title>Node13</title>
<g id="a_node13"><a xlink:href="loadlib_8c.html#a3e9eb01c860846336b6f50d6c77448a2" target="_top" xlink:title=" ">
<polygon fill="white" stroke="black" points="469,-532.5 469,-551.5 543,-551.5 543,-532.5 469,-532.5"/>
<text text-anchor="middle" x="506" y="-539.5" font-family="Helvetica,sans-Serif" font-size="10.00">ll_searchpath</text>
</a>
</g>
</g>
<!-- Node10&#45;&gt;Node13 -->
<g id="edge16" class="edge"><title>Node10&#45;&gt;Node13</title>
<path fill="none" stroke="midnightblue" d="M573.615,-542C563.548,-542 552.881,-542 543.103,-542"/>
<polygon fill="midnightblue" stroke="midnightblue" points="573.826,-545.5 583.826,-542 573.826,-538.5 573.826,-545.5"/>
</g>
<!-- Node11&#45;&gt;Node6 -->
<g id="edge12" class="edge"><title>Node11&#45;&gt;Node6</title>
<path fill="none" stroke="midnightblue" d="M475.403,-518.586C473.181,-519.992 471.02,-521.468 469,-523 450.466,-537.061 451.859,-547.378 433,-561 428.089,-564.547 422.411,-567.697 416.889,-570.361"/>
<polygon fill="midnightblue" stroke="midnightblue" points="477.21,-521.584 484.113,-513.546 473.705,-515.525 477.21,-521.584"/>
</g>
<!-- Node11&#45;&gt;Node9 -->
<g id="edge13" class="edge"><title>Node11&#45;&gt;Node9</title>
<path fill="none" stroke="midnightblue" d="M474.027,-514.462C457.381,-520.085 437.006,-526.967 420.789,-532.445"/>
<polygon fill="midnightblue" stroke="midnightblue" points="475.486,-517.664 483.84,-511.148 473.245,-511.032 475.486,-517.664"/>
</g>
<!-- Node12 -->
<g id="node12" class="node"><title>Node12</title>
<g id="a_node12"><a xlink:href="loadlib_8c.html#a8b2f1d86fe37c0829143579a6b568243" target="_top" xlink:title=" ">
<polygon fill="white" stroke="black" points="354,-494.5 354,-513.5 429,-513.5 429,-494.5 354,-494.5"/>
<text text-anchor="middle" x="391.5" y="-501.5" font-family="Helvetica,sans-Serif" font-size="10.00">searcher_Lua</text>
</a>
</g>
</g>
<!-- Node11&#45;&gt;Node12 -->
<g id="edge14" class="edge"><title>Node11&#45;&gt;Node12</title>
<path fill="none" stroke="midnightblue" d="M473.805,-504C459.933,-504 443.507,-504 429.062,-504"/>
<polygon fill="midnightblue" stroke="midnightblue" points="473.84,-507.5 483.84,-504 473.84,-500.5 473.84,-507.5"/>
</g>
<!-- Node12&#45;&gt;Node7 -->
<g id="edge15" class="edge"><title>Node12&#45;&gt;Node7</title>
<path fill="none" stroke="midnightblue" d="M354.788,-517.011C333.642,-524.716 307.302,-534.312 288.009,-541.342"/>
<polygon fill="midnightblue" stroke="midnightblue" points="356.197,-520.223 364.395,-513.511 353.801,-513.646 356.197,-520.223"/>
</g>
<!-- Node15 -->
<g id="node15" class="node"><title>Node15</title>
<g id="a_node15"><a xlink:href="lstrlib_8c.html#a3f7db8b2258dca5459ad52d2cbf9f28c" target="_top" xlink:title=" ">
<polygon fill="white" stroke="black" points="590.5,-456.5 590.5,-475.5 642.5,-475.5 642.5,-456.5 590.5,-456.5"/>
<text text-anchor="middle" x="616.5" y="-463.5" font-family="Helvetica,sans-Serif" font-size="10.00">str_char</text>
</a>
</g>
</g>
<!-- Node14&#45;&gt;Node15 -->
<g id="edge18" class="edge"><title>Node14&#45;&gt;Node15</title>
<path fill="none" stroke="midnightblue" d="M699.651,-440.62C680.842,-446.431 659.117,-453.143 642.734,-458.204"/>
<polygon fill="midnightblue" stroke="midnightblue" points="700.941,-443.885 709.462,-437.589 698.874,-437.197 700.941,-443.885"/>
</g>
<!-- Node16 -->
<g id="node16" class="node"><title>Node16</title>
<g id="a_node16"><a xlink:href="lstrlib_8c.html#ab2235f81205d0482d03c8ae456a98992" target="_top" xlink:title=" ">
<polygon fill="white" stroke="black" points="588.5,-418.5 588.5,-437.5 644.5,-437.5 644.5,-418.5 588.5,-418.5"/>
<text text-anchor="middle" x="616.5" y="-425.5" font-family="Helvetica,sans-Serif" font-size="10.00">str_lower</text>
</a>
</g>
</g>
<!-- Node14&#45;&gt;Node16 -->
<g id="edge19" class="edge"><title>Node14&#45;&gt;Node16</title>
<path fill="none" stroke="midnightblue" d="M679.507,-428C667.241,-428 654.949,-428 644.581,-428"/>
<polygon fill="midnightblue" stroke="midnightblue" points="679.761,-431.5 689.761,-428 679.761,-424.5 679.761,-431.5"/>
</g>
<!-- Node17 -->
<g id="node17" class="node"><title>Node17</title>
<g id="a_node17"><a xlink:href="lstrlib_8c.html#acaee4c84f29e2ec7366728ca04d3569c" target="_top" xlink:title=" ">
<polygon fill="white" stroke="black" points="593,-380.5 593,-399.5 640,-399.5 640,-380.5 593,-380.5"/>
<text text-anchor="middle" x="616.5" y="-387.5" font-family="Helvetica,sans-Serif" font-size="10.00">str_rep</text>
</a>
</g>
</g>
<!-- Node14&#45;&gt;Node17 -->
<g id="edge20" class="edge"><title>Node14&#45;&gt;Node17</title>
<path fill="none" stroke="midnightblue" d="M699.773,-415.418C680.018,-409.315 657.023,-402.21 640.374,-397.067"/>
<polygon fill="midnightblue" stroke="midnightblue" points="698.874,-418.803 709.462,-418.411 700.941,-412.115 698.874,-418.803"/>
</g>
<!-- Node18 -->
<g id="node18" class="node"><title>Node18</title>
<g id="a_node18"><a xlink:href="lstrlib_8c.html#a4b2ffac60e817b9bfc54b32f8da3a6b4" target="_top" xlink:title=" ">
<polygon fill="white" stroke="black" points="584.5,-342.5 584.5,-361.5 648.5,-361.5 648.5,-342.5 584.5,-342.5"/>
<text text-anchor="middle" x="616.5" y="-349.5" font-family="Helvetica,sans-Serif" font-size="10.00">str_reverse</text>
</a>
</g>
</g>
<!-- Node14&#45;&gt;Node18 -->
<g id="edge21" class="edge"><title>Node14&#45;&gt;Node18</title>
<path fill="none" stroke="midnightblue" d="M699.232,-414.301C696.016,-412.689 692.897,-410.924 690,-409 670.619,-396.131 672.574,-385.009 654,-371 649.323,-367.473 643.897,-364.256 638.682,-361.512"/>
<polygon fill="midnightblue" stroke="midnightblue" points="697.889,-417.535 708.445,-418.445 700.761,-411.151 697.889,-417.535"/>
</g>
<!-- Node19 -->
<g id="node19" class="node"><title>Node19</title>
<g id="a_node19"><a xlink:href="lstrlib_8c.html#a38ed99b74af58070449ca344a7351f6a" target="_top" xlink:title=" ">
<polygon fill="white" stroke="black" points="588,-494.5 588,-513.5 645,-513.5 645,-494.5 588,-494.5"/>
<text text-anchor="middle" x="616.5" y="-501.5" font-family="Helvetica,sans-Serif" font-size="10.00">str_upper</text>
</a>
</g>
</g>
<!-- Node14&#45;&gt;Node19 -->
<g id="edge22" class="edge"><title>Node14&#45;&gt;Node19</title>
<path fill="none" stroke="midnightblue" d="M699.232,-441.699C696.016,-443.311 692.897,-445.076 690,-447 670.619,-459.869 672.574,-470.991 654,-485 649.323,-488.527 643.897,-491.744 638.682,-494.488"/>
<polygon fill="midnightblue" stroke="midnightblue" points="700.761,-444.849 708.445,-437.555 697.889,-438.465 700.761,-444.849"/>
</g>
<!-- Node21 -->
<g id="node21" class="node"><title>Node21</title>
<g id="a_node21"><a xlink:href="ldblib_8c.html#ae0792d4f3f6eedd535895e05426b82df" target="_top" xlink:title=" ">
<polygon fill="white" stroke="black" points="579,-304.5 579,-323.5 654,-323.5 654,-304.5 579,-304.5"/>
<text text-anchor="middle" x="616.5" y="-311.5" font-family="Helvetica,sans-Serif" font-size="10.00">db_traceback</text>
</a>
</g>
</g>
<!-- Node20&#45;&gt;Node21 -->
<g id="edge24" class="edge"><title>Node20&#45;&gt;Node21</title>
<path fill="none" stroke="midnightblue" d="M699.232,-376.301C696.016,-374.689 692.897,-372.924 690,-371 670.619,-358.131 672.574,-347.009 654,-333 649.323,-329.473 643.897,-326.256 638.682,-323.512"/>
<polygon fill="midnightblue" stroke="midnightblue" points="697.889,-379.535 708.445,-380.445 700.761,-373.151 697.889,-379.535"/>
</g>
<!-- Node22 -->
<g id="node22" class="node"><title>Node22</title>
<g id="a_node22"><a xlink:href="lua_8c.html#aaf236b6f4e03469c893b4a32e9a02ab2" target="_top" xlink:title=" ">
<polygon fill="white" stroke="black" points="583,-266.5 583,-285.5 650,-285.5 650,-266.5 583,-266.5"/>
<text text-anchor="middle" x="616.5" y="-273.5" font-family="Helvetica,sans-Serif" font-size="10.00">msghandler</text>
</a>
</g>
</g>
<!-- Node20&#45;&gt;Node22 -->
<g id="edge25" class="edge"><title>Node20&#45;&gt;Node22</title>
<path fill="none" stroke="midnightblue" d="M695.507,-375.348C693.558,-374.018 691.708,-372.572 690,-371 662.504,-345.684 679.927,-321.92 654,-295 650.432,-291.295 645.984,-288.171 641.433,-285.595"/>
<polygon fill="midnightblue" stroke="midnightblue" points="694.125,-378.586 704.553,-380.459 697.569,-372.492 694.125,-378.586"/>
</g>
<!-- Node23 -->
<g id="node23" class="node"><title>Node23</title>
<g id="a_node23"><a xlink:href="lua_8c.html#a49e04420c2846b52e378ef6272bbf75b" target="_top" xlink:title=" ">
<polygon fill="white" stroke="black" points="485,-285.5 485,-304.5 527,-304.5 527,-285.5 485,-285.5"/>
<text text-anchor="middle" x="506" y="-292.5" font-family="Helvetica,sans-Serif" font-size="10.00">docall</text>
</a>
</g>
</g>
<!-- Node22&#45;&gt;Node23 -->
<g id="edge26" class="edge"><title>Node22&#45;&gt;Node23</title>
<path fill="none" stroke="midnightblue" d="M572.874,-283.465C557.156,-286.217 540.073,-289.208 527.243,-291.455"/>
<polygon fill="midnightblue" stroke="midnightblue" points="573.7,-286.873 582.946,-281.701 572.493,-279.978 573.7,-286.873"/>
</g>
<!-- Node24 -->
<g id="node24" class="node"><title>Node24</title>
<g id="a_node24"><a xlink:href="lua_8c.html#a84103428a06a64ccca2c23a8045f3291" target="_top" xlink:title=" ">
<polygon fill="white" stroke="black" points="365,-304.5 365,-323.5 418,-323.5 418,-304.5 365,-304.5"/>
<text text-anchor="middle" x="391.5" y="-311.5" font-family="Helvetica,sans-Serif" font-size="10.00">dochunk</text>
</a>
</g>
</g>
<!-- Node23&#45;&gt;Node24 -->
<g id="edge27" class="edge"><title>Node23&#45;&gt;Node24</title>
<path fill="none" stroke="midnightblue" d="M474.582,-300.137C457.004,-303.106 435.126,-306.801 418.378,-309.629"/>
<polygon fill="midnightblue" stroke="midnightblue" points="475.61,-303.513 484.887,-298.397 474.444,-296.611 475.61,-303.513"/>
</g>
<!-- Node31 -->
<g id="node29" class="node"><title>Node31</title>
<g id="a_node29"><a xlink:href="lua_8c.html#ad256d556c3f941b29351d92606e67753" target="_top" xlink:title=" ">
<polygon fill="white" stroke="black" points="234,-380.5 234,-399.5 287,-399.5 287,-380.5 234,-380.5"/>
<text text-anchor="middle" x="260.5" y="-387.5" font-family="Helvetica,sans-Serif" font-size="10.00">dolibrary</text>
</a>
</g>
</g>
<!-- Node23&#45;&gt;Node31 -->
<g id="edge33" class="edge"><title>Node23&#45;&gt;Node31</title>
<path fill="none" stroke="midnightblue" d="M480.006,-309.497C466.377,-317.066 449.056,-326.15 433,-333 382.641,-354.485 321.251,-373.164 287.266,-382.88"/>
<polygon fill="midnightblue" stroke="midnightblue" points="481.798,-312.504 488.79,-304.545 478.36,-306.406 481.798,-312.504"/>
</g>
<!-- Node32 -->
<g id="node30" class="node"><title>Node32</title>
<g id="a_node30"><a xlink:href="lua_8c.html#a946f2675cba972bd3580d9046abf2b6b" target="_top" xlink:title=" ">
<polygon fill="white" stroke="black" points="98.5,-228.5 98.5,-247.5 151.5,-247.5 151.5,-228.5 98.5,-228.5"/>
<text text-anchor="middle" x="125" y="-235.5" font-family="Helvetica,sans-Serif" font-size="10.00">doREPL</text>
</a>
</g>
</g>
<!-- Node23&#45;&gt;Node32 -->
<g id="edge35" class="edge"><title>Node23&#45;&gt;Node32</title>
<path fill="none" stroke="midnightblue" d="M474.674,-289.81C461.829,-287.647 446.694,-285.145 433,-283 328.956,-266.706 204.782,-249.055 151.902,-241.622"/>
<polygon fill="midnightblue" stroke="midnightblue" points="474.4,-293.313 484.844,-291.532 475.569,-286.412 474.4,-293.313"/>
</g>
<!-- Node33 -->
<g id="node31" class="node"><title>Node33</title>
<g id="a_node31"><a xlink:href="lua_8c.html#a5a944babaacde1035f1aa8b4156cc06a" target="_top" xlink:title=" ">
<polygon fill="white" stroke="black" points="88,-266.5 88,-285.5 162,-285.5 162,-266.5 88,-266.5"/>
<text text-anchor="middle" x="125" y="-273.5" font-family="Helvetica,sans-Serif" font-size="10.00">handle_script</text>
</a>
</g>
</g>
<!-- Node23&#45;&gt;Node33 -->
<g id="edge37" class="edge"><title>Node23&#45;&gt;Node33</title>
<path fill="none" stroke="midnightblue" d="M474.683,-293.48C405.545,-290.014 236.465,-281.538 162.1,-277.81"/>
<polygon fill="midnightblue" stroke="midnightblue" points="474.728,-296.987 484.891,-293.992 475.079,-289.995 474.728,-296.987"/>
</g>
<!-- Node25 -->
<g id="node25" class="node"><title>Node25</title>
<g id="a_node25"><a xlink:href="lua_8c.html#a9708ea7bd36bee3c2d952cdd787246cc" target="_top" xlink:title=" ">
<polygon fill="white" stroke="red" points="105.5,-304.5 105.5,-323.5 144.5,-323.5 144.5,-304.5 105.5,-304.5"/>
<text text-anchor="middle" x="125" y="-311.5" font-family="Helvetica,sans-Serif" font-size="10.00">dofile</text>
</a>
</g>
</g>
<!-- Node24&#45;&gt;Node25 -->
<g id="edge28" class="edge"><title>Node24&#45;&gt;Node25</title>
<path fill="none" stroke="midnightblue" d="M354.646,-314C297.622,-314 188.258,-314 144.634,-314"/>
<polygon fill="midnightblue" stroke="midnightblue" points="354.657,-317.5 364.657,-314 354.657,-310.5 354.657,-317.5"/>
</g>
<!-- Node29 -->
<g id="node27" class="node"><title>Node29</title>
<g id="a_node27"><a xlink:href="lua_8c.html#ae8312476ab6a3db74a9a5b1a981d023f" target="_top" xlink:title=" ">
<polygon fill="white" stroke="red" points="235,-342.5 235,-361.5 286,-361.5 286,-342.5 235,-342.5"/>
<text text-anchor="middle" x="260.5" y="-349.5" font-family="Helvetica,sans-Serif" font-size="10.00">dostring</text>
</a>
</g>
</g>
<!-- Node24&#45;&gt;Node29 -->
<g id="edge30" class="edge"><title>Node24&#45;&gt;Node29</title>
<path fill="none" stroke="midnightblue" d="M354.835,-324.506C333.078,-330.915 305.808,-338.948 286.374,-344.673"/>
<polygon fill="midnightblue" stroke="midnightblue" points="356.102,-327.782 364.705,-321.599 354.123,-321.067 356.102,-327.782"/>
</g>
<!-- Node27 -->
<g id="node26" class="node"><title>Node27</title>
<g id="a_node26"><a xlink:href="lua_8c.html#aa0f8bc082ef913cb0a4df437bf5f5019" target="_top" xlink:title=" ">
<polygon fill="white" stroke="red" points="0,-285.5 0,-304.5 43,-304.5 43,-285.5 0,-285.5"/>
<text text-anchor="middle" x="21.5" y="-292.5" font-family="Helvetica,sans-Serif" font-size="10.00">pmain</text>
</a>
</g>
</g>
<!-- Node25&#45;&gt;Node27 -->
<g id="edge29" class="edge"><title>Node25&#45;&gt;Node27</title>
<path fill="none" stroke="midnightblue" d="M95.1285,-308.595C78.5276,-305.488 58.0639,-301.657 43.0935,-298.855"/>
<polygon fill="midnightblue" stroke="midnightblue" points="94.9101,-312.115 105.383,-310.515 96.1981,-305.235 94.9101,-312.115"/>
</g>
<!-- Node30 -->
<g id="node28" class="node"><title>Node30</title>
<g id="a_node28"><a xlink:href="lua_8c.html#a95a376c847572def6b3f78d33a7bc881" target="_top" xlink:title=" ">
<polygon fill="white" stroke="black" points="100.5,-342.5 100.5,-361.5 149.5,-361.5 149.5,-342.5 100.5,-342.5"/>
<text text-anchor="middle" x="125" y="-349.5" font-family="Helvetica,sans-Serif" font-size="10.00">runargs</text>
</a>
</g>
</g>
<!-- Node29&#45;&gt;Node30 -->
<g id="edge31" class="edge"><title>Node29&#45;&gt;Node30</title>
<path fill="none" stroke="midnightblue" d="M224.429,-352C200.891,-352 170.511,-352 149.767,-352"/>
<polygon fill="midnightblue" stroke="midnightblue" points="224.703,-355.5 234.703,-352 224.703,-348.5 224.703,-355.5"/>
</g>
<!-- Node30&#45;&gt;Node27 -->
<g id="edge32" class="edge"><title>Node30&#45;&gt;Node27</title>
<path fill="none" stroke="midnightblue" d="M90.8745,-338.879C86.8187,-337.02 82.7762,-335.042 79,-333 63.4033,-324.564 46.6862,-312.968 35.5165,-304.811"/>
<polygon fill="midnightblue" stroke="midnightblue" points="89.6783,-342.176 100.243,-342.974 92.4821,-335.762 89.6783,-342.176"/>
</g>
<!-- Node31&#45;&gt;Node30 -->
<g id="edge34" class="edge"><title>Node31&#45;&gt;Node30</title>
<path fill="none" stroke="midnightblue" d="M223.848,-379.852C200.431,-373.186 170.438,-364.649 149.867,-358.794"/>
<polygon fill="midnightblue" stroke="midnightblue" points="223.184,-383.302 233.76,-382.673 225.1,-376.569 223.184,-383.302"/>
</g>
<!-- Node32&#45;&gt;Node27 -->
<g id="edge36" class="edge"><title>Node32&#45;&gt;Node27</title>
<path fill="none" stroke="midnightblue" d="M89.4334,-251.787C85.8642,-253.45 82.3287,-255.2 79,-257 63.4033,-265.436 46.6862,-277.032 35.5165,-285.189"/>
<polygon fill="midnightblue" stroke="midnightblue" points="91.1177,-254.869 98.8408,-247.616 88.2804,-248.47 91.1177,-254.869"/>
</g>
<!-- Node33&#45;&gt;Node27 -->
<g id="edge38" class="edge"><title>Node33&#45;&gt;Node27</title>
<path fill="none" stroke="midnightblue" d="M77.8492,-284.639C65.6755,-286.918 53.1461,-289.263 43.0935,-291.145"/>
<polygon fill="midnightblue" stroke="midnightblue" points="78.7438,-288.032 87.9291,-282.752 77.4558,-281.152 78.7438,-288.032"/>
</g>
<!-- Node35&#45;&gt;Node10 -->
<g id="edge41" class="edge"><title>Node35&#45;&gt;Node10</title>
<path fill="none" stroke="midnightblue" d="M707.37,-479.996C701.413,-482.997 695.389,-486.37 690,-490 671.998,-502.126 671.779,-510.549 654,-523 649.085,-526.442 643.465,-529.671 638.133,-532.456"/>
<polygon fill="midnightblue" stroke="midnightblue" points="709.061,-483.067 716.578,-475.601 706.045,-476.75 709.061,-483.067"/>
</g>
<!-- Node37 -->
<g id="node35" class="node"><title>Node37</title>
<g id="a_node35"><a xlink:href="liolib_8c.html#addece2406777a40f0f591e3518293932" target="_top" xlink:title=" ">
<polygon fill="white" stroke="black" points="593.5,-228.5 593.5,-247.5 639.5,-247.5 639.5,-228.5 593.5,-228.5"/>
<text text-anchor="middle" x="616.5" y="-235.5" font-family="Helvetica,sans-Serif" font-size="10.00">g_read</text>
</a>
</g>
</g>
<!-- Node36&#45;&gt;Node37 -->
<g id="edge43" class="edge"><title>Node36&#45;&gt;Node37</title>
<path fill="none" stroke="midnightblue" d="M706.676,-303.716C700.886,-301.281 695.099,-298.386 690,-295 670.619,-282.131 672.574,-271.009 654,-257 649.323,-253.473 643.897,-250.256 638.682,-247.512"/>
<polygon fill="midnightblue" stroke="midnightblue" points="705.713,-307.094 716.304,-307.383 708.205,-300.553 705.713,-307.094"/>
</g>
<!-- Node38 -->
<g id="node36" class="node"><title>Node38</title>
<g id="a_node36"><a xlink:href="liolib_8c.html#add5250a74576076467531e4eb8f5f68e" target="_top" xlink:title=" ">
<polygon fill="white" stroke="black" points="484.5,-247.5 484.5,-266.5 527.5,-266.5 527.5,-247.5 484.5,-247.5"/>
<text text-anchor="middle" x="506" y="-254.5" font-family="Helvetica,sans-Serif" font-size="10.00">f_read</text>
</a>
</g>
</g>
<!-- Node37&#45;&gt;Node38 -->
<g id="edge44" class="edge"><title>Node37&#45;&gt;Node38</title>
<path fill="none" stroke="midnightblue" d="M583.223,-243.652C565.251,-246.799 543.407,-250.625 527.718,-253.372"/>
<polygon fill="midnightblue" stroke="midnightblue" points="584.035,-247.063 593.282,-241.891 582.828,-240.168 584.035,-247.063"/>
</g>
<!-- Node39 -->
<g id="node37" class="node"><title>Node39</title>
<g id="a_node37"><a xlink:href="liolib_8c.html#a45307aa59a628966c6ea270e9b476d9a" target="_top" xlink:title=" ">
<polygon fill="white" stroke="black" points="482,-209.5 482,-228.5 530,-228.5 530,-209.5 482,-209.5"/>
<text text-anchor="middle" x="506" y="-216.5" font-family="Helvetica,sans-Serif" font-size="10.00">io_read</text>
</a>
</g>
</g>
<!-- Node37&#45;&gt;Node39 -->
<g id="edge45" class="edge"><title>Node37&#45;&gt;Node39</title>
<path fill="none" stroke="midnightblue" d="M583.22,-232.347C566.219,-229.37 545.755,-225.787 530.313,-223.083"/>
<polygon fill="midnightblue" stroke="midnightblue" points="582.828,-235.832 593.282,-234.109 584.035,-228.937 582.828,-235.832"/>
</g>
<!-- Node40 -->
<g id="node38" class="node"><title>Node40</title>
<g id="a_node38"><a xlink:href="liolib_8c.html#ac37d80ee2cc364b4adafcb6f7c20f28b" target="_top" xlink:title=" ">
<polygon fill="white" stroke="black" points="474.5,-171.5 474.5,-190.5 537.5,-190.5 537.5,-171.5 474.5,-171.5"/>
<text text-anchor="middle" x="506" y="-178.5" font-family="Helvetica,sans-Serif" font-size="10.00">io_readline</text>
</a>
</g>
</g>
<!-- Node37&#45;&gt;Node40 -->
<g id="edge46" class="edge"><title>Node37&#45;&gt;Node40</title>
<path fill="none" stroke="midnightblue" d="M587.989,-223.547C568.28,-213.193 542.291,-199.54 525.134,-190.526"/>
<polygon fill="midnightblue" stroke="midnightblue" points="586.614,-226.778 597.094,-228.331 589.869,-220.581 586.614,-226.778"/>
</g>
<!-- Node41 -->
<g id="node39" class="node"><title>Node41</title>
<g id="a_node39"><a xlink:href="liolib_8c.html#a66325940a0248cee288153edb061c0c4" target="_top" xlink:title=" ">
<polygon fill="white" stroke="black" points="362.5,-171.5 362.5,-190.5 420.5,-190.5 420.5,-171.5 362.5,-171.5"/>
<text text-anchor="middle" x="391.5" y="-178.5" font-family="Helvetica,sans-Serif" font-size="10.00">aux_lines</text>
</a>
</g>
</g>
<!-- Node40&#45;&gt;Node41 -->
<g id="edge47" class="edge"><title>Node40&#45;&gt;Node41</title>
<path fill="none" stroke="midnightblue" d="M464.045,-181C449.58,-181 433.654,-181 420.508,-181"/>
<polygon fill="midnightblue" stroke="midnightblue" points="464.259,-184.5 474.259,-181 464.259,-177.5 464.259,-184.5"/>
</g>
<!-- Node42 -->
<g id="node40" class="node"><title>Node42</title>
<g id="a_node40"><a xlink:href="liolib_8c.html#a6a36f72d8b3966c1ebafab8a4791cb6c" target="_top" xlink:title=" ">
<polygon fill="white" stroke="black" points="238.5,-143.5 238.5,-162.5 282.5,-162.5 282.5,-143.5 238.5,-143.5"/>
<text text-anchor="middle" x="260.5" y="-150.5" font-family="Helvetica,sans-Serif" font-size="10.00">f_lines</text>
</a>
</g>
</g>
<!-- Node41&#45;&gt;Node42 -->
<g id="edge48" class="edge"><title>Node41&#45;&gt;Node42</title>
<path fill="none" stroke="midnightblue" d="M352.144,-172.675C329.362,-167.73 301.342,-161.648 282.538,-157.566"/>
<polygon fill="midnightblue" stroke="midnightblue" points="351.676,-176.154 362.19,-174.855 353.16,-169.314 351.676,-176.154"/>
</g>
<!-- Node43 -->
<g id="node41" class="node"><title>Node43</title>
<g id="a_node41"><a xlink:href="liolib_8c.html#ab08031b51605d4ef676ec33a3b96a286" target="_top" xlink:title=" ">
<polygon fill="white" stroke="black" points="235.5,-181.5 235.5,-200.5 285.5,-200.5 285.5,-181.5 235.5,-181.5"/>
<text text-anchor="middle" x="260.5" y="-188.5" font-family="Helvetica,sans-Serif" font-size="10.00">io_lines</text>
</a>
</g>
</g>
<!-- Node41&#45;&gt;Node43 -->
<g id="edge49" class="edge"><title>Node41&#45;&gt;Node43</title>
<path fill="none" stroke="midnightblue" d="M352.075,-183.979C330.603,-185.643 304.496,-187.667 285.837,-189.113"/>
<polygon fill="midnightblue" stroke="midnightblue" points="352.491,-187.457 362.19,-183.195 351.95,-180.478 352.491,-187.457"/>
</g>
<!-- Node44&#45;&gt;Node37 -->
<g id="edge51" class="edge"><title>Node44&#45;&gt;Node37</title>
<path fill="none" stroke="midnightblue" d="M699.64,-263.377C679.609,-257.188 656.274,-249.979 639.605,-244.829"/>
<polygon fill="midnightblue" stroke="midnightblue" points="698.874,-266.803 709.462,-266.411 700.941,-260.115 698.874,-266.803"/>
</g>
<!-- Node45&#45;&gt;Node37 -->
<g id="edge53" class="edge"><title>Node45&#45;&gt;Node37</title>
<path fill="none" stroke="midnightblue" d="M703.144,-238C682.455,-238 657.433,-238 639.792,-238"/>
<polygon fill="midnightblue" stroke="midnightblue" points="703.202,-241.5 713.202,-238 703.202,-234.5 703.202,-241.5"/>
</g>
<!-- Node46&#45;&gt;Node8 -->
<g id="edge56" class="edge"><title>Node46&#45;&gt;Node8</title>
<path fill="none" stroke="midnightblue" d="M225.91,-600.703C208.911,-597.011 188.064,-592.482 169.82,-588.519"/>
<polygon fill="midnightblue" stroke="midnightblue" points="225.425,-604.18 235.94,-602.882 226.911,-597.339 225.425,-604.18"/>
</g>
</g>
</svg>
