<?xml version="1.0" encoding="UTF-8" standalone="no"?>
<!DOCTYPE svg PUBLIC "-//W3C//DTD SVG 1.1//EN"
 "http://www.w3.org/Graphics/SVG/1.1/DTD/svg11.dtd">
<!-- Generated by graphviz version 2.38.0 (20140413.2041)
 -->
<!-- Title: luaL_callmeta Pages: 1 -->
<svg width="865pt" height="332pt"
 viewBox="0.00 0.00 865.00 332.00" xmlns="http://www.w3.org/2000/svg" xmlns:xlink="http://www.w3.org/1999/xlink">
<g id="graph0" class="graph" transform="scale(1 1) rotate(0) translate(4 328)">
<title>luaL_callmeta</title>
<polygon fill="white" stroke="none" points="-4,4 -4,-328 861,-328 861,4 -4,4"/>
<!-- Node1 -->
<g id="node1" class="node"><title>Node1</title>
<g id="a_node1"><a xlink:title=" ">
<polygon fill="#bfbfbf" stroke="black" points="780,-161.5 780,-180.5 857,-180.5 857,-161.5 780,-161.5"/>
<text text-anchor="middle" x="818.5" y="-168.5" font-family="Helvetica,sans-Serif" font-size="10.00">luaL_callmeta</text>
</a>
</g>
</g>
<!-- Node2 -->
<g id="node2" class="node"><title>Node2</title>
<g id="a_node2"><a xlink:href="lauxlib_8h.html#aef6da057d1e26ed6449b92177f1f2f5a" target="_top" xlink:title=" ">
<polygon fill="white" stroke="black" points="670,-190.5 670,-209.5 744,-209.5 744,-190.5 670,-190.5"/>
<text text-anchor="middle" x="707" y="-197.5" font-family="Helvetica,sans-Serif" font-size="10.00">luaL_tolstring</text>
</a>
</g>
</g>
<!-- Node1&#45;&gt;Node2 -->
<g id="edge1" class="edge"><title>Node1&#45;&gt;Node2</title>
<path fill="none" stroke="midnightblue" d="M771.577,-183.162C762.409,-185.59 752.901,-188.108 744.12,-190.434"/>
<polygon fill="midnightblue" stroke="midnightblue" points="772.571,-186.52 781.342,-180.576 770.779,-179.753 772.571,-186.52"/>
</g>
<!-- Node15 -->
<g id="node15" class="node"><title>Node15</title>
<g id="a_node15"><a xlink:href="lua_8c.html#aaf236b6f4e03469c893b4a32e9a02ab2" target="_top" xlink:title=" ">
<polygon fill="white" stroke="black" points="673.5,-104.5 673.5,-123.5 740.5,-123.5 740.5,-104.5 673.5,-104.5"/>
<text text-anchor="middle" x="707" y="-111.5" font-family="Helvetica,sans-Serif" font-size="10.00">msghandler</text>
</a>
</g>
</g>
<!-- Node1&#45;&gt;Node15 -->
<g id="edge16" class="edge"><title>Node1&#45;&gt;Node15</title>
<path fill="none" stroke="midnightblue" d="M790.007,-156.688C770.083,-146.317 743.695,-132.581 726.301,-123.526"/>
<polygon fill="midnightblue" stroke="midnightblue" points="788.439,-159.818 798.925,-161.331 791.671,-153.609 788.439,-159.818"/>
</g>
<!-- Node3 -->
<g id="node3" class="node"><title>Node3</title>
<g id="a_node3"><a xlink:href="lstrlib_8c.html#a2ff59847baa24a18f7d78d47dc1d3220" target="_top" xlink:title=" ">
<polygon fill="white" stroke="black" points="569,-304.5 569,-323.5 625,-323.5 625,-304.5 569,-304.5"/>
<text text-anchor="middle" x="597" y="-311.5" font-family="Helvetica,sans-Serif" font-size="10.00">addliteral</text>
</a>
</g>
</g>
<!-- Node2&#45;&gt;Node3 -->
<g id="edge2" class="edge"><title>Node2&#45;&gt;Node3</title>
<path fill="none" stroke="midnightblue" d="M693.985,-218.177C680.735,-237.393 658.083,-267.921 634,-290 628.131,-295.381 620.95,-300.42 614.55,-304.479"/>
<polygon fill="midnightblue" stroke="midnightblue" points="696.99,-219.981 699.699,-209.739 691.194,-216.056 696.99,-219.981"/>
</g>
<!-- Node4 -->
<g id="node4" class="node"><title>Node4</title>
<g id="a_node4"><a xlink:href="lstrlib_8c.html#ae26a9374857058119e59d0328208c2f2" target="_top" xlink:title=" ">
<polygon fill="white" stroke="black" points="464,-285.5 464,-304.5 524,-304.5 524,-285.5 464,-285.5"/>
<text text-anchor="middle" x="494" y="-292.5" font-family="Helvetica,sans-Serif" font-size="10.00">str_format</text>
</a>
</g>
</g>
<!-- Node2&#45;&gt;Node4 -->
<g id="edge15" class="edge"><title>Node2&#45;&gt;Node4</title>
<path fill="none" stroke="midnightblue" d="M689.366,-216.416C675.585,-229.169 654.931,-246.414 634,-257 598.392,-275.009 553.197,-285.328 524.184,-290.549"/>
<polygon fill="midnightblue" stroke="midnightblue" points="691.796,-218.935 696.636,-209.51 686.975,-213.859 691.796,-218.935"/>
</g>
<!-- Node5 -->
<g id="node5" class="node"><title>Node5</title>
<g id="a_node5"><a xlink:href="ldblib_8c.html#ad72cc206e90f6ebc343460376c950a14" target="_top" xlink:title=" ">
<polygon fill="white" stroke="black" points="567.5,-228.5 567.5,-247.5 626.5,-247.5 626.5,-228.5 567.5,-228.5"/>
<text text-anchor="middle" x="597" y="-235.5" font-family="Helvetica,sans-Serif" font-size="10.00">db_debug</text>
</a>
</g>
</g>
<!-- Node2&#45;&gt;Node5 -->
<g id="edge4" class="edge"><title>Node2&#45;&gt;Node5</title>
<path fill="none" stroke="midnightblue" d="M669.133,-212.972C654.744,-218.034 638.545,-223.734 625.244,-228.414"/>
<polygon fill="midnightblue" stroke="midnightblue" points="670.476,-216.21 678.747,-209.589 668.152,-209.607 670.476,-216.21"/>
</g>
<!-- Node6 -->
<g id="node6" class="node"><title>Node6</title>
<g id="a_node6"><a xlink:href="lua_8c.html#af30330b1ce029ad490faaeab255cf52d" target="_top" xlink:title=" ">
<polygon fill="white" stroke="black" points="564.5,-190.5 564.5,-209.5 629.5,-209.5 629.5,-190.5 564.5,-190.5"/>
<text text-anchor="middle" x="597" y="-197.5" font-family="Helvetica,sans-Serif" font-size="10.00">get_prompt</text>
</a>
</g>
</g>
<!-- Node2&#45;&gt;Node6 -->
<g id="edge5" class="edge"><title>Node2&#45;&gt;Node6</title>
<path fill="none" stroke="midnightblue" d="M659.442,-200C649.383,-200 638.973,-200 629.644,-200"/>
<polygon fill="midnightblue" stroke="midnightblue" points="659.737,-203.5 669.737,-200 659.737,-196.5 659.737,-203.5"/>
</g>
<!-- Node13 -->
<g id="node13" class="node"><title>Node13</title>
<g id="a_node13"><a xlink:href="lbaselib_8c.html#a865eb761a305c588d6940da5272375b7" target="_top" xlink:title=" ">
<polygon fill="white" stroke="black" points="567,-152.5 567,-171.5 627,-171.5 627,-152.5 567,-152.5"/>
<text text-anchor="middle" x="597" y="-159.5" font-family="Helvetica,sans-Serif" font-size="10.00">luaB_print</text>
</a>
</g>
</g>
<!-- Node2&#45;&gt;Node13 -->
<g id="edge13" class="edge"><title>Node2&#45;&gt;Node13</title>
<path fill="none" stroke="midnightblue" d="M669.133,-187.028C654.744,-181.966 638.545,-176.266 625.244,-171.586"/>
<polygon fill="midnightblue" stroke="midnightblue" points="668.152,-190.393 678.747,-190.411 670.476,-183.79 668.152,-190.393"/>
</g>
<!-- Node14 -->
<g id="node14" class="node"><title>Node14</title>
<g id="a_node14"><a xlink:href="lbaselib_8c.html#a15bd8ce3f719c87883bcb578c60677e7" target="_top" xlink:title=" ">
<polygon fill="white" stroke="black" points="560,-114.5 560,-133.5 634,-133.5 634,-114.5 560,-114.5"/>
<text text-anchor="middle" x="597" y="-121.5" font-family="Helvetica,sans-Serif" font-size="10.00">luaB_tostring</text>
</a>
</g>
</g>
<!-- Node2&#45;&gt;Node14 -->
<g id="edge14" class="edge"><title>Node2&#45;&gt;Node14</title>
<path fill="none" stroke="midnightblue" d="M687.296,-183.622C673.168,-171.647 653.024,-155.4 634,-143 628.908,-139.681 623.175,-136.448 617.806,-133.618"/>
<polygon fill="midnightblue" stroke="midnightblue" points="685.385,-186.594 695.252,-190.453 689.945,-181.283 685.385,-186.594"/>
</g>
<!-- Node3&#45;&gt;Node4 -->
<g id="edge3" class="edge"><title>Node3&#45;&gt;Node4</title>
<path fill="none" stroke="midnightblue" d="M558.817,-307.005C547.424,-304.862 535.056,-302.535 524.268,-300.506"/>
<polygon fill="midnightblue" stroke="midnightblue" points="558.459,-310.499 568.934,-308.908 559.753,-303.62 558.459,-310.499"/>
</g>
<!-- Node7 -->
<g id="node7" class="node"><title>Node7</title>
<g id="a_node7"><a xlink:href="lua_8c.html#a83a7cb21b34095ca93f2a2a863f58fda" target="_top" xlink:title=" ">
<polygon fill="white" stroke="black" points="467.5,-190.5 467.5,-209.5 520.5,-209.5 520.5,-190.5 467.5,-190.5"/>
<text text-anchor="middle" x="494" y="-197.5" font-family="Helvetica,sans-Serif" font-size="10.00">pushline</text>
</a>
</g>
</g>
<!-- Node6&#45;&gt;Node7 -->
<g id="edge6" class="edge"><title>Node6&#45;&gt;Node7</title>
<path fill="none" stroke="midnightblue" d="M554.173,-200C542.867,-200 530.963,-200 520.821,-200"/>
<polygon fill="midnightblue" stroke="midnightblue" points="554.32,-203.5 564.32,-200 554.32,-196.5 554.32,-203.5"/>
</g>
<!-- Node8 -->
<g id="node8" class="node"><title>Node8</title>
<g id="a_node8"><a xlink:href="lua_8c.html#ad7e840f79b193c164616ed9748e68ec6" target="_top" xlink:title=" ">
<polygon fill="white" stroke="black" points="266.5,-190.5 266.5,-209.5 316.5,-209.5 316.5,-190.5 266.5,-190.5"/>
<text text-anchor="middle" x="291.5" y="-197.5" font-family="Helvetica,sans-Serif" font-size="10.00">loadline</text>
</a>
</g>
</g>
<!-- Node7&#45;&gt;Node8 -->
<g id="edge7" class="edge"><title>Node7&#45;&gt;Node8</title>
<path fill="none" stroke="midnightblue" d="M457.848,-212.25C448.285,-215.037 437.847,-217.59 428,-219 395.443,-223.661 386.52,-223.909 354,-219 341.403,-217.098 327.83,-213.123 316.648,-209.297"/>
<polygon fill="midnightblue" stroke="midnightblue" points="458.908,-215.586 467.436,-209.299 456.849,-208.896 458.908,-215.586"/>
</g>
<!-- Node12 -->
<g id="node12" class="node"><title>Node12</title>
<g id="a_node12"><a xlink:href="lua_8c.html#affef5a04b31963c2c3f5028518777e12" target="_top" xlink:title=" ">
<polygon fill="white" stroke="black" points="364.5,-190.5 364.5,-209.5 417.5,-209.5 417.5,-190.5 364.5,-190.5"/>
<text text-anchor="middle" x="391" y="-197.5" font-family="Helvetica,sans-Serif" font-size="10.00">multiline</text>
</a>
</g>
</g>
<!-- Node7&#45;&gt;Node12 -->
<g id="edge11" class="edge"><title>Node7&#45;&gt;Node12</title>
<path fill="none" stroke="midnightblue" d="M457.18,-200C444.147,-200 429.685,-200 417.701,-200"/>
<polygon fill="midnightblue" stroke="midnightblue" points="457.252,-203.5 467.252,-200 457.252,-196.5 457.252,-203.5"/>
</g>
<!-- Node9 -->
<g id="node9" class="node"><title>Node9</title>
<g id="a_node9"><a xlink:href="lua_8c.html#a946f2675cba972bd3580d9046abf2b6b" target="_top" xlink:title=" ">
<polygon fill="white" stroke="black" points="164.5,-152.5 164.5,-171.5 217.5,-171.5 217.5,-152.5 164.5,-152.5"/>
<text text-anchor="middle" x="191" y="-159.5" font-family="Helvetica,sans-Serif" font-size="10.00">doREPL</text>
</a>
</g>
</g>
<!-- Node8&#45;&gt;Node9 -->
<g id="edge8" class="edge"><title>Node8&#45;&gt;Node9</title>
<path fill="none" stroke="midnightblue" d="M256.783,-186.992C243.693,-181.943 228.973,-176.264 216.876,-171.597"/>
<polygon fill="midnightblue" stroke="midnightblue" points="255.815,-190.37 266.404,-190.704 258.334,-183.839 255.815,-190.37"/>
</g>
<!-- Node10 -->
<g id="node10" class="node"><title>Node10</title>
<g id="a_node10"><a xlink:href="lua_8c.html#aa0f8bc082ef913cb0a4df437bf5f5019" target="_top" xlink:title=" ">
<polygon fill="white" stroke="black" points="74,-76.5 74,-95.5 117,-95.5 117,-76.5 74,-76.5"/>
<text text-anchor="middle" x="95.5" y="-83.5" font-family="Helvetica,sans-Serif" font-size="10.00">pmain</text>
</a>
</g>
</g>
<!-- Node9&#45;&gt;Node10 -->
<g id="edge9" class="edge"><title>Node9&#45;&gt;Node10</title>
<path fill="none" stroke="midnightblue" d="M165.34,-146.834C161.137,-144.017 156.88,-141.009 153,-138 135.514,-124.437 116.948,-106.599 106.056,-95.7332"/>
<polygon fill="midnightblue" stroke="midnightblue" points="163.457,-149.785 173.751,-152.292 167.267,-143.913 163.457,-149.785"/>
</g>
<!-- Node11 -->
<g id="node11" class="node"><title>Node11</title>
<g id="a_node11"><a xlink:href="lua_8c.html#a3c04138a5bfe5d72780bb7e82a18e627" target="_top" xlink:title=" ">
<polygon fill="white" stroke="black" points="0,-76.5 0,-95.5 38,-95.5 38,-76.5 0,-76.5"/>
<text text-anchor="middle" x="19" y="-83.5" font-family="Helvetica,sans-Serif" font-size="10.00">main</text>
</a>
</g>
</g>
<!-- Node10&#45;&gt;Node11 -->
<g id="edge10" class="edge"><title>Node10&#45;&gt;Node11</title>
<path fill="none" stroke="midnightblue" d="M63.5465,-86C54.8861,-86 45.758,-86 38.1087,-86"/>
<polygon fill="midnightblue" stroke="midnightblue" points="63.7476,-89.5001 73.7476,-86 63.7476,-82.5001 63.7476,-89.5001"/>
</g>
<!-- Node12&#45;&gt;Node8 -->
<g id="edge12" class="edge"><title>Node12&#45;&gt;Node8</title>
<path fill="none" stroke="midnightblue" d="M354.232,-200C341.707,-200 327.948,-200 316.605,-200"/>
<polygon fill="midnightblue" stroke="midnightblue" points="354.383,-203.5 364.383,-200 354.383,-196.5 354.383,-203.5"/>
</g>
<!-- Node16 -->
<g id="node16" class="node"><title>Node16</title>
<g id="a_node16"><a xlink:href="lua_8c.html#a49e04420c2846b52e378ef6272bbf75b" target="_top" xlink:title=" ">
<polygon fill="white" stroke="black" points="473,-76.5 473,-95.5 515,-95.5 515,-76.5 473,-76.5"/>
<text text-anchor="middle" x="494" y="-83.5" font-family="Helvetica,sans-Serif" font-size="10.00">docall</text>
</a>
</g>
</g>
<!-- Node15&#45;&gt;Node16 -->
<g id="edge17" class="edge"><title>Node15&#45;&gt;Node16</title>
<path fill="none" stroke="midnightblue" d="M663.424,-108.35C618.33,-102.366 549.067,-93.1747 515.137,-88.6723"/>
<polygon fill="midnightblue" stroke="midnightblue" points="663.12,-111.84 673.494,-109.686 664.041,-104.901 663.12,-111.84"/>
</g>
<!-- Node16&#45;&gt;Node9 -->
<g id="edge29" class="edge"><title>Node16&#45;&gt;Node9</title>
<path fill="none" stroke="midnightblue" d="M463.372,-97.3164C428.907,-110.088 370.074,-130.682 318,-143 283.77,-151.097 243.455,-156.465 217.818,-159.371"/>
<polygon fill="midnightblue" stroke="midnightblue" points="464.694,-100.559 472.836,-93.7786 462.243,-94.0018 464.694,-100.559"/>
</g>
<!-- Node17 -->
<g id="node17" class="node"><title>Node17</title>
<g id="a_node17"><a xlink:href="lua_8c.html#a84103428a06a64ccca2c23a8045f3291" target="_top" xlink:title=" ">
<polygon fill="white" stroke="black" points="364.5,-76.5 364.5,-95.5 417.5,-95.5 417.5,-76.5 364.5,-76.5"/>
<text text-anchor="middle" x="391" y="-83.5" font-family="Helvetica,sans-Serif" font-size="10.00">dochunk</text>
</a>
</g>
</g>
<!-- Node16&#45;&gt;Node17 -->
<g id="edge18" class="edge"><title>Node16&#45;&gt;Node17</title>
<path fill="none" stroke="midnightblue" d="M462.267,-86C448.05,-86 431.352,-86 417.801,-86"/>
<polygon fill="midnightblue" stroke="midnightblue" points="462.561,-89.5001 472.561,-86 462.561,-82.5001 462.561,-89.5001"/>
</g>
<!-- Node22 -->
<g id="node22" class="node"><title>Node22</title>
<g id="a_node22"><a xlink:href="lua_8c.html#ad256d556c3f941b29351d92606e67753" target="_top" xlink:title=" ">
<polygon fill="white" stroke="black" points="265,-38.5 265,-57.5 318,-57.5 318,-38.5 265,-38.5"/>
<text text-anchor="middle" x="291.5" y="-45.5" font-family="Helvetica,sans-Serif" font-size="10.00">dolibrary</text>
</a>
</g>
</g>
<!-- Node16&#45;&gt;Node22 -->
<g id="edge27" class="edge"><title>Node16&#45;&gt;Node22</title>
<path fill="none" stroke="midnightblue" d="M463.406,-76.3659C452.382,-73.0381 439.704,-69.5173 428,-67 390.146,-58.8585 345.563,-53.3819 318.167,-50.4772"/>
<polygon fill="midnightblue" stroke="midnightblue" points="462.403,-79.7191 472.99,-79.3334 464.473,-73.0323 462.403,-79.7191"/>
</g>
<!-- Node23 -->
<g id="node23" class="node"><title>Node23</title>
<g id="a_node23"><a xlink:href="lua_8c.html#a5a944babaacde1035f1aa8b4156cc06a" target="_top" xlink:title=" ">
<polygon fill="white" stroke="black" points="354,-0.5 354,-19.5 428,-19.5 428,-0.5 354,-0.5"/>
<text text-anchor="middle" x="391" y="-7.5" font-family="Helvetica,sans-Serif" font-size="10.00">handle_script</text>
</a>
</g>
</g>
<!-- Node16&#45;&gt;Node23 -->
<g id="edge30" class="edge"><title>Node16&#45;&gt;Node23</title>
<path fill="none" stroke="midnightblue" d="M473.683,-69.8194C460.931,-59.3209 443.734,-45.5049 428,-34 421.209,-29.0342 413.469,-23.8198 406.911,-19.5247"/>
<polygon fill="midnightblue" stroke="midnightblue" points="471.795,-72.8009 481.728,-76.4883 476.263,-67.4118 471.795,-72.8009"/>
</g>
<!-- Node18 -->
<g id="node18" class="node"><title>Node18</title>
<g id="a_node18"><a xlink:href="lua_8c.html#a9708ea7bd36bee3c2d952cdd787246cc" target="_top" xlink:title=" ">
<polygon fill="white" stroke="black" points="272,-114.5 272,-133.5 311,-133.5 311,-114.5 272,-114.5"/>
<text text-anchor="middle" x="291.5" y="-121.5" font-family="Helvetica,sans-Serif" font-size="10.00">dofile</text>
</a>
</g>
</g>
<!-- Node17&#45;&gt;Node18 -->
<g id="edge19" class="edge"><title>Node17&#45;&gt;Node18</title>
<path fill="none" stroke="midnightblue" d="M355.906,-99.2881C340.913,-105.131 323.882,-111.769 311.248,-116.693"/>
<polygon fill="midnightblue" stroke="midnightblue" points="357.35,-102.482 365.397,-95.589 354.808,-95.9594 357.35,-102.482"/>
</g>
<!-- Node20 -->
<g id="node20" class="node"><title>Node20</title>
<g id="a_node20"><a xlink:href="lua_8c.html#ae8312476ab6a3db74a9a5b1a981d023f" target="_top" xlink:title=" ">
<polygon fill="white" stroke="black" points="266,-76.5 266,-95.5 317,-95.5 317,-76.5 266,-76.5"/>
<text text-anchor="middle" x="291.5" y="-83.5" font-family="Helvetica,sans-Serif" font-size="10.00">dostring</text>
</a>
</g>
</g>
<!-- Node17&#45;&gt;Node20 -->
<g id="edge23" class="edge"><title>Node17&#45;&gt;Node20</title>
<path fill="none" stroke="midnightblue" d="M354.022,-86C341.798,-86 328.422,-86 317.273,-86"/>
<polygon fill="midnightblue" stroke="midnightblue" points="354.383,-89.5001 364.383,-86 354.383,-82.5001 354.383,-89.5001"/>
</g>
<!-- Node18&#45;&gt;Node10 -->
<g id="edge22" class="edge"><title>Node18&#45;&gt;Node10</title>
<path fill="none" stroke="midnightblue" d="M261.314,-121.565C233.28,-118.851 189.864,-113.665 153,-105 140.911,-102.158 127.741,-97.8061 117.159,-93.9836"/>
<polygon fill="midnightblue" stroke="midnightblue" points="261.334,-125.081 271.614,-122.517 261.978,-118.111 261.334,-125.081"/>
</g>
<!-- Node19 -->
<g id="node19" class="node"><title>Node19</title>
<g id="a_node19"><a xlink:href="lua_8c.html#a5d9d02779b2853fbef2aa54e2f8e017e" target="_top" xlink:title=" ">
<polygon fill="white" stroke="black" points="153,-76.5 153,-95.5 229,-95.5 229,-76.5 153,-76.5"/>
<text text-anchor="middle" x="191" y="-83.5" font-family="Helvetica,sans-Serif" font-size="10.00">handle_luainit</text>
</a>
</g>
</g>
<!-- Node18&#45;&gt;Node19 -->
<g id="edge20" class="edge"><title>Node18&#45;&gt;Node19</title>
<path fill="none" stroke="midnightblue" d="M262.553,-113.219C248.135,-107.656 230.699,-100.93 216.768,-95.5553"/>
<polygon fill="midnightblue" stroke="midnightblue" points="261.383,-116.519 271.973,-116.852 263.903,-109.988 261.383,-116.519"/>
</g>
<!-- Node19&#45;&gt;Node10 -->
<g id="edge21" class="edge"><title>Node19&#45;&gt;Node10</title>
<path fill="none" stroke="midnightblue" d="M142.706,-86C133.732,-86 124.785,-86 117.188,-86"/>
<polygon fill="midnightblue" stroke="midnightblue" points="142.778,-89.5001 152.778,-86 142.778,-82.5001 142.778,-89.5001"/>
</g>
<!-- Node20&#45;&gt;Node19 -->
<g id="edge24" class="edge"><title>Node20&#45;&gt;Node19</title>
<path fill="none" stroke="midnightblue" d="M255.832,-86C247.25,-86 238.019,-86 229.317,-86"/>
<polygon fill="midnightblue" stroke="midnightblue" points="255.898,-89.5001 265.898,-86 255.898,-82.5001 255.898,-89.5001"/>
</g>
<!-- Node21 -->
<g id="node21" class="node"><title>Node21</title>
<g id="a_node21"><a xlink:href="lua_8c.html#a95a376c847572def6b3f78d33a7bc881" target="_top" xlink:title=" ">
<polygon fill="white" stroke="black" points="166.5,-38.5 166.5,-57.5 215.5,-57.5 215.5,-38.5 166.5,-38.5"/>
<text text-anchor="middle" x="191" y="-45.5" font-family="Helvetica,sans-Serif" font-size="10.00">runargs</text>
</a>
</g>
</g>
<!-- Node20&#45;&gt;Node21 -->
<g id="edge25" class="edge"><title>Node20&#45;&gt;Node21</title>
<path fill="none" stroke="midnightblue" d="M256.455,-72.8657C242.986,-67.6699 227.836,-61.8252 215.61,-57.1084"/>
<polygon fill="midnightblue" stroke="midnightblue" points="255.309,-76.1751 265.898,-76.509 257.828,-69.6442 255.309,-76.1751"/>
</g>
<!-- Node21&#45;&gt;Node10 -->
<g id="edge26" class="edge"><title>Node21&#45;&gt;Node10</title>
<path fill="none" stroke="midnightblue" d="M157.103,-61.3699C143.835,-66.7624 128.93,-72.82 117.222,-77.5784"/>
<polygon fill="midnightblue" stroke="midnightblue" points="158.46,-64.5966 166.406,-57.589 155.824,-58.1117 158.46,-64.5966"/>
</g>
<!-- Node22&#45;&gt;Node21 -->
<g id="edge28" class="edge"><title>Node22&#45;&gt;Node21</title>
<path fill="none" stroke="midnightblue" d="M254.836,-48C241.855,-48 227.508,-48 215.804,-48"/>
<polygon fill="midnightblue" stroke="midnightblue" points="254.877,-51.5001 264.877,-48 254.877,-44.5001 254.877,-51.5001"/>
</g>
<!-- Node23&#45;&gt;Node10 -->
<g id="edge31" class="edge"><title>Node23&#45;&gt;Node10</title>
<path fill="none" stroke="midnightblue" d="M343.821,-4.53631C294.241,-0.702131 214.336,-0.505282 153,-29 130.507,-39.4495 111.978,-62.9248 102.775,-76.2601"/>
<polygon fill="midnightblue" stroke="midnightblue" points="343.661,-8.03532 353.923,-5.40068 344.258,-1.0608 343.661,-8.03532"/>
</g>
</g>
</svg>
