<?xml version="1.0" encoding="UTF-8" standalone="no"?>
<!DOCTYPE svg PUBLIC "-//W3C//DTD SVG 1.1//EN"
 "http://www.w3.org/Graphics/SVG/1.1/DTD/svg11.dtd">
<!-- Generated by graphviz version 2.38.0 (20140413.2041)
 -->
<!-- Title: boxgc Pages: 1 -->
<svg width="1330pt" height="1310pt"
 viewBox="0.00 0.00 1330.00 1310.00" xmlns="http://www.w3.org/2000/svg" xmlns:xlink="http://www.w3.org/1999/xlink">
<g id="graph0" class="graph" transform="scale(1 1) rotate(0) translate(4 1306)">
<title>boxgc</title>
<polygon fill="white" stroke="none" points="-4,4 -4,-1306 1326,-1306 1326,4 -4,4"/>
<!-- Node1 -->
<g id="node1" class="node"><title>Node1</title>
<g id="a_node1"><a xlink:title=" ">
<polygon fill="#bfbfbf" stroke="black" points="0,-1102.5 0,-1121.5 43,-1121.5 43,-1102.5 0,-1102.5"/>
<text text-anchor="middle" x="21.5" y="-1109.5" font-family="Helvetica,sans-Serif" font-size="10.00">boxgc</text>
</a>
</g>
</g>
<!-- Node2 -->
<g id="node2" class="node"><title>Node2</title>
<g id="a_node2"><a xlink:href="lauxlib_8c.html#acdf7f3169e55f9c8bd3d314358a9e778" target="_top" xlink:title=" ">
<polygon fill="white" stroke="black" points="79,-1102.5 79,-1121.5 138,-1121.5 138,-1102.5 79,-1102.5"/>
<text text-anchor="middle" x="108.5" y="-1109.5" font-family="Helvetica,sans-Serif" font-size="10.00">resizebox</text>
</a>
</g>
</g>
<!-- Node1&#45;&gt;Node2 -->
<g id="edge1" class="edge"><title>Node1&#45;&gt;Node2</title>
<path fill="none" stroke="midnightblue" d="M43.0761,-1112C50.7746,-1112 59.7948,-1112 68.6066,-1112"/>
<polygon fill="midnightblue" stroke="midnightblue" points="68.7637,-1115.5 78.7636,-1112 68.7636,-1108.5 68.7637,-1115.5"/>
</g>
<!-- Node3 -->
<g id="node3" class="node"><title>Node3</title>
<g id="a_node3"><a xlink:href="lapi_8c.html#a6ba7b91143fe8a03910420d800de8e97" target="_top" xlink:title=" ">
<polygon fill="white" stroke="black" points="187,-1140.5 187,-1159.5 241,-1159.5 241,-1140.5 187,-1140.5"/>
<text text-anchor="middle" x="214" y="-1147.5" font-family="Helvetica,sans-Serif" font-size="10.00">lua_error</text>
</a>
</g>
</g>
<!-- Node2&#45;&gt;Node3 -->
<g id="edge2" class="edge"><title>Node2&#45;&gt;Node3</title>
<path fill="none" stroke="midnightblue" d="M135.617,-1121.59C148.243,-1126.22 163.591,-1131.86 177.28,-1136.89"/>
<polygon fill="midnightblue" stroke="midnightblue" points="176.297,-1140.25 186.891,-1140.41 178.71,-1133.68 176.297,-1140.25"/>
</g>
<!-- Node446 -->
<g id="node47" class="node"><title>Node446</title>
<g id="a_node47"><a xlink:href="lapi_8c.html#a3dbff8747b32b799cf63603c46da06cc" target="_top" xlink:title=" ">
<polygon fill="white" stroke="black" points="178.5,-1102.5 178.5,-1121.5 249.5,-1121.5 249.5,-1102.5 178.5,-1102.5"/>
<text text-anchor="middle" x="214" y="-1109.5" font-family="Helvetica,sans-Serif" font-size="10.00">lua_getallocf</text>
</a>
</g>
</g>
<!-- Node2&#45;&gt;Node446 -->
<g id="edge70" class="edge"><title>Node2&#45;&gt;Node446</title>
<path fill="none" stroke="midnightblue" d="M138.056,-1112C147.39,-1112 157.994,-1112 168.227,-1112"/>
<polygon fill="midnightblue" stroke="midnightblue" points="168.275,-1115.5 178.275,-1112 168.275,-1108.5 168.275,-1115.5"/>
</g>
<!-- Node447 -->
<g id="node48" class="node"><title>Node447</title>
<g id="a_node48"><a xlink:href="lapi_8c.html#a0444ddf13e5618bca969e4b3b47bc0cc" target="_top" xlink:title=" ">
<polygon fill="white" stroke="black" points="174,-1064.5 174,-1083.5 254,-1083.5 254,-1064.5 174,-1064.5"/>
<text text-anchor="middle" x="214" y="-1071.5" font-family="Helvetica,sans-Serif" font-size="10.00">lua_touserdata</text>
</a>
</g>
</g>
<!-- Node2&#45;&gt;Node447 -->
<g id="edge71" class="edge"><title>Node2&#45;&gt;Node447</title>
<path fill="none" stroke="midnightblue" d="M135.617,-1102.41C148.243,-1097.78 163.591,-1092.14 177.28,-1087.11"/>
<polygon fill="midnightblue" stroke="midnightblue" points="178.71,-1090.32 186.891,-1083.59 176.297,-1083.75 178.71,-1090.32"/>
</g>
<!-- Node4 -->
<g id="node4" class="node"><title>Node4</title>
<g id="a_node4"><a xlink:href="ldebug_8c.html#af7366920f8408bb33ed01b1d6c0e1238" target="_top" xlink:title=" ">
<polygon fill="white" stroke="black" points="290,-1140.5 290,-1159.5 370,-1159.5 370,-1140.5 290,-1140.5"/>
<text text-anchor="middle" x="330" y="-1147.5" font-family="Helvetica,sans-Serif" font-size="10.00">luaG_errormsg</text>
</a>
</g>
</g>
<!-- Node3&#45;&gt;Node4 -->
<g id="edge3" class="edge"><title>Node3&#45;&gt;Node4</title>
<path fill="none" stroke="midnightblue" d="M241.154,-1150C252.678,-1150 266.61,-1150 279.949,-1150"/>
<polygon fill="midnightblue" stroke="midnightblue" points="279.984,-1153.5 289.984,-1150 279.984,-1146.5 279.984,-1153.5"/>
</g>
<!-- Node5 -->
<g id="node5" class="node"><title>Node5</title>
<g id="a_node5"><a xlink:href="ldo_8c.html#a61c0a0185ef5ae1493dad10027f4db7e" target="_top" xlink:title=" ">
<polygon fill="white" stroke="black" points="406,-855.5 406,-874.5 493,-874.5 493,-855.5 406,-855.5"/>
<text text-anchor="middle" x="449.5" y="-862.5" font-family="Helvetica,sans-Serif" font-size="10.00">luaD_callnoyield</text>
</a>
</g>
</g>
<!-- Node4&#45;&gt;Node5 -->
<g id="edge4" class="edge"><title>Node4&#45;&gt;Node5</title>
<path fill="none" stroke="midnightblue" d="M343.852,-1140.3C352.35,-1133.28 363.147,-1123.1 370,-1112 417.082,-1035.73 438.423,-928.603 445.575,-884.819"/>
<polygon fill="midnightblue" stroke="midnightblue" points="449.075,-885.086 447.161,-874.666 442.159,-884.006 449.075,-885.086"/>
</g>
<!-- Node145 -->
<g id="node12" class="node"><title>Node145</title>
<g id="a_node12"><a xlink:href="ldo_8c.html#a2b46d9db5b9ca3d5402a0c2ac640a6b0" target="_top" xlink:title=" ">
<polygon fill="white" stroke="black" points="866.5,-1254.5 866.5,-1273.5 931.5,-1273.5 931.5,-1254.5 866.5,-1254.5"/>
<text text-anchor="middle" x="899" y="-1261.5" font-family="Helvetica,sans-Serif" font-size="10.00">luaD_throw</text>
</a>
</g>
</g>
<!-- Node4&#45;&gt;Node145 -->
<g id="edge69" class="edge"><title>Node4&#45;&gt;Node145</title>
<path fill="none" stroke="midnightblue" d="M337.563,-1159.51C361.388,-1192.78 447.15,-1302 546.5,-1302 546.5,-1302 546.5,-1302 641,-1302 717.586,-1302 805.642,-1285.28 856.259,-1274.02"/>
<polygon fill="midnightblue" stroke="midnightblue" points="857.189,-1277.4 866.171,-1271.78 855.645,-1270.57 857.189,-1277.4"/>
</g>
<!-- Node6 -->
<g id="node6" class="node"><title>Node6</title>
<g id="a_node6"><a xlink:href="ldo_8c.html#aa7d32ccef16c2d4fe63604c4c457831d" target="_top" xlink:title=" ">
<polygon fill="white" stroke="black" points="529,-589.5 529,-608.5 566,-608.5 566,-589.5 529,-589.5"/>
<text text-anchor="middle" x="547.5" y="-596.5" font-family="Helvetica,sans-Serif" font-size="10.00">ccall</text>
</a>
</g>
</g>
<!-- Node5&#45;&gt;Node6 -->
<g id="edge5" class="edge"><title>Node5&#45;&gt;Node6</title>
<path fill="none" stroke="midnightblue" d="M454.031,-855.217C468.145,-816.108 520.667,-670.578 539.622,-618.057"/>
<polygon fill="midnightblue" stroke="midnightblue" points="542.936,-619.185 543.039,-608.591 536.352,-616.809 542.936,-619.185"/>
</g>
<!-- Node7 -->
<g id="node7" class="node"><title>Node7</title>
<g id="a_node7"><a xlink:href="ldo_8c.html#a6ef9a33a964a596c36af61d452260bf5" target="_top" xlink:title=" ">
<polygon fill="white" stroke="black" points="727.5,-152.5 727.5,-171.5 797.5,-171.5 797.5,-152.5 727.5,-152.5"/>
<text text-anchor="middle" x="762.5" y="-159.5" font-family="Helvetica,sans-Serif" font-size="10.00">luaD_precall</text>
</a>
</g>
</g>
<!-- Node6&#45;&gt;Node7 -->
<g id="edge6" class="edge"><title>Node6&#45;&gt;Node7</title>
<path fill="none" stroke="midnightblue" d="M549.537,-589.288C555.391,-539.116 588.663,-306.778 714,-181 715.411,-179.584 716.94,-178.271 718.557,-177.052"/>
<polygon fill="midnightblue" stroke="midnightblue" points="720.539,-179.943 727.22,-171.72 716.869,-173.982 720.539,-179.943"/>
</g>
<!-- Node144 -->
<g id="node11" class="node"><title>Node144</title>
<g id="a_node11"><a xlink:href="lstate_8c.html#a3da163a7316194f3a2cb950ee2b4e614" target="_top" xlink:title=" ">
<polygon fill="white" stroke="black" points="714,-1254.5 714,-1273.5 811,-1273.5 811,-1254.5 714,-1254.5"/>
<text text-anchor="middle" x="762.5" y="-1261.5" font-family="Helvetica,sans-Serif" font-size="10.00">luaE_checkcstack</text>
</a>
</g>
</g>
<!-- Node6&#45;&gt;Node144 -->
<g id="edge10" class="edge"><title>Node6&#45;&gt;Node144</title>
<path fill="none" stroke="midnightblue" d="M548.201,-608.541C546.727,-671.523 546.068,-1031.4 714,-1240 716.881,-1243.58 720.434,-1246.67 724.29,-1249.33"/>
<polygon fill="midnightblue" stroke="midnightblue" points="722.677,-1252.45 733.072,-1254.49 726.223,-1246.41 722.677,-1252.45"/>
</g>
<!-- Node146 -->
<g id="node18" class="node"><title>Node146</title>
<g id="a_node18"><a xlink:href="lvm_8c.html#a221e6dd0bc488dc961e9007ed8e21189" target="_top" xlink:title=" ">
<polygon fill="white" stroke="red" points="602,-589.5 602,-608.5 678,-608.5 678,-589.5 602,-589.5"/>
<text text-anchor="middle" x="640" y="-596.5" font-family="Helvetica,sans-Serif" font-size="10.00">luaV_execute</text>
</a>
</g>
</g>
<!-- Node6&#45;&gt;Node146 -->
<g id="edge20" class="edge"><title>Node6&#45;&gt;Node146</title>
<path fill="none" stroke="midnightblue" d="M566.38,-599C573.716,-599 582.589,-599 591.576,-599"/>
<polygon fill="midnightblue" stroke="midnightblue" points="591.696,-602.5 601.696,-599 591.696,-595.5 591.696,-602.5"/>
</g>
<!-- Node8 -->
<g id="node8" class="node"><title>Node8</title>
<g id="a_node8"><a xlink:href="ldo_8c.html#aa74dd2ed1bf68092213c0cd69d3a8aab" target="_top" xlink:title=" ">
<polygon fill="white" stroke="black" points="868,-456.5 868,-475.5 930,-475.5 930,-456.5 868,-456.5"/>
<text text-anchor="middle" x="899" y="-463.5" font-family="Helvetica,sans-Serif" font-size="10.00">luaD_hook</text>
</a>
</g>
</g>
<!-- Node7&#45;&gt;Node8 -->
<g id="edge7" class="edge"><title>Node7&#45;&gt;Node8</title>
<path fill="none" stroke="midnightblue" d="M797.571,-171.212C802.566,-173.741 807.274,-176.946 811,-181 847.923,-221.172 883.066,-388.639 894.294,-446.351"/>
<polygon fill="midnightblue" stroke="midnightblue" points="890.893,-447.198 896.214,-456.36 897.767,-445.879 890.893,-447.198"/>
</g>
<!-- Node9 -->
<g id="node9" class="node"><title>Node9</title>
<g id="a_node9"><a xlink:href="ldo_8c.html#a93ef0e89dcfdd64224670aa54d7e4f5b" target="_top" xlink:title=" ">
<polygon fill="white" stroke="red" points="863,-209.5 863,-228.5 935,-228.5 935,-209.5 863,-209.5"/>
<text text-anchor="middle" x="899" y="-216.5" font-family="Helvetica,sans-Serif" font-size="10.00">luaD_poscall</text>
</a>
</g>
</g>
<!-- Node7&#45;&gt;Node9 -->
<g id="edge8" class="edge"><title>Node7&#45;&gt;Node9</title>
<path fill="none" stroke="midnightblue" d="M787.724,-171.52C795.207,-174.506 803.462,-177.847 811,-181 829.812,-188.869 850.761,-198.007 867.387,-205.35"/>
<polygon fill="midnightblue" stroke="midnightblue" points="866.067,-208.593 876.628,-209.443 868.902,-202.193 866.067,-208.593"/>
</g>
<!-- Node143 -->
<g id="node10" class="node"><title>Node143</title>
<g id="a_node10"><a xlink:href="ldo_8c.html#ac468380c26188a69262776f07bdf7780" target="_top" xlink:title=" ">
<polygon fill="white" stroke="red" points="857,-133.5 857,-152.5 941,-152.5 941,-133.5 857,-133.5"/>
<text text-anchor="middle" x="899" y="-140.5" font-family="Helvetica,sans-Serif" font-size="10.00">luaD_tryfuncTM</text>
</a>
</g>
</g>
<!-- Node7&#45;&gt;Node143 -->
<g id="edge9" class="edge"><title>Node7&#45;&gt;Node143</title>
<path fill="none" stroke="midnightblue" d="M797.788,-157.156C812.612,-155.062 830.275,-152.567 846.614,-150.259"/>
<polygon fill="midnightblue" stroke="midnightblue" points="847.166,-153.716 856.578,-148.851 846.187,-146.785 847.166,-153.716"/>
</g>
<!-- Node144&#45;&gt;Node145 -->
<g id="edge11" class="edge"><title>Node144&#45;&gt;Node145</title>
<path fill="none" stroke="midnightblue" d="M811.298,-1264C826.002,-1264 842.063,-1264 856.322,-1264"/>
<polygon fill="midnightblue" stroke="midnightblue" points="856.341,-1267.5 866.341,-1264 856.341,-1260.5 856.341,-1267.5"/>
</g>
<!-- Node32 -->
<g id="node17" class="node"><title>Node32</title>
<g id="a_node17"><a xlink:href="ldebug_8c.html#a88d38ca5da2e7a1492fc9d5ad70c32c5" target="_top" xlink:title=" ">
<polygon fill="white" stroke="red" points="861.5,-874.5 861.5,-893.5 936.5,-893.5 936.5,-874.5 861.5,-874.5"/>
<text text-anchor="middle" x="899" y="-881.5" font-family="Helvetica,sans-Serif" font-size="10.00">luaG_runerror</text>
</a>
</g>
</g>
<!-- Node144&#45;&gt;Node32 -->
<g id="edge18" class="edge"><title>Node144&#45;&gt;Node32</title>
<path fill="none" stroke="midnightblue" d="M774.407,-1254.22C785.437,-1243.68 802.093,-1225.87 811,-1207 847.686,-1129.28 823.52,-1099.68 847,-1017 858.816,-975.393 878.292,-928.557 889.446,-903.059"/>
<polygon fill="midnightblue" stroke="midnightblue" points="892.695,-904.365 893.54,-893.804 886.294,-901.533 892.695,-904.365"/>
</g>
<!-- Node145&#45;&gt;Node145 -->
<g id="edge13" class="edge"><title>Node145&#45;&gt;Node145</title>
<path fill="none" stroke="midnightblue" d="M878.655,-1273.76C868.757,-1282.57 875.539,-1292 899,-1292 914.03,-1292 922.214,-1288.13 923.553,-1283.03"/>
<polygon fill="midnightblue" stroke="midnightblue" points="926.665,-1281.42 919.345,-1273.76 920.291,-1284.31 926.665,-1281.42"/>
</g>
<!-- Node16 -->
<g id="node13" class="node"><title>Node16</title>
<g id="a_node13"><a xlink:href="ldo_8c.html#a2a5656cf723dffe2e9b5314260bd8896" target="_top" xlink:title=" ">
<polygon fill="white" stroke="black" points="1235,-1244.5 1235,-1263.5 1322,-1263.5 1322,-1244.5 1235,-1244.5"/>
<text text-anchor="middle" x="1278.5" y="-1251.5" font-family="Helvetica,sans-Serif" font-size="10.00">luaD_seterrorobj</text>
</a>
</g>
</g>
<!-- Node145&#45;&gt;Node16 -->
<g id="edge12" class="edge"><title>Node145&#45;&gt;Node16</title>
<path fill="none" stroke="midnightblue" d="M931.561,-1268.02C986.244,-1274.29 1102.05,-1284.57 1199,-1273 1211.06,-1271.56 1223.95,-1268.92 1235.72,-1266.06"/>
<polygon fill="midnightblue" stroke="midnightblue" points="1236.9,-1269.37 1245.73,-1263.51 1235.18,-1262.58 1236.9,-1269.37"/>
</g>
<!-- Node11 -->
<g id="node14" class="node"><title>Node11</title>
<g id="a_node14"><a xlink:href="lfunc_8c.html#ae9fcbf80b5969afd9412b9aed102f94e" target="_top" xlink:title=" ">
<polygon fill="white" stroke="black" points="999,-1225.5 999,-1244.5 1063,-1244.5 1063,-1225.5 999,-1225.5"/>
<text text-anchor="middle" x="1031" y="-1232.5" font-family="Helvetica,sans-Serif" font-size="10.00">luaF_close</text>
</a>
</g>
</g>
<!-- Node145&#45;&gt;Node11 -->
<g id="edge14" class="edge"><title>Node145&#45;&gt;Node11</title>
<path fill="none" stroke="midnightblue" d="M931.802,-1256.91C949.053,-1253.06 970.569,-1248.26 989.06,-1244.13"/>
<polygon fill="midnightblue" stroke="midnightblue" points="989.977,-1247.51 998.975,-1241.92 988.453,-1240.68 989.977,-1247.51"/>
</g>
<!-- Node12 -->
<g id="node15" class="node"><title>Node12</title>
<g id="a_node15"><a xlink:href="lfunc_8c.html#a4105c820bb9b1b4b4b3bd6613b0ccb05" target="_top" xlink:title=" ">
<polygon fill="white" stroke="red" points="1119.5,-1244.5 1119.5,-1263.5 1190.5,-1263.5 1190.5,-1244.5 1119.5,-1244.5"/>
<text text-anchor="middle" x="1155" y="-1251.5" font-family="Helvetica,sans-Serif" font-size="10.00">callclosemth</text>
</a>
</g>
</g>
<!-- Node11&#45;&gt;Node12 -->
<g id="edge15" class="edge"><title>Node11&#45;&gt;Node12</title>
<path fill="none" stroke="midnightblue" d="M1063.1,-1239.84C1076.98,-1242.01 1093.61,-1244.59 1108.82,-1246.96"/>
<polygon fill="midnightblue" stroke="midnightblue" points="1108.66,-1250.48 1119.08,-1248.56 1109.74,-1243.56 1108.66,-1250.48"/>
</g>
<!-- Node94 -->
<g id="node16" class="node"><title>Node94</title>
<g id="a_node16"><a xlink:href="lfunc_8c.html#a3b5a5ae122e85af5c941e9b4ffff53bd" target="_top" xlink:title=" ">
<polygon fill="white" stroke="black" points="1111,-1206.5 1111,-1225.5 1199,-1225.5 1199,-1206.5 1111,-1206.5"/>
<text text-anchor="middle" x="1155" y="-1213.5" font-family="Helvetica,sans-Serif" font-size="10.00">luaF_unlinkupval</text>
</a>
</g>
</g>
<!-- Node11&#45;&gt;Node94 -->
<g id="edge17" class="edge"><title>Node11&#45;&gt;Node94</title>
<path fill="none" stroke="midnightblue" d="M1063.1,-1230.16C1074.58,-1228.37 1087.93,-1226.29 1100.81,-1224.28"/>
<polygon fill="midnightblue" stroke="midnightblue" points="1101.65,-1227.7 1110.99,-1222.7 1100.57,-1220.78 1101.65,-1227.7"/>
</g>
<!-- Node12&#45;&gt;Node16 -->
<g id="edge16" class="edge"><title>Node12&#45;&gt;Node16</title>
<path fill="none" stroke="midnightblue" d="M1190.82,-1254C1201.34,-1254 1213.14,-1254 1224.57,-1254"/>
<polygon fill="midnightblue" stroke="midnightblue" points="1224.91,-1257.5 1234.91,-1254 1224.91,-1250.5 1224.91,-1257.5"/>
</g>
<!-- Node32&#45;&gt;Node4 -->
<g id="edge19" class="edge"><title>Node32&#45;&gt;Node4</title>
<path fill="none" stroke="midnightblue" d="M894.088,-893.605C885.263,-915.395 863.308,-970.307 847,-1017 829.48,-1067.16 852.042,-1097.26 811,-1131 752.274,-1179.28 717.026,-1150 641,-1150 546.5,-1150 546.5,-1150 546.5,-1150 489.523,-1150 424.072,-1150 380.393,-1150"/>
<polygon fill="midnightblue" stroke="midnightblue" points="380.324,-1146.5 370.324,-1150 380.324,-1153.5 380.324,-1146.5"/>
</g>
<!-- Node146&#45;&gt;Node7 -->
<g id="edge34" class="edge"><title>Node146&#45;&gt;Node7</title>
<path fill="none" stroke="midnightblue" d="M643.808,-589.453C650.571,-566.159 667.946,-504.469 678,-452 689.433,-392.334 676.696,-228.949 714,-181 715.418,-179.177 717.038,-177.529 718.804,-176.038"/>
<polygon fill="midnightblue" stroke="midnightblue" points="720.868,-178.87 727.312,-170.46 717.03,-173.016 720.868,-178.87"/>
</g>
<!-- Node146&#45;&gt;Node9 -->
<g id="edge33" class="edge"><title>Node146&#45;&gt;Node9</title>
<path fill="none" stroke="midnightblue" d="M643.638,-589.419C650.024,-566.047 666.625,-504.198 678,-452 696.765,-365.89 652.343,-319.972 714,-257 732.922,-237.675 804.539,-227.441 852.642,-222.629"/>
<polygon fill="midnightblue" stroke="midnightblue" points="853.199,-226.092 862.821,-221.656 852.533,-219.124 853.199,-226.092"/>
</g>
<!-- Node146&#45;&gt;Node143 -->
<g id="edge36" class="edge"><title>Node146&#45;&gt;Node143</title>
<path fill="none" stroke="midnightblue" d="M640.939,-589.319C640.777,-528.822 643.23,-203.342 714,-143 754.672,-108.321 820.78,-118.974 861.7,-130.516"/>
<polygon fill="midnightblue" stroke="midnightblue" points="860.947,-133.943 871.53,-133.442 862.945,-127.235 860.947,-133.943"/>
</g>
<!-- Node146&#45;&gt;Node11 -->
<g id="edge37" class="edge"><title>Node146&#45;&gt;Node11</title>
<path fill="none" stroke="midnightblue" d="M641.813,-608.665C648.26,-684.765 691.433,-1185.12 714,-1207 752.1,-1243.93 911.87,-1241.13 988.567,-1237.49"/>
<polygon fill="midnightblue" stroke="midnightblue" points="989.005,-1240.97 998.816,-1236.97 988.653,-1233.98 989.005,-1240.97"/>
</g>
<!-- Node147 -->
<g id="node19" class="node"><title>Node147</title>
<g id="a_node19"><a xlink:href="lparser_8c.html#a24002c50a108445d916457eb3c21d5e1" target="_top" xlink:title=" ">
<polygon fill="white" stroke="red" points="743.5,-570.5 743.5,-589.5 781.5,-589.5 781.5,-570.5 743.5,-570.5"/>
<text text-anchor="middle" x="762.5" y="-577.5" font-family="Helvetica,sans-Serif" font-size="10.00">cond</text>
</a>
</g>
</g>
<!-- Node146&#45;&gt;Node147 -->
<g id="edge21" class="edge"><title>Node146&#45;&gt;Node147</title>
<path fill="none" stroke="midnightblue" d="M678.137,-593.144C695.949,-590.336 716.938,-587.026 733.399,-584.431"/>
<polygon fill="midnightblue" stroke="midnightblue" points="734.151,-587.856 743.483,-582.841 733.06,-580.941 734.151,-587.856"/>
</g>
<!-- Node408 -->
<g id="node20" class="node"><title>Node408</title>
<g id="a_node20"><a xlink:href="lvm_8c.html#ae1da05262daf2e1f5616c2f0e6472264" target="_top" xlink:title=" ">
<polygon fill="white" stroke="black" points="731,-532.5 731,-551.5 794,-551.5 794,-532.5 731,-532.5"/>
<text text-anchor="middle" x="762.5" y="-539.5" font-family="Helvetica,sans-Serif" font-size="10.00">floatforloop</text>
</a>
</g>
</g>
<!-- Node146&#45;&gt;Node408 -->
<g id="edge22" class="edge"><title>Node146&#45;&gt;Node408</title>
<path fill="none" stroke="midnightblue" d="M658.164,-589.448C672.807,-581.449 694.521,-569.939 714,-561 718.107,-559.115 722.457,-557.229 726.792,-555.417"/>
<polygon fill="midnightblue" stroke="midnightblue" points="728.221,-558.615 736.158,-551.596 725.576,-552.133 728.221,-558.615"/>
</g>
<!-- Node384 -->
<g id="node21" class="node"><title>Node384</title>
<g id="a_node21"><a xlink:href="lvm_8c.html#a8d9c9746ae6f28dd1b17982a88589b51" target="_top" xlink:title=" ">
<polygon fill="white" stroke="red" points="739.5,-874.5 739.5,-893.5 785.5,-893.5 785.5,-874.5 739.5,-874.5"/>
<text text-anchor="middle" x="762.5" y="-881.5" font-family="Helvetica,sans-Serif" font-size="10.00">forprep</text>
</a>
</g>
</g>
<!-- Node146&#45;&gt;Node384 -->
<g id="edge23" class="edge"><title>Node146&#45;&gt;Node384</title>
<path fill="none" stroke="midnightblue" d="M640.761,-608.64C640.348,-646.454 643.816,-786.428 714,-865 718.169,-869.668 723.643,-873.206 729.386,-875.882"/>
<polygon fill="midnightblue" stroke="midnightblue" points="728.534,-879.303 739.124,-879.619 731.042,-872.768 728.534,-879.303"/>
</g>
<!-- Node409 -->
<g id="node22" class="node"><title>Node409</title>
<g id="a_node22"><a xlink:href="lvm_8c.html#aa531a8c826e4bbb1918f43bd84b9456a" target="_top" xlink:title=" ">
<polygon fill="white" stroke="red" points="739,-494.5 739,-513.5 786,-513.5 786,-494.5 739,-494.5"/>
<text text-anchor="middle" x="762.5" y="-501.5" font-family="Helvetica,sans-Serif" font-size="10.00">LEnum</text>
</a>
</g>
</g>
<!-- Node146&#45;&gt;Node409 -->
<g id="edge25" class="edge"><title>Node146&#45;&gt;Node409</title>
<path fill="none" stroke="midnightblue" d="M648.06,-589.326C660.032,-573.52 685.781,-542.018 714,-523 718.695,-519.836 723.998,-517.069 729.314,-514.698"/>
<polygon fill="midnightblue" stroke="midnightblue" points="730.821,-517.864 738.769,-510.858 728.187,-511.378 730.821,-517.864"/>
</g>
<!-- Node412 -->
<g id="node23" class="node"><title>Node412</title>
<g id="a_node23"><a xlink:href="lvm_8c.html#aa12d860dd59154d1952911589fd72fb2" target="_top" xlink:title=" ">
<polygon fill="white" stroke="red" points="720,-456.5 720,-475.5 805,-475.5 805,-456.5 720,-456.5"/>
<text text-anchor="middle" x="762.5" y="-463.5" font-family="Helvetica,sans-Serif" font-size="10.00">lessequalothers</text>
</a>
</g>
</g>
<!-- Node146&#45;&gt;Node412 -->
<g id="edge26" class="edge"><title>Node146&#45;&gt;Node412</title>
<path fill="none" stroke="midnightblue" d="M644.751,-589.321C653.596,-567.684 677.775,-514.951 714,-485 715.977,-483.366 718.111,-481.859 720.344,-480.47"/>
<polygon fill="midnightblue" stroke="midnightblue" points="722.132,-483.483 729.309,-475.69 718.839,-477.307 722.132,-483.483"/>
</g>
<!-- Node416 -->
<g id="node24" class="node"><title>Node416</title>
<g id="a_node24"><a xlink:href="lvm_8c.html#a13f124eec78027029d2e8fd9b83ee614" target="_top" xlink:title=" ">
<polygon fill="white" stroke="red" points="722.5,-418.5 722.5,-437.5 802.5,-437.5 802.5,-418.5 722.5,-418.5"/>
<text text-anchor="middle" x="762.5" y="-425.5" font-family="Helvetica,sans-Serif" font-size="10.00">lessthanothers</text>
</a>
</g>
</g>
<!-- Node146&#45;&gt;Node416 -->
<g id="edge27" class="edge"><title>Node146&#45;&gt;Node416</title>
<path fill="none" stroke="midnightblue" d="M643.046,-589.359C649.129,-562.938 669.521,-488.585 714,-447 715.634,-445.472 717.407,-444.061 719.274,-442.759"/>
<polygon fill="midnightblue" stroke="midnightblue" points="721.055,-445.771 727.939,-437.717 717.535,-439.721 721.055,-445.771"/>
</g>
<!-- Node417 -->
<g id="node25" class="node"><title>Node417</title>
<g id="a_node25"><a xlink:href="lvm_8c.html#a1e3534dce31fc52f71f974802bc6ace2" target="_top" xlink:title=" ">
<polygon fill="white" stroke="red" points="739.5,-380.5 739.5,-399.5 785.5,-399.5 785.5,-380.5 739.5,-380.5"/>
<text text-anchor="middle" x="762.5" y="-387.5" font-family="Helvetica,sans-Serif" font-size="10.00">LTnum</text>
</a>
</g>
</g>
<!-- Node146&#45;&gt;Node417 -->
<g id="edge28" class="edge"><title>Node146&#45;&gt;Node417</title>
<path fill="none" stroke="midnightblue" d="M642.013,-589.255C645.707,-558.534 661.143,-462.585 714,-409 718.395,-404.544 723.97,-401.102 729.742,-398.452"/>
<polygon fill="midnightblue" stroke="midnightblue" points="731.396,-401.566 739.468,-394.704 728.878,-395.034 731.396,-401.566"/>
</g>
<!-- Node123 -->
<g id="node26" class="node"><title>Node123</title>
<g id="a_node26"><a xlink:href="ldo_8c.html#a5483fddd87ca999e7d037bf397ab7997" target="_top" xlink:title=" ">
<polygon fill="white" stroke="black" points="734.5,-0.5 734.5,-19.5 790.5,-19.5 790.5,-0.5 734.5,-0.5"/>
<text text-anchor="middle" x="762.5" y="-7.5" font-family="Helvetica,sans-Serif" font-size="10.00">luaD_call</text>
</a>
</g>
</g>
<!-- Node146&#45;&gt;Node123 -->
<g id="edge29" class="edge"><title>Node146&#45;&gt;Node123</title>
<path fill="none" stroke="midnightblue" d="M641.669,-589.058C646.598,-516.924 678.118,-75.3456 714,-29 716.97,-25.1637 720.835,-22.0996 725.079,-19.6526"/>
<polygon fill="midnightblue" stroke="midnightblue" points="726.552,-22.8275 734.154,-15.4473 723.609,-16.4763 726.552,-22.8275"/>
</g>
<!-- Node420 -->
<g id="node27" class="node"><title>Node420</title>
<g id="a_node27"><a xlink:href="ldo_8c.html#a5f30116d7e47e3db1fd226e22e903d08" target="_top" xlink:title=" ">
<polygon fill="white" stroke="black" points="724,-608.5 724,-627.5 801,-627.5 801,-608.5 724,-608.5"/>
<text text-anchor="middle" x="762.5" y="-615.5" font-family="Helvetica,sans-Serif" font-size="10.00">luaD_hookcall</text>
</a>
</g>
</g>
<!-- Node146&#45;&gt;Node420 -->
<g id="edge31" class="edge"><title>Node146&#45;&gt;Node420</title>
<path fill="none" stroke="midnightblue" d="M678.137,-604.856C689.369,-606.627 701.864,-608.597 713.69,-610.462"/>
<polygon fill="midnightblue" stroke="midnightblue" points="713.439,-613.965 723.862,-612.065 714.529,-607.051 713.439,-613.965"/>
</g>
<!-- Node421 -->
<g id="node28" class="node"><title>Node421</title>
<g id="a_node28"><a xlink:href="ldo_8c.html#a1e02e896afbe22d3a4f25ea65fd0c339" target="_top" xlink:title=" ">
<polygon fill="white" stroke="black" points="721,-342.5 721,-361.5 804,-361.5 804,-342.5 721,-342.5"/>
<text text-anchor="middle" x="762.5" y="-349.5" font-family="Helvetica,sans-Serif" font-size="10.00">luaD_pretailcall</text>
</a>
</g>
</g>
<!-- Node146&#45;&gt;Node421 -->
<g id="edge35" class="edge"><title>Node146&#45;&gt;Node421</title>
<path fill="none" stroke="midnightblue" d="M643.539,-589.456C654.535,-548.378 698.204,-387.953 714,-371 715.362,-369.538 716.852,-368.186 718.436,-366.936"/>
<polygon fill="midnightblue" stroke="midnightblue" points="720.428,-369.818 726.993,-361.502 716.675,-363.909 720.428,-369.818"/>
</g>
<!-- Node422 -->
<g id="node29" class="node"><title>Node422</title>
<g id="a_node29"><a xlink:href="lfunc_8c.html#a0f1719e232a25ecfcafed14f8b39ad31" target="_top" xlink:title=" ">
<polygon fill="white" stroke="red" points="716,-1178.5 716,-1197.5 809,-1197.5 809,-1178.5 716,-1178.5"/>
<text text-anchor="middle" x="762.5" y="-1185.5" font-family="Helvetica,sans-Serif" font-size="10.00">luaF_newtbcupval</text>
</a>
</g>
</g>
<!-- Node146&#45;&gt;Node422 -->
<g id="edge38" class="edge"><title>Node146&#45;&gt;Node422</title>
<path fill="none" stroke="midnightblue" d="M641.6,-608.705C645.65,-672.445 670.155,-1031.63 714,-1131 720.713,-1146.21 732.735,-1160.58 743.004,-1171.08"/>
<polygon fill="midnightblue" stroke="midnightblue" points="740.801,-1173.82 750.398,-1178.31 745.694,-1168.82 740.801,-1173.82"/>
</g>
<!-- Node184 -->
<g id="node30" class="node"><title>Node184</title>
<g id="a_node30"><a xlink:href="ltable_8c.html#a8b4fce00d7db27ee9caac3d49863dea3" target="_top" xlink:title=" ">
<polygon fill="white" stroke="red" points="871.5,-741.5 871.5,-760.5 926.5,-760.5 926.5,-741.5 871.5,-741.5"/>
<text text-anchor="middle" x="899" y="-748.5" font-family="Helvetica,sans-Serif" font-size="10.00">luaH_get</text>
</a>
</g>
</g>
<!-- Node146&#45;&gt;Node184 -->
<g id="edge41" class="edge"><title>Node146&#45;&gt;Node184</title>
<path fill="none" stroke="midnightblue" d="M645.563,-608.598C655.316,-628.078 680.095,-672.401 714,-696 758.965,-727.297 822.013,-741.077 861.405,-746.932"/>
<polygon fill="midnightblue" stroke="midnightblue" points="860.982,-750.407 871.369,-748.319 861.947,-743.474 860.982,-750.407"/>
</g>
<!-- Node26 -->
<g id="node31" class="node"><title>Node26</title>
<g id="a_node31"><a xlink:href="ltable_8c.html#ae8a52507e1c8966d9cf3f2dd5a0c325f" target="_top" xlink:title=" ">
<polygon fill="white" stroke="black" points="987,-684.5 987,-703.5 1075,-703.5 1075,-684.5 987,-684.5"/>
<text text-anchor="middle" x="1031" y="-691.5" font-family="Helvetica,sans-Serif" font-size="10.00">luaH_getshortstr</text>
</a>
</g>
</g>
<!-- Node146&#45;&gt;Node26 -->
<g id="edge43" class="edge"><title>Node146&#45;&gt;Node26</title>
<path fill="none" stroke="midnightblue" d="M656.028,-608.661C670.36,-617.42 692.839,-630 714,-637 815.281,-670.504 846.395,-654.067 951,-675 961.377,-677.077 972.457,-679.568 982.936,-682.052"/>
<polygon fill="midnightblue" stroke="midnightblue" points="982.215,-685.479 992.757,-684.419 983.855,-678.674 982.215,-685.479"/>
</g>
<!-- Node281 -->
<g id="node32" class="node"><title>Node281</title>
<g id="a_node32"><a xlink:href="ltable_8c.html#ae273e09d2342a84f5cdfa976c66f28c0" target="_top" xlink:title=" ">
<polygon fill="white" stroke="red" points="866,-684.5 866,-703.5 932,-703.5 932,-684.5 866,-684.5"/>
<text text-anchor="middle" x="899" y="-691.5" font-family="Helvetica,sans-Serif" font-size="10.00">luaH_getstr</text>
</a>
</g>
</g>
<!-- Node146&#45;&gt;Node281 -->
<g id="edge44" class="edge"><title>Node146&#45;&gt;Node281</title>
<path fill="none" stroke="midnightblue" d="M647.565,-608.555C659.006,-624.354 684.24,-655.602 714,-670 758.797,-691.673 816.529,-695.929 855.274,-695.896"/>
<polygon fill="midnightblue" stroke="midnightblue" points="855.71,-699.391 865.672,-695.784 855.635,-692.392 855.71,-699.391"/>
</g>
<!-- Node425 -->
<g id="node33" class="node"><title>Node425</title>
<g id="a_node33"><a xlink:href="ltable_8c.html#a6c97fb2d6a020b0a6f852562fef93d97" target="_top" xlink:title=" ">
<polygon fill="white" stroke="red" points="733,-304.5 733,-323.5 792,-323.5 792,-304.5 733,-304.5"/>
<text text-anchor="middle" x="762.5" y="-311.5" font-family="Helvetica,sans-Serif" font-size="10.00">luaH_new</text>
</a>
</g>
</g>
<!-- Node146&#45;&gt;Node425 -->
<g id="edge46" class="edge"><title>Node146&#45;&gt;Node425</title>
<path fill="none" stroke="midnightblue" d="M643.401,-589.313C654.995,-542.674 704.988,-343.089 714,-333 716.718,-329.957 719.99,-327.394 723.53,-325.238"/>
<polygon fill="midnightblue" stroke="midnightblue" points="725.321,-328.256 732.717,-320.67 722.204,-321.988 725.321,-328.256"/>
</g>
<!-- Node57 -->
<g id="node34" class="node"><title>Node57</title>
<g id="a_node34"><a xlink:href="ltable_8c.html#a8f20a204b7a78780847939086b847781" target="_top" xlink:title=" ">
<polygon fill="white" stroke="black" points="722.5,-266.5 722.5,-285.5 802.5,-285.5 802.5,-266.5 722.5,-266.5"/>
<text text-anchor="middle" x="762.5" y="-273.5" font-family="Helvetica,sans-Serif" font-size="10.00">luaH_realasize</text>
</a>
</g>
</g>
<!-- Node146&#45;&gt;Node57 -->
<g id="edge47" class="edge"><title>Node146&#45;&gt;Node57</title>
<path fill="none" stroke="midnightblue" d="M643.495,-589.386C649.562,-565.941 665.509,-503.942 678,-452 694.738,-382.396 667.453,-349.39 714,-295 715.011,-293.819 716.105,-292.711 717.267,-291.671"/>
<polygon fill="midnightblue" stroke="midnightblue" points="719.55,-294.345 725.746,-285.751 715.543,-288.606 719.55,-294.345"/>
</g>
<!-- Node198 -->
<g id="node35" class="node"><title>Node198</title>
<g id="a_node35"><a xlink:href="ltable_8c.html#aad3b771962cc13884bf7b45480e8f4e9" target="_top" xlink:title=" ">
<polygon fill="white" stroke="red" points="865,-57.5 865,-76.5 933,-76.5 933,-57.5 865,-57.5"/>
<text text-anchor="middle" x="899" y="-64.5" font-family="Helvetica,sans-Serif" font-size="10.00">luaH_resize</text>
</a>
</g>
</g>
<!-- Node146&#45;&gt;Node198 -->
<g id="edge48" class="edge"><title>Node146&#45;&gt;Node198</title>
<path fill="none" stroke="midnightblue" d="M641.07,-589.394C641.713,-527.879 648.235,-189.447 714,-116 749.346,-76.5254 812.561,-67.273 854.892,-65.8726"/>
<polygon fill="midnightblue" stroke="midnightblue" points="854.98,-69.3716 864.909,-65.6737 854.841,-62.373 854.98,-69.3716"/>
</g>
<!-- Node426 -->
<g id="node36" class="node"><title>Node426</title>
<g id="a_node36"><a xlink:href="ltable_8c.html#aeb5ce72fe8d43709093264d6522a27d4" target="_top" xlink:title=" ">
<polygon fill="white" stroke="black" points="718,-38.5 718,-57.5 807,-57.5 807,-38.5 718,-38.5"/>
<text text-anchor="middle" x="762.5" y="-45.5" font-family="Helvetica,sans-Serif" font-size="10.00">luaH_resizearray</text>
</a>
</g>
</g>
<!-- Node146&#45;&gt;Node426 -->
<g id="edge49" class="edge"><title>Node146&#45;&gt;Node426</title>
<path fill="none" stroke="midnightblue" d="M641.147,-589.123C642.289,-524.292 651.451,-159.561 714,-72 716.477,-68.5323 719.604,-65.535 723.065,-62.9513"/>
<polygon fill="midnightblue" stroke="midnightblue" points="724.956,-65.8972 731.602,-57.6462 721.261,-59.9517 724.956,-65.8972"/>
</g>
<!-- Node427 -->
<g id="node37" class="node"><title>Node427</title>
<g id="a_node37"><a xlink:href="ltm_8c.html#a1081ea0d2d04c01c3df1acf2bc7735f5" target="_top" xlink:title=" ">
<polygon fill="white" stroke="black" points="714,-190.5 714,-209.5 811,-209.5 811,-190.5 714,-190.5"/>
<text text-anchor="middle" x="762.5" y="-197.5" font-family="Helvetica,sans-Serif" font-size="10.00">luaT_adjustvarargs</text>
</a>
</g>
</g>
<!-- Node146&#45;&gt;Node427 -->
<g id="edge51" class="edge"><title>Node146&#45;&gt;Node427</title>
<path fill="none" stroke="midnightblue" d="M643.726,-589.437C650.305,-566.106 667.303,-504.341 678,-452 698.541,-351.489 653.579,-306.908 714,-224 716.51,-220.556 719.657,-217.574 723.131,-214.999"/>
<polygon fill="midnightblue" stroke="midnightblue" points="725.023,-217.944 731.683,-209.704 721.338,-211.993 725.023,-217.944"/>
</g>
<!-- Node428 -->
<g id="node38" class="node"><title>Node428</title>
<g id="a_node38"><a xlink:href="ltm_8c.html#aca3c9e53a1867994012af56282cb2b04" target="_top" xlink:title=" ">
<polygon fill="white" stroke="black" points="720.5,-1102.5 720.5,-1121.5 804.5,-1121.5 804.5,-1102.5 720.5,-1102.5"/>
<text text-anchor="middle" x="762.5" y="-1109.5" font-family="Helvetica,sans-Serif" font-size="10.00">luaT_getvarargs</text>
</a>
</g>
</g>
<!-- Node146&#45;&gt;Node428 -->
<g id="edge52" class="edge"><title>Node146&#45;&gt;Node428</title>
<path fill="none" stroke="midnightblue" d="M641.153,-608.725C642.319,-671.012 651.534,-1013.91 714,-1093 714.963,-1094.22 716.017,-1095.36 717.144,-1096.43"/>
<polygon fill="midnightblue" stroke="midnightblue" points="715.321,-1099.43 725.469,-1102.48 719.435,-1093.77 715.321,-1099.43"/>
</g>
<!-- Node429 -->
<g id="node39" class="node"><title>Node429</title>
<g id="a_node39"><a xlink:href="ltm_8c.html#a7846e77f88b80370e536c5d8d6fe4abf" target="_top" xlink:title=" ">
<polygon fill="white" stroke="black" points="847,-1026.5 847,-1045.5 951,-1045.5 951,-1026.5 847,-1026.5"/>
<text text-anchor="middle" x="899" y="-1033.5" font-family="Helvetica,sans-Serif" font-size="10.00">luaT_trybinassocTM</text>
</a>
</g>
</g>
<!-- Node146&#45;&gt;Node429 -->
<g id="edge53" class="edge"><title>Node146&#45;&gt;Node429</title>
<path fill="none" stroke="midnightblue" d="M641.223,-608.751C642.733,-665.629 653.335,-954.019 714,-1012 745.922,-1042.51 796.409,-1047.23 836.43,-1045.03"/>
<polygon fill="midnightblue" stroke="midnightblue" points="836.895,-1048.5 846.624,-1044.31 836.402,-1041.52 836.895,-1048.5"/>
</g>
<!-- Node430 -->
<g id="node40" class="node"><title>Node430</title>
<g id="a_node40"><a xlink:href="ltm_8c.html#a2adc638eccb971b8abaf27f60611e913" target="_top" xlink:title=" ">
<polygon fill="white" stroke="red" points="992.5,-1007.5 992.5,-1026.5 1069.5,-1026.5 1069.5,-1007.5 992.5,-1007.5"/>
<text text-anchor="middle" x="1031" y="-1014.5" font-family="Helvetica,sans-Serif" font-size="10.00">luaT_trybinTM</text>
</a>
</g>
</g>
<!-- Node146&#45;&gt;Node430 -->
<g id="edge57" class="edge"><title>Node146&#45;&gt;Node430</title>
<path fill="none" stroke="midnightblue" d="M641.372,-608.683C643.657,-662.717 657.614,-926.435 714,-979 733.254,-996.949 898.924,-1009.23 982.375,-1014.34"/>
<polygon fill="midnightblue" stroke="midnightblue" points="982.179,-1017.83 992.371,-1014.94 982.599,-1010.85 982.179,-1017.83"/>
</g>
<!-- Node433 -->
<g id="node41" class="node"><title>Node433</title>
<g id="a_node41"><a xlink:href="ltm_8c.html#a18a26597986e82535c3d37fd5351eb6e" target="_top" xlink:title=" ">
<polygon fill="white" stroke="black" points="722.5,-1064.5 722.5,-1083.5 802.5,-1083.5 802.5,-1064.5 722.5,-1064.5"/>
<text text-anchor="middle" x="762.5" y="-1071.5" font-family="Helvetica,sans-Serif" font-size="10.00">luaT_trybiniTM</text>
</a>
</g>
</g>
<!-- Node146&#45;&gt;Node433 -->
<g id="edge55" class="edge"><title>Node146&#45;&gt;Node433</title>
<path fill="none" stroke="midnightblue" d="M641.388,-608.566C643.927,-667.012 659.784,-975.907 714,-1050 716.517,-1053.44 719.668,-1056.42 723.145,-1058.99"/>
<polygon fill="midnightblue" stroke="midnightblue" points="721.353,-1062 731.699,-1064.28 725.036,-1056.05 721.353,-1062"/>
</g>
<!-- Node118 -->
<g id="node42" class="node"><title>Node118</title>
<g id="a_node42"><a xlink:href="lvm_8c.html#a2f076040af405dcb50d661edd692eca7" target="_top" xlink:title=" ">
<polygon fill="white" stroke="red" points="727,-836.5 727,-855.5 798,-855.5 798,-836.5 727,-836.5"/>
<text text-anchor="middle" x="762.5" y="-843.5" font-family="Helvetica,sans-Serif" font-size="10.00">luaV_concat</text>
</a>
</g>
</g>
<!-- Node146&#45;&gt;Node118 -->
<g id="edge58" class="edge"><title>Node146&#45;&gt;Node118</title>
<path fill="none" stroke="midnightblue" d="M641.286,-608.668C642.815,-643.072 652.517,-761.013 714,-827 715.362,-828.462 716.852,-829.814 718.436,-831.064"/>
<polygon fill="midnightblue" stroke="midnightblue" points="716.675,-834.091 726.993,-836.498 720.428,-828.182 716.675,-834.091"/>
</g>
<!-- Node434 -->
<g id="node43" class="node"><title>Node434</title>
<g id="a_node43"><a xlink:href="lvm_8c.html#a4826066036eb5f7cf0f8a33f7073f49e" target="_top" xlink:title=" ">
<polygon fill="white" stroke="red" points="724,-950.5 724,-969.5 801,-969.5 801,-950.5 724,-950.5"/>
<text text-anchor="middle" x="762.5" y="-957.5" font-family="Helvetica,sans-Serif" font-size="10.00">luaV_equalobj</text>
</a>
</g>
</g>
<!-- Node146&#45;&gt;Node434 -->
<g id="edge60" class="edge"><title>Node146&#45;&gt;Node434</title>
<path fill="none" stroke="midnightblue" d="M641.858,-608.809C646.44,-659.152 669.495,-888.193 714,-941 715.002,-942.189 716.088,-943.303 717.244,-944.349"/>
<polygon fill="midnightblue" stroke="midnightblue" points="715.501,-947.402 725.694,-950.294 719.529,-941.677 715.501,-947.402"/>
</g>
<!-- Node435 -->
<g id="node44" class="node"><title>Node435</title>
<g id="a_node44"><a xlink:href="lvm_8c.html#a45c30a70c51ed843f58bd446aa2096c9" target="_top" xlink:title=" ">
<polygon fill="white" stroke="red" points="724,-760.5 724,-779.5 801,-779.5 801,-760.5 724,-760.5"/>
<text text-anchor="middle" x="762.5" y="-767.5" font-family="Helvetica,sans-Serif" font-size="10.00">luaV_finishget</text>
</a>
</g>
</g>
<!-- Node146&#45;&gt;Node435 -->
<g id="edge61" class="edge"><title>Node146&#45;&gt;Node435</title>
<path fill="none" stroke="midnightblue" d="M643.533,-608.866C650.574,-634.545 672.638,-704.35 714,-746 717.65,-749.675 721.979,-752.892 726.515,-755.674"/>
<polygon fill="midnightblue" stroke="midnightblue" points="724.913,-758.787 735.369,-760.497 728.261,-752.64 724.913,-758.787"/>
</g>
<!-- Node436 -->
<g id="node45" class="node"><title>Node436</title>
<g id="a_node45"><a xlink:href="lvm_8c.html#a190116824dc13c5d37a6b2962f425a0d" target="_top" xlink:title=" ">
<polygon fill="white" stroke="red" points="724,-798.5 724,-817.5 801,-817.5 801,-798.5 724,-798.5"/>
<text text-anchor="middle" x="762.5" y="-805.5" font-family="Helvetica,sans-Serif" font-size="10.00">luaV_finishset</text>
</a>
</g>
</g>
<!-- Node146&#45;&gt;Node436 -->
<g id="edge64" class="edge"><title>Node146&#45;&gt;Node436</title>
<path fill="none" stroke="midnightblue" d="M642.013,-608.745C645.707,-639.466 661.143,-735.415 714,-789 715.403,-790.423 716.927,-791.742 718.539,-792.965"/>
<polygon fill="midnightblue" stroke="midnightblue" points="716.84,-796.03 727.186,-798.314 720.522,-790.077 716.84,-796.03"/>
</g>
<!-- Node265 -->
<g id="node46" class="node"><title>Node265</title>
<g id="a_node46"><a xlink:href="lvm_8c.html#a8815b6d106992c5713900b20a0da5e29" target="_top" xlink:title=" ">
<polygon fill="white" stroke="black" points="735,-912.5 735,-931.5 790,-931.5 790,-912.5 735,-912.5"/>
<text text-anchor="middle" x="762.5" y="-919.5" font-family="Helvetica,sans-Serif" font-size="10.00">luaV_idiv</text>
</a>
</g>
</g>
<!-- Node146&#45;&gt;Node265 -->
<g id="edge67" class="edge"><title>Node146&#45;&gt;Node265</title>
<path fill="none" stroke="midnightblue" d="M642.12,-608.635C647.704,-655.202 673.882,-856.606 714,-903 717.173,-906.67 721.155,-909.639 725.456,-912.039"/>
<polygon fill="midnightblue" stroke="midnightblue" points="724.025,-915.233 734.575,-916.208 726.936,-908.867 724.025,-915.233"/>
</g>
<!-- Node384&#45;&gt;Node32 -->
<g id="edge24" class="edge"><title>Node384&#45;&gt;Node32</title>
<path fill="none" stroke="midnightblue" d="M785.71,-884C803.423,-884 828.852,-884 851.033,-884"/>
<polygon fill="midnightblue" stroke="midnightblue" points="851.283,-887.5 861.283,-884 851.283,-880.5 851.283,-887.5"/>
</g>
<!-- Node123&#45;&gt;Node6 -->
<g id="edge30" class="edge"><title>Node123&#45;&gt;Node6</title>
<path fill="none" stroke="midnightblue" d="M734.11,-17.3831C727.021,-20.2049 719.768,-23.9923 714,-29 638.531,-94.5236 634.531,-129.498 602,-224 557.142,-354.311 549.875,-522.568 548.714,-579.322"/>
<polygon fill="midnightblue" stroke="midnightblue" points="545.213,-579.361 548.551,-589.416 552.213,-579.474 545.213,-579.361"/>
</g>
<!-- Node420&#45;&gt;Node8 -->
<g id="edge32" class="edge"><title>Node420&#45;&gt;Node8</title>
<path fill="none" stroke="midnightblue" d="M795.165,-608.499C800.785,-605.96 806.327,-602.826 811,-599 849.79,-567.244 877.342,-513.572 890.069,-485.087"/>
<polygon fill="midnightblue" stroke="midnightblue" points="893.32,-486.387 894.081,-475.82 886.896,-483.607 893.32,-486.387"/>
</g>
<!-- Node422&#45;&gt;Node145 -->
<g id="edge40" class="edge"><title>Node422&#45;&gt;Node145</title>
<path fill="none" stroke="midnightblue" d="M780.535,-1197.63C803.678,-1210.7 845.254,-1234.2 872.227,-1249.44"/>
<polygon fill="midnightblue" stroke="midnightblue" points="870.676,-1252.58 881.104,-1254.45 874.119,-1246.49 870.676,-1252.58"/>
</g>
<!-- Node422&#45;&gt;Node16 -->
<g id="edge39" class="edge"><title>Node422&#45;&gt;Node16</title>
<path fill="none" stroke="midnightblue" d="M809.216,-1180.21C890.256,-1168.3 1063.34,-1151.39 1199,-1197 1223.25,-1205.15 1246.35,-1223.69 1261.14,-1237.43"/>
<polygon fill="midnightblue" stroke="midnightblue" points="1258.82,-1240.05 1268.45,-1244.47 1263.67,-1235.01 1258.82,-1240.05"/>
</g>
<!-- Node184&#45;&gt;Node26 -->
<g id="edge42" class="edge"><title>Node184&#45;&gt;Node26</title>
<path fill="none" stroke="midnightblue" d="M921.759,-741.459C942.85,-732.212 975.058,-718.09 998.861,-707.653"/>
<polygon fill="midnightblue" stroke="midnightblue" points="1000.42,-710.793 1008.17,-703.572 997.606,-704.382 1000.42,-710.793"/>
</g>
<!-- Node281&#45;&gt;Node26 -->
<g id="edge45" class="edge"><title>Node281&#45;&gt;Node26</title>
<path fill="none" stroke="midnightblue" d="M932.135,-694C945.575,-694 961.559,-694 976.672,-694"/>
<polygon fill="midnightblue" stroke="midnightblue" points="976.955,-697.5 986.954,-694 976.954,-690.5 976.955,-697.5"/>
</g>
<!-- Node426&#45;&gt;Node198 -->
<g id="edge50" class="edge"><title>Node426&#45;&gt;Node198</title>
<path fill="none" stroke="midnightblue" d="M807.168,-54.1688C822.375,-56.3169 839.424,-58.7253 854.608,-60.8703"/>
<polygon fill="midnightblue" stroke="midnightblue" points="854.386,-64.3736 864.777,-62.3068 855.365,-57.4424 854.386,-64.3736"/>
</g>
<!-- Node429&#45;&gt;Node430 -->
<g id="edge54" class="edge"><title>Node429&#45;&gt;Node430</title>
<path fill="none" stroke="midnightblue" d="M951.006,-1028.55C961.356,-1027.03 972.203,-1025.45 982.428,-1023.95"/>
<polygon fill="midnightblue" stroke="midnightblue" points="983.017,-1027.4 992.405,-1022.49 982.004,-1020.48 983.017,-1027.4"/>
</g>
<!-- Node433&#45;&gt;Node429 -->
<g id="edge56" class="edge"><title>Node433&#45;&gt;Node429</title>
<path fill="none" stroke="midnightblue" d="M797.44,-1064.41C814.723,-1059.53 835.933,-1053.54 854.411,-1048.32"/>
<polygon fill="midnightblue" stroke="midnightblue" points="855.399,-1051.67 864.071,-1045.59 853.496,-1044.94 855.399,-1051.67"/>
</g>
<!-- Node118&#45;&gt;Node32 -->
<g id="edge59" class="edge"><title>Node118&#45;&gt;Node32</title>
<path fill="none" stroke="midnightblue" d="M797.44,-855.589C814.723,-860.472 835.933,-866.464 854.411,-871.685"/>
<polygon fill="midnightblue" stroke="midnightblue" points="853.496,-875.063 864.071,-874.414 855.399,-868.327 853.496,-875.063"/>
</g>
<!-- Node435&#45;&gt;Node32 -->
<g id="edge62" class="edge"><title>Node435&#45;&gt;Node32</title>
<path fill="none" stroke="midnightblue" d="M793.689,-779.7C799.681,-782.269 805.74,-785.363 811,-789 842.087,-810.493 870.043,-845.008 885.455,-865.986"/>
<polygon fill="midnightblue" stroke="midnightblue" points="882.767,-868.243 891.443,-874.324 888.453,-864.16 882.767,-868.243"/>
</g>
<!-- Node435&#45;&gt;Node184 -->
<g id="edge63" class="edge"><title>Node435&#45;&gt;Node184</title>
<path fill="none" stroke="midnightblue" d="M801.324,-764.657C819.987,-762.02 842.416,-758.852 860.97,-756.231"/>
<polygon fill="midnightblue" stroke="midnightblue" points="861.697,-759.663 871.109,-754.799 860.718,-752.732 861.697,-759.663"/>
</g>
<!-- Node436&#45;&gt;Node32 -->
<g id="edge65" class="edge"><title>Node436&#45;&gt;Node32</title>
<path fill="none" stroke="midnightblue" d="M790.053,-817.538C796.995,-820.323 804.383,-823.553 811,-827 834.593,-839.29 859.843,-856.312 877.03,-868.549"/>
<polygon fill="midnightblue" stroke="midnightblue" points="875.073,-871.452 885.231,-874.461 879.166,-865.774 875.073,-871.452"/>
</g>
<!-- Node436&#45;&gt;Node184 -->
<g id="edge66" class="edge"><title>Node436&#45;&gt;Node184</title>
<path fill="none" stroke="midnightblue" d="M787.724,-798.48C795.207,-795.494 803.462,-792.153 811,-789 829.812,-781.131 850.761,-771.993 867.387,-764.65"/>
<polygon fill="midnightblue" stroke="midnightblue" points="868.902,-767.807 876.628,-760.557 866.067,-761.407 868.902,-767.807"/>
</g>
<!-- Node265&#45;&gt;Node32 -->
<g id="edge68" class="edge"><title>Node265&#45;&gt;Node32</title>
<path fill="none" stroke="midnightblue" d="M790.073,-914.492C808.446,-909.301 833.308,-902.277 854.539,-896.279"/>
<polygon fill="midnightblue" stroke="midnightblue" points="855.64,-899.605 864.312,-893.518 853.737,-892.869 855.64,-899.605"/>
</g>
<!-- Node448 -->
<g id="node49" class="node"><title>Node448</title>
<g id="a_node49"><a xlink:href="lapi_8c.html#a7c66797ff8396fc9258bb9fc08e959d8" target="_top" xlink:title=" ">
<polygon fill="white" stroke="black" points="296.5,-1045.5 296.5,-1064.5 363.5,-1064.5 363.5,-1045.5 296.5,-1045.5"/>
<text text-anchor="middle" x="330" y="-1052.5" font-family="Helvetica,sans-Serif" font-size="10.00">index2value</text>
</a>
</g>
</g>
<!-- Node447&#45;&gt;Node448 -->
<g id="edge72" class="edge"><title>Node447&#45;&gt;Node448</title>
<path fill="none" stroke="midnightblue" d="M254.232,-1067.46C264.473,-1065.75 275.564,-1063.91 285.989,-1062.17"/>
<polygon fill="midnightblue" stroke="midnightblue" points="286.848,-1065.57 296.136,-1060.48 285.697,-1058.67 286.848,-1065.57"/>
</g>
<!-- Node449 -->
<g id="node50" class="node"><title>Node449</title>
<g id="a_node50"><a xlink:href="lapi_8c.html#ae98ecd8a638f53798949d5966c0cbed4" target="_top" xlink:title=" ">
<polygon fill="white" stroke="black" points="299,-1083.5 299,-1102.5 361,-1102.5 361,-1083.5 299,-1083.5"/>
<text text-anchor="middle" x="330" y="-1090.5" font-family="Helvetica,sans-Serif" font-size="10.00">touserdata</text>
</a>
</g>
</g>
<!-- Node447&#45;&gt;Node449 -->
<g id="edge73" class="edge"><title>Node447&#45;&gt;Node449</title>
<path fill="none" stroke="midnightblue" d="M254.232,-1080.54C265.377,-1082.4 277.528,-1084.42 288.732,-1086.29"/>
<polygon fill="midnightblue" stroke="midnightblue" points="288.261,-1089.76 298.7,-1087.95 289.412,-1082.85 288.261,-1089.76"/>
</g>
</g>
</svg>
