<?xml version="1.0" encoding="UTF-8" standalone="no"?>
<!DOCTYPE svg PUBLIC "-//W3C//DTD SVG 1.1//EN"
 "http://www.w3.org/Graphics/SVG/1.1/DTD/svg11.dtd">
<!-- Generated by graphviz version 2.38.0 (20140413.2041)
 -->
<!-- Title: luaL_checknumber Pages: 1 -->
<svg width="1457pt" height="882pt"
 viewBox="0.00 0.00 1457.00 881.60" xmlns="http://www.w3.org/2000/svg" xmlns:xlink="http://www.w3.org/1999/xlink">
<g id="graph0" class="graph" transform="scale(1 1) rotate(0) translate(4 877.599)">
<title>luaL_checknumber</title>
<polygon fill="white" stroke="none" points="-4,4 -4,-877.599 1453,-877.599 1453,4 -4,4"/>
<!-- Node1 -->
<g id="node1" class="node"><title>Node1</title>
<g id="a_node1"><a xlink:title=" ">
<polygon fill="#bfbfbf" stroke="black" points="0,-85.0993 0,-104.099 98,-104.099 98,-85.0993 0,-85.0993"/>
<text text-anchor="middle" x="49" y="-92.0993" font-family="Helvetica,sans-Serif" font-size="10.00">luaL_checknumber</text>
</a>
</g>
</g>
<!-- Node2 -->
<g id="node2" class="node"><title>Node2</title>
<g id="a_node2"><a xlink:href="lapi_8c.html#a375da41304604b0cba0b8c798499e673" target="_top" xlink:title=" ">
<polygon fill="white" stroke="black" points="339,-28.0993 339,-47.0993 419,-47.0993 419,-28.0993 339,-28.0993"/>
<text text-anchor="middle" x="379" y="-35.0993" font-family="Helvetica,sans-Serif" font-size="10.00">lua_tonumberx</text>
</a>
</g>
</g>
<!-- Node1&#45;&gt;Node2 -->
<g id="edge1" class="edge"><title>Node1&#45;&gt;Node2</title>
<path fill="none" stroke="midnightblue" d="M98.0453,-86.2499C159.737,-75.5291 266.247,-57.0197 328.591,-46.1856"/>
<polygon fill="midnightblue" stroke="midnightblue" points="329.324,-49.6108 338.577,-44.4502 328.125,-42.7141 329.324,-49.6108"/>
</g>
<!-- Node4 -->
<g id="node4" class="node"><title>Node4</title>
<g id="a_node4"><a xlink:href="lauxlib_8c.html#ab8e946260debec8d4bbc714b76a1613b" target="_top" xlink:title=" ">
<polygon fill="white" stroke="black" points="134,-123.099 134,-142.099 189,-142.099 189,-123.099 134,-123.099"/>
<text text-anchor="middle" x="161.5" y="-130.099" font-family="Helvetica,sans-Serif" font-size="10.00">tag_error</text>
</a>
</g>
</g>
<!-- Node1&#45;&gt;Node4 -->
<g id="edge3" class="edge"><title>Node1&#45;&gt;Node4</title>
<path fill="none" stroke="midnightblue" d="M77.8838,-104.188C91.9395,-109.022 109.157,-114.943 124.229,-120.126"/>
<polygon fill="midnightblue" stroke="midnightblue" points="123.174,-123.464 133.769,-123.407 125.45,-116.845 123.174,-123.464"/>
</g>
<!-- Node3 -->
<g id="node3" class="node"><title>Node3</title>
<g id="a_node3"><a xlink:href="lapi_8c.html#a7c66797ff8396fc9258bb9fc08e959d8" target="_top" xlink:title=" ">
<polygon fill="white" stroke="black" points="854,-189.099 854,-208.099 921,-208.099 921,-189.099 854,-189.099"/>
<text text-anchor="middle" x="887.5" y="-196.099" font-family="Helvetica,sans-Serif" font-size="10.00">index2value</text>
</a>
</g>
</g>
<!-- Node2&#45;&gt;Node3 -->
<g id="edge2" class="edge"><title>Node2&#45;&gt;Node3</title>
<path fill="none" stroke="midnightblue" d="M412.346,-28.0825C487.712,-7.93353 678.214,31.1164 805,-46.5993 853.165,-76.1229 874.603,-144.69 882.548,-178.715"/>
<polygon fill="midnightblue" stroke="midnightblue" points="879.201,-179.794 884.744,-188.823 886.041,-178.308 879.201,-179.794"/>
</g>
<!-- Node5 -->
<g id="node5" class="node"><title>Node5</title>
<g id="a_node5"><a xlink:href="lapi_8c.html#a7d64f87addab440bbda96bb088816e17" target="_top" xlink:title=" ">
<polygon fill="white" stroke="black" points="225.5,-123.099 225.5,-142.099 302.5,-142.099 302.5,-123.099 225.5,-123.099"/>
<text text-anchor="middle" x="264" y="-130.099" font-family="Helvetica,sans-Serif" font-size="10.00">lua_typename</text>
</a>
</g>
</g>
<!-- Node4&#45;&gt;Node5 -->
<g id="edge4" class="edge"><title>Node4&#45;&gt;Node5</title>
<path fill="none" stroke="midnightblue" d="M189.168,-132.599C197.196,-132.599 206.262,-132.599 215.223,-132.599"/>
<polygon fill="midnightblue" stroke="midnightblue" points="215.235,-136.099 225.235,-132.599 215.235,-129.099 215.235,-136.099"/>
</g>
<!-- Node6 -->
<g id="node6" class="node"><title>Node6</title>
<g id="a_node6"><a xlink:href="lauxlib_8c.html#ab8ddc4ac13516f3548a6c102dd6fa114" target="_top" xlink:title=" ">
<polygon fill="white" stroke="black" points="225,-170.099 225,-189.099 303,-189.099 303,-170.099 225,-170.099"/>
<text text-anchor="middle" x="264" y="-177.099" font-family="Helvetica,sans-Serif" font-size="10.00">luaL_typeerror</text>
</a>
</g>
</g>
<!-- Node4&#45;&gt;Node6 -->
<g id="edge5" class="edge"><title>Node4&#45;&gt;Node6</title>
<path fill="none" stroke="midnightblue" d="M182.838,-142.11C197.317,-148.882 217.007,-158.09 233.249,-165.686"/>
<polygon fill="midnightblue" stroke="midnightblue" points="231.807,-168.875 242.348,-169.941 234.772,-162.534 231.807,-168.875"/>
</g>
<!-- Node7 -->
<g id="node7" class="node"><title>Node7</title>
<g id="a_node7"><a xlink:href="lapi_8c.html#ab190c226d38b289e6ca57683a9d4e0f0" target="_top" xlink:title=" ">
<polygon fill="white" stroke="black" points="723,-702.099 723,-721.099 805,-721.099 805,-702.099 723,-702.099"/>
<text text-anchor="middle" x="764" y="-709.099" font-family="Helvetica,sans-Serif" font-size="10.00">lua_pushfstring</text>
</a>
</g>
</g>
<!-- Node6&#45;&gt;Node7 -->
<g id="edge6" class="edge"><title>Node6&#45;&gt;Node7</title>
<path fill="none" stroke="midnightblue" d="M264.532,-189.18C262.84,-233.33 260.775,-420.143 339,-540.599 422.126,-668.602 619.598,-700.789 712.737,-708.882"/>
<polygon fill="midnightblue" stroke="midnightblue" points="712.51,-712.375 722.76,-709.694 713.075,-705.398 712.51,-712.375"/>
</g>
<!-- Node450 -->
<g id="node21" class="node"><title>Node450</title>
<g id="a_node21"><a xlink:href="lapi_8c.html#a652b273947f0656686f998d8e90cd3ea" target="_top" xlink:title=" ">
<polygon fill="white" stroke="black" points="737.5,-284.099 737.5,-303.099 790.5,-303.099 790.5,-284.099 737.5,-284.099"/>
<text text-anchor="middle" x="764" y="-291.099" font-family="Helvetica,sans-Serif" font-size="10.00">lua_type</text>
</a>
</g>
</g>
<!-- Node6&#45;&gt;Node450 -->
<g id="edge26" class="edge"><title>Node6&#45;&gt;Node450</title>
<path fill="none" stroke="midnightblue" d="M303.124,-176.456C394.85,-169.649 624.858,-157.287 687,-198.599 718.125,-219.291 696.586,-248.156 723,-274.599 724.633,-276.234 726.435,-277.748 728.342,-279.145"/>
<polygon fill="midnightblue" stroke="midnightblue" points="726.832,-282.324 737.191,-284.547 730.48,-276.349 726.832,-282.324"/>
</g>
<!-- Node451 -->
<g id="node22" class="node"><title>Node451</title>
<g id="a_node22"><a xlink:href="lauxlib_8c.html#ac607576dd107a3120cd51948989f1ed2" target="_top" xlink:title=" ">
<polygon fill="white" stroke="black" points="342.5,-512.099 342.5,-531.099 415.5,-531.099 415.5,-512.099 342.5,-512.099"/>
<text text-anchor="middle" x="379" y="-519.099" font-family="Helvetica,sans-Serif" font-size="10.00">luaL_argerror</text>
</a>
</g>
</g>
<!-- Node6&#45;&gt;Node451 -->
<g id="edge28" class="edge"><title>Node6&#45;&gt;Node451</title>
<path fill="none" stroke="midnightblue" d="M268.14,-189.103C283.472,-235.505 350.575,-438.595 371.646,-502.367"/>
<polygon fill="midnightblue" stroke="midnightblue" points="368.361,-503.582 374.821,-511.979 375.007,-501.386 368.361,-503.582"/>
</g>
<!-- Node479 -->
<g id="node45" class="node"><title>Node479</title>
<g id="a_node45"><a xlink:href="lauxlib_8c.html#add7cea31816ff3f61014031248e0daa6" target="_top" xlink:title=" ">
<polygon fill="white" stroke="black" points="461.5,-132.099 461.5,-151.099 553.5,-151.099 553.5,-132.099 461.5,-132.099"/>
<text text-anchor="middle" x="507.5" y="-139.099" font-family="Helvetica,sans-Serif" font-size="10.00">luaL_getmetafield</text>
</a>
</g>
</g>
<!-- Node6&#45;&gt;Node479 -->
<g id="edge64" class="edge"><title>Node6&#45;&gt;Node479</title>
<path fill="none" stroke="midnightblue" d="M303.349,-172.007C314.799,-169.831 327.392,-167.528 339,-165.599 376.263,-159.408 418.351,-153.381 451.016,-148.916"/>
<polygon fill="midnightblue" stroke="midnightblue" points="451.834,-152.337 461.272,-147.523 450.892,-145.401 451.834,-152.337"/>
</g>
<!-- Node8 -->
<g id="node8" class="node"><title>Node8</title>
<g id="a_node8"><a xlink:href="lobject_8c.html#aa83fa444a36d79521e846a766fa083d5" target="_top" xlink:title=" ">
<polygon fill="white" stroke="black" points="841,-702.099 841,-721.099 934,-721.099 934,-702.099 841,-702.099"/>
<text text-anchor="middle" x="887.5" y="-709.099" font-family="Helvetica,sans-Serif" font-size="10.00">luaO_pushvfstring</text>
</a>
</g>
</g>
<!-- Node7&#45;&gt;Node8 -->
<g id="edge7" class="edge"><title>Node7&#45;&gt;Node8</title>
<path fill="none" stroke="midnightblue" d="M805.12,-711.599C813.367,-711.599 822.19,-711.599 830.872,-711.599"/>
<polygon fill="midnightblue" stroke="midnightblue" points="830.957,-715.099 840.957,-711.599 830.957,-708.099 830.957,-715.099"/>
</g>
<!-- Node9 -->
<g id="node9" class="node"><title>Node9</title>
<g id="a_node9"><a xlink:href="lobject_8c.html#a1d02fb9304e4700ce1fd20e34ae68784" target="_top" xlink:title=" ">
<polygon fill="white" stroke="black" points="972,-854.099 972,-873.099 1043,-873.099 1043,-854.099 972,-854.099"/>
<text text-anchor="middle" x="1007.5" y="-861.099" font-family="Helvetica,sans-Serif" font-size="10.00">addnum2buff</text>
</a>
</g>
</g>
<!-- Node8&#45;&gt;Node9 -->
<g id="edge8" class="edge"><title>Node8&#45;&gt;Node9</title>
<path fill="none" stroke="midnightblue" d="M892.863,-721.223C903.499,-743.913 932.648,-801.695 970,-839.599 973.054,-842.699 976.573,-845.614 980.194,-848.273"/>
<polygon fill="midnightblue" stroke="midnightblue" points="978.411,-851.292 988.661,-853.975 982.322,-845.486 978.411,-851.292"/>
</g>
<!-- Node10 -->
<g id="node10" class="node"><title>Node10</title>
<g id="a_node10"><a xlink:href="lobject_8c.html#ac4ab924f2ea45ef73319f1159033eab1" target="_top" xlink:title=" ">
<polygon fill="white" stroke="black" points="1098.5,-816.099 1098.5,-835.099 1143.5,-835.099 1143.5,-816.099 1098.5,-816.099"/>
<text text-anchor="middle" x="1121" y="-823.099" font-family="Helvetica,sans-Serif" font-size="10.00">getbuff</text>
</a>
</g>
</g>
<!-- Node8&#45;&gt;Node10 -->
<g id="edge19" class="edge"><title>Node8&#45;&gt;Node10</title>
<path fill="none" stroke="midnightblue" d="M894.022,-721.157C905.491,-740.044 933.864,-782.008 970,-801.599 1007.18,-821.757 1056.64,-826.078 1088.41,-826.493"/>
<polygon fill="midnightblue" stroke="midnightblue" points="1088.46,-829.993 1098.46,-826.501 1088.46,-822.993 1088.46,-829.993"/>
</g>
<!-- Node11 -->
<g id="node11" class="node"><title>Node11</title>
<g id="a_node11"><a xlink:href="lobject_8c.html#a6ec2716e64cd75e3e6614a87ee92e4d2" target="_top" xlink:title=" ">
<polygon fill="white" stroke="black" points="1200,-740.099 1200,-759.099 1253,-759.099 1253,-740.099 1200,-740.099"/>
<text text-anchor="middle" x="1226.5" y="-747.099" font-family="Helvetica,sans-Serif" font-size="10.00">clearbuff</text>
</a>
</g>
</g>
<!-- Node8&#45;&gt;Node11 -->
<g id="edge18" class="edge"><title>Node8&#45;&gt;Node11</title>
<path fill="none" stroke="midnightblue" d="M897.946,-721.219C912.107,-734.875 940.356,-759.262 970,-768.599 1045.61,-792.416 1139.78,-773.863 1190.02,-760.391"/>
<polygon fill="midnightblue" stroke="midnightblue" points="1191.05,-763.736 1199.75,-757.694 1189.18,-756.99 1191.05,-763.736"/>
</g>
<!-- Node449 -->
<g id="node15" class="node"><title>Node449</title>
<g id="a_node15"><a xlink:href="lobject_8c.html#a874ab64f433ee35f2197a81e10452cb1" target="_top" xlink:title=" ">
<polygon fill="white" stroke="black" points="975.5,-702.099 975.5,-721.099 1039.5,-721.099 1039.5,-702.099 975.5,-702.099"/>
<text text-anchor="middle" x="1007.5" y="-709.099" font-family="Helvetica,sans-Serif" font-size="10.00">addstr2buff</text>
</a>
</g>
</g>
<!-- Node8&#45;&gt;Node449 -->
<g id="edge14" class="edge"><title>Node8&#45;&gt;Node449</title>
<path fill="none" stroke="midnightblue" d="M934.122,-711.599C944.326,-711.599 955.094,-711.599 965.116,-711.599"/>
<polygon fill="midnightblue" stroke="midnightblue" points="965.234,-715.099 975.234,-711.599 965.234,-708.099 965.234,-715.099"/>
</g>
<!-- Node81 -->
<g id="node16" class="node"><title>Node81</title>
<g id="a_node16"><a xlink:href="ldebug_8c.html#a88d38ca5da2e7a1492fc9d5ad70c32c5" target="_top" xlink:title=" ">
<polygon fill="white" stroke="black" points="970,-664.099 970,-683.099 1045,-683.099 1045,-664.099 970,-664.099"/>
<text text-anchor="middle" x="1007.5" y="-671.099" font-family="Helvetica,sans-Serif" font-size="10.00">luaG_runerror</text>
</a>
</g>
</g>
<!-- Node8&#45;&gt;Node81 -->
<g id="edge20" class="edge"><title>Node8&#45;&gt;Node81</title>
<path fill="none" stroke="midnightblue" d="M903.926,-701.9C918.142,-695.63 939.983,-687.968 959.863,-682.001"/>
<polygon fill="midnightblue" stroke="midnightblue" points="961.098,-685.287 969.725,-679.137 959.146,-678.565 961.098,-685.287"/>
</g>
<!-- Node262 -->
<g id="node20" class="node"><title>Node262</title>
<g id="a_node20"><a xlink:href="lobject_8c.html#af3136de4693789b08f78aafda9604676" target="_top" xlink:title=" ">
<polygon fill="white" stroke="black" points="970.5,-740.099 970.5,-759.099 1044.5,-759.099 1044.5,-740.099 970.5,-740.099"/>
<text text-anchor="middle" x="1007.5" y="-747.099" font-family="Helvetica,sans-Serif" font-size="10.00">luaO_utf8esc</text>
</a>
</g>
</g>
<!-- Node8&#45;&gt;Node262 -->
<g id="edge25" class="edge"><title>Node8&#45;&gt;Node262</title>
<path fill="none" stroke="midnightblue" d="M918.276,-721.188C933.09,-725.959 951.191,-731.788 967.134,-736.922"/>
<polygon fill="midnightblue" stroke="midnightblue" points="966.142,-740.279 976.733,-740.013 968.287,-733.616 966.142,-740.279"/>
</g>
<!-- Node9&#45;&gt;Node10 -->
<g id="edge9" class="edge"><title>Node9&#45;&gt;Node10</title>
<path fill="none" stroke="midnightblue" d="M1036.64,-854.01C1052.45,-848.621 1072.23,-841.88 1088.55,-836.317"/>
<polygon fill="midnightblue" stroke="midnightblue" points="1089.87,-839.566 1098.2,-833.028 1087.61,-832.941 1089.87,-839.566"/>
</g>
<!-- Node448 -->
<g id="node14" class="node"><title>Node448</title>
<g id="a_node14"><a xlink:href="lobject_8c.html#a8a7886b6335aca97db23dfe3e220c728" target="_top" xlink:title=" ">
<polygon fill="white" stroke="black" points="1089,-854.099 1089,-873.099 1153,-873.099 1153,-854.099 1089,-854.099"/>
<text text-anchor="middle" x="1121" y="-861.099" font-family="Helvetica,sans-Serif" font-size="10.00">tostringbuff</text>
</a>
</g>
</g>
<!-- Node9&#45;&gt;Node448 -->
<g id="edge13" class="edge"><title>Node9&#45;&gt;Node448</title>
<path fill="none" stroke="midnightblue" d="M1043.17,-863.599C1054.33,-863.599 1066.81,-863.599 1078.41,-863.599"/>
<polygon fill="midnightblue" stroke="midnightblue" points="1078.76,-867.099 1088.76,-863.599 1078.76,-860.099 1078.76,-867.099"/>
</g>
<!-- Node10&#45;&gt;Node11 -->
<g id="edge10" class="edge"><title>Node10&#45;&gt;Node11</title>
<path fill="none" stroke="midnightblue" d="M1138.62,-816.009C1145.65,-811.786 1153.86,-806.645 1161,-801.599 1176.84,-790.405 1193.9,-776.572 1206.49,-765.988"/>
<polygon fill="midnightblue" stroke="midnightblue" points="1209.06,-768.393 1214.42,-759.253 1204.53,-763.057 1209.06,-768.393"/>
</g>
<!-- Node12 -->
<g id="node12" class="node"><title>Node12</title>
<g id="a_node12"><a xlink:href="lobject_8c.html#a90720e7e38c0e352e9b97d3f8def9e1a" target="_top" xlink:title=" ">
<polygon fill="white" stroke="red" points="1292,-702.099 1292,-721.099 1341,-721.099 1341,-702.099 1292,-702.099"/>
<text text-anchor="middle" x="1316.5" y="-709.099" font-family="Helvetica,sans-Serif" font-size="10.00">pushstr</text>
</a>
</g>
</g>
<!-- Node11&#45;&gt;Node12 -->
<g id="edge11" class="edge"><title>Node11&#45;&gt;Node12</title>
<path fill="none" stroke="midnightblue" d="M1249.71,-740.01C1260.13,-735.51 1272.73,-730.067 1284.11,-725.155"/>
<polygon fill="midnightblue" stroke="midnightblue" points="1285.51,-728.363 1293.3,-721.185 1282.73,-721.936 1285.51,-728.363"/>
</g>
<!-- Node13 -->
<g id="node13" class="node"><title>Node13</title>
<g id="a_node13"><a xlink:href="lstring_8c.html#ab41fb084ce3ea5e2779f6659ccc2484d" target="_top" xlink:title=" ">
<polygon fill="white" stroke="red" points="1377,-360.099 1377,-379.099 1449,-379.099 1449,-360.099 1377,-360.099"/>
<text text-anchor="middle" x="1413" y="-367.099" font-family="Helvetica,sans-Serif" font-size="10.00">luaS_newlstr</text>
</a>
</g>
</g>
<!-- Node12&#45;&gt;Node13 -->
<g id="edge12" class="edge"><title>Node12&#45;&gt;Node13</title>
<path fill="none" stroke="midnightblue" d="M1320.13,-702.095C1332.92,-655.789 1388.83,-453.442 1406.58,-389.228"/>
<polygon fill="midnightblue" stroke="midnightblue" points="1410.05,-389.79 1409.34,-379.219 1403.3,-387.926 1410.05,-389.79"/>
</g>
<!-- Node449&#45;&gt;Node10 -->
<g id="edge16" class="edge"><title>Node449&#45;&gt;Node10</title>
<path fill="none" stroke="midnightblue" d="M1030.67,-721.23C1035.64,-723.896 1040.71,-727.047 1045,-730.599 1071.97,-752.918 1095.61,-786.426 1108.82,-807.104"/>
<polygon fill="midnightblue" stroke="midnightblue" points="1106.02,-809.235 1114.29,-815.868 1111.96,-805.531 1106.02,-809.235"/>
</g>
<!-- Node449&#45;&gt;Node11 -->
<g id="edge15" class="edge"><title>Node449&#45;&gt;Node11</title>
<path fill="none" stroke="midnightblue" d="M1039.51,-717.773C1052.34,-720.278 1067.37,-723.152 1081,-725.599 1118.01,-732.244 1160.46,-739.219 1189.73,-743.926"/>
<polygon fill="midnightblue" stroke="midnightblue" points="1189.46,-747.426 1199.88,-745.552 1190.56,-740.514 1189.46,-747.426"/>
</g>
<!-- Node449&#45;&gt;Node12 -->
<g id="edge17" class="edge"><title>Node449&#45;&gt;Node12</title>
<path fill="none" stroke="midnightblue" d="M1039.63,-711.599C1097.58,-711.599 1221.57,-711.599 1281.58,-711.599"/>
<polygon fill="midnightblue" stroke="midnightblue" points="1281.67,-715.099 1291.67,-711.599 1281.67,-708.099 1281.67,-715.099"/>
</g>
<!-- Node81&#45;&gt;Node8 -->
<g id="edge24" class="edge"><title>Node81&#45;&gt;Node8</title>
<path fill="none" stroke="midnightblue" d="M991.259,-683.217C979.065,-688.609 961.177,-695.046 943.73,-700.551"/>
<polygon fill="midnightblue" stroke="midnightblue" points="942.654,-697.22 934.122,-703.501 944.709,-703.912 942.654,-697.22"/>
</g>
<!-- Node82 -->
<g id="node17" class="node"><title>Node82</title>
<g id="a_node17"><a xlink:href="ldebug_8c.html#ad6bc24d619df8e849e2ae8b00455d86f" target="_top" xlink:title=" ">
<polygon fill="white" stroke="red" points="1083.5,-607.099 1083.5,-626.099 1158.5,-626.099 1158.5,-607.099 1083.5,-607.099"/>
<text text-anchor="middle" x="1121" y="-614.099" font-family="Helvetica,sans-Serif" font-size="10.00">getcurrentline</text>
</a>
</g>
</g>
<!-- Node81&#45;&gt;Node82 -->
<g id="edge21" class="edge"><title>Node81&#45;&gt;Node82</title>
<path fill="none" stroke="midnightblue" d="M1027.16,-664.059C1044.93,-654.975 1071.9,-641.19 1092.2,-630.813"/>
<polygon fill="midnightblue" stroke="midnightblue" points="1093.97,-633.839 1101.28,-626.171 1090.78,-627.606 1093.97,-633.839"/>
</g>
<!-- Node85 -->
<g id="node18" class="node"><title>Node85</title>
<g id="a_node18"><a xlink:href="ldebug_8c.html#a7e1dc7518150bf19bd9aa5dda166a2eb" target="_top" xlink:title=" ">
<polygon fill="white" stroke="red" points="1084.5,-664.099 1084.5,-683.099 1157.5,-683.099 1157.5,-664.099 1084.5,-664.099"/>
<text text-anchor="middle" x="1121" y="-671.099" font-family="Helvetica,sans-Serif" font-size="10.00">luaG_addinfo</text>
</a>
</g>
</g>
<!-- Node81&#45;&gt;Node85 -->
<g id="edge22" class="edge"><title>Node81&#45;&gt;Node85</title>
<path fill="none" stroke="midnightblue" d="M1045.01,-673.599C1054.24,-673.599 1064.28,-673.599 1073.92,-673.599"/>
<polygon fill="midnightblue" stroke="midnightblue" points="1074.17,-677.099 1084.17,-673.599 1074.17,-670.099 1074.17,-677.099"/>
</g>
<!-- Node88 -->
<g id="node19" class="node"><title>Node88</title>
<g id="a_node19"><a xlink:href="ldebug_8c.html#af7366920f8408bb33ed01b1d6c0e1238" target="_top" xlink:title=" ">
<polygon fill="white" stroke="red" points="1081,-493.099 1081,-512.099 1161,-512.099 1161,-493.099 1081,-493.099"/>
<text text-anchor="middle" x="1121" y="-500.099" font-family="Helvetica,sans-Serif" font-size="10.00">luaG_errormsg</text>
</a>
</g>
</g>
<!-- Node81&#45;&gt;Node88 -->
<g id="edge23" class="edge"><title>Node81&#45;&gt;Node88</title>
<path fill="none" stroke="midnightblue" d="M1032.39,-663.96C1036.94,-661.387 1041.4,-658.275 1045,-654.599 1064.95,-634.214 1097.7,-557.536 1112.42,-521.514"/>
<polygon fill="midnightblue" stroke="midnightblue" points="1115.71,-522.711 1116.22,-512.128 1109.22,-520.082 1115.71,-522.711"/>
</g>
<!-- Node450&#45;&gt;Node3 -->
<g id="edge27" class="edge"><title>Node450&#45;&gt;Node3</title>
<path fill="none" stroke="midnightblue" d="M788.51,-283.908C794.1,-281.209 799.913,-278.057 805,-274.599 830.301,-257.402 855.44,-232.454 870.965,-215.891"/>
<polygon fill="midnightblue" stroke="midnightblue" points="873.569,-218.23 877.772,-208.504 868.422,-213.486 873.569,-218.23"/>
</g>
<!-- Node452 -->
<g id="node23" class="node"><title>Node452</title>
<g id="a_node23"><a xlink:href="ldebug_8c.html#acaafc35d8e385c4d167229486165df6d" target="_top" xlink:title=" ">
<polygon fill="white" stroke="black" points="732.5,-588.099 732.5,-607.099 795.5,-607.099 795.5,-588.099 732.5,-588.099"/>
<text text-anchor="middle" x="764" y="-595.099" font-family="Helvetica,sans-Serif" font-size="10.00">lua_getinfo</text>
</a>
</g>
</g>
<!-- Node451&#45;&gt;Node452 -->
<g id="edge29" class="edge"><title>Node451&#45;&gt;Node452</title>
<path fill="none" stroke="midnightblue" d="M410.443,-531.128C451.977,-543.783 528.914,-566 596,-578.599 638.754,-586.629 688.346,-591.75 722.313,-594.627"/>
<polygon fill="midnightblue" stroke="midnightblue" points="722.075,-598.119 732.328,-595.448 722.648,-591.142 722.075,-598.119"/>
</g>
<!-- Node459 -->
<g id="node31" class="node"><title>Node459</title>
<g id="a_node31"><a xlink:href="ldebug_8c.html#ac1fc03c27ee46caa4037df2d70f22110" target="_top" xlink:title=" ">
<polygon fill="white" stroke="black" points="728,-664.099 728,-683.099 800,-683.099 800,-664.099 728,-664.099"/>
<text text-anchor="middle" x="764" y="-671.099" font-family="Helvetica,sans-Serif" font-size="10.00">lua_getstack</text>
</a>
</g>
</g>
<!-- Node451&#45;&gt;Node459 -->
<g id="edge38" class="edge"><title>Node451&#45;&gt;Node459</title>
<path fill="none" stroke="midnightblue" d="M391.217,-531.15C421.707,-556.488 509.62,-625.466 596,-654.599 635.716,-667.994 683.44,-672.339 717.681,-673.573"/>
<polygon fill="midnightblue" stroke="midnightblue" points="717.755,-677.076 727.851,-673.862 717.955,-670.079 717.755,-677.076"/>
</g>
<!-- Node460 -->
<g id="node32" class="node"><title>Node460</title>
<g id="a_node32"><a xlink:href="lauxlib_8c.html#a6c51d83d29244779392551388913e08a" target="_top" xlink:title=" ">
<polygon fill="white" stroke="black" points="478,-512.099 478,-531.099 537,-531.099 537,-512.099 478,-512.099"/>
<text text-anchor="middle" x="507.5" y="-519.099" font-family="Helvetica,sans-Serif" font-size="10.00">luaL_error</text>
</a>
</g>
</g>
<!-- Node451&#45;&gt;Node460 -->
<g id="edge39" class="edge"><title>Node451&#45;&gt;Node460</title>
<path fill="none" stroke="midnightblue" d="M415.574,-521.599C431.759,-521.599 450.957,-521.599 467.531,-521.599"/>
<polygon fill="midnightblue" stroke="midnightblue" points="467.987,-525.099 477.986,-521.599 467.986,-518.099 467.987,-525.099"/>
</g>
<!-- Node465 -->
<g id="node37" class="node"><title>Node465</title>
<g id="a_node37"><a xlink:href="lauxlib_8c.html#a4f35430f7ecfcbd5f507e550937046b4" target="_top" xlink:title=" ">
<polygon fill="white" stroke="black" points="455,-341.099 455,-360.099 560,-360.099 560,-341.099 455,-341.099"/>
<text text-anchor="middle" x="507.5" y="-348.099" font-family="Helvetica,sans-Serif" font-size="10.00">pushglobalfuncname</text>
</a>
</g>
</g>
<!-- Node451&#45;&gt;Node465 -->
<g id="edge50" class="edge"><title>Node451&#45;&gt;Node465</title>
<path fill="none" stroke="midnightblue" d="M387.164,-511.916C407.69,-484.169 466.937,-404.08 493.429,-368.268"/>
<polygon fill="midnightblue" stroke="midnightblue" points="496.281,-370.298 499.415,-360.177 490.654,-366.134 496.281,-370.298"/>
</g>
<!-- Node453 -->
<g id="node24" class="node"><title>Node453</title>
<g id="a_node24"><a xlink:href="ldebug_8c.html#ad72fa774194e83872bac4e5bf6ec1160" target="_top" xlink:title=" ">
<polygon fill="white" stroke="black" points="857,-588.099 857,-607.099 918,-607.099 918,-588.099 857,-588.099"/>
<text text-anchor="middle" x="887.5" y="-595.099" font-family="Helvetica,sans-Serif" font-size="10.00">auxgetinfo</text>
</a>
</g>
</g>
<!-- Node452&#45;&gt;Node453 -->
<g id="edge30" class="edge"><title>Node452&#45;&gt;Node453</title>
<path fill="none" stroke="midnightblue" d="M795.66,-597.599C810.999,-597.599 829.763,-597.599 846.247,-597.599"/>
<polygon fill="midnightblue" stroke="midnightblue" points="846.69,-601.099 856.69,-597.599 846.69,-594.099 846.69,-601.099"/>
</g>
<!-- Node457 -->
<g id="node27" class="node"><title>Node457</title>
<g id="a_node27"><a xlink:href="ldebug_8c.html#a6e3195fc94af1f75142c2801ca8cf058" target="_top" xlink:title=" ">
<polygon fill="white" stroke="black" points="845.5,-493.099 845.5,-512.099 929.5,-512.099 929.5,-493.099 845.5,-493.099"/>
<text text-anchor="middle" x="887.5" y="-500.099" font-family="Helvetica,sans-Serif" font-size="10.00">collectvalidlines</text>
</a>
</g>
</g>
<!-- Node452&#45;&gt;Node457 -->
<g id="edge34" class="edge"><title>Node452&#45;&gt;Node457</title>
<path fill="none" stroke="midnightblue" d="M777.545,-587.79C798.48,-571.421 840.732,-538.385 866.027,-518.607"/>
<polygon fill="midnightblue" stroke="midnightblue" points="868.482,-521.13 874.204,-512.213 864.171,-515.616 868.482,-521.13"/>
</g>
<!-- Node453&#45;&gt;Node82 -->
<g id="edge32" class="edge"><title>Node453&#45;&gt;Node82</title>
<path fill="none" stroke="midnightblue" d="M918.291,-600.044C957.573,-603.268 1027.11,-608.976 1073.39,-612.774"/>
<polygon fill="midnightblue" stroke="midnightblue" points="1073.21,-616.271 1083.46,-613.601 1073.78,-609.294 1073.21,-616.271"/>
</g>
<!-- Node454 -->
<g id="node25" class="node"><title>Node454</title>
<g id="a_node25"><a xlink:href="ldebug_8c.html#a84af60873d130ffee87eb1721f3231e4" target="_top" xlink:title=" ">
<polygon fill="white" stroke="red" points="982.5,-550.099 982.5,-569.099 1032.5,-569.099 1032.5,-550.099 982.5,-550.099"/>
<text text-anchor="middle" x="1007.5" y="-557.099" font-family="Helvetica,sans-Serif" font-size="10.00">funcinfo</text>
</a>
</g>
</g>
<!-- Node453&#45;&gt;Node454 -->
<g id="edge31" class="edge"><title>Node453&#45;&gt;Node454</title>
<path fill="none" stroke="midnightblue" d="M918.276,-588.01C934.828,-582.68 955.484,-576.028 972.647,-570.501"/>
<polygon fill="midnightblue" stroke="midnightblue" points="973.846,-573.792 982.292,-567.395 971.7,-567.129 973.846,-573.792"/>
</g>
<!-- Node455 -->
<g id="node26" class="node"><title>Node455</title>
<g id="a_node26"><a xlink:href="ldebug_8c.html#a118ab79b6b538a857353e4b9259667e1" target="_top" xlink:title=" ">
<polygon fill="white" stroke="red" points="971.5,-626.099 971.5,-645.099 1043.5,-645.099 1043.5,-626.099 971.5,-626.099"/>
<text text-anchor="middle" x="1007.5" y="-633.099" font-family="Helvetica,sans-Serif" font-size="10.00">getfuncname</text>
</a>
</g>
</g>
<!-- Node453&#45;&gt;Node455 -->
<g id="edge33" class="edge"><title>Node453&#45;&gt;Node455</title>
<path fill="none" stroke="midnightblue" d="M918.276,-607.188C933.09,-611.959 951.191,-617.788 967.134,-622.922"/>
<polygon fill="midnightblue" stroke="midnightblue" points="966.142,-626.279 976.733,-626.013 968.287,-619.616 966.142,-626.279"/>
</g>
<!-- Node393 -->
<g id="node28" class="node"><title>Node393</title>
<g id="a_node28"><a xlink:href="ltable_8c.html#a6c97fb2d6a020b0a6f852562fef93d97" target="_top" xlink:title=" ">
<polygon fill="white" stroke="red" points="978,-436.099 978,-455.099 1037,-455.099 1037,-436.099 978,-436.099"/>
<text text-anchor="middle" x="1007.5" y="-443.099" font-family="Helvetica,sans-Serif" font-size="10.00">luaH_new</text>
</a>
</g>
</g>
<!-- Node457&#45;&gt;Node393 -->
<g id="edge35" class="edge"><title>Node457&#45;&gt;Node393</title>
<path fill="none" stroke="midnightblue" d="M908.251,-493.059C927.225,-483.893 956.111,-469.94 977.658,-459.532"/>
<polygon fill="midnightblue" stroke="midnightblue" points="979.203,-462.672 986.685,-455.171 976.158,-456.369 979.203,-462.672"/>
</g>
<!-- Node164 -->
<g id="node29" class="node"><title>Node164</title>
<g id="a_node29"><a xlink:href="ltable_8c.html#a9eefa8191c63f55cffb6b7b58217467c" target="_top" xlink:title=" ">
<polygon fill="white" stroke="red" points="975,-512.099 975,-531.099 1040,-531.099 1040,-512.099 975,-512.099"/>
<text text-anchor="middle" x="1007.5" y="-519.099" font-family="Helvetica,sans-Serif" font-size="10.00">luaH_setint</text>
</a>
</g>
</g>
<!-- Node457&#45;&gt;Node164 -->
<g id="edge36" class="edge"><title>Node457&#45;&gt;Node164</title>
<path fill="none" stroke="midnightblue" d="M929.771,-509.245C941.067,-511.063 953.319,-513.036 964.647,-514.86"/>
<polygon fill="midnightblue" stroke="midnightblue" points="964.308,-518.351 974.738,-516.485 965.421,-511.44 964.308,-518.351"/>
</g>
<!-- Node458 -->
<g id="node30" class="node"><title>Node458</title>
<g id="a_node30"><a xlink:href="ldebug_8c.html#a34dcc3fce752d518b34773a35b3763ad" target="_top" xlink:title=" ">
<polygon fill="white" stroke="red" points="982.5,-474.099 982.5,-493.099 1032.5,-493.099 1032.5,-474.099 982.5,-474.099"/>
<text text-anchor="middle" x="1007.5" y="-481.099" font-family="Helvetica,sans-Serif" font-size="10.00">nextline</text>
</a>
</g>
</g>
<!-- Node457&#45;&gt;Node458 -->
<g id="edge37" class="edge"><title>Node457&#45;&gt;Node458</title>
<path fill="none" stroke="midnightblue" d="M929.771,-495.954C943.615,-493.725 958.896,-491.264 972.152,-489.13"/>
<polygon fill="midnightblue" stroke="midnightblue" points="972.966,-492.544 982.283,-487.499 971.853,-485.633 972.966,-492.544"/>
</g>
<!-- Node461 -->
<g id="node33" class="node"><title>Node461</title>
<g id="a_node33"><a xlink:href="lapi_8c.html#a1de3afee1daece63d455f23818c883d9" target="_top" xlink:title=" ">
<polygon fill="white" stroke="red" points="732,-360.099 732,-379.099 796,-379.099 796,-360.099 732,-360.099"/>
<text text-anchor="middle" x="764" y="-367.099" font-family="Helvetica,sans-Serif" font-size="10.00">lua_concat</text>
</a>
</g>
</g>
<!-- Node460&#45;&gt;Node461 -->
<g id="edge40" class="edge"><title>Node460&#45;&gt;Node461</title>
<path fill="none" stroke="midnightblue" d="M523.737,-511.945C540.999,-501.149 570.101,-483.374 596,-469.599 635.494,-448.594 648.689,-449.692 687,-426.599 707.31,-414.357 728.779,-397.886 743.7,-385.798"/>
<polygon fill="midnightblue" stroke="midnightblue" points="746.163,-388.304 751.669,-379.252 741.72,-382.895 746.163,-388.304"/>
</g>
<!-- Node462 -->
<g id="node34" class="node"><title>Node462</title>
<g id="a_node34"><a xlink:href="lapi_8c.html#a6ba7b91143fe8a03910420d800de8e97" target="_top" xlink:title=" ">
<polygon fill="white" stroke="black" points="860.5,-436.099 860.5,-455.099 914.5,-455.099 914.5,-436.099 860.5,-436.099"/>
<text text-anchor="middle" x="887.5" y="-443.099" font-family="Helvetica,sans-Serif" font-size="10.00">lua_error</text>
</a>
</g>
</g>
<!-- Node460&#45;&gt;Node462 -->
<g id="edge42" class="edge"><title>Node460&#45;&gt;Node462</title>
<path fill="none" stroke="midnightblue" d="M537.222,-515.825C605.181,-502.161 775.733,-467.87 850.466,-452.844"/>
<polygon fill="midnightblue" stroke="midnightblue" points="851.241,-456.259 860.355,-450.856 849.861,-449.396 851.241,-456.259"/>
</g>
<!-- Node463 -->
<g id="node35" class="node"><title>Node463</title>
<g id="a_node35"><a xlink:href="lapi_8c.html#a426c9cb1d582be3e43060c4772854e5a" target="_top" xlink:title=" ">
<polygon fill="white" stroke="black" points="598.5,-550.099 598.5,-569.099 684.5,-569.099 684.5,-550.099 598.5,-550.099"/>
<text text-anchor="middle" x="641.5" y="-557.099" font-family="Helvetica,sans-Serif" font-size="10.00">lua_pushvfstring</text>
</a>
</g>
</g>
<!-- Node460&#45;&gt;Node463 -->
<g id="edge44" class="edge"><title>Node460&#45;&gt;Node463</title>
<path fill="none" stroke="midnightblue" d="M537.142,-529.845C554.786,-534.924 577.74,-541.532 597.534,-547.23"/>
<polygon fill="midnightblue" stroke="midnightblue" points="596.677,-550.626 607.255,-550.029 598.613,-543.899 596.677,-550.626"/>
</g>
<!-- Node464 -->
<g id="node36" class="node"><title>Node464</title>
<g id="a_node36"><a xlink:href="lauxlib_8c.html#a0f4d3c30c07eae36aa25605df84279a0" target="_top" xlink:title=" ">
<polygon fill="white" stroke="black" points="609,-626.099 609,-645.099 674,-645.099 674,-626.099 609,-626.099"/>
<text text-anchor="middle" x="641.5" y="-633.099" font-family="Helvetica,sans-Serif" font-size="10.00">luaL_where</text>
</a>
</g>
</g>
<!-- Node460&#45;&gt;Node464 -->
<g id="edge46" class="edge"><title>Node460&#45;&gt;Node464</title>
<path fill="none" stroke="midnightblue" d="M519.754,-531.319C542.355,-550.837 593.479,-594.991 621.409,-619.111"/>
<polygon fill="midnightblue" stroke="midnightblue" points="619.418,-622.017 629.274,-625.904 623.994,-616.719 619.418,-622.017"/>
</g>
<!-- Node461&#45;&gt;Node13 -->
<g id="edge41" class="edge"><title>Node461&#45;&gt;Node13</title>
<path fill="none" stroke="midnightblue" d="M796.262,-369.599C842.297,-369.599 931.031,-369.599 1006.5,-369.599 1006.5,-369.599 1006.5,-369.599 1227.5,-369.599 1275.08,-369.599 1329.56,-369.599 1366.91,-369.599"/>
<polygon fill="midnightblue" stroke="midnightblue" points="1366.97,-373.099 1376.97,-369.599 1366.97,-366.099 1366.97,-373.099"/>
</g>
<!-- Node462&#45;&gt;Node88 -->
<g id="edge43" class="edge"><title>Node462&#45;&gt;Node88</title>
<path fill="none" stroke="midnightblue" d="M910.978,-436.049C942.275,-424.241 1000.18,-407.86 1045,-426.599 1072.94,-438.283 1095.77,-466.013 1108.63,-484.546"/>
<polygon fill="midnightblue" stroke="midnightblue" points="1105.82,-486.64 1114.27,-493.03 1111.65,-482.764 1105.82,-486.64"/>
</g>
<!-- Node463&#45;&gt;Node8 -->
<g id="edge45" class="edge"><title>Node463&#45;&gt;Node8</title>
<path fill="none" stroke="midnightblue" d="M654.581,-569.214C669.935,-581.18 697.513,-601.835 723,-616.599 757.757,-636.733 770.184,-634.566 805,-654.599 826.719,-667.096 850.005,-683.742 866.101,-695.817"/>
<polygon fill="midnightblue" stroke="midnightblue" points="864.167,-698.743 874.248,-702 868.398,-693.167 864.167,-698.743"/>
</g>
<!-- Node464&#45;&gt;Node7 -->
<g id="edge49" class="edge"><title>Node464&#45;&gt;Node7</title>
<path fill="none" stroke="midnightblue" d="M654.604,-645.175C669.982,-657.101 697.584,-677.715 723,-692.599 725.853,-694.27 728.876,-695.915 731.931,-697.497"/>
<polygon fill="midnightblue" stroke="midnightblue" points="730.542,-700.715 741.057,-702.012 733.646,-694.44 730.542,-700.715"/>
</g>
<!-- Node464&#45;&gt;Node452 -->
<g id="edge47" class="edge"><title>Node464&#45;&gt;Node452</title>
<path fill="none" stroke="midnightblue" d="M672.907,-626.01C688.035,-621.24 706.52,-615.41 722.8,-610.276"/>
<polygon fill="midnightblue" stroke="midnightblue" points="724.118,-613.531 732.602,-607.185 722.013,-606.855 724.118,-613.531"/>
</g>
<!-- Node464&#45;&gt;Node459 -->
<g id="edge48" class="edge"><title>Node464&#45;&gt;Node459</title>
<path fill="none" stroke="midnightblue" d="M672.907,-645.188C688.035,-649.959 706.52,-655.788 722.8,-660.922"/>
<polygon fill="midnightblue" stroke="midnightblue" points="722.013,-664.344 732.602,-664.013 724.118,-657.668 722.013,-664.344"/>
</g>
<!-- Node465&#45;&gt;Node452 -->
<g id="edge58" class="edge"><title>Node465&#45;&gt;Node452</title>
<path fill="none" stroke="midnightblue" d="M518.477,-360.282C557.042,-397.711 696.65,-533.205 745.764,-580.871"/>
<polygon fill="midnightblue" stroke="midnightblue" points="743.479,-583.531 753.092,-587.983 748.354,-578.507 743.479,-583.531"/>
</g>
<!-- Node466 -->
<g id="node38" class="node"><title>Node466</title>
<g id="a_node38"><a xlink:href="lauxlib_8c.html#a36c8f149b779f8c9a5c042ea9784d80a" target="_top" xlink:title=" ">
<polygon fill="white" stroke="red" points="617,-322.099 617,-341.099 666,-341.099 666,-322.099 617,-322.099"/>
<text text-anchor="middle" x="641.5" y="-329.099" font-family="Helvetica,sans-Serif" font-size="10.00">findfield</text>
</a>
</g>
</g>
<!-- Node465&#45;&gt;Node466 -->
<g id="edge51" class="edge"><title>Node465&#45;&gt;Node466</title>
<path fill="none" stroke="midnightblue" d="M560.291,-343.144C575.831,-340.908 592.475,-338.512 606.55,-336.486"/>
<polygon fill="midnightblue" stroke="midnightblue" points="607.353,-339.907 616.752,-335.018 606.356,-332.978 607.353,-339.907"/>
</g>
<!-- Node473 -->
<g id="node39" class="node"><title>Node473</title>
<g id="a_node39"><a xlink:href="lapi_8c.html#a111bd3fa34fe656f415edae5e343e13e" target="_top" xlink:title=" ">
<polygon fill="white" stroke="black" points="736,-246.099 736,-265.099 792,-265.099 792,-246.099 736,-246.099"/>
<text text-anchor="middle" x="764" y="-253.099" font-family="Helvetica,sans-Serif" font-size="10.00">lua_copy</text>
</a>
</g>
</g>
<!-- Node465&#45;&gt;Node473 -->
<g id="edge54" class="edge"><title>Node465&#45;&gt;Node473</title>
<path fill="none" stroke="midnightblue" d="M529.166,-341.062C546.774,-333.072 572.832,-321.567 596,-312.599 640.335,-295.438 692.285,-278.138 726.326,-267.173"/>
<polygon fill="midnightblue" stroke="midnightblue" points="727.405,-270.502 735.859,-264.117 725.268,-263.837 727.405,-270.502"/>
</g>
<!-- Node474 -->
<g id="node40" class="node"><title>Node474</title>
<g id="a_node40"><a xlink:href="lapi_8c.html#a8b47f1b5685c3f8018ba926abb99af24" target="_top" xlink:title=" ">
<polygon fill="white" stroke="red" points="609,-246.099 609,-265.099 674,-265.099 674,-246.099 609,-246.099"/>
<text text-anchor="middle" x="641.5" y="-253.099" font-family="Helvetica,sans-Serif" font-size="10.00">lua_getfield</text>
</a>
</g>
</g>
<!-- Node465&#45;&gt;Node474 -->
<g id="edge56" class="edge"><title>Node465&#45;&gt;Node474</title>
<path fill="none" stroke="midnightblue" d="M519.045,-340.947C534.998,-326.603 566.541,-299.245 596,-279.599 601.053,-276.23 606.625,-272.929 612.066,-269.905"/>
<polygon fill="midnightblue" stroke="midnightblue" points="613.831,-272.93 620.986,-265.115 610.52,-266.763 613.831,-272.93"/>
</g>
<!-- Node476 -->
<g id="node41" class="node"><title>Node476</title>
<g id="a_node41"><a xlink:href="lapi_8c.html#afbb08ecb69421875494105d4de68e5bf" target="_top" xlink:title=" ">
<polygon fill="white" stroke="black" points="610.5,-398.099 610.5,-417.099 672.5,-417.099 672.5,-398.099 610.5,-398.099"/>
<text text-anchor="middle" x="641.5" y="-405.099" font-family="Helvetica,sans-Serif" font-size="10.00">lua_gettop</text>
</a>
</g>
</g>
<!-- Node465&#45;&gt;Node476 -->
<g id="edge59" class="edge"><title>Node465&#45;&gt;Node476</title>
<path fill="none" stroke="midnightblue" d="M530.419,-360.163C548.107,-367.87 573.639,-378.97 596,-388.599 599.993,-390.319 604.19,-392.119 608.345,-393.898"/>
<polygon fill="midnightblue" stroke="midnightblue" points="607.279,-397.249 617.85,-397.96 610.03,-390.812 607.279,-397.249"/>
</g>
<!-- Node477 -->
<g id="node42" class="node"><title>Node477</title>
<g id="a_node42"><a xlink:href="lapi_8c.html#a771d300f2e64b2197d1df9bf31660ebf" target="_top" xlink:title=" ">
<polygon fill="white" stroke="black" points="601.5,-208.099 601.5,-227.099 681.5,-227.099 681.5,-208.099 601.5,-208.099"/>
<text text-anchor="middle" x="641.5" y="-215.099" font-family="Helvetica,sans-Serif" font-size="10.00">lua_pushstring</text>
</a>
</g>
</g>
<!-- Node465&#45;&gt;Node477 -->
<g id="edge60" class="edge"><title>Node465&#45;&gt;Node477</title>
<path fill="none" stroke="midnightblue" d="M513.57,-341.012C525.346,-319.562 556.576,-267.187 596,-236.599 598.165,-234.919 600.502,-233.359 602.93,-231.915"/>
<polygon fill="midnightblue" stroke="midnightblue" points="604.739,-234.919 611.986,-227.19 601.501,-228.713 604.739,-234.919"/>
</g>
<!-- Node478 -->
<g id="node44" class="node"><title>Node478</title>
<g id="a_node44"><a xlink:href="lapi_8c.html#adaa30f0d34786144c94644039d1d1b6e" target="_top" xlink:title=" ">
<polygon fill="white" stroke="red" points="610.5,-360.099 610.5,-379.099 672.5,-379.099 672.5,-360.099 610.5,-360.099"/>
<text text-anchor="middle" x="641.5" y="-367.099" font-family="Helvetica,sans-Serif" font-size="10.00">lua_settop</text>
</a>
</g>
</g>
<!-- Node465&#45;&gt;Node478 -->
<g id="edge63" class="edge"><title>Node465&#45;&gt;Node478</title>
<path fill="none" stroke="midnightblue" d="M560.291,-358.054C573.495,-359.955 587.496,-361.97 600.041,-363.776"/>
<polygon fill="midnightblue" stroke="midnightblue" points="599.79,-367.275 610.187,-365.236 600.787,-360.347 599.79,-367.275"/>
</g>
<!-- Node466&#45;&gt;Node450 -->
<g id="edge53" class="edge"><title>Node466&#45;&gt;Node450</title>
<path fill="none" stroke="midnightblue" d="M666.02,-324.182C683.597,-318.639 707.92,-310.969 727.809,-304.697"/>
<polygon fill="midnightblue" stroke="midnightblue" points="728.972,-308 737.457,-301.654 726.867,-301.324 728.972,-308"/>
</g>
<!-- Node466&#45;&gt;Node461 -->
<g id="edge52" class="edge"><title>Node466&#45;&gt;Node461</title>
<path fill="none" stroke="midnightblue" d="M666.02,-339.016C682.234,-344.129 704.187,-351.053 723.106,-357.019"/>
<polygon fill="midnightblue" stroke="midnightblue" points="722.087,-360.367 732.677,-360.037 724.192,-353.691 722.087,-360.367"/>
</g>
<!-- Node473&#45;&gt;Node3 -->
<g id="edge55" class="edge"><title>Node473&#45;&gt;Node3</title>
<path fill="none" stroke="midnightblue" d="M785.336,-246.059C804.873,-236.893 834.616,-222.94 856.802,-212.532"/>
<polygon fill="midnightblue" stroke="midnightblue" points="858.531,-215.587 866.097,-208.171 855.557,-209.25 858.531,-215.587"/>
</g>
<!-- Node474&#45;&gt;Node3 -->
<g id="edge57" class="edge"><title>Node474&#45;&gt;Node3</title>
<path fill="none" stroke="midnightblue" d="M674.228,-248.084C689.044,-244.582 706.921,-240.365 723,-236.599 764.142,-226.963 811.132,-216.052 844.145,-208.401"/>
<polygon fill="midnightblue" stroke="midnightblue" points="844.968,-211.803 853.92,-206.137 843.388,-204.984 844.968,-211.803"/>
</g>
<!-- Node95 -->
<g id="node43" class="node"><title>Node95</title>
<g id="a_node43"><a xlink:href="lstring_8c.html#a6d47e53be6b8e58202bb927752f4824b" target="_top" xlink:title=" ">
<polygon fill="white" stroke="black" points="1197,-322.099 1197,-341.099 1256,-341.099 1256,-322.099 1197,-322.099"/>
<text text-anchor="middle" x="1226.5" y="-329.099" font-family="Helvetica,sans-Serif" font-size="10.00">luaS_new</text>
</a>
</g>
</g>
<!-- Node477&#45;&gt;Node95 -->
<g id="edge61" class="edge"><title>Node477&#45;&gt;Node95</title>
<path fill="none" stroke="midnightblue" d="M673.049,-227.11C678.111,-229.631 683.004,-232.756 687,-236.599 713.937,-262.51 692.625,-290.82 723,-312.599 782.452,-355.228 813.344,-331.599 886.5,-331.599 886.5,-331.599 886.5,-331.599 1008.5,-331.599 1070.8,-331.599 1143.16,-331.599 1186.59,-331.599"/>
<polygon fill="midnightblue" stroke="midnightblue" points="1186.72,-335.099 1196.72,-331.599 1186.72,-328.099 1186.72,-335.099"/>
</g>
<!-- Node95&#45;&gt;Node13 -->
<g id="edge62" class="edge"><title>Node95&#45;&gt;Node13</title>
<path fill="none" stroke="midnightblue" d="M1256.33,-337.537C1285.94,-343.635 1332.44,-353.214 1366.92,-360.315"/>
<polygon fill="midnightblue" stroke="midnightblue" points="1366.25,-363.751 1376.75,-362.34 1367.67,-356.894 1366.25,-363.751"/>
</g>
<!-- Node479&#45;&gt;Node477 -->
<g id="edge67" class="edge"><title>Node479&#45;&gt;Node477</title>
<path fill="none" stroke="midnightblue" d="M525.218,-151.225C547.931,-164.302 588.735,-187.795 615.206,-203.036"/>
<polygon fill="midnightblue" stroke="midnightblue" points="613.505,-206.095 623.918,-208.052 616.998,-200.029 613.505,-206.095"/>
</g>
<!-- Node480 -->
<g id="node46" class="node"><title>Node480</title>
<g id="a_node46"><a xlink:href="lapi_8c.html#a4caa9ca5e47a30bd45e33d83bf2d6d6e" target="_top" xlink:title=" ">
<polygon fill="white" stroke="black" points="596,-132.099 596,-151.099 687,-151.099 687,-132.099 596,-132.099"/>
<text text-anchor="middle" x="641.5" y="-139.099" font-family="Helvetica,sans-Serif" font-size="10.00">lua_getmetatable</text>
</a>
</g>
</g>
<!-- Node479&#45;&gt;Node480 -->
<g id="edge65" class="edge"><title>Node479&#45;&gt;Node480</title>
<path fill="none" stroke="midnightblue" d="M553.558,-141.599C563.859,-141.599 574.919,-141.599 585.582,-141.599"/>
<polygon fill="midnightblue" stroke="midnightblue" points="585.645,-145.099 595.645,-141.599 585.645,-138.099 585.645,-145.099"/>
</g>
<!-- Node481 -->
<g id="node47" class="node"><title>Node481</title>
<g id="a_node47"><a xlink:href="lapi_8c.html#a52944e714d1c64bda7b83f511c14b2d3" target="_top" xlink:title=" ">
<polygon fill="white" stroke="black" points="610,-94.0993 610,-113.099 673,-113.099 673,-94.0993 610,-94.0993"/>
<text text-anchor="middle" x="641.5" y="-101.099" font-family="Helvetica,sans-Serif" font-size="10.00">lua_rawget</text>
</a>
</g>
</g>
<!-- Node479&#45;&gt;Node481 -->
<g id="edge68" class="edge"><title>Node479&#45;&gt;Node481</title>
<path fill="none" stroke="midnightblue" d="M541.809,-132.01C559.548,-126.904 581.501,-120.584 600.196,-115.202"/>
<polygon fill="midnightblue" stroke="midnightblue" points="601.274,-118.534 609.916,-112.404 599.338,-111.807 601.274,-118.534"/>
</g>
<!-- Node480&#45;&gt;Node3 -->
<g id="edge66" class="edge"><title>Node480&#45;&gt;Node3</title>
<path fill="none" stroke="midnightblue" d="M683.033,-151.195C695.818,-154.214 709.997,-157.554 723,-160.599 764.142,-170.236 811.132,-181.147 844.145,-188.797"/>
<polygon fill="midnightblue" stroke="midnightblue" points="843.388,-192.214 853.92,-191.062 844.968,-185.395 843.388,-192.214"/>
</g>
<!-- Node482 -->
<g id="node48" class="node"><title>Node482</title>
<g id="a_node48"><a xlink:href="lapi_8c.html#a33830676158a2e9fde44f07109035425" target="_top" xlink:title=" ">
<polygon fill="white" stroke="black" points="730,-94.0993 730,-113.099 798,-113.099 798,-94.0993 730,-94.0993"/>
<text text-anchor="middle" x="764" y="-101.099" font-family="Helvetica,sans-Serif" font-size="10.00">finishrawget</text>
</a>
</g>
</g>
<!-- Node481&#45;&gt;Node482 -->
<g id="edge69" class="edge"><title>Node481&#45;&gt;Node482</title>
<path fill="none" stroke="midnightblue" d="M673.219,-103.599C687.269,-103.599 704.166,-103.599 719.493,-103.599"/>
<polygon fill="midnightblue" stroke="midnightblue" points="719.799,-107.099 729.799,-103.599 719.799,-100.099 719.799,-107.099"/>
</g>
<!-- Node468 -->
<g id="node49" class="node"><title>Node468</title>
<g id="a_node49"><a xlink:href="lapi_8c.html#a4ebfbcdc1a7a4f0332d4dd532a817212" target="_top" xlink:title=" ">
<polygon fill="white" stroke="black" points="738.5,-56.0993 738.5,-75.0993 789.5,-75.0993 789.5,-56.0993 738.5,-56.0993"/>
<text text-anchor="middle" x="764" y="-63.0993" font-family="Helvetica,sans-Serif" font-size="10.00">gettable</text>
</a>
</g>
</g>
<!-- Node481&#45;&gt;Node468 -->
<g id="edge70" class="edge"><title>Node481&#45;&gt;Node468</title>
<path fill="none" stroke="midnightblue" d="M672.907,-94.0102C689.809,-88.6802 710.903,-82.0282 728.43,-76.501"/>
<polygon fill="midnightblue" stroke="midnightblue" points="729.794,-79.7407 738.279,-73.3952 727.689,-73.0648 729.794,-79.7407"/>
</g>
<!-- Node146 -->
<g id="node50" class="node"><title>Node146</title>
<g id="a_node50"><a xlink:href="ltable_8c.html#a8b4fce00d7db27ee9caac3d49863dea3" target="_top" xlink:title=" ">
<polygon fill="white" stroke="red" points="736.5,-132.099 736.5,-151.099 791.5,-151.099 791.5,-132.099 736.5,-132.099"/>
<text text-anchor="middle" x="764" y="-139.099" font-family="Helvetica,sans-Serif" font-size="10.00">luaH_get</text>
</a>
</g>
</g>
<!-- Node481&#45;&gt;Node146 -->
<g id="edge72" class="edge"><title>Node481&#45;&gt;Node146</title>
<path fill="none" stroke="midnightblue" d="M672.907,-113.188C689.226,-118.335 709.453,-124.713 726.604,-130.122"/>
<polygon fill="midnightblue" stroke="midnightblue" points="725.705,-133.508 736.295,-133.178 727.81,-126.832 725.705,-133.508"/>
</g>
<!-- Node468&#45;&gt;Node3 -->
<g id="edge71" class="edge"><title>Node468&#45;&gt;Node3</title>
<path fill="none" stroke="midnightblue" d="M789.871,-75.0084C795.173,-77.6516 800.519,-80.8495 805,-84.5993 837.634,-111.908 863.718,-155.114 876.97,-179.748"/>
<polygon fill="midnightblue" stroke="midnightblue" points="873.961,-181.546 881.7,-188.782 880.162,-178.3 873.961,-181.546"/>
</g>
</g>
</svg>
