<?xml version="1.0" encoding="UTF-8" standalone="no"?>
<!DOCTYPE svg PUBLIC "-//W3C//DTD SVG 1.1//EN"
 "http://www.w3.org/Graphics/SVG/1.1/DTD/svg11.dtd">
<!-- Generated by graphviz version 2.38.0 (20140413.2041)
 -->
<!-- Title: errfile Pages: 1 -->
<svg width="1978pt" height="626pt"
 viewBox="0.00 0.00 1978.00 626.00" xmlns="http://www.w3.org/2000/svg" xmlns:xlink="http://www.w3.org/1999/xlink">
<g id="graph0" class="graph" transform="scale(1 1) rotate(0) translate(4 622)">
<title>errfile</title>
<polygon fill="white" stroke="none" points="-4,4 -4,-622 1974,-622 1974,4 -4,4"/>
<!-- Node1 -->
<g id="node1" class="node"><title>Node1</title>
<g id="a_node1"><a xlink:title=" ">
<polygon fill="#bfbfbf" stroke="black" points="0,-251.5 0,-270.5 40,-270.5 40,-251.5 0,-251.5"/>
<text text-anchor="middle" x="20" y="-258.5" font-family="Helvetica,sans-Serif" font-size="10.00">errfile</text>
</a>
</g>
</g>
<!-- Node2 -->
<g id="node2" class="node"><title>Node2</title>
<g id="a_node2"><a xlink:href="lapi_8c.html#ab190c226d38b289e6ca57683a9d4e0f0" target="_top" xlink:title=" ">
<polygon fill="white" stroke="black" points="76,-251.5 76,-270.5 158,-270.5 158,-251.5 76,-251.5"/>
<text text-anchor="middle" x="117" y="-258.5" font-family="Helvetica,sans-Serif" font-size="10.00">lua_pushfstring</text>
</a>
</g>
</g>
<!-- Node1&#45;&gt;Node2 -->
<g id="edge1" class="edge"><title>Node1&#45;&gt;Node2</title>
<path fill="none" stroke="midnightblue" d="M40.2247,-261C47.6304,-261 56.4779,-261 65.4708,-261"/>
<polygon fill="midnightblue" stroke="midnightblue" points="65.6168,-264.5 75.6167,-261 65.6167,-257.5 65.6168,-264.5"/>
</g>
<!-- Node3 -->
<g id="node3" class="node"><title>Node3</title>
<g id="a_node3"><a xlink:href="lobject_8c.html#aa83fa444a36d79521e846a766fa083d5" target="_top" xlink:title=" ">
<polygon fill="white" stroke="black" points="194,-251.5 194,-270.5 287,-270.5 287,-251.5 194,-251.5"/>
<text text-anchor="middle" x="240.5" y="-258.5" font-family="Helvetica,sans-Serif" font-size="10.00">luaO_pushvfstring</text>
</a>
</g>
</g>
<!-- Node2&#45;&gt;Node3 -->
<g id="edge2" class="edge"><title>Node2&#45;&gt;Node3</title>
<path fill="none" stroke="midnightblue" d="M158.12,-261C166.367,-261 175.19,-261 183.872,-261"/>
<polygon fill="midnightblue" stroke="midnightblue" points="183.957,-264.5 193.957,-261 183.957,-257.5 183.957,-264.5"/>
</g>
<!-- Node4 -->
<g id="node4" class="node"><title>Node4</title>
<g id="a_node4"><a xlink:href="lobject_8c.html#a1d02fb9304e4700ce1fd20e34ae68784" target="_top" xlink:title=" ">
<polygon fill="white" stroke="black" points="324.5,-408.5 324.5,-427.5 395.5,-427.5 395.5,-408.5 324.5,-408.5"/>
<text text-anchor="middle" x="360" y="-415.5" font-family="Helvetica,sans-Serif" font-size="10.00">addnum2buff</text>
</a>
</g>
</g>
<!-- Node3&#45;&gt;Node4 -->
<g id="edge3" class="edge"><title>Node3&#45;&gt;Node4</title>
<path fill="none" stroke="midnightblue" d="M245.631,-270.648C255.968,-293.969 284.878,-354.392 323,-394 325.989,-397.105 329.446,-400.024 333.012,-402.684"/>
<polygon fill="midnightblue" stroke="midnightblue" points="331.128,-405.636 341.359,-408.387 335.077,-399.856 331.128,-405.636"/>
</g>
<!-- Node5 -->
<g id="node5" class="node"><title>Node5</title>
<g id="a_node5"><a xlink:href="lobject_8c.html#ac4ab924f2ea45ef73319f1159033eab1" target="_top" xlink:title=" ">
<polygon fill="white" stroke="black" points="442.5,-370.5 442.5,-389.5 487.5,-389.5 487.5,-370.5 442.5,-370.5"/>
<text text-anchor="middle" x="465" y="-377.5" font-family="Helvetica,sans-Serif" font-size="10.00">getbuff</text>
</a>
</g>
</g>
<!-- Node3&#45;&gt;Node5 -->
<g id="edge72" class="edge"><title>Node3&#45;&gt;Node5</title>
<path fill="none" stroke="midnightblue" d="M246.196,-270.737C256.714,-291.362 284.308,-339.334 323,-361 356.782,-379.917 402.058,-382.791 432.086,-382.177"/>
<polygon fill="midnightblue" stroke="midnightblue" points="432.538,-385.663 442.41,-381.816 432.294,-378.668 432.538,-385.663"/>
</g>
<!-- Node6 -->
<g id="node6" class="node"><title>Node6</title>
<g id="a_node6"><a xlink:href="lobject_8c.html#a6ec2716e64cd75e3e6614a87ee92e4d2" target="_top" xlink:title=" ">
<polygon fill="white" stroke="black" points="533,-351.5 533,-370.5 586,-370.5 586,-351.5 533,-351.5"/>
<text text-anchor="middle" x="559.5" y="-358.5" font-family="Helvetica,sans-Serif" font-size="10.00">clearbuff</text>
</a>
</g>
</g>
<!-- Node3&#45;&gt;Node6 -->
<g id="edge71" class="edge"><title>Node3&#45;&gt;Node6</title>
<path fill="none" stroke="midnightblue" d="M271.895,-270.588C330.76,-289.158 460.033,-329.938 522.843,-349.752"/>
<polygon fill="midnightblue" stroke="midnightblue" points="522.101,-353.188 532.691,-352.858 524.207,-346.512 522.101,-353.188"/>
</g>
<!-- Node76 -->
<g id="node17" class="node"><title>Node76</title>
<g id="a_node17"><a xlink:href="ldebug_8c.html#a88d38ca5da2e7a1492fc9d5ad70c32c5" target="_top" xlink:title=" ">
<polygon fill="white" stroke="black" points="920,-209.5 920,-228.5 995,-228.5 995,-209.5 920,-209.5"/>
<text text-anchor="middle" x="957.5" y="-216.5" font-family="Helvetica,sans-Serif" font-size="10.00">luaG_runerror</text>
</a>
</g>
</g>
<!-- Node3&#45;&gt;Node76 -->
<g id="edge73" class="edge"><title>Node3&#45;&gt;Node76</title>
<path fill="none" stroke="midnightblue" d="M256.689,-251.489C292.426,-236.021 384.789,-210 464,-210 464,-210 464,-210 744,-210 800.917,-210 866.41,-210 909.47,-211.97"/>
<polygon fill="midnightblue" stroke="midnightblue" points="909.478,-215.475 919.646,-212.498 909.841,-208.484 909.478,-215.475"/>
</g>
<!-- Node444 -->
<g id="node49" class="node"><title>Node444</title>
<g id="a_node49"><a xlink:href="lobject_8c.html#a874ab64f433ee35f2197a81e10452cb1" target="_top" xlink:title=" ">
<polygon fill="white" stroke="black" points="328,-332.5 328,-351.5 392,-351.5 392,-332.5 328,-332.5"/>
<text text-anchor="middle" x="360" y="-339.5" font-family="Helvetica,sans-Serif" font-size="10.00">addstr2buff</text>
</a>
</g>
</g>
<!-- Node3&#45;&gt;Node444 -->
<g id="edge67" class="edge"><title>Node3&#45;&gt;Node444</title>
<path fill="none" stroke="midnightblue" d="M254.991,-270.573C271.103,-281.974 298.903,-301.544 323,-318 327.199,-320.867 331.694,-323.896 336.035,-326.801"/>
<polygon fill="midnightblue" stroke="midnightblue" points="334.323,-329.866 344.586,-332.497 338.204,-324.04 334.323,-329.866"/>
</g>
<!-- Node257 -->
<g id="node50" class="node"><title>Node257</title>
<g id="a_node50"><a xlink:href="lobject_8c.html#af3136de4693789b08f78aafda9604676" target="_top" xlink:title=" ">
<polygon fill="white" stroke="black" points="323,-162.5 323,-181.5 397,-181.5 397,-162.5 323,-162.5"/>
<text text-anchor="middle" x="360" y="-169.5" font-family="Helvetica,sans-Serif" font-size="10.00">luaO_utf8esc</text>
</a>
</g>
</g>
<!-- Node3&#45;&gt;Node257 -->
<g id="edge74" class="edge"><title>Node3&#45;&gt;Node257</title>
<path fill="none" stroke="midnightblue" d="M252.866,-251.427C268.4,-238.461 297.274,-214.782 323,-196 327.034,-193.055 331.402,-190.02 335.658,-187.141"/>
<polygon fill="midnightblue" stroke="midnightblue" points="337.705,-189.983 344.092,-181.53 333.828,-184.155 337.705,-189.983"/>
</g>
<!-- Node4&#45;&gt;Node5 -->
<g id="edge4" class="edge"><title>Node4&#45;&gt;Node5</title>
<path fill="none" stroke="midnightblue" d="M386.991,-408.411C400.84,-403.302 417.981,-396.978 432.573,-391.595"/>
<polygon fill="midnightblue" stroke="midnightblue" points="434.025,-394.789 442.196,-388.044 431.602,-388.222 434.025,-394.789"/>
</g>
<!-- Node443 -->
<g id="node48" class="node"><title>Node443</title>
<g id="a_node48"><a xlink:href="lobject_8c.html#a8a7886b6335aca97db23dfe3e220c728" target="_top" xlink:title=" ">
<polygon fill="white" stroke="black" points="433,-408.5 433,-427.5 497,-427.5 497,-408.5 433,-408.5"/>
<text text-anchor="middle" x="465" y="-415.5" font-family="Helvetica,sans-Serif" font-size="10.00">tostringbuff</text>
</a>
</g>
</g>
<!-- Node4&#45;&gt;Node443 -->
<g id="edge66" class="edge"><title>Node4&#45;&gt;Node443</title>
<path fill="none" stroke="midnightblue" d="M395.584,-418C404.237,-418 413.607,-418 422.556,-418"/>
<polygon fill="midnightblue" stroke="midnightblue" points="422.799,-421.5 432.799,-418 422.798,-414.5 422.799,-421.5"/>
</g>
<!-- Node5&#45;&gt;Node6 -->
<g id="edge5" class="edge"><title>Node5&#45;&gt;Node6</title>
<path fill="none" stroke="midnightblue" d="M487.921,-375.497C498.334,-373.358 511.047,-370.747 522.8,-368.333"/>
<polygon fill="midnightblue" stroke="midnightblue" points="523.708,-371.72 532.799,-366.279 522.299,-364.863 523.708,-371.72"/>
</g>
<!-- Node7 -->
<g id="node7" class="node"><title>Node7</title>
<g id="a_node7"><a xlink:href="lobject_8c.html#a90720e7e38c0e352e9b97d3f8def9e1a" target="_top" xlink:title=" ">
<polygon fill="white" stroke="black" points="622,-375.5 622,-394.5 671,-394.5 671,-375.5 622,-375.5"/>
<text text-anchor="middle" x="646.5" y="-382.5" font-family="Helvetica,sans-Serif" font-size="10.00">pushstr</text>
</a>
</g>
</g>
<!-- Node6&#45;&gt;Node7 -->
<g id="edge6" class="edge"><title>Node6&#45;&gt;Node7</title>
<path fill="none" stroke="midnightblue" d="M586.003,-368.201C594.157,-370.503 603.311,-373.088 611.948,-375.526"/>
<polygon fill="midnightblue" stroke="midnightblue" points="611.184,-378.948 621.759,-378.297 613.087,-372.211 611.184,-378.948"/>
</g>
<!-- Node8 -->
<g id="node8" class="node"><title>Node8</title>
<g id="a_node8"><a xlink:href="lstring_8c.html#ab41fb084ce3ea5e2779f6659ccc2484d" target="_top" xlink:title=" ">
<polygon fill="white" stroke="black" points="707,-418.5 707,-437.5 779,-437.5 779,-418.5 707,-418.5"/>
<text text-anchor="middle" x="743" y="-425.5" font-family="Helvetica,sans-Serif" font-size="10.00">luaS_newlstr</text>
</a>
</g>
</g>
<!-- Node7&#45;&gt;Node8 -->
<g id="edge7" class="edge"><title>Node7&#45;&gt;Node8</title>
<path fill="none" stroke="midnightblue" d="M668.473,-394.543C681.197,-400.333 697.648,-407.819 711.763,-414.241"/>
<polygon fill="midnightblue" stroke="midnightblue" points="710.534,-417.528 721.086,-418.484 713.434,-411.156 710.534,-417.528"/>
</g>
<!-- Node397 -->
<g id="node41" class="node"><title>Node397</title>
<g id="a_node41"><a xlink:href="lvm_8c.html#a2f076040af405dcb50d661edd692eca7" target="_top" xlink:title=" ">
<polygon fill="white" stroke="black" points="1507,-418.5 1507,-437.5 1578,-437.5 1578,-418.5 1507,-418.5"/>
<text text-anchor="middle" x="1542.5" y="-425.5" font-family="Helvetica,sans-Serif" font-size="10.00">luaV_concat</text>
</a>
</g>
</g>
<!-- Node7&#45;&gt;Node397 -->
<g id="edge65" class="edge"><title>Node7&#45;&gt;Node397</title>
<path fill="none" stroke="midnightblue" d="M651.6,-394.67C668.999,-434.017 740.809,-580 848.5,-580 848.5,-580 848.5,-580 1306,-580 1404.38,-580 1494.24,-485.206 1527.69,-445.338"/>
<polygon fill="midnightblue" stroke="midnightblue" points="1530.48,-447.457 1534.12,-437.508 1525.07,-443.014 1530.48,-447.457"/>
</g>
<!-- Node9 -->
<g id="node9" class="node"><title>Node9</title>
<g id="a_node9"><a xlink:href="lstring_8c.html#a9b2c32c59a280de24f20df1c7f0433a1" target="_top" xlink:title=" ">
<polygon fill="white" stroke="black" points="817,-513.5 817,-532.5 882,-532.5 882,-513.5 817,-513.5"/>
<text text-anchor="middle" x="849.5" y="-520.5" font-family="Helvetica,sans-Serif" font-size="10.00">internshrstr</text>
</a>
</g>
</g>
<!-- Node8&#45;&gt;Node9 -->
<g id="edge8" class="edge"><title>Node8&#45;&gt;Node9</title>
<path fill="none" stroke="midnightblue" d="M754.79,-437.809C772.638,-454.035 808.502,-486.638 830.318,-506.471"/>
<polygon fill="midnightblue" stroke="midnightblue" points="828.171,-509.249 837.925,-513.386 832.88,-504.069 828.171,-509.249"/>
</g>
<!-- Node442 -->
<g id="node16" class="node"><title>Node442</title>
<g id="a_node16"><a xlink:href="lmem_8c.html#a8fc7df43dd830ccbe7581fd53f65bdbe" target="_top" xlink:title=" ">
<polygon fill="white" stroke="black" points="815,-327.5 815,-346.5 884,-346.5 884,-327.5 815,-327.5"/>
<text text-anchor="middle" x="849.5" y="-334.5" font-family="Helvetica,sans-Serif" font-size="10.00">luaM_toobig</text>
</a>
</g>
</g>
<!-- Node8&#45;&gt;Node442 -->
<g id="edge15" class="edge"><title>Node8&#45;&gt;Node442</title>
<path fill="none" stroke="midnightblue" d="M755.183,-418.261C773.018,-402.731 808.098,-372.183 829.799,-353.285"/>
<polygon fill="midnightblue" stroke="midnightblue" points="832.154,-355.875 837.397,-346.669 827.557,-350.596 832.154,-355.875"/>
</g>
<!-- Node399 -->
<g id="node43" class="node"><title>Node399</title>
<g id="a_node43"><a xlink:href="lstring_8c.html#a8790c7d6e706f935dd6e9eefd068921c" target="_top" xlink:title=" ">
<polygon fill="white" stroke="black" points="1614,-465.5 1614,-484.5 1719,-484.5 1719,-465.5 1614,-465.5"/>
<text text-anchor="middle" x="1666.5" y="-472.5" font-family="Helvetica,sans-Serif" font-size="10.00">luaS_createlngstrobj</text>
</a>
</g>
</g>
<!-- Node8&#45;&gt;Node399 -->
<g id="edge64" class="edge"><title>Node8&#45;&gt;Node399</title>
<path fill="none" stroke="midnightblue" d="M776.802,-437.589C818.271,-448.846 892.039,-466 956.5,-466 956.5,-466 956.5,-466 1423.5,-466 1484.73,-466 1554.62,-468.913 1603.49,-471.424"/>
<polygon fill="midnightblue" stroke="midnightblue" points="1603.42,-474.925 1613.59,-471.953 1603.79,-467.935 1603.42,-474.925"/>
</g>
<!-- Node10 -->
<g id="node10" class="node"><title>Node10</title>
<g id="a_node10"><a xlink:href="lstring_8c.html#a85a1a917ef263701e47c36e68011d917" target="_top" xlink:title=" ">
<polygon fill="white" stroke="black" points="1766.5,-541.5 1766.5,-560.5 1834.5,-560.5 1834.5,-541.5 1766.5,-541.5"/>
<text text-anchor="middle" x="1800.5" y="-548.5" font-family="Helvetica,sans-Serif" font-size="10.00">createstrobj</text>
</a>
</g>
</g>
<!-- Node9&#45;&gt;Node10 -->
<g id="edge9" class="edge"><title>Node9&#45;&gt;Node10</title>
<path fill="none" stroke="midnightblue" d="M863.028,-532.809C895.329,-557.081 984.877,-618 1070,-618 1070,-618 1070,-618 1543.5,-618 1627.14,-618 1721.28,-584.117 1768.69,-564.542"/>
<polygon fill="midnightblue" stroke="midnightblue" points="1770.22,-567.699 1778.08,-560.599 1767.51,-561.245 1770.22,-567.699"/>
</g>
<!-- Node12 -->
<g id="node12" class="node"><title>Node12</title>
<g id="a_node12"><a xlink:href="lstring_8c.html#af8b89b01dc2db9f0d3024067ffdb931a" target="_top" xlink:title=" ">
<polygon fill="white" stroke="black" points="926.5,-494.5 926.5,-513.5 988.5,-513.5 988.5,-494.5 926.5,-494.5"/>
<text text-anchor="middle" x="957.5" y="-501.5" font-family="Helvetica,sans-Serif" font-size="10.00">growstrtab</text>
</a>
</g>
</g>
<!-- Node9&#45;&gt;Node12 -->
<g id="edge11" class="edge"><title>Node9&#45;&gt;Node12</title>
<path fill="none" stroke="midnightblue" d="M882.017,-517.351C892.763,-515.425 904.928,-513.244 916.265,-511.212"/>
<polygon fill="midnightblue" stroke="midnightblue" points="917.153,-514.609 926.378,-509.399 915.918,-507.718 917.153,-514.609"/>
</g>
<!-- Node149 -->
<g id="node15" class="node"><title>Node149</title>
<g id="a_node15"><a xlink:href="lstring_8c.html#ac453c0e85b7bb4e9b146fc140b1b7c9e" target="_top" xlink:title=" ">
<polygon fill="white" stroke="black" points="926.5,-532.5 926.5,-551.5 988.5,-551.5 988.5,-532.5 926.5,-532.5"/>
<text text-anchor="middle" x="957.5" y="-539.5" font-family="Helvetica,sans-Serif" font-size="10.00">luaS_hash</text>
</a>
</g>
</g>
<!-- Node9&#45;&gt;Node149 -->
<g id="edge14" class="edge"><title>Node9&#45;&gt;Node149</title>
<path fill="none" stroke="midnightblue" d="M882.017,-528.649C892.763,-530.575 904.928,-532.756 916.265,-534.788"/>
<polygon fill="midnightblue" stroke="midnightblue" points="915.918,-538.282 926.378,-536.601 917.153,-531.391 915.918,-538.282"/>
</g>
<!-- Node11 -->
<g id="node11" class="node"><title>Node11</title>
<g id="a_node11"><a xlink:href="lgc_8c.html#abfc8404c5fbd2a1770202fa0b087d451" target="_top" xlink:title=" ">
<polygon fill="white" stroke="black" points="1890.5,-541.5 1890.5,-560.5 1961.5,-560.5 1961.5,-541.5 1890.5,-541.5"/>
<text text-anchor="middle" x="1926" y="-548.5" font-family="Helvetica,sans-Serif" font-size="10.00">luaC_newobj</text>
</a>
</g>
</g>
<!-- Node10&#45;&gt;Node11 -->
<g id="edge10" class="edge"><title>Node10&#45;&gt;Node11</title>
<path fill="none" stroke="midnightblue" d="M1834.6,-551C1848.53,-551 1864.96,-551 1879.97,-551"/>
<polygon fill="midnightblue" stroke="midnightblue" points="1880.08,-554.5 1890.08,-551 1880.08,-547.5 1880.08,-554.5"/>
</g>
<!-- Node13 -->
<g id="node13" class="node"><title>Node13</title>
<g id="a_node13"><a xlink:href="lgc_8c.html#ac48130e5263ad8be09a9c51dae6125b9" target="_top" xlink:title=" ">
<polygon fill="white" stroke="red" points="1039,-494.5 1039,-513.5 1103,-513.5 1103,-494.5 1039,-494.5"/>
<text text-anchor="middle" x="1071" y="-501.5" font-family="Helvetica,sans-Serif" font-size="10.00">luaC_fullgc</text>
</a>
</g>
</g>
<!-- Node12&#45;&gt;Node13 -->
<g id="edge12" class="edge"><title>Node12&#45;&gt;Node13</title>
<path fill="none" stroke="midnightblue" d="M988.674,-504C1000.89,-504 1015.19,-504 1028.37,-504"/>
<polygon fill="midnightblue" stroke="midnightblue" points="1028.64,-507.5 1038.64,-504 1028.63,-500.5 1028.64,-507.5"/>
</g>
<!-- Node416 -->
<g id="node14" class="node"><title>Node416</title>
<g id="a_node14"><a xlink:href="lstring_8c.html#ad47f5961683a728dd3f6d80040d1dd92" target="_top" xlink:title=" ">
<polygon fill="white" stroke="red" points="1037,-532.5 1037,-551.5 1105,-551.5 1105,-532.5 1037,-532.5"/>
<text text-anchor="middle" x="1071" y="-539.5" font-family="Helvetica,sans-Serif" font-size="10.00">luaS_resize</text>
</a>
</g>
</g>
<!-- Node12&#45;&gt;Node416 -->
<g id="edge13" class="edge"><title>Node12&#45;&gt;Node416</title>
<path fill="none" stroke="midnightblue" d="M986.636,-513.589C1000.5,-518.314 1017.42,-524.079 1032.38,-529.177"/>
<polygon fill="midnightblue" stroke="midnightblue" points="1031.28,-532.501 1041.87,-532.414 1033.54,-525.875 1031.28,-532.501"/>
</g>
<!-- Node442&#45;&gt;Node76 -->
<g id="edge16" class="edge"><title>Node442&#45;&gt;Node76</title>
<path fill="none" stroke="midnightblue" d="M859.174,-327.344C877.033,-307.464 918.126,-261.718 940.787,-236.491"/>
<polygon fill="midnightblue" stroke="midnightblue" points="943.627,-238.568 947.706,-228.79 938.419,-233.89 943.627,-238.568"/>
</g>
<!-- Node76&#45;&gt;Node3 -->
<g id="edge63" class="edge"><title>Node76&#45;&gt;Node3</title>
<path fill="none" stroke="midnightblue" d="M919.646,-225.502C877.268,-228 805.61,-228 744,-228 464,-228 464,-228 464,-228 406.256,-228 341.523,-241.828 296.833,-251.915"/>
<polygon fill="midnightblue" stroke="midnightblue" points="296.028,-248.508 287.049,-254.132 297.575,-255.335 296.028,-248.508"/>
</g>
<!-- Node77 -->
<g id="node18" class="node"><title>Node77</title>
<g id="a_node18"><a xlink:href="ldebug_8c.html#ad6bc24d619df8e849e2ae8b00455d86f" target="_top" xlink:title=" ">
<polygon fill="white" stroke="black" points="1033.5,-152.5 1033.5,-171.5 1108.5,-171.5 1108.5,-152.5 1033.5,-152.5"/>
<text text-anchor="middle" x="1071" y="-159.5" font-family="Helvetica,sans-Serif" font-size="10.00">getcurrentline</text>
</a>
</g>
</g>
<!-- Node76&#45;&gt;Node77 -->
<g id="edge17" class="edge"><title>Node76&#45;&gt;Node77</title>
<path fill="none" stroke="midnightblue" d="M977.163,-209.459C994.931,-200.376 1021.9,-186.59 1042.2,-176.213"/>
<polygon fill="midnightblue" stroke="midnightblue" points="1043.97,-179.24 1051.28,-171.572 1040.78,-173.007 1043.97,-179.24"/>
</g>
<!-- Node80 -->
<g id="node22" class="node"><title>Node80</title>
<g id="a_node22"><a xlink:href="ldebug_8c.html#a7e1dc7518150bf19bd9aa5dda166a2eb" target="_top" xlink:title=" ">
<polygon fill="white" stroke="black" points="1034.5,-38.5 1034.5,-57.5 1107.5,-57.5 1107.5,-38.5 1034.5,-38.5"/>
<text text-anchor="middle" x="1071" y="-45.5" font-family="Helvetica,sans-Serif" font-size="10.00">luaG_addinfo</text>
</a>
</g>
</g>
<!-- Node76&#45;&gt;Node80 -->
<g id="edge21" class="edge"><title>Node76&#45;&gt;Node80</title>
<path fill="none" stroke="midnightblue" d="M961.2,-209.328C968.637,-184.116 991.532,-115.341 1031,-72 1033.95,-68.7597 1037.44,-65.802 1041.1,-63.1556"/>
<polygon fill="midnightblue" stroke="midnightblue" points="1043.26,-65.9234 1049.76,-57.5586 1039.47,-60.0428 1043.26,-65.9234"/>
</g>
<!-- Node83 -->
<g id="node25" class="node"><title>Node83</title>
<g id="a_node25"><a xlink:href="ldebug_8c.html#af7366920f8408bb33ed01b1d6c0e1238" target="_top" xlink:title=" ">
<polygon fill="white" stroke="black" points="1031,-228.5 1031,-247.5 1111,-247.5 1111,-228.5 1031,-228.5"/>
<text text-anchor="middle" x="1071" y="-235.5" font-family="Helvetica,sans-Serif" font-size="10.00">luaG_errormsg</text>
</a>
</g>
</g>
<!-- Node76&#45;&gt;Node83 -->
<g id="edge25" class="edge"><title>Node76&#45;&gt;Node83</title>
<path fill="none" stroke="midnightblue" d="M995.009,-225.221C1003.23,-226.621 1012.08,-228.13 1020.72,-229.603"/>
<polygon fill="midnightblue" stroke="midnightblue" points="1020.27,-233.077 1030.72,-231.306 1021.45,-226.176 1020.27,-233.077"/>
</g>
<!-- Node73 -->
<g id="node19" class="node"><title>Node73</title>
<g id="a_node19"><a xlink:href="ldebug_8c.html#a7db2a3f5cbcf0ac3ef6d4cfa15ab4dbc" target="_top" xlink:title=" ">
<polygon fill="white" stroke="black" points="1163,-114.5 1163,-133.5 1220,-133.5 1220,-114.5 1163,-114.5"/>
<text text-anchor="middle" x="1191.5" y="-121.5" font-family="Helvetica,sans-Serif" font-size="10.00">currentpc</text>
</a>
</g>
</g>
<!-- Node77&#45;&gt;Node73 -->
<g id="edge18" class="edge"><title>Node77&#45;&gt;Node73</title>
<path fill="none" stroke="midnightblue" d="M1101.9,-152.411C1117.35,-147.458 1136.35,-141.365 1152.79,-136.092"/>
<polygon fill="midnightblue" stroke="midnightblue" points="1154.19,-139.32 1162.64,-132.933 1152.05,-132.654 1154.19,-139.32"/>
</g>
<!-- Node78 -->
<g id="node20" class="node"><title>Node78</title>
<g id="a_node20"><a xlink:href="ldebug_8c.html#ae7a6d2f88b11cc05758e44acd433ee2f" target="_top" xlink:title=" ">
<polygon fill="white" stroke="black" points="1147,-152.5 1147,-171.5 1236,-171.5 1236,-152.5 1147,-152.5"/>
<text text-anchor="middle" x="1191.5" y="-159.5" font-family="Helvetica,sans-Serif" font-size="10.00">luaG_getfuncline</text>
</a>
</g>
</g>
<!-- Node77&#45;&gt;Node78 -->
<g id="edge19" class="edge"><title>Node77&#45;&gt;Node78</title>
<path fill="none" stroke="midnightblue" d="M1108.52,-162C1117.41,-162 1127.1,-162 1136.61,-162"/>
<polygon fill="midnightblue" stroke="midnightblue" points="1136.81,-165.5 1146.81,-162 1136.81,-158.5 1136.81,-165.5"/>
</g>
<!-- Node79 -->
<g id="node21" class="node"><title>Node79</title>
<g id="a_node21"><a xlink:href="ldebug_8c.html#a355ee1f29ee39ff665aa01ef4493f453" target="_top" xlink:title=" ">
<polygon fill="white" stroke="black" points="1272,-152.5 1272,-171.5 1338,-171.5 1338,-152.5 1272,-152.5"/>
<text text-anchor="middle" x="1305" y="-159.5" font-family="Helvetica,sans-Serif" font-size="10.00">getbaseline</text>
</a>
</g>
</g>
<!-- Node78&#45;&gt;Node79 -->
<g id="edge20" class="edge"><title>Node78&#45;&gt;Node79</title>
<path fill="none" stroke="midnightblue" d="M1236.25,-162C1244.57,-162 1253.27,-162 1261.55,-162"/>
<polygon fill="midnightblue" stroke="midnightblue" points="1261.76,-165.5 1271.76,-162 1261.76,-158.5 1261.76,-165.5"/>
</g>
<!-- Node81 -->
<g id="node23" class="node"><title>Node81</title>
<g id="a_node23"><a xlink:href="lobject_8c.html#ac331b4119bbeb45a8a7e5a1afe553b2e" target="_top" xlink:title=" ">
<polygon fill="white" stroke="black" points="1153.5,-38.5 1153.5,-57.5 1229.5,-57.5 1229.5,-38.5 1153.5,-38.5"/>
<text text-anchor="middle" x="1191.5" y="-45.5" font-family="Helvetica,sans-Serif" font-size="10.00">luaO_chunkid</text>
</a>
</g>
</g>
<!-- Node80&#45;&gt;Node81 -->
<g id="edge22" class="edge"><title>Node80&#45;&gt;Node81</title>
<path fill="none" stroke="midnightblue" d="M1107.55,-48C1118.73,-48 1131.26,-48 1143.12,-48"/>
<polygon fill="midnightblue" stroke="midnightblue" points="1143.33,-51.5001 1153.33,-48 1143.33,-44.5001 1143.33,-51.5001"/>
</g>
<!-- Node82 -->
<g id="node24" class="node"><title>Node82</title>
<g id="a_node24"><a xlink:href="lobject_8c.html#a8e224db7123c74d695076a96d1bfda61" target="_top" xlink:title=" ">
<polygon fill="white" stroke="black" points="1147,-0.5 1147,-19.5 1236,-19.5 1236,-0.5 1147,-0.5"/>
<text text-anchor="middle" x="1191.5" y="-7.5" font-family="Helvetica,sans-Serif" font-size="10.00">luaO_pushfstring</text>
</a>
</g>
</g>
<!-- Node80&#45;&gt;Node82 -->
<g id="edge23" class="edge"><title>Node80&#45;&gt;Node82</title>
<path fill="none" stroke="midnightblue" d="M1101.9,-38.411C1116.78,-33.6406 1134.96,-27.8112 1150.97,-22.6771"/>
<polygon fill="midnightblue" stroke="midnightblue" points="1152.15,-25.9724 1160.61,-19.5859 1150.02,-19.3068 1152.15,-25.9724"/>
</g>
<!-- Node82&#45;&gt;Node3 -->
<g id="edge24" class="edge"><title>Node82&#45;&gt;Node3</title>
<path fill="none" stroke="midnightblue" d="M1146.89,-10C1100.26,-10 1024.15,-10 958.5,-10 464,-10 464,-10 464,-10 340.105,-10 268.463,-183.366 247.796,-241.935"/>
<polygon fill="midnightblue" stroke="midnightblue" points="244.46,-240.872 244.529,-251.467 251.082,-243.142 244.46,-240.872"/>
</g>
<!-- Node54 -->
<g id="node26" class="node"><title>Node54</title>
<g id="a_node26"><a xlink:href="ldo_8c.html#a61c0a0185ef5ae1493dad10027f4db7e" target="_top" xlink:title=" ">
<polygon fill="white" stroke="black" points="1148,-266.5 1148,-285.5 1235,-285.5 1235,-266.5 1148,-266.5"/>
<text text-anchor="middle" x="1191.5" y="-273.5" font-family="Helvetica,sans-Serif" font-size="10.00">luaD_callnoyield</text>
</a>
</g>
</g>
<!-- Node83&#45;&gt;Node54 -->
<g id="edge26" class="edge"><title>Node83&#45;&gt;Node54</title>
<path fill="none" stroke="midnightblue" d="M1101.9,-247.589C1116.78,-252.359 1134.96,-258.189 1150.97,-263.323"/>
<polygon fill="midnightblue" stroke="midnightblue" points="1150.02,-266.693 1160.61,-266.414 1152.15,-260.028 1150.02,-266.693"/>
</g>
<!-- Node84 -->
<g id="node35" class="node"><title>Node84</title>
<g id="a_node35"><a xlink:href="ldo_8c.html#a2b46d9db5b9ca3d5402a0c2ac640a6b0" target="_top" xlink:title=" ">
<polygon fill="white" stroke="black" points="1510,-114.5 1510,-133.5 1575,-133.5 1575,-114.5 1510,-114.5"/>
<text text-anchor="middle" x="1542.5" y="-121.5" font-family="Helvetica,sans-Serif" font-size="10.00">luaD_throw</text>
</a>
</g>
</g>
<!-- Node83&#45;&gt;Node84 -->
<g id="edge62" class="edge"><title>Node83&#45;&gt;Node84</title>
<path fill="none" stroke="midnightblue" d="M1111.02,-240.637C1199.21,-245.89 1410.92,-254.32 1471,-219 1497.16,-203.625 1488.57,-185.098 1507,-161 1512.21,-154.19 1518.46,-147.193 1524.21,-141.142"/>
<polygon fill="midnightblue" stroke="midnightblue" points="1527.1,-143.187 1531.58,-133.584 1522.09,-138.3 1527.1,-143.187"/>
</g>
<!-- Node55 -->
<g id="node27" class="node"><title>Node55</title>
<g id="a_node27"><a xlink:href="ldo_8c.html#aa7d32ccef16c2d4fe63604c4c457831d" target="_top" xlink:title=" ">
<polygon fill="white" stroke="black" points="1286.5,-266.5 1286.5,-285.5 1323.5,-285.5 1323.5,-266.5 1286.5,-266.5"/>
<text text-anchor="middle" x="1305" y="-273.5" font-family="Helvetica,sans-Serif" font-size="10.00">ccall</text>
</a>
</g>
</g>
<!-- Node54&#45;&gt;Node55 -->
<g id="edge27" class="edge"><title>Node54&#45;&gt;Node55</title>
<path fill="none" stroke="midnightblue" d="M1235.29,-276C1249.06,-276 1263.96,-276 1276.34,-276"/>
<polygon fill="midnightblue" stroke="midnightblue" points="1276.49,-279.5 1286.49,-276 1276.49,-272.5 1276.49,-279.5"/>
</g>
<!-- Node56 -->
<g id="node28" class="node"><title>Node56</title>
<g id="a_node28"><a xlink:href="ldo_8c.html#a6ef9a33a964a596c36af61d452260bf5" target="_top" xlink:title=" ">
<polygon fill="white" stroke="black" points="1507.5,-284.5 1507.5,-303.5 1577.5,-303.5 1577.5,-284.5 1507.5,-284.5"/>
<text text-anchor="middle" x="1542.5" y="-291.5" font-family="Helvetica,sans-Serif" font-size="10.00">luaD_precall</text>
</a>
</g>
</g>
<!-- Node55&#45;&gt;Node56 -->
<g id="edge28" class="edge"><title>Node55&#45;&gt;Node56</title>
<path fill="none" stroke="midnightblue" d="M1323.62,-282.352C1337.18,-286.891 1356.51,-292.603 1374,-295 1415.51,-300.691 1463.36,-299.659 1497.26,-297.669"/>
<polygon fill="midnightblue" stroke="midnightblue" points="1497.55,-301.157 1507.31,-297.027 1497.11,-294.171 1497.55,-301.157"/>
</g>
<!-- Node102 -->
<g id="node34" class="node"><title>Node102</title>
<g id="a_node34"><a xlink:href="lstate_8c.html#a3da163a7316194f3a2cb950ee2b4e614" target="_top" xlink:title=" ">
<polygon fill="white" stroke="black" points="1374,-190.5 1374,-209.5 1471,-209.5 1471,-190.5 1374,-190.5"/>
<text text-anchor="middle" x="1422.5" y="-197.5" font-family="Helvetica,sans-Serif" font-size="10.00">luaE_checkcstack</text>
</a>
</g>
</g>
<!-- Node55&#45;&gt;Node102 -->
<g id="edge35" class="edge"><title>Node55&#45;&gt;Node102</title>
<path fill="none" stroke="midnightblue" d="M1320.63,-266.375C1340.24,-253.469 1375.27,-230.418 1398.45,-215.167"/>
<polygon fill="midnightblue" stroke="midnightblue" points="1400.56,-217.968 1406.99,-209.547 1396.71,-212.12 1400.56,-217.968"/>
</g>
<!-- Node103 -->
<g id="node40" class="node"><title>Node103</title>
<g id="a_node40"><a xlink:href="lvm_8c.html#a221e6dd0bc488dc961e9007ed8e21189" target="_top" xlink:title=" ">
<polygon fill="white" stroke="red" points="1384.5,-266.5 1384.5,-285.5 1460.5,-285.5 1460.5,-266.5 1384.5,-266.5"/>
<text text-anchor="middle" x="1422.5" y="-273.5" font-family="Helvetica,sans-Serif" font-size="10.00">luaV_execute</text>
</a>
</g>
</g>
<!-- Node55&#45;&gt;Node103 -->
<g id="edge44" class="edge"><title>Node55&#45;&gt;Node103</title>
<path fill="none" stroke="midnightblue" d="M1323.54,-276C1336.94,-276 1356.07,-276 1373.88,-276"/>
<polygon fill="midnightblue" stroke="midnightblue" points="1374.16,-279.5 1384.16,-276 1374.16,-272.5 1374.16,-279.5"/>
</g>
<!-- Node57 -->
<g id="node29" class="node"><title>Node57</title>
<g id="a_node29"><a xlink:href="ldo_8c.html#aa74dd2ed1bf68092213c0cd69d3a8aab" target="_top" xlink:title=" ">
<polygon fill="white" stroke="black" points="1635.5,-313.5 1635.5,-332.5 1697.5,-332.5 1697.5,-313.5 1635.5,-313.5"/>
<text text-anchor="middle" x="1666.5" y="-320.5" font-family="Helvetica,sans-Serif" font-size="10.00">luaD_hook</text>
</a>
</g>
</g>
<!-- Node56&#45;&gt;Node57 -->
<g id="edge29" class="edge"><title>Node56&#45;&gt;Node57</title>
<path fill="none" stroke="midnightblue" d="M1577.81,-302.155C1592.61,-305.673 1610.02,-309.812 1625.41,-313.471"/>
<polygon fill="midnightblue" stroke="midnightblue" points="1624.65,-316.887 1635.19,-315.794 1626.27,-310.076 1624.65,-316.887"/>
</g>
<!-- Node58 -->
<g id="node30" class="node"><title>Node58</title>
<g id="a_node30"><a xlink:href="ldo_8c.html#a93ef0e89dcfdd64224670aa54d7e4f5b" target="_top" xlink:title=" ">
<polygon fill="white" stroke="red" points="1630.5,-237.5 1630.5,-256.5 1702.5,-256.5 1702.5,-237.5 1630.5,-237.5"/>
<text text-anchor="middle" x="1666.5" y="-244.5" font-family="Helvetica,sans-Serif" font-size="10.00">luaD_poscall</text>
</a>
</g>
</g>
<!-- Node56&#45;&gt;Node58 -->
<g id="edge30" class="edge"><title>Node56&#45;&gt;Node58</title>
<path fill="none" stroke="midnightblue" d="M1568.19,-284.489C1586.26,-277.527 1611.01,-267.991 1631.03,-260.279"/>
<polygon fill="midnightblue" stroke="midnightblue" points="1632.36,-263.519 1640.43,-256.658 1629.84,-256.987 1632.36,-263.519"/>
</g>
<!-- Node87 -->
<g id="node31" class="node"><title>Node87</title>
<g id="a_node31"><a xlink:href="ldo_8c.html#ac468380c26188a69262776f07bdf7780" target="_top" xlink:title=" ">
<polygon fill="white" stroke="black" points="1758.5,-275.5 1758.5,-294.5 1842.5,-294.5 1842.5,-275.5 1758.5,-275.5"/>
<text text-anchor="middle" x="1800.5" y="-282.5" font-family="Helvetica,sans-Serif" font-size="10.00">luaD_tryfuncTM</text>
</a>
</g>
</g>
<!-- Node56&#45;&gt;Node87 -->
<g id="edge31" class="edge"><title>Node56&#45;&gt;Node87</title>
<path fill="none" stroke="midnightblue" d="M1577.76,-292.796C1621.48,-291.259 1697.5,-288.586 1748.16,-286.805"/>
<polygon fill="midnightblue" stroke="midnightblue" points="1748.38,-290.3 1758.25,-286.45 1748.13,-283.304 1748.38,-290.3"/>
</g>
<!-- Node88 -->
<g id="node32" class="node"><title>Node88</title>
<g id="a_node32"><a xlink:href="ldebug_8c.html#a60bf9ce85441bd5065f2b73640163711" target="_top" xlink:title=" ">
<polygon fill="white" stroke="red" points="1886,-275.5 1886,-294.5 1966,-294.5 1966,-275.5 1886,-275.5"/>
<text text-anchor="middle" x="1926" y="-282.5" font-family="Helvetica,sans-Serif" font-size="10.00">luaG_typeerror</text>
</a>
</g>
</g>
<!-- Node87&#45;&gt;Node88 -->
<g id="edge32" class="edge"><title>Node87&#45;&gt;Node88</title>
<path fill="none" stroke="midnightblue" d="M1842.62,-285C1853.15,-285 1864.58,-285 1875.49,-285"/>
<polygon fill="midnightblue" stroke="midnightblue" points="1875.73,-288.5 1885.73,-285 1875.73,-281.5 1875.73,-288.5"/>
</g>
<!-- Node69 -->
<g id="node33" class="node"><title>Node69</title>
<g id="a_node33"><a xlink:href="ltm_8c.html#a0a3a3df9d6e7f17d806f74d411e59b2d" target="_top" xlink:title=" ">
<polygon fill="white" stroke="red" points="1882,-323.5 1882,-342.5 1970,-342.5 1970,-323.5 1882,-323.5"/>
<text text-anchor="middle" x="1926" y="-330.5" font-family="Helvetica,sans-Serif" font-size="10.00">luaT_gettmbyobj</text>
</a>
</g>
</g>
<!-- Node87&#45;&gt;Node69 -->
<g id="edge34" class="edge"><title>Node87&#45;&gt;Node69</title>
<path fill="none" stroke="midnightblue" d="M1826.2,-294.598C1844.71,-301.793 1870.27,-311.727 1890.75,-319.689"/>
<polygon fill="midnightblue" stroke="midnightblue" points="1889.76,-323.058 1900.35,-323.418 1892.29,-316.534 1889.76,-323.058"/>
</g>
<!-- Node88&#45;&gt;Node76 -->
<g id="edge33" class="edge"><title>Node88&#45;&gt;Node76</title>
<path fill="none" stroke="midnightblue" d="M1924.03,-275.104C1920.4,-244.029 1904.67,-147.921 1846,-105 1781.61,-57.892 1747.28,-86 1667.5,-86 1190.5,-86 1190.5,-86 1190.5,-86 1115.22,-86 1094.13,-101.991 1031,-143 1006.65,-158.819 984.54,-184.364 971.306,-201.415"/>
<polygon fill="midnightblue" stroke="midnightblue" points="968.463,-199.372 965.229,-209.461 974.049,-203.591 968.463,-199.372"/>
</g>
<!-- Node102&#45;&gt;Node76 -->
<g id="edge43" class="edge"><title>Node102&#45;&gt;Node76</title>
<path fill="none" stroke="midnightblue" d="M1373.92,-201.953C1284.79,-205.61 1093.71,-213.451 1005.23,-217.082"/>
<polygon fill="midnightblue" stroke="midnightblue" points="1005.07,-213.586 995.218,-217.493 1005.35,-220.58 1005.07,-213.586"/>
</g>
<!-- Node102&#45;&gt;Node84 -->
<g id="edge36" class="edge"><title>Node102&#45;&gt;Node84</title>
<path fill="none" stroke="midnightblue" d="M1438.44,-190.375C1458.57,-177.412 1494.59,-154.214 1518.27,-138.965"/>
<polygon fill="midnightblue" stroke="midnightblue" points="1520.16,-141.905 1526.68,-133.547 1516.37,-136.02 1520.16,-141.905"/>
</g>
<!-- Node84&#45;&gt;Node84 -->
<g id="edge38" class="edge"><title>Node84&#45;&gt;Node84</title>
<path fill="none" stroke="midnightblue" d="M1524,-133.757C1515.01,-142.565 1521.17,-152 1542.5,-152 1556.16,-152 1563.6,-148.128 1564.82,-143.029"/>
<polygon fill="midnightblue" stroke="midnightblue" points="1568.05,-141.666 1561,-133.757 1561.57,-144.336 1568.05,-141.666"/>
</g>
<!-- Node65 -->
<g id="node36" class="node"><title>Node65</title>
<g id="a_node36"><a xlink:href="ldo_8c.html#a2a5656cf723dffe2e9b5314260bd8896" target="_top" xlink:title=" ">
<polygon fill="white" stroke="black" points="1882.5,-19.5 1882.5,-38.5 1969.5,-38.5 1969.5,-19.5 1882.5,-19.5"/>
<text text-anchor="middle" x="1926" y="-26.5" font-family="Helvetica,sans-Serif" font-size="10.00">luaD_seterrorobj</text>
</a>
</g>
</g>
<!-- Node84&#45;&gt;Node65 -->
<g id="edge37" class="edge"><title>Node84&#45;&gt;Node65</title>
<path fill="none" stroke="midnightblue" d="M1558.64,-114.464C1592.32,-93.8787 1676.67,-45.7831 1755,-29 1793.58,-20.7341 1838.22,-21.1004 1872.07,-23.3378"/>
<polygon fill="midnightblue" stroke="midnightblue" points="1871.98,-26.8407 1882.21,-24.0848 1872.5,-19.8596 1871.98,-26.8407"/>
</g>
<!-- Node60 -->
<g id="node37" class="node"><title>Node60</title>
<g id="a_node37"><a xlink:href="lfunc_8c.html#ae9fcbf80b5969afd9412b9aed102f94e" target="_top" xlink:title=" ">
<polygon fill="white" stroke="black" points="1634.5,-114.5 1634.5,-133.5 1698.5,-133.5 1698.5,-114.5 1634.5,-114.5"/>
<text text-anchor="middle" x="1666.5" y="-121.5" font-family="Helvetica,sans-Serif" font-size="10.00">luaF_close</text>
</a>
</g>
</g>
<!-- Node84&#45;&gt;Node60 -->
<g id="edge39" class="edge"><title>Node84&#45;&gt;Node60</title>
<path fill="none" stroke="midnightblue" d="M1575.24,-124C1590.18,-124 1608.19,-124 1624.18,-124"/>
<polygon fill="midnightblue" stroke="midnightblue" points="1624.35,-127.5 1634.35,-124 1624.35,-120.5 1624.35,-127.5"/>
</g>
<!-- Node61 -->
<g id="node38" class="node"><title>Node61</title>
<g id="a_node38"><a xlink:href="lfunc_8c.html#a4105c820bb9b1b4b4b3bd6613b0ccb05" target="_top" xlink:title=" ">
<polygon fill="white" stroke="red" points="1765,-38.5 1765,-57.5 1836,-57.5 1836,-38.5 1765,-38.5"/>
<text text-anchor="middle" x="1800.5" y="-45.5" font-family="Helvetica,sans-Serif" font-size="10.00">callclosemth</text>
</a>
</g>
</g>
<!-- Node60&#45;&gt;Node61 -->
<g id="edge40" class="edge"><title>Node60&#45;&gt;Node61</title>
<path fill="none" stroke="midnightblue" d="M1684.22,-114.375C1706.93,-101.297 1747.73,-77.8043 1774.21,-62.5634"/>
<polygon fill="midnightblue" stroke="midnightblue" points="1776,-65.5702 1782.92,-57.5473 1772.51,-59.5038 1776,-65.5702"/>
</g>
<!-- Node85 -->
<g id="node39" class="node"><title>Node85</title>
<g id="a_node39"><a xlink:href="lfunc_8c.html#a3b5a5ae122e85af5c941e9b4ffff53bd" target="_top" xlink:title=" ">
<polygon fill="white" stroke="black" points="1756.5,-114.5 1756.5,-133.5 1844.5,-133.5 1844.5,-114.5 1756.5,-114.5"/>
<text text-anchor="middle" x="1800.5" y="-121.5" font-family="Helvetica,sans-Serif" font-size="10.00">luaF_unlinkupval</text>
</a>
</g>
</g>
<!-- Node60&#45;&gt;Node85 -->
<g id="edge42" class="edge"><title>Node60&#45;&gt;Node85</title>
<path fill="none" stroke="midnightblue" d="M1698.78,-124C1712.92,-124 1730.02,-124 1746.09,-124"/>
<polygon fill="midnightblue" stroke="midnightblue" points="1746.46,-127.5 1756.46,-124 1746.46,-120.5 1746.46,-127.5"/>
</g>
<!-- Node61&#45;&gt;Node65 -->
<g id="edge41" class="edge"><title>Node61&#45;&gt;Node65</title>
<path fill="none" stroke="midnightblue" d="M1836.23,-42.6569C1847.38,-40.9419 1859.99,-39.0017 1872.13,-37.1336"/>
<polygon fill="midnightblue" stroke="midnightblue" points="1872.83,-40.5677 1882.18,-35.5878 1871.76,-33.6491 1872.83,-40.5677"/>
</g>
<!-- Node103&#45;&gt;Node56 -->
<g id="edge46" class="edge"><title>Node103&#45;&gt;Node56</title>
<path fill="none" stroke="midnightblue" d="M1460.51,-281.646C1472.23,-283.434 1485.31,-285.428 1497.47,-287.284"/>
<polygon fill="midnightblue" stroke="midnightblue" points="1497.01,-290.754 1507.43,-288.803 1498.07,-283.834 1497.01,-290.754"/>
</g>
<!-- Node103&#45;&gt;Node58 -->
<g id="edge45" class="edge"><title>Node103&#45;&gt;Node58</title>
<path fill="none" stroke="midnightblue" d="M1460.52,-271.564C1503.48,-266.416 1574.31,-257.928 1620.43,-252.401"/>
<polygon fill="midnightblue" stroke="midnightblue" points="1620.94,-255.865 1630.45,-251.2 1620.11,-248.915 1620.94,-255.865"/>
</g>
<!-- Node103&#45;&gt;Node87 -->
<g id="edge47" class="edge"><title>Node103&#45;&gt;Node87</title>
<path fill="none" stroke="midnightblue" d="M1443.68,-266.406C1492.18,-244.695 1618.71,-196.087 1719,-228 1743.78,-235.886 1767.49,-254.477 1782.68,-268.295"/>
<polygon fill="midnightblue" stroke="midnightblue" points="1780.52,-271.067 1790.19,-275.383 1785.32,-265.975 1780.52,-271.067"/>
</g>
<!-- Node103&#45;&gt;Node60 -->
<g id="edge48" class="edge"><title>Node103&#45;&gt;Node60</title>
<path fill="none" stroke="midnightblue" d="M1448,-266.271C1455.82,-262.497 1464.2,-257.698 1471,-252 1491.44,-234.87 1486.56,-221.125 1507,-204 1527.68,-186.673 1594.2,-155.632 1634.19,-137.737"/>
<polygon fill="midnightblue" stroke="midnightblue" points="1635.79,-140.857 1643.5,-133.593 1632.94,-134.461 1635.79,-140.857"/>
</g>
<!-- Node103&#45;&gt;Node397 -->
<g id="edge49" class="edge"><title>Node103&#45;&gt;Node397</title>
<path fill="none" stroke="midnightblue" d="M1430.88,-285.508C1450.25,-310.46 1502.77,-378.106 1527.83,-410.392"/>
<polygon fill="midnightblue" stroke="midnightblue" points="1525.22,-412.742 1534.12,-418.495 1530.75,-408.45 1525.22,-412.742"/>
</g>
<!-- Node397&#45;&gt;Node8 -->
<g id="edge54" class="edge"><title>Node397&#45;&gt;Node8</title>
<path fill="none" stroke="midnightblue" d="M1506.78,-428C1460.85,-428 1377.35,-428 1306,-428 956.5,-428 956.5,-428 956.5,-428 898.901,-428 832.52,-428 789.493,-428"/>
<polygon fill="midnightblue" stroke="midnightblue" points="789.344,-424.5 779.344,-428 789.344,-431.5 789.344,-424.5"/>
</g>
<!-- Node397&#45;&gt;Node76 -->
<g id="edge51" class="edge"><title>Node397&#45;&gt;Node76</title>
<path fill="none" stroke="midnightblue" d="M1506.67,-418.801C1460.96,-407.555 1378.06,-390 1306,-390 1190.5,-390 1190.5,-390 1190.5,-390 1088.2,-390 1001.32,-280.926 970.486,-237.004"/>
<polygon fill="midnightblue" stroke="midnightblue" points="973.317,-234.945 964.771,-228.684 967.547,-238.908 973.317,-234.945"/>
</g>
<!-- Node398 -->
<g id="node42" class="node"><title>Node398</title>
<g id="a_node42"><a xlink:href="lvm_8c.html#a7f03a9c23b77ec5cd280bb955ec430b8" target="_top" xlink:title=" ">
<polygon fill="white" stroke="black" points="1637.5,-427.5 1637.5,-446.5 1695.5,-446.5 1695.5,-427.5 1637.5,-427.5"/>
<text text-anchor="middle" x="1666.5" y="-434.5" font-family="Helvetica,sans-Serif" font-size="10.00">copy2buff</text>
</a>
</g>
</g>
<!-- Node397&#45;&gt;Node398 -->
<g id="edge50" class="edge"><title>Node397&#45;&gt;Node398</title>
<path fill="none" stroke="midnightblue" d="M1578.13,-430.555C1593.36,-431.678 1611.3,-433.001 1626.95,-434.156"/>
<polygon fill="midnightblue" stroke="midnightblue" points="1627.12,-437.678 1637.35,-434.924 1627.64,-430.697 1627.12,-437.678"/>
</g>
<!-- Node397&#45;&gt;Node399 -->
<g id="edge52" class="edge"><title>Node397&#45;&gt;Node399</title>
<path fill="none" stroke="midnightblue" d="M1567.27,-437.607C1580.91,-443.08 1598.38,-450.018 1614,-456 1619.12,-457.96 1624.53,-459.998 1629.86,-461.98"/>
<polygon fill="midnightblue" stroke="midnightblue" points="1628.66,-465.269 1639.25,-465.459 1631.09,-458.704 1628.66,-465.269"/>
</g>
<!-- Node400 -->
<g id="node44" class="node"><title>Node400</title>
<g id="a_node44"><a xlink:href="ltm_8c.html#addc61bf94c111c5a5bd3fe0032cb9be0" target="_top" xlink:title=" ">
<polygon fill="white" stroke="black" points="1619.5,-351.5 1619.5,-370.5 1713.5,-370.5 1713.5,-351.5 1619.5,-351.5"/>
<text text-anchor="middle" x="1666.5" y="-358.5" font-family="Helvetica,sans-Serif" font-size="10.00">luaT_tryconcatTM</text>
</a>
</g>
</g>
<!-- Node397&#45;&gt;Node400 -->
<g id="edge55" class="edge"><title>Node397&#45;&gt;Node400</title>
<path fill="none" stroke="midnightblue" d="M1560.98,-418.401C1581.45,-407.156 1615.58,-388.417 1639.24,-375.422"/>
<polygon fill="midnightblue" stroke="midnightblue" points="1640.97,-378.463 1648.05,-370.582 1637.6,-372.328 1640.97,-378.463"/>
</g>
<!-- Node399&#45;&gt;Node10 -->
<g id="edge53" class="edge"><title>Node399&#45;&gt;Node10</title>
<path fill="none" stroke="midnightblue" d="M1684.22,-484.625C1706.93,-497.703 1747.73,-521.196 1774.21,-536.437"/>
<polygon fill="midnightblue" stroke="midnightblue" points="1772.51,-539.496 1782.92,-541.453 1776,-533.43 1772.51,-539.496"/>
</g>
<!-- Node375 -->
<g id="node45" class="node"><title>Node375</title>
<g id="a_node45"><a xlink:href="ltm_8c.html#a68751e8f9bf0714d8c761a5b6ce4daf9" target="_top" xlink:title=" ">
<polygon fill="white" stroke="black" points="1771.5,-351.5 1771.5,-370.5 1829.5,-370.5 1829.5,-351.5 1771.5,-351.5"/>
<text text-anchor="middle" x="1800.5" y="-358.5" font-family="Helvetica,sans-Serif" font-size="10.00">callbinTM</text>
</a>
</g>
</g>
<!-- Node400&#45;&gt;Node375 -->
<g id="edge56" class="edge"><title>Node400&#45;&gt;Node375</title>
<path fill="none" stroke="midnightblue" d="M1713.67,-361C1729.1,-361 1746.13,-361 1760.93,-361"/>
<polygon fill="midnightblue" stroke="midnightblue" points="1761.25,-364.5 1771.25,-361 1761.25,-357.5 1761.25,-364.5"/>
</g>
<!-- Node401 -->
<g id="node47" class="node"><title>Node401</title>
<g id="a_node47"><a xlink:href="ldebug_8c.html#a04641ef359f3943a2ca88f52c3fe283c" target="_top" xlink:title=" ">
<polygon fill="white" stroke="black" points="1755,-313.5 1755,-332.5 1846,-332.5 1846,-313.5 1755,-313.5"/>
<text text-anchor="middle" x="1800.5" y="-320.5" font-family="Helvetica,sans-Serif" font-size="10.00">luaG_concaterror</text>
</a>
</g>
</g>
<!-- Node400&#45;&gt;Node401 -->
<g id="edge60" class="edge"><title>Node400&#45;&gt;Node401</title>
<path fill="none" stroke="midnightblue" d="M1700.81,-351.411C1717.69,-346.551 1738.39,-340.591 1756.47,-335.387"/>
<polygon fill="midnightblue" stroke="midnightblue" points="1757.56,-338.716 1766.2,-332.586 1755.62,-331.989 1757.56,-338.716"/>
</g>
<!-- Node375&#45;&gt;Node69 -->
<g id="edge59" class="edge"><title>Node375&#45;&gt;Node69</title>
<path fill="none" stroke="midnightblue" d="M1829.52,-354.646C1842.36,-351.736 1858,-348.19 1872.88,-344.817"/>
<polygon fill="midnightblue" stroke="midnightblue" points="1874.03,-348.144 1883.01,-342.519 1872.49,-341.317 1874.03,-348.144"/>
</g>
<!-- Node376 -->
<g id="node46" class="node"><title>Node376</title>
<g id="a_node46"><a xlink:href="ltm_8c.html#aad98f3a425ba53e65e7a8f8037320402" target="_top" xlink:title=" ">
<polygon fill="white" stroke="red" points="1885,-370.5 1885,-389.5 1967,-389.5 1967,-370.5 1885,-370.5"/>
<text text-anchor="middle" x="1926" y="-377.5" font-family="Helvetica,sans-Serif" font-size="10.00">luaT_callTMres</text>
</a>
</g>
</g>
<!-- Node375&#45;&gt;Node376 -->
<g id="edge57" class="edge"><title>Node375&#45;&gt;Node376</title>
<path fill="none" stroke="midnightblue" d="M1829.52,-365.311C1842.95,-367.377 1859.45,-369.915 1874.93,-372.297"/>
<polygon fill="midnightblue" stroke="midnightblue" points="1874.5,-375.771 1884.91,-373.832 1875.56,-368.853 1874.5,-375.771"/>
</g>
<!-- Node376&#45;&gt;Node54 -->
<g id="edge58" class="edge"><title>Node376&#45;&gt;Node54</title>
<path fill="none" stroke="midnightblue" d="M1884.55,-383.101C1825.04,-386.963 1710.48,-391.726 1614,-380 1469.83,-362.477 1303.9,-312.413 1230.64,-288.722"/>
<polygon fill="midnightblue" stroke="midnightblue" points="1231.52,-285.328 1220.93,-285.56 1229.35,-291.984 1231.52,-285.328"/>
</g>
<!-- Node401&#45;&gt;Node88 -->
<g id="edge61" class="edge"><title>Node401&#45;&gt;Node88</title>
<path fill="none" stroke="midnightblue" d="M1832.66,-313.411C1848.31,-308.596 1867.47,-302.701 1884.27,-297.532"/>
<polygon fill="midnightblue" stroke="midnightblue" points="1885.32,-300.872 1893.85,-294.586 1883.26,-294.182 1885.32,-300.872"/>
</g>
<!-- Node444&#45;&gt;Node5 -->
<g id="edge69" class="edge"><title>Node444&#45;&gt;Node5</title>
<path fill="none" stroke="midnightblue" d="M386.991,-351.589C400.84,-356.698 417.981,-363.022 432.573,-368.405"/>
<polygon fill="midnightblue" stroke="midnightblue" points="431.602,-371.778 442.196,-371.956 434.025,-365.211 431.602,-371.778"/>
</g>
<!-- Node444&#45;&gt;Node6 -->
<g id="edge68" class="edge"><title>Node444&#45;&gt;Node6</title>
<path fill="none" stroke="midnightblue" d="M392.294,-345.011C427.636,-348.411 485.059,-353.935 522.303,-357.518"/>
<polygon fill="midnightblue" stroke="midnightblue" points="522.412,-361.044 532.702,-358.518 523.083,-354.077 522.412,-361.044"/>
</g>
<!-- Node444&#45;&gt;Node7 -->
<g id="edge70" class="edge"><title>Node444&#45;&gt;Node7</title>
<path fill="none" stroke="midnightblue" d="M392.137,-336.099C436.442,-329.005 519.659,-320.537 586,-342 602.041,-347.19 617.391,-358.497 628.481,-368.214"/>
<polygon fill="midnightblue" stroke="midnightblue" points="626.346,-371.006 636.073,-375.208 631.089,-365.858 626.346,-371.006"/>
</g>
</g>
</svg>
