<?xml version="1.0" encoding="UTF-8" standalone="no"?>
<!DOCTYPE svg PUBLIC "-//W3C//DTD SVG 1.1//EN"
 "http://www.w3.org/Graphics/SVG/1.1/DTD/svg11.dtd">
<!-- Generated by graphviz version 2.38.0 (20140413.2041)
 -->
<!-- Title: interror Pages: 1 -->
<svg width="1223pt" height="710pt"
 viewBox="0.00 0.00 1223.00 709.96" xmlns="http://www.w3.org/2000/svg" xmlns:xlink="http://www.w3.org/1999/xlink">
<g id="graph0" class="graph" transform="scale(1 1) rotate(0) translate(4 705.956)">
<title>interror</title>
<polygon fill="white" stroke="none" points="-4,4 -4,-705.956 1219,-705.956 1219,4 -4,4"/>
<!-- Node1 -->
<g id="node1" class="node"><title>Node1</title>
<g id="a_node1"><a xlink:title=" ">
<polygon fill="#bfbfbf" stroke="black" points="0,-188.456 0,-207.456 47,-207.456 47,-188.456 0,-188.456"/>
<text text-anchor="middle" x="23.5" y="-195.456" font-family="Helvetica,sans-Serif" font-size="10.00">interror</text>
</a>
</g>
</g>
<!-- Node2 -->
<g id="node2" class="node"><title>Node2</title>
<g id="a_node2"><a xlink:href="lapi_8c.html#a99451f234bf085c9c46c3d17a5aef905" target="_top" xlink:title=" ">
<polygon fill="white" stroke="black" points="288,-8.45636 288,-27.4564 362,-27.4564 362,-8.45636 288,-8.45636"/>
<text text-anchor="middle" x="325" y="-15.4564" font-family="Helvetica,sans-Serif" font-size="10.00">lua_isnumber</text>
</a>
</g>
</g>
<!-- Node1&#45;&gt;Node2 -->
<g id="edge1" class="edge"><title>Node1&#45;&gt;Node2</title>
<path fill="none" stroke="midnightblue" d="M40.6024,-188.279C90.08,-158.543 240.123,-68.3668 299.465,-32.7017"/>
<polygon fill="midnightblue" stroke="midnightblue" points="301.413,-35.6146 308.181,-27.4633 297.807,-29.6148 301.413,-35.6146"/>
</g>
<!-- Node4 -->
<g id="node4" class="node"><title>Node4</title>
<g id="a_node4"><a xlink:href="lauxlib_8c.html#ac607576dd107a3120cd51948989f1ed2" target="_top" xlink:title=" ">
<polygon fill="white" stroke="black" points="288.5,-559.456 288.5,-578.456 361.5,-578.456 361.5,-559.456 288.5,-559.456"/>
<text text-anchor="middle" x="325" y="-566.456" font-family="Helvetica,sans-Serif" font-size="10.00">luaL_argerror</text>
</a>
</g>
</g>
<!-- Node1&#45;&gt;Node4 -->
<g id="edge3" class="edge"><title>Node1&#45;&gt;Node4</title>
<path fill="none" stroke="midnightblue" d="M30.2072,-207.714C55.8856,-251.063 164.837,-429.14 288,-544.956 291.201,-547.967 294.819,-550.854 298.497,-553.518"/>
<polygon fill="midnightblue" stroke="midnightblue" points="296.772,-556.577 307.016,-559.281 300.694,-550.779 296.772,-556.577"/>
</g>
<!-- Node476 -->
<g id="node45" class="node"><title>Node476</title>
<g id="a_node45"><a xlink:href="lauxlib_8c.html#ab8e946260debec8d4bbc714b76a1613b" target="_top" xlink:title=" ">
<polygon fill="white" stroke="black" points="83,-188.456 83,-207.456 138,-207.456 138,-188.456 83,-188.456"/>
<text text-anchor="middle" x="110.5" y="-195.456" font-family="Helvetica,sans-Serif" font-size="10.00">tag_error</text>
</a>
</g>
</g>
<!-- Node1&#45;&gt;Node476 -->
<g id="edge58" class="edge"><title>Node1&#45;&gt;Node476</title>
<path fill="none" stroke="midnightblue" d="M47.2784,-197.956C55.0398,-197.956 63.9286,-197.956 72.5123,-197.956"/>
<polygon fill="midnightblue" stroke="midnightblue" points="72.7349,-201.456 82.7349,-197.956 72.7349,-194.456 72.7349,-201.456"/>
</g>
<!-- Node3 -->
<g id="node3" class="node"><title>Node3</title>
<g id="a_node3"><a xlink:href="lapi_8c.html#a7c66797ff8396fc9258bb9fc08e959d8" target="_top" xlink:title=" ">
<polygon fill="white" stroke="black" points="797,-84.4564 797,-103.456 864,-103.456 864,-84.4564 797,-84.4564"/>
<text text-anchor="middle" x="830.5" y="-91.4564" font-family="Helvetica,sans-Serif" font-size="10.00">index2value</text>
</a>
</g>
</g>
<!-- Node2&#45;&gt;Node3 -->
<g id="edge2" class="edge"><title>Node2&#45;&gt;Node3</title>
<path fill="none" stroke="midnightblue" d="M362.145,-11.9243C437.275,-1.0144 614.423,16.166 748,-37.9564 771.628,-47.5299 795.268,-64.8401 810.955,-77.6898"/>
<polygon fill="midnightblue" stroke="midnightblue" points="808.897,-80.5318 818.802,-84.2922 813.403,-75.1757 808.897,-80.5318"/>
</g>
<!-- Node5 -->
<g id="node5" class="node"><title>Node5</title>
<g id="a_node5"><a xlink:href="ldebug_8c.html#acaafc35d8e385c4d167229486165df6d" target="_top" xlink:title=" ">
<polygon fill="white" stroke="black" points="675.5,-559.456 675.5,-578.456 738.5,-578.456 738.5,-559.456 675.5,-559.456"/>
<text text-anchor="middle" x="707" y="-566.456" font-family="Helvetica,sans-Serif" font-size="10.00">lua_getinfo</text>
</a>
</g>
</g>
<!-- Node4&#45;&gt;Node5 -->
<g id="edge4" class="edge"><title>Node4&#45;&gt;Node5</title>
<path fill="none" stroke="midnightblue" d="M361.697,-575.441C418.632,-584.828 533.428,-599.845 630,-587.956 641.693,-586.517 654.175,-583.876 665.573,-581.012"/>
<polygon fill="midnightblue" stroke="midnightblue" points="666.483,-584.391 675.263,-578.462 664.701,-577.622 666.483,-584.391"/>
</g>
<!-- Node454 -->
<g id="node20" class="node"><title>Node454</title>
<g id="a_node20"><a xlink:href="ldebug_8c.html#ac1fc03c27ee46caa4037df2d70f22110" target="_top" xlink:title=" ">
<polygon fill="white" stroke="black" points="671,-616.456 671,-635.456 743,-635.456 743,-616.456 671,-616.456"/>
<text text-anchor="middle" x="707" y="-623.456" font-family="Helvetica,sans-Serif" font-size="10.00">lua_getstack</text>
</a>
</g>
</g>
<!-- Node4&#45;&gt;Node454 -->
<g id="edge21" class="edge"><title>Node4&#45;&gt;Node454</title>
<path fill="none" stroke="midnightblue" d="M344.412,-578.485C358.65,-585.39 379.064,-594.3 398,-598.956 489.403,-621.432 600.101,-625.785 660.774,-626.298"/>
<polygon fill="midnightblue" stroke="midnightblue" points="660.77,-629.798 670.789,-626.351 660.807,-622.798 660.77,-629.798"/>
</g>
<!-- Node455 -->
<g id="node21" class="node"><title>Node455</title>
<g id="a_node21"><a xlink:href="lauxlib_8c.html#a6c51d83d29244779392551388913e08a" target="_top" xlink:title=" ">
<polygon fill="white" stroke="black" points="421,-483.456 421,-502.456 480,-502.456 480,-483.456 421,-483.456"/>
<text text-anchor="middle" x="450.5" y="-490.456" font-family="Helvetica,sans-Serif" font-size="10.00">luaL_error</text>
</a>
</g>
</g>
<!-- Node4&#45;&gt;Node455 -->
<g id="edge22" class="edge"><title>Node4&#45;&gt;Node455</title>
<path fill="none" stroke="midnightblue" d="M341.641,-559.331C362.706,-546.368 400.402,-523.17 425.182,-507.921"/>
<polygon fill="midnightblue" stroke="midnightblue" points="427.303,-510.725 433.986,-502.504 423.635,-504.764 427.303,-510.725"/>
</g>
<!-- Node461 -->
<g id="node31" class="node"><title>Node461</title>
<g id="a_node31"><a xlink:href="lauxlib_8c.html#a4f35430f7ecfcbd5f507e550937046b4" target="_top" xlink:title=" ">
<polygon fill="white" stroke="black" points="398,-274.456 398,-293.456 503,-293.456 503,-274.456 398,-274.456"/>
<text text-anchor="middle" x="450.5" y="-281.456" font-family="Helvetica,sans-Serif" font-size="10.00">pushglobalfuncname</text>
</a>
</g>
</g>
<!-- Node4&#45;&gt;Node461 -->
<g id="edge36" class="edge"><title>Node4&#45;&gt;Node461</title>
<path fill="none" stroke="midnightblue" d="M330.251,-559.146C348.102,-517.951 417.184,-358.531 441.209,-303.09"/>
<polygon fill="midnightblue" stroke="midnightblue" points="444.502,-304.293 445.267,-293.725 438.079,-301.509 444.502,-304.293"/>
</g>
<!-- Node6 -->
<g id="node6" class="node"><title>Node6</title>
<g id="a_node6"><a xlink:href="ldebug_8c.html#ad72fa774194e83872bac4e5bf6ec1160" target="_top" xlink:title=" ">
<polygon fill="white" stroke="black" points="800,-625.456 800,-644.456 861,-644.456 861,-625.456 800,-625.456"/>
<text text-anchor="middle" x="830.5" y="-632.456" font-family="Helvetica,sans-Serif" font-size="10.00">auxgetinfo</text>
</a>
</g>
</g>
<!-- Node5&#45;&gt;Node6 -->
<g id="edge5" class="edge"><title>Node5&#45;&gt;Node6</title>
<path fill="none" stroke="midnightblue" d="M725.667,-578.553C745.913,-589.551 779.312,-607.694 802.751,-620.426"/>
<polygon fill="midnightblue" stroke="midnightblue" points="801.354,-623.65 811.812,-625.348 804.695,-617.499 801.354,-623.65"/>
</g>
<!-- Node24 -->
<g id="node14" class="node"><title>Node24</title>
<g id="a_node14"><a xlink:href="ldebug_8c.html#a6e3195fc94af1f75142c2801ca8cf058" target="_top" xlink:title=" ">
<polygon fill="white" stroke="black" points="788.5,-549.456 788.5,-568.456 872.5,-568.456 872.5,-549.456 788.5,-549.456"/>
<text text-anchor="middle" x="830.5" y="-556.456" font-family="Helvetica,sans-Serif" font-size="10.00">collectvalidlines</text>
</a>
</g>
</g>
<!-- Node5&#45;&gt;Node24 -->
<g id="edge14" class="edge"><title>Node5&#45;&gt;Node24</title>
<path fill="none" stroke="midnightblue" d="M738.66,-566.433C750.648,-565.446 764.728,-564.287 778.176,-563.181"/>
<polygon fill="midnightblue" stroke="midnightblue" points="778.612,-566.657 788.291,-562.348 778.038,-559.68 778.612,-566.657"/>
</g>
<!-- Node7 -->
<g id="node7" class="node"><title>Node7</title>
<g id="a_node7"><a xlink:href="ldebug_8c.html#a84af60873d130ffee87eb1721f3231e4" target="_top" xlink:title=" ">
<polygon fill="white" stroke="black" points="925.5,-682.456 925.5,-701.456 975.5,-701.456 975.5,-682.456 925.5,-682.456"/>
<text text-anchor="middle" x="950.5" y="-689.456" font-family="Helvetica,sans-Serif" font-size="10.00">funcinfo</text>
</a>
</g>
</g>
<!-- Node6&#45;&gt;Node7 -->
<g id="edge6" class="edge"><title>Node6&#45;&gt;Node7</title>
<path fill="none" stroke="midnightblue" d="M851.251,-644.497C870.225,-653.662 899.111,-667.616 920.658,-678.024"/>
<polygon fill="midnightblue" stroke="midnightblue" points="919.158,-681.187 929.685,-682.385 922.203,-674.883 919.158,-681.187"/>
</g>
<!-- Node9 -->
<g id="node9" class="node"><title>Node9</title>
<g id="a_node9"><a xlink:href="ldebug_8c.html#ad6bc24d619df8e849e2ae8b00455d86f" target="_top" xlink:title=" ">
<polygon fill="white" stroke="black" points="913,-606.456 913,-625.456 988,-625.456 988,-606.456 913,-606.456"/>
<text text-anchor="middle" x="950.5" y="-613.456" font-family="Helvetica,sans-Serif" font-size="10.00">getcurrentline</text>
</a>
</g>
</g>
<!-- Node6&#45;&gt;Node9 -->
<g id="edge8" class="edge"><title>Node6&#45;&gt;Node9</title>
<path fill="none" stroke="midnightblue" d="M861.276,-630.162C873.912,-628.127 888.941,-625.707 902.982,-623.447"/>
<polygon fill="midnightblue" stroke="midnightblue" points="903.666,-626.882 912.982,-621.836 902.553,-619.971 903.666,-626.882"/>
</g>
<!-- Node13 -->
<g id="node12" class="node"><title>Node13</title>
<g id="a_node12"><a xlink:href="ldebug_8c.html#a118ab79b6b538a857353e4b9259667e1" target="_top" xlink:title=" ">
<polygon fill="white" stroke="black" points="914.5,-644.456 914.5,-663.456 986.5,-663.456 986.5,-644.456 914.5,-644.456"/>
<text text-anchor="middle" x="950.5" y="-651.456" font-family="Helvetica,sans-Serif" font-size="10.00">getfuncname</text>
</a>
</g>
</g>
<!-- Node6&#45;&gt;Node13 -->
<g id="edge11" class="edge"><title>Node6&#45;&gt;Node13</title>
<path fill="none" stroke="midnightblue" d="M861.276,-639.751C874.242,-641.839 889.727,-644.332 904.078,-646.643"/>
<polygon fill="midnightblue" stroke="midnightblue" points="903.847,-650.15 914.276,-648.285 904.959,-643.239 903.847,-650.15"/>
</g>
<!-- Node8 -->
<g id="node8" class="node"><title>Node8</title>
<g id="a_node8"><a xlink:href="lobject_8c.html#ac331b4119bbeb45a8a7e5a1afe553b2e" target="_top" xlink:title=" ">
<polygon fill="white" stroke="black" points="1035,-682.456 1035,-701.456 1111,-701.456 1111,-682.456 1035,-682.456"/>
<text text-anchor="middle" x="1073" y="-689.456" font-family="Helvetica,sans-Serif" font-size="10.00">luaO_chunkid</text>
</a>
</g>
</g>
<!-- Node7&#45;&gt;Node8 -->
<g id="edge7" class="edge"><title>Node7&#45;&gt;Node8</title>
<path fill="none" stroke="midnightblue" d="M975.595,-691.956C989.587,-691.956 1007.71,-691.956 1024.45,-691.956"/>
<polygon fill="midnightblue" stroke="midnightblue" points="1024.66,-695.456 1034.66,-691.956 1024.66,-688.456 1024.66,-695.456"/>
</g>
<!-- Node10 -->
<g id="node10" class="node"><title>Node10</title>
<g id="a_node10"><a xlink:href="ldebug_8c.html#a7db2a3f5cbcf0ac3ef6d4cfa15ab4dbc" target="_top" xlink:title=" ">
<polygon fill="white" stroke="black" points="1158,-625.456 1158,-644.456 1215,-644.456 1215,-625.456 1158,-625.456"/>
<text text-anchor="middle" x="1186.5" y="-632.456" font-family="Helvetica,sans-Serif" font-size="10.00">currentpc</text>
</a>
</g>
</g>
<!-- Node9&#45;&gt;Node10 -->
<g id="edge9" class="edge"><title>Node9&#45;&gt;Node10</title>
<path fill="none" stroke="midnightblue" d="M988.063,-618.925C1031.62,-622.462 1103.99,-628.338 1147.97,-631.909"/>
<polygon fill="midnightblue" stroke="midnightblue" points="1147.72,-635.4 1157.97,-632.721 1148.29,-628.423 1147.72,-635.4"/>
</g>
<!-- Node11 -->
<g id="node11" class="node"><title>Node11</title>
<g id="a_node11"><a xlink:href="ldebug_8c.html#ae7a6d2f88b11cc05758e44acd433ee2f" target="_top" xlink:title=" ">
<polygon fill="white" stroke="red" points="1028.5,-549.456 1028.5,-568.456 1117.5,-568.456 1117.5,-549.456 1028.5,-549.456"/>
<text text-anchor="middle" x="1073" y="-556.456" font-family="Helvetica,sans-Serif" font-size="10.00">luaG_getfuncline</text>
</a>
</g>
</g>
<!-- Node9&#45;&gt;Node11 -->
<g id="edge10" class="edge"><title>Node9&#45;&gt;Node11</title>
<path fill="none" stroke="midnightblue" d="M971.669,-606.416C991.045,-597.25 1020.54,-583.297 1042.55,-572.889"/>
<polygon fill="midnightblue" stroke="midnightblue" points="1044.22,-575.968 1051.77,-568.528 1041.23,-569.64 1044.22,-575.968"/>
</g>
<!-- Node14 -->
<g id="node13" class="node"><title>Node14</title>
<g id="a_node13"><a xlink:href="ldebug_8c.html#aa4c19bd41574279b6de1a01e01186f14" target="_top" xlink:title=" ">
<polygon fill="white" stroke="red" points="1024,-644.456 1024,-663.456 1122,-663.456 1122,-644.456 1024,-644.456"/>
<text text-anchor="middle" x="1073" y="-651.456" font-family="Helvetica,sans-Serif" font-size="10.00">funcnamefromcode</text>
</a>
</g>
</g>
<!-- Node13&#45;&gt;Node14 -->
<g id="edge12" class="edge"><title>Node13&#45;&gt;Node14</title>
<path fill="none" stroke="midnightblue" d="M986.678,-653.956C995.056,-653.956 1004.22,-653.956 1013.34,-653.956"/>
<polygon fill="midnightblue" stroke="midnightblue" points="1013.57,-657.456 1023.57,-653.956 1013.57,-650.456 1013.57,-657.456"/>
</g>
<!-- Node14&#45;&gt;Node10 -->
<g id="edge13" class="edge"><title>Node14&#45;&gt;Node10</title>
<path fill="none" stroke="midnightblue" d="M1122.26,-645.733C1130.78,-644.281 1139.54,-642.787 1147.73,-641.393"/>
<polygon fill="midnightblue" stroke="midnightblue" points="1148.45,-644.82 1157.72,-639.689 1147.28,-637.919 1148.45,-644.82"/>
</g>
<!-- Node25 -->
<g id="node15" class="node"><title>Node25</title>
<g id="a_node15"><a xlink:href="ltable_8c.html#a6c97fb2d6a020b0a6f852562fef93d97" target="_top" xlink:title=" ">
<polygon fill="white" stroke="black" points="921,-492.456 921,-511.456 980,-511.456 980,-492.456 921,-492.456"/>
<text text-anchor="middle" x="950.5" y="-499.456" font-family="Helvetica,sans-Serif" font-size="10.00">luaH_new</text>
</a>
</g>
</g>
<!-- Node24&#45;&gt;Node25 -->
<g id="edge15" class="edge"><title>Node24&#45;&gt;Node25</title>
<path fill="none" stroke="midnightblue" d="M851.251,-549.416C870.225,-540.25 899.111,-526.297 920.658,-515.889"/>
<polygon fill="midnightblue" stroke="midnightblue" points="922.203,-519.029 929.685,-511.528 919.158,-512.726 922.203,-519.029"/>
</g>
<!-- Node168 -->
<g id="node18" class="node"><title>Node168</title>
<g id="a_node18"><a xlink:href="ltable_8c.html#a9eefa8191c63f55cffb6b7b58217467c" target="_top" xlink:title=" ">
<polygon fill="white" stroke="red" points="918,-568.456 918,-587.456 983,-587.456 983,-568.456 918,-568.456"/>
<text text-anchor="middle" x="950.5" y="-575.456" font-family="Helvetica,sans-Serif" font-size="10.00">luaH_setint</text>
</a>
</g>
</g>
<!-- Node24&#45;&gt;Node168 -->
<g id="edge18" class="edge"><title>Node24&#45;&gt;Node168</title>
<path fill="none" stroke="midnightblue" d="M872.771,-565.602C884.067,-567.421 896.319,-569.393 907.647,-571.217"/>
<polygon fill="midnightblue" stroke="midnightblue" points="907.308,-574.708 917.738,-572.842 908.421,-567.797 907.308,-574.708"/>
</g>
<!-- Node453 -->
<g id="node19" class="node"><title>Node453</title>
<g id="a_node19"><a xlink:href="ldebug_8c.html#a34dcc3fce752d518b34773a35b3763ad" target="_top" xlink:title=" ">
<polygon fill="white" stroke="black" points="925.5,-530.456 925.5,-549.456 975.5,-549.456 975.5,-530.456 925.5,-530.456"/>
<text text-anchor="middle" x="950.5" y="-537.456" font-family="Helvetica,sans-Serif" font-size="10.00">nextline</text>
</a>
</g>
</g>
<!-- Node24&#45;&gt;Node453 -->
<g id="edge19" class="edge"><title>Node24&#45;&gt;Node453</title>
<path fill="none" stroke="midnightblue" d="M872.771,-552.311C886.615,-550.082 901.896,-547.621 915.152,-545.487"/>
<polygon fill="midnightblue" stroke="midnightblue" points="915.966,-548.901 925.283,-543.856 914.853,-541.99 915.966,-548.901"/>
</g>
<!-- Node26 -->
<g id="node16" class="node"><title>Node26</title>
<g id="a_node16"><a xlink:href="lgc_8c.html#abfc8404c5fbd2a1770202fa0b087d451" target="_top" xlink:title=" ">
<polygon fill="white" stroke="black" points="1037.5,-511.456 1037.5,-530.456 1108.5,-530.456 1108.5,-511.456 1037.5,-511.456"/>
<text text-anchor="middle" x="1073" y="-518.456" font-family="Helvetica,sans-Serif" font-size="10.00">luaC_newobj</text>
</a>
</g>
</g>
<!-- Node25&#45;&gt;Node26 -->
<g id="edge16" class="edge"><title>Node25&#45;&gt;Node26</title>
<path fill="none" stroke="midnightblue" d="M980.057,-506.459C994.101,-508.674 1011.36,-511.394 1027.11,-513.879"/>
<polygon fill="midnightblue" stroke="midnightblue" points="1026.78,-517.369 1037.2,-515.469 1027.87,-510.454 1026.78,-517.369"/>
</g>
<!-- Node27 -->
<g id="node17" class="node"><title>Node27</title>
<g id="a_node17"><a xlink:href="ltable_8c.html#aee50b49395de01da3f8e14608f400108" target="_top" xlink:title=" ">
<polygon fill="white" stroke="red" points="1034.5,-473.456 1034.5,-492.456 1111.5,-492.456 1111.5,-473.456 1034.5,-473.456"/>
<text text-anchor="middle" x="1073" y="-480.456" font-family="Helvetica,sans-Serif" font-size="10.00">setnodevector</text>
</a>
</g>
</g>
<!-- Node25&#45;&gt;Node27 -->
<g id="edge17" class="edge"><title>Node25&#45;&gt;Node27</title>
<path fill="none" stroke="midnightblue" d="M980.057,-497.454C993.176,-495.385 1009.1,-492.875 1023.98,-490.528"/>
<polygon fill="midnightblue" stroke="midnightblue" points="1024.74,-493.952 1034.07,-488.937 1023.65,-487.037 1024.74,-493.952"/>
</g>
<!-- Node453&#45;&gt;Node11 -->
<g id="edge20" class="edge"><title>Node453&#45;&gt;Node11</title>
<path fill="none" stroke="midnightblue" d="M975.595,-543.756C987.872,-545.691 1003.33,-548.128 1018.24,-550.48"/>
<polygon fill="midnightblue" stroke="midnightblue" points="1018.02,-553.988 1028.44,-552.088 1019.11,-547.073 1018.02,-553.988"/>
</g>
<!-- Node456 -->
<g id="node22" class="node"><title>Node456</title>
<g id="a_node22"><a xlink:href="lapi_8c.html#a1de3afee1daece63d455f23818c883d9" target="_top" xlink:title=" ">
<polygon fill="white" stroke="black" points="675,-407.456 675,-426.456 739,-426.456 739,-407.456 675,-407.456"/>
<text text-anchor="middle" x="707" y="-414.456" font-family="Helvetica,sans-Serif" font-size="10.00">lua_concat</text>
</a>
</g>
</g>
<!-- Node455&#45;&gt;Node456 -->
<g id="edge23" class="edge"><title>Node455&#45;&gt;Node456</title>
<path fill="none" stroke="midnightblue" d="M456.678,-483.282C468.233,-462.865 498.34,-415.785 539,-397.956 582.903,-378.706 639.232,-391.987 673.958,-403.975"/>
<polygon fill="midnightblue" stroke="midnightblue" points="672.984,-407.344 683.578,-407.454 675.365,-400.761 672.984,-407.344"/>
</g>
<!-- Node457 -->
<g id="node25" class="node"><title>Node457</title>
<g id="a_node25"><a xlink:href="lapi_8c.html#a6ba7b91143fe8a03910420d800de8e97" target="_top" xlink:title=" ">
<polygon fill="white" stroke="black" points="557.5,-407.456 557.5,-426.456 611.5,-426.456 611.5,-407.456 557.5,-407.456"/>
<text text-anchor="middle" x="584.5" y="-414.456" font-family="Helvetica,sans-Serif" font-size="10.00">lua_error</text>
</a>
</g>
</g>
<!-- Node455&#45;&gt;Node457 -->
<g id="edge27" class="edge"><title>Node455&#45;&gt;Node457</title>
<path fill="none" stroke="midnightblue" d="M468.218,-483.331C490.931,-470.254 531.735,-446.761 558.206,-431.52"/>
<polygon fill="midnightblue" stroke="midnightblue" points="559.998,-434.527 566.918,-426.504 556.505,-428.46 559.998,-434.527"/>
</g>
<!-- Node458 -->
<g id="node27" class="node"><title>Node458</title>
<g id="a_node27"><a xlink:href="lapi_8c.html#a426c9cb1d582be3e43060c4772854e5a" target="_top" xlink:title=" ">
<polygon fill="white" stroke="black" points="541.5,-483.456 541.5,-502.456 627.5,-502.456 627.5,-483.456 541.5,-483.456"/>
<text text-anchor="middle" x="584.5" y="-490.456" font-family="Helvetica,sans-Serif" font-size="10.00">lua_pushvfstring</text>
</a>
</g>
</g>
<!-- Node455&#45;&gt;Node458 -->
<g id="edge29" class="edge"><title>Node455&#45;&gt;Node458</title>
<path fill="none" stroke="midnightblue" d="M480.142,-492.956C495.101,-492.956 513.877,-492.956 531.308,-492.956"/>
<polygon fill="midnightblue" stroke="midnightblue" points="531.377,-496.456 541.377,-492.956 531.377,-489.456 531.377,-496.456"/>
</g>
<!-- Node459 -->
<g id="node29" class="node"><title>Node459</title>
<g id="a_node29"><a xlink:href="lauxlib_8c.html#a0f4d3c30c07eae36aa25605df84279a0" target="_top" xlink:title=" ">
<polygon fill="white" stroke="black" points="552,-559.456 552,-578.456 617,-578.456 617,-559.456 552,-559.456"/>
<text text-anchor="middle" x="584.5" y="-566.456" font-family="Helvetica,sans-Serif" font-size="10.00">luaL_where</text>
</a>
</g>
</g>
<!-- Node455&#45;&gt;Node459 -->
<g id="edge31" class="edge"><title>Node455&#45;&gt;Node459</title>
<path fill="none" stroke="midnightblue" d="M468.218,-502.582C490.931,-515.659 531.735,-539.152 558.206,-554.393"/>
<polygon fill="midnightblue" stroke="midnightblue" points="556.505,-557.453 566.918,-559.409 559.998,-551.386 556.505,-557.453"/>
</g>
<!-- Node36 -->
<g id="node23" class="node"><title>Node36</title>
<g id="a_node23"><a xlink:href="lstring_8c.html#ab41fb084ce3ea5e2779f6659ccc2484d" target="_top" xlink:title=" ">
<polygon fill="white" stroke="red" points="914.5,-369.456 914.5,-388.456 986.5,-388.456 986.5,-369.456 914.5,-369.456"/>
<text text-anchor="middle" x="950.5" y="-376.456" font-family="Helvetica,sans-Serif" font-size="10.00">luaS_newlstr</text>
</a>
</g>
</g>
<!-- Node456&#45;&gt;Node36 -->
<g id="edge24" class="edge"><title>Node456&#45;&gt;Node36</title>
<path fill="none" stroke="midnightblue" d="M739.037,-414.818C773.087,-412.158 829.252,-406.849 877,-397.956 886.978,-396.098 897.606,-393.608 907.562,-391.044"/>
<polygon fill="midnightblue" stroke="midnightblue" points="908.476,-394.423 917.244,-388.477 906.681,-387.657 908.476,-394.423"/>
</g>
<!-- Node404 -->
<g id="node24" class="node"><title>Node404</title>
<g id="a_node24"><a xlink:href="lvm_8c.html#a2f076040af405dcb50d661edd692eca7" target="_top" xlink:title=" ">
<polygon fill="white" stroke="red" points="795,-369.456 795,-388.456 866,-388.456 866,-369.456 795,-369.456"/>
<text text-anchor="middle" x="830.5" y="-376.456" font-family="Helvetica,sans-Serif" font-size="10.00">luaV_concat</text>
</a>
</g>
</g>
<!-- Node456&#45;&gt;Node404 -->
<g id="edge25" class="edge"><title>Node456&#45;&gt;Node404</title>
<path fill="none" stroke="midnightblue" d="M738.66,-407.367C753.912,-402.597 772.551,-396.768 788.967,-391.633"/>
<polygon fill="midnightblue" stroke="midnightblue" points="790.351,-394.868 798.85,-388.542 788.261,-388.187 790.351,-394.868"/>
</g>
<!-- Node404&#45;&gt;Node36 -->
<g id="edge26" class="edge"><title>Node404&#45;&gt;Node36</title>
<path fill="none" stroke="midnightblue" d="M866.266,-378.956C878.056,-378.956 891.41,-378.956 903.915,-378.956"/>
<polygon fill="midnightblue" stroke="midnightblue" points="904.166,-382.456 914.166,-378.956 904.166,-375.456 904.166,-382.456"/>
</g>
<!-- Node452 -->
<g id="node26" class="node"><title>Node452</title>
<g id="a_node26"><a xlink:href="ldebug_8c.html#af7366920f8408bb33ed01b1d6c0e1238" target="_top" xlink:title=" ">
<polygon fill="white" stroke="red" points="667,-445.456 667,-464.456 747,-464.456 747,-445.456 667,-445.456"/>
<text text-anchor="middle" x="707" y="-452.456" font-family="Helvetica,sans-Serif" font-size="10.00">luaG_errormsg</text>
</a>
</g>
</g>
<!-- Node457&#45;&gt;Node452 -->
<g id="edge28" class="edge"><title>Node457&#45;&gt;Node452</title>
<path fill="none" stroke="midnightblue" d="M611.647,-425.202C627.532,-430.211 648.134,-436.708 666.033,-442.353"/>
<polygon fill="midnightblue" stroke="midnightblue" points="665.061,-445.716 675.651,-445.386 667.167,-439.04 665.061,-445.716"/>
</g>
<!-- Node31 -->
<g id="node28" class="node"><title>Node31</title>
<g id="a_node28"><a xlink:href="lobject_8c.html#aa83fa444a36d79521e846a766fa083d5" target="_top" xlink:title=" ">
<polygon fill="white" stroke="red" points="784,-492.456 784,-511.456 877,-511.456 877,-492.456 784,-492.456"/>
<text text-anchor="middle" x="830.5" y="-499.456" font-family="Helvetica,sans-Serif" font-size="10.00">luaO_pushvfstring</text>
</a>
</g>
</g>
<!-- Node458&#45;&gt;Node31 -->
<g id="edge30" class="edge"><title>Node458&#45;&gt;Node31</title>
<path fill="none" stroke="midnightblue" d="M627.723,-494.514C668.09,-496.003 729.206,-498.257 773.598,-499.894"/>
<polygon fill="midnightblue" stroke="midnightblue" points="773.527,-503.394 783.65,-500.265 773.786,-496.399 773.527,-503.394"/>
</g>
<!-- Node459&#45;&gt;Node5 -->
<g id="edge32" class="edge"><title>Node459&#45;&gt;Node5</title>
<path fill="none" stroke="midnightblue" d="M617.16,-568.956C631.777,-568.956 649.317,-568.956 664.936,-568.956"/>
<polygon fill="midnightblue" stroke="midnightblue" points="665.383,-572.456 675.383,-568.956 665.383,-565.456 665.383,-572.456"/>
</g>
<!-- Node459&#45;&gt;Node454 -->
<g id="edge33" class="edge"><title>Node459&#45;&gt;Node454</title>
<path fill="none" stroke="midnightblue" d="M605.669,-578.497C625.045,-587.662 654.543,-601.616 676.546,-612.024"/>
<polygon fill="midnightblue" stroke="midnightblue" points="675.229,-615.273 685.765,-616.385 678.222,-608.945 675.229,-615.273"/>
</g>
<!-- Node460 -->
<g id="node30" class="node"><title>Node460</title>
<g id="a_node30"><a xlink:href="lapi_8c.html#ab190c226d38b289e6ca57683a9d4e0f0" target="_top" xlink:title=" ">
<polygon fill="white" stroke="black" points="666,-521.456 666,-540.456 748,-540.456 748,-521.456 666,-521.456"/>
<text text-anchor="middle" x="707" y="-528.456" font-family="Helvetica,sans-Serif" font-size="10.00">lua_pushfstring</text>
</a>
</g>
</g>
<!-- Node459&#45;&gt;Node460 -->
<g id="edge34" class="edge"><title>Node459&#45;&gt;Node460</title>
<path fill="none" stroke="midnightblue" d="M615.907,-559.367C631.035,-554.597 649.52,-548.768 665.8,-543.633"/>
<polygon fill="midnightblue" stroke="midnightblue" points="667.118,-546.888 675.602,-540.542 665.013,-540.212 667.118,-546.888"/>
</g>
<!-- Node460&#45;&gt;Node31 -->
<g id="edge35" class="edge"><title>Node460&#45;&gt;Node31</title>
<path fill="none" stroke="midnightblue" d="M748.12,-521.38C758.178,-518.98 769.091,-516.375 779.561,-513.876"/>
<polygon fill="midnightblue" stroke="midnightblue" points="780.508,-517.248 789.422,-511.522 778.882,-510.44 780.508,-517.248"/>
</g>
<!-- Node461&#45;&gt;Node5 -->
<g id="edge52" class="edge"><title>Node461&#45;&gt;Node5</title>
<path fill="none" stroke="midnightblue" d="M454.562,-293.569C463.412,-319.916 491.47,-394.099 539,-435.956 571.893,-464.923 598.291,-443.698 630,-473.956 657.04,-499.759 639.586,-523.514 666,-549.956 667.386,-551.343 668.892,-552.643 670.481,-553.858"/>
<polygon fill="midnightblue" stroke="midnightblue" points="668.631,-556.829 678.945,-559.25 672.392,-550.925 668.631,-556.829"/>
</g>
<!-- Node462 -->
<g id="node32" class="node"><title>Node462</title>
<g id="a_node32"><a xlink:href="lauxlib_8c.html#a36c8f149b779f8c9a5c042ea9784d80a" target="_top" xlink:title=" ">
<polygon fill="white" stroke="black" points="560,-217.456 560,-236.456 609,-236.456 609,-217.456 560,-217.456"/>
<text text-anchor="middle" x="584.5" y="-224.456" font-family="Helvetica,sans-Serif" font-size="10.00">findfield</text>
</a>
</g>
</g>
<!-- Node461&#45;&gt;Node462 -->
<g id="edge37" class="edge"><title>Node461&#45;&gt;Node462</title>
<path fill="none" stroke="midnightblue" d="M473.419,-274.393C491.107,-266.686 516.639,-255.585 539,-245.956 542.993,-244.237 547.19,-242.436 551.345,-240.658"/>
<polygon fill="midnightblue" stroke="midnightblue" points="553.03,-243.744 560.85,-236.595 550.279,-237.307 553.03,-243.744"/>
</g>
<!-- Node470 -->
<g id="node37" class="node"><title>Node470</title>
<g id="a_node37"><a xlink:href="lapi_8c.html#a111bd3fa34fe656f415edae5e343e13e" target="_top" xlink:title=" ">
<polygon fill="white" stroke="black" points="556.5,-141.456 556.5,-160.456 612.5,-160.456 612.5,-141.456 556.5,-141.456"/>
<text text-anchor="middle" x="584.5" y="-148.456" font-family="Helvetica,sans-Serif" font-size="10.00">lua_copy</text>
</a>
</g>
</g>
<!-- Node461&#45;&gt;Node470 -->
<g id="edge45" class="edge"><title>Node461&#45;&gt;Node470</title>
<path fill="none" stroke="midnightblue" d="M456.57,-274.369C468.346,-252.919 499.576,-200.544 539,-169.956 541.588,-167.948 544.421,-166.111 547.363,-164.439"/>
<polygon fill="midnightblue" stroke="midnightblue" points="549.015,-167.526 556.384,-159.914 545.877,-161.269 549.015,-167.526"/>
</g>
<!-- Node471 -->
<g id="node38" class="node"><title>Node471</title>
<g id="a_node38"><a xlink:href="lapi_8c.html#a8b47f1b5685c3f8018ba926abb99af24" target="_top" xlink:title=" ">
<polygon fill="white" stroke="black" points="552,-255.456 552,-274.456 617,-274.456 617,-255.456 552,-255.456"/>
<text text-anchor="middle" x="584.5" y="-262.456" font-family="Helvetica,sans-Serif" font-size="10.00">lua_getfield</text>
</a>
</g>
</g>
<!-- Node461&#45;&gt;Node471 -->
<g id="edge47" class="edge"><title>Node461&#45;&gt;Node471</title>
<path fill="none" stroke="midnightblue" d="M503.291,-276.502C516.044,-274.666 529.539,-272.723 541.749,-270.966"/>
<polygon fill="midnightblue" stroke="midnightblue" points="542.259,-274.429 551.658,-269.54 541.262,-267.5 542.259,-274.429"/>
</g>
<!-- Node473 -->
<g id="node41" class="node"><title>Node473</title>
<g id="a_node41"><a xlink:href="lapi_8c.html#afbb08ecb69421875494105d4de68e5bf" target="_top" xlink:title=" ">
<polygon fill="white" stroke="black" points="553.5,-331.456 553.5,-350.456 615.5,-350.456 615.5,-331.456 553.5,-331.456"/>
<text text-anchor="middle" x="584.5" y="-338.456" font-family="Helvetica,sans-Serif" font-size="10.00">lua_gettop</text>
</a>
</g>
</g>
<!-- Node461&#45;&gt;Node473 -->
<g id="edge53" class="edge"><title>Node461&#45;&gt;Node473</title>
<path fill="none" stroke="midnightblue" d="M473.419,-293.52C491.107,-301.227 516.639,-312.327 539,-321.956 542.993,-323.676 547.19,-325.476 551.345,-327.255"/>
<polygon fill="midnightblue" stroke="midnightblue" points="550.279,-330.606 560.85,-331.318 553.03,-324.169 550.279,-330.606"/>
</g>
<!-- Node474 -->
<g id="node42" class="node"><title>Node474</title>
<g id="a_node42"><a xlink:href="lapi_8c.html#a771d300f2e64b2197d1df9bf31660ebf" target="_top" xlink:title=" ">
<polygon fill="white" stroke="black" points="544.5,-179.456 544.5,-198.456 624.5,-198.456 624.5,-179.456 544.5,-179.456"/>
<text text-anchor="middle" x="584.5" y="-186.456" font-family="Helvetica,sans-Serif" font-size="10.00">lua_pushstring</text>
</a>
</g>
</g>
<!-- Node461&#45;&gt;Node474 -->
<g id="edge54" class="edge"><title>Node461&#45;&gt;Node474</title>
<path fill="none" stroke="midnightblue" d="M460.924,-273.965C476.146,-258.269 507.62,-227.602 539,-207.956 541.937,-206.118 545.083,-204.378 548.294,-202.754"/>
<polygon fill="midnightblue" stroke="midnightblue" points="549.824,-205.902 557.398,-198.493 546.857,-199.562 549.824,-205.902"/>
</g>
<!-- Node475 -->
<g id="node43" class="node"><title>Node475</title>
<g id="a_node43"><a xlink:href="lapi_8c.html#adaa30f0d34786144c94644039d1d1b6e" target="_top" xlink:title=" ">
<polygon fill="white" stroke="black" points="553.5,-293.456 553.5,-312.456 615.5,-312.456 615.5,-293.456 553.5,-293.456"/>
<text text-anchor="middle" x="584.5" y="-300.456" font-family="Helvetica,sans-Serif" font-size="10.00">lua_settop</text>
</a>
</g>
</g>
<!-- Node461&#45;&gt;Node475 -->
<g id="edge56" class="edge"><title>Node461&#45;&gt;Node475</title>
<path fill="none" stroke="midnightblue" d="M503.291,-291.411C516.495,-293.312 530.496,-295.327 543.041,-297.133"/>
<polygon fill="midnightblue" stroke="midnightblue" points="542.79,-300.633 553.187,-298.593 543.787,-293.704 542.79,-300.633"/>
</g>
<!-- Node462&#45;&gt;Node456 -->
<g id="edge38" class="edge"><title>Node462&#45;&gt;Node456</title>
<path fill="none" stroke="midnightblue" d="M609.369,-232.539C616.933,-235.399 624.697,-239.659 630,-245.956 674.72,-299.059 622.349,-343.972 666,-397.956 666.967,-399.152 668.027,-400.277 669.159,-401.335"/>
<polygon fill="midnightblue" stroke="midnightblue" points="667.325,-404.329 677.471,-407.382 671.443,-398.668 667.325,-404.329"/>
</g>
<!-- Node463 -->
<g id="node33" class="node"><title>Node463</title>
<g id="a_node33"><a xlink:href="lapi_8c.html#aa8bf464b98335a075732200ad91ce1de" target="_top" xlink:title=" ">
<polygon fill="white" stroke="red" points="680.5,-255.456 680.5,-274.456 733.5,-274.456 733.5,-255.456 680.5,-255.456"/>
<text text-anchor="middle" x="707" y="-262.456" font-family="Helvetica,sans-Serif" font-size="10.00">lua_next</text>
</a>
</g>
</g>
<!-- Node462&#45;&gt;Node463 -->
<g id="edge39" class="edge"><title>Node462&#45;&gt;Node463</title>
<path fill="none" stroke="midnightblue" d="M609.02,-234.373C626.597,-239.917 650.92,-247.587 670.809,-253.859"/>
<polygon fill="midnightblue" stroke="midnightblue" points="669.867,-257.232 680.457,-256.901 671.972,-250.556 669.867,-257.232"/>
</g>
<!-- Node467 -->
<g id="node34" class="node"><title>Node467</title>
<g id="a_node34"><a xlink:href="lapi_8c.html#a1b4cd0d80f51e5545a97ca6c28c03c50" target="_top" xlink:title=" ">
<polygon fill="white" stroke="black" points="674.5,-217.456 674.5,-236.456 739.5,-236.456 739.5,-217.456 674.5,-217.456"/>
<text text-anchor="middle" x="707" y="-224.456" font-family="Helvetica,sans-Serif" font-size="10.00">lua_pushnil</text>
</a>
</g>
</g>
<!-- Node462&#45;&gt;Node467 -->
<g id="edge40" class="edge"><title>Node462&#45;&gt;Node467</title>
<path fill="none" stroke="midnightblue" d="M609.02,-226.956C624.666,-226.956 645.656,-226.956 664.106,-226.956"/>
<polygon fill="midnightblue" stroke="midnightblue" points="664.33,-230.456 674.33,-226.956 664.33,-223.456 664.33,-230.456"/>
</g>
<!-- Node468 -->
<g id="node35" class="node"><title>Node468</title>
<g id="a_node35"><a xlink:href="lapi_8c.html#ace66ea78ced7fda0b367f45d09d10d83" target="_top" xlink:title=" ">
<polygon fill="white" stroke="black" points="670.5,-179.456 670.5,-198.456 743.5,-198.456 743.5,-179.456 670.5,-179.456"/>
<text text-anchor="middle" x="707" y="-186.456" font-family="Helvetica,sans-Serif" font-size="10.00">lua_rawequal</text>
</a>
</g>
</g>
<!-- Node462&#45;&gt;Node468 -->
<g id="edge41" class="edge"><title>Node462&#45;&gt;Node468</title>
<path fill="none" stroke="midnightblue" d="M609.02,-219.539C625.234,-214.426 647.187,-207.503 666.106,-201.537"/>
<polygon fill="midnightblue" stroke="midnightblue" points="667.192,-204.864 675.677,-198.519 665.087,-198.189 667.192,-204.864"/>
</g>
<!-- Node469 -->
<g id="node36" class="node"><title>Node469</title>
<g id="a_node36"><a xlink:href="lapi_8c.html#a652b273947f0656686f998d8e90cd3ea" target="_top" xlink:title=" ">
<polygon fill="white" stroke="black" points="680.5,-65.4564 680.5,-84.4564 733.5,-84.4564 733.5,-65.4564 680.5,-65.4564"/>
<text text-anchor="middle" x="707" y="-72.4564" font-family="Helvetica,sans-Serif" font-size="10.00">lua_type</text>
</a>
</g>
</g>
<!-- Node462&#45;&gt;Node469 -->
<g id="edge43" class="edge"><title>Node462&#45;&gt;Node469</title>
<path fill="none" stroke="midnightblue" d="M609.323,-220.069C616.537,-217.165 624.103,-213.208 630,-207.956 665.925,-175.962 689.026,-122.777 699.49,-94.3224"/>
<polygon fill="midnightblue" stroke="midnightblue" points="702.85,-95.3183 702.882,-84.7235 696.25,-92.9861 702.85,-95.3183"/>
</g>
<!-- Node468&#45;&gt;Node3 -->
<g id="edge42" class="edge"><title>Node468&#45;&gt;Node3</title>
<path fill="none" stroke="midnightblue" d="M720.545,-179.148C741.48,-162.778 783.732,-129.742 809.027,-109.964"/>
<polygon fill="midnightblue" stroke="midnightblue" points="811.482,-112.487 817.204,-103.57 807.171,-106.973 811.482,-112.487"/>
</g>
<!-- Node469&#45;&gt;Node3 -->
<g id="edge44" class="edge"><title>Node469&#45;&gt;Node3</title>
<path fill="none" stroke="midnightblue" d="M733.767,-78.9858C749.14,-81.3897 769.046,-84.5027 786.722,-87.2668"/>
<polygon fill="midnightblue" stroke="midnightblue" points="786.4,-90.7588 796.82,-88.846 787.481,-83.8429 786.4,-90.7588"/>
</g>
<!-- Node470&#45;&gt;Node3 -->
<g id="edge46" class="edge"><title>Node470&#45;&gt;Node3</title>
<path fill="none" stroke="midnightblue" d="M612.545,-144.639C654.798,-134.768 736.821,-115.607 787.019,-103.88"/>
<polygon fill="midnightblue" stroke="midnightblue" points="787.976,-107.251 796.917,-101.568 786.383,-100.435 787.976,-107.251"/>
</g>
<!-- Node471&#45;&gt;Node3 -->
<g id="edge51" class="edge"><title>Node471&#45;&gt;Node3</title>
<path fill="none" stroke="midnightblue" d="M617.075,-273.393C658.15,-283.574 727.131,-297.713 748,-283.956 806.768,-245.218 823.324,-154.337 827.855,-113.931"/>
<polygon fill="midnightblue" stroke="midnightblue" points="831.36,-114.042 828.856,-103.748 824.394,-113.357 831.36,-114.042"/>
</g>
<!-- Node472 -->
<g id="node39" class="node"><title>Node472</title>
<g id="a_node39"><a xlink:href="lapi_8c.html#a1b28b3a312121ffb29541632648b9f78" target="_top" xlink:title=" ">
<polygon fill="white" stroke="red" points="678.5,-331.456 678.5,-350.456 735.5,-350.456 735.5,-331.456 678.5,-331.456"/>
<text text-anchor="middle" x="707" y="-338.456" font-family="Helvetica,sans-Serif" font-size="10.00">auxgetstr</text>
</a>
</g>
</g>
<!-- Node471&#45;&gt;Node472 -->
<g id="edge48" class="edge"><title>Node471&#45;&gt;Node472</title>
<path fill="none" stroke="midnightblue" d="M612.137,-274.589C618.211,-277.254 624.493,-280.405 630,-283.956 648.241,-295.719 648.606,-303.974 666,-316.956 670.271,-320.144 674.99,-323.279 679.644,-326.178"/>
<polygon fill="midnightblue" stroke="midnightblue" points="678.002,-329.274 688.379,-331.412 681.6,-323.27 678.002,-329.274"/>
</g>
<!-- Node106 -->
<g id="node40" class="node"><title>Node106</title>
<g id="a_node40"><a xlink:href="lstring_8c.html#a6d47e53be6b8e58202bb927752f4824b" target="_top" xlink:title=" ">
<polygon fill="white" stroke="black" points="801,-331.456 801,-350.456 860,-350.456 860,-331.456 801,-331.456"/>
<text text-anchor="middle" x="830.5" y="-338.456" font-family="Helvetica,sans-Serif" font-size="10.00">luaS_new</text>
</a>
</g>
</g>
<!-- Node472&#45;&gt;Node106 -->
<g id="edge49" class="edge"><title>Node472&#45;&gt;Node106</title>
<path fill="none" stroke="midnightblue" d="M735.57,-340.956C751.841,-340.956 772.692,-340.956 790.614,-340.956"/>
<polygon fill="midnightblue" stroke="midnightblue" points="790.771,-344.456 800.771,-340.956 790.771,-337.456 790.771,-344.456"/>
</g>
<!-- Node106&#45;&gt;Node36 -->
<g id="edge50" class="edge"><title>Node106&#45;&gt;Node36</title>
<path fill="none" stroke="midnightblue" d="M860.065,-350.155C875.089,-354.994 893.741,-361 910.117,-366.274"/>
<polygon fill="midnightblue" stroke="midnightblue" points="909.375,-369.712 919.966,-369.445 911.521,-363.049 909.375,-369.712"/>
</g>
<!-- Node474&#45;&gt;Node106 -->
<g id="edge55" class="edge"><title>Node474&#45;&gt;Node106</title>
<path fill="none" stroke="midnightblue" d="M618.094,-179.45C632.62,-175.685 650.025,-171.816 666,-169.956 702.2,-165.742 717.181,-150.504 748,-169.956 801.683,-203.839 820.747,-283.848 826.877,-321.158"/>
<polygon fill="midnightblue" stroke="midnightblue" points="823.448,-321.895 828.388,-331.268 830.371,-320.861 823.448,-321.895"/>
</g>
<!-- Node87 -->
<g id="node44" class="node"><title>Node87</title>
<g id="a_node44"><a xlink:href="lfunc_8c.html#ae9fcbf80b5969afd9412b9aed102f94e" target="_top" xlink:title=" ">
<polygon fill="white" stroke="red" points="675,-369.456 675,-388.456 739,-388.456 739,-369.456 675,-369.456"/>
<text text-anchor="middle" x="707" y="-376.456" font-family="Helvetica,sans-Serif" font-size="10.00">luaF_close</text>
</a>
</g>
</g>
<!-- Node475&#45;&gt;Node87 -->
<g id="edge57" class="edge"><title>Node475&#45;&gt;Node87</title>
<path fill="none" stroke="midnightblue" d="M612.791,-312.518C618.709,-315.154 624.76,-318.31 630,-321.956 649.096,-335.245 647.173,-346.289 666,-359.956 668.199,-361.553 670.553,-363.07 672.978,-364.501"/>
<polygon fill="midnightblue" stroke="midnightblue" points="671.447,-367.651 681.916,-369.283 674.749,-361.479 671.447,-367.651"/>
</g>
<!-- Node477 -->
<g id="node46" class="node"><title>Node477</title>
<g id="a_node46"><a xlink:href="lapi_8c.html#a7d64f87addab440bbda96bb088816e17" target="_top" xlink:title=" ">
<polygon fill="white" stroke="black" points="174.5,-169.456 174.5,-188.456 251.5,-188.456 251.5,-169.456 174.5,-169.456"/>
<text text-anchor="middle" x="213" y="-176.456" font-family="Helvetica,sans-Serif" font-size="10.00">lua_typename</text>
</a>
</g>
</g>
<!-- Node476&#45;&gt;Node477 -->
<g id="edge59" class="edge"><title>Node476&#45;&gt;Node477</title>
<path fill="none" stroke="midnightblue" d="M138.168,-192.915C146.196,-191.397 155.262,-189.683 164.223,-187.989"/>
<polygon fill="midnightblue" stroke="midnightblue" points="165.059,-191.393 174.235,-186.096 163.758,-184.515 165.059,-191.393"/>
</g>
<!-- Node478 -->
<g id="node47" class="node"><title>Node478</title>
<g id="a_node47"><a xlink:href="lauxlib_8c.html#ab8ddc4ac13516f3548a6c102dd6fa114" target="_top" xlink:title=" ">
<polygon fill="white" stroke="black" points="174,-207.456 174,-226.456 252,-226.456 252,-207.456 174,-207.456"/>
<text text-anchor="middle" x="213" y="-214.456" font-family="Helvetica,sans-Serif" font-size="10.00">luaL_typeerror</text>
</a>
</g>
</g>
<!-- Node476&#45;&gt;Node478 -->
<g id="edge60" class="edge"><title>Node476&#45;&gt;Node478</title>
<path fill="none" stroke="midnightblue" d="M138.168,-202.998C146.111,-204.5 155.071,-206.194 163.94,-207.87"/>
<polygon fill="midnightblue" stroke="midnightblue" points="163.379,-211.326 173.855,-209.745 164.679,-204.448 163.379,-211.326"/>
</g>
<!-- Node478&#45;&gt;Node4 -->
<g id="edge63" class="edge"><title>Node478&#45;&gt;Node4</title>
<path fill="none" stroke="midnightblue" d="M215.189,-226.528C221.311,-274.69 250.461,-490.36 288,-544.956 290.125,-548.047 292.791,-550.846 295.706,-553.348"/>
<polygon fill="midnightblue" stroke="midnightblue" points="293.667,-556.193 303.803,-559.277 297.803,-550.545 293.667,-556.193"/>
</g>
<!-- Node478&#45;&gt;Node460 -->
<g id="edge61" class="edge"><title>Node478&#45;&gt;Node460</title>
<path fill="none" stroke="midnightblue" d="M216.54,-226.674C228.327,-269.571 282.107,-442.901 398,-511.956 478.055,-559.657 591.517,-551.307 656.029,-541.054"/>
<polygon fill="midnightblue" stroke="midnightblue" points="656.661,-544.497 665.949,-539.4 655.51,-537.592 656.661,-544.497"/>
</g>
<!-- Node478&#45;&gt;Node469 -->
<g id="edge62" class="edge"><title>Node478&#45;&gt;Node469</title>
<path fill="none" stroke="midnightblue" d="M247.045,-207.419C335.928,-181.766 579.535,-111.456 670.83,-85.1069"/>
<polygon fill="midnightblue" stroke="midnightblue" points="671.802,-88.4694 680.439,-82.3336 669.861,-81.7439 671.802,-88.4694"/>
</g>
<!-- Node479 -->
<g id="node48" class="node"><title>Node479</title>
<g id="a_node48"><a xlink:href="lauxlib_8c.html#add7cea31816ff3f61014031248e0daa6" target="_top" xlink:title=" ">
<polygon fill="white" stroke="black" points="404.5,-65.4564 404.5,-84.4564 496.5,-84.4564 496.5,-65.4564 404.5,-65.4564"/>
<text text-anchor="middle" x="450.5" y="-72.4564" font-family="Helvetica,sans-Serif" font-size="10.00">luaL_getmetafield</text>
</a>
</g>
</g>
<!-- Node478&#45;&gt;Node479 -->
<g id="edge64" class="edge"><title>Node478&#45;&gt;Node479</title>
<path fill="none" stroke="midnightblue" d="M239.982,-207.324C244.417,-204.796 248.663,-201.701 252,-197.956 283.151,-163.005 251.736,-128.569 288,-98.9564 317.249,-75.0717 359.791,-69.5463 393.87,-69.7403"/>
<polygon fill="midnightblue" stroke="midnightblue" points="394.075,-73.2457 404.151,-69.9702 394.232,-66.2474 394.075,-73.2457"/>
</g>
<!-- Node479&#45;&gt;Node474 -->
<g id="edge67" class="edge"><title>Node479&#45;&gt;Node474</title>
<path fill="none" stroke="midnightblue" d="M458.159,-84.5576C471.541,-103.243 503.47,-144.858 539,-169.956 541.526,-171.741 544.245,-173.405 547.051,-174.946"/>
<polygon fill="midnightblue" stroke="midnightblue" points="545.655,-178.16 556.171,-179.449 548.754,-171.884 545.655,-178.16"/>
</g>
<!-- Node480 -->
<g id="node49" class="node"><title>Node480</title>
<g id="a_node49"><a xlink:href="lapi_8c.html#a4caa9ca5e47a30bd45e33d83bf2d6d6e" target="_top" xlink:title=" ">
<polygon fill="white" stroke="black" points="539,-27.4564 539,-46.4564 630,-46.4564 630,-27.4564 539,-27.4564"/>
<text text-anchor="middle" x="584.5" y="-34.4564" font-family="Helvetica,sans-Serif" font-size="10.00">lua_getmetatable</text>
</a>
</g>
</g>
<!-- Node479&#45;&gt;Node480 -->
<g id="edge65" class="edge"><title>Node479&#45;&gt;Node480</title>
<path fill="none" stroke="midnightblue" d="M484.809,-65.3674C501.693,-60.5069 522.395,-54.5472 540.471,-49.3436"/>
<polygon fill="midnightblue" stroke="midnightblue" points="541.56,-52.6722 550.201,-46.5423 539.623,-45.9454 541.56,-52.6722"/>
</g>
<!-- Node481 -->
<g id="node50" class="node"><title>Node481</title>
<g id="a_node50"><a xlink:href="lapi_8c.html#a52944e714d1c64bda7b83f511c14b2d3" target="_top" xlink:title=" ">
<polygon fill="white" stroke="red" points="553,-65.4564 553,-84.4564 616,-84.4564 616,-65.4564 553,-65.4564"/>
<text text-anchor="middle" x="584.5" y="-72.4564" font-family="Helvetica,sans-Serif" font-size="10.00">lua_rawget</text>
</a>
</g>
</g>
<!-- Node479&#45;&gt;Node481 -->
<g id="edge68" class="edge"><title>Node479&#45;&gt;Node481</title>
<path fill="none" stroke="midnightblue" d="M496.558,-74.9564C511.462,-74.9564 527.957,-74.9564 542.537,-74.9564"/>
<polygon fill="midnightblue" stroke="midnightblue" points="542.765,-78.4565 552.765,-74.9564 542.765,-71.4565 542.765,-78.4565"/>
</g>
<!-- Node480&#45;&gt;Node3 -->
<g id="edge66" class="edge"><title>Node480&#45;&gt;Node3</title>
<path fill="none" stroke="midnightblue" d="M630.04,-38.3367C663.121,-40.2769 709.06,-44.913 748,-55.9564 767.528,-61.4944 788.242,-71.2087 803.901,-79.4288"/>
<polygon fill="midnightblue" stroke="midnightblue" points="802.478,-82.6381 812.941,-84.3032 805.8,-76.4766 802.478,-82.6381"/>
</g>
</g>
</svg>
