<?xml version="1.0" encoding="UTF-8" standalone="no"?>
<!DOCTYPE svg PUBLIC "-//W3C//DTD SVG 1.1//EN"
 "http://www.w3.org/Graphics/SVG/1.1/DTD/svg11.dtd">
<!-- Generated by graphviz version 2.38.0 (20140413.2041)
 -->
<!-- Title: pushglobalfuncname Pages: 1 -->
<svg width="1089pt" height="693pt"
 viewBox="0.00 0.00 1089.00 693.00" xmlns="http://www.w3.org/2000/svg" xmlns:xlink="http://www.w3.org/1999/xlink">
<g id="graph0" class="graph" transform="scale(1 1) rotate(0) translate(4 689)">
<title>pushglobalfuncname</title>
<polygon fill="white" stroke="none" points="-4,4 -4,-689 1085,-689 1085,4 -4,4"/>
<!-- Node1 -->
<g id="node1" class="node"><title>Node1</title>
<g id="a_node1"><a xlink:title=" ">
<polygon fill="#bfbfbf" stroke="black" points="0,-266.5 0,-285.5 105,-285.5 105,-266.5 0,-266.5"/>
<text text-anchor="middle" x="52.5" y="-273.5" font-family="Helvetica,sans-Serif" font-size="10.00">pushglobalfuncname</text>
</a>
</g>
</g>
<!-- Node2 -->
<g id="node2" class="node"><title>Node2</title>
<g id="a_node2"><a xlink:href="lauxlib_8c.html#a36c8f149b779f8c9a5c042ea9784d80a" target="_top" xlink:title=" ">
<polygon fill="white" stroke="black" points="156.5,-418.5 156.5,-437.5 205.5,-437.5 205.5,-418.5 156.5,-418.5"/>
<text text-anchor="middle" x="181" y="-425.5" font-family="Helvetica,sans-Serif" font-size="10.00">findfield</text>
</a>
</g>
</g>
<!-- Node1&#45;&gt;Node2 -->
<g id="edge1" class="edge"><title>Node1&#45;&gt;Node2</title>
<path fill="none" stroke="midnightblue" d="M61.4131,-285.508C82.2673,-310.566 138.958,-378.684 165.688,-410.804"/>
<polygon fill="midnightblue" stroke="midnightblue" points="163.003,-413.048 172.09,-418.495 168.383,-408.57 163.003,-413.048"/>
</g>
<!-- Node454 -->
<g id="node25" class="node"><title>Node454</title>
<g id="a_node25"><a xlink:href="lapi_8c.html#a111bd3fa34fe656f415edae5e343e13e" target="_top" xlink:title=" ">
<polygon fill="white" stroke="black" points="153,-313.5 153,-332.5 209,-332.5 209,-313.5 153,-313.5"/>
<text text-anchor="middle" x="181" y="-320.5" font-family="Helvetica,sans-Serif" font-size="10.00">lua_copy</text>
</a>
</g>
</g>
<!-- Node1&#45;&gt;Node454 -->
<g id="edge30" class="edge"><title>Node1&#45;&gt;Node454</title>
<path fill="none" stroke="midnightblue" d="M79.0992,-285.511C97.9211,-292.504 123.737,-302.096 144.544,-309.827"/>
<polygon fill="midnightblue" stroke="midnightblue" points="143.412,-313.14 154.005,-313.342 145.85,-306.578 143.412,-313.14"/>
</g>
<!-- Node455 -->
<g id="node26" class="node"><title>Node455</title>
<g id="a_node26"><a xlink:href="lapi_8c.html#a8b47f1b5685c3f8018ba926abb99af24" target="_top" xlink:title=" ">
<polygon fill="white" stroke="black" points="148.5,-266.5 148.5,-285.5 213.5,-285.5 213.5,-266.5 148.5,-266.5"/>
<text text-anchor="middle" x="181" y="-273.5" font-family="Helvetica,sans-Serif" font-size="10.00">lua_getfield</text>
</a>
</g>
</g>
<!-- Node1&#45;&gt;Node455 -->
<g id="edge32" class="edge"><title>Node1&#45;&gt;Node455</title>
<path fill="none" stroke="midnightblue" d="M105.317,-276C116.269,-276 127.693,-276 138.217,-276"/>
<polygon fill="midnightblue" stroke="midnightblue" points="138.391,-279.5 148.391,-276 138.391,-272.5 138.391,-279.5"/>
</g>
<!-- Node457 -->
<g id="node36" class="node"><title>Node457</title>
<g id="a_node36"><a xlink:href="ldebug_8c.html#acaafc35d8e385c4d167229486165df6d" target="_top" xlink:title=" ">
<polygon fill="white" stroke="black" points="641,-95.5 641,-114.5 704,-114.5 704,-95.5 641,-95.5"/>
<text text-anchor="middle" x="672.5" y="-102.5" font-family="Helvetica,sans-Serif" font-size="10.00">lua_getinfo</text>
</a>
</g>
</g>
<!-- Node1&#45;&gt;Node457 -->
<g id="edge50" class="edge"><title>Node1&#45;&gt;Node457</title>
<path fill="none" stroke="midnightblue" d="M60.0324,-266.316C85.2955,-230.142 180.767,-105 292.5,-105 292.5,-105 292.5,-105 411,-105 488.64,-105 579.297,-105 630.597,-105"/>
<polygon fill="midnightblue" stroke="midnightblue" points="630.623,-108.5 640.623,-105 630.623,-101.5 630.623,-108.5"/>
</g>
<!-- Node464 -->
<g id="node45" class="node"><title>Node464</title>
<g id="a_node45"><a xlink:href="lapi_8c.html#afbb08ecb69421875494105d4de68e5bf" target="_top" xlink:title=" ">
<polygon fill="white" stroke="black" points="150,-57.5 150,-76.5 212,-76.5 212,-57.5 150,-57.5"/>
<text text-anchor="middle" x="181" y="-64.5" font-family="Helvetica,sans-Serif" font-size="10.00">lua_gettop</text>
</a>
</g>
</g>
<!-- Node1&#45;&gt;Node464 -->
<g id="edge61" class="edge"><title>Node1&#45;&gt;Node464</title>
<path fill="none" stroke="midnightblue" d="M55.9121,-266.456C63.7177,-237.157 90.7437,-147.105 141,-91 143.924,-87.7356 147.397,-84.7643 151.047,-82.1111"/>
<polygon fill="midnightblue" stroke="midnightblue" points="153.213,-84.8785 159.711,-76.5097 149.413,-79.0002 153.213,-84.8785"/>
</g>
<!-- Node465 -->
<g id="node46" class="node"><title>Node465</title>
<g id="a_node46"><a xlink:href="lapi_8c.html#a771d300f2e64b2197d1df9bf31660ebf" target="_top" xlink:title=" ">
<polygon fill="white" stroke="black" points="141,-513.5 141,-532.5 221,-532.5 221,-513.5 141,-513.5"/>
<text text-anchor="middle" x="181" y="-520.5" font-family="Helvetica,sans-Serif" font-size="10.00">lua_pushstring</text>
</a>
</g>
</g>
<!-- Node1&#45;&gt;Node465 -->
<g id="edge62" class="edge"><title>Node1&#45;&gt;Node465</title>
<path fill="none" stroke="midnightblue" d="M58.4298,-285.644C71.7391,-311.678 109.519,-385.565 141,-447 150.986,-466.488 162.427,-488.779 170.322,-504.156"/>
<polygon fill="midnightblue" stroke="midnightblue" points="167.266,-505.867 174.948,-513.164 173.493,-502.669 167.266,-505.867"/>
</g>
<!-- Node466 -->
<g id="node47" class="node"><title>Node466</title>
<g id="a_node47"><a xlink:href="lapi_8c.html#adaa30f0d34786144c94644039d1d1b6e" target="_top" xlink:title=" ">
<polygon fill="white" stroke="black" points="150,-19.5 150,-38.5 212,-38.5 212,-19.5 150,-19.5"/>
<text text-anchor="middle" x="181" y="-26.5" font-family="Helvetica,sans-Serif" font-size="10.00">lua_settop</text>
</a>
</g>
</g>
<!-- Node1&#45;&gt;Node466 -->
<g id="edge64" class="edge"><title>Node1&#45;&gt;Node466</title>
<path fill="none" stroke="midnightblue" d="M54.6449,-266.46C59.1871,-232.487 78.8305,-115.821 141,-48 142.19,-46.7022 143.487,-45.4831 144.863,-44.3389"/>
<polygon fill="midnightblue" stroke="midnightblue" points="147.062,-47.0776 153.392,-38.5823 143.146,-41.2755 147.062,-47.0776"/>
</g>
<!-- Node3 -->
<g id="node3" class="node"><title>Node3</title>
<g id="a_node3"><a xlink:href="lapi_8c.html#a1de3afee1daece63d455f23818c883d9" target="_top" xlink:title=" ">
<polygon fill="white" stroke="black" points="261.5,-513.5 261.5,-532.5 325.5,-532.5 325.5,-513.5 261.5,-513.5"/>
<text text-anchor="middle" x="293.5" y="-520.5" font-family="Helvetica,sans-Serif" font-size="10.00">lua_concat</text>
</a>
</g>
</g>
<!-- Node2&#45;&gt;Node3 -->
<g id="edge2" class="edge"><title>Node2&#45;&gt;Node3</title>
<path fill="none" stroke="midnightblue" d="M189.977,-437.809C202.885,-453.254 229.677,-483.583 257,-504 258.865,-505.394 260.846,-506.747 262.882,-508.046"/>
<polygon fill="midnightblue" stroke="midnightblue" points="261.559,-511.327 271.957,-513.355 265.093,-505.284 261.559,-511.327"/>
</g>
<!-- Node446 -->
<g id="node15" class="node"><title>Node446</title>
<g id="a_node15"><a xlink:href="lapi_8c.html#aa8bf464b98335a075732200ad91ce1de" target="_top" xlink:title=" ">
<polygon fill="white" stroke="black" points="267,-437.5 267,-456.5 320,-456.5 320,-437.5 267,-437.5"/>
<text text-anchor="middle" x="293.5" y="-444.5" font-family="Helvetica,sans-Serif" font-size="10.00">lua_next</text>
</a>
</g>
</g>
<!-- Node2&#45;&gt;Node446 -->
<g id="edge17" class="edge"><title>Node2&#45;&gt;Node446</title>
<path fill="none" stroke="midnightblue" d="M205.705,-432.076C220.619,-434.64 240.146,-437.998 256.9,-440.879"/>
<polygon fill="midnightblue" stroke="midnightblue" points="256.46,-444.354 266.908,-442.6 257.646,-437.456 256.46,-444.354"/>
</g>
<!-- Node451 -->
<g id="node22" class="node"><title>Node451</title>
<g id="a_node22"><a xlink:href="lapi_8c.html#a1b4cd0d80f51e5545a97ca6c28c03c50" target="_top" xlink:title=" ">
<polygon fill="white" stroke="black" points="261,-475.5 261,-494.5 326,-494.5 326,-475.5 261,-475.5"/>
<text text-anchor="middle" x="293.5" y="-482.5" font-family="Helvetica,sans-Serif" font-size="10.00">lua_pushnil</text>
</a>
</g>
</g>
<!-- Node2&#45;&gt;Node451 -->
<g id="edge25" class="edge"><title>Node2&#45;&gt;Node451</title>
<path fill="none" stroke="midnightblue" d="M200.745,-437.669C218.393,-446.773 245.035,-460.516 265.071,-470.851"/>
<polygon fill="midnightblue" stroke="midnightblue" points="263.54,-474 274.032,-475.474 266.749,-467.779 263.54,-474"/>
</g>
<!-- Node452 -->
<g id="node23" class="node"><title>Node452</title>
<g id="a_node23"><a xlink:href="lapi_8c.html#ace66ea78ced7fda0b367f45d09d10d83" target="_top" xlink:title=" ">
<polygon fill="white" stroke="black" points="257,-399.5 257,-418.5 330,-418.5 330,-399.5 257,-399.5"/>
<text text-anchor="middle" x="293.5" y="-406.5" font-family="Helvetica,sans-Serif" font-size="10.00">lua_rawequal</text>
</a>
</g>
</g>
<!-- Node2&#45;&gt;Node452 -->
<g id="edge26" class="edge"><title>Node2&#45;&gt;Node452</title>
<path fill="none" stroke="midnightblue" d="M205.705,-423.924C217.646,-421.871 232.543,-419.309 246.607,-416.891"/>
<polygon fill="midnightblue" stroke="midnightblue" points="247.384,-420.309 256.646,-415.165 246.198,-413.41 247.384,-420.309"/>
</g>
<!-- Node453 -->
<g id="node24" class="node"><title>Node453</title>
<g id="a_node24"><a xlink:href="lapi_8c.html#a652b273947f0656686f998d8e90cd3ea" target="_top" xlink:title=" ">
<polygon fill="white" stroke="black" points="267,-361.5 267,-380.5 320,-380.5 320,-361.5 267,-361.5"/>
<text text-anchor="middle" x="293.5" y="-368.5" font-family="Helvetica,sans-Serif" font-size="10.00">lua_type</text>
</a>
</g>
</g>
<!-- Node2&#45;&gt;Node453 -->
<g id="edge28" class="edge"><title>Node2&#45;&gt;Node453</title>
<path fill="none" stroke="midnightblue" d="M200.745,-418.331C218.393,-409.227 245.035,-395.484 265.071,-385.149"/>
<polygon fill="midnightblue" stroke="midnightblue" points="266.749,-388.221 274.032,-380.526 263.54,-382 266.749,-388.221"/>
</g>
<!-- Node4 -->
<g id="node4" class="node"><title>Node4</title>
<g id="a_node4"><a xlink:href="lstring_8c.html#ab41fb084ce3ea5e2779f6659ccc2484d" target="_top" xlink:title=" ">
<polygon fill="white" stroke="black" points="501,-627.5 501,-646.5 573,-646.5 573,-627.5 501,-627.5"/>
<text text-anchor="middle" x="537" y="-634.5" font-family="Helvetica,sans-Serif" font-size="10.00">luaS_newlstr</text>
</a>
</g>
</g>
<!-- Node3&#45;&gt;Node4 -->
<g id="edge3" class="edge"><title>Node3&#45;&gt;Node4</title>
<path fill="none" stroke="midnightblue" d="M304.34,-532.735C317.425,-545.211 341.736,-566.799 366,-580 405.944,-601.732 455.656,-617.222 490.982,-626.518"/>
<polygon fill="midnightblue" stroke="midnightblue" points="490.443,-629.993 501,-629.09 492.184,-623.213 490.443,-629.993"/>
</g>
<!-- Node84 -->
<g id="node12" class="node"><title>Node84</title>
<g id="a_node12"><a xlink:href="lvm_8c.html#a2f076040af405dcb50d661edd692eca7" target="_top" xlink:title=" ">
<polygon fill="white" stroke="black" points="374.5,-513.5 374.5,-532.5 445.5,-532.5 445.5,-513.5 374.5,-513.5"/>
<text text-anchor="middle" x="410" y="-520.5" font-family="Helvetica,sans-Serif" font-size="10.00">luaV_concat</text>
</a>
</g>
</g>
<!-- Node3&#45;&gt;Node84 -->
<g id="edge11" class="edge"><title>Node3&#45;&gt;Node84</title>
<path fill="none" stroke="midnightblue" d="M325.788,-523C337.595,-523 351.272,-523 364.084,-523"/>
<polygon fill="midnightblue" stroke="midnightblue" points="364.122,-526.5 374.121,-523 364.121,-519.5 364.122,-526.5"/>
</g>
<!-- Node5 -->
<g id="node5" class="node"><title>Node5</title>
<g id="a_node5"><a xlink:href="lstring_8c.html#a9b2c32c59a280de24f20df1c7f0433a1" target="_top" xlink:title=" ">
<polygon fill="white" stroke="red" points="640,-665.5 640,-684.5 705,-684.5 705,-665.5 640,-665.5"/>
<text text-anchor="middle" x="672.5" y="-672.5" font-family="Helvetica,sans-Serif" font-size="10.00">internshrstr</text>
</a>
</g>
</g>
<!-- Node4&#45;&gt;Node5 -->
<g id="edge4" class="edge"><title>Node4&#45;&gt;Node5</title>
<path fill="none" stroke="midnightblue" d="M571.688,-646.589C589.366,-651.621 611.184,-657.831 629.908,-663.161"/>
<polygon fill="midnightblue" stroke="midnightblue" points="629.085,-666.566 639.661,-665.937 631.002,-659.833 629.085,-666.566"/>
</g>
<!-- Node445 -->
<g id="node6" class="node"><title>Node445</title>
<g id="a_node6"><a xlink:href="lmem_8c.html#a8fc7df43dd830ccbe7581fd53f65bdbe" target="_top" xlink:title=" ">
<polygon fill="white" stroke="black" points="638,-627.5 638,-646.5 707,-646.5 707,-627.5 638,-627.5"/>
<text text-anchor="middle" x="672.5" y="-634.5" font-family="Helvetica,sans-Serif" font-size="10.00">luaM_toobig</text>
</a>
</g>
</g>
<!-- Node4&#45;&gt;Node445 -->
<g id="edge5" class="edge"><title>Node4&#45;&gt;Node445</title>
<path fill="none" stroke="midnightblue" d="M573.076,-637C589.737,-637 609.826,-637 627.498,-637"/>
<polygon fill="midnightblue" stroke="midnightblue" points="627.58,-640.5 637.58,-637 627.58,-633.5 627.58,-640.5"/>
</g>
<!-- Node86 -->
<g id="node11" class="node"><title>Node86</title>
<g id="a_node11"><a xlink:href="lstring_8c.html#a8790c7d6e706f935dd6e9eefd068921c" target="_top" xlink:title=" ">
<polygon fill="white" stroke="red" points="620,-589.5 620,-608.5 725,-608.5 725,-589.5 620,-589.5"/>
<text text-anchor="middle" x="672.5" y="-596.5" font-family="Helvetica,sans-Serif" font-size="10.00">luaS_createlngstrobj</text>
</a>
</g>
</g>
<!-- Node4&#45;&gt;Node86 -->
<g id="edge10" class="edge"><title>Node4&#45;&gt;Node86</title>
<path fill="none" stroke="midnightblue" d="M571.688,-627.411C588.763,-622.551 609.7,-616.591 627.982,-611.387"/>
<polygon fill="midnightblue" stroke="midnightblue" points="629.163,-614.69 637.823,-608.586 627.247,-607.957 629.163,-614.69"/>
</g>
<!-- Node72 -->
<g id="node7" class="node"><title>Node72</title>
<g id="a_node7"><a xlink:href="ldebug_8c.html#a88d38ca5da2e7a1492fc9d5ad70c32c5" target="_top" xlink:title=" ">
<polygon fill="white" stroke="red" points="765.5,-332.5 765.5,-351.5 840.5,-351.5 840.5,-332.5 765.5,-332.5"/>
<text text-anchor="middle" x="803" y="-339.5" font-family="Helvetica,sans-Serif" font-size="10.00">luaG_runerror</text>
</a>
</g>
</g>
<!-- Node445&#45;&gt;Node72 -->
<g id="edge6" class="edge"><title>Node445&#45;&gt;Node72</title>
<path fill="none" stroke="midnightblue" d="M707.064,-629.818C713.73,-627.062 720.156,-623.255 725,-618 794.128,-543.005 801.918,-411.101 802.279,-361.548"/>
<polygon fill="midnightblue" stroke="midnightblue" points="805.779,-361.524 802.254,-351.533 798.779,-361.542 805.779,-361.524"/>
</g>
<!-- Node73 -->
<g id="node8" class="node"><title>Node73</title>
<g id="a_node8"><a xlink:href="ldebug_8c.html#ad6bc24d619df8e849e2ae8b00455d86f" target="_top" xlink:title=" ">
<polygon fill="white" stroke="black" points="881,-266.5 881,-285.5 956,-285.5 956,-266.5 881,-266.5"/>
<text text-anchor="middle" x="918.5" y="-273.5" font-family="Helvetica,sans-Serif" font-size="10.00">getcurrentline</text>
</a>
</g>
</g>
<!-- Node72&#45;&gt;Node73 -->
<g id="edge7" class="edge"><title>Node72&#45;&gt;Node73</title>
<path fill="none" stroke="midnightblue" d="M820.747,-332.261C839.632,-321.28 870.541,-303.307 892.333,-290.634"/>
<polygon fill="midnightblue" stroke="midnightblue" points="894.168,-293.616 901.053,-285.564 890.649,-287.565 894.168,-293.616"/>
</g>
<!-- Node69 -->
<g id="node9" class="node"><title>Node69</title>
<g id="a_node9"><a xlink:href="ldebug_8c.html#a7db2a3f5cbcf0ac3ef6d4cfa15ab4dbc" target="_top" xlink:title=" ">
<polygon fill="white" stroke="black" points="1008,-275.5 1008,-294.5 1065,-294.5 1065,-275.5 1008,-275.5"/>
<text text-anchor="middle" x="1036.5" y="-282.5" font-family="Helvetica,sans-Serif" font-size="10.00">currentpc</text>
</a>
</g>
</g>
<!-- Node73&#45;&gt;Node69 -->
<g id="edge8" class="edge"><title>Node73&#45;&gt;Node69</title>
<path fill="none" stroke="midnightblue" d="M956.203,-278.848C969.402,-279.872 984.309,-281.028 997.606,-282.06"/>
<polygon fill="midnightblue" stroke="midnightblue" points="997.622,-285.572 1007.86,-282.856 998.163,-278.593 997.622,-285.572"/>
</g>
<!-- Node74 -->
<g id="node10" class="node"><title>Node74</title>
<g id="a_node10"><a xlink:href="ldebug_8c.html#ae7a6d2f88b11cc05758e44acd433ee2f" target="_top" xlink:title=" ">
<polygon fill="white" stroke="red" points="992,-237.5 992,-256.5 1081,-256.5 1081,-237.5 992,-237.5"/>
<text text-anchor="middle" x="1036.5" y="-244.5" font-family="Helvetica,sans-Serif" font-size="10.00">luaG_getfuncline</text>
</a>
</g>
</g>
<!-- Node73&#45;&gt;Node74 -->
<g id="edge9" class="edge"><title>Node73&#45;&gt;Node74</title>
<path fill="none" stroke="midnightblue" d="M956.203,-266.824C966.163,-264.334 977.095,-261.601 987.575,-258.981"/>
<polygon fill="midnightblue" stroke="midnightblue" points="988.584,-262.337 997.437,-256.516 986.887,-255.546 988.584,-262.337"/>
</g>
<!-- Node84&#45;&gt;Node4 -->
<g id="edge15" class="edge"><title>Node84&#45;&gt;Node4</title>
<path fill="none" stroke="midnightblue" d="M439.994,-532.512C445.051,-535.051 449.973,-538.181 454,-542 479.674,-566.343 465.128,-587.838 490,-613 493.459,-616.499 497.536,-619.598 501.81,-622.308"/>
<polygon fill="midnightblue" stroke="midnightblue" points="500.294,-625.471 510.725,-627.327 503.729,-619.371 500.294,-625.471"/>
</g>
<!-- Node84&#45;&gt;Node72 -->
<g id="edge13" class="edge"><title>Node84&#45;&gt;Node72</title>
<path fill="none" stroke="midnightblue" d="M435.147,-532.548C469.459,-544.607 533.739,-561.563 584,-542 680.562,-504.416 760.316,-401.862 789.786,-360.079"/>
<polygon fill="midnightblue" stroke="midnightblue" points="792.776,-361.909 795.595,-351.696 787.022,-357.922 792.776,-361.909"/>
</g>
<!-- Node84&#45;&gt;Node86 -->
<g id="edge14" class="edge"><title>Node84&#45;&gt;Node86</title>
<path fill="none" stroke="midnightblue" d="M436.278,-532.527C442.286,-535.232 448.535,-538.427 454,-542 472.167,-553.877 470.332,-565.82 490,-575 527.224,-592.375 573.123,-598.323 609.45,-599.954"/>
<polygon fill="midnightblue" stroke="midnightblue" points="609.795,-603.468 619.91,-600.318 610.038,-596.472 609.795,-603.468"/>
</g>
<!-- Node85 -->
<g id="node13" class="node"><title>Node85</title>
<g id="a_node13"><a xlink:href="lvm_8c.html#a7f03a9c23b77ec5cd280bb955ec430b8" target="_top" xlink:title=" ">
<polygon fill="white" stroke="black" points="508,-513.5 508,-532.5 566,-532.5 566,-513.5 508,-513.5"/>
<text text-anchor="middle" x="537" y="-520.5" font-family="Helvetica,sans-Serif" font-size="10.00">copy2buff</text>
</a>
</g>
</g>
<!-- Node84&#45;&gt;Node85 -->
<g id="edge12" class="edge"><title>Node84&#45;&gt;Node85</title>
<path fill="none" stroke="midnightblue" d="M445.819,-523C461.819,-523 480.852,-523 497.3,-523"/>
<polygon fill="midnightblue" stroke="midnightblue" points="497.677,-526.5 507.677,-523 497.677,-519.5 497.677,-526.5"/>
</g>
<!-- Node87 -->
<g id="node14" class="node"><title>Node87</title>
<g id="a_node14"><a xlink:href="ltm_8c.html#addc61bf94c111c5a5bd3fe0032cb9be0" target="_top" xlink:title=" ">
<polygon fill="white" stroke="red" points="490,-475.5 490,-494.5 584,-494.5 584,-475.5 490,-475.5"/>
<text text-anchor="middle" x="537" y="-482.5" font-family="Helvetica,sans-Serif" font-size="10.00">luaT_tryconcatTM</text>
</a>
</g>
</g>
<!-- Node84&#45;&gt;Node87 -->
<g id="edge16" class="edge"><title>Node84&#45;&gt;Node87</title>
<path fill="none" stroke="midnightblue" d="M442.543,-513.411C458.383,-508.596 477.773,-502.701 494.776,-497.532"/>
<polygon fill="midnightblue" stroke="midnightblue" points="495.918,-500.843 504.467,-494.586 493.882,-494.146 495.918,-500.843"/>
</g>
<!-- Node447 -->
<g id="node16" class="node"><title>Node447</title>
<g id="a_node16"><a xlink:href="lapi_8c.html#a4ebfbcdc1a7a4f0332d4dd532a817212" target="_top" xlink:title=" ">
<polygon fill="white" stroke="black" points="384.5,-437.5 384.5,-456.5 435.5,-456.5 435.5,-437.5 384.5,-437.5"/>
<text text-anchor="middle" x="410" y="-444.5" font-family="Helvetica,sans-Serif" font-size="10.00">gettable</text>
</a>
</g>
</g>
<!-- Node446&#45;&gt;Node447 -->
<g id="edge18" class="edge"><title>Node446&#45;&gt;Node447</title>
<path fill="none" stroke="midnightblue" d="M320.196,-447C336.031,-447 356.549,-447 373.873,-447"/>
<polygon fill="midnightblue" stroke="midnightblue" points="374.176,-450.5 384.176,-447 374.176,-443.5 374.176,-450.5"/>
</g>
<!-- Node449 -->
<g id="node18" class="node"><title>Node449</title>
<g id="a_node18"><a xlink:href="ltable_8c.html#a3c4370ade14fcc86ede5ca90271d0f30" target="_top" xlink:title=" ">
<polygon fill="white" stroke="black" points="380,-475.5 380,-494.5 440,-494.5 440,-475.5 380,-475.5"/>
<text text-anchor="middle" x="410" y="-482.5" font-family="Helvetica,sans-Serif" font-size="10.00">luaH_next</text>
</a>
</g>
</g>
<!-- Node446&#45;&gt;Node449 -->
<g id="edge20" class="edge"><title>Node446&#45;&gt;Node449</title>
<path fill="none" stroke="midnightblue" d="M320.196,-455.528C334.939,-460.421 353.741,-466.661 370.245,-472.138"/>
<polygon fill="midnightblue" stroke="midnightblue" points="369.575,-475.603 380.168,-475.431 371.78,-468.96 369.575,-475.603"/>
</g>
<!-- Node448 -->
<g id="node17" class="node"><title>Node448</title>
<g id="a_node17"><a xlink:href="lapi_8c.html#a7c66797ff8396fc9258bb9fc08e959d8" target="_top" xlink:title=" ">
<polygon fill="white" stroke="black" points="503.5,-361.5 503.5,-380.5 570.5,-380.5 570.5,-361.5 503.5,-361.5"/>
<text text-anchor="middle" x="537" y="-368.5" font-family="Helvetica,sans-Serif" font-size="10.00">index2value</text>
</a>
</g>
</g>
<!-- Node447&#45;&gt;Node448 -->
<g id="edge19" class="edge"><title>Node447&#45;&gt;Node448</title>
<path fill="none" stroke="midnightblue" d="M430.422,-437.402C438.019,-433.333 446.653,-428.306 454,-423 471.596,-410.291 471.689,-401.655 490,-390 492.932,-388.134 496.078,-386.385 499.298,-384.763"/>
<polygon fill="midnightblue" stroke="midnightblue" points="500.844,-387.905 508.455,-380.535 497.909,-381.55 500.844,-387.905"/>
</g>
<!-- Node450 -->
<g id="node19" class="node"><title>Node450</title>
<g id="a_node19"><a xlink:href="ltable_8c.html#a921c25ca2be2003cbcaa9e4c10d6eba8" target="_top" xlink:title=" ">
<polygon fill="white" stroke="red" points="509.5,-437.5 509.5,-456.5 564.5,-456.5 564.5,-437.5 509.5,-437.5"/>
<text text-anchor="middle" x="537" y="-444.5" font-family="Helvetica,sans-Serif" font-size="10.00">findindex</text>
</a>
</g>
</g>
<!-- Node449&#45;&gt;Node450 -->
<g id="edge21" class="edge"><title>Node449&#45;&gt;Node450</title>
<path fill="none" stroke="midnightblue" d="M440.307,-476.091C458.045,-470.698 480.809,-463.778 499.684,-458.04"/>
<polygon fill="midnightblue" stroke="midnightblue" points="500.883,-461.334 509.432,-455.077 498.846,-454.637 500.883,-461.334"/>
</g>
<!-- Node17 -->
<g id="node21" class="node"><title>Node17</title>
<g id="a_node21"><a xlink:href="ltable_8c.html#a8f20a204b7a78780847939086b847781" target="_top" xlink:title=" ">
<polygon fill="white" stroke="black" points="497,-399.5 497,-418.5 577,-418.5 577,-399.5 497,-399.5"/>
<text text-anchor="middle" x="537" y="-406.5" font-family="Helvetica,sans-Serif" font-size="10.00">luaH_realasize</text>
</a>
</g>
</g>
<!-- Node449&#45;&gt;Node17 -->
<g id="edge24" class="edge"><title>Node449&#45;&gt;Node17</title>
<path fill="none" stroke="midnightblue" d="M437.363,-475.332C443.082,-472.702 448.931,-469.575 454,-466 473.012,-452.592 470.826,-441.176 490,-428 492.553,-426.246 495.292,-424.611 498.116,-423.095"/>
<polygon fill="midnightblue" stroke="midnightblue" points="499.814,-426.162 507.299,-418.664 496.772,-419.858 499.814,-426.162"/>
</g>
<!-- Node450&#45;&gt;Node72 -->
<g id="edge23" class="edge"><title>Node450&#45;&gt;Node72</title>
<path fill="none" stroke="midnightblue" d="M561.894,-437.497C609.092,-418.725 714.384,-376.847 768.489,-355.328"/>
<polygon fill="midnightblue" stroke="midnightblue" points="769.971,-358.505 777.97,-351.557 767.384,-352.001 769.971,-358.505"/>
</g>
<!-- Node154 -->
<g id="node20" class="node"><title>Node154</title>
<g id="a_node20"><a xlink:href="ltable_8c.html#a9170d329b0dd746ca9b15db8c22a2127" target="_top" xlink:title=" ">
<polygon fill="white" stroke="red" points="641.5,-323.5 641.5,-342.5 703.5,-342.5 703.5,-323.5 641.5,-323.5"/>
<text text-anchor="middle" x="672.5" y="-330.5" font-family="Helvetica,sans-Serif" font-size="10.00">getgeneric</text>
</a>
</g>
</g>
<!-- Node450&#45;&gt;Node154 -->
<g id="edge22" class="edge"><title>Node450&#45;&gt;Node154</title>
<path fill="none" stroke="midnightblue" d="M564.811,-438.217C571.381,-435.46 578.189,-432.054 584,-428 600.451,-416.524 636.643,-374.691 656.949,-350.535"/>
<polygon fill="midnightblue" stroke="midnightblue" points="659.681,-352.724 663.411,-342.807 654.311,-348.234 659.681,-352.724"/>
</g>
<!-- Node452&#45;&gt;Node448 -->
<g id="edge27" class="edge"><title>Node452&#45;&gt;Node448</title>
<path fill="none" stroke="midnightblue" d="M330.007,-403.862C362.351,-399.134 411.421,-391.837 454,-385 466.827,-382.94 480.764,-380.599 493.447,-378.429"/>
<polygon fill="midnightblue" stroke="midnightblue" points="494.043,-381.878 503.305,-376.734 492.856,-374.98 494.043,-381.878"/>
</g>
<!-- Node453&#45;&gt;Node448 -->
<g id="edge29" class="edge"><title>Node453&#45;&gt;Node448</title>
<path fill="none" stroke="midnightblue" d="M320.345,-371C361.695,-371 443.158,-371 493.27,-371"/>
<polygon fill="midnightblue" stroke="midnightblue" points="493.462,-374.5 503.462,-371 493.462,-367.5 493.462,-374.5"/>
</g>
<!-- Node454&#45;&gt;Node448 -->
<g id="edge31" class="edge"><title>Node454&#45;&gt;Node448</title>
<path fill="none" stroke="midnightblue" d="M209.19,-326.687C270.375,-334.983 419.287,-355.174 493.087,-365.181"/>
<polygon fill="midnightblue" stroke="midnightblue" points="493.031,-368.706 503.411,-366.581 493.972,-361.769 493.031,-368.706"/>
</g>
<!-- Node455&#45;&gt;Node448 -->
<g id="edge49" class="edge"><title>Node455&#45;&gt;Node448</title>
<path fill="none" stroke="midnightblue" d="M213.612,-283.111C264.529,-294.743 367.729,-319.049 454,-344 468.83,-348.289 485.001,-353.497 499.032,-358.191"/>
<polygon fill="midnightblue" stroke="midnightblue" points="498.228,-361.614 508.822,-361.498 500.468,-354.982 498.228,-361.614"/>
</g>
<!-- Node456 -->
<g id="node27" class="node"><title>Node456</title>
<g id="a_node27"><a xlink:href="lapi_8c.html#a1b28b3a312121ffb29541632648b9f78" target="_top" xlink:title=" ">
<polygon fill="white" stroke="black" points="265,-247.5 265,-266.5 322,-266.5 322,-247.5 265,-247.5"/>
<text text-anchor="middle" x="293.5" y="-254.5" font-family="Helvetica,sans-Serif" font-size="10.00">auxgetstr</text>
</a>
</g>
</g>
<!-- Node455&#45;&gt;Node456 -->
<g id="edge33" class="edge"><title>Node455&#45;&gt;Node456</title>
<path fill="none" stroke="midnightblue" d="M213.665,-270.555C226.573,-268.336 241.596,-265.753 255.044,-263.44"/>
<polygon fill="midnightblue" stroke="midnightblue" points="255.698,-266.879 264.96,-261.735 254.512,-259.981 255.698,-266.879"/>
</g>
<!-- Node252 -->
<g id="node28" class="node"><title>Node252</title>
<g id="a_node28"><a xlink:href="ltable_8c.html#ae273e09d2342a84f5cdfa976c66f28c0" target="_top" xlink:title=" ">
<polygon fill="white" stroke="black" points="504,-323.5 504,-342.5 570,-342.5 570,-323.5 504,-323.5"/>
<text text-anchor="middle" x="537" y="-330.5" font-family="Helvetica,sans-Serif" font-size="10.00">luaH_getstr</text>
</a>
</g>
</g>
<!-- Node456&#45;&gt;Node252 -->
<g id="edge34" class="edge"><title>Node456&#45;&gt;Node252</title>
<path fill="none" stroke="midnightblue" d="M322.155,-256.361C355.134,-256.653 411.171,-260.541 454,-281 473.585,-290.356 471.689,-302.345 490,-314 492.932,-315.866 496.078,-317.615 499.298,-319.237"/>
<polygon fill="midnightblue" stroke="midnightblue" points="497.909,-322.45 508.455,-323.465 500.844,-316.095 497.909,-322.45"/>
</g>
<!-- Node94 -->
<g id="node30" class="node"><title>Node94</title>
<g id="a_node30"><a xlink:href="lstring_8c.html#a6d47e53be6b8e58202bb927752f4824b" target="_top" xlink:title=" ">
<polygon fill="white" stroke="black" points="380.5,-551.5 380.5,-570.5 439.5,-570.5 439.5,-551.5 380.5,-551.5"/>
<text text-anchor="middle" x="410" y="-558.5" font-family="Helvetica,sans-Serif" font-size="10.00">luaS_new</text>
</a>
</g>
</g>
<!-- Node456&#45;&gt;Node94 -->
<g id="edge37" class="edge"><title>Node456&#45;&gt;Node94</title>
<path fill="none" stroke="midnightblue" d="M298.682,-266.53C305.963,-283.443 321.046,-319.95 330,-352 353.126,-434.777 312.561,-474.686 366,-542 367.643,-544.069 369.558,-545.919 371.65,-547.572"/>
<polygon fill="midnightblue" stroke="midnightblue" points="370.057,-550.703 380.396,-553.017 373.757,-544.761 370.057,-550.703"/>
</g>
<!-- Node406 -->
<g id="node31" class="node"><title>Node406</title>
<g id="a_node31"><a xlink:href="lvm_8c.html#a45c30a70c51ed843f58bd446aa2096c9" target="_top" xlink:title=" ">
<polygon fill="white" stroke="black" points="371.5,-209.5 371.5,-228.5 448.5,-228.5 448.5,-209.5 371.5,-209.5"/>
<text text-anchor="middle" x="410" y="-216.5" font-family="Helvetica,sans-Serif" font-size="10.00">luaV_finishget</text>
</a>
</g>
</g>
<!-- Node456&#45;&gt;Node406 -->
<g id="edge39" class="edge"><title>Node456&#45;&gt;Node406</title>
<path fill="none" stroke="midnightblue" d="M322.217,-247.801C336.797,-242.963 354.895,-236.956 370.785,-231.683"/>
<polygon fill="midnightblue" stroke="midnightblue" points="371.954,-234.983 380.342,-228.511 369.749,-228.339 371.954,-234.983"/>
</g>
<!-- Node252&#45;&gt;Node154 -->
<g id="edge35" class="edge"><title>Node252&#45;&gt;Node154</title>
<path fill="none" stroke="midnightblue" d="M570.317,-333C588.632,-333 611.71,-333 631.199,-333"/>
<polygon fill="midnightblue" stroke="midnightblue" points="631.311,-336.5 641.311,-333 631.311,-329.5 631.311,-336.5"/>
</g>
<!-- Node66 -->
<g id="node29" class="node"><title>Node66</title>
<g id="a_node29"><a xlink:href="ltable_8c.html#ae8a52507e1c8966d9cf3f2dd5a0c325f" target="_top" xlink:title=" ">
<polygon fill="white" stroke="black" points="628.5,-285.5 628.5,-304.5 716.5,-304.5 716.5,-285.5 628.5,-285.5"/>
<text text-anchor="middle" x="672.5" y="-292.5" font-family="Helvetica,sans-Serif" font-size="10.00">luaH_getshortstr</text>
</a>
</g>
</g>
<!-- Node252&#45;&gt;Node66 -->
<g id="edge36" class="edge"><title>Node252&#45;&gt;Node66</title>
<path fill="none" stroke="midnightblue" d="M570.317,-323.801C587.716,-318.849 609.414,-312.672 628.25,-307.311"/>
<polygon fill="midnightblue" stroke="midnightblue" points="629.427,-310.615 638.087,-304.511 627.511,-303.882 629.427,-310.615"/>
</g>
<!-- Node94&#45;&gt;Node4 -->
<g id="edge38" class="edge"><title>Node94&#45;&gt;Node4</title>
<path fill="none" stroke="midnightblue" d="M424.715,-570.64C440.262,-581.422 466.503,-599.185 490,-613 495.605,-616.296 501.707,-619.641 507.58,-622.746"/>
<polygon fill="midnightblue" stroke="midnightblue" points="506.027,-625.884 516.515,-627.386 509.253,-619.671 506.027,-625.884"/>
</g>
<!-- Node406&#45;&gt;Node72 -->
<g id="edge40" class="edge"><title>Node406&#45;&gt;Node72</title>
<path fill="none" stroke="midnightblue" d="M440.515,-209.492C475.305,-199.716 534.635,-187.543 584,-200 669.144,-221.486 750.694,-292.234 785.004,-325.03"/>
<polygon fill="midnightblue" stroke="midnightblue" points="782.711,-327.682 792.322,-332.141 787.589,-322.662 782.711,-327.682"/>
</g>
<!-- Node92 -->
<g id="node32" class="node"><title>Node92</title>
<g id="a_node32"><a xlink:href="ldebug_8c.html#a60bf9ce85441bd5065f2b73640163711" target="_top" xlink:title=" ">
<polygon fill="white" stroke="red" points="632.5,-133.5 632.5,-152.5 712.5,-152.5 712.5,-133.5 632.5,-133.5"/>
<text text-anchor="middle" x="672.5" y="-140.5" font-family="Helvetica,sans-Serif" font-size="10.00">luaG_typeerror</text>
</a>
</g>
</g>
<!-- Node406&#45;&gt;Node92 -->
<g id="edge41" class="edge"><title>Node406&#45;&gt;Node92</title>
<path fill="none" stroke="midnightblue" d="M421.884,-209.484C436.354,-197.416 463.229,-176.979 490,-167 532.877,-151.017 584.929,-145.421 622.276,-143.583"/>
<polygon fill="midnightblue" stroke="midnightblue" points="622.556,-147.075 632.401,-143.159 622.263,-140.081 622.556,-147.075"/>
</g>
<!-- Node153 -->
<g id="node33" class="node"><title>Node153</title>
<g id="a_node33"><a xlink:href="ltable_8c.html#a8b4fce00d7db27ee9caac3d49863dea3" target="_top" xlink:title=" ">
<polygon fill="white" stroke="red" points="509.5,-285.5 509.5,-304.5 564.5,-304.5 564.5,-285.5 509.5,-285.5"/>
<text text-anchor="middle" x="537" y="-292.5" font-family="Helvetica,sans-Serif" font-size="10.00">luaH_get</text>
</a>
</g>
</g>
<!-- Node406&#45;&gt;Node153 -->
<g id="edge43" class="edge"><title>Node406&#45;&gt;Node153</title>
<path fill="none" stroke="midnightblue" d="M430.422,-228.598C438.019,-232.667 446.653,-237.694 454,-243 471.596,-255.709 471.689,-264.345 490,-276 493.175,-278.021 496.602,-279.905 500.103,-281.639"/>
<polygon fill="midnightblue" stroke="midnightblue" points="498.867,-284.922 509.419,-285.872 501.763,-278.549 498.867,-284.922"/>
</g>
<!-- Node89 -->
<g id="node34" class="node"><title>Node89</title>
<g id="a_node34"><a xlink:href="ltm_8c.html#aad98f3a425ba53e65e7a8f8037320402" target="_top" xlink:title=" ">
<polygon fill="white" stroke="red" points="496,-209.5 496,-228.5 578,-228.5 578,-209.5 496,-209.5"/>
<text text-anchor="middle" x="537" y="-216.5" font-family="Helvetica,sans-Serif" font-size="10.00">luaT_callTMres</text>
</a>
</g>
</g>
<!-- Node406&#45;&gt;Node89 -->
<g id="edge46" class="edge"><title>Node406&#45;&gt;Node89</title>
<path fill="none" stroke="midnightblue" d="M448.504,-219C460.19,-219 473.272,-219 485.686,-219"/>
<polygon fill="midnightblue" stroke="midnightblue" points="485.912,-222.5 495.912,-219 485.912,-215.5 485.912,-222.5"/>
</g>
<!-- Node65 -->
<g id="node35" class="node"><title>Node65</title>
<g id="a_node35"><a xlink:href="ltm_8c.html#a0a3a3df9d6e7f17d806f74d411e59b2d" target="_top" xlink:title=" ">
<polygon fill="white" stroke="black" points="493,-247.5 493,-266.5 581,-266.5 581,-247.5 493,-247.5"/>
<text text-anchor="middle" x="537" y="-254.5" font-family="Helvetica,sans-Serif" font-size="10.00">luaT_gettmbyobj</text>
</a>
</g>
</g>
<!-- Node406&#45;&gt;Node65 -->
<g id="edge47" class="edge"><title>Node406&#45;&gt;Node65</title>
<path fill="none" stroke="midnightblue" d="M442.543,-228.589C458.383,-233.404 477.773,-239.299 494.776,-244.468"/>
<polygon fill="midnightblue" stroke="midnightblue" points="493.882,-247.854 504.467,-247.414 495.918,-241.157 493.882,-247.854"/>
</g>
<!-- Node92&#45;&gt;Node72 -->
<g id="edge42" class="edge"><title>Node92&#45;&gt;Node72</title>
<path fill="none" stroke="midnightblue" d="M703.351,-152.549C711.127,-156.13 718.998,-160.867 725,-167 748.017,-190.519 781.572,-282.589 795.532,-322.91"/>
<polygon fill="midnightblue" stroke="midnightblue" points="792.23,-324.07 798.784,-332.394 798.852,-321.8 792.23,-324.07"/>
</g>
<!-- Node153&#45;&gt;Node154 -->
<g id="edge44" class="edge"><title>Node153&#45;&gt;Node154</title>
<path fill="none" stroke="midnightblue" d="M564.695,-302.599C583.744,-308.021 609.701,-315.409 631.255,-321.544"/>
<polygon fill="midnightblue" stroke="midnightblue" points="630.543,-324.981 641.119,-324.352 632.46,-318.248 630.543,-324.981"/>
</g>
<!-- Node153&#45;&gt;Node66 -->
<g id="edge45" class="edge"><title>Node153&#45;&gt;Node66</title>
<path fill="none" stroke="midnightblue" d="M564.695,-295C580.039,-295 599.865,-295 618.261,-295"/>
<polygon fill="midnightblue" stroke="midnightblue" points="618.297,-298.5 628.297,-295 618.297,-291.5 618.297,-298.5"/>
</g>
<!-- Node65&#45;&gt;Node66 -->
<g id="edge48" class="edge"><title>Node65&#45;&gt;Node66</title>
<path fill="none" stroke="midnightblue" d="M571.688,-266.589C588.763,-271.449 609.7,-277.409 627.982,-282.613"/>
<polygon fill="midnightblue" stroke="midnightblue" points="627.247,-286.043 637.823,-285.414 629.163,-279.31 627.247,-286.043"/>
</g>
<!-- Node458 -->
<g id="node37" class="node"><title>Node458</title>
<g id="a_node37"><a xlink:href="ldebug_8c.html#ad72fa774194e83872bac4e5bf6ec1160" target="_top" xlink:title=" ">
<polygon fill="white" stroke="black" points="772.5,-190.5 772.5,-209.5 833.5,-209.5 833.5,-190.5 772.5,-190.5"/>
<text text-anchor="middle" x="803" y="-197.5" font-family="Helvetica,sans-Serif" font-size="10.00">auxgetinfo</text>
</a>
</g>
</g>
<!-- Node457&#45;&gt;Node458 -->
<g id="edge51" class="edge"><title>Node457&#45;&gt;Node458</title>
<path fill="none" stroke="midnightblue" d="M704.201,-113.897C711.309,-116.606 718.646,-119.962 725,-124 750.108,-139.958 773.623,-165.262 787.905,-182.239"/>
<polygon fill="midnightblue" stroke="midnightblue" points="785.441,-184.754 794.491,-190.264 790.852,-180.313 785.441,-184.754"/>
</g>
<!-- Node462 -->
<g id="node41" class="node"><title>Node462</title>
<g id="a_node41"><a xlink:href="ldebug_8c.html#a6e3195fc94af1f75142c2801ca8cf058" target="_top" xlink:title=" ">
<polygon fill="white" stroke="black" points="761,-95.5 761,-114.5 845,-114.5 845,-95.5 761,-95.5"/>
<text text-anchor="middle" x="803" y="-102.5" font-family="Helvetica,sans-Serif" font-size="10.00">collectvalidlines</text>
</a>
</g>
</g>
<!-- Node457&#45;&gt;Node462 -->
<g id="edge56" class="edge"><title>Node457&#45;&gt;Node462</title>
<path fill="none" stroke="midnightblue" d="M704.279,-105C718.166,-105 734.947,-105 750.655,-105"/>
<polygon fill="midnightblue" stroke="midnightblue" points="750.781,-108.5 760.781,-105 750.781,-101.5 750.781,-108.5"/>
</g>
<!-- Node458&#45;&gt;Node73 -->
<g id="edge54" class="edge"><title>Node458&#45;&gt;Node73</title>
<path fill="none" stroke="midnightblue" d="M818.375,-209.625C837.649,-222.531 872.073,-245.582 894.85,-260.833"/>
<polygon fill="midnightblue" stroke="midnightblue" points="892.985,-263.797 903.242,-266.453 896.88,-257.981 892.985,-263.797"/>
</g>
<!-- Node459 -->
<g id="node38" class="node"><title>Node459</title>
<g id="a_node38"><a xlink:href="ldebug_8c.html#a84af60873d130ffee87eb1721f3231e4" target="_top" xlink:title=" ">
<polygon fill="white" stroke="black" points="893.5,-209.5 893.5,-228.5 943.5,-228.5 943.5,-209.5 893.5,-209.5"/>
<text text-anchor="middle" x="918.5" y="-216.5" font-family="Helvetica,sans-Serif" font-size="10.00">funcinfo</text>
</a>
</g>
</g>
<!-- Node458&#45;&gt;Node459 -->
<g id="edge52" class="edge"><title>Node458&#45;&gt;Node459</title>
<path fill="none" stroke="midnightblue" d="M833.524,-204.942C848.827,-207.504 867.59,-210.645 883.496,-213.308"/>
<polygon fill="midnightblue" stroke="midnightblue" points="883.03,-216.778 893.471,-214.977 884.186,-209.874 883.03,-216.778"/>
</g>
<!-- Node460 -->
<g id="node40" class="node"><title>Node460</title>
<g id="a_node40"><a xlink:href="ldebug_8c.html#a118ab79b6b538a857353e4b9259667e1" target="_top" xlink:title=" ">
<polygon fill="white" stroke="red" points="882.5,-171.5 882.5,-190.5 954.5,-190.5 954.5,-171.5 882.5,-171.5"/>
<text text-anchor="middle" x="918.5" y="-178.5" font-family="Helvetica,sans-Serif" font-size="10.00">getfuncname</text>
</a>
</g>
</g>
<!-- Node458&#45;&gt;Node460 -->
<g id="edge55" class="edge"><title>Node458&#45;&gt;Node460</title>
<path fill="none" stroke="midnightblue" d="M833.524,-195.058C845.341,-193.079 859.222,-190.756 872.257,-188.574"/>
<polygon fill="midnightblue" stroke="midnightblue" points="873.189,-191.966 882.474,-186.863 872.033,-185.063 873.189,-191.966"/>
</g>
<!-- Node77 -->
<g id="node39" class="node"><title>Node77</title>
<g id="a_node39"><a xlink:href="lobject_8c.html#ac331b4119bbeb45a8a7e5a1afe553b2e" target="_top" xlink:title=" ">
<polygon fill="white" stroke="black" points="998.5,-199.5 998.5,-218.5 1074.5,-218.5 1074.5,-199.5 998.5,-199.5"/>
<text text-anchor="middle" x="1036.5" y="-206.5" font-family="Helvetica,sans-Serif" font-size="10.00">luaO_chunkid</text>
</a>
</g>
</g>
<!-- Node459&#45;&gt;Node77 -->
<g id="edge53" class="edge"><title>Node459&#45;&gt;Node77</title>
<path fill="none" stroke="midnightblue" d="M943.535,-216.928C956.368,-215.822 972.626,-214.42 987.891,-213.104"/>
<polygon fill="midnightblue" stroke="midnightblue" points="988.583,-216.558 998.246,-212.212 987.982,-209.583 988.583,-216.558"/>
</g>
<!-- Node396 -->
<g id="node42" class="node"><title>Node396</title>
<g id="a_node42"><a xlink:href="ltable_8c.html#a6c97fb2d6a020b0a6f852562fef93d97" target="_top" xlink:title=" ">
<polygon fill="white" stroke="red" points="889,-57.5 889,-76.5 948,-76.5 948,-57.5 889,-57.5"/>
<text text-anchor="middle" x="918.5" y="-64.5" font-family="Helvetica,sans-Serif" font-size="10.00">luaH_new</text>
</a>
</g>
</g>
<!-- Node462&#45;&gt;Node396 -->
<g id="edge57" class="edge"><title>Node462&#45;&gt;Node396</title>
<path fill="none" stroke="midnightblue" d="M832.641,-95.411C846.755,-90.6856 863.972,-84.9211 879.201,-79.8226"/>
<polygon fill="midnightblue" stroke="midnightblue" points="880.497,-83.0797 888.868,-76.5859 878.274,-76.4419 880.497,-83.0797"/>
</g>
<!-- Node171 -->
<g id="node43" class="node"><title>Node171</title>
<g id="a_node43"><a xlink:href="ltable_8c.html#a9eefa8191c63f55cffb6b7b58217467c" target="_top" xlink:title=" ">
<polygon fill="white" stroke="red" points="886,-133.5 886,-152.5 951,-152.5 951,-133.5 886,-133.5"/>
<text text-anchor="middle" x="918.5" y="-140.5" font-family="Helvetica,sans-Serif" font-size="10.00">luaH_setint</text>
</a>
</g>
</g>
<!-- Node462&#45;&gt;Node171 -->
<g id="edge58" class="edge"><title>Node462&#45;&gt;Node171</title>
<path fill="none" stroke="midnightblue" d="M832.641,-114.589C846.755,-119.314 863.972,-125.079 879.201,-130.177"/>
<polygon fill="midnightblue" stroke="midnightblue" points="878.274,-133.558 888.868,-133.414 880.497,-126.92 878.274,-133.558"/>
</g>
<!-- Node463 -->
<g id="node44" class="node"><title>Node463</title>
<g id="a_node44"><a xlink:href="ldebug_8c.html#a34dcc3fce752d518b34773a35b3763ad" target="_top" xlink:title=" ">
<polygon fill="white" stroke="black" points="893.5,-95.5 893.5,-114.5 943.5,-114.5 943.5,-95.5 893.5,-95.5"/>
<text text-anchor="middle" x="918.5" y="-102.5" font-family="Helvetica,sans-Serif" font-size="10.00">nextline</text>
</a>
</g>
</g>
<!-- Node462&#45;&gt;Node463 -->
<g id="edge59" class="edge"><title>Node462&#45;&gt;Node463</title>
<path fill="none" stroke="midnightblue" d="M845.297,-105C857.749,-105 871.275,-105 883.219,-105"/>
<polygon fill="midnightblue" stroke="midnightblue" points="883.24,-108.5 893.24,-105 883.239,-101.5 883.24,-108.5"/>
</g>
<!-- Node463&#45;&gt;Node74 -->
<g id="edge60" class="edge"><title>Node463&#45;&gt;Node74</title>
<path fill="none" stroke="midnightblue" d="M943.754,-114.302C948.282,-116.9 952.639,-120.106 956,-124 987.959,-161.029 958.798,-192.082 992,-228 993.192,-229.29 994.487,-230.496 995.86,-231.625"/>
<polygon fill="midnightblue" stroke="midnightblue" points="994.122,-234.672 1004.39,-237.268 997.983,-228.833 994.122,-234.672"/>
</g>
<!-- Node465&#45;&gt;Node94 -->
<g id="edge63" class="edge"><title>Node465&#45;&gt;Node94</title>
<path fill="none" stroke="midnightblue" d="M215.778,-532.503C228.608,-535.862 243.404,-539.438 257,-542 295.106,-549.18 339.114,-554.345 369.939,-557.461"/>
<polygon fill="midnightblue" stroke="midnightblue" points="369.966,-560.98 380.261,-558.477 370.652,-554.014 369.966,-560.98"/>
</g>
<!-- Node56 -->
<g id="node48" class="node"><title>Node56</title>
<g id="a_node48"><a xlink:href="lfunc_8c.html#ae9fcbf80b5969afd9412b9aed102f94e" target="_top" xlink:title=" ">
<polygon fill="white" stroke="black" points="261.5,-19.5 261.5,-38.5 325.5,-38.5 325.5,-19.5 261.5,-19.5"/>
<text text-anchor="middle" x="293.5" y="-26.5" font-family="Helvetica,sans-Serif" font-size="10.00">luaF_close</text>
</a>
</g>
</g>
<!-- Node466&#45;&gt;Node56 -->
<g id="edge65" class="edge"><title>Node466&#45;&gt;Node56</title>
<path fill="none" stroke="midnightblue" d="M212.195,-29C224.195,-29 238.196,-29 251.116,-29"/>
<polygon fill="midnightblue" stroke="midnightblue" points="251.186,-32.5001 261.186,-29 251.186,-25.5001 251.186,-32.5001"/>
</g>
<!-- Node57 -->
<g id="node49" class="node"><title>Node57</title>
<g id="a_node49"><a xlink:href="lfunc_8c.html#a4105c820bb9b1b4b4b3bd6613b0ccb05" target="_top" xlink:title=" ">
<polygon fill="white" stroke="red" points="374.5,-38.5 374.5,-57.5 445.5,-57.5 445.5,-38.5 374.5,-38.5"/>
<text text-anchor="middle" x="410" y="-45.5" font-family="Helvetica,sans-Serif" font-size="10.00">callclosemth</text>
</a>
</g>
</g>
<!-- Node56&#45;&gt;Node57 -->
<g id="edge66" class="edge"><title>Node56&#45;&gt;Node57</title>
<path fill="none" stroke="midnightblue" d="M325.788,-34.1918C337.595,-36.1512 351.272,-38.4208 364.084,-40.5467"/>
<polygon fill="midnightblue" stroke="midnightblue" points="363.683,-44.028 374.121,-42.2123 364.829,-37.1224 363.683,-44.028"/>
</g>
<!-- Node111 -->
<g id="node50" class="node"><title>Node111</title>
<g id="a_node50"><a xlink:href="lfunc_8c.html#a3b5a5ae122e85af5c941e9b4ffff53bd" target="_top" xlink:title=" ">
<polygon fill="white" stroke="black" points="366,-0.5 366,-19.5 454,-19.5 454,-0.5 366,-0.5"/>
<text text-anchor="middle" x="410" y="-7.5" font-family="Helvetica,sans-Serif" font-size="10.00">luaF_unlinkupval</text>
</a>
</g>
</g>
<!-- Node56&#45;&gt;Node111 -->
<g id="edge67" class="edge"><title>Node56&#45;&gt;Node111</title>
<path fill="none" stroke="midnightblue" d="M325.788,-23.8082C335.024,-22.2754 345.405,-20.5529 355.621,-18.8577"/>
<polygon fill="midnightblue" stroke="midnightblue" points="356.441,-22.2696 365.733,-17.1797 355.295,-15.364 356.441,-22.2696"/>
</g>
</g>
</svg>
