<?xml version="1.0" encoding="UTF-8" standalone="no"?>
<!DOCTYPE svg PUBLIC "-//W3C//DTD SVG 1.1//EN"
 "http://www.w3.org/Graphics/SVG/1.1/DTD/svg11.dtd">
<!-- Generated by graphviz version 2.38.0 (20140413.2041)
 -->
<!-- Title: luaB_ipairs Pages: 1 -->
<svg width="1406pt" height="1067pt"
 viewBox="0.00 0.00 1406.00 1067.03" xmlns="http://www.w3.org/2000/svg" xmlns:xlink="http://www.w3.org/1999/xlink">
<g id="graph0" class="graph" transform="scale(1 1) rotate(0) translate(4 1063.03)">
<title>luaB_ipairs</title>
<polygon fill="white" stroke="none" points="-4,4 -4,-1063.03 1402,-1063.03 1402,4 -4,4"/>
<!-- Node1 -->
<g id="node1" class="node"><title>Node1</title>
<g id="a_node1"><a xlink:title=" ">
<polygon fill="#bfbfbf" stroke="black" points="0,-526.525 0,-545.525 65,-545.525 65,-526.525 0,-526.525"/>
<text text-anchor="middle" x="32.5" y="-533.525" font-family="Helvetica,sans-Serif" font-size="10.00">luaB_ipairs</text>
</a>
</g>
</g>
<!-- Node2 -->
<g id="node2" class="node"><title>Node2</title>
<g id="a_node2"><a xlink:href="lbaselib_8c.html#a9e49fcec5e66e36e817b1951123efc03" target="_top" xlink:title=" ">
<polygon fill="white" stroke="black" points="111.5,-507.525 111.5,-526.525 167.5,-526.525 167.5,-507.525 111.5,-507.525"/>
<text text-anchor="middle" x="139.5" y="-514.525" font-family="Helvetica,sans-Serif" font-size="10.00">ipairsaux</text>
</a>
</g>
</g>
<!-- Node1&#45;&gt;Node2 -->
<g id="edge1" class="edge"><title>Node1&#45;&gt;Node2</title>
<path fill="none" stroke="midnightblue" d="M65.0035,-530.324C76.4034,-528.262 89.3847,-525.913 101.233,-523.769"/>
<polygon fill="midnightblue" stroke="midnightblue" points="102.068,-527.174 111.285,-521.95 100.821,-520.286 102.068,-527.174"/>
</g>
<!-- Node447 -->
<g id="node23" class="node"><title>Node447</title>
<g id="a_node23"><a xlink:href="lapi_8c.html#adcec46ff05dfee9a3c4c05828b40c213" target="_top" xlink:title=" ">
<polygon fill="white" stroke="black" points="219,-545.525 219,-564.525 304,-564.525 304,-545.525 219,-545.525"/>
<text text-anchor="middle" x="261.5" y="-552.525" font-family="Helvetica,sans-Serif" font-size="10.00">lua_pushinteger</text>
</a>
</g>
</g>
<!-- Node1&#45;&gt;Node447 -->
<g id="edge67" class="edge"><title>Node1&#45;&gt;Node447</title>
<path fill="none" stroke="midnightblue" d="M65.0634,-538.667C102.247,-541.779 164.552,-546.994 208.813,-550.699"/>
<polygon fill="midnightblue" stroke="midnightblue" points="208.55,-554.189 218.807,-551.535 209.134,-547.213 208.55,-554.189"/>
</g>
<!-- Node489 -->
<g id="node49" class="node"><title>Node489</title>
<g id="a_node49"><a xlink:href="lapi_8c.html#a602f61a9b583d69dc1c72c8970bd65e8" target="_top" xlink:title=" ">
<polygon fill="white" stroke="black" points="101,-583.525 101,-602.525 178,-602.525 178,-583.525 101,-583.525"/>
<text text-anchor="middle" x="139.5" y="-590.525" font-family="Helvetica,sans-Serif" font-size="10.00">lua_pushvalue</text>
</a>
</g>
</g>
<!-- Node1&#45;&gt;Node489 -->
<g id="edge68" class="edge"><title>Node1&#45;&gt;Node489</title>
<path fill="none" stroke="midnightblue" d="M51.3118,-545.694C67.9295,-554.715 92.9398,-568.292 111.918,-578.595"/>
<polygon fill="midnightblue" stroke="midnightblue" points="110.493,-581.804 120.951,-583.499 113.833,-575.652 110.493,-581.804"/>
</g>
<!-- Node490 -->
<g id="node50" class="node"><title>Node490</title>
<g id="a_node50"><a xlink:href="lauxlib_8c.html#a8ebfe706b773eaaf50283e6583d4642e" target="_top" xlink:title=" ">
<polygon fill="white" stroke="black" points="568,-255.525 568,-274.525 650,-274.525 650,-255.525 568,-255.525"/>
<text text-anchor="middle" x="609" y="-262.525" font-family="Helvetica,sans-Serif" font-size="10.00">luaL_checkany</text>
</a>
</g>
</g>
<!-- Node1&#45;&gt;Node490 -->
<g id="edge70" class="edge"><title>Node1&#45;&gt;Node490</title>
<path fill="none" stroke="midnightblue" d="M36.3703,-526.242C51.1105,-478.253 122.991,-270.025 260.5,-270.025 260.5,-270.025 260.5,-270.025 384.5,-270.025 443.912,-270.025 512.185,-268.237 557.479,-266.8"/>
<polygon fill="midnightblue" stroke="midnightblue" points="557.749,-270.293 567.63,-266.471 557.522,-263.297 557.749,-270.293"/>
</g>
<!-- Node3 -->
<g id="node3" class="node"><title>Node3</title>
<g id="a_node3"><a xlink:href="lapi_8c.html#a631ebda324b6a0f382ab6b9314917384" target="_top" xlink:title=" ">
<polygon fill="white" stroke="black" points="584,-545.525 584,-564.525 634,-564.525 634,-545.525 584,-545.525"/>
<text text-anchor="middle" x="609" y="-552.525" font-family="Helvetica,sans-Serif" font-size="10.00">lua_geti</text>
</a>
</g>
</g>
<!-- Node2&#45;&gt;Node3 -->
<g id="edge2" class="edge"><title>Node2&#45;&gt;Node3</title>
<path fill="none" stroke="midnightblue" d="M167.655,-519.232C248.085,-525.77 484.98,-545.026 573.825,-552.247"/>
<polygon fill="midnightblue" stroke="midnightblue" points="573.654,-555.745 583.905,-553.066 574.221,-548.768 573.654,-555.745"/>
</g>
<!-- Node2&#45;&gt;Node447 -->
<g id="edge27" class="edge"><title>Node2&#45;&gt;Node447</title>
<path fill="none" stroke="midnightblue" d="M167.73,-525.648C183.337,-530.59 203.212,-536.884 220.559,-542.377"/>
<polygon fill="midnightblue" stroke="midnightblue" points="219.839,-545.82 230.429,-545.503 221.953,-539.147 219.839,-545.82"/>
</g>
<!-- Node448 -->
<g id="node24" class="node"><title>Node448</title>
<g id="a_node24"><a xlink:href="lauxlib_8c.html#aa15bea412c49bfdee1f3dbff096ce7d2" target="_top" xlink:title=" ">
<polygon fill="white" stroke="black" points="214,-469.525 214,-488.525 309,-488.525 309,-469.525 214,-469.525"/>
<text text-anchor="middle" x="261.5" y="-476.525" font-family="Helvetica,sans-Serif" font-size="10.00">luaL_checkinteger</text>
</a>
</g>
</g>
<!-- Node2&#45;&gt;Node448 -->
<g id="edge28" class="edge"><title>Node2&#45;&gt;Node448</title>
<path fill="none" stroke="midnightblue" d="M167.73,-508.402C183.337,-503.46 203.212,-497.166 220.559,-491.673"/>
<polygon fill="midnightblue" stroke="midnightblue" points="221.953,-494.903 230.429,-488.547 219.839,-488.23 221.953,-494.903"/>
</g>
<!-- Node4 -->
<g id="node4" class="node"><title>Node4</title>
<g id="a_node4"><a xlink:href="lapi_8c.html#a7c66797ff8396fc9258bb9fc08e959d8" target="_top" xlink:title=" ">
<polygon fill="white" stroke="black" points="1210,-469.525 1210,-488.525 1277,-488.525 1277,-469.525 1210,-469.525"/>
<text text-anchor="middle" x="1243.5" y="-476.525" font-family="Helvetica,sans-Serif" font-size="10.00">index2value</text>
</a>
</g>
</g>
<!-- Node3&#45;&gt;Node4 -->
<g id="edge3" class="edge"><title>Node3&#45;&gt;Node4</title>
<path fill="none" stroke="midnightblue" d="M634.237,-555.025C677.612,-555.025 771.377,-555.025 850.5,-555.025 850.5,-555.025 850.5,-555.025 988.5,-555.025 1067.23,-555.025 1090.33,-558.794 1164,-531.025 1186.12,-522.686 1208.3,-507.174 1223.41,-495.255"/>
<polygon fill="midnightblue" stroke="midnightblue" points="1225.89,-497.755 1231.44,-488.733 1221.47,-492.322 1225.89,-497.755"/>
</g>
<!-- Node5 -->
<g id="node5" class="node"><title>Node5</title>
<g id="a_node5"><a xlink:href="lvm_8c.html#a45c30a70c51ed843f58bd446aa2096c9" target="_top" xlink:title=" ">
<polygon fill="white" stroke="black" points="686,-782.525 686,-801.525 763,-801.525 763,-782.525 686,-782.525"/>
<text text-anchor="middle" x="724.5" y="-789.525" font-family="Helvetica,sans-Serif" font-size="10.00">luaV_finishget</text>
</a>
</g>
</g>
<!-- Node3&#45;&gt;Node5 -->
<g id="edge4" class="edge"><title>Node3&#45;&gt;Node5</title>
<path fill="none" stroke="midnightblue" d="M614.59,-564.609C631.629,-600.189 691.452,-725.105 714.423,-773.072"/>
<polygon fill="midnightblue" stroke="midnightblue" points="711.377,-774.814 718.853,-782.322 717.69,-771.791 711.377,-774.814"/>
</g>
<!-- Node6 -->
<g id="node6" class="node"><title>Node6</title>
<g id="a_node6"><a xlink:href="ldebug_8c.html#a88d38ca5da2e7a1492fc9d5ad70c32c5" target="_top" xlink:title=" ">
<polygon fill="white" stroke="black" points="950,-659.525 950,-678.525 1025,-678.525 1025,-659.525 950,-659.525"/>
<text text-anchor="middle" x="987.5" y="-666.525" font-family="Helvetica,sans-Serif" font-size="10.00">luaG_runerror</text>
</a>
</g>
</g>
<!-- Node5&#45;&gt;Node6 -->
<g id="edge5" class="edge"><title>Node5&#45;&gt;Node6</title>
<path fill="none" stroke="midnightblue" d="M735.699,-782.366C749.24,-769.972 774.329,-748.472 799,-735.025 844.339,-710.312 900.733,-691.941 939.77,-680.94"/>
<polygon fill="midnightblue" stroke="midnightblue" points="941.092,-684.206 949.799,-678.169 939.228,-677.459 941.092,-684.206"/>
</g>
<!-- Node89 -->
<g id="node12" class="node"><title>Node89</title>
<g id="a_node12"><a xlink:href="ldebug_8c.html#a60bf9ce85441bd5065f2b73640163711" target="_top" xlink:title=" ">
<polygon fill="white" stroke="black" points="811.5,-744.525 811.5,-763.525 891.5,-763.525 891.5,-744.525 811.5,-744.525"/>
<text text-anchor="middle" x="851.5" y="-751.525" font-family="Helvetica,sans-Serif" font-size="10.00">luaG_typeerror</text>
</a>
</g>
</g>
<!-- Node5&#45;&gt;Node89 -->
<g id="edge12" class="edge"><title>Node5&#45;&gt;Node89</title>
<path fill="none" stroke="midnightblue" d="M757.043,-782.436C772.883,-777.621 792.273,-771.726 809.276,-766.557"/>
<polygon fill="midnightblue" stroke="midnightblue" points="810.418,-769.868 818.967,-763.611 808.382,-763.171 810.418,-769.868"/>
</g>
<!-- Node143 -->
<g id="node16" class="node"><title>Node143</title>
<g id="a_node16"><a xlink:href="ltable_8c.html#a8b4fce00d7db27ee9caac3d49863dea3" target="_top" xlink:title=" ">
<polygon fill="white" stroke="black" points="824,-963.525 824,-982.525 879,-982.525 879,-963.525 824,-963.525"/>
<text text-anchor="middle" x="851.5" y="-970.525" font-family="Helvetica,sans-Serif" font-size="10.00">luaH_get</text>
</a>
</g>
</g>
<!-- Node5&#45;&gt;Node143 -->
<g id="edge17" class="edge"><title>Node5&#45;&gt;Node143</title>
<path fill="none" stroke="midnightblue" d="M732.221,-801.756C752.229,-830.729 811.642,-916.759 837.844,-954.7"/>
<polygon fill="midnightblue" stroke="midnightblue" points="835.184,-957.006 843.746,-963.246 840.944,-953.028 835.184,-957.006"/>
</g>
<!-- Node378 -->
<g id="node20" class="node"><title>Node378</title>
<g id="a_node20"><a xlink:href="ltm_8c.html#aad98f3a425ba53e65e7a8f8037320402" target="_top" xlink:title=" ">
<polygon fill="white" stroke="black" points="810.5,-849.525 810.5,-868.525 892.5,-868.525 892.5,-849.525 810.5,-849.525"/>
<text text-anchor="middle" x="851.5" y="-856.525" font-family="Helvetica,sans-Serif" font-size="10.00">luaT_callTMres</text>
</a>
</g>
</g>
<!-- Node5&#45;&gt;Node378 -->
<g id="edge22" class="edge"><title>Node5&#45;&gt;Node378</title>
<path fill="none" stroke="midnightblue" d="M743.409,-801.625C764.387,-812.869 799.35,-831.608 823.593,-844.603"/>
<polygon fill="midnightblue" stroke="midnightblue" points="822.157,-847.804 832.624,-849.443 825.463,-841.634 822.157,-847.804"/>
</g>
<!-- Node80 -->
<g id="node22" class="node"><title>Node80</title>
<g id="a_node22"><a xlink:href="ltm_8c.html#a0a3a3df9d6e7f17d806f74d411e59b2d" target="_top" xlink:title=" ">
<polygon fill="white" stroke="black" points="807.5,-792.525 807.5,-811.525 895.5,-811.525 895.5,-792.525 807.5,-792.525"/>
<text text-anchor="middle" x="851.5" y="-799.525" font-family="Helvetica,sans-Serif" font-size="10.00">luaT_gettmbyobj</text>
</a>
</g>
</g>
<!-- Node5&#45;&gt;Node80 -->
<g id="edge25" class="edge"><title>Node5&#45;&gt;Node80</title>
<path fill="none" stroke="midnightblue" d="M763.004,-795.025C773.794,-795.889 785.775,-796.847 797.321,-797.771"/>
<polygon fill="midnightblue" stroke="midnightblue" points="797.068,-801.262 807.315,-798.57 797.626,-794.284 797.068,-801.262"/>
</g>
<!-- Node7 -->
<g id="node7" class="node"><title>Node7</title>
<g id="a_node7"><a xlink:href="ldebug_8c.html#ad6bc24d619df8e849e2ae8b00455d86f" target="_top" xlink:title=" ">
<polygon fill="white" stroke="red" points="1323,-383.525 1323,-402.525 1398,-402.525 1398,-383.525 1323,-383.525"/>
<text text-anchor="middle" x="1360.5" y="-390.525" font-family="Helvetica,sans-Serif" font-size="10.00">getcurrentline</text>
</a>
</g>
</g>
<!-- Node6&#45;&gt;Node7 -->
<g id="edge6" class="edge"><title>Node6&#45;&gt;Node7</title>
<path fill="none" stroke="midnightblue" d="M1009.42,-678.559C1043.89,-692.742 1113.78,-714.991 1164,-688.025 1277.68,-626.987 1336.41,-467.58 1353.84,-412.264"/>
<polygon fill="midnightblue" stroke="midnightblue" points="1357.21,-413.235 1356.78,-402.649 1350.51,-411.188 1357.21,-413.235"/>
</g>
<!-- Node11 -->
<g id="node8" class="node"><title>Node11</title>
<g id="a_node8"><a xlink:href="ldebug_8c.html#a7e1dc7518150bf19bd9aa5dda166a2eb" target="_top" xlink:title=" ">
<polygon fill="white" stroke="red" points="1081,-659.525 1081,-678.525 1154,-678.525 1154,-659.525 1081,-659.525"/>
<text text-anchor="middle" x="1117.5" y="-666.525" font-family="Helvetica,sans-Serif" font-size="10.00">luaG_addinfo</text>
</a>
</g>
</g>
<!-- Node6&#45;&gt;Node11 -->
<g id="edge7" class="edge"><title>Node6&#45;&gt;Node11</title>
<path fill="none" stroke="midnightblue" d="M1025.18,-669.025C1039.35,-669.025 1055.71,-669.025 1070.64,-669.025"/>
<polygon fill="midnightblue" stroke="midnightblue" points="1070.7,-672.525 1080.7,-669.025 1070.7,-665.525 1070.7,-672.525"/>
</g>
<!-- Node446 -->
<g id="node9" class="node"><title>Node446</title>
<g id="a_node9"><a xlink:href="ldebug_8c.html#af7366920f8408bb33ed01b1d6c0e1238" target="_top" xlink:title=" ">
<polygon fill="white" stroke="red" points="1077.5,-735.525 1077.5,-754.525 1157.5,-754.525 1157.5,-735.525 1077.5,-735.525"/>
<text text-anchor="middle" x="1117.5" y="-742.525" font-family="Helvetica,sans-Serif" font-size="10.00">luaG_errormsg</text>
</a>
</g>
</g>
<!-- Node6&#45;&gt;Node446 -->
<g id="edge8" class="edge"><title>Node6&#45;&gt;Node446</title>
<path fill="none" stroke="midnightblue" d="M1016.35,-678.527C1022.69,-681.197 1029.25,-684.383 1035,-688.025 1053.33,-699.645 1053.26,-708.526 1071,-721.025 1075.75,-724.368 1081.02,-727.561 1086.24,-730.464"/>
<polygon fill="midnightblue" stroke="midnightblue" points="1084.98,-733.76 1095.46,-735.346 1088.26,-727.574 1084.98,-733.76"/>
</g>
<!-- Node14 -->
<g id="node11" class="node"><title>Node14</title>
<g id="a_node11"><a xlink:href="lobject_8c.html#aa83fa444a36d79521e846a766fa083d5" target="_top" xlink:title=" ">
<polygon fill="white" stroke="red" points="1071,-621.525 1071,-640.525 1164,-640.525 1164,-621.525 1071,-621.525"/>
<text text-anchor="middle" x="1117.5" y="-628.525" font-family="Helvetica,sans-Serif" font-size="10.00">luaO_pushvfstring</text>
</a>
</g>
</g>
<!-- Node6&#45;&gt;Node14 -->
<g id="edge10" class="edge"><title>Node6&#45;&gt;Node14</title>
<path fill="none" stroke="midnightblue" d="M1004.97,-659.433C1019.25,-653.608 1040.75,-646.56 1061.07,-640.784"/>
<polygon fill="midnightblue" stroke="midnightblue" points="1062.21,-644.1 1070.92,-638.061 1060.35,-637.353 1062.21,-644.1"/>
</g>
<!-- Node65 -->
<g id="node10" class="node"><title>Node65</title>
<g id="a_node10"><a xlink:href="ldo_8c.html#a61c0a0185ef5ae1493dad10027f4db7e" target="_top" xlink:title=" ">
<polygon fill="white" stroke="red" points="1200,-830.525 1200,-849.525 1287,-849.525 1287,-830.525 1200,-830.525"/>
<text text-anchor="middle" x="1243.5" y="-837.525" font-family="Helvetica,sans-Serif" font-size="10.00">luaD_callnoyield</text>
</a>
</g>
</g>
<!-- Node446&#45;&gt;Node65 -->
<g id="edge9" class="edge"><title>Node446&#45;&gt;Node65</title>
<path fill="none" stroke="midnightblue" d="M1131.3,-754.834C1152.76,-771.274 1196.17,-804.528 1221.94,-824.276"/>
<polygon fill="midnightblue" stroke="midnightblue" points="1219.88,-827.108 1229.95,-830.411 1224.14,-821.551 1219.88,-827.108"/>
</g>
<!-- Node14&#45;&gt;Node6 -->
<g id="edge11" class="edge"><title>Node14&#45;&gt;Node6</title>
<path fill="none" stroke="midnightblue" d="M1100.01,-640.625C1083.62,-647.31 1057.73,-655.604 1035.01,-661.737"/>
<polygon fill="midnightblue" stroke="midnightblue" points="1033.97,-658.392 1025.18,-664.306 1035.74,-665.165 1033.97,-658.392"/>
</g>
<!-- Node89&#45;&gt;Node6 -->
<g id="edge13" class="edge"><title>Node89&#45;&gt;Node6</title>
<path fill="none" stroke="midnightblue" d="M863.184,-744.505C879.064,-730.707 910.227,-704.956 940,-688.025 943.302,-686.147 946.827,-684.358 950.403,-682.682"/>
<polygon fill="midnightblue" stroke="midnightblue" points="952.121,-685.75 959.872,-678.526 949.308,-679.341 952.121,-685.75"/>
</g>
<!-- Node90 -->
<g id="node13" class="node"><title>Node90</title>
<g id="a_node13"><a xlink:href="ltm_8c.html#a6774390baf68edcb78194d0e0f8546ab" target="_top" xlink:title=" ">
<polygon fill="white" stroke="red" points="940,-773.525 940,-792.525 1035,-792.525 1035,-773.525 940,-773.525"/>
<text text-anchor="middle" x="987.5" y="-780.525" font-family="Helvetica,sans-Serif" font-size="10.00">luaT_objtypename</text>
</a>
</g>
</g>
<!-- Node89&#45;&gt;Node90 -->
<g id="edge14" class="edge"><title>Node89&#45;&gt;Node90</title>
<path fill="none" stroke="midnightblue" d="M891.619,-762.491C904.424,-765.262 918.883,-768.392 932.583,-771.356"/>
<polygon fill="midnightblue" stroke="midnightblue" points="931.876,-774.784 942.39,-773.479 933.357,-767.943 931.876,-774.784"/>
</g>
<!-- Node92 -->
<g id="node15" class="node"><title>Node92</title>
<g id="a_node15"><a xlink:href="ldebug_8c.html#a86692faa1669d631d38c24993d511dd5" target="_top" xlink:title=" ">
<polygon fill="white" stroke="red" points="965.5,-735.525 965.5,-754.525 1009.5,-754.525 1009.5,-735.525 965.5,-735.525"/>
<text text-anchor="middle" x="987.5" y="-742.525" font-family="Helvetica,sans-Serif" font-size="10.00">varinfo</text>
</a>
</g>
</g>
<!-- Node89&#45;&gt;Node92 -->
<g id="edge16" class="edge"><title>Node89&#45;&gt;Node92</title>
<path fill="none" stroke="midnightblue" d="M891.619,-751.398C911.86,-750.038 936.235,-748.401 955.21,-747.127"/>
<polygon fill="midnightblue" stroke="midnightblue" points="955.668,-750.604 965.41,-746.441 955.198,-743.62 955.668,-750.604"/>
</g>
<!-- Node81 -->
<g id="node14" class="node"><title>Node81</title>
<g id="a_node14"><a xlink:href="ltable_8c.html#ae8a52507e1c8966d9cf3f2dd5a0c325f" target="_top" xlink:title=" ">
<polygon fill="white" stroke="black" points="1073.5,-811.525 1073.5,-830.525 1161.5,-830.525 1161.5,-811.525 1073.5,-811.525"/>
<text text-anchor="middle" x="1117.5" y="-818.525" font-family="Helvetica,sans-Serif" font-size="10.00">luaH_getshortstr</text>
</a>
</g>
</g>
<!-- Node90&#45;&gt;Node81 -->
<g id="edge15" class="edge"><title>Node90&#45;&gt;Node81</title>
<path fill="none" stroke="midnightblue" d="M1020.8,-792.614C1037.02,-797.429 1056.88,-803.324 1074.29,-808.493"/>
<polygon fill="midnightblue" stroke="midnightblue" points="1073.63,-811.948 1084.21,-811.439 1075.62,-805.238 1073.63,-811.948"/>
</g>
<!-- Node143&#45;&gt;Node81 -->
<g id="edge20" class="edge"><title>Node143&#45;&gt;Node81</title>
<path fill="none" stroke="midnightblue" d="M872.955,-963.459C907.212,-947.201 978.038,-912.568 1035,-878.025 1056.3,-865.107 1079.48,-848.645 1095.65,-836.736"/>
<polygon fill="midnightblue" stroke="midnightblue" points="1097.92,-839.413 1103.86,-830.64 1093.75,-833.793 1097.92,-839.413"/>
</g>
<!-- Node144 -->
<g id="node17" class="node"><title>Node144</title>
<g id="a_node17"><a xlink:href="ltable_8c.html#a9170d329b0dd746ca9b15db8c22a2127" target="_top" xlink:title=" ">
<polygon fill="white" stroke="red" points="956.5,-1001.53 956.5,-1020.53 1018.5,-1020.53 1018.5,-1001.53 956.5,-1001.53"/>
<text text-anchor="middle" x="987.5" y="-1008.53" font-family="Helvetica,sans-Serif" font-size="10.00">getgeneric</text>
</a>
</g>
</g>
<!-- Node143&#45;&gt;Node144 -->
<g id="edge18" class="edge"><title>Node143&#45;&gt;Node144</title>
<path fill="none" stroke="midnightblue" d="M879.295,-980.624C898.635,-986.108 925.067,-993.604 946.846,-999.78"/>
<polygon fill="midnightblue" stroke="midnightblue" points="945.907,-1003.15 956.483,-1002.51 947.817,-996.417 945.907,-1003.15"/>
</g>
<!-- Node152 -->
<g id="node18" class="node"><title>Node152</title>
<g id="a_node18"><a xlink:href="ltable_8c.html#ae142cefd44452389877c3e3187c7973e" target="_top" xlink:title=" ">
<polygon fill="white" stroke="red" points="955,-963.525 955,-982.525 1020,-982.525 1020,-963.525 955,-963.525"/>
<text text-anchor="middle" x="987.5" y="-970.525" font-family="Helvetica,sans-Serif" font-size="10.00">luaH_getint</text>
</a>
</g>
</g>
<!-- Node143&#45;&gt;Node152 -->
<g id="edge19" class="edge"><title>Node143&#45;&gt;Node152</title>
<path fill="none" stroke="midnightblue" d="M879.295,-973.025C897.935,-973.025 923.165,-973.025 944.465,-973.025"/>
<polygon fill="midnightblue" stroke="midnightblue" points="944.561,-976.525 954.561,-973.025 944.561,-969.525 944.561,-976.525"/>
</g>
<!-- Node114 -->
<g id="node19" class="node"><title>Node114</title>
<g id="a_node19"><a xlink:href="lvm_8c.html#a3a9a9378ccdbd0ea4cba6555673dccf9" target="_top" xlink:title=" ">
<polygon fill="white" stroke="black" points="944.5,-1039.53 944.5,-1058.53 1030.5,-1058.53 1030.5,-1039.53 944.5,-1039.53"/>
<text text-anchor="middle" x="987.5" y="-1046.53" font-family="Helvetica,sans-Serif" font-size="10.00">luaV_flttointeger</text>
</a>
</g>
</g>
<!-- Node143&#45;&gt;Node114 -->
<g id="edge21" class="edge"><title>Node143&#45;&gt;Node114</title>
<path fill="none" stroke="midnightblue" d="M865.658,-982.734C882.375,-994.797 912.379,-1015.55 940,-1030.03 943.549,-1031.88 947.321,-1033.69 951.122,-1035.4"/>
<polygon fill="midnightblue" stroke="midnightblue" points="949.951,-1038.7 960.521,-1039.42 952.708,-1032.27 949.951,-1038.7"/>
</g>
<!-- Node378&#45;&gt;Node65 -->
<g id="edge24" class="edge"><title>Node378&#45;&gt;Node65</title>
<path fill="none" stroke="midnightblue" d="M887.978,-868.534C903.777,-872.298 922.689,-876.167 940,-878.025 1032.04,-887.903 1139.5,-866.551 1198.35,-852.028"/>
<polygon fill="midnightblue" stroke="midnightblue" points="1199.23,-855.418 1208.07,-849.584 1197.52,-848.63 1199.23,-855.418"/>
</g>
<!-- Node379 -->
<g id="node21" class="node"><title>Node379</title>
<g id="a_node21"><a xlink:href="ldo_8c.html#a5483fddd87ca999e7d037bf397ab7997" target="_top" xlink:title=" ">
<polygon fill="white" stroke="red" points="959.5,-849.525 959.5,-868.525 1015.5,-868.525 1015.5,-849.525 959.5,-849.525"/>
<text text-anchor="middle" x="987.5" y="-856.525" font-family="Helvetica,sans-Serif" font-size="10.00">luaD_call</text>
</a>
</g>
</g>
<!-- Node378&#45;&gt;Node379 -->
<g id="edge23" class="edge"><title>Node378&#45;&gt;Node379</title>
<path fill="none" stroke="midnightblue" d="M892.704,-859.025C910.58,-859.025 931.502,-859.025 949.045,-859.025"/>
<polygon fill="midnightblue" stroke="midnightblue" points="949.474,-862.525 959.474,-859.025 949.474,-855.525 949.474,-862.525"/>
</g>
<!-- Node80&#45;&gt;Node81 -->
<g id="edge26" class="edge"><title>Node80&#45;&gt;Node81</title>
<path fill="none" stroke="midnightblue" d="M895.504,-805.12C941.2,-808.409 1013.53,-813.614 1062.91,-817.168"/>
<polygon fill="midnightblue" stroke="midnightblue" points="1062.85,-820.673 1073.08,-817.9 1063.35,-813.691 1062.85,-820.673"/>
</g>
<!-- Node449 -->
<g id="node25" class="node"><title>Node449</title>
<g id="a_node25"><a xlink:href="lauxlib_8c.html#ac900510f548ea0ea6d53358d2aedd100" target="_top" xlink:title=" ">
<polygon fill="white" stroke="black" points="360,-450.525 360,-469.525 407,-469.525 407,-450.525 360,-450.525"/>
<text text-anchor="middle" x="383.5" y="-457.525" font-family="Helvetica,sans-Serif" font-size="10.00">interror</text>
</a>
</g>
</g>
<!-- Node448&#45;&gt;Node449 -->
<g id="edge29" class="edge"><title>Node448&#45;&gt;Node449</title>
<path fill="none" stroke="midnightblue" d="M309.239,-471.625C322.812,-469.476 337.338,-467.176 349.847,-465.195"/>
<polygon fill="midnightblue" stroke="midnightblue" points="350.485,-468.638 359.814,-463.617 349.39,-461.724 350.485,-468.638"/>
</g>
<!-- Node488 -->
<g id="node48" class="node"><title>Node488</title>
<g id="a_node48"><a xlink:href="lapi_8c.html#af81c9a68425546e1f8c6354728c95170" target="_top" xlink:title=" ">
<polygon fill="white" stroke="black" points="345,-488.525 345,-507.525 422,-507.525 422,-488.525 345,-488.525"/>
<text text-anchor="middle" x="383.5" y="-495.525" font-family="Helvetica,sans-Serif" font-size="10.00">lua_tointegerx</text>
</a>
</g>
</g>
<!-- Node448&#45;&gt;Node488 -->
<g id="edge65" class="edge"><title>Node448&#45;&gt;Node488</title>
<path fill="none" stroke="midnightblue" d="M309.239,-486.425C317.66,-487.759 326.449,-489.15 334.894,-490.487"/>
<polygon fill="midnightblue" stroke="midnightblue" points="334.554,-493.977 344.979,-492.084 335.649,-487.063 334.554,-493.977"/>
</g>
<!-- Node450 -->
<g id="node26" class="node"><title>Node450</title>
<g id="a_node26"><a xlink:href="lapi_8c.html#a99451f234bf085c9c46c3d17a5aef905" target="_top" xlink:title=" ">
<polygon fill="white" stroke="black" points="458,-469.525 458,-488.525 532,-488.525 532,-469.525 458,-469.525"/>
<text text-anchor="middle" x="495" y="-476.525" font-family="Helvetica,sans-Serif" font-size="10.00">lua_isnumber</text>
</a>
</g>
</g>
<!-- Node449&#45;&gt;Node450 -->
<g id="edge30" class="edge"><title>Node449&#45;&gt;Node450</title>
<path fill="none" stroke="midnightblue" d="M407.188,-463.962C418.984,-466.009 433.845,-468.587 447.921,-471.03"/>
<polygon fill="midnightblue" stroke="midnightblue" points="447.526,-474.513 457.977,-472.775 448.723,-467.616 447.526,-474.513"/>
</g>
<!-- Node451 -->
<g id="node27" class="node"><title>Node451</title>
<g id="a_node27"><a xlink:href="lauxlib_8c.html#ac607576dd107a3120cd51948989f1ed2" target="_top" xlink:title=" ">
<polygon fill="white" stroke="black" points="688,-255.525 688,-274.525 761,-274.525 761,-255.525 688,-255.525"/>
<text text-anchor="middle" x="724.5" y="-262.525" font-family="Helvetica,sans-Serif" font-size="10.00">luaL_argerror</text>
</a>
</g>
</g>
<!-- Node449&#45;&gt;Node451 -->
<g id="edge32" class="edge"><title>Node449&#45;&gt;Node451</title>
<path fill="none" stroke="midnightblue" d="M401.311,-450.355C456.321,-418.712 631.224,-318.104 697.608,-279.919"/>
<polygon fill="midnightblue" stroke="midnightblue" points="699.664,-282.774 706.587,-274.753 696.174,-276.706 699.664,-282.774"/>
</g>
<!-- Node481 -->
<g id="node45" class="node"><title>Node481</title>
<g id="a_node45"><a xlink:href="lauxlib_8c.html#ab8e946260debec8d4bbc714b76a1613b" target="_top" xlink:title=" ">
<polygon fill="white" stroke="black" points="467.5,-431.525 467.5,-450.525 522.5,-450.525 522.5,-431.525 467.5,-431.525"/>
<text text-anchor="middle" x="495" y="-438.525" font-family="Helvetica,sans-Serif" font-size="10.00">tag_error</text>
</a>
</g>
</g>
<!-- Node449&#45;&gt;Node481 -->
<g id="edge60" class="edge"><title>Node449&#45;&gt;Node481</title>
<path fill="none" stroke="midnightblue" d="M407.188,-456.088C421.714,-453.568 440.888,-450.241 457.521,-447.355"/>
<polygon fill="midnightblue" stroke="midnightblue" points="458.23,-450.784 467.484,-445.626 457.033,-443.887 458.23,-450.784"/>
</g>
<!-- Node450&#45;&gt;Node4 -->
<g id="edge31" class="edge"><title>Node450&#45;&gt;Node4</title>
<path fill="none" stroke="midnightblue" d="M532.249,-479.025C577.143,-479.025 655.961,-479.025 723.5,-479.025 723.5,-479.025 723.5,-479.025 988.5,-479.025 1062.6,-479.025 1148.87,-479.025 1199.4,-479.025"/>
<polygon fill="midnightblue" stroke="midnightblue" points="1199.62,-482.525 1209.62,-479.025 1199.62,-475.525 1199.62,-482.525"/>
</g>
<!-- Node452 -->
<g id="node28" class="node"><title>Node452</title>
<g id="a_node28"><a xlink:href="ldebug_8c.html#acaafc35d8e385c4d167229486165df6d" target="_top" xlink:title=" ">
<polygon fill="white" stroke="black" points="1086,-70.525 1086,-89.525 1149,-89.525 1149,-70.525 1086,-70.525"/>
<text text-anchor="middle" x="1117.5" y="-77.525" font-family="Helvetica,sans-Serif" font-size="10.00">lua_getinfo</text>
</a>
</g>
</g>
<!-- Node451&#45;&gt;Node452 -->
<g id="edge33" class="edge"><title>Node451&#45;&gt;Node452</title>
<path fill="none" stroke="midnightblue" d="M730.864,-255.284C751.733,-218.541 831.754,-88.0987 940,-42.025 978.849,-25.4892 993.778,-32.8873 1035,-42.025 1055.32,-46.5298 1076.58,-56.6496 1092.29,-65.3138"/>
<polygon fill="midnightblue" stroke="midnightblue" points="1090.88,-68.5371 1101.3,-70.4572 1094.35,-62.4586 1090.88,-68.5371"/>
</g>
<!-- Node459 -->
<g id="node31" class="node"><title>Node459</title>
<g id="a_node31"><a xlink:href="ldebug_8c.html#ac1fc03c27ee46caa4037df2d70f22110" target="_top" xlink:title=" ">
<polygon fill="white" stroke="black" points="1081.5,-3.52504 1081.5,-22.525 1153.5,-22.525 1153.5,-3.52504 1081.5,-3.52504"/>
<text text-anchor="middle" x="1117.5" y="-10.525" font-family="Helvetica,sans-Serif" font-size="10.00">lua_getstack</text>
</a>
</g>
</g>
<!-- Node451&#45;&gt;Node459 -->
<g id="edge37" class="edge"><title>Node451&#45;&gt;Node459</title>
<path fill="none" stroke="midnightblue" d="M725.772,-255.404C727.258,-222.292 736.867,-112.107 799,-58.025 875.39,8.46617 1003.53,3.18346 1071.31,-5.44334"/>
<polygon fill="midnightblue" stroke="midnightblue" points="1070.87,-8.91642 1081.25,-6.78909 1071.81,-1.97965 1070.87,-8.91642"/>
</g>
<!-- Node460 -->
<g id="node32" class="node"><title>Node460</title>
<g id="a_node32"><a xlink:href="lauxlib_8c.html#a6c51d83d29244779392551388913e08a" target="_top" xlink:title=" ">
<polygon fill="white" stroke="black" points="822,-431.525 822,-450.525 881,-450.525 881,-431.525 822,-431.525"/>
<text text-anchor="middle" x="851.5" y="-438.525" font-family="Helvetica,sans-Serif" font-size="10.00">luaL_error</text>
</a>
</g>
</g>
<!-- Node451&#45;&gt;Node460 -->
<g id="edge38" class="edge"><title>Node451&#45;&gt;Node460</title>
<path fill="none" stroke="midnightblue" d="M732.399,-274.738C752.498,-303.039 811.247,-385.757 837.529,-422.762"/>
<polygon fill="midnightblue" stroke="midnightblue" points="834.825,-424.999 843.469,-431.125 840.532,-420.945 834.825,-424.999"/>
</g>
<!-- Node466 -->
<g id="node37" class="node"><title>Node466</title>
<g id="a_node37"><a xlink:href="lauxlib_8c.html#a4f35430f7ecfcbd5f507e550937046b4" target="_top" xlink:title=" ">
<polygon fill="white" stroke="black" points="799,-250.525 799,-269.525 904,-269.525 904,-250.525 799,-250.525"/>
<text text-anchor="middle" x="851.5" y="-257.525" font-family="Helvetica,sans-Serif" font-size="10.00">pushglobalfuncname</text>
</a>
</g>
</g>
<!-- Node451&#45;&gt;Node466 -->
<g id="edge47" class="edge"><title>Node451&#45;&gt;Node466</title>
<path fill="none" stroke="midnightblue" d="M761.32,-263.592C769.903,-263.249 779.312,-262.873 788.7,-262.497"/>
<polygon fill="midnightblue" stroke="midnightblue" points="788.987,-265.988 798.839,-262.091 788.707,-258.994 788.987,-265.988"/>
</g>
<!-- Node453 -->
<g id="node29" class="node"><title>Node453</title>
<g id="a_node29"><a xlink:href="ldebug_8c.html#ad72fa774194e83872bac4e5bf6ec1160" target="_top" xlink:title=" ">
<polygon fill="white" stroke="red" points="1213,-70.525 1213,-89.525 1274,-89.525 1274,-70.525 1213,-70.525"/>
<text text-anchor="middle" x="1243.5" y="-77.525" font-family="Helvetica,sans-Serif" font-size="10.00">auxgetinfo</text>
</a>
</g>
</g>
<!-- Node452&#45;&gt;Node453 -->
<g id="edge34" class="edge"><title>Node452&#45;&gt;Node453</title>
<path fill="none" stroke="midnightblue" d="M1149.15,-80.025C1165.19,-80.025 1185.02,-80.025 1202.28,-80.025"/>
<polygon fill="midnightblue" stroke="midnightblue" points="1202.63,-83.5251 1212.63,-80.025 1202.63,-76.5251 1202.63,-83.5251"/>
</g>
<!-- Node457 -->
<g id="node30" class="node"><title>Node457</title>
<g id="a_node30"><a xlink:href="ldebug_8c.html#a6e3195fc94af1f75142c2801ca8cf058" target="_top" xlink:title=" ">
<polygon fill="white" stroke="red" points="1201.5,-108.525 1201.5,-127.525 1285.5,-127.525 1285.5,-108.525 1201.5,-108.525"/>
<text text-anchor="middle" x="1243.5" y="-115.525" font-family="Helvetica,sans-Serif" font-size="10.00">collectvalidlines</text>
</a>
</g>
</g>
<!-- Node452&#45;&gt;Node457 -->
<g id="edge36" class="edge"><title>Node452&#45;&gt;Node457</title>
<path fill="none" stroke="midnightblue" d="M1149.15,-89.4183C1164.98,-94.2686 1184.51,-100.252 1201.6,-105.491"/>
<polygon fill="midnightblue" stroke="midnightblue" points="1200.75,-108.892 1211.34,-108.476 1202.8,-102.199 1200.75,-108.892"/>
</g>
<!-- Node453&#45;&gt;Node7 -->
<g id="edge35" class="edge"><title>Node453&#45;&gt;Node7</title>
<path fill="none" stroke="midnightblue" d="M1274.33,-89.1233C1279.1,-91.6861 1283.58,-94.9317 1287,-99.025 1356.42,-182.097 1361.07,-321.757 1360.23,-373.215"/>
<polygon fill="midnightblue" stroke="midnightblue" points="1356.73,-373.228 1359.97,-383.314 1363.73,-373.407 1356.73,-373.228"/>
</g>
<!-- Node461 -->
<g id="node33" class="node"><title>Node461</title>
<g id="a_node33"><a xlink:href="lapi_8c.html#a1de3afee1daece63d455f23818c883d9" target="_top" xlink:title=" ">
<polygon fill="white" stroke="red" points="1085.5,-393.525 1085.5,-412.525 1149.5,-412.525 1149.5,-393.525 1085.5,-393.525"/>
<text text-anchor="middle" x="1117.5" y="-400.525" font-family="Helvetica,sans-Serif" font-size="10.00">lua_concat</text>
</a>
</g>
</g>
<!-- Node460&#45;&gt;Node461 -->
<g id="edge39" class="edge"><title>Node460&#45;&gt;Node461</title>
<path fill="none" stroke="midnightblue" d="M881.313,-437.591C917.323,-433.219 980.813,-425.239 1035,-417.025 1048.1,-415.039 1062.36,-412.664 1075.22,-410.44"/>
<polygon fill="midnightblue" stroke="midnightblue" points="1075.95,-413.866 1085.2,-408.699 1074.75,-406.971 1075.95,-413.866"/>
</g>
<!-- Node462 -->
<g id="node34" class="node"><title>Node462</title>
<g id="a_node34"><a xlink:href="lapi_8c.html#a6ba7b91143fe8a03910420d800de8e97" target="_top" xlink:title=" ">
<polygon fill="white" stroke="black" points="960.5,-697.525 960.5,-716.525 1014.5,-716.525 1014.5,-697.525 960.5,-697.525"/>
<text text-anchor="middle" x="987.5" y="-704.525" font-family="Helvetica,sans-Serif" font-size="10.00">lua_error</text>
</a>
</g>
</g>
<!-- Node460&#45;&gt;Node462 -->
<g id="edge40" class="edge"><title>Node460&#45;&gt;Node462</title>
<path fill="none" stroke="midnightblue" d="M853.187,-450.992C856.229,-487.604 871.556,-616.254 940,-688.025 943.132,-691.309 946.911,-694.043 950.946,-696.314"/>
<polygon fill="midnightblue" stroke="midnightblue" points="949.494,-699.499 960.033,-700.584 952.471,-693.164 949.494,-699.499"/>
</g>
<!-- Node463 -->
<g id="node35" class="node"><title>Node463</title>
<g id="a_node35"><a xlink:href="lapi_8c.html#a426c9cb1d582be3e43060c4772854e5a" target="_top" xlink:title=" ">
<polygon fill="white" stroke="black" points="944.5,-621.525 944.5,-640.525 1030.5,-640.525 1030.5,-621.525 944.5,-621.525"/>
<text text-anchor="middle" x="987.5" y="-628.525" font-family="Helvetica,sans-Serif" font-size="10.00">lua_pushvfstring</text>
</a>
</g>
</g>
<!-- Node460&#45;&gt;Node463 -->
<g id="edge42" class="edge"><title>Node460&#45;&gt;Node463</title>
<path fill="none" stroke="midnightblue" d="M859.329,-450.708C880.56,-480.812 945.654,-573.11 973.569,-612.69"/>
<polygon fill="midnightblue" stroke="midnightblue" points="970.9,-614.978 979.524,-621.133 976.62,-610.944 970.9,-614.978"/>
</g>
<!-- Node464 -->
<g id="node36" class="node"><title>Node464</title>
<g id="a_node36"><a xlink:href="lauxlib_8c.html#a0f4d3c30c07eae36aa25605df84279a0" target="_top" xlink:title=" ">
<polygon fill="white" stroke="red" points="955,-51.525 955,-70.525 1020,-70.525 1020,-51.525 955,-51.525"/>
<text text-anchor="middle" x="987.5" y="-58.525" font-family="Helvetica,sans-Serif" font-size="10.00">luaL_where</text>
</a>
</g>
</g>
<!-- Node460&#45;&gt;Node464 -->
<g id="edge44" class="edge"><title>Node460&#45;&gt;Node464</title>
<path fill="none" stroke="midnightblue" d="M855.947,-431.25C873.756,-380.746 955.448,-149.083 979.696,-80.3203"/>
<polygon fill="midnightblue" stroke="midnightblue" points="983.051,-81.3304 983.076,-70.7356 976.449,-79.0024 983.051,-81.3304"/>
</g>
<!-- Node462&#45;&gt;Node446 -->
<g id="edge41" class="edge"><title>Node462&#45;&gt;Node446</title>
<path fill="none" stroke="midnightblue" d="M1014.71,-714.807C1031.98,-719.933 1054.97,-726.758 1074.73,-732.624"/>
<polygon fill="midnightblue" stroke="midnightblue" points="1073.84,-736.012 1084.42,-735.503 1075.83,-729.301 1073.84,-736.012"/>
</g>
<!-- Node463&#45;&gt;Node14 -->
<g id="edge43" class="edge"><title>Node463&#45;&gt;Node14</title>
<path fill="none" stroke="midnightblue" d="M1030.77,-631.025C1040.28,-631.025 1050.52,-631.025 1060.49,-631.025"/>
<polygon fill="midnightblue" stroke="midnightblue" points="1060.75,-634.525 1070.75,-631.025 1060.75,-627.525 1060.75,-634.525"/>
</g>
<!-- Node464&#45;&gt;Node452 -->
<g id="edge45" class="edge"><title>Node464&#45;&gt;Node452</title>
<path fill="none" stroke="midnightblue" d="M1020.14,-65.7217C1036.93,-68.2135 1057.75,-71.3038 1075.73,-73.9736"/>
<polygon fill="midnightblue" stroke="midnightblue" points="1075.26,-77.4417 1085.67,-75.448 1076.29,-70.5176 1075.26,-77.4417"/>
</g>
<!-- Node464&#45;&gt;Node459 -->
<g id="edge46" class="edge"><title>Node464&#45;&gt;Node459</title>
<path fill="none" stroke="midnightblue" d="M1014.1,-51.4269C1033.45,-44.167 1060.25,-34.1172 1081.58,-26.1194"/>
<polygon fill="midnightblue" stroke="midnightblue" points="1082.81,-29.395 1090.95,-22.6066 1080.36,-22.8407 1082.81,-29.395"/>
</g>
<!-- Node466&#45;&gt;Node452 -->
<g id="edge56" class="edge"><title>Node466&#45;&gt;Node452</title>
<path fill="none" stroke="midnightblue" d="M866.694,-250.347C910.127,-220.734 1041.48,-131.177 1094.22,-95.2135"/>
<polygon fill="midnightblue" stroke="midnightblue" points="1096.27,-98.0572 1102.56,-89.532 1092.32,-92.2736 1096.27,-98.0572"/>
</g>
<!-- Node467 -->
<g id="node38" class="node"><title>Node467</title>
<g id="a_node38"><a xlink:href="lauxlib_8c.html#a36c8f149b779f8c9a5c042ea9784d80a" target="_top" xlink:title=" ">
<polygon fill="white" stroke="red" points="963,-241.525 963,-260.525 1012,-260.525 1012,-241.525 963,-241.525"/>
<text text-anchor="middle" x="987.5" y="-248.525" font-family="Helvetica,sans-Serif" font-size="10.00">findfield</text>
</a>
</g>
</g>
<!-- Node466&#45;&gt;Node467 -->
<g id="edge48" class="edge"><title>Node466&#45;&gt;Node467</title>
<path fill="none" stroke="midnightblue" d="M904.308,-256.545C920.546,-255.455 938.041,-254.28 952.699,-253.295"/>
<polygon fill="midnightblue" stroke="midnightblue" points="953.069,-256.778 962.812,-252.616 952.6,-249.794 953.069,-256.778"/>
</g>
<!-- Node475 -->
<g id="node40" class="node"><title>Node475</title>
<g id="a_node40"><a xlink:href="lapi_8c.html#a111bd3fa34fe656f415edae5e343e13e" target="_top" xlink:title=" ">
<polygon fill="white" stroke="black" points="1089.5,-260.525 1089.5,-279.525 1145.5,-279.525 1145.5,-260.525 1089.5,-260.525"/>
<text text-anchor="middle" x="1117.5" y="-267.525" font-family="Helvetica,sans-Serif" font-size="10.00">lua_copy</text>
</a>
</g>
</g>
<!-- Node466&#45;&gt;Node475 -->
<g id="edge52" class="edge"><title>Node466&#45;&gt;Node475</title>
<path fill="none" stroke="midnightblue" d="M875.788,-250.391C893.148,-243.751 917.622,-235.518 940,-232.025 981.717,-225.513 993.778,-222.887 1035,-232.025 1055.32,-236.53 1076.58,-246.65 1092.29,-255.314"/>
<polygon fill="midnightblue" stroke="midnightblue" points="1090.88,-258.537 1101.3,-260.457 1094.35,-252.459 1090.88,-258.537"/>
</g>
<!-- Node476 -->
<g id="node41" class="node"><title>Node476</title>
<g id="a_node41"><a xlink:href="lapi_8c.html#a8b47f1b5685c3f8018ba926abb99af24" target="_top" xlink:title=" ">
<polygon fill="white" stroke="red" points="1085,-203.525 1085,-222.525 1150,-222.525 1150,-203.525 1085,-203.525"/>
<text text-anchor="middle" x="1117.5" y="-210.525" font-family="Helvetica,sans-Serif" font-size="10.00">lua_getfield</text>
</a>
</g>
</g>
<!-- Node466&#45;&gt;Node476 -->
<g id="edge54" class="edge"><title>Node466&#45;&gt;Node476</title>
<path fill="none" stroke="midnightblue" d="M869.991,-250.503C887.236,-241.635 914.617,-228.923 940,-223.025 985.167,-212.529 1038.5,-210.939 1074.62,-211.399"/>
<polygon fill="midnightblue" stroke="midnightblue" points="1074.73,-214.901 1084.79,-211.588 1074.86,-207.902 1074.73,-214.901"/>
</g>
<!-- Node478 -->
<g id="node42" class="node"><title>Node478</title>
<g id="a_node42"><a xlink:href="lapi_8c.html#afbb08ecb69421875494105d4de68e5bf" target="_top" xlink:title=" ">
<polygon fill="white" stroke="black" points="956.5,-355.525 956.5,-374.525 1018.5,-374.525 1018.5,-355.525 956.5,-355.525"/>
<text text-anchor="middle" x="987.5" y="-362.525" font-family="Helvetica,sans-Serif" font-size="10.00">lua_gettop</text>
</a>
</g>
</g>
<!-- Node466&#45;&gt;Node478 -->
<g id="edge57" class="edge"><title>Node466&#45;&gt;Node478</title>
<path fill="none" stroke="midnightblue" d="M860.209,-269.788C874.373,-287.176 906.2,-323.768 940,-346.025 942.768,-347.848 945.738,-349.548 948.791,-351.122"/>
<polygon fill="midnightblue" stroke="midnightblue" points="947.53,-354.396 958.071,-355.461 950.495,-348.055 947.53,-354.396"/>
</g>
<!-- Node479 -->
<g id="node43" class="node"><title>Node479</title>
<g id="a_node43"><a xlink:href="lapi_8c.html#a771d300f2e64b2197d1df9bf31660ebf" target="_top" xlink:title=" ">
<polygon fill="white" stroke="red" points="947.5,-317.525 947.5,-336.525 1027.5,-336.525 1027.5,-317.525 947.5,-317.525"/>
<text text-anchor="middle" x="987.5" y="-324.525" font-family="Helvetica,sans-Serif" font-size="10.00">lua_pushstring</text>
</a>
</g>
</g>
<!-- Node466&#45;&gt;Node479 -->
<g id="edge58" class="edge"><title>Node466&#45;&gt;Node479</title>
<path fill="none" stroke="midnightblue" d="M868.659,-269.615C886.004,-279.736 914.506,-295.872 940,-308.025 943.897,-309.883 948.025,-311.732 952.15,-313.507"/>
<polygon fill="midnightblue" stroke="midnightblue" points="951.08,-316.854 961.657,-317.483 953.781,-310.396 951.08,-316.854"/>
</g>
<!-- Node480 -->
<g id="node44" class="node"><title>Node480</title>
<g id="a_node44"><a xlink:href="lapi_8c.html#adaa30f0d34786144c94644039d1d1b6e" target="_top" xlink:title=" ">
<polygon fill="white" stroke="red" points="956.5,-279.525 956.5,-298.525 1018.5,-298.525 1018.5,-279.525 956.5,-279.525"/>
<text text-anchor="middle" x="987.5" y="-286.525" font-family="Helvetica,sans-Serif" font-size="10.00">lua_settop</text>
</a>
</g>
</g>
<!-- Node466&#45;&gt;Node480 -->
<g id="edge59" class="edge"><title>Node466&#45;&gt;Node480</title>
<path fill="none" stroke="midnightblue" d="M896.748,-269.601C912.757,-273.066 930.732,-276.956 946.368,-280.34"/>
<polygon fill="midnightblue" stroke="midnightblue" points="945.747,-283.786 956.261,-282.481 947.227,-276.945 945.747,-283.786"/>
</g>
<!-- Node467&#45;&gt;Node461 -->
<g id="edge49" class="edge"><title>Node467&#45;&gt;Node461</title>
<path fill="none" stroke="midnightblue" d="M1012.2,-256.913C1020.19,-259.818 1028.67,-264.029 1035,-270.025 1062.14,-295.724 1051.21,-314.319 1071,-346.025 1079.87,-360.234 1091.72,-374.978 1101.11,-385.91"/>
<polygon fill="midnightblue" stroke="midnightblue" points="1098.49,-388.236 1107.71,-393.455 1103.76,-383.625 1098.49,-388.236"/>
</g>
<!-- Node474 -->
<g id="node39" class="node"><title>Node474</title>
<g id="a_node39"><a xlink:href="lapi_8c.html#a652b273947f0656686f998d8e90cd3ea" target="_top" xlink:title=" ">
<polygon fill="white" stroke="black" points="1091,-317.525 1091,-336.525 1144,-336.525 1144,-317.525 1091,-317.525"/>
<text text-anchor="middle" x="1117.5" y="-324.525" font-family="Helvetica,sans-Serif" font-size="10.00">lua_type</text>
</a>
</g>
</g>
<!-- Node467&#45;&gt;Node474 -->
<g id="edge50" class="edge"><title>Node467&#45;&gt;Node474</title>
<path fill="none" stroke="midnightblue" d="M1012.15,-259.507C1019.62,-262.497 1027.8,-266.101 1035,-270.025 1057.13,-282.089 1080.52,-298.927 1096.54,-311.173"/>
<polygon fill="midnightblue" stroke="midnightblue" points="1094.58,-314.081 1104.62,-317.444 1098.87,-308.55 1094.58,-314.081"/>
</g>
<!-- Node474&#45;&gt;Node4 -->
<g id="edge51" class="edge"><title>Node474&#45;&gt;Node4</title>
<path fill="none" stroke="midnightblue" d="M1126.26,-336.533C1146.61,-361.485 1201.8,-429.131 1228.14,-461.417"/>
<polygon fill="midnightblue" stroke="midnightblue" points="1225.71,-463.984 1234.75,-469.52 1231.14,-459.559 1225.71,-463.984"/>
</g>
<!-- Node475&#45;&gt;Node4 -->
<g id="edge53" class="edge"><title>Node475&#45;&gt;Node4</title>
<path fill="none" stroke="midnightblue" d="M1133.09,-279.611C1142.83,-286.581 1155.37,-296.741 1164,-308.025 1201.25,-356.756 1226.09,-425.999 1236.68,-459.446"/>
<polygon fill="midnightblue" stroke="midnightblue" points="1233.44,-460.807 1239.73,-469.335 1240.13,-458.748 1233.44,-460.807"/>
</g>
<!-- Node476&#45;&gt;Node4 -->
<g id="edge55" class="edge"><title>Node476&#45;&gt;Node4</title>
<path fill="none" stroke="midnightblue" d="M1133.89,-222.648C1143.71,-229.495 1156.06,-239.499 1164,-251.025 1210.99,-319.235 1232.24,-418.205 1239.46,-459.641"/>
<polygon fill="midnightblue" stroke="midnightblue" points="1236.01,-460.229 1241.11,-469.519 1242.92,-459.08 1236.01,-460.229"/>
</g>
<!-- Node482 -->
<g id="node46" class="node"><title>Node482</title>
<g id="a_node46"><a xlink:href="lapi_8c.html#a7d64f87addab440bbda96bb088816e17" target="_top" xlink:title=" ">
<polygon fill="white" stroke="black" points="570.5,-431.525 570.5,-450.525 647.5,-450.525 647.5,-431.525 570.5,-431.525"/>
<text text-anchor="middle" x="609" y="-438.525" font-family="Helvetica,sans-Serif" font-size="10.00">lua_typename</text>
</a>
</g>
</g>
<!-- Node481&#45;&gt;Node482 -->
<g id="edge61" class="edge"><title>Node481&#45;&gt;Node482</title>
<path fill="none" stroke="midnightblue" d="M522.542,-441.025C533.772,-441.025 547.21,-441.025 560.069,-441.025"/>
<polygon fill="midnightblue" stroke="midnightblue" points="560.204,-444.525 570.204,-441.025 560.204,-437.525 560.204,-444.525"/>
</g>
<!-- Node483 -->
<g id="node47" class="node"><title>Node483</title>
<g id="a_node47"><a xlink:href="lauxlib_8c.html#ab8ddc4ac13516f3548a6c102dd6fa114" target="_top" xlink:title=" ">
<polygon fill="white" stroke="red" points="570,-393.525 570,-412.525 648,-412.525 648,-393.525 570,-393.525"/>
<text text-anchor="middle" x="609" y="-400.525" font-family="Helvetica,sans-Serif" font-size="10.00">luaL_typeerror</text>
</a>
</g>
</g>
<!-- Node481&#45;&gt;Node483 -->
<g id="edge62" class="edge"><title>Node481&#45;&gt;Node483</title>
<path fill="none" stroke="midnightblue" d="M522.542,-432.02C536.657,-427.231 554.263,-421.257 569.82,-415.979"/>
<polygon fill="midnightblue" stroke="midnightblue" points="571.345,-419.158 579.69,-412.63 569.096,-412.529 571.345,-419.158"/>
</g>
<!-- Node483&#45;&gt;Node451 -->
<g id="edge64" class="edge"><title>Node483&#45;&gt;Node451</title>
<path fill="none" stroke="midnightblue" d="M619.475,-393.351C627.749,-384.783 639.97,-371.84 650,-360.025 672.136,-333.95 696.079,-302.289 710.427,-282.905"/>
<polygon fill="midnightblue" stroke="midnightblue" points="713.365,-284.817 716.476,-274.69 707.728,-280.667 713.365,-284.817"/>
</g>
<!-- Node483&#45;&gt;Node474 -->
<g id="edge63" class="edge"><title>Node483&#45;&gt;Node474</title>
<path fill="none" stroke="midnightblue" d="M648.249,-408.263C724.318,-417.195 898.98,-430.235 1035,-384.025 1059.55,-375.683 1083.35,-357.511 1098.82,-343.914"/>
<polygon fill="midnightblue" stroke="midnightblue" points="1101.47,-346.238 1106.52,-336.922 1096.76,-341.057 1101.47,-346.238"/>
</g>
<!-- Node488&#45;&gt;Node4 -->
<g id="edge66" class="edge"><title>Node488&#45;&gt;Node4</title>
<path fill="none" stroke="midnightblue" d="M422.381,-503.217C466.769,-508.842 542.577,-517.025 608,-517.025 608,-517.025 608,-517.025 988.5,-517.025 1063.59,-517.025 1149.8,-500.582 1200,-489.329"/>
<polygon fill="midnightblue" stroke="midnightblue" points="1200.88,-492.719 1209.85,-487.084 1199.33,-485.894 1200.88,-492.719"/>
</g>
<!-- Node489&#45;&gt;Node4 -->
<g id="edge69" class="edge"><title>Node489&#45;&gt;Node4</title>
<path fill="none" stroke="midnightblue" d="M178.226,-593.025C225.834,-593.025 310.236,-593.025 382.5,-593.025 382.5,-593.025 382.5,-593.025 988.5,-593.025 1068.21,-593.025 1093.73,-593.665 1164,-556.025 1191.08,-541.517 1215.14,-514.817 1229.27,-496.989"/>
<polygon fill="midnightblue" stroke="midnightblue" points="1232.41,-498.65 1235.72,-488.586 1226.85,-494.389 1232.41,-498.65"/>
</g>
<!-- Node490&#45;&gt;Node451 -->
<g id="edge72" class="edge"><title>Node490&#45;&gt;Node451</title>
<path fill="none" stroke="midnightblue" d="M650.016,-265.025C658.919,-265.025 668.426,-265.025 677.546,-265.025"/>
<polygon fill="midnightblue" stroke="midnightblue" points="677.627,-268.525 687.627,-265.025 677.627,-261.525 677.627,-268.525"/>
</g>
<!-- Node490&#45;&gt;Node474 -->
<g id="edge71" class="edge"><title>Node490&#45;&gt;Node474</title>
<path fill="none" stroke="midnightblue" d="M632.103,-255.337C698.203,-227.944 898.243,-156.649 1035,-232.025 1061.24,-246.488 1051.26,-266.482 1071,-289.025 1078.04,-297.071 1086.87,-304.845 1094.86,-311.244"/>
<polygon fill="midnightblue" stroke="midnightblue" points="1092.73,-314.022 1102.79,-317.367 1097.01,-308.483 1092.73,-314.022"/>
</g>
</g>
</svg>
