<?xml version="1.0" encoding="UTF-8" standalone="no"?>
<!DOCTYPE svg PUBLIC "-//W3C//DTD SVG 1.1//EN"
 "http://www.w3.org/Graphics/SVG/1.1/DTD/svg11.dtd">
<!-- Generated by graphviz version 2.38.0 (20140413.2041)
 -->
<!-- Title: luaB_tonumber Pages: 1 -->
<svg width="1459pt" height="636pt"
 viewBox="0.00 0.00 1459.00 636.00" xmlns="http://www.w3.org/2000/svg" xmlns:xlink="http://www.w3.org/1999/xlink">
<g id="graph0" class="graph" transform="scale(1 1) rotate(0) translate(4 632)">
<title>luaB_tonumber</title>
<polygon fill="white" stroke="none" points="-4,4 -4,-632 1455,-632 1455,4 -4,4"/>
<!-- Node1 -->
<g id="node1" class="node"><title>Node1</title>
<g id="a_node1"><a xlink:title=" ">
<polygon fill="#bfbfbf" stroke="black" points="0,-247.5 0,-266.5 82,-266.5 82,-247.5 0,-247.5"/>
<text text-anchor="middle" x="41" y="-254.5" font-family="Helvetica,sans-Serif" font-size="10.00">luaB_tonumber</text>
</a>
</g>
</g>
<!-- Node2 -->
<g id="node2" class="node"><title>Node2</title>
<g id="a_node2"><a xlink:href="lbaselib_8c.html#a78f1ffc60cf4b6e7e1cb7089eb11072d" target="_top" xlink:title=" ">
<polygon fill="white" stroke="black" points="140.5,-532.5 140.5,-551.5 194.5,-551.5 194.5,-532.5 140.5,-532.5"/>
<text text-anchor="middle" x="167.5" y="-539.5" font-family="Helvetica,sans-Serif" font-size="10.00">b_str2int</text>
</a>
</g>
</g>
<!-- Node1&#45;&gt;Node2 -->
<g id="edge1" class="edge"><title>Node1&#45;&gt;Node2</title>
<path fill="none" stroke="midnightblue" d="M41.8692,-266.663C41.8808,-304.564 46.9201,-444.819 118,-523 121.596,-526.955 126.117,-530.097 130.944,-532.59"/>
<polygon fill="midnightblue" stroke="midnightblue" points="129.869,-535.936 140.442,-536.627 132.608,-529.494 129.869,-535.936"/>
</g>
<!-- Node4 -->
<g id="node4" class="node"><title>Node4</title>
<g id="a_node4"><a xlink:href="lapi_8c.html#adcec46ff05dfee9a3c4c05828b40c213" target="_top" xlink:title=" ">
<polygon fill="white" stroke="black" points="125,-494.5 125,-513.5 210,-513.5 210,-494.5 125,-494.5"/>
<text text-anchor="middle" x="167.5" y="-501.5" font-family="Helvetica,sans-Serif" font-size="10.00">lua_pushinteger</text>
</a>
</g>
</g>
<!-- Node1&#45;&gt;Node4 -->
<g id="edge3" class="edge"><title>Node1&#45;&gt;Node4</title>
<path fill="none" stroke="midnightblue" d="M42.7204,-266.766C45.6924,-300.484 59.7531,-413.572 118,-480 121.199,-483.649 125.082,-486.802 129.243,-489.512"/>
<polygon fill="midnightblue" stroke="midnightblue" points="127.611,-492.61 138.042,-494.466 131.046,-486.51 127.611,-492.61"/>
</g>
<!-- Node5 -->
<g id="node5" class="node"><title>Node5</title>
<g id="a_node5"><a xlink:href="lapi_8c.html#adaa30f0d34786144c94644039d1d1b6e" target="_top" xlink:title=" ">
<polygon fill="white" stroke="black" points="871,-456.5 871,-475.5 933,-475.5 933,-456.5 871,-456.5"/>
<text text-anchor="middle" x="902" y="-463.5" font-family="Helvetica,sans-Serif" font-size="10.00">lua_settop</text>
</a>
</g>
</g>
<!-- Node1&#45;&gt;Node5 -->
<g id="edge4" class="edge"><title>Node1&#45;&gt;Node5</title>
<path fill="none" stroke="midnightblue" d="M46.4184,-266.7C56.4854,-287.927 82.9896,-339.142 118,-371 183.89,-430.956 205.414,-466 294.5,-466 294.5,-466 294.5,-466 646,-466 721.842,-466 810.373,-466 860.646,-466"/>
<polygon fill="midnightblue" stroke="midnightblue" points="860.775,-469.5 870.775,-466 860.775,-462.5 860.775,-469.5"/>
</g>
<!-- Node448 -->
<g id="node15" class="node"><title>Node448</title>
<g id="a_node15"><a xlink:href="lapi_8c.html#ab9c2fb9e2b2c7dad7474dd4b6f1bbcd0" target="_top" xlink:title=" ">
<polygon fill="white" stroke="black" points="118,-76.5 118,-95.5 217,-95.5 217,-76.5 118,-76.5"/>
<text text-anchor="middle" x="167.5" y="-83.5" font-family="Helvetica,sans-Serif" font-size="10.00">lua_stringtonumber</text>
</a>
</g>
</g>
<!-- Node1&#45;&gt;Node448 -->
<g id="edge16" class="edge"><title>Node1&#45;&gt;Node448</title>
<path fill="none" stroke="midnightblue" d="M44.6247,-247.486C52.0699,-222.068 75.5784,-151.68 118,-110 121.716,-106.349 126.098,-103.153 130.683,-100.387"/>
<polygon fill="midnightblue" stroke="midnightblue" points="132.469,-103.401 139.628,-95.5911 129.161,-97.232 132.469,-103.401"/>
</g>
<!-- Node449 -->
<g id="node22" class="node"><title>Node449</title>
<g id="a_node22"><a xlink:href="lapi_8c.html#a3fc7dbcac3f2610f3d687ec15343bd3f" target="_top" xlink:title=" ">
<polygon fill="white" stroke="black" points="610.5,-114.5 610.5,-133.5 679.5,-133.5 679.5,-114.5 610.5,-114.5"/>
<text text-anchor="middle" x="645" y="-121.5" font-family="Helvetica,sans-Serif" font-size="10.00">lua_tolstring</text>
</a>
</g>
</g>
<!-- Node1&#45;&gt;Node449 -->
<g id="edge23" class="edge"><title>Node1&#45;&gt;Node449</title>
<path fill="none" stroke="midnightblue" d="M47.5615,-247.486C58.6004,-229.469 85.0795,-190.359 118,-170 186.945,-127.362 213.435,-124 294.5,-124 294.5,-124 294.5,-124 413.5,-124 478.606,-124 554.057,-124 600.407,-124"/>
<polygon fill="midnightblue" stroke="midnightblue" points="600.408,-127.5 610.408,-124 600.408,-120.5 600.408,-127.5"/>
</g>
<!-- Node452 -->
<g id="node30" class="node"><title>Node452</title>
<g id="a_node30"><a xlink:href="lapi_8c.html#a652b273947f0656686f998d8e90cd3ea" target="_top" xlink:title=" ">
<polygon fill="white" stroke="black" points="618.5,-190.5 618.5,-209.5 671.5,-209.5 671.5,-190.5 618.5,-190.5"/>
<text text-anchor="middle" x="645" y="-197.5" font-family="Helvetica,sans-Serif" font-size="10.00">lua_type</text>
</a>
</g>
</g>
<!-- Node1&#45;&gt;Node452 -->
<g id="edge31" class="edge"><title>Node1&#45;&gt;Node452</title>
<path fill="none" stroke="midnightblue" d="M56.3643,-247.368C93.8199,-223.216 198.25,-162 294.5,-162 294.5,-162 294.5,-162 413.5,-162 483.297,-162 563.419,-179.173 608.441,-190.43"/>
<polygon fill="midnightblue" stroke="midnightblue" points="607.748,-193.865 618.302,-192.942 609.476,-187.081 607.748,-193.865"/>
</g>
<!-- Node453 -->
<g id="node31" class="node"><title>Node453</title>
<g id="a_node31"><a xlink:href="lauxlib_8c.html#a8ebfe706b773eaaf50283e6583d4642e" target="_top" xlink:title=" ">
<polygon fill="white" stroke="black" points="488.5,-228.5 488.5,-247.5 570.5,-247.5 570.5,-228.5 488.5,-228.5"/>
<text text-anchor="middle" x="529.5" y="-235.5" font-family="Helvetica,sans-Serif" font-size="10.00">luaL_checkany</text>
</a>
</g>
</g>
<!-- Node1&#45;&gt;Node453 -->
<g id="edge33" class="edge"><title>Node1&#45;&gt;Node453</title>
<path fill="none" stroke="midnightblue" d="M82.2262,-255.429C170.526,-251.98 381.153,-243.755 478.094,-239.969"/>
<polygon fill="midnightblue" stroke="midnightblue" points="478.371,-243.461 488.227,-239.573 478.098,-236.466 478.371,-243.461"/>
</g>
<!-- Node482 -->
<g id="node43" class="node"><title>Node482</title>
<g id="a_node43"><a xlink:href="lauxlib_8c.html#aa15bea412c49bfdee1f3dbff096ce7d2" target="_top" xlink:title=" ">
<polygon fill="white" stroke="black" points="120,-342.5 120,-361.5 215,-361.5 215,-342.5 120,-342.5"/>
<text text-anchor="middle" x="167.5" y="-349.5" font-family="Helvetica,sans-Serif" font-size="10.00">luaL_checkinteger</text>
</a>
</g>
</g>
<!-- Node1&#45;&gt;Node482 -->
<g id="edge51" class="edge"><title>Node1&#45;&gt;Node482</title>
<path fill="none" stroke="midnightblue" d="M54.8548,-266.809C76.4006,-283.249 119.98,-316.503 145.86,-336.251"/>
<polygon fill="midnightblue" stroke="midnightblue" points="143.827,-339.102 153.901,-342.386 148.074,-333.537 143.827,-339.102"/>
</g>
<!-- Node493 -->
<g id="node50" class="node"><title>Node493</title>
<g id="a_node50"><a xlink:href="lauxlib_8c.html#a0f8f78c4edc5cbf890690b3cf9615dc8" target="_top" xlink:title=" ">
<polygon fill="white" stroke="black" points="253,-209.5 253,-228.5 338,-228.5 338,-209.5 253,-209.5"/>
<text text-anchor="middle" x="295.5" y="-216.5" font-family="Helvetica,sans-Serif" font-size="10.00">luaL_checktype</text>
</a>
</g>
</g>
<!-- Node1&#45;&gt;Node493 -->
<g id="edge63" class="edge"><title>Node1&#45;&gt;Node493</title>
<path fill="none" stroke="midnightblue" d="M82.1704,-249.236C93.7182,-247.103 106.342,-244.865 118,-243 159.828,-236.307 207.426,-229.906 242.644,-225.4"/>
<polygon fill="midnightblue" stroke="midnightblue" points="243.216,-228.855 252.694,-224.122 242.333,-221.911 243.216,-228.855"/>
</g>
<!-- Node3 -->
<g id="node3" class="node"><title>Node3</title>
<g id="a_node3"><a xlink:href="lstrlib_8c.html#a9605f4d16ae762782f8be8b54aef0a22" target="_top" xlink:title=" ">
<polygon fill="white" stroke="black" points="278,-532.5 278,-551.5 313,-551.5 313,-532.5 278,-532.5"/>
<text text-anchor="middle" x="295.5" y="-539.5" font-family="Helvetica,sans-Serif" font-size="10.00">digit</text>
</a>
</g>
</g>
<!-- Node2&#45;&gt;Node3 -->
<g id="edge2" class="edge"><title>Node2&#45;&gt;Node3</title>
<path fill="none" stroke="midnightblue" d="M194.607,-542C215.943,-542 245.995,-542 267.555,-542"/>
<polygon fill="midnightblue" stroke="midnightblue" points="267.673,-545.5 277.672,-542 267.672,-538.5 267.673,-545.5"/>
</g>
<!-- Node6 -->
<g id="node6" class="node"><title>Node6</title>
<g id="a_node6"><a xlink:href="lfunc_8c.html#ae9fcbf80b5969afd9412b9aed102f94e" target="_top" xlink:title=" ">
<polygon fill="white" stroke="black" points="985,-456.5 985,-475.5 1049,-475.5 1049,-456.5 985,-456.5"/>
<text text-anchor="middle" x="1017" y="-463.5" font-family="Helvetica,sans-Serif" font-size="10.00">luaF_close</text>
</a>
</g>
</g>
<!-- Node5&#45;&gt;Node6 -->
<g id="edge5" class="edge"><title>Node5&#45;&gt;Node6</title>
<path fill="none" stroke="midnightblue" d="M933.282,-466C945.993,-466 960.98,-466 974.68,-466"/>
<polygon fill="midnightblue" stroke="midnightblue" points="974.847,-469.5 984.847,-466 974.846,-462.5 974.847,-469.5"/>
</g>
<!-- Node7 -->
<g id="node7" class="node"><title>Node7</title>
<g id="a_node7"><a xlink:href="lfunc_8c.html#a4105c820bb9b1b4b4b3bd6613b0ccb05" target="_top" xlink:title=" ">
<polygon fill="white" stroke="black" points="1106,-494.5 1106,-513.5 1177,-513.5 1177,-494.5 1106,-494.5"/>
<text text-anchor="middle" x="1141.5" y="-501.5" font-family="Helvetica,sans-Serif" font-size="10.00">callclosemth</text>
</a>
</g>
</g>
<!-- Node6&#45;&gt;Node7 -->
<g id="edge6" class="edge"><title>Node6&#45;&gt;Node7</title>
<path fill="none" stroke="midnightblue" d="M1048.91,-475.589C1064.29,-480.359 1083.08,-486.189 1099.63,-491.323"/>
<polygon fill="midnightblue" stroke="midnightblue" points="1099.01,-494.794 1109.6,-494.414 1101.08,-488.108 1099.01,-494.794"/>
</g>
<!-- Node93 -->
<g id="node14" class="node"><title>Node93</title>
<g id="a_node14"><a xlink:href="lfunc_8c.html#a3b5a5ae122e85af5c941e9b4ffff53bd" target="_top" xlink:title=" ">
<polygon fill="white" stroke="black" points="1097.5,-456.5 1097.5,-475.5 1185.5,-475.5 1185.5,-456.5 1097.5,-456.5"/>
<text text-anchor="middle" x="1141.5" y="-463.5" font-family="Helvetica,sans-Serif" font-size="10.00">luaF_unlinkupval</text>
</a>
</g>
</g>
<!-- Node6&#45;&gt;Node93 -->
<g id="edge15" class="edge"><title>Node6&#45;&gt;Node93</title>
<path fill="none" stroke="midnightblue" d="M1049.23,-466C1060.75,-466 1074.16,-466 1087.09,-466"/>
<polygon fill="midnightblue" stroke="midnightblue" points="1087.31,-469.5 1097.31,-466 1087.31,-462.5 1087.31,-469.5"/>
</g>
<!-- Node8 -->
<g id="node8" class="node"><title>Node8</title>
<g id="a_node8"><a xlink:href="lfunc_8c.html#ad6f77f3a49d8b6199525c7edac6fd0a6" target="_top" xlink:title=" ">
<polygon fill="white" stroke="red" points="1251.5,-570.5 1251.5,-589.5 1306.5,-589.5 1306.5,-570.5 1251.5,-570.5"/>
<text text-anchor="middle" x="1279" y="-577.5" font-family="Helvetica,sans-Serif" font-size="10.00">callclose</text>
</a>
</g>
</g>
<!-- Node7&#45;&gt;Node8 -->
<g id="edge7" class="edge"><title>Node7&#45;&gt;Node8</title>
<path fill="none" stroke="midnightblue" d="M1157.79,-513.548C1175.11,-524.248 1204.26,-541.938 1230,-556 1235.9,-559.224 1242.29,-562.538 1248.43,-565.635"/>
<polygon fill="midnightblue" stroke="midnightblue" points="1247.24,-568.952 1257.75,-570.279 1250.36,-562.687 1247.24,-568.952"/>
</g>
<!-- Node77 -->
<g id="node9" class="node"><title>Node77</title>
<g id="a_node9"><a xlink:href="ldo_8c.html#a1ad7f845cc62b110e3fcc0ae187d7c85" target="_top" xlink:title=" ">
<polygon fill="white" stroke="red" points="1248,-418.5 1248,-437.5 1310,-437.5 1310,-418.5 1248,-418.5"/>
<text text-anchor="middle" x="1279" y="-425.5" font-family="Helvetica,sans-Serif" font-size="10.00">luaD_pcall</text>
</a>
</g>
</g>
<!-- Node7&#45;&gt;Node77 -->
<g id="edge8" class="edge"><title>Node7&#45;&gt;Node77</title>
<path fill="none" stroke="midnightblue" d="M1175.46,-494.409C1181.87,-491.845 1188.35,-488.725 1194,-485 1213.42,-472.194 1210.73,-460.033 1230,-447 1232.75,-445.142 1235.7,-443.425 1238.75,-441.845"/>
<polygon fill="midnightblue" stroke="midnightblue" points="1240.45,-444.913 1248.04,-437.521 1237.5,-438.566 1240.45,-444.913"/>
</g>
<!-- Node79 -->
<g id="node10" class="node"><title>Node79</title>
<g id="a_node10"><a xlink:href="ldo_8c.html#a2a5656cf723dffe2e9b5314260bd8896" target="_top" xlink:title=" ">
<polygon fill="white" stroke="black" points="1364,-475.5 1364,-494.5 1451,-494.5 1451,-475.5 1364,-475.5"/>
<text text-anchor="middle" x="1407.5" y="-482.5" font-family="Helvetica,sans-Serif" font-size="10.00">luaD_seterrorobj</text>
</a>
</g>
</g>
<!-- Node7&#45;&gt;Node79 -->
<g id="edge11" class="edge"><title>Node7&#45;&gt;Node79</title>
<path fill="none" stroke="midnightblue" d="M1174.4,-513.501C1211.67,-523.175 1274.99,-535.156 1328,-523 1347.68,-518.488 1368.15,-508.368 1383.25,-499.706"/>
<polygon fill="midnightblue" stroke="midnightblue" points="1385.1,-502.681 1391.91,-494.564 1381.52,-496.663 1385.1,-502.681"/>
</g>
<!-- Node80 -->
<g id="node11" class="node"><title>Node80</title>
<g id="a_node11"><a xlink:href="lstate_8c.html#a242ebb018d637c41f24b84a2bbc78f34" target="_top" xlink:title=" ">
<polygon fill="white" stroke="red" points="1238.5,-494.5 1238.5,-513.5 1319.5,-513.5 1319.5,-494.5 1238.5,-494.5"/>
<text text-anchor="middle" x="1279" y="-501.5" font-family="Helvetica,sans-Serif" font-size="10.00">luaE_warnerror</text>
</a>
</g>
</g>
<!-- Node7&#45;&gt;Node80 -->
<g id="edge12" class="edge"><title>Node7&#45;&gt;Node80</title>
<path fill="none" stroke="midnightblue" d="M1177.04,-504C1192.5,-504 1211.01,-504 1227.94,-504"/>
<polygon fill="midnightblue" stroke="midnightblue" points="1228.24,-507.5 1238.24,-504 1228.24,-500.5 1228.24,-507.5"/>
</g>
<!-- Node421 -->
<g id="node12" class="node"><title>Node421</title>
<g id="a_node12"><a xlink:href="lfunc_8c.html#a523bc674df9f893ade61463c4ba5f09a" target="_top" xlink:title=" ">
<polygon fill="white" stroke="red" points="1230,-456.5 1230,-475.5 1328,-475.5 1328,-456.5 1230,-456.5"/>
<text text-anchor="middle" x="1279" y="-463.5" font-family="Helvetica,sans-Serif" font-size="10.00">prepclosingmethod</text>
</a>
</g>
</g>
<!-- Node7&#45;&gt;Node421 -->
<g id="edge13" class="edge"><title>Node7&#45;&gt;Node421</title>
<path fill="none" stroke="midnightblue" d="M1176.69,-494.411C1194.1,-489.528 1215.47,-483.536 1234.09,-478.315"/>
<polygon fill="midnightblue" stroke="midnightblue" points="1235.14,-481.656 1243.82,-475.586 1233.24,-474.916 1235.14,-481.656"/>
</g>
<!-- Node424 -->
<g id="node13" class="node"><title>Node424</title>
<g id="a_node13"><a xlink:href="lfunc_8c.html#a865c4fcb22304c78c59721af224c34b6" target="_top" xlink:title=" ">
<polygon fill="white" stroke="red" points="1255,-608.5 1255,-627.5 1303,-627.5 1303,-608.5 1255,-608.5"/>
<text text-anchor="middle" x="1279" y="-615.5" font-family="Helvetica,sans-Serif" font-size="10.00">varerror</text>
</a>
</g>
</g>
<!-- Node7&#45;&gt;Node424 -->
<g id="edge14" class="edge"><title>Node7&#45;&gt;Node424</title>
<path fill="none" stroke="midnightblue" d="M1149.1,-513.685C1162.38,-532.517 1194.14,-574.377 1230,-599 1234.71,-602.234 1240.05,-605.036 1245.42,-607.42"/>
<polygon fill="midnightblue" stroke="midnightblue" points="1244.39,-610.778 1254.97,-611.263 1247,-604.283 1244.39,-610.778"/>
</g>
<!-- Node77&#45;&gt;Node6 -->
<g id="edge10" class="edge"><title>Node77&#45;&gt;Node6</title>
<path fill="none" stroke="midnightblue" d="M1247.67,-429.539C1210.17,-431.787 1144.47,-436.858 1089,-447 1079.22,-448.788 1068.81,-451.249 1059.07,-453.806"/>
<polygon fill="midnightblue" stroke="midnightblue" points="1057.94,-450.485 1049.21,-456.482 1059.78,-457.241 1057.94,-450.485"/>
</g>
<!-- Node77&#45;&gt;Node79 -->
<g id="edge9" class="edge"><title>Node77&#45;&gt;Node79</title>
<path fill="none" stroke="midnightblue" d="M1305.06,-437.514C1312.49,-440.445 1320.61,-443.756 1328,-447 1344.94,-454.443 1363.6,-463.441 1378.48,-470.812"/>
<polygon fill="midnightblue" stroke="midnightblue" points="1377.14,-474.055 1387.65,-475.389 1380.26,-467.792 1377.14,-474.055"/>
</g>
<!-- Node284 -->
<g id="node16" class="node"><title>Node284</title>
<g id="a_node16"><a xlink:href="lobject_8c.html#ab1956c979ca7ff39b07534390714505d" target="_top" xlink:title=" ">
<polygon fill="white" stroke="black" points="257,-67.5 257,-86.5 334,-86.5 334,-67.5 257,-67.5"/>
<text text-anchor="middle" x="295.5" y="-74.5" font-family="Helvetica,sans-Serif" font-size="10.00">luaO_str2num</text>
</a>
</g>
</g>
<!-- Node448&#45;&gt;Node284 -->
<g id="edge17" class="edge"><title>Node448&#45;&gt;Node284</title>
<path fill="none" stroke="midnightblue" d="M217.215,-82.5204C226.878,-81.8302 237.013,-81.1062 246.647,-80.4181"/>
<polygon fill="midnightblue" stroke="midnightblue" points="247.132,-83.8924 256.857,-79.6888 246.633,-76.9102 247.132,-83.8924"/>
</g>
<!-- Node285 -->
<g id="node17" class="node"><title>Node285</title>
<g id="a_node17"><a xlink:href="lobject_8c.html#a331ebab44d182775ef47eeebeeb58dbd" target="_top" xlink:title=" ">
<polygon fill="white" stroke="black" points="389.5,-10.5 389.5,-29.5 435.5,-29.5 435.5,-10.5 389.5,-10.5"/>
<text text-anchor="middle" x="412.5" y="-17.5" font-family="Helvetica,sans-Serif" font-size="10.00">l_str2d</text>
</a>
</g>
</g>
<!-- Node284&#45;&gt;Node285 -->
<g id="edge18" class="edge"><title>Node284&#45;&gt;Node285</title>
<path fill="none" stroke="midnightblue" d="M315.748,-67.4595C334.157,-58.335 362.14,-44.4656 383.108,-34.0726"/>
<polygon fill="midnightblue" stroke="midnightblue" points="384.783,-37.1486 392.189,-29.5716 381.675,-30.8767 384.783,-37.1486"/>
</g>
<!-- Node287 -->
<g id="node19" class="node"><title>Node287</title>
<g id="a_node19"><a xlink:href="lobject_8c.html#ac5f6271088cb629a2359a93c283dc6ce" target="_top" xlink:title=" ">
<polygon fill="white" stroke="black" points="387,-67.5 387,-86.5 438,-86.5 438,-67.5 387,-67.5"/>
<text text-anchor="middle" x="412.5" y="-74.5" font-family="Helvetica,sans-Serif" font-size="10.00">l_str2int</text>
</a>
</g>
</g>
<!-- Node284&#45;&gt;Node287 -->
<g id="edge20" class="edge"><title>Node284&#45;&gt;Node287</title>
<path fill="none" stroke="midnightblue" d="M334.155,-77C347.801,-77 363.146,-77 376.549,-77"/>
<polygon fill="midnightblue" stroke="midnightblue" points="376.812,-80.5001 386.812,-77 376.812,-73.5001 376.812,-80.5001"/>
</g>
<!-- Node286 -->
<g id="node18" class="node"><title>Node286</title>
<g id="a_node18"><a xlink:href="lobject_8c.html#a58b5660686590a5ed833cc0f89fbe832" target="_top" xlink:title=" ">
<polygon fill="white" stroke="black" points="500,-0.5 500,-19.5 559,-19.5 559,-0.5 500,-0.5"/>
<text text-anchor="middle" x="529.5" y="-7.5" font-family="Helvetica,sans-Serif" font-size="10.00">l_str2dloc</text>
</a>
</g>
</g>
<!-- Node285&#45;&gt;Node286 -->
<g id="edge19" class="edge"><title>Node285&#45;&gt;Node286</title>
<path fill="none" stroke="midnightblue" d="M435.673,-18.0719C450.95,-16.7435 471.659,-14.9427 489.641,-13.3791"/>
<polygon fill="midnightblue" stroke="midnightblue" points="490.192,-16.8444 499.851,-12.4912 489.586,-9.87073 490.192,-16.8444"/>
</g>
<!-- Node288 -->
<g id="node20" class="node"><title>Node288</title>
<g id="a_node20"><a xlink:href="lobject_8c.html#a3234b1ccb9cfbbd0892dcc6190a45876" target="_top" xlink:title=" ">
<polygon fill="white" stroke="black" points="509.5,-38.5 509.5,-57.5 549.5,-57.5 549.5,-38.5 509.5,-38.5"/>
<text text-anchor="middle" x="529.5" y="-45.5" font-family="Helvetica,sans-Serif" font-size="10.00">isneg</text>
</a>
</g>
</g>
<!-- Node287&#45;&gt;Node288 -->
<g id="edge21" class="edge"><title>Node287&#45;&gt;Node288</title>
<path fill="none" stroke="midnightblue" d="M438.17,-70.7788C456.101,-66.2571 480.437,-60.1202 499.332,-55.3554"/>
<polygon fill="midnightblue" stroke="midnightblue" points="500.353,-58.7075 509.194,-52.8685 498.642,-51.92 500.353,-58.7075"/>
</g>
<!-- Node289 -->
<g id="node21" class="node"><title>Node289</title>
<g id="a_node21"><a xlink:href="lobject_8c.html#ab73b1325bd3b1a6f9affc08fb46c07ec" target="_top" xlink:title=" ">
<polygon fill="white" stroke="black" points="487,-76.5 487,-95.5 572,-95.5 572,-76.5 487,-76.5"/>
<text text-anchor="middle" x="529.5" y="-83.5" font-family="Helvetica,sans-Serif" font-size="10.00">luaO_hexavalue</text>
</a>
</g>
</g>
<!-- Node287&#45;&gt;Node289 -->
<g id="edge22" class="edge"><title>Node287&#45;&gt;Node289</title>
<path fill="none" stroke="midnightblue" d="M438.17,-78.9307C449.425,-79.8115 463.203,-80.8898 476.575,-81.9363"/>
<polygon fill="midnightblue" stroke="midnightblue" points="476.431,-85.4356 486.674,-82.7266 476.977,-78.457 476.431,-85.4356"/>
</g>
<!-- Node450 -->
<g id="node23" class="node"><title>Node450</title>
<g id="a_node23"><a xlink:href="lapi_8c.html#a7c66797ff8396fc9258bb9fc08e959d8" target="_top" xlink:title=" ">
<polygon fill="white" stroke="black" points="737,-152.5 737,-171.5 804,-171.5 804,-152.5 737,-152.5"/>
<text text-anchor="middle" x="770.5" y="-159.5" font-family="Helvetica,sans-Serif" font-size="10.00">index2value</text>
</a>
</g>
</g>
<!-- Node449&#45;&gt;Node450 -->
<g id="edge24" class="edge"><title>Node449&#45;&gt;Node450</title>
<path fill="none" stroke="midnightblue" d="M677.164,-133.589C692.814,-138.404 711.971,-144.299 728.771,-149.468"/>
<polygon fill="midnightblue" stroke="midnightblue" points="727.759,-152.818 738.346,-152.414 729.817,-146.128 727.759,-152.818"/>
</g>
<!-- Node451 -->
<g id="node24" class="node"><title>Node451</title>
<g id="a_node24"><a xlink:href="lobject_8c.html#a53824ade5220a50d44148175f7787199" target="_top" xlink:title=" ">
<polygon fill="white" stroke="black" points="733.5,-114.5 733.5,-133.5 807.5,-133.5 807.5,-114.5 733.5,-114.5"/>
<text text-anchor="middle" x="770.5" y="-121.5" font-family="Helvetica,sans-Serif" font-size="10.00">luaO_tostring</text>
</a>
</g>
</g>
<!-- Node449&#45;&gt;Node451 -->
<g id="edge25" class="edge"><title>Node449&#45;&gt;Node451</title>
<path fill="none" stroke="midnightblue" d="M679.747,-124C693.08,-124 708.622,-124 722.991,-124"/>
<polygon fill="midnightblue" stroke="midnightblue" points="723.197,-127.5 733.197,-124 723.197,-120.5 723.197,-127.5"/>
</g>
<!-- Node31 -->
<g id="node25" class="node"><title>Node31</title>
<g id="a_node25"><a xlink:href="lstring_8c.html#ab41fb084ce3ea5e2779f6659ccc2484d" target="_top" xlink:title=" ">
<polygon fill="white" stroke="black" points="981,-190.5 981,-209.5 1053,-209.5 1053,-190.5 981,-190.5"/>
<text text-anchor="middle" x="1017" y="-197.5" font-family="Helvetica,sans-Serif" font-size="10.00">luaS_newlstr</text>
</a>
</g>
</g>
<!-- Node451&#45;&gt;Node31 -->
<g id="edge26" class="edge"><title>Node451&#45;&gt;Node31</title>
<path fill="none" stroke="midnightblue" d="M802.466,-133.625C846.465,-147.302 927.118,-172.372 975.719,-187.479"/>
<polygon fill="midnightblue" stroke="midnightblue" points="974.697,-190.827 985.285,-190.453 976.775,-184.142 974.697,-190.827"/>
</g>
<!-- Node124 -->
<g id="node29" class="node"><title>Node124</title>
<g id="a_node29"><a xlink:href="lobject_8c.html#a8a7886b6335aca97db23dfe3e220c728" target="_top" xlink:title=" ">
<polygon fill="white" stroke="black" points="870,-114.5 870,-133.5 934,-133.5 934,-114.5 870,-114.5"/>
<text text-anchor="middle" x="902" y="-121.5" font-family="Helvetica,sans-Serif" font-size="10.00">tostringbuff</text>
</a>
</g>
</g>
<!-- Node451&#45;&gt;Node124 -->
<g id="edge30" class="edge"><title>Node451&#45;&gt;Node124</title>
<path fill="none" stroke="midnightblue" d="M807.573,-124C823.811,-124 843.064,-124 859.861,-124"/>
<polygon fill="midnightblue" stroke="midnightblue" points="859.953,-127.5 869.953,-124 859.953,-120.5 859.953,-127.5"/>
</g>
<!-- Node32 -->
<g id="node26" class="node"><title>Node32</title>
<g id="a_node26"><a xlink:href="lstring_8c.html#a9b2c32c59a280de24f20df1c7f0433a1" target="_top" xlink:title=" ">
<polygon fill="white" stroke="red" points="1109,-152.5 1109,-171.5 1174,-171.5 1174,-152.5 1109,-152.5"/>
<text text-anchor="middle" x="1141.5" y="-159.5" font-family="Helvetica,sans-Serif" font-size="10.00">internshrstr</text>
</a>
</g>
</g>
<!-- Node31&#45;&gt;Node32 -->
<g id="edge27" class="edge"><title>Node31&#45;&gt;Node32</title>
<path fill="none" stroke="midnightblue" d="M1048.91,-190.411C1064.29,-185.641 1083.08,-179.811 1099.63,-174.677"/>
<polygon fill="midnightblue" stroke="midnightblue" points="1101.08,-177.892 1109.6,-171.586 1099.01,-171.206 1101.08,-177.892"/>
</g>
<!-- Node115 -->
<g id="node27" class="node"><title>Node115</title>
<g id="a_node27"><a xlink:href="lmem_8c.html#a8fc7df43dd830ccbe7581fd53f65bdbe" target="_top" xlink:title=" ">
<polygon fill="white" stroke="red" points="1107,-228.5 1107,-247.5 1176,-247.5 1176,-228.5 1107,-228.5"/>
<text text-anchor="middle" x="1141.5" y="-235.5" font-family="Helvetica,sans-Serif" font-size="10.00">luaM_toobig</text>
</a>
</g>
</g>
<!-- Node31&#45;&gt;Node115 -->
<g id="edge28" class="edge"><title>Node31&#45;&gt;Node115</title>
<path fill="none" stroke="midnightblue" d="M1048.91,-209.589C1064.29,-214.359 1083.08,-220.189 1099.63,-225.323"/>
<polygon fill="midnightblue" stroke="midnightblue" points="1099.01,-228.794 1109.6,-228.414 1101.08,-222.108 1099.01,-228.794"/>
</g>
<!-- Node116 -->
<g id="node28" class="node"><title>Node116</title>
<g id="a_node28"><a xlink:href="lstring_8c.html#a8790c7d6e706f935dd6e9eefd068921c" target="_top" xlink:title=" ">
<polygon fill="white" stroke="red" points="1089,-190.5 1089,-209.5 1194,-209.5 1194,-190.5 1089,-190.5"/>
<text text-anchor="middle" x="1141.5" y="-197.5" font-family="Helvetica,sans-Serif" font-size="10.00">luaS_createlngstrobj</text>
</a>
</g>
</g>
<!-- Node31&#45;&gt;Node116 -->
<g id="edge29" class="edge"><title>Node31&#45;&gt;Node116</title>
<path fill="none" stroke="midnightblue" d="M1053.1,-200C1061.13,-200 1069.9,-200 1078.68,-200"/>
<polygon fill="midnightblue" stroke="midnightblue" points="1078.96,-203.5 1088.96,-200 1078.96,-196.5 1078.96,-203.5"/>
</g>
<!-- Node452&#45;&gt;Node450 -->
<g id="edge32" class="edge"><title>Node452&#45;&gt;Node450</title>
<path fill="none" stroke="midnightblue" d="M671.589,-192.126C687.999,-187.077 709.669,-180.41 728.45,-174.631"/>
<polygon fill="midnightblue" stroke="midnightblue" points="729.72,-177.902 738.248,-171.616 727.661,-171.212 729.72,-177.902"/>
</g>
<!-- Node453&#45;&gt;Node452 -->
<g id="edge34" class="edge"><title>Node453&#45;&gt;Node452</title>
<path fill="none" stroke="midnightblue" d="M559.141,-228.411C574.259,-223.349 592.939,-217.095 608.92,-211.745"/>
<polygon fill="midnightblue" stroke="midnightblue" points="610.095,-215.042 618.467,-208.549 607.873,-208.405 610.095,-215.042"/>
</g>
<!-- Node454 -->
<g id="node32" class="node"><title>Node454</title>
<g id="a_node32"><a xlink:href="lauxlib_8c.html#ac607576dd107a3120cd51948989f1ed2" target="_top" xlink:title=" ">
<polygon fill="white" stroke="black" points="608.5,-380.5 608.5,-399.5 681.5,-399.5 681.5,-380.5 608.5,-380.5"/>
<text text-anchor="middle" x="645" y="-387.5" font-family="Helvetica,sans-Serif" font-size="10.00">luaL_argerror</text>
</a>
</g>
</g>
<!-- Node453&#45;&gt;Node454 -->
<g id="edge35" class="edge"><title>Node453&#45;&gt;Node454</title>
<path fill="none" stroke="midnightblue" d="M557.973,-247.515C563.01,-250.074 567.949,-253.211 572,-257 606.688,-289.444 628.303,-342.443 638.001,-370.75"/>
<polygon fill="midnightblue" stroke="midnightblue" points="634.691,-371.887 641.137,-380.296 641.341,-369.703 634.691,-371.887"/>
</g>
<!-- Node455 -->
<g id="node33" class="node"><title>Node455</title>
<g id="a_node33"><a xlink:href="ldebug_8c.html#acaafc35d8e385c4d167229486165df6d" target="_top" xlink:title=" ">
<polygon fill="white" stroke="black" points="985.5,-342.5 985.5,-361.5 1048.5,-361.5 1048.5,-342.5 985.5,-342.5"/>
<text text-anchor="middle" x="1017" y="-349.5" font-family="Helvetica,sans-Serif" font-size="10.00">lua_getinfo</text>
</a>
</g>
</g>
<!-- Node454&#45;&gt;Node455 -->
<g id="edge36" class="edge"><title>Node454&#45;&gt;Node455</title>
<path fill="none" stroke="midnightblue" d="M664.256,-380.383C670.429,-376.508 677.013,-371.617 682,-366 705.489,-339.542 693.298,-320.329 718,-295 767.703,-244.033 789.974,-236.418 859,-219 896.06,-209.648 912.221,-199.341 945,-219 986.383,-243.819 1004.98,-301.868 1012.15,-332.413"/>
<polygon fill="midnightblue" stroke="midnightblue" points="1008.76,-333.279 1014.3,-342.31 1015.6,-331.796 1008.76,-333.279"/>
</g>
<!-- Node462 -->
<g id="node36" class="node"><title>Node462</title>
<g id="a_node36"><a xlink:href="ldebug_8c.html#ac1fc03c27ee46caa4037df2d70f22110" target="_top" xlink:title=" ">
<polygon fill="white" stroke="black" points="981,-399.5 981,-418.5 1053,-418.5 1053,-399.5 981,-399.5"/>
<text text-anchor="middle" x="1017" y="-406.5" font-family="Helvetica,sans-Serif" font-size="10.00">lua_getstack</text>
</a>
</g>
</g>
<!-- Node454&#45;&gt;Node462 -->
<g id="edge39" class="edge"><title>Node454&#45;&gt;Node462</title>
<path fill="none" stroke="midnightblue" d="M675.085,-399.504C688.065,-403.268 703.641,-407.137 718,-409 807.056,-420.553 912.347,-416.439 970.915,-412.593"/>
<polygon fill="midnightblue" stroke="midnightblue" points="971.207,-416.081 980.945,-411.906 970.729,-409.097 971.207,-416.081"/>
</g>
<!-- Node463 -->
<g id="node37" class="node"><title>Node463</title>
<g id="a_node37"><a xlink:href="lauxlib_8c.html#a6c51d83d29244779392551388913e08a" target="_top" xlink:title=" ">
<polygon fill="white" stroke="black" points="741,-304.5 741,-323.5 800,-323.5 800,-304.5 741,-304.5"/>
<text text-anchor="middle" x="770.5" y="-311.5" font-family="Helvetica,sans-Serif" font-size="10.00">luaL_error</text>
</a>
</g>
</g>
<!-- Node454&#45;&gt;Node463 -->
<g id="edge40" class="edge"><title>Node454&#45;&gt;Node463</title>
<path fill="none" stroke="midnightblue" d="M661.641,-380.375C682.706,-367.412 720.402,-344.214 745.182,-328.965"/>
<polygon fill="midnightblue" stroke="midnightblue" points="747.303,-331.769 753.986,-323.547 743.635,-325.808 747.303,-331.769"/>
</g>
<!-- Node469 -->
<g id="node42" class="node"><title>Node469</title>
<g id="a_node42"><a xlink:href="lauxlib_8c.html#a4f35430f7ecfcbd5f507e550937046b4" target="_top" xlink:title=" ">
<polygon fill="white" stroke="red" points="718,-380.5 718,-399.5 823,-399.5 823,-380.5 718,-380.5"/>
<text text-anchor="middle" x="770.5" y="-387.5" font-family="Helvetica,sans-Serif" font-size="10.00">pushglobalfuncname</text>
</a>
</g>
</g>
<!-- Node454&#45;&gt;Node469 -->
<g id="edge48" class="edge"><title>Node454&#45;&gt;Node469</title>
<path fill="none" stroke="midnightblue" d="M681.721,-390C689.899,-390 698.823,-390 707.746,-390"/>
<polygon fill="midnightblue" stroke="midnightblue" points="707.782,-393.5 717.782,-390 707.782,-386.5 707.782,-393.5"/>
</g>
<!-- Node456 -->
<g id="node34" class="node"><title>Node456</title>
<g id="a_node34"><a xlink:href="ldebug_8c.html#ad72fa774194e83872bac4e5bf6ec1160" target="_top" xlink:title=" ">
<polygon fill="white" stroke="red" points="1111,-361.5 1111,-380.5 1172,-380.5 1172,-361.5 1111,-361.5"/>
<text text-anchor="middle" x="1141.5" y="-368.5" font-family="Helvetica,sans-Serif" font-size="10.00">auxgetinfo</text>
</a>
</g>
</g>
<!-- Node455&#45;&gt;Node456 -->
<g id="edge37" class="edge"><title>Node455&#45;&gt;Node456</title>
<path fill="none" stroke="midnightblue" d="M1048.6,-356.745C1064.32,-359.185 1083.69,-362.188 1100.57,-364.807"/>
<polygon fill="midnightblue" stroke="midnightblue" points="1100.3,-368.306 1110.72,-366.381 1101.37,-361.389 1100.3,-368.306"/>
</g>
<!-- Node460 -->
<g id="node35" class="node"><title>Node460</title>
<g id="a_node35"><a xlink:href="ldebug_8c.html#a6e3195fc94af1f75142c2801ca8cf058" target="_top" xlink:title=" ">
<polygon fill="white" stroke="red" points="1099.5,-323.5 1099.5,-342.5 1183.5,-342.5 1183.5,-323.5 1099.5,-323.5"/>
<text text-anchor="middle" x="1141.5" y="-330.5" font-family="Helvetica,sans-Serif" font-size="10.00">collectvalidlines</text>
</a>
</g>
</g>
<!-- Node455&#45;&gt;Node460 -->
<g id="edge38" class="edge"><title>Node455&#45;&gt;Node460</title>
<path fill="none" stroke="midnightblue" d="M1048.6,-347.255C1060.91,-345.344 1075.46,-343.088 1089.3,-340.941"/>
<polygon fill="midnightblue" stroke="midnightblue" points="1089.87,-344.395 1099.21,-339.404 1088.8,-337.478 1089.87,-344.395"/>
</g>
<!-- Node464 -->
<g id="node38" class="node"><title>Node464</title>
<g id="a_node38"><a xlink:href="lapi_8c.html#a1de3afee1daece63d455f23818c883d9" target="_top" xlink:title=" ">
<polygon fill="white" stroke="red" points="870,-228.5 870,-247.5 934,-247.5 934,-228.5 870,-228.5"/>
<text text-anchor="middle" x="902" y="-235.5" font-family="Helvetica,sans-Serif" font-size="10.00">lua_concat</text>
</a>
</g>
</g>
<!-- Node463&#45;&gt;Node464 -->
<g id="edge41" class="edge"><title>Node463&#45;&gt;Node464</title>
<path fill="none" stroke="midnightblue" d="M784.746,-304.455C801.553,-292.562 831.651,-271.98 859,-257 862.113,-255.295 865.407,-253.611 868.727,-251.991"/>
<polygon fill="midnightblue" stroke="midnightblue" points="870.452,-255.048 878.021,-247.634 867.481,-248.71 870.452,-255.048"/>
</g>
<!-- Node465 -->
<g id="node39" class="node"><title>Node465</title>
<g id="a_node39"><a xlink:href="lapi_8c.html#a6ba7b91143fe8a03910420d800de8e97" target="_top" xlink:title=" ">
<polygon fill="white" stroke="red" points="875,-304.5 875,-323.5 929,-323.5 929,-304.5 875,-304.5"/>
<text text-anchor="middle" x="902" y="-311.5" font-family="Helvetica,sans-Serif" font-size="10.00">lua_error</text>
</a>
</g>
</g>
<!-- Node463&#45;&gt;Node465 -->
<g id="edge43" class="edge"><title>Node463&#45;&gt;Node465</title>
<path fill="none" stroke="midnightblue" d="M800.24,-314C819.277,-314 844.402,-314 864.8,-314"/>
<polygon fill="midnightblue" stroke="midnightblue" points="864.979,-317.5 874.979,-314 864.979,-310.5 864.979,-317.5"/>
</g>
<!-- Node466 -->
<g id="node40" class="node"><title>Node466</title>
<g id="a_node40"><a xlink:href="lapi_8c.html#a426c9cb1d582be3e43060c4772854e5a" target="_top" xlink:title=" ">
<polygon fill="white" stroke="red" points="859,-266.5 859,-285.5 945,-285.5 945,-266.5 859,-266.5"/>
<text text-anchor="middle" x="902" y="-273.5" font-family="Helvetica,sans-Serif" font-size="10.00">lua_pushvfstring</text>
</a>
</g>
</g>
<!-- Node463&#45;&gt;Node466 -->
<g id="edge44" class="edge"><title>Node463&#45;&gt;Node466</title>
<path fill="none" stroke="midnightblue" d="M800.24,-305.567C817.373,-300.539 839.437,-294.065 858.549,-288.457"/>
<polygon fill="midnightblue" stroke="midnightblue" points="859.623,-291.789 868.233,-285.615 857.652,-285.072 859.623,-291.789"/>
</g>
<!-- Node467 -->
<g id="node41" class="node"><title>Node467</title>
<g id="a_node41"><a xlink:href="lauxlib_8c.html#a0f4d3c30c07eae36aa25605df84279a0" target="_top" xlink:title=" ">
<polygon fill="white" stroke="red" points="869.5,-342.5 869.5,-361.5 934.5,-361.5 934.5,-342.5 869.5,-342.5"/>
<text text-anchor="middle" x="902" y="-349.5" font-family="Helvetica,sans-Serif" font-size="10.00">luaL_where</text>
</a>
</g>
</g>
<!-- Node463&#45;&gt;Node467 -->
<g id="edge45" class="edge"><title>Node463&#45;&gt;Node467</title>
<path fill="none" stroke="midnightblue" d="M800.24,-322.433C817.627,-327.535 840.092,-334.127 859.397,-339.792"/>
<polygon fill="midnightblue" stroke="midnightblue" points="858.579,-343.2 869.16,-342.657 860.55,-336.483 858.579,-343.2"/>
</g>
<!-- Node464&#45;&gt;Node31 -->
<g id="edge42" class="edge"><title>Node464&#45;&gt;Node31</title>
<path fill="none" stroke="midnightblue" d="M931.515,-228.411C945.567,-223.686 962.708,-217.921 977.87,-212.823"/>
<polygon fill="midnightblue" stroke="midnightblue" points="979.132,-216.091 987.494,-209.586 976.9,-209.456 979.132,-216.091"/>
</g>
<!-- Node467&#45;&gt;Node455 -->
<g id="edge46" class="edge"><title>Node467&#45;&gt;Node455</title>
<path fill="none" stroke="midnightblue" d="M934.778,-352C947.243,-352 961.708,-352 974.947,-352"/>
<polygon fill="midnightblue" stroke="midnightblue" points="975.24,-355.5 985.24,-352 975.24,-348.5 975.24,-355.5"/>
</g>
<!-- Node467&#45;&gt;Node462 -->
<g id="edge47" class="edge"><title>Node467&#45;&gt;Node462</title>
<path fill="none" stroke="midnightblue" d="M921.914,-361.541C939.921,-370.624 967.251,-384.41 987.823,-394.787"/>
<polygon fill="midnightblue" stroke="midnightblue" points="986.52,-398.05 997.025,-399.428 989.673,-391.8 986.52,-398.05"/>
</g>
<!-- Node469&#45;&gt;Node5 -->
<g id="edge50" class="edge"><title>Node469&#45;&gt;Node5</title>
<path fill="none" stroke="midnightblue" d="M787.901,-399.625C810.087,-412.645 849.866,-435.991 875.844,-451.236"/>
<polygon fill="midnightblue" stroke="midnightblue" points="874.336,-454.41 884.732,-456.453 877.879,-448.373 874.336,-454.41"/>
</g>
<!-- Node469&#45;&gt;Node455 -->
<g id="edge49" class="edge"><title>Node469&#45;&gt;Node455</title>
<path fill="none" stroke="midnightblue" d="M823.046,-386.426C857.719,-383.515 904.346,-378.62 945,-371 955.065,-369.114 965.796,-366.543 975.788,-363.902"/>
<polygon fill="midnightblue" stroke="midnightblue" points="976.752,-367.267 985.48,-361.261 974.912,-360.513 976.752,-367.267"/>
</g>
<!-- Node483 -->
<g id="node44" class="node"><title>Node483</title>
<g id="a_node44"><a xlink:href="lauxlib_8c.html#ac900510f548ea0ea6d53358d2aedd100" target="_top" xlink:title=" ">
<polygon fill="white" stroke="black" points="272,-342.5 272,-361.5 319,-361.5 319,-342.5 272,-342.5"/>
<text text-anchor="middle" x="295.5" y="-349.5" font-family="Helvetica,sans-Serif" font-size="10.00">interror</text>
</a>
</g>
</g>
<!-- Node482&#45;&gt;Node483 -->
<g id="edge52" class="edge"><title>Node482&#45;&gt;Node483</title>
<path fill="none" stroke="midnightblue" d="M215.06,-352C230.478,-352 247.309,-352 261.493,-352"/>
<polygon fill="midnightblue" stroke="midnightblue" points="261.758,-355.5 271.758,-352 261.758,-348.5 261.758,-355.5"/>
</g>
<!-- Node492 -->
<g id="node49" class="node"><title>Node492</title>
<g id="a_node49"><a xlink:href="lapi_8c.html#af81c9a68425546e1f8c6354728c95170" target="_top" xlink:title=" ">
<polygon fill="white" stroke="black" points="374,-418.5 374,-437.5 451,-437.5 451,-418.5 374,-418.5"/>
<text text-anchor="middle" x="412.5" y="-425.5" font-family="Helvetica,sans-Serif" font-size="10.00">lua_tointegerx</text>
</a>
</g>
</g>
<!-- Node482&#45;&gt;Node492 -->
<g id="edge61" class="edge"><title>Node482&#45;&gt;Node492</title>
<path fill="none" stroke="midnightblue" d="M199.276,-361.625C242.914,-375.274 322.828,-400.267 371.163,-415.384"/>
<polygon fill="midnightblue" stroke="midnightblue" points="370.385,-418.808 380.974,-418.453 372.474,-412.127 370.385,-418.808"/>
</g>
<!-- Node483&#45;&gt;Node454 -->
<g id="edge55" class="edge"><title>Node483&#45;&gt;Node454</title>
<path fill="none" stroke="midnightblue" d="M319.136,-356.644C334.546,-359.669 355.436,-363.503 374,-366 452.268,-376.526 543.944,-383.565 597.817,-387.165"/>
<polygon fill="midnightblue" stroke="midnightblue" points="597.865,-390.676 608.073,-387.84 598.324,-383.691 597.865,-390.676"/>
</g>
<!-- Node484 -->
<g id="node45" class="node"><title>Node484</title>
<g id="a_node45"><a xlink:href="lapi_8c.html#a99451f234bf085c9c46c3d17a5aef905" target="_top" xlink:title=" ">
<polygon fill="white" stroke="black" points="608,-266.5 608,-285.5 682,-285.5 682,-266.5 608,-266.5"/>
<text text-anchor="middle" x="645" y="-273.5" font-family="Helvetica,sans-Serif" font-size="10.00">lua_isnumber</text>
</a>
</g>
</g>
<!-- Node483&#45;&gt;Node484 -->
<g id="edge53" class="edge"><title>Node483&#45;&gt;Node484</title>
<path fill="none" stroke="midnightblue" d="M319.25,-354.831C367.667,-359.927 483.694,-367.174 572,-333 594.124,-324.438 614.853,-306.573 628.335,-293.111"/>
<polygon fill="midnightblue" stroke="midnightblue" points="630.967,-295.424 635.392,-285.798 625.929,-290.564 630.967,-295.424"/>
</g>
<!-- Node485 -->
<g id="node46" class="node"><title>Node485</title>
<g id="a_node46"><a xlink:href="lauxlib_8c.html#ab8e946260debec8d4bbc714b76a1613b" target="_top" xlink:title=" ">
<polygon fill="white" stroke="black" points="385,-295.5 385,-314.5 440,-314.5 440,-295.5 385,-295.5"/>
<text text-anchor="middle" x="412.5" y="-302.5" font-family="Helvetica,sans-Serif" font-size="10.00">tag_error</text>
</a>
</g>
</g>
<!-- Node483&#45;&gt;Node485 -->
<g id="edge56" class="edge"><title>Node483&#45;&gt;Node485</title>
<path fill="none" stroke="midnightblue" d="M319.22,-342.714C336.166,-335.789 359.566,-326.225 378.563,-318.461"/>
<polygon fill="midnightblue" stroke="midnightblue" points="380.105,-321.612 388.037,-314.589 377.456,-315.132 380.105,-321.612"/>
</g>
<!-- Node484&#45;&gt;Node450 -->
<g id="edge54" class="edge"><title>Node484&#45;&gt;Node450</title>
<path fill="none" stroke="midnightblue" d="M651.586,-266.389C662.397,-248.495 687.793,-209.739 718,-186 722.77,-182.251 728.22,-178.919 733.749,-176.019"/>
<polygon fill="midnightblue" stroke="midnightblue" points="735.532,-179.045 743.02,-171.549 732.492,-172.739 735.532,-179.045"/>
</g>
<!-- Node486 -->
<g id="node47" class="node"><title>Node486</title>
<g id="a_node47"><a xlink:href="lapi_8c.html#a7d64f87addab440bbda96bb088816e17" target="_top" xlink:title=" ">
<polygon fill="white" stroke="black" points="491,-266.5 491,-285.5 568,-285.5 568,-266.5 491,-266.5"/>
<text text-anchor="middle" x="529.5" y="-273.5" font-family="Helvetica,sans-Serif" font-size="10.00">lua_typename</text>
</a>
</g>
</g>
<!-- Node485&#45;&gt;Node486 -->
<g id="edge57" class="edge"><title>Node485&#45;&gt;Node486</title>
<path fill="none" stroke="midnightblue" d="M440.172,-298.274C452.239,-295.231 466.877,-291.54 480.738,-288.044"/>
<polygon fill="midnightblue" stroke="midnightblue" points="481.805,-291.385 490.646,-285.546 480.093,-284.597 481.805,-291.385"/>
</g>
<!-- Node487 -->
<g id="node48" class="node"><title>Node487</title>
<g id="a_node48"><a xlink:href="lauxlib_8c.html#ab8ddc4ac13516f3548a6c102dd6fa114" target="_top" xlink:title=" ">
<polygon fill="white" stroke="red" points="490.5,-304.5 490.5,-323.5 568.5,-323.5 568.5,-304.5 490.5,-304.5"/>
<text text-anchor="middle" x="529.5" y="-311.5" font-family="Helvetica,sans-Serif" font-size="10.00">luaL_typeerror</text>
</a>
</g>
</g>
<!-- Node485&#45;&gt;Node487 -->
<g id="edge58" class="edge"><title>Node485&#45;&gt;Node487</title>
<path fill="none" stroke="midnightblue" d="M440.172,-307.087C452.016,-308.014 466.337,-309.135 479.969,-310.202"/>
<polygon fill="midnightblue" stroke="midnightblue" points="479.964,-313.712 490.207,-311.003 480.51,-306.733 479.964,-313.712"/>
</g>
<!-- Node487&#45;&gt;Node452 -->
<g id="edge59" class="edge"><title>Node487&#45;&gt;Node452</title>
<path fill="none" stroke="midnightblue" d="M556.665,-304.407C562.027,-301.803 567.425,-298.668 572,-295 599.041,-273.32 621.516,-239.348 633.826,-218.445"/>
<polygon fill="midnightblue" stroke="midnightblue" points="636.96,-220.016 638.888,-209.599 630.884,-216.54 636.96,-220.016"/>
</g>
<!-- Node487&#45;&gt;Node454 -->
<g id="edge60" class="edge"><title>Node487&#45;&gt;Node454</title>
<path fill="none" stroke="midnightblue" d="M544.875,-323.625C564.149,-336.531 598.573,-359.582 621.35,-374.833"/>
<polygon fill="midnightblue" stroke="midnightblue" points="619.485,-377.797 629.742,-380.453 623.38,-371.981 619.485,-377.797"/>
</g>
<!-- Node492&#45;&gt;Node450 -->
<g id="edge62" class="edge"><title>Node492&#45;&gt;Node450</title>
<path fill="none" stroke="midnightblue" d="M450.443,-418.455C507.147,-402.08 615.985,-363.589 682,-295 706.26,-269.794 698.823,-254.26 718,-225 728.696,-208.68 742.842,-191.631 753.602,-179.39"/>
<polygon fill="midnightblue" stroke="midnightblue" points="756.373,-181.541 760.426,-171.752 751.153,-176.877 756.373,-181.541"/>
</g>
<!-- Node493&#45;&gt;Node452 -->
<g id="edge64" class="edge"><title>Node493&#45;&gt;Node452</title>
<path fill="none" stroke="midnightblue" d="M338.071,-216.727C406.844,-212.967 543.135,-205.515 608.029,-201.967"/>
<polygon fill="midnightblue" stroke="midnightblue" points="608.385,-205.453 618.179,-201.412 608.003,-198.463 608.385,-205.453"/>
</g>
<!-- Node493&#45;&gt;Node485 -->
<g id="edge65" class="edge"><title>Node493&#45;&gt;Node485</title>
<path fill="none" stroke="midnightblue" d="M309.246,-228.532C328.934,-243.255 366.94,-271.677 390.663,-289.418"/>
<polygon fill="midnightblue" stroke="midnightblue" points="388.592,-292.239 398.697,-295.425 392.784,-286.633 388.592,-292.239"/>
</g>
</g>
</svg>
