<?xml version="1.0" encoding="UTF-8" standalone="no"?>
<!DOCTYPE svg PUBLIC "-//W3C//DTD SVG 1.1//EN"
 "http://www.w3.org/Graphics/SVG/1.1/DTD/svg11.dtd">
<!-- Generated by graphviz version 2.38.0 (20140413.2041)
 -->
<!-- Title: luaB_type Pages: 1 -->
<svg width="1411pt" height="510pt"
 viewBox="0.00 0.00 1411.00 510.00" xmlns="http://www.w3.org/2000/svg" xmlns:xlink="http://www.w3.org/1999/xlink">
<g id="graph0" class="graph" transform="scale(1 1) rotate(0) translate(4 506)">
<title>luaB_type</title>
<polygon fill="white" stroke="none" points="-4,4 -4,-506 1407,-506 1407,4 -4,4"/>
<!-- Node1 -->
<g id="node1" class="node"><title>Node1</title>
<g id="a_node1"><a xlink:title=" ">
<polygon fill="#bfbfbf" stroke="black" points="0,-235.5 0,-254.5 60,-254.5 60,-235.5 0,-235.5"/>
<text text-anchor="middle" x="30" y="-242.5" font-family="Helvetica,sans-Serif" font-size="10.00">luaB_type</text>
</a>
</g>
</g>
<!-- Node2 -->
<g id="node2" class="node"><title>Node2</title>
<g id="a_node2"><a xlink:href="lapi_8c.html#a771d300f2e64b2197d1df9bf31660ebf" target="_top" xlink:title=" ">
<polygon fill="white" stroke="black" points="96,-273.5 96,-292.5 176,-292.5 176,-273.5 96,-273.5"/>
<text text-anchor="middle" x="136" y="-280.5" font-family="Helvetica,sans-Serif" font-size="10.00">lua_pushstring</text>
</a>
</g>
</g>
<!-- Node1&#45;&gt;Node2 -->
<g id="edge1" class="edge"><title>Node1&#45;&gt;Node2</title>
<path fill="none" stroke="midnightblue" d="M57.2436,-254.589C69.93,-259.224 85.3527,-264.86 99.1072,-269.885"/>
<polygon fill="midnightblue" stroke="midnightblue" points="98.171,-273.269 108.765,-273.414 100.573,-266.695 98.171,-273.269"/>
</g>
<!-- Node445 -->
<g id="node48" class="node"><title>Node445</title>
<g id="a_node48"><a xlink:href="lapi_8c.html#a652b273947f0656686f998d8e90cd3ea" target="_top" xlink:title=" ">
<polygon fill="white" stroke="black" points="109.5,-235.5 109.5,-254.5 162.5,-254.5 162.5,-235.5 109.5,-235.5"/>
<text text-anchor="middle" x="136" y="-242.5" font-family="Helvetica,sans-Serif" font-size="10.00">lua_type</text>
</a>
</g>
</g>
<!-- Node1&#45;&gt;Node445 -->
<g id="edge58" class="edge"><title>Node1&#45;&gt;Node445</title>
<path fill="none" stroke="midnightblue" d="M60.2466,-245C72.2624,-245 86.2974,-245 98.9405,-245"/>
<polygon fill="midnightblue" stroke="midnightblue" points="99.1585,-248.5 109.159,-245 99.1585,-241.5 99.1585,-248.5"/>
</g>
<!-- Node447 -->
<g id="node50" class="node"><title>Node447</title>
<g id="a_node50"><a xlink:href="lapi_8c.html#a7d64f87addab440bbda96bb088816e17" target="_top" xlink:title=" ">
<polygon fill="white" stroke="black" points="97.5,-197.5 97.5,-216.5 174.5,-216.5 174.5,-197.5 97.5,-197.5"/>
<text text-anchor="middle" x="136" y="-204.5" font-family="Helvetica,sans-Serif" font-size="10.00">lua_typename</text>
</a>
</g>
</g>
<!-- Node1&#45;&gt;Node447 -->
<g id="edge60" class="edge"><title>Node1&#45;&gt;Node447</title>
<path fill="none" stroke="midnightblue" d="M57.2436,-235.411C69.93,-230.776 85.3527,-225.14 99.1072,-220.115"/>
<polygon fill="midnightblue" stroke="midnightblue" points="100.573,-223.305 108.765,-216.586 98.171,-216.731 100.573,-223.305"/>
</g>
<!-- Node3 -->
<g id="node3" class="node"><title>Node3</title>
<g id="a_node3"><a xlink:href="lstring_8c.html#a6d47e53be6b8e58202bb927752f4824b" target="_top" xlink:title=" ">
<polygon fill="white" stroke="black" points="216,-273.5 216,-292.5 275,-292.5 275,-273.5 216,-273.5"/>
<text text-anchor="middle" x="245.5" y="-280.5" font-family="Helvetica,sans-Serif" font-size="10.00">luaS_new</text>
</a>
</g>
</g>
<!-- Node2&#45;&gt;Node3 -->
<g id="edge2" class="edge"><title>Node2&#45;&gt;Node3</title>
<path fill="none" stroke="midnightblue" d="M176.114,-283C185.725,-283 196.012,-283 205.612,-283"/>
<polygon fill="midnightblue" stroke="midnightblue" points="205.695,-286.5 215.695,-283 205.695,-279.5 205.695,-286.5"/>
</g>
<!-- Node4 -->
<g id="node4" class="node"><title>Node4</title>
<g id="a_node4"><a xlink:href="lstring_8c.html#ab41fb084ce3ea5e2779f6659ccc2484d" target="_top" xlink:title=" ">
<polygon fill="white" stroke="black" points="315,-273.5 315,-292.5 387,-292.5 387,-273.5 315,-273.5"/>
<text text-anchor="middle" x="351" y="-280.5" font-family="Helvetica,sans-Serif" font-size="10.00">luaS_newlstr</text>
</a>
</g>
</g>
<!-- Node3&#45;&gt;Node4 -->
<g id="edge3" class="edge"><title>Node3&#45;&gt;Node4</title>
<path fill="none" stroke="midnightblue" d="M275.056,-283C284.204,-283 294.571,-283 304.614,-283"/>
<polygon fill="midnightblue" stroke="midnightblue" points="304.898,-286.5 314.898,-283 304.898,-279.5 304.898,-286.5"/>
</g>
<!-- Node5 -->
<g id="node5" class="node"><title>Node5</title>
<g id="a_node5"><a xlink:href="lstring_8c.html#a9b2c32c59a280de24f20df1c7f0433a1" target="_top" xlink:title=" ">
<polygon fill="white" stroke="black" points="443,-339.5 443,-358.5 508,-358.5 508,-339.5 443,-339.5"/>
<text text-anchor="middle" x="475.5" y="-346.5" font-family="Helvetica,sans-Serif" font-size="10.00">internshrstr</text>
</a>
</g>
</g>
<!-- Node4&#45;&gt;Node5 -->
<g id="edge4" class="edge"><title>Node4&#45;&gt;Node5</title>
<path fill="none" stroke="midnightblue" d="M369.813,-292.597C390.316,-303.644 424.199,-321.899 447.846,-334.639"/>
<polygon fill="midnightblue" stroke="midnightblue" points="446.202,-337.73 456.666,-339.391 449.522,-331.567 446.202,-337.73"/>
</g>
<!-- Node444 -->
<g id="node24" class="node"><title>Node444</title>
<g id="a_node24"><a xlink:href="lmem_8c.html#a8fc7df43dd830ccbe7581fd53f65bdbe" target="_top" xlink:title=" ">
<polygon fill="white" stroke="black" points="441,-197.5 441,-216.5 510,-216.5 510,-197.5 441,-197.5"/>
<text text-anchor="middle" x="475.5" y="-204.5" font-family="Helvetica,sans-Serif" font-size="10.00">luaM_toobig</text>
</a>
</g>
</g>
<!-- Node4&#45;&gt;Node444 -->
<g id="edge24" class="edge"><title>Node4&#45;&gt;Node444</title>
<path fill="none" stroke="midnightblue" d="M367.515,-273.375C388.409,-260.412 425.8,-237.214 450.379,-221.965"/>
<polygon fill="midnightblue" stroke="midnightblue" points="452.459,-224.793 459.111,-216.547 448.769,-218.845 452.459,-224.793"/>
</g>
<!-- Node86 -->
<g id="node47" class="node"><title>Node86</title>
<g id="a_node47"><a xlink:href="lstring_8c.html#a8790c7d6e706f935dd6e9eefd068921c" target="_top" xlink:title=" ">
<polygon fill="white" stroke="black" points="423,-396.5 423,-415.5 528,-415.5 528,-396.5 423,-396.5"/>
<text text-anchor="middle" x="475.5" y="-403.5" font-family="Helvetica,sans-Serif" font-size="10.00">luaS_createlngstrobj</text>
</a>
</g>
</g>
<!-- Node4&#45;&gt;Node86 -->
<g id="edge56" class="edge"><title>Node4&#45;&gt;Node86</title>
<path fill="none" stroke="midnightblue" d="M358.796,-292.561C370.728,-308.995 396.682,-343.22 423,-368 431.583,-376.081 441.897,-383.991 451.033,-390.483"/>
<polygon fill="midnightblue" stroke="midnightblue" points="449.123,-393.417 459.337,-396.233 453.108,-387.662 449.123,-393.417"/>
</g>
<!-- Node6 -->
<g id="node6" class="node"><title>Node6</title>
<g id="a_node6"><a xlink:href="lstring_8c.html#a85a1a917ef263701e47c36e68011d917" target="_top" xlink:title=" ">
<polygon fill="white" stroke="black" points="567.5,-406.5 567.5,-425.5 635.5,-425.5 635.5,-406.5 567.5,-406.5"/>
<text text-anchor="middle" x="601.5" y="-413.5" font-family="Helvetica,sans-Serif" font-size="10.00">createstrobj</text>
</a>
</g>
</g>
<!-- Node5&#45;&gt;Node6 -->
<g id="edge5" class="edge"><title>Node5&#45;&gt;Node6</title>
<path fill="none" stroke="midnightblue" d="M493.871,-358.675C511.483,-368.449 539.551,-383.932 564,-397 566.898,-398.549 569.933,-400.155 572.963,-401.747"/>
<polygon fill="midnightblue" stroke="midnightblue" points="571.406,-404.883 581.89,-406.412 574.648,-398.679 571.406,-404.883"/>
</g>
<!-- Node8 -->
<g id="node8" class="node"><title>Node8</title>
<g id="a_node8"><a xlink:href="lstring_8c.html#af8b89b01dc2db9f0d3024067ffdb931a" target="_top" xlink:title=" ">
<polygon fill="white" stroke="black" points="570.5,-330.5 570.5,-349.5 632.5,-349.5 632.5,-330.5 570.5,-330.5"/>
<text text-anchor="middle" x="601.5" y="-337.5" font-family="Helvetica,sans-Serif" font-size="10.00">growstrtab</text>
</a>
</g>
</g>
<!-- Node5&#45;&gt;Node8 -->
<g id="edge7" class="edge"><title>Node5&#45;&gt;Node8</title>
<path fill="none" stroke="midnightblue" d="M508.111,-346.706C523.917,-345.558 543.224,-344.157 560.094,-342.933"/>
<polygon fill="midnightblue" stroke="midnightblue" points="560.509,-346.412 570.229,-342.197 560.002,-339.43 560.509,-346.412"/>
</g>
<!-- Node160 -->
<g id="node23" class="node"><title>Node160</title>
<g id="a_node23"><a xlink:href="lstring_8c.html#ac453c0e85b7bb4e9b146fc140b1b7c9e" target="_top" xlink:title=" ">
<polygon fill="white" stroke="black" points="570.5,-368.5 570.5,-387.5 632.5,-387.5 632.5,-368.5 570.5,-368.5"/>
<text text-anchor="middle" x="601.5" y="-375.5" font-family="Helvetica,sans-Serif" font-size="10.00">luaS_hash</text>
</a>
</g>
</g>
<!-- Node5&#45;&gt;Node160 -->
<g id="edge23" class="edge"><title>Node5&#45;&gt;Node160</title>
<path fill="none" stroke="midnightblue" d="M508.111,-356.393C523.917,-360.09 543.224,-364.605 560.094,-368.55"/>
<polygon fill="midnightblue" stroke="midnightblue" points="559.695,-372.051 570.229,-370.921 561.289,-365.235 559.695,-372.051"/>
</g>
<!-- Node7 -->
<g id="node7" class="node"><title>Node7</title>
<g id="a_node7"><a xlink:href="lgc_8c.html#abfc8404c5fbd2a1770202fa0b087d451" target="_top" xlink:title=" ">
<polygon fill="white" stroke="black" points="679.5,-406.5 679.5,-425.5 750.5,-425.5 750.5,-406.5 679.5,-406.5"/>
<text text-anchor="middle" x="715" y="-413.5" font-family="Helvetica,sans-Serif" font-size="10.00">luaC_newobj</text>
</a>
</g>
</g>
<!-- Node6&#45;&gt;Node7 -->
<g id="edge6" class="edge"><title>Node6&#45;&gt;Node7</title>
<path fill="none" stroke="midnightblue" d="M635.652,-416C646.17,-416 657.979,-416 669.176,-416"/>
<polygon fill="midnightblue" stroke="midnightblue" points="669.233,-419.5 679.233,-416 669.233,-412.5 669.233,-419.5"/>
</g>
<!-- Node9 -->
<g id="node9" class="node"><title>Node9</title>
<g id="a_node9"><a xlink:href="lgc_8c.html#ac48130e5263ad8be09a9c51dae6125b9" target="_top" xlink:title=" ">
<polygon fill="white" stroke="black" points="683,-368.5 683,-387.5 747,-387.5 747,-368.5 683,-368.5"/>
<text text-anchor="middle" x="715" y="-375.5" font-family="Helvetica,sans-Serif" font-size="10.00">luaC_fullgc</text>
</a>
</g>
</g>
<!-- Node8&#45;&gt;Node9 -->
<g id="edge8" class="edge"><title>Node8&#45;&gt;Node9</title>
<path fill="none" stroke="midnightblue" d="M630.636,-349.589C644.502,-354.314 661.416,-360.079 676.376,-365.177"/>
<polygon fill="midnightblue" stroke="midnightblue" points="675.278,-368.501 685.873,-368.414 677.537,-361.875 675.278,-368.501"/>
</g>
<!-- Node418 -->
<g id="node21" class="node"><title>Node418</title>
<g id="a_node21"><a xlink:href="lstring_8c.html#ad47f5961683a728dd3f6d80040d1dd92" target="_top" xlink:title=" ">
<polygon fill="white" stroke="black" points="681,-330.5 681,-349.5 749,-349.5 749,-330.5 681,-330.5"/>
<text text-anchor="middle" x="715" y="-337.5" font-family="Helvetica,sans-Serif" font-size="10.00">luaS_resize</text>
</a>
</g>
</g>
<!-- Node8&#45;&gt;Node418 -->
<g id="edge21" class="edge"><title>Node8&#45;&gt;Node418</title>
<path fill="none" stroke="midnightblue" d="M632.674,-340C644.262,-340 657.734,-340 670.339,-340"/>
<polygon fill="midnightblue" stroke="midnightblue" points="670.663,-343.5 680.663,-340 670.663,-336.5 670.663,-343.5"/>
</g>
<!-- Node10 -->
<g id="node10" class="node"><title>Node10</title>
<g id="a_node10"><a xlink:href="lgc_8c.html#a270a46ab08adc0bb728eeb67b5cc45a9" target="_top" xlink:title=" ">
<polygon fill="white" stroke="black" points="813.5,-368.5 813.5,-387.5 857.5,-387.5 857.5,-368.5 813.5,-368.5"/>
<text text-anchor="middle" x="835.5" y="-375.5" font-family="Helvetica,sans-Serif" font-size="10.00">fullgen</text>
</a>
</g>
</g>
<!-- Node9&#45;&gt;Node10 -->
<g id="edge9" class="edge"><title>Node9&#45;&gt;Node10</title>
<path fill="none" stroke="midnightblue" d="M747.134,-378C764.398,-378 785.807,-378 803.11,-378"/>
<polygon fill="midnightblue" stroke="midnightblue" points="803.28,-381.5 813.28,-378 803.28,-374.5 803.28,-381.5"/>
</g>
<!-- Node441 -->
<g id="node17" class="node"><title>Node441</title>
<g id="a_node17"><a xlink:href="lgc_8c.html#ac6dccdcfb264cbc5f1776cea79c8e375" target="_top" xlink:title=" ">
<polygon fill="white" stroke="black" points="815,-425.5 815,-444.5 856,-444.5 856,-425.5 815,-425.5"/>
<text text-anchor="middle" x="835.5" y="-432.5" font-family="Helvetica,sans-Serif" font-size="10.00">fullinc</text>
</a>
</g>
</g>
<!-- Node9&#45;&gt;Node441 -->
<g id="edge16" class="edge"><title>Node9&#45;&gt;Node441</title>
<path fill="none" stroke="midnightblue" d="M735.834,-387.541C755.004,-396.761 784.247,-410.828 805.926,-421.255"/>
<polygon fill="midnightblue" stroke="midnightblue" points="804.467,-424.437 814.995,-425.618 807.501,-418.129 804.467,-424.437"/>
</g>
<!-- Node11 -->
<g id="node11" class="node"><title>Node11</title>
<g id="a_node11"><a xlink:href="lgc_8c.html#a2f8aa4c5cfd7f907a35deaa695ca4d3b" target="_top" xlink:title=" ">
<polygon fill="white" stroke="black" points="935.5,-330.5 935.5,-349.5 989.5,-349.5 989.5,-330.5 935.5,-330.5"/>
<text text-anchor="middle" x="962.5" y="-337.5" font-family="Helvetica,sans-Serif" font-size="10.00">entergen</text>
</a>
</g>
</g>
<!-- Node10&#45;&gt;Node11 -->
<g id="edge10" class="edge"><title>Node10&#45;&gt;Node11</title>
<path fill="none" stroke="midnightblue" d="M857.705,-371.554C876.309,-365.898 903.749,-357.556 925.744,-350.87"/>
<polygon fill="midnightblue" stroke="midnightblue" points="926.865,-354.187 935.415,-347.93 924.829,-347.49 926.865,-354.187"/>
</g>
<!-- Node439 -->
<g id="node15" class="node"><title>Node439</title>
<g id="a_node15"><a xlink:href="lgc_8c.html#afed5a93f2093f2a754fb26f31b5207b0" target="_top" xlink:title=" ">
<polygon fill="white" stroke="black" points="937,-368.5 937,-387.5 988,-387.5 988,-368.5 937,-368.5"/>
<text text-anchor="middle" x="962.5" y="-375.5" font-family="Helvetica,sans-Serif" font-size="10.00">enterinc</text>
</a>
</g>
</g>
<!-- Node10&#45;&gt;Node439 -->
<g id="edge14" class="edge"><title>Node10&#45;&gt;Node439</title>
<path fill="none" stroke="midnightblue" d="M857.705,-378C876.586,-378 904.568,-378 926.722,-378"/>
<polygon fill="midnightblue" stroke="midnightblue" points="926.75,-381.5 936.75,-378 926.75,-374.5 926.75,-381.5"/>
</g>
<!-- Node12 -->
<g id="node12" class="node"><title>Node12</title>
<g id="a_node12"><a xlink:href="lgc_8c.html#a41eded2c85eaf7e1911cd95da36882d9" target="_top" xlink:title=" ">
<polygon fill="white" stroke="red" points="1064,-330.5 1064,-349.5 1110,-349.5 1110,-330.5 1064,-330.5"/>
<text text-anchor="middle" x="1087" y="-337.5" font-family="Helvetica,sans-Serif" font-size="10.00">atomic</text>
</a>
</g>
</g>
<!-- Node11&#45;&gt;Node12 -->
<g id="edge11" class="edge"><title>Node11&#45;&gt;Node12</title>
<path fill="none" stroke="midnightblue" d="M989.779,-340C1008.49,-340 1033.75,-340 1053.69,-340"/>
<polygon fill="midnightblue" stroke="midnightblue" points="1053.86,-343.5 1063.86,-340 1053.86,-336.5 1053.86,-343.5"/>
</g>
<!-- Node44 -->
<g id="node13" class="node"><title>Node44</title>
<g id="a_node13"><a xlink:href="lgc_8c.html#a12beeec7fb7ed46e54b5e7633db83ad9" target="_top" xlink:title=" ">
<polygon fill="white" stroke="red" points="1053.5,-292.5 1053.5,-311.5 1120.5,-311.5 1120.5,-292.5 1053.5,-292.5"/>
<text text-anchor="middle" x="1087" y="-299.5" font-family="Helvetica,sans-Serif" font-size="10.00">atomic2gen</text>
</a>
</g>
</g>
<!-- Node11&#45;&gt;Node44 -->
<g id="edge12" class="edge"><title>Node11&#45;&gt;Node44</title>
<path fill="none" stroke="midnightblue" d="M989.779,-331.848C1005.99,-326.82 1027.11,-320.268 1045.44,-314.583"/>
<polygon fill="midnightblue" stroke="midnightblue" points="1046.48,-317.922 1055,-311.617 1044.41,-311.237 1046.48,-317.922"/>
</g>
<!-- Node431 -->
<g id="node14" class="node"><title>Node431</title>
<g id="a_node14"><a xlink:href="lgc_8c.html#a97086b84273579d4c9b42a782f30410d" target="_top" xlink:title=" ">
<polygon fill="white" stroke="red" points="1045,-406.5 1045,-425.5 1129,-425.5 1129,-406.5 1045,-406.5"/>
<text text-anchor="middle" x="1087" y="-413.5" font-family="Helvetica,sans-Serif" font-size="10.00">luaC_runtilstate</text>
</a>
</g>
</g>
<!-- Node11&#45;&gt;Node431 -->
<g id="edge13" class="edge"><title>Node11&#45;&gt;Node431</title>
<path fill="none" stroke="midnightblue" d="M989.503,-348.675C996.148,-351.467 1003.08,-354.916 1009,-359 1028.15,-372.213 1026.11,-383.422 1045,-397 1047.33,-398.674 1049.83,-400.258 1052.4,-401.742"/>
<polygon fill="midnightblue" stroke="midnightblue" points="1050.82,-404.865 1061.31,-406.397 1054.07,-398.661 1050.82,-404.865"/>
</g>
<!-- Node440 -->
<g id="node16" class="node"><title>Node440</title>
<g id="a_node16"><a xlink:href="lgc_8c.html#a7bb7ff4928b82e65d5844fcaca7d59d8" target="_top" xlink:title=" ">
<polygon fill="white" stroke="black" points="1061,-368.5 1061,-387.5 1113,-387.5 1113,-368.5 1061,-368.5"/>
<text text-anchor="middle" x="1087" y="-375.5" font-family="Helvetica,sans-Serif" font-size="10.00">whitelist</text>
</a>
</g>
</g>
<!-- Node439&#45;&gt;Node440 -->
<g id="edge15" class="edge"><title>Node439&#45;&gt;Node440</title>
<path fill="none" stroke="midnightblue" d="M988.29,-378C1006.19,-378 1030.61,-378 1050.57,-378"/>
<polygon fill="midnightblue" stroke="midnightblue" points="1050.83,-381.5 1060.83,-378 1050.83,-374.5 1050.83,-381.5"/>
</g>
<!-- Node441&#45;&gt;Node431 -->
<g id="edge19" class="edge"><title>Node441&#45;&gt;Node431</title>
<path fill="none" stroke="midnightblue" d="M856.078,-433.509C894.174,-430.608 979.378,-424.119 1034.68,-419.908"/>
<polygon fill="midnightblue" stroke="midnightblue" points="1035.28,-423.373 1044.98,-419.123 1034.75,-416.393 1035.28,-423.373"/>
</g>
<!-- Node433 -->
<g id="node18" class="node"><title>Node433</title>
<g id="a_node18"><a xlink:href="lgc_8c.html#aea46d650b68fac11368a752058b80ab7" target="_top" xlink:title=" ">
<polygon fill="white" stroke="black" points="929.5,-444.5 929.5,-463.5 995.5,-463.5 995.5,-444.5 929.5,-444.5"/>
<text text-anchor="middle" x="962.5" y="-451.5" font-family="Helvetica,sans-Serif" font-size="10.00">entersweep</text>
</a>
</g>
</g>
<!-- Node441&#45;&gt;Node433 -->
<g id="edge17" class="edge"><title>Node441&#45;&gt;Node433</title>
<path fill="none" stroke="midnightblue" d="M856.031,-437.969C872.908,-440.534 897.886,-444.331 919.298,-447.585"/>
<polygon fill="midnightblue" stroke="midnightblue" points="919.059,-451.089 929.472,-449.132 920.111,-444.169 919.059,-451.089"/>
</g>
<!-- Node442 -->
<g id="node20" class="node"><title>Node442</title>
<g id="a_node20"><a xlink:href="lgc_8c.html#ab1a2b0658321a52d5ae0c139b0bf5494" target="_top" xlink:title=" ">
<polygon fill="white" stroke="red" points="934.5,-482.5 934.5,-501.5 990.5,-501.5 990.5,-482.5 934.5,-482.5"/>
<text text-anchor="middle" x="962.5" y="-489.5" font-family="Helvetica,sans-Serif" font-size="10.00">setpause</text>
</a>
</g>
</g>
<!-- Node441&#45;&gt;Node442 -->
<g id="edge20" class="edge"><title>Node441&#45;&gt;Node442</title>
<path fill="none" stroke="midnightblue" d="M855.975,-444.646C871.992,-452.497 895.334,-463.753 916,-473 919.956,-474.77 924.126,-476.583 928.272,-478.353"/>
<polygon fill="midnightblue" stroke="midnightblue" points="927.213,-481.705 937.788,-482.363 929.932,-475.254 927.213,-481.705"/>
</g>
<!-- Node434 -->
<g id="node19" class="node"><title>Node434</title>
<g id="a_node19"><a xlink:href="lgc_8c.html#ab518b7adba50d2e796e206dbc96a9d52" target="_top" xlink:title=" ">
<polygon fill="white" stroke="red" points="1054,-444.5 1054,-463.5 1120,-463.5 1120,-444.5 1054,-444.5"/>
<text text-anchor="middle" x="1087" y="-451.5" font-family="Helvetica,sans-Serif" font-size="10.00">sweeptolive</text>
</a>
</g>
</g>
<!-- Node433&#45;&gt;Node434 -->
<g id="edge18" class="edge"><title>Node433&#45;&gt;Node434</title>
<path fill="none" stroke="midnightblue" d="M995.685,-454C1010.34,-454 1027.88,-454 1043.59,-454"/>
<polygon fill="midnightblue" stroke="midnightblue" points="1043.6,-457.5 1053.6,-454 1043.6,-450.5 1043.6,-457.5"/>
</g>
<!-- Node419 -->
<g id="node22" class="node"><title>Node419</title>
<g id="a_node22"><a xlink:href="lstring_8c.html#ac41b2b64cecf29c5efc29a7423e697a6" target="_top" xlink:title=" ">
<polygon fill="white" stroke="black" points="802,-330.5 802,-349.5 869,-349.5 869,-330.5 802,-330.5"/>
<text text-anchor="middle" x="835.5" y="-337.5" font-family="Helvetica,sans-Serif" font-size="10.00">tablerehash</text>
</a>
</g>
</g>
<!-- Node418&#45;&gt;Node419 -->
<g id="edge22" class="edge"><title>Node418&#45;&gt;Node419</title>
<path fill="none" stroke="midnightblue" d="M749.009,-340C762.106,-340 777.347,-340 791.303,-340"/>
<polygon fill="midnightblue" stroke="midnightblue" points="791.668,-343.5 801.668,-340 791.668,-336.5 791.668,-343.5"/>
</g>
<!-- Node72 -->
<g id="node25" class="node"><title>Node72</title>
<g id="a_node25"><a xlink:href="ldebug_8c.html#a88d38ca5da2e7a1492fc9d5ad70c32c5" target="_top" xlink:title=" ">
<polygon fill="white" stroke="black" points="564,-155.5 564,-174.5 639,-174.5 639,-155.5 564,-155.5"/>
<text text-anchor="middle" x="601.5" y="-162.5" font-family="Helvetica,sans-Serif" font-size="10.00">luaG_runerror</text>
</a>
</g>
</g>
<!-- Node444&#45;&gt;Node72 -->
<g id="edge25" class="edge"><title>Node444&#45;&gt;Node72</title>
<path fill="none" stroke="midnightblue" d="M504.638,-197.47C521.718,-191.684 543.745,-184.223 562.377,-177.913"/>
<polygon fill="midnightblue" stroke="midnightblue" points="563.696,-181.161 572.045,-174.638 561.45,-174.531 563.696,-181.161"/>
</g>
<!-- Node73 -->
<g id="node26" class="node"><title>Node73</title>
<g id="a_node26"><a xlink:href="ldebug_8c.html#ad6bc24d619df8e849e2ae8b00455d86f" target="_top" xlink:title=" ">
<polygon fill="white" stroke="black" points="677.5,-254.5 677.5,-273.5 752.5,-273.5 752.5,-254.5 677.5,-254.5"/>
<text text-anchor="middle" x="715" y="-261.5" font-family="Helvetica,sans-Serif" font-size="10.00">getcurrentline</text>
</a>
</g>
</g>
<!-- Node72&#45;&gt;Node73 -->
<g id="edge26" class="edge"><title>Node72&#45;&gt;Node73</title>
<path fill="none" stroke="midnightblue" d="M613.599,-174.854C632.815,-191.917 672.459,-227.116 695.77,-247.814"/>
<polygon fill="midnightblue" stroke="midnightblue" points="693.472,-250.454 703.274,-254.477 698.12,-245.22 693.472,-250.454"/>
</g>
<!-- Node76 -->
<g id="node30" class="node"><title>Node76</title>
<g id="a_node30"><a xlink:href="ldebug_8c.html#a7e1dc7518150bf19bd9aa5dda166a2eb" target="_top" xlink:title=" ">
<polygon fill="white" stroke="black" points="678.5,-178.5 678.5,-197.5 751.5,-197.5 751.5,-178.5 678.5,-178.5"/>
<text text-anchor="middle" x="715" y="-185.5" font-family="Helvetica,sans-Serif" font-size="10.00">luaG_addinfo</text>
</a>
</g>
</g>
<!-- Node72&#45;&gt;Node76 -->
<g id="edge30" class="edge"><title>Node72&#45;&gt;Node76</title>
<path fill="none" stroke="midnightblue" d="M639.009,-172.531C648.343,-174.456 658.496,-176.551 668.23,-178.559"/>
<polygon fill="midnightblue" stroke="midnightblue" points="667.668,-182.016 678.169,-180.609 669.083,-175.161 667.668,-182.016"/>
</g>
<!-- Node79 -->
<g id="node33" class="node"><title>Node79</title>
<g id="a_node33"><a xlink:href="lobject_8c.html#aa83fa444a36d79521e846a766fa083d5" target="_top" xlink:title=" ">
<polygon fill="white" stroke="black" points="916,-142.5 916,-161.5 1009,-161.5 1009,-142.5 916,-142.5"/>
<text text-anchor="middle" x="962.5" y="-149.5" font-family="Helvetica,sans-Serif" font-size="10.00">luaO_pushvfstring</text>
</a>
</g>
</g>
<!-- Node72&#45;&gt;Node79 -->
<g id="edge55" class="edge"><title>Node72&#45;&gt;Node79</title>
<path fill="none" stroke="midnightblue" d="M639.232,-159.378C702.297,-154.093 831.529,-149.16 905.754,-148.968"/>
<polygon fill="midnightblue" stroke="midnightblue" points="905.848,-152.468 915.85,-148.973 905.852,-145.468 905.848,-152.468"/>
</g>
<!-- Node108 -->
<g id="node41" class="node"><title>Node108</title>
<g id="a_node41"><a xlink:href="ldebug_8c.html#af7366920f8408bb33ed01b1d6c0e1238" target="_top" xlink:title=" ">
<polygon fill="white" stroke="black" points="675,-66.5 675,-85.5 755,-85.5 755,-66.5 675,-66.5"/>
<text text-anchor="middle" x="715" y="-73.5" font-family="Helvetica,sans-Serif" font-size="10.00">luaG_errormsg</text>
</a>
</g>
</g>
<!-- Node72&#45;&gt;Node108 -->
<g id="edge48" class="edge"><title>Node72&#45;&gt;Node108</title>
<path fill="none" stroke="midnightblue" d="M614.432,-155.475C633.446,-140.299 670.828,-110.46 693.987,-91.9746"/>
<polygon fill="midnightblue" stroke="midnightblue" points="696.183,-94.6998 701.815,-85.7259 691.816,-89.2289 696.183,-94.6998"/>
</g>
<!-- Node69 -->
<g id="node27" class="node"><title>Node69</title>
<g id="a_node27"><a xlink:href="ldebug_8c.html#a7db2a3f5cbcf0ac3ef6d4cfa15ab4dbc" target="_top" xlink:title=" ">
<polygon fill="white" stroke="black" points="807,-254.5 807,-273.5 864,-273.5 864,-254.5 807,-254.5"/>
<text text-anchor="middle" x="835.5" y="-261.5" font-family="Helvetica,sans-Serif" font-size="10.00">currentpc</text>
</a>
</g>
</g>
<!-- Node73&#45;&gt;Node69 -->
<g id="edge27" class="edge"><title>Node73&#45;&gt;Node69</title>
<path fill="none" stroke="midnightblue" d="M752.521,-264C766.502,-264 782.473,-264 796.582,-264"/>
<polygon fill="midnightblue" stroke="midnightblue" points="796.945,-267.5 806.945,-264 796.945,-260.5 796.945,-267.5"/>
</g>
<!-- Node74 -->
<g id="node28" class="node"><title>Node74</title>
<g id="a_node28"><a xlink:href="ldebug_8c.html#ae7a6d2f88b11cc05758e44acd433ee2f" target="_top" xlink:title=" ">
<polygon fill="white" stroke="black" points="791,-292.5 791,-311.5 880,-311.5 880,-292.5 791,-292.5"/>
<text text-anchor="middle" x="835.5" y="-299.5" font-family="Helvetica,sans-Serif" font-size="10.00">luaG_getfuncline</text>
</a>
</g>
</g>
<!-- Node73&#45;&gt;Node74 -->
<g id="edge28" class="edge"><title>Node73&#45;&gt;Node74</title>
<path fill="none" stroke="midnightblue" d="M745.903,-273.589C760.779,-278.359 778.957,-284.189 794.967,-289.323"/>
<polygon fill="midnightblue" stroke="midnightblue" points="794.016,-292.693 804.607,-292.414 796.153,-286.028 794.016,-292.693"/>
</g>
<!-- Node75 -->
<g id="node29" class="node"><title>Node75</title>
<g id="a_node29"><a xlink:href="ldebug_8c.html#a355ee1f29ee39ff665aa01ef4493f453" target="_top" xlink:title=" ">
<polygon fill="white" stroke="black" points="929.5,-292.5 929.5,-311.5 995.5,-311.5 995.5,-292.5 929.5,-292.5"/>
<text text-anchor="middle" x="962.5" y="-299.5" font-family="Helvetica,sans-Serif" font-size="10.00">getbaseline</text>
</a>
</g>
</g>
<!-- Node74&#45;&gt;Node75 -->
<g id="edge29" class="edge"><title>Node74&#45;&gt;Node75</title>
<path fill="none" stroke="midnightblue" d="M880.219,-302C892.869,-302 906.652,-302 919.213,-302"/>
<polygon fill="midnightblue" stroke="midnightblue" points="919.426,-305.5 929.426,-302 919.426,-298.5 919.426,-305.5"/>
</g>
<!-- Node77 -->
<g id="node31" class="node"><title>Node77</title>
<g id="a_node31"><a xlink:href="lobject_8c.html#ac331b4119bbeb45a8a7e5a1afe553b2e" target="_top" xlink:title=" ">
<polygon fill="white" stroke="black" points="797.5,-178.5 797.5,-197.5 873.5,-197.5 873.5,-178.5 797.5,-178.5"/>
<text text-anchor="middle" x="835.5" y="-185.5" font-family="Helvetica,sans-Serif" font-size="10.00">luaO_chunkid</text>
</a>
</g>
</g>
<!-- Node76&#45;&gt;Node77 -->
<g id="edge31" class="edge"><title>Node76&#45;&gt;Node77</title>
<path fill="none" stroke="midnightblue" d="M751.554,-188C762.732,-188 775.258,-188 787.121,-188"/>
<polygon fill="midnightblue" stroke="midnightblue" points="787.326,-191.5 797.326,-188 787.326,-184.5 787.326,-191.5"/>
</g>
<!-- Node78 -->
<g id="node32" class="node"><title>Node78</title>
<g id="a_node32"><a xlink:href="lobject_8c.html#a8e224db7123c74d695076a96d1bfda61" target="_top" xlink:title=" ">
<polygon fill="white" stroke="black" points="791,-216.5 791,-235.5 880,-235.5 880,-216.5 791,-216.5"/>
<text text-anchor="middle" x="835.5" y="-223.5" font-family="Helvetica,sans-Serif" font-size="10.00">luaO_pushfstring</text>
</a>
</g>
</g>
<!-- Node76&#45;&gt;Node78 -->
<g id="edge32" class="edge"><title>Node76&#45;&gt;Node78</title>
<path fill="none" stroke="midnightblue" d="M745.903,-197.589C760.779,-202.359 778.957,-208.189 794.967,-213.323"/>
<polygon fill="midnightblue" stroke="midnightblue" points="794.016,-216.693 804.607,-216.414 796.153,-210.028 794.016,-216.693"/>
</g>
<!-- Node78&#45;&gt;Node79 -->
<g id="edge33" class="edge"><title>Node78&#45;&gt;Node79</title>
<path fill="none" stroke="midnightblue" d="M860.808,-216.311C867.165,-213.528 873.934,-210.335 880,-207 901.581,-195.134 924.724,-179.173 940.813,-167.502"/>
<polygon fill="midnightblue" stroke="midnightblue" points="942.982,-170.252 948.971,-161.512 938.839,-164.609 942.982,-170.252"/>
</g>
<!-- Node79&#45;&gt;Node72 -->
<g id="edge46" class="edge"><title>Node79&#45;&gt;Node72</title>
<path fill="none" stroke="midnightblue" d="M915.85,-158.334C847.349,-163.557 718.637,-168.234 649.407,-168.032"/>
<polygon fill="midnightblue" stroke="midnightblue" points="649.256,-164.531 639.232,-167.961 649.208,-171.53 649.256,-164.531"/>
</g>
<!-- Node80 -->
<g id="node34" class="node"><title>Node80</title>
<g id="a_node34"><a xlink:href="lobject_8c.html#a1d02fb9304e4700ce1fd20e34ae68784" target="_top" xlink:title=" ">
<polygon fill="white" stroke="black" points="1051.5,-180.5 1051.5,-199.5 1122.5,-199.5 1122.5,-180.5 1051.5,-180.5"/>
<text text-anchor="middle" x="1087" y="-187.5" font-family="Helvetica,sans-Serif" font-size="10.00">addnum2buff</text>
</a>
</g>
</g>
<!-- Node79&#45;&gt;Node80 -->
<g id="edge34" class="edge"><title>Node79&#45;&gt;Node80</title>
<path fill="none" stroke="midnightblue" d="M994.412,-161.589C1009.79,-166.359 1028.58,-172.189 1045.13,-177.323"/>
<polygon fill="midnightblue" stroke="midnightblue" points="1044.51,-180.794 1055.1,-180.414 1046.58,-174.108 1044.51,-180.794"/>
</g>
<!-- Node81 -->
<g id="node35" class="node"><title>Node81</title>
<g id="a_node35"><a xlink:href="lobject_8c.html#ac4ab924f2ea45ef73319f1159033eab1" target="_top" xlink:title=" ">
<polygon fill="white" stroke="black" points="1174.5,-104.5 1174.5,-123.5 1219.5,-123.5 1219.5,-104.5 1174.5,-104.5"/>
<text text-anchor="middle" x="1197" y="-111.5" font-family="Helvetica,sans-Serif" font-size="10.00">getbuff</text>
</a>
</g>
</g>
<!-- Node79&#45;&gt;Node81 -->
<g id="edge45" class="edge"><title>Node79&#45;&gt;Node81</title>
<path fill="none" stroke="midnightblue" d="M1000.66,-142.48C1014.51,-139.157 1030.41,-135.611 1045,-133 1085.95,-125.671 1133.64,-120.171 1164.3,-117.021"/>
<polygon fill="midnightblue" stroke="midnightblue" points="1164.79,-120.49 1174.39,-116.006 1164.09,-113.525 1164.79,-120.49"/>
</g>
<!-- Node82 -->
<g id="node36" class="node"><title>Node82</title>
<g id="a_node36"><a xlink:href="lobject_8c.html#a6ec2716e64cd75e3e6614a87ee92e4d2" target="_top" xlink:title=" ">
<polygon fill="white" stroke="black" points="1265,-85.5 1265,-104.5 1318,-104.5 1318,-85.5 1265,-85.5"/>
<text text-anchor="middle" x="1291.5" y="-92.5" font-family="Helvetica,sans-Serif" font-size="10.00">clearbuff</text>
</a>
</g>
</g>
<!-- Node79&#45;&gt;Node82 -->
<g id="edge44" class="edge"><title>Node79&#45;&gt;Node82</title>
<path fill="none" stroke="midnightblue" d="M972.946,-161.619C987.107,-175.276 1015.36,-199.662 1045,-209 1123,-233.57 1158.78,-250.907 1229,-209 1263.45,-188.439 1279.76,-141.164 1286.47,-114.399"/>
<polygon fill="midnightblue" stroke="midnightblue" points="1289.89,-115.158 1288.72,-104.627 1283.07,-113.586 1289.89,-115.158"/>
</g>
<!-- Node106 -->
<g id="node39" class="node"><title>Node106</title>
<g id="a_node39"><a xlink:href="lobject_8c.html#a874ab64f433ee35f2197a81e10452cb1" target="_top" xlink:title=" ">
<polygon fill="white" stroke="black" points="1055,-66.5 1055,-85.5 1119,-85.5 1119,-66.5 1055,-66.5"/>
<text text-anchor="middle" x="1087" y="-73.5" font-family="Helvetica,sans-Serif" font-size="10.00">addstr2buff</text>
</a>
</g>
</g>
<!-- Node79&#45;&gt;Node106 -->
<g id="edge40" class="edge"><title>Node79&#45;&gt;Node106</title>
<path fill="none" stroke="midnightblue" d="M990.742,-142.433C996.952,-139.765 1003.37,-136.596 1009,-133 1027.29,-121.31 1027.54,-112.888 1045,-100 1049.29,-96.8365 1054.02,-93.7414 1058.7,-90.8817"/>
<polygon fill="midnightblue" stroke="midnightblue" points="1060.66,-93.7937 1067.51,-85.7163 1057.12,-87.7551 1060.66,-93.7937"/>
</g>
<!-- Node107 -->
<g id="node40" class="node"><title>Node107</title>
<g id="a_node40"><a xlink:href="lobject_8c.html#af3136de4693789b08f78aafda9604676" target="_top" xlink:title=" ">
<polygon fill="white" stroke="black" points="1050,-142.5 1050,-161.5 1124,-161.5 1124,-142.5 1050,-142.5"/>
<text text-anchor="middle" x="1087" y="-149.5" font-family="Helvetica,sans-Serif" font-size="10.00">luaO_utf8esc</text>
</a>
</g>
</g>
<!-- Node79&#45;&gt;Node107 -->
<g id="edge47" class="edge"><title>Node79&#45;&gt;Node107</title>
<path fill="none" stroke="midnightblue" d="M1009.11,-152C1019.11,-152 1029.7,-152 1039.72,-152"/>
<polygon fill="midnightblue" stroke="midnightblue" points="1039.91,-155.5 1049.91,-152 1039.91,-148.5 1039.91,-155.5"/>
</g>
<!-- Node80&#45;&gt;Node81 -->
<g id="edge35" class="edge"><title>Node80&#45;&gt;Node81</title>
<path fill="none" stroke="midnightblue" d="M1111.57,-180.406C1117.43,-177.664 1123.58,-174.468 1129,-171 1147.32,-159.272 1166,-142.949 1178.96,-130.775"/>
<polygon fill="midnightblue" stroke="midnightblue" points="1181.43,-133.252 1186.24,-123.809 1176.59,-128.194 1181.43,-133.252"/>
</g>
<!-- Node105 -->
<g id="node38" class="node"><title>Node105</title>
<g id="a_node38"><a xlink:href="lobject_8c.html#a8a7886b6335aca97db23dfe3e220c728" target="_top" xlink:title=" ">
<polygon fill="white" stroke="black" points="1165,-180.5 1165,-199.5 1229,-199.5 1229,-180.5 1165,-180.5"/>
<text text-anchor="middle" x="1197" y="-187.5" font-family="Helvetica,sans-Serif" font-size="10.00">tostringbuff</text>
</a>
</g>
</g>
<!-- Node80&#45;&gt;Node105 -->
<g id="edge39" class="edge"><title>Node80&#45;&gt;Node105</title>
<path fill="none" stroke="midnightblue" d="M1122.77,-190C1132.94,-190 1144.16,-190 1154.7,-190"/>
<polygon fill="midnightblue" stroke="midnightblue" points="1154.95,-193.5 1164.95,-190 1154.95,-186.5 1154.95,-193.5"/>
</g>
<!-- Node81&#45;&gt;Node82 -->
<g id="edge36" class="edge"><title>Node81&#45;&gt;Node82</title>
<path fill="none" stroke="midnightblue" d="M1219.92,-109.497C1230.33,-107.358 1243.05,-104.747 1254.8,-102.333"/>
<polygon fill="midnightblue" stroke="midnightblue" points="1255.71,-105.72 1264.8,-100.279 1254.3,-98.8629 1255.71,-105.72"/>
</g>
<!-- Node83 -->
<g id="node37" class="node"><title>Node83</title>
<g id="a_node37"><a xlink:href="lobject_8c.html#a90720e7e38c0e352e9b97d3f8def9e1a" target="_top" xlink:title=" ">
<polygon fill="white" stroke="red" points="1354,-28.5 1354,-47.5 1403,-47.5 1403,-28.5 1354,-28.5"/>
<text text-anchor="middle" x="1378.5" y="-35.5" font-family="Helvetica,sans-Serif" font-size="10.00">pushstr</text>
</a>
</g>
</g>
<!-- Node82&#45;&gt;Node83 -->
<g id="edge37" class="edge"><title>Node82&#45;&gt;Node83</title>
<path fill="none" stroke="midnightblue" d="M1306.92,-85.3307C1320.06,-76.5157 1339.7,-63.3503 1354.92,-53.1408"/>
<polygon fill="midnightblue" stroke="midnightblue" points="1356.94,-56.003 1363.29,-47.5265 1353.04,-50.1891 1356.94,-56.003"/>
</g>
<!-- Node83&#45;&gt;Node4 -->
<g id="edge38" class="edge"><title>Node83&#45;&gt;Node4</title>
<path fill="none" stroke="midnightblue" d="M1353.74,-29.6607C1319.7,-18.4748 1254.86,-0 1198,-0 600.5,-0 600.5,-0 600.5,-0 459.884,-0 380.151,-199.719 358.245,-263.601"/>
<polygon fill="midnightblue" stroke="midnightblue" points="354.868,-262.665 355.023,-273.258 361.508,-264.88 354.868,-262.665"/>
</g>
<!-- Node106&#45;&gt;Node81 -->
<g id="edge42" class="edge"><title>Node106&#45;&gt;Node81</title>
<path fill="none" stroke="midnightblue" d="M1115.25,-85.589C1130.22,-90.8555 1148.86,-97.4126 1164.45,-102.9"/>
<polygon fill="midnightblue" stroke="midnightblue" points="1163.6,-106.31 1174.19,-106.327 1165.92,-99.7066 1163.6,-106.31"/>
</g>
<!-- Node106&#45;&gt;Node82 -->
<g id="edge41" class="edge"><title>Node106&#45;&gt;Node82</title>
<path fill="none" stroke="midnightblue" d="M1119.2,-78.9271C1155.7,-82.3525 1216.04,-88.014 1254.5,-91.6224"/>
<polygon fill="midnightblue" stroke="midnightblue" points="1254.45,-95.1326 1264.73,-92.5822 1255.1,-88.1632 1254.45,-95.1326"/>
</g>
<!-- Node106&#45;&gt;Node83 -->
<g id="edge43" class="edge"><title>Node106&#45;&gt;Node83</title>
<path fill="none" stroke="midnightblue" d="M1119.26,-71.8972C1174.06,-64.7035 1287.04,-49.8745 1343.63,-42.4457"/>
<polygon fill="midnightblue" stroke="midnightblue" points="1344.38,-45.8774 1353.84,-41.1056 1343.47,-38.9369 1344.38,-45.8774"/>
</g>
<!-- Node50 -->
<g id="node42" class="node"><title>Node50</title>
<g id="a_node42"><a xlink:href="ldo_8c.html#a61c0a0185ef5ae1493dad10027f4db7e" target="_top" xlink:title=" ">
<polygon fill="white" stroke="black" points="792,-28.5 792,-47.5 879,-47.5 879,-28.5 792,-28.5"/>
<text text-anchor="middle" x="835.5" y="-35.5" font-family="Helvetica,sans-Serif" font-size="10.00">luaD_callnoyield</text>
</a>
</g>
</g>
<!-- Node108&#45;&gt;Node50 -->
<g id="edge49" class="edge"><title>Node108&#45;&gt;Node50</title>
<path fill="none" stroke="midnightblue" d="M745.903,-66.411C760.779,-61.6406 778.957,-55.8112 794.967,-50.6771"/>
<polygon fill="midnightblue" stroke="midnightblue" points="796.153,-53.9724 804.607,-47.5859 794.016,-47.3068 796.153,-53.9724"/>
</g>
<!-- Node109 -->
<g id="node44" class="node"><title>Node109</title>
<g id="a_node44"><a xlink:href="ldo_8c.html#a2b46d9db5b9ca3d5402a0c2ac640a6b0" target="_top" xlink:title=" ">
<polygon fill="white" stroke="black" points="803,-66.5 803,-85.5 868,-85.5 868,-66.5 803,-66.5"/>
<text text-anchor="middle" x="835.5" y="-73.5" font-family="Helvetica,sans-Serif" font-size="10.00">luaD_throw</text>
</a>
</g>
</g>
<!-- Node108&#45;&gt;Node109 -->
<g id="edge51" class="edge"><title>Node108&#45;&gt;Node109</title>
<path fill="none" stroke="midnightblue" d="M755.13,-76C767.122,-76 780.363,-76 792.536,-76"/>
<polygon fill="midnightblue" stroke="midnightblue" points="792.901,-79.5001 802.901,-76 792.901,-72.5001 792.901,-79.5001"/>
</g>
<!-- Node51 -->
<g id="node43" class="node"><title>Node51</title>
<g id="a_node43"><a xlink:href="ldo_8c.html#aa7d32ccef16c2d4fe63604c4c457831d" target="_top" xlink:title=" ">
<polygon fill="white" stroke="red" points="944,-28.5 944,-47.5 981,-47.5 981,-28.5 944,-28.5"/>
<text text-anchor="middle" x="962.5" y="-35.5" font-family="Helvetica,sans-Serif" font-size="10.00">ccall</text>
</a>
</g>
</g>
<!-- Node50&#45;&gt;Node51 -->
<g id="edge50" class="edge"><title>Node50&#45;&gt;Node51</title>
<path fill="none" stroke="midnightblue" d="M879.168,-38C897.097,-38 917.455,-38 933.442,-38"/>
<polygon fill="midnightblue" stroke="midnightblue" points="933.727,-41.5001 943.727,-38 933.727,-34.5001 933.727,-41.5001"/>
</g>
<!-- Node109&#45;&gt;Node109 -->
<g id="edge53" class="edge"><title>Node109&#45;&gt;Node109</title>
<path fill="none" stroke="midnightblue" d="M817.005,-85.7571C808.007,-94.5653 814.172,-104 835.5,-104 849.163,-104 856.604,-100.128 857.821,-95.0292"/>
<polygon fill="midnightblue" stroke="midnightblue" points="861.045,-93.6661 853.995,-85.7571 854.574,-96.3361 861.045,-93.6661"/>
</g>
<!-- Node61 -->
<g id="node45" class="node"><title>Node61</title>
<g id="a_node45"><a xlink:href="ldo_8c.html#a2a5656cf723dffe2e9b5314260bd8896" target="_top" xlink:title=" ">
<polygon fill="white" stroke="black" points="919,-104.5 919,-123.5 1006,-123.5 1006,-104.5 919,-104.5"/>
<text text-anchor="middle" x="962.5" y="-111.5" font-family="Helvetica,sans-Serif" font-size="10.00">luaD_seterrorobj</text>
</a>
</g>
</g>
<!-- Node109&#45;&gt;Node61 -->
<g id="edge52" class="edge"><title>Node109&#45;&gt;Node61</title>
<path fill="none" stroke="midnightblue" d="M868.043,-85.589C883.883,-90.4044 903.273,-96.2988 920.276,-101.468"/>
<polygon fill="midnightblue" stroke="midnightblue" points="919.382,-104.854 929.967,-104.414 921.418,-98.1567 919.382,-104.854"/>
</g>
<!-- Node56 -->
<g id="node46" class="node"><title>Node56</title>
<g id="a_node46"><a xlink:href="lfunc_8c.html#ae9fcbf80b5969afd9412b9aed102f94e" target="_top" xlink:title=" ">
<polygon fill="white" stroke="red" points="930.5,-66.5 930.5,-85.5 994.5,-85.5 994.5,-66.5 930.5,-66.5"/>
<text text-anchor="middle" x="962.5" y="-73.5" font-family="Helvetica,sans-Serif" font-size="10.00">luaF_close</text>
</a>
</g>
</g>
<!-- Node109&#45;&gt;Node56 -->
<g id="edge54" class="edge"><title>Node109&#45;&gt;Node56</title>
<path fill="none" stroke="midnightblue" d="M868.043,-76C883.855,-76 903.203,-76 920.185,-76"/>
<polygon fill="midnightblue" stroke="midnightblue" points="920.4,-79.5001 930.4,-76 920.4,-72.5001 920.4,-79.5001"/>
</g>
<!-- Node86&#45;&gt;Node6 -->
<g id="edge57" class="edge"><title>Node86&#45;&gt;Node6</title>
<path fill="none" stroke="midnightblue" d="M528.01,-410.154C537.783,-410.942 547.914,-411.759 557.394,-412.524"/>
<polygon fill="midnightblue" stroke="midnightblue" points="557.128,-416.014 567.377,-413.329 557.691,-409.036 557.128,-416.014"/>
</g>
<!-- Node446 -->
<g id="node49" class="node"><title>Node446</title>
<g id="a_node49"><a xlink:href="lapi_8c.html#a7c66797ff8396fc9258bb9fc08e959d8" target="_top" xlink:title=" ">
<polygon fill="white" stroke="black" points="212,-235.5 212,-254.5 279,-254.5 279,-235.5 212,-235.5"/>
<text text-anchor="middle" x="245.5" y="-242.5" font-family="Helvetica,sans-Serif" font-size="10.00">index2value</text>
</a>
</g>
</g>
<!-- Node445&#45;&gt;Node446 -->
<g id="edge59" class="edge"><title>Node445&#45;&gt;Node446</title>
<path fill="none" stroke="midnightblue" d="M162.749,-245C174.316,-245 188.283,-245 201.375,-245"/>
<polygon fill="midnightblue" stroke="midnightblue" points="201.623,-248.5 211.623,-245 201.623,-241.5 201.623,-248.5"/>
</g>
</g>
</svg>
