<?xml version="1.0" encoding="UTF-8" standalone="no"?>
<!DOCTYPE svg PUBLIC "-//W3C//DTD SVG 1.1//EN"
 "http://www.w3.org/Graphics/SVG/1.1/DTD/svg11.dtd">
<!-- Generated by graphviz version 2.38.0 (20140413.2041)
 -->
<!-- Title: luaB_next Pages: 1 -->
<svg width="1562pt" height="455pt"
 viewBox="0.00 0.00 1562.00 455.00" xmlns="http://www.w3.org/2000/svg" xmlns:xlink="http://www.w3.org/1999/xlink">
<g id="graph0" class="graph" transform="scale(1 1) rotate(0) translate(4 451)">
<title>luaB_next</title>
<polygon fill="white" stroke="none" points="-4,4 -4,-451 1558,-451 1558,4 -4,4"/>
<!-- Node1 -->
<g id="node1" class="node"><title>Node1</title>
<g id="a_node1"><a xlink:title=" ">
<polygon fill="#bfbfbf" stroke="black" points="0,-263.5 0,-282.5 60,-282.5 60,-263.5 0,-263.5"/>
<text text-anchor="middle" x="30" y="-270.5" font-family="Helvetica,sans-Serif" font-size="10.00">luaB_next</text>
</a>
</g>
</g>
<!-- Node2 -->
<g id="node2" class="node"><title>Node2</title>
<g id="a_node2"><a xlink:href="lapi_8c.html#aa8bf464b98335a075732200ad91ce1de" target="_top" xlink:title=" ">
<polygon fill="white" stroke="black" points="576,-370.5 576,-389.5 629,-389.5 629,-370.5 576,-370.5"/>
<text text-anchor="middle" x="602.5" y="-377.5" font-family="Helvetica,sans-Serif" font-size="10.00">lua_next</text>
</a>
</g>
</g>
<!-- Node1&#45;&gt;Node2 -->
<g id="edge1" class="edge"><title>Node1&#45;&gt;Node2</title>
<path fill="none" stroke="midnightblue" d="M41.6001,-282.598C71.1793,-308.344 158.067,-377 243.5,-377 243.5,-377 243.5,-377 348,-377 425.704,-377 516.796,-378.427 565.856,-379.312"/>
<polygon fill="midnightblue" stroke="midnightblue" points="565.891,-382.814 575.954,-379.498 566.02,-375.815 565.891,-382.814"/>
</g>
<!-- Node449 -->
<g id="node20" class="node"><title>Node449</title>
<g id="a_node20"><a xlink:href="lapi_8c.html#a1b4cd0d80f51e5545a97ca6c28c03c50" target="_top" xlink:title=" ">
<polygon fill="white" stroke="black" points="106,-282.5 106,-301.5 171,-301.5 171,-282.5 106,-282.5"/>
<text text-anchor="middle" x="138.5" y="-289.5" font-family="Helvetica,sans-Serif" font-size="10.00">lua_pushnil</text>
</a>
</g>
</g>
<!-- Node1&#45;&gt;Node449 -->
<g id="edge20" class="edge"><title>Node1&#45;&gt;Node449</title>
<path fill="none" stroke="midnightblue" d="M60.1016,-278.192C71.0574,-280.146 83.7434,-282.41 95.6348,-284.531"/>
<polygon fill="midnightblue" stroke="midnightblue" points="95.3575,-288.037 105.817,-286.348 96.587,-281.146 95.3575,-288.037"/>
</g>
<!-- Node450 -->
<g id="node21" class="node"><title>Node450</title>
<g id="a_node21"><a xlink:href="lapi_8c.html#adaa30f0d34786144c94644039d1d1b6e" target="_top" xlink:title=" ">
<polygon fill="white" stroke="black" points="705.5,-28.5 705.5,-47.5 767.5,-47.5 767.5,-28.5 705.5,-28.5"/>
<text text-anchor="middle" x="736.5" y="-35.5" font-family="Helvetica,sans-Serif" font-size="10.00">lua_settop</text>
</a>
</g>
</g>
<!-- Node1&#45;&gt;Node450 -->
<g id="edge21" class="edge"><title>Node1&#45;&gt;Node450</title>
<path fill="none" stroke="midnightblue" d="M33.3142,-263.284C45.528,-214.652 107.16,-0 243.5,-0 243.5,-0 243.5,-0 469,-0 552.097,-0 573.056,-5.20443 655,-19 668.296,-21.2385 682.669,-24.3911 695.539,-27.486"/>
<polygon fill="midnightblue" stroke="midnightblue" points="694.943,-30.9436 705.49,-29.9371 696.617,-24.1468 694.943,-30.9436"/>
</g>
<!-- Node451 -->
<g id="node36" class="node"><title>Node451</title>
<g id="a_node36"><a xlink:href="lauxlib_8c.html#a0f8f78c4edc5cbf890690b3cf9615dc8" target="_top" xlink:title=" ">
<polygon fill="white" stroke="black" points="96,-244.5 96,-263.5 181,-263.5 181,-244.5 96,-244.5"/>
<text text-anchor="middle" x="138.5" y="-251.5" font-family="Helvetica,sans-Serif" font-size="10.00">luaL_checktype</text>
</a>
</g>
</g>
<!-- Node1&#45;&gt;Node451 -->
<g id="edge40" class="edge"><title>Node1&#45;&gt;Node451</title>
<path fill="none" stroke="midnightblue" d="M60.1016,-267.808C68.0666,-266.387 76.946,-264.803 85.7698,-263.229"/>
<polygon fill="midnightblue" stroke="midnightblue" points="86.4269,-266.667 95.6568,-261.465 85.1975,-259.776 86.4269,-266.667"/>
</g>
<!-- Node3 -->
<g id="node3" class="node"><title>Node3</title>
<g id="a_node3"><a xlink:href="lapi_8c.html#a4ebfbcdc1a7a4f0332d4dd532a817212" target="_top" xlink:title=" ">
<polygon fill="white" stroke="black" points="711,-256.5 711,-275.5 762,-275.5 762,-256.5 711,-256.5"/>
<text text-anchor="middle" x="736.5" y="-263.5" font-family="Helvetica,sans-Serif" font-size="10.00">gettable</text>
</a>
</g>
</g>
<!-- Node2&#45;&gt;Node3 -->
<g id="edge2" class="edge"><title>Node2&#45;&gt;Node3</title>
<path fill="none" stroke="midnightblue" d="M614.754,-370.28C637.355,-350.762 688.479,-306.609 716.409,-282.488"/>
<polygon fill="midnightblue" stroke="midnightblue" points="718.994,-284.88 724.274,-275.695 714.418,-279.582 718.994,-284.88"/>
</g>
<!-- Node5 -->
<g id="node5" class="node"><title>Node5</title>
<g id="a_node5"><a xlink:href="ltable_8c.html#a3c4370ade14fcc86ede5ca90271d0f30" target="_top" xlink:title=" ">
<polygon fill="white" stroke="black" points="706.5,-370.5 706.5,-389.5 766.5,-389.5 766.5,-370.5 706.5,-370.5"/>
<text text-anchor="middle" x="736.5" y="-377.5" font-family="Helvetica,sans-Serif" font-size="10.00">luaH_next</text>
</a>
</g>
</g>
<!-- Node2&#45;&gt;Node5 -->
<g id="edge4" class="edge"><title>Node2&#45;&gt;Node5</title>
<path fill="none" stroke="midnightblue" d="M629.264,-380C648.221,-380 674.338,-380 695.933,-380"/>
<polygon fill="midnightblue" stroke="midnightblue" points="696.119,-383.5 706.119,-380 696.119,-376.5 696.119,-383.5"/>
</g>
<!-- Node4 -->
<g id="node4" class="node"><title>Node4</title>
<g id="a_node4"><a xlink:href="lapi_8c.html#a7c66797ff8396fc9258bb9fc08e959d8" target="_top" xlink:title=" ">
<polygon fill="white" stroke="black" points="824.5,-256.5 824.5,-275.5 891.5,-275.5 891.5,-256.5 824.5,-256.5"/>
<text text-anchor="middle" x="858" y="-263.5" font-family="Helvetica,sans-Serif" font-size="10.00">index2value</text>
</a>
</g>
</g>
<!-- Node3&#45;&gt;Node4 -->
<g id="edge3" class="edge"><title>Node3&#45;&gt;Node4</title>
<path fill="none" stroke="midnightblue" d="M762.26,-266C777.093,-266 796.368,-266 813.656,-266"/>
<polygon fill="midnightblue" stroke="midnightblue" points="814.106,-269.5 824.106,-266 814.106,-262.5 814.106,-269.5"/>
</g>
<!-- Node6 -->
<g id="node6" class="node"><title>Node6</title>
<g id="a_node6"><a xlink:href="ltable_8c.html#a921c25ca2be2003cbcaa9e4c10d6eba8" target="_top" xlink:title=" ">
<polygon fill="white" stroke="black" points="830.5,-370.5 830.5,-389.5 885.5,-389.5 885.5,-370.5 830.5,-370.5"/>
<text text-anchor="middle" x="858" y="-377.5" font-family="Helvetica,sans-Serif" font-size="10.00">findindex</text>
</a>
</g>
</g>
<!-- Node5&#45;&gt;Node6 -->
<g id="edge5" class="edge"><title>Node5&#45;&gt;Node6</title>
<path fill="none" stroke="midnightblue" d="M766.733,-380C782.755,-380 802.779,-380 819.893,-380"/>
<polygon fill="midnightblue" stroke="midnightblue" points="820.112,-383.5 830.112,-380 820.112,-376.5 820.112,-383.5"/>
</g>
<!-- Node42 -->
<g id="node19" class="node"><title>Node42</title>
<g id="a_node19"><a xlink:href="ltable_8c.html#a8f20a204b7a78780847939086b847781" target="_top" xlink:title=" ">
<polygon fill="white" stroke="black" points="818,-408.5 818,-427.5 898,-427.5 898,-408.5 818,-408.5"/>
<text text-anchor="middle" x="858" y="-415.5" font-family="Helvetica,sans-Serif" font-size="10.00">luaH_realasize</text>
</a>
</g>
</g>
<!-- Node5&#45;&gt;Node42 -->
<g id="edge19" class="edge"><title>Node5&#45;&gt;Node42</title>
<path fill="none" stroke="midnightblue" d="M766.733,-389.296C781.839,-394.1 800.503,-400.035 816.932,-405.259"/>
<polygon fill="midnightblue" stroke="midnightblue" points="816.231,-408.708 826.821,-408.403 818.352,-402.037 816.231,-408.708"/>
</g>
<!-- Node7 -->
<g id="node7" class="node"><title>Node7</title>
<g id="a_node7"><a xlink:href="ltable_8c.html#a729a1f92fc454693e71df73e6b4eecd1" target="_top" xlink:title=" ">
<polygon fill="white" stroke="black" points="947,-370.5 947,-389.5 1009,-389.5 1009,-370.5 947,-370.5"/>
<text text-anchor="middle" x="978" y="-377.5" font-family="Helvetica,sans-Serif" font-size="10.00">arrayindex</text>
</a>
</g>
</g>
<!-- Node6&#45;&gt;Node7 -->
<g id="edge6" class="edge"><title>Node6&#45;&gt;Node7</title>
<path fill="none" stroke="midnightblue" d="M885.776,-380C900.755,-380 919.731,-380 936.491,-380"/>
<polygon fill="midnightblue" stroke="midnightblue" points="936.586,-383.5 946.586,-380 936.586,-376.5 936.586,-383.5"/>
</g>
<!-- Node8 -->
<g id="node8" class="node"><title>Node8</title>
<g id="a_node8"><a xlink:href="ltable_8c.html#a9170d329b0dd746ca9b15db8c22a2127" target="_top" xlink:title=" ">
<polygon fill="white" stroke="black" points="947,-408.5 947,-427.5 1009,-427.5 1009,-408.5 947,-408.5"/>
<text text-anchor="middle" x="978" y="-415.5" font-family="Helvetica,sans-Serif" font-size="10.00">getgeneric</text>
</a>
</g>
</g>
<!-- Node6&#45;&gt;Node8 -->
<g id="edge7" class="edge"><title>Node6&#45;&gt;Node8</title>
<path fill="none" stroke="midnightblue" d="M885.776,-388.623C901.123,-393.565 920.667,-399.859 937.725,-405.352"/>
<polygon fill="midnightblue" stroke="midnightblue" points="936.839,-408.744 947.431,-408.478 938.985,-402.081 936.839,-408.744"/>
</g>
<!-- Node16 -->
<g id="node13" class="node"><title>Node16</title>
<g id="a_node13"><a xlink:href="ldebug_8c.html#a88d38ca5da2e7a1492fc9d5ad70c32c5" target="_top" xlink:title=" ">
<polygon fill="white" stroke="black" points="1209.5,-256.5 1209.5,-275.5 1284.5,-275.5 1284.5,-256.5 1209.5,-256.5"/>
<text text-anchor="middle" x="1247" y="-263.5" font-family="Helvetica,sans-Serif" font-size="10.00">luaG_runerror</text>
</a>
</g>
</g>
<!-- Node6&#45;&gt;Node16 -->
<g id="edge12" class="edge"><title>Node6&#45;&gt;Node16</title>
<path fill="none" stroke="midnightblue" d="M885.6,-372.164C951.68,-352.699 1123.73,-302.017 1203.83,-278.422"/>
<polygon fill="midnightblue" stroke="midnightblue" points="1204.99,-281.731 1213.59,-275.548 1203.01,-275.016 1204.99,-281.731"/>
</g>
<!-- Node9 -->
<g id="node9" class="node"><title>Node9</title>
<g id="a_node9"><a xlink:href="ltable_8c.html#af84f7eafe0a1b410624263c29224fec9" target="_top" xlink:title=" ">
<polygon fill="white" stroke="black" points="1079,-389.5 1079,-408.5 1135,-408.5 1135,-389.5 1079,-389.5"/>
<text text-anchor="middle" x="1107" y="-396.5" font-family="Helvetica,sans-Serif" font-size="10.00">equalkey</text>
</a>
</g>
</g>
<!-- Node8&#45;&gt;Node9 -->
<g id="edge8" class="edge"><title>Node8&#45;&gt;Node9</title>
<path fill="none" stroke="midnightblue" d="M1009.1,-413.497C1026.92,-410.831 1049.65,-407.43 1068.62,-404.592"/>
<polygon fill="midnightblue" stroke="midnightblue" points="1069.34,-408.023 1078.72,-403.082 1068.31,-401.1 1069.34,-408.023"/>
</g>
<!-- Node11 -->
<g id="node11" class="node"><title>Node11</title>
<g id="a_node11"><a xlink:href="ltable_8c.html#a3f0add4aa38ab8e59a5983ebab80ab42" target="_top" xlink:title=" ">
<polygon fill="white" stroke="black" points="1065.5,-427.5 1065.5,-446.5 1148.5,-446.5 1148.5,-427.5 1065.5,-427.5"/>
<text text-anchor="middle" x="1107" y="-434.5" font-family="Helvetica,sans-Serif" font-size="10.00">mainpositionTV</text>
</a>
</g>
</g>
<!-- Node8&#45;&gt;Node11 -->
<g id="edge10" class="edge"><title>Node8&#45;&gt;Node11</title>
<path fill="none" stroke="midnightblue" d="M1009.1,-422.503C1022.82,-424.555 1039.44,-427.043 1055.02,-429.373"/>
<polygon fill="midnightblue" stroke="midnightblue" points="1054.66,-432.858 1065.07,-430.876 1055.7,-425.935 1054.66,-432.858"/>
</g>
<!-- Node10 -->
<g id="node10" class="node"><title>Node10</title>
<g id="a_node10"><a xlink:href="lstring_8c.html#a99b8eea92097f11885050ff629ff0f83" target="_top" xlink:title=" ">
<polygon fill="white" stroke="black" points="1209,-389.5 1209,-408.5 1285,-408.5 1285,-389.5 1209,-389.5"/>
<text text-anchor="middle" x="1247" y="-396.5" font-family="Helvetica,sans-Serif" font-size="10.00">luaS_eqlngstr</text>
</a>
</g>
</g>
<!-- Node9&#45;&gt;Node10 -->
<g id="edge9" class="edge"><title>Node9&#45;&gt;Node10</title>
<path fill="none" stroke="midnightblue" d="M1135.26,-399C1153.36,-399 1177.58,-399 1198.75,-399"/>
<polygon fill="midnightblue" stroke="midnightblue" points="1198.87,-402.5 1208.87,-399 1198.87,-395.5 1198.87,-402.5"/>
</g>
<!-- Node12 -->
<g id="node12" class="node"><title>Node12</title>
<g id="a_node12"><a xlink:href="ltable_8c.html#a97b549a3507ec326a9d138a741f39bbc" target="_top" xlink:title=" ">
<polygon fill="white" stroke="red" points="1211.5,-427.5 1211.5,-446.5 1282.5,-446.5 1282.5,-427.5 1211.5,-427.5"/>
<text text-anchor="middle" x="1247" y="-434.5" font-family="Helvetica,sans-Serif" font-size="10.00">mainposition</text>
</a>
</g>
</g>
<!-- Node11&#45;&gt;Node12 -->
<g id="edge11" class="edge"><title>Node11&#45;&gt;Node12</title>
<path fill="none" stroke="midnightblue" d="M1148.66,-437C1165.12,-437 1184.18,-437 1201.05,-437"/>
<polygon fill="midnightblue" stroke="midnightblue" points="1201.23,-440.5 1211.23,-437 1201.23,-433.5 1201.23,-440.5"/>
</g>
<!-- Node17 -->
<g id="node14" class="node"><title>Node17</title>
<g id="a_node14"><a xlink:href="ldebug_8c.html#ad6bc24d619df8e849e2ae8b00455d86f" target="_top" xlink:title=" ">
<polygon fill="white" stroke="red" points="1347,-256.5 1347,-275.5 1422,-275.5 1422,-256.5 1347,-256.5"/>
<text text-anchor="middle" x="1384.5" y="-263.5" font-family="Helvetica,sans-Serif" font-size="10.00">getcurrentline</text>
</a>
</g>
</g>
<!-- Node16&#45;&gt;Node17 -->
<g id="edge13" class="edge"><title>Node16&#45;&gt;Node17</title>
<path fill="none" stroke="midnightblue" d="M1284.67,-266C1300.64,-266 1319.54,-266 1336.52,-266"/>
<polygon fill="midnightblue" stroke="midnightblue" points="1336.8,-269.5 1346.8,-266 1336.8,-262.5 1336.8,-269.5"/>
</g>
<!-- Node21 -->
<g id="node15" class="node"><title>Node21</title>
<g id="a_node15"><a xlink:href="ldebug_8c.html#a7e1dc7518150bf19bd9aa5dda166a2eb" target="_top" xlink:title=" ">
<polygon fill="white" stroke="red" points="1348,-218.5 1348,-237.5 1421,-237.5 1421,-218.5 1348,-218.5"/>
<text text-anchor="middle" x="1384.5" y="-225.5" font-family="Helvetica,sans-Serif" font-size="10.00">luaG_addinfo</text>
</a>
</g>
</g>
<!-- Node16&#45;&gt;Node21 -->
<g id="edge14" class="edge"><title>Node16&#45;&gt;Node21</title>
<path fill="none" stroke="midnightblue" d="M1282.19,-256.411C1299.6,-251.528 1320.97,-245.536 1339.59,-240.315"/>
<polygon fill="midnightblue" stroke="midnightblue" points="1340.64,-243.656 1349.32,-237.586 1338.74,-236.916 1340.64,-243.656"/>
</g>
<!-- Node448 -->
<g id="node16" class="node"><title>Node448</title>
<g id="a_node16"><a xlink:href="ldebug_8c.html#af7366920f8408bb33ed01b1d6c0e1238" target="_top" xlink:title=" ">
<polygon fill="white" stroke="red" points="1344.5,-180.5 1344.5,-199.5 1424.5,-199.5 1424.5,-180.5 1344.5,-180.5"/>
<text text-anchor="middle" x="1384.5" y="-187.5" font-family="Helvetica,sans-Serif" font-size="10.00">luaG_errormsg</text>
</a>
</g>
</g>
<!-- Node16&#45;&gt;Node448 -->
<g id="edge15" class="edge"><title>Node16&#45;&gt;Node448</title>
<path fill="none" stroke="midnightblue" d="M1282.85,-256.48C1289.48,-253.921 1296.16,-250.786 1302,-247 1321.52,-234.341 1318.85,-222.213 1338,-209 1340.53,-207.257 1343.24,-205.63 1346.03,-204.12"/>
<polygon fill="midnightblue" stroke="midnightblue" points="1347.65,-207.223 1355.11,-199.7 1344.59,-200.929 1347.65,-207.223"/>
</g>
<!-- Node24 -->
<g id="node18" class="node"><title>Node24</title>
<g id="a_node18"><a xlink:href="lobject_8c.html#aa83fa444a36d79521e846a766fa083d5" target="_top" xlink:title=" ">
<polygon fill="white" stroke="red" points="1338,-294.5 1338,-313.5 1431,-313.5 1431,-294.5 1338,-294.5"/>
<text text-anchor="middle" x="1384.5" y="-301.5" font-family="Helvetica,sans-Serif" font-size="10.00">luaO_pushvfstring</text>
</a>
</g>
</g>
<!-- Node16&#45;&gt;Node24 -->
<g id="edge17" class="edge"><title>Node16&#45;&gt;Node24</title>
<path fill="none" stroke="midnightblue" d="M1284.67,-270.209C1307.43,-275.53 1336.18,-283.783 1356.79,-291.01"/>
<polygon fill="midnightblue" stroke="midnightblue" points="1355.6,-294.301 1366.19,-294.458 1358.01,-287.729 1355.6,-294.301"/>
</g>
<!-- Node75 -->
<g id="node17" class="node"><title>Node75</title>
<g id="a_node17"><a xlink:href="ldo_8c.html#a61c0a0185ef5ae1493dad10027f4db7e" target="_top" xlink:title=" ">
<polygon fill="white" stroke="red" points="1467,-256.5 1467,-275.5 1554,-275.5 1554,-256.5 1467,-256.5"/>
<text text-anchor="middle" x="1510.5" y="-263.5" font-family="Helvetica,sans-Serif" font-size="10.00">luaD_callnoyield</text>
</a>
</g>
</g>
<!-- Node448&#45;&gt;Node75 -->
<g id="edge16" class="edge"><title>Node448&#45;&gt;Node75</title>
<path fill="none" stroke="midnightblue" d="M1411.5,-199.636C1418.01,-202.377 1424.88,-205.562 1431,-209 1452.24,-220.929 1474.53,-237.57 1489.91,-249.793"/>
<polygon fill="midnightblue" stroke="midnightblue" points="1488.13,-252.852 1498.11,-256.41 1492.52,-247.405 1488.13,-252.852"/>
</g>
<!-- Node24&#45;&gt;Node16 -->
<g id="edge18" class="edge"><title>Node24&#45;&gt;Node16</title>
<path fill="none" stroke="midnightblue" d="M1337.9,-297.63C1317,-292.417 1292.95,-285.372 1274.99,-279.087"/>
<polygon fill="midnightblue" stroke="midnightblue" points="1276.03,-275.742 1265.44,-275.592 1273.63,-282.316 1276.03,-275.742"/>
</g>
<!-- Node81 -->
<g id="node22" class="node"><title>Node81</title>
<g id="a_node22"><a xlink:href="lfunc_8c.html#ae9fcbf80b5969afd9412b9aed102f94e" target="_top" xlink:title=" ">
<polygon fill="white" stroke="black" points="826,-85.5 826,-104.5 890,-104.5 890,-85.5 826,-85.5"/>
<text text-anchor="middle" x="858" y="-92.5" font-family="Helvetica,sans-Serif" font-size="10.00">luaF_close</text>
</a>
</g>
</g>
<!-- Node450&#45;&gt;Node81 -->
<g id="edge22" class="edge"><title>Node450&#45;&gt;Node81</title>
<path fill="none" stroke="midnightblue" d="M760.724,-47.5765C767.613,-50.5087 775.148,-53.8054 782,-57 798.016,-64.4669 815.657,-73.3697 829.804,-80.6805"/>
<polygon fill="midnightblue" stroke="midnightblue" points="828.49,-83.9421 838.977,-85.4502 831.719,-77.7315 828.49,-83.9421"/>
</g>
<!-- Node82 -->
<g id="node23" class="node"><title>Node82</title>
<g id="a_node23"><a xlink:href="lfunc_8c.html#a4105c820bb9b1b4b4b3bd6613b0ccb05" target="_top" xlink:title=" ">
<polygon fill="white" stroke="black" points="942.5,-142.5 942.5,-161.5 1013.5,-161.5 1013.5,-142.5 942.5,-142.5"/>
<text text-anchor="middle" x="978" y="-149.5" font-family="Helvetica,sans-Serif" font-size="10.00">callclosemth</text>
</a>
</g>
</g>
<!-- Node81&#45;&gt;Node82 -->
<g id="edge23" class="edge"><title>Node81&#45;&gt;Node82</title>
<path fill="none" stroke="midnightblue" d="M877.359,-104.644C892.461,-112.494 914.478,-123.749 934,-133 937.63,-134.72 941.454,-136.481 945.262,-138.204"/>
<polygon fill="midnightblue" stroke="midnightblue" points="944.022,-141.483 954.58,-142.361 946.874,-135.09 944.022,-141.483"/>
</g>
<!-- Node96 -->
<g id="node35" class="node"><title>Node96</title>
<g id="a_node35"><a xlink:href="lfunc_8c.html#a3b5a5ae122e85af5c941e9b4ffff53bd" target="_top" xlink:title=" ">
<polygon fill="white" stroke="black" points="934,-104.5 934,-123.5 1022,-123.5 1022,-104.5 934,-104.5"/>
<text text-anchor="middle" x="978" y="-111.5" font-family="Helvetica,sans-Serif" font-size="10.00">luaF_unlinkupval</text>
</a>
</g>
</g>
<!-- Node81&#45;&gt;Node96 -->
<g id="edge39" class="edge"><title>Node81&#45;&gt;Node96</title>
<path fill="none" stroke="midnightblue" d="M890.003,-99.992C900.355,-101.659 912.203,-103.567 923.754,-105.426"/>
<polygon fill="midnightblue" stroke="midnightblue" points="923.354,-108.907 933.783,-107.041 924.467,-101.996 923.354,-108.907"/>
</g>
<!-- Node83 -->
<g id="node24" class="node"><title>Node83</title>
<g id="a_node24"><a xlink:href="lfunc_8c.html#ad6f77f3a49d8b6199525c7edac6fd0a6" target="_top" xlink:title=" ">
<polygon fill="white" stroke="black" points="1357,-332.5 1357,-351.5 1412,-351.5 1412,-332.5 1357,-332.5"/>
<text text-anchor="middle" x="1384.5" y="-339.5" font-family="Helvetica,sans-Serif" font-size="10.00">callclose</text>
</a>
</g>
</g>
<!-- Node82&#45;&gt;Node83 -->
<g id="edge24" class="edge"><title>Node82&#45;&gt;Node83</title>
<path fill="none" stroke="midnightblue" d="M984.361,-161.703C995.495,-180.946 1023.02,-224.058 1058,-247 1150.79,-307.864 1283.42,-330.603 1346.9,-338.363"/>
<polygon fill="midnightblue" stroke="midnightblue" points="1346.51,-341.841 1356.84,-339.524 1347.32,-334.888 1346.51,-341.841"/>
</g>
<!-- Node84 -->
<g id="node25" class="node"><title>Node84</title>
<g id="a_node25"><a xlink:href="ldo_8c.html#a1ad7f845cc62b110e3fcc0ae187d7c85" target="_top" xlink:title=" ">
<polygon fill="white" stroke="black" points="1076,-66.5 1076,-85.5 1138,-85.5 1138,-66.5 1076,-66.5"/>
<text text-anchor="middle" x="1107" y="-73.5" font-family="Helvetica,sans-Serif" font-size="10.00">luaD_pcall</text>
</a>
</g>
</g>
<!-- Node82&#45;&gt;Node84 -->
<g id="edge26" class="edge"><title>Node82&#45;&gt;Node84</title>
<path fill="none" stroke="midnightblue" d="M1004.28,-142.473C1010.29,-139.768 1016.53,-136.573 1022,-133 1040.17,-121.123 1040.12,-112.306 1058,-100 1063.11,-96.4807 1068.82,-93.1677 1074.46,-90.1919"/>
<polygon fill="midnightblue" stroke="midnightblue" points="1076.4,-93.1337 1083.77,-85.5254 1073.26,-86.8751 1076.4,-93.1337"/>
</g>
<!-- Node86 -->
<g id="node27" class="node"><title>Node86</title>
<g id="a_node27"><a xlink:href="ldo_8c.html#a2a5656cf723dffe2e9b5314260bd8896" target="_top" xlink:title=" ">
<polygon fill="white" stroke="black" points="1203.5,-104.5 1203.5,-123.5 1290.5,-123.5 1290.5,-104.5 1203.5,-104.5"/>
<text text-anchor="middle" x="1247" y="-111.5" font-family="Helvetica,sans-Serif" font-size="10.00">luaD_seterrorobj</text>
</a>
</g>
</g>
<!-- Node82&#45;&gt;Node86 -->
<g id="edge31" class="edge"><title>Node82&#45;&gt;Node86</title>
<path fill="none" stroke="midnightblue" d="M1013.79,-142.558C1027.48,-139.124 1043.4,-135.482 1058,-133 1103.23,-125.312 1155.15,-120.353 1192.95,-117.437"/>
<polygon fill="midnightblue" stroke="midnightblue" points="1193.51,-120.905 1203.22,-116.667 1192.99,-113.924 1193.51,-120.905"/>
</g>
<!-- Node87 -->
<g id="node29" class="node"><title>Node87</title>
<g id="a_node29"><a xlink:href="lstate_8c.html#a242ebb018d637c41f24b84a2bbc78f34" target="_top" xlink:title=" ">
<polygon fill="white" stroke="black" points="1066.5,-180.5 1066.5,-199.5 1147.5,-199.5 1147.5,-180.5 1066.5,-180.5"/>
<text text-anchor="middle" x="1107" y="-187.5" font-family="Helvetica,sans-Serif" font-size="10.00">luaE_warnerror</text>
</a>
</g>
</g>
<!-- Node82&#45;&gt;Node87 -->
<g id="edge32" class="edge"><title>Node82&#45;&gt;Node87</title>
<path fill="none" stroke="midnightblue" d="M1011.05,-161.589C1027.14,-166.404 1046.84,-172.299 1064.12,-177.468"/>
<polygon fill="midnightblue" stroke="midnightblue" points="1063.38,-180.901 1073.96,-180.414 1065.39,-174.194 1063.38,-180.901"/>
</g>
<!-- Node89 -->
<g id="node31" class="node"><title>Node89</title>
<g id="a_node31"><a xlink:href="lfunc_8c.html#a523bc674df9f893ade61463c4ba5f09a" target="_top" xlink:title=" ">
<polygon fill="white" stroke="black" points="1058,-142.5 1058,-161.5 1156,-161.5 1156,-142.5 1058,-142.5"/>
<text text-anchor="middle" x="1107" y="-149.5" font-family="Helvetica,sans-Serif" font-size="10.00">prepclosingmethod</text>
</a>
</g>
</g>
<!-- Node82&#45;&gt;Node89 -->
<g id="edge34" class="edge"><title>Node82&#45;&gt;Node89</title>
<path fill="none" stroke="midnightblue" d="M1013.7,-152C1024.16,-152 1035.93,-152 1047.48,-152"/>
<polygon fill="midnightblue" stroke="midnightblue" points="1047.53,-155.5 1057.53,-152 1047.53,-148.5 1047.53,-155.5"/>
</g>
<!-- Node92 -->
<g id="node33" class="node"><title>Node92</title>
<g id="a_node33"><a xlink:href="lfunc_8c.html#a865c4fcb22304c78c59721af224c34b6" target="_top" xlink:title=" ">
<polygon fill="white" stroke="black" points="1083,-218.5 1083,-237.5 1131,-237.5 1131,-218.5 1083,-218.5"/>
<text text-anchor="middle" x="1107" y="-225.5" font-family="Helvetica,sans-Serif" font-size="10.00">varerror</text>
</a>
</g>
</g>
<!-- Node82&#45;&gt;Node92 -->
<g id="edge36" class="edge"><title>Node82&#45;&gt;Node92</title>
<path fill="none" stroke="midnightblue" d="M990.435,-161.658C1005.28,-173.857 1032.34,-194.948 1058,-209 1062.69,-211.571 1067.81,-213.976 1072.9,-216.153"/>
<polygon fill="midnightblue" stroke="midnightblue" points="1071.94,-219.54 1082.52,-220.042 1074.56,-213.05 1071.94,-219.54"/>
</g>
<!-- Node83&#45;&gt;Node75 -->
<g id="edge25" class="edge"><title>Node83&#45;&gt;Node75</title>
<path fill="none" stroke="midnightblue" d="M1411.5,-332.364C1418.01,-329.623 1424.88,-326.438 1431,-323 1452.24,-311.071 1474.53,-294.43 1489.91,-282.207"/>
<polygon fill="midnightblue" stroke="midnightblue" points="1492.52,-284.595 1498.11,-275.59 1488.13,-279.148 1492.52,-284.595"/>
</g>
<!-- Node84&#45;&gt;Node81 -->
<g id="edge30" class="edge"><title>Node84&#45;&gt;Node81</title>
<path fill="none" stroke="midnightblue" d="M1075.74,-78.3274C1031.72,-81.7135 949.887,-88.0087 900.34,-91.82"/>
<polygon fill="midnightblue" stroke="midnightblue" points="899.985,-88.3369 890.283,-92.5936 900.522,-95.3163 899.985,-88.3369"/>
</g>
<!-- Node85 -->
<g id="node26" class="node"><title>Node85</title>
<g id="a_node26"><a xlink:href="ldo_8c.html#ab0872b1738a995ecbf1cdc8a9bc0fdf6" target="_top" xlink:title=" ">
<polygon fill="white" stroke="black" points="1192,-28.5 1192,-47.5 1302,-47.5 1302,-28.5 1192,-28.5"/>
<text text-anchor="middle" x="1247" y="-35.5" font-family="Helvetica,sans-Serif" font-size="10.00">luaD_rawrunprotected</text>
</a>
</g>
</g>
<!-- Node84&#45;&gt;Node85 -->
<g id="edge27" class="edge"><title>Node84&#45;&gt;Node85</title>
<path fill="none" stroke="midnightblue" d="M1138.28,-67.6607C1156.83,-62.5539 1180.89,-55.9278 1201.57,-50.2341"/>
<polygon fill="midnightblue" stroke="midnightblue" points="1202.7,-53.5539 1211.41,-47.5246 1200.84,-46.8051 1202.7,-53.5539"/>
</g>
<!-- Node84&#45;&gt;Node86 -->
<g id="edge28" class="edge"><title>Node84&#45;&gt;Node86</title>
<path fill="none" stroke="midnightblue" d="M1138.28,-84.3393C1156.83,-89.4461 1180.89,-96.0722 1201.57,-101.766"/>
<polygon fill="midnightblue" stroke="midnightblue" points="1200.84,-105.195 1211.41,-104.475 1202.7,-98.4461 1200.84,-105.195"/>
</g>
<!-- Node57 -->
<g id="node28" class="node"><title>Node57</title>
<g id="a_node28"><a xlink:href="ldo_8c.html#a219aa86777779dccae2c1bf9008db70a" target="_top" xlink:title=" ">
<polygon fill="white" stroke="red" points="1201,-66.5 1201,-85.5 1293,-85.5 1293,-66.5 1201,-66.5"/>
<text text-anchor="middle" x="1247" y="-73.5" font-family="Helvetica,sans-Serif" font-size="10.00">luaD_shrinkstack</text>
</a>
</g>
</g>
<!-- Node84&#45;&gt;Node57 -->
<g id="edge29" class="edge"><title>Node84&#45;&gt;Node57</title>
<path fill="none" stroke="midnightblue" d="M1138.28,-76C1153.68,-76 1172.87,-76 1190.77,-76"/>
<polygon fill="midnightblue" stroke="midnightblue" points="1190.84,-79.5001 1200.84,-76 1190.84,-72.5001 1190.84,-79.5001"/>
</g>
<!-- Node88 -->
<g id="node30" class="node"><title>Node88</title>
<g id="a_node30"><a xlink:href="lstate_8c.html#a7055cc5e36512e37c811a7d5c6fa0be6" target="_top" xlink:title=" ">
<polygon fill="white" stroke="black" points="1210,-180.5 1210,-199.5 1284,-199.5 1284,-180.5 1210,-180.5"/>
<text text-anchor="middle" x="1247" y="-187.5" font-family="Helvetica,sans-Serif" font-size="10.00">luaE_warning</text>
</a>
</g>
</g>
<!-- Node87&#45;&gt;Node88 -->
<g id="edge33" class="edge"><title>Node87&#45;&gt;Node88</title>
<path fill="none" stroke="midnightblue" d="M1147.55,-190C1163.77,-190 1182.67,-190 1199.55,-190"/>
<polygon fill="midnightblue" stroke="midnightblue" points="1199.75,-193.5 1209.75,-190 1199.75,-186.5 1199.75,-193.5"/>
</g>
<!-- Node90 -->
<g id="node32" class="node"><title>Node90</title>
<g id="a_node32"><a xlink:href="ltm_8c.html#a0a3a3df9d6e7f17d806f74d411e59b2d" target="_top" xlink:title=" ">
<polygon fill="white" stroke="red" points="1203,-142.5 1203,-161.5 1291,-161.5 1291,-142.5 1203,-142.5"/>
<text text-anchor="middle" x="1247" y="-149.5" font-family="Helvetica,sans-Serif" font-size="10.00">luaT_gettmbyobj</text>
</a>
</g>
</g>
<!-- Node89&#45;&gt;Node90 -->
<g id="edge35" class="edge"><title>Node89&#45;&gt;Node90</title>
<path fill="none" stroke="midnightblue" d="M1156.27,-152C1167.93,-152 1180.46,-152 1192.35,-152"/>
<polygon fill="midnightblue" stroke="midnightblue" points="1192.6,-155.5 1202.6,-152 1192.6,-148.5 1192.6,-155.5"/>
</g>
<!-- Node92&#45;&gt;Node16 -->
<g id="edge38" class="edge"><title>Node92&#45;&gt;Node16</title>
<path fill="none" stroke="midnightblue" d="M1131.1,-234.36C1150.3,-239.648 1178.18,-247.325 1201.67,-253.793"/>
<polygon fill="midnightblue" stroke="midnightblue" points="1200.86,-257.2 1211.43,-256.48 1202.72,-250.451 1200.86,-257.2"/>
</g>
<!-- Node93 -->
<g id="node34" class="node"><title>Node93</title>
<g id="a_node34"><a xlink:href="ldebug_8c.html#acf87581237e7d0072502ffc5092e8329" target="_top" xlink:title=" ">
<polygon fill="white" stroke="red" points="1208.5,-218.5 1208.5,-237.5 1285.5,-237.5 1285.5,-218.5 1208.5,-218.5"/>
<text text-anchor="middle" x="1247" y="-225.5" font-family="Helvetica,sans-Serif" font-size="10.00">luaG_findlocal</text>
</a>
</g>
</g>
<!-- Node92&#45;&gt;Node93 -->
<g id="edge37" class="edge"><title>Node92&#45;&gt;Node93</title>
<path fill="none" stroke="midnightblue" d="M1131.1,-228C1149.4,-228 1175.58,-228 1198.33,-228"/>
<polygon fill="midnightblue" stroke="midnightblue" points="1198.5,-231.5 1208.5,-228 1198.5,-224.5 1198.5,-231.5"/>
</g>
<!-- Node452 -->
<g id="node37" class="node"><title>Node452</title>
<g id="a_node37"><a xlink:href="lapi_8c.html#a652b273947f0656686f998d8e90cd3ea" target="_top" xlink:title=" ">
<polygon fill="white" stroke="black" points="441.5,-263.5 441.5,-282.5 494.5,-282.5 494.5,-263.5 441.5,-263.5"/>
<text text-anchor="middle" x="468" y="-270.5" font-family="Helvetica,sans-Serif" font-size="10.00">lua_type</text>
</a>
</g>
</g>
<!-- Node451&#45;&gt;Node452 -->
<g id="edge41" class="edge"><title>Node451&#45;&gt;Node452</title>
<path fill="none" stroke="midnightblue" d="M181.311,-256.426C246.218,-260.191 370.093,-267.378 431.156,-270.921"/>
<polygon fill="midnightblue" stroke="midnightblue" points="431.263,-274.433 441.449,-271.518 431.669,-267.444 431.263,-274.433"/>
</g>
<!-- Node453 -->
<g id="node38" class="node"><title>Node453</title>
<g id="a_node38"><a xlink:href="lauxlib_8c.html#ab8e946260debec8d4bbc714b76a1613b" target="_top" xlink:title=" ">
<polygon fill="white" stroke="black" points="217,-225.5 217,-244.5 272,-244.5 272,-225.5 217,-225.5"/>
<text text-anchor="middle" x="244.5" y="-232.5" font-family="Helvetica,sans-Serif" font-size="10.00">tag_error</text>
</a>
</g>
</g>
<!-- Node451&#45;&gt;Node453 -->
<g id="edge43" class="edge"><title>Node451&#45;&gt;Node453</title>
<path fill="none" stroke="midnightblue" d="M181.202,-246.381C189.625,-244.843 198.424,-243.235 206.667,-241.729"/>
<polygon fill="midnightblue" stroke="midnightblue" points="207.53,-245.129 216.739,-239.889 206.272,-238.243 207.53,-245.129"/>
</g>
<!-- Node452&#45;&gt;Node4 -->
<g id="edge42" class="edge"><title>Node452&#45;&gt;Node4</title>
<path fill="none" stroke="midnightblue" d="M494.792,-277.81C510.652,-280.522 531.427,-283.632 550,-285 652.832,-292.576 679.681,-297.759 782,-285 793.43,-283.575 805.617,-280.973 816.772,-278.142"/>
<polygon fill="midnightblue" stroke="midnightblue" points="817.913,-281.46 826.676,-275.505 816.112,-274.696 817.913,-281.46"/>
</g>
<!-- Node454 -->
<g id="node39" class="node"><title>Node454</title>
<g id="a_node39"><a xlink:href="lapi_8c.html#a7d64f87addab440bbda96bb088816e17" target="_top" xlink:title=" ">
<polygon fill="white" stroke="black" points="308.5,-187.5 308.5,-206.5 385.5,-206.5 385.5,-187.5 308.5,-187.5"/>
<text text-anchor="middle" x="347" y="-194.5" font-family="Helvetica,sans-Serif" font-size="10.00">lua_typename</text>
</a>
</g>
</g>
<!-- Node453&#45;&gt;Node454 -->
<g id="edge44" class="edge"><title>Node453&#45;&gt;Node454</title>
<path fill="none" stroke="midnightblue" d="M270.86,-225.411C283.001,-220.821 297.734,-215.25 310.928,-210.261"/>
<polygon fill="midnightblue" stroke="midnightblue" points="312.532,-213.397 320.648,-206.586 310.056,-206.849 312.532,-213.397"/>
</g>
<!-- Node455 -->
<g id="node40" class="node"><title>Node455</title>
<g id="a_node40"><a xlink:href="lauxlib_8c.html#ab8ddc4ac13516f3548a6c102dd6fa114" target="_top" xlink:title=" ">
<polygon fill="white" stroke="black" points="308,-225.5 308,-244.5 386,-244.5 386,-225.5 308,-225.5"/>
<text text-anchor="middle" x="347" y="-232.5" font-family="Helvetica,sans-Serif" font-size="10.00">luaL_typeerror</text>
</a>
</g>
</g>
<!-- Node453&#45;&gt;Node455 -->
<g id="edge45" class="edge"><title>Node453&#45;&gt;Node455</title>
<path fill="none" stroke="midnightblue" d="M272.168,-235C280.026,-235 288.879,-235 297.654,-235"/>
<polygon fill="midnightblue" stroke="midnightblue" points="297.855,-238.5 307.855,-235 297.855,-231.5 297.855,-238.5"/>
</g>
<!-- Node455&#45;&gt;Node452 -->
<g id="edge48" class="edge"><title>Node455&#45;&gt;Node452</title>
<path fill="none" stroke="midnightblue" d="M378.029,-244.589C394.375,-249.809 414.691,-256.296 431.781,-261.754"/>
<polygon fill="midnightblue" stroke="midnightblue" points="430.826,-265.123 441.417,-264.831 432.955,-258.454 430.826,-265.123"/>
</g>
<!-- Node456 -->
<g id="node41" class="node"><title>Node456</title>
<g id="a_node41"><a xlink:href="lapi_8c.html#ab190c226d38b289e6ca57683a9d4e0f0" target="_top" xlink:title=" ">
<polygon fill="white" stroke="black" points="427,-320.5 427,-339.5 509,-339.5 509,-320.5 427,-320.5"/>
<text text-anchor="middle" x="468" y="-327.5" font-family="Helvetica,sans-Serif" font-size="10.00">lua_pushfstring</text>
</a>
</g>
</g>
<!-- Node455&#45;&gt;Node456 -->
<g id="edge46" class="edge"><title>Node455&#45;&gt;Node456</title>
<path fill="none" stroke="midnightblue" d="M360.287,-244.809C380.791,-261.178 422.173,-294.214 446.948,-313.992"/>
<polygon fill="midnightblue" stroke="midnightblue" points="444.958,-316.882 454.957,-320.386 449.326,-311.412 444.958,-316.882"/>
</g>
<!-- Node457 -->
<g id="node42" class="node"><title>Node457</title>
<g id="a_node42"><a xlink:href="lauxlib_8c.html#ac607576dd107a3120cd51948989f1ed2" target="_top" xlink:title=" ">
<polygon fill="white" stroke="black" points="431.5,-104.5 431.5,-123.5 504.5,-123.5 504.5,-104.5 431.5,-104.5"/>
<text text-anchor="middle" x="468" y="-111.5" font-family="Helvetica,sans-Serif" font-size="10.00">luaL_argerror</text>
</a>
</g>
</g>
<!-- Node455&#45;&gt;Node457 -->
<g id="edge49" class="edge"><title>Node455&#45;&gt;Node457</title>
<path fill="none" stroke="midnightblue" d="M371.087,-225.474C376.26,-222.805 381.532,-219.625 386,-216 415.98,-191.674 442,-154.426 456.006,-132.313"/>
<polygon fill="midnightblue" stroke="midnightblue" points="459.124,-133.926 461.409,-123.581 453.171,-130.243 459.124,-133.926"/>
</g>
<!-- Node479 -->
<g id="node48" class="node"><title>Node479</title>
<g id="a_node48"><a xlink:href="lauxlib_8c.html#add7cea31816ff3f61014031248e0daa6" target="_top" xlink:title=" ">
<polygon fill="white" stroke="black" points="422,-220.5 422,-239.5 514,-239.5 514,-220.5 422,-220.5"/>
<text text-anchor="middle" x="468" y="-227.5" font-family="Helvetica,sans-Serif" font-size="10.00">luaL_getmetafield</text>
</a>
</g>
</g>
<!-- Node455&#45;&gt;Node479 -->
<g id="edge57" class="edge"><title>Node455&#45;&gt;Node479</title>
<path fill="none" stroke="midnightblue" d="M386.307,-233.39C394.326,-233.054 402.935,-232.692 411.437,-232.335"/>
<polygon fill="midnightblue" stroke="midnightblue" points="411.862,-235.82 421.706,-231.903 411.568,-228.826 411.862,-235.82"/>
</g>
<!-- Node456&#45;&gt;Node24 -->
<g id="edge47" class="edge"><title>Node456&#45;&gt;Node24</title>
<path fill="none" stroke="midnightblue" d="M509.157,-332.936C561.299,-336.488 655.145,-342 735.5,-342 735.5,-342 735.5,-342 979,-342 1104.05,-342 1249.9,-323.775 1327.76,-312.568"/>
<polygon fill="midnightblue" stroke="midnightblue" points="1328.44,-316.006 1337.83,-311.103 1327.43,-309.079 1328.44,-316.006"/>
</g>
<!-- Node458 -->
<g id="node43" class="node"><title>Node458</title>
<g id="a_node43"><a xlink:href="ldebug_8c.html#acaafc35d8e385c4d167229486165df6d" target="_top" xlink:title=" ">
<polygon fill="white" stroke="red" points="705,-66.5 705,-85.5 768,-85.5 768,-66.5 705,-66.5"/>
<text text-anchor="middle" x="736.5" y="-73.5" font-family="Helvetica,sans-Serif" font-size="10.00">lua_getinfo</text>
</a>
</g>
</g>
<!-- Node457&#45;&gt;Node458 -->
<g id="edge50" class="edge"><title>Node457&#45;&gt;Node458</title>
<path fill="none" stroke="midnightblue" d="M504.687,-104.586C518.729,-101.157 535.043,-97.5096 550,-95 599.466,-86.7004 657.002,-81.4875 694.722,-78.6651"/>
<polygon fill="midnightblue" stroke="midnightblue" points="695.092,-82.1475 704.812,-77.9318 694.584,-75.1659 695.092,-82.1475"/>
</g>
<!-- Node465 -->
<g id="node44" class="node"><title>Node465</title>
<g id="a_node44"><a xlink:href="ldebug_8c.html#ac1fc03c27ee46caa4037df2d70f22110" target="_top" xlink:title=" ">
<polygon fill="white" stroke="black" points="566.5,-142.5 566.5,-161.5 638.5,-161.5 638.5,-142.5 566.5,-142.5"/>
<text text-anchor="middle" x="602.5" y="-149.5" font-family="Helvetica,sans-Serif" font-size="10.00">lua_getstack</text>
</a>
</g>
</g>
<!-- Node457&#45;&gt;Node465 -->
<g id="edge51" class="edge"><title>Node457&#45;&gt;Node465</title>
<path fill="none" stroke="midnightblue" d="M502.435,-123.589C519.383,-128.449 540.163,-134.409 558.308,-139.613"/>
<polygon fill="midnightblue" stroke="midnightblue" points="557.498,-143.022 568.075,-142.414 559.428,-136.293 557.498,-143.022"/>
</g>
<!-- Node466 -->
<g id="node45" class="node"><title>Node466</title>
<g id="a_node45"><a xlink:href="lauxlib_8c.html#a6c51d83d29244779392551388913e08a" target="_top" xlink:title=" ">
<polygon fill="white" stroke="red" points="573,-104.5 573,-123.5 632,-123.5 632,-104.5 573,-104.5"/>
<text text-anchor="middle" x="602.5" y="-111.5" font-family="Helvetica,sans-Serif" font-size="10.00">luaL_error</text>
</a>
</g>
</g>
<!-- Node457&#45;&gt;Node466 -->
<g id="edge52" class="edge"><title>Node457&#45;&gt;Node466</title>
<path fill="none" stroke="midnightblue" d="M504.508,-114C522.405,-114 544.149,-114 562.509,-114"/>
<polygon fill="midnightblue" stroke="midnightblue" points="562.594,-117.5 572.594,-114 562.594,-110.5 562.594,-117.5"/>
</g>
<!-- Node471 -->
<g id="node46" class="node"><title>Node471</title>
<g id="a_node46"><a xlink:href="lauxlib_8c.html#a4f35430f7ecfcbd5f507e550937046b4" target="_top" xlink:title=" ">
<polygon fill="white" stroke="red" points="550,-28.5 550,-47.5 655,-47.5 655,-28.5 550,-28.5"/>
<text text-anchor="middle" x="602.5" y="-35.5" font-family="Helvetica,sans-Serif" font-size="10.00">pushglobalfuncname</text>
</a>
</g>
</g>
<!-- Node457&#45;&gt;Node471 -->
<g id="edge53" class="edge"><title>Node457&#45;&gt;Node471</title>
<path fill="none" stroke="midnightblue" d="M482.699,-104.397C498.533,-93.4895 525.555,-75.4627 550,-62 556.328,-58.5151 563.25,-55.0599 569.908,-51.9028"/>
<polygon fill="midnightblue" stroke="midnightblue" points="571.77,-54.8979 579.375,-47.5215 568.83,-48.5453 571.77,-54.8979"/>
</g>
<!-- Node471&#45;&gt;Node450 -->
<g id="edge56" class="edge"><title>Node471&#45;&gt;Node450</title>
<path fill="none" stroke="midnightblue" d="M655.291,-38C668.495,-38 682.496,-38 695.041,-38"/>
<polygon fill="midnightblue" stroke="midnightblue" points="695.187,-41.5001 705.187,-38 695.187,-34.5001 695.187,-41.5001"/>
</g>
<!-- Node471&#45;&gt;Node458 -->
<g id="edge54" class="edge"><title>Node471&#45;&gt;Node458</title>
<path fill="none" stroke="midnightblue" d="M636.809,-47.589C654.548,-52.6956 676.501,-59.0156 695.196,-64.3973"/>
<polygon fill="midnightblue" stroke="midnightblue" points="694.338,-67.7924 704.916,-67.1955 696.274,-61.0656 694.338,-67.7924"/>
</g>
<!-- Node478 -->
<g id="node47" class="node"><title>Node478</title>
<g id="a_node47"><a xlink:href="lapi_8c.html#a771d300f2e64b2197d1df9bf31660ebf" target="_top" xlink:title=" ">
<polygon fill="white" stroke="red" points="696.5,-142.5 696.5,-161.5 776.5,-161.5 776.5,-142.5 696.5,-142.5"/>
<text text-anchor="middle" x="736.5" y="-149.5" font-family="Helvetica,sans-Serif" font-size="10.00">lua_pushstring</text>
</a>
</g>
</g>
<!-- Node471&#45;&gt;Node478 -->
<g id="edge55" class="edge"><title>Node471&#45;&gt;Node478</title>
<path fill="none" stroke="midnightblue" d="M614.754,-47.7196C637.355,-67.2382 688.479,-111.391 716.409,-135.512"/>
<polygon fill="midnightblue" stroke="midnightblue" points="714.418,-138.418 724.274,-142.305 718.994,-133.12 714.418,-138.418"/>
</g>
<!-- Node479&#45;&gt;Node478 -->
<g id="edge60" class="edge"><title>Node479&#45;&gt;Node478</title>
<path fill="none" stroke="midnightblue" d="M501.678,-220.436C549.86,-206.334 639.986,-179.955 693.17,-164.389"/>
<polygon fill="midnightblue" stroke="midnightblue" points="694.358,-167.689 702.972,-161.52 692.391,-160.97 694.358,-167.689"/>
</g>
<!-- Node480 -->
<g id="node49" class="node"><title>Node480</title>
<g id="a_node49"><a xlink:href="lapi_8c.html#a4caa9ca5e47a30bd45e33d83bf2d6d6e" target="_top" xlink:title=" ">
<polygon fill="white" stroke="black" points="691,-218.5 691,-237.5 782,-237.5 782,-218.5 691,-218.5"/>
<text text-anchor="middle" x="736.5" y="-225.5" font-family="Helvetica,sans-Serif" font-size="10.00">lua_getmetatable</text>
</a>
</g>
</g>
<!-- Node479&#45;&gt;Node480 -->
<g id="edge58" class="edge"><title>Node479&#45;&gt;Node480</title>
<path fill="none" stroke="midnightblue" d="M514.208,-229.661C560.237,-229.315 631.636,-228.779 680.819,-228.41"/>
<polygon fill="midnightblue" stroke="midnightblue" points="680.986,-231.909 690.96,-228.334 680.934,-224.91 680.986,-231.909"/>
</g>
<!-- Node481 -->
<g id="node50" class="node"><title>Node481</title>
<g id="a_node50"><a xlink:href="lapi_8c.html#a52944e714d1c64bda7b83f511c14b2d3" target="_top" xlink:title=" ">
<polygon fill="white" stroke="red" points="571,-256.5 571,-275.5 634,-275.5 634,-256.5 571,-256.5"/>
<text text-anchor="middle" x="602.5" y="-263.5" font-family="Helvetica,sans-Serif" font-size="10.00">lua_rawget</text>
</a>
</g>
</g>
<!-- Node479&#45;&gt;Node481 -->
<g id="edge61" class="edge"><title>Node479&#45;&gt;Node481</title>
<path fill="none" stroke="midnightblue" d="M504.16,-239.553C521.626,-244.298 542.82,-250.057 560.967,-254.987"/>
<polygon fill="midnightblue" stroke="midnightblue" points="560.124,-258.385 570.692,-257.629 561.959,-251.63 560.124,-258.385"/>
</g>
<!-- Node480&#45;&gt;Node4 -->
<g id="edge59" class="edge"><title>Node480&#45;&gt;Node4</title>
<path fill="none" stroke="midnightblue" d="M767.655,-237.589C782.657,-242.359 800.988,-248.189 817.134,-253.323"/>
<polygon fill="midnightblue" stroke="midnightblue" points="816.264,-256.719 826.855,-256.414 818.386,-250.048 816.264,-256.719"/>
</g>
<!-- Node481&#45;&gt;Node3 -->
<g id="edge62" class="edge"><title>Node481&#45;&gt;Node3</title>
<path fill="none" stroke="midnightblue" d="M634.115,-266C653.961,-266 679.867,-266 700.524,-266"/>
<polygon fill="midnightblue" stroke="midnightblue" points="700.788,-269.5 710.788,-266 700.788,-262.5 700.788,-269.5"/>
</g>
</g>
</svg>
