<?xml version="1.0" encoding="UTF-8" standalone="no"?>
<!DOCTYPE svg PUBLIC "-//W3C//DTD SVG 1.1//EN"
 "http://www.w3.org/Graphics/SVG/1.1/DTD/svg11.dtd">
<!-- Generated by graphviz version 2.38.0 (20140413.2041)
 -->
<!-- Title: luaK_patchtohere Pages: 1 -->
<svg width="2224pt" height="531pt"
 viewBox="0.00 0.00 2224.00 531.00" xmlns="http://www.w3.org/2000/svg" xmlns:xlink="http://www.w3.org/1999/xlink">
<g id="graph0" class="graph" transform="scale(1 1) rotate(0) translate(4 527)">
<title>luaK_patchtohere</title>
<polygon fill="white" stroke="none" points="-4,4 -4,-527 2220,-527 2220,4 -4,4"/>
<!-- Node1 -->
<g id="node1" class="node"><title>Node1</title>
<g id="a_node1"><a xlink:title=" ">
<polygon fill="#bfbfbf" stroke="black" points="0,-380.5 0,-399.5 92,-399.5 92,-380.5 0,-380.5"/>
<text text-anchor="middle" x="46" y="-387.5" font-family="Helvetica,sans-Serif" font-size="10.00">luaK_patchtohere</text>
</a>
</g>
</g>
<!-- Node2 -->
<g id="node2" class="node"><title>Node2</title>
<g id="a_node2"><a xlink:href="lcode_8c.html#afd70025e040dde0ef167df148de201b0" target="_top" xlink:title=" ">
<polygon fill="white" stroke="black" points="129.5,-399.5 129.5,-418.5 204.5,-418.5 204.5,-399.5 129.5,-399.5"/>
<text text-anchor="middle" x="167" y="-406.5" font-family="Helvetica,sans-Serif" font-size="10.00">luaK_getlabel</text>
</a>
</g>
</g>
<!-- Node1&#45;&gt;Node2 -->
<g id="edge1" class="edge"><title>Node1&#45;&gt;Node2</title>
<path fill="none" stroke="midnightblue" d="M92.3283,-397.237C101.109,-398.639 110.327,-400.111 119.156,-401.521"/>
<polygon fill="midnightblue" stroke="midnightblue" points="118.864,-405.018 129.291,-403.139 119.968,-398.106 118.864,-405.018"/>
</g>
<!-- Node3 -->
<g id="node3" class="node"><title>Node3</title>
<g id="a_node3"><a xlink:href="lcode_8c.html#a4db596b358989fa68a43b6f697fc9a09" target="_top" xlink:title=" ">
<polygon fill="white" stroke="black" points="128,-361.5 128,-380.5 206,-380.5 206,-361.5 128,-361.5"/>
<text text-anchor="middle" x="167" y="-368.5" font-family="Helvetica,sans-Serif" font-size="10.00">luaK_patchlist</text>
</a>
</g>
</g>
<!-- Node1&#45;&gt;Node3 -->
<g id="edge2" class="edge"><title>Node1&#45;&gt;Node3</title>
<path fill="none" stroke="midnightblue" d="M92.3283,-382.763C100.64,-381.436 109.344,-380.046 117.738,-378.706"/>
<polygon fill="midnightblue" stroke="midnightblue" points="118.453,-382.136 127.776,-377.103 117.349,-375.224 118.453,-382.136"/>
</g>
<!-- Node4 -->
<g id="node4" class="node"><title>Node4</title>
<g id="a_node4"><a xlink:href="lcode_8c.html#a83e8d2f1641cfd3ed1c465f07f383c5e" target="_top" xlink:title=" ">
<polygon fill="white" stroke="black" points="242,-361.5 242,-380.5 311,-380.5 311,-361.5 242,-361.5"/>
<text text-anchor="middle" x="276.5" y="-368.5" font-family="Helvetica,sans-Serif" font-size="10.00">patchlistaux</text>
</a>
</g>
</g>
<!-- Node3&#45;&gt;Node4 -->
<g id="edge3" class="edge"><title>Node3&#45;&gt;Node4</title>
<path fill="none" stroke="midnightblue" d="M206.203,-371C214.441,-371 223.211,-371 231.645,-371"/>
<polygon fill="midnightblue" stroke="midnightblue" points="231.708,-374.5 241.708,-371 231.708,-367.5 231.708,-374.5"/>
</g>
<!-- Node5 -->
<g id="node5" class="node"><title>Node5</title>
<g id="a_node5"><a xlink:href="lcode_8c.html#a90b203d73d5f6e3ffb85079e746b028d" target="_top" xlink:title=" ">
<polygon fill="white" stroke="black" points="359,-399.5 359,-418.5 406,-418.5 406,-399.5 359,-399.5"/>
<text text-anchor="middle" x="382.5" y="-406.5" font-family="Helvetica,sans-Serif" font-size="10.00">fixjump</text>
</a>
</g>
</g>
<!-- Node4&#45;&gt;Node5 -->
<g id="edge4" class="edge"><title>Node4&#45;&gt;Node5</title>
<path fill="none" stroke="midnightblue" d="M303.744,-380.589C317.531,-385.627 334.55,-391.845 349.148,-397.179"/>
<polygon fill="midnightblue" stroke="midnightblue" points="348.203,-400.56 358.797,-400.705 350.606,-393.985 348.203,-400.56"/>
</g>
<!-- Node212 -->
<g id="node48" class="node"><title>Node212</title>
<g id="a_node48"><a xlink:href="lcode_8c.html#ac74dd95e53d610cf12e752f3075fe450" target="_top" xlink:title=" ">
<polygon fill="white" stroke="black" points="357,-361.5 357,-380.5 408,-380.5 408,-361.5 357,-361.5"/>
<text text-anchor="middle" x="382.5" y="-368.5" font-family="Helvetica,sans-Serif" font-size="10.00">getjump</text>
</a>
</g>
</g>
<!-- Node4&#45;&gt;Node212 -->
<g id="edge68" class="edge"><title>Node4&#45;&gt;Node212</title>
<path fill="none" stroke="midnightblue" d="M311.266,-371C322.618,-371 335.299,-371 346.727,-371"/>
<polygon fill="midnightblue" stroke="midnightblue" points="346.797,-374.5 356.797,-371 346.797,-367.5 346.797,-374.5"/>
</g>
<!-- Node265 -->
<g id="node49" class="node"><title>Node265</title>
<g id="a_node49"><a xlink:href="lcode_8c.html#ac7ce05b875db5d3bdca16012f3bcad8e" target="_top" xlink:title=" ">
<polygon fill="white" stroke="black" points="347,-323.5 347,-342.5 418,-342.5 418,-323.5 347,-323.5"/>
<text text-anchor="middle" x="382.5" y="-330.5" font-family="Helvetica,sans-Serif" font-size="10.00">patchtestreg</text>
</a>
</g>
</g>
<!-- Node4&#45;&gt;Node265 -->
<g id="edge69" class="edge"><title>Node4&#45;&gt;Node265</title>
<path fill="none" stroke="midnightblue" d="M303.744,-361.411C316.43,-356.776 331.853,-351.14 345.607,-346.115"/>
<polygon fill="midnightblue" stroke="midnightblue" points="347.073,-349.305 355.265,-342.586 344.671,-342.731 347.073,-349.305"/>
</g>
<!-- Node6 -->
<g id="node6" class="node"><title>Node6</title>
<g id="a_node6"><a xlink:href="llex_8c.html#aa5303ae41cbf1a2d9ef2f422751f85be" target="_top" xlink:title=" ">
<polygon fill="white" stroke="black" points="454,-399.5 454,-418.5 543,-418.5 543,-399.5 454,-399.5"/>
<text text-anchor="middle" x="498.5" y="-406.5" font-family="Helvetica,sans-Serif" font-size="10.00">luaX_syntaxerror</text>
</a>
</g>
</g>
<!-- Node5&#45;&gt;Node6 -->
<g id="edge5" class="edge"><title>Node5&#45;&gt;Node6</title>
<path fill="none" stroke="midnightblue" d="M406.023,-409C416.881,-409 430.414,-409 443.713,-409"/>
<polygon fill="midnightblue" stroke="midnightblue" points="443.789,-412.5 453.789,-409 443.789,-405.5 443.789,-412.5"/>
</g>
<!-- Node7 -->
<g id="node7" class="node"><title>Node7</title>
<g id="a_node7"><a xlink:href="llex_8c.html#a67bb1f3225ffe5738fef1c3d34879735" target="_top" xlink:title=" ">
<polygon fill="white" stroke="black" points="579,-399.5 579,-418.5 628,-418.5 628,-399.5 579,-399.5"/>
<text text-anchor="middle" x="603.5" y="-406.5" font-family="Helvetica,sans-Serif" font-size="10.00">lexerror</text>
</a>
</g>
</g>
<!-- Node6&#45;&gt;Node7 -->
<g id="edge6" class="edge"><title>Node6&#45;&gt;Node7</title>
<path fill="none" stroke="midnightblue" d="M543.181,-409C551.721,-409 560.554,-409 568.712,-409"/>
<polygon fill="midnightblue" stroke="midnightblue" points="568.967,-412.5 578.967,-409 568.967,-405.5 568.967,-412.5"/>
</g>
<!-- Node8 -->
<g id="node8" class="node"><title>Node8</title>
<g id="a_node8"><a xlink:href="ldo_8c.html#a2b46d9db5b9ca3d5402a0c2ac640a6b0" target="_top" xlink:title=" ">
<polygon fill="white" stroke="black" points="664,-247.5 664,-266.5 729,-266.5 729,-247.5 664,-247.5"/>
<text text-anchor="middle" x="696.5" y="-254.5" font-family="Helvetica,sans-Serif" font-size="10.00">luaD_throw</text>
</a>
</g>
</g>
<!-- Node7&#45;&gt;Node8 -->
<g id="edge7" class="edge"><title>Node7&#45;&gt;Node8</title>
<path fill="none" stroke="midnightblue" d="M610.192,-399.492C625.003,-374.754 664.939,-308.048 684.458,-275.444"/>
<polygon fill="midnightblue" stroke="midnightblue" points="687.676,-276.882 689.81,-266.505 681.67,-273.287 687.676,-276.882"/>
</g>
<!-- Node27 -->
<g id="node30" class="node"><title>Node27</title>
<g id="a_node30"><a xlink:href="ldebug_8c.html#a7e1dc7518150bf19bd9aa5dda166a2eb" target="_top" xlink:title=" ">
<polygon fill="white" stroke="black" points="1279.5,-399.5 1279.5,-418.5 1352.5,-418.5 1352.5,-399.5 1279.5,-399.5"/>
<text text-anchor="middle" x="1316" y="-406.5" font-family="Helvetica,sans-Serif" font-size="10.00">luaG_addinfo</text>
</a>
</g>
</g>
<!-- Node7&#45;&gt;Node27 -->
<g id="edge60" class="edge"><title>Node7&#45;&gt;Node27</title>
<path fill="none" stroke="midnightblue" d="M628.085,-401.218C663.935,-390.101 734.481,-371 796,-371 796,-371 796,-371 1039,-371 1120.79,-371 1214.96,-387.581 1269.46,-398.837"/>
<polygon fill="midnightblue" stroke="midnightblue" points="1268.98,-402.313 1279.49,-400.941 1270.42,-395.462 1268.98,-402.313"/>
</g>
<!-- Node29 -->
<g id="node32" class="node"><title>Node29</title>
<g id="a_node32"><a xlink:href="lobject_8c.html#a8e224db7123c74d695076a96d1bfda61" target="_top" xlink:title=" ">
<polygon fill="white" stroke="black" points="1399,-437.5 1399,-456.5 1488,-456.5 1488,-437.5 1399,-437.5"/>
<text text-anchor="middle" x="1443.5" y="-444.5" font-family="Helvetica,sans-Serif" font-size="10.00">luaO_pushfstring</text>
</a>
</g>
</g>
<!-- Node7&#45;&gt;Node29 -->
<g id="edge61" class="edge"><title>Node7&#45;&gt;Node29</title>
<path fill="none" stroke="midnightblue" d="M612.957,-418.72C637.937,-446.288 714.748,-523 796,-523 796,-523 796,-523 1179,-523 1267.64,-523 1366.71,-482.805 1414.17,-460.878"/>
<polygon fill="midnightblue" stroke="midnightblue" points="1415.66,-464.045 1423.22,-456.625 1412.68,-457.71 1415.66,-464.045"/>
</g>
<!-- Node443 -->
<g id="node45" class="node"><title>Node443</title>
<g id="a_node45"><a xlink:href="llex_8c.html#ab53c17c8b5ca50bcdfbd1cddf7310e83" target="_top" xlink:title=" ">
<polygon fill="white" stroke="black" points="669.5,-437.5 669.5,-456.5 723.5,-456.5 723.5,-437.5 669.5,-437.5"/>
<text text-anchor="middle" x="696.5" y="-444.5" font-family="Helvetica,sans-Serif" font-size="10.00">txtToken</text>
</a>
</g>
</g>
<!-- Node7&#45;&gt;Node443 -->
<g id="edge62" class="edge"><title>Node7&#45;&gt;Node443</title>
<path fill="none" stroke="midnightblue" d="M627.463,-418.589C638.24,-423.089 651.275,-428.532 663.039,-433.445"/>
<polygon fill="midnightblue" stroke="midnightblue" points="661.968,-436.79 672.544,-437.414 664.665,-430.331 661.968,-436.79"/>
</g>
<!-- Node8&#45;&gt;Node8 -->
<g id="edge9" class="edge"><title>Node8&#45;&gt;Node8</title>
<path fill="none" stroke="midnightblue" d="M682.32,-266.757C675.422,-275.565 680.148,-285 696.5,-285 706.72,-285 712.398,-281.315 713.536,-276.4"/>
<polygon fill="midnightblue" stroke="midnightblue" points="716.876,-275.351 710.68,-266.757 710.164,-277.339 716.876,-275.351"/>
</g>
<!-- Node9 -->
<g id="node9" class="node"><title>Node9</title>
<g id="a_node9"><a xlink:href="ldo_8c.html#a2a5656cf723dffe2e9b5314260bd8896" target="_top" xlink:title=" ">
<polygon fill="white" stroke="black" points="1134.5,-171.5 1134.5,-190.5 1221.5,-190.5 1221.5,-171.5 1134.5,-171.5"/>
<text text-anchor="middle" x="1178" y="-178.5" font-family="Helvetica,sans-Serif" font-size="10.00">luaD_seterrorobj</text>
</a>
</g>
</g>
<!-- Node8&#45;&gt;Node9 -->
<g id="edge8" class="edge"><title>Node8&#45;&gt;Node9</title>
<path fill="none" stroke="midnightblue" d="M720.433,-266.516C784.367,-291.408 967.72,-351.484 1087,-276 1118.58,-256.013 1095.23,-225.018 1123,-200 1124.74,-198.432 1126.62,-196.993 1128.59,-195.67"/>
<polygon fill="midnightblue" stroke="midnightblue" points="1130.7,-198.503 1137.74,-190.592 1127.3,-192.382 1130.7,-198.503"/>
</g>
<!-- Node10 -->
<g id="node10" class="node"><title>Node10</title>
<g id="a_node10"><a xlink:href="lfunc_8c.html#ae9fcbf80b5969afd9412b9aed102f94e" target="_top" xlink:title=" ">
<polygon fill="white" stroke="black" points="765,-209.5 765,-228.5 829,-228.5 829,-209.5 765,-209.5"/>
<text text-anchor="middle" x="797" y="-216.5" font-family="Helvetica,sans-Serif" font-size="10.00">luaF_close</text>
</a>
</g>
</g>
<!-- Node8&#45;&gt;Node10 -->
<g id="edge10" class="edge"><title>Node8&#45;&gt;Node10</title>
<path fill="none" stroke="midnightblue" d="M722.356,-247.411C734.255,-242.821 748.695,-237.25 761.626,-232.261"/>
<polygon fill="midnightblue" stroke="midnightblue" points="763.082,-235.451 771.152,-228.586 760.563,-228.92 763.082,-235.451"/>
</g>
<!-- Node11 -->
<g id="node11" class="node"><title>Node11</title>
<g id="a_node11"><a xlink:href="lfunc_8c.html#a4105c820bb9b1b4b4b3bd6613b0ccb05" target="_top" xlink:title=" ">
<polygon fill="white" stroke="black" points="873.5,-190.5 873.5,-209.5 944.5,-209.5 944.5,-190.5 873.5,-190.5"/>
<text text-anchor="middle" x="909" y="-197.5" font-family="Helvetica,sans-Serif" font-size="10.00">callclosemth</text>
</a>
</g>
</g>
<!-- Node10&#45;&gt;Node11 -->
<g id="edge11" class="edge"><title>Node10&#45;&gt;Node11</title>
<path fill="none" stroke="midnightblue" d="M829.227,-213.606C839.732,-211.792 851.668,-209.73 863.016,-207.77"/>
<polygon fill="midnightblue" stroke="midnightblue" points="863.956,-211.16 873.214,-206.008 862.764,-204.262 863.956,-211.16"/>
</g>
<!-- Node96 -->
<g id="node44" class="node"><title>Node96</title>
<g id="a_node44"><a xlink:href="lfunc_8c.html#a3b5a5ae122e85af5c941e9b4ffff53bd" target="_top" xlink:title=" ">
<polygon fill="white" stroke="black" points="865,-228.5 865,-247.5 953,-247.5 953,-228.5 865,-228.5"/>
<text text-anchor="middle" x="909" y="-235.5" font-family="Helvetica,sans-Serif" font-size="10.00">luaF_unlinkupval</text>
</a>
</g>
</g>
<!-- Node10&#45;&gt;Node96 -->
<g id="edge59" class="edge"><title>Node10&#45;&gt;Node96</title>
<path fill="none" stroke="midnightblue" d="M829.227,-224.394C837.257,-225.781 846.124,-227.312 854.926,-228.833"/>
<polygon fill="midnightblue" stroke="midnightblue" points="854.337,-232.283 864.787,-230.536 855.528,-225.385 854.337,-232.283"/>
</g>
<!-- Node11&#45;&gt;Node9 -->
<g id="edge22" class="edge"><title>Node11&#45;&gt;Node9</title>
<path fill="none" stroke="midnightblue" d="M944.632,-197.536C990.269,-194.288 1070.98,-188.545 1124.23,-184.755"/>
<polygon fill="midnightblue" stroke="midnightblue" points="1124.77,-188.225 1134.5,-184.024 1124.28,-181.243 1124.77,-188.225"/>
</g>
<!-- Node12 -->
<g id="node12" class="node"><title>Node12</title>
<g id="a_node12"><a xlink:href="lfunc_8c.html#ad6f77f3a49d8b6199525c7edac6fd0a6" target="_top" xlink:title=" ">
<polygon fill="white" stroke="black" points="1010.5,-133.5 1010.5,-152.5 1065.5,-152.5 1065.5,-133.5 1010.5,-133.5"/>
<text text-anchor="middle" x="1038" y="-140.5" font-family="Helvetica,sans-Serif" font-size="10.00">callclose</text>
</a>
</g>
</g>
<!-- Node11&#45;&gt;Node12 -->
<g id="edge12" class="edge"><title>Node11&#45;&gt;Node12</title>
<path fill="none" stroke="midnightblue" d="M931.257,-190.459C951.77,-181.253 983.047,-167.215 1006.27,-156.793"/>
<polygon fill="midnightblue" stroke="midnightblue" points="1007.98,-159.86 1015.67,-152.572 1005.12,-153.473 1007.98,-159.86"/>
</g>
<!-- Node81 -->
<g id="node15" class="node"><title>Node81</title>
<g id="a_node15"><a xlink:href="ldo_8c.html#a1ad7f845cc62b110e3fcc0ae187d7c85" target="_top" xlink:title=" ">
<polygon fill="white" stroke="black" points="1007,-95.5 1007,-114.5 1069,-114.5 1069,-95.5 1007,-95.5"/>
<text text-anchor="middle" x="1038" y="-102.5" font-family="Helvetica,sans-Serif" font-size="10.00">luaD_pcall</text>
</a>
</g>
</g>
<!-- Node11&#45;&gt;Node81 -->
<g id="edge15" class="edge"><title>Node11&#45;&gt;Node81</title>
<path fill="none" stroke="midnightblue" d="M919.692,-190.264C939.015,-170.914 981.156,-129.044 989,-124 991.954,-122.1 995.129,-120.337 998.387,-118.713"/>
<polygon fill="midnightblue" stroke="midnightblue" points="1000.01,-121.82 1007.68,-114.506 997.123,-115.443 1000.01,-121.82"/>
</g>
<!-- Node83 -->
<g id="node20" class="node"><title>Node83</title>
<g id="a_node20"><a xlink:href="lstate_8c.html#a242ebb018d637c41f24b84a2bbc78f34" target="_top" xlink:title=" ">
<polygon fill="white" stroke="black" points="997.5,-209.5 997.5,-228.5 1078.5,-228.5 1078.5,-209.5 997.5,-209.5"/>
<text text-anchor="middle" x="1038" y="-216.5" font-family="Helvetica,sans-Serif" font-size="10.00">luaE_warnerror</text>
</a>
</g>
</g>
<!-- Node11&#45;&gt;Node83 -->
<g id="edge23" class="edge"><title>Node11&#45;&gt;Node83</title>
<path fill="none" stroke="midnightblue" d="M944.703,-205.192C957.823,-207.155 973.024,-209.429 987.256,-211.558"/>
<polygon fill="midnightblue" stroke="midnightblue" points="986.996,-215.058 997.404,-213.076 988.032,-208.135 986.996,-215.058"/>
</g>
<!-- Node416 -->
<g id="node22" class="node"><title>Node416</title>
<g id="a_node22"><a xlink:href="lfunc_8c.html#a523bc674df9f893ade61463c4ba5f09a" target="_top" xlink:title=" ">
<polygon fill="white" stroke="black" points="989,-247.5 989,-266.5 1087,-266.5 1087,-247.5 989,-247.5"/>
<text text-anchor="middle" x="1038" y="-254.5" font-family="Helvetica,sans-Serif" font-size="10.00">prepclosingmethod</text>
</a>
</g>
</g>
<!-- Node11&#45;&gt;Node416 -->
<g id="edge25" class="edge"><title>Node11&#45;&gt;Node416</title>
<path fill="none" stroke="midnightblue" d="M932.453,-209.569C939.111,-212.501 946.389,-215.799 953,-219 969.284,-226.883 972.565,-230.437 989,-238 993.142,-239.906 997.534,-241.805 1001.91,-243.624"/>
<polygon fill="midnightblue" stroke="midnightblue" points="1000.79,-246.946 1011.37,-247.451 1003.42,-240.457 1000.79,-246.946"/>
</g>
<!-- Node419 -->
<g id="node24" class="node"><title>Node419</title>
<g id="a_node24"><a xlink:href="lfunc_8c.html#a865c4fcb22304c78c59721af224c34b6" target="_top" xlink:title=" ">
<polygon fill="white" stroke="black" points="1014,-323.5 1014,-342.5 1062,-342.5 1062,-323.5 1014,-323.5"/>
<text text-anchor="middle" x="1038" y="-330.5" font-family="Helvetica,sans-Serif" font-size="10.00">varerror</text>
</a>
</g>
</g>
<!-- Node11&#45;&gt;Node419 -->
<g id="edge27" class="edge"><title>Node11&#45;&gt;Node419</title>
<path fill="none" stroke="midnightblue" d="M938.262,-209.605C943.499,-212.157 948.674,-215.268 953,-219 975.688,-238.571 971.309,-251.817 989,-276 999.105,-289.812 1011.58,-304.569 1021.28,-315.607"/>
<polygon fill="midnightblue" stroke="midnightblue" points="1018.81,-318.098 1028.08,-323.245 1024.05,-313.447 1018.81,-318.098"/>
</g>
<!-- Node13 -->
<g id="node13" class="node"><title>Node13</title>
<g id="a_node13"><a xlink:href="ldo_8c.html#a61c0a0185ef5ae1493dad10027f4db7e" target="_top" xlink:title=" ">
<polygon fill="white" stroke="black" points="1400,-152.5 1400,-171.5 1487,-171.5 1487,-152.5 1400,-152.5"/>
<text text-anchor="middle" x="1443.5" y="-159.5" font-family="Helvetica,sans-Serif" font-size="10.00">luaD_callnoyield</text>
</a>
</g>
</g>
<!-- Node12&#45;&gt;Node13 -->
<g id="edge13" class="edge"><title>Node12&#45;&gt;Node13</title>
<path fill="none" stroke="midnightblue" d="M1065.79,-144.261C1131.67,-147.364 1302.54,-155.41 1389.7,-159.514"/>
<polygon fill="midnightblue" stroke="midnightblue" points="1389.75,-163.02 1399.9,-159.994 1390.07,-156.027 1389.75,-163.02"/>
</g>
<!-- Node14 -->
<g id="node14" class="node"><title>Node14</title>
<g id="a_node14"><a xlink:href="ldo_8c.html#aa7d32ccef16c2d4fe63604c4c457831d" target="_top" xlink:title=" ">
<polygon fill="white" stroke="red" points="1552,-152.5 1552,-171.5 1589,-171.5 1589,-152.5 1552,-152.5"/>
<text text-anchor="middle" x="1570.5" y="-159.5" font-family="Helvetica,sans-Serif" font-size="10.00">ccall</text>
</a>
</g>
</g>
<!-- Node13&#45;&gt;Node14 -->
<g id="edge14" class="edge"><title>Node13&#45;&gt;Node14</title>
<path fill="none" stroke="midnightblue" d="M1487.17,-162C1505.1,-162 1525.46,-162 1541.44,-162"/>
<polygon fill="midnightblue" stroke="midnightblue" points="1541.73,-165.5 1551.73,-162 1541.73,-158.5 1541.73,-165.5"/>
</g>
<!-- Node81&#45;&gt;Node9 -->
<g id="edge17" class="edge"><title>Node81&#45;&gt;Node9</title>
<path fill="none" stroke="midnightblue" d="M1065.8,-114.581C1072.82,-117.366 1080.29,-120.586 1087,-124 1111.28,-136.358 1137.42,-153.369 1155.24,-165.585"/>
<polygon fill="midnightblue" stroke="midnightblue" points="1153.53,-168.661 1163.75,-171.486 1157.52,-162.91 1153.53,-168.661"/>
</g>
<!-- Node81&#45;&gt;Node10 -->
<g id="edge21" class="edge"><title>Node81&#45;&gt;Node10</title>
<path fill="none" stroke="midnightblue" d="M1011.98,-114.607C1004.55,-117.541 996.417,-120.83 989,-124 933.225,-147.837 918.984,-153.347 865,-181 850.868,-188.239 835.433,-196.937 822.942,-204.184"/>
<polygon fill="midnightblue" stroke="midnightblue" points="820.9,-201.324 814.036,-209.395 824.434,-207.366 820.9,-201.324"/>
</g>
<!-- Node82 -->
<g id="node16" class="node"><title>Node82</title>
<g id="a_node16"><a xlink:href="ldo_8c.html#ab0872b1738a995ecbf1cdc8a9bc0fdf6" target="_top" xlink:title=" ">
<polygon fill="white" stroke="black" points="1123,-95.5 1123,-114.5 1233,-114.5 1233,-95.5 1123,-95.5"/>
<text text-anchor="middle" x="1178" y="-102.5" font-family="Helvetica,sans-Serif" font-size="10.00">luaD_rawrunprotected</text>
</a>
</g>
</g>
<!-- Node81&#45;&gt;Node82 -->
<g id="edge16" class="edge"><title>Node81&#45;&gt;Node82</title>
<path fill="none" stroke="midnightblue" d="M1069.28,-105C1082.05,-105 1097.43,-105 1112.51,-105"/>
<polygon fill="midnightblue" stroke="midnightblue" points="1112.88,-108.5 1122.88,-105 1112.88,-101.5 1112.88,-108.5"/>
</g>
<!-- Node63 -->
<g id="node17" class="node"><title>Node63</title>
<g id="a_node17"><a xlink:href="ldo_8c.html#a219aa86777779dccae2c1bf9008db70a" target="_top" xlink:title=" ">
<polygon fill="white" stroke="red" points="1132,-19.5 1132,-38.5 1224,-38.5 1224,-19.5 1132,-19.5"/>
<text text-anchor="middle" x="1178" y="-26.5" font-family="Helvetica,sans-Serif" font-size="10.00">luaD_shrinkstack</text>
</a>
</g>
</g>
<!-- Node81&#45;&gt;Node63 -->
<g id="edge18" class="edge"><title>Node81&#45;&gt;Node63</title>
<path fill="none" stroke="midnightblue" d="M1056.48,-95.3745C1080.22,-82.2975 1122.88,-58.8043 1150.56,-43.5634"/>
<polygon fill="midnightblue" stroke="midnightblue" points="1152.59,-46.4372 1159.66,-38.5473 1149.22,-40.3056 1152.59,-46.4372"/>
</g>
<!-- Node64 -->
<g id="node18" class="node"><title>Node64</title>
<g id="a_node18"><a xlink:href="ldo_8c.html#a75b8b0016e9182d4fd9f71c1a7238e8a" target="_top" xlink:title=" ">
<polygon fill="white" stroke="red" points="1269,-0.5 1269,-19.5 1363,-19.5 1363,-0.5 1269,-0.5"/>
<text text-anchor="middle" x="1316" y="-7.5" font-family="Helvetica,sans-Serif" font-size="10.00">luaD_reallocstack</text>
</a>
</g>
</g>
<!-- Node63&#45;&gt;Node64 -->
<g id="edge19" class="edge"><title>Node63&#45;&gt;Node64</title>
<path fill="none" stroke="midnightblue" d="M1224.29,-22.6733C1235.4,-21.1203 1247.43,-19.4395 1258.99,-17.8253"/>
<polygon fill="midnightblue" stroke="midnightblue" points="1259.56,-21.2789 1268.98,-16.4288 1258.6,-14.3462 1259.56,-21.2789"/>
</g>
<!-- Node66 -->
<g id="node19" class="node"><title>Node66</title>
<g id="a_node19"><a xlink:href="lstate_8c.html#a59bcd5586c176d9e24bcdf9e4d07adbe" target="_top" xlink:title=" ">
<polygon fill="white" stroke="black" points="1277.5,-38.5 1277.5,-57.5 1354.5,-57.5 1354.5,-38.5 1277.5,-38.5"/>
<text text-anchor="middle" x="1316" y="-45.5" font-family="Helvetica,sans-Serif" font-size="10.00">luaE_shrinkCI</text>
</a>
</g>
</g>
<!-- Node63&#45;&gt;Node66 -->
<g id="edge20" class="edge"><title>Node63&#45;&gt;Node66</title>
<path fill="none" stroke="midnightblue" d="M1224.29,-35.3267C1238.09,-37.2552 1253.3,-39.3807 1267.26,-41.3311"/>
<polygon fill="midnightblue" stroke="midnightblue" points="1266.78,-44.7976 1277.17,-42.7149 1267.75,-37.8649 1266.78,-44.7976"/>
</g>
<!-- Node84 -->
<g id="node21" class="node"><title>Node84</title>
<g id="a_node21"><a xlink:href="lstate_8c.html#a7055cc5e36512e37c811a7d5c6fa0be6" target="_top" xlink:title=" ">
<polygon fill="white" stroke="black" points="1141,-209.5 1141,-228.5 1215,-228.5 1215,-209.5 1141,-209.5"/>
<text text-anchor="middle" x="1178" y="-216.5" font-family="Helvetica,sans-Serif" font-size="10.00">luaE_warning</text>
</a>
</g>
</g>
<!-- Node83&#45;&gt;Node84 -->
<g id="edge24" class="edge"><title>Node83&#45;&gt;Node84</title>
<path fill="none" stroke="midnightblue" d="M1078.55,-219C1094.77,-219 1113.67,-219 1130.55,-219"/>
<polygon fill="midnightblue" stroke="midnightblue" points="1130.75,-222.5 1140.75,-219 1130.75,-215.5 1130.75,-222.5"/>
</g>
<!-- Node85 -->
<g id="node23" class="node"><title>Node85</title>
<g id="a_node23"><a xlink:href="ltm_8c.html#a0a3a3df9d6e7f17d806f74d411e59b2d" target="_top" xlink:title=" ">
<polygon fill="white" stroke="red" points="1134,-247.5 1134,-266.5 1222,-266.5 1222,-247.5 1134,-247.5"/>
<text text-anchor="middle" x="1178" y="-254.5" font-family="Helvetica,sans-Serif" font-size="10.00">luaT_gettmbyobj</text>
</a>
</g>
</g>
<!-- Node416&#45;&gt;Node85 -->
<g id="edge26" class="edge"><title>Node416&#45;&gt;Node85</title>
<path fill="none" stroke="midnightblue" d="M1087.27,-257C1098.93,-257 1111.46,-257 1123.35,-257"/>
<polygon fill="midnightblue" stroke="midnightblue" points="1123.6,-260.5 1133.6,-257 1123.6,-253.5 1123.6,-260.5"/>
</g>
<!-- Node420 -->
<g id="node25" class="node"><title>Node420</title>
<g id="a_node25"><a xlink:href="ldebug_8c.html#acf87581237e7d0072502ffc5092e8329" target="_top" xlink:title=" ">
<polygon fill="white" stroke="red" points="1277.5,-361.5 1277.5,-380.5 1354.5,-380.5 1354.5,-361.5 1277.5,-361.5"/>
<text text-anchor="middle" x="1316" y="-368.5" font-family="Helvetica,sans-Serif" font-size="10.00">luaG_findlocal</text>
</a>
</g>
</g>
<!-- Node419&#45;&gt;Node420 -->
<g id="edge28" class="edge"><title>Node419&#45;&gt;Node420</title>
<path fill="none" stroke="midnightblue" d="M1062.04,-335.503C1098.43,-339.534 1171.39,-347.934 1233,-357 1244.05,-358.626 1255.9,-360.547 1267.07,-362.436"/>
<polygon fill="midnightblue" stroke="midnightblue" points="1266.64,-365.914 1277.09,-364.153 1267.83,-359.014 1266.64,-365.914"/>
</g>
<!-- Node22 -->
<g id="node27" class="node"><title>Node22</title>
<g id="a_node27"><a xlink:href="ldebug_8c.html#a88d38ca5da2e7a1492fc9d5ad70c32c5" target="_top" xlink:title=" ">
<polygon fill="white" stroke="black" points="1140.5,-285.5 1140.5,-304.5 1215.5,-304.5 1215.5,-285.5 1140.5,-285.5"/>
<text text-anchor="middle" x="1178" y="-292.5" font-family="Helvetica,sans-Serif" font-size="10.00">luaG_runerror</text>
</a>
</g>
</g>
<!-- Node419&#45;&gt;Node22 -->
<g id="edge30" class="edge"><title>Node419&#45;&gt;Node22</title>
<path fill="none" stroke="midnightblue" d="M1062.1,-326.64C1081.3,-321.352 1109.18,-313.675 1132.67,-307.207"/>
<polygon fill="midnightblue" stroke="midnightblue" points="1133.72,-310.549 1142.43,-304.52 1131.86,-303.8 1133.72,-310.549"/>
</g>
<!-- Node24 -->
<g id="node26" class="node"><title>Node24</title>
<g id="a_node26"><a xlink:href="ldebug_8c.html#a7db2a3f5cbcf0ac3ef6d4cfa15ab4dbc" target="_top" xlink:title=" ">
<polygon fill="white" stroke="black" points="1415,-361.5 1415,-380.5 1472,-380.5 1472,-361.5 1415,-361.5"/>
<text text-anchor="middle" x="1443.5" y="-368.5" font-family="Helvetica,sans-Serif" font-size="10.00">currentpc</text>
</a>
</g>
</g>
<!-- Node420&#45;&gt;Node24 -->
<g id="edge29" class="edge"><title>Node420&#45;&gt;Node24</title>
<path fill="none" stroke="midnightblue" d="M1354.65,-371C1370.53,-371 1388.96,-371 1404.84,-371"/>
<polygon fill="midnightblue" stroke="midnightblue" points="1404.85,-374.5 1414.85,-371 1404.85,-367.5 1404.85,-374.5"/>
</g>
<!-- Node23 -->
<g id="node28" class="node"><title>Node23</title>
<g id="a_node28"><a xlink:href="ldebug_8c.html#ad6bc24d619df8e849e2ae8b00455d86f" target="_top" xlink:title=" ">
<polygon fill="white" stroke="black" points="1278.5,-323.5 1278.5,-342.5 1353.5,-342.5 1353.5,-323.5 1278.5,-323.5"/>
<text text-anchor="middle" x="1316" y="-330.5" font-family="Helvetica,sans-Serif" font-size="10.00">getcurrentline</text>
</a>
</g>
</g>
<!-- Node22&#45;&gt;Node23 -->
<g id="edge31" class="edge"><title>Node22&#45;&gt;Node23</title>
<path fill="none" stroke="midnightblue" d="M1213.32,-304.589C1230.79,-309.472 1252.24,-315.464 1270.93,-320.685"/>
<polygon fill="midnightblue" stroke="midnightblue" points="1270.12,-324.094 1280.69,-323.414 1272,-317.352 1270.12,-324.094"/>
</g>
<!-- Node22&#45;&gt;Node27 -->
<g id="edge34" class="edge"><title>Node22&#45;&gt;Node27</title>
<path fill="none" stroke="midnightblue" d="M1187.35,-304.802C1205.88,-326.387 1250.28,-377.133 1269,-390 1271.55,-391.754 1274.29,-393.389 1277.12,-394.905"/>
<polygon fill="midnightblue" stroke="midnightblue" points="1275.77,-398.142 1286.3,-399.336 1278.81,-391.838 1275.77,-398.142"/>
</g>
<!-- Node30 -->
<g id="node33" class="node"><title>Node30</title>
<g id="a_node33"><a xlink:href="lobject_8c.html#aa83fa444a36d79521e846a766fa083d5" target="_top" xlink:title=" ">
<polygon fill="white" stroke="black" points="1524,-314.5 1524,-333.5 1617,-333.5 1617,-314.5 1524,-314.5"/>
<text text-anchor="middle" x="1570.5" y="-321.5" font-family="Helvetica,sans-Serif" font-size="10.00">luaO_pushvfstring</text>
</a>
</g>
</g>
<!-- Node22&#45;&gt;Node30 -->
<g id="edge58" class="edge"><title>Node22&#45;&gt;Node30</title>
<path fill="none" stroke="midnightblue" d="M1215.68,-290.849C1273.61,-290.12 1389.79,-295.964 1488,-305 1505.76,-306.634 1525.63,-309.06 1541.3,-312.164"/>
<polygon fill="midnightblue" stroke="midnightblue" points="1540.88,-315.656 1551.41,-314.42 1542.41,-308.824 1540.88,-315.656"/>
</g>
<!-- Node130 -->
<g id="node43" class="node"><title>Node130</title>
<g id="a_node43"><a xlink:href="ldebug_8c.html#af7366920f8408bb33ed01b1d6c0e1238" target="_top" xlink:title=" ">
<polygon fill="white" stroke="black" points="1276,-171.5 1276,-190.5 1356,-190.5 1356,-171.5 1276,-171.5"/>
<text text-anchor="middle" x="1316" y="-178.5" font-family="Helvetica,sans-Serif" font-size="10.00">luaG_errormsg</text>
</a>
</g>
</g>
<!-- Node22&#45;&gt;Node130 -->
<g id="edge55" class="edge"><title>Node22&#45;&gt;Node130</title>
<path fill="none" stroke="midnightblue" d="M1215.71,-286.02C1221.89,-283.445 1227.93,-280.165 1233,-276 1257.32,-256.011 1247.92,-238.38 1269,-215 1275.21,-208.109 1283.02,-201.718 1290.43,-196.381"/>
<polygon fill="midnightblue" stroke="midnightblue" points="1292.55,-199.171 1298.82,-190.633 1288.59,-193.396 1292.55,-199.171"/>
</g>
<!-- Node23&#45;&gt;Node24 -->
<g id="edge32" class="edge"><title>Node23&#45;&gt;Node24</title>
<path fill="none" stroke="midnightblue" d="M1348.67,-342.589C1365.82,-347.783 1387.13,-354.233 1405.09,-359.674"/>
<polygon fill="midnightblue" stroke="midnightblue" points="1404.1,-363.03 1414.69,-362.578 1406.13,-356.331 1404.1,-363.03"/>
</g>
<!-- Node25 -->
<g id="node29" class="node"><title>Node25</title>
<g id="a_node29"><a xlink:href="ldebug_8c.html#ae7a6d2f88b11cc05758e44acd433ee2f" target="_top" xlink:title=" ">
<polygon fill="white" stroke="red" points="1399,-323.5 1399,-342.5 1488,-342.5 1488,-323.5 1399,-323.5"/>
<text text-anchor="middle" x="1443.5" y="-330.5" font-family="Helvetica,sans-Serif" font-size="10.00">luaG_getfuncline</text>
</a>
</g>
</g>
<!-- Node23&#45;&gt;Node25 -->
<g id="edge33" class="edge"><title>Node23&#45;&gt;Node25</title>
<path fill="none" stroke="midnightblue" d="M1353.64,-333C1364.6,-333 1376.87,-333 1388.7,-333"/>
<polygon fill="midnightblue" stroke="midnightblue" points="1388.94,-336.5 1398.94,-333 1388.94,-329.5 1388.94,-336.5"/>
</g>
<!-- Node28 -->
<g id="node31" class="node"><title>Node28</title>
<g id="a_node31"><a xlink:href="lobject_8c.html#ac331b4119bbeb45a8a7e5a1afe553b2e" target="_top" xlink:title=" ">
<polygon fill="white" stroke="black" points="1405.5,-399.5 1405.5,-418.5 1481.5,-418.5 1481.5,-399.5 1405.5,-399.5"/>
<text text-anchor="middle" x="1443.5" y="-406.5" font-family="Helvetica,sans-Serif" font-size="10.00">luaO_chunkid</text>
</a>
</g>
</g>
<!-- Node27&#45;&gt;Node28 -->
<g id="edge35" class="edge"><title>Node27&#45;&gt;Node28</title>
<path fill="none" stroke="midnightblue" d="M1352.63,-409C1365.92,-409 1381.23,-409 1395.4,-409"/>
<polygon fill="midnightblue" stroke="midnightblue" points="1395.47,-412.5 1405.47,-409 1395.47,-405.5 1395.47,-412.5"/>
</g>
<!-- Node27&#45;&gt;Node29 -->
<g id="edge36" class="edge"><title>Node27&#45;&gt;Node29</title>
<path fill="none" stroke="midnightblue" d="M1348.67,-418.589C1364.57,-423.404 1384.04,-429.299 1401.11,-434.468"/>
<polygon fill="midnightblue" stroke="midnightblue" points="1400.26,-437.866 1410.84,-437.414 1402.28,-431.166 1400.26,-437.866"/>
</g>
<!-- Node29&#45;&gt;Node30 -->
<g id="edge37" class="edge"><title>Node29&#45;&gt;Node30</title>
<path fill="none" stroke="midnightblue" d="M1472.34,-437.294C1477.82,-434.725 1483.31,-431.633 1488,-428 1519.26,-403.789 1545.38,-365.03 1559.1,-342.292"/>
<polygon fill="midnightblue" stroke="midnightblue" points="1562.15,-344.011 1564.2,-333.617 1556.12,-340.462 1562.15,-344.011"/>
</g>
<!-- Node30&#45;&gt;Node22 -->
<g id="edge53" class="edge"><title>Node30&#45;&gt;Node22</title>
<path fill="none" stroke="midnightblue" d="M1523.86,-326.609C1512.19,-325.482 1499.64,-324.071 1488,-323 1395.16,-314.458 1286.26,-308.768 1225.7,-303.188"/>
<polygon fill="midnightblue" stroke="midnightblue" points="1225.97,-299.698 1215.68,-302.22 1225.3,-306.666 1225.97,-299.698"/>
</g>
<!-- Node31 -->
<g id="node34" class="node"><title>Node31</title>
<g id="a_node34"><a xlink:href="lobject_8c.html#a1d02fb9304e4700ce1fd20e34ae68784" target="_top" xlink:title=" ">
<polygon fill="white" stroke="black" points="1654.5,-295.5 1654.5,-314.5 1725.5,-314.5 1725.5,-295.5 1654.5,-295.5"/>
<text text-anchor="middle" x="1690" y="-302.5" font-family="Helvetica,sans-Serif" font-size="10.00">addnum2buff</text>
</a>
</g>
</g>
<!-- Node30&#45;&gt;Node31 -->
<g id="edge38" class="edge"><title>Node30&#45;&gt;Node31</title>
<path fill="none" stroke="midnightblue" d="M1617.27,-316.6C1626.16,-315.162 1635.47,-313.656 1644.32,-312.224"/>
<polygon fill="midnightblue" stroke="midnightblue" points="1645.15,-315.637 1654.46,-310.585 1644.03,-308.726 1645.15,-315.637"/>
</g>
<!-- Node32 -->
<g id="node35" class="node"><title>Node32</title>
<g id="a_node35"><a xlink:href="lobject_8c.html#ac4ab924f2ea45ef73319f1159033eab1" target="_top" xlink:title=" ">
<polygon fill="white" stroke="black" points="1772.5,-333.5 1772.5,-352.5 1817.5,-352.5 1817.5,-333.5 1772.5,-333.5"/>
<text text-anchor="middle" x="1795" y="-340.5" font-family="Helvetica,sans-Serif" font-size="10.00">getbuff</text>
</a>
</g>
</g>
<!-- Node30&#45;&gt;Node32 -->
<g id="edge52" class="edge"><title>Node30&#45;&gt;Node32</title>
<path fill="none" stroke="midnightblue" d="M1586.7,-333.568C1602.55,-342.933 1628.46,-356.56 1653,-362 1685.11,-369.118 1694.42,-366.53 1727,-362 1738.83,-360.355 1751.5,-357.152 1762.61,-353.837"/>
<polygon fill="midnightblue" stroke="midnightblue" points="1763.8,-357.131 1772.3,-350.803 1761.71,-350.451 1763.8,-357.131"/>
</g>
<!-- Node33 -->
<g id="node36" class="node"><title>Node33</title>
<g id="a_node36"><a xlink:href="lobject_8c.html#a6ec2716e64cd75e3e6614a87ee92e4d2" target="_top" xlink:title=" ">
<polygon fill="white" stroke="black" points="1863,-333.5 1863,-352.5 1916,-352.5 1916,-333.5 1863,-333.5"/>
<text text-anchor="middle" x="1889.5" y="-340.5" font-family="Helvetica,sans-Serif" font-size="10.00">clearbuff</text>
</a>
</g>
</g>
<!-- Node30&#45;&gt;Node33 -->
<g id="edge51" class="edge"><title>Node30&#45;&gt;Node33</title>
<path fill="none" stroke="midnightblue" d="M1586.7,-314.432C1602.55,-305.067 1628.46,-291.44 1653,-286 1728.5,-269.264 1755,-257.767 1827,-286 1847.01,-293.848 1864.4,-311.605 1875.53,-325.23"/>
<polygon fill="midnightblue" stroke="midnightblue" points="1873.01,-327.69 1881.91,-333.441 1878.54,-323.396 1873.01,-327.69"/>
</g>
<!-- Node128 -->
<g id="node41" class="node"><title>Node128</title>
<g id="a_node41"><a xlink:href="lobject_8c.html#a874ab64f433ee35f2197a81e10452cb1" target="_top" xlink:title=" ">
<polygon fill="white" stroke="black" points="1658,-409.5 1658,-428.5 1722,-428.5 1722,-409.5 1658,-409.5"/>
<text text-anchor="middle" x="1690" y="-416.5" font-family="Helvetica,sans-Serif" font-size="10.00">addstr2buff</text>
</a>
</g>
</g>
<!-- Node30&#45;&gt;Node128 -->
<g id="edge47" class="edge"><title>Node30&#45;&gt;Node128</title>
<path fill="none" stroke="midnightblue" d="M1581.69,-333.636C1596.77,-347.724 1626.16,-374.496 1653,-395 1656.8,-397.9 1660.93,-400.84 1664.99,-403.621"/>
<polygon fill="midnightblue" stroke="midnightblue" points="1663.37,-406.747 1673.64,-409.38 1667.25,-400.922 1663.37,-406.747"/>
</g>
<!-- Node129 -->
<g id="node42" class="node"><title>Node129</title>
<g id="a_node42"><a xlink:href="lobject_8c.html#af3136de4693789b08f78aafda9604676" target="_top" xlink:title=" ">
<polygon fill="white" stroke="black" points="1653,-333.5 1653,-352.5 1727,-352.5 1727,-333.5 1653,-333.5"/>
<text text-anchor="middle" x="1690" y="-340.5" font-family="Helvetica,sans-Serif" font-size="10.00">luaO_utf8esc</text>
</a>
</g>
</g>
<!-- Node30&#45;&gt;Node129 -->
<g id="edge54" class="edge"><title>Node30&#45;&gt;Node129</title>
<path fill="none" stroke="midnightblue" d="M1617.27,-331.4C1625.69,-332.763 1634.5,-334.187 1642.94,-335.551"/>
<polygon fill="midnightblue" stroke="midnightblue" points="1642.57,-339.037 1653,-337.178 1643.68,-332.127 1642.57,-339.037"/>
</g>
<!-- Node31&#45;&gt;Node32 -->
<g id="edge39" class="edge"><title>Node31&#45;&gt;Node32</title>
<path fill="none" stroke="midnightblue" d="M1716.99,-314.589C1730.84,-319.698 1747.98,-326.022 1762.57,-331.405"/>
<polygon fill="midnightblue" stroke="midnightblue" points="1761.6,-334.778 1772.2,-334.956 1764.03,-328.211 1761.6,-334.778"/>
</g>
<!-- Node127 -->
<g id="node40" class="node"><title>Node127</title>
<g id="a_node40"><a xlink:href="lobject_8c.html#a8a7886b6335aca97db23dfe3e220c728" target="_top" xlink:title=" ">
<polygon fill="white" stroke="black" points="1763,-295.5 1763,-314.5 1827,-314.5 1827,-295.5 1763,-295.5"/>
<text text-anchor="middle" x="1795" y="-302.5" font-family="Helvetica,sans-Serif" font-size="10.00">tostringbuff</text>
</a>
</g>
</g>
<!-- Node31&#45;&gt;Node127 -->
<g id="edge46" class="edge"><title>Node31&#45;&gt;Node127</title>
<path fill="none" stroke="midnightblue" d="M1725.58,-305C1734.24,-305 1743.61,-305 1752.56,-305"/>
<polygon fill="midnightblue" stroke="midnightblue" points="1752.8,-308.5 1762.8,-305 1752.8,-301.5 1752.8,-308.5"/>
</g>
<!-- Node32&#45;&gt;Node33 -->
<g id="edge40" class="edge"><title>Node32&#45;&gt;Node33</title>
<path fill="none" stroke="midnightblue" d="M1817.92,-343C1828.23,-343 1840.79,-343 1852.44,-343"/>
<polygon fill="midnightblue" stroke="midnightblue" points="1852.8,-346.5 1862.8,-343 1852.8,-339.5 1852.8,-346.5"/>
</g>
<!-- Node34 -->
<g id="node37" class="node"><title>Node34</title>
<g id="a_node37"><a xlink:href="lobject_8c.html#a90720e7e38c0e352e9b97d3f8def9e1a" target="_top" xlink:title=" ">
<polygon fill="white" stroke="black" points="1952,-333.5 1952,-352.5 2001,-352.5 2001,-333.5 1952,-333.5"/>
<text text-anchor="middle" x="1976.5" y="-340.5" font-family="Helvetica,sans-Serif" font-size="10.00">pushstr</text>
</a>
</g>
</g>
<!-- Node33&#45;&gt;Node34 -->
<g id="edge41" class="edge"><title>Node33&#45;&gt;Node34</title>
<path fill="none" stroke="midnightblue" d="M1916,-343C1924.07,-343 1933.11,-343 1941.67,-343"/>
<polygon fill="midnightblue" stroke="midnightblue" points="1941.76,-346.5 1951.76,-343 1941.76,-339.5 1941.76,-346.5"/>
</g>
<!-- Node35 -->
<g id="node38" class="node"><title>Node35</title>
<g id="a_node38"><a xlink:href="lstring_8c.html#ab41fb084ce3ea5e2779f6659ccc2484d" target="_top" xlink:title=" ">
<polygon fill="white" stroke="red" points="2144,-314.5 2144,-333.5 2216,-333.5 2216,-314.5 2144,-314.5"/>
<text text-anchor="middle" x="2180" y="-321.5" font-family="Helvetica,sans-Serif" font-size="10.00">luaS_newlstr</text>
</a>
</g>
</g>
<!-- Node34&#45;&gt;Node35 -->
<g id="edge42" class="edge"><title>Node34&#45;&gt;Node35</title>
<path fill="none" stroke="midnightblue" d="M2001.01,-340.783C2033.45,-337.724 2092.6,-332.147 2133.77,-328.265"/>
<polygon fill="midnightblue" stroke="midnightblue" points="2134.2,-331.74 2143.82,-327.317 2133.54,-324.771 2134.2,-331.74"/>
</g>
<!-- Node120 -->
<g id="node39" class="node"><title>Node120</title>
<g id="a_node39"><a xlink:href="lvm_8c.html#a2f076040af405dcb50d661edd692eca7" target="_top" xlink:title=" ">
<polygon fill="white" stroke="red" points="2037,-295.5 2037,-314.5 2108,-314.5 2108,-295.5 2037,-295.5"/>
<text text-anchor="middle" x="2072.5" y="-302.5" font-family="Helvetica,sans-Serif" font-size="10.00">luaV_concat</text>
</a>
</g>
</g>
<!-- Node34&#45;&gt;Node120 -->
<g id="edge43" class="edge"><title>Node34&#45;&gt;Node120</title>
<path fill="none" stroke="midnightblue" d="M2001.22,-333.411C2012.46,-328.866 2026.09,-323.359 2038.33,-318.408"/>
<polygon fill="midnightblue" stroke="midnightblue" points="2039.83,-321.579 2047.79,-314.586 2037.2,-315.089 2039.83,-321.579"/>
</g>
<!-- Node120&#45;&gt;Node22 -->
<g id="edge44" class="edge"><title>Node120&#45;&gt;Node22</title>
<path fill="none" stroke="midnightblue" d="M2058.66,-295.375C2030.07,-274.924 1958.32,-229 1890.5,-229 1442.5,-229 1442.5,-229 1442.5,-229 1399.06,-229 1281.66,-263.186 1219.26,-282.35"/>
<polygon fill="midnightblue" stroke="midnightblue" points="1217.9,-279.109 1209.37,-285.403 1219.96,-285.797 1217.9,-279.109"/>
</g>
<!-- Node120&#45;&gt;Node35 -->
<g id="edge45" class="edge"><title>Node120&#45;&gt;Node35</title>
<path fill="none" stroke="midnightblue" d="M2108.04,-311.221C2116.25,-312.699 2125.13,-314.298 2133.73,-315.848"/>
<polygon fill="midnightblue" stroke="midnightblue" points="2133.19,-319.307 2143.65,-317.634 2134.43,-312.417 2133.19,-319.307"/>
</g>
<!-- Node128&#45;&gt;Node32 -->
<g id="edge49" class="edge"><title>Node128&#45;&gt;Node32</title>
<path fill="none" stroke="midnightblue" d="M1705.88,-409.431C1712.43,-405.128 1720.18,-399.919 1727,-395 1743.44,-383.148 1746.99,-379.427 1763,-367 1766.45,-364.324 1770.11,-361.483 1773.67,-358.727"/>
<polygon fill="midnightblue" stroke="midnightblue" points="1775.86,-361.459 1781.63,-352.57 1771.58,-355.924 1775.86,-361.459"/>
</g>
<!-- Node128&#45;&gt;Node33 -->
<g id="edge48" class="edge"><title>Node128&#45;&gt;Node33</title>
<path fill="none" stroke="midnightblue" d="M1716.01,-409.375C1751.04,-395.898 1814.81,-371.358 1854.22,-356.189"/>
<polygon fill="midnightblue" stroke="midnightblue" points="1855.61,-359.405 1863.69,-352.547 1853.1,-352.872 1855.61,-359.405"/>
</g>
<!-- Node128&#45;&gt;Node34 -->
<g id="edge50" class="edge"><title>Node128&#45;&gt;Node34</title>
<path fill="none" stroke="midnightblue" d="M1722.06,-414.297C1749.8,-409.805 1791.43,-402.343 1827,-393 1867.3,-382.415 1912.55,-366.595 1942.38,-355.595"/>
<polygon fill="midnightblue" stroke="midnightblue" points="1943.73,-358.829 1951.88,-352.064 1941.29,-352.267 1943.73,-358.829"/>
</g>
<!-- Node130&#45;&gt;Node8 -->
<g id="edge57" class="edge"><title>Node130&#45;&gt;Node8</title>
<path fill="none" stroke="midnightblue" d="M1310.01,-171.335C1299.12,-151.361 1271.11,-105.75 1233,-86 1156.08,-46.1346 1125.63,-67 1039,-67 908,-67 908,-67 908,-67 806.426,-67 731.847,-190.417 706.728,-238.314"/>
<polygon fill="midnightblue" stroke="midnightblue" points="703.562,-236.819 702.127,-247.317 709.795,-240.005 703.562,-236.819"/>
</g>
<!-- Node130&#45;&gt;Node13 -->
<g id="edge56" class="edge"><title>Node130&#45;&gt;Node13</title>
<path fill="none" stroke="midnightblue" d="M1356.02,-175.092C1366.6,-173.491 1378.23,-171.73 1389.44,-170.033"/>
<polygon fill="midnightblue" stroke="midnightblue" points="1390.21,-173.456 1399.57,-168.499 1389.16,-166.535 1390.21,-173.456"/>
</g>
<!-- Node443&#45;&gt;Node29 -->
<g id="edge63" class="edge"><title>Node443&#45;&gt;Node29</title>
<path fill="none" stroke="midnightblue" d="M723.753,-447C763.585,-447 841.671,-447 908,-447 908,-447 908,-447 1179,-447 1251.48,-447 1335.17,-447 1388.44,-447"/>
<polygon fill="midnightblue" stroke="midnightblue" points="1388.67,-450.5 1398.67,-447 1388.67,-443.5 1388.67,-450.5"/>
</g>
<!-- Node299 -->
<g id="node46" class="node"><title>Node299</title>
<g id="a_node46"><a xlink:href="llex_8c.html#afbf0654ae651496d0e8dcebeefbefed6" target="_top" xlink:title=" ">
<polygon fill="white" stroke="black" points="869,-475.5 869,-494.5 949,-494.5 949,-475.5 869,-475.5"/>
<text text-anchor="middle" x="909" y="-482.5" font-family="Helvetica,sans-Serif" font-size="10.00">luaX_token2str</text>
</a>
</g>
</g>
<!-- Node443&#45;&gt;Node299 -->
<g id="edge64" class="edge"><title>Node443&#45;&gt;Node299</title>
<path fill="none" stroke="midnightblue" d="M723.74,-452.685C736.216,-455.326 751.355,-458.441 765,-461 796.044,-466.822 831.009,-472.703 858.593,-477.185"/>
<polygon fill="midnightblue" stroke="midnightblue" points="858.35,-480.691 868.781,-478.832 859.467,-473.781 858.35,-480.691"/>
</g>
<!-- Node274 -->
<g id="node47" class="node"><title>Node274</title>
<g id="a_node47"><a xlink:href="llex_8c.html#a3418da69613c587915ff780b0ec3744b" target="_top" xlink:title=" ">
<polygon fill="white" stroke="black" points="779,-399.5 779,-418.5 815,-418.5 815,-399.5 779,-399.5"/>
<text text-anchor="middle" x="797" y="-406.5" font-family="Helvetica,sans-Serif" font-size="10.00">save</text>
</a>
</g>
</g>
<!-- Node443&#45;&gt;Node274 -->
<g id="edge66" class="edge"><title>Node443&#45;&gt;Node274</title>
<path fill="none" stroke="midnightblue" d="M722.356,-437.411C736.711,-431.873 754.764,-424.908 769.404,-419.26"/>
<polygon fill="midnightblue" stroke="midnightblue" points="770.836,-422.459 778.906,-415.595 768.316,-415.929 770.836,-422.459"/>
</g>
<!-- Node299&#45;&gt;Node29 -->
<g id="edge65" class="edge"><title>Node299&#45;&gt;Node29</title>
<path fill="none" stroke="midnightblue" d="M949.216,-484.522C1027.92,-483.211 1210.61,-478.39 1363,-461 1371.41,-460.041 1380.27,-458.755 1388.91,-457.351"/>
<polygon fill="midnightblue" stroke="midnightblue" points="1389.62,-460.779 1398.9,-455.66 1388.46,-453.877 1389.62,-460.779"/>
</g>
<!-- Node274&#45;&gt;Node7 -->
<g id="edge67" class="edge"><title>Node274&#45;&gt;Node7</title>
<path fill="none" stroke="midnightblue" d="M778.906,-409C747.401,-409 679.641,-409 638.472,-409"/>
<polygon fill="midnightblue" stroke="midnightblue" points="638.366,-405.5 628.366,-409 638.366,-412.5 638.366,-405.5"/>
</g>
<!-- Node217 -->
<g id="node50" class="node"><title>Node217</title>
<g id="a_node50"><a xlink:href="lcode_8c.html#a755e9c104abc7fa7bb87437964b19628" target="_top" xlink:title=" ">
<polygon fill="white" stroke="black" points="458.5,-323.5 458.5,-342.5 538.5,-342.5 538.5,-323.5 458.5,-323.5"/>
<text text-anchor="middle" x="498.5" y="-330.5" font-family="Helvetica,sans-Serif" font-size="10.00">getjumpcontrol</text>
</a>
</g>
</g>
<!-- Node265&#45;&gt;Node217 -->
<g id="edge70" class="edge"><title>Node265&#45;&gt;Node217</title>
<path fill="none" stroke="midnightblue" d="M418.013,-333C427.548,-333 438.083,-333 448.28,-333"/>
<polygon fill="midnightblue" stroke="midnightblue" points="448.314,-336.5 458.314,-333 448.314,-329.5 448.314,-336.5"/>
</g>
</g>
</svg>
