<?xml version="1.0" encoding="UTF-8" standalone="no"?>
<!DOCTYPE svg PUBLIC "-//W3C//DTD SVG 1.1//EN"
 "http://www.w3.org/Graphics/SVG/1.1/DTD/svg11.dtd">
<!-- Generated by graphviz version 2.38.0 (20140413.2041)
 -->
<!-- Title: negatecondition Pages: 1 -->
<svg width="1383pt" height="885pt"
 viewBox="0.00 0.00 1383.00 885.17" xmlns="http://www.w3.org/2000/svg" xmlns:xlink="http://www.w3.org/1999/xlink">
<g id="graph0" class="graph" transform="scale(1 1) rotate(0) translate(4 881.169)">
<title>negatecondition</title>
<polygon fill="white" stroke="none" points="-4,4 -4,-881.169 1379,-881.169 1379,4 -4,4"/>
<!-- Node1 -->
<g id="node1" class="node"><title>Node1</title>
<g id="a_node1"><a xlink:title=" ">
<polygon fill="#bfbfbf" stroke="black" points="1290,-399.5 1290,-418.5 1375,-418.5 1375,-399.5 1290,-399.5"/>
<text text-anchor="middle" x="1332.5" y="-406.5" font-family="Helvetica,sans-Serif" font-size="10.00">negatecondition</text>
</a>
</g>
</g>
<!-- Node2 -->
<g id="node2" class="node"><title>Node2</title>
<g id="a_node2"><a xlink:href="lcode_8c.html#adf2b3a04b610027f57d8ebd6a9ec2a12" target="_top" xlink:title=" ">
<polygon fill="white" stroke="black" points="1203,-418.5 1203,-437.5 1254,-437.5 1254,-418.5 1203,-418.5"/>
<text text-anchor="middle" x="1228.5" y="-425.5" font-family="Helvetica,sans-Serif" font-size="10.00">codenot</text>
</a>
</g>
</g>
<!-- Node1&#45;&gt;Node2 -->
<g id="edge1" class="edge"><title>Node1&#45;&gt;Node2</title>
<path fill="none" stroke="midnightblue" d="M1279.69,-418.651C1270.76,-420.314 1261.87,-421.97 1254.11,-423.416"/>
<polygon fill="midnightblue" stroke="midnightblue" points="1280.53,-422.055 1289.72,-416.783 1279.25,-415.173 1280.53,-422.055"/>
</g>
<!-- Node42 -->
<g id="node20" class="node"><title>Node42</title>
<g id="a_node20"><a xlink:href="lcode_8h.html#afff58a79c5fb3e56811bcf9a4315bfda" target="_top" xlink:title=" ">
<polygon fill="white" stroke="black" points="620,-380.5 620,-399.5 693,-399.5 693,-380.5 620,-380.5"/>
<text text-anchor="middle" x="656.5" y="-387.5" font-family="Helvetica,sans-Serif" font-size="10.00">luaK_goiftrue</text>
</a>
</g>
</g>
<!-- Node1&#45;&gt;Node42 -->
<g id="edge78" class="edge"><title>Node1&#45;&gt;Node42</title>
<path fill="none" stroke="midnightblue" d="M1280.02,-401.268C1240.57,-396.009 1184.72,-390 1135.5,-390 1135.5,-390 1135.5,-390 874.5,-390 810.643,-390 736.216,-390 693.211,-390"/>
<polygon fill="midnightblue" stroke="midnightblue" points="1279.56,-404.737 1289.94,-402.62 1280.5,-397.801 1279.56,-404.737"/>
</g>
<!-- Node3 -->
<g id="node3" class="node"><title>Node3</title>
<g id="a_node3"><a xlink:href="lcode_8h.html#a108f48cde9af08a87347aa6380a4a015" target="_top" xlink:title=" ">
<polygon fill="white" stroke="black" points="1102,-418.5 1102,-437.5 1167,-437.5 1167,-418.5 1102,-418.5"/>
<text text-anchor="middle" x="1134.5" y="-425.5" font-family="Helvetica,sans-Serif" font-size="10.00">luaK_prefix</text>
</a>
</g>
</g>
<!-- Node2&#45;&gt;Node3 -->
<g id="edge2" class="edge"><title>Node2&#45;&gt;Node3</title>
<path fill="none" stroke="midnightblue" d="M1192.62,-428C1184.26,-428 1175.37,-428 1167.16,-428"/>
<polygon fill="midnightblue" stroke="midnightblue" points="1192.85,-431.5 1202.85,-428 1192.85,-424.5 1192.85,-431.5"/>
</g>
<!-- Node4 -->
<g id="node4" class="node"><title>Node4</title>
<g id="a_node4"><a xlink:href="lparser_8c.html#a49946c41497533490f57063b1ca7cb7c" target="_top" xlink:title=" ">
<polygon fill="white" stroke="black" points="1015,-418.5 1015,-437.5 1066,-437.5 1066,-418.5 1015,-418.5"/>
<text text-anchor="middle" x="1040.5" y="-425.5" font-family="Helvetica,sans-Serif" font-size="10.00">subexpr</text>
</a>
</g>
</g>
<!-- Node3&#45;&gt;Node4 -->
<g id="edge3" class="edge"><title>Node3&#45;&gt;Node4</title>
<path fill="none" stroke="midnightblue" d="M1091.77,-428C1083.04,-428 1074.11,-428 1066.25,-428"/>
<polygon fill="midnightblue" stroke="midnightblue" points="1091.84,-431.5 1101.84,-428 1091.84,-424.5 1091.84,-431.5"/>
</g>
<!-- Node5 -->
<g id="node5" class="node"><title>Node5</title>
<g id="a_node5"><a xlink:href="lparser_8c.html#af2c543df6cbb49247cd0a71956786d92" target="_top" xlink:title=" ">
<polygon fill="white" stroke="black" points="944,-304.5 944,-323.5 979,-323.5 979,-304.5 944,-304.5"/>
<text text-anchor="middle" x="961.5" y="-311.5" font-family="Helvetica,sans-Serif" font-size="10.00">expr</text>
</a>
</g>
</g>
<!-- Node4&#45;&gt;Node5 -->
<g id="edge4" class="edge"><title>Node4&#45;&gt;Node5</title>
<path fill="none" stroke="midnightblue" d="M1027.27,-409.893C1010.76,-385.452 981.934,-342.773 969.048,-323.695"/>
<polygon fill="midnightblue" stroke="midnightblue" points="1024.44,-411.953 1032.94,-418.28 1030.24,-408.035 1024.44,-411.953"/>
</g>
<!-- Node6 -->
<g id="node6" class="node"><title>Node6</title>
<g id="a_node6"><a xlink:href="lparser_8c.html#a24002c50a108445d916457eb3c21d5e1" target="_top" xlink:title=" ">
<polygon fill="white" stroke="black" points="856.5,-475.5 856.5,-494.5 894.5,-494.5 894.5,-475.5 856.5,-475.5"/>
<text text-anchor="middle" x="875.5" y="-482.5" font-family="Helvetica,sans-Serif" font-size="10.00">cond</text>
</a>
</g>
</g>
<!-- Node5&#45;&gt;Node6 -->
<g id="edge5" class="edge"><title>Node5&#45;&gt;Node6</title>
<path fill="none" stroke="midnightblue" d="M951.3,-332.73C933.441,-369.085 894.654,-448.044 881.205,-475.423"/>
<polygon fill="midnightblue" stroke="midnightblue" points="954.475,-334.202 955.743,-323.684 948.193,-331.116 954.475,-334.202"/>
</g>
<!-- Node10 -->
<g id="node10" class="node"><title>Node10</title>
<g id="a_node10"><a xlink:href="lparser_8c.html#a51dbd956bff1ce06bb45b3e3d9fde83f" target="_top" xlink:title=" ">
<polygon fill="white" stroke="black" points="495.5,-380.5 495.5,-399.5 581.5,-399.5 581.5,-380.5 495.5,-380.5"/>
<text text-anchor="middle" x="538.5" y="-387.5" font-family="Helvetica,sans-Serif" font-size="10.00">test_then_block</text>
</a>
</g>
</g>
<!-- Node5&#45;&gt;Node10 -->
<g id="edge74" class="edge"><title>Node5&#45;&gt;Node10</title>
<path fill="none" stroke="midnightblue" d="M934.249,-324.764C925.967,-327.816 916.704,-330.881 908,-333 781.697,-363.743 745.799,-347.232 618,-371 603.939,-373.615 588.62,-377.163 575.279,-380.484"/>
<polygon fill="midnightblue" stroke="midnightblue" points="935.682,-327.963 943.763,-321.112 933.173,-321.428 935.682,-327.963"/>
</g>
<!-- Node448 -->
<g id="node37" class="node"><title>Node448</title>
<g id="a_node37"><a xlink:href="lparser_8c.html#ad7daced5a038385200486346caea6d96" target="_top" xlink:title=" ">
<polygon fill="white" stroke="black" points="856.5,-532.5 856.5,-551.5 894.5,-551.5 894.5,-532.5 856.5,-532.5"/>
<text text-anchor="middle" x="875.5" y="-539.5" font-family="Helvetica,sans-Serif" font-size="10.00">exp1</text>
</a>
</g>
</g>
<!-- Node5&#45;&gt;Node448 -->
<g id="edge56" class="edge"><title>Node5&#45;&gt;Node448</title>
<path fill="none" stroke="midnightblue" d="M957.861,-333.657C952.487,-369.296 938.138,-446.232 908,-504 902.451,-514.636 893.55,-525.004 886.624,-532.216"/>
<polygon fill="midnightblue" stroke="midnightblue" points="961.347,-334.009 959.3,-323.614 954.417,-333.017 961.347,-334.009"/>
</g>
<!-- Node449 -->
<g id="node39" class="node"><title>Node449</title>
<g id="a_node39"><a xlink:href="lparser_8c.html#a25966bcc2d6cf47dbb9e0251fb26d661" target="_top" xlink:title=" ">
<polygon fill="white" stroke="black" points="853,-95.5 853,-114.5 898,-114.5 898,-95.5 853,-95.5"/>
<text text-anchor="middle" x="875.5" y="-102.5" font-family="Helvetica,sans-Serif" font-size="10.00">explist</text>
</a>
</g>
</g>
<!-- Node5&#45;&gt;Node449 -->
<g id="edge58" class="edge"><title>Node5&#45;&gt;Node449</title>
<path fill="none" stroke="midnightblue" d="M953.086,-294.922C943.009,-269.058 924.365,-221.451 908,-181 898.358,-157.167 886.702,-129.276 880.631,-114.816"/>
<polygon fill="midnightblue" stroke="midnightblue" points="949.847,-296.249 956.735,-304.299 956.37,-293.71 949.847,-296.249"/>
</g>
<!-- Node654 -->
<g id="node46" class="node"><title>Node654</title>
<g id="a_node46"><a xlink:href="lparser_8c.html#a4ad1cddd376a59ba97755723bdcce8de" target="_top" xlink:title=" ">
<polygon fill="white" stroke="black" points="852,-304.5 852,-323.5 899,-323.5 899,-304.5 852,-304.5"/>
<text text-anchor="middle" x="875.5" y="-311.5" font-family="Helvetica,sans-Serif" font-size="10.00">listfield</text>
</a>
</g>
</g>
<!-- Node5&#45;&gt;Node654 -->
<g id="edge68" class="edge"><title>Node5&#45;&gt;Node654</title>
<path fill="none" stroke="midnightblue" d="M933.83,-314C922.656,-314 909.804,-314 899.104,-314"/>
<polygon fill="midnightblue" stroke="midnightblue" points="933.904,-317.5 943.904,-314 933.904,-310.5 933.904,-317.5"/>
</g>
<!-- Node441 -->
<g id="node48" class="node"><title>Node441</title>
<g id="a_node48"><a xlink:href="lparser_8c.html#abb6d6e594e184f737324863a01201cce" target="_top" xlink:title=" ">
<polygon fill="white" stroke="black" points="843,-190.5 843,-209.5 908,-209.5 908,-190.5 843,-190.5"/>
<text text-anchor="middle" x="875.5" y="-197.5" font-family="Helvetica,sans-Serif" font-size="10.00">primaryexp</text>
</a>
</g>
</g>
<!-- Node5&#45;&gt;Node441 -->
<g id="edge70" class="edge"><title>Node5&#45;&gt;Node441</title>
<path fill="none" stroke="midnightblue" d="M953.391,-294.769C945.019,-274.13 929.481,-241.31 908,-219 904.545,-215.411 900.271,-212.246 895.998,-209.579"/>
<polygon fill="midnightblue" stroke="midnightblue" points="950.223,-296.28 957.109,-304.332 956.747,-293.743 950.223,-296.28"/>
</g>
<!-- Node415 -->
<g id="node49" class="node"><title>Node415</title>
<g id="a_node49"><a xlink:href="lparser_8c.html#a84d7688b0c57f012eaf7f84c0062f29e" target="_top" xlink:title=" ">
<polygon fill="white" stroke="black" points="745.5,-266.5 745.5,-285.5 792.5,-285.5 792.5,-266.5 745.5,-266.5"/>
<text text-anchor="middle" x="769" y="-273.5" font-family="Helvetica,sans-Serif" font-size="10.00">recfield</text>
</a>
</g>
</g>
<!-- Node5&#45;&gt;Node415 -->
<g id="edge72" class="edge"><title>Node5&#45;&gt;Node415</title>
<path fill="none" stroke="midnightblue" d="M934.241,-303.271C925.958,-300.22 916.697,-297.147 908,-295 868.085,-285.146 820.327,-280.001 792.744,-277.656"/>
<polygon fill="midnightblue" stroke="midnightblue" points="933.166,-306.607 943.756,-306.918 935.671,-300.071 933.166,-306.607"/>
</g>
<!-- Node438 -->
<g id="node50" class="node"><title>Node438</title>
<g id="a_node50"><a xlink:href="lparser_8c.html#ac3e6a3b89f1a54a2ff4f3570831faf35" target="_top" xlink:title=" ">
<polygon fill="white" stroke="black" points="853,-228.5 853,-247.5 898,-247.5 898,-228.5 853,-228.5"/>
<text text-anchor="middle" x="875.5" y="-235.5" font-family="Helvetica,sans-Serif" font-size="10.00">yindex</text>
</a>
</g>
</g>
<!-- Node5&#45;&gt;Node438 -->
<g id="edge75" class="edge"><title>Node5&#45;&gt;Node438</title>
<path fill="none" stroke="midnightblue" d="M944.538,-297.107C934.394,-286.648 920.805,-273.137 908,-262 902.294,-257.037 895.675,-251.908 889.982,-247.672"/>
<polygon fill="midnightblue" stroke="midnightblue" points="942.105,-299.627 951.554,-304.42 947.157,-294.781 942.105,-299.627"/>
</g>
<!-- Node7 -->
<g id="node7" class="node"><title>Node7</title>
<g id="a_node7"><a xlink:href="lcode_8c.html#a15ef9c2dfe9851aaea34aae8e849b43e" target="_top" xlink:title=" ">
<polygon fill="white" stroke="black" points="734.5,-456.5 734.5,-475.5 803.5,-475.5 803.5,-456.5 734.5,-456.5"/>
<text text-anchor="middle" x="769" y="-463.5" font-family="Helvetica,sans-Serif" font-size="10.00">jumponcond</text>
</a>
</g>
</g>
<!-- Node6&#45;&gt;Node7 -->
<g id="edge6" class="edge"><title>Node6&#45;&gt;Node7</title>
<path fill="none" stroke="midnightblue" d="M846.381,-479.888C833.205,-477.492 817.405,-474.619 803.604,-472.11"/>
<polygon fill="midnightblue" stroke="midnightblue" points="845.833,-483.345 856.297,-481.69 847.085,-476.458 845.833,-483.345"/>
</g>
<!-- Node27 -->
<g id="node16" class="node"><title>Node27</title>
<g id="a_node16"><a xlink:href="lparser_8c.html#af24623e7aa293515c8293aaf892de531" target="_top" xlink:title=" ">
<polygon fill="white" stroke="black" points="0,-342.5 0,-361.5 55,-361.5 55,-342.5 0,-342.5"/>
<text text-anchor="middle" x="27.5" y="-349.5" font-family="Helvetica,sans-Serif" font-size="10.00">whilestat</text>
</a>
</g>
</g>
<!-- Node6&#45;&gt;Node27 -->
<g id="edge55" class="edge"><title>Node6&#45;&gt;Node27</title>
<path fill="none" stroke="midnightblue" d="M847.117,-497.047C806.539,-513.774 727.67,-542 657.5,-542 657.5,-542 657.5,-542 212.5,-542 152.853,-542 133.191,-527.163 91,-485 54.1861,-448.21 36.3562,-385.598 30.6318,-361.679"/>
<polygon fill="midnightblue" stroke="midnightblue" points="848.485,-500.269 856.347,-493.167 845.772,-493.816 848.485,-500.269"/>
</g>
<!-- Node41 -->
<g id="node19" class="node"><title>Node41</title>
<g id="a_node19"><a xlink:href="lparser_8c.html#a8638807967aa30e7700834f6bd4aaa5d" target="_top" xlink:title=" ">
<polygon fill="white" stroke="black" points="91,-456.5 91,-475.5 151,-475.5 151,-456.5 91,-456.5"/>
<text text-anchor="middle" x="121" y="-463.5" font-family="Helvetica,sans-Serif" font-size="10.00">repeatstat</text>
</a>
</g>
</g>
<!-- Node6&#45;&gt;Node41 -->
<g id="edge54" class="edge"><title>Node6&#45;&gt;Node41</title>
<path fill="none" stroke="midnightblue" d="M846.108,-489.079C804.724,-494.663 725.369,-504 657.5,-504 657.5,-504 657.5,-504 307.5,-504 250.957,-504 186.656,-486.846 150.546,-475.589"/>
<polygon fill="midnightblue" stroke="midnightblue" points="846.828,-492.513 856.257,-487.682 845.873,-485.579 846.828,-492.513"/>
</g>
<!-- Node43 -->
<g id="node21" class="node"><title>Node43</title>
<g id="a_node21"><a xlink:href="lvm_8h.html#ac430e93ed874f6ab2449d7a16aa6b62f" target="_top" xlink:title=" ">
<polygon fill="white" stroke="black" points="731,-660.5 731,-679.5 807,-679.5 807,-660.5 731,-660.5"/>
<text text-anchor="middle" x="769" y="-667.5" font-family="Helvetica,sans-Serif" font-size="10.00">luaV_execute</text>
</a>
</g>
</g>
<!-- Node6&#45;&gt;Node43 -->
<g id="edge30" class="edge"><title>Node6&#45;&gt;Node43</title>
<path fill="none" stroke="midnightblue" d="M858.41,-502.535C853.143,-508.744 847.495,-515.945 843,-523 822.917,-554.522 823.639,-565.533 807,-599 795.985,-621.154 782.4,-646.826 775.144,-660.413"/>
<polygon fill="midnightblue" stroke="midnightblue" points="861.244,-504.613 865.213,-494.79 855.984,-499.993 861.244,-504.613"/>
</g>
<!-- Node8 -->
<g id="node8" class="node"><title>Node8</title>
<g id="a_node8"><a xlink:href="lcode_8h.html#a8f1abd44cd0ec08b43ad809b9db04840" target="_top" xlink:title=" ">
<polygon fill="white" stroke="black" points="618,-418.5 618,-437.5 695,-437.5 695,-418.5 618,-418.5"/>
<text text-anchor="middle" x="656.5" y="-425.5" font-family="Helvetica,sans-Serif" font-size="10.00">luaK_goiffalse</text>
</a>
</g>
</g>
<!-- Node7&#45;&gt;Node8 -->
<g id="edge7" class="edge"><title>Node7&#45;&gt;Node8</title>
<path fill="none" stroke="midnightblue" d="M730.279,-453.028C715.558,-447.966 698.984,-442.266 685.375,-437.586"/>
<polygon fill="midnightblue" stroke="midnightblue" points="729.522,-456.469 740.116,-456.411 731.798,-449.849 729.522,-456.469"/>
</g>
<!-- Node7&#45;&gt;Node42 -->
<g id="edge26" class="edge"><title>Node7&#45;&gt;Node42</title>
<path fill="none" stroke="midnightblue" d="M743.345,-450.828C739.142,-448.011 734.883,-445.005 731,-442 713.836,-428.715 712.847,-421.353 695,-409 690.079,-405.594 684.463,-402.42 679.102,-399.68"/>
<polygon fill="midnightblue" stroke="midnightblue" points="741.462,-453.778 751.756,-456.285 745.272,-447.906 741.462,-453.778"/>
</g>
<!-- Node9 -->
<g id="node9" class="node"><title>Node9</title>
<g id="a_node9"><a xlink:href="lcode_8h.html#ad66fe8cd73e03e0d604d8c9572011ee7" target="_top" xlink:title=" ">
<polygon fill="white" stroke="black" points="509,-418.5 509,-437.5 568,-437.5 568,-418.5 509,-418.5"/>
<text text-anchor="middle" x="538.5" y="-425.5" font-family="Helvetica,sans-Serif" font-size="10.00">luaK_infix</text>
</a>
</g>
</g>
<!-- Node8&#45;&gt;Node9 -->
<g id="edge8" class="edge"><title>Node8&#45;&gt;Node9</title>
<path fill="none" stroke="midnightblue" d="M607.754,-428C594.308,-428 580.102,-428 568.153,-428"/>
<polygon fill="midnightblue" stroke="midnightblue" points="607.838,-431.5 617.838,-428 607.838,-424.5 607.838,-431.5"/>
</g>
<!-- Node8&#45;&gt;Node10 -->
<g id="edge10" class="edge"><title>Node8&#45;&gt;Node10</title>
<path fill="none" stroke="midnightblue" d="M616.347,-415.174C600.782,-410.075 583.186,-404.311 568.762,-399.586"/>
<polygon fill="midnightblue" stroke="midnightblue" points="615.636,-418.624 626.228,-418.411 617.815,-411.972 615.636,-418.624"/>
</g>
<!-- Node9&#45;&gt;Node4 -->
<g id="edge9" class="edge"><title>Node9&#45;&gt;Node4</title>
<path fill="none" stroke="midnightblue" d="M552.136,-445.915C579.585,-483.07 648.843,-567.657 731,-599 806.175,-627.679 840.5,-604.788 908,-561 963.572,-524.95 1014.08,-461.899 1032.31,-437.771"/>
<polygon fill="midnightblue" stroke="midnightblue" points="554.778,-443.596 546.076,-437.553 549.11,-447.704 554.778,-443.596"/>
</g>
<!-- Node11 -->
<g id="node11" class="node"><title>Node11</title>
<g id="a_node11"><a xlink:href="lparser_8c.html#ae59a0e4b7bd8d539f377ee6f82eac19b" target="_top" xlink:title=" ">
<polygon fill="white" stroke="black" points="399,-361.5 399,-380.5 437,-380.5 437,-361.5 399,-361.5"/>
<text text-anchor="middle" x="418" y="-368.5" font-family="Helvetica,sans-Serif" font-size="10.00">ifstat</text>
</a>
</g>
</g>
<!-- Node10&#45;&gt;Node11 -->
<g id="edge11" class="edge"><title>Node10&#45;&gt;Node11</title>
<path fill="none" stroke="midnightblue" d="M485.381,-381.643C468.148,-378.88 450.099,-375.986 437.179,-373.915"/>
<polygon fill="midnightblue" stroke="midnightblue" points="484.96,-385.12 495.388,-383.248 486.068,-378.209 484.96,-385.12"/>
</g>
<!-- Node12 -->
<g id="node12" class="node"><title>Node12</title>
<g id="a_node12"><a xlink:href="lparser_8c.html#ac29df3687aea9407dcfec478092fce4c" target="_top" xlink:title=" ">
<polygon fill="white" stroke="black" points="278.5,-323.5 278.5,-342.5 338.5,-342.5 338.5,-323.5 278.5,-323.5"/>
<text text-anchor="middle" x="308.5" y="-330.5" font-family="Helvetica,sans-Serif" font-size="10.00">statement</text>
</a>
</g>
</g>
<!-- Node11&#45;&gt;Node12 -->
<g id="edge12" class="edge"><title>Node11&#45;&gt;Node12</title>
<path fill="none" stroke="midnightblue" d="M389.306,-361.21C373.133,-355.493 352.808,-348.309 336.718,-342.621"/>
<polygon fill="midnightblue" stroke="midnightblue" points="388.169,-364.521 398.764,-364.554 390.502,-357.921 388.169,-364.521"/>
</g>
<!-- Node13 -->
<g id="node13" class="node"><title>Node13</title>
<g id="a_node13"><a xlink:href="lparser_8c.html#a20b1ca0b6642f6a79d5cc5abeb5dae63" target="_top" xlink:title=" ">
<polygon fill="white" stroke="black" points="187,-323.5 187,-342.5 240,-342.5 240,-323.5 187,-323.5"/>
<text text-anchor="middle" x="213.5" y="-330.5" font-family="Helvetica,sans-Serif" font-size="10.00">labelstat</text>
</a>
</g>
</g>
<!-- Node12&#45;&gt;Node13 -->
<g id="edge13" class="edge"><title>Node12&#45;&gt;Node13</title>
<path fill="none" stroke="midnightblue" d="M268.248,-326.323C258.735,-326.129 248.807,-326.32 240.11,-326.896"/>
<polygon fill="midnightblue" stroke="midnightblue" points="268.21,-329.824 278.329,-326.685 268.461,-322.829 268.21,-329.824"/>
</g>
<!-- Node14 -->
<g id="node14" class="node"><title>Node14</title>
<g id="a_node14"><a xlink:href="lparser_8c.html#aff3c4f1970c0f3c50f37a8187a2414e3" target="_top" xlink:title=" ">
<polygon fill="white" stroke="black" points="190.5,-399.5 190.5,-418.5 236.5,-418.5 236.5,-399.5 190.5,-399.5"/>
<text text-anchor="middle" x="213.5" y="-406.5" font-family="Helvetica,sans-Serif" font-size="10.00">statlist</text>
</a>
</g>
</g>
<!-- Node12&#45;&gt;Node14 -->
<g id="edge15" class="edge"><title>Node12&#45;&gt;Node14</title>
<path fill="none" stroke="midnightblue" d="M287.826,-349.078C269.132,-364.355 241.647,-386.816 226.183,-399.453"/>
<polygon fill="midnightblue" stroke="midnightblue" points="290.193,-351.663 295.721,-342.625 285.763,-346.243 290.193,-351.663"/>
</g>
<!-- Node13&#45;&gt;Node12 -->
<g id="edge14" class="edge"><title>Node13&#45;&gt;Node12</title>
<path fill="none" stroke="midnightblue" d="M250.251,-339.587C259.537,-339.873 269.428,-339.782 278.329,-339.315"/>
<polygon fill="midnightblue" stroke="midnightblue" points="250.265,-336.084 240.11,-339.104 249.932,-343.076 250.265,-336.084"/>
</g>
<!-- Node14&#45;&gt;Node10 -->
<g id="edge25" class="edge"><title>Node14&#45;&gt;Node10</title>
<path fill="none" stroke="midnightblue" d="M246.88,-407.095C305.67,-403.637 429.915,-396.329 495.273,-392.484"/>
<polygon fill="midnightblue" stroke="midnightblue" points="246.47,-403.613 236.693,-407.695 246.881,-410.601 246.47,-403.613"/>
</g>
<!-- Node15 -->
<g id="node15" class="node"><title>Node15</title>
<g id="a_node15"><a xlink:href="lparser_8c.html#a235428bed4c6be6cb6d2760cd0fa9d34" target="_top" xlink:title=" ">
<polygon fill="white" stroke="red" points="101,-342.5 101,-361.5 141,-361.5 141,-342.5 101,-342.5"/>
<text text-anchor="middle" x="121" y="-349.5" font-family="Helvetica,sans-Serif" font-size="10.00">block</text>
</a>
</g>
</g>
<!-- Node14&#45;&gt;Node15 -->
<g id="edge16" class="edge"><title>Node14&#45;&gt;Node15</title>
<path fill="none" stroke="midnightblue" d="M188.652,-393.979C172.328,-383.698 151.176,-370.376 137.125,-361.526"/>
<polygon fill="midnightblue" stroke="midnightblue" points="186.821,-396.963 197.148,-399.331 190.552,-391.04 186.821,-396.963"/>
</g>
<!-- Node28 -->
<g id="node17" class="node"><title>Node28</title>
<g id="a_node17"><a xlink:href="lparser_8c.html#aa6a712055fa7e1b41488c71be4f55303" target="_top" xlink:title=" ">
<polygon fill="white" stroke="red" points="102,-380.5 102,-399.5 140,-399.5 140,-380.5 102,-380.5"/>
<text text-anchor="middle" x="121" y="-387.5" font-family="Helvetica,sans-Serif" font-size="10.00">body</text>
</a>
</g>
</g>
<!-- Node14&#45;&gt;Node28 -->
<g id="edge21" class="edge"><title>Node14&#45;&gt;Node28</title>
<path fill="none" stroke="midnightblue" d="M180.247,-402.229C166.781,-399.402 151.637,-396.222 140.166,-393.814"/>
<polygon fill="midnightblue" stroke="midnightblue" points="179.623,-405.674 190.129,-404.303 181.062,-398.823 179.623,-405.674"/>
</g>
<!-- Node32 -->
<g id="node18" class="node"><title>Node32</title>
<g id="a_node18"><a xlink:href="lparser_8c.html#a011959c631cc7cfc75646a0fddc1a149" target="_top" xlink:title=" ">
<polygon fill="white" stroke="red" points="93,-418.5 93,-437.5 149,-437.5 149,-418.5 93,-418.5"/>
<text text-anchor="middle" x="121" y="-425.5" font-family="Helvetica,sans-Serif" font-size="10.00">mainfunc</text>
</a>
</g>
</g>
<!-- Node14&#45;&gt;Node32 -->
<g id="edge22" class="edge"><title>Node14&#45;&gt;Node32</title>
<path fill="none" stroke="midnightblue" d="M180.053,-415.812C169.973,-417.928 158.97,-420.238 149.28,-422.273"/>
<polygon fill="midnightblue" stroke="midnightblue" points="181.062,-419.177 190.129,-413.697 179.623,-412.326 181.062,-419.177"/>
</g>
<!-- Node14&#45;&gt;Node41 -->
<g id="edge23" class="edge"><title>Node14&#45;&gt;Node41</title>
<path fill="none" stroke="midnightblue" d="M188.652,-424.021C172.328,-434.302 151.176,-447.624 137.125,-456.474"/>
<polygon fill="midnightblue" stroke="midnightblue" points="190.552,-426.96 197.148,-418.669 186.821,-421.037 190.552,-426.96"/>
</g>
<!-- Node15&#45;&gt;Node11 -->
<g id="edge17" class="edge"><title>Node15&#45;&gt;Node11</title>
<path fill="none" stroke="midnightblue" d="M151.353,-353.891C212.018,-357.798 349.662,-366.663 398.991,-369.84"/>
<polygon fill="midnightblue" stroke="midnightblue" points="151.498,-350.393 141.294,-353.243 151.048,-357.378 151.498,-350.393"/>
</g>
<!-- Node15&#45;&gt;Node12 -->
<g id="edge18" class="edge"><title>Node15&#45;&gt;Node12</title>
<path fill="none" stroke="midnightblue" d="M142.173,-336.428C154.41,-327.986 170.756,-318.4 187,-314 219.912,-305.085 259.087,-314.899 283.63,-323.41"/>
<polygon fill="midnightblue" stroke="midnightblue" points="140.116,-333.597 134.05,-342.283 144.209,-339.276 140.116,-333.597"/>
</g>
<!-- Node15&#45;&gt;Node27 -->
<g id="edge19" class="edge"><title>Node15&#45;&gt;Node27</title>
<path fill="none" stroke="midnightblue" d="M90.3147,-352C78.9997,-352 66.183,-352 55.1654,-352"/>
<polygon fill="midnightblue" stroke="midnightblue" points="90.5952,-355.5 100.595,-352 90.5952,-348.5 90.5952,-355.5"/>
</g>
<!-- Node27&#45;&gt;Node12 -->
<g id="edge20" class="edge"><title>Node27&#45;&gt;Node12</title>
<path fill="none" stroke="midnightblue" d="M57.2581,-338.22C97.8646,-320.481 174.38,-293.363 240,-306 257.351,-309.342 275.912,-317.103 289.17,-323.451"/>
<polygon fill="midnightblue" stroke="midnightblue" points="55.6617,-335.1 47.9724,-342.388 58.5287,-341.486 55.6617,-335.1"/>
</g>
<!-- Node41&#45;&gt;Node12 -->
<g id="edge24" class="edge"><title>Node41&#45;&gt;Node12</title>
<path fill="none" stroke="midnightblue" d="M161.072,-459.933C185.554,-454.639 216.757,-445.028 240,-428 271.826,-404.683 294.332,-361.768 303.25,-342.64"/>
<polygon fill="midnightblue" stroke="midnightblue" points="160.151,-456.548 151.035,-461.947 161.528,-463.411 160.151,-456.548"/>
</g>
<!-- Node42&#45;&gt;Node6 -->
<g id="edge27" class="edge"><title>Node42&#45;&gt;Node6</title>
<path fill="none" stroke="midnightblue" d="M696.251,-402.991C726.822,-413.664 770.283,-429.782 807,-447 825.385,-455.622 845.566,-467.293 859.028,-475.417"/>
<polygon fill="midnightblue" stroke="midnightblue" points="697.001,-399.547 686.406,-399.587 694.713,-406.163 697.001,-399.547"/>
</g>
<!-- Node42&#45;&gt;Node9 -->
<g id="edge28" class="edge"><title>Node42&#45;&gt;Node9</title>
<path fill="none" stroke="midnightblue" d="M616.717,-402.705C600.917,-407.881 582.972,-413.759 568.36,-418.546"/>
<polygon fill="midnightblue" stroke="midnightblue" points="617.815,-406.028 626.228,-399.589 615.636,-399.376 617.815,-406.028"/>
</g>
<!-- Node42&#45;&gt;Node10 -->
<g id="edge29" class="edge"><title>Node42&#45;&gt;Node10</title>
<path fill="none" stroke="midnightblue" d="M609.637,-390C600.475,-390 590.89,-390 581.853,-390"/>
<polygon fill="midnightblue" stroke="midnightblue" points="609.75,-393.5 619.75,-390 609.75,-386.5 609.75,-393.5"/>
</g>
<!-- Node44 -->
<g id="node22" class="node"><title>Node44</title>
<g id="a_node22"><a xlink:href="ldo_8c.html#aa7d32ccef16c2d4fe63604c4c457831d" target="_top" xlink:title=" ">
<polygon fill="white" stroke="black" points="638,-698.5 638,-717.5 675,-717.5 675,-698.5 638,-698.5"/>
<text text-anchor="middle" x="656.5" y="-705.5" font-family="Helvetica,sans-Serif" font-size="10.00">ccall</text>
</a>
</g>
</g>
<!-- Node43&#45;&gt;Node44 -->
<g id="edge31" class="edge"><title>Node43&#45;&gt;Node44</title>
<path fill="none" stroke="midnightblue" d="M730.616,-682.856C711.808,-689.324 689.904,-696.857 675.009,-701.979"/>
<polygon fill="midnightblue" stroke="midnightblue" points="731.798,-686.151 740.116,-679.589 729.522,-679.531 731.798,-686.151"/>
</g>
<!-- Node346 -->
<g id="node33" class="node"><title>Node346</title>
<g id="a_node33"><a xlink:href="ldo_8c.html#abd7632c715de5db6e7797b7fa3f7010f" target="_top" xlink:title=" ">
<polygon fill="white" stroke="black" points="514,-651.5 514,-670.5 563,-670.5 563,-651.5 514,-651.5"/>
<text text-anchor="middle" x="538.5" y="-658.5" font-family="Helvetica,sans-Serif" font-size="10.00">resume</text>
</a>
</g>
</g>
<!-- Node43&#45;&gt;Node346 -->
<g id="edge50" class="edge"><title>Node43&#45;&gt;Node346</title>
<path fill="none" stroke="midnightblue" d="M720.613,-668.134C672.532,-666.24 600.075,-663.386 563.07,-661.928"/>
<polygon fill="midnightblue" stroke="midnightblue" points="720.649,-671.638 730.779,-668.534 720.925,-664.643 720.649,-671.638"/>
</g>
<!-- Node342 -->
<g id="node36" class="node"><title>Node342</title>
<g id="a_node36"><a xlink:href="ldo_8c.html#a3baab9d298c0c32cb74a9a079d7244de" target="_top" xlink:title=" ">
<polygon fill="white" stroke="black" points="636.5,-622.5 636.5,-641.5 676.5,-641.5 676.5,-622.5 636.5,-622.5"/>
<text text-anchor="middle" x="656.5" y="-629.5" font-family="Helvetica,sans-Serif" font-size="10.00">unroll</text>
</a>
</g>
</g>
<!-- Node43&#45;&gt;Node342 -->
<g id="edge51" class="edge"><title>Node43&#45;&gt;Node342</title>
<path fill="none" stroke="midnightblue" d="M730.422,-657.077C712.348,-650.862 691.454,-643.677 676.677,-638.595"/>
<polygon fill="midnightblue" stroke="midnightblue" points="729.522,-660.469 740.116,-660.411 731.798,-653.849 729.522,-660.469"/>
</g>
<!-- Node45 -->
<g id="node23" class="node"><title>Node45</title>
<g id="a_node23"><a xlink:href="ldo_8h.html#a4797364de1dd297aac52f9c10565523f" target="_top" xlink:title=" ">
<polygon fill="white" stroke="black" points="510.5,-779.5 510.5,-798.5 566.5,-798.5 566.5,-779.5 510.5,-779.5"/>
<text text-anchor="middle" x="538.5" y="-786.5" font-family="Helvetica,sans-Serif" font-size="10.00">luaD_call</text>
</a>
</g>
</g>
<!-- Node44&#45;&gt;Node45 -->
<g id="edge32" class="edge"><title>Node44&#45;&gt;Node45</title>
<path fill="none" stroke="midnightblue" d="M633.384,-723.443C609.753,-739.944 573.03,-765.587 553.244,-779.403"/>
<polygon fill="midnightblue" stroke="midnightblue" points="635.543,-726.205 641.738,-717.61 631.535,-720.465 635.543,-726.205"/>
</g>
<!-- Node650 -->
<g id="node28" class="node"><title>Node650</title>
<g id="a_node28"><a xlink:href="ldo_8h.html#a5315637506edcbdd30e9271e75416ae1" target="_top" xlink:title=" ">
<polygon fill="white" stroke="black" points="495,-698.5 495,-717.5 582,-717.5 582,-698.5 495,-698.5"/>
<text text-anchor="middle" x="538.5" y="-705.5" font-family="Helvetica,sans-Serif" font-size="10.00">luaD_callnoyield</text>
</a>
</g>
</g>
<!-- Node44&#45;&gt;Node650 -->
<g id="edge38" class="edge"><title>Node44&#45;&gt;Node650</title>
<path fill="none" stroke="midnightblue" d="M627.746,-708C614.18,-708 597.549,-708 582.395,-708"/>
<polygon fill="midnightblue" stroke="midnightblue" points="627.882,-711.5 637.882,-708 627.882,-704.5 627.882,-711.5"/>
</g>
<!-- Node44&#45;&gt;Node346 -->
<g id="edge47" class="edge"><title>Node44&#45;&gt;Node346</title>
<path fill="none" stroke="midnightblue" d="M628.533,-697.074C608.804,-689.08 582.285,-678.335 563.331,-670.656"/>
<polygon fill="midnightblue" stroke="midnightblue" points="627.3,-700.35 637.882,-700.862 629.928,-693.863 627.3,-700.35"/>
</g>
<!-- Node45&#45;&gt;Node43 -->
<g id="edge37" class="edge"><title>Node45&#45;&gt;Node43</title>
<path fill="none" stroke="midnightblue" d="M576.222,-777.656C608.611,-766.892 656.511,-749.097 695,-727 719.264,-713.07 744.268,-691.743 757.797,-679.51"/>
<polygon fill="midnightblue" stroke="midnightblue" points="575.115,-774.335 566.696,-780.767 577.288,-780.989 575.115,-774.335"/>
</g>
<!-- Node46 -->
<g id="node24" class="node"><title>Node46</title>
<g id="a_node24"><a xlink:href="lua_8h.html#aeebb647cb91c051b1955fac1207de386" target="_top" xlink:title=" ">
<polygon fill="white" stroke="red" points="390.5,-798.5 390.5,-817.5 445.5,-817.5 445.5,-798.5 390.5,-798.5"/>
<text text-anchor="middle" x="418" y="-805.5" font-family="Helvetica,sans-Serif" font-size="10.00">lua_callk</text>
</a>
</g>
</g>
<!-- Node45&#45;&gt;Node46 -->
<g id="edge33" class="edge"><title>Node45&#45;&gt;Node46</title>
<path fill="none" stroke="midnightblue" d="M500.291,-794.966C482.566,-797.808 461.771,-801.142 445.651,-803.727"/>
<polygon fill="midnightblue" stroke="midnightblue" points="500.994,-798.398 510.314,-793.359 499.886,-791.486 500.994,-798.398"/>
</g>
<!-- Node48 -->
<g id="node25" class="node"><title>Node48</title>
<g id="a_node25"><a xlink:href="lua_8h.html#ab03ab465d4ca870dc66e228b8dfd3f06" target="_top" xlink:title=" ">
<polygon fill="white" stroke="red" points="278.5,-741.5 278.5,-760.5 338.5,-760.5 338.5,-741.5 278.5,-741.5"/>
<text text-anchor="middle" x="308.5" y="-748.5" font-family="Helvetica,sans-Serif" font-size="10.00">lua_pcallk</text>
</a>
</g>
</g>
<!-- Node45&#45;&gt;Node48 -->
<g id="edge34" class="edge"><title>Node45&#45;&gt;Node48</title>
<path fill="none" stroke="midnightblue" d="M525.58,-806.821C511.984,-825.372 487.861,-853.318 459,-865 425.218,-878.674 408.662,-883.048 377,-865 336.436,-841.877 317.76,-783.742 311.766,-760.662"/>
<polygon fill="midnightblue" stroke="midnightblue" points="528.486,-808.773 531.383,-798.582 522.763,-804.742 528.486,-808.773"/>
</g>
<!-- Node51 -->
<g id="node26" class="node"><title>Node51</title>
<g id="a_node26"><a xlink:href="ltm_8h.html#a4380eceaa582fe847011b265423c8fa4" target="_top" xlink:title=" ">
<polygon fill="white" stroke="red" points="384,-760.5 384,-779.5 452,-779.5 452,-760.5 384,-760.5"/>
<text text-anchor="middle" x="418" y="-767.5" font-family="Helvetica,sans-Serif" font-size="10.00">luaT_callTM</text>
</a>
</g>
</g>
<!-- Node45&#45;&gt;Node51 -->
<g id="edge35" class="edge"><title>Node45&#45;&gt;Node51</title>
<path fill="none" stroke="midnightblue" d="M500.144,-783.01C484.842,-780.557 467.274,-777.74 452.406,-775.356"/>
<polygon fill="midnightblue" stroke="midnightblue" points="499.886,-786.514 510.314,-784.641 500.994,-779.602 499.886,-786.514"/>
</g>
<!-- Node165 -->
<g id="node27" class="node"><title>Node165</title>
<g id="a_node27"><a xlink:href="ltm_8h.html#a672b3605311190ae7ed802d566daa1fa" target="_top" xlink:title=" ">
<polygon fill="white" stroke="red" points="377,-836.5 377,-855.5 459,-855.5 459,-836.5 377,-836.5"/>
<text text-anchor="middle" x="418" y="-843.5" font-family="Helvetica,sans-Serif" font-size="10.00">luaT_callTMres</text>
</a>
</g>
</g>
<!-- Node45&#45;&gt;Node165 -->
<g id="edge36" class="edge"><title>Node45&#45;&gt;Node165</title>
<path fill="none" stroke="midnightblue" d="M508.663,-803.022C493.834,-810.217 475.463,-819.105 459,-827 452.622,-830.058 445.663,-833.372 439.363,-836.363"/>
<polygon fill="midnightblue" stroke="midnightblue" points="510.373,-806.083 517.84,-798.566 507.316,-799.786 510.373,-806.083"/>
</g>
<!-- Node650&#45;&gt;Node46 -->
<g id="edge43" class="edge"><title>Node650&#45;&gt;Node46</title>
<path fill="none" stroke="midnightblue" d="M523.829,-725.407C509.233,-743.133 484.708,-770.559 459,-789 454.002,-792.585 448.222,-795.785 442.636,-798.49"/>
<polygon fill="midnightblue" stroke="midnightblue" points="526.6,-727.546 530.158,-717.567 521.154,-723.149 526.6,-727.546"/>
</g>
<!-- Node650&#45;&gt;Node51 -->
<g id="edge45" class="edge"><title>Node650&#45;&gt;Node51</title>
<path fill="none" stroke="midnightblue" d="M511.956,-722.478C496.702,-731.002 476.877,-741.868 459,-751 452.838,-754.148 446.065,-757.431 439.872,-760.364"/>
<polygon fill="midnightblue" stroke="midnightblue" points="513.799,-725.457 520.805,-717.51 510.372,-719.353 513.799,-725.457"/>
</g>
<!-- Node650&#45;&gt;Node165 -->
<g id="edge46" class="edge"><title>Node650&#45;&gt;Node165</title>
<path fill="none" stroke="midnightblue" d="M524.871,-726.038C516.321,-738.345 504.834,-755.059 495,-770 478.527,-795.028 481.418,-807.12 459,-827 454.858,-830.673 449.882,-833.782 444.869,-836.355"/>
<polygon fill="midnightblue" stroke="midnightblue" points="527.914,-727.794 530.761,-717.589 522.171,-723.791 527.914,-727.794"/>
</g>
<!-- Node651 -->
<g id="node29" class="node"><title>Node651</title>
<g id="a_node29"><a xlink:href="lfunc_8c.html#ad6f77f3a49d8b6199525c7edac6fd0a6" target="_top" xlink:title=" ">
<polygon fill="white" stroke="red" points="390.5,-646.5 390.5,-665.5 445.5,-665.5 445.5,-646.5 390.5,-646.5"/>
<text text-anchor="middle" x="418" y="-653.5" font-family="Helvetica,sans-Serif" font-size="10.00">callclose</text>
</a>
</g>
</g>
<!-- Node650&#45;&gt;Node651 -->
<g id="edge39" class="edge"><title>Node650&#45;&gt;Node651</title>
<path fill="none" stroke="midnightblue" d="M506.493,-694.394C485.921,-685.366 459.418,-673.736 440.998,-665.653"/>
<polygon fill="midnightblue" stroke="midnightblue" points="505.202,-697.649 515.765,-698.462 508.015,-691.239 505.202,-697.649"/>
</g>
<!-- Node652 -->
<g id="node30" class="node"><title>Node652</title>
<g id="a_node30"><a xlink:href="lgc_8c.html#a929058f72c03750fa82374f6bfa639ee" target="_top" xlink:title=" ">
<polygon fill="white" stroke="red" points="390,-722.5 390,-741.5 446,-741.5 446,-722.5 390,-722.5"/>
<text text-anchor="middle" x="418" y="-729.5" font-family="Helvetica,sans-Serif" font-size="10.00">dothecall</text>
</a>
</g>
</g>
<!-- Node650&#45;&gt;Node652 -->
<g id="edge40" class="edge"><title>Node650&#45;&gt;Node652</title>
<path fill="none" stroke="midnightblue" d="M484.686,-718.696C471.397,-721.388 457.67,-724.168 446.223,-726.486"/>
<polygon fill="midnightblue" stroke="midnightblue" points="485.613,-722.08 494.719,-716.665 484.223,-715.219 485.613,-722.08"/>
</g>
<!-- Node653 -->
<g id="node31" class="node"><title>Node653</title>
<g id="a_node31"><a xlink:href="lapi_8c.html#ac3926c93fb08234f9f47e24653124910" target="_top" xlink:title=" ">
<polygon fill="white" stroke="black" points="398.5,-608.5 398.5,-627.5 437.5,-627.5 437.5,-608.5 398.5,-608.5"/>
<text text-anchor="middle" x="418" y="-615.5" font-family="Helvetica,sans-Serif" font-size="10.00">f_call</text>
</a>
</g>
</g>
<!-- Node650&#45;&gt;Node653 -->
<g id="edge41" class="edge"><title>Node650&#45;&gt;Node653</title>
<path fill="none" stroke="midnightblue" d="M511.768,-692.782C506.013,-688.914 500.107,-684.554 495,-680 476.396,-663.413 478.711,-652.254 459,-637 452.677,-632.107 444.89,-628.053 437.872,-624.965"/>
<polygon fill="midnightblue" stroke="midnightblue" points="510.241,-695.961 520.549,-698.412 514.019,-690.068 510.241,-695.961"/>
</g>
<!-- Node621 -->
<g id="node32" class="node"><title>Node621</title>
<g id="a_node32"><a xlink:href="ldebug_8h.html#acd5ef9f67a8e9d08f6540636fdbeafe6" target="_top" xlink:title=" ">
<polygon fill="white" stroke="red" points="378,-684.5 378,-703.5 458,-703.5 458,-684.5 378,-684.5"/>
<text text-anchor="middle" x="418" y="-691.5" font-family="Helvetica,sans-Serif" font-size="10.00">luaG_errormsg</text>
</a>
</g>
</g>
<!-- Node650&#45;&gt;Node621 -->
<g id="edge44" class="edge"><title>Node650&#45;&gt;Node621</title>
<path fill="none" stroke="midnightblue" d="M484.757,-701.769C475.819,-700.713 466.682,-699.633 458.171,-698.628"/>
<polygon fill="midnightblue" stroke="midnightblue" points="484.377,-705.248 494.719,-702.946 485.199,-698.296 484.377,-705.248"/>
</g>
<!-- Node653&#45;&gt;Node48 -->
<g id="edge42" class="edge"><title>Node653&#45;&gt;Node48</title>
<path fill="none" stroke="midnightblue" d="M389.409,-628.42C384.968,-630.826 380.641,-633.676 377,-637 343.024,-668.012 320.937,-720.148 312.899,-741.473"/>
<polygon fill="midnightblue" stroke="midnightblue" points="390.972,-631.552 398.5,-624.096 387.966,-625.23 390.972,-631.552"/>
</g>
<!-- Node343 -->
<g id="node34" class="node"><title>Node343</title>
<g id="a_node34"><a xlink:href="lua_8h.html#a534ce5b580fb7c5391f931b272eff0a0" target="_top" xlink:title=" ">
<polygon fill="white" stroke="black" points="384.5,-570.5 384.5,-589.5 451.5,-589.5 451.5,-570.5 384.5,-570.5"/>
<text text-anchor="middle" x="418" y="-577.5" font-family="Helvetica,sans-Serif" font-size="10.00">lua_resume</text>
</a>
</g>
</g>
<!-- Node346&#45;&gt;Node343 -->
<g id="edge48" class="edge"><title>Node346&#45;&gt;Node343</title>
<path fill="none" stroke="midnightblue" d="M519.186,-644.584C503.811,-631.293 480.905,-612.611 459,-599 453.515,-595.592 447.322,-592.374 441.478,-589.59"/>
<polygon fill="midnightblue" stroke="midnightblue" points="517.073,-647.385 526.899,-651.346 521.687,-642.122 517.073,-647.385"/>
</g>
<!-- Node344 -->
<g id="node35" class="node"><title>Node344</title>
<g id="a_node35"><a xlink:href="lcorolib_8c.html#aaa37b3a30ab0c6daef7fae8951fef3e7" target="_top" xlink:title=" ">
<polygon fill="white" stroke="red" points="276,-570.5 276,-589.5 341,-589.5 341,-570.5 276,-570.5"/>
<text text-anchor="middle" x="308.5" y="-577.5" font-family="Helvetica,sans-Serif" font-size="10.00">auxresume</text>
</a>
</g>
</g>
<!-- Node343&#45;&gt;Node344 -->
<g id="edge49" class="edge"><title>Node343&#45;&gt;Node344</title>
<path fill="none" stroke="midnightblue" d="M374.165,-580C363.162,-580 351.522,-580 341.196,-580"/>
<polygon fill="midnightblue" stroke="midnightblue" points="374.455,-583.5 384.455,-580 374.455,-576.5 374.455,-583.5"/>
</g>
<!-- Node342&#45;&gt;Node346 -->
<g id="edge53" class="edge"><title>Node342&#45;&gt;Node346</title>
<path fill="none" stroke="midnightblue" d="M626.445,-639.264C606.88,-644.155 581.407,-650.523 563.097,-655.101"/>
<polygon fill="midnightblue" stroke="midnightblue" points="627.492,-642.61 636.345,-636.789 625.795,-635.819 627.492,-642.61"/>
</g>
<!-- Node342&#45;&gt;Node343 -->
<g id="edge52" class="edge"><title>Node342&#45;&gt;Node343</title>
<path fill="none" stroke="midnightblue" d="M626.287,-625.577C581.946,-615.828 497.934,-597.355 451.642,-587.177"/>
<polygon fill="midnightblue" stroke="midnightblue" points="625.628,-629.015 636.146,-627.745 627.131,-622.179 625.628,-629.015"/>
</g>
<!-- Node19 -->
<g id="node38" class="node"><title>Node19</title>
<g id="a_node38"><a xlink:href="lparser_8c.html#a18532c1a3a900cb8f3399b470c00daf0" target="_top" xlink:title=" ">
<polygon fill="white" stroke="red" points="746,-570.5 746,-589.5 792,-589.5 792,-570.5 746,-570.5"/>
<text text-anchor="middle" x="769" y="-577.5" font-family="Helvetica,sans-Serif" font-size="10.00">fornum</text>
</a>
</g>
</g>
<!-- Node448&#45;&gt;Node19 -->
<g id="edge57" class="edge"><title>Node448&#45;&gt;Node19</title>
<path fill="none" stroke="midnightblue" d="M846.872,-552.046C829.847,-558.237 808.301,-566.072 792.354,-571.871"/>
<polygon fill="midnightblue" stroke="midnightblue" points="848.096,-555.326 856.297,-548.619 845.703,-548.747 848.096,-555.326"/>
</g>
<!-- Node17 -->
<g id="node40" class="node"><title>Node17</title>
<g id="a_node40"><a xlink:href="lparser_8c.html#a5f15a71e248c4e1e9c867ccac8a450c2" target="_top" xlink:title=" ">
<polygon fill="white" stroke="red" points="749,-152.5 749,-171.5 789,-171.5 789,-152.5 749,-152.5"/>
<text text-anchor="middle" x="769" y="-159.5" font-family="Helvetica,sans-Serif" font-size="10.00">forlist</text>
</a>
</g>
</g>
<!-- Node449&#45;&gt;Node17 -->
<g id="edge59" class="edge"><title>Node449&#45;&gt;Node17</title>
<path fill="none" stroke="midnightblue" d="M848.966,-119.679C836.392,-126.83 820.967,-135.486 807,-143 801.15,-146.147 794.726,-149.487 788.896,-152.473"/>
<polygon fill="midnightblue" stroke="midnightblue" points="851.005,-122.545 857.954,-114.548 847.535,-116.466 851.005,-122.545"/>
</g>
<!-- Node418 -->
<g id="node41" class="node"><title>Node418</title>
<g id="a_node41"><a xlink:href="lparser_8c.html#a5050696e535c2da862810fc9910b6afc" target="_top" xlink:title=" ">
<polygon fill="white" stroke="black" points="742.5,-114.5 742.5,-133.5 795.5,-133.5 795.5,-114.5 742.5,-114.5"/>
<text text-anchor="middle" x="769" y="-121.5" font-family="Helvetica,sans-Serif" font-size="10.00">funcargs</text>
</a>
</g>
</g>
<!-- Node449&#45;&gt;Node418 -->
<g id="edge60" class="edge"><title>Node449&#45;&gt;Node418</title>
<path fill="none" stroke="midnightblue" d="M842.904,-110.745C827.796,-113.492 809.941,-116.738 795.683,-119.33"/>
<polygon fill="midnightblue" stroke="midnightblue" points="843.635,-114.169 852.848,-108.937 842.383,-107.282 843.635,-114.169"/>
</g>
<!-- Node413 -->
<g id="node43" class="node"><title>Node413</title>
<g id="a_node43"><a xlink:href="lparser_8c.html#a4edcfc19b8a94936c58860eded728be4" target="_top" xlink:title=" ">
<polygon fill="white" stroke="red" points="507.5,-114.5 507.5,-133.5 569.5,-133.5 569.5,-114.5 507.5,-114.5"/>
<text text-anchor="middle" x="538.5" y="-121.5" font-family="Helvetica,sans-Serif" font-size="10.00">restassign</text>
</a>
</g>
</g>
<!-- Node449&#45;&gt;Node413 -->
<g id="edge65" class="edge"><title>Node449&#45;&gt;Node413</title>
<path fill="none" stroke="midnightblue" d="M842.605,-104.098C813.51,-103.489 769.339,-103.103 731,-105 673.772,-107.832 607.276,-115.397 569.614,-120.082"/>
<polygon fill="midnightblue" stroke="midnightblue" points="842.525,-107.597 852.603,-104.328 842.686,-100.599 842.525,-107.597"/>
</g>
<!-- Node445 -->
<g id="node44" class="node"><title>Node445</title>
<g id="a_node44"><a xlink:href="lparser_8c.html#aedb81864a38588cc65a205ff4c07abfa" target="_top" xlink:title=" ">
<polygon fill="white" stroke="black" points="630,-0.5 630,-19.5 683,-19.5 683,-0.5 630,-0.5"/>
<text text-anchor="middle" x="656.5" y="-7.5" font-family="Helvetica,sans-Serif" font-size="10.00">localstat</text>
</a>
</g>
</g>
<!-- Node449&#45;&gt;Node445 -->
<g id="edge63" class="edge"><title>Node449&#45;&gt;Node445</title>
<path fill="none" stroke="midnightblue" d="M862.608,-86.9226C850.643,-70.3121 830.615,-46.4421 807,-34 767.348,-13.1079 714.199,-9.39887 683.12,-9.25179"/>
<polygon fill="midnightblue" stroke="midnightblue" points="859.828,-89.0551 868.397,-95.2851 865.583,-85.0708 859.828,-89.0551"/>
</g>
<!-- Node442 -->
<g id="node45" class="node"><title>Node442</title>
<g id="a_node45"><a xlink:href="lparser_8c.html#a7998fc603fbe151c85cf0ff9b5517ad6" target="_top" xlink:title=" ">
<polygon fill="white" stroke="black" points="516.5,-76.5 516.5,-95.5 560.5,-95.5 560.5,-76.5 516.5,-76.5"/>
<text text-anchor="middle" x="538.5" y="-83.5" font-family="Helvetica,sans-Serif" font-size="10.00">retstat</text>
</a>
</g>
</g>
<!-- Node449&#45;&gt;Node442 -->
<g id="edge66" class="edge"><title>Node449&#45;&gt;Node442</title>
<path fill="none" stroke="midnightblue" d="M842.67,-102.5C831.406,-101.653 818.642,-100.736 807,-100 715.336,-94.2071 605.894,-89.0198 560.662,-86.9516"/>
<polygon fill="midnightblue" stroke="midnightblue" points="842.687,-106.011 852.925,-103.282 843.22,-99.0316 842.687,-106.011"/>
</g>
<!-- Node411 -->
<g id="node42" class="node"><title>Node411</title>
<g id="a_node42"><a xlink:href="lparser_8c.html#adecf4ab651d795c1af76b75998a4dd9c" target="_top" xlink:title=" ">
<polygon fill="white" stroke="red" points="624,-152.5 624,-171.5 689,-171.5 689,-152.5 624,-152.5"/>
<text text-anchor="middle" x="656.5" y="-159.5" font-family="Helvetica,sans-Serif" font-size="10.00">suffixedexp</text>
</a>
</g>
</g>
<!-- Node418&#45;&gt;Node411 -->
<g id="edge61" class="edge"><title>Node418&#45;&gt;Node411</title>
<path fill="none" stroke="midnightblue" d="M732.701,-136.139C717.375,-141.409 699.684,-147.493 685.312,-152.436"/>
<polygon fill="midnightblue" stroke="midnightblue" points="734.053,-139.375 742.371,-132.813 731.777,-132.756 734.053,-139.375"/>
</g>
<!-- Node411&#45;&gt;Node413 -->
<g id="edge62" class="edge"><title>Node411&#45;&gt;Node413</title>
<path fill="none" stroke="midnightblue" d="M616.347,-149.174C600.782,-144.075 583.186,-138.311 568.762,-133.586"/>
<polygon fill="midnightblue" stroke="midnightblue" points="615.636,-152.624 626.228,-152.411 617.815,-145.972 615.636,-152.624"/>
</g>
<!-- Node445&#45;&gt;Node12 -->
<g id="edge64" class="edge"><title>Node445&#45;&gt;Node12</title>
<path fill="none" stroke="midnightblue" d="M619.72,-15.3744C559.977,-26.2993 440.243,-56.8638 377,-133 326.89,-193.326 313.389,-292.553 310.308,-323.488"/>
<polygon fill="midnightblue" stroke="midnightblue" points="620.559,-18.7811 629.808,-13.6134 619.355,-11.8854 620.559,-18.7811"/>
</g>
<!-- Node442&#45;&gt;Node12 -->
<g id="edge67" class="edge"><title>Node442&#45;&gt;Node12</title>
<path fill="none" stroke="midnightblue" d="M506.934,-97.5519C502.741,-99.7303 498.634,-102.214 495,-105 407.123,-172.376 334.939,-289.352 314.985,-323.429"/>
<polygon fill="midnightblue" stroke="midnightblue" points="508.52,-100.674 516.099,-93.2713 505.557,-94.3318 508.52,-100.674"/>
</g>
<!-- Node416 -->
<g id="node47" class="node"><title>Node416</title>
<g id="a_node47"><a xlink:href="lparser_8c.html#a3a1a4b5a661e480a87ce14027a01f177" target="_top" xlink:title=" ">
<polygon fill="white" stroke="red" points="639.5,-285.5 639.5,-304.5 673.5,-304.5 673.5,-285.5 639.5,-285.5"/>
<text text-anchor="middle" x="656.5" y="-292.5" font-family="Helvetica,sans-Serif" font-size="10.00">field</text>
</a>
</g>
</g>
<!-- Node654&#45;&gt;Node416 -->
<g id="edge69" class="edge"><title>Node654&#45;&gt;Node416</title>
<path fill="none" stroke="midnightblue" d="M841.661,-311.125C794.423,-306.989 709.081,-299.516 673.624,-296.412"/>
<polygon fill="midnightblue" stroke="midnightblue" points="841.42,-314.617 851.687,-312.003 842.031,-307.644 841.42,-314.617"/>
</g>
<!-- Node441&#45;&gt;Node411 -->
<g id="edge71" class="edge"><title>Node441&#45;&gt;Node411</title>
<path fill="none" stroke="midnightblue" d="M832.868,-195.839C804.107,-192.635 765.053,-187.63 731,-181 717.157,-178.305 702.046,-174.543 689.145,-171.078"/>
<polygon fill="midnightblue" stroke="midnightblue" points="832.65,-199.336 842.97,-196.938 833.407,-192.377 832.65,-199.336"/>
</g>
<!-- Node415&#45;&gt;Node416 -->
<g id="edge73" class="edge"><title>Node415&#45;&gt;Node416</title>
<path fill="none" stroke="midnightblue" d="M735.274,-281.627C714.967,-285.119 689.763,-289.452 673.654,-292.222"/>
<polygon fill="midnightblue" stroke="midnightblue" points="736.11,-285.035 745.372,-279.891 734.924,-278.136 736.11,-285.035"/>
</g>
<!-- Node438&#45;&gt;Node411 -->
<g id="edge77" class="edge"><title>Node438&#45;&gt;Node411</title>
<path fill="none" stroke="midnightblue" d="M842.459,-231.999C812.924,-225.941 768.171,-215.421 731,-201 710.125,-192.901 687.584,-180.313 673.047,-171.64"/>
<polygon fill="midnightblue" stroke="midnightblue" points="842.117,-235.499 852.609,-234.027 843.489,-228.635 842.117,-235.499"/>
</g>
<!-- Node438&#45;&gt;Node415 -->
<g id="edge76" class="edge"><title>Node438&#45;&gt;Node415</title>
<path fill="none" stroke="midnightblue" d="M843.224,-249.373C826.98,-255.28 807.495,-262.366 792.709,-267.742"/>
<polygon fill="midnightblue" stroke="midnightblue" points="844.646,-252.58 852.848,-245.874 842.253,-246.002 844.646,-252.58"/>
</g>
</g>
</svg>
