<?xml version="1.0" encoding="UTF-8" standalone="no"?>
<!DOCTYPE svg PUBLIC "-//W3C//DTD SVG 1.1//EN"
 "http://www.w3.org/Graphics/SVG/1.1/DTD/svg11.dtd">
<!-- Generated by graphviz version 2.38.0 (20140413.2041)
 -->
<!-- Title: luaK_setreturns Pages: 1 -->
<svg width="2251pt" height="749pt"
 viewBox="0.00 0.00 2251.00 749.00" xmlns="http://www.w3.org/2000/svg" xmlns:xlink="http://www.w3.org/1999/xlink">
<g id="graph0" class="graph" transform="scale(1 1) rotate(0) translate(4 745)">
<title>luaK_setreturns</title>
<polygon fill="white" stroke="none" points="-4,4 -4,-745 2247,-745 2247,4 -4,4"/>
<!-- Node1 -->
<g id="node1" class="node"><title>Node1</title>
<g id="a_node1"><a xlink:title=" ">
<polygon fill="#bfbfbf" stroke="black" points="0,-114.5 0,-133.5 85,-133.5 85,-114.5 0,-114.5"/>
<text text-anchor="middle" x="42.5" y="-121.5" font-family="Helvetica,sans-Serif" font-size="10.00">luaK_setreturns</text>
</a>
</g>
</g>
<!-- Node2 -->
<g id="node2" class="node"><title>Node2</title>
<g id="a_node2"><a xlink:href="lcode_8c.html#af1190942fb7a557b056ac8bbaa0024a1" target="_top" xlink:title=" ">
<polygon fill="white" stroke="black" points="121,-114.5 121,-133.5 212,-133.5 212,-114.5 121,-114.5"/>
<text text-anchor="middle" x="166.5" y="-121.5" font-family="Helvetica,sans-Serif" font-size="10.00">luaK_reserveregs</text>
</a>
</g>
</g>
<!-- Node1&#45;&gt;Node2 -->
<g id="edge1" class="edge"><title>Node1&#45;&gt;Node2</title>
<path fill="none" stroke="midnightblue" d="M85.1443,-124C93.2907,-124 101.951,-124 110.455,-124"/>
<polygon fill="midnightblue" stroke="midnightblue" points="110.706,-127.5 120.706,-124 110.706,-120.5 110.706,-127.5"/>
</g>
<!-- Node3 -->
<g id="node3" class="node"><title>Node3</title>
<g id="a_node3"><a xlink:href="lcode_8c.html#afd941e61245bcb4d05bd3ba5b4ffec3b" target="_top" xlink:title=" ">
<polygon fill="white" stroke="black" points="248,-114.5 248,-133.5 340,-133.5 340,-114.5 248,-114.5"/>
<text text-anchor="middle" x="294" y="-121.5" font-family="Helvetica,sans-Serif" font-size="10.00">luaK_checkstack</text>
</a>
</g>
</g>
<!-- Node2&#45;&gt;Node3 -->
<g id="edge2" class="edge"><title>Node2&#45;&gt;Node3</title>
<path fill="none" stroke="midnightblue" d="M212.1,-124C220.314,-124 228.983,-124 237.473,-124"/>
<polygon fill="midnightblue" stroke="midnightblue" points="237.697,-127.5 247.697,-124 237.697,-120.5 237.697,-127.5"/>
</g>
<!-- Node4 -->
<g id="node4" class="node"><title>Node4</title>
<g id="a_node4"><a xlink:href="llex_8c.html#aa5303ae41cbf1a2d9ef2f422751f85be" target="_top" xlink:title=" ">
<polygon fill="white" stroke="black" points="376,-114.5 376,-133.5 465,-133.5 465,-114.5 376,-114.5"/>
<text text-anchor="middle" x="420.5" y="-121.5" font-family="Helvetica,sans-Serif" font-size="10.00">luaX_syntaxerror</text>
</a>
</g>
</g>
<!-- Node3&#45;&gt;Node4 -->
<g id="edge3" class="edge"><title>Node3&#45;&gt;Node4</title>
<path fill="none" stroke="midnightblue" d="M340.3,-124C348.505,-124 357.135,-124 365.559,-124"/>
<polygon fill="midnightblue" stroke="midnightblue" points="365.689,-127.5 375.689,-124 365.689,-120.5 365.689,-127.5"/>
</g>
<!-- Node5 -->
<g id="node5" class="node"><title>Node5</title>
<g id="a_node5"><a xlink:href="llex_8c.html#a67bb1f3225ffe5738fef1c3d34879735" target="_top" xlink:title=" ">
<polygon fill="white" stroke="black" points="501,-114.5 501,-133.5 550,-133.5 550,-114.5 501,-114.5"/>
<text text-anchor="middle" x="525.5" y="-121.5" font-family="Helvetica,sans-Serif" font-size="10.00">lexerror</text>
</a>
</g>
</g>
<!-- Node4&#45;&gt;Node5 -->
<g id="edge4" class="edge"><title>Node4&#45;&gt;Node5</title>
<path fill="none" stroke="midnightblue" d="M465.181,-124C473.721,-124 482.554,-124 490.712,-124"/>
<polygon fill="midnightblue" stroke="midnightblue" points="490.967,-127.5 500.967,-124 490.967,-120.5 490.967,-127.5"/>
</g>
<!-- Node6 -->
<g id="node6" class="node"><title>Node6</title>
<g id="a_node6"><a xlink:href="ldo_8c.html#a2b46d9db5b9ca3d5402a0c2ac640a6b0" target="_top" xlink:title=" ">
<polygon fill="white" stroke="black" points="586,-455.5 586,-474.5 651,-474.5 651,-455.5 586,-455.5"/>
<text text-anchor="middle" x="618.5" y="-462.5" font-family="Helvetica,sans-Serif" font-size="10.00">luaD_throw</text>
</a>
</g>
</g>
<!-- Node5&#45;&gt;Node6 -->
<g id="edge5" class="edge"><title>Node5&#45;&gt;Node6</title>
<path fill="none" stroke="midnightblue" d="M529.125,-133.838C541.634,-180.71 595.28,-381.736 612.298,-445.509"/>
<polygon fill="midnightblue" stroke="midnightblue" points="608.991,-446.689 614.951,-455.448 615.754,-444.884 608.991,-446.689"/>
</g>
<!-- Node25 -->
<g id="node32" class="node"><title>Node25</title>
<g id="a_node32"><a xlink:href="ldebug_8c.html#a7e1dc7518150bf19bd9aa5dda166a2eb" target="_top" xlink:title=" ">
<polygon fill="white" stroke="black" points="1203.5,-190.5 1203.5,-209.5 1276.5,-209.5 1276.5,-190.5 1203.5,-190.5"/>
<text text-anchor="middle" x="1240" y="-197.5" font-family="Helvetica,sans-Serif" font-size="10.00">luaG_addinfo</text>
</a>
</g>
</g>
<!-- Node5&#45;&gt;Node25 -->
<g id="edge63" class="edge"><title>Node5&#45;&gt;Node25</title>
<path fill="none" stroke="midnightblue" d="M545.246,-133.541C578.917,-149.767 652.266,-181 718,-181 718,-181 718,-181 961,-181 1042.81,-181 1137.84,-189.29 1192.93,-194.918"/>
<polygon fill="midnightblue" stroke="midnightblue" points="1192.76,-198.42 1203.07,-195.971 1193.48,-191.457 1192.76,-198.42"/>
</g>
<!-- Node27 -->
<g id="node34" class="node"><title>Node27</title>
<g id="a_node34"><a xlink:href="lobject_8c.html#a8e224db7123c74d695076a96d1bfda61" target="_top" xlink:title=" ">
<polygon fill="white" stroke="black" points="1325,-114.5 1325,-133.5 1414,-133.5 1414,-114.5 1325,-114.5"/>
<text text-anchor="middle" x="1369.5" y="-121.5" font-family="Helvetica,sans-Serif" font-size="10.00">luaO_pushfstring</text>
</a>
</g>
</g>
<!-- Node5&#45;&gt;Node27 -->
<g id="edge64" class="edge"><title>Node5&#45;&gt;Node27</title>
<path fill="none" stroke="midnightblue" d="M550.085,-124C586.228,-124 657.491,-124 718,-124 718,-124 718,-124 1101,-124 1175.17,-124 1260.91,-124 1314.91,-124"/>
<polygon fill="midnightblue" stroke="midnightblue" points="1314.95,-127.5 1324.95,-124 1314.95,-120.5 1314.95,-127.5"/>
</g>
<!-- Node443 -->
<g id="node48" class="node"><title>Node443</title>
<g id="a_node48"><a xlink:href="llex_8c.html#ab53c17c8b5ca50bcdfbd1cddf7310e83" target="_top" xlink:title=" ">
<polygon fill="white" stroke="black" points="591.5,-57.5 591.5,-76.5 645.5,-76.5 645.5,-57.5 591.5,-57.5"/>
<text text-anchor="middle" x="618.5" y="-64.5" font-family="Helvetica,sans-Serif" font-size="10.00">txtToken</text>
</a>
</g>
</g>
<!-- Node5&#45;&gt;Node443 -->
<g id="edge65" class="edge"><title>Node5&#45;&gt;Node443</title>
<path fill="none" stroke="midnightblue" d="M541.937,-114.331C556.142,-105.433 577.422,-92.1038 593.784,-81.8554"/>
<polygon fill="midnightblue" stroke="midnightblue" points="595.674,-84.801 602.291,-76.5265 591.958,-78.8687 595.674,-84.801"/>
</g>
<!-- Node6&#45;&gt;Node6 -->
<g id="edge7" class="edge"><title>Node6&#45;&gt;Node6</title>
<path fill="none" stroke="midnightblue" d="M604.32,-474.757C597.422,-483.565 602.148,-493 618.5,-493 628.72,-493 634.398,-489.315 635.536,-484.4"/>
<polygon fill="midnightblue" stroke="midnightblue" points="638.876,-483.351 632.68,-474.757 632.164,-485.339 638.876,-483.351"/>
</g>
<!-- Node7 -->
<g id="node7" class="node"><title>Node7</title>
<g id="a_node7"><a xlink:href="ldo_8c.html#a2a5656cf723dffe2e9b5314260bd8896" target="_top" xlink:title=" ">
<polygon fill="white" stroke="black" points="1056.5,-569.5 1056.5,-588.5 1143.5,-588.5 1143.5,-569.5 1056.5,-569.5"/>
<text text-anchor="middle" x="1100" y="-576.5" font-family="Helvetica,sans-Serif" font-size="10.00">luaD_seterrorobj</text>
</a>
</g>
</g>
<!-- Node6&#45;&gt;Node7 -->
<g id="edge6" class="edge"><title>Node6&#45;&gt;Node7</title>
<path fill="none" stroke="midnightblue" d="M651.139,-462.887C720.312,-459.651 888.449,-459.414 1009,-522 1029.65,-532.72 1025.48,-547.341 1045,-560 1048.1,-562.011 1051.44,-563.839 1054.88,-565.494"/>
<polygon fill="midnightblue" stroke="midnightblue" points="1053.58,-568.743 1064.15,-569.48 1056.35,-562.313 1053.58,-568.743"/>
</g>
<!-- Node8 -->
<g id="node8" class="node"><title>Node8</title>
<g id="a_node8"><a xlink:href="lfunc_8c.html#ae9fcbf80b5969afd9412b9aed102f94e" target="_top" xlink:title=" ">
<polygon fill="white" stroke="black" points="687,-550.5 687,-569.5 751,-569.5 751,-550.5 687,-550.5"/>
<text text-anchor="middle" x="719" y="-557.5" font-family="Helvetica,sans-Serif" font-size="10.00">luaF_close</text>
</a>
</g>
</g>
<!-- Node6&#45;&gt;Node8 -->
<g id="edge8" class="edge"><title>Node6&#45;&gt;Node8</title>
<path fill="none" stroke="midnightblue" d="M629.67,-474.809C646.42,-490.963 680.001,-523.351 700.589,-543.208"/>
<polygon fill="midnightblue" stroke="midnightblue" points="698.404,-545.963 708.032,-550.386 703.264,-540.925 698.404,-545.963"/>
</g>
<!-- Node9 -->
<g id="node9" class="node"><title>Node9</title>
<g id="a_node9"><a xlink:href="lfunc_8c.html#a4105c820bb9b1b4b4b3bd6613b0ccb05" target="_top" xlink:title=" ">
<polygon fill="white" stroke="black" points="795.5,-569.5 795.5,-588.5 866.5,-588.5 866.5,-569.5 795.5,-569.5"/>
<text text-anchor="middle" x="831" y="-576.5" font-family="Helvetica,sans-Serif" font-size="10.00">callclosemth</text>
</a>
</g>
</g>
<!-- Node8&#45;&gt;Node9 -->
<g id="edge9" class="edge"><title>Node8&#45;&gt;Node9</title>
<path fill="none" stroke="midnightblue" d="M751.227,-565.394C761.732,-567.208 773.668,-569.27 785.016,-571.23"/>
<polygon fill="midnightblue" stroke="midnightblue" points="784.764,-574.738 795.214,-572.992 785.956,-567.84 784.764,-574.738"/>
</g>
<!-- Node94 -->
<g id="node47" class="node"><title>Node94</title>
<g id="a_node47"><a xlink:href="lfunc_8c.html#a3b5a5ae122e85af5c941e9b4ffff53bd" target="_top" xlink:title=" ">
<polygon fill="white" stroke="black" points="787,-531.5 787,-550.5 875,-550.5 875,-531.5 787,-531.5"/>
<text text-anchor="middle" x="831" y="-538.5" font-family="Helvetica,sans-Serif" font-size="10.00">luaF_unlinkupval</text>
</a>
</g>
</g>
<!-- Node8&#45;&gt;Node94 -->
<g id="edge62" class="edge"><title>Node8&#45;&gt;Node94</title>
<path fill="none" stroke="midnightblue" d="M751.227,-554.606C759.257,-553.219 768.124,-551.688 776.926,-550.167"/>
<polygon fill="midnightblue" stroke="midnightblue" points="777.528,-553.615 786.787,-548.464 776.337,-546.717 777.528,-553.615"/>
</g>
<!-- Node9&#45;&gt;Node7 -->
<g id="edge21" class="edge"><title>Node9&#45;&gt;Node7</title>
<path fill="none" stroke="midnightblue" d="M866.632,-579C912.269,-579 992.976,-579 1046.23,-579"/>
<polygon fill="midnightblue" stroke="midnightblue" points="1046.5,-582.5 1056.5,-579 1046.5,-575.5 1046.5,-582.5"/>
</g>
<!-- Node10 -->
<g id="node10" class="node"><title>Node10</title>
<g id="a_node10"><a xlink:href="lfunc_8c.html#ad6f77f3a49d8b6199525c7edac6fd0a6" target="_top" xlink:title=" ">
<polygon fill="white" stroke="black" points="932.5,-455.5 932.5,-474.5 987.5,-474.5 987.5,-455.5 932.5,-455.5"/>
<text text-anchor="middle" x="960" y="-462.5" font-family="Helvetica,sans-Serif" font-size="10.00">callclose</text>
</a>
</g>
</g>
<!-- Node9&#45;&gt;Node10 -->
<g id="edge10" class="edge"><title>Node9&#45;&gt;Node10</title>
<path fill="none" stroke="midnightblue" d="M858.455,-569.46C864.169,-566.823 869.993,-563.661 875,-560 883.103,-554.075 922.295,-508.374 944.166,-482.58"/>
<polygon fill="midnightblue" stroke="midnightblue" points="947.062,-484.576 950.849,-474.682 941.718,-480.055 947.062,-484.576"/>
</g>
<!-- Node79 -->
<g id="node13" class="node"><title>Node79</title>
<g id="a_node13"><a xlink:href="ldo_8c.html#a1ad7f845cc62b110e3fcc0ae187d7c85" target="_top" xlink:title=" ">
<polygon fill="white" stroke="black" points="929,-645.5 929,-664.5 991,-664.5 991,-645.5 929,-645.5"/>
<text text-anchor="middle" x="960" y="-652.5" font-family="Helvetica,sans-Serif" font-size="10.00">luaD_pcall</text>
</a>
</g>
</g>
<!-- Node9&#45;&gt;Node79 -->
<g id="edge13" class="edge"><title>Node9&#45;&gt;Node79</title>
<path fill="none" stroke="midnightblue" d="M843.435,-588.658C858.281,-600.857 885.337,-621.948 911,-636 914.525,-637.93 918.288,-639.767 922.098,-641.485"/>
<polygon fill="midnightblue" stroke="midnightblue" points="920.98,-644.812 931.553,-645.491 923.711,-638.367 920.98,-644.812"/>
</g>
<!-- Node81 -->
<g id="node19" class="node"><title>Node81</title>
<g id="a_node19"><a xlink:href="lstate_8c.html#a242ebb018d637c41f24b84a2bbc78f34" target="_top" xlink:title=" ">
<polygon fill="white" stroke="black" points="919.5,-607.5 919.5,-626.5 1000.5,-626.5 1000.5,-607.5 919.5,-607.5"/>
<text text-anchor="middle" x="960" y="-614.5" font-family="Helvetica,sans-Serif" font-size="10.00">luaE_warnerror</text>
</a>
</g>
</g>
<!-- Node9&#45;&gt;Node81 -->
<g id="edge22" class="edge"><title>Node9&#45;&gt;Node81</title>
<path fill="none" stroke="midnightblue" d="M864.047,-588.589C880.141,-593.404 899.841,-599.299 917.117,-604.468"/>
<polygon fill="midnightblue" stroke="midnightblue" points="916.379,-607.901 926.963,-607.414 918.386,-601.194 916.379,-607.901"/>
</g>
<!-- Node416 -->
<g id="node21" class="node"><title>Node416</title>
<g id="a_node21"><a xlink:href="lfunc_8c.html#a523bc674df9f893ade61463c4ba5f09a" target="_top" xlink:title=" ">
<polygon fill="white" stroke="black" points="911,-531.5 911,-550.5 1009,-550.5 1009,-531.5 911,-531.5"/>
<text text-anchor="middle" x="960" y="-538.5" font-family="Helvetica,sans-Serif" font-size="10.00">prepclosingmethod</text>
</a>
</g>
</g>
<!-- Node9&#45;&gt;Node416 -->
<g id="edge24" class="edge"><title>Node9&#45;&gt;Node416</title>
<path fill="none" stroke="midnightblue" d="M864.047,-569.411C880.141,-564.596 899.841,-558.701 917.117,-553.532"/>
<polygon fill="midnightblue" stroke="midnightblue" points="918.386,-556.806 926.963,-550.586 916.379,-550.099 918.386,-556.806"/>
</g>
<!-- Node419 -->
<g id="node24" class="node"><title>Node419</title>
<g id="a_node24"><a xlink:href="lfunc_8c.html#a865c4fcb22304c78c59721af224c34b6" target="_top" xlink:title=" ">
<polygon fill="white" stroke="black" points="936,-351.5 936,-370.5 984,-370.5 984,-351.5 936,-351.5"/>
<text text-anchor="middle" x="960" y="-358.5" font-family="Helvetica,sans-Serif" font-size="10.00">varerror</text>
</a>
</g>
</g>
<!-- Node9&#45;&gt;Node419 -->
<g id="edge27" class="edge"><title>Node9&#45;&gt;Node419</title>
<path fill="none" stroke="midnightblue" d="M862.84,-569.298C867.362,-566.828 871.624,-563.77 875,-560 910.445,-520.418 889.822,-494.73 911,-446 921.39,-422.093 936.623,-396.229 947.128,-379.391"/>
<polygon fill="midnightblue" stroke="midnightblue" points="950.3,-380.923 952.695,-370.602 944.387,-377.177 950.3,-380.923"/>
</g>
<!-- Node11 -->
<g id="node11" class="node"><title>Node11</title>
<g id="a_node11"><a xlink:href="ldo_8c.html#a61c0a0185ef5ae1493dad10027f4db7e" target="_top" xlink:title=" ">
<polygon fill="white" stroke="black" points="1326,-455.5 1326,-474.5 1413,-474.5 1413,-455.5 1326,-455.5"/>
<text text-anchor="middle" x="1369.5" y="-462.5" font-family="Helvetica,sans-Serif" font-size="10.00">luaD_callnoyield</text>
</a>
</g>
</g>
<!-- Node10&#45;&gt;Node11 -->
<g id="edge11" class="edge"><title>Node10&#45;&gt;Node11</title>
<path fill="none" stroke="midnightblue" d="M987.737,-465C1054.16,-465 1227.66,-465 1315.67,-465"/>
<polygon fill="midnightblue" stroke="midnightblue" points="1315.71,-468.5 1325.71,-465 1315.71,-461.5 1315.71,-468.5"/>
</g>
<!-- Node12 -->
<g id="node12" class="node"><title>Node12</title>
<g id="a_node12"><a xlink:href="ldo_8c.html#aa7d32ccef16c2d4fe63604c4c457831d" target="_top" xlink:title=" ">
<polygon fill="white" stroke="red" points="1478,-455.5 1478,-474.5 1515,-474.5 1515,-455.5 1478,-455.5"/>
<text text-anchor="middle" x="1496.5" y="-462.5" font-family="Helvetica,sans-Serif" font-size="10.00">ccall</text>
</a>
</g>
</g>
<!-- Node11&#45;&gt;Node12 -->
<g id="edge12" class="edge"><title>Node11&#45;&gt;Node12</title>
<path fill="none" stroke="midnightblue" d="M1413.17,-465C1431.1,-465 1451.46,-465 1467.44,-465"/>
<polygon fill="midnightblue" stroke="midnightblue" points="1467.73,-468.5 1477.73,-465 1467.73,-461.5 1467.73,-468.5"/>
</g>
<!-- Node79&#45;&gt;Node7 -->
<g id="edge15" class="edge"><title>Node79&#45;&gt;Node7</title>
<path fill="none" stroke="midnightblue" d="M990.956,-645.479C997.178,-642.871 1003.51,-639.716 1009,-636 1028.27,-622.967 1025.48,-610.659 1045,-598 1048.1,-595.989 1051.44,-594.161 1054.88,-592.506"/>
<polygon fill="midnightblue" stroke="midnightblue" points="1056.35,-595.687 1064.15,-588.52 1053.58,-589.257 1056.35,-595.687"/>
</g>
<!-- Node79&#45;&gt;Node8 -->
<g id="edge20" class="edge"><title>Node79&#45;&gt;Node8</title>
<path fill="none" stroke="midnightblue" d="M928.811,-646.942C893.93,-637.19 835.156,-619.388 787,-598 772.197,-591.425 756.403,-582.565 743.869,-575.054"/>
<polygon fill="midnightblue" stroke="midnightblue" points="745.35,-571.858 734.991,-569.634 741.702,-577.832 745.35,-571.858"/>
</g>
<!-- Node80 -->
<g id="node14" class="node"><title>Node80</title>
<g id="a_node14"><a xlink:href="ldo_8c.html#ab0872b1738a995ecbf1cdc8a9bc0fdf6" target="_top" xlink:title=" ">
<polygon fill="white" stroke="black" points="1045,-645.5 1045,-664.5 1155,-664.5 1155,-645.5 1045,-645.5"/>
<text text-anchor="middle" x="1100" y="-652.5" font-family="Helvetica,sans-Serif" font-size="10.00">luaD_rawrunprotected</text>
</a>
</g>
</g>
<!-- Node79&#45;&gt;Node80 -->
<g id="edge14" class="edge"><title>Node79&#45;&gt;Node80</title>
<path fill="none" stroke="midnightblue" d="M991.285,-655C1004.05,-655 1019.43,-655 1034.51,-655"/>
<polygon fill="midnightblue" stroke="midnightblue" points="1034.88,-658.5 1044.88,-655 1034.88,-651.5 1034.88,-658.5"/>
</g>
<!-- Node61 -->
<g id="node15" class="node"><title>Node61</title>
<g id="a_node15"><a xlink:href="ldo_8c.html#a219aa86777779dccae2c1bf9008db70a" target="_top" xlink:title=" ">
<polygon fill="white" stroke="black" points="1054,-683.5 1054,-702.5 1146,-702.5 1146,-683.5 1054,-683.5"/>
<text text-anchor="middle" x="1100" y="-690.5" font-family="Helvetica,sans-Serif" font-size="10.00">luaD_shrinkstack</text>
</a>
</g>
</g>
<!-- Node79&#45;&gt;Node61 -->
<g id="edge16" class="edge"><title>Node79&#45;&gt;Node61</title>
<path fill="none" stroke="midnightblue" d="M991.285,-663.339C1009.83,-668.446 1033.89,-675.072 1054.57,-680.766"/>
<polygon fill="midnightblue" stroke="midnightblue" points="1053.84,-684.195 1064.41,-683.475 1055.7,-677.446 1053.84,-684.195"/>
</g>
<!-- Node62 -->
<g id="node16" class="node"><title>Node62</title>
<g id="a_node16"><a xlink:href="ldo_8c.html#a75b8b0016e9182d4fd9f71c1a7238e8a" target="_top" xlink:title=" ">
<polygon fill="white" stroke="red" points="1193,-683.5 1193,-702.5 1287,-702.5 1287,-683.5 1193,-683.5"/>
<text text-anchor="middle" x="1240" y="-690.5" font-family="Helvetica,sans-Serif" font-size="10.00">luaD_reallocstack</text>
</a>
</g>
</g>
<!-- Node61&#45;&gt;Node62 -->
<g id="edge17" class="edge"><title>Node61&#45;&gt;Node62</title>
<path fill="none" stroke="midnightblue" d="M1146.19,-693C1157.85,-693 1170.56,-693 1182.72,-693"/>
<polygon fill="midnightblue" stroke="midnightblue" points="1182.77,-696.5 1192.77,-693 1182.77,-689.5 1182.77,-696.5"/>
</g>
<!-- Node64 -->
<g id="node17" class="node"><title>Node64</title>
<g id="a_node17"><a xlink:href="lstate_8c.html#a59bcd5586c176d9e24bcdf9e4d07adbe" target="_top" xlink:title=" ">
<polygon fill="white" stroke="black" points="1201.5,-645.5 1201.5,-664.5 1278.5,-664.5 1278.5,-645.5 1201.5,-645.5"/>
<text text-anchor="middle" x="1240" y="-652.5" font-family="Helvetica,sans-Serif" font-size="10.00">luaE_shrinkCI</text>
</a>
</g>
</g>
<!-- Node61&#45;&gt;Node64 -->
<g id="edge18" class="edge"><title>Node61&#45;&gt;Node64</title>
<path fill="none" stroke="midnightblue" d="M1135.82,-683.411C1153.64,-678.506 1175.52,-672.48 1194.54,-667.243"/>
<polygon fill="midnightblue" stroke="midnightblue" points="1195.48,-670.615 1204.19,-664.586 1193.62,-663.866 1195.48,-670.615"/>
</g>
<!-- Node65 -->
<g id="node18" class="node"><title>Node65</title>
<g id="a_node18"><a xlink:href="ldo_8c.html#ac2956ef8f7aba184c6591001f2017a54" target="_top" xlink:title=" ">
<polygon fill="white" stroke="black" points="1208,-721.5 1208,-740.5 1272,-740.5 1272,-721.5 1208,-721.5"/>
<text text-anchor="middle" x="1240" y="-728.5" font-family="Helvetica,sans-Serif" font-size="10.00">stackinuse</text>
</a>
</g>
</g>
<!-- Node61&#45;&gt;Node65 -->
<g id="edge19" class="edge"><title>Node61&#45;&gt;Node65</title>
<path fill="none" stroke="midnightblue" d="M1135.82,-702.589C1154.81,-707.818 1178.42,-714.319 1198.26,-719.782"/>
<polygon fill="midnightblue" stroke="midnightblue" points="1197.38,-723.171 1207.95,-722.451 1199.24,-716.422 1197.38,-723.171"/>
</g>
<!-- Node82 -->
<g id="node20" class="node"><title>Node82</title>
<g id="a_node20"><a xlink:href="lstate_8c.html#a7055cc5e36512e37c811a7d5c6fa0be6" target="_top" xlink:title=" ">
<polygon fill="white" stroke="black" points="1063,-607.5 1063,-626.5 1137,-626.5 1137,-607.5 1063,-607.5"/>
<text text-anchor="middle" x="1100" y="-614.5" font-family="Helvetica,sans-Serif" font-size="10.00">luaE_warning</text>
</a>
</g>
</g>
<!-- Node81&#45;&gt;Node82 -->
<g id="edge23" class="edge"><title>Node81&#45;&gt;Node82</title>
<path fill="none" stroke="midnightblue" d="M1000.55,-617C1016.77,-617 1035.67,-617 1052.55,-617"/>
<polygon fill="midnightblue" stroke="midnightblue" points="1052.75,-620.5 1062.75,-617 1052.75,-613.5 1052.75,-620.5"/>
</g>
<!-- Node83 -->
<g id="node22" class="node"><title>Node83</title>
<g id="a_node22"><a xlink:href="ltm_8c.html#a0a3a3df9d6e7f17d806f74d411e59b2d" target="_top" xlink:title=" ">
<polygon fill="white" stroke="black" points="1056,-531.5 1056,-550.5 1144,-550.5 1144,-531.5 1056,-531.5"/>
<text text-anchor="middle" x="1100" y="-538.5" font-family="Helvetica,sans-Serif" font-size="10.00">luaT_gettmbyobj</text>
</a>
</g>
</g>
<!-- Node416&#45;&gt;Node83 -->
<g id="edge25" class="edge"><title>Node416&#45;&gt;Node83</title>
<path fill="none" stroke="midnightblue" d="M1009.27,-541C1020.93,-541 1033.46,-541 1045.35,-541"/>
<polygon fill="midnightblue" stroke="midnightblue" points="1045.6,-544.5 1055.6,-541 1045.6,-537.5 1045.6,-544.5"/>
</g>
<!-- Node84 -->
<g id="node23" class="node"><title>Node84</title>
<g id="a_node23"><a xlink:href="ltable_8c.html#ae8a52507e1c8966d9cf3f2dd5a0c325f" target="_top" xlink:title=" ">
<polygon fill="white" stroke="black" points="1196,-531.5 1196,-550.5 1284,-550.5 1284,-531.5 1196,-531.5"/>
<text text-anchor="middle" x="1240" y="-538.5" font-family="Helvetica,sans-Serif" font-size="10.00">luaH_getshortstr</text>
</a>
</g>
</g>
<!-- Node83&#45;&gt;Node84 -->
<g id="edge26" class="edge"><title>Node83&#45;&gt;Node84</title>
<path fill="none" stroke="midnightblue" d="M1144.29,-541C1157.39,-541 1171.93,-541 1185.61,-541"/>
<polygon fill="midnightblue" stroke="midnightblue" points="1185.87,-544.5 1195.87,-541 1185.87,-537.5 1185.87,-544.5"/>
</g>
<!-- Node420 -->
<g id="node25" class="node"><title>Node420</title>
<g id="a_node25"><a xlink:href="ldebug_8c.html#acf87581237e7d0072502ffc5092e8329" target="_top" xlink:title=" ">
<polygon fill="white" stroke="black" points="1061.5,-247.5 1061.5,-266.5 1138.5,-266.5 1138.5,-247.5 1061.5,-247.5"/>
<text text-anchor="middle" x="1100" y="-254.5" font-family="Helvetica,sans-Serif" font-size="10.00">luaG_findlocal</text>
</a>
</g>
</g>
<!-- Node419&#45;&gt;Node420 -->
<g id="edge28" class="edge"><title>Node419&#45;&gt;Node420</title>
<path fill="none" stroke="midnightblue" d="M973.735,-351.402C997.56,-333.447 1049.08,-294.623 1078.07,-272.77"/>
<polygon fill="midnightblue" stroke="midnightblue" points="1080.42,-275.388 1086.3,-266.574 1076.2,-269.798 1080.42,-275.388"/>
</g>
<!-- Node20 -->
<g id="node29" class="node"><title>Node20</title>
<g id="a_node29"><a xlink:href="ldebug_8c.html#a88d38ca5da2e7a1492fc9d5ad70c32c5" target="_top" xlink:title=" ">
<polygon fill="white" stroke="black" points="1062.5,-351.5 1062.5,-370.5 1137.5,-370.5 1137.5,-351.5 1062.5,-351.5"/>
<text text-anchor="middle" x="1100" y="-358.5" font-family="Helvetica,sans-Serif" font-size="10.00">luaG_runerror</text>
</a>
</g>
</g>
<!-- Node419&#45;&gt;Node20 -->
<g id="edge32" class="edge"><title>Node419&#45;&gt;Node20</title>
<path fill="none" stroke="midnightblue" d="M984.098,-361C1002.6,-361 1029.15,-361 1052.07,-361"/>
<polygon fill="midnightblue" stroke="midnightblue" points="1052.3,-364.5 1062.3,-361 1052.3,-357.5 1052.3,-364.5"/>
</g>
<!-- Node22 -->
<g id="node26" class="node"><title>Node22</title>
<g id="a_node26"><a xlink:href="ldebug_8c.html#a7db2a3f5cbcf0ac3ef6d4cfa15ab4dbc" target="_top" xlink:title=" ">
<polygon fill="white" stroke="black" points="1341,-247.5 1341,-266.5 1398,-266.5 1398,-247.5 1341,-247.5"/>
<text text-anchor="middle" x="1369.5" y="-254.5" font-family="Helvetica,sans-Serif" font-size="10.00">currentpc</text>
</a>
</g>
</g>
<!-- Node420&#45;&gt;Node22 -->
<g id="edge29" class="edge"><title>Node420&#45;&gt;Node22</title>
<path fill="none" stroke="midnightblue" d="M1138.76,-257C1189.58,-257 1279.49,-257 1330.46,-257"/>
<polygon fill="midnightblue" stroke="midnightblue" points="1330.71,-260.5 1340.71,-257 1330.71,-253.5 1330.71,-260.5"/>
</g>
<!-- Node421 -->
<g id="node27" class="node"><title>Node421</title>
<g id="a_node27"><a xlink:href="ldebug_8c.html#adde29da645f7256cd7b78dafeec64cc1" target="_top" xlink:title=" ">
<polygon fill="white" stroke="black" points="1211.5,-152.5 1211.5,-171.5 1268.5,-171.5 1268.5,-152.5 1211.5,-152.5"/>
<text text-anchor="middle" x="1240" y="-159.5" font-family="Helvetica,sans-Serif" font-size="10.00">findvararg</text>
</a>
</g>
</g>
<!-- Node420&#45;&gt;Node421 -->
<g id="edge30" class="edge"><title>Node420&#45;&gt;Node421</title>
<path fill="none" stroke="midnightblue" d="M1110.19,-247.44C1125.64,-231.799 1158.36,-200.527 1191,-181 1194.45,-178.937 1198.16,-177.013 1201.94,-175.244"/>
<polygon fill="midnightblue" stroke="midnightblue" points="1203.57,-178.353 1211.36,-171.172 1200.79,-171.928 1203.57,-178.353"/>
</g>
<!-- Node138 -->
<g id="node28" class="node"><title>Node138</title>
<g id="a_node28"><a xlink:href="lfunc_8c.html#aaa3cd5bc3901e7edf1ac428151cdfe8c" target="_top" xlink:title=" ">
<polygon fill="white" stroke="black" points="1191,-266.5 1191,-285.5 1289,-285.5 1289,-266.5 1191,-266.5"/>
<text text-anchor="middle" x="1240" y="-273.5" font-family="Helvetica,sans-Serif" font-size="10.00">luaF_getlocalname</text>
</a>
</g>
</g>
<!-- Node420&#45;&gt;Node138 -->
<g id="edge31" class="edge"><title>Node420&#45;&gt;Node138</title>
<path fill="none" stroke="midnightblue" d="M1138.71,-262.192C1151.68,-263.978 1166.52,-266.021 1180.74,-267.979"/>
<polygon fill="midnightblue" stroke="midnightblue" points="1180.57,-271.488 1190.95,-269.385 1181.52,-264.553 1180.57,-271.488"/>
</g>
<!-- Node21 -->
<g id="node30" class="node"><title>Node21</title>
<g id="a_node30"><a xlink:href="ldebug_8c.html#ad6bc24d619df8e849e2ae8b00455d86f" target="_top" xlink:title=" ">
<polygon fill="white" stroke="black" points="1202.5,-304.5 1202.5,-323.5 1277.5,-323.5 1277.5,-304.5 1202.5,-304.5"/>
<text text-anchor="middle" x="1240" y="-311.5" font-family="Helvetica,sans-Serif" font-size="10.00">getcurrentline</text>
</a>
</g>
</g>
<!-- Node20&#45;&gt;Node21 -->
<g id="edge33" class="edge"><title>Node20&#45;&gt;Node21</title>
<path fill="none" stroke="midnightblue" d="M1128.93,-351.489C1149.65,-344.432 1178.13,-334.73 1200.94,-326.964"/>
<polygon fill="midnightblue" stroke="midnightblue" points="1202.3,-330.195 1210.64,-323.658 1200.05,-323.569 1202.3,-330.195"/>
</g>
<!-- Node20&#45;&gt;Node25 -->
<g id="edge36" class="edge"><title>Node20&#45;&gt;Node25</title>
<path fill="none" stroke="midnightblue" d="M1109.22,-351.411C1131.79,-325.075 1194.99,-251.346 1224.04,-217.449"/>
<polygon fill="midnightblue" stroke="midnightblue" points="1226.8,-219.613 1230.65,-209.742 1221.48,-215.057 1226.8,-219.613"/>
</g>
<!-- Node28 -->
<g id="node35" class="node"><title>Node28</title>
<g id="a_node35"><a xlink:href="lobject_8c.html#aa83fa444a36d79521e846a766fa083d5" target="_top" xlink:title=" ">
<polygon fill="white" stroke="black" points="1450,-265.5 1450,-284.5 1543,-284.5 1543,-265.5 1450,-265.5"/>
<text text-anchor="middle" x="1496.5" y="-272.5" font-family="Helvetica,sans-Serif" font-size="10.00">luaO_pushvfstring</text>
</a>
</g>
</g>
<!-- Node20&#45;&gt;Node28 -->
<g id="edge61" class="edge"><title>Node20&#45;&gt;Node28</title>
<path fill="none" stroke="midnightblue" d="M1137.54,-358.202C1197.37,-358.017 1319.07,-359.07 1414,-324 1434.56,-316.404 1454.66,-302.198 1469.76,-290.825"/>
<polygon fill="midnightblue" stroke="midnightblue" points="1472.19,-293.37 1478.03,-284.529 1467.95,-287.799 1472.19,-293.37"/>
</g>
<!-- Node128 -->
<g id="node46" class="node"><title>Node128</title>
<g id="a_node46"><a xlink:href="ldebug_8c.html#af7366920f8408bb33ed01b1d6c0e1238" target="_top" xlink:title=" ">
<polygon fill="white" stroke="black" points="1200,-436.5 1200,-455.5 1280,-455.5 1280,-436.5 1200,-436.5"/>
<text text-anchor="middle" x="1240" y="-443.5" font-family="Helvetica,sans-Serif" font-size="10.00">luaG_errormsg</text>
</a>
</g>
</g>
<!-- Node20&#45;&gt;Node128 -->
<g id="edge58" class="edge"><title>Node20&#45;&gt;Node128</title>
<path fill="none" stroke="midnightblue" d="M1114.06,-370.659C1131.26,-383.189 1162.66,-405.406 1191,-422 1196.7,-425.336 1202.92,-428.665 1208.94,-431.734"/>
<polygon fill="midnightblue" stroke="midnightblue" points="1207.62,-434.984 1218.13,-436.308 1210.74,-428.718 1207.62,-434.984"/>
</g>
<!-- Node21&#45;&gt;Node22 -->
<g id="edge34" class="edge"><title>Node21&#45;&gt;Node22</title>
<path fill="none" stroke="midnightblue" d="M1266.05,-304.463C1273.48,-301.532 1281.61,-298.226 1289,-295 1306.14,-287.523 1325.03,-278.523 1340.1,-271.16"/>
<polygon fill="midnightblue" stroke="midnightblue" points="1341.97,-274.143 1349.39,-266.589 1338.88,-267.862 1341.97,-274.143"/>
</g>
<!-- Node23 -->
<g id="node31" class="node"><title>Node23</title>
<g id="a_node31"><a xlink:href="ldebug_8c.html#ae7a6d2f88b11cc05758e44acd433ee2f" target="_top" xlink:title=" ">
<polygon fill="white" stroke="red" points="1325,-304.5 1325,-323.5 1414,-323.5 1414,-304.5 1325,-304.5"/>
<text text-anchor="middle" x="1369.5" y="-311.5" font-family="Helvetica,sans-Serif" font-size="10.00">luaG_getfuncline</text>
</a>
</g>
</g>
<!-- Node21&#45;&gt;Node23 -->
<g id="edge35" class="edge"><title>Node21&#45;&gt;Node23</title>
<path fill="none" stroke="midnightblue" d="M1277.54,-314C1289.03,-314 1301.99,-314 1314.43,-314"/>
<polygon fill="midnightblue" stroke="midnightblue" points="1314.73,-317.5 1324.73,-314 1314.73,-310.5 1314.73,-317.5"/>
</g>
<!-- Node26 -->
<g id="node33" class="node"><title>Node26</title>
<g id="a_node33"><a xlink:href="lobject_8c.html#ac331b4119bbeb45a8a7e5a1afe553b2e" target="_top" xlink:title=" ">
<polygon fill="white" stroke="black" points="1331.5,-190.5 1331.5,-209.5 1407.5,-209.5 1407.5,-190.5 1331.5,-190.5"/>
<text text-anchor="middle" x="1369.5" y="-197.5" font-family="Helvetica,sans-Serif" font-size="10.00">luaO_chunkid</text>
</a>
</g>
</g>
<!-- Node25&#45;&gt;Node26 -->
<g id="edge37" class="edge"><title>Node25&#45;&gt;Node26</title>
<path fill="none" stroke="midnightblue" d="M1276.52,-200C1290.41,-200 1306.54,-200 1321.37,-200"/>
<polygon fill="midnightblue" stroke="midnightblue" points="1321.4,-203.5 1331.4,-200 1321.4,-196.5 1321.4,-203.5"/>
</g>
<!-- Node25&#45;&gt;Node27 -->
<g id="edge38" class="edge"><title>Node25&#45;&gt;Node27</title>
<path fill="none" stroke="midnightblue" d="M1268.44,-190.478C1275.31,-187.734 1282.55,-184.52 1289,-181 1310.76,-169.127 1333.55,-152.262 1349.13,-139.958"/>
<polygon fill="midnightblue" stroke="midnightblue" points="1351.37,-142.641 1356.98,-133.652 1346.99,-137.182 1351.37,-142.641"/>
</g>
<!-- Node27&#45;&gt;Node28 -->
<g id="edge39" class="edge"><title>Node27&#45;&gt;Node28</title>
<path fill="none" stroke="midnightblue" d="M1378.7,-133.908C1399.45,-158.977 1454.28,-225.202 1480.76,-257.198"/>
<polygon fill="midnightblue" stroke="midnightblue" points="1478.36,-259.781 1487.43,-265.252 1483.75,-255.317 1478.36,-259.781"/>
</g>
<!-- Node28&#45;&gt;Node20 -->
<g id="edge56" class="edge"><title>Node28&#45;&gt;Node20</title>
<path fill="none" stroke="midnightblue" d="M1490.54,-284.609C1478.63,-300.76 1446.91,-329.844 1414,-342 1324.07,-375.22 1210.13,-376.028 1147.51,-370.357"/>
<polygon fill="midnightblue" stroke="midnightblue" points="1147.84,-366.873 1137.54,-369.354 1147.14,-373.837 1147.84,-366.873"/>
</g>
<!-- Node29 -->
<g id="node36" class="node"><title>Node29</title>
<g id="a_node36"><a xlink:href="lobject_8c.html#a1d02fb9304e4700ce1fd20e34ae68784" target="_top" xlink:title=" ">
<polygon fill="white" stroke="black" points="1580.5,-246.5 1580.5,-265.5 1651.5,-265.5 1651.5,-246.5 1580.5,-246.5"/>
<text text-anchor="middle" x="1616" y="-253.5" font-family="Helvetica,sans-Serif" font-size="10.00">addnum2buff</text>
</a>
</g>
</g>
<!-- Node28&#45;&gt;Node29 -->
<g id="edge40" class="edge"><title>Node28&#45;&gt;Node29</title>
<path fill="none" stroke="midnightblue" d="M1543.27,-267.6C1552.16,-266.162 1561.47,-264.656 1570.32,-263.224"/>
<polygon fill="midnightblue" stroke="midnightblue" points="1571.15,-266.637 1580.46,-261.585 1570.03,-259.726 1571.15,-266.637"/>
</g>
<!-- Node30 -->
<g id="node37" class="node"><title>Node30</title>
<g id="a_node37"><a xlink:href="lobject_8c.html#ac4ab924f2ea45ef73319f1159033eab1" target="_top" xlink:title=" ">
<polygon fill="white" stroke="black" points="1698.5,-284.5 1698.5,-303.5 1743.5,-303.5 1743.5,-284.5 1698.5,-284.5"/>
<text text-anchor="middle" x="1721" y="-291.5" font-family="Helvetica,sans-Serif" font-size="10.00">getbuff</text>
</a>
</g>
</g>
<!-- Node28&#45;&gt;Node30 -->
<g id="edge55" class="edge"><title>Node28&#45;&gt;Node30</title>
<path fill="none" stroke="midnightblue" d="M1543.06,-278.891C1586.41,-282.592 1650.49,-288.064 1688.46,-291.307"/>
<polygon fill="midnightblue" stroke="midnightblue" points="1688.18,-294.796 1698.44,-292.159 1688.78,-287.821 1688.18,-294.796"/>
</g>
<!-- Node31 -->
<g id="node38" class="node"><title>Node31</title>
<g id="a_node38"><a xlink:href="lobject_8c.html#a6ec2716e64cd75e3e6614a87ee92e4d2" target="_top" xlink:title=" ">
<polygon fill="white" stroke="black" points="1789,-303.5 1789,-322.5 1842,-322.5 1842,-303.5 1789,-303.5"/>
<text text-anchor="middle" x="1815.5" y="-310.5" font-family="Helvetica,sans-Serif" font-size="10.00">clearbuff</text>
</a>
</g>
</g>
<!-- Node28&#45;&gt;Node31 -->
<g id="edge54" class="edge"><title>Node28&#45;&gt;Node31</title>
<path fill="none" stroke="midnightblue" d="M1512.7,-265.432C1528.55,-256.067 1554.46,-242.44 1579,-237 1654.5,-220.264 1683.21,-203.695 1753,-237 1777.8,-248.835 1795.83,-276.098 1805.73,-294.541"/>
<polygon fill="midnightblue" stroke="midnightblue" points="1802.63,-296.158 1810.28,-303.49 1808.87,-292.989 1802.63,-296.158"/>
</g>
<!-- Node126 -->
<g id="node44" class="node"><title>Node126</title>
<g id="a_node44"><a xlink:href="lobject_8c.html#a874ab64f433ee35f2197a81e10452cb1" target="_top" xlink:title=" ">
<polygon fill="white" stroke="black" points="1584,-322.5 1584,-341.5 1648,-341.5 1648,-322.5 1584,-322.5"/>
<text text-anchor="middle" x="1616" y="-329.5" font-family="Helvetica,sans-Serif" font-size="10.00">addstr2buff</text>
</a>
</g>
</g>
<!-- Node28&#45;&gt;Node126 -->
<g id="edge50" class="edge"><title>Node28&#45;&gt;Node126</title>
<path fill="none" stroke="midnightblue" d="M1517.17,-284.541C1535.98,-293.665 1564.57,-307.534 1585.99,-317.927"/>
<polygon fill="midnightblue" stroke="midnightblue" points="1584.74,-321.213 1595.27,-322.428 1587.8,-314.915 1584.74,-321.213"/>
</g>
<!-- Node127 -->
<g id="node45" class="node"><title>Node127</title>
<g id="a_node45"><a xlink:href="lobject_8c.html#af3136de4693789b08f78aafda9604676" target="_top" xlink:title=" ">
<polygon fill="white" stroke="black" points="1579,-170.5 1579,-189.5 1653,-189.5 1653,-170.5 1579,-170.5"/>
<text text-anchor="middle" x="1616" y="-177.5" font-family="Helvetica,sans-Serif" font-size="10.00">luaO_utf8esc</text>
</a>
</g>
</g>
<!-- Node28&#45;&gt;Node127 -->
<g id="edge57" class="edge"><title>Node28&#45;&gt;Node127</title>
<path fill="none" stroke="midnightblue" d="M1507.69,-265.364C1522.77,-251.276 1552.16,-224.504 1579,-204 1582.8,-201.1 1586.93,-198.16 1590.99,-195.379"/>
<polygon fill="midnightblue" stroke="midnightblue" points="1593.25,-198.078 1599.64,-189.62 1589.37,-192.253 1593.25,-198.078"/>
</g>
<!-- Node29&#45;&gt;Node30 -->
<g id="edge41" class="edge"><title>Node29&#45;&gt;Node30</title>
<path fill="none" stroke="midnightblue" d="M1642.99,-265.589C1656.84,-270.698 1673.98,-277.022 1688.57,-282.405"/>
<polygon fill="midnightblue" stroke="midnightblue" points="1687.6,-285.778 1698.2,-285.956 1690.03,-279.211 1687.6,-285.778"/>
</g>
<!-- Node125 -->
<g id="node43" class="node"><title>Node125</title>
<g id="a_node43"><a xlink:href="lobject_8c.html#a8a7886b6335aca97db23dfe3e220c728" target="_top" xlink:title=" ">
<polygon fill="white" stroke="black" points="1689,-246.5 1689,-265.5 1753,-265.5 1753,-246.5 1689,-246.5"/>
<text text-anchor="middle" x="1721" y="-253.5" font-family="Helvetica,sans-Serif" font-size="10.00">tostringbuff</text>
</a>
</g>
</g>
<!-- Node29&#45;&gt;Node125 -->
<g id="edge49" class="edge"><title>Node29&#45;&gt;Node125</title>
<path fill="none" stroke="midnightblue" d="M1651.58,-256C1660.24,-256 1669.61,-256 1678.56,-256"/>
<polygon fill="midnightblue" stroke="midnightblue" points="1678.8,-259.5 1688.8,-256 1678.8,-252.5 1678.8,-259.5"/>
</g>
<!-- Node30&#45;&gt;Node31 -->
<g id="edge42" class="edge"><title>Node30&#45;&gt;Node31</title>
<path fill="none" stroke="midnightblue" d="M1743.92,-298.503C1754.33,-300.642 1767.05,-303.253 1778.8,-305.667"/>
<polygon fill="midnightblue" stroke="midnightblue" points="1778.3,-309.137 1788.8,-307.721 1779.71,-302.28 1778.3,-309.137"/>
</g>
<!-- Node32 -->
<g id="node39" class="node"><title>Node32</title>
<g id="a_node39"><a xlink:href="lobject_8c.html#a90720e7e38c0e352e9b97d3f8def9e1a" target="_top" xlink:title=" ">
<polygon fill="white" stroke="black" points="1878,-360.5 1878,-379.5 1927,-379.5 1927,-360.5 1878,-360.5"/>
<text text-anchor="middle" x="1902.5" y="-367.5" font-family="Helvetica,sans-Serif" font-size="10.00">pushstr</text>
</a>
</g>
</g>
<!-- Node31&#45;&gt;Node32 -->
<g id="edge43" class="edge"><title>Node31&#45;&gt;Node32</title>
<path fill="none" stroke="midnightblue" d="M1830.92,-322.669C1844.06,-331.484 1863.7,-344.65 1878.92,-354.859"/>
<polygon fill="midnightblue" stroke="midnightblue" points="1877.04,-357.811 1887.29,-360.474 1880.94,-351.997 1877.04,-357.811"/>
</g>
<!-- Node33 -->
<g id="node40" class="node"><title>Node33</title>
<g id="a_node40"><a xlink:href="lstring_8c.html#ab41fb084ce3ea5e2779f6659ccc2484d" target="_top" xlink:title=" ">
<polygon fill="white" stroke="red" points="2070,-379.5 2070,-398.5 2142,-398.5 2142,-379.5 2070,-379.5"/>
<text text-anchor="middle" x="2106" y="-386.5" font-family="Helvetica,sans-Serif" font-size="10.00">luaS_newlstr</text>
</a>
</g>
</g>
<!-- Node32&#45;&gt;Node33 -->
<g id="edge44" class="edge"><title>Node32&#45;&gt;Node33</title>
<path fill="none" stroke="midnightblue" d="M1927.01,-372.217C1959.45,-375.276 2018.6,-380.853 2059.77,-384.735"/>
<polygon fill="midnightblue" stroke="midnightblue" points="2059.54,-388.229 2069.82,-385.683 2060.2,-381.26 2059.54,-388.229"/>
</g>
<!-- Node118 -->
<g id="node42" class="node"><title>Node118</title>
<g id="a_node42"><a xlink:href="lvm_8c.html#a2f076040af405dcb50d661edd692eca7" target="_top" xlink:title=" ">
<polygon fill="white" stroke="red" points="1963,-398.5 1963,-417.5 2034,-417.5 2034,-398.5 1963,-398.5"/>
<text text-anchor="middle" x="1998.5" y="-405.5" font-family="Helvetica,sans-Serif" font-size="10.00">luaV_concat</text>
</a>
</g>
</g>
<!-- Node32&#45;&gt;Node118 -->
<g id="edge46" class="edge"><title>Node32&#45;&gt;Node118</title>
<path fill="none" stroke="midnightblue" d="M1927.22,-379.589C1938.46,-384.134 1952.09,-389.641 1964.33,-394.592"/>
<polygon fill="midnightblue" stroke="midnightblue" points="1963.2,-397.911 1973.79,-398.414 1965.83,-391.421 1963.2,-397.911"/>
</g>
<!-- Node34 -->
<g id="node41" class="node"><title>Node34</title>
<g id="a_node41"><a xlink:href="lstring_8c.html#a9b2c32c59a280de24f20df1c7f0433a1" target="_top" xlink:title=" ">
<polygon fill="white" stroke="red" points="2178,-379.5 2178,-398.5 2243,-398.5 2243,-379.5 2178,-379.5"/>
<text text-anchor="middle" x="2210.5" y="-386.5" font-family="Helvetica,sans-Serif" font-size="10.00">internshrstr</text>
</a>
</g>
</g>
<!-- Node33&#45;&gt;Node34 -->
<g id="edge45" class="edge"><title>Node33&#45;&gt;Node34</title>
<path fill="none" stroke="midnightblue" d="M2142.27,-389C2150.51,-389 2159.35,-389 2167.84,-389"/>
<polygon fill="midnightblue" stroke="midnightblue" points="2167.94,-392.5 2177.94,-389 2167.94,-385.5 2167.94,-392.5"/>
</g>
<!-- Node118&#45;&gt;Node20 -->
<g id="edge47" class="edge"><title>Node118&#45;&gt;Node20</title>
<path fill="none" stroke="midnightblue" d="M1962.8,-408C1926.37,-408 1867.41,-408 1816.5,-408 1368.5,-408 1368.5,-408 1368.5,-408 1288.95,-408 1269.04,-400.393 1191,-385 1175.14,-381.873 1157.95,-377.53 1142.88,-373.397"/>
<polygon fill="midnightblue" stroke="midnightblue" points="1143.41,-369.909 1132.83,-370.586 1141.52,-376.65 1143.41,-369.909"/>
</g>
<!-- Node118&#45;&gt;Node33 -->
<g id="edge48" class="edge"><title>Node118&#45;&gt;Node33</title>
<path fill="none" stroke="midnightblue" d="M2034.04,-401.779C2042.25,-400.301 2051.13,-398.702 2059.73,-397.152"/>
<polygon fill="midnightblue" stroke="midnightblue" points="2060.43,-400.583 2069.65,-395.366 2059.19,-393.693 2060.43,-400.583"/>
</g>
<!-- Node126&#45;&gt;Node30 -->
<g id="edge52" class="edge"><title>Node126&#45;&gt;Node30</title>
<path fill="none" stroke="midnightblue" d="M1642.99,-322.411C1656.84,-317.302 1673.98,-310.978 1688.57,-305.595"/>
<polygon fill="midnightblue" stroke="midnightblue" points="1690.03,-308.789 1698.2,-302.044 1687.6,-302.222 1690.03,-308.789"/>
</g>
<!-- Node126&#45;&gt;Node31 -->
<g id="edge51" class="edge"><title>Node126&#45;&gt;Node31</title>
<path fill="none" stroke="midnightblue" d="M1648.29,-328.989C1683.64,-325.589 1741.06,-320.065 1778.3,-316.482"/>
<polygon fill="midnightblue" stroke="midnightblue" points="1779.08,-319.923 1788.7,-315.482 1778.41,-312.956 1779.08,-319.923"/>
</g>
<!-- Node126&#45;&gt;Node32 -->
<g id="edge53" class="edge"><title>Node126&#45;&gt;Node32</title>
<path fill="none" stroke="midnightblue" d="M1648.26,-336.175C1702.23,-343.384 1812.43,-358.103 1867.95,-365.519"/>
<polygon fill="midnightblue" stroke="midnightblue" points="1867.6,-369.003 1877.97,-366.857 1868.52,-362.064 1867.6,-369.003"/>
</g>
<!-- Node128&#45;&gt;Node6 -->
<g id="edge60" class="edge"><title>Node128&#45;&gt;Node6</title>
<path fill="none" stroke="midnightblue" d="M1199.92,-441.641C1146.18,-436.032 1046.38,-427 961,-427 830,-427 830,-427 830,-427 770.649,-427 703.36,-441.811 661.177,-452.939"/>
<polygon fill="midnightblue" stroke="midnightblue" points="660.02,-449.627 651.274,-455.607 661.84,-456.386 660.02,-449.627"/>
</g>
<!-- Node128&#45;&gt;Node11 -->
<g id="edge59" class="edge"><title>Node128&#45;&gt;Node11</title>
<path fill="none" stroke="midnightblue" d="M1280.29,-451.856C1291.39,-453.509 1303.64,-455.335 1315.4,-457.087"/>
<polygon fill="midnightblue" stroke="midnightblue" points="1315.16,-460.59 1325.56,-458.602 1316.19,-453.666 1315.16,-460.59"/>
</g>
<!-- Node443&#45;&gt;Node27 -->
<g id="edge66" class="edge"><title>Node443&#45;&gt;Node27</title>
<path fill="none" stroke="midnightblue" d="M645.685,-63.1092C685.428,-57.5505 763.401,-48 830,-48 830,-48 830,-48 1101,-48 1190.88,-48 1291.51,-88.1949 1339.71,-110.122"/>
<polygon fill="midnightblue" stroke="midnightblue" points="1338.36,-113.354 1348.91,-114.375 1341.3,-107 1338.36,-113.354"/>
</g>
<!-- Node299 -->
<g id="node49" class="node"><title>Node299</title>
<g id="a_node49"><a xlink:href="llex_8c.html#afbf0654ae651496d0e8dcebeefbefed6" target="_top" xlink:title=" ">
<polygon fill="white" stroke="black" points="791,-76.5 791,-95.5 871,-95.5 871,-76.5 791,-76.5"/>
<text text-anchor="middle" x="831" y="-83.5" font-family="Helvetica,sans-Serif" font-size="10.00">luaX_token2str</text>
</a>
</g>
</g>
<!-- Node443&#45;&gt;Node299 -->
<g id="edge67" class="edge"><title>Node443&#45;&gt;Node299</title>
<path fill="none" stroke="midnightblue" d="M645.734,-69.3679C679.436,-72.4099 738.608,-77.7509 780.806,-81.5597"/>
<polygon fill="midnightblue" stroke="midnightblue" points="780.6,-85.0552 790.874,-82.4684 781.229,-78.0836 780.6,-85.0552"/>
</g>
<!-- Node274 -->
<g id="node50" class="node"><title>Node274</title>
<g id="a_node50"><a xlink:href="llex_8c.html#a3418da69613c587915ff780b0ec3744b" target="_top" xlink:title=" ">
<polygon fill="white" stroke="black" points="701,-0.5 701,-19.5 737,-19.5 737,-0.5 701,-0.5"/>
<text text-anchor="middle" x="719" y="-7.5" font-family="Helvetica,sans-Serif" font-size="10.00">save</text>
</a>
</g>
</g>
<!-- Node443&#45;&gt;Node274 -->
<g id="edge69" class="edge"><title>Node443&#45;&gt;Node274</title>
<path fill="none" stroke="midnightblue" d="M636.209,-57.3307C651.727,-48.3509 675.046,-34.8566 692.819,-24.5715"/>
<polygon fill="midnightblue" stroke="midnightblue" points="694.635,-27.5645 701.538,-19.5265 691.129,-21.5058 694.635,-27.5645"/>
</g>
<!-- Node299&#45;&gt;Node27 -->
<g id="edge68" class="edge"><title>Node299&#45;&gt;Node27</title>
<path fill="none" stroke="midnightblue" d="M871.257,-86.4527C950.483,-87.7209 1135.07,-92.4704 1289,-110 1297.41,-110.957 1306.27,-112.242 1314.91,-113.646"/>
<polygon fill="midnightblue" stroke="midnightblue" points="1314.46,-117.119 1324.9,-115.337 1315.63,-110.218 1314.46,-117.119"/>
</g>
<!-- Node274&#45;&gt;Node5 -->
<g id="edge70" class="edge"><title>Node274&#45;&gt;Node5</title>
<path fill="none" stroke="midnightblue" d="M700.747,-11.5543C674.086,-14.6638 622.179,-23.5956 586,-48 564.168,-62.7268 546.717,-88.0138 536.497,-105.345"/>
<polygon fill="midnightblue" stroke="midnightblue" points="533.202,-104.062 531.336,-114.491 539.299,-107.502 533.202,-104.062"/>
</g>
</g>
</svg>
