<?xml version="1.0" encoding="UTF-8" standalone="no"?>
<!DOCTYPE svg PUBLIC "-//W3C//DTD SVG 1.1//EN"
 "http://www.w3.org/Graphics/SVG/1.1/DTD/svg11.dtd">
<!-- Generated by graphviz version 2.38.0 (20140413.2041)
 -->
<!-- Title: freeregs Pages: 1 -->
<svg width="464pt" height="28pt"
 viewBox="0.00 0.00 464.00 28.00" xmlns="http://www.w3.org/2000/svg" xmlns:xlink="http://www.w3.org/1999/xlink">
<g id="graph0" class="graph" transform="scale(1 1) rotate(0) translate(4 24)">
<title>freeregs</title>
<polygon fill="white" stroke="none" points="-4,4 -4,-24 460,-24 460,4 -4,4"/>
<!-- Node1 -->
<g id="node1" class="node"><title>Node1</title>
<g id="a_node1"><a xlink:title=" ">
<polygon fill="#bfbfbf" stroke="black" points="0,-0.5 0,-19.5 51,-19.5 51,-0.5 0,-0.5"/>
<text text-anchor="middle" x="25.5" y="-7.5" font-family="Helvetica,sans-Serif" font-size="10.00">freeregs</text>
</a>
</g>
</g>
<!-- Node2 -->
<g id="node2" class="node"><title>Node2</title>
<g id="a_node2"><a xlink:href="lcode_8c.html#a3331999888f54df141bd050408863d72" target="_top" xlink:title=" ">
<polygon fill="white" stroke="black" points="87,-0.5 87,-19.5 133,-19.5 133,-0.5 87,-0.5"/>
<text text-anchor="middle" x="110" y="-7.5" font-family="Helvetica,sans-Serif" font-size="10.00">freereg</text>
</a>
</g>
</g>
<!-- Node1&#45;&gt;Node2 -->
<g id="edge1" class="edge"><title>Node1&#45;&gt;Node2</title>
<path fill="none" stroke="midnightblue" d="M51.2527,-10C59.1953,-10 68.1149,-10 76.5243,-10"/>
<polygon fill="midnightblue" stroke="midnightblue" points="76.7915,-13.5001 86.7915,-10 76.7914,-6.5001 76.7915,-13.5001"/>
</g>
<!-- Node3 -->
<g id="node3" class="node"><title>Node3</title>
<g id="a_node3"><a xlink:href="lparser_8c.html#a03d8535460edd67f5c2d495c2a08bdd2" target="_top" xlink:title=" ">
<polygon fill="white" stroke="black" points="169,-0.5 169,-19.5 252,-19.5 252,-0.5 169,-0.5"/>
<text text-anchor="middle" x="210.5" y="-7.5" font-family="Helvetica,sans-Serif" font-size="10.00">luaY_nvarstack</text>
</a>
</g>
</g>
<!-- Node2&#45;&gt;Node3 -->
<g id="edge2" class="edge"><title>Node2&#45;&gt;Node3</title>
<path fill="none" stroke="midnightblue" d="M133.351,-10C140.939,-10 149.757,-10 158.644,-10"/>
<polygon fill="midnightblue" stroke="midnightblue" points="158.645,-13.5001 168.645,-10 158.645,-6.5001 158.645,-13.5001"/>
</g>
<!-- Node4 -->
<g id="node4" class="node"><title>Node4</title>
<g id="a_node4"><a xlink:href="lparser_8c.html#a38e1e1ea62dd175a62cebc2d2dd69528" target="_top" xlink:title=" ">
<polygon fill="white" stroke="black" points="288,-0.5 288,-19.5 337,-19.5 337,-0.5 288,-0.5"/>
<text text-anchor="middle" x="312.5" y="-7.5" font-family="Helvetica,sans-Serif" font-size="10.00">reglevel</text>
</a>
</g>
</g>
<!-- Node3&#45;&gt;Node4 -->
<g id="edge3" class="edge"><title>Node3&#45;&gt;Node4</title>
<path fill="none" stroke="midnightblue" d="M252.174,-10C260.596,-10 269.384,-10 277.536,-10"/>
<polygon fill="midnightblue" stroke="midnightblue" points="277.801,-13.5001 287.801,-10 277.801,-6.5001 277.801,-13.5001"/>
</g>
<!-- Node5 -->
<g id="node5" class="node"><title>Node5</title>
<g id="a_node5"><a xlink:href="lparser_8c.html#ae54e8d8f199763735b5175342fbce5ca" target="_top" xlink:title=" ">
<polygon fill="white" stroke="black" points="373,-0.5 373,-19.5 456,-19.5 456,-0.5 373,-0.5"/>
<text text-anchor="middle" x="414.5" y="-7.5" font-family="Helvetica,sans-Serif" font-size="10.00">getlocalvardesc</text>
</a>
</g>
</g>
<!-- Node4&#45;&gt;Node5 -->
<g id="edge4" class="edge"><title>Node4&#45;&gt;Node5</title>
<path fill="none" stroke="midnightblue" d="M337.199,-10C344.92,-10 353.811,-10 362.735,-10"/>
<polygon fill="midnightblue" stroke="midnightblue" points="362.763,-13.5001 372.763,-10 362.763,-6.5001 362.763,-13.5001"/>
</g>
</g>
</svg>
