<?xml version="1.0" encoding="UTF-8" standalone="no"?>
<!DOCTYPE svg PUBLIC "-//W3C//DTD SVG 1.1//EN"
 "http://www.w3.org/Graphics/SVG/1.1/DTD/svg11.dtd">
<!-- Generated by graphviz version 2.38.0 (20140413.2041)
 -->
<!-- Title: codeorder Pages: 1 -->
<svg width="1308pt" height="779pt"
 viewBox="0.00 0.00 1308.00 778.90" xmlns="http://www.w3.org/2000/svg" xmlns:xlink="http://www.w3.org/1999/xlink">
<g id="graph0" class="graph" transform="scale(1 1) rotate(0) translate(4 774.897)">
<title>codeorder</title>
<polygon fill="white" stroke="none" points="-4,4 -4,-774.897 1304,-774.897 1304,4 -4,4"/>
<!-- Node1 -->
<g id="node1" class="node"><title>Node1</title>
<g id="a_node1"><a xlink:title=" ">
<polygon fill="#bfbfbf" stroke="black" points="0,-323.5 0,-342.5 59,-342.5 59,-323.5 0,-323.5"/>
<text text-anchor="middle" x="29.5" y="-330.5" font-family="Helvetica,sans-Serif" font-size="10.00">codeorder</text>
</a>
</g>
</g>
<!-- Node2 -->
<g id="node2" class="node"><title>Node2</title>
<g id="a_node2"><a xlink:href="lcode_8c.html#a5ca879c3a79630e5af194a82971f7ab2" target="_top" xlink:title=" ">
<polygon fill="white" stroke="black" points="370,-684.5 370,-703.5 429,-703.5 429,-684.5 370,-684.5"/>
<text text-anchor="middle" x="399.5" y="-691.5" font-family="Helvetica,sans-Serif" font-size="10.00">condjump</text>
</a>
</g>
</g>
<!-- Node1&#45;&gt;Node2 -->
<g id="edge1" class="edge"><title>Node1&#45;&gt;Node2</title>
<path fill="none" stroke="midnightblue" d="M34.4588,-342.606C43.2525,-363.217 65.9501,-412.6 95,-447 182.841,-551.018 319.147,-643.548 374.205,-678.83"/>
<polygon fill="midnightblue" stroke="midnightblue" points="372.603,-681.959 382.92,-684.37 376.358,-676.052 372.603,-681.959"/>
</g>
<!-- Node8 -->
<g id="node8" class="node"><title>Node8</title>
<g id="a_node8"><a xlink:href="lcode_8c.html#a2afdd34342361dc25c3b44f45c87558d" target="_top" xlink:title=" ">
<polygon fill="white" stroke="black" points="244,-29.5 244,-48.5 297,-48.5 297,-29.5 244,-29.5"/>
<text text-anchor="middle" x="270.5" y="-36.5" font-family="Helvetica,sans-Serif" font-size="10.00">freeexps</text>
</a>
</g>
</g>
<!-- Node1&#45;&gt;Node8 -->
<g id="edge8" class="edge"><title>Node1&#45;&gt;Node8</title>
<path fill="none" stroke="midnightblue" d="M35.0764,-323.453C44.88,-303.366 69.1298,-255.573 95,-219 145.028,-148.275 158.781,-130.144 223,-72 229.962,-65.6964 238.151,-59.5326 245.7,-54.2708"/>
<polygon fill="midnightblue" stroke="midnightblue" points="247.833,-57.0539 254.157,-48.5539 243.913,-51.2546 247.833,-57.0539"/>
</g>
<!-- Node14 -->
<g id="node14" class="node"><title>Node14</title>
<g id="a_node14"><a xlink:href="lcode_8c.html#af0849f886c6299a2556da1228e2f9b18" target="_top" xlink:title=" ">
<polygon fill="white" stroke="black" points="106,-418.5 106,-437.5 176,-437.5 176,-418.5 106,-418.5"/>
<text text-anchor="middle" x="141" y="-425.5" font-family="Helvetica,sans-Serif" font-size="10.00">isSCnumber</text>
</a>
</g>
</g>
<!-- Node1&#45;&gt;Node14 -->
<g id="edge14" class="edge"><title>Node1&#45;&gt;Node14</title>
<path fill="none" stroke="midnightblue" d="M41.806,-342.809C60.5911,-359.106 98.4198,-391.926 121.249,-411.732"/>
<polygon fill="midnightblue" stroke="midnightblue" points="119.071,-414.476 128.919,-418.386 123.659,-409.189 119.071,-414.476"/>
</g>
<!-- Node17 -->
<g id="node17" class="node"><title>Node17</title>
<g id="a_node17"><a xlink:href="lcode_8c.html#ad2850d253ee1400e3e00e5a0d26d596d" target="_top" xlink:title=" ">
<polygon fill="white" stroke="black" points="95,-228.5 95,-247.5 187,-247.5 187,-228.5 95,-228.5"/>
<text text-anchor="middle" x="141" y="-235.5" font-family="Helvetica,sans-Serif" font-size="10.00">luaK_exp2anyreg</text>
</a>
</g>
</g>
<!-- Node1&#45;&gt;Node17 -->
<g id="edge17" class="edge"><title>Node1&#45;&gt;Node17</title>
<path fill="none" stroke="midnightblue" d="M41.806,-323.191C60.5911,-306.894 98.4198,-274.074 121.249,-254.268"/>
<polygon fill="midnightblue" stroke="midnightblue" points="123.659,-256.811 128.919,-247.614 119.071,-251.524 123.659,-256.811"/>
</g>
<!-- Node3 -->
<g id="node3" class="node"><title>Node3</title>
<g id="a_node3"><a xlink:href="lcode_8c.html#a7f8d052466e2665575f464a55f90a509" target="_top" xlink:title=" ">
<polygon fill="white" stroke="black" points="483,-722.5 483,-741.5 571,-741.5 571,-722.5 483,-722.5"/>
<text text-anchor="middle" x="527" y="-729.5" font-family="Helvetica,sans-Serif" font-size="10.00">luaK_codeABCk</text>
</a>
</g>
</g>
<!-- Node2&#45;&gt;Node3 -->
<g id="edge2" class="edge"><title>Node2&#45;&gt;Node3</title>
<path fill="none" stroke="midnightblue" d="M429.292,-702.718C445.656,-707.673 466.429,-713.963 484.525,-719.442"/>
<polygon fill="midnightblue" stroke="midnightblue" points="483.672,-722.841 494.258,-722.389 485.701,-716.141 483.672,-722.841"/>
</g>
<!-- Node6 -->
<g id="node6" class="node"><title>Node6</title>
<g id="a_node6"><a xlink:href="lcode_8c.html#a01cb8acfbbf9911a63956cbe3fe1bdb6" target="_top" xlink:title=" ">
<polygon fill="white" stroke="black" points="496,-684.5 496,-703.5 558,-703.5 558,-684.5 496,-684.5"/>
<text text-anchor="middle" x="527" y="-691.5" font-family="Helvetica,sans-Serif" font-size="10.00">luaK_jump</text>
</a>
</g>
</g>
<!-- Node2&#45;&gt;Node6 -->
<g id="edge5" class="edge"><title>Node2&#45;&gt;Node6</title>
<path fill="none" stroke="midnightblue" d="M429.292,-694C445.945,-694 467.164,-694 485.481,-694"/>
<polygon fill="midnightblue" stroke="midnightblue" points="485.591,-697.5 495.591,-694 485.591,-690.5 485.591,-697.5"/>
</g>
<!-- Node4 -->
<g id="node4" class="node"><title>Node4</title>
<g id="a_node4"><a xlink:href="lcode_8c.html#a7250af995defa0d720b40e35695775da" target="_top" xlink:title=" ">
<polygon fill="white" stroke="black" points="1006.5,-456.5 1006.5,-475.5 1068.5,-475.5 1068.5,-456.5 1006.5,-456.5"/>
<text text-anchor="middle" x="1037.5" y="-463.5" font-family="Helvetica,sans-Serif" font-size="10.00">luaK_code</text>
</a>
</g>
</g>
<!-- Node3&#45;&gt;Node4 -->
<g id="edge3" class="edge"><title>Node3&#45;&gt;Node4</title>
<path fill="none" stroke="midnightblue" d="M559.224,-741.547C636.419,-763.073 838.752,-806.559 960,-713 1032.39,-657.144 1038.01,-533.822 1037.29,-485.74"/>
<polygon fill="midnightblue" stroke="midnightblue" points="1040.79,-485.604 1037.03,-475.7 1033.79,-485.789 1040.79,-485.604"/>
</g>
<!-- Node5 -->
<g id="node5" class="node"><title>Node5</title>
<g id="a_node5"><a xlink:href="lcode_8c.html#acd1138478ae0364e0d3eaace189d2614" target="_top" xlink:title=" ">
<polygon fill="white" stroke="black" points="1115,-456.5 1115,-475.5 1181,-475.5 1181,-456.5 1115,-456.5"/>
<text text-anchor="middle" x="1148" y="-463.5" font-family="Helvetica,sans-Serif" font-size="10.00">savelineinfo</text>
</a>
</g>
</g>
<!-- Node4&#45;&gt;Node5 -->
<g id="edge4" class="edge"><title>Node4&#45;&gt;Node5</title>
<path fill="none" stroke="midnightblue" d="M1068.72,-466C1079.78,-466 1092.51,-466 1104.44,-466"/>
<polygon fill="midnightblue" stroke="midnightblue" points="1104.66,-469.5 1114.66,-466 1104.66,-462.5 1104.66,-469.5"/>
</g>
<!-- Node7 -->
<g id="node7" class="node"><title>Node7</title>
<g id="a_node7"><a xlink:href="lcode_8c.html#abafb16fe7dcc694c958e9dafeb2ad277" target="_top" xlink:title=" ">
<polygon fill="white" stroke="black" points="896,-684.5 896,-703.5 943,-703.5 943,-684.5 896,-684.5"/>
<text text-anchor="middle" x="919.5" y="-691.5" font-family="Helvetica,sans-Serif" font-size="10.00">codesJ</text>
</a>
</g>
</g>
<!-- Node6&#45;&gt;Node7 -->
<g id="edge6" class="edge"><title>Node6&#45;&gt;Node7</title>
<path fill="none" stroke="midnightblue" d="M558.317,-694C630.223,-694 810.652,-694 885.334,-694"/>
<polygon fill="midnightblue" stroke="midnightblue" points="885.56,-697.5 895.56,-694 885.56,-690.5 885.56,-697.5"/>
</g>
<!-- Node7&#45;&gt;Node4 -->
<g id="edge7" class="edge"><title>Node7&#45;&gt;Node4</title>
<path fill="none" stroke="midnightblue" d="M943.394,-686.6C949.428,-683.755 955.501,-679.96 960,-675 1010.91,-618.875 1028.71,-526.095 1034.26,-485.752"/>
<polygon fill="midnightblue" stroke="midnightblue" points="1037.75,-485.991 1035.54,-475.63 1030.81,-485.112 1037.75,-485.991"/>
</g>
<!-- Node9 -->
<g id="node9" class="node"><title>Node9</title>
<g id="a_node9"><a xlink:href="lcode_8c.html#ae1246635c52f314e973ba1dc527f565a" target="_top" xlink:title=" ">
<polygon fill="white" stroke="black" points="769,-0.5 769,-19.5 820,-19.5 820,-0.5 769,-0.5"/>
<text text-anchor="middle" x="794.5" y="-7.5" font-family="Helvetica,sans-Serif" font-size="10.00">freeregs</text>
</a>
</g>
</g>
<!-- Node8&#45;&gt;Node9 -->
<g id="edge9" class="edge"><title>Node8&#45;&gt;Node9</title>
<path fill="none" stroke="midnightblue" d="M297.031,-37.5816C382.755,-32.8192 660.414,-17.3937 758.659,-11.9356"/>
<polygon fill="midnightblue" stroke="midnightblue" points="759.141,-15.4143 768.932,-11.3649 758.753,-8.4251 759.141,-15.4143"/>
</g>
<!-- Node10 -->
<g id="node10" class="node"><title>Node10</title>
<g id="a_node10"><a xlink:href="lcode_8c.html#a3331999888f54df141bd050408863d72" target="_top" xlink:title=" ">
<polygon fill="white" stroke="black" points="896.5,-171.5 896.5,-190.5 942.5,-190.5 942.5,-171.5 896.5,-171.5"/>
<text text-anchor="middle" x="919.5" y="-178.5" font-family="Helvetica,sans-Serif" font-size="10.00">freereg</text>
</a>
</g>
</g>
<!-- Node9&#45;&gt;Node10 -->
<g id="edge10" class="edge"><title>Node9&#45;&gt;Node10</title>
<path fill="none" stroke="midnightblue" d="M820.136,-16.034C828.142,-18.9302 836.603,-23.0979 843,-29 883.295,-66.1745 904.899,-129.605 913.696,-161.489"/>
<polygon fill="midnightblue" stroke="midnightblue" points="910.361,-162.57 916.283,-171.356 917.133,-160.795 910.361,-162.57"/>
</g>
<!-- Node11 -->
<g id="node11" class="node"><title>Node11</title>
<g id="a_node11"><a xlink:href="lparser_8c.html#a03d8535460edd67f5c2d495c2a08bdd2" target="_top" xlink:title=" ">
<polygon fill="white" stroke="black" points="996,-200.5 996,-219.5 1079,-219.5 1079,-200.5 996,-200.5"/>
<text text-anchor="middle" x="1037.5" y="-207.5" font-family="Helvetica,sans-Serif" font-size="10.00">luaY_nvarstack</text>
</a>
</g>
</g>
<!-- Node10&#45;&gt;Node11 -->
<g id="edge11" class="edge"><title>Node10&#45;&gt;Node11</title>
<path fill="none" stroke="midnightblue" d="M942.592,-186.523C955.548,-189.762 972.445,-193.986 988.329,-197.957"/>
<polygon fill="midnightblue" stroke="midnightblue" points="987.493,-201.356 998.044,-200.386 989.191,-194.565 987.493,-201.356"/>
</g>
<!-- Node12 -->
<g id="node12" class="node"><title>Node12</title>
<g id="a_node12"><a xlink:href="lparser_8c.html#a38e1e1ea62dd175a62cebc2d2dd69528" target="_top" xlink:title=" ">
<polygon fill="white" stroke="black" points="1123.5,-200.5 1123.5,-219.5 1172.5,-219.5 1172.5,-200.5 1123.5,-200.5"/>
<text text-anchor="middle" x="1148" y="-207.5" font-family="Helvetica,sans-Serif" font-size="10.00">reglevel</text>
</a>
</g>
</g>
<!-- Node11&#45;&gt;Node12 -->
<g id="edge12" class="edge"><title>Node11&#45;&gt;Node12</title>
<path fill="none" stroke="midnightblue" d="M1079.21,-210C1090.39,-210 1102.4,-210 1113.15,-210"/>
<polygon fill="midnightblue" stroke="midnightblue" points="1113.41,-213.5 1123.41,-210 1113.41,-206.5 1113.41,-213.5"/>
</g>
<!-- Node13 -->
<g id="node13" class="node"><title>Node13</title>
<g id="a_node13"><a xlink:href="lparser_8c.html#ae54e8d8f199763735b5175342fbce5ca" target="_top" xlink:title=" ">
<polygon fill="white" stroke="black" points="1217,-200.5 1217,-219.5 1300,-219.5 1300,-200.5 1217,-200.5"/>
<text text-anchor="middle" x="1258.5" y="-207.5" font-family="Helvetica,sans-Serif" font-size="10.00">getlocalvardesc</text>
</a>
</g>
</g>
<!-- Node12&#45;&gt;Node13 -->
<g id="edge13" class="edge"><title>Node12&#45;&gt;Node13</title>
<path fill="none" stroke="midnightblue" d="M1172.54,-210C1182.57,-210 1194.68,-210 1206.58,-210"/>
<polygon fill="midnightblue" stroke="midnightblue" points="1206.93,-213.5 1216.93,-210 1206.92,-206.5 1206.93,-213.5"/>
</g>
<!-- Node15 -->
<g id="node15" class="node"><title>Node15</title>
<g id="a_node15"><a xlink:href="lcode_8c.html#a3447d4fe8de721e03288feb166a7ede0" target="_top" xlink:title=" ">
<polygon fill="white" stroke="black" points="252.5,-456.5 252.5,-475.5 288.5,-475.5 288.5,-456.5 252.5,-456.5"/>
<text text-anchor="middle" x="270.5" y="-463.5" font-family="Helvetica,sans-Serif" font-size="10.00">fitsC</text>
</a>
</g>
</g>
<!-- Node14&#45;&gt;Node15 -->
<g id="edge15" class="edge"><title>Node14&#45;&gt;Node15</title>
<path fill="none" stroke="midnightblue" d="M174.174,-437.589C195.281,-443.88 222.568,-452.012 242.535,-457.963"/>
<polygon fill="midnightblue" stroke="midnightblue" points="241.655,-461.353 252.238,-460.855 243.655,-454.645 241.655,-461.353"/>
</g>
<!-- Node16 -->
<g id="node16" class="node"><title>Node16</title>
<g id="a_node16"><a xlink:href="lvm_8c.html#a3a9a9378ccdbd0ea4cba6555673dccf9" target="_top" xlink:title=" ">
<polygon fill="white" stroke="black" points="751.5,-494.5 751.5,-513.5 837.5,-513.5 837.5,-494.5 751.5,-494.5"/>
<text text-anchor="middle" x="794.5" y="-501.5" font-family="Helvetica,sans-Serif" font-size="10.00">luaV_flttointeger</text>
</a>
</g>
</g>
<!-- Node14&#45;&gt;Node16 -->
<g id="edge16" class="edge"><title>Node14&#45;&gt;Node16</title>
<path fill="none" stroke="midnightblue" d="M176.124,-429.947C264.69,-435.32 508.999,-452.175 710,-485 721.802,-486.927 734.432,-489.519 746.203,-492.168"/>
<polygon fill="midnightblue" stroke="midnightblue" points="745.753,-495.656 756.284,-494.495 747.328,-488.836 745.753,-495.656"/>
</g>
<!-- Node17&#45;&gt;Node11 -->
<g id="edge73" class="edge"><title>Node17&#45;&gt;Node11</title>
<path fill="none" stroke="midnightblue" d="M187.407,-238C238.673,-238 324.578,-238 398.5,-238 398.5,-238 398.5,-238 795.5,-238 861.565,-238 937.141,-227.49 985.775,-219.348"/>
<polygon fill="midnightblue" stroke="midnightblue" points="986.461,-222.782 995.731,-217.651 985.285,-215.881 986.461,-222.782"/>
</g>
<!-- Node18 -->
<g id="node18" class="node"><title>Node18</title>
<g id="a_node18"><a xlink:href="lcode_8c.html#aa89e7af4e4f692877eab94959920c493" target="_top" xlink:title=" ">
<polygon fill="white" stroke="black" points="374,-513.5 374,-532.5 425,-532.5 425,-513.5 374,-513.5"/>
<text text-anchor="middle" x="399.5" y="-520.5" font-family="Helvetica,sans-Serif" font-size="10.00">exp2reg</text>
</a>
</g>
</g>
<!-- Node17&#45;&gt;Node18 -->
<g id="edge18" class="edge"><title>Node17&#45;&gt;Node18</title>
<path fill="none" stroke="midnightblue" d="M150.829,-247.81C188.29,-289.434 334.377,-451.752 382.805,-505.562"/>
<polygon fill="midnightblue" stroke="midnightblue" points="380.417,-508.139 389.708,-513.231 385.62,-503.457 380.417,-508.139"/>
</g>
<!-- Node25 -->
<g id="node25" class="node"><title>Node25</title>
<g id="a_node25"><a xlink:href="lcode_8c.html#a982df0963fcf2227c3a5c96163d8ef03" target="_top" xlink:title=" ">
<polygon fill="white" stroke="black" points="609,-95.5 609,-114.5 710,-114.5 710,-95.5 609,-95.5"/>
<text text-anchor="middle" x="659.5" y="-102.5" font-family="Helvetica,sans-Serif" font-size="10.00">luaK_dischargevars</text>
</a>
</g>
</g>
<!-- Node17&#45;&gt;Node25 -->
<g id="edge65" class="edge"><title>Node17&#45;&gt;Node25</title>
<path fill="none" stroke="midnightblue" d="M152.36,-228.203C181.321,-201.607 266.73,-128.482 354,-105 436.69,-82.7502 536.648,-88.6572 598.915,-95.997"/>
<polygon fill="midnightblue" stroke="midnightblue" points="598.602,-99.4848 608.955,-97.2316 599.457,-92.5371 598.602,-99.4848"/>
</g>
<!-- Node143 -->
<g id="node47" class="node"><title>Node143</title>
<g id="a_node47"><a xlink:href="lcode_8c.html#a252b7ff26ed24db991e8a11275bcf75c" target="_top" xlink:title=" ">
<polygon fill="white" stroke="black" points="223,-190.5 223,-209.5 318,-209.5 318,-190.5 223,-190.5"/>
<text text-anchor="middle" x="270.5" y="-197.5" font-family="Helvetica,sans-Serif" font-size="10.00">luaK_exp2nextreg</text>
</a>
</g>
</g>
<!-- Node17&#45;&gt;Node143 -->
<g id="edge66" class="edge"><title>Node17&#45;&gt;Node143</title>
<path fill="none" stroke="midnightblue" d="M174.174,-228.411C190.331,-223.596 210.108,-217.701 227.452,-212.532"/>
<polygon fill="midnightblue" stroke="midnightblue" points="228.753,-215.796 237.337,-209.586 226.754,-209.088 228.753,-215.796"/>
</g>
<!-- Node18&#45;&gt;Node6 -->
<g id="edge52" class="edge"><title>Node18&#45;&gt;Node6</title>
<path fill="none" stroke="midnightblue" d="M403.636,-532.809C412.227,-558.35 438.383,-627.851 481,-670 484.514,-673.475 488.634,-676.575 492.93,-679.3"/>
<polygon fill="midnightblue" stroke="midnightblue" points="491.43,-682.473 501.855,-684.362 494.884,-676.384 491.43,-682.473"/>
</g>
<!-- Node19 -->
<g id="node19" class="node"><title>Node19</title>
<g id="a_node19"><a xlink:href="lcode_8c.html#ab947c67ef18474ab26abc6f1a81c3dfd" target="_top" xlink:title=" ">
<polygon fill="white" stroke="black" points="487.5,-494.5 487.5,-513.5 566.5,-513.5 566.5,-494.5 487.5,-494.5"/>
<text text-anchor="middle" x="527" y="-501.5" font-family="Helvetica,sans-Serif" font-size="10.00">code_loadbool</text>
</a>
</g>
</g>
<!-- Node18&#45;&gt;Node19 -->
<g id="edge19" class="edge"><title>Node18&#45;&gt;Node19</title>
<path fill="none" stroke="midnightblue" d="M425.295,-519.246C440.104,-517.004 459.431,-514.078 477.19,-511.39"/>
<polygon fill="midnightblue" stroke="midnightblue" points="478.055,-514.799 487.418,-509.841 477.007,-507.877 478.055,-514.799"/>
</g>
<!-- Node20 -->
<g id="node20" class="node"><title>Node20</title>
<g id="a_node20"><a xlink:href="lcode_8c.html#afd70025e040dde0ef167df148de201b0" target="_top" xlink:title=" ">
<polygon fill="white" stroke="black" points="622,-494.5 622,-513.5 697,-513.5 697,-494.5 622,-494.5"/>
<text text-anchor="middle" x="659.5" y="-501.5" font-family="Helvetica,sans-Serif" font-size="10.00">luaK_getlabel</text>
</a>
</g>
</g>
<!-- Node18&#45;&gt;Node20 -->
<g id="edge51" class="edge"><title>Node18&#45;&gt;Node20</title>
<path fill="none" stroke="midnightblue" d="M415.499,-513.433C431.141,-504.069 456.721,-490.443 481,-485 526.887,-474.714 580.735,-483.296 616.987,-491.993"/>
<polygon fill="midnightblue" stroke="midnightblue" points="616.173,-495.397 626.724,-494.434 617.875,-488.607 616.173,-495.397"/>
</g>
<!-- Node21 -->
<g id="node21" class="node"><title>Node21</title>
<g id="a_node21"><a xlink:href="lcode_8c.html#a961993a449bc9612ac966652646ffad6" target="_top" xlink:title=" ">
<polygon fill="white" stroke="black" points="488.5,-342.5 488.5,-361.5 565.5,-361.5 565.5,-342.5 488.5,-342.5"/>
<text text-anchor="middle" x="527" y="-349.5" font-family="Helvetica,sans-Serif" font-size="10.00">discharge2reg</text>
</a>
</g>
</g>
<!-- Node18&#45;&gt;Node21 -->
<g id="edge21" class="edge"><title>Node18&#45;&gt;Node21</title>
<path fill="none" stroke="midnightblue" d="M407.607,-513.316C427.971,-485.57 486.75,-405.48 513.032,-369.669"/>
<polygon fill="midnightblue" stroke="midnightblue" points="515.876,-371.71 518.971,-361.577 510.233,-367.568 515.876,-371.71"/>
</g>
<!-- Node164 -->
<g id="node38" class="node"><title>Node164</title>
<g id="a_node38"><a xlink:href="lcode_8c.html#a99718e3c19e193690f60b7595bee952e" target="_top" xlink:title=" ">
<polygon fill="white" stroke="black" points="759,-570.5 759,-589.5 830,-589.5 830,-570.5 759,-570.5"/>
<text text-anchor="middle" x="794.5" y="-577.5" font-family="Helvetica,sans-Serif" font-size="10.00">luaK_concat</text>
</a>
</g>
</g>
<!-- Node18&#45;&gt;Node164 -->
<g id="edge48" class="edge"><title>Node18&#45;&gt;Node164</title>
<path fill="none" stroke="midnightblue" d="M416.161,-532.605C431.908,-541.718 457.197,-554.9 481,-561 573.826,-584.79 687.008,-584.824 748.485,-582.539"/>
<polygon fill="midnightblue" stroke="midnightblue" points="748.773,-586.031 758.621,-582.124 748.486,-579.036 748.773,-586.031"/>
</g>
<!-- Node167 -->
<g id="node41" class="node"><title>Node167</title>
<g id="a_node41"><a xlink:href="lcode_8c.html#a5748ad3c940c7916a2586fab6181a197" target="_top" xlink:title=" ">
<polygon fill="white" stroke="black" points="481,-532.5 481,-551.5 573,-551.5 573,-532.5 481,-532.5"/>
<text text-anchor="middle" x="527" y="-539.5" font-family="Helvetica,sans-Serif" font-size="10.00">luaK_patchtohere</text>
</a>
</g>
</g>
<!-- Node18&#45;&gt;Node167 -->
<g id="edge53" class="edge"><title>Node18&#45;&gt;Node167</title>
<path fill="none" stroke="midnightblue" d="M425.295,-526.754C438.304,-528.723 454.799,-531.221 470.654,-533.621"/>
<polygon fill="midnightblue" stroke="midnightblue" points="470.527,-537.141 480.938,-535.178 471.575,-530.22 470.527,-537.141"/>
</g>
<!-- Node169 -->
<g id="node43" class="node"><title>Node169</title>
<g id="a_node43"><a xlink:href="lcode_8c.html#a83e8d2f1641cfd3ed1c465f07f383c5e" target="_top" xlink:title=" ">
<polygon fill="white" stroke="black" points="760,-608.5 760,-627.5 829,-627.5 829,-608.5 760,-608.5"/>
<text text-anchor="middle" x="794.5" y="-615.5" font-family="Helvetica,sans-Serif" font-size="10.00">patchlistaux</text>
</a>
</g>
</g>
<!-- Node18&#45;&gt;Node169 -->
<g id="edge64" class="edge"><title>Node18&#45;&gt;Node169</title>
<path fill="none" stroke="midnightblue" d="M409.894,-532.503C423.961,-546.073 451.962,-570.617 481,-582 571.602,-617.516 687.481,-621.031 749.552,-619.887"/>
<polygon fill="midnightblue" stroke="midnightblue" points="749.854,-623.381 759.769,-619.647 749.69,-616.383 749.854,-623.381"/>
</g>
<!-- Node442 -->
<g id="node46" class="node"><title>Node442</title>
<g id="a_node46"><a xlink:href="lcode_8c.html#af4b1d063270645304b0642c1f1d79cb3" target="_top" xlink:title=" ">
<polygon fill="white" stroke="black" points="762,-646.5 762,-665.5 827,-665.5 827,-646.5 762,-646.5"/>
<text text-anchor="middle" x="794.5" y="-653.5" font-family="Helvetica,sans-Serif" font-size="10.00">need_value</text>
</a>
</g>
</g>
<!-- Node18&#45;&gt;Node442 -->
<g id="edge61" class="edge"><title>Node18&#45;&gt;Node442</title>
<path fill="none" stroke="midnightblue" d="M406.443,-532.547C418.224,-550.578 446.415,-589.491 481,-608 568.608,-654.886 688.578,-659.465 751.333,-658.125"/>
<polygon fill="midnightblue" stroke="midnightblue" points="751.733,-661.615 761.633,-657.84 751.54,-654.618 751.733,-661.615"/>
</g>
<!-- Node19&#45;&gt;Node20 -->
<g id="edge20" class="edge"><title>Node19&#45;&gt;Node20</title>
<path fill="none" stroke="midnightblue" d="M566.801,-504C580.827,-504 596.816,-504 611.472,-504"/>
<polygon fill="midnightblue" stroke="midnightblue" points="611.861,-507.5 621.861,-504 611.861,-500.5 611.861,-507.5"/>
</g>
<!-- Node22 -->
<g id="node22" class="node"><title>Node22</title>
<g id="a_node22"><a xlink:href="lcode_8c.html#a946579be848f1f4a532e57533f0a9919" target="_top" xlink:title=" ">
<polygon fill="white" stroke="black" points="760.5,-418.5 760.5,-437.5 828.5,-437.5 828.5,-418.5 760.5,-418.5"/>
<text text-anchor="middle" x="794.5" y="-425.5" font-family="Helvetica,sans-Serif" font-size="10.00">luaK_codek</text>
</a>
</g>
</g>
<!-- Node21&#45;&gt;Node22 -->
<g id="edge22" class="edge"><title>Node21&#45;&gt;Node22</title>
<path fill="none" stroke="midnightblue" d="M537.992,-361.664C552.37,-374.909 580.332,-398.277 609,-409 655.039,-426.22 711.773,-429.659 750.078,-429.63"/>
<polygon fill="midnightblue" stroke="midnightblue" points="750.401,-433.127 760.369,-429.538 750.339,-426.128 750.401,-433.127"/>
</g>
<!-- Node21&#45;&gt;Node25 -->
<g id="edge27" class="edge"><title>Node21&#45;&gt;Node25</title>
<path fill="none" stroke="midnightblue" d="M533.116,-342.317C552.646,-305.352 622.715,-172.732 648.706,-123.537"/>
<polygon fill="midnightblue" stroke="midnightblue" points="651.843,-125.093 653.42,-114.616 645.653,-121.823 651.843,-125.093"/>
</g>
<!-- Node29 -->
<g id="node29" class="node"><title>Node29</title>
<g id="a_node29"><a xlink:href="lcode_8c.html#a463a7c61f87515bd9ce739e51ffdac53" target="_top" xlink:title=" ">
<polygon fill="white" stroke="black" points="630,-380.5 630,-399.5 689,-399.5 689,-380.5 630,-380.5"/>
<text text-anchor="middle" x="659.5" y="-387.5" font-family="Helvetica,sans-Serif" font-size="10.00">luaK_float</text>
</a>
</g>
</g>
<!-- Node21&#45;&gt;Node29 -->
<g id="edge33" class="edge"><title>Node21&#45;&gt;Node29</title>
<path fill="none" stroke="midnightblue" d="M560.931,-361.589C578.852,-366.807 601.124,-373.293 619.863,-378.749"/>
<polygon fill="midnightblue" stroke="midnightblue" points="618.999,-382.143 629.578,-381.578 620.956,-375.422 618.999,-382.143"/>
</g>
<!-- Node331 -->
<g id="node33" class="node"><title>Node331</title>
<g id="a_node33"><a xlink:href="lcode_8c.html#a2fff5f96536d86c8d5df7bdf2ea4d317" target="_top" xlink:title=" ">
<polygon fill="white" stroke="black" points="633.5,-342.5 633.5,-361.5 685.5,-361.5 685.5,-342.5 633.5,-342.5"/>
<text text-anchor="middle" x="659.5" y="-349.5" font-family="Helvetica,sans-Serif" font-size="10.00">luaK_int</text>
</a>
</g>
</g>
<!-- Node21&#45;&gt;Node331 -->
<g id="edge40" class="edge"><title>Node21&#45;&gt;Node331</title>
<path fill="none" stroke="midnightblue" d="M565.746,-352C583.699,-352 605.053,-352 622.744,-352"/>
<polygon fill="midnightblue" stroke="midnightblue" points="623.222,-355.5 633.222,-352 623.222,-348.5 623.222,-355.5"/>
</g>
<!-- Node280 -->
<g id="node35" class="node"><title>Node280</title>
<g id="a_node35"><a xlink:href="lcode_8c.html#a625d410137e33fbd9593426c6e74bcf1" target="_top" xlink:title=" ">
<polygon fill="white" stroke="black" points="634,-304.5 634,-323.5 685,-323.5 685,-304.5 634,-304.5"/>
<text text-anchor="middle" x="659.5" y="-311.5" font-family="Helvetica,sans-Serif" font-size="10.00">luaK_nil</text>
</a>
</g>
</g>
<!-- Node21&#45;&gt;Node280 -->
<g id="edge45" class="edge"><title>Node21&#45;&gt;Node280</title>
<path fill="none" stroke="midnightblue" d="M560.931,-342.411C580.22,-336.794 604.552,-329.709 624.091,-324.02"/>
<polygon fill="midnightblue" stroke="midnightblue" points="625.197,-327.343 633.82,-321.187 623.24,-320.622 625.197,-327.343"/>
</g>
<!-- Node295 -->
<g id="node37" class="node"><title>Node295</title>
<g id="a_node37"><a xlink:href="lcode_8c.html#ad8d97d1b9538e4e8412654930d56e5ed" target="_top" xlink:title=" ">
<polygon fill="white" stroke="red" points="639.5,-266.5 639.5,-285.5 679.5,-285.5 679.5,-266.5 639.5,-266.5"/>
<text text-anchor="middle" x="659.5" y="-273.5" font-family="Helvetica,sans-Serif" font-size="10.00">str2K</text>
</a>
</g>
</g>
<!-- Node21&#45;&gt;Node295 -->
<g id="edge47" class="edge"><title>Node21&#45;&gt;Node295</title>
<path fill="none" stroke="midnightblue" d="M539.745,-342.324C554.988,-330.107 582.75,-308.996 609,-295 615.44,-291.566 622.638,-288.437 629.508,-285.753"/>
<polygon fill="midnightblue" stroke="midnightblue" points="631.051,-288.914 639.211,-282.156 628.618,-282.35 631.051,-288.914"/>
</g>
<!-- Node23 -->
<g id="node23" class="node"><title>Node23</title>
<g id="a_node23"><a xlink:href="lcode_8c.html#ab4119f5c8d10ac76a119cf70bb25c5b9" target="_top" xlink:title=" ">
<polygon fill="white" stroke="black" points="883,-418.5 883,-437.5 956,-437.5 956,-418.5 883,-418.5"/>
<text text-anchor="middle" x="919.5" y="-425.5" font-family="Helvetica,sans-Serif" font-size="10.00">codeextraarg</text>
</a>
</g>
</g>
<!-- Node22&#45;&gt;Node23 -->
<g id="edge23" class="edge"><title>Node22&#45;&gt;Node23</title>
<path fill="none" stroke="midnightblue" d="M828.786,-428C842.182,-428 857.859,-428 872.328,-428"/>
<polygon fill="midnightblue" stroke="midnightblue" points="872.599,-431.5 882.599,-428 872.599,-424.5 872.599,-431.5"/>
</g>
<!-- Node24 -->
<g id="node24" class="node"><title>Node24</title>
<g id="a_node24"><a xlink:href="lcode_8c.html#a3fb5006a069fadbcb2ec7dde4740ad10" target="_top" xlink:title=" ">
<polygon fill="white" stroke="black" points="879,-456.5 879,-475.5 960,-475.5 960,-456.5 879,-456.5"/>
<text text-anchor="middle" x="919.5" y="-463.5" font-family="Helvetica,sans-Serif" font-size="10.00">luaK_codeABx</text>
</a>
</g>
</g>
<!-- Node22&#45;&gt;Node24 -->
<g id="edge25" class="edge"><title>Node22&#45;&gt;Node24</title>
<path fill="none" stroke="midnightblue" d="M826.538,-437.589C841.979,-442.359 860.848,-448.189 877.466,-453.323"/>
<polygon fill="midnightblue" stroke="midnightblue" points="876.884,-456.806 887.472,-456.414 878.951,-450.118 876.884,-456.806"/>
</g>
<!-- Node23&#45;&gt;Node4 -->
<g id="edge24" class="edge"><title>Node23&#45;&gt;Node4</title>
<path fill="none" stroke="midnightblue" d="M949.772,-437.589C964.197,-442.314 981.793,-448.079 997.357,-453.177"/>
<polygon fill="midnightblue" stroke="midnightblue" points="996.645,-456.627 1007.24,-456.414 998.824,-449.975 996.645,-456.627"/>
</g>
<!-- Node24&#45;&gt;Node4 -->
<g id="edge26" class="edge"><title>Node24&#45;&gt;Node4</title>
<path fill="none" stroke="midnightblue" d="M960.096,-466C971.654,-466 984.299,-466 995.917,-466"/>
<polygon fill="midnightblue" stroke="midnightblue" points="996.237,-469.5 1006.24,-466 996.237,-462.5 996.237,-469.5"/>
</g>
<!-- Node25&#45;&gt;Node9 -->
<g id="edge31" class="edge"><title>Node25&#45;&gt;Node9</title>
<path fill="none" stroke="midnightblue" d="M669.134,-95.4165C683.681,-79.7405 714.577,-48.4206 746,-29 750.127,-26.4493 754.656,-24.1221 759.226,-22.0391"/>
<polygon fill="midnightblue" stroke="midnightblue" points="760.694,-25.2188 768.553,-18.1131 757.978,-18.7672 760.694,-25.2188"/>
</g>
<!-- Node25&#45;&gt;Node10 -->
<g id="edge30" class="edge"><title>Node25&#45;&gt;Node10</title>
<path fill="none" stroke="midnightblue" d="M679.086,-114.571C696.122,-123.025 722.235,-135.19 746,-143 793.787,-158.705 851.156,-169.885 886.209,-175.891"/>
<polygon fill="midnightblue" stroke="midnightblue" points="885.895,-179.388 896.336,-177.589 887.052,-172.484 885.895,-179.388"/>
</g>
<!-- Node26 -->
<g id="node26" class="node"><title>Node26</title>
<g id="a_node26"><a xlink:href="lcode_8c.html#ad595e6cb1e482df9d3e8cb0ba97316b1" target="_top" xlink:title=" ">
<polygon fill="white" stroke="black" points="763.5,-76.5 763.5,-95.5 825.5,-95.5 825.5,-76.5 763.5,-76.5"/>
<text text-anchor="middle" x="794.5" y="-83.5" font-family="Helvetica,sans-Serif" font-size="10.00">const2exp</text>
</a>
</g>
</g>
<!-- Node25&#45;&gt;Node26 -->
<g id="edge28" class="edge"><title>Node25&#45;&gt;Node26</title>
<path fill="none" stroke="midnightblue" d="M710.024,-97.9251C724.267,-95.8905 739.623,-93.6968 753.233,-91.7525"/>
<polygon fill="midnightblue" stroke="midnightblue" points="753.848,-95.2002 763.253,-90.321 752.858,-88.2705 753.848,-95.2002"/>
</g>
<!-- Node27 -->
<g id="node27" class="node"><title>Node27</title>
<g id="a_node27"><a xlink:href="lcode_8c.html#a73505708162792e73d66a9a0307f2b48" target="_top" xlink:title=" ">
<polygon fill="white" stroke="black" points="766,-38.5 766,-57.5 823,-57.5 823,-38.5 766,-38.5"/>
<text text-anchor="middle" x="794.5" y="-45.5" font-family="Helvetica,sans-Serif" font-size="10.00">const2val</text>
</a>
</g>
</g>
<!-- Node25&#45;&gt;Node27 -->
<g id="edge29" class="edge"><title>Node25&#45;&gt;Node27</title>
<path fill="none" stroke="midnightblue" d="M681.486,-95.408C698.735,-87.5879 723.851,-76.3479 746,-67 750.258,-65.2031 754.747,-63.3517 759.197,-61.5423"/>
<polygon fill="midnightblue" stroke="midnightblue" points="760.806,-64.6678 768.774,-57.6855 758.191,-58.1746 760.806,-64.6678"/>
</g>
<!-- Node28 -->
<g id="node28" class="node"><title>Node28</title>
<g id="a_node28"><a xlink:href="lcode_8c.html#a80466f0e006b20a0c0c04f6bcc5b656d" target="_top" xlink:title=" ">
<polygon fill="white" stroke="black" points="753.5,-114.5 753.5,-133.5 835.5,-133.5 835.5,-114.5 753.5,-114.5"/>
<text text-anchor="middle" x="794.5" y="-121.5" font-family="Helvetica,sans-Serif" font-size="10.00">luaK_setoneret</text>
</a>
</g>
</g>
<!-- Node25&#45;&gt;Node28 -->
<g id="edge32" class="edge"><title>Node25&#45;&gt;Node28</title>
<path fill="none" stroke="midnightblue" d="M710.024,-112.075C720.882,-113.626 732.387,-115.27 743.272,-116.825"/>
<polygon fill="midnightblue" stroke="midnightblue" points="743.083,-120.333 753.477,-118.282 744.073,-113.403 743.083,-120.333"/>
</g>
<!-- Node29&#45;&gt;Node16 -->
<g id="edge39" class="edge"><title>Node29&#45;&gt;Node16</title>
<path fill="none" stroke="midnightblue" d="M668.111,-399.504C685.434,-420.952 727.712,-472.239 746,-485 748.54,-486.773 751.27,-488.415 754.09,-489.929"/>
<polygon fill="midnightblue" stroke="midnightblue" points="752.755,-493.171 763.286,-494.335 755.78,-486.858 752.755,-493.171"/>
</g>
<!-- Node29&#45;&gt;Node22 -->
<g id="edge37" class="edge"><title>Node29&#45;&gt;Node22</title>
<path fill="none" stroke="midnightblue" d="M689.032,-398.152C706.923,-403.264 730.328,-409.951 750.449,-415.7"/>
<polygon fill="midnightblue" stroke="midnightblue" points="749.746,-419.139 760.323,-418.521 751.669,-412.408 749.746,-419.139"/>
</g>
<!-- Node30 -->
<g id="node30" class="node"><title>Node30</title>
<g id="a_node30"><a xlink:href="lcode_8c.html#a04beeab4c7c24c3b850206137e7f61f3" target="_top" xlink:title=" ">
<polygon fill="white" stroke="black" points="774,-342.5 774,-361.5 815,-361.5 815,-342.5 774,-342.5"/>
<text text-anchor="middle" x="794.5" y="-349.5" font-family="Helvetica,sans-Serif" font-size="10.00">fitsBx</text>
</a>
</g>
</g>
<!-- Node29&#45;&gt;Node30 -->
<g id="edge34" class="edge"><title>Node29&#45;&gt;Node30</title>
<path fill="none" stroke="midnightblue" d="M689.032,-381.848C711.139,-375.532 741.666,-366.81 764.012,-360.425"/>
<polygon fill="midnightblue" stroke="midnightblue" points="764.99,-363.786 773.644,-357.673 763.067,-357.055 764.99,-363.786"/>
</g>
<!-- Node31 -->
<g id="node31" class="node"><title>Node31</title>
<g id="a_node31"><a xlink:href="lcode_8c.html#a0cebf3e6a7318f6f9b8ebd96b1d1ed70" target="_top" xlink:title=" ">
<polygon fill="white" stroke="black" points="751.5,-380.5 751.5,-399.5 837.5,-399.5 837.5,-380.5 751.5,-380.5"/>
<text text-anchor="middle" x="794.5" y="-387.5" font-family="Helvetica,sans-Serif" font-size="10.00">luaK_codeAsBx</text>
</a>
</g>
</g>
<!-- Node29&#45;&gt;Node31 -->
<g id="edge35" class="edge"><title>Node29&#45;&gt;Node31</title>
<path fill="none" stroke="midnightblue" d="M689.032,-390C704.217,-390 723.376,-390 741.126,-390"/>
<polygon fill="midnightblue" stroke="midnightblue" points="741.374,-393.5 751.374,-390 741.374,-386.5 741.374,-393.5"/>
</g>
<!-- Node32 -->
<g id="node32" class="node"><title>Node32</title>
<g id="a_node32"><a xlink:href="lcode_8c.html#aa55d8b442bf4ee8c1c4838e4deec9a56" target="_top" xlink:title=" ">
<polygon fill="white" stroke="red" points="754.5,-456.5 754.5,-475.5 834.5,-475.5 834.5,-456.5 754.5,-456.5"/>
<text text-anchor="middle" x="794.5" y="-463.5" font-family="Helvetica,sans-Serif" font-size="10.00">luaK_numberK</text>
</a>
</g>
</g>
<!-- Node29&#45;&gt;Node32 -->
<g id="edge38" class="edge"><title>Node29&#45;&gt;Node32</title>
<path fill="none" stroke="midnightblue" d="M673.021,-399.559C689.242,-411.652 718.685,-432.632 746,-447 749.714,-448.954 753.675,-450.834 757.666,-452.6"/>
<polygon fill="midnightblue" stroke="midnightblue" points="756.354,-455.845 766.928,-456.498 759.069,-449.393 756.354,-455.845"/>
</g>
<!-- Node31&#45;&gt;Node4 -->
<g id="edge36" class="edge"><title>Node31&#45;&gt;Node4</title>
<path fill="none" stroke="midnightblue" d="M837.513,-388.914C871.649,-389.411 920.45,-393.31 960,-409 982.908,-418.088 1005.03,-435.868 1019.54,-449.166"/>
<polygon fill="midnightblue" stroke="midnightblue" points="1017.49,-452.041 1027.15,-456.378 1022.3,-446.959 1017.49,-452.041"/>
</g>
<!-- Node331&#45;&gt;Node22 -->
<g id="edge43" class="edge"><title>Node331&#45;&gt;Node22</title>
<path fill="none" stroke="midnightblue" d="M685.73,-359.231C693.857,-362.187 702.654,-366.087 710,-371 729.338,-383.933 726.753,-395.932 746,-409 748.719,-410.846 751.644,-412.555 754.659,-414.129"/>
<polygon fill="midnightblue" stroke="midnightblue" points="753.317,-417.365 763.857,-418.443 756.29,-411.028 753.317,-417.365"/>
</g>
<!-- Node331&#45;&gt;Node30 -->
<g id="edge41" class="edge"><title>Node331&#45;&gt;Node30</title>
<path fill="none" stroke="midnightblue" d="M685.516,-352C707.703,-352 740.146,-352 763.676,-352"/>
<polygon fill="midnightblue" stroke="midnightblue" points="763.79,-355.5 773.79,-352 763.79,-348.5 763.79,-355.5"/>
</g>
<!-- Node331&#45;&gt;Node31 -->
<g id="edge42" class="edge"><title>Node331&#45;&gt;Node31</title>
<path fill="none" stroke="midnightblue" d="M685.516,-359.148C703.705,-364.344 728.788,-371.511 750.201,-377.629"/>
<polygon fill="midnightblue" stroke="midnightblue" points="749.48,-381.063 760.057,-380.445 751.403,-374.332 749.48,-381.063"/>
</g>
<!-- Node156 -->
<g id="node34" class="node"><title>Node156</title>
<g id="a_node34"><a xlink:href="lcode_8c.html#a6154c1594ec12080f2393950eb2b98e3" target="_top" xlink:title=" ">
<polygon fill="white" stroke="red" points="765,-304.5 765,-323.5 824,-323.5 824,-304.5 765,-304.5"/>
<text text-anchor="middle" x="794.5" y="-311.5" font-family="Helvetica,sans-Serif" font-size="10.00">luaK_intK</text>
</a>
</g>
</g>
<!-- Node331&#45;&gt;Node156 -->
<g id="edge44" class="edge"><title>Node331&#45;&gt;Node156</title>
<path fill="none" stroke="midnightblue" d="M685.516,-344.852C705.092,-339.259 732.654,-331.384 755.032,-324.991"/>
<polygon fill="midnightblue" stroke="midnightblue" points="756.248,-328.284 764.902,-322.171 754.325,-321.553 756.248,-328.284"/>
</g>
<!-- Node187 -->
<g id="node36" class="node"><title>Node187</title>
<g id="a_node36"><a xlink:href="lcode_8c.html#a2d946f6d31e46b2607bd69d89ca1a9ce" target="_top" xlink:title=" ">
<polygon fill="white" stroke="black" points="746,-266.5 746,-285.5 843,-285.5 843,-266.5 746,-266.5"/>
<text text-anchor="middle" x="794.5" y="-273.5" font-family="Helvetica,sans-Serif" font-size="10.00">previousinstruction</text>
</a>
</g>
</g>
<!-- Node280&#45;&gt;Node187 -->
<g id="edge46" class="edge"><title>Node280&#45;&gt;Node187</title>
<path fill="none" stroke="midnightblue" d="M685.205,-306.942C703.363,-301.753 728.513,-294.568 750.007,-288.427"/>
<polygon fill="midnightblue" stroke="midnightblue" points="751.247,-291.712 759.901,-285.6 749.324,-284.982 751.247,-291.712"/>
</g>
<!-- Node165 -->
<g id="node39" class="node"><title>Node165</title>
<g id="a_node39"><a xlink:href="lcode_8c.html#a90b203d73d5f6e3ffb85079e746b028d" target="_top" xlink:title=" ">
<polygon fill="white" stroke="red" points="896,-570.5 896,-589.5 943,-589.5 943,-570.5 896,-570.5"/>
<text text-anchor="middle" x="919.5" y="-577.5" font-family="Helvetica,sans-Serif" font-size="10.00">fixjump</text>
</a>
</g>
</g>
<!-- Node164&#45;&gt;Node165 -->
<g id="edge49" class="edge"><title>Node164&#45;&gt;Node165</title>
<path fill="none" stroke="midnightblue" d="M830.09,-580C847.507,-580 868.512,-580 885.676,-580"/>
<polygon fill="midnightblue" stroke="midnightblue" points="885.801,-583.5 895.801,-580 885.801,-576.5 885.801,-583.5"/>
</g>
<!-- Node166 -->
<g id="node40" class="node"><title>Node166</title>
<g id="a_node40"><a xlink:href="lcode_8c.html#ac74dd95e53d610cf12e752f3075fe450" target="_top" xlink:title=" ">
<polygon fill="white" stroke="black" points="894,-646.5 894,-665.5 945,-665.5 945,-646.5 894,-646.5"/>
<text text-anchor="middle" x="919.5" y="-653.5" font-family="Helvetica,sans-Serif" font-size="10.00">getjump</text>
</a>
</g>
</g>
<!-- Node164&#45;&gt;Node166 -->
<g id="edge50" class="edge"><title>Node164&#45;&gt;Node166</title>
<path fill="none" stroke="midnightblue" d="M825.143,-589.557C831.299,-592.163 837.562,-595.308 843,-599 862.247,-612.068 860.207,-623.287 879,-637 881.228,-638.626 883.618,-640.173 886.078,-641.629"/>
<polygon fill="midnightblue" stroke="midnightblue" points="884.669,-644.846 895.135,-646.495 887.982,-638.679 884.669,-644.846"/>
</g>
<!-- Node167&#45;&gt;Node20 -->
<g id="edge54" class="edge"><title>Node167&#45;&gt;Node20</title>
<path fill="none" stroke="midnightblue" d="M560.931,-532.411C577.622,-527.551 598.089,-521.591 615.96,-516.387"/>
<polygon fill="midnightblue" stroke="midnightblue" points="616.957,-519.742 625.58,-513.586 615,-513.021 616.957,-519.742"/>
</g>
<!-- Node168 -->
<g id="node42" class="node"><title>Node168</title>
<g id="a_node42"><a xlink:href="lcode_8c.html#a4db596b358989fa68a43b6f697fc9a09" target="_top" xlink:title=" ">
<polygon fill="white" stroke="black" points="620.5,-532.5 620.5,-551.5 698.5,-551.5 698.5,-532.5 620.5,-532.5"/>
<text text-anchor="middle" x="659.5" y="-539.5" font-family="Helvetica,sans-Serif" font-size="10.00">luaK_patchlist</text>
</a>
</g>
</g>
<!-- Node167&#45;&gt;Node168 -->
<g id="edge55" class="edge"><title>Node167&#45;&gt;Node168</title>
<path fill="none" stroke="midnightblue" d="M573.276,-542C585.119,-542 597.934,-542 609.94,-542"/>
<polygon fill="midnightblue" stroke="midnightblue" points="610.238,-545.5 620.238,-542 610.238,-538.5 610.238,-545.5"/>
</g>
<!-- Node168&#45;&gt;Node169 -->
<g id="edge56" class="edge"><title>Node168&#45;&gt;Node169</title>
<path fill="none" stroke="midnightblue" d="M673.021,-551.559C689.242,-563.652 718.685,-584.632 746,-599 749.714,-600.954 753.675,-602.834 757.666,-604.6"/>
<polygon fill="midnightblue" stroke="midnightblue" points="756.354,-607.845 766.928,-608.498 759.069,-601.393 756.354,-607.845"/>
</g>
<!-- Node169&#45;&gt;Node165 -->
<g id="edge57" class="edge"><title>Node169&#45;&gt;Node165</title>
<path fill="none" stroke="midnightblue" d="M826.538,-608.411C844.672,-602.809 867.534,-595.746 885.926,-590.063"/>
<polygon fill="midnightblue" stroke="midnightblue" points="887.105,-593.363 895.626,-587.067 885.038,-586.675 887.105,-593.363"/>
</g>
<!-- Node169&#45;&gt;Node166 -->
<g id="edge58" class="edge"><title>Node169&#45;&gt;Node166</title>
<path fill="none" stroke="midnightblue" d="M826.538,-627.589C844.072,-633.006 866.025,-639.788 884.085,-645.368"/>
<polygon fill="midnightblue" stroke="midnightblue" points="883.077,-648.719 893.665,-648.327 885.143,-642.031 883.077,-648.719"/>
</g>
<!-- Node170 -->
<g id="node44" class="node"><title>Node170</title>
<g id="a_node44"><a xlink:href="lcode_8c.html#ac7ce05b875db5d3bdca16012f3bcad8e" target="_top" xlink:title=" ">
<polygon fill="white" stroke="black" points="884,-608.5 884,-627.5 955,-627.5 955,-608.5 884,-608.5"/>
<text text-anchor="middle" x="919.5" y="-615.5" font-family="Helvetica,sans-Serif" font-size="10.00">patchtestreg</text>
</a>
</g>
</g>
<!-- Node169&#45;&gt;Node170 -->
<g id="edge59" class="edge"><title>Node169&#45;&gt;Node170</title>
<path fill="none" stroke="midnightblue" d="M829.11,-618C842.733,-618 858.671,-618 873.287,-618"/>
<polygon fill="midnightblue" stroke="midnightblue" points="873.644,-621.5 883.644,-618 873.644,-614.5 873.644,-621.5"/>
</g>
<!-- Node171 -->
<g id="node45" class="node"><title>Node171</title>
<g id="a_node45"><a xlink:href="lcode_8c.html#a755e9c104abc7fa7bb87437964b19628" target="_top" xlink:title=" ">
<polygon fill="white" stroke="black" points="997.5,-684.5 997.5,-703.5 1077.5,-703.5 1077.5,-684.5 997.5,-684.5"/>
<text text-anchor="middle" x="1037.5" y="-691.5" font-family="Helvetica,sans-Serif" font-size="10.00">getjumpcontrol</text>
</a>
</g>
</g>
<!-- Node170&#45;&gt;Node171 -->
<g id="edge60" class="edge"><title>Node170&#45;&gt;Node171</title>
<path fill="none" stroke="midnightblue" d="M942.215,-627.524C948.107,-630.355 954.402,-633.611 960,-637 980.372,-649.332 1001.99,-665.792 1017.03,-677.853"/>
<polygon fill="midnightblue" stroke="midnightblue" points="1015.1,-680.792 1025.07,-684.382 1019.51,-675.359 1015.1,-680.792"/>
</g>
<!-- Node442&#45;&gt;Node166 -->
<g id="edge62" class="edge"><title>Node442&#45;&gt;Node166</title>
<path fill="none" stroke="midnightblue" d="M827.176,-656C844.469,-656 865.914,-656 883.676,-656"/>
<polygon fill="midnightblue" stroke="midnightblue" points="883.919,-659.5 893.919,-656 883.919,-652.5 883.919,-659.5"/>
</g>
<!-- Node442&#45;&gt;Node171 -->
<g id="edge63" class="edge"><title>Node442&#45;&gt;Node171</title>
<path fill="none" stroke="midnightblue" d="M805.226,-665.624C819.795,-679.286 848.813,-703.679 879,-713 919.487,-725.501 968.195,-716.115 1000.62,-706.633"/>
<polygon fill="midnightblue" stroke="midnightblue" points="1002.02,-709.865 1010.54,-703.579 999.958,-703.175 1002.02,-709.865"/>
</g>
<!-- Node143&#45;&gt;Node18 -->
<g id="edge67" class="edge"><title>Node143&#45;&gt;Node18</title>
<path fill="none" stroke="midnightblue" d="M275.301,-209.667C292.938,-254.524 366.959,-442.782 390.956,-503.813"/>
<polygon fill="midnightblue" stroke="midnightblue" points="387.797,-505.345 394.714,-513.371 394.312,-502.784 387.797,-505.345"/>
</g>
<!-- Node143&#45;&gt;Node25 -->
<g id="edge70" class="edge"><title>Node143&#45;&gt;Node25</title>
<path fill="none" stroke="midnightblue" d="M310.851,-190.477C324.481,-187.301 339.881,-183.849 354,-181 450.837,-161.463 478.48,-171.723 573,-143 593.138,-136.88 614.793,-127.221 631.272,-119.173"/>
<polygon fill="midnightblue" stroke="midnightblue" points="632.937,-122.253 640.325,-114.659 629.814,-115.989 632.937,-122.253"/>
</g>
<!-- Node144 -->
<g id="node48" class="node"><title>Node144</title>
<g id="a_node48"><a xlink:href="lcode_8c.html#a9d534bd7aa79921e7339c9c1106acea9" target="_top" xlink:title=" ">
<polygon fill="white" stroke="black" points="375.5,-190.5 375.5,-209.5 423.5,-209.5 423.5,-190.5 375.5,-190.5"/>
<text text-anchor="middle" x="399.5" y="-197.5" font-family="Helvetica,sans-Serif" font-size="10.00">freeexp</text>
</a>
</g>
</g>
<!-- Node143&#45;&gt;Node144 -->
<g id="edge68" class="edge"><title>Node143&#45;&gt;Node144</title>
<path fill="none" stroke="midnightblue" d="M318.069,-200C333.639,-200 350.674,-200 365.042,-200"/>
<polygon fill="midnightblue" stroke="midnightblue" points="365.441,-203.5 375.441,-200 365.441,-196.5 365.441,-203.5"/>
</g>
<!-- Node145 -->
<g id="node49" class="node"><title>Node145</title>
<g id="a_node49"><a xlink:href="lcode_8c.html#af1190942fb7a557b056ac8bbaa0024a1" target="_top" xlink:title=" ">
<polygon fill="white" stroke="black" points="354,-114.5 354,-133.5 445,-133.5 445,-114.5 354,-114.5"/>
<text text-anchor="middle" x="399.5" y="-121.5" font-family="Helvetica,sans-Serif" font-size="10.00">luaK_reserveregs</text>
</a>
</g>
</g>
<!-- Node143&#45;&gt;Node145 -->
<g id="edge71" class="edge"><title>Node143&#45;&gt;Node145</title>
<path fill="none" stroke="midnightblue" d="M285.921,-190.493C302.246,-179.829 329.73,-162.172 354,-148 359.439,-144.824 365.324,-141.543 370.979,-138.466"/>
<polygon fill="midnightblue" stroke="midnightblue" points="373.007,-141.35 380.158,-133.533 369.693,-135.184 373.007,-141.35"/>
</g>
<!-- Node144&#45;&gt;Node10 -->
<g id="edge69" class="edge"><title>Node144&#45;&gt;Node10</title>
<path fill="none" stroke="midnightblue" d="M423.764,-199.147C506.979,-196.094 790.011,-185.713 886.2,-182.185"/>
<polygon fill="midnightblue" stroke="midnightblue" points="886.602,-185.672 896.467,-181.808 886.345,-178.677 886.602,-185.672"/>
</g>
<!-- Node146 -->
<g id="node50" class="node"><title>Node146</title>
<g id="a_node50"><a xlink:href="lcode_8c.html#afd941e61245bcb4d05bd3ba5b4ffec3b" target="_top" xlink:title=" ">
<polygon fill="white" stroke="red" points="481,-114.5 481,-133.5 573,-133.5 573,-114.5 481,-114.5"/>
<text text-anchor="middle" x="527" y="-121.5" font-family="Helvetica,sans-Serif" font-size="10.00">luaK_checkstack</text>
</a>
</g>
</g>
<!-- Node145&#45;&gt;Node146 -->
<g id="edge72" class="edge"><title>Node145&#45;&gt;Node146</title>
<path fill="none" stroke="midnightblue" d="M445.1,-124C453.314,-124 461.983,-124 470.473,-124"/>
<polygon fill="midnightblue" stroke="midnightblue" points="470.697,-127.5 480.697,-124 470.697,-120.5 470.697,-127.5"/>
</g>
</g>
</svg>
