<?xml version="1.0" encoding="UTF-8" standalone="no"?>
<!DOCTYPE svg PUBLIC "-//W3C//DTD SVG 1.1//EN"
 "http://www.w3.org/Graphics/SVG/1.1/DTD/svg11.dtd">
<!-- Generated by graphviz version 2.38.0 (20140413.2041)
 -->
<!-- Title: db_setlocal Pages: 1 -->
<svg width="1528pt" height="712pt"
 viewBox="0.00 0.00 1528.00 712.00" xmlns="http://www.w3.org/2000/svg" xmlns:xlink="http://www.w3.org/1999/xlink">
<g id="graph0" class="graph" transform="scale(1 1) rotate(0) translate(4 708)">
<title>db_setlocal</title>
<polygon fill="white" stroke="none" points="-4,4 -4,-708 1524,-708 1524,4 -4,4"/>
<!-- Node1 -->
<g id="node1" class="node"><title>Node1</title>
<g id="a_node1"><a xlink:title=" ">
<polygon fill="#bfbfbf" stroke="black" points="0,-285.5 0,-304.5 66,-304.5 66,-285.5 0,-285.5"/>
<text text-anchor="middle" x="33" y="-292.5" font-family="Helvetica,sans-Serif" font-size="10.00">db_setlocal</text>
</a>
</g>
</g>
<!-- Node2 -->
<g id="node2" class="node"><title>Node2</title>
<g id="a_node2"><a xlink:href="ldblib_8c.html#aef541490d49259cf4cb14e7f9597600e" target="_top" xlink:title=" ">
<polygon fill="white" stroke="black" points="366.5,-494.5 366.5,-513.5 433.5,-513.5 433.5,-494.5 366.5,-494.5"/>
<text text-anchor="middle" x="400" y="-501.5" font-family="Helvetica,sans-Serif" font-size="10.00">checkstack</text>
</a>
</g>
</g>
<!-- Node1&#45;&gt;Node2 -->
<g id="edge1" class="edge"><title>Node1&#45;&gt;Node2</title>
<path fill="none" stroke="midnightblue" d="M35.4467,-304.727C39.9406,-331.308 56.2165,-405.604 102,-442 176.253,-501.028 293.006,-507.69 355.723,-506.45"/>
<polygon fill="midnightblue" stroke="midnightblue" points="356.148,-509.94 366.047,-506.164 355.954,-502.942 356.148,-509.94"/>
</g>
<!-- Node459 -->
<g id="node24" class="node"><title>Node459</title>
<g id="a_node24"><a xlink:href="ldebug_8c.html#ac1fc03c27ee46caa4037df2d70f22110" target="_top" xlink:title=" ">
<polygon fill="white" stroke="black" points="742,-608.5 742,-627.5 814,-627.5 814,-608.5 742,-608.5"/>
<text text-anchor="middle" x="778" y="-615.5" font-family="Helvetica,sans-Serif" font-size="10.00">lua_getstack</text>
</a>
</g>
</g>
<!-- Node1&#45;&gt;Node459 -->
<g id="edge36" class="edge"><title>Node1&#45;&gt;Node459</title>
<path fill="none" stroke="midnightblue" d="M35.4251,-304.656C44.4884,-362.065 99.3707,-656 273,-656 273,-656 273,-656 538.5,-656 606.468,-656 683.99,-640.763 731.713,-629.586"/>
<polygon fill="midnightblue" stroke="midnightblue" points="732.807,-632.923 741.722,-627.199 731.182,-626.114 732.807,-632.923"/>
</g>
<!-- Node461 -->
<g id="node26" class="node"><title>Node461</title>
<g id="a_node26"><a xlink:href="ldblib_8c.html#a75169427eed495886306b6236f365512" target="_top" xlink:title=" ">
<polygon fill="white" stroke="black" points="121,-38.5 121,-57.5 178,-57.5 178,-38.5 121,-38.5"/>
<text text-anchor="middle" x="149.5" y="-45.5" font-family="Helvetica,sans-Serif" font-size="10.00">getthread</text>
</a>
</g>
</g>
<!-- Node1&#45;&gt;Node461 -->
<g id="edge33" class="edge"><title>Node1&#45;&gt;Node461</title>
<path fill="none" stroke="midnightblue" d="M36.1956,-285.419C43.0275,-256.705 65.6547,-169.372 102,-105 110.206,-90.4664 122.152,-75.9169 131.881,-65.1553"/>
<polygon fill="midnightblue" stroke="midnightblue" points="134.542,-67.4332 138.79,-57.7272 129.416,-62.6658 134.542,-67.4332"/>
</g>
<!-- Node464 -->
<g id="node29" class="node"><title>Node464</title>
<g id="a_node29"><a xlink:href="lapi_8c.html#a771d300f2e64b2197d1df9bf31660ebf" target="_top" xlink:title=" ">
<polygon fill="white" stroke="black" points="626,-152.5 626,-171.5 706,-171.5 706,-152.5 626,-152.5"/>
<text text-anchor="middle" x="666" y="-159.5" font-family="Helvetica,sans-Serif" font-size="10.00">lua_pushstring</text>
</a>
</g>
</g>
<!-- Node1&#45;&gt;Node464 -->
<g id="edge37" class="edge"><title>Node1&#45;&gt;Node464</title>
<path fill="none" stroke="midnightblue" d="M39.4228,-285.257C49.3659,-268.447 72.2541,-234.327 102,-219 169.975,-183.976 196.532,-200 273,-200 273,-200 273,-200 401,-200 476.536,-200 563.001,-184.571 615.796,-173.376"/>
<polygon fill="midnightblue" stroke="midnightblue" points="616.855,-176.728 625.893,-171.199 615.38,-169.885 616.855,-176.728"/>
</g>
<!-- Node465 -->
<g id="node31" class="node"><title>Node465</title>
<g id="a_node31"><a xlink:href="ldebug_8c.html#a425c37b17caf76545f1541a5bb81dfc6" target="_top" xlink:title=" ">
<polygon fill="white" stroke="black" points="115.5,-342.5 115.5,-361.5 183.5,-361.5 183.5,-342.5 115.5,-342.5"/>
<text text-anchor="middle" x="149.5" y="-349.5" font-family="Helvetica,sans-Serif" font-size="10.00">lua_setlocal</text>
</a>
</g>
</g>
<!-- Node1&#45;&gt;Node465 -->
<g id="edge40" class="edge"><title>Node1&#45;&gt;Node465</title>
<path fill="none" stroke="midnightblue" d="M53.1647,-304.541C71.4936,-313.665 99.3543,-327.534 120.231,-337.927"/>
<polygon fill="midnightblue" stroke="midnightblue" points="118.761,-341.105 129.273,-342.428 121.88,-334.839 118.761,-341.105"/>
</g>
<!-- Node466 -->
<g id="node36" class="node"><title>Node466</title>
<g id="a_node36"><a xlink:href="lapi_8c.html#adaa30f0d34786144c94644039d1d1b6e" target="_top" xlink:title=" ">
<polygon fill="white" stroke="black" points="635,-418.5 635,-437.5 697,-437.5 697,-418.5 635,-418.5"/>
<text text-anchor="middle" x="666" y="-425.5" font-family="Helvetica,sans-Serif" font-size="10.00">lua_settop</text>
</a>
</g>
</g>
<!-- Node1&#45;&gt;Node466 -->
<g id="edge45" class="edge"><title>Node1&#45;&gt;Node466</title>
<path fill="none" stroke="midnightblue" d="M40.1267,-304.625C50.8005,-320.647 74.3303,-352.819 102,-371 168.952,-414.991 192.889,-428 273,-428 273,-428 273,-428 401,-428 480.327,-428 573.061,-428 624.815,-428"/>
<polygon fill="midnightblue" stroke="midnightblue" points="624.91,-431.5 634.91,-428 624.91,-424.5 624.91,-431.5"/>
</g>
<!-- Node467 -->
<g id="node37" class="node"><title>Node467</title>
<g id="a_node37"><a xlink:href="lapi_8c.html#ae27bb8d0218710bbbfefc1f573839d6d" target="_top" xlink:title=" ">
<polygon fill="white" stroke="black" points="118.5,-228.5 118.5,-247.5 180.5,-247.5 180.5,-228.5 118.5,-228.5"/>
<text text-anchor="middle" x="149.5" y="-235.5" font-family="Helvetica,sans-Serif" font-size="10.00">lua_xmove</text>
</a>
</g>
</g>
<!-- Node1&#45;&gt;Node467 -->
<g id="edge47" class="edge"><title>Node1&#45;&gt;Node467</title>
<path fill="none" stroke="midnightblue" d="M53.1647,-285.459C71.4936,-276.335 99.3543,-262.466 120.231,-252.073"/>
<polygon fill="midnightblue" stroke="midnightblue" points="121.88,-255.161 129.273,-247.572 118.761,-248.895 121.88,-255.161"/>
</g>
<!-- Node468 -->
<g id="node38" class="node"><title>Node468</title>
<g id="a_node38"><a xlink:href="lauxlib_8c.html#ac607576dd107a3120cd51948989f1ed2" target="_top" xlink:title=" ">
<polygon fill="white" stroke="black" points="363.5,-266.5 363.5,-285.5 436.5,-285.5 436.5,-266.5 363.5,-266.5"/>
<text text-anchor="middle" x="400" y="-273.5" font-family="Helvetica,sans-Serif" font-size="10.00">luaL_argerror</text>
</a>
</g>
</g>
<!-- Node1&#45;&gt;Node468 -->
<g id="edge48" class="edge"><title>Node1&#45;&gt;Node468</title>
<path fill="none" stroke="midnightblue" d="M66.1984,-297.662C118.602,-301.399 225.489,-306.536 315,-295 327.754,-293.356 341.42,-290.672 353.945,-287.833"/>
<polygon fill="midnightblue" stroke="midnightblue" points="354.772,-291.234 363.706,-285.539 353.17,-284.42 354.772,-291.234"/>
</g>
<!-- Node482 -->
<g id="node45" class="node"><title>Node482</title>
<g id="a_node45"><a xlink:href="lauxlib_8c.html#a8ebfe706b773eaaf50283e6583d4642e" target="_top" xlink:title=" ">
<polygon fill="white" stroke="black" points="233,-266.5 233,-285.5 315,-285.5 315,-266.5 233,-266.5"/>
<text text-anchor="middle" x="274" y="-273.5" font-family="Helvetica,sans-Serif" font-size="10.00">luaL_checkany</text>
</a>
</g>
</g>
<!-- Node1&#45;&gt;Node482 -->
<g id="edge65" class="edge"><title>Node1&#45;&gt;Node482</title>
<path fill="none" stroke="midnightblue" d="M66.2326,-292.438C106.474,-289.238 175.745,-283.732 222.92,-279.981"/>
<polygon fill="midnightblue" stroke="midnightblue" points="223.236,-283.467 232.927,-279.186 222.681,-276.489 223.236,-283.467"/>
</g>
<!-- Node483 -->
<g id="node46" class="node"><title>Node483</title>
<g id="a_node46"><a xlink:href="lauxlib_8c.html#aa15bea412c49bfdee1f3dbff096ce7d2" target="_top" xlink:title=" ">
<polygon fill="white" stroke="black" points="102,-114.5 102,-133.5 197,-133.5 197,-114.5 102,-114.5"/>
<text text-anchor="middle" x="149.5" y="-121.5" font-family="Helvetica,sans-Serif" font-size="10.00">luaL_checkinteger</text>
</a>
</g>
</g>
<!-- Node1&#45;&gt;Node483 -->
<g id="edge68" class="edge"><title>Node1&#45;&gt;Node483</title>
<path fill="none" stroke="midnightblue" d="M39.5558,-285.495C50.831,-266.343 77.4191,-221.881 102,-186 112.402,-170.816 124.965,-154.155 134.409,-141.933"/>
<polygon fill="midnightblue" stroke="midnightblue" points="137.28,-143.943 140.659,-133.901 131.756,-139.644 137.28,-143.943"/>
</g>
<!-- Node3 -->
<g id="node3" class="node"><title>Node3</title>
<g id="a_node3"><a xlink:href="lapi_8c.html#a1d762b92d5d82d6fa9f54ccf5c89d6a2" target="_top" xlink:title=" ">
<polygon fill="white" stroke="black" points="495,-684.5 495,-703.5 580,-703.5 580,-684.5 495,-684.5"/>
<text text-anchor="middle" x="537.5" y="-691.5" font-family="Helvetica,sans-Serif" font-size="10.00">lua_checkstack</text>
</a>
</g>
</g>
<!-- Node2&#45;&gt;Node3 -->
<g id="edge2" class="edge"><title>Node2&#45;&gt;Node3</title>
<path fill="none" stroke="midnightblue" d="M406.761,-513.56C419.898,-535.178 453.383,-589.264 485,-632 496.495,-647.538 510.578,-664.358 521.11,-676.553"/>
<polygon fill="midnightblue" stroke="midnightblue" points="518.551,-678.944 527.759,-684.185 523.829,-674.346 518.551,-678.944"/>
</g>
<!-- Node447 -->
<g id="node13" class="node"><title>Node447</title>
<g id="a_node13"><a xlink:href="lauxlib_8c.html#a6c51d83d29244779392551388913e08a" target="_top" xlink:title=" ">
<polygon fill="white" stroke="black" points="508,-494.5 508,-513.5 567,-513.5 567,-494.5 508,-494.5"/>
<text text-anchor="middle" x="537.5" y="-501.5" font-family="Helvetica,sans-Serif" font-size="10.00">luaL_error</text>
</a>
</g>
</g>
<!-- Node2&#45;&gt;Node447 -->
<g id="edge15" class="edge"><title>Node2&#45;&gt;Node447</title>
<path fill="none" stroke="midnightblue" d="M433.801,-504C453.01,-504 477.38,-504 497.56,-504"/>
<polygon fill="midnightblue" stroke="midnightblue" points="497.681,-507.5 507.681,-504 497.681,-500.5 497.681,-507.5"/>
</g>
<!-- Node4 -->
<g id="node4" class="node"><title>Node4</title>
<g id="a_node4"><a xlink:href="ldo_8c.html#a728937587ac9d9e316bd410991f11221" target="_top" xlink:title=" ">
<polygon fill="white" stroke="black" points="850,-646.5 850,-665.5 936,-665.5 936,-646.5 850,-646.5"/>
<text text-anchor="middle" x="893" y="-653.5" font-family="Helvetica,sans-Serif" font-size="10.00">luaD_growstack</text>
</a>
</g>
</g>
<!-- Node3&#45;&gt;Node4 -->
<g id="edge3" class="edge"><title>Node3&#45;&gt;Node4</title>
<path fill="none" stroke="midnightblue" d="M580.09,-689.529C644.714,-682.582 769.132,-669.208 839.732,-661.619"/>
<polygon fill="midnightblue" stroke="midnightblue" points="840.176,-665.091 849.745,-660.542 839.428,-658.131 840.176,-665.091"/>
</g>
<!-- Node5 -->
<g id="node5" class="node"><title>Node5</title>
<g id="a_node5"><a xlink:href="ldo_8c.html#a75b8b0016e9182d4fd9f71c1a7238e8a" target="_top" xlink:title=" ">
<polygon fill="white" stroke="red" points="972,-665.5 972,-684.5 1066,-684.5 1066,-665.5 972,-665.5"/>
<text text-anchor="middle" x="1019" y="-672.5" font-family="Helvetica,sans-Serif" font-size="10.00">luaD_reallocstack</text>
</a>
</g>
</g>
<!-- Node4&#45;&gt;Node5 -->
<g id="edge4" class="edge"><title>Node4&#45;&gt;Node5</title>
<path fill="none" stroke="midnightblue" d="M936.327,-662.486C944.496,-663.737 953.174,-665.067 961.706,-666.374"/>
<polygon fill="midnightblue" stroke="midnightblue" points="961.201,-669.838 971.616,-667.893 962.262,-662.919 961.201,-669.838"/>
</g>
<!-- Node7 -->
<g id="node6" class="node"><title>Node7</title>
<g id="a_node6"><a xlink:href="ldo_8c.html#a2b46d9db5b9ca3d5402a0c2ac640a6b0" target="_top" xlink:title=" ">
<polygon fill="white" stroke="red" points="1231,-579.5 1231,-598.5 1296,-598.5 1296,-579.5 1231,-579.5"/>
<text text-anchor="middle" x="1263.5" y="-586.5" font-family="Helvetica,sans-Serif" font-size="10.00">luaD_throw</text>
</a>
</g>
</g>
<!-- Node4&#45;&gt;Node7 -->
<g id="edge5" class="edge"><title>Node4&#45;&gt;Node7</title>
<path fill="none" stroke="midnightblue" d="M936.166,-650.85C994.648,-643.35 1103.52,-628.098 1195,-608 1203.73,-606.083 1213,-603.704 1221.78,-601.285"/>
<polygon fill="midnightblue" stroke="midnightblue" points="1222.76,-604.644 1231.44,-598.56 1220.86,-597.907 1222.76,-604.644"/>
</g>
<!-- Node21 -->
<g id="node10" class="node"><title>Node21</title>
<g id="a_node10"><a xlink:href="ldebug_8c.html#a88d38ca5da2e7a1492fc9d5ad70c32c5" target="_top" xlink:title=" ">
<polygon fill="white" stroke="red" points="981.5,-551.5 981.5,-570.5 1056.5,-570.5 1056.5,-551.5 981.5,-551.5"/>
<text text-anchor="middle" x="1019" y="-558.5" font-family="Helvetica,sans-Serif" font-size="10.00">luaG_runerror</text>
</a>
</g>
</g>
<!-- Node4&#45;&gt;Node21 -->
<g id="edge10" class="edge"><title>Node4&#45;&gt;Node21</title>
<path fill="none" stroke="midnightblue" d="M901.717,-646.397C914.759,-630.692 942.624,-599.333 972,-580 974.743,-578.195 977.685,-576.507 980.707,-574.942"/>
<polygon fill="midnightblue" stroke="midnightblue" points="982.335,-578.043 989.891,-570.616 979.353,-571.71 982.335,-578.043"/>
</g>
<!-- Node7&#45;&gt;Node7 -->
<g id="edge6" class="edge"><title>Node7&#45;&gt;Node7</title>
<path fill="none" stroke="midnightblue" d="M1248.09,-598.757C1240.59,-607.565 1245.73,-617 1263.5,-617 1274.61,-617 1280.78,-613.315 1282.02,-608.4"/>
<polygon fill="midnightblue" stroke="midnightblue" points="1285.31,-607.203 1278.91,-598.757 1278.65,-609.349 1285.31,-607.203"/>
</g>
<!-- Node9 -->
<g id="node7" class="node"><title>Node9</title>
<g id="a_node7"><a xlink:href="lfunc_8c.html#ae9fcbf80b5969afd9412b9aed102f94e" target="_top" xlink:title=" ">
<polygon fill="white" stroke="black" points="1332,-475.5 1332,-494.5 1396,-494.5 1396,-475.5 1332,-475.5"/>
<text text-anchor="middle" x="1364" y="-482.5" font-family="Helvetica,sans-Serif" font-size="10.00">luaF_close</text>
</a>
</g>
</g>
<!-- Node7&#45;&gt;Node9 -->
<g id="edge7" class="edge"><title>Node7&#45;&gt;Node9</title>
<path fill="none" stroke="midnightblue" d="M1273.59,-579.402C1290.3,-561.757 1326.1,-523.956 1346.98,-501.915"/>
<polygon fill="midnightblue" stroke="midnightblue" points="1349.6,-504.242 1353.93,-494.574 1344.51,-499.428 1349.6,-504.242"/>
</g>
<!-- Node10 -->
<g id="node8" class="node"><title>Node10</title>
<g id="a_node8"><a xlink:href="lfunc_8c.html#a4105c820bb9b1b4b4b3bd6613b0ccb05" target="_top" xlink:title=" ">
<polygon fill="white" stroke="red" points="1440.5,-494.5 1440.5,-513.5 1511.5,-513.5 1511.5,-494.5 1440.5,-494.5"/>
<text text-anchor="middle" x="1476" y="-501.5" font-family="Helvetica,sans-Serif" font-size="10.00">callclosemth</text>
</a>
</g>
</g>
<!-- Node9&#45;&gt;Node10 -->
<g id="edge8" class="edge"><title>Node9&#45;&gt;Node10</title>
<path fill="none" stroke="midnightblue" d="M1396.23,-490.394C1406.73,-492.208 1418.67,-494.27 1430.02,-496.23"/>
<polygon fill="midnightblue" stroke="midnightblue" points="1429.76,-499.738 1440.21,-497.992 1430.96,-492.84 1429.76,-499.738"/>
</g>
<!-- Node93 -->
<g id="node9" class="node"><title>Node93</title>
<g id="a_node9"><a xlink:href="lfunc_8c.html#a3b5a5ae122e85af5c941e9b4ffff53bd" target="_top" xlink:title=" ">
<polygon fill="white" stroke="black" points="1432,-456.5 1432,-475.5 1520,-475.5 1520,-456.5 1432,-456.5"/>
<text text-anchor="middle" x="1476" y="-463.5" font-family="Helvetica,sans-Serif" font-size="10.00">luaF_unlinkupval</text>
</a>
</g>
</g>
<!-- Node9&#45;&gt;Node93 -->
<g id="edge9" class="edge"><title>Node9&#45;&gt;Node93</title>
<path fill="none" stroke="midnightblue" d="M1396.23,-479.606C1404.26,-478.219 1413.12,-476.688 1421.93,-475.167"/>
<polygon fill="midnightblue" stroke="midnightblue" points="1422.53,-478.615 1431.79,-473.464 1421.34,-471.717 1422.53,-478.615"/>
</g>
<!-- Node127 -->
<g id="node11" class="node"><title>Node127</title>
<g id="a_node11"><a xlink:href="ldebug_8c.html#af7366920f8408bb33ed01b1d6c0e1238" target="_top" xlink:title=" ">
<polygon fill="white" stroke="red" points="1108.5,-579.5 1108.5,-598.5 1188.5,-598.5 1188.5,-579.5 1108.5,-579.5"/>
<text text-anchor="middle" x="1148.5" y="-586.5" font-family="Helvetica,sans-Serif" font-size="10.00">luaG_errormsg</text>
</a>
</g>
</g>
<!-- Node21&#45;&gt;Node127 -->
<g id="edge11" class="edge"><title>Node21&#45;&gt;Node127</title>
<path fill="none" stroke="midnightblue" d="M1056.54,-569.024C1069.56,-571.885 1084.46,-575.155 1098.37,-578.21"/>
<polygon fill="midnightblue" stroke="midnightblue" points="1097.77,-581.661 1108.28,-580.388 1099.27,-574.824 1097.77,-581.661"/>
</g>
<!-- Node29 -->
<g id="node12" class="node"><title>Node29</title>
<g id="a_node12"><a xlink:href="lobject_8c.html#aa83fa444a36d79521e846a766fa083d5" target="_top" xlink:title=" ">
<polygon fill="white" stroke="red" points="1102,-522.5 1102,-541.5 1195,-541.5 1195,-522.5 1102,-522.5"/>
<text text-anchor="middle" x="1148.5" y="-529.5" font-family="Helvetica,sans-Serif" font-size="10.00">luaO_pushvfstring</text>
</a>
</g>
</g>
<!-- Node21&#45;&gt;Node29 -->
<g id="edge13" class="edge"><title>Node21&#45;&gt;Node29</title>
<path fill="none" stroke="midnightblue" d="M1039.64,-551.496C1053.68,-546.966 1073.3,-541.948 1091.97,-537.93"/>
<polygon fill="midnightblue" stroke="midnightblue" points="1092.83,-541.328 1101.91,-535.87 1091.4,-534.473 1092.83,-541.328"/>
</g>
<!-- Node127&#45;&gt;Node7 -->
<g id="edge12" class="edge"><title>Node127&#45;&gt;Node7</title>
<path fill="none" stroke="midnightblue" d="M1188.7,-589C1199.03,-589 1210.21,-589 1220.67,-589"/>
<polygon fill="midnightblue" stroke="midnightblue" points="1220.83,-592.5 1230.83,-589 1220.83,-585.5 1220.83,-592.5"/>
</g>
<!-- Node29&#45;&gt;Node21 -->
<g id="edge14" class="edge"><title>Node29&#45;&gt;Node21</title>
<path fill="none" stroke="midnightblue" d="M1127.58,-541.594C1111.29,-546.833 1087.59,-552.71 1066.59,-556.931"/>
<polygon fill="midnightblue" stroke="midnightblue" points="1065.7,-553.538 1056.54,-558.86 1067.02,-560.413 1065.7,-553.538"/>
</g>
<!-- Node448 -->
<g id="node14" class="node"><title>Node448</title>
<g id="a_node14"><a xlink:href="lapi_8c.html#a1de3afee1daece63d455f23818c883d9" target="_top" xlink:title=" ">
<polygon fill="white" stroke="black" points="746,-437.5 746,-456.5 810,-456.5 810,-437.5 746,-437.5"/>
<text text-anchor="middle" x="778" y="-444.5" font-family="Helvetica,sans-Serif" font-size="10.00">lua_concat</text>
</a>
</g>
</g>
<!-- Node447&#45;&gt;Node448 -->
<g id="edge16" class="edge"><title>Node447&#45;&gt;Node448</title>
<path fill="none" stroke="midnightblue" d="M567.269,-497.124C609.371,-487.062 687.978,-468.276 736.084,-456.779"/>
<polygon fill="midnightblue" stroke="midnightblue" points="736.95,-460.17 745.862,-454.442 735.323,-453.362 736.95,-460.17"/>
</g>
<!-- Node449 -->
<g id="node18" class="node"><title>Node449</title>
<g id="a_node18"><a xlink:href="lapi_8c.html#a6ba7b91143fe8a03910420d800de8e97" target="_top" xlink:title=" ">
<polygon fill="white" stroke="black" points="992,-589.5 992,-608.5 1046,-608.5 1046,-589.5 992,-589.5"/>
<text text-anchor="middle" x="1019" y="-596.5" font-family="Helvetica,sans-Serif" font-size="10.00">lua_error</text>
</a>
</g>
</g>
<!-- Node447&#45;&gt;Node449 -->
<g id="edge22" class="edge"><title>Node447&#45;&gt;Node449</title>
<path fill="none" stroke="midnightblue" d="M567.029,-509.163C574.875,-511.398 583.113,-514.558 590,-519 610.661,-532.325 604.186,-549.66 626,-561 687.378,-592.908 896.631,-598.115 981.648,-598.897"/>
<polygon fill="midnightblue" stroke="midnightblue" points="981.828,-602.398 991.854,-598.975 981.881,-595.398 981.828,-602.398"/>
</g>
<!-- Node450 -->
<g id="node19" class="node"><title>Node450</title>
<g id="a_node19"><a xlink:href="lapi_8c.html#a426c9cb1d582be3e43060c4772854e5a" target="_top" xlink:title=" ">
<polygon fill="white" stroke="black" points="976,-475.5 976,-494.5 1062,-494.5 1062,-475.5 976,-475.5"/>
<text text-anchor="middle" x="1019" y="-482.5" font-family="Helvetica,sans-Serif" font-size="10.00">lua_pushvfstring</text>
</a>
</g>
</g>
<!-- Node447&#45;&gt;Node450 -->
<g id="edge24" class="edge"><title>Node447&#45;&gt;Node450</title>
<path fill="none" stroke="midnightblue" d="M567.059,-502.868C645.338,-499.767 864.209,-491.094 965.431,-487.083"/>
<polygon fill="midnightblue" stroke="midnightblue" points="965.87,-490.568 975.724,-486.675 965.593,-483.574 965.87,-490.568"/>
</g>
<!-- Node451 -->
<g id="node20" class="node"><title>Node451</title>
<g id="a_node20"><a xlink:href="lauxlib_8c.html#a0f4d3c30c07eae36aa25605df84279a0" target="_top" xlink:title=" ">
<polygon fill="white" stroke="black" points="633.5,-532.5 633.5,-551.5 698.5,-551.5 698.5,-532.5 633.5,-532.5"/>
<text text-anchor="middle" x="666" y="-539.5" font-family="Helvetica,sans-Serif" font-size="10.00">luaL_where</text>
</a>
</g>
</g>
<!-- Node447&#45;&gt;Node451 -->
<g id="edge26" class="edge"><title>Node447&#45;&gt;Node451</title>
<path fill="none" stroke="midnightblue" d="M567.205,-512.623C583.888,-517.634 605.197,-524.036 623.663,-529.583"/>
<polygon fill="midnightblue" stroke="midnightblue" points="622.716,-532.953 633.301,-532.478 624.73,-526.249 622.716,-532.953"/>
</g>
<!-- Node34 -->
<g id="node15" class="node"><title>Node34</title>
<g id="a_node15"><a xlink:href="lstring_8c.html#ab41fb084ce3ea5e2779f6659ccc2484d" target="_top" xlink:title=" ">
<polygon fill="white" stroke="red" points="983,-418.5 983,-437.5 1055,-437.5 1055,-418.5 983,-418.5"/>
<text text-anchor="middle" x="1019" y="-425.5" font-family="Helvetica,sans-Serif" font-size="10.00">luaS_newlstr</text>
</a>
</g>
</g>
<!-- Node448&#45;&gt;Node34 -->
<g id="edge17" class="edge"><title>Node448&#45;&gt;Node34</title>
<path fill="none" stroke="midnightblue" d="M810.245,-444.516C851.739,-441.217 925.309,-435.369 972.843,-431.59"/>
<polygon fill="midnightblue" stroke="midnightblue" points="973.172,-435.075 982.863,-430.793 972.617,-428.097 973.172,-435.075"/>
</g>
<!-- Node117 -->
<g id="node17" class="node"><title>Node117</title>
<g id="a_node17"><a xlink:href="lvm_8c.html#a2f076040af405dcb50d661edd692eca7" target="_top" xlink:title=" ">
<polygon fill="white" stroke="red" points="857.5,-456.5 857.5,-475.5 928.5,-475.5 928.5,-456.5 857.5,-456.5"/>
<text text-anchor="middle" x="893" y="-463.5" font-family="Helvetica,sans-Serif" font-size="10.00">luaV_concat</text>
</a>
</g>
</g>
<!-- Node448&#45;&gt;Node117 -->
<g id="edge19" class="edge"><title>Node448&#45;&gt;Node117</title>
<path fill="none" stroke="midnightblue" d="M810.177,-452.242C821.609,-454.164 834.785,-456.38 847.178,-458.464"/>
<polygon fill="midnightblue" stroke="midnightblue" points="846.906,-461.967 857.348,-460.173 848.066,-455.064 846.906,-461.967"/>
</g>
<!-- Node35 -->
<g id="node16" class="node"><title>Node35</title>
<g id="a_node16"><a xlink:href="lstring_8c.html#a9b2c32c59a280de24f20df1c7f0433a1" target="_top" xlink:title=" ">
<polygon fill="white" stroke="red" points="1116,-418.5 1116,-437.5 1181,-437.5 1181,-418.5 1116,-418.5"/>
<text text-anchor="middle" x="1148.5" y="-425.5" font-family="Helvetica,sans-Serif" font-size="10.00">internshrstr</text>
</a>
</g>
</g>
<!-- Node34&#45;&gt;Node35 -->
<g id="edge18" class="edge"><title>Node34&#45;&gt;Node35</title>
<path fill="none" stroke="midnightblue" d="M1055.18,-428C1070.78,-428 1089.26,-428 1105.57,-428"/>
<polygon fill="midnightblue" stroke="midnightblue" points="1105.92,-431.5 1115.92,-428 1105.92,-424.5 1105.92,-431.5"/>
</g>
<!-- Node117&#45;&gt;Node21 -->
<g id="edge20" class="edge"><title>Node117&#45;&gt;Node21</title>
<path fill="none" stroke="midnightblue" d="M906.803,-475.809C928.262,-492.249 971.667,-525.503 997.443,-545.251"/>
<polygon fill="midnightblue" stroke="midnightblue" points="995.384,-548.083 1005.45,-551.386 999.642,-542.526 995.384,-548.083"/>
</g>
<!-- Node117&#45;&gt;Node34 -->
<g id="edge21" class="edge"><title>Node117&#45;&gt;Node34</title>
<path fill="none" stroke="midnightblue" d="M925.29,-456.411C941.004,-451.596 960.238,-445.701 977.106,-440.532"/>
<polygon fill="midnightblue" stroke="midnightblue" points="978.184,-443.862 986.72,-437.586 976.133,-437.17 978.184,-443.862"/>
</g>
<!-- Node449&#45;&gt;Node127 -->
<g id="edge23" class="edge"><title>Node449&#45;&gt;Node127</title>
<path fill="none" stroke="midnightblue" d="M1046.11,-596.952C1061.09,-595.777 1080.39,-594.263 1098.13,-592.872"/>
<polygon fill="midnightblue" stroke="midnightblue" points="1098.65,-596.342 1108.35,-592.071 1098.11,-589.363 1098.65,-596.342"/>
</g>
<!-- Node450&#45;&gt;Node29 -->
<g id="edge25" class="edge"><title>Node450&#45;&gt;Node29</title>
<path fill="none" stroke="midnightblue" d="M1045.8,-494.511C1064.77,-501.504 1090.79,-511.096 1111.76,-518.827"/>
<polygon fill="midnightblue" stroke="midnightblue" points="1110.71,-522.167 1121.3,-522.342 1113.13,-515.599 1110.71,-522.167"/>
</g>
<!-- Node452 -->
<g id="node21" class="node"><title>Node452</title>
<g id="a_node21"><a xlink:href="ldebug_8c.html#acaafc35d8e385c4d167229486165df6d" target="_top" xlink:title=" ">
<polygon fill="white" stroke="black" points="746.5,-342.5 746.5,-361.5 809.5,-361.5 809.5,-342.5 746.5,-342.5"/>
<text text-anchor="middle" x="778" y="-349.5" font-family="Helvetica,sans-Serif" font-size="10.00">lua_getinfo</text>
</a>
</g>
</g>
<!-- Node451&#45;&gt;Node452 -->
<g id="edge27" class="edge"><title>Node451&#45;&gt;Node452</title>
<path fill="none" stroke="midnightblue" d="M672.606,-532.317C689.961,-502.34 743.02,-410.693 766.093,-370.839"/>
<polygon fill="midnightblue" stroke="midnightblue" points="769.292,-372.3 771.273,-361.892 763.234,-368.792 769.292,-372.3"/>
</g>
<!-- Node451&#45;&gt;Node459 -->
<g id="edge30" class="edge"><title>Node451&#45;&gt;Node459</title>
<path fill="none" stroke="midnightblue" d="M680.932,-551.625C699.528,-564.474 732.679,-587.378 754.755,-602.63"/>
<polygon fill="midnightblue" stroke="midnightblue" points="752.965,-605.648 763.182,-608.453 756.944,-599.889 752.965,-605.648"/>
</g>
<!-- Node460 -->
<g id="node25" class="node"><title>Node460</title>
<g id="a_node25"><a xlink:href="lapi_8c.html#ab190c226d38b289e6ca57683a9d4e0f0" target="_top" xlink:title=" ">
<polygon fill="white" stroke="black" points="852,-532.5 852,-551.5 934,-551.5 934,-532.5 852,-532.5"/>
<text text-anchor="middle" x="893" y="-539.5" font-family="Helvetica,sans-Serif" font-size="10.00">lua_pushfstring</text>
</a>
</g>
</g>
<!-- Node451&#45;&gt;Node460 -->
<g id="edge31" class="edge"><title>Node451&#45;&gt;Node460</title>
<path fill="none" stroke="midnightblue" d="M698.76,-542C735.88,-542 797.787,-542 841.514,-542"/>
<polygon fill="midnightblue" stroke="midnightblue" points="841.658,-545.5 851.658,-542 841.658,-538.5 841.658,-545.5"/>
</g>
<!-- Node453 -->
<g id="node22" class="node"><title>Node453</title>
<g id="a_node22"><a xlink:href="ldebug_8c.html#ad72fa774194e83872bac4e5bf6ec1160" target="_top" xlink:title=" ">
<polygon fill="white" stroke="red" points="862.5,-304.5 862.5,-323.5 923.5,-323.5 923.5,-304.5 862.5,-304.5"/>
<text text-anchor="middle" x="893" y="-311.5" font-family="Helvetica,sans-Serif" font-size="10.00">auxgetinfo</text>
</a>
</g>
</g>
<!-- Node452&#45;&gt;Node453 -->
<g id="edge28" class="edge"><title>Node452&#45;&gt;Node453</title>
<path fill="none" stroke="midnightblue" d="M807.515,-342.411C821.567,-337.686 838.708,-331.921 853.87,-326.823"/>
<polygon fill="midnightblue" stroke="midnightblue" points="855.132,-330.091 863.494,-323.586 852.9,-323.456 855.132,-330.091"/>
</g>
<!-- Node457 -->
<g id="node23" class="node"><title>Node457</title>
<g id="a_node23"><a xlink:href="ldebug_8c.html#a6e3195fc94af1f75142c2801ca8cf058" target="_top" xlink:title=" ">
<polygon fill="white" stroke="red" points="851,-342.5 851,-361.5 935,-361.5 935,-342.5 851,-342.5"/>
<text text-anchor="middle" x="893" y="-349.5" font-family="Helvetica,sans-Serif" font-size="10.00">collectvalidlines</text>
</a>
</g>
</g>
<!-- Node452&#45;&gt;Node457 -->
<g id="edge29" class="edge"><title>Node452&#45;&gt;Node457</title>
<path fill="none" stroke="midnightblue" d="M809.579,-352C819.189,-352 830.075,-352 840.713,-352"/>
<polygon fill="midnightblue" stroke="midnightblue" points="840.786,-355.5 850.786,-352 840.786,-348.5 840.786,-355.5"/>
</g>
<!-- Node460&#45;&gt;Node29 -->
<g id="edge32" class="edge"><title>Node460&#45;&gt;Node29</title>
<path fill="none" stroke="midnightblue" d="M934.168,-540.415C976.699,-538.738 1044.15,-536.077 1091.8,-534.197"/>
<polygon fill="midnightblue" stroke="midnightblue" points="1092.1,-537.688 1101.95,-533.797 1091.82,-530.694 1092.1,-537.688"/>
</g>
<!-- Node462 -->
<g id="node27" class="node"><title>Node462</title>
<g id="a_node27"><a xlink:href="lapi_8c.html#ad1dcea410edb5c5595fc070f8bf2e9a0" target="_top" xlink:title=" ">
<polygon fill="white" stroke="black" points="502.5,-0.5 502.5,-19.5 572.5,-19.5 572.5,-0.5 502.5,-0.5"/>
<text text-anchor="middle" x="537.5" y="-7.5" font-family="Helvetica,sans-Serif" font-size="10.00">lua_tothread</text>
</a>
</g>
</g>
<!-- Node461&#45;&gt;Node462 -->
<g id="edge34" class="edge"><title>Node461&#45;&gt;Node462</title>
<path fill="none" stroke="midnightblue" d="M178.26,-45.2671C244.435,-38.7525 411.92,-22.2644 492.226,-14.3585"/>
<polygon fill="midnightblue" stroke="midnightblue" points="492.89,-17.8102 502.499,-13.3473 492.204,-10.8439 492.89,-17.8102"/>
</g>
<!-- Node463 -->
<g id="node28" class="node"><title>Node463</title>
<g id="a_node28"><a xlink:href="lapi_8c.html#a7c66797ff8396fc9258bb9fc08e959d8" target="_top" xlink:title=" ">
<polygon fill="white" stroke="black" points="859.5,-95.5 859.5,-114.5 926.5,-114.5 926.5,-95.5 859.5,-95.5"/>
<text text-anchor="middle" x="893" y="-102.5" font-family="Helvetica,sans-Serif" font-size="10.00">index2value</text>
</a>
</g>
</g>
<!-- Node462&#45;&gt;Node463 -->
<g id="edge35" class="edge"><title>Node462&#45;&gt;Node463</title>
<path fill="none" stroke="midnightblue" d="M572.855,-6.18275C626.737,-1.65575 733.296,1.33348 814,-34 840.712,-45.6949 864.373,-70.3127 878.443,-87.2511"/>
<polygon fill="midnightblue" stroke="midnightblue" points="875.907,-89.6842 884.892,-95.2997 881.37,-85.3072 875.907,-89.6842"/>
</g>
<!-- Node129 -->
<g id="node30" class="node"><title>Node129</title>
<g id="a_node30"><a xlink:href="lstring_8c.html#a6d47e53be6b8e58202bb927752f4824b" target="_top" xlink:title=" ">
<polygon fill="white" stroke="black" points="748.5,-261.5 748.5,-280.5 807.5,-280.5 807.5,-261.5 748.5,-261.5"/>
<text text-anchor="middle" x="778" y="-268.5" font-family="Helvetica,sans-Serif" font-size="10.00">luaS_new</text>
</a>
</g>
</g>
<!-- Node464&#45;&gt;Node129 -->
<g id="edge38" class="edge"><title>Node464&#45;&gt;Node129</title>
<path fill="none" stroke="midnightblue" d="M691.118,-171.645C696.294,-174.276 701.542,-177.409 706,-181 731.573,-201.6 753.676,-233.033 766.158,-252.777"/>
<polygon fill="midnightblue" stroke="midnightblue" points="763.263,-254.751 771.486,-261.432 769.224,-251.081 763.263,-254.751"/>
</g>
<!-- Node129&#45;&gt;Node34 -->
<g id="edge39" class="edge"><title>Node129&#45;&gt;Node34</title>
<path fill="none" stroke="midnightblue" d="M807.612,-268.516C841.172,-267.051 897.149,-269.268 936,-295 977.492,-322.482 1001.63,-378.884 1011.97,-408.639"/>
<polygon fill="midnightblue" stroke="midnightblue" points="1008.7,-409.898 1015.17,-418.292 1015.35,-407.699 1008.7,-409.898"/>
</g>
<!-- Node424 -->
<g id="node32" class="node"><title>Node424</title>
<g id="a_node32"><a xlink:href="ldebug_8c.html#acf87581237e7d0072502ffc5092e8329" target="_top" xlink:title=" ">
<polygon fill="white" stroke="black" points="235.5,-342.5 235.5,-361.5 312.5,-361.5 312.5,-342.5 235.5,-342.5"/>
<text text-anchor="middle" x="274" y="-349.5" font-family="Helvetica,sans-Serif" font-size="10.00">luaG_findlocal</text>
</a>
</g>
</g>
<!-- Node465&#45;&gt;Node424 -->
<g id="edge41" class="edge"><title>Node465&#45;&gt;Node424</title>
<path fill="none" stroke="midnightblue" d="M183.65,-352C196.411,-352 211.25,-352 225.125,-352"/>
<polygon fill="midnightblue" stroke="midnightblue" points="225.498,-355.5 235.498,-352 225.498,-348.5 225.498,-355.5"/>
</g>
<!-- Node23 -->
<g id="node33" class="node"><title>Node23</title>
<g id="a_node33"><a xlink:href="ldebug_8c.html#a7db2a3f5cbcf0ac3ef6d4cfa15ab4dbc" target="_top" xlink:title=" ">
<polygon fill="white" stroke="black" points="371.5,-342.5 371.5,-361.5 428.5,-361.5 428.5,-342.5 371.5,-342.5"/>
<text text-anchor="middle" x="400" y="-349.5" font-family="Helvetica,sans-Serif" font-size="10.00">currentpc</text>
</a>
</g>
</g>
<!-- Node424&#45;&gt;Node23 -->
<g id="edge42" class="edge"><title>Node424&#45;&gt;Node23</title>
<path fill="none" stroke="midnightblue" d="M312.541,-352C327.946,-352 345.752,-352 361.186,-352"/>
<polygon fill="midnightblue" stroke="midnightblue" points="361.434,-355.5 371.433,-352 361.433,-348.5 361.434,-355.5"/>
</g>
<!-- Node425 -->
<g id="node34" class="node"><title>Node425</title>
<g id="a_node34"><a xlink:href="ldebug_8c.html#adde29da645f7256cd7b78dafeec64cc1" target="_top" xlink:title=" ">
<polygon fill="white" stroke="black" points="371.5,-304.5 371.5,-323.5 428.5,-323.5 428.5,-304.5 371.5,-304.5"/>
<text text-anchor="middle" x="400" y="-311.5" font-family="Helvetica,sans-Serif" font-size="10.00">findvararg</text>
</a>
</g>
</g>
<!-- Node424&#45;&gt;Node425 -->
<g id="edge43" class="edge"><title>Node424&#45;&gt;Node425</title>
<path fill="none" stroke="midnightblue" d="M306.29,-342.411C322.964,-337.301 343.601,-330.977 361.169,-325.594"/>
<polygon fill="midnightblue" stroke="midnightblue" points="362.569,-328.825 371.104,-322.549 360.518,-322.132 362.569,-328.825"/>
</g>
<!-- Node137 -->
<g id="node35" class="node"><title>Node137</title>
<g id="a_node35"><a xlink:href="lfunc_8c.html#aaa3cd5bc3901e7edf1ac428151cdfe8c" target="_top" xlink:title=" ">
<polygon fill="white" stroke="black" points="351,-380.5 351,-399.5 449,-399.5 449,-380.5 351,-380.5"/>
<text text-anchor="middle" x="400" y="-387.5" font-family="Helvetica,sans-Serif" font-size="10.00">luaF_getlocalname</text>
</a>
</g>
</g>
<!-- Node424&#45;&gt;Node137 -->
<g id="edge44" class="edge"><title>Node424&#45;&gt;Node137</title>
<path fill="none" stroke="midnightblue" d="M306.29,-361.589C322.004,-366.404 341.238,-372.299 358.106,-377.468"/>
<polygon fill="midnightblue" stroke="midnightblue" points="357.133,-380.83 367.72,-380.414 359.184,-374.138 357.133,-380.83"/>
</g>
<!-- Node466&#45;&gt;Node9 -->
<g id="edge46" class="edge"><title>Node466&#45;&gt;Node9</title>
<path fill="none" stroke="midnightblue" d="M697.296,-419.567C740.251,-408.371 821.484,-390 892,-390 892,-390 892,-390 1149.5,-390 1226.17,-390 1305.99,-441.772 1342.53,-468.878"/>
<polygon fill="midnightblue" stroke="midnightblue" points="1340.77,-471.939 1350.86,-475.191 1345,-466.361 1340.77,-471.939"/>
</g>
<!-- Node468&#45;&gt;Node447 -->
<g id="edge51" class="edge"><title>Node468&#45;&gt;Node447</title>
<path fill="none" stroke="midnightblue" d="M436.322,-285.731C441.017,-288.177 445.432,-291.219 449,-295 484.016,-332.105 465.26,-356.955 485,-404 497.281,-433.269 514.728,-465.683 525.83,-485.45"/>
<polygon fill="midnightblue" stroke="midnightblue" points="522.878,-487.34 530.858,-494.309 528.966,-483.885 522.878,-487.34"/>
</g>
<!-- Node468&#45;&gt;Node452 -->
<g id="edge49" class="edge"><title>Node468&#45;&gt;Node452</title>
<path fill="none" stroke="midnightblue" d="M424.939,-285.562C474.23,-305.059 585.8,-348.148 626,-355 661.05,-360.974 670.452,-355.751 706,-355 715.795,-354.793 726.346,-354.426 736.24,-354.018"/>
<polygon fill="midnightblue" stroke="midnightblue" points="736.416,-357.514 746.255,-353.583 736.112,-350.52 736.416,-357.514"/>
</g>
<!-- Node468&#45;&gt;Node459 -->
<g id="edge50" class="edge"><title>Node468&#45;&gt;Node459</title>
<path fill="none" stroke="midnightblue" d="M436.894,-285.234C441.51,-287.748 445.751,-290.943 449,-295 513.127,-375.076 424.522,-440.133 485,-523 541.977,-601.071 664.706,-616.209 731.477,-618.396"/>
<polygon fill="midnightblue" stroke="midnightblue" points="731.613,-621.9 741.694,-618.644 731.782,-614.902 731.613,-621.9"/>
</g>
<!-- Node469 -->
<g id="node39" class="node"><title>Node469</title>
<g id="a_node39"><a xlink:href="lauxlib_8c.html#a4f35430f7ecfcbd5f507e550937046b4" target="_top" xlink:title=" ">
<polygon fill="white" stroke="black" points="485,-266.5 485,-285.5 590,-285.5 590,-266.5 485,-266.5"/>
<text text-anchor="middle" x="537.5" y="-273.5" font-family="Helvetica,sans-Serif" font-size="10.00">pushglobalfuncname</text>
</a>
</g>
</g>
<!-- Node468&#45;&gt;Node469 -->
<g id="edge52" class="edge"><title>Node468&#45;&gt;Node469</title>
<path fill="none" stroke="midnightblue" d="M436.601,-276C448.233,-276 461.51,-276 474.504,-276"/>
<polygon fill="midnightblue" stroke="midnightblue" points="474.826,-279.5 484.826,-276 474.826,-272.5 474.826,-279.5"/>
</g>
<!-- Node469&#45;&gt;Node452 -->
<g id="edge61" class="edge"><title>Node469&#45;&gt;Node452</title>
<path fill="none" stroke="midnightblue" d="M549.48,-285.558C565.233,-298.676 595.699,-321.896 626,-333 661.774,-346.11 705.156,-350.479 736.225,-351.795"/>
<polygon fill="midnightblue" stroke="midnightblue" points="736.149,-355.294 746.261,-352.133 736.384,-348.298 736.149,-355.294"/>
</g>
<!-- Node469&#45;&gt;Node464 -->
<g id="edge63" class="edge"><title>Node469&#45;&gt;Node464</title>
<path fill="none" stroke="midnightblue" d="M546.647,-266.273C564.725,-244.841 608.013,-194.389 626,-181 628.062,-179.465 630.267,-178.002 632.54,-176.619"/>
<polygon fill="midnightblue" stroke="midnightblue" points="634.415,-179.582 641.49,-171.696 631.041,-173.449 634.415,-179.582"/>
</g>
<!-- Node469&#45;&gt;Node466 -->
<g id="edge64" class="edge"><title>Node469&#45;&gt;Node466</title>
<path fill="none" stroke="midnightblue" d="M546.413,-285.508C567.267,-310.566 623.958,-378.684 650.688,-410.804"/>
<polygon fill="midnightblue" stroke="midnightblue" points="648.003,-413.048 657.09,-418.495 653.383,-408.57 648.003,-413.048"/>
</g>
<!-- Node470 -->
<g id="node40" class="node"><title>Node470</title>
<g id="a_node40"><a xlink:href="lauxlib_8c.html#a36c8f149b779f8c9a5c042ea9784d80a" target="_top" xlink:title=" ">
<polygon fill="white" stroke="red" points="641.5,-190.5 641.5,-209.5 690.5,-209.5 690.5,-190.5 641.5,-190.5"/>
<text text-anchor="middle" x="666" y="-197.5" font-family="Helvetica,sans-Serif" font-size="10.00">findfield</text>
</a>
</g>
</g>
<!-- Node469&#45;&gt;Node470 -->
<g id="edge53" class="edge"><title>Node469&#45;&gt;Node470</title>
<path fill="none" stroke="midnightblue" d="M554.521,-266.375C576.193,-253.355 615.05,-230.009 640.426,-214.764"/>
<polygon fill="midnightblue" stroke="midnightblue" points="642.339,-217.697 649.109,-209.547 638.734,-211.697 642.339,-217.697"/>
</g>
<!-- Node478 -->
<g id="node42" class="node"><title>Node478</title>
<g id="a_node42"><a xlink:href="lapi_8c.html#a111bd3fa34fe656f415edae5e343e13e" target="_top" xlink:title=" ">
<polygon fill="white" stroke="black" points="750,-171.5 750,-190.5 806,-190.5 806,-171.5 750,-171.5"/>
<text text-anchor="middle" x="778" y="-178.5" font-family="Helvetica,sans-Serif" font-size="10.00">lua_copy</text>
</a>
</g>
</g>
<!-- Node469&#45;&gt;Node478 -->
<g id="edge57" class="edge"><title>Node469&#45;&gt;Node478</title>
<path fill="none" stroke="midnightblue" d="M571.839,-266.416C606.083,-256.166 660.638,-238.7 706,-219 721.685,-212.188 738.59,-203.211 751.968,-195.693"/>
<polygon fill="midnightblue" stroke="midnightblue" points="754.068,-198.524 761.018,-190.528 750.598,-192.444 754.068,-198.524"/>
</g>
<!-- Node479 -->
<g id="node43" class="node"><title>Node479</title>
<g id="a_node43"><a xlink:href="lapi_8c.html#a8b47f1b5685c3f8018ba926abb99af24" target="_top" xlink:title=" ">
<polygon fill="white" stroke="red" points="633.5,-266.5 633.5,-285.5 698.5,-285.5 698.5,-266.5 633.5,-266.5"/>
<text text-anchor="middle" x="666" y="-273.5" font-family="Helvetica,sans-Serif" font-size="10.00">lua_getfield</text>
</a>
</g>
</g>
<!-- Node469&#45;&gt;Node479 -->
<g id="edge59" class="edge"><title>Node469&#45;&gt;Node479</title>
<path fill="none" stroke="midnightblue" d="M590.317,-276C601.269,-276 612.693,-276 623.217,-276"/>
<polygon fill="midnightblue" stroke="midnightblue" points="623.391,-279.5 633.391,-276 623.391,-272.5 623.391,-279.5"/>
</g>
<!-- Node481 -->
<g id="node44" class="node"><title>Node481</title>
<g id="a_node44"><a xlink:href="lapi_8c.html#afbb08ecb69421875494105d4de68e5bf" target="_top" xlink:title=" ">
<polygon fill="white" stroke="black" points="635,-304.5 635,-323.5 697,-323.5 697,-304.5 635,-304.5"/>
<text text-anchor="middle" x="666" y="-311.5" font-family="Helvetica,sans-Serif" font-size="10.00">lua_gettop</text>
</a>
</g>
</g>
<!-- Node469&#45;&gt;Node481 -->
<g id="edge62" class="edge"><title>Node469&#45;&gt;Node481</title>
<path fill="none" stroke="midnightblue" d="M570.421,-285.589C586.941,-290.551 607.275,-296.66 624.851,-301.939"/>
<polygon fill="midnightblue" stroke="midnightblue" points="624.247,-305.412 634.831,-304.937 626.26,-298.708 624.247,-305.412"/>
</g>
<!-- Node470&#45;&gt;Node448 -->
<g id="edge54" class="edge"><title>Node470&#45;&gt;Node448</title>
<path fill="none" stroke="midnightblue" d="M674.842,-209.545C683.477,-220.449 697.289,-239.103 706,-257 729.253,-304.775 722.849,-321.438 742,-371 749.657,-390.817 759.988,-412.796 767.439,-427.999"/>
<polygon fill="midnightblue" stroke="midnightblue" points="764.49,-429.928 772.069,-437.331 770.76,-426.817 764.49,-429.928"/>
</g>
<!-- Node477 -->
<g id="node41" class="node"><title>Node477</title>
<g id="a_node41"><a xlink:href="lapi_8c.html#a652b273947f0656686f998d8e90cd3ea" target="_top" xlink:title=" ">
<polygon fill="white" stroke="black" points="751.5,-114.5 751.5,-133.5 804.5,-133.5 804.5,-114.5 751.5,-114.5"/>
<text text-anchor="middle" x="778" y="-121.5" font-family="Helvetica,sans-Serif" font-size="10.00">lua_type</text>
</a>
</g>
</g>
<!-- Node470&#45;&gt;Node477 -->
<g id="edge55" class="edge"><title>Node470&#45;&gt;Node477</title>
<path fill="none" stroke="midnightblue" d="M688.922,-190.381C694.62,-187.597 700.656,-184.387 706,-181 725.017,-168.947 744.852,-152.66 758.708,-140.583"/>
<polygon fill="midnightblue" stroke="midnightblue" points="761.334,-142.932 766.501,-133.682 756.694,-137.691 761.334,-142.932"/>
</g>
<!-- Node477&#45;&gt;Node463 -->
<g id="edge56" class="edge"><title>Node477&#45;&gt;Node463</title>
<path fill="none" stroke="midnightblue" d="M804.641,-119.689C817.762,-117.482 834.086,-114.738 849.06,-112.22"/>
<polygon fill="midnightblue" stroke="midnightblue" points="849.873,-115.632 859.154,-110.523 848.712,-108.729 849.873,-115.632"/>
</g>
<!-- Node478&#45;&gt;Node463 -->
<g id="edge58" class="edge"><title>Node478&#45;&gt;Node463</title>
<path fill="none" stroke="midnightblue" d="M793.312,-171.375C812.5,-158.469 846.773,-135.418 869.45,-120.167"/>
<polygon fill="midnightblue" stroke="midnightblue" points="871.46,-123.032 877.805,-114.547 867.554,-117.224 871.46,-123.032"/>
</g>
<!-- Node479&#45;&gt;Node463 -->
<g id="edge60" class="edge"><title>Node479&#45;&gt;Node463</title>
<path fill="none" stroke="midnightblue" d="M692.768,-266.433C723.665,-254.155 776.031,-230.72 814,-200 841.766,-177.535 866.566,-143.839 880.41,-123.199"/>
<polygon fill="midnightblue" stroke="midnightblue" points="883.412,-125.003 885.971,-114.722 877.559,-121.163 883.412,-125.003"/>
</g>
<!-- Node482&#45;&gt;Node468 -->
<g id="edge67" class="edge"><title>Node482&#45;&gt;Node468</title>
<path fill="none" stroke="midnightblue" d="M315.259,-276C327.303,-276 340.601,-276 352.985,-276"/>
<polygon fill="midnightblue" stroke="midnightblue" points="353.125,-279.5 363.125,-276 353.125,-272.5 353.125,-279.5"/>
</g>
<!-- Node482&#45;&gt;Node477 -->
<g id="edge66" class="edge"><title>Node482&#45;&gt;Node477</title>
<path fill="none" stroke="midnightblue" d="M295.03,-266.468C347.831,-241.773 495.725,-175.39 626,-143 664.649,-133.391 710.133,-128.51 741.005,-126.122"/>
<polygon fill="midnightblue" stroke="midnightblue" points="741.559,-129.591 751.28,-125.377 741.053,-122.609 741.559,-129.591"/>
</g>
<!-- Node484 -->
<g id="node47" class="node"><title>Node484</title>
<g id="a_node47"><a xlink:href="lauxlib_8c.html#ac900510f548ea0ea6d53358d2aedd100" target="_top" xlink:title=" ">
<polygon fill="white" stroke="black" points="250.5,-114.5 250.5,-133.5 297.5,-133.5 297.5,-114.5 250.5,-114.5"/>
<text text-anchor="middle" x="274" y="-121.5" font-family="Helvetica,sans-Serif" font-size="10.00">interror</text>
</a>
</g>
</g>
<!-- Node483&#45;&gt;Node484 -->
<g id="edge69" class="edge"><title>Node483&#45;&gt;Node484</title>
<path fill="none" stroke="midnightblue" d="M197.161,-124C211.566,-124 227.114,-124 240.36,-124"/>
<polygon fill="midnightblue" stroke="midnightblue" points="240.423,-127.5 250.423,-124 240.423,-120.5 240.423,-127.5"/>
</g>
<!-- Node493 -->
<g id="node50" class="node"><title>Node493</title>
<g id="a_node50"><a xlink:href="lapi_8c.html#af81c9a68425546e1f8c6354728c95170" target="_top" xlink:title=" ">
<polygon fill="white" stroke="black" points="235.5,-57.5 235.5,-76.5 312.5,-76.5 312.5,-57.5 235.5,-57.5"/>
<text text-anchor="middle" x="274" y="-64.5" font-family="Helvetica,sans-Serif" font-size="10.00">lua_tointegerx</text>
</a>
</g>
</g>
<!-- Node483&#45;&gt;Node493 -->
<g id="edge74" class="edge"><title>Node483&#45;&gt;Node493</title>
<path fill="none" stroke="midnightblue" d="M171.004,-114.459C190.79,-105.253 220.958,-91.2153 243.358,-80.7926"/>
<polygon fill="midnightblue" stroke="midnightblue" points="244.839,-83.9637 252.429,-76.5716 241.886,-77.6171 244.839,-83.9637"/>
</g>
<!-- Node484&#45;&gt;Node468 -->
<g id="edge72" class="edge"><title>Node484&#45;&gt;Node468</title>
<path fill="none" stroke="midnightblue" d="M282.757,-133.508C303.112,-158.46 358.297,-226.106 384.635,-258.392"/>
<polygon fill="midnightblue" stroke="midnightblue" points="382.213,-260.959 391.246,-266.495 387.637,-256.534 382.213,-260.959"/>
</g>
<!-- Node485 -->
<g id="node48" class="node"><title>Node485</title>
<g id="a_node48"><a xlink:href="lapi_8c.html#a99451f234bf085c9c46c3d17a5aef905" target="_top" xlink:title=" ">
<polygon fill="white" stroke="black" points="500.5,-85.5 500.5,-104.5 574.5,-104.5 574.5,-85.5 500.5,-85.5"/>
<text text-anchor="middle" x="537.5" y="-92.5" font-family="Helvetica,sans-Serif" font-size="10.00">lua_isnumber</text>
</a>
</g>
</g>
<!-- Node484&#45;&gt;Node485 -->
<g id="edge70" class="edge"><title>Node484&#45;&gt;Node485</title>
<path fill="none" stroke="midnightblue" d="M297.528,-121.577C330.701,-118 394.64,-111.074 449,-105 462.309,-103.513 476.753,-101.873 489.998,-100.358"/>
<polygon fill="midnightblue" stroke="midnightblue" points="490.782,-103.792 500.319,-99.1763 489.985,-96.8371 490.782,-103.792"/>
</g>
<!-- Node486 -->
<g id="node49" class="node"><title>Node486</title>
<g id="a_node49"><a xlink:href="lauxlib_8c.html#ab8e946260debec8d4bbc714b76a1613b" target="_top" xlink:title=" ">
<polygon fill="white" stroke="red" points="372.5,-76.5 372.5,-95.5 427.5,-95.5 427.5,-76.5 372.5,-76.5"/>
<text text-anchor="middle" x="400" y="-83.5" font-family="Helvetica,sans-Serif" font-size="10.00">tag_error</text>
</a>
</g>
</g>
<!-- Node484&#45;&gt;Node486 -->
<g id="edge73" class="edge"><title>Node484&#45;&gt;Node486</title>
<path fill="none" stroke="midnightblue" d="M297.744,-117.03C315.851,-111.481 341.548,-103.606 362.523,-97.1785"/>
<polygon fill="midnightblue" stroke="midnightblue" points="363.549,-100.525 372.084,-94.2484 361.498,-93.8321 363.549,-100.525"/>
</g>
<!-- Node485&#45;&gt;Node463 -->
<g id="edge71" class="edge"><title>Node485&#45;&gt;Node463</title>
<path fill="none" stroke="midnightblue" d="M574.669,-96.0232C640.364,-97.8816 778.975,-101.803 849.236,-103.79"/>
<polygon fill="midnightblue" stroke="midnightblue" points="849.402,-107.296 859.497,-104.081 849.6,-100.299 849.402,-107.296"/>
</g>
<!-- Node493&#45;&gt;Node463 -->
<g id="edge75" class="edge"><title>Node493&#45;&gt;Node463</title>
<path fill="none" stroke="midnightblue" d="M312.613,-62.5453C363.361,-56.9295 456.614,-48 536.5,-48 536.5,-48 536.5,-48 667,-48 737.843,-48 817.498,-74.8819 860.451,-91.724"/>
<polygon fill="midnightblue" stroke="midnightblue" points="859.214,-94.9987 869.798,-95.4595 861.811,-88.4985 859.214,-94.9987"/>
</g>
</g>
</svg>
