<?xml version="1.0" encoding="UTF-8" standalone="no"?>
<!DOCTYPE svg PUBLIC "-//W3C//DTD SVG 1.1//EN"
 "http://www.w3.org/Graphics/SVG/1.1/DTD/svg11.dtd">
<!-- Generated by graphviz version 2.38.0 (20140413.2041)
 -->
<!-- Title: luaG_addinfo Pages: 1 -->
<svg width="2018pt" height="559pt"
 viewBox="0.00 0.00 2018.00 558.90" xmlns="http://www.w3.org/2000/svg" xmlns:xlink="http://www.w3.org/1999/xlink">
<g id="graph0" class="graph" transform="scale(1 1) rotate(0) translate(4 554.901)">
<title>luaG_addinfo</title>
<polygon fill="white" stroke="none" points="-4,4 -4,-554.901 2014,-554.901 2014,4 -4,4"/>
<!-- Node1 -->
<g id="node1" class="node"><title>Node1</title>
<g id="a_node1"><a xlink:title=" ">
<polygon fill="#bfbfbf" stroke="black" points="0,-396.926 0,-415.926 73,-415.926 73,-396.926 0,-396.926"/>
<text text-anchor="middle" x="36.5" y="-403.926" font-family="Helvetica,sans-Serif" font-size="10.00">luaG_addinfo</text>
</a>
</g>
</g>
<!-- Node2 -->
<g id="node2" class="node"><title>Node2</title>
<g id="a_node2"><a xlink:href="lobject_8c.html#ac331b4119bbeb45a8a7e5a1afe553b2e" target="_top" xlink:title=" ">
<polygon fill="white" stroke="black" points="115.5,-434.926 115.5,-453.926 191.5,-453.926 191.5,-434.926 115.5,-434.926"/>
<text text-anchor="middle" x="153.5" y="-441.926" font-family="Helvetica,sans-Serif" font-size="10.00">luaO_chunkid</text>
</a>
</g>
</g>
<!-- Node1&#45;&gt;Node2 -->
<g id="edge1" class="edge"><title>Node1&#45;&gt;Node2</title>
<path fill="none" stroke="midnightblue" d="M66.5194,-416.015C80.82,-420.74 98.265,-426.505 113.695,-431.603"/>
<polygon fill="midnightblue" stroke="midnightblue" points="112.897,-435.025 123.49,-434.84 115.093,-428.379 112.897,-435.025"/>
</g>
<!-- Node3 -->
<g id="node3" class="node"><title>Node3</title>
<g id="a_node3"><a xlink:href="lobject_8c.html#a8e224db7123c74d695076a96d1bfda61" target="_top" xlink:title=" ">
<polygon fill="white" stroke="black" points="109,-311.926 109,-330.926 198,-330.926 198,-311.926 109,-311.926"/>
<text text-anchor="middle" x="153.5" y="-318.926" font-family="Helvetica,sans-Serif" font-size="10.00">luaO_pushfstring</text>
</a>
</g>
</g>
<!-- Node1&#45;&gt;Node3 -->
<g id="edge2" class="edge"><title>Node1&#45;&gt;Node3</title>
<path fill="none" stroke="midnightblue" d="M50.692,-396.675C70.3621,-382.136 107.585,-354.624 131.16,-337.199"/>
<polygon fill="midnightblue" stroke="midnightblue" points="133.5,-339.821 139.462,-331.063 129.34,-334.192 133.5,-339.821"/>
</g>
<!-- Node4 -->
<g id="node4" class="node"><title>Node4</title>
<g id="a_node4"><a xlink:href="lobject_8c.html#aa83fa444a36d79521e846a766fa083d5" target="_top" xlink:title=" ">
<polygon fill="white" stroke="black" points="234,-283.926 234,-302.926 327,-302.926 327,-283.926 234,-283.926"/>
<text text-anchor="middle" x="280.5" y="-290.926" font-family="Helvetica,sans-Serif" font-size="10.00">luaO_pushvfstring</text>
</a>
</g>
</g>
<!-- Node3&#45;&gt;Node4 -->
<g id="edge3" class="edge"><title>Node3&#45;&gt;Node4</title>
<path fill="none" stroke="midnightblue" d="M197.168,-311.868C206.822,-309.706 217.181,-307.385 227.182,-305.145"/>
<polygon fill="midnightblue" stroke="midnightblue" points="228.031,-308.542 237.024,-302.94 226.501,-301.711 228.031,-308.542"/>
</g>
<!-- Node5 -->
<g id="node5" class="node"><title>Node5</title>
<g id="a_node5"><a xlink:href="lobject_8c.html#a1d02fb9304e4700ce1fd20e34ae68784" target="_top" xlink:title=" ">
<polygon fill="white" stroke="black" points="364.5,-302.926 364.5,-321.926 435.5,-321.926 435.5,-302.926 364.5,-302.926"/>
<text text-anchor="middle" x="400" y="-309.926" font-family="Helvetica,sans-Serif" font-size="10.00">addnum2buff</text>
</a>
</g>
</g>
<!-- Node4&#45;&gt;Node5 -->
<g id="edge4" class="edge"><title>Node4&#45;&gt;Node5</title>
<path fill="none" stroke="midnightblue" d="M327.265,-300.826C336.157,-302.264 345.468,-303.769 354.324,-305.202"/>
<polygon fill="midnightblue" stroke="midnightblue" points="354.03,-308.699 364.461,-306.841 355.148,-301.789 354.03,-308.699"/>
</g>
<!-- Node6 -->
<g id="node6" class="node"><title>Node6</title>
<g id="a_node6"><a xlink:href="lobject_8c.html#ac4ab924f2ea45ef73319f1159033eab1" target="_top" xlink:title=" ">
<polygon fill="white" stroke="black" points="482.5,-188.926 482.5,-207.926 527.5,-207.926 527.5,-188.926 482.5,-188.926"/>
<text text-anchor="middle" x="505" y="-195.926" font-family="Helvetica,sans-Serif" font-size="10.00">getbuff</text>
</a>
</g>
</g>
<!-- Node4&#45;&gt;Node6 -->
<g id="edge72" class="edge"><title>Node4&#45;&gt;Node6</title>
<path fill="none" stroke="midnightblue" d="M289.374,-283.757C302.728,-268.082 331.46,-237.375 363,-222.426 397.972,-205.849 442.625,-200.561 472.207,-198.96"/>
<polygon fill="midnightblue" stroke="midnightblue" points="472.538,-202.449 482.378,-198.523 472.237,-195.456 472.538,-202.449"/>
</g>
<!-- Node7 -->
<g id="node7" class="node"><title>Node7</title>
<g id="a_node7"><a xlink:href="lobject_8c.html#a6ec2716e64cd75e3e6614a87ee92e4d2" target="_top" xlink:title=" ">
<polygon fill="white" stroke="black" points="573,-169.926 573,-188.926 626,-188.926 626,-169.926 573,-169.926"/>
<text text-anchor="middle" x="599.5" y="-176.926" font-family="Helvetica,sans-Serif" font-size="10.00">clearbuff</text>
</a>
</g>
</g>
<!-- Node4&#45;&gt;Node7 -->
<g id="edge71" class="edge"><title>Node4&#45;&gt;Node7</title>
<path fill="none" stroke="midnightblue" d="M299.156,-283.798C315.355,-275.306 340.222,-263.117 363,-255.426 437.996,-230.102 463.616,-247.098 537,-217.426 551.323,-211.634 566.091,-202.627 577.564,-194.835"/>
<polygon fill="midnightblue" stroke="midnightblue" points="579.808,-197.537 585.988,-188.931 575.79,-191.804 579.808,-197.537"/>
</g>
<!-- Node77 -->
<g id="node18" class="node"><title>Node77</title>
<g id="a_node18"><a xlink:href="ldebug_8c.html#a88d38ca5da2e7a1492fc9d5ad70c32c5" target="_top" xlink:title=" ">
<polygon fill="white" stroke="black" points="960,-349.926 960,-368.926 1035,-368.926 1035,-349.926 960,-349.926"/>
<text text-anchor="middle" x="997.5" y="-356.926" font-family="Helvetica,sans-Serif" font-size="10.00">luaG_runerror</text>
</a>
</g>
</g>
<!-- Node4&#45;&gt;Node77 -->
<g id="edge73" class="edge"><title>Node4&#45;&gt;Node77</title>
<path fill="none" stroke="midnightblue" d="M315.258,-303.086C329.651,-309.46 346.827,-317.135 363,-322.426 423.724,-342.291 440.11,-350.426 504,-350.426 504,-350.426 504,-350.426 784,-350.426 840.917,-350.426 906.41,-350.426 949.47,-352.396"/>
<polygon fill="midnightblue" stroke="midnightblue" points="949.478,-355.901 959.646,-352.924 949.841,-348.91 949.478,-355.901"/>
</g>
<!-- Node442 -->
<g id="node49" class="node"><title>Node442</title>
<g id="a_node49"><a xlink:href="lobject_8c.html#a874ab64f433ee35f2197a81e10452cb1" target="_top" xlink:title=" ">
<polygon fill="white" stroke="black" points="368,-150.926 368,-169.926 432,-169.926 432,-150.926 368,-150.926"/>
<text text-anchor="middle" x="400" y="-157.926" font-family="Helvetica,sans-Serif" font-size="10.00">addstr2buff</text>
</a>
</g>
</g>
<!-- Node4&#45;&gt;Node442 -->
<g id="edge67" class="edge"><title>Node4&#45;&gt;Node442</title>
<path fill="none" stroke="midnightblue" d="M287.107,-283.827C299.162,-263.729 329.208,-216.439 363,-184.426 366.19,-181.404 369.802,-178.509 373.476,-175.842"/>
<polygon fill="midnightblue" stroke="midnightblue" points="375.674,-178.582 381.995,-170.079 371.751,-172.784 375.674,-178.582"/>
</g>
<!-- Node255 -->
<g id="node50" class="node"><title>Node255</title>
<g id="a_node50"><a xlink:href="lobject_8c.html#af3136de4693789b08f78aafda9604676" target="_top" xlink:title=" ">
<polygon fill="white" stroke="black" points="363,-264.926 363,-283.926 437,-283.926 437,-264.926 363,-264.926"/>
<text text-anchor="middle" x="400" y="-271.926" font-family="Helvetica,sans-Serif" font-size="10.00">luaO_utf8esc</text>
</a>
</g>
</g>
<!-- Node4&#45;&gt;Node255 -->
<g id="edge74" class="edge"><title>Node4&#45;&gt;Node255</title>
<path fill="none" stroke="midnightblue" d="M327.265,-286.025C335.694,-284.662 344.499,-283.239 352.937,-281.874"/>
<polygon fill="midnightblue" stroke="midnightblue" points="353.685,-285.299 362.998,-280.247 352.567,-278.389 353.685,-285.299"/>
</g>
<!-- Node5&#45;&gt;Node6 -->
<g id="edge5" class="edge"><title>Node5&#45;&gt;Node6</title>
<path fill="none" stroke="midnightblue" d="M423.006,-302.921C427.9,-300.25 432.86,-297.065 437,-293.426 462.142,-271.326 482.83,-237.986 494.281,-217.246"/>
<polygon fill="midnightblue" stroke="midnightblue" points="497.5,-218.649 499.14,-208.182 491.33,-215.342 497.5,-218.649"/>
</g>
<!-- Node441 -->
<g id="node48" class="node"><title>Node441</title>
<g id="a_node48"><a xlink:href="lobject_8c.html#a8a7886b6335aca97db23dfe3e220c728" target="_top" xlink:title=" ">
<polygon fill="white" stroke="black" points="473,-302.926 473,-321.926 537,-321.926 537,-302.926 473,-302.926"/>
<text text-anchor="middle" x="505" y="-309.926" font-family="Helvetica,sans-Serif" font-size="10.00">tostringbuff</text>
</a>
</g>
</g>
<!-- Node5&#45;&gt;Node441 -->
<g id="edge66" class="edge"><title>Node5&#45;&gt;Node441</title>
<path fill="none" stroke="midnightblue" d="M435.584,-312.426C444.237,-312.426 453.607,-312.426 462.556,-312.426"/>
<polygon fill="midnightblue" stroke="midnightblue" points="462.799,-315.926 472.799,-312.426 462.798,-308.926 462.799,-315.926"/>
</g>
<!-- Node6&#45;&gt;Node7 -->
<g id="edge6" class="edge"><title>Node6&#45;&gt;Node7</title>
<path fill="none" stroke="midnightblue" d="M527.921,-193.923C538.334,-191.784 551.047,-189.173 562.8,-186.759"/>
<polygon fill="midnightblue" stroke="midnightblue" points="563.708,-190.145 572.799,-184.705 562.299,-183.289 563.708,-190.145"/>
</g>
<!-- Node8 -->
<g id="node8" class="node"><title>Node8</title>
<g id="a_node8"><a xlink:href="lobject_8c.html#a90720e7e38c0e352e9b97d3f8def9e1a" target="_top" xlink:title=" ">
<polygon fill="white" stroke="black" points="662,-161.926 662,-180.926 711,-180.926 711,-161.926 662,-161.926"/>
<text text-anchor="middle" x="686.5" y="-168.926" font-family="Helvetica,sans-Serif" font-size="10.00">pushstr</text>
</a>
</g>
</g>
<!-- Node7&#45;&gt;Node8 -->
<g id="edge7" class="edge"><title>Node7&#45;&gt;Node8</title>
<path fill="none" stroke="midnightblue" d="M626.003,-177.025C634.068,-176.266 643.112,-175.415 651.666,-174.61"/>
<polygon fill="midnightblue" stroke="midnightblue" points="652.131,-178.082 661.759,-173.66 651.475,-171.113 652.131,-178.082"/>
</g>
<!-- Node9 -->
<g id="node9" class="node"><title>Node9</title>
<g id="a_node9"><a xlink:href="lstring_8c.html#ab41fb084ce3ea5e2779f6659ccc2484d" target="_top" xlink:title=" ">
<polygon fill="white" stroke="black" points="747,-142.926 747,-161.926 819,-161.926 819,-142.926 747,-142.926"/>
<text text-anchor="middle" x="783" y="-149.926" font-family="Helvetica,sans-Serif" font-size="10.00">luaS_newlstr</text>
</a>
</g>
</g>
<!-- Node8&#45;&gt;Node9 -->
<g id="edge8" class="edge"><title>Node8&#45;&gt;Node9</title>
<path fill="none" stroke="midnightblue" d="M711.346,-166.631C719.133,-165.066 728.054,-163.272 736.875,-161.498"/>
<polygon fill="midnightblue" stroke="midnightblue" points="737.614,-164.92 746.728,-159.517 736.234,-158.057 737.614,-164.92"/>
</g>
<!-- Node395 -->
<g id="node41" class="node"><title>Node395</title>
<g id="a_node41"><a xlink:href="lvm_8c.html#a2f076040af405dcb50d661edd692eca7" target="_top" xlink:title=" ">
<polygon fill="white" stroke="black" points="1547,-180.926 1547,-199.926 1618,-199.926 1618,-180.926 1547,-180.926"/>
<text text-anchor="middle" x="1582.5" y="-187.926" font-family="Helvetica,sans-Serif" font-size="10.00">luaV_concat</text>
</a>
</g>
</g>
<!-- Node8&#45;&gt;Node395 -->
<g id="edge65" class="edge"><title>Node8&#45;&gt;Node395</title>
<path fill="none" stroke="midnightblue" d="M711.256,-175.134C748.796,-180.664 824.181,-190.426 888.5,-190.426 888.5,-190.426 888.5,-190.426 1346,-190.426 1412.33,-190.426 1489.17,-190.426 1536.56,-190.426"/>
<polygon fill="midnightblue" stroke="midnightblue" points="1536.78,-193.926 1546.78,-190.426 1536.78,-186.926 1536.78,-193.926"/>
</g>
<!-- Node10 -->
<g id="node10" class="node"><title>Node10</title>
<g id="a_node10"><a xlink:href="lstring_8c.html#a9b2c32c59a280de24f20df1c7f0433a1" target="_top" xlink:title=" ">
<polygon fill="white" stroke="black" points="857,-47.9257 857,-66.9257 922,-66.9257 922,-47.9257 857,-47.9257"/>
<text text-anchor="middle" x="889.5" y="-54.9257" font-family="Helvetica,sans-Serif" font-size="10.00">internshrstr</text>
</a>
</g>
</g>
<!-- Node9&#45;&gt;Node10 -->
<g id="edge9" class="edge"><title>Node9&#45;&gt;Node10</title>
<path fill="none" stroke="midnightblue" d="M794.79,-142.617C812.638,-126.391 848.502,-93.7874 870.318,-73.9547"/>
<polygon fill="midnightblue" stroke="midnightblue" points="872.88,-76.3563 877.925,-67.0397 868.171,-71.1767 872.88,-76.3563"/>
</g>
<!-- Node440 -->
<g id="node17" class="node"><title>Node440</title>
<g id="a_node17"><a xlink:href="lmem_8c.html#a8fc7df43dd830ccbe7581fd53f65bdbe" target="_top" xlink:title=" ">
<polygon fill="white" stroke="black" points="855,-250.926 855,-269.926 924,-269.926 924,-250.926 855,-250.926"/>
<text text-anchor="middle" x="889.5" y="-257.926" font-family="Helvetica,sans-Serif" font-size="10.00">luaM_toobig</text>
</a>
</g>
</g>
<!-- Node9&#45;&gt;Node440 -->
<g id="edge16" class="edge"><title>Node9&#45;&gt;Node440</title>
<path fill="none" stroke="midnightblue" d="M793.274,-162.01C810.968,-180.297 849.761,-220.389 871.988,-243.36"/>
<polygon fill="midnightblue" stroke="midnightblue" points="869.628,-245.955 879.097,-250.708 874.659,-241.087 869.628,-245.955"/>
</g>
<!-- Node397 -->
<g id="node43" class="node"><title>Node397</title>
<g id="a_node43"><a xlink:href="lstring_8c.html#a8790c7d6e706f935dd6e9eefd068921c" target="_top" xlink:title=" ">
<polygon fill="white" stroke="black" points="1654,-104.926 1654,-123.926 1759,-123.926 1759,-104.926 1654,-104.926"/>
<text text-anchor="middle" x="1706.5" y="-111.926" font-family="Helvetica,sans-Serif" font-size="10.00">luaS_createlngstrobj</text>
</a>
</g>
</g>
<!-- Node9&#45;&gt;Node397 -->
<g id="edge64" class="edge"><title>Node9&#45;&gt;Node397</title>
<path fill="none" stroke="midnightblue" d="M816.802,-142.837C858.271,-131.58 932.039,-114.426 996.5,-114.426 996.5,-114.426 996.5,-114.426 1463.5,-114.426 1524.69,-114.426 1594.58,-114.426 1643.47,-114.426"/>
<polygon fill="midnightblue" stroke="midnightblue" points="1643.57,-117.926 1653.57,-114.426 1643.57,-110.926 1643.57,-117.926"/>
</g>
<!-- Node11 -->
<g id="node11" class="node"><title>Node11</title>
<g id="a_node11"><a xlink:href="lstring_8c.html#a85a1a917ef263701e47c36e68011d917" target="_top" xlink:title=" ">
<polygon fill="white" stroke="black" points="1806.5,-47.9257 1806.5,-66.9257 1874.5,-66.9257 1874.5,-47.9257 1806.5,-47.9257"/>
<text text-anchor="middle" x="1840.5" y="-54.9257" font-family="Helvetica,sans-Serif" font-size="10.00">createstrobj</text>
</a>
</g>
</g>
<!-- Node10&#45;&gt;Node11 -->
<g id="edge10" class="edge"><title>Node10&#45;&gt;Node11</title>
<path fill="none" stroke="midnightblue" d="M904.427,-47.7565C917.974,-38.8626 939.46,-26.0773 960,-19.4257 1023.93,1.27712 1042.8,-0.425707 1110,-0.425707 1110,-0.425707 1110,-0.425707 1583.5,-0.425707 1664.22,-0.425707 1755.92,-27.7623 1804.67,-44.573"/>
<polygon fill="midnightblue" stroke="midnightblue" points="1803.52,-47.8796 1814.12,-47.8852 1805.84,-41.2738 1803.52,-47.8796"/>
</g>
<!-- Node13 -->
<g id="node13" class="node"><title>Node13</title>
<g id="a_node13"><a xlink:href="lstring_8c.html#af8b89b01dc2db9f0d3024067ffdb931a" target="_top" xlink:title=" ">
<polygon fill="white" stroke="black" points="966.5,-28.9257 966.5,-47.9257 1028.5,-47.9257 1028.5,-28.9257 966.5,-28.9257"/>
<text text-anchor="middle" x="997.5" y="-35.9257" font-family="Helvetica,sans-Serif" font-size="10.00">growstrtab</text>
</a>
</g>
</g>
<!-- Node10&#45;&gt;Node13 -->
<g id="edge12" class="edge"><title>Node10&#45;&gt;Node13</title>
<path fill="none" stroke="midnightblue" d="M922.017,-51.7765C932.763,-49.8503 944.928,-47.6697 956.265,-45.6377"/>
<polygon fill="midnightblue" stroke="midnightblue" points="957.153,-49.0344 966.378,-43.8249 955.918,-42.1442 957.153,-49.0344"/>
</g>
<!-- Node147 -->
<g id="node16" class="node"><title>Node147</title>
<g id="a_node16"><a xlink:href="lstring_8c.html#ac453c0e85b7bb4e9b146fc140b1b7c9e" target="_top" xlink:title=" ">
<polygon fill="white" stroke="black" points="966.5,-66.9257 966.5,-85.9257 1028.5,-85.9257 1028.5,-66.9257 966.5,-66.9257"/>
<text text-anchor="middle" x="997.5" y="-73.9257" font-family="Helvetica,sans-Serif" font-size="10.00">luaS_hash</text>
</a>
</g>
</g>
<!-- Node10&#45;&gt;Node147 -->
<g id="edge15" class="edge"><title>Node10&#45;&gt;Node147</title>
<path fill="none" stroke="midnightblue" d="M922.017,-63.0749C932.763,-65.0012 944.928,-67.1817 956.265,-69.2137"/>
<polygon fill="midnightblue" stroke="midnightblue" points="955.918,-72.7072 966.378,-71.0265 957.153,-65.817 955.918,-72.7072"/>
</g>
<!-- Node12 -->
<g id="node12" class="node"><title>Node12</title>
<g id="a_node12"><a xlink:href="lgc_8c.html#abfc8404c5fbd2a1770202fa0b087d451" target="_top" xlink:title=" ">
<polygon fill="white" stroke="black" points="1930.5,-47.9257 1930.5,-66.9257 2001.5,-66.9257 2001.5,-47.9257 1930.5,-47.9257"/>
<text text-anchor="middle" x="1966" y="-54.9257" font-family="Helvetica,sans-Serif" font-size="10.00">luaC_newobj</text>
</a>
</g>
</g>
<!-- Node11&#45;&gt;Node12 -->
<g id="edge11" class="edge"><title>Node11&#45;&gt;Node12</title>
<path fill="none" stroke="midnightblue" d="M1874.6,-57.4257C1888.53,-57.4257 1904.96,-57.4257 1919.97,-57.4257"/>
<polygon fill="midnightblue" stroke="midnightblue" points="1920.08,-60.9258 1930.08,-57.4257 1920.08,-53.9258 1920.08,-60.9258"/>
</g>
<!-- Node14 -->
<g id="node14" class="node"><title>Node14</title>
<g id="a_node14"><a xlink:href="lgc_8c.html#ac48130e5263ad8be09a9c51dae6125b9" target="_top" xlink:title=" ">
<polygon fill="white" stroke="red" points="1079,-66.9257 1079,-85.9257 1143,-85.9257 1143,-66.9257 1079,-66.9257"/>
<text text-anchor="middle" x="1111" y="-73.9257" font-family="Helvetica,sans-Serif" font-size="10.00">luaC_fullgc</text>
</a>
</g>
</g>
<!-- Node13&#45;&gt;Node14 -->
<g id="edge13" class="edge"><title>Node13&#45;&gt;Node14</title>
<path fill="none" stroke="midnightblue" d="M1026.64,-48.0147C1040.5,-52.7401 1057.42,-58.5046 1072.38,-63.6031"/>
<polygon fill="midnightblue" stroke="midnightblue" points="1071.28,-66.9267 1081.87,-66.8398 1073.54,-60.3009 1071.28,-66.9267"/>
</g>
<!-- Node414 -->
<g id="node15" class="node"><title>Node414</title>
<g id="a_node15"><a xlink:href="lstring_8c.html#ad47f5961683a728dd3f6d80040d1dd92" target="_top" xlink:title=" ">
<polygon fill="white" stroke="red" points="1077,-28.9257 1077,-47.9257 1145,-47.9257 1145,-28.9257 1077,-28.9257"/>
<text text-anchor="middle" x="1111" y="-35.9257" font-family="Helvetica,sans-Serif" font-size="10.00">luaS_resize</text>
</a>
</g>
</g>
<!-- Node13&#45;&gt;Node414 -->
<g id="edge14" class="edge"><title>Node13&#45;&gt;Node414</title>
<path fill="none" stroke="midnightblue" d="M1028.67,-38.4257C1040.26,-38.4257 1053.73,-38.4257 1066.34,-38.4257"/>
<polygon fill="midnightblue" stroke="midnightblue" points="1066.66,-41.9258 1076.66,-38.4257 1066.66,-34.9258 1066.66,-41.9258"/>
</g>
<!-- Node440&#45;&gt;Node77 -->
<g id="edge17" class="edge"><title>Node440&#45;&gt;Node77</title>
<path fill="none" stroke="midnightblue" d="M901.051,-270.28C919.24,-287.268 956.679,-322.234 978.878,-342.967"/>
<polygon fill="midnightblue" stroke="midnightblue" points="976.606,-345.635 986.303,-349.902 981.384,-340.519 976.606,-345.635"/>
</g>
<!-- Node77&#45;&gt;Node1 -->
<g id="edge22" class="edge"><title>Node77&#45;&gt;Node1</title>
<path fill="none" stroke="midnightblue" d="M970.735,-368.937C931.16,-382.67 852.767,-406.426 784,-406.426 279.5,-406.426 279.5,-406.426 279.5,-406.426 211.197,-406.426 132.051,-406.426 83.3788,-406.426"/>
<polygon fill="midnightblue" stroke="midnightblue" points="83.1733,-402.926 73.1732,-406.426 83.1732,-409.926 83.1733,-402.926"/>
</g>
<!-- Node77&#45;&gt;Node4 -->
<g id="edge63" class="edge"><title>Node77&#45;&gt;Node4</title>
<path fill="none" stroke="midnightblue" d="M959.646,-365.927C917.268,-368.426 845.61,-368.426 784,-368.426 504,-368.426 504,-368.426 504,-368.426 440.11,-368.426 423.724,-360.291 363,-340.426 339.433,-332.716 313.738,-319.946 297.627,-309.213"/>
<polygon fill="midnightblue" stroke="midnightblue" points="299.482,-306.234 289.337,-303.182 295.364,-311.895 299.482,-306.234"/>
</g>
<!-- Node78 -->
<g id="node19" class="node"><title>Node78</title>
<g id="a_node19"><a xlink:href="ldebug_8c.html#ad6bc24d619df8e849e2ae8b00455d86f" target="_top" xlink:title=" ">
<polygon fill="white" stroke="black" points="1073.5,-256.926 1073.5,-275.926 1148.5,-275.926 1148.5,-256.926 1073.5,-256.926"/>
<text text-anchor="middle" x="1111" y="-263.926" font-family="Helvetica,sans-Serif" font-size="10.00">getcurrentline</text>
</a>
</g>
</g>
<!-- Node77&#45;&gt;Node78 -->
<g id="edge18" class="edge"><title>Node77&#45;&gt;Node78</title>
<path fill="none" stroke="midnightblue" d="M1007.32,-349.838C1020.44,-335.868 1046.22,-309.507 1071,-290.426 1075.04,-287.315 1079.5,-284.258 1083.92,-281.421"/>
<polygon fill="midnightblue" stroke="midnightblue" points="1086.11,-284.186 1092.79,-275.963 1082.44,-278.225 1086.11,-284.186"/>
</g>
<!-- Node81 -->
<g id="node23" class="node"><title>Node81</title>
<g id="a_node23"><a xlink:href="ldebug_8c.html#af7366920f8408bb33ed01b1d6c0e1238" target="_top" xlink:title=" ">
<polygon fill="white" stroke="black" points="1071,-356.926 1071,-375.926 1151,-375.926 1151,-356.926 1071,-356.926"/>
<text text-anchor="middle" x="1111" y="-363.926" font-family="Helvetica,sans-Serif" font-size="10.00">luaG_errormsg</text>
</a>
</g>
</g>
<!-- Node77&#45;&gt;Node81 -->
<g id="edge23" class="edge"><title>Node77&#45;&gt;Node81</title>
<path fill="none" stroke="midnightblue" d="M1035.01,-361.718C1043.23,-362.234 1052.08,-362.789 1060.72,-363.332"/>
<polygon fill="midnightblue" stroke="midnightblue" points="1060.52,-366.826 1070.72,-363.96 1060.96,-359.84 1060.52,-366.826"/>
</g>
<!-- Node74 -->
<g id="node20" class="node"><title>Node74</title>
<g id="a_node20"><a xlink:href="ldebug_8c.html#a7db2a3f5cbcf0ac3ef6d4cfa15ab4dbc" target="_top" xlink:title=" ">
<polygon fill="white" stroke="black" points="1203,-256.926 1203,-275.926 1260,-275.926 1260,-256.926 1203,-256.926"/>
<text text-anchor="middle" x="1231.5" y="-263.926" font-family="Helvetica,sans-Serif" font-size="10.00">currentpc</text>
</a>
</g>
</g>
<!-- Node78&#45;&gt;Node74 -->
<g id="edge19" class="edge"><title>Node78&#45;&gt;Node74</title>
<path fill="none" stroke="midnightblue" d="M1148.52,-266.426C1162.5,-266.426 1178.47,-266.426 1192.58,-266.426"/>
<polygon fill="midnightblue" stroke="midnightblue" points="1192.94,-269.926 1202.94,-266.426 1192.94,-262.926 1192.94,-269.926"/>
</g>
<!-- Node79 -->
<g id="node21" class="node"><title>Node79</title>
<g id="a_node21"><a xlink:href="ldebug_8c.html#ae7a6d2f88b11cc05758e44acd433ee2f" target="_top" xlink:title=" ">
<polygon fill="white" stroke="black" points="1187,-218.926 1187,-237.926 1276,-237.926 1276,-218.926 1187,-218.926"/>
<text text-anchor="middle" x="1231.5" y="-225.926" font-family="Helvetica,sans-Serif" font-size="10.00">luaG_getfuncline</text>
</a>
</g>
</g>
<!-- Node78&#45;&gt;Node79 -->
<g id="edge20" class="edge"><title>Node78&#45;&gt;Node79</title>
<path fill="none" stroke="midnightblue" d="M1141.9,-256.837C1156.78,-252.066 1174.96,-246.237 1190.97,-241.103"/>
<polygon fill="midnightblue" stroke="midnightblue" points="1192.15,-244.398 1200.61,-238.012 1190.02,-237.732 1192.15,-244.398"/>
</g>
<!-- Node80 -->
<g id="node22" class="node"><title>Node80</title>
<g id="a_node22"><a xlink:href="ldebug_8c.html#a355ee1f29ee39ff665aa01ef4493f453" target="_top" xlink:title=" ">
<polygon fill="white" stroke="black" points="1312,-218.926 1312,-237.926 1378,-237.926 1378,-218.926 1312,-218.926"/>
<text text-anchor="middle" x="1345" y="-225.926" font-family="Helvetica,sans-Serif" font-size="10.00">getbaseline</text>
</a>
</g>
</g>
<!-- Node79&#45;&gt;Node80 -->
<g id="edge21" class="edge"><title>Node79&#45;&gt;Node80</title>
<path fill="none" stroke="midnightblue" d="M1276.25,-228.426C1284.57,-228.426 1293.27,-228.426 1301.55,-228.426"/>
<polygon fill="midnightblue" stroke="midnightblue" points="1301.76,-231.926 1311.76,-228.426 1301.76,-224.926 1301.76,-231.926"/>
</g>
<!-- Node55 -->
<g id="node24" class="node"><title>Node55</title>
<g id="a_node24"><a xlink:href="ldo_8c.html#a61c0a0185ef5ae1493dad10027f4db7e" target="_top" xlink:title=" ">
<polygon fill="white" stroke="black" points="1188,-356.926 1188,-375.926 1275,-375.926 1275,-356.926 1188,-356.926"/>
<text text-anchor="middle" x="1231.5" y="-363.926" font-family="Helvetica,sans-Serif" font-size="10.00">luaD_callnoyield</text>
</a>
</g>
</g>
<!-- Node81&#45;&gt;Node55 -->
<g id="edge24" class="edge"><title>Node81&#45;&gt;Node55</title>
<path fill="none" stroke="midnightblue" d="M1151.13,-366.426C1159.56,-366.426 1168.61,-366.426 1177.47,-366.426"/>
<polygon fill="midnightblue" stroke="midnightblue" points="1177.74,-369.926 1187.74,-366.426 1177.74,-362.926 1177.74,-369.926"/>
</g>
<!-- Node82 -->
<g id="node33" class="node"><title>Node82</title>
<g id="a_node33"><a xlink:href="ldo_8c.html#a2b46d9db5b9ca3d5402a0c2ac640a6b0" target="_top" xlink:title=" ">
<polygon fill="white" stroke="black" points="1550,-484.926 1550,-503.926 1615,-503.926 1615,-484.926 1550,-484.926"/>
<text text-anchor="middle" x="1582.5" y="-491.926" font-family="Helvetica,sans-Serif" font-size="10.00">luaD_throw</text>
</a>
</g>
</g>
<!-- Node81&#45;&gt;Node82 -->
<g id="edge62" class="edge"><title>Node81&#45;&gt;Node82</title>
<path fill="none" stroke="midnightblue" d="M1146.95,-375.967C1159.52,-379.216 1173.85,-382.709 1187,-385.426 1329.83,-414.918 1377.8,-378.02 1511,-437.426 1531.95,-446.77 1551.9,-463.95 1565.19,-477.015"/>
<polygon fill="midnightblue" stroke="midnightblue" points="1563.05,-479.833 1572.56,-484.511 1568.05,-474.926 1563.05,-479.833"/>
</g>
<!-- Node56 -->
<g id="node25" class="node"><title>Node56</title>
<g id="a_node25"><a xlink:href="ldo_8c.html#aa7d32ccef16c2d4fe63604c4c457831d" target="_top" xlink:title=" ">
<polygon fill="white" stroke="black" points="1326.5,-363.926 1326.5,-382.926 1363.5,-382.926 1363.5,-363.926 1326.5,-363.926"/>
<text text-anchor="middle" x="1345" y="-370.926" font-family="Helvetica,sans-Serif" font-size="10.00">ccall</text>
</a>
</g>
</g>
<!-- Node55&#45;&gt;Node56 -->
<g id="edge25" class="edge"><title>Node55&#45;&gt;Node56</title>
<path fill="none" stroke="midnightblue" d="M1275.29,-369.112C1289.06,-369.977 1303.96,-370.912 1316.34,-371.689"/>
<polygon fill="midnightblue" stroke="midnightblue" points="1316.29,-375.193 1326.49,-372.327 1316.73,-368.207 1316.29,-375.193"/>
</g>
<!-- Node57 -->
<g id="node26" class="node"><title>Node57</title>
<g id="a_node26"><a xlink:href="ldo_8c.html#a6ef9a33a964a596c36af61d452260bf5" target="_top" xlink:title=" ">
<polygon fill="white" stroke="black" points="1547.5,-408.926 1547.5,-427.926 1617.5,-427.926 1617.5,-408.926 1547.5,-408.926"/>
<text text-anchor="middle" x="1582.5" y="-415.926" font-family="Helvetica,sans-Serif" font-size="10.00">luaD_precall</text>
</a>
</g>
</g>
<!-- Node56&#45;&gt;Node57 -->
<g id="edge26" class="edge"><title>Node56&#45;&gt;Node57</title>
<path fill="none" stroke="midnightblue" d="M1363.84,-376.714C1394.11,-382.31 1457.48,-394.085 1511,-404.426 1519.54,-406.076 1528.66,-407.866 1537.41,-409.597"/>
<polygon fill="midnightblue" stroke="midnightblue" points="1536.96,-413.076 1547.45,-411.59 1538.32,-406.21 1536.96,-413.076"/>
</g>
<!-- Node100 -->
<g id="node32" class="node"><title>Node100</title>
<g id="a_node32"><a xlink:href="lstate_8c.html#a3da163a7316194f3a2cb950ee2b4e614" target="_top" xlink:title=" ">
<polygon fill="white" stroke="black" points="1414,-446.926 1414,-465.926 1511,-465.926 1511,-446.926 1414,-446.926"/>
<text text-anchor="middle" x="1462.5" y="-453.926" font-family="Helvetica,sans-Serif" font-size="10.00">luaE_checkcstack</text>
</a>
</g>
</g>
<!-- Node56&#45;&gt;Node100 -->
<g id="edge33" class="edge"><title>Node56&#45;&gt;Node100</title>
<path fill="none" stroke="midnightblue" d="M1359.25,-382.947C1378.9,-397.068 1415.99,-423.724 1439.69,-440.751"/>
<polygon fill="midnightblue" stroke="midnightblue" points="1437.89,-443.766 1448.05,-446.76 1441.97,-438.082 1437.89,-443.766"/>
</g>
<!-- Node101 -->
<g id="node38" class="node"><title>Node101</title>
<g id="a_node38"><a xlink:href="lvm_8c.html#a221e6dd0bc488dc961e9007ed8e21189" target="_top" xlink:title=" ">
<polygon fill="white" stroke="red" points="1424.5,-332.926 1424.5,-351.926 1500.5,-351.926 1500.5,-332.926 1424.5,-332.926"/>
<text text-anchor="middle" x="1462.5" y="-339.926" font-family="Helvetica,sans-Serif" font-size="10.00">luaV_execute</text>
</a>
</g>
</g>
<!-- Node56&#45;&gt;Node101 -->
<g id="edge42" class="edge"><title>Node56&#45;&gt;Node101</title>
<path fill="none" stroke="midnightblue" d="M1363.54,-368.717C1377.56,-364.956 1397.84,-359.511 1416.33,-354.55"/>
<polygon fill="midnightblue" stroke="midnightblue" points="1417.32,-357.908 1426.07,-351.935 1415.5,-351.147 1417.32,-357.908"/>
</g>
<!-- Node58 -->
<g id="node27" class="node"><title>Node58</title>
<g id="a_node27"><a xlink:href="ldo_8c.html#aa74dd2ed1bf68092213c0cd69d3a8aab" target="_top" xlink:title=" ">
<polygon fill="white" stroke="black" points="1675.5,-408.926 1675.5,-427.926 1737.5,-427.926 1737.5,-408.926 1675.5,-408.926"/>
<text text-anchor="middle" x="1706.5" y="-415.926" font-family="Helvetica,sans-Serif" font-size="10.00">luaD_hook</text>
</a>
</g>
</g>
<!-- Node57&#45;&gt;Node58 -->
<g id="edge27" class="edge"><title>Node57&#45;&gt;Node58</title>
<path fill="none" stroke="midnightblue" d="M1617.81,-418.426C1632.47,-418.426 1649.69,-418.426 1664.97,-418.426"/>
<polygon fill="midnightblue" stroke="midnightblue" points="1665.19,-421.926 1675.19,-418.426 1665.19,-414.926 1665.19,-421.926"/>
</g>
<!-- Node59 -->
<g id="node28" class="node"><title>Node59</title>
<g id="a_node28"><a xlink:href="ldo_8c.html#a93ef0e89dcfdd64224670aa54d7e4f5b" target="_top" xlink:title=" ">
<polygon fill="white" stroke="red" points="1670.5,-332.926 1670.5,-351.926 1742.5,-351.926 1742.5,-332.926 1670.5,-332.926"/>
<text text-anchor="middle" x="1706.5" y="-339.926" font-family="Helvetica,sans-Serif" font-size="10.00">luaD_poscall</text>
</a>
</g>
</g>
<!-- Node57&#45;&gt;Node59 -->
<g id="edge28" class="edge"><title>Node57&#45;&gt;Node59</title>
<path fill="none" stroke="midnightblue" d="M1602.98,-408.757C1608.02,-405.973 1613.33,-402.776 1618,-399.426 1635.63,-386.767 1635.95,-378.484 1654,-366.426 1659.49,-362.758 1665.63,-359.367 1671.71,-356.359"/>
<polygon fill="midnightblue" stroke="midnightblue" points="1673.52,-359.373 1681.09,-351.963 1670.55,-353.034 1673.52,-359.373"/>
</g>
<!-- Node85 -->
<g id="node29" class="node"><title>Node85</title>
<g id="a_node29"><a xlink:href="ldo_8c.html#ac468380c26188a69262776f07bdf7780" target="_top" xlink:title=" ">
<polygon fill="white" stroke="black" points="1798.5,-332.926 1798.5,-351.926 1882.5,-351.926 1882.5,-332.926 1798.5,-332.926"/>
<text text-anchor="middle" x="1840.5" y="-339.926" font-family="Helvetica,sans-Serif" font-size="10.00">luaD_tryfuncTM</text>
</a>
</g>
</g>
<!-- Node57&#45;&gt;Node85 -->
<g id="edge29" class="edge"><title>Node57&#45;&gt;Node85</title>
<path fill="none" stroke="midnightblue" d="M1615.66,-408.877C1661.74,-395.198 1746.59,-370.008 1797.55,-354.88"/>
<polygon fill="midnightblue" stroke="midnightblue" points="1798.68,-358.196 1807.27,-351.995 1796.68,-351.486 1798.68,-358.196"/>
</g>
<!-- Node86 -->
<g id="node30" class="node"><title>Node86</title>
<g id="a_node30"><a xlink:href="ldebug_8c.html#a60bf9ce85441bd5065f2b73640163711" target="_top" xlink:title=" ">
<polygon fill="white" stroke="red" points="1926,-332.926 1926,-351.926 2006,-351.926 2006,-332.926 1926,-332.926"/>
<text text-anchor="middle" x="1966" y="-339.926" font-family="Helvetica,sans-Serif" font-size="10.00">luaG_typeerror</text>
</a>
</g>
</g>
<!-- Node85&#45;&gt;Node86 -->
<g id="edge30" class="edge"><title>Node85&#45;&gt;Node86</title>
<path fill="none" stroke="midnightblue" d="M1882.62,-342.426C1893.15,-342.426 1904.58,-342.426 1915.49,-342.426"/>
<polygon fill="midnightblue" stroke="midnightblue" points="1915.73,-345.926 1925.73,-342.426 1915.73,-338.926 1915.73,-345.926"/>
</g>
<!-- Node70 -->
<g id="node31" class="node"><title>Node70</title>
<g id="a_node31"><a xlink:href="ltm_8c.html#a0a3a3df9d6e7f17d806f74d411e59b2d" target="_top" xlink:title=" ">
<polygon fill="white" stroke="red" points="1922,-275.926 1922,-294.926 2010,-294.926 2010,-275.926 1922,-275.926"/>
<text text-anchor="middle" x="1966" y="-282.926" font-family="Helvetica,sans-Serif" font-size="10.00">luaT_gettmbyobj</text>
</a>
</g>
</g>
<!-- Node85&#45;&gt;Node70 -->
<g id="edge32" class="edge"><title>Node85&#45;&gt;Node70</title>
<path fill="none" stroke="midnightblue" d="M1864.68,-332.76C1871.57,-329.825 1879.12,-326.549 1886,-323.426 1902.83,-315.791 1921.46,-306.852 1936.4,-299.562"/>
<polygon fill="midnightblue" stroke="midnightblue" points="1938.19,-302.582 1945.63,-295.04 1935.11,-296.296 1938.19,-302.582"/>
</g>
<!-- Node86&#45;&gt;Node77 -->
<g id="edge31" class="edge"><title>Node86&#45;&gt;Node77</title>
<path fill="none" stroke="midnightblue" d="M1962.11,-352.249C1954.27,-377.058 1930.2,-442.594 1886,-475.426 1774.81,-558.026 1722.02,-550.426 1583.5,-550.426 1230.5,-550.426 1230.5,-550.426 1230.5,-550.426 1122.63,-550.426 1037.67,-425.84 1008.98,-377.909"/>
<polygon fill="midnightblue" stroke="midnightblue" points="1011.93,-376.024 1003.86,-369.16 1005.89,-379.559 1011.93,-376.024"/>
</g>
<!-- Node100&#45;&gt;Node77 -->
<g id="edge41" class="edge"><title>Node100&#45;&gt;Node77</title>
<path fill="none" stroke="midnightblue" d="M1413.75,-456.307C1358.48,-455.241 1265.05,-450.564 1187,-432.426 1128.26,-418.774 1063.44,-390.557 1027.17,-373.48"/>
<polygon fill="midnightblue" stroke="midnightblue" points="1028.26,-370.122 1017.73,-368.98 1025.25,-376.441 1028.26,-370.122"/>
</g>
<!-- Node100&#45;&gt;Node82 -->
<g id="edge34" class="edge"><title>Node100&#45;&gt;Node82</title>
<path fill="none" stroke="midnightblue" d="M1493.28,-466.015C1508.09,-470.785 1526.19,-476.614 1542.13,-481.749"/>
<polygon fill="midnightblue" stroke="midnightblue" points="1541.14,-485.106 1551.73,-484.84 1543.29,-478.443 1541.14,-485.106"/>
</g>
<!-- Node82&#45;&gt;Node82 -->
<g id="edge36" class="edge"><title>Node82&#45;&gt;Node82</title>
<path fill="none" stroke="midnightblue" d="M1564,-504.183C1555.01,-512.991 1561.17,-522.426 1582.5,-522.426 1596.16,-522.426 1603.6,-518.554 1604.82,-513.455"/>
<polygon fill="midnightblue" stroke="midnightblue" points="1608.05,-512.092 1601,-504.183 1601.57,-514.762 1608.05,-512.092"/>
</g>
<!-- Node66 -->
<g id="node34" class="node"><title>Node66</title>
<g id="a_node34"><a xlink:href="ldo_8c.html#a2a5656cf723dffe2e9b5314260bd8896" target="_top" xlink:title=" ">
<polygon fill="white" stroke="black" points="1922.5,-484.926 1922.5,-503.926 2009.5,-503.926 2009.5,-484.926 1922.5,-484.926"/>
<text text-anchor="middle" x="1966" y="-491.926" font-family="Helvetica,sans-Serif" font-size="10.00">luaD_seterrorobj</text>
</a>
</g>
</g>
<!-- Node82&#45;&gt;Node66 -->
<g id="edge35" class="edge"><title>Node82&#45;&gt;Node66</title>
<path fill="none" stroke="midnightblue" d="M1615.04,-494.426C1680.39,-494.426 1831.19,-494.426 1911.84,-494.426"/>
<polygon fill="midnightblue" stroke="midnightblue" points="1912.27,-497.926 1922.27,-494.426 1912.27,-490.926 1912.27,-497.926"/>
</g>
<!-- Node61 -->
<g id="node35" class="node"><title>Node61</title>
<g id="a_node35"><a xlink:href="lfunc_8c.html#ae9fcbf80b5969afd9412b9aed102f94e" target="_top" xlink:title=" ">
<polygon fill="white" stroke="black" points="1674.5,-446.926 1674.5,-465.926 1738.5,-465.926 1738.5,-446.926 1674.5,-446.926"/>
<text text-anchor="middle" x="1706.5" y="-453.926" font-family="Helvetica,sans-Serif" font-size="10.00">luaF_close</text>
</a>
</g>
</g>
<!-- Node82&#45;&gt;Node61 -->
<g id="edge37" class="edge"><title>Node82&#45;&gt;Node61</title>
<path fill="none" stroke="midnightblue" d="M1614.29,-484.837C1629.6,-480.066 1648.32,-474.237 1664.8,-469.103"/>
<polygon fill="midnightblue" stroke="midnightblue" points="1666.22,-472.327 1674.72,-466.012 1664.14,-465.644 1666.22,-472.327"/>
</g>
<!-- Node62 -->
<g id="node36" class="node"><title>Node62</title>
<g id="a_node36"><a xlink:href="lfunc_8c.html#a4105c820bb9b1b4b4b3bd6613b0ccb05" target="_top" xlink:title=" ">
<polygon fill="white" stroke="red" points="1805,-446.926 1805,-465.926 1876,-465.926 1876,-446.926 1805,-446.926"/>
<text text-anchor="middle" x="1840.5" y="-453.926" font-family="Helvetica,sans-Serif" font-size="10.00">callclosemth</text>
</a>
</g>
</g>
<!-- Node61&#45;&gt;Node62 -->
<g id="edge38" class="edge"><title>Node61&#45;&gt;Node62</title>
<path fill="none" stroke="midnightblue" d="M1738.78,-456.426C1755.43,-456.426 1776.2,-456.426 1794.54,-456.426"/>
<polygon fill="midnightblue" stroke="midnightblue" points="1794.73,-459.926 1804.73,-456.426 1794.73,-452.926 1794.73,-459.926"/>
</g>
<!-- Node83 -->
<g id="node37" class="node"><title>Node83</title>
<g id="a_node37"><a xlink:href="lfunc_8c.html#a3b5a5ae122e85af5c941e9b4ffff53bd" target="_top" xlink:title=" ">
<polygon fill="white" stroke="black" points="1796.5,-408.926 1796.5,-427.926 1884.5,-427.926 1884.5,-408.926 1796.5,-408.926"/>
<text text-anchor="middle" x="1840.5" y="-415.926" font-family="Helvetica,sans-Serif" font-size="10.00">luaF_unlinkupval</text>
</a>
</g>
</g>
<!-- Node61&#45;&gt;Node83 -->
<g id="edge40" class="edge"><title>Node61&#45;&gt;Node83</title>
<path fill="none" stroke="midnightblue" d="M1738.78,-447.42C1755.97,-442.472 1777.55,-436.258 1796.33,-430.854"/>
<polygon fill="midnightblue" stroke="midnightblue" points="1797.49,-434.161 1806.13,-428.031 1795.56,-427.434 1797.49,-434.161"/>
</g>
<!-- Node62&#45;&gt;Node66 -->
<g id="edge39" class="edge"><title>Node62&#45;&gt;Node66</title>
<path fill="none" stroke="midnightblue" d="M1872.66,-466.015C1888.31,-470.83 1907.47,-476.725 1924.27,-481.894"/>
<polygon fill="midnightblue" stroke="midnightblue" points="1923.26,-485.244 1933.85,-484.84 1925.32,-478.554 1923.26,-485.244"/>
</g>
<!-- Node101&#45;&gt;Node57 -->
<g id="edge46" class="edge"><title>Node101&#45;&gt;Node57</title>
<path fill="none" stroke="midnightblue" d="M1485.49,-351.982C1493.77,-355.976 1503.1,-360.961 1511,-366.426 1528.85,-378.769 1529.37,-386.767 1547,-399.426 1548.9,-400.787 1550.9,-402.122 1552.95,-403.415"/>
<polygon fill="midnightblue" stroke="midnightblue" points="1551.63,-406.702 1562.02,-408.757 1555.18,-400.669 1551.63,-406.702"/>
</g>
<!-- Node101&#45;&gt;Node59 -->
<g id="edge45" class="edge"><title>Node101&#45;&gt;Node59</title>
<path fill="none" stroke="midnightblue" d="M1500.52,-342.426C1543.48,-342.426 1614.31,-342.426 1660.43,-342.426"/>
<polygon fill="midnightblue" stroke="midnightblue" points="1660.45,-345.926 1670.45,-342.426 1660.45,-338.926 1660.45,-345.926"/>
</g>
<!-- Node101&#45;&gt;Node85 -->
<g id="edge47" class="edge"><title>Node101&#45;&gt;Node85</title>
<path fill="none" stroke="midnightblue" d="M1485.49,-332.87C1493.77,-328.876 1503.1,-323.89 1511,-318.426 1528.85,-306.082 1526.77,-293.294 1547,-285.426 1592.98,-267.541 1732.78,-307.936 1801.1,-329.704"/>
<polygon fill="midnightblue" stroke="midnightblue" points="1800.44,-333.169 1811.03,-332.899 1802.59,-326.505 1800.44,-333.169"/>
</g>
<!-- Node101&#45;&gt;Node61 -->
<g id="edge48" class="edge"><title>Node101&#45;&gt;Node61</title>
<path fill="none" stroke="midnightblue" d="M1470.46,-351.945C1486.73,-373.919 1527.37,-427.096 1547,-437.426 1583.29,-456.529 1630.59,-459.895 1664.04,-459.335"/>
<polygon fill="midnightblue" stroke="midnightblue" points="1664.49,-462.824 1674.39,-459.03 1664.29,-455.827 1664.49,-462.824"/>
</g>
<!-- Node102 -->
<g id="node39" class="node"><title>Node102</title>
<g id="a_node39"><a xlink:href="lparser_8c.html#a24002c50a108445d916457eb3c21d5e1" target="_top" xlink:title=" ">
<polygon fill="white" stroke="red" points="1563.5,-294.926 1563.5,-313.926 1601.5,-313.926 1601.5,-294.926 1563.5,-294.926"/>
<text text-anchor="middle" x="1582.5" y="-301.926" font-family="Helvetica,sans-Serif" font-size="10.00">cond</text>
</a>
</g>
</g>
<!-- Node101&#45;&gt;Node102 -->
<g id="edge43" class="edge"><title>Node101&#45;&gt;Node102</title>
<path fill="none" stroke="midnightblue" d="M1493.28,-332.837C1511.85,-326.854 1535.6,-319.206 1553.78,-313.352"/>
<polygon fill="midnightblue" stroke="midnightblue" points="1555.05,-316.62 1563.5,-310.223 1552.91,-309.957 1555.05,-316.62"/>
</g>
<!-- Node366 -->
<g id="node40" class="node"><title>Node366</title>
<g id="a_node40"><a xlink:href="lvm_8c.html#ae1da05262daf2e1f5616c2f0e6472264" target="_top" xlink:title=" ">
<polygon fill="white" stroke="black" points="1551,-370.926 1551,-389.926 1614,-389.926 1614,-370.926 1551,-370.926"/>
<text text-anchor="middle" x="1582.5" y="-377.926" font-family="Helvetica,sans-Serif" font-size="10.00">floatforloop</text>
</a>
</g>
</g>
<!-- Node101&#45;&gt;Node366 -->
<g id="edge44" class="edge"><title>Node101&#45;&gt;Node366</title>
<path fill="none" stroke="midnightblue" d="M1493.28,-352.015C1508.09,-356.785 1526.19,-362.614 1542.13,-367.749"/>
<polygon fill="midnightblue" stroke="midnightblue" points="1541.14,-371.106 1551.73,-370.84 1543.29,-364.443 1541.14,-371.106"/>
</g>
<!-- Node101&#45;&gt;Node395 -->
<g id="edge49" class="edge"><title>Node101&#45;&gt;Node395</title>
<path fill="none" stroke="midnightblue" d="M1470.88,-332.917C1490.25,-307.966 1542.77,-240.32 1567.83,-208.034"/>
<polygon fill="midnightblue" stroke="midnightblue" points="1570.75,-209.976 1574.12,-199.93 1565.22,-205.683 1570.75,-209.976"/>
</g>
<!-- Node395&#45;&gt;Node9 -->
<g id="edge54" class="edge"><title>Node395&#45;&gt;Node9</title>
<path fill="none" stroke="midnightblue" d="M1546.67,-181.227C1500.96,-169.981 1418.06,-152.426 1346,-152.426 996.5,-152.426 996.5,-152.426 996.5,-152.426 938.901,-152.426 872.52,-152.426 829.493,-152.426"/>
<polygon fill="midnightblue" stroke="midnightblue" points="829.344,-148.926 819.344,-152.426 829.344,-155.926 829.344,-148.926"/>
</g>
<!-- Node395&#45;&gt;Node77 -->
<g id="edge51" class="edge"><title>Node395&#45;&gt;Node77</title>
<path fill="none" stroke="midnightblue" d="M1552.13,-199.998C1497.82,-217.601 1377.93,-256.001 1276,-285.426 1195.28,-308.73 1100.59,-333.418 1045.29,-347.57"/>
<polygon fill="midnightblue" stroke="midnightblue" points="1044.26,-344.221 1035.44,-350.087 1046,-351.003 1044.26,-344.221"/>
</g>
<!-- Node396 -->
<g id="node42" class="node"><title>Node396</title>
<g id="a_node42"><a xlink:href="lvm_8c.html#a7f03a9c23b77ec5cd280bb955ec430b8" target="_top" xlink:title=" ">
<polygon fill="white" stroke="black" points="1677.5,-180.926 1677.5,-199.926 1735.5,-199.926 1735.5,-180.926 1677.5,-180.926"/>
<text text-anchor="middle" x="1706.5" y="-187.926" font-family="Helvetica,sans-Serif" font-size="10.00">copy2buff</text>
</a>
</g>
</g>
<!-- Node395&#45;&gt;Node396 -->
<g id="edge50" class="edge"><title>Node395&#45;&gt;Node396</title>
<path fill="none" stroke="midnightblue" d="M1618.13,-190.426C1633.36,-190.426 1651.3,-190.426 1666.95,-190.426"/>
<polygon fill="midnightblue" stroke="midnightblue" points="1667.35,-193.926 1677.35,-190.426 1667.35,-186.926 1667.35,-193.926"/>
</g>
<!-- Node395&#45;&gt;Node397 -->
<g id="edge52" class="edge"><title>Node395&#45;&gt;Node397</title>
<path fill="none" stroke="midnightblue" d="M1598.95,-180.8C1619.76,-167.837 1657,-144.64 1681.48,-129.39"/>
<polygon fill="midnightblue" stroke="midnightblue" points="1683.54,-132.231 1690.17,-123.973 1679.84,-126.29 1683.54,-132.231"/>
</g>
<!-- Node398 -->
<g id="node44" class="node"><title>Node398</title>
<g id="a_node44"><a xlink:href="ltm_8c.html#addc61bf94c111c5a5bd3fe0032cb9be0" target="_top" xlink:title=" ">
<polygon fill="white" stroke="black" points="1659.5,-256.926 1659.5,-275.926 1753.5,-275.926 1753.5,-256.926 1659.5,-256.926"/>
<text text-anchor="middle" x="1706.5" y="-263.926" font-family="Helvetica,sans-Serif" font-size="10.00">luaT_tryconcatTM</text>
</a>
</g>
</g>
<!-- Node395&#45;&gt;Node398 -->
<g id="edge55" class="edge"><title>Node395&#45;&gt;Node398</title>
<path fill="none" stroke="midnightblue" d="M1598.95,-200.051C1619.76,-213.014 1657,-236.212 1681.48,-251.461"/>
<polygon fill="midnightblue" stroke="midnightblue" points="1679.84,-254.562 1690.17,-256.878 1683.54,-248.62 1679.84,-254.562"/>
</g>
<!-- Node397&#45;&gt;Node11 -->
<g id="edge53" class="edge"><title>Node397&#45;&gt;Node11</title>
<path fill="none" stroke="midnightblue" d="M1729.59,-104.885C1751.01,-95.6374 1783.71,-81.5155 1807.88,-71.0789"/>
<polygon fill="midnightblue" stroke="midnightblue" points="1809.54,-74.175 1817.33,-66.9974 1806.77,-67.7485 1809.54,-74.175"/>
</g>
<!-- Node373 -->
<g id="node45" class="node"><title>Node373</title>
<g id="a_node45"><a xlink:href="ltm_8c.html#a68751e8f9bf0714d8c761a5b6ce4daf9" target="_top" xlink:title=" ">
<polygon fill="white" stroke="black" points="1811.5,-256.926 1811.5,-275.926 1869.5,-275.926 1869.5,-256.926 1811.5,-256.926"/>
<text text-anchor="middle" x="1840.5" y="-263.926" font-family="Helvetica,sans-Serif" font-size="10.00">callbinTM</text>
</a>
</g>
</g>
<!-- Node398&#45;&gt;Node373 -->
<g id="edge56" class="edge"><title>Node398&#45;&gt;Node373</title>
<path fill="none" stroke="midnightblue" d="M1753.67,-266.426C1769.1,-266.426 1786.13,-266.426 1800.93,-266.426"/>
<polygon fill="midnightblue" stroke="midnightblue" points="1801.25,-269.926 1811.25,-266.426 1801.25,-262.926 1801.25,-269.926"/>
</g>
<!-- Node399 -->
<g id="node47" class="node"><title>Node399</title>
<g id="a_node47"><a xlink:href="ldebug_8c.html#a04641ef359f3943a2ca88f52c3fe283c" target="_top" xlink:title=" ">
<polygon fill="white" stroke="black" points="1795,-294.926 1795,-313.926 1886,-313.926 1886,-294.926 1795,-294.926"/>
<text text-anchor="middle" x="1840.5" y="-301.926" font-family="Helvetica,sans-Serif" font-size="10.00">luaG_concaterror</text>
</a>
</g>
</g>
<!-- Node398&#45;&gt;Node399 -->
<g id="edge60" class="edge"><title>Node398&#45;&gt;Node399</title>
<path fill="none" stroke="midnightblue" d="M1740.81,-276.015C1757.69,-280.875 1778.39,-286.835 1796.47,-292.038"/>
<polygon fill="midnightblue" stroke="midnightblue" points="1795.62,-295.437 1806.2,-294.84 1797.56,-288.71 1795.62,-295.437"/>
</g>
<!-- Node373&#45;&gt;Node70 -->
<g id="edge59" class="edge"><title>Node373&#45;&gt;Node70</title>
<path fill="none" stroke="midnightblue" d="M1869.52,-270.737C1882.01,-272.659 1897.16,-274.989 1911.67,-277.221"/>
<polygon fill="midnightblue" stroke="midnightblue" points="1911.16,-280.684 1921.58,-278.745 1912.23,-273.765 1911.16,-280.684"/>
</g>
<!-- Node374 -->
<g id="node46" class="node"><title>Node374</title>
<g id="a_node46"><a xlink:href="ltm_8c.html#aad98f3a425ba53e65e7a8f8037320402" target="_top" xlink:title=" ">
<polygon fill="white" stroke="red" points="1925,-218.926 1925,-237.926 2007,-237.926 2007,-218.926 1925,-218.926"/>
<text text-anchor="middle" x="1966" y="-225.926" font-family="Helvetica,sans-Serif" font-size="10.00">luaT_callTMres</text>
</a>
</g>
</g>
<!-- Node373&#45;&gt;Node374 -->
<g id="edge57" class="edge"><title>Node373&#45;&gt;Node374</title>
<path fill="none" stroke="midnightblue" d="M1869.52,-257.803C1885.74,-252.814 1906.42,-246.449 1924.39,-240.92"/>
<polygon fill="midnightblue" stroke="midnightblue" points="1925.52,-244.234 1934.05,-237.948 1923.47,-237.544 1925.52,-244.234"/>
</g>
<!-- Node374&#45;&gt;Node55 -->
<g id="edge58" class="edge"><title>Node374&#45;&gt;Node55</title>
<path fill="none" stroke="midnightblue" d="M1924.94,-228.278C1865.44,-228.643 1750.35,-231.596 1654,-247.426 1507.81,-271.444 1340,-327.832 1268.15,-353.406"/>
<polygon fill="midnightblue" stroke="midnightblue" points="1266.9,-350.137 1258.66,-356.803 1269.26,-356.727 1266.9,-350.137"/>
</g>
<!-- Node399&#45;&gt;Node86 -->
<g id="edge61" class="edge"><title>Node399&#45;&gt;Node86</title>
<path fill="none" stroke="midnightblue" d="M1872.66,-314.015C1888.31,-318.83 1907.47,-324.725 1924.27,-329.894"/>
<polygon fill="midnightblue" stroke="midnightblue" points="1923.26,-333.244 1933.85,-332.84 1925.32,-326.554 1923.26,-333.244"/>
</g>
<!-- Node442&#45;&gt;Node6 -->
<g id="edge69" class="edge"><title>Node442&#45;&gt;Node6</title>
<path fill="none" stroke="midnightblue" d="M426.991,-170.015C440.84,-175.124 457.981,-181.448 472.573,-186.831"/>
<polygon fill="midnightblue" stroke="midnightblue" points="471.602,-190.204 482.196,-190.381 474.025,-183.636 471.602,-190.204"/>
</g>
<!-- Node442&#45;&gt;Node7 -->
<g id="edge68" class="edge"><title>Node442&#45;&gt;Node7</title>
<path fill="none" stroke="midnightblue" d="M432.294,-163.436C467.636,-166.836 525.059,-172.36 562.303,-175.943"/>
<polygon fill="midnightblue" stroke="midnightblue" points="562.412,-179.47 572.702,-176.944 563.083,-172.502 562.412,-179.47"/>
</g>
<!-- Node442&#45;&gt;Node8 -->
<g id="edge70" class="edge"><title>Node442&#45;&gt;Node8</title>
<path fill="none" stroke="midnightblue" d="M432.017,-158.64C475.487,-156.544 556.954,-154.097 626,-160.426 634.478,-161.203 643.552,-162.59 651.994,-164.124"/>
<polygon fill="midnightblue" stroke="midnightblue" points="651.414,-167.577 661.896,-166.036 652.741,-160.704 651.414,-167.577"/>
</g>
</g>
</svg>
