<?xml version="1.0" encoding="UTF-8" standalone="no"?>
<!DOCTYPE svg PUBLIC "-//W3C//DTD SVG 1.1//EN"
 "http://www.w3.org/Graphics/SVG/1.1/DTD/svg11.dtd">
<!-- Generated by graphviz version 2.38.0 (20140413.2041)
 -->
<!-- Title: ldebug.h Pages: 1 -->
<svg width="248pt" height="420pt"
 viewBox="0.00 0.00 247.55 420.00" xmlns="http://www.w3.org/2000/svg" xmlns:xlink="http://www.w3.org/1999/xlink">
<g id="graph0" class="graph" transform="scale(1 1) rotate(0) translate(4 416)">
<title>ldebug.h</title>
<polygon fill="white" stroke="none" points="-4,4 -4,-416 243.551,-416 243.551,4 -4,4"/>
<!-- Node1 -->
<g id="node1" class="node"><title>Node1</title>
<g id="a_node1"><a xlink:title=" ">
<polygon fill="#bfbfbf" stroke="black" points="55.5,-392.5 55.5,-411.5 108.5,-411.5 108.5,-392.5 55.5,-392.5"/>
<text text-anchor="middle" x="82" y="-399.5" font-family="Helvetica,sans-Serif" font-size="10.00">ldebug.h</text>
</a>
</g>
</g>
<!-- Node2 -->
<g id="node2" class="node"><title>Node2</title>
<g id="a_node2"><a xlink:href="lstate_8h.html" target="_top" xlink:title=" ">
<polygon fill="white" stroke="black" points="57.5,-336.5 57.5,-355.5 106.5,-355.5 106.5,-336.5 57.5,-336.5"/>
<text text-anchor="middle" x="82" y="-343.5" font-family="Helvetica,sans-Serif" font-size="10.00">lstate.h</text>
</a>
</g>
</g>
<!-- Node1&#45;&gt;Node2 -->
<g id="edge1" class="edge"><title>Node1&#45;&gt;Node2</title>
<path fill="none" stroke="midnightblue" d="M82,-392.083C82,-385.006 82,-374.861 82,-365.986"/>
<polygon fill="midnightblue" stroke="midnightblue" points="85.5001,-365.751 82,-355.751 78.5001,-365.751 85.5001,-365.751"/>
</g>
<!-- Node3 -->
<g id="node3" class="node"><title>Node3</title>
<g id="a_node3"><a xlink:href="lua_8h.html" target="_top" xlink:title=" ">
<polygon fill="white" stroke="black" points="81,-112.5 81,-131.5 119,-131.5 119,-112.5 81,-112.5"/>
<text text-anchor="middle" x="100" y="-119.5" font-family="Helvetica,sans-Serif" font-size="10.00">lua.h</text>
</a>
</g>
</g>
<!-- Node2&#45;&gt;Node3 -->
<g id="edge2" class="edge"><title>Node2&#45;&gt;Node3</title>
<path fill="none" stroke="midnightblue" d="M57.3151,-337.482C39.8469,-330.723 17.6986,-318.896 7,-300 0.513921,-288.544 -1.24065,-253.211 11,-224 26.1507,-187.845 59.6556,-155.709 80.9586,-137.846"/>
<polygon fill="midnightblue" stroke="midnightblue" points="83.1883,-140.544 88.7256,-131.512 78.764,-135.12 83.1883,-140.544"/>
</g>
<!-- Node8 -->
<g id="node8" class="node"><title>Node8</title>
<g id="a_node8"><a xlink:href="lobject_8h.html" target="_top" xlink:title=" ">
<polygon fill="white" stroke="black" points="20.5,-224.5 20.5,-243.5 73.5,-243.5 73.5,-224.5 20.5,-224.5"/>
<text text-anchor="middle" x="47" y="-231.5" font-family="Helvetica,sans-Serif" font-size="10.00">lobject.h</text>
</a>
</g>
</g>
<!-- Node2&#45;&gt;Node8 -->
<g id="edge8" class="edge"><title>Node2&#45;&gt;Node8</title>
<path fill="none" stroke="midnightblue" d="M79.5779,-336.12C76.1124,-323.558 69.4438,-299.911 63,-280 60.1242,-271.114 56.6814,-261.336 53.7275,-253.171"/>
<polygon fill="midnightblue" stroke="midnightblue" points="56.9396,-251.764 50.2145,-243.577 50.3664,-254.171 56.9396,-251.764"/>
</g>
<!-- Node10 -->
<g id="node10" class="node"><title>Node10</title>
<g id="a_node10"><a xlink:href="ltm_8h.html" target="_top" xlink:title=" ">
<polygon fill="white" stroke="black" points="16,-280.5 16,-299.5 54,-299.5 54,-280.5 16,-280.5"/>
<text text-anchor="middle" x="35" y="-287.5" font-family="Helvetica,sans-Serif" font-size="10.00">ltm.h</text>
</a>
</g>
</g>
<!-- Node2&#45;&gt;Node10 -->
<g id="edge15" class="edge"><title>Node2&#45;&gt;Node10</title>
<path fill="none" stroke="midnightblue" d="M74.2389,-336.083C67.4632,-328.298 57.4568,-316.801 49.2449,-307.367"/>
<polygon fill="midnightblue" stroke="midnightblue" points="51.822,-304.996 42.6167,-299.751 46.5419,-309.592 51.822,-304.996"/>
</g>
<!-- Node11 -->
<g id="node11" class="node"><title>Node11</title>
<g id="a_node11"><a xlink:href="lzio_8h.html" target="_top" xlink:title=" ">
<polygon fill="white" stroke="black" points="110,-280.5 110,-299.5 150,-299.5 150,-280.5 110,-280.5"/>
<text text-anchor="middle" x="130" y="-287.5" font-family="Helvetica,sans-Serif" font-size="10.00">lzio.h</text>
</a>
</g>
</g>
<!-- Node2&#45;&gt;Node11 -->
<g id="edge17" class="edge"><title>Node2&#45;&gt;Node11</title>
<path fill="none" stroke="midnightblue" d="M89.9262,-336.083C96.8461,-328.298 107.065,-316.801 115.452,-307.367"/>
<polygon fill="midnightblue" stroke="midnightblue" points="118.194,-309.55 122.221,-299.751 112.962,-304.9 118.194,-309.55"/>
</g>
<!-- Node13 -->
<g id="node13" class="node"><title>Node13</title>
<g id="a_node13"><a xlink:title=" ">
<polygon fill="white" stroke="#bfbfbf" points="168,-280.5 168,-299.5 218,-299.5 218,-280.5 168,-280.5"/>
<text text-anchor="middle" x="193" y="-287.5" font-family="Helvetica,sans-Serif" font-size="10.00">signal.h</text>
</a>
</g>
</g>
<!-- Node2&#45;&gt;Node13 -->
<g id="edge23" class="edge"><title>Node2&#45;&gt;Node13</title>
<path fill="none" stroke="midnightblue" d="M99.8341,-336.324C117.716,-327.625 145.475,-314.12 166.046,-304.113"/>
<polygon fill="midnightblue" stroke="midnightblue" points="167.749,-307.177 175.21,-299.655 164.687,-300.882 167.749,-307.177"/>
</g>
<!-- Node4 -->
<g id="node4" class="node"><title>Node4</title>
<g id="a_node4"><a xlink:title=" ">
<polygon fill="white" stroke="#bfbfbf" points="0,-56.5 0,-75.5 52,-75.5 52,-56.5 0,-56.5"/>
<text text-anchor="middle" x="26" y="-63.5" font-family="Helvetica,sans-Serif" font-size="10.00">stdarg.h</text>
</a>
</g>
</g>
<!-- Node3&#45;&gt;Node4 -->
<g id="edge3" class="edge"><title>Node3&#45;&gt;Node4</title>
<path fill="none" stroke="midnightblue" d="M88.1106,-112.324C76.8498,-104.107 59.7134,-91.6017 46.2909,-81.8069"/>
<polygon fill="midnightblue" stroke="midnightblue" points="48.2468,-78.9014 38.1057,-75.8339 44.1205,-84.5559 48.2468,-78.9014"/>
</g>
<!-- Node5 -->
<g id="node5" class="node"><title>Node5</title>
<g id="a_node5"><a xlink:title=" ">
<polygon fill="white" stroke="#bfbfbf" points="188.5,-0.5 188.5,-19.5 239.5,-19.5 239.5,-0.5 188.5,-0.5"/>
<text text-anchor="middle" x="214" y="-7.5" font-family="Helvetica,sans-Serif" font-size="10.00">stddef.h</text>
</a>
</g>
</g>
<!-- Node3&#45;&gt;Node5 -->
<g id="edge4" class="edge"><title>Node3&#45;&gt;Node5</title>
<path fill="none" stroke="midnightblue" d="M108.945,-112.368C128.092,-93.8941 173.279,-50.2926 197.684,-26.7436"/>
<polygon fill="midnightblue" stroke="midnightblue" points="200.33,-29.0538 205.096,-19.5914 195.47,-24.0165 200.33,-29.0538"/>
</g>
<!-- Node6 -->
<g id="node6" class="node"><title>Node6</title>
<g id="a_node6"><a xlink:href="luaconf_8h.html" target="_top" xlink:title=" ">
<polygon fill="white" stroke="black" points="70,-56.5 70,-75.5 126,-75.5 126,-56.5 70,-56.5"/>
<text text-anchor="middle" x="98" y="-63.5" font-family="Helvetica,sans-Serif" font-size="10.00">luaconf.h</text>
</a>
</g>
</g>
<!-- Node3&#45;&gt;Node6 -->
<g id="edge5" class="edge"><title>Node3&#45;&gt;Node6</title>
<path fill="none" stroke="midnightblue" d="M99.6697,-112.083C99.4076,-105.006 99.0319,-94.8611 98.7032,-85.9865"/>
<polygon fill="midnightblue" stroke="midnightblue" points="102.192,-85.6147 98.3241,-75.7511 95.1967,-85.8738 102.192,-85.6147"/>
</g>
<!-- Node6&#45;&gt;Node5 -->
<g id="edge7" class="edge"><title>Node6&#45;&gt;Node5</title>
<path fill="none" stroke="midnightblue" d="M116.381,-56.4435C135.216,-47.6751 164.731,-33.9355 186.379,-23.8579"/>
<polygon fill="midnightblue" stroke="midnightblue" points="188.117,-26.9098 195.705,-19.5164 185.162,-20.5637 188.117,-26.9098"/>
</g>
<!-- Node7 -->
<g id="node7" class="node"><title>Node7</title>
<g id="a_node7"><a xlink:title=" ">
<polygon fill="white" stroke="#bfbfbf" points="90,-0.5 90,-19.5 138,-19.5 138,-0.5 90,-0.5"/>
<text text-anchor="middle" x="114" y="-7.5" font-family="Helvetica,sans-Serif" font-size="10.00">limits.h</text>
</a>
</g>
</g>
<!-- Node6&#45;&gt;Node7 -->
<g id="edge6" class="edge"><title>Node6&#45;&gt;Node7</title>
<path fill="none" stroke="midnightblue" d="M100.642,-56.083C102.786,-48.8486 105.879,-38.4087 108.549,-29.3968"/>
<polygon fill="midnightblue" stroke="midnightblue" points="111.922,-30.3334 111.407,-19.7511 105.21,-28.3447 111.922,-30.3334"/>
</g>
<!-- Node8&#45;&gt;Node3 -->
<g id="edge14" class="edge"><title>Node8&#45;&gt;Node3</title>
<path fill="none" stroke="midnightblue" d="M51.1588,-224.368C59.8279,-206.376 79.9803,-164.55 91.5071,-140.627"/>
<polygon fill="midnightblue" stroke="midnightblue" points="94.6729,-142.119 95.8605,-131.591 88.3667,-139.081 94.6729,-142.119"/>
</g>
<!-- Node8&#45;&gt;Node4 -->
<g id="edge9" class="edge"><title>Node8&#45;&gt;Node4</title>
<path fill="none" stroke="midnightblue" d="M45.8709,-224.075C42.5654,-197.945 32.858,-121.211 28.3501,-85.577"/>
<polygon fill="midnightblue" stroke="midnightblue" points="31.8114,-85.0497 27.0839,-75.5681 24.8667,-85.9283 31.8114,-85.0497"/>
</g>
<!-- Node9 -->
<g id="node9" class="node"><title>Node9</title>
<g id="a_node9"><a xlink:href="llimits_8h.html" target="_top" xlink:title=" ">
<polygon fill="white" stroke="black" points="168,-168.5 168,-187.5 218,-187.5 218,-168.5 168,-168.5"/>
<text text-anchor="middle" x="193" y="-175.5" font-family="Helvetica,sans-Serif" font-size="10.00">llimits.h</text>
</a>
</g>
</g>
<!-- Node8&#45;&gt;Node9 -->
<g id="edge10" class="edge"><title>Node8&#45;&gt;Node9</title>
<path fill="none" stroke="midnightblue" d="M70.1341,-224.444C94.4822,-215.438 133.007,-201.189 160.423,-191.049"/>
<polygon fill="midnightblue" stroke="midnightblue" points="161.809,-194.268 169.974,-187.516 159.381,-187.703 161.809,-194.268"/>
</g>
<!-- Node9&#45;&gt;Node3 -->
<g id="edge13" class="edge"><title>Node9&#45;&gt;Node3</title>
<path fill="none" stroke="midnightblue" d="M178.058,-168.324C163.415,-159.822 140.866,-146.729 123.762,-136.797"/>
<polygon fill="midnightblue" stroke="midnightblue" points="125.31,-133.649 114.905,-131.655 121.795,-139.703 125.31,-133.649"/>
</g>
<!-- Node9&#45;&gt;Node5 -->
<g id="edge12" class="edge"><title>Node9&#45;&gt;Node5</title>
<path fill="none" stroke="midnightblue" d="M196.165,-168.168C199.236,-159.19 203.752,-144.816 206,-132 212.282,-96.1813 213.729,-53.6107 214.005,-29.7073"/>
<polygon fill="midnightblue" stroke="midnightblue" points="217.506,-29.6037 214.063,-19.5839 210.506,-29.5637 217.506,-29.6037"/>
</g>
<!-- Node9&#45;&gt;Node7 -->
<g id="edge11" class="edge"><title>Node9&#45;&gt;Node7</title>
<path fill="none" stroke="midnightblue" d="M188.753,-168.075C176.21,-141.719 139.165,-63.878 122.405,-28.6608"/>
<polygon fill="midnightblue" stroke="midnightblue" points="125.535,-27.0937 118.078,-19.5681 119.215,-30.1018 125.535,-27.0937"/>
</g>
<!-- Node10&#45;&gt;Node8 -->
<g id="edge16" class="edge"><title>Node10&#45;&gt;Node8</title>
<path fill="none" stroke="midnightblue" d="M36.9816,-280.083C38.5717,-272.927 40.8588,-262.635 42.8464,-253.691"/>
<polygon fill="midnightblue" stroke="midnightblue" points="46.3026,-254.272 45.0553,-243.751 39.4693,-252.754 46.3026,-254.272"/>
</g>
<!-- Node11&#45;&gt;Node3 -->
<g id="edge18" class="edge"><title>Node11&#45;&gt;Node3</title>
<path fill="none" stroke="midnightblue" d="M128.387,-280.075C123.665,-253.945 109.797,-177.211 103.357,-141.577"/>
<polygon fill="midnightblue" stroke="midnightblue" points="106.771,-140.786 101.548,-131.568 99.8827,-142.031 106.771,-140.786"/>
</g>
<!-- Node12 -->
<g id="node12" class="node"><title>Node12</title>
<g id="a_node12"><a xlink:href="lmem_8h.html" target="_top" xlink:title=" ">
<polygon fill="white" stroke="black" points="149.5,-224.5 149.5,-243.5 198.5,-243.5 198.5,-224.5 149.5,-224.5"/>
<text text-anchor="middle" x="174" y="-231.5" font-family="Helvetica,sans-Serif" font-size="10.00">lmem.h</text>
</a>
</g>
</g>
<!-- Node11&#45;&gt;Node12 -->
<g id="edge19" class="edge"><title>Node11&#45;&gt;Node12</title>
<path fill="none" stroke="midnightblue" d="M137.266,-280.083C143.545,-272.377 152.788,-261.033 160.431,-251.653"/>
<polygon fill="midnightblue" stroke="midnightblue" points="163.266,-253.714 166.869,-243.751 157.839,-249.293 163.266,-253.714"/>
</g>
<!-- Node12&#45;&gt;Node3 -->
<g id="edge22" class="edge"><title>Node12&#45;&gt;Node3</title>
<path fill="none" stroke="midnightblue" d="M168.193,-224.368C155.981,-206.215 127.448,-163.802 111.43,-139.99"/>
<polygon fill="midnightblue" stroke="midnightblue" points="114.266,-137.935 105.78,-131.591 108.457,-141.842 114.266,-137.935"/>
</g>
<!-- Node12&#45;&gt;Node5 -->
<g id="edge20" class="edge"><title>Node12&#45;&gt;Node5</title>
<path fill="none" stroke="midnightblue" d="M190.334,-224.387C202.955,-216.72 219.497,-204.213 227,-188 251.648,-134.74 232.422,-62.7519 220.965,-29.3868"/>
<polygon fill="midnightblue" stroke="midnightblue" points="224.134,-27.8569 217.451,-19.6352 217.548,-30.2296 224.134,-27.8569"/>
</g>
<!-- Node12&#45;&gt;Node9 -->
<g id="edge21" class="edge"><title>Node12&#45;&gt;Node9</title>
<path fill="none" stroke="midnightblue" d="M177.137,-224.083C179.683,-216.849 183.356,-206.409 186.527,-197.397"/>
<polygon fill="midnightblue" stroke="midnightblue" points="189.903,-198.346 189.921,-187.751 183.3,-196.023 189.903,-198.346"/>
</g>
</g>
</svg>
