<?xml version="1.0" encoding="UTF-8" standalone="no"?>
<!DOCTYPE svg PUBLIC "-//W3C//DTD SVG 1.1//EN"
 "http://www.w3.org/Graphics/SVG/1.1/DTD/svg11.dtd">
<!-- Generated by graphviz version 2.38.0 (20140413.2041)
 -->
<!-- Title: ldo.c Pages: 1 -->
<svg width="1223pt" height="532pt"
 viewBox="0.00 0.00 1223.00 532.00" xmlns="http://www.w3.org/2000/svg" xmlns:xlink="http://www.w3.org/1999/xlink">
<g id="graph0" class="graph" transform="scale(1 1) rotate(0) translate(4 528)">
<title>ldo.c</title>
<polygon fill="white" stroke="none" points="-4,4 -4,-528 1219,-528 1219,4 -4,4"/>
<!-- Node1 -->
<g id="node1" class="node"><title>Node1</title>
<g id="a_node1"><a xlink:title=" ">
<polygon fill="#bfbfbf" stroke="black" points="587,-504.5 587,-523.5 625,-523.5 625,-504.5 587,-504.5"/>
<text text-anchor="middle" x="606" y="-511.5" font-family="Helvetica,sans-Serif" font-size="10.00">ldo.c</text>
</a>
</g>
</g>
<!-- Node2 -->
<g id="node2" class="node"><title>Node2</title>
<g id="a_node2"><a xlink:href="lprefix_8h.html" target="_top" xlink:title=" ">
<polygon fill="white" stroke="black" points="0,-448.5 0,-467.5 50,-467.5 50,-448.5 0,-448.5"/>
<text text-anchor="middle" x="25" y="-455.5" font-family="Helvetica,sans-Serif" font-size="10.00">lprefix.h</text>
</a>
</g>
</g>
<!-- Node1&#45;&gt;Node2 -->
<g id="edge1" class="edge"><title>Node1&#45;&gt;Node2</title>
<path fill="none" stroke="midnightblue" d="M586.953,-512.649C517.538,-511.116 271.567,-503.475 60.1808,-467.9"/>
<polygon fill="midnightblue" stroke="midnightblue" points="60.5885,-464.419 50.1418,-466.185 59.4095,-471.319 60.5885,-464.419"/>
</g>
<!-- Node3 -->
<g id="node3" class="node"><title>Node3</title>
<g id="a_node3"><a xlink:title=" ">
<polygon fill="white" stroke="#bfbfbf" points="68,-448.5 68,-467.5 122,-467.5 122,-448.5 68,-448.5"/>
<text text-anchor="middle" x="95" y="-455.5" font-family="Helvetica,sans-Serif" font-size="10.00">setjmp.h</text>
</a>
</g>
</g>
<!-- Node1&#45;&gt;Node3 -->
<g id="edge2" class="edge"><title>Node1&#45;&gt;Node3</title>
<path fill="none" stroke="midnightblue" d="M586.859,-512.222C523.429,-509.427 314.281,-498.486 132.063,-467.929"/>
<polygon fill="midnightblue" stroke="midnightblue" points="132.48,-464.449 122.034,-466.222 131.305,-471.35 132.48,-464.449"/>
</g>
<!-- Node4 -->
<g id="node4" class="node"><title>Node4</title>
<g id="a_node4"><a xlink:title=" ">
<polygon fill="white" stroke="#bfbfbf" points="140,-448.5 140,-467.5 188,-467.5 188,-448.5 140,-448.5"/>
<text text-anchor="middle" x="164" y="-455.5" font-family="Helvetica,sans-Serif" font-size="10.00">stdlib.h</text>
</a>
</g>
</g>
<!-- Node1&#45;&gt;Node4 -->
<g id="edge3" class="edge"><title>Node1&#45;&gt;Node4</title>
<path fill="none" stroke="midnightblue" d="M586.676,-511.952C529.034,-508.601 353.204,-496.749 198.225,-467.948"/>
<polygon fill="midnightblue" stroke="midnightblue" points="198.525,-464.443 188.049,-466.027 197.226,-471.321 198.525,-464.443"/>
</g>
<!-- Node5 -->
<g id="node5" class="node"><title>Node5</title>
<g id="a_node5"><a xlink:title=" ">
<polygon fill="white" stroke="#bfbfbf" points="206.5,-448.5 206.5,-467.5 255.5,-467.5 255.5,-448.5 206.5,-448.5"/>
<text text-anchor="middle" x="231" y="-455.5" font-family="Helvetica,sans-Serif" font-size="10.00">string.h</text>
</a>
</g>
</g>
<!-- Node1&#45;&gt;Node5 -->
<g id="edge4" class="edge"><title>Node1&#45;&gt;Node5</title>
<path fill="none" stroke="midnightblue" d="M586.957,-511.082C535.569,-505.77 389.861,-489.807 270,-468 268.547,-467.736 267.067,-467.453 265.574,-467.157"/>
<polygon fill="midnightblue" stroke="midnightblue" points="266.193,-463.711 255.685,-465.064 264.743,-470.559 266.193,-463.711"/>
</g>
<!-- Node6 -->
<g id="node6" class="node"><title>Node6</title>
<g id="a_node6"><a xlink:href="lua_8h.html" target="_top" xlink:title=" ">
<polygon fill="white" stroke="black" points="927,-112.5 927,-131.5 965,-131.5 965,-112.5 927,-112.5"/>
<text text-anchor="middle" x="946" y="-119.5" font-family="Helvetica,sans-Serif" font-size="10.00">lua.h</text>
</a>
</g>
</g>
<!-- Node1&#45;&gt;Node6 -->
<g id="edge5" class="edge"><title>Node1&#45;&gt;Node6</title>
<path fill="none" stroke="midnightblue" d="M625.247,-512.409C705.55,-509.771 1013.98,-497.857 1106,-468 1159.65,-450.593 1215,-459.404 1215,-403 1215,-403 1215,-403 1215,-233 1215,-181.649 1044.93,-142.415 975.248,-128.494"/>
<polygon fill="midnightblue" stroke="midnightblue" points="975.833,-125.042 965.346,-126.552 974.485,-131.911 975.833,-125.042"/>
</g>
<!-- Node11 -->
<g id="node11" class="node"><title>Node11</title>
<g id="a_node11"><a xlink:href="lapi_8h.html" target="_top" xlink:title=" ">
<polygon fill="white" stroke="black" points="876,-392.5 876,-411.5 916,-411.5 916,-392.5 876,-392.5"/>
<text text-anchor="middle" x="896" y="-399.5" font-family="Helvetica,sans-Serif" font-size="10.00">lapi.h</text>
</a>
</g>
</g>
<!-- Node1&#45;&gt;Node11 -->
<g id="edge11" class="edge"><title>Node1&#45;&gt;Node11</title>
<path fill="none" stroke="midnightblue" d="M625.248,-511.795C678.095,-508.155 824.027,-495.77 862,-468 877.386,-456.748 886.403,-436.435 891.239,-421.502"/>
<polygon fill="midnightblue" stroke="midnightblue" points="894.633,-422.365 894.053,-411.786 887.909,-420.417 894.633,-422.365"/>
</g>
<!-- Node13 -->
<g id="node13" class="node"><title>Node13</title>
<g id="a_node13"><a xlink:href="lstate_8h.html" target="_top" xlink:title=" ">
<polygon fill="white" stroke="black" points="681.5,-336.5 681.5,-355.5 730.5,-355.5 730.5,-336.5 681.5,-336.5"/>
<text text-anchor="middle" x="706" y="-343.5" font-family="Helvetica,sans-Serif" font-size="10.00">lstate.h</text>
</a>
</g>
</g>
<!-- Node1&#45;&gt;Node13 -->
<g id="edge50" class="edge"><title>Node1&#45;&gt;Node13</title>
<path fill="none" stroke="midnightblue" d="M613.618,-504.229C621.278,-495.297 633.308,-480.959 643,-468 661.015,-443.914 667.066,-438.656 681,-412 688.877,-396.932 695.644,-378.805 700.143,-365.526"/>
<polygon fill="midnightblue" stroke="midnightblue" points="703.58,-366.278 703.364,-355.685 696.927,-364.1 703.58,-366.278"/>
</g>
<!-- Node14 -->
<g id="node14" class="node"><title>Node14</title>
<g id="a_node14"><a xlink:href="lobject_8h.html" target="_top" xlink:title=" ">
<polygon fill="white" stroke="black" points="594.5,-224.5 594.5,-243.5 647.5,-243.5 647.5,-224.5 594.5,-224.5"/>
<text text-anchor="middle" x="621" y="-231.5" font-family="Helvetica,sans-Serif" font-size="10.00">lobject.h</text>
</a>
</g>
</g>
<!-- Node1&#45;&gt;Node14 -->
<g id="edge43" class="edge"><title>Node1&#45;&gt;Node14</title>
<path fill="none" stroke="midnightblue" d="M586.735,-512.661C544.303,-511.242 440.4,-504.042 363,-468 321.782,-448.806 284,-448.468 284,-403 284,-403 284,-403 284,-345 284,-282.385 496.906,-249.813 584.266,-239.084"/>
<polygon fill="midnightblue" stroke="midnightblue" points="584.763,-242.549 594.274,-237.883 583.929,-235.599 584.763,-242.549"/>
</g>
<!-- Node15 -->
<g id="node15" class="node"><title>Node15</title>
<g id="a_node15"><a xlink:href="ltm_8h.html" target="_top" xlink:title=" ">
<polygon fill="white" stroke="black" points="432,-280.5 432,-299.5 470,-299.5 470,-280.5 432,-280.5"/>
<text text-anchor="middle" x="451" y="-287.5" font-family="Helvetica,sans-Serif" font-size="10.00">ltm.h</text>
</a>
</g>
</g>
<!-- Node1&#45;&gt;Node15 -->
<g id="edge57" class="edge"><title>Node1&#45;&gt;Node15</title>
<path fill="none" stroke="midnightblue" d="M586.69,-512.213C536.582,-509.726 404.452,-500.183 378,-468 336.556,-417.576 401.638,-340.371 434.212,-307.134"/>
<polygon fill="midnightblue" stroke="midnightblue" points="437.088,-309.209 441.708,-299.674 432.151,-304.247 437.088,-309.209"/>
</g>
<!-- Node16 -->
<g id="node16" class="node"><title>Node16</title>
<g id="a_node16"><a xlink:href="lzio_8h.html" target="_top" xlink:title=" ">
<polygon fill="white" stroke="black" points="926,-280.5 926,-299.5 966,-299.5 966,-280.5 926,-280.5"/>
<text text-anchor="middle" x="946" y="-287.5" font-family="Helvetica,sans-Serif" font-size="10.00">lzio.h</text>
</a>
</g>
</g>
<!-- Node1&#45;&gt;Node16 -->
<g id="edge66" class="edge"><title>Node1&#45;&gt;Node16</title>
<path fill="none" stroke="midnightblue" d="M625.347,-511.563C680.773,-507.186 839.039,-492.779 884,-468 942.185,-435.933 959.476,-418.133 983,-356 989.701,-338.301 976.779,-319.686 964.405,-306.935"/>
<polygon fill="midnightblue" stroke="midnightblue" points="966.6,-304.192 956.952,-299.814 961.765,-309.253 966.6,-304.192"/>
</g>
<!-- Node17 -->
<g id="node17" class="node"><title>Node17</title>
<g id="a_node17"><a xlink:href="lmem_8h.html" target="_top" xlink:title=" ">
<polygon fill="white" stroke="black" points="1137.5,-224.5 1137.5,-243.5 1186.5,-243.5 1186.5,-224.5 1137.5,-224.5"/>
<text text-anchor="middle" x="1162" y="-231.5" font-family="Helvetica,sans-Serif" font-size="10.00">lmem.h</text>
</a>
</g>
</g>
<!-- Node1&#45;&gt;Node17 -->
<g id="edge42" class="edge"><title>Node1&#45;&gt;Node17</title>
<path fill="none" stroke="midnightblue" d="M625.148,-513.251C720.987,-514.005 1144,-511.205 1144,-403 1144,-403 1144,-403 1144,-345 1144,-312.537 1151.73,-275.384 1157.06,-253.628"/>
<polygon fill="midnightblue" stroke="midnightblue" points="1160.49,-254.315 1159.57,-243.76 1153.71,-252.587 1160.49,-254.315"/>
</g>
<!-- Node19 -->
<g id="node19" class="node"><title>Node19</title>
<g id="a_node19"><a xlink:href="ldebug_8h.html" target="_top" xlink:title=" ">
<polygon fill="white" stroke="black" points="728.5,-392.5 728.5,-411.5 781.5,-411.5 781.5,-392.5 728.5,-392.5"/>
<text text-anchor="middle" x="755" y="-399.5" font-family="Helvetica,sans-Serif" font-size="10.00">ldebug.h</text>
</a>
</g>
</g>
<!-- Node1&#45;&gt;Node19 -->
<g id="edge31" class="edge"><title>Node1&#45;&gt;Node19</title>
<path fill="none" stroke="midnightblue" d="M625.037,-508.825C648.192,-502.963 687.466,-490.414 714,-468 729.091,-455.252 740.441,-435.507 747.329,-421.123"/>
<polygon fill="midnightblue" stroke="midnightblue" points="750.624,-422.328 751.545,-411.773 744.243,-419.45 750.624,-422.328"/>
</g>
<!-- Node20 -->
<g id="node20" class="node"><title>Node20</title>
<g id="a_node20"><a xlink:href="ldo_8h.html" target="_top" xlink:title=" ">
<polygon fill="white" stroke="black" points="634,-392.5 634,-411.5 672,-411.5 672,-392.5 634,-392.5"/>
<text text-anchor="middle" x="653" y="-399.5" font-family="Helvetica,sans-Serif" font-size="10.00">ldo.h</text>
</a>
</g>
</g>
<!-- Node1&#45;&gt;Node20 -->
<g id="edge33" class="edge"><title>Node1&#45;&gt;Node20</title>
<path fill="none" stroke="midnightblue" d="M609.688,-504.368C617.341,-486.456 635.087,-444.923 645.331,-420.948"/>
<polygon fill="midnightblue" stroke="midnightblue" points="648.618,-422.162 649.329,-411.591 642.181,-419.412 648.618,-422.162"/>
</g>
<!-- Node21 -->
<g id="node21" class="node"><title>Node21</title>
<g id="a_node21"><a xlink:href="lfunc_8h.html" target="_top" xlink:title=" ">
<polygon fill="white" stroke="black" points="579.5,-336.5 579.5,-355.5 624.5,-355.5 624.5,-336.5 579.5,-336.5"/>
<text text-anchor="middle" x="602" y="-343.5" font-family="Helvetica,sans-Serif" font-size="10.00">lfunc.h</text>
</a>
</g>
</g>
<!-- Node1&#45;&gt;Node21 -->
<g id="edge37" class="edge"><title>Node1&#45;&gt;Node21</title>
<path fill="none" stroke="midnightblue" d="M605.785,-504.075C605.155,-477.945 603.306,-401.211 602.448,-365.577"/>
<polygon fill="midnightblue" stroke="midnightblue" points="605.946,-365.481 602.206,-355.568 598.948,-365.65 605.946,-365.481"/>
</g>
<!-- Node22 -->
<g id="node22" class="node"><title>Node22</title>
<g id="a_node22"><a xlink:href="lgc_8h.html" target="_top" xlink:title=" ">
<polygon fill="white" stroke="black" points="388,-392.5 388,-411.5 426,-411.5 426,-392.5 388,-392.5"/>
<text text-anchor="middle" x="407" y="-399.5" font-family="Helvetica,sans-Serif" font-size="10.00">lgc.h</text>
</a>
</g>
</g>
<!-- Node1&#45;&gt;Node22 -->
<g id="edge39" class="edge"><title>Node1&#45;&gt;Node22</title>
<path fill="none" stroke="midnightblue" d="M586.71,-507.202C563.43,-499.802 523.491,-485.797 492,-468 466.659,-453.678 440.496,-432.538 424.01,-418.291"/>
<polygon fill="midnightblue" stroke="midnightblue" points="426.15,-415.512 416.327,-411.542 421.53,-420.771 426.15,-415.512"/>
</g>
<!-- Node23 -->
<g id="node23" class="node"><title>Node23</title>
<g id="a_node23"><a xlink:href="lopcodes_8h.html" target="_top" xlink:title=" ">
<polygon fill="white" stroke="black" points="1055,-224.5 1055,-243.5 1119,-243.5 1119,-224.5 1055,-224.5"/>
<text text-anchor="middle" x="1087" y="-231.5" font-family="Helvetica,sans-Serif" font-size="10.00">lopcodes.h</text>
</a>
</g>
</g>
<!-- Node1&#45;&gt;Node23 -->
<g id="edge44" class="edge"><title>Node1&#45;&gt;Node23</title>
<path fill="none" stroke="midnightblue" d="M625.153,-512.796C714.613,-511.339 1087,-499.478 1087,-403 1087,-403 1087,-403 1087,-345 1087,-312.948 1087,-275.643 1087,-253.749"/>
<polygon fill="midnightblue" stroke="midnightblue" points="1090.5,-253.558 1087,-243.558 1083.5,-253.558 1090.5,-253.558"/>
</g>
<!-- Node24 -->
<g id="node24" class="node"><title>Node24</title>
<g id="a_node24"><a xlink:href="lparser_8h.html" target="_top" xlink:title=" ">
<polygon fill="white" stroke="black" points="788,-336.5 788,-355.5 842,-355.5 842,-336.5 788,-336.5"/>
<text text-anchor="middle" x="815" y="-343.5" font-family="Helvetica,sans-Serif" font-size="10.00">lparser.h</text>
</a>
</g>
</g>
<!-- Node1&#45;&gt;Node24 -->
<g id="edge46" class="edge"><title>Node1&#45;&gt;Node24</title>
<path fill="none" stroke="midnightblue" d="M625.291,-509.243C651.802,-503.455 700.27,-490.592 736,-468 765.486,-449.356 772.32,-441.463 791,-412 800.159,-397.554 806.547,-379.104 810.418,-365.553"/>
<polygon fill="midnightblue" stroke="midnightblue" points="813.898,-366.082 813.082,-355.519 807.133,-364.286 813.898,-366.082"/>
</g>
<!-- Node25 -->
<g id="node25" class="node"><title>Node25</title>
<g id="a_node25"><a xlink:href="lstring_8h.html" target="_top" xlink:title=" ">
<polygon fill="white" stroke="black" points="386.5,-448.5 386.5,-467.5 437.5,-467.5 437.5,-448.5 386.5,-448.5"/>
<text text-anchor="middle" x="412" y="-455.5" font-family="Helvetica,sans-Serif" font-size="10.00">lstring.h</text>
</a>
</g>
</g>
<!-- Node1&#45;&gt;Node25 -->
<g id="edge51" class="edge"><title>Node1&#45;&gt;Node25</title>
<path fill="none" stroke="midnightblue" d="M586.689,-507.625C554.264,-498.599 488.413,-480.27 447.47,-468.873"/>
<polygon fill="midnightblue" stroke="midnightblue" points="448.206,-465.445 437.633,-466.135 446.329,-472.189 448.206,-465.445"/>
</g>
<!-- Node26 -->
<g id="node26" class="node"><title>Node26</title>
<g id="a_node26"><a xlink:href="ltable_8h.html" target="_top" xlink:title=" ">
<polygon fill="white" stroke="black" points="526,-280.5 526,-299.5 574,-299.5 574,-280.5 526,-280.5"/>
<text text-anchor="middle" x="550" y="-287.5" font-family="Helvetica,sans-Serif" font-size="10.00">ltable.h</text>
</a>
</g>
</g>
<!-- Node1&#45;&gt;Node26 -->
<g id="edge55" class="edge"><title>Node1&#45;&gt;Node26</title>
<path fill="none" stroke="midnightblue" d="M603.805,-504.297C595.548,-471.563 566.239,-355.375 554.709,-309.666"/>
<polygon fill="midnightblue" stroke="midnightblue" points="558.081,-308.724 552.241,-299.884 551.293,-310.436 558.081,-308.724"/>
</g>
<!-- Node27 -->
<g id="node27" class="node"><title>Node27</title>
<g id="a_node27"><a xlink:href="lundump_8h.html" target="_top" xlink:title=" ">
<polygon fill="white" stroke="black" points="912,-336.5 912,-355.5 974,-355.5 974,-336.5 912,-336.5"/>
<text text-anchor="middle" x="943" y="-343.5" font-family="Helvetica,sans-Serif" font-size="10.00">lundump.h</text>
</a>
</g>
</g>
<!-- Node1&#45;&gt;Node27 -->
<g id="edge58" class="edge"><title>Node1&#45;&gt;Node27</title>
<path fill="none" stroke="midnightblue" d="M625.151,-509.766C655.534,-504.147 716.138,-490.933 763,-468 814.422,-442.836 819.203,-423.509 867,-392 883.963,-380.817 903.726,-369.156 918.847,-360.506"/>
<polygon fill="midnightblue" stroke="midnightblue" points="920.625,-363.521 927.595,-355.541 917.17,-357.433 920.625,-363.521"/>
</g>
<!-- Node28 -->
<g id="node28" class="node"><title>Node28</title>
<g id="a_node28"><a xlink:href="lvm_8h.html" target="_top" xlink:title=" ">
<polygon fill="white" stroke="black" points="500.5,-448.5 500.5,-467.5 539.5,-467.5 539.5,-448.5 500.5,-448.5"/>
<text text-anchor="middle" x="520" y="-455.5" font-family="Helvetica,sans-Serif" font-size="10.00">lvm.h</text>
</a>
</g>
</g>
<!-- Node1&#45;&gt;Node28 -->
<g id="edge62" class="edge"><title>Node1&#45;&gt;Node28</title>
<path fill="none" stroke="midnightblue" d="M592.183,-504.324C578.767,-495.9 558.176,-482.971 542.414,-473.074"/>
<polygon fill="midnightblue" stroke="midnightblue" points="544.113,-470.008 533.783,-467.655 540.391,-475.936 544.113,-470.008"/>
</g>
<!-- Node7 -->
<g id="node7" class="node"><title>Node7</title>
<g id="a_node7"><a xlink:title=" ">
<polygon fill="white" stroke="#bfbfbf" points="742,-56.5 742,-75.5 794,-75.5 794,-56.5 742,-56.5"/>
<text text-anchor="middle" x="768" y="-63.5" font-family="Helvetica,sans-Serif" font-size="10.00">stdarg.h</text>
</a>
</g>
</g>
<!-- Node6&#45;&gt;Node7 -->
<g id="edge6" class="edge"><title>Node6&#45;&gt;Node7</title>
<path fill="none" stroke="midnightblue" d="M926.951,-115.221C897.685,-106.343 841.157,-89.1936 804.005,-77.923"/>
<polygon fill="midnightblue" stroke="midnightblue" points="804.665,-74.4656 794.079,-74.9117 802.633,-81.1641 804.665,-74.4656"/>
</g>
<!-- Node8 -->
<g id="node8" class="node"><title>Node8</title>
<g id="a_node8"><a xlink:title=" ">
<polygon fill="white" stroke="#bfbfbf" points="1032.5,-0.5 1032.5,-19.5 1083.5,-19.5 1083.5,-0.5 1032.5,-0.5"/>
<text text-anchor="middle" x="1058" y="-7.5" font-family="Helvetica,sans-Serif" font-size="10.00">stddef.h</text>
</a>
</g>
</g>
<!-- Node6&#45;&gt;Node8 -->
<g id="edge7" class="edge"><title>Node6&#45;&gt;Node8</title>
<path fill="none" stroke="midnightblue" d="M954.788,-112.368C973.599,-93.8941 1017.99,-50.2926 1041.97,-26.7436"/>
<polygon fill="midnightblue" stroke="midnightblue" points="1044.57,-29.0956 1049.25,-19.5914 1039.67,-24.1015 1044.57,-29.0956"/>
</g>
<!-- Node9 -->
<g id="node9" class="node"><title>Node9</title>
<g id="a_node9"><a xlink:href="luaconf_8h.html" target="_top" xlink:title=" ">
<polygon fill="white" stroke="black" points="917,-56.5 917,-75.5 973,-75.5 973,-56.5 917,-56.5"/>
<text text-anchor="middle" x="945" y="-63.5" font-family="Helvetica,sans-Serif" font-size="10.00">luaconf.h</text>
</a>
</g>
</g>
<!-- Node6&#45;&gt;Node9 -->
<g id="edge8" class="edge"><title>Node6&#45;&gt;Node9</title>
<path fill="none" stroke="midnightblue" d="M945.835,-112.083C945.704,-105.006 945.516,-94.8611 945.352,-85.9865"/>
<polygon fill="midnightblue" stroke="midnightblue" points="948.847,-85.6845 945.162,-75.7511 941.848,-85.8142 948.847,-85.6845"/>
</g>
<!-- Node9&#45;&gt;Node8 -->
<g id="edge10" class="edge"><title>Node9&#45;&gt;Node8</title>
<path fill="none" stroke="midnightblue" d="M962.905,-56.4435C981.254,-47.6751 1010.01,-33.9355 1031.09,-23.8579"/>
<polygon fill="midnightblue" stroke="midnightblue" points="1032.67,-26.9862 1040.18,-19.5164 1029.65,-20.6703 1032.67,-26.9862"/>
</g>
<!-- Node10 -->
<g id="node10" class="node"><title>Node10</title>
<g id="a_node10"><a xlink:title=" ">
<polygon fill="white" stroke="#bfbfbf" points="953,-0.5 953,-19.5 1001,-19.5 1001,-0.5 953,-0.5"/>
<text text-anchor="middle" x="977" y="-7.5" font-family="Helvetica,sans-Serif" font-size="10.00">limits.h</text>
</a>
</g>
</g>
<!-- Node9&#45;&gt;Node10 -->
<g id="edge9" class="edge"><title>Node9&#45;&gt;Node10</title>
<path fill="none" stroke="midnightblue" d="M950.284,-56.083C954.711,-48.6127 961.163,-37.7244 966.618,-28.5199"/>
<polygon fill="midnightblue" stroke="midnightblue" points="969.727,-30.1383 971.814,-19.7511 963.705,-26.5697 969.727,-30.1383"/>
</g>
<!-- Node12 -->
<g id="node12" class="node"><title>Node12</title>
<g id="a_node12"><a xlink:href="llimits_8h.html" target="_top" xlink:title=" ">
<polygon fill="white" stroke="black" points="976,-168.5 976,-187.5 1026,-187.5 1026,-168.5 976,-168.5"/>
<text text-anchor="middle" x="1001" y="-175.5" font-family="Helvetica,sans-Serif" font-size="10.00">llimits.h</text>
</a>
</g>
</g>
<!-- Node11&#45;&gt;Node12 -->
<g id="edge12" class="edge"><title>Node11&#45;&gt;Node12</title>
<path fill="none" stroke="midnightblue" d="M916.147,-395.968C936.187,-389.894 966.289,-377.687 983,-356 1019.25,-308.959 1011.2,-232.739 1004.95,-197.703"/>
<polygon fill="midnightblue" stroke="midnightblue" points="1008.31,-196.649 1002.96,-187.501 1001.44,-197.986 1008.31,-196.649"/>
</g>
<!-- Node11&#45;&gt;Node13 -->
<g id="edge16" class="edge"><title>Node11&#45;&gt;Node13</title>
<path fill="none" stroke="midnightblue" d="M875.667,-395.221C843.346,-386.035 779.878,-367.997 740.393,-356.775"/>
<polygon fill="midnightblue" stroke="midnightblue" points="741.239,-353.377 730.663,-354.009 739.325,-360.11 741.239,-353.377"/>
</g>
<!-- Node12&#45;&gt;Node6 -->
<g id="edge15" class="edge"><title>Node12&#45;&gt;Node6</title>
<path fill="none" stroke="midnightblue" d="M991.918,-168.083C983.829,-160.141 971.805,-148.335 962.09,-138.797"/>
<polygon fill="midnightblue" stroke="midnightblue" points="964.501,-136.26 954.913,-131.751 959.597,-141.254 964.501,-136.26"/>
</g>
<!-- Node12&#45;&gt;Node8 -->
<g id="edge14" class="edge"><title>Node12&#45;&gt;Node8</title>
<path fill="none" stroke="midnightblue" d="M1004.06,-168.075C1013.08,-141.832 1039.61,-64.5453 1051.78,-29.1165"/>
<polygon fill="midnightblue" stroke="midnightblue" points="1055.12,-30.1628 1055.06,-19.5681 1048.5,-27.8894 1055.12,-30.1628"/>
</g>
<!-- Node12&#45;&gt;Node10 -->
<g id="edge13" class="edge"><title>Node12&#45;&gt;Node10</title>
<path fill="none" stroke="midnightblue" d="M999.71,-168.075C995.932,-141.945 984.838,-65.2106 979.686,-29.577"/>
<polygon fill="midnightblue" stroke="midnightblue" points="983.134,-28.9644 978.239,-19.5681 976.206,-29.9661 983.134,-28.9644"/>
</g>
<!-- Node13&#45;&gt;Node6 -->
<g id="edge17" class="edge"><title>Node13&#45;&gt;Node6</title>
<path fill="none" stroke="midnightblue" d="M718.09,-336.449C730.259,-327.689 749.408,-313.481 765,-300 829.398,-244.322 899.962,-171.572 930.497,-139.457"/>
<polygon fill="midnightblue" stroke="midnightblue" points="933.355,-141.529 937.691,-131.862 928.273,-136.715 933.355,-141.529"/>
</g>
<!-- Node13&#45;&gt;Node14 -->
<g id="edge18" class="edge"><title>Node13&#45;&gt;Node14</title>
<path fill="none" stroke="midnightblue" d="M699.33,-336.368C685.241,-318.135 652.238,-275.426 633.885,-251.675"/>
<polygon fill="midnightblue" stroke="midnightblue" points="636.523,-249.364 627.639,-243.591 630.984,-253.644 636.523,-249.364"/>
</g>
<!-- Node13&#45;&gt;Node15 -->
<g id="edge22" class="edge"><title>Node13&#45;&gt;Node15</title>
<path fill="none" stroke="midnightblue" d="M681.085,-339.724C633.7,-329.69 530.822,-307.903 480.254,-297.195"/>
<polygon fill="midnightblue" stroke="midnightblue" points="480.804,-293.734 470.296,-295.086 479.354,-300.582 480.804,-293.734"/>
</g>
<!-- Node13&#45;&gt;Node16 -->
<g id="edge24" class="edge"><title>Node13&#45;&gt;Node16</title>
<path fill="none" stroke="midnightblue" d="M730.78,-339.424C775.188,-329.433 868.152,-308.516 916.052,-297.738"/>
<polygon fill="midnightblue" stroke="midnightblue" points="916.844,-301.148 925.832,-295.538 915.307,-294.318 916.844,-301.148"/>
</g>
<!-- Node18 -->
<g id="node18" class="node"><title>Node18</title>
<g id="a_node18"><a xlink:title=" ">
<polygon fill="white" stroke="#bfbfbf" points="706,-280.5 706,-299.5 756,-299.5 756,-280.5 706,-280.5"/>
<text text-anchor="middle" x="731" y="-287.5" font-family="Helvetica,sans-Serif" font-size="10.00">signal.h</text>
</a>
</g>
</g>
<!-- Node13&#45;&gt;Node18 -->
<g id="edge30" class="edge"><title>Node13&#45;&gt;Node18</title>
<path fill="none" stroke="midnightblue" d="M710.128,-336.083C713.514,-328.77 718.416,-318.181 722.619,-309.103"/>
<polygon fill="midnightblue" stroke="midnightblue" points="725.923,-310.296 726.949,-299.751 719.571,-307.355 725.923,-310.296"/>
</g>
<!-- Node14&#45;&gt;Node6 -->
<g id="edge21" class="edge"><title>Node14&#45;&gt;Node6</title>
<path fill="none" stroke="midnightblue" d="M646.232,-224.46C705.709,-204.329 854.399,-154.003 917.241,-132.734"/>
<polygon fill="midnightblue" stroke="midnightblue" points="918.558,-135.983 926.908,-129.462 916.314,-129.353 918.558,-135.983"/>
</g>
<!-- Node14&#45;&gt;Node7 -->
<g id="edge19" class="edge"><title>Node14&#45;&gt;Node7</title>
<path fill="none" stroke="midnightblue" d="M628.903,-224.075C652.543,-197.38 722.957,-117.865 753.546,-83.3218"/>
<polygon fill="midnightblue" stroke="midnightblue" points="756.403,-85.375 760.413,-75.5681 751.163,-80.7343 756.403,-85.375"/>
</g>
<!-- Node14&#45;&gt;Node12 -->
<g id="edge20" class="edge"><title>Node14&#45;&gt;Node12</title>
<path fill="none" stroke="midnightblue" d="M647.721,-229.203C714.842,-219.665 890.528,-194.699 965.867,-183.993"/>
<polygon fill="midnightblue" stroke="midnightblue" points="966.402,-187.452 975.81,-182.58 965.417,-180.521 966.402,-187.452"/>
</g>
<!-- Node15&#45;&gt;Node14 -->
<g id="edge23" class="edge"><title>Node15&#45;&gt;Node14</title>
<path fill="none" stroke="midnightblue" d="M470.171,-282.91C497.832,-274.124 549.46,-257.725 584.523,-246.587"/>
<polygon fill="midnightblue" stroke="midnightblue" points="585.912,-249.818 594.383,-243.455 583.793,-243.146 585.912,-249.818"/>
</g>
<!-- Node16&#45;&gt;Node6 -->
<g id="edge25" class="edge"><title>Node16&#45;&gt;Node6</title>
<path fill="none" stroke="midnightblue" d="M946,-280.075C946,-253.945 946,-177.211 946,-141.577"/>
<polygon fill="midnightblue" stroke="midnightblue" points="949.5,-141.568 946,-131.568 942.5,-141.568 949.5,-141.568"/>
</g>
<!-- Node16&#45;&gt;Node17 -->
<g id="edge26" class="edge"><title>Node16&#45;&gt;Node17</title>
<path fill="none" stroke="midnightblue" d="M966.226,-284.114C998.208,-276.363 1062.65,-260.647 1127.51,-244.092"/>
<polygon fill="midnightblue" stroke="midnightblue" points="1128.68,-247.406 1137.5,-241.537 1126.94,-240.625 1128.68,-247.406"/>
</g>
<!-- Node17&#45;&gt;Node6 -->
<g id="edge29" class="edge"><title>Node17&#45;&gt;Node6</title>
<path fill="none" stroke="midnightblue" d="M1145.17,-224.352C1120.86,-211.872 1074.52,-188.103 1035,-168 1013.91,-157.269 989.965,-145.169 972.231,-136.22"/>
<polygon fill="midnightblue" stroke="midnightblue" points="973.579,-132.98 963.075,-131.602 970.427,-139.23 973.579,-132.98"/>
</g>
<!-- Node17&#45;&gt;Node8 -->
<g id="edge27" class="edge"><title>Node17&#45;&gt;Node8</title>
<path fill="none" stroke="midnightblue" d="M1157.92,-224.297C1142.52,-191.425 1087.7,-74.3911 1066.47,-29.0904"/>
<polygon fill="midnightblue" stroke="midnightblue" points="1069.57,-27.4545 1062.16,-19.8837 1063.23,-30.4241 1069.57,-27.4545"/>
</g>
<!-- Node17&#45;&gt;Node12 -->
<g id="edge28" class="edge"><title>Node17&#45;&gt;Node12</title>
<path fill="none" stroke="midnightblue" d="M1137.2,-224.681C1110.09,-215.59 1066.47,-200.959 1035.92,-190.711"/>
<polygon fill="midnightblue" stroke="midnightblue" points="1036.69,-187.279 1026.1,-187.418 1034.46,-193.916 1036.69,-187.279"/>
</g>
<!-- Node19&#45;&gt;Node13 -->
<g id="edge32" class="edge"><title>Node19&#45;&gt;Node13</title>
<path fill="none" stroke="midnightblue" d="M746.909,-392.083C739.845,-384.298 729.412,-372.801 720.851,-363.367"/>
<polygon fill="midnightblue" stroke="midnightblue" points="723.253,-360.805 713.941,-355.751 718.069,-365.509 723.253,-360.805"/>
</g>
<!-- Node20&#45;&gt;Node13 -->
<g id="edge35" class="edge"><title>Node20&#45;&gt;Node13</title>
<path fill="none" stroke="midnightblue" d="M661.752,-392.083C669.47,-384.22 680.905,-372.569 690.217,-363.081"/>
<polygon fill="midnightblue" stroke="midnightblue" points="692.904,-365.34 697.411,-355.751 687.908,-360.436 692.904,-365.34"/>
</g>
<!-- Node20&#45;&gt;Node14 -->
<g id="edge34" class="edge"><title>Node20&#45;&gt;Node14</title>
<path fill="none" stroke="midnightblue" d="M651.28,-392.075C646.242,-365.945 631.45,-289.211 624.581,-253.577"/>
<polygon fill="midnightblue" stroke="midnightblue" points="627.981,-252.725 622.652,-243.568 621.108,-254.05 627.981,-252.725"/>
</g>
<!-- Node20&#45;&gt;Node16 -->
<g id="edge36" class="edge"><title>Node20&#45;&gt;Node16</title>
<path fill="none" stroke="midnightblue" d="M672.317,-397.566C715.503,-389.736 818.614,-370.144 851,-356 880.273,-343.215 910.028,-321.055 928.25,-306.211"/>
<polygon fill="midnightblue" stroke="midnightblue" points="930.766,-308.671 936.216,-299.585 926.29,-303.289 930.766,-308.671"/>
</g>
<!-- Node21&#45;&gt;Node14 -->
<g id="edge38" class="edge"><title>Node21&#45;&gt;Node14</title>
<path fill="none" stroke="midnightblue" d="M603.491,-336.368C606.557,-318.617 613.63,-277.666 617.788,-253.597"/>
<polygon fill="midnightblue" stroke="midnightblue" points="621.263,-254.041 619.516,-243.591 614.365,-252.85 621.263,-254.041"/>
</g>
<!-- Node22&#45;&gt;Node13 -->
<g id="edge41" class="edge"><title>Node22&#45;&gt;Node13</title>
<path fill="none" stroke="midnightblue" d="M426.159,-397.54C475.607,-388.609 608.07,-364.686 671.378,-353.253"/>
<polygon fill="midnightblue" stroke="midnightblue" points="672.063,-356.686 681.282,-351.464 670.819,-349.797 672.063,-356.686"/>
</g>
<!-- Node22&#45;&gt;Node14 -->
<g id="edge40" class="edge"><title>Node22&#45;&gt;Node14</title>
<path fill="none" stroke="midnightblue" d="M405.167,-392.328C401.077,-370.38 393.729,-312.096 423,-280 444.334,-256.607 533.21,-243.887 584.342,-238.38"/>
<polygon fill="midnightblue" stroke="midnightblue" points="584.753,-241.856 594.338,-237.343 584.03,-234.893 584.753,-241.856"/>
</g>
<!-- Node23&#45;&gt;Node12 -->
<g id="edge45" class="edge"><title>Node23&#45;&gt;Node12</title>
<path fill="none" stroke="midnightblue" d="M1073.18,-224.324C1059.77,-215.9 1039.18,-202.971 1023.41,-193.074"/>
<polygon fill="midnightblue" stroke="midnightblue" points="1025.11,-190.008 1014.78,-187.655 1021.39,-195.936 1025.11,-190.008"/>
</g>
<!-- Node24&#45;&gt;Node12 -->
<g id="edge47" class="edge"><title>Node24&#45;&gt;Node12</title>
<path fill="none" stroke="midnightblue" d="M827.053,-336.406C839.194,-327.612 858.321,-313.379 874,-300 915.86,-264.281 961.9,-218.702 985.364,-194.978"/>
<polygon fill="midnightblue" stroke="midnightblue" points="988.156,-197.131 992.678,-187.55 983.168,-192.22 988.156,-197.131"/>
</g>
<!-- Node24&#45;&gt;Node14 -->
<g id="edge48" class="edge"><title>Node24&#45;&gt;Node14</title>
<path fill="none" stroke="midnightblue" d="M810.701,-336.476C803.273,-322.597 786.72,-295.148 765,-280 732.573,-257.385 688.326,-245.794 657.469,-240.09"/>
<polygon fill="midnightblue" stroke="midnightblue" points="658.005,-236.63 647.554,-238.373 656.811,-243.528 658.005,-236.63"/>
</g>
<!-- Node24&#45;&gt;Node16 -->
<g id="edge49" class="edge"><title>Node24&#45;&gt;Node16</title>
<path fill="none" stroke="midnightblue" d="M835.757,-336.444C857.443,-327.504 891.663,-313.398 916.226,-303.273"/>
<polygon fill="midnightblue" stroke="midnightblue" points="917.859,-306.386 925.77,-299.339 915.191,-299.914 917.859,-306.386"/>
</g>
<!-- Node25&#45;&gt;Node13 -->
<g id="edge54" class="edge"><title>Node25&#45;&gt;Node13</title>
<path fill="none" stroke="midnightblue" d="M435.07,-448.368C487.023,-428.93 613.325,-381.674 673.318,-359.228"/>
<polygon fill="midnightblue" stroke="midnightblue" points="674.898,-362.374 683.037,-355.591 672.445,-355.818 674.898,-362.374"/>
</g>
<!-- Node25&#45;&gt;Node14 -->
<g id="edge53" class="edge"><title>Node25&#45;&gt;Node14</title>
<path fill="none" stroke="midnightblue" d="M402.98,-448.34C394.928,-439.932 383.702,-426.363 379,-412 364.873,-368.846 362.704,-322.007 406,-280 431.006,-255.739 529.849,-243.186 584.385,-237.987"/>
<polygon fill="midnightblue" stroke="midnightblue" points="584.708,-241.472 594.346,-237.072 584.067,-234.501 584.708,-241.472"/>
</g>
<!-- Node25&#45;&gt;Node22 -->
<g id="edge52" class="edge"><title>Node25&#45;&gt;Node22</title>
<path fill="none" stroke="midnightblue" d="M411.174,-448.083C410.519,-441.006 409.58,-430.861 408.758,-421.986"/>
<polygon fill="midnightblue" stroke="midnightblue" points="412.217,-421.386 407.81,-411.751 405.247,-422.031 412.217,-421.386"/>
</g>
<!-- Node26&#45;&gt;Node14 -->
<g id="edge56" class="edge"><title>Node26&#45;&gt;Node14</title>
<path fill="none" stroke="midnightblue" d="M561.407,-280.324C572.109,-272.185 588.341,-259.839 601.163,-250.087"/>
<polygon fill="midnightblue" stroke="midnightblue" points="603.544,-252.673 609.385,-243.834 599.307,-247.102 603.544,-252.673"/>
</g>
<!-- Node27&#45;&gt;Node12 -->
<g id="edge59" class="edge"><title>Node27&#45;&gt;Node12</title>
<path fill="none" stroke="midnightblue" d="M950.794,-336.359C958.136,-327.754 968.894,-313.861 975,-300 990.104,-265.71 996.695,-221.991 999.362,-197.599"/>
<polygon fill="midnightblue" stroke="midnightblue" points="1002.85,-197.874 1000.35,-187.578 995.886,-197.185 1002.85,-197.874"/>
</g>
<!-- Node27&#45;&gt;Node14 -->
<g id="edge60" class="edge"><title>Node27&#45;&gt;Node14</title>
<path fill="none" stroke="midnightblue" d="M924.828,-336.363C896.342,-323.045 839.232,-297.237 789,-280 744.482,-264.724 691.892,-251.367 657.565,-243.256"/>
<polygon fill="midnightblue" stroke="midnightblue" points="658.061,-239.778 647.527,-240.911 656.468,-246.594 658.061,-239.778"/>
</g>
<!-- Node27&#45;&gt;Node16 -->
<g id="edge61" class="edge"><title>Node27&#45;&gt;Node16</title>
<path fill="none" stroke="midnightblue" d="M943.495,-336.083C943.889,-329.006 944.452,-318.861 944.945,-309.986"/>
<polygon fill="midnightblue" stroke="midnightblue" points="948.454,-309.93 945.514,-299.751 941.464,-309.542 948.454,-309.93"/>
</g>
<!-- Node28&#45;&gt;Node14 -->
<g id="edge64" class="edge"><title>Node28&#45;&gt;Node14</title>
<path fill="none" stroke="midnightblue" d="M518.606,-448.309C513.715,-416.665 498.607,-307.999 517,-280 531.866,-257.369 560.808,-246.065 584.394,-240.45"/>
<polygon fill="midnightblue" stroke="midnightblue" points="585.396,-243.816 594.449,-238.313 583.94,-236.969 585.396,-243.816"/>
</g>
<!-- Node28&#45;&gt;Node15 -->
<g id="edge65" class="edge"><title>Node28&#45;&gt;Node15</title>
<path fill="none" stroke="midnightblue" d="M516.29,-448.075C505.382,-421.832 473.257,-344.545 458.53,-309.117"/>
<polygon fill="midnightblue" stroke="midnightblue" points="461.632,-307.459 454.561,-299.568 455.168,-310.146 461.632,-307.459"/>
</g>
<!-- Node28&#45;&gt;Node20 -->
<g id="edge63" class="edge"><title>Node28&#45;&gt;Node20</title>
<path fill="none" stroke="midnightblue" d="M539.625,-449.032C561.951,-439.967 598.621,-425.079 624.191,-414.697"/>
<polygon fill="midnightblue" stroke="midnightblue" points="625.779,-417.83 633.727,-410.825 623.145,-411.344 625.779,-417.83"/>
</g>
</g>
</svg>
