<?xml version="1.0" encoding="UTF-8" standalone="no"?>
<!DOCTYPE svg PUBLIC "-//W3C//DTD SVG 1.1//EN"
 "http://www.w3.org/Graphics/SVG/1.1/DTD/svg11.dtd">
<!-- Generated by graphviz version 2.38.0 (20140413.2041)
 -->
<!-- Title: luaD_pcall Pages: 1 -->
<svg width="1039pt" height="1092pt"
 viewBox="0.00 0.00 1039.00 1092.00" xmlns="http://www.w3.org/2000/svg" xmlns:xlink="http://www.w3.org/1999/xlink">
<g id="graph0" class="graph" transform="scale(1 1) rotate(0) translate(4 1088)">
<title>luaD_pcall</title>
<polygon fill="white" stroke="none" points="-4,4 -4,-1088 1035,-1088 1035,4 -4,4"/>
<!-- Node1 -->
<g id="node1" class="node"><title>Node1</title>
<g id="a_node1"><a xlink:title=" ">
<polygon fill="#bfbfbf" stroke="black" points="969,-969.5 969,-988.5 1031,-988.5 1031,-969.5 969,-969.5"/>
<text text-anchor="middle" x="1000" y="-976.5" font-family="Helvetica,sans-Serif" font-size="10.00">luaD_pcall</text>
</a>
</g>
</g>
<!-- Node2 -->
<g id="node2" class="node"><title>Node2</title>
<g id="a_node2"><a xlink:href="lfunc_8c.html#a4105c820bb9b1b4b4b3bd6613b0ccb05" target="_top" xlink:title=" ">
<polygon fill="white" stroke="black" points="862,-950.5 862,-969.5 933,-969.5 933,-950.5 862,-950.5"/>
<text text-anchor="middle" x="897.5" y="-957.5" font-family="Helvetica,sans-Serif" font-size="10.00">callclosemth</text>
</a>
</g>
</g>
<!-- Node1&#45;&gt;Node2 -->
<g id="edge1" class="edge"><title>Node1&#45;&gt;Node2</title>
<path fill="none" stroke="midnightblue" d="M958.787,-971.398C950.323,-969.797 941.463,-968.122 933.221,-966.564"/>
<polygon fill="midnightblue" stroke="midnightblue" points="958.371,-974.881 968.847,-973.299 959.671,-968.003 958.371,-974.881"/>
</g>
<!-- Node173 -->
<g id="node34" class="node"><title>Node173</title>
<g id="a_node34"><a xlink:href="lgc_8c.html#aaf7c6e9e6a93da6bb64ffe7654668ba3" target="_top" xlink:title=" ">
<polygon fill="white" stroke="black" points="529.5,-1026.5 529.5,-1045.5 573.5,-1045.5 573.5,-1026.5 529.5,-1026.5"/>
<text text-anchor="middle" x="551.5" y="-1033.5" font-family="Helvetica,sans-Serif" font-size="10.00">GCTM</text>
</a>
</g>
</g>
<!-- Node1&#45;&gt;Node173 -->
<g id="edge58" class="edge"><title>Node1&#45;&gt;Node173</title>
<path fill="none" stroke="midnightblue" d="M959.088,-988.113C950.511,-989.89 941.477,-991.625 933,-993 796.834,-1015.08 631.423,-1029.62 573.635,-1034.33"/>
<polygon fill="midnightblue" stroke="midnightblue" points="959.835,-991.532 968.887,-986.027 958.377,-984.686 959.835,-991.532"/>
</g>
<!-- Node387 -->
<g id="node40" class="node"><title>Node387</title>
<g id="a_node40"><a xlink:href="lua_8h.html#ab03ab465d4ca870dc66e228b8dfd3f06" target="_top" xlink:title=" ">
<polygon fill="white" stroke="black" points="521.5,-969.5 521.5,-988.5 581.5,-988.5 581.5,-969.5 521.5,-969.5"/>
<text text-anchor="middle" x="551.5" y="-976.5" font-family="Helvetica,sans-Serif" font-size="10.00">lua_pcallk</text>
</a>
</g>
</g>
<!-- Node1&#45;&gt;Node387 -->
<g id="edge59" class="edge"><title>Node1&#45;&gt;Node387</title>
<path fill="none" stroke="midnightblue" d="M958.433,-979C869.487,-979 659.088,-979 581.712,-979"/>
<polygon fill="midnightblue" stroke="midnightblue" points="958.661,-982.5 968.661,-979 958.661,-975.5 958.661,-982.5"/>
</g>
<!-- Node192 -->
<g id="node43" class="node"><title>Node192</title>
<g id="a_node43"><a xlink:href="ldo_8h.html#a5dffa85d966f14d3f3464db580f5b3fa" target="_top" xlink:title=" ">
<polygon fill="white" stroke="black" points="497,-590.5 497,-609.5 606,-609.5 606,-590.5 497,-590.5"/>
<text text-anchor="middle" x="551.5" y="-597.5" font-family="Helvetica,sans-Serif" font-size="10.00">luaD_protectedparser</text>
</a>
</g>
</g>
<!-- Node1&#45;&gt;Node192 -->
<g id="edge60" class="edge"><title>Node1&#45;&gt;Node192</title>
<path fill="none" stroke="midnightblue" d="M991.201,-959.89C964.788,-897.926 872.12,-701.797 726,-619 689.75,-598.459 642.388,-594.503 606.309,-595.241"/>
<polygon fill="midnightblue" stroke="midnightblue" points="988.029,-961.376 995.118,-969.25 994.486,-958.674 988.029,-961.376"/>
</g>
<!-- Node3 -->
<g id="node3" class="node"><title>Node3</title>
<g id="a_node3"><a xlink:href="lfunc_8h.html#add62dd4cd3a4c06e0cc322915196c5f3" target="_top" xlink:title=" ">
<polygon fill="white" stroke="black" points="762,-817.5 762,-836.5 826,-836.5 826,-817.5 762,-817.5"/>
<text text-anchor="middle" x="794" y="-824.5" font-family="Helvetica,sans-Serif" font-size="10.00">luaF_close</text>
</a>
</g>
</g>
<!-- Node2&#45;&gt;Node3 -->
<g id="edge2" class="edge"><title>Node2&#45;&gt;Node3</title>
<path fill="none" stroke="midnightblue" d="M882.923,-942.209C861.245,-913.803 819.527,-859.139 802.507,-836.837"/>
<polygon fill="midnightblue" stroke="midnightblue" points="880.351,-944.609 889.2,-950.435 885.916,-940.362 880.351,-944.609"/>
</g>
<!-- Node4 -->
<g id="node4" class="node"><title>Node4</title>
<g id="a_node4"><a xlink:href="lstate_8c.html#a4940327dfa3b86df0ef008180bb3fcb3" target="_top" xlink:title=" ">
<polygon fill="white" stroke="black" points="110.5,-940.5 110.5,-959.5 177.5,-959.5 177.5,-940.5 110.5,-940.5"/>
<text text-anchor="middle" x="144" y="-947.5" font-family="Helvetica,sans-Serif" font-size="10.00">close_state</text>
</a>
</g>
</g>
<!-- Node3&#45;&gt;Node4 -->
<g id="edge3" class="edge"><title>Node3&#45;&gt;Node4</title>
<path fill="none" stroke="midnightblue" d="M769.414,-841.988C756.851,-849.553 740.944,-858.482 726,-865 674.722,-887.366 660.782,-891.659 606,-903 447.654,-935.781 253.768,-946.06 177.766,-948.963"/>
<polygon fill="midnightblue" stroke="midnightblue" points="771.608,-844.748 778.297,-836.532 767.944,-838.783 771.608,-844.748"/>
</g>
<!-- Node11 -->
<g id="node7" class="node"><title>Node11</title>
<g id="a_node7"><a xlink:href="lua_8h.html#ac774e7acb4416363aa205bf4caf06f67" target="_top" xlink:title=" ">
<polygon fill="white" stroke="black" points="642.5,-836.5 642.5,-855.5 725.5,-855.5 725.5,-836.5 642.5,-836.5"/>
<text text-anchor="middle" x="684" y="-843.5" font-family="Helvetica,sans-Serif" font-size="10.00">lua_resetthread</text>
</a>
</g>
</g>
<!-- Node3&#45;&gt;Node11 -->
<g id="edge6" class="edge"><title>Node3&#45;&gt;Node11</title>
<path fill="none" stroke="midnightblue" d="M751.697,-834.266C743.215,-835.759 734.29,-837.329 725.825,-838.818"/>
<polygon fill="midnightblue" stroke="midnightblue" points="752.52,-837.675 761.762,-832.496 751.307,-830.781 752.52,-837.675"/>
</g>
<!-- Node15 -->
<g id="node10" class="node"><title>Node15</title>
<g id="a_node10"><a xlink:href="lua_8h.html#a6cb9c62b9d85b1ad2a04d72bcb733816" target="_top" xlink:title=" ">
<polygon fill="white" stroke="red" points="373.5,-494.5 373.5,-513.5 435.5,-513.5 435.5,-494.5 373.5,-494.5"/>
<text text-anchor="middle" x="404.5" y="-501.5" font-family="Helvetica,sans-Serif" font-size="10.00">lua_settop</text>
</a>
</g>
</g>
<!-- Node3&#45;&gt;Node15 -->
<g id="edge9" class="edge"><title>Node3&#45;&gt;Node15</title>
<path fill="none" stroke="midnightblue" d="M751.596,-823.472C719.655,-819.19 675.428,-809.752 642,-789 520.729,-713.716 431.936,-554.679 410.49,-513.762"/>
<polygon fill="midnightblue" stroke="midnightblue" points="751.573,-826.995 761.924,-824.735 752.423,-820.047 751.573,-826.995"/>
</g>
<!-- Node172 -->
<g id="node33" class="node"><title>Node172</title>
<g id="a_node33"><a xlink:href="ldo_8h.html#ad1087faa52e2bb98c00806ea1ac198a6" target="_top" xlink:title=" ">
<polygon fill="white" stroke="black" points="653,-950.5 653,-969.5 715,-969.5 715,-950.5 653,-950.5"/>
<text text-anchor="middle" x="684" y="-957.5" font-family="Helvetica,sans-Serif" font-size="10.00">luaD_pcall</text>
</a>
</g>
</g>
<!-- Node3&#45;&gt;Node172 -->
<g id="edge34" class="edge"><title>Node3&#45;&gt;Node172</title>
<path fill="none" stroke="midnightblue" d="M786.059,-845.91C776.139,-870.647 755.757,-914.009 726,-941 721.932,-944.69 717.024,-947.782 712.038,-950.328"/>
<polygon fill="midnightblue" stroke="midnightblue" points="789.336,-847.14 789.666,-836.55 782.804,-844.623 789.336,-847.14"/>
</g>
<!-- Node637 -->
<g id="node46" class="node"><title>Node637</title>
<g id="a_node46"><a xlink:href="ldo_8h.html#a3bfc211173876f40cde6808e408cd305" target="_top" xlink:title=" ">
<polygon fill="white" stroke="red" points="651.5,-666.5 651.5,-685.5 716.5,-685.5 716.5,-666.5 651.5,-666.5"/>
<text text-anchor="middle" x="684" y="-673.5" font-family="Helvetica,sans-Serif" font-size="10.00">luaD_throw</text>
</a>
</g>
</g>
<!-- Node3&#45;&gt;Node637 -->
<g id="edge52" class="edge"><title>Node3&#45;&gt;Node637</title>
<path fill="none" stroke="midnightblue" d="M784.073,-807.955C772.519,-784.357 750.893,-743.533 726,-713 717.639,-702.745 706.378,-692.794 697.773,-685.8"/>
<polygon fill="midnightblue" stroke="midnightblue" points="781.033,-809.712 788.518,-817.211 787.343,-806.681 781.033,-809.712"/>
</g>
<!-- Node639 -->
<g id="node47" class="node"><title>Node639</title>
<g id="a_node47"><a xlink:href="lstate_8h.html#a0882226c718293b23af460f7e2faeef0" target="_top" xlink:title=" ">
<polygon fill="white" stroke="red" points="642,-628.5 642,-647.5 726,-647.5 726,-628.5 642,-628.5"/>
<text text-anchor="middle" x="684" y="-635.5" font-family="Helvetica,sans-Serif" font-size="10.00">luaE_freethread</text>
</a>
</g>
</g>
<!-- Node3&#45;&gt;Node639 -->
<g id="edge54" class="edge"><title>Node3&#45;&gt;Node639</title>
<path fill="none" stroke="midnightblue" d="M790.056,-806.944C783.993,-772.242 767.066,-700.543 726,-657 722.447,-653.233 718.001,-650.146 713.359,-647.638"/>
<polygon fill="midnightblue" stroke="midnightblue" points="786.663,-807.888 791.715,-817.2 793.573,-806.77 786.663,-807.888"/>
</g>
<!-- Node383 -->
<g id="node48" class="node"><title>Node383</title>
<g id="a_node48"><a xlink:href="lvm_8h.html#ac430e93ed874f6ab2449d7a16aa6b62f" target="_top" xlink:title=" ">
<polygon fill="white" stroke="red" points="646,-912.5 646,-931.5 722,-931.5 722,-912.5 646,-912.5"/>
<text text-anchor="middle" x="684" y="-919.5" font-family="Helvetica,sans-Serif" font-size="10.00">luaV_execute</text>
</a>
</g>
</g>
<!-- Node3&#45;&gt;Node383 -->
<g id="edge55" class="edge"><title>Node3&#45;&gt;Node383</title>
<path fill="none" stroke="midnightblue" d="M778.829,-844.65C766.037,-859.899 746.179,-881.948 726,-898 719.287,-903.34 711.262,-908.302 704.098,-912.312"/>
<polygon fill="midnightblue" stroke="midnightblue" points="781.84,-846.499 785.493,-836.554 776.435,-842.051 781.84,-846.499"/>
</g>
<!-- Node651 -->
<g id="node49" class="node"><title>Node651</title>
<g id="a_node49"><a xlink:href="ldo_8c.html#adfdcfe680efe0b6fd458a515aace0796" target="_top" xlink:title=" ">
<polygon fill="white" stroke="red" points="650,-760.5 650,-779.5 718,-779.5 718,-760.5 650,-760.5"/>
<text text-anchor="middle" x="684" y="-767.5" font-family="Helvetica,sans-Serif" font-size="10.00">moveresults</text>
</a>
</g>
</g>
<!-- Node3&#45;&gt;Node651 -->
<g id="edge56" class="edge"><title>Node3&#45;&gt;Node651</title>
<path fill="none" stroke="midnightblue" d="M765.616,-812.547C745.997,-802.193 720.128,-788.54 703.05,-779.526"/>
<polygon fill="midnightblue" stroke="midnightblue" points="764.202,-815.758 774.679,-817.331 767.469,-809.568 764.202,-815.758"/>
</g>
<!-- Node654 -->
<g id="node50" class="node"><title>Node654</title>
<g id="a_node50"><a xlink:href="ldo_8c.html#a8f3e3ff2aa0a4a251774a476cb0036ea" target="_top" xlink:title=" ">
<polygon fill="white" stroke="red" points="660.5,-722.5 660.5,-741.5 707.5,-741.5 707.5,-722.5 660.5,-722.5"/>
<text text-anchor="middle" x="684" y="-729.5" font-family="Helvetica,sans-Serif" font-size="10.00">recover</text>
</a>
</g>
</g>
<!-- Node3&#45;&gt;Node654 -->
<g id="edge57" class="edge"><title>Node3&#45;&gt;Node654</title>
<path fill="none" stroke="midnightblue" d="M780.605,-809.083C768.301,-792.339 748.123,-767.51 726,-751 720.467,-746.871 713.893,-743.336 707.648,-740.474"/>
<polygon fill="midnightblue" stroke="midnightblue" points="777.926,-811.354 786.593,-817.449 783.619,-807.28 777.926,-811.354"/>
</g>
<!-- Node5 -->
<g id="node5" class="node"><title>Node5</title>
<g id="a_node5"><a xlink:href="lua_8h.html#afe030a97e84f24dfab3afb598faa2fff" target="_top" xlink:title=" ">
<polygon fill="white" stroke="red" points="8,-959.5 8,-978.5 66,-978.5 66,-959.5 8,-959.5"/>
<text text-anchor="middle" x="37" y="-966.5" font-family="Helvetica,sans-Serif" font-size="10.00">lua_close</text>
</a>
</g>
</g>
<!-- Node4&#45;&gt;Node5 -->
<g id="edge4" class="edge"><title>Node4&#45;&gt;Node5</title>
<path fill="none" stroke="midnightblue" d="M100.405,-957.708C88.8227,-959.804 76.5725,-962.02 66.0217,-963.929"/>
<polygon fill="midnightblue" stroke="midnightblue" points="101.136,-961.132 110.353,-955.908 99.8895,-954.244 101.136,-961.132"/>
</g>
<!-- Node8 -->
<g id="node6" class="node"><title>Node8</title>
<g id="a_node6"><a xlink:href="lua_8h.html#af722e4ac7fc0eba5920f59f0162c1b97" target="_top" xlink:title=" ">
<polygon fill="white" stroke="red" points="0,-921.5 0,-940.5 74,-940.5 74,-921.5 0,-921.5"/>
<text text-anchor="middle" x="37" y="-928.5" font-family="Helvetica,sans-Serif" font-size="10.00">lua_newstate</text>
</a>
</g>
</g>
<!-- Node4&#45;&gt;Node8 -->
<g id="edge5" class="edge"><title>Node4&#45;&gt;Node8</title>
<path fill="none" stroke="midnightblue" d="M100.411,-942.293C91.7458,-940.725 82.7064,-939.09 74.2844,-937.566"/>
<polygon fill="midnightblue" stroke="midnightblue" points="99.8895,-945.756 110.353,-944.092 101.136,-938.868 99.8895,-945.756"/>
</g>
<!-- Node12 -->
<g id="node8" class="node"><title>Node12</title>
<g id="a_node8"><a xlink:href="lcorolib_8c.html#a777abb20385a69ce4787f72bd90375a7" target="_top" xlink:title=" ">
<polygon fill="white" stroke="red" points="513,-836.5 513,-855.5 590,-855.5 590,-836.5 513,-836.5"/>
<text text-anchor="middle" x="551.5" y="-843.5" font-family="Helvetica,sans-Serif" font-size="10.00">luaB_auxwrap</text>
</a>
</g>
</g>
<!-- Node11&#45;&gt;Node12 -->
<g id="edge7" class="edge"><title>Node11&#45;&gt;Node12</title>
<path fill="none" stroke="midnightblue" d="M632.037,-846C618.165,-846 603.386,-846 590.38,-846"/>
<polygon fill="midnightblue" stroke="midnightblue" points="632.424,-849.5 642.424,-846 632.424,-842.5 632.424,-849.5"/>
</g>
<!-- Node14 -->
<g id="node9" class="node"><title>Node14</title>
<g id="a_node9"><a xlink:href="lcorolib_8c.html#a3c6a70201b343432bfeb1f3e09cdde6f" target="_top" xlink:title=" ">
<polygon fill="white" stroke="black" points="519,-874.5 519,-893.5 584,-893.5 584,-874.5 519,-874.5"/>
<text text-anchor="middle" x="551.5" y="-881.5" font-family="Helvetica,sans-Serif" font-size="10.00">luaB_close</text>
</a>
</g>
</g>
<!-- Node11&#45;&gt;Node14 -->
<g id="edge8" class="edge"><title>Node11&#45;&gt;Node14</title>
<path fill="none" stroke="midnightblue" d="M640.221,-858.457C621.918,-863.786 600.927,-869.899 584.07,-874.807"/>
<polygon fill="midnightblue" stroke="midnightblue" points="641.447,-861.745 650.069,-855.589 639.49,-855.024 641.447,-861.745"/>
</g>
<!-- Node16 -->
<g id="node11" class="node"><title>Node16</title>
<g id="a_node11"><a xlink:href="ldblib_8c.html#ad72cc206e90f6ebc343460376c950a14" target="_top" xlink:title=" ">
<polygon fill="white" stroke="black" points="233.5,-190.5 233.5,-209.5 292.5,-209.5 292.5,-190.5 233.5,-190.5"/>
<text text-anchor="middle" x="263" y="-197.5" font-family="Helvetica,sans-Serif" font-size="10.00">db_debug</text>
</a>
</g>
</g>
<!-- Node15&#45;&gt;Node16 -->
<g id="edge10" class="edge"><title>Node15&#45;&gt;Node16</title>
<path fill="none" stroke="midnightblue" d="M402.741,-484.202C399.749,-433.403 384.968,-296.97 312,-219 306.856,-213.503 299.92,-209.568 292.921,-206.761"/>
<polygon fill="midnightblue" stroke="midnightblue" points="399.258,-484.631 403.248,-494.446 406.25,-484.285 399.258,-484.631"/>
</g>
<!-- Node17 -->
<g id="node12" class="node"><title>Node17</title>
<g id="a_node12"><a xlink:href="ldblib_8c.html#aa0c362d361f8f9bd8a002c34c393e2b0" target="_top" xlink:title=" ">
<polygon fill="white" stroke="black" points="229.5,-152.5 229.5,-171.5 296.5,-171.5 296.5,-152.5 229.5,-152.5"/>
<text text-anchor="middle" x="263" y="-159.5" font-family="Helvetica,sans-Serif" font-size="10.00">db_sethook</text>
</a>
</g>
</g>
<!-- Node15&#45;&gt;Node17 -->
<g id="edge11" class="edge"><title>Node15&#45;&gt;Node17</title>
<path fill="none" stroke="midnightblue" d="M403.636,-484.203C402.949,-428.95 393.549,-271.218 312,-181 307.793,-176.346 302.298,-172.816 296.534,-170.144"/>
<polygon fill="midnightblue" stroke="midnightblue" points="400.137,-484.39 403.674,-494.377 407.137,-484.364 400.137,-484.39"/>
</g>
<!-- Node18 -->
<g id="node13" class="node"><title>Node18</title>
<g id="a_node13"><a xlink:href="ldblib_8c.html#a11cfe90e96e7ea907a767f5109f7ef4b" target="_top" xlink:title=" ">
<polygon fill="white" stroke="black" points="230,-836.5 230,-855.5 296,-855.5 296,-836.5 230,-836.5"/>
<text text-anchor="middle" x="263" y="-843.5" font-family="Helvetica,sans-Serif" font-size="10.00">db_setlocal</text>
</a>
</g>
</g>
<!-- Node15&#45;&gt;Node18 -->
<g id="edge12" class="edge"><title>Node15&#45;&gt;Node18</title>
<path fill="none" stroke="midnightblue" d="M403.636,-523.797C402.949,-579.05 393.549,-736.782 312,-827 307.673,-831.787 301.983,-835.384 296.039,-838.083"/>
<polygon fill="midnightblue" stroke="midnightblue" points="407.137,-523.636 403.674,-513.623 400.137,-523.61 407.137,-523.636"/>
</g>
<!-- Node19 -->
<g id="node14" class="node"><title>Node19</title>
<g id="a_node14"><a xlink:href="ldblib_8c.html#a3595aee1af712c0ba9c586feb763bffc" target="_top" xlink:title=" ">
<polygon fill="white" stroke="black" points="218.5,-798.5 218.5,-817.5 307.5,-817.5 307.5,-798.5 218.5,-798.5"/>
<text text-anchor="middle" x="263" y="-805.5" font-family="Helvetica,sans-Serif" font-size="10.00">db_setmetatable</text>
</a>
</g>
</g>
<!-- Node15&#45;&gt;Node19 -->
<g id="edge13" class="edge"><title>Node15&#45;&gt;Node19</title>
<path fill="none" stroke="midnightblue" d="M402.741,-523.798C399.749,-574.597 384.968,-711.03 312,-789 308.448,-792.795 304.042,-795.846 299.35,-798.295"/>
<polygon fill="midnightblue" stroke="midnightblue" points="406.25,-523.715 403.248,-513.554 399.258,-523.369 406.25,-523.715"/>
</g>
<!-- Node20 -->
<g id="node15" class="node"><title>Node20</title>
<g id="a_node15"><a xlink:href="ldblib_8c.html#a233c3c4d12bda0fdbf515a18b8961461" target="_top" xlink:title=" ">
<polygon fill="white" stroke="black" points="220,-760.5 220,-779.5 306,-779.5 306,-760.5 220,-760.5"/>
<text text-anchor="middle" x="263" y="-767.5" font-family="Helvetica,sans-Serif" font-size="10.00">db_setuservalue</text>
</a>
</g>
</g>
<!-- Node15&#45;&gt;Node20 -->
<g id="edge14" class="edge"><title>Node15&#45;&gt;Node20</title>
<path fill="none" stroke="midnightblue" d="M401.617,-523.594C396.198,-569.479 376.556,-684.998 312,-751 308.24,-754.844 303.606,-757.93 298.713,-760.402"/>
<polygon fill="midnightblue" stroke="midnightblue" points="405.113,-523.819 402.707,-513.501 398.153,-523.067 405.113,-523.819"/>
</g>
<!-- Node21 -->
<g id="node16" class="node"><title>Node21</title>
<g id="a_node16"><a xlink:href="lua_8c.html#a946f2675cba972bd3580d9046abf2b6b" target="_top" xlink:title=" ">
<polygon fill="white" stroke="red" points="117.5,-456.5 117.5,-475.5 170.5,-475.5 170.5,-456.5 117.5,-456.5"/>
<text text-anchor="middle" x="144" y="-463.5" font-family="Helvetica,sans-Serif" font-size="10.00">doREPL</text>
</a>
</g>
</g>
<!-- Node15&#45;&gt;Node21 -->
<g id="edge15" class="edge"><title>Node15&#45;&gt;Node21</title>
<path fill="none" stroke="midnightblue" d="M399.735,-523.885C391.451,-561.345 367.755,-641.599 312,-675 274.636,-697.384 249.297,-700.518 214,-675 146.803,-626.42 143.948,-510.028 144.638,-475.691"/>
<polygon fill="midnightblue" stroke="midnightblue" points="403.237,-524.234 401.83,-513.733 396.381,-522.82 403.237,-524.234"/>
</g>
<!-- Node23 -->
<g id="node17" class="node"><title>Node23</title>
<g id="a_node17"><a xlink:href="lstrlib_8c.html#ab55a72bb412d6186c82fd75de44cd031" target="_top" xlink:title=" ">
<polygon fill="white" stroke="black" points="238.5,-646.5 238.5,-665.5 287.5,-665.5 287.5,-646.5 238.5,-646.5"/>
<text text-anchor="middle" x="263" y="-653.5" font-family="Helvetica,sans-Serif" font-size="10.00">gmatch</text>
</a>
</g>
</g>
<!-- Node15&#45;&gt;Node23 -->
<g id="edge16" class="edge"><title>Node15&#45;&gt;Node23</title>
<path fill="none" stroke="midnightblue" d="M394.915,-523.096C381.214,-551.591 351.833,-605.277 312,-637 304.989,-642.583 296.131,-646.704 287.939,-649.653"/>
<polygon fill="midnightblue" stroke="midnightblue" points="398.185,-524.366 399.244,-513.824 391.842,-521.405 398.185,-524.366"/>
</g>
<!-- Node24 -->
<g id="node18" class="node"><title>Node24</title>
<g id="a_node18"><a xlink:href="liolib_8c.html#ac37d80ee2cc364b4adafcb6f7c20f28b" target="_top" xlink:title=" ">
<polygon fill="white" stroke="red" points="231.5,-608.5 231.5,-627.5 294.5,-627.5 294.5,-608.5 231.5,-608.5"/>
<text text-anchor="middle" x="263" y="-615.5" font-family="Helvetica,sans-Serif" font-size="10.00">io_readline</text>
</a>
</g>
</g>
<!-- Node15&#45;&gt;Node24 -->
<g id="edge17" class="edge"><title>Node15&#45;&gt;Node24</title>
<path fill="none" stroke="midnightblue" d="M390.335,-521.714C373.988,-542.646 344.288,-577.356 312,-599 306.491,-602.693 300.156,-605.838 293.933,-608.444"/>
<polygon fill="midnightblue" stroke="midnightblue" points="393.196,-523.734 396.492,-513.665 387.636,-519.481 393.196,-523.734"/>
</g>
<!-- Node28 -->
<g id="node19" class="node"><title>Node28</title>
<g id="a_node19"><a xlink:href="loadlib_8c.html#a136874f5faa236dc52fb50109281e157" target="_top" xlink:title=" ">
<polygon fill="white" stroke="black" points="235,-570.5 235,-589.5 291,-589.5 291,-570.5 235,-570.5"/>
<text text-anchor="middle" x="263" y="-577.5" font-family="Helvetica,sans-Serif" font-size="10.00">ll_require</text>
</a>
</g>
</g>
<!-- Node15&#45;&gt;Node28 -->
<g id="edge18" class="edge"><title>Node15&#45;&gt;Node28</title>
<path fill="none" stroke="midnightblue" d="M381.025,-519.597C362.898,-531.78 336.477,-548.658 312,-561 305.198,-564.43 297.621,-567.677 290.534,-570.484"/>
<polygon fill="midnightblue" stroke="midnightblue" points="383.393,-522.219 389.695,-513.702 379.457,-516.43 383.393,-522.219"/>
</g>
<!-- Node29 -->
<g id="node20" class="node"><title>Node29</title>
<g id="a_node20"><a xlink:href="lua_8c.html#ad7e840f79b193c164616ed9748e68ec6" target="_top" xlink:title=" ">
<polygon fill="white" stroke="black" points="238,-228.5 238,-247.5 288,-247.5 288,-228.5 238,-228.5"/>
<text text-anchor="middle" x="263" y="-235.5" font-family="Helvetica,sans-Serif" font-size="10.00">loadline</text>
</a>
</g>
</g>
<!-- Node15&#45;&gt;Node29 -->
<g id="edge19" class="edge"><title>Node15&#45;&gt;Node29</title>
<path fill="none" stroke="midnightblue" d="M401.617,-484.406C396.198,-438.521 376.556,-323.002 312,-257 305.608,-250.465 296.689,-246.121 288.272,-243.26"/>
<polygon fill="midnightblue" stroke="midnightblue" points="398.153,-484.933 402.707,-494.499 405.113,-484.181 398.153,-484.933"/>
</g>
<!-- Node30 -->
<g id="node21" class="node"><title>Node30</title>
<g id="a_node21"><a xlink:href="lbaselib_8c.html#a8ba9378d5d46ef34a7429d52c3f3e4c7" target="_top" xlink:title=" ">
<polygon fill="white" stroke="black" points="110,-798.5 110,-817.5 178,-817.5 178,-798.5 110,-798.5"/>
<text text-anchor="middle" x="144" y="-805.5" font-family="Helvetica,sans-Serif" font-size="10.00">luaB_assert</text>
</a>
</g>
</g>
<!-- Node15&#45;&gt;Node30 -->
<g id="edge21" class="edge"><title>Node15&#45;&gt;Node30</title>
<path fill="none" stroke="midnightblue" d="M401.624,-523.655C394.594,-592.648 367.344,-821.933 312,-865 277.626,-891.749 254.986,-879.739 214,-865 187.682,-855.535 164.261,-831.2 152.674,-817.586"/>
<polygon fill="midnightblue" stroke="midnightblue" points="405.109,-523.979 402.611,-513.683 398.143,-523.289 405.109,-523.979"/>
</g>
<!-- Node31 -->
<g id="node22" class="node"><title>Node31</title>
<g id="a_node22"><a xlink:href="lbaselib_8c.html#a86a4e35d9c9ad4661a0dbbac3758c049" target="_top" xlink:title=" ">
<polygon fill="white" stroke="black" points="231,-532.5 231,-551.5 295,-551.5 295,-532.5 231,-532.5"/>
<text text-anchor="middle" x="263" y="-539.5" font-family="Helvetica,sans-Serif" font-size="10.00">luaB_dofile</text>
</a>
</g>
</g>
<!-- Node15&#45;&gt;Node31 -->
<g id="edge22" class="edge"><title>Node15&#45;&gt;Node31</title>
<path fill="none" stroke="midnightblue" d="M363.326,-514.943C341.647,-520.849 315.29,-528.028 295.176,-533.508"/>
<polygon fill="midnightblue" stroke="midnightblue" points="364.502,-518.251 373.231,-512.245 362.662,-511.497 364.502,-518.251"/>
</g>
<!-- Node32 -->
<g id="node23" class="node"><title>Node32</title>
<g id="a_node23"><a xlink:href="lbaselib_8c.html#a2ecfa987569d0b4c1063f3e204e42dd2" target="_top" xlink:title=" ">
<polygon fill="white" stroke="black" points="232.5,-722.5 232.5,-741.5 293.5,-741.5 293.5,-722.5 232.5,-722.5"/>
<text text-anchor="middle" x="263" y="-729.5" font-family="Helvetica,sans-Serif" font-size="10.00">luaB_error</text>
</a>
</g>
</g>
<!-- Node15&#45;&gt;Node32 -->
<g id="edge23" class="edge"><title>Node15&#45;&gt;Node32</title>
<path fill="none" stroke="midnightblue" d="M399.341,-523.805C390.105,-563.423 364.437,-653.312 312,-708 306.197,-714.053 298.541,-718.816 291.053,-722.448"/>
<polygon fill="midnightblue" stroke="midnightblue" points="402.805,-524.351 401.562,-513.83 395.972,-522.83 402.805,-524.351"/>
</g>
<!-- Node33 -->
<g id="node24" class="node"><title>Node33</title>
<g id="a_node24"><a xlink:href="lbaselib_8c.html#a4a9a3613fcf80fe033e044f7e19bed69" target="_top" xlink:title=" ">
<polygon fill="white" stroke="black" points="114.5,-38.5 114.5,-57.5 173.5,-57.5 173.5,-38.5 114.5,-38.5"/>
<text text-anchor="middle" x="144" y="-45.5" font-family="Helvetica,sans-Serif" font-size="10.00">luaB_load</text>
</a>
</g>
</g>
<!-- Node15&#45;&gt;Node33 -->
<g id="edge25" class="edge"><title>Node15&#45;&gt;Node33</title>
<path fill="none" stroke="midnightblue" d="M400.887,-484.147C391.605,-416.348 358.283,-195.287 312,-143 281.037,-108.02 254.302,-128.623 214,-105 190.676,-91.3283 167.181,-69.909 154.524,-57.5899"/>
<polygon fill="midnightblue" stroke="midnightblue" points="397.452,-484.868 402.254,-494.313 404.39,-483.935 397.452,-484.868"/>
</g>
<!-- Node34 -->
<g id="node25" class="node"><title>Node34</title>
<g id="a_node25"><a xlink:href="lbaselib_8c.html#ac0b11ecf3ced275821aaf5a03ed33b02" target="_top" xlink:title=" ">
<polygon fill="white" stroke="red" points="233,-494.5 233,-513.5 293,-513.5 293,-494.5 233,-494.5"/>
<text text-anchor="middle" x="263" y="-501.5" font-family="Helvetica,sans-Serif" font-size="10.00">luaB_next</text>
</a>
</g>
</g>
<!-- Node15&#45;&gt;Node34 -->
<g id="edge26" class="edge"><title>Node15&#45;&gt;Node34</title>
<path fill="none" stroke="midnightblue" d="M363.04,-504C340.717,-504 313.503,-504 293.254,-504"/>
<polygon fill="midnightblue" stroke="midnightblue" points="363.231,-507.5 373.231,-504 363.231,-500.5 363.231,-507.5"/>
</g>
<!-- Node36 -->
<g id="node26" class="node"><title>Node36</title>
<g id="a_node26"><a xlink:href="lbaselib_8c.html#a248a6847a33f31c69a43a76b6b8bcb4b" target="_top" xlink:title=" ">
<polygon fill="white" stroke="black" points="228,-456.5 228,-475.5 298,-475.5 298,-456.5 228,-456.5"/>
<text text-anchor="middle" x="263" y="-463.5" font-family="Helvetica,sans-Serif" font-size="10.00">luaB_rawget</text>
</a>
</g>
</g>
<!-- Node15&#45;&gt;Node36 -->
<g id="edge27" class="edge"><title>Node15&#45;&gt;Node36</title>
<path fill="none" stroke="midnightblue" d="M363.473,-493.097C342.812,-487.468 317.871,-480.674 298.131,-475.297"/>
<polygon fill="midnightblue" stroke="midnightblue" points="362.662,-496.503 373.231,-495.755 364.502,-489.749 362.662,-496.503"/>
</g>
<!-- Node37 -->
<g id="node27" class="node"><title>Node37</title>
<g id="a_node27"><a xlink:href="lbaselib_8c.html#a7b7225051c25127792f30eadd3498cc3" target="_top" xlink:title=" ">
<polygon fill="white" stroke="black" points="228,-418.5 228,-437.5 298,-437.5 298,-418.5 228,-418.5"/>
<text text-anchor="middle" x="263" y="-425.5" font-family="Helvetica,sans-Serif" font-size="10.00">luaB_rawset</text>
</a>
</g>
</g>
<!-- Node15&#45;&gt;Node37 -->
<g id="edge28" class="edge"><title>Node15&#45;&gt;Node37</title>
<path fill="none" stroke="midnightblue" d="M381.025,-488.403C362.898,-476.22 336.477,-459.342 312,-447 305.198,-443.57 297.621,-440.323 290.534,-437.516"/>
<polygon fill="midnightblue" stroke="midnightblue" points="379.457,-491.57 389.695,-494.298 383.393,-485.781 379.457,-491.57"/>
</g>
<!-- Node38 -->
<g id="node28" class="node"><title>Node38</title>
<g id="a_node28"><a xlink:href="lbaselib_8c.html#af7799a987ba6d158a96a52e80fb5beaf" target="_top" xlink:title=" ">
<polygon fill="white" stroke="black" points="214,-380.5 214,-399.5 312,-399.5 312,-380.5 214,-380.5"/>
<text text-anchor="middle" x="263" y="-387.5" font-family="Helvetica,sans-Serif" font-size="10.00">luaB_setmetatable</text>
</a>
</g>
</g>
<!-- Node15&#45;&gt;Node38 -->
<g id="edge29" class="edge"><title>Node15&#45;&gt;Node38</title>
<path fill="none" stroke="midnightblue" d="M390.335,-486.286C373.988,-465.354 344.288,-430.644 312,-409 306.491,-405.307 300.156,-402.162 293.933,-399.556"/>
<polygon fill="midnightblue" stroke="midnightblue" points="387.636,-488.519 396.492,-494.335 393.196,-484.266 387.636,-488.519"/>
</g>
<!-- Node39 -->
<g id="node29" class="node"><title>Node39</title>
<g id="a_node29"><a xlink:href="lbaselib_8c.html#a6224f7b7c4485996e1c22eae32de990d" target="_top" xlink:title=" ">
<polygon fill="white" stroke="black" points="222,-342.5 222,-361.5 304,-361.5 304,-342.5 222,-342.5"/>
<text text-anchor="middle" x="263" y="-349.5" font-family="Helvetica,sans-Serif" font-size="10.00">luaB_tonumber</text>
</a>
</g>
</g>
<!-- Node15&#45;&gt;Node39 -->
<g id="edge30" class="edge"><title>Node15&#45;&gt;Node39</title>
<path fill="none" stroke="midnightblue" d="M394.915,-484.904C381.214,-456.409 351.833,-402.723 312,-371 307.233,-367.203 301.611,-364.083 295.926,-361.548"/>
<polygon fill="midnightblue" stroke="midnightblue" points="391.842,-486.595 399.244,-494.176 398.185,-483.634 391.842,-486.595"/>
</g>
<!-- Node40 -->
<g id="node30" class="node"><title>Node40</title>
<g id="a_node30"><a xlink:href="lauxlib_8h.html#a8c38c6dcf9db7e110e525b46742bacf8" target="_top" xlink:title=" ">
<polygon fill="white" stroke="red" points="225.5,-76.5 225.5,-95.5 300.5,-95.5 300.5,-76.5 225.5,-76.5"/>
<text text-anchor="middle" x="263" y="-83.5" font-family="Helvetica,sans-Serif" font-size="10.00">luaL_loadfilex</text>
</a>
</g>
</g>
<!-- Node15&#45;&gt;Node40 -->
<g id="edge31" class="edge"><title>Node15&#45;&gt;Node40</title>
<path fill="none" stroke="midnightblue" d="M401.11,-483.914C392.239,-412.212 359.261,-169.941 312,-110 307.154,-103.854 300.321,-99.1577 293.325,-95.621"/>
<polygon fill="midnightblue" stroke="midnightblue" points="397.684,-484.738 402.365,-494.243 404.633,-483.893 397.684,-484.738"/>
</g>
<!-- Node42 -->
<g id="node31" class="node"><title>Node42</title>
<g id="a_node31"><a xlink:href="lib21_8c.html#ab456f192d7085cab2b40bbabe4c2349a" target="_top" xlink:title=" ">
<polygon fill="white" stroke="red" points="227.5,-304.5 227.5,-323.5 298.5,-323.5 298.5,-304.5 227.5,-304.5"/>
<text text-anchor="middle" x="263" y="-311.5" font-family="Helvetica,sans-Serif" font-size="10.00">luaopen_lib2</text>
</a>
</g>
</g>
<!-- Node15&#45;&gt;Node42 -->
<g id="edge32" class="edge"><title>Node15&#45;&gt;Node42</title>
<path fill="none" stroke="midnightblue" d="M397.979,-484.471C387.136,-449.453 359.848,-375.664 312,-333 307.719,-329.183 302.578,-326.086 297.275,-323.589"/>
<polygon fill="midnightblue" stroke="midnightblue" points="394.723,-485.801 400.928,-494.389 401.433,-483.806 394.723,-485.801"/>
</g>
<!-- Node44 -->
<g id="node32" class="node"><title>Node44</title>
<g id="a_node32"><a xlink:href="lmathlib_8c.html#ae4f0dc771c626a9badef237db9d433da" target="_top" xlink:title=" ">
<polygon fill="white" stroke="black" points="233.5,-266.5 233.5,-285.5 292.5,-285.5 292.5,-266.5 233.5,-266.5"/>
<text text-anchor="middle" x="263" y="-273.5" font-family="Helvetica,sans-Serif" font-size="10.00">math_ceil</text>
</a>
</g>
</g>
<!-- Node15&#45;&gt;Node44 -->
<g id="edge33" class="edge"><title>Node15&#45;&gt;Node44</title>
<path fill="none" stroke="midnightblue" d="M400.049,-484.151C391.952,-443.282 368.018,-349.05 312,-295 306.582,-289.773 299.552,-285.93 292.551,-283.126"/>
<polygon fill="midnightblue" stroke="midnightblue" points="396.647,-484.999 401.927,-494.185 403.528,-483.712 396.647,-484.999"/>
</g>
<!-- Node29&#45;&gt;Node21 -->
<g id="edge20" class="edge"><title>Node29&#45;&gt;Node21</title>
<path fill="none" stroke="midnightblue" d="M228.082,-247.021C222.866,-249.58 217.921,-252.844 214,-257 157.618,-316.752 147.272,-423.555 145.404,-456.233"/>
<polygon fill="midnightblue" stroke="midnightblue" points="229.663,-250.156 237.599,-243.136 227.018,-243.675 229.663,-250.156"/>
</g>
<!-- Node32&#45;&gt;Node30 -->
<g id="edge24" class="edge"><title>Node32&#45;&gt;Node30</title>
<path fill="none" stroke="midnightblue" d="M224.238,-745.623C220.705,-747.29 217.238,-749.087 214,-751 190.724,-764.753 167.212,-786.143 154.538,-798.435"/>
<polygon fill="midnightblue" stroke="midnightblue" points="225.868,-748.73 233.634,-741.523 223.069,-742.315 225.868,-748.73"/>
</g>
<!-- Node172&#45;&gt;Node2 -->
<g id="edge35" class="edge"><title>Node172&#45;&gt;Node2</title>
<path fill="none" stroke="midnightblue" d="M725.232,-960C764.645,-960 824.094,-960 861.575,-960"/>
<polygon fill="midnightblue" stroke="midnightblue" points="725.176,-956.5 715.176,-960 725.176,-963.5 725.176,-956.5"/>
</g>
<!-- Node172&#45;&gt;Node173 -->
<g id="edge36" class="edge"><title>Node172&#45;&gt;Node173</title>
<path fill="none" stroke="midnightblue" d="M657.492,-974.855C631.258,-990.133 591.179,-1013.47 568.894,-1026.45"/>
<polygon fill="midnightblue" stroke="midnightblue" points="659.592,-977.683 666.472,-969.625 656.069,-971.634 659.592,-977.683"/>
</g>
<!-- Node172&#45;&gt;Node387 -->
<g id="edge43" class="edge"><title>Node172&#45;&gt;Node387</title>
<path fill="none" stroke="midnightblue" d="M642.787,-965.855C623.05,-968.728 599.71,-972.127 581.705,-974.748"/>
<polygon fill="midnightblue" stroke="midnightblue" points="643.341,-969.311 652.733,-964.407 642.333,-962.384 643.341,-969.311"/>
</g>
<!-- Node172&#45;&gt;Node192 -->
<g id="edge46" class="edge"><title>Node172&#45;&gt;Node192</title>
<path fill="none" stroke="midnightblue" d="M645.633,-944.715C644.328,-943.56 643.108,-942.324 642,-941 630.732,-927.534 567.737,-664.156 554.816,-609.773"/>
<polygon fill="midnightblue" stroke="midnightblue" points="643.645,-947.596 653.844,-950.467 647.661,-941.863 643.645,-947.596"/>
</g>
<!-- Node174 -->
<g id="node35" class="node"><title>Node174</title>
<g id="a_node35"><a xlink:href="lgc_8c.html#a3c6f43e1b63924361ed0ce31b6d30f8b" target="_top" xlink:title=" ">
<polygon fill="white" stroke="black" points="348,-1026.5 348,-1045.5 461,-1045.5 461,-1026.5 348,-1026.5"/>
<text text-anchor="middle" x="404.5" y="-1033.5" font-family="Helvetica,sans-Serif" font-size="10.00">callallpendingfinalizers</text>
</a>
</g>
</g>
<!-- Node173&#45;&gt;Node174 -->
<g id="edge37" class="edge"><title>Node173&#45;&gt;Node174</title>
<path fill="none" stroke="midnightblue" d="M518.992,-1036C502.057,-1036 480.677,-1036 461.052,-1036"/>
<polygon fill="midnightblue" stroke="midnightblue" points="519.416,-1039.5 529.416,-1036 519.416,-1032.5 519.416,-1039.5"/>
</g>
<!-- Node632 -->
<g id="node38" class="node"><title>Node632</title>
<g id="a_node38"><a xlink:href="lgc_8c.html#a5ba38781fc577f890c6f97af9beef40a" target="_top" xlink:title=" ">
<polygon fill="white" stroke="black" points="360.5,-1064.5 360.5,-1083.5 448.5,-1083.5 448.5,-1064.5 360.5,-1064.5"/>
<text text-anchor="middle" x="404.5" y="-1071.5" font-family="Helvetica,sans-Serif" font-size="10.00">runafewfinalizers</text>
</a>
</g>
</g>
<!-- Node173&#45;&gt;Node632 -->
<g id="edge41" class="edge"><title>Node173&#45;&gt;Node632</title>
<path fill="none" stroke="midnightblue" d="M519.584,-1044.1C496.798,-1050.07 465.732,-1058.22 441.771,-1064.49"/>
<polygon fill="midnightblue" stroke="midnightblue" points="520.63,-1047.45 529.416,-1041.53 518.855,-1040.68 520.63,-1047.45"/>
</g>
<!-- Node175 -->
<g id="node36" class="node"><title>Node175</title>
<g id="a_node36"><a xlink:href="lgc_8c.html#ad14690f3e78fd31ce7eddc3acdbeec5b" target="_top" xlink:title=" ">
<polygon fill="white" stroke="red" points="224,-1026.5 224,-1045.5 302,-1045.5 302,-1026.5 224,-1026.5"/>
<text text-anchor="middle" x="263" y="-1033.5" font-family="Helvetica,sans-Serif" font-size="10.00">finishgencycle</text>
</a>
</g>
</g>
<!-- Node174&#45;&gt;Node175 -->
<g id="edge38" class="edge"><title>Node174&#45;&gt;Node175</title>
<path fill="none" stroke="midnightblue" d="M337.788,-1036C325.587,-1036 313.221,-1036 302.19,-1036"/>
<polygon fill="midnightblue" stroke="midnightblue" points="337.965,-1039.5 347.965,-1036 337.965,-1032.5 337.965,-1039.5"/>
</g>
<!-- Node629 -->
<g id="node37" class="node"><title>Node629</title>
<g id="a_node37"><a xlink:href="lgc_8h.html#a9aa52a500c9cc2076edb1707e6d8a045" target="_top" xlink:title=" ">
<polygon fill="white" stroke="black" points="214,-969.5 214,-988.5 312,-988.5 312,-969.5 214,-969.5"/>
<text text-anchor="middle" x="263" y="-976.5" font-family="Helvetica,sans-Serif" font-size="10.00">luaC_freeallobjects</text>
</a>
</g>
</g>
<!-- Node174&#45;&gt;Node629 -->
<g id="edge39" class="edge"><title>Node174&#45;&gt;Node629</title>
<path fill="none" stroke="midnightblue" d="M364.215,-1023.07C358.739,-1021.12 353.207,-1019.06 348,-1017 325.68,-1008.15 300.677,-996.628 283.798,-988.6"/>
<polygon fill="midnightblue" stroke="midnightblue" points="363.335,-1026.47 373.93,-1026.46 365.64,-1019.86 363.335,-1026.47"/>
</g>
<!-- Node629&#45;&gt;Node4 -->
<g id="edge40" class="edge"><title>Node629&#45;&gt;Node4</title>
<path fill="none" stroke="midnightblue" d="M213.439,-966.964C201.405,-963.981 188.793,-960.855 177.721,-958.11"/>
<polygon fill="midnightblue" stroke="midnightblue" points="212.817,-970.415 223.366,-969.424 214.501,-963.621 212.817,-970.415"/>
</g>
<!-- Node633 -->
<g id="node39" class="node"><title>Node633</title>
<g id="a_node39"><a xlink:href="lgc_8c.html#ae34e22198155f5d365fe500d3735c150" target="_top" xlink:title=" ">
<polygon fill="white" stroke="red" points="232.5,-1064.5 232.5,-1083.5 293.5,-1083.5 293.5,-1064.5 232.5,-1064.5"/>
<text text-anchor="middle" x="263" y="-1071.5" font-family="Helvetica,sans-Serif" font-size="10.00">singlestep</text>
</a>
</g>
</g>
<!-- Node632&#45;&gt;Node633 -->
<g id="edge42" class="edge"><title>Node632&#45;&gt;Node633</title>
<path fill="none" stroke="midnightblue" d="M350.017,-1074C330.89,-1074 310.035,-1074 293.651,-1074"/>
<polygon fill="midnightblue" stroke="midnightblue" points="350.126,-1077.5 360.126,-1074 350.126,-1070.5 350.126,-1077.5"/>
</g>
<!-- Node108 -->
<g id="node41" class="node"><title>Node108</title>
<g id="a_node41"><a xlink:href="lbaselib_8c.html#a1fb2725eed679431d070b2e9e7abc223" target="_top" xlink:title=" ">
<polygon fill="white" stroke="black" points="373.5,-988.5 373.5,-1007.5 435.5,-1007.5 435.5,-988.5 373.5,-988.5"/>
<text text-anchor="middle" x="404.5" y="-995.5" font-family="Helvetica,sans-Serif" font-size="10.00">luaB_pcall</text>
</a>
</g>
</g>
<!-- Node387&#45;&gt;Node108 -->
<g id="edge44" class="edge"><title>Node387&#45;&gt;Node108</title>
<path fill="none" stroke="midnightblue" d="M511.037,-984.171C487.246,-987.288 457.418,-991.197 435.547,-994.063"/>
<polygon fill="midnightblue" stroke="midnightblue" points="511.697,-987.615 521.157,-982.845 510.787,-980.674 511.697,-987.615"/>
</g>
<!-- Node148 -->
<g id="node42" class="node"><title>Node148</title>
<g id="a_node42"><a xlink:href="lbaselib_8c.html#a5fbb0094fa1a56f0a4c2547f1ec4c5ab" target="_top" xlink:title=" ">
<polygon fill="white" stroke="black" points="371,-950.5 371,-969.5 438,-969.5 438,-950.5 371,-950.5"/>
<text text-anchor="middle" x="404.5" y="-957.5" font-family="Helvetica,sans-Serif" font-size="10.00">luaB_xpcall</text>
</a>
</g>
</g>
<!-- Node387&#45;&gt;Node148 -->
<g id="edge45" class="edge"><title>Node387&#45;&gt;Node148</title>
<path fill="none" stroke="midnightblue" d="M511.079,-973.834C488.188,-970.835 459.697,-967.102 438.083,-964.27"/>
<polygon fill="midnightblue" stroke="midnightblue" points="510.787,-977.326 521.157,-975.155 511.697,-970.385 510.787,-977.326"/>
</g>
<!-- Node193 -->
<g id="node44" class="node"><title>Node193</title>
<g id="a_node44"><a xlink:href="lua_8h.html#a3f4c1ed5e0bd437dc527d62c5768b463" target="_top" xlink:title=" ">
<polygon fill="white" stroke="black" points="378,-57.5 378,-76.5 431,-76.5 431,-57.5 378,-57.5"/>
<text text-anchor="middle" x="404.5" y="-64.5" font-family="Helvetica,sans-Serif" font-size="10.00">lua_load</text>
</a>
</g>
</g>
<!-- Node192&#45;&gt;Node193 -->
<g id="edge47" class="edge"><title>Node192&#45;&gt;Node193</title>
<path fill="none" stroke="midnightblue" d="M545.233,-580.639C521.575,-493.675 425.532,-140.634 408.19,-76.8894"/>
<polygon fill="midnightblue" stroke="midnightblue" points="541.857,-581.563 547.859,-590.294 548.612,-579.726 541.857,-581.563"/>
</g>
<!-- Node193&#45;&gt;Node33 -->
<g id="edge48" class="edge"><title>Node193&#45;&gt;Node33</title>
<path fill="none" stroke="midnightblue" d="M367.715,-64.3698C315.967,-60.5663 221.256,-53.6049 173.761,-50.1139"/>
<polygon fill="midnightblue" stroke="midnightblue" points="367.539,-67.8662 377.769,-65.1087 368.052,-60.885 367.539,-67.8662"/>
</g>
<!-- Node193&#45;&gt;Node40 -->
<g id="edge51" class="edge"><title>Node193&#45;&gt;Node40</title>
<path fill="none" stroke="midnightblue" d="M367.981,-71.8377C347.393,-74.6418 321.513,-78.1667 300.723,-80.9983"/>
<polygon fill="midnightblue" stroke="midnightblue" points="368.477,-75.3025 377.914,-70.4849 367.533,-68.3665 368.477,-75.3025"/>
</g>
<!-- Node194 -->
<g id="node45" class="node"><title>Node194</title>
<g id="a_node45"><a xlink:href="lauxlib_8h.html#a3ab1955dd9322cf03e2d3626ebfae669" target="_top" xlink:title=" ">
<polygon fill="white" stroke="black" points="220,-0.5 220,-19.5 306,-19.5 306,-0.5 220,-0.5"/>
<text text-anchor="middle" x="263" y="-7.5" font-family="Helvetica,sans-Serif" font-size="10.00">luaL_loadbufferx</text>
</a>
</g>
</g>
<!-- Node193&#45;&gt;Node194 -->
<g id="edge49" class="edge"><title>Node193&#45;&gt;Node194</title>
<path fill="none" stroke="midnightblue" d="M370.85,-53.6591C345.265,-43.205 310.286,-28.9126 287.425,-19.5716"/>
<polygon fill="midnightblue" stroke="midnightblue" points="369.57,-56.9169 380.151,-57.4595 372.218,-50.437 369.57,-56.9169"/>
</g>
<!-- Node194&#45;&gt;Node33 -->
<g id="edge50" class="edge"><title>Node194&#45;&gt;Node33</title>
<path fill="none" stroke="midnightblue" d="M222.807,-22.7293C206.744,-27.9465 188.492,-33.8743 173.706,-38.6768"/>
<polygon fill="midnightblue" stroke="midnightblue" points="224.046,-26.0069 232.476,-19.589 221.884,-19.3493 224.046,-26.0069"/>
</g>
<!-- Node637&#45;&gt;Node637 -->
<g id="edge53" class="edge"><title>Node637&#45;&gt;Node637</title>
<path fill="none" stroke="midnightblue" d="M704.369,-695.4C703.009,-700.315 696.219,-704 684,-704 664.449,-704 658.798,-694.565 667.046,-685.757"/>
<polygon fill="midnightblue" stroke="midnightblue" points="707.592,-694.015 700.954,-685.757 700.993,-696.352 707.592,-694.015"/>
</g>
</g>
</svg>
