<?xml version="1.0" encoding="UTF-8" standalone="no"?>
<!DOCTYPE svg PUBLIC "-//W3C//DTD SVG 1.1//EN"
 "http://www.w3.org/Graphics/SVG/1.1/DTD/svg11.dtd">
<!-- Generated by graphviz version 2.38.0 (20140413.2041)
 -->
<!-- Title: lfunc.c Pages: 1 -->
<svg width="578pt" height="476pt"
 viewBox="0.00 0.00 578.00 476.00" xmlns="http://www.w3.org/2000/svg" xmlns:xlink="http://www.w3.org/1999/xlink">
<g id="graph0" class="graph" transform="scale(1 1) rotate(0) translate(4 472)">
<title>lfunc.c</title>
<polygon fill="white" stroke="none" points="-4,4 -4,-472 574,-472 574,4 -4,4"/>
<!-- Node1 -->
<g id="node1" class="node"><title>Node1</title>
<g id="a_node1"><a xlink:title=" ">
<polygon fill="#bfbfbf" stroke="black" points="300.5,-448.5 300.5,-467.5 345.5,-467.5 345.5,-448.5 300.5,-448.5"/>
<text text-anchor="middle" x="323" y="-455.5" font-family="Helvetica,sans-Serif" font-size="10.00">lfunc.c</text>
</a>
</g>
</g>
<!-- Node2 -->
<g id="node2" class="node"><title>Node2</title>
<g id="a_node2"><a xlink:href="lprefix_8h.html" target="_top" xlink:title=" ">
<polygon fill="white" stroke="black" points="0,-392.5 0,-411.5 50,-411.5 50,-392.5 0,-392.5"/>
<text text-anchor="middle" x="25" y="-399.5" font-family="Helvetica,sans-Serif" font-size="10.00">lprefix.h</text>
</a>
</g>
</g>
<!-- Node1&#45;&gt;Node2 -->
<g id="edge1" class="edge"><title>Node1&#45;&gt;Node2</title>
<path fill="none" stroke="midnightblue" d="M300.404,-453.501C255.311,-446.425 151.009,-429.584 64,-412 62.7357,-411.744 61.4497,-411.479 60.1518,-411.205"/>
<polygon fill="midnightblue" stroke="midnightblue" points="60.6484,-407.731 50.1313,-409.013 59.1518,-414.57 60.6484,-407.731"/>
</g>
<!-- Node3 -->
<g id="node3" class="node"><title>Node3</title>
<g id="a_node3"><a xlink:title=" ">
<polygon fill="white" stroke="#bfbfbf" points="430.5,-0.5 430.5,-19.5 481.5,-19.5 481.5,-0.5 430.5,-0.5"/>
<text text-anchor="middle" x="456" y="-7.5" font-family="Helvetica,sans-Serif" font-size="10.00">stddef.h</text>
</a>
</g>
</g>
<!-- Node1&#45;&gt;Node3 -->
<g id="edge2" class="edge"><title>Node1&#45;&gt;Node3</title>
<path fill="none" stroke="midnightblue" d="M345.794,-457.147C406.941,-456.232 570,-444.64 570,-347 570,-347 570,-347 570,-121 570,-74.1149 519.448,-40.8944 485.671,-23.9302"/>
<polygon fill="midnightblue" stroke="midnightblue" points="487.172,-20.7687 476.645,-19.5787 484.132,-27.0742 487.172,-20.7687"/>
</g>
<!-- Node4 -->
<g id="node4" class="node"><title>Node4</title>
<g id="a_node4"><a xlink:href="lua_8h.html" target="_top" xlink:title=" ">
<polygon fill="white" stroke="black" points="380,-112.5 380,-131.5 418,-131.5 418,-112.5 380,-112.5"/>
<text text-anchor="middle" x="399" y="-119.5" font-family="Helvetica,sans-Serif" font-size="10.00">lua.h</text>
</a>
</g>
</g>
<!-- Node1&#45;&gt;Node4 -->
<g id="edge3" class="edge"><title>Node1&#45;&gt;Node4</title>
<path fill="none" stroke="midnightblue" d="M345.765,-455.547C399.933,-450.733 532,-430.442 532,-347 532,-347 532,-347 532,-233 532,-179.248 466.696,-146.815 427.607,-132.217"/>
<polygon fill="midnightblue" stroke="midnightblue" points="428.65,-128.873 418.056,-128.808 426.297,-135.466 428.65,-128.873"/>
</g>
<!-- Node8 -->
<g id="node8" class="node"><title>Node8</title>
<g id="a_node8"><a xlink:href="ldebug_8h.html" target="_top" xlink:title=" ">
<polygon fill="white" stroke="black" points="269.5,-392.5 269.5,-411.5 322.5,-411.5 322.5,-392.5 269.5,-392.5"/>
<text text-anchor="middle" x="296" y="-399.5" font-family="Helvetica,sans-Serif" font-size="10.00">ldebug.h</text>
</a>
</g>
</g>
<!-- Node1&#45;&gt;Node8 -->
<g id="edge9" class="edge"><title>Node1&#45;&gt;Node8</title>
<path fill="none" stroke="midnightblue" d="M318.541,-448.083C314.846,-440.691 309.477,-429.953 304.906,-420.811"/>
<polygon fill="midnightblue" stroke="midnightblue" points="307.978,-419.13 300.376,-411.751 301.717,-422.261 307.978,-419.13"/>
</g>
<!-- Node9 -->
<g id="node9" class="node"><title>Node9</title>
<g id="a_node9"><a xlink:href="lstate_8h.html" target="_top" xlink:title=" ">
<polygon fill="white" stroke="black" points="282.5,-336.5 282.5,-355.5 331.5,-355.5 331.5,-336.5 282.5,-336.5"/>
<text text-anchor="middle" x="307" y="-343.5" font-family="Helvetica,sans-Serif" font-size="10.00">lstate.h</text>
</a>
</g>
</g>
<!-- Node1&#45;&gt;Node9 -->
<g id="edge39" class="edge"><title>Node1&#45;&gt;Node9</title>
<path fill="none" stroke="midnightblue" d="M326.269,-448.464C330.605,-435.921 337.144,-411.851 332,-392 329.454,-382.175 324.247,-372.212 319.241,-364.166"/>
<polygon fill="midnightblue" stroke="midnightblue" points="322.08,-362.114 313.629,-355.725 316.251,-365.99 322.08,-362.114"/>
</g>
<!-- Node10 -->
<g id="node10" class="node"><title>Node10</title>
<g id="a_node10"><a xlink:href="lobject_8h.html" target="_top" xlink:title=" ">
<polygon fill="white" stroke="black" points="171.5,-224.5 171.5,-243.5 224.5,-243.5 224.5,-224.5 171.5,-224.5"/>
<text text-anchor="middle" x="198" y="-231.5" font-family="Helvetica,sans-Serif" font-size="10.00">lobject.h</text>
</a>
</g>
</g>
<!-- Node1&#45;&gt;Node10 -->
<g id="edge38" class="edge"><title>Node1&#45;&gt;Node10</title>
<path fill="none" stroke="midnightblue" d="M300.149,-455.543C250.845,-450.968 135.808,-432.21 97,-356 74.3925,-311.604 135.031,-269.153 171.939,-248.338"/>
<polygon fill="midnightblue" stroke="midnightblue" points="173.65,-251.391 180.746,-243.523 170.293,-245.249 173.65,-251.391"/>
</g>
<!-- Node14 -->
<g id="node14" class="node"><title>Node14</title>
<g id="a_node14"><a xlink:href="lmem_8h.html" target="_top" xlink:title=" ">
<polygon fill="white" stroke="black" points="427.5,-224.5 427.5,-243.5 476.5,-243.5 476.5,-224.5 427.5,-224.5"/>
<text text-anchor="middle" x="452" y="-231.5" font-family="Helvetica,sans-Serif" font-size="10.00">lmem.h</text>
</a>
</g>
</g>
<!-- Node1&#45;&gt;Node14 -->
<g id="edge37" class="edge"><title>Node1&#45;&gt;Node14</title>
<path fill="none" stroke="midnightblue" d="M345.845,-452.184C368.769,-446.283 403.779,-434.21 426,-412 464.429,-373.59 463.875,-353.182 475,-300 476.82,-291.299 477.081,-288.642 475,-280 472.693,-270.418 467.983,-260.581 463.422,-252.558"/>
<polygon fill="midnightblue" stroke="midnightblue" points="466.289,-250.537 458.105,-243.809 460.308,-254.173 466.289,-250.537"/>
</g>
<!-- Node16 -->
<g id="node16" class="node"><title>Node16</title>
<g id="a_node16"><a xlink:href="ldo_8h.html" target="_top" xlink:title=" ">
<polygon fill="white" stroke="black" points="379,-392.5 379,-411.5 417,-411.5 417,-392.5 379,-392.5"/>
<text text-anchor="middle" x="398" y="-399.5" font-family="Helvetica,sans-Serif" font-size="10.00">ldo.h</text>
</a>
</g>
</g>
<!-- Node1&#45;&gt;Node16 -->
<g id="edge28" class="edge"><title>Node1&#45;&gt;Node16</title>
<path fill="none" stroke="midnightblue" d="M335.05,-448.324C346.463,-440.107 363.831,-427.602 377.435,-417.807"/>
<polygon fill="midnightblue" stroke="midnightblue" points="379.66,-420.517 385.731,-411.834 375.57,-414.837 379.66,-420.517"/>
</g>
<!-- Node17 -->
<g id="node17" class="node"><title>Node17</title>
<g id="a_node17"><a xlink:href="lfunc_8h.html" target="_top" xlink:title=" ">
<polygon fill="white" stroke="black" points="106.5,-336.5 106.5,-355.5 151.5,-355.5 151.5,-336.5 106.5,-336.5"/>
<text text-anchor="middle" x="129" y="-343.5" font-family="Helvetica,sans-Serif" font-size="10.00">lfunc.h</text>
</a>
</g>
</g>
<!-- Node1&#45;&gt;Node17 -->
<g id="edge32" class="edge"><title>Node1&#45;&gt;Node17</title>
<path fill="none" stroke="midnightblue" d="M300.445,-451.061C275.687,-443.966 235.3,-430.669 204,-412 181.026,-398.297 158.334,-377.309 144.031,-362.911"/>
<polygon fill="midnightblue" stroke="midnightblue" points="146.48,-360.409 136.999,-355.679 141.461,-365.288 146.48,-360.409"/>
</g>
<!-- Node18 -->
<g id="node18" class="node"><title>Node18</title>
<g id="a_node18"><a xlink:href="lgc_8h.html" target="_top" xlink:title=" ">
<polygon fill="white" stroke="black" points="213,-392.5 213,-411.5 251,-411.5 251,-392.5 213,-392.5"/>
<text text-anchor="middle" x="232" y="-399.5" font-family="Helvetica,sans-Serif" font-size="10.00">lgc.h</text>
</a>
</g>
</g>
<!-- Node1&#45;&gt;Node18 -->
<g id="edge34" class="edge"><title>Node1&#45;&gt;Node18</title>
<path fill="none" stroke="midnightblue" d="M308.379,-448.324C294.051,-439.822 271.987,-426.729 255.251,-416.797"/>
<polygon fill="midnightblue" stroke="midnightblue" points="256.97,-413.748 246.584,-411.655 253.398,-419.768 256.97,-413.748"/>
</g>
<!-- Node4&#45;&gt;Node3 -->
<g id="edge5" class="edge"><title>Node4&#45;&gt;Node3</title>
<path fill="none" stroke="midnightblue" d="M408.41,-112.198C416.993,-103.689 429.453,-90.0534 437,-76 444.822,-61.4342 449.784,-43.2572 452.667,-29.8316"/>
<polygon fill="midnightblue" stroke="midnightblue" points="456.134,-30.341 454.618,-19.8552 449.264,-28.9978 456.134,-30.341"/>
</g>
<!-- Node5 -->
<g id="node5" class="node"><title>Node5</title>
<g id="a_node5"><a xlink:title=" ">
<polygon fill="white" stroke="#bfbfbf" points="302,-56.5 302,-75.5 354,-75.5 354,-56.5 302,-56.5"/>
<text text-anchor="middle" x="328" y="-63.5" font-family="Helvetica,sans-Serif" font-size="10.00">stdarg.h</text>
</a>
</g>
</g>
<!-- Node4&#45;&gt;Node5 -->
<g id="edge4" class="edge"><title>Node4&#45;&gt;Node5</title>
<path fill="none" stroke="midnightblue" d="M387.593,-112.324C376.891,-104.185 360.659,-91.8395 347.837,-82.0874"/>
<polygon fill="midnightblue" stroke="midnightblue" points="349.693,-79.1018 339.615,-75.8339 345.456,-84.6734 349.693,-79.1018"/>
</g>
<!-- Node6 -->
<g id="node6" class="node"><title>Node6</title>
<g id="a_node6"><a xlink:href="luaconf_8h.html" target="_top" xlink:title=" ">
<polygon fill="white" stroke="black" points="372,-56.5 372,-75.5 428,-75.5 428,-56.5 372,-56.5"/>
<text text-anchor="middle" x="400" y="-63.5" font-family="Helvetica,sans-Serif" font-size="10.00">luaconf.h</text>
</a>
</g>
</g>
<!-- Node4&#45;&gt;Node6 -->
<g id="edge6" class="edge"><title>Node4&#45;&gt;Node6</title>
<path fill="none" stroke="midnightblue" d="M399.165,-112.083C399.296,-105.006 399.484,-94.8611 399.648,-85.9865"/>
<polygon fill="midnightblue" stroke="midnightblue" points="403.152,-85.8142 399.838,-75.7511 396.153,-85.6845 403.152,-85.8142"/>
</g>
<!-- Node6&#45;&gt;Node3 -->
<g id="edge8" class="edge"><title>Node6&#45;&gt;Node3</title>
<path fill="none" stroke="midnightblue" d="M408.997,-56.324C417.194,-48.4196 429.506,-36.5482 439.472,-26.9377"/>
<polygon fill="midnightblue" stroke="midnightblue" points="442.07,-29.2947 446.839,-19.8339 437.211,-24.2558 442.07,-29.2947"/>
</g>
<!-- Node7 -->
<g id="node7" class="node"><title>Node7</title>
<g id="a_node7"><a xlink:title=" ">
<polygon fill="white" stroke="#bfbfbf" points="288,-0.5 288,-19.5 336,-19.5 336,-0.5 288,-0.5"/>
<text text-anchor="middle" x="312" y="-7.5" font-family="Helvetica,sans-Serif" font-size="10.00">limits.h</text>
</a>
</g>
</g>
<!-- Node6&#45;&gt;Node7 -->
<g id="edge7" class="edge"><title>Node6&#45;&gt;Node7</title>
<path fill="none" stroke="midnightblue" d="M385.861,-56.324C372.134,-47.9002 351.064,-34.9709 334.936,-25.0741"/>
<polygon fill="midnightblue" stroke="midnightblue" points="336.457,-21.9016 326.104,-19.6545 332.796,-27.8678 336.457,-21.9016"/>
</g>
<!-- Node8&#45;&gt;Node9 -->
<g id="edge10" class="edge"><title>Node8&#45;&gt;Node9</title>
<path fill="none" stroke="midnightblue" d="M297.816,-392.083C299.274,-384.927 301.371,-374.635 303.193,-365.691"/>
<polygon fill="midnightblue" stroke="midnightblue" points="306.651,-366.248 305.217,-355.751 299.792,-364.851 306.651,-366.248"/>
</g>
<!-- Node9&#45;&gt;Node4 -->
<g id="edge11" class="edge"><title>Node9&#45;&gt;Node4</title>
<path fill="none" stroke="midnightblue" d="M314.981,-336.292C322.56,-327.638 333.83,-313.709 341,-300 369.419,-245.659 387.561,-174.697 395.057,-141.56"/>
<polygon fill="midnightblue" stroke="midnightblue" points="398.539,-142.023 397.264,-131.505 391.702,-140.522 398.539,-142.023"/>
</g>
<!-- Node9&#45;&gt;Node10 -->
<g id="edge12" class="edge"><title>Node9&#45;&gt;Node10</title>
<path fill="none" stroke="midnightblue" d="M282.126,-338.589C261.808,-332.106 233.796,-320.113 217,-300 206.059,-286.898 201.417,-267.75 199.448,-253.629"/>
<polygon fill="midnightblue" stroke="midnightblue" points="202.918,-253.163 198.373,-243.592 195.958,-253.908 202.918,-253.163"/>
</g>
<!-- Node12 -->
<g id="node12" class="node"><title>Node12</title>
<g id="a_node12"><a xlink:href="ltm_8h.html" target="_top" xlink:title=" ">
<polygon fill="white" stroke="black" points="226,-280.5 226,-299.5 264,-299.5 264,-280.5 226,-280.5"/>
<text text-anchor="middle" x="245" y="-287.5" font-family="Helvetica,sans-Serif" font-size="10.00">ltm.h</text>
</a>
</g>
</g>
<!-- Node9&#45;&gt;Node12 -->
<g id="edge19" class="edge"><title>Node9&#45;&gt;Node12</title>
<path fill="none" stroke="midnightblue" d="M297.039,-336.324C287.873,-328.341 274.063,-316.313 262.972,-306.653"/>
<polygon fill="midnightblue" stroke="midnightblue" points="264.982,-303.762 255.143,-299.834 260.385,-309.041 264.982,-303.762"/>
</g>
<!-- Node13 -->
<g id="node13" class="node"><title>Node13</title>
<g id="a_node13"><a xlink:href="lzio_8h.html" target="_top" xlink:title=" ">
<polygon fill="white" stroke="black" points="426,-280.5 426,-299.5 466,-299.5 466,-280.5 426,-280.5"/>
<text text-anchor="middle" x="446" y="-287.5" font-family="Helvetica,sans-Serif" font-size="10.00">lzio.h</text>
</a>
</g>
</g>
<!-- Node9&#45;&gt;Node13 -->
<g id="edge21" class="edge"><title>Node9&#45;&gt;Node13</title>
<path fill="none" stroke="midnightblue" d="M329.025,-336.444C352.647,-327.267 390.285,-312.645 416.464,-302.474"/>
<polygon fill="midnightblue" stroke="midnightblue" points="417.829,-305.699 425.883,-298.815 415.295,-299.174 417.829,-305.699"/>
</g>
<!-- Node15 -->
<g id="node15" class="node"><title>Node15</title>
<g id="a_node15"><a xlink:title=" ">
<polygon fill="white" stroke="#bfbfbf" points="282,-280.5 282,-299.5 332,-299.5 332,-280.5 282,-280.5"/>
<text text-anchor="middle" x="307" y="-287.5" font-family="Helvetica,sans-Serif" font-size="10.00">signal.h</text>
</a>
</g>
</g>
<!-- Node9&#45;&gt;Node15 -->
<g id="edge27" class="edge"><title>Node9&#45;&gt;Node15</title>
<path fill="none" stroke="midnightblue" d="M307,-336.083C307,-329.006 307,-318.861 307,-309.986"/>
<polygon fill="midnightblue" stroke="midnightblue" points="310.5,-309.751 307,-299.751 303.5,-309.751 310.5,-309.751"/>
</g>
<!-- Node10&#45;&gt;Node4 -->
<g id="edge18" class="edge"><title>Node10&#45;&gt;Node4</title>
<path fill="none" stroke="midnightblue" d="M221.538,-224.396C243.221,-216.127 276.023,-202.739 303,-188 330.905,-172.754 360.928,-151.572 379.828,-137.585"/>
<polygon fill="midnightblue" stroke="midnightblue" points="382.007,-140.326 387.919,-131.534 377.815,-134.721 382.007,-140.326"/>
</g>
<!-- Node10&#45;&gt;Node5 -->
<g id="edge13" class="edge"><title>Node10&#45;&gt;Node5</title>
<path fill="none" stroke="midnightblue" d="M202.202,-224.206C208.522,-211.342 221.214,-186.874 235,-168 258.848,-135.349 291.924,-101.623 311.529,-82.5828"/>
<polygon fill="midnightblue" stroke="midnightblue" points="314.02,-85.0428 318.805,-75.5902 309.17,-79.9956 314.02,-85.0428"/>
</g>
<!-- Node11 -->
<g id="node11" class="node"><title>Node11</title>
<g id="a_node11"><a xlink:href="llimits_8h.html" target="_top" xlink:title=" ">
<polygon fill="white" stroke="black" points="244,-168.5 244,-187.5 294,-187.5 294,-168.5 244,-168.5"/>
<text text-anchor="middle" x="269" y="-175.5" font-family="Helvetica,sans-Serif" font-size="10.00">llimits.h</text>
</a>
</g>
</g>
<!-- Node10&#45;&gt;Node11 -->
<g id="edge14" class="edge"><title>Node10&#45;&gt;Node11</title>
<path fill="none" stroke="midnightblue" d="M209.407,-224.324C220.109,-216.185 236.341,-203.839 249.163,-194.087"/>
<polygon fill="midnightblue" stroke="midnightblue" points="251.544,-196.673 257.385,-187.834 247.307,-191.102 251.544,-196.673"/>
</g>
<!-- Node11&#45;&gt;Node3 -->
<g id="edge16" class="edge"><title>Node11&#45;&gt;Node3</title>
<path fill="none" stroke="midnightblue" d="M267.92,-168.336C265.704,-146.407 263.118,-88.1648 293,-56 325.553,-20.9597 382.688,-12.2934 419.933,-10.6238"/>
<polygon fill="midnightblue" stroke="midnightblue" points="420.447,-14.1103 430.339,-10.3153 420.239,-7.11333 420.447,-14.1103"/>
</g>
<!-- Node11&#45;&gt;Node4 -->
<g id="edge17" class="edge"><title>Node11&#45;&gt;Node4</title>
<path fill="none" stroke="midnightblue" d="M289.599,-168.444C311.371,-159.4 345.874,-145.068 370.304,-134.92"/>
<polygon fill="midnightblue" stroke="midnightblue" points="371.877,-138.057 379.769,-130.988 369.191,-131.592 371.877,-138.057"/>
</g>
<!-- Node11&#45;&gt;Node7 -->
<g id="edge15" class="edge"><title>Node11&#45;&gt;Node7</title>
<path fill="none" stroke="midnightblue" d="M265.606,-168.286C258.141,-147.664 242.311,-94.7003 260,-56 265.777,-43.3602 277.052,-32.911 287.631,-25.2737"/>
<polygon fill="midnightblue" stroke="midnightblue" points="289.849,-28.0009 296.217,-19.5333 285.958,-22.1817 289.849,-28.0009"/>
</g>
<!-- Node12&#45;&gt;Node10 -->
<g id="edge20" class="edge"><title>Node12&#45;&gt;Node10</title>
<path fill="none" stroke="midnightblue" d="M237.239,-280.083C230.463,-272.298 220.457,-260.801 212.245,-251.367"/>
<polygon fill="midnightblue" stroke="midnightblue" points="214.822,-248.996 205.617,-243.751 209.542,-253.592 214.822,-248.996"/>
</g>
<!-- Node13&#45;&gt;Node4 -->
<g id="edge22" class="edge"><title>Node13&#45;&gt;Node4</title>
<path fill="none" stroke="midnightblue" d="M439.342,-280.206C433.086,-271.487 423.965,-257.512 419,-244 406.258,-209.321 401.601,-166.063 399.922,-141.788"/>
<polygon fill="midnightblue" stroke="midnightblue" points="403.416,-141.568 399.329,-131.793 396.428,-141.983 403.416,-141.568"/>
</g>
<!-- Node13&#45;&gt;Node14 -->
<g id="edge23" class="edge"><title>Node13&#45;&gt;Node14</title>
<path fill="none" stroke="midnightblue" d="M446.991,-280.083C447.786,-272.927 448.929,-262.635 449.923,-253.691"/>
<polygon fill="midnightblue" stroke="midnightblue" points="453.402,-254.076 451.028,-243.751 446.445,-253.303 453.402,-254.076"/>
</g>
<!-- Node14&#45;&gt;Node3 -->
<g id="edge24" class="edge"><title>Node14&#45;&gt;Node3</title>
<path fill="none" stroke="midnightblue" d="M452.174,-224.491C452.653,-200.906 454.022,-132.696 455,-76 455.268,-60.4646 455.537,-42.8399 455.728,-29.8661"/>
<polygon fill="midnightblue" stroke="midnightblue" points="459.228,-29.8815 455.875,-19.8315 452.229,-29.7794 459.228,-29.8815"/>
</g>
<!-- Node14&#45;&gt;Node4 -->
<g id="edge26" class="edge"><title>Node14&#45;&gt;Node4</title>
<path fill="none" stroke="midnightblue" d="M447.841,-224.368C439.172,-206.376 419.02,-164.55 407.493,-140.627"/>
<polygon fill="midnightblue" stroke="midnightblue" points="410.633,-139.081 403.14,-131.591 404.327,-142.119 410.633,-139.081"/>
</g>
<!-- Node14&#45;&gt;Node11 -->
<g id="edge25" class="edge"><title>Node14&#45;&gt;Node11</title>
<path fill="none" stroke="midnightblue" d="M427.32,-225.717C395.484,-216.323 339.918,-199.927 303.803,-189.27"/>
<polygon fill="midnightblue" stroke="midnightblue" points="304.75,-185.9 294.168,-186.427 302.768,-192.614 304.75,-185.9"/>
</g>
<!-- Node16&#45;&gt;Node9 -->
<g id="edge30" class="edge"><title>Node16&#45;&gt;Node9</title>
<path fill="none" stroke="midnightblue" d="M383.379,-392.324C369.051,-383.822 346.987,-370.729 330.251,-360.797"/>
<polygon fill="midnightblue" stroke="midnightblue" points="331.97,-357.748 321.584,-355.655 328.398,-363.768 331.97,-357.748"/>
</g>
<!-- Node16&#45;&gt;Node10 -->
<g id="edge29" class="edge"><title>Node16&#45;&gt;Node10</title>
<path fill="none" stroke="midnightblue" d="M396.384,-392.234C391.839,-370.065 376.86,-311.307 341,-280 311.143,-253.934 266.205,-242.955 234.694,-238.338"/>
<polygon fill="midnightblue" stroke="midnightblue" points="234.935,-234.84 224.564,-237.004 234.021,-241.78 234.935,-234.84"/>
</g>
<!-- Node16&#45;&gt;Node13 -->
<g id="edge31" class="edge"><title>Node16&#45;&gt;Node13</title>
<path fill="none" stroke="midnightblue" d="M401.766,-392.368C409.583,-374.456 427.706,-332.923 438.168,-308.948"/>
<polygon fill="midnightblue" stroke="midnightblue" points="441.459,-310.157 442.251,-299.591 435.044,-307.357 441.459,-310.157"/>
</g>
<!-- Node17&#45;&gt;Node10 -->
<g id="edge33" class="edge"><title>Node17&#45;&gt;Node10</title>
<path fill="none" stroke="midnightblue" d="M129.629,-336.364C130.924,-323.273 134.784,-298.024 146,-280 153.49,-267.963 165.22,-257.41 175.645,-249.555"/>
<polygon fill="midnightblue" stroke="midnightblue" points="177.863,-252.272 183.974,-243.617 173.799,-246.573 177.863,-252.272"/>
</g>
<!-- Node18&#45;&gt;Node9 -->
<g id="edge36" class="edge"><title>Node18&#45;&gt;Node9</title>
<path fill="none" stroke="midnightblue" d="M244.05,-392.324C255.463,-384.107 272.831,-371.602 286.435,-361.807"/>
<polygon fill="midnightblue" stroke="midnightblue" points="288.66,-364.517 294.731,-355.834 284.57,-358.837 288.66,-364.517"/>
</g>
<!-- Node18&#45;&gt;Node10 -->
<g id="edge35" class="edge"><title>Node18&#45;&gt;Node10</title>
<path fill="none" stroke="midnightblue" d="M228.919,-392.493C222.831,-375.287 209.305,-335.011 203,-300 200.238,-284.665 199.001,-267.025 198.447,-253.995"/>
<polygon fill="midnightblue" stroke="midnightblue" points="201.942,-253.783 198.115,-243.904 194.946,-254.013 201.942,-253.783"/>
</g>
</g>
</svg>
