<?xml version="1.0" encoding="UTF-8" standalone="no"?>
<!DOCTYPE svg PUBLIC "-//W3C//DTD SVG 1.1//EN"
 "http://www.w3.org/Graphics/SVG/1.1/DTD/svg11.dtd">
<!-- Generated by graphviz version 2.38.0 (20140413.2041)
 -->
<!-- Title: luaF_unlinkupval Pages: 1 -->
<svg width="561pt" height="1339pt"
 viewBox="0.00 0.00 561.00 1339.00" xmlns="http://www.w3.org/2000/svg" xmlns:xlink="http://www.w3.org/1999/xlink">
<g id="graph0" class="graph" transform="scale(1 1) rotate(0) translate(4 1335)">
<title>luaF_unlinkupval</title>
<polygon fill="white" stroke="none" points="-4,4 -4,-1335 557,-1335 557,4 -4,4"/>
<!-- Node1 -->
<g id="node1" class="node"><title>Node1</title>
<g id="a_node1"><a xlink:title=" ">
<polygon fill="#bfbfbf" stroke="black" points="465,-769.5 465,-788.5 553,-788.5 553,-769.5 465,-769.5"/>
<text text-anchor="middle" x="509" y="-776.5" font-family="Helvetica,sans-Serif" font-size="10.00">luaF_unlinkupval</text>
</a>
</g>
</g>
<!-- Node2 -->
<g id="node2" class="node"><title>Node2</title>
<g id="a_node2"><a xlink:href="lgc_8c.html#a41b4adb59140172e2cd717fb921cd372" target="_top" xlink:title=" ">
<polygon fill="white" stroke="black" points="370,-950.5 370,-969.5 424,-969.5 424,-950.5 370,-950.5"/>
<text text-anchor="middle" x="397" y="-957.5" font-family="Helvetica,sans-Serif" font-size="10.00">freeupval</text>
</a>
</g>
</g>
<!-- Node1&#45;&gt;Node2 -->
<g id="edge1" class="edge"><title>Node1&#45;&gt;Node2</title>
<path fill="none" stroke="midnightblue" d="M496.607,-797.747C473.433,-835.878 421.514,-921.308 403.943,-950.221"/>
<polygon fill="midnightblue" stroke="midnightblue" points="499.883,-799.095 502.086,-788.731 493.901,-795.459 499.883,-799.095"/>
</g>
<!-- Node550 -->
<g id="node8" class="node"><title>Node550</title>
<g id="a_node8"><a xlink:href="lfunc_8h.html#add62dd4cd3a4c06e0cc322915196c5f3" target="_top" xlink:title=" ">
<polygon fill="white" stroke="black" points="365,-589.5 365,-608.5 429,-608.5 429,-589.5 365,-589.5"/>
<text text-anchor="middle" x="397" y="-596.5" font-family="Helvetica,sans-Serif" font-size="10.00">luaF_close</text>
</a>
</g>
</g>
<!-- Node1&#45;&gt;Node550 -->
<g id="edge7" class="edge"><title>Node1&#45;&gt;Node550</title>
<path fill="none" stroke="midnightblue" d="M496.607,-760.357C473.433,-722.436 421.514,-637.478 403.943,-608.725"/>
<polygon fill="midnightblue" stroke="midnightblue" points="493.885,-762.615 502.086,-769.322 499.858,-758.964 493.885,-762.615"/>
</g>
<!-- Node3 -->
<g id="node3" class="node"><title>Node3</title>
<g id="a_node3"><a xlink:href="lgc_8c.html#aa198d7da2a8502ed70adfe1f7ed38f46" target="_top" xlink:title=" ">
<polygon fill="white" stroke="black" points="134,-1254.5 134,-1273.5 179,-1273.5 179,-1254.5 134,-1254.5"/>
<text text-anchor="middle" x="156.5" y="-1261.5" font-family="Helvetica,sans-Serif" font-size="10.00">freeobj</text>
</a>
</g>
</g>
<!-- Node2&#45;&gt;Node3 -->
<g id="edge2" class="edge"><title>Node2&#45;&gt;Node3</title>
<path fill="none" stroke="midnightblue" d="M394.27,-979.687C388.7,-1038.23 369.21,-1209.37 329,-1245 287.075,-1282.15 214.89,-1275.17 179.023,-1268.7"/>
<polygon fill="midnightblue" stroke="midnightblue" points="397.771,-979.832 395.2,-969.554 390.8,-979.192 397.771,-979.832"/>
</g>
<!-- Node4 -->
<g id="node4" class="node"><title>Node4</title>
<g id="a_node4"><a xlink:href="lgc_8c.html#af9982b911970c350d2a8c071f7c90fb1" target="_top" xlink:title=" ">
<polygon fill="white" stroke="red" points="6,-1311.5 6,-1330.5 62,-1330.5 62,-1311.5 6,-1311.5"/>
<text text-anchor="middle" x="34" y="-1318.5" font-family="Helvetica,sans-Serif" font-size="10.00">deletelist</text>
</a>
</g>
</g>
<!-- Node3&#45;&gt;Node4 -->
<g id="edge3" class="edge"><title>Node3&#45;&gt;Node4</title>
<path fill="none" stroke="midnightblue" d="M126.121,-1277.9C104.135,-1288.3 74.6339,-1302.25 55.2348,-1311.43"/>
<polygon fill="midnightblue" stroke="midnightblue" points="127.788,-1280.98 135.331,-1273.54 124.795,-1274.65 127.788,-1280.98"/>
</g>
<!-- Node13 -->
<g id="node5" class="node"><title>Node13</title>
<g id="a_node5"><a xlink:href="lgc_8c.html#a85b353f49bd76eb0199fa5966ee37895" target="_top" xlink:title=" ">
<polygon fill="white" stroke="red" points="3,-1273.5 3,-1292.5 65,-1292.5 65,-1273.5 3,-1273.5"/>
<text text-anchor="middle" x="34" y="-1280.5" font-family="Helvetica,sans-Serif" font-size="10.00">sweep2old</text>
</a>
</g>
</g>
<!-- Node3&#45;&gt;Node13 -->
<g id="edge4" class="edge"><title>Node3&#45;&gt;Node13</title>
<path fill="none" stroke="midnightblue" d="M123.904,-1268.98C105.833,-1271.83 83.2791,-1275.39 65.4097,-1278.21"/>
<polygon fill="midnightblue" stroke="midnightblue" points="124.624,-1272.41 133.957,-1267.4 123.534,-1265.5 124.624,-1272.41"/>
</g>
<!-- Node648 -->
<g id="node6" class="node"><title>Node648</title>
<g id="a_node6"><a xlink:href="lgc_8c.html#ad2640fd798d0468b3832b8b64f1c94f1" target="_top" xlink:title=" ">
<polygon fill="white" stroke="red" points="4,-1235.5 4,-1254.5 64,-1254.5 64,-1235.5 4,-1235.5"/>
<text text-anchor="middle" x="34" y="-1242.5" font-family="Helvetica,sans-Serif" font-size="10.00">sweepgen</text>
</a>
</g>
</g>
<!-- Node3&#45;&gt;Node648 -->
<g id="edge5" class="edge"><title>Node3&#45;&gt;Node648</title>
<path fill="none" stroke="midnightblue" d="M123.937,-1259.02C105.4,-1256.1 82.1386,-1252.43 64.0545,-1249.58"/>
<polygon fill="midnightblue" stroke="midnightblue" points="123.534,-1262.5 133.957,-1260.6 124.624,-1255.59 123.534,-1262.5"/>
</g>
<!-- Node649 -->
<g id="node7" class="node"><title>Node649</title>
<g id="a_node7"><a xlink:href="lgc_8c.html#a88abd139efb3d69379bf4ee92b84a65d" target="_top" xlink:title=" ">
<polygon fill="white" stroke="red" points="5.5,-1197.5 5.5,-1216.5 62.5,-1216.5 62.5,-1197.5 5.5,-1197.5"/>
<text text-anchor="middle" x="34" y="-1204.5" font-family="Helvetica,sans-Serif" font-size="10.00">sweeplist</text>
</a>
</g>
</g>
<!-- Node3&#45;&gt;Node649 -->
<g id="edge6" class="edge"><title>Node3&#45;&gt;Node649</title>
<path fill="none" stroke="midnightblue" d="M124.306,-1253.35C117.534,-1250.8 110.465,-1247.95 104,-1245 93.8616,-1240.37 68.6605,-1226.23 51.6883,-1216.57"/>
<polygon fill="midnightblue" stroke="midnightblue" points="123.317,-1256.71 133.911,-1256.85 125.715,-1250.13 123.317,-1256.71"/>
</g>
<!-- Node6 -->
<g id="node9" class="node"><title>Node6</title>
<g id="a_node9"><a xlink:href="lstate_8c.html#a4940327dfa3b86df0ef008180bb3fcb3" target="_top" xlink:title=" ">
<polygon fill="white" stroke="black" points="253.5,-1178.5 253.5,-1197.5 320.5,-1197.5 320.5,-1178.5 253.5,-1178.5"/>
<text text-anchor="middle" x="287" y="-1185.5" font-family="Helvetica,sans-Serif" font-size="10.00">close_state</text>
</a>
</g>
</g>
<!-- Node550&#45;&gt;Node6 -->
<g id="edge8" class="edge"><title>Node550&#45;&gt;Node6</title>
<path fill="none" stroke="midnightblue" d="M394.119,-618.512C385.355,-708.632 348.141,-1082.29 329,-1131 321.688,-1149.61 306.918,-1167.77 297.247,-1178.42"/>
<polygon fill="midnightblue" stroke="midnightblue" points="397.603,-618.843 395.084,-608.552 390.636,-618.168 397.603,-618.843"/>
</g>
<!-- Node551 -->
<g id="node12" class="node"><title>Node551</title>
<g id="a_node12"><a xlink:href="lua_8h.html#ac774e7acb4416363aa205bf4caf06f67" target="_top" xlink:title=" ">
<polygon fill="white" stroke="black" points="245.5,-1102.5 245.5,-1121.5 328.5,-1121.5 328.5,-1102.5 245.5,-1102.5"/>
<text text-anchor="middle" x="287" y="-1109.5" font-family="Helvetica,sans-Serif" font-size="10.00">lua_resetthread</text>
</a>
</g>
</g>
<!-- Node550&#45;&gt;Node551 -->
<g id="edge11" class="edge"><title>Node550&#45;&gt;Node551</title>
<path fill="none" stroke="midnightblue" d="M391.848,-618.721C373.882,-704.061 303.152,-1040.03 290.083,-1102.11"/>
<polygon fill="midnightblue" stroke="midnightblue" points="395.304,-619.296 393.939,-608.79 388.454,-617.854 395.304,-619.296"/>
</g>
<!-- Node552 -->
<g id="node15" class="node"><title>Node552</title>
<g id="a_node15"><a xlink:href="lua_8h.html#a6cb9c62b9d85b1ad2a04d72bcb733816" target="_top" xlink:title=" ">
<polygon fill="white" stroke="red" points="256,-608.5 256,-627.5 318,-627.5 318,-608.5 256,-608.5"/>
<text text-anchor="middle" x="287" y="-615.5" font-family="Helvetica,sans-Serif" font-size="10.00">lua_settop</text>
</a>
</g>
</g>
<!-- Node550&#45;&gt;Node552 -->
<g id="edge14" class="edge"><title>Node550&#45;&gt;Node552</title>
<path fill="none" stroke="midnightblue" d="M354.777,-606.252C342.561,-608.401 329.419,-610.713 318.053,-612.713"/>
<polygon fill="midnightblue" stroke="midnightblue" points="355.52,-609.675 364.762,-604.496 354.307,-602.781 355.52,-609.675"/>
</g>
<!-- Node555 -->
<g id="node45" class="node"><title>Node555</title>
<g id="a_node45"><a xlink:href="ldo_8h.html#ad1087faa52e2bb98c00806ea1ac198a6" target="_top" xlink:title=" ">
<polygon fill="white" stroke="red" points="256,-570.5 256,-589.5 318,-589.5 318,-570.5 256,-570.5"/>
<text text-anchor="middle" x="287" y="-577.5" font-family="Helvetica,sans-Serif" font-size="10.00">luaD_pcall</text>
</a>
</g>
</g>
<!-- Node550&#45;&gt;Node555 -->
<g id="edge46" class="edge"><title>Node550&#45;&gt;Node555</title>
<path fill="none" stroke="midnightblue" d="M354.777,-591.748C342.561,-589.599 329.419,-587.287 318.053,-585.287"/>
<polygon fill="midnightblue" stroke="midnightblue" points="354.307,-595.219 364.762,-593.504 355.52,-588.325 354.307,-595.219"/>
</g>
<!-- Node566 -->
<g id="node46" class="node"><title>Node566</title>
<g id="a_node46"><a xlink:href="ldo_8h.html#a3bfc211173876f40cde6808e408cd305" target="_top" xlink:title=" ">
<polygon fill="white" stroke="red" points="254.5,-514.5 254.5,-533.5 319.5,-533.5 319.5,-514.5 254.5,-514.5"/>
<text text-anchor="middle" x="287" y="-521.5" font-family="Helvetica,sans-Serif" font-size="10.00">luaD_throw</text>
</a>
</g>
</g>
<!-- Node550&#45;&gt;Node566 -->
<g id="edge47" class="edge"><title>Node550&#45;&gt;Node566</title>
<path fill="none" stroke="midnightblue" d="M373.598,-583.443C351.968,-568.422 319.902,-546.154 301.781,-533.57"/>
<polygon fill="midnightblue" stroke="midnightblue" points="371.671,-586.366 381.881,-589.195 375.664,-580.616 371.671,-586.366"/>
</g>
<!-- Node627 -->
<g id="node47" class="node"><title>Node627</title>
<g id="a_node47"><a xlink:href="lstate_8h.html#a0882226c718293b23af460f7e2faeef0" target="_top" xlink:title=" ">
<polygon fill="white" stroke="black" points="245,-1216.5 245,-1235.5 329,-1235.5 329,-1216.5 245,-1216.5"/>
<text text-anchor="middle" x="287" y="-1223.5" font-family="Helvetica,sans-Serif" font-size="10.00">luaE_freethread</text>
</a>
</g>
</g>
<!-- Node550&#45;&gt;Node627 -->
<g id="edge49" class="edge"><title>Node550&#45;&gt;Node627</title>
<path fill="none" stroke="midnightblue" d="M394.082,-618.85C384.059,-722.227 337.831,-1194.72 329,-1207 326.252,-1210.82 322.54,-1213.9 318.467,-1216.36"/>
<polygon fill="midnightblue" stroke="midnightblue" points="397.572,-619.115 395.052,-608.824 390.605,-618.44 397.572,-619.115"/>
</g>
<!-- Node377 -->
<g id="node48" class="node"><title>Node377</title>
<g id="a_node48"><a xlink:href="lvm_8h.html#ac430e93ed874f6ab2449d7a16aa6b62f" target="_top" xlink:title=" ">
<polygon fill="white" stroke="red" points="249,-476.5 249,-495.5 325,-495.5 325,-476.5 249,-476.5"/>
<text text-anchor="middle" x="287" y="-483.5" font-family="Helvetica,sans-Serif" font-size="10.00">luaV_execute</text>
</a>
</g>
</g>
<!-- Node550&#45;&gt;Node377 -->
<g id="edge51" class="edge"><title>Node550&#45;&gt;Node377</title>
<path fill="none" stroke="midnightblue" d="M386.618,-580.461C375.349,-559.751 354.71,-526.339 329,-505 324.533,-501.292 319.222,-498.141 313.929,-495.533"/>
<polygon fill="midnightblue" stroke="midnightblue" points="383.621,-582.283 391.378,-589.499 389.815,-579.02 383.621,-582.283"/>
</g>
<!-- Node628 -->
<g id="node49" class="node"><title>Node628</title>
<g id="a_node49"><a xlink:href="ldo_8c.html#adfdcfe680efe0b6fd458a515aace0796" target="_top" xlink:title=" ">
<polygon fill="white" stroke="red" points="253,-438.5 253,-457.5 321,-457.5 321,-438.5 253,-438.5"/>
<text text-anchor="middle" x="287" y="-445.5" font-family="Helvetica,sans-Serif" font-size="10.00">moveresults</text>
</a>
</g>
</g>
<!-- Node550&#45;&gt;Node628 -->
<g id="edge52" class="edge"><title>Node550&#45;&gt;Node628</title>
<path fill="none" stroke="midnightblue" d="M390.607,-579.543C381.91,-551.385 362.307,-499.137 329,-467 325.161,-463.296 320.469,-460.219 315.647,-457.697"/>
<polygon fill="midnightblue" stroke="midnightblue" points="387.32,-580.774 393.5,-589.38 394.036,-578.798 387.32,-580.774"/>
</g>
<!-- Node631 -->
<g id="node50" class="node"><title>Node631</title>
<g id="a_node50"><a xlink:href="ldo_8c.html#a8f3e3ff2aa0a4a251774a476cb0036ea" target="_top" xlink:title=" ">
<polygon fill="white" stroke="red" points="263.5,-400.5 263.5,-419.5 310.5,-419.5 310.5,-400.5 263.5,-400.5"/>
<text text-anchor="middle" x="287" y="-407.5" font-family="Helvetica,sans-Serif" font-size="10.00">recover</text>
</a>
</g>
</g>
<!-- Node550&#45;&gt;Node631 -->
<g id="edge53" class="edge"><title>Node550&#45;&gt;Node631</title>
<path fill="none" stroke="midnightblue" d="M393.056,-578.944C386.993,-544.242 370.066,-472.543 329,-429 324.048,-423.749 317.36,-419.819 310.823,-416.937"/>
<polygon fill="midnightblue" stroke="midnightblue" points="389.663,-579.888 394.715,-589.2 396.573,-578.77 389.663,-579.888"/>
</g>
<!-- Node7 -->
<g id="node10" class="node"><title>Node7</title>
<g id="a_node10"><a xlink:href="lua_8h.html#afe030a97e84f24dfab3afb598faa2fff" target="_top" xlink:title=" ">
<polygon fill="white" stroke="red" points="127.5,-1216.5 127.5,-1235.5 185.5,-1235.5 185.5,-1216.5 127.5,-1216.5"/>
<text text-anchor="middle" x="156.5" y="-1223.5" font-family="Helvetica,sans-Serif" font-size="10.00">lua_close</text>
</a>
</g>
</g>
<!-- Node6&#45;&gt;Node7 -->
<g id="edge9" class="edge"><title>Node6&#45;&gt;Node7</title>
<path fill="none" stroke="midnightblue" d="M243.88,-1200.46C224.741,-1206.12 202.617,-1212.66 185.551,-1217.7"/>
<polygon fill="midnightblue" stroke="midnightblue" points="244.977,-1203.78 253.574,-1197.59 242.992,-1197.07 244.977,-1203.78"/>
</g>
<!-- Node10 -->
<g id="node11" class="node"><title>Node10</title>
<g id="a_node11"><a xlink:href="lua_8h.html#af722e4ac7fc0eba5920f59f0162c1b97" target="_top" xlink:title=" ">
<polygon fill="white" stroke="red" points="119.5,-1178.5 119.5,-1197.5 193.5,-1197.5 193.5,-1178.5 119.5,-1178.5"/>
<text text-anchor="middle" x="156.5" y="-1185.5" font-family="Helvetica,sans-Serif" font-size="10.00">lua_newstate</text>
</a>
</g>
</g>
<!-- Node6&#45;&gt;Node10 -->
<g id="edge10" class="edge"><title>Node6&#45;&gt;Node10</title>
<path fill="none" stroke="midnightblue" d="M243.078,-1188C227.105,-1188 209.147,-1188 193.821,-1188"/>
<polygon fill="midnightblue" stroke="midnightblue" points="243.242,-1191.5 253.242,-1188 243.242,-1184.5 243.242,-1191.5"/>
</g>
<!-- Node176 -->
<g id="node13" class="node"><title>Node176</title>
<g id="a_node13"><a xlink:href="lcorolib_8c.html#a777abb20385a69ce4787f72bd90375a7" target="_top" xlink:title=" ">
<polygon fill="white" stroke="red" points="118,-1140.5 118,-1159.5 195,-1159.5 195,-1140.5 118,-1140.5"/>
<text text-anchor="middle" x="156.5" y="-1147.5" font-family="Helvetica,sans-Serif" font-size="10.00">luaB_auxwrap</text>
</a>
</g>
</g>
<!-- Node551&#45;&gt;Node176 -->
<g id="edge12" class="edge"><title>Node551&#45;&gt;Node176</title>
<path fill="none" stroke="midnightblue" d="M243.611,-1124.54C226.13,-1129.7 206.198,-1135.6 189.916,-1140.41"/>
<polygon fill="midnightblue" stroke="midnightblue" points="244.977,-1127.78 253.574,-1121.59 242.992,-1121.07 244.977,-1127.78"/>
</g>
<!-- Node213 -->
<g id="node14" class="node"><title>Node213</title>
<g id="a_node14"><a xlink:href="lcorolib_8c.html#a3c6a70201b343432bfeb1f3e09cdde6f" target="_top" xlink:title=" ">
<polygon fill="white" stroke="black" points="124,-1102.5 124,-1121.5 189,-1121.5 189,-1102.5 124,-1102.5"/>
<text text-anchor="middle" x="156.5" y="-1109.5" font-family="Helvetica,sans-Serif" font-size="10.00">luaB_close</text>
</a>
</g>
</g>
<!-- Node551&#45;&gt;Node213 -->
<g id="edge13" class="edge"><title>Node551&#45;&gt;Node213</title>
<path fill="none" stroke="midnightblue" d="M234.908,-1112C219.527,-1112 203.096,-1112 189.347,-1112"/>
<polygon fill="midnightblue" stroke="midnightblue" points="235.342,-1115.5 245.342,-1112 235.342,-1108.5 235.342,-1115.5"/>
</g>
<!-- Node252 -->
<g id="node16" class="node"><title>Node252</title>
<g id="a_node16"><a xlink:href="ldblib_8c.html#ad72cc206e90f6ebc343460376c950a14" target="_top" xlink:title=" ">
<polygon fill="white" stroke="black" points="127,-1064.5 127,-1083.5 186,-1083.5 186,-1064.5 127,-1064.5"/>
<text text-anchor="middle" x="156.5" y="-1071.5" font-family="Helvetica,sans-Serif" font-size="10.00">db_debug</text>
</a>
</g>
</g>
<!-- Node552&#45;&gt;Node252 -->
<g id="edge15" class="edge"><title>Node552&#45;&gt;Node252</title>
<path fill="none" stroke="midnightblue" d="M285.068,-637.928C281.1,-714.673 263.255,-990.045 209,-1055 203.196,-1061.95 194.608,-1066.36 186.101,-1069.15"/>
<polygon fill="midnightblue" stroke="midnightblue" points="288.574,-637.896 285.572,-627.735 281.582,-637.55 288.574,-637.896"/>
</g>
<!-- Node79 -->
<g id="node17" class="node"><title>Node79</title>
<g id="a_node17"><a xlink:href="ldblib_8c.html#aa0c362d361f8f9bd8a002c34c393e2b0" target="_top" xlink:title=" ">
<polygon fill="white" stroke="black" points="123,-1026.5 123,-1045.5 190,-1045.5 190,-1026.5 123,-1026.5"/>
<text text-anchor="middle" x="156.5" y="-1033.5" font-family="Helvetica,sans-Serif" font-size="10.00">db_sethook</text>
</a>
</g>
</g>
<!-- Node552&#45;&gt;Node79 -->
<g id="edge16" class="edge"><title>Node552&#45;&gt;Node79</title>
<path fill="none" stroke="midnightblue" d="M284.695,-638.018C279.589,-710.553 258.745,-958.418 209,-1017 204.065,-1022.81 197.185,-1026.85 190.058,-1029.65"/>
<polygon fill="midnightblue" stroke="midnightblue" points="288.217,-637.812 285.404,-627.597 281.233,-637.337 288.217,-637.812"/>
</g>
<!-- Node50 -->
<g id="node18" class="node"><title>Node50</title>
<g id="a_node18"><a xlink:href="ldblib_8c.html#a11cfe90e96e7ea907a767f5109f7ef4b" target="_top" xlink:title=" ">
<polygon fill="white" stroke="black" points="123.5,-988.5 123.5,-1007.5 189.5,-1007.5 189.5,-988.5 123.5,-988.5"/>
<text text-anchor="middle" x="156.5" y="-995.5" font-family="Helvetica,sans-Serif" font-size="10.00">db_setlocal</text>
</a>
</g>
</g>
<!-- Node552&#45;&gt;Node50 -->
<g id="edge17" class="edge"><title>Node552&#45;&gt;Node50</title>
<path fill="none" stroke="midnightblue" d="M284.267,-637.851C277.978,-705.642 254.311,-926.682 209,-979 203.946,-984.835 196.935,-988.88 189.71,-991.683"/>
<polygon fill="midnightblue" stroke="midnightblue" points="287.771,-637.961 285.185,-627.686 280.799,-637.331 287.771,-637.961"/>
</g>
<!-- Node553 -->
<g id="node19" class="node"><title>Node553</title>
<g id="a_node19"><a xlink:href="ldblib_8c.html#a3595aee1af712c0ba9c586feb763bffc" target="_top" xlink:title=" ">
<polygon fill="white" stroke="black" points="112,-950.5 112,-969.5 201,-969.5 201,-950.5 112,-950.5"/>
<text text-anchor="middle" x="156.5" y="-957.5" font-family="Helvetica,sans-Serif" font-size="10.00">db_setmetatable</text>
</a>
</g>
</g>
<!-- Node552&#45;&gt;Node553 -->
<g id="edge18" class="edge"><title>Node552&#45;&gt;Node553</title>
<path fill="none" stroke="midnightblue" d="M283.736,-637.768C276.165,-700.697 249.879,-894.923 209,-941 205.585,-944.85 201.319,-947.921 196.713,-950.37"/>
<polygon fill="midnightblue" stroke="midnightblue" points="287.239,-637.952 284.931,-627.611 280.286,-637.134 287.239,-637.952"/>
</g>
<!-- Node80 -->
<g id="node20" class="node"><title>Node80</title>
<g id="a_node20"><a xlink:href="ldblib_8c.html#a233c3c4d12bda0fdbf515a18b8961461" target="_top" xlink:title=" ">
<polygon fill="white" stroke="black" points="113.5,-912.5 113.5,-931.5 199.5,-931.5 199.5,-912.5 113.5,-912.5"/>
<text text-anchor="middle" x="156.5" y="-919.5" font-family="Helvetica,sans-Serif" font-size="10.00">db_setuservalue</text>
</a>
</g>
</g>
<!-- Node552&#45;&gt;Node80 -->
<g id="edge19" class="edge"><title>Node552&#45;&gt;Node80</title>
<path fill="none" stroke="midnightblue" d="M285.985,-637.826C284.914,-687.554 275.561,-819.221 209,-898 203.78,-904.179 196.62,-908.861 189.298,-912.373"/>
<polygon fill="midnightblue" stroke="midnightblue" points="289.485,-637.803 286.108,-627.761 282.486,-637.718 289.485,-637.803"/>
</g>
<!-- Node174 -->
<g id="node21" class="node"><title>Node174</title>
<g id="a_node21"><a xlink:href="lua_8c.html#a946f2675cba972bd3580d9046abf2b6b" target="_top" xlink:title=" ">
<polygon fill="white" stroke="red" points="7.5,-855.5 7.5,-874.5 60.5,-874.5 60.5,-855.5 7.5,-855.5"/>
<text text-anchor="middle" x="34" y="-862.5" font-family="Helvetica,sans-Serif" font-size="10.00">doREPL</text>
</a>
</g>
</g>
<!-- Node552&#45;&gt;Node174 -->
<g id="edge20" class="edge"><title>Node552&#45;&gt;Node174</title>
<path fill="none" stroke="midnightblue" d="M286.894,-637.616C287.887,-685.928 282.857,-810.662 209,-865 165.323,-897.134 97.3507,-884.205 60.6266,-873.609"/>
<polygon fill="midnightblue" stroke="midnightblue" points="290.389,-637.429 286.571,-627.546 283.393,-637.653 290.389,-637.429"/>
</g>
<!-- Node87 -->
<g id="node22" class="node"><title>Node87</title>
<g id="a_node22"><a xlink:href="lstrlib_8c.html#ab55a72bb412d6186c82fd75de44cd031" target="_top" xlink:title=" ">
<polygon fill="white" stroke="black" points="132,-798.5 132,-817.5 181,-817.5 181,-798.5 132,-798.5"/>
<text text-anchor="middle" x="156.5" y="-805.5" font-family="Helvetica,sans-Serif" font-size="10.00">gmatch</text>
</a>
</g>
</g>
<!-- Node552&#45;&gt;Node87 -->
<g id="edge21" class="edge"><title>Node552&#45;&gt;Node87</title>
<path fill="none" stroke="midnightblue" d="M282.353,-637.605C274.826,-672.744 254.333,-746.72 209,-789 201.334,-796.15 190.747,-800.663 181.165,-803.486"/>
<polygon fill="midnightblue" stroke="midnightblue" points="285.814,-638.144 284.356,-627.65 278.952,-636.763 285.814,-638.144"/>
</g>
<!-- Node54 -->
<g id="node23" class="node"><title>Node54</title>
<g id="a_node23"><a xlink:href="liolib_8c.html#ac37d80ee2cc364b4adafcb6f7c20f28b" target="_top" xlink:title=" ">
<polygon fill="white" stroke="red" points="125,-760.5 125,-779.5 188,-779.5 188,-760.5 125,-760.5"/>
<text text-anchor="middle" x="156.5" y="-767.5" font-family="Helvetica,sans-Serif" font-size="10.00">io_readline</text>
</a>
</g>
</g>
<!-- Node552&#45;&gt;Node54 -->
<g id="edge22" class="edge"><title>Node552&#45;&gt;Node54</title>
<path fill="none" stroke="midnightblue" d="M279.692,-637.181C269.338,-665.83 246.103,-719.766 209,-751 203.022,-756.033 195.589,-759.791 188.248,-762.574"/>
<polygon fill="midnightblue" stroke="midnightblue" points="283.066,-638.133 283.032,-627.538 276.452,-635.842 283.066,-638.133"/>
</g>
<!-- Node201 -->
<g id="node24" class="node"><title>Node201</title>
<g id="a_node24"><a xlink:href="loadlib_8c.html#a136874f5faa236dc52fb50109281e157" target="_top" xlink:title=" ">
<polygon fill="white" stroke="black" points="128.5,-722.5 128.5,-741.5 184.5,-741.5 184.5,-722.5 128.5,-722.5"/>
<text text-anchor="middle" x="156.5" y="-729.5" font-family="Helvetica,sans-Serif" font-size="10.00">ll_require</text>
</a>
</g>
</g>
<!-- Node552&#45;&gt;Node201 -->
<g id="edge23" class="edge"><title>Node552&#45;&gt;Node201</title>
<path fill="none" stroke="midnightblue" d="M274.158,-635.983C260.416,-655.736 236.142,-687.384 209,-708 201.38,-713.787 192.141,-718.635 183.604,-722.424"/>
<polygon fill="midnightblue" stroke="midnightblue" points="277.139,-637.823 279.864,-627.585 271.349,-633.889 277.139,-637.823"/>
</g>
<!-- Node255 -->
<g id="node25" class="node"><title>Node255</title>
<g id="a_node25"><a xlink:href="lua_8c.html#ad7e840f79b193c164616ed9748e68ec6" target="_top" xlink:title=" ">
<polygon fill="white" stroke="black" points="131.5,-836.5 131.5,-855.5 181.5,-855.5 181.5,-836.5 131.5,-836.5"/>
<text text-anchor="middle" x="156.5" y="-843.5" font-family="Helvetica,sans-Serif" font-size="10.00">loadline</text>
</a>
</g>
</g>
<!-- Node552&#45;&gt;Node255 -->
<g id="edge24" class="edge"><title>Node552&#45;&gt;Node255</title>
<path fill="none" stroke="midnightblue" d="M284.162,-637.898C279.341,-678.858 262.723,-773.252 209,-827 201.656,-834.347 191.23,-838.882 181.677,-841.668"/>
<polygon fill="midnightblue" stroke="midnightblue" points="287.654,-638.154 285.23,-627.841 280.694,-637.415 287.654,-638.154"/>
</g>
<!-- Node89 -->
<g id="node26" class="node"><title>Node89</title>
<g id="a_node26"><a xlink:href="lbaselib_8c.html#a8ba9378d5d46ef34a7429d52c3f3e4c7" target="_top" xlink:title=" ">
<polygon fill="white" stroke="black" points="0,-665.5 0,-684.5 68,-684.5 68,-665.5 0,-665.5"/>
<text text-anchor="middle" x="34" y="-672.5" font-family="Helvetica,sans-Serif" font-size="10.00">luaB_assert</text>
</a>
</g>
</g>
<!-- Node552&#45;&gt;Node89 -->
<g id="edge26" class="edge"><title>Node552&#45;&gt;Node89</title>
<path fill="none" stroke="midnightblue" d="M270.053,-634.691C255.615,-648.501 232.989,-667.087 209,-675 161.952,-690.519 103.774,-686.154 68.0358,-681.013"/>
<polygon fill="midnightblue" stroke="midnightblue" points="272.556,-637.138 277.188,-627.609 267.625,-632.17 272.556,-637.138"/>
</g>
<!-- Node381 -->
<g id="node27" class="node"><title>Node381</title>
<g id="a_node27"><a xlink:href="lbaselib_8c.html#a86a4e35d9c9ad4661a0dbbac3758c049" target="_top" xlink:title=" ">
<polygon fill="white" stroke="black" points="124.5,-608.5 124.5,-627.5 188.5,-627.5 188.5,-608.5 124.5,-608.5"/>
<text text-anchor="middle" x="156.5" y="-615.5" font-family="Helvetica,sans-Serif" font-size="10.00">luaB_dofile</text>
</a>
</g>
</g>
<!-- Node552&#45;&gt;Node381 -->
<g id="edge27" class="edge"><title>Node552&#45;&gt;Node381</title>
<path fill="none" stroke="midnightblue" d="M245.742,-618C227.362,-618 205.924,-618 188.781,-618"/>
<polygon fill="midnightblue" stroke="midnightblue" points="245.872,-621.5 255.872,-618 245.872,-614.5 245.872,-621.5"/>
</g>
<!-- Node88 -->
<g id="node28" class="node"><title>Node88</title>
<g id="a_node28"><a xlink:href="lbaselib_8c.html#a2ecfa987569d0b4c1063f3e204e42dd2" target="_top" xlink:title=" ">
<polygon fill="white" stroke="black" points="126,-646.5 126,-665.5 187,-665.5 187,-646.5 126,-646.5"/>
<text text-anchor="middle" x="156.5" y="-653.5" font-family="Helvetica,sans-Serif" font-size="10.00">luaB_error</text>
</a>
</g>
</g>
<!-- Node552&#45;&gt;Node88 -->
<g id="edge28" class="edge"><title>Node552&#45;&gt;Node88</title>
<path fill="none" stroke="midnightblue" d="M246.034,-629.819C227.108,-635.416 204.885,-641.987 187.439,-647.147"/>
<polygon fill="midnightblue" stroke="midnightblue" points="247.276,-633.102 255.872,-626.909 245.29,-626.389 247.276,-633.102"/>
</g>
<!-- Node34 -->
<g id="node29" class="node"><title>Node34</title>
<g id="a_node29"><a xlink:href="lbaselib_8c.html#a4a9a3613fcf80fe033e044f7e19bed69" target="_top" xlink:title=" ">
<polygon fill="white" stroke="black" points="127,-570.5 127,-589.5 186,-589.5 186,-570.5 127,-570.5"/>
<text text-anchor="middle" x="156.5" y="-577.5" font-family="Helvetica,sans-Serif" font-size="10.00">luaB_load</text>
</a>
</g>
</g>
<!-- Node552&#45;&gt;Node34 -->
<g id="edge30" class="edge"><title>Node552&#45;&gt;Node34</title>
<path fill="none" stroke="midnightblue" d="M246.081,-606.195C226.663,-600.453 203.766,-593.682 186.116,-588.462"/>
<polygon fill="midnightblue" stroke="midnightblue" points="245.29,-609.611 255.872,-609.091 247.276,-602.898 245.29,-609.611"/>
</g>
<!-- Node158 -->
<g id="node30" class="node"><title>Node158</title>
<g id="a_node30"><a xlink:href="lbaselib_8c.html#ac0b11ecf3ced275821aaf5a03ed33b02" target="_top" xlink:title=" ">
<polygon fill="white" stroke="red" points="126.5,-532.5 126.5,-551.5 186.5,-551.5 186.5,-532.5 126.5,-532.5"/>
<text text-anchor="middle" x="156.5" y="-539.5" font-family="Helvetica,sans-Serif" font-size="10.00">luaB_next</text>
</a>
</g>
</g>
<!-- Node552&#45;&gt;Node158 -->
<g id="edge31" class="edge"><title>Node552&#45;&gt;Node158</title>
<path fill="none" stroke="midnightblue" d="M252.404,-603.742C249.829,-602.258 247.329,-600.674 245,-599 226.109,-585.422 228.422,-573.806 209,-561 202.237,-556.541 194.288,-552.948 186.685,-550.138"/>
<polygon fill="midnightblue" stroke="midnightblue" points="250.823,-606.865 261.306,-608.397 254.066,-600.661 250.823,-606.865"/>
</g>
<!-- Node114 -->
<g id="node31" class="node"><title>Node114</title>
<g id="a_node31"><a xlink:href="lbaselib_8c.html#a248a6847a33f31c69a43a76b6b8bcb4b" target="_top" xlink:title=" ">
<polygon fill="white" stroke="black" points="121.5,-494.5 121.5,-513.5 191.5,-513.5 191.5,-494.5 121.5,-494.5"/>
<text text-anchor="middle" x="156.5" y="-501.5" font-family="Helvetica,sans-Serif" font-size="10.00">luaB_rawget</text>
</a>
</g>
</g>
<!-- Node552&#45;&gt;Node114 -->
<g id="edge32" class="edge"><title>Node552&#45;&gt;Node114</title>
<path fill="none" stroke="midnightblue" d="M249.594,-602.954C247.965,-601.725 246.421,-600.409 245,-599 218.46,-572.683 236.577,-548.228 209,-523 204.078,-518.497 197.997,-515.036 191.759,-512.384"/>
<polygon fill="midnightblue" stroke="midnightblue" points="247.937,-606.046 258.27,-608.387 251.653,-600.113 247.937,-606.046"/>
</g>
<!-- Node115 -->
<g id="node32" class="node"><title>Node115</title>
<g id="a_node32"><a xlink:href="lbaselib_8c.html#a7b7225051c25127792f30eadd3498cc3" target="_top" xlink:title=" ">
<polygon fill="white" stroke="black" points="121.5,-456.5 121.5,-475.5 191.5,-475.5 191.5,-456.5 121.5,-456.5"/>
<text text-anchor="middle" x="156.5" y="-463.5" font-family="Helvetica,sans-Serif" font-size="10.00">luaB_rawset</text>
</a>
</g>
</g>
<!-- Node552&#45;&gt;Node115 -->
<g id="edge33" class="edge"><title>Node552&#45;&gt;Node115</title>
<path fill="none" stroke="midnightblue" d="M248.713,-602.645C247.387,-601.51 246.14,-600.296 245,-599 209.911,-559.102 245.667,-523.453 209,-485 204.265,-480.034 198.119,-476.359 191.732,-473.64"/>
<polygon fill="midnightblue" stroke="midnightblue" points="246.776,-605.56 257.002,-608.331 250.735,-599.788 246.776,-605.56"/>
</g>
<!-- Node159 -->
<g id="node33" class="node"><title>Node159</title>
<g id="a_node33"><a xlink:href="lbaselib_8c.html#af7799a987ba6d158a96a52e80fb5beaf" target="_top" xlink:title=" ">
<polygon fill="white" stroke="black" points="107.5,-418.5 107.5,-437.5 205.5,-437.5 205.5,-418.5 107.5,-418.5"/>
<text text-anchor="middle" x="156.5" y="-425.5" font-family="Helvetica,sans-Serif" font-size="10.00">luaB_setmetatable</text>
</a>
</g>
</g>
<!-- Node552&#45;&gt;Node159 -->
<g id="edge34" class="edge"><title>Node552&#45;&gt;Node159</title>
<path fill="none" stroke="midnightblue" d="M248.133,-602.328C247.012,-601.285 245.961,-600.177 245,-599 201.093,-545.223 255.036,-498.966 209,-447 205.588,-443.148 201.323,-440.076 196.718,-437.625"/>
<polygon fill="midnightblue" stroke="midnightblue" points="246.201,-605.251 256.35,-608.295 250.315,-599.587 246.201,-605.251"/>
</g>
<!-- Node75 -->
<g id="node34" class="node"><title>Node75</title>
<g id="a_node34"><a xlink:href="lbaselib_8c.html#a6224f7b7c4485996e1c22eae32de990d" target="_top" xlink:title=" ">
<polygon fill="white" stroke="black" points="115.5,-380.5 115.5,-399.5 197.5,-399.5 197.5,-380.5 115.5,-380.5"/>
<text text-anchor="middle" x="156.5" y="-387.5" font-family="Helvetica,sans-Serif" font-size="10.00">luaB_tonumber</text>
</a>
</g>
</g>
<!-- Node552&#45;&gt;Node75 -->
<g id="edge35" class="edge"><title>Node552&#45;&gt;Node75</title>
<path fill="none" stroke="midnightblue" d="M248.064,-602.383C246.962,-601.325 245.934,-600.199 245,-599 192.166,-531.211 264.52,-474.608 209,-409 205.737,-405.144 201.618,-402.071 197.137,-399.621"/>
<polygon fill="midnightblue" stroke="midnightblue" points="246.083,-605.271 256.201,-608.413 250.251,-599.647 246.083,-605.271"/>
</g>
<!-- Node36 -->
<g id="node35" class="node"><title>Node36</title>
<g id="a_node35"><a xlink:href="lauxlib_8h.html#a8c38c6dcf9db7e110e525b46742bacf8" target="_top" xlink:title=" ">
<polygon fill="white" stroke="red" points="119,-342.5 119,-361.5 194,-361.5 194,-342.5 119,-342.5"/>
<text text-anchor="middle" x="156.5" y="-349.5" font-family="Helvetica,sans-Serif" font-size="10.00">luaL_loadfilex</text>
</a>
</g>
</g>
<!-- Node552&#45;&gt;Node36 -->
<g id="edge36" class="edge"><title>Node552&#45;&gt;Node36</title>
<path fill="none" stroke="midnightblue" d="M248.017,-602.419C246.928,-601.351 245.916,-600.213 245,-599 183.183,-517.128 274.062,-450.318 209,-371 205.071,-366.211 199.818,-362.628 194.165,-359.949"/>
<polygon fill="midnightblue" stroke="midnightblue" points="246.002,-605.283 256.099,-608.491 250.206,-599.687 246.002,-605.283"/>
</g>
<!-- Node320 -->
<g id="node36" class="node"><title>Node320</title>
<g id="a_node36"><a xlink:href="lib21_8c.html#ab456f192d7085cab2b40bbabe4c2349a" target="_top" xlink:title=" ">
<polygon fill="white" stroke="red" points="121,-304.5 121,-323.5 192,-323.5 192,-304.5 121,-304.5"/>
<text text-anchor="middle" x="156.5" y="-311.5" font-family="Helvetica,sans-Serif" font-size="10.00">luaopen_lib2</text>
</a>
</g>
</g>
<!-- Node552&#45;&gt;Node320 -->
<g id="edge37" class="edge"><title>Node552&#45;&gt;Node320</title>
<path fill="none" stroke="midnightblue" d="M247.568,-602.025C246.647,-601.073 245.786,-600.065 245,-599 174.168,-503.003 283.638,-426.068 209,-333 204.648,-327.573 198.59,-323.696 192.153,-320.926"/>
<polygon fill="midnightblue" stroke="midnightblue" points="245.578,-604.912 255.616,-608.303 249.884,-599.392 245.578,-604.912"/>
</g>
<!-- Node142 -->
<g id="node37" class="node"><title>Node142</title>
<g id="a_node37"><a xlink:href="lmathlib_8c.html#ae4f0dc771c626a9badef237db9d433da" target="_top" xlink:title=" ">
<polygon fill="white" stroke="black" points="127,-266.5 127,-285.5 186,-285.5 186,-266.5 127,-266.5"/>
<text text-anchor="middle" x="156.5" y="-273.5" font-family="Helvetica,sans-Serif" font-size="10.00">math_ceil</text>
</a>
</g>
</g>
<!-- Node552&#45;&gt;Node142 -->
<g id="edge38" class="edge"><title>Node552&#45;&gt;Node142</title>
<path fill="none" stroke="midnightblue" d="M247.956,-602.464C246.884,-601.384 245.892,-600.231 245,-599 165.135,-488.852 293.234,-401.844 209,-295 203.336,-287.815 194.678,-283.347 186.067,-280.569"/>
<polygon fill="midnightblue" stroke="midnightblue" points="245.898,-605.297 255.969,-608.588 250.149,-599.735 245.898,-605.297"/>
</g>
<!-- Node146 -->
<g id="node38" class="node"><title>Node146</title>
<g id="a_node38"><a xlink:href="lmathlib_8c.html#aa063dcd93e924af13c5e311f89b18d03" target="_top" xlink:title=" ">
<polygon fill="white" stroke="black" points="125.5,-228.5 125.5,-247.5 187.5,-247.5 187.5,-228.5 125.5,-228.5"/>
<text text-anchor="middle" x="156.5" y="-235.5" font-family="Helvetica,sans-Serif" font-size="10.00">math_floor</text>
</a>
</g>
</g>
<!-- Node552&#45;&gt;Node146 -->
<g id="edge39" class="edge"><title>Node552&#45;&gt;Node146</title>
<path fill="none" stroke="midnightblue" d="M247.935,-602.479C246.869,-601.394 245.884,-600.236 245,-599 156.088,-474.683 302.843,-377.638 209,-257 203.734,-250.23 195.805,-245.872 187.737,-243.067"/>
<polygon fill="midnightblue" stroke="midnightblue" points="245.863,-605.3 255.925,-608.62 250.129,-599.75 245.863,-605.3"/>
</g>
<!-- Node149 -->
<g id="node39" class="node"><title>Node149</title>
<g id="a_node39"><a xlink:href="lmathlib_8c.html#adff369706deb34be360be3103f31d4c4" target="_top" xlink:title=" ">
<polygon fill="white" stroke="black" points="124,-190.5 124,-209.5 189,-209.5 189,-190.5 124,-190.5"/>
<text text-anchor="middle" x="156.5" y="-197.5" font-family="Helvetica,sans-Serif" font-size="10.00">math_modf</text>
</a>
</g>
</g>
<!-- Node552&#45;&gt;Node149 -->
<g id="edge40" class="edge"><title>Node552&#45;&gt;Node149</title>
<path fill="none" stroke="midnightblue" d="M247.919,-602.491C246.858,-601.403 245.878,-600.241 245,-599 147.032,-460.502 312.463,-353.443 209,-219 204.06,-212.58 196.722,-208.329 189.125,-205.514"/>
<polygon fill="midnightblue" stroke="midnightblue" points="245.835,-605.303 255.889,-608.645 250.113,-599.763 245.835,-605.303"/>
</g>
<!-- Node554 -->
<g id="node40" class="node"><title>Node554</title>
<g id="a_node40"><a xlink:href="lib1_8c.html#ab6ef220e3370055a772ec72785efa9aa" target="_top" xlink:title=" ">
<polygon fill="white" stroke="black" points="123.5,-152.5 123.5,-171.5 189.5,-171.5 189.5,-152.5 123.5,-152.5"/>
<text text-anchor="middle" x="156.5" y="-159.5" font-family="Helvetica,sans-Serif" font-size="10.00">onefunction</text>
</a>
</g>
</g>
<!-- Node552&#45;&gt;Node554 -->
<g id="edge41" class="edge"><title>Node552&#45;&gt;Node554</title>
<path fill="none" stroke="midnightblue" d="M247.905,-602.5C246.848,-601.41 245.872,-600.245 245,-599 191.485,-522.656 265.544,-255.129 209,-181 204.203,-174.711 197.103,-170.503 189.697,-167.687"/>
<polygon fill="midnightblue" stroke="midnightblue" points="245.812,-605.306 255.86,-608.666 250.1,-599.773 245.812,-605.306"/>
</g>
<!-- Node161 -->
<g id="node41" class="node"><title>Node161</title>
<g id="a_node41"><a xlink:href="loslib_8c.html#ae32288bc9696b48450146e11c241f943" target="_top" xlink:title=" ">
<polygon fill="white" stroke="black" points="131,-114.5 131,-133.5 182,-133.5 182,-114.5 131,-114.5"/>
<text text-anchor="middle" x="156.5" y="-121.5" font-family="Helvetica,sans-Serif" font-size="10.00">os_time</text>
</a>
</g>
</g>
<!-- Node552&#45;&gt;Node161 -->
<g id="edge42" class="edge"><title>Node552&#45;&gt;Node161</title>
<path fill="none" stroke="midnightblue" d="M247.894,-602.508C246.84,-601.416 245.868,-600.248 245,-599 186.951,-515.557 270.36,-224.039 209,-143 202.614,-134.566 192.084,-129.874 182.204,-127.265"/>
<polygon fill="midnightblue" stroke="midnightblue" points="245.792,-605.308 255.835,-608.683 250.089,-599.781 245.792,-605.308"/>
</g>
<!-- Node42 -->
<g id="node42" class="node"><title>Node42</title>
<g id="a_node42"><a xlink:href="lauxlib_8c.html#a4f35430f7ecfcbd5f507e550937046b4" target="_top" xlink:title=" ">
<polygon fill="white" stroke="red" points="104,-76.5 104,-95.5 209,-95.5 209,-76.5 104,-76.5"/>
<text text-anchor="middle" x="156.5" y="-83.5" font-family="Helvetica,sans-Serif" font-size="10.00">pushglobalfuncname</text>
</a>
</g>
</g>
<!-- Node552&#45;&gt;Node42 -->
<g id="edge43" class="edge"><title>Node552&#45;&gt;Node42</title>
<path fill="none" stroke="midnightblue" d="M247.884,-602.515C246.833,-601.42 245.864,-600.25 245,-599 182.416,-508.455 275.178,-192.953 209,-105 206.135,-101.192 202.425,-98.1474 198.308,-95.7123"/>
<polygon fill="midnightblue" stroke="midnightblue" points="245.776,-605.309 255.814,-608.697 250.08,-599.788 245.776,-605.309"/>
</g>
<!-- Node162 -->
<g id="node43" class="node"><title>Node162</title>
<g id="a_node43"><a xlink:href="ltablib_8c.html#ae7d3f892e2605bf102dce63de388e626" target="_top" xlink:title=" ">
<polygon fill="white" stroke="black" points="140,-38.5 140,-57.5 173,-57.5 173,-38.5 140,-38.5"/>
<text text-anchor="middle" x="156.5" y="-45.5" font-family="Helvetica,sans-Serif" font-size="10.00">sort</text>
</a>
</g>
</g>
<!-- Node552&#45;&gt;Node162 -->
<g id="edge44" class="edge"><title>Node552&#45;&gt;Node162</title>
<path fill="none" stroke="midnightblue" d="M247.876,-602.521C246.827,-601.424 245.861,-600.253 245,-599 177.879,-501.352 279.997,-161.868 209,-67 200.663,-55.8602 185.085,-51.2469 173.236,-49.339"/>
<polygon fill="midnightblue" stroke="midnightblue" points="245.762,-605.31 255.797,-608.709 250.072,-599.794 245.762,-605.31"/>
</g>
<!-- Node163 -->
<g id="node44" class="node"><title>Node163</title>
<g id="a_node44"><a xlink:href="lstrlib_8c.html#abc94e3a13f1b6ddb2c9b20c9fd89e87f" target="_top" xlink:title=" ">
<polygon fill="white" stroke="black" points="128,-0.5 128,-19.5 185,-19.5 185,-0.5 128,-0.5"/>
<text text-anchor="middle" x="156.5" y="-7.5" font-family="Helvetica,sans-Serif" font-size="10.00">str_dump</text>
</a>
</g>
</g>
<!-- Node552&#45;&gt;Node163 -->
<g id="edge45" class="edge"><title>Node552&#45;&gt;Node163</title>
<path fill="none" stroke="midnightblue" d="M247.869,-602.526C246.821,-601.428 245.858,-600.255 245,-599 173.34,-494.246 284.817,-130.785 209,-29 203.307,-21.3572 194.203,-16.7862 185.222,-14.0533"/>
<polygon fill="midnightblue" stroke="midnightblue" points="245.749,-605.311 255.781,-608.72 250.065,-599.8 245.749,-605.311"/>
</g>
<!-- Node255&#45;&gt;Node174 -->
<g id="edge25" class="edge"><title>Node255&#45;&gt;Node174</title>
<path fill="none" stroke="midnightblue" d="M121.496,-851.362C102.205,-854.403 78.4507,-858.149 60.7198,-860.945"/>
<polygon fill="midnightblue" stroke="midnightblue" points="122.072,-854.814 131.405,-849.799 120.982,-847.9 122.072,-854.814"/>
</g>
<!-- Node88&#45;&gt;Node89 -->
<g id="edge29" class="edge"><title>Node88&#45;&gt;Node89</title>
<path fill="none" stroke="midnightblue" d="M115.483,-662.31C100.169,-664.724 82.8806,-667.45 68.2636,-669.755"/>
<polygon fill="midnightblue" stroke="midnightblue" points="116.381,-665.712 125.713,-660.697 115.29,-658.797 116.381,-665.712"/>
</g>
<!-- Node566&#45;&gt;Node566 -->
<g id="edge48" class="edge"><title>Node566&#45;&gt;Node566</title>
<path fill="none" stroke="midnightblue" d="M307.369,-543.4C306.009,-548.315 299.219,-552 287,-552 267.449,-552 261.798,-542.565 270.046,-533.757"/>
<polygon fill="midnightblue" stroke="midnightblue" points="310.592,-542.015 303.954,-533.757 303.993,-544.352 310.592,-542.015"/>
</g>
<!-- Node627&#45;&gt;Node3 -->
<g id="edge50" class="edge"><title>Node627&#45;&gt;Node3</title>
<path fill="none" stroke="midnightblue" d="M243.917,-1238.44C222.22,-1244.86 196.678,-1252.41 179.017,-1257.64"/>
<polygon fill="midnightblue" stroke="midnightblue" points="244.977,-1241.78 253.574,-1235.59 242.992,-1235.07 244.977,-1241.78"/>
</g>
</g>
</svg>
