<?xml version="1.0" encoding="UTF-8" standalone="no"?>
<!DOCTYPE svg PUBLIC "-//W3C//DTD SVG 1.1//EN"
 "http://www.w3.org/Graphics/SVG/1.1/DTD/svg11.dtd">
<!-- Generated by graphviz version 2.38.0 (20140413.2041)
 -->
<!-- Title: sweepstep Pages: 1 -->
<svg width="1751pt" height="672pt"
 viewBox="0.00 0.00 1751.00 672.00" xmlns="http://www.w3.org/2000/svg" xmlns:xlink="http://www.w3.org/1999/xlink">
<g id="graph0" class="graph" transform="scale(1 1) rotate(0) translate(4 668)">
<title>sweepstep</title>
<polygon fill="white" stroke="none" points="-4,4 -4,-668 1747,-668 1747,4 -4,4"/>
<!-- Node1 -->
<g id="node1" class="node"><title>Node1</title>
<g id="a_node1"><a xlink:title=" ">
<polygon fill="#bfbfbf" stroke="black" points="0,-133.5 0,-152.5 63,-152.5 63,-133.5 0,-133.5"/>
<text text-anchor="middle" x="31.5" y="-140.5" font-family="Helvetica,sans-Serif" font-size="10.00">sweepstep</text>
</a>
</g>
</g>
<!-- Node2 -->
<g id="node2" class="node"><title>Node2</title>
<g id="a_node2"><a xlink:href="lgc_8c.html#a88abd139efb3d69379bf4ee92b84a65d" target="_top" xlink:title=" ">
<polygon fill="white" stroke="black" points="99,-133.5 99,-152.5 156,-152.5 156,-133.5 99,-133.5"/>
<text text-anchor="middle" x="127.5" y="-140.5" font-family="Helvetica,sans-Serif" font-size="10.00">sweeplist</text>
</a>
</g>
</g>
<!-- Node1&#45;&gt;Node2 -->
<g id="edge1" class="edge"><title>Node1&#45;&gt;Node2</title>
<path fill="none" stroke="midnightblue" d="M63.0191,-143C71.2513,-143 80.2559,-143 88.829,-143"/>
<polygon fill="midnightblue" stroke="midnightblue" points="88.9914,-146.5 98.9914,-143 88.9914,-139.5 88.9914,-146.5"/>
</g>
<!-- Node3 -->
<g id="node3" class="node"><title>Node3</title>
<g id="a_node3"><a xlink:href="lgc_8c.html#aa198d7da2a8502ed70adfe1f7ed38f46" target="_top" xlink:title=" ">
<polygon fill="white" stroke="black" points="192,-133.5 192,-152.5 237,-152.5 237,-133.5 192,-133.5"/>
<text text-anchor="middle" x="214.5" y="-140.5" font-family="Helvetica,sans-Serif" font-size="10.00">freeobj</text>
</a>
</g>
</g>
<!-- Node2&#45;&gt;Node3 -->
<g id="edge2" class="edge"><title>Node2&#45;&gt;Node3</title>
<path fill="none" stroke="midnightblue" d="M156.332,-143C164.434,-143 173.347,-143 181.676,-143"/>
<polygon fill="midnightblue" stroke="midnightblue" points="181.807,-146.5 191.807,-143 181.807,-139.5 181.807,-146.5"/>
</g>
<!-- Node4 -->
<g id="node4" class="node"><title>Node4</title>
<g id="a_node4"><a xlink:href="lgc_8c.html#a41b4adb59140172e2cd717fb921cd372" target="_top" xlink:title=" ">
<polygon fill="white" stroke="black" points="398,-237.5 398,-256.5 452,-256.5 452,-237.5 398,-237.5"/>
<text text-anchor="middle" x="425" y="-244.5" font-family="Helvetica,sans-Serif" font-size="10.00">freeupval</text>
</a>
</g>
</g>
<!-- Node3&#45;&gt;Node4 -->
<g id="edge3" class="edge"><title>Node3&#45;&gt;Node4</title>
<path fill="none" stroke="midnightblue" d="M222.968,-152.919C233.009,-165.593 252.04,-187.396 273,-200 308.938,-221.61 355.742,-234.164 387.655,-240.776"/>
<polygon fill="midnightblue" stroke="midnightblue" points="387.38,-244.289 397.869,-242.795 388.737,-237.422 387.38,-244.289"/>
</g>
<!-- Node6 -->
<g id="node6" class="node"><title>Node6</title>
<g id="a_node6"><a xlink:href="lstate_8c.html#a8c121cf8444c9c54e934aeb509c4b73a" target="_top" xlink:title=" ">
<polygon fill="white" stroke="black" points="273,-171.5 273,-190.5 357,-190.5 357,-171.5 273,-171.5"/>
<text text-anchor="middle" x="315" y="-178.5" font-family="Helvetica,sans-Serif" font-size="10.00">luaE_freethread</text>
</a>
</g>
</g>
<!-- Node3&#45;&gt;Node6 -->
<g id="edge5" class="edge"><title>Node3&#45;&gt;Node6</title>
<path fill="none" stroke="midnightblue" d="M237.36,-151.433C249.794,-156.23 265.643,-162.344 279.697,-167.766"/>
<polygon fill="midnightblue" stroke="midnightblue" points="278.487,-171.051 289.077,-171.385 281.007,-164.52 278.487,-171.051"/>
</g>
<!-- Node440 -->
<g id="node47" class="node"><title>Node440</title>
<g id="a_node47"><a xlink:href="lfunc_8c.html#a117c26fb473f6165ee84d70d49a741b7" target="_top" xlink:title=" ">
<polygon fill="white" stroke="black" points="276,-133.5 276,-152.5 354,-152.5 354,-133.5 276,-133.5"/>
<text text-anchor="middle" x="315" y="-140.5" font-family="Helvetica,sans-Serif" font-size="10.00">luaF_freeproto</text>
</a>
</g>
</g>
<!-- Node3&#45;&gt;Node440 -->
<g id="edge61" class="edge"><title>Node3&#45;&gt;Node440</title>
<path fill="none" stroke="midnightblue" d="M237.36,-143C245.773,-143 255.75,-143 265.676,-143"/>
<polygon fill="midnightblue" stroke="midnightblue" points="265.935,-146.5 275.935,-143 265.935,-139.5 265.935,-146.5"/>
</g>
<!-- Node441 -->
<g id="node48" class="node"><title>Node441</title>
<g id="a_node48"><a xlink:href="ltable_8c.html#ac6d94de2e83b5b0865b4aca30dec5c8c" target="_top" xlink:title=" ">
<polygon fill="white" stroke="black" points="286.5,-95.5 286.5,-114.5 343.5,-114.5 343.5,-95.5 286.5,-95.5"/>
<text text-anchor="middle" x="315" y="-102.5" font-family="Helvetica,sans-Serif" font-size="10.00">luaH_free</text>
</a>
</g>
</g>
<!-- Node3&#45;&gt;Node441 -->
<g id="edge62" class="edge"><title>Node3&#45;&gt;Node441</title>
<path fill="none" stroke="midnightblue" d="M237.36,-134.567C249.794,-129.77 265.643,-123.656 279.697,-118.234"/>
<polygon fill="midnightblue" stroke="midnightblue" points="281.007,-121.48 289.077,-114.615 278.487,-114.949 281.007,-121.48"/>
</g>
<!-- Node442 -->
<g id="node50" class="node"><title>Node442</title>
<g id="a_node50"><a xlink:href="lstring_8c.html#a7cac97a1c8f2564c7f0669119dd776fe" target="_top" xlink:title=" ">
<polygon fill="white" stroke="black" points="279,-57.5 279,-76.5 351,-76.5 351,-57.5 279,-57.5"/>
<text text-anchor="middle" x="315" y="-64.5" font-family="Helvetica,sans-Serif" font-size="10.00">luaS_remove</text>
</a>
</g>
</g>
<!-- Node3&#45;&gt;Node442 -->
<g id="edge65" class="edge"><title>Node3&#45;&gt;Node442</title>
<path fill="none" stroke="midnightblue" d="M223.238,-133.499C233.571,-121.276 252.918,-99.9609 273,-86 275.416,-84.3207 278.003,-82.7257 280.661,-81.2263"/>
<polygon fill="midnightblue" stroke="midnightblue" points="282.527,-84.2021 289.816,-76.5134 279.323,-77.9783 282.527,-84.2021"/>
</g>
<!-- Node5 -->
<g id="node5" class="node"><title>Node5</title>
<g id="a_node5"><a xlink:href="lfunc_8c.html#a3b5a5ae122e85af5c941e9b4ffff53bd" target="_top" xlink:title=" ">
<polygon fill="white" stroke="black" points="493,-303.5 493,-322.5 581,-322.5 581,-303.5 493,-303.5"/>
<text text-anchor="middle" x="537" y="-310.5" font-family="Helvetica,sans-Serif" font-size="10.00">luaF_unlinkupval</text>
</a>
</g>
</g>
<!-- Node4&#45;&gt;Node5 -->
<g id="edge4" class="edge"><title>Node4&#45;&gt;Node5</title>
<path fill="none" stroke="midnightblue" d="M438.359,-256.78C451.449,-266.869 472.955,-282.685 493,-294 496.078,-295.738 499.346,-297.431 502.651,-299.046"/>
<polygon fill="midnightblue" stroke="midnightblue" points="501.392,-302.32 511.936,-303.358 504.341,-295.972 501.392,-302.32"/>
</g>
<!-- Node7 -->
<g id="node7" class="node"><title>Node7</title>
<g id="a_node7"><a xlink:href="lstate_8c.html#ac615222739efb52e2c21dbaea5223853" target="_top" xlink:title=" ">
<polygon fill="white" stroke="black" points="397,-161.5 397,-180.5 453,-180.5 453,-161.5 397,-161.5"/>
<text text-anchor="middle" x="425" y="-168.5" font-family="Helvetica,sans-Serif" font-size="10.00">freestack</text>
</a>
</g>
</g>
<!-- Node6&#45;&gt;Node7 -->
<g id="edge6" class="edge"><title>Node6&#45;&gt;Node7</title>
<path fill="none" stroke="midnightblue" d="M357.138,-177.191C366.857,-176.291 377.165,-175.337 386.703,-174.453"/>
<polygon fill="midnightblue" stroke="midnightblue" points="387.05,-177.936 396.685,-173.529 386.405,-170.966 387.05,-177.936"/>
</g>
<!-- Node9 -->
<g id="node9" class="node"><title>Node9</title>
<g id="a_node9"><a xlink:href="lfunc_8c.html#ae9fcbf80b5969afd9412b9aed102f94e" target="_top" xlink:title=" ">
<polygon fill="white" stroke="black" points="393,-199.5 393,-218.5 457,-218.5 457,-199.5 393,-199.5"/>
<text text-anchor="middle" x="425" y="-206.5" font-family="Helvetica,sans-Serif" font-size="10.00">luaF_close</text>
</a>
</g>
</g>
<!-- Node6&#45;&gt;Node9 -->
<g id="edge8" class="edge"><title>Node6&#45;&gt;Node9</title>
<path fill="none" stroke="midnightblue" d="M352.865,-190.558C362.48,-193.05 372.904,-195.753 382.73,-198.3"/>
<polygon fill="midnightblue" stroke="midnightblue" points="382.138,-201.762 392.696,-200.884 383.895,-194.987 382.138,-201.762"/>
</g>
<!-- Node8 -->
<g id="node8" class="node"><title>Node8</title>
<g id="a_node8"><a xlink:href="lstate_8c.html#a1153e60541fafca38e049159a2d56cdd" target="_top" xlink:title=" ">
<polygon fill="white" stroke="black" points="504,-104.5 504,-123.5 570,-123.5 570,-104.5 504,-104.5"/>
<text text-anchor="middle" x="537" y="-111.5" font-family="Helvetica,sans-Serif" font-size="10.00">luaE_freeCI</text>
</a>
</g>
</g>
<!-- Node7&#45;&gt;Node8 -->
<g id="edge7" class="edge"><title>Node7&#45;&gt;Node8</title>
<path fill="none" stroke="midnightblue" d="M444.66,-161.331C462.228,-152.227 488.75,-138.484 508.695,-128.149"/>
<polygon fill="midnightblue" stroke="midnightblue" points="510.347,-131.235 517.616,-123.526 507.126,-125.02 510.347,-131.235"/>
</g>
<!-- Node9&#45;&gt;Node5 -->
<g id="edge60" class="edge"><title>Node9&#45;&gt;Node5</title>
<path fill="none" stroke="midnightblue" d="M445.2,-218.608C449.404,-221.274 453.607,-224.432 457,-228 480.023,-252.216 468.41,-271.377 493,-294 494.659,-295.527 496.461,-296.945 498.356,-298.261"/>
<polygon fill="midnightblue" stroke="midnightblue" points="496.702,-301.348 507.098,-303.389 500.244,-295.31 496.702,-301.348"/>
</g>
<!-- Node10 -->
<g id="node10" class="node"><title>Node10</title>
<g id="a_node10"><a xlink:href="lfunc_8c.html#a4105c820bb9b1b4b4b3bd6613b0ccb05" target="_top" xlink:title=" ">
<polygon fill="white" stroke="black" points="501.5,-265.5 501.5,-284.5 572.5,-284.5 572.5,-265.5 501.5,-265.5"/>
<text text-anchor="middle" x="537" y="-272.5" font-family="Helvetica,sans-Serif" font-size="10.00">callclosemth</text>
</a>
</g>
</g>
<!-- Node9&#45;&gt;Node10 -->
<g id="edge9" class="edge"><title>Node9&#45;&gt;Node10</title>
<path fill="none" stroke="midnightblue" d="M442.231,-218.739C460.451,-229.671 490.222,-247.533 511.326,-260.196"/>
<polygon fill="midnightblue" stroke="midnightblue" points="509.684,-263.292 520.06,-265.436 513.286,-257.29 509.684,-263.292"/>
</g>
<!-- Node11 -->
<g id="node11" class="node"><title>Node11</title>
<g id="a_node11"><a xlink:href="lfunc_8c.html#ad6f77f3a49d8b6199525c7edac6fd0a6" target="_top" xlink:title=" ">
<polygon fill="white" stroke="black" points="638.5,-265.5 638.5,-284.5 693.5,-284.5 693.5,-265.5 638.5,-265.5"/>
<text text-anchor="middle" x="666" y="-272.5" font-family="Helvetica,sans-Serif" font-size="10.00">callclose</text>
</a>
</g>
</g>
<!-- Node10&#45;&gt;Node11 -->
<g id="edge10" class="edge"><title>Node10&#45;&gt;Node11</title>
<path fill="none" stroke="midnightblue" d="M572.703,-275C589.854,-275 610.561,-275 628.012,-275"/>
<polygon fill="midnightblue" stroke="midnightblue" points="628.396,-278.5 638.396,-275 628.396,-271.5 628.396,-278.5"/>
</g>
<!-- Node82 -->
<g id="node17" class="node"><title>Node82</title>
<g id="a_node17"><a xlink:href="ldo_8c.html#a2a5656cf723dffe2e9b5314260bd8896" target="_top" xlink:title=" ">
<polygon fill="white" stroke="black" points="1546,-294.5 1546,-313.5 1633,-313.5 1633,-294.5 1546,-294.5"/>
<text text-anchor="middle" x="1589.5" y="-301.5" font-family="Helvetica,sans-Serif" font-size="10.00">luaD_seterrorobj</text>
</a>
</g>
</g>
<!-- Node10&#45;&gt;Node82 -->
<g id="edge48" class="edge"><title>Node10&#45;&gt;Node82</title>
<path fill="none" stroke="midnightblue" d="M564.98,-284.65C570.544,-287.25 576.173,-290.369 581,-294 600.918,-308.983 595.742,-323.987 617,-337 690.103,-381.751 719.287,-380 805,-380 805,-380 805,-380 1205,-380 1340.34,-380 1377.41,-380.012 1507,-341 1525.98,-335.287 1546.27,-326.084 1561.86,-318.286"/>
<polygon fill="midnightblue" stroke="midnightblue" points="1563.6,-321.328 1570.91,-313.655 1560.41,-315.096 1563.6,-321.328"/>
</g>
<!-- Node80 -->
<g id="node32" class="node"><title>Node80</title>
<g id="a_node32"><a xlink:href="ldo_8c.html#a1ad7f845cc62b110e3fcc0ae187d7c85" target="_top" xlink:title=" ">
<polygon fill="white" stroke="black" points="635,-142.5 635,-161.5 697,-161.5 697,-142.5 635,-142.5"/>
<text text-anchor="middle" x="666" y="-149.5" font-family="Helvetica,sans-Serif" font-size="10.00">luaD_pcall</text>
</a>
</g>
</g>
<!-- Node10&#45;&gt;Node80 -->
<g id="edge39" class="edge"><title>Node10&#45;&gt;Node80</title>
<path fill="none" stroke="midnightblue" d="M547.965,-265.348C569.573,-244.421 620.953,-194.66 647.875,-168.585"/>
<polygon fill="midnightblue" stroke="midnightblue" points="650.332,-171.078 655.081,-161.607 645.463,-166.05 650.332,-171.078"/>
</g>
<!-- Node83 -->
<g id="node39" class="node"><title>Node83</title>
<g id="a_node39"><a xlink:href="lstate_8c.html#a242ebb018d637c41f24b84a2bbc78f34" target="_top" xlink:title=" ">
<polygon fill="white" stroke="black" points="625.5,-408.5 625.5,-427.5 706.5,-427.5 706.5,-408.5 625.5,-408.5"/>
<text text-anchor="middle" x="666" y="-415.5" font-family="Helvetica,sans-Serif" font-size="10.00">luaE_warnerror</text>
</a>
</g>
</g>
<!-- Node10&#45;&gt;Node83 -->
<g id="edge49" class="edge"><title>Node10&#45;&gt;Node83</title>
<path fill="none" stroke="midnightblue" d="M568.272,-284.583C572.971,-287.08 577.439,-290.179 581,-294 613.203,-328.558 585.628,-358.686 617,-394 620.233,-397.639 624.146,-400.793 628.327,-403.507"/>
<polygon fill="midnightblue" stroke="midnightblue" points="626.721,-406.62 637.151,-408.477 630.156,-400.521 626.721,-406.62"/>
</g>
<!-- Node413 -->
<g id="node41" class="node"><title>Node413</title>
<g id="a_node41"><a xlink:href="lfunc_8c.html#a523bc674df9f893ade61463c4ba5f09a" target="_top" xlink:title=" ">
<polygon fill="white" stroke="black" points="617,-308.5 617,-327.5 715,-327.5 715,-308.5 617,-308.5"/>
<text text-anchor="middle" x="666" y="-315.5" font-family="Helvetica,sans-Serif" font-size="10.00">prepclosingmethod</text>
</a>
</g>
</g>
<!-- Node10&#45;&gt;Node413 -->
<g id="edge51" class="edge"><title>Node10&#45;&gt;Node413</title>
<path fill="none" stroke="midnightblue" d="M566.185,-284.543C584.19,-290.639 607.748,-298.615 627.345,-305.251"/>
<polygon fill="midnightblue" stroke="midnightblue" points="626.299,-308.592 636.893,-308.484 628.544,-301.961 626.299,-308.592"/>
</g>
<!-- Node416 -->
<g id="node43" class="node"><title>Node416</title>
<g id="a_node43"><a xlink:href="lfunc_8c.html#a865c4fcb22304c78c59721af224c34b6" target="_top" xlink:title=" ">
<polygon fill="white" stroke="black" points="1051.5,-476.5 1051.5,-495.5 1099.5,-495.5 1099.5,-476.5 1051.5,-476.5"/>
<text text-anchor="middle" x="1075.5" y="-483.5" font-family="Helvetica,sans-Serif" font-size="10.00">varerror</text>
</a>
</g>
</g>
<!-- Node10&#45;&gt;Node416 -->
<g id="edge54" class="edge"><title>Node10&#45;&gt;Node416</title>
<path fill="none" stroke="midnightblue" d="M569.034,-284.533C573.533,-287.023 577.738,-290.132 581,-294 623.255,-344.098 567.531,-394.01 617,-437 740.305,-544.155 958.56,-511.38 1041.38,-493.857"/>
<polygon fill="midnightblue" stroke="midnightblue" points="1042.22,-497.256 1051.24,-491.705 1040.73,-490.417 1042.22,-497.256"/>
</g>
<!-- Node12 -->
<g id="node12" class="node"><title>Node12</title>
<g id="a_node12"><a xlink:href="ldo_8c.html#a61c0a0185ef5ae1493dad10027f4db7e" target="_top" xlink:title=" ">
<polygon fill="white" stroke="black" points="762.5,-265.5 762.5,-284.5 849.5,-284.5 849.5,-265.5 762.5,-265.5"/>
<text text-anchor="middle" x="806" y="-272.5" font-family="Helvetica,sans-Serif" font-size="10.00">luaD_callnoyield</text>
</a>
</g>
</g>
<!-- Node11&#45;&gt;Node12 -->
<g id="edge11" class="edge"><title>Node11&#45;&gt;Node12</title>
<path fill="none" stroke="midnightblue" d="M693.608,-275C710.215,-275 732.172,-275 752.199,-275"/>
<polygon fill="midnightblue" stroke="midnightblue" points="752.458,-278.5 762.458,-275 752.458,-271.5 752.458,-278.5"/>
</g>
<!-- Node13 -->
<g id="node13" class="node"><title>Node13</title>
<g id="a_node13"><a xlink:href="ldo_8c.html#aa7d32ccef16c2d4fe63604c4c457831d" target="_top" xlink:title=" ">
<polygon fill="white" stroke="black" points="925.5,-256.5 925.5,-275.5 962.5,-275.5 962.5,-256.5 925.5,-256.5"/>
<text text-anchor="middle" x="944" y="-263.5" font-family="Helvetica,sans-Serif" font-size="10.00">ccall</text>
</a>
</g>
</g>
<!-- Node12&#45;&gt;Node13 -->
<g id="edge12" class="edge"><title>Node12&#45;&gt;Node13</title>
<path fill="none" stroke="midnightblue" d="M849.658,-272.177C871.117,-270.757 896.505,-269.077 915.382,-267.828"/>
<polygon fill="midnightblue" stroke="midnightblue" points="915.652,-271.318 925.399,-267.165 915.19,-264.333 915.652,-271.318"/>
</g>
<!-- Node14 -->
<g id="node14" class="node"><title>Node14</title>
<g id="a_node14"><a xlink:href="ldo_8c.html#a6ef9a33a964a596c36af61d452260bf5" target="_top" xlink:title=" ">
<polygon fill="white" stroke="red" points="1169,-190.5 1169,-209.5 1239,-209.5 1239,-190.5 1169,-190.5"/>
<text text-anchor="middle" x="1204" y="-197.5" font-family="Helvetica,sans-Serif" font-size="10.00">luaD_precall</text>
</a>
</g>
</g>
<!-- Node13&#45;&gt;Node14 -->
<g id="edge13" class="edge"><title>Node13&#45;&gt;Node14</title>
<path fill="none" stroke="midnightblue" d="M962.733,-261.464C1002.79,-251.216 1101.27,-226.023 1158.95,-211.268"/>
<polygon fill="midnightblue" stroke="midnightblue" points="1160.06,-214.598 1168.88,-208.729 1158.32,-207.816 1160.06,-214.598"/>
</g>
<!-- Node134 -->
<g id="node15" class="node"><title>Node134</title>
<g id="a_node15"><a xlink:href="lstate_8c.html#a3da163a7316194f3a2cb950ee2b4e614" target="_top" xlink:title=" ">
<polygon fill="white" stroke="black" points="1027,-294.5 1027,-313.5 1124,-313.5 1124,-294.5 1027,-294.5"/>
<text text-anchor="middle" x="1075.5" y="-301.5" font-family="Helvetica,sans-Serif" font-size="10.00">luaE_checkcstack</text>
</a>
</g>
</g>
<!-- Node13&#45;&gt;Node134 -->
<g id="edge14" class="edge"><title>Node13&#45;&gt;Node134</title>
<path fill="none" stroke="midnightblue" d="M962.735,-271.204C980.555,-276.433 1008.68,-284.687 1032.26,-291.606"/>
<polygon fill="midnightblue" stroke="midnightblue" points="1031.46,-295.019 1042.04,-294.477 1033.44,-288.302 1031.46,-295.019"/>
</g>
<!-- Node135 -->
<g id="node29" class="node"><title>Node135</title>
<g id="a_node29"><a xlink:href="lvm_8c.html#a221e6dd0bc488dc961e9007ed8e21189" target="_top" xlink:title=" ">
<polygon fill="white" stroke="red" points="1037.5,-180.5 1037.5,-199.5 1113.5,-199.5 1113.5,-180.5 1037.5,-180.5"/>
<text text-anchor="middle" x="1075.5" y="-187.5" font-family="Helvetica,sans-Serif" font-size="10.00">luaV_execute</text>
</a>
</g>
</g>
<!-- Node13&#45;&gt;Node135 -->
<g id="edge34" class="edge"><title>Node13&#45;&gt;Node135</title>
<path fill="none" stroke="midnightblue" d="M962.894,-257.604C971.585,-253.292 982.057,-247.744 991,-242 1008.05,-231.045 1009.87,-224.843 1027,-214 1032.43,-210.562 1038.42,-207.22 1044.26,-204.176"/>
<polygon fill="midnightblue" stroke="midnightblue" points="1045.85,-207.291 1053.21,-199.667 1042.7,-201.039 1045.85,-207.291"/>
</g>
<!-- Node119 -->
<g id="node16" class="node"><title>Node119</title>
<g id="a_node16"><a xlink:href="ldo_8c.html#a2b46d9db5b9ca3d5402a0c2ac640a6b0" target="_top" xlink:title=" ">
<polygon fill="white" stroke="black" points="1430,-294.5 1430,-313.5 1495,-313.5 1495,-294.5 1430,-294.5"/>
<text text-anchor="middle" x="1462.5" y="-301.5" font-family="Helvetica,sans-Serif" font-size="10.00">luaD_throw</text>
</a>
</g>
</g>
<!-- Node134&#45;&gt;Node119 -->
<g id="edge15" class="edge"><title>Node134&#45;&gt;Node119</title>
<path fill="none" stroke="midnightblue" d="M1124.09,-304C1200.13,-304 1347.74,-304 1419.84,-304"/>
<polygon fill="midnightblue" stroke="midnightblue" points="1419.91,-307.5 1429.91,-304 1419.91,-300.5 1419.91,-307.5"/>
</g>
<!-- Node21 -->
<g id="node18" class="node"><title>Node21</title>
<g id="a_node18"><a xlink:href="ldebug_8c.html#a88d38ca5da2e7a1492fc9d5ad70c32c5" target="_top" xlink:title=" ">
<polygon fill="white" stroke="black" points="1166.5,-476.5 1166.5,-495.5 1241.5,-495.5 1241.5,-476.5 1166.5,-476.5"/>
<text text-anchor="middle" x="1204" y="-483.5" font-family="Helvetica,sans-Serif" font-size="10.00">luaG_runerror</text>
</a>
</g>
</g>
<!-- Node134&#45;&gt;Node21 -->
<g id="edge19" class="edge"><title>Node134&#45;&gt;Node21</title>
<path fill="none" stroke="midnightblue" d="M1083.3,-313.785C1103.55,-342.917 1163.68,-429.423 1190.19,-467.573"/>
<polygon fill="midnightblue" stroke="midnightblue" points="1187.58,-469.953 1196.17,-476.167 1193.33,-465.958 1187.58,-469.953"/>
</g>
<!-- Node119&#45;&gt;Node9 -->
<g id="edge18" class="edge"><title>Node119&#45;&gt;Node9</title>
<path fill="none" stroke="midnightblue" d="M1449.43,-294.401C1418.27,-270.252 1331.74,-207.047 1248,-181 1195.21,-164.578 1179.25,-173.224 1124,-171 1080.92,-169.266 1070.07,-169.144 1027,-171 928.949,-175.226 905.142,-190 807,-190 665,-190 665,-190 665,-190 595.538,-190 515.077,-198.074 467.474,-203.695"/>
<polygon fill="midnightblue" stroke="midnightblue" points="466.766,-200.255 457.256,-204.924 467.602,-207.205 466.766,-200.255"/>
</g>
<!-- Node119&#45;&gt;Node119 -->
<g id="edge17" class="edge"><title>Node119&#45;&gt;Node119</title>
<path fill="none" stroke="midnightblue" d="M1443.08,-313.757C1433.63,-322.565 1440.11,-332 1462.5,-332 1476.85,-332 1484.66,-328.128 1485.94,-323.029"/>
<polygon fill="midnightblue" stroke="midnightblue" points="1489.11,-321.541 1481.92,-313.757 1482.68,-324.324 1489.11,-321.541"/>
</g>
<!-- Node119&#45;&gt;Node82 -->
<g id="edge16" class="edge"><title>Node119&#45;&gt;Node82</title>
<path fill="none" stroke="midnightblue" d="M1495.04,-304C1507.26,-304 1521.59,-304 1535.31,-304"/>
<polygon fill="midnightblue" stroke="midnightblue" points="1535.64,-307.5 1545.64,-304 1535.64,-300.5 1535.64,-307.5"/>
</g>
<!-- Node22 -->
<g id="node19" class="node"><title>Node22</title>
<g id="a_node19"><a xlink:href="ldebug_8c.html#ad6bc24d619df8e849e2ae8b00455d86f" target="_top" xlink:title=" ">
<polygon fill="white" stroke="black" points="1295.5,-530.5 1295.5,-549.5 1370.5,-549.5 1370.5,-530.5 1295.5,-530.5"/>
<text text-anchor="middle" x="1333" y="-537.5" font-family="Helvetica,sans-Serif" font-size="10.00">getcurrentline</text>
</a>
</g>
</g>
<!-- Node21&#45;&gt;Node22 -->
<g id="edge20" class="edge"><title>Node21&#45;&gt;Node22</title>
<path fill="none" stroke="midnightblue" d="M1227.41,-495.53C1247.6,-504.114 1277.5,-516.826 1300.16,-526.463"/>
<polygon fill="midnightblue" stroke="midnightblue" points="1298.81,-529.692 1309.38,-530.384 1301.55,-523.25 1298.81,-529.692"/>
</g>
<!-- Node26 -->
<g id="node22" class="node"><title>Node26</title>
<g id="a_node22"><a xlink:href="ldebug_8c.html#a7e1dc7518150bf19bd9aa5dda166a2eb" target="_top" xlink:title=" ">
<polygon fill="white" stroke="black" points="1296.5,-436.5 1296.5,-455.5 1369.5,-455.5 1369.5,-436.5 1296.5,-436.5"/>
<text text-anchor="middle" x="1333" y="-443.5" font-family="Helvetica,sans-Serif" font-size="10.00">luaG_addinfo</text>
</a>
</g>
</g>
<!-- Node21&#45;&gt;Node26 -->
<g id="edge23" class="edge"><title>Node21&#45;&gt;Node26</title>
<path fill="none" stroke="midnightblue" d="M1235.42,-476.419C1252.46,-471.051 1273.92,-464.293 1292.27,-458.512"/>
<polygon fill="midnightblue" stroke="midnightblue" points="1293.34,-461.845 1301.83,-455.503 1291.24,-455.169 1293.34,-461.845"/>
</g>
<!-- Node29 -->
<g id="node25" class="node"><title>Node29</title>
<g id="a_node25"><a xlink:href="lobject_8c.html#aa83fa444a36d79521e846a766fa083d5" target="_top" xlink:title=" ">
<polygon fill="white" stroke="red" points="1543,-483.5 1543,-502.5 1636,-502.5 1636,-483.5 1543,-483.5"/>
<text text-anchor="middle" x="1589.5" y="-490.5" font-family="Helvetica,sans-Serif" font-size="10.00">luaO_pushvfstring</text>
</a>
</g>
</g>
<!-- Node21&#45;&gt;Node29 -->
<g id="edge33" class="edge"><title>Node21&#45;&gt;Node29</title>
<path fill="none" stroke="midnightblue" d="M1241.77,-482.492C1309.14,-480.57 1452.75,-482.937 1532.39,-487.036"/>
<polygon fill="midnightblue" stroke="midnightblue" points="1532.54,-490.55 1542.72,-487.599 1532.92,-483.56 1532.54,-490.55"/>
</g>
<!-- Node118 -->
<g id="node28" class="node"><title>Node118</title>
<g id="a_node28"><a xlink:href="ldebug_8c.html#af7366920f8408bb33ed01b1d6c0e1238" target="_top" xlink:title=" ">
<polygon fill="white" stroke="black" points="1293,-332.5 1293,-351.5 1373,-351.5 1373,-332.5 1293,-332.5"/>
<text text-anchor="middle" x="1333" y="-339.5" font-family="Helvetica,sans-Serif" font-size="10.00">luaG_errormsg</text>
</a>
</g>
</g>
<!-- Node21&#45;&gt;Node118 -->
<g id="edge30" class="edge"><title>Node21&#45;&gt;Node118</title>
<path fill="none" stroke="midnightblue" d="M1213.73,-476.102C1235.04,-451.94 1289.93,-389.701 1316.77,-359.269"/>
<polygon fill="midnightblue" stroke="midnightblue" points="1319.55,-361.403 1323.54,-351.588 1314.3,-356.773 1319.55,-361.403"/>
</g>
<!-- Node23 -->
<g id="node20" class="node"><title>Node23</title>
<g id="a_node20"><a xlink:href="ldebug_8c.html#a7db2a3f5cbcf0ac3ef6d4cfa15ab4dbc" target="_top" xlink:title=" ">
<polygon fill="white" stroke="black" points="1434,-568.5 1434,-587.5 1491,-587.5 1491,-568.5 1434,-568.5"/>
<text text-anchor="middle" x="1462.5" y="-575.5" font-family="Helvetica,sans-Serif" font-size="10.00">currentpc</text>
</a>
</g>
</g>
<!-- Node22&#45;&gt;Node23 -->
<g id="edge21" class="edge"><title>Node22&#45;&gt;Node23</title>
<path fill="none" stroke="midnightblue" d="M1366.17,-549.589C1383.73,-554.82 1405.55,-561.325 1423.89,-566.79"/>
<polygon fill="midnightblue" stroke="midnightblue" points="1423.08,-570.203 1433.67,-569.705 1425.08,-563.494 1423.08,-570.203"/>
</g>
<!-- Node24 -->
<g id="node21" class="node"><title>Node24</title>
<g id="a_node21"><a xlink:href="ldebug_8c.html#ae7a6d2f88b11cc05758e44acd433ee2f" target="_top" xlink:title=" ">
<polygon fill="white" stroke="red" points="1418,-530.5 1418,-549.5 1507,-549.5 1507,-530.5 1418,-530.5"/>
<text text-anchor="middle" x="1462.5" y="-537.5" font-family="Helvetica,sans-Serif" font-size="10.00">luaG_getfuncline</text>
</a>
</g>
</g>
<!-- Node22&#45;&gt;Node24 -->
<g id="edge22" class="edge"><title>Node22&#45;&gt;Node24</title>
<path fill="none" stroke="midnightblue" d="M1370.54,-540C1382.03,-540 1394.99,-540 1407.43,-540"/>
<polygon fill="midnightblue" stroke="midnightblue" points="1407.73,-543.5 1417.73,-540 1407.73,-536.5 1407.73,-543.5"/>
</g>
<!-- Node27 -->
<g id="node23" class="node"><title>Node27</title>
<g id="a_node23"><a xlink:href="lobject_8c.html#ac331b4119bbeb45a8a7e5a1afe553b2e" target="_top" xlink:title=" ">
<polygon fill="white" stroke="black" points="1424.5,-398.5 1424.5,-417.5 1500.5,-417.5 1500.5,-398.5 1424.5,-398.5"/>
<text text-anchor="middle" x="1462.5" y="-405.5" font-family="Helvetica,sans-Serif" font-size="10.00">luaO_chunkid</text>
</a>
</g>
</g>
<!-- Node26&#45;&gt;Node27 -->
<g id="edge24" class="edge"><title>Node26&#45;&gt;Node27</title>
<path fill="none" stroke="midnightblue" d="M1366.17,-436.411C1382.33,-431.596 1402.11,-425.701 1419.45,-420.532"/>
<polygon fill="midnightblue" stroke="midnightblue" points="1420.75,-423.796 1429.34,-417.586 1418.75,-417.088 1420.75,-423.796"/>
</g>
<!-- Node28 -->
<g id="node24" class="node"><title>Node28</title>
<g id="a_node24"><a xlink:href="lobject_8c.html#a8e224db7123c74d695076a96d1bfda61" target="_top" xlink:title=" ">
<polygon fill="white" stroke="black" points="1418,-436.5 1418,-455.5 1507,-455.5 1507,-436.5 1418,-436.5"/>
<text text-anchor="middle" x="1462.5" y="-443.5" font-family="Helvetica,sans-Serif" font-size="10.00">luaO_pushfstring</text>
</a>
</g>
</g>
<!-- Node26&#45;&gt;Node28 -->
<g id="edge25" class="edge"><title>Node26&#45;&gt;Node28</title>
<path fill="none" stroke="midnightblue" d="M1369.52,-446C1381.26,-446 1394.61,-446 1407.42,-446"/>
<polygon fill="midnightblue" stroke="midnightblue" points="1407.54,-449.5 1417.54,-446 1407.54,-442.5 1407.54,-449.5"/>
</g>
<!-- Node28&#45;&gt;Node29 -->
<g id="edge26" class="edge"><title>Node28&#45;&gt;Node29</title>
<path fill="none" stroke="midnightblue" d="M1488.8,-455.511C1507.31,-462.473 1532.67,-472.009 1553.18,-479.721"/>
<polygon fill="midnightblue" stroke="midnightblue" points="1552.22,-483.098 1562.81,-483.342 1554.68,-476.546 1552.22,-483.098"/>
</g>
<!-- Node29&#45;&gt;Node21 -->
<g id="edge29" class="edge"><title>Node29&#45;&gt;Node21</title>
<path fill="none" stroke="midnightblue" d="M1542.72,-496.73C1469.41,-498.286 1326.4,-495.694 1252.2,-491.483"/>
<polygon fill="midnightblue" stroke="midnightblue" points="1251.97,-487.962 1241.77,-490.85 1251.54,-494.949 1251.97,-487.962"/>
</g>
<!-- Node30 -->
<g id="node26" class="node"><title>Node30</title>
<g id="a_node26"><a xlink:href="lobject_8c.html#a1d02fb9304e4700ce1fd20e34ae68784" target="_top" xlink:title=" ">
<polygon fill="white" stroke="red" points="1672,-502.5 1672,-521.5 1743,-521.5 1743,-502.5 1672,-502.5"/>
<text text-anchor="middle" x="1707.5" y="-509.5" font-family="Helvetica,sans-Serif" font-size="10.00">addnum2buff</text>
</a>
</g>
</g>
<!-- Node29&#45;&gt;Node30 -->
<g id="edge27" class="edge"><title>Node29&#45;&gt;Node30</title>
<path fill="none" stroke="midnightblue" d="M1636.01,-500.455C1644.5,-501.844 1653.35,-503.295 1661.81,-504.681"/>
<polygon fill="midnightblue" stroke="midnightblue" points="1661.45,-508.167 1671.88,-506.33 1662.58,-501.259 1661.45,-508.167"/>
</g>
<!-- Node116 -->
<g id="node27" class="node"><title>Node116</title>
<g id="a_node27"><a xlink:href="lobject_8c.html#a874ab64f433ee35f2197a81e10452cb1" target="_top" xlink:title=" ">
<polygon fill="white" stroke="red" points="1675.5,-464.5 1675.5,-483.5 1739.5,-483.5 1739.5,-464.5 1675.5,-464.5"/>
<text text-anchor="middle" x="1707.5" y="-471.5" font-family="Helvetica,sans-Serif" font-size="10.00">addstr2buff</text>
</a>
</g>
</g>
<!-- Node29&#45;&gt;Node116 -->
<g id="edge28" class="edge"><title>Node29&#45;&gt;Node116</title>
<path fill="none" stroke="midnightblue" d="M1636.01,-485.545C1645.71,-483.957 1655.89,-482.289 1665.41,-480.73"/>
<polygon fill="midnightblue" stroke="midnightblue" points="1666.12,-484.161 1675.42,-479.09 1664.99,-477.253 1666.12,-484.161"/>
</g>
<!-- Node118&#45;&gt;Node12 -->
<g id="edge31" class="edge"><title>Node118&#45;&gt;Node12</title>
<path fill="none" stroke="midnightblue" d="M1292.81,-341.467C1234.57,-340.245 1121.85,-336.222 1027,-323 965.935,-314.487 896.611,-298.245 852.381,-287.028"/>
<polygon fill="midnightblue" stroke="midnightblue" points="853.073,-283.593 842.518,-284.505 851.338,-290.374 853.073,-283.593"/>
</g>
<!-- Node118&#45;&gt;Node119 -->
<g id="edge32" class="edge"><title>Node118&#45;&gt;Node119</title>
<path fill="none" stroke="midnightblue" d="M1366.17,-332.411C1382.45,-327.559 1402.41,-321.611 1419.85,-316.414"/>
<polygon fill="midnightblue" stroke="midnightblue" points="1421.19,-319.665 1429.78,-313.454 1419.2,-312.956 1421.19,-319.665"/>
</g>
<!-- Node135&#45;&gt;Node9 -->
<g id="edge36" class="edge"><title>Node135&#45;&gt;Node9</title>
<path fill="none" stroke="midnightblue" d="M1037.08,-198.718C985.576,-209.937 889.791,-228 807,-228 665,-228 665,-228 665,-228 595.538,-228 515.077,-219.926 467.474,-214.305"/>
<polygon fill="midnightblue" stroke="midnightblue" points="467.602,-210.795 457.256,-213.076 466.766,-217.745 467.602,-210.795"/>
</g>
<!-- Node135&#45;&gt;Node14 -->
<g id="edge35" class="edge"><title>Node135&#45;&gt;Node14</title>
<path fill="none" stroke="midnightblue" d="M1113.77,-192.946C1127.73,-194.05 1143.73,-195.314 1158.29,-196.466"/>
<polygon fill="midnightblue" stroke="midnightblue" points="1158.35,-199.981 1168.59,-197.28 1158.9,-193.003 1158.35,-199.981"/>
</g>
<!-- Node86 -->
<g id="node30" class="node"><title>Node86</title>
<g id="a_node30"><a xlink:href="ltable_8c.html#ae8a52507e1c8966d9cf3f2dd5a0c325f" target="_top" xlink:title=" ">
<polygon fill="white" stroke="black" points="1160,-247.5 1160,-266.5 1248,-266.5 1248,-247.5 1160,-247.5"/>
<text text-anchor="middle" x="1204" y="-254.5" font-family="Helvetica,sans-Serif" font-size="10.00">luaH_getshortstr</text>
</a>
</g>
</g>
<!-- Node135&#45;&gt;Node86 -->
<g id="edge37" class="edge"><title>Node135&#45;&gt;Node86</title>
<path fill="none" stroke="midnightblue" d="M1094.62,-199.599C1115.85,-210.844 1151.24,-229.583 1175.77,-242.578"/>
<polygon fill="midnightblue" stroke="midnightblue" points="1174.43,-245.831 1184.91,-247.418 1177.71,-239.645 1174.43,-245.831"/>
</g>
<!-- Node47 -->
<g id="node31" class="node"><title>Node47</title>
<g id="a_node31"><a xlink:href="ltable_8c.html#a8f20a204b7a78780847939086b847781" target="_top" xlink:title=" ">
<polygon fill="white" stroke="black" points="1164,-85.5 1164,-104.5 1244,-104.5 1244,-85.5 1164,-85.5"/>
<text text-anchor="middle" x="1204" y="-92.5" font-family="Helvetica,sans-Serif" font-size="10.00">luaH_realasize</text>
</a>
</g>
</g>
<!-- Node135&#45;&gt;Node47 -->
<g id="edge38" class="edge"><title>Node135&#45;&gt;Node47</title>
<path fill="none" stroke="midnightblue" d="M1089.56,-180.191C1111.45,-163.751 1155.73,-130.497 1182.03,-110.749"/>
<polygon fill="midnightblue" stroke="midnightblue" points="1184.3,-113.418 1190.2,-104.614 1180.1,-107.82 1184.3,-113.418"/>
</g>
<!-- Node80&#45;&gt;Node9 -->
<g id="edge47" class="edge"><title>Node80&#45;&gt;Node9</title>
<path fill="none" stroke="midnightblue" d="M634.853,-153.303C600.011,-155.468 541.274,-161.165 493,-176 478.284,-180.522 462.806,-187.949 450.438,-194.612"/>
<polygon fill="midnightblue" stroke="midnightblue" points="448.69,-191.58 441.651,-199.498 452.092,-197.697 448.69,-191.58"/>
</g>
<!-- Node80&#45;&gt;Node82 -->
<g id="edge41" class="edge"><title>Node80&#45;&gt;Node82</title>
<path fill="none" stroke="midnightblue" d="M678.536,-142.457C694.109,-129.991 723.127,-108.203 751,-95 831.445,-56.8926 853.986,-38 943,-38 943,-38 943,-38 1334,-38 1470.56,-38 1556.46,-223.307 1581.13,-284.588"/>
<polygon fill="midnightblue" stroke="midnightblue" points="1578,-286.187 1584.91,-294.217 1584.51,-283.63 1578,-286.187"/>
</g>
<!-- Node81 -->
<g id="node33" class="node"><title>Node81</title>
<g id="a_node33"><a xlink:href="ldo_8c.html#ab0872b1738a995ecbf1cdc8a9bc0fdf6" target="_top" xlink:title=" ">
<polygon fill="white" stroke="black" points="751,-142.5 751,-161.5 861,-161.5 861,-142.5 751,-142.5"/>
<text text-anchor="middle" x="806" y="-149.5" font-family="Helvetica,sans-Serif" font-size="10.00">luaD_rawrunprotected</text>
</a>
</g>
</g>
<!-- Node80&#45;&gt;Node81 -->
<g id="edge40" class="edge"><title>Node80&#45;&gt;Node81</title>
<path fill="none" stroke="midnightblue" d="M697.285,-152C710.049,-152 725.426,-152 740.514,-152"/>
<polygon fill="midnightblue" stroke="midnightblue" points="740.878,-155.5 750.878,-152 740.878,-148.5 740.878,-155.5"/>
</g>
<!-- Node62 -->
<g id="node34" class="node"><title>Node62</title>
<g id="a_node34"><a xlink:href="ldo_8c.html#a219aa86777779dccae2c1bf9008db70a" target="_top" xlink:title=" ">
<polygon fill="white" stroke="black" points="760,-104.5 760,-123.5 852,-123.5 852,-104.5 760,-104.5"/>
<text text-anchor="middle" x="806" y="-111.5" font-family="Helvetica,sans-Serif" font-size="10.00">luaD_shrinkstack</text>
</a>
</g>
</g>
<!-- Node80&#45;&gt;Node62 -->
<g id="edge42" class="edge"><title>Node80&#45;&gt;Node62</title>
<path fill="none" stroke="midnightblue" d="M697.285,-143.661C715.831,-138.554 739.894,-131.928 760.571,-126.234"/>
<polygon fill="midnightblue" stroke="midnightblue" points="761.699,-129.554 770.411,-123.525 759.84,-122.805 761.699,-129.554"/>
</g>
<!-- Node63 -->
<g id="node35" class="node"><title>Node63</title>
<g id="a_node35"><a xlink:href="ldo_8c.html#a75b8b0016e9182d4fd9f71c1a7238e8a" target="_top" xlink:title=" ">
<polygon fill="white" stroke="black" points="897,-66.5 897,-85.5 991,-85.5 991,-66.5 897,-66.5"/>
<text text-anchor="middle" x="944" y="-73.5" font-family="Helvetica,sans-Serif" font-size="10.00">luaD_reallocstack</text>
</a>
</g>
</g>
<!-- Node62&#45;&gt;Node63 -->
<g id="edge43" class="edge"><title>Node62&#45;&gt;Node63</title>
<path fill="none" stroke="midnightblue" d="M841.319,-104.411C858.794,-99.5281 880.241,-93.5357 898.925,-88.315"/>
<polygon fill="midnightblue" stroke="midnightblue" points="900.003,-91.6479 908.692,-85.5859 898.119,-84.9062 900.003,-91.6479"/>
</g>
<!-- Node65 -->
<g id="node37" class="node"><title>Node65</title>
<g id="a_node37"><a xlink:href="lstate_8c.html#a59bcd5586c176d9e24bcdf9e4d07adbe" target="_top" xlink:title=" ">
<polygon fill="white" stroke="black" points="905.5,-142.5 905.5,-161.5 982.5,-161.5 982.5,-142.5 905.5,-142.5"/>
<text text-anchor="middle" x="944" y="-149.5" font-family="Helvetica,sans-Serif" font-size="10.00">luaE_shrinkCI</text>
</a>
</g>
</g>
<!-- Node62&#45;&gt;Node65 -->
<g id="edge45" class="edge"><title>Node62&#45;&gt;Node65</title>
<path fill="none" stroke="midnightblue" d="M841.319,-123.589C858.794,-128.472 880.241,-134.464 898.925,-139.685"/>
<polygon fill="midnightblue" stroke="midnightblue" points="898.119,-143.094 908.692,-142.414 900.003,-136.352 898.119,-143.094"/>
</g>
<!-- Node66 -->
<g id="node38" class="node"><title>Node66</title>
<g id="a_node38"><a xlink:href="ldo_8c.html#ac2956ef8f7aba184c6591001f2017a54" target="_top" xlink:title=" ">
<polygon fill="white" stroke="black" points="912,-104.5 912,-123.5 976,-123.5 976,-104.5 912,-104.5"/>
<text text-anchor="middle" x="944" y="-111.5" font-family="Helvetica,sans-Serif" font-size="10.00">stackinuse</text>
</a>
</g>
</g>
<!-- Node62&#45;&gt;Node66 -->
<g id="edge46" class="edge"><title>Node62&#45;&gt;Node66</title>
<path fill="none" stroke="midnightblue" d="M852.286,-114C868.107,-114 885.782,-114 901.297,-114"/>
<polygon fill="midnightblue" stroke="midnightblue" points="901.644,-117.5 911.644,-114 901.644,-110.5 901.644,-117.5"/>
</g>
<!-- Node64 -->
<g id="node36" class="node"><title>Node64</title>
<g id="a_node36"><a xlink:href="ldo_8c.html#abe8cdd4f21dcfe427288c98e02070795" target="_top" xlink:title=" ">
<polygon fill="white" stroke="black" points="1040,-104.5 1040,-123.5 1111,-123.5 1111,-104.5 1040,-104.5"/>
<text text-anchor="middle" x="1075.5" y="-111.5" font-family="Helvetica,sans-Serif" font-size="10.00">correctstack</text>
</a>
</g>
</g>
<!-- Node63&#45;&gt;Node64 -->
<g id="edge44" class="edge"><title>Node63&#45;&gt;Node64</title>
<path fill="none" stroke="midnightblue" d="M977.678,-85.589C994.089,-90.4044 1014.18,-96.2988 1031.79,-101.468"/>
<polygon fill="midnightblue" stroke="midnightblue" points="1031.25,-104.957 1041.83,-104.414 1033.22,-98.2399 1031.25,-104.957"/>
</g>
<!-- Node84 -->
<g id="node40" class="node"><title>Node84</title>
<g id="a_node40"><a xlink:href="lstate_8c.html#a7055cc5e36512e37c811a7d5c6fa0be6" target="_top" xlink:title=" ">
<polygon fill="white" stroke="black" points="769,-408.5 769,-427.5 843,-427.5 843,-408.5 769,-408.5"/>
<text text-anchor="middle" x="806" y="-415.5" font-family="Helvetica,sans-Serif" font-size="10.00">luaE_warning</text>
</a>
</g>
</g>
<!-- Node83&#45;&gt;Node84 -->
<g id="edge50" class="edge"><title>Node83&#45;&gt;Node84</title>
<path fill="none" stroke="midnightblue" d="M706.545,-418C722.771,-418 741.671,-418 758.549,-418"/>
<polygon fill="midnightblue" stroke="midnightblue" points="758.755,-421.5 768.755,-418 758.755,-414.5 758.755,-421.5"/>
</g>
<!-- Node85 -->
<g id="node42" class="node"><title>Node85</title>
<g id="a_node42"><a xlink:href="ltm_8c.html#a0a3a3df9d6e7f17d806f74d411e59b2d" target="_top" xlink:title=" ">
<polygon fill="white" stroke="black" points="900,-332.5 900,-351.5 988,-351.5 988,-332.5 900,-332.5"/>
<text text-anchor="middle" x="944" y="-339.5" font-family="Helvetica,sans-Serif" font-size="10.00">luaT_gettmbyobj</text>
</a>
</g>
</g>
<!-- Node413&#45;&gt;Node85 -->
<g id="edge52" class="edge"><title>Node413&#45;&gt;Node85</title>
<path fill="none" stroke="midnightblue" d="M715.076,-322.18C763.769,-326.415 838.919,-332.949 889.479,-337.346"/>
<polygon fill="midnightblue" stroke="midnightblue" points="889.296,-340.843 899.562,-338.223 889.903,-333.87 889.296,-340.843"/>
</g>
<!-- Node85&#45;&gt;Node86 -->
<g id="edge53" class="edge"><title>Node85&#45;&gt;Node86</title>
<path fill="none" stroke="midnightblue" d="M955.725,-332.117C970.55,-319.062 998.692,-296.392 1027,-285 1066.32,-269.178 1113.95,-262.271 1149.74,-259.269"/>
<polygon fill="midnightblue" stroke="midnightblue" points="1150.27,-262.739 1159.97,-258.489 1149.74,-255.759 1150.27,-262.739"/>
</g>
<!-- Node416&#45;&gt;Node21 -->
<g id="edge59" class="edge"><title>Node416&#45;&gt;Node21</title>
<path fill="none" stroke="midnightblue" d="M1099.7,-486C1115.42,-486 1136.75,-486 1155.94,-486"/>
<polygon fill="midnightblue" stroke="midnightblue" points="1156.04,-489.5 1166.04,-486 1156.04,-482.5 1156.04,-489.5"/>
</g>
<!-- Node417 -->
<g id="node44" class="node"><title>Node417</title>
<g id="a_node44"><a xlink:href="ldebug_8c.html#acf87581237e7d0072502ffc5092e8329" target="_top" xlink:title=" ">
<polygon fill="white" stroke="black" points="1165.5,-587.5 1165.5,-606.5 1242.5,-606.5 1242.5,-587.5 1165.5,-587.5"/>
<text text-anchor="middle" x="1204" y="-594.5" font-family="Helvetica,sans-Serif" font-size="10.00">luaG_findlocal</text>
</a>
</g>
</g>
<!-- Node416&#45;&gt;Node417 -->
<g id="edge55" class="edge"><title>Node416&#45;&gt;Node417</title>
<path fill="none" stroke="midnightblue" d="M1087.73,-495.851C1109.54,-514.988 1157.82,-557.36 1184.46,-580.733"/>
<polygon fill="midnightblue" stroke="midnightblue" points="1182.15,-583.365 1191.98,-587.33 1186.77,-578.104 1182.15,-583.365"/>
</g>
<!-- Node417&#45;&gt;Node23 -->
<g id="edge56" class="edge"><title>Node417&#45;&gt;Node23</title>
<path fill="none" stroke="midnightblue" d="M1242.57,-594.217C1291.06,-590.625 1374.94,-584.412 1423.59,-580.808"/>
<polygon fill="midnightblue" stroke="midnightblue" points="1423.99,-584.288 1433.7,-580.059 1423.47,-577.307 1423.99,-584.288"/>
</g>
<!-- Node418 -->
<g id="node45" class="node"><title>Node418</title>
<g id="a_node45"><a xlink:href="ldebug_8c.html#adde29da645f7256cd7b78dafeec64cc1" target="_top" xlink:title=" ">
<polygon fill="white" stroke="black" points="1304.5,-644.5 1304.5,-663.5 1361.5,-663.5 1361.5,-644.5 1304.5,-644.5"/>
<text text-anchor="middle" x="1333" y="-651.5" font-family="Helvetica,sans-Serif" font-size="10.00">findvararg</text>
</a>
</g>
</g>
<!-- Node417&#45;&gt;Node418 -->
<g id="edge57" class="edge"><title>Node417&#45;&gt;Node418</title>
<path fill="none" stroke="midnightblue" d="M1223.98,-606.6C1239.87,-614.525 1263.23,-625.906 1284,-635 1288.39,-636.921 1293.03,-638.867 1297.64,-640.745"/>
<polygon fill="midnightblue" stroke="midnightblue" points="1296.36,-644.003 1306.95,-644.474 1298.97,-637.506 1296.36,-644.003"/>
</g>
<!-- Node129 -->
<g id="node46" class="node"><title>Node129</title>
<g id="a_node46"><a xlink:href="lfunc_8c.html#aaa3cd5bc3901e7edf1ac428151cdfe8c" target="_top" xlink:title=" ">
<polygon fill="white" stroke="black" points="1284,-606.5 1284,-625.5 1382,-625.5 1382,-606.5 1284,-606.5"/>
<text text-anchor="middle" x="1333" y="-613.5" font-family="Helvetica,sans-Serif" font-size="10.00">luaF_getlocalname</text>
</a>
</g>
</g>
<!-- Node417&#45;&gt;Node129 -->
<g id="edge58" class="edge"><title>Node417&#45;&gt;Node129</title>
<path fill="none" stroke="midnightblue" d="M1242.76,-602.649C1252.51,-604.108 1263.24,-605.713 1273.77,-607.289"/>
<polygon fill="midnightblue" stroke="midnightblue" points="1273.36,-610.767 1283.77,-608.785 1274.4,-603.844 1273.36,-610.767"/>
</g>
<!-- Node441&#45;&gt;Node47 -->
<g id="edge64" class="edge"><title>Node441&#45;&gt;Node47</title>
<path fill="none" stroke="midnightblue" d="M336.884,-95.3903C343.342,-92.4004 350.473,-89.0803 357,-86 436.82,-48.3328 447.739,-0 536,-0 536,-0 536,-0 807,-0 945.196,-1.42109e-014 1103.22,-55.3841 1170.23,-81.5766"/>
<polygon fill="midnightblue" stroke="midnightblue" points="1169.23,-84.9442 1179.81,-85.3681 1171.8,-78.435 1169.23,-84.9442"/>
</g>
<!-- Node189 -->
<g id="node49" class="node"><title>Node189</title>
<g id="a_node49"><a xlink:href="ltable_8c.html#aa2eece9a18d44f30d4a7b7030816bb63" target="_top" xlink:title=" ">
<polygon fill="white" stroke="black" points="398.5,-95.5 398.5,-114.5 451.5,-114.5 451.5,-95.5 398.5,-95.5"/>
<text text-anchor="middle" x="425" y="-102.5" font-family="Helvetica,sans-Serif" font-size="10.00">freehash</text>
</a>
</g>
</g>
<!-- Node441&#45;&gt;Node189 -->
<g id="edge63" class="edge"><title>Node441&#45;&gt;Node189</title>
<path fill="none" stroke="midnightblue" d="M343.532,-105C357.111,-105 373.655,-105 388.203,-105"/>
<polygon fill="midnightblue" stroke="midnightblue" points="388.372,-108.5 398.372,-105 388.372,-101.5 388.372,-108.5"/>
</g>
</g>
</svg>
