<?xml version="1.0" encoding="UTF-8" standalone="no"?>
<!DOCTYPE svg PUBLIC "-//W3C//DTD SVG 1.1//EN"
 "http://www.w3.org/Graphics/SVG/1.1/DTD/svg11.dtd">
<!-- Generated by graphviz version 2.38.0 (20140413.2041)
 -->
<!-- Title: propagatemark Pages: 1 -->
<svg width="585pt" height="332pt"
 viewBox="0.00 0.00 585.00 332.00" xmlns="http://www.w3.org/2000/svg" xmlns:xlink="http://www.w3.org/1999/xlink">
<g id="graph0" class="graph" transform="scale(1 1) rotate(0) translate(4 328)">
<title>propagatemark</title>
<polygon fill="white" stroke="none" points="-4,4 -4,-328 581,-328 581,4 -4,4"/>
<!-- Node1 -->
<g id="node1" class="node"><title>Node1</title>
<g id="a_node1"><a xlink:title=" ">
<polygon fill="#bfbfbf" stroke="black" points="0,-190.5 0,-209.5 81,-209.5 81,-190.5 0,-190.5"/>
<text text-anchor="middle" x="40.5" y="-197.5" font-family="Helvetica,sans-Serif" font-size="10.00">propagatemark</text>
</a>
</g>
</g>
<!-- Node2 -->
<g id="node2" class="node"><title>Node2</title>
<g id="a_node2"><a xlink:href="lgc_8c.html#a10a95d9a52dbdb6f36c090f5e2870007" target="_top" xlink:title=" ">
<polygon fill="white" stroke="black" points="135,-304.5 135,-323.5 188,-323.5 188,-304.5 135,-304.5"/>
<text text-anchor="middle" x="161.5" y="-311.5" font-family="Helvetica,sans-Serif" font-size="10.00">getgclist</text>
</a>
</g>
</g>
<!-- Node1&#45;&gt;Node2 -->
<g id="edge1" class="edge"><title>Node1&#45;&gt;Node2</title>
<path fill="none" stroke="midnightblue" d="M46.9392,-209.634C57.9487,-228.376 84.6011,-270.086 117,-295 119.762,-297.124 122.799,-299.065 125.943,-300.825"/>
<polygon fill="midnightblue" stroke="midnightblue" points="124.442,-303.987 134.954,-305.309 127.561,-297.72 124.442,-303.987"/>
</g>
<!-- Node3 -->
<g id="node3" class="node"><title>Node3</title>
<g id="a_node3"><a xlink:href="lgc_8c.html#aa85f9809abfe94fcd3bbec6e2c46b104" target="_top" xlink:title=" ">
<polygon fill="white" stroke="black" points="117,-266.5 117,-285.5 206,-285.5 206,-266.5 117,-266.5"/>
<text text-anchor="middle" x="161.5" y="-273.5" font-family="Helvetica,sans-Serif" font-size="10.00">traverseCclosure</text>
</a>
</g>
</g>
<!-- Node1&#45;&gt;Node3 -->
<g id="edge2" class="edge"><title>Node1&#45;&gt;Node3</title>
<path fill="none" stroke="midnightblue" d="M52.6758,-209.777C66.916,-221.91 92.6159,-242.738 117,-257 120.008,-258.759 123.209,-260.456 126.457,-262.062"/>
<polygon fill="midnightblue" stroke="midnightblue" points="125.072,-265.278 135.614,-266.328 128.028,-258.933 125.072,-265.278"/>
</g>
<!-- Node4 -->
<g id="node4" class="node"><title>Node4</title>
<g id="a_node4"><a xlink:href="lgc_8c.html#a61e584daad5b6a41777ade0e72e559b3" target="_top" xlink:title=" ">
<polygon fill="white" stroke="black" points="118,-228.5 118,-247.5 205,-247.5 205,-228.5 118,-228.5"/>
<text text-anchor="middle" x="161.5" y="-235.5" font-family="Helvetica,sans-Serif" font-size="10.00">traverseLclosure</text>
</a>
</g>
</g>
<!-- Node1&#45;&gt;Node4 -->
<g id="edge3" class="edge"><title>Node1&#45;&gt;Node4</title>
<path fill="none" stroke="midnightblue" d="M71.5287,-209.589C86.4677,-214.359 104.723,-220.189 120.801,-225.323"/>
<polygon fill="midnightblue" stroke="midnightblue" points="119.89,-228.706 130.481,-228.414 122.019,-222.038 119.89,-228.706"/>
</g>
<!-- Node5 -->
<g id="node5" class="node"><title>Node5</title>
<g id="a_node5"><a xlink:href="lgc_8c.html#a19be424be90fc7025deae5ccfdcab62b" target="_top" xlink:title=" ">
<polygon fill="white" stroke="black" points="125.5,-190.5 125.5,-209.5 197.5,-209.5 197.5,-190.5 125.5,-190.5"/>
<text text-anchor="middle" x="161.5" y="-197.5" font-family="Helvetica,sans-Serif" font-size="10.00">traverseproto</text>
</a>
</g>
</g>
<!-- Node1&#45;&gt;Node5 -->
<g id="edge4" class="edge"><title>Node1&#45;&gt;Node5</title>
<path fill="none" stroke="midnightblue" d="M81.1253,-200C92.0995,-200 104.093,-200 115.356,-200"/>
<polygon fill="midnightblue" stroke="midnightblue" points="115.445,-203.5 125.445,-200 115.445,-196.5 115.445,-203.5"/>
</g>
<!-- Node6 -->
<g id="node6" class="node"><title>Node6</title>
<g id="a_node6"><a xlink:href="lgc_8c.html#a86c4c1008df3c908a9cca3cf72abc195" target="_top" xlink:title=" ">
<polygon fill="white" stroke="black" points="126,-152.5 126,-171.5 197,-171.5 197,-152.5 126,-152.5"/>
<text text-anchor="middle" x="161.5" y="-159.5" font-family="Helvetica,sans-Serif" font-size="10.00">traversetable</text>
</a>
</g>
</g>
<!-- Node1&#45;&gt;Node6 -->
<g id="edge5" class="edge"><title>Node1&#45;&gt;Node6</title>
<path fill="none" stroke="midnightblue" d="M71.5287,-190.411C86.4677,-185.641 104.723,-179.811 120.801,-174.677"/>
<polygon fill="midnightblue" stroke="midnightblue" points="122.019,-177.962 130.481,-171.586 119.89,-171.294 122.019,-177.962"/>
</g>
<!-- Node15 -->
<g id="node15" class="node"><title>Node15</title>
<g id="a_node15"><a xlink:href="lgc_8c.html#a5759d7a25445fd28e24980d7f35a99b2" target="_top" xlink:title=" ">
<polygon fill="white" stroke="black" points="123,-67.5 123,-86.5 200,-86.5 200,-67.5 123,-67.5"/>
<text text-anchor="middle" x="161.5" y="-74.5" font-family="Helvetica,sans-Serif" font-size="10.00">traversethread</text>
</a>
</g>
</g>
<!-- Node1&#45;&gt;Node15 -->
<g id="edge19" class="edge"><title>Node1&#45;&gt;Node15</title>
<path fill="none" stroke="midnightblue" d="M48.3713,-190.467C60.941,-173.354 88.9362,-136.721 117,-110 123.372,-103.933 130.841,-97.9278 137.775,-92.7368"/>
<polygon fill="midnightblue" stroke="midnightblue" points="140.114,-95.363 146.148,-86.6537 136,-89.6998 140.114,-95.363"/>
</g>
<!-- Node21 -->
<g id="node21" class="node"><title>Node21</title>
<g id="a_node21"><a xlink:href="lgc_8c.html#a7a5280b620352ed9282f78028779c968" target="_top" xlink:title=" ">
<polygon fill="white" stroke="black" points="254,-114.5 254,-133.5 328,-133.5 328,-114.5 254,-114.5"/>
<text text-anchor="middle" x="291" y="-121.5" font-family="Helvetica,sans-Serif" font-size="10.00">traverseudata</text>
</a>
</g>
</g>
<!-- Node1&#45;&gt;Node21 -->
<g id="edge25" class="edge"><title>Node1&#45;&gt;Node21</title>
<path fill="none" stroke="midnightblue" d="M50.6889,-190.355C63.9421,-177.132 89.8299,-153.79 117,-143 157.766,-126.81 207.929,-122.872 243.723,-122.497"/>
<polygon fill="midnightblue" stroke="midnightblue" points="243.885,-125.997 253.879,-122.481 243.874,-118.997 243.885,-125.997"/>
</g>
<!-- Node7 -->
<g id="node7" class="node"><title>Node7</title>
<g id="a_node7"><a xlink:href="lgc_8c.html#aad4294f43d919ea5950d992599d1a445" target="_top" xlink:title=" ">
<polygon fill="white" stroke="black" points="242,-190.5 242,-209.5 340,-209.5 340,-190.5 242,-190.5"/>
<text text-anchor="middle" x="291" y="-197.5" font-family="Helvetica,sans-Serif" font-size="10.00">traverseephemeron</text>
</a>
</g>
</g>
<!-- Node6&#45;&gt;Node7 -->
<g id="edge6" class="edge"><title>Node6&#45;&gt;Node7</title>
<path fill="none" stroke="midnightblue" d="M194.674,-171.589C210.831,-176.404 230.608,-182.299 247.952,-187.468"/>
<polygon fill="midnightblue" stroke="midnightblue" points="247.254,-190.912 257.837,-190.414 249.253,-184.204 247.254,-190.912"/>
</g>
<!-- Node13 -->
<g id="node13" class="node"><title>Node13</title>
<g id="a_node13"><a xlink:href="lgc_8c.html#a3c018ffdc54c29a2ff8f44d32703a7c6" target="_top" xlink:title=" ">
<polygon fill="white" stroke="black" points="242,-152.5 242,-171.5 340,-171.5 340,-152.5 242,-152.5"/>
<text text-anchor="middle" x="291" y="-159.5" font-family="Helvetica,sans-Serif" font-size="10.00">traversestrongtable</text>
</a>
</g>
</g>
<!-- Node6&#45;&gt;Node13 -->
<g id="edge12" class="edge"><title>Node6&#45;&gt;Node13</title>
<path fill="none" stroke="midnightblue" d="M197.003,-162C207.613,-162 219.602,-162 231.358,-162"/>
<polygon fill="midnightblue" stroke="midnightblue" points="231.589,-165.5 241.589,-162 231.589,-158.5 231.589,-165.5"/>
</g>
<!-- Node14 -->
<g id="node14" class="node"><title>Node14</title>
<g id="a_node14"><a xlink:href="lgc_8c.html#ae8dc436daacca264cf45cb9652c68430" target="_top" xlink:title=" ">
<polygon fill="white" stroke="black" points="243.5,-228.5 243.5,-247.5 338.5,-247.5 338.5,-228.5 243.5,-228.5"/>
<text text-anchor="middle" x="291" y="-235.5" font-family="Helvetica,sans-Serif" font-size="10.00">traverseweakvalue</text>
</a>
</g>
</g>
<!-- Node6&#45;&gt;Node14 -->
<g id="edge16" class="edge"><title>Node6&#45;&gt;Node14</title>
<path fill="none" stroke="midnightblue" d="M189.172,-171.633C194.958,-174.265 200.874,-177.401 206,-181 225.04,-194.368 222.729,-205.967 242,-219 244.747,-220.858 247.702,-222.575 250.749,-224.155"/>
<polygon fill="midnightblue" stroke="midnightblue" points="249.5,-227.434 260.044,-228.479 252.453,-221.087 249.5,-227.434"/>
</g>
<!-- Node8 -->
<g id="node8" class="node"><title>Node8</title>
<g id="a_node8"><a xlink:href="lgc_8c.html#ae5b5bd4c69910951078ac627fa1654da" target="_top" xlink:title=" ">
<polygon fill="white" stroke="black" points="396.5,-190.5 396.5,-209.5 449.5,-209.5 449.5,-190.5 396.5,-190.5"/>
<text text-anchor="middle" x="423" y="-197.5" font-family="Helvetica,sans-Serif" font-size="10.00">clearkey</text>
</a>
</g>
</g>
<!-- Node7&#45;&gt;Node8 -->
<g id="edge7" class="edge"><title>Node7&#45;&gt;Node8</title>
<path fill="none" stroke="midnightblue" d="M340.038,-200C355.254,-200 371.803,-200 386.022,-200"/>
<polygon fill="midnightblue" stroke="midnightblue" points="386.379,-203.5 396.379,-200 386.379,-196.5 386.379,-203.5"/>
</g>
<!-- Node9 -->
<g id="node9" class="node"><title>Node9</title>
<g id="a_node9"><a xlink:href="lgc_8c.html#a59186fdb26bd492886fdc8c3ffd17232" target="_top" xlink:title=" ">
<polygon fill="white" stroke="black" points="399.5,-114.5 399.5,-133.5 446.5,-133.5 446.5,-114.5 399.5,-114.5"/>
<text text-anchor="middle" x="423" y="-121.5" font-family="Helvetica,sans-Serif" font-size="10.00">genlink</text>
</a>
</g>
</g>
<!-- Node7&#45;&gt;Node9 -->
<g id="edge8" class="edge"><title>Node7&#45;&gt;Node9</title>
<path fill="none" stroke="midnightblue" d="M321.956,-190.479C328.178,-187.871 334.506,-184.716 340,-181 359.271,-167.967 356.826,-156.176 376,-143 380.144,-140.153 384.78,-137.618 389.471,-135.401"/>
<polygon fill="midnightblue" stroke="midnightblue" points="391.226,-138.457 399.037,-131.298 388.467,-132.024 391.226,-138.457"/>
</g>
<!-- Node10 -->
<g id="node10" class="node"><title>Node10</title>
<g id="a_node10"><a xlink:href="lgc_8c.html#acae02b6cdb8288e654682baf4117e8ab" target="_top" xlink:title=" ">
<polygon fill="white" stroke="black" points="395,-266.5 395,-285.5 451,-285.5 451,-266.5 395,-266.5"/>
<text text-anchor="middle" x="423" y="-273.5" font-family="Helvetica,sans-Serif" font-size="10.00">iscleared</text>
</a>
</g>
</g>
<!-- Node7&#45;&gt;Node10 -->
<g id="edge9" class="edge"><title>Node7&#45;&gt;Node10</title>
<path fill="none" stroke="midnightblue" d="M321.956,-209.521C328.178,-212.129 334.506,-215.284 340,-219 359.271,-232.033 356.826,-243.824 376,-257 378.938,-259.019 382.123,-260.88 385.4,-262.582"/>
<polygon fill="midnightblue" stroke="midnightblue" points="384.206,-265.888 394.747,-266.958 387.174,-259.548 384.206,-265.888"/>
</g>
<!-- Node11 -->
<g id="node11" class="node"><title>Node11</title>
<g id="a_node11"><a xlink:href="ltable_8c.html#a8f20a204b7a78780847939086b847781" target="_top" xlink:title=" ">
<polygon fill="white" stroke="black" points="383,-152.5 383,-171.5 463,-171.5 463,-152.5 383,-152.5"/>
<text text-anchor="middle" x="423" y="-159.5" font-family="Helvetica,sans-Serif" font-size="10.00">luaH_realasize</text>
</a>
</g>
</g>
<!-- Node7&#45;&gt;Node11 -->
<g id="edge10" class="edge"><title>Node7&#45;&gt;Node11</title>
<path fill="none" stroke="midnightblue" d="M324.804,-190.411C341.278,-185.596 361.443,-179.701 379.127,-174.532"/>
<polygon fill="midnightblue" stroke="midnightblue" points="380.59,-177.751 389.206,-171.586 378.626,-171.032 380.59,-177.751"/>
</g>
<!-- Node12 -->
<g id="node12" class="node"><title>Node12</title>
<g id="a_node12"><a xlink:href="lgc_8c.html#aacf3c8ee0eebd5d5b1cd09da000ad53c" target="_top" xlink:title=" ">
<polygon fill="white" stroke="black" points="379,-228.5 379,-247.5 467,-247.5 467,-228.5 379,-228.5"/>
<text text-anchor="middle" x="423" y="-235.5" font-family="Helvetica,sans-Serif" font-size="10.00">reallymarkobject</text>
</a>
</g>
</g>
<!-- Node7&#45;&gt;Node12 -->
<g id="edge11" class="edge"><title>Node7&#45;&gt;Node12</title>
<path fill="none" stroke="midnightblue" d="M324.804,-209.589C341.278,-214.404 361.443,-220.299 379.127,-225.468"/>
<polygon fill="midnightblue" stroke="midnightblue" points="378.626,-228.968 389.206,-228.414 380.59,-222.249 378.626,-228.968"/>
</g>
<!-- Node13&#45;&gt;Node8 -->
<g id="edge13" class="edge"><title>Node13&#45;&gt;Node8</title>
<path fill="none" stroke="midnightblue" d="M324.804,-171.589C343.636,-177.094 367.291,-184.008 386.549,-189.637"/>
<polygon fill="midnightblue" stroke="midnightblue" points="385.59,-193.004 396.17,-192.45 387.554,-186.285 385.59,-193.004"/>
</g>
<!-- Node13&#45;&gt;Node9 -->
<g id="edge14" class="edge"><title>Node13&#45;&gt;Node9</title>
<path fill="none" stroke="midnightblue" d="M324.804,-152.411C344.661,-146.607 369.88,-139.235 389.653,-133.455"/>
<polygon fill="midnightblue" stroke="midnightblue" points="390.823,-136.76 399.439,-130.595 388.859,-130.041 390.823,-136.76"/>
</g>
<!-- Node13&#45;&gt;Node11 -->
<g id="edge15" class="edge"><title>Node13&#45;&gt;Node11</title>
<path fill="none" stroke="midnightblue" d="M340.038,-162C350.671,-162 361.956,-162 372.641,-162"/>
<polygon fill="midnightblue" stroke="midnightblue" points="372.661,-165.5 382.661,-162 372.661,-158.5 372.661,-165.5"/>
</g>
<!-- Node14&#45;&gt;Node8 -->
<g id="edge17" class="edge"><title>Node14&#45;&gt;Node8</title>
<path fill="none" stroke="midnightblue" d="M324.804,-228.411C343.636,-222.906 367.291,-215.992 386.549,-210.363"/>
<polygon fill="midnightblue" stroke="midnightblue" points="387.554,-213.715 396.17,-207.55 385.59,-206.996 387.554,-213.715"/>
</g>
<!-- Node14&#45;&gt;Node10 -->
<g id="edge18" class="edge"><title>Node14&#45;&gt;Node10</title>
<path fill="none" stroke="midnightblue" d="M324.804,-247.589C343.167,-252.957 366.116,-259.665 385.102,-265.215"/>
<polygon fill="midnightblue" stroke="midnightblue" points="384.326,-268.634 394.906,-268.08 386.29,-261.915 384.326,-268.634"/>
</g>
<!-- Node16 -->
<g id="node16" class="node"><title>Node16</title>
<g id="a_node16"><a xlink:href="ldo_8c.html#a219aa86777779dccae2c1bf9008db70a" target="_top" xlink:title=" ">
<polygon fill="white" stroke="black" points="245,-57.5 245,-76.5 337,-76.5 337,-57.5 245,-57.5"/>
<text text-anchor="middle" x="291" y="-64.5" font-family="Helvetica,sans-Serif" font-size="10.00">luaD_shrinkstack</text>
</a>
</g>
</g>
<!-- Node15&#45;&gt;Node16 -->
<g id="edge20" class="edge"><title>Node15&#45;&gt;Node16</title>
<path fill="none" stroke="midnightblue" d="M200.065,-74.0538C210.859,-73.2071 222.866,-72.2654 234.5,-71.3529"/>
<polygon fill="midnightblue" stroke="midnightblue" points="234.893,-74.833 244.588,-70.5617 234.345,-67.8544 234.893,-74.833"/>
</g>
<!-- Node17 -->
<g id="node17" class="node"><title>Node17</title>
<g id="a_node17"><a xlink:href="ldo_8c.html#a75b8b0016e9182d4fd9f71c1a7238e8a" target="_top" xlink:title=" ">
<polygon fill="white" stroke="black" points="376,-76.5 376,-95.5 470,-95.5 470,-76.5 376,-76.5"/>
<text text-anchor="middle" x="423" y="-83.5" font-family="Helvetica,sans-Serif" font-size="10.00">luaD_reallocstack</text>
</a>
</g>
</g>
<!-- Node16&#45;&gt;Node17 -->
<g id="edge21" class="edge"><title>Node16&#45;&gt;Node17</title>
<path fill="none" stroke="midnightblue" d="M337.103,-73.592C346.258,-74.93 355.996,-76.3533 365.489,-77.7407"/>
<polygon fill="midnightblue" stroke="midnightblue" points="365.252,-81.2432 375.653,-79.2263 366.265,-74.3168 365.252,-81.2432"/>
</g>
<!-- Node19 -->
<g id="node19" class="node"><title>Node19</title>
<g id="a_node19"><a xlink:href="lstate_8c.html#a59bcd5586c176d9e24bcdf9e4d07adbe" target="_top" xlink:title=" ">
<polygon fill="white" stroke="black" points="384.5,-38.5 384.5,-57.5 461.5,-57.5 461.5,-38.5 384.5,-38.5"/>
<text text-anchor="middle" x="423" y="-45.5" font-family="Helvetica,sans-Serif" font-size="10.00">luaE_shrinkCI</text>
</a>
</g>
</g>
<!-- Node16&#45;&gt;Node19 -->
<g id="edge23" class="edge"><title>Node16&#45;&gt;Node19</title>
<path fill="none" stroke="midnightblue" d="M337.103,-60.408C349.134,-58.6496 362.172,-56.7441 374.336,-54.9662"/>
<polygon fill="midnightblue" stroke="midnightblue" points="374.919,-58.4184 384.307,-53.5089 373.906,-51.492 374.919,-58.4184"/>
</g>
<!-- Node20 -->
<g id="node20" class="node"><title>Node20</title>
<g id="a_node20"><a xlink:href="ldo_8c.html#ac2956ef8f7aba184c6591001f2017a54" target="_top" xlink:title=" ">
<polygon fill="white" stroke="black" points="391,-0.5 391,-19.5 455,-19.5 455,-0.5 391,-0.5"/>
<text text-anchor="middle" x="423" y="-7.5" font-family="Helvetica,sans-Serif" font-size="10.00">stackinuse</text>
</a>
</g>
</g>
<!-- Node16&#45;&gt;Node20 -->
<g id="edge24" class="edge"><title>Node16&#45;&gt;Node20</title>
<path fill="none" stroke="midnightblue" d="M312.627,-57.4386C329.58,-49.6362 354.258,-38.405 376,-29 380.218,-27.1754 384.669,-25.2889 389.074,-23.4448"/>
<polygon fill="midnightblue" stroke="midnightblue" points="390.642,-26.5835 398.535,-19.5164 387.958,-20.1186 390.642,-26.5835"/>
</g>
<!-- Node18 -->
<g id="node18" class="node"><title>Node18</title>
<g id="a_node18"><a xlink:href="ldo_8c.html#abe8cdd4f21dcfe427288c98e02070795" target="_top" xlink:title=" ">
<polygon fill="white" stroke="black" points="506,-76.5 506,-95.5 577,-95.5 577,-76.5 506,-76.5"/>
<text text-anchor="middle" x="541.5" y="-83.5" font-family="Helvetica,sans-Serif" font-size="10.00">correctstack</text>
</a>
</g>
</g>
<!-- Node17&#45;&gt;Node18 -->
<g id="edge22" class="edge"><title>Node17&#45;&gt;Node18</title>
<path fill="none" stroke="midnightblue" d="M470.044,-86C478.545,-86 487.408,-86 495.866,-86"/>
<polygon fill="midnightblue" stroke="midnightblue" points="495.931,-89.5001 505.93,-86 495.93,-82.5001 495.931,-89.5001"/>
</g>
<!-- Node21&#45;&gt;Node9 -->
<g id="edge26" class="edge"><title>Node21&#45;&gt;Node9</title>
<path fill="none" stroke="midnightblue" d="M328.212,-124C347.394,-124 370.766,-124 389.381,-124"/>
<polygon fill="midnightblue" stroke="midnightblue" points="389.449,-127.5 399.449,-124 389.448,-120.5 389.449,-127.5"/>
</g>
</g>
</svg>
