<?xml version="1.0" encoding="UTF-8" standalone="no"?>
<!DOCTYPE svg PUBLIC "-//W3C//DTD SVG 1.1//EN"
 "http://www.w3.org/Graphics/SVG/1.1/DTD/svg11.dtd">
<!-- Generated by graphviz version 2.38.0 (20140413.2041)
 -->
<!-- Title: youngcollection Pages: 1 -->
<svg width="976pt" height="721pt"
 viewBox="0.00 0.00 976.00 721.00" xmlns="http://www.w3.org/2000/svg" xmlns:xlink="http://www.w3.org/1999/xlink">
<g id="graph0" class="graph" transform="scale(1 1) rotate(0) translate(4 717)">
<title>youngcollection</title>
<polygon fill="white" stroke="none" points="-4,4 -4,-717 972,-717 972,4 -4,4"/>
<!-- Node1 -->
<g id="node1" class="node"><title>Node1</title>
<g id="a_node1"><a xlink:title=" ">
<polygon fill="#bfbfbf" stroke="black" points="0,-225.5 0,-244.5 84,-244.5 84,-225.5 0,-225.5"/>
<text text-anchor="middle" x="42" y="-232.5" font-family="Helvetica,sans-Serif" font-size="10.00">youngcollection</text>
</a>
</g>
</g>
<!-- Node2 -->
<g id="node2" class="node"><title>Node2</title>
<g id="a_node2"><a xlink:href="lgc_8c.html#a41eded2c85eaf7e1911cd95da36882d9" target="_top" xlink:title=" ">
<polygon fill="white" stroke="black" points="136,-522.5 136,-541.5 182,-541.5 182,-522.5 136,-522.5"/>
<text text-anchor="middle" x="159" y="-529.5" font-family="Helvetica,sans-Serif" font-size="10.00">atomic</text>
</a>
</g>
</g>
<!-- Node1&#45;&gt;Node2 -->
<g id="edge1" class="edge"><title>Node1&#45;&gt;Node2</title>
<path fill="none" stroke="midnightblue" d="M46.696,-244.545C62.9489,-286.52 128.245,-455.155 150.515,-512.669"/>
<polygon fill="midnightblue" stroke="midnightblue" points="147.385,-514.279 154.26,-522.341 153.913,-511.752 147.385,-514.279"/>
</g>
<!-- Node34 -->
<g id="node27" class="node"><title>Node34</title>
<g id="a_node27"><a xlink:href="lgc_8c.html#ad14690f3e78fd31ce7eddc3acdbeec5b" target="_top" xlink:title=" ">
<polygon fill="white" stroke="black" points="120,-259.5 120,-278.5 198,-278.5 198,-259.5 120,-259.5"/>
<text text-anchor="middle" x="159" y="-266.5" font-family="Helvetica,sans-Serif" font-size="10.00">finishgencycle</text>
</a>
</g>
</g>
<!-- Node1&#45;&gt;Node34 -->
<g id="edge34" class="edge"><title>Node1&#45;&gt;Node34</title>
<path fill="none" stroke="midnightblue" d="M75.3399,-244.561C87.8337,-248.255 102.301,-252.533 115.608,-256.467"/>
<polygon fill="midnightblue" stroke="midnightblue" points="114.922,-259.914 125.504,-259.393 116.907,-253.201 114.922,-259.914"/>
</g>
<!-- Node444 -->
<g id="node42" class="node"><title>Node444</title>
<g id="a_node42"><a xlink:href="lgc_8c.html#ae4013fea3c735a4c2802a6adf08e4b3c" target="_top" xlink:title=" ">
<polygon fill="white" stroke="black" points="133.5,-72.5 133.5,-91.5 184.5,-91.5 184.5,-72.5 133.5,-72.5"/>
<text text-anchor="middle" x="159" y="-79.5" font-family="Helvetica,sans-Serif" font-size="10.00">markold</text>
</a>
</g>
</g>
<!-- Node1&#45;&gt;Node444 -->
<g id="edge50" class="edge"><title>Node1&#45;&gt;Node444</title>
<path fill="none" stroke="midnightblue" d="M50.1938,-225.429C69.0714,-200.314 120.251,-132.223 144.678,-99.7243"/>
<polygon fill="midnightblue" stroke="midnightblue" points="147.598,-101.664 150.809,-91.5672 142.003,-97.458 147.598,-101.664"/>
</g>
<!-- Node445 -->
<g id="node43" class="node"><title>Node445</title>
<g id="a_node43"><a xlink:href="lgc_8c.html#ad2640fd798d0468b3832b8b64f1c94f1" target="_top" xlink:title=" ">
<polygon fill="white" stroke="black" points="129,-167.5 129,-186.5 189,-186.5 189,-167.5 129,-167.5"/>
<text text-anchor="middle" x="159" y="-174.5" font-family="Helvetica,sans-Serif" font-size="10.00">sweepgen</text>
</a>
</g>
</g>
<!-- Node1&#45;&gt;Node445 -->
<g id="edge52" class="edge"><title>Node1&#45;&gt;Node445</title>
<path fill="none" stroke="midnightblue" d="M61.9899,-225.422C80.4676,-216.103 108.765,-201.832 129.858,-191.193"/>
<polygon fill="midnightblue" stroke="midnightblue" points="131.629,-194.22 138.982,-186.592 128.477,-187.97 131.629,-194.22"/>
</g>
<!-- Node3 -->
<g id="node3" class="node"><title>Node3</title>
<g id="a_node3"><a xlink:href="lgc_8c.html#a56ce6be91da7747cf9d93826cf5c8f28" target="_top" xlink:title=" ">
<polygon fill="white" stroke="black" points="760.5,-503.5 760.5,-522.5 829.5,-522.5 829.5,-503.5 760.5,-503.5"/>
<text text-anchor="middle" x="795" y="-510.5" font-family="Helvetica,sans-Serif" font-size="10.00">clearbykeys</text>
</a>
</g>
</g>
<!-- Node2&#45;&gt;Node3 -->
<g id="edge2" class="edge"><title>Node2&#45;&gt;Node3</title>
<path fill="none" stroke="midnightblue" d="M163.355,-541.599C171.551,-563.462 194.83,-616.931 234,-641 305.391,-684.869 337.207,-665 421,-665 421,-665 421,-665 542,-665 617.425,-665 646.336,-681.445 710,-641 750.962,-614.977 776.223,-560.966 787.343,-532.125"/>
<polygon fill="midnightblue" stroke="midnightblue" points="790.629,-533.331 790.803,-522.737 784.061,-530.91 790.629,-533.331"/>
</g>
<!-- Node6 -->
<g id="node6" class="node"><title>Node6</title>
<g id="a_node6"><a xlink:href="lgc_8c.html#a634862684194c98758caa196038d7033" target="_top" xlink:title=" ">
<polygon fill="white" stroke="black" points="757.5,-465.5 757.5,-484.5 832.5,-484.5 832.5,-465.5 757.5,-465.5"/>
<text text-anchor="middle" x="795" y="-472.5" font-family="Helvetica,sans-Serif" font-size="10.00">clearbyvalues</text>
</a>
</g>
</g>
<!-- Node2&#45;&gt;Node6 -->
<g id="edge5" class="edge"><title>Node2&#45;&gt;Node6</title>
<path fill="none" stroke="midnightblue" d="M165.937,-541.515C176.992,-558.289 202.493,-592.781 234,-608 309.223,-644.336 337.461,-627 421,-627 421,-627 421,-627 542,-627 617.927,-627 652.271,-645.318 710,-596 746.552,-564.774 712.652,-528.627 746,-494 747.399,-492.548 748.923,-491.204 750.538,-489.96"/>
<polygon fill="midnightblue" stroke="midnightblue" points="752.595,-492.803 759.234,-484.547 748.895,-486.861 752.595,-492.803"/>
</g>
<!-- Node8 -->
<g id="node8" class="node"><title>Node8</title>
<g id="a_node8"><a xlink:href="lgc_8c.html#a467150a6e5a6ef4402432c4964817ffc" target="_top" xlink:title=" ">
<polygon fill="white" stroke="black" points="236.5,-579.5 236.5,-598.5 344.5,-598.5 344.5,-579.5 236.5,-579.5"/>
<text text-anchor="middle" x="290.5" y="-586.5" font-family="Helvetica,sans-Serif" font-size="10.00">convergeephemerons</text>
</a>
</g>
</g>
<!-- Node2&#45;&gt;Node8 -->
<g id="edge9" class="edge"><title>Node2&#45;&gt;Node8</title>
<path fill="none" stroke="midnightblue" d="M181.344,-541.595C196.111,-548.215 216.226,-557.194 234,-565 241.79,-568.421 250.21,-572.082 258.081,-575.487"/>
<polygon fill="midnightblue" stroke="midnightblue" points="256.761,-578.729 267.329,-579.481 259.536,-572.303 256.761,-578.729"/>
</g>
<!-- Node9 -->
<g id="node9" class="node"><title>Node9</title>
<g id="a_node9"><a xlink:href="lgc_8c.html#a344b3515bc8cbe737fbdd9fa1521d17d" target="_top" xlink:title=" ">
<polygon fill="white" stroke="black" points="387.5,-541.5 387.5,-560.5 456.5,-560.5 456.5,-541.5 387.5,-541.5"/>
<text text-anchor="middle" x="422" y="-548.5" font-family="Helvetica,sans-Serif" font-size="10.00">propagateall</text>
</a>
</g>
</g>
<!-- Node2&#45;&gt;Node9 -->
<g id="edge30" class="edge"><title>Node2&#45;&gt;Node9</title>
<path fill="none" stroke="midnightblue" d="M182.253,-533.62C225.424,-536.763 321.234,-543.737 377.477,-547.832"/>
<polygon fill="midnightblue" stroke="midnightblue" points="377.269,-551.326 387.496,-548.561 377.777,-544.344 377.269,-551.326"/>
</g>
<!-- Node28 -->
<g id="node21" class="node"><title>Node28</title>
<g id="a_node21"><a xlink:href="lstring_8c.html#a10917db68b530e7756e2e1fc6ed4d172" target="_top" xlink:title=" ">
<polygon fill="white" stroke="black" points="246,-503.5 246,-522.5 335,-522.5 335,-503.5 246,-503.5"/>
<text text-anchor="middle" x="290.5" y="-510.5" font-family="Helvetica,sans-Serif" font-size="10.00">luaS_clearcache</text>
</a>
</g>
</g>
<!-- Node2&#45;&gt;Node28 -->
<g id="edge27" class="edge"><title>Node2&#45;&gt;Node28</title>
<path fill="none" stroke="midnightblue" d="M182.262,-528.734C197.035,-526.566 217.091,-523.624 235.863,-520.87"/>
<polygon fill="midnightblue" stroke="midnightblue" points="236.436,-524.323 245.822,-519.408 235.419,-517.397 236.436,-524.323"/>
</g>
<!-- Node29 -->
<g id="node22" class="node"><title>Node29</title>
<g id="a_node22"><a xlink:href="lgc_8c.html#afdc11f26c812a8356585e0e6a67b9982" target="_top" xlink:title=" ">
<polygon fill="white" stroke="black" points="253.5,-465.5 253.5,-484.5 327.5,-484.5 327.5,-465.5 253.5,-465.5"/>
<text text-anchor="middle" x="290.5" y="-472.5" font-family="Helvetica,sans-Serif" font-size="10.00">markbeingfnz</text>
</a>
</g>
</g>
<!-- Node2&#45;&gt;Node29 -->
<g id="edge28" class="edge"><title>Node2&#45;&gt;Node29</title>
<path fill="none" stroke="midnightblue" d="M177.007,-522.373C191.792,-514.222 213.932,-502.535 234,-494 238.854,-491.935 244.016,-489.929 249.163,-488.04"/>
<polygon fill="midnightblue" stroke="midnightblue" points="250.698,-491.21 258.956,-484.572 248.361,-484.611 250.698,-491.21"/>
</g>
<!-- Node30 -->
<g id="node23" class="node"><title>Node30</title>
<g id="a_node23"><a xlink:href="lgc_8c.html#a9e8dd447c32dde7eeb9fc5da83df09b1" target="_top" xlink:title=" ">
<polygon fill="white" stroke="black" points="265.5,-427.5 265.5,-446.5 315.5,-446.5 315.5,-427.5 265.5,-427.5"/>
<text text-anchor="middle" x="290.5" y="-434.5" font-family="Helvetica,sans-Serif" font-size="10.00">markmt</text>
</a>
</g>
</g>
<!-- Node2&#45;&gt;Node30 -->
<g id="edge29" class="edge"><title>Node2&#45;&gt;Node30</title>
<path fill="none" stroke="midnightblue" d="M166.888,-522.427C178.829,-506.481 204.901,-474.418 234,-456 240.642,-451.796 248.323,-448.4 255.814,-445.707"/>
<polygon fill="midnightblue" stroke="midnightblue" points="257.027,-448.993 265.448,-442.563 254.855,-442.338 257.027,-448.993"/>
</g>
<!-- Node31 -->
<g id="node24" class="node"><title>Node31</title>
<g id="a_node24"><a xlink:href="lgc_8c.html#a563e20dbbab2390ef4ac0ac254f59b71" target="_top" xlink:title=" ">
<polygon fill="white" stroke="black" points="253.5,-389.5 253.5,-408.5 327.5,-408.5 327.5,-389.5 253.5,-389.5"/>
<text text-anchor="middle" x="290.5" y="-396.5" font-family="Helvetica,sans-Serif" font-size="10.00">remarkupvals</text>
</a>
</g>
</g>
<!-- Node2&#45;&gt;Node31 -->
<g id="edge31" class="edge"><title>Node2&#45;&gt;Node31</title>
<path fill="none" stroke="midnightblue" d="M163.732,-522.188C172.554,-500.278 196.79,-447.025 234,-418 237.118,-415.568 240.567,-413.436 244.175,-411.57"/>
<polygon fill="midnightblue" stroke="midnightblue" points="245.671,-414.735 253.372,-407.459 242.814,-408.345 245.671,-414.735"/>
</g>
<!-- Node32 -->
<g id="node25" class="node"><title>Node32</title>
<g id="a_node25"><a xlink:href="lgc_8c.html#a39f98f28e85cc750b7cca70b10e79ee9" target="_top" xlink:title=" ">
<polygon fill="white" stroke="black" points="247.5,-693.5 247.5,-712.5 333.5,-712.5 333.5,-693.5 247.5,-693.5"/>
<text text-anchor="middle" x="290.5" y="-700.5" font-family="Helvetica,sans-Serif" font-size="10.00">separatetobefnz</text>
</a>
</g>
</g>
<!-- Node2&#45;&gt;Node32 -->
<g id="edge32" class="edge"><title>Node2&#45;&gt;Node32</title>
<path fill="none" stroke="midnightblue" d="M162.367,-541.634C169.148,-567.351 190.979,-638.414 234,-679 238.057,-682.827 242.82,-686.099 247.821,-688.882"/>
<polygon fill="midnightblue" stroke="midnightblue" points="246.461,-692.113 256.98,-693.377 249.545,-685.829 246.461,-692.113"/>
</g>
<!-- Node4 -->
<g id="node4" class="node"><title>Node4</title>
<g id="a_node4"><a xlink:href="lgc_8c.html#ae5b5bd4c69910951078ac627fa1654da" target="_top" xlink:title=" ">
<polygon fill="white" stroke="black" points="897.5,-465.5 897.5,-484.5 950.5,-484.5 950.5,-465.5 897.5,-465.5"/>
<text text-anchor="middle" x="924" y="-472.5" font-family="Helvetica,sans-Serif" font-size="10.00">clearkey</text>
</a>
</g>
</g>
<!-- Node3&#45;&gt;Node4 -->
<g id="edge3" class="edge"><title>Node3&#45;&gt;Node4</title>
<path fill="none" stroke="midnightblue" d="M828.047,-503.411C846.235,-497.969 869.029,-491.149 887.724,-485.555"/>
<polygon fill="midnightblue" stroke="midnightblue" points="888.78,-488.892 897.357,-482.673 886.773,-482.186 888.78,-488.892"/>
</g>
<!-- Node5 -->
<g id="node5" class="node"><title>Node5</title>
<g id="a_node5"><a xlink:href="lgc_8c.html#acae02b6cdb8288e654682baf4117e8ab" target="_top" xlink:title=" ">
<polygon fill="white" stroke="black" points="896,-503.5 896,-522.5 952,-522.5 952,-503.5 896,-503.5"/>
<text text-anchor="middle" x="924" y="-510.5" font-family="Helvetica,sans-Serif" font-size="10.00">iscleared</text>
</a>
</g>
</g>
<!-- Node3&#45;&gt;Node5 -->
<g id="edge4" class="edge"><title>Node3&#45;&gt;Node5</title>
<path fill="none" stroke="midnightblue" d="M829.7,-513C847.023,-513 868.173,-513 885.953,-513"/>
<polygon fill="midnightblue" stroke="midnightblue" points="885.978,-516.5 895.978,-513 885.978,-509.5 885.978,-516.5"/>
</g>
<!-- Node6&#45;&gt;Node4 -->
<g id="edge6" class="edge"><title>Node6&#45;&gt;Node4</title>
<path fill="none" stroke="midnightblue" d="M832.734,-475C849.842,-475 870.122,-475 887.122,-475"/>
<polygon fill="midnightblue" stroke="midnightblue" points="887.226,-478.5 897.226,-475 887.226,-471.5 887.226,-478.5"/>
</g>
<!-- Node6&#45;&gt;Node5 -->
<g id="edge7" class="edge"><title>Node6&#45;&gt;Node5</title>
<path fill="none" stroke="midnightblue" d="M828.047,-484.589C845.656,-489.858 867.58,-496.418 885.924,-501.906"/>
<polygon fill="midnightblue" stroke="midnightblue" points="885.113,-505.317 895.697,-504.831 887.12,-498.611 885.113,-505.317"/>
</g>
<!-- Node7 -->
<g id="node7" class="node"><title>Node7</title>
<g id="a_node7"><a xlink:href="ltable_8c.html#a8f20a204b7a78780847939086b847781" target="_top" xlink:title=" ">
<polygon fill="white" stroke="black" points="884,-427.5 884,-446.5 964,-446.5 964,-427.5 884,-427.5"/>
<text text-anchor="middle" x="924" y="-434.5" font-family="Helvetica,sans-Serif" font-size="10.00">luaH_realasize</text>
</a>
</g>
</g>
<!-- Node6&#45;&gt;Node7 -->
<g id="edge8" class="edge"><title>Node6&#45;&gt;Node7</title>
<path fill="none" stroke="midnightblue" d="M828.047,-465.411C844.141,-460.596 863.841,-454.701 881.117,-449.532"/>
<polygon fill="midnightblue" stroke="midnightblue" points="882.386,-452.806 890.963,-446.586 880.379,-446.099 882.386,-452.806"/>
</g>
<!-- Node8&#45;&gt;Node9 -->
<g id="edge10" class="edge"><title>Node8&#45;&gt;Node9</title>
<path fill="none" stroke="midnightblue" d="M324.178,-579.411C340.589,-574.596 360.676,-568.701 378.292,-563.532"/>
<polygon fill="midnightblue" stroke="midnightblue" points="379.722,-566.76 388.332,-560.586 377.751,-560.043 379.722,-566.76"/>
</g>
<!-- Node16 -->
<g id="node16" class="node"><title>Node16</title>
<g id="a_node16"><a xlink:href="lgc_8c.html#aad4294f43d919ea5950d992599d1a445" target="_top" xlink:title=" ">
<polygon fill="white" stroke="black" points="746,-427.5 746,-446.5 844,-446.5 844,-427.5 746,-427.5"/>
<text text-anchor="middle" x="795" y="-434.5" font-family="Helvetica,sans-Serif" font-size="10.00">traverseephemeron</text>
</a>
</g>
</g>
<!-- Node8&#45;&gt;Node16 -->
<g id="edge26" class="edge"><title>Node8&#45;&gt;Node16</title>
<path fill="none" stroke="midnightblue" d="M344.562,-593.853C444.2,-601.818 654.274,-612.818 710,-570 752.132,-537.628 709.787,-494.881 746,-456 747.218,-454.692 748.537,-453.473 749.935,-452.337"/>
<polygon fill="midnightblue" stroke="midnightblue" points="752.152,-455.07 758.633,-446.69 748.34,-449.199 752.152,-455.07"/>
</g>
<!-- Node10 -->
<g id="node10" class="node"><title>Node10</title>
<g id="a_node10"><a xlink:href="lgc_8c.html#a817005bec4f6438093ec8bff63363f25" target="_top" xlink:title=" ">
<polygon fill="white" stroke="black" points="500.5,-484.5 500.5,-503.5 581.5,-503.5 581.5,-484.5 500.5,-484.5"/>
<text text-anchor="middle" x="541" y="-491.5" font-family="Helvetica,sans-Serif" font-size="10.00">propagatemark</text>
</a>
</g>
</g>
<!-- Node9&#45;&gt;Node10 -->
<g id="edge11" class="edge"><title>Node9&#45;&gt;Node10</title>
<path fill="none" stroke="midnightblue" d="M442.583,-541.459C461.312,-532.335 489.781,-518.466 511.114,-508.073"/>
<polygon fill="midnightblue" stroke="midnightblue" points="512.896,-511.098 520.353,-503.572 509.83,-504.805 512.896,-511.098"/>
</g>
<!-- Node11 -->
<g id="node11" class="node"><title>Node11</title>
<g id="a_node11"><a xlink:href="lgc_8c.html#a10a95d9a52dbdb6f36c090f5e2870007" target="_top" xlink:title=" ">
<polygon fill="white" stroke="black" points="639,-313.5 639,-332.5 692,-332.5 692,-313.5 639,-313.5"/>
<text text-anchor="middle" x="665.5" y="-320.5" font-family="Helvetica,sans-Serif" font-size="10.00">getgclist</text>
</a>
</g>
</g>
<!-- Node10&#45;&gt;Node11 -->
<g id="edge12" class="edge"><title>Node10&#45;&gt;Node11</title>
<path fill="none" stroke="midnightblue" d="M566.741,-484.401C573.464,-480.768 580.202,-476.016 585,-470 620.515,-425.468 585.376,-391.445 621,-347 623.731,-343.593 627.083,-340.595 630.704,-337.977"/>
<polygon fill="midnightblue" stroke="midnightblue" points="632.814,-340.787 639.473,-332.546 629.129,-334.836 632.814,-340.787"/>
</g>
<!-- Node12 -->
<g id="node12" class="node"><title>Node12</title>
<g id="a_node12"><a xlink:href="lgc_8c.html#aa85f9809abfe94fcd3bbec6e2c46b104" target="_top" xlink:title=" ">
<polygon fill="white" stroke="black" points="621,-389.5 621,-408.5 710,-408.5 710,-389.5 621,-389.5"/>
<text text-anchor="middle" x="665.5" y="-396.5" font-family="Helvetica,sans-Serif" font-size="10.00">traverseCclosure</text>
</a>
</g>
</g>
<!-- Node10&#45;&gt;Node12 -->
<g id="edge13" class="edge"><title>Node10&#45;&gt;Node12</title>
<path fill="none" stroke="midnightblue" d="M563.831,-484.294C571.042,-480.469 578.797,-475.632 585,-470 605.811,-451.105 599.295,-435.861 621,-418 622.949,-416.396 625.054,-414.904 627.25,-413.521"/>
<polygon fill="midnightblue" stroke="midnightblue" points="628.944,-416.584 636.033,-408.71 625.581,-410.444 628.944,-416.584"/>
</g>
<!-- Node13 -->
<g id="node13" class="node"><title>Node13</title>
<g id="a_node13"><a xlink:href="lgc_8c.html#a61e584daad5b6a41777ade0e72e559b3" target="_top" xlink:title=" ">
<polygon fill="white" stroke="black" points="622,-541.5 622,-560.5 709,-560.5 709,-541.5 622,-541.5"/>
<text text-anchor="middle" x="665.5" y="-548.5" font-family="Helvetica,sans-Serif" font-size="10.00">traverseLclosure</text>
</a>
</g>
</g>
<!-- Node10&#45;&gt;Node13 -->
<g id="edge14" class="edge"><title>Node10&#45;&gt;Node13</title>
<path fill="none" stroke="midnightblue" d="M561.386,-503.569C577.321,-511.375 600.526,-522.609 621,-532 624.876,-533.778 628.963,-535.614 633.017,-537.411"/>
<polygon fill="midnightblue" stroke="midnightblue" points="631.738,-540.672 642.301,-541.49 634.553,-534.263 631.738,-540.672"/>
</g>
<!-- Node14 -->
<g id="node14" class="node"><title>Node14</title>
<g id="a_node14"><a xlink:href="lgc_8c.html#a19be424be90fc7025deae5ccfdcab62b" target="_top" xlink:title=" ">
<polygon fill="white" stroke="black" points="629.5,-503.5 629.5,-522.5 701.5,-522.5 701.5,-503.5 629.5,-503.5"/>
<text text-anchor="middle" x="665.5" y="-510.5" font-family="Helvetica,sans-Serif" font-size="10.00">traverseproto</text>
</a>
</g>
</g>
<!-- Node10&#45;&gt;Node14 -->
<g id="edge15" class="edge"><title>Node10&#45;&gt;Node14</title>
<path fill="none" stroke="midnightblue" d="M581.772,-500.169C593.78,-502.031 607.048,-504.089 619.378,-506.001"/>
<polygon fill="midnightblue" stroke="midnightblue" points="619.047,-509.492 629.466,-507.566 620.12,-502.575 619.047,-509.492"/>
</g>
<!-- Node15 -->
<g id="node15" class="node"><title>Node15</title>
<g id="a_node15"><a xlink:href="lgc_8c.html#a86c4c1008df3c908a9cca3cf72abc195" target="_top" xlink:title=" ">
<polygon fill="white" stroke="red" points="630,-427.5 630,-446.5 701,-446.5 701,-427.5 630,-427.5"/>
<text text-anchor="middle" x="665.5" y="-434.5" font-family="Helvetica,sans-Serif" font-size="10.00">traversetable</text>
</a>
</g>
</g>
<!-- Node10&#45;&gt;Node15 -->
<g id="edge16" class="edge"><title>Node10&#45;&gt;Node15</title>
<path fill="none" stroke="midnightblue" d="M561.386,-484.431C577.321,-476.625 600.526,-465.391 621,-456 624.876,-454.222 628.963,-452.386 633.017,-450.589"/>
<polygon fill="midnightblue" stroke="midnightblue" points="634.553,-453.737 642.301,-446.51 631.738,-447.328 634.553,-453.737"/>
</g>
<!-- Node21 -->
<g id="node19" class="node"><title>Node21</title>
<g id="a_node19"><a xlink:href="lgc_8c.html#a5759d7a25445fd28e24980d7f35a99b2" target="_top" xlink:title=" ">
<polygon fill="white" stroke="red" points="627,-465.5 627,-484.5 704,-484.5 704,-465.5 627,-465.5"/>
<text text-anchor="middle" x="665.5" y="-472.5" font-family="Helvetica,sans-Serif" font-size="10.00">traversethread</text>
</a>
</g>
</g>
<!-- Node10&#45;&gt;Node21 -->
<g id="edge23" class="edge"><title>Node10&#45;&gt;Node21</title>
<path fill="none" stroke="midnightblue" d="M581.772,-487.831C592.903,-486.105 605.118,-484.21 616.663,-482.42"/>
<polygon fill="midnightblue" stroke="midnightblue" points="617.248,-485.871 626.594,-480.879 616.175,-478.954 617.248,-485.871"/>
</g>
<!-- Node27 -->
<g id="node20" class="node"><title>Node27</title>
<g id="a_node20"><a xlink:href="lgc_8c.html#a7a5280b620352ed9282f78028779c968" target="_top" xlink:title=" ">
<polygon fill="white" stroke="black" points="758,-360.5 758,-379.5 832,-379.5 832,-360.5 758,-360.5"/>
<text text-anchor="middle" x="795" y="-367.5" font-family="Helvetica,sans-Serif" font-size="10.00">traverseudata</text>
</a>
</g>
</g>
<!-- Node10&#45;&gt;Node27 -->
<g id="edge24" class="edge"><title>Node10&#45;&gt;Node27</title>
<path fill="none" stroke="midnightblue" d="M556.152,-484.267C565.277,-477.448 576.907,-467.672 585,-457 607.826,-426.898 589.727,-401.194 621,-380 657.992,-354.931 710.298,-355.586 747.693,-360.554"/>
<polygon fill="midnightblue" stroke="midnightblue" points="747.416,-364.051 757.82,-362.052 748.44,-357.126 747.416,-364.051"/>
</g>
<!-- Node15&#45;&gt;Node16 -->
<g id="edge17" class="edge"><title>Node15&#45;&gt;Node16</title>
<path fill="none" stroke="midnightblue" d="M701.003,-437C711.613,-437 723.602,-437 735.358,-437"/>
<polygon fill="midnightblue" stroke="midnightblue" points="735.589,-440.5 745.589,-437 735.589,-433.5 735.589,-440.5"/>
</g>
<!-- Node16&#45;&gt;Node4 -->
<g id="edge18" class="edge"><title>Node16&#45;&gt;Node4</title>
<path fill="none" stroke="midnightblue" d="M828.047,-446.589C846.235,-452.031 869.029,-458.851 887.724,-464.445"/>
<polygon fill="midnightblue" stroke="midnightblue" points="886.773,-467.814 897.357,-467.327 888.78,-461.108 886.773,-467.814"/>
</g>
<!-- Node16&#45;&gt;Node5 -->
<g id="edge20" class="edge"><title>Node16&#45;&gt;Node5</title>
<path fill="none" stroke="midnightblue" d="M825.956,-446.521C832.178,-449.129 838.506,-452.284 844,-456 863.271,-469.033 860.988,-480.592 880,-494 882.376,-495.676 884.924,-497.253 887.549,-498.727"/>
<polygon fill="midnightblue" stroke="midnightblue" points="886.135,-501.934 896.637,-503.332 889.299,-495.69 886.135,-501.934"/>
</g>
<!-- Node16&#45;&gt;Node7 -->
<g id="edge21" class="edge"><title>Node16&#45;&gt;Node7</title>
<path fill="none" stroke="midnightblue" d="M844.013,-437C853.608,-437 863.705,-437 873.354,-437"/>
<polygon fill="midnightblue" stroke="midnightblue" points="873.602,-440.5 883.602,-437 873.602,-433.5 873.602,-440.5"/>
</g>
<!-- Node17 -->
<g id="node17" class="node"><title>Node17</title>
<g id="a_node17"><a xlink:href="lgc_8c.html#a59186fdb26bd492886fdc8c3ffd17232" target="_top" xlink:title=" ">
<polygon fill="white" stroke="black" points="900.5,-379.5 900.5,-398.5 947.5,-398.5 947.5,-379.5 900.5,-379.5"/>
<text text-anchor="middle" x="924" y="-386.5" font-family="Helvetica,sans-Serif" font-size="10.00">genlink</text>
</a>
</g>
</g>
<!-- Node16&#45;&gt;Node17 -->
<g id="edge19" class="edge"><title>Node16&#45;&gt;Node17</title>
<path fill="none" stroke="midnightblue" d="M821.395,-427.402C841.357,-419.857 869.291,-409.3 890.818,-401.163"/>
<polygon fill="midnightblue" stroke="midnightblue" points="892.09,-404.424 900.207,-397.615 889.615,-397.876 892.09,-404.424"/>
</g>
<!-- Node18 -->
<g id="node18" class="node"><title>Node18</title>
<g id="a_node18"><a xlink:href="lgc_8c.html#aacf3c8ee0eebd5d5b1cd09da000ad53c" target="_top" xlink:title=" ">
<polygon fill="white" stroke="black" points="880,-151.5 880,-170.5 968,-170.5 968,-151.5 880,-151.5"/>
<text text-anchor="middle" x="924" y="-158.5" font-family="Helvetica,sans-Serif" font-size="10.00">reallymarkobject</text>
</a>
</g>
</g>
<!-- Node16&#45;&gt;Node18 -->
<g id="edge22" class="edge"><title>Node16&#45;&gt;Node18</title>
<path fill="none" stroke="midnightblue" d="M808.622,-427.188C819.353,-418.257 834.493,-404.182 844,-389 887.788,-319.075 910.958,-221.799 919.318,-180.639"/>
<polygon fill="midnightblue" stroke="midnightblue" points="922.758,-181.284 921.248,-170.797 915.889,-179.937 922.758,-181.284"/>
</g>
<!-- Node27&#45;&gt;Node17 -->
<g id="edge25" class="edge"><title>Node27&#45;&gt;Node17</title>
<path fill="none" stroke="midnightblue" d="M832.053,-375.394C850.444,-378.145 872.638,-381.466 890.497,-384.137"/>
<polygon fill="midnightblue" stroke="midnightblue" points="890.043,-387.608 900.45,-385.626 891.078,-380.685 890.043,-387.608"/>
</g>
<!-- Node33 -->
<g id="node26" class="node"><title>Node33</title>
<g id="a_node26"><a xlink:href="lgc_8c.html#a00546669316a08c1286570927e676496" target="_top" xlink:title=" ">
<polygon fill="white" stroke="black" points="398.5,-693.5 398.5,-712.5 445.5,-712.5 445.5,-693.5 398.5,-693.5"/>
<text text-anchor="middle" x="422" y="-700.5" font-family="Helvetica,sans-Serif" font-size="10.00">findlast</text>
</a>
</g>
</g>
<!-- Node32&#45;&gt;Node33 -->
<g id="edge33" class="edge"><title>Node32&#45;&gt;Node33</title>
<path fill="none" stroke="midnightblue" d="M333.545,-703C351.235,-703 371.514,-703 388.088,-703"/>
<polygon fill="midnightblue" stroke="midnightblue" points="388.38,-706.5 398.38,-703 388.38,-699.5 388.38,-706.5"/>
</g>
<!-- Node35 -->
<g id="node28" class="node"><title>Node35</title>
<g id="a_node28"><a xlink:href="lgc_8c.html#a3c6f43e1b63924361ed0ce31b6d30f8b" target="_top" xlink:title=" ">
<polygon fill="white" stroke="black" points="234,-292.5 234,-311.5 347,-311.5 347,-292.5 234,-292.5"/>
<text text-anchor="middle" x="290.5" y="-299.5" font-family="Helvetica,sans-Serif" font-size="10.00">callallpendingfinalizers</text>
</a>
</g>
</g>
<!-- Node34&#45;&gt;Node35 -->
<g id="edge35" class="edge"><title>Node34&#45;&gt;Node35</title>
<path fill="none" stroke="midnightblue" d="M197.457,-278.545C211.416,-282.102 227.447,-286.187 242.178,-289.941"/>
<polygon fill="midnightblue" stroke="midnightblue" points="241.573,-293.399 252.127,-292.476 243.301,-286.615 241.573,-293.399"/>
</g>
<!-- Node95 -->
<g id="node37" class="node"><title>Node95</title>
<g id="a_node37"><a xlink:href="lgc_8c.html#a1b2909449f815733deb4bc35c0103002" target="_top" xlink:title=" ">
<polygon fill="white" stroke="black" points="256.5,-226.5 256.5,-245.5 324.5,-245.5 324.5,-226.5 256.5,-226.5"/>
<text text-anchor="middle" x="290.5" y="-233.5" font-family="Helvetica,sans-Serif" font-size="10.00">checkSizes</text>
</a>
</g>
</g>
<!-- Node34&#45;&gt;Node95 -->
<g id="edge44" class="edge"><title>Node34&#45;&gt;Node95</title>
<path fill="none" stroke="midnightblue" d="M197.457,-259.455C212.653,-255.583 230.305,-251.084 246.062,-247.069"/>
<polygon fill="midnightblue" stroke="midnightblue" points="247.272,-250.373 256.098,-244.512 245.543,-243.59 247.272,-250.373"/>
</g>
<!-- Node442 -->
<g id="node40" class="node"><title>Node442</title>
<g id="a_node40"><a xlink:href="lgc_8c.html#a528264d2f4073b4a22b7844098a36f7d" target="_top" xlink:title=" ">
<polygon fill="white" stroke="black" points="249,-344.5 249,-363.5 332,-363.5 332,-344.5 249,-344.5"/>
<text text-anchor="middle" x="290.5" y="-351.5" font-family="Helvetica,sans-Serif" font-size="10.00">correctgraylists</text>
</a>
</g>
</g>
<!-- Node34&#45;&gt;Node442 -->
<g id="edge47" class="edge"><title>Node34&#45;&gt;Node442</title>
<path fill="none" stroke="midnightblue" d="M172.894,-278.51C187.5,-289.176 212.119,-306.836 234,-321 243.458,-327.122 254.043,-333.523 263.413,-339.041"/>
<polygon fill="midnightblue" stroke="midnightblue" points="261.89,-342.204 272.291,-344.221 265.418,-336.158 261.89,-342.204"/>
</g>
<!-- Node36 -->
<g id="node29" class="node"><title>Node36</title>
<g id="a_node29"><a xlink:href="lgc_8c.html#aaf7c6e9e6a93da6bb64ffe7654668ba3" target="_top" xlink:title=" ">
<polygon fill="white" stroke="black" points="400,-323.5 400,-342.5 444,-342.5 444,-323.5 400,-323.5"/>
<text text-anchor="middle" x="422" y="-330.5" font-family="Helvetica,sans-Serif" font-size="10.00">GCTM</text>
</a>
</g>
</g>
<!-- Node35&#45;&gt;Node36 -->
<g id="edge36" class="edge"><title>Node35&#45;&gt;Node36</title>
<path fill="none" stroke="midnightblue" d="M331.411,-311.554C350.297,-316.075 372.505,-321.391 390.086,-325.6"/>
<polygon fill="midnightblue" stroke="midnightblue" points="389.302,-329.011 399.842,-327.935 390.932,-322.203 389.302,-329.011"/>
</g>
<!-- Node37 -->
<g id="node30" class="node"><title>Node37</title>
<g id="a_node30"><a xlink:href="lgc_8c.html#a929058f72c03750fa82374f6bfa639ee" target="_top" xlink:title=" ">
<polygon fill="white" stroke="red" points="513,-370.5 513,-389.5 569,-389.5 569,-370.5 513,-370.5"/>
<text text-anchor="middle" x="541" y="-377.5" font-family="Helvetica,sans-Serif" font-size="10.00">dothecall</text>
</a>
</g>
</g>
<!-- Node36&#45;&gt;Node37 -->
<g id="edge37" class="edge"><title>Node36&#45;&gt;Node37</title>
<path fill="none" stroke="midnightblue" d="M444.188,-341.511C461.618,-348.513 486.633,-358.562 506.732,-366.636"/>
<polygon fill="midnightblue" stroke="midnightblue" points="505.565,-369.939 516.149,-370.419 508.175,-363.444 505.565,-369.939"/>
</g>
<!-- Node47 -->
<g id="node31" class="node"><title>Node47</title>
<g id="a_node31"><a xlink:href="ldo_8c.html#a1ad7f845cc62b110e3fcc0ae187d7c85" target="_top" xlink:title=" ">
<polygon fill="white" stroke="red" points="510,-256.5 510,-275.5 572,-275.5 572,-256.5 510,-256.5"/>
<text text-anchor="middle" x="541" y="-263.5" font-family="Helvetica,sans-Serif" font-size="10.00">luaD_pcall</text>
</a>
</g>
</g>
<!-- Node36&#45;&gt;Node47 -->
<g id="edge38" class="edge"><title>Node36&#45;&gt;Node47</title>
<path fill="none" stroke="midnightblue" d="M436.243,-323.487C450.753,-313.286 474.91,-296.946 497,-285 500.28,-283.226 503.759,-281.48 507.261,-279.809"/>
<polygon fill="midnightblue" stroke="midnightblue" points="508.833,-282.939 516.466,-275.591 505.916,-276.575 508.833,-282.939"/>
</g>
<!-- Node50 -->
<g id="node34" class="node"><title>Node50</title>
<g id="a_node34"><a xlink:href="lstate_8c.html#a242ebb018d637c41f24b84a2bbc78f34" target="_top" xlink:title=" ">
<polygon fill="white" stroke="red" points="500.5,-332.5 500.5,-351.5 581.5,-351.5 581.5,-332.5 500.5,-332.5"/>
<text text-anchor="middle" x="541" y="-339.5" font-family="Helvetica,sans-Serif" font-size="10.00">luaE_warnerror</text>
</a>
</g>
</g>
<!-- Node36&#45;&gt;Node50 -->
<g id="edge41" class="edge"><title>Node36&#45;&gt;Node50</title>
<path fill="none" stroke="midnightblue" d="M444.188,-334.63C456.936,-335.61 473.742,-336.903 489.715,-338.132"/>
<polygon fill="midnightblue" stroke="midnightblue" points="489.8,-341.649 500.039,-338.926 490.337,-334.669 489.8,-341.649"/>
</g>
<!-- Node53 -->
<g id="node35" class="node"><title>Node53</title>
<g id="a_node35"><a xlink:href="ltm_8c.html#a0a3a3df9d6e7f17d806f74d411e59b2d" target="_top" xlink:title=" ">
<polygon fill="white" stroke="red" points="497,-294.5 497,-313.5 585,-313.5 585,-294.5 497,-294.5"/>
<text text-anchor="middle" x="541" y="-301.5" font-family="Helvetica,sans-Serif" font-size="10.00">luaT_gettmbyobj</text>
</a>
</g>
</g>
<!-- Node36&#45;&gt;Node53 -->
<g id="edge42" class="edge"><title>Node36&#45;&gt;Node53</title>
<path fill="none" stroke="midnightblue" d="M444.188,-327.748C457.385,-324.477 474.93,-320.128 491.398,-316.047"/>
<polygon fill="midnightblue" stroke="midnightblue" points="492.599,-319.355 501.463,-313.552 490.915,-312.561 492.599,-319.355"/>
</g>
<!-- Node441 -->
<g id="node36" class="node"><title>Node441</title>
<g id="a_node36"><a xlink:href="lgc_8c.html#a1b500eec5a67ec92ad263021bd7d9435" target="_top" xlink:title=" ">
<polygon fill="white" stroke="black" points="503,-408.5 503,-427.5 579,-427.5 579,-408.5 503,-408.5"/>
<text text-anchor="middle" x="541" y="-415.5" font-family="Helvetica,sans-Serif" font-size="10.00">udata2finalize</text>
</a>
</g>
</g>
<!-- Node36&#45;&gt;Node441 -->
<g id="edge43" class="edge"><title>Node36&#45;&gt;Node441</title>
<path fill="none" stroke="midnightblue" d="M431.806,-342.561C444.948,-356.408 470.949,-382.222 497,-399 499.745,-400.768 502.681,-402.447 505.683,-404.022"/>
<polygon fill="midnightblue" stroke="midnightblue" points="504.231,-407.208 514.757,-408.42 507.285,-400.909 504.231,-407.208"/>
</g>
<!-- Node44 -->
<g id="node32" class="node"><title>Node44</title>
<g id="a_node32"><a xlink:href="lfunc_8c.html#ae9fcbf80b5969afd9412b9aed102f94e" target="_top" xlink:title=" ">
<polygon fill="white" stroke="red" points="633.5,-256.5 633.5,-275.5 697.5,-275.5 697.5,-256.5 633.5,-256.5"/>
<text text-anchor="middle" x="665.5" y="-263.5" font-family="Helvetica,sans-Serif" font-size="10.00">luaF_close</text>
</a>
</g>
</g>
<!-- Node47&#45;&gt;Node44 -->
<g id="edge39" class="edge"><title>Node47&#45;&gt;Node44</title>
<path fill="none" stroke="midnightblue" d="M572.281,-266C587.653,-266 606.558,-266 623.24,-266"/>
<polygon fill="midnightblue" stroke="midnightblue" points="623.289,-269.5 633.288,-266 623.288,-262.5 623.289,-269.5"/>
</g>
<!-- Node85 -->
<g id="node33" class="node"><title>Node85</title>
<g id="a_node33"><a xlink:href="lfunc_8c.html#a3b5a5ae122e85af5c941e9b4ffff53bd" target="_top" xlink:title=" ">
<polygon fill="white" stroke="black" points="751,-218.5 751,-237.5 839,-237.5 839,-218.5 751,-218.5"/>
<text text-anchor="middle" x="795" y="-225.5" font-family="Helvetica,sans-Serif" font-size="10.00">luaF_unlinkupval</text>
</a>
</g>
</g>
<!-- Node44&#45;&gt;Node85 -->
<g id="edge40" class="edge"><title>Node44&#45;&gt;Node85</title>
<path fill="none" stroke="midnightblue" d="M697.69,-256.704C713.96,-251.855 734.097,-245.853 751.745,-240.594"/>
<polygon fill="midnightblue" stroke="midnightblue" points="753.217,-243.807 761.801,-237.597 751.218,-237.099 753.217,-243.807"/>
</g>
<!-- Node96 -->
<g id="node38" class="node"><title>Node96</title>
<g id="a_node38"><a xlink:href="lstring_8c.html#ad47f5961683a728dd3f6d80040d1dd92" target="_top" xlink:title=" ">
<polygon fill="white" stroke="black" points="388,-222.5 388,-241.5 456,-241.5 456,-222.5 388,-222.5"/>
<text text-anchor="middle" x="422" y="-229.5" font-family="Helvetica,sans-Serif" font-size="10.00">luaS_resize</text>
</a>
</g>
</g>
<!-- Node95&#45;&gt;Node96 -->
<g id="edge45" class="edge"><title>Node95&#45;&gt;Node96</title>
<path fill="none" stroke="midnightblue" d="M324.513,-234.98C340.524,-234.486 359.974,-233.885 377.205,-233.353"/>
<polygon fill="midnightblue" stroke="midnightblue" points="377.709,-236.839 387.597,-233.032 377.493,-229.842 377.709,-236.839"/>
</g>
<!-- Node97 -->
<g id="node39" class="node"><title>Node97</title>
<g id="a_node39"><a xlink:href="lstring_8c.html#ac41b2b64cecf29c5efc29a7423e697a6" target="_top" xlink:title=" ">
<polygon fill="white" stroke="black" points="507.5,-218.5 507.5,-237.5 574.5,-237.5 574.5,-218.5 507.5,-218.5"/>
<text text-anchor="middle" x="541" y="-225.5" font-family="Helvetica,sans-Serif" font-size="10.00">tablerehash</text>
</a>
</g>
</g>
<!-- Node96&#45;&gt;Node97 -->
<g id="edge46" class="edge"><title>Node96&#45;&gt;Node97</title>
<path fill="none" stroke="midnightblue" d="M456.215,-230.864C468.92,-230.43 483.596,-229.928 497.08,-229.467"/>
<polygon fill="midnightblue" stroke="midnightblue" points="497.233,-232.964 507.107,-229.125 496.994,-225.968 497.233,-232.964"/>
</g>
<!-- Node443 -->
<g id="node41" class="node"><title>Node443</title>
<g id="a_node41"><a xlink:href="lgc_8c.html#af7188b6e4cd31e997c857b6e010a6d4a" target="_top" xlink:title=" ">
<polygon fill="white" stroke="black" points="383,-399.5 383,-418.5 461,-418.5 461,-399.5 383,-399.5"/>
<text text-anchor="middle" x="422" y="-406.5" font-family="Helvetica,sans-Serif" font-size="10.00">correctgraylist</text>
</a>
</g>
</g>
<!-- Node442&#45;&gt;Node443 -->
<g id="edge48" class="edge"><title>Node442&#45;&gt;Node443</title>
<path fill="none" stroke="midnightblue" d="M314.057,-363.58C334.728,-372.359 365.561,-385.454 388.816,-395.331"/>
<polygon fill="midnightblue" stroke="midnightblue" points="387.694,-398.657 398.267,-399.345 390.431,-392.214 387.694,-398.657"/>
</g>
<!-- Node443&#45;&gt;Node11 -->
<g id="edge49" class="edge"><title>Node443&#45;&gt;Node11</title>
<path fill="none" stroke="midnightblue" d="M438.835,-418.594C469.757,-435.957 539.149,-468.043 585,-437 620.674,-412.847 592.477,-379.287 621,-347 624.037,-343.562 627.69,-340.516 631.572,-337.849"/>
<polygon fill="midnightblue" stroke="midnightblue" points="633.52,-340.761 640.284,-332.607 629.911,-334.763 633.52,-340.761"/>
</g>
<!-- Node444&#45;&gt;Node18 -->
<g id="edge51" class="edge"><title>Node444&#45;&gt;Node18</title>
<path fill="none" stroke="midnightblue" d="M177.438,-72.4331C218.55,-50.8024 325.295,-0 421,-0 421,-0 421,-0 666.5,-0 773.73,-0 872.904,-102.186 908.799,-143.739"/>
<polygon fill="midnightblue" stroke="midnightblue" points="906.164,-146.044 915.299,-151.411 911.505,-141.519 906.164,-146.044"/>
</g>
<!-- Node83 -->
<g id="node44" class="node"><title>Node83</title>
<g id="a_node44"><a xlink:href="lgc_8c.html#aa198d7da2a8502ed70adfe1f7ed38f46" target="_top" xlink:title=" ">
<polygon fill="white" stroke="black" points="399.5,-123.5 399.5,-142.5 444.5,-142.5 444.5,-123.5 399.5,-123.5"/>
<text text-anchor="middle" x="422" y="-130.5" font-family="Helvetica,sans-Serif" font-size="10.00">freeobj</text>
</a>
</g>
</g>
<!-- Node445&#45;&gt;Node83 -->
<g id="edge53" class="edge"><title>Node445&#45;&gt;Node83</title>
<path fill="none" stroke="midnightblue" d="M189.18,-172.081C238.483,-163.769 337.886,-147.012 389.018,-138.392"/>
<polygon fill="midnightblue" stroke="midnightblue" points="389.882,-141.795 399.161,-136.682 388.718,-134.893 389.882,-141.795"/>
</g>
<!-- Node84 -->
<g id="node45" class="node"><title>Node84</title>
<g id="a_node45"><a xlink:href="lgc_8c.html#a41b4adb59140172e2cd717fb921cd372" target="_top" xlink:title=" ">
<polygon fill="white" stroke="black" points="638.5,-180.5 638.5,-199.5 692.5,-199.5 692.5,-180.5 638.5,-180.5"/>
<text text-anchor="middle" x="665.5" y="-187.5" font-family="Helvetica,sans-Serif" font-size="10.00">freeupval</text>
</a>
</g>
</g>
<!-- Node83&#45;&gt;Node84 -->
<g id="edge54" class="edge"><title>Node83&#45;&gt;Node84</title>
<path fill="none" stroke="midnightblue" d="M436.671,-123.442C450.957,-114.085 474.399,-100.464 497,-95 535.016,-85.8096 549.564,-78.4474 585,-95 618.607,-110.699 643.016,-148.366 655.367,-171.274"/>
<polygon fill="midnightblue" stroke="midnightblue" points="652.355,-173.071 660.048,-180.356 658.577,-169.863 652.355,-173.071"/>
</g>
<!-- Node86 -->
<g id="node46" class="node"><title>Node86</title>
<g id="a_node46"><a xlink:href="lstate_8c.html#a8c121cf8444c9c54e934aeb509c4b73a" target="_top" xlink:title=" ">
<polygon fill="white" stroke="black" points="499,-180.5 499,-199.5 583,-199.5 583,-180.5 499,-180.5"/>
<text text-anchor="middle" x="541" y="-187.5" font-family="Helvetica,sans-Serif" font-size="10.00">luaE_freethread</text>
</a>
</g>
</g>
<!-- Node83&#45;&gt;Node86 -->
<g id="edge56" class="edge"><title>Node83&#45;&gt;Node86</title>
<path fill="none" stroke="midnightblue" d="M442.583,-142.541C461.312,-151.665 489.781,-165.534 511.114,-175.927"/>
<polygon fill="midnightblue" stroke="midnightblue" points="509.83,-179.195 520.353,-180.428 512.896,-172.902 509.83,-179.195"/>
</g>
<!-- Node89 -->
<g id="node48" class="node"><title>Node89</title>
<g id="a_node48"><a xlink:href="lfunc_8c.html#a117c26fb473f6165ee84d70d49a741b7" target="_top" xlink:title=" ">
<polygon fill="white" stroke="black" points="502,-104.5 502,-123.5 580,-123.5 580,-104.5 502,-104.5"/>
<text text-anchor="middle" x="541" y="-111.5" font-family="Helvetica,sans-Serif" font-size="10.00">luaF_freeproto</text>
</a>
</g>
</g>
<!-- Node83&#45;&gt;Node89 -->
<g id="edge59" class="edge"><title>Node83&#45;&gt;Node89</title>
<path fill="none" stroke="midnightblue" d="M444.733,-129.471C457.976,-127.32 475.448,-124.483 491.809,-121.826"/>
<polygon fill="midnightblue" stroke="midnightblue" points="492.495,-125.26 501.805,-120.203 491.373,-118.351 492.495,-125.26"/>
</g>
<!-- Node90 -->
<g id="node49" class="node"><title>Node90</title>
<g id="a_node49"><a xlink:href="ltable_8c.html#ac6d94de2e83b5b0865b4aca30dec5c8c" target="_top" xlink:title=" ">
<polygon fill="white" stroke="red" points="766.5,-161.5 766.5,-180.5 823.5,-180.5 823.5,-161.5 766.5,-161.5"/>
<text text-anchor="middle" x="795" y="-168.5" font-family="Helvetica,sans-Serif" font-size="10.00">luaH_free</text>
</a>
</g>
</g>
<!-- Node83&#45;&gt;Node90 -->
<g id="edge60" class="edge"><title>Node83&#45;&gt;Node90</title>
<path fill="none" stroke="midnightblue" d="M444.55,-135.207C505.33,-141.433 678.702,-159.191 756.001,-167.108"/>
<polygon fill="midnightblue" stroke="midnightblue" points="755.945,-170.62 766.249,-168.158 756.658,-163.657 755.945,-170.62"/>
</g>
<!-- Node92 -->
<g id="node50" class="node"><title>Node92</title>
<g id="a_node50"><a xlink:href="lstring_8c.html#a7cac97a1c8f2564c7f0669119dd776fe" target="_top" xlink:title=" ">
<polygon fill="white" stroke="black" points="505,-28.5 505,-47.5 577,-47.5 577,-28.5 505,-28.5"/>
<text text-anchor="middle" x="541" y="-35.5" font-family="Helvetica,sans-Serif" font-size="10.00">luaS_remove</text>
</a>
</g>
</g>
<!-- Node83&#45;&gt;Node92 -->
<g id="edge62" class="edge"><title>Node83&#45;&gt;Node92</title>
<path fill="none" stroke="midnightblue" d="M431.445,-123.463C444.537,-109.026 470.949,-81.2705 497,-62 501.554,-58.6317 506.63,-55.3994 511.654,-52.4583"/>
<polygon fill="midnightblue" stroke="midnightblue" points="513.489,-55.4422 520.516,-47.5124 510.078,-49.3298 513.489,-55.4422"/>
</g>
<!-- Node84&#45;&gt;Node85 -->
<g id="edge55" class="edge"><title>Node84&#45;&gt;Node85</title>
<path fill="none" stroke="midnightblue" d="M692.609,-197.782C709.811,-202.908 732.709,-209.733 752.392,-215.599"/>
<polygon fill="midnightblue" stroke="midnightblue" points="751.467,-218.976 762.05,-218.478 753.466,-212.267 751.467,-218.976"/>
</g>
<!-- Node86&#45;&gt;Node44 -->
<g id="edge58" class="edge"><title>Node86&#45;&gt;Node44</title>
<path fill="none" stroke="midnightblue" d="M568.363,-199.668C574.082,-202.298 579.931,-205.425 585,-209 604.012,-222.408 601.96,-233.632 621,-247 623.403,-248.687 625.979,-250.272 628.635,-251.752"/>
<polygon fill="midnightblue" stroke="midnightblue" points="627.321,-255.008 637.828,-256.367 630.461,-248.752 627.321,-255.008"/>
</g>
<!-- Node87 -->
<g id="node47" class="node"><title>Node87</title>
<g id="a_node47"><a xlink:href="lstate_8c.html#ac615222739efb52e2c21dbaea5223853" target="_top" xlink:title=" ">
<polygon fill="white" stroke="red" points="637.5,-218.5 637.5,-237.5 693.5,-237.5 693.5,-218.5 637.5,-218.5"/>
<text text-anchor="middle" x="665.5" y="-225.5" font-family="Helvetica,sans-Serif" font-size="10.00">freestack</text>
</a>
</g>
</g>
<!-- Node86&#45;&gt;Node87 -->
<g id="edge57" class="edge"><title>Node86&#45;&gt;Node87</title>
<path fill="none" stroke="midnightblue" d="M572.912,-199.589C589.502,-204.735 610.064,-211.114 627.5,-216.523"/>
<polygon fill="midnightblue" stroke="midnightblue" points="626.763,-219.958 637.351,-219.578 628.837,-213.273 626.763,-219.958"/>
</g>
<!-- Node90&#45;&gt;Node7 -->
<g id="edge61" class="edge"><title>Node90&#45;&gt;Node7</title>
<path fill="none" stroke="midnightblue" d="M813.798,-180.64C824.25,-187.24 836.786,-196.967 844,-209 890.215,-286.088 830.878,-332.731 880,-408 883.405,-413.217 888.11,-417.733 893.164,-421.544"/>
<polygon fill="midnightblue" stroke="midnightblue" points="891.563,-424.683 901.831,-427.295 895.433,-418.85 891.563,-424.683"/>
</g>
</g>
</svg>
