<?xml version="1.0" encoding="UTF-8" standalone="no"?>
<!DOCTYPE svg PUBLIC "-//W3C//DTD SVG 1.1//EN"
 "http://www.w3.org/Graphics/SVG/1.1/DTD/svg11.dtd">
<!-- Generated by graphviz version 2.38.0 (20140413.2041)
 -->
<!-- Title: propagateall Pages: 1 -->
<svg width="690pt" height="332pt"
 viewBox="0.00 0.00 690.00 332.00" xmlns="http://www.w3.org/2000/svg" xmlns:xlink="http://www.w3.org/1999/xlink">
<g id="graph0" class="graph" transform="scale(1 1) rotate(0) translate(4 328)">
<title>propagateall</title>
<polygon fill="white" stroke="none" points="-4,4 -4,-328 686,-328 686,4 -4,4"/>
<!-- Node1 -->
<g id="node1" class="node"><title>Node1</title>
<g id="a_node1"><a xlink:title=" ">
<polygon fill="#bfbfbf" stroke="black" points="0,-190.5 0,-209.5 69,-209.5 69,-190.5 0,-190.5"/>
<text text-anchor="middle" x="34.5" y="-197.5" font-family="Helvetica,sans-Serif" font-size="10.00">propagateall</text>
</a>
</g>
</g>
<!-- Node2 -->
<g id="node2" class="node"><title>Node2</title>
<g id="a_node2"><a xlink:href="lgc_8c.html#a817005bec4f6438093ec8bff63363f25" target="_top" xlink:title=" ">
<polygon fill="white" stroke="black" points="105,-190.5 105,-209.5 186,-209.5 186,-190.5 105,-190.5"/>
<text text-anchor="middle" x="145.5" y="-197.5" font-family="Helvetica,sans-Serif" font-size="10.00">propagatemark</text>
</a>
</g>
</g>
<!-- Node1&#45;&gt;Node2 -->
<g id="edge1" class="edge"><title>Node1&#45;&gt;Node2</title>
<path fill="none" stroke="midnightblue" d="M69.093,-200C77.1857,-200 86.0033,-200 94.6628,-200"/>
<polygon fill="midnightblue" stroke="midnightblue" points="94.7027,-203.5 104.703,-200 94.7027,-196.5 94.7027,-203.5"/>
</g>
<!-- Node3 -->
<g id="node3" class="node"><title>Node3</title>
<g id="a_node3"><a xlink:href="lgc_8c.html#a10a95d9a52dbdb6f36c090f5e2870007" target="_top" xlink:title=" ">
<polygon fill="white" stroke="black" points="240,-304.5 240,-323.5 293,-323.5 293,-304.5 240,-304.5"/>
<text text-anchor="middle" x="266.5" y="-311.5" font-family="Helvetica,sans-Serif" font-size="10.00">getgclist</text>
</a>
</g>
</g>
<!-- Node2&#45;&gt;Node3 -->
<g id="edge2" class="edge"><title>Node2&#45;&gt;Node3</title>
<path fill="none" stroke="midnightblue" d="M151.939,-209.634C162.949,-228.376 189.601,-270.086 222,-295 224.762,-297.124 227.799,-299.065 230.943,-300.825"/>
<polygon fill="midnightblue" stroke="midnightblue" points="229.442,-303.987 239.954,-305.309 232.561,-297.72 229.442,-303.987"/>
</g>
<!-- Node4 -->
<g id="node4" class="node"><title>Node4</title>
<g id="a_node4"><a xlink:href="lgc_8c.html#aa85f9809abfe94fcd3bbec6e2c46b104" target="_top" xlink:title=" ">
<polygon fill="white" stroke="black" points="222,-266.5 222,-285.5 311,-285.5 311,-266.5 222,-266.5"/>
<text text-anchor="middle" x="266.5" y="-273.5" font-family="Helvetica,sans-Serif" font-size="10.00">traverseCclosure</text>
</a>
</g>
</g>
<!-- Node2&#45;&gt;Node4 -->
<g id="edge3" class="edge"><title>Node2&#45;&gt;Node4</title>
<path fill="none" stroke="midnightblue" d="M157.676,-209.777C171.916,-221.91 197.616,-242.738 222,-257 225.008,-258.759 228.209,-260.456 231.457,-262.062"/>
<polygon fill="midnightblue" stroke="midnightblue" points="230.072,-265.278 240.614,-266.328 233.028,-258.933 230.072,-265.278"/>
</g>
<!-- Node5 -->
<g id="node5" class="node"><title>Node5</title>
<g id="a_node5"><a xlink:href="lgc_8c.html#a61e584daad5b6a41777ade0e72e559b3" target="_top" xlink:title=" ">
<polygon fill="white" stroke="black" points="223,-228.5 223,-247.5 310,-247.5 310,-228.5 223,-228.5"/>
<text text-anchor="middle" x="266.5" y="-235.5" font-family="Helvetica,sans-Serif" font-size="10.00">traverseLclosure</text>
</a>
</g>
</g>
<!-- Node2&#45;&gt;Node5 -->
<g id="edge4" class="edge"><title>Node2&#45;&gt;Node5</title>
<path fill="none" stroke="midnightblue" d="M176.529,-209.589C191.468,-214.359 209.723,-220.189 225.801,-225.323"/>
<polygon fill="midnightblue" stroke="midnightblue" points="224.89,-228.706 235.481,-228.414 227.019,-222.038 224.89,-228.706"/>
</g>
<!-- Node6 -->
<g id="node6" class="node"><title>Node6</title>
<g id="a_node6"><a xlink:href="lgc_8c.html#a19be424be90fc7025deae5ccfdcab62b" target="_top" xlink:title=" ">
<polygon fill="white" stroke="black" points="230.5,-190.5 230.5,-209.5 302.5,-209.5 302.5,-190.5 230.5,-190.5"/>
<text text-anchor="middle" x="266.5" y="-197.5" font-family="Helvetica,sans-Serif" font-size="10.00">traverseproto</text>
</a>
</g>
</g>
<!-- Node2&#45;&gt;Node6 -->
<g id="edge5" class="edge"><title>Node2&#45;&gt;Node6</title>
<path fill="none" stroke="midnightblue" d="M186.125,-200C197.099,-200 209.093,-200 220.356,-200"/>
<polygon fill="midnightblue" stroke="midnightblue" points="220.445,-203.5 230.445,-200 220.445,-196.5 220.445,-203.5"/>
</g>
<!-- Node7 -->
<g id="node7" class="node"><title>Node7</title>
<g id="a_node7"><a xlink:href="lgc_8c.html#a86c4c1008df3c908a9cca3cf72abc195" target="_top" xlink:title=" ">
<polygon fill="white" stroke="black" points="231,-152.5 231,-171.5 302,-171.5 302,-152.5 231,-152.5"/>
<text text-anchor="middle" x="266.5" y="-159.5" font-family="Helvetica,sans-Serif" font-size="10.00">traversetable</text>
</a>
</g>
</g>
<!-- Node2&#45;&gt;Node7 -->
<g id="edge6" class="edge"><title>Node2&#45;&gt;Node7</title>
<path fill="none" stroke="midnightblue" d="M176.529,-190.411C191.468,-185.641 209.723,-179.811 225.801,-174.677"/>
<polygon fill="midnightblue" stroke="midnightblue" points="227.019,-177.962 235.481,-171.586 224.89,-171.294 227.019,-177.962"/>
</g>
<!-- Node16 -->
<g id="node16" class="node"><title>Node16</title>
<g id="a_node16"><a xlink:href="lgc_8c.html#a5759d7a25445fd28e24980d7f35a99b2" target="_top" xlink:title=" ">
<polygon fill="white" stroke="black" points="228,-67.5 228,-86.5 305,-86.5 305,-67.5 228,-67.5"/>
<text text-anchor="middle" x="266.5" y="-74.5" font-family="Helvetica,sans-Serif" font-size="10.00">traversethread</text>
</a>
</g>
</g>
<!-- Node2&#45;&gt;Node16 -->
<g id="edge20" class="edge"><title>Node2&#45;&gt;Node16</title>
<path fill="none" stroke="midnightblue" d="M153.371,-190.467C165.941,-173.354 193.936,-136.721 222,-110 228.372,-103.933 235.841,-97.9278 242.775,-92.7368"/>
<polygon fill="midnightblue" stroke="midnightblue" points="245.114,-95.363 251.148,-86.6537 241,-89.6998 245.114,-95.363"/>
</g>
<!-- Node22 -->
<g id="node22" class="node"><title>Node22</title>
<g id="a_node22"><a xlink:href="lgc_8c.html#a7a5280b620352ed9282f78028779c968" target="_top" xlink:title=" ">
<polygon fill="white" stroke="black" points="359,-114.5 359,-133.5 433,-133.5 433,-114.5 359,-114.5"/>
<text text-anchor="middle" x="396" y="-121.5" font-family="Helvetica,sans-Serif" font-size="10.00">traverseudata</text>
</a>
</g>
</g>
<!-- Node2&#45;&gt;Node22 -->
<g id="edge26" class="edge"><title>Node2&#45;&gt;Node22</title>
<path fill="none" stroke="midnightblue" d="M155.689,-190.355C168.942,-177.132 194.83,-153.79 222,-143 262.766,-126.81 312.929,-122.872 348.723,-122.497"/>
<polygon fill="midnightblue" stroke="midnightblue" points="348.885,-125.997 358.879,-122.481 348.874,-118.997 348.885,-125.997"/>
</g>
<!-- Node8 -->
<g id="node8" class="node"><title>Node8</title>
<g id="a_node8"><a xlink:href="lgc_8c.html#aad4294f43d919ea5950d992599d1a445" target="_top" xlink:title=" ">
<polygon fill="white" stroke="black" points="347,-190.5 347,-209.5 445,-209.5 445,-190.5 347,-190.5"/>
<text text-anchor="middle" x="396" y="-197.5" font-family="Helvetica,sans-Serif" font-size="10.00">traverseephemeron</text>
</a>
</g>
</g>
<!-- Node7&#45;&gt;Node8 -->
<g id="edge7" class="edge"><title>Node7&#45;&gt;Node8</title>
<path fill="none" stroke="midnightblue" d="M299.674,-171.589C315.831,-176.404 335.608,-182.299 352.952,-187.468"/>
<polygon fill="midnightblue" stroke="midnightblue" points="352.254,-190.912 362.837,-190.414 354.253,-184.204 352.254,-190.912"/>
</g>
<!-- Node14 -->
<g id="node14" class="node"><title>Node14</title>
<g id="a_node14"><a xlink:href="lgc_8c.html#a3c018ffdc54c29a2ff8f44d32703a7c6" target="_top" xlink:title=" ">
<polygon fill="white" stroke="black" points="347,-152.5 347,-171.5 445,-171.5 445,-152.5 347,-152.5"/>
<text text-anchor="middle" x="396" y="-159.5" font-family="Helvetica,sans-Serif" font-size="10.00">traversestrongtable</text>
</a>
</g>
</g>
<!-- Node7&#45;&gt;Node14 -->
<g id="edge13" class="edge"><title>Node7&#45;&gt;Node14</title>
<path fill="none" stroke="midnightblue" d="M302.003,-162C312.613,-162 324.602,-162 336.358,-162"/>
<polygon fill="midnightblue" stroke="midnightblue" points="336.589,-165.5 346.589,-162 336.589,-158.5 336.589,-165.5"/>
</g>
<!-- Node15 -->
<g id="node15" class="node"><title>Node15</title>
<g id="a_node15"><a xlink:href="lgc_8c.html#ae8dc436daacca264cf45cb9652c68430" target="_top" xlink:title=" ">
<polygon fill="white" stroke="black" points="348.5,-228.5 348.5,-247.5 443.5,-247.5 443.5,-228.5 348.5,-228.5"/>
<text text-anchor="middle" x="396" y="-235.5" font-family="Helvetica,sans-Serif" font-size="10.00">traverseweakvalue</text>
</a>
</g>
</g>
<!-- Node7&#45;&gt;Node15 -->
<g id="edge17" class="edge"><title>Node7&#45;&gt;Node15</title>
<path fill="none" stroke="midnightblue" d="M294.172,-171.633C299.958,-174.265 305.874,-177.401 311,-181 330.04,-194.368 327.729,-205.967 347,-219 349.747,-220.858 352.702,-222.575 355.749,-224.155"/>
<polygon fill="midnightblue" stroke="midnightblue" points="354.5,-227.434 365.044,-228.479 357.453,-221.087 354.5,-227.434"/>
</g>
<!-- Node9 -->
<g id="node9" class="node"><title>Node9</title>
<g id="a_node9"><a xlink:href="lgc_8c.html#ae5b5bd4c69910951078ac627fa1654da" target="_top" xlink:title=" ">
<polygon fill="white" stroke="black" points="501.5,-190.5 501.5,-209.5 554.5,-209.5 554.5,-190.5 501.5,-190.5"/>
<text text-anchor="middle" x="528" y="-197.5" font-family="Helvetica,sans-Serif" font-size="10.00">clearkey</text>
</a>
</g>
</g>
<!-- Node8&#45;&gt;Node9 -->
<g id="edge8" class="edge"><title>Node8&#45;&gt;Node9</title>
<path fill="none" stroke="midnightblue" d="M445.038,-200C460.254,-200 476.803,-200 491.022,-200"/>
<polygon fill="midnightblue" stroke="midnightblue" points="491.379,-203.5 501.379,-200 491.379,-196.5 491.379,-203.5"/>
</g>
<!-- Node10 -->
<g id="node10" class="node"><title>Node10</title>
<g id="a_node10"><a xlink:href="lgc_8c.html#a59186fdb26bd492886fdc8c3ffd17232" target="_top" xlink:title=" ">
<polygon fill="white" stroke="black" points="504.5,-114.5 504.5,-133.5 551.5,-133.5 551.5,-114.5 504.5,-114.5"/>
<text text-anchor="middle" x="528" y="-121.5" font-family="Helvetica,sans-Serif" font-size="10.00">genlink</text>
</a>
</g>
</g>
<!-- Node8&#45;&gt;Node10 -->
<g id="edge9" class="edge"><title>Node8&#45;&gt;Node10</title>
<path fill="none" stroke="midnightblue" d="M426.956,-190.479C433.178,-187.871 439.506,-184.716 445,-181 464.271,-167.967 461.826,-156.176 481,-143 485.144,-140.153 489.78,-137.618 494.471,-135.401"/>
<polygon fill="midnightblue" stroke="midnightblue" points="496.226,-138.457 504.037,-131.298 493.467,-132.024 496.226,-138.457"/>
</g>
<!-- Node11 -->
<g id="node11" class="node"><title>Node11</title>
<g id="a_node11"><a xlink:href="lgc_8c.html#acae02b6cdb8288e654682baf4117e8ab" target="_top" xlink:title=" ">
<polygon fill="white" stroke="black" points="500,-266.5 500,-285.5 556,-285.5 556,-266.5 500,-266.5"/>
<text text-anchor="middle" x="528" y="-273.5" font-family="Helvetica,sans-Serif" font-size="10.00">iscleared</text>
</a>
</g>
</g>
<!-- Node8&#45;&gt;Node11 -->
<g id="edge10" class="edge"><title>Node8&#45;&gt;Node11</title>
<path fill="none" stroke="midnightblue" d="M426.956,-209.521C433.178,-212.129 439.506,-215.284 445,-219 464.271,-232.033 461.826,-243.824 481,-257 483.938,-259.019 487.123,-260.88 490.4,-262.582"/>
<polygon fill="midnightblue" stroke="midnightblue" points="489.206,-265.888 499.747,-266.958 492.174,-259.548 489.206,-265.888"/>
</g>
<!-- Node12 -->
<g id="node12" class="node"><title>Node12</title>
<g id="a_node12"><a xlink:href="ltable_8c.html#a8f20a204b7a78780847939086b847781" target="_top" xlink:title=" ">
<polygon fill="white" stroke="black" points="488,-152.5 488,-171.5 568,-171.5 568,-152.5 488,-152.5"/>
<text text-anchor="middle" x="528" y="-159.5" font-family="Helvetica,sans-Serif" font-size="10.00">luaH_realasize</text>
</a>
</g>
</g>
<!-- Node8&#45;&gt;Node12 -->
<g id="edge11" class="edge"><title>Node8&#45;&gt;Node12</title>
<path fill="none" stroke="midnightblue" d="M429.804,-190.411C446.278,-185.596 466.443,-179.701 484.127,-174.532"/>
<polygon fill="midnightblue" stroke="midnightblue" points="485.59,-177.751 494.206,-171.586 483.626,-171.032 485.59,-177.751"/>
</g>
<!-- Node13 -->
<g id="node13" class="node"><title>Node13</title>
<g id="a_node13"><a xlink:href="lgc_8c.html#aacf3c8ee0eebd5d5b1cd09da000ad53c" target="_top" xlink:title=" ">
<polygon fill="white" stroke="black" points="484,-228.5 484,-247.5 572,-247.5 572,-228.5 484,-228.5"/>
<text text-anchor="middle" x="528" y="-235.5" font-family="Helvetica,sans-Serif" font-size="10.00">reallymarkobject</text>
</a>
</g>
</g>
<!-- Node8&#45;&gt;Node13 -->
<g id="edge12" class="edge"><title>Node8&#45;&gt;Node13</title>
<path fill="none" stroke="midnightblue" d="M429.804,-209.589C446.278,-214.404 466.443,-220.299 484.127,-225.468"/>
<polygon fill="midnightblue" stroke="midnightblue" points="483.626,-228.968 494.206,-228.414 485.59,-222.249 483.626,-228.968"/>
</g>
<!-- Node14&#45;&gt;Node9 -->
<g id="edge14" class="edge"><title>Node14&#45;&gt;Node9</title>
<path fill="none" stroke="midnightblue" d="M429.804,-171.589C448.636,-177.094 472.291,-184.008 491.549,-189.637"/>
<polygon fill="midnightblue" stroke="midnightblue" points="490.59,-193.004 501.17,-192.45 492.554,-186.285 490.59,-193.004"/>
</g>
<!-- Node14&#45;&gt;Node10 -->
<g id="edge15" class="edge"><title>Node14&#45;&gt;Node10</title>
<path fill="none" stroke="midnightblue" d="M429.804,-152.411C449.661,-146.607 474.88,-139.235 494.653,-133.455"/>
<polygon fill="midnightblue" stroke="midnightblue" points="495.823,-136.76 504.439,-130.595 493.859,-130.041 495.823,-136.76"/>
</g>
<!-- Node14&#45;&gt;Node12 -->
<g id="edge16" class="edge"><title>Node14&#45;&gt;Node12</title>
<path fill="none" stroke="midnightblue" d="M445.038,-162C455.671,-162 466.956,-162 477.641,-162"/>
<polygon fill="midnightblue" stroke="midnightblue" points="477.661,-165.5 487.661,-162 477.661,-158.5 477.661,-165.5"/>
</g>
<!-- Node15&#45;&gt;Node9 -->
<g id="edge18" class="edge"><title>Node15&#45;&gt;Node9</title>
<path fill="none" stroke="midnightblue" d="M429.804,-228.411C448.636,-222.906 472.291,-215.992 491.549,-210.363"/>
<polygon fill="midnightblue" stroke="midnightblue" points="492.554,-213.715 501.17,-207.55 490.59,-206.996 492.554,-213.715"/>
</g>
<!-- Node15&#45;&gt;Node11 -->
<g id="edge19" class="edge"><title>Node15&#45;&gt;Node11</title>
<path fill="none" stroke="midnightblue" d="M429.804,-247.589C448.167,-252.957 471.116,-259.665 490.102,-265.215"/>
<polygon fill="midnightblue" stroke="midnightblue" points="489.326,-268.634 499.906,-268.08 491.29,-261.915 489.326,-268.634"/>
</g>
<!-- Node17 -->
<g id="node17" class="node"><title>Node17</title>
<g id="a_node17"><a xlink:href="ldo_8c.html#a219aa86777779dccae2c1bf9008db70a" target="_top" xlink:title=" ">
<polygon fill="white" stroke="black" points="350,-57.5 350,-76.5 442,-76.5 442,-57.5 350,-57.5"/>
<text text-anchor="middle" x="396" y="-64.5" font-family="Helvetica,sans-Serif" font-size="10.00">luaD_shrinkstack</text>
</a>
</g>
</g>
<!-- Node16&#45;&gt;Node17 -->
<g id="edge21" class="edge"><title>Node16&#45;&gt;Node17</title>
<path fill="none" stroke="midnightblue" d="M305.065,-74.0538C315.859,-73.2071 327.866,-72.2654 339.5,-71.3529"/>
<polygon fill="midnightblue" stroke="midnightblue" points="339.893,-74.833 349.588,-70.5617 339.345,-67.8544 339.893,-74.833"/>
</g>
<!-- Node18 -->
<g id="node18" class="node"><title>Node18</title>
<g id="a_node18"><a xlink:href="ldo_8c.html#a75b8b0016e9182d4fd9f71c1a7238e8a" target="_top" xlink:title=" ">
<polygon fill="white" stroke="black" points="481,-76.5 481,-95.5 575,-95.5 575,-76.5 481,-76.5"/>
<text text-anchor="middle" x="528" y="-83.5" font-family="Helvetica,sans-Serif" font-size="10.00">luaD_reallocstack</text>
</a>
</g>
</g>
<!-- Node17&#45;&gt;Node18 -->
<g id="edge22" class="edge"><title>Node17&#45;&gt;Node18</title>
<path fill="none" stroke="midnightblue" d="M442.103,-73.592C451.258,-74.93 460.996,-76.3533 470.489,-77.7407"/>
<polygon fill="midnightblue" stroke="midnightblue" points="470.252,-81.2432 480.653,-79.2263 471.265,-74.3168 470.252,-81.2432"/>
</g>
<!-- Node20 -->
<g id="node20" class="node"><title>Node20</title>
<g id="a_node20"><a xlink:href="lstate_8c.html#a59bcd5586c176d9e24bcdf9e4d07adbe" target="_top" xlink:title=" ">
<polygon fill="white" stroke="black" points="489.5,-38.5 489.5,-57.5 566.5,-57.5 566.5,-38.5 489.5,-38.5"/>
<text text-anchor="middle" x="528" y="-45.5" font-family="Helvetica,sans-Serif" font-size="10.00">luaE_shrinkCI</text>
</a>
</g>
</g>
<!-- Node17&#45;&gt;Node20 -->
<g id="edge24" class="edge"><title>Node17&#45;&gt;Node20</title>
<path fill="none" stroke="midnightblue" d="M442.103,-60.408C454.134,-58.6496 467.172,-56.7441 479.336,-54.9662"/>
<polygon fill="midnightblue" stroke="midnightblue" points="479.919,-58.4184 489.307,-53.5089 478.906,-51.492 479.919,-58.4184"/>
</g>
<!-- Node21 -->
<g id="node21" class="node"><title>Node21</title>
<g id="a_node21"><a xlink:href="ldo_8c.html#ac2956ef8f7aba184c6591001f2017a54" target="_top" xlink:title=" ">
<polygon fill="white" stroke="black" points="496,-0.5 496,-19.5 560,-19.5 560,-0.5 496,-0.5"/>
<text text-anchor="middle" x="528" y="-7.5" font-family="Helvetica,sans-Serif" font-size="10.00">stackinuse</text>
</a>
</g>
</g>
<!-- Node17&#45;&gt;Node21 -->
<g id="edge25" class="edge"><title>Node17&#45;&gt;Node21</title>
<path fill="none" stroke="midnightblue" d="M417.627,-57.4386C434.58,-49.6362 459.258,-38.405 481,-29 485.218,-27.1754 489.669,-25.2889 494.074,-23.4448"/>
<polygon fill="midnightblue" stroke="midnightblue" points="495.642,-26.5835 503.535,-19.5164 492.958,-20.1186 495.642,-26.5835"/>
</g>
<!-- Node19 -->
<g id="node19" class="node"><title>Node19</title>
<g id="a_node19"><a xlink:href="ldo_8c.html#abe8cdd4f21dcfe427288c98e02070795" target="_top" xlink:title=" ">
<polygon fill="white" stroke="black" points="611,-76.5 611,-95.5 682,-95.5 682,-76.5 611,-76.5"/>
<text text-anchor="middle" x="646.5" y="-83.5" font-family="Helvetica,sans-Serif" font-size="10.00">correctstack</text>
</a>
</g>
</g>
<!-- Node18&#45;&gt;Node19 -->
<g id="edge23" class="edge"><title>Node18&#45;&gt;Node19</title>
<path fill="none" stroke="midnightblue" d="M575.044,-86C583.545,-86 592.408,-86 600.866,-86"/>
<polygon fill="midnightblue" stroke="midnightblue" points="600.931,-89.5001 610.93,-86 600.93,-82.5001 600.931,-89.5001"/>
</g>
<!-- Node22&#45;&gt;Node10 -->
<g id="edge27" class="edge"><title>Node22&#45;&gt;Node10</title>
<path fill="none" stroke="midnightblue" d="M433.212,-124C452.394,-124 475.766,-124 494.381,-124"/>
<polygon fill="midnightblue" stroke="midnightblue" points="494.449,-127.5 504.449,-124 494.448,-120.5 494.449,-127.5"/>
</g>
</g>
</svg>
