<?xml version="1.0" encoding="UTF-8" standalone="no"?>
<!DOCTYPE svg PUBLIC "-//W3C//DTD SVG 1.1//EN"
 "http://www.w3.org/Graphics/SVG/1.1/DTD/svg11.dtd">
<!-- Generated by graphviz version 2.38.0 (20140413.2041)
 -->
<!-- Title: luaopen_lib2 Pages: 1 -->
<svg width="1433pt" height="778pt"
 viewBox="0.00 0.00 1433.00 778.00" xmlns="http://www.w3.org/2000/svg" xmlns:xlink="http://www.w3.org/1999/xlink">
<g id="graph0" class="graph" transform="scale(1 1) rotate(0) translate(4 774)">
<title>luaopen_lib2</title>
<polygon fill="white" stroke="none" points="-4,4 -4,-774 1429,-774 1429,4 -4,4"/>
<!-- Node1 -->
<g id="node1" class="node"><title>Node1</title>
<g id="a_node1"><a xlink:title=" ">
<polygon fill="#bfbfbf" stroke="black" points="0,-199.5 0,-218.5 71,-218.5 71,-199.5 0,-199.5"/>
<text text-anchor="middle" x="35.5" y="-206.5" font-family="Helvetica,sans-Serif" font-size="10.00">luaopen_lib2</text>
</a>
</g>
</g>
<!-- Node2 -->
<g id="node2" class="node"><title>Node2</title>
<g id="a_node2"><a xlink:href="lapi_8c.html#aecf388efaede9d97581335998dfa243b" target="_top" xlink:title=" ">
<polygon fill="white" stroke="black" points="107,-251.5 107,-270.5 181,-270.5 181,-251.5 107,-251.5"/>
<text text-anchor="middle" x="144" y="-258.5" font-family="Helvetica,sans-Serif" font-size="10.00">lua_setglobal</text>
</a>
</g>
</g>
<!-- Node1&#45;&gt;Node2 -->
<g id="edge1" class="edge"><title>Node1&#45;&gt;Node2</title>
<path fill="none" stroke="midnightblue" d="M56.0337,-218.538C72.2951,-226.477 95.6827,-237.897 114.11,-246.894"/>
<polygon fill="midnightblue" stroke="midnightblue" points="112.708,-250.104 123.229,-251.347 115.779,-243.814 112.708,-250.104"/>
</g>
<!-- Node446 -->
<g id="node37" class="node"><title>Node446</title>
<g id="a_node37"><a xlink:href="lapi_8c.html#adaa30f0d34786144c94644039d1d1b6e" target="_top" xlink:title=" ">
<polygon fill="white" stroke="black" points="113,-147.5 113,-166.5 175,-166.5 175,-147.5 113,-147.5"/>
<text text-anchor="middle" x="144" y="-154.5" font-family="Helvetica,sans-Serif" font-size="10.00">lua_settop</text>
</a>
</g>
</g>
<!-- Node1&#45;&gt;Node446 -->
<g id="edge50" class="edge"><title>Node1&#45;&gt;Node446</title>
<path fill="none" stroke="midnightblue" d="M56.0337,-199.462C72.2951,-191.523 95.6827,-180.103 114.11,-171.106"/>
<polygon fill="midnightblue" stroke="midnightblue" points="115.779,-174.186 123.229,-166.653 112.708,-167.896 115.779,-174.186"/>
</g>
<!-- Node3 -->
<g id="node3" class="node"><title>Node3</title>
<g id="a_node3"><a xlink:href="lapi_8c.html#a0667fbf88666853554967226d9a3df4d" target="_top" xlink:title=" ">
<polygon fill="white" stroke="black" points="220.5,-323.5 220.5,-342.5 277.5,-342.5 277.5,-323.5 220.5,-323.5"/>
<text text-anchor="middle" x="249" y="-330.5" font-family="Helvetica,sans-Serif" font-size="10.00">auxsetstr</text>
</a>
</g>
</g>
<!-- Node2&#45;&gt;Node3 -->
<g id="edge2" class="edge"><title>Node2&#45;&gt;Node3</title>
<path fill="none" stroke="midnightblue" d="M158.891,-270.71C176.111,-282.747 205.665,-303.407 225.985,-317.611"/>
<polygon fill="midnightblue" stroke="midnightblue" points="224.128,-320.583 234.329,-323.444 228.138,-314.846 224.128,-320.583"/>
</g>
<!-- Node4 -->
<g id="node4" class="node"><title>Node4</title>
<g id="a_node4"><a xlink:href="ltable_8c.html#ae273e09d2342a84f5cdfa976c66f28c0" target="_top" xlink:title=" ">
<polygon fill="white" stroke="black" points="457,-456.5 457,-475.5 523,-475.5 523,-456.5 457,-456.5"/>
<text text-anchor="middle" x="490" y="-463.5" font-family="Helvetica,sans-Serif" font-size="10.00">luaH_getstr</text>
</a>
</g>
</g>
<!-- Node3&#45;&gt;Node4 -->
<g id="edge3" class="edge"><title>Node3&#45;&gt;Node4</title>
<path fill="none" stroke="midnightblue" d="M267.188,-342.565C308.515,-365.563 413.658,-424.073 462.862,-451.455"/>
<polygon fill="midnightblue" stroke="midnightblue" points="461.206,-454.539 471.646,-456.343 464.61,-448.422 461.206,-454.539"/>
</g>
<!-- Node14 -->
<g id="node11" class="node"><title>Node14</title>
<g id="a_node11"><a xlink:href="lstring_8c.html#a6d47e53be6b8e58202bb927752f4824b" target="_top" xlink:title=" ">
<polygon fill="white" stroke="black" points="735.5,-266.5 735.5,-285.5 794.5,-285.5 794.5,-266.5 735.5,-266.5"/>
<text text-anchor="middle" x="765" y="-273.5" font-family="Helvetica,sans-Serif" font-size="10.00">luaS_new</text>
</a>
</g>
</g>
<!-- Node3&#45;&gt;Node14 -->
<g id="edge10" class="edge"><title>Node3&#45;&gt;Node14</title>
<path fill="none" stroke="midnightblue" d="M277.806,-329.595C333.948,-322.754 464.873,-306.973 575,-295 626.993,-289.347 687.1,-283.407 725.315,-279.704"/>
<polygon fill="midnightblue" stroke="midnightblue" points="725.871,-283.167 735.488,-278.721 725.197,-276.199 725.871,-283.167"/>
</g>
<!-- Node407 -->
<g id="node25" class="node"><title>Node407</title>
<g id="a_node25"><a xlink:href="lvm_8c.html#a190116824dc13c5d37a6b2962f425a0d" target="_top" xlink:title=" ">
<polygon fill="white" stroke="black" points="322.5,-551.5 322.5,-570.5 399.5,-570.5 399.5,-551.5 322.5,-551.5"/>
<text text-anchor="middle" x="361" y="-558.5" font-family="Helvetica,sans-Serif" font-size="10.00">luaV_finishset</text>
</a>
</g>
</g>
<!-- Node3&#45;&gt;Node407 -->
<g id="edge26" class="edge"><title>Node3&#45;&gt;Node407</title>
<path fill="none" stroke="midnightblue" d="M254.587,-342.507C271.219,-376.982 328.562,-495.838 350.947,-542.237"/>
<polygon fill="midnightblue" stroke="midnightblue" points="347.896,-543.967 355.394,-551.453 354.201,-540.925 347.896,-543.967"/>
</g>
<!-- Node5 -->
<g id="node5" class="node"><title>Node5</title>
<g id="a_node5"><a xlink:href="ltable_8c.html#a9170d329b0dd746ca9b15db8c22a2127" target="_top" xlink:title=" ">
<polygon fill="white" stroke="black" points="599,-532.5 599,-551.5 661,-551.5 661,-532.5 599,-532.5"/>
<text text-anchor="middle" x="630" y="-539.5" font-family="Helvetica,sans-Serif" font-size="10.00">getgeneric</text>
</a>
</g>
</g>
<!-- Node4&#45;&gt;Node5 -->
<g id="edge4" class="edge"><title>Node4&#45;&gt;Node5</title>
<path fill="none" stroke="midnightblue" d="M508.478,-475.625C532.223,-488.703 574.882,-512.196 602.556,-527.437"/>
<polygon fill="midnightblue" stroke="midnightblue" points="601.216,-530.694 611.664,-532.453 604.593,-524.563 601.216,-530.694"/>
</g>
<!-- Node13 -->
<g id="node10" class="node"><title>Node13</title>
<g id="a_node10"><a xlink:href="ltable_8c.html#ae8a52507e1c8966d9cf3f2dd5a0c325f" target="_top" xlink:title=" ">
<polygon fill="white" stroke="black" points="721,-437.5 721,-456.5 809,-456.5 809,-437.5 721,-437.5"/>
<text text-anchor="middle" x="765" y="-444.5" font-family="Helvetica,sans-Serif" font-size="10.00">luaH_getshortstr</text>
</a>
</g>
</g>
<!-- Node4&#45;&gt;Node13 -->
<g id="edge9" class="edge"><title>Node4&#45;&gt;Node13</title>
<path fill="none" stroke="midnightblue" d="M523.119,-463.765C569.295,-460.551 655.001,-454.586 710.744,-450.706"/>
<polygon fill="midnightblue" stroke="midnightblue" points="711.054,-454.193 720.787,-450.007 710.568,-447.21 711.054,-454.193"/>
</g>
<!-- Node6 -->
<g id="node6" class="node"><title>Node6</title>
<g id="a_node6"><a xlink:href="ltable_8c.html#af84f7eafe0a1b410624263c29224fec9" target="_top" xlink:title=" ">
<polygon fill="white" stroke="black" points="737,-494.5 737,-513.5 793,-513.5 793,-494.5 737,-494.5"/>
<text text-anchor="middle" x="765" y="-501.5" font-family="Helvetica,sans-Serif" font-size="10.00">equalkey</text>
</a>
</g>
</g>
<!-- Node5&#45;&gt;Node6 -->
<g id="edge5" class="edge"><title>Node5&#45;&gt;Node6</title>
<path fill="none" stroke="midnightblue" d="M661.18,-533.377C680.676,-527.807 706.179,-520.52 726.908,-514.598"/>
<polygon fill="midnightblue" stroke="midnightblue" points="728,-517.926 736.654,-511.813 726.077,-511.195 728,-517.926"/>
</g>
<!-- Node8 -->
<g id="node8" class="node"><title>Node8</title>
<g id="a_node8"><a xlink:href="ltable_8c.html#a3f0add4aa38ab8e59a5983ebab80ab42" target="_top" xlink:title=" ">
<polygon fill="white" stroke="black" points="723.5,-532.5 723.5,-551.5 806.5,-551.5 806.5,-532.5 723.5,-532.5"/>
<text text-anchor="middle" x="765" y="-539.5" font-family="Helvetica,sans-Serif" font-size="10.00">mainpositionTV</text>
</a>
</g>
</g>
<!-- Node5&#45;&gt;Node8 -->
<g id="edge7" class="edge"><title>Node5&#45;&gt;Node8</title>
<path fill="none" stroke="midnightblue" d="M661.18,-542C676.556,-542 695.669,-542 713.23,-542"/>
<polygon fill="midnightblue" stroke="midnightblue" points="713.35,-545.5 723.35,-542 713.35,-538.5 713.35,-545.5"/>
</g>
<!-- Node7 -->
<g id="node7" class="node"><title>Node7</title>
<g id="a_node7"><a xlink:href="lstring_8c.html#a99b8eea92097f11885050ff629ff0f83" target="_top" xlink:title=" ">
<polygon fill="white" stroke="black" points="845,-494.5 845,-513.5 921,-513.5 921,-494.5 845,-494.5"/>
<text text-anchor="middle" x="883" y="-501.5" font-family="Helvetica,sans-Serif" font-size="10.00">luaS_eqlngstr</text>
</a>
</g>
</g>
<!-- Node6&#45;&gt;Node7 -->
<g id="edge6" class="edge"><title>Node6&#45;&gt;Node7</title>
<path fill="none" stroke="midnightblue" d="M793.197,-504C805.591,-504 820.628,-504 834.778,-504"/>
<polygon fill="midnightblue" stroke="midnightblue" points="834.874,-507.5 844.874,-504 834.874,-500.5 834.874,-507.5"/>
</g>
<!-- Node9 -->
<g id="node9" class="node"><title>Node9</title>
<g id="a_node9"><a xlink:href="ltable_8c.html#a97b549a3507ec326a9d138a741f39bbc" target="_top" xlink:title=" ">
<polygon fill="white" stroke="red" points="847.5,-570.5 847.5,-589.5 918.5,-589.5 918.5,-570.5 847.5,-570.5"/>
<text text-anchor="middle" x="883" y="-577.5" font-family="Helvetica,sans-Serif" font-size="10.00">mainposition</text>
</a>
</g>
</g>
<!-- Node8&#45;&gt;Node9 -->
<g id="edge8" class="edge"><title>Node8&#45;&gt;Node9</title>
<path fill="none" stroke="midnightblue" d="M795.272,-551.589C809.697,-556.314 827.293,-562.079 842.857,-567.177"/>
<polygon fill="midnightblue" stroke="midnightblue" points="842.145,-570.627 852.738,-570.414 844.324,-563.975 842.145,-570.627"/>
</g>
<!-- Node15 -->
<g id="node12" class="node"><title>Node15</title>
<g id="a_node12"><a xlink:href="lstring_8c.html#ab41fb084ce3ea5e2779f6659ccc2484d" target="_top" xlink:title=" ">
<polygon fill="white" stroke="black" points="847,-199.5 847,-218.5 919,-218.5 919,-199.5 847,-199.5"/>
<text text-anchor="middle" x="883" y="-206.5" font-family="Helvetica,sans-Serif" font-size="10.00">luaS_newlstr</text>
</a>
</g>
</g>
<!-- Node14&#45;&gt;Node15 -->
<g id="edge11" class="edge"><title>Node14&#45;&gt;Node15</title>
<path fill="none" stroke="midnightblue" d="M782.62,-266.401C802.001,-255.206 834.246,-236.582 856.732,-223.595"/>
<polygon fill="midnightblue" stroke="midnightblue" points="858.502,-226.614 865.411,-218.582 855.001,-220.552 858.502,-226.614"/>
</g>
<!-- Node16 -->
<g id="node13" class="node"><title>Node16</title>
<g id="a_node13"><a xlink:href="lstring_8c.html#a9b2c32c59a280de24f20df1c7f0433a1" target="_top" xlink:title=" ">
<polygon fill="white" stroke="black" points="977,-190.5 977,-209.5 1042,-209.5 1042,-190.5 977,-190.5"/>
<text text-anchor="middle" x="1009.5" y="-197.5" font-family="Helvetica,sans-Serif" font-size="10.00">internshrstr</text>
</a>
</g>
</g>
<!-- Node15&#45;&gt;Node16 -->
<g id="edge12" class="edge"><title>Node15&#45;&gt;Node16</title>
<path fill="none" stroke="midnightblue" d="M919.012,-206.469C933.738,-205.405 950.997,-204.157 966.408,-203.043"/>
<polygon fill="midnightblue" stroke="midnightblue" points="967.007,-206.509 976.728,-202.297 966.502,-199.527 967.007,-206.509"/>
</g>
<!-- Node445 -->
<g id="node17" class="node"><title>Node445</title>
<g id="a_node17"><a xlink:href="lmem_8c.html#a8fc7df43dd830ccbe7581fd53f65bdbe" target="_top" xlink:title=" ">
<polygon fill="white" stroke="black" points="975,-228.5 975,-247.5 1044,-247.5 1044,-228.5 975,-228.5"/>
<text text-anchor="middle" x="1009.5" y="-235.5" font-family="Helvetica,sans-Serif" font-size="10.00">luaM_toobig</text>
</a>
</g>
</g>
<!-- Node15&#45;&gt;Node445 -->
<g id="edge16" class="edge"><title>Node15&#45;&gt;Node445</title>
<path fill="none" stroke="midnightblue" d="M919.012,-217.155C933.153,-220.449 949.631,-224.288 964.565,-227.766"/>
<polygon fill="midnightblue" stroke="midnightblue" points="964.076,-231.246 974.61,-230.106 965.664,-224.428 964.076,-231.246"/>
</g>
<!-- Node96 -->
<g id="node24" class="node"><title>Node96</title>
<g id="a_node24"><a xlink:href="lstring_8c.html#a8790c7d6e706f935dd6e9eefd068921c" target="_top" xlink:title=" ">
<polygon fill="white" stroke="black" points="957,-152.5 957,-171.5 1062,-171.5 1062,-152.5 957,-152.5"/>
<text text-anchor="middle" x="1009.5" y="-159.5" font-family="Helvetica,sans-Serif" font-size="10.00">luaS_createlngstrobj</text>
</a>
</g>
</g>
<!-- Node15&#45;&gt;Node96 -->
<g id="edge24" class="edge"><title>Node15&#45;&gt;Node96</title>
<path fill="none" stroke="midnightblue" d="M908.637,-199.46C922.773,-194.009 940.865,-187.07 957,-181 962.185,-179.049 967.67,-177.005 973.052,-175.01"/>
<polygon fill="midnightblue" stroke="midnightblue" points="974.374,-178.253 982.541,-171.504 971.947,-171.687 974.374,-178.253"/>
</g>
<!-- Node17 -->
<g id="node14" class="node"><title>Node17</title>
<g id="a_node14"><a xlink:href="lstring_8c.html#a85a1a917ef263701e47c36e68011d917" target="_top" xlink:title=" ">
<polygon fill="white" stroke="red" points="1101.5,-152.5 1101.5,-171.5 1169.5,-171.5 1169.5,-152.5 1101.5,-152.5"/>
<text text-anchor="middle" x="1135.5" y="-159.5" font-family="Helvetica,sans-Serif" font-size="10.00">createstrobj</text>
</a>
</g>
</g>
<!-- Node16&#45;&gt;Node17 -->
<g id="edge13" class="edge"><title>Node16&#45;&gt;Node17</title>
<path fill="none" stroke="midnightblue" d="M1041.79,-190.411C1057.5,-185.596 1076.74,-179.701 1093.61,-174.532"/>
<polygon fill="midnightblue" stroke="midnightblue" points="1094.68,-177.862 1103.22,-171.586 1092.63,-171.17 1094.68,-177.862"/>
</g>
<!-- Node19 -->
<g id="node15" class="node"><title>Node19</title>
<g id="a_node15"><a xlink:href="lstring_8c.html#af8b89b01dc2db9f0d3024067ffdb931a" target="_top" xlink:title=" ">
<polygon fill="white" stroke="red" points="1104.5,-228.5 1104.5,-247.5 1166.5,-247.5 1166.5,-228.5 1104.5,-228.5"/>
<text text-anchor="middle" x="1135.5" y="-235.5" font-family="Helvetica,sans-Serif" font-size="10.00">growstrtab</text>
</a>
</g>
</g>
<!-- Node16&#45;&gt;Node19 -->
<g id="edge14" class="edge"><title>Node16&#45;&gt;Node19</title>
<path fill="none" stroke="midnightblue" d="M1041.79,-209.589C1057.74,-214.478 1077.33,-220.479 1094.38,-225.704"/>
<polygon fill="midnightblue" stroke="midnightblue" points="1093.49,-229.093 1104.08,-228.677 1095.54,-222.4 1093.49,-229.093"/>
</g>
<!-- Node12 -->
<g id="node16" class="node"><title>Node12</title>
<g id="a_node16"><a xlink:href="lstring_8c.html#ac453c0e85b7bb4e9b146fc140b1b7c9e" target="_top" xlink:title=" ">
<polygon fill="white" stroke="black" points="1104.5,-190.5 1104.5,-209.5 1166.5,-209.5 1166.5,-190.5 1104.5,-190.5"/>
<text text-anchor="middle" x="1135.5" y="-197.5" font-family="Helvetica,sans-Serif" font-size="10.00">luaS_hash</text>
</a>
</g>
</g>
<!-- Node16&#45;&gt;Node12 -->
<g id="edge15" class="edge"><title>Node16&#45;&gt;Node12</title>
<path fill="none" stroke="midnightblue" d="M1042.11,-200C1057.92,-200 1077.22,-200 1094.09,-200"/>
<polygon fill="midnightblue" stroke="midnightblue" points="1094.23,-203.5 1104.23,-200 1094.23,-196.5 1094.23,-203.5"/>
</g>
<!-- Node82 -->
<g id="node18" class="node"><title>Node82</title>
<g id="a_node18"><a xlink:href="ldebug_8c.html#a88d38ca5da2e7a1492fc9d5ad70c32c5" target="_top" xlink:title=" ">
<polygon fill="white" stroke="black" points="1098,-342.5 1098,-361.5 1173,-361.5 1173,-342.5 1098,-342.5"/>
<text text-anchor="middle" x="1135.5" y="-349.5" font-family="Helvetica,sans-Serif" font-size="10.00">luaG_runerror</text>
</a>
</g>
</g>
<!-- Node445&#45;&gt;Node82 -->
<g id="edge17" class="edge"><title>Node445&#45;&gt;Node82</title>
<path fill="none" stroke="midnightblue" d="M1036.97,-247.564C1045.44,-251.327 1054.54,-256.161 1062,-262 1088.06,-282.412 1110.65,-313.9 1123.41,-333.706"/>
<polygon fill="midnightblue" stroke="midnightblue" points="1120.58,-335.78 1128.86,-342.391 1126.51,-332.06 1120.58,-335.78"/>
</g>
<!-- Node83 -->
<g id="node19" class="node"><title>Node83</title>
<g id="a_node19"><a xlink:href="ldebug_8c.html#ad6bc24d619df8e849e2ae8b00455d86f" target="_top" xlink:title=" ">
<polygon fill="white" stroke="red" points="1218,-342.5 1218,-361.5 1293,-361.5 1293,-342.5 1218,-342.5"/>
<text text-anchor="middle" x="1255.5" y="-349.5" font-family="Helvetica,sans-Serif" font-size="10.00">getcurrentline</text>
</a>
</g>
</g>
<!-- Node82&#45;&gt;Node83 -->
<g id="edge18" class="edge"><title>Node82&#45;&gt;Node83</title>
<path fill="none" stroke="midnightblue" d="M1173.19,-352C1184.07,-352 1196.13,-352 1207.56,-352"/>
<polygon fill="midnightblue" stroke="midnightblue" points="1207.83,-355.5 1217.83,-352 1207.83,-348.5 1207.83,-355.5"/>
</g>
<!-- Node86 -->
<g id="node20" class="node"><title>Node86</title>
<g id="a_node20"><a xlink:href="ldebug_8c.html#a7e1dc7518150bf19bd9aa5dda166a2eb" target="_top" xlink:title=" ">
<polygon fill="white" stroke="red" points="1219,-304.5 1219,-323.5 1292,-323.5 1292,-304.5 1219,-304.5"/>
<text text-anchor="middle" x="1255.5" y="-311.5" font-family="Helvetica,sans-Serif" font-size="10.00">luaG_addinfo</text>
</a>
</g>
</g>
<!-- Node82&#45;&gt;Node86 -->
<g id="edge19" class="edge"><title>Node82&#45;&gt;Node86</title>
<path fill="none" stroke="midnightblue" d="M1166.28,-342.411C1181.09,-337.641 1199.19,-331.811 1215.13,-326.677"/>
<polygon fill="midnightblue" stroke="midnightblue" points="1216.29,-329.983 1224.73,-323.586 1214.14,-323.32 1216.29,-329.983"/>
</g>
<!-- Node118 -->
<g id="node21" class="node"><title>Node118</title>
<g id="a_node21"><a xlink:href="ldebug_8c.html#af7366920f8408bb33ed01b1d6c0e1238" target="_top" xlink:title=" ">
<polygon fill="white" stroke="red" points="1215.5,-266.5 1215.5,-285.5 1295.5,-285.5 1295.5,-266.5 1215.5,-266.5"/>
<text text-anchor="middle" x="1255.5" y="-273.5" font-family="Helvetica,sans-Serif" font-size="10.00">luaG_errormsg</text>
</a>
</g>
</g>
<!-- Node82&#45;&gt;Node118 -->
<g id="edge20" class="edge"><title>Node82&#45;&gt;Node118</title>
<path fill="none" stroke="midnightblue" d="M1147.12,-342.12C1160.69,-329.881 1185.25,-308.944 1209,-295 1212.05,-293.212 1215.29,-291.507 1218.59,-289.905"/>
<polygon fill="midnightblue" stroke="midnightblue" points="1220.26,-292.991 1227.93,-285.676 1217.37,-286.614 1220.26,-292.991"/>
</g>
<!-- Node89 -->
<g id="node23" class="node"><title>Node89</title>
<g id="a_node23"><a xlink:href="lobject_8c.html#aa83fa444a36d79521e846a766fa083d5" target="_top" xlink:title=" ">
<polygon fill="white" stroke="red" points="1209,-380.5 1209,-399.5 1302,-399.5 1302,-380.5 1209,-380.5"/>
<text text-anchor="middle" x="1255.5" y="-387.5" font-family="Helvetica,sans-Serif" font-size="10.00">luaO_pushvfstring</text>
</a>
</g>
</g>
<!-- Node82&#45;&gt;Node89 -->
<g id="edge22" class="edge"><title>Node82&#45;&gt;Node89</title>
<path fill="none" stroke="midnightblue" d="M1173.19,-357.514C1191.68,-362.689 1213.59,-369.982 1230.01,-376.519"/>
<polygon fill="midnightblue" stroke="midnightblue" points="1228.87,-379.834 1239.44,-380.465 1231.57,-373.376 1228.87,-379.834"/>
</g>
<!-- Node61 -->
<g id="node22" class="node"><title>Node61</title>
<g id="a_node22"><a xlink:href="ldo_8c.html#a61c0a0185ef5ae1493dad10027f4db7e" target="_top" xlink:title=" ">
<polygon fill="white" stroke="red" points="1338,-266.5 1338,-285.5 1425,-285.5 1425,-266.5 1338,-266.5"/>
<text text-anchor="middle" x="1381.5" y="-273.5" font-family="Helvetica,sans-Serif" font-size="10.00">luaD_callnoyield</text>
</a>
</g>
</g>
<!-- Node118&#45;&gt;Node61 -->
<g id="edge21" class="edge"><title>Node118&#45;&gt;Node61</title>
<path fill="none" stroke="midnightblue" d="M1295.73,-276C1305.84,-276 1316.89,-276 1327.57,-276"/>
<polygon fill="midnightblue" stroke="midnightblue" points="1327.65,-279.5 1337.65,-276 1327.65,-272.5 1327.65,-279.5"/>
</g>
<!-- Node89&#45;&gt;Node82 -->
<g id="edge23" class="edge"><title>Node89&#45;&gt;Node82</title>
<path fill="none" stroke="midnightblue" d="M1208.76,-381.868C1192.58,-377.036 1174.98,-371.042 1161.21,-365.569"/>
<polygon fill="midnightblue" stroke="midnightblue" points="1162.5,-362.317 1151.93,-361.699 1159.81,-368.778 1162.5,-362.317"/>
</g>
<!-- Node96&#45;&gt;Node17 -->
<g id="edge25" class="edge"><title>Node96&#45;&gt;Node17</title>
<path fill="none" stroke="midnightblue" d="M1062.01,-162C1071.68,-162 1081.7,-162 1091.09,-162"/>
<polygon fill="midnightblue" stroke="midnightblue" points="1091.38,-165.5 1101.38,-162 1091.38,-158.5 1091.38,-165.5"/>
</g>
<!-- Node407&#45;&gt;Node82 -->
<g id="edge27" class="edge"><title>Node407&#45;&gt;Node82</title>
<path fill="none" stroke="midnightblue" d="M367.036,-570.657C377.771,-590.21 404.902,-634.447 441,-656 514.191,-699.701 543.755,-694 629,-694 629,-694 629,-694 884,-694 1045.03,-694 1113.79,-444.184 1130.37,-371.571"/>
<polygon fill="midnightblue" stroke="midnightblue" points="1133.85,-372.023 1132.59,-361.504 1127.02,-370.516 1133.85,-372.023"/>
</g>
<!-- Node102 -->
<g id="node26" class="node"><title>Node102</title>
<g id="a_node26"><a xlink:href="ldebug_8c.html#a60bf9ce85441bd5065f2b73640163711" target="_top" xlink:title=" ">
<polygon fill="white" stroke="black" points="450,-342.5 450,-361.5 530,-361.5 530,-342.5 450,-342.5"/>
<text text-anchor="middle" x="490" y="-349.5" font-family="Helvetica,sans-Serif" font-size="10.00">luaG_typeerror</text>
</a>
</g>
</g>
<!-- Node407&#45;&gt;Node102 -->
<g id="edge28" class="edge"><title>Node407&#45;&gt;Node102</title>
<path fill="none" stroke="midnightblue" d="M363.345,-551.234C368.081,-520.452 386.736,-424.342 441,-371 442.438,-369.586 443.994,-368.274 445.636,-367.057"/>
<polygon fill="midnightblue" stroke="midnightblue" points="447.684,-369.909 454.418,-361.729 444.053,-363.924 447.684,-369.909"/>
</g>
<!-- Node158 -->
<g id="node29" class="node"><title>Node158</title>
<g id="a_node29"><a xlink:href="ltable_8c.html#a72e6b8ad422b01d0b34197134cec1f7a" target="_top" xlink:title=" ">
<polygon fill="white" stroke="black" points="451.5,-627.5 451.5,-646.5 528.5,-646.5 528.5,-627.5 451.5,-627.5"/>
<text text-anchor="middle" x="490" y="-634.5" font-family="Helvetica,sans-Serif" font-size="10.00">luaH_finishset</text>
</a>
</g>
</g>
<!-- Node407&#45;&gt;Node158 -->
<g id="edge34" class="edge"><title>Node407&#45;&gt;Node158</title>
<path fill="none" stroke="midnightblue" d="M378.085,-570.625C399.842,-583.645 438.853,-606.991 464.329,-622.236"/>
<polygon fill="midnightblue" stroke="midnightblue" points="462.668,-625.321 473.046,-627.453 466.262,-619.314 462.668,-625.321"/>
</g>
<!-- Node162 -->
<g id="node32" class="node"><title>Node162</title>
<g id="a_node32"><a xlink:href="ltable_8c.html#a8b4fce00d7db27ee9caac3d49863dea3" target="_top" xlink:title=" ">
<polygon fill="white" stroke="black" points="462.5,-551.5 462.5,-570.5 517.5,-570.5 517.5,-551.5 462.5,-551.5"/>
<text text-anchor="middle" x="490" y="-558.5" font-family="Helvetica,sans-Serif" font-size="10.00">luaH_get</text>
</a>
</g>
</g>
<!-- Node407&#45;&gt;Node162 -->
<g id="edge40" class="edge"><title>Node407&#45;&gt;Node162</title>
<path fill="none" stroke="midnightblue" d="M399.76,-561C416.315,-561 435.678,-561 452.13,-561"/>
<polygon fill="midnightblue" stroke="midnightblue" points="452.461,-564.5 462.461,-561 452.461,-557.5 452.461,-564.5"/>
</g>
<!-- Node408 -->
<g id="node34" class="node"><title>Node408</title>
<g id="a_node34"><a xlink:href="ltm_8c.html#a719f499f44a66a0fe32eef5a2c485ba3" target="_top" xlink:title=" ">
<polygon fill="white" stroke="black" points="456,-722.5 456,-741.5 524,-741.5 524,-722.5 456,-722.5"/>
<text text-anchor="middle" x="490" y="-729.5" font-family="Helvetica,sans-Serif" font-size="10.00">luaT_callTM</text>
</a>
</g>
</g>
<!-- Node407&#45;&gt;Node408 -->
<g id="edge45" class="edge"><title>Node407&#45;&gt;Node408</title>
<path fill="none" stroke="midnightblue" d="M364.846,-570.503C372.876,-595.895 397.972,-666.222 441,-708 444.747,-711.639 449.156,-714.835 453.755,-717.607"/>
<polygon fill="midnightblue" stroke="midnightblue" points="452.248,-720.771 462.714,-722.423 455.563,-714.605 452.248,-720.771"/>
</g>
<!-- Node76 -->
<g id="node36" class="node"><title>Node76</title>
<g id="a_node36"><a xlink:href="ltm_8c.html#a0a3a3df9d6e7f17d806f74d411e59b2d" target="_top" xlink:title=" ">
<polygon fill="white" stroke="black" points="586,-418.5 586,-437.5 674,-437.5 674,-418.5 586,-418.5"/>
<text text-anchor="middle" x="630" y="-425.5" font-family="Helvetica,sans-Serif" font-size="10.00">luaT_gettmbyobj</text>
</a>
</g>
</g>
<!-- Node407&#45;&gt;Node76 -->
<g id="edge48" class="edge"><title>Node407&#45;&gt;Node76</title>
<path fill="none" stroke="midnightblue" d="M365.469,-551.22C374.137,-528.401 399.101,-471.705 441,-447 481.683,-423.012 536.066,-419.995 575.873,-421.949"/>
<polygon fill="midnightblue" stroke="midnightblue" points="575.724,-425.447 585.918,-422.562 576.15,-418.46 575.724,-425.447"/>
</g>
<!-- Node102&#45;&gt;Node82 -->
<g id="edge29" class="edge"><title>Node102&#45;&gt;Node82</title>
<path fill="none" stroke="midnightblue" d="M530.332,-352C583.385,-352 680.82,-352 764,-352 764,-352 764,-352 884,-352 955.053,-352 1037.44,-352 1087.76,-352"/>
<polygon fill="midnightblue" stroke="midnightblue" points="1087.99,-355.5 1097.99,-352 1087.99,-348.5 1087.99,-355.5"/>
</g>
<!-- Node103 -->
<g id="node27" class="node"><title>Node103</title>
<g id="a_node27"><a xlink:href="ltm_8c.html#a6774390baf68edcb78194d0e0f8546ab" target="_top" xlink:title=" ">
<polygon fill="white" stroke="black" points="582.5,-304.5 582.5,-323.5 677.5,-323.5 677.5,-304.5 582.5,-304.5"/>
<text text-anchor="middle" x="630" y="-311.5" font-family="Helvetica,sans-Serif" font-size="10.00">luaT_objtypename</text>
</a>
</g>
</g>
<!-- Node102&#45;&gt;Node103 -->
<g id="edge30" class="edge"><title>Node102&#45;&gt;Node103</title>
<path fill="none" stroke="midnightblue" d="M525.823,-342.411C543.638,-337.506 565.518,-331.48 584.539,-326.243"/>
<polygon fill="midnightblue" stroke="midnightblue" points="585.476,-329.615 594.188,-323.586 583.618,-322.866 585.476,-329.615"/>
</g>
<!-- Node104 -->
<g id="node28" class="node"><title>Node104</title>
<g id="a_node28"><a xlink:href="ldebug_8c.html#a86692faa1669d631d38c24993d511dd5" target="_top" xlink:title=" ">
<polygon fill="white" stroke="red" points="608,-380.5 608,-399.5 652,-399.5 652,-380.5 608,-380.5"/>
<text text-anchor="middle" x="630" y="-387.5" font-family="Helvetica,sans-Serif" font-size="10.00">varinfo</text>
</a>
</g>
</g>
<!-- Node102&#45;&gt;Node104 -->
<g id="edge33" class="edge"><title>Node102&#45;&gt;Node104</title>
<path fill="none" stroke="midnightblue" d="M525.823,-361.589C548.055,-367.711 576.621,-375.577 598.056,-381.479"/>
<polygon fill="midnightblue" stroke="midnightblue" points="597.377,-384.922 607.947,-384.203 599.235,-378.173 597.377,-384.922"/>
</g>
<!-- Node103&#45;&gt;Node13 -->
<g id="edge31" class="edge"><title>Node103&#45;&gt;Node13</title>
<path fill="none" stroke="midnightblue" d="M640.565,-323.565C662.887,-345.887 718.664,-401.664 746.961,-429.961"/>
<polygon fill="midnightblue" stroke="midnightblue" points="744.617,-432.567 754.163,-437.163 749.567,-427.617 744.617,-432.567"/>
</g>
<!-- Node103&#45;&gt;Node14 -->
<g id="edge32" class="edge"><title>Node103&#45;&gt;Node14</title>
<path fill="none" stroke="midnightblue" d="M664.562,-304.411C683.172,-299.094 706.388,-292.461 725.705,-286.941"/>
<polygon fill="midnightblue" stroke="midnightblue" points="726.753,-290.282 735.407,-284.169 724.83,-283.551 726.753,-290.282"/>
</g>
<!-- Node159 -->
<g id="node30" class="node"><title>Node159</title>
<g id="a_node30"><a xlink:href="ltable_8c.html#a6ce3d9b25029784215e203196f0d0686" target="_top" xlink:title=" ">
<polygon fill="white" stroke="red" points="593,-646.5 593,-665.5 667,-665.5 667,-646.5 593,-646.5"/>
<text text-anchor="middle" x="630" y="-653.5" font-family="Helvetica,sans-Serif" font-size="10.00">luaH_newkey</text>
</a>
</g>
</g>
<!-- Node158&#45;&gt;Node159 -->
<g id="edge35" class="edge"><title>Node158&#45;&gt;Node159</title>
<path fill="none" stroke="midnightblue" d="M528.709,-642.192C545.387,-644.488 565.159,-647.21 582.72,-649.628"/>
<polygon fill="midnightblue" stroke="midnightblue" points="582.381,-653.114 592.765,-651.011 583.336,-646.18 582.381,-653.114"/>
</g>
<!-- Node159&#45;&gt;Node8 -->
<g id="edge39" class="edge"><title>Node159&#45;&gt;Node8</title>
<path fill="none" stroke="midnightblue" d="M640.275,-646.204C663.228,-621.961 720.851,-561.105 721,-561 723.376,-559.324 725.924,-557.747 728.549,-556.273"/>
<polygon fill="midnightblue" stroke="midnightblue" points="730.299,-559.31 737.637,-551.668 727.135,-553.066 730.299,-559.31"/>
</g>
<!-- Node159&#45;&gt;Node9 -->
<g id="edge38" class="edge"><title>Node159&#45;&gt;Node9</title>
<path fill="none" stroke="midnightblue" d="M662.535,-646.452C707.619,-632.801 790.558,-607.688 840.555,-592.549"/>
<polygon fill="midnightblue" stroke="midnightblue" points="841.84,-595.817 850.396,-589.569 839.811,-589.117 841.84,-595.817"/>
</g>
<!-- Node159&#45;&gt;Node82 -->
<g id="edge36" class="edge"><title>Node159&#45;&gt;Node82</title>
<path fill="none" stroke="midnightblue" d="M667.409,-656.832C725.446,-656.503 840.576,-648.94 921,-599 1019.47,-537.854 1096.86,-416.786 1124.01,-370.546"/>
<polygon fill="midnightblue" stroke="midnightblue" points="1127.19,-372.038 1129.16,-361.629 1121.13,-368.535 1127.19,-372.038"/>
</g>
<!-- Node133 -->
<g id="node31" class="node"><title>Node133</title>
<g id="a_node31"><a xlink:href="lvm_8c.html#a3a9a9378ccdbd0ea4cba6555673dccf9" target="_top" xlink:title=" ">
<polygon fill="white" stroke="black" points="722,-570.5 722,-589.5 808,-589.5 808,-570.5 722,-570.5"/>
<text text-anchor="middle" x="765" y="-577.5" font-family="Helvetica,sans-Serif" font-size="10.00">luaV_flttointeger</text>
</a>
</g>
</g>
<!-- Node159&#45;&gt;Node133 -->
<g id="edge37" class="edge"><title>Node159&#45;&gt;Node133</title>
<path fill="none" stroke="midnightblue" d="M655.824,-646.463C665.218,-642.471 675.847,-637.482 685,-632 702.389,-621.585 704.101,-615.194 721,-604 725.811,-600.813 731.074,-597.638 736.217,-594.691"/>
<polygon fill="midnightblue" stroke="midnightblue" points="738.187,-597.6 745.22,-589.677 734.781,-591.484 738.187,-597.6"/>
</g>
<!-- Node162&#45;&gt;Node5 -->
<g id="edge41" class="edge"><title>Node162&#45;&gt;Node5</title>
<path fill="none" stroke="midnightblue" d="M517.608,-557.337C537.712,-554.569 565.656,-550.721 588.526,-547.573"/>
<polygon fill="midnightblue" stroke="midnightblue" points="589.201,-551.013 598.63,-546.181 588.246,-544.078 589.201,-551.013"/>
</g>
<!-- Node162&#45;&gt;Node13 -->
<g id="edge43" class="edge"><title>Node162&#45;&gt;Node13</title>
<path fill="none" stroke="midnightblue" d="M511.604,-551.384C528.543,-543.55 553.214,-532.303 575,-523 628.742,-500.051 691.846,-475.065 729.838,-460.232"/>
<polygon fill="midnightblue" stroke="midnightblue" points="731.35,-463.399 739.397,-456.508 728.809,-456.877 731.35,-463.399"/>
</g>
<!-- Node162&#45;&gt;Node133 -->
<g id="edge44" class="edge"><title>Node162&#45;&gt;Node133</title>
<path fill="none" stroke="midnightblue" d="M506.711,-570.571C523.08,-579.938 549.809,-593.567 575,-599 622.79,-609.307 636.451,-604.756 685,-599 697.257,-597.547 710.365,-594.867 722.309,-591.97"/>
<polygon fill="midnightblue" stroke="midnightblue" points="723.192,-595.357 732.025,-589.506 721.471,-588.571 723.192,-595.357"/>
</g>
<!-- Node163 -->
<g id="node33" class="node"><title>Node163</title>
<g id="a_node33"><a xlink:href="ltable_8c.html#ae142cefd44452389877c3e3187c7973e" target="_top" xlink:title=" ">
<polygon fill="white" stroke="red" points="597.5,-570.5 597.5,-589.5 662.5,-589.5 662.5,-570.5 597.5,-570.5"/>
<text text-anchor="middle" x="630" y="-577.5" font-family="Helvetica,sans-Serif" font-size="10.00">luaH_getint</text>
</a>
</g>
</g>
<!-- Node162&#45;&gt;Node163 -->
<g id="edge42" class="edge"><title>Node162&#45;&gt;Node163</title>
<path fill="none" stroke="midnightblue" d="M517.608,-564.663C537.305,-567.375 564.526,-571.123 587.129,-574.235"/>
<polygon fill="midnightblue" stroke="midnightblue" points="586.761,-577.717 597.145,-575.614 587.716,-570.783 586.761,-577.717"/>
</g>
<!-- Node408&#45;&gt;Node61 -->
<g id="edge47" class="edge"><title>Node408&#45;&gt;Node61</title>
<path fill="none" stroke="midnightblue" d="M524.334,-740.525C539.679,-744.195 558.176,-748.262 575,-751 658.327,-764.56 679.577,-770 764,-770 764,-770 764,-770 1136.5,-770 1351.61,-770 1377.08,-388.797 1380.1,-296.123"/>
<polygon fill="midnightblue" stroke="midnightblue" points="1383.6,-295.959 1380.37,-285.868 1376.6,-295.77 1383.6,-295.959"/>
</g>
<!-- Node100 -->
<g id="node35" class="node"><title>Node100</title>
<g id="a_node35"><a xlink:href="ldo_8c.html#a5483fddd87ca999e7d037bf397ab7997" target="_top" xlink:title=" ">
<polygon fill="white" stroke="red" points="602,-722.5 602,-741.5 658,-741.5 658,-722.5 602,-722.5"/>
<text text-anchor="middle" x="630" y="-729.5" font-family="Helvetica,sans-Serif" font-size="10.00">luaD_call</text>
</a>
</g>
</g>
<!-- Node408&#45;&gt;Node100 -->
<g id="edge46" class="edge"><title>Node408&#45;&gt;Node100</title>
<path fill="none" stroke="midnightblue" d="M524.054,-732C544.382,-732 570.485,-732 591.572,-732"/>
<polygon fill="midnightblue" stroke="midnightblue" points="591.778,-735.5 601.778,-732 591.778,-728.5 591.778,-735.5"/>
</g>
<!-- Node76&#45;&gt;Node13 -->
<g id="edge49" class="edge"><title>Node76&#45;&gt;Node13</title>
<path fill="none" stroke="midnightblue" d="M674.181,-434.169C685.796,-435.828 698.497,-437.642 710.596,-439.371"/>
<polygon fill="midnightblue" stroke="midnightblue" points="710.186,-442.848 720.58,-440.797 711.176,-435.918 710.186,-442.848"/>
</g>
<!-- Node67 -->
<g id="node38" class="node"><title>Node67</title>
<g id="a_node38"><a xlink:href="lfunc_8c.html#ae9fcbf80b5969afd9412b9aed102f94e" target="_top" xlink:title=" ">
<polygon fill="white" stroke="black" points="217,-114.5 217,-133.5 281,-133.5 281,-114.5 217,-114.5"/>
<text text-anchor="middle" x="249" y="-121.5" font-family="Helvetica,sans-Serif" font-size="10.00">luaF_close</text>
</a>
</g>
</g>
<!-- Node446&#45;&gt;Node67 -->
<g id="edge51" class="edge"><title>Node446&#45;&gt;Node67</title>
<path fill="none" stroke="midnightblue" d="M174.792,-147.455C185.361,-144.069 197.423,-140.204 208.665,-136.602"/>
<polygon fill="midnightblue" stroke="midnightblue" points="209.82,-139.908 218.275,-133.524 207.684,-133.242 209.82,-139.908"/>
</g>
<!-- Node68 -->
<g id="node39" class="node"><title>Node68</title>
<g id="a_node39"><a xlink:href="lfunc_8c.html#a4105c820bb9b1b4b4b3bd6613b0ccb05" target="_top" xlink:title=" ">
<polygon fill="white" stroke="black" points="325.5,-133.5 325.5,-152.5 396.5,-152.5 396.5,-133.5 325.5,-133.5"/>
<text text-anchor="middle" x="361" y="-140.5" font-family="Helvetica,sans-Serif" font-size="10.00">callclosemth</text>
</a>
</g>
</g>
<!-- Node67&#45;&gt;Node68 -->
<g id="edge52" class="edge"><title>Node67&#45;&gt;Node68</title>
<path fill="none" stroke="midnightblue" d="M281.227,-129.394C291.732,-131.208 303.668,-133.27 315.016,-135.23"/>
<polygon fill="midnightblue" stroke="midnightblue" points="314.764,-138.738 325.214,-136.992 315.956,-131.84 314.764,-138.738"/>
</g>
<!-- Node120 -->
<g id="node50" class="node"><title>Node120</title>
<g id="a_node50"><a xlink:href="lfunc_8c.html#a3b5a5ae122e85af5c941e9b4ffff53bd" target="_top" xlink:title=" ">
<polygon fill="white" stroke="black" points="317,-57.5 317,-76.5 405,-76.5 405,-57.5 317,-57.5"/>
<text text-anchor="middle" x="361" y="-64.5" font-family="Helvetica,sans-Serif" font-size="10.00">luaF_unlinkupval</text>
</a>
</g>
</g>
<!-- Node67&#45;&gt;Node120 -->
<g id="edge68" class="edge"><title>Node67&#45;&gt;Node120</title>
<path fill="none" stroke="midnightblue" d="M268.66,-114.331C286.228,-105.227 312.75,-91.4843 332.695,-81.1487"/>
<polygon fill="midnightblue" stroke="midnightblue" points="334.347,-84.2349 341.616,-76.5265 331.126,-78.0198 334.347,-84.2349"/>
</g>
<!-- Node69 -->
<g id="node40" class="node"><title>Node69</title>
<g id="a_node40"><a xlink:href="lfunc_8c.html#ad6f77f3a49d8b6199525c7edac6fd0a6" target="_top" xlink:title=" ">
<polygon fill="white" stroke="black" points="855.5,-114.5 855.5,-133.5 910.5,-133.5 910.5,-114.5 855.5,-114.5"/>
<text text-anchor="middle" x="883" y="-121.5" font-family="Helvetica,sans-Serif" font-size="10.00">callclose</text>
</a>
</g>
</g>
<!-- Node68&#45;&gt;Node69 -->
<g id="edge53" class="edge"><title>Node68&#45;&gt;Node69</title>
<path fill="none" stroke="midnightblue" d="M396.521,-141.739C490.208,-138.315 748.658,-128.872 845.086,-125.349"/>
<polygon fill="midnightblue" stroke="midnightblue" points="845.365,-128.841 855.23,-124.978 845.109,-121.846 845.365,-128.841"/>
</g>
<!-- Node70 -->
<g id="node41" class="node"><title>Node70</title>
<g id="a_node41"><a xlink:href="ldo_8c.html#a1ad7f845cc62b110e3fcc0ae187d7c85" target="_top" xlink:title=" ">
<polygon fill="white" stroke="black" points="459,-38.5 459,-57.5 521,-57.5 521,-38.5 459,-38.5"/>
<text text-anchor="middle" x="490" y="-45.5" font-family="Helvetica,sans-Serif" font-size="10.00">luaD_pcall</text>
</a>
</g>
</g>
<!-- Node68&#45;&gt;Node70 -->
<g id="edge55" class="edge"><title>Node68&#45;&gt;Node70</title>
<path fill="none" stroke="midnightblue" d="M383.239,-133.356C390.558,-129.478 398.534,-124.593 405,-119 424.901,-101.787 420.713,-88.7571 441,-72 445.31,-68.4399 450.236,-65.2302 455.253,-62.4023"/>
<polygon fill="midnightblue" stroke="midnightblue" points="457,-65.4393 464.269,-57.7311 453.78,-59.2241 457,-65.4393"/>
</g>
<!-- Node72 -->
<g id="node43" class="node"><title>Node72</title>
<g id="a_node43"><a xlink:href="ldo_8c.html#a2a5656cf723dffe2e9b5314260bd8896" target="_top" xlink:title=" ">
<polygon fill="white" stroke="black" points="586.5,-76.5 586.5,-95.5 673.5,-95.5 673.5,-76.5 586.5,-76.5"/>
<text text-anchor="middle" x="630" y="-83.5" font-family="Helvetica,sans-Serif" font-size="10.00">luaD_seterrorobj</text>
</a>
</g>
</g>
<!-- Node68&#45;&gt;Node72 -->
<g id="edge60" class="edge"><title>Node68&#45;&gt;Node72</title>
<path fill="none" stroke="midnightblue" d="M380.971,-133.37C396.665,-125.825 419.749,-115.684 441,-110 485.599,-98.072 537.784,-92.0096 575.843,-88.9662"/>
<polygon fill="midnightblue" stroke="midnightblue" points="576.476,-92.4285 586.184,-88.1855 575.949,-85.4483 576.476,-92.4285"/>
</g>
<!-- Node73 -->
<g id="node45" class="node"><title>Node73</title>
<g id="a_node45"><a xlink:href="lstate_8c.html#a242ebb018d637c41f24b84a2bbc78f34" target="_top" xlink:title=" ">
<polygon fill="white" stroke="black" points="449.5,-152.5 449.5,-171.5 530.5,-171.5 530.5,-152.5 449.5,-152.5"/>
<text text-anchor="middle" x="490" y="-159.5" font-family="Helvetica,sans-Serif" font-size="10.00">luaE_warnerror</text>
</a>
</g>
</g>
<!-- Node68&#45;&gt;Node73 -->
<g id="edge61" class="edge"><title>Node68&#45;&gt;Node73</title>
<path fill="none" stroke="midnightblue" d="M396.703,-148.192C409.823,-150.155 425.024,-152.429 439.256,-154.558"/>
<polygon fill="midnightblue" stroke="midnightblue" points="438.996,-158.058 449.404,-156.076 440.032,-151.135 438.996,-158.058"/>
</g>
<!-- Node75 -->
<g id="node47" class="node"><title>Node75</title>
<g id="a_node47"><a xlink:href="lfunc_8c.html#a523bc674df9f893ade61463c4ba5f09a" target="_top" xlink:title=" ">
<polygon fill="white" stroke="black" points="441,-380.5 441,-399.5 539,-399.5 539,-380.5 441,-380.5"/>
<text text-anchor="middle" x="490" y="-387.5" font-family="Helvetica,sans-Serif" font-size="10.00">prepclosingmethod</text>
</a>
</g>
</g>
<!-- Node68&#45;&gt;Node75 -->
<g id="edge63" class="edge"><title>Node68&#45;&gt;Node75</title>
<path fill="none" stroke="midnightblue" d="M362.564,-152.691C365.081,-187.172 378.129,-305.341 441,-371 442.395,-372.456 443.915,-373.804 445.528,-375.05"/>
<polygon fill="midnightblue" stroke="midnightblue" points="443.878,-378.146 454.214,-380.472 447.585,-372.208 443.878,-378.146"/>
</g>
<!-- Node77 -->
<g id="node48" class="node"><title>Node77</title>
<g id="a_node48"><a xlink:href="lfunc_8c.html#a865c4fcb22304c78c59721af224c34b6" target="_top" xlink:title=" ">
<polygon fill="white" stroke="black" points="466,-190.5 466,-209.5 514,-209.5 514,-190.5 466,-190.5"/>
<text text-anchor="middle" x="490" y="-197.5" font-family="Helvetica,sans-Serif" font-size="10.00">varerror</text>
</a>
</g>
</g>
<!-- Node68&#45;&gt;Node77 -->
<g id="edge65" class="edge"><title>Node68&#45;&gt;Node77</title>
<path fill="none" stroke="midnightblue" d="M380.979,-152.6C396.872,-160.525 420.226,-171.906 441,-181 445.903,-183.146 451.131,-185.325 456.264,-187.405"/>
<polygon fill="midnightblue" stroke="midnightblue" points="455.326,-190.798 465.912,-191.246 457.916,-184.295 455.326,-190.798"/>
</g>
<!-- Node69&#45;&gt;Node61 -->
<g id="edge54" class="edge"><title>Node69&#45;&gt;Node61</title>
<path fill="none" stroke="midnightblue" d="M910.74,-121.408C962.759,-117.299 1080.58,-112.595 1173,-143 1250.56,-168.517 1327.79,-229.894 1362.08,-259.491"/>
<polygon fill="midnightblue" stroke="midnightblue" points="1360.02,-262.337 1369.85,-266.29 1364.63,-257.07 1360.02,-262.337"/>
</g>
<!-- Node70&#45;&gt;Node67 -->
<g id="edge59" class="edge"><title>Node70&#45;&gt;Node67</title>
<path fill="none" stroke="midnightblue" d="M470.389,-57.621C453.63,-65.992 428.147,-78.0036 405,-86 367.237,-99.0456 322.838,-109.451 291.259,-116.052"/>
<polygon fill="midnightblue" stroke="midnightblue" points="290.162,-112.704 281.07,-118.143 291.569,-119.561 290.162,-112.704"/>
</g>
<!-- Node71 -->
<g id="node42" class="node"><title>Node71</title>
<g id="a_node42"><a xlink:href="ldo_8c.html#ab0872b1738a995ecbf1cdc8a9bc0fdf6" target="_top" xlink:title=" ">
<polygon fill="white" stroke="black" points="575,-38.5 575,-57.5 685,-57.5 685,-38.5 575,-38.5"/>
<text text-anchor="middle" x="630" y="-45.5" font-family="Helvetica,sans-Serif" font-size="10.00">luaD_rawrunprotected</text>
</a>
</g>
</g>
<!-- Node70&#45;&gt;Node71 -->
<g id="edge56" class="edge"><title>Node70&#45;&gt;Node71</title>
<path fill="none" stroke="midnightblue" d="M521.285,-48C534.049,-48 549.426,-48 564.514,-48"/>
<polygon fill="midnightblue" stroke="midnightblue" points="564.878,-51.5001 574.878,-48 564.878,-44.5001 564.878,-51.5001"/>
</g>
<!-- Node70&#45;&gt;Node72 -->
<g id="edge57" class="edge"><title>Node70&#45;&gt;Node72</title>
<path fill="none" stroke="midnightblue" d="M521.285,-56.3393C539.831,-61.4461 563.894,-68.0722 584.571,-73.7659"/>
<polygon fill="midnightblue" stroke="midnightblue" points="583.84,-77.1949 594.411,-76.4754 585.699,-70.4461 583.84,-77.1949"/>
</g>
<!-- Node43 -->
<g id="node44" class="node"><title>Node43</title>
<g id="a_node44"><a xlink:href="ldo_8c.html#a219aa86777779dccae2c1bf9008db70a" target="_top" xlink:title=" ">
<polygon fill="white" stroke="red" points="584,-0.5 584,-19.5 676,-19.5 676,-0.5 584,-0.5"/>
<text text-anchor="middle" x="630" y="-7.5" font-family="Helvetica,sans-Serif" font-size="10.00">luaD_shrinkstack</text>
</a>
</g>
</g>
<!-- Node70&#45;&gt;Node43 -->
<g id="edge58" class="edge"><title>Node70&#45;&gt;Node43</title>
<path fill="none" stroke="midnightblue" d="M521.285,-39.6607C539.831,-34.5539 563.894,-27.9278 584.571,-22.2341"/>
<polygon fill="midnightblue" stroke="midnightblue" points="585.699,-25.5539 594.411,-19.5246 583.84,-18.8051 585.699,-25.5539"/>
</g>
<!-- Node74 -->
<g id="node46" class="node"><title>Node74</title>
<g id="a_node46"><a xlink:href="lstate_8c.html#a7055cc5e36512e37c811a7d5c6fa0be6" target="_top" xlink:title=" ">
<polygon fill="white" stroke="black" points="593,-152.5 593,-171.5 667,-171.5 667,-152.5 593,-152.5"/>
<text text-anchor="middle" x="630" y="-159.5" font-family="Helvetica,sans-Serif" font-size="10.00">luaE_warning</text>
</a>
</g>
</g>
<!-- Node73&#45;&gt;Node74 -->
<g id="edge62" class="edge"><title>Node73&#45;&gt;Node74</title>
<path fill="none" stroke="midnightblue" d="M530.545,-162C546.771,-162 565.671,-162 582.549,-162"/>
<polygon fill="midnightblue" stroke="midnightblue" points="582.755,-165.5 592.755,-162 582.755,-158.5 582.755,-165.5"/>
</g>
<!-- Node75&#45;&gt;Node76 -->
<g id="edge64" class="edge"><title>Node75&#45;&gt;Node76</title>
<path fill="none" stroke="midnightblue" d="M525.823,-399.589C543.638,-404.494 565.518,-410.52 584.539,-415.757"/>
<polygon fill="midnightblue" stroke="midnightblue" points="583.618,-419.134 594.188,-418.414 585.476,-412.385 583.618,-419.134"/>
</g>
<!-- Node77&#45;&gt;Node82 -->
<g id="edge67" class="edge"><title>Node77&#45;&gt;Node82</title>
<path fill="none" stroke="midnightblue" d="M514.095,-205.626C530.924,-209.627 554.304,-214.983 575,-219 678.432,-239.076 706.234,-233.752 809,-257 914.298,-280.821 1035.77,-319.265 1096.21,-339.157"/>
<polygon fill="midnightblue" stroke="midnightblue" points="1095.48,-342.601 1106.07,-342.417 1097.68,-335.955 1095.48,-342.601"/>
</g>
<!-- Node78 -->
<g id="node49" class="node"><title>Node78</title>
<g id="a_node49"><a xlink:href="ldebug_8c.html#acf87581237e7d0072502ffc5092e8329" target="_top" xlink:title=" ">
<polygon fill="white" stroke="red" points="591.5,-190.5 591.5,-209.5 668.5,-209.5 668.5,-190.5 591.5,-190.5"/>
<text text-anchor="middle" x="630" y="-197.5" font-family="Helvetica,sans-Serif" font-size="10.00">luaG_findlocal</text>
</a>
</g>
</g>
<!-- Node77&#45;&gt;Node78 -->
<g id="edge66" class="edge"><title>Node77&#45;&gt;Node78</title>
<path fill="none" stroke="midnightblue" d="M514.098,-200C532.396,-200 558.576,-200 581.326,-200"/>
<polygon fill="midnightblue" stroke="midnightblue" points="581.497,-203.5 591.497,-200 581.497,-196.5 581.497,-203.5"/>
</g>
</g>
</svg>
