<?xml version="1.0" encoding="UTF-8" standalone="no"?>
<!DOCTYPE svg PUBLIC "-//W3C//DTD SVG 1.1//EN"
 "http://www.w3.org/Graphics/SVG/1.1/DTD/svg11.dtd">
<!-- Generated by graphviz version 2.38.0 (20140413.2041)
 -->
<!-- Title: g_write Pages: 1 -->
<svg width="1801pt" height="633pt"
 viewBox="0.00 0.00 1801.00 633.00" xmlns="http://www.w3.org/2000/svg" xmlns:xlink="http://www.w3.org/1999/xlink">
<g id="graph0" class="graph" transform="scale(1 1) rotate(0) translate(4 629)">
<title>g_write</title>
<polygon fill="white" stroke="none" points="-4,4 -4,-629 1797,-629 1797,4 -4,4"/>
<!-- Node1 -->
<g id="node1" class="node"><title>Node1</title>
<g id="a_node1"><a xlink:title=" ">
<polygon fill="#bfbfbf" stroke="black" points="0,-513.5 0,-532.5 47,-532.5 47,-513.5 0,-513.5"/>
<text text-anchor="middle" x="23.5" y="-520.5" font-family="Helvetica,sans-Serif" font-size="10.00">g_write</text>
</a>
</g>
</g>
<!-- Node2 -->
<g id="node2" class="node"><title>Node2</title>
<g id="a_node2"><a xlink:href="lapi_8c.html#afbb08ecb69421875494105d4de68e5bf" target="_top" xlink:title=" ">
<polygon fill="white" stroke="black" points="714.5,-418.5 714.5,-437.5 776.5,-437.5 776.5,-418.5 714.5,-418.5"/>
<text text-anchor="middle" x="745.5" y="-425.5" font-family="Helvetica,sans-Serif" font-size="10.00">lua_gettop</text>
</a>
</g>
</g>
<!-- Node1&#45;&gt;Node2 -->
<g id="edge1" class="edge"><title>Node1&#45;&gt;Node2</title>
<path fill="none" stroke="midnightblue" d="M47.0467,-521.282C129.867,-514.769 424.95,-489.777 665,-447 678.008,-444.682 692.07,-441.537 704.699,-438.473"/>
<polygon fill="midnightblue" stroke="midnightblue" points="705.609,-441.853 714.473,-436.05 703.924,-435.059 705.609,-441.853"/>
</g>
<!-- Node3 -->
<g id="node3" class="node"><title>Node3</title>
<g id="a_node3"><a xlink:href="lapi_8c.html#aba53e83eb1fff94b5ed96203bb52d8ae" target="_top" xlink:title=" ">
<polygon fill="white" stroke="black" points="211,-605.5 211,-624.5 282,-624.5 282,-605.5 211,-605.5"/>
<text text-anchor="middle" x="246.5" y="-612.5" font-family="Helvetica,sans-Serif" font-size="10.00">lua_isinteger</text>
</a>
</g>
</g>
<!-- Node1&#45;&gt;Node3 -->
<g id="edge2" class="edge"><title>Node1&#45;&gt;Node3</title>
<path fill="none" stroke="midnightblue" d="M30.7692,-532.604C40.2968,-546.36 59.7887,-571.398 83,-584 119.484,-603.809 166.575,-611.131 200.663,-613.753"/>
<polygon fill="midnightblue" stroke="midnightblue" points="200.589,-617.255 210.799,-614.424 201.052,-610.271 200.589,-617.255"/>
</g>
<!-- Node5 -->
<g id="node5" class="node"><title>Node5</title>
<g id="a_node5"><a xlink:href="lapi_8c.html#a652b273947f0656686f998d8e90cd3ea" target="_top" xlink:title=" ">
<polygon fill="white" stroke="black" points="451.5,-570.5 451.5,-589.5 504.5,-589.5 504.5,-570.5 451.5,-570.5"/>
<text text-anchor="middle" x="478" y="-577.5" font-family="Helvetica,sans-Serif" font-size="10.00">lua_type</text>
</a>
</g>
</g>
<!-- Node1&#45;&gt;Node5 -->
<g id="edge4" class="edge"><title>Node1&#45;&gt;Node5</title>
<path fill="none" stroke="midnightblue" d="M47.1424,-529.123C57.9341,-531.86 71.0644,-534.929 83,-537 213.959,-559.723 371.611,-572.637 441.112,-577.607"/>
<polygon fill="midnightblue" stroke="midnightblue" points="441.271,-581.127 451.492,-578.337 441.762,-574.144 441.271,-581.127"/>
</g>
<!-- Node6 -->
<g id="node6" class="node"><title>Node6</title>
<g id="a_node6"><a xlink:href="lauxlib_8c.html#a79405166c5a94624ebe0427e6b0c07e0" target="_top" xlink:title=" ">
<polygon fill="white" stroke="black" points="83,-475.5 83,-494.5 175,-494.5 175,-475.5 83,-475.5"/>
<text text-anchor="middle" x="129" y="-482.5" font-family="Helvetica,sans-Serif" font-size="10.00">luaL_checklstring</text>
</a>
</g>
</g>
<!-- Node1&#45;&gt;Node6 -->
<g id="edge6" class="edge"><title>Node1&#45;&gt;Node6</title>
<path fill="none" stroke="midnightblue" d="M47.2135,-514.661C60.4907,-509.786 77.5382,-503.527 92.5484,-498.016"/>
<polygon fill="midnightblue" stroke="midnightblue" points="93.8769,-501.257 102.058,-494.525 91.4643,-494.686 93.8769,-501.257"/>
</g>
<!-- Node486 -->
<g id="node48" class="node"><title>Node486</title>
<g id="a_node48"><a xlink:href="lauxlib_8c.html#a86309080a5d45b232bcc240b45d06942" target="_top" xlink:title=" ">
<polygon fill="white" stroke="black" points="574.5,-76.5 574.5,-95.5 650.5,-95.5 650.5,-76.5 574.5,-76.5"/>
<text text-anchor="middle" x="612.5" y="-83.5" font-family="Helvetica,sans-Serif" font-size="10.00">luaL_fileresult</text>
</a>
</g>
</g>
<!-- Node1&#45;&gt;Node486 -->
<g id="edge72" class="edge"><title>Node1&#45;&gt;Node486</title>
<path fill="none" stroke="midnightblue" d="M24.7209,-513.466C26.7449,-449.559 46.9828,-86 245.5,-86 245.5,-86 245.5,-86 358,-86 429.848,-86 513.151,-86 564.081,-86"/>
<polygon fill="midnightblue" stroke="midnightblue" points="564.132,-89.5001 574.132,-86 564.132,-82.5001 564.132,-89.5001"/>
</g>
<!-- Node4 -->
<g id="node4" class="node"><title>Node4</title>
<g id="a_node4"><a xlink:href="lapi_8c.html#a7c66797ff8396fc9258bb9fc08e959d8" target="_top" xlink:title=" ">
<polygon fill="white" stroke="black" points="712,-570.5 712,-589.5 779,-589.5 779,-570.5 712,-570.5"/>
<text text-anchor="middle" x="745.5" y="-577.5" font-family="Helvetica,sans-Serif" font-size="10.00">index2value</text>
</a>
</g>
</g>
<!-- Node3&#45;&gt;Node4 -->
<g id="edge3" class="edge"><title>Node3&#45;&gt;Node4</title>
<path fill="none" stroke="midnightblue" d="M282.258,-614.707C354.011,-613.781 523.65,-609.939 665,-594 676.956,-592.652 689.834,-590.633 701.671,-588.546"/>
<polygon fill="midnightblue" stroke="midnightblue" points="702.544,-591.944 711.755,-586.709 701.29,-585.058 702.544,-591.944"/>
</g>
<!-- Node5&#45;&gt;Node4 -->
<g id="edge5" class="edge"><title>Node5&#45;&gt;Node4</title>
<path fill="none" stroke="midnightblue" d="M504.941,-580C550.664,-580 646.013,-580 701.642,-580"/>
<polygon fill="midnightblue" stroke="midnightblue" points="701.879,-583.5 711.879,-580 701.879,-576.5 701.879,-583.5"/>
</g>
<!-- Node7 -->
<g id="node7" class="node"><title>Node7</title>
<g id="a_node7"><a xlink:href="lapi_8c.html#a3fc7dbcac3f2610f3d687ec15343bd3f" target="_top" xlink:title=" ">
<polygon fill="white" stroke="black" points="578,-532.5 578,-551.5 647,-551.5 647,-532.5 578,-532.5"/>
<text text-anchor="middle" x="612.5" y="-539.5" font-family="Helvetica,sans-Serif" font-size="10.00">lua_tolstring</text>
</a>
</g>
</g>
<!-- Node6&#45;&gt;Node7 -->
<g id="edge7" class="edge"><title>Node6&#45;&gt;Node7</title>
<path fill="none" stroke="midnightblue" d="M175.298,-490.362C267.72,-501.303 476.955,-526.073 567.914,-536.84"/>
<polygon fill="midnightblue" stroke="midnightblue" points="567.548,-540.321 577.89,-538.021 568.371,-533.37 567.548,-540.321"/>
</g>
<!-- Node451 -->
<g id="node28" class="node"><title>Node451</title>
<g id="a_node28"><a xlink:href="lauxlib_8c.html#ab8e946260debec8d4bbc714b76a1613b" target="_top" xlink:title=" ">
<polygon fill="white" stroke="black" points="219,-361.5 219,-380.5 274,-380.5 274,-361.5 219,-361.5"/>
<text text-anchor="middle" x="246.5" y="-368.5" font-family="Helvetica,sans-Serif" font-size="10.00">tag_error</text>
</a>
</g>
</g>
<!-- Node6&#45;&gt;Node451 -->
<g id="edge38" class="edge"><title>Node6&#45;&gt;Node451</title>
<path fill="none" stroke="midnightblue" d="M139.847,-475.28C159.538,-455.846 203.972,-411.989 228.478,-387.801"/>
<polygon fill="midnightblue" stroke="midnightblue" points="231.019,-390.211 235.677,-380.695 226.102,-385.229 231.019,-390.211"/>
</g>
<!-- Node7&#45;&gt;Node4 -->
<g id="edge8" class="edge"><title>Node7&#45;&gt;Node4</title>
<path fill="none" stroke="midnightblue" d="M646.557,-551.589C663.44,-556.487 684.172,-562.5 702.207,-567.732"/>
<polygon fill="midnightblue" stroke="midnightblue" points="701.328,-571.121 711.908,-570.546 703.279,-564.398 701.328,-571.121"/>
</g>
<!-- Node8 -->
<g id="node8" class="node"><title>Node8</title>
<g id="a_node8"><a xlink:href="lobject_8c.html#a53824ade5220a50d44148175f7787199" target="_top" xlink:title=" ">
<polygon fill="white" stroke="black" points="830,-418.5 830,-437.5 904,-437.5 904,-418.5 830,-418.5"/>
<text text-anchor="middle" x="867" y="-425.5" font-family="Helvetica,sans-Serif" font-size="10.00">luaO_tostring</text>
</a>
</g>
</g>
<!-- Node7&#45;&gt;Node8 -->
<g id="edge9" class="edge"><title>Node7&#45;&gt;Node8</title>
<path fill="none" stroke="midnightblue" d="M647.092,-533.06C683.414,-522.746 742.486,-504.072 790,-480 810.267,-469.732 831.453,-454.84 846.292,-443.622"/>
<polygon fill="midnightblue" stroke="midnightblue" points="848.45,-446.377 854.24,-437.504 844.181,-440.83 848.45,-446.377"/>
</g>
<!-- Node9 -->
<g id="node9" class="node"><title>Node9</title>
<g id="a_node9"><a xlink:href="lstring_8c.html#ab41fb084ce3ea5e2779f6659ccc2484d" target="_top" xlink:title=" ">
<polygon fill="white" stroke="black" points="950,-228.5 950,-247.5 1022,-247.5 1022,-228.5 950,-228.5"/>
<text text-anchor="middle" x="986" y="-235.5" font-family="Helvetica,sans-Serif" font-size="10.00">luaS_newlstr</text>
</a>
</g>
</g>
<!-- Node8&#45;&gt;Node9 -->
<g id="edge10" class="edge"><title>Node8&#45;&gt;Node9</title>
<path fill="none" stroke="midnightblue" d="M896.427,-418.341C900.769,-415.852 904.846,-412.776 908,-409 947.256,-361.999 912.313,-328.403 944,-276 948.909,-267.882 956.047,-260.423 962.996,-254.304"/>
<polygon fill="midnightblue" stroke="midnightblue" points="965.427,-256.835 970.921,-247.776 960.977,-251.432 965.427,-256.835"/>
</g>
<!-- Node111 -->
<g id="node24" class="node"><title>Node111</title>
<g id="a_node24"><a xlink:href="lobject_8c.html#a8a7886b6335aca97db23dfe3e220c728" target="_top" xlink:title=" ">
<polygon fill="white" stroke="black" points="1555,-285.5 1555,-304.5 1619,-304.5 1619,-285.5 1555,-285.5"/>
<text text-anchor="middle" x="1587" y="-292.5" font-family="Helvetica,sans-Serif" font-size="10.00">tostringbuff</text>
</a>
</g>
</g>
<!-- Node8&#45;&gt;Node111 -->
<g id="edge37" class="edge"><title>Node8&#45;&gt;Node111</title>
<path fill="none" stroke="midnightblue" d="M904.07,-428C952.259,-428 1040.3,-428 1115.5,-428 1115.5,-428 1115.5,-428 1243.5,-428 1317.54,-428 1339.28,-433.918 1409,-409 1472.55,-386.287 1536.51,-337.034 1567.22,-311.341"/>
<polygon fill="midnightblue" stroke="midnightblue" points="1569.62,-313.899 1574.98,-304.76 1565.09,-308.562 1569.62,-313.899"/>
</g>
<!-- Node10 -->
<g id="node10" class="node"><title>Node10</title>
<g id="a_node10"><a xlink:href="lstring_8c.html#a9b2c32c59a280de24f20df1c7f0433a1" target="_top" xlink:title=" ">
<polygon fill="white" stroke="black" points="1084,-190.5 1084,-209.5 1149,-209.5 1149,-190.5 1084,-190.5"/>
<text text-anchor="middle" x="1116.5" y="-197.5" font-family="Helvetica,sans-Serif" font-size="10.00">internshrstr</text>
</a>
</g>
</g>
<!-- Node9&#45;&gt;Node10 -->
<g id="edge11" class="edge"><title>Node9&#45;&gt;Node10</title>
<path fill="none" stroke="midnightblue" d="M1019.43,-228.411C1035.96,-223.522 1056.25,-217.521 1073.92,-212.296"/>
<polygon fill="midnightblue" stroke="midnightblue" points="1075.38,-215.515 1083.97,-209.323 1073.39,-208.803 1075.38,-215.515"/>
</g>
<!-- Node450 -->
<g id="node14" class="node"><title>Node450</title>
<g id="a_node14"><a xlink:href="lmem_8c.html#a8fc7df43dd830ccbe7581fd53f65bdbe" target="_top" xlink:title=" ">
<polygon fill="white" stroke="black" points="1082,-266.5 1082,-285.5 1151,-285.5 1151,-266.5 1082,-266.5"/>
<text text-anchor="middle" x="1116.5" y="-273.5" font-family="Helvetica,sans-Serif" font-size="10.00">luaM_toobig</text>
</a>
</g>
</g>
<!-- Node9&#45;&gt;Node450 -->
<g id="edge15" class="edge"><title>Node9&#45;&gt;Node450</title>
<path fill="none" stroke="midnightblue" d="M1019.43,-247.589C1035.71,-252.404 1055.64,-258.299 1073.12,-263.468"/>
<polygon fill="midnightblue" stroke="midnightblue" points="1072.5,-266.935 1083.08,-266.414 1074.49,-260.222 1072.5,-266.935"/>
</g>
<!-- Node91 -->
<g id="node27" class="node"><title>Node91</title>
<g id="a_node27"><a xlink:href="lstring_8c.html#a8790c7d6e706f935dd6e9eefd068921c" target="_top" xlink:title=" ">
<polygon fill="white" stroke="black" points="1064,-228.5 1064,-247.5 1169,-247.5 1169,-228.5 1064,-228.5"/>
<text text-anchor="middle" x="1116.5" y="-235.5" font-family="Helvetica,sans-Serif" font-size="10.00">luaS_createlngstrobj</text>
</a>
</g>
</g>
<!-- Node9&#45;&gt;Node91 -->
<g id="edge35" class="edge"><title>Node9&#45;&gt;Node91</title>
<path fill="none" stroke="midnightblue" d="M1022.11,-238C1031.8,-238 1042.61,-238 1053.33,-238"/>
<polygon fill="midnightblue" stroke="midnightblue" points="1053.56,-241.5 1063.56,-238 1053.56,-234.5 1053.56,-241.5"/>
</g>
<!-- Node11 -->
<g id="node11" class="node"><title>Node11</title>
<g id="a_node11"><a xlink:href="lstring_8c.html#a85a1a917ef263701e47c36e68011d917" target="_top" xlink:title=" ">
<polygon fill="white" stroke="red" points="1208.5,-228.5 1208.5,-247.5 1276.5,-247.5 1276.5,-228.5 1208.5,-228.5"/>
<text text-anchor="middle" x="1242.5" y="-235.5" font-family="Helvetica,sans-Serif" font-size="10.00">createstrobj</text>
</a>
</g>
</g>
<!-- Node10&#45;&gt;Node11 -->
<g id="edge12" class="edge"><title>Node10&#45;&gt;Node11</title>
<path fill="none" stroke="midnightblue" d="M1148.79,-209.589C1164.5,-214.404 1183.74,-220.299 1200.61,-225.468"/>
<polygon fill="midnightblue" stroke="midnightblue" points="1199.63,-228.83 1210.22,-228.414 1201.68,-222.138 1199.63,-228.83"/>
</g>
<!-- Node13 -->
<g id="node12" class="node"><title>Node13</title>
<g id="a_node12"><a xlink:href="lstring_8c.html#af8b89b01dc2db9f0d3024067ffdb931a" target="_top" xlink:title=" ">
<polygon fill="white" stroke="red" points="1211.5,-152.5 1211.5,-171.5 1273.5,-171.5 1273.5,-152.5 1211.5,-152.5"/>
<text text-anchor="middle" x="1242.5" y="-159.5" font-family="Helvetica,sans-Serif" font-size="10.00">growstrtab</text>
</a>
</g>
</g>
<!-- Node10&#45;&gt;Node13 -->
<g id="edge13" class="edge"><title>Node10&#45;&gt;Node13</title>
<path fill="none" stroke="midnightblue" d="M1148.79,-190.411C1164.74,-185.522 1184.33,-179.521 1201.38,-174.296"/>
<polygon fill="midnightblue" stroke="midnightblue" points="1202.54,-177.6 1211.08,-171.323 1200.49,-170.907 1202.54,-177.6"/>
</g>
<!-- Node166 -->
<g id="node13" class="node"><title>Node166</title>
<g id="a_node13"><a xlink:href="lstring_8c.html#ac453c0e85b7bb4e9b146fc140b1b7c9e" target="_top" xlink:title=" ">
<polygon fill="white" stroke="black" points="1211.5,-190.5 1211.5,-209.5 1273.5,-209.5 1273.5,-190.5 1211.5,-190.5"/>
<text text-anchor="middle" x="1242.5" y="-197.5" font-family="Helvetica,sans-Serif" font-size="10.00">luaS_hash</text>
</a>
</g>
</g>
<!-- Node10&#45;&gt;Node166 -->
<g id="edge14" class="edge"><title>Node10&#45;&gt;Node166</title>
<path fill="none" stroke="midnightblue" d="M1149.11,-200C1164.92,-200 1184.22,-200 1201.09,-200"/>
<polygon fill="midnightblue" stroke="midnightblue" points="1201.23,-203.5 1211.23,-200 1201.23,-196.5 1201.23,-203.5"/>
</g>
<!-- Node77 -->
<g id="node15" class="node"><title>Node77</title>
<g id="a_node15"><a xlink:href="ldebug_8c.html#a88d38ca5da2e7a1492fc9d5ad70c32c5" target="_top" xlink:title=" ">
<polygon fill="white" stroke="black" points="1205,-266.5 1205,-285.5 1280,-285.5 1280,-266.5 1205,-266.5"/>
<text text-anchor="middle" x="1242.5" y="-273.5" font-family="Helvetica,sans-Serif" font-size="10.00">luaG_runerror</text>
</a>
</g>
</g>
<!-- Node450&#45;&gt;Node77 -->
<g id="edge16" class="edge"><title>Node450&#45;&gt;Node77</title>
<path fill="none" stroke="midnightblue" d="M1151.06,-276C1164.45,-276 1180.1,-276 1194.58,-276"/>
<polygon fill="midnightblue" stroke="midnightblue" points="1194.87,-279.5 1204.87,-276 1194.87,-272.5 1194.87,-279.5"/>
</g>
<!-- Node78 -->
<g id="node16" class="node"><title>Node78</title>
<g id="a_node16"><a xlink:href="ldebug_8c.html#ad6bc24d619df8e849e2ae8b00455d86f" target="_top" xlink:title=" ">
<polygon fill="white" stroke="red" points="1325,-380.5 1325,-399.5 1400,-399.5 1400,-380.5 1325,-380.5"/>
<text text-anchor="middle" x="1362.5" y="-387.5" font-family="Helvetica,sans-Serif" font-size="10.00">getcurrentline</text>
</a>
</g>
</g>
<!-- Node77&#45;&gt;Node78 -->
<g id="edge17" class="edge"><title>Node77&#45;&gt;Node78</title>
<path fill="none" stroke="midnightblue" d="M1248.59,-285.691C1258.93,-304.533 1284.14,-346.41 1316,-371 1318.29,-372.765 1320.76,-374.395 1323.34,-375.895"/>
<polygon fill="midnightblue" stroke="midnightblue" points="1321.84,-379.06 1332.34,-380.499 1325.03,-372.828 1321.84,-379.06"/>
</g>
<!-- Node81 -->
<g id="node17" class="node"><title>Node81</title>
<g id="a_node17"><a xlink:href="ldebug_8c.html#a7e1dc7518150bf19bd9aa5dda166a2eb" target="_top" xlink:title=" ">
<polygon fill="white" stroke="red" points="1326,-266.5 1326,-285.5 1399,-285.5 1399,-266.5 1326,-266.5"/>
<text text-anchor="middle" x="1362.5" y="-273.5" font-family="Helvetica,sans-Serif" font-size="10.00">luaG_addinfo</text>
</a>
</g>
</g>
<!-- Node77&#45;&gt;Node81 -->
<g id="edge18" class="edge"><title>Node77&#45;&gt;Node81</title>
<path fill="none" stroke="midnightblue" d="M1280.19,-276C1291.39,-276 1303.84,-276 1315.57,-276"/>
<polygon fill="midnightblue" stroke="midnightblue" points="1315.64,-279.5 1325.64,-276 1315.64,-272.5 1315.64,-279.5"/>
</g>
<!-- Node114 -->
<g id="node18" class="node"><title>Node114</title>
<g id="a_node18"><a xlink:href="ldebug_8c.html#af7366920f8408bb33ed01b1d6c0e1238" target="_top" xlink:title=" ">
<polygon fill="white" stroke="red" points="1322.5,-342.5 1322.5,-361.5 1402.5,-361.5 1402.5,-342.5 1322.5,-342.5"/>
<text text-anchor="middle" x="1362.5" y="-349.5" font-family="Helvetica,sans-Serif" font-size="10.00">luaG_errormsg</text>
</a>
</g>
</g>
<!-- Node77&#45;&gt;Node114 -->
<g id="edge19" class="edge"><title>Node77&#45;&gt;Node114</title>
<path fill="none" stroke="midnightblue" d="M1258.44,-285.625C1278.57,-298.588 1314.59,-321.786 1338.27,-337.035"/>
<polygon fill="midnightblue" stroke="midnightblue" points="1336.37,-339.98 1346.68,-342.453 1340.16,-334.095 1336.37,-339.98"/>
</g>
<!-- Node84 -->
<g id="node19" class="node"><title>Node84</title>
<g id="a_node19"><a xlink:href="lobject_8c.html#aa83fa444a36d79521e846a766fa083d5" target="_top" xlink:title=" ">
<polygon fill="white" stroke="black" points="1316,-190.5 1316,-209.5 1409,-209.5 1409,-190.5 1316,-190.5"/>
<text text-anchor="middle" x="1362.5" y="-197.5" font-family="Helvetica,sans-Serif" font-size="10.00">luaO_pushvfstring</text>
</a>
</g>
</g>
<!-- Node77&#45;&gt;Node84 -->
<g id="edge20" class="edge"><title>Node77&#45;&gt;Node84</title>
<path fill="none" stroke="midnightblue" d="M1250.1,-266.34C1257.52,-260.313 1269.86,-254.149 1280,-248 1296.87,-237.768 1314.92,-225.312 1329.74,-215.458"/>
<polygon fill="midnightblue" stroke="midnightblue" points="1332.06,-218.116 1338.5,-209.702 1328.22,-212.265 1332.06,-218.116"/>
</g>
<!-- Node84&#45;&gt;Node77 -->
<g id="edge33" class="edge"><title>Node84&#45;&gt;Node77</title>
<path fill="none" stroke="midnightblue" d="M1355.35,-209.558C1343.3,-222.472 1315.45,-243.603 1288.1,-260.958"/>
<polygon fill="midnightblue" stroke="midnightblue" points="1285.91,-258.197 1279.26,-266.444 1289.61,-264.144 1285.91,-258.197"/>
</g>
<!-- Node85 -->
<g id="node20" class="node"><title>Node85</title>
<g id="a_node20"><a xlink:href="lobject_8c.html#a1d02fb9304e4700ce1fd20e34ae68784" target="_top" xlink:title=" ">
<polygon fill="white" stroke="black" points="1446.5,-266.5 1446.5,-285.5 1517.5,-285.5 1517.5,-266.5 1446.5,-266.5"/>
<text text-anchor="middle" x="1482" y="-273.5" font-family="Helvetica,sans-Serif" font-size="10.00">addnum2buff</text>
</a>
</g>
</g>
<!-- Node84&#45;&gt;Node85 -->
<g id="edge21" class="edge"><title>Node84&#45;&gt;Node85</title>
<path fill="none" stroke="midnightblue" d="M1378.38,-209.625C1398.33,-222.531 1433.97,-245.582 1457.55,-260.833"/>
<polygon fill="midnightblue" stroke="midnightblue" points="1455.94,-263.96 1466.24,-266.453 1459.74,-258.083 1455.94,-263.96"/>
</g>
<!-- Node86 -->
<g id="node21" class="node"><title>Node86</title>
<g id="a_node21"><a xlink:href="lobject_8c.html#ac4ab924f2ea45ef73319f1159033eab1" target="_top" xlink:title=" ">
<polygon fill="white" stroke="black" points="1564.5,-228.5 1564.5,-247.5 1609.5,-247.5 1609.5,-228.5 1564.5,-228.5"/>
<text text-anchor="middle" x="1587" y="-235.5" font-family="Helvetica,sans-Serif" font-size="10.00">getbuff</text>
</a>
</g>
</g>
<!-- Node84&#45;&gt;Node86 -->
<g id="edge32" class="edge"><title>Node84&#45;&gt;Node86</title>
<path fill="none" stroke="midnightblue" d="M1409.19,-207.861C1420.86,-209.866 1433.4,-212.016 1445,-214 1482.55,-220.42 1525.72,-227.764 1554.3,-232.619"/>
<polygon fill="midnightblue" stroke="midnightblue" points="1554.05,-236.127 1564.5,-234.351 1555.23,-229.226 1554.05,-236.127"/>
</g>
<!-- Node87 -->
<g id="node22" class="node"><title>Node87</title>
<g id="a_node22"><a xlink:href="lobject_8c.html#a6ec2716e64cd75e3e6614a87ee92e4d2" target="_top" xlink:title=" ">
<polygon fill="white" stroke="black" points="1655,-190.5 1655,-209.5 1708,-209.5 1708,-190.5 1655,-190.5"/>
<text text-anchor="middle" x="1681.5" y="-197.5" font-family="Helvetica,sans-Serif" font-size="10.00">clearbuff</text>
</a>
</g>
</g>
<!-- Node84&#45;&gt;Node87 -->
<g id="edge31" class="edge"><title>Node84&#45;&gt;Node87</title>
<path fill="none" stroke="midnightblue" d="M1409.26,-200C1472.85,-200 1586.66,-200 1644.55,-200"/>
<polygon fill="midnightblue" stroke="midnightblue" points="1644.68,-203.5 1654.68,-200 1644.68,-196.5 1644.68,-203.5"/>
</g>
<!-- Node112 -->
<g id="node25" class="node"><title>Node112</title>
<g id="a_node25"><a xlink:href="lobject_8c.html#a874ab64f433ee35f2197a81e10452cb1" target="_top" xlink:title=" ">
<polygon fill="white" stroke="black" points="1450,-152.5 1450,-171.5 1514,-171.5 1514,-152.5 1450,-152.5"/>
<text text-anchor="middle" x="1482" y="-159.5" font-family="Helvetica,sans-Serif" font-size="10.00">addstr2buff</text>
</a>
</g>
</g>
<!-- Node84&#45;&gt;Node112 -->
<g id="edge27" class="edge"><title>Node84&#45;&gt;Node112</title>
<path fill="none" stroke="midnightblue" d="M1393.15,-190.411C1407.9,-185.641 1425.93,-179.811 1441.8,-174.677"/>
<polygon fill="midnightblue" stroke="midnightblue" points="1442.92,-177.993 1451.36,-171.586 1440.77,-171.333 1442.92,-177.993"/>
</g>
<!-- Node113 -->
<g id="node26" class="node"><title>Node113</title>
<g id="a_node26"><a xlink:href="lobject_8c.html#af3136de4693789b08f78aafda9604676" target="_top" xlink:title=" ">
<polygon fill="white" stroke="black" points="1445,-114.5 1445,-133.5 1519,-133.5 1519,-114.5 1445,-114.5"/>
<text text-anchor="middle" x="1482" y="-121.5" font-family="Helvetica,sans-Serif" font-size="10.00">luaO_utf8esc</text>
</a>
</g>
</g>
<!-- Node84&#45;&gt;Node113 -->
<g id="edge34" class="edge"><title>Node84&#45;&gt;Node113</title>
<path fill="none" stroke="midnightblue" d="M1376.15,-190.408C1391.9,-178.647 1419.8,-158.381 1445,-143 1447.49,-141.481 1450.11,-139.959 1452.76,-138.473"/>
<polygon fill="midnightblue" stroke="midnightblue" points="1454.58,-141.468 1461.7,-133.622 1451.24,-135.315 1454.58,-141.468"/>
</g>
<!-- Node85&#45;&gt;Node86 -->
<g id="edge22" class="edge"><title>Node85&#45;&gt;Node86</title>
<path fill="none" stroke="midnightblue" d="M1508.99,-266.411C1522.84,-261.302 1539.98,-254.978 1554.57,-249.595"/>
<polygon fill="midnightblue" stroke="midnightblue" points="1556.03,-252.789 1564.2,-246.044 1553.6,-246.222 1556.03,-252.789"/>
</g>
<!-- Node85&#45;&gt;Node111 -->
<g id="edge26" class="edge"><title>Node85&#45;&gt;Node111</title>
<path fill="none" stroke="midnightblue" d="M1517.58,-282.38C1526.33,-283.993 1535.81,-285.742 1544.85,-287.409"/>
<polygon fill="midnightblue" stroke="midnightblue" points="1544.33,-290.872 1554.8,-289.244 1545.6,-283.988 1544.33,-290.872"/>
</g>
<!-- Node86&#45;&gt;Node87 -->
<g id="edge23" class="edge"><title>Node86&#45;&gt;Node87</title>
<path fill="none" stroke="midnightblue" d="M1609.92,-228.995C1621.25,-224.342 1635.29,-218.573 1647.86,-213.408"/>
<polygon fill="midnightblue" stroke="midnightblue" points="1649.2,-216.643 1657.12,-209.605 1646.54,-210.168 1649.2,-216.643"/>
</g>
<!-- Node88 -->
<g id="node23" class="node"><title>Node88</title>
<g id="a_node23"><a xlink:href="lobject_8c.html#a90720e7e38c0e352e9b97d3f8def9e1a" target="_top" xlink:title=" ">
<polygon fill="white" stroke="red" points="1744,-190.5 1744,-209.5 1793,-209.5 1793,-190.5 1744,-190.5"/>
<text text-anchor="middle" x="1768.5" y="-197.5" font-family="Helvetica,sans-Serif" font-size="10.00">pushstr</text>
</a>
</g>
</g>
<!-- Node87&#45;&gt;Node88 -->
<g id="edge24" class="edge"><title>Node87&#45;&gt;Node88</title>
<path fill="none" stroke="midnightblue" d="M1708,-200C1716.07,-200 1725.11,-200 1733.67,-200"/>
<polygon fill="midnightblue" stroke="midnightblue" points="1733.76,-203.5 1743.76,-200 1733.76,-196.5 1733.76,-203.5"/>
</g>
<!-- Node88&#45;&gt;Node9 -->
<g id="edge25" class="edge"><title>Node88&#45;&gt;Node9</title>
<path fill="none" stroke="midnightblue" d="M1759.38,-209.561C1738.8,-232.948 1681.78,-292.68 1619,-314 1560.57,-333.84 1122.21,-315.458 1064,-295 1040.43,-286.718 1018.02,-268.535 1003.51,-254.919"/>
<polygon fill="midnightblue" stroke="midnightblue" points="1005.92,-252.379 996.31,-247.916 1001.04,-257.397 1005.92,-252.379"/>
</g>
<!-- Node112&#45;&gt;Node86 -->
<g id="edge29" class="edge"><title>Node112&#45;&gt;Node86</title>
<path fill="none" stroke="midnightblue" d="M1496.05,-171.625C1513.38,-184.417 1544.22,-207.175 1564.89,-222.427"/>
<polygon fill="midnightblue" stroke="midnightblue" points="1562.94,-225.332 1573.06,-228.453 1567.09,-219.699 1562.94,-225.332"/>
</g>
<!-- Node112&#45;&gt;Node87 -->
<g id="edge28" class="edge"><title>Node112&#45;&gt;Node87</title>
<path fill="none" stroke="midnightblue" d="M1514.14,-167.048C1541.76,-171.631 1583.16,-178.763 1619,-186 1627.39,-187.695 1636.4,-189.661 1644.86,-191.574"/>
<polygon fill="midnightblue" stroke="midnightblue" points="1644.3,-195.036 1654.83,-193.86 1645.86,-188.213 1644.3,-195.036"/>
</g>
<!-- Node112&#45;&gt;Node88 -->
<g id="edge30" class="edge"><title>Node112&#45;&gt;Node88</title>
<path fill="none" stroke="midnightblue" d="M1514.32,-162.057C1558.15,-162.718 1640.03,-166.085 1708,-181 1716.6,-182.888 1725.74,-185.49 1734.2,-188.164"/>
<polygon fill="midnightblue" stroke="midnightblue" points="1733.16,-191.506 1743.75,-191.296 1735.34,-184.854 1733.16,-191.506"/>
</g>
<!-- Node91&#45;&gt;Node11 -->
<g id="edge36" class="edge"><title>Node91&#45;&gt;Node11</title>
<path fill="none" stroke="midnightblue" d="M1169.01,-238C1178.68,-238 1188.7,-238 1198.09,-238"/>
<polygon fill="midnightblue" stroke="midnightblue" points="1198.38,-241.5 1208.38,-238 1198.38,-234.5 1198.38,-241.5"/>
</g>
<!-- Node452 -->
<g id="node29" class="node"><title>Node452</title>
<g id="a_node29"><a xlink:href="lapi_8c.html#a7d64f87addab440bbda96bb088816e17" target="_top" xlink:title=" ">
<polygon fill="white" stroke="black" points="318.5,-323.5 318.5,-342.5 395.5,-342.5 395.5,-323.5 318.5,-323.5"/>
<text text-anchor="middle" x="357" y="-330.5" font-family="Helvetica,sans-Serif" font-size="10.00">lua_typename</text>
</a>
</g>
</g>
<!-- Node451&#45;&gt;Node452 -->
<g id="edge39" class="edge"><title>Node451&#45;&gt;Node452</title>
<path fill="none" stroke="midnightblue" d="M274.042,-361.704C287.499,-356.991 304.066,-351.189 318.774,-346.038"/>
<polygon fill="midnightblue" stroke="midnightblue" points="320.318,-349.205 328.599,-342.597 318.004,-342.599 320.318,-349.205"/>
</g>
<!-- Node453 -->
<g id="node30" class="node"><title>Node453</title>
<g id="a_node30"><a xlink:href="lauxlib_8c.html#ab8ddc4ac13516f3548a6c102dd6fa114" target="_top" xlink:title=" ">
<polygon fill="white" stroke="black" points="318,-361.5 318,-380.5 396,-380.5 396,-361.5 318,-361.5"/>
<text text-anchor="middle" x="357" y="-368.5" font-family="Helvetica,sans-Serif" font-size="10.00">luaL_typeerror</text>
</a>
</g>
</g>
<!-- Node451&#45;&gt;Node453 -->
<g id="edge40" class="edge"><title>Node451&#45;&gt;Node453</title>
<path fill="none" stroke="midnightblue" d="M274.042,-371C284.232,-371 296.205,-371 307.803,-371"/>
<polygon fill="midnightblue" stroke="midnightblue" points="307.846,-374.5 317.846,-371 307.846,-367.5 307.846,-374.5"/>
</g>
<!-- Node453&#45;&gt;Node5 -->
<g id="edge43" class="edge"><title>Node453&#45;&gt;Node5</title>
<path fill="none" stroke="midnightblue" d="M363.422,-380.523C381.814,-412.825 442.034,-518.589 466.513,-561.581"/>
<polygon fill="midnightblue" stroke="midnightblue" points="463.556,-563.462 471.546,-570.421 469.639,-559.999 463.556,-563.462"/>
</g>
<!-- Node454 -->
<g id="node31" class="node"><title>Node454</title>
<g id="a_node31"><a xlink:href="lapi_8c.html#ab190c226d38b289e6ca57683a9d4e0f0" target="_top" xlink:title=" ">
<polygon fill="white" stroke="black" points="826,-76.5 826,-95.5 908,-95.5 908,-76.5 826,-76.5"/>
<text text-anchor="middle" x="867" y="-83.5" font-family="Helvetica,sans-Serif" font-size="10.00">lua_pushfstring</text>
</a>
</g>
</g>
<!-- Node453&#45;&gt;Node454 -->
<g id="edge41" class="edge"><title>Node453&#45;&gt;Node454</title>
<path fill="none" stroke="midnightblue" d="M383.31,-361.328C387.91,-358.782 392.388,-355.69 396,-352 422.146,-325.292 406.431,-303.261 432,-276 539.006,-161.91 726.528,-112.476 815.893,-94.5971"/>
<polygon fill="midnightblue" stroke="midnightblue" points="816.633,-98.0188 825.777,-92.6686 815.292,-91.1483 816.633,-98.0188"/>
</g>
<!-- Node455 -->
<g id="node32" class="node"><title>Node455</title>
<g id="a_node32"><a xlink:href="lauxlib_8c.html#ac607576dd107a3120cd51948989f1ed2" target="_top" xlink:title=" ">
<polygon fill="white" stroke="black" points="441.5,-361.5 441.5,-380.5 514.5,-380.5 514.5,-361.5 441.5,-361.5"/>
<text text-anchor="middle" x="478" y="-368.5" font-family="Helvetica,sans-Serif" font-size="10.00">luaL_argerror</text>
</a>
</g>
</g>
<!-- Node453&#45;&gt;Node455 -->
<g id="edge44" class="edge"><title>Node453&#45;&gt;Node455</title>
<path fill="none" stroke="midnightblue" d="M396.307,-371C407.336,-371 419.481,-371 430.927,-371"/>
<polygon fill="midnightblue" stroke="midnightblue" points="431.19,-374.5 441.19,-371 431.19,-367.5 431.19,-374.5"/>
</g>
<!-- Node482 -->
<g id="node45" class="node"><title>Node482</title>
<g id="a_node45"><a xlink:href="lauxlib_8c.html#add7cea31816ff3f61014031248e0daa6" target="_top" xlink:title=" ">
<polygon fill="white" stroke="black" points="432,-285.5 432,-304.5 524,-304.5 524,-285.5 432,-285.5"/>
<text text-anchor="middle" x="478" y="-292.5" font-family="Helvetica,sans-Serif" font-size="10.00">luaL_getmetafield</text>
</a>
</g>
</g>
<!-- Node453&#45;&gt;Node482 -->
<g id="edge67" class="edge"><title>Node453&#45;&gt;Node482</title>
<path fill="none" stroke="midnightblue" d="M378.417,-361.492C384.196,-358.614 390.428,-355.328 396,-352 417.3,-339.278 440.319,-322.79 456.355,-310.823"/>
<polygon fill="midnightblue" stroke="midnightblue" points="458.61,-313.506 464.49,-304.692 454.397,-307.916 458.61,-313.506"/>
</g>
<!-- Node454&#45;&gt;Node84 -->
<g id="edge42" class="edge"><title>Node454&#45;&gt;Node84</title>
<path fill="none" stroke="midnightblue" d="M908.04,-82.4312C984.064,-77.29 1153.05,-73.7759 1280,-129 1307.4,-140.92 1332.25,-165.483 1347.12,-182.348"/>
<polygon fill="midnightblue" stroke="midnightblue" points="1344.79,-185.016 1353.94,-190.357 1350.12,-180.476 1344.79,-185.016"/>
</g>
<!-- Node456 -->
<g id="node33" class="node"><title>Node456</title>
<g id="a_node33"><a xlink:href="ldebug_8c.html#acaafc35d8e385c4d167229486165df6d" target="_top" xlink:title=" ">
<polygon fill="white" stroke="black" points="835.5,-380.5 835.5,-399.5 898.5,-399.5 898.5,-380.5 835.5,-380.5"/>
<text text-anchor="middle" x="867" y="-387.5" font-family="Helvetica,sans-Serif" font-size="10.00">lua_getinfo</text>
</a>
</g>
</g>
<!-- Node455&#45;&gt;Node456 -->
<g id="edge45" class="edge"><title>Node455&#45;&gt;Node456</title>
<path fill="none" stroke="midnightblue" d="M485.39,-380.59C497.52,-397.813 525.752,-433.449 560,-447 655.052,-484.611 696.096,-487.391 790,-447 811.371,-437.808 807.173,-422.667 826,-409 828.199,-407.404 830.553,-405.886 832.978,-404.456"/>
<polygon fill="midnightblue" stroke="midnightblue" points="834.749,-407.477 841.916,-399.674 831.447,-401.305 834.749,-407.477"/>
</g>
<!-- Node463 -->
<g id="node36" class="node"><title>Node463</title>
<g id="a_node36"><a xlink:href="ldebug_8c.html#ac1fc03c27ee46caa4037df2d70f22110" target="_top" xlink:title=" ">
<polygon fill="white" stroke="black" points="831,-323.5 831,-342.5 903,-342.5 903,-323.5 831,-323.5"/>
<text text-anchor="middle" x="867" y="-330.5" font-family="Helvetica,sans-Serif" font-size="10.00">lua_getstack</text>
</a>
</g>
</g>
<!-- Node455&#45;&gt;Node463 -->
<g id="edge49" class="edge"><title>Node455&#45;&gt;Node463</title>
<path fill="none" stroke="midnightblue" d="M514.714,-367.493C585.451,-360.547 743.232,-345.055 820.961,-337.422"/>
<polygon fill="midnightblue" stroke="midnightblue" points="821.321,-340.904 830.931,-336.443 820.637,-333.938 821.321,-340.904"/>
</g>
<!-- Node464 -->
<g id="node37" class="node"><title>Node464</title>
<g id="a_node37"><a xlink:href="lauxlib_8c.html#a6c51d83d29244779392551388913e08a" target="_top" xlink:title=" ">
<polygon fill="white" stroke="black" points="583,-285.5 583,-304.5 642,-304.5 642,-285.5 583,-285.5"/>
<text text-anchor="middle" x="612.5" y="-292.5" font-family="Helvetica,sans-Serif" font-size="10.00">luaL_error</text>
</a>
</g>
</g>
<!-- Node455&#45;&gt;Node464 -->
<g id="edge50" class="edge"><title>Node455&#45;&gt;Node464</title>
<path fill="none" stroke="midnightblue" d="M495.781,-361.375C518.58,-348.297 559.538,-324.804 586.11,-309.563"/>
<polygon fill="midnightblue" stroke="midnightblue" points="587.922,-312.559 594.855,-304.547 584.439,-306.487 587.922,-312.559"/>
</g>
<!-- Node469 -->
<g id="node42" class="node"><title>Node469</title>
<g id="a_node42"><a xlink:href="lauxlib_8c.html#a4f35430f7ecfcbd5f507e550937046b4" target="_top" xlink:title=" ">
<polygon fill="white" stroke="red" points="560,-380.5 560,-399.5 665,-399.5 665,-380.5 560,-380.5"/>
<text text-anchor="middle" x="612.5" y="-387.5" font-family="Helvetica,sans-Serif" font-size="10.00">pushglobalfuncname</text>
</a>
</g>
</g>
<!-- Node455&#45;&gt;Node469 -->
<g id="edge61" class="edge"><title>Node455&#45;&gt;Node469</title>
<path fill="none" stroke="midnightblue" d="M514.508,-376.092C525.407,-377.655 537.733,-379.422 549.853,-381.16"/>
<polygon fill="midnightblue" stroke="midnightblue" points="549.553,-384.653 559.949,-382.608 550.547,-377.724 549.553,-384.653"/>
</g>
<!-- Node457 -->
<g id="node34" class="node"><title>Node457</title>
<g id="a_node34"><a xlink:href="ldebug_8c.html#ad72fa774194e83872bac4e5bf6ec1160" target="_top" xlink:title=" ">
<polygon fill="white" stroke="red" points="955.5,-342.5 955.5,-361.5 1016.5,-361.5 1016.5,-342.5 955.5,-342.5"/>
<text text-anchor="middle" x="986" y="-349.5" font-family="Helvetica,sans-Serif" font-size="10.00">auxgetinfo</text>
</a>
</g>
</g>
<!-- Node456&#45;&gt;Node457 -->
<g id="edge46" class="edge"><title>Node456&#45;&gt;Node457</title>
<path fill="none" stroke="midnightblue" d="M897.524,-380.411C912.212,-375.641 930.16,-369.811 945.968,-364.677"/>
<polygon fill="midnightblue" stroke="midnightblue" points="947.056,-368.004 955.485,-361.586 944.893,-361.346 947.056,-368.004"/>
</g>
<!-- Node461 -->
<g id="node35" class="node"><title>Node461</title>
<g id="a_node35"><a xlink:href="ldebug_8c.html#a6e3195fc94af1f75142c2801ca8cf058" target="_top" xlink:title=" ">
<polygon fill="white" stroke="red" points="944,-380.5 944,-399.5 1028,-399.5 1028,-380.5 944,-380.5"/>
<text text-anchor="middle" x="986" y="-387.5" font-family="Helvetica,sans-Serif" font-size="10.00">collectvalidlines</text>
</a>
</g>
</g>
<!-- Node456&#45;&gt;Node461 -->
<g id="edge48" class="edge"><title>Node456&#45;&gt;Node461</title>
<path fill="none" stroke="midnightblue" d="M898.74,-390C909.423,-390 921.713,-390 933.606,-390"/>
<polygon fill="midnightblue" stroke="midnightblue" points="933.904,-393.5 943.904,-390 933.904,-386.5 933.904,-393.5"/>
</g>
<!-- Node457&#45;&gt;Node78 -->
<g id="edge47" class="edge"><title>Node457&#45;&gt;Node78</title>
<path fill="none" stroke="midnightblue" d="M1016.51,-358.075C1030.8,-360.835 1048.24,-363.936 1064,-366 1152.21,-377.548 1255.92,-384.402 1314.66,-387.663"/>
<polygon fill="midnightblue" stroke="midnightblue" points="1314.56,-391.163 1324.74,-388.212 1314.94,-384.173 1314.56,-391.163"/>
</g>
<!-- Node465 -->
<g id="node38" class="node"><title>Node465</title>
<g id="a_node38"><a xlink:href="lapi_8c.html#a1de3afee1daece63d455f23818c883d9" target="_top" xlink:title=" ">
<polygon fill="white" stroke="red" points="835,-228.5 835,-247.5 899,-247.5 899,-228.5 835,-228.5"/>
<text text-anchor="middle" x="867" y="-235.5" font-family="Helvetica,sans-Serif" font-size="10.00">lua_concat</text>
</a>
</g>
</g>
<!-- Node464&#45;&gt;Node465 -->
<g id="edge51" class="edge"><title>Node464&#45;&gt;Node465</title>
<path fill="none" stroke="midnightblue" d="M639.732,-285.422C647.844,-282.434 656.801,-279.106 665,-276 681.054,-269.918 684.399,-266.375 701,-262 742.297,-251.117 790.795,-244.807 824.479,-241.413"/>
<polygon fill="midnightblue" stroke="midnightblue" points="825.249,-244.856 834.867,-240.412 824.577,-237.888 825.249,-244.856"/>
</g>
<!-- Node466 -->
<g id="node39" class="node"><title>Node466</title>
<g id="a_node39"><a xlink:href="lapi_8c.html#a6ba7b91143fe8a03910420d800de8e97" target="_top" xlink:title=" ">
<polygon fill="white" stroke="black" points="959,-285.5 959,-304.5 1013,-304.5 1013,-285.5 959,-285.5"/>
<text text-anchor="middle" x="986" y="-292.5" font-family="Helvetica,sans-Serif" font-size="10.00">lua_error</text>
</a>
</g>
</g>
<!-- Node464&#45;&gt;Node466 -->
<g id="edge53" class="edge"><title>Node464&#45;&gt;Node466</title>
<path fill="none" stroke="midnightblue" d="M642.034,-295C708.754,-295 874.876,-295 948.676,-295"/>
<polygon fill="midnightblue" stroke="midnightblue" points="948.872,-298.5 958.872,-295 948.872,-291.5 948.872,-298.5"/>
</g>
<!-- Node467 -->
<g id="node40" class="node"><title>Node467</title>
<g id="a_node40"><a xlink:href="lapi_8c.html#a426c9cb1d582be3e43060c4772854e5a" target="_top" xlink:title=" ">
<polygon fill="white" stroke="black" points="1073.5,-133.5 1073.5,-152.5 1159.5,-152.5 1159.5,-133.5 1073.5,-133.5"/>
<text text-anchor="middle" x="1116.5" y="-140.5" font-family="Helvetica,sans-Serif" font-size="10.00">lua_pushvfstring</text>
</a>
</g>
</g>
<!-- Node464&#45;&gt;Node467 -->
<g id="edge55" class="edge"><title>Node464&#45;&gt;Node467</title>
<path fill="none" stroke="midnightblue" d="M642.16,-289.197C650.371,-286.362 658.773,-282.172 665,-276 697.067,-244.213 665.055,-208.325 701,-181 756.631,-138.709 964.787,-138.63 1063.25,-141.119"/>
<polygon fill="midnightblue" stroke="midnightblue" points="1063.19,-144.619 1073.28,-141.392 1063.38,-137.622 1063.19,-144.619"/>
</g>
<!-- Node468 -->
<g id="node41" class="node"><title>Node468</title>
<g id="a_node41"><a xlink:href="lauxlib_8c.html#a0f4d3c30c07eae36aa25605df84279a0" target="_top" xlink:title=" ">
<polygon fill="white" stroke="black" points="713,-304.5 713,-323.5 778,-323.5 778,-304.5 713,-304.5"/>
<text text-anchor="middle" x="745.5" y="-311.5" font-family="Helvetica,sans-Serif" font-size="10.00">luaL_where</text>
</a>
</g>
</g>
<!-- Node464&#45;&gt;Node468 -->
<g id="edge57" class="edge"><title>Node464&#45;&gt;Node468</title>
<path fill="none" stroke="midnightblue" d="M642.249,-299.17C659.95,-301.737 682.947,-305.072 702.647,-307.93"/>
<polygon fill="midnightblue" stroke="midnightblue" points="702.204,-311.402 712.603,-309.374 703.209,-304.475 702.204,-311.402"/>
</g>
<!-- Node465&#45;&gt;Node9 -->
<g id="edge52" class="edge"><title>Node465&#45;&gt;Node9</title>
<path fill="none" stroke="midnightblue" d="M899.047,-238C911.455,-238 925.994,-238 939.548,-238"/>
<polygon fill="midnightblue" stroke="midnightblue" points="939.669,-241.5 949.669,-238 939.669,-234.5 939.669,-241.5"/>
</g>
<!-- Node466&#45;&gt;Node114 -->
<g id="edge54" class="edge"><title>Node466&#45;&gt;Node114</title>
<path fill="none" stroke="midnightblue" d="M1004.78,-304.591C1020.03,-312.329 1042.82,-322.757 1064,-328 1149.41,-349.145 1252.4,-352.798 1312.08,-352.861"/>
<polygon fill="midnightblue" stroke="midnightblue" points="1312.35,-356.361 1322.35,-352.837 1312.34,-349.361 1312.35,-356.361"/>
</g>
<!-- Node467&#45;&gt;Node84 -->
<g id="edge56" class="edge"><title>Node467&#45;&gt;Node84</title>
<path fill="none" stroke="midnightblue" d="M1159.62,-136.184C1193.06,-132.377 1240.58,-130.583 1280,-143 1305.01,-150.879 1329.03,-169.471 1344.43,-183.292"/>
<polygon fill="midnightblue" stroke="midnightblue" points="1342.35,-186.133 1352.05,-190.381 1347.12,-181.007 1342.35,-186.133"/>
</g>
<!-- Node468&#45;&gt;Node454 -->
<g id="edge60" class="edge"><title>Node468&#45;&gt;Node454</title>
<path fill="none" stroke="midnightblue" d="M751.483,-304.493C769.59,-269.946 832.109,-150.662 856.318,-104.472"/>
<polygon fill="midnightblue" stroke="midnightblue" points="859.454,-106.029 860.996,-95.5472 853.254,-102.78 859.454,-106.029"/>
</g>
<!-- Node468&#45;&gt;Node456 -->
<g id="edge58" class="edge"><title>Node468&#45;&gt;Node456</title>
<path fill="none" stroke="midnightblue" d="M761.635,-323.625C782.017,-336.588 818.493,-359.786 842.47,-375.035"/>
<polygon fill="midnightblue" stroke="midnightblue" points="840.672,-378.04 850.988,-380.453 844.428,-372.133 840.672,-378.04"/>
</g>
<!-- Node468&#45;&gt;Node463 -->
<g id="edge59" class="edge"><title>Node468&#45;&gt;Node463</title>
<path fill="none" stroke="midnightblue" d="M778.21,-319.042C791.23,-321.112 806.547,-323.547 820.711,-325.799"/>
<polygon fill="midnightblue" stroke="midnightblue" points="820.345,-329.285 830.771,-327.399 821.445,-322.372 820.345,-329.285"/>
</g>
<!-- Node469&#45;&gt;Node2 -->
<g id="edge63" class="edge"><title>Node469&#45;&gt;Node2</title>
<path fill="none" stroke="midnightblue" d="M646.557,-399.589C664.161,-404.696 685.948,-411.016 704.501,-416.397"/>
<polygon fill="midnightblue" stroke="midnightblue" points="703.568,-419.771 714.148,-419.195 705.519,-413.048 703.568,-419.771"/>
</g>
<!-- Node469&#45;&gt;Node456 -->
<g id="edge62" class="edge"><title>Node469&#45;&gt;Node456</title>
<path fill="none" stroke="midnightblue" d="M665.206,-390C712.525,-390 781.609,-390 825.161,-390"/>
<polygon fill="midnightblue" stroke="midnightblue" points="825.386,-393.5 835.386,-390 825.386,-386.5 825.386,-393.5"/>
</g>
<!-- Node480 -->
<g id="node43" class="node"><title>Node480</title>
<g id="a_node43"><a xlink:href="lapi_8c.html#a771d300f2e64b2197d1df9bf31660ebf" target="_top" xlink:title=" ">
<polygon fill="white" stroke="black" points="705.5,-190.5 705.5,-209.5 785.5,-209.5 785.5,-190.5 705.5,-190.5"/>
<text text-anchor="middle" x="745.5" y="-197.5" font-family="Helvetica,sans-Serif" font-size="10.00">lua_pushstring</text>
</a>
</g>
</g>
<!-- Node469&#45;&gt;Node480 -->
<g id="edge64" class="edge"><title>Node469&#45;&gt;Node480</title>
<path fill="none" stroke="midnightblue" d="M620.176,-380.317C640.932,-350.213 704.569,-257.915 731.858,-218.335"/>
<polygon fill="midnightblue" stroke="midnightblue" points="734.885,-220.111 737.68,-209.892 729.122,-216.138 734.885,-220.111"/>
</g>
<!-- Node99 -->
<g id="node44" class="node"><title>Node99</title>
<g id="a_node44"><a xlink:href="lstring_8c.html#a6d47e53be6b8e58202bb927752f4824b" target="_top" xlink:title=" ">
<polygon fill="white" stroke="black" points="837.5,-190.5 837.5,-209.5 896.5,-209.5 896.5,-190.5 837.5,-190.5"/>
<text text-anchor="middle" x="867" y="-197.5" font-family="Helvetica,sans-Serif" font-size="10.00">luaS_new</text>
</a>
</g>
</g>
<!-- Node480&#45;&gt;Node99 -->
<g id="edge65" class="edge"><title>Node480&#45;&gt;Node99</title>
<path fill="none" stroke="midnightblue" d="M785.629,-200C798.949,-200 813.828,-200 827.128,-200"/>
<polygon fill="midnightblue" stroke="midnightblue" points="827.396,-203.5 837.396,-200 827.396,-196.5 827.396,-203.5"/>
</g>
<!-- Node99&#45;&gt;Node9 -->
<g id="edge66" class="edge"><title>Node99&#45;&gt;Node9</title>
<path fill="none" stroke="midnightblue" d="M896.621,-209.296C911.412,-214.1 929.685,-220.035 945.77,-225.259"/>
<polygon fill="midnightblue" stroke="midnightblue" points="944.86,-228.643 955.452,-228.403 947.023,-221.985 944.86,-228.643"/>
</g>
<!-- Node482&#45;&gt;Node480 -->
<g id="edge70" class="edge"><title>Node482&#45;&gt;Node480</title>
<path fill="none" stroke="midnightblue" d="M489.649,-285.299C504.354,-272.449 532.222,-250.013 560,-238 603.488,-219.193 656.845,-209.503 694.973,-204.633"/>
<polygon fill="midnightblue" stroke="midnightblue" points="695.794,-208.06 705.302,-203.384 694.954,-201.11 695.794,-208.06"/>
</g>
<!-- Node483 -->
<g id="node46" class="node"><title>Node483</title>
<g id="a_node46"><a xlink:href="lapi_8c.html#a4caa9ca5e47a30bd45e33d83bf2d6d6e" target="_top" xlink:title=" ">
<polygon fill="white" stroke="black" points="567,-418.5 567,-437.5 658,-437.5 658,-418.5 567,-418.5"/>
<text text-anchor="middle" x="612.5" y="-425.5" font-family="Helvetica,sans-Serif" font-size="10.00">lua_getmetatable</text>
</a>
</g>
</g>
<!-- Node482&#45;&gt;Node483 -->
<g id="edge68" class="edge"><title>Node482&#45;&gt;Node483</title>
<path fill="none" stroke="midnightblue" d="M487.292,-304.847C496.579,-316.02 511.911,-334.915 524,-352 541.307,-376.459 536.71,-390.149 560,-409 562.148,-410.739 564.471,-412.327 566.9,-413.778"/>
<polygon fill="midnightblue" stroke="midnightblue" points="565.549,-417.017 576.047,-418.444 568.73,-410.782 565.549,-417.017"/>
</g>
<!-- Node484 -->
<g id="node47" class="node"><title>Node484</title>
<g id="a_node47"><a xlink:href="lapi_8c.html#a52944e714d1c64bda7b83f511c14b2d3" target="_top" xlink:title=" ">
<polygon fill="white" stroke="red" points="581,-247.5 581,-266.5 644,-266.5 644,-247.5 581,-247.5"/>
<text text-anchor="middle" x="612.5" y="-254.5" font-family="Helvetica,sans-Serif" font-size="10.00">lua_rawget</text>
</a>
</g>
</g>
<!-- Node482&#45;&gt;Node484 -->
<g id="edge71" class="edge"><title>Node482&#45;&gt;Node484</title>
<path fill="none" stroke="midnightblue" d="M512.435,-285.411C530.241,-280.304 552.278,-273.984 571.043,-268.603"/>
<polygon fill="midnightblue" stroke="midnightblue" points="572.152,-271.926 580.8,-265.805 570.223,-265.197 572.152,-271.926"/>
</g>
<!-- Node483&#45;&gt;Node4 -->
<g id="edge69" class="edge"><title>Node483&#45;&gt;Node4</title>
<path fill="none" stroke="midnightblue" d="M621.695,-437.508C643.291,-462.566 701.998,-530.684 729.679,-562.804"/>
<polygon fill="midnightblue" stroke="midnightblue" points="727.129,-565.205 736.308,-570.495 732.431,-560.635 727.129,-565.205"/>
</g>
<!-- Node486&#45;&gt;Node454 -->
<g id="edge74" class="edge"><title>Node486&#45;&gt;Node454</title>
<path fill="none" stroke="midnightblue" d="M650.757,-86C694.43,-86 767.009,-86 815.663,-86"/>
<polygon fill="midnightblue" stroke="midnightblue" points="815.663,-89.5001 825.663,-86 815.663,-82.5001 815.663,-89.5001"/>
</g>
<!-- Node486&#45;&gt;Node480 -->
<g id="edge76" class="edge"><title>Node486&#45;&gt;Node480</title>
<path fill="none" stroke="midnightblue" d="M624.669,-95.7196C647.098,-115.238 697.836,-159.391 725.553,-183.512"/>
<polygon fill="midnightblue" stroke="midnightblue" points="723.518,-186.381 733.359,-190.305 728.113,-181.1 723.518,-186.381"/>
</g>
<!-- Node487 -->
<g id="node49" class="node"><title>Node487</title>
<g id="a_node49"><a xlink:href="lapi_8c.html#a56bbb7479265e38da2e2596e6ec25faa" target="_top" xlink:title=" ">
<polygon fill="white" stroke="black" points="701,-38.5 701,-57.5 790,-57.5 790,-38.5 701,-38.5"/>
<text text-anchor="middle" x="745.5" y="-45.5" font-family="Helvetica,sans-Serif" font-size="10.00">lua_pushboolean</text>
</a>
</g>
</g>
<!-- Node486&#45;&gt;Node487 -->
<g id="edge73" class="edge"><title>Node486&#45;&gt;Node487</title>
<path fill="none" stroke="midnightblue" d="M646.557,-76.411C663.313,-71.5506 683.858,-65.5909 701.797,-60.3873"/>
<polygon fill="midnightblue" stroke="midnightblue" points="702.825,-63.7334 711.454,-57.5859 700.875,-57.0105 702.825,-63.7334"/>
</g>
<!-- Node488 -->
<g id="node50" class="node"><title>Node488</title>
<g id="a_node50"><a xlink:href="lapi_8c.html#adcec46ff05dfee9a3c4c05828b40c213" target="_top" xlink:title=" ">
<polygon fill="white" stroke="black" points="703,-0.5 703,-19.5 788,-19.5 788,-0.5 703,-0.5"/>
<text text-anchor="middle" x="745.5" y="-7.5" font-family="Helvetica,sans-Serif" font-size="10.00">lua_pushinteger</text>
</a>
</g>
</g>
<!-- Node486&#45;&gt;Node488 -->
<g id="edge75" class="edge"><title>Node486&#45;&gt;Node488</title>
<path fill="none" stroke="midnightblue" d="M626.715,-76.3975C643.489,-64.4445 673.554,-43.8019 701,-29 704.314,-27.2128 707.83,-25.4583 711.372,-23.7819"/>
<polygon fill="midnightblue" stroke="midnightblue" points="713.021,-26.8769 720.682,-19.5574 710.129,-20.5024 713.021,-26.8769"/>
</g>
</g>
</svg>
