<?xml version="1.0" encoding="UTF-8" standalone="no"?>
<!DOCTYPE svg PUBLIC "-//W3C//DTD SVG 1.1//EN"
 "http://www.w3.org/Graphics/SVG/1.1/DTD/svg11.dtd">
<!-- Generated by graphviz version 2.38.0 (20140413.2041)
 -->
<!-- Title: math_random Pages: 1 -->
<svg width="1666pt" height="605pt"
 viewBox="0.00 0.00 1666.00 604.71" xmlns="http://www.w3.org/2000/svg" xmlns:xlink="http://www.w3.org/1999/xlink">
<g id="graph0" class="graph" transform="scale(1 1) rotate(0) translate(4 600.713)">
<title>math_random</title>
<polygon fill="white" stroke="none" points="-4,4 -4,-600.713 1662,-600.713 1662,4 -4,4"/>
<!-- Node1 -->
<g id="node1" class="node"><title>Node1</title>
<g id="a_node1"><a xlink:title=" ">
<polygon fill="#bfbfbf" stroke="black" points="0,-342.5 0,-361.5 76,-361.5 76,-342.5 0,-342.5"/>
<text text-anchor="middle" x="38" y="-349.5" font-family="Helvetica,sans-Serif" font-size="10.00">math_random</text>
</a>
</g>
</g>
<!-- Node2 -->
<g id="node2" class="node"><title>Node2</title>
<g id="a_node2"><a xlink:href="lmathlib_8c.html#a1f845b41defc9503d3090923b15d79ed" target="_top" xlink:title=" ">
<polygon fill="white" stroke="black" points="145,-532.5 145,-551.5 174,-551.5 174,-532.5 145,-532.5"/>
<text text-anchor="middle" x="159.5" y="-539.5" font-family="Helvetica,sans-Serif" font-size="10.00">I2d</text>
</a>
</g>
</g>
<!-- Node1&#45;&gt;Node2 -->
<g id="edge1" class="edge"><title>Node1&#45;&gt;Node2</title>
<path fill="none" stroke="midnightblue" d="M40.9219,-361.883C46.799,-389.751 66.9411,-470.049 112,-518 118.369,-524.778 127.08,-529.973 135.242,-533.767"/>
<polygon fill="midnightblue" stroke="midnightblue" points="134.153,-537.105 144.731,-537.713 136.841,-530.641 134.153,-537.105"/>
</g>
<!-- Node3 -->
<g id="node3" class="node"><title>Node3</title>
<g id="a_node3"><a xlink:href="lmathlib_8c.html#a00b4573721dbfd08d584b34a7e1722db" target="_top" xlink:title=" ">
<polygon fill="white" stroke="black" points="261,-494.5 261,-513.5 302,-513.5 302,-494.5 261,-494.5"/>
<text text-anchor="middle" x="281.5" y="-501.5" font-family="Helvetica,sans-Serif" font-size="10.00">I2UInt</text>
</a>
</g>
</g>
<!-- Node1&#45;&gt;Node3 -->
<g id="edge2" class="edge"><title>Node1&#45;&gt;Node3</title>
<path fill="none" stroke="midnightblue" d="M41.1085,-361.781C47.1254,-387.078 66.93,-454.787 112,-485 153.662,-512.928 214.502,-512.098 250.541,-508.418"/>
<polygon fill="midnightblue" stroke="midnightblue" points="251.353,-511.847 260.88,-507.214 250.542,-504.895 251.353,-511.847"/>
</g>
<!-- Node4 -->
<g id="node4" class="node"><title>Node4</title>
<g id="a_node4"><a xlink:href="lapi_8c.html#afbb08ecb69421875494105d4de68e5bf" target="_top" xlink:title=" ">
<polygon fill="white" stroke="black" points="831.5,-380.5 831.5,-399.5 893.5,-399.5 893.5,-380.5 831.5,-380.5"/>
<text text-anchor="middle" x="862.5" y="-387.5" font-family="Helvetica,sans-Serif" font-size="10.00">lua_gettop</text>
</a>
</g>
</g>
<!-- Node1&#45;&gt;Node4 -->
<g id="edge3" class="edge"><title>Node1&#45;&gt;Node4</title>
<path fill="none" stroke="midnightblue" d="M76.3612,-361.589C123.576,-372.846 207.498,-390 280.5,-390 280.5,-390 280.5,-390 617.5,-390 689.327,-390 773.047,-390 821.396,-390"/>
<polygon fill="midnightblue" stroke="midnightblue" points="821.449,-393.5 831.449,-390 821.449,-386.5 821.449,-393.5"/>
</g>
<!-- Node5 -->
<g id="node5" class="node"><title>Node5</title>
<g id="a_node5"><a xlink:href="lapi_8c.html#adcec46ff05dfee9a3c4c05828b40c213" target="_top" xlink:title=" ">
<polygon fill="white" stroke="black" points="117,-76.5 117,-95.5 202,-95.5 202,-76.5 117,-76.5"/>
<text text-anchor="middle" x="159.5" y="-83.5" font-family="Helvetica,sans-Serif" font-size="10.00">lua_pushinteger</text>
</a>
</g>
</g>
<!-- Node1&#45;&gt;Node5 -->
<g id="edge4" class="edge"><title>Node1&#45;&gt;Node5</title>
<path fill="none" stroke="midnightblue" d="M39.3048,-342.449C40.9053,-307.326 50.8357,-183.56 112,-110 114.888,-106.527 118.408,-103.498 122.206,-100.871"/>
<polygon fill="midnightblue" stroke="midnightblue" points="124.018,-103.865 130.826,-95.7468 120.441,-97.8479 124.018,-103.865"/>
</g>
<!-- Node6 -->
<g id="node6" class="node"><title>Node6</title>
<g id="a_node6"><a xlink:href="lapi_8c.html#a328625a03fbb5548f27b1af10f109f6a" target="_top" xlink:title=" ">
<polygon fill="white" stroke="black" points="115.5,-38.5 115.5,-57.5 203.5,-57.5 203.5,-38.5 115.5,-38.5"/>
<text text-anchor="middle" x="159.5" y="-45.5" font-family="Helvetica,sans-Serif" font-size="10.00">lua_pushnumber</text>
</a>
</g>
</g>
<!-- Node1&#45;&gt;Node6 -->
<g id="edge5" class="edge"><title>Node1&#45;&gt;Node6</title>
<path fill="none" stroke="midnightblue" d="M38.5618,-342.247C37.3181,-302.667 37.8393,-152.099 112,-67 113.142,-65.6892 114.389,-64.4673 115.716,-63.3285"/>
<polygon fill="midnightblue" stroke="midnightblue" points="117.737,-66.1868 124.043,-57.6727 113.804,-60.3963 117.737,-66.1868"/>
</g>
<!-- Node7 -->
<g id="node7" class="node"><title>Node7</title>
<g id="a_node7"><a xlink:href="lapi_8c.html#a0444ddf13e5618bca969e4b3b47bc0cc" target="_top" xlink:title=" ">
<polygon fill="white" stroke="black" points="119.5,-190.5 119.5,-209.5 199.5,-209.5 199.5,-190.5 119.5,-190.5"/>
<text text-anchor="middle" x="159.5" y="-197.5" font-family="Helvetica,sans-Serif" font-size="10.00">lua_touserdata</text>
</a>
</g>
</g>
<!-- Node1&#45;&gt;Node7 -->
<g id="edge6" class="edge"><title>Node1&#45;&gt;Node7</title>
<path fill="none" stroke="midnightblue" d="M46.4753,-342.492C66.0916,-317.54 119.274,-249.894 144.657,-217.608"/>
<polygon fill="midnightblue" stroke="midnightblue" points="147.599,-219.529 151.028,-209.505 142.096,-215.203 147.599,-219.529"/>
</g>
<!-- Node10 -->
<g id="node10" class="node"><title>Node10</title>
<g id="a_node10"><a xlink:href="lauxlib_8c.html#aa15bea412c49bfdee1f3dbff096ce7d2" target="_top" xlink:title=" ">
<polygon fill="white" stroke="black" points="112,-304.5 112,-323.5 207,-323.5 207,-304.5 112,-304.5"/>
<text text-anchor="middle" x="159.5" y="-311.5" font-family="Helvetica,sans-Serif" font-size="10.00">luaL_checkinteger</text>
</a>
</g>
</g>
<!-- Node1&#45;&gt;Node10 -->
<g id="edge9" class="edge"><title>Node1&#45;&gt;Node10</title>
<path fill="none" stroke="midnightblue" d="M69.1549,-342.411C84.1566,-337.641 102.488,-331.811 118.634,-326.677"/>
<polygon fill="midnightblue" stroke="midnightblue" points="119.886,-329.952 128.355,-323.586 117.764,-323.281 119.886,-329.952"/>
</g>
<!-- Node464 -->
<g id="node16" class="node"><title>Node464</title>
<g id="a_node16"><a xlink:href="lauxlib_8c.html#a6c51d83d29244779392551388913e08a" target="_top" xlink:title=" ">
<polygon fill="white" stroke="black" points="712,-171.5 712,-190.5 771,-190.5 771,-171.5 712,-171.5"/>
<text text-anchor="middle" x="741.5" y="-178.5" font-family="Helvetica,sans-Serif" font-size="10.00">luaL_error</text>
</a>
</g>
</g>
<!-- Node1&#45;&gt;Node464 -->
<g id="edge56" class="edge"><title>Node1&#45;&gt;Node464</title>
<path fill="none" stroke="midnightblue" d="M40.3404,-342.295C44.8354,-313.431 62.0145,-227.264 112,-181 170.02,-127.299 201.442,-124 280.5,-124 280.5,-124 280.5,-124 506,-124 579.813,-124 663.091,-150.995 707.849,-167.83"/>
<polygon fill="midnightblue" stroke="midnightblue" points="706.732,-171.15 717.322,-171.459 709.236,-164.614 706.732,-171.15"/>
</g>
<!-- Node492 -->
<g id="node41" class="node"><title>Node492</title>
<g id="a_node41"><a xlink:href="lmathlib_8c.html#ac01956e1f85c57f7781d256db3d76886" target="_top" xlink:title=" ">
<polygon fill="white" stroke="black" points="254.5,-456.5 254.5,-475.5 308.5,-475.5 308.5,-456.5 254.5,-456.5"/>
<text text-anchor="middle" x="281.5" y="-463.5" font-family="Helvetica,sans-Serif" font-size="10.00">nextrand</text>
</a>
</g>
</g>
<!-- Node1&#45;&gt;Node492 -->
<g id="edge57" class="edge"><title>Node1&#45;&gt;Node492</title>
<path fill="none" stroke="midnightblue" d="M50.7527,-361.883C64.6685,-373.215 88.8829,-391.795 112,-404 155.654,-427.048 209.781,-445.307 244.717,-455.882"/>
<polygon fill="midnightblue" stroke="midnightblue" points="243.891,-459.287 254.474,-458.786 245.888,-452.578 243.891,-459.287"/>
</g>
<!-- Node501 -->
<g id="node50" class="node"><title>Node501</title>
<g id="a_node50"><a xlink:href="lmathlib_8c.html#a13ece5b7fa9dd48246430a48dec238b1" target="_top" xlink:title=" ">
<polygon fill="white" stroke="black" points="136.5,-456.5 136.5,-475.5 182.5,-475.5 182.5,-456.5 136.5,-456.5"/>
<text text-anchor="middle" x="159.5" y="-463.5" font-family="Helvetica,sans-Serif" font-size="10.00">project</text>
</a>
</g>
</g>
<!-- Node1&#45;&gt;Node501 -->
<g id="edge72" class="edge"><title>Node1&#45;&gt;Node501</title>
<path fill="none" stroke="midnightblue" d="M44.9634,-361.77C56.2265,-379.587 82.1905,-417.751 112,-442 116.493,-445.655 121.632,-448.977 126.816,-451.907"/>
<polygon fill="midnightblue" stroke="midnightblue" points="125.584,-455.212 136.067,-456.742 128.826,-449.008 125.584,-455.212"/>
</g>
<!-- Node8 -->
<g id="node8" class="node"><title>Node8</title>
<g id="a_node8"><a xlink:href="lapi_8c.html#a7c66797ff8396fc9258bb9fc08e959d8" target="_top" xlink:title=" ">
<polygon fill="white" stroke="black" points="471.5,-228.5 471.5,-247.5 538.5,-247.5 538.5,-228.5 471.5,-228.5"/>
<text text-anchor="middle" x="505" y="-235.5" font-family="Helvetica,sans-Serif" font-size="10.00">index2value</text>
</a>
</g>
</g>
<!-- Node7&#45;&gt;Node8 -->
<g id="edge7" class="edge"><title>Node7&#45;&gt;Node8</title>
<path fill="none" stroke="midnightblue" d="M199.569,-204.322C264.331,-211.486 393.446,-225.77 460.822,-233.223"/>
<polygon fill="midnightblue" stroke="midnightblue" points="460.761,-236.738 471.086,-234.359 461.531,-229.78 460.761,-236.738"/>
</g>
<!-- Node9 -->
<g id="node9" class="node"><title>Node9</title>
<g id="a_node9"><a xlink:href="lapi_8c.html#ae98ecd8a638f53798949d5966c0cbed4" target="_top" xlink:title=" ">
<polygon fill="white" stroke="black" points="250.5,-152.5 250.5,-171.5 312.5,-171.5 312.5,-152.5 250.5,-152.5"/>
<text text-anchor="middle" x="281.5" y="-159.5" font-family="Helvetica,sans-Serif" font-size="10.00">touserdata</text>
</a>
</g>
</g>
<!-- Node7&#45;&gt;Node9 -->
<g id="edge8" class="edge"><title>Node7&#45;&gt;Node9</title>
<path fill="none" stroke="midnightblue" d="M190.781,-190.411C205.846,-185.641 224.254,-179.811 240.467,-174.677"/>
<polygon fill="midnightblue" stroke="midnightblue" points="241.752,-177.942 250.229,-171.586 239.639,-171.268 241.752,-177.942"/>
</g>
<!-- Node11 -->
<g id="node11" class="node"><title>Node11</title>
<g id="a_node11"><a xlink:href="lauxlib_8c.html#ac900510f548ea0ea6d53358d2aedd100" target="_top" xlink:title=" ">
<polygon fill="white" stroke="black" points="258,-304.5 258,-323.5 305,-323.5 305,-304.5 258,-304.5"/>
<text text-anchor="middle" x="281.5" y="-311.5" font-family="Helvetica,sans-Serif" font-size="10.00">interror</text>
</a>
</g>
</g>
<!-- Node10&#45;&gt;Node11 -->
<g id="edge10" class="edge"><title>Node10&#45;&gt;Node11</title>
<path fill="none" stroke="midnightblue" d="M207.239,-314C220.676,-314 235.047,-314 247.471,-314"/>
<polygon fill="midnightblue" stroke="midnightblue" points="247.814,-317.5 257.814,-314 247.814,-310.5 247.814,-317.5"/>
</g>
<!-- Node491 -->
<g id="node40" class="node"><title>Node491</title>
<g id="a_node40"><a xlink:href="lapi_8c.html#af81c9a68425546e1f8c6354728c95170" target="_top" xlink:title=" ">
<polygon fill="white" stroke="black" points="243,-247.5 243,-266.5 320,-266.5 320,-247.5 243,-247.5"/>
<text text-anchor="middle" x="281.5" y="-254.5" font-family="Helvetica,sans-Serif" font-size="10.00">lua_tointegerx</text>
</a>
</g>
</g>
<!-- Node10&#45;&gt;Node491 -->
<g id="edge54" class="edge"><title>Node10&#45;&gt;Node491</title>
<path fill="none" stroke="midnightblue" d="M180.585,-304.459C199.881,-295.294 229.257,-281.341 251.169,-270.932"/>
<polygon fill="midnightblue" stroke="midnightblue" points="252.818,-274.024 260.349,-266.572 249.815,-267.701 252.818,-274.024"/>
</g>
<!-- Node12 -->
<g id="node12" class="node"><title>Node12</title>
<g id="a_node12"><a xlink:href="lapi_8c.html#a99451f234bf085c9c46c3d17a5aef905" target="_top" xlink:title=" ">
<polygon fill="white" stroke="black" points="356,-266.5 356,-285.5 430,-285.5 430,-266.5 356,-266.5"/>
<text text-anchor="middle" x="393" y="-273.5" font-family="Helvetica,sans-Serif" font-size="10.00">lua_isnumber</text>
</a>
</g>
</g>
<!-- Node11&#45;&gt;Node12 -->
<g id="edge11" class="edge"><title>Node11&#45;&gt;Node12</title>
<path fill="none" stroke="midnightblue" d="M305.188,-306.126C319.403,-301.194 338.068,-294.716 354.448,-289.032"/>
<polygon fill="midnightblue" stroke="midnightblue" points="355.991,-292.201 364.291,-285.616 353.696,-285.588 355.991,-292.201"/>
</g>
<!-- Node13 -->
<g id="node13" class="node"><title>Node13</title>
<g id="a_node13"><a xlink:href="lauxlib_8c.html#ac607576dd107a3120cd51948989f1ed2" target="_top" xlink:title=" ">
<polygon fill="white" stroke="black" points="580,-304.5 580,-323.5 653,-323.5 653,-304.5 580,-304.5"/>
<text text-anchor="middle" x="616.5" y="-311.5" font-family="Helvetica,sans-Serif" font-size="10.00">luaL_argerror</text>
</a>
</g>
</g>
<!-- Node11&#45;&gt;Node13 -->
<g id="edge13" class="edge"><title>Node11&#45;&gt;Node13</title>
<path fill="none" stroke="midnightblue" d="M305.055,-321.412C319.451,-325.747 338.611,-330.789 356,-333 438.888,-343.54 461.148,-343.821 544,-333 554.81,-331.588 566.311,-329.024 576.857,-326.227"/>
<polygon fill="midnightblue" stroke="midnightblue" points="577.929,-329.561 586.622,-323.504 576.049,-322.819 577.929,-329.561"/>
</g>
<!-- Node484 -->
<g id="node37" class="node"><title>Node484</title>
<g id="a_node37"><a xlink:href="lauxlib_8c.html#ab8e946260debec8d4bbc714b76a1613b" target="_top" xlink:title=" ">
<polygon fill="white" stroke="black" points="365.5,-304.5 365.5,-323.5 420.5,-323.5 420.5,-304.5 365.5,-304.5"/>
<text text-anchor="middle" x="393" y="-311.5" font-family="Helvetica,sans-Serif" font-size="10.00">tag_error</text>
</a>
</g>
</g>
<!-- Node11&#45;&gt;Node484 -->
<g id="edge49" class="edge"><title>Node11&#45;&gt;Node484</title>
<path fill="none" stroke="midnightblue" d="M305.188,-314C319.577,-314 338.526,-314 355.049,-314"/>
<polygon fill="midnightblue" stroke="midnightblue" points="355.484,-317.5 365.484,-314 355.484,-310.5 355.484,-317.5"/>
</g>
<!-- Node12&#45;&gt;Node8 -->
<g id="edge12" class="edge"><title>Node12&#45;&gt;Node8</title>
<path fill="none" stroke="midnightblue" d="M421.758,-266.411C435.306,-261.731 451.805,-256.031 466.46,-250.968"/>
<polygon fill="midnightblue" stroke="midnightblue" points="467.942,-254.159 476.251,-247.586 465.656,-247.543 467.942,-254.159"/>
</g>
<!-- Node14 -->
<g id="node14" class="node"><title>Node14</title>
<g id="a_node14"><a xlink:href="ldebug_8c.html#acaafc35d8e385c4d167229486165df6d" target="_top" xlink:title=" ">
<polygon fill="white" stroke="red" points="940.5,-304.5 940.5,-323.5 1003.5,-323.5 1003.5,-304.5 940.5,-304.5"/>
<text text-anchor="middle" x="972" y="-311.5" font-family="Helvetica,sans-Serif" font-size="10.00">lua_getinfo</text>
</a>
</g>
</g>
<!-- Node13&#45;&gt;Node14 -->
<g id="edge14" class="edge"><title>Node13&#45;&gt;Node14</title>
<path fill="none" stroke="midnightblue" d="M653.013,-314C718.961,-314 859.976,-314 929.916,-314"/>
<polygon fill="midnightblue" stroke="midnightblue" points="930.106,-317.5 940.106,-314 930.105,-310.5 930.106,-317.5"/>
</g>
<!-- Node463 -->
<g id="node15" class="node"><title>Node463</title>
<g id="a_node15"><a xlink:href="ldebug_8c.html#ac1fc03c27ee46caa4037df2d70f22110" target="_top" xlink:title=" ">
<polygon fill="white" stroke="black" points="936,-266.5 936,-285.5 1008,-285.5 1008,-266.5 936,-266.5"/>
<text text-anchor="middle" x="972" y="-273.5" font-family="Helvetica,sans-Serif" font-size="10.00">lua_getstack</text>
</a>
</g>
</g>
<!-- Node13&#45;&gt;Node463 -->
<g id="edge15" class="edge"><title>Node13&#45;&gt;Node463</title>
<path fill="none" stroke="midnightblue" d="M653.013,-310.182C717.678,-303.231 854.517,-288.522 925.754,-280.864"/>
<polygon fill="midnightblue" stroke="midnightblue" points="926.204,-284.336 935.772,-279.787 925.455,-277.376 926.204,-284.336"/>
</g>
<!-- Node13&#45;&gt;Node464 -->
<g id="edge16" class="edge"><title>Node13&#45;&gt;Node464</title>
<path fill="none" stroke="midnightblue" d="M626.346,-304.435C646.901,-282.209 698.132,-226.812 724.405,-198.403"/>
<polygon fill="midnightblue" stroke="midnightblue" points="727.182,-200.555 731.402,-190.837 722.043,-195.803 727.182,-200.555"/>
</g>
<!-- Node470 -->
<g id="node36" class="node"><title>Node470</title>
<g id="a_node36"><a xlink:href="lauxlib_8c.html#a4f35430f7ecfcbd5f507e550937046b4" target="_top" xlink:title=" ">
<polygon fill="white" stroke="red" points="689,-342.5 689,-361.5 794,-361.5 794,-342.5 689,-342.5"/>
<text text-anchor="middle" x="741.5" y="-349.5" font-family="Helvetica,sans-Serif" font-size="10.00">pushglobalfuncname</text>
</a>
</g>
</g>
<!-- Node13&#45;&gt;Node470 -->
<g id="edge46" class="edge"><title>Node13&#45;&gt;Node470</title>
<path fill="none" stroke="midnightblue" d="M648.538,-323.589C663.979,-328.359 682.848,-334.189 699.466,-339.323"/>
<polygon fill="midnightblue" stroke="midnightblue" points="698.884,-342.806 709.472,-342.414 700.951,-336.118 698.884,-342.806"/>
</g>
<!-- Node465 -->
<g id="node17" class="node"><title>Node465</title>
<g id="a_node17"><a xlink:href="lapi_8c.html#a1de3afee1daece63d455f23818c883d9" target="_top" xlink:title=" ">
<polygon fill="white" stroke="black" points="830.5,-152.5 830.5,-171.5 894.5,-171.5 894.5,-152.5 830.5,-152.5"/>
<text text-anchor="middle" x="862.5" y="-159.5" font-family="Helvetica,sans-Serif" font-size="10.00">lua_concat</text>
</a>
</g>
</g>
<!-- Node464&#45;&gt;Node465 -->
<g id="edge17" class="edge"><title>Node464&#45;&gt;Node465</title>
<path fill="none" stroke="midnightblue" d="M771.003,-176.449C785.669,-174.108 803.819,-171.21 820.007,-168.625"/>
<polygon fill="midnightblue" stroke="midnightblue" points="820.982,-172.014 830.305,-166.981 819.878,-165.101 820.982,-172.014"/>
</g>
<!-- Node466 -->
<g id="node32" class="node"><title>Node466</title>
<g id="a_node32"><a xlink:href="lapi_8c.html#a6ba7b91143fe8a03910420d800de8e97" target="_top" xlink:title=" ">
<polygon fill="white" stroke="black" points="1336,-242.5 1336,-261.5 1390,-261.5 1390,-242.5 1336,-242.5"/>
<text text-anchor="middle" x="1363" y="-249.5" font-family="Helvetica,sans-Serif" font-size="10.00">lua_error</text>
</a>
</g>
</g>
<!-- Node464&#45;&gt;Node466 -->
<g id="edge37" class="edge"><title>Node464&#45;&gt;Node466</title>
<path fill="none" stroke="midnightblue" d="M771.145,-188.127C846.965,-206.987 1047.24,-256.785 1049,-257 1152.67,-269.662 1179.61,-260.342 1284,-257 1297.59,-256.565 1312.49,-255.704 1325.6,-254.818"/>
<polygon fill="midnightblue" stroke="midnightblue" points="1325.93,-258.303 1335.66,-254.109 1325.44,-251.32 1325.93,-258.303"/>
</g>
<!-- Node467 -->
<g id="node33" class="node"><title>Node467</title>
<g id="a_node33"><a xlink:href="lapi_8c.html#a426c9cb1d582be3e43060c4772854e5a" target="_top" xlink:title=" ">
<polygon fill="white" stroke="black" points="1320,-0.5 1320,-19.5 1406,-19.5 1406,-0.5 1320,-0.5"/>
<text text-anchor="middle" x="1363" y="-7.5" font-family="Helvetica,sans-Serif" font-size="10.00">lua_pushvfstring</text>
</a>
</g>
</g>
<!-- Node464&#45;&gt;Node467 -->
<g id="edge39" class="edge"><title>Node464&#45;&gt;Node467</title>
<path fill="none" stroke="midnightblue" d="M754.394,-171.339C782.885,-148.777 858.109,-92.5963 931,-67 1061.95,-21.0148 1227.16,-11.6825 1309.84,-10.0739"/>
<polygon fill="midnightblue" stroke="midnightblue" points="1310.05,-13.5711 1319.99,-9.90758 1309.93,-6.572 1310.05,-13.5711"/>
</g>
<!-- Node468 -->
<g id="node34" class="node"><title>Node468</title>
<g id="a_node34"><a xlink:href="lauxlib_8c.html#a0f4d3c30c07eae36aa25605df84279a0" target="_top" xlink:title=" ">
<polygon fill="white" stroke="black" points="830,-228.5 830,-247.5 895,-247.5 895,-228.5 830,-228.5"/>
<text text-anchor="middle" x="862.5" y="-235.5" font-family="Helvetica,sans-Serif" font-size="10.00">luaL_where</text>
</a>
</g>
</g>
<!-- Node464&#45;&gt;Node468 -->
<g id="edge41" class="edge"><title>Node464&#45;&gt;Node468</title>
<path fill="none" stroke="midnightblue" d="M762.418,-190.541C781.553,-199.706 810.684,-213.659 832.413,-224.068"/>
<polygon fill="midnightblue" stroke="midnightblue" points="830.986,-227.265 841.517,-228.428 834.01,-220.952 830.986,-227.265"/>
</g>
<!-- Node45 -->
<g id="node18" class="node"><title>Node45</title>
<g id="a_node18"><a xlink:href="lstring_8c.html#ab41fb084ce3ea5e2779f6659ccc2484d" target="_top" xlink:title=" ">
<polygon fill="white" stroke="black" points="1060,-228.5 1060,-247.5 1132,-247.5 1132,-228.5 1060,-228.5"/>
<text text-anchor="middle" x="1096" y="-235.5" font-family="Helvetica,sans-Serif" font-size="10.00">luaS_newlstr</text>
</a>
</g>
</g>
<!-- Node465&#45;&gt;Node45 -->
<g id="edge18" class="edge"><title>Node465&#45;&gt;Node45</title>
<path fill="none" stroke="midnightblue" d="M892.82,-171.625C934.306,-185.245 1010.21,-210.163 1056.28,-225.289"/>
<polygon fill="midnightblue" stroke="midnightblue" points="1055.33,-228.659 1065.92,-228.453 1057.51,-222.008 1055.33,-228.659"/>
</g>
<!-- Node413 -->
<g id="node29" class="node"><title>Node413</title>
<g id="a_node29"><a xlink:href="lvm_8c.html#a2f076040af405dcb50d661edd692eca7" target="_top" xlink:title=" ">
<polygon fill="white" stroke="black" points="936.5,-152.5 936.5,-171.5 1007.5,-171.5 1007.5,-152.5 936.5,-152.5"/>
<text text-anchor="middle" x="972" y="-159.5" font-family="Helvetica,sans-Serif" font-size="10.00">luaV_concat</text>
</a>
</g>
</g>
<!-- Node465&#45;&gt;Node413 -->
<g id="edge31" class="edge"><title>Node465&#45;&gt;Node413</title>
<path fill="none" stroke="midnightblue" d="M894.593,-162C904.36,-162 915.348,-162 925.882,-162"/>
<polygon fill="midnightblue" stroke="midnightblue" points="926.202,-165.5 936.202,-162 926.202,-158.5 926.202,-165.5"/>
</g>
<!-- Node46 -->
<g id="node19" class="node"><title>Node46</title>
<g id="a_node19"><a xlink:href="lstring_8c.html#a9b2c32c59a280de24f20df1c7f0433a1" target="_top" xlink:title=" ">
<polygon fill="white" stroke="red" points="1199,-190.5 1199,-209.5 1264,-209.5 1264,-190.5 1199,-190.5"/>
<text text-anchor="middle" x="1231.5" y="-197.5" font-family="Helvetica,sans-Serif" font-size="10.00">internshrstr</text>
</a>
</g>
</g>
<!-- Node45&#45;&gt;Node46 -->
<g id="edge19" class="edge"><title>Node45&#45;&gt;Node46</title>
<path fill="none" stroke="midnightblue" d="M1130.69,-228.411C1148.37,-223.379 1170.18,-217.169 1188.91,-211.839"/>
<polygon fill="midnightblue" stroke="midnightblue" points="1190,-215.167 1198.66,-209.063 1188.09,-208.434 1190,-215.167"/>
</g>
<!-- Node458 -->
<g id="node20" class="node"><title>Node458</title>
<g id="a_node20"><a xlink:href="lmem_8c.html#a8fc7df43dd830ccbe7581fd53f65bdbe" target="_top" xlink:title=" ">
<polygon fill="white" stroke="black" points="1197,-228.5 1197,-247.5 1266,-247.5 1266,-228.5 1197,-228.5"/>
<text text-anchor="middle" x="1231.5" y="-235.5" font-family="Helvetica,sans-Serif" font-size="10.00">luaM_toobig</text>
</a>
</g>
</g>
<!-- Node45&#45;&gt;Node458 -->
<g id="edge20" class="edge"><title>Node45&#45;&gt;Node458</title>
<path fill="none" stroke="midnightblue" d="M1132.08,-238C1148.74,-238 1168.83,-238 1186.5,-238"/>
<polygon fill="midnightblue" stroke="midnightblue" points="1186.58,-241.5 1196.58,-238 1186.58,-234.5 1186.58,-241.5"/>
</g>
<!-- Node415 -->
<g id="node28" class="node"><title>Node415</title>
<g id="a_node28"><a xlink:href="lstring_8c.html#a8790c7d6e706f935dd6e9eefd068921c" target="_top" xlink:title=" ">
<polygon fill="white" stroke="red" points="1179,-152.5 1179,-171.5 1284,-171.5 1284,-152.5 1179,-152.5"/>
<text text-anchor="middle" x="1231.5" y="-159.5" font-family="Helvetica,sans-Serif" font-size="10.00">luaS_createlngstrobj</text>
</a>
</g>
</g>
<!-- Node45&#45;&gt;Node415 -->
<g id="edge30" class="edge"><title>Node45&#45;&gt;Node415</title>
<path fill="none" stroke="midnightblue" d="M1118.28,-228.352C1126.3,-224.347 1135.33,-219.378 1143,-214 1160.77,-201.541 1160.47,-192.302 1179,-181 1182.2,-179.049 1185.63,-177.249 1189.15,-175.6"/>
<polygon fill="midnightblue" stroke="midnightblue" points="1190.73,-178.731 1198.55,-171.587 1187.98,-172.292 1190.73,-178.731"/>
</g>
<!-- Node37 -->
<g id="node21" class="node"><title>Node37</title>
<g id="a_node21"><a xlink:href="ldebug_8c.html#a88d38ca5da2e7a1492fc9d5ad70c32c5" target="_top" xlink:title=" ">
<polygon fill="white" stroke="red" points="1325.5,-76.5 1325.5,-95.5 1400.5,-95.5 1400.5,-76.5 1325.5,-76.5"/>
<text text-anchor="middle" x="1363" y="-83.5" font-family="Helvetica,sans-Serif" font-size="10.00">luaG_runerror</text>
</a>
</g>
</g>
<!-- Node458&#45;&gt;Node37 -->
<g id="edge21" class="edge"><title>Node458&#45;&gt;Node37</title>
<path fill="none" stroke="midnightblue" d="M1266.18,-229.378C1272.54,-226.738 1278.81,-223.343 1284,-219 1321.31,-187.768 1344.96,-133.832 1355.54,-105.181"/>
<polygon fill="midnightblue" stroke="midnightblue" points="1358.92,-106.134 1358.96,-95.5388 1352.32,-103.796 1358.92,-106.134"/>
</g>
<!-- Node461 -->
<g id="node22" class="node"><title>Node461</title>
<g id="a_node22"><a xlink:href="ldebug_8c.html#af7366920f8408bb33ed01b1d6c0e1238" target="_top" xlink:title=" ">
<polygon fill="white" stroke="black" points="1448.5,-166.5 1448.5,-185.5 1528.5,-185.5 1528.5,-166.5 1448.5,-166.5"/>
<text text-anchor="middle" x="1488.5" y="-173.5" font-family="Helvetica,sans-Serif" font-size="10.00">luaG_errormsg</text>
</a>
</g>
</g>
<!-- Node37&#45;&gt;Node461 -->
<g id="edge22" class="edge"><title>Node37&#45;&gt;Node461</title>
<path fill="none" stroke="midnightblue" d="M1377.22,-95.6316C1398.48,-111.127 1440.48,-141.737 1466.07,-160.385"/>
<polygon fill="midnightblue" stroke="midnightblue" points="1464.24,-163.377 1474.38,-166.438 1468.36,-157.72 1464.24,-163.377"/>
</g>
<!-- Node40 -->
<g id="node25" class="node"><title>Node40</title>
<g id="a_node25"><a xlink:href="lobject_8c.html#aa83fa444a36d79521e846a766fa083d5" target="_top" xlink:title=" ">
<polygon fill="white" stroke="red" points="1442,-57.5 1442,-76.5 1535,-76.5 1535,-57.5 1442,-57.5"/>
<text text-anchor="middle" x="1488.5" y="-64.5" font-family="Helvetica,sans-Serif" font-size="10.00">luaO_pushvfstring</text>
</a>
</g>
</g>
<!-- Node37&#45;&gt;Node40 -->
<g id="edge26" class="edge"><title>Node37&#45;&gt;Node40</title>
<path fill="none" stroke="midnightblue" d="M1389.59,-76.4705C1401.87,-73.6857 1417.11,-70.9663 1431.87,-68.8382"/>
<polygon fill="midnightblue" stroke="midnightblue" points="1432.53,-72.2802 1441.97,-67.4659 1431.59,-65.3439 1432.53,-72.2802"/>
</g>
<!-- Node90 -->
<g id="node23" class="node"><title>Node90</title>
<g id="a_node23"><a xlink:href="ldo_8c.html#a61c0a0185ef5ae1493dad10027f4db7e" target="_top" xlink:title=" ">
<polygon fill="white" stroke="red" points="1571,-194.5 1571,-213.5 1658,-213.5 1658,-194.5 1571,-194.5"/>
<text text-anchor="middle" x="1614.5" y="-201.5" font-family="Helvetica,sans-Serif" font-size="10.00">luaD_callnoyield</text>
</a>
</g>
</g>
<!-- Node461&#45;&gt;Node90 -->
<g id="edge23" class="edge"><title>Node461&#45;&gt;Node90</title>
<path fill="none" stroke="midnightblue" d="M1528.73,-184.859C1539.06,-187.19 1550.35,-189.741 1561.24,-192.2"/>
<polygon fill="midnightblue" stroke="midnightblue" points="1560.56,-195.634 1571.09,-194.423 1562.1,-188.806 1560.56,-195.634"/>
</g>
<!-- Node120 -->
<g id="node24" class="node"><title>Node120</title>
<g id="a_node24"><a xlink:href="ldo_8c.html#a2b46d9db5b9ca3d5402a0c2ac640a6b0" target="_top" xlink:title=" ">
<polygon fill="white" stroke="red" points="1582,-138.5 1582,-157.5 1647,-157.5 1647,-138.5 1582,-138.5"/>
<text text-anchor="middle" x="1614.5" y="-145.5" font-family="Helvetica,sans-Serif" font-size="10.00">luaD_throw</text>
</a>
</g>
</g>
<!-- Node461&#45;&gt;Node120 -->
<g id="edge24" class="edge"><title>Node461&#45;&gt;Node120</title>
<path fill="none" stroke="midnightblue" d="M1528.73,-167.141C1542.55,-164.021 1558.12,-160.505 1572.11,-157.346"/>
<polygon fill="midnightblue" stroke="midnightblue" points="1572.99,-160.737 1581.97,-155.12 1571.44,-153.909 1572.99,-160.737"/>
</g>
<!-- Node120&#45;&gt;Node120 -->
<g id="edge25" class="edge"><title>Node120&#45;&gt;Node120</title>
<path fill="none" stroke="midnightblue" d="M1595.08,-157.757C1585.63,-166.565 1592.11,-176 1614.5,-176 1628.85,-176 1636.66,-172.128 1637.94,-167.029"/>
<polygon fill="midnightblue" stroke="midnightblue" points="1641.11,-165.541 1633.92,-157.757 1634.68,-168.324 1641.11,-165.541"/>
</g>
<!-- Node40&#45;&gt;Node37 -->
<g id="edge29" class="edge"><title>Node40&#45;&gt;Node37</title>
<path fill="none" stroke="midnightblue" d="M1461.69,-76.5789C1446.93,-79.9158 1427.95,-83.1544 1410.66,-85.3889"/>
<polygon fill="midnightblue" stroke="midnightblue" points="1410.23,-81.9153 1400.72,-86.5816 1411.07,-88.8655 1410.23,-81.9153"/>
</g>
<!-- Node41 -->
<g id="node26" class="node"><title>Node41</title>
<g id="a_node26"><a xlink:href="lobject_8c.html#a1d02fb9304e4700ce1fd20e34ae68784" target="_top" xlink:title=" ">
<polygon fill="white" stroke="red" points="1579,-76.5 1579,-95.5 1650,-95.5 1650,-76.5 1579,-76.5"/>
<text text-anchor="middle" x="1614.5" y="-83.5" font-family="Helvetica,sans-Serif" font-size="10.00">addnum2buff</text>
</a>
</g>
</g>
<!-- Node40&#45;&gt;Node41 -->
<g id="edge27" class="edge"><title>Node40&#45;&gt;Node41</title>
<path fill="none" stroke="midnightblue" d="M1535.32,-74.0209C1546.2,-75.6872 1557.78,-77.4629 1568.62,-79.1226"/>
<polygon fill="midnightblue" stroke="midnightblue" points="1568.31,-82.6161 1578.72,-80.6711 1569.37,-75.6968 1568.31,-82.6161"/>
</g>
<!-- Node460 -->
<g id="node27" class="node"><title>Node460</title>
<g id="a_node27"><a xlink:href="lobject_8c.html#a874ab64f433ee35f2197a81e10452cb1" target="_top" xlink:title=" ">
<polygon fill="white" stroke="red" points="1582.5,-38.5 1582.5,-57.5 1646.5,-57.5 1646.5,-38.5 1582.5,-38.5"/>
<text text-anchor="middle" x="1614.5" y="-45.5" font-family="Helvetica,sans-Serif" font-size="10.00">addstr2buff</text>
</a>
</g>
</g>
<!-- Node40&#45;&gt;Node460 -->
<g id="edge28" class="edge"><title>Node40&#45;&gt;Node460</title>
<path fill="none" stroke="midnightblue" d="M1535.32,-59.9791C1547.38,-58.1313 1560.32,-56.149 1572.13,-54.3393"/>
<polygon fill="midnightblue" stroke="midnightblue" points="1572.81,-57.7755 1582.17,-52.8012 1571.75,-50.8563 1572.81,-57.7755"/>
</g>
<!-- Node413&#45;&gt;Node45 -->
<g id="edge35" class="edge"><title>Node413&#45;&gt;Node45</title>
<path fill="none" stroke="midnightblue" d="M990.02,-171.601C997.233,-175.825 1005.65,-180.965 1013,-186 1029.72,-197.457 1031.95,-203.045 1049,-214 1054.24,-217.368 1060.01,-220.669 1065.64,-223.692"/>
<polygon fill="midnightblue" stroke="midnightblue" points="1064.37,-226.978 1074.86,-228.482 1067.6,-220.766 1064.37,-226.978"/>
</g>
<!-- Node413&#45;&gt;Node37 -->
<g id="edge33" class="edge"><title>Node413&#45;&gt;Node37</title>
<path fill="none" stroke="midnightblue" d="M982.192,-152.169C995.465,-138.726 1021.44,-115.124 1049,-105 1138.79,-72.0125 1252.79,-75.3584 1315.45,-80.7011"/>
<polygon fill="midnightblue" stroke="midnightblue" points="1315.15,-84.1882 1325.43,-81.6061 1315.78,-77.2169 1315.15,-84.1882"/>
</g>
<!-- Node413&#45;&gt;Node415 -->
<g id="edge34" class="edge"><title>Node413&#45;&gt;Node415</title>
<path fill="none" stroke="midnightblue" d="M1003.74,-171.505C1017.44,-175.269 1033.88,-179.139 1049,-181 1090.46,-186.105 1101.46,-185.458 1143,-181 1156.79,-179.52 1171.61,-176.762 1185.05,-173.798"/>
<polygon fill="midnightblue" stroke="midnightblue" points="1186.06,-177.157 1195.02,-171.508 1184.49,-170.335 1186.06,-177.157"/>
</g>
<!-- Node414 -->
<g id="node30" class="node"><title>Node414</title>
<g id="a_node30"><a xlink:href="lvm_8c.html#a7f03a9c23b77ec5cd280bb955ec430b8" target="_top" xlink:title=" ">
<polygon fill="white" stroke="black" points="1067,-114.5 1067,-133.5 1125,-133.5 1125,-114.5 1067,-114.5"/>
<text text-anchor="middle" x="1096" y="-121.5" font-family="Helvetica,sans-Serif" font-size="10.00">copy2buff</text>
</a>
</g>
</g>
<!-- Node413&#45;&gt;Node414 -->
<g id="edge32" class="edge"><title>Node413&#45;&gt;Node414</title>
<path fill="none" stroke="midnightblue" d="M1003.79,-152.411C1019.95,-147.375 1039.91,-141.159 1057.03,-135.826"/>
<polygon fill="midnightblue" stroke="midnightblue" points="1058.23,-139.12 1066.73,-132.805 1056.14,-132.437 1058.23,-139.12"/>
</g>
<!-- Node416 -->
<g id="node31" class="node"><title>Node416</title>
<g id="a_node31"><a xlink:href="ltm_8c.html#addc61bf94c111c5a5bd3fe0032cb9be0" target="_top" xlink:title=" ">
<polygon fill="white" stroke="red" points="1049,-152.5 1049,-171.5 1143,-171.5 1143,-152.5 1049,-152.5"/>
<text text-anchor="middle" x="1096" y="-159.5" font-family="Helvetica,sans-Serif" font-size="10.00">luaT_tryconcatTM</text>
</a>
</g>
</g>
<!-- Node413&#45;&gt;Node416 -->
<g id="edge36" class="edge"><title>Node413&#45;&gt;Node416</title>
<path fill="none" stroke="midnightblue" d="M1007.63,-162C1017.35,-162 1028.17,-162 1038.8,-162"/>
<polygon fill="midnightblue" stroke="midnightblue" points="1038.88,-165.5 1048.88,-162 1038.88,-158.5 1038.88,-165.5"/>
</g>
<!-- Node466&#45;&gt;Node461 -->
<g id="edge38" class="edge"><title>Node466&#45;&gt;Node461</title>
<path fill="none" stroke="midnightblue" d="M1379.64,-242.375C1400.71,-229.412 1438.4,-206.214 1463.18,-190.965"/>
<polygon fill="midnightblue" stroke="midnightblue" points="1465.3,-193.769 1471.99,-185.547 1461.63,-187.808 1465.3,-193.769"/>
</g>
<!-- Node467&#45;&gt;Node40 -->
<g id="edge40" class="edge"><title>Node467&#45;&gt;Node40</title>
<path fill="none" stroke="midnightblue" d="M1384.67,-19.5405C1404.62,-28.7472 1435.03,-42.7847 1457.62,-53.2074"/>
<polygon fill="midnightblue" stroke="midnightblue" points="1456.22,-56.4156 1466.76,-57.4284 1459.15,-50.0599 1456.22,-56.4156"/>
</g>
<!-- Node468&#45;&gt;Node14 -->
<g id="edge42" class="edge"><title>Node468&#45;&gt;Node14</title>
<path fill="none" stroke="midnightblue" d="M873.37,-247.768C885.976,-259.892 908.823,-280.711 931,-295 933.567,-296.654 936.3,-298.252 939.086,-299.772"/>
<polygon fill="midnightblue" stroke="midnightblue" points="937.529,-302.906 948.028,-304.332 940.709,-296.67 937.529,-302.906"/>
</g>
<!-- Node468&#45;&gt;Node463 -->
<g id="edge43" class="edge"><title>Node468&#45;&gt;Node463</title>
<path fill="none" stroke="midnightblue" d="M890.627,-247.589C903.867,-252.269 919.992,-257.969 934.313,-263.032"/>
<polygon fill="midnightblue" stroke="midnightblue" points="933.287,-266.381 943.882,-266.414 935.62,-259.781 933.287,-266.381"/>
</g>
<!-- Node469 -->
<g id="node35" class="node"><title>Node469</title>
<g id="a_node35"><a xlink:href="lapi_8c.html#ab190c226d38b289e6ca57683a9d4e0f0" target="_top" xlink:title=" ">
<polygon fill="white" stroke="black" points="931,-76.5 931,-95.5 1013,-95.5 1013,-76.5 931,-76.5"/>
<text text-anchor="middle" x="972" y="-83.5" font-family="Helvetica,sans-Serif" font-size="10.00">lua_pushfstring</text>
</a>
</g>
</g>
<!-- Node468&#45;&gt;Node469 -->
<g id="edge44" class="edge"><title>Node468&#45;&gt;Node469</title>
<path fill="none" stroke="midnightblue" d="M870.225,-228.492C887.796,-203.647 935.304,-136.472 958.253,-104.024"/>
<polygon fill="midnightblue" stroke="midnightblue" points="961.361,-105.69 964.278,-95.5047 955.646,-101.648 961.361,-105.69"/>
</g>
<!-- Node469&#45;&gt;Node40 -->
<g id="edge45" class="edge"><title>Node469&#45;&gt;Node40</title>
<path fill="none" stroke="midnightblue" d="M1013.21,-82.5923C1024.76,-81.6769 1037.38,-80.7375 1049,-80 1169.34,-72.3651 1199.45,-69.8897 1320,-67 1357.25,-66.1071 1399.17,-66.108 1431.76,-66.3317"/>
<polygon fill="midnightblue" stroke="midnightblue" points="1431.97,-69.8333 1441.99,-66.4113 1432.02,-62.8335 1431.97,-69.8333"/>
</g>
<!-- Node470&#45;&gt;Node4 -->
<g id="edge48" class="edge"><title>Node470&#45;&gt;Node4</title>
<path fill="none" stroke="midnightblue" d="M772.529,-361.589C787.468,-366.359 805.723,-372.189 821.801,-377.323"/>
<polygon fill="midnightblue" stroke="midnightblue" points="820.89,-380.706 831.481,-380.414 823.019,-374.038 820.89,-380.706"/>
</g>
<!-- Node470&#45;&gt;Node14 -->
<g id="edge47" class="edge"><title>Node470&#45;&gt;Node14</title>
<path fill="none" stroke="midnightblue" d="M794.085,-344.224C823.654,-339.681 861.448,-333.73 895,-328 906.442,-326.046 918.83,-323.814 930.218,-321.715"/>
<polygon fill="midnightblue" stroke="midnightblue" points="931.147,-325.102 940.34,-319.836 929.869,-318.22 931.147,-325.102"/>
</g>
<!-- Node485 -->
<g id="node38" class="node"><title>Node485</title>
<g id="a_node38"><a xlink:href="lapi_8c.html#a7d64f87addab440bbda96bb088816e17" target="_top" xlink:title=" ">
<polygon fill="white" stroke="black" points="466.5,-266.5 466.5,-285.5 543.5,-285.5 543.5,-266.5 466.5,-266.5"/>
<text text-anchor="middle" x="505" y="-273.5" font-family="Helvetica,sans-Serif" font-size="10.00">lua_typename</text>
</a>
</g>
</g>
<!-- Node484&#45;&gt;Node485 -->
<g id="edge50" class="edge"><title>Node484&#45;&gt;Node485</title>
<path fill="none" stroke="midnightblue" d="M420.628,-304.801C434.502,-300.008 451.693,-294.07 466.854,-288.832"/>
<polygon fill="midnightblue" stroke="midnightblue" points="468.159,-292.084 476.469,-285.511 465.874,-285.468 468.159,-292.084"/>
</g>
<!-- Node486 -->
<g id="node39" class="node"><title>Node486</title>
<g id="a_node39"><a xlink:href="lauxlib_8c.html#ab8ddc4ac13516f3548a6c102dd6fa114" target="_top" xlink:title=" ">
<polygon fill="white" stroke="red" points="466,-304.5 466,-323.5 544,-323.5 544,-304.5 466,-304.5"/>
<text text-anchor="middle" x="505" y="-311.5" font-family="Helvetica,sans-Serif" font-size="10.00">luaL_typeerror</text>
</a>
</g>
</g>
<!-- Node484&#45;&gt;Node486 -->
<g id="edge51" class="edge"><title>Node484&#45;&gt;Node486</title>
<path fill="none" stroke="midnightblue" d="M420.628,-314C431.258,-314 443.836,-314 455.956,-314"/>
<polygon fill="midnightblue" stroke="midnightblue" points="455.976,-317.5 465.976,-314 455.976,-310.5 455.976,-317.5"/>
</g>
<!-- Node486&#45;&gt;Node13 -->
<g id="edge53" class="edge"><title>Node486&#45;&gt;Node13</title>
<path fill="none" stroke="midnightblue" d="M544.298,-314C552.541,-314 561.332,-314 569.824,-314"/>
<polygon fill="midnightblue" stroke="midnightblue" points="569.977,-317.5 579.977,-314 569.977,-310.5 569.977,-317.5"/>
</g>
<!-- Node486&#45;&gt;Node469 -->
<g id="edge52" class="edge"><title>Node486&#45;&gt;Node469</title>
<path fill="none" stroke="midnightblue" d="M527.897,-304.353C533.329,-301.612 539.018,-298.43 544,-295 616.028,-245.41 612.373,-204.136 689,-162 763.817,-120.859 862.22,-100.959 920.81,-92.1558"/>
<polygon fill="midnightblue" stroke="midnightblue" points="921.526,-95.5886 930.919,-90.688 920.52,-88.6612 921.526,-95.5886"/>
</g>
<!-- Node491&#45;&gt;Node8 -->
<g id="edge55" class="edge"><title>Node491&#45;&gt;Node8</title>
<path fill="none" stroke="midnightblue" d="M320.074,-253.777C359.134,-250.426 420.172,-245.191 461.099,-241.68"/>
<polygon fill="midnightblue" stroke="midnightblue" points="461.638,-245.147 471.302,-240.805 461.039,-238.172 461.638,-245.147"/>
</g>
<!-- Node493 -->
<g id="node42" class="node"><title>Node493</title>
<g id="a_node42"><a xlink:href="lmathlib_8c.html#a5fe860c78def6ac52bd99153df082c3e" target="_top" xlink:title=" ">
<polygon fill="white" stroke="black" points="489,-494.5 489,-513.5 521,-513.5 521,-494.5 489,-494.5"/>
<text text-anchor="middle" x="505" y="-501.5" font-family="Helvetica,sans-Serif" font-size="10.00">Ishl</text>
</a>
</g>
</g>
<!-- Node492&#45;&gt;Node493 -->
<g id="edge58" class="edge"><title>Node492&#45;&gt;Node493</title>
<path fill="none" stroke="midnightblue" d="M307.088,-475.502C311.764,-478.085 316.334,-481.235 320,-485 346.075,-511.778 324.417,-541.013 356,-561 383.791,-578.587 398.866,-571.601 430,-561 453.099,-553.135 474.609,-534.824 488.418,-521.063"/>
<polygon fill="midnightblue" stroke="midnightblue" points="491.192,-523.229 495.613,-513.601 486.152,-518.371 491.192,-523.229"/>
</g>
<!-- Node495 -->
<g id="node44" class="node"><title>Node495</title>
<g id="a_node44"><a xlink:href="lmathlib_8c.html#ac269f9bd785360abe156ba7c7cc67e21" target="_top" xlink:title=" ">
<polygon fill="white" stroke="black" points="377,-532.5 377,-551.5 409,-551.5 409,-532.5 377,-532.5"/>
<text text-anchor="middle" x="393" y="-539.5" font-family="Helvetica,sans-Serif" font-size="10.00">Ixor</text>
</a>
</g>
</g>
<!-- Node492&#45;&gt;Node495 -->
<g id="edge60" class="edge"><title>Node492&#45;&gt;Node495</title>
<path fill="none" stroke="midnightblue" d="M304.665,-475.644C309.902,-478.346 315.319,-481.51 320,-485 338.651,-498.906 337.466,-508.939 356,-523 359.711,-525.815 363.897,-528.44 368.068,-530.786"/>
<polygon fill="midnightblue" stroke="midnightblue" points="366.499,-533.915 376.983,-535.442 369.739,-527.711 366.499,-533.915"/>
</g>
<!-- Node496 -->
<g id="node45" class="node"><title>Node496</title>
<g id="a_node45"><a xlink:href="lmathlib_8c.html#af6d2c0cbed4c44224dc80230279c1b5d" target="_top" xlink:title=" ">
<polygon fill="white" stroke="black" points="490,-570.5 490,-589.5 520,-589.5 520,-570.5 490,-570.5"/>
<text text-anchor="middle" x="505" y="-577.5" font-family="Helvetica,sans-Serif" font-size="10.00">rotl</text>
</a>
</g>
</g>
<!-- Node492&#45;&gt;Node496 -->
<g id="edge61" class="edge"><title>Node492&#45;&gt;Node496</title>
<path fill="none" stroke="midnightblue" d="M308.101,-475.718C312.482,-478.238 316.683,-481.308 320,-485 350.179,-518.585 318.844,-554.346 356,-580 393.044,-605.577 448.7,-596.146 480.145,-587.645"/>
<polygon fill="midnightblue" stroke="midnightblue" points="481.183,-590.988 489.818,-584.849 479.24,-584.263 481.183,-590.988"/>
</g>
<!-- Node497 -->
<g id="node46" class="node"><title>Node497</title>
<g id="a_node46"><a xlink:href="lmathlib_8c.html#a0a2a1bbd027f6e376a7043e2bdab7870" target="_top" xlink:title=" ">
<polygon fill="white" stroke="black" points="375.5,-418.5 375.5,-437.5 410.5,-437.5 410.5,-418.5 375.5,-418.5"/>
<text text-anchor="middle" x="393" y="-425.5" font-family="Helvetica,sans-Serif" font-size="10.00">rotl1</text>
</a>
</g>
</g>
<!-- Node492&#45;&gt;Node497 -->
<g id="edge63" class="edge"><title>Node492&#45;&gt;Node497</title>
<path fill="none" stroke="midnightblue" d="M308.728,-456.898C325.97,-450.914 348.449,-443.114 365.705,-437.125"/>
<polygon fill="midnightblue" stroke="midnightblue" points="366.882,-440.422 375.182,-433.836 364.587,-433.808 366.882,-440.422"/>
</g>
<!-- Node498 -->
<g id="node47" class="node"><title>Node498</title>
<g id="a_node47"><a xlink:href="lmathlib_8c.html#a4708082c07e59916317e3baf2204504a" target="_top" xlink:title=" ">
<polygon fill="white" stroke="black" points="370,-494.5 370,-513.5 416,-513.5 416,-494.5 370,-494.5"/>
<text text-anchor="middle" x="393" y="-501.5" font-family="Helvetica,sans-Serif" font-size="10.00">times5</text>
</a>
</g>
</g>
<!-- Node492&#45;&gt;Node498 -->
<g id="edge65" class="edge"><title>Node492&#45;&gt;Node498</title>
<path fill="none" stroke="midnightblue" d="M308.728,-475.102C324.132,-480.448 343.716,-487.244 360.021,-492.902"/>
<polygon fill="midnightblue" stroke="midnightblue" points="359.088,-496.283 369.683,-496.255 361.383,-489.67 359.088,-496.283"/>
</g>
<!-- Node500 -->
<g id="node49" class="node"><title>Node500</title>
<g id="a_node49"><a xlink:href="lmathlib_8c.html#a8276cb06bf824ed1d39fa2f3f0db6968" target="_top" xlink:title=" ">
<polygon fill="white" stroke="black" points="370,-456.5 370,-475.5 416,-475.5 416,-456.5 370,-456.5"/>
<text text-anchor="middle" x="393" y="-463.5" font-family="Helvetica,sans-Serif" font-size="10.00">times9</text>
</a>
</g>
</g>
<!-- Node492&#45;&gt;Node500 -->
<g id="edge69" class="edge"><title>Node492&#45;&gt;Node500</title>
<path fill="none" stroke="midnightblue" d="M308.728,-466C323.987,-466 343.347,-466 359.559,-466"/>
<polygon fill="midnightblue" stroke="midnightblue" points="359.683,-469.5 369.683,-466 359.683,-462.5 359.683,-469.5"/>
</g>
<!-- Node494 -->
<g id="node43" class="node"><title>Node494</title>
<g id="a_node43"><a xlink:href="lmathlib_8c.html#a43beb45c0b29c5e7a866b193d6b8c546" target="_top" xlink:title=" ">
<polygon fill="white" stroke="black" points="596.5,-475.5 596.5,-494.5 636.5,-494.5 636.5,-475.5 596.5,-475.5"/>
<text text-anchor="middle" x="616.5" y="-482.5" font-family="Helvetica,sans-Serif" font-size="10.00">packI</text>
</a>
</g>
</g>
<!-- Node493&#45;&gt;Node494 -->
<g id="edge59" class="edge"><title>Node493&#45;&gt;Node494</title>
<path fill="none" stroke="midnightblue" d="M521.226,-501.358C538.016,-498.445 565.426,-493.689 586.374,-490.054"/>
<polygon fill="midnightblue" stroke="midnightblue" points="587.102,-493.48 596.356,-488.322 585.905,-486.583 587.102,-493.48"/>
</g>
<!-- Node496&#45;&gt;Node494 -->
<g id="edge62" class="edge"><title>Node496&#45;&gt;Node494</title>
<path fill="none" stroke="midnightblue" d="M517.306,-570.191C536.091,-553.894 573.92,-521.074 596.749,-501.268"/>
<polygon fill="midnightblue" stroke="midnightblue" points="599.159,-503.811 604.419,-494.614 594.571,-498.524 599.159,-503.811"/>
</g>
<!-- Node497&#45;&gt;Node494 -->
<g id="edge64" class="edge"><title>Node497&#45;&gt;Node494</title>
<path fill="none" stroke="midnightblue" d="M410.62,-428.161C438.741,-428.859 497.212,-432.154 544,-447 561.092,-452.423 578.904,-461.877 592.474,-469.998"/>
<polygon fill="midnightblue" stroke="midnightblue" points="590.782,-473.067 601.13,-475.341 594.459,-467.11 590.782,-473.067"/>
</g>
<!-- Node498&#45;&gt;Node493 -->
<g id="edge68" class="edge"><title>Node498&#45;&gt;Node493</title>
<path fill="none" stroke="midnightblue" d="M416.26,-504C434.313,-504 459.764,-504 478.609,-504"/>
<polygon fill="midnightblue" stroke="midnightblue" points="478.835,-507.5 488.835,-504 478.835,-500.5 478.835,-507.5"/>
</g>
<!-- Node499 -->
<g id="node48" class="node"><title>Node499</title>
<g id="a_node48"><a xlink:href="lmathlib_8c.html#a0f8118bb9ab66c0fee78e5bf183d436f" target="_top" xlink:title=" ">
<polygon fill="white" stroke="black" points="487.5,-456.5 487.5,-475.5 522.5,-475.5 522.5,-456.5 487.5,-456.5"/>
<text text-anchor="middle" x="505" y="-463.5" font-family="Helvetica,sans-Serif" font-size="10.00">Iadd</text>
</a>
</g>
</g>
<!-- Node498&#45;&gt;Node499 -->
<g id="edge66" class="edge"><title>Node498&#45;&gt;Node499</title>
<path fill="none" stroke="midnightblue" d="M416.26,-496.31C433.952,-490.198 458.749,-481.632 477.471,-475.165"/>
<polygon fill="midnightblue" stroke="midnightblue" points="478.853,-478.39 487.162,-471.817 476.568,-471.774 478.853,-478.39"/>
</g>
<!-- Node499&#45;&gt;Node494 -->
<g id="edge67" class="edge"><title>Node499&#45;&gt;Node494</title>
<path fill="none" stroke="midnightblue" d="M522.631,-468.886C539.443,-471.803 565.777,-476.372 586.116,-479.901"/>
<polygon fill="midnightblue" stroke="midnightblue" points="585.671,-483.376 596.123,-481.638 586.868,-476.48 585.671,-483.376"/>
</g>
<!-- Node500&#45;&gt;Node493 -->
<g id="edge71" class="edge"><title>Node500&#45;&gt;Node493</title>
<path fill="none" stroke="midnightblue" d="M416.26,-473.69C434.481,-479.985 460.241,-488.883 479.135,-495.41"/>
<polygon fill="midnightblue" stroke="midnightblue" points="478.24,-498.804 488.835,-498.761 480.526,-492.188 478.24,-498.804"/>
</g>
<!-- Node500&#45;&gt;Node499 -->
<g id="edge70" class="edge"><title>Node500&#45;&gt;Node499</title>
<path fill="none" stroke="midnightblue" d="M416.26,-466C433.788,-466 458.291,-466 476.949,-466"/>
<polygon fill="midnightblue" stroke="midnightblue" points="477.162,-469.5 487.162,-466 477.162,-462.5 477.162,-469.5"/>
</g>
<!-- Node501&#45;&gt;Node3 -->
<g id="edge73" class="edge"><title>Node501&#45;&gt;Node3</title>
<path fill="none" stroke="midnightblue" d="M182.51,-472.97C201.698,-479.046 229.693,-487.911 250.852,-494.611"/>
<polygon fill="midnightblue" stroke="midnightblue" points="250.031,-498.023 260.621,-497.705 252.145,-491.349 250.031,-498.023"/>
</g>
<!-- Node501&#45;&gt;Node492 -->
<g id="edge74" class="edge"><title>Node501&#45;&gt;Node492</title>
<path fill="none" stroke="midnightblue" d="M182.51,-466C199.795,-466 224.227,-466 244.37,-466"/>
<polygon fill="midnightblue" stroke="midnightblue" points="244.453,-469.5 254.453,-466 244.453,-462.5 244.453,-469.5"/>
</g>
</g>
</svg>
