<?xml version="1.0" encoding="UTF-8" standalone="no"?>
<!DOCTYPE svg PUBLIC "-//W3C//DTD SVG 1.1//EN"
 "http://www.w3.org/Graphics/SVG/1.1/DTD/svg11.dtd">
<!-- Generated by graphviz version 2.38.0 (20140413.2041)
 -->
<!-- Title: project Pages: 1 -->
<svg width="373pt" height="196pt"
 viewBox="0.00 0.00 373.00 195.61" xmlns="http://www.w3.org/2000/svg" xmlns:xlink="http://www.w3.org/1999/xlink">
<g id="graph0" class="graph" transform="scale(1 1) rotate(0) translate(4 191.607)">
<title>project</title>
<polygon fill="white" stroke="none" points="-4,4 -4,-191.607 369,-191.607 369,4 -4,4"/>
<!-- Node1 -->
<g id="node1" class="node"><title>Node1</title>
<g id="a_node1"><a xlink:title=" ">
<polygon fill="#bfbfbf" stroke="black" points="0,-114.5 0,-133.5 46,-133.5 46,-114.5 0,-114.5"/>
<text text-anchor="middle" x="23" y="-121.5" font-family="Helvetica,sans-Serif" font-size="10.00">project</text>
</a>
</g>
</g>
<!-- Node2 -->
<g id="node2" class="node"><title>Node2</title>
<g id="a_node2"><a xlink:href="lmathlib_8c.html#a00b4573721dbfd08d584b34a7e1722db" target="_top" xlink:title=" ">
<polygon fill="white" stroke="black" points="88.5,-133.5 88.5,-152.5 129.5,-152.5 129.5,-133.5 88.5,-133.5"/>
<text text-anchor="middle" x="109" y="-140.5" font-family="Helvetica,sans-Serif" font-size="10.00">I2UInt</text>
</a>
</g>
</g>
<!-- Node1&#45;&gt;Node2 -->
<g id="edge1" class="edge"><title>Node1&#45;&gt;Node2</title>
<path fill="none" stroke="midnightblue" d="M46.07,-128.992C56.0158,-131.242 67.9028,-133.93 78.591,-136.348"/>
<polygon fill="midnightblue" stroke="midnightblue" points="77.8429,-139.767 88.3687,-138.56 79.3873,-132.94 77.8429,-139.767"/>
</g>
<!-- Node3 -->
<g id="node3" class="node"><title>Node3</title>
<g id="a_node3"><a xlink:href="lmathlib_8c.html#ac01956e1f85c57f7781d256db3d76886" target="_top" xlink:title=" ">
<polygon fill="white" stroke="black" points="82,-95.5 82,-114.5 136,-114.5 136,-95.5 82,-95.5"/>
<text text-anchor="middle" x="109" y="-102.5" font-family="Helvetica,sans-Serif" font-size="10.00">nextrand</text>
</a>
</g>
</g>
<!-- Node1&#45;&gt;Node3 -->
<g id="edge2" class="edge"><title>Node1&#45;&gt;Node3</title>
<path fill="none" stroke="midnightblue" d="M46.07,-119.008C54.0517,-117.203 63.2836,-115.114 72.1428,-113.111"/>
<polygon fill="midnightblue" stroke="midnightblue" points="72.9189,-116.524 81.9003,-110.904 71.3745,-109.696 72.9189,-116.524"/>
</g>
<!-- Node4 -->
<g id="node4" class="node"><title>Node4</title>
<g id="a_node4"><a xlink:href="lmathlib_8c.html#a5fe860c78def6ac52bd99153df082c3e" target="_top" xlink:title=" ">
<polygon fill="white" stroke="black" points="255.5,-152.5 255.5,-171.5 287.5,-171.5 287.5,-152.5 255.5,-152.5"/>
<text text-anchor="middle" x="271.5" y="-159.5" font-family="Helvetica,sans-Serif" font-size="10.00">Ishl</text>
</a>
</g>
</g>
<!-- Node3&#45;&gt;Node4 -->
<g id="edge3" class="edge"><title>Node3&#45;&gt;Node4</title>
<path fill="none" stroke="midnightblue" d="M125.097,-114.559C128.892,-117.344 132.794,-120.569 136,-124 156.457,-145.893 145.759,-166.537 172,-181 195.043,-193.7 225.192,-184.794 246.036,-175.36"/>
<polygon fill="midnightblue" stroke="midnightblue" points="247.708,-178.439 255.174,-170.921 244.649,-172.142 247.708,-178.439"/>
</g>
<!-- Node6 -->
<g id="node6" class="node"><title>Node6</title>
<g id="a_node6"><a xlink:href="lmathlib_8c.html#ac269f9bd785360abe156ba7c7cc67e21" target="_top" xlink:title=" ">
<polygon fill="white" stroke="black" points="179,-0.5 179,-19.5 211,-19.5 211,-0.5 179,-0.5"/>
<text text-anchor="middle" x="195" y="-7.5" font-family="Helvetica,sans-Serif" font-size="10.00">Ixor</text>
</a>
</g>
</g>
<!-- Node3&#45;&gt;Node6 -->
<g id="edge5" class="edge"><title>Node3&#45;&gt;Node6</title>
<path fill="none" stroke="midnightblue" d="M118.35,-95.2887C130.19,-81.5542 152.577,-55.7084 172,-34 173.979,-31.7885 176.071,-29.4747 178.147,-27.1935"/>
<polygon fill="midnightblue" stroke="midnightblue" points="180.782,-29.4985 184.955,-19.76 175.62,-24.7708 180.782,-29.4985"/>
</g>
<!-- Node7 -->
<g id="node7" class="node"><title>Node7</title>
<g id="a_node7"><a xlink:href="lmathlib_8c.html#af6d2c0cbed4c44224dc80230279c1b5d" target="_top" xlink:title=" ">
<polygon fill="white" stroke="black" points="256.5,-76.5 256.5,-95.5 286.5,-95.5 286.5,-76.5 256.5,-76.5"/>
<text text-anchor="middle" x="271.5" y="-83.5" font-family="Helvetica,sans-Serif" font-size="10.00">rotl</text>
</a>
</g>
</g>
<!-- Node3&#45;&gt;Node7 -->
<g id="edge6" class="edge"><title>Node3&#45;&gt;Node7</title>
<path fill="none" stroke="midnightblue" d="M136.144,-101.905C166.548,-98.3059 216.344,-92.4109 246.019,-88.8981"/>
<polygon fill="midnightblue" stroke="midnightblue" points="246.805,-92.3296 256.324,-87.6782 245.982,-85.3781 246.805,-92.3296"/>
</g>
<!-- Node8 -->
<g id="node8" class="node"><title>Node8</title>
<g id="a_node8"><a xlink:href="lmathlib_8c.html#a0a2a1bbd027f6e376a7043e2bdab7870" target="_top" xlink:title=" ">
<polygon fill="white" stroke="black" points="254,-38.5 254,-57.5 289,-57.5 289,-38.5 254,-38.5"/>
<text text-anchor="middle" x="271.5" y="-45.5" font-family="Helvetica,sans-Serif" font-size="10.00">rotl1</text>
</a>
</g>
</g>
<!-- Node3&#45;&gt;Node8 -->
<g id="edge8" class="edge"><title>Node3&#45;&gt;Node8</title>
<path fill="none" stroke="midnightblue" d="M136.144,-95.7151C165.862,-85.1612 214.108,-68.0269 243.981,-57.418"/>
<polygon fill="midnightblue" stroke="midnightblue" points="245.468,-60.604 253.72,-53.9592 243.125,-54.0077 245.468,-60.604"/>
</g>
<!-- Node9 -->
<g id="node9" class="node"><title>Node9</title>
<g id="a_node9"><a xlink:href="lmathlib_8c.html#a4708082c07e59916317e3baf2204504a" target="_top" xlink:title=" ">
<polygon fill="white" stroke="black" points="172,-152.5 172,-171.5 218,-171.5 218,-152.5 172,-152.5"/>
<text text-anchor="middle" x="195" y="-159.5" font-family="Helvetica,sans-Serif" font-size="10.00">times5</text>
</a>
</g>
</g>
<!-- Node3&#45;&gt;Node9 -->
<g id="edge10" class="edge"><title>Node3&#45;&gt;Node9</title>
<path fill="none" stroke="midnightblue" d="M124.249,-114.669C137.119,-123.402 156.28,-136.404 171.264,-146.572"/>
<polygon fill="midnightblue" stroke="midnightblue" points="169.721,-149.755 179.961,-152.474 173.651,-143.962 169.721,-149.755"/>
</g>
<!-- Node11 -->
<g id="node11" class="node"><title>Node11</title>
<g id="a_node11"><a xlink:href="lmathlib_8c.html#a8276cb06bf824ed1d39fa2f3f0db6968" target="_top" xlink:title=" ">
<polygon fill="white" stroke="black" points="172,-114.5 172,-133.5 218,-133.5 218,-114.5 172,-114.5"/>
<text text-anchor="middle" x="195" y="-121.5" font-family="Helvetica,sans-Serif" font-size="10.00">times9</text>
</a>
</g>
</g>
<!-- Node3&#45;&gt;Node11 -->
<g id="edge14" class="edge"><title>Node3&#45;&gt;Node11</title>
<path fill="none" stroke="midnightblue" d="M136.118,-110.908C144.267,-112.751 153.351,-114.806 161.863,-116.731"/>
<polygon fill="midnightblue" stroke="midnightblue" points="161.334,-120.2 171.86,-118.992 162.878,-113.372 161.334,-120.2"/>
</g>
<!-- Node5 -->
<g id="node5" class="node"><title>Node5</title>
<g id="a_node5"><a xlink:href="lmathlib_8c.html#a43beb45c0b29c5e7a866b193d6b8c546" target="_top" xlink:title=" ">
<polygon fill="white" stroke="black" points="325,-95.5 325,-114.5 365,-114.5 365,-95.5 325,-95.5"/>
<text text-anchor="middle" x="345" y="-102.5" font-family="Helvetica,sans-Serif" font-size="10.00">packI</text>
</a>
</g>
</g>
<!-- Node4&#45;&gt;Node5 -->
<g id="edge4" class="edge"><title>Node4&#45;&gt;Node5</title>
<path fill="none" stroke="midnightblue" d="M284.629,-152.331C295.376,-143.763 311.279,-131.085 323.922,-121.006"/>
<polygon fill="midnightblue" stroke="midnightblue" points="326.413,-123.497 332.05,-114.526 322.049,-118.023 326.413,-123.497"/>
</g>
<!-- Node7&#45;&gt;Node5 -->
<g id="edge7" class="edge"><title>Node7&#45;&gt;Node5</title>
<path fill="none" stroke="midnightblue" d="M286.626,-89.7538C294.721,-91.9049 305.186,-94.6857 314.957,-97.2822"/>
<polygon fill="midnightblue" stroke="midnightblue" points="314.196,-100.702 324.76,-99.8873 315.994,-93.9364 314.196,-100.702"/>
</g>
<!-- Node8&#45;&gt;Node5 -->
<g id="edge9" class="edge"><title>Node8&#45;&gt;Node5</title>
<path fill="none" stroke="midnightblue" d="M284.629,-57.6693C295.376,-66.2372 311.279,-78.9149 323.922,-88.9936"/>
<polygon fill="midnightblue" stroke="midnightblue" points="322.049,-91.9767 332.05,-95.4735 326.413,-86.5031 322.049,-91.9767"/>
</g>
<!-- Node9&#45;&gt;Node4 -->
<g id="edge13" class="edge"><title>Node9&#45;&gt;Node4</title>
<path fill="none" stroke="midnightblue" d="M218.352,-162C226.884,-162 236.665,-162 245.433,-162"/>
<polygon fill="midnightblue" stroke="midnightblue" points="245.474,-165.5 255.474,-162 245.474,-158.5 245.474,-165.5"/>
</g>
<!-- Node10 -->
<g id="node10" class="node"><title>Node10</title>
<g id="a_node10"><a xlink:href="lmathlib_8c.html#a0f8118bb9ab66c0fee78e5bf183d436f" target="_top" xlink:title=" ">
<polygon fill="white" stroke="black" points="254,-114.5 254,-133.5 289,-133.5 289,-114.5 254,-114.5"/>
<text text-anchor="middle" x="271.5" y="-121.5" font-family="Helvetica,sans-Serif" font-size="10.00">Iadd</text>
</a>
</g>
</g>
<!-- Node9&#45;&gt;Node10 -->
<g id="edge11" class="edge"><title>Node9&#45;&gt;Node10</title>
<path fill="none" stroke="midnightblue" d="M214.799,-152.411C223.946,-147.746 235.078,-142.068 244.979,-137.018"/>
<polygon fill="midnightblue" stroke="midnightblue" points="246.671,-140.083 253.989,-132.422 243.491,-133.848 246.671,-140.083"/>
</g>
<!-- Node10&#45;&gt;Node5 -->
<g id="edge12" class="edge"><title>Node10&#45;&gt;Node5</title>
<path fill="none" stroke="midnightblue" d="M289.083,-119.593C296.876,-117.522 306.395,-114.993 315.304,-112.625"/>
<polygon fill="midnightblue" stroke="midnightblue" points="316.214,-116.005 324.98,-110.054 314.417,-109.24 316.214,-116.005"/>
</g>
<!-- Node11&#45;&gt;Node4 -->
<g id="edge16" class="edge"><title>Node11&#45;&gt;Node4</title>
<path fill="none" stroke="midnightblue" d="M214.799,-133.589C224.338,-138.454 236.036,-144.421 246.245,-149.628"/>
<polygon fill="midnightblue" stroke="midnightblue" points="244.959,-152.901 255.457,-154.327 248.14,-146.666 244.959,-152.901"/>
</g>
<!-- Node11&#45;&gt;Node10 -->
<g id="edge15" class="edge"><title>Node11&#45;&gt;Node10</title>
<path fill="none" stroke="midnightblue" d="M218.352,-124C226.22,-124 235.149,-124 243.367,-124"/>
<polygon fill="midnightblue" stroke="midnightblue" points="243.612,-127.5 253.612,-124 243.612,-120.5 243.612,-127.5"/>
</g>
</g>
</svg>
