<?xml version="1.0" encoding="UTF-8" standalone="no"?>
<!DOCTYPE svg PUBLIC "-//W3C//DTD SVG 1.1//EN"
 "http://www.w3.org/Graphics/SVG/1.1/DTD/svg11.dtd">
<!-- Generated by graphviz version 2.38.0 (20140413.2041)
 -->
<!-- Title: getbuff Pages: 1 -->
<svg width="776pt" height="1576pt"
 viewBox="0.00 0.00 776.00 1575.66" xmlns="http://www.w3.org/2000/svg" xmlns:xlink="http://www.w3.org/1999/xlink">
<g id="graph0" class="graph" transform="scale(1 1) rotate(0) translate(4 1571.66)">
<title>getbuff</title>
<polygon fill="white" stroke="none" points="-4,4 -4,-1571.66 772,-1571.66 772,4 -4,4"/>
<!-- Node1 -->
<g id="node1" class="node"><title>Node1</title>
<g id="a_node1"><a xlink:title=" ">
<polygon fill="#bfbfbf" stroke="black" points="723,-380.5 723,-399.5 768,-399.5 768,-380.5 723,-380.5"/>
<text text-anchor="middle" x="745.5" y="-387.5" font-family="Helvetica,sans-Serif" font-size="10.00">getbuff</text>
</a>
</g>
</g>
<!-- Node2 -->
<g id="node2" class="node"><title>Node2</title>
<g id="a_node2"><a xlink:href="lobject_8c.html#a1d02fb9304e4700ce1fd20e34ae68784" target="_top" xlink:title=" ">
<polygon fill="white" stroke="black" points="616,-418.5 616,-437.5 687,-437.5 687,-418.5 616,-418.5"/>
<text text-anchor="middle" x="651.5" y="-425.5" font-family="Helvetica,sans-Serif" font-size="10.00">addnum2buff</text>
</a>
</g>
</g>
<!-- Node1&#45;&gt;Node2 -->
<g id="edge1" class="edge"><title>Node1&#45;&gt;Node2</title>
<path fill="none" stroke="midnightblue" d="M713.262,-402.903C700.98,-407.976 687.128,-413.697 675.754,-418.395"/>
<polygon fill="midnightblue" stroke="midnightblue" points="714.791,-406.058 722.697,-399.005 712.118,-399.588 714.791,-406.058"/>
</g>
<!-- Node3 -->
<g id="node3" class="node"><title>Node3</title>
<g id="a_node3"><a xlink:href="lobject_8h.html#a0d323372aa00f179e1c070d305f879f3" target="_top" xlink:title=" ">
<polygon fill="white" stroke="black" points="487,-380.5 487,-399.5 580,-399.5 580,-380.5 487,-380.5"/>
<text text-anchor="middle" x="533.5" y="-387.5" font-family="Helvetica,sans-Serif" font-size="10.00">luaO_pushvfstring</text>
</a>
</g>
</g>
<!-- Node1&#45;&gt;Node3 -->
<g id="edge61" class="edge"><title>Node1&#45;&gt;Node3</title>
<path fill="none" stroke="midnightblue" d="M712.629,-390C677.406,-390 620.372,-390 580.352,-390"/>
<polygon fill="midnightblue" stroke="midnightblue" points="712.817,-393.5 722.817,-390 712.817,-386.5 712.817,-393.5"/>
</g>
<!-- Node364 -->
<g id="node50" class="node"><title>Node364</title>
<g id="a_node50"><a xlink:href="lobject_8c.html#a874ab64f433ee35f2197a81e10452cb1" target="_top" xlink:title=" ">
<polygon fill="white" stroke="black" points="619.5,-342.5 619.5,-361.5 683.5,-361.5 683.5,-342.5 619.5,-342.5"/>
<text text-anchor="middle" x="651.5" y="-349.5" font-family="Helvetica,sans-Serif" font-size="10.00">addstr2buff</text>
</a>
</g>
</g>
<!-- Node1&#45;&gt;Node364 -->
<g id="edge59" class="edge"><title>Node1&#45;&gt;Node364</title>
<path fill="none" stroke="midnightblue" d="M713.262,-377.097C700.98,-372.024 687.128,-366.303 675.754,-361.605"/>
<polygon fill="midnightblue" stroke="midnightblue" points="712.118,-380.412 722.697,-380.995 714.791,-373.942 712.118,-380.412"/>
</g>
<!-- Node2&#45;&gt;Node3 -->
<g id="edge2" class="edge"><title>Node2&#45;&gt;Node3</title>
<path fill="none" stroke="midnightblue" d="M611.347,-415.174C595.782,-410.075 578.186,-404.311 563.762,-399.586"/>
<polygon fill="midnightblue" stroke="midnightblue" points="610.636,-418.624 621.228,-418.411 612.815,-411.972 610.636,-418.624"/>
</g>
<!-- Node4 -->
<g id="node4" class="node"><title>Node4</title>
<g id="a_node4"><a xlink:href="lua_8h.html#af4a7bd8fa65e507e36aff61af8db117d" target="_top" xlink:title=" ">
<polygon fill="white" stroke="black" points="365.5,-1102.5 365.5,-1121.5 447.5,-1121.5 447.5,-1102.5 365.5,-1102.5"/>
<text text-anchor="middle" x="406.5" y="-1109.5" font-family="Helvetica,sans-Serif" font-size="10.00">lua_pushfstring</text>
</a>
</g>
</g>
<!-- Node3&#45;&gt;Node4 -->
<g id="edge3" class="edge"><title>Node3&#45;&gt;Node4</title>
<path fill="none" stroke="midnightblue" d="M529.086,-409.717C510.557,-516.741 422.408,-1025.89 409.167,-1102.37"/>
<polygon fill="midnightblue" stroke="midnightblue" points="532.57,-410.111 530.827,-399.66 525.673,-408.917 532.57,-410.111"/>
</g>
<!-- Node271 -->
<g id="node28" class="node"><title>Node271</title>
<g id="a_node28"><a xlink:href="lua_8h.html#a13fb1100c2e3942aa6c69baaf7e3f7cd" target="_top" xlink:title=" ">
<polygon fill="white" stroke="black" points="363.5,-1349.5 363.5,-1368.5 449.5,-1368.5 449.5,-1349.5 363.5,-1349.5"/>
<text text-anchor="middle" x="406.5" y="-1356.5" font-family="Helvetica,sans-Serif" font-size="10.00">lua_pushvfstring</text>
</a>
</g>
</g>
<!-- Node3&#45;&gt;Node271 -->
<g id="edge32" class="edge"><title>Node3&#45;&gt;Node271</title>
<path fill="none" stroke="midnightblue" d="M530.9,-409.813C523.826,-495.895 493.808,-845.895 451,-1131 438.195,-1216.28 416.401,-1318.31 409.594,-1349.49"/>
<polygon fill="midnightblue" stroke="midnightblue" points="534.404,-409.899 531.729,-399.648 527.428,-409.33 534.404,-409.899"/>
</g>
<!-- Node272 -->
<g id="node29" class="node"><title>Node272</title>
<g id="a_node29"><a xlink:href="ldebug_8h.html#a6f27f64630215e18a11be9ba21d3c4bf" target="_top" xlink:title=" ">
<polygon fill="white" stroke="black" points="369,-380.5 369,-399.5 444,-399.5 444,-380.5 369,-380.5"/>
<text text-anchor="middle" x="406.5" y="-387.5" font-family="Helvetica,sans-Serif" font-size="10.00">luaG_runerror</text>
</a>
</g>
</g>
<!-- Node3&#45;&gt;Node272 -->
<g id="edge34" class="edge"><title>Node3&#45;&gt;Node272</title>
<path fill="none" stroke="midnightblue" d="M476.373,-383.281C465.511,-383.174 454.389,-383.342 444.339,-383.783"/>
<polygon fill="midnightblue" stroke="midnightblue" points="476.603,-386.786 486.664,-383.468 476.73,-379.787 476.603,-386.786"/>
</g>
<!-- Node650 -->
<g id="node49" class="node"><title>Node650</title>
<g id="a_node49"><a xlink:href="lobject_8h.html#a8622279ff260ff226d9663c85ca467dd" target="_top" xlink:title=" ">
<polygon fill="white" stroke="red" points="362,-342.5 362,-361.5 451,-361.5 451,-342.5 362,-342.5"/>
<text text-anchor="middle" x="406.5" y="-349.5" font-family="Helvetica,sans-Serif" font-size="10.00">luaO_pushfstring</text>
</a>
</g>
</g>
<!-- Node3&#45;&gt;Node650 -->
<g id="edge58" class="edge"><title>Node3&#45;&gt;Node650</title>
<path fill="none" stroke="midnightblue" d="M491.265,-377.465C474.261,-372.295 454.871,-366.401 439.033,-361.586"/>
<polygon fill="midnightblue" stroke="midnightblue" points="490.372,-380.851 500.957,-380.411 492.408,-374.154 490.372,-380.851"/>
</g>
<!-- Node5 -->
<g id="node5" class="node"><title>Node5</title>
<g id="a_node5"><a xlink:href="lua_8c.html#abe2d2b9101fdac08fba2d071fde373f7" target="_top" xlink:title=" ">
<polygon fill="white" stroke="red" points="249,-950.5 249,-969.5 306,-969.5 306,-950.5 249,-950.5"/>
<text text-anchor="middle" x="277.5" y="-957.5" font-family="Helvetica,sans-Serif" font-size="10.00">addreturn</text>
</a>
</g>
</g>
<!-- Node4&#45;&gt;Node5 -->
<g id="edge4" class="edge"><title>Node4&#45;&gt;Node5</title>
<path fill="none" stroke="midnightblue" d="M398.546,-1092.53C387.417,-1063.94 363.021,-1010.58 326,-979 320.324,-974.158 313.259,-970.448 306.327,-967.648"/>
<polygon fill="midnightblue" stroke="midnightblue" points="395.374,-1094.04 402.16,-1102.18 401.929,-1091.58 395.374,-1094.04"/>
</g>
<!-- Node10 -->
<g id="node6" class="node"><title>Node10</title>
<g id="a_node6"><a xlink:href="lib1_8c.html#a7efe4b0c1877d4d10076ec9407b4e4dc" target="_top" xlink:title=" ">
<polygon fill="white" stroke="black" points="244,-912.5 244,-931.5 311,-931.5 311,-912.5 244,-912.5"/>
<text text-anchor="middle" x="277.5" y="-919.5" font-family="Helvetica,sans-Serif" font-size="10.00">anotherfunc</text>
</a>
</g>
</g>
<!-- Node4&#45;&gt;Node10 -->
<g id="edge5" class="edge"><title>Node4&#45;&gt;Node10</title>
<path fill="none" stroke="midnightblue" d="M401.431,-1092.51C393.174,-1057.55 371.265,-983.855 326,-941 321.743,-936.97 316.524,-933.755 311.122,-931.203"/>
<polygon fill="midnightblue" stroke="midnightblue" points="398.047,-1093.41 403.644,-1102.41 404.878,-1091.89 398.047,-1093.41"/>
</g>
<!-- Node11 -->
<g id="node7" class="node"><title>Node11</title>
<g id="a_node7"><a xlink:href="loslib_8c.html#aaa168f0d57d7a806d86b6b8b20eb51c7" target="_top" xlink:title=" ">
<polygon fill="white" stroke="red" points="243,-874.5 243,-893.5 312,-893.5 312,-874.5 243,-874.5"/>
<text text-anchor="middle" x="277.5" y="-881.5" font-family="Helvetica,sans-Serif" font-size="10.00">checkoption</text>
</a>
</g>
</g>
<!-- Node4&#45;&gt;Node11 -->
<g id="edge6" class="edge"><title>Node4&#45;&gt;Node11</title>
<path fill="none" stroke="midnightblue" d="M403.281,-1092.21C397.703,-1051.45 379.486,-957.404 326,-903 322.139,-899.073 317.363,-895.934 312.34,-893.431"/>
<polygon fill="midnightblue" stroke="midnightblue" points="399.819,-1092.73 404.538,-1102.21 406.765,-1091.86 399.819,-1092.73"/>
</g>
<!-- Node13 -->
<g id="node8" class="node"><title>Node13</title>
<g id="a_node8"><a xlink:href="ldblib_8c.html#a4eb57e66c2efb2d31c9b9e1b01d27e13" target="_top" xlink:title=" ">
<polygon fill="white" stroke="black" points="247,-836.5 247,-855.5 308,-855.5 308,-836.5 247,-836.5"/>
<text text-anchor="middle" x="277.5" y="-843.5" font-family="Helvetica,sans-Serif" font-size="10.00">db_getinfo</text>
</a>
</g>
</g>
<!-- Node4&#45;&gt;Node13 -->
<g id="edge7" class="edge"><title>Node4&#45;&gt;Node13</title>
<path fill="none" stroke="midnightblue" d="M404.621,-1091.84C401.55,-1045.68 387.767,-931.19 326,-865 321.152,-859.805 314.696,-856.002 308.109,-853.227"/>
<polygon fill="midnightblue" stroke="midnightblue" points="401.138,-1092.25 405.194,-1102.03 408.127,-1091.85 401.138,-1092.25"/>
</g>
<!-- Node14 -->
<g id="node9" class="node"><title>Node14</title>
<g id="a_node9"><a xlink:href="lauxlib_8c.html#a5899b2cf676252a49cc95a89536d0e38" target="_top" xlink:title=" ">
<polygon fill="white" stroke="black" points="257.5,-760.5 257.5,-779.5 297.5,-779.5 297.5,-760.5 257.5,-760.5"/>
<text text-anchor="middle" x="277.5" y="-767.5" font-family="Helvetica,sans-Serif" font-size="10.00">errfile</text>
</a>
</g>
</g>
<!-- Node4&#45;&gt;Node14 -->
<g id="edge8" class="edge"><title>Node4&#45;&gt;Node14</title>
<path fill="none" stroke="midnightblue" d="M403.022,-1092.27C394.78,-1029.46 366.493,-835.561 326,-789 318.773,-780.69 307.402,-775.972 297.598,-773.317"/>
<polygon fill="midnightblue" stroke="midnightblue" points="399.579,-1092.94 404.326,-1102.41 406.522,-1092.04 399.579,-1092.94"/>
</g>
<!-- Node15 -->
<g id="node10" class="node"><title>Node15</title>
<g id="a_node10"><a xlink:href="lauxlib_8h.html#a8c38c6dcf9db7e110e525b46742bacf8" target="_top" xlink:title=" ">
<polygon fill="white" stroke="red" points="114,-741.5 114,-760.5 189,-760.5 189,-741.5 114,-741.5"/>
<text text-anchor="middle" x="151.5" y="-748.5" font-family="Helvetica,sans-Serif" font-size="10.00">luaL_loadfilex</text>
</a>
</g>
</g>
<!-- Node4&#45;&gt;Node15 -->
<g id="edge16" class="edge"><title>Node4&#45;&gt;Node15</title>
<path fill="none" stroke="midnightblue" d="M404.272,-1091.95C399.565,-1022.57 380.142,-794.516 326,-751 284.444,-717.6 217.412,-730.386 179.998,-741.458"/>
<polygon fill="midnightblue" stroke="midnightblue" points="400.805,-1092.58 404.945,-1102.34 407.791,-1092.13 400.805,-1092.58"/>
</g>
<!-- Node17 -->
<g id="node11" class="node"><title>Node17</title>
<g id="a_node11"><a xlink:href="liolib_8c.html#afaec8b8506a424b1b5f342037ae6350a" target="_top" xlink:title=" ">
<polygon fill="white" stroke="black" points="249.5,-1482.5 249.5,-1501.5 305.5,-1501.5 305.5,-1482.5 249.5,-1482.5"/>
<text text-anchor="middle" x="277.5" y="-1489.5" font-family="Helvetica,sans-Serif" font-size="10.00">f_tostring</text>
</a>
</g>
</g>
<!-- Node4&#45;&gt;Node17 -->
<g id="edge10" class="edge"><title>Node4&#45;&gt;Node17</title>
<path fill="none" stroke="midnightblue" d="M401.67,-1131.81C387.372,-1205.41 337.354,-1459.62 326,-1473 320.829,-1479.1 313.423,-1483.25 305.993,-1486.08"/>
<polygon fill="midnightblue" stroke="midnightblue" points="405.18,-1132.1 403.647,-1121.61 398.308,-1130.76 405.18,-1132.1"/>
</g>
<!-- Node18 -->
<g id="node12" class="node"><title>Node18</title>
<g id="a_node12"><a xlink:href="lua_8c.html#aa6faba0570416a2dfe7783da2dcbf6df" target="_top" xlink:title=" ">
<polygon fill="white" stroke="red" points="256,-1444.5 256,-1463.5 299,-1463.5 299,-1444.5 256,-1444.5"/>
<text text-anchor="middle" x="277.5" y="-1451.5" font-family="Helvetica,sans-Serif" font-size="10.00">l_print</text>
</a>
</g>
</g>
<!-- Node4&#45;&gt;Node18 -->
<g id="edge11" class="edge"><title>Node4&#45;&gt;Node18</title>
<path fill="none" stroke="midnightblue" d="M401.603,-1131.53C388.402,-1197.02 345.137,-1406.04 326,-1430 319.196,-1438.52 308.572,-1444.28 299.096,-1448.02"/>
<polygon fill="midnightblue" stroke="midnightblue" points="405.046,-1132.16 403.581,-1121.67 398.182,-1130.79 405.046,-1132.16"/>
</g>
<!-- Node19 -->
<g id="node13" class="node"><title>Node19</title>
<g id="a_node13"><a xlink:href="loadlib_8c.html#a91ac5b5231cf039af46226806dcc3884" target="_top" xlink:title=" ">
<polygon fill="white" stroke="red" points="251,-1520.5 251,-1539.5 304,-1539.5 304,-1520.5 251,-1520.5"/>
<text text-anchor="middle" x="277.5" y="-1527.5" font-family="Helvetica,sans-Serif" font-size="10.00">loadfunc</text>
</a>
</g>
</g>
<!-- Node4&#45;&gt;Node19 -->
<g id="edge12" class="edge"><title>Node4&#45;&gt;Node19</title>
<path fill="none" stroke="midnightblue" d="M401.649,-1131.99C386.165,-1212.28 329.12,-1507.25 326,-1511 320.436,-1517.69 312.171,-1522.05 304.089,-1524.87"/>
<polygon fill="midnightblue" stroke="midnightblue" points="405.165,-1132.24 403.621,-1121.76 398.292,-1130.92 405.165,-1132.24"/>
</g>
<!-- Node23 -->
<g id="node14" class="node"><title>Node23</title>
<g id="a_node14"><a xlink:href="loadlib_8c.html#a1ec05cd98a045c271aeda9f9c6041e1c" target="_top" xlink:title=" ">
<polygon fill="white" stroke="red" points="110,-1463.5 110,-1482.5 193,-1482.5 193,-1463.5 110,-1463.5"/>
<text text-anchor="middle" x="151.5" y="-1470.5" font-family="Helvetica,sans-Serif" font-size="10.00">searcher_Croot</text>
</a>
</g>
</g>
<!-- Node4&#45;&gt;Node23 -->
<g id="edge29" class="edge"><title>Node4&#45;&gt;Node23</title>
<path fill="none" stroke="midnightblue" d="M402.353,-1131.65C392.762,-1189.35 362.32,-1356.8 326,-1397 294.96,-1431.36 271.33,-1416.24 229,-1435 208.664,-1444.01 185.895,-1455.51 170.526,-1463.49"/>
<polygon fill="midnightblue" stroke="midnightblue" points="405.83,-1132.07 403.989,-1121.64 398.922,-1130.94 405.83,-1132.07"/>
</g>
<!-- Node24 -->
<g id="node15" class="node"><title>Node24</title>
<g id="a_node15"><a xlink:href="lauxlib_8h.html#ae4a7f494cc400b09f5cbccfc3f8187c5" target="_top" xlink:title=" ">
<polygon fill="white" stroke="red" points="231.5,-1368.5 231.5,-1387.5 323.5,-1387.5 323.5,-1368.5 231.5,-1368.5"/>
<text text-anchor="middle" x="277.5" y="-1375.5" font-family="Helvetica,sans-Serif" font-size="10.00">luaL_checkoption</text>
</a>
</g>
</g>
<!-- Node4&#45;&gt;Node24 -->
<g id="edge14" class="edge"><title>Node4&#45;&gt;Node24</title>
<path fill="none" stroke="midnightblue" d="M404.621,-1132.16C401.55,-1178.32 387.767,-1292.81 326,-1359 322.364,-1362.9 317.823,-1366.01 313.002,-1368.49"/>
<polygon fill="midnightblue" stroke="midnightblue" points="408.127,-1132.15 405.194,-1121.97 401.138,-1131.75 408.127,-1132.15"/>
</g>
<!-- Node29 -->
<g id="node16" class="node"><title>Node29</title>
<g id="a_node16"><a xlink:href="lauxlib_8h.html#ab94b3cb77f5a0ae622ae4ba5f99af4c7" target="_top" xlink:title=" ">
<polygon fill="white" stroke="red" points="239.5,-1330.5 239.5,-1349.5 315.5,-1349.5 315.5,-1330.5 239.5,-1330.5"/>
<text text-anchor="middle" x="277.5" y="-1337.5" font-family="Helvetica,sans-Serif" font-size="10.00">luaL_fileresult</text>
</a>
</g>
</g>
<!-- Node4&#45;&gt;Node29 -->
<g id="edge15" class="edge"><title>Node4&#45;&gt;Node29</title>
<path fill="none" stroke="midnightblue" d="M403.281,-1131.79C397.703,-1172.55 379.486,-1266.6 326,-1321 322.264,-1324.8 317.67,-1327.86 312.825,-1330.32"/>
<polygon fill="midnightblue" stroke="midnightblue" points="406.765,-1132.14 404.538,-1121.79 399.819,-1131.27 406.765,-1132.14"/>
</g>
<!-- Node56 -->
<g id="node17" class="node"><title>Node56</title>
<g id="a_node17"><a xlink:href="lauxlib_8h.html#aef6da057d1e26ed6449b92177f1f2f5a" target="_top" xlink:title=" ">
<polygon fill="white" stroke="red" points="0,-1273.5 0,-1292.5 74,-1292.5 74,-1273.5 0,-1273.5"/>
<text text-anchor="middle" x="37" y="-1280.5" font-family="Helvetica,sans-Serif" font-size="10.00">luaL_tolstring</text>
</a>
</g>
</g>
<!-- Node4&#45;&gt;Node56 -->
<g id="edge17" class="edge"><title>Node4&#45;&gt;Node56</title>
<path fill="none" stroke="midnightblue" d="M399.902,-1131.45C390.202,-1161.32 367.24,-1217.89 326,-1245 285.281,-1271.77 141.922,-1279.78 74.0889,-1282.1"/>
<polygon fill="midnightblue" stroke="midnightblue" points="403.29,-1132.34 402.886,-1121.75 396.599,-1130.28 403.29,-1132.34"/>
</g>
<!-- Node65 -->
<g id="node18" class="node"><title>Node65</title>
<g id="a_node18"><a xlink:href="lauxlib_8h.html#a664cc293d6c7a7dc67857fe95583a10e" target="_top" xlink:title=" ">
<polygon fill="white" stroke="red" points="110,-1140.5 110,-1159.5 193,-1159.5 193,-1140.5 110,-1140.5"/>
<text text-anchor="middle" x="151.5" y="-1147.5" font-family="Helvetica,sans-Serif" font-size="10.00">luaL_traceback</text>
</a>
</g>
</g>
<!-- Node4&#45;&gt;Node65 -->
<g id="edge18" class="edge"><title>Node4&#45;&gt;Node65</title>
<path fill="none" stroke="midnightblue" d="M359.822,-1123.95C348.803,-1126.55 337.026,-1129.09 326,-1131 280.769,-1138.85 228.309,-1144.06 193.018,-1147.01"/>
<polygon fill="midnightblue" stroke="midnightblue" points="360.787,-1127.32 369.685,-1121.57 359.142,-1120.52 360.787,-1127.32"/>
</g>
<!-- Node67 -->
<g id="node19" class="node"><title>Node67</title>
<g id="a_node19"><a xlink:href="lua_8c.html#aaf236b6f4e03469c893b4a32e9a02ab2" target="_top" xlink:title=" ">
<polygon fill="white" stroke="red" points="3.5,-1159.5 3.5,-1178.5 70.5,-1178.5 70.5,-1159.5 3.5,-1159.5"/>
<text text-anchor="middle" x="37" y="-1166.5" font-family="Helvetica,sans-Serif" font-size="10.00">msghandler</text>
</a>
</g>
</g>
<!-- Node4&#45;&gt;Node67 -->
<g id="edge24" class="edge"><title>Node4&#45;&gt;Node67</title>
<path fill="none" stroke="midnightblue" d="M380.874,-1126.65C365.585,-1135.09 345.244,-1145.15 326,-1151 236.852,-1178.12 125.214,-1175.33 70.8273,-1171.78"/>
<polygon fill="midnightblue" stroke="midnightblue" points="382.709,-1129.64 389.685,-1121.66 379.259,-1123.54 382.709,-1129.64"/>
</g>
<!-- Node76 -->
<g id="node20" class="node"><title>Node76</title>
<g id="a_node20"><a xlink:href="lauxlib_8h.html#a38cc1bb8d85efadc840f38b33e37326b" target="_top" xlink:title=" ">
<polygon fill="white" stroke="red" points="238.5,-1216.5 238.5,-1235.5 316.5,-1235.5 316.5,-1216.5 238.5,-1216.5"/>
<text text-anchor="middle" x="277.5" y="-1223.5" font-family="Helvetica,sans-Serif" font-size="10.00">luaL_typeerror</text>
</a>
</g>
</g>
<!-- Node4&#45;&gt;Node76 -->
<g id="edge20" class="edge"><title>Node4&#45;&gt;Node76</title>
<path fill="none" stroke="midnightblue" d="M392.796,-1130.1C378.348,-1149.71 353.208,-1180.99 326,-1202 318.687,-1207.65 309.84,-1212.54 301.772,-1216.42"/>
<polygon fill="midnightblue" stroke="midnightblue" points="395.808,-1131.91 398.822,-1121.75 390.132,-1127.81 395.808,-1131.91"/>
</g>
<!-- Node167 -->
<g id="node21" class="node"><title>Node167</title>
<g id="a_node21"><a xlink:href="lauxlib_8h.html#a269122a77674ca63c9193c2a30b4729e" target="_top" xlink:title=" ">
<polygon fill="white" stroke="red" points="245,-1292.5 245,-1311.5 310,-1311.5 310,-1292.5 245,-1292.5"/>
<text text-anchor="middle" x="277.5" y="-1299.5" font-family="Helvetica,sans-Serif" font-size="10.00">luaL_where</text>
</a>
</g>
</g>
<!-- Node4&#45;&gt;Node167 -->
<g id="edge21" class="edge"><title>Node4&#45;&gt;Node167</title>
<path fill="none" stroke="midnightblue" d="M400.647,-1131.47C391.366,-1165.17 368.176,-1234.92 326,-1278 320.183,-1283.94 312.585,-1288.67 305.178,-1292.31"/>
<polygon fill="midnightblue" stroke="midnightblue" points="404.108,-1132.07 403.269,-1121.51 397.338,-1130.29 404.108,-1132.07"/>
</g>
<!-- Node269 -->
<g id="node23" class="node"><title>Node269</title>
<g id="a_node23"><a xlink:href="lauxlib_8c.html#a0aa557042467d3f84d0663c742b32946" target="_top" xlink:title=" ">
<polygon fill="white" stroke="black" points="237.5,-798.5 237.5,-817.5 317.5,-817.5 317.5,-798.5 237.5,-798.5"/>
<text text-anchor="middle" x="277.5" y="-805.5" font-family="Helvetica,sans-Serif" font-size="10.00">pushfuncname</text>
</a>
</g>
</g>
<!-- Node4&#45;&gt;Node269 -->
<g id="edge25" class="edge"><title>Node4&#45;&gt;Node269</title>
<path fill="none" stroke="midnightblue" d="M405.668,-1092.27C405.037,-1041.64 396.485,-905.577 326,-827 322.56,-823.165 318.241,-820.093 313.617,-817.634"/>
<polygon fill="midnightblue" stroke="midnightblue" points="402.169,-1092.49 405.697,-1102.48 409.169,-1092.47 402.169,-1092.49"/>
</g>
<!-- Node61 -->
<g id="node24" class="node"><title>Node61</title>
<g id="a_node24"><a xlink:href="lua_8c.html#a83a7cb21b34095ca93f2a2a863f58fda" target="_top" xlink:title=" ">
<polygon fill="white" stroke="red" points="251,-1102.5 251,-1121.5 304,-1121.5 304,-1102.5 251,-1102.5"/>
<text text-anchor="middle" x="277.5" y="-1109.5" font-family="Helvetica,sans-Serif" font-size="10.00">pushline</text>
</a>
</g>
</g>
<!-- Node4&#45;&gt;Node61 -->
<g id="edge27" class="edge"><title>Node4&#45;&gt;Node61</title>
<path fill="none" stroke="midnightblue" d="M355.197,-1112C337.66,-1112 318.719,-1112 304.048,-1112"/>
<polygon fill="midnightblue" stroke="midnightblue" points="355.316,-1115.5 365.316,-1112 355.316,-1108.5 355.316,-1115.5"/>
</g>
<!-- Node118 -->
<g id="node25" class="node"><title>Node118</title>
<g id="a_node25"><a xlink:href="lutf8lib_8c.html#a52e38c3852e8554391b6860bdc796024" target="_top" xlink:title=" ">
<polygon fill="white" stroke="red" points="244,-1064.5 244,-1083.5 311,-1083.5 311,-1064.5 244,-1064.5"/>
<text text-anchor="middle" x="277.5" y="-1071.5" font-family="Helvetica,sans-Serif" font-size="10.00">pushutfchar</text>
</a>
</g>
</g>
<!-- Node4&#45;&gt;Node118 -->
<g id="edge28" class="edge"><title>Node4&#45;&gt;Node118</title>
<path fill="none" stroke="midnightblue" d="M363.606,-1099.46C346.329,-1094.3 326.629,-1088.4 310.537,-1083.59"/>
<polygon fill="midnightblue" stroke="midnightblue" points="362.869,-1102.9 373.453,-1102.41 364.876,-1096.19 362.869,-1102.9"/>
</g>
<!-- Node270 -->
<g id="node26" class="node"><title>Node270</title>
<g id="a_node26"><a xlink:href="loadlib_8c.html#a68e1957952958cc41d9ede92dabda1c6" target="_top" xlink:title=" ">
<polygon fill="white" stroke="red" points="232,-1026.5 232,-1045.5 323,-1045.5 323,-1026.5 232,-1026.5"/>
<text text-anchor="middle" x="277.5" y="-1033.5" font-family="Helvetica,sans-Serif" font-size="10.00">searcher_preload</text>
</a>
</g>
</g>
<!-- Node4&#45;&gt;Node270 -->
<g id="edge30" class="edge"><title>Node4&#45;&gt;Node270</title>
<path fill="none" stroke="midnightblue" d="M386.114,-1096.06C370.535,-1083.77 347.74,-1066.91 326,-1055 319.613,-1051.5 312.444,-1048.29 305.65,-1045.55"/>
<polygon fill="midnightblue" stroke="midnightblue" points="383.981,-1098.84 393.974,-1102.36 388.359,-1093.38 383.981,-1098.84"/>
</g>
<!-- Node229 -->
<g id="node27" class="node"><title>Node229</title>
<g id="a_node27"><a xlink:href="loadlib_8c.html#ad3773b767d767b19dc36cab61cf5c57d" target="_top" xlink:title=" ">
<polygon fill="white" stroke="red" points="253,-988.5 253,-1007.5 302,-1007.5 302,-988.5 253,-988.5"/>
<text text-anchor="middle" x="277.5" y="-995.5" font-family="Helvetica,sans-Serif" font-size="10.00">setpath</text>
</a>
</g>
</g>
<!-- Node4&#45;&gt;Node229 -->
<g id="edge31" class="edge"><title>Node4&#45;&gt;Node229</title>
<path fill="none" stroke="midnightblue" d="M394.204,-1093.65C380.419,-1072.59 355.294,-1038.24 326,-1017 318.953,-1011.89 310.34,-1007.91 302.393,-1004.94"/>
<polygon fill="midnightblue" stroke="midnightblue" points="391.388,-1095.74 399.714,-1102.29 397.291,-1091.98 391.388,-1095.74"/>
</g>
<!-- Node14&#45;&gt;Node15 -->
<g id="edge9" class="edge"><title>Node14&#45;&gt;Node15</title>
<path fill="none" stroke="midnightblue" d="M247.268,-765.521C229.878,-762.856 207.661,-759.452 189.11,-756.61"/>
<polygon fill="midnightblue" stroke="midnightblue" points="246.982,-769.018 257.397,-767.073 248.042,-762.099 246.982,-769.018"/>
</g>
<!-- Node19&#45;&gt;Node23 -->
<g id="edge13" class="edge"><title>Node19&#45;&gt;Node23</title>
<path fill="none" stroke="midnightblue" d="M241.826,-1516.51C237.486,-1514.71 233.124,-1512.85 229,-1511 208.831,-1501.97 186.225,-1490.58 170.851,-1482.64"/>
<polygon fill="midnightblue" stroke="midnightblue" points="240.615,-1519.79 251.197,-1520.32 243.251,-1513.31 240.615,-1519.79"/>
</g>
<!-- Node65&#45;&gt;Node67 -->
<g id="edge19" class="edge"><title>Node65&#45;&gt;Node67</title>
<path fill="none" stroke="midnightblue" d="M99.7701,-1158.57C89.9361,-1160.23 79.8748,-1161.93 70.8042,-1163.46"/>
<polygon fill="midnightblue" stroke="midnightblue" points="100.607,-1161.98 109.885,-1156.86 99.4417,-1155.07 100.607,-1161.98"/>
</g>
<!-- Node169 -->
<g id="node22" class="node"><title>Node169</title>
<g id="a_node22"><a xlink:href="lauxlib_8h.html#a994f73d7985c30672469a260d9e86ae6" target="_top" xlink:title=" ">
<polygon fill="white" stroke="red" points="122,-1292.5 122,-1311.5 181,-1311.5 181,-1292.5 122,-1292.5"/>
<text text-anchor="middle" x="151.5" y="-1299.5" font-family="Helvetica,sans-Serif" font-size="10.00">luaL_error</text>
</a>
</g>
</g>
<!-- Node167&#45;&gt;Node169 -->
<g id="edge22" class="edge"><title>Node167&#45;&gt;Node169</title>
<path fill="none" stroke="midnightblue" d="M234.825,-1302C217.162,-1302 197.023,-1302 181.086,-1302"/>
<polygon fill="midnightblue" stroke="midnightblue" points="234.889,-1305.5 244.889,-1302 234.889,-1298.5 234.889,-1305.5"/>
</g>
<!-- Node169&#45;&gt;Node56 -->
<g id="edge23" class="edge"><title>Node169&#45;&gt;Node56</title>
<path fill="none" stroke="midnightblue" d="M111.931,-1295.49C99.7437,-1293.43 86.324,-1291.16 74.301,-1289.13"/>
<polygon fill="midnightblue" stroke="midnightblue" points="111.377,-1298.94 121.82,-1297.16 112.543,-1292.04 111.377,-1298.94"/>
</g>
<!-- Node269&#45;&gt;Node65 -->
<g id="edge26" class="edge"><title>Node269&#45;&gt;Node65</title>
<path fill="none" stroke="midnightblue" d="M232.769,-823.251C231.42,-824.411 230.156,-825.659 229,-827 186.295,-876.542 159.175,-1092.19 153.579,-1140.41"/>
<polygon fill="midnightblue" stroke="midnightblue" points="234.926,-826.017 241.246,-817.514 231.002,-820.22 234.926,-826.017"/>
</g>
<!-- Node271&#45;&gt;Node169 -->
<g id="edge33" class="edge"><title>Node271&#45;&gt;Node169</title>
<path fill="none" stroke="midnightblue" d="M404.067,-1378.96C399.966,-1419.33 384.373,-1510.15 326,-1549 290.112,-1572.89 263.702,-1574.58 229,-1549 218.837,-1541.51 167.444,-1356.38 155.147,-1311.66"/>
<polygon fill="midnightblue" stroke="midnightblue" points="407.572,-1379.05 404.96,-1368.78 400.599,-1378.44 407.572,-1379.05"/>
</g>
<!-- Node272&#45;&gt;Node3 -->
<g id="edge50" class="edge"><title>Node272&#45;&gt;Node3</title>
<path fill="none" stroke="midnightblue" d="M454.587,-396.564C465.09,-396.822 476.213,-396.812 486.664,-396.532"/>
<polygon fill="midnightblue" stroke="midnightblue" points="454.452,-393.058 444.339,-396.217 454.214,-400.054 454.452,-393.058"/>
</g>
<!-- Node273 -->
<g id="node30" class="node"><title>Node273</title>
<g id="a_node30"><a xlink:href="ltable_8c.html#a921c25ca2be2003cbcaa9e4c10d6eba8" target="_top" xlink:title=" ">
<polygon fill="white" stroke="red" points="250,-228.5 250,-247.5 305,-247.5 305,-228.5 250,-228.5"/>
<text text-anchor="middle" x="277.5" y="-235.5" font-family="Helvetica,sans-Serif" font-size="10.00">findindex</text>
</a>
</g>
</g>
<!-- Node272&#45;&gt;Node273 -->
<g id="edge35" class="edge"><title>Node272&#45;&gt;Node273</title>
<path fill="none" stroke="midnightblue" d="M365.815,-374.666C364.455,-373.526 363.174,-372.306 362,-371 326.471,-331.493 362.143,-295.946 326,-257 320.442,-251.011 312.744,-246.872 305.162,-244.028"/>
<polygon fill="midnightblue" stroke="midnightblue" points="364.048,-377.694 374.305,-380.349 367.942,-371.877 364.048,-377.694"/>
</g>
<!-- Node278 -->
<g id="node31" class="node"><title>Node278</title>
<g id="a_node31"><a xlink:href="lvm_8c.html#a8d9c9746ae6f28dd1b17982a88589b51" target="_top" xlink:title=" ">
<polygon fill="white" stroke="red" points="128.5,-114.5 128.5,-133.5 174.5,-133.5 174.5,-114.5 128.5,-114.5"/>
<text text-anchor="middle" x="151.5" y="-121.5" font-family="Helvetica,sans-Serif" font-size="10.00">forprep</text>
</a>
</g>
</g>
<!-- Node272&#45;&gt;Node278 -->
<g id="edge36" class="edge"><title>Node272&#45;&gt;Node278</title>
<path fill="none" stroke="midnightblue" d="M365.218,-374.347C364.069,-373.3 362.99,-372.186 362,-371 317.5,-317.713 371.515,-271.422 326,-219 295.645,-184.038 269.48,-203.476 229,-181 204.094,-167.171 178.122,-146.194 163.76,-133.917"/>
<polygon fill="midnightblue" stroke="midnightblue" points="363.442,-377.379 373.622,-380.316 367.496,-371.672 363.442,-377.379"/>
</g>
<!-- Node576 -->
<g id="node32" class="node"><title>Node576</title>
<g id="a_node32"><a xlink:href="lua_8h.html#af2786755dac30d9e89f9a02948a84def" target="_top" xlink:title=" ">
<polygon fill="white" stroke="black" points="247.5,-152.5 247.5,-171.5 307.5,-171.5 307.5,-152.5 247.5,-152.5"/>
<text text-anchor="middle" x="277.5" y="-159.5" font-family="Helvetica,sans-Serif" font-size="10.00">lua_yieldk</text>
</a>
</g>
</g>
<!-- Node272&#45;&gt;Node576 -->
<g id="edge37" class="edge"><title>Node272&#45;&gt;Node576</title>
<path fill="none" stroke="midnightblue" d="M365.156,-374.398C364.024,-373.337 362.966,-372.206 362,-371 309.617,-305.635 376.531,-252.807 326,-186 321.318,-179.81 314.595,-175.098 307.673,-171.561"/>
<polygon fill="midnightblue" stroke="midnightblue" points="363.333,-377.399 373.486,-380.427 367.438,-371.729 363.333,-377.399"/>
</g>
<!-- Node577 -->
<g id="node33" class="node"><title>Node577</title>
<g id="a_node33"><a xlink:href="ldo_8h.html#a65231426ec94e3bca44e117d7198604a" target="_top" xlink:title=" ">
<polygon fill="white" stroke="red" points="234.5,-114.5 234.5,-133.5 320.5,-133.5 320.5,-114.5 234.5,-114.5"/>
<text text-anchor="middle" x="277.5" y="-121.5" font-family="Helvetica,sans-Serif" font-size="10.00">luaD_growstack</text>
</a>
</g>
</g>
<!-- Node272&#45;&gt;Node577 -->
<g id="edge38" class="edge"><title>Node272&#45;&gt;Node577</title>
<path fill="none" stroke="midnightblue" d="M364.669,-374.019C363.716,-373.069 362.822,-372.064 362,-371 299.28,-289.817 389.983,-223.191 326,-143 322.898,-139.112 318.88,-136.016 314.495,-133.551"/>
<polygon fill="midnightblue" stroke="midnightblue" points="362.845,-377.028 372.931,-380.272 367.069,-371.447 362.845,-377.028"/>
</g>
<!-- Node579 -->
<g id="node34" class="node"><title>Node579</title>
<g id="a_node34"><a xlink:href="lstate_8h.html#a46f2404bfe7c23f34535a155f5ab380a" target="_top" xlink:title=" ">
<polygon fill="white" stroke="red" points="229,-76.5 229,-95.5 326,-95.5 326,-76.5 229,-76.5"/>
<text text-anchor="middle" x="277.5" y="-83.5" font-family="Helvetica,sans-Serif" font-size="10.00">luaE_checkcstack</text>
</a>
</g>
</g>
<!-- Node272&#45;&gt;Node579 -->
<g id="edge39" class="edge"><title>Node272&#45;&gt;Node579</title>
<path fill="none" stroke="midnightblue" d="M364.638,-374.043C363.694,-373.086 362.81,-372.073 362,-371 290.11,-275.793 399.371,-199.07 326,-105 323.05,-101.218 319.231,-98.1864 315.041,-95.7565"/>
<polygon fill="midnightblue" stroke="midnightblue" points="362.787,-377.034 372.856,-380.329 367.04,-371.474 362.787,-377.034"/>
</g>
<!-- Node440 -->
<g id="node35" class="node"><title>Node440</title>
<g id="a_node35"><a xlink:href="ldebug_8h.html#a85c3a2c2c78c0e6d60a9b90ecf42252d" target="_top" xlink:title=" ">
<polygon fill="white" stroke="red" points="241.5,-38.5 241.5,-57.5 313.5,-57.5 313.5,-38.5 241.5,-38.5"/>
<text text-anchor="middle" x="277.5" y="-45.5" font-family="Helvetica,sans-Serif" font-size="10.00">luaG_forerror</text>
</a>
</g>
</g>
<!-- Node272&#45;&gt;Node440 -->
<g id="edge40" class="edge"><title>Node272&#45;&gt;Node440</title>
<path fill="none" stroke="midnightblue" d="M364.614,-374.061C363.677,-373.099 362.801,-372.08 362,-371 280.92,-261.743 408.78,-174.974 326,-67 322.758,-62.7708 318.426,-59.4804 313.693,-56.9209"/>
<polygon fill="midnightblue" stroke="midnightblue" points="362.743,-377.037 372.799,-380.372 367.017,-371.494 362.743,-377.037"/>
</g>
<!-- Node442 -->
<g id="node36" class="node"><title>Node442</title>
<g id="a_node36"><a xlink:href="ldebug_8h.html#a7ae9c3f6343c93b4a8bb80e68706a6a3" target="_top" xlink:title=" ">
<polygon fill="white" stroke="red" points="236,-0.5 236,-19.5 319,-19.5 319,-0.5 236,-0.5"/>
<text text-anchor="middle" x="277.5" y="-7.5" font-family="Helvetica,sans-Serif" font-size="10.00">luaG_ordererror</text>
</a>
</g>
</g>
<!-- Node272&#45;&gt;Node442 -->
<g id="edge42" class="edge"><title>Node272&#45;&gt;Node442</title>
<path fill="none" stroke="midnightblue" d="M364.596,-374.074C363.664,-373.108 362.794,-372.085 362,-371 271.717,-247.676 418.202,-150.896 326,-29 323.107,-25.1748 319.32,-22.118 315.147,-19.6756"/>
<polygon fill="midnightblue" stroke="midnightblue" points="362.708,-377.039 372.754,-380.405 367,-371.509 362.708,-377.039"/>
</g>
<!-- Node608 -->
<g id="node37" class="node"><title>Node608</title>
<g id="a_node37"><a xlink:href="ldebug_8h.html#a74cd5eddc3de05ee203215f97aeacdfa" target="_top" xlink:title=" ">
<polygon fill="white" stroke="red" points="237.5,-684.5 237.5,-703.5 317.5,-703.5 317.5,-684.5 237.5,-684.5"/>
<text text-anchor="middle" x="277.5" y="-691.5" font-family="Helvetica,sans-Serif" font-size="10.00">luaG_tointerror</text>
</a>
</g>
</g>
<!-- Node272&#45;&gt;Node608 -->
<g id="edge43" class="edge"><title>Node272&#45;&gt;Node608</title>
<path fill="none" stroke="midnightblue" d="M405.129,-409.71C403.198,-459.169 391.784,-590.261 326,-670 320.943,-676.129 313.924,-680.849 306.83,-684.414"/>
<polygon fill="midnightblue" stroke="midnightblue" points="408.627,-409.802 405.428,-399.701 401.63,-409.592 408.627,-409.802"/>
</g>
<!-- Node443 -->
<g id="node38" class="node"><title>Node443</title>
<g id="a_node38"><a xlink:href="ldebug_8h.html#a375161dd1513420561f20f0b4c7b7e66" target="_top" xlink:title=" ">
<polygon fill="white" stroke="red" points="237.5,-608.5 237.5,-627.5 317.5,-627.5 317.5,-608.5 237.5,-608.5"/>
<text text-anchor="middle" x="277.5" y="-615.5" font-family="Helvetica,sans-Serif" font-size="10.00">luaG_typeerror</text>
</a>
</g>
</g>
<!-- Node272&#45;&gt;Node443 -->
<g id="edge44" class="edge"><title>Node272&#45;&gt;Node443</title>
<path fill="none" stroke="midnightblue" d="M402.617,-409.765C395.913,-449.31 375.879,-539.074 326,-594 320.534,-600.019 313.213,-604.736 305.958,-608.335"/>
<polygon fill="midnightblue" stroke="midnightblue" points="406.086,-410.234 404.198,-399.809 399.173,-409.136 406.086,-410.234"/>
</g>
<!-- Node367 -->
<g id="node39" class="node"><title>Node367</title>
<g id="a_node39"><a xlink:href="lvm_8h.html#a282d1037898c9b77aae41b12327a6c72" target="_top" xlink:title=" ">
<polygon fill="white" stroke="red" points="113,-627.5 113,-646.5 190,-646.5 190,-627.5 113,-627.5"/>
<text text-anchor="middle" x="151.5" y="-634.5" font-family="Helvetica,sans-Serif" font-size="10.00">luaV_finishget</text>
</a>
</g>
</g>
<!-- Node272&#45;&gt;Node367 -->
<g id="edge52" class="edge"><title>Node272&#45;&gt;Node367</title>
<path fill="none" stroke="midnightblue" d="M406.185,-409.639C406.665,-458.002 400.322,-582.845 326,-637 283.641,-667.865 218.711,-656.773 181.461,-646.5"/>
<polygon fill="midnightblue" stroke="midnightblue" points="409.682,-409.48 405.969,-399.557 402.684,-409.63 409.682,-409.48"/>
</g>
<!-- Node314 -->
<g id="node40" class="node"><title>Node314</title>
<g id="a_node40"><a xlink:href="lvm_8h.html#ab932d6ab0da7d7c900e4fa020b08ea76" target="_top" xlink:title=" ">
<polygon fill="white" stroke="red" points="113,-579.5 113,-598.5 190,-598.5 190,-579.5 113,-579.5"/>
<text text-anchor="middle" x="151.5" y="-586.5" font-family="Helvetica,sans-Serif" font-size="10.00">luaV_finishset</text>
</a>
</g>
</g>
<!-- Node272&#45;&gt;Node314 -->
<g id="edge53" class="edge"><title>Node272&#45;&gt;Node314</title>
<path fill="none" stroke="midnightblue" d="M402.402,-410.006C395.637,-446.412 375.941,-523.207 326,-561 286.829,-590.643 228.304,-594.075 190.263,-592.541"/>
<polygon fill="midnightblue" stroke="midnightblue" points="405.928,-410.154 404.167,-399.706 399.029,-408.972 405.928,-410.154"/>
</g>
<!-- Node609 -->
<g id="node41" class="node"><title>Node609</title>
<g id="a_node41"><a xlink:href="ltable_8h.html#ae160dfbae65610c39fff0098caa66563" target="_top" xlink:title=" ">
<polygon fill="white" stroke="red" points="240.5,-532.5 240.5,-551.5 314.5,-551.5 314.5,-532.5 240.5,-532.5"/>
<text text-anchor="middle" x="277.5" y="-539.5" font-family="Helvetica,sans-Serif" font-size="10.00">luaH_newkey</text>
</a>
</g>
</g>
<!-- Node272&#45;&gt;Node609 -->
<g id="edge47" class="edge"><title>Node272&#45;&gt;Node609</title>
<path fill="none" stroke="midnightblue" d="M398.546,-409.473C387.417,-438.063 363.021,-491.419 326,-523 321.54,-526.804 316.223,-529.91 310.787,-532.424"/>
<polygon fill="midnightblue" stroke="midnightblue" points="401.929,-410.417 402.16,-399.825 395.374,-407.961 401.929,-410.417"/>
</g>
<!-- Node288 -->
<g id="node42" class="node"><title>Node288</title>
<g id="a_node42"><a xlink:href="lmem_8h.html#a28fa4e4a69de0a640dd25c23fd3aa721" target="_top" xlink:title=" ">
<polygon fill="white" stroke="black" points="235.5,-494.5 235.5,-513.5 319.5,-513.5 319.5,-494.5 235.5,-494.5"/>
<text text-anchor="middle" x="277.5" y="-501.5" font-family="Helvetica,sans-Serif" font-size="10.00">luaM_growaux_</text>
</a>
</g>
</g>
<!-- Node272&#45;&gt;Node288 -->
<g id="edge48" class="edge"><title>Node272&#45;&gt;Node288</title>
<path fill="none" stroke="midnightblue" d="M394.204,-408.354C380.419,-429.412 355.294,-463.765 326,-485 320.822,-488.753 314.8,-491.898 308.817,-494.48"/>
<polygon fill="midnightblue" stroke="midnightblue" points="397.291,-410.023 399.714,-399.709 391.388,-406.261 397.291,-410.023"/>
</g>
<!-- Node639 -->
<g id="node43" class="node"><title>Node639</title>
<g id="a_node43"><a xlink:href="lmem_8h.html#a23b8703b7b50e1c5dd37d41569a09a9a" target="_top" xlink:title=" ">
<polygon fill="white" stroke="red" points="243,-456.5 243,-475.5 312,-475.5 312,-456.5 243,-456.5"/>
<text text-anchor="middle" x="277.5" y="-463.5" font-family="Helvetica,sans-Serif" font-size="10.00">luaM_toobig</text>
</a>
</g>
</g>
<!-- Node272&#45;&gt;Node639 -->
<g id="edge49" class="edge"><title>Node272&#45;&gt;Node639</title>
<path fill="none" stroke="midnightblue" d="M386.114,-405.936C370.535,-418.228 347.74,-435.087 326,-447 319.613,-450.5 312.444,-453.707 305.65,-456.45"/>
<polygon fill="midnightblue" stroke="midnightblue" points="388.359,-408.622 393.974,-399.638 383.981,-403.16 388.359,-408.622"/>
</g>
<!-- Node355 -->
<g id="node44" class="node"><title>Node355</title>
<g id="a_node44"><a xlink:href="lvm_8h.html#aee84bfc563cb4bdd21a013218a289aa7" target="_top" xlink:title=" ">
<polygon fill="white" stroke="red" points="242,-418.5 242,-437.5 313,-437.5 313,-418.5 242,-418.5"/>
<text text-anchor="middle" x="277.5" y="-425.5" font-family="Helvetica,sans-Serif" font-size="10.00">luaV_concat</text>
</a>
</g>
</g>
<!-- Node272&#45;&gt;Node355 -->
<g id="edge51" class="edge"><title>Node272&#45;&gt;Node355</title>
<path fill="none" stroke="midnightblue" d="M363.606,-402.535C346.329,-407.705 326.629,-413.599 310.537,-418.414"/>
<polygon fill="midnightblue" stroke="midnightblue" points="364.876,-405.809 373.453,-399.589 362.869,-399.103 364.876,-405.809"/>
</g>
<!-- Node642 -->
<g id="node45" class="node"><title>Node642</title>
<g id="a_node45"><a xlink:href="lvm_8h.html#a3fb7bab8732e10dbf0305243201075dc" target="_top" xlink:title=" ">
<polygon fill="white" stroke="red" points="250,-380.5 250,-399.5 305,-399.5 305,-380.5 250,-380.5"/>
<text text-anchor="middle" x="277.5" y="-387.5" font-family="Helvetica,sans-Serif" font-size="10.00">luaV_idiv</text>
</a>
</g>
</g>
<!-- Node272&#45;&gt;Node642 -->
<g id="edge54" class="edge"><title>Node272&#45;&gt;Node642</title>
<path fill="none" stroke="midnightblue" d="M358.68,-390C340.601,-390 320.581,-390 305.068,-390"/>
<polygon fill="midnightblue" stroke="midnightblue" points="358.766,-393.5 368.766,-390 358.766,-386.5 358.766,-393.5"/>
</g>
<!-- Node646 -->
<g id="node46" class="node"><title>Node646</title>
<g id="a_node46"><a xlink:href="lvm_8h.html#a8c64b8dbe11cb5be7617feb17c279ced" target="_top" xlink:title=" ">
<polygon fill="white" stroke="red" points="247.5,-342.5 247.5,-361.5 307.5,-361.5 307.5,-342.5 247.5,-342.5"/>
<text text-anchor="middle" x="277.5" y="-349.5" font-family="Helvetica,sans-Serif" font-size="10.00">luaV_mod</text>
</a>
</g>
</g>
<!-- Node272&#45;&gt;Node646 -->
<g id="edge55" class="edge"><title>Node272&#45;&gt;Node646</title>
<path fill="none" stroke="midnightblue" d="M363.646,-377.477C345.413,-372.021 324.476,-365.757 307.926,-360.805"/>
<polygon fill="midnightblue" stroke="midnightblue" points="362.869,-380.897 373.453,-380.411 364.876,-374.191 362.869,-380.897"/>
</g>
<!-- Node647 -->
<g id="node47" class="node"><title>Node647</title>
<g id="a_node47"><a xlink:href="ltable_8c.html#aee50b49395de01da3f8e14608f400108" target="_top" xlink:title=" ">
<polygon fill="white" stroke="red" points="239,-304.5 239,-323.5 316,-323.5 316,-304.5 239,-304.5"/>
<text text-anchor="middle" x="277.5" y="-311.5" font-family="Helvetica,sans-Serif" font-size="10.00">setnodevector</text>
</a>
</g>
</g>
<!-- Node272&#45;&gt;Node647 -->
<g id="edge56" class="edge"><title>Node272&#45;&gt;Node647</title>
<path fill="none" stroke="midnightblue" d="M369.635,-375.752C366.979,-374.272 364.403,-372.687 362,-371 342.96,-357.632 345.247,-346.068 326,-333 320.562,-329.308 314.299,-326.163 308.143,-323.557"/>
<polygon fill="midnightblue" stroke="midnightblue" points="368.321,-379.008 378.828,-380.367 371.461,-372.752 368.321,-379.008"/>
</g>
<!-- Node649 -->
<g id="node48" class="node"><title>Node649</title>
<g id="a_node48"><a xlink:href="lfunc_8c.html#a865c4fcb22304c78c59721af224c34b6" target="_top" xlink:title=" ">
<polygon fill="white" stroke="red" points="253.5,-266.5 253.5,-285.5 301.5,-285.5 301.5,-266.5 253.5,-266.5"/>
<text text-anchor="middle" x="277.5" y="-273.5" font-family="Helvetica,sans-Serif" font-size="10.00">varerror</text>
</a>
</g>
</g>
<!-- Node272&#45;&gt;Node649 -->
<g id="edge57" class="edge"><title>Node272&#45;&gt;Node649</title>
<path fill="none" stroke="midnightblue" d="M366.725,-374.975C365.052,-373.743 363.464,-372.42 362,-371 335.171,-344.978 353.233,-320.599 326,-295 319.27,-288.674 310.168,-284.352 301.733,-281.45"/>
<polygon fill="midnightblue" stroke="midnightblue" points="365.273,-378.188 375.635,-380.395 368.911,-372.208 365.273,-378.188"/>
</g>
<!-- Node440&#45;&gt;Node278 -->
<g id="edge41" class="edge"><title>Node440&#45;&gt;Node278</title>
<path fill="none" stroke="midnightblue" d="M239.365,-61.7549C235.803,-63.4003 232.294,-65.1558 229,-67 204.144,-80.9177 178.155,-101.864 163.776,-114.112"/>
<polygon fill="midnightblue" stroke="midnightblue" points="241.019,-64.853 248.808,-57.671 238.24,-58.4282 241.019,-64.853"/>
</g>
<!-- Node443&#45;&gt;Node367 -->
<g id="edge45" class="edge"><title>Node443&#45;&gt;Node367</title>
<path fill="none" stroke="midnightblue" d="M227.141,-625.563C214.841,-627.448 201.847,-629.439 190.209,-631.222"/>
<polygon fill="midnightblue" stroke="midnightblue" points="227.911,-628.986 237.266,-624.012 226.851,-622.067 227.911,-628.986"/>
</g>
<!-- Node443&#45;&gt;Node314 -->
<g id="edge46" class="edge"><title>Node443&#45;&gt;Node314</title>
<path fill="none" stroke="midnightblue" d="M227.51,-606.543C215.101,-603.64 201.963,-600.568 190.209,-597.819"/>
<polygon fill="midnightblue" stroke="midnightblue" points="226.731,-609.955 237.266,-608.824 228.325,-603.139 226.731,-609.955"/>
</g>
<!-- Node364&#45;&gt;Node3 -->
<g id="edge60" class="edge"><title>Node364&#45;&gt;Node3</title>
<path fill="none" stroke="midnightblue" d="M611.347,-364.826C595.782,-369.925 578.186,-375.689 563.762,-380.414"/>
<polygon fill="midnightblue" stroke="midnightblue" points="612.815,-368.028 621.228,-361.589 610.636,-361.376 612.815,-368.028"/>
</g>
</g>
</svg>
