<?xml version="1.0" encoding="UTF-8" standalone="no"?>
<!DOCTYPE svg PUBLIC "-//W3C//DTD SVG 1.1//EN"
 "http://www.w3.org/Graphics/SVG/1.1/DTD/svg11.dtd">
<!-- Generated by graphviz version 2.38.0 (20140413.2041)
 -->
<!-- Title: setfield Pages: 1 -->
<svg width="240pt" height="66pt"
 viewBox="0.00 0.00 240.00 66.00" xmlns="http://www.w3.org/2000/svg" xmlns:xlink="http://www.w3.org/1999/xlink">
<g id="graph0" class="graph" transform="scale(1 1) rotate(0) translate(4 62)">
<title>setfield</title>
<polygon fill="white" stroke="none" points="-4,4 -4,-62 236,-62 236,4 -4,4"/>
<!-- Node1 -->
<g id="node1" class="node"><title>Node1</title>
<g id="a_node1"><a xlink:title=" ">
<polygon fill="#bfbfbf" stroke="black" points="185,-19.5 185,-38.5 232,-38.5 232,-19.5 185,-19.5"/>
<text text-anchor="middle" x="208.5" y="-26.5" font-family="Helvetica,sans-Serif" font-size="10.00">setfield</text>
</a>
</g>
</g>
<!-- Node2 -->
<g id="node2" class="node"><title>Node2</title>
<g id="a_node2"><a xlink:href="loslib_8c.html#ae4eca277a29a763a64ef611692c4b894" target="_top" xlink:title=" ">
<polygon fill="white" stroke="black" points="87,-19.5 87,-38.5 149,-38.5 149,-19.5 87,-19.5"/>
<text text-anchor="middle" x="118" y="-26.5" font-family="Helvetica,sans-Serif" font-size="10.00">setallfields</text>
</a>
</g>
</g>
<!-- Node1&#45;&gt;Node2 -->
<g id="edge1" class="edge"><title>Node1&#45;&gt;Node2</title>
<path fill="none" stroke="midnightblue" d="M174.536,-29C166.184,-29 157.258,-29 149.059,-29"/>
<polygon fill="midnightblue" stroke="midnightblue" points="174.709,-32.5001 184.709,-29 174.709,-25.5001 174.709,-32.5001"/>
</g>
<!-- Node3 -->
<g id="node3" class="node"><title>Node3</title>
<g id="a_node3"><a xlink:href="loslib_8c.html#a6520f2562b500aee87a6a475995adefb" target="_top" xlink:title=" ">
<polygon fill="white" stroke="black" points="0,-38.5 0,-57.5 51,-57.5 51,-38.5 0,-38.5"/>
<text text-anchor="middle" x="25.5" y="-45.5" font-family="Helvetica,sans-Serif" font-size="10.00">os_date</text>
</a>
</g>
</g>
<!-- Node2&#45;&gt;Node3 -->
<g id="edge2" class="edge"><title>Node2&#45;&gt;Node3</title>
<path fill="none" stroke="midnightblue" d="M77.0686,-37.3834C68.2235,-39.2404 59.1035,-41.1551 51.0857,-42.8384"/>
<polygon fill="midnightblue" stroke="midnightblue" points="77.7973,-40.8068 86.8648,-35.3267 76.359,-33.9561 77.7973,-40.8068"/>
</g>
<!-- Node4 -->
<g id="node4" class="node"><title>Node4</title>
<g id="a_node4"><a xlink:href="loslib_8c.html#ae32288bc9696b48450146e11c241f943" target="_top" xlink:title=" ">
<polygon fill="white" stroke="black" points="0,-0.5 0,-19.5 51,-19.5 51,-0.5 0,-0.5"/>
<text text-anchor="middle" x="25.5" y="-7.5" font-family="Helvetica,sans-Serif" font-size="10.00">os_time</text>
</a>
</g>
</g>
<!-- Node2&#45;&gt;Node4 -->
<g id="edge3" class="edge"><title>Node2&#45;&gt;Node4</title>
<path fill="none" stroke="midnightblue" d="M77.0686,-20.6166C68.2235,-18.7596 59.1035,-16.8449 51.0857,-15.1616"/>
<polygon fill="midnightblue" stroke="midnightblue" points="76.359,-24.0439 86.8648,-22.6733 77.7973,-17.1932 76.359,-24.0439"/>
</g>
</g>
</svg>
