<?xml version="1.0" encoding="UTF-8" standalone="no"?>
<!DOCTYPE svg PUBLIC "-//W3C//DTD SVG 1.1//EN"
 "http://www.w3.org/Graphics/SVG/1.1/DTD/svg11.dtd">
<!-- Generated by graphviz version 2.38.0 (20140413.2041)
 -->
<!-- Title: setboolfield Pages: 1 -->
<svg width="1799pt" height="626pt"
 viewBox="0.00 0.00 1799.00 626.00" xmlns="http://www.w3.org/2000/svg" xmlns:xlink="http://www.w3.org/1999/xlink">
<g id="graph0" class="graph" transform="scale(1 1) rotate(0) translate(4 622)">
<title>setboolfield</title>
<polygon fill="white" stroke="none" points="-4,4 -4,-622 1795,-622 1795,4 -4,4"/>
<!-- Node1 -->
<g id="node1" class="node"><title>Node1</title>
<g id="a_node1"><a xlink:title=" ">
<polygon fill="#bfbfbf" stroke="black" points="0,-332.5 0,-351.5 65,-351.5 65,-332.5 0,-332.5"/>
<text text-anchor="middle" x="32.5" y="-339.5" font-family="Helvetica,sans-Serif" font-size="10.00">setboolfield</text>
</a>
</g>
</g>
<!-- Node2 -->
<g id="node2" class="node"><title>Node2</title>
<g id="a_node2"><a xlink:href="lapi_8c.html#a56bbb7479265e38da2e2596e6ec25faa" target="_top" xlink:title=" ">
<polygon fill="white" stroke="black" points="101,-351.5 101,-370.5 190,-370.5 190,-351.5 101,-351.5"/>
<text text-anchor="middle" x="145.5" y="-358.5" font-family="Helvetica,sans-Serif" font-size="10.00">lua_pushboolean</text>
</a>
</g>
</g>
<!-- Node1&#45;&gt;Node2 -->
<g id="edge1" class="edge"><title>Node1&#45;&gt;Node2</title>
<path fill="none" stroke="midnightblue" d="M65.0112,-347.394C73.1142,-348.781 82.0619,-350.312 90.9432,-351.833"/>
<polygon fill="midnightblue" stroke="midnightblue" points="90.4465,-355.298 100.894,-353.536 91.6276,-348.399 90.4465,-355.298"/>
</g>
<!-- Node3 -->
<g id="node3" class="node"><title>Node3</title>
<g id="a_node3"><a xlink:href="lapi_8c.html#a3f2f542ee6728d82e51b1c302f9606df" target="_top" xlink:title=" ">
<polygon fill="white" stroke="black" points="113,-313.5 113,-332.5 178,-332.5 178,-313.5 113,-313.5"/>
<text text-anchor="middle" x="145.5" y="-320.5" font-family="Helvetica,sans-Serif" font-size="10.00">lua_setfield</text>
</a>
</g>
</g>
<!-- Node1&#45;&gt;Node3 -->
<g id="edge2" class="edge"><title>Node1&#45;&gt;Node3</title>
<path fill="none" stroke="midnightblue" d="M65.0112,-336.606C76.7285,-334.601 90.2123,-332.292 102.707,-330.154"/>
<polygon fill="midnightblue" stroke="midnightblue" points="103.644,-333.544 112.91,-328.407 102.463,-326.645 103.644,-333.544"/>
</g>
<!-- Node4 -->
<g id="node4" class="node"><title>Node4</title>
<g id="a_node4"><a xlink:href="lapi_8c.html#a0667fbf88666853554967226d9a3df4d" target="_top" xlink:title=" ">
<polygon fill="white" stroke="black" points="231,-332.5 231,-351.5 288,-351.5 288,-332.5 231,-332.5"/>
<text text-anchor="middle" x="259.5" y="-339.5" font-family="Helvetica,sans-Serif" font-size="10.00">auxsetstr</text>
</a>
</g>
</g>
<!-- Node3&#45;&gt;Node4 -->
<g id="edge3" class="edge"><title>Node3&#45;&gt;Node4</title>
<path fill="none" stroke="midnightblue" d="M178.295,-328.394C191.488,-330.632 206.901,-333.247 220.67,-335.582"/>
<polygon fill="midnightblue" stroke="midnightblue" points="220.37,-339.081 230.815,-337.303 221.541,-332.18 220.37,-339.081"/>
</g>
<!-- Node447 -->
<g id="node50" class="node"><title>Node447</title>
<g id="a_node50"><a xlink:href="lapi_8c.html#a7c66797ff8396fc9258bb9fc08e959d8" target="_top" xlink:title=" ">
<polygon fill="white" stroke="black" points="226,-294.5 226,-313.5 293,-313.5 293,-294.5 226,-294.5"/>
<text text-anchor="middle" x="259.5" y="-301.5" font-family="Helvetica,sans-Serif" font-size="10.00">index2value</text>
</a>
</g>
</g>
<!-- Node3&#45;&gt;Node447 -->
<g id="edge71" class="edge"><title>Node3&#45;&gt;Node447</title>
<path fill="none" stroke="midnightblue" d="M178.295,-317.606C189.916,-315.635 203.259,-313.371 215.683,-311.264"/>
<polygon fill="midnightblue" stroke="midnightblue" points="216.573,-314.663 225.846,-309.539 215.402,-307.761 216.573,-314.663"/>
</g>
<!-- Node5 -->
<g id="node5" class="node"><title>Node5</title>
<g id="a_node5"><a xlink:href="ltable_8c.html#ae273e09d2342a84f5cdfa976c66f28c0" target="_top" xlink:title=" ">
<polygon fill="white" stroke="black" points="449,-437.5 449,-456.5 515,-456.5 515,-437.5 449,-437.5"/>
<text text-anchor="middle" x="482" y="-444.5" font-family="Helvetica,sans-Serif" font-size="10.00">luaH_getstr</text>
</a>
</g>
</g>
<!-- Node4&#45;&gt;Node5 -->
<g id="edge4" class="edge"><title>Node4&#45;&gt;Node5</title>
<path fill="none" stroke="midnightblue" d="M280.457,-351.503C319.551,-370.119 406.364,-411.459 451.877,-433.132"/>
<polygon fill="midnightblue" stroke="midnightblue" points="450.396,-436.303 460.929,-437.443 453.406,-429.983 450.396,-436.303"/>
</g>
<!-- Node15 -->
<g id="node12" class="node"><title>Node15</title>
<g id="a_node12"><a xlink:href="lstring_8c.html#a6d47e53be6b8e58202bb927752f4824b" target="_top" xlink:title=" ">
<polygon fill="white" stroke="black" points="703.5,-114.5 703.5,-133.5 762.5,-133.5 762.5,-114.5 703.5,-114.5"/>
<text text-anchor="middle" x="733" y="-121.5" font-family="Helvetica,sans-Serif" font-size="10.00">luaS_new</text>
</a>
</g>
</g>
<!-- Node4&#45;&gt;Node15 -->
<g id="edge11" class="edge"><title>Node4&#45;&gt;Node15</title>
<path fill="none" stroke="midnightblue" d="M279.439,-332.369C284.08,-329.627 288.891,-326.441 293,-323 371.31,-257.408 351.112,-194.629 442,-148 523.457,-106.21 634.911,-111.559 693.074,-118.25"/>
<polygon fill="midnightblue" stroke="midnightblue" points="692.943,-121.76 703.294,-119.504 693.795,-114.812 692.943,-121.76"/>
</g>
<!-- Node408 -->
<g id="node36" class="node"><title>Node408</title>
<g id="a_node36"><a xlink:href="lvm_8c.html#a190116824dc13c5d37a6b2962f425a0d" target="_top" xlink:title=" ">
<polygon fill="white" stroke="black" points="329,-332.5 329,-351.5 406,-351.5 406,-332.5 329,-332.5"/>
<text text-anchor="middle" x="367.5" y="-339.5" font-family="Helvetica,sans-Serif" font-size="10.00">luaV_finishset</text>
</a>
</g>
</g>
<!-- Node4&#45;&gt;Node408 -->
<g id="edge43" class="edge"><title>Node4&#45;&gt;Node408</title>
<path fill="none" stroke="midnightblue" d="M288.074,-342C297.367,-342 308.027,-342 318.432,-342"/>
<polygon fill="midnightblue" stroke="midnightblue" points="318.691,-345.5 328.691,-342 318.691,-338.5 318.691,-345.5"/>
</g>
<!-- Node6 -->
<g id="node6" class="node"><title>Node6</title>
<g id="a_node6"><a xlink:href="ltable_8c.html#a9170d329b0dd746ca9b15db8c22a2127" target="_top" xlink:title=" ">
<polygon fill="white" stroke="black" points="574.5,-532.5 574.5,-551.5 636.5,-551.5 636.5,-532.5 574.5,-532.5"/>
<text text-anchor="middle" x="605.5" y="-539.5" font-family="Helvetica,sans-Serif" font-size="10.00">getgeneric</text>
</a>
</g>
</g>
<!-- Node5&#45;&gt;Node6 -->
<g id="edge5" class="edge"><title>Node5&#45;&gt;Node6</title>
<path fill="none" stroke="midnightblue" d="M490.33,-456.637C502.739,-472.39 529.349,-503.818 558,-523 560.754,-524.844 563.715,-526.559 566.76,-528.142"/>
<polygon fill="midnightblue" stroke="midnightblue" points="565.491,-531.413 576.03,-532.498 568.468,-525.078 565.491,-531.413"/>
</g>
<!-- Node14 -->
<g id="node11" class="node"><title>Node14</title>
<g id="a_node11"><a xlink:href="ltable_8c.html#ae8a52507e1c8966d9cf3f2dd5a0c325f" target="_top" xlink:title=" ">
<polygon fill="white" stroke="black" points="689,-342.5 689,-361.5 777,-361.5 777,-342.5 689,-342.5"/>
<text text-anchor="middle" x="733" y="-349.5" font-family="Helvetica,sans-Serif" font-size="10.00">luaH_getshortstr</text>
</a>
</g>
</g>
<!-- Node5&#45;&gt;Node14 -->
<g id="edge10" class="edge"><title>Node5&#45;&gt;Node14</title>
<path fill="none" stroke="midnightblue" d="M511.175,-437.489C545.059,-425.913 603.553,-405.49 653,-386 669.027,-379.683 686.654,-372.154 701.183,-365.788"/>
<polygon fill="midnightblue" stroke="midnightblue" points="702.952,-368.834 710.69,-361.597 700.128,-362.429 702.952,-368.834"/>
</g>
<!-- Node7 -->
<g id="node7" class="node"><title>Node7</title>
<g id="a_node7"><a xlink:href="ltable_8c.html#af84f7eafe0a1b410624263c29224fec9" target="_top" xlink:title=" ">
<polygon fill="white" stroke="black" points="705,-570.5 705,-589.5 761,-589.5 761,-570.5 705,-570.5"/>
<text text-anchor="middle" x="733" y="-577.5" font-family="Helvetica,sans-Serif" font-size="10.00">equalkey</text>
</a>
</g>
</g>
<!-- Node6&#45;&gt;Node7 -->
<g id="edge6" class="edge"><title>Node6&#45;&gt;Node7</title>
<path fill="none" stroke="midnightblue" d="M636.56,-551.102C654.14,-556.425 676.47,-563.186 695.109,-568.83"/>
<polygon fill="midnightblue" stroke="midnightblue" points="694.167,-572.202 704.753,-571.75 696.196,-565.502 694.167,-572.202"/>
</g>
<!-- Node9 -->
<g id="node9" class="node"><title>Node9</title>
<g id="a_node9"><a xlink:href="ltable_8c.html#a3f0add4aa38ab8e59a5983ebab80ab42" target="_top" xlink:title=" ">
<polygon fill="white" stroke="black" points="691.5,-532.5 691.5,-551.5 774.5,-551.5 774.5,-532.5 691.5,-532.5"/>
<text text-anchor="middle" x="733" y="-539.5" font-family="Helvetica,sans-Serif" font-size="10.00">mainpositionTV</text>
</a>
</g>
</g>
<!-- Node6&#45;&gt;Node9 -->
<g id="edge8" class="edge"><title>Node6&#45;&gt;Node9</title>
<path fill="none" stroke="midnightblue" d="M636.56,-542C649.876,-542 665.917,-542 681.015,-542"/>
<polygon fill="midnightblue" stroke="midnightblue" points="681.271,-545.5 691.271,-542 681.271,-538.5 681.271,-545.5"/>
</g>
<!-- Node8 -->
<g id="node8" class="node"><title>Node8</title>
<g id="a_node8"><a xlink:href="lstring_8c.html#a99b8eea92097f11885050ff629ff0f83" target="_top" xlink:title=" ">
<polygon fill="white" stroke="black" points="813,-570.5 813,-589.5 889,-589.5 889,-570.5 813,-570.5"/>
<text text-anchor="middle" x="851" y="-577.5" font-family="Helvetica,sans-Serif" font-size="10.00">luaS_eqlngstr</text>
</a>
</g>
</g>
<!-- Node7&#45;&gt;Node8 -->
<g id="edge7" class="edge"><title>Node7&#45;&gt;Node8</title>
<path fill="none" stroke="midnightblue" d="M761.197,-580C773.591,-580 788.628,-580 802.778,-580"/>
<polygon fill="midnightblue" stroke="midnightblue" points="802.874,-583.5 812.874,-580 802.874,-576.5 802.874,-583.5"/>
</g>
<!-- Node10 -->
<g id="node10" class="node"><title>Node10</title>
<g id="a_node10"><a xlink:href="ltable_8c.html#a97b549a3507ec326a9d138a741f39bbc" target="_top" xlink:title=" ">
<polygon fill="white" stroke="red" points="815.5,-513.5 815.5,-532.5 886.5,-532.5 886.5,-513.5 815.5,-513.5"/>
<text text-anchor="middle" x="851" y="-520.5" font-family="Helvetica,sans-Serif" font-size="10.00">mainposition</text>
</a>
</g>
</g>
<!-- Node9&#45;&gt;Node10 -->
<g id="edge9" class="edge"><title>Node9&#45;&gt;Node10</title>
<path fill="none" stroke="midnightblue" d="M774.571,-535.355C784.567,-533.717 795.325,-531.955 805.496,-530.289"/>
<polygon fill="midnightblue" stroke="midnightblue" points="806.119,-533.734 815.422,-528.664 804.988,-526.826 806.119,-533.734"/>
</g>
<!-- Node16 -->
<g id="node13" class="node"><title>Node16</title>
<g id="a_node13"><a xlink:href="lstring_8c.html#ab41fb084ce3ea5e2779f6659ccc2484d" target="_top" xlink:title=" ">
<polygon fill="white" stroke="black" points="815,-95.5 815,-114.5 887,-114.5 887,-95.5 815,-95.5"/>
<text text-anchor="middle" x="851" y="-102.5" font-family="Helvetica,sans-Serif" font-size="10.00">luaS_newlstr</text>
</a>
</g>
</g>
<!-- Node15&#45;&gt;Node16 -->
<g id="edge12" class="edge"><title>Node15&#45;&gt;Node16</title>
<path fill="none" stroke="midnightblue" d="M762.674,-119.303C775.307,-117.234 790.459,-114.752 804.569,-112.441"/>
<polygon fill="midnightblue" stroke="midnightblue" points="805.305,-115.867 814.608,-110.797 804.174,-108.959 805.305,-115.867"/>
</g>
<!-- Node17 -->
<g id="node14" class="node"><title>Node17</title>
<g id="a_node14"><a xlink:href="lstring_8c.html#a9b2c32c59a280de24f20df1c7f0433a1" target="_top" xlink:title=" ">
<polygon fill="white" stroke="black" points="945,-38.5 945,-57.5 1010,-57.5 1010,-38.5 945,-38.5"/>
<text text-anchor="middle" x="977.5" y="-45.5" font-family="Helvetica,sans-Serif" font-size="10.00">internshrstr</text>
</a>
</g>
</g>
<!-- Node16&#45;&gt;Node17 -->
<g id="edge13" class="edge"><title>Node16&#45;&gt;Node17</title>
<path fill="none" stroke="midnightblue" d="M868.811,-95.473C883.419,-87.3839 905.271,-75.7322 925,-67 929.502,-65.0075 934.283,-63.0455 939.049,-61.1828"/>
<polygon fill="midnightblue" stroke="midnightblue" points="940.602,-64.3372 948.713,-57.521 938.122,-57.7913 940.602,-64.3372"/>
</g>
<!-- Node446 -->
<g id="node18" class="node"><title>Node446</title>
<g id="a_node18"><a xlink:href="lmem_8c.html#a8fc7df43dd830ccbe7581fd53f65bdbe" target="_top" xlink:title=" ">
<polygon fill="white" stroke="black" points="943,-114.5 943,-133.5 1012,-133.5 1012,-114.5 943,-114.5"/>
<text text-anchor="middle" x="977.5" y="-121.5" font-family="Helvetica,sans-Serif" font-size="10.00">luaM_toobig</text>
</a>
</g>
</g>
<!-- Node16&#45;&gt;Node446 -->
<g id="edge17" class="edge"><title>Node16&#45;&gt;Node446</title>
<path fill="none" stroke="midnightblue" d="M887.012,-110.343C901.153,-112.501 917.631,-115.016 932.565,-117.295"/>
<polygon fill="midnightblue" stroke="midnightblue" points="932.196,-120.779 942.61,-118.828 933.252,-113.859 932.196,-120.779"/>
</g>
<!-- Node97 -->
<g id="node35" class="node"><title>Node97</title>
<g id="a_node35"><a xlink:href="lstring_8c.html#a8790c7d6e706f935dd6e9eefd068921c" target="_top" xlink:title=" ">
<polygon fill="white" stroke="black" points="925,-76.5 925,-95.5 1030,-95.5 1030,-76.5 925,-76.5"/>
<text text-anchor="middle" x="977.5" y="-83.5" font-family="Helvetica,sans-Serif" font-size="10.00">luaS_createlngstrobj</text>
</a>
</g>
</g>
<!-- Node16&#45;&gt;Node97 -->
<g id="edge41" class="edge"><title>Node16&#45;&gt;Node97</title>
<path fill="none" stroke="midnightblue" d="M887.012,-99.6569C895.568,-98.3511 904.98,-96.9147 914.387,-95.4791"/>
<polygon fill="midnightblue" stroke="midnightblue" points="915.196,-98.8963 924.553,-93.9276 914.139,-91.9764 915.196,-98.8963"/>
</g>
<!-- Node18 -->
<g id="node15" class="node"><title>Node18</title>
<g id="a_node15"><a xlink:href="lstring_8c.html#a85a1a917ef263701e47c36e68011d917" target="_top" xlink:title=" ">
<polygon fill="white" stroke="red" points="1069.5,-76.5 1069.5,-95.5 1137.5,-95.5 1137.5,-76.5 1069.5,-76.5"/>
<text text-anchor="middle" x="1103.5" y="-83.5" font-family="Helvetica,sans-Serif" font-size="10.00">createstrobj</text>
</a>
</g>
</g>
<!-- Node17&#45;&gt;Node18 -->
<g id="edge14" class="edge"><title>Node17&#45;&gt;Node18</title>
<path fill="none" stroke="midnightblue" d="M1009.79,-57.589C1025.5,-62.4044 1044.74,-68.2988 1061.61,-73.468"/>
<polygon fill="midnightblue" stroke="midnightblue" points="1060.63,-76.8304 1071.22,-76.4141 1062.68,-70.1376 1060.63,-76.8304"/>
</g>
<!-- Node20 -->
<g id="node16" class="node"><title>Node20</title>
<g id="a_node16"><a xlink:href="lstring_8c.html#af8b89b01dc2db9f0d3024067ffdb931a" target="_top" xlink:title=" ">
<polygon fill="white" stroke="red" points="1072.5,-38.5 1072.5,-57.5 1134.5,-57.5 1134.5,-38.5 1072.5,-38.5"/>
<text text-anchor="middle" x="1103.5" y="-45.5" font-family="Helvetica,sans-Serif" font-size="10.00">growstrtab</text>
</a>
</g>
</g>
<!-- Node17&#45;&gt;Node20 -->
<g id="edge15" class="edge"><title>Node17&#45;&gt;Node20</title>
<path fill="none" stroke="midnightblue" d="M1010.11,-48C1025.92,-48 1045.22,-48 1062.09,-48"/>
<polygon fill="midnightblue" stroke="midnightblue" points="1062.23,-51.5001 1072.23,-48 1062.23,-44.5001 1062.23,-51.5001"/>
</g>
<!-- Node13 -->
<g id="node17" class="node"><title>Node13</title>
<g id="a_node17"><a xlink:href="lstring_8c.html#ac453c0e85b7bb4e9b146fc140b1b7c9e" target="_top" xlink:title=" ">
<polygon fill="white" stroke="black" points="1072.5,-0.5 1072.5,-19.5 1134.5,-19.5 1134.5,-0.5 1072.5,-0.5"/>
<text text-anchor="middle" x="1103.5" y="-7.5" font-family="Helvetica,sans-Serif" font-size="10.00">luaS_hash</text>
</a>
</g>
</g>
<!-- Node17&#45;&gt;Node13 -->
<g id="edge16" class="edge"><title>Node17&#45;&gt;Node13</title>
<path fill="none" stroke="midnightblue" d="M1009.79,-38.411C1025.74,-33.522 1045.33,-27.5209 1062.38,-22.2958"/>
<polygon fill="midnightblue" stroke="midnightblue" points="1063.54,-25.5997 1072.08,-19.3232 1061.49,-18.9069 1063.54,-25.5997"/>
</g>
<!-- Node83 -->
<g id="node19" class="node"><title>Node83</title>
<g id="a_node19"><a xlink:href="ldebug_8c.html#a88d38ca5da2e7a1492fc9d5ad70c32c5" target="_top" xlink:title=" ">
<polygon fill="white" stroke="black" points="1066,-237.5 1066,-256.5 1141,-256.5 1141,-237.5 1066,-237.5"/>
<text text-anchor="middle" x="1103.5" y="-244.5" font-family="Helvetica,sans-Serif" font-size="10.00">luaG_runerror</text>
</a>
</g>
</g>
<!-- Node446&#45;&gt;Node83 -->
<g id="edge18" class="edge"><title>Node446&#45;&gt;Node83</title>
<path fill="none" stroke="midnightblue" d="M988.23,-133.652C1009.24,-154.489 1059.06,-203.914 1085.44,-230.078"/>
<polygon fill="midnightblue" stroke="midnightblue" points="1083.25,-232.836 1092.82,-237.393 1088.18,-227.866 1083.25,-232.836"/>
</g>
<!-- Node84 -->
<g id="node20" class="node"><title>Node84</title>
<g id="a_node20"><a xlink:href="ldebug_8c.html#ad6bc24d619df8e849e2ae8b00455d86f" target="_top" xlink:title=" ">
<polygon fill="white" stroke="black" points="1179.5,-237.5 1179.5,-256.5 1254.5,-256.5 1254.5,-237.5 1179.5,-237.5"/>
<text text-anchor="middle" x="1217" y="-244.5" font-family="Helvetica,sans-Serif" font-size="10.00">getcurrentline</text>
</a>
</g>
</g>
<!-- Node83&#45;&gt;Node84 -->
<g id="edge19" class="edge"><title>Node83&#45;&gt;Node84</title>
<path fill="none" stroke="midnightblue" d="M1141.01,-247C1150.06,-247 1159.88,-247 1169.34,-247"/>
<polygon fill="midnightblue" stroke="midnightblue" points="1169.41,-250.5 1179.41,-247 1169.41,-243.5 1169.41,-250.5"/>
</g>
<!-- Node87 -->
<g id="node23" class="node"><title>Node87</title>
<g id="a_node23"><a xlink:href="ldebug_8c.html#a7e1dc7518150bf19bd9aa5dda166a2eb" target="_top" xlink:title=" ">
<polygon fill="white" stroke="black" points="1180.5,-180.5 1180.5,-199.5 1253.5,-199.5 1253.5,-180.5 1180.5,-180.5"/>
<text text-anchor="middle" x="1217" y="-187.5" font-family="Helvetica,sans-Serif" font-size="10.00">luaG_addinfo</text>
</a>
</g>
</g>
<!-- Node83&#45;&gt;Node87 -->
<g id="edge22" class="edge"><title>Node83&#45;&gt;Node87</title>
<path fill="none" stroke="midnightblue" d="M1123.16,-237.459C1140.93,-228.376 1167.9,-214.59 1188.2,-204.213"/>
<polygon fill="midnightblue" stroke="midnightblue" points="1189.97,-207.24 1197.28,-199.572 1186.78,-201.007 1189.97,-207.24"/>
</g>
<!-- Node90 -->
<g id="node26" class="node"><title>Node90</title>
<g id="a_node26"><a xlink:href="lobject_8c.html#aa83fa444a36d79521e846a766fa083d5" target="_top" xlink:title=" ">
<polygon fill="white" stroke="black" points="1418,-303.5 1418,-322.5 1511,-322.5 1511,-303.5 1418,-303.5"/>
<text text-anchor="middle" x="1464.5" y="-310.5" font-family="Helvetica,sans-Serif" font-size="10.00">luaO_pushvfstring</text>
</a>
</g>
</g>
<!-- Node83&#45;&gt;Node90 -->
<g id="edge40" class="edge"><title>Node83&#45;&gt;Node90</title>
<path fill="none" stroke="midnightblue" d="M1141.22,-248.755C1152.63,-251.357 1165.29,-254.511 1177,-257 1264.03,-275.499 1367.25,-290.832 1422.96,-301.521"/>
<polygon fill="midnightblue" stroke="midnightblue" points="1422.31,-304.959 1432.8,-303.462 1423.66,-298.092 1422.31,-304.959"/>
</g>
<!-- Node119 -->
<g id="node32" class="node"><title>Node119</title>
<g id="a_node32"><a xlink:href="ldebug_8c.html#af7366920f8408bb33ed01b1d6c0e1238" target="_top" xlink:title=" ">
<polygon fill="white" stroke="black" points="1177,-394.5 1177,-413.5 1257,-413.5 1257,-394.5 1177,-394.5"/>
<text text-anchor="middle" x="1217" y="-401.5" font-family="Helvetica,sans-Serif" font-size="10.00">luaG_errormsg</text>
</a>
</g>
</g>
<!-- Node83&#45;&gt;Node119 -->
<g id="edge36" class="edge"><title>Node83&#45;&gt;Node119</title>
<path fill="none" stroke="midnightblue" d="M1111.47,-256.821C1129.78,-282.593 1179.4,-352.464 1203.08,-385.812"/>
<polygon fill="midnightblue" stroke="midnightblue" points="1200.38,-388.056 1209.03,-394.183 1206.09,-384.003 1200.38,-388.056"/>
</g>
<!-- Node80 -->
<g id="node21" class="node"><title>Node80</title>
<g id="a_node21"><a xlink:href="ldebug_8c.html#a7db2a3f5cbcf0ac3ef6d4cfa15ab4dbc" target="_top" xlink:title=" ">
<polygon fill="white" stroke="black" points="1309,-218.5 1309,-237.5 1366,-237.5 1366,-218.5 1309,-218.5"/>
<text text-anchor="middle" x="1337.5" y="-225.5" font-family="Helvetica,sans-Serif" font-size="10.00">currentpc</text>
</a>
</g>
</g>
<!-- Node84&#45;&gt;Node80 -->
<g id="edge20" class="edge"><title>Node84&#45;&gt;Node80</title>
<path fill="none" stroke="midnightblue" d="M1254.52,-241.144C1268.64,-238.881 1284.79,-236.292 1299,-234.013"/>
<polygon fill="midnightblue" stroke="midnightblue" points="1299.62,-237.457 1308.94,-232.418 1298.52,-230.546 1299.62,-237.457"/>
</g>
<!-- Node85 -->
<g id="node22" class="node"><title>Node85</title>
<g id="a_node22"><a xlink:href="ldebug_8c.html#ae7a6d2f88b11cc05758e44acd433ee2f" target="_top" xlink:title=" ">
<polygon fill="white" stroke="red" points="1293,-256.5 1293,-275.5 1382,-275.5 1382,-256.5 1293,-256.5"/>
<text text-anchor="middle" x="1337.5" y="-263.5" font-family="Helvetica,sans-Serif" font-size="10.00">luaG_getfuncline</text>
</a>
</g>
</g>
<!-- Node84&#45;&gt;Node85 -->
<g id="edge21" class="edge"><title>Node84&#45;&gt;Node85</title>
<path fill="none" stroke="midnightblue" d="M1254.52,-252.856C1263.5,-254.296 1273.31,-255.868 1282.92,-257.408"/>
<polygon fill="midnightblue" stroke="midnightblue" points="1282.38,-260.868 1292.81,-258.995 1283.49,-253.956 1282.38,-260.868"/>
</g>
<!-- Node88 -->
<g id="node24" class="node"><title>Node88</title>
<g id="a_node24"><a xlink:href="lobject_8c.html#ac331b4119bbeb45a8a7e5a1afe553b2e" target="_top" xlink:title=" ">
<polygon fill="white" stroke="black" points="1299.5,-180.5 1299.5,-199.5 1375.5,-199.5 1375.5,-180.5 1299.5,-180.5"/>
<text text-anchor="middle" x="1337.5" y="-187.5" font-family="Helvetica,sans-Serif" font-size="10.00">luaO_chunkid</text>
</a>
</g>
</g>
<!-- Node87&#45;&gt;Node88 -->
<g id="edge23" class="edge"><title>Node87&#45;&gt;Node88</title>
<path fill="none" stroke="midnightblue" d="M1253.55,-190C1264.73,-190 1277.26,-190 1289.12,-190"/>
<polygon fill="midnightblue" stroke="midnightblue" points="1289.33,-193.5 1299.33,-190 1289.33,-186.5 1289.33,-193.5"/>
</g>
<!-- Node89 -->
<g id="node25" class="node"><title>Node89</title>
<g id="a_node25"><a xlink:href="lobject_8c.html#a8e224db7123c74d695076a96d1bfda61" target="_top" xlink:title=" ">
<polygon fill="white" stroke="black" points="1293,-142.5 1293,-161.5 1382,-161.5 1382,-142.5 1293,-142.5"/>
<text text-anchor="middle" x="1337.5" y="-149.5" font-family="Helvetica,sans-Serif" font-size="10.00">luaO_pushfstring</text>
</a>
</g>
</g>
<!-- Node87&#45;&gt;Node89 -->
<g id="edge24" class="edge"><title>Node87&#45;&gt;Node89</title>
<path fill="none" stroke="midnightblue" d="M1247.9,-180.411C1262.78,-175.641 1280.96,-169.811 1296.97,-164.677"/>
<polygon fill="midnightblue" stroke="midnightblue" points="1298.15,-167.972 1306.61,-161.586 1296.02,-161.307 1298.15,-167.972"/>
</g>
<!-- Node89&#45;&gt;Node90 -->
<g id="edge25" class="edge"><title>Node89&#45;&gt;Node90</title>
<path fill="none" stroke="midnightblue" d="M1367.67,-161.639C1372.8,-164.166 1377.83,-167.26 1382,-171 1420.83,-205.808 1445.87,-263.658 1456.93,-293.645"/>
<polygon fill="midnightblue" stroke="midnightblue" points="1453.73,-295.088 1460.38,-303.338 1460.33,-292.743 1453.73,-295.088"/>
</g>
<!-- Node90&#45;&gt;Node83 -->
<g id="edge34" class="edge"><title>Node90&#45;&gt;Node83</title>
<path fill="none" stroke="midnightblue" d="M1417.6,-313.141C1360.82,-307.871 1261.31,-292.921 1177,-275 1159.38,-271.255 1139.62,-266.006 1125.19,-260.551"/>
<polygon fill="midnightblue" stroke="midnightblue" points="1126.3,-257.221 1115.72,-256.562 1123.58,-263.671 1126.3,-257.221"/>
</g>
<!-- Node91 -->
<g id="node27" class="node"><title>Node91</title>
<g id="a_node27"><a xlink:href="lobject_8c.html#a1d02fb9304e4700ce1fd20e34ae68784" target="_top" xlink:title=" ">
<polygon fill="white" stroke="red" points="1548.5,-341.5 1548.5,-360.5 1619.5,-360.5 1619.5,-341.5 1548.5,-341.5"/>
<text text-anchor="middle" x="1584" y="-348.5" font-family="Helvetica,sans-Serif" font-size="10.00">addnum2buff</text>
</a>
</g>
</g>
<!-- Node90&#45;&gt;Node91 -->
<g id="edge26" class="edge"><title>Node90&#45;&gt;Node91</title>
<path fill="none" stroke="midnightblue" d="M1495.15,-322.589C1509.9,-327.359 1527.93,-333.189 1543.8,-338.323"/>
<polygon fill="midnightblue" stroke="midnightblue" points="1542.77,-341.667 1553.36,-341.414 1544.92,-335.007 1542.77,-341.667"/>
</g>
<!-- Node92 -->
<g id="node28" class="node"><title>Node92</title>
<g id="a_node28"><a xlink:href="lobject_8c.html#ac4ab924f2ea45ef73319f1159033eab1" target="_top" xlink:title=" ">
<polygon fill="white" stroke="black" points="1657,-303.5 1657,-322.5 1702,-322.5 1702,-303.5 1657,-303.5"/>
<text text-anchor="middle" x="1679.5" y="-310.5" font-family="Helvetica,sans-Serif" font-size="10.00">getbuff</text>
</a>
</g>
</g>
<!-- Node90&#45;&gt;Node92 -->
<g id="edge33" class="edge"><title>Node90&#45;&gt;Node92</title>
<path fill="none" stroke="midnightblue" d="M1511.19,-313C1551.96,-313 1610.6,-313 1646.54,-313"/>
<polygon fill="midnightblue" stroke="midnightblue" points="1646.92,-316.5 1656.92,-313 1646.92,-309.5 1646.92,-316.5"/>
</g>
<!-- Node93 -->
<g id="node29" class="node"><title>Node93</title>
<g id="a_node29"><a xlink:href="lobject_8c.html#a6ec2716e64cd75e3e6614a87ee92e4d2" target="_top" xlink:title=" ">
<polygon fill="white" stroke="red" points="1738,-303.5 1738,-322.5 1791,-322.5 1791,-303.5 1738,-303.5"/>
<text text-anchor="middle" x="1764.5" y="-310.5" font-family="Helvetica,sans-Serif" font-size="10.00">clearbuff</text>
</a>
</g>
</g>
<!-- Node90&#45;&gt;Node93 -->
<g id="edge32" class="edge"><title>Node90&#45;&gt;Node93</title>
<path fill="none" stroke="midnightblue" d="M1474.95,-322.619C1489.11,-336.276 1517.36,-360.662 1547,-370 1616.5,-391.892 1700.31,-351.153 1740.2,-327.773"/>
<polygon fill="midnightblue" stroke="midnightblue" points="1742.16,-330.682 1748.92,-322.526 1738.55,-324.684 1742.16,-330.682"/>
</g>
<!-- Node117 -->
<g id="node30" class="node"><title>Node117</title>
<g id="a_node30"><a xlink:href="lobject_8c.html#a874ab64f433ee35f2197a81e10452cb1" target="_top" xlink:title=" ">
<polygon fill="white" stroke="red" points="1552,-265.5 1552,-284.5 1616,-284.5 1616,-265.5 1552,-265.5"/>
<text text-anchor="middle" x="1584" y="-272.5" font-family="Helvetica,sans-Serif" font-size="10.00">addstr2buff</text>
</a>
</g>
</g>
<!-- Node90&#45;&gt;Node117 -->
<g id="edge29" class="edge"><title>Node90&#45;&gt;Node117</title>
<path fill="none" stroke="midnightblue" d="M1495.15,-303.411C1509.9,-298.641 1527.93,-292.811 1543.8,-287.677"/>
<polygon fill="midnightblue" stroke="midnightblue" points="1544.92,-290.993 1553.36,-284.586 1542.77,-284.333 1544.92,-290.993"/>
</g>
<!-- Node118 -->
<g id="node31" class="node"><title>Node118</title>
<g id="a_node31"><a xlink:href="lobject_8c.html#af3136de4693789b08f78aafda9604676" target="_top" xlink:title=" ">
<polygon fill="white" stroke="black" points="1547,-227.5 1547,-246.5 1621,-246.5 1621,-227.5 1547,-227.5"/>
<text text-anchor="middle" x="1584" y="-234.5" font-family="Helvetica,sans-Serif" font-size="10.00">luaO_utf8esc</text>
</a>
</g>
</g>
<!-- Node90&#45;&gt;Node118 -->
<g id="edge35" class="edge"><title>Node90&#45;&gt;Node118</title>
<path fill="none" stroke="midnightblue" d="M1478.15,-303.408C1493.9,-291.647 1521.8,-271.381 1547,-256 1549.49,-254.481 1552.11,-252.959 1554.76,-251.473"/>
<polygon fill="midnightblue" stroke="midnightblue" points="1556.58,-254.468 1563.7,-246.622 1553.24,-248.315 1556.58,-254.468"/>
</g>
<!-- Node91&#45;&gt;Node92 -->
<g id="edge27" class="edge"><title>Node91&#45;&gt;Node92</title>
<path fill="none" stroke="midnightblue" d="M1608.59,-341.411C1620.41,-336.61 1634.86,-330.737 1647.55,-325.58"/>
<polygon fill="midnightblue" stroke="midnightblue" points="1648.89,-328.812 1656.84,-321.805 1646.25,-322.327 1648.89,-328.812"/>
</g>
<!-- Node92&#45;&gt;Node93 -->
<g id="edge28" class="edge"><title>Node92&#45;&gt;Node93</title>
<path fill="none" stroke="midnightblue" d="M1702.31,-313C1710.02,-313 1718.92,-313 1727.5,-313"/>
<polygon fill="midnightblue" stroke="midnightblue" points="1727.71,-316.5 1737.71,-313 1727.71,-309.5 1727.71,-316.5"/>
</g>
<!-- Node117&#45;&gt;Node92 -->
<g id="edge31" class="edge"><title>Node117&#45;&gt;Node92</title>
<path fill="none" stroke="midnightblue" d="M1608.59,-284.589C1620.41,-289.39 1634.86,-295.263 1647.55,-300.42"/>
<polygon fill="midnightblue" stroke="midnightblue" points="1646.25,-303.673 1656.84,-304.195 1648.89,-297.188 1646.25,-303.673"/>
</g>
<!-- Node117&#45;&gt;Node93 -->
<g id="edge30" class="edge"><title>Node117&#45;&gt;Node93</title>
<path fill="none" stroke="midnightblue" d="M1616.02,-278.844C1639.74,-282.069 1673.15,-287.235 1702,-294 1710.6,-296.017 1719.76,-298.6 1728.3,-301.208"/>
<polygon fill="midnightblue" stroke="midnightblue" points="1727.4,-304.591 1737.98,-304.247 1729.49,-297.913 1727.4,-304.591"/>
</g>
<!-- Node62 -->
<g id="node33" class="node"><title>Node62</title>
<g id="a_node33"><a xlink:href="ldo_8c.html#a61c0a0185ef5ae1493dad10027f4db7e" target="_top" xlink:title=" ">
<polygon fill="white" stroke="red" points="1294,-555.5 1294,-574.5 1381,-574.5 1381,-555.5 1294,-555.5"/>
<text text-anchor="middle" x="1337.5" y="-562.5" font-family="Helvetica,sans-Serif" font-size="10.00">luaD_callnoyield</text>
</a>
</g>
</g>
<!-- Node119&#45;&gt;Node62 -->
<g id="edge37" class="edge"><title>Node119&#45;&gt;Node62</title>
<path fill="none" stroke="midnightblue" d="M1225.06,-413.589C1244.36,-439.813 1298.25,-513.031 1323.34,-547.118"/>
<polygon fill="midnightblue" stroke="midnightblue" points="1320.58,-549.279 1329.33,-555.258 1326.22,-545.129 1320.58,-549.279"/>
</g>
<!-- Node120 -->
<g id="node34" class="node"><title>Node120</title>
<g id="a_node34"><a xlink:href="ldo_8c.html#a2b46d9db5b9ca3d5402a0c2ac640a6b0" target="_top" xlink:title=" ">
<polygon fill="white" stroke="red" points="1305,-394.5 1305,-413.5 1370,-413.5 1370,-394.5 1305,-394.5"/>
<text text-anchor="middle" x="1337.5" y="-401.5" font-family="Helvetica,sans-Serif" font-size="10.00">luaD_throw</text>
</a>
</g>
</g>
<!-- Node119&#45;&gt;Node120 -->
<g id="edge38" class="edge"><title>Node119&#45;&gt;Node120</title>
<path fill="none" stroke="midnightblue" d="M1257.13,-404C1269.12,-404 1282.36,-404 1294.54,-404"/>
<polygon fill="midnightblue" stroke="midnightblue" points="1294.9,-407.5 1304.9,-404 1294.9,-400.5 1294.9,-407.5"/>
</g>
<!-- Node120&#45;&gt;Node120 -->
<g id="edge39" class="edge"><title>Node120&#45;&gt;Node120</title>
<path fill="none" stroke="midnightblue" d="M1319,-413.757C1310.01,-422.565 1316.17,-432 1337.5,-432 1351.16,-432 1358.6,-428.128 1359.82,-423.029"/>
<polygon fill="midnightblue" stroke="midnightblue" points="1363.05,-421.666 1356,-413.757 1356.57,-424.336 1363.05,-421.666"/>
</g>
<!-- Node97&#45;&gt;Node18 -->
<g id="edge42" class="edge"><title>Node97&#45;&gt;Node18</title>
<path fill="none" stroke="midnightblue" d="M1030.01,-86C1039.68,-86 1049.7,-86 1059.09,-86"/>
<polygon fill="midnightblue" stroke="midnightblue" points="1059.38,-89.5001 1069.38,-86 1059.38,-82.5001 1059.38,-89.5001"/>
</g>
<!-- Node408&#45;&gt;Node83 -->
<g id="edge44" class="edge"><title>Node408&#45;&gt;Node83</title>
<path fill="none" stroke="midnightblue" d="M373.089,-332.427C383.075,-312.467 408.589,-265.943 442,-238 503.16,-186.849 524.769,-162 604.5,-162 604.5,-162 604.5,-162 734,-162 860.201,-162 1004.64,-209.921 1068.78,-233.8"/>
<polygon fill="midnightblue" stroke="midnightblue" points="1067.77,-237.162 1078.36,-237.415 1070.24,-230.612 1067.77,-237.162"/>
</g>
<!-- Node103 -->
<g id="node37" class="node"><title>Node103</title>
<g id="a_node37"><a xlink:href="ldebug_8c.html#a60bf9ce85441bd5065f2b73640163711" target="_top" xlink:title=" ">
<polygon fill="white" stroke="black" points="442,-247.5 442,-266.5 522,-266.5 522,-247.5 442,-247.5"/>
<text text-anchor="middle" x="482" y="-254.5" font-family="Helvetica,sans-Serif" font-size="10.00">luaG_typeerror</text>
</a>
</g>
</g>
<!-- Node408&#45;&gt;Node103 -->
<g id="edge45" class="edge"><title>Node408&#45;&gt;Node103</title>
<path fill="none" stroke="midnightblue" d="M381.405,-332.249C400.648,-317.711 437.062,-290.198 460.124,-272.773"/>
<polygon fill="midnightblue" stroke="midnightblue" points="462.377,-275.458 468.245,-266.637 458.157,-269.873 462.377,-275.458"/>
</g>
<!-- Node159 -->
<g id="node42" class="node"><title>Node159</title>
<g id="a_node42"><a xlink:href="ltable_8c.html#a72e6b8ad422b01d0b34197134cec1f7a" target="_top" xlink:title=" ">
<polygon fill="white" stroke="black" points="443.5,-399.5 443.5,-418.5 520.5,-418.5 520.5,-399.5 443.5,-399.5"/>
<text text-anchor="middle" x="482" y="-406.5" font-family="Helvetica,sans-Serif" font-size="10.00">luaH_finishset</text>
</a>
</g>
</g>
<!-- Node408&#45;&gt;Node159 -->
<g id="edge55" class="edge"><title>Node408&#45;&gt;Node159</title>
<path fill="none" stroke="midnightblue" d="M381.997,-351.549C396.502,-361.636 420.392,-377.744 442,-390 444.883,-391.635 447.926,-393.269 450.991,-394.854"/>
<polygon fill="midnightblue" stroke="midnightblue" points="449.596,-398.07 460.105,-399.416 452.729,-391.811 449.596,-398.07"/>
</g>
<!-- Node163 -->
<g id="node45" class="node"><title>Node163</title>
<g id="a_node45"><a xlink:href="ltable_8c.html#a8b4fce00d7db27ee9caac3d49863dea3" target="_top" xlink:title=" ">
<polygon fill="white" stroke="black" points="454.5,-361.5 454.5,-380.5 509.5,-380.5 509.5,-361.5 454.5,-361.5"/>
<text text-anchor="middle" x="482" y="-368.5" font-family="Helvetica,sans-Serif" font-size="10.00">luaH_get</text>
</a>
</g>
</g>
<!-- Node408&#45;&gt;Node163 -->
<g id="edge61" class="edge"><title>Node408&#45;&gt;Node163</title>
<path fill="none" stroke="midnightblue" d="M405.648,-351.576C418.049,-354.773 431.854,-358.331 444.226,-361.521"/>
<polygon fill="midnightblue" stroke="midnightblue" points="443.662,-364.989 454.219,-364.096 445.409,-358.211 443.662,-364.989"/>
</g>
<!-- Node409 -->
<g id="node47" class="node"><title>Node409</title>
<g id="a_node47"><a xlink:href="ltm_8c.html#a719f499f44a66a0fe32eef5a2c485ba3" target="_top" xlink:title=" ">
<polygon fill="white" stroke="black" points="448,-570.5 448,-589.5 516,-589.5 516,-570.5 448,-570.5"/>
<text text-anchor="middle" x="482" y="-577.5" font-family="Helvetica,sans-Serif" font-size="10.00">luaT_callTM</text>
</a>
</g>
</g>
<!-- Node408&#45;&gt;Node409 -->
<g id="edge66" class="edge"><title>Node408&#45;&gt;Node409</title>
<path fill="none" stroke="midnightblue" d="M373.049,-351.625C389.939,-387.354 449.234,-512.798 472.003,-560.967"/>
<polygon fill="midnightblue" stroke="midnightblue" points="468.956,-562.71 476.394,-570.256 475.285,-559.719 468.956,-562.71"/>
</g>
<!-- Node77 -->
<g id="node49" class="node"><title>Node77</title>
<g id="a_node49"><a xlink:href="ltm_8c.html#a0a3a3df9d6e7f17d806f74d411e59b2d" target="_top" xlink:title=" ">
<polygon fill="white" stroke="black" points="561.5,-304.5 561.5,-323.5 649.5,-323.5 649.5,-304.5 561.5,-304.5"/>
<text text-anchor="middle" x="605.5" y="-311.5" font-family="Helvetica,sans-Serif" font-size="10.00">luaT_gettmbyobj</text>
</a>
</g>
</g>
<!-- Node408&#45;&gt;Node77 -->
<g id="edge69" class="edge"><title>Node408&#45;&gt;Node77</title>
<path fill="none" stroke="midnightblue" d="M406.156,-337.532C445.393,-332.877 507.202,-325.544 551.391,-320.301"/>
<polygon fill="midnightblue" stroke="midnightblue" points="551.86,-323.77 561.378,-319.116 551.035,-316.819 551.86,-323.77"/>
</g>
<!-- Node103&#45;&gt;Node83 -->
<g id="edge46" class="edge"><title>Node103&#45;&gt;Node83</title>
<path fill="none" stroke="midnightblue" d="M522.175,-252.156C571.165,-246.527 657.646,-238 732,-238 732,-238 732,-238 852,-238 922.896,-238 1005,-241.645 1055.34,-244.295"/>
<polygon fill="midnightblue" stroke="midnightblue" points="1055.42,-247.804 1065.59,-244.844 1055.79,-240.814 1055.42,-247.804"/>
</g>
<!-- Node104 -->
<g id="node38" class="node"><title>Node104</title>
<g id="a_node38"><a xlink:href="ltm_8c.html#a6774390baf68edcb78194d0e0f8546ab" target="_top" xlink:title=" ">
<polygon fill="white" stroke="black" points="558,-266.5 558,-285.5 653,-285.5 653,-266.5 558,-266.5"/>
<text text-anchor="middle" x="605.5" y="-273.5" font-family="Helvetica,sans-Serif" font-size="10.00">luaT_objtypename</text>
</a>
</g>
</g>
<!-- Node103&#45;&gt;Node104 -->
<g id="edge47" class="edge"><title>Node103&#45;&gt;Node104</title>
<path fill="none" stroke="midnightblue" d="M522.112,-263.116C530.289,-264.395 539.068,-265.768 547.738,-267.124"/>
<polygon fill="midnightblue" stroke="midnightblue" points="547.403,-270.614 557.824,-268.701 548.484,-263.698 547.403,-270.614"/>
</g>
<!-- Node105 -->
<g id="node39" class="node"><title>Node105</title>
<g id="a_node39"><a xlink:href="ldebug_8c.html#a86692faa1669d631d38c24993d511dd5" target="_top" xlink:title=" ">
<polygon fill="white" stroke="red" points="1195,-142.5 1195,-161.5 1239,-161.5 1239,-142.5 1195,-142.5"/>
<text text-anchor="middle" x="1217" y="-149.5" font-family="Helvetica,sans-Serif" font-size="10.00">varinfo</text>
</a>
</g>
</g>
<!-- Node103&#45;&gt;Node105 -->
<g id="edge50" class="edge"><title>Node103&#45;&gt;Node105</title>
<path fill="none" stroke="midnightblue" d="M513.406,-247.397C526.947,-243.404 543.158,-239.009 558,-236 796.551,-187.646 1089.71,-161.878 1184.71,-154.361"/>
<polygon fill="midnightblue" stroke="midnightblue" points="1185.1,-157.842 1194.79,-153.573 1184.55,-150.863 1185.1,-157.842"/>
</g>
<!-- Node104&#45;&gt;Node14 -->
<g id="edge48" class="edge"><title>Node104&#45;&gt;Node14</title>
<path fill="none" stroke="midnightblue" d="M633.077,-285.593C639.728,-288.335 646.747,-291.531 653,-295 674.588,-306.975 697.242,-323.826 712.727,-336.099"/>
<polygon fill="midnightblue" stroke="midnightblue" points="710.555,-338.844 720.54,-342.386 714.944,-333.39 710.555,-338.844"/>
</g>
<!-- Node104&#45;&gt;Node15 -->
<g id="edge49" class="edge"><title>Node104&#45;&gt;Node15</title>
<path fill="none" stroke="midnightblue" d="M614.351,-266.492C634.952,-241.54 690.804,-173.894 717.461,-141.608"/>
<polygon fill="midnightblue" stroke="midnightblue" points="720.484,-143.444 724.152,-133.505 715.087,-138.988 720.484,-143.444"/>
</g>
<!-- Node105&#45;&gt;Node80 -->
<g id="edge51" class="edge"><title>Node105&#45;&gt;Node80</title>
<path fill="none" stroke="midnightblue" d="M1239.03,-160.549C1245.09,-163.452 1251.53,-166.991 1257,-171 1275.76,-184.76 1273.96,-195.632 1293,-209 1295.4,-210.687 1297.98,-212.272 1300.63,-213.752"/>
<polygon fill="midnightblue" stroke="midnightblue" points="1299.32,-217.008 1309.83,-218.367 1302.46,-210.752 1299.32,-217.008"/>
</g>
<!-- Node105&#45;&gt;Node89 -->
<g id="edge54" class="edge"><title>Node105&#45;&gt;Node89</title>
<path fill="none" stroke="midnightblue" d="M1239.19,-152C1251.42,-152 1267.4,-152 1282.87,-152"/>
<polygon fill="midnightblue" stroke="midnightblue" points="1282.92,-155.5 1292.92,-152 1282.92,-148.5 1282.92,-155.5"/>
</g>
<!-- Node106 -->
<g id="node40" class="node"><title>Node106</title>
<g id="a_node40"><a xlink:href="ldebug_8c.html#a5ccea5c2124ac2e629562b0ff7f440a6" target="_top" xlink:title=" ">
<polygon fill="white" stroke="red" points="1304,-66.5 1304,-85.5 1371,-85.5 1371,-66.5 1304,-66.5"/>
<text text-anchor="middle" x="1337.5" y="-73.5" font-family="Helvetica,sans-Serif" font-size="10.00">getobjname</text>
</a>
</g>
</g>
<!-- Node105&#45;&gt;Node106 -->
<g id="edge52" class="edge"><title>Node105&#45;&gt;Node106</title>
<path fill="none" stroke="midnightblue" d="M1229.09,-142.216C1243.22,-130.076 1268.74,-109.241 1293,-95 1296,-93.236 1299.2,-91.5364 1302.45,-89.928"/>
<polygon fill="midnightblue" stroke="midnightblue" points="1304.02,-93.057 1311.61,-85.6592 1301.06,-86.7126 1304.02,-93.057"/>
</g>
<!-- Node114 -->
<g id="node41" class="node"><title>Node114</title>
<g id="a_node41"><a xlink:href="ldebug_8c.html#aa34de8e3a8dd64cda6ce15e2296dff9b" target="_top" xlink:title=" ">
<polygon fill="white" stroke="red" points="1299.5,-104.5 1299.5,-123.5 1375.5,-123.5 1375.5,-104.5 1299.5,-104.5"/>
<text text-anchor="middle" x="1337.5" y="-111.5" font-family="Helvetica,sans-Serif" font-size="10.00">getupvalname</text>
</a>
</g>
</g>
<!-- Node105&#45;&gt;Node114 -->
<g id="edge53" class="edge"><title>Node105&#45;&gt;Node114</title>
<path fill="none" stroke="midnightblue" d="M1239.19,-145.206C1255.17,-140.08 1277.57,-132.897 1296.85,-126.715"/>
<polygon fill="midnightblue" stroke="midnightblue" points="1298.14,-129.976 1306.6,-123.59 1296,-123.311 1298.14,-129.976"/>
</g>
<!-- Node160 -->
<g id="node43" class="node"><title>Node160</title>
<g id="a_node43"><a xlink:href="ltable_8c.html#a6ce3d9b25029784215e203196f0d0686" target="_top" xlink:title=" ">
<polygon fill="white" stroke="red" points="568.5,-494.5 568.5,-513.5 642.5,-513.5 642.5,-494.5 568.5,-494.5"/>
<text text-anchor="middle" x="605.5" y="-501.5" font-family="Helvetica,sans-Serif" font-size="10.00">luaH_newkey</text>
</a>
</g>
</g>
<!-- Node159&#45;&gt;Node160 -->
<g id="edge56" class="edge"><title>Node159&#45;&gt;Node160</title>
<path fill="none" stroke="midnightblue" d="M507.695,-418.651C512.728,-421.251 517.771,-424.37 522,-428 543.33,-446.307 536.883,-461.447 558,-480 561.993,-483.508 566.589,-486.666 571.304,-489.45"/>
<polygon fill="midnightblue" stroke="midnightblue" points="569.926,-492.684 580.391,-494.34 573.243,-486.519 569.926,-492.684"/>
</g>
<!-- Node160&#45;&gt;Node9 -->
<g id="edge60" class="edge"><title>Node160&#45;&gt;Node9</title>
<path fill="none" stroke="midnightblue" d="M638.169,-513.589C654.073,-518.404 673.54,-524.299 690.611,-529.468"/>
<polygon fill="midnightblue" stroke="midnightblue" points="689.756,-532.866 700.341,-532.414 691.785,-526.166 689.756,-532.866"/>
</g>
<!-- Node160&#45;&gt;Node10 -->
<g id="edge59" class="edge"><title>Node160&#45;&gt;Node10</title>
<path fill="none" stroke="midnightblue" d="M642.691,-506.824C685.924,-510.197 758.259,-515.842 805.038,-519.492"/>
<polygon fill="midnightblue" stroke="midnightblue" points="804.948,-522.995 815.19,-520.284 805.492,-516.016 804.948,-522.995"/>
</g>
<!-- Node160&#45;&gt;Node83 -->
<g id="edge57" class="edge"><title>Node160&#45;&gt;Node83</title>
<path fill="none" stroke="midnightblue" d="M642.684,-494.508C677.842,-484.685 732.317,-467.862 777,-447 898.325,-390.356 1030.72,-298.675 1081.27,-262.442"/>
<polygon fill="midnightblue" stroke="midnightblue" points="1083.41,-265.219 1089.48,-256.535 1079.32,-259.54 1083.41,-265.219"/>
</g>
<!-- Node134 -->
<g id="node44" class="node"><title>Node134</title>
<g id="a_node44"><a xlink:href="lvm_8c.html#a3a9a9378ccdbd0ea4cba6555673dccf9" target="_top" xlink:title=" ">
<polygon fill="white" stroke="black" points="690,-418.5 690,-437.5 776,-437.5 776,-418.5 690,-418.5"/>
<text text-anchor="middle" x="733" y="-425.5" font-family="Helvetica,sans-Serif" font-size="10.00">luaV_flttointeger</text>
</a>
</g>
</g>
<!-- Node160&#45;&gt;Node134 -->
<g id="edge58" class="edge"><title>Node160&#45;&gt;Node134</title>
<path fill="none" stroke="midnightblue" d="M627.328,-494.279C635.519,-490.193 644.886,-485.186 653,-480 670.079,-469.083 672.101,-463.194 689,-452 693.811,-448.813 699.074,-445.638 704.217,-442.691"/>
<polygon fill="midnightblue" stroke="midnightblue" points="706.187,-445.6 713.22,-437.677 702.781,-439.484 706.187,-445.6"/>
</g>
<!-- Node163&#45;&gt;Node6 -->
<g id="edge62" class="edge"><title>Node163&#45;&gt;Node6</title>
<path fill="none" stroke="midnightblue" d="M509.526,-380.08C514.202,-382.675 518.64,-385.937 522,-390 561.023,-437.195 517.454,-477.107 558,-523 560.194,-525.483 562.761,-527.648 565.543,-529.534"/>
<polygon fill="midnightblue" stroke="midnightblue" points="563.922,-532.637 574.37,-534.396 567.299,-526.506 563.922,-532.637"/>
</g>
<!-- Node163&#45;&gt;Node14 -->
<g id="edge64" class="edge"><title>Node163&#45;&gt;Node14</title>
<path fill="none" stroke="midnightblue" d="M509.616,-372.931C543.177,-374.922 602.589,-376.977 653,-371 665.257,-369.547 678.365,-366.867 690.309,-363.97"/>
<polygon fill="midnightblue" stroke="midnightblue" points="691.192,-367.357 700.025,-361.506 689.471,-360.571 691.192,-367.357"/>
</g>
<!-- Node163&#45;&gt;Node134 -->
<g id="edge65" class="edge"><title>Node163&#45;&gt;Node134</title>
<path fill="none" stroke="midnightblue" d="M509.647,-377.1C550.226,-386.389 628.269,-404.254 680.249,-416.153"/>
<polygon fill="midnightblue" stroke="midnightblue" points="679.75,-419.63 690.279,-418.449 681.312,-412.806 679.75,-419.63"/>
</g>
<!-- Node164 -->
<g id="node46" class="node"><title>Node164</title>
<g id="a_node46"><a xlink:href="ltable_8c.html#ae142cefd44452389877c3e3187c7973e" target="_top" xlink:title=" ">
<polygon fill="white" stroke="red" points="573,-342.5 573,-361.5 638,-361.5 638,-342.5 573,-342.5"/>
<text text-anchor="middle" x="605.5" y="-349.5" font-family="Helvetica,sans-Serif" font-size="10.00">luaH_getint</text>
</a>
</g>
</g>
<!-- Node163&#45;&gt;Node164 -->
<g id="edge63" class="edge"><title>Node163&#45;&gt;Node164</title>
<path fill="none" stroke="midnightblue" d="M509.664,-366.83C525.196,-364.401 545.125,-361.285 562.701,-358.536"/>
<polygon fill="midnightblue" stroke="midnightblue" points="563.388,-361.972 572.727,-356.969 562.307,-355.056 563.388,-361.972"/>
</g>
<!-- Node409&#45;&gt;Node62 -->
<g id="edge68" class="edge"><title>Node409&#45;&gt;Node62</title>
<path fill="none" stroke="midnightblue" d="M516.012,-589.42C529.009,-592.851 544.12,-596.497 558,-599 634.558,-612.808 654.207,-618 732,-618 732,-618 732,-618 1104.5,-618 1176.14,-618 1257.16,-593.688 1301.99,-577.996"/>
<polygon fill="midnightblue" stroke="midnightblue" points="1303.28,-581.253 1311.52,-574.598 1300.93,-574.659 1303.28,-581.253"/>
</g>
<!-- Node101 -->
<g id="node48" class="node"><title>Node101</title>
<g id="a_node48"><a xlink:href="ldo_8c.html#a5483fddd87ca999e7d037bf397ab7997" target="_top" xlink:title=" ">
<polygon fill="white" stroke="red" points="577.5,-570.5 577.5,-589.5 633.5,-589.5 633.5,-570.5 577.5,-570.5"/>
<text text-anchor="middle" x="605.5" y="-577.5" font-family="Helvetica,sans-Serif" font-size="10.00">luaD_call</text>
</a>
</g>
</g>
<!-- Node409&#45;&gt;Node101 -->
<g id="edge67" class="edge"><title>Node409&#45;&gt;Node101</title>
<path fill="none" stroke="midnightblue" d="M516.2,-580C531.993,-580 550.936,-580 567.221,-580"/>
<polygon fill="midnightblue" stroke="midnightblue" points="567.479,-583.5 577.479,-580 567.479,-576.5 567.479,-583.5"/>
</g>
<!-- Node77&#45;&gt;Node14 -->
<g id="edge70" class="edge"><title>Node77&#45;&gt;Node14</title>
<path fill="none" stroke="midnightblue" d="M638.169,-323.589C654.073,-328.404 673.54,-334.299 690.611,-339.468"/>
<polygon fill="midnightblue" stroke="midnightblue" points="689.756,-342.866 700.341,-342.414 691.785,-336.166 689.756,-342.866"/>
</g>
</g>
</svg>
