<?xml version="1.0" encoding="UTF-8" standalone="no"?>
<!DOCTYPE svg PUBLIC "-//W3C//DTD SVG 1.1//EN"
 "http://www.w3.org/Graphics/SVG/1.1/DTD/svg11.dtd">
<!-- Generated by graphviz version 2.38.0 (20140413.2041)
 -->
<!-- Title: leaveblock Pages: 1 -->
<svg width="2621pt" height="366pt"
 viewBox="0.00 0.00 2621.00 365.76" xmlns="http://www.w3.org/2000/svg" xmlns:xlink="http://www.w3.org/1999/xlink">
<g id="graph0" class="graph" transform="scale(1 1) rotate(0) translate(4 361.761)">
<title>leaveblock</title>
<polygon fill="white" stroke="none" points="-4,4 -4,-361.761 2617,-361.761 2617,4 -4,4"/>
<!-- Node1 -->
<g id="node1" class="node"><title>Node1</title>
<g id="a_node1"><a xlink:title=" ">
<polygon fill="#bfbfbf" stroke="black" points="0,-231.752 0,-250.752 62,-250.752 62,-231.752 0,-231.752"/>
<text text-anchor="middle" x="31" y="-238.752" font-family="Helvetica,sans-Serif" font-size="10.00">leaveblock</text>
</a>
</g>
</g>
<!-- Node2 -->
<g id="node2" class="node"><title>Node2</title>
<g id="a_node2"><a xlink:href="lparser_8c.html#abfc0a485f2b04026699cafcdaa1bfb04" target="_top" xlink:title=" ">
<polygon fill="white" stroke="black" points="104.5,-231.752 104.5,-250.752 168.5,-250.752 168.5,-231.752 104.5,-231.752"/>
<text text-anchor="middle" x="136.5" y="-238.752" font-family="Helvetica,sans-Serif" font-size="10.00">createlabel</text>
</a>
</g>
</g>
<!-- Node1&#45;&gt;Node2 -->
<g id="edge1" class="edge"><title>Node1&#45;&gt;Node2</title>
<path fill="none" stroke="midnightblue" d="M62.2147,-241.252C72.2527,-241.252 83.6065,-241.252 94.3275,-241.252"/>
<polygon fill="midnightblue" stroke="midnightblue" points="94.349,-244.752 104.349,-241.252 94.349,-237.752 94.349,-244.752"/>
</g>
<!-- Node5 -->
<g id="node5" class="node"><title>Node5</title>
<g id="a_node5"><a xlink:href="lparser_8c.html#a38e1e1ea62dd175a62cebc2d2dd69528" target="_top" xlink:title=" ">
<polygon fill="white" stroke="black" points="344.5,-311.752 344.5,-330.752 393.5,-330.752 393.5,-311.752 344.5,-311.752"/>
<text text-anchor="middle" x="369" y="-318.752" font-family="Helvetica,sans-Serif" font-size="10.00">reglevel</text>
</a>
</g>
</g>
<!-- Node1&#45;&gt;Node5 -->
<g id="edge67" class="edge"><title>Node1&#45;&gt;Node5</title>
<path fill="none" stroke="midnightblue" d="M35.2021,-250.834C42.5517,-271.073 62.763,-317.826 98,-336.252 174.8,-376.411 281.236,-350.853 334.631,-333.473"/>
<polygon fill="midnightblue" stroke="midnightblue" points="335.907,-336.736 344.272,-330.234 333.678,-330.101 335.907,-336.736"/>
</g>
<!-- Node440 -->
<g id="node47" class="node"><title>Node440</title>
<g id="a_node47"><a xlink:href="lparser_8c.html#a59499d1fac1f098f62ea922753ff88bb" target="_top" xlink:title=" ">
<polygon fill="white" stroke="black" points="98,-307.752 98,-326.752 175,-326.752 175,-307.752 98,-307.752"/>
<text text-anchor="middle" x="136.5" y="-314.752" font-family="Helvetica,sans-Serif" font-size="10.00">movegotosout</text>
</a>
</g>
</g>
<!-- Node1&#45;&gt;Node440 -->
<g id="edge65" class="edge"><title>Node1&#45;&gt;Node440</title>
<path fill="none" stroke="midnightblue" d="M45.1083,-250.878C62.5284,-263.669 93.5208,-286.427 114.292,-301.679"/>
<polygon fill="midnightblue" stroke="midnightblue" points="112.366,-304.607 122.498,-307.705 116.509,-298.965 112.366,-304.607"/>
</g>
<!-- Node441 -->
<g id="node48" class="node"><title>Node441</title>
<g id="a_node48"><a xlink:href="lparser_8c.html#a12f6d0b70d7dc43b72f45ad2a6293fb7" target="_top" xlink:title=" ">
<polygon fill="white" stroke="black" points="104,-174.752 104,-193.752 169,-193.752 169,-174.752 104,-174.752"/>
<text text-anchor="middle" x="136.5" y="-181.752" font-family="Helvetica,sans-Serif" font-size="10.00">removevars</text>
</a>
</g>
</g>
<!-- Node1&#45;&gt;Node441 -->
<g id="edge68" class="edge"><title>Node1&#45;&gt;Node441</title>
<path fill="none" stroke="midnightblue" d="M49.5574,-231.583C65.9376,-222.562 90.5906,-208.985 109.298,-198.682"/>
<polygon fill="midnightblue" stroke="midnightblue" points="111.131,-201.669 118.202,-193.779 107.754,-195.537 111.131,-201.669"/>
</g>
<!-- Node442 -->
<g id="node50" class="node"><title>Node442</title>
<g id="a_node50"><a xlink:href="lparser_8c.html#a0e6f2c50414357750f14eb41e3d08edc" target="_top" xlink:title=" ">
<polygon fill="white" stroke="black" points="456,-89.7522 456,-108.752 515,-108.752 515,-89.7522 456,-89.7522"/>
<text text-anchor="middle" x="485.5" y="-96.7522" font-family="Helvetica,sans-Serif" font-size="10.00">undefgoto</text>
</a>
</g>
</g>
<!-- Node1&#45;&gt;Node442 -->
<g id="edge71" class="edge"><title>Node1&#45;&gt;Node442</title>
<path fill="none" stroke="midnightblue" d="M38.1926,-231.578C48.7429,-215.772 71.6391,-184.268 98,-165.252 142.113,-133.43 158.061,-130.746 211,-118.252 292.864,-98.9322 392.035,-97.2317 445.608,-98.0314"/>
<polygon fill="midnightblue" stroke="midnightblue" points="445.632,-101.532 455.696,-98.2202 445.764,-94.5336 445.632,-101.532"/>
</g>
<!-- Node3 -->
<g id="node3" class="node"><title>Node3</title>
<g id="a_node3"><a xlink:href="lcode_8c.html#afd70025e040dde0ef167df148de201b0" target="_top" xlink:title=" ">
<polygon fill="white" stroke="black" points="215,-279.752 215,-298.752 290,-298.752 290,-279.752 215,-279.752"/>
<text text-anchor="middle" x="252.5" y="-286.752" font-family="Helvetica,sans-Serif" font-size="10.00">luaK_getlabel</text>
</a>
</g>
</g>
<!-- Node2&#45;&gt;Node3 -->
<g id="edge2" class="edge"><title>Node2&#45;&gt;Node3</title>
<path fill="none" stroke="midnightblue" d="M160.296,-250.85C177.227,-257.979 200.548,-267.799 219.369,-275.724"/>
<polygon fill="midnightblue" stroke="midnightblue" points="218.169,-279.016 228.744,-279.671 220.886,-272.564 218.169,-279.016"/>
</g>
<!-- Node4 -->
<g id="node4" class="node"><title>Node4</title>
<g id="a_node4"><a xlink:href="lparser_8c.html#a03d8535460edd67f5c2d495c2a08bdd2" target="_top" xlink:title=" ">
<polygon fill="white" stroke="black" points="211,-203.752 211,-222.752 294,-222.752 294,-203.752 211,-203.752"/>
<text text-anchor="middle" x="252.5" y="-210.752" font-family="Helvetica,sans-Serif" font-size="10.00">luaY_nvarstack</text>
</a>
</g>
</g>
<!-- Node2&#45;&gt;Node4 -->
<g id="edge3" class="edge"><title>Node2&#45;&gt;Node4</title>
<path fill="none" stroke="midnightblue" d="M168.651,-233.601C179.155,-231.021 191.144,-228.076 202.677,-225.244"/>
<polygon fill="midnightblue" stroke="midnightblue" points="203.77,-228.58 212.646,-222.795 202.1,-221.782 203.77,-228.58"/>
</g>
<!-- Node7 -->
<g id="node7" class="node"><title>Node7</title>
<g id="a_node7"><a xlink:href="lparser_8c.html#ac8408d50bc1af7533968d363841bcf27" target="_top" xlink:title=" ">
<polygon fill="white" stroke="black" points="214.5,-241.752 214.5,-260.752 290.5,-260.752 290.5,-241.752 214.5,-241.752"/>
<text text-anchor="middle" x="252.5" y="-248.752" font-family="Helvetica,sans-Serif" font-size="10.00">newlabelentry</text>
</a>
</g>
</g>
<!-- Node2&#45;&gt;Node7 -->
<g id="edge6" class="edge"><title>Node2&#45;&gt;Node7</title>
<path fill="none" stroke="midnightblue" d="M168.651,-243.985C179.563,-244.942 192.077,-246.04 204.019,-247.087"/>
<polygon fill="midnightblue" stroke="midnightblue" points="204.043,-250.603 214.31,-247.99 204.654,-243.629 204.043,-250.603"/>
</g>
<!-- Node8 -->
<g id="node8" class="node"><title>Node8</title>
<g id="a_node8"><a xlink:href="lparser_8c.html#abd72e798cea4c3def7bc6791e5f07a43" target="_top" xlink:title=" ">
<polygon fill="white" stroke="black" points="221.5,-127.752 221.5,-146.752 283.5,-146.752 283.5,-127.752 221.5,-127.752"/>
<text text-anchor="middle" x="252.5" y="-134.752" font-family="Helvetica,sans-Serif" font-size="10.00">solvegotos</text>
</a>
</g>
</g>
<!-- Node2&#45;&gt;Node8 -->
<g id="edge7" class="edge"><title>Node2&#45;&gt;Node8</title>
<path fill="none" stroke="midnightblue" d="M148.021,-231.655C167.532,-213.854 209.527,-175.543 233.59,-153.591"/>
<polygon fill="midnightblue" stroke="midnightblue" points="235.976,-156.152 241.005,-146.827 231.258,-150.981 235.976,-156.152"/>
</g>
<!-- Node4&#45;&gt;Node5 -->
<g id="edge4" class="edge"><title>Node4&#45;&gt;Node5</title>
<path fill="none" stroke="midnightblue" d="M278.484,-222.87C283.863,-225.502 289.329,-228.643 294,-232.252 320.099,-252.42 343.152,-283.314 356.335,-302.888"/>
<polygon fill="midnightblue" stroke="midnightblue" points="353.57,-305.054 361.984,-311.492 359.421,-301.212 353.57,-305.054"/>
</g>
<!-- Node6 -->
<g id="node6" class="node"><title>Node6</title>
<g id="a_node6"><a xlink:href="lparser_8c.html#ae54e8d8f199763735b5175342fbce5ca" target="_top" xlink:title=" ">
<polygon fill="white" stroke="black" points="563,-253.752 563,-272.752 646,-272.752 646,-253.752 563,-253.752"/>
<text text-anchor="middle" x="604.5" y="-260.752" font-family="Helvetica,sans-Serif" font-size="10.00">getlocalvardesc</text>
</a>
</g>
</g>
<!-- Node5&#45;&gt;Node6 -->
<g id="edge5" class="edge"><title>Node5&#45;&gt;Node6</title>
<path fill="none" stroke="midnightblue" d="M393.674,-315.372C431.422,-305.995 506.005,-287.469 555.315,-275.221"/>
<polygon fill="midnightblue" stroke="midnightblue" points="556.265,-278.592 565.126,-272.784 554.577,-271.798 556.265,-278.592"/>
</g>
<!-- Node9 -->
<g id="node9" class="node"><title>Node9</title>
<g id="a_node9"><a xlink:href="lparser_8c.html#a73b1624593cc10a15008229b30eeae81" target="_top" xlink:title=" ">
<polygon fill="white" stroke="black" points="340.5,-139.752 340.5,-158.752 397.5,-158.752 397.5,-139.752 340.5,-139.752"/>
<text text-anchor="middle" x="369" y="-146.752" font-family="Helvetica,sans-Serif" font-size="10.00">solvegoto</text>
</a>
</g>
</g>
<!-- Node8&#45;&gt;Node9 -->
<g id="edge8" class="edge"><title>Node8&#45;&gt;Node9</title>
<path fill="none" stroke="midnightblue" d="M283.584,-140.405C297.904,-141.906 315.176,-143.716 330.356,-145.307"/>
<polygon fill="midnightblue" stroke="midnightblue" points="330.159,-148.805 340.47,-146.367 330.889,-141.844 330.159,-148.805"/>
</g>
<!-- Node10 -->
<g id="node10" class="node"><title>Node10</title>
<g id="a_node10"><a xlink:href="lparser_8c.html#a6095ffe4a3669369b48424a59063fb71" target="_top" xlink:title=" ">
<polygon fill="white" stroke="black" points="444,-196.752 444,-215.752 527,-215.752 527,-196.752 444,-196.752"/>
<text text-anchor="middle" x="485.5" y="-203.752" font-family="Helvetica,sans-Serif" font-size="10.00">jumpscopeerror</text>
</a>
</g>
</g>
<!-- Node9&#45;&gt;Node10 -->
<g id="edge9" class="edge"><title>Node9&#45;&gt;Node10</title>
<path fill="none" stroke="midnightblue" d="M389.165,-158.793C407.494,-167.917 435.354,-181.787 456.231,-192.18"/>
<polygon fill="midnightblue" stroke="midnightblue" points="454.761,-195.357 465.273,-196.681 457.88,-189.091 454.761,-195.357"/>
</g>
<!-- Node220 -->
<g id="node41" class="node"><title>Node220</title>
<g id="a_node41"><a xlink:href="lcode_8c.html#a4db596b358989fa68a43b6f697fc9a09" target="_top" xlink:title=" ">
<polygon fill="white" stroke="black" points="446.5,-139.752 446.5,-158.752 524.5,-158.752 524.5,-139.752 446.5,-139.752"/>
<text text-anchor="middle" x="485.5" y="-146.752" font-family="Helvetica,sans-Serif" font-size="10.00">luaK_patchlist</text>
</a>
</g>
</g>
<!-- Node9&#45;&gt;Node220 -->
<g id="edge58" class="edge"><title>Node9&#45;&gt;Node220</title>
<path fill="none" stroke="midnightblue" d="M397.717,-149.252C409.207,-149.252 422.881,-149.252 435.938,-149.252"/>
<polygon fill="midnightblue" stroke="midnightblue" points="436.224,-152.752 446.224,-149.252 436.224,-145.752 436.224,-152.752"/>
</g>
<!-- Node10&#45;&gt;Node6 -->
<g id="edge10" class="edge"><title>Node10&#45;&gt;Node6</title>
<path fill="none" stroke="midnightblue" d="M506.083,-215.793C524.812,-224.917 553.281,-238.787 574.614,-249.18"/>
<polygon fill="midnightblue" stroke="midnightblue" points="573.33,-252.447 583.853,-253.681 576.396,-246.154 573.33,-252.447"/>
</g>
<!-- Node11 -->
<g id="node11" class="node"><title>Node11</title>
<g id="a_node11"><a xlink:href="lcode_8c.html#abe3b325f24edb9acdca694951cbcb4d8" target="_top" xlink:title=" ">
<polygon fill="white" stroke="black" points="564.5,-89.7522 564.5,-108.752 644.5,-108.752 644.5,-89.7522 564.5,-89.7522"/>
<text text-anchor="middle" x="604.5" y="-96.7522" font-family="Helvetica,sans-Serif" font-size="10.00">luaK_semerror</text>
</a>
</g>
</g>
<!-- Node10&#45;&gt;Node11 -->
<g id="edge11" class="edge"><title>Node10&#45;&gt;Node11</title>
<path fill="none" stroke="midnightblue" d="M496.98,-196.734C505.252,-189.145 517.022,-178.182 527,-168.252 543.49,-151.841 545.708,-145.816 563,-130.252 568.882,-124.958 575.593,-119.582 581.838,-114.826"/>
<polygon fill="midnightblue" stroke="midnightblue" points="584.012,-117.572 589.942,-108.792 579.831,-111.957 584.012,-117.572"/>
</g>
<!-- Node35 -->
<g id="node21" class="node"><title>Node35</title>
<g id="a_node21"><a xlink:href="lobject_8c.html#a8e224db7123c74d695076a96d1bfda61" target="_top" xlink:title=" ">
<polygon fill="white" stroke="black" points="1205,-139.752 1205,-158.752 1294,-158.752 1294,-139.752 1205,-139.752"/>
<text text-anchor="middle" x="1249.5" y="-146.752" font-family="Helvetica,sans-Serif" font-size="10.00">luaO_pushfstring</text>
</a>
</g>
</g>
<!-- Node10&#45;&gt;Node35 -->
<g id="edge57" class="edge"><title>Node10&#45;&gt;Node35</title>
<path fill="none" stroke="midnightblue" d="M527.132,-211.646C573.026,-217.263 649.989,-225.252 716.5,-225.252 716.5,-225.252 716.5,-225.252 1027,-225.252 1090.67,-225.252 1109.81,-229.723 1169,-206.252 1192.71,-196.85 1215.96,-178.861 1231.13,-165.597"/>
<polygon fill="midnightblue" stroke="midnightblue" points="1233.59,-168.092 1238.68,-158.799 1228.91,-162.89 1233.59,-168.092"/>
</g>
<!-- Node12 -->
<g id="node12" class="node"><title>Node12</title>
<g id="a_node12"><a xlink:href="llex_8c.html#aa5303ae41cbf1a2d9ef2f422751f85be" target="_top" xlink:title=" ">
<polygon fill="white" stroke="black" points="789,-139.752 789,-158.752 878,-158.752 878,-139.752 789,-139.752"/>
<text text-anchor="middle" x="833.5" y="-146.752" font-family="Helvetica,sans-Serif" font-size="10.00">luaX_syntaxerror</text>
</a>
</g>
</g>
<!-- Node11&#45;&gt;Node12 -->
<g id="edge12" class="edge"><title>Node11&#45;&gt;Node12</title>
<path fill="none" stroke="midnightblue" d="M644.684,-90.0292C674.99,-84.6329 717.611,-80.8763 753,-92.2522 777.556,-100.146 800.956,-118.735 815.93,-132.551"/>
<polygon fill="midnightblue" stroke="midnightblue" points="813.69,-135.252 823.335,-139.637 818.53,-130.195 813.69,-135.252"/>
</g>
<!-- Node13 -->
<g id="node13" class="node"><title>Node13</title>
<g id="a_node13"><a xlink:href="llex_8c.html#a67bb1f3225ffe5738fef1c3d34879735" target="_top" xlink:title=" ">
<polygon fill="white" stroke="black" points="914,-139.752 914,-158.752 963,-158.752 963,-139.752 914,-139.752"/>
<text text-anchor="middle" x="938.5" y="-146.752" font-family="Helvetica,sans-Serif" font-size="10.00">lexerror</text>
</a>
</g>
</g>
<!-- Node12&#45;&gt;Node13 -->
<g id="edge13" class="edge"><title>Node12&#45;&gt;Node13</title>
<path fill="none" stroke="midnightblue" d="M878.181,-149.252C886.721,-149.252 895.554,-149.252 903.712,-149.252"/>
<polygon fill="midnightblue" stroke="midnightblue" points="903.967,-152.752 913.967,-149.252 903.967,-145.752 903.967,-152.752"/>
</g>
<!-- Node14 -->
<g id="node14" class="node"><title>Node14</title>
<g id="a_node14"><a xlink:href="ldo_8c.html#a2b46d9db5b9ca3d5402a0c2ac640a6b0" target="_top" xlink:title=" ">
<polygon fill="white" stroke="black" points="2189,-303.752 2189,-322.752 2254,-322.752 2254,-303.752 2189,-303.752"/>
<text text-anchor="middle" x="2221.5" y="-310.752" font-family="Helvetica,sans-Serif" font-size="10.00">luaD_throw</text>
</a>
</g>
</g>
<!-- Node13&#45;&gt;Node14 -->
<g id="edge14" class="edge"><title>Node13&#45;&gt;Node14</title>
<path fill="none" stroke="midnightblue" d="M944.111,-158.936C962.079,-195.11 1031.23,-320.252 1128,-320.252 1128,-320.252 1128,-320.252 1988.5,-320.252 2055.04,-320.252 2132.27,-317.339 2178.72,-315.272"/>
<polygon fill="midnightblue" stroke="midnightblue" points="2179.16,-318.755 2188.99,-314.806 2178.84,-311.763 2179.16,-318.755"/>
</g>
<!-- Node33 -->
<g id="node19" class="node"><title>Node33</title>
<g id="a_node19"><a xlink:href="ldebug_8c.html#a7e1dc7518150bf19bd9aa5dda166a2eb" target="_top" xlink:title=" ">
<polygon fill="white" stroke="black" points="1092.5,-253.752 1092.5,-272.752 1165.5,-272.752 1165.5,-253.752 1092.5,-253.752"/>
<text text-anchor="middle" x="1129" y="-260.752" font-family="Helvetica,sans-Serif" font-size="10.00">luaG_addinfo</text>
</a>
</g>
</g>
<!-- Node13&#45;&gt;Node33 -->
<g id="edge21" class="edge"><title>Node13&#45;&gt;Node33</title>
<path fill="none" stroke="midnightblue" d="M955.247,-158.776C988.096,-178.642 1064.13,-224.626 1103.46,-248.409"/>
<polygon fill="midnightblue" stroke="midnightblue" points="1101.8,-251.496 1112.17,-253.676 1105.42,-245.506 1101.8,-251.496"/>
</g>
<!-- Node13&#45;&gt;Node35 -->
<g id="edge50" class="edge"><title>Node13&#45;&gt;Node35</title>
<path fill="none" stroke="midnightblue" d="M954.735,-139.655C991.838,-117.533 1089.66,-66.7479 1169,-92.2522 1193.56,-100.146 1216.96,-118.735 1231.93,-132.551"/>
<polygon fill="midnightblue" stroke="midnightblue" points="1229.69,-135.252 1239.34,-139.637 1234.53,-130.195 1229.69,-135.252"/>
</g>
<!-- Node439 -->
<g id="node38" class="node"><title>Node439</title>
<g id="a_node38"><a xlink:href="llex_8c.html#ab53c17c8b5ca50bcdfbd1cddf7310e83" target="_top" xlink:title=" ">
<polygon fill="white" stroke="black" points="999,-139.752 999,-158.752 1053,-158.752 1053,-139.752 999,-139.752"/>
<text text-anchor="middle" x="1026" y="-146.752" font-family="Helvetica,sans-Serif" font-size="10.00">txtToken</text>
</a>
</g>
</g>
<!-- Node13&#45;&gt;Node439 -->
<g id="edge51" class="edge"><title>Node13&#45;&gt;Node439</title>
<path fill="none" stroke="midnightblue" d="M963.317,-149.252C971.185,-149.252 980.127,-149.252 988.712,-149.252"/>
<polygon fill="midnightblue" stroke="midnightblue" points="988.912,-152.752 998.912,-149.252 988.912,-145.752 988.912,-152.752"/>
</g>
<!-- Node14&#45;&gt;Node14 -->
<g id="edge16" class="edge"><title>Node14&#45;&gt;Node14</title>
<path fill="none" stroke="midnightblue" d="M2204.24,-323.009C2195.84,-331.817 2201.59,-341.252 2221.5,-341.252 2233.94,-341.252 2240.85,-337.567 2242.24,-332.652"/>
<polygon fill="midnightblue" stroke="midnightblue" points="2245.45,-331.229 2238.76,-323.009 2238.86,-333.604 2245.45,-331.229"/>
</g>
<!-- Node15 -->
<g id="node15" class="node"><title>Node15</title>
<g id="a_node15"><a xlink:href="ldo_8c.html#a2a5656cf723dffe2e9b5314260bd8896" target="_top" xlink:title=" ">
<polygon fill="white" stroke="black" points="2526,-284.752 2526,-303.752 2613,-303.752 2613,-284.752 2526,-284.752"/>
<text text-anchor="middle" x="2569.5" y="-291.752" font-family="Helvetica,sans-Serif" font-size="10.00">luaD_seterrorobj</text>
</a>
</g>
</g>
<!-- Node14&#45;&gt;Node15 -->
<g id="edge15" class="edge"><title>Node14&#45;&gt;Node15</title>
<path fill="none" stroke="midnightblue" d="M2254.35,-315.681C2304.63,-318.97 2405.38,-323.347 2490,-313.252 2502.06,-311.813 2514.95,-309.173 2526.72,-306.308"/>
<polygon fill="midnightblue" stroke="midnightblue" points="2527.9,-309.619 2536.73,-303.758 2526.18,-302.835 2527.9,-309.619"/>
</g>
<!-- Node16 -->
<g id="node16" class="node"><title>Node16</title>
<g id="a_node16"><a xlink:href="lfunc_8c.html#ae9fcbf80b5969afd9412b9aed102f94e" target="_top" xlink:title=" ">
<polygon fill="white" stroke="black" points="2302,-284.752 2302,-303.752 2366,-303.752 2366,-284.752 2302,-284.752"/>
<text text-anchor="middle" x="2334" y="-291.752" font-family="Helvetica,sans-Serif" font-size="10.00">luaF_close</text>
</a>
</g>
</g>
<!-- Node14&#45;&gt;Node16 -->
<g id="edge17" class="edge"><title>Node14&#45;&gt;Node16</title>
<path fill="none" stroke="midnightblue" d="M2254.16,-307.808C2265.82,-305.803 2279.21,-303.502 2291.6,-301.371"/>
<polygon fill="midnightblue" stroke="midnightblue" points="2292.45,-304.776 2301.71,-299.632 2291.26,-297.877 2292.45,-304.776"/>
</g>
<!-- Node17 -->
<g id="node17" class="node"><title>Node17</title>
<g id="a_node17"><a xlink:href="lfunc_8c.html#a4105c820bb9b1b4b4b3bd6613b0ccb05" target="_top" xlink:title=" ">
<polygon fill="white" stroke="red" points="2410.5,-246.752 2410.5,-265.752 2481.5,-265.752 2481.5,-246.752 2410.5,-246.752"/>
<text text-anchor="middle" x="2446" y="-253.752" font-family="Helvetica,sans-Serif" font-size="10.00">callclosemth</text>
</a>
</g>
</g>
<!-- Node16&#45;&gt;Node17 -->
<g id="edge18" class="edge"><title>Node16&#45;&gt;Node17</title>
<path fill="none" stroke="midnightblue" d="M2362.76,-284.663C2376.31,-279.983 2392.81,-274.283 2407.46,-269.221"/>
<polygon fill="midnightblue" stroke="midnightblue" points="2408.94,-272.412 2417.25,-265.838 2406.66,-265.795 2408.94,-272.412"/>
</g>
<!-- Node102 -->
<g id="node18" class="node"><title>Node102</title>
<g id="a_node18"><a xlink:href="lfunc_8c.html#a3b5a5ae122e85af5c941e9b4ffff53bd" target="_top" xlink:title=" ">
<polygon fill="white" stroke="black" points="2402,-284.752 2402,-303.752 2490,-303.752 2490,-284.752 2402,-284.752"/>
<text text-anchor="middle" x="2446" y="-291.752" font-family="Helvetica,sans-Serif" font-size="10.00">luaF_unlinkupval</text>
</a>
</g>
</g>
<!-- Node16&#45;&gt;Node102 -->
<g id="edge20" class="edge"><title>Node16&#45;&gt;Node102</title>
<path fill="none" stroke="midnightblue" d="M2366.23,-294.252C2374.17,-294.252 2382.93,-294.252 2391.64,-294.252"/>
<polygon fill="midnightblue" stroke="midnightblue" points="2391.79,-297.752 2401.79,-294.252 2391.79,-290.752 2391.79,-297.752"/>
</g>
<!-- Node17&#45;&gt;Node15 -->
<g id="edge19" class="edge"><title>Node17&#45;&gt;Node15</title>
<path fill="none" stroke="midnightblue" d="M2477.66,-265.841C2492.91,-270.612 2511.55,-276.441 2527.97,-281.575"/>
<polygon fill="midnightblue" stroke="midnightblue" points="2527.26,-285.022 2537.85,-284.666 2529.35,-278.341 2527.26,-285.022"/>
</g>
<!-- Node34 -->
<g id="node20" class="node"><title>Node34</title>
<g id="a_node20"><a xlink:href="lobject_8c.html#ac331b4119bbeb45a8a7e5a1afe553b2e" target="_top" xlink:title=" ">
<polygon fill="white" stroke="black" points="1211.5,-272.752 1211.5,-291.752 1287.5,-291.752 1287.5,-272.752 1211.5,-272.752"/>
<text text-anchor="middle" x="1249.5" y="-279.752" font-family="Helvetica,sans-Serif" font-size="10.00">luaO_chunkid</text>
</a>
</g>
</g>
<!-- Node33&#45;&gt;Node34 -->
<g id="edge22" class="edge"><title>Node33&#45;&gt;Node34</title>
<path fill="none" stroke="midnightblue" d="M1165.55,-268.953C1176.73,-270.745 1189.26,-272.753 1201.12,-274.656"/>
<polygon fill="midnightblue" stroke="midnightblue" points="1200.9,-278.164 1211.33,-276.292 1202.01,-271.253 1200.9,-278.164"/>
</g>
<!-- Node33&#45;&gt;Node35 -->
<g id="edge23" class="edge"><title>Node33&#45;&gt;Node35</title>
<path fill="none" stroke="midnightblue" d="M1148.23,-253.547C1155.05,-249.534 1162.67,-244.575 1169,-239.252 1195.3,-217.121 1220.7,-186.162 1235.45,-166.928"/>
<polygon fill="midnightblue" stroke="midnightblue" points="1238.39,-168.845 1241.62,-158.754 1232.8,-164.629 1238.39,-168.845"/>
</g>
<!-- Node36 -->
<g id="node22" class="node"><title>Node36</title>
<g id="a_node22"><a xlink:href="lobject_8c.html#aa83fa444a36d79521e846a766fa083d5" target="_top" xlink:title=" ">
<polygon fill="white" stroke="black" points="1330,-120.752 1330,-139.752 1423,-139.752 1423,-120.752 1330,-120.752"/>
<text text-anchor="middle" x="1376.5" y="-127.752" font-family="Helvetica,sans-Serif" font-size="10.00">luaO_pushvfstring</text>
</a>
</g>
</g>
<!-- Node35&#45;&gt;Node36 -->
<g id="edge24" class="edge"><title>Node35&#45;&gt;Node36</title>
<path fill="none" stroke="midnightblue" d="M1294.22,-142.607C1302.52,-141.345 1311.3,-140.01 1319.91,-138.702"/>
<polygon fill="midnightblue" stroke="midnightblue" points="1320.54,-142.147 1329.9,-137.184 1319.48,-135.226 1320.54,-142.147"/>
</g>
<!-- Node37 -->
<g id="node23" class="node"><title>Node37</title>
<g id="a_node23"><a xlink:href="lobject_8c.html#a1d02fb9304e4700ce1fd20e34ae68784" target="_top" xlink:title=" ">
<polygon fill="white" stroke="black" points="1460.5,-140.752 1460.5,-159.752 1531.5,-159.752 1531.5,-140.752 1460.5,-140.752"/>
<text text-anchor="middle" x="1496" y="-147.752" font-family="Helvetica,sans-Serif" font-size="10.00">addnum2buff</text>
</a>
</g>
</g>
<!-- Node36&#45;&gt;Node37 -->
<g id="edge25" class="edge"><title>Node36&#45;&gt;Node37</title>
<path fill="none" stroke="midnightblue" d="M1423.27,-138.042C1432.16,-139.556 1441.47,-141.14 1450.32,-142.648"/>
<polygon fill="midnightblue" stroke="midnightblue" points="1450.02,-146.145 1460.46,-144.373 1451.19,-139.245 1450.02,-146.145"/>
</g>
<!-- Node38 -->
<g id="node24" class="node"><title>Node38</title>
<g id="a_node24"><a xlink:href="lobject_8c.html#ac4ab924f2ea45ef73319f1159033eab1" target="_top" xlink:title=" ">
<polygon fill="white" stroke="black" points="1578.5,-102.752 1578.5,-121.752 1623.5,-121.752 1623.5,-102.752 1578.5,-102.752"/>
<text text-anchor="middle" x="1601" y="-109.752" font-family="Helvetica,sans-Serif" font-size="10.00">getbuff</text>
</a>
</g>
</g>
<!-- Node36&#45;&gt;Node38 -->
<g id="edge47" class="edge"><title>Node36&#45;&gt;Node38</title>
<path fill="none" stroke="midnightblue" d="M1423.06,-126.566C1466.41,-123.059 1530.49,-117.876 1568.46,-114.803"/>
<polygon fill="midnightblue" stroke="midnightblue" points="1568.76,-118.291 1578.44,-113.996 1568.19,-111.314 1568.76,-118.291"/>
</g>
<!-- Node39 -->
<g id="node25" class="node"><title>Node39</title>
<g id="a_node25"><a xlink:href="lobject_8c.html#a6ec2716e64cd75e3e6614a87ee92e4d2" target="_top" xlink:title=" ">
<polygon fill="white" stroke="black" points="1669,-26.7522 1669,-45.7522 1722,-45.7522 1722,-26.7522 1669,-26.7522"/>
<text text-anchor="middle" x="1695.5" y="-33.7522" font-family="Helvetica,sans-Serif" font-size="10.00">clearbuff</text>
</a>
</g>
</g>
<!-- Node36&#45;&gt;Node39 -->
<g id="edge46" class="edge"><title>Node36&#45;&gt;Node39</title>
<path fill="none" stroke="midnightblue" d="M1380.91,-120.604C1389.65,-97.5683 1415.29,-39.6202 1459,-17.2522 1524.62,16.3287 1614.17,-6.60298 1661.71,-23.2512"/>
<polygon fill="midnightblue" stroke="midnightblue" points="1660.6,-26.5712 1671.19,-26.6857 1662.98,-19.9896 1660.6,-26.5712"/>
</g>
<!-- Node28 -->
<g id="node29" class="node"><title>Node28</title>
<g id="a_node29"><a xlink:href="ldebug_8c.html#a88d38ca5da2e7a1492fc9d5ad70c32c5" target="_top" xlink:title=" ">
<polygon fill="white" stroke="black" points="1950,-187.752 1950,-206.752 2025,-206.752 2025,-187.752 1950,-187.752"/>
<text text-anchor="middle" x="1987.5" y="-194.752" font-family="Helvetica,sans-Serif" font-size="10.00">luaG_runerror</text>
</a>
</g>
</g>
<!-- Node36&#45;&gt;Node28 -->
<g id="edge48" class="edge"><title>Node36&#45;&gt;Node28</title>
<path fill="none" stroke="midnightblue" d="M1410.03,-139.879C1424.65,-146.548 1442.33,-154.706 1459,-160.252 1519.62,-180.421 1536.11,-188.252 1600,-188.252 1600,-188.252 1600,-188.252 1783.5,-188.252 1837.11,-188.252 1898.68,-188.252 1939.82,-190.14"/>
<polygon fill="midnightblue" stroke="midnightblue" points="1939.66,-193.636 1949.83,-190.662 1940.02,-186.646 1939.66,-193.636"/>
</g>
<!-- Node134 -->
<g id="node36" class="node"><title>Node134</title>
<g id="a_node36"><a xlink:href="lobject_8c.html#a874ab64f433ee35f2197a81e10452cb1" target="_top" xlink:title=" ">
<polygon fill="white" stroke="black" points="1464,-64.7522 1464,-83.7522 1528,-83.7522 1528,-64.7522 1464,-64.7522"/>
<text text-anchor="middle" x="1496" y="-71.7522" font-family="Helvetica,sans-Serif" font-size="10.00">addstr2buff</text>
</a>
</g>
</g>
<!-- Node36&#45;&gt;Node134 -->
<g id="edge42" class="edge"><title>Node36&#45;&gt;Node134</title>
<path fill="none" stroke="midnightblue" d="M1397.7,-120.625C1416.48,-111.676 1444.66,-98.2439 1465.87,-88.1357"/>
<polygon fill="midnightblue" stroke="midnightblue" points="1467.54,-91.2152 1475.06,-83.7533 1464.53,-84.8962 1467.54,-91.2152"/>
</g>
<!-- Node135 -->
<g id="node37" class="node"><title>Node135</title>
<g id="a_node37"><a xlink:href="lobject_8c.html#af3136de4693789b08f78aafda9604676" target="_top" xlink:title=" ">
<polygon fill="white" stroke="black" points="1459,-26.7522 1459,-45.7522 1533,-45.7522 1533,-26.7522 1459,-26.7522"/>
<text text-anchor="middle" x="1496" y="-33.7522" font-family="Helvetica,sans-Serif" font-size="10.00">luaO_utf8esc</text>
</a>
</g>
</g>
<!-- Node36&#45;&gt;Node135 -->
<g id="edge49" class="edge"><title>Node36&#45;&gt;Node135</title>
<path fill="none" stroke="midnightblue" d="M1386.36,-120.634C1400.64,-105.476 1430.1,-75.6584 1459,-55.2522 1461.12,-53.7543 1463.38,-52.2948 1465.68,-50.8938"/>
<polygon fill="midnightblue" stroke="midnightblue" points="1467.67,-53.7901 1474.65,-45.821 1464.22,-47.6969 1467.67,-53.7901"/>
</g>
<!-- Node37&#45;&gt;Node38 -->
<g id="edge26" class="edge"><title>Node37&#45;&gt;Node38</title>
<path fill="none" stroke="midnightblue" d="M1522.99,-140.663C1536.84,-135.554 1553.98,-129.23 1568.57,-123.847"/>
<polygon fill="midnightblue" stroke="midnightblue" points="1570.03,-127.041 1578.2,-120.296 1567.6,-120.474 1570.03,-127.041"/>
</g>
<!-- Node133 -->
<g id="node35" class="node"><title>Node133</title>
<g id="a_node35"><a xlink:href="lobject_8c.html#a8a7886b6335aca97db23dfe3e220c728" target="_top" xlink:title=" ">
<polygon fill="white" stroke="black" points="1569,-140.752 1569,-159.752 1633,-159.752 1633,-140.752 1569,-140.752"/>
<text text-anchor="middle" x="1601" y="-147.752" font-family="Helvetica,sans-Serif" font-size="10.00">tostringbuff</text>
</a>
</g>
</g>
<!-- Node37&#45;&gt;Node133 -->
<g id="edge41" class="edge"><title>Node37&#45;&gt;Node133</title>
<path fill="none" stroke="midnightblue" d="M1531.58,-150.252C1540.24,-150.252 1549.61,-150.252 1558.56,-150.252"/>
<polygon fill="midnightblue" stroke="midnightblue" points="1558.8,-153.752 1568.8,-150.252 1558.8,-146.752 1558.8,-153.752"/>
</g>
<!-- Node38&#45;&gt;Node39 -->
<g id="edge27" class="edge"><title>Node38&#45;&gt;Node39</title>
<path fill="none" stroke="midnightblue" d="M1613.72,-102.627C1629.14,-89.9494 1656.49,-67.483 1675.05,-52.2358"/>
<polygon fill="midnightblue" stroke="midnightblue" points="1677.38,-54.8521 1682.88,-45.7995 1672.93,-49.4435 1677.38,-54.8521"/>
</g>
<!-- Node40 -->
<g id="node26" class="node"><title>Node40</title>
<g id="a_node26"><a xlink:href="lobject_8c.html#a90720e7e38c0e352e9b97d3f8def9e1a" target="_top" xlink:title=" ">
<polygon fill="white" stroke="black" points="1758,-64.7522 1758,-83.7522 1807,-83.7522 1807,-64.7522 1758,-64.7522"/>
<text text-anchor="middle" x="1782.5" y="-71.7522" font-family="Helvetica,sans-Serif" font-size="10.00">pushstr</text>
</a>
</g>
</g>
<!-- Node39&#45;&gt;Node40 -->
<g id="edge28" class="edge"><title>Node39&#45;&gt;Node40</title>
<path fill="none" stroke="midnightblue" d="M1717.95,-45.8412C1727.92,-50.2966 1739.95,-55.6756 1750.85,-60.5493"/>
<polygon fill="midnightblue" stroke="midnightblue" points="1749.5,-63.7801 1760.06,-64.6662 1752.36,-57.3896 1749.5,-63.7801"/>
</g>
<!-- Node41 -->
<g id="node27" class="node"><title>Node41</title>
<g id="a_node27"><a xlink:href="lstring_8c.html#ab41fb084ce3ea5e2779f6659ccc2484d" target="_top" xlink:title=" ">
<polygon fill="white" stroke="red" points="1951.5,-83.7522 1951.5,-102.752 2023.5,-102.752 2023.5,-83.7522 1951.5,-83.7522"/>
<text text-anchor="middle" x="1987.5" y="-90.7522" font-family="Helvetica,sans-Serif" font-size="10.00">luaS_newlstr</text>
</a>
</g>
</g>
<!-- Node40&#45;&gt;Node41 -->
<g id="edge29" class="edge"><title>Node40&#45;&gt;Node41</title>
<path fill="none" stroke="midnightblue" d="M1807.18,-76.4689C1839.97,-79.5372 1899.81,-85.1386 1941.3,-89.0218"/>
<polygon fill="midnightblue" stroke="midnightblue" points="1941.14,-92.5222 1951.43,-89.9694 1941.8,-85.5526 1941.14,-92.5222"/>
</g>
<!-- Node126 -->
<g id="node28" class="node"><title>Node126</title>
<g id="a_node28"><a xlink:href="lvm_8c.html#a2f076040af405dcb50d661edd692eca7" target="_top" xlink:title=" ">
<polygon fill="white" stroke="red" points="1843,-102.752 1843,-121.752 1914,-121.752 1914,-102.752 1843,-102.752"/>
<text text-anchor="middle" x="1878.5" y="-109.752" font-family="Helvetica,sans-Serif" font-size="10.00">luaV_concat</text>
</a>
</g>
</g>
<!-- Node40&#45;&gt;Node126 -->
<g id="edge30" class="edge"><title>Node40&#45;&gt;Node126</title>
<path fill="none" stroke="midnightblue" d="M1807.22,-83.8412C1818.46,-88.3866 1832.09,-93.8934 1844.33,-98.8441"/>
<polygon fill="midnightblue" stroke="midnightblue" points="1843.2,-102.163 1853.79,-102.666 1845.83,-95.6734 1843.2,-102.163"/>
</g>
<!-- Node126&#45;&gt;Node41 -->
<g id="edge40" class="edge"><title>Node126&#45;&gt;Node41</title>
<path fill="none" stroke="midnightblue" d="M1914.24,-106.083C1922.84,-104.556 1932.18,-102.897 1941.21,-101.295"/>
<polygon fill="midnightblue" stroke="midnightblue" points="1941.97,-104.715 1951.2,-99.5202 1940.74,-97.8225 1941.97,-104.715"/>
</g>
<!-- Node126&#45;&gt;Node28 -->
<g id="edge31" class="edge"><title>Node126&#45;&gt;Node28</title>
<path fill="none" stroke="midnightblue" d="M1891.77,-122.003C1910,-136.478 1944.4,-163.812 1966.35,-181.248"/>
<polygon fill="midnightblue" stroke="midnightblue" points="1964.36,-184.136 1974.37,-187.615 1968.72,-178.655 1964.36,-184.136"/>
</g>
<!-- Node28&#45;&gt;Node33 -->
<g id="edge35" class="edge"><title>Node28&#45;&gt;Node33</title>
<path fill="none" stroke="midnightblue" d="M1961.92,-206.763C1924.17,-220.497 1849.34,-244.252 1783.5,-244.252 1375.5,-244.252 1375.5,-244.252 1375.5,-244.252 1305.66,-244.252 1224.97,-251.991 1175.73,-257.591"/>
<polygon fill="midnightblue" stroke="midnightblue" points="1175.24,-254.123 1165.71,-258.749 1176.05,-261.077 1175.24,-254.123"/>
</g>
<!-- Node28&#45;&gt;Node36 -->
<g id="edge39" class="edge"><title>Node28&#45;&gt;Node36</title>
<path fill="none" stroke="midnightblue" d="M1949.83,-203.842C1909.17,-206.252 1841.65,-206.252 1783.5,-206.252 1600,-206.252 1600,-206.252 1600,-206.252 1536.11,-206.252 1519.62,-198.421 1459,-178.252 1435.11,-170.305 1409.14,-156.993 1393.09,-145.949"/>
<polygon fill="midnightblue" stroke="midnightblue" points="1394.97,-142.984 1384.88,-139.766 1390.76,-148.577 1394.97,-142.984"/>
</g>
<!-- Node29 -->
<g id="node30" class="node"><title>Node29</title>
<g id="a_node30"><a xlink:href="ldebug_8c.html#ad6bc24d619df8e849e2ae8b00455d86f" target="_top" xlink:title=" ">
<polygon fill="white" stroke="black" points="2063.5,-187.752 2063.5,-206.752 2138.5,-206.752 2138.5,-187.752 2063.5,-187.752"/>
<text text-anchor="middle" x="2101" y="-194.752" font-family="Helvetica,sans-Serif" font-size="10.00">getcurrentline</text>
</a>
</g>
</g>
<!-- Node28&#45;&gt;Node29 -->
<g id="edge32" class="edge"><title>Node28&#45;&gt;Node29</title>
<path fill="none" stroke="midnightblue" d="M2025.01,-197.252C2034.06,-197.252 2043.88,-197.252 2053.34,-197.252"/>
<polygon fill="midnightblue" stroke="midnightblue" points="2053.41,-200.752 2063.41,-197.252 2053.41,-193.752 2053.41,-200.752"/>
</g>
<!-- Node136 -->
<g id="node33" class="node"><title>Node136</title>
<g id="a_node33"><a xlink:href="ldebug_8c.html#af7366920f8408bb33ed01b1d6c0e1238" target="_top" xlink:title=" ">
<polygon fill="white" stroke="black" points="2061,-258.752 2061,-277.752 2141,-277.752 2141,-258.752 2061,-258.752"/>
<text text-anchor="middle" x="2101" y="-265.752" font-family="Helvetica,sans-Serif" font-size="10.00">luaG_errormsg</text>
</a>
</g>
</g>
<!-- Node28&#45;&gt;Node136 -->
<g id="edge36" class="edge"><title>Node28&#45;&gt;Node136</title>
<path fill="none" stroke="midnightblue" d="M2003.54,-206.828C2022.24,-218.737 2054.39,-239.207 2076.39,-253.218"/>
<polygon fill="midnightblue" stroke="midnightblue" points="2074.53,-256.183 2084.84,-258.602 2078.29,-250.278 2074.53,-256.183"/>
</g>
<!-- Node30 -->
<g id="node31" class="node"><title>Node30</title>
<g id="a_node31"><a xlink:href="ldebug_8c.html#a7db2a3f5cbcf0ac3ef6d4cfa15ab4dbc" target="_top" xlink:title=" ">
<polygon fill="white" stroke="black" points="2193,-206.752 2193,-225.752 2250,-225.752 2250,-206.752 2193,-206.752"/>
<text text-anchor="middle" x="2221.5" y="-213.752" font-family="Helvetica,sans-Serif" font-size="10.00">currentpc</text>
</a>
</g>
</g>
<!-- Node29&#45;&gt;Node30 -->
<g id="edge33" class="edge"><title>Node29&#45;&gt;Node30</title>
<path fill="none" stroke="midnightblue" d="M2138.52,-203.108C2152.64,-205.372 2168.79,-207.961 2183,-210.239"/>
<polygon fill="midnightblue" stroke="midnightblue" points="2182.52,-213.707 2192.94,-211.834 2183.62,-206.795 2182.52,-213.707"/>
</g>
<!-- Node31 -->
<g id="node32" class="node"><title>Node31</title>
<g id="a_node32"><a xlink:href="ldebug_8c.html#ae7a6d2f88b11cc05758e44acd433ee2f" target="_top" xlink:title=" ">
<polygon fill="white" stroke="red" points="2177,-168.752 2177,-187.752 2266,-187.752 2266,-168.752 2177,-168.752"/>
<text text-anchor="middle" x="2221.5" y="-175.752" font-family="Helvetica,sans-Serif" font-size="10.00">luaG_getfuncline</text>
</a>
</g>
</g>
<!-- Node29&#45;&gt;Node31 -->
<g id="edge34" class="edge"><title>Node29&#45;&gt;Node31</title>
<path fill="none" stroke="midnightblue" d="M2138.52,-191.397C2147.5,-189.956 2157.31,-188.384 2166.92,-186.844"/>
<polygon fill="midnightblue" stroke="midnightblue" points="2167.49,-190.296 2176.81,-185.257 2166.38,-183.385 2167.49,-190.296"/>
</g>
<!-- Node136&#45;&gt;Node14 -->
<g id="edge38" class="edge"><title>Node136&#45;&gt;Node14</title>
<path fill="none" stroke="midnightblue" d="M2127.13,-277.796C2144.26,-284.299 2167.15,-292.992 2185.98,-300.143"/>
<polygon fill="midnightblue" stroke="midnightblue" points="2184.81,-303.444 2195.41,-303.723 2187.3,-296.9 2184.81,-303.444"/>
</g>
<!-- Node19 -->
<g id="node34" class="node"><title>Node19</title>
<g id="a_node34"><a xlink:href="ldo_8c.html#a61c0a0185ef5ae1493dad10027f4db7e" target="_top" xlink:title=" ">
<polygon fill="white" stroke="red" points="2178,-258.752 2178,-277.752 2265,-277.752 2265,-258.752 2178,-258.752"/>
<text text-anchor="middle" x="2221.5" y="-265.752" font-family="Helvetica,sans-Serif" font-size="10.00">luaD_callnoyield</text>
</a>
</g>
</g>
<!-- Node136&#45;&gt;Node19 -->
<g id="edge37" class="edge"><title>Node136&#45;&gt;Node19</title>
<path fill="none" stroke="midnightblue" d="M2141.13,-268.252C2149.56,-268.252 2158.61,-268.252 2167.47,-268.252"/>
<polygon fill="midnightblue" stroke="midnightblue" points="2167.74,-271.752 2177.74,-268.252 2167.74,-264.752 2167.74,-271.752"/>
</g>
<!-- Node134&#45;&gt;Node38 -->
<g id="edge44" class="edge"><title>Node134&#45;&gt;Node38</title>
<path fill="none" stroke="midnightblue" d="M1522.99,-83.8412C1536.84,-88.9503 1553.98,-95.2741 1568.57,-100.658"/>
<polygon fill="midnightblue" stroke="midnightblue" points="1567.6,-104.03 1578.2,-104.208 1570.03,-97.4629 1567.6,-104.03"/>
</g>
<!-- Node134&#45;&gt;Node39 -->
<g id="edge43" class="edge"><title>Node134&#45;&gt;Node39</title>
<path fill="none" stroke="midnightblue" d="M1528.18,-68.167C1540.85,-65.7012 1555.62,-62.8322 1569,-60.2522 1599.11,-54.4452 1633.3,-47.9108 1658.38,-43.1282"/>
<polygon fill="midnightblue" stroke="midnightblue" points="1659.37,-46.5035 1668.54,-41.193 1658.06,-39.6273 1659.37,-46.5035"/>
</g>
<!-- Node134&#45;&gt;Node40 -->
<g id="edge45" class="edge"><title>Node134&#45;&gt;Node40</title>
<path fill="none" stroke="midnightblue" d="M1528.26,-74.2522C1582.23,-74.2522 1692.43,-74.2522 1747.95,-74.2522"/>
<polygon fill="midnightblue" stroke="midnightblue" points="1747.97,-77.7523 1757.97,-74.2522 1747.97,-70.7523 1747.97,-77.7523"/>
</g>
<!-- Node439&#45;&gt;Node35 -->
<g id="edge52" class="edge"><title>Node439&#45;&gt;Node35</title>
<path fill="none" stroke="midnightblue" d="M1053.28,-149.252C1087.94,-149.252 1149.77,-149.252 1194.58,-149.252"/>
<polygon fill="midnightblue" stroke="midnightblue" points="1194.72,-152.752 1204.72,-149.252 1194.72,-145.752 1194.72,-152.752"/>
</g>
<!-- Node305 -->
<g id="node39" class="node"><title>Node305</title>
<g id="a_node39"><a xlink:href="llex_8c.html#afbf0654ae651496d0e8dcebeefbefed6" target="_top" xlink:title=" ">
<polygon fill="white" stroke="black" points="1089,-177.752 1089,-196.752 1169,-196.752 1169,-177.752 1089,-177.752"/>
<text text-anchor="middle" x="1129" y="-184.752" font-family="Helvetica,sans-Serif" font-size="10.00">luaX_token2str</text>
</a>
</g>
</g>
<!-- Node439&#45;&gt;Node305 -->
<g id="edge53" class="edge"><title>Node439&#45;&gt;Node305</title>
<path fill="none" stroke="midnightblue" d="M1052.49,-158.841C1064.81,-163.477 1079.78,-169.112 1093.14,-174.138"/>
<polygon fill="midnightblue" stroke="midnightblue" points="1091.93,-177.421 1102.52,-177.666 1094.39,-170.869 1091.93,-177.421"/>
</g>
<!-- Node280 -->
<g id="node40" class="node"><title>Node280</title>
<g id="a_node40"><a xlink:href="llex_8c.html#a3418da69613c587915ff780b0ec3744b" target="_top" xlink:title=" ">
<polygon fill="white" stroke="black" points="1111,-101.752 1111,-120.752 1147,-120.752 1147,-101.752 1111,-101.752"/>
<text text-anchor="middle" x="1129" y="-108.752" font-family="Helvetica,sans-Serif" font-size="10.00">save</text>
</a>
</g>
</g>
<!-- Node439&#45;&gt;Node280 -->
<g id="edge55" class="edge"><title>Node439&#45;&gt;Node280</title>
<path fill="none" stroke="midnightblue" d="M1052.49,-139.663C1067.3,-134.09 1085.96,-127.07 1101.02,-121.403"/>
<polygon fill="midnightblue" stroke="midnightblue" points="1102.65,-124.528 1110.78,-117.731 1100.19,-117.976 1102.65,-124.528"/>
</g>
<!-- Node305&#45;&gt;Node35 -->
<g id="edge54" class="edge"><title>Node305&#45;&gt;Node35</title>
<path fill="none" stroke="midnightblue" d="M1159.9,-177.663C1174.78,-172.893 1192.96,-167.063 1208.97,-161.929"/>
<polygon fill="midnightblue" stroke="midnightblue" points="1210.15,-165.225 1218.61,-158.838 1208.02,-158.559 1210.15,-165.225"/>
</g>
<!-- Node280&#45;&gt;Node13 -->
<g id="edge56" class="edge"><title>Node280&#45;&gt;Node13</title>
<path fill="none" stroke="midnightblue" d="M1110.72,-112.893C1085.82,-115.461 1038.48,-121.106 999,-130.252 990.42,-132.24 981.295,-134.879 972.835,-137.556"/>
<polygon fill="midnightblue" stroke="midnightblue" points="971.699,-134.245 963.281,-140.679 973.874,-140.898 971.699,-134.245"/>
</g>
<!-- Node221 -->
<g id="node42" class="node"><title>Node221</title>
<g id="a_node42"><a xlink:href="lcode_8c.html#a83e8d2f1641cfd3ed1c465f07f383c5e" target="_top" xlink:title=" ">
<polygon fill="white" stroke="black" points="570,-139.752 570,-158.752 639,-158.752 639,-139.752 570,-139.752"/>
<text text-anchor="middle" x="604.5" y="-146.752" font-family="Helvetica,sans-Serif" font-size="10.00">patchlistaux</text>
</a>
</g>
</g>
<!-- Node220&#45;&gt;Node221 -->
<g id="edge59" class="edge"><title>Node220&#45;&gt;Node221</title>
<path fill="none" stroke="midnightblue" d="M524.81,-149.252C535.934,-149.252 548.167,-149.252 559.605,-149.252"/>
<polygon fill="midnightblue" stroke="midnightblue" points="559.83,-152.752 569.83,-149.252 559.83,-145.752 559.83,-152.752"/>
</g>
<!-- Node215 -->
<g id="node43" class="node"><title>Node215</title>
<g id="a_node43"><a xlink:href="lcode_8c.html#a90b203d73d5f6e3ffb85079e746b028d" target="_top" xlink:title=" ">
<polygon fill="white" stroke="black" points="694,-139.752 694,-158.752 741,-158.752 741,-139.752 694,-139.752"/>
<text text-anchor="middle" x="717.5" y="-146.752" font-family="Helvetica,sans-Serif" font-size="10.00">fixjump</text>
</a>
</g>
</g>
<!-- Node221&#45;&gt;Node215 -->
<g id="edge60" class="edge"><title>Node221&#45;&gt;Node215</title>
<path fill="none" stroke="midnightblue" d="M639.105,-149.252C653.241,-149.252 669.633,-149.252 683.683,-149.252"/>
<polygon fill="midnightblue" stroke="midnightblue" points="683.894,-152.752 693.894,-149.252 683.894,-145.752 683.894,-152.752"/>
</g>
<!-- Node216 -->
<g id="node44" class="node"><title>Node216</title>
<g id="a_node44"><a xlink:href="lcode_8c.html#ac74dd95e53d610cf12e752f3075fe450" target="_top" xlink:title=" ">
<polygon fill="white" stroke="black" points="692,-101.752 692,-120.752 743,-120.752 743,-101.752 692,-101.752"/>
<text text-anchor="middle" x="717.5" y="-108.752" font-family="Helvetica,sans-Serif" font-size="10.00">getjump</text>
</a>
</g>
</g>
<!-- Node221&#45;&gt;Node216 -->
<g id="edge62" class="edge"><title>Node221&#45;&gt;Node216</title>
<path fill="none" stroke="midnightblue" d="M633.51,-139.663C648.262,-134.613 666.479,-128.376 682.085,-123.034"/>
<polygon fill="midnightblue" stroke="midnightblue" points="683.573,-126.224 691.9,-119.674 681.305,-119.601 683.573,-126.224"/>
</g>
<!-- Node222 -->
<g id="node45" class="node"><title>Node222</title>
<g id="a_node45"><a xlink:href="lcode_8c.html#ac7ce05b875db5d3bdca16012f3bcad8e" target="_top" xlink:title=" ">
<polygon fill="white" stroke="black" points="682,-177.752 682,-196.752 753,-196.752 753,-177.752 682,-177.752"/>
<text text-anchor="middle" x="717.5" y="-184.752" font-family="Helvetica,sans-Serif" font-size="10.00">patchtestreg</text>
</a>
</g>
</g>
<!-- Node221&#45;&gt;Node222 -->
<g id="edge63" class="edge"><title>Node221&#45;&gt;Node222</title>
<path fill="none" stroke="midnightblue" d="M633.51,-158.841C647.182,-163.522 663.831,-169.221 678.618,-174.284"/>
<polygon fill="midnightblue" stroke="midnightblue" points="677.904,-177.739 688.499,-177.666 680.172,-171.116 677.904,-177.739"/>
</g>
<!-- Node215&#45;&gt;Node12 -->
<g id="edge61" class="edge"><title>Node215&#45;&gt;Node12</title>
<path fill="none" stroke="midnightblue" d="M741.023,-149.252C751.881,-149.252 765.414,-149.252 778.713,-149.252"/>
<polygon fill="midnightblue" stroke="midnightblue" points="778.789,-152.752 788.789,-149.252 778.789,-145.752 778.789,-152.752"/>
</g>
<!-- Node223 -->
<g id="node46" class="node"><title>Node223</title>
<g id="a_node46"><a xlink:href="lcode_8c.html#a755e9c104abc7fa7bb87437964b19628" target="_top" xlink:title=" ">
<polygon fill="white" stroke="black" points="793.5,-177.752 793.5,-196.752 873.5,-196.752 873.5,-177.752 793.5,-177.752"/>
<text text-anchor="middle" x="833.5" y="-184.752" font-family="Helvetica,sans-Serif" font-size="10.00">getjumpcontrol</text>
</a>
</g>
</g>
<!-- Node222&#45;&gt;Node223 -->
<g id="edge64" class="edge"><title>Node222&#45;&gt;Node223</title>
<path fill="none" stroke="midnightblue" d="M753.013,-187.252C762.548,-187.252 773.083,-187.252 783.28,-187.252"/>
<polygon fill="midnightblue" stroke="midnightblue" points="783.314,-190.752 793.314,-187.252 783.314,-183.752 783.314,-190.752"/>
</g>
<!-- Node440&#45;&gt;Node5 -->
<g id="edge66" class="edge"><title>Node440&#45;&gt;Node5</title>
<path fill="none" stroke="midnightblue" d="M175.047,-317.904C219.148,-318.669 291.661,-319.927 334.114,-320.664"/>
<polygon fill="midnightblue" stroke="midnightblue" points="334.164,-324.165 344.223,-320.84 334.286,-317.166 334.164,-324.165"/>
</g>
<!-- Node389 -->
<g id="node49" class="node"><title>Node389</title>
<g id="a_node49"><a xlink:href="lparser_8c.html#af4e2a81c94d2b795fd0a4c4a2cd9d22f" target="_top" xlink:title=" ">
<polygon fill="white" stroke="black" points="330,-196.752 330,-215.752 408,-215.752 408,-196.752 330,-196.752"/>
<text text-anchor="middle" x="369" y="-203.752" font-family="Helvetica,sans-Serif" font-size="10.00">localdebuginfo</text>
</a>
</g>
</g>
<!-- Node441&#45;&gt;Node389 -->
<g id="edge69" class="edge"><title>Node441&#45;&gt;Node389</title>
<path fill="none" stroke="midnightblue" d="M169.053,-185.37C200.717,-186.702 250.849,-189.386 294,-194.252 302.366,-195.196 311.229,-196.428 319.804,-197.744"/>
<polygon fill="midnightblue" stroke="midnightblue" points="319.265,-201.202 329.69,-199.314 320.363,-194.289 319.265,-201.202"/>
</g>
<!-- Node389&#45;&gt;Node6 -->
<g id="edge70" class="edge"><title>Node389&#45;&gt;Node6</title>
<path fill="none" stroke="midnightblue" d="M406.478,-215.753C418.424,-218.828 431.768,-222.225 444,-225.252 480.404,-234.261 521.58,-244.062 552.976,-251.453"/>
<polygon fill="midnightblue" stroke="midnightblue" points="552.272,-254.883 562.807,-253.764 553.874,-248.068 552.272,-254.883"/>
</g>
<!-- Node442&#45;&gt;Node11 -->
<g id="edge72" class="edge"><title>Node442&#45;&gt;Node11</title>
<path fill="none" stroke="midnightblue" d="M515.121,-99.2522C526.874,-99.2522 540.825,-99.2522 554.131,-99.2522"/>
<polygon fill="midnightblue" stroke="midnightblue" points="554.133,-102.752 564.132,-99.2522 554.132,-95.7523 554.133,-102.752"/>
</g>
<!-- Node442&#45;&gt;Node35 -->
<g id="edge73" class="edge"><title>Node442&#45;&gt;Node35</title>
<path fill="none" stroke="midnightblue" d="M506.592,-89.6707C545.935,-71.8169 636.299,-35.2522 716.5,-35.2522 716.5,-35.2522 716.5,-35.2522 1027,-35.2522 1093.48,-35.2522 1110.98,-49.8014 1169,-82.2522 1193.42,-95.9077 1217.41,-117.586 1232.54,-132.567"/>
<polygon fill="midnightblue" stroke="midnightblue" points="1230.08,-135.06 1239.6,-139.713 1235.06,-130.14 1230.08,-135.06"/>
</g>
</g>
</svg>
