<?xml version="1.0" encoding="UTF-8" standalone="no"?>
<!DOCTYPE svg PUBLIC "-//W3C//DTD SVG 1.1//EN"
 "http://www.w3.org/Graphics/SVG/1.1/DTD/svg11.dtd">
<!-- Generated by graphviz version 2.38.0 (20140413.2041)
 -->
<!-- Title: new_localvar Pages: 1 -->
<svg width="2712pt" height="441pt"
 viewBox="0.00 0.00 2712.00 441.00" xmlns="http://www.w3.org/2000/svg" xmlns:xlink="http://www.w3.org/1999/xlink">
<g id="graph0" class="graph" transform="scale(1 1) rotate(0) translate(4 437)">
<title>new_localvar</title>
<polygon fill="white" stroke="none" points="-4,4 -4,-437 2708,-437 2708,4 -4,4"/>
<!-- Node1 -->
<g id="node1" class="node"><title>Node1</title>
<g id="a_node1"><a xlink:title=" ">
<polygon fill="#bfbfbf" stroke="black" points="0,-36.5 0,-55.5 71,-55.5 71,-36.5 0,-36.5"/>
<text text-anchor="middle" x="35.5" y="-43.5" font-family="Helvetica,sans-Serif" font-size="10.00">new_localvar</text>
</a>
</g>
</g>
<!-- Node2 -->
<g id="node2" class="node"><title>Node2</title>
<g id="a_node2"><a xlink:href="lparser_8c.html#adcc7a63edd0b578c2e7980371ff7f686" target="_top" xlink:title=" ">
<polygon fill="white" stroke="black" points="107,-36.5 107,-55.5 168,-55.5 168,-36.5 107,-36.5"/>
<text text-anchor="middle" x="137.5" y="-43.5" font-family="Helvetica,sans-Serif" font-size="10.00">checklimit</text>
</a>
</g>
</g>
<!-- Node1&#45;&gt;Node2 -->
<g id="edge1" class="edge"><title>Node1&#45;&gt;Node2</title>
<path fill="none" stroke="midnightblue" d="M71.1945,-46C79.4561,-46 88.3346,-46 96.8012,-46"/>
<polygon fill="midnightblue" stroke="midnightblue" points="96.8551,-49.5001 106.855,-46 96.8551,-42.5001 96.8551,-49.5001"/>
</g>
<!-- Node3 -->
<g id="node3" class="node"><title>Node3</title>
<g id="a_node3"><a xlink:href="lparser_8c.html#ad02c6061a90a3461a24d2eede35cbf1f" target="_top" xlink:title=" ">
<polygon fill="white" stroke="black" points="204,-36.5 204,-55.5 258,-55.5 258,-36.5 204,-36.5"/>
<text text-anchor="middle" x="231" y="-43.5" font-family="Helvetica,sans-Serif" font-size="10.00">errorlimit</text>
</a>
</g>
</g>
<!-- Node2&#45;&gt;Node3 -->
<g id="edge2" class="edge"><title>Node2&#45;&gt;Node3</title>
<path fill="none" stroke="midnightblue" d="M168.207,-46C176.369,-46 185.311,-46 193.794,-46"/>
<polygon fill="midnightblue" stroke="midnightblue" points="193.831,-49.5001 203.831,-46 193.831,-42.5001 193.831,-49.5001"/>
</g>
<!-- Node4 -->
<g id="node4" class="node"><title>Node4</title>
<g id="a_node4"><a xlink:href="lobject_8c.html#a8e224db7123c74d695076a96d1bfda61" target="_top" xlink:title=" ">
<polygon fill="white" stroke="black" points="710,-170.5 710,-189.5 799,-189.5 799,-170.5 710,-170.5"/>
<text text-anchor="middle" x="754.5" y="-177.5" font-family="Helvetica,sans-Serif" font-size="10.00">luaO_pushfstring</text>
</a>
</g>
</g>
<!-- Node3&#45;&gt;Node4 -->
<g id="edge3" class="edge"><title>Node3&#45;&gt;Node4</title>
<path fill="none" stroke="midnightblue" d="M258.182,-36.4688C297.6,-22.9951 374.792,-0 442.5,-0 442.5,-0 442.5,-0 532,-0 633.774,-0 714.819,-115.865 742.885,-161.677"/>
<polygon fill="midnightblue" stroke="midnightblue" points="739.92,-163.539 748.059,-170.322 745.927,-159.944 739.92,-163.539"/>
</g>
<!-- Node174 -->
<g id="node46" class="node"><title>Node174</title>
<g id="a_node46"><a xlink:href="llex_8c.html#aa5303ae41cbf1a2d9ef2f422751f85be" target="_top" xlink:title=" ">
<polygon fill="white" stroke="black" points="294,-82.5 294,-101.5 383,-101.5 383,-82.5 294,-82.5"/>
<text text-anchor="middle" x="338.5" y="-89.5" font-family="Helvetica,sans-Serif" font-size="10.00">luaX_syntaxerror</text>
</a>
</g>
</g>
<!-- Node3&#45;&gt;Node174 -->
<g id="edge63" class="edge"><title>Node3&#45;&gt;Node174</title>
<path fill="none" stroke="midnightblue" d="M253.86,-55.5312C268.995,-62.1307 289.37,-71.0145 306.221,-78.3616"/>
<polygon fill="midnightblue" stroke="midnightblue" points="305.103,-81.6924 315.668,-82.481 307.901,-75.2758 305.103,-81.6924"/>
</g>
<!-- Node5 -->
<g id="node5" class="node"><title>Node5</title>
<g id="a_node5"><a xlink:href="lobject_8c.html#aa83fa444a36d79521e846a766fa083d5" target="_top" xlink:title=" ">
<polygon fill="white" stroke="black" points="835,-199.5 835,-218.5 928,-218.5 928,-199.5 835,-199.5"/>
<text text-anchor="middle" x="881.5" y="-206.5" font-family="Helvetica,sans-Serif" font-size="10.00">luaO_pushvfstring</text>
</a>
</g>
</g>
<!-- Node4&#45;&gt;Node5 -->
<g id="edge4" class="edge"><title>Node4&#45;&gt;Node5</title>
<path fill="none" stroke="midnightblue" d="M796.776,-189.576C807.23,-192.001 818.582,-194.635 829.456,-197.158"/>
<polygon fill="midnightblue" stroke="midnightblue" points="828.735,-200.583 839.267,-199.434 830.317,-193.764 828.735,-200.583"/>
</g>
<!-- Node6 -->
<g id="node6" class="node"><title>Node6</title>
<g id="a_node6"><a xlink:href="lobject_8c.html#a1d02fb9304e4700ce1fd20e34ae68784" target="_top" xlink:title=" ">
<polygon fill="white" stroke="black" points="965.5,-180.5 965.5,-199.5 1036.5,-199.5 1036.5,-180.5 965.5,-180.5"/>
<text text-anchor="middle" x="1001" y="-187.5" font-family="Helvetica,sans-Serif" font-size="10.00">addnum2buff</text>
</a>
</g>
</g>
<!-- Node5&#45;&gt;Node6 -->
<g id="edge5" class="edge"><title>Node5&#45;&gt;Node6</title>
<path fill="none" stroke="midnightblue" d="M928.265,-201.6C937.157,-200.162 946.468,-198.656 955.324,-197.224"/>
<polygon fill="midnightblue" stroke="midnightblue" points="956.148,-200.637 965.461,-195.585 955.03,-193.726 956.148,-200.637"/>
</g>
<!-- Node7 -->
<g id="node7" class="node"><title>Node7</title>
<g id="a_node7"><a xlink:href="lobject_8c.html#ac4ab924f2ea45ef73319f1159033eab1" target="_top" xlink:title=" ">
<polygon fill="white" stroke="black" points="1083.5,-142.5 1083.5,-161.5 1128.5,-161.5 1128.5,-142.5 1083.5,-142.5"/>
<text text-anchor="middle" x="1106" y="-149.5" font-family="Helvetica,sans-Serif" font-size="10.00">getbuff</text>
</a>
</g>
</g>
<!-- Node5&#45;&gt;Node7 -->
<g id="edge60" class="edge"><title>Node5&#45;&gt;Node7</title>
<path fill="none" stroke="midnightblue" d="M899.086,-199.44C915.155,-190.624 940.479,-177.894 964,-171 1000.36,-160.342 1043.77,-155.635 1072.73,-153.574"/>
<polygon fill="midnightblue" stroke="midnightblue" points="1073.32,-157.043 1083.08,-152.906 1072.87,-150.057 1073.32,-157.043"/>
</g>
<!-- Node8 -->
<g id="node8" class="node"><title>Node8</title>
<g id="a_node8"><a xlink:href="lobject_8c.html#a6ec2716e64cd75e3e6614a87ee92e4d2" target="_top" xlink:title=" ">
<polygon fill="white" stroke="black" points="1174,-123.5 1174,-142.5 1227,-142.5 1227,-123.5 1174,-123.5"/>
<text text-anchor="middle" x="1200.5" y="-130.5" font-family="Helvetica,sans-Serif" font-size="10.00">clearbuff</text>
</a>
</g>
</g>
<!-- Node5&#45;&gt;Node8 -->
<g id="edge59" class="edge"><title>Node5&#45;&gt;Node8</title>
<path fill="none" stroke="midnightblue" d="M897.702,-218.568C913.552,-227.933 939.461,-241.56 964,-247 996.109,-254.118 1005.65,-252.939 1038,-247 1084.76,-238.414 1099.49,-236.888 1138,-209 1159.49,-193.437 1177.67,-168.543 1188.56,-151.516"/>
<polygon fill="midnightblue" stroke="midnightblue" points="1191.83,-152.878 1194.11,-142.53 1185.88,-149.202 1191.83,-152.878"/>
</g>
<!-- Node78 -->
<g id="node16" class="node"><title>Node78</title>
<g id="a_node16"><a xlink:href="ldebug_8c.html#a88d38ca5da2e7a1492fc9d5ad70c32c5" target="_top" xlink:title=" ">
<polygon fill="white" stroke="black" points="1726,-301.5 1726,-320.5 1801,-320.5 1801,-301.5 1726,-301.5"/>
<text text-anchor="middle" x="1763.5" y="-308.5" font-family="Helvetica,sans-Serif" font-size="10.00">luaG_runerror</text>
</a>
</g>
</g>
<!-- Node5&#45;&gt;Node78 -->
<g id="edge61" class="edge"><title>Node5&#45;&gt;Node78</title>
<path fill="none" stroke="midnightblue" d="M899.94,-218.688C935.838,-243.348 1021.64,-304 1105,-304 1105,-304 1105,-304 1503,-304 1577.39,-304 1663.78,-303.168 1715.74,-304.992"/>
<polygon fill="midnightblue" stroke="midnightblue" points="1715.84,-308.499 1725.97,-305.408 1716.12,-301.505 1715.84,-308.499"/>
</g>
<!-- Node442 -->
<g id="node44" class="node"><title>Node442</title>
<g id="a_node44"><a xlink:href="lobject_8c.html#a874ab64f433ee35f2197a81e10452cb1" target="_top" xlink:title=" ">
<polygon fill="white" stroke="black" points="969,-104.5 969,-123.5 1033,-123.5 1033,-104.5 969,-104.5"/>
<text text-anchor="middle" x="1001" y="-111.5" font-family="Helvetica,sans-Serif" font-size="10.00">addstr2buff</text>
</a>
</g>
</g>
<!-- Node5&#45;&gt;Node442 -->
<g id="edge55" class="edge"><title>Node5&#45;&gt;Node442</title>
<path fill="none" stroke="midnightblue" d="M892.687,-199.364C907.77,-185.276 937.158,-158.504 964,-138 967.796,-135.1 971.928,-132.16 975.994,-129.379"/>
<polygon fill="midnightblue" stroke="midnightblue" points="978.254,-132.078 984.635,-123.62 974.373,-126.253 978.254,-132.078"/>
</g>
<!-- Node258 -->
<g id="node45" class="node"><title>Node258</title>
<g id="a_node45"><a xlink:href="lobject_8c.html#af3136de4693789b08f78aafda9604676" target="_top" xlink:title=" ">
<polygon fill="white" stroke="black" points="964,-218.5 964,-237.5 1038,-237.5 1038,-218.5 964,-218.5"/>
<text text-anchor="middle" x="1001" y="-225.5" font-family="Helvetica,sans-Serif" font-size="10.00">luaO_utf8esc</text>
</a>
</g>
</g>
<!-- Node5&#45;&gt;Node258 -->
<g id="edge62" class="edge"><title>Node5&#45;&gt;Node258</title>
<path fill="none" stroke="midnightblue" d="M928.265,-216.4C936.694,-217.763 945.499,-219.187 953.937,-220.551"/>
<polygon fill="midnightblue" stroke="midnightblue" points="953.567,-224.037 963.998,-222.178 954.685,-217.127 953.567,-224.037"/>
</g>
<!-- Node6&#45;&gt;Node7 -->
<g id="edge6" class="edge"><title>Node6&#45;&gt;Node7</title>
<path fill="none" stroke="midnightblue" d="M1027.99,-180.411C1041.84,-175.302 1058.98,-168.978 1073.57,-163.595"/>
<polygon fill="midnightblue" stroke="midnightblue" points="1075.03,-166.789 1083.2,-160.044 1072.6,-160.222 1075.03,-166.789"/>
</g>
<!-- Node441 -->
<g id="node43" class="node"><title>Node441</title>
<g id="a_node43"><a xlink:href="lobject_8c.html#a8a7886b6335aca97db23dfe3e220c728" target="_top" xlink:title=" ">
<polygon fill="white" stroke="black" points="1074,-180.5 1074,-199.5 1138,-199.5 1138,-180.5 1074,-180.5"/>
<text text-anchor="middle" x="1106" y="-187.5" font-family="Helvetica,sans-Serif" font-size="10.00">tostringbuff</text>
</a>
</g>
</g>
<!-- Node6&#45;&gt;Node441 -->
<g id="edge54" class="edge"><title>Node6&#45;&gt;Node441</title>
<path fill="none" stroke="midnightblue" d="M1036.58,-190C1045.24,-190 1054.61,-190 1063.56,-190"/>
<polygon fill="midnightblue" stroke="midnightblue" points="1063.8,-193.5 1073.8,-190 1063.8,-186.5 1063.8,-193.5"/>
</g>
<!-- Node7&#45;&gt;Node8 -->
<g id="edge7" class="edge"><title>Node7&#45;&gt;Node8</title>
<path fill="none" stroke="midnightblue" d="M1128.92,-147.497C1139.33,-145.358 1152.05,-142.747 1163.8,-140.333"/>
<polygon fill="midnightblue" stroke="midnightblue" points="1164.71,-143.72 1173.8,-138.279 1163.3,-136.863 1164.71,-143.72"/>
</g>
<!-- Node9 -->
<g id="node9" class="node"><title>Node9</title>
<g id="a_node9"><a xlink:href="lobject_8c.html#a90720e7e38c0e352e9b97d3f8def9e1a" target="_top" xlink:title=" ">
<polygon fill="white" stroke="black" points="1263,-118.5 1263,-137.5 1312,-137.5 1312,-118.5 1263,-118.5"/>
<text text-anchor="middle" x="1287.5" y="-125.5" font-family="Helvetica,sans-Serif" font-size="10.00">pushstr</text>
</a>
</g>
</g>
<!-- Node8&#45;&gt;Node9 -->
<g id="edge8" class="edge"><title>Node8&#45;&gt;Node9</title>
<path fill="none" stroke="midnightblue" d="M1227,-131.5C1235.07,-131.025 1244.11,-130.493 1252.67,-129.99"/>
<polygon fill="midnightblue" stroke="midnightblue" points="1252.98,-133.478 1262.76,-129.397 1252.57,-126.49 1252.98,-133.478"/>
</g>
<!-- Node10 -->
<g id="node10" class="node"><title>Node10</title>
<g id="a_node10"><a xlink:href="lstring_8c.html#ab41fb084ce3ea5e2779f6659ccc2484d" target="_top" xlink:title=" ">
<polygon fill="white" stroke="black" points="1466,-104.5 1466,-123.5 1538,-123.5 1538,-104.5 1466,-104.5"/>
<text text-anchor="middle" x="1502" y="-111.5" font-family="Helvetica,sans-Serif" font-size="10.00">luaS_newlstr</text>
</a>
</g>
</g>
<!-- Node9&#45;&gt;Node10 -->
<g id="edge9" class="edge"><title>Node9&#45;&gt;Node10</title>
<path fill="none" stroke="midnightblue" d="M1312.05,-126.448C1346.57,-124.174 1411.55,-119.893 1455.55,-116.994"/>
<polygon fill="midnightblue" stroke="midnightblue" points="1455.96,-120.475 1465.71,-116.325 1455.5,-113.49 1455.96,-120.475"/>
</g>
<!-- Node395 -->
<g id="node38" class="node"><title>Node395</title>
<g id="a_node38"><a xlink:href="lvm_8c.html#a2f076040af405dcb50d661edd692eca7" target="_top" xlink:title=" ">
<polygon fill="white" stroke="black" points="1348,-147.5 1348,-166.5 1419,-166.5 1419,-147.5 1348,-147.5"/>
<text text-anchor="middle" x="1383.5" y="-154.5" font-family="Helvetica,sans-Serif" font-size="10.00">luaV_concat</text>
</a>
</g>
</g>
<!-- Node9&#45;&gt;Node395 -->
<g id="edge46" class="edge"><title>Node9&#45;&gt;Node395</title>
<path fill="none" stroke="midnightblue" d="M1312.22,-135.318C1321.29,-138.115 1331.9,-141.39 1342.09,-144.534"/>
<polygon fill="midnightblue" stroke="midnightblue" points="1341.08,-147.886 1351.67,-147.489 1343.15,-141.197 1341.08,-147.886"/>
</g>
<!-- Node11 -->
<g id="node11" class="node"><title>Node11</title>
<g id="a_node11"><a xlink:href="lstring_8c.html#a9b2c32c59a280de24f20df1c7f0433a1" target="_top" xlink:title=" ">
<polygon fill="white" stroke="black" points="1605,-66.5 1605,-85.5 1670,-85.5 1670,-66.5 1605,-66.5"/>
<text text-anchor="middle" x="1637.5" y="-73.5" font-family="Helvetica,sans-Serif" font-size="10.00">internshrstr</text>
</a>
</g>
</g>
<!-- Node10&#45;&gt;Node11 -->
<g id="edge10" class="edge"><title>Node10&#45;&gt;Node11</title>
<path fill="none" stroke="midnightblue" d="M1536.69,-104.411C1554.37,-99.379 1576.18,-93.1687 1594.91,-87.839"/>
<polygon fill="midnightblue" stroke="midnightblue" points="1596,-91.1668 1604.66,-85.0627 1594.09,-84.4342 1596,-91.1668"/>
</g>
<!-- Node440 -->
<g id="node15" class="node"><title>Node440</title>
<g id="a_node15"><a xlink:href="lmem_8c.html#a8fc7df43dd830ccbe7581fd53f65bdbe" target="_top" xlink:title=" ">
<polygon fill="white" stroke="black" points="1603,-104.5 1603,-123.5 1672,-123.5 1672,-104.5 1603,-104.5"/>
<text text-anchor="middle" x="1637.5" y="-111.5" font-family="Helvetica,sans-Serif" font-size="10.00">luaM_toobig</text>
</a>
</g>
</g>
<!-- Node10&#45;&gt;Node440 -->
<g id="edge14" class="edge"><title>Node10&#45;&gt;Node440</title>
<path fill="none" stroke="midnightblue" d="M1538.08,-114C1554.74,-114 1574.83,-114 1592.5,-114"/>
<polygon fill="midnightblue" stroke="midnightblue" points="1592.58,-117.5 1602.58,-114 1592.58,-110.5 1592.58,-117.5"/>
</g>
<!-- Node397 -->
<g id="node37" class="node"><title>Node397</title>
<g id="a_node37"><a xlink:href="lstring_8c.html#a8790c7d6e706f935dd6e9eefd068921c" target="_top" xlink:title=" ">
<polygon fill="white" stroke="black" points="1585,-142.5 1585,-161.5 1690,-161.5 1690,-142.5 1585,-142.5"/>
<text text-anchor="middle" x="1637.5" y="-149.5" font-family="Helvetica,sans-Serif" font-size="10.00">luaS_createlngstrobj</text>
</a>
</g>
</g>
<!-- Node10&#45;&gt;Node397 -->
<g id="edge44" class="edge"><title>Node10&#45;&gt;Node397</title>
<path fill="none" stroke="midnightblue" d="M1536.69,-123.589C1553.76,-128.449 1574.7,-134.409 1592.98,-139.613"/>
<polygon fill="midnightblue" stroke="midnightblue" points="1592.25,-143.043 1602.82,-142.414 1594.16,-136.31 1592.25,-143.043"/>
</g>
<!-- Node12 -->
<g id="node12" class="node"><title>Node12</title>
<g id="a_node12"><a xlink:href="lstring_8c.html#a85a1a917ef263701e47c36e68011d917" target="_top" xlink:title=" ">
<polygon fill="white" stroke="red" points="1729.5,-142.5 1729.5,-161.5 1797.5,-161.5 1797.5,-142.5 1729.5,-142.5"/>
<text text-anchor="middle" x="1763.5" y="-149.5" font-family="Helvetica,sans-Serif" font-size="10.00">createstrobj</text>
</a>
</g>
</g>
<!-- Node11&#45;&gt;Node12 -->
<g id="edge11" class="edge"><title>Node11&#45;&gt;Node12</title>
<path fill="none" stroke="midnightblue" d="M1670.11,-85.0573C1676.96,-87.7188 1683.95,-91.013 1690,-95 1709.42,-107.806 1707.43,-118.991 1726,-133 1728.05,-134.543 1730.24,-136.027 1732.49,-137.438"/>
<polygon fill="midnightblue" stroke="midnightblue" points="1730.9,-140.561 1741.32,-142.488 1734.37,-134.485 1730.9,-140.561"/>
</g>
<!-- Node14 -->
<g id="node13" class="node"><title>Node14</title>
<g id="a_node13"><a xlink:href="lstring_8c.html#af8b89b01dc2db9f0d3024067ffdb931a" target="_top" xlink:title=" ">
<polygon fill="white" stroke="red" points="1732.5,-66.5 1732.5,-85.5 1794.5,-85.5 1794.5,-66.5 1732.5,-66.5"/>
<text text-anchor="middle" x="1763.5" y="-73.5" font-family="Helvetica,sans-Serif" font-size="10.00">growstrtab</text>
</a>
</g>
</g>
<!-- Node11&#45;&gt;Node14 -->
<g id="edge12" class="edge"><title>Node11&#45;&gt;Node14</title>
<path fill="none" stroke="midnightblue" d="M1670.11,-76C1685.92,-76 1705.22,-76 1722.09,-76"/>
<polygon fill="midnightblue" stroke="midnightblue" points="1722.23,-79.5001 1732.23,-76 1722.23,-72.5001 1722.23,-79.5001"/>
</g>
<!-- Node150 -->
<g id="node14" class="node"><title>Node150</title>
<g id="a_node14"><a xlink:href="lstring_8c.html#ac453c0e85b7bb4e9b146fc140b1b7c9e" target="_top" xlink:title=" ">
<polygon fill="white" stroke="black" points="1732.5,-104.5 1732.5,-123.5 1794.5,-123.5 1794.5,-104.5 1732.5,-104.5"/>
<text text-anchor="middle" x="1763.5" y="-111.5" font-family="Helvetica,sans-Serif" font-size="10.00">luaS_hash</text>
</a>
</g>
</g>
<!-- Node11&#45;&gt;Node150 -->
<g id="edge13" class="edge"><title>Node11&#45;&gt;Node150</title>
<path fill="none" stroke="midnightblue" d="M1669.79,-85.589C1685.74,-90.478 1705.33,-96.4791 1722.38,-101.704"/>
<polygon fill="midnightblue" stroke="midnightblue" points="1721.49,-105.093 1732.08,-104.677 1723.54,-98.4003 1721.49,-105.093"/>
</g>
<!-- Node440&#45;&gt;Node78 -->
<g id="edge15" class="edge"><title>Node440&#45;&gt;Node78</title>
<path fill="none" stroke="midnightblue" d="M1672.16,-121.832C1678.66,-124.54 1685,-128.163 1690,-133 1735.88,-177.377 1753.68,-254.825 1759.74,-291.14"/>
<polygon fill="midnightblue" stroke="midnightblue" points="1756.34,-292.04 1761.32,-301.391 1763.26,-290.975 1756.34,-292.04"/>
</g>
<!-- Node78&#45;&gt;Node5 -->
<g id="edge43" class="edge"><title>Node78&#45;&gt;Node5</title>
<path fill="none" stroke="midnightblue" d="M1725.97,-317.509C1675.74,-321.049 1582.52,-322 1503,-322 1105,-322 1105,-322 1105,-322 1019.31,-322 931.036,-257.907 897.045,-225.997"/>
<polygon fill="midnightblue" stroke="midnightblue" points="899.177,-223.183 889.608,-218.637 894.253,-228.159 899.177,-223.183"/>
</g>
<!-- Node79 -->
<g id="node17" class="node"><title>Node79</title>
<g id="a_node17"><a xlink:href="ldebug_8c.html#ad6bc24d619df8e849e2ae8b00455d86f" target="_top" xlink:title=" ">
<polygon fill="white" stroke="black" points="1839.5,-337.5 1839.5,-356.5 1914.5,-356.5 1914.5,-337.5 1839.5,-337.5"/>
<text text-anchor="middle" x="1877" y="-344.5" font-family="Helvetica,sans-Serif" font-size="10.00">getcurrentline</text>
</a>
</g>
</g>
<!-- Node78&#45;&gt;Node79 -->
<g id="edge16" class="edge"><title>Node78&#45;&gt;Node79</title>
<path fill="none" stroke="midnightblue" d="M1794.09,-320.553C1807.07,-324.743 1822.49,-329.724 1836.44,-334.226"/>
<polygon fill="midnightblue" stroke="midnightblue" points="1835.68,-337.661 1846.27,-337.403 1837.83,-330.999 1835.68,-337.661"/>
</g>
<!-- Node82 -->
<g id="node21" class="node"><title>Node82</title>
<g id="a_node21"><a xlink:href="ldebug_8c.html#a7e1dc7518150bf19bd9aa5dda166a2eb" target="_top" xlink:title=" ">
<polygon fill="white" stroke="black" points="1840.5,-384.5 1840.5,-403.5 1913.5,-403.5 1913.5,-384.5 1840.5,-384.5"/>
<text text-anchor="middle" x="1877" y="-391.5" font-family="Helvetica,sans-Serif" font-size="10.00">luaG_addinfo</text>
</a>
</g>
</g>
<!-- Node78&#45;&gt;Node82 -->
<g id="edge20" class="edge"><title>Node78&#45;&gt;Node82</title>
<path fill="none" stroke="midnightblue" d="M1777,-320.639C1791.39,-331.7 1815.77,-350.332 1837,-366 1842.55,-370.093 1848.58,-374.463 1854.2,-378.504"/>
<polygon fill="midnightblue" stroke="midnightblue" points="1852.41,-381.525 1862.58,-384.497 1856.48,-375.832 1852.41,-381.525"/>
</g>
<!-- Node84 -->
<g id="node23" class="node"><title>Node84</title>
<g id="a_node23"><a xlink:href="ldebug_8c.html#af7366920f8408bb33ed01b1d6c0e1238" target="_top" xlink:title=" ">
<polygon fill="white" stroke="black" points="1837,-299.5 1837,-318.5 1917,-318.5 1917,-299.5 1837,-299.5"/>
<text text-anchor="middle" x="1877" y="-306.5" font-family="Helvetica,sans-Serif" font-size="10.00">luaG_errormsg</text>
</a>
</g>
</g>
<!-- Node78&#45;&gt;Node84 -->
<g id="edge23" class="edge"><title>Node78&#45;&gt;Node84</title>
<path fill="none" stroke="midnightblue" d="M1801.01,-310.345C1809.14,-310.199 1817.89,-310.042 1826.44,-309.889"/>
<polygon fill="midnightblue" stroke="midnightblue" points="1826.78,-313.383 1836.72,-309.705 1826.66,-306.385 1826.78,-313.383"/>
</g>
<!-- Node75 -->
<g id="node18" class="node"><title>Node75</title>
<g id="a_node18"><a xlink:href="ldebug_8c.html#a7db2a3f5cbcf0ac3ef6d4cfa15ab4dbc" target="_top" xlink:title=" ">
<polygon fill="white" stroke="black" points="1969,-337.5 1969,-356.5 2026,-356.5 2026,-337.5 1969,-337.5"/>
<text text-anchor="middle" x="1997.5" y="-344.5" font-family="Helvetica,sans-Serif" font-size="10.00">currentpc</text>
</a>
</g>
</g>
<!-- Node79&#45;&gt;Node75 -->
<g id="edge17" class="edge"><title>Node79&#45;&gt;Node75</title>
<path fill="none" stroke="midnightblue" d="M1914.52,-347C1928.5,-347 1944.47,-347 1958.58,-347"/>
<polygon fill="midnightblue" stroke="midnightblue" points="1958.94,-350.5 1968.94,-347 1958.94,-343.5 1958.94,-350.5"/>
</g>
<!-- Node80 -->
<g id="node19" class="node"><title>Node80</title>
<g id="a_node19"><a xlink:href="ldebug_8c.html#ae7a6d2f88b11cc05758e44acd433ee2f" target="_top" xlink:title=" ">
<polygon fill="white" stroke="black" points="1953,-375.5 1953,-394.5 2042,-394.5 2042,-375.5 1953,-375.5"/>
<text text-anchor="middle" x="1997.5" y="-382.5" font-family="Helvetica,sans-Serif" font-size="10.00">luaG_getfuncline</text>
</a>
</g>
</g>
<!-- Node79&#45;&gt;Node80 -->
<g id="edge18" class="edge"><title>Node79&#45;&gt;Node80</title>
<path fill="none" stroke="midnightblue" d="M1907.9,-356.589C1922.78,-361.359 1940.96,-367.189 1956.97,-372.323"/>
<polygon fill="midnightblue" stroke="midnightblue" points="1956.02,-375.693 1966.61,-375.414 1958.15,-369.028 1956.02,-375.693"/>
</g>
<!-- Node81 -->
<g id="node20" class="node"><title>Node81</title>
<g id="a_node20"><a xlink:href="ldebug_8c.html#a355ee1f29ee39ff665aa01ef4493f453" target="_top" xlink:title=" ">
<polygon fill="white" stroke="black" points="2078,-375.5 2078,-394.5 2144,-394.5 2144,-375.5 2078,-375.5"/>
<text text-anchor="middle" x="2111" y="-382.5" font-family="Helvetica,sans-Serif" font-size="10.00">getbaseline</text>
</a>
</g>
</g>
<!-- Node80&#45;&gt;Node81 -->
<g id="edge19" class="edge"><title>Node80&#45;&gt;Node81</title>
<path fill="none" stroke="midnightblue" d="M2042.25,-385C2050.57,-385 2059.27,-385 2067.55,-385"/>
<polygon fill="midnightblue" stroke="midnightblue" points="2067.76,-388.5 2077.76,-385 2067.76,-381.5 2067.76,-388.5"/>
</g>
<!-- Node82&#45;&gt;Node4 -->
<g id="edge22" class="edge"><title>Node82&#45;&gt;Node4</title>
<path fill="none" stroke="midnightblue" d="M1840.42,-385.683C1794.17,-375.617 1710.77,-360 1638.5,-360 1000,-360 1000,-360 1000,-360 891.511,-360 799.426,-243.649 767.495,-198.036"/>
<polygon fill="midnightblue" stroke="midnightblue" points="770.306,-195.948 761.766,-189.678 764.532,-199.905 770.306,-195.948"/>
</g>
<!-- Node83 -->
<g id="node22" class="node"><title>Node83</title>
<g id="a_node22"><a xlink:href="lobject_8c.html#ac331b4119bbeb45a8a7e5a1afe553b2e" target="_top" xlink:title=" ">
<polygon fill="white" stroke="black" points="1959.5,-413.5 1959.5,-432.5 2035.5,-432.5 2035.5,-413.5 1959.5,-413.5"/>
<text text-anchor="middle" x="1997.5" y="-420.5" font-family="Helvetica,sans-Serif" font-size="10.00">luaO_chunkid</text>
</a>
</g>
</g>
<!-- Node82&#45;&gt;Node83 -->
<g id="edge21" class="edge"><title>Node82&#45;&gt;Node83</title>
<path fill="none" stroke="midnightblue" d="M1913.55,-402.701C1924.85,-405.464 1937.51,-408.564 1949.48,-411.493"/>
<polygon fill="midnightblue" stroke="midnightblue" points="1948.78,-414.925 1959.33,-413.903 1950.44,-408.126 1948.78,-414.925"/>
</g>
<!-- Node56 -->
<g id="node24" class="node"><title>Node56</title>
<g id="a_node24"><a xlink:href="ldo_8c.html#a61c0a0185ef5ae1493dad10027f4db7e" target="_top" xlink:title=" ">
<polygon fill="white" stroke="black" points="2438,-280.5 2438,-299.5 2525,-299.5 2525,-280.5 2438,-280.5"/>
<text text-anchor="middle" x="2481.5" y="-287.5" font-family="Helvetica,sans-Serif" font-size="10.00">luaD_callnoyield</text>
</a>
</g>
</g>
<!-- Node84&#45;&gt;Node56 -->
<g id="edge24" class="edge"><title>Node84&#45;&gt;Node56</title>
<path fill="none" stroke="midnightblue" d="M1917.41,-309C1963.57,-309 2042.33,-309 2110,-309 2110,-309 2110,-309 2225,-309 2295.12,-309 2375.76,-301.795 2427.38,-296.259"/>
<polygon fill="midnightblue" stroke="midnightblue" points="2428.06,-299.706 2437.63,-295.142 2427.31,-292.747 2428.06,-299.706"/>
</g>
<!-- Node85 -->
<g id="node27" class="node"><title>Node85</title>
<g id="a_node27"><a xlink:href="ldo_8c.html#a2b46d9db5b9ca3d5402a0c2ac640a6b0" target="_top" xlink:title=" ">
<polygon fill="white" stroke="black" points="1965,-28.5 1965,-47.5 2030,-47.5 2030,-28.5 1965,-28.5"/>
<text text-anchor="middle" x="1997.5" y="-35.5" font-family="Helvetica,sans-Serif" font-size="10.00">luaD_throw</text>
</a>
</g>
</g>
<!-- Node84&#45;&gt;Node85 -->
<g id="edge27" class="edge"><title>Node84&#45;&gt;Node85</title>
<path fill="none" stroke="midnightblue" d="M1882.22,-299.355C1899.5,-259.842 1965.05,-109.926 1988.28,-56.8022"/>
<polygon fill="midnightblue" stroke="midnightblue" points="1991.53,-58.0941 1992.33,-47.5295 1985.12,-55.2896 1991.53,-58.0941"/>
</g>
<!-- Node57 -->
<g id="node25" class="node"><title>Node57</title>
<g id="a_node25"><a xlink:href="ldo_8c.html#aa7d32ccef16c2d4fe63604c4c457831d" target="_top" xlink:title=" ">
<polygon fill="white" stroke="red" points="2561,-280.5 2561,-299.5 2598,-299.5 2598,-280.5 2561,-280.5"/>
<text text-anchor="middle" x="2579.5" y="-287.5" font-family="Helvetica,sans-Serif" font-size="10.00">ccall</text>
</a>
</g>
</g>
<!-- Node56&#45;&gt;Node57 -->
<g id="edge25" class="edge"><title>Node56&#45;&gt;Node57</title>
<path fill="none" stroke="midnightblue" d="M2525.17,-290C2533.84,-290 2542.75,-290 2550.75,-290"/>
<polygon fill="midnightblue" stroke="midnightblue" points="2550.97,-293.5 2560.97,-290 2550.97,-286.5 2550.97,-293.5"/>
</g>
<!-- Node58 -->
<g id="node26" class="node"><title>Node58</title>
<g id="a_node26"><a xlink:href="ldo_8c.html#a6ef9a33a964a596c36af61d452260bf5" target="_top" xlink:title=" ">
<polygon fill="white" stroke="red" points="2634,-280.5 2634,-299.5 2704,-299.5 2704,-280.5 2634,-280.5"/>
<text text-anchor="middle" x="2669" y="-287.5" font-family="Helvetica,sans-Serif" font-size="10.00">luaD_precall</text>
</a>
</g>
</g>
<!-- Node57&#45;&gt;Node58 -->
<g id="edge26" class="edge"><title>Node57&#45;&gt;Node58</title>
<path fill="none" stroke="midnightblue" d="M2598.21,-290C2605.61,-290 2614.57,-290 2623.58,-290"/>
<polygon fill="midnightblue" stroke="midnightblue" points="2623.68,-293.5 2633.68,-290 2623.68,-286.5 2623.68,-293.5"/>
</g>
<!-- Node85&#45;&gt;Node85 -->
<g id="edge29" class="edge"><title>Node85&#45;&gt;Node85</title>
<path fill="none" stroke="midnightblue" d="M1980.24,-47.7571C1971.84,-56.5653 1977.59,-66 1997.5,-66 2009.94,-66 2016.85,-62.3146 2018.24,-57.4"/>
<polygon fill="midnightblue" stroke="midnightblue" points="2021.45,-55.9768 2014.76,-47.7571 2014.86,-58.3514 2021.45,-55.9768"/>
</g>
<!-- Node67 -->
<g id="node28" class="node"><title>Node67</title>
<g id="a_node28"><a xlink:href="ldo_8c.html#a2a5656cf723dffe2e9b5314260bd8896" target="_top" xlink:title=" ">
<polygon fill="white" stroke="black" points="2438,-109.5 2438,-128.5 2525,-128.5 2525,-109.5 2438,-109.5"/>
<text text-anchor="middle" x="2481.5" y="-116.5" font-family="Helvetica,sans-Serif" font-size="10.00">luaD_seterrorobj</text>
</a>
</g>
</g>
<!-- Node85&#45;&gt;Node67 -->
<g id="edge28" class="edge"><title>Node85&#45;&gt;Node67</title>
<path fill="none" stroke="midnightblue" d="M2030.05,-34.0403C2099.63,-26.5406 2270.52,-14.9386 2402,-62 2425.82,-70.5243 2448.71,-88.6651 2463.56,-102.205"/>
<polygon fill="midnightblue" stroke="midnightblue" points="2461.26,-104.85 2470.94,-109.164 2466.06,-99.7567 2461.26,-104.85"/>
</g>
<!-- Node62 -->
<g id="node29" class="node"><title>Node62</title>
<g id="a_node29"><a xlink:href="lfunc_8c.html#ae9fcbf80b5969afd9412b9aed102f94e" target="_top" xlink:title=" ">
<polygon fill="white" stroke="black" points="2079,-116.5 2079,-135.5 2143,-135.5 2143,-116.5 2079,-116.5"/>
<text text-anchor="middle" x="2111" y="-123.5" font-family="Helvetica,sans-Serif" font-size="10.00">luaF_close</text>
</a>
</g>
</g>
<!-- Node85&#45;&gt;Node62 -->
<g id="edge30" class="edge"><title>Node85&#45;&gt;Node62</title>
<path fill="none" stroke="midnightblue" d="M2010.86,-47.7538C2029.96,-62.8323 2066.86,-91.9534 2089.86,-110.103"/>
<polygon fill="midnightblue" stroke="midnightblue" points="2087.91,-113.022 2097.93,-116.47 2092.24,-107.527 2087.91,-113.022"/>
</g>
<!-- Node63 -->
<g id="node30" class="node"><title>Node63</title>
<g id="a_node30"><a xlink:href="lfunc_8c.html#a4105c820bb9b1b4b4b3bd6613b0ccb05" target="_top" xlink:title=" ">
<polygon fill="white" stroke="black" points="2188.5,-185.5 2188.5,-204.5 2259.5,-204.5 2259.5,-185.5 2188.5,-185.5"/>
<text text-anchor="middle" x="2224" y="-192.5" font-family="Helvetica,sans-Serif" font-size="10.00">callclosemth</text>
</a>
</g>
</g>
<!-- Node62&#45;&gt;Node63 -->
<g id="edge31" class="edge"><title>Node62&#45;&gt;Node63</title>
<path fill="none" stroke="midnightblue" d="M2125.87,-135.621C2139.47,-144.954 2160.89,-159.369 2180,-171 2185.24,-174.19 2190.92,-177.477 2196.38,-180.556"/>
<polygon fill="midnightblue" stroke="midnightblue" points="2194.81,-183.688 2205.25,-185.488 2198.21,-177.57 2194.81,-183.688"/>
</g>
<!-- Node86 -->
<g id="node36" class="node"><title>Node86</title>
<g id="a_node36"><a xlink:href="lfunc_8c.html#a3b5a5ae122e85af5c941e9b4ffff53bd" target="_top" xlink:title=" ">
<polygon fill="white" stroke="black" points="2180,-109.5 2180,-128.5 2268,-128.5 2268,-109.5 2180,-109.5"/>
<text text-anchor="middle" x="2224" y="-116.5" font-family="Helvetica,sans-Serif" font-size="10.00">luaF_unlinkupval</text>
</a>
</g>
</g>
<!-- Node62&#45;&gt;Node86 -->
<g id="edge42" class="edge"><title>Node62&#45;&gt;Node86</title>
<path fill="none" stroke="midnightblue" d="M2143.22,-124.031C2151.41,-123.514 2160.5,-122.942 2169.51,-122.374"/>
<polygon fill="midnightblue" stroke="midnightblue" points="2169.84,-125.86 2179.6,-121.737 2169.4,-118.873 2169.84,-125.86"/>
</g>
<!-- Node63&#45;&gt;Node67 -->
<g id="edge37" class="edge"><title>Node63&#45;&gt;Node67</title>
<path fill="none" stroke="midnightblue" d="M2257.1,-185.452C2303.09,-171.772 2387.77,-146.583 2438.63,-131.454"/>
<polygon fill="midnightblue" stroke="midnightblue" points="2439.74,-134.775 2448.33,-128.569 2437.75,-128.066 2439.74,-134.775"/>
</g>
<!-- Node64 -->
<g id="node31" class="node"><title>Node64</title>
<g id="a_node31"><a xlink:href="lfunc_8c.html#ad6f77f3a49d8b6199525c7edac6fd0a6" target="_top" xlink:title=" ">
<polygon fill="white" stroke="black" points="2325.5,-261.5 2325.5,-280.5 2380.5,-280.5 2380.5,-261.5 2325.5,-261.5"/>
<text text-anchor="middle" x="2353" y="-268.5" font-family="Helvetica,sans-Serif" font-size="10.00">callclose</text>
</a>
</g>
</g>
<!-- Node63&#45;&gt;Node64 -->
<g id="edge32" class="edge"><title>Node63&#45;&gt;Node64</title>
<path fill="none" stroke="midnightblue" d="M2236.44,-204.658C2251.28,-216.857 2278.34,-237.948 2304,-252 2307.76,-254.058 2311.79,-256.01 2315.85,-257.824"/>
<polygon fill="midnightblue" stroke="midnightblue" points="2314.73,-261.148 2325.31,-261.79 2317.44,-254.693 2314.73,-261.148"/>
</g>
<!-- Node65 -->
<g id="node32" class="node"><title>Node65</title>
<g id="a_node32"><a xlink:href="ldo_8c.html#a1ad7f845cc62b110e3fcc0ae187d7c85" target="_top" xlink:title=" ">
<polygon fill="white" stroke="red" points="2322,-109.5 2322,-128.5 2384,-128.5 2384,-109.5 2322,-109.5"/>
<text text-anchor="middle" x="2353" y="-116.5" font-family="Helvetica,sans-Serif" font-size="10.00">luaD_pcall</text>
</a>
</g>
</g>
<!-- Node63&#45;&gt;Node65 -->
<g id="edge34" class="edge"><title>Node63&#45;&gt;Node65</title>
<path fill="none" stroke="midnightblue" d="M2243.78,-185.323C2251.45,-181.167 2260.3,-176.099 2268,-171 2284.9,-159.806 2286.85,-153.807 2304,-143 2309.48,-139.544 2315.53,-136.195 2321.43,-133.149"/>
<polygon fill="midnightblue" stroke="midnightblue" points="2323.09,-136.232 2330.48,-128.64 2319.97,-129.967 2323.09,-136.232"/>
</g>
<!-- Node68 -->
<g id="node33" class="node"><title>Node68</title>
<g id="a_node33"><a xlink:href="lstate_8c.html#a242ebb018d637c41f24b84a2bbc78f34" target="_top" xlink:title=" ">
<polygon fill="white" stroke="red" points="2312.5,-223.5 2312.5,-242.5 2393.5,-242.5 2393.5,-223.5 2312.5,-223.5"/>
<text text-anchor="middle" x="2353" y="-230.5" font-family="Helvetica,sans-Serif" font-size="10.00">luaE_warnerror</text>
</a>
</g>
</g>
<!-- Node63&#45;&gt;Node68 -->
<g id="edge38" class="edge"><title>Node63&#45;&gt;Node68</title>
<path fill="none" stroke="midnightblue" d="M2257.05,-204.589C2273.14,-209.404 2292.84,-215.299 2310.12,-220.468"/>
<polygon fill="midnightblue" stroke="midnightblue" points="2309.38,-223.901 2319.96,-223.414 2311.39,-217.194 2309.38,-223.901"/>
</g>
<!-- Node70 -->
<g id="node34" class="node"><title>Node70</title>
<g id="a_node34"><a xlink:href="lfunc_8c.html#a523bc674df9f893ade61463c4ba5f09a" target="_top" xlink:title=" ">
<polygon fill="white" stroke="red" points="2304,-185.5 2304,-204.5 2402,-204.5 2402,-185.5 2304,-185.5"/>
<text text-anchor="middle" x="2353" y="-192.5" font-family="Helvetica,sans-Serif" font-size="10.00">prepclosingmethod</text>
</a>
</g>
</g>
<!-- Node63&#45;&gt;Node70 -->
<g id="edge39" class="edge"><title>Node63&#45;&gt;Node70</title>
<path fill="none" stroke="midnightblue" d="M2259.7,-195C2270.16,-195 2281.93,-195 2293.48,-195"/>
<polygon fill="midnightblue" stroke="midnightblue" points="2293.53,-198.5 2303.53,-195 2293.53,-191.5 2293.53,-198.5"/>
</g>
<!-- Node73 -->
<g id="node35" class="node"><title>Node73</title>
<g id="a_node35"><a xlink:href="lfunc_8c.html#a865c4fcb22304c78c59721af224c34b6" target="_top" xlink:title=" ">
<polygon fill="white" stroke="red" points="2329,-71.5 2329,-90.5 2377,-90.5 2377,-71.5 2329,-71.5"/>
<text text-anchor="middle" x="2353" y="-78.5" font-family="Helvetica,sans-Serif" font-size="10.00">varerror</text>
</a>
</g>
</g>
<!-- Node63&#45;&gt;Node73 -->
<g id="edge40" class="edge"><title>Node63&#45;&gt;Node73</title>
<path fill="none" stroke="midnightblue" d="M2231.96,-185.481C2247.8,-164 2286.54,-112.648 2304,-100 2308.63,-96.6477 2313.93,-93.7868 2319.28,-91.3804"/>
<polygon fill="midnightblue" stroke="midnightblue" points="2320.86,-94.5162 2328.82,-87.5318 2318.24,-88.0236 2320.86,-94.5162"/>
</g>
<!-- Node64&#45;&gt;Node56 -->
<g id="edge33" class="edge"><title>Node64&#45;&gt;Node56</title>
<path fill="none" stroke="midnightblue" d="M2380.52,-274.983C2394.2,-277.038 2411.38,-279.619 2427.63,-282.059"/>
<polygon fill="midnightblue" stroke="midnightblue" points="2427.18,-285.53 2437.59,-283.555 2428.22,-278.608 2427.18,-285.53"/>
</g>
<!-- Node65&#45;&gt;Node67 -->
<g id="edge35" class="edge"><title>Node65&#45;&gt;Node67</title>
<path fill="none" stroke="midnightblue" d="M2384.3,-119C2397.25,-119 2412.75,-119 2427.49,-119"/>
<polygon fill="midnightblue" stroke="midnightblue" points="2427.53,-122.5 2437.53,-119 2427.53,-115.5 2427.53,-122.5"/>
</g>
<!-- Node65&#45;&gt;Node62 -->
<g id="edge36" class="edge"><title>Node65&#45;&gt;Node62</title>
<path fill="none" stroke="midnightblue" d="M2321.95,-127.503C2306.06,-131.565 2286.13,-135.975 2268,-138 2229.13,-142.341 2218.96,-141.411 2180,-138 2171.33,-137.241 2162.11,-135.947 2153.35,-134.484"/>
<polygon fill="midnightblue" stroke="midnightblue" points="2153.79,-131.008 2143.33,-132.709 2152.57,-137.9 2153.79,-131.008"/>
</g>
<!-- Node73&#45;&gt;Node78 -->
<g id="edge41" class="edge"><title>Node73&#45;&gt;Node78</title>
<path fill="none" stroke="midnightblue" d="M2328.84,-79.5473C2280.64,-77.3013 2166.65,-76.0647 2078,-107 1952.75,-150.706 1827.76,-254.562 1782.38,-294.739"/>
<polygon fill="midnightblue" stroke="midnightblue" points="1779.97,-292.197 1774.85,-301.471 1784.64,-297.416 1779.97,-292.197"/>
</g>
<!-- Node397&#45;&gt;Node12 -->
<g id="edge45" class="edge"><title>Node397&#45;&gt;Node12</title>
<path fill="none" stroke="midnightblue" d="M1690.01,-152C1699.68,-152 1709.7,-152 1719.09,-152"/>
<polygon fill="midnightblue" stroke="midnightblue" points="1719.38,-155.5 1729.38,-152 1719.38,-148.5 1719.38,-155.5"/>
</g>
<!-- Node395&#45;&gt;Node10 -->
<g id="edge50" class="edge"><title>Node395&#45;&gt;Node10</title>
<path fill="none" stroke="midnightblue" d="M1410.36,-147.457C1426.64,-141.444 1447.89,-133.603 1465.72,-127.023"/>
<polygon fill="midnightblue" stroke="midnightblue" points="1467.05,-130.263 1475.22,-123.516 1464.62,-123.696 1467.05,-130.263"/>
</g>
<!-- Node395&#45;&gt;Node78 -->
<g id="edge48" class="edge"><title>Node395&#45;&gt;Node78</title>
<path fill="none" stroke="midnightblue" d="M1395.25,-166.637C1408.49,-178.08 1432.04,-197.109 1455,-209 1502.1,-233.397 1646.74,-277.219 1719.61,-298.594"/>
<polygon fill="midnightblue" stroke="midnightblue" points="1718.81,-302.009 1729.39,-301.457 1720.78,-295.29 1718.81,-302.009"/>
</g>
<!-- Node395&#45;&gt;Node397 -->
<g id="edge49" class="edge"><title>Node395&#45;&gt;Node397</title>
<path fill="none" stroke="midnightblue" d="M1419.01,-156.315C1459.03,-155.521 1525.76,-154.197 1574.78,-153.225"/>
<polygon fill="midnightblue" stroke="midnightblue" points="1575.02,-156.721 1584.95,-153.023 1574.88,-149.722 1575.02,-156.721"/>
</g>
<!-- Node396 -->
<g id="node39" class="node"><title>Node396</title>
<g id="a_node39"><a xlink:href="lvm_8c.html#a7f03a9c23b77ec5cd280bb955ec430b8" target="_top" xlink:title=" ">
<polygon fill="white" stroke="black" points="1473,-256.5 1473,-275.5 1531,-275.5 1531,-256.5 1473,-256.5"/>
<text text-anchor="middle" x="1502" y="-263.5" font-family="Helvetica,sans-Serif" font-size="10.00">copy2buff</text>
</a>
</g>
</g>
<!-- Node395&#45;&gt;Node396 -->
<g id="edge47" class="edge"><title>Node395&#45;&gt;Node396</title>
<path fill="none" stroke="midnightblue" d="M1390.67,-166.739C1401.82,-183.749 1426.82,-219.226 1455,-242 1459.38,-245.538 1464.36,-248.78 1469.39,-251.658"/>
<polygon fill="midnightblue" stroke="midnightblue" points="1467.91,-254.831 1478.38,-256.432 1471.19,-248.649 1467.91,-254.831"/>
</g>
<!-- Node398 -->
<g id="node40" class="node"><title>Node398</title>
<g id="a_node40"><a xlink:href="ltm_8c.html#addc61bf94c111c5a5bd3fe0032cb9be0" target="_top" xlink:title=" ">
<polygon fill="white" stroke="black" points="1455,-180.5 1455,-199.5 1549,-199.5 1549,-180.5 1455,-180.5"/>
<text text-anchor="middle" x="1502" y="-187.5" font-family="Helvetica,sans-Serif" font-size="10.00">luaT_tryconcatTM</text>
</a>
</g>
</g>
<!-- Node395&#45;&gt;Node398 -->
<g id="edge51" class="edge"><title>Node395&#45;&gt;Node398</title>
<path fill="none" stroke="midnightblue" d="M1418.2,-166.545C1430.51,-170.034 1444.62,-174.03 1457.66,-177.724"/>
<polygon fill="midnightblue" stroke="midnightblue" points="1456.8,-181.119 1467.38,-180.476 1458.71,-174.384 1456.8,-181.119"/>
</g>
<!-- Node373 -->
<g id="node41" class="node"><title>Node373</title>
<g id="a_node41"><a xlink:href="ltm_8c.html#a68751e8f9bf0714d8c761a5b6ce4daf9" target="_top" xlink:title=" ">
<polygon fill="white" stroke="red" points="1608.5,-218.5 1608.5,-237.5 1666.5,-237.5 1666.5,-218.5 1608.5,-218.5"/>
<text text-anchor="middle" x="1637.5" y="-225.5" font-family="Helvetica,sans-Serif" font-size="10.00">callbinTM</text>
</a>
</g>
</g>
<!-- Node398&#45;&gt;Node373 -->
<g id="edge52" class="edge"><title>Node398&#45;&gt;Node373</title>
<path fill="none" stroke="midnightblue" d="M1536.69,-199.589C1555.5,-204.944 1579,-211.633 1598.47,-217.175"/>
<polygon fill="midnightblue" stroke="midnightblue" points="1597.66,-220.584 1608.24,-219.956 1599.58,-213.852 1597.66,-220.584"/>
</g>
<!-- Node399 -->
<g id="node42" class="node"><title>Node399</title>
<g id="a_node42"><a xlink:href="ldebug_8c.html#a04641ef359f3943a2ca88f52c3fe283c" target="_top" xlink:title=" ">
<polygon fill="white" stroke="red" points="1592,-180.5 1592,-199.5 1683,-199.5 1683,-180.5 1592,-180.5"/>
<text text-anchor="middle" x="1637.5" y="-187.5" font-family="Helvetica,sans-Serif" font-size="10.00">luaG_concaterror</text>
</a>
</g>
</g>
<!-- Node398&#45;&gt;Node399 -->
<g id="edge53" class="edge"><title>Node398&#45;&gt;Node399</title>
<path fill="none" stroke="midnightblue" d="M1549.32,-190C1559.7,-190 1570.82,-190 1581.52,-190"/>
<polygon fill="midnightblue" stroke="midnightblue" points="1581.62,-193.5 1591.62,-190 1581.62,-186.5 1581.62,-193.5"/>
</g>
<!-- Node442&#45;&gt;Node7 -->
<g id="edge57" class="edge"><title>Node442&#45;&gt;Node7</title>
<path fill="none" stroke="midnightblue" d="M1027.99,-123.589C1041.84,-128.698 1058.98,-135.022 1073.57,-140.405"/>
<polygon fill="midnightblue" stroke="midnightblue" points="1072.6,-143.778 1083.2,-143.956 1075.03,-137.211 1072.6,-143.778"/>
</g>
<!-- Node442&#45;&gt;Node8 -->
<g id="edge56" class="edge"><title>Node442&#45;&gt;Node8</title>
<path fill="none" stroke="midnightblue" d="M1033.29,-117.011C1068.64,-120.411 1126.06,-125.935 1163.3,-129.518"/>
<polygon fill="midnightblue" stroke="midnightblue" points="1163.41,-133.044 1173.7,-130.518 1164.08,-126.077 1163.41,-133.044"/>
</g>
<!-- Node442&#45;&gt;Node9 -->
<g id="edge58" class="edge"><title>Node442&#45;&gt;Node9</title>
<path fill="none" stroke="midnightblue" d="M1033.07,-111.745C1076.59,-109.098 1158.13,-106.006 1227,-114 1235.54,-114.992 1244.64,-116.758 1253.09,-118.71"/>
<polygon fill="midnightblue" stroke="midnightblue" points="1252.43,-122.155 1262.98,-121.144 1254.11,-115.357 1252.43,-122.155"/>
</g>
<!-- Node175 -->
<g id="node47" class="node"><title>Node175</title>
<g id="a_node47"><a xlink:href="llex_8c.html#a67bb1f3225ffe5738fef1c3d34879735" target="_top" xlink:title=" ">
<polygon fill="white" stroke="black" points="419,-136.5 419,-155.5 468,-155.5 468,-136.5 419,-136.5"/>
<text text-anchor="middle" x="443.5" y="-143.5" font-family="Helvetica,sans-Serif" font-size="10.00">lexerror</text>
</a>
</g>
</g>
<!-- Node174&#45;&gt;Node175 -->
<g id="edge64" class="edge"><title>Node174&#45;&gt;Node175</title>
<path fill="none" stroke="midnightblue" d="M357.914,-101.654C373.879,-110.024 397.201,-122.251 415.314,-131.747"/>
<polygon fill="midnightblue" stroke="midnightblue" points="413.763,-134.886 424.245,-136.429 417.014,-128.686 413.763,-134.886"/>
</g>
<!-- Node175&#45;&gt;Node4 -->
<g id="edge67" class="edge"><title>Node175&#45;&gt;Node4</title>
<path fill="none" stroke="midnightblue" d="M468.025,-146.341C491.013,-146.838 526.976,-148.051 558,-151 609.872,-155.931 622.461,-160.334 674,-168 682.336,-169.24 691.161,-170.562 699.782,-171.86"/>
<polygon fill="midnightblue" stroke="midnightblue" points="699.357,-175.335 709.767,-173.364 700.4,-168.413 699.357,-175.335"/>
</g>
<!-- Node175&#45;&gt;Node82 -->
<g id="edge66" class="edge"><title>Node175&#45;&gt;Node82</title>
<path fill="none" stroke="midnightblue" d="M446.572,-155.571C457.151,-201.602 509.524,-398 633,-398 633,-398 633,-398 1638.5,-398 1705.16,-398 1782.32,-396.405 1830.15,-395.23"/>
<polygon fill="midnightblue" stroke="midnightblue" points="1830.28,-398.728 1840.19,-394.979 1830.11,-391.73 1830.28,-398.728"/>
</g>
<!-- Node175&#45;&gt;Node85 -->
<g id="edge65" class="edge"><title>Node175&#45;&gt;Node85</title>
<path fill="none" stroke="midnightblue" d="M453.257,-136.416C478.417,-109.984 554.173,-38 633,-38 633,-38 633,-38 1764.5,-38 1831.01,-38 1908.25,-38 1954.7,-38"/>
<polygon fill="midnightblue" stroke="midnightblue" points="1954.98,-41.5001 1964.98,-38 1954.98,-34.5001 1954.98,-41.5001"/>
</g>
<!-- Node176 -->
<g id="node48" class="node"><title>Node176</title>
<g id="a_node48"><a xlink:href="llex_8c.html#ab53c17c8b5ca50bcdfbd1cddf7310e83" target="_top" xlink:title=" ">
<polygon fill="white" stroke="black" points="504,-160.5 504,-179.5 558,-179.5 558,-160.5 504,-160.5"/>
<text text-anchor="middle" x="531" y="-167.5" font-family="Helvetica,sans-Serif" font-size="10.00">txtToken</text>
</a>
</g>
</g>
<!-- Node175&#45;&gt;Node176 -->
<g id="edge68" class="edge"><title>Node175&#45;&gt;Node176</title>
<path fill="none" stroke="midnightblue" d="M468.317,-152.685C476.358,-154.943 485.52,-157.514 494.278,-159.973"/>
<polygon fill="midnightblue" stroke="midnightblue" points="493.338,-163.344 503.912,-162.677 495.23,-156.605 493.338,-163.344"/>
</g>
<!-- Node176&#45;&gt;Node4 -->
<g id="edge69" class="edge"><title>Node176&#45;&gt;Node4</title>
<path fill="none" stroke="midnightblue" d="M558.279,-171.186C592.937,-172.751 654.769,-175.543 699.578,-177.566"/>
<polygon fill="midnightblue" stroke="midnightblue" points="699.57,-181.069 709.718,-178.023 699.886,-174.076 699.57,-181.069"/>
</g>
<!-- Node177 -->
<g id="node49" class="node"><title>Node177</title>
<g id="a_node49"><a xlink:href="llex_8c.html#afbf0654ae651496d0e8dcebeefbefed6" target="_top" xlink:title=" ">
<polygon fill="white" stroke="black" points="594,-189.5 594,-208.5 674,-208.5 674,-189.5 594,-189.5"/>
<text text-anchor="middle" x="634" y="-196.5" font-family="Helvetica,sans-Serif" font-size="10.00">luaX_token2str</text>
</a>
</g>
</g>
<!-- Node176&#45;&gt;Node177 -->
<g id="edge70" class="edge"><title>Node176&#45;&gt;Node177</title>
<path fill="none" stroke="midnightblue" d="M558.01,-177.468C567.765,-180.269 579.13,-183.532 590.017,-186.658"/>
<polygon fill="midnightblue" stroke="midnightblue" points="589.244,-190.078 599.822,-189.474 591.176,-183.35 589.244,-190.078"/>
</g>
<!-- Node178 -->
<g id="node50" class="node"><title>Node178</title>
<g id="a_node50"><a xlink:href="llex_8c.html#a3418da69613c587915ff780b0ec3744b" target="_top" xlink:title=" ">
<polygon fill="white" stroke="black" points="616,-227.5 616,-246.5 652,-246.5 652,-227.5 616,-227.5"/>
<text text-anchor="middle" x="634" y="-234.5" font-family="Helvetica,sans-Serif" font-size="10.00">save</text>
</a>
</g>
</g>
<!-- Node176&#45;&gt;Node178 -->
<g id="edge72" class="edge"><title>Node176&#45;&gt;Node178</title>
<path fill="none" stroke="midnightblue" d="M542.92,-179.576C554.927,-189.831 575.039,-206.216 594,-218 597.994,-220.482 602.36,-222.884 606.678,-225.097"/>
<polygon fill="midnightblue" stroke="midnightblue" points="605.372,-228.354 615.894,-229.597 608.444,-222.064 605.372,-228.354"/>
</g>
<!-- Node177&#45;&gt;Node4 -->
<g id="edge71" class="edge"><title>Node177&#45;&gt;Node4</title>
<path fill="none" stroke="midnightblue" d="M674.13,-192.726C682.367,-191.405 691.193,-189.99 699.858,-188.601"/>
<polygon fill="midnightblue" stroke="midnightblue" points="700.59,-192.028 709.91,-186.989 699.482,-185.116 700.59,-192.028"/>
</g>
<!-- Node178&#45;&gt;Node175 -->
<g id="edge73" class="edge"><title>Node178&#45;&gt;Node175</title>
<path fill="none" stroke="midnightblue" d="M615.672,-232.183C590.297,-224.772 541.931,-209.281 504,-189 489.67,-181.338 474.855,-170.642 463.593,-161.834"/>
<polygon fill="midnightblue" stroke="midnightblue" points="465.734,-159.065 455.74,-155.549 461.36,-164.53 465.734,-159.065"/>
</g>
</g>
</svg>
