<?xml version="1.0" encoding="UTF-8" standalone="no"?>
<!DOCTYPE svg PUBLIC "-//W3C//DTD SVG 1.1//EN"
 "http://www.w3.org/Graphics/SVG/1.1/DTD/svg11.dtd">
<!-- Generated by graphviz version 2.38.0 (20140413.2041)
 -->
<!-- Title: luaE_setdebt Pages: 1 -->
<svg width="1241pt" height="648pt"
 viewBox="0.00 0.00 1241.00 648.00" xmlns="http://www.w3.org/2000/svg" xmlns:xlink="http://www.w3.org/1999/xlink">
<g id="graph0" class="graph" transform="scale(1 1) rotate(0) translate(4 644)">
<title>luaE_setdebt</title>
<polygon fill="white" stroke="none" points="-4,4 -4,-644 1237,-644 1237,4 -4,4"/>
<!-- Node1 -->
<g id="node1" class="node"><title>Node1</title>
<g id="a_node1"><a xlink:title=" ">
<polygon fill="#bfbfbf" stroke="black" points="1159,-47.5 1159,-66.5 1233,-66.5 1233,-47.5 1159,-47.5"/>
<text text-anchor="middle" x="1196" y="-54.5" font-family="Helvetica,sans-Serif" font-size="10.00">luaE_setdebt</text>
</a>
</g>
</g>
<!-- Node2 -->
<g id="node2" class="node"><title>Node2</title>
<g id="a_node2"><a xlink:href="lgc_8c.html#a3a70dfeab5db063c688d7e200d63a7c1" target="_top" xlink:title=" ">
<polygon fill="white" stroke="black" points="958.5,-28.5 958.5,-47.5 1006.5,-47.5 1006.5,-28.5 958.5,-28.5"/>
<text text-anchor="middle" x="982.5" y="-35.5" font-family="Helvetica,sans-Serif" font-size="10.00">incstep</text>
</a>
</g>
</g>
<!-- Node1&#45;&gt;Node2 -->
<g id="edge1" class="edge"><title>Node1&#45;&gt;Node2</title>
<path fill="none" stroke="midnightblue" d="M1148.5,-52.8226C1104.61,-48.8794 1040.6,-43.13 1006.66,-40.0802"/>
<polygon fill="midnightblue" stroke="midnightblue" points="1148.37,-56.3249 1158.64,-53.7338 1149,-49.353 1148.37,-56.3249"/>
</g>
<!-- Node4 -->
<g id="node4" class="node"><title>Node4</title>
<g id="a_node4"><a xlink:href="lua_8h.html#aa4d179f50309744049e26166ee956ffd" target="_top" xlink:title=" ">
<polygon fill="white" stroke="black" points="656,-30.5 656,-49.5 701,-49.5 701,-30.5 656,-30.5"/>
<text text-anchor="middle" x="678.5" y="-37.5" font-family="Helvetica,sans-Serif" font-size="10.00">lua_gc</text>
</a>
</g>
</g>
<!-- Node1&#45;&gt;Node4 -->
<g id="edge7" class="edge"><title>Node1&#45;&gt;Node4</title>
<path fill="none" stroke="midnightblue" d="M1164.91,-43.5107C1124.5,-26.656 1050.08,-0 983.5,-0 983.5,-0 983.5,-0 882,-0 814.988,-0 737.825,-21.3434 701.098,-32.8488"/>
<polygon fill="midnightblue" stroke="midnightblue" points="1163.62,-46.7636 1174.19,-47.4595 1166.36,-40.3227 1163.62,-46.7636"/>
</g>
<!-- Node8 -->
<g id="node8" class="node"><title>Node8</title>
<g id="a_node8"><a xlink:href="lgc_8c.html#ab446273aaf611d661bb4c8b6e95360f1" target="_top" xlink:title=" ">
<polygon fill="white" stroke="black" points="1050,-66.5 1050,-85.5 1123,-85.5 1123,-66.5 1050,-66.5"/>
<text text-anchor="middle" x="1086.5" y="-73.5" font-family="Helvetica,sans-Serif" font-size="10.00">setminordebt</text>
</a>
</g>
</g>
<!-- Node1&#45;&gt;Node8 -->
<g id="edge8" class="edge"><title>Node1&#45;&gt;Node8</title>
<path fill="none" stroke="midnightblue" d="M1149,-65.1307C1140.41,-66.6492 1131.54,-68.2153 1123.32,-69.6696"/>
<polygon fill="midnightblue" stroke="midnightblue" points="1149.67,-68.5667 1158.91,-63.3796 1148.45,-61.6735 1149.67,-68.5667"/>
</g>
<!-- Node11 -->
<g id="node11" class="node"><title>Node11</title>
<g id="a_node11"><a xlink:href="lgc_8c.html#ab1a2b0658321a52d5ae0c139b0bf5494" target="_top" xlink:title=" ">
<polygon fill="white" stroke="black" points="1058.5,-104.5 1058.5,-123.5 1114.5,-123.5 1114.5,-104.5 1058.5,-104.5"/>
<text text-anchor="middle" x="1086.5" y="-111.5" font-family="Helvetica,sans-Serif" font-size="10.00">setpause</text>
</a>
</g>
</g>
<!-- Node1&#45;&gt;Node11 -->
<g id="edge13" class="edge"><title>Node1&#45;&gt;Node11</title>
<path fill="none" stroke="midnightblue" d="M1167.74,-71.4525C1148.22,-81.8069 1122.47,-95.46 1105.47,-104.474"/>
<polygon fill="midnightblue" stroke="midnightblue" points="1169.57,-74.4461 1176.76,-66.6693 1166.29,-68.2617 1169.57,-74.4461"/>
</g>
<!-- Node3 -->
<g id="node3" class="node"><title>Node3</title>
<g id="a_node3"><a xlink:href="lgc_8h.html#a6c71cc4b9e503c0e96c0c4ffcff93900" target="_top" xlink:title=" ">
<polygon fill="white" stroke="black" points="754,-30.5 754,-49.5 814,-49.5 814,-30.5 754,-30.5"/>
<text text-anchor="middle" x="784" y="-37.5" font-family="Helvetica,sans-Serif" font-size="10.00">luaC_step</text>
</a>
</g>
</g>
<!-- Node2&#45;&gt;Node3 -->
<g id="edge2" class="edge"><title>Node2&#45;&gt;Node3</title>
<path fill="none" stroke="midnightblue" d="M947.733,-38.3437C910.039,-38.7273 849.666,-39.3418 814.017,-39.7047"/>
<polygon fill="midnightblue" stroke="midnightblue" points="948.223,-41.839 958.187,-38.2373 948.152,-34.8393 948.223,-41.839"/>
</g>
<!-- Node3&#45;&gt;Node4 -->
<g id="edge3" class="edge"><title>Node3&#45;&gt;Node4</title>
<path fill="none" stroke="midnightblue" d="M743.703,-40C729.28,-40 713.484,-40 701.169,-40"/>
<polygon fill="midnightblue" stroke="midnightblue" points="743.894,-43.5001 753.894,-40 743.894,-36.5001 743.894,-43.5001"/>
</g>
<!-- Node5 -->
<g id="node5" class="node"><title>Node5</title>
<g id="a_node5"><a xlink:href="lbaselib_8c.html#a07f71966c943cc9761ab129f64d4ac80" target="_top" xlink:title=" ">
<polygon fill="white" stroke="black" points="500,-43.5 500,-62.5 604,-62.5 604,-43.5 500,-43.5"/>
<text text-anchor="middle" x="552" y="-50.5" font-family="Helvetica,sans-Serif" font-size="10.00">luaB_collectgarbage</text>
</a>
</g>
</g>
<!-- Node4&#45;&gt;Node5 -->
<g id="edge4" class="edge"><title>Node4&#45;&gt;Node5</title>
<path fill="none" stroke="midnightblue" d="M645.783,-43.3118C633.137,-44.6322 618.257,-46.186 604.161,-47.6579"/>
<polygon fill="midnightblue" stroke="midnightblue" points="646.231,-46.7841 655.814,-42.2644 645.504,-39.822 646.231,-46.7841"/>
</g>
<!-- Node6 -->
<g id="node6" class="node"><title>Node6</title>
<g id="a_node6"><a xlink:href="lua_8c.html#aa0f8bc082ef913cb0a4df437bf5f5019" target="_top" xlink:title=" ">
<polygon fill="white" stroke="black" points="530.5,-5.5 530.5,-24.5 573.5,-24.5 573.5,-5.5 530.5,-5.5"/>
<text text-anchor="middle" x="552" y="-12.5" font-family="Helvetica,sans-Serif" font-size="10.00">pmain</text>
</a>
</g>
</g>
<!-- Node4&#45;&gt;Node6 -->
<g id="edge5" class="edge"><title>Node4&#45;&gt;Node6</title>
<path fill="none" stroke="midnightblue" d="M645.961,-33.6668C623.266,-29.1096 593.304,-23.0932 573.611,-19.1388"/>
<polygon fill="midnightblue" stroke="midnightblue" points="645.32,-37.108 655.814,-35.6453 646.699,-30.245 645.32,-37.108"/>
</g>
<!-- Node7 -->
<g id="node7" class="node"><title>Node7</title>
<g id="a_node7"><a xlink:href="lua_8c.html#a3c04138a5bfe5d72780bb7e82a18e627" target="_top" xlink:title=" ">
<polygon fill="white" stroke="black" points="395,-5.5 395,-24.5 433,-24.5 433,-5.5 395,-5.5"/>
<text text-anchor="middle" x="414" y="-12.5" font-family="Helvetica,sans-Serif" font-size="10.00">main</text>
</a>
</g>
</g>
<!-- Node6&#45;&gt;Node7 -->
<g id="edge6" class="edge"><title>Node6&#45;&gt;Node7</title>
<path fill="none" stroke="midnightblue" d="M520.326,-15C493.521,-15 455.503,-15 433.231,-15"/>
<polygon fill="midnightblue" stroke="midnightblue" points="520.345,-18.5001 530.345,-15 520.344,-11.5001 520.345,-18.5001"/>
</g>
<!-- Node9 -->
<g id="node9" class="node"><title>Node9</title>
<g id="a_node9"><a xlink:href="lgc_8c.html#a3035567259cf4d2269426622ccc0d022" target="_top" xlink:title=" ">
<polygon fill="white" stroke="black" points="857.5,-86.5 857.5,-105.5 908.5,-105.5 908.5,-86.5 857.5,-86.5"/>
<text text-anchor="middle" x="883" y="-93.5" font-family="Helvetica,sans-Serif" font-size="10.00">genstep</text>
</a>
</g>
</g>
<!-- Node8&#45;&gt;Node9 -->
<g id="edge9" class="edge"><title>Node8&#45;&gt;Node9</title>
<path fill="none" stroke="midnightblue" d="M1039.75,-80.5411C999.118,-84.5739 941.282,-90.3144 908.732,-93.5452"/>
<polygon fill="midnightblue" stroke="midnightblue" points="1040.33,-84.0002 1049.94,-79.5296 1039.64,-77.0345 1040.33,-84.0002"/>
</g>
<!-- Node10 -->
<g id="node10" class="node"><title>Node10</title>
<g id="a_node10"><a xlink:href="lgc_8c.html#a6a3515ae97e70e9ccd0fb50acebc62d1" target="_top" xlink:title=" ">
<polygon fill="white" stroke="black" points="951,-104.5 951,-123.5 1014,-123.5 1014,-104.5 951,-104.5"/>
<text text-anchor="middle" x="982.5" y="-111.5" font-family="Helvetica,sans-Serif" font-size="10.00">stepgenfull</text>
</a>
</g>
</g>
<!-- Node8&#45;&gt;Node10 -->
<g id="edge11" class="edge"><title>Node8&#45;&gt;Node10</title>
<path fill="none" stroke="midnightblue" d="M1050.29,-89.118C1036.8,-94.1439 1021.67,-99.7791 1009.23,-104.414"/>
<polygon fill="midnightblue" stroke="midnightblue" points="1051.61,-92.3599 1059.76,-85.589 1049.17,-85.8004 1051.61,-92.3599"/>
</g>
<!-- Node9&#45;&gt;Node3 -->
<g id="edge10" class="edge"><title>Node9&#45;&gt;Node3</title>
<path fill="none" stroke="midnightblue" d="M856.098,-81.0465C838.839,-71.0824 816.662,-58.2794 801.702,-49.6427"/>
<polygon fill="midnightblue" stroke="midnightblue" points="854.694,-84.2768 865.104,-86.2455 858.193,-78.2146 854.694,-84.2768"/>
</g>
<!-- Node10&#45;&gt;Node9 -->
<g id="edge12" class="edge"><title>Node10&#45;&gt;Node9</title>
<path fill="none" stroke="midnightblue" d="M941.039,-106.53C930.032,-104.498 918.444,-102.359 908.609,-100.543"/>
<polygon fill="midnightblue" stroke="midnightblue" points="940.449,-109.98 950.918,-108.354 941.72,-103.097 940.449,-109.98"/>
</g>
<!-- Node11&#45;&gt;Node2 -->
<g id="edge62" class="edge"><title>Node11&#45;&gt;Node2</title>
<path fill="none" stroke="midnightblue" d="M1057.06,-99.5033C1054.63,-98.0483 1052.25,-96.5382 1050,-95 1028.41,-80.2318 1005.82,-59.5777 993.309,-47.6134"/>
<polygon fill="midnightblue" stroke="midnightblue" points="1055.46,-102.617 1065.89,-104.483 1058.9,-96.5208 1055.46,-102.617"/>
</g>
<!-- Node11&#45;&gt;Node9 -->
<g id="edge61" class="edge"><title>Node11&#45;&gt;Node9</title>
<path fill="none" stroke="midnightblue" d="M1049.73,-126.58C1022.38,-134.396 983.905,-141.482 951,-133 930.67,-127.759 909.913,-114.894 897,-105.811"/>
<polygon fill="midnightblue" stroke="midnightblue" points="1051.08,-129.83 1059.63,-123.58 1049.05,-123.13 1051.08,-129.83"/>
</g>
<!-- Node11&#45;&gt;Node10 -->
<g id="edge63" class="edge"><title>Node11&#45;&gt;Node10</title>
<path fill="none" stroke="midnightblue" d="M1048.13,-114C1037.01,-114 1024.95,-114 1014.3,-114"/>
<polygon fill="midnightblue" stroke="midnightblue" points="1048.43,-117.5 1058.43,-114 1048.43,-110.5 1048.43,-117.5"/>
</g>
<!-- Node12 -->
<g id="node12" class="node"><title>Node12</title>
<g id="a_node12"><a xlink:href="lgc_8c.html#ac6dccdcfb264cbc5f1776cea79c8e375" target="_top" xlink:title=" ">
<polygon fill="white" stroke="black" points="962,-180.5 962,-199.5 1003,-199.5 1003,-180.5 962,-180.5"/>
<text text-anchor="middle" x="982.5" y="-187.5" font-family="Helvetica,sans-Serif" font-size="10.00">fullinc</text>
</a>
</g>
</g>
<!-- Node11&#45;&gt;Node12 -->
<g id="edge14" class="edge"><title>Node11&#45;&gt;Node12</title>
<path fill="none" stroke="midnightblue" d="M1064.47,-129.667C1043.96,-144.949 1013.43,-167.702 996.313,-180.453"/>
<polygon fill="midnightblue" stroke="midnightblue" points="1066.65,-132.407 1072.58,-123.625 1062.47,-126.794 1066.65,-132.407"/>
</g>
<!-- Node13 -->
<g id="node13" class="node"><title>Node13</title>
<g id="a_node13"><a xlink:href="lgc_8h.html#aa0b753c3ed80e1eed0379ec58592c404" target="_top" xlink:title=" ">
<polygon fill="white" stroke="black" points="851,-143.5 851,-162.5 915,-162.5 915,-143.5 851,-143.5"/>
<text text-anchor="middle" x="883" y="-150.5" font-family="Helvetica,sans-Serif" font-size="10.00">luaC_fullgc</text>
</a>
</g>
</g>
<!-- Node12&#45;&gt;Node13 -->
<g id="edge15" class="edge"><title>Node12&#45;&gt;Node13</title>
<path fill="none" stroke="midnightblue" d="M952.308,-178.922C938.607,-173.723 922.435,-167.586 909.267,-162.589"/>
<polygon fill="midnightblue" stroke="midnightblue" points="951.178,-182.237 961.769,-182.512 953.662,-175.692 951.178,-182.237"/>
</g>
<!-- Node13&#45;&gt;Node4 -->
<g id="edge54" class="edge"><title>Node13&#45;&gt;Node4</title>
<path fill="none" stroke="midnightblue" d="M858.929,-137.921C846.133,-129.715 829.849,-119.527 815,-111 774.466,-87.7222 725.622,-62.8928 699.052,-49.6476"/>
<polygon fill="midnightblue" stroke="midnightblue" points="857.26,-141.01 867.559,-143.494 861.057,-135.129 857.26,-141.01"/>
</g>
<!-- Node14 -->
<g id="node14" class="node"><title>Node14</title>
<g id="a_node14"><a xlink:href="lstring_8c.html#af8b89b01dc2db9f0d3024067ffdb931a" target="_top" xlink:title=" ">
<polygon fill="white" stroke="black" points="753,-174.5 753,-193.5 815,-193.5 815,-174.5 753,-174.5"/>
<text text-anchor="middle" x="784" y="-181.5" font-family="Helvetica,sans-Serif" font-size="10.00">growstrtab</text>
</a>
</g>
</g>
<!-- Node13&#45;&gt;Node14 -->
<g id="edge16" class="edge"><title>Node13&#45;&gt;Node14</title>
<path fill="none" stroke="midnightblue" d="M842.399,-165.656C833.236,-168.584 823.634,-171.653 814.963,-174.424"/>
<polygon fill="midnightblue" stroke="midnightblue" points="843.645,-168.932 852.105,-162.554 841.514,-162.264 843.645,-168.932"/>
</g>
<!-- Node357 -->
<g id="node45" class="node"><title>Node357</title>
<g id="a_node45"><a xlink:href="lmem_8c.html#ac7379e62dbe09e64e1b91045fee89b66" target="_top" xlink:title=" ">
<polygon fill="white" stroke="black" points="758.5,-120.5 758.5,-139.5 809.5,-139.5 809.5,-120.5 758.5,-120.5"/>
<text text-anchor="middle" x="784" y="-127.5" font-family="Helvetica,sans-Serif" font-size="10.00">tryagain</text>
</a>
</g>
</g>
<!-- Node13&#45;&gt;Node357 -->
<g id="edge55" class="edge"><title>Node13&#45;&gt;Node357</title>
<path fill="none" stroke="midnightblue" d="M840.835,-143.239C830.244,-140.728 819.175,-138.103 809.712,-135.86"/>
<polygon fill="midnightblue" stroke="midnightblue" points="840.237,-146.694 850.775,-145.596 841.852,-139.883 840.237,-146.694"/>
</g>
<!-- Node15 -->
<g id="node15" class="node"><title>Node15</title>
<g id="a_node15"><a xlink:href="lstring_8c.html#a9b2c32c59a280de24f20df1c7f0433a1" target="_top" xlink:title=" ">
<polygon fill="white" stroke="black" points="646,-189.5 646,-208.5 711,-208.5 711,-189.5 646,-189.5"/>
<text text-anchor="middle" x="678.5" y="-196.5" font-family="Helvetica,sans-Serif" font-size="10.00">internshrstr</text>
</a>
</g>
</g>
<!-- Node14&#45;&gt;Node15 -->
<g id="edge17" class="edge"><title>Node14&#45;&gt;Node15</title>
<path fill="none" stroke="midnightblue" d="M742.586,-189.857C732.102,-191.377 720.964,-192.991 711.012,-194.433"/>
<polygon fill="midnightblue" stroke="midnightblue" points="743.391,-193.277 752.785,-188.379 742.387,-186.35 743.391,-193.277"/>
</g>
<!-- Node16 -->
<g id="node16" class="node"><title>Node16</title>
<g id="a_node16"><a xlink:href="lstring_8h.html#a248e72694b9116b07b2e7f4a9a3a5331" target="_top" xlink:title=" ">
<polygon fill="white" stroke="black" points="516,-259.5 516,-278.5 588,-278.5 588,-259.5 516,-259.5"/>
<text text-anchor="middle" x="552" y="-266.5" font-family="Helvetica,sans-Serif" font-size="10.00">luaS_newlstr</text>
</a>
</g>
</g>
<!-- Node15&#45;&gt;Node16 -->
<g id="edge18" class="edge"><title>Node15&#45;&gt;Node16</title>
<path fill="none" stroke="midnightblue" d="M651.717,-213.496C627.313,-227.218 591.358,-247.433 570.244,-259.305"/>
<polygon fill="midnightblue" stroke="midnightblue" points="653.449,-216.538 660.45,-208.586 650.018,-210.437 653.449,-216.538"/>
</g>
<!-- Node17 -->
<g id="node17" class="node"><title>Node17</title>
<g id="a_node17"><a xlink:href="lundump_8c.html#a809187a6bdb823c33bbbde30a17eca54" target="_top" xlink:title=" ">
<polygon fill="white" stroke="black" points="380.5,-259.5 380.5,-278.5 447.5,-278.5 447.5,-259.5 380.5,-259.5"/>
<text text-anchor="middle" x="414" y="-266.5" font-family="Helvetica,sans-Serif" font-size="10.00">loadStringN</text>
</a>
</g>
</g>
<!-- Node16&#45;&gt;Node17 -->
<g id="edge19" class="edge"><title>Node16&#45;&gt;Node17</title>
<path fill="none" stroke="midnightblue" d="M505.725,-269C486.695,-269 464.982,-269 447.57,-269"/>
<polygon fill="midnightblue" stroke="midnightblue" points="505.977,-272.5 515.977,-269 505.977,-265.5 505.977,-272.5"/>
</g>
<!-- Node31 -->
<g id="node21" class="node"><title>Node31</title>
<g id="a_node21"><a xlink:href="lua_8h.html#a4eba0457df5bafff4d44071d1d8080b6" target="_top" xlink:title=" ">
<polygon fill="white" stroke="black" points="255,-145.5 255,-164.5 319,-164.5 319,-145.5 255,-145.5"/>
<text text-anchor="middle" x="287" y="-152.5" font-family="Helvetica,sans-Serif" font-size="10.00">lua_concat</text>
</a>
</g>
</g>
<!-- Node16&#45;&gt;Node31 -->
<g id="edge24" class="edge"><title>Node16&#45;&gt;Node31</title>
<path fill="none" stroke="midnightblue" d="M540.226,-250.783C525.917,-228.443 498.398,-191.405 464,-174 417.656,-150.55 355.799,-149.781 319.107,-151.967"/>
<polygon fill="midnightblue" stroke="midnightblue" points="537.293,-252.695 545.531,-259.358 543.246,-249.012 537.293,-252.695"/>
</g>
<!-- Node277 -->
<g id="node27" class="node"><title>Node277</title>
<g id="a_node27"><a xlink:href="lua_8h.html#a48a8d31a66ddacf1ea049b980cf09ab2" target="_top" xlink:title=" ">
<polygon fill="white" stroke="black" points="246,-430.5 246,-449.5 328,-449.5 328,-430.5 246,-430.5"/>
<text text-anchor="middle" x="287" y="-437.5" font-family="Helvetica,sans-Serif" font-size="10.00">lua_pushlstring</text>
</a>
</g>
</g>
<!-- Node16&#45;&gt;Node277 -->
<g id="edge30" class="edge"><title>Node16&#45;&gt;Node277</title>
<path fill="none" stroke="midnightblue" d="M530.087,-284.562C512.933,-296.863 487.698,-313.915 464,-326 421.644,-347.599 403.918,-338.172 364,-364 334.86,-382.854 307.944,-414.431 295.403,-430.289"/>
<polygon fill="midnightblue" stroke="midnightblue" points="532.239,-287.325 538.27,-278.615 528.124,-281.663 532.239,-287.325"/>
</g>
<!-- Node283 -->
<g id="node37" class="node"><title>Node283</title>
<g id="a_node37"><a xlink:href="lobject_8h.html#a007d2c6293fee953f3af21f60f8133ba" target="_top" xlink:title=" ">
<polygon fill="white" stroke="black" points="377,-297.5 377,-316.5 451,-316.5 451,-297.5 377,-297.5"/>
<text text-anchor="middle" x="414" y="-304.5" font-family="Helvetica,sans-Serif" font-size="10.00">luaO_tostring</text>
</a>
</g>
</g>
<!-- Node16&#45;&gt;Node283 -->
<g id="edge42" class="edge"><title>Node16&#45;&gt;Node283</title>
<path fill="none" stroke="midnightblue" d="M506.913,-281.318C488.228,-286.539 466.782,-292.532 449.308,-297.414"/>
<polygon fill="midnightblue" stroke="midnightblue" points="507.992,-284.651 516.681,-278.589 506.108,-277.909 507.992,-284.651"/>
</g>
<!-- Node287 -->
<g id="node39" class="node"><title>Node287</title>
<g id="a_node39"><a xlink:href="lstring_8h.html#a6929da8cfde3e74a0d51a6467909ef9d" target="_top" xlink:title=" ">
<polygon fill="white" stroke="red" points="384.5,-449.5 384.5,-468.5 443.5,-468.5 443.5,-449.5 384.5,-449.5"/>
<text text-anchor="middle" x="414" y="-456.5" font-family="Helvetica,sans-Serif" font-size="10.00">luaS_new</text>
</a>
</g>
</g>
<!-- Node16&#45;&gt;Node287 -->
<g id="edge45" class="edge"><title>Node16&#45;&gt;Node287</title>
<path fill="none" stroke="midnightblue" d="M539.973,-287.482C524.125,-313.652 493.552,-362.693 464,-402 450.982,-419.315 434.244,-438.141 424.083,-449.239"/>
<polygon fill="midnightblue" stroke="midnightblue" points="543.136,-289.014 545.293,-278.641 537.139,-285.405 543.136,-289.014"/>
</g>
<!-- Node401 -->
<g id="node42" class="node"><title>Node401</title>
<g id="a_node42"><a xlink:href="lvm_8h.html#aee84bfc563cb4bdd21a013218a289aa7" target="_top" xlink:title=" ">
<polygon fill="white" stroke="red" points="378.5,-183.5 378.5,-202.5 449.5,-202.5 449.5,-183.5 378.5,-183.5"/>
<text text-anchor="middle" x="414" y="-190.5" font-family="Helvetica,sans-Serif" font-size="10.00">luaV_concat</text>
</a>
</g>
</g>
<!-- Node16&#45;&gt;Node401 -->
<g id="edge49" class="edge"><title>Node16&#45;&gt;Node401</title>
<path fill="none" stroke="midnightblue" d="M526.96,-253.896C509.664,-243.211 485.663,-228.753 464,-217 454.841,-212.031 444.506,-206.901 435.697,-202.666"/>
<polygon fill="midnightblue" stroke="midnightblue" points="525.481,-257.097 535.822,-259.403 529.176,-251.152 525.481,-257.097"/>
</g>
<!-- Node408 -->
<g id="node43" class="node"><title>Node408</title>
<g id="a_node43"><a xlink:href="lobject_8c.html#a90720e7e38c0e352e9b97d3f8def9e1a" target="_top" xlink:title=" ">
<polygon fill="white" stroke="red" points="262.5,-183.5 262.5,-202.5 311.5,-202.5 311.5,-183.5 262.5,-183.5"/>
<text text-anchor="middle" x="287" y="-190.5" font-family="Helvetica,sans-Serif" font-size="10.00">pushstr</text>
</a>
</g>
</g>
<!-- Node16&#45;&gt;Node408 -->
<g id="edge53" class="edge"><title>Node16&#45;&gt;Node408</title>
<path fill="none" stroke="midnightblue" d="M508.339,-256.672C452.415,-240.511 356.223,-212.715 311.782,-199.872"/>
<polygon fill="midnightblue" stroke="midnightblue" points="507.379,-260.038 517.957,-259.452 509.322,-253.313 507.379,-260.038"/>
</g>
<!-- Node508 -->
<g id="node44" class="node"><title>Node508</title>
<g id="a_node44"><a xlink:href="llex_8h.html#aa6e79179f823cf156f61899a09239ca6" target="_top" xlink:title=" ">
<polygon fill="white" stroke="red" points="373.5,-373.5 373.5,-392.5 454.5,-392.5 454.5,-373.5 373.5,-373.5"/>
<text text-anchor="middle" x="414" y="-380.5" font-family="Helvetica,sans-Serif" font-size="10.00">luaX_newstring</text>
</a>
</g>
</g>
<!-- Node16&#45;&gt;Node508 -->
<g id="edge52" class="edge"><title>Node16&#45;&gt;Node508</title>
<path fill="none" stroke="midnightblue" d="M537.229,-286.547C521.221,-306.092 493.24,-337.73 464,-359 456.34,-364.572 447.187,-369.453 438.877,-373.333"/>
<polygon fill="midnightblue" stroke="midnightblue" points="539.971,-288.722 543.514,-278.738 534.517,-284.334 539.971,-288.722"/>
</g>
<!-- Node18 -->
<g id="node18" class="node"><title>Node18</title>
<g id="a_node18"><a xlink:href="lundump_8c.html#a121ddfe27d3762c4b5ed14bd3746af7a" target="_top" xlink:title=" ">
<polygon fill="white" stroke="black" points="256,-221.5 256,-240.5 318,-240.5 318,-221.5 256,-221.5"/>
<text text-anchor="middle" x="287" y="-228.5" font-family="Helvetica,sans-Serif" font-size="10.00">loadDebug</text>
</a>
</g>
</g>
<!-- Node17&#45;&gt;Node18 -->
<g id="edge20" class="edge"><title>Node17&#45;&gt;Node18</title>
<path fill="none" stroke="midnightblue" d="M371.536,-256.395C354.12,-251.1 334.237,-245.056 318.239,-240.193"/>
<polygon fill="midnightblue" stroke="midnightblue" points="370.872,-259.851 381.457,-259.411 372.908,-253.154 370.872,-259.851"/>
</g>
<!-- Node19 -->
<g id="node19" class="node"><title>Node19</title>
<g id="a_node19"><a xlink:href="lundump_8c.html#a894435708ede05d12c7e81033dae380f" target="_top" xlink:title=" ">
<polygon fill="white" stroke="red" points="128.5,-240.5 128.5,-259.5 200.5,-259.5 200.5,-240.5 128.5,-240.5"/>
<text text-anchor="middle" x="164.5" y="-247.5" font-family="Helvetica,sans-Serif" font-size="10.00">loadFunction</text>
</a>
</g>
</g>
<!-- Node17&#45;&gt;Node19 -->
<g id="edge22" class="edge"><title>Node17&#45;&gt;Node19</title>
<path fill="none" stroke="midnightblue" d="M370.315,-265.723C322.305,-262.038 245.228,-256.121 200.581,-252.693"/>
<polygon fill="midnightblue" stroke="midnightblue" points="370.151,-269.221 380.389,-266.497 370.686,-262.241 370.151,-269.221"/>
</g>
<!-- Node29 -->
<g id="node20" class="node"><title>Node29</title>
<g id="a_node20"><a xlink:href="lundump_8c.html#adf82f91f2291f1cea44f0f28646d6ad5" target="_top" xlink:title=" ">
<polygon fill="white" stroke="red" points="257,-297.5 257,-316.5 317,-316.5 317,-297.5 257,-297.5"/>
<text text-anchor="middle" x="287" y="-304.5" font-family="Helvetica,sans-Serif" font-size="10.00">loadString</text>
</a>
</g>
</g>
<!-- Node17&#45;&gt;Node29 -->
<g id="edge23" class="edge"><title>Node17&#45;&gt;Node29</title>
<path fill="none" stroke="midnightblue" d="M371.878,-281.501C354.071,-286.915 333.63,-293.128 317.386,-298.067"/>
<polygon fill="midnightblue" stroke="midnightblue" points="372.908,-284.846 381.457,-278.589 370.872,-278.149 372.908,-284.846"/>
</g>
<!-- Node18&#45;&gt;Node19 -->
<g id="edge21" class="edge"><title>Node18&#45;&gt;Node19</title>
<path fill="none" stroke="midnightblue" d="M245.679,-237.358C231.136,-239.651 214.847,-242.219 200.769,-244.439"/>
<polygon fill="midnightblue" stroke="midnightblue" points="246.571,-240.76 255.904,-235.745 245.48,-233.846 246.571,-240.76"/>
</g>
<!-- Node32 -->
<g id="node22" class="node"><title>Node32</title>
<g id="a_node22"><a xlink:href="lauxlib_8c.html#a36c8f149b779f8c9a5c042ea9784d80a" target="_top" xlink:title=" ">
<polygon fill="white" stroke="red" points="140,-126.5 140,-145.5 189,-145.5 189,-126.5 140,-126.5"/>
<text text-anchor="middle" x="164.5" y="-133.5" font-family="Helvetica,sans-Serif" font-size="10.00">findfield</text>
</a>
</g>
</g>
<!-- Node31&#45;&gt;Node32 -->
<g id="edge25" class="edge"><title>Node31&#45;&gt;Node32</title>
<path fill="none" stroke="midnightblue" d="M244.974,-148.531C226.386,-145.6 205.07,-142.239 189.197,-139.736"/>
<polygon fill="midnightblue" stroke="midnightblue" points="244.545,-152.007 254.968,-150.107 245.635,-145.092 244.545,-152.007"/>
</g>
<!-- Node168 -->
<g id="node23" class="node"><title>Node168</title>
<g id="a_node23"><a xlink:href="lcorolib_8c.html#a777abb20385a69ce4787f72bd90375a7" target="_top" xlink:title=" ">
<polygon fill="white" stroke="red" points="126,-88.5 126,-107.5 203,-107.5 203,-88.5 126,-88.5"/>
<text text-anchor="middle" x="164.5" y="-95.5" font-family="Helvetica,sans-Serif" font-size="10.00">luaB_auxwrap</text>
</a>
</g>
</g>
<!-- Node31&#45;&gt;Node168 -->
<g id="edge26" class="edge"><title>Node31&#45;&gt;Node168</title>
<path fill="none" stroke="midnightblue" d="M258.422,-140.711C244.081,-133.408 226.206,-124.503 210,-117 203.139,-113.824 195.602,-110.532 188.713,-107.599"/>
<polygon fill="midnightblue" stroke="midnightblue" points="257.225,-144.03 267.721,-145.474 260.416,-137.8 257.225,-144.03"/>
</g>
<!-- Node79 -->
<g id="node24" class="node"><title>Node79</title>
<g id="a_node24"><a xlink:href="lbaselib_8c.html#a2ecfa987569d0b4c1063f3e204e42dd2" target="_top" xlink:title=" ">
<polygon fill="white" stroke="red" points="134,-202.5 134,-221.5 195,-221.5 195,-202.5 134,-202.5"/>
<text text-anchor="middle" x="164.5" y="-209.5" font-family="Helvetica,sans-Serif" font-size="10.00">luaB_error</text>
</a>
</g>
</g>
<!-- Node31&#45;&gt;Node79 -->
<g id="edge27" class="edge"><title>Node31&#45;&gt;Node79</title>
<path fill="none" stroke="midnightblue" d="M256.414,-168.881C252.894,-170.583 249.359,-172.317 246,-174 229.826,-182.105 226.333,-185.219 210,-193 203.175,-196.252 195.648,-199.565 188.757,-202.495"/>
<polygon fill="midnightblue" stroke="midnightblue" points="258.06,-171.974 265.57,-164.501 255.039,-165.659 258.06,-171.974"/>
</g>
<!-- Node169 -->
<g id="node25" class="node"><title>Node169</title>
<g id="a_node25"><a xlink:href="lauxlib_8h.html#a994f73d7985c30672469a260d9e86ae6" target="_top" xlink:title=" ">
<polygon fill="white" stroke="red" points="135,-164.5 135,-183.5 194,-183.5 194,-164.5 135,-164.5"/>
<text text-anchor="middle" x="164.5" y="-171.5" font-family="Helvetica,sans-Serif" font-size="10.00">luaL_error</text>
</a>
</g>
</g>
<!-- Node31&#45;&gt;Node169 -->
<g id="edge28" class="edge"><title>Node31&#45;&gt;Node169</title>
<path fill="none" stroke="midnightblue" d="M244.946,-161.473C228.313,-164.096 209.5,-167.062 194.358,-169.45"/>
<polygon fill="midnightblue" stroke="midnightblue" points="245.635,-164.908 254.968,-159.893 244.545,-157.993 245.635,-164.908"/>
</g>
<!-- Node248 -->
<g id="node26" class="node"><title>Node248</title>
<g id="a_node26"><a xlink:href="lua_8c.html#affef5a04b31963c2c3f5028518777e12" target="_top" xlink:title=" ">
<polygon fill="white" stroke="red" points="15,-278.5 15,-297.5 68,-297.5 68,-278.5 15,-278.5"/>
<text text-anchor="middle" x="41.5" y="-285.5" font-family="Helvetica,sans-Serif" font-size="10.00">multiline</text>
</a>
</g>
</g>
<!-- Node31&#45;&gt;Node248 -->
<g id="edge29" class="edge"><title>Node31&#45;&gt;Node248</title>
<path fill="none" stroke="midnightblue" d="M274.418,-136.94C261.34,-118.402 238.168,-90.6676 210,-79 172.634,-63.5226 152.151,-55.8321 119,-79 50.2732,-127.03 43.0929,-243.805 42.5003,-278.27"/>
<polygon fill="midnightblue" stroke="midnightblue" points="271.656,-139.104 280.158,-145.427 277.455,-135.183 271.656,-139.104"/>
</g>
<!-- Node39 -->
<g id="node28" class="node"><title>Node39</title>
<g id="a_node28"><a xlink:href="ldblib_8c.html#a4eb57e66c2efb2d31c9b9e1b01d27e13" target="_top" xlink:title=" ">
<polygon fill="white" stroke="black" points="134,-468.5 134,-487.5 195,-487.5 195,-468.5 134,-468.5"/>
<text text-anchor="middle" x="164.5" y="-475.5" font-family="Helvetica,sans-Serif" font-size="10.00">db_getinfo</text>
</a>
</g>
</g>
<!-- Node277&#45;&gt;Node39 -->
<g id="edge31" class="edge"><title>Node277&#45;&gt;Node39</title>
<path fill="none" stroke="midnightblue" d="M245.635,-452.729C229.091,-457.947 210.293,-463.874 195.064,-468.677"/>
<polygon fill="midnightblue" stroke="midnightblue" points="247.108,-455.935 255.593,-449.589 245.003,-449.259 247.108,-455.935"/>
</g>
<!-- Node219 -->
<g id="node29" class="node"><title>Node219</title>
<g id="a_node29"><a xlink:href="loadlib_8c.html#a91ac5b5231cf039af46226806dcc3884" target="_top" xlink:title=" ">
<polygon fill="white" stroke="red" points="138,-430.5 138,-449.5 191,-449.5 191,-430.5 138,-430.5"/>
<text text-anchor="middle" x="164.5" y="-437.5" font-family="Helvetica,sans-Serif" font-size="10.00">loadfunc</text>
</a>
</g>
</g>
<!-- Node277&#45;&gt;Node219 -->
<g id="edge32" class="edge"><title>Node277&#45;&gt;Node219</title>
<path fill="none" stroke="midnightblue" d="M235.471,-440C220.171,-440 204.012,-440 191.083,-440"/>
<polygon fill="midnightblue" stroke="midnightblue" points="235.875,-443.5 245.875,-440 235.875,-436.5 235.875,-443.5"/>
</g>
<!-- Node186 -->
<g id="node30" class="node"><title>Node186</title>
<g id="a_node30"><a xlink:href="loadlib_8c.html#a1ec05cd98a045c271aeda9f9c6041e1c" target="_top" xlink:title=" ">
<polygon fill="white" stroke="red" points="0,-411.5 0,-430.5 83,-430.5 83,-411.5 0,-411.5"/>
<text text-anchor="middle" x="41.5" y="-418.5" font-family="Helvetica,sans-Serif" font-size="10.00">searcher_Croot</text>
</a>
</g>
</g>
<!-- Node277&#45;&gt;Node186 -->
<g id="edge39" class="edge"><title>Node277&#45;&gt;Node186</title>
<path fill="none" stroke="midnightblue" d="M245.573,-427.945C234.175,-425.08 221.693,-422.439 210,-421 166.996,-415.706 117.309,-416.574 83.2863,-418.225"/>
<polygon fill="midnightblue" stroke="midnightblue" points="244.701,-431.334 255.263,-430.495 246.483,-424.565 244.701,-431.334"/>
</g>
<!-- Node278 -->
<g id="node31" class="node"><title>Node278</title>
<g id="a_node31"><a xlink:href="lauxlib_8h.html#aac5dfab9ba0ced4f5ae3b22aa35faffe" target="_top" xlink:title=" ">
<polygon fill="white" stroke="red" points="122,-354.5 122,-373.5 207,-373.5 207,-354.5 122,-354.5"/>
<text text-anchor="middle" x="164.5" y="-361.5" font-family="Helvetica,sans-Serif" font-size="10.00">luaL_pushresult</text>
</a>
</g>
</g>
<!-- Node277&#45;&gt;Node278 -->
<g id="edge34" class="edge"><title>Node277&#45;&gt;Node278</title>
<path fill="none" stroke="midnightblue" d="M264.279,-424.236C249.294,-413.586 228.767,-399.437 210,-388 201.755,-382.975 192.38,-377.837 184.367,-373.612"/>
<polygon fill="midnightblue" stroke="midnightblue" points="262.66,-427.381 272.828,-430.359 266.736,-421.69 262.66,-427.381"/>
</g>
<!-- Node282 -->
<g id="node32" class="node"><title>Node282</title>
<g id="a_node32"><a xlink:href="lutf8lib_8c.html#ae1247f71bc4b3f3be7da9c9d5c7668b1" target="_top" xlink:title=" ">
<polygon fill="white" stroke="black" points="129,-620.5 129,-639.5 200,-639.5 200,-620.5 129,-620.5"/>
<text text-anchor="middle" x="164.5" y="-627.5" font-family="Helvetica,sans-Serif" font-size="10.00">luaopen_utf8</text>
</a>
</g>
</g>
<!-- Node277&#45;&gt;Node282 -->
<g id="edge35" class="edge"><title>Node277&#45;&gt;Node282</title>
<path fill="none" stroke="midnightblue" d="M249.159,-455.622C248.027,-456.68 246.967,-457.804 246,-459 202.349,-512.985 254.72,-557.897 210,-611 206.753,-614.855 202.584,-617.947 198.103,-620.422"/>
<polygon fill="midnightblue" stroke="midnightblue" points="251.443,-458.288 257.471,-449.575 247.325,-452.628 251.443,-458.288"/>
</g>
<!-- Node196 -->
<g id="node33" class="node"><title>Node196</title>
<g id="a_node33"><a xlink:href="lstrlib_8c.html#a24a14b4e6e90bac4610dd334bb0b51b6" target="_top" xlink:title=" ">
<polygon fill="white" stroke="red" points="119,-582.5 119,-601.5 210,-601.5 210,-582.5 119,-582.5"/>
<text text-anchor="middle" x="164.5" y="-589.5" font-family="Helvetica,sans-Serif" font-size="10.00">push_onecapture</text>
</a>
</g>
</g>
<!-- Node277&#45;&gt;Node196 -->
<g id="edge36" class="edge"><title>Node277&#45;&gt;Node196</title>
<path fill="none" stroke="midnightblue" d="M249.742,-455.302C248.402,-456.453 247.146,-457.685 246,-459 211.1,-499.064 245.692,-533.64 210,-573 206.501,-576.858 202.087,-579.962 197.406,-582.451"/>
<polygon fill="midnightblue" stroke="midnightblue" points="251.86,-458.093 258.113,-449.54 247.891,-452.326 251.86,-458.093"/>
</g>
<!-- Node246 -->
<g id="node34" class="node"><title>Node246</title>
<g id="a_node34"><a xlink:href="lua_8c.html#a83a7cb21b34095ca93f2a2a863f58fda" target="_top" xlink:title=" ">
<polygon fill="white" stroke="red" points="138,-316.5 138,-335.5 191,-335.5 191,-316.5 138,-316.5"/>
<text text-anchor="middle" x="164.5" y="-323.5" font-family="Helvetica,sans-Serif" font-size="10.00">pushline</text>
</a>
</g>
</g>
<!-- Node277&#45;&gt;Node246 -->
<g id="edge37" class="edge"><title>Node277&#45;&gt;Node246</title>
<path fill="none" stroke="midnightblue" d="M275.303,-421.739C262.221,-400.768 238.292,-366.499 210,-345 204.382,-340.731 197.659,-337.218 191.162,-334.424"/>
<polygon fill="midnightblue" stroke="midnightblue" points="272.346,-423.613 280.527,-430.345 278.329,-419.98 272.346,-423.613"/>
</g>
<!-- Node77 -->
<g id="node35" class="node"><title>Node77</title>
<g id="a_node35"><a xlink:href="lstrlib_8c.html#a039b391d5f43533a0ce750c5e40d7752" target="_top" xlink:title=" ">
<polygon fill="white" stroke="black" points="140,-544.5 140,-563.5 189,-563.5 189,-544.5 140,-544.5"/>
<text text-anchor="middle" x="164.5" y="-551.5" font-family="Helvetica,sans-Serif" font-size="10.00">str_sub</text>
</a>
</g>
</g>
<!-- Node277&#45;&gt;Node77 -->
<g id="edge40" class="edge"><title>Node277&#45;&gt;Node77</title>
<path fill="none" stroke="midnightblue" d="M250.481,-455.099C248.892,-456.314 247.386,-457.613 246,-459 219.586,-485.443 236.937,-509.09 210,-535 204.188,-540.591 196.477,-544.66 189.109,-547.563"/>
<polygon fill="midnightblue" stroke="midnightblue" points="252.392,-458.031 258.945,-449.706 248.631,-452.128 252.392,-458.031"/>
</g>
<!-- Node52 -->
<g id="node36" class="node"><title>Node52</title>
<g id="a_node36"><a xlink:href="lstrlib_8c.html#a3f3c1925e7829cbe972a744fa9168ec3" target="_top" xlink:title=" ">
<polygon fill="white" stroke="black" points="132,-506.5 132,-525.5 197,-525.5 197,-506.5 132,-506.5"/>
<text text-anchor="middle" x="164.5" y="-513.5" font-family="Helvetica,sans-Serif" font-size="10.00">str_unpack</text>
</a>
</g>
</g>
<!-- Node277&#45;&gt;Node52 -->
<g id="edge41" class="edge"><title>Node277&#45;&gt;Node52</title>
<path fill="none" stroke="midnightblue" d="M252.978,-454.456C250.553,-455.886 248.199,-457.404 246,-459 227.173,-472.667 229.096,-483.711 210,-497 204.76,-500.647 198.709,-503.803 192.791,-506.438"/>
<polygon fill="midnightblue" stroke="midnightblue" points="254.749,-457.477 261.916,-449.674 251.447,-451.305 254.749,-457.477"/>
</g>
<!-- Node219&#45;&gt;Node186 -->
<g id="edge33" class="edge"><title>Node219&#45;&gt;Node186</title>
<path fill="none" stroke="midnightblue" d="M127.666,-434.373C113.746,-432.187 97.7246,-429.672 83.3596,-427.416"/>
<polygon fill="midnightblue" stroke="midnightblue" points="127.417,-437.877 137.839,-435.971 128.503,-430.962 127.417,-437.877"/>
</g>
<!-- Node246&#45;&gt;Node248 -->
<g id="edge38" class="edge"><title>Node246&#45;&gt;Node248</title>
<path fill="none" stroke="midnightblue" d="M128.211,-314.918C108.977,-308.877 85.6018,-301.536 68.124,-296.047"/>
<polygon fill="midnightblue" stroke="midnightblue" points="127.25,-318.284 137.839,-317.941 129.347,-311.606 127.25,-318.284"/>
</g>
<!-- Node284 -->
<g id="node38" class="node"><title>Node284</title>
<g id="a_node38"><a xlink:href="lua_8h.html#aabf845b1c7ffc0462988b67ba83955cf" target="_top" xlink:title=" ">
<polygon fill="white" stroke="red" points="252.5,-335.5 252.5,-354.5 321.5,-354.5 321.5,-335.5 252.5,-335.5"/>
<text text-anchor="middle" x="287" y="-342.5" font-family="Helvetica,sans-Serif" font-size="10.00">lua_tolstring</text>
</a>
</g>
</g>
<!-- Node283&#45;&gt;Node284 -->
<g id="edge43" class="edge"><title>Node283&#45;&gt;Node284</title>
<path fill="none" stroke="midnightblue" d="M371.765,-319.535C354.761,-324.705 335.371,-330.599 319.533,-335.414"/>
<polygon fill="midnightblue" stroke="midnightblue" points="372.908,-322.846 381.457,-316.589 370.872,-316.149 372.908,-322.846"/>
</g>
<!-- Node284&#45;&gt;Node248 -->
<g id="edge44" class="edge"><title>Node284&#45;&gt;Node248</title>
<path fill="none" stroke="midnightblue" d="M256.414,-331.119C252.894,-329.417 249.359,-327.683 246,-326 229.826,-317.895 227.287,-312.334 210,-307 161.34,-291.986 101.447,-288.604 68.0696,-287.978"/>
<polygon fill="midnightblue" stroke="midnightblue" points="255.039,-334.341 265.57,-335.499 258.06,-328.026 255.039,-334.341"/>
</g>
<!-- Node287&#45;&gt;Node277 -->
<g id="edge48" class="edge"><title>Node287&#45;&gt;Node277</title>
<path fill="none" stroke="midnightblue" d="M374.144,-453.094C359.604,-450.884 343.061,-448.369 328.386,-446.139"/>
<polygon fill="midnightblue" stroke="midnightblue" points="373.91,-456.598 384.322,-454.641 374.962,-449.678 373.91,-456.598"/>
</g>
<!-- Node288 -->
<g id="node40" class="node"><title>Node288</title>
<g id="a_node40"><a xlink:href="lapi_8c.html#a1b28b3a312121ffb29541632648b9f78" target="_top" xlink:title=" ">
<polygon fill="white" stroke="red" points="258.5,-468.5 258.5,-487.5 315.5,-487.5 315.5,-468.5 258.5,-468.5"/>
<text text-anchor="middle" x="287" y="-475.5" font-family="Helvetica,sans-Serif" font-size="10.00">auxgetstr</text>
</a>
</g>
</g>
<!-- Node287&#45;&gt;Node288 -->
<g id="edge46" class="edge"><title>Node287&#45;&gt;Node288</title>
<path fill="none" stroke="midnightblue" d="M374.199,-464.898C355.248,-467.778 332.884,-471.178 315.685,-473.792"/>
<polygon fill="midnightblue" stroke="midnightblue" points="374.962,-468.322 384.322,-463.359 373.91,-461.402 374.962,-468.322"/>
</g>
<!-- Node299 -->
<g id="node41" class="node"><title>Node299</title>
<g id="a_node41"><a xlink:href="lapi_8c.html#a0667fbf88666853554967226d9a3df4d" target="_top" xlink:title=" ">
<polygon fill="white" stroke="red" points="258.5,-506.5 258.5,-525.5 315.5,-525.5 315.5,-506.5 258.5,-506.5"/>
<text text-anchor="middle" x="287" y="-513.5" font-family="Helvetica,sans-Serif" font-size="10.00">auxsetstr</text>
</a>
</g>
</g>
<!-- Node287&#45;&gt;Node299 -->
<g id="edge47" class="edge"><title>Node287&#45;&gt;Node299</title>
<path fill="none" stroke="midnightblue" d="M382.83,-472.757C359.991,-483.172 329.204,-497.211 308.99,-506.428"/>
<polygon fill="midnightblue" stroke="midnightblue" points="384.431,-475.874 392.078,-468.541 381.527,-469.505 384.431,-475.874"/>
</g>
<!-- Node401&#45;&gt;Node31 -->
<g id="edge50" class="edge"><title>Node401&#45;&gt;Node31</title>
<path fill="none" stroke="midnightblue" d="M371.689,-180.441C354.547,-175.23 334.993,-169.286 319.1,-164.454"/>
<polygon fill="midnightblue" stroke="midnightblue" points="370.872,-183.851 381.457,-183.411 372.908,-177.154 370.872,-183.851"/>
</g>
<!-- Node401&#45;&gt;Node408 -->
<g id="edge51" class="edge"><title>Node401&#45;&gt;Node408</title>
<path fill="none" stroke="midnightblue" d="M368.148,-193C349.024,-193 327.498,-193 311.574,-193"/>
<polygon fill="midnightblue" stroke="midnightblue" points="368.181,-196.5 378.181,-193 368.18,-189.5 368.181,-196.5"/>
</g>
<!-- Node358 -->
<g id="node46" class="node"><title>Node358</title>
<g id="a_node46"><a xlink:href="lmem_8h.html#a96658ef7ad4e37d8dbd71b788733941b" target="_top" xlink:title=" ">
<polygon fill="white" stroke="black" points="640,-82.5 640,-101.5 717,-101.5 717,-82.5 640,-82.5"/>
<text text-anchor="middle" x="678.5" y="-89.5" font-family="Helvetica,sans-Serif" font-size="10.00">luaM_malloc_</text>
</a>
</g>
</g>
<!-- Node357&#45;&gt;Node358 -->
<g id="edge56" class="edge"><title>Node357&#45;&gt;Node358</title>
<path fill="none" stroke="midnightblue" d="M749.083,-117.547C734.968,-112.365 718.836,-106.442 705.661,-101.605"/>
<polygon fill="midnightblue" stroke="midnightblue" points="747.878,-120.833 758.472,-120.995 750.291,-114.262 747.878,-120.833"/>
</g>
<!-- Node354 -->
<g id="node47" class="node"><title>Node354</title>
<g id="a_node47"><a xlink:href="lmem_8h.html#ae7dc8a57fc5dbca825653a88a356a72d" target="_top" xlink:title=" ">
<polygon fill="white" stroke="black" points="640,-120.5 640,-139.5 717,-139.5 717,-120.5 640,-120.5"/>
<text text-anchor="middle" x="678.5" y="-127.5" font-family="Helvetica,sans-Serif" font-size="10.00">luaM_realloc_</text>
</a>
</g>
</g>
<!-- Node357&#45;&gt;Node354 -->
<g id="edge57" class="edge"><title>Node357&#45;&gt;Node354</title>
<path fill="none" stroke="midnightblue" d="M748.448,-130C738.421,-130 727.422,-130 717.211,-130"/>
<polygon fill="midnightblue" stroke="midnightblue" points="748.472,-133.5 758.472,-130 748.472,-126.5 748.472,-133.5"/>
</g>
<!-- Node355 -->
<g id="node48" class="node"><title>Node355</title>
<g id="a_node48"><a xlink:href="lmem_8h.html#a0e576053c97b77716cd2c48dd104ecb7" target="_top" xlink:title=" ">
<polygon fill="white" stroke="black" points="504.5,-107.5 504.5,-126.5 599.5,-126.5 599.5,-107.5 504.5,-107.5"/>
<text text-anchor="middle" x="552" y="-114.5" font-family="Helvetica,sans-Serif" font-size="10.00">luaM_saferealloc_</text>
</a>
</g>
</g>
<!-- Node354&#45;&gt;Node355 -->
<g id="edge58" class="edge"><title>Node354&#45;&gt;Node355</title>
<path fill="none" stroke="midnightblue" d="M629.791,-125.018C619.959,-123.992 609.614,-122.911 599.813,-121.888"/>
<polygon fill="midnightblue" stroke="midnightblue" points="629.499,-128.507 639.808,-126.064 630.226,-121.545 629.499,-128.507"/>
</g>
<!-- Node353 -->
<g id="node49" class="node"><title>Node353</title>
<g id="a_node49"><a xlink:href="lmem_8h.html#a28fa4e4a69de0a640dd25c23fd3aa721" target="_top" xlink:title=" ">
<polygon fill="white" stroke="black" points="372,-107.5 372,-126.5 456,-126.5 456,-107.5 372,-107.5"/>
<text text-anchor="middle" x="414" y="-114.5" font-family="Helvetica,sans-Serif" font-size="10.00">luaM_growaux_</text>
</a>
</g>
</g>
<!-- Node355&#45;&gt;Node353 -->
<g id="edge59" class="edge"><title>Node355&#45;&gt;Node353</title>
<path fill="none" stroke="midnightblue" d="M494.191,-117C481.529,-117 468.335,-117 456.431,-117"/>
<polygon fill="midnightblue" stroke="midnightblue" points="494.197,-120.5 504.197,-117 494.196,-113.5 494.197,-120.5"/>
</g>
<!-- Node356 -->
<g id="node50" class="node"><title>Node356</title>
<g id="a_node50"><a xlink:href="lmem_8h.html#a84227d0880b31ba10479080cb096b3d2" target="_top" xlink:title=" ">
<polygon fill="white" stroke="black" points="364,-69.5 364,-88.5 464,-88.5 464,-69.5 364,-69.5"/>
<text text-anchor="middle" x="414" y="-76.5" font-family="Helvetica,sans-Serif" font-size="10.00">luaM_shrinkvector_</text>
</a>
</g>
</g>
<!-- Node355&#45;&gt;Node356 -->
<g id="edge60" class="edge"><title>Node355&#45;&gt;Node356</title>
<path fill="none" stroke="midnightblue" d="M506.913,-104.682C488.228,-99.4607 466.782,-93.4684 449.308,-88.5859"/>
<polygon fill="midnightblue" stroke="midnightblue" points="506.108,-108.091 516.681,-107.411 507.992,-101.349 506.108,-108.091"/>
</g>
</g>
</svg>
