<?xml version="1.0" encoding="UTF-8" standalone="no"?>
<!DOCTYPE svg PUBLIC "-//W3C//DTD SVG 1.1//EN"
 "http://www.w3.org/Graphics/SVG/1.1/DTD/svg11.dtd">
<!-- Generated by graphviz version 2.38.0 (20140413.2041)
 -->
<!-- Title: luaE_warnerror Pages: 1 -->
<svg width="1053pt" height="1291pt"
 viewBox="0.00 0.00 1053.00 1291.00" xmlns="http://www.w3.org/2000/svg" xmlns:xlink="http://www.w3.org/1999/xlink">
<g id="graph0" class="graph" transform="scale(1 1) rotate(0) translate(4 1287)">
<title>luaE_warnerror</title>
<polygon fill="white" stroke="none" points="-4,4 -4,-1287 1049,-1287 1049,4 -4,4"/>
<!-- Node1 -->
<g id="node1" class="node"><title>Node1</title>
<g id="a_node1"><a xlink:title=" ">
<polygon fill="#bfbfbf" stroke="black" points="964,-218.5 964,-237.5 1045,-237.5 1045,-218.5 964,-218.5"/>
<text text-anchor="middle" x="1004.5" y="-225.5" font-family="Helvetica,sans-Serif" font-size="10.00">luaE_warnerror</text>
</a>
</g>
</g>
<!-- Node2 -->
<g id="node2" class="node"><title>Node2</title>
<g id="a_node2"><a xlink:href="lfunc_8c.html#a4105c820bb9b1b4b4b3bd6613b0ccb05" target="_top" xlink:title=" ">
<polygon fill="white" stroke="black" points="857,-328.5 857,-347.5 928,-347.5 928,-328.5 857,-328.5"/>
<text text-anchor="middle" x="892.5" y="-335.5" font-family="Helvetica,sans-Serif" font-size="10.00">callclosemth</text>
</a>
</g>
</g>
<!-- Node1&#45;&gt;Node2 -->
<g id="edge1" class="edge"><title>Node1&#45;&gt;Node2</title>
<path fill="none" stroke="midnightblue" d="M986.553,-244.947C963.157,-268.343 921.74,-309.76 903.083,-328.417"/>
<polygon fill="midnightblue" stroke="midnightblue" points="989.142,-247.308 993.738,-237.762 984.192,-242.358 989.142,-247.308"/>
</g>
<!-- Node173 -->
<g id="node40" class="node"><title>Node173</title>
<g id="a_node40"><a xlink:href="lgc_8c.html#aaf7c6e9e6a93da6bb64ffe7654668ba3" target="_top" xlink:title=" ">
<polygon fill="white" stroke="black" points="526.5,-9.5 526.5,-28.5 570.5,-28.5 570.5,-9.5 526.5,-9.5"/>
<text text-anchor="middle" x="548.5" y="-16.5" font-family="Helvetica,sans-Serif" font-size="10.00">GCTM</text>
</a>
</g>
</g>
<!-- Node1&#45;&gt;Node173 -->
<g id="edge55" class="edge"><title>Node1&#45;&gt;Node173</title>
<path fill="none" stroke="midnightblue" d="M975.286,-213.63C910.17,-180.699 744.008,-97.9981 601,-38 591.157,-33.8706 580.07,-29.7178 570.71,-26.3523"/>
<polygon fill="midnightblue" stroke="midnightblue" points="973.997,-216.901 984.499,-218.299 977.161,-210.656 973.997,-216.901"/>
</g>
<!-- Node3 -->
<g id="node3" class="node"><title>Node3</title>
<g id="a_node3"><a xlink:href="lfunc_8h.html#add62dd4cd3a4c06e0cc322915196c5f3" target="_top" xlink:title=" ">
<polygon fill="white" stroke="black" points="757,-570.5 757,-589.5 821,-589.5 821,-570.5 757,-570.5"/>
<text text-anchor="middle" x="789" y="-577.5" font-family="Helvetica,sans-Serif" font-size="10.00">luaF_close</text>
</a>
</g>
</g>
<!-- Node2&#45;&gt;Node3 -->
<g id="edge2" class="edge"><title>Node2&#45;&gt;Node3</title>
<path fill="none" stroke="midnightblue" d="M883.441,-357.214C862.915,-406.154 809.215,-534.186 794.045,-570.357"/>
<polygon fill="midnightblue" stroke="midnightblue" points="886.755,-358.362 887.395,-347.786 880.3,-355.654 886.755,-358.362"/>
</g>
<!-- Node4 -->
<g id="node4" class="node"><title>Node4</title>
<g id="a_node4"><a xlink:href="lstate_8c.html#a4940327dfa3b86df0ef008180bb3fcb3" target="_top" xlink:title=" ">
<polygon fill="white" stroke="black" points="110,-612.5 110,-631.5 177,-631.5 177,-612.5 110,-612.5"/>
<text text-anchor="middle" x="143.5" y="-619.5" font-family="Helvetica,sans-Serif" font-size="10.00">close_state</text>
</a>
</g>
</g>
<!-- Node3&#45;&gt;Node4 -->
<g id="edge3" class="edge"><title>Node3&#45;&gt;Node4</title>
<path fill="none" stroke="midnightblue" d="M788.368,-599.871C789.631,-689.443 790.394,-1054.97 721,-1140 670.214,-1202.23 629.822,-1197 549.5,-1197 549.5,-1197 549.5,-1197 402.5,-1197 143.734,-1197 142.886,-706.261 144.259,-631.5"/>
<polygon fill="midnightblue" stroke="midnightblue" points="791.866,-599.672 788.205,-589.73 784.867,-599.785 791.866,-599.672"/>
</g>
<!-- Node11 -->
<g id="node7" class="node"><title>Node11</title>
<g id="a_node7"><a xlink:href="lua_8h.html#ac774e7acb4416363aa205bf4caf06f67" target="_top" xlink:title=" ">
<polygon fill="white" stroke="black" points="637.5,-1111.5 637.5,-1130.5 720.5,-1130.5 720.5,-1111.5 637.5,-1111.5"/>
<text text-anchor="middle" x="679" y="-1118.5" font-family="Helvetica,sans-Serif" font-size="10.00">lua_resetthread</text>
</a>
</g>
</g>
<!-- Node3&#45;&gt;Node11 -->
<g id="edge6" class="edge"><title>Node3&#45;&gt;Node11</title>
<path fill="none" stroke="midnightblue" d="M784.072,-599.676C766.403,-688.183 694.599,-1047.87 681.918,-1111.39"/>
<polygon fill="midnightblue" stroke="midnightblue" points="787.508,-600.344 786.033,-589.852 780.643,-598.973 787.508,-600.344"/>
</g>
<!-- Node15 -->
<g id="node10" class="node"><title>Node15</title>
<g id="a_node10"><a xlink:href="lua_8h.html#a6cb9c62b9d85b1ad2a04d72bcb733816" target="_top" xlink:title=" ">
<polygon fill="white" stroke="red" points="648,-598.5 648,-617.5 710,-617.5 710,-598.5 648,-598.5"/>
<text text-anchor="middle" x="679" y="-605.5" font-family="Helvetica,sans-Serif" font-size="10.00">lua_settop</text>
</a>
</g>
</g>
<!-- Node3&#45;&gt;Node15 -->
<g id="edge9" class="edge"><title>Node3&#45;&gt;Node15</title>
<path fill="none" stroke="midnightblue" d="M746.777,-590.687C734.561,-593.855 721.419,-597.262 710.053,-600.209"/>
<polygon fill="midnightblue" stroke="midnightblue" points="747.96,-593.996 756.762,-588.099 746.204,-587.22 747.96,-593.996"/>
</g>
<!-- Node172 -->
<g id="node39" class="node"><title>Node172</title>
<g id="a_node39"><a xlink:href="ldo_8h.html#ad1087faa52e2bb98c00806ea1ac198a6" target="_top" xlink:title=" ">
<polygon fill="white" stroke="red" points="648,-328.5 648,-347.5 710,-347.5 710,-328.5 648,-328.5"/>
<text text-anchor="middle" x="679" y="-335.5" font-family="Helvetica,sans-Serif" font-size="10.00">luaD_pcall</text>
</a>
</g>
</g>
<!-- Node3&#45;&gt;Node172 -->
<g id="edge40" class="edge"><title>Node3&#45;&gt;Node172</title>
<path fill="none" stroke="midnightblue" d="M779.425,-560.786C757.584,-511.846 700.446,-383.814 684.304,-347.643"/>
<polygon fill="midnightblue" stroke="midnightblue" points="776.361,-562.508 783.633,-570.214 782.753,-559.655 776.361,-562.508"/>
</g>
<!-- Node637 -->
<g id="node46" class="node"><title>Node637</title>
<g id="a_node46"><a xlink:href="ldo_8h.html#a3bfc211173876f40cde6808e408cd305" target="_top" xlink:title=" ">
<polygon fill="white" stroke="red" points="646.5,-542.5 646.5,-561.5 711.5,-561.5 711.5,-542.5 646.5,-542.5"/>
<text text-anchor="middle" x="679" y="-549.5" font-family="Helvetica,sans-Serif" font-size="10.00">luaD_throw</text>
</a>
</g>
</g>
<!-- Node3&#45;&gt;Node637 -->
<g id="edge49" class="edge"><title>Node3&#45;&gt;Node637</title>
<path fill="none" stroke="midnightblue" d="M746.771,-569.311C735.087,-566.282 722.556,-563.033 711.542,-560.178"/>
<polygon fill="midnightblue" stroke="midnightblue" points="746.204,-572.78 756.762,-571.901 747.96,-566.004 746.204,-572.78"/>
</g>
<!-- Node639 -->
<g id="node47" class="node"><title>Node639</title>
<g id="a_node47"><a xlink:href="lstate_8h.html#a0882226c718293b23af460f7e2faeef0" target="_top" xlink:title=" ">
<polygon fill="white" stroke="red" points="637,-504.5 637,-523.5 721,-523.5 721,-504.5 637,-504.5"/>
<text text-anchor="middle" x="679" y="-511.5" font-family="Helvetica,sans-Serif" font-size="10.00">luaE_freethread</text>
</a>
</g>
</g>
<!-- Node3&#45;&gt;Node639 -->
<g id="edge51" class="edge"><title>Node3&#45;&gt;Node639</title>
<path fill="none" stroke="midnightblue" d="M767.397,-564.111C754.457,-554.499 737.204,-542.339 721,-533 715.154,-529.631 708.609,-526.381 702.494,-523.551"/>
<polygon fill="midnightblue" stroke="midnightblue" points="765.507,-567.07 775.6,-570.292 769.72,-561.479 765.507,-567.07"/>
</g>
<!-- Node383 -->
<g id="node48" class="node"><title>Node383</title>
<g id="a_node48"><a xlink:href="lvm_8h.html#ac430e93ed874f6ab2449d7a16aa6b62f" target="_top" xlink:title=" ">
<polygon fill="white" stroke="red" points="641,-466.5 641,-485.5 717,-485.5 717,-466.5 641,-466.5"/>
<text text-anchor="middle" x="679" y="-473.5" font-family="Helvetica,sans-Serif" font-size="10.00">luaV_execute</text>
</a>
</g>
</g>
<!-- Node3&#45;&gt;Node383 -->
<g id="edge52" class="edge"><title>Node3&#45;&gt;Node383</title>
<path fill="none" stroke="midnightblue" d="M777.151,-561.597C765.32,-542.823 744.856,-513.846 721,-495 716.445,-491.401 711.097,-488.295 705.796,-485.698"/>
<polygon fill="midnightblue" stroke="midnightblue" points="774.318,-563.674 782.522,-570.377 780.289,-560.02 774.318,-563.674"/>
</g>
<!-- Node651 -->
<g id="node49" class="node"><title>Node651</title>
<g id="a_node49"><a xlink:href="ldo_8c.html#adfdcfe680efe0b6fd458a515aace0796" target="_top" xlink:title=" ">
<polygon fill="white" stroke="red" points="645,-1263.5 645,-1282.5 713,-1282.5 713,-1263.5 645,-1263.5"/>
<text text-anchor="middle" x="679" y="-1270.5" font-family="Helvetica,sans-Serif" font-size="10.00">moveresults</text>
</a>
</g>
</g>
<!-- Node3&#45;&gt;Node651 -->
<g id="edge53" class="edge"><title>Node3&#45;&gt;Node651</title>
<path fill="none" stroke="midnightblue" d="M787.19,-599.854C782.727,-705.539 759.908,-1199.26 721,-1254 718.273,-1257.84 714.572,-1260.92 710.503,-1263.39"/>
<polygon fill="midnightblue" stroke="midnightblue" points="790.696,-599.785 787.615,-589.649 783.702,-599.494 790.696,-599.785"/>
</g>
<!-- Node654 -->
<g id="node50" class="node"><title>Node654</title>
<g id="a_node50"><a xlink:href="ldo_8c.html#a8f3e3ff2aa0a4a251774a476cb0036ea" target="_top" xlink:title=" ">
<polygon fill="white" stroke="red" points="655.5,-1225.5 655.5,-1244.5 702.5,-1244.5 702.5,-1225.5 655.5,-1225.5"/>
<text text-anchor="middle" x="679" y="-1232.5" font-family="Helvetica,sans-Serif" font-size="10.00">recover</text>
</a>
</g>
</g>
<!-- Node3&#45;&gt;Node654 -->
<g id="edge54" class="edge"><title>Node3&#45;&gt;Node654</title>
<path fill="none" stroke="midnightblue" d="M788.24,-599.885C789.046,-695.371 788.489,-1106.51 721,-1211 716.614,-1217.79 709.578,-1222.9 702.563,-1226.62"/>
<polygon fill="midnightblue" stroke="midnightblue" points="791.739,-599.811 788.139,-589.847 784.74,-599.881 791.739,-599.811"/>
</g>
<!-- Node5 -->
<g id="node5" class="node"><title>Node5</title>
<g id="a_node5"><a xlink:href="lua_8h.html#afe030a97e84f24dfab3afb598faa2fff" target="_top" xlink:title=" ">
<polygon fill="white" stroke="red" points="8,-631.5 8,-650.5 66,-650.5 66,-631.5 8,-631.5"/>
<text text-anchor="middle" x="37" y="-638.5" font-family="Helvetica,sans-Serif" font-size="10.00">lua_close</text>
</a>
</g>
</g>
<!-- Node4&#45;&gt;Node5 -->
<g id="edge4" class="edge"><title>Node4&#45;&gt;Node5</title>
<path fill="none" stroke="midnightblue" d="M99.5783,-629.804C88.2797,-631.858 76.3795,-634.022 66.0846,-635.894"/>
<polygon fill="midnightblue" stroke="midnightblue" points="100.51,-633.192 109.722,-627.96 99.2574,-626.305 100.51,-633.192"/>
</g>
<!-- Node8 -->
<g id="node6" class="node"><title>Node8</title>
<g id="a_node6"><a xlink:href="lua_8h.html#af722e4ac7fc0eba5920f59f0162c1b97" target="_top" xlink:title=" ">
<polygon fill="white" stroke="red" points="0,-593.5 0,-612.5 74,-612.5 74,-593.5 0,-593.5"/>
<text text-anchor="middle" x="37" y="-600.5" font-family="Helvetica,sans-Serif" font-size="10.00">lua_newstate</text>
</a>
</g>
</g>
<!-- Node4&#45;&gt;Node8 -->
<g id="edge5" class="edge"><title>Node4&#45;&gt;Node8</title>
<path fill="none" stroke="midnightblue" d="M99.6729,-614.213C91.2463,-612.681 82.4814,-611.088 74.2947,-609.599"/>
<polygon fill="midnightblue" stroke="midnightblue" points="99.2574,-617.695 109.722,-616.04 100.51,-610.808 99.2574,-617.695"/>
</g>
<!-- Node12 -->
<g id="node8" class="node"><title>Node12</title>
<g id="a_node8"><a xlink:href="lcorolib_8c.html#a777abb20385a69ce4787f72bd90375a7" target="_top" xlink:title=" ">
<polygon fill="white" stroke="red" points="510,-1149.5 510,-1168.5 587,-1168.5 587,-1149.5 510,-1149.5"/>
<text text-anchor="middle" x="548.5" y="-1156.5" font-family="Helvetica,sans-Serif" font-size="10.00">luaB_auxwrap</text>
</a>
</g>
</g>
<!-- Node11&#45;&gt;Node12 -->
<g id="edge7" class="edge"><title>Node11&#45;&gt;Node12</title>
<path fill="none" stroke="midnightblue" d="M635.611,-1133.54C618.13,-1138.7 598.198,-1144.6 581.916,-1149.41"/>
<polygon fill="midnightblue" stroke="midnightblue" points="636.977,-1136.78 645.574,-1130.59 634.992,-1130.07 636.977,-1136.78"/>
</g>
<!-- Node14 -->
<g id="node9" class="node"><title>Node14</title>
<g id="a_node9"><a xlink:href="lcorolib_8c.html#a3c6a70201b343432bfeb1f3e09cdde6f" target="_top" xlink:title=" ">
<polygon fill="white" stroke="black" points="516,-1111.5 516,-1130.5 581,-1130.5 581,-1111.5 516,-1111.5"/>
<text text-anchor="middle" x="548.5" y="-1118.5" font-family="Helvetica,sans-Serif" font-size="10.00">luaB_close</text>
</a>
</g>
</g>
<!-- Node11&#45;&gt;Node14 -->
<g id="edge8" class="edge"><title>Node11&#45;&gt;Node14</title>
<path fill="none" stroke="midnightblue" d="M626.908,-1121C611.527,-1121 595.096,-1121 581.347,-1121"/>
<polygon fill="midnightblue" stroke="midnightblue" points="627.342,-1124.5 637.342,-1121 627.342,-1117.5 627.342,-1124.5"/>
</g>
<!-- Node16 -->
<g id="node11" class="node"><title>Node16</title>
<g id="a_node11"><a xlink:href="ldblib_8c.html#ad72cc206e90f6ebc343460376c950a14" target="_top" xlink:title=" ">
<polygon fill="white" stroke="black" points="519,-921.5 519,-940.5 578,-940.5 578,-921.5 519,-921.5"/>
<text text-anchor="middle" x="548.5" y="-928.5" font-family="Helvetica,sans-Serif" font-size="10.00">db_debug</text>
</a>
</g>
</g>
<!-- Node15&#45;&gt;Node16 -->
<g id="edge10" class="edge"><title>Node15&#45;&gt;Node16</title>
<path fill="none" stroke="midnightblue" d="M675.416,-627.781C667.157,-688.234 639.66,-869.036 601,-912 595.008,-918.659 586.473,-922.99 578.07,-925.804"/>
<polygon fill="midnightblue" stroke="midnightblue" points="678.913,-628.038 676.771,-617.662 671.975,-627.109 678.913,-628.038"/>
</g>
<!-- Node17 -->
<g id="node12" class="node"><title>Node17</title>
<g id="a_node12"><a xlink:href="ldblib_8c.html#aa0c362d361f8f9bd8a002c34c393e2b0" target="_top" xlink:title=" ">
<polygon fill="white" stroke="black" points="515,-883.5 515,-902.5 582,-902.5 582,-883.5 515,-883.5"/>
<text text-anchor="middle" x="548.5" y="-890.5" font-family="Helvetica,sans-Serif" font-size="10.00">db_sethook</text>
</a>
</g>
</g>
<!-- Node15&#45;&gt;Node17 -->
<g id="edge11" class="edge"><title>Node15&#45;&gt;Node17</title>
<path fill="none" stroke="midnightblue" d="M678.026,-627.814C677.012,-676.329 667.714,-802.325 601,-874 595.935,-879.441 589.176,-883.33 582.225,-886.108"/>
<polygon fill="midnightblue" stroke="midnightblue" points="681.527,-627.746 678.135,-617.708 674.527,-627.67 681.527,-627.746"/>
</g>
<!-- Node18 -->
<g id="node13" class="node"><title>Node18</title>
<g id="a_node13"><a xlink:href="ldblib_8c.html#a11cfe90e96e7ea907a767f5109f7ef4b" target="_top" xlink:title=" ">
<polygon fill="white" stroke="black" points="515.5,-845.5 515.5,-864.5 581.5,-864.5 581.5,-845.5 515.5,-845.5"/>
<text text-anchor="middle" x="548.5" y="-852.5" font-family="Helvetica,sans-Serif" font-size="10.00">db_setlocal</text>
</a>
</g>
</g>
<!-- Node15&#45;&gt;Node18 -->
<g id="edge12" class="edge"><title>Node15&#45;&gt;Node18</title>
<path fill="none" stroke="midnightblue" d="M676.88,-627.881C673.371,-671.478 659.027,-776.34 601,-836 595.684,-841.465 588.662,-845.37 581.518,-848.156"/>
<polygon fill="midnightblue" stroke="midnightblue" points="680.383,-627.956 677.585,-617.737 673.4,-627.471 680.383,-627.956"/>
</g>
<!-- Node19 -->
<g id="node14" class="node"><title>Node19</title>
<g id="a_node14"><a xlink:href="ldblib_8c.html#a3595aee1af712c0ba9c586feb763bffc" target="_top" xlink:title=" ">
<polygon fill="white" stroke="black" points="504,-807.5 504,-826.5 593,-826.5 593,-807.5 504,-807.5"/>
<text text-anchor="middle" x="548.5" y="-814.5" font-family="Helvetica,sans-Serif" font-size="10.00">db_setmetatable</text>
</a>
</g>
</g>
<!-- Node15&#45;&gt;Node19 -->
<g id="edge13" class="edge"><title>Node15&#45;&gt;Node19</title>
<path fill="none" stroke="midnightblue" d="M675.272,-628.154C669.053,-666.455 650.342,-750.193 601,-798 597.03,-801.846 592.216,-804.925 587.143,-807.386"/>
<polygon fill="midnightblue" stroke="midnightblue" points="678.8,-628.224 676.821,-617.816 671.877,-627.187 678.8,-628.224"/>
</g>
<!-- Node20 -->
<g id="node15" class="node"><title>Node20</title>
<g id="a_node15"><a xlink:href="ldblib_8c.html#a233c3c4d12bda0fdbf515a18b8961461" target="_top" xlink:title=" ">
<polygon fill="white" stroke="black" points="505.5,-769.5 505.5,-788.5 591.5,-788.5 591.5,-769.5 505.5,-769.5"/>
<text text-anchor="middle" x="548.5" y="-776.5" font-family="Helvetica,sans-Serif" font-size="10.00">db_setuservalue</text>
</a>
</g>
</g>
<!-- Node15&#45;&gt;Node20 -->
<g id="edge14" class="edge"><title>Node15&#45;&gt;Node20</title>
<path fill="none" stroke="midnightblue" d="M672.311,-627.477C662.437,-658.236 639.419,-718.324 601,-755 594.65,-761.062 586.49,-765.81 578.547,-769.424"/>
<polygon fill="midnightblue" stroke="midnightblue" points="675.763,-628.156 675.358,-617.569 669.073,-626.098 675.763,-628.156"/>
</g>
<!-- Node21 -->
<g id="node16" class="node"><title>Node21</title>
<g id="a_node16"><a xlink:href="lua_8c.html#a946f2675cba972bd3580d9046abf2b6b" target="_top" xlink:title=" ">
<polygon fill="white" stroke="red" points="377,-655.5 377,-674.5 430,-674.5 430,-655.5 377,-655.5"/>
<text text-anchor="middle" x="403.5" y="-662.5" font-family="Helvetica,sans-Serif" font-size="10.00">doREPL</text>
</a>
</g>
</g>
<!-- Node15&#45;&gt;Node21 -->
<g id="edge15" class="edge"><title>Node15&#45;&gt;Node21</title>
<path fill="none" stroke="midnightblue" d="M671.575,-627.197C661.41,-654.086 638.798,-701.918 601,-722 559.789,-743.896 540.868,-734.832 496,-722 463.611,-712.737 431.533,-688.32 415.341,-674.639"/>
<polygon fill="midnightblue" stroke="midnightblue" points="674.896,-628.305 674.971,-617.711 668.305,-625.946 674.896,-628.305"/>
</g>
<!-- Node23 -->
<g id="node17" class="node"><title>Node23</title>
<g id="a_node17"><a xlink:href="lstrlib_8c.html#ab55a72bb412d6186c82fd75de44cd031" target="_top" xlink:title=" ">
<polygon fill="white" stroke="black" points="524,-693.5 524,-712.5 573,-712.5 573,-693.5 524,-693.5"/>
<text text-anchor="middle" x="548.5" y="-700.5" font-family="Helvetica,sans-Serif" font-size="10.00">gmatch</text>
</a>
</g>
</g>
<!-- Node15&#45;&gt;Node23 -->
<g id="edge16" class="edge"><title>Node15&#45;&gt;Node23</title>
<path fill="none" stroke="midnightblue" d="M663.905,-625.761C649.623,-642.738 626.108,-668.042 601,-684 592.474,-689.419 582.179,-693.607 573.042,-696.656"/>
<polygon fill="midnightblue" stroke="midnightblue" points="666.852,-627.687 670.491,-617.736 661.441,-623.246 666.852,-627.687"/>
</g>
<!-- Node24 -->
<g id="node18" class="node"><title>Node24</title>
<g id="a_node18"><a xlink:href="liolib_8c.html#ac37d80ee2cc364b4adafcb6f7c20f28b" target="_top" xlink:title=" ">
<polygon fill="white" stroke="red" points="517,-655.5 517,-674.5 580,-674.5 580,-655.5 517,-655.5"/>
<text text-anchor="middle" x="548.5" y="-662.5" font-family="Helvetica,sans-Serif" font-size="10.00">io_readline</text>
</a>
</g>
</g>
<!-- Node15&#45;&gt;Node24 -->
<g id="edge17" class="edge"><title>Node15&#45;&gt;Node24</title>
<path fill="none" stroke="midnightblue" d="M650.903,-622.241C636.293,-629.697 617.852,-638.757 601,-646 593.295,-649.312 584.802,-652.592 576.973,-655.47"/>
<polygon fill="midnightblue" stroke="midnightblue" points="652.608,-625.3 659.895,-617.608 649.402,-619.077 652.608,-625.3"/>
</g>
<!-- Node28 -->
<g id="node19" class="node"><title>Node28</title>
<g id="a_node19"><a xlink:href="loadlib_8c.html#a136874f5faa236dc52fb50109281e157" target="_top" xlink:title=" ">
<polygon fill="white" stroke="black" points="520.5,-617.5 520.5,-636.5 576.5,-636.5 576.5,-617.5 520.5,-617.5"/>
<text text-anchor="middle" x="548.5" y="-624.5" font-family="Helvetica,sans-Serif" font-size="10.00">ll_require</text>
</a>
</g>
</g>
<!-- Node15&#45;&gt;Node28 -->
<g id="edge18" class="edge"><title>Node15&#45;&gt;Node28</title>
<path fill="none" stroke="midnightblue" d="M637.867,-613.934C618.012,-616.87 594.563,-620.337 576.812,-622.962"/>
<polygon fill="midnightblue" stroke="midnightblue" points="638.492,-617.38 647.872,-612.455 637.468,-610.455 638.492,-617.38"/>
</g>
<!-- Node29 -->
<g id="node20" class="node"><title>Node29</title>
<g id="a_node20"><a xlink:href="lua_8c.html#ad7e840f79b193c164616ed9748e68ec6" target="_top" xlink:title=" ">
<polygon fill="white" stroke="black" points="523.5,-579.5 523.5,-598.5 573.5,-598.5 573.5,-579.5 523.5,-579.5"/>
<text text-anchor="middle" x="548.5" y="-586.5" font-family="Helvetica,sans-Serif" font-size="10.00">loadline</text>
</a>
</g>
</g>
<!-- Node15&#45;&gt;Node29 -->
<g id="edge19" class="edge"><title>Node15&#45;&gt;Node29</title>
<path fill="none" stroke="midnightblue" d="M637.938,-602.076C616.943,-598.972 591.914,-595.271 573.849,-592.6"/>
<polygon fill="midnightblue" stroke="midnightblue" points="637.468,-605.545 647.872,-603.545 638.492,-598.62 637.468,-605.545"/>
</g>
<!-- Node30 -->
<g id="node21" class="node"><title>Node30</title>
<g id="a_node21"><a xlink:href="lbaselib_8c.html#a8ba9378d5d46ef34a7429d52c3f3e4c7" target="_top" xlink:title=" ">
<polygon fill="white" stroke="black" points="369.5,-503.5 369.5,-522.5 437.5,-522.5 437.5,-503.5 369.5,-503.5"/>
<text text-anchor="middle" x="403.5" y="-510.5" font-family="Helvetica,sans-Serif" font-size="10.00">luaB_assert</text>
</a>
</g>
</g>
<!-- Node15&#45;&gt;Node30 -->
<g id="edge21" class="edge"><title>Node15&#45;&gt;Node30</title>
<path fill="none" stroke="midnightblue" d="M647.426,-594.043C643.897,-592.37 640.361,-590.665 637,-589 620.787,-580.972 617.774,-576.777 601,-570 545.176,-547.446 477.132,-529.77 437.522,-520.4"/>
<polygon fill="midnightblue" stroke="midnightblue" points="646.08,-597.278 656.621,-598.346 649.047,-590.938 646.08,-597.278"/>
</g>
<!-- Node31 -->
<g id="node22" class="node"><title>Node31</title>
<g id="a_node22"><a xlink:href="lbaselib_8c.html#a86a4e35d9c9ad4661a0dbbac3758c049" target="_top" xlink:title=" ">
<polygon fill="white" stroke="black" points="516.5,-503.5 516.5,-522.5 580.5,-522.5 580.5,-503.5 516.5,-503.5"/>
<text text-anchor="middle" x="548.5" y="-510.5" font-family="Helvetica,sans-Serif" font-size="10.00">luaB_dofile</text>
</a>
</g>
</g>
<!-- Node15&#45;&gt;Node31 -->
<g id="edge22" class="edge"><title>Node15&#45;&gt;Node31</title>
<path fill="none" stroke="midnightblue" d="M642.616,-593.165C640.645,-591.866 638.756,-590.478 637,-589 615.494,-570.9 622.487,-555.123 601,-537 593.988,-531.085 585.273,-526.301 577.02,-522.606"/>
<polygon fill="midnightblue" stroke="midnightblue" points="641.184,-596.378 651.603,-598.3 644.657,-590.3 641.184,-596.378"/>
</g>
<!-- Node32 -->
<g id="node23" class="node"><title>Node32</title>
<g id="a_node23"><a xlink:href="lbaselib_8c.html#a2ecfa987569d0b4c1063f3e204e42dd2" target="_top" xlink:title=" ">
<polygon fill="white" stroke="black" points="518,-465.5 518,-484.5 579,-484.5 579,-465.5 518,-465.5"/>
<text text-anchor="middle" x="548.5" y="-472.5" font-family="Helvetica,sans-Serif" font-size="10.00">luaB_error</text>
</a>
</g>
</g>
<!-- Node15&#45;&gt;Node32 -->
<g id="edge23" class="edge"><title>Node15&#45;&gt;Node32</title>
<path fill="none" stroke="midnightblue" d="M640.931,-592.668C639.532,-591.524 638.213,-590.303 637,-589 606.238,-555.948 633.067,-525.787 601,-494 595.044,-488.096 587.097,-484.006 579.232,-481.18"/>
<polygon fill="midnightblue" stroke="midnightblue" points="639.328,-595.804 649.6,-598.401 643.189,-589.965 639.328,-595.804"/>
</g>
<!-- Node33 -->
<g id="node24" class="node"><title>Node33</title>
<g id="a_node24"><a xlink:href="lbaselib_8c.html#a4a9a3613fcf80fe033e044f7e19bed69" target="_top" xlink:title=" ">
<polygon fill="white" stroke="black" points="519,-427.5 519,-446.5 578,-446.5 578,-427.5 519,-427.5"/>
<text text-anchor="middle" x="548.5" y="-434.5" font-family="Helvetica,sans-Serif" font-size="10.00">luaB_load</text>
</a>
</g>
</g>
<!-- Node15&#45;&gt;Node33 -->
<g id="edge25" class="edge"><title>Node15&#45;&gt;Node33</title>
<path fill="none" stroke="midnightblue" d="M640.645,-592.704C639.337,-591.552 638.113,-590.319 637,-589 597.521,-542.186 642.331,-501.187 601,-456 594.954,-449.39 586.404,-445.072 578.005,-442.255"/>
<polygon fill="midnightblue" stroke="midnightblue" points="638.666,-595.59 648.868,-598.446 642.673,-589.851 638.666,-595.59"/>
</g>
<!-- Node34 -->
<g id="node25" class="node"><title>Node34</title>
<g id="a_node25"><a xlink:href="lbaselib_8c.html#ac0b11ecf3ced275821aaf5a03ed33b02" target="_top" xlink:title=" ">
<polygon fill="white" stroke="red" points="518.5,-389.5 518.5,-408.5 578.5,-408.5 578.5,-389.5 518.5,-389.5"/>
<text text-anchor="middle" x="548.5" y="-396.5" font-family="Helvetica,sans-Serif" font-size="10.00">luaB_next</text>
</a>
</g>
</g>
<!-- Node15&#45;&gt;Node34 -->
<g id="edge26" class="edge"><title>Node15&#45;&gt;Node34</title>
<path fill="none" stroke="midnightblue" d="M640.095,-592.358C638.985,-591.308 637.946,-590.189 637,-589 588.639,-528.229 651.768,-476.776 601,-418 595.207,-411.293 586.826,-406.951 578.502,-404.142"/>
<polygon fill="midnightblue" stroke="midnightblue" points="638.136,-595.262 648.268,-598.361 642.28,-589.62 638.136,-595.262"/>
</g>
<!-- Node36 -->
<g id="node26" class="node"><title>Node36</title>
<g id="a_node26"><a xlink:href="lbaselib_8c.html#a248a6847a33f31c69a43a76b6b8bcb4b" target="_top" xlink:title=" ">
<polygon fill="white" stroke="black" points="513.5,-351.5 513.5,-370.5 583.5,-370.5 583.5,-351.5 513.5,-351.5"/>
<text text-anchor="middle" x="548.5" y="-358.5" font-family="Helvetica,sans-Serif" font-size="10.00">luaB_rawget</text>
</a>
</g>
</g>
<!-- Node15&#45;&gt;Node36 -->
<g id="edge27" class="edge"><title>Node15&#45;&gt;Node36</title>
<path fill="none" stroke="midnightblue" d="M640.038,-592.403C638.944,-591.339 637.924,-590.207 637,-589 579.679,-514.176 661.286,-452.457 601,-380 596.489,-374.579 590.283,-370.704 583.739,-367.935"/>
<polygon fill="midnightblue" stroke="midnightblue" points="638.039,-595.278 648.146,-598.456 642.227,-589.669 638.039,-595.278"/>
</g>
<!-- Node37 -->
<g id="node27" class="node"><title>Node37</title>
<g id="a_node27"><a xlink:href="lbaselib_8c.html#a7b7225051c25127792f30eadd3498cc3" target="_top" xlink:title=" ">
<polygon fill="white" stroke="black" points="513.5,-313.5 513.5,-332.5 583.5,-332.5 583.5,-313.5 513.5,-313.5"/>
<text text-anchor="middle" x="548.5" y="-320.5" font-family="Helvetica,sans-Serif" font-size="10.00">luaB_rawset</text>
</a>
</g>
</g>
<!-- Node15&#45;&gt;Node37 -->
<g id="edge28" class="edge"><title>Node15&#45;&gt;Node37</title>
<path fill="none" stroke="midnightblue" d="M639.583,-592.015C638.657,-591.065 637.791,-590.061 637,-589 570.679,-500.07 670.847,-428.189 601,-342 596.5,-336.447 590.216,-332.517 583.58,-329.735"/>
<polygon fill="midnightblue" stroke="midnightblue" points="637.604,-594.91 647.65,-598.277 641.897,-589.38 637.604,-594.91"/>
</g>
<!-- Node38 -->
<g id="node28" class="node"><title>Node38</title>
<g id="a_node28"><a xlink:href="lbaselib_8c.html#af7799a987ba6d158a96a52e80fb5beaf" target="_top" xlink:title=" ">
<polygon fill="white" stroke="black" points="499.5,-275.5 499.5,-294.5 597.5,-294.5 597.5,-275.5 499.5,-275.5"/>
<text text-anchor="middle" x="548.5" y="-282.5" font-family="Helvetica,sans-Serif" font-size="10.00">luaB_setmetatable</text>
</a>
</g>
</g>
<!-- Node15&#45;&gt;Node38 -->
<g id="edge29" class="edge"><title>Node15&#45;&gt;Node38</title>
<path fill="none" stroke="midnightblue" d="M639.968,-592.455C638.893,-591.377 637.897,-590.227 637,-589 561.653,-485.93 680.434,-403.954 601,-304 597.917,-300.12 593.961,-297.033 589.615,-294.576"/>
<polygon fill="midnightblue" stroke="midnightblue" points="637.919,-595.294 647.995,-598.569 642.16,-589.725 637.919,-595.294"/>
</g>
<!-- Node39 -->
<g id="node29" class="node"><title>Node39</title>
<g id="a_node29"><a xlink:href="lbaselib_8c.html#a6224f7b7c4485996e1c22eae32de990d" target="_top" xlink:title=" ">
<polygon fill="white" stroke="black" points="507.5,-237.5 507.5,-256.5 589.5,-256.5 589.5,-237.5 507.5,-237.5"/>
<text text-anchor="middle" x="548.5" y="-244.5" font-family="Helvetica,sans-Serif" font-size="10.00">luaB_tonumber</text>
</a>
</g>
</g>
<!-- Node15&#45;&gt;Node39 -->
<g id="edge30" class="edge"><title>Node15&#45;&gt;Node39</title>
<path fill="none" stroke="midnightblue" d="M639.945,-592.472C638.876,-591.389 637.888,-590.234 637,-589 552.613,-471.77 690.037,-379.739 601,-266 597.945,-262.098 594.007,-258.997 589.669,-256.533"/>
<polygon fill="midnightblue" stroke="midnightblue" points="637.88,-595.299 647.945,-598.605 642.138,-589.743 637.88,-595.299"/>
</g>
<!-- Node40 -->
<g id="node30" class="node"><title>Node40</title>
<g id="a_node30"><a xlink:href="lauxlib_8h.html#a8c38c6dcf9db7e110e525b46742bacf8" target="_top" xlink:title=" ">
<polygon fill="white" stroke="red" points="511,-199.5 511,-218.5 586,-218.5 586,-199.5 511,-199.5"/>
<text text-anchor="middle" x="548.5" y="-206.5" font-family="Helvetica,sans-Serif" font-size="10.00">luaL_loadfilex</text>
</a>
</g>
</g>
<!-- Node15&#45;&gt;Node40 -->
<g id="edge31" class="edge"><title>Node15&#45;&gt;Node40</title>
<path fill="none" stroke="midnightblue" d="M639.927,-592.485C638.863,-591.399 637.881,-590.239 637,-589 543.561,-457.594 699.652,-355.539 601,-228 597.152,-223.025 591.865,-219.352 586.136,-216.641"/>
<polygon fill="midnightblue" stroke="midnightblue" points="637.848,-595.302 647.906,-598.633 642.121,-589.757 637.848,-595.302"/>
</g>
<!-- Node42 -->
<g id="node31" class="node"><title>Node42</title>
<g id="a_node31"><a xlink:href="lib21_8c.html#ab456f192d7085cab2b40bbabe4c2349a" target="_top" xlink:title=" ">
<polygon fill="white" stroke="red" points="513,-161.5 513,-180.5 584,-180.5 584,-161.5 513,-161.5"/>
<text text-anchor="middle" x="548.5" y="-168.5" font-family="Helvetica,sans-Serif" font-size="10.00">luaopen_lib2</text>
</a>
</g>
</g>
<!-- Node15&#45;&gt;Node42 -->
<g id="edge32" class="edge"><title>Node15&#45;&gt;Node42</title>
<path fill="none" stroke="midnightblue" d="M639.912,-592.496C638.852,-591.406 637.875,-590.243 637,-589 585.751,-516.204 655.138,-260.675 601,-190 596.712,-184.402 590.599,-180.452 584.076,-177.666"/>
<polygon fill="midnightblue" stroke="midnightblue" points="637.823,-595.305 647.874,-598.656 642.106,-589.768 637.823,-595.305"/>
</g>
<!-- Node44 -->
<g id="node32" class="node"><title>Node44</title>
<g id="a_node32"><a xlink:href="lmathlib_8c.html#ae4f0dc771c626a9badef237db9d433da" target="_top" xlink:title=" ">
<polygon fill="white" stroke="black" points="519,-123.5 519,-142.5 578,-142.5 578,-123.5 519,-123.5"/>
<text text-anchor="middle" x="548.5" y="-130.5" font-family="Helvetica,sans-Serif" font-size="10.00">math_ceil</text>
</a>
</g>
</g>
<!-- Node15&#45;&gt;Node44 -->
<g id="edge33" class="edge"><title>Node15&#45;&gt;Node44</title>
<path fill="none" stroke="midnightblue" d="M639.899,-592.504C638.843,-591.413 637.87,-590.246 637,-589 581.218,-509.107 659.952,-229.584 601,-152 595.465,-144.716 586.839,-140.223 578.219,-137.452"/>
<polygon fill="midnightblue" stroke="midnightblue" points="637.802,-595.307 647.847,-598.674 642.094,-589.777 637.802,-595.307"/>
</g>
<!-- Node45 -->
<g id="node33" class="node"><title>Node45</title>
<g id="a_node33"><a xlink:href="lmathlib_8c.html#aa063dcd93e924af13c5e311f89b18d03" target="_top" xlink:title=" ">
<polygon fill="white" stroke="black" points="517.5,-85.5 517.5,-104.5 579.5,-104.5 579.5,-85.5 517.5,-85.5"/>
<text text-anchor="middle" x="548.5" y="-92.5" font-family="Helvetica,sans-Serif" font-size="10.00">math_floor</text>
</a>
</g>
</g>
<!-- Node15&#45;&gt;Node45 -->
<g id="edge34" class="edge"><title>Node15&#45;&gt;Node45</title>
<path fill="none" stroke="midnightblue" d="M639.889,-592.512C638.836,-591.418 637.866,-590.249 637,-589 576.684,-502.006 664.769,-198.496 601,-114 595.776,-107.078 587.758,-102.676 579.593,-99.8775"/>
<polygon fill="midnightblue" stroke="midnightblue" points="637.784,-595.308 647.824,-598.69 642.084,-589.785 637.784,-595.308"/>
</g>
<!-- Node46 -->
<g id="node34" class="node"><title>Node46</title>
<g id="a_node34"><a xlink:href="lmathlib_8c.html#adff369706deb34be360be3103f31d4c4" target="_top" xlink:title=" ">
<polygon fill="white" stroke="black" points="516,-47.5 516,-66.5 581,-66.5 581,-47.5 516,-47.5"/>
<text text-anchor="middle" x="548.5" y="-54.5" font-family="Helvetica,sans-Serif" font-size="10.00">math_modf</text>
</a>
</g>
</g>
<!-- Node15&#45;&gt;Node46 -->
<g id="edge35" class="edge"><title>Node15&#45;&gt;Node46</title>
<path fill="none" stroke="midnightblue" d="M639.88,-592.518C638.829,-591.422 637.863,-590.252 637,-589 572.147,-494.904 669.587,-167.41 601,-76 596.138,-69.5206 588.828,-65.2492 581.23,-62.434"/>
<polygon fill="midnightblue" stroke="midnightblue" points="637.769,-595.31 647.805,-598.703 642.075,-589.792 637.769,-595.31"/>
</g>
<!-- Node47 -->
<g id="node35" class="node"><title>Node47</title>
<g id="a_node35"><a xlink:href="lib1_8c.html#ab6ef220e3370055a772ec72785efa9aa" target="_top" xlink:title=" ">
<polygon fill="white" stroke="black" points="515.5,-1073.5 515.5,-1092.5 581.5,-1092.5 581.5,-1073.5 515.5,-1073.5"/>
<text text-anchor="middle" x="548.5" y="-1080.5" font-family="Helvetica,sans-Serif" font-size="10.00">onefunction</text>
</a>
</g>
</g>
<!-- Node15&#45;&gt;Node47 -->
<g id="edge36" class="edge"><title>Node15&#45;&gt;Node47</title>
<path fill="none" stroke="midnightblue" d="M677.235,-627.785C673.818,-706.413 657.54,-995.817 601,-1064 596.012,-1070.02 588.935,-1074.13 581.62,-1076.94"/>
<polygon fill="midnightblue" stroke="midnightblue" points="680.733,-627.901 677.649,-617.765 673.739,-627.611 680.733,-627.901"/>
</g>
<!-- Node48 -->
<g id="node36" class="node"><title>Node48</title>
<g id="a_node36"><a xlink:href="loslib_8c.html#ae32288bc9696b48450146e11c241f943" target="_top" xlink:title=" ">
<polygon fill="white" stroke="black" points="523,-1035.5 523,-1054.5 574,-1054.5 574,-1035.5 523,-1035.5"/>
<text text-anchor="middle" x="548.5" y="-1042.5" font-family="Helvetica,sans-Serif" font-size="10.00">os_time</text>
</a>
</g>
</g>
<!-- Node15&#45;&gt;Node48 -->
<g id="edge37" class="edge"><title>Node15&#45;&gt;Node48</title>
<path fill="none" stroke="midnightblue" d="M676.888,-628.007C672.357,-702.719 652.99,-964.246 601,-1026 594.249,-1034.02 583.791,-1038.66 574.058,-1041.33"/>
<polygon fill="midnightblue" stroke="midnightblue" points="680.402,-627.866 677.491,-617.679 673.414,-627.459 680.402,-627.866"/>
</g>
<!-- Node49 -->
<g id="node37" class="node"><title>Node49</title>
<g id="a_node37"><a xlink:href="lauxlib_8c.html#a4f35430f7ecfcbd5f507e550937046b4" target="_top" xlink:title=" ">
<polygon fill="white" stroke="red" points="496,-997.5 496,-1016.5 601,-1016.5 601,-997.5 496,-997.5"/>
<text text-anchor="middle" x="548.5" y="-1004.5" font-family="Helvetica,sans-Serif" font-size="10.00">pushglobalfuncname</text>
</a>
</g>
</g>
<!-- Node15&#45;&gt;Node49 -->
<g id="edge38" class="edge"><title>Node15&#45;&gt;Node49</title>
<path fill="none" stroke="midnightblue" d="M676.487,-627.984C670.793,-698.231 648.514,-932.568 601,-988 597.651,-991.907 593.423,-995.012 588.837,-997.478"/>
<polygon fill="midnightblue" stroke="midnightblue" points="679.99,-628.08 677.285,-617.837 673.011,-627.531 679.99,-628.08"/>
</g>
<!-- Node149 -->
<g id="node38" class="node"><title>Node149</title>
<g id="a_node38"><a xlink:href="ltablib_8c.html#ae7d3f892e2605bf102dce63de388e626" target="_top" xlink:title=" ">
<polygon fill="white" stroke="black" points="532,-959.5 532,-978.5 565,-978.5 565,-959.5 532,-959.5"/>
<text text-anchor="middle" x="548.5" y="-966.5" font-family="Helvetica,sans-Serif" font-size="10.00">sort</text>
</a>
</g>
</g>
<!-- Node15&#45;&gt;Node149 -->
<g id="edge39" class="edge"><title>Node15&#45;&gt;Node149</title>
<path fill="none" stroke="midnightblue" d="M676.033,-627.642C669.14,-692.845 644.129,-900.767 601,-950 591.957,-960.323 576.793,-965.044 565.254,-967.199"/>
<polygon fill="midnightblue" stroke="midnightblue" points="679.534,-627.812 677.079,-617.506 672.571,-627.094 679.534,-627.812"/>
</g>
<!-- Node29&#45;&gt;Node21 -->
<g id="edge20" class="edge"><title>Node29&#45;&gt;Node21</title>
<path fill="none" stroke="midnightblue" d="M514.096,-600.193C507.984,-602.558 501.729,-605.195 496,-608 466.92,-622.237 435.357,-643.263 417.948,-655.4"/>
<polygon fill="midnightblue" stroke="midnightblue" points="515.328,-603.469 523.49,-596.714 512.897,-596.904 515.328,-603.469"/>
</g>
<!-- Node32&#45;&gt;Node30 -->
<g id="edge24" class="edge"><title>Node32&#45;&gt;Node30</title>
<path fill="none" stroke="midnightblue" d="M508.101,-485.47C485.953,-491.355 458.62,-498.619 437.591,-504.207"/>
<polygon fill="midnightblue" stroke="midnightblue" points="509.105,-488.825 517.87,-482.874 507.307,-482.059 509.105,-488.825"/>
</g>
<!-- Node172&#45;&gt;Node2 -->
<g id="edge41" class="edge"><title>Node172&#45;&gt;Node2</title>
<path fill="none" stroke="midnightblue" d="M720.232,-338C759.645,-338 819.094,-338 856.575,-338"/>
<polygon fill="midnightblue" stroke="midnightblue" points="720.176,-334.5 710.176,-338 720.176,-341.5 720.176,-334.5"/>
</g>
<!-- Node172&#45;&gt;Node173 -->
<g id="edge42" class="edge"><title>Node172&#45;&gt;Node173</title>
<path fill="none" stroke="midnightblue" d="M674.045,-318.276C661.186,-254.905 620.289,-59.3686 601,-38 593.209,-29.3695 581.148,-24.6499 570.656,-22.0736"/>
<polygon fill="midnightblue" stroke="midnightblue" points="670.637,-319.085 676.047,-328.195 677.499,-317.7 670.637,-319.085"/>
</g>
<!-- Node174 -->
<g id="node41" class="node"><title>Node174</title>
<g id="a_node41"><a xlink:href="lgc_8c.html#a3c6f43e1b63924361ed0ce31b6d30f8b" target="_top" xlink:title=" ">
<polygon fill="white" stroke="black" points="347,-9.5 347,-28.5 460,-28.5 460,-9.5 347,-9.5"/>
<text text-anchor="middle" x="403.5" y="-16.5" font-family="Helvetica,sans-Serif" font-size="10.00">callallpendingfinalizers</text>
</a>
</g>
</g>
<!-- Node173&#45;&gt;Node174 -->
<g id="edge43" class="edge"><title>Node173&#45;&gt;Node174</title>
<path fill="none" stroke="midnightblue" d="M516.294,-19C499.905,-19 479.322,-19 460.299,-19"/>
<polygon fill="midnightblue" stroke="midnightblue" points="516.4,-22.5001 526.4,-19 516.4,-15.5001 516.4,-22.5001"/>
</g>
<!-- Node632 -->
<g id="node44" class="node"><title>Node632</title>
<g id="a_node44"><a xlink:href="lgc_8c.html#a5ba38781fc577f890c6f97af9beef40a" target="_top" xlink:title=" ">
<polygon fill="white" stroke="black" points="359.5,-66.5 359.5,-85.5 447.5,-85.5 447.5,-66.5 359.5,-66.5"/>
<text text-anchor="middle" x="403.5" y="-73.5" font-family="Helvetica,sans-Serif" font-size="10.00">runafewfinalizers</text>
</a>
</g>
</g>
<!-- Node173&#45;&gt;Node632 -->
<g id="edge47" class="edge"><title>Node173&#45;&gt;Node632</title>
<path fill="none" stroke="midnightblue" d="M516.719,-30.1265C509.878,-32.663 502.677,-35.3831 496,-38 472.298,-47.2896 445.42,-58.5387 426.959,-66.3769"/>
<polygon fill="midnightblue" stroke="midnightblue" points="518.202,-33.3104 526.38,-26.5749 515.786,-26.7403 518.202,-33.3104"/>
</g>
<!-- Node175 -->
<g id="node42" class="node"><title>Node175</title>
<g id="a_node42"><a xlink:href="lgc_8c.html#ad14690f3e78fd31ce7eddc3acdbeec5b" target="_top" xlink:title=" ">
<polygon fill="white" stroke="red" points="223,-0.5 223,-19.5 301,-19.5 301,-0.5 223,-0.5"/>
<text text-anchor="middle" x="262" y="-7.5" font-family="Helvetica,sans-Serif" font-size="10.00">finishgencycle</text>
</a>
</g>
</g>
<!-- Node174&#45;&gt;Node175 -->
<g id="edge44" class="edge"><title>Node174&#45;&gt;Node175</title>
<path fill="none" stroke="midnightblue" d="M336.788,-14.7605C324.587,-13.9734 312.221,-13.1756 301.19,-12.4638"/>
<polygon fill="midnightblue" stroke="midnightblue" points="336.76,-18.2659 346.965,-15.4171 337.211,-11.2804 336.76,-18.2659"/>
</g>
<!-- Node629 -->
<g id="node43" class="node"><title>Node629</title>
<g id="a_node43"><a xlink:href="lgc_8h.html#a9aa52a500c9cc2076edb1707e6d8a045" target="_top" xlink:title=" ">
<polygon fill="white" stroke="black" points="213,-38.5 213,-57.5 311,-57.5 311,-38.5 213,-38.5"/>
<text text-anchor="middle" x="262" y="-45.5" font-family="Helvetica,sans-Serif" font-size="10.00">luaC_freeallobjects</text>
</a>
</g>
</g>
<!-- Node174&#45;&gt;Node629 -->
<g id="edge45" class="edge"><title>Node174&#45;&gt;Node629</title>
<path fill="none" stroke="midnightblue" d="M346.597,-30.6214C334.124,-33.2143 321.036,-35.9351 309.016,-38.434"/>
<polygon fill="midnightblue" stroke="midnightblue" points="347.358,-34.0382 356.436,-28.5761 345.933,-27.1847 347.358,-34.0382"/>
</g>
<!-- Node629&#45;&gt;Node4 -->
<g id="edge46" class="edge"><title>Node629&#45;&gt;Node4</title>
<path fill="none" stroke="midnightblue" d="M215.697,-63.9491C214.736,-64.9075 213.833,-65.9233 213,-67 143.505,-156.85 143.823,-546.151 144.391,-612.399"/>
<polygon fill="midnightblue" stroke="midnightblue" points="218.154,-66.481 224.037,-57.6698 213.943,-60.889 218.154,-66.481"/>
</g>
<!-- Node633 -->
<g id="node45" class="node"><title>Node633</title>
<g id="a_node45"><a xlink:href="lgc_8c.html#ae34e22198155f5d365fe500d3735c150" target="_top" xlink:title=" ">
<polygon fill="white" stroke="red" points="231.5,-76.5 231.5,-95.5 292.5,-95.5 292.5,-76.5 231.5,-76.5"/>
<text text-anchor="middle" x="262" y="-83.5" font-family="Helvetica,sans-Serif" font-size="10.00">singlestep</text>
</a>
</g>
</g>
<!-- Node632&#45;&gt;Node633 -->
<g id="edge48" class="edge"><title>Node632&#45;&gt;Node633</title>
<path fill="none" stroke="midnightblue" d="M349.017,-79.8339C329.89,-81.205 309.035,-82.7 292.651,-83.8745"/>
<polygon fill="midnightblue" stroke="midnightblue" points="349.402,-83.3154 359.126,-79.1092 348.901,-76.3333 349.402,-83.3154"/>
</g>
<!-- Node637&#45;&gt;Node637 -->
<g id="edge50" class="edge"><title>Node637&#45;&gt;Node637</title>
<path fill="none" stroke="midnightblue" d="M699.369,-571.4C698.009,-576.315 691.219,-580 679,-580 659.449,-580 653.798,-570.565 662.046,-561.757"/>
<polygon fill="midnightblue" stroke="midnightblue" points="702.592,-570.015 695.954,-561.757 695.993,-572.352 702.592,-570.015"/>
</g>
</g>
</svg>
