<?xml version="1.0" encoding="UTF-8" standalone="no"?>
<!DOCTYPE svg PUBLIC "-//W3C//DTD SVG 1.1//EN"
 "http://www.w3.org/Graphics/SVG/1.1/DTD/svg11.dtd">
<!-- Generated by graphviz version 2.38.0 (20140413.2041)
 -->
<!-- Title: arith_mod Pages: 1 -->
<svg width="743pt" height="921pt"
 viewBox="0.00 0.00 743.00 921.00" xmlns="http://www.w3.org/2000/svg" xmlns:xlink="http://www.w3.org/1999/xlink">
<g id="graph0" class="graph" transform="scale(1 1) rotate(0) translate(4 917)">
<title>arith_mod</title>
<polygon fill="white" stroke="none" points="-4,4 -4,-917 739,-917 739,4 -4,4"/>
<!-- Node1 -->
<g id="node1" class="node"><title>Node1</title>
<g id="a_node1"><a xlink:title=" ">
<polygon fill="#bfbfbf" stroke="black" points="0,-570.5 0,-589.5 59,-589.5 59,-570.5 0,-570.5"/>
<text text-anchor="middle" x="29.5" y="-577.5" font-family="Helvetica,sans-Serif" font-size="10.00">arith_mod</text>
</a>
</g>
</g>
<!-- Node2 -->
<g id="node2" class="node"><title>Node2</title>
<g id="a_node2"><a xlink:href="lstrlib_8c.html#afa2c944dafe82820f6f04dff68703634" target="_top" xlink:title=" ">
<polygon fill="white" stroke="black" points="95,-570.5 95,-589.5 130,-589.5 130,-570.5 95,-570.5"/>
<text text-anchor="middle" x="112.5" y="-577.5" font-family="Helvetica,sans-Serif" font-size="10.00">arith</text>
</a>
</g>
</g>
<!-- Node1&#45;&gt;Node2 -->
<g id="edge1" class="edge"><title>Node1&#45;&gt;Node2</title>
<path fill="none" stroke="midnightblue" d="M59.2856,-580C67.5061,-580 76.4312,-580 84.5383,-580"/>
<polygon fill="midnightblue" stroke="midnightblue" points="84.5968,-583.5 94.5968,-580 84.5968,-576.5 84.5968,-583.5"/>
</g>
<!-- Node3 -->
<g id="node3" class="node"><title>Node3</title>
<g id="a_node3"><a xlink:href="lapi_8c.html#a08501a34884feca01759dec174d69c88" target="_top" xlink:title=" ">
<polygon fill="white" stroke="black" points="166,-674.5 166,-693.5 219,-693.5 219,-674.5 166,-674.5"/>
<text text-anchor="middle" x="192.5" y="-681.5" font-family="Helvetica,sans-Serif" font-size="10.00">lua_arith</text>
</a>
</g>
</g>
<!-- Node2&#45;&gt;Node3 -->
<g id="edge2" class="edge"><title>Node2&#45;&gt;Node3</title>
<path fill="none" stroke="midnightblue" d="M120.698,-589.598C133.758,-607.011 161.54,-644.053 178.155,-666.207"/>
<polygon fill="midnightblue" stroke="midnightblue" points="175.519,-668.526 184.319,-674.426 181.119,-664.326 175.519,-668.526"/>
</g>
<!-- Node447 -->
<g id="node15" class="node"><title>Node447</title>
<g id="a_node15"><a xlink:href="lstrlib_8c.html#a29c672037c89ca25af99c1694e04c294" target="_top" xlink:title=" ">
<polygon fill="white" stroke="black" points="279,-570.5 279,-589.5 323,-589.5 323,-570.5 279,-570.5"/>
<text text-anchor="middle" x="301" y="-577.5" font-family="Helvetica,sans-Serif" font-size="10.00">tonum</text>
</a>
</g>
</g>
<!-- Node2&#45;&gt;Node447 -->
<g id="edge14" class="edge"><title>Node2&#45;&gt;Node447</title>
<path fill="none" stroke="midnightblue" d="M130.051,-580C161.163,-580 228.826,-580 268.754,-580"/>
<polygon fill="midnightblue" stroke="midnightblue" points="268.987,-583.5 278.987,-580 268.987,-576.5 268.987,-583.5"/>
</g>
<!-- Node454 -->
<g id="node27" class="node"><title>Node454</title>
<g id="a_node27"><a xlink:href="lstrlib_8c.html#a0f8612c62e1158d37a19d06453dcbc97" target="_top" xlink:title=" ">
<polygon fill="white" stroke="black" points="173,-456.5 173,-475.5 212,-475.5 212,-456.5 173,-456.5"/>
<text text-anchor="middle" x="192.5" y="-463.5" font-family="Helvetica,sans-Serif" font-size="10.00">trymt</text>
</a>
</g>
</g>
<!-- Node2&#45;&gt;Node454 -->
<g id="edge28" class="edge"><title>Node2&#45;&gt;Node454</title>
<path fill="none" stroke="midnightblue" d="M120.15,-570.28C133.217,-551.182 162.421,-508.5 179.133,-484.075"/>
<polygon fill="midnightblue" stroke="midnightblue" points="182.108,-485.924 184.867,-475.695 176.331,-481.972 182.108,-485.924"/>
</g>
<!-- Node4 -->
<g id="node4" class="node"><title>Node4</title>
<g id="a_node4"><a xlink:href="lobject_8c.html#a70e6a84042c5cf25f3812cba16e1fc3d" target="_top" xlink:title=" ">
<polygon fill="white" stroke="black" points="270.5,-741.5 270.5,-760.5 331.5,-760.5 331.5,-741.5 270.5,-741.5"/>
<text text-anchor="middle" x="301" y="-748.5" font-family="Helvetica,sans-Serif" font-size="10.00">luaO_arith</text>
</a>
</g>
</g>
<!-- Node3&#45;&gt;Node4 -->
<g id="edge3" class="edge"><title>Node3&#45;&gt;Node4</title>
<path fill="none" stroke="midnightblue" d="M208.759,-693.599C226.395,-704.694 255.631,-723.087 276.248,-736.058"/>
<polygon fill="midnightblue" stroke="midnightblue" points="274.441,-739.056 284.769,-741.418 278.169,-733.131 274.441,-739.056"/>
</g>
<!-- Node5 -->
<g id="node5" class="node"><title>Node5</title>
<g id="a_node5"><a xlink:href="lobject_8c.html#aae42f4eba2d45e27d6f217f4497d106d" target="_top" xlink:title=" ">
<polygon fill="white" stroke="black" points="394.5,-817.5 394.5,-836.5 470.5,-836.5 470.5,-817.5 394.5,-817.5"/>
<text text-anchor="middle" x="432.5" y="-824.5" font-family="Helvetica,sans-Serif" font-size="10.00">luaO_rawarith</text>
</a>
</g>
</g>
<!-- Node4&#45;&gt;Node5 -->
<g id="edge4" class="edge"><title>Node4&#45;&gt;Node5</title>
<path fill="none" stroke="midnightblue" d="M318.401,-760.625C340.587,-773.645 380.366,-796.991 406.344,-812.236"/>
<polygon fill="midnightblue" stroke="midnightblue" points="404.836,-815.41 415.232,-817.453 408.379,-809.373 404.836,-815.41"/>
</g>
<!-- Node390 -->
<g id="node11" class="node"><title>Node390</title>
<g id="a_node11"><a xlink:href="ltm_8c.html#a2adc638eccb971b8abaf27f60611e913" target="_top" xlink:title=" ">
<polygon fill="white" stroke="black" points="394,-741.5 394,-760.5 471,-760.5 471,-741.5 394,-741.5"/>
<text text-anchor="middle" x="432.5" y="-748.5" font-family="Helvetica,sans-Serif" font-size="10.00">luaT_trybinTM</text>
</a>
</g>
</g>
<!-- Node4&#45;&gt;Node390 -->
<g id="edge10" class="edge"><title>Node4&#45;&gt;Node390</title>
<path fill="none" stroke="midnightblue" d="M331.71,-751C346.922,-751 365.827,-751 383.078,-751"/>
<polygon fill="midnightblue" stroke="midnightblue" points="383.558,-754.5 393.558,-751 383.558,-747.5 383.558,-754.5"/>
</g>
<!-- Node6 -->
<g id="node6" class="node"><title>Node6</title>
<g id="a_node6"><a xlink:href="lobject_8c.html#aa6eb9701fada64e32960f82c8d24d8da" target="_top" xlink:title=" ">
<polygon fill="white" stroke="black" points="539,-855.5 539,-874.5 585,-874.5 585,-855.5 539,-855.5"/>
<text text-anchor="middle" x="562" y="-862.5" font-family="Helvetica,sans-Serif" font-size="10.00">intarith</text>
</a>
</g>
</g>
<!-- Node5&#45;&gt;Node6 -->
<g id="edge5" class="edge"><title>Node5&#45;&gt;Node6</title>
<path fill="none" stroke="midnightblue" d="M465.674,-836.589C485.148,-842.393 509.882,-849.765 529.275,-855.545"/>
<polygon fill="midnightblue" stroke="midnightblue" points="528.29,-858.903 538.873,-858.405 530.289,-852.195 528.29,-858.903"/>
</g>
<!-- Node446 -->
<g id="node10" class="node"><title>Node446</title>
<g id="a_node10"><a xlink:href="lobject_8c.html#adf4b8d51ae5cde26912864b83cdf6e36" target="_top" xlink:title=" ">
<polygon fill="white" stroke="red" points="535,-817.5 535,-836.5 589,-836.5 589,-817.5 535,-817.5"/>
<text text-anchor="middle" x="562" y="-824.5" font-family="Helvetica,sans-Serif" font-size="10.00">numarith</text>
</a>
</g>
</g>
<!-- Node5&#45;&gt;Node446 -->
<g id="edge9" class="edge"><title>Node5&#45;&gt;Node446</title>
<path fill="none" stroke="midnightblue" d="M470.721,-827C487.764,-827 507.887,-827 524.804,-827"/>
<polygon fill="midnightblue" stroke="midnightblue" points="524.867,-830.5 534.867,-827 524.867,-823.5 524.867,-830.5"/>
</g>
<!-- Node7 -->
<g id="node7" class="node"><title>Node7</title>
<g id="a_node7"><a xlink:href="lvm_8c.html#a8815b6d106992c5713900b20a0da5e29" target="_top" xlink:title=" ">
<polygon fill="white" stroke="red" points="661,-893.5 661,-912.5 716,-912.5 716,-893.5 661,-893.5"/>
<text text-anchor="middle" x="688.5" y="-900.5" font-family="Helvetica,sans-Serif" font-size="10.00">luaV_idiv</text>
</a>
</g>
</g>
<!-- Node6&#45;&gt;Node7 -->
<g id="edge6" class="edge"><title>Node6&#45;&gt;Node7</title>
<path fill="none" stroke="midnightblue" d="M585.258,-871.794C603.493,-877.359 629.667,-885.348 650.967,-891.849"/>
<polygon fill="midnightblue" stroke="midnightblue" points="650.084,-895.239 660.67,-894.811 652.127,-888.544 650.084,-895.239"/>
</g>
<!-- Node403 -->
<g id="node8" class="node"><title>Node403</title>
<g id="a_node8"><a xlink:href="lvm_8c.html#af1241d1650e114f39843626fd879d3d6" target="_top" xlink:title=" ">
<polygon fill="white" stroke="red" points="658.5,-855.5 658.5,-874.5 718.5,-874.5 718.5,-855.5 658.5,-855.5"/>
<text text-anchor="middle" x="688.5" y="-862.5" font-family="Helvetica,sans-Serif" font-size="10.00">luaV_mod</text>
</a>
</g>
</g>
<!-- Node6&#45;&gt;Node403 -->
<g id="edge7" class="edge"><title>Node6&#45;&gt;Node403</title>
<path fill="none" stroke="midnightblue" d="M585.258,-865C602.73,-865 627.49,-865 648.268,-865"/>
<polygon fill="midnightblue" stroke="midnightblue" points="648.404,-868.5 658.404,-865 648.404,-861.5 648.404,-868.5"/>
</g>
<!-- Node410 -->
<g id="node9" class="node"><title>Node410</title>
<g id="a_node9"><a xlink:href="lvm_8c.html#ade6c9565152d0bb1f6116a90ea2c867a" target="_top" xlink:title=" ">
<polygon fill="white" stroke="black" points="657.5,-817.5 657.5,-836.5 719.5,-836.5 719.5,-817.5 657.5,-817.5"/>
<text text-anchor="middle" x="688.5" y="-824.5" font-family="Helvetica,sans-Serif" font-size="10.00">luaV_shiftl</text>
</a>
</g>
</g>
<!-- Node6&#45;&gt;Node410 -->
<g id="edge8" class="edge"><title>Node6&#45;&gt;Node410</title>
<path fill="none" stroke="midnightblue" d="M585.258,-858.206C602.569,-852.923 627.035,-845.455 647.693,-839.15"/>
<polygon fill="midnightblue" stroke="midnightblue" points="648.938,-842.429 657.481,-836.162 646.895,-835.734 648.938,-842.429"/>
</g>
<!-- Node372 -->
<g id="node12" class="node"><title>Node372</title>
<g id="a_node12"><a xlink:href="ltm_8c.html#a68751e8f9bf0714d8c761a5b6ce4daf9" target="_top" xlink:title=" ">
<polygon fill="white" stroke="red" points="533,-779.5 533,-798.5 591,-798.5 591,-779.5 533,-779.5"/>
<text text-anchor="middle" x="562" y="-786.5" font-family="Helvetica,sans-Serif" font-size="10.00">callbinTM</text>
</a>
</g>
</g>
<!-- Node390&#45;&gt;Node372 -->
<g id="edge11" class="edge"><title>Node390&#45;&gt;Node372</title>
<path fill="none" stroke="midnightblue" d="M465.674,-760.589C483.102,-765.783 504.743,-772.233 522.998,-777.674"/>
<polygon fill="midnightblue" stroke="midnightblue" points="522.16,-781.076 532.743,-780.578 524.159,-774.368 522.16,-781.076"/>
</g>
<!-- Node391 -->
<g id="node13" class="node"><title>Node391</title>
<g id="a_node13"><a xlink:href="ldebug_8c.html#a5a3d4fd14bbb9329188c53a9548b7402" target="_top" xlink:title=" ">
<polygon fill="white" stroke="red" points="520.5,-741.5 520.5,-760.5 603.5,-760.5 603.5,-741.5 520.5,-741.5"/>
<text text-anchor="middle" x="562" y="-748.5" font-family="Helvetica,sans-Serif" font-size="10.00">luaG_opinterror</text>
</a>
</g>
</g>
<!-- Node390&#45;&gt;Node391 -->
<g id="edge12" class="edge"><title>Node390&#45;&gt;Node391</title>
<path fill="none" stroke="midnightblue" d="M471.065,-751C483.236,-751 496.95,-751 509.932,-751"/>
<polygon fill="midnightblue" stroke="midnightblue" points="510.143,-754.5 520.143,-751 510.143,-747.5 510.143,-754.5"/>
</g>
<!-- Node392 -->
<g id="node14" class="node"><title>Node392</title>
<g id="a_node14"><a xlink:href="ldebug_8c.html#ada97dce3c670f83e257a5b27299bf09b" target="_top" xlink:title=" ">
<polygon fill="white" stroke="red" points="522,-703.5 522,-722.5 602,-722.5 602,-703.5 522,-703.5"/>
<text text-anchor="middle" x="562" y="-710.5" font-family="Helvetica,sans-Serif" font-size="10.00">luaG_tointerror</text>
</a>
</g>
</g>
<!-- Node390&#45;&gt;Node392 -->
<g id="edge13" class="edge"><title>Node390&#45;&gt;Node392</title>
<path fill="none" stroke="midnightblue" d="M465.674,-741.411C481.831,-736.596 501.608,-730.701 518.952,-725.532"/>
<polygon fill="midnightblue" stroke="midnightblue" points="520.253,-728.796 528.837,-722.586 518.254,-722.088 520.253,-728.796"/>
</g>
<!-- Node448 -->
<g id="node16" class="node"><title>Node448</title>
<g id="a_node16"><a xlink:href="lapi_8c.html#a602f61a9b583d69dc1c72c8970bd65e8" target="_top" xlink:title=" ">
<polygon fill="white" stroke="black" points="394,-551.5 394,-570.5 471,-570.5 471,-551.5 394,-551.5"/>
<text text-anchor="middle" x="432.5" y="-558.5" font-family="Helvetica,sans-Serif" font-size="10.00">lua_pushvalue</text>
</a>
</g>
</g>
<!-- Node447&#45;&gt;Node448 -->
<g id="edge15" class="edge"><title>Node447&#45;&gt;Node448</title>
<path fill="none" stroke="midnightblue" d="M323.095,-576.905C339.54,-574.492 363.017,-571.048 383.921,-567.981"/>
<polygon fill="midnightblue" stroke="midnightblue" points="384.548,-571.426 393.934,-566.512 383.532,-564.5 384.548,-571.426"/>
</g>
<!-- Node450 -->
<g id="node18" class="node"><title>Node450</title>
<g id="a_node18"><a xlink:href="lapi_8c.html#ab9c2fb9e2b2c7dad7474dd4b6f1bbcd0" target="_top" xlink:title=" ">
<polygon fill="white" stroke="black" points="383,-646.5 383,-665.5 482,-665.5 482,-646.5 383,-646.5"/>
<text text-anchor="middle" x="432.5" y="-653.5" font-family="Helvetica,sans-Serif" font-size="10.00">lua_stringtonumber</text>
</a>
</g>
</g>
<!-- Node447&#45;&gt;Node450 -->
<g id="edge17" class="edge"><title>Node447&#45;&gt;Node450</title>
<path fill="none" stroke="midnightblue" d="M318.401,-589.625C340.587,-602.645 380.366,-625.991 406.344,-641.236"/>
<polygon fill="midnightblue" stroke="midnightblue" points="404.836,-644.41 415.232,-646.453 408.379,-638.373 404.836,-644.41"/>
</g>
<!-- Node451 -->
<g id="node22" class="node"><title>Node451</title>
<g id="a_node22"><a xlink:href="lapi_8c.html#a3fc7dbcac3f2610f3d687ec15343bd3f" target="_top" xlink:title=" ">
<polygon fill="white" stroke="black" points="398,-589.5 398,-608.5 467,-608.5 467,-589.5 398,-589.5"/>
<text text-anchor="middle" x="432.5" y="-596.5" font-family="Helvetica,sans-Serif" font-size="10.00">lua_tolstring</text>
</a>
</g>
</g>
<!-- Node447&#45;&gt;Node451 -->
<g id="edge21" class="edge"><title>Node447&#45;&gt;Node451</title>
<path fill="none" stroke="midnightblue" d="M323.095,-583.095C340.543,-585.655 365.907,-589.376 387.714,-592.576"/>
<polygon fill="midnightblue" stroke="midnightblue" points="387.36,-596.061 397.762,-594.05 388.376,-589.135 387.36,-596.061"/>
</g>
<!-- Node453 -->
<g id="node26" class="node"><title>Node453</title>
<g id="a_node26"><a xlink:href="lapi_8c.html#a652b273947f0656686f998d8e90cd3ea" target="_top" xlink:title=" ">
<polygon fill="white" stroke="black" points="406,-513.5 406,-532.5 459,-532.5 459,-513.5 406,-513.5"/>
<text text-anchor="middle" x="432.5" y="-520.5" font-family="Helvetica,sans-Serif" font-size="10.00">lua_type</text>
</a>
</g>
</g>
<!-- Node447&#45;&gt;Node453 -->
<g id="edge26" class="edge"><title>Node447&#45;&gt;Node453</title>
<path fill="none" stroke="midnightblue" d="M321.479,-570.425C337.786,-562.514 361.737,-551.141 383,-542 387.44,-540.091 392.139,-538.152 396.796,-536.277"/>
<polygon fill="midnightblue" stroke="midnightblue" points="398.193,-539.489 406.2,-532.551 395.614,-532.981 398.193,-539.489"/>
</g>
<!-- Node449 -->
<g id="node17" class="node"><title>Node449</title>
<g id="a_node17"><a xlink:href="lapi_8c.html#a7c66797ff8396fc9258bb9fc08e959d8" target="_top" xlink:title=" ">
<polygon fill="white" stroke="black" points="655,-513.5 655,-532.5 722,-532.5 722,-513.5 655,-513.5"/>
<text text-anchor="middle" x="688.5" y="-520.5" font-family="Helvetica,sans-Serif" font-size="10.00">index2value</text>
</a>
</g>
</g>
<!-- Node448&#45;&gt;Node449 -->
<g id="edge16" class="edge"><title>Node448&#45;&gt;Node449</title>
<path fill="none" stroke="midnightblue" d="M471.239,-556.101C506.221,-551.477 559.69,-544.197 606,-537 618.524,-535.054 632.102,-532.785 644.518,-530.647"/>
<polygon fill="midnightblue" stroke="midnightblue" points="645.372,-534.052 654.626,-528.893 644.174,-527.155 645.372,-534.052"/>
</g>
<!-- Node242 -->
<g id="node19" class="node"><title>Node242</title>
<g id="a_node19"><a xlink:href="lobject_8c.html#ab1956c979ca7ff39b07534390714505d" target="_top" xlink:title=" ">
<polygon fill="white" stroke="black" points="523.5,-665.5 523.5,-684.5 600.5,-684.5 600.5,-665.5 523.5,-665.5"/>
<text text-anchor="middle" x="562" y="-672.5" font-family="Helvetica,sans-Serif" font-size="10.00">luaO_str2num</text>
</a>
</g>
</g>
<!-- Node450&#45;&gt;Node242 -->
<g id="edge18" class="edge"><title>Node450&#45;&gt;Node242</title>
<path fill="none" stroke="midnightblue" d="M482.066,-663.237C492.305,-664.763 503.1,-666.372 513.307,-667.893"/>
<polygon fill="midnightblue" stroke="midnightblue" points="512.869,-671.366 523.275,-669.378 513.901,-664.443 512.869,-671.366"/>
</g>
<!-- Node243 -->
<g id="node20" class="node"><title>Node243</title>
<g id="a_node20"><a xlink:href="lobject_8c.html#a331ebab44d182775ef47eeebeeb58dbd" target="_top" xlink:title=" ">
<polygon fill="white" stroke="red" points="665.5,-684.5 665.5,-703.5 711.5,-703.5 711.5,-684.5 665.5,-684.5"/>
<text text-anchor="middle" x="688.5" y="-691.5" font-family="Helvetica,sans-Serif" font-size="10.00">l_str2d</text>
</a>
</g>
</g>
<!-- Node242&#45;&gt;Node243 -->
<g id="edge19" class="edge"><title>Node242&#45;&gt;Node243</title>
<path fill="none" stroke="midnightblue" d="M600.692,-680.752C618.07,-683.404 638.489,-686.52 655.156,-689.064"/>
<polygon fill="midnightblue" stroke="midnightblue" points="655.084,-692.593 665.497,-690.642 656.14,-685.673 655.084,-692.593"/>
</g>
<!-- Node245 -->
<g id="node21" class="node"><title>Node245</title>
<g id="a_node21"><a xlink:href="lobject_8c.html#ac5f6271088cb629a2359a93c283dc6ce" target="_top" xlink:title=" ">
<polygon fill="white" stroke="red" points="663,-646.5 663,-665.5 714,-665.5 714,-646.5 663,-646.5"/>
<text text-anchor="middle" x="688.5" y="-653.5" font-family="Helvetica,sans-Serif" font-size="10.00">l_str2int</text>
</a>
</g>
</g>
<!-- Node242&#45;&gt;Node245 -->
<g id="edge20" class="edge"><title>Node242&#45;&gt;Node245</title>
<path fill="none" stroke="midnightblue" d="M600.692,-669.248C617.248,-666.721 636.564,-663.773 652.767,-661.301"/>
<polygon fill="midnightblue" stroke="midnightblue" points="653.546,-664.722 662.904,-659.754 652.49,-657.802 653.546,-664.722"/>
</g>
<!-- Node451&#45;&gt;Node449 -->
<g id="edge22" class="edge"><title>Node451&#45;&gt;Node449</title>
<path fill="none" stroke="midnightblue" d="M455.919,-608.586C490.009,-621.637 556.177,-640.902 606,-618 615.047,-613.841 652.914,-566.943 673.698,-540.635"/>
<polygon fill="midnightblue" stroke="midnightblue" points="676.591,-542.617 680.024,-532.594 671.09,-538.288 676.591,-542.617"/>
</g>
<!-- Node452 -->
<g id="node23" class="node"><title>Node452</title>
<g id="a_node23"><a xlink:href="lobject_8c.html#a53824ade5220a50d44148175f7787199" target="_top" xlink:title=" ">
<polygon fill="white" stroke="black" points="525,-589.5 525,-608.5 599,-608.5 599,-589.5 525,-589.5"/>
<text text-anchor="middle" x="562" y="-596.5" font-family="Helvetica,sans-Serif" font-size="10.00">luaO_tostring</text>
</a>
</g>
</g>
<!-- Node451&#45;&gt;Node452 -->
<g id="edge23" class="edge"><title>Node451&#45;&gt;Node452</title>
<path fill="none" stroke="midnightblue" d="M467.333,-599C481.857,-599 499.061,-599 514.736,-599"/>
<polygon fill="midnightblue" stroke="midnightblue" points="514.773,-602.5 524.773,-599 514.773,-595.5 514.773,-602.5"/>
</g>
<!-- Node21 -->
<g id="node24" class="node"><title>Node21</title>
<g id="a_node24"><a xlink:href="lstring_8c.html#ab41fb084ce3ea5e2779f6659ccc2484d" target="_top" xlink:title=" ">
<polygon fill="white" stroke="red" points="652.5,-209.5 652.5,-228.5 724.5,-228.5 724.5,-209.5 652.5,-209.5"/>
<text text-anchor="middle" x="688.5" y="-216.5" font-family="Helvetica,sans-Serif" font-size="10.00">luaS_newlstr</text>
</a>
</g>
</g>
<!-- Node452&#45;&gt;Node21 -->
<g id="edge24" class="edge"><title>Node452&#45;&gt;Node21</title>
<path fill="none" stroke="midnightblue" d="M567.872,-589.485C576.391,-572.594 594.21,-536.121 606,-504 641.876,-406.258 671.95,-285.002 682.985,-238.446"/>
<polygon fill="midnightblue" stroke="midnightblue" points="686.439,-239.044 685.318,-228.509 679.625,-237.444 686.439,-239.044"/>
</g>
<!-- Node443 -->
<g id="node25" class="node"><title>Node443</title>
<g id="a_node25"><a xlink:href="lobject_8c.html#a8a7886b6335aca97db23dfe3e220c728" target="_top" xlink:title=" ">
<polygon fill="white" stroke="black" points="656.5,-589.5 656.5,-608.5 720.5,-608.5 720.5,-589.5 656.5,-589.5"/>
<text text-anchor="middle" x="688.5" y="-596.5" font-family="Helvetica,sans-Serif" font-size="10.00">tostringbuff</text>
</a>
</g>
</g>
<!-- Node452&#45;&gt;Node443 -->
<g id="edge25" class="edge"><title>Node452&#45;&gt;Node443</title>
<path fill="none" stroke="midnightblue" d="M599.011,-599C613.715,-599 630.81,-599 646.032,-599"/>
<polygon fill="midnightblue" stroke="midnightblue" points="646.219,-602.5 656.219,-599 646.219,-595.5 646.219,-602.5"/>
</g>
<!-- Node453&#45;&gt;Node449 -->
<g id="edge27" class="edge"><title>Node453&#45;&gt;Node449</title>
<path fill="none" stroke="midnightblue" d="M459.253,-523C502.883,-523 591.753,-523 644.812,-523"/>
<polygon fill="midnightblue" stroke="midnightblue" points="644.922,-526.5 654.922,-523 644.922,-519.5 644.922,-526.5"/>
</g>
<!-- Node454&#45;&gt;Node453 -->
<g id="edge33" class="edge"><title>Node454&#45;&gt;Node453</title>
<path fill="none" stroke="midnightblue" d="M212.219,-472.251C224.342,-476.182 240.513,-481.21 255,-485 303.438,-497.67 360.144,-509.323 395.943,-516.296"/>
<polygon fill="midnightblue" stroke="midnightblue" points="395.423,-519.76 405.906,-518.22 396.751,-512.887 395.423,-519.76"/>
</g>
<!-- Node455 -->
<g id="node28" class="node"><title>Node455</title>
<g id="a_node28"><a xlink:href="lapi_8c.html#adaa30f0d34786144c94644039d1d1b6e" target="_top" xlink:title=" ">
<polygon fill="white" stroke="black" points="270,-456.5 270,-475.5 332,-475.5 332,-456.5 270,-456.5"/>
<text text-anchor="middle" x="301" y="-463.5" font-family="Helvetica,sans-Serif" font-size="10.00">lua_settop</text>
</a>
</g>
</g>
<!-- Node454&#45;&gt;Node455 -->
<g id="edge29" class="edge"><title>Node454&#45;&gt;Node455</title>
<path fill="none" stroke="midnightblue" d="M212.051,-466C225.153,-466 243.218,-466 259.569,-466"/>
<polygon fill="midnightblue" stroke="midnightblue" points="259.997,-469.5 269.997,-466 259.997,-462.5 259.997,-469.5"/>
</g>
<!-- Node456 -->
<g id="node32" class="node"><title>Node456</title>
<g id="a_node32"><a xlink:href="lauxlib_8c.html#a6c51d83d29244779392551388913e08a" target="_top" xlink:title=" ">
<polygon fill="white" stroke="black" points="271.5,-152.5 271.5,-171.5 330.5,-171.5 330.5,-152.5 271.5,-152.5"/>
<text text-anchor="middle" x="301" y="-159.5" font-family="Helvetica,sans-Serif" font-size="10.00">luaL_error</text>
</a>
</g>
</g>
<!-- Node454&#45;&gt;Node456 -->
<g id="edge34" class="edge"><title>Node454&#45;&gt;Node456</title>
<path fill="none" stroke="midnightblue" d="M196.923,-456.23C212.039,-413.081 272.966,-239.167 293.332,-181.032"/>
<polygon fill="midnightblue" stroke="midnightblue" points="296.64,-182.177 296.643,-171.582 290.034,-179.863 296.64,-182.177"/>
</g>
<!-- Node470 -->
<g id="node43" class="node"><title>Node470</title>
<g id="a_node43"><a xlink:href="lauxlib_8c.html#add7cea31816ff3f61014031248e0daa6" target="_top" xlink:title=" ">
<polygon fill="white" stroke="black" points="255,-333.5 255,-352.5 347,-352.5 347,-333.5 255,-333.5"/>
<text text-anchor="middle" x="301" y="-340.5" font-family="Helvetica,sans-Serif" font-size="10.00">luaL_getmetafield</text>
</a>
</g>
</g>
<!-- Node454&#45;&gt;Node470 -->
<g id="edge48" class="edge"><title>Node454&#45;&gt;Node470</title>
<path fill="none" stroke="midnightblue" d="M201.857,-456.348C219.821,-435.601 262.325,-386.512 285.054,-360.262"/>
<polygon fill="midnightblue" stroke="midnightblue" points="287.782,-362.458 291.682,-352.607 282.49,-357.876 287.782,-362.458"/>
</g>
<!-- Node73 -->
<g id="node29" class="node"><title>Node73</title>
<g id="a_node29"><a xlink:href="lfunc_8c.html#ae9fcbf80b5969afd9412b9aed102f94e" target="_top" xlink:title=" ">
<polygon fill="white" stroke="black" points="400.5,-456.5 400.5,-475.5 464.5,-475.5 464.5,-456.5 400.5,-456.5"/>
<text text-anchor="middle" x="432.5" y="-463.5" font-family="Helvetica,sans-Serif" font-size="10.00">luaF_close</text>
</a>
</g>
</g>
<!-- Node455&#45;&gt;Node73 -->
<g id="edge30" class="edge"><title>Node455&#45;&gt;Node73</title>
<path fill="none" stroke="midnightblue" d="M332.035,-466C349.309,-466 371.263,-466 390.148,-466"/>
<polygon fill="midnightblue" stroke="midnightblue" points="390.276,-469.5 400.275,-466 390.275,-462.5 390.276,-469.5"/>
</g>
<!-- Node74 -->
<g id="node30" class="node"><title>Node74</title>
<g id="a_node30"><a xlink:href="lfunc_8c.html#a4105c820bb9b1b4b4b3bd6613b0ccb05" target="_top" xlink:title=" ">
<polygon fill="white" stroke="red" points="526.5,-437.5 526.5,-456.5 597.5,-456.5 597.5,-437.5 526.5,-437.5"/>
<text text-anchor="middle" x="562" y="-444.5" font-family="Helvetica,sans-Serif" font-size="10.00">callclosemth</text>
</a>
</g>
</g>
<!-- Node73&#45;&gt;Node74 -->
<g id="edge31" class="edge"><title>Node73&#45;&gt;Node74</title>
<path fill="none" stroke="midnightblue" d="M464.69,-461.352C480.075,-459.059 498.919,-456.251 515.845,-453.729"/>
<polygon fill="midnightblue" stroke="midnightblue" points="516.714,-457.138 526.089,-452.202 515.682,-450.215 516.714,-457.138"/>
</g>
<!-- Node88 -->
<g id="node31" class="node"><title>Node88</title>
<g id="a_node31"><a xlink:href="lfunc_8c.html#a3b5a5ae122e85af5c941e9b4ffff53bd" target="_top" xlink:title=" ">
<polygon fill="white" stroke="black" points="518,-475.5 518,-494.5 606,-494.5 606,-475.5 518,-475.5"/>
<text text-anchor="middle" x="562" y="-482.5" font-family="Helvetica,sans-Serif" font-size="10.00">luaF_unlinkupval</text>
</a>
</g>
</g>
<!-- Node73&#45;&gt;Node88 -->
<g id="edge32" class="edge"><title>Node73&#45;&gt;Node88</title>
<path fill="none" stroke="midnightblue" d="M464.69,-470.648C477.628,-472.576 493.013,-474.869 507.646,-477.049"/>
<polygon fill="midnightblue" stroke="midnightblue" points="507.211,-480.523 517.617,-478.535 508.243,-473.599 507.211,-480.523"/>
</g>
<!-- Node457 -->
<g id="node33" class="node"><title>Node457</title>
<g id="a_node33"><a xlink:href="lapi_8c.html#a1de3afee1daece63d455f23818c883d9" target="_top" xlink:title=" ">
<polygon fill="white" stroke="black" points="400.5,-152.5 400.5,-171.5 464.5,-171.5 464.5,-152.5 400.5,-152.5"/>
<text text-anchor="middle" x="432.5" y="-159.5" font-family="Helvetica,sans-Serif" font-size="10.00">lua_concat</text>
</a>
</g>
</g>
<!-- Node456&#45;&gt;Node457 -->
<g id="edge35" class="edge"><title>Node456&#45;&gt;Node457</title>
<path fill="none" stroke="midnightblue" d="M330.74,-162C348.173,-162 370.713,-162 390.052,-162"/>
<polygon fill="midnightblue" stroke="midnightblue" points="390.121,-165.5 400.121,-162 390.121,-158.5 390.121,-165.5"/>
</g>
<!-- Node458 -->
<g id="node35" class="node"><title>Node458</title>
<g id="a_node35"><a xlink:href="lapi_8c.html#a6ba7b91143fe8a03910420d800de8e97" target="_top" xlink:title=" ">
<polygon fill="white" stroke="black" points="405.5,-199.5 405.5,-218.5 459.5,-218.5 459.5,-199.5 405.5,-199.5"/>
<text text-anchor="middle" x="432.5" y="-206.5" font-family="Helvetica,sans-Serif" font-size="10.00">lua_error</text>
</a>
</g>
</g>
<!-- Node456&#45;&gt;Node458 -->
<g id="edge39" class="edge"><title>Node456&#45;&gt;Node458</title>
<path fill="none" stroke="midnightblue" d="M328.206,-171.511C347.69,-178.582 374.494,-188.311 395.915,-196.085"/>
<polygon fill="midnightblue" stroke="midnightblue" points="394.739,-199.381 405.333,-199.503 397.127,-192.801 394.739,-199.381"/>
</g>
<!-- Node459 -->
<g id="node37" class="node"><title>Node459</title>
<g id="a_node37"><a xlink:href="lapi_8c.html#a426c9cb1d582be3e43060c4772854e5a" target="_top" xlink:title=" ">
<polygon fill="white" stroke="black" points="389.5,-10.5 389.5,-29.5 475.5,-29.5 475.5,-10.5 389.5,-10.5"/>
<text text-anchor="middle" x="432.5" y="-17.5" font-family="Helvetica,sans-Serif" font-size="10.00">lua_pushvfstring</text>
</a>
</g>
</g>
<!-- Node456&#45;&gt;Node459 -->
<g id="edge41" class="edge"><title>Node456&#45;&gt;Node459</title>
<path fill="none" stroke="midnightblue" d="M309.757,-152.301C323.853,-134.815 354.822,-97.0316 383,-67 392.68,-56.6831 404.009,-45.6508 413.282,-36.8692"/>
<polygon fill="midnightblue" stroke="midnightblue" points="415.912,-39.2011 420.809,-29.8059 411.122,-34.0966 415.912,-39.2011"/>
</g>
<!-- Node460 -->
<g id="node39" class="node"><title>Node460</title>
<g id="a_node39"><a xlink:href="lauxlib_8c.html#a0f4d3c30c07eae36aa25605df84279a0" target="_top" xlink:title=" ">
<polygon fill="white" stroke="black" points="400,-76.5 400,-95.5 465,-95.5 465,-76.5 400,-76.5"/>
<text text-anchor="middle" x="432.5" y="-83.5" font-family="Helvetica,sans-Serif" font-size="10.00">luaL_where</text>
</a>
</g>
</g>
<!-- Node456&#45;&gt;Node460 -->
<g id="edge43" class="edge"><title>Node456&#45;&gt;Node460</title>
<path fill="none" stroke="midnightblue" d="M318.401,-152.375C340.587,-139.355 380.366,-116.009 406.344,-100.764"/>
<polygon fill="midnightblue" stroke="midnightblue" points="408.379,-103.627 415.232,-95.5473 404.836,-97.5902 408.379,-103.627"/>
</g>
<!-- Node457&#45;&gt;Node21 -->
<g id="edge36" class="edge"><title>Node457&#45;&gt;Node21</title>
<path fill="none" stroke="midnightblue" d="M464.571,-156.507C499.777,-151.525 558.44,-147.019 606,-162 631.012,-169.879 655.031,-188.471 670.433,-202.292"/>
<polygon fill="midnightblue" stroke="midnightblue" points="668.348,-205.133 678.054,-209.381 673.116,-200.007 668.348,-205.133"/>
</g>
<!-- Node394 -->
<g id="node34" class="node"><title>Node394</title>
<g id="a_node34"><a xlink:href="lvm_8c.html#a2f076040af405dcb50d661edd692eca7" target="_top" xlink:title=" ">
<polygon fill="white" stroke="red" points="526.5,-171.5 526.5,-190.5 597.5,-190.5 597.5,-171.5 526.5,-171.5"/>
<text text-anchor="middle" x="562" y="-178.5" font-family="Helvetica,sans-Serif" font-size="10.00">luaV_concat</text>
</a>
</g>
</g>
<!-- Node457&#45;&gt;Node394 -->
<g id="edge37" class="edge"><title>Node457&#45;&gt;Node394</title>
<path fill="none" stroke="midnightblue" d="M464.69,-166.648C480.075,-168.941 498.919,-171.749 515.845,-174.271"/>
<polygon fill="midnightblue" stroke="midnightblue" points="515.682,-177.785 526.089,-175.798 516.714,-170.862 515.682,-177.785"/>
</g>
<!-- Node394&#45;&gt;Node21 -->
<g id="edge38" class="edge"><title>Node394&#45;&gt;Node21</title>
<path fill="none" stroke="midnightblue" d="M594.417,-190.589C610.193,-195.404 629.505,-201.299 646.441,-206.468"/>
<polygon fill="midnightblue" stroke="midnightblue" points="645.507,-209.842 656.093,-209.414 647.551,-203.147 645.507,-209.842"/>
</g>
<!-- Node445 -->
<g id="node36" class="node"><title>Node445</title>
<g id="a_node36"><a xlink:href="ldebug_8c.html#af7366920f8408bb33ed01b1d6c0e1238" target="_top" xlink:title=" ">
<polygon fill="white" stroke="red" points="522,-209.5 522,-228.5 602,-228.5 602,-209.5 522,-209.5"/>
<text text-anchor="middle" x="562" y="-216.5" font-family="Helvetica,sans-Serif" font-size="10.00">luaG_errormsg</text>
</a>
</g>
</g>
<!-- Node458&#45;&gt;Node445 -->
<g id="edge40" class="edge"><title>Node458&#45;&gt;Node445</title>
<path fill="none" stroke="midnightblue" d="M459.609,-211.048C474.591,-212.223 493.894,-213.737 511.631,-215.128"/>
<polygon fill="midnightblue" stroke="midnightblue" points="511.605,-218.637 521.848,-215.929 512.152,-211.658 511.605,-218.637"/>
</g>
<!-- Node16 -->
<g id="node38" class="node"><title>Node16</title>
<g id="a_node38"><a xlink:href="lobject_8c.html#aa83fa444a36d79521e846a766fa083d5" target="_top" xlink:title=" ">
<polygon fill="white" stroke="red" points="642,-0.5 642,-19.5 735,-19.5 735,-0.5 642,-0.5"/>
<text text-anchor="middle" x="688.5" y="-7.5" font-family="Helvetica,sans-Serif" font-size="10.00">luaO_pushvfstring</text>
</a>
</g>
</g>
<!-- Node459&#45;&gt;Node16 -->
<g id="edge42" class="edge"><title>Node459&#45;&gt;Node16</title>
<path fill="none" stroke="midnightblue" d="M475.535,-14.0366C489.063,-12.3828 504.138,-10.8174 518,-10 555.773,-7.77269 598.363,-7.78285 631.402,-8.34472"/>
<polygon fill="midnightblue" stroke="midnightblue" points="631.709,-11.8512 641.775,-8.5444 631.844,-4.85249 631.709,-11.8512"/>
</g>
<!-- Node461 -->
<g id="node40" class="node"><title>Node461</title>
<g id="a_node40"><a xlink:href="ldebug_8c.html#acaafc35d8e385c4d167229486165df6d" target="_top" xlink:title=" ">
<polygon fill="white" stroke="red" points="530.5,-95.5 530.5,-114.5 593.5,-114.5 593.5,-95.5 530.5,-95.5"/>
<text text-anchor="middle" x="562" y="-102.5" font-family="Helvetica,sans-Serif" font-size="10.00">lua_getinfo</text>
</a>
</g>
</g>
<!-- Node460&#45;&gt;Node461 -->
<g id="edge44" class="edge"><title>Node460&#45;&gt;Node461</title>
<path fill="none" stroke="midnightblue" d="M465.017,-90.6966C481.739,-93.1885 502.476,-96.2787 520.391,-98.9485"/>
<polygon fill="midnightblue" stroke="midnightblue" points="519.879,-102.411 530.286,-100.423 520.911,-95.4872 519.879,-102.411"/>
</g>
<!-- Node468 -->
<g id="node41" class="node"><title>Node468</title>
<g id="a_node41"><a xlink:href="ldebug_8c.html#ac1fc03c27ee46caa4037df2d70f22110" target="_top" xlink:title=" ">
<polygon fill="white" stroke="black" points="526,-57.5 526,-76.5 598,-76.5 598,-57.5 526,-57.5"/>
<text text-anchor="middle" x="562" y="-64.5" font-family="Helvetica,sans-Serif" font-size="10.00">lua_getstack</text>
</a>
</g>
</g>
<!-- Node460&#45;&gt;Node468 -->
<g id="edge45" class="edge"><title>Node460&#45;&gt;Node468</title>
<path fill="none" stroke="midnightblue" d="M465.017,-81.3034C480.284,-79.0283 498.898,-76.2544 515.656,-73.7571"/>
<polygon fill="midnightblue" stroke="midnightblue" points="516.429,-77.1807 525.804,-72.2449 515.397,-70.2571 516.429,-77.1807"/>
</g>
<!-- Node469 -->
<g id="node42" class="node"><title>Node469</title>
<g id="a_node42"><a xlink:href="lapi_8c.html#ab190c226d38b289e6ca57683a9d4e0f0" target="_top" xlink:title=" ">
<polygon fill="white" stroke="black" points="521,-19.5 521,-38.5 603,-38.5 603,-19.5 521,-19.5"/>
<text text-anchor="middle" x="562" y="-26.5" font-family="Helvetica,sans-Serif" font-size="10.00">lua_pushfstring</text>
</a>
</g>
</g>
<!-- Node460&#45;&gt;Node469 -->
<g id="edge46" class="edge"><title>Node460&#45;&gt;Node469</title>
<path fill="none" stroke="midnightblue" d="M454.666,-76.4354C471.747,-68.7279 496.403,-57.6273 518,-48 521.858,-46.2803 525.913,-44.4795 529.928,-42.7006"/>
<polygon fill="midnightblue" stroke="midnightblue" points="531.383,-45.8842 539.113,-38.6381 528.551,-39.4825 531.383,-45.8842"/>
</g>
<!-- Node469&#45;&gt;Node16 -->
<g id="edge47" class="edge"><title>Node469&#45;&gt;Node16</title>
<path fill="none" stroke="midnightblue" d="M603.078,-22.8837C612.258,-21.4827 622.178,-19.9689 631.88,-18.4882"/>
<polygon fill="midnightblue" stroke="midnightblue" points="632.515,-21.9319 641.873,-16.9632 631.459,-15.012 632.515,-21.9319"/>
</g>
<!-- Node471 -->
<g id="node44" class="node"><title>Node471</title>
<g id="a_node44"><a xlink:href="lapi_8c.html#a4caa9ca5e47a30bd45e33d83bf2d6d6e" target="_top" xlink:title=" ">
<polygon fill="white" stroke="black" points="387,-309.5 387,-328.5 478,-328.5 478,-309.5 387,-309.5"/>
<text text-anchor="middle" x="432.5" y="-316.5" font-family="Helvetica,sans-Serif" font-size="10.00">lua_getmetatable</text>
</a>
</g>
</g>
<!-- Node470&#45;&gt;Node471 -->
<g id="edge49" class="edge"><title>Node470&#45;&gt;Node471</title>
<path fill="none" stroke="midnightblue" d="M347.293,-334.606C356.82,-332.84 366.967,-330.96 376.798,-329.138"/>
<polygon fill="midnightblue" stroke="midnightblue" points="377.693,-332.532 386.888,-327.268 376.418,-325.649 377.693,-332.532"/>
</g>
<!-- Node472 -->
<g id="node45" class="node"><title>Node472</title>
<g id="a_node45"><a xlink:href="lapi_8c.html#a771d300f2e64b2197d1df9bf31660ebf" target="_top" xlink:title=" ">
<polygon fill="white" stroke="black" points="392.5,-252.5 392.5,-271.5 472.5,-271.5 472.5,-252.5 392.5,-252.5"/>
<text text-anchor="middle" x="432.5" y="-259.5" font-family="Helvetica,sans-Serif" font-size="10.00">lua_pushstring</text>
</a>
</g>
</g>
<!-- Node470&#45;&gt;Node472 -->
<g id="edge51" class="edge"><title>Node470&#45;&gt;Node472</title>
<path fill="none" stroke="midnightblue" d="M317.364,-333.39C339.659,-319.445 381.186,-293.471 407.528,-276.994"/>
<polygon fill="midnightblue" stroke="midnightblue" points="409.534,-279.868 416.156,-271.597 405.822,-273.933 409.534,-279.868"/>
</g>
<!-- Node473 -->
<g id="node47" class="node"><title>Node473</title>
<g id="a_node47"><a xlink:href="lapi_8c.html#a52944e714d1c64bda7b83f511c14b2d3" target="_top" xlink:title=" ">
<polygon fill="white" stroke="black" points="401,-356.5 401,-375.5 464,-375.5 464,-356.5 401,-356.5"/>
<text text-anchor="middle" x="432.5" y="-363.5" font-family="Helvetica,sans-Serif" font-size="10.00">lua_rawget</text>
</a>
</g>
</g>
<!-- Node470&#45;&gt;Node473 -->
<g id="edge54" class="edge"><title>Node470&#45;&gt;Node473</title>
<path fill="none" stroke="midnightblue" d="M347.293,-351.044C361.358,-353.542 376.774,-356.28 390.528,-358.723"/>
<polygon fill="midnightblue" stroke="midnightblue" points="390.214,-362.222 400.672,-360.525 391.438,-355.33 390.214,-362.222"/>
</g>
<!-- Node471&#45;&gt;Node449 -->
<g id="edge50" class="edge"><title>Node471&#45;&gt;Node449</title>
<path fill="none" stroke="midnightblue" d="M459.827,-309.414C496.144,-298.002 562.093,-283.995 606,-314 670.052,-357.772 683.769,-459.968 686.704,-503.163"/>
<polygon fill="midnightblue" stroke="midnightblue" points="683.214,-503.454 687.26,-513.246 690.204,-503.068 683.214,-503.454"/>
</g>
<!-- Node93 -->
<g id="node46" class="node"><title>Node93</title>
<g id="a_node46"><a xlink:href="lstring_8c.html#a6d47e53be6b8e58202bb927752f4824b" target="_top" xlink:title=" ">
<polygon fill="white" stroke="black" points="532.5,-247.5 532.5,-266.5 591.5,-266.5 591.5,-247.5 532.5,-247.5"/>
<text text-anchor="middle" x="562" y="-254.5" font-family="Helvetica,sans-Serif" font-size="10.00">luaS_new</text>
</a>
</g>
</g>
<!-- Node472&#45;&gt;Node93 -->
<g id="edge52" class="edge"><title>Node472&#45;&gt;Node93</title>
<path fill="none" stroke="midnightblue" d="M472.795,-260.459C488.37,-259.848 506.242,-259.147 521.808,-258.537"/>
<polygon fill="midnightblue" stroke="midnightblue" points="522.304,-262.02 532.159,-258.131 522.03,-255.026 522.304,-262.02"/>
</g>
<!-- Node93&#45;&gt;Node21 -->
<g id="edge53" class="edge"><title>Node93&#45;&gt;Node21</title>
<path fill="none" stroke="midnightblue" d="M591.563,-248.282C607.796,-243.327 628.404,-237.037 646.355,-231.558"/>
<polygon fill="midnightblue" stroke="midnightblue" points="647.468,-234.878 656.01,-228.611 645.424,-228.183 647.468,-234.878"/>
</g>
<!-- Node474 -->
<g id="node48" class="node"><title>Node474</title>
<g id="a_node48"><a xlink:href="lapi_8c.html#a33830676158a2e9fde44f07109035425" target="_top" xlink:title=" ">
<polygon fill="white" stroke="black" points="528,-361.5 528,-380.5 596,-380.5 596,-361.5 528,-361.5"/>
<text text-anchor="middle" x="562" y="-368.5" font-family="Helvetica,sans-Serif" font-size="10.00">finishrawget</text>
</a>
</g>
</g>
<!-- Node473&#45;&gt;Node474 -->
<g id="edge55" class="edge"><title>Node473&#45;&gt;Node474</title>
<path fill="none" stroke="midnightblue" d="M464.039,-367.198C480.051,-367.826 499.942,-368.606 517.532,-369.295"/>
<polygon fill="midnightblue" stroke="midnightblue" points="517.447,-372.795 527.576,-369.689 517.721,-365.8 517.447,-372.795"/>
</g>
<!-- Node475 -->
<g id="node49" class="node"><title>Node475</title>
<g id="a_node49"><a xlink:href="lapi_8c.html#a4ebfbcdc1a7a4f0332d4dd532a817212" target="_top" xlink:title=" ">
<polygon fill="white" stroke="black" points="536.5,-399.5 536.5,-418.5 587.5,-418.5 587.5,-399.5 536.5,-399.5"/>
<text text-anchor="middle" x="562" y="-406.5" font-family="Helvetica,sans-Serif" font-size="10.00">gettable</text>
</a>
</g>
</g>
<!-- Node473&#45;&gt;Node475 -->
<g id="edge56" class="edge"><title>Node473&#45;&gt;Node475</title>
<path fill="none" stroke="midnightblue" d="M461.796,-375.543C480.963,-382.007 506.398,-390.585 526.715,-397.437"/>
<polygon fill="midnightblue" stroke="midnightblue" points="525.634,-400.766 536.228,-400.645 527.871,-394.133 525.634,-400.766"/>
</g>
<!-- Node145 -->
<g id="node50" class="node"><title>Node145</title>
<g id="a_node50"><a xlink:href="ltable_8c.html#a8b4fce00d7db27ee9caac3d49863dea3" target="_top" xlink:title=" ">
<polygon fill="white" stroke="red" points="534.5,-323.5 534.5,-342.5 589.5,-342.5 589.5,-323.5 534.5,-323.5"/>
<text text-anchor="middle" x="562" y="-330.5" font-family="Helvetica,sans-Serif" font-size="10.00">luaH_get</text>
</a>
</g>
</g>
<!-- Node473&#45;&gt;Node145 -->
<g id="edge58" class="edge"><title>Node473&#45;&gt;Node145</title>
<path fill="none" stroke="midnightblue" d="M464.039,-358.096C482.149,-353.408 505.22,-347.437 524.314,-342.495"/>
<polygon fill="midnightblue" stroke="midnightblue" points="525.367,-345.838 534.171,-339.944 523.613,-339.061 525.367,-345.838"/>
</g>
<!-- Node475&#45;&gt;Node449 -->
<g id="edge57" class="edge"><title>Node475&#45;&gt;Node449</title>
<path fill="none" stroke="midnightblue" d="M587.696,-417.669C593.975,-420.461 600.497,-423.912 606,-428 635.347,-449.8 661.32,-483.975 675.679,-504.845"/>
<polygon fill="midnightblue" stroke="midnightblue" points="672.948,-507.057 681.429,-513.406 678.758,-503.153 672.948,-507.057"/>
</g>
</g>
</svg>
