<?xml version="1.0" encoding="UTF-8" standalone="no"?>
<!DOCTYPE svg PUBLIC "-//W3C//DTD SVG 1.1//EN"
 "http://www.w3.org/Graphics/SVG/1.1/DTD/svg11.dtd">
<!-- Generated by graphviz version 2.38.0 (20140413.2041)
 -->
<!-- Title: add_value Pages: 1 -->
<svg width="1161pt" height="659pt"
 viewBox="0.00 0.00 1161.00 658.90" xmlns="http://www.w3.org/2000/svg" xmlns:xlink="http://www.w3.org/1999/xlink">
<g id="graph0" class="graph" transform="scale(1 1) rotate(0) translate(4 654.903)">
<title>add_value</title>
<polygon fill="white" stroke="none" points="-4,4 -4,-654.903 1157,-654.903 1157,4 -4,4"/>
<!-- Node1 -->
<g id="node1" class="node"><title>Node1</title>
<g id="a_node1"><a xlink:title=" ">
<polygon fill="#bfbfbf" stroke="black" points="0,-361.5 0,-380.5 59,-380.5 59,-361.5 0,-361.5"/>
<text text-anchor="middle" x="29.5" y="-368.5" font-family="Helvetica,sans-Serif" font-size="10.00">add_value</text>
</a>
</g>
</g>
<!-- Node2 -->
<g id="node2" class="node"><title>Node2</title>
<g id="a_node2"><a xlink:href="lstrlib_8c.html#ad5f7e3fbcadc8825f7f650ecf458fc72" target="_top" xlink:title=" ">
<polygon fill="white" stroke="black" points="112,-380.5 112,-399.5 155,-399.5 155,-380.5 112,-380.5"/>
<text text-anchor="middle" x="133.5" y="-387.5" font-family="Helvetica,sans-Serif" font-size="10.00">add_s</text>
</a>
</g>
</g>
<!-- Node1&#45;&gt;Node2 -->
<g id="edge1" class="edge"><title>Node1&#45;&gt;Node2</title>
<path fill="none" stroke="midnightblue" d="M59.1841,-376.343C72.5194,-378.827 88.3902,-381.783 101.95,-384.309"/>
<polygon fill="midnightblue" stroke="midnightblue" points="101.316,-387.751 111.788,-386.142 102.598,-380.87 101.316,-387.751"/>
</g>
<!-- Node5 -->
<g id="node5" class="node"><title>Node5</title>
<g id="a_node5"><a xlink:href="lauxlib_8c.html#a6c51d83d29244779392551388913e08a" target="_top" xlink:title=" ">
<polygon fill="white" stroke="black" points="588.5,-475.5 588.5,-494.5 647.5,-494.5 647.5,-475.5 588.5,-475.5"/>
<text text-anchor="middle" x="618" y="-482.5" font-family="Helvetica,sans-Serif" font-size="10.00">luaL_error</text>
</a>
</g>
</g>
<!-- Node1&#45;&gt;Node5 -->
<g id="edge65" class="edge"><title>Node1&#45;&gt;Node5</title>
<path fill="none" stroke="midnightblue" d="M38.4936,-380.565C64.9335,-411.061 153.282,-504 248,-504 248,-504 248,-504 372.5,-504 445.484,-504 530.356,-495.481 578.47,-489.851"/>
<polygon fill="midnightblue" stroke="midnightblue" points="578.932,-493.321 588.448,-488.663 578.105,-486.37 578.932,-493.321"/>
</g>
<!-- Node464 -->
<g id="node22" class="node"><title>Node464</title>
<g id="a_node22"><a xlink:href="lauxlib_8c.html#a0d56993399c45ae61ebb9b448dc30538" target="_top" xlink:title=" ">
<polygon fill="white" stroke="black" points="208,-418.5 208,-437.5 290,-437.5 290,-418.5 208,-418.5"/>
<text text-anchor="middle" x="249" y="-425.5" font-family="Helvetica,sans-Serif" font-size="10.00">luaL_addlstring</text>
</a>
</g>
</g>
<!-- Node1&#45;&gt;Node464 -->
<g id="edge63" class="edge"><title>Node1&#45;&gt;Node464</title>
<path fill="none" stroke="midnightblue" d="M43.073,-380.534C55.5466,-389.461 75.5597,-402.385 95,-409 127.981,-420.222 166.974,-424.945 197.341,-426.876"/>
<polygon fill="midnightblue" stroke="midnightblue" points="197.521,-430.391 207.699,-427.448 197.907,-423.401 197.521,-430.391"/>
</g>
<!-- Node496 -->
<g id="node30" class="node"><title>Node496</title>
<g id="a_node30"><a xlink:href="lauxlib_8c.html#a59a8ac34826fee305ad56101d97aee18" target="_top" xlink:title=" ">
<polygon fill="white" stroke="black" points="210.5,-342.5 210.5,-361.5 287.5,-361.5 287.5,-342.5 210.5,-342.5"/>
<text text-anchor="middle" x="249" y="-349.5" font-family="Helvetica,sans-Serif" font-size="10.00">luaL_addvalue</text>
</a>
</g>
</g>
<!-- Node1&#45;&gt;Node496 -->
<g id="edge64" class="edge"><title>Node1&#45;&gt;Node496</title>
<path fill="none" stroke="midnightblue" d="M59.3823,-368.477C95.3272,-365.337 157.217,-359.931 200.258,-356.171"/>
<polygon fill="midnightblue" stroke="midnightblue" points="200.566,-359.657 210.223,-355.3 199.956,-352.684 200.566,-359.657"/>
</g>
<!-- Node497 -->
<g id="node31" class="node"><title>Node497</title>
<g id="a_node31"><a xlink:href="lapi_8c.html#aa572dbc6e86f796a3e82ffcae4478aeb" target="_top" xlink:title=" ">
<polygon fill="white" stroke="black" points="337,-171.5 337,-190.5 406,-190.5 406,-171.5 337,-171.5"/>
<text text-anchor="middle" x="371.5" y="-178.5" font-family="Helvetica,sans-Serif" font-size="10.00">lua_gettable</text>
</a>
</g>
</g>
<!-- Node1&#45;&gt;Node497 -->
<g id="edge41" class="edge"><title>Node1&#45;&gt;Node497</title>
<path fill="none" stroke="midnightblue" d="M47.8281,-361.317C103.418,-330.252 277.523,-232.958 344.179,-195.709"/>
<polygon fill="midnightblue" stroke="midnightblue" points="346.185,-198.597 353.207,-190.664 342.77,-192.487 346.185,-198.597"/>
</g>
<!-- Node498 -->
<g id="node42" class="node"><title>Node498</title>
<g id="a_node42"><a xlink:href="lapi_8c.html#a9f20233199a414b04c1c4b43f5d040f3" target="_top" xlink:title=" ">
<polygon fill="white" stroke="black" points="216,-142.5 216,-161.5 282,-161.5 282,-142.5 216,-142.5"/>
<text text-anchor="middle" x="249" y="-149.5" font-family="Helvetica,sans-Serif" font-size="10.00">lua_isstring</text>
</a>
</g>
</g>
<!-- Node1&#45;&gt;Node498 -->
<g id="edge57" class="edge"><title>Node1&#45;&gt;Node498</title>
<path fill="none" stroke="midnightblue" d="M31.4703,-361.211C34.7942,-332.894 48.2439,-250.051 95,-205 125.086,-176.011 171.808,-162.818 205.709,-156.851"/>
<polygon fill="midnightblue" stroke="midnightblue" points="206.472,-160.273 215.785,-155.221 205.355,-153.362 206.472,-160.273"/>
</g>
<!-- Node481 -->
<g id="node43" class="node"><title>Node481</title>
<g id="a_node43"><a xlink:href="lapi_8c.html#a602f61a9b583d69dc1c72c8970bd65e8" target="_top" xlink:title=" ">
<polygon fill="white" stroke="black" points="95,-105.5 95,-124.5 172,-124.5 172,-105.5 95,-105.5"/>
<text text-anchor="middle" x="133.5" y="-112.5" font-family="Helvetica,sans-Serif" font-size="10.00">lua_pushvalue</text>
</a>
</g>
</g>
<!-- Node1&#45;&gt;Node481 -->
<g id="edge59" class="edge"><title>Node1&#45;&gt;Node481</title>
<path fill="none" stroke="midnightblue" d="M31.3614,-361.303C34.6371,-328.727 48.5809,-221.167 95,-148 98.933,-141.801 104.366,-136.093 109.876,-131.229"/>
<polygon fill="midnightblue" stroke="midnightblue" points="112.292,-133.775 117.839,-124.749 107.874,-128.346 112.292,-133.775"/>
</g>
<!-- Node499 -->
<g id="node44" class="node"><title>Node499</title>
<g id="a_node44"><a xlink:href="lapi_8c.html#a444aee9aa56b0b06175ee3c7bcf7927c" target="_top" xlink:title=" ">
<polygon fill="white" stroke="black" points="95,-62.5 95,-81.5 172,-81.5 172,-62.5 95,-62.5"/>
<text text-anchor="middle" x="133.5" y="-69.5" font-family="Helvetica,sans-Serif" font-size="10.00">lua_toboolean</text>
</a>
</g>
</g>
<!-- Node1&#45;&gt;Node499 -->
<g id="edge61" class="edge"><title>Node1&#45;&gt;Node499</title>
<path fill="none" stroke="midnightblue" d="M30.2702,-361.439C29.8355,-323.861 32.6727,-184.06 95,-96 97.23,-92.8494 100.017,-90.0147 103.059,-87.4925"/>
<polygon fill="midnightblue" stroke="midnightblue" points="105.341,-90.1661 111.498,-81.544 101.308,-84.4446 105.341,-90.1661"/>
</g>
<!-- Node500 -->
<g id="node45" class="node"><title>Node500</title>
<g id="a_node45"><a xlink:href="lstrlib_8c.html#ad14703c4bc40d7c1951dedb7bc7554f7" target="_top" xlink:title=" ">
<polygon fill="white" stroke="black" points="209,-532.5 209,-551.5 289,-551.5 289,-532.5 209,-532.5"/>
<text text-anchor="middle" x="249" y="-539.5" font-family="Helvetica,sans-Serif" font-size="10.00">push_captures</text>
</a>
</g>
</g>
<!-- Node1&#45;&gt;Node500 -->
<g id="edge66" class="edge"><title>Node1&#45;&gt;Node500</title>
<path fill="none" stroke="midnightblue" d="M31.6092,-380.835C35.1998,-407.69 49.0797,-482.621 95,-518 124.213,-540.507 166.041,-545.786 198.582,-545.837"/>
<polygon fill="midnightblue" stroke="midnightblue" points="198.846,-549.334 208.793,-545.685 198.742,-542.334 198.846,-549.334"/>
</g>
<!-- Node501 -->
<g id="node48" class="node"><title>Node501</title>
<g id="a_node48"><a xlink:href="lstrlib_8c.html#a24a14b4e6e90bac4610dd334bb0b51b6" target="_top" xlink:title=" ">
<polygon fill="white" stroke="black" points="326,-608.5 326,-627.5 417,-627.5 417,-608.5 326,-608.5"/>
<text text-anchor="middle" x="371.5" y="-615.5" font-family="Helvetica,sans-Serif" font-size="10.00">push_onecapture</text>
</a>
</g>
</g>
<!-- Node1&#45;&gt;Node501 -->
<g id="edge76" class="edge"><title>Node1&#45;&gt;Node501</title>
<path fill="none" stroke="midnightblue" d="M31.0807,-380.584C33.3877,-409.886 44.4437,-499.077 95,-545 156.109,-600.509 254.589,-614.671 315.769,-617.803"/>
<polygon fill="midnightblue" stroke="midnightblue" points="315.857,-621.31 325.998,-618.241 316.157,-614.316 315.857,-621.31"/>
</g>
<!-- Node3 -->
<g id="node3" class="node"><title>Node3</title>
<g id="a_node3"><a xlink:href="lstrlib_8c.html#afa9ea8e071a60a2c554c79f7def3bb39" target="_top" xlink:title=" ">
<polygon fill="white" stroke="black" points="454,-608.5 454,-627.5 537,-627.5 537,-608.5 454,-608.5"/>
<text text-anchor="middle" x="495.5" y="-615.5" font-family="Helvetica,sans-Serif" font-size="10.00">get_onecapture</text>
</a>
</g>
</g>
<!-- Node2&#45;&gt;Node3 -->
<g id="edge2" class="edge"><title>Node2&#45;&gt;Node3</title>
<path fill="none" stroke="midnightblue" d="M146.573,-399.601C173.219,-420.945 238.759,-474.298 290,-523 306.863,-539.027 306.405,-548.459 326,-561 346.83,-574.331 407.548,-593.292 450.092,-605.62"/>
<polygon fill="midnightblue" stroke="midnightblue" points="449.366,-609.053 459.944,-608.451 451.299,-602.325 449.366,-609.053"/>
</g>
<!-- Node2&#45;&gt;Node5 -->
<g id="edge40" class="edge"><title>Node2&#45;&gt;Node5</title>
<path fill="none" stroke="midnightblue" d="M155.231,-391.818C185.138,-394.603 242.063,-400.509 290,-409 363.247,-421.974 380.544,-430.16 453,-447 495.955,-456.984 545.249,-468.4 578.486,-476.091"/>
<polygon fill="midnightblue" stroke="midnightblue" points="577.729,-479.509 588.261,-478.353 579.307,-472.689 577.729,-479.509"/>
</g>
<!-- Node461 -->
<g id="node18" class="node"><title>Node461</title>
<g id="a_node18"><a xlink:href="lapi_8c.html#a3fc7dbcac3f2610f3d687ec15343bd3f" target="_top" xlink:title=" ">
<polygon fill="white" stroke="black" points="337,-247.5 337,-266.5 406,-266.5 406,-247.5 337,-247.5"/>
<text text-anchor="middle" x="371.5" y="-254.5" font-family="Helvetica,sans-Serif" font-size="10.00">lua_tolstring</text>
</a>
</g>
</g>
<!-- Node2&#45;&gt;Node461 -->
<g id="edge22" class="edge"><title>Node2&#45;&gt;Node461</title>
<path fill="none" stroke="midnightblue" d="M145.392,-380.294C159.268,-368.235 184.301,-347.483 208,-333 250.208,-307.207 302.59,-284.166 336.276,-270.39"/>
<polygon fill="midnightblue" stroke="midnightblue" points="337.719,-273.581 345.678,-266.587 335.095,-267.092 337.719,-273.581"/>
</g>
<!-- Node2&#45;&gt;Node464 -->
<g id="edge27" class="edge"><title>Node2&#45;&gt;Node464</title>
<path fill="none" stroke="midnightblue" d="M155.054,-396.882C170.324,-401.994 191.595,-409.116 209.936,-415.256"/>
<polygon fill="midnightblue" stroke="midnightblue" points="208.895,-418.598 219.489,-418.454 211.117,-411.96 208.895,-418.598"/>
</g>
<!-- Node2&#45;&gt;Node496 -->
<g id="edge37" class="edge"><title>Node2&#45;&gt;Node496</title>
<path fill="none" stroke="midnightblue" d="M155.054,-383.118C170.324,-378.006 191.595,-370.884 209.936,-364.744"/>
<polygon fill="midnightblue" stroke="midnightblue" points="211.117,-368.04 219.489,-361.546 208.895,-361.402 211.117,-368.04"/>
</g>
<!-- Node4 -->
<g id="node4" class="node"><title>Node4</title>
<g id="a_node4"><a xlink:href="lapi_8c.html#adcec46ff05dfee9a3c4c05828b40c213" target="_top" xlink:title=" ">
<polygon fill="white" stroke="black" points="575.5,-608.5 575.5,-627.5 660.5,-627.5 660.5,-608.5 575.5,-608.5"/>
<text text-anchor="middle" x="618" y="-615.5" font-family="Helvetica,sans-Serif" font-size="10.00">lua_pushinteger</text>
</a>
</g>
</g>
<!-- Node3&#45;&gt;Node4 -->
<g id="edge3" class="edge"><title>Node3&#45;&gt;Node4</title>
<path fill="none" stroke="midnightblue" d="M537.296,-618C546.321,-618 555.999,-618 565.391,-618"/>
<polygon fill="midnightblue" stroke="midnightblue" points="565.425,-621.5 575.425,-618 565.425,-614.5 565.425,-621.5"/>
</g>
<!-- Node3&#45;&gt;Node5 -->
<g id="edge4" class="edge"><title>Node3&#45;&gt;Node5</title>
<path fill="none" stroke="midnightblue" d="M523.219,-608.34C528.429,-605.768 533.626,-602.663 538,-599 570.453,-571.827 595.586,-528.222 608.15,-503.562"/>
<polygon fill="midnightblue" stroke="midnightblue" points="611.316,-505.055 612.614,-494.54 605.042,-501.951 611.316,-505.055"/>
</g>
<!-- Node6 -->
<g id="node6" class="node"><title>Node6</title>
<g id="a_node6"><a xlink:href="lapi_8c.html#a1de3afee1daece63d455f23818c883d9" target="_top" xlink:title=" ">
<polygon fill="white" stroke="black" points="710,-475.5 710,-494.5 774,-494.5 774,-475.5 710,-475.5"/>
<text text-anchor="middle" x="742" y="-482.5" font-family="Helvetica,sans-Serif" font-size="10.00">lua_concat</text>
</a>
</g>
</g>
<!-- Node5&#45;&gt;Node6 -->
<g id="edge5" class="edge"><title>Node5&#45;&gt;Node6</title>
<path fill="none" stroke="midnightblue" d="M647.604,-485C663.001,-485 682.278,-485 699.314,-485"/>
<polygon fill="midnightblue" stroke="midnightblue" points="699.577,-488.5 709.577,-485 699.577,-481.5 699.577,-488.5"/>
</g>
<!-- Node449 -->
<g id="node12" class="node"><title>Node449</title>
<g id="a_node12"><a xlink:href="lapi_8c.html#a6ba7b91143fe8a03910420d800de8e97" target="_top" xlink:title=" ">
<polygon fill="white" stroke="black" points="715,-266.5 715,-285.5 769,-285.5 769,-266.5 715,-266.5"/>
<text text-anchor="middle" x="742" y="-273.5" font-family="Helvetica,sans-Serif" font-size="10.00">lua_error</text>
</a>
</g>
</g>
<!-- Node5&#45;&gt;Node449 -->
<g id="edge13" class="edge"><title>Node5&#45;&gt;Node449</title>
<path fill="none" stroke="midnightblue" d="M624.559,-475.477C643.414,-443.175 705.153,-337.411 730.248,-294.419"/>
<polygon fill="midnightblue" stroke="midnightblue" points="733.39,-295.98 735.408,-285.579 727.344,-292.451 733.39,-295.98"/>
</g>
<!-- Node450 -->
<g id="node13" class="node"><title>Node450</title>
<g id="a_node13"><a xlink:href="lapi_8c.html#a426c9cb1d582be3e43060c4772854e5a" target="_top" xlink:title=" ">
<polygon fill="white" stroke="black" points="938,-570.5 938,-589.5 1024,-589.5 1024,-570.5 938,-570.5"/>
<text text-anchor="middle" x="981" y="-577.5" font-family="Helvetica,sans-Serif" font-size="10.00">lua_pushvfstring</text>
</a>
</g>
</g>
<!-- Node5&#45;&gt;Node450 -->
<g id="edge15" class="edge"><title>Node5&#45;&gt;Node450</title>
<path fill="none" stroke="midnightblue" d="M622.188,-494.72C630.395,-517.927 654.697,-576.324 698,-599 778.822,-641.324 890.996,-612.147 946.348,-593.004"/>
<polygon fill="midnightblue" stroke="midnightblue" points="947.756,-596.218 956.002,-589.566 945.407,-589.624 947.756,-596.218"/>
</g>
<!-- Node451 -->
<g id="node14" class="node"><title>Node451</title>
<g id="a_node14"><a xlink:href="lauxlib_8c.html#a0f4d3c30c07eae36aa25605df84279a0" target="_top" xlink:title=" ">
<polygon fill="white" stroke="black" points="709.5,-361.5 709.5,-380.5 774.5,-380.5 774.5,-361.5 709.5,-361.5"/>
<text text-anchor="middle" x="742" y="-368.5" font-family="Helvetica,sans-Serif" font-size="10.00">luaL_where</text>
</a>
</g>
</g>
<!-- Node5&#45;&gt;Node451 -->
<g id="edge17" class="edge"><title>Node5&#45;&gt;Node451</title>
<path fill="none" stroke="midnightblue" d="M629.402,-475.28C650.2,-455.846 697.135,-411.989 723.02,-387.801"/>
<polygon fill="midnightblue" stroke="midnightblue" points="725.708,-390.08 730.625,-380.695 720.928,-384.965 725.708,-390.08"/>
</g>
<!-- Node7 -->
<g id="node7" class="node"><title>Node7</title>
<g id="a_node7"><a xlink:href="lstring_8c.html#ab41fb084ce3ea5e2779f6659ccc2484d" target="_top" xlink:title=" ">
<polygon fill="white" stroke="red" points="945,-494.5 945,-513.5 1017,-513.5 1017,-494.5 945,-494.5"/>
<text text-anchor="middle" x="981" y="-501.5" font-family="Helvetica,sans-Serif" font-size="10.00">luaS_newlstr</text>
</a>
</g>
</g>
<!-- Node6&#45;&gt;Node7 -->
<g id="edge6" class="edge"><title>Node6&#45;&gt;Node7</title>
<path fill="none" stroke="midnightblue" d="M774.472,-487.523C815.56,-490.817 887.761,-496.605 934.725,-500.37"/>
<polygon fill="midnightblue" stroke="midnightblue" points="934.676,-503.878 944.923,-501.188 935.235,-496.9 934.676,-503.878"/>
</g>
<!-- Node87 -->
<g id="node8" class="node"><title>Node87</title>
<g id="a_node8"><a xlink:href="lvm_8c.html#a2f076040af405dcb50d661edd692eca7" target="_top" xlink:title=" ">
<polygon fill="white" stroke="red" points="826.5,-456.5 826.5,-475.5 897.5,-475.5 897.5,-456.5 826.5,-456.5"/>
<text text-anchor="middle" x="862" y="-463.5" font-family="Helvetica,sans-Serif" font-size="10.00">luaV_concat</text>
</a>
</g>
</g>
<!-- Node6&#45;&gt;Node87 -->
<g id="edge7" class="edge"><title>Node6&#45;&gt;Node87</title>
<path fill="none" stroke="midnightblue" d="M774.003,-480.008C786.971,-477.92 802.287,-475.454 816.426,-473.177"/>
<polygon fill="midnightblue" stroke="midnightblue" points="817.147,-476.606 826.463,-471.561 816.034,-469.695 817.147,-476.606"/>
</g>
<!-- Node87&#45;&gt;Node7 -->
<g id="edge12" class="edge"><title>Node87&#45;&gt;Node7</title>
<path fill="none" stroke="midnightblue" d="M892.524,-475.589C907.212,-480.359 925.16,-486.189 940.968,-491.323"/>
<polygon fill="midnightblue" stroke="midnightblue" points="939.893,-494.654 950.485,-494.414 942.056,-487.996 939.893,-494.654"/>
</g>
<!-- Node75 -->
<g id="node9" class="node"><title>Node75</title>
<g id="a_node9"><a xlink:href="ldebug_8c.html#a88d38ca5da2e7a1492fc9d5ad70c32c5" target="_top" xlink:title=" ">
<polygon fill="white" stroke="red" points="943.5,-266.5 943.5,-285.5 1018.5,-285.5 1018.5,-266.5 943.5,-266.5"/>
<text text-anchor="middle" x="981" y="-273.5" font-family="Helvetica,sans-Serif" font-size="10.00">luaG_runerror</text>
</a>
</g>
</g>
<!-- Node87&#45;&gt;Node75 -->
<g id="edge8" class="edge"><title>Node87&#45;&gt;Node75</title>
<path fill="none" stroke="midnightblue" d="M870.842,-456.455C879.477,-445.551 893.289,-426.897 902,-409 925.253,-361.225 902.729,-334.738 938,-295 939.169,-293.683 940.447,-292.452 941.807,-291.303"/>
<polygon fill="midnightblue" stroke="midnightblue" points="943.972,-294.064 950.3,-285.567 940.054,-288.263 943.972,-294.064"/>
</g>
<!-- Node112 -->
<g id="node10" class="node"><title>Node112</title>
<g id="a_node10"><a xlink:href="ldebug_8c.html#af7366920f8408bb33ed01b1d6c0e1238" target="_top" xlink:title=" ">
<polygon fill="white" stroke="red" points="1066.5,-247.5 1066.5,-266.5 1146.5,-266.5 1146.5,-247.5 1066.5,-247.5"/>
<text text-anchor="middle" x="1106.5" y="-254.5" font-family="Helvetica,sans-Serif" font-size="10.00">luaG_errormsg</text>
</a>
</g>
</g>
<!-- Node75&#45;&gt;Node112 -->
<g id="edge9" class="edge"><title>Node75&#45;&gt;Node112</title>
<path fill="none" stroke="midnightblue" d="M1018.72,-270.351C1030.38,-268.556 1043.48,-266.541 1055.9,-264.63"/>
<polygon fill="midnightblue" stroke="midnightblue" points="1056.77,-268.038 1066.13,-263.058 1055.71,-261.119 1056.77,-268.038"/>
</g>
<!-- Node82 -->
<g id="node11" class="node"><title>Node82</title>
<g id="a_node11"><a xlink:href="lobject_8c.html#aa83fa444a36d79521e846a766fa083d5" target="_top" xlink:title=" ">
<polygon fill="white" stroke="red" points="1060,-285.5 1060,-304.5 1153,-304.5 1153,-285.5 1060,-285.5"/>
<text text-anchor="middle" x="1106.5" y="-292.5" font-family="Helvetica,sans-Serif" font-size="10.00">luaO_pushvfstring</text>
</a>
</g>
</g>
<!-- Node75&#45;&gt;Node82 -->
<g id="edge10" class="edge"><title>Node75&#45;&gt;Node82</title>
<path fill="none" stroke="midnightblue" d="M1018.72,-275.418C1034.82,-277.19 1053.65,-280.1 1069.65,-283.292"/>
<polygon fill="midnightblue" stroke="midnightblue" points="1069.18,-286.772 1079.69,-285.421 1070.64,-279.924 1069.18,-286.772"/>
</g>
<!-- Node82&#45;&gt;Node75 -->
<g id="edge11" class="edge"><title>Node82&#45;&gt;Node75</title>
<path fill="none" stroke="midnightblue" d="M1059.97,-294.534C1046.02,-292.76 1030.89,-290.313 1017.69,-287.676"/>
<polygon fill="midnightblue" stroke="midnightblue" points="1018.1,-284.184 1007.59,-285.53 1016.64,-291.031 1018.1,-284.184"/>
</g>
<!-- Node449&#45;&gt;Node112 -->
<g id="edge14" class="edge"><title>Node449&#45;&gt;Node112</title>
<path fill="none" stroke="midnightblue" d="M769.052,-268.094C784.319,-263.876 804.069,-259.126 822,-257 903.672,-247.317 999.512,-250.275 1056.23,-253.497"/>
<polygon fill="midnightblue" stroke="midnightblue" points="1056.16,-256.999 1066.35,-254.098 1056.57,-250.011 1056.16,-256.999"/>
</g>
<!-- Node450&#45;&gt;Node82 -->
<g id="edge16" class="edge"><title>Node450&#45;&gt;Node82</title>
<path fill="none" stroke="midnightblue" d="M990.368,-570.497C999.599,-559.631 1014.41,-541.012 1024,-523 1062.82,-450.077 1090.07,-354.751 1100.63,-314.393"/>
<polygon fill="midnightblue" stroke="midnightblue" points="1104.07,-315.089 1103.17,-304.532 1097.29,-313.347 1104.07,-315.089"/>
</g>
<!-- Node452 -->
<g id="node15" class="node"><title>Node452</title>
<g id="a_node15"><a xlink:href="ldebug_8c.html#acaafc35d8e385c4d167229486165df6d" target="_top" xlink:title=" ">
<polygon fill="white" stroke="red" points="830.5,-342.5 830.5,-361.5 893.5,-361.5 893.5,-342.5 830.5,-342.5"/>
<text text-anchor="middle" x="862" y="-349.5" font-family="Helvetica,sans-Serif" font-size="10.00">lua_getinfo</text>
</a>
</g>
</g>
<!-- Node451&#45;&gt;Node452 -->
<g id="edge18" class="edge"><title>Node451&#45;&gt;Node452</title>
<path fill="none" stroke="midnightblue" d="M774.622,-365.908C788.6,-363.658 805.212,-360.983 820.116,-358.583"/>
<polygon fill="midnightblue" stroke="midnightblue" points="820.791,-362.019 830.108,-356.974 819.678,-355.108 820.791,-362.019"/>
</g>
<!-- Node459 -->
<g id="node16" class="node"><title>Node459</title>
<g id="a_node16"><a xlink:href="ldebug_8c.html#ac1fc03c27ee46caa4037df2d70f22110" target="_top" xlink:title=" ">
<polygon fill="white" stroke="black" points="826,-380.5 826,-399.5 898,-399.5 898,-380.5 826,-380.5"/>
<text text-anchor="middle" x="862" y="-387.5" font-family="Helvetica,sans-Serif" font-size="10.00">lua_getstack</text>
</a>
</g>
</g>
<!-- Node451&#45;&gt;Node459 -->
<g id="edge19" class="edge"><title>Node451&#45;&gt;Node459</title>
<path fill="none" stroke="midnightblue" d="M774.622,-376.092C787.243,-378.124 802.011,-380.502 815.731,-382.711"/>
<polygon fill="midnightblue" stroke="midnightblue" points="815.536,-386.225 825.965,-384.359 816.649,-379.314 815.536,-386.225"/>
</g>
<!-- Node460 -->
<g id="node17" class="node"><title>Node460</title>
<g id="a_node17"><a xlink:href="lapi_8c.html#ab190c226d38b289e6ca57683a9d4e0f0" target="_top" xlink:title=" ">
<polygon fill="white" stroke="black" points="940,-304.5 940,-323.5 1022,-323.5 1022,-304.5 940,-304.5"/>
<text text-anchor="middle" x="981" y="-311.5" font-family="Helvetica,sans-Serif" font-size="10.00">lua_pushfstring</text>
</a>
</g>
</g>
<!-- Node451&#45;&gt;Node460 -->
<g id="edge20" class="edge"><title>Node451&#45;&gt;Node460</title>
<path fill="none" stroke="midnightblue" d="M759.015,-361.35C774.546,-352.471 799.063,-339.695 822,-333 857.146,-322.741 898.244,-318.012 929.713,-315.836"/>
<polygon fill="midnightblue" stroke="midnightblue" points="930.232,-319.311 939.994,-315.192 929.795,-312.325 930.232,-319.311"/>
</g>
<!-- Node460&#45;&gt;Node82 -->
<g id="edge21" class="edge"><title>Node460&#45;&gt;Node82</title>
<path fill="none" stroke="midnightblue" d="M1022.1,-307.831C1030.89,-306.478 1040.35,-305.023 1049.64,-303.594"/>
<polygon fill="midnightblue" stroke="midnightblue" points="1050.25,-307.041 1059.6,-302.061 1049.19,-300.123 1050.25,-307.041"/>
</g>
<!-- Node462 -->
<g id="node19" class="node"><title>Node462</title>
<g id="a_node19"><a xlink:href="lapi_8c.html#a7c66797ff8396fc9258bb9fc08e959d8" target="_top" xlink:title=" ">
<polygon fill="white" stroke="black" points="462,-76.5 462,-95.5 529,-95.5 529,-76.5 462,-76.5"/>
<text text-anchor="middle" x="495.5" y="-83.5" font-family="Helvetica,sans-Serif" font-size="10.00">index2value</text>
</a>
</g>
</g>
<!-- Node461&#45;&gt;Node462 -->
<g id="edge23" class="edge"><title>Node461&#45;&gt;Node462</title>
<path fill="none" stroke="midnightblue" d="M380.687,-247.139C389.858,-235.951 405.009,-217.045 417,-200 434.241,-175.494 436.173,-167.792 453,-143 462.113,-129.574 472.916,-114.768 481.215,-103.612"/>
<polygon fill="midnightblue" stroke="midnightblue" points="484.064,-105.647 487.254,-95.5437 478.46,-101.452 484.064,-105.647"/>
</g>
<!-- Node463 -->
<g id="node20" class="node"><title>Node463</title>
<g id="a_node20"><a xlink:href="lobject_8c.html#a53824ade5220a50d44148175f7787199" target="_top" xlink:title=" ">
<polygon fill="white" stroke="black" points="458.5,-228.5 458.5,-247.5 532.5,-247.5 532.5,-228.5 458.5,-228.5"/>
<text text-anchor="middle" x="495.5" y="-235.5" font-family="Helvetica,sans-Serif" font-size="10.00">luaO_tostring</text>
</a>
</g>
</g>
<!-- Node461&#45;&gt;Node463 -->
<g id="edge24" class="edge"><title>Node461&#45;&gt;Node463</title>
<path fill="none" stroke="midnightblue" d="M406.16,-251.758C419.214,-249.725 434.373,-247.364 448.41,-245.178"/>
<polygon fill="midnightblue" stroke="midnightblue" points="449.045,-248.621 458.387,-243.624 447.968,-241.705 449.045,-248.621"/>
</g>
<!-- Node463&#45;&gt;Node7 -->
<g id="edge25" class="edge"><title>Node463&#45;&gt;Node7</title>
<path fill="none" stroke="midnightblue" d="M524.567,-247.566C529.439,-250.1 534.165,-253.215 538,-257 564.6,-283.256 547.42,-306.724 574,-333 683.755,-441.5 763.152,-379.625 902,-447 923.948,-457.65 946.136,-474.599 961.205,-487.251"/>
<polygon fill="midnightblue" stroke="midnightblue" points="959.335,-490.259 969.2,-494.123 963.898,-484.95 959.335,-490.259"/>
</g>
<!-- Node109 -->
<g id="node21" class="node"><title>Node109</title>
<g id="a_node21"><a xlink:href="lobject_8c.html#a8a7886b6335aca97db23dfe3e220c728" target="_top" xlink:title=" ">
<polygon fill="white" stroke="black" points="586,-304.5 586,-323.5 650,-323.5 650,-304.5 586,-304.5"/>
<text text-anchor="middle" x="618" y="-311.5" font-family="Helvetica,sans-Serif" font-size="10.00">tostringbuff</text>
</a>
</g>
</g>
<!-- Node463&#45;&gt;Node109 -->
<g id="edge26" class="edge"><title>Node463&#45;&gt;Node109</title>
<path fill="none" stroke="midnightblue" d="M521.498,-247.568C527.156,-250.236 532.973,-253.404 538,-257 556.922,-270.534 554.988,-281.592 574,-295 576.376,-296.676 578.924,-298.253 581.549,-299.727"/>
<polygon fill="midnightblue" stroke="midnightblue" points="580.135,-302.934 590.637,-304.332 583.299,-296.69 580.135,-302.934"/>
</g>
<!-- Node465 -->
<g id="node23" class="node"><title>Node465</title>
<g id="a_node23"><a xlink:href="lauxlib_8c.html#a96b72c2bee2d49148b93676ea09818a5" target="_top" xlink:title=" ">
<polygon fill="white" stroke="black" points="337.5,-342.5 337.5,-361.5 405.5,-361.5 405.5,-342.5 337.5,-342.5"/>
<text text-anchor="middle" x="371.5" y="-349.5" font-family="Helvetica,sans-Serif" font-size="10.00">prepbuffsize</text>
</a>
</g>
</g>
<!-- Node464&#45;&gt;Node465 -->
<g id="edge28" class="edge"><title>Node464&#45;&gt;Node465</title>
<path fill="none" stroke="midnightblue" d="M265.261,-418.375C285.814,-405.412 322.595,-382.214 346.773,-366.965"/>
<polygon fill="midnightblue" stroke="midnightblue" points="348.771,-369.842 355.363,-361.547 345.037,-363.922 348.771,-369.842"/>
</g>
<!-- Node466 -->
<g id="node24" class="node"><title>Node466</title>
<g id="a_node24"><a xlink:href="lapi_8c.html#a1b4cd0d80f51e5545a97ca6c28c03c50" target="_top" xlink:title=" ">
<polygon fill="white" stroke="black" points="463,-266.5 463,-285.5 528,-285.5 528,-266.5 463,-266.5"/>
<text text-anchor="middle" x="495.5" y="-273.5" font-family="Helvetica,sans-Serif" font-size="10.00">lua_pushnil</text>
</a>
</g>
</g>
<!-- Node465&#45;&gt;Node466 -->
<g id="edge29" class="edge"><title>Node465&#45;&gt;Node466</title>
<path fill="none" stroke="midnightblue" d="M384.57,-342.366C399.913,-330.381 427.479,-309.705 453,-295 456.045,-293.246 459.28,-291.529 462.548,-289.89"/>
<polygon fill="midnightblue" stroke="midnightblue" points="464.203,-292.978 471.715,-285.507 461.183,-286.663 464.203,-292.978"/>
</g>
<!-- Node467 -->
<g id="node25" class="node"><title>Node467</title>
<g id="a_node25"><a xlink:href="lapi_8c.html#af680e24129c0e021b4fbb7700cf185dc" target="_top" xlink:title=" ">
<polygon fill="white" stroke="red" points="466,-380.5 466,-399.5 525,-399.5 525,-380.5 466,-380.5"/>
<text text-anchor="middle" x="495.5" y="-387.5" font-family="Helvetica,sans-Serif" font-size="10.00">lua_rotate</text>
</a>
</g>
</g>
<!-- Node465&#45;&gt;Node467 -->
<g id="edge30" class="edge"><title>Node465&#45;&gt;Node467</title>
<path fill="none" stroke="midnightblue" d="M403.286,-361.589C419.336,-366.588 439.12,-372.75 456.155,-378.057"/>
<polygon fill="midnightblue" stroke="midnightblue" points="455.231,-381.434 465.819,-381.067 457.313,-374.751 455.231,-381.434"/>
</g>
<!-- Node470 -->
<g id="node26" class="node"><title>Node470</title>
<g id="a_node26"><a xlink:href="lapi_8c.html#a5101545bcd4222abe101836b7931bdf9" target="_top" xlink:title=" ">
<polygon fill="white" stroke="red" points="462.5,-342.5 462.5,-361.5 528.5,-361.5 528.5,-342.5 462.5,-342.5"/>
<text text-anchor="middle" x="495.5" y="-349.5" font-family="Helvetica,sans-Serif" font-size="10.00">lua_toclose</text>
</a>
</g>
</g>
<!-- Node465&#45;&gt;Node470 -->
<g id="edge31" class="edge"><title>Node465&#45;&gt;Node470</title>
<path fill="none" stroke="midnightblue" d="M405.515,-352C419.849,-352 436.815,-352 452.069,-352"/>
<polygon fill="midnightblue" stroke="midnightblue" points="452.303,-355.5 462.303,-352 452.303,-348.5 452.303,-355.5"/>
</g>
<!-- Node471 -->
<g id="node27" class="node"><title>Node471</title>
<g id="a_node27"><a xlink:href="lauxlib_8c.html#a22714b3538a1ad6943014db449d4ed19" target="_top" xlink:title=" ">
<polygon fill="white" stroke="red" points="470.5,-304.5 470.5,-323.5 520.5,-323.5 520.5,-304.5 470.5,-304.5"/>
<text text-anchor="middle" x="495.5" y="-311.5" font-family="Helvetica,sans-Serif" font-size="10.00">newbox</text>
</a>
</g>
</g>
<!-- Node465&#45;&gt;Node471 -->
<g id="edge32" class="edge"><title>Node465&#45;&gt;Node471</title>
<path fill="none" stroke="midnightblue" d="M403.286,-342.411C420.715,-336.982 442.547,-330.182 460.482,-324.596"/>
<polygon fill="midnightblue" stroke="midnightblue" points="461.753,-327.866 470.26,-321.55 459.672,-321.182 461.753,-327.866"/>
</g>
<!-- Node491 -->
<g id="node28" class="node"><title>Node491</title>
<g id="a_node28"><a xlink:href="lauxlib_8c.html#a5a09a1507f8338fd07d77992e200c5d2" target="_top" xlink:title=" ">
<polygon fill="white" stroke="black" points="462,-418.5 462,-437.5 529,-437.5 529,-418.5 462,-418.5"/>
<text text-anchor="middle" x="495.5" y="-425.5" font-family="Helvetica,sans-Serif" font-size="10.00">newbuffsize</text>
</a>
</g>
</g>
<!-- Node465&#45;&gt;Node491 -->
<g id="edge33" class="edge"><title>Node465&#45;&gt;Node491</title>
<path fill="none" stroke="midnightblue" d="M384.57,-361.634C399.913,-373.619 427.479,-394.295 453,-409 456.045,-410.754 459.28,-412.471 462.548,-414.11"/>
<polygon fill="midnightblue" stroke="midnightblue" points="461.183,-417.337 471.715,-418.493 464.203,-411.022 461.183,-417.337"/>
</g>
<!-- Node492 -->
<g id="node29" class="node"><title>Node492</title>
<g id="a_node29"><a xlink:href="lauxlib_8c.html#acdf7f3169e55f9c8bd3d314358a9e778" target="_top" xlink:title=" ">
<polygon fill="white" stroke="red" points="588.5,-266.5 588.5,-285.5 647.5,-285.5 647.5,-266.5 588.5,-266.5"/>
<text text-anchor="middle" x="618" y="-273.5" font-family="Helvetica,sans-Serif" font-size="10.00">resizebox</text>
</a>
</g>
</g>
<!-- Node465&#45;&gt;Node492 -->
<g id="edge35" class="edge"><title>Node465&#45;&gt;Node492</title>
<path fill="none" stroke="midnightblue" d="M378.286,-342.153C396.22,-311.665 449.87,-220.764 453,-219 485.91,-200.45 502.792,-205.305 538,-219 558.229,-226.869 556.404,-239.291 574,-252 578.592,-255.316 583.686,-258.523 588.717,-261.456"/>
<polygon fill="midnightblue" stroke="midnightblue" points="587.14,-264.584 597.578,-266.402 590.552,-258.472 587.14,-264.584"/>
</g>
<!-- Node491&#45;&gt;Node5 -->
<g id="edge34" class="edge"><title>Node491&#45;&gt;Node5</title>
<path fill="none" stroke="midnightblue" d="M516.669,-437.541C536.045,-446.706 565.543,-460.659 587.546,-471.068"/>
<polygon fill="midnightblue" stroke="midnightblue" points="586.229,-474.316 596.765,-475.428 589.222,-467.988 586.229,-474.316"/>
</g>
<!-- Node492&#45;&gt;Node449 -->
<g id="edge36" class="edge"><title>Node492&#45;&gt;Node449</title>
<path fill="none" stroke="midnightblue" d="M647.604,-276C664.559,-276 686.219,-276 704.411,-276"/>
<polygon fill="midnightblue" stroke="midnightblue" points="704.659,-279.5 714.659,-276 704.659,-272.5 704.659,-279.5"/>
</g>
<!-- Node496&#45;&gt;Node461 -->
<g id="edge38" class="edge"><title>Node496&#45;&gt;Node461</title>
<path fill="none" stroke="midnightblue" d="M262.442,-342.191C283.205,-325.822 325.108,-292.786 350.195,-273.008"/>
<polygon fill="midnightblue" stroke="midnightblue" points="352.619,-275.554 358.305,-266.614 348.285,-270.057 352.619,-275.554"/>
</g>
<!-- Node496&#45;&gt;Node465 -->
<g id="edge39" class="edge"><title>Node496&#45;&gt;Node465</title>
<path fill="none" stroke="midnightblue" d="M287.796,-352C300.323,-352 314.36,-352 327.263,-352"/>
<polygon fill="midnightblue" stroke="midnightblue" points="327.318,-355.5 337.317,-352 327.317,-348.5 327.318,-355.5"/>
</g>
<!-- Node497&#45;&gt;Node462 -->
<g id="edge42" class="edge"><title>Node497&#45;&gt;Node462</title>
<path fill="none" stroke="midnightblue" d="M394.493,-171.469C402.068,-167.602 410.32,-162.694 417,-157 437.025,-139.931 433.231,-127.365 453,-110 456.787,-106.674 461.105,-103.578 465.49,-100.79"/>
<polygon fill="midnightblue" stroke="midnightblue" points="467.596,-103.612 474.439,-95.5237 464.046,-97.579 467.596,-103.612"/>
</g>
<!-- Node156 -->
<g id="node32" class="node"><title>Node156</title>
<g id="a_node32"><a xlink:href="ltable_8c.html#a8b4fce00d7db27ee9caac3d49863dea3" target="_top" xlink:title=" ">
<polygon fill="white" stroke="black" points="590.5,-76.5 590.5,-95.5 645.5,-95.5 645.5,-76.5 590.5,-76.5"/>
<text text-anchor="middle" x="618" y="-83.5" font-family="Helvetica,sans-Serif" font-size="10.00">luaH_get</text>
</a>
</g>
</g>
<!-- Node497&#45;&gt;Node156 -->
<g id="edge43" class="edge"><title>Node497&#45;&gt;Node156</title>
<path fill="none" stroke="midnightblue" d="M391.437,-171.359C407.59,-163.305 431.539,-151.766 453,-143 496.117,-125.389 546.932,-108.272 580.443,-97.4679"/>
<polygon fill="midnightblue" stroke="midnightblue" points="581.804,-100.707 590.26,-94.3242 579.669,-94.0408 581.804,-100.707"/>
</g>
<!-- Node409 -->
<g id="node38" class="node"><title>Node409</title>
<g id="a_node38"><a xlink:href="lvm_8c.html#a45c30a70c51ed843f58bd446aa2096c9" target="_top" xlink:title=" ">
<polygon fill="white" stroke="black" points="457,-152.5 457,-171.5 534,-171.5 534,-152.5 457,-152.5"/>
<text text-anchor="middle" x="495.5" y="-159.5" font-family="Helvetica,sans-Serif" font-size="10.00">luaV_finishget</text>
</a>
</g>
</g>
<!-- Node497&#45;&gt;Node409 -->
<g id="edge49" class="edge"><title>Node497&#45;&gt;Node409</title>
<path fill="none" stroke="midnightblue" d="M406.16,-175.758C418.637,-173.815 433.038,-171.572 446.545,-169.468"/>
<polygon fill="midnightblue" stroke="midnightblue" points="447.31,-172.892 456.652,-167.894 446.232,-165.975 447.31,-172.892"/>
</g>
<!-- Node157 -->
<g id="node33" class="node"><title>Node157</title>
<g id="a_node33"><a xlink:href="ltable_8c.html#a9170d329b0dd746ca9b15db8c22a2127" target="_top" xlink:title=" ">
<polygon fill="white" stroke="red" points="711,-76.5 711,-95.5 773,-95.5 773,-76.5 711,-76.5"/>
<text text-anchor="middle" x="742" y="-83.5" font-family="Helvetica,sans-Serif" font-size="10.00">getgeneric</text>
</a>
</g>
</g>
<!-- Node156&#45;&gt;Node157 -->
<g id="edge44" class="edge"><title>Node156&#45;&gt;Node157</title>
<path fill="none" stroke="midnightblue" d="M645.773,-86C661.839,-86 682.588,-86 700.615,-86"/>
<polygon fill="midnightblue" stroke="midnightblue" points="700.859,-89.5001 710.859,-86 700.859,-82.5001 700.859,-89.5001"/>
</g>
<!-- Node165 -->
<g id="node35" class="node"><title>Node165</title>
<g id="a_node35"><a xlink:href="ltable_8c.html#ae142cefd44452389877c3e3187c7973e" target="_top" xlink:title=" ">
<polygon fill="white" stroke="red" points="709.5,-38.5 709.5,-57.5 774.5,-57.5 774.5,-38.5 709.5,-38.5"/>
<text text-anchor="middle" x="742" y="-45.5" font-family="Helvetica,sans-Serif" font-size="10.00">luaH_getint</text>
</a>
</g>
</g>
<!-- Node156&#45;&gt;Node165 -->
<g id="edge46" class="edge"><title>Node156&#45;&gt;Node165</title>
<path fill="none" stroke="midnightblue" d="M645.773,-77.6607C661.871,-72.6467 682.67,-66.1682 700.722,-60.5456"/>
<polygon fill="midnightblue" stroke="midnightblue" points="701.914,-63.8402 710.421,-57.5246 699.832,-57.1569 701.914,-63.8402"/>
</g>
<!-- Node69 -->
<g id="node36" class="node"><title>Node69</title>
<g id="a_node36"><a xlink:href="ltable_8c.html#ae8a52507e1c8966d9cf3f2dd5a0c325f" target="_top" xlink:title=" ">
<polygon fill="white" stroke="black" points="698,-114.5 698,-133.5 786,-133.5 786,-114.5 698,-114.5"/>
<text text-anchor="middle" x="742" y="-121.5" font-family="Helvetica,sans-Serif" font-size="10.00">luaH_getshortstr</text>
</a>
</g>
</g>
<!-- Node156&#45;&gt;Node69 -->
<g id="edge47" class="edge"><title>Node156&#45;&gt;Node69</title>
<path fill="none" stroke="midnightblue" d="M645.773,-94.3393C661.871,-99.3533 682.67,-105.832 700.722,-111.454"/>
<polygon fill="midnightblue" stroke="midnightblue" points="699.832,-114.843 710.421,-114.475 701.914,-108.16 699.832,-114.843"/>
</g>
<!-- Node127 -->
<g id="node37" class="node"><title>Node127</title>
<g id="a_node37"><a xlink:href="lvm_8c.html#a3a9a9378ccdbd0ea4cba6555673dccf9" target="_top" xlink:title=" ">
<polygon fill="white" stroke="black" points="699,-0.5 699,-19.5 785,-19.5 785,-0.5 699,-0.5"/>
<text text-anchor="middle" x="742" y="-7.5" font-family="Helvetica,sans-Serif" font-size="10.00">luaV_flttointeger</text>
</a>
</g>
</g>
<!-- Node156&#45;&gt;Node127 -->
<g id="edge48" class="edge"><title>Node156&#45;&gt;Node127</title>
<path fill="none" stroke="midnightblue" d="M630.523,-76.4991C645.463,-64.4668 672.617,-43.5519 698,-29 701.067,-27.2419 704.327,-25.5348 707.627,-23.9118"/>
<polygon fill="midnightblue" stroke="midnightblue" points="709.32,-26.9843 716.905,-19.5879 706.363,-20.6394 709.32,-26.9843"/>
</g>
<!-- Node158 -->
<g id="node34" class="node"><title>Node158</title>
<g id="a_node34"><a xlink:href="ltable_8c.html#af84f7eafe0a1b410624263c29224fec9" target="_top" xlink:title=" ">
<polygon fill="white" stroke="red" points="834,-76.5 834,-95.5 890,-95.5 890,-76.5 834,-76.5"/>
<text text-anchor="middle" x="862" y="-83.5" font-family="Helvetica,sans-Serif" font-size="10.00">equalkey</text>
</a>
</g>
</g>
<!-- Node157&#45;&gt;Node158 -->
<g id="edge45" class="edge"><title>Node157&#45;&gt;Node158</title>
<path fill="none" stroke="midnightblue" d="M773.082,-86C788.429,-86 807.245,-86 823.526,-86"/>
<polygon fill="midnightblue" stroke="midnightblue" points="823.798,-89.5001 833.798,-86 823.798,-82.5001 823.798,-89.5001"/>
</g>
<!-- Node409&#45;&gt;Node75 -->
<g id="edge50" class="edge"><title>Node409&#45;&gt;Node75</title>
<path fill="none" stroke="midnightblue" d="M534.318,-171.374C546.931,-174.473 561.063,-177.916 574,-181 719.56,-215.705 756.414,-222.403 902,-257 912.068,-259.393 922.858,-261.996 933.103,-264.486"/>
<polygon fill="midnightblue" stroke="midnightblue" points="932.576,-267.96 943.12,-266.926 934.233,-261.159 932.576,-267.96"/>
</g>
<!-- Node409&#45;&gt;Node156 -->
<g id="edge53" class="edge"><title>Node409&#45;&gt;Node156</title>
<path fill="none" stroke="midnightblue" d="M515.221,-152.313C522.55,-148.232 530.888,-143.22 538,-138 555.498,-125.158 555.833,-116.877 574,-105 576.733,-103.214 579.661,-101.522 582.657,-99.9381"/>
<polygon fill="midnightblue" stroke="midnightblue" points="584.262,-103.05 591.722,-95.5272 581.199,-96.7554 584.262,-103.05"/>
</g>
<!-- Node95 -->
<g id="node39" class="node"><title>Node95</title>
<g id="a_node39"><a xlink:href="ldebug_8c.html#a60bf9ce85441bd5065f2b73640163711" target="_top" xlink:title=" ">
<polygon fill="white" stroke="red" points="822,-266.5 822,-285.5 902,-285.5 902,-266.5 822,-266.5"/>
<text text-anchor="middle" x="862" y="-273.5" font-family="Helvetica,sans-Serif" font-size="10.00">luaG_typeerror</text>
</a>
</g>
</g>
<!-- Node409&#45;&gt;Node95 -->
<g id="edge51" class="edge"><title>Node409&#45;&gt;Node95</title>
<path fill="none" stroke="midnightblue" d="M507.75,-171.653C522.138,-183.479 548.283,-203.262 574,-214 662.717,-251.044 692.264,-235.633 786,-257 795.428,-259.149 805.485,-261.592 815.071,-263.994"/>
<polygon fill="midnightblue" stroke="midnightblue" points="814.291,-267.407 824.845,-266.467 816.009,-260.621 814.291,-267.407"/>
</g>
<!-- Node92 -->
<g id="node40" class="node"><title>Node92</title>
<g id="a_node40"><a xlink:href="ltm_8c.html#aad98f3a425ba53e65e7a8f8037320402" target="_top" xlink:title=" ">
<polygon fill="white" stroke="red" points="577,-152.5 577,-171.5 659,-171.5 659,-152.5 577,-152.5"/>
<text text-anchor="middle" x="618" y="-159.5" font-family="Helvetica,sans-Serif" font-size="10.00">luaT_callTMres</text>
</a>
</g>
</g>
<!-- Node409&#45;&gt;Node92 -->
<g id="edge54" class="edge"><title>Node409&#45;&gt;Node92</title>
<path fill="none" stroke="midnightblue" d="M534.296,-162C544.548,-162 555.812,-162 566.638,-162"/>
<polygon fill="midnightblue" stroke="midnightblue" points="566.836,-165.5 576.836,-162 566.836,-158.5 566.836,-165.5"/>
</g>
<!-- Node68 -->
<g id="node41" class="node"><title>Node68</title>
<g id="a_node41"><a xlink:href="ltm_8c.html#a0a3a3df9d6e7f17d806f74d411e59b2d" target="_top" xlink:title=" ">
<polygon fill="white" stroke="black" points="574,-114.5 574,-133.5 662,-133.5 662,-114.5 574,-114.5"/>
<text text-anchor="middle" x="618" y="-121.5" font-family="Helvetica,sans-Serif" font-size="10.00">luaT_gettmbyobj</text>
</a>
</g>
</g>
<!-- Node409&#45;&gt;Node68 -->
<g id="edge55" class="edge"><title>Node409&#45;&gt;Node68</title>
<path fill="none" stroke="midnightblue" d="M526.907,-152.411C542.035,-147.641 560.52,-141.811 576.8,-136.677"/>
<polygon fill="midnightblue" stroke="midnightblue" points="578.118,-139.931 586.602,-133.586 576.013,-133.256 578.118,-139.931"/>
</g>
<!-- Node95&#45;&gt;Node75 -->
<g id="edge52" class="edge"><title>Node95&#45;&gt;Node75</title>
<path fill="none" stroke="midnightblue" d="M902.285,-276C912.243,-276 923.036,-276 933.321,-276"/>
<polygon fill="midnightblue" stroke="midnightblue" points="933.387,-279.5 943.387,-276 933.387,-272.5 933.387,-279.5"/>
</g>
<!-- Node68&#45;&gt;Node69 -->
<g id="edge56" class="edge"><title>Node68&#45;&gt;Node69</title>
<path fill="none" stroke="midnightblue" d="M662.013,-124C670.395,-124 679.275,-124 687.938,-124"/>
<polygon fill="midnightblue" stroke="midnightblue" points="687.965,-127.5 697.965,-124 687.965,-120.5 687.965,-127.5"/>
</g>
<!-- Node498&#45;&gt;Node462 -->
<g id="edge58" class="edge"><title>Node498&#45;&gt;Node462</title>
<path fill="none" stroke="midnightblue" d="M282.191,-147.667C316.185,-142.624 371.104,-133.138 417,-119 433.579,-113.893 451.434,-106.433 465.823,-99.8976"/>
<polygon fill="midnightblue" stroke="midnightblue" points="467.573,-102.944 475.172,-95.5609 464.628,-96.5938 467.573,-102.944"/>
</g>
<!-- Node481&#45;&gt;Node462 -->
<g id="edge60" class="edge"><title>Node481&#45;&gt;Node462</title>
<path fill="none" stroke="midnightblue" d="M172.008,-111.979C239.326,-106.556 380.249,-95.2035 451.416,-89.4707"/>
<polygon fill="midnightblue" stroke="midnightblue" points="452.118,-92.9255 461.805,-88.6338 451.556,-85.9481 452.118,-92.9255"/>
</g>
<!-- Node499&#45;&gt;Node462 -->
<g id="edge62" class="edge"><title>Node499&#45;&gt;Node462</title>
<path fill="none" stroke="midnightblue" d="M172.008,-73.4586C239.326,-76.0766 380.249,-81.5569 451.416,-84.3245"/>
<polygon fill="midnightblue" stroke="midnightblue" points="451.676,-87.8372 461.805,-84.7285 451.948,-80.8425 451.676,-87.8372"/>
</g>
<!-- Node488 -->
<g id="node46" class="node"><title>Node488</title>
<g id="a_node46"><a xlink:href="lauxlib_8c.html#a7c46517055e0e8cb25e61b959709083a" target="_top" xlink:title=" ">
<polygon fill="white" stroke="black" points="326.5,-532.5 326.5,-551.5 416.5,-551.5 416.5,-532.5 326.5,-532.5"/>
<text text-anchor="middle" x="371.5" y="-539.5" font-family="Helvetica,sans-Serif" font-size="10.00">luaL_checkstack</text>
</a>
</g>
</g>
<!-- Node500&#45;&gt;Node488 -->
<g id="edge67" class="edge"><title>Node500&#45;&gt;Node488</title>
<path fill="none" stroke="midnightblue" d="M289.123,-542C297.711,-542 306.955,-542 316.022,-542"/>
<polygon fill="midnightblue" stroke="midnightblue" points="316.141,-545.5 326.141,-542 316.141,-538.5 316.141,-545.5"/>
</g>
<!-- Node500&#45;&gt;Node501 -->
<g id="edge70" class="edge"><title>Node500&#45;&gt;Node501</title>
<path fill="none" stroke="midnightblue" d="M263.172,-551.641C278.11,-562.425 303.338,-580.189 326,-594 331.282,-597.219 337.028,-600.484 342.582,-603.527"/>
<polygon fill="midnightblue" stroke="midnightblue" points="341.167,-606.74 351.633,-608.388 344.48,-600.573 341.167,-606.74"/>
</g>
<!-- Node488&#45;&gt;Node5 -->
<g id="edge69" class="edge"><title>Node488&#45;&gt;Node5</title>
<path fill="none" stroke="midnightblue" d="M416.677,-538.638C450.377,-535.346 497.705,-529.145 538,-518 555.393,-513.189 574.056,-505.52 588.873,-498.784"/>
<polygon fill="midnightblue" stroke="midnightblue" points="590.415,-501.927 598.003,-494.533 587.46,-495.582 590.415,-501.927"/>
</g>
<!-- Node489 -->
<g id="node47" class="node"><title>Node489</title>
<g id="a_node47"><a xlink:href="lapi_8c.html#a1d762b92d5d82d6fa9f54ccf5c89d6a2" target="_top" xlink:title=" ">
<polygon fill="white" stroke="red" points="453,-570.5 453,-589.5 538,-589.5 538,-570.5 453,-570.5"/>
<text text-anchor="middle" x="495.5" y="-577.5" font-family="Helvetica,sans-Serif" font-size="10.00">lua_checkstack</text>
</a>
</g>
</g>
<!-- Node488&#45;&gt;Node489 -->
<g id="edge68" class="edge"><title>Node488&#45;&gt;Node489</title>
<path fill="none" stroke="midnightblue" d="M403.286,-551.589C418.601,-556.359 437.317,-562.189 453.8,-567.323"/>
<polygon fill="midnightblue" stroke="midnightblue" points="453.136,-570.782 463.724,-570.414 455.217,-564.099 453.136,-570.782"/>
</g>
<!-- Node501&#45;&gt;Node3 -->
<g id="edge71" class="edge"><title>Node501&#45;&gt;Node3</title>
<path fill="none" stroke="midnightblue" d="M417.236,-618C425.838,-618 434.906,-618 443.685,-618"/>
<polygon fill="midnightblue" stroke="midnightblue" points="443.812,-621.5 453.812,-618 443.812,-614.5 443.812,-621.5"/>
</g>
<!-- Node502 -->
<g id="node49" class="node"><title>Node502</title>
<g id="a_node49"><a xlink:href="lapi_8c.html#a2c325311534c23450cdf11931a8db0ae" target="_top" xlink:title=" ">
<polygon fill="white" stroke="black" points="701,-570.5 701,-589.5 783,-589.5 783,-570.5 701,-570.5"/>
<text text-anchor="middle" x="742" y="-577.5" font-family="Helvetica,sans-Serif" font-size="10.00">lua_pushlstring</text>
</a>
</g>
</g>
<!-- Node501&#45;&gt;Node502 -->
<g id="edge72" class="edge"><title>Node501&#45;&gt;Node502</title>
<path fill="none" stroke="midnightblue" d="M404.288,-627.59C458.607,-642.346 572.133,-666.036 662,-637 686.442,-629.103 709.688,-610.514 724.554,-596.699"/>
<polygon fill="midnightblue" stroke="midnightblue" points="727.134,-599.073 731.905,-589.614 722.277,-594.033 727.134,-599.073"/>
</g>
<!-- Node502&#45;&gt;Node7 -->
<g id="edge75" class="edge"><title>Node502&#45;&gt;Node7</title>
<path fill="none" stroke="midnightblue" d="M783.243,-580.762C816.236,-580.093 863.585,-576.121 902,-561 925.439,-551.774 948.222,-533.755 963.052,-520.435"/>
<polygon fill="midnightblue" stroke="midnightblue" points="965.468,-522.968 970.426,-513.605 960.711,-517.833 965.468,-522.968"/>
</g>
<!-- Node97 -->
<g id="node50" class="node"><title>Node97</title>
<g id="a_node50"><a xlink:href="lstring_8c.html#a6d47e53be6b8e58202bb927752f4824b" target="_top" xlink:title=" ">
<polygon fill="white" stroke="black" points="832.5,-532.5 832.5,-551.5 891.5,-551.5 891.5,-532.5 832.5,-532.5"/>
<text text-anchor="middle" x="862" y="-539.5" font-family="Helvetica,sans-Serif" font-size="10.00">luaS_new</text>
</a>
</g>
</g>
<!-- Node502&#45;&gt;Node97 -->
<g id="edge73" class="edge"><title>Node502&#45;&gt;Node97</title>
<path fill="none" stroke="midnightblue" d="M772.776,-570.411C787.929,-565.531 806.522,-559.544 822.726,-554.326"/>
<polygon fill="midnightblue" stroke="midnightblue" points="824.009,-557.59 832.454,-551.193 821.863,-550.927 824.009,-557.59"/>
</g>
<!-- Node97&#45;&gt;Node7 -->
<g id="edge74" class="edge"><title>Node97&#45;&gt;Node7</title>
<path fill="none" stroke="midnightblue" d="M891.621,-532.704C906.412,-527.9 924.685,-521.965 940.77,-516.741"/>
<polygon fill="midnightblue" stroke="midnightblue" points="942.023,-520.015 950.452,-513.597 939.86,-513.357 942.023,-520.015"/>
</g>
</g>
</svg>
