<?xml version="1.0" encoding="UTF-8" standalone="no"?>
<!DOCTYPE svg PUBLIC "-//W3C//DTD SVG 1.1//EN"
 "http://www.w3.org/Graphics/SVG/1.1/DTD/svg11.dtd">
<!-- Generated by graphviz version 2.38.0 (20140413.2041)
 -->
<!-- Title: str_byte Pages: 1 -->
<svg width="2117pt" height="480pt"
 viewBox="0.00 0.00 2117.00 480.00" xmlns="http://www.w3.org/2000/svg" xmlns:xlink="http://www.w3.org/1999/xlink">
<g id="graph0" class="graph" transform="scale(1 1) rotate(0) translate(4 476)">
<title>str_byte</title>
<polygon fill="white" stroke="none" points="-4,4 -4,-476 2113,-476 2113,4 -4,4"/>
<!-- Node1 -->
<g id="node1" class="node"><title>Node1</title>
<g id="a_node1"><a xlink:title=" ">
<polygon fill="#bfbfbf" stroke="black" points="0,-205.5 0,-224.5 52,-224.5 52,-205.5 0,-205.5"/>
<text text-anchor="middle" x="26" y="-212.5" font-family="Helvetica,sans-Serif" font-size="10.00">str_byte</text>
</a>
</g>
</g>
<!-- Node2 -->
<g id="node2" class="node"><title>Node2</title>
<g id="a_node2"><a xlink:href="lstrlib_8c.html#a9ed9b9b49334e68a83251eeff8427a5a" target="_top" xlink:title=" ">
<polygon fill="white" stroke="black" points="99.5,-281.5 99.5,-300.5 161.5,-300.5 161.5,-281.5 99.5,-281.5"/>
<text text-anchor="middle" x="130.5" y="-288.5" font-family="Helvetica,sans-Serif" font-size="10.00">getendpos</text>
</a>
</g>
</g>
<!-- Node1&#45;&gt;Node2 -->
<g id="edge1" class="edge"><title>Node1&#45;&gt;Node2</title>
<path fill="none" stroke="midnightblue" d="M37.3216,-224.819C49.0859,-235.763 69.1337,-253.67 88,-267 92.5882,-270.242 97.6421,-273.443 102.597,-276.399"/>
<polygon fill="midnightblue" stroke="midnightblue" points="100.876,-279.447 111.287,-281.411 104.374,-273.383 100.876,-279.447"/>
</g>
<!-- Node3 -->
<g id="node3" class="node"><title>Node3</title>
<g id="a_node3"><a xlink:href="lauxlib_8c.html#ab10ff110a5ba19b4385947de7834ee3c" target="_top" xlink:title=" ">
<polygon fill="white" stroke="black" points="209,-300.5 209,-319.5 292,-319.5 292,-300.5 209,-300.5"/>
<text text-anchor="middle" x="250.5" y="-307.5" font-family="Helvetica,sans-Serif" font-size="10.00">luaL_optinteger</text>
</a>
</g>
</g>
<!-- Node1&#45;&gt;Node3 -->
<g id="edge74" class="edge"><title>Node1&#45;&gt;Node3</title>
<path fill="none" stroke="midnightblue" d="M29.73,-224.554C36.0769,-244.74 53.942,-291.394 88,-310 122.898,-329.065 168.698,-327.005 202.608,-321.376"/>
<polygon fill="midnightblue" stroke="midnightblue" points="203.514,-324.769 212.725,-319.534 202.26,-317.882 203.514,-324.769"/>
</g>
<!-- Node459 -->
<g id="node11" class="node"><title>Node459</title>
<g id="a_node11"><a xlink:href="lauxlib_8c.html#a6c51d83d29244779392551388913e08a" target="_top" xlink:title=" ">
<polygon fill="white" stroke="black" points="955,-205.5 955,-224.5 1014,-224.5 1014,-205.5 955,-205.5"/>
<text text-anchor="middle" x="984.5" y="-212.5" font-family="Helvetica,sans-Serif" font-size="10.00">luaL_error</text>
</a>
</g>
</g>
<!-- Node1&#45;&gt;Node459 -->
<g id="edge73" class="edge"><title>Node1&#45;&gt;Node459</title>
<path fill="none" stroke="midnightblue" d="M52.026,-215C93.2077,-215 177.844,-215 249.5,-215 249.5,-215 249.5,-215 740,-215 812.119,-215 896.253,-215 944.361,-215"/>
<polygon fill="midnightblue" stroke="midnightblue" points="944.638,-218.5 954.638,-215 944.638,-211.5 944.638,-218.5"/>
</g>
<!-- Node488 -->
<g id="node42" class="node"><title>Node488</title>
<g id="a_node42"><a xlink:href="lapi_8c.html#adcec46ff05dfee9a3c4c05828b40c213" target="_top" xlink:title=" ">
<polygon fill="white" stroke="black" points="88,-129.5 88,-148.5 173,-148.5 173,-129.5 88,-129.5"/>
<text text-anchor="middle" x="130.5" y="-136.5" font-family="Helvetica,sans-Serif" font-size="10.00">lua_pushinteger</text>
</a>
</g>
</g>
<!-- Node1&#45;&gt;Node488 -->
<g id="edge58" class="edge"><title>Node1&#45;&gt;Node488</title>
<path fill="none" stroke="midnightblue" d="M37.3216,-205.181C49.0859,-194.237 69.1337,-176.33 88,-163 92.5882,-159.758 97.6421,-156.557 102.597,-153.601"/>
<polygon fill="midnightblue" stroke="midnightblue" points="104.374,-156.617 111.287,-148.589 100.876,-150.553 104.374,-156.617"/>
</g>
<!-- Node489 -->
<g id="node43" class="node"><title>Node489</title>
<g id="a_node43"><a xlink:href="lauxlib_8c.html#a79405166c5a94624ebe0427e6b0c07e0" target="_top" xlink:title=" ">
<polygon fill="white" stroke="black" points="459,-243.5 459,-262.5 551,-262.5 551,-243.5 459,-243.5"/>
<text text-anchor="middle" x="505" y="-250.5" font-family="Helvetica,sans-Serif" font-size="10.00">luaL_checklstring</text>
</a>
</g>
</g>
<!-- Node1&#45;&gt;Node489 -->
<g id="edge59" class="edge"><title>Node1&#45;&gt;Node489</title>
<path fill="none" stroke="midnightblue" d="M52.0487,-221.748C63.0059,-224.44 76.0599,-227.298 88,-229 216.171,-247.273 368.444,-251.727 448.481,-252.752"/>
<polygon fill="midnightblue" stroke="midnightblue" points="448.776,-256.256 458.816,-252.871 448.856,-249.256 448.776,-256.256"/>
</g>
<!-- Node492 -->
<g id="node46" class="node"><title>Node492</title>
<g id="a_node46"><a xlink:href="lauxlib_8c.html#a7c46517055e0e8cb25e61b959709083a" target="_top" xlink:title=" ">
<polygon fill="white" stroke="black" points="815,-167.5 815,-186.5 905,-186.5 905,-167.5 815,-167.5"/>
<text text-anchor="middle" x="860" y="-174.5" font-family="Helvetica,sans-Serif" font-size="10.00">luaL_checkstack</text>
</a>
</g>
</g>
<!-- Node1&#45;&gt;Node492 -->
<g id="edge66" class="edge"><title>Node1&#45;&gt;Node492</title>
<path fill="none" stroke="midnightblue" d="M52.1211,-207.852C93.09,-196.845 177.003,-177 249.5,-177 249.5,-177 249.5,-177 626.5,-177 687.48,-177 757.458,-177 804.576,-177"/>
<polygon fill="midnightblue" stroke="midnightblue" points="804.861,-180.5 814.861,-177 804.861,-173.5 804.861,-180.5"/>
</g>
<!-- Node495 -->
<g id="node50" class="node"><title>Node495</title>
<g id="a_node50"><a xlink:href="lstrlib_8c.html#a5d66236d294a1cd3e310292e43d5c3c6" target="_top" xlink:title=" ">
<polygon fill="white" stroke="black" points="104,-91.5 104,-110.5 157,-110.5 157,-91.5 104,-91.5"/>
<text text-anchor="middle" x="130.5" y="-98.5" font-family="Helvetica,sans-Serif" font-size="10.00">posrelatI</text>
</a>
</g>
</g>
<!-- Node1&#45;&gt;Node495 -->
<g id="edge75" class="edge"><title>Node1&#45;&gt;Node495</title>
<path fill="none" stroke="midnightblue" d="M30.947,-205.367C39.0575,-186.627 59.2795,-144.92 88,-120 90.1883,-118.101 92.5981,-116.357 95.1214,-114.763"/>
<polygon fill="midnightblue" stroke="midnightblue" points="96.8931,-117.783 103.981,-109.908 93.5294,-111.644 96.8931,-117.783"/>
</g>
<!-- Node2&#45;&gt;Node3 -->
<g id="edge2" class="edge"><title>Node2&#45;&gt;Node3</title>
<path fill="none" stroke="midnightblue" d="M161.582,-295.844C172.896,-297.665 186.096,-299.791 198.775,-301.832"/>
<polygon fill="midnightblue" stroke="midnightblue" points="198.357,-305.31 208.787,-303.444 199.47,-298.399 198.357,-305.31"/>
</g>
<!-- Node4 -->
<g id="node4" class="node"><title>Node4</title>
<g id="a_node4"><a xlink:href="lauxlib_8c.html#aa15bea412c49bfdee1f3dbff096ce7d2" target="_top" xlink:title=" ">
<polygon fill="white" stroke="black" points="328,-300.5 328,-319.5 423,-319.5 423,-300.5 328,-300.5"/>
<text text-anchor="middle" x="375.5" y="-307.5" font-family="Helvetica,sans-Serif" font-size="10.00">luaL_checkinteger</text>
</a>
</g>
</g>
<!-- Node3&#45;&gt;Node4 -->
<g id="edge3" class="edge"><title>Node3&#45;&gt;Node4</title>
<path fill="none" stroke="midnightblue" d="M292.116,-310C300.364,-310 309.181,-310 317.868,-310"/>
<polygon fill="midnightblue" stroke="midnightblue" points="317.963,-313.5 327.963,-310 317.963,-306.5 317.963,-313.5"/>
</g>
<!-- Node5 -->
<g id="node5" class="node"><title>Node5</title>
<g id="a_node5"><a xlink:href="lauxlib_8c.html#ac900510f548ea0ea6d53358d2aedd100" target="_top" xlink:title=" ">
<polygon fill="white" stroke="red" points="481.5,-319.5 481.5,-338.5 528.5,-338.5 528.5,-319.5 481.5,-319.5"/>
<text text-anchor="middle" x="505" y="-326.5" font-family="Helvetica,sans-Serif" font-size="10.00">interror</text>
</a>
</g>
</g>
<!-- Node4&#45;&gt;Node5 -->
<g id="edge4" class="edge"><title>Node4&#45;&gt;Node5</title>
<path fill="none" stroke="midnightblue" d="M423.252,-316.967C439.151,-319.336 456.572,-321.932 471.149,-324.105"/>
<polygon fill="midnightblue" stroke="midnightblue" points="470.792,-327.59 481.199,-325.602 471.824,-320.666 470.792,-327.59"/>
</g>
<!-- Node487 -->
<g id="node41" class="node"><title>Node487</title>
<g id="a_node41"><a xlink:href="lapi_8c.html#af81c9a68425546e1f8c6354728c95170" target="_top" xlink:title=" ">
<polygon fill="white" stroke="black" points="587,-281.5 587,-300.5 664,-300.5 664,-281.5 587,-281.5"/>
<text text-anchor="middle" x="625.5" y="-288.5" font-family="Helvetica,sans-Serif" font-size="10.00">lua_tointegerx</text>
</a>
</g>
</g>
<!-- Node4&#45;&gt;Node487 -->
<g id="edge56" class="edge"><title>Node4&#45;&gt;Node487</title>
<path fill="none" stroke="midnightblue" d="M423.147,-306.426C467.052,-303.063 532.5,-298.048 576.759,-294.658"/>
<polygon fill="midnightblue" stroke="midnightblue" points="577.27,-298.129 586.973,-293.875 576.735,-291.149 577.27,-298.129"/>
</g>
<!-- Node8 -->
<g id="node6" class="node"><title>Node8</title>
<g id="a_node6"><a xlink:href="lauxlib_8c.html#ac607576dd107a3120cd51948989f1ed2" target="_top" xlink:title=" ">
<polygon fill="white" stroke="red" points="823.5,-433.5 823.5,-452.5 896.5,-452.5 896.5,-433.5 823.5,-433.5"/>
<text text-anchor="middle" x="860" y="-440.5" font-family="Helvetica,sans-Serif" font-size="10.00">luaL_argerror</text>
</a>
</g>
</g>
<!-- Node5&#45;&gt;Node8 -->
<g id="edge5" class="edge"><title>Node5&#45;&gt;Node8</title>
<path fill="none" stroke="midnightblue" d="M528.619,-336.305C587.406,-355.29 745.578,-406.371 819.684,-430.303"/>
<polygon fill="midnightblue" stroke="midnightblue" points="818.971,-433.751 829.563,-433.493 821.123,-427.09 818.971,-433.751"/>
</g>
<!-- Node480 -->
<g id="node35" class="node"><title>Node480</title>
<g id="a_node35"><a xlink:href="lauxlib_8c.html#ab8e946260debec8d4bbc714b76a1613b" target="_top" xlink:title=" ">
<polygon fill="white" stroke="black" points="598,-319.5 598,-338.5 653,-338.5 653,-319.5 598,-319.5"/>
<text text-anchor="middle" x="625.5" y="-326.5" font-family="Helvetica,sans-Serif" font-size="10.00">tag_error</text>
</a>
</g>
</g>
<!-- Node5&#45;&gt;Node480 -->
<g id="edge48" class="edge"><title>Node5&#45;&gt;Node480</title>
<path fill="none" stroke="midnightblue" d="M528.568,-329C545.303,-329 568.474,-329 587.852,-329"/>
<polygon fill="midnightblue" stroke="midnightblue" points="587.873,-332.5 597.873,-329 587.873,-325.5 587.873,-332.5"/>
</g>
<!-- Node9 -->
<g id="node7" class="node"><title>Node9</title>
<g id="a_node7"><a xlink:href="ldebug_8c.html#acaafc35d8e385c4d167229486165df6d" target="_top" xlink:title=" ">
<polygon fill="white" stroke="black" points="1194.5,-405.5 1194.5,-424.5 1257.5,-424.5 1257.5,-405.5 1194.5,-405.5"/>
<text text-anchor="middle" x="1226" y="-412.5" font-family="Helvetica,sans-Serif" font-size="10.00">lua_getinfo</text>
</a>
</g>
</g>
<!-- Node8&#45;&gt;Node9 -->
<g id="edge6" class="edge"><title>Node8&#45;&gt;Node9</title>
<path fill="none" stroke="midnightblue" d="M896.517,-441.252C950.934,-438.44 1058.19,-432.367 1149,-424 1160.45,-422.945 1172.84,-421.576 1184.22,-420.224"/>
<polygon fill="midnightblue" stroke="midnightblue" points="1184.84,-423.676 1194.35,-418.998 1184,-416.726 1184.84,-423.676"/>
</g>
<!-- Node458 -->
<g id="node10" class="node"><title>Node458</title>
<g id="a_node10"><a xlink:href="ldebug_8c.html#ac1fc03c27ee46caa4037df2d70f22110" target="_top" xlink:title=" ">
<polygon fill="white" stroke="black" points="1190,-452.5 1190,-471.5 1262,-471.5 1262,-452.5 1190,-452.5"/>
<text text-anchor="middle" x="1226" y="-459.5" font-family="Helvetica,sans-Serif" font-size="10.00">lua_getstack</text>
</a>
</g>
</g>
<!-- Node8&#45;&gt;Node458 -->
<g id="edge9" class="edge"><title>Node8&#45;&gt;Node458</title>
<path fill="none" stroke="midnightblue" d="M896.728,-450.392C910.775,-452.978 927.082,-455.587 942,-457 1025.42,-464.898 1123.26,-464.493 1179.31,-463.342"/>
<polygon fill="midnightblue" stroke="midnightblue" points="1179.69,-466.835 1189.61,-463.112 1179.53,-459.836 1179.69,-466.835"/>
</g>
<!-- Node8&#45;&gt;Node459 -->
<g id="edge10" class="edge"><title>Node8&#45;&gt;Node459</title>
<path fill="none" stroke="midnightblue" d="M893.719,-433.258C898.283,-430.805 902.574,-427.762 906,-424 941.771,-384.712 923.339,-359.748 942,-310 952.08,-283.127 965.706,-252.87 974.548,-233.873"/>
<polygon fill="midnightblue" stroke="midnightblue" points="977.834,-235.11 978.915,-224.571 971.497,-232.135 977.834,-235.11"/>
</g>
<!-- Node10 -->
<g id="node8" class="node"><title>Node10</title>
<g id="a_node8"><a xlink:href="ldebug_8c.html#ad72fa774194e83872bac4e5bf6ec1160" target="_top" xlink:title=" ">
<polygon fill="white" stroke="red" points="1319.5,-404.5 1319.5,-423.5 1380.5,-423.5 1380.5,-404.5 1319.5,-404.5"/>
<text text-anchor="middle" x="1350" y="-411.5" font-family="Helvetica,sans-Serif" font-size="10.00">auxgetinfo</text>
</a>
</g>
</g>
<!-- Node9&#45;&gt;Node10 -->
<g id="edge7" class="edge"><title>Node9&#45;&gt;Node10</title>
<path fill="none" stroke="midnightblue" d="M1257.79,-414.748C1273.45,-414.619 1292.68,-414.462 1309.43,-414.324"/>
<polygon fill="midnightblue" stroke="midnightblue" points="1309.52,-417.824 1319.49,-414.242 1309.46,-410.824 1309.52,-417.824"/>
</g>
<!-- Node28 -->
<g id="node9" class="node"><title>Node28</title>
<g id="a_node9"><a xlink:href="ldebug_8c.html#a6e3195fc94af1f75142c2801ca8cf058" target="_top" xlink:title=" ">
<polygon fill="white" stroke="red" points="1308,-442.5 1308,-461.5 1392,-461.5 1392,-442.5 1308,-442.5"/>
<text text-anchor="middle" x="1350" y="-449.5" font-family="Helvetica,sans-Serif" font-size="10.00">collectvalidlines</text>
</a>
</g>
</g>
<!-- Node9&#45;&gt;Node28 -->
<g id="edge8" class="edge"><title>Node9&#45;&gt;Node28</title>
<path fill="none" stroke="midnightblue" d="M1257.79,-424.337C1272.87,-428.911 1291.25,-434.484 1307.54,-439.427"/>
<polygon fill="midnightblue" stroke="midnightblue" points="1306.79,-442.855 1317.37,-442.408 1308.82,-436.157 1306.79,-442.855"/>
</g>
<!-- Node460 -->
<g id="node12" class="node"><title>Node460</title>
<g id="a_node12"><a xlink:href="lapi_8c.html#a1de3afee1daece63d455f23818c883d9" target="_top" xlink:title=" ">
<polygon fill="white" stroke="black" points="1074,-205.5 1074,-224.5 1138,-224.5 1138,-205.5 1074,-205.5"/>
<text text-anchor="middle" x="1106" y="-212.5" font-family="Helvetica,sans-Serif" font-size="10.00">lua_concat</text>
</a>
</g>
</g>
<!-- Node459&#45;&gt;Node460 -->
<g id="edge11" class="edge"><title>Node459&#45;&gt;Node460</title>
<path fill="none" stroke="midnightblue" d="M1014.12,-215C1028.85,-215 1047.08,-215 1063.33,-215"/>
<polygon fill="midnightblue" stroke="midnightblue" points="1063.67,-218.5 1073.67,-215 1063.67,-211.5 1063.67,-218.5"/>
</g>
<!-- Node461 -->
<g id="node31" class="node"><title>Node461</title>
<g id="a_node31"><a xlink:href="lapi_8c.html#a6ba7b91143fe8a03910420d800de8e97" target="_top" xlink:title=" ">
<polygon fill="white" stroke="black" points="1594,-81.5 1594,-100.5 1648,-100.5 1648,-81.5 1594,-81.5"/>
<text text-anchor="middle" x="1621" y="-88.5" font-family="Helvetica,sans-Serif" font-size="10.00">lua_error</text>
</a>
</g>
</g>
<!-- Node459&#45;&gt;Node461 -->
<g id="edge39" class="edge"><title>Node459&#45;&gt;Node461</title>
<path fill="none" stroke="midnightblue" d="M993.482,-205.289C1021.5,-172.363 1119.42,-67 1225,-67 1225,-67 1225,-67 1351,-67 1434.56,-67 1532.15,-78.6319 1583.74,-85.7"/>
<polygon fill="midnightblue" stroke="midnightblue" points="1583.34,-89.178 1593.72,-87.0906 1584.3,-82.2449 1583.34,-89.178"/>
</g>
<!-- Node462 -->
<g id="node32" class="node"><title>Node462</title>
<g id="a_node32"><a xlink:href="lapi_8c.html#a426c9cb1d582be3e43060c4772854e5a" target="_top" xlink:title=" ">
<polygon fill="white" stroke="black" points="1063,-243.5 1063,-262.5 1149,-262.5 1149,-243.5 1063,-243.5"/>
<text text-anchor="middle" x="1106" y="-250.5" font-family="Helvetica,sans-Serif" font-size="10.00">lua_pushvfstring</text>
</a>
</g>
</g>
<!-- Node459&#45;&gt;Node462 -->
<g id="edge41" class="edge"><title>Node459&#45;&gt;Node462</title>
<path fill="none" stroke="midnightblue" d="M1014.12,-224.102C1029.48,-228.984 1048.64,-235.076 1065.4,-240.407"/>
<polygon fill="midnightblue" stroke="midnightblue" points="1064.35,-243.747 1074.94,-243.442 1066.47,-237.076 1064.35,-243.747"/>
</g>
<!-- Node463 -->
<g id="node33" class="node"><title>Node463</title>
<g id="a_node33"><a xlink:href="lauxlib_8c.html#a0f4d3c30c07eae36aa25605df84279a0" target="_top" xlink:title=" ">
<polygon fill="white" stroke="black" points="1073.5,-395.5 1073.5,-414.5 1138.5,-414.5 1138.5,-395.5 1073.5,-395.5"/>
<text text-anchor="middle" x="1106" y="-402.5" font-family="Helvetica,sans-Serif" font-size="10.00">luaL_where</text>
</a>
</g>
</g>
<!-- Node459&#45;&gt;Node463 -->
<g id="edge43" class="edge"><title>Node459&#45;&gt;Node463</title>
<path fill="none" stroke="midnightblue" d="M991.59,-224.683C1010.44,-254.66 1068.09,-346.307 1093.15,-386.161"/>
<polygon fill="midnightblue" stroke="midnightblue" points="1090.49,-388.507 1098.78,-395.108 1096.42,-384.78 1090.49,-388.507"/>
</g>
<!-- Node40 -->
<g id="node13" class="node"><title>Node40</title>
<g id="a_node13"><a xlink:href="lstring_8c.html#ab41fb084ce3ea5e2779f6659ccc2484d" target="_top" xlink:title=" ">
<polygon fill="white" stroke="black" points="1314,-247.5 1314,-266.5 1386,-266.5 1386,-247.5 1314,-247.5"/>
<text text-anchor="middle" x="1350" y="-254.5" font-family="Helvetica,sans-Serif" font-size="10.00">luaS_newlstr</text>
</a>
</g>
</g>
<!-- Node460&#45;&gt;Node40 -->
<g id="edge12" class="edge"><title>Node460&#45;&gt;Node40</title>
<path fill="none" stroke="midnightblue" d="M1138.34,-223.39C1152.52,-226.99 1169.53,-231.039 1185,-234 1224.88,-241.633 1270.66,-247.844 1303.71,-251.879"/>
<polygon fill="midnightblue" stroke="midnightblue" points="1303.62,-255.393 1313.96,-253.111 1304.45,-248.443 1303.62,-255.393"/>
</g>
<!-- Node408 -->
<g id="node28" class="node"><title>Node408</title>
<g id="a_node28"><a xlink:href="lvm_8c.html#a2f076040af405dcb50d661edd692eca7" target="_top" xlink:title=" ">
<polygon fill="white" stroke="black" points="1190.5,-205.5 1190.5,-224.5 1261.5,-224.5 1261.5,-205.5 1190.5,-205.5"/>
<text text-anchor="middle" x="1226" y="-212.5" font-family="Helvetica,sans-Serif" font-size="10.00">luaV_concat</text>
</a>
</g>
</g>
<!-- Node460&#45;&gt;Node408 -->
<g id="edge33" class="edge"><title>Node460&#45;&gt;Node408</title>
<path fill="none" stroke="midnightblue" d="M1138,-215C1150.97,-215 1166.29,-215 1180.43,-215"/>
<polygon fill="midnightblue" stroke="midnightblue" points="1180.46,-218.5 1190.46,-215 1180.46,-211.5 1180.46,-218.5"/>
</g>
<!-- Node41 -->
<g id="node14" class="node"><title>Node41</title>
<g id="a_node14"><a xlink:href="lstring_8c.html#a9b2c32c59a280de24f20df1c7f0433a1" target="_top" xlink:title=" ">
<polygon fill="white" stroke="red" points="1453,-209.5 1453,-228.5 1518,-228.5 1518,-209.5 1453,-209.5"/>
<text text-anchor="middle" x="1485.5" y="-216.5" font-family="Helvetica,sans-Serif" font-size="10.00">internshrstr</text>
</a>
</g>
</g>
<!-- Node40&#45;&gt;Node41 -->
<g id="edge13" class="edge"><title>Node40&#45;&gt;Node41</title>
<path fill="none" stroke="midnightblue" d="M1384.69,-247.411C1402.37,-242.379 1424.18,-236.169 1442.91,-230.839"/>
<polygon fill="midnightblue" stroke="midnightblue" points="1444,-234.167 1452.66,-228.063 1442.09,-227.434 1444,-234.167"/>
</g>
<!-- Node453 -->
<g id="node15" class="node"><title>Node453</title>
<g id="a_node15"><a xlink:href="lmem_8c.html#a8fc7df43dd830ccbe7581fd53f65bdbe" target="_top" xlink:title=" ">
<polygon fill="white" stroke="black" points="1451,-247.5 1451,-266.5 1520,-266.5 1520,-247.5 1451,-247.5"/>
<text text-anchor="middle" x="1485.5" y="-254.5" font-family="Helvetica,sans-Serif" font-size="10.00">luaM_toobig</text>
</a>
</g>
</g>
<!-- Node40&#45;&gt;Node453 -->
<g id="edge14" class="edge"><title>Node40&#45;&gt;Node453</title>
<path fill="none" stroke="midnightblue" d="M1386.08,-257C1402.74,-257 1422.83,-257 1440.5,-257"/>
<polygon fill="midnightblue" stroke="midnightblue" points="1440.58,-260.5 1450.58,-257 1440.58,-253.5 1440.58,-260.5"/>
</g>
<!-- Node410 -->
<g id="node27" class="node"><title>Node410</title>
<g id="a_node27"><a xlink:href="lstring_8c.html#a8790c7d6e706f935dd6e9eefd068921c" target="_top" xlink:title=" ">
<polygon fill="white" stroke="red" points="1433,-114.5 1433,-133.5 1538,-133.5 1538,-114.5 1433,-114.5"/>
<text text-anchor="middle" x="1485.5" y="-121.5" font-family="Helvetica,sans-Serif" font-size="10.00">luaS_createlngstrobj</text>
</a>
</g>
</g>
<!-- Node40&#45;&gt;Node410 -->
<g id="edge32" class="edge"><title>Node40&#45;&gt;Node410</title>
<path fill="none" stroke="midnightblue" d="M1360.6,-247.435C1383.01,-225.113 1438.99,-169.336 1467.4,-141.039"/>
<polygon fill="midnightblue" stroke="midnightblue" points="1470.01,-143.375 1474.63,-133.837 1465.07,-138.415 1470.01,-143.375"/>
</g>
<!-- Node32 -->
<g id="node16" class="node"><title>Node32</title>
<g id="a_node16"><a xlink:href="ldebug_8c.html#a88d38ca5da2e7a1492fc9d5ad70c32c5" target="_top" xlink:title=" ">
<polygon fill="white" stroke="red" points="1583.5,-209.5 1583.5,-228.5 1658.5,-228.5 1658.5,-209.5 1583.5,-209.5"/>
<text text-anchor="middle" x="1621" y="-216.5" font-family="Helvetica,sans-Serif" font-size="10.00">luaG_runerror</text>
</a>
</g>
</g>
<!-- Node453&#45;&gt;Node32 -->
<g id="edge15" class="edge"><title>Node453&#45;&gt;Node32</title>
<path fill="none" stroke="midnightblue" d="M1520.19,-247.411C1537.26,-242.551 1558.2,-236.591 1576.48,-231.387"/>
<polygon fill="midnightblue" stroke="midnightblue" points="1577.66,-234.69 1586.32,-228.586 1575.75,-227.957 1577.66,-234.69"/>
</g>
<!-- Node456 -->
<g id="node17" class="node"><title>Node456</title>
<g id="a_node17"><a xlink:href="ldebug_8c.html#af7366920f8408bb33ed01b1d6c0e1238" target="_top" xlink:title=" ">
<polygon fill="white" stroke="black" points="1710.5,-90.5 1710.5,-109.5 1790.5,-109.5 1790.5,-90.5 1710.5,-90.5"/>
<text text-anchor="middle" x="1750.5" y="-97.5" font-family="Helvetica,sans-Serif" font-size="10.00">luaG_errormsg</text>
</a>
</g>
</g>
<!-- Node32&#45;&gt;Node456 -->
<g id="edge16" class="edge"><title>Node32&#45;&gt;Node456</title>
<path fill="none" stroke="midnightblue" d="M1632.43,-209.262C1654.21,-188.938 1704.7,-141.81 1731.71,-116.605"/>
<polygon fill="midnightblue" stroke="midnightblue" points="1734.36,-118.922 1739.28,-109.54 1729.58,-113.805 1734.36,-118.922"/>
</g>
<!-- Node35 -->
<g id="node20" class="node"><title>Node35</title>
<g id="a_node20"><a xlink:href="lobject_8c.html#aa83fa444a36d79521e846a766fa083d5" target="_top" xlink:title=" ">
<polygon fill="white" stroke="black" points="1704,-247.5 1704,-266.5 1797,-266.5 1797,-247.5 1704,-247.5"/>
<text text-anchor="middle" x="1750.5" y="-254.5" font-family="Helvetica,sans-Serif" font-size="10.00">luaO_pushvfstring</text>
</a>
</g>
</g>
<!-- Node32&#45;&gt;Node35 -->
<g id="edge20" class="edge"><title>Node32&#45;&gt;Node35</title>
<path fill="none" stroke="midnightblue" d="M1658.54,-223.719C1679.37,-228.985 1704.98,-236.825 1723.71,-243.765"/>
<polygon fill="midnightblue" stroke="midnightblue" points="1722.48,-247.044 1733.07,-247.4 1725.02,-240.519 1722.48,-247.044"/>
</g>
<!-- Node85 -->
<g id="node18" class="node"><title>Node85</title>
<g id="a_node18"><a xlink:href="ldo_8c.html#a61c0a0185ef5ae1493dad10027f4db7e" target="_top" xlink:title=" ">
<polygon fill="white" stroke="red" points="1833,-94.5 1833,-113.5 1920,-113.5 1920,-94.5 1833,-94.5"/>
<text text-anchor="middle" x="1876.5" y="-101.5" font-family="Helvetica,sans-Serif" font-size="10.00">luaD_callnoyield</text>
</a>
</g>
</g>
<!-- Node456&#45;&gt;Node85 -->
<g id="edge17" class="edge"><title>Node456&#45;&gt;Node85</title>
<path fill="none" stroke="midnightblue" d="M1790.73,-101.266C1800.84,-101.592 1811.89,-101.948 1822.57,-102.293"/>
<polygon fill="midnightblue" stroke="midnightblue" points="1822.54,-105.793 1832.65,-102.618 1822.77,-98.7971 1822.54,-105.793"/>
</g>
<!-- Node115 -->
<g id="node19" class="node"><title>Node115</title>
<g id="a_node19"><a xlink:href="ldo_8c.html#a2b46d9db5b9ca3d5402a0c2ac640a6b0" target="_top" xlink:title=" ">
<polygon fill="white" stroke="red" points="1844,-38.5 1844,-57.5 1909,-57.5 1909,-38.5 1844,-38.5"/>
<text text-anchor="middle" x="1876.5" y="-45.5" font-family="Helvetica,sans-Serif" font-size="10.00">luaD_throw</text>
</a>
</g>
</g>
<!-- Node456&#45;&gt;Node115 -->
<g id="edge18" class="edge"><title>Node456&#45;&gt;Node115</title>
<path fill="none" stroke="midnightblue" d="M1774.24,-90.4624C1793.52,-82.3769 1821.41,-70.683 1843.04,-61.6133"/>
<polygon fill="midnightblue" stroke="midnightblue" points="1844.61,-64.7482 1852.48,-57.6532 1841.91,-58.2929 1844.61,-64.7482"/>
</g>
<!-- Node115&#45;&gt;Node115 -->
<g id="edge19" class="edge"><title>Node115&#45;&gt;Node115</title>
<path fill="none" stroke="midnightblue" d="M1859.55,-57.7571C1851.3,-66.5653 1856.95,-76 1876.5,-76 1888.72,-76 1895.51,-72.3146 1896.87,-67.4"/>
<polygon fill="midnightblue" stroke="midnightblue" points="1900.09,-66.0149 1893.45,-57.7571 1893.49,-68.3518 1900.09,-66.0149"/>
</g>
<!-- Node35&#45;&gt;Node32 -->
<g id="edge30" class="edge"><title>Node35&#45;&gt;Node32</title>
<path fill="none" stroke="midnightblue" d="M1703.82,-249.888C1685.13,-244.841 1664.17,-238.287 1648.15,-232.368"/>
<polygon fill="midnightblue" stroke="midnightblue" points="1649,-228.942 1638.41,-228.592 1646.47,-235.469 1649,-228.942"/>
</g>
<!-- Node36 -->
<g id="node21" class="node"><title>Node36</title>
<g id="a_node21"><a xlink:href="lobject_8c.html#a1d02fb9304e4700ce1fd20e34ae68784" target="_top" xlink:title=" ">
<polygon fill="white" stroke="black" points="1841,-285.5 1841,-304.5 1912,-304.5 1912,-285.5 1841,-285.5"/>
<text text-anchor="middle" x="1876.5" y="-292.5" font-family="Helvetica,sans-Serif" font-size="10.00">addnum2buff</text>
</a>
</g>
</g>
<!-- Node35&#45;&gt;Node36 -->
<g id="edge21" class="edge"><title>Node35&#45;&gt;Node36</title>
<path fill="none" stroke="midnightblue" d="M1782.79,-266.589C1798.5,-271.404 1817.74,-277.299 1834.61,-282.468"/>
<polygon fill="midnightblue" stroke="midnightblue" points="1833.63,-285.83 1844.22,-285.414 1835.68,-279.138 1833.63,-285.83"/>
</g>
<!-- Node37 -->
<g id="node22" class="node"><title>Node37</title>
<g id="a_node22"><a xlink:href="lobject_8c.html#ac4ab924f2ea45ef73319f1159033eab1" target="_top" xlink:title=" ">
<polygon fill="white" stroke="black" points="1965.5,-247.5 1965.5,-266.5 2010.5,-266.5 2010.5,-247.5 1965.5,-247.5"/>
<text text-anchor="middle" x="1988" y="-254.5" font-family="Helvetica,sans-Serif" font-size="10.00">getbuff</text>
</a>
</g>
</g>
<!-- Node35&#45;&gt;Node37 -->
<g id="edge29" class="edge"><title>Node35&#45;&gt;Node37</title>
<path fill="none" stroke="midnightblue" d="M1797.19,-257C1843.72,-257 1914.66,-257 1955.35,-257"/>
<polygon fill="midnightblue" stroke="midnightblue" points="1955.49,-260.5 1965.49,-257 1955.49,-253.5 1955.49,-260.5"/>
</g>
<!-- Node38 -->
<g id="node23" class="node"><title>Node38</title>
<g id="a_node23"><a xlink:href="lobject_8c.html#a6ec2716e64cd75e3e6614a87ee92e4d2" target="_top" xlink:title=" ">
<polygon fill="white" stroke="red" points="2056,-209.5 2056,-228.5 2109,-228.5 2109,-209.5 2056,-209.5"/>
<text text-anchor="middle" x="2082.5" y="-216.5" font-family="Helvetica,sans-Serif" font-size="10.00">clearbuff</text>
</a>
</g>
</g>
<!-- Node35&#45;&gt;Node38 -->
<g id="edge28" class="edge"><title>Node35&#45;&gt;Node38</title>
<path fill="none" stroke="midnightblue" d="M1760.95,-247.381C1775.11,-233.724 1803.36,-209.338 1833,-200 1906.01,-177.002 1996.79,-194.865 2045.91,-208.096"/>
<polygon fill="midnightblue" stroke="midnightblue" points="2045.17,-211.522 2055.74,-210.833 2047.04,-204.779 2045.17,-211.522"/>
</g>
<!-- Node455 -->
<g id="node25" class="node"><title>Node455</title>
<g id="a_node25"><a xlink:href="lobject_8c.html#a874ab64f433ee35f2197a81e10452cb1" target="_top" xlink:title=" ">
<polygon fill="white" stroke="red" points="1844.5,-209.5 1844.5,-228.5 1908.5,-228.5 1908.5,-209.5 1844.5,-209.5"/>
<text text-anchor="middle" x="1876.5" y="-216.5" font-family="Helvetica,sans-Serif" font-size="10.00">addstr2buff</text>
</a>
</g>
</g>
<!-- Node35&#45;&gt;Node455 -->
<g id="edge25" class="edge"><title>Node35&#45;&gt;Node455</title>
<path fill="none" stroke="midnightblue" d="M1782.79,-247.411C1798.5,-242.596 1817.74,-236.701 1834.61,-231.532"/>
<polygon fill="midnightblue" stroke="midnightblue" points="1835.68,-234.862 1844.22,-228.586 1833.63,-228.17 1835.68,-234.862"/>
</g>
<!-- Node269 -->
<g id="node26" class="node"><title>Node269</title>
<g id="a_node26"><a xlink:href="lobject_8c.html#af3136de4693789b08f78aafda9604676" target="_top" xlink:title=" ">
<polygon fill="white" stroke="black" points="1839.5,-323.5 1839.5,-342.5 1913.5,-342.5 1913.5,-323.5 1839.5,-323.5"/>
<text text-anchor="middle" x="1876.5" y="-330.5" font-family="Helvetica,sans-Serif" font-size="10.00">luaO_utf8esc</text>
</a>
</g>
</g>
<!-- Node35&#45;&gt;Node269 -->
<g id="edge31" class="edge"><title>Node35&#45;&gt;Node269</title>
<path fill="none" stroke="midnightblue" d="M1763.72,-266.656C1779.25,-278.664 1807.16,-299.363 1833,-314 1836.05,-315.725 1839.28,-317.411 1842.55,-319.02"/>
<polygon fill="midnightblue" stroke="midnightblue" points="1841.18,-322.248 1851.72,-323.326 1844.16,-315.91 1841.18,-322.248"/>
</g>
<!-- Node36&#45;&gt;Node37 -->
<g id="edge22" class="edge"><title>Node36&#45;&gt;Node37</title>
<path fill="none" stroke="midnightblue" d="M1905.13,-285.411C1920.56,-280.058 1939.82,-273.371 1955.79,-267.83"/>
<polygon fill="midnightblue" stroke="midnightblue" points="1956.94,-271.135 1965.24,-264.55 1954.65,-264.522 1956.94,-271.135"/>
</g>
<!-- Node454 -->
<g id="node24" class="node"><title>Node454</title>
<g id="a_node24"><a xlink:href="lobject_8c.html#a8a7886b6335aca97db23dfe3e220c728" target="_top" xlink:title=" ">
<polygon fill="white" stroke="black" points="1956,-323.5 1956,-342.5 2020,-342.5 2020,-323.5 1956,-323.5"/>
<text text-anchor="middle" x="1988" y="-330.5" font-family="Helvetica,sans-Serif" font-size="10.00">tostringbuff</text>
</a>
</g>
</g>
<!-- Node36&#45;&gt;Node454 -->
<g id="edge24" class="edge"><title>Node36&#45;&gt;Node454</title>
<path fill="none" stroke="midnightblue" d="M1905.13,-304.589C1918.62,-309.269 1935.04,-314.969 1949.63,-320.032"/>
<polygon fill="midnightblue" stroke="midnightblue" points="1948.78,-323.442 1959.38,-323.414 1951.08,-316.829 1948.78,-323.442"/>
</g>
<!-- Node37&#45;&gt;Node38 -->
<g id="edge23" class="edge"><title>Node37&#45;&gt;Node38</title>
<path fill="none" stroke="midnightblue" d="M2010.92,-247.995C2022.25,-243.342 2036.29,-237.573 2048.86,-232.408"/>
<polygon fill="midnightblue" stroke="midnightblue" points="2050.2,-235.643 2058.12,-228.605 2047.54,-229.168 2050.2,-235.643"/>
</g>
<!-- Node455&#45;&gt;Node37 -->
<g id="edge27" class="edge"><title>Node455&#45;&gt;Node37</title>
<path fill="none" stroke="midnightblue" d="M1905.13,-228.589C1920.56,-233.942 1939.82,-240.629 1955.79,-246.17"/>
<polygon fill="midnightblue" stroke="midnightblue" points="1954.65,-249.478 1965.24,-249.45 1956.94,-242.865 1954.65,-249.478"/>
</g>
<!-- Node455&#45;&gt;Node38 -->
<g id="edge26" class="edge"><title>Node455&#45;&gt;Node38</title>
<path fill="none" stroke="midnightblue" d="M1908.93,-219C1945.81,-219 2006.83,-219 2045.56,-219"/>
<polygon fill="midnightblue" stroke="midnightblue" points="2045.85,-222.5 2055.85,-219 2045.85,-215.5 2045.85,-222.5"/>
</g>
<!-- Node408&#45;&gt;Node40 -->
<g id="edge37" class="edge"><title>Node408&#45;&gt;Node40</title>
<path fill="none" stroke="midnightblue" d="M1254.68,-224.53C1271.49,-230.316 1293.16,-237.777 1311.49,-244.087"/>
<polygon fill="midnightblue" stroke="midnightblue" points="1310.41,-247.416 1321,-247.362 1312.69,-240.797 1310.41,-247.416"/>
</g>
<!-- Node408&#45;&gt;Node32 -->
<g id="edge35" class="edge"><title>Node408&#45;&gt;Node32</title>
<path fill="none" stroke="midnightblue" d="M1261.58,-211.71C1302.48,-207.999 1372.62,-202.195 1433,-200 1479.64,-198.304 1491.64,-194.699 1538,-200 1550.83,-201.467 1564.58,-204.186 1577.07,-207.117"/>
<polygon fill="midnightblue" stroke="midnightblue" points="1576.24,-210.516 1586.79,-209.493 1577.91,-203.717 1576.24,-210.516"/>
</g>
<!-- Node408&#45;&gt;Node410 -->
<g id="edge36" class="edge"><title>Node408&#45;&gt;Node410</title>
<path fill="none" stroke="midnightblue" d="M1231.4,-205.465C1241.06,-185.807 1266.27,-141.18 1303,-124 1343.7,-104.964 1395.37,-107.134 1433.16,-112.793"/>
<polygon fill="midnightblue" stroke="midnightblue" points="1433,-116.313 1443.44,-114.467 1434.13,-109.404 1433,-116.313"/>
</g>
<!-- Node409 -->
<g id="node29" class="node"><title>Node409</title>
<g id="a_node29"><a xlink:href="lvm_8c.html#a7f03a9c23b77ec5cd280bb955ec430b8" target="_top" xlink:title=" ">
<polygon fill="white" stroke="black" points="1321,-171.5 1321,-190.5 1379,-190.5 1379,-171.5 1321,-171.5"/>
<text text-anchor="middle" x="1350" y="-178.5" font-family="Helvetica,sans-Serif" font-size="10.00">copy2buff</text>
</a>
</g>
</g>
<!-- Node408&#45;&gt;Node409 -->
<g id="edge34" class="edge"><title>Node408&#45;&gt;Node409</title>
<path fill="none" stroke="midnightblue" d="M1261.31,-205.439C1276.69,-201.153 1294.88,-196.081 1310.71,-191.672"/>
<polygon fill="midnightblue" stroke="midnightblue" points="1312.01,-194.942 1320.71,-188.885 1310.13,-188.199 1312.01,-194.942"/>
</g>
<!-- Node411 -->
<g id="node30" class="node"><title>Node411</title>
<g id="a_node30"><a xlink:href="ltm_8c.html#addc61bf94c111c5a5bd3fe0032cb9be0" target="_top" xlink:title=" ">
<polygon fill="white" stroke="red" points="1303,-133.5 1303,-152.5 1397,-152.5 1397,-133.5 1303,-133.5"/>
<text text-anchor="middle" x="1350" y="-140.5" font-family="Helvetica,sans-Serif" font-size="10.00">luaT_tryconcatTM</text>
</a>
</g>
</g>
<!-- Node408&#45;&gt;Node411 -->
<g id="edge38" class="edge"><title>Node408&#45;&gt;Node411</title>
<path fill="none" stroke="midnightblue" d="M1239.1,-205.315C1253.67,-193.962 1279.15,-175.041 1303,-162 1306.3,-160.194 1309.81,-158.453 1313.37,-156.806"/>
<polygon fill="midnightblue" stroke="midnightblue" points="1315,-159.912 1322.75,-152.69 1312.19,-153.501 1315,-159.912"/>
</g>
<!-- Node461&#45;&gt;Node456 -->
<g id="edge40" class="edge"><title>Node461&#45;&gt;Node456</title>
<path fill="none" stroke="midnightblue" d="M1648.11,-92.843C1663.09,-93.9006 1682.39,-95.2631 1700.13,-96.5151"/>
<polygon fill="midnightblue" stroke="midnightblue" points="1700.13,-100.023 1710.35,-97.2363 1700.62,-93.0408 1700.13,-100.023"/>
</g>
<!-- Node462&#45;&gt;Node35 -->
<g id="edge42" class="edge"><title>Node462&#45;&gt;Node35</title>
<path fill="none" stroke="midnightblue" d="M1140.35,-262.53C1186.73,-274.922 1273.52,-295 1349,-295 1349,-295 1349,-295 1486.5,-295 1561.05,-295 1646.27,-279.861 1698.99,-268.694"/>
<polygon fill="midnightblue" stroke="midnightblue" points="1699.72,-272.115 1708.76,-266.589 1698.25,-265.272 1699.72,-272.115"/>
</g>
<!-- Node463&#45;&gt;Node9 -->
<g id="edge44" class="edge"><title>Node463&#45;&gt;Node9</title>
<path fill="none" stroke="midnightblue" d="M1138.62,-407.68C1152.6,-408.864 1169.21,-410.272 1184.12,-411.535"/>
<polygon fill="midnightblue" stroke="midnightblue" points="1183.85,-415.025 1194.11,-412.382 1184.44,-408.05 1183.85,-415.025"/>
</g>
<!-- Node463&#45;&gt;Node458 -->
<g id="edge45" class="edge"><title>Node463&#45;&gt;Node458</title>
<path fill="none" stroke="midnightblue" d="M1126.75,-414.541C1145.72,-423.706 1174.61,-437.659 1196.16,-448.068"/>
<polygon fill="midnightblue" stroke="midnightblue" points="1194.66,-451.23 1205.19,-452.428 1197.7,-444.927 1194.66,-451.23"/>
</g>
<!-- Node464 -->
<g id="node34" class="node"><title>Node464</title>
<g id="a_node34"><a xlink:href="lapi_8c.html#ab190c226d38b289e6ca57683a9d4e0f0" target="_top" xlink:title=" ">
<polygon fill="white" stroke="black" points="1185,-361.5 1185,-380.5 1267,-380.5 1267,-361.5 1185,-361.5"/>
<text text-anchor="middle" x="1226" y="-368.5" font-family="Helvetica,sans-Serif" font-size="10.00">lua_pushfstring</text>
</a>
</g>
</g>
<!-- Node463&#45;&gt;Node464 -->
<g id="edge46" class="edge"><title>Node463&#45;&gt;Node464</title>
<path fill="none" stroke="midnightblue" d="M1138.62,-395.889C1151.93,-392.053 1167.64,-387.529 1181.98,-383.397"/>
<polygon fill="midnightblue" stroke="midnightblue" points="1183,-386.744 1191.64,-380.612 1181.06,-380.018 1183,-386.744"/>
</g>
<!-- Node464&#45;&gt;Node35 -->
<g id="edge47" class="edge"><title>Node464&#45;&gt;Node35</title>
<path fill="none" stroke="midnightblue" d="M1267.01,-371.001C1346.12,-369.799 1527.12,-361.033 1668,-309 1690.98,-300.512 1714.25,-284.797 1730.01,-272.857"/>
<polygon fill="midnightblue" stroke="midnightblue" points="1732.2,-275.586 1737.94,-266.681 1727.9,-270.063 1732.2,-275.586"/>
</g>
<!-- Node481 -->
<g id="node36" class="node"><title>Node481</title>
<g id="a_node36"><a xlink:href="lapi_8c.html#a7d64f87addab440bbda96bb088816e17" target="_top" xlink:title=" ">
<polygon fill="white" stroke="black" points="700.5,-319.5 700.5,-338.5 777.5,-338.5 777.5,-319.5 700.5,-319.5"/>
<text text-anchor="middle" x="739" y="-326.5" font-family="Helvetica,sans-Serif" font-size="10.00">lua_typename</text>
</a>
</g>
</g>
<!-- Node480&#45;&gt;Node481 -->
<g id="edge49" class="edge"><title>Node480&#45;&gt;Node481</title>
<path fill="none" stroke="midnightblue" d="M653.207,-329C664.18,-329 677.235,-329 689.773,-329"/>
<polygon fill="midnightblue" stroke="midnightblue" points="690.126,-332.5 700.126,-329 690.126,-325.5 690.126,-332.5"/>
</g>
<!-- Node482 -->
<g id="node37" class="node"><title>Node482</title>
<g id="a_node37"><a xlink:href="lauxlib_8c.html#ab8ddc4ac13516f3548a6c102dd6fa114" target="_top" xlink:title=" ">
<polygon fill="white" stroke="black" points="700,-357.5 700,-376.5 778,-376.5 778,-357.5 700,-357.5"/>
<text text-anchor="middle" x="739" y="-364.5" font-family="Helvetica,sans-Serif" font-size="10.00">luaL_typeerror</text>
</a>
</g>
</g>
<!-- Node480&#45;&gt;Node482 -->
<g id="edge50" class="edge"><title>Node480&#45;&gt;Node482</title>
<path fill="none" stroke="midnightblue" d="M653.207,-338.102C667.265,-342.893 684.741,-348.849 700.169,-354.107"/>
<polygon fill="midnightblue" stroke="midnightblue" points="699.36,-357.529 709.955,-357.442 701.619,-350.903 699.36,-357.529"/>
</g>
<!-- Node482&#45;&gt;Node8 -->
<g id="edge54" class="edge"><title>Node482&#45;&gt;Node8</title>
<path fill="none" stroke="midnightblue" d="M750.891,-376.845C764.783,-389.048 789.905,-409.949 814,-424 817.191,-425.861 820.599,-427.639 824.058,-429.308"/>
<polygon fill="midnightblue" stroke="midnightblue" points="822.665,-432.519 833.219,-433.454 825.552,-426.142 822.665,-432.519"/>
</g>
<!-- Node482&#45;&gt;Node464 -->
<g id="edge51" class="edge"><title>Node482&#45;&gt;Node464</title>
<path fill="none" stroke="midnightblue" d="M778.057,-367.314C864.779,-368.029 1077.08,-369.78 1174.56,-370.584"/>
<polygon fill="midnightblue" stroke="midnightblue" points="1174.72,-374.085 1184.75,-370.668 1174.78,-367.086 1174.72,-374.085"/>
</g>
<!-- Node473 -->
<g id="node38" class="node"><title>Node473</title>
<g id="a_node38"><a xlink:href="lapi_8c.html#a652b273947f0656686f998d8e90cd3ea" target="_top" xlink:title=" ">
<polygon fill="white" stroke="black" points="833.5,-319.5 833.5,-338.5 886.5,-338.5 886.5,-319.5 833.5,-319.5"/>
<text text-anchor="middle" x="860" y="-326.5" font-family="Helvetica,sans-Serif" font-size="10.00">lua_type</text>
</a>
</g>
</g>
<!-- Node482&#45;&gt;Node473 -->
<g id="edge52" class="edge"><title>Node482&#45;&gt;Node473</title>
<path fill="none" stroke="midnightblue" d="M770.029,-357.411C786.375,-352.191 806.691,-345.704 823.781,-340.246"/>
<polygon fill="midnightblue" stroke="midnightblue" points="824.955,-343.546 833.417,-337.169 822.826,-336.877 824.955,-343.546"/>
</g>
<!-- Node483 -->
<g id="node40" class="node"><title>Node483</title>
<g id="a_node40"><a xlink:href="lauxlib_8c.html#add7cea31816ff3f61014031248e0daa6" target="_top" xlink:title=" ">
<polygon fill="white" stroke="red" points="814,-395.5 814,-414.5 906,-414.5 906,-395.5 814,-395.5"/>
<text text-anchor="middle" x="860" y="-402.5" font-family="Helvetica,sans-Serif" font-size="10.00">luaL_getmetafield</text>
</a>
</g>
</g>
<!-- Node482&#45;&gt;Node483 -->
<g id="edge55" class="edge"><title>Node482&#45;&gt;Node483</title>
<path fill="none" stroke="midnightblue" d="M770.029,-376.589C784.968,-381.359 803.223,-387.189 819.301,-392.323"/>
<polygon fill="midnightblue" stroke="midnightblue" points="818.39,-395.706 828.981,-395.414 820.519,-389.038 818.39,-395.706"/>
</g>
<!-- Node7 -->
<g id="node39" class="node"><title>Node7</title>
<g id="a_node39"><a xlink:href="lapi_8c.html#a7c66797ff8396fc9258bb9fc08e959d8" target="_top" xlink:title=" ">
<polygon fill="white" stroke="black" points="951,-319.5 951,-338.5 1018,-338.5 1018,-319.5 951,-319.5"/>
<text text-anchor="middle" x="984.5" y="-326.5" font-family="Helvetica,sans-Serif" font-size="10.00">index2value</text>
</a>
</g>
</g>
<!-- Node473&#45;&gt;Node7 -->
<g id="edge53" class="edge"><title>Node473&#45;&gt;Node7</title>
<path fill="none" stroke="midnightblue" d="M886.68,-329C902.353,-329 922.782,-329 940.832,-329"/>
<polygon fill="midnightblue" stroke="midnightblue" points="940.85,-332.5 950.849,-329 940.849,-325.5 940.85,-332.5"/>
</g>
<!-- Node487&#45;&gt;Node7 -->
<g id="edge57" class="edge"><title>Node487&#45;&gt;Node7</title>
<path fill="none" stroke="midnightblue" d="M664.251,-291.505C718.172,-292.692 820.214,-296.671 906,-310 917.424,-311.775 929.636,-314.412 940.907,-317.16"/>
<polygon fill="midnightblue" stroke="midnightblue" points="940.393,-320.64 950.945,-319.694 942.106,-313.853 940.393,-320.64"/>
</g>
<!-- Node489&#45;&gt;Node480 -->
<g id="edge65" class="edge"><title>Node489&#45;&gt;Node480</title>
<path fill="none" stroke="midnightblue" d="M518.524,-262.67C534.122,-274.51 561.796,-294.855 587,-310 589.667,-311.602 592.485,-313.198 595.33,-314.744"/>
<polygon fill="midnightblue" stroke="midnightblue" points="593.876,-317.934 604.36,-319.466 597.12,-311.73 593.876,-317.934"/>
</g>
<!-- Node490 -->
<g id="node44" class="node"><title>Node490</title>
<g id="a_node44"><a xlink:href="lapi_8c.html#a3fc7dbcac3f2610f3d687ec15343bd3f" target="_top" xlink:title=" ">
<polygon fill="white" stroke="black" points="825.5,-243.5 825.5,-262.5 894.5,-262.5 894.5,-243.5 825.5,-243.5"/>
<text text-anchor="middle" x="860" y="-250.5" font-family="Helvetica,sans-Serif" font-size="10.00">lua_tolstring</text>
</a>
</g>
</g>
<!-- Node489&#45;&gt;Node490 -->
<g id="edge60" class="edge"><title>Node489&#45;&gt;Node490</title>
<path fill="none" stroke="midnightblue" d="M551.066,-253C619.168,-253 747.497,-253 814.977,-253"/>
<polygon fill="midnightblue" stroke="midnightblue" points="815.267,-256.5 825.267,-253 815.267,-249.5 815.267,-256.5"/>
</g>
<!-- Node490&#45;&gt;Node7 -->
<g id="edge61" class="edge"><title>Node490&#45;&gt;Node7</title>
<path fill="none" stroke="midnightblue" d="M880.687,-262.571C888.715,-266.711 897.978,-271.796 906,-277 923.005,-288.032 925.187,-293.678 942,-305 946.746,-308.196 951.936,-311.407 956.989,-314.393"/>
<polygon fill="midnightblue" stroke="midnightblue" points="955.399,-317.517 965.812,-319.476 958.894,-311.451 955.399,-317.517"/>
</g>
<!-- Node491 -->
<g id="node45" class="node"><title>Node491</title>
<g id="a_node45"><a xlink:href="lobject_8c.html#a53824ade5220a50d44148175f7787199" target="_top" xlink:title=" ">
<polygon fill="white" stroke="black" points="1189,-323.5 1189,-342.5 1263,-342.5 1263,-323.5 1189,-323.5"/>
<text text-anchor="middle" x="1226" y="-330.5" font-family="Helvetica,sans-Serif" font-size="10.00">luaO_tostring</text>
</a>
</g>
</g>
<!-- Node490&#45;&gt;Node491 -->
<g id="edge62" class="edge"><title>Node490&#45;&gt;Node491</title>
<path fill="none" stroke="midnightblue" d="M894.592,-260.383C959.98,-274.754 1104.45,-306.505 1178.8,-322.846"/>
<polygon fill="midnightblue" stroke="midnightblue" points="1178.29,-326.318 1188.81,-325.046 1179.79,-319.481 1178.29,-326.318"/>
</g>
<!-- Node491&#45;&gt;Node40 -->
<g id="edge63" class="edge"><title>Node491&#45;&gt;Node40</title>
<path fill="none" stroke="midnightblue" d="M1242.45,-323.375C1263.26,-310.412 1300.5,-287.214 1324.98,-271.965"/>
<polygon fill="midnightblue" stroke="midnightblue" points="1327.04,-274.806 1333.67,-266.547 1323.34,-268.864 1327.04,-274.806"/>
</g>
<!-- Node491&#45;&gt;Node454 -->
<g id="edge64" class="edge"><title>Node491&#45;&gt;Node454</title>
<path fill="none" stroke="midnightblue" d="M1263.19,-338.854C1332.32,-349.514 1488.05,-371 1620,-371 1620,-371 1620,-371 1751.5,-371 1826.86,-371 1846.05,-366.552 1920,-352 1928.96,-350.236 1938.47,-347.858 1947.43,-345.382"/>
<polygon fill="midnightblue" stroke="midnightblue" points="1948.59,-348.69 1957.24,-342.573 1946.66,-341.961 1948.59,-348.69"/>
</g>
<!-- Node492&#45;&gt;Node459 -->
<g id="edge72" class="edge"><title>Node492&#45;&gt;Node459</title>
<path fill="none" stroke="midnightblue" d="M891.912,-186.589C908.028,-191.588 927.893,-197.75 944.998,-203.057"/>
<polygon fill="midnightblue" stroke="midnightblue" points="944.114,-206.447 954.702,-206.067 946.188,-199.761 944.114,-206.447"/>
</g>
<!-- Node493 -->
<g id="node47" class="node"><title>Node493</title>
<g id="a_node47"><a xlink:href="lapi_8c.html#a1d762b92d5d82d6fa9f54ccf5c89d6a2" target="_top" xlink:title=" ">
<polygon fill="white" stroke="black" points="942,-110.5 942,-129.5 1027,-129.5 1027,-110.5 942,-110.5"/>
<text text-anchor="middle" x="984.5" y="-117.5" font-family="Helvetica,sans-Serif" font-size="10.00">lua_checkstack</text>
</a>
</g>
</g>
<!-- Node492&#45;&gt;Node493 -->
<g id="edge67" class="edge"><title>Node492&#45;&gt;Node493</title>
<path fill="none" stroke="midnightblue" d="M881.504,-167.459C901.29,-158.253 931.458,-144.215 953.858,-133.793"/>
<polygon fill="midnightblue" stroke="midnightblue" points="955.339,-136.964 962.929,-129.572 952.386,-130.617 955.339,-136.964"/>
</g>
<!-- Node494 -->
<g id="node48" class="node"><title>Node494</title>
<g id="a_node48"><a xlink:href="ldo_8c.html#a728937587ac9d9e316bd410991f11221" target="_top" xlink:title=" ">
<polygon fill="white" stroke="black" points="1442.5,-19.5 1442.5,-38.5 1528.5,-38.5 1528.5,-19.5 1442.5,-19.5"/>
<text text-anchor="middle" x="1485.5" y="-26.5" font-family="Helvetica,sans-Serif" font-size="10.00">luaD_growstack</text>
</a>
</g>
</g>
<!-- Node493&#45;&gt;Node494 -->
<g id="edge68" class="edge"><title>Node493&#45;&gt;Node494</title>
<path fill="none" stroke="midnightblue" d="M992.837,-110.497C1005.32,-95.1611 1032.34,-65.4201 1063,-53 1187.76,-2.46446 1350.43,-12.0831 1432.42,-21.5571"/>
<polygon fill="midnightblue" stroke="midnightblue" points="1432.14,-25.0488 1442.49,-22.7672 1432.98,-18.0988 1432.14,-25.0488"/>
</g>
<!-- Node494&#45;&gt;Node32 -->
<g id="edge71" class="edge"><title>Node494&#45;&gt;Node32</title>
<path fill="none" stroke="midnightblue" d="M1493.3,-38.6833C1514.46,-68.7873 1579.31,-161.085 1607.12,-200.665"/>
<polygon fill="midnightblue" stroke="midnightblue" points="1604.44,-202.938 1613.05,-209.108 1610.16,-198.914 1604.44,-202.938"/>
</g>
<!-- Node494&#45;&gt;Node115 -->
<g id="edge70" class="edge"><title>Node494&#45;&gt;Node115</title>
<path fill="none" stroke="midnightblue" d="M1528.87,-31.0695C1603.76,-34.7272 1758.63,-42.2919 1833.36,-45.9416"/>
<polygon fill="midnightblue" stroke="midnightblue" points="1833.62,-49.4586 1843.78,-46.4508 1833.96,-42.467 1833.62,-49.4586"/>
</g>
<!-- Node68 -->
<g id="node49" class="node"><title>Node68</title>
<g id="a_node49"><a xlink:href="ldo_8c.html#a75b8b0016e9182d4fd9f71c1a7238e8a" target="_top" xlink:title=" ">
<polygon fill="white" stroke="red" points="1574,-0.5 1574,-19.5 1668,-19.5 1668,-0.5 1574,-0.5"/>
<text text-anchor="middle" x="1621" y="-7.5" font-family="Helvetica,sans-Serif" font-size="10.00">luaD_reallocstack</text>
</a>
</g>
</g>
<!-- Node494&#45;&gt;Node68 -->
<g id="edge69" class="edge"><title>Node494&#45;&gt;Node68</title>
<path fill="none" stroke="midnightblue" d="M1528.74,-22.9883C1539.85,-21.4074 1552.01,-19.6769 1563.72,-18.0093"/>
<polygon fill="midnightblue" stroke="midnightblue" points="1564.46,-21.4395 1573.87,-16.5653 1563.48,-14.5094 1564.46,-21.4395"/>
</g>
</g>
</svg>
