<?xml version="1.0" encoding="UTF-8" standalone="no"?>
<!DOCTYPE svg PUBLIC "-//W3C//DTD SVG 1.1//EN"
 "http://www.w3.org/Graphics/SVG/1.1/DTD/svg11.dtd">
<!-- Generated by graphviz version 2.38.0 (20140413.2041)
 -->
<!-- Title: arith_idiv Pages: 1 -->
<svg width="738pt" height="921pt"
 viewBox="0.00 0.00 738.00 921.00" xmlns="http://www.w3.org/2000/svg" xmlns:xlink="http://www.w3.org/1999/xlink">
<g id="graph0" class="graph" transform="scale(1 1) rotate(0) translate(4 917)">
<title>arith_idiv</title>
<polygon fill="white" stroke="none" points="-4,4 -4,-917 734,-917 734,4 -4,4"/>
<!-- Node1 -->
<g id="node1" class="node"><title>Node1</title>
<g id="a_node1"><a xlink:title=" ">
<polygon fill="#bfbfbf" stroke="black" points="0,-570.5 0,-589.5 54,-589.5 54,-570.5 0,-570.5"/>
<text text-anchor="middle" x="27" y="-577.5" font-family="Helvetica,sans-Serif" font-size="10.00">arith_idiv</text>
</a>
</g>
</g>
<!-- Node2 -->
<g id="node2" class="node"><title>Node2</title>
<g id="a_node2"><a xlink:href="lstrlib_8c.html#afa2c944dafe82820f6f04dff68703634" target="_top" xlink:title=" ">
<polygon fill="white" stroke="black" points="90,-570.5 90,-589.5 125,-589.5 125,-570.5 90,-570.5"/>
<text text-anchor="middle" x="107.5" y="-577.5" font-family="Helvetica,sans-Serif" font-size="10.00">arith</text>
</a>
</g>
</g>
<!-- Node1&#45;&gt;Node2 -->
<g id="edge1" class="edge"><title>Node1&#45;&gt;Node2</title>
<path fill="none" stroke="midnightblue" d="M54.1394,-580C62.3264,-580 71.3733,-580 79.6111,-580"/>
<polygon fill="midnightblue" stroke="midnightblue" points="79.8342,-583.5 89.8342,-580 79.8341,-576.5 79.8342,-583.5"/>
</g>
<!-- Node3 -->
<g id="node3" class="node"><title>Node3</title>
<g id="a_node3"><a xlink:href="lapi_8c.html#a08501a34884feca01759dec174d69c88" target="_top" xlink:title=" ">
<polygon fill="white" stroke="black" points="161,-674.5 161,-693.5 214,-693.5 214,-674.5 161,-674.5"/>
<text text-anchor="middle" x="187.5" y="-681.5" font-family="Helvetica,sans-Serif" font-size="10.00">lua_arith</text>
</a>
</g>
</g>
<!-- Node2&#45;&gt;Node3 -->
<g id="edge2" class="edge"><title>Node2&#45;&gt;Node3</title>
<path fill="none" stroke="midnightblue" d="M115.698,-589.598C128.758,-607.011 156.54,-644.053 173.155,-666.207"/>
<polygon fill="midnightblue" stroke="midnightblue" points="170.519,-668.526 179.319,-674.426 176.119,-664.326 170.519,-668.526"/>
</g>
<!-- Node447 -->
<g id="node15" class="node"><title>Node447</title>
<g id="a_node15"><a xlink:href="lstrlib_8c.html#a29c672037c89ca25af99c1694e04c294" target="_top" xlink:title=" ">
<polygon fill="white" stroke="black" points="274,-570.5 274,-589.5 318,-589.5 318,-570.5 274,-570.5"/>
<text text-anchor="middle" x="296" y="-577.5" font-family="Helvetica,sans-Serif" font-size="10.00">tonum</text>
</a>
</g>
</g>
<!-- Node2&#45;&gt;Node447 -->
<g id="edge14" class="edge"><title>Node2&#45;&gt;Node447</title>
<path fill="none" stroke="midnightblue" d="M125.051,-580C156.163,-580 223.826,-580 263.754,-580"/>
<polygon fill="midnightblue" stroke="midnightblue" points="263.987,-583.5 273.987,-580 263.987,-576.5 263.987,-583.5"/>
</g>
<!-- Node454 -->
<g id="node27" class="node"><title>Node454</title>
<g id="a_node27"><a xlink:href="lstrlib_8c.html#a0f8612c62e1158d37a19d06453dcbc97" target="_top" xlink:title=" ">
<polygon fill="white" stroke="black" points="168,-456.5 168,-475.5 207,-475.5 207,-456.5 168,-456.5"/>
<text text-anchor="middle" x="187.5" y="-463.5" font-family="Helvetica,sans-Serif" font-size="10.00">trymt</text>
</a>
</g>
</g>
<!-- Node2&#45;&gt;Node454 -->
<g id="edge28" class="edge"><title>Node2&#45;&gt;Node454</title>
<path fill="none" stroke="midnightblue" d="M115.15,-570.28C128.217,-551.182 157.421,-508.5 174.133,-484.075"/>
<polygon fill="midnightblue" stroke="midnightblue" points="177.108,-485.924 179.867,-475.695 171.331,-481.972 177.108,-485.924"/>
</g>
<!-- Node4 -->
<g id="node4" class="node"><title>Node4</title>
<g id="a_node4"><a xlink:href="lobject_8c.html#a70e6a84042c5cf25f3812cba16e1fc3d" target="_top" xlink:title=" ">
<polygon fill="white" stroke="black" points="265.5,-741.5 265.5,-760.5 326.5,-760.5 326.5,-741.5 265.5,-741.5"/>
<text text-anchor="middle" x="296" y="-748.5" font-family="Helvetica,sans-Serif" font-size="10.00">luaO_arith</text>
</a>
</g>
</g>
<!-- Node3&#45;&gt;Node4 -->
<g id="edge3" class="edge"><title>Node3&#45;&gt;Node4</title>
<path fill="none" stroke="midnightblue" d="M203.759,-693.599C221.395,-704.694 250.631,-723.087 271.248,-736.058"/>
<polygon fill="midnightblue" stroke="midnightblue" points="269.441,-739.056 279.769,-741.418 273.169,-733.131 269.441,-739.056"/>
</g>
<!-- Node5 -->
<g id="node5" class="node"><title>Node5</title>
<g id="a_node5"><a xlink:href="lobject_8c.html#aae42f4eba2d45e27d6f217f4497d106d" target="_top" xlink:title=" ">
<polygon fill="white" stroke="black" points="389.5,-817.5 389.5,-836.5 465.5,-836.5 465.5,-817.5 389.5,-817.5"/>
<text text-anchor="middle" x="427.5" y="-824.5" font-family="Helvetica,sans-Serif" font-size="10.00">luaO_rawarith</text>
</a>
</g>
</g>
<!-- Node4&#45;&gt;Node5 -->
<g id="edge4" class="edge"><title>Node4&#45;&gt;Node5</title>
<path fill="none" stroke="midnightblue" d="M313.401,-760.625C335.587,-773.645 375.366,-796.991 401.344,-812.236"/>
<polygon fill="midnightblue" stroke="midnightblue" points="399.836,-815.41 410.232,-817.453 403.379,-809.373 399.836,-815.41"/>
</g>
<!-- Node390 -->
<g id="node11" class="node"><title>Node390</title>
<g id="a_node11"><a xlink:href="ltm_8c.html#a2adc638eccb971b8abaf27f60611e913" target="_top" xlink:title=" ">
<polygon fill="white" stroke="black" points="389,-741.5 389,-760.5 466,-760.5 466,-741.5 389,-741.5"/>
<text text-anchor="middle" x="427.5" y="-748.5" font-family="Helvetica,sans-Serif" font-size="10.00">luaT_trybinTM</text>
</a>
</g>
</g>
<!-- Node4&#45;&gt;Node390 -->
<g id="edge10" class="edge"><title>Node4&#45;&gt;Node390</title>
<path fill="none" stroke="midnightblue" d="M326.71,-751C341.922,-751 360.827,-751 378.078,-751"/>
<polygon fill="midnightblue" stroke="midnightblue" points="378.558,-754.5 388.558,-751 378.558,-747.5 378.558,-754.5"/>
</g>
<!-- Node6 -->
<g id="node6" class="node"><title>Node6</title>
<g id="a_node6"><a xlink:href="lobject_8c.html#aa6eb9701fada64e32960f82c8d24d8da" target="_top" xlink:title=" ">
<polygon fill="white" stroke="black" points="534,-855.5 534,-874.5 580,-874.5 580,-855.5 534,-855.5"/>
<text text-anchor="middle" x="557" y="-862.5" font-family="Helvetica,sans-Serif" font-size="10.00">intarith</text>
</a>
</g>
</g>
<!-- Node5&#45;&gt;Node6 -->
<g id="edge5" class="edge"><title>Node5&#45;&gt;Node6</title>
<path fill="none" stroke="midnightblue" d="M460.674,-836.589C480.148,-842.393 504.882,-849.765 524.275,-855.545"/>
<polygon fill="midnightblue" stroke="midnightblue" points="523.29,-858.903 533.873,-858.405 525.289,-852.195 523.29,-858.903"/>
</g>
<!-- Node446 -->
<g id="node10" class="node"><title>Node446</title>
<g id="a_node10"><a xlink:href="lobject_8c.html#adf4b8d51ae5cde26912864b83cdf6e36" target="_top" xlink:title=" ">
<polygon fill="white" stroke="red" points="530,-817.5 530,-836.5 584,-836.5 584,-817.5 530,-817.5"/>
<text text-anchor="middle" x="557" y="-824.5" font-family="Helvetica,sans-Serif" font-size="10.00">numarith</text>
</a>
</g>
</g>
<!-- Node5&#45;&gt;Node446 -->
<g id="edge9" class="edge"><title>Node5&#45;&gt;Node446</title>
<path fill="none" stroke="midnightblue" d="M465.721,-827C482.764,-827 502.887,-827 519.804,-827"/>
<polygon fill="midnightblue" stroke="midnightblue" points="519.867,-830.5 529.867,-827 519.867,-823.5 519.867,-830.5"/>
</g>
<!-- Node7 -->
<g id="node7" class="node"><title>Node7</title>
<g id="a_node7"><a xlink:href="lvm_8c.html#a8815b6d106992c5713900b20a0da5e29" target="_top" xlink:title=" ">
<polygon fill="white" stroke="red" points="656,-893.5 656,-912.5 711,-912.5 711,-893.5 656,-893.5"/>
<text text-anchor="middle" x="683.5" y="-900.5" font-family="Helvetica,sans-Serif" font-size="10.00">luaV_idiv</text>
</a>
</g>
</g>
<!-- Node6&#45;&gt;Node7 -->
<g id="edge6" class="edge"><title>Node6&#45;&gt;Node7</title>
<path fill="none" stroke="midnightblue" d="M580.258,-871.794C598.493,-877.359 624.667,-885.348 645.967,-891.849"/>
<polygon fill="midnightblue" stroke="midnightblue" points="645.084,-895.239 655.67,-894.811 647.127,-888.544 645.084,-895.239"/>
</g>
<!-- Node403 -->
<g id="node8" class="node"><title>Node403</title>
<g id="a_node8"><a xlink:href="lvm_8c.html#af1241d1650e114f39843626fd879d3d6" target="_top" xlink:title=" ">
<polygon fill="white" stroke="red" points="653.5,-855.5 653.5,-874.5 713.5,-874.5 713.5,-855.5 653.5,-855.5"/>
<text text-anchor="middle" x="683.5" y="-862.5" font-family="Helvetica,sans-Serif" font-size="10.00">luaV_mod</text>
</a>
</g>
</g>
<!-- Node6&#45;&gt;Node403 -->
<g id="edge7" class="edge"><title>Node6&#45;&gt;Node403</title>
<path fill="none" stroke="midnightblue" d="M580.258,-865C597.73,-865 622.49,-865 643.268,-865"/>
<polygon fill="midnightblue" stroke="midnightblue" points="643.404,-868.5 653.404,-865 643.404,-861.5 643.404,-868.5"/>
</g>
<!-- Node410 -->
<g id="node9" class="node"><title>Node410</title>
<g id="a_node9"><a xlink:href="lvm_8c.html#ade6c9565152d0bb1f6116a90ea2c867a" target="_top" xlink:title=" ">
<polygon fill="white" stroke="black" points="652.5,-817.5 652.5,-836.5 714.5,-836.5 714.5,-817.5 652.5,-817.5"/>
<text text-anchor="middle" x="683.5" y="-824.5" font-family="Helvetica,sans-Serif" font-size="10.00">luaV_shiftl</text>
</a>
</g>
</g>
<!-- Node6&#45;&gt;Node410 -->
<g id="edge8" class="edge"><title>Node6&#45;&gt;Node410</title>
<path fill="none" stroke="midnightblue" d="M580.258,-858.206C597.569,-852.923 622.035,-845.455 642.693,-839.15"/>
<polygon fill="midnightblue" stroke="midnightblue" points="643.938,-842.429 652.481,-836.162 641.895,-835.734 643.938,-842.429"/>
</g>
<!-- Node372 -->
<g id="node12" class="node"><title>Node372</title>
<g id="a_node12"><a xlink:href="ltm_8c.html#a68751e8f9bf0714d8c761a5b6ce4daf9" target="_top" xlink:title=" ">
<polygon fill="white" stroke="red" points="528,-779.5 528,-798.5 586,-798.5 586,-779.5 528,-779.5"/>
<text text-anchor="middle" x="557" y="-786.5" font-family="Helvetica,sans-Serif" font-size="10.00">callbinTM</text>
</a>
</g>
</g>
<!-- Node390&#45;&gt;Node372 -->
<g id="edge11" class="edge"><title>Node390&#45;&gt;Node372</title>
<path fill="none" stroke="midnightblue" d="M460.674,-760.589C478.102,-765.783 499.743,-772.233 517.998,-777.674"/>
<polygon fill="midnightblue" stroke="midnightblue" points="517.16,-781.076 527.743,-780.578 519.159,-774.368 517.16,-781.076"/>
</g>
<!-- Node391 -->
<g id="node13" class="node"><title>Node391</title>
<g id="a_node13"><a xlink:href="ldebug_8c.html#a5a3d4fd14bbb9329188c53a9548b7402" target="_top" xlink:title=" ">
<polygon fill="white" stroke="red" points="515.5,-741.5 515.5,-760.5 598.5,-760.5 598.5,-741.5 515.5,-741.5"/>
<text text-anchor="middle" x="557" y="-748.5" font-family="Helvetica,sans-Serif" font-size="10.00">luaG_opinterror</text>
</a>
</g>
</g>
<!-- Node390&#45;&gt;Node391 -->
<g id="edge12" class="edge"><title>Node390&#45;&gt;Node391</title>
<path fill="none" stroke="midnightblue" d="M466.065,-751C478.236,-751 491.95,-751 504.932,-751"/>
<polygon fill="midnightblue" stroke="midnightblue" points="505.143,-754.5 515.143,-751 505.143,-747.5 505.143,-754.5"/>
</g>
<!-- Node392 -->
<g id="node14" class="node"><title>Node392</title>
<g id="a_node14"><a xlink:href="ldebug_8c.html#ada97dce3c670f83e257a5b27299bf09b" target="_top" xlink:title=" ">
<polygon fill="white" stroke="red" points="517,-703.5 517,-722.5 597,-722.5 597,-703.5 517,-703.5"/>
<text text-anchor="middle" x="557" y="-710.5" font-family="Helvetica,sans-Serif" font-size="10.00">luaG_tointerror</text>
</a>
</g>
</g>
<!-- Node390&#45;&gt;Node392 -->
<g id="edge13" class="edge"><title>Node390&#45;&gt;Node392</title>
<path fill="none" stroke="midnightblue" d="M460.674,-741.411C476.831,-736.596 496.608,-730.701 513.952,-725.532"/>
<polygon fill="midnightblue" stroke="midnightblue" points="515.253,-728.796 523.837,-722.586 513.254,-722.088 515.253,-728.796"/>
</g>
<!-- Node448 -->
<g id="node16" class="node"><title>Node448</title>
<g id="a_node16"><a xlink:href="lapi_8c.html#a602f61a9b583d69dc1c72c8970bd65e8" target="_top" xlink:title=" ">
<polygon fill="white" stroke="black" points="389,-551.5 389,-570.5 466,-570.5 466,-551.5 389,-551.5"/>
<text text-anchor="middle" x="427.5" y="-558.5" font-family="Helvetica,sans-Serif" font-size="10.00">lua_pushvalue</text>
</a>
</g>
</g>
<!-- Node447&#45;&gt;Node448 -->
<g id="edge15" class="edge"><title>Node447&#45;&gt;Node448</title>
<path fill="none" stroke="midnightblue" d="M318.095,-576.905C334.54,-574.492 358.017,-571.048 378.921,-567.981"/>
<polygon fill="midnightblue" stroke="midnightblue" points="379.548,-571.426 388.934,-566.512 378.532,-564.5 379.548,-571.426"/>
</g>
<!-- Node450 -->
<g id="node18" class="node"><title>Node450</title>
<g id="a_node18"><a xlink:href="lapi_8c.html#ab9c2fb9e2b2c7dad7474dd4b6f1bbcd0" target="_top" xlink:title=" ">
<polygon fill="white" stroke="black" points="378,-646.5 378,-665.5 477,-665.5 477,-646.5 378,-646.5"/>
<text text-anchor="middle" x="427.5" y="-653.5" font-family="Helvetica,sans-Serif" font-size="10.00">lua_stringtonumber</text>
</a>
</g>
</g>
<!-- Node447&#45;&gt;Node450 -->
<g id="edge17" class="edge"><title>Node447&#45;&gt;Node450</title>
<path fill="none" stroke="midnightblue" d="M313.401,-589.625C335.587,-602.645 375.366,-625.991 401.344,-641.236"/>
<polygon fill="midnightblue" stroke="midnightblue" points="399.836,-644.41 410.232,-646.453 403.379,-638.373 399.836,-644.41"/>
</g>
<!-- Node451 -->
<g id="node22" class="node"><title>Node451</title>
<g id="a_node22"><a xlink:href="lapi_8c.html#a3fc7dbcac3f2610f3d687ec15343bd3f" target="_top" xlink:title=" ">
<polygon fill="white" stroke="black" points="393,-589.5 393,-608.5 462,-608.5 462,-589.5 393,-589.5"/>
<text text-anchor="middle" x="427.5" y="-596.5" font-family="Helvetica,sans-Serif" font-size="10.00">lua_tolstring</text>
</a>
</g>
</g>
<!-- Node447&#45;&gt;Node451 -->
<g id="edge21" class="edge"><title>Node447&#45;&gt;Node451</title>
<path fill="none" stroke="midnightblue" d="M318.095,-583.095C335.543,-585.655 360.907,-589.376 382.714,-592.576"/>
<polygon fill="midnightblue" stroke="midnightblue" points="382.36,-596.061 392.762,-594.05 383.376,-589.135 382.36,-596.061"/>
</g>
<!-- Node453 -->
<g id="node26" class="node"><title>Node453</title>
<g id="a_node26"><a xlink:href="lapi_8c.html#a652b273947f0656686f998d8e90cd3ea" target="_top" xlink:title=" ">
<polygon fill="white" stroke="black" points="401,-513.5 401,-532.5 454,-532.5 454,-513.5 401,-513.5"/>
<text text-anchor="middle" x="427.5" y="-520.5" font-family="Helvetica,sans-Serif" font-size="10.00">lua_type</text>
</a>
</g>
</g>
<!-- Node447&#45;&gt;Node453 -->
<g id="edge26" class="edge"><title>Node447&#45;&gt;Node453</title>
<path fill="none" stroke="midnightblue" d="M316.479,-570.425C332.786,-562.514 356.737,-551.141 378,-542 382.44,-540.091 387.139,-538.152 391.796,-536.277"/>
<polygon fill="midnightblue" stroke="midnightblue" points="393.193,-539.489 401.2,-532.551 390.614,-532.981 393.193,-539.489"/>
</g>
<!-- Node449 -->
<g id="node17" class="node"><title>Node449</title>
<g id="a_node17"><a xlink:href="lapi_8c.html#a7c66797ff8396fc9258bb9fc08e959d8" target="_top" xlink:title=" ">
<polygon fill="white" stroke="black" points="650,-513.5 650,-532.5 717,-532.5 717,-513.5 650,-513.5"/>
<text text-anchor="middle" x="683.5" y="-520.5" font-family="Helvetica,sans-Serif" font-size="10.00">index2value</text>
</a>
</g>
</g>
<!-- Node448&#45;&gt;Node449 -->
<g id="edge16" class="edge"><title>Node448&#45;&gt;Node449</title>
<path fill="none" stroke="midnightblue" d="M466.239,-556.101C501.221,-551.477 554.69,-544.197 601,-537 613.524,-535.054 627.102,-532.785 639.518,-530.647"/>
<polygon fill="midnightblue" stroke="midnightblue" points="640.372,-534.052 649.626,-528.893 639.174,-527.155 640.372,-534.052"/>
</g>
<!-- Node242 -->
<g id="node19" class="node"><title>Node242</title>
<g id="a_node19"><a xlink:href="lobject_8c.html#ab1956c979ca7ff39b07534390714505d" target="_top" xlink:title=" ">
<polygon fill="white" stroke="black" points="518.5,-665.5 518.5,-684.5 595.5,-684.5 595.5,-665.5 518.5,-665.5"/>
<text text-anchor="middle" x="557" y="-672.5" font-family="Helvetica,sans-Serif" font-size="10.00">luaO_str2num</text>
</a>
</g>
</g>
<!-- Node450&#45;&gt;Node242 -->
<g id="edge18" class="edge"><title>Node450&#45;&gt;Node242</title>
<path fill="none" stroke="midnightblue" d="M477.066,-663.237C487.305,-664.763 498.1,-666.372 508.307,-667.893"/>
<polygon fill="midnightblue" stroke="midnightblue" points="507.869,-671.366 518.275,-669.378 508.901,-664.443 507.869,-671.366"/>
</g>
<!-- Node243 -->
<g id="node20" class="node"><title>Node243</title>
<g id="a_node20"><a xlink:href="lobject_8c.html#a331ebab44d182775ef47eeebeeb58dbd" target="_top" xlink:title=" ">
<polygon fill="white" stroke="red" points="660.5,-684.5 660.5,-703.5 706.5,-703.5 706.5,-684.5 660.5,-684.5"/>
<text text-anchor="middle" x="683.5" y="-691.5" font-family="Helvetica,sans-Serif" font-size="10.00">l_str2d</text>
</a>
</g>
</g>
<!-- Node242&#45;&gt;Node243 -->
<g id="edge19" class="edge"><title>Node242&#45;&gt;Node243</title>
<path fill="none" stroke="midnightblue" d="M595.692,-680.752C613.07,-683.404 633.489,-686.52 650.156,-689.064"/>
<polygon fill="midnightblue" stroke="midnightblue" points="650.084,-692.593 660.497,-690.642 651.14,-685.673 650.084,-692.593"/>
</g>
<!-- Node245 -->
<g id="node21" class="node"><title>Node245</title>
<g id="a_node21"><a xlink:href="lobject_8c.html#ac5f6271088cb629a2359a93c283dc6ce" target="_top" xlink:title=" ">
<polygon fill="white" stroke="red" points="658,-646.5 658,-665.5 709,-665.5 709,-646.5 658,-646.5"/>
<text text-anchor="middle" x="683.5" y="-653.5" font-family="Helvetica,sans-Serif" font-size="10.00">l_str2int</text>
</a>
</g>
</g>
<!-- Node242&#45;&gt;Node245 -->
<g id="edge20" class="edge"><title>Node242&#45;&gt;Node245</title>
<path fill="none" stroke="midnightblue" d="M595.692,-669.248C612.248,-666.721 631.564,-663.773 647.767,-661.301"/>
<polygon fill="midnightblue" stroke="midnightblue" points="648.546,-664.722 657.904,-659.754 647.49,-657.802 648.546,-664.722"/>
</g>
<!-- Node451&#45;&gt;Node449 -->
<g id="edge22" class="edge"><title>Node451&#45;&gt;Node449</title>
<path fill="none" stroke="midnightblue" d="M450.919,-608.586C485.009,-621.637 551.177,-640.902 601,-618 610.047,-613.841 647.914,-566.943 668.698,-540.635"/>
<polygon fill="midnightblue" stroke="midnightblue" points="671.591,-542.617 675.024,-532.594 666.09,-538.288 671.591,-542.617"/>
</g>
<!-- Node452 -->
<g id="node23" class="node"><title>Node452</title>
<g id="a_node23"><a xlink:href="lobject_8c.html#a53824ade5220a50d44148175f7787199" target="_top" xlink:title=" ">
<polygon fill="white" stroke="black" points="520,-589.5 520,-608.5 594,-608.5 594,-589.5 520,-589.5"/>
<text text-anchor="middle" x="557" y="-596.5" font-family="Helvetica,sans-Serif" font-size="10.00">luaO_tostring</text>
</a>
</g>
</g>
<!-- Node451&#45;&gt;Node452 -->
<g id="edge23" class="edge"><title>Node451&#45;&gt;Node452</title>
<path fill="none" stroke="midnightblue" d="M462.333,-599C476.857,-599 494.061,-599 509.736,-599"/>
<polygon fill="midnightblue" stroke="midnightblue" points="509.773,-602.5 519.773,-599 509.773,-595.5 509.773,-602.5"/>
</g>
<!-- Node21 -->
<g id="node24" class="node"><title>Node21</title>
<g id="a_node24"><a xlink:href="lstring_8c.html#ab41fb084ce3ea5e2779f6659ccc2484d" target="_top" xlink:title=" ">
<polygon fill="white" stroke="red" points="647.5,-209.5 647.5,-228.5 719.5,-228.5 719.5,-209.5 647.5,-209.5"/>
<text text-anchor="middle" x="683.5" y="-216.5" font-family="Helvetica,sans-Serif" font-size="10.00">luaS_newlstr</text>
</a>
</g>
</g>
<!-- Node452&#45;&gt;Node21 -->
<g id="edge24" class="edge"><title>Node452&#45;&gt;Node21</title>
<path fill="none" stroke="midnightblue" d="M562.872,-589.485C571.391,-572.594 589.21,-536.121 601,-504 636.876,-406.258 666.95,-285.002 677.985,-238.446"/>
<polygon fill="midnightblue" stroke="midnightblue" points="681.439,-239.044 680.318,-228.509 674.625,-237.444 681.439,-239.044"/>
</g>
<!-- Node443 -->
<g id="node25" class="node"><title>Node443</title>
<g id="a_node25"><a xlink:href="lobject_8c.html#a8a7886b6335aca97db23dfe3e220c728" target="_top" xlink:title=" ">
<polygon fill="white" stroke="black" points="651.5,-589.5 651.5,-608.5 715.5,-608.5 715.5,-589.5 651.5,-589.5"/>
<text text-anchor="middle" x="683.5" y="-596.5" font-family="Helvetica,sans-Serif" font-size="10.00">tostringbuff</text>
</a>
</g>
</g>
<!-- Node452&#45;&gt;Node443 -->
<g id="edge25" class="edge"><title>Node452&#45;&gt;Node443</title>
<path fill="none" stroke="midnightblue" d="M594.011,-599C608.715,-599 625.81,-599 641.032,-599"/>
<polygon fill="midnightblue" stroke="midnightblue" points="641.219,-602.5 651.219,-599 641.219,-595.5 641.219,-602.5"/>
</g>
<!-- Node453&#45;&gt;Node449 -->
<g id="edge27" class="edge"><title>Node453&#45;&gt;Node449</title>
<path fill="none" stroke="midnightblue" d="M454.253,-523C497.883,-523 586.753,-523 639.812,-523"/>
<polygon fill="midnightblue" stroke="midnightblue" points="639.922,-526.5 649.922,-523 639.922,-519.5 639.922,-526.5"/>
</g>
<!-- Node454&#45;&gt;Node453 -->
<g id="edge33" class="edge"><title>Node454&#45;&gt;Node453</title>
<path fill="none" stroke="midnightblue" d="M207.219,-472.251C219.342,-476.182 235.513,-481.21 250,-485 298.438,-497.67 355.144,-509.323 390.943,-516.296"/>
<polygon fill="midnightblue" stroke="midnightblue" points="390.423,-519.76 400.906,-518.22 391.751,-512.887 390.423,-519.76"/>
</g>
<!-- Node455 -->
<g id="node28" class="node"><title>Node455</title>
<g id="a_node28"><a xlink:href="lapi_8c.html#adaa30f0d34786144c94644039d1d1b6e" target="_top" xlink:title=" ">
<polygon fill="white" stroke="black" points="265,-456.5 265,-475.5 327,-475.5 327,-456.5 265,-456.5"/>
<text text-anchor="middle" x="296" y="-463.5" font-family="Helvetica,sans-Serif" font-size="10.00">lua_settop</text>
</a>
</g>
</g>
<!-- Node454&#45;&gt;Node455 -->
<g id="edge29" class="edge"><title>Node454&#45;&gt;Node455</title>
<path fill="none" stroke="midnightblue" d="M207.051,-466C220.153,-466 238.218,-466 254.569,-466"/>
<polygon fill="midnightblue" stroke="midnightblue" points="254.997,-469.5 264.997,-466 254.997,-462.5 254.997,-469.5"/>
</g>
<!-- Node456 -->
<g id="node32" class="node"><title>Node456</title>
<g id="a_node32"><a xlink:href="lauxlib_8c.html#a6c51d83d29244779392551388913e08a" target="_top" xlink:title=" ">
<polygon fill="white" stroke="black" points="266.5,-152.5 266.5,-171.5 325.5,-171.5 325.5,-152.5 266.5,-152.5"/>
<text text-anchor="middle" x="296" y="-159.5" font-family="Helvetica,sans-Serif" font-size="10.00">luaL_error</text>
</a>
</g>
</g>
<!-- Node454&#45;&gt;Node456 -->
<g id="edge34" class="edge"><title>Node454&#45;&gt;Node456</title>
<path fill="none" stroke="midnightblue" d="M191.923,-456.23C207.039,-413.081 267.966,-239.167 288.332,-181.032"/>
<polygon fill="midnightblue" stroke="midnightblue" points="291.64,-182.177 291.643,-171.582 285.034,-179.863 291.64,-182.177"/>
</g>
<!-- Node470 -->
<g id="node43" class="node"><title>Node470</title>
<g id="a_node43"><a xlink:href="lauxlib_8c.html#add7cea31816ff3f61014031248e0daa6" target="_top" xlink:title=" ">
<polygon fill="white" stroke="black" points="250,-333.5 250,-352.5 342,-352.5 342,-333.5 250,-333.5"/>
<text text-anchor="middle" x="296" y="-340.5" font-family="Helvetica,sans-Serif" font-size="10.00">luaL_getmetafield</text>
</a>
</g>
</g>
<!-- Node454&#45;&gt;Node470 -->
<g id="edge48" class="edge"><title>Node454&#45;&gt;Node470</title>
<path fill="none" stroke="midnightblue" d="M196.857,-456.348C214.821,-435.601 257.325,-386.512 280.054,-360.262"/>
<polygon fill="midnightblue" stroke="midnightblue" points="282.782,-362.458 286.682,-352.607 277.49,-357.876 282.782,-362.458"/>
</g>
<!-- Node73 -->
<g id="node29" class="node"><title>Node73</title>
<g id="a_node29"><a xlink:href="lfunc_8c.html#ae9fcbf80b5969afd9412b9aed102f94e" target="_top" xlink:title=" ">
<polygon fill="white" stroke="black" points="395.5,-456.5 395.5,-475.5 459.5,-475.5 459.5,-456.5 395.5,-456.5"/>
<text text-anchor="middle" x="427.5" y="-463.5" font-family="Helvetica,sans-Serif" font-size="10.00">luaF_close</text>
</a>
</g>
</g>
<!-- Node455&#45;&gt;Node73 -->
<g id="edge30" class="edge"><title>Node455&#45;&gt;Node73</title>
<path fill="none" stroke="midnightblue" d="M327.035,-466C344.309,-466 366.263,-466 385.148,-466"/>
<polygon fill="midnightblue" stroke="midnightblue" points="385.276,-469.5 395.275,-466 385.275,-462.5 385.276,-469.5"/>
</g>
<!-- Node74 -->
<g id="node30" class="node"><title>Node74</title>
<g id="a_node30"><a xlink:href="lfunc_8c.html#a4105c820bb9b1b4b4b3bd6613b0ccb05" target="_top" xlink:title=" ">
<polygon fill="white" stroke="red" points="521.5,-437.5 521.5,-456.5 592.5,-456.5 592.5,-437.5 521.5,-437.5"/>
<text text-anchor="middle" x="557" y="-444.5" font-family="Helvetica,sans-Serif" font-size="10.00">callclosemth</text>
</a>
</g>
</g>
<!-- Node73&#45;&gt;Node74 -->
<g id="edge31" class="edge"><title>Node73&#45;&gt;Node74</title>
<path fill="none" stroke="midnightblue" d="M459.69,-461.352C475.075,-459.059 493.919,-456.251 510.845,-453.729"/>
<polygon fill="midnightblue" stroke="midnightblue" points="511.714,-457.138 521.089,-452.202 510.682,-450.215 511.714,-457.138"/>
</g>
<!-- Node88 -->
<g id="node31" class="node"><title>Node88</title>
<g id="a_node31"><a xlink:href="lfunc_8c.html#a3b5a5ae122e85af5c941e9b4ffff53bd" target="_top" xlink:title=" ">
<polygon fill="white" stroke="black" points="513,-475.5 513,-494.5 601,-494.5 601,-475.5 513,-475.5"/>
<text text-anchor="middle" x="557" y="-482.5" font-family="Helvetica,sans-Serif" font-size="10.00">luaF_unlinkupval</text>
</a>
</g>
</g>
<!-- Node73&#45;&gt;Node88 -->
<g id="edge32" class="edge"><title>Node73&#45;&gt;Node88</title>
<path fill="none" stroke="midnightblue" d="M459.69,-470.648C472.628,-472.576 488.013,-474.869 502.646,-477.049"/>
<polygon fill="midnightblue" stroke="midnightblue" points="502.211,-480.523 512.617,-478.535 503.243,-473.599 502.211,-480.523"/>
</g>
<!-- Node457 -->
<g id="node33" class="node"><title>Node457</title>
<g id="a_node33"><a xlink:href="lapi_8c.html#a1de3afee1daece63d455f23818c883d9" target="_top" xlink:title=" ">
<polygon fill="white" stroke="black" points="395.5,-152.5 395.5,-171.5 459.5,-171.5 459.5,-152.5 395.5,-152.5"/>
<text text-anchor="middle" x="427.5" y="-159.5" font-family="Helvetica,sans-Serif" font-size="10.00">lua_concat</text>
</a>
</g>
</g>
<!-- Node456&#45;&gt;Node457 -->
<g id="edge35" class="edge"><title>Node456&#45;&gt;Node457</title>
<path fill="none" stroke="midnightblue" d="M325.74,-162C343.173,-162 365.713,-162 385.052,-162"/>
<polygon fill="midnightblue" stroke="midnightblue" points="385.121,-165.5 395.121,-162 385.121,-158.5 385.121,-165.5"/>
</g>
<!-- Node458 -->
<g id="node35" class="node"><title>Node458</title>
<g id="a_node35"><a xlink:href="lapi_8c.html#a6ba7b91143fe8a03910420d800de8e97" target="_top" xlink:title=" ">
<polygon fill="white" stroke="black" points="400.5,-199.5 400.5,-218.5 454.5,-218.5 454.5,-199.5 400.5,-199.5"/>
<text text-anchor="middle" x="427.5" y="-206.5" font-family="Helvetica,sans-Serif" font-size="10.00">lua_error</text>
</a>
</g>
</g>
<!-- Node456&#45;&gt;Node458 -->
<g id="edge39" class="edge"><title>Node456&#45;&gt;Node458</title>
<path fill="none" stroke="midnightblue" d="M323.206,-171.511C342.69,-178.582 369.494,-188.311 390.915,-196.085"/>
<polygon fill="midnightblue" stroke="midnightblue" points="389.739,-199.381 400.333,-199.503 392.127,-192.801 389.739,-199.381"/>
</g>
<!-- Node459 -->
<g id="node37" class="node"><title>Node459</title>
<g id="a_node37"><a xlink:href="lapi_8c.html#a426c9cb1d582be3e43060c4772854e5a" target="_top" xlink:title=" ">
<polygon fill="white" stroke="black" points="384.5,-10.5 384.5,-29.5 470.5,-29.5 470.5,-10.5 384.5,-10.5"/>
<text text-anchor="middle" x="427.5" y="-17.5" font-family="Helvetica,sans-Serif" font-size="10.00">lua_pushvfstring</text>
</a>
</g>
</g>
<!-- Node456&#45;&gt;Node459 -->
<g id="edge41" class="edge"><title>Node456&#45;&gt;Node459</title>
<path fill="none" stroke="midnightblue" d="M304.757,-152.301C318.853,-134.815 349.822,-97.0316 378,-67 387.68,-56.6831 399.009,-45.6508 408.282,-36.8692"/>
<polygon fill="midnightblue" stroke="midnightblue" points="410.912,-39.2011 415.809,-29.8059 406.122,-34.0966 410.912,-39.2011"/>
</g>
<!-- Node460 -->
<g id="node39" class="node"><title>Node460</title>
<g id="a_node39"><a xlink:href="lauxlib_8c.html#a0f4d3c30c07eae36aa25605df84279a0" target="_top" xlink:title=" ">
<polygon fill="white" stroke="black" points="395,-76.5 395,-95.5 460,-95.5 460,-76.5 395,-76.5"/>
<text text-anchor="middle" x="427.5" y="-83.5" font-family="Helvetica,sans-Serif" font-size="10.00">luaL_where</text>
</a>
</g>
</g>
<!-- Node456&#45;&gt;Node460 -->
<g id="edge43" class="edge"><title>Node456&#45;&gt;Node460</title>
<path fill="none" stroke="midnightblue" d="M313.401,-152.375C335.587,-139.355 375.366,-116.009 401.344,-100.764"/>
<polygon fill="midnightblue" stroke="midnightblue" points="403.379,-103.627 410.232,-95.5473 399.836,-97.5902 403.379,-103.627"/>
</g>
<!-- Node457&#45;&gt;Node21 -->
<g id="edge36" class="edge"><title>Node457&#45;&gt;Node21</title>
<path fill="none" stroke="midnightblue" d="M459.571,-156.507C494.777,-151.525 553.44,-147.019 601,-162 626.012,-169.879 650.031,-188.471 665.433,-202.292"/>
<polygon fill="midnightblue" stroke="midnightblue" points="663.348,-205.133 673.054,-209.381 668.116,-200.007 663.348,-205.133"/>
</g>
<!-- Node394 -->
<g id="node34" class="node"><title>Node394</title>
<g id="a_node34"><a xlink:href="lvm_8c.html#a2f076040af405dcb50d661edd692eca7" target="_top" xlink:title=" ">
<polygon fill="white" stroke="red" points="521.5,-171.5 521.5,-190.5 592.5,-190.5 592.5,-171.5 521.5,-171.5"/>
<text text-anchor="middle" x="557" y="-178.5" font-family="Helvetica,sans-Serif" font-size="10.00">luaV_concat</text>
</a>
</g>
</g>
<!-- Node457&#45;&gt;Node394 -->
<g id="edge37" class="edge"><title>Node457&#45;&gt;Node394</title>
<path fill="none" stroke="midnightblue" d="M459.69,-166.648C475.075,-168.941 493.919,-171.749 510.845,-174.271"/>
<polygon fill="midnightblue" stroke="midnightblue" points="510.682,-177.785 521.089,-175.798 511.714,-170.862 510.682,-177.785"/>
</g>
<!-- Node394&#45;&gt;Node21 -->
<g id="edge38" class="edge"><title>Node394&#45;&gt;Node21</title>
<path fill="none" stroke="midnightblue" d="M589.417,-190.589C605.193,-195.404 624.505,-201.299 641.441,-206.468"/>
<polygon fill="midnightblue" stroke="midnightblue" points="640.507,-209.842 651.093,-209.414 642.551,-203.147 640.507,-209.842"/>
</g>
<!-- Node445 -->
<g id="node36" class="node"><title>Node445</title>
<g id="a_node36"><a xlink:href="ldebug_8c.html#af7366920f8408bb33ed01b1d6c0e1238" target="_top" xlink:title=" ">
<polygon fill="white" stroke="red" points="517,-209.5 517,-228.5 597,-228.5 597,-209.5 517,-209.5"/>
<text text-anchor="middle" x="557" y="-216.5" font-family="Helvetica,sans-Serif" font-size="10.00">luaG_errormsg</text>
</a>
</g>
</g>
<!-- Node458&#45;&gt;Node445 -->
<g id="edge40" class="edge"><title>Node458&#45;&gt;Node445</title>
<path fill="none" stroke="midnightblue" d="M454.609,-211.048C469.591,-212.223 488.894,-213.737 506.631,-215.128"/>
<polygon fill="midnightblue" stroke="midnightblue" points="506.605,-218.637 516.848,-215.929 507.152,-211.658 506.605,-218.637"/>
</g>
<!-- Node16 -->
<g id="node38" class="node"><title>Node16</title>
<g id="a_node38"><a xlink:href="lobject_8c.html#aa83fa444a36d79521e846a766fa083d5" target="_top" xlink:title=" ">
<polygon fill="white" stroke="red" points="637,-0.5 637,-19.5 730,-19.5 730,-0.5 637,-0.5"/>
<text text-anchor="middle" x="683.5" y="-7.5" font-family="Helvetica,sans-Serif" font-size="10.00">luaO_pushvfstring</text>
</a>
</g>
</g>
<!-- Node459&#45;&gt;Node16 -->
<g id="edge42" class="edge"><title>Node459&#45;&gt;Node16</title>
<path fill="none" stroke="midnightblue" d="M470.535,-14.0366C484.063,-12.3828 499.138,-10.8174 513,-10 550.773,-7.77269 593.363,-7.78285 626.402,-8.34472"/>
<polygon fill="midnightblue" stroke="midnightblue" points="626.709,-11.8512 636.775,-8.5444 626.844,-4.85249 626.709,-11.8512"/>
</g>
<!-- Node461 -->
<g id="node40" class="node"><title>Node461</title>
<g id="a_node40"><a xlink:href="ldebug_8c.html#acaafc35d8e385c4d167229486165df6d" target="_top" xlink:title=" ">
<polygon fill="white" stroke="red" points="525.5,-95.5 525.5,-114.5 588.5,-114.5 588.5,-95.5 525.5,-95.5"/>
<text text-anchor="middle" x="557" y="-102.5" font-family="Helvetica,sans-Serif" font-size="10.00">lua_getinfo</text>
</a>
</g>
</g>
<!-- Node460&#45;&gt;Node461 -->
<g id="edge44" class="edge"><title>Node460&#45;&gt;Node461</title>
<path fill="none" stroke="midnightblue" d="M460.017,-90.6966C476.739,-93.1885 497.476,-96.2787 515.391,-98.9485"/>
<polygon fill="midnightblue" stroke="midnightblue" points="514.879,-102.411 525.286,-100.423 515.911,-95.4872 514.879,-102.411"/>
</g>
<!-- Node468 -->
<g id="node41" class="node"><title>Node468</title>
<g id="a_node41"><a xlink:href="ldebug_8c.html#ac1fc03c27ee46caa4037df2d70f22110" target="_top" xlink:title=" ">
<polygon fill="white" stroke="black" points="521,-57.5 521,-76.5 593,-76.5 593,-57.5 521,-57.5"/>
<text text-anchor="middle" x="557" y="-64.5" font-family="Helvetica,sans-Serif" font-size="10.00">lua_getstack</text>
</a>
</g>
</g>
<!-- Node460&#45;&gt;Node468 -->
<g id="edge45" class="edge"><title>Node460&#45;&gt;Node468</title>
<path fill="none" stroke="midnightblue" d="M460.017,-81.3034C475.284,-79.0283 493.898,-76.2544 510.656,-73.7571"/>
<polygon fill="midnightblue" stroke="midnightblue" points="511.429,-77.1807 520.804,-72.2449 510.397,-70.2571 511.429,-77.1807"/>
</g>
<!-- Node469 -->
<g id="node42" class="node"><title>Node469</title>
<g id="a_node42"><a xlink:href="lapi_8c.html#ab190c226d38b289e6ca57683a9d4e0f0" target="_top" xlink:title=" ">
<polygon fill="white" stroke="black" points="516,-19.5 516,-38.5 598,-38.5 598,-19.5 516,-19.5"/>
<text text-anchor="middle" x="557" y="-26.5" font-family="Helvetica,sans-Serif" font-size="10.00">lua_pushfstring</text>
</a>
</g>
</g>
<!-- Node460&#45;&gt;Node469 -->
<g id="edge46" class="edge"><title>Node460&#45;&gt;Node469</title>
<path fill="none" stroke="midnightblue" d="M449.666,-76.4354C466.747,-68.7279 491.403,-57.6273 513,-48 516.858,-46.2803 520.913,-44.4795 524.928,-42.7006"/>
<polygon fill="midnightblue" stroke="midnightblue" points="526.383,-45.8842 534.113,-38.6381 523.551,-39.4825 526.383,-45.8842"/>
</g>
<!-- Node469&#45;&gt;Node16 -->
<g id="edge47" class="edge"><title>Node469&#45;&gt;Node16</title>
<path fill="none" stroke="midnightblue" d="M598.078,-22.8837C607.258,-21.4827 617.178,-19.9689 626.88,-18.4882"/>
<polygon fill="midnightblue" stroke="midnightblue" points="627.515,-21.9319 636.873,-16.9632 626.459,-15.012 627.515,-21.9319"/>
</g>
<!-- Node471 -->
<g id="node44" class="node"><title>Node471</title>
<g id="a_node44"><a xlink:href="lapi_8c.html#a4caa9ca5e47a30bd45e33d83bf2d6d6e" target="_top" xlink:title=" ">
<polygon fill="white" stroke="black" points="382,-309.5 382,-328.5 473,-328.5 473,-309.5 382,-309.5"/>
<text text-anchor="middle" x="427.5" y="-316.5" font-family="Helvetica,sans-Serif" font-size="10.00">lua_getmetatable</text>
</a>
</g>
</g>
<!-- Node470&#45;&gt;Node471 -->
<g id="edge49" class="edge"><title>Node470&#45;&gt;Node471</title>
<path fill="none" stroke="midnightblue" d="M342.293,-334.606C351.82,-332.84 361.967,-330.96 371.798,-329.138"/>
<polygon fill="midnightblue" stroke="midnightblue" points="372.693,-332.532 381.888,-327.268 371.418,-325.649 372.693,-332.532"/>
</g>
<!-- Node472 -->
<g id="node45" class="node"><title>Node472</title>
<g id="a_node45"><a xlink:href="lapi_8c.html#a771d300f2e64b2197d1df9bf31660ebf" target="_top" xlink:title=" ">
<polygon fill="white" stroke="black" points="387.5,-252.5 387.5,-271.5 467.5,-271.5 467.5,-252.5 387.5,-252.5"/>
<text text-anchor="middle" x="427.5" y="-259.5" font-family="Helvetica,sans-Serif" font-size="10.00">lua_pushstring</text>
</a>
</g>
</g>
<!-- Node470&#45;&gt;Node472 -->
<g id="edge51" class="edge"><title>Node470&#45;&gt;Node472</title>
<path fill="none" stroke="midnightblue" d="M312.364,-333.39C334.659,-319.445 376.186,-293.471 402.528,-276.994"/>
<polygon fill="midnightblue" stroke="midnightblue" points="404.534,-279.868 411.156,-271.597 400.822,-273.933 404.534,-279.868"/>
</g>
<!-- Node473 -->
<g id="node47" class="node"><title>Node473</title>
<g id="a_node47"><a xlink:href="lapi_8c.html#a52944e714d1c64bda7b83f511c14b2d3" target="_top" xlink:title=" ">
<polygon fill="white" stroke="black" points="396,-356.5 396,-375.5 459,-375.5 459,-356.5 396,-356.5"/>
<text text-anchor="middle" x="427.5" y="-363.5" font-family="Helvetica,sans-Serif" font-size="10.00">lua_rawget</text>
</a>
</g>
</g>
<!-- Node470&#45;&gt;Node473 -->
<g id="edge54" class="edge"><title>Node470&#45;&gt;Node473</title>
<path fill="none" stroke="midnightblue" d="M342.293,-351.044C356.358,-353.542 371.774,-356.28 385.528,-358.723"/>
<polygon fill="midnightblue" stroke="midnightblue" points="385.214,-362.222 395.672,-360.525 386.438,-355.33 385.214,-362.222"/>
</g>
<!-- Node471&#45;&gt;Node449 -->
<g id="edge50" class="edge"><title>Node471&#45;&gt;Node449</title>
<path fill="none" stroke="midnightblue" d="M454.827,-309.414C491.144,-298.002 557.093,-283.995 601,-314 665.052,-357.772 678.769,-459.968 681.704,-503.163"/>
<polygon fill="midnightblue" stroke="midnightblue" points="678.214,-503.454 682.26,-513.246 685.204,-503.068 678.214,-503.454"/>
</g>
<!-- Node93 -->
<g id="node46" class="node"><title>Node93</title>
<g id="a_node46"><a xlink:href="lstring_8c.html#a6d47e53be6b8e58202bb927752f4824b" target="_top" xlink:title=" ">
<polygon fill="white" stroke="black" points="527.5,-247.5 527.5,-266.5 586.5,-266.5 586.5,-247.5 527.5,-247.5"/>
<text text-anchor="middle" x="557" y="-254.5" font-family="Helvetica,sans-Serif" font-size="10.00">luaS_new</text>
</a>
</g>
</g>
<!-- Node472&#45;&gt;Node93 -->
<g id="edge52" class="edge"><title>Node472&#45;&gt;Node93</title>
<path fill="none" stroke="midnightblue" d="M467.795,-260.459C483.37,-259.848 501.242,-259.147 516.808,-258.537"/>
<polygon fill="midnightblue" stroke="midnightblue" points="517.304,-262.02 527.159,-258.131 517.03,-255.026 517.304,-262.02"/>
</g>
<!-- Node93&#45;&gt;Node21 -->
<g id="edge53" class="edge"><title>Node93&#45;&gt;Node21</title>
<path fill="none" stroke="midnightblue" d="M586.563,-248.282C602.796,-243.327 623.404,-237.037 641.355,-231.558"/>
<polygon fill="midnightblue" stroke="midnightblue" points="642.468,-234.878 651.01,-228.611 640.424,-228.183 642.468,-234.878"/>
</g>
<!-- Node474 -->
<g id="node48" class="node"><title>Node474</title>
<g id="a_node48"><a xlink:href="lapi_8c.html#a33830676158a2e9fde44f07109035425" target="_top" xlink:title=" ">
<polygon fill="white" stroke="black" points="523,-361.5 523,-380.5 591,-380.5 591,-361.5 523,-361.5"/>
<text text-anchor="middle" x="557" y="-368.5" font-family="Helvetica,sans-Serif" font-size="10.00">finishrawget</text>
</a>
</g>
</g>
<!-- Node473&#45;&gt;Node474 -->
<g id="edge55" class="edge"><title>Node473&#45;&gt;Node474</title>
<path fill="none" stroke="midnightblue" d="M459.039,-367.198C475.051,-367.826 494.942,-368.606 512.532,-369.295"/>
<polygon fill="midnightblue" stroke="midnightblue" points="512.447,-372.795 522.576,-369.689 512.721,-365.8 512.447,-372.795"/>
</g>
<!-- Node475 -->
<g id="node49" class="node"><title>Node475</title>
<g id="a_node49"><a xlink:href="lapi_8c.html#a4ebfbcdc1a7a4f0332d4dd532a817212" target="_top" xlink:title=" ">
<polygon fill="white" stroke="black" points="531.5,-399.5 531.5,-418.5 582.5,-418.5 582.5,-399.5 531.5,-399.5"/>
<text text-anchor="middle" x="557" y="-406.5" font-family="Helvetica,sans-Serif" font-size="10.00">gettable</text>
</a>
</g>
</g>
<!-- Node473&#45;&gt;Node475 -->
<g id="edge56" class="edge"><title>Node473&#45;&gt;Node475</title>
<path fill="none" stroke="midnightblue" d="M456.796,-375.543C475.963,-382.007 501.398,-390.585 521.715,-397.437"/>
<polygon fill="midnightblue" stroke="midnightblue" points="520.634,-400.766 531.228,-400.645 522.871,-394.133 520.634,-400.766"/>
</g>
<!-- Node145 -->
<g id="node50" class="node"><title>Node145</title>
<g id="a_node50"><a xlink:href="ltable_8c.html#a8b4fce00d7db27ee9caac3d49863dea3" target="_top" xlink:title=" ">
<polygon fill="white" stroke="red" points="529.5,-323.5 529.5,-342.5 584.5,-342.5 584.5,-323.5 529.5,-323.5"/>
<text text-anchor="middle" x="557" y="-330.5" font-family="Helvetica,sans-Serif" font-size="10.00">luaH_get</text>
</a>
</g>
</g>
<!-- Node473&#45;&gt;Node145 -->
<g id="edge58" class="edge"><title>Node473&#45;&gt;Node145</title>
<path fill="none" stroke="midnightblue" d="M459.039,-358.096C477.149,-353.408 500.22,-347.437 519.314,-342.495"/>
<polygon fill="midnightblue" stroke="midnightblue" points="520.367,-345.838 529.171,-339.944 518.613,-339.061 520.367,-345.838"/>
</g>
<!-- Node475&#45;&gt;Node449 -->
<g id="edge57" class="edge"><title>Node475&#45;&gt;Node449</title>
<path fill="none" stroke="midnightblue" d="M582.696,-417.669C588.975,-420.461 595.497,-423.912 601,-428 630.347,-449.8 656.32,-483.975 670.679,-504.845"/>
<polygon fill="midnightblue" stroke="midnightblue" points="667.948,-507.057 676.429,-513.406 673.758,-503.153 667.948,-507.057"/>
</g>
</g>
</svg>
