<?xml version="1.0" encoding="UTF-8" standalone="no"?>
<!DOCTYPE svg PUBLIC "-//W3C//DTD SVG 1.1//EN"
 "http://www.w3.org/Graphics/SVG/1.1/DTD/svg11.dtd">
<!-- Generated by graphviz version 2.38.0 (20140413.2041)
 -->
<!-- Title: luaS_newudata Pages: 1 -->
<svg width="1035pt" height="1206pt"
 viewBox="0.00 0.00 1035.00 1206.00" xmlns="http://www.w3.org/2000/svg" xmlns:xlink="http://www.w3.org/1999/xlink">
<g id="graph0" class="graph" transform="scale(1 1) rotate(0) translate(4 1202)">
<title>luaS_newudata</title>
<polygon fill="white" stroke="none" points="-4,4 -4,-1202 1031,-1202 1031,4 -4,4"/>
<!-- Node1 -->
<g id="node1" class="node"><title>Node1</title>
<g id="a_node1"><a xlink:title=" ">
<polygon fill="#bfbfbf" stroke="black" points="944,-95.5 944,-114.5 1027,-114.5 1027,-95.5 944,-95.5"/>
<text text-anchor="middle" x="985.5" y="-102.5" font-family="Helvetica,sans-Serif" font-size="10.00">luaS_newudata</text>
</a>
</g>
</g>
<!-- Node2 -->
<g id="node2" class="node"><title>Node2</title>
<g id="a_node2"><a xlink:href="lua_8h.html#a77a7f314b801aa279d602da51ee9601b" target="_top" xlink:title=" ">
<polygon fill="white" stroke="black" points="810,-95.5 810,-114.5 908,-114.5 908,-95.5 810,-95.5"/>
<text text-anchor="middle" x="859" y="-102.5" font-family="Helvetica,sans-Serif" font-size="10.00">lua_newuserdatauv</text>
</a>
</g>
</g>
<!-- Node1&#45;&gt;Node2 -->
<g id="edge1" class="edge"><title>Node1&#45;&gt;Node2</title>
<path fill="none" stroke="midnightblue" d="M933.665,-105C925.259,-105 916.564,-105 908.224,-105"/>
<polygon fill="midnightblue" stroke="midnightblue" points="933.734,-108.5 943.734,-105 933.734,-101.5 933.734,-108.5"/>
</g>
<!-- Node3 -->
<g id="node3" class="node"><title>Node3</title>
<g id="a_node3"><a xlink:href="lstrlib_8c.html#ab55a72bb412d6186c82fd75de44cd031" target="_top" xlink:title=" ">
<polygon fill="white" stroke="black" points="716,-152.5 716,-171.5 765,-171.5 765,-152.5 716,-152.5"/>
<text text-anchor="middle" x="740.5" y="-159.5" font-family="Helvetica,sans-Serif" font-size="10.00">gmatch</text>
</a>
</g>
</g>
<!-- Node2&#45;&gt;Node3 -->
<g id="edge2" class="edge"><title>Node2&#45;&gt;Node3</title>
<path fill="none" stroke="midnightblue" d="M829.31,-119.037C808.084,-129.422 779.734,-143.293 761.063,-152.428"/>
<polygon fill="midnightblue" stroke="midnightblue" points="831.056,-122.079 838.501,-114.541 827.98,-115.792 831.056,-122.079"/>
</g>
<!-- Node4 -->
<g id="node4" class="node"><title>Node4</title>
<g id="a_node4"><a xlink:href="lauxlib_8c.html#a22714b3538a1ad6943014db449d4ed19" target="_top" xlink:title=" ">
<polygon fill="white" stroke="black" points="715.5,-114.5 715.5,-133.5 765.5,-133.5 765.5,-114.5 715.5,-114.5"/>
<text text-anchor="middle" x="740.5" y="-121.5" font-family="Helvetica,sans-Serif" font-size="10.00">newbox</text>
</a>
</g>
</g>
<!-- Node2&#45;&gt;Node4 -->
<g id="edge3" class="edge"><title>Node2&#45;&gt;Node4</title>
<path fill="none" stroke="midnightblue" d="M799.813,-114.49C787.699,-116.465 775.581,-118.442 765.555,-120.077"/>
<polygon fill="midnightblue" stroke="midnightblue" points="800.636,-117.902 809.942,-112.838 799.509,-110.993 800.636,-117.902"/>
</g>
<!-- Node68 -->
<g id="node39" class="node"><title>Node68</title>
<g id="a_node39"><a xlink:href="liolib_8c.html#ab456fc51383d039a5a24c702060aba8e" target="_top" xlink:title=" ">
<polygon fill="white" stroke="black" points="711,-76.5 711,-95.5 770,-95.5 770,-76.5 711,-76.5"/>
<text text-anchor="middle" x="740.5" y="-83.5" font-family="Helvetica,sans-Serif" font-size="10.00">newprefile</text>
</a>
</g>
</g>
<!-- Node2&#45;&gt;Node68 -->
<g id="edge56" class="edge"><title>Node2&#45;&gt;Node68</title>
<path fill="none" stroke="midnightblue" d="M800.016,-95.5433C789.613,-93.8468 779.2,-92.1484 770.102,-90.6646"/>
<polygon fill="midnightblue" stroke="midnightblue" points="799.509,-99.0069 809.942,-97.1623 800.636,-92.0982 799.509,-99.0069"/>
</g>
<!-- Node79 -->
<g id="node49" class="node"><title>Node79</title>
<g id="a_node49"><a xlink:href="lmathlib_8c.html#aec3434532c7149fc0d3fff7ac86e6fbb" target="_top" xlink:title=" ">
<polygon fill="white" stroke="black" points="707,-19.5 707,-38.5 774,-38.5 774,-19.5 707,-19.5"/>
<text text-anchor="middle" x="740.5" y="-26.5" font-family="Helvetica,sans-Serif" font-size="10.00">setrandfunc</text>
</a>
</g>
</g>
<!-- Node2&#45;&gt;Node79 -->
<g id="edge66" class="edge"><title>Node2&#45;&gt;Node79</title>
<path fill="none" stroke="midnightblue" d="M834.609,-89.7408C811.182,-74.4578 775.855,-51.412 756.135,-38.5473"/>
<polygon fill="midnightblue" stroke="midnightblue" points="832.957,-92.8421 843.245,-95.3745 836.782,-86.9793 832.957,-92.8421"/>
</g>
<!-- Node5 -->
<g id="node5" class="node"><title>Node5</title>
<g id="a_node5"><a xlink:href="lauxlib_8c.html#a96b72c2bee2d49148b93676ea09818a5" target="_top" xlink:title=" ">
<polygon fill="white" stroke="black" points="598.5,-513.5 598.5,-532.5 666.5,-532.5 666.5,-513.5 598.5,-513.5"/>
<text text-anchor="middle" x="632.5" y="-520.5" font-family="Helvetica,sans-Serif" font-size="10.00">prepbuffsize</text>
</a>
</g>
</g>
<!-- Node4&#45;&gt;Node5 -->
<g id="edge4" class="edge"><title>Node4&#45;&gt;Node5</title>
<path fill="none" stroke="midnightblue" d="M709.449,-139.996C708.566,-140.949 707.744,-141.95 707,-143 662.521,-205.778 638.804,-460.313 634.296,-513.306"/>
<polygon fill="midnightblue" stroke="midnightblue" points="711.691,-142.684 717.15,-133.603 707.22,-137.298 711.691,-142.684"/>
</g>
<!-- Node6 -->
<g id="node6" class="node"><title>Node6</title>
<g id="a_node6"><a xlink:href="lauxlib_8h.html#a06fceedb3abb1272566ca22c96e34b95" target="_top" xlink:title=" ">
<polygon fill="white" stroke="black" points="471,-779.5 471,-798.5 553,-798.5 553,-779.5 471,-779.5"/>
<text text-anchor="middle" x="512" y="-786.5" font-family="Helvetica,sans-Serif" font-size="10.00">luaL_addlstring</text>
</a>
</g>
</g>
<!-- Node5&#45;&gt;Node6 -->
<g id="edge5" class="edge"><title>Node5&#45;&gt;Node6</title>
<path fill="none" stroke="midnightblue" d="M623.042,-541.986C599.632,-594.534 534.576,-740.568 517.273,-779.409"/>
<polygon fill="midnightblue" stroke="midnightblue" points="626.27,-543.341 627.142,-532.783 619.875,-540.493 626.27,-543.341"/>
</g>
<!-- Node48 -->
<g id="node26" class="node"><title>Node48</title>
<g id="a_node26"><a xlink:href="lauxlib_8h.html#aeeb03d69681da0ec0e952b582ce3841c" target="_top" xlink:title=" ">
<polygon fill="white" stroke="black" points="473.5,-513.5 473.5,-532.5 550.5,-532.5 550.5,-513.5 473.5,-513.5"/>
<text text-anchor="middle" x="512" y="-520.5" font-family="Helvetica,sans-Serif" font-size="10.00">luaL_addvalue</text>
</a>
</g>
</g>
<!-- Node5&#45;&gt;Node48 -->
<g id="edge32" class="edge"><title>Node5&#45;&gt;Node48</title>
<path fill="none" stroke="midnightblue" d="M588.443,-523C576.136,-523 562.82,-523 550.851,-523"/>
<polygon fill="midnightblue" stroke="midnightblue" points="588.491,-526.5 598.491,-523 588.491,-519.5 588.491,-526.5"/>
</g>
<!-- Node51 -->
<g id="node29" class="node"><title>Node51</title>
<g id="a_node29"><a xlink:href="lauxlib_8h.html#ab8f18fe563cab9ea411ae84d2c1c2518" target="_top" xlink:title=" ">
<polygon fill="white" stroke="black" points="469,-285.5 469,-304.5 555,-304.5 555,-285.5 469,-285.5"/>
<text text-anchor="middle" x="512" y="-292.5" font-family="Helvetica,sans-Serif" font-size="10.00">luaL_buffinitsize</text>
</a>
</g>
</g>
<!-- Node5&#45;&gt;Node51 -->
<g id="edge42" class="edge"><title>Node5&#45;&gt;Node51</title>
<path fill="none" stroke="midnightblue" d="M621.928,-504.582C597.951,-458.449 535.952,-339.161 517.962,-304.547"/>
<polygon fill="midnightblue" stroke="midnightblue" points="618.842,-506.234 626.559,-513.493 625.053,-503.006 618.842,-506.234"/>
</g>
<!-- Node57 -->
<g id="node35" class="node"><title>Node57</title>
<g id="a_node35"><a xlink:href="lauxlib_8h.html#a0fb6d10de24960ceed452061b47c2c06" target="_top" xlink:title=" ">
<polygon fill="white" stroke="black" points="466,-1064.5 466,-1083.5 558,-1083.5 558,-1064.5 466,-1064.5"/>
<text text-anchor="middle" x="512" y="-1071.5" font-family="Helvetica,sans-Serif" font-size="10.00">luaL_prepbuffsize</text>
</a>
</g>
</g>
<!-- Node5&#45;&gt;Node57 -->
<g id="edge48" class="edge"><title>Node5&#45;&gt;Node57</title>
<path fill="none" stroke="midnightblue" d="M627.325,-542.413C608.175,-631.455 529.084,-999.213 515.113,-1064.17"/>
<polygon fill="midnightblue" stroke="midnightblue" points="630.762,-543.076 629.443,-532.564 623.919,-541.604 630.762,-543.076"/>
</g>
<!-- Node7 -->
<g id="node7" class="node"><title>Node7</title>
<g id="a_node7"><a xlink:href="lstrlib_8c.html#ad5f7e3fbcadc8825f7f650ecf458fc72" target="_top" xlink:title=" ">
<polygon fill="white" stroke="black" points="368.5,-608.5 368.5,-627.5 411.5,-627.5 411.5,-608.5 368.5,-608.5"/>
<text text-anchor="middle" x="390" y="-615.5" font-family="Helvetica,sans-Serif" font-size="10.00">add_s</text>
</a>
</g>
</g>
<!-- Node6&#45;&gt;Node7 -->
<g id="edge6" class="edge"><title>Node6&#45;&gt;Node7</title>
<path fill="none" stroke="midnightblue" d="M498.182,-770.734C472.818,-734.591 417.016,-655.073 397.721,-627.577"/>
<polygon fill="midnightblue" stroke="midnightblue" points="495.595,-773.141 504.204,-779.316 501.325,-769.12 495.595,-773.141"/>
</g>
<!-- Node8 -->
<g id="node8" class="node"><title>Node8</title>
<g id="a_node8"><a xlink:href="lstrlib_8c.html#a853703c83ab694a70212461d5cfe7843" target="_top" xlink:title=" ">
<polygon fill="white" stroke="black" points="243,-608.5 243,-627.5 302,-627.5 302,-608.5 243,-608.5"/>
<text text-anchor="middle" x="272.5" y="-615.5" font-family="Helvetica,sans-Serif" font-size="10.00">add_value</text>
</a>
</g>
</g>
<!-- Node6&#45;&gt;Node8 -->
<g id="edge9" class="edge"><title>Node6&#45;&gt;Node8</title>
<path fill="none" stroke="midnightblue" d="M490.85,-772.842C455.755,-744.959 380.775,-686.517 314,-642 306.52,-637.013 297.99,-631.881 290.694,-627.648"/>
<polygon fill="midnightblue" stroke="midnightblue" points="488.882,-775.749 498.883,-779.246 493.245,-770.276 488.882,-775.749"/>
</g>
<!-- Node9 -->
<g id="node9" class="node"><title>Node9</title>
<g id="a_node9"><a xlink:href="lstrlib_8c.html#a42337c674d265175bcc2b2f3809c7339" target="_top" xlink:title=" ">
<polygon fill="white" stroke="black" points="121,-627.5 121,-646.5 175,-646.5 175,-627.5 121,-627.5"/>
<text text-anchor="middle" x="148" y="-634.5" font-family="Helvetica,sans-Serif" font-size="10.00">str_gsub</text>
</a>
</g>
</g>
<!-- Node6&#45;&gt;Node9 -->
<g id="edge27" class="edge"><title>Node6&#45;&gt;Node9</title>
<path fill="none" stroke="midnightblue" d="M476.198,-775.684C442.359,-761.893 390.309,-738.398 350,-710 331.757,-697.148 333.596,-685.676 314,-675 269.084,-650.53 209,-641.769 175.117,-638.667"/>
<polygon fill="midnightblue" stroke="midnightblue" points="475.074,-779.004 485.658,-779.48 477.681,-772.508 475.074,-779.004"/>
</g>
<!-- Node10 -->
<g id="node10" class="node"><title>Node10</title>
<g id="a_node10"><a xlink:href="lauxlib_8h.html#a5dcf12b98ab3ef52b7885a27f48fadea" target="_top" xlink:title=" ">
<polygon fill="white" stroke="black" points="234,-836.5 234,-855.5 311,-855.5 311,-836.5 234,-836.5"/>
<text text-anchor="middle" x="272.5" y="-843.5" font-family="Helvetica,sans-Serif" font-size="10.00">luaL_addgsub</text>
</a>
</g>
</g>
<!-- Node6&#45;&gt;Node10 -->
<g id="edge10" class="edge"><title>Node6&#45;&gt;Node10</title>
<path fill="none" stroke="midnightblue" d="M485.56,-803.5C469.998,-811.71 449.41,-821.424 430,-827 390.41,-838.373 343.28,-842.94 311.159,-844.774"/>
<polygon fill="midnightblue" stroke="midnightblue" points="487.419,-806.473 494.544,-798.633 484.084,-800.319 487.419,-806.473"/>
</g>
<!-- Node22 -->
<g id="node14" class="node"><title>Node22</title>
<g id="a_node14"><a xlink:href="lauxlib_8h.html#ad9c038f6e108e216011aca1801f84f44" target="_top" xlink:title=" ">
<polygon fill="white" stroke="black" points="350,-798.5 350,-817.5 430,-817.5 430,-798.5 350,-798.5"/>
<text text-anchor="middle" x="390" y="-805.5" font-family="Helvetica,sans-Serif" font-size="10.00">luaL_addstring</text>
</a>
</g>
</g>
<!-- Node6&#45;&gt;Node22 -->
<g id="edge16" class="edge"><title>Node6&#45;&gt;Node22</title>
<path fill="none" stroke="midnightblue" d="M460.685,-796.967C450.489,-798.581 439.91,-800.256 430.168,-801.798"/>
<polygon fill="midnightblue" stroke="midnightblue" points="461.378,-800.4 470.708,-795.38 460.284,-793.487 461.378,-800.4"/>
</g>
<!-- Node42 -->
<g id="node20" class="node"><title>Node42</title>
<g id="a_node20"><a xlink:href="loadlib_8c.html#ad3773b767d767b19dc36cab61cf5c57d" target="_top" xlink:title=" ">
<polygon fill="white" stroke="black" points="248,-874.5 248,-893.5 297,-893.5 297,-874.5 248,-874.5"/>
<text text-anchor="middle" x="272.5" y="-881.5" font-family="Helvetica,sans-Serif" font-size="10.00">setpath</text>
</a>
</g>
</g>
<!-- Node6&#45;&gt;Node42 -->
<g id="edge26" class="edge"><title>Node6&#45;&gt;Node42</title>
<path fill="none" stroke="midnightblue" d="M493.11,-805.351C477.532,-818.732 453.774,-837.16 430,-848 385.608,-868.242 328.775,-877.632 297.256,-881.548"/>
<polygon fill="midnightblue" stroke="midnightblue" points="495.679,-807.752 500.871,-798.516 491.053,-802.498 495.679,-807.752"/>
</g>
<!-- Node43 -->
<g id="node22" class="node"><title>Node43</title>
<g id="a_node22"><a xlink:href="lstrlib_8c.html#abcf8553ae8937fd4f4bf85c72f528710" target="_top" xlink:title=" ">
<polygon fill="white" stroke="black" points="245.5,-1064.5 245.5,-1083.5 299.5,-1083.5 299.5,-1064.5 245.5,-1064.5"/>
<text text-anchor="middle" x="272.5" y="-1071.5" font-family="Helvetica,sans-Serif" font-size="10.00">str_pack</text>
</a>
</g>
</g>
<!-- Node6&#45;&gt;Node43 -->
<g id="edge28" class="edge"><title>Node6&#45;&gt;Node43</title>
<path fill="none" stroke="midnightblue" d="M503.627,-808.004C491.336,-838.195 464.562,-898.086 430,-941 386.164,-995.429 317.715,-1044.48 288.037,-1064.48"/>
<polygon fill="midnightblue" stroke="midnightblue" points="506.908,-809.225 507.359,-798.64 500.405,-806.633 506.908,-809.225"/>
</g>
<!-- Node44 -->
<g id="node23" class="node"><title>Node44</title>
<g id="a_node23"><a xlink:href="ltablib_8c.html#add6973c515a288f41265aca8e0ae6412" target="_top" xlink:title=" ">
<polygon fill="white" stroke="black" points="248,-532.5 248,-551.5 297,-551.5 297,-532.5 248,-532.5"/>
<text text-anchor="middle" x="272.5" y="-539.5" font-family="Helvetica,sans-Serif" font-size="10.00">tconcat</text>
</a>
</g>
</g>
<!-- Node6&#45;&gt;Node44 -->
<g id="edge29" class="edge"><title>Node6&#45;&gt;Node44</title>
<path fill="none" stroke="midnightblue" d="M507.918,-769.304C500.945,-731.172 480.458,-646.818 430,-599 392.431,-563.396 330.886,-549.714 297.262,-544.705"/>
<polygon fill="midnightblue" stroke="midnightblue" points="504.469,-769.899 509.604,-779.166 511.369,-768.719 504.469,-769.899"/>
</g>
<!-- Node45 -->
<g id="node24" class="node"><title>Node45</title>
<g id="a_node24"><a xlink:href="lstrlib_8c.html#a1f7ab2869b4517a93412ce096243ead0" target="_top" xlink:title=" ">
<polygon fill="white" stroke="red" points="370,-912.5 370,-931.5 410,-931.5 410,-912.5 370,-912.5"/>
<text text-anchor="middle" x="390" y="-919.5" font-family="Helvetica,sans-Serif" font-size="10.00">writer</text>
</a>
</g>
</g>
<!-- Node6&#45;&gt;Node45 -->
<g id="edge30" class="edge"><title>Node6&#45;&gt;Node45</title>
<path fill="none" stroke="midnightblue" d="M500.31,-807.506C486.301,-830.645 459.965,-870.546 430,-898 424.021,-903.478 416.615,-908.401 409.869,-912.341"/>
<polygon fill="midnightblue" stroke="midnightblue" points="503.441,-809.087 505.533,-798.701 497.421,-805.515 503.441,-809.087"/>
</g>
<!-- Node7&#45;&gt;Node8 -->
<g id="edge7" class="edge"><title>Node7&#45;&gt;Node8</title>
<path fill="none" stroke="midnightblue" d="M358.153,-618C340.78,-618 319.224,-618 302.213,-618"/>
<polygon fill="midnightblue" stroke="midnightblue" points="358.351,-621.5 368.351,-618 358.351,-614.5 358.351,-621.5"/>
</g>
<!-- Node8&#45;&gt;Node9 -->
<g id="edge8" class="edge"><title>Node8&#45;&gt;Node9</title>
<path fill="none" stroke="midnightblue" d="M232.719,-624.015C213.903,-626.933 191.804,-630.361 175.036,-632.962"/>
<polygon fill="midnightblue" stroke="midnightblue" points="233.434,-627.446 242.779,-622.455 232.361,-620.529 233.434,-627.446"/>
</g>
<!-- Node11 -->
<g id="node11" class="node"><title>Node11</title>
<g id="a_node11"><a xlink:href="lauxlib_8h.html#a46672be75da57e1a464c5c6d80f19064" target="_top" xlink:title=" ">
<polygon fill="white" stroke="red" points="117.5,-836.5 117.5,-855.5 178.5,-855.5 178.5,-836.5 117.5,-836.5"/>
<text text-anchor="middle" x="148" y="-843.5" font-family="Helvetica,sans-Serif" font-size="10.00">luaL_gsub</text>
</a>
</g>
</g>
<!-- Node10&#45;&gt;Node11 -->
<g id="edge11" class="edge"><title>Node10&#45;&gt;Node11</title>
<path fill="none" stroke="midnightblue" d="M223.504,-846C208.378,-846 192.119,-846 178.661,-846"/>
<polygon fill="midnightblue" stroke="midnightblue" points="223.746,-849.5 233.746,-846 223.746,-842.5 223.746,-849.5"/>
</g>
<!-- Node17 -->
<g id="node12" class="node"><title>Node17</title>
<g id="a_node12"><a xlink:href="loadlib_8c.html#a9aa5433859d896c2db1a7af366e04b65" target="_top" xlink:title=" ">
<polygon fill="white" stroke="red" points="0,-836.5 0,-855.5 65,-855.5 65,-836.5 0,-836.5"/>
<text text-anchor="middle" x="32.5" y="-843.5" font-family="Helvetica,sans-Serif" font-size="10.00">searchpath</text>
</a>
</g>
</g>
<!-- Node10&#45;&gt;Node17 -->
<g id="edge15" class="edge"><title>Node10&#45;&gt;Node17</title>
<path fill="none" stroke="midnightblue" d="M230.802,-858.056C219.329,-860.92 206.767,-863.561 195,-865 153.531,-870.073 142.385,-870.714 101,-865 87.4931,-863.135 72.8848,-859.265 60.7241,-855.502"/>
<polygon fill="midnightblue" stroke="midnightblue" points="231.767,-861.421 240.556,-855.505 229.996,-854.649 231.767,-861.421"/>
</g>
<!-- Node21 -->
<g id="node13" class="node"><title>Node21</title>
<g id="a_node13"><a xlink:href="loadlib_8c.html#a8c34f770d4f7748069b3b26c070e2473" target="_top" xlink:title=" ">
<polygon fill="white" stroke="black" points="101,-798.5 101,-817.5 195,-817.5 195,-798.5 101,-798.5"/>
<text text-anchor="middle" x="148" y="-805.5" font-family="Helvetica,sans-Serif" font-size="10.00">pusherrornotfound</text>
</a>
</g>
</g>
<!-- Node10&#45;&gt;Node21 -->
<g id="edge13" class="edge"><title>Node10&#45;&gt;Node21</title>
<path fill="none" stroke="midnightblue" d="M230.622,-833.32C214.071,-828.185 195.279,-822.356 179.902,-817.586"/>
<polygon fill="midnightblue" stroke="midnightblue" points="230,-836.791 240.588,-836.411 232.074,-830.105 230,-836.791"/>
</g>
<!-- Node11&#45;&gt;Node17 -->
<g id="edge12" class="edge"><title>Node11&#45;&gt;Node17</title>
<path fill="none" stroke="midnightblue" d="M107.3,-846C93.5386,-846 78.3025,-846 65.2646,-846"/>
<polygon fill="midnightblue" stroke="midnightblue" points="107.476,-849.5 117.476,-846 107.475,-842.5 107.476,-849.5"/>
</g>
<!-- Node21&#45;&gt;Node17 -->
<g id="edge14" class="edge"><title>Node21&#45;&gt;Node17</title>
<path fill="none" stroke="midnightblue" d="M108.691,-820.826C93.4617,-825.925 76.2444,-831.689 62.1317,-836.414"/>
<polygon fill="midnightblue" stroke="midnightblue" points="109.988,-824.083 118.359,-817.589 107.765,-817.445 109.988,-824.083"/>
</g>
<!-- Node22&#45;&gt;Node10 -->
<g id="edge21" class="edge"><title>Node22&#45;&gt;Node10</title>
<path fill="none" stroke="midnightblue" d="M350.016,-820.826C334.518,-825.925 316.998,-831.689 302.636,-836.414"/>
<polygon fill="midnightblue" stroke="midnightblue" points="351.449,-824.039 359.854,-817.589 349.262,-817.39 351.449,-824.039"/>
</g>
<!-- Node22&#45;&gt;Node21 -->
<g id="edge23" class="edge"><title>Node22&#45;&gt;Node21</title>
<path fill="none" stroke="midnightblue" d="M339.806,-808C297.373,-808 236.551,-808 195.058,-808"/>
<polygon fill="midnightblue" stroke="midnightblue" points="339.906,-811.5 349.906,-808 339.906,-804.5 339.906,-811.5"/>
</g>
<!-- Node23 -->
<g id="node15" class="node"><title>Node23</title>
<g id="a_node15"><a xlink:href="lstrlib_8c.html#a7c264397b481e5d854b43aaa37b0386f" target="_top" xlink:title=" ">
<polygon fill="white" stroke="black" points="241.5,-760.5 241.5,-779.5 303.5,-779.5 303.5,-760.5 241.5,-760.5"/>
<text text-anchor="middle" x="272.5" y="-767.5" font-family="Helvetica,sans-Serif" font-size="10.00">addquoted</text>
</a>
</g>
</g>
<!-- Node22&#45;&gt;Node23 -->
<g id="edge17" class="edge"><title>Node22&#45;&gt;Node23</title>
<path fill="none" stroke="midnightblue" d="M350.016,-795.174C334.518,-790.075 316.998,-784.311 302.636,-779.586"/>
<polygon fill="midnightblue" stroke="midnightblue" points="349.262,-798.61 359.854,-798.411 351.449,-791.961 349.262,-798.61"/>
</g>
<!-- Node26 -->
<g id="node18" class="node"><title>Node26</title>
<g id="a_node18"><a xlink:href="loadlib_8c.html#aeea4101591c7cab25273f4dfe7d811d6" target="_top" xlink:title=" ">
<polygon fill="white" stroke="red" points="243.5,-722.5 243.5,-741.5 301.5,-741.5 301.5,-722.5 243.5,-722.5"/>
<text text-anchor="middle" x="272.5" y="-729.5" font-family="Helvetica,sans-Serif" font-size="10.00">findloader</text>
</a>
</g>
</g>
<!-- Node22&#45;&gt;Node26 -->
<g id="edge20" class="edge"><title>Node22&#45;&gt;Node26</title>
<path fill="none" stroke="midnightblue" d="M362.972,-792.941C358.546,-790.111 354.068,-787.072 350,-784 332.679,-770.92 332.032,-763.081 314,-751 308.838,-747.542 302.947,-744.389 297.287,-741.689"/>
<polygon fill="midnightblue" stroke="midnightblue" points="361.487,-796.137 371.837,-798.399 365.156,-790.176 361.487,-796.137"/>
</g>
<!-- Node28 -->
<g id="node19" class="node"><title>Node28</title>
<g id="a_node19"><a xlink:href="lauxlib_8h.html#a664cc293d6c7a7dc67857fe95583a10e" target="_top" xlink:title=" ">
<polygon fill="white" stroke="red" points="231,-684.5 231,-703.5 314,-703.5 314,-684.5 231,-684.5"/>
<text text-anchor="middle" x="272.5" y="-691.5" font-family="Helvetica,sans-Serif" font-size="10.00">luaL_traceback</text>
</a>
</g>
</g>
<!-- Node22&#45;&gt;Node28 -->
<g id="edge22" class="edge"><title>Node22&#45;&gt;Node28</title>
<path fill="none" stroke="midnightblue" d="M360.13,-792.814C356.467,-790.172 352.969,-787.224 350,-784 326.034,-757.973 339.398,-737.632 314,-713 310.097,-709.215 305.301,-706.079 300.391,-703.521"/>
<polygon fill="midnightblue" stroke="midnightblue" points="358.501,-795.928 368.801,-798.408 362.295,-790.046 358.501,-795.928"/>
</g>
<!-- Node22&#45;&gt;Node42 -->
<g id="edge24" class="edge"><title>Node22&#45;&gt;Node42</title>
<path fill="none" stroke="midnightblue" d="M369.997,-824.237C355.295,-836.345 334.117,-852.824 314,-865 308.419,-868.378 302.14,-871.585 296.222,-874.369"/>
<polygon fill="midnightblue" stroke="midnightblue" points="372.417,-826.776 377.847,-817.679 367.929,-821.404 372.417,-826.776"/>
</g>
<!-- Node24 -->
<g id="node16" class="node"><title>Node24</title>
<g id="a_node16"><a xlink:href="lstrlib_8c.html#a2ff59847baa24a18f7d78d47dc1d3220" target="_top" xlink:title=" ">
<polygon fill="white" stroke="black" points="120,-760.5 120,-779.5 176,-779.5 176,-760.5 120,-760.5"/>
<text text-anchor="middle" x="148" y="-767.5" font-family="Helvetica,sans-Serif" font-size="10.00">addliteral</text>
</a>
</g>
</g>
<!-- Node23&#45;&gt;Node24 -->
<g id="edge18" class="edge"><title>Node23&#45;&gt;Node24</title>
<path fill="none" stroke="midnightblue" d="M231.212,-770C213.099,-770 192.205,-770 176.013,-770"/>
<polygon fill="midnightblue" stroke="midnightblue" points="231.219,-773.5 241.219,-770 231.219,-766.5 231.219,-773.5"/>
</g>
<!-- Node25 -->
<g id="node17" class="node"><title>Node25</title>
<g id="a_node17"><a xlink:href="lstrlib_8c.html#ae26a9374857058119e59d0328208c2f2" target="_top" xlink:title=" ">
<polygon fill="white" stroke="black" points="2.5,-760.5 2.5,-779.5 62.5,-779.5 62.5,-760.5 2.5,-760.5"/>
<text text-anchor="middle" x="32.5" y="-767.5" font-family="Helvetica,sans-Serif" font-size="10.00">str_format</text>
</a>
</g>
</g>
<!-- Node24&#45;&gt;Node25 -->
<g id="edge19" class="edge"><title>Node24&#45;&gt;Node25</title>
<path fill="none" stroke="midnightblue" d="M109.683,-770C94.4691,-770 77.1357,-770 62.8501,-770"/>
<polygon fill="midnightblue" stroke="midnightblue" points="109.814,-773.5 119.814,-770 109.814,-766.5 109.814,-773.5"/>
</g>
<!-- Node15 -->
<g id="node21" class="node"><title>Node15</title>
<g id="a_node21"><a xlink:href="lualib_8h.html#a05e0befc0439f926b6152129ab4f8dea" target="_top" xlink:title=" ">
<polygon fill="white" stroke="black" points="102,-912.5 102,-931.5 194,-931.5 194,-912.5 102,-912.5"/>
<text text-anchor="middle" x="148" y="-919.5" font-family="Helvetica,sans-Serif" font-size="10.00">luaopen_package</text>
</a>
</g>
</g>
<!-- Node42&#45;&gt;Node15 -->
<g id="edge25" class="edge"><title>Node42&#45;&gt;Node15</title>
<path fill="none" stroke="midnightblue" d="M238.278,-894.305C220.118,-899.939 197.767,-906.872 179.971,-912.393"/>
<polygon fill="midnightblue" stroke="midnightblue" points="239.367,-897.632 247.881,-891.327 237.293,-890.947 239.367,-897.632"/>
</g>
<!-- Node46 -->
<g id="node25" class="node"><title>Node46</title>
<g id="a_node25"><a xlink:href="lua_8h.html#a9ddf288a81529204406f6d88eaa4486d" target="_top" xlink:title=" ">
<polygon fill="white" stroke="red" points="243,-912.5 243,-931.5 302,-931.5 302,-912.5 243,-912.5"/>
<text text-anchor="middle" x="272.5" y="-919.5" font-family="Helvetica,sans-Serif" font-size="10.00">lua_dump</text>
</a>
</g>
</g>
<!-- Node45&#45;&gt;Node46 -->
<g id="edge31" class="edge"><title>Node45&#45;&gt;Node46</title>
<path fill="none" stroke="midnightblue" d="M359.634,-922C341.988,-922 319.636,-922 302.125,-922"/>
<polygon fill="midnightblue" stroke="midnightblue" points="359.928,-925.5 369.928,-922 359.927,-918.5 359.928,-925.5"/>
</g>
<!-- Node48&#45;&gt;Node7 -->
<g id="edge33" class="edge"><title>Node48&#45;&gt;Node7</title>
<path fill="none" stroke="midnightblue" d="M490.48,-539.245C465.364,-559.128 423.652,-592.15 403.144,-608.386"/>
<polygon fill="midnightblue" stroke="midnightblue" points="492.942,-541.76 498.61,-532.809 488.597,-536.272 492.942,-541.76"/>
</g>
<!-- Node48&#45;&gt;Node8 -->
<g id="edge34" class="edge"><title>Node48&#45;&gt;Node8</title>
<path fill="none" stroke="midnightblue" d="M477.464,-536.414C428.795,-555.882 339.777,-591.489 297.29,-608.484"/>
<polygon fill="midnightblue" stroke="midnightblue" points="478.935,-539.596 486.92,-532.632 476.336,-533.096 478.935,-539.596"/>
</g>
<!-- Node48&#45;&gt;Node24 -->
<g id="edge37" class="edge"><title>Node48&#45;&gt;Node24</title>
<path fill="none" stroke="midnightblue" d="M486.952,-508.29C471.343,-499.626 450.214,-489.506 430,-485 342.115,-465.409 293.229,-457.922 231,-523 188.678,-567.26 214.492,-597.947 195,-656 181.753,-695.453 161.997,-740.946 153.334,-760.387"/>
<polygon fill="midnightblue" stroke="midnightblue" points="485.485,-511.484 495.899,-513.433 488.974,-505.415 485.485,-511.484"/>
</g>
<!-- Node48&#45;&gt;Node25 -->
<g id="edge40" class="edge"><title>Node48&#45;&gt;Node25</title>
<path fill="none" stroke="midnightblue" d="M493.487,-506.127C478.141,-492.596 454.511,-474.648 430,-467 409.815,-460.702 244.136,-462.894 231,-469 103.474,-528.275 47.5507,-715.871 35.8768,-760.435"/>
<polygon fill="midnightblue" stroke="midnightblue" points="491.371,-508.934 501.114,-513.096 496.093,-503.767 491.371,-508.934"/>
</g>
<!-- Node48&#45;&gt;Node26 -->
<g id="edge38" class="edge"><title>Node48&#45;&gt;Node26</title>
<path fill="none" stroke="midnightblue" d="M505.127,-542.342C494.782,-573.356 470.486,-634.334 430,-670 392.611,-702.938 335.605,-719.503 301.698,-726.894"/>
<polygon fill="midnightblue" stroke="midnightblue" points="508.494,-543.304 508.208,-532.713 501.827,-541.171 508.494,-543.304"/>
</g>
<!-- Node48&#45;&gt;Node28 -->
<g id="edge39" class="edge"><title>Node48&#45;&gt;Node28</title>
<path fill="none" stroke="midnightblue" d="M502.123,-541.946C489.464,-567.04 463.945,-611.133 430,-637 395.501,-663.29 347.701,-678.34 314.031,-686.297"/>
<polygon fill="midnightblue" stroke="midnightblue" points="505.369,-543.275 506.612,-532.754 499.079,-540.204 505.369,-543.275"/>
</g>
<!-- Node49 -->
<g id="node27" class="node"><title>Node49</title>
<g id="a_node27"><a xlink:href="ltablib_8c.html#a598479e00f1b316a182b1582012df5d0" target="_top" xlink:title=" ">
<polygon fill="white" stroke="black" points="365,-494.5 365,-513.5 415,-513.5 415,-494.5 365,-494.5"/>
<text text-anchor="middle" x="390" y="-501.5" font-family="Helvetica,sans-Serif" font-size="10.00">addfield</text>
</a>
</g>
</g>
<!-- Node48&#45;&gt;Node49 -->
<g id="edge35" class="edge"><title>Node48&#45;&gt;Node49</title>
<path fill="none" stroke="midnightblue" d="M463.317,-515.45C446.843,-512.842 429.074,-510.028 415.273,-507.843"/>
<polygon fill="midnightblue" stroke="midnightblue" points="462.936,-518.933 473.36,-517.04 464.031,-512.02 462.936,-518.933"/>
</g>
<!-- Node50 -->
<g id="node28" class="node"><title>Node50</title>
<g id="a_node28"><a xlink:href="lutf8lib_8c.html#a7269a837d8746044cb3f33e6db94b00f" target="_top" xlink:title=" ">
<polygon fill="white" stroke="black" points="367,-380.5 367,-399.5 413,-399.5 413,-380.5 367,-380.5"/>
<text text-anchor="middle" x="390" y="-387.5" font-family="Helvetica,sans-Serif" font-size="10.00">utfchar</text>
</a>
</g>
</g>
<!-- Node48&#45;&gt;Node50 -->
<g id="edge41" class="edge"><title>Node48&#45;&gt;Node50</title>
<path fill="none" stroke="midnightblue" d="M500.31,-504.494C486.301,-481.355 459.965,-441.454 430,-414 424.021,-408.522 416.615,-403.599 409.869,-399.659"/>
<polygon fill="midnightblue" stroke="midnightblue" points="497.421,-506.485 505.533,-513.299 503.441,-502.913 497.421,-506.485"/>
</g>
<!-- Node49&#45;&gt;Node44 -->
<g id="edge36" class="edge"><title>Node49&#45;&gt;Node44</title>
<path fill="none" stroke="midnightblue" d="M355.212,-515.116C336.623,-521.232 314.007,-528.673 297.285,-534.175"/>
<polygon fill="midnightblue" stroke="midnightblue" points="356.382,-518.416 364.787,-511.966 354.194,-511.767 356.382,-518.416"/>
</g>
<!-- Node52 -->
<g id="node30" class="node"><title>Node52</title>
<g id="a_node30"><a xlink:href="lstrlib_8c.html#a3f7db8b2258dca5459ad52d2cbf9f28c" target="_top" xlink:title=" ">
<polygon fill="white" stroke="black" points="364,-228.5 364,-247.5 416,-247.5 416,-228.5 364,-228.5"/>
<text text-anchor="middle" x="390" y="-235.5" font-family="Helvetica,sans-Serif" font-size="10.00">str_char</text>
</a>
</g>
</g>
<!-- Node51&#45;&gt;Node52 -->
<g id="edge43" class="edge"><title>Node51&#45;&gt;Node52</title>
<path fill="none" stroke="midnightblue" d="M481.743,-281.103C459.848,-270.703 430.469,-256.748 411.151,-247.572"/>
<polygon fill="midnightblue" stroke="midnightblue" points="480.38,-284.33 490.915,-285.459 483.384,-278.007 480.38,-284.33"/>
</g>
<!-- Node53 -->
<g id="node31" class="node"><title>Node53</title>
<g id="a_node31"><a xlink:href="lstrlib_8c.html#ab2235f81205d0482d03c8ae456a98992" target="_top" xlink:title=" ">
<polygon fill="white" stroke="black" points="362,-190.5 362,-209.5 418,-209.5 418,-190.5 362,-190.5"/>
<text text-anchor="middle" x="390" y="-197.5" font-family="Helvetica,sans-Serif" font-size="10.00">str_lower</text>
</a>
</g>
</g>
<!-- Node51&#45;&gt;Node53 -->
<g id="edge44" class="edge"><title>Node51&#45;&gt;Node53</title>
<path fill="none" stroke="midnightblue" d="M495.543,-277.755C480.101,-261.227 455.106,-236.304 430,-219 424.915,-215.495 419.086,-212.286 413.512,-209.543"/>
<polygon fill="midnightblue" stroke="midnightblue" points="492.972,-280.13 502.315,-285.125 498.126,-275.393 492.972,-280.13"/>
</g>
<!-- Node54 -->
<g id="node32" class="node"><title>Node54</title>
<g id="a_node32"><a xlink:href="lstrlib_8c.html#acaee4c84f29e2ec7366728ca04d3569c" target="_top" xlink:title=" ">
<polygon fill="white" stroke="black" points="366.5,-342.5 366.5,-361.5 413.5,-361.5 413.5,-342.5 366.5,-342.5"/>
<text text-anchor="middle" x="390" y="-349.5" font-family="Helvetica,sans-Serif" font-size="10.00">str_rep</text>
</a>
</g>
</g>
<!-- Node51&#45;&gt;Node54 -->
<g id="edge45" class="edge"><title>Node51&#45;&gt;Node54</title>
<path fill="none" stroke="midnightblue" d="M481.743,-308.897C459.848,-319.297 430.469,-333.252 411.151,-342.428"/>
<polygon fill="midnightblue" stroke="midnightblue" points="483.384,-311.993 490.915,-304.541 480.38,-305.67 483.384,-311.993"/>
</g>
<!-- Node55 -->
<g id="node33" class="node"><title>Node55</title>
<g id="a_node33"><a xlink:href="lstrlib_8c.html#a4b2ffac60e817b9bfc54b32f8da3a6b4" target="_top" xlink:title=" ">
<polygon fill="white" stroke="black" points="358,-304.5 358,-323.5 422,-323.5 422,-304.5 358,-304.5"/>
<text text-anchor="middle" x="390" y="-311.5" font-family="Helvetica,sans-Serif" font-size="10.00">str_reverse</text>
</a>
</g>
</g>
<!-- Node51&#45;&gt;Node55 -->
<g id="edge46" class="edge"><title>Node51&#45;&gt;Node55</title>
<path fill="none" stroke="midnightblue" d="M458.491,-303.314C446.171,-305.265 433.423,-307.283 422.368,-309.033"/>
<polygon fill="midnightblue" stroke="midnightblue" points="459.363,-306.72 468.692,-301.699 458.268,-299.806 459.363,-306.72"/>
</g>
<!-- Node56 -->
<g id="node34" class="node"><title>Node56</title>
<g id="a_node34"><a xlink:href="lstrlib_8c.html#a38ed99b74af58070449ca344a7351f6a" target="_top" xlink:title=" ">
<polygon fill="white" stroke="black" points="361.5,-266.5 361.5,-285.5 418.5,-285.5 418.5,-266.5 361.5,-266.5"/>
<text text-anchor="middle" x="390" y="-273.5" font-family="Helvetica,sans-Serif" font-size="10.00">str_upper</text>
</a>
</g>
</g>
<!-- Node51&#45;&gt;Node56 -->
<g id="edge47" class="edge"><title>Node51&#45;&gt;Node56</title>
<path fill="none" stroke="midnightblue" d="M458.782,-286.732C444.977,-284.546 430.613,-282.272 418.68,-280.383"/>
<polygon fill="midnightblue" stroke="midnightblue" points="458.268,-290.194 468.692,-288.301 459.363,-283.28 458.268,-290.194"/>
</g>
<!-- Node57&#45;&gt;Node24 -->
<g id="edge49" class="edge"><title>Node57&#45;&gt;Node24</title>
<path fill="none" stroke="midnightblue" d="M499.755,-1055.77C485.959,-1035.03 460.595,-1001.74 430,-984 351.719,-938.616 295.612,-1004.35 231,-941 181.427,-892.397 240.033,-841.837 195,-789 190.068,-783.213 183.091,-779.159 176.058,-776.331"/>
<polygon fill="midnightblue" stroke="midnightblue" points="496.901,-1057.81 505.256,-1064.32 502.787,-1054.02 496.901,-1057.81"/>
</g>
<!-- Node57&#45;&gt;Node25 -->
<g id="edge54" class="edge"><title>Node57&#45;&gt;Node25</title>
<path fill="none" stroke="midnightblue" d="M455.674,-1071.61C368.28,-1064.83 198.245,-1039.01 101,-941 63.5762,-903.283 85.9535,-875.827 65,-827 57.5984,-809.752 46.5509,-790.906 39.698,-779.786"/>
<polygon fill="midnightblue" stroke="midnightblue" points="455.687,-1075.12 465.912,-1072.34 456.189,-1068.13 455.687,-1075.12"/>
</g>
<!-- Node57&#45;&gt;Node43 -->
<g id="edge55" class="edge"><title>Node57&#45;&gt;Node43</title>
<path fill="none" stroke="midnightblue" d="M455.635,-1074C406.607,-1074 337.188,-1074 299.798,-1074"/>
<polygon fill="midnightblue" stroke="midnightblue" points="455.769,-1077.5 465.769,-1074 455.769,-1070.5 455.769,-1077.5"/>
</g>
<!-- Node58 -->
<g id="node36" class="node"><title>Node58</title>
<g id="a_node36"><a xlink:href="loslib_8c.html#a6520f2562b500aee87a6a475995adefb" target="_top" xlink:title=" ">
<polygon fill="white" stroke="black" points="364.5,-1140.5 364.5,-1159.5 415.5,-1159.5 415.5,-1140.5 364.5,-1140.5"/>
<text text-anchor="middle" x="390" y="-1147.5" font-family="Helvetica,sans-Serif" font-size="10.00">os_date</text>
</a>
</g>
</g>
<!-- Node57&#45;&gt;Node58 -->
<g id="edge50" class="edge"><title>Node57&#45;&gt;Node58</title>
<path fill="none" stroke="midnightblue" d="M490.672,-1089.68C474.646,-1101.69 451.49,-1118.31 430,-1131 424.422,-1134.29 418.191,-1137.52 412.374,-1140.35"/>
<polygon fill="midnightblue" stroke="midnightblue" points="492.93,-1092.36 498.787,-1083.53 488.703,-1086.78 492.93,-1092.36"/>
</g>
<!-- Node59 -->
<g id="node37" class="node"><title>Node59</title>
<g id="a_node37"><a xlink:href="lstrlib_8c.html#a326322a54fce6c872fd7e20c3f923e8f" target="_top" xlink:title=" ">
<polygon fill="white" stroke="black" points="366,-1178.5 366,-1197.5 414,-1197.5 414,-1178.5 366,-1178.5"/>
<text text-anchor="middle" x="390" y="-1185.5" font-family="Helvetica,sans-Serif" font-size="10.00">packint</text>
</a>
</g>
</g>
<!-- Node57&#45;&gt;Node59 -->
<g id="edge51" class="edge"><title>Node57&#45;&gt;Node59</title>
<path fill="none" stroke="midnightblue" d="M498.908,-1092.29C484.48,-1113.01 458.678,-1146.79 430,-1169 425.237,-1172.69 419.642,-1175.93 414.2,-1178.64"/>
<polygon fill="midnightblue" stroke="midnightblue" points="501.971,-1094.01 504.706,-1083.77 496.185,-1090.07 501.971,-1094.01"/>
</g>
<!-- Node60 -->
<g id="node38" class="node"><title>Node60</title>
<g id="a_node38"><a xlink:href="liolib_8c.html#a6735c0513432f83bfa1b88b056ab379b" target="_top" xlink:title=" ">
<polygon fill="white" stroke="red" points="357.5,-1102.5 357.5,-1121.5 422.5,-1121.5 422.5,-1102.5 357.5,-1102.5"/>
<text text-anchor="middle" x="390" y="-1109.5" font-family="Helvetica,sans-Serif" font-size="10.00">read_chars</text>
</a>
</g>
</g>
<!-- Node57&#45;&gt;Node60 -->
<g id="edge53" class="edge"><title>Node57&#45;&gt;Node60</title>
<path fill="none" stroke="midnightblue" d="M470.957,-1086.68C454.743,-1091.81 436.334,-1097.64 421.271,-1102.41"/>
<polygon fill="midnightblue" stroke="midnightblue" points="472.242,-1089.94 480.719,-1083.59 470.129,-1083.27 472.242,-1089.94"/>
</g>
<!-- Node59&#45;&gt;Node43 -->
<g id="edge52" class="edge"><title>Node59&#45;&gt;Node43</title>
<path fill="none" stroke="midnightblue" d="M356.596,-1173.64C354.288,-1172.19 352.061,-1170.64 350,-1169 317.879,-1143.39 290.509,-1102.04 279.136,-1083.51"/>
<polygon fill="midnightblue" stroke="midnightblue" points="355.287,-1176.92 365.726,-1178.73 358.696,-1170.81 355.287,-1176.92"/>
</g>
<!-- Node69 -->
<g id="node40" class="node"><title>Node69</title>
<g id="a_node40"><a xlink:href="liolib_8c.html#a0a80ad2f9dbb3b7238efae7738bb7569" target="_top" xlink:title=" ">
<polygon fill="white" stroke="black" points="598,-76.5 598,-95.5 667,-95.5 667,-76.5 598,-76.5"/>
<text text-anchor="middle" x="632.5" y="-83.5" font-family="Helvetica,sans-Serif" font-size="10.00">createstdfile</text>
</a>
</g>
</g>
<!-- Node68&#45;&gt;Node69 -->
<g id="edge57" class="edge"><title>Node68&#45;&gt;Node69</title>
<path fill="none" stroke="midnightblue" d="M700.61,-86C689.617,-86 677.75,-86 667.096,-86"/>
<polygon fill="midnightblue" stroke="midnightblue" points="700.815,-89.5001 710.815,-86 700.815,-82.5001 700.815,-89.5001"/>
</g>
<!-- Node71 -->
<g id="node42" class="node"><title>Node71</title>
<g id="a_node42"><a xlink:href="liolib_8c.html#a8cc0b2b08409fb97e5cc80a0caf9b5fd" target="_top" xlink:title=" ">
<polygon fill="white" stroke="black" points="604.5,-38.5 604.5,-57.5 660.5,-57.5 660.5,-38.5 604.5,-38.5"/>
<text text-anchor="middle" x="632.5" y="-45.5" font-family="Helvetica,sans-Serif" font-size="10.00">io_popen</text>
</a>
</g>
</g>
<!-- Node68&#45;&gt;Node71 -->
<g id="edge59" class="edge"><title>Node68&#45;&gt;Node71</title>
<path fill="none" stroke="midnightblue" d="M703.316,-73.0282C689.193,-67.9656 673.294,-62.2659 660.24,-57.5859"/>
<polygon fill="midnightblue" stroke="midnightblue" points="702.157,-76.331 712.752,-76.411 704.519,-69.7416 702.157,-76.331"/>
</g>
<!-- Node72 -->
<g id="node43" class="node"><title>Node72</title>
<g id="a_node43"><a xlink:href="liolib_8c.html#a57c6c258a611b738f0ef34584ca6e7ab" target="_top" xlink:title=" ">
<polygon fill="white" stroke="black" points="609.5,-114.5 609.5,-133.5 655.5,-133.5 655.5,-114.5 609.5,-114.5"/>
<text text-anchor="middle" x="632.5" y="-121.5" font-family="Helvetica,sans-Serif" font-size="10.00">newfile</text>
</a>
</g>
</g>
<!-- Node68&#45;&gt;Node72 -->
<g id="edge60" class="edge"><title>Node68&#45;&gt;Node72</title>
<path fill="none" stroke="midnightblue" d="M703.241,-98.9985C687.412,-104.673 669.362,-111.144 655.592,-116.08"/>
<polygon fill="midnightblue" stroke="midnightblue" points="704.519,-102.258 712.752,-95.589 702.157,-95.669 704.519,-102.258"/>
</g>
<!-- Node70 -->
<g id="node41" class="node"><title>Node70</title>
<g id="a_node41"><a xlink:href="lualib_8h.html#a686b841d953f3113ddc7538d69debce7" target="_top" xlink:title=" ">
<polygon fill="white" stroke="black" points="480.5,-38.5 480.5,-57.5 543.5,-57.5 543.5,-38.5 480.5,-38.5"/>
<text text-anchor="middle" x="512" y="-45.5" font-family="Helvetica,sans-Serif" font-size="10.00">luaopen_io</text>
</a>
</g>
</g>
<!-- Node69&#45;&gt;Node70 -->
<g id="edge58" class="edge"><title>Node69&#45;&gt;Node70</title>
<path fill="none" stroke="midnightblue" d="M591.957,-73.3196C575.946,-68.1852 557.768,-62.3559 542.893,-57.5859"/>
<polygon fill="midnightblue" stroke="midnightblue" points="591.006,-76.6902 601.597,-76.411 593.144,-70.0245 591.006,-76.6902"/>
</g>
<!-- Node73 -->
<g id="node44" class="node"><title>Node73</title>
<g id="a_node44"><a xlink:href="liolib_8c.html#ab4a969d43dbe0f89e98307e5b421f8a7" target="_top" xlink:title=" ">
<polygon fill="white" stroke="black" points="487,-114.5 487,-133.5 537,-133.5 537,-114.5 487,-114.5"/>
<text text-anchor="middle" x="512" y="-121.5" font-family="Helvetica,sans-Serif" font-size="10.00">io_open</text>
</a>
</g>
</g>
<!-- Node72&#45;&gt;Node73 -->
<g id="edge61" class="edge"><title>Node72&#45;&gt;Node73</title>
<path fill="none" stroke="midnightblue" d="M599.23,-124C579.713,-124 555.23,-124 537.343,-124"/>
<polygon fill="midnightblue" stroke="midnightblue" points="599.489,-127.5 609.489,-124 599.489,-120.5 599.489,-127.5"/>
</g>
<!-- Node74 -->
<g id="node45" class="node"><title>Node74</title>
<g id="a_node45"><a xlink:href="liolib_8c.html#a0347de9dda8be02044075c96482eddb3" target="_top" xlink:title=" ">
<polygon fill="white" stroke="black" points="483,-76.5 483,-95.5 541,-95.5 541,-76.5 483,-76.5"/>
<text text-anchor="middle" x="512" y="-83.5" font-family="Helvetica,sans-Serif" font-size="10.00">io_tmpfile</text>
</a>
</g>
</g>
<!-- Node72&#45;&gt;Node74 -->
<g id="edge62" class="edge"><title>Node72&#45;&gt;Node74</title>
<path fill="none" stroke="midnightblue" d="M599.866,-113.856C581.601,-107.999 558.824,-100.695 541.177,-95.0356"/>
<polygon fill="midnightblue" stroke="midnightblue" points="598.898,-117.221 609.489,-116.942 601.035,-110.555 598.898,-117.221"/>
</g>
<!-- Node75 -->
<g id="node46" class="node"><title>Node75</title>
<g id="a_node46"><a xlink:href="liolib_8c.html#a91ec9c6fa0ef33085f29a15532ac80a7" target="_top" xlink:title=" ">
<polygon fill="white" stroke="black" points="480,-152.5 480,-171.5 544,-171.5 544,-152.5 480,-152.5"/>
<text text-anchor="middle" x="512" y="-159.5" font-family="Helvetica,sans-Serif" font-size="10.00">opencheck</text>
</a>
</g>
</g>
<!-- Node72&#45;&gt;Node75 -->
<g id="edge63" class="edge"><title>Node72&#45;&gt;Node75</title>
<path fill="none" stroke="midnightblue" d="M599.655,-134.212C582.027,-139.865 560.25,-146.848 542.936,-152.4"/>
<polygon fill="midnightblue" stroke="midnightblue" points="601.035,-137.445 609.489,-131.058 598.898,-130.779 601.035,-137.445"/>
</g>
<!-- Node76 -->
<g id="node47" class="node"><title>Node76</title>
<g id="a_node47"><a xlink:href="liolib_8c.html#aae942558ff528b4e1a483297c64e6886" target="_top" xlink:title=" ">
<polygon fill="white" stroke="red" points="366.5,-152.5 366.5,-171.5 413.5,-171.5 413.5,-152.5 366.5,-152.5"/>
<text text-anchor="middle" x="390" y="-159.5" font-family="Helvetica,sans-Serif" font-size="10.00">g_iofile</text>
</a>
</g>
</g>
<!-- Node75&#45;&gt;Node76 -->
<g id="edge64" class="edge"><title>Node75&#45;&gt;Node76</title>
<path fill="none" stroke="midnightblue" d="M469.699,-162C450.947,-162 429.489,-162 413.72,-162"/>
<polygon fill="midnightblue" stroke="midnightblue" points="469.785,-165.5 479.785,-162 469.785,-158.5 469.785,-165.5"/>
</g>
<!-- Node67 -->
<g id="node48" class="node"><title>Node67</title>
<g id="a_node48"><a xlink:href="liolib_8c.html#ab08031b51605d4ef676ec33a3b96a286" target="_top" xlink:title=" ">
<polygon fill="white" stroke="black" points="365,-114.5 365,-133.5 415,-133.5 415,-114.5 365,-114.5"/>
<text text-anchor="middle" x="390" y="-121.5" font-family="Helvetica,sans-Serif" font-size="10.00">io_lines</text>
</a>
</g>
</g>
<!-- Node75&#45;&gt;Node67 -->
<g id="edge65" class="edge"><title>Node75&#45;&gt;Node67</title>
<path fill="none" stroke="midnightblue" d="M471.079,-149.358C452.595,-143.505 431.237,-136.742 415.23,-131.673"/>
<polygon fill="midnightblue" stroke="midnightblue" points="470.129,-152.729 480.719,-152.411 472.242,-146.055 470.129,-152.729"/>
</g>
<!-- Node80 -->
<g id="node50" class="node"><title>Node80</title>
<g id="a_node50"><a xlink:href="lualib_8h.html#ad9a992586e14f1dd04f4983b8740605a" target="_top" xlink:title=" ">
<polygon fill="white" stroke="black" points="594,-0.5 594,-19.5 671,-19.5 671,-0.5 594,-0.5"/>
<text text-anchor="middle" x="632.5" y="-7.5" font-family="Helvetica,sans-Serif" font-size="10.00">luaopen_math</text>
</a>
</g>
</g>
<!-- Node79&#45;&gt;Node80 -->
<g id="edge67" class="edge"><title>Node79&#45;&gt;Node80</title>
<path fill="none" stroke="midnightblue" d="M696.716,-21.3312C688.225,-19.8092 679.37,-18.222 671.069,-16.734"/>
<polygon fill="midnightblue" stroke="midnightblue" points="696.371,-24.825 706.832,-23.1443 697.606,-17.9348 696.371,-24.825"/>
</g>
</g>
</svg>
