<?xml version="1.0" encoding="UTF-8" standalone="no"?>
<!DOCTYPE svg PUBLIC "-//W3C//DTD SVG 1.1//EN"
 "http://www.w3.org/Graphics/SVG/1.1/DTD/svg11.dtd">
<!-- Generated by graphviz version 2.38.0 (20140413.2041)
 -->
<!-- Title: addfield Pages: 1 -->
<svg width="1150pt" height="655pt"
 viewBox="0.00 0.00 1150.00 655.41" xmlns="http://www.w3.org/2000/svg" xmlns:xlink="http://www.w3.org/1999/xlink">
<g id="graph0" class="graph" transform="scale(1 1) rotate(0) translate(4 651.405)">
<title>addfield</title>
<polygon fill="white" stroke="none" points="-4,4 -4,-651.405 1146,-651.405 1146,4 -4,4"/>
<!-- Node1 -->
<g id="node1" class="node"><title>Node1</title>
<g id="a_node1"><a xlink:title=" ">
<polygon fill="#bfbfbf" stroke="black" points="0,-313.905 0,-332.905 50,-332.905 50,-313.905 0,-313.905"/>
<text text-anchor="middle" x="25" y="-320.905" font-family="Helvetica,sans-Serif" font-size="10.00">addfield</text>
</a>
</g>
</g>
<!-- Node2 -->
<g id="node2" class="node"><title>Node2</title>
<g id="a_node2"><a xlink:href="lapi_8c.html#a631ebda324b6a0f382ab6b9314917384" target="_top" xlink:title=" ">
<polygon fill="white" stroke="black" points="431,-484.905 431,-503.905 481,-503.905 481,-484.905 431,-484.905"/>
<text text-anchor="middle" x="456" y="-491.905" font-family="Helvetica,sans-Serif" font-size="10.00">lua_geti</text>
</a>
</g>
</g>
<!-- Node1&#45;&gt;Node2 -->
<g id="edge1" class="edge"><title>Node1&#45;&gt;Node2</title>
<path fill="none" stroke="midnightblue" d="M32.1843,-333.07C42.2411,-348.318 63.3106,-378.382 86,-399.405 130.397,-440.541 141.802,-455.617 199,-475.405 274.888,-501.66 370.771,-500.369 420.907,-497.301"/>
<polygon fill="midnightblue" stroke="midnightblue" points="421.146,-500.793 430.888,-496.629 420.675,-493.809 421.146,-500.793"/>
</g>
<!-- Node446 -->
<g id="node22" class="node"><title>Node446</title>
<g id="a_node22"><a xlink:href="lapi_8c.html#a9f20233199a414b04c1c4b43f5d040f3" target="_top" xlink:title=" ">
<polygon fill="white" stroke="black" points="200,-446.905 200,-465.905 266,-465.905 266,-446.905 200,-446.905"/>
<text text-anchor="middle" x="233" y="-453.905" font-family="Helvetica,sans-Serif" font-size="10.00">lua_isstring</text>
</a>
</g>
</g>
<!-- Node1&#45;&gt;Node446 -->
<g id="edge26" class="edge"><title>Node1&#45;&gt;Node446</title>
<path fill="none" stroke="midnightblue" d="M40.815,-332.97C76.1394,-355.777 165.557,-413.508 208.403,-441.17"/>
<polygon fill="midnightblue" stroke="midnightblue" points="206.743,-444.265 217.042,-446.748 210.54,-438.384 206.743,-444.265"/>
</g>
<!-- Node447 -->
<g id="node23" class="node"><title>Node447</title>
<g id="a_node23"><a xlink:href="lauxlib_8c.html#a59a8ac34826fee305ad56101d97aee18" target="_top" xlink:title=" ">
<polygon fill="white" stroke="black" points="86,-256.905 86,-275.905 163,-275.905 163,-256.905 86,-256.905"/>
<text text-anchor="middle" x="124.5" y="-263.905" font-family="Helvetica,sans-Serif" font-size="10.00">luaL_addvalue</text>
</a>
</g>
</g>
<!-- Node1&#45;&gt;Node447 -->
<g id="edge28" class="edge"><title>Node1&#45;&gt;Node447</title>
<path fill="none" stroke="midnightblue" d="M42.5395,-313.736C57.7589,-304.839 80.5593,-291.509 98.0895,-281.261"/>
<polygon fill="midnightblue" stroke="midnightblue" points="100.338,-284 107.205,-275.932 96.8053,-277.957 100.338,-284"/>
</g>
<!-- Node476 -->
<g id="node41" class="node"><title>Node476</title>
<g id="a_node41"><a xlink:href="lauxlib_8c.html#a6c51d83d29244779392551388913e08a" target="_top" xlink:title=" ">
<polygon fill="white" stroke="black" points="426.5,-57.9053 426.5,-76.9053 485.5,-76.9053 485.5,-57.9053 426.5,-57.9053"/>
<text text-anchor="middle" x="456" y="-64.9053" font-family="Helvetica,sans-Serif" font-size="10.00">luaL_error</text>
</a>
</g>
</g>
<!-- Node1&#45;&gt;Node476 -->
<g id="edge67" class="edge"><title>Node1&#45;&gt;Node476</title>
<path fill="none" stroke="midnightblue" d="M31.6841,-313.893C56.9308,-272.735 163.828,-109.723 303,-57.4053 339.745,-43.5922 384.98,-49.1595 416.507,-56.2766"/>
<polygon fill="midnightblue" stroke="midnightblue" points="415.692,-59.6802 426.233,-58.6192 417.331,-52.8748 415.692,-59.6802"/>
</g>
<!-- Node3 -->
<g id="node3" class="node"><title>Node3</title>
<g id="a_node3"><a xlink:href="lapi_8c.html#a7c66797ff8396fc9258bb9fc08e959d8" target="_top" xlink:title=" ">
<polygon fill="white" stroke="black" points="555,-408.905 555,-427.905 622,-427.905 622,-408.905 555,-408.905"/>
<text text-anchor="middle" x="588.5" y="-415.905" font-family="Helvetica,sans-Serif" font-size="10.00">index2value</text>
</a>
</g>
</g>
<!-- Node2&#45;&gt;Node3 -->
<g id="edge2" class="edge"><title>Node2&#45;&gt;Node3</title>
<path fill="none" stroke="midnightblue" d="M480.197,-484.711C488.618,-480.767 498.019,-475.851 506,-470.405 523.93,-458.173 523.712,-449.095 542,-437.405 544.813,-435.607 547.825,-433.916 550.91,-432.341"/>
<polygon fill="midnightblue" stroke="midnightblue" points="552.68,-435.377 560.258,-427.973 549.716,-429.035 552.68,-435.377"/>
</g>
<!-- Node4 -->
<g id="node4" class="node"><title>Node4</title>
<g id="a_node4"><a xlink:href="lvm_8c.html#a45c30a70c51ed843f58bd446aa2096c9" target="_top" xlink:title=" ">
<polygon fill="white" stroke="black" points="550,-446.905 550,-465.905 627,-465.905 627,-446.905 550,-446.905"/>
<text text-anchor="middle" x="588.5" y="-453.905" font-family="Helvetica,sans-Serif" font-size="10.00">luaV_finishget</text>
</a>
</g>
</g>
<!-- Node2&#45;&gt;Node4 -->
<g id="edge3" class="edge"><title>Node2&#45;&gt;Node4</title>
<path fill="none" stroke="midnightblue" d="M481.24,-487.347C499.057,-482.159 523.735,-474.973 544.824,-468.832"/>
<polygon fill="midnightblue" stroke="midnightblue" points="545.91,-472.161 554.532,-466.005 543.953,-465.44 545.91,-472.161"/>
</g>
<!-- Node5 -->
<g id="node5" class="node"><title>Node5</title>
<g id="a_node5"><a xlink:href="ldebug_8c.html#a88d38ca5da2e7a1492fc9d5ad70c32c5" target="_top" xlink:title=" ">
<polygon fill="white" stroke="black" points="805,-285.905 805,-304.905 880,-304.905 880,-285.905 805,-285.905"/>
<text text-anchor="middle" x="842.5" y="-292.905" font-family="Helvetica,sans-Serif" font-size="10.00">luaG_runerror</text>
</a>
</g>
</g>
<!-- Node4&#45;&gt;Node5 -->
<g id="edge4" class="edge"><title>Node4&#45;&gt;Node5</title>
<path fill="none" stroke="midnightblue" d="M618.66,-446.898C624.382,-444.315 630.117,-441.167 635,-437.405 655.845,-421.348 650.252,-406.588 671,-390.405 704.592,-364.205 721.739,-373.058 759,-352.405 781.097,-340.157 804.654,-323.478 820.914,-311.328"/>
<polygon fill="midnightblue" stroke="midnightblue" points="823.28,-313.926 829.141,-305.1 819.055,-308.345 823.28,-313.926"/>
</g>
<!-- Node88 -->
<g id="node11" class="node"><title>Node88</title>
<g id="a_node11"><a xlink:href="ldebug_8c.html#a60bf9ce85441bd5065f2b73640163711" target="_top" xlink:title=" ">
<polygon fill="white" stroke="black" points="675,-399.905 675,-418.905 755,-418.905 755,-399.905 675,-399.905"/>
<text text-anchor="middle" x="715" y="-406.905" font-family="Helvetica,sans-Serif" font-size="10.00">luaG_typeerror</text>
</a>
</g>
</g>
<!-- Node4&#45;&gt;Node88 -->
<g id="edge11" class="edge"><title>Node4&#45;&gt;Node88</title>
<path fill="none" stroke="midnightblue" d="M614.694,-446.894C633.135,-439.933 658.397,-430.396 678.826,-422.684"/>
<polygon fill="midnightblue" stroke="midnightblue" points="680.296,-425.87 688.416,-419.064 677.824,-419.321 680.296,-425.87"/>
</g>
<!-- Node142 -->
<g id="node15" class="node"><title>Node142</title>
<g id="a_node15"><a xlink:href="ltable_8c.html#a8b4fce00d7db27ee9caac3d49863dea3" target="_top" xlink:title=" ">
<polygon fill="white" stroke="black" points="687.5,-551.905 687.5,-570.905 742.5,-570.905 742.5,-551.905 687.5,-551.905"/>
<text text-anchor="middle" x="715" y="-558.905" font-family="Helvetica,sans-Serif" font-size="10.00">luaH_get</text>
</a>
</g>
</g>
<!-- Node4&#45;&gt;Node142 -->
<g id="edge16" class="edge"><title>Node4&#45;&gt;Node142</title>
<path fill="none" stroke="midnightblue" d="M600.99,-466.095C622.391,-484.145 668.561,-523.083 694.782,-545.198"/>
<polygon fill="midnightblue" stroke="midnightblue" points="692.637,-547.967 702.538,-551.739 697.15,-542.616 692.637,-547.967"/>
</g>
<!-- Node377 -->
<g id="node19" class="node"><title>Node377</title>
<g id="a_node19"><a xlink:href="ltm_8c.html#aad98f3a425ba53e65e7a8f8037320402" target="_top" xlink:title=" ">
<polygon fill="white" stroke="black" points="674,-446.905 674,-465.905 756,-465.905 756,-446.905 674,-446.905"/>
<text text-anchor="middle" x="715" y="-453.905" font-family="Helvetica,sans-Serif" font-size="10.00">luaT_callTMres</text>
</a>
</g>
</g>
<!-- Node4&#45;&gt;Node377 -->
<g id="edge21" class="edge"><title>Node4&#45;&gt;Node377</title>
<path fill="none" stroke="midnightblue" d="M627.192,-456.405C638.71,-456.405 651.564,-456.405 663.776,-456.405"/>
<polygon fill="midnightblue" stroke="midnightblue" points="663.84,-459.905 673.84,-456.405 663.84,-452.905 663.84,-459.905"/>
</g>
<!-- Node79 -->
<g id="node21" class="node"><title>Node79</title>
<g id="a_node21"><a xlink:href="ltm_8c.html#a0a3a3df9d6e7f17d806f74d411e59b2d" target="_top" xlink:title=" ">
<polygon fill="white" stroke="black" points="671,-323.905 671,-342.905 759,-342.905 759,-323.905 671,-323.905"/>
<text text-anchor="middle" x="715" y="-330.905" font-family="Helvetica,sans-Serif" font-size="10.00">luaT_gettmbyobj</text>
</a>
</g>
</g>
<!-- Node4&#45;&gt;Node79 -->
<g id="edge24" class="edge"><title>Node4&#45;&gt;Node79</title>
<path fill="none" stroke="midnightblue" d="M621.265,-446.822C626.267,-444.324 631.074,-441.226 635,-437.405 662.943,-410.214 644.644,-386.138 671,-357.405 674.141,-353.982 677.886,-350.93 681.837,-348.247"/>
<polygon fill="midnightblue" stroke="midnightblue" points="683.882,-351.101 690.661,-342.959 680.284,-345.097 683.882,-351.101"/>
</g>
<!-- Node6 -->
<g id="node6" class="node"><title>Node6</title>
<g id="a_node6"><a xlink:href="ldebug_8c.html#ad6bc24d619df8e849e2ae8b00455d86f" target="_top" xlink:title=" ">
<polygon fill="white" stroke="red" points="935,-323.905 935,-342.905 1010,-342.905 1010,-323.905 935,-323.905"/>
<text text-anchor="middle" x="972.5" y="-330.905" font-family="Helvetica,sans-Serif" font-size="10.00">getcurrentline</text>
</a>
</g>
</g>
<!-- Node5&#45;&gt;Node6 -->
<g id="edge5" class="edge"><title>Node5&#45;&gt;Node6</title>
<path fill="none" stroke="midnightblue" d="M875.8,-304.994C892.02,-309.81 911.875,-315.704 929.287,-320.873"/>
<polygon fill="midnightblue" stroke="midnightblue" points="928.628,-324.329 939.211,-323.819 930.62,-317.618 928.628,-324.329"/>
</g>
<!-- Node10 -->
<g id="node7" class="node"><title>Node10</title>
<g id="a_node7"><a xlink:href="ldebug_8c.html#a7e1dc7518150bf19bd9aa5dda166a2eb" target="_top" xlink:title=" ">
<polygon fill="white" stroke="red" points="936,-285.905 936,-304.905 1009,-304.905 1009,-285.905 936,-285.905"/>
<text text-anchor="middle" x="972.5" y="-292.905" font-family="Helvetica,sans-Serif" font-size="10.00">luaG_addinfo</text>
</a>
</g>
</g>
<!-- Node5&#45;&gt;Node10 -->
<g id="edge6" class="edge"><title>Node5&#45;&gt;Node10</title>
<path fill="none" stroke="midnightblue" d="M880.18,-295.405C894.345,-295.405 910.709,-295.405 925.637,-295.405"/>
<polygon fill="midnightblue" stroke="midnightblue" points="925.699,-298.905 935.699,-295.405 925.699,-291.905 925.699,-298.905"/>
</g>
<!-- Node445 -->
<g id="node8" class="node"><title>Node445</title>
<g id="a_node8"><a xlink:href="ldebug_8c.html#af7366920f8408bb33ed01b1d6c0e1238" target="_top" xlink:title=" ">
<polygon fill="white" stroke="red" points="932.5,-247.905 932.5,-266.905 1012.5,-266.905 1012.5,-247.905 932.5,-247.905"/>
<text text-anchor="middle" x="972.5" y="-254.905" font-family="Helvetica,sans-Serif" font-size="10.00">luaG_errormsg</text>
</a>
</g>
</g>
<!-- Node5&#45;&gt;Node445 -->
<g id="edge7" class="edge"><title>Node5&#45;&gt;Node445</title>
<path fill="none" stroke="midnightblue" d="M875.8,-285.816C892.02,-281.001 911.875,-275.106 929.287,-269.937"/>
<polygon fill="midnightblue" stroke="midnightblue" points="930.62,-273.193 939.211,-266.991 928.628,-266.482 930.62,-273.193"/>
</g>
<!-- Node13 -->
<g id="node10" class="node"><title>Node13</title>
<g id="a_node10"><a xlink:href="lobject_8c.html#aa83fa444a36d79521e846a766fa083d5" target="_top" xlink:title=" ">
<polygon fill="white" stroke="red" points="926,-199.905 926,-218.905 1019,-218.905 1019,-199.905 926,-199.905"/>
<text text-anchor="middle" x="972.5" y="-206.905" font-family="Helvetica,sans-Serif" font-size="10.00">luaO_pushvfstring</text>
</a>
</g>
</g>
<!-- Node5&#45;&gt;Node13 -->
<g id="edge9" class="edge"><title>Node5&#45;&gt;Node13</title>
<path fill="none" stroke="midnightblue" d="M850.286,-285.629C864.314,-271.663 897.572,-248.276 926,-229.405 928.414,-227.803 930.91,-226.164 933.431,-224.537"/>
<polygon fill="midnightblue" stroke="midnightblue" points="935.431,-227.413 942.025,-219.12 931.699,-221.491 935.431,-227.413"/>
</g>
<!-- Node64 -->
<g id="node9" class="node"><title>Node64</title>
<g id="a_node9"><a xlink:href="ldo_8c.html#a61c0a0185ef5ae1493dad10027f4db7e" target="_top" xlink:title=" ">
<polygon fill="white" stroke="red" points="1055,-361.905 1055,-380.905 1142,-380.905 1142,-361.905 1055,-361.905"/>
<text text-anchor="middle" x="1098.5" y="-368.905" font-family="Helvetica,sans-Serif" font-size="10.00">luaD_callnoyield</text>
</a>
</g>
</g>
<!-- Node445&#45;&gt;Node64 -->
<g id="edge8" class="edge"><title>Node445&#45;&gt;Node64</title>
<path fill="none" stroke="midnightblue" d="M1002.55,-267.054C1008.28,-269.626 1014.05,-272.735 1019,-276.405 1047.92,-297.84 1072.73,-332.13 1086.34,-353.122"/>
<polygon fill="midnightblue" stroke="midnightblue" points="1083.49,-355.152 1091.78,-361.737 1089.4,-351.413 1083.49,-355.152"/>
</g>
<!-- Node13&#45;&gt;Node5 -->
<g id="edge10" class="edge"><title>Node13&#45;&gt;Node5</title>
<path fill="none" stroke="midnightblue" d="M965.565,-218.961C956.835,-227.531 940.048,-238.08 926,-247.405 909.51,-258.351 891.396,-270.817 876.352,-280.505"/>
<polygon fill="midnightblue" stroke="midnightblue" points="874.469,-277.555 867.885,-285.856 878.208,-283.472 874.469,-277.555"/>
</g>
<!-- Node88&#45;&gt;Node5 -->
<g id="edge12" class="edge"><title>Node88&#45;&gt;Node5</title>
<path fill="none" stroke="midnightblue" d="M736.099,-399.902C743.621,-395.914 752.025,-390.919 759,-385.405 786.541,-363.632 812.979,-332.359 828.213,-312.993"/>
<polygon fill="midnightblue" stroke="midnightblue" points="831.038,-315.061 834.387,-305.009 825.501,-310.778 831.038,-315.061"/>
</g>
<!-- Node89 -->
<g id="node12" class="node"><title>Node89</title>
<g id="a_node12"><a xlink:href="ltm_8c.html#a6774390baf68edcb78194d0e0f8546ab" target="_top" xlink:title=" ">
<polygon fill="white" stroke="red" points="795,-399.905 795,-418.905 890,-418.905 890,-399.905 795,-399.905"/>
<text text-anchor="middle" x="842.5" y="-406.905" font-family="Helvetica,sans-Serif" font-size="10.00">luaT_objtypename</text>
</a>
</g>
</g>
<!-- Node88&#45;&gt;Node89 -->
<g id="edge13" class="edge"><title>Node88&#45;&gt;Node89</title>
<path fill="none" stroke="midnightblue" d="M755.021,-409.405C764.313,-409.405 774.42,-409.405 784.338,-409.405"/>
<polygon fill="midnightblue" stroke="midnightblue" points="784.565,-412.905 794.565,-409.405 784.565,-405.905 784.565,-412.905"/>
</g>
<!-- Node91 -->
<g id="node14" class="node"><title>Node91</title>
<g id="a_node14"><a xlink:href="ldebug_8c.html#a86692faa1669d631d38c24993d511dd5" target="_top" xlink:title=" ">
<polygon fill="white" stroke="red" points="820.5,-361.905 820.5,-380.905 864.5,-380.905 864.5,-361.905 820.5,-361.905"/>
<text text-anchor="middle" x="842.5" y="-368.905" font-family="Helvetica,sans-Serif" font-size="10.00">varinfo</text>
</a>
</g>
</g>
<!-- Node88&#45;&gt;Node91 -->
<g id="edge15" class="edge"><title>Node88&#45;&gt;Node91</title>
<path fill="none" stroke="midnightblue" d="M747.669,-399.816C766.996,-393.964 791.586,-386.519 810.744,-380.718"/>
<polygon fill="midnightblue" stroke="midnightblue" points="811.929,-384.016 820.485,-377.768 809.9,-377.317 811.929,-384.016"/>
</g>
<!-- Node80 -->
<g id="node13" class="node"><title>Node80</title>
<g id="a_node13"><a xlink:href="ltable_8c.html#ae8a52507e1c8966d9cf3f2dd5a0c325f" target="_top" xlink:title=" ">
<polygon fill="white" stroke="black" points="928.5,-399.905 928.5,-418.905 1016.5,-418.905 1016.5,-399.905 928.5,-399.905"/>
<text text-anchor="middle" x="972.5" y="-406.905" font-family="Helvetica,sans-Serif" font-size="10.00">luaH_getshortstr</text>
</a>
</g>
</g>
<!-- Node89&#45;&gt;Node80 -->
<g id="edge14" class="edge"><title>Node89&#45;&gt;Node80</title>
<path fill="none" stroke="midnightblue" d="M890.073,-409.405C899.11,-409.405 908.648,-409.405 917.89,-409.405"/>
<polygon fill="midnightblue" stroke="midnightblue" points="918.155,-412.905 928.155,-409.405 918.155,-405.905 918.155,-412.905"/>
</g>
<!-- Node142&#45;&gt;Node80 -->
<g id="edge19" class="edge"><title>Node142&#45;&gt;Node80</title>
<path fill="none" stroke="midnightblue" d="M735.187,-551.813C767.67,-535.379 835.301,-500.322 890,-466.405 911.173,-453.277 934.367,-436.841 950.58,-424.996"/>
<polygon fill="midnightblue" stroke="midnightblue" points="952.832,-427.685 958.811,-418.938 948.682,-422.047 952.832,-427.685"/>
</g>
<!-- Node143 -->
<g id="node16" class="node"><title>Node143</title>
<g id="a_node16"><a xlink:href="ltable_8c.html#a9170d329b0dd746ca9b15db8c22a2127" target="_top" xlink:title=" ">
<polygon fill="white" stroke="red" points="811.5,-551.905 811.5,-570.905 873.5,-570.905 873.5,-551.905 811.5,-551.905"/>
<text text-anchor="middle" x="842.5" y="-558.905" font-family="Helvetica,sans-Serif" font-size="10.00">getgeneric</text>
</a>
</g>
</g>
<!-- Node142&#45;&gt;Node143 -->
<g id="edge17" class="edge"><title>Node142&#45;&gt;Node143</title>
<path fill="none" stroke="midnightblue" d="M742.615,-561.405C759.614,-561.405 781.979,-561.405 801.139,-561.405"/>
<polygon fill="midnightblue" stroke="midnightblue" points="801.4,-564.905 811.4,-561.405 801.4,-557.905 801.4,-564.905"/>
</g>
<!-- Node151 -->
<g id="node17" class="node"><title>Node151</title>
<g id="a_node17"><a xlink:href="ltable_8c.html#ae142cefd44452389877c3e3187c7973e" target="_top" xlink:title=" ">
<polygon fill="white" stroke="red" points="810,-627.905 810,-646.905 875,-646.905 875,-627.905 810,-627.905"/>
<text text-anchor="middle" x="842.5" y="-634.905" font-family="Helvetica,sans-Serif" font-size="10.00">luaH_getint</text>
</a>
</g>
</g>
<!-- Node142&#45;&gt;Node151 -->
<g id="edge18" class="edge"><title>Node142&#45;&gt;Node151</title>
<path fill="none" stroke="midnightblue" d="M727.46,-571.019C742.331,-583.171 769.414,-604.212 795,-618.405 798.322,-620.248 801.86,-622.014 805.444,-623.676"/>
<polygon fill="midnightblue" stroke="midnightblue" points="804.358,-627.02 814.923,-627.812 807.158,-620.605 804.358,-627.02"/>
</g>
<!-- Node113 -->
<g id="node18" class="node"><title>Node113</title>
<g id="a_node18"><a xlink:href="lvm_8c.html#a3a9a9378ccdbd0ea4cba6555673dccf9" target="_top" xlink:title=" ">
<polygon fill="white" stroke="black" points="799.5,-589.905 799.5,-608.905 885.5,-608.905 885.5,-589.905 799.5,-589.905"/>
<text text-anchor="middle" x="842.5" y="-596.905" font-family="Helvetica,sans-Serif" font-size="10.00">luaV_flttointeger</text>
</a>
</g>
</g>
<!-- Node142&#45;&gt;Node113 -->
<g id="edge20" class="edge"><title>Node142&#45;&gt;Node113</title>
<path fill="none" stroke="midnightblue" d="M742.615,-569.464C759.404,-574.547 781.427,-581.216 800.427,-586.969"/>
<polygon fill="midnightblue" stroke="midnightblue" points="799.458,-590.332 810.044,-589.881 801.487,-583.633 799.458,-590.332"/>
</g>
<!-- Node377&#45;&gt;Node64 -->
<g id="edge23" class="edge"><title>Node377&#45;&gt;Node64</title>
<path fill="none" stroke="midnightblue" d="M756.096,-462.474C768.534,-464.089 782.306,-465.605 795,-466.405 895.778,-472.758 928.396,-472.986 1019,-428.405 1041.31,-417.426 1064,-400.15 1079.21,-387.492"/>
<polygon fill="midnightblue" stroke="midnightblue" points="1081.49,-390.15 1086.84,-381.005 1076.95,-384.817 1081.49,-390.15"/>
</g>
<!-- Node378 -->
<g id="node20" class="node"><title>Node378</title>
<g id="a_node20"><a xlink:href="ldo_8c.html#a5483fddd87ca999e7d037bf397ab7997" target="_top" xlink:title=" ">
<polygon fill="white" stroke="red" points="814.5,-437.905 814.5,-456.905 870.5,-456.905 870.5,-437.905 814.5,-437.905"/>
<text text-anchor="middle" x="842.5" y="-444.905" font-family="Helvetica,sans-Serif" font-size="10.00">luaD_call</text>
</a>
</g>
</g>
<!-- Node377&#45;&gt;Node378 -->
<g id="edge22" class="edge"><title>Node377&#45;&gt;Node378</title>
<path fill="none" stroke="midnightblue" d="M756.054,-453.533C771.558,-452.421 789.198,-451.156 804.408,-450.065"/>
<polygon fill="midnightblue" stroke="midnightblue" points="804.77,-453.548 814.494,-449.342 804.269,-446.566 804.77,-453.548"/>
</g>
<!-- Node79&#45;&gt;Node80 -->
<g id="edge25" class="edge"><title>Node79&#45;&gt;Node80</title>
<path fill="none" stroke="midnightblue" d="M759.207,-332.235C795.277,-332.626 847.475,-336.421 890,-352.405 914.274,-361.529 938.117,-379.566 953.68,-392.918"/>
<polygon fill="midnightblue" stroke="midnightblue" points="951.615,-395.764 961.425,-399.767 956.253,-390.52 951.615,-395.764"/>
</g>
<!-- Node446&#45;&gt;Node3 -->
<g id="edge27" class="edge"><title>Node446&#45;&gt;Node3</title>
<path fill="none" stroke="midnightblue" d="M266.005,-455.818C317.036,-454.513 419.869,-450.369 506,-437.405 518.81,-435.477 532.584,-432.587 545.095,-429.64"/>
<polygon fill="midnightblue" stroke="midnightblue" points="545.924,-433.04 554.817,-427.28 544.273,-426.238 545.924,-433.04"/>
</g>
<!-- Node448 -->
<g id="node24" class="node"><title>Node448</title>
<g id="a_node24"><a xlink:href="lapi_8c.html#a3fc7dbcac3f2610f3d687ec15343bd3f" target="_top" xlink:title=" ">
<polygon fill="white" stroke="black" points="421.5,-256.905 421.5,-275.905 490.5,-275.905 490.5,-256.905 421.5,-256.905"/>
<text text-anchor="middle" x="456" y="-263.905" font-family="Helvetica,sans-Serif" font-size="10.00">lua_tolstring</text>
</a>
</g>
</g>
<!-- Node447&#45;&gt;Node448 -->
<g id="edge29" class="edge"><title>Node447&#45;&gt;Node448</title>
<path fill="none" stroke="midnightblue" d="M163.298,-266.405C224.626,-266.405 345.508,-266.405 410.75,-266.405"/>
<polygon fill="midnightblue" stroke="midnightblue" points="411.109,-269.905 421.109,-266.405 411.109,-262.905 411.109,-269.905"/>
</g>
<!-- Node450 -->
<g id="node28" class="node"><title>Node450</title>
<g id="a_node28"><a xlink:href="lauxlib_8c.html#a96b72c2bee2d49148b93676ea09818a5" target="_top" xlink:title=" ">
<polygon fill="white" stroke="black" points="199,-180.905 199,-199.905 267,-199.905 267,-180.905 199,-180.905"/>
<text text-anchor="middle" x="233" y="-187.905" font-family="Helvetica,sans-Serif" font-size="10.00">prepbuffsize</text>
</a>
</g>
</g>
<!-- Node447&#45;&gt;Node450 -->
<g id="edge34" class="edge"><title>Node447&#45;&gt;Node450</title>
<path fill="none" stroke="midnightblue" d="M138.988,-256.78C156.993,-243.931 189.089,-221.027 210.462,-205.775"/>
<polygon fill="midnightblue" stroke="midnightblue" points="212.514,-208.61 218.621,-199.953 208.448,-202.912 212.514,-208.61"/>
</g>
<!-- Node448&#45;&gt;Node3 -->
<g id="edge30" class="edge"><title>Node448&#45;&gt;Node3</title>
<path fill="none" stroke="midnightblue" d="M490.523,-276.007C496.047,-278.51 501.447,-281.605 506,-285.405 525.784,-301.917 561.194,-367.382 578.064,-399.89"/>
<polygon fill="midnightblue" stroke="midnightblue" points="574.977,-401.541 582.666,-408.831 581.201,-398.338 574.977,-401.541"/>
</g>
<!-- Node449 -->
<g id="node25" class="node"><title>Node449</title>
<g id="a_node25"><a xlink:href="lobject_8c.html#a53824ade5220a50d44148175f7787199" target="_top" xlink:title=" ">
<polygon fill="white" stroke="black" points="551.5,-256.905 551.5,-275.905 625.5,-275.905 625.5,-256.905 551.5,-256.905"/>
<text text-anchor="middle" x="588.5" y="-263.905" font-family="Helvetica,sans-Serif" font-size="10.00">luaO_tostring</text>
</a>
</g>
</g>
<!-- Node448&#45;&gt;Node449 -->
<g id="edge31" class="edge"><title>Node448&#45;&gt;Node449</title>
<path fill="none" stroke="midnightblue" d="M490.607,-266.405C505.992,-266.405 524.473,-266.405 541.152,-266.405"/>
<polygon fill="midnightblue" stroke="midnightblue" points="541.26,-269.905 551.26,-266.405 541.259,-262.905 541.26,-269.905"/>
</g>
<!-- Node18 -->
<g id="node26" class="node"><title>Node18</title>
<g id="a_node26"><a xlink:href="lstring_8c.html#ab41fb084ce3ea5e2779f6659ccc2484d" target="_top" xlink:title=" ">
<polygon fill="white" stroke="red" points="806.5,-57.9053 806.5,-76.9053 878.5,-76.9053 878.5,-57.9053 806.5,-57.9053"/>
<text text-anchor="middle" x="842.5" y="-64.9053" font-family="Helvetica,sans-Serif" font-size="10.00">luaS_newlstr</text>
</a>
</g>
</g>
<!-- Node449&#45;&gt;Node18 -->
<g id="edge32" class="edge"><title>Node449&#45;&gt;Node18</title>
<path fill="none" stroke="midnightblue" d="M609.334,-256.776C642.369,-240.205 709.878,-204.034 759,-162.405 786.872,-138.785 813.538,-105.479 828.678,-85.2254"/>
<polygon fill="midnightblue" stroke="midnightblue" points="831.502,-87.2939 834.609,-77.1649 825.863,-83.1454 831.502,-87.2939"/>
</g>
<!-- Node443 -->
<g id="node27" class="node"><title>Node443</title>
<g id="a_node27"><a xlink:href="lobject_8c.html#a8a7886b6335aca97db23dfe3e220c728" target="_top" xlink:title=" ">
<polygon fill="white" stroke="black" points="683,-285.905 683,-304.905 747,-304.905 747,-285.905 683,-285.905"/>
<text text-anchor="middle" x="715" y="-292.905" font-family="Helvetica,sans-Serif" font-size="10.00">tostringbuff</text>
</a>
</g>
</g>
<!-- Node449&#45;&gt;Node443 -->
<g id="edge33" class="edge"><title>Node449&#45;&gt;Node443</title>
<path fill="none" stroke="midnightblue" d="M625.511,-274.793C640.356,-278.251 657.639,-282.277 672.971,-285.848"/>
<polygon fill="midnightblue" stroke="midnightblue" points="672.186,-289.259 682.719,-288.119 673.774,-282.442 672.186,-289.259"/>
</g>
<!-- Node451 -->
<g id="node29" class="node"><title>Node451</title>
<g id="a_node29"><a xlink:href="lapi_8c.html#a1b4cd0d80f51e5545a97ca6c28c03c50" target="_top" xlink:title=" ">
<polygon fill="white" stroke="black" points="304,-104.905 304,-123.905 369,-123.905 369,-104.905 304,-104.905"/>
<text text-anchor="middle" x="336.5" y="-111.905" font-family="Helvetica,sans-Serif" font-size="10.00">lua_pushnil</text>
</a>
</g>
</g>
<!-- Node450&#45;&gt;Node451 -->
<g id="edge35" class="edge"><title>Node450&#45;&gt;Node451</title>
<path fill="none" stroke="midnightblue" d="M244.798,-180.55C258.023,-168.704 281.345,-148.532 303,-133.405 304.916,-132.067 306.93,-130.732 308.978,-129.426"/>
<polygon fill="midnightblue" stroke="midnightblue" points="311.246,-132.143 317.973,-123.958 307.61,-126.162 311.246,-132.143"/>
</g>
<!-- Node452 -->
<g id="node30" class="node"><title>Node452</title>
<g id="a_node30"><a xlink:href="lapi_8c.html#af680e24129c0e021b4fbb7700cf185dc" target="_top" xlink:title=" ">
<polygon fill="white" stroke="black" points="307,-180.905 307,-199.905 366,-199.905 366,-180.905 307,-180.905"/>
<text text-anchor="middle" x="336.5" y="-187.905" font-family="Helvetica,sans-Serif" font-size="10.00">lua_rotate</text>
</a>
</g>
</g>
<!-- Node450&#45;&gt;Node452 -->
<g id="edge36" class="edge"><title>Node450&#45;&gt;Node452</title>
<path fill="none" stroke="midnightblue" d="M267.235,-190.405C276.661,-190.405 287.005,-190.405 296.728,-190.405"/>
<polygon fill="midnightblue" stroke="midnightblue" points="296.961,-193.905 306.961,-190.405 296.961,-186.905 296.961,-193.905"/>
</g>
<!-- Node455 -->
<g id="node33" class="node"><title>Node455</title>
<g id="a_node33"><a xlink:href="lapi_8c.html#a5101545bcd4222abe101836b7931bdf9" target="_top" xlink:title=" ">
<polygon fill="white" stroke="black" points="303.5,-218.905 303.5,-237.905 369.5,-237.905 369.5,-218.905 303.5,-218.905"/>
<text text-anchor="middle" x="336.5" y="-225.905" font-family="Helvetica,sans-Serif" font-size="10.00">lua_toclose</text>
</a>
</g>
</g>
<!-- Node450&#45;&gt;Node455 -->
<g id="edge39" class="edge"><title>Node450&#45;&gt;Node455</title>
<path fill="none" stroke="midnightblue" d="M259.613,-199.994C271.994,-204.63 287.046,-210.265 300.47,-215.291"/>
<polygon fill="midnightblue" stroke="midnightblue" points="299.303,-218.591 309.895,-218.819 301.757,-212.035 299.303,-218.591"/>
</g>
<!-- Node456 -->
<g id="node35" class="node"><title>Node456</title>
<g id="a_node35"><a xlink:href="lauxlib_8c.html#a22714b3538a1ad6943014db449d4ed19" target="_top" xlink:title=" ">
<polygon fill="white" stroke="black" points="311.5,-332.905 311.5,-351.905 361.5,-351.905 361.5,-332.905 311.5,-332.905"/>
<text text-anchor="middle" x="336.5" y="-339.905" font-family="Helvetica,sans-Serif" font-size="10.00">newbox</text>
</a>
</g>
</g>
<!-- Node450&#45;&gt;Node456 -->
<g id="edge43" class="edge"><title>Node450&#45;&gt;Node456</title>
<path fill="none" stroke="midnightblue" d="M240.349,-199.914C256.94,-224.758 301.797,-291.933 323.464,-324.381"/>
<polygon fill="midnightblue" stroke="midnightblue" points="320.689,-326.528 329.153,-332.901 326.51,-322.641 320.689,-326.528"/>
</g>
<!-- Node490 -->
<g id="node40" class="node"><title>Node490</title>
<g id="a_node40"><a xlink:href="lauxlib_8c.html#a5a09a1507f8338fd07d77992e200c5d2" target="_top" xlink:title=" ">
<polygon fill="white" stroke="black" points="303,-66.9053 303,-85.9053 370,-85.9053 370,-66.9053 303,-66.9053"/>
<text text-anchor="middle" x="336.5" y="-73.9053" font-family="Helvetica,sans-Serif" font-size="10.00">newbuffsize</text>
</a>
</g>
</g>
<!-- Node450&#45;&gt;Node490 -->
<g id="edge49" class="edge"><title>Node450&#45;&gt;Node490</title>
<path fill="none" stroke="midnightblue" d="M239.181,-180.775C249.428,-162.398 273.837,-121.812 303,-95.4053 304.453,-94.0893 306.013,-92.8207 307.633,-91.6067"/>
<polygon fill="midnightblue" stroke="midnightblue" points="309.643,-94.4729 316.034,-86.0222 305.768,-88.6433 309.643,-94.4729"/>
</g>
<!-- Node491 -->
<g id="node50" class="node"><title>Node491</title>
<g id="a_node50"><a xlink:href="lauxlib_8c.html#acdf7f3169e55f9c8bd3d314358a9e778" target="_top" xlink:title=" ">
<polygon fill="white" stroke="red" points="307,-142.905 307,-161.905 366,-161.905 366,-142.905 307,-142.905"/>
<text text-anchor="middle" x="336.5" y="-149.905" font-family="Helvetica,sans-Serif" font-size="10.00">resizebox</text>
</a>
</g>
</g>
<!-- Node450&#45;&gt;Node491 -->
<g id="edge65" class="edge"><title>Node450&#45;&gt;Node491</title>
<path fill="none" stroke="midnightblue" d="M259.613,-180.816C271.994,-176.181 287.046,-170.546 300.47,-165.52"/>
<polygon fill="midnightblue" stroke="midnightblue" points="301.757,-168.775 309.895,-161.991 299.303,-162.22 301.757,-168.775"/>
</g>
<!-- Node453 -->
<g id="node31" class="node"><title>Node453</title>
<g id="a_node31"><a xlink:href="lapi_8c.html#a7acfd65878b2f2c7529c788ce08d1949" target="_top" xlink:title=" ">
<polygon fill="white" stroke="black" points="421.5,-180.905 421.5,-199.905 490.5,-199.905 490.5,-180.905 421.5,-180.905"/>
<text text-anchor="middle" x="456" y="-187.905" font-family="Helvetica,sans-Serif" font-size="10.00">index2stack</text>
</a>
</g>
</g>
<!-- Node452&#45;&gt;Node453 -->
<g id="edge37" class="edge"><title>Node452&#45;&gt;Node453</title>
<path fill="none" stroke="midnightblue" d="M366.244,-190.405C379.713,-190.405 396.059,-190.405 411.034,-190.405"/>
<polygon fill="midnightblue" stroke="midnightblue" points="411.13,-193.905 421.13,-190.405 411.13,-186.905 411.13,-193.905"/>
</g>
<!-- Node454 -->
<g id="node32" class="node"><title>Node454</title>
<g id="a_node32"><a xlink:href="lapi_8c.html#a2c07d0a193ad3ae19b4682ed92973c70" target="_top" xlink:title=" ">
<polygon fill="white" stroke="black" points="432.5,-142.905 432.5,-161.905 479.5,-161.905 479.5,-142.905 432.5,-142.905"/>
<text text-anchor="middle" x="456" y="-149.905" font-family="Helvetica,sans-Serif" font-size="10.00">reverse</text>
</a>
</g>
</g>
<!-- Node452&#45;&gt;Node454 -->
<g id="edge38" class="edge"><title>Node452&#45;&gt;Node454</title>
<path fill="none" stroke="midnightblue" d="M366.244,-181.109C383.282,-175.599 404.923,-168.6 422.57,-162.893"/>
<polygon fill="midnightblue" stroke="midnightblue" points="423.996,-166.111 432.434,-159.703 421.842,-159.45 423.996,-166.111"/>
</g>
<!-- Node455&#45;&gt;Node453 -->
<g id="edge40" class="edge"><title>Node455&#45;&gt;Node453</title>
<path fill="none" stroke="midnightblue" d="M367.15,-218.816C381.901,-214.046 399.926,-208.217 415.801,-203.082"/>
<polygon fill="midnightblue" stroke="midnightblue" points="416.921,-206.399 425.359,-199.991 414.767,-199.738 416.921,-206.399"/>
</g>
<!-- Node386 -->
<g id="node34" class="node"><title>Node386</title>
<g id="a_node34"><a xlink:href="lfunc_8c.html#a0f1719e232a25ecfcafed14f8b39ad31" target="_top" xlink:title=" ">
<polygon fill="white" stroke="red" points="542,-304.905 542,-323.905 635,-323.905 635,-304.905 542,-304.905"/>
<text text-anchor="middle" x="588.5" y="-311.905" font-family="Helvetica,sans-Serif" font-size="10.00">luaF_newtbcupval</text>
</a>
</g>
</g>
<!-- Node455&#45;&gt;Node386 -->
<g id="edge41" class="edge"><title>Node455&#45;&gt;Node386</title>
<path fill="none" stroke="midnightblue" d="M369.757,-225.688C405.094,-224.109 462.526,-225.739 506,-247.405 526.822,-257.783 524.056,-270.598 542,-285.405 548.06,-290.406 555.033,-295.243 561.671,-299.487"/>
<polygon fill="midnightblue" stroke="midnightblue" points="560.047,-302.597 570.397,-304.865 563.721,-296.639 560.047,-302.597"/>
</g>
<!-- Node386&#45;&gt;Node79 -->
<g id="edge42" class="edge"><title>Node386&#45;&gt;Node79</title>
<path fill="none" stroke="midnightblue" d="M635.152,-321.372C643.532,-322.651 652.345,-323.996 660.92,-325.305"/>
<polygon fill="midnightblue" stroke="midnightblue" points="660.424,-328.77 670.838,-326.818 661.481,-321.85 660.424,-328.77"/>
</g>
<!-- Node457 -->
<g id="node36" class="node"><title>Node457</title>
<g id="a_node36"><a xlink:href="lapi_8c.html#a9c09a58b86c71e997d7ccabb67f18c12" target="_top" xlink:title=" ">
<polygon fill="white" stroke="red" points="407,-332.905 407,-351.905 505,-351.905 505,-332.905 407,-332.905"/>
<text text-anchor="middle" x="456" y="-339.905" font-family="Helvetica,sans-Serif" font-size="10.00">lua_newuserdatauv</text>
</a>
</g>
</g>
<!-- Node456&#45;&gt;Node457 -->
<g id="edge44" class="edge"><title>Node456&#45;&gt;Node457</title>
<path fill="none" stroke="midnightblue" d="M361.561,-342.405C371.737,-342.405 384.077,-342.405 396.407,-342.405"/>
<polygon fill="midnightblue" stroke="midnightblue" points="396.714,-345.905 406.714,-342.405 396.714,-338.905 396.714,-345.905"/>
</g>
<!-- Node459 -->
<g id="node37" class="node"><title>Node459</title>
<g id="a_node37"><a xlink:href="lapi_8c.html#a15719ea4119bdf5b3f2a406534431a7e" target="_top" xlink:title=" ">
<polygon fill="white" stroke="red" points="410.5,-408.905 410.5,-427.905 501.5,-427.905 501.5,-408.905 410.5,-408.905"/>
<text text-anchor="middle" x="456" y="-415.905" font-family="Helvetica,sans-Serif" font-size="10.00">lua_setmetatable</text>
</a>
</g>
</g>
<!-- Node456&#45;&gt;Node459 -->
<g id="edge45" class="edge"><title>Node456&#45;&gt;Node459</title>
<path fill="none" stroke="midnightblue" d="M346.941,-352.001C359.492,-364.325 382.8,-385.751 406,-399.405 409.258,-401.323 412.746,-403.118 416.302,-404.779"/>
<polygon fill="midnightblue" stroke="midnightblue" points="415.202,-408.116 425.77,-408.858 417.971,-401.687 415.202,-408.116"/>
</g>
<!-- Node463 -->
<g id="node38" class="node"><title>Node463</title>
<g id="a_node38"><a xlink:href="lauxlib_8c.html#a2664eb7bcc85bbf6eeded2a81cf09b01" target="_top" xlink:title=" ">
<polygon fill="white" stroke="red" points="406,-294.905 406,-313.905 506,-313.905 506,-294.905 406,-294.905"/>
<text text-anchor="middle" x="456" y="-301.905" font-family="Helvetica,sans-Serif" font-size="10.00">luaL_newmetatable</text>
</a>
</g>
</g>
<!-- Node456&#45;&gt;Node463 -->
<g id="edge47" class="edge"><title>Node456&#45;&gt;Node463</title>
<path fill="none" stroke="midnightblue" d="M361.561,-334.624C377.197,-329.567 397.939,-322.859 415.908,-317.048"/>
<polygon fill="midnightblue" stroke="midnightblue" points="417.118,-320.335 425.556,-313.928 414.964,-313.675 417.118,-320.335"/>
</g>
<!-- Node469 -->
<g id="node39" class="node"><title>Node469</title>
<g id="a_node39"><a xlink:href="lauxlib_8c.html#a4cab22d0cb403fa6b94f2542f4303096" target="_top" xlink:title=" ">
<polygon fill="white" stroke="red" points="417.5,-370.905 417.5,-389.905 494.5,-389.905 494.5,-370.905 417.5,-370.905"/>
<text text-anchor="middle" x="456" y="-377.905" font-family="Helvetica,sans-Serif" font-size="10.00">luaL_setfuncs</text>
</a>
</g>
</g>
<!-- Node456&#45;&gt;Node469 -->
<g id="edge48" class="edge"><title>Node456&#45;&gt;Node469</title>
<path fill="none" stroke="midnightblue" d="M361.561,-350.187C377.197,-355.243 397.939,-361.952 415.908,-367.763"/>
<polygon fill="midnightblue" stroke="midnightblue" points="414.964,-371.136 425.556,-370.883 417.118,-364.476 414.964,-371.136"/>
</g>
<!-- Node459&#45;&gt;Node3 -->
<g id="edge46" class="edge"><title>Node459&#45;&gt;Node3</title>
<path fill="none" stroke="midnightblue" d="M501.546,-418.405C515.432,-418.405 530.714,-418.405 544.492,-418.405"/>
<polygon fill="midnightblue" stroke="midnightblue" points="544.688,-421.905 554.688,-418.405 544.688,-414.905 544.688,-421.905"/>
</g>
<!-- Node490&#45;&gt;Node476 -->
<g id="edge50" class="edge"><title>Node490&#45;&gt;Node476</title>
<path fill="none" stroke="midnightblue" d="M370.23,-73.8983C384.575,-72.7996 401.514,-71.5022 416.464,-70.3571"/>
<polygon fill="midnightblue" stroke="midnightblue" points="416.736,-73.8465 426.439,-69.593 416.201,-66.867 416.736,-73.8465"/>
</g>
<!-- Node477 -->
<g id="node42" class="node"><title>Node477</title>
<g id="a_node42"><a xlink:href="lapi_8c.html#a1de3afee1daece63d455f23818c883d9" target="_top" xlink:title=" ">
<polygon fill="white" stroke="black" points="556.5,-57.9053 556.5,-76.9053 620.5,-76.9053 620.5,-57.9053 556.5,-57.9053"/>
<text text-anchor="middle" x="588.5" y="-64.9053" font-family="Helvetica,sans-Serif" font-size="10.00">lua_concat</text>
</a>
</g>
</g>
<!-- Node476&#45;&gt;Node477 -->
<g id="edge51" class="edge"><title>Node476&#45;&gt;Node477</title>
<path fill="none" stroke="midnightblue" d="M485.639,-67.4053C503.319,-67.4053 526.302,-67.4053 545.961,-67.4053"/>
<polygon fill="midnightblue" stroke="midnightblue" points="546.189,-70.9054 556.189,-67.4053 546.189,-63.9054 546.189,-70.9054"/>
</g>
<!-- Node478 -->
<g id="node44" class="node"><title>Node478</title>
<g id="a_node44"><a xlink:href="lapi_8c.html#a6ba7b91143fe8a03910420d800de8e97" target="_top" xlink:title=" ">
<polygon fill="white" stroke="black" points="561.5,-133.905 561.5,-152.905 615.5,-152.905 615.5,-133.905 561.5,-133.905"/>
<text text-anchor="middle" x="588.5" y="-140.905" font-family="Helvetica,sans-Serif" font-size="10.00">lua_error</text>
</a>
</g>
</g>
<!-- Node476&#45;&gt;Node478 -->
<g id="edge56" class="edge"><title>Node476&#45;&gt;Node478</title>
<path fill="none" stroke="midnightblue" d="M471.417,-77.1248C495.182,-93.1398 540.161,-123.417 542,-124.405 545.464,-126.267 549.15,-128.072 552.866,-129.781"/>
<polygon fill="midnightblue" stroke="midnightblue" points="551.495,-133.002 562.059,-133.81 554.305,-126.59 551.495,-133.002"/>
</g>
<!-- Node479 -->
<g id="node45" class="node"><title>Node479</title>
<g id="a_node45"><a xlink:href="lapi_8c.html#a426c9cb1d582be3e43060c4772854e5a" target="_top" xlink:title=" ">
<polygon fill="white" stroke="black" points="545.5,-0.905329 545.5,-19.9053 631.5,-19.9053 631.5,-0.905329 545.5,-0.905329"/>
<text text-anchor="middle" x="588.5" y="-7.90533" font-family="Helvetica,sans-Serif" font-size="10.00">lua_pushvfstring</text>
</a>
</g>
</g>
<!-- Node476&#45;&gt;Node479 -->
<g id="edge58" class="edge"><title>Node476&#45;&gt;Node479</title>
<path fill="none" stroke="midnightblue" d="M478.843,-57.8648C500.015,-48.6171 532.347,-34.4952 556.241,-24.0585"/>
<polygon fill="midnightblue" stroke="midnightblue" points="557.823,-27.1871 565.586,-19.977 555.021,-20.7723 557.823,-27.1871"/>
</g>
<!-- Node480 -->
<g id="node46" class="node"><title>Node480</title>
<g id="a_node46"><a xlink:href="lauxlib_8c.html#a0f4d3c30c07eae36aa25605df84279a0" target="_top" xlink:title=" ">
<polygon fill="white" stroke="black" points="556,-95.9053 556,-114.905 621,-114.905 621,-95.9053 556,-95.9053"/>
<text text-anchor="middle" x="588.5" y="-102.905" font-family="Helvetica,sans-Serif" font-size="10.00">luaL_where</text>
</a>
</g>
</g>
<!-- Node476&#45;&gt;Node480 -->
<g id="edge60" class="edge"><title>Node476&#45;&gt;Node480</title>
<path fill="none" stroke="midnightblue" d="M485.639,-75.7446C503.354,-80.903 526.392,-87.6115 546.077,-93.3434"/>
<polygon fill="midnightblue" stroke="midnightblue" points="545.145,-96.7174 555.725,-96.1528 547.102,-89.9965 545.145,-96.7174"/>
</g>
<!-- Node477&#45;&gt;Node18 -->
<g id="edge52" class="edge"><title>Node477&#45;&gt;Node18</title>
<path fill="none" stroke="midnightblue" d="M620.554,-58.4017C635.638,-54.4833 654.113,-50.3477 671,-48.4053 709.855,-43.9361 720.139,-43.9883 759,-48.4053 771.906,-49.8723 785.733,-52.5907 798.307,-55.5217"/>
<polygon fill="midnightblue" stroke="midnightblue" points="797.538,-58.9365 808.082,-57.8981 799.192,-52.1346 797.538,-58.9365"/>
</g>
<!-- Node398 -->
<g id="node43" class="node"><title>Node398</title>
<g id="a_node43"><a xlink:href="lvm_8c.html#a2f076040af405dcb50d661edd692eca7" target="_top" xlink:title=" ">
<polygon fill="white" stroke="red" points="679.5,-57.9053 679.5,-76.9053 750.5,-76.9053 750.5,-57.9053 679.5,-57.9053"/>
<text text-anchor="middle" x="715" y="-64.9053" font-family="Helvetica,sans-Serif" font-size="10.00">luaV_concat</text>
</a>
</g>
</g>
<!-- Node477&#45;&gt;Node398 -->
<g id="edge53" class="edge"><title>Node477&#45;&gt;Node398</title>
<path fill="none" stroke="midnightblue" d="M620.595,-67.4053C635.248,-67.4053 653.003,-67.4053 669.081,-67.4053"/>
<polygon fill="midnightblue" stroke="midnightblue" points="669.356,-70.9054 679.356,-67.4053 669.356,-63.9054 669.356,-70.9054"/>
</g>
<!-- Node398&#45;&gt;Node5 -->
<g id="edge54" class="edge"><title>Node398&#45;&gt;Node5</title>
<path fill="none" stroke="midnightblue" d="M746.976,-76.9879C751.481,-79.4725 755.703,-82.5664 759,-86.4053 798.896,-132.865 770.775,-163.162 795,-219.405 804.02,-240.346 818.07,-262.37 828.366,-277.285"/>
<polygon fill="midnightblue" stroke="midnightblue" points="825.591,-279.424 834.214,-285.581 831.313,-275.391 825.591,-279.424"/>
</g>
<!-- Node398&#45;&gt;Node18 -->
<g id="edge55" class="edge"><title>Node398&#45;&gt;Node18</title>
<path fill="none" stroke="midnightblue" d="M750.626,-67.4053C764.656,-67.4053 781.051,-67.4053 796.023,-67.4053"/>
<polygon fill="midnightblue" stroke="midnightblue" points="796.115,-70.9054 806.114,-67.4053 796.114,-63.9054 796.115,-70.9054"/>
</g>
<!-- Node478&#45;&gt;Node445 -->
<g id="edge57" class="edge"><title>Node478&#45;&gt;Node445</title>
<path fill="none" stroke="midnightblue" d="M603.287,-153.052C619.002,-163.635 645.785,-180.438 671,-190.405 756.053,-224.024 861.65,-242.633 922.335,-251.279"/>
<polygon fill="midnightblue" stroke="midnightblue" points="922.016,-254.768 932.404,-252.68 922.982,-247.835 922.016,-254.768"/>
</g>
<!-- Node479&#45;&gt;Node13 -->
<g id="edge59" class="edge"><title>Node479&#45;&gt;Node13</title>
<path fill="none" stroke="midnightblue" d="M631.732,-4.15903C694.199,2.72129 812.204,6.43103 890,-48.4053 938.754,-82.7705 960.069,-155.073 967.792,-189.875"/>
<polygon fill="midnightblue" stroke="midnightblue" points="964.384,-190.678 969.839,-199.76 971.238,-189.258 964.384,-190.678"/>
</g>
<!-- Node481 -->
<g id="node47" class="node"><title>Node481</title>
<g id="a_node47"><a xlink:href="ldebug_8c.html#acaafc35d8e385c4d167229486165df6d" target="_top" xlink:title=" ">
<polygon fill="white" stroke="red" points="683.5,-133.905 683.5,-152.905 746.5,-152.905 746.5,-133.905 683.5,-133.905"/>
<text text-anchor="middle" x="715" y="-140.905" font-family="Helvetica,sans-Serif" font-size="10.00">lua_getinfo</text>
</a>
</g>
</g>
<!-- Node480&#45;&gt;Node481 -->
<g id="edge61" class="edge"><title>Node480&#45;&gt;Node481</title>
<path fill="none" stroke="midnightblue" d="M620.917,-114.994C636.934,-119.883 656.596,-125.884 673.715,-131.11"/>
<polygon fill="midnightblue" stroke="midnightblue" points="672.868,-134.51 683.454,-134.082 674.912,-127.815 672.868,-134.51"/>
</g>
<!-- Node488 -->
<g id="node48" class="node"><title>Node488</title>
<g id="a_node48"><a xlink:href="ldebug_8c.html#ac1fc03c27ee46caa4037df2d70f22110" target="_top" xlink:title=" ">
<polygon fill="white" stroke="black" points="679,-95.9053 679,-114.905 751,-114.905 751,-95.9053 679,-95.9053"/>
<text text-anchor="middle" x="715" y="-102.905" font-family="Helvetica,sans-Serif" font-size="10.00">lua_getstack</text>
</a>
</g>
</g>
<!-- Node480&#45;&gt;Node488 -->
<g id="edge62" class="edge"><title>Node480&#45;&gt;Node488</title>
<path fill="none" stroke="midnightblue" d="M621.239,-105.405C635.659,-105.405 652.981,-105.405 668.732,-105.405"/>
<polygon fill="midnightblue" stroke="midnightblue" points="668.81,-108.905 678.81,-105.405 668.809,-101.905 668.81,-108.905"/>
</g>
<!-- Node489 -->
<g id="node49" class="node"><title>Node489</title>
<g id="a_node49"><a xlink:href="lapi_8c.html#ab190c226d38b289e6ca57683a9d4e0f0" target="_top" xlink:title=" ">
<polygon fill="white" stroke="black" points="801.5,-190.905 801.5,-209.905 883.5,-209.905 883.5,-190.905 801.5,-190.905"/>
<text text-anchor="middle" x="842.5" y="-197.905" font-family="Helvetica,sans-Serif" font-size="10.00">lua_pushfstring</text>
</a>
</g>
</g>
<!-- Node480&#45;&gt;Node489 -->
<g id="edge63" class="edge"><title>Node480&#45;&gt;Node489</title>
<path fill="none" stroke="midnightblue" d="M617.887,-115.105C623.785,-117.702 629.786,-120.808 635,-124.405 654.148,-137.618 650.763,-150.929 671,-162.405 707.976,-183.373 755.574,-192.772 791.077,-196.985"/>
<polygon fill="midnightblue" stroke="midnightblue" points="790.896,-200.486 801.216,-198.087 791.653,-193.527 790.896,-200.486"/>
</g>
<!-- Node489&#45;&gt;Node13 -->
<g id="edge64" class="edge"><title>Node489&#45;&gt;Node13</title>
<path fill="none" stroke="midnightblue" d="M883.649,-203.228C893.761,-203.939 904.8,-204.715 915.533,-205.47"/>
<polygon fill="midnightblue" stroke="midnightblue" points="915.468,-208.974 925.689,-206.184 915.959,-201.991 915.468,-208.974"/>
</g>
<!-- Node491&#45;&gt;Node478 -->
<g id="edge66" class="edge"><title>Node491&#45;&gt;Node478</title>
<path fill="none" stroke="midnightblue" d="M365.138,-142.903C377.481,-139.139 392.304,-135.27 406,-133.405 455.948,-126.607 514.227,-132.185 550.995,-137.342"/>
<polygon fill="midnightblue" stroke="midnightblue" points="550.823,-140.855 561.226,-138.845 551.84,-133.929 550.823,-140.855"/>
</g>
</g>
</svg>
