<?xml version="1.0" encoding="UTF-8" standalone="no"?>
<!DOCTYPE svg PUBLIC "-//W3C//DTD SVG 1.1//EN"
 "http://www.w3.org/Graphics/SVG/1.1/DTD/svg11.dtd">
<!-- Generated by graphviz version 2.38.0 (20140413.2041)
 -->
<!-- Title: luaH_resize Pages: 1 -->
<svg width="1138pt" height="767pt"
 viewBox="0.00 0.00 1138.00 767.00" xmlns="http://www.w3.org/2000/svg" xmlns:xlink="http://www.w3.org/1999/xlink">
<g id="graph0" class="graph" transform="scale(1 1) rotate(0) translate(4 763)">
<title>luaH_resize</title>
<polygon fill="white" stroke="none" points="-4,4 -4,-763 1134,-763 1134,4 -4,4"/>
<!-- Node1 -->
<g id="node1" class="node"><title>Node1</title>
<g id="a_node1"><a xlink:title=" ">
<polygon fill="#bfbfbf" stroke="black" points="0,-511.5 0,-530.5 68,-530.5 68,-511.5 0,-511.5"/>
<text text-anchor="middle" x="34" y="-518.5" font-family="Helvetica,sans-Serif" font-size="10.00">luaH_resize</text>
</a>
</g>
</g>
<!-- Node2 -->
<g id="node2" class="node"><title>Node2</title>
<g id="a_node2"><a xlink:href="ltable_8c.html#ade9702ba8a7c9b80dfb8301126842acb" target="_top" xlink:title=" ">
<polygon fill="white" stroke="black" points="104,-625.5 104,-644.5 200,-644.5 200,-625.5 104,-625.5"/>
<text text-anchor="middle" x="152" y="-632.5" font-family="Helvetica,sans-Serif" font-size="10.00">exchangehashpart</text>
</a>
</g>
</g>
<!-- Node1&#45;&gt;Node2 -->
<g id="edge1" class="edge"><title>Node1&#45;&gt;Node2</title>
<path fill="none" stroke="midnightblue" d="M39.6985,-530.732C49.2825,-549.648 72.8418,-591.648 104,-616 106.275,-617.778 108.74,-619.413 111.307,-620.912"/>
<polygon fill="midnightblue" stroke="midnightblue" points="109.808,-624.076 120.308,-625.493 112.984,-617.838 109.808,-624.076"/>
</g>
<!-- Node3 -->
<g id="node3" class="node"><title>Node3</title>
<g id="a_node3"><a xlink:href="ltable_8c.html#aa2eece9a18d44f30d4a7b7030816bb63" target="_top" xlink:title=" ">
<polygon fill="white" stroke="black" points="125.5,-587.5 125.5,-606.5 178.5,-606.5 178.5,-587.5 125.5,-587.5"/>
<text text-anchor="middle" x="152" y="-594.5" font-family="Helvetica,sans-Serif" font-size="10.00">freehash</text>
</a>
</g>
</g>
<!-- Node1&#45;&gt;Node3 -->
<g id="edge2" class="edge"><title>Node1&#45;&gt;Node3</title>
<path fill="none" stroke="midnightblue" d="M46.7606,-530.866C60.1443,-541.851 82.8897,-559.795 104,-573 109.505,-576.444 115.565,-579.82 121.449,-582.903"/>
<polygon fill="midnightblue" stroke="midnightblue" points="119.947,-586.065 130.449,-587.472 123.117,-579.824 119.947,-586.065"/>
</g>
<!-- Node4 -->
<g id="node4" class="node"><title>Node4</title>
<g id="a_node4"><a xlink:href="ltable_8c.html#a9eefa8191c63f55cffb6b7b58217467c" target="_top" xlink:title=" ">
<polygon fill="white" stroke="black" points="119.5,-511.5 119.5,-530.5 184.5,-530.5 184.5,-511.5 119.5,-511.5"/>
<text text-anchor="middle" x="152" y="-518.5" font-family="Helvetica,sans-Serif" font-size="10.00">luaH_setint</text>
</a>
</g>
</g>
<!-- Node1&#45;&gt;Node4 -->
<g id="edge3" class="edge"><title>Node1&#45;&gt;Node4</title>
<path fill="none" stroke="midnightblue" d="M68.2409,-521C81.0449,-521 95.8306,-521 109.331,-521"/>
<polygon fill="midnightblue" stroke="midnightblue" points="109.35,-524.5 119.35,-521 109.35,-517.5 109.35,-524.5"/>
</g>
<!-- Node441 -->
<g id="node48" class="node"><title>Node441</title>
<g id="a_node48"><a xlink:href="ltable_8c.html#a21e72b3bbf05de9a2fa6d3e566d070ad" target="_top" xlink:title=" ">
<polygon fill="white" stroke="black" points="463,-492.5 463,-511.5 537,-511.5 537,-492.5 463,-492.5"/>
<text text-anchor="middle" x="500" y="-499.5" font-family="Helvetica,sans-Serif" font-size="10.00">setlimittosize</text>
</a>
</g>
</g>
<!-- Node1&#45;&gt;Node441 -->
<g id="edge65" class="edge"><title>Node1&#45;&gt;Node441</title>
<path fill="none" stroke="midnightblue" d="M62.8447,-511.497C75.2785,-507.734 90.2094,-503.864 104,-502 229.012,-485.103 378.318,-492.489 452.457,-497.985"/>
<polygon fill="midnightblue" stroke="midnightblue" points="452.6,-501.506 462.838,-498.779 453.134,-494.526 452.6,-501.506"/>
</g>
<!-- Node442 -->
<g id="node49" class="node"><title>Node442</title>
<g id="a_node49"><a xlink:href="ltable_8c.html#acea46f70eb0bd30579a0c50c0804aabc" target="_top" xlink:title=" ">
<polygon fill="white" stroke="black" points="250,-682.5 250,-701.5 299,-701.5 299,-682.5 250,-682.5"/>
<text text-anchor="middle" x="274.5" y="-689.5" font-family="Helvetica,sans-Serif" font-size="10.00">reinsert</text>
</a>
</g>
</g>
<!-- Node1&#45;&gt;Node442 -->
<g id="edge63" class="edge"><title>Node1&#45;&gt;Node442</title>
<path fill="none" stroke="midnightblue" d="M66.0398,-530.515C110.765,-544.407 189.182,-569.51 200,-578 232.564,-603.555 255.062,-647.764 265.964,-672.962"/>
<polygon fill="midnightblue" stroke="midnightblue" points="262.733,-674.307 269.806,-682.195 269.196,-671.618 262.733,-674.307"/>
</g>
<!-- Node376 -->
<g id="node50" class="node"><title>Node376</title>
<g id="a_node50"><a xlink:href="ltable_8c.html#aee50b49395de01da3f8e14608f400108" target="_top" xlink:title=" ">
<polygon fill="white" stroke="black" points="236,-302.5 236,-321.5 313,-321.5 313,-302.5 236,-302.5"/>
<text text-anchor="middle" x="274.5" y="-309.5" font-family="Helvetica,sans-Serif" font-size="10.00">setnodevector</text>
</a>
</g>
</g>
<!-- Node1&#45;&gt;Node376 -->
<g id="edge66" class="edge"><title>Node1&#45;&gt;Node376</title>
<path fill="none" stroke="midnightblue" d="M41.0099,-511.301C52.0695,-493.926 76.9991,-456.891 104,-431 149.741,-387.14 212.842,-347.267 247.717,-326.681"/>
<polygon fill="midnightblue" stroke="midnightblue" points="249.488,-329.7 256.358,-321.635 245.958,-323.655 249.488,-329.7"/>
</g>
<!-- Node5 -->
<g id="node5" class="node"><title>Node5</title>
<g id="a_node5"><a xlink:href="ltable_8c.html#ae142cefd44452389877c3e3187c7973e" target="_top" xlink:title=" ">
<polygon fill="white" stroke="black" points="588,-568.5 588,-587.5 653,-587.5 653,-568.5 588,-568.5"/>
<text text-anchor="middle" x="620.5" y="-575.5" font-family="Helvetica,sans-Serif" font-size="10.00">luaH_getint</text>
</a>
</g>
</g>
<!-- Node4&#45;&gt;Node5 -->
<g id="edge4" class="edge"><title>Node4&#45;&gt;Node5</title>
<path fill="none" stroke="midnightblue" d="M184.698,-524.873C266.644,-534.886 485.529,-561.631 577.684,-572.891"/>
<polygon fill="midnightblue" stroke="midnightblue" points="577.408,-576.383 587.759,-574.122 578.257,-569.435 577.408,-576.383"/>
</g>
<!-- Node7 -->
<g id="node7" class="node"><title>Node7</title>
<g id="a_node7"><a xlink:href="ltable_8c.html#a6ce3d9b25029784215e203196f0d0686" target="_top" xlink:title=" ">
<polygon fill="white" stroke="black" points="237.5,-587.5 237.5,-606.5 311.5,-606.5 311.5,-587.5 237.5,-587.5"/>
<text text-anchor="middle" x="274.5" y="-594.5" font-family="Helvetica,sans-Serif" font-size="10.00">luaH_newkey</text>
</a>
</g>
</g>
<!-- Node4&#45;&gt;Node7 -->
<g id="edge6" class="edge"><title>Node4&#45;&gt;Node7</title>
<path fill="none" stroke="midnightblue" d="M173.473,-530.655C181.845,-534.808 191.533,-539.879 200,-545 218.497,-556.187 238.46,-570.463 252.906,-581.225"/>
<polygon fill="midnightblue" stroke="midnightblue" points="251.031,-584.195 261.125,-587.413 255.241,-578.602 251.031,-584.195"/>
</g>
<!-- Node6 -->
<g id="node6" class="node"><title>Node6</title>
<g id="a_node6"><a xlink:href="ltable_8c.html#a8f20a204b7a78780847939086b847781" target="_top" xlink:title=" ">
<polygon fill="white" stroke="black" points="707.5,-568.5 707.5,-587.5 787.5,-587.5 787.5,-568.5 707.5,-568.5"/>
<text text-anchor="middle" x="747.5" y="-575.5" font-family="Helvetica,sans-Serif" font-size="10.00">luaH_realasize</text>
</a>
</g>
</g>
<!-- Node5&#45;&gt;Node6 -->
<g id="edge5" class="edge"><title>Node5&#45;&gt;Node6</title>
<path fill="none" stroke="midnightblue" d="M653.043,-578C666.441,-578 682.378,-578 697.264,-578"/>
<polygon fill="midnightblue" stroke="midnightblue" points="697.356,-581.5 707.356,-578 697.356,-574.5 697.356,-581.5"/>
</g>
<!-- Node8 -->
<g id="node8" class="node"><title>Node8</title>
<g id="a_node8"><a xlink:href="ltable_8c.html#aadac41ebb50daf5143d8deb998418a50" target="_top" xlink:title=" ">
<polygon fill="white" stroke="black" points="355.5,-625.5 355.5,-644.5 417.5,-644.5 417.5,-625.5 355.5,-625.5"/>
<text text-anchor="middle" x="386.5" y="-632.5" font-family="Helvetica,sans-Serif" font-size="10.00">getfreepos</text>
</a>
</g>
</g>
<!-- Node7&#45;&gt;Node8 -->
<g id="edge7" class="edge"><title>Node7&#45;&gt;Node8</title>
<path fill="none" stroke="midnightblue" d="M303.258,-606.589C316.806,-611.269 333.305,-616.969 347.96,-622.032"/>
<polygon fill="midnightblue" stroke="midnightblue" points="347.156,-625.457 357.751,-625.414 349.442,-618.841 347.156,-625.457"/>
</g>
<!-- Node9 -->
<g id="node9" class="node"><title>Node9</title>
<g id="a_node9"><a xlink:href="ldebug_8c.html#a88d38ca5da2e7a1492fc9d5ad70c32c5" target="_top" xlink:title=" ">
<polygon fill="white" stroke="black" points="349,-161.5 349,-180.5 424,-180.5 424,-161.5 349,-161.5"/>
<text text-anchor="middle" x="386.5" y="-168.5" font-family="Helvetica,sans-Serif" font-size="10.00">luaG_runerror</text>
</a>
</g>
</g>
<!-- Node7&#45;&gt;Node9 -->
<g id="edge8" class="edge"><title>Node7&#45;&gt;Node9</title>
<path fill="none" stroke="midnightblue" d="M278.004,-587.302C292.027,-532.996 360.875,-266.365 380.356,-190.922"/>
<polygon fill="midnightblue" stroke="midnightblue" points="383.84,-191.427 382.952,-180.869 377.063,-189.677 383.84,-191.427"/>
</g>
<!-- Node434 -->
<g id="node29" class="node"><title>Node434</title>
<g id="a_node29"><a xlink:href="ltable_8c.html#a2ea4f5ea50911a03375ba4d22ef72419" target="_top" xlink:title=" ">
<polygon fill="white" stroke="black" points="359,-739.5 359,-758.5 414,-758.5 414,-739.5 359,-739.5"/>
<text text-anchor="middle" x="386.5" y="-746.5" font-family="Helvetica,sans-Serif" font-size="10.00">luaH_set</text>
</a>
</g>
</g>
<!-- Node7&#45;&gt;Node434 -->
<g id="edge35" class="edge"><title>Node7&#45;&gt;Node434</title>
<path fill="none" stroke="midnightblue" d="M280.356,-606.766C293.628,-633.223 330.733,-705.595 349,-725 351.924,-728.106 355.325,-731.006 358.853,-733.64"/>
<polygon fill="midnightblue" stroke="midnightblue" points="356.91,-736.552 367.148,-739.277 360.844,-730.762 356.91,-736.552"/>
</g>
<!-- Node146 -->
<g id="node34" class="node"><title>Node146</title>
<g id="a_node34"><a xlink:href="ltable_8c.html#a3f0add4aa38ab8e59a5983ebab80ab42" target="_top" xlink:title=" ">
<polygon fill="white" stroke="black" points="706,-606.5 706,-625.5 789,-625.5 789,-606.5 706,-606.5"/>
<text text-anchor="middle" x="747.5" y="-613.5" font-family="Helvetica,sans-Serif" font-size="10.00">mainpositionTV</text>
</a>
</g>
</g>
<!-- Node7&#45;&gt;Node146 -->
<g id="edge51" class="edge"><title>Node7&#45;&gt;Node146</title>
<path fill="none" stroke="midnightblue" d="M311.677,-598.459C394.916,-601.817 600.19,-610.098 695.879,-613.958"/>
<polygon fill="midnightblue" stroke="midnightblue" points="695.758,-617.456 705.891,-614.362 696.04,-610.462 695.758,-617.456"/>
</g>
<!-- Node147 -->
<g id="node35" class="node"><title>Node147</title>
<g id="a_node35"><a xlink:href="ltable_8c.html#a97b549a3507ec326a9d138a741f39bbc" target="_top" xlink:title=" ">
<polygon fill="white" stroke="black" points="831.5,-568.5 831.5,-587.5 902.5,-587.5 902.5,-568.5 831.5,-568.5"/>
<text text-anchor="middle" x="867" y="-575.5" font-family="Helvetica,sans-Serif" font-size="10.00">mainposition</text>
</a>
</g>
</g>
<!-- Node7&#45;&gt;Node147 -->
<g id="edge50" class="edge"><title>Node7&#45;&gt;Node147</title>
<path fill="none" stroke="midnightblue" d="M311.785,-589.323C396.514,-572.489 613.864,-535.632 794,-559 804.881,-560.412 816.462,-562.976 827.082,-565.773"/>
<polygon fill="midnightblue" stroke="midnightblue" points="826.344,-569.2 836.915,-568.496 828.212,-562.454 826.344,-569.2"/>
</g>
<!-- Node116 -->
<g id="node40" class="node"><title>Node116</title>
<g id="a_node40"><a xlink:href="lvm_8c.html#a3a9a9378ccdbd0ea4cba6555673dccf9" target="_top" xlink:title=" ">
<polygon fill="white" stroke="black" points="577.5,-663.5 577.5,-682.5 663.5,-682.5 663.5,-663.5 577.5,-663.5"/>
<text text-anchor="middle" x="620.5" y="-670.5" font-family="Helvetica,sans-Serif" font-size="10.00">luaV_flttointeger</text>
</a>
</g>
</g>
<!-- Node7&#45;&gt;Node116 -->
<g id="edge49" class="edge"><title>Node7&#45;&gt;Node116</title>
<path fill="none" stroke="midnightblue" d="M284.334,-606.794C297.103,-620.193 322.149,-643.743 349,-654 420.831,-681.438 511.116,-681.598 567.066,-678.119"/>
<polygon fill="midnightblue" stroke="midnightblue" points="567.364,-681.607 577.101,-677.433 566.886,-674.623 567.364,-681.607"/>
</g>
<!-- Node435 -->
<g id="node41" class="node"><title>Node435</title>
<g id="a_node41"><a xlink:href="ltable_8c.html#ad775daa2a19a375c7385ed30834a3eeb" target="_top" xlink:title=" ">
<polygon fill="white" stroke="black" points="363.5,-435.5 363.5,-454.5 409.5,-454.5 409.5,-435.5 363.5,-435.5"/>
<text text-anchor="middle" x="386.5" y="-442.5" font-family="Helvetica,sans-Serif" font-size="10.00">rehash</text>
</a>
</g>
</g>
<!-- Node7&#45;&gt;Node435 -->
<g id="edge52" class="edge"><title>Node7&#45;&gt;Node435</title>
<path fill="none" stroke="midnightblue" d="M282.381,-587.492C300.438,-562.54 349.392,-494.894 372.757,-462.608"/>
<polygon fill="midnightblue" stroke="midnightblue" points="375.594,-464.658 378.622,-454.505 369.923,-460.554 375.594,-464.658"/>
</g>
<!-- Node10 -->
<g id="node10" class="node"><title>Node10</title>
<g id="a_node10"><a xlink:href="ldebug_8c.html#ad6bc24d619df8e849e2ae8b00455d86f" target="_top" xlink:title=" ">
<polygon fill="white" stroke="black" points="462.5,-38.5 462.5,-57.5 537.5,-57.5 537.5,-38.5 462.5,-38.5"/>
<text text-anchor="middle" x="500" y="-45.5" font-family="Helvetica,sans-Serif" font-size="10.00">getcurrentline</text>
</a>
</g>
</g>
<!-- Node9&#45;&gt;Node10 -->
<g id="edge9" class="edge"><title>Node9&#45;&gt;Node10</title>
<path fill="none" stroke="midnightblue" d="M396.249,-161.348C415.057,-140.601 459.556,-91.5117 483.352,-65.262"/>
<polygon fill="midnightblue" stroke="midnightblue" points="486.168,-67.3664 490.291,-57.6068 480.982,-62.665 486.168,-67.3664"/>
</g>
<!-- Node14 -->
<g id="node14" class="node"><title>Node14</title>
<g id="a_node14"><a xlink:href="ldebug_8c.html#a7e1dc7518150bf19bd9aa5dda166a2eb" target="_top" xlink:title=" ">
<polygon fill="white" stroke="black" points="463.5,-114.5 463.5,-133.5 536.5,-133.5 536.5,-114.5 463.5,-114.5"/>
<text text-anchor="middle" x="500" y="-121.5" font-family="Helvetica,sans-Serif" font-size="10.00">luaG_addinfo</text>
</a>
</g>
</g>
<!-- Node9&#45;&gt;Node14 -->
<g id="edge13" class="edge"><title>Node9&#45;&gt;Node14</title>
<path fill="none" stroke="midnightblue" d="M410.064,-161.489C426.354,-154.622 448.587,-145.25 466.748,-137.595"/>
<polygon fill="midnightblue" stroke="midnightblue" points="468.232,-140.768 476.087,-133.658 465.513,-134.317 468.232,-140.768"/>
</g>
<!-- Node17 -->
<g id="node17" class="node"><title>Node17</title>
<g id="a_node17"><a xlink:href="lobject_8c.html#aa83fa444a36d79521e846a766fa083d5" target="_top" xlink:title=" ">
<polygon fill="white" stroke="black" points="701,-161.5 701,-180.5 794,-180.5 794,-161.5 701,-161.5"/>
<text text-anchor="middle" x="747.5" y="-168.5" font-family="Helvetica,sans-Serif" font-size="10.00">luaO_pushvfstring</text>
</a>
</g>
</g>
<!-- Node9&#45;&gt;Node17 -->
<g id="edge34" class="edge"><title>Node9&#45;&gt;Node17</title>
<path fill="none" stroke="midnightblue" d="M424.232,-166.709C487.297,-163.707 616.529,-163.454 690.754,-165.949"/>
<polygon fill="midnightblue" stroke="midnightblue" points="690.728,-169.45 700.85,-166.32 690.985,-162.455 690.728,-169.45"/>
</g>
<!-- Node433 -->
<g id="node23" class="node"><title>Node433</title>
<g id="a_node23"><a xlink:href="ldebug_8c.html#af7366920f8408bb33ed01b1d6c0e1238" target="_top" xlink:title=" ">
<polygon fill="white" stroke="black" points="460,-208.5 460,-227.5 540,-227.5 540,-208.5 460,-208.5"/>
<text text-anchor="middle" x="500" y="-215.5" font-family="Helvetica,sans-Serif" font-size="10.00">luaG_errormsg</text>
</a>
</g>
</g>
<!-- Node9&#45;&gt;Node433 -->
<g id="edge27" class="edge"><title>Node9&#45;&gt;Node433</title>
<path fill="none" stroke="midnightblue" d="M410.064,-180.511C426.354,-187.378 448.587,-196.75 466.748,-204.405"/>
<polygon fill="midnightblue" stroke="midnightblue" points="465.513,-207.683 476.087,-208.342 468.232,-201.232 465.513,-207.683"/>
</g>
<!-- Node11 -->
<g id="node11" class="node"><title>Node11</title>
<g id="a_node11"><a xlink:href="ldebug_8c.html#a7db2a3f5cbcf0ac3ef6d4cfa15ab4dbc" target="_top" xlink:title=" ">
<polygon fill="white" stroke="black" points="592,-38.5 592,-57.5 649,-57.5 649,-38.5 592,-38.5"/>
<text text-anchor="middle" x="620.5" y="-45.5" font-family="Helvetica,sans-Serif" font-size="10.00">currentpc</text>
</a>
</g>
</g>
<!-- Node10&#45;&gt;Node11 -->
<g id="edge10" class="edge"><title>Node10&#45;&gt;Node11</title>
<path fill="none" stroke="midnightblue" d="M537.521,-48C551.502,-48 567.473,-48 581.582,-48"/>
<polygon fill="midnightblue" stroke="midnightblue" points="581.945,-51.5001 591.945,-48 581.945,-44.5001 581.945,-51.5001"/>
</g>
<!-- Node12 -->
<g id="node12" class="node"><title>Node12</title>
<g id="a_node12"><a xlink:href="ldebug_8c.html#ae7a6d2f88b11cc05758e44acd433ee2f" target="_top" xlink:title=" ">
<polygon fill="white" stroke="black" points="576,-0.5 576,-19.5 665,-19.5 665,-0.5 576,-0.5"/>
<text text-anchor="middle" x="620.5" y="-7.5" font-family="Helvetica,sans-Serif" font-size="10.00">luaG_getfuncline</text>
</a>
</g>
</g>
<!-- Node10&#45;&gt;Node12 -->
<g id="edge11" class="edge"><title>Node10&#45;&gt;Node12</title>
<path fill="none" stroke="midnightblue" d="M530.903,-38.411C545.779,-33.6406 563.957,-27.8112 579.967,-22.6771"/>
<polygon fill="midnightblue" stroke="midnightblue" points="581.153,-25.9724 589.607,-19.5859 579.016,-19.3068 581.153,-25.9724"/>
</g>
<!-- Node13 -->
<g id="node13" class="node"><title>Node13</title>
<g id="a_node13"><a xlink:href="ldebug_8c.html#a355ee1f29ee39ff665aa01ef4493f453" target="_top" xlink:title=" ">
<polygon fill="white" stroke="black" points="714.5,-0.5 714.5,-19.5 780.5,-19.5 780.5,-0.5 714.5,-0.5"/>
<text text-anchor="middle" x="747.5" y="-7.5" font-family="Helvetica,sans-Serif" font-size="10.00">getbaseline</text>
</a>
</g>
</g>
<!-- Node12&#45;&gt;Node13 -->
<g id="edge12" class="edge"><title>Node12&#45;&gt;Node13</title>
<path fill="none" stroke="midnightblue" d="M665.219,-10C677.869,-10 691.652,-10 704.213,-10"/>
<polygon fill="midnightblue" stroke="midnightblue" points="704.426,-13.5001 714.426,-10 704.426,-6.5001 704.426,-13.5001"/>
</g>
<!-- Node15 -->
<g id="node15" class="node"><title>Node15</title>
<g id="a_node15"><a xlink:href="lobject_8c.html#ac331b4119bbeb45a8a7e5a1afe553b2e" target="_top" xlink:title=" ">
<polygon fill="white" stroke="black" points="582.5,-114.5 582.5,-133.5 658.5,-133.5 658.5,-114.5 582.5,-114.5"/>
<text text-anchor="middle" x="620.5" y="-121.5" font-family="Helvetica,sans-Serif" font-size="10.00">luaO_chunkid</text>
</a>
</g>
</g>
<!-- Node14&#45;&gt;Node15 -->
<g id="edge14" class="edge"><title>Node14&#45;&gt;Node15</title>
<path fill="none" stroke="midnightblue" d="M536.554,-124C547.732,-124 560.258,-124 572.121,-124"/>
<polygon fill="midnightblue" stroke="midnightblue" points="572.326,-127.5 582.326,-124 572.326,-120.5 572.326,-127.5"/>
</g>
<!-- Node16 -->
<g id="node16" class="node"><title>Node16</title>
<g id="a_node16"><a xlink:href="lobject_8c.html#a8e224db7123c74d695076a96d1bfda61" target="_top" xlink:title=" ">
<polygon fill="white" stroke="black" points="576,-76.5 576,-95.5 665,-95.5 665,-76.5 576,-76.5"/>
<text text-anchor="middle" x="620.5" y="-83.5" font-family="Helvetica,sans-Serif" font-size="10.00">luaO_pushfstring</text>
</a>
</g>
</g>
<!-- Node14&#45;&gt;Node16 -->
<g id="edge15" class="edge"><title>Node14&#45;&gt;Node16</title>
<path fill="none" stroke="midnightblue" d="M530.903,-114.411C545.779,-109.641 563.957,-103.811 579.967,-98.6771"/>
<polygon fill="midnightblue" stroke="midnightblue" points="581.153,-101.972 589.607,-95.5859 579.016,-95.3068 581.153,-101.972"/>
</g>
<!-- Node16&#45;&gt;Node17 -->
<g id="edge16" class="edge"><title>Node16&#45;&gt;Node17</title>
<path fill="none" stroke="midnightblue" d="M646.467,-95.5353C652.688,-98.2785 659.226,-101.489 665,-105 688.582,-119.337 712.811,-139.834 728.653,-154.171"/>
<polygon fill="midnightblue" stroke="midnightblue" points="726.395,-156.849 736.125,-161.041 731.132,-151.696 726.395,-156.849"/>
</g>
<!-- Node17&#45;&gt;Node9 -->
<g id="edge25" class="edge"><title>Node17&#45;&gt;Node9</title>
<path fill="none" stroke="midnightblue" d="M700.85,-175.68C632.349,-178.423 503.637,-178.44 434.407,-175.73"/>
<polygon fill="midnightblue" stroke="midnightblue" points="434.374,-172.226 424.232,-175.291 434.072,-179.219 434.374,-172.226"/>
</g>
<!-- Node18 -->
<g id="node18" class="node"><title>Node18</title>
<g id="a_node18"><a xlink:href="lobject_8c.html#a1d02fb9304e4700ce1fd20e34ae68784" target="_top" xlink:title=" ">
<polygon fill="white" stroke="red" points="831.5,-199.5 831.5,-218.5 902.5,-218.5 902.5,-199.5 831.5,-199.5"/>
<text text-anchor="middle" x="867" y="-206.5" font-family="Helvetica,sans-Serif" font-size="10.00">addnum2buff</text>
</a>
</g>
</g>
<!-- Node17&#45;&gt;Node18 -->
<g id="edge17" class="edge"><title>Node17&#45;&gt;Node18</title>
<path fill="none" stroke="midnightblue" d="M778.15,-180.589C792.901,-185.359 810.926,-191.189 826.801,-196.323"/>
<polygon fill="midnightblue" stroke="midnightblue" points="825.767,-199.667 836.359,-199.414 827.921,-193.007 825.767,-199.667"/>
</g>
<!-- Node19 -->
<g id="node19" class="node"><title>Node19</title>
<g id="a_node19"><a xlink:href="lobject_8c.html#ac4ab924f2ea45ef73319f1159033eab1" target="_top" xlink:title=" ">
<polygon fill="white" stroke="black" points="963.5,-199.5 963.5,-218.5 1008.5,-218.5 1008.5,-199.5 963.5,-199.5"/>
<text text-anchor="middle" x="986" y="-206.5" font-family="Helvetica,sans-Serif" font-size="10.00">getbuff</text>
</a>
</g>
</g>
<!-- Node17&#45;&gt;Node19 -->
<g id="edge24" class="edge"><title>Node17&#45;&gt;Node19</title>
<path fill="none" stroke="midnightblue" d="M770.528,-180.545C778.23,-184.289 786.758,-188.912 794,-194 812.008,-206.651 809.549,-219.869 830,-228 870.578,-244.133 921.453,-232.444 953.605,-221.556"/>
<polygon fill="midnightblue" stroke="midnightblue" points="955.103,-224.738 963.349,-218.085 952.754,-218.144 955.103,-224.738"/>
</g>
<!-- Node20 -->
<g id="node20" class="node"><title>Node20</title>
<g id="a_node20"><a xlink:href="lobject_8c.html#a6ec2716e64cd75e3e6614a87ee92e4d2" target="_top" xlink:title=" ">
<polygon fill="white" stroke="red" points="1072.5,-161.5 1072.5,-180.5 1125.5,-180.5 1125.5,-161.5 1072.5,-161.5"/>
<text text-anchor="middle" x="1099" y="-168.5" font-family="Helvetica,sans-Serif" font-size="10.00">clearbuff</text>
</a>
</g>
</g>
<!-- Node17&#45;&gt;Node20 -->
<g id="edge23" class="edge"><title>Node17&#45;&gt;Node20</title>
<path fill="none" stroke="midnightblue" d="M781.506,-161.493C796.214,-157.729 813.834,-153.859 830,-152 913.02,-142.451 1011.1,-155.573 1062.5,-164.311"/>
<polygon fill="midnightblue" stroke="midnightblue" points="1061.98,-167.774 1072.43,-166.046 1063.18,-160.878 1061.98,-167.774"/>
</g>
<!-- Node432 -->
<g id="node21" class="node"><title>Node432</title>
<g id="a_node21"><a xlink:href="lobject_8c.html#a874ab64f433ee35f2197a81e10452cb1" target="_top" xlink:title=" ">
<polygon fill="white" stroke="red" points="835,-161.5 835,-180.5 899,-180.5 899,-161.5 835,-161.5"/>
<text text-anchor="middle" x="867" y="-168.5" font-family="Helvetica,sans-Serif" font-size="10.00">addstr2buff</text>
</a>
</g>
</g>
<!-- Node17&#45;&gt;Node432 -->
<g id="edge20" class="edge"><title>Node17&#45;&gt;Node432</title>
<path fill="none" stroke="midnightblue" d="M794.265,-171C804.203,-171 814.662,-171 824.427,-171"/>
<polygon fill="midnightblue" stroke="midnightblue" points="824.693,-174.5 834.693,-171 824.693,-167.5 824.693,-174.5"/>
</g>
<!-- Node243 -->
<g id="node22" class="node"><title>Node243</title>
<g id="a_node22"><a xlink:href="lobject_8c.html#af3136de4693789b08f78aafda9604676" target="_top" xlink:title=" ">
<polygon fill="white" stroke="black" points="830,-85.5 830,-104.5 904,-104.5 904,-85.5 830,-85.5"/>
<text text-anchor="middle" x="867" y="-92.5" font-family="Helvetica,sans-Serif" font-size="10.00">luaO_utf8esc</text>
</a>
</g>
</g>
<!-- Node17&#45;&gt;Node243 -->
<g id="edge26" class="edge"><title>Node17&#45;&gt;Node243</title>
<path fill="none" stroke="midnightblue" d="M763.381,-161.375C783.334,-148.469 818.972,-125.418 842.552,-110.167"/>
<polygon fill="midnightblue" stroke="midnightblue" points="844.744,-112.917 851.239,-104.547 840.942,-107.04 844.744,-112.917"/>
</g>
<!-- Node18&#45;&gt;Node19 -->
<g id="edge18" class="edge"><title>Node18&#45;&gt;Node19</title>
<path fill="none" stroke="midnightblue" d="M902.787,-209C918.768,-209 937.592,-209 953.191,-209"/>
<polygon fill="midnightblue" stroke="midnightblue" points="953.402,-212.5 963.402,-209 953.402,-205.5 953.402,-212.5"/>
</g>
<!-- Node19&#45;&gt;Node20 -->
<g id="edge19" class="edge"><title>Node19&#45;&gt;Node20</title>
<path fill="none" stroke="midnightblue" d="M1008.67,-201.583C1024.1,-196.298 1045.19,-189.08 1063,-182.983"/>
<polygon fill="midnightblue" stroke="midnightblue" points="1064.17,-186.281 1072.5,-179.73 1061.9,-179.658 1064.17,-186.281"/>
</g>
<!-- Node432&#45;&gt;Node19 -->
<g id="edge22" class="edge"><title>Node432&#45;&gt;Node19</title>
<path fill="none" stroke="midnightblue" d="M897.524,-180.589C914.614,-186.14 936.118,-193.124 953.528,-198.778"/>
<polygon fill="midnightblue" stroke="midnightblue" points="952.65,-202.173 963.242,-201.933 954.812,-195.515 952.65,-202.173"/>
</g>
<!-- Node432&#45;&gt;Node20 -->
<g id="edge21" class="edge"><title>Node432&#45;&gt;Node20</title>
<path fill="none" stroke="midnightblue" d="M899.019,-171C941.474,-171 1017.51,-171 1062.29,-171"/>
<polygon fill="midnightblue" stroke="midnightblue" points="1062.42,-174.5 1072.42,-171 1062.42,-167.5 1062.42,-174.5"/>
</g>
<!-- Node67 -->
<g id="node24" class="node"><title>Node67</title>
<g id="a_node24"><a xlink:href="ldo_8c.html#a61c0a0185ef5ae1493dad10027f4db7e" target="_top" xlink:title=" ">
<polygon fill="white" stroke="black" points="577,-208.5 577,-227.5 664,-227.5 664,-208.5 577,-208.5"/>
<text text-anchor="middle" x="620.5" y="-215.5" font-family="Helvetica,sans-Serif" font-size="10.00">luaD_callnoyield</text>
</a>
</g>
</g>
<!-- Node433&#45;&gt;Node67 -->
<g id="edge28" class="edge"><title>Node433&#45;&gt;Node67</title>
<path fill="none" stroke="midnightblue" d="M540.13,-218C548.561,-218 557.609,-218 566.469,-218"/>
<polygon fill="midnightblue" stroke="midnightblue" points="566.736,-221.5 576.736,-218 566.736,-214.5 566.736,-221.5"/>
</g>
<!-- Node106 -->
<g id="node26" class="node"><title>Node106</title>
<g id="a_node26"><a xlink:href="ldo_8c.html#a2b46d9db5b9ca3d5402a0c2ac640a6b0" target="_top" xlink:title=" ">
<polygon fill="white" stroke="black" points="588,-246.5 588,-265.5 653,-265.5 653,-246.5 588,-246.5"/>
<text text-anchor="middle" x="620.5" y="-253.5" font-family="Helvetica,sans-Serif" font-size="10.00">luaD_throw</text>
</a>
</g>
</g>
<!-- Node433&#45;&gt;Node106 -->
<g id="edge30" class="edge"><title>Node433&#45;&gt;Node106</title>
<path fill="none" stroke="midnightblue" d="M530.903,-227.589C545.779,-232.359 563.957,-238.189 579.967,-243.323"/>
<polygon fill="midnightblue" stroke="midnightblue" points="579.016,-246.693 589.607,-246.414 581.153,-240.028 579.016,-246.693"/>
</g>
<!-- Node68 -->
<g id="node25" class="node"><title>Node68</title>
<g id="a_node25"><a xlink:href="ldo_8c.html#aa7d32ccef16c2d4fe63604c4c457831d" target="_top" xlink:title=" ">
<polygon fill="white" stroke="red" points="729,-203.5 729,-222.5 766,-222.5 766,-203.5 729,-203.5"/>
<text text-anchor="middle" x="747.5" y="-210.5" font-family="Helvetica,sans-Serif" font-size="10.00">ccall</text>
</a>
</g>
</g>
<!-- Node67&#45;&gt;Node68 -->
<g id="edge29" class="edge"><title>Node67&#45;&gt;Node68</title>
<path fill="none" stroke="midnightblue" d="M664.168,-216.293C682.097,-215.576 702.455,-214.762 718.442,-214.122"/>
<polygon fill="midnightblue" stroke="midnightblue" points="718.875,-217.608 728.727,-213.711 718.596,-210.613 718.875,-217.608"/>
</g>
<!-- Node106&#45;&gt;Node106 -->
<g id="edge32" class="edge"><title>Node106&#45;&gt;Node106</title>
<path fill="none" stroke="midnightblue" d="M602.005,-265.757C593.007,-274.565 599.172,-284 620.5,-284 634.163,-284 641.604,-280.128 642.821,-275.029"/>
<polygon fill="midnightblue" stroke="midnightblue" points="646.045,-273.666 638.995,-265.757 639.574,-276.336 646.045,-273.666"/>
</g>
<!-- Node78 -->
<g id="node27" class="node"><title>Node78</title>
<g id="a_node27"><a xlink:href="ldo_8c.html#a2a5656cf723dffe2e9b5314260bd8896" target="_top" xlink:title=" ">
<polygon fill="white" stroke="black" points="704,-279.5 704,-298.5 791,-298.5 791,-279.5 704,-279.5"/>
<text text-anchor="middle" x="747.5" y="-286.5" font-family="Helvetica,sans-Serif" font-size="10.00">luaD_seterrorobj</text>
</a>
</g>
</g>
<!-- Node106&#45;&gt;Node78 -->
<g id="edge31" class="edge"><title>Node106&#45;&gt;Node78</title>
<path fill="none" stroke="midnightblue" d="M653.043,-264.327C667.282,-268.086 684.389,-272.603 700.052,-276.738"/>
<polygon fill="midnightblue" stroke="midnightblue" points="699.531,-280.22 710.093,-279.389 701.318,-273.452 699.531,-280.22"/>
</g>
<!-- Node73 -->
<g id="node28" class="node"><title>Node73</title>
<g id="a_node28"><a xlink:href="lfunc_8c.html#ae9fcbf80b5969afd9412b9aed102f94e" target="_top" xlink:title=" ">
<polygon fill="white" stroke="red" points="715.5,-241.5 715.5,-260.5 779.5,-260.5 779.5,-241.5 715.5,-241.5"/>
<text text-anchor="middle" x="747.5" y="-248.5" font-family="Helvetica,sans-Serif" font-size="10.00">luaF_close</text>
</a>
</g>
</g>
<!-- Node106&#45;&gt;Node73 -->
<g id="edge33" class="edge"><title>Node106&#45;&gt;Node73</title>
<path fill="none" stroke="midnightblue" d="M653.043,-254.738C668.855,-254.106 688.203,-253.332 705.185,-252.653"/>
<polygon fill="midnightblue" stroke="midnightblue" points="705.548,-256.141 715.4,-252.244 705.268,-249.147 705.548,-256.141"/>
</g>
<!-- Node141 -->
<g id="node30" class="node"><title>Node141</title>
<g id="a_node30"><a xlink:href="ltable_8c.html#a72e6b8ad422b01d0b34197134cec1f7a" target="_top" xlink:title=" ">
<polygon fill="white" stroke="black" points="461.5,-701.5 461.5,-720.5 538.5,-720.5 538.5,-701.5 461.5,-701.5"/>
<text text-anchor="middle" x="500" y="-708.5" font-family="Helvetica,sans-Serif" font-size="10.00">luaH_finishset</text>
</a>
</g>
</g>
<!-- Node434&#45;&gt;Node141 -->
<g id="edge36" class="edge"><title>Node434&#45;&gt;Node141</title>
<path fill="none" stroke="midnightblue" d="M414.207,-739.898C428.265,-735.107 445.741,-729.151 461.169,-723.893"/>
<polygon fill="midnightblue" stroke="midnightblue" points="462.619,-727.097 470.955,-720.558 460.36,-720.471 462.619,-727.097"/>
</g>
<!-- Node142 -->
<g id="node31" class="node"><title>Node142</title>
<g id="a_node31"><a xlink:href="ltable_8c.html#a8b4fce00d7db27ee9caac3d49863dea3" target="_top" xlink:title=" ">
<polygon fill="white" stroke="black" points="472.5,-739.5 472.5,-758.5 527.5,-758.5 527.5,-739.5 472.5,-739.5"/>
<text text-anchor="middle" x="500" y="-746.5" font-family="Helvetica,sans-Serif" font-size="10.00">luaH_get</text>
</a>
</g>
</g>
<!-- Node434&#45;&gt;Node142 -->
<g id="edge38" class="edge"><title>Node434&#45;&gt;Node142</title>
<path fill="none" stroke="midnightblue" d="M414.207,-749C428.445,-749 446.19,-749 461.761,-749"/>
<polygon fill="midnightblue" stroke="midnightblue" points="462.124,-752.5 472.124,-749 462.124,-745.5 462.124,-752.5"/>
</g>
<!-- Node141&#45;&gt;Node7 -->
<g id="edge37" class="edge"><title>Node141&#45;&gt;Node7</title>
<path fill="none" stroke="midnightblue" d="M461.416,-712.226C429.499,-711.647 383.513,-706.867 349,-687 319.568,-670.058 297.062,-636.48 285.099,-615.472"/>
<polygon fill="midnightblue" stroke="midnightblue" points="288.091,-613.648 280.224,-606.552 281.949,-617.005 288.091,-613.648"/>
</g>
<!-- Node142&#45;&gt;Node5 -->
<g id="edge46" class="edge"><title>Node142&#45;&gt;Node5</title>
<path fill="none" stroke="midnightblue" d="M526.975,-739.421C531.697,-736.867 536.293,-733.748 540,-730 566.283,-703.427 558.704,-687.133 576,-654 586.388,-634.1 599.264,-611.873 608.303,-596.623"/>
<polygon fill="midnightblue" stroke="midnightblue" points="611.506,-598.085 613.623,-587.704 605.494,-594.499 611.506,-598.085"/>
</g>
<!-- Node143 -->
<g id="node32" class="node"><title>Node143</title>
<g id="a_node32"><a xlink:href="ltable_8c.html#a9170d329b0dd746ca9b15db8c22a2127" target="_top" xlink:title=" ">
<polygon fill="white" stroke="black" points="589.5,-739.5 589.5,-758.5 651.5,-758.5 651.5,-739.5 589.5,-739.5"/>
<text text-anchor="middle" x="620.5" y="-746.5" font-family="Helvetica,sans-Serif" font-size="10.00">getgeneric</text>
</a>
</g>
</g>
<!-- Node142&#45;&gt;Node143 -->
<g id="edge39" class="edge"><title>Node142&#45;&gt;Node143</title>
<path fill="none" stroke="midnightblue" d="M527.594,-749C542.738,-749 562.022,-749 579.012,-749"/>
<polygon fill="midnightblue" stroke="midnightblue" points="579.236,-752.5 589.236,-749 579.236,-745.5 579.236,-752.5"/>
</g>
<!-- Node83 -->
<g id="node39" class="node"><title>Node83</title>
<g id="a_node39"><a xlink:href="ltable_8c.html#ae8a52507e1c8966d9cf3f2dd5a0c325f" target="_top" xlink:title=" ">
<polygon fill="white" stroke="black" points="576.5,-701.5 576.5,-720.5 664.5,-720.5 664.5,-701.5 576.5,-701.5"/>
<text text-anchor="middle" x="620.5" y="-708.5" font-family="Helvetica,sans-Serif" font-size="10.00">luaH_getshortstr</text>
</a>
</g>
</g>
<!-- Node142&#45;&gt;Node83 -->
<g id="edge47" class="edge"><title>Node142&#45;&gt;Node83</title>
<path fill="none" stroke="midnightblue" d="M527.594,-740.472C542.995,-735.533 562.678,-729.221 579.874,-723.707"/>
<polygon fill="midnightblue" stroke="midnightblue" points="581.207,-726.955 589.661,-720.569 579.07,-720.29 581.207,-726.955"/>
</g>
<!-- Node142&#45;&gt;Node116 -->
<g id="edge48" class="edge"><title>Node142&#45;&gt;Node116</title>
<path fill="none" stroke="midnightblue" d="M524.066,-739.46C529.511,-736.756 535.142,-733.564 540,-730 558.759,-716.24 556.96,-705.368 576,-692 578.403,-690.313 580.979,-688.728 583.635,-687.248"/>
<polygon fill="midnightblue" stroke="midnightblue" points="585.461,-690.248 592.828,-682.633 582.321,-683.992 585.461,-690.248"/>
</g>
<!-- Node144 -->
<g id="node33" class="node"><title>Node144</title>
<g id="a_node33"><a xlink:href="ltable_8c.html#af84f7eafe0a1b410624263c29224fec9" target="_top" xlink:title=" ">
<polygon fill="white" stroke="red" points="719.5,-739.5 719.5,-758.5 775.5,-758.5 775.5,-739.5 719.5,-739.5"/>
<text text-anchor="middle" x="747.5" y="-746.5" font-family="Helvetica,sans-Serif" font-size="10.00">equalkey</text>
</a>
</g>
</g>
<!-- Node143&#45;&gt;Node144 -->
<g id="edge40" class="edge"><title>Node143&#45;&gt;Node144</title>
<path fill="none" stroke="midnightblue" d="M651.759,-749C669.114,-749 691.037,-749 709.421,-749"/>
<polygon fill="midnightblue" stroke="midnightblue" points="709.497,-752.5 719.497,-749 709.497,-745.5 709.497,-752.5"/>
</g>
<!-- Node143&#45;&gt;Node146 -->
<g id="edge41" class="edge"><title>Node143&#45;&gt;Node146</title>
<path fill="none" stroke="midnightblue" d="M649.468,-739.453C654.932,-736.873 660.39,-733.735 665,-730 698.228,-703.077 724.25,-659.378 737.296,-634.635"/>
<polygon fill="midnightblue" stroke="midnightblue" points="740.489,-636.077 741.934,-625.581 734.259,-632.886 740.489,-636.077"/>
</g>
<!-- Node146&#45;&gt;Node147 -->
<g id="edge42" class="edge"><title>Node146&#45;&gt;Node147</title>
<path fill="none" stroke="midnightblue" d="M778.15,-606.411C792.901,-601.641 810.926,-595.811 826.801,-590.677"/>
<polygon fill="midnightblue" stroke="midnightblue" points="827.921,-593.993 836.359,-587.586 825.767,-587.333 827.921,-593.993"/>
</g>
<!-- Node148 -->
<g id="node36" class="node"><title>Node148</title>
<g id="a_node36"><a xlink:href="ltable_8c.html#ac726a5642652c5e7d5417c03047fc3d5" target="_top" xlink:title=" ">
<polygon fill="white" stroke="black" points="954.5,-549.5 954.5,-568.5 1017.5,-568.5 1017.5,-549.5 954.5,-549.5"/>
<text text-anchor="middle" x="986" y="-556.5" font-family="Helvetica,sans-Serif" font-size="10.00">l_hashfloat</text>
</a>
</g>
</g>
<!-- Node147&#45;&gt;Node148 -->
<g id="edge43" class="edge"><title>Node147&#45;&gt;Node148</title>
<path fill="none" stroke="midnightblue" d="M902.787,-572.351C915.777,-570.241 930.645,-567.827 944.133,-565.637"/>
<polygon fill="midnightblue" stroke="midnightblue" points="944.815,-569.072 954.125,-564.014 943.693,-562.162 944.815,-569.072"/>
</g>
<!-- Node149 -->
<g id="node37" class="node"><title>Node149</title>
<g id="a_node37"><a xlink:href="lstring_8c.html#ac51f4a1e06f41eeeb4690a3581016217" target="_top" xlink:title=" ">
<polygon fill="white" stroke="black" points="940,-587.5 940,-606.5 1032,-606.5 1032,-587.5 940,-587.5"/>
<text text-anchor="middle" x="986" y="-594.5" font-family="Helvetica,sans-Serif" font-size="10.00">luaS_hashlongstr</text>
</a>
</g>
</g>
<!-- Node147&#45;&gt;Node149 -->
<g id="edge44" class="edge"><title>Node147&#45;&gt;Node149</title>
<path fill="none" stroke="midnightblue" d="M902.787,-583.649C911.296,-585.031 920.61,-586.543 929.814,-588.038"/>
<polygon fill="midnightblue" stroke="midnightblue" points="929.283,-591.498 939.715,-589.646 930.405,-584.588 929.283,-591.498"/>
</g>
<!-- Node150 -->
<g id="node38" class="node"><title>Node150</title>
<g id="a_node38"><a xlink:href="lstring_8c.html#ac453c0e85b7bb4e9b146fc140b1b7c9e" target="_top" xlink:title=" ">
<polygon fill="white" stroke="black" points="1068,-587.5 1068,-606.5 1130,-606.5 1130,-587.5 1068,-587.5"/>
<text text-anchor="middle" x="1099" y="-594.5" font-family="Helvetica,sans-Serif" font-size="10.00">luaS_hash</text>
</a>
</g>
</g>
<!-- Node149&#45;&gt;Node150 -->
<g id="edge45" class="edge"><title>Node149&#45;&gt;Node150</title>
<path fill="none" stroke="midnightblue" d="M1032.15,-597C1040.59,-597 1049.36,-597 1057.64,-597"/>
<polygon fill="midnightblue" stroke="midnightblue" points="1057.82,-600.5 1067.82,-597 1057.82,-593.5 1057.82,-600.5"/>
</g>
<!-- Node435&#45;&gt;Node1 -->
<g id="edge57" class="edge"><title>Node435&#45;&gt;Node1</title>
<path fill="none" stroke="midnightblue" d="M363.406,-442.852C314.696,-438.965 195.162,-434.12 104,-469 83.8131,-476.724 64.4908,-492.227 51.4553,-504.306"/>
<polygon fill="midnightblue" stroke="midnightblue" points="48.9815,-501.829 44.1998,-511.283 53.8337,-506.874 48.9815,-501.829"/>
</g>
<!-- Node436 -->
<g id="node42" class="node"><title>Node436</title>
<g id="a_node42"><a xlink:href="ltable_8c.html#a257cec771edd330f1dbfbd995aff684d" target="_top" xlink:title=" ">
<polygon fill="white" stroke="black" points="461.5,-454.5 461.5,-473.5 538.5,-473.5 538.5,-454.5 461.5,-454.5"/>
<text text-anchor="middle" x="500" y="-461.5" font-family="Helvetica,sans-Serif" font-size="10.00">computesizes</text>
</a>
</g>
</g>
<!-- Node435&#45;&gt;Node436 -->
<g id="edge53" class="edge"><title>Node435&#45;&gt;Node436</title>
<path fill="none" stroke="midnightblue" d="M409.529,-448.754C421.492,-450.792 436.774,-453.396 451.309,-455.873"/>
<polygon fill="midnightblue" stroke="midnightblue" points="450.757,-459.33 461.203,-457.559 451.933,-452.429 450.757,-459.33"/>
</g>
<!-- Node437 -->
<g id="node43" class="node"><title>Node437</title>
<g id="a_node43"><a xlink:href="ltable_8c.html#a41b93f1d95df7f27e8dbc15a0e64f60c" target="_top" xlink:title=" ">
<polygon fill="white" stroke="black" points="595,-345.5 595,-364.5 646,-364.5 646,-345.5 595,-345.5"/>
<text text-anchor="middle" x="620.5" y="-352.5" font-family="Helvetica,sans-Serif" font-size="10.00">countint</text>
</a>
</g>
</g>
<!-- Node435&#45;&gt;Node437 -->
<g id="edge54" class="edge"><title>Node435&#45;&gt;Node437</title>
<path fill="none" stroke="midnightblue" d="M393.246,-435.444C403.964,-418.607 428.776,-384.016 460,-369 499.558,-349.976 551.002,-349.095 584.618,-351.212"/>
<polygon fill="midnightblue" stroke="midnightblue" points="584.632,-354.723 594.867,-351.986 585.159,-347.743 584.632,-354.723"/>
</g>
<!-- Node439 -->
<g id="node46" class="node"><title>Node439</title>
<g id="a_node46"><a xlink:href="ltable_8c.html#aa1bb1405b21d33c8b3c41b78ef555d22" target="_top" xlink:title=" ">
<polygon fill="white" stroke="black" points="463.5,-416.5 463.5,-435.5 536.5,-435.5 536.5,-416.5 463.5,-416.5"/>
<text text-anchor="middle" x="500" y="-423.5" font-family="Helvetica,sans-Serif" font-size="10.00">numusearray</text>
</a>
</g>
</g>
<!-- Node435&#45;&gt;Node439 -->
<g id="edge58" class="edge"><title>Node435&#45;&gt;Node439</title>
<path fill="none" stroke="midnightblue" d="M409.529,-441.246C422.008,-439.12 438.097,-436.378 453.184,-433.807"/>
<polygon fill="midnightblue" stroke="midnightblue" points="454.142,-437.195 463.412,-432.064 452.966,-430.294 454.142,-437.195"/>
</g>
<!-- Node440 -->
<g id="node47" class="node"><title>Node440</title>
<g id="a_node47"><a xlink:href="ltable_8c.html#a383b5912900c91c788f78adb36c9d3f9" target="_top" xlink:title=" ">
<polygon fill="white" stroke="black" points="464,-378.5 464,-397.5 536,-397.5 536,-378.5 464,-378.5"/>
<text text-anchor="middle" x="500" y="-385.5" font-family="Helvetica,sans-Serif" font-size="10.00">numusehash</text>
</a>
</g>
</g>
<!-- Node435&#45;&gt;Node440 -->
<g id="edge59" class="edge"><title>Node435&#45;&gt;Node440</title>
<path fill="none" stroke="midnightblue" d="M405.301,-435.483C419.931,-427.707 441.23,-416.489 460,-407 463.189,-405.388 466.535,-403.721 469.87,-402.075"/>
<polygon fill="midnightblue" stroke="midnightblue" points="471.662,-405.095 479.104,-397.553 468.584,-398.808 471.662,-405.095"/>
</g>
<!-- Node435&#45;&gt;Node441 -->
<g id="edge61" class="edge"><title>Node435&#45;&gt;Node441</title>
<path fill="none" stroke="midnightblue" d="M405.301,-454.517C419.931,-462.293 441.23,-473.511 460,-483 463.189,-484.612 466.535,-486.279 469.87,-487.925"/>
<polygon fill="midnightblue" stroke="midnightblue" points="468.584,-491.192 479.104,-492.447 471.662,-484.905 468.584,-491.192"/>
</g>
<!-- Node438 -->
<g id="node44" class="node"><title>Node438</title>
<g id="a_node44"><a xlink:href="ltable_8c.html#a729a1f92fc454693e71df73e6b4eecd1" target="_top" xlink:title=" ">
<polygon fill="white" stroke="black" points="716.5,-355.5 716.5,-374.5 778.5,-374.5 778.5,-355.5 716.5,-355.5"/>
<text text-anchor="middle" x="747.5" y="-362.5" font-family="Helvetica,sans-Serif" font-size="10.00">arrayindex</text>
</a>
</g>
</g>
<!-- Node437&#45;&gt;Node438 -->
<g id="edge55" class="edge"><title>Node437&#45;&gt;Node438</title>
<path fill="none" stroke="midnightblue" d="M646.196,-356.976C663.204,-358.336 686.194,-360.176 705.873,-361.75"/>
<polygon fill="midnightblue" stroke="midnightblue" points="705.862,-365.26 716.109,-362.569 706.42,-358.282 705.862,-365.26"/>
</g>
<!-- Node316 -->
<g id="node45" class="node"><title>Node316</title>
<g id="a_node45"><a xlink:href="lobject_8c.html#a731a3a2f9db35aaddeadf8cb19d507bd" target="_top" xlink:title=" ">
<polygon fill="white" stroke="black" points="710,-317.5 710,-336.5 785,-336.5 785,-317.5 710,-317.5"/>
<text text-anchor="middle" x="747.5" y="-324.5" font-family="Helvetica,sans-Serif" font-size="10.00">luaO_ceillog2</text>
</a>
</g>
</g>
<!-- Node437&#45;&gt;Node316 -->
<g id="edge56" class="edge"><title>Node437&#45;&gt;Node316</title>
<path fill="none" stroke="midnightblue" d="M646.196,-349.468C661.444,-346.052 681.502,-341.56 699.67,-337.49"/>
<polygon fill="midnightblue" stroke="midnightblue" points="700.534,-340.883 709.527,-335.282 699.004,-334.053 700.534,-340.883"/>
</g>
<!-- Node440&#45;&gt;Node437 -->
<g id="edge60" class="edge"><title>Node440&#45;&gt;Node437</title>
<path fill="none" stroke="midnightblue" d="M535.275,-378.455C550.863,-374.114 569.274,-368.987 584.901,-364.635"/>
<polygon fill="midnightblue" stroke="midnightblue" points="586.016,-367.958 594.71,-361.903 584.138,-361.215 586.016,-367.958"/>
</g>
<!-- Node441&#45;&gt;Node6 -->
<g id="edge62" class="edge"><title>Node441&#45;&gt;Node6</title>
<path fill="none" stroke="midnightblue" d="M532.093,-511.625C576.272,-525.302 657.254,-550.372 706.054,-565.479"/>
<polygon fill="midnightblue" stroke="midnightblue" points="705.072,-568.839 715.66,-568.453 707.142,-562.152 705.072,-568.839"/>
</g>
<!-- Node442&#45;&gt;Node434 -->
<g id="edge64" class="edge"><title>Node442&#45;&gt;Node434</title>
<path fill="none" stroke="midnightblue" d="M294.16,-701.669C311.728,-710.773 338.25,-724.516 358.195,-734.851"/>
<polygon fill="midnightblue" stroke="midnightblue" points="356.626,-737.98 367.116,-739.474 359.847,-731.765 356.626,-737.98"/>
</g>
<!-- Node376&#45;&gt;Node9 -->
<g id="edge67" class="edge"><title>Node376&#45;&gt;Node9</title>
<path fill="none" stroke="midnightblue" d="M283.061,-302.308C301.351,-278.864 348.203,-218.808 371.67,-188.727"/>
<polygon fill="midnightblue" stroke="midnightblue" points="374.495,-190.797 377.886,-180.759 368.976,-186.491 374.495,-190.797"/>
</g>
<!-- Node376&#45;&gt;Node316 -->
<g id="edge68" class="edge"><title>Node376&#45;&gt;Node316</title>
<path fill="none" stroke="midnightblue" d="M313.248,-313.202C398.586,-315.92 606.19,-322.532 699.598,-325.506"/>
<polygon fill="midnightblue" stroke="midnightblue" points="699.769,-329.013 709.875,-325.834 699.992,-322.017 699.769,-329.013"/>
</g>
</g>
</svg>
