<?xml version="1.0" encoding="UTF-8" standalone="no"?>
<!DOCTYPE svg PUBLIC "-//W3C//DTD SVG 1.1//EN"
 "http://www.w3.org/Graphics/SVG/1.1/DTD/svg11.dtd">
<!-- Generated by graphviz version 2.38.0 (20140413.2041)
 -->
<!-- Title: luaH_newkey Pages: 1 -->
<svg width="1242pt" height="592pt"
 viewBox="0.00 0.00 1242.00 592.00" xmlns="http://www.w3.org/2000/svg" xmlns:xlink="http://www.w3.org/1999/xlink">
<g id="graph0" class="graph" transform="scale(1 1) rotate(0) translate(4 588)">
<title>luaH_newkey</title>
<polygon fill="white" stroke="none" points="-4,4 -4,-588 1238,-588 1238,4 -4,4"/>
<!-- Node1 -->
<g id="node1" class="node"><title>Node1</title>
<g id="a_node1"><a xlink:title=" ">
<polygon fill="#bfbfbf" stroke="black" points="0,-152.5 0,-171.5 74,-171.5 74,-152.5 0,-152.5"/>
<text text-anchor="middle" x="37" y="-159.5" font-family="Helvetica,sans-Serif" font-size="10.00">luaH_newkey</text>
</a>
</g>
</g>
<!-- Node2 -->
<g id="node2" class="node"><title>Node2</title>
<g id="a_node2"><a xlink:href="ltable_8c.html#aadac41ebb50daf5143d8deb998418a50" target="_top" xlink:title=" ">
<polygon fill="white" stroke="black" points="110,-514.5 110,-533.5 172,-533.5 172,-514.5 110,-514.5"/>
<text text-anchor="middle" x="141" y="-521.5" font-family="Helvetica,sans-Serif" font-size="10.00">getfreepos</text>
</a>
</g>
</g>
<!-- Node1&#45;&gt;Node2 -->
<g id="edge1" class="edge"><title>Node1&#45;&gt;Node2</title>
<path fill="none" stroke="midnightblue" d="M37.7778,-171.726C37.2495,-214.171 39.7295,-386.146 110,-500 111.752,-502.838 113.963,-505.483 116.389,-507.902"/>
<polygon fill="midnightblue" stroke="midnightblue" points="114.181,-510.619 124.059,-514.448 118.725,-505.294 114.181,-510.619"/>
</g>
<!-- Node3 -->
<g id="node3" class="node"><title>Node3</title>
<g id="a_node3"><a xlink:href="ldebug_8c.html#a88d38ca5da2e7a1492fc9d5ad70c32c5" target="_top" xlink:title=" ">
<polygon fill="white" stroke="black" points="453,-476.5 453,-495.5 528,-495.5 528,-476.5 453,-476.5"/>
<text text-anchor="middle" x="490.5" y="-483.5" font-family="Helvetica,sans-Serif" font-size="10.00">luaG_runerror</text>
</a>
</g>
</g>
<!-- Node1&#45;&gt;Node3 -->
<g id="edge2" class="edge"><title>Node1&#45;&gt;Node3</title>
<path fill="none" stroke="midnightblue" d="M39.5091,-171.648C47.1388,-216.609 86.0275,-405.951 208,-467 283.412,-504.745 384.707,-500.315 442.966,-493.366"/>
<polygon fill="midnightblue" stroke="midnightblue" points="443.5,-496.826 452.979,-492.095 442.618,-489.882 443.5,-496.826"/>
</g>
<!-- Node378 -->
<g id="node24" class="node"><title>Node378</title>
<g id="a_node24"><a xlink:href="ltable_8c.html#a2ea4f5ea50911a03375ba4d22ef72419" target="_top" xlink:title=" ">
<polygon fill="white" stroke="black" points="463,-152.5 463,-171.5 518,-171.5 518,-152.5 463,-152.5"/>
<text text-anchor="middle" x="490.5" y="-159.5" font-family="Helvetica,sans-Serif" font-size="10.00">luaH_set</text>
</a>
</g>
</g>
<!-- Node1&#45;&gt;Node378 -->
<g id="edge30" class="edge"><title>Node1&#45;&gt;Node378</title>
<path fill="none" stroke="midnightblue" d="M74.1849,-162C158.568,-162 367.658,-162 452.672,-162"/>
<polygon fill="midnightblue" stroke="midnightblue" points="452.879,-165.5 462.879,-162 452.879,-158.5 452.879,-165.5"/>
</g>
<!-- Node141 -->
<g id="node28" class="node"><title>Node141</title>
<g id="a_node28"><a xlink:href="ltable_8c.html#a3f0add4aa38ab8e59a5983ebab80ab42" target="_top" xlink:title=" ">
<polygon fill="white" stroke="black" points="810,-38.5 810,-57.5 893,-57.5 893,-38.5 810,-38.5"/>
<text text-anchor="middle" x="851.5" y="-45.5" font-family="Helvetica,sans-Serif" font-size="10.00">mainpositionTV</text>
</a>
</g>
</g>
<!-- Node1&#45;&gt;Node141 -->
<g id="edge46" class="edge"><title>Node1&#45;&gt;Node141</title>
<path fill="none" stroke="midnightblue" d="M45.8506,-152.286C58.1113,-137.702 83.1933,-110.144 110,-94 164.481,-61.19 181.902,-48 245.5,-48 245.5,-48 245.5,-48 605,-48 672.247,-48 749.856,-48 799.51,-48"/>
<polygon fill="midnightblue" stroke="midnightblue" points="799.668,-51.5001 809.668,-48 799.668,-44.5001 799.668,-51.5001"/>
</g>
<!-- Node142 -->
<g id="node29" class="node"><title>Node142</title>
<g id="a_node29"><a xlink:href="ltable_8c.html#a97b549a3507ec326a9d138a741f39bbc" target="_top" xlink:title=" ">
<polygon fill="white" stroke="black" points="935.5,-19.5 935.5,-38.5 1006.5,-38.5 1006.5,-19.5 935.5,-19.5"/>
<text text-anchor="middle" x="971" y="-26.5" font-family="Helvetica,sans-Serif" font-size="10.00">mainposition</text>
</a>
</g>
</g>
<!-- Node1&#45;&gt;Node142 -->
<g id="edge45" class="edge"><title>Node1&#45;&gt;Node142</title>
<path fill="none" stroke="midnightblue" d="M42.0157,-152.251C51.0484,-131.5 74.9527,-82.6822 110,-56 160.602,-17.4757 181.902,-10 245.5,-10 245.5,-10 245.5,-10 725.5,-10 795.458,-10 876.337,-17.8274 925.298,-23.4342"/>
<polygon fill="midnightblue" stroke="midnightblue" points="924.908,-26.9123 935.245,-24.5933 925.718,-19.9593 924.908,-26.9123"/>
</g>
<!-- Node111 -->
<g id="node36" class="node"><title>Node111</title>
<g id="a_node36"><a xlink:href="lvm_8c.html#a3a9a9378ccdbd0ea4cba6555673dccf9" target="_top" xlink:title=" ">
<polygon fill="white" stroke="black" points="681.5,-76.5 681.5,-95.5 767.5,-95.5 767.5,-76.5 681.5,-76.5"/>
<text text-anchor="middle" x="724.5" y="-83.5" font-family="Helvetica,sans-Serif" font-size="10.00">luaV_flttointeger</text>
</a>
</g>
</g>
<!-- Node1&#45;&gt;Node111 -->
<g id="edge44" class="edge"><title>Node1&#45;&gt;Node111</title>
<path fill="none" stroke="midnightblue" d="M52.9253,-152.375C86.1177,-131.924 169.154,-86 245.5,-86 245.5,-86 245.5,-86 491.5,-86 553.098,-86 623.896,-86 670.919,-86"/>
<polygon fill="midnightblue" stroke="midnightblue" points="671.165,-89.5001 681.165,-86 671.165,-82.5001 671.165,-89.5001"/>
</g>
<!-- Node437 -->
<g id="node37" class="node"><title>Node437</title>
<g id="a_node37"><a xlink:href="ltable_8c.html#ad775daa2a19a375c7385ed30834a3eeb" target="_top" xlink:title=" ">
<polygon fill="white" stroke="black" points="118,-324.5 118,-343.5 164,-343.5 164,-324.5 118,-324.5"/>
<text text-anchor="middle" x="141" y="-331.5" font-family="Helvetica,sans-Serif" font-size="10.00">rehash</text>
</a>
</g>
</g>
<!-- Node1&#45;&gt;Node437 -->
<g id="edge47" class="edge"><title>Node1&#45;&gt;Node437</title>
<path fill="none" stroke="midnightblue" d="M43.7762,-171.74C60.1865,-199.413 107.292,-278.845 128.912,-315.302"/>
<polygon fill="midnightblue" stroke="midnightblue" points="126.176,-317.551 134.287,-324.367 132.197,-313.98 126.176,-317.551"/>
</g>
<!-- Node4 -->
<g id="node4" class="node"><title>Node4</title>
<g id="a_node4"><a xlink:href="ldebug_8c.html#ad6bc24d619df8e849e2ae8b00455d86f" target="_top" xlink:title=" ">
<polygon fill="white" stroke="black" points="566.5,-338.5 566.5,-357.5 641.5,-357.5 641.5,-338.5 566.5,-338.5"/>
<text text-anchor="middle" x="604" y="-345.5" font-family="Helvetica,sans-Serif" font-size="10.00">getcurrentline</text>
</a>
</g>
</g>
<!-- Node3&#45;&gt;Node4 -->
<g id="edge3" class="edge"><title>Node3&#45;&gt;Node4</title>
<path fill="none" stroke="midnightblue" d="M503.993,-476.29C511.369,-470.264 520.667,-462.139 528,-454 553.633,-425.552 578.27,-388.187 591.947,-366.264"/>
<polygon fill="midnightblue" stroke="midnightblue" points="595.004,-367.975 597.267,-357.624 589.043,-364.305 595.004,-367.975"/>
</g>
<!-- Node8 -->
<g id="node8" class="node"><title>Node8</title>
<g id="a_node8"><a xlink:href="ldebug_8c.html#a7e1dc7518150bf19bd9aa5dda166a2eb" target="_top" xlink:title=" ">
<polygon fill="white" stroke="black" points="567.5,-526.5 567.5,-545.5 640.5,-545.5 640.5,-526.5 567.5,-526.5"/>
<text text-anchor="middle" x="604" y="-533.5" font-family="Helvetica,sans-Serif" font-size="10.00">luaG_addinfo</text>
</a>
</g>
</g>
<!-- Node3&#45;&gt;Node8 -->
<g id="edge7" class="edge"><title>Node3&#45;&gt;Node8</title>
<path fill="none" stroke="midnightblue" d="M512.735,-495.522C529.522,-503.05 553.193,-513.665 572.084,-522.136"/>
<polygon fill="midnightblue" stroke="midnightblue" points="570.908,-525.445 581.465,-526.343 573.772,-519.057 570.908,-525.445"/>
</g>
<!-- Node11 -->
<g id="node11" class="node"><title>Node11</title>
<g id="a_node11"><a xlink:href="lobject_8c.html#aa83fa444a36d79521e846a766fa083d5" target="_top" xlink:title=" ">
<polygon fill="white" stroke="black" points="805,-479.5 805,-498.5 898,-498.5 898,-479.5 805,-479.5"/>
<text text-anchor="middle" x="851.5" y="-486.5" font-family="Helvetica,sans-Serif" font-size="10.00">luaO_pushvfstring</text>
</a>
</g>
</g>
<!-- Node3&#45;&gt;Node11 -->
<g id="edge29" class="edge"><title>Node3&#45;&gt;Node11</title>
<path fill="none" stroke="midnightblue" d="M528.232,-482.016C591.297,-479.541 720.529,-480.368 794.754,-483.483"/>
<polygon fill="midnightblue" stroke="midnightblue" points="794.702,-486.984 804.85,-483.938 795.018,-479.992 794.702,-486.984"/>
</g>
<!-- Node436 -->
<g id="node18" class="node"><title>Node436</title>
<g id="a_node18"><a xlink:href="ldebug_8c.html#af7366920f8408bb33ed01b1d6c0e1238" target="_top" xlink:title=" ">
<polygon fill="white" stroke="black" points="564,-432.5 564,-451.5 644,-451.5 644,-432.5 564,-432.5"/>
<text text-anchor="middle" x="604" y="-439.5" font-family="Helvetica,sans-Serif" font-size="10.00">luaG_errormsg</text>
</a>
</g>
</g>
<!-- Node3&#45;&gt;Node436 -->
<g id="edge22" class="edge"><title>Node3&#45;&gt;Node436</title>
<path fill="none" stroke="midnightblue" d="M515.694,-476.453C531.328,-470.283 551.898,-462.166 569.145,-455.36"/>
<polygon fill="midnightblue" stroke="midnightblue" points="570.836,-458.455 578.853,-451.529 568.267,-451.944 570.836,-458.455"/>
</g>
<!-- Node5 -->
<g id="node5" class="node"><title>Node5</title>
<g id="a_node5"><a xlink:href="ldebug_8c.html#a7db2a3f5cbcf0ac3ef6d4cfa15ab4dbc" target="_top" xlink:title=" ">
<polygon fill="white" stroke="black" points="696,-300.5 696,-319.5 753,-319.5 753,-300.5 696,-300.5"/>
<text text-anchor="middle" x="724.5" y="-307.5" font-family="Helvetica,sans-Serif" font-size="10.00">currentpc</text>
</a>
</g>
</g>
<!-- Node4&#45;&gt;Node5 -->
<g id="edge4" class="edge"><title>Node4&#45;&gt;Node5</title>
<path fill="none" stroke="midnightblue" d="M634.903,-338.411C650.347,-333.458 669.35,-327.365 685.791,-322.092"/>
<polygon fill="midnightblue" stroke="midnightblue" points="687.189,-325.32 695.642,-318.933 685.051,-318.654 687.189,-325.32"/>
</g>
<!-- Node6 -->
<g id="node6" class="node"><title>Node6</title>
<g id="a_node6"><a xlink:href="ldebug_8c.html#ae7a6d2f88b11cc05758e44acd433ee2f" target="_top" xlink:title=" ">
<polygon fill="white" stroke="black" points="680,-338.5 680,-357.5 769,-357.5 769,-338.5 680,-338.5"/>
<text text-anchor="middle" x="724.5" y="-345.5" font-family="Helvetica,sans-Serif" font-size="10.00">luaG_getfuncline</text>
</a>
</g>
</g>
<!-- Node4&#45;&gt;Node6 -->
<g id="edge5" class="edge"><title>Node4&#45;&gt;Node6</title>
<path fill="none" stroke="midnightblue" d="M641.521,-348C650.41,-348 660.104,-348 669.612,-348"/>
<polygon fill="midnightblue" stroke="midnightblue" points="669.81,-351.5 679.81,-348 669.81,-344.5 669.81,-351.5"/>
</g>
<!-- Node7 -->
<g id="node7" class="node"><title>Node7</title>
<g id="a_node7"><a xlink:href="ldebug_8c.html#a355ee1f29ee39ff665aa01ef4493f453" target="_top" xlink:title=" ">
<polygon fill="white" stroke="black" points="818.5,-322.5 818.5,-341.5 884.5,-341.5 884.5,-322.5 818.5,-322.5"/>
<text text-anchor="middle" x="851.5" y="-329.5" font-family="Helvetica,sans-Serif" font-size="10.00">getbaseline</text>
</a>
</g>
</g>
<!-- Node6&#45;&gt;Node7 -->
<g id="edge6" class="edge"><title>Node6&#45;&gt;Node7</title>
<path fill="none" stroke="midnightblue" d="M769.219,-342.404C781.869,-340.785 795.652,-339.021 808.213,-337.413"/>
<polygon fill="midnightblue" stroke="midnightblue" points="808.951,-340.847 818.426,-336.105 808.063,-333.904 808.951,-340.847"/>
</g>
<!-- Node9 -->
<g id="node9" class="node"><title>Node9</title>
<g id="a_node9"><a xlink:href="lobject_8c.html#ac331b4119bbeb45a8a7e5a1afe553b2e" target="_top" xlink:title=" ">
<polygon fill="white" stroke="black" points="686.5,-564.5 686.5,-583.5 762.5,-583.5 762.5,-564.5 686.5,-564.5"/>
<text text-anchor="middle" x="724.5" y="-571.5" font-family="Helvetica,sans-Serif" font-size="10.00">luaO_chunkid</text>
</a>
</g>
</g>
<!-- Node8&#45;&gt;Node9 -->
<g id="edge8" class="edge"><title>Node8&#45;&gt;Node9</title>
<path fill="none" stroke="midnightblue" d="M634.903,-545.589C649.779,-550.359 667.957,-556.189 683.967,-561.323"/>
<polygon fill="midnightblue" stroke="midnightblue" points="683.016,-564.693 693.607,-564.414 685.153,-558.028 683.016,-564.693"/>
</g>
<!-- Node10 -->
<g id="node10" class="node"><title>Node10</title>
<g id="a_node10"><a xlink:href="lobject_8c.html#a8e224db7123c74d695076a96d1bfda61" target="_top" xlink:title=" ">
<polygon fill="white" stroke="black" points="680,-526.5 680,-545.5 769,-545.5 769,-526.5 680,-526.5"/>
<text text-anchor="middle" x="724.5" y="-533.5" font-family="Helvetica,sans-Serif" font-size="10.00">luaO_pushfstring</text>
</a>
</g>
</g>
<!-- Node8&#45;&gt;Node10 -->
<g id="edge9" class="edge"><title>Node8&#45;&gt;Node10</title>
<path fill="none" stroke="midnightblue" d="M640.554,-536C649.661,-536 659.663,-536 669.473,-536"/>
<polygon fill="midnightblue" stroke="midnightblue" points="669.58,-539.5 679.58,-536 669.58,-532.5 669.58,-539.5"/>
</g>
<!-- Node10&#45;&gt;Node11 -->
<g id="edge10" class="edge"><title>Node10&#45;&gt;Node11</title>
<path fill="none" stroke="midnightblue" d="M750.796,-526.489C769.31,-519.527 794.673,-509.991 815.185,-502.279"/>
<polygon fill="midnightblue" stroke="midnightblue" points="816.685,-505.454 824.813,-498.658 814.221,-498.902 816.685,-505.454"/>
</g>
<!-- Node11&#45;&gt;Node3 -->
<g id="edge20" class="edge"><title>Node11&#45;&gt;Node3</title>
<path fill="none" stroke="midnightblue" d="M804.85,-493.299C736.349,-495.469 607.637,-494.41 538.407,-491.122"/>
<polygon fill="midnightblue" stroke="midnightblue" points="538.399,-487.617 528.232,-490.598 538.039,-494.608 538.399,-487.617"/>
</g>
<!-- Node12 -->
<g id="node12" class="node"><title>Node12</title>
<g id="a_node12"><a xlink:href="lobject_8c.html#a1d02fb9304e4700ce1fd20e34ae68784" target="_top" xlink:title=" ">
<polygon fill="white" stroke="black" points="935.5,-403.5 935.5,-422.5 1006.5,-422.5 1006.5,-403.5 935.5,-403.5"/>
<text text-anchor="middle" x="971" y="-410.5" font-family="Helvetica,sans-Serif" font-size="10.00">addnum2buff</text>
</a>
</g>
</g>
<!-- Node11&#45;&gt;Node12 -->
<g id="edge11" class="edge"><title>Node11&#45;&gt;Node12</title>
<path fill="none" stroke="midnightblue" d="M872.413,-479.455C880.532,-475.32 889.896,-470.231 898,-465 915.03,-454.007 917.556,-448.852 934,-437 938.052,-434.079 942.429,-431.056 946.687,-428.182"/>
<polygon fill="midnightblue" stroke="midnightblue" points="948.735,-431.023 955.121,-422.569 944.857,-425.195 948.735,-431.023"/>
</g>
<!-- Node13 -->
<g id="node13" class="node"><title>Node13</title>
<g id="a_node13"><a xlink:href="lobject_8c.html#ac4ab924f2ea45ef73319f1159033eab1" target="_top" xlink:title=" ">
<polygon fill="white" stroke="black" points="1067.5,-441.5 1067.5,-460.5 1112.5,-460.5 1112.5,-441.5 1067.5,-441.5"/>
<text text-anchor="middle" x="1090" y="-448.5" font-family="Helvetica,sans-Serif" font-size="10.00">getbuff</text>
</a>
</g>
</g>
<!-- Node11&#45;&gt;Node13 -->
<g id="edge19" class="edge"><title>Node11&#45;&gt;Node13</title>
<path fill="none" stroke="midnightblue" d="M889.654,-479.454C903.506,-476.129 919.408,-472.588 934,-470 976.266,-462.505 1025.54,-457.013 1056.99,-453.914"/>
<polygon fill="midnightblue" stroke="midnightblue" points="1057.71,-457.36 1067.33,-452.918 1057.04,-450.393 1057.71,-457.36"/>
</g>
<!-- Node14 -->
<g id="node14" class="node"><title>Node14</title>
<g id="a_node14"><a xlink:href="lobject_8c.html#a6ec2716e64cd75e3e6614a87ee92e4d2" target="_top" xlink:title=" ">
<polygon fill="white" stroke="red" points="1176.5,-479.5 1176.5,-498.5 1229.5,-498.5 1229.5,-479.5 1176.5,-479.5"/>
<text text-anchor="middle" x="1203" y="-486.5" font-family="Helvetica,sans-Serif" font-size="10.00">clearbuff</text>
</a>
</g>
</g>
<!-- Node11&#45;&gt;Node14 -->
<g id="edge18" class="edge"><title>Node11&#45;&gt;Node14</title>
<path fill="none" stroke="midnightblue" d="M885.506,-498.507C900.214,-502.271 917.834,-506.141 934,-508 1023.22,-518.262 1046.88,-514.11 1136,-503 1146.01,-501.752 1156.75,-499.761 1166.6,-497.666"/>
<polygon fill="midnightblue" stroke="midnightblue" points="1167.47,-501.058 1176.47,-495.473 1165.95,-494.225 1167.47,-501.058"/>
</g>
<!-- Node435 -->
<g id="node16" class="node"><title>Node435</title>
<g id="a_node16"><a xlink:href="lobject_8c.html#a874ab64f433ee35f2197a81e10452cb1" target="_top" xlink:title=" ">
<polygon fill="white" stroke="red" points="939,-479.5 939,-498.5 1003,-498.5 1003,-479.5 939,-479.5"/>
<text text-anchor="middle" x="971" y="-486.5" font-family="Helvetica,sans-Serif" font-size="10.00">addstr2buff</text>
</a>
</g>
</g>
<!-- Node11&#45;&gt;Node435 -->
<g id="edge15" class="edge"><title>Node11&#45;&gt;Node435</title>
<path fill="none" stroke="midnightblue" d="M898.265,-489C908.203,-489 918.662,-489 928.427,-489"/>
<polygon fill="midnightblue" stroke="midnightblue" points="928.693,-492.5 938.693,-489 928.693,-485.5 928.693,-492.5"/>
</g>
<!-- Node239 -->
<g id="node17" class="node"><title>Node239</title>
<g id="a_node17"><a xlink:href="lobject_8c.html#af3136de4693789b08f78aafda9604676" target="_top" xlink:title=" ">
<polygon fill="white" stroke="black" points="934,-555.5 934,-574.5 1008,-574.5 1008,-555.5 934,-555.5"/>
<text text-anchor="middle" x="971" y="-562.5" font-family="Helvetica,sans-Serif" font-size="10.00">luaO_utf8esc</text>
</a>
</g>
</g>
<!-- Node11&#45;&gt;Node239 -->
<g id="edge21" class="edge"><title>Node11&#45;&gt;Node239</title>
<path fill="none" stroke="midnightblue" d="M867.381,-498.625C887.334,-511.531 922.972,-534.582 946.552,-549.833"/>
<polygon fill="midnightblue" stroke="midnightblue" points="944.942,-552.96 955.239,-555.453 948.744,-547.083 944.942,-552.96"/>
</g>
<!-- Node12&#45;&gt;Node13 -->
<g id="edge12" class="edge"><title>Node12&#45;&gt;Node13</title>
<path fill="none" stroke="midnightblue" d="M1001.52,-422.589C1018.61,-428.14 1040.12,-435.124 1057.53,-440.778"/>
<polygon fill="midnightblue" stroke="midnightblue" points="1056.65,-444.173 1067.24,-443.933 1058.81,-437.515 1056.65,-444.173"/>
</g>
<!-- Node434 -->
<g id="node15" class="node"><title>Node434</title>
<g id="a_node15"><a xlink:href="lobject_8c.html#a8a7886b6335aca97db23dfe3e220c728" target="_top" xlink:title=" ">
<polygon fill="white" stroke="black" points="1058,-403.5 1058,-422.5 1122,-422.5 1122,-403.5 1058,-403.5"/>
<text text-anchor="middle" x="1090" y="-410.5" font-family="Helvetica,sans-Serif" font-size="10.00">tostringbuff</text>
</a>
</g>
</g>
<!-- Node12&#45;&gt;Node434 -->
<g id="edge14" class="edge"><title>Node12&#45;&gt;Node434</title>
<path fill="none" stroke="midnightblue" d="M1006.79,-413C1019.54,-413 1034.11,-413 1047.4,-413"/>
<polygon fill="midnightblue" stroke="midnightblue" points="1047.73,-416.5 1057.73,-413 1047.73,-409.5 1047.73,-416.5"/>
</g>
<!-- Node13&#45;&gt;Node14 -->
<g id="edge13" class="edge"><title>Node13&#45;&gt;Node14</title>
<path fill="none" stroke="midnightblue" d="M1112.67,-458.417C1128.1,-463.702 1149.19,-470.92 1167,-477.017"/>
<polygon fill="midnightblue" stroke="midnightblue" points="1165.9,-480.342 1176.5,-480.27 1168.17,-473.719 1165.9,-480.342"/>
</g>
<!-- Node435&#45;&gt;Node13 -->
<g id="edge17" class="edge"><title>Node435&#45;&gt;Node13</title>
<path fill="none" stroke="midnightblue" d="M1001.52,-479.411C1018.61,-473.86 1040.12,-466.876 1057.53,-461.222"/>
<polygon fill="midnightblue" stroke="midnightblue" points="1058.81,-464.485 1067.24,-458.067 1056.65,-457.827 1058.81,-464.485"/>
</g>
<!-- Node435&#45;&gt;Node14 -->
<g id="edge16" class="edge"><title>Node435&#45;&gt;Node14</title>
<path fill="none" stroke="midnightblue" d="M1003.02,-489C1045.47,-489 1121.51,-489 1166.29,-489"/>
<polygon fill="midnightblue" stroke="midnightblue" points="1166.42,-492.5 1176.42,-489 1166.42,-485.5 1166.42,-492.5"/>
</g>
<!-- Node62 -->
<g id="node19" class="node"><title>Node62</title>
<g id="a_node19"><a xlink:href="ldo_8c.html#a61c0a0185ef5ae1493dad10027f4db7e" target="_top" xlink:title=" ">
<polygon fill="white" stroke="black" points="681,-432.5 681,-451.5 768,-451.5 768,-432.5 681,-432.5"/>
<text text-anchor="middle" x="724.5" y="-439.5" font-family="Helvetica,sans-Serif" font-size="10.00">luaD_callnoyield</text>
</a>
</g>
</g>
<!-- Node436&#45;&gt;Node62 -->
<g id="edge23" class="edge"><title>Node436&#45;&gt;Node62</title>
<path fill="none" stroke="midnightblue" d="M644.13,-442C652.561,-442 661.609,-442 670.469,-442"/>
<polygon fill="midnightblue" stroke="midnightblue" points="670.736,-445.5 680.736,-442 670.736,-438.5 670.736,-445.5"/>
</g>
<!-- Node101 -->
<g id="node21" class="node"><title>Node101</title>
<g id="a_node21"><a xlink:href="ldo_8c.html#a2b46d9db5b9ca3d5402a0c2ac640a6b0" target="_top" xlink:title=" ">
<polygon fill="white" stroke="black" points="692,-376.5 692,-395.5 757,-395.5 757,-376.5 692,-376.5"/>
<text text-anchor="middle" x="724.5" y="-383.5" font-family="Helvetica,sans-Serif" font-size="10.00">luaD_throw</text>
</a>
</g>
</g>
<!-- Node436&#45;&gt;Node101 -->
<g id="edge25" class="edge"><title>Node436&#45;&gt;Node101</title>
<path fill="none" stroke="midnightblue" d="M625.371,-432.373C644.308,-423.424 672.732,-409.992 694.122,-399.883"/>
<polygon fill="midnightblue" stroke="midnightblue" points="695.849,-402.938 703.395,-395.501 692.858,-396.609 695.849,-402.938"/>
</g>
<!-- Node63 -->
<g id="node20" class="node"><title>Node63</title>
<g id="a_node20"><a xlink:href="ldo_8c.html#aa7d32ccef16c2d4fe63604c4c457831d" target="_top" xlink:title=" ">
<polygon fill="white" stroke="red" points="833,-436.5 833,-455.5 870,-455.5 870,-436.5 833,-436.5"/>
<text text-anchor="middle" x="851.5" y="-443.5" font-family="Helvetica,sans-Serif" font-size="10.00">ccall</text>
</a>
</g>
</g>
<!-- Node62&#45;&gt;Node63 -->
<g id="edge24" class="edge"><title>Node62&#45;&gt;Node63</title>
<path fill="none" stroke="midnightblue" d="M768.168,-443.365C786.097,-443.939 806.455,-444.591 822.442,-445.102"/>
<polygon fill="midnightblue" stroke="midnightblue" points="822.621,-448.61 832.727,-445.431 822.845,-441.613 822.621,-448.61"/>
</g>
<!-- Node101&#45;&gt;Node101 -->
<g id="edge27" class="edge"><title>Node101&#45;&gt;Node101</title>
<path fill="none" stroke="midnightblue" d="M706.005,-395.757C697.007,-404.565 703.172,-414 724.5,-414 738.163,-414 745.604,-410.128 746.821,-405.029"/>
<polygon fill="midnightblue" stroke="midnightblue" points="750.045,-403.666 742.995,-395.757 743.574,-406.336 750.045,-403.666"/>
</g>
<!-- Node73 -->
<g id="node22" class="node"><title>Node73</title>
<g id="a_node22"><a xlink:href="ldo_8c.html#a2a5656cf723dffe2e9b5314260bd8896" target="_top" xlink:title=" ">
<polygon fill="white" stroke="black" points="808,-398.5 808,-417.5 895,-417.5 895,-398.5 808,-398.5"/>
<text text-anchor="middle" x="851.5" y="-405.5" font-family="Helvetica,sans-Serif" font-size="10.00">luaD_seterrorobj</text>
</a>
</g>
</g>
<!-- Node101&#45;&gt;Node73 -->
<g id="edge26" class="edge"><title>Node101&#45;&gt;Node73</title>
<path fill="none" stroke="midnightblue" d="M757.043,-391.552C769.381,-393.723 783.872,-396.274 797.713,-398.709"/>
<polygon fill="midnightblue" stroke="midnightblue" points="797.18,-402.169 807.635,-400.456 798.393,-395.275 797.18,-402.169"/>
</g>
<!-- Node68 -->
<g id="node23" class="node"><title>Node68</title>
<g id="a_node23"><a xlink:href="lfunc_8c.html#ae9fcbf80b5969afd9412b9aed102f94e" target="_top" xlink:title=" ">
<polygon fill="white" stroke="red" points="819.5,-360.5 819.5,-379.5 883.5,-379.5 883.5,-360.5 819.5,-360.5"/>
<text text-anchor="middle" x="851.5" y="-367.5" font-family="Helvetica,sans-Serif" font-size="10.00">luaF_close</text>
</a>
</g>
</g>
<!-- Node101&#45;&gt;Node68 -->
<g id="edge28" class="edge"><title>Node101&#45;&gt;Node68</title>
<path fill="none" stroke="midnightblue" d="M757.043,-381.963C772.855,-379.939 792.203,-377.462 809.185,-375.288"/>
<polygon fill="midnightblue" stroke="midnightblue" points="809.926,-378.722 819.4,-373.981 809.037,-371.779 809.926,-378.722"/>
</g>
<!-- Node136 -->
<g id="node25" class="node"><title>Node136</title>
<g id="a_node25"><a xlink:href="ltable_8c.html#a72e6b8ad422b01d0b34197134cec1f7a" target="_top" xlink:title=" ">
<polygon fill="white" stroke="black" points="565.5,-114.5 565.5,-133.5 642.5,-133.5 642.5,-114.5 565.5,-114.5"/>
<text text-anchor="middle" x="604" y="-121.5" font-family="Helvetica,sans-Serif" font-size="10.00">luaH_finishset</text>
</a>
</g>
</g>
<!-- Node378&#45;&gt;Node136 -->
<g id="edge31" class="edge"><title>Node378&#45;&gt;Node136</title>
<path fill="none" stroke="midnightblue" d="M518.207,-152.898C532.265,-148.107 549.741,-142.151 565.169,-136.893"/>
<polygon fill="midnightblue" stroke="midnightblue" points="566.619,-140.097 574.955,-133.558 564.36,-133.471 566.619,-140.097"/>
</g>
<!-- Node137 -->
<g id="node26" class="node"><title>Node137</title>
<g id="a_node26"><a xlink:href="ltable_8c.html#a8b4fce00d7db27ee9caac3d49863dea3" target="_top" xlink:title=" ">
<polygon fill="white" stroke="black" points="576.5,-152.5 576.5,-171.5 631.5,-171.5 631.5,-152.5 576.5,-152.5"/>
<text text-anchor="middle" x="604" y="-159.5" font-family="Helvetica,sans-Serif" font-size="10.00">luaH_get</text>
</a>
</g>
</g>
<!-- Node378&#45;&gt;Node137 -->
<g id="edge33" class="edge"><title>Node378&#45;&gt;Node137</title>
<path fill="none" stroke="midnightblue" d="M518.207,-162C532.445,-162 550.19,-162 565.761,-162"/>
<polygon fill="midnightblue" stroke="midnightblue" points="566.124,-165.5 576.124,-162 566.124,-158.5 566.124,-165.5"/>
</g>
<!-- Node136&#45;&gt;Node1 -->
<g id="edge32" class="edge"><title>Node136&#45;&gt;Node1</title>
<path fill="none" stroke="midnightblue" d="M565.47,-124C519.423,-124 438.97,-124 370,-124 245.5,-124 245.5,-124 245.5,-124 187.306,-124 121.411,-138.64 79.7955,-149.746"/>
<polygon fill="midnightblue" stroke="midnightblue" points="78.7428,-146.405 70.0146,-152.411 80.583,-153.159 78.7428,-146.405"/>
</g>
<!-- Node138 -->
<g id="node27" class="node"><title>Node138</title>
<g id="a_node27"><a xlink:href="ltable_8c.html#a9170d329b0dd746ca9b15db8c22a2127" target="_top" xlink:title=" ">
<polygon fill="white" stroke="red" points="693.5,-114.5 693.5,-133.5 755.5,-133.5 755.5,-114.5 693.5,-114.5"/>
<text text-anchor="middle" x="724.5" y="-121.5" font-family="Helvetica,sans-Serif" font-size="10.00">getgeneric</text>
</a>
</g>
</g>
<!-- Node137&#45;&gt;Node138 -->
<g id="edge34" class="edge"><title>Node137&#45;&gt;Node138</title>
<path fill="none" stroke="midnightblue" d="M631.594,-153.472C646.995,-148.533 666.678,-142.221 683.874,-136.707"/>
<polygon fill="midnightblue" stroke="midnightblue" points="685.207,-139.955 693.661,-133.569 683.07,-133.29 685.207,-139.955"/>
</g>
<!-- Node146 -->
<g id="node33" class="node"><title>Node146</title>
<g id="a_node33"><a xlink:href="ltable_8c.html#ae142cefd44452389877c3e3187c7973e" target="_top" xlink:title=" ">
<polygon fill="white" stroke="black" points="692,-224.5 692,-243.5 757,-243.5 757,-224.5 692,-224.5"/>
<text text-anchor="middle" x="724.5" y="-231.5" font-family="Helvetica,sans-Serif" font-size="10.00">luaH_getint</text>
</a>
</g>
</g>
<!-- Node137&#45;&gt;Node146 -->
<g id="edge40" class="edge"><title>Node137&#45;&gt;Node146</title>
<path fill="none" stroke="midnightblue" d="M620.981,-171.71C641.059,-183.909 675.712,-204.964 699.11,-219.18"/>
<polygon fill="midnightblue" stroke="midnightblue" points="697.408,-222.242 707.772,-224.444 701.043,-216.26 697.408,-222.242"/>
</g>
<!-- Node78 -->
<g id="node35" class="node"><title>Node78</title>
<g id="a_node35"><a xlink:href="ltable_8c.html#ae8a52507e1c8966d9cf3f2dd5a0c325f" target="_top" xlink:title=" ">
<polygon fill="white" stroke="black" points="680.5,-152.5 680.5,-171.5 768.5,-171.5 768.5,-152.5 680.5,-152.5"/>
<text text-anchor="middle" x="724.5" y="-159.5" font-family="Helvetica,sans-Serif" font-size="10.00">luaH_getshortstr</text>
</a>
</g>
</g>
<!-- Node137&#45;&gt;Node78 -->
<g id="edge42" class="edge"><title>Node137&#45;&gt;Node78</title>
<path fill="none" stroke="midnightblue" d="M631.594,-162C643.013,-162 656.786,-162 670.153,-162"/>
<polygon fill="midnightblue" stroke="midnightblue" points="670.251,-165.5 680.251,-162 670.251,-158.5 670.251,-165.5"/>
</g>
<!-- Node137&#45;&gt;Node111 -->
<g id="edge43" class="edge"><title>Node137&#45;&gt;Node111</title>
<path fill="none" stroke="midnightblue" d="M628.066,-152.46C633.511,-149.756 639.142,-146.564 644,-143 662.759,-129.24 660.96,-118.368 680,-105 682.403,-103.313 684.979,-101.728 687.635,-100.248"/>
<polygon fill="midnightblue" stroke="midnightblue" points="689.461,-103.248 696.828,-95.633 686.321,-96.9917 689.461,-103.248"/>
</g>
<!-- Node138&#45;&gt;Node141 -->
<g id="edge35" class="edge"><title>Node138&#45;&gt;Node141</title>
<path fill="none" stroke="midnightblue" d="M749.846,-114.38C756.203,-111.595 762.962,-108.386 769,-105 790.856,-92.7441 814.124,-76.0657 830.178,-63.9177"/>
<polygon fill="midnightblue" stroke="midnightblue" points="832.493,-66.5532 838.301,-57.6918 828.235,-60.9975 832.493,-66.5532"/>
</g>
<!-- Node141&#45;&gt;Node142 -->
<g id="edge36" class="edge"><title>Node141&#45;&gt;Node142</title>
<path fill="none" stroke="midnightblue" d="M893.266,-41.408C903.507,-39.7521 914.554,-37.9657 924.989,-36.2784"/>
<polygon fill="midnightblue" stroke="midnightblue" points="925.854,-39.684 935.167,-34.6325 924.737,-32.7738 925.854,-39.684"/>
</g>
<!-- Node143 -->
<g id="node30" class="node"><title>Node143</title>
<g id="a_node30"><a xlink:href="ltable_8c.html#ac726a5642652c5e7d5417c03047fc3d5" target="_top" xlink:title=" ">
<polygon fill="white" stroke="black" points="1058.5,-38.5 1058.5,-57.5 1121.5,-57.5 1121.5,-38.5 1058.5,-38.5"/>
<text text-anchor="middle" x="1090" y="-45.5" font-family="Helvetica,sans-Serif" font-size="10.00">l_hashfloat</text>
</a>
</g>
</g>
<!-- Node142&#45;&gt;Node143 -->
<g id="edge37" class="edge"><title>Node142&#45;&gt;Node143</title>
<path fill="none" stroke="midnightblue" d="M1006.79,-34.6492C1019.78,-36.7587 1034.64,-39.1731 1048.13,-41.3635"/>
<polygon fill="midnightblue" stroke="midnightblue" points="1047.69,-44.8378 1058.12,-42.986 1048.81,-37.9283 1047.69,-44.8378"/>
</g>
<!-- Node144 -->
<g id="node31" class="node"><title>Node144</title>
<g id="a_node31"><a xlink:href="lstring_8c.html#ac51f4a1e06f41eeeb4690a3581016217" target="_top" xlink:title=" ">
<polygon fill="white" stroke="black" points="1044,-0.5 1044,-19.5 1136,-19.5 1136,-0.5 1044,-0.5"/>
<text text-anchor="middle" x="1090" y="-7.5" font-family="Helvetica,sans-Serif" font-size="10.00">luaS_hashlongstr</text>
</a>
</g>
</g>
<!-- Node142&#45;&gt;Node144 -->
<g id="edge38" class="edge"><title>Node142&#45;&gt;Node144</title>
<path fill="none" stroke="midnightblue" d="M1006.79,-23.3508C1015.3,-21.9691 1024.61,-20.4566 1033.81,-18.9619"/>
<polygon fill="midnightblue" stroke="midnightblue" points="1034.41,-22.4117 1043.72,-17.354 1033.28,-15.5022 1034.41,-22.4117"/>
</g>
<!-- Node145 -->
<g id="node32" class="node"><title>Node145</title>
<g id="a_node32"><a xlink:href="lstring_8c.html#ac453c0e85b7bb4e9b146fc140b1b7c9e" target="_top" xlink:title=" ">
<polygon fill="white" stroke="black" points="1172,-0.5 1172,-19.5 1234,-19.5 1234,-0.5 1172,-0.5"/>
<text text-anchor="middle" x="1203" y="-7.5" font-family="Helvetica,sans-Serif" font-size="10.00">luaS_hash</text>
</a>
</g>
</g>
<!-- Node144&#45;&gt;Node145 -->
<g id="edge39" class="edge"><title>Node144&#45;&gt;Node145</title>
<path fill="none" stroke="midnightblue" d="M1136.15,-10C1144.59,-10 1153.36,-10 1161.64,-10"/>
<polygon fill="midnightblue" stroke="midnightblue" points="1161.82,-13.5001 1171.82,-10 1161.82,-6.5001 1161.82,-13.5001"/>
</g>
<!-- Node29 -->
<g id="node34" class="node"><title>Node29</title>
<g id="a_node34"><a xlink:href="ltable_8c.html#a8f20a204b7a78780847939086b847781" target="_top" xlink:title=" ">
<polygon fill="white" stroke="black" points="811.5,-243.5 811.5,-262.5 891.5,-262.5 891.5,-243.5 811.5,-243.5"/>
<text text-anchor="middle" x="851.5" y="-250.5" font-family="Helvetica,sans-Serif" font-size="10.00">luaH_realasize</text>
</a>
</g>
</g>
<!-- Node146&#45;&gt;Node29 -->
<g id="edge41" class="edge"><title>Node146&#45;&gt;Node29</title>
<path fill="none" stroke="midnightblue" d="M757.043,-238.795C770.441,-240.831 786.378,-243.254 801.264,-245.516"/>
<polygon fill="midnightblue" stroke="midnightblue" points="800.944,-249.008 811.356,-247.05 801.996,-242.087 800.944,-249.008"/>
</g>
<!-- Node438 -->
<g id="node38" class="node"><title>Node438</title>
<g id="a_node38"><a xlink:href="ltable_8c.html#a257cec771edd330f1dbfbd995aff684d" target="_top" xlink:title=" ">
<polygon fill="white" stroke="black" points="208,-286.5 208,-305.5 285,-305.5 285,-286.5 208,-286.5"/>
<text text-anchor="middle" x="246.5" y="-293.5" font-family="Helvetica,sans-Serif" font-size="10.00">computesizes</text>
</a>
</g>
</g>
<!-- Node437&#45;&gt;Node438 -->
<g id="edge48" class="edge"><title>Node437&#45;&gt;Node438</title>
<path fill="none" stroke="midnightblue" d="M164.203,-325.848C177.456,-320.982 194.598,-314.689 209.721,-309.136"/>
<polygon fill="midnightblue" stroke="midnightblue" points="211.126,-312.349 219.307,-305.617 208.714,-305.778 211.126,-312.349"/>
</g>
<!-- Node439 -->
<g id="node39" class="node"><title>Node439</title>
<g id="a_node39"><a xlink:href="ltable_8c.html#a41b93f1d95df7f27e8dbc15a0e64f60c" target="_top" xlink:title=" ">
<polygon fill="white" stroke="black" points="343.5,-425.5 343.5,-444.5 394.5,-444.5 394.5,-425.5 343.5,-425.5"/>
<text text-anchor="middle" x="369" y="-432.5" font-family="Helvetica,sans-Serif" font-size="10.00">countint</text>
</a>
</g>
</g>
<!-- Node437&#45;&gt;Node439 -->
<g id="edge49" class="edge"><title>Node437&#45;&gt;Node439</title>
<path fill="none" stroke="midnightblue" d="M164.008,-341.022C192.696,-350.564 244.038,-368.986 285,-391 302.159,-400.222 303.864,-406.737 321,-416 325.028,-418.178 329.361,-420.255 333.707,-422.183"/>
<polygon fill="midnightblue" stroke="midnightblue" points="332.557,-425.496 343.132,-426.145 335.27,-419.043 332.557,-425.496"/>
</g>
<!-- Node373 -->
<g id="node42" class="node"><title>Node373</title>
<g id="a_node42"><a xlink:href="ltable_8c.html#aad3b771962cc13884bf7b45480e8f4e9" target="_top" xlink:title=" ">
<polygon fill="white" stroke="black" points="212.5,-248.5 212.5,-267.5 280.5,-267.5 280.5,-248.5 212.5,-248.5"/>
<text text-anchor="middle" x="246.5" y="-255.5" font-family="Helvetica,sans-Serif" font-size="10.00">luaH_resize</text>
</a>
</g>
</g>
<!-- Node437&#45;&gt;Node373 -->
<g id="edge52" class="edge"><title>Node437&#45;&gt;Node373</title>
<path fill="none" stroke="midnightblue" d="M151.669,-324.301C164.013,-312.248 186.371,-291.502 208,-277 210.387,-275.4 212.927,-273.842 215.516,-272.352"/>
<polygon fill="midnightblue" stroke="midnightblue" points="217.219,-275.41 224.359,-267.582 213.896,-269.249 217.219,-275.41"/>
</g>
<!-- Node379 -->
<g id="node47" class="node"><title>Node379</title>
<g id="a_node47"><a xlink:href="ltable_8c.html#a21e72b3bbf05de9a2fa6d3e566d070ad" target="_top" xlink:title=" ">
<polygon fill="white" stroke="black" points="332,-342.5 332,-361.5 406,-361.5 406,-342.5 332,-342.5"/>
<text text-anchor="middle" x="369" y="-349.5" font-family="Helvetica,sans-Serif" font-size="10.00">setlimittosize</text>
</a>
</g>
</g>
<!-- Node437&#45;&gt;Node379 -->
<g id="edge68" class="edge"><title>Node437&#45;&gt;Node379</title>
<path fill="none" stroke="midnightblue" d="M164.081,-335.759C200.402,-338.651 273.509,-344.474 321.598,-348.304"/>
<polygon fill="midnightblue" stroke="midnightblue" points="321.508,-351.808 331.755,-349.113 322.064,-344.83 321.508,-351.808"/>
</g>
<!-- Node441 -->
<g id="node49" class="node"><title>Node441</title>
<g id="a_node49"><a xlink:href="ltable_8c.html#aa1bb1405b21d33c8b3c41b78ef555d22" target="_top" xlink:title=" ">
<polygon fill="white" stroke="black" points="210,-400.5 210,-419.5 283,-419.5 283,-400.5 210,-400.5"/>
<text text-anchor="middle" x="246.5" y="-407.5" font-family="Helvetica,sans-Serif" font-size="10.00">numusearray</text>
</a>
</g>
</g>
<!-- Node437&#45;&gt;Node441 -->
<g id="edge65" class="edge"><title>Node437&#45;&gt;Node441</title>
<path fill="none" stroke="midnightblue" d="M153.42,-343.557C166.375,-354.266 188.268,-371.963 208,-386 212.114,-388.926 216.569,-391.922 220.924,-394.76"/>
<polygon fill="midnightblue" stroke="midnightblue" points="219.271,-397.857 229.581,-400.295 223.041,-391.959 219.271,-397.857"/>
</g>
<!-- Node442 -->
<g id="node50" class="node"><title>Node442</title>
<g id="a_node50"><a xlink:href="ltable_8c.html#a383b5912900c91c788f78adb36c9d3f9" target="_top" xlink:title=" ">
<polygon fill="white" stroke="black" points="210.5,-438.5 210.5,-457.5 282.5,-457.5 282.5,-438.5 210.5,-438.5"/>
<text text-anchor="middle" x="246.5" y="-445.5" font-family="Helvetica,sans-Serif" font-size="10.00">numusehash</text>
</a>
</g>
</g>
<!-- Node437&#45;&gt;Node442 -->
<g id="edge66" class="edge"><title>Node437&#45;&gt;Node442</title>
<path fill="none" stroke="midnightblue" d="M146.568,-343.516C155.864,-362.053 178.614,-403.419 208,-429 209.7,-430.48 211.535,-431.879 213.448,-433.195"/>
<polygon fill="midnightblue" stroke="midnightblue" points="211.784,-436.278 222.158,-438.431 215.391,-430.279 211.784,-436.278"/>
</g>
<!-- Node440 -->
<g id="node40" class="node"><title>Node440</title>
<g id="a_node40"><a xlink:href="ltable_8c.html#a729a1f92fc454693e71df73e6b4eecd1" target="_top" xlink:title=" ">
<polygon fill="white" stroke="black" points="459.5,-425.5 459.5,-444.5 521.5,-444.5 521.5,-425.5 459.5,-425.5"/>
<text text-anchor="middle" x="490.5" y="-432.5" font-family="Helvetica,sans-Serif" font-size="10.00">arrayindex</text>
</a>
</g>
</g>
<!-- Node439&#45;&gt;Node440 -->
<g id="edge50" class="edge"><title>Node439&#45;&gt;Node440</title>
<path fill="none" stroke="midnightblue" d="M394.76,-435C410.419,-435 431.028,-435 449.024,-435"/>
<polygon fill="midnightblue" stroke="midnightblue" points="449.261,-438.5 459.261,-435 449.261,-431.5 449.261,-438.5"/>
</g>
<!-- Node312 -->
<g id="node41" class="node"><title>Node312</title>
<g id="a_node41"><a xlink:href="lobject_8c.html#a731a3a2f9db35aaddeadf8cb19d507bd" target="_top" xlink:title=" ">
<polygon fill="white" stroke="black" points="453,-387.5 453,-406.5 528,-406.5 528,-387.5 453,-387.5"/>
<text text-anchor="middle" x="490.5" y="-394.5" font-family="Helvetica,sans-Serif" font-size="10.00">luaO_ceillog2</text>
</a>
</g>
</g>
<!-- Node439&#45;&gt;Node312 -->
<g id="edge51" class="edge"><title>Node439&#45;&gt;Node312</title>
<path fill="none" stroke="midnightblue" d="M394.76,-427.126C410.565,-422.101 431.413,-415.471 449.528,-409.711"/>
<polygon fill="midnightblue" stroke="midnightblue" points="450.792,-412.982 459.261,-406.616 448.67,-406.311 450.792,-412.982"/>
</g>
<!-- Node374 -->
<g id="node43" class="node"><title>Node374</title>
<g id="a_node43"><a xlink:href="ltable_8c.html#ade9702ba8a7c9b80dfb8301126842acb" target="_top" xlink:title=" ">
<polygon fill="white" stroke="black" points="321,-304.5 321,-323.5 417,-323.5 417,-304.5 321,-304.5"/>
<text text-anchor="middle" x="369" y="-311.5" font-family="Helvetica,sans-Serif" font-size="10.00">exchangehashpart</text>
</a>
</g>
</g>
<!-- Node373&#45;&gt;Node374 -->
<g id="edge53" class="edge"><title>Node373&#45;&gt;Node374</title>
<path fill="none" stroke="midnightblue" d="M266.615,-267.672C287.467,-278.214 318.267,-293.762 321,-295 325.079,-296.847 329.393,-298.711 333.687,-300.511"/>
<polygon fill="midnightblue" stroke="midnightblue" points="332.378,-303.757 342.958,-304.32 335.039,-297.282 332.378,-303.757"/>
</g>
<!-- Node375 -->
<g id="node44" class="node"><title>Node375</title>
<g id="a_node44"><a xlink:href="ltable_8c.html#aa2eece9a18d44f30d4a7b7030816bb63" target="_top" xlink:title=" ">
<polygon fill="white" stroke="black" points="342.5,-266.5 342.5,-285.5 395.5,-285.5 395.5,-266.5 342.5,-266.5"/>
<text text-anchor="middle" x="369" y="-273.5" font-family="Helvetica,sans-Serif" font-size="10.00">freehash</text>
</a>
</g>
</g>
<!-- Node373&#45;&gt;Node375 -->
<g id="edge54" class="edge"><title>Node373&#45;&gt;Node375</title>
<path fill="none" stroke="midnightblue" d="M280.746,-262.966C296.632,-265.339 315.677,-268.184 331.915,-270.61"/>
<polygon fill="midnightblue" stroke="midnightblue" points="331.711,-274.118 342.119,-272.134 332.745,-267.195 331.711,-274.118"/>
</g>
<!-- Node376 -->
<g id="node45" class="node"><title>Node376</title>
<g id="a_node45"><a xlink:href="ltable_8c.html#a9eefa8191c63f55cffb6b7b58217467c" target="_top" xlink:title=" ">
<polygon fill="white" stroke="black" points="336.5,-228.5 336.5,-247.5 401.5,-247.5 401.5,-228.5 336.5,-228.5"/>
<text text-anchor="middle" x="369" y="-235.5" font-family="Helvetica,sans-Serif" font-size="10.00">luaH_setint</text>
</a>
</g>
</g>
<!-- Node373&#45;&gt;Node376 -->
<g id="edge55" class="edge"><title>Node373&#45;&gt;Node376</title>
<path fill="none" stroke="midnightblue" d="M280.746,-252.482C294.783,-250.152 311.286,-247.413 326.139,-244.948"/>
<polygon fill="midnightblue" stroke="midnightblue" points="326.817,-248.383 336.108,-243.293 325.67,-241.478 326.817,-248.383"/>
</g>
<!-- Node377 -->
<g id="node46" class="node"><title>Node377</title>
<g id="a_node46"><a xlink:href="ltable_8c.html#acea46f70eb0bd30579a0c50c0804aabc" target="_top" xlink:title=" ">
<polygon fill="white" stroke="black" points="344.5,-190.5 344.5,-209.5 393.5,-209.5 393.5,-190.5 344.5,-190.5"/>
<text text-anchor="middle" x="369" y="-197.5" font-family="Helvetica,sans-Serif" font-size="10.00">reinsert</text>
</a>
</g>
</g>
<!-- Node373&#45;&gt;Node377 -->
<g id="edge58" class="edge"><title>Node373&#45;&gt;Node377</title>
<path fill="none" stroke="midnightblue" d="M264.473,-248.348C279.209,-240.125 301.228,-228.212 321,-219 325.453,-216.925 330.198,-214.852 334.896,-212.879"/>
<polygon fill="midnightblue" stroke="midnightblue" points="336.44,-216.029 344.366,-208.999 333.786,-209.551 336.44,-216.029"/>
</g>
<!-- Node373&#45;&gt;Node379 -->
<g id="edge60" class="edge"><title>Node373&#45;&gt;Node379</title>
<path fill="none" stroke="midnightblue" d="M271.332,-267.668C276.166,-270.267 280.991,-273.381 285,-277 306.965,-296.824 298.214,-314.125 321,-333 323.016,-334.67 325.199,-336.209 327.482,-337.624"/>
<polygon fill="midnightblue" stroke="midnightblue" points="326.17,-340.89 336.644,-342.487 329.451,-334.707 326.17,-340.89"/>
</g>
<!-- Node372 -->
<g id="node48" class="node"><title>Node372</title>
<g id="a_node48"><a xlink:href="ltable_8c.html#aee50b49395de01da3f8e14608f400108" target="_top" xlink:title=" ">
<polygon fill="white" stroke="black" points="330.5,-387.5 330.5,-406.5 407.5,-406.5 407.5,-387.5 330.5,-387.5"/>
<text text-anchor="middle" x="369" y="-394.5" font-family="Helvetica,sans-Serif" font-size="10.00">setnodevector</text>
</a>
</g>
</g>
<!-- Node373&#45;&gt;Node372 -->
<g id="edge62" class="edge"><title>Node373&#45;&gt;Node372</title>
<path fill="none" stroke="midnightblue" d="M272.704,-267.507C277.225,-270.066 281.579,-273.206 285,-277 314.96,-310.223 291.649,-337.238 321,-371 324.747,-375.31 329.392,-379.047 334.29,-382.237"/>
<polygon fill="midnightblue" stroke="midnightblue" points="332.829,-385.434 343.241,-387.395 336.324,-379.369 332.829,-385.434"/>
</g>
<!-- Node376&#45;&gt;Node1 -->
<g id="edge57" class="edge"><title>Node376&#45;&gt;Node1</title>
<path fill="none" stroke="midnightblue" d="M336.089,-230.651C277.427,-217.141 152.25,-188.312 84.2615,-172.654"/>
<polygon fill="midnightblue" stroke="midnightblue" points="84.7902,-169.184 74.2598,-170.351 83.2191,-176.006 84.7902,-169.184"/>
</g>
<!-- Node376&#45;&gt;Node146 -->
<g id="edge56" class="edge"><title>Node376&#45;&gt;Node146</title>
<path fill="none" stroke="midnightblue" d="M401.682,-237.642C465.645,-236.918 610.191,-235.282 681.752,-234.472"/>
<polygon fill="midnightblue" stroke="midnightblue" points="681.802,-237.972 691.762,-234.359 681.723,-230.973 681.802,-237.972"/>
</g>
<!-- Node377&#45;&gt;Node378 -->
<g id="edge59" class="edge"><title>Node377&#45;&gt;Node378</title>
<path fill="none" stroke="midnightblue" d="M393.609,-192.492C410.523,-187.114 433.625,-179.768 452.915,-173.634"/>
<polygon fill="midnightblue" stroke="midnightblue" points="454.134,-176.919 462.603,-170.553 452.012,-170.248 454.134,-176.919"/>
</g>
<!-- Node379&#45;&gt;Node29 -->
<g id="edge61" class="edge"><title>Node379&#45;&gt;Node29</title>
<path fill="none" stroke="midnightblue" d="M406.116,-344.559C491.276,-327.013 704.728,-283.034 801.472,-263.102"/>
<polygon fill="midnightblue" stroke="midnightblue" points="802.205,-266.524 811.293,-261.078 800.793,-259.668 802.205,-266.524"/>
</g>
<!-- Node372&#45;&gt;Node3 -->
<g id="edge63" class="edge"><title>Node372&#45;&gt;Node3</title>
<path fill="none" stroke="midnightblue" d="M399.329,-406.593C405.421,-409.197 411.618,-412.332 417,-416 436.223,-429.103 436.235,-437.87 453,-454 458.467,-459.26 464.604,-464.779 470.262,-469.723"/>
<polygon fill="midnightblue" stroke="midnightblue" points="468.217,-472.581 478.077,-476.459 472.787,-467.279 468.217,-472.581"/>
</g>
<!-- Node372&#45;&gt;Node312 -->
<g id="edge64" class="edge"><title>Node372&#45;&gt;Node312</title>
<path fill="none" stroke="midnightblue" d="M407.811,-397C418.805,-397 430.949,-397 442.438,-397"/>
<polygon fill="midnightblue" stroke="midnightblue" points="442.753,-400.5 452.752,-397 442.752,-393.5 442.753,-400.5"/>
</g>
<!-- Node442&#45;&gt;Node439 -->
<g id="edge67" class="edge"><title>Node442&#45;&gt;Node439</title>
<path fill="none" stroke="midnightblue" d="M282.678,-444.205C298.633,-442.484 317.444,-440.454 333.338,-438.739"/>
<polygon fill="midnightblue" stroke="midnightblue" points="333.735,-442.217 343.301,-437.665 332.984,-435.257 333.735,-442.217"/>
</g>
</g>
</svg>
