<?xml version="1.0" encoding="UTF-8" standalone="no"?>
<!DOCTYPE svg PUBLIC "-//W3C//DTD SVG 1.1//EN"
 "http://www.w3.org/Graphics/SVG/1.1/DTD/svg11.dtd">
<!-- Generated by graphviz version 2.38.0 (20140413.2041)
 -->
<!-- Title: callbinTM Pages: 1 -->
<svg width="937pt" height="807pt"
 viewBox="0.00 0.00 937.00 807.02" xmlns="http://www.w3.org/2000/svg" xmlns:xlink="http://www.w3.org/1999/xlink">
<g id="graph0" class="graph" transform="scale(1 1) rotate(0) translate(4 803.024)">
<title>callbinTM</title>
<polygon fill="white" stroke="none" points="-4,4 -4,-803.024 933,-803.024 933,4 -4,4"/>
<!-- Node1 -->
<g id="node1" class="node"><title>Node1</title>
<g id="a_node1"><a xlink:title=" ">
<polygon fill="#bfbfbf" stroke="black" points="871,-482.5 871,-501.5 929,-501.5 929,-482.5 871,-482.5"/>
<text text-anchor="middle" x="900" y="-489.5" font-family="Helvetica,sans-Serif" font-size="10.00">callbinTM</text>
</a>
</g>
</g>
<!-- Node2 -->
<g id="node2" class="node"><title>Node2</title>
<g id="a_node2"><a xlink:href="ltm_8h.html#a42fa775919957ebfb826d96c80e65f92" target="_top" xlink:title=" ">
<polygon fill="white" stroke="black" points="608,-530.5 608,-549.5 698,-549.5 698,-530.5 608,-530.5"/>
<text text-anchor="middle" x="653" y="-537.5" font-family="Helvetica,sans-Serif" font-size="10.00">luaT_callorderTM</text>
</a>
</g>
</g>
<!-- Node1&#45;&gt;Node2 -->
<g id="edge1" class="edge"><title>Node1&#45;&gt;Node2</title>
<path fill="none" stroke="midnightblue" d="M860.892,-499.466C816.923,-508.08 744.729,-522.224 698.297,-531.321"/>
<polygon fill="midnightblue" stroke="midnightblue" points="861.755,-502.864 870.895,-497.506 860.409,-495.994 861.755,-502.864"/>
</g>
<!-- Node459 -->
<g id="node25" class="node"><title>Node459</title>
<g id="a_node25"><a xlink:href="ltm_8h.html#a52f9c211746126a08117801bd7e2d826" target="_top" xlink:title=" ">
<polygon fill="white" stroke="black" points="749.5,-449.5 749.5,-468.5 826.5,-468.5 826.5,-449.5 749.5,-449.5"/>
<text text-anchor="middle" x="788" y="-456.5" font-family="Helvetica,sans-Serif" font-size="10.00">luaT_trybinTM</text>
</a>
</g>
</g>
<!-- Node1&#45;&gt;Node459 -->
<g id="edge34" class="edge"><title>Node1&#45;&gt;Node459</title>
<path fill="none" stroke="midnightblue" d="M861.249,-480.675C848.106,-476.732 833.501,-472.35 820.881,-468.564"/>
<polygon fill="midnightblue" stroke="midnightblue" points="860.374,-484.066 870.958,-483.587 862.385,-477.361 860.374,-484.066"/>
</g>
<!-- Node431 -->
<g id="node39" class="node"><title>Node431</title>
<g id="a_node39"><a xlink:href="ltm_8h.html#a57603cad2e23d236a640ef8d7569d18f" target="_top" xlink:title=" ">
<polygon fill="white" stroke="black" points="741,-364.5 741,-383.5 835,-383.5 835,-364.5 741,-364.5"/>
<text text-anchor="middle" x="788" y="-371.5" font-family="Helvetica,sans-Serif" font-size="10.00">luaT_tryconcatTM</text>
</a>
</g>
</g>
<!-- Node1&#45;&gt;Node431 -->
<g id="edge51" class="edge"><title>Node1&#45;&gt;Node431</title>
<path fill="none" stroke="midnightblue" d="M883.156,-475.004C859.792,-449.94 816.847,-403.872 798.126,-383.79"/>
<polygon fill="midnightblue" stroke="midnightblue" points="880.619,-477.415 889.998,-482.344 885.74,-472.642 880.619,-477.415"/>
</g>
<!-- Node3 -->
<g id="node3" class="node"><title>Node3</title>
<g id="a_node3"><a xlink:href="lvm_8c.html#aa12d860dd59154d1952911589fd72fb2" target="_top" xlink:title=" ">
<polygon fill="white" stroke="black" points="476.5,-587.5 476.5,-606.5 561.5,-606.5 561.5,-587.5 476.5,-587.5"/>
<text text-anchor="middle" x="519" y="-594.5" font-family="Helvetica,sans-Serif" font-size="10.00">lessequalothers</text>
</a>
</g>
</g>
<!-- Node2&#45;&gt;Node3 -->
<g id="edge2" class="edge"><title>Node2&#45;&gt;Node3</title>
<path fill="none" stroke="midnightblue" d="M620.989,-553.655C604.4,-560.932 583.61,-570.007 565,-578 557.831,-581.079 550.003,-584.399 542.916,-587.389"/>
<polygon fill="midnightblue" stroke="midnightblue" points="622.473,-556.826 630.222,-549.601 619.659,-550.417 622.473,-556.826"/>
</g>
<!-- Node651 -->
<g id="node22" class="node"><title>Node651</title>
<g id="a_node22"><a xlink:href="lvm_8c.html#a13f124eec78027029d2e8fd9b83ee614" target="_top" xlink:title=" ">
<polygon fill="white" stroke="black" points="479,-511.5 479,-530.5 559,-530.5 559,-511.5 479,-511.5"/>
<text text-anchor="middle" x="519" y="-518.5" font-family="Helvetica,sans-Serif" font-size="10.00">lessthanothers</text>
</a>
</g>
</g>
<!-- Node2&#45;&gt;Node651 -->
<g id="edge29" class="edge"><title>Node2&#45;&gt;Node651</title>
<path fill="none" stroke="midnightblue" d="M597.518,-532.158C584.638,-530.304 571.155,-528.363 559.112,-526.63"/>
<polygon fill="midnightblue" stroke="midnightblue" points="597.282,-535.66 607.679,-533.62 598.279,-528.731 597.282,-535.66"/>
</g>
<!-- Node653 -->
<g id="node24" class="node"><title>Node653</title>
<g id="a_node24"><a xlink:href="ltm_8h.html#a16f52862d54db7359c09dcec396f066a" target="_top" xlink:title=" ">
<polygon fill="white" stroke="black" points="473,-549.5 473,-568.5 565,-568.5 565,-549.5 473,-549.5"/>
<text text-anchor="middle" x="519" y="-556.5" font-family="Helvetica,sans-Serif" font-size="10.00">luaT_callorderiTM</text>
</a>
</g>
</g>
<!-- Node2&#45;&gt;Node653 -->
<g id="edge33" class="edge"><title>Node2&#45;&gt;Node653</title>
<path fill="none" stroke="midnightblue" d="M597.569,-547.835C586.85,-549.378 575.711,-550.981 565.33,-552.475"/>
<polygon fill="midnightblue" stroke="midnightblue" points="598.279,-551.269 607.679,-546.38 597.282,-544.34 598.279,-551.269"/>
</g>
<!-- Node4 -->
<g id="node4" class="node"><title>Node4</title>
<g id="a_node4"><a xlink:href="lvm_8h.html#ac430e93ed874f6ab2449d7a16aa6b62f" target="_top" xlink:title=" ">
<polygon fill="white" stroke="black" points="357.5,-366.5 357.5,-385.5 433.5,-385.5 433.5,-366.5 357.5,-366.5"/>
<text text-anchor="middle" x="395.5" y="-373.5" font-family="Helvetica,sans-Serif" font-size="10.00">luaV_execute</text>
</a>
</g>
</g>
<!-- Node3&#45;&gt;Node4 -->
<g id="edge3" class="edge"><title>Node3&#45;&gt;Node4</title>
<path fill="none" stroke="midnightblue" d="M477.438,-581.963C475.858,-580.739 474.368,-579.42 473,-578 444.514,-548.425 408.781,-421.622 399.047,-385.586"/>
<polygon fill="midnightblue" stroke="midnightblue" points="475.601,-584.943 485.924,-587.328 479.341,-579.026 475.601,-584.943"/>
</g>
<!-- Node650 -->
<g id="node16" class="node"><title>Node650</title>
<g id="a_node16"><a xlink:href="lvm_8h.html#aa151c39c80af19e2ea6d309e7993973c" target="_top" xlink:title=" ">
<polygon fill="white" stroke="black" points="354,-644.5 354,-663.5 437,-663.5 437,-644.5 354,-644.5"/>
<text text-anchor="middle" x="395.5" y="-651.5" font-family="Helvetica,sans-Serif" font-size="10.00">luaV_lessequal</text>
</a>
</g>
</g>
<!-- Node3&#45;&gt;Node650 -->
<g id="edge23" class="edge"><title>Node3&#45;&gt;Node650</title>
<path fill="none" stroke="midnightblue" d="M488.377,-610.897C466.209,-621.297 436.463,-635.252 416.903,-644.428"/>
<polygon fill="midnightblue" stroke="midnightblue" points="490.097,-613.956 497.664,-606.541 487.124,-607.619 490.097,-613.956"/>
</g>
<!-- Node5 -->
<g id="node5" class="node"><title>Node5</title>
<g id="a_node5"><a xlink:href="ldo_8c.html#aa7d32ccef16c2d4fe63604c4c457831d" target="_top" xlink:title=" ">
<polygon fill="white" stroke="black" points="261,-342.5 261,-361.5 298,-361.5 298,-342.5 261,-342.5"/>
<text text-anchor="middle" x="279.5" y="-349.5" font-family="Helvetica,sans-Serif" font-size="10.00">ccall</text>
</a>
</g>
</g>
<!-- Node4&#45;&gt;Node5 -->
<g id="edge4" class="edge"><title>Node4&#45;&gt;Node5</title>
<path fill="none" stroke="midnightblue" d="M347.446,-366.094C330.056,-362.433 311.39,-358.503 298.198,-355.726"/>
<polygon fill="midnightblue" stroke="midnightblue" points="346.981,-369.573 357.487,-368.208 348.423,-362.723 346.981,-369.573"/>
</g>
<!-- Node438 -->
<g id="node13" class="node"><title>Node438</title>
<g id="a_node13"><a xlink:href="ldo_8c.html#abd7632c715de5db6e7797b7fa3f7010f" target="_top" xlink:title=" ">
<polygon fill="white" stroke="black" points="137,-304.5 137,-323.5 186,-323.5 186,-304.5 137,-304.5"/>
<text text-anchor="middle" x="161.5" y="-311.5" font-family="Helvetica,sans-Serif" font-size="10.00">resume</text>
</a>
</g>
</g>
<!-- Node4&#45;&gt;Node438 -->
<g id="edge19" class="edge"><title>Node4&#45;&gt;Node438</title>
<path fill="none" stroke="midnightblue" d="M372.749,-360.729C357.993,-351.156 337.662,-339.447 318,-333 272.903,-318.214 217.035,-314.757 186.034,-314.055"/>
<polygon fill="midnightblue" stroke="midnightblue" points="370.901,-363.703 381.16,-366.347 374.789,-357.882 370.901,-363.703"/>
</g>
<!-- Node434 -->
<g id="node15" class="node"><title>Node434</title>
<g id="a_node15"><a xlink:href="ldo_8c.html#a3baab9d298c0c32cb74a9a079d7244de" target="_top" xlink:title=" ">
<polygon fill="white" stroke="black" points="259.5,-266.5 259.5,-285.5 299.5,-285.5 299.5,-266.5 259.5,-266.5"/>
<text text-anchor="middle" x="279.5" y="-273.5" font-family="Helvetica,sans-Serif" font-size="10.00">unroll</text>
</a>
</g>
</g>
<!-- Node4&#45;&gt;Node434 -->
<g id="edge20" class="edge"><title>Node4&#45;&gt;Node434</title>
<path fill="none" stroke="midnightblue" d="M379.227,-358.845C364.417,-342.706 340.888,-318.347 318,-300 311.486,-294.779 303.794,-289.691 297.078,-285.554"/>
<polygon fill="midnightblue" stroke="midnightblue" points="376.82,-361.4 386.128,-366.459 382.006,-356.699 376.82,-361.4"/>
</g>
<!-- Node6 -->
<g id="node6" class="node"><title>Node6</title>
<g id="a_node6"><a xlink:href="ldo_8h.html#a4797364de1dd297aac52f9c10565523f" target="_top" xlink:title=" ">
<polygon fill="white" stroke="black" points="133.5,-380.5 133.5,-399.5 189.5,-399.5 189.5,-380.5 133.5,-380.5"/>
<text text-anchor="middle" x="161.5" y="-387.5" font-family="Helvetica,sans-Serif" font-size="10.00">luaD_call</text>
</a>
</g>
</g>
<!-- Node5&#45;&gt;Node6 -->
<g id="edge5" class="edge"><title>Node5&#45;&gt;Node6</title>
<path fill="none" stroke="midnightblue" d="M251.273,-360.919C232.75,-366.987 208.333,-374.986 189.795,-381.058"/>
<polygon fill="midnightblue" stroke="midnightblue" points="252.469,-364.211 260.882,-357.771 250.289,-357.558 252.469,-364.211"/>
</g>
<!-- Node254 -->
<g id="node11" class="node"><title>Node254</title>
<g id="a_node11"><a xlink:href="ldo_8h.html#a5315637506edcbdd30e9271e75416ae1" target="_top" xlink:title=" ">
<polygon fill="white" stroke="red" points="118,-342.5 118,-361.5 205,-361.5 205,-342.5 118,-342.5"/>
<text text-anchor="middle" x="161.5" y="-349.5" font-family="Helvetica,sans-Serif" font-size="10.00">luaD_callnoyield</text>
</a>
</g>
</g>
<!-- Node5&#45;&gt;Node254 -->
<g id="edge12" class="edge"><title>Node5&#45;&gt;Node254</title>
<path fill="none" stroke="midnightblue" d="M250.746,-352C237.18,-352 220.549,-352 205.395,-352"/>
<polygon fill="midnightblue" stroke="midnightblue" points="250.882,-355.5 260.882,-352 250.882,-348.5 250.882,-355.5"/>
</g>
<!-- Node5&#45;&gt;Node438 -->
<g id="edge17" class="edge"><title>Node5&#45;&gt;Node438</title>
<path fill="none" stroke="midnightblue" d="M251.262,-343.077C231.562,-336.624 205.198,-327.987 186.331,-321.807"/>
<polygon fill="midnightblue" stroke="midnightblue" points="250.289,-346.442 260.882,-346.229 252.469,-339.789 250.289,-346.442"/>
</g>
<!-- Node6&#45;&gt;Node4 -->
<g id="edge11" class="edge"><title>Node6&#45;&gt;Node4</title>
<path fill="none" stroke="midnightblue" d="M199.723,-387.754C243.067,-385.138 314.227,-380.844 357.482,-378.234"/>
<polygon fill="midnightblue" stroke="midnightblue" points="199.371,-384.269 189.6,-388.365 199.793,-391.256 199.371,-384.269"/>
</g>
<!-- Node7 -->
<g id="node7" class="node"><title>Node7</title>
<g id="a_node7"><a xlink:href="lua_8h.html#aeebb647cb91c051b1955fac1207de386" target="_top" xlink:title=" ">
<polygon fill="white" stroke="red" points="13.5,-342.5 13.5,-361.5 68.5,-361.5 68.5,-342.5 13.5,-342.5"/>
<text text-anchor="middle" x="41" y="-349.5" font-family="Helvetica,sans-Serif" font-size="10.00">lua_callk</text>
</a>
</g>
</g>
<!-- Node6&#45;&gt;Node7 -->
<g id="edge6" class="edge"><title>Node6&#45;&gt;Node7</title>
<path fill="none" stroke="midnightblue" d="M123.787,-378.227C105.955,-372.509 84.922,-365.764 68.6514,-360.546"/>
<polygon fill="midnightblue" stroke="midnightblue" points="122.723,-381.561 133.314,-381.282 124.86,-374.896 122.723,-381.561"/>
</g>
<!-- Node9 -->
<g id="node8" class="node"><title>Node9</title>
<g id="a_node8"><a xlink:href="lua_8h.html#ab03ab465d4ca870dc66e228b8dfd3f06" target="_top" xlink:title=" ">
<polygon fill="white" stroke="red" points="11,-456.5 11,-475.5 71,-475.5 71,-456.5 11,-456.5"/>
<text text-anchor="middle" x="41" y="-463.5" font-family="Helvetica,sans-Serif" font-size="10.00">lua_pcallk</text>
</a>
</g>
</g>
<!-- Node6&#45;&gt;Node9 -->
<g id="edge7" class="edge"><title>Node6&#45;&gt;Node9</title>
<path fill="none" stroke="midnightblue" d="M140.476,-406.13C125.018,-418.182 102.823,-434.638 82,-447 76.3146,-450.375 69.935,-453.627 63.9691,-456.457"/>
<polygon fill="midnightblue" stroke="midnightblue" points="143.057,-408.551 148.737,-399.607 138.72,-403.057 143.057,-408.551"/>
</g>
<!-- Node12 -->
<g id="node9" class="node"><title>Node12</title>
<g id="a_node9"><a xlink:href="ltm_8h.html#a4380eceaa582fe847011b265423c8fa4" target="_top" xlink:title=" ">
<polygon fill="white" stroke="red" points="7,-380.5 7,-399.5 75,-399.5 75,-380.5 7,-380.5"/>
<text text-anchor="middle" x="41" y="-387.5" font-family="Helvetica,sans-Serif" font-size="10.00">luaT_callTM</text>
</a>
</g>
</g>
<!-- Node6&#45;&gt;Node12 -->
<g id="edge8" class="edge"><title>Node6&#45;&gt;Node12</title>
<path fill="none" stroke="midnightblue" d="M123.144,-390C107.842,-390 90.2737,-390 75.4056,-390"/>
<polygon fill="midnightblue" stroke="midnightblue" points="123.314,-393.5 133.314,-390 123.314,-386.5 123.314,-393.5"/>
</g>
<!-- Node126 -->
<g id="node10" class="node"><title>Node126</title>
<g id="a_node10"><a xlink:href="ltm_8h.html#a672b3605311190ae7ed802d566daa1fa" target="_top" xlink:title=" ">
<polygon fill="white" stroke="red" points="0,-418.5 0,-437.5 82,-437.5 82,-418.5 0,-418.5"/>
<text text-anchor="middle" x="41" y="-425.5" font-family="Helvetica,sans-Serif" font-size="10.00">luaT_callTMres</text>
</a>
</g>
</g>
<!-- Node6&#45;&gt;Node126 -->
<g id="edge9" class="edge"><title>Node6&#45;&gt;Node126</title>
<path fill="none" stroke="midnightblue" d="M123.41,-401.894C106.852,-407.203 87.5977,-413.378 71.9719,-418.389"/>
<polygon fill="midnightblue" stroke="midnightblue" points="124.86,-405.104 133.314,-398.718 122.723,-398.439 124.86,-405.104"/>
</g>
<!-- Node126&#45;&gt;Node1 -->
<g id="edge10" class="edge"><title>Node126&#45;&gt;Node1</title>
<path fill="none" stroke="midnightblue" d="M79.4416,-443.903C80.3643,-444.877 81.222,-445.908 82,-447 123.915,-505.815 67.106,-718.757 118,-770 168.619,-820.966 206.669,-789 278.5,-789 654,-789 654,-789 654,-789 806.735,-789 882.005,-552.381 896.413,-501.545"/>
<polygon fill="midnightblue" stroke="midnightblue" points="81.3516,-440.952 71.3319,-437.509 77.0174,-446.449 81.3516,-440.952"/>
</g>
<!-- Node254&#45;&gt;Node7 -->
<g id="edge14" class="edge"><title>Node254&#45;&gt;Node7</title>
<path fill="none" stroke="midnightblue" d="M107.52,-352C94.0087,-352 80.0578,-352 68.5199,-352"/>
<polygon fill="midnightblue" stroke="midnightblue" points="107.719,-355.5 117.719,-352 107.719,-348.5 107.719,-355.5"/>
</g>
<!-- Node254&#45;&gt;Node12 -->
<g id="edge15" class="edge"><title>Node254&#45;&gt;Node12</title>
<path fill="none" stroke="midnightblue" d="M120.957,-364.68C104.946,-369.815 86.7678,-375.644 71.893,-380.414"/>
<polygon fill="midnightblue" stroke="midnightblue" points="122.144,-367.975 130.597,-361.589 120.006,-361.31 122.144,-367.975"/>
</g>
<!-- Node254&#45;&gt;Node126 -->
<g id="edge16" class="edge"><title>Node254&#45;&gt;Node126</title>
<path fill="none" stroke="midnightblue" d="M125.463,-366.298C122.868,-367.766 120.349,-369.335 118,-371 99.0172,-384.449 100.827,-395.333 82,-409 77.1472,-412.523 71.5382,-415.663 66.0843,-418.326"/>
<polygon fill="midnightblue" stroke="midnightblue" points="127.137,-369.373 134.447,-361.704 123.95,-363.141 127.137,-369.373"/>
</g>
<!-- Node255 -->
<g id="node12" class="node"><title>Node255</title>
<g id="a_node12"><a xlink:href="lfunc_8c.html#ad6f77f3a49d8b6199525c7edac6fd0a6" target="_top" xlink:title=" ">
<polygon fill="white" stroke="red" points="13.5,-304.5 13.5,-323.5 68.5,-323.5 68.5,-304.5 13.5,-304.5"/>
<text text-anchor="middle" x="41" y="-311.5" font-family="Helvetica,sans-Serif" font-size="10.00">callclose</text>
</a>
</g>
</g>
<!-- Node254&#45;&gt;Node255 -->
<g id="edge13" class="edge"><title>Node254&#45;&gt;Node255</title>
<path fill="none" stroke="midnightblue" d="M120.829,-339.279C103.667,-333.775 84.0367,-327.48 68.6583,-322.549"/>
<polygon fill="midnightblue" stroke="midnightblue" points="120.006,-342.69 130.597,-342.411 122.144,-336.025 120.006,-342.69"/>
</g>
<!-- Node435 -->
<g id="node14" class="node"><title>Node435</title>
<g id="a_node14"><a xlink:href="lua_8h.html#a534ce5b580fb7c5391f931b272eff0a0" target="_top" xlink:title=" ">
<polygon fill="white" stroke="red" points="7.5,-266.5 7.5,-285.5 74.5,-285.5 74.5,-266.5 7.5,-266.5"/>
<text text-anchor="middle" x="41" y="-273.5" font-family="Helvetica,sans-Serif" font-size="10.00">lua_resume</text>
</a>
</g>
</g>
<!-- Node438&#45;&gt;Node435 -->
<g id="edge18" class="edge"><title>Node438&#45;&gt;Node435</title>
<path fill="none" stroke="midnightblue" d="M127.087,-303.285C109.763,-297.73 88.7737,-290.999 71.9767,-285.613"/>
<polygon fill="midnightblue" stroke="midnightblue" points="126.213,-306.681 136.805,-306.401 128.351,-300.015 126.213,-306.681"/>
</g>
<!-- Node434&#45;&gt;Node438 -->
<g id="edge22" class="edge"><title>Node434&#45;&gt;Node438</title>
<path fill="none" stroke="midnightblue" d="M249.715,-285.43C230.115,-291.85 204.491,-300.244 186.097,-306.27"/>
<polygon fill="midnightblue" stroke="midnightblue" points="250.931,-288.714 259.345,-282.275 248.752,-282.062 250.931,-288.714"/>
</g>
<!-- Node434&#45;&gt;Node435 -->
<g id="edge21" class="edge"><title>Node434&#45;&gt;Node435</title>
<path fill="none" stroke="midnightblue" d="M249.006,-276C204.592,-276 120.836,-276 74.6418,-276"/>
<polygon fill="midnightblue" stroke="midnightblue" points="249.146,-279.5 259.146,-276 249.146,-272.5 249.146,-279.5"/>
</g>
<!-- Node128 -->
<g id="node17" class="node"><title>Node128</title>
<g id="a_node17"><a xlink:href="lua_8h.html#a603a5975f5a19c1824e6af53c1326b5c" target="_top" xlink:title=" ">
<polygon fill="white" stroke="black" points="243.5,-722.5 243.5,-741.5 315.5,-741.5 315.5,-722.5 243.5,-722.5"/>
<text text-anchor="middle" x="279.5" y="-729.5" font-family="Helvetica,sans-Serif" font-size="10.00">lua_compare</text>
</a>
</g>
</g>
<!-- Node650&#45;&gt;Node128 -->
<g id="edge24" class="edge"><title>Node650&#45;&gt;Node128</title>
<path fill="none" stroke="midnightblue" d="M375.306,-670.436C360.263,-682.907 338.513,-700.055 318,-713 312.692,-716.35 306.718,-719.593 301.125,-722.424"/>
<polygon fill="midnightblue" stroke="midnightblue" points="377.92,-672.811 383.328,-663.701 373.419,-667.45 377.92,-672.811"/>
</g>
<!-- Node129 -->
<g id="node18" class="node"><title>Node129</title>
<g id="a_node18"><a xlink:href="lmathlib_8c.html#a03e3b76e515f5535122c2026a9e8f445" target="_top" xlink:title=" ">
<polygon fill="white" stroke="black" points="130.5,-665.5 130.5,-684.5 192.5,-684.5 192.5,-665.5 130.5,-665.5"/>
<text text-anchor="middle" x="161.5" y="-672.5" font-family="Helvetica,sans-Serif" font-size="10.00">math_max</text>
</a>
</g>
</g>
<!-- Node128&#45;&gt;Node129 -->
<g id="edge25" class="edge"><title>Node128&#45;&gt;Node129</title>
<path fill="none" stroke="midnightblue" d="M250.217,-717.733C247.103,-716.144 243.982,-714.542 241,-713 224.93,-704.689 221.267,-701.918 205,-694 198.46,-690.816 191.265,-687.523 184.685,-684.59"/>
<polygon fill="midnightblue" stroke="midnightblue" points="248.891,-720.985 259.391,-722.395 252.062,-714.745 248.891,-720.985"/>
</g>
<!-- Node130 -->
<g id="node19" class="node"><title>Node130</title>
<g id="a_node19"><a xlink:href="lmathlib_8c.html#ab0a14d784b5fe2f30062e88a635db320" target="_top" xlink:title=" ">
<polygon fill="white" stroke="black" points="132,-627.5 132,-646.5 191,-646.5 191,-627.5 132,-627.5"/>
<text text-anchor="middle" x="161.5" y="-634.5" font-family="Helvetica,sans-Serif" font-size="10.00">math_min</text>
</a>
</g>
</g>
<!-- Node128&#45;&gt;Node130 -->
<g id="edge26" class="edge"><title>Node128&#45;&gt;Node130</title>
<path fill="none" stroke="midnightblue" d="M245.799,-716.872C244.112,-715.654 242.498,-714.363 241,-713 218.837,-692.836 227.646,-675.62 205,-656 200.724,-652.295 195.609,-649.196 190.433,-646.648"/>
<polygon fill="midnightblue" stroke="midnightblue" points="244.302,-720.062 254.646,-722.356 247.991,-714.112 244.302,-720.062"/>
</g>
<!-- Node131 -->
<g id="node20" class="node"><title>Node131</title>
<g id="a_node20"><a xlink:href="ltablib_8c.html#ae92f4625e74d1876b2ca2a4ced74c807" target="_top" xlink:title=" ">
<polygon fill="white" stroke="red" points="130.5,-741.5 130.5,-760.5 192.5,-760.5 192.5,-741.5 130.5,-741.5"/>
<text text-anchor="middle" x="161.5" y="-748.5" font-family="Helvetica,sans-Serif" font-size="10.00">sort_comp</text>
</a>
</g>
</g>
<!-- Node128&#45;&gt;Node131 -->
<g id="edge27" class="edge"><title>Node128&#45;&gt;Node131</title>
<path fill="none" stroke="midnightblue" d="M233.252,-739.411C219.687,-741.633 205.144,-744.015 192.792,-746.038"/>
<polygon fill="midnightblue" stroke="midnightblue" points="234.079,-742.823 243.381,-737.752 232.947,-735.915 234.079,-742.823"/>
</g>
<!-- Node123 -->
<g id="node21" class="node"><title>Node123</title>
<g id="a_node21"><a xlink:href="ltablib_8c.html#a2206b11cc9a180fbc33aabb81308fd74" target="_top" xlink:title=" ">
<polygon fill="white" stroke="black" points="140.5,-703.5 140.5,-722.5 182.5,-722.5 182.5,-703.5 140.5,-703.5"/>
<text text-anchor="middle" x="161.5" y="-710.5" font-family="Helvetica,sans-Serif" font-size="10.00">tmove</text>
</a>
</g>
</g>
<!-- Node128&#45;&gt;Node123 -->
<g id="edge28" class="edge"><title>Node128&#45;&gt;Node123</title>
<path fill="none" stroke="midnightblue" d="M233.308,-724.598C215.789,-721.728 196.63,-718.59 182.663,-716.303"/>
<polygon fill="midnightblue" stroke="midnightblue" points="232.947,-728.085 243.381,-726.248 234.079,-721.177 232.947,-728.085"/>
</g>
<!-- Node651&#45;&gt;Node4 -->
<g id="edge30" class="edge"><title>Node651&#45;&gt;Node4</title>
<path fill="none" stroke="midnightblue" d="M478.692,-506.272C476.687,-504.953 474.773,-503.531 473,-502 433.682,-468.046 408.617,-408.712 399.923,-385.6"/>
<polygon fill="midnightblue" stroke="midnightblue" points="477.461,-509.593 487.9,-511.408 480.871,-503.48 477.461,-509.593"/>
</g>
<!-- Node652 -->
<g id="node23" class="node"><title>Node652</title>
<g id="a_node23"><a xlink:href="lvm_8h.html#a1245a563d674251ea03c7abbd1a2ca8c" target="_top" xlink:title=" ">
<polygon fill="white" stroke="black" points="356.5,-598.5 356.5,-617.5 434.5,-617.5 434.5,-598.5 356.5,-598.5"/>
<text text-anchor="middle" x="395.5" y="-605.5" font-family="Helvetica,sans-Serif" font-size="10.00">luaV_lessthan</text>
</a>
</g>
</g>
<!-- Node651&#45;&gt;Node652 -->
<g id="edge31" class="edge"><title>Node651&#45;&gt;Node652</title>
<path fill="none" stroke="midnightblue" d="M481.843,-535.006C478.786,-536.566 475.797,-538.235 473,-540 445.953,-557.074 419.12,-583.756 405.572,-598.093"/>
<polygon fill="midnightblue" stroke="midnightblue" points="483.534,-538.079 491.1,-530.662 480.56,-531.742 483.534,-538.079"/>
</g>
<!-- Node652&#45;&gt;Node128 -->
<g id="edge32" class="edge"><title>Node652&#45;&gt;Node128</title>
<path fill="none" stroke="midnightblue" d="M366.993,-623.308C362.276,-626.739 357.708,-630.665 354,-635 329.182,-664.015 344.5,-685.513 318,-713 314.454,-716.678 310.044,-719.765 305.506,-722.31"/>
<polygon fill="midnightblue" stroke="midnightblue" points="369.083,-626.122 375.491,-617.684 365.22,-620.284 369.083,-626.122"/>
</g>
<!-- Node459&#45;&gt;Node4 -->
<g id="edge50" class="edge"><title>Node459&#45;&gt;Node4</title>
<path fill="none" stroke="midnightblue" d="M738.852,-454.73C676.561,-448.404 565.108,-434.346 473,-408 452.93,-402.259 431.053,-392.756 415.855,-385.593"/>
<polygon fill="midnightblue" stroke="midnightblue" points="738.86,-458.248 749.157,-455.752 739.551,-451.282 738.86,-458.248"/>
</g>
<!-- Node460 -->
<g id="node26" class="node"><title>Node460</title>
<g id="a_node26"><a xlink:href="lobject_8h.html#afb09097c7bc4723a274863f6a811edf5" target="_top" xlink:title=" ">
<polygon fill="white" stroke="black" points="622.5,-473.5 622.5,-492.5 683.5,-492.5 683.5,-473.5 622.5,-473.5"/>
<text text-anchor="middle" x="653" y="-480.5" font-family="Helvetica,sans-Serif" font-size="10.00">luaO_arith</text>
</a>
</g>
</g>
<!-- Node459&#45;&gt;Node460 -->
<g id="edge35" class="edge"><title>Node459&#45;&gt;Node460</title>
<path fill="none" stroke="midnightblue" d="M739.226,-467.621C720.732,-470.958 700.135,-474.675 683.822,-477.619"/>
<polygon fill="midnightblue" stroke="midnightblue" points="740.024,-471.034 749.243,-465.813 738.781,-464.145 740.024,-471.034"/>
</g>
<!-- Node462 -->
<g id="node37" class="node"><title>Node462</title>
<g id="a_node37"><a xlink:href="ltm_8h.html#af6ca076ae3f6c830e06852712950d0f7" target="_top" xlink:title=" ">
<polygon fill="white" stroke="black" points="601,-397.5 601,-416.5 705,-416.5 705,-397.5 601,-397.5"/>
<text text-anchor="middle" x="653" y="-404.5" font-family="Helvetica,sans-Serif" font-size="10.00">luaT_trybinassocTM</text>
</a>
</g>
</g>
<!-- Node459&#45;&gt;Node462 -->
<g id="edge46" class="edge"><title>Node459&#45;&gt;Node462</title>
<path fill="none" stroke="midnightblue" d="M753.135,-445.76C729.918,-436.682 699.645,-424.846 678.69,-416.653"/>
<polygon fill="midnightblue" stroke="midnightblue" points="752.018,-449.081 762.606,-449.462 754.567,-442.561 752.018,-449.081"/>
</g>
<!-- Node461 -->
<g id="node27" class="node"><title>Node461</title>
<g id="a_node27"><a xlink:href="lua_8h.html#ab0a8e0d4a119fa51c2785e25d5b5aa08" target="_top" xlink:title=" ">
<polygon fill="white" stroke="black" points="492.5,-473.5 492.5,-492.5 545.5,-492.5 545.5,-473.5 492.5,-473.5"/>
<text text-anchor="middle" x="519" y="-480.5" font-family="Helvetica,sans-Serif" font-size="10.00">lua_arith</text>
</a>
</g>
</g>
<!-- Node460&#45;&gt;Node461 -->
<g id="edge36" class="edge"><title>Node460&#45;&gt;Node461</title>
<path fill="none" stroke="midnightblue" d="M612.166,-483C590.53,-483 564.418,-483 545.519,-483"/>
<polygon fill="midnightblue" stroke="midnightblue" points="612.377,-486.5 622.377,-483 612.377,-479.5 612.377,-486.5"/>
</g>
<!-- Node273 -->
<g id="node28" class="node"><title>Node273</title>
<g id="a_node28"><a xlink:href="lstrlib_8c.html#afa2c944dafe82820f6f04dff68703634" target="_top" xlink:title=" ">
<polygon fill="white" stroke="black" points="378,-532.5 378,-551.5 413,-551.5 413,-532.5 378,-532.5"/>
<text text-anchor="middle" x="395.5" y="-539.5" font-family="Helvetica,sans-Serif" font-size="10.00">arith</text>
</a>
</g>
</g>
<!-- Node461&#45;&gt;Node273 -->
<g id="edge37" class="edge"><title>Node461&#45;&gt;Node273</title>
<path fill="none" stroke="midnightblue" d="M484.808,-496.649C480.808,-498.401 476.797,-500.21 473,-502 451.989,-511.908 428.377,-524.482 413.015,-532.861"/>
<polygon fill="midnightblue" stroke="midnightblue" points="486.208,-499.856 494.017,-492.696 483.447,-493.424 486.208,-499.856"/>
</g>
<!-- Node274 -->
<g id="node29" class="node"><title>Node274</title>
<g id="a_node29"><a xlink:href="lstrlib_8c.html#a83cdf2094cab994d34c18858a990e555" target="_top" xlink:title=" ">
<polygon fill="white" stroke="black" points="251.5,-418.5 251.5,-437.5 307.5,-437.5 307.5,-418.5 251.5,-418.5"/>
<text text-anchor="middle" x="279.5" y="-425.5" font-family="Helvetica,sans-Serif" font-size="10.00">arith_add</text>
</a>
</g>
</g>
<!-- Node273&#45;&gt;Node274 -->
<g id="edge38" class="edge"><title>Node273&#45;&gt;Node274</title>
<path fill="none" stroke="midnightblue" d="M383.243,-523.745C369.766,-503.054 345.538,-469.31 318,-447 313.577,-443.416 308.368,-440.253 303.262,-437.586"/>
<polygon fill="midnightblue" stroke="midnightblue" points="380.33,-525.688 388.651,-532.246 386.236,-521.93 380.33,-525.688"/>
</g>
<!-- Node275 -->
<g id="node30" class="node"><title>Node275</title>
<g id="a_node30"><a xlink:href="lstrlib_8c.html#afd1d2f5e7f8c83185c68d20fc5dc8600" target="_top" xlink:title=" ">
<polygon fill="white" stroke="black" points="253.5,-684.5 253.5,-703.5 305.5,-703.5 305.5,-684.5 253.5,-684.5"/>
<text text-anchor="middle" x="279.5" y="-691.5" font-family="Helvetica,sans-Serif" font-size="10.00">arith_div</text>
</a>
</g>
</g>
<!-- Node273&#45;&gt;Node275 -->
<g id="edge39" class="edge"><title>Node273&#45;&gt;Node275</title>
<path fill="none" stroke="midnightblue" d="M377.449,-559.107C369.612,-567.598 360.612,-578.309 354,-589 332.206,-624.242 346.218,-644.657 318,-675 314.521,-678.741 310.141,-681.857 305.612,-684.41"/>
<polygon fill="midnightblue" stroke="midnightblue" points="380.124,-561.373 384.49,-551.719 375.057,-556.543 380.124,-561.373"/>
</g>
<!-- Node276 -->
<g id="node31" class="node"><title>Node276</title>
<g id="a_node31"><a xlink:href="lstrlib_8c.html#a86a1afce81f747da4c0cf708065acd92" target="_top" xlink:title=" ">
<polygon fill="white" stroke="black" points="252.5,-646.5 252.5,-665.5 306.5,-665.5 306.5,-646.5 252.5,-646.5"/>
<text text-anchor="middle" x="279.5" y="-653.5" font-family="Helvetica,sans-Serif" font-size="10.00">arith_idiv</text>
</a>
</g>
</g>
<!-- Node273&#45;&gt;Node276 -->
<g id="edge40" class="edge"><title>Node273&#45;&gt;Node276</title>
<path fill="none" stroke="midnightblue" d="M379.162,-559.231C371.465,-568.02 362.083,-578.95 354,-589 337.287,-609.779 338.428,-619.859 318,-637 313.751,-640.565 308.72,-643.688 303.745,-646.317"/>
<polygon fill="midnightblue" stroke="midnightblue" points="381.938,-561.374 385.928,-551.559 376.688,-556.744 381.938,-561.374"/>
</g>
<!-- Node277 -->
<g id="node32" class="node"><title>Node277</title>
<g id="a_node32"><a xlink:href="lstrlib_8c.html#a2a1f4d692fc02d6586bc12a07924f488" target="_top" xlink:title=" ">
<polygon fill="white" stroke="black" points="250,-608.5 250,-627.5 309,-627.5 309,-608.5 250,-608.5"/>
<text text-anchor="middle" x="279.5" y="-615.5" font-family="Helvetica,sans-Serif" font-size="10.00">arith_mod</text>
</a>
</g>
</g>
<!-- Node273&#45;&gt;Node277 -->
<g id="edge41" class="edge"><title>Node273&#45;&gt;Node277</title>
<path fill="none" stroke="midnightblue" d="M374.958,-558.026C359.879,-570.024 338.244,-586.458 318,-599 312.664,-602.306 306.682,-605.534 301.089,-608.365"/>
<polygon fill="midnightblue" stroke="midnightblue" points="377.423,-560.535 383.018,-551.538 373.033,-555.082 377.423,-560.535"/>
</g>
<!-- Node278 -->
<g id="node33" class="node"><title>Node278</title>
<g id="a_node33"><a xlink:href="lstrlib_8c.html#a9162078e35bac5d03f26e9473a0ebf37" target="_top" xlink:title=" ">
<polygon fill="white" stroke="black" points="251.5,-570.5 251.5,-589.5 307.5,-589.5 307.5,-570.5 251.5,-570.5"/>
<text text-anchor="middle" x="279.5" y="-577.5" font-family="Helvetica,sans-Serif" font-size="10.00">arith_mul</text>
</a>
</g>
</g>
<!-- Node273&#45;&gt;Node278 -->
<g id="edge42" class="edge"><title>Node273&#45;&gt;Node278</title>
<path fill="none" stroke="midnightblue" d="M368.011,-550.83C349.856,-556.881 325.844,-564.885 307.566,-570.978"/>
<polygon fill="midnightblue" stroke="midnightblue" points="369.299,-554.09 377.679,-547.607 367.085,-547.449 369.299,-554.09"/>
</g>
<!-- Node279 -->
<g id="node34" class="node"><title>Node279</title>
<g id="a_node34"><a xlink:href="lstrlib_8c.html#ad8c2b27458937cc9a19a949872938fc6" target="_top" xlink:title=" ">
<polygon fill="white" stroke="black" points="250.5,-532.5 250.5,-551.5 308.5,-551.5 308.5,-532.5 250.5,-532.5"/>
<text text-anchor="middle" x="279.5" y="-539.5" font-family="Helvetica,sans-Serif" font-size="10.00">arith_pow</text>
</a>
</g>
</g>
<!-- Node273&#45;&gt;Node279 -->
<g id="edge43" class="edge"><title>Node273&#45;&gt;Node279</title>
<path fill="none" stroke="midnightblue" d="M367.474,-542C349.822,-542 326.81,-542 308.89,-542"/>
<polygon fill="midnightblue" stroke="midnightblue" points="367.679,-545.5 377.679,-542 367.679,-538.5 367.679,-545.5"/>
</g>
<!-- Node280 -->
<g id="node35" class="node"><title>Node280</title>
<g id="a_node35"><a xlink:href="lstrlib_8c.html#a2c0d2a7efd64b03bb81a22f2dd974fc3" target="_top" xlink:title=" ">
<polygon fill="white" stroke="black" points="251.5,-494.5 251.5,-513.5 307.5,-513.5 307.5,-494.5 251.5,-494.5"/>
<text text-anchor="middle" x="279.5" y="-501.5" font-family="Helvetica,sans-Serif" font-size="10.00">arith_sub</text>
</a>
</g>
</g>
<!-- Node273&#45;&gt;Node280 -->
<g id="edge44" class="edge"><title>Node273&#45;&gt;Node280</title>
<path fill="none" stroke="midnightblue" d="M368.011,-533.17C349.856,-527.119 325.844,-519.115 307.566,-513.022"/>
<polygon fill="midnightblue" stroke="midnightblue" points="367.085,-536.551 377.679,-536.393 369.299,-529.91 367.085,-536.551"/>
</g>
<!-- Node281 -->
<g id="node36" class="node"><title>Node281</title>
<g id="a_node36"><a xlink:href="lstrlib_8c.html#ac78f63c6c1908d139ffadb3f28d14c21" target="_top" xlink:title=" ">
<polygon fill="white" stroke="black" points="250,-456.5 250,-475.5 309,-475.5 309,-456.5 250,-456.5"/>
<text text-anchor="middle" x="279.5" y="-463.5" font-family="Helvetica,sans-Serif" font-size="10.00">arith_unm</text>
</a>
</g>
</g>
<!-- Node273&#45;&gt;Node281 -->
<g id="edge45" class="edge"><title>Node273&#45;&gt;Node281</title>
<path fill="none" stroke="midnightblue" d="M374.958,-525.974C359.879,-513.976 338.244,-497.542 318,-485 312.664,-481.694 306.682,-478.466 301.089,-475.635"/>
<polygon fill="midnightblue" stroke="midnightblue" points="373.033,-528.918 383.018,-532.462 377.423,-523.465 373.033,-528.918"/>
</g>
<!-- Node462&#45;&gt;Node4 -->
<g id="edge49" class="edge"><title>Node462&#45;&gt;Node4</title>
<path fill="none" stroke="midnightblue" d="M591.026,-401.288C556.37,-397.852 512.199,-393.152 473,-388 460.204,-386.318 446.247,-384.21 433.8,-382.232"/>
<polygon fill="midnightblue" stroke="midnightblue" points="590.702,-404.773 600.997,-402.268 591.387,-397.807 590.702,-404.773"/>
</g>
<!-- Node463 -->
<g id="node38" class="node"><title>Node463</title>
<g id="a_node38"><a xlink:href="ltm_8h.html#a8cf869ab5c4e507b6c72df4bf30d1438" target="_top" xlink:title=" ">
<polygon fill="white" stroke="black" points="479,-359.5 479,-378.5 559,-378.5 559,-359.5 479,-359.5"/>
<text text-anchor="middle" x="519" y="-366.5" font-family="Helvetica,sans-Serif" font-size="10.00">luaT_trybiniTM</text>
</a>
</g>
</g>
<!-- Node462&#45;&gt;Node463 -->
<g id="edge47" class="edge"><title>Node462&#45;&gt;Node463</title>
<path fill="none" stroke="midnightblue" d="M608.959,-394.609C590.882,-389.406 570.181,-383.446 553.299,-378.586"/>
<polygon fill="midnightblue" stroke="midnightblue" points="608.113,-398.008 618.691,-397.411 610.049,-391.281 608.113,-398.008"/>
</g>
<!-- Node463&#45;&gt;Node4 -->
<g id="edge48" class="edge"><title>Node463&#45;&gt;Node4</title>
<path fill="none" stroke="midnightblue" d="M468.837,-371.832C457.176,-372.504 444.922,-373.21 433.883,-373.846"/>
<polygon fill="midnightblue" stroke="midnightblue" points="469.106,-375.323 478.888,-371.253 468.703,-368.334 469.106,-375.323"/>
</g>
<!-- Node432 -->
<g id="node40" class="node"><title>Node432</title>
<g id="a_node40"><a xlink:href="lvm_8h.html#aee84bfc563cb4bdd21a013218a289aa7" target="_top" xlink:title=" ">
<polygon fill="white" stroke="black" points="483.5,-266.5 483.5,-285.5 554.5,-285.5 554.5,-266.5 483.5,-266.5"/>
<text text-anchor="middle" x="519" y="-273.5" font-family="Helvetica,sans-Serif" font-size="10.00">luaV_concat</text>
</a>
</g>
</g>
<!-- Node431&#45;&gt;Node432 -->
<g id="edge52" class="edge"><title>Node431&#45;&gt;Node432</title>
<path fill="none" stroke="midnightblue" d="M751.331,-360.908C696.89,-340.926 594.326,-303.281 546.193,-285.614"/>
<polygon fill="midnightblue" stroke="midnightblue" points="750.319,-364.265 760.913,-364.425 752.731,-357.694 750.319,-364.265"/>
</g>
<!-- Node432&#45;&gt;Node4 -->
<g id="edge59" class="edge"><title>Node432&#45;&gt;Node4</title>
<path fill="none" stroke="midnightblue" d="M498.471,-292.073C472.994,-313.042 429.21,-349.078 408.293,-366.294"/>
<polygon fill="midnightblue" stroke="midnightblue" points="500.853,-294.646 506.35,-285.588 496.405,-289.241 500.853,-294.646"/>
</g>
<!-- Node307 -->
<g id="node41" class="node"><title>Node307</title>
<g id="a_node41"><a xlink:href="lua_8h.html#a4eba0457df5bafff4d44071d1d8080b6" target="_top" xlink:title=" ">
<polygon fill="white" stroke="black" points="363.5,-95.5 363.5,-114.5 427.5,-114.5 427.5,-95.5 363.5,-95.5"/>
<text text-anchor="middle" x="395.5" y="-102.5" font-family="Helvetica,sans-Serif" font-size="10.00">lua_concat</text>
</a>
</g>
</g>
<!-- Node432&#45;&gt;Node307 -->
<g id="edge53" class="edge"><title>Node432&#45;&gt;Node307</title>
<path fill="none" stroke="midnightblue" d="M505.022,-257.734C479.341,-221.591 422.841,-142.073 403.305,-114.577"/>
<polygon fill="midnightblue" stroke="midnightblue" points="502.474,-260.192 511.12,-266.316 508.181,-256.137 502.474,-260.192"/>
</g>
<!-- Node433 -->
<g id="node47" class="node"><title>Node433</title>
<g id="a_node47"><a xlink:href="lvm_8h.html#a5db3e64b3cc2f63c3b10b27f7ecd1d03" target="_top" xlink:title=" ">
<polygon fill="white" stroke="black" points="357,-266.5 357,-285.5 434,-285.5 434,-266.5 357,-266.5"/>
<text text-anchor="middle" x="395.5" y="-273.5" font-family="Helvetica,sans-Serif" font-size="10.00">luaV_finishOp</text>
</a>
</g>
</g>
<!-- Node432&#45;&gt;Node433 -->
<g id="edge60" class="edge"><title>Node432&#45;&gt;Node433</title>
<path fill="none" stroke="midnightblue" d="M472.817,-276C460.142,-276 446.497,-276 434.299,-276"/>
<polygon fill="midnightblue" stroke="midnightblue" points="473.183,-279.5 483.183,-276 473.183,-272.5 473.183,-279.5"/>
</g>
<!-- Node439 -->
<g id="node48" class="node"><title>Node439</title>
<g id="a_node48"><a xlink:href="lobject_8c.html#a90720e7e38c0e352e9b97d3f8def9e1a" target="_top" xlink:title=" ">
<polygon fill="white" stroke="black" points="371,-228.5 371,-247.5 420,-247.5 420,-228.5 371,-228.5"/>
<text text-anchor="middle" x="395.5" y="-235.5" font-family="Helvetica,sans-Serif" font-size="10.00">pushstr</text>
</a>
</g>
</g>
<!-- Node432&#45;&gt;Node439 -->
<g id="edge62" class="edge"><title>Node432&#45;&gt;Node439</title>
<path fill="none" stroke="midnightblue" d="M477.704,-263.397C458.658,-257.44 436.576,-250.534 420.251,-245.428"/>
<polygon fill="midnightblue" stroke="midnightblue" points="476.752,-266.766 487.34,-266.411 478.841,-260.086 476.752,-266.766"/>
</g>
<!-- Node308 -->
<g id="node42" class="node"><title>Node308</title>
<g id="a_node42"><a xlink:href="lauxlib_8c.html#a36c8f149b779f8c9a5c042ea9784d80a" target="_top" xlink:title=" ">
<polygon fill="white" stroke="red" points="255,-76.5 255,-95.5 304,-95.5 304,-76.5 255,-76.5"/>
<text text-anchor="middle" x="279.5" y="-83.5" font-family="Helvetica,sans-Serif" font-size="10.00">findfield</text>
</a>
</g>
</g>
<!-- Node307&#45;&gt;Node308 -->
<g id="edge54" class="edge"><title>Node307&#45;&gt;Node308</title>
<path fill="none" stroke="midnightblue" d="M353.333,-98.1388C336.753,-95.3756 318.233,-92.2888 304.017,-89.9195"/>
<polygon fill="midnightblue" stroke="midnightblue" points="352.91,-101.616 363.349,-99.8082 354.06,-94.7117 352.91,-101.616"/>
</g>
<!-- Node264 -->
<g id="node43" class="node"><title>Node264</title>
<g id="a_node43"><a xlink:href="lcorolib_8c.html#a777abb20385a69ce4787f72bd90375a7" target="_top" xlink:title=" ">
<polygon fill="white" stroke="red" points="241,-38.5 241,-57.5 318,-57.5 318,-38.5 241,-38.5"/>
<text text-anchor="middle" x="279.5" y="-45.5" font-family="Helvetica,sans-Serif" font-size="10.00">luaB_auxwrap</text>
</a>
</g>
</g>
<!-- Node307&#45;&gt;Node264 -->
<g id="edge55" class="edge"><title>Node307&#45;&gt;Node264</title>
<path fill="none" stroke="midnightblue" d="M366.426,-90.9628C345.656,-80.5778 317.914,-66.7069 299.643,-57.5716"/>
<polygon fill="midnightblue" stroke="midnightblue" points="364.909,-94.1178 375.419,-95.4595 368.04,-87.8568 364.909,-94.1178"/>
</g>
<!-- Node178 -->
<g id="node44" class="node"><title>Node178</title>
<g id="a_node44"><a xlink:href="lbaselib_8c.html#a2ecfa987569d0b4c1063f3e204e42dd2" target="_top" xlink:title=" ">
<polygon fill="white" stroke="red" points="249,-0.5 249,-19.5 310,-19.5 310,-0.5 249,-0.5"/>
<text text-anchor="middle" x="279.5" y="-7.5" font-family="Helvetica,sans-Serif" font-size="10.00">luaB_error</text>
</a>
</g>
</g>
<!-- Node307&#45;&gt;Node178 -->
<g id="edge56" class="edge"><title>Node307&#45;&gt;Node178</title>
<path fill="none" stroke="midnightblue" d="M379.63,-87.3158C365.108,-70.7975 341.779,-46.1761 318,-29 313.149,-25.4957 307.558,-22.287 302.199,-19.544"/>
<polygon fill="midnightblue" stroke="midnightblue" points="377.193,-89.8494 386.377,-95.1329 382.492,-85.2757 377.193,-89.8494"/>
</g>
<!-- Node309 -->
<g id="node45" class="node"><title>Node309</title>
<g id="a_node45"><a xlink:href="lauxlib_8h.html#a994f73d7985c30672469a260d9e86ae6" target="_top" xlink:title=" ">
<polygon fill="white" stroke="red" points="250,-152.5 250,-171.5 309,-171.5 309,-152.5 250,-152.5"/>
<text text-anchor="middle" x="279.5" y="-159.5" font-family="Helvetica,sans-Serif" font-size="10.00">luaL_error</text>
</a>
</g>
</g>
<!-- Node307&#45;&gt;Node309 -->
<g id="edge57" class="edge"><title>Node307&#45;&gt;Node309</title>
<path fill="none" stroke="midnightblue" d="M366.426,-119.037C345.656,-129.422 317.914,-143.293 299.643,-152.428"/>
<polygon fill="midnightblue" stroke="midnightblue" points="368.04,-122.143 375.419,-114.541 364.909,-115.882 368.04,-122.143"/>
</g>
<!-- Node245 -->
<g id="node46" class="node"><title>Node245</title>
<g id="a_node46"><a xlink:href="lua_8c.html#affef5a04b31963c2c3f5028518777e12" target="_top" xlink:title=" ">
<polygon fill="white" stroke="red" points="253,-114.5 253,-133.5 306,-133.5 306,-114.5 253,-114.5"/>
<text text-anchor="middle" x="279.5" y="-121.5" font-family="Helvetica,sans-Serif" font-size="10.00">multiline</text>
</a>
</g>
</g>
<!-- Node307&#45;&gt;Node245 -->
<g id="edge58" class="edge"><title>Node307&#45;&gt;Node245</title>
<path fill="none" stroke="midnightblue" d="M353.319,-111.863C337.589,-114.485 320.114,-117.398 306.226,-119.712"/>
<polygon fill="midnightblue" stroke="midnightblue" points="354.06,-115.288 363.349,-110.192 352.91,-108.384 354.06,-115.288"/>
</g>
<!-- Node433&#45;&gt;Node434 -->
<g id="edge61" class="edge"><title>Node433&#45;&gt;Node434</title>
<path fill="none" stroke="midnightblue" d="M346.715,-276C330.122,-276 312.46,-276 299.553,-276"/>
<polygon fill="midnightblue" stroke="midnightblue" points="346.856,-279.5 356.856,-276 346.856,-272.5 346.856,-279.5"/>
</g>
<!-- Node440 -->
<g id="node49" class="node"><title>Node440</title>
<g id="a_node49"><a xlink:href="lobject_8c.html#a874ab64f433ee35f2197a81e10452cb1" target="_top" xlink:title=" ">
<polygon fill="white" stroke="red" points="129.5,-209.5 129.5,-228.5 193.5,-228.5 193.5,-209.5 129.5,-209.5"/>
<text text-anchor="middle" x="161.5" y="-216.5" font-family="Helvetica,sans-Serif" font-size="10.00">addstr2buff</text>
</a>
</g>
</g>
<!-- Node439&#45;&gt;Node440 -->
<g id="edge63" class="edge"><title>Node439&#45;&gt;Node440</title>
<path fill="none" stroke="midnightblue" d="M360.891,-235.248C316.087,-231.578 237.387,-225.133 193.789,-221.563"/>
<polygon fill="midnightblue" stroke="midnightblue" points="360.726,-238.746 370.978,-236.074 361.297,-231.769 360.726,-238.746"/>
</g>
<!-- Node611 -->
<g id="node50" class="node"><title>Node611</title>
<g id="a_node50"><a xlink:href="lobject_8c.html#a6ec2716e64cd75e3e6614a87ee92e4d2" target="_top" xlink:title=" ">
<polygon fill="white" stroke="red" points="253,-190.5 253,-209.5 306,-209.5 306,-190.5 253,-190.5"/>
<text text-anchor="middle" x="279.5" y="-197.5" font-family="Helvetica,sans-Serif" font-size="10.00">clearbuff</text>
</a>
</g>
</g>
<!-- Node439&#45;&gt;Node611 -->
<g id="edge64" class="edge"><title>Node439&#45;&gt;Node611</title>
<path fill="none" stroke="midnightblue" d="M361.024,-226.841C343.467,-220.989 322.298,-213.933 306.073,-208.524"/>
<polygon fill="midnightblue" stroke="midnightblue" points="360.285,-230.284 370.879,-230.126 362.499,-223.644 360.285,-230.284"/>
</g>
<!-- Node611&#45;&gt;Node440 -->
<g id="edge65" class="edge"><title>Node611&#45;&gt;Node440</title>
<path fill="none" stroke="midnightblue" d="M242.834,-205.842C227.074,-208.423 208.718,-211.43 193.533,-213.917"/>
<polygon fill="midnightblue" stroke="midnightblue" points="243.453,-209.287 252.756,-204.217 242.322,-202.379 243.453,-209.287"/>
</g>
</g>
</svg>
