<?xml version="1.0" encoding="UTF-8" standalone="no"?>
<!DOCTYPE svg PUBLIC "-//W3C//DTD SVG 1.1//EN"
 "http://www.w3.org/Graphics/SVG/1.1/DTD/svg11.dtd">
<!-- Generated by graphviz version 2.38.0 (20140413.2041)
 -->
<!-- Title: luaT_callorderTM Pages: 1 -->
<svg width="1599pt" height="827pt"
 viewBox="0.00 0.00 1599.00 827.02" xmlns="http://www.w3.org/2000/svg" xmlns:xlink="http://www.w3.org/1999/xlink">
<g id="graph0" class="graph" transform="scale(1 1) rotate(0) translate(4 823.015)">
<title>luaT_callorderTM</title>
<polygon fill="white" stroke="none" points="-4,4 -4,-823.015 1595,-823.015 1595,4 -4,4"/>
<!-- Node1 -->
<g id="node1" class="node"><title>Node1</title>
<g id="a_node1"><a xlink:title=" ">
<polygon fill="#bfbfbf" stroke="black" points="1501,-66.5 1501,-85.5 1591,-85.5 1591,-66.5 1501,-66.5"/>
<text text-anchor="middle" x="1546" y="-73.5" font-family="Helvetica,sans-Serif" font-size="10.00">luaT_callorderTM</text>
</a>
</g>
</g>
<!-- Node2 -->
<g id="node2" class="node"><title>Node2</title>
<g id="a_node2"><a xlink:href="lvm_8c.html#aa12d860dd59154d1952911589fd72fb2" target="_top" xlink:title=" ">
<polygon fill="white" stroke="black" points="1380,-66.5 1380,-85.5 1465,-85.5 1465,-66.5 1380,-66.5"/>
<text text-anchor="middle" x="1422.5" y="-73.5" font-family="Helvetica,sans-Serif" font-size="10.00">lessequalothers</text>
</a>
</g>
</g>
<!-- Node1&#45;&gt;Node2 -->
<g id="edge1" class="edge"><title>Node1&#45;&gt;Node2</title>
<path fill="none" stroke="midnightblue" d="M1490.78,-76C1482.14,-76 1473.33,-76 1465.05,-76"/>
<polygon fill="midnightblue" stroke="midnightblue" points="1490.79,-79.5001 1500.79,-76 1490.79,-72.5001 1490.79,-79.5001"/>
</g>
<!-- Node128 -->
<g id="node20" class="node"><title>Node128</title>
<g id="a_node20"><a xlink:href="lvm_8c.html#a13f124eec78027029d2e8fd9b83ee614" target="_top" xlink:title=" ">
<polygon fill="white" stroke="black" points="567,-109.5 567,-128.5 647,-128.5 647,-109.5 567,-109.5"/>
<text text-anchor="middle" x="607" y="-116.5" font-family="Helvetica,sans-Serif" font-size="10.00">lessthanothers</text>
</a>
</g>
</g>
<!-- Node1&#45;&gt;Node128 -->
<g id="edge74" class="edge"><title>Node1&#45;&gt;Node128</title>
<path fill="none" stroke="midnightblue" d="M1497.76,-87.9029C1449.33,-99.0488 1371.65,-114 1303.5,-114 1303.5,-114 1303.5,-114 860.5,-114 785.086,-114 697.027,-116.257 647.358,-117.738"/>
<polygon fill="midnightblue" stroke="midnightblue" points="1498.7,-91.2776 1507.64,-85.589 1497.1,-84.4621 1498.7,-91.2776"/>
</g>
<!-- Node134 -->
<g id="node29" class="node"><title>Node134</title>
<g id="a_node29"><a xlink:href="ltm_8h.html#a16f52862d54db7359c09dcec396f066a" target="_top" xlink:title=" ">
<polygon fill="white" stroke="black" points="561,-47.5 561,-66.5 653,-66.5 653,-47.5 561,-47.5"/>
<text text-anchor="middle" x="607" y="-54.5" font-family="Helvetica,sans-Serif" font-size="10.00">luaT_callorderiTM</text>
</a>
</g>
</g>
<!-- Node1&#45;&gt;Node134 -->
<g id="edge75" class="edge"><title>Node1&#45;&gt;Node134</title>
<path fill="none" stroke="midnightblue" d="M1518.35,-61.7078C1474.73,-39.693 1384.82,-0 1303.5,-0 1303.5,-0 1303.5,-0 1104.5,-0 937.262,-1.42109e-014 740.394,-32.3135 653.322,-48.2809"/>
<polygon fill="midnightblue" stroke="midnightblue" points="1516.93,-64.915 1527.42,-66.3745 1520.13,-58.6895 1516.93,-64.915"/>
</g>
<!-- Node3 -->
<g id="node3" class="node"><title>Node3</title>
<g id="a_node3"><a xlink:href="lvm_8h.html#ac430e93ed874f6ab2449d7a16aa6b62f" target="_top" xlink:title=" ">
<polygon fill="white" stroke="black" points="1264.5,-450.5 1264.5,-469.5 1340.5,-469.5 1340.5,-450.5 1264.5,-450.5"/>
<text text-anchor="middle" x="1302.5" y="-457.5" font-family="Helvetica,sans-Serif" font-size="10.00">luaV_execute</text>
</a>
</g>
</g>
<!-- Node2&#45;&gt;Node3 -->
<g id="edge2" class="edge"><title>Node2&#45;&gt;Node3</title>
<path fill="none" stroke="midnightblue" d="M1415.48,-95.5875C1394.08,-165.215 1322.15,-399.308 1306.52,-450.187"/>
<polygon fill="midnightblue" stroke="midnightblue" points="1418.87,-96.465 1418.46,-85.8781 1412.18,-94.4088 1418.87,-96.465"/>
</g>
<!-- Node654 -->
<g id="node50" class="node"><title>Node654</title>
<g id="a_node50"><a xlink:href="lvm_8h.html#aa151c39c80af19e2ea6d309e7993973c" target="_top" xlink:title=" ">
<polygon fill="white" stroke="black" points="1261,-28.5 1261,-47.5 1344,-47.5 1344,-28.5 1261,-28.5"/>
<text text-anchor="middle" x="1302.5" y="-35.5" font-family="Helvetica,sans-Serif" font-size="10.00">luaV_lessequal</text>
</a>
</g>
</g>
<!-- Node2&#45;&gt;Node654 -->
<g id="edge72" class="edge"><title>Node2&#45;&gt;Node654</title>
<path fill="none" stroke="midnightblue" d="M1382.12,-63.3196C1366.18,-58.1852 1348.08,-52.3559 1333.27,-47.5859"/>
<polygon fill="midnightblue" stroke="midnightblue" points="1381.13,-66.6771 1391.72,-66.411 1383.28,-60.0141 1381.13,-66.6771"/>
</g>
<!-- Node4 -->
<g id="node4" class="node"><title>Node4</title>
<g id="a_node4"><a xlink:href="ldo_8c.html#aa7d32ccef16c2d4fe63604c4c457831d" target="_top" xlink:title=" ">
<polygon fill="white" stroke="black" points="1186.5,-470.5 1186.5,-489.5 1223.5,-489.5 1223.5,-470.5 1186.5,-470.5"/>
<text text-anchor="middle" x="1205" y="-477.5" font-family="Helvetica,sans-Serif" font-size="10.00">ccall</text>
</a>
</g>
</g>
<!-- Node3&#45;&gt;Node4 -->
<g id="edge3" class="edge"><title>Node3&#45;&gt;Node4</title>
<path fill="none" stroke="midnightblue" d="M1254.29,-469.887C1243.3,-472.188 1232.28,-474.497 1223.54,-476.327"/>
<polygon fill="midnightblue" stroke="midnightblue" points="1255.23,-473.265 1264.3,-467.79 1253.8,-466.414 1255.23,-473.265"/>
</g>
<!-- Node305 -->
<g id="node45" class="node"><title>Node305</title>
<g id="a_node45"><a xlink:href="ldo_8c.html#abd7632c715de5db6e7797b7fa3f7010f" target="_top" xlink:title=" ">
<polygon fill="white" stroke="black" points="1081,-712.5 1081,-731.5 1130,-731.5 1130,-712.5 1081,-712.5"/>
<text text-anchor="middle" x="1105.5" y="-719.5" font-family="Helvetica,sans-Serif" font-size="10.00">resume</text>
</a>
</g>
</g>
<!-- Node3&#45;&gt;Node305 -->
<g id="edge68" class="edge"><title>Node3&#45;&gt;Node305</title>
<path fill="none" stroke="midnightblue" d="M1301.44,-479.573C1300.19,-525.281 1290.31,-639.579 1225,-698 1198.87,-721.372 1156.41,-724.464 1130.04,-723.789"/>
<polygon fill="midnightblue" stroke="midnightblue" points="1304.94,-479.562 1301.61,-469.506 1297.95,-479.448 1304.94,-479.562"/>
</g>
<!-- Node301 -->
<g id="node49" class="node"><title>Node301</title>
<g id="a_node49"><a xlink:href="ldo_8c.html#a3baab9d298c0c32cb74a9a079d7244de" target="_top" xlink:title=" ">
<polygon fill="white" stroke="black" points="1185,-750.5 1185,-769.5 1225,-769.5 1225,-750.5 1185,-750.5"/>
<text text-anchor="middle" x="1205" y="-757.5" font-family="Helvetica,sans-Serif" font-size="10.00">unroll</text>
</a>
</g>
</g>
<!-- Node3&#45;&gt;Node301 -->
<g id="edge69" class="edge"><title>Node3&#45;&gt;Node301</title>
<path fill="none" stroke="midnightblue" d="M1298.83,-479.487C1291.89,-526 1270.56,-646.31 1225,-736 1222.4,-741.117 1218.61,-746.188 1215.1,-750.341"/>
<polygon fill="midnightblue" stroke="midnightblue" points="1302.3,-479.942 1300.26,-469.546 1295.37,-478.946 1302.3,-479.942"/>
</g>
<!-- Node5 -->
<g id="node5" class="node"><title>Node5</title>
<g id="a_node5"><a xlink:href="ldo_8h.html#a4797364de1dd297aac52f9c10565523f" target="_top" xlink:title=" ">
<polygon fill="white" stroke="black" points="1077.5,-410.5 1077.5,-429.5 1133.5,-429.5 1133.5,-410.5 1077.5,-410.5"/>
<text text-anchor="middle" x="1105.5" y="-417.5" font-family="Helvetica,sans-Serif" font-size="10.00">luaD_call</text>
</a>
</g>
</g>
<!-- Node4&#45;&gt;Node5 -->
<g id="edge4" class="edge"><title>Node4&#45;&gt;Node5</title>
<path fill="none" stroke="midnightblue" d="M1179.54,-464.947C1161.54,-453.871 1137.61,-439.142 1122.13,-429.616"/>
<polygon fill="midnightblue" stroke="midnightblue" points="1177.98,-468.1 1188.33,-470.36 1181.65,-462.138 1177.98,-468.1"/>
</g>
<!-- Node650 -->
<g id="node34" class="node"><title>Node650</title>
<g id="a_node34"><a xlink:href="ldo_8h.html#a5315637506edcbdd30e9271e75416ae1" target="_top" xlink:title=" ">
<polygon fill="white" stroke="black" points="1062,-475.5 1062,-494.5 1149,-494.5 1149,-475.5 1062,-475.5"/>
<text text-anchor="middle" x="1105.5" y="-482.5" font-family="Helvetica,sans-Serif" font-size="10.00">luaD_callnoyield</text>
</a>
</g>
</g>
<!-- Node4&#45;&gt;Node650 -->
<g id="edge44" class="edge"><title>Node4&#45;&gt;Node650</title>
<path fill="none" stroke="midnightblue" d="M1175.9,-481.441C1167.62,-481.866 1158.36,-482.34 1149.38,-482.801"/>
<polygon fill="midnightblue" stroke="midnightblue" points="1176.31,-484.925 1186.12,-480.917 1175.95,-477.934 1176.31,-484.925"/>
</g>
<!-- Node4&#45;&gt;Node305 -->
<g id="edge63" class="edge"><title>Node4&#45;&gt;Node305</title>
<path fill="none" stroke="midnightblue" d="M1196.26,-499.214C1176.54,-548.154 1124.96,-676.186 1110.39,-712.357"/>
<polygon fill="midnightblue" stroke="midnightblue" points="1199.57,-500.37 1200.06,-489.786 1193.07,-497.754 1199.57,-500.37"/>
</g>
<!-- Node5&#45;&gt;Node3 -->
<g id="edge43" class="edge"><title>Node5&#45;&gt;Node3</title>
<path fill="none" stroke="midnightblue" d="M1143.94,-427.681C1178.59,-434.788 1229.81,-445.295 1264.36,-452.382"/>
<polygon fill="midnightblue" stroke="midnightblue" points="1144.26,-424.173 1133.76,-425.592 1142.85,-431.03 1144.26,-424.173"/>
</g>
<!-- Node6 -->
<g id="node6" class="node"><title>Node6</title>
<g id="a_node6"><a xlink:href="lua_8h.html#aeebb647cb91c051b1955fac1207de386" target="_top" xlink:title=" ">
<polygon fill="white" stroke="black" points="957.5,-408.5 957.5,-427.5 1012.5,-427.5 1012.5,-408.5 957.5,-408.5"/>
<text text-anchor="middle" x="985" y="-415.5" font-family="Helvetica,sans-Serif" font-size="10.00">lua_callk</text>
</a>
</g>
</g>
<!-- Node5&#45;&gt;Node6 -->
<g id="edge5" class="edge"><title>Node5&#45;&gt;Node6</title>
<path fill="none" stroke="midnightblue" d="M1067.29,-419.372C1049.57,-419.073 1028.77,-418.722 1012.65,-418.45"/>
<polygon fill="midnightblue" stroke="midnightblue" points="1067.26,-422.872 1077.31,-419.541 1067.37,-415.873 1067.26,-422.872"/>
</g>
<!-- Node8 -->
<g id="node8" class="node"><title>Node8</title>
<g id="a_node8"><a xlink:href="lua_8h.html#ab03ab465d4ca870dc66e228b8dfd3f06" target="_top" xlink:title=" ">
<polygon fill="white" stroke="black" points="831.5,-370.5 831.5,-389.5 891.5,-389.5 891.5,-370.5 831.5,-370.5"/>
<text text-anchor="middle" x="861.5" y="-377.5" font-family="Helvetica,sans-Serif" font-size="10.00">lua_pcallk</text>
</a>
</g>
</g>
<!-- Node5&#45;&gt;Node8 -->
<g id="edge7" class="edge"><title>Node5&#45;&gt;Node8</title>
<path fill="none" stroke="midnightblue" d="M1067.47,-408.906C1054.46,-405.324 1039.67,-401.608 1026,-399 979.404,-390.109 924.49,-384.76 891.638,-382.097"/>
<polygon fill="midnightblue" stroke="midnightblue" points="1066.9,-412.382 1077.48,-411.727 1068.8,-405.645 1066.9,-412.382"/>
</g>
<!-- Node11 -->
<g id="node11" class="node"><title>Node11</title>
<g id="a_node11"><a xlink:href="ltm_8h.html#a4380eceaa582fe847011b265423c8fa4" target="_top" xlink:title=" ">
<polygon fill="white" stroke="black" points="951,-484.5 951,-503.5 1019,-503.5 1019,-484.5 951,-484.5"/>
<text text-anchor="middle" x="985" y="-491.5" font-family="Helvetica,sans-Serif" font-size="10.00">luaT_callTM</text>
</a>
</g>
</g>
<!-- Node5&#45;&gt;Node11 -->
<g id="edge10" class="edge"><title>Node5&#45;&gt;Node11</title>
<path fill="none" stroke="midnightblue" d="M1083.85,-435.906C1068.37,-447.464 1046.44,-463.1 1026,-475 1020.29,-478.327 1013.9,-481.563 1007.93,-484.393"/>
<polygon fill="midnightblue" stroke="midnightblue" points="1086.28,-438.452 1092.15,-429.631 1082.06,-432.867 1086.28,-438.452"/>
</g>
<!-- Node125 -->
<g id="node17" class="node"><title>Node125</title>
<g id="a_node17"><a xlink:href="ltm_8h.html#a672b3605311190ae7ed802d566daa1fa" target="_top" xlink:title=" ">
<polygon fill="white" stroke="black" points="944,-332.5 944,-351.5 1026,-351.5 1026,-332.5 944,-332.5"/>
<text text-anchor="middle" x="985" y="-339.5" font-family="Helvetica,sans-Serif" font-size="10.00">luaT_callTMres</text>
</a>
</g>
</g>
<!-- Node5&#45;&gt;Node125 -->
<g id="edge17" class="edge"><title>Node5&#45;&gt;Node125</title>
<path fill="none" stroke="midnightblue" d="M1082.62,-404.407C1067.01,-393.416 1045.42,-378.49 1026,-366 1018.37,-361.094 1009.76,-355.887 1002.49,-351.581"/>
<polygon fill="midnightblue" stroke="midnightblue" points="1080.87,-407.46 1091.06,-410.376 1084.91,-401.744 1080.87,-407.46"/>
</g>
<!-- Node7 -->
<g id="node7" class="node"><title>Node7</title>
<g id="a_node7"><a xlink:href="lbaselib_8c.html#a86a4e35d9c9ad4661a0dbbac3758c049" target="_top" xlink:title=" ">
<polygon fill="white" stroke="black" points="702,-446.5 702,-465.5 766,-465.5 766,-446.5 702,-446.5"/>
<text text-anchor="middle" x="734" y="-453.5" font-family="Helvetica,sans-Serif" font-size="10.00">luaB_dofile</text>
</a>
</g>
</g>
<!-- Node6&#45;&gt;Node7 -->
<g id="edge6" class="edge"><title>Node6&#45;&gt;Node7</title>
<path fill="none" stroke="midnightblue" d="M947.176,-423.62C898.098,-431.109 812.109,-444.232 766.111,-451.252"/>
<polygon fill="midnightblue" stroke="midnightblue" points="947.995,-427.035 957.353,-422.067 946.939,-420.115 947.995,-427.035"/>
</g>
<!-- Node9 -->
<g id="node9" class="node"><title>Node9</title>
<g id="a_node9"><a xlink:href="lbaselib_8c.html#a1fb2725eed679431d070b2e9e7abc223" target="_top" xlink:title=" ">
<polygon fill="white" stroke="black" points="703,-370.5 703,-389.5 765,-389.5 765,-370.5 703,-370.5"/>
<text text-anchor="middle" x="734" y="-377.5" font-family="Helvetica,sans-Serif" font-size="10.00">luaB_pcall</text>
</a>
</g>
</g>
<!-- Node8&#45;&gt;Node9 -->
<g id="edge8" class="edge"><title>Node8&#45;&gt;Node9</title>
<path fill="none" stroke="midnightblue" d="M821.168,-380C803.116,-380 782.046,-380 765.26,-380"/>
<polygon fill="midnightblue" stroke="midnightblue" points="821.392,-383.5 831.392,-380 821.392,-376.5 821.392,-383.5"/>
</g>
<!-- Node10 -->
<g id="node10" class="node"><title>Node10</title>
<g id="a_node10"><a xlink:href="lbaselib_8c.html#a5fbb0094fa1a56f0a4c2547f1ec4c5ab" target="_top" xlink:title=" ">
<polygon fill="white" stroke="black" points="700.5,-408.5 700.5,-427.5 767.5,-427.5 767.5,-408.5 700.5,-408.5"/>
<text text-anchor="middle" x="734" y="-415.5" font-family="Helvetica,sans-Serif" font-size="10.00">luaB_xpcall</text>
</a>
</g>
</g>
<!-- Node8&#45;&gt;Node10 -->
<g id="edge9" class="edge"><title>Node8&#45;&gt;Node10</title>
<path fill="none" stroke="midnightblue" d="M821.401,-391.839C803.77,-397.177 783.221,-403.399 766.588,-408.436"/>
<polygon fill="midnightblue" stroke="midnightblue" points="822.836,-395.061 831.392,-388.813 820.807,-388.362 822.836,-395.061"/>
</g>
<!-- Node12 -->
<g id="node12" class="node"><title>Node12</title>
<g id="a_node12"><a xlink:href="lvm_8h.html#ab932d6ab0da7d7c900e4fa020b08ea76" target="_top" xlink:title=" ">
<polygon fill="white" stroke="black" points="695.5,-484.5 695.5,-503.5 772.5,-503.5 772.5,-484.5 695.5,-484.5"/>
<text text-anchor="middle" x="734" y="-491.5" font-family="Helvetica,sans-Serif" font-size="10.00">luaV_finishset</text>
</a>
</g>
</g>
<!-- Node11&#45;&gt;Node12 -->
<g id="edge11" class="edge"><title>Node11&#45;&gt;Node12</title>
<path fill="none" stroke="midnightblue" d="M943.573,-481.945C932.175,-479.08 919.693,-476.439 908,-475 866.976,-469.95 856.053,-470.192 815,-475 799.12,-476.86 781.823,-480.729 767.388,-484.493"/>
<polygon fill="midnightblue" stroke="midnightblue" points="942.701,-485.334 953.263,-484.495 944.483,-478.565 942.701,-485.334"/>
</g>
<!-- Node12&#45;&gt;Node3 -->
<g id="edge16" class="edge"><title>Node12&#45;&gt;Node3</title>
<path fill="none" stroke="midnightblue" d="M743.706,-512.762C764.261,-557.041 814.155,-664.393 815,-665 876.403,-709.076 908.416,-684 984,-684 1106.5,-684 1106.5,-684 1106.5,-684 1221.99,-684 1284.67,-512.5 1298.53,-469.625"/>
<polygon fill="midnightblue" stroke="midnightblue" points="746.858,-511.24 739.473,-503.643 740.509,-514.187 746.858,-511.24"/>
</g>
<!-- Node13 -->
<g id="node13" class="node"><title>Node13</title>
<g id="a_node13"><a xlink:href="lapi_8c.html#a0667fbf88666853554967226d9a3df4d" target="_top" xlink:title=" ">
<polygon fill="white" stroke="red" points="578.5,-465.5 578.5,-484.5 635.5,-484.5 635.5,-465.5 578.5,-465.5"/>
<text text-anchor="middle" x="607" y="-472.5" font-family="Helvetica,sans-Serif" font-size="10.00">auxsetstr</text>
</a>
</g>
</g>
<!-- Node12&#45;&gt;Node13 -->
<g id="edge12" class="edge"><title>Node12&#45;&gt;Node13</title>
<path fill="none" stroke="midnightblue" d="M685.269,-486.745C668.454,-484.189 650.127,-481.403 635.543,-479.187"/>
<polygon fill="midnightblue" stroke="midnightblue" points="685.083,-490.257 695.496,-488.299 686.135,-483.336 685.083,-490.257"/>
</g>
<!-- Node116 -->
<g id="node14" class="node"><title>Node116</title>
<g id="a_node14"><a xlink:href="lua_8h.html#a12ba17fc94b8cf0122aa367170688453" target="_top" xlink:title=" ">
<polygon fill="white" stroke="red" points="461,-332.5 461,-351.5 511,-351.5 511,-332.5 461,-332.5"/>
<text text-anchor="middle" x="486" y="-339.5" font-family="Helvetica,sans-Serif" font-size="10.00">lua_seti</text>
</a>
</g>
</g>
<!-- Node12&#45;&gt;Node116 -->
<g id="edge13" class="edge"><title>Node12&#45;&gt;Node116</title>
<path fill="none" stroke="midnightblue" d="M690.764,-505.748C653.682,-513.487 599.763,-518.241 561,-494 508.742,-461.32 492.424,-379.973 488.247,-351.794"/>
<polygon fill="midnightblue" stroke="midnightblue" points="691.758,-509.112 700.749,-503.508 690.226,-502.282 691.758,-509.112"/>
</g>
<!-- Node124 -->
<g id="node16" class="node"><title>Node124</title>
<g id="a_node16"><a xlink:href="lua_8h.html#aeda173d104e3a566ccaac89a1f64a5eb" target="_top" xlink:title=" ">
<polygon fill="white" stroke="black" points="572.5,-427.5 572.5,-446.5 641.5,-446.5 641.5,-427.5 572.5,-427.5"/>
<text text-anchor="middle" x="607" y="-434.5" font-family="Helvetica,sans-Serif" font-size="10.00">lua_settable</text>
</a>
</g>
</g>
<!-- Node12&#45;&gt;Node124 -->
<g id="edge15" class="edge"><title>Node12&#45;&gt;Node124</title>
<path fill="none" stroke="midnightblue" d="M700.817,-480.448C696.816,-478.662 692.799,-476.819 689,-475 672.683,-467.186 669.349,-463.748 653,-456 646.256,-452.804 638.832,-449.56 631.991,-446.679"/>
<polygon fill="midnightblue" stroke="midnightblue" points="699.446,-483.669 710.011,-484.474 702.254,-477.257 699.446,-483.669"/>
</g>
<!-- Node122 -->
<g id="node15" class="node"><title>Node122</title>
<g id="a_node15"><a xlink:href="ltablib_8c.html#a2206b11cc9a180fbc33aabb81308fd74" target="_top" xlink:title=" ">
<polygon fill="white" stroke="black" points="251,-289.5 251,-308.5 293,-308.5 293,-289.5 251,-289.5"/>
<text text-anchor="middle" x="272" y="-296.5" font-family="Helvetica,sans-Serif" font-size="10.00">tmove</text>
</a>
</g>
</g>
<!-- Node116&#45;&gt;Node122 -->
<g id="edge14" class="edge"><title>Node116&#45;&gt;Node122</title>
<path fill="none" stroke="midnightblue" d="M450.88,-335.079C406.293,-326.036 329.627,-310.486 293.267,-303.111"/>
<polygon fill="midnightblue" stroke="midnightblue" points="450.185,-338.51 460.681,-337.067 451.576,-331.649 450.185,-338.51"/>
</g>
<!-- Node126 -->
<g id="node18" class="node"><title>Node126</title>
<g id="a_node18"><a xlink:href="ltm_8c.html#a68751e8f9bf0714d8c761a5b6ce4daf9" target="_top" xlink:title=" ">
<polygon fill="white" stroke="red" points="832.5,-180.5 832.5,-199.5 890.5,-199.5 890.5,-180.5 832.5,-180.5"/>
<text text-anchor="middle" x="861.5" y="-187.5" font-family="Helvetica,sans-Serif" font-size="10.00">callbinTM</text>
</a>
</g>
</g>
<!-- Node125&#45;&gt;Node126 -->
<g id="edge18" class="edge"><title>Node125&#45;&gt;Node126</title>
<path fill="none" stroke="midnightblue" d="M969.921,-324.387C944.111,-292.097 890.039,-224.452 870.097,-199.505"/>
<polygon fill="midnightblue" stroke="midnightblue" points="967.422,-326.866 976.4,-332.492 972.89,-322.495 967.422,-326.866"/>
</g>
<!-- Node649 -->
<g id="node31" class="node"><title>Node649</title>
<g id="a_node31"><a xlink:href="lvm_8h.html#a2f779d315adf5ac6a26c88409b58eeec" target="_top" xlink:title=" ">
<polygon fill="white" stroke="black" points="823,-750.5 823,-769.5 900,-769.5 900,-750.5 823,-750.5"/>
<text text-anchor="middle" x="861.5" y="-757.5" font-family="Helvetica,sans-Serif" font-size="10.00">luaV_equalobj</text>
</a>
</g>
</g>
<!-- Node125&#45;&gt;Node649 -->
<g id="edge36" class="edge"><title>Node125&#45;&gt;Node649</title>
<path fill="none" stroke="midnightblue" d="M968.355,-359.283C959.648,-369.946 949.488,-384.35 944,-399 917.194,-470.564 953.641,-679.706 908,-741 905.137,-744.845 901.349,-747.917 897.178,-750.37"/>
<polygon fill="midnightblue" stroke="midnightblue" points="971.082,-361.479 974.91,-351.6 965.757,-356.936 971.082,-361.479"/>
</g>
<!-- Node399 -->
<g id="node32" class="node"><title>Node399</title>
<g id="a_node32"><a xlink:href="lvm_8h.html#a282d1037898c9b77aae41b12327a6c72" target="_top" xlink:title=" ">
<polygon fill="white" stroke="red" points="695.5,-332.5 695.5,-351.5 772.5,-351.5 772.5,-332.5 695.5,-332.5"/>
<text text-anchor="middle" x="734" y="-339.5" font-family="Helvetica,sans-Serif" font-size="10.00">luaV_finishget</text>
</a>
</g>
</g>
<!-- Node125&#45;&gt;Node399 -->
<g id="edge39" class="edge"><title>Node125&#45;&gt;Node399</title>
<path fill="none" stroke="midnightblue" d="M933.914,-342C886.355,-342 815.911,-342 772.866,-342"/>
<polygon fill="midnightblue" stroke="midnightblue" points="933.994,-345.5 943.994,-342 933.994,-338.5 933.994,-345.5"/>
</g>
<!-- Node409 -->
<g id="node33" class="node"><title>Node409</title>
<g id="a_node33"><a xlink:href="lvm_8h.html#a414b4b487239935324f2f16e1e7715db" target="_top" xlink:title=" ">
<polygon fill="white" stroke="red" points="828,-294.5 828,-313.5 895,-313.5 895,-294.5 828,-294.5"/>
<text text-anchor="middle" x="861.5" y="-301.5" font-family="Helvetica,sans-Serif" font-size="10.00">luaV_objlen</text>
</a>
</g>
</g>
<!-- Node125&#45;&gt;Node409 -->
<g id="edge41" class="edge"><title>Node125&#45;&gt;Node409</title>
<path fill="none" stroke="midnightblue" d="M943.456,-329.32C927.039,-324.185 908.401,-318.356 893.15,-313.586"/>
<polygon fill="midnightblue" stroke="midnightblue" points="942.752,-332.766 953.34,-332.411 944.841,-326.086 942.752,-332.766"/>
</g>
<!-- Node127 -->
<g id="node19" class="node"><title>Node127</title>
<g id="a_node19"><a xlink:href="ltm_8h.html#a42fa775919957ebfb826d96c80e65f92" target="_top" xlink:title=" ">
<polygon fill="white" stroke="black" points="689,-66.5 689,-85.5 779,-85.5 779,-66.5 689,-66.5"/>
<text text-anchor="middle" x="734" y="-73.5" font-family="Helvetica,sans-Serif" font-size="10.00">luaT_callorderTM</text>
</a>
</g>
</g>
<!-- Node126&#45;&gt;Node127 -->
<g id="edge19" class="edge"><title>Node126&#45;&gt;Node127</title>
<path fill="none" stroke="midnightblue" d="M842.315,-173.481C815.743,-149.344 767.138,-105.193 745.673,-85.695"/>
<polygon fill="midnightblue" stroke="midnightblue" points="840.045,-176.147 849.8,-180.28 844.751,-170.966 840.045,-176.147"/>
</g>
<!-- Node135 -->
<g id="node30" class="node"><title>Node135</title>
<g id="a_node30"><a xlink:href="ltm_8h.html#a52f9c211746126a08117801bd7e2d826" target="_top" xlink:title=" ">
<polygon fill="white" stroke="red" points="695.5,-199.5 695.5,-218.5 772.5,-218.5 772.5,-199.5 695.5,-199.5"/>
<text text-anchor="middle" x="734" y="-206.5" font-family="Helvetica,sans-Serif" font-size="10.00">luaT_trybinTM</text>
</a>
</g>
</g>
<!-- Node126&#45;&gt;Node135 -->
<g id="edge34" class="edge"><title>Node126&#45;&gt;Node135</title>
<path fill="none" stroke="midnightblue" d="M822.369,-195.773C806.582,-198.163 788.323,-200.927 772.593,-203.309"/>
<polygon fill="midnightblue" stroke="midnightblue" points="822.972,-199.222 832.335,-194.264 821.924,-192.3 822.972,-199.222"/>
</g>
<!-- Node127&#45;&gt;Node2 -->
<g id="edge20" class="edge"><title>Node127&#45;&gt;Node2</title>
<path fill="none" stroke="midnightblue" d="M789.109,-76C839.548,-76 916.865,-76 984,-76 1206,-76 1206,-76 1206,-76 1266.42,-76 1336.37,-76 1379.78,-76"/>
<polygon fill="midnightblue" stroke="midnightblue" points="789.079,-72.5001 779.079,-76 789.079,-79.5001 789.079,-72.5001"/>
</g>
<!-- Node127&#45;&gt;Node128 -->
<g id="edge21" class="edge"><title>Node127&#45;&gt;Node128</title>
<path fill="none" stroke="midnightblue" d="M695.589,-88.8693C676.342,-95.4904 653.288,-103.421 635.664,-109.484"/>
<polygon fill="midnightblue" stroke="midnightblue" points="696.941,-92.1057 705.258,-85.5431 694.664,-85.4864 696.941,-92.1057"/>
</g>
<!-- Node127&#45;&gt;Node134 -->
<g id="edge33" class="edge"><title>Node127&#45;&gt;Node134</title>
<path fill="none" stroke="midnightblue" d="M679.025,-67.7958C670.469,-66.4952 661.695,-65.1617 653.363,-63.8951"/>
<polygon fill="midnightblue" stroke="midnightblue" points="678.517,-71.2587 688.93,-69.3013 679.569,-64.3382 678.517,-71.2587"/>
</g>
<!-- Node128&#45;&gt;Node3 -->
<g id="edge22" class="edge"><title>Node128&#45;&gt;Node3</title>
<path fill="none" stroke="midnightblue" d="M657.184,-129.276C707.89,-138.962 789.361,-152 860.5,-152 1106.5,-152 1106.5,-152 1106.5,-152 1251.43,-152 1293.11,-398.457 1300.29,-450.444"/>
<polygon fill="midnightblue" stroke="midnightblue" points="657.64,-125.799 647.155,-127.327 656.304,-132.671 657.64,-125.799"/>
</g>
<!-- Node129 -->
<g id="node21" class="node"><title>Node129</title>
<g id="a_node21"><a xlink:href="lvm_8h.html#a1245a563d674251ea03c7abbd1a2ca8c" target="_top" xlink:title=" ">
<polygon fill="white" stroke="black" points="447,-185.5 447,-204.5 525,-204.5 525,-185.5 447,-185.5"/>
<text text-anchor="middle" x="486" y="-192.5" font-family="Helvetica,sans-Serif" font-size="10.00">luaV_lessthan</text>
</a>
</g>
</g>
<!-- Node128&#45;&gt;Node129 -->
<g id="edge23" class="edge"><title>Node128&#45;&gt;Node129</title>
<path fill="none" stroke="midnightblue" d="M582.424,-134.057C558.497,-149.338 522.182,-172.531 501.949,-185.453"/>
<polygon fill="midnightblue" stroke="midnightblue" points="584.385,-136.958 590.929,-128.625 580.617,-131.058 584.385,-136.958"/>
</g>
<!-- Node130 -->
<g id="node22" class="node"><title>Node130</title>
<g id="a_node22"><a xlink:href="lua_8h.html#a603a5975f5a19c1824e6af53c1326b5c" target="_top" xlink:title=" ">
<polygon fill="white" stroke="black" points="339,-194.5 339,-213.5 411,-213.5 411,-194.5 339,-194.5"/>
<text text-anchor="middle" x="375" y="-201.5" font-family="Helvetica,sans-Serif" font-size="10.00">lua_compare</text>
</a>
</g>
</g>
<!-- Node129&#45;&gt;Node130 -->
<g id="edge24" class="edge"><title>Node129&#45;&gt;Node130</title>
<path fill="none" stroke="midnightblue" d="M436.654,-198.992C428.145,-199.694 419.432,-200.414 411.361,-201.08"/>
<polygon fill="midnightblue" stroke="midnightblue" points="437.199,-202.459 446.877,-198.148 436.623,-195.483 437.199,-202.459"/>
</g>
<!-- Node130&#45;&gt;Node122 -->
<g id="edge32" class="edge"><title>Node130&#45;&gt;Node122</title>
<path fill="none" stroke="midnightblue" d="M356.172,-220.769C334.978,-240.704 300.332,-273.292 283.221,-289.386"/>
<polygon fill="midnightblue" stroke="midnightblue" points="358.685,-223.21 363.572,-213.809 353.889,-218.111 358.685,-223.21"/>
</g>
<!-- Node131 -->
<g id="node23" class="node"><title>Node131</title>
<g id="a_node23"><a xlink:href="lmathlib_8c.html#a03e3b76e515f5535122c2026a9e8f445" target="_top" xlink:title=" ">
<polygon fill="white" stroke="black" points="241,-156.5 241,-175.5 303,-175.5 303,-156.5 241,-156.5"/>
<text text-anchor="middle" x="272" y="-163.5" font-family="Helvetica,sans-Serif" font-size="10.00">math_max</text>
</a>
</g>
</g>
<!-- Node130&#45;&gt;Node131 -->
<g id="edge25" class="edge"><title>Node130&#45;&gt;Node131</title>
<path fill="none" stroke="midnightblue" d="M339.134,-190.882C325.775,-185.856 310.798,-180.221 298.478,-175.586"/>
<polygon fill="midnightblue" stroke="midnightblue" points="337.921,-194.165 348.513,-194.411 340.386,-187.614 337.921,-194.165"/>
</g>
<!-- Node132 -->
<g id="node24" class="node"><title>Node132</title>
<g id="a_node24"><a xlink:href="lmathlib_8c.html#ab0a14d784b5fe2f30062e88a635db320" target="_top" xlink:title=" ">
<polygon fill="white" stroke="black" points="242.5,-232.5 242.5,-251.5 301.5,-251.5 301.5,-232.5 242.5,-232.5"/>
<text text-anchor="middle" x="272" y="-239.5" font-family="Helvetica,sans-Serif" font-size="10.00">math_min</text>
</a>
</g>
</g>
<!-- Node130&#45;&gt;Node132 -->
<g id="edge26" class="edge"><title>Node130&#45;&gt;Node132</title>
<path fill="none" stroke="midnightblue" d="M339.134,-217.118C325.775,-222.144 310.798,-227.779 298.478,-232.414"/>
<polygon fill="midnightblue" stroke="midnightblue" points="340.386,-220.386 348.513,-213.589 337.921,-213.835 340.386,-220.386"/>
</g>
<!-- Node133 -->
<g id="node25" class="node"><title>Node133</title>
<g id="a_node25"><a xlink:href="ltablib_8c.html#ae92f4625e74d1876b2ca2a4ced74c807" target="_top" xlink:title=" ">
<polygon fill="white" stroke="black" points="241,-194.5 241,-213.5 303,-213.5 303,-194.5 241,-194.5"/>
<text text-anchor="middle" x="272" y="-201.5" font-family="Helvetica,sans-Serif" font-size="10.00">sort_comp</text>
</a>
</g>
</g>
<!-- Node130&#45;&gt;Node133 -->
<g id="edge27" class="edge"><title>Node130&#45;&gt;Node133</title>
<path fill="none" stroke="midnightblue" d="M328.927,-204C320.244,-204 311.345,-204 303.271,-204"/>
<polygon fill="midnightblue" stroke="midnightblue" points="328.959,-207.5 338.959,-204 328.959,-200.5 328.959,-207.5"/>
</g>
<!-- Node118 -->
<g id="node26" class="node"><title>Node118</title>
<g id="a_node26"><a xlink:href="ltablib_8c.html#a151c51c8905acb3db7d6f1e58265b709" target="_top" xlink:title=" ">
<polygon fill="white" stroke="black" points="69,-194.5 69,-213.5 118,-213.5 118,-194.5 69,-194.5"/>
<text text-anchor="middle" x="93.5" y="-201.5" font-family="Helvetica,sans-Serif" font-size="10.00">auxsort</text>
</a>
</g>
</g>
<!-- Node133&#45;&gt;Node118 -->
<g id="edge28" class="edge"><title>Node133&#45;&gt;Node118</title>
<path fill="none" stroke="midnightblue" d="M230.375,-204C195.666,-204 146.924,-204 118.235,-204"/>
<polygon fill="midnightblue" stroke="midnightblue" points="230.659,-207.5 240.659,-204 230.659,-200.5 230.659,-207.5"/>
</g>
<!-- Node120 -->
<g id="node28" class="node"><title>Node120</title>
<g id="a_node28"><a xlink:href="ltablib_8c.html#a1d53059f696e353656cd98be725ffbd2" target="_top" xlink:title=" ">
<polygon fill="white" stroke="black" points="154,-175.5 154,-194.5 205,-194.5 205,-175.5 154,-175.5"/>
<text text-anchor="middle" x="179.5" y="-182.5" font-family="Helvetica,sans-Serif" font-size="10.00">partition</text>
</a>
</g>
</g>
<!-- Node133&#45;&gt;Node120 -->
<g id="edge30" class="edge"><title>Node133&#45;&gt;Node120</title>
<path fill="none" stroke="midnightblue" d="M231.069,-195.617C222.223,-193.76 213.103,-191.845 205.086,-190.162"/>
<polygon fill="midnightblue" stroke="midnightblue" points="230.359,-199.044 240.865,-197.673 231.797,-192.193 230.359,-199.044"/>
</g>
<!-- Node119 -->
<g id="node27" class="node"><title>Node119</title>
<g id="a_node27"><a xlink:href="ltablib_8c.html#ae7d3f892e2605bf102dce63de388e626" target="_top" xlink:title=" ">
<polygon fill="white" stroke="black" points="0,-194.5 0,-213.5 33,-213.5 33,-194.5 0,-194.5"/>
<text text-anchor="middle" x="16.5" y="-201.5" font-family="Helvetica,sans-Serif" font-size="10.00">sort</text>
</a>
</g>
</g>
<!-- Node118&#45;&gt;Node119 -->
<g id="edge29" class="edge"><title>Node118&#45;&gt;Node119</title>
<path fill="none" stroke="midnightblue" d="M58.5521,-204C49.6386,-204 40.455,-204 33.04,-204"/>
<polygon fill="midnightblue" stroke="midnightblue" points="58.7696,-207.5 68.7695,-204 58.7695,-200.5 58.7696,-207.5"/>
</g>
<!-- Node120&#45;&gt;Node118 -->
<g id="edge31" class="edge"><title>Node120&#45;&gt;Node118</title>
<path fill="none" stroke="midnightblue" d="M143.897,-192.827C135.256,-194.781 126.184,-196.833 118.206,-198.638"/>
<polygon fill="midnightblue" stroke="midnightblue" points="144.77,-196.218 153.752,-190.598 143.226,-189.39 144.77,-196.218"/>
</g>
<!-- Node135&#45;&gt;Node3 -->
<g id="edge35" class="edge"><title>Node135&#45;&gt;Node3</title>
<path fill="none" stroke="midnightblue" d="M783.106,-214.854C833.197,-220.437 913.977,-228 984,-228 1106.5,-228 1106.5,-228 1106.5,-228 1165.94,-228 1184.23,-246.745 1225,-290 1271.62,-339.46 1293.23,-422.17 1299.49,-450.297"/>
<polygon fill="midnightblue" stroke="midnightblue" points="783.229,-211.346 772.898,-213.697 782.44,-218.301 783.229,-211.346"/>
</g>
<!-- Node649&#45;&gt;Node3 -->
<g id="edge38" class="edge"><title>Node649&#45;&gt;Node3</title>
<path fill="none" stroke="midnightblue" d="M892.583,-773.468C960.188,-801.461 1125.95,-857.105 1225,-779 1275.76,-738.975 1296.65,-519.112 1300.73,-469.812"/>
<polygon fill="midnightblue" stroke="midnightblue" points="893.914,-770.23 883.34,-769.557 891.186,-776.677 893.914,-770.23"/>
</g>
<!-- Node649&#45;&gt;Node130 -->
<g id="edge37" class="edge"><title>Node649&#45;&gt;Node130</title>
<path fill="none" stroke="midnightblue" d="M812.312,-765.343C775.796,-766.997 725.798,-763.919 689,-741 476.495,-608.647 392.092,-275.152 378.134,-213.784"/>
<polygon fill="midnightblue" stroke="midnightblue" points="812.93,-768.813 822.706,-764.729 812.517,-761.825 812.93,-768.813"/>
</g>
<!-- Node399&#45;&gt;Node3 -->
<g id="edge40" class="edge"><title>Node399&#45;&gt;Node3</title>
<path fill="none" stroke="midnightblue" d="M752.444,-325.528C767.691,-312.186 791.079,-294.155 815,-285 885.591,-257.984 908.416,-266 984,-266 1106.5,-266 1106.5,-266 1106.5,-266 1212.28,-266 1280.99,-411.234 1297.59,-450.38"/>
<polygon fill="midnightblue" stroke="midnightblue" points="749.939,-323.074 744.859,-332.372 754.628,-328.271 749.939,-323.074"/>
</g>
<!-- Node409&#45;&gt;Node3 -->
<g id="edge42" class="edge"><title>Node409&#45;&gt;Node3</title>
<path fill="none" stroke="midnightblue" d="M905.464,-304.958C938.919,-306.661 986.202,-311.185 1026,-323 1132,-354.468 1246.71,-424.62 1286.73,-450.322"/>
<polygon fill="midnightblue" stroke="midnightblue" points="905.26,-301.445 895.115,-304.498 904.95,-308.439 905.26,-301.445"/>
</g>
<!-- Node650&#45;&gt;Node6 -->
<g id="edge53" class="edge"><title>Node650&#45;&gt;Node6</title>
<path fill="none" stroke="midnightblue" d="M1080.89,-469.663C1065.5,-459.893 1044.85,-447.201 1026,-437 1020.05,-433.779 1013.46,-430.528 1007.38,-427.647"/>
<polygon fill="midnightblue" stroke="midnightblue" points="1079.42,-472.877 1089.73,-475.32 1083.19,-466.981 1079.42,-472.877"/>
</g>
<!-- Node650&#45;&gt;Node11 -->
<g id="edge61" class="edge"><title>Node650&#45;&gt;Node11</title>
<path fill="none" stroke="midnightblue" d="M1051.66,-489.013C1040.57,-489.856 1029.17,-490.721 1019.05,-491.49"/>
<polygon fill="midnightblue" stroke="midnightblue" points="1052.01,-492.497 1061.72,-488.249 1051.48,-485.517 1052.01,-492.497"/>
</g>
<!-- Node650&#45;&gt;Node125 -->
<g id="edge62" class="edge"><title>Node650&#45;&gt;Node125</title>
<path fill="none" stroke="midnightblue" d="M1088.06,-467.874C1080.03,-459.345 1070.33,-448.788 1062,-439 1035.51,-407.885 1006.24,-369.204 993.088,-351.567"/>
<polygon fill="midnightblue" stroke="midnightblue" points="1085.72,-470.495 1095.14,-475.339 1090.8,-465.676 1085.72,-470.495"/>
</g>
<!-- Node651 -->
<g id="node35" class="node"><title>Node651</title>
<g id="a_node35"><a xlink:href="lfunc_8c.html#ad6f77f3a49d8b6199525c7edac6fd0a6" target="_top" xlink:title=" ">
<polygon fill="white" stroke="black" points="957.5,-598.5 957.5,-617.5 1012.5,-617.5 1012.5,-598.5 957.5,-598.5"/>
<text text-anchor="middle" x="985" y="-605.5" font-family="Helvetica,sans-Serif" font-size="10.00">callclose</text>
</a>
</g>
</g>
<!-- Node650&#45;&gt;Node651 -->
<g id="edge45" class="edge"><title>Node650&#45;&gt;Node651</title>
<path fill="none" stroke="midnightblue" d="M1094.34,-503.46C1081.11,-526.098 1056.09,-564.475 1026,-589 1021.59,-592.594 1016.39,-595.698 1011.22,-598.295"/>
<polygon fill="midnightblue" stroke="midnightblue" points="1097.51,-504.962 1099.42,-494.54 1091.43,-501.5 1097.51,-504.962"/>
</g>
<!-- Node652 -->
<g id="node38" class="node"><title>Node652</title>
<g id="a_node38"><a xlink:href="lgc_8c.html#a929058f72c03750fa82374f6bfa639ee" target="_top" xlink:title=" ">
<polygon fill="white" stroke="black" points="957,-560.5 957,-579.5 1013,-579.5 1013,-560.5 957,-560.5"/>
<text text-anchor="middle" x="985" y="-567.5" font-family="Helvetica,sans-Serif" font-size="10.00">dothecall</text>
</a>
</g>
</g>
<!-- Node650&#45;&gt;Node652 -->
<g id="edge49" class="edge"><title>Node650&#45;&gt;Node652</title>
<path fill="none" stroke="midnightblue" d="M1086.88,-502.095C1071.61,-516.331 1048.5,-536.541 1026,-551 1020.7,-554.409 1014.69,-557.583 1008.97,-560.324"/>
<polygon fill="midnightblue" stroke="midnightblue" points="1089.65,-504.293 1094.5,-494.875 1084.84,-499.212 1089.65,-504.293"/>
</g>
<!-- Node653 -->
<g id="node40" class="node"><title>Node653</title>
<g id="a_node40"><a xlink:href="lapi_8c.html#ac3926c93fb08234f9f47e24653124910" target="_top" xlink:title=" ">
<polygon fill="white" stroke="black" points="965.5,-446.5 965.5,-465.5 1004.5,-465.5 1004.5,-446.5 965.5,-446.5"/>
<text text-anchor="middle" x="985" y="-453.5" font-family="Helvetica,sans-Serif" font-size="10.00">f_call</text>
</a>
</g>
</g>
<!-- Node650&#45;&gt;Node653 -->
<g id="edge51" class="edge"><title>Node650&#45;&gt;Node653</title>
<path fill="none" stroke="midnightblue" d="M1055.54,-473.018C1037.53,-468.61 1018.2,-463.881 1004.51,-460.529"/>
<polygon fill="midnightblue" stroke="midnightblue" points="1054.82,-476.446 1065.37,-475.424 1056.49,-469.647 1054.82,-476.446"/>
</g>
<!-- Node621 -->
<g id="node41" class="node"><title>Node621</title>
<g id="a_node41"><a xlink:href="ldebug_8h.html#acd5ef9f67a8e9d08f6540636fdbeafe6" target="_top" xlink:title=" ">
<polygon fill="white" stroke="black" points="945,-522.5 945,-541.5 1025,-541.5 1025,-522.5 945,-522.5"/>
<text text-anchor="middle" x="985" y="-529.5" font-family="Helvetica,sans-Serif" font-size="10.00">luaG_errormsg</text>
</a>
</g>
</g>
<!-- Node650&#45;&gt;Node621 -->
<g id="edge54" class="edge"><title>Node650&#45;&gt;Node621</title>
<path fill="none" stroke="midnightblue" d="M1071.17,-498.221C1051.83,-505.889 1027.91,-515.376 1010.35,-522.342"/>
<polygon fill="midnightblue" stroke="midnightblue" points="1072.51,-501.451 1080.52,-494.511 1069.93,-494.945 1072.51,-501.451"/>
</g>
<!-- Node535 -->
<g id="node36" class="node"><title>Node535</title>
<g id="a_node36"><a xlink:href="lfunc_8c.html#a4105c820bb9b1b4b4b3bd6613b0ccb05" target="_top" xlink:title=" ">
<polygon fill="white" stroke="red" points="826,-598.5 826,-617.5 897,-617.5 897,-598.5 826,-598.5"/>
<text text-anchor="middle" x="861.5" y="-605.5" font-family="Helvetica,sans-Serif" font-size="10.00">callclosemth</text>
</a>
</g>
</g>
<!-- Node651&#45;&gt;Node535 -->
<g id="edge46" class="edge"><title>Node651&#45;&gt;Node535</title>
<path fill="none" stroke="midnightblue" d="M946.904,-608C931.161,-608 912.908,-608 897.411,-608"/>
<polygon fill="midnightblue" stroke="midnightblue" points="947.336,-611.5 957.336,-608 947.336,-604.5 947.336,-611.5"/>
</g>
<!-- Node619 -->
<g id="node37" class="node"><title>Node619</title>
<g id="a_node37"><a xlink:href="lfunc_8h.html#a17478c6ccda97c8d77b4be5488c78c08" target="_top" xlink:title=" ">
<polygon fill="white" stroke="red" points="815,-636.5 815,-655.5 908,-655.5 908,-636.5 815,-636.5"/>
<text text-anchor="middle" x="861.5" y="-643.5" font-family="Helvetica,sans-Serif" font-size="10.00">luaF_newtbcupval</text>
</a>
</g>
</g>
<!-- Node651&#45;&gt;Node619 -->
<g id="edge47" class="edge"><title>Node651&#45;&gt;Node619</title>
<path fill="none" stroke="midnightblue" d="M947.508,-619.413C930.099,-624.858 909.509,-631.298 892.954,-636.475"/>
<polygon fill="midnightblue" stroke="midnightblue" points="948.837,-622.665 957.336,-616.339 946.747,-615.984 948.837,-622.665"/>
</g>
<!-- Node619&#45;&gt;Node3 -->
<g id="edge48" class="edge"><title>Node619&#45;&gt;Node3</title>
<path fill="none" stroke="midnightblue" d="M918.199,-645.403C950.44,-643.624 991.364,-638.876 1026,-627 1138.16,-588.541 1253.49,-499.253 1289.82,-469.696"/>
<polygon fill="midnightblue" stroke="midnightblue" points="917.88,-641.914 908.056,-645.882 918.21,-648.907 917.88,-641.914"/>
</g>
<!-- Node544 -->
<g id="node39" class="node"><title>Node544</title>
<g id="a_node39"><a xlink:href="lgc_8c.html#aaf7c6e9e6a93da6bb64ffe7654668ba3" target="_top" xlink:title=" ">
<polygon fill="white" stroke="red" points="839.5,-560.5 839.5,-579.5 883.5,-579.5 883.5,-560.5 839.5,-560.5"/>
<text text-anchor="middle" x="861.5" y="-567.5" font-family="Helvetica,sans-Serif" font-size="10.00">GCTM</text>
</a>
</g>
</g>
<!-- Node652&#45;&gt;Node544 -->
<g id="edge50" class="edge"><title>Node652&#45;&gt;Node544</title>
<path fill="none" stroke="midnightblue" d="M946.665,-570C925.964,-570 900.98,-570 883.635,-570"/>
<polygon fill="midnightblue" stroke="midnightblue" points="946.733,-573.5 956.733,-570 946.733,-566.5 946.733,-573.5"/>
</g>
<!-- Node653&#45;&gt;Node8 -->
<g id="edge52" class="edge"><title>Node653&#45;&gt;Node8</title>
<path fill="none" stroke="midnightblue" d="M956.013,-443.441C951.926,-441.396 947.813,-439.218 944,-437 918.329,-422.067 890.363,-401.469 874.774,-389.56"/>
<polygon fill="midnightblue" stroke="midnightblue" points="954.819,-446.751 965.349,-447.926 957.851,-440.441 954.819,-446.751"/>
</g>
<!-- Node622 -->
<g id="node42" class="node"><title>Node622</title>
<g id="a_node42"><a xlink:href="lua_8h.html#aae6c05ddea7bd110a3e84595ef92e601" target="_top" xlink:title=" ">
<polygon fill="white" stroke="red" points="834.5,-522.5 834.5,-541.5 888.5,-541.5 888.5,-522.5 834.5,-522.5"/>
<text text-anchor="middle" x="861.5" y="-529.5" font-family="Helvetica,sans-Serif" font-size="10.00">lua_error</text>
</a>
</g>
</g>
<!-- Node621&#45;&gt;Node622 -->
<g id="edge55" class="edge"><title>Node621&#45;&gt;Node622</title>
<path fill="none" stroke="midnightblue" d="M934.691,-532C918.867,-532 901.968,-532 888.502,-532"/>
<polygon fill="midnightblue" stroke="midnightblue" points="934.888,-535.5 944.888,-532 934.888,-528.5 934.888,-535.5"/>
</g>
<!-- Node330 -->
<g id="node44" class="node"><title>Node330</title>
<g id="a_node44"><a xlink:href="ldebug_8h.html#a6f27f64630215e18a11be9ba21d3c4bf" target="_top" xlink:title=" ">
<polygon fill="white" stroke="red" points="824,-484.5 824,-503.5 899,-503.5 899,-484.5 824,-484.5"/>
<text text-anchor="middle" x="861.5" y="-491.5" font-family="Helvetica,sans-Serif" font-size="10.00">luaG_runerror</text>
</a>
</g>
</g>
<!-- Node621&#45;&gt;Node330 -->
<g id="edge58" class="edge"><title>Node621&#45;&gt;Node330</title>
<path fill="none" stroke="midnightblue" d="M943.456,-519.32C927.039,-514.185 908.401,-508.356 893.15,-503.586"/>
<polygon fill="midnightblue" stroke="midnightblue" points="942.752,-522.766 953.34,-522.411 944.841,-516.086 942.752,-522.766"/>
</g>
<!-- Node622&#45;&gt;Node7 -->
<g id="edge57" class="edge"><title>Node622&#45;&gt;Node7</title>
<path fill="none" stroke="midnightblue" d="M825.407,-519.127C821.777,-517.277 818.237,-515.233 815,-513 795.852,-499.787 798.068,-488.328 779,-475 773.817,-471.377 767.833,-468.231 761.981,-465.597"/>
<polygon fill="midnightblue" stroke="midnightblue" points="823.951,-522.309 834.497,-523.325 826.886,-515.955 823.951,-522.309"/>
</g>
<!-- Node249 -->
<g id="node43" class="node"><title>Node249</title>
<g id="a_node43"><a xlink:href="lcorolib_8c.html#a777abb20385a69ce4787f72bd90375a7" target="_top" xlink:title=" ">
<polygon fill="white" stroke="red" points="695.5,-598.5 695.5,-617.5 772.5,-617.5 772.5,-598.5 695.5,-598.5"/>
<text text-anchor="middle" x="734" y="-605.5" font-family="Helvetica,sans-Serif" font-size="10.00">luaB_auxwrap</text>
</a>
</g>
</g>
<!-- Node622&#45;&gt;Node249 -->
<g id="edge56" class="edge"><title>Node622&#45;&gt;Node249</title>
<path fill="none" stroke="midnightblue" d="M825.238,-545.794C821.727,-547.443 818.259,-549.188 815,-551 789.213,-565.334 761.744,-586.325 746.643,-598.43"/>
<polygon fill="midnightblue" stroke="midnightblue" points="826.798,-548.931 834.517,-541.674 823.957,-542.533 826.798,-548.931"/>
</g>
<!-- Node330&#45;&gt;Node12 -->
<g id="edge60" class="edge"><title>Node330&#45;&gt;Node12</title>
<path fill="none" stroke="midnightblue" d="M813.777,-494C800.257,-494 785.673,-494 772.772,-494"/>
<polygon fill="midnightblue" stroke="midnightblue" points="813.863,-497.5 823.863,-494 813.863,-490.5 813.863,-497.5"/>
</g>
<!-- Node330&#45;&gt;Node399 -->
<g id="edge59" class="edge"><title>Node330&#45;&gt;Node399</title>
<path fill="none" stroke="midnightblue" d="M853.128,-474.659C841.41,-446.237 816.011,-393.092 779,-361 774.725,-357.293 769.617,-354.215 764.419,-351.693"/>
<polygon fill="midnightblue" stroke="midnightblue" points="849.994,-476.25 856.945,-484.246 856.497,-473.661 849.994,-476.25"/>
</g>
<!-- Node302 -->
<g id="node46" class="node"><title>Node302</title>
<g id="a_node46"><a xlink:href="lua_8h.html#a534ce5b580fb7c5391f931b272eff0a0" target="_top" xlink:title=" ">
<polygon fill="white" stroke="black" points="951.5,-712.5 951.5,-731.5 1018.5,-731.5 1018.5,-712.5 951.5,-712.5"/>
<text text-anchor="middle" x="985" y="-719.5" font-family="Helvetica,sans-Serif" font-size="10.00">lua_resume</text>
</a>
</g>
</g>
<!-- Node305&#45;&gt;Node302 -->
<g id="edge64" class="edge"><title>Node305&#45;&gt;Node302</title>
<path fill="none" stroke="midnightblue" d="M1070.6,-722C1054.28,-722 1034.79,-722 1018.63,-722"/>
<polygon fill="midnightblue" stroke="midnightblue" points="1070.8,-725.5 1080.8,-722 1070.8,-718.5 1070.8,-725.5"/>
</g>
<!-- Node303 -->
<g id="node47" class="node"><title>Node303</title>
<g id="a_node47"><a xlink:href="lcorolib_8c.html#aaa37b3a30ab0c6daef7fae8951fef3e7" target="_top" xlink:title=" ">
<polygon fill="white" stroke="black" points="829,-712.5 829,-731.5 894,-731.5 894,-712.5 829,-712.5"/>
<text text-anchor="middle" x="861.5" y="-719.5" font-family="Helvetica,sans-Serif" font-size="10.00">auxresume</text>
</a>
</g>
</g>
<!-- Node302&#45;&gt;Node303 -->
<g id="edge65" class="edge"><title>Node302&#45;&gt;Node303</title>
<path fill="none" stroke="midnightblue" d="M941.098,-722C925.692,-722 908.605,-722 894.309,-722"/>
<polygon fill="midnightblue" stroke="midnightblue" points="941.44,-725.5 951.44,-722 941.44,-718.5 941.44,-725.5"/>
</g>
<!-- Node303&#45;&gt;Node249 -->
<g id="edge66" class="edge"><title>Node303&#45;&gt;Node249</title>
<path fill="none" stroke="midnightblue" d="M829.641,-707.666C824.552,-704.763 819.481,-701.512 815,-698 783.573,-673.368 754.509,-635.393 741.775,-617.696"/>
<polygon fill="midnightblue" stroke="midnightblue" points="828.227,-710.878 838.697,-712.495 831.52,-704.701 828.227,-710.878"/>
</g>
<!-- Node304 -->
<g id="node48" class="node"><title>Node304</title>
<g id="a_node48"><a xlink:href="lcorolib_8c.html#a76f5d80387eeb1c7d31eb5f9cb6c9392" target="_top" xlink:title=" ">
<polygon fill="white" stroke="black" points="692,-712.5 692,-731.5 776,-731.5 776,-712.5 692,-712.5"/>
<text text-anchor="middle" x="734" y="-719.5" font-family="Helvetica,sans-Serif" font-size="10.00">luaB_coresume</text>
</a>
</g>
</g>
<!-- Node303&#45;&gt;Node304 -->
<g id="edge67" class="edge"><title>Node303&#45;&gt;Node304</title>
<path fill="none" stroke="midnightblue" d="M818.702,-722C805.006,-722 789.806,-722 776.159,-722"/>
<polygon fill="midnightblue" stroke="midnightblue" points="818.831,-725.5 828.831,-722 818.831,-718.5 818.831,-725.5"/>
</g>
<!-- Node301&#45;&gt;Node305 -->
<g id="edge71" class="edge"><title>Node301&#45;&gt;Node305</title>
<path fill="none" stroke="midnightblue" d="M1175.33,-748.825C1160.97,-743.23 1143.8,-736.539 1130.21,-731.239"/>
<polygon fill="midnightblue" stroke="midnightblue" points="1174.15,-752.122 1184.74,-752.492 1176.69,-745.6 1174.15,-752.122"/>
</g>
<!-- Node301&#45;&gt;Node302 -->
<g id="edge70" class="edge"><title>Node301&#45;&gt;Node302</title>
<path fill="none" stroke="midnightblue" d="M1174.38,-757.015C1145.55,-753.879 1100.56,-748.375 1062,-741 1047.71,-738.266 1032.08,-734.498 1018.74,-731.038"/>
<polygon fill="midnightblue" stroke="midnightblue" points="1174.28,-760.524 1184.6,-758.1 1175.02,-753.563 1174.28,-760.524"/>
</g>
<!-- Node654&#45;&gt;Node130 -->
<g id="edge73" class="edge"><title>Node654&#45;&gt;Node130</title>
<path fill="none" stroke="midnightblue" d="M1250.65,-32.2955C1151.57,-21.6891 925.643,-1.42109e-014 735,-0 735,-0 735,-0 606,-0 487.243,-0 401.176,-154.103 380.684,-194.434"/>
<polygon fill="midnightblue" stroke="midnightblue" points="1250.37,-35.7853 1260.69,-33.3784 1251.12,-28.8257 1250.37,-35.7853"/>
</g>
</g>
</svg>
