<?xml version="1.0" encoding="UTF-8" standalone="no"?>
<!DOCTYPE svg PUBLIC "-//W3C//DTD SVG 1.1//EN"
 "http://www.w3.org/Graphics/SVG/1.1/DTD/svg11.dtd">
<!-- Generated by graphviz version 2.38.0 (20140413.2041)
 -->
<!-- Title: luaT_tryconcatTM Pages: 1 -->
<svg width="787pt" height="1472pt"
 viewBox="0.00 0.00 787.00 1472.00" xmlns="http://www.w3.org/2000/svg" xmlns:xlink="http://www.w3.org/1999/xlink">
<g id="graph0" class="graph" transform="scale(1 1) rotate(0) translate(4 1468)">
<title>luaT_tryconcatTM</title>
<polygon fill="white" stroke="none" points="-4,4 -4,-1468 783,-1468 783,4 -4,4"/>
<!-- Node1 -->
<g id="node1" class="node"><title>Node1</title>
<g id="a_node1"><a xlink:title=" ">
<polygon fill="#bfbfbf" stroke="black" points="685,-133.5 685,-152.5 779,-152.5 779,-133.5 685,-133.5"/>
<text text-anchor="middle" x="732" y="-140.5" font-family="Helvetica,sans-Serif" font-size="10.00">luaT_tryconcatTM</text>
</a>
</g>
</g>
<!-- Node2 -->
<g id="node2" class="node"><title>Node2</title>
<g id="a_node2"><a xlink:href="lvm_8h.html#aee84bfc563cb4bdd21a013218a289aa7" target="_top" xlink:title=" ">
<polygon fill="white" stroke="black" points="578,-133.5 578,-152.5 649,-152.5 649,-133.5 578,-133.5"/>
<text text-anchor="middle" x="613.5" y="-140.5" font-family="Helvetica,sans-Serif" font-size="10.00">luaV_concat</text>
</a>
</g>
</g>
<!-- Node1&#45;&gt;Node2 -->
<g id="edge1" class="edge"><title>Node1&#45;&gt;Node2</title>
<path fill="none" stroke="midnightblue" d="M674.745,-143C665.982,-143 657.158,-143 649.07,-143"/>
<polygon fill="midnightblue" stroke="midnightblue" points="674.956,-146.5 684.956,-143 674.956,-139.5 674.956,-146.5"/>
</g>
<!-- Node3 -->
<g id="node3" class="node"><title>Node3</title>
<g id="a_node3"><a xlink:href="lua_8h.html#a4eba0457df5bafff4d44071d1d8080b6" target="_top" xlink:title=" ">
<polygon fill="white" stroke="black" points="471.5,-247.5 471.5,-266.5 535.5,-266.5 535.5,-247.5 471.5,-247.5"/>
<text text-anchor="middle" x="503.5" y="-254.5" font-family="Helvetica,sans-Serif" font-size="10.00">lua_concat</text>
</a>
</g>
</g>
<!-- Node2&#45;&gt;Node3 -->
<g id="edge2" class="edge"><title>Node2&#45;&gt;Node3</title>
<path fill="none" stroke="midnightblue" d="M596.255,-160.147C573.264,-184.415 531.997,-227.975 513.685,-247.305"/>
<polygon fill="midnightblue" stroke="midnightblue" points="598.955,-162.386 603.292,-152.72 593.874,-157.572 598.955,-162.386"/>
</g>
<!-- Node253 -->
<g id="node43" class="node"><title>Node253</title>
<g id="a_node43"><a xlink:href="lvm_8h.html#ac430e93ed874f6ab2449d7a16aa6b62f" target="_top" xlink:title=" ">
<polygon fill="white" stroke="black" points="465.5,-114.5 465.5,-133.5 541.5,-133.5 541.5,-114.5 465.5,-114.5"/>
<text text-anchor="middle" x="503.5" y="-121.5" font-family="Helvetica,sans-Serif" font-size="10.00">luaV_execute</text>
</a>
</g>
</g>
<!-- Node2&#45;&gt;Node253 -->
<g id="edge51" class="edge"><title>Node2&#45;&gt;Node253</title>
<path fill="none" stroke="midnightblue" d="M567.795,-135.135C559.155,-133.615 550.186,-132.037 541.812,-130.564"/>
<polygon fill="midnightblue" stroke="midnightblue" points="567.278,-138.598 577.734,-136.884 568.491,-131.704 567.278,-138.598"/>
</g>
<!-- Node653 -->
<g id="node47" class="node"><title>Node653</title>
<g id="a_node47"><a xlink:href="lvm_8h.html#a5db3e64b3cc2f63c3b10b27f7ecd1d03" target="_top" xlink:title=" ">
<polygon fill="white" stroke="black" points="465,-152.5 465,-171.5 542,-171.5 542,-152.5 465,-152.5"/>
<text text-anchor="middle" x="503.5" y="-159.5" font-family="Helvetica,sans-Serif" font-size="10.00">luaV_finishOp</text>
</a>
</g>
</g>
<!-- Node2&#45;&gt;Node653 -->
<g id="edge57" class="edge"><title>Node2&#45;&gt;Node653</title>
<path fill="none" stroke="midnightblue" d="M567.626,-150.895C559.166,-152.383 550.399,-153.925 542.188,-155.37"/>
<polygon fill="midnightblue" stroke="midnightblue" points="568.491,-154.296 577.734,-149.116 567.278,-147.402 568.491,-154.296"/>
</g>
<!-- Node466 -->
<g id="node48" class="node"><title>Node466</title>
<g id="a_node48"><a xlink:href="lobject_8c.html#a90720e7e38c0e352e9b97d3f8def9e1a" target="_top" xlink:title=" ">
<polygon fill="white" stroke="black" points="479,-38.5 479,-57.5 528,-57.5 528,-38.5 479,-38.5"/>
<text text-anchor="middle" x="503.5" y="-45.5" font-family="Helvetica,sans-Serif" font-size="10.00">pushstr</text>
</a>
</g>
</g>
<!-- Node2&#45;&gt;Node466 -->
<g id="edge59" class="edge"><title>Node2&#45;&gt;Node466</title>
<path fill="none" stroke="midnightblue" d="M593.735,-126.494C571.101,-106.584 533.807,-73.7789 515.43,-57.614"/>
<polygon fill="midnightblue" stroke="midnightblue" points="591.529,-129.214 601.349,-133.191 596.152,-123.958 591.529,-129.214"/>
</g>
<!-- Node4 -->
<g id="node4" class="node"><title>Node4</title>
<g id="a_node4"><a xlink:href="lauxlib_8c.html#a36c8f149b779f8c9a5c042ea9784d80a" target="_top" xlink:title=" ">
<polygon fill="white" stroke="black" points="366,-1159.5 366,-1178.5 415,-1178.5 415,-1159.5 366,-1159.5"/>
<text text-anchor="middle" x="390.5" y="-1166.5" font-family="Helvetica,sans-Serif" font-size="10.00">findfield</text>
</a>
</g>
</g>
<!-- Node3&#45;&gt;Node4 -->
<g id="edge3" class="edge"><title>Node3&#45;&gt;Node4</title>
<path fill="none" stroke="midnightblue" d="M500.118,-276.575C485.064,-400.255 403.435,-1070.94 392.672,-1159.37"/>
<polygon fill="midnightblue" stroke="midnightblue" points="503.595,-276.975 501.329,-266.625 496.646,-276.129 503.595,-276.975"/>
</g>
<!-- Node144 -->
<g id="node7" class="node"><title>Node144</title>
<g id="a_node7"><a xlink:href="lcorolib_8c.html#a777abb20385a69ce4787f72bd90375a7" target="_top" xlink:title=" ">
<polygon fill="white" stroke="black" points="352,-266.5 352,-285.5 429,-285.5 429,-266.5 352,-266.5"/>
<text text-anchor="middle" x="390.5" y="-273.5" font-family="Helvetica,sans-Serif" font-size="10.00">luaB_auxwrap</text>
</a>
</g>
</g>
<!-- Node3&#45;&gt;Node144 -->
<g id="edge6" class="edge"><title>Node3&#45;&gt;Node144</title>
<path fill="none" stroke="midnightblue" d="M461.114,-264.084C450.644,-265.876 439.455,-267.791 429.179,-269.55"/>
<polygon fill="midnightblue" stroke="midnightblue" points="462.019,-267.48 471.285,-262.343 460.838,-260.581 462.019,-267.48"/>
</g>
<!-- Node52 -->
<g id="node9" class="node"><title>Node52</title>
<g id="a_node9"><a xlink:href="lbaselib_8c.html#a2ecfa987569d0b4c1063f3e204e42dd2" target="_top" xlink:title=" ">
<polygon fill="white" stroke="black" points="360,-228.5 360,-247.5 421,-247.5 421,-228.5 360,-228.5"/>
<text text-anchor="middle" x="390.5" y="-235.5" font-family="Helvetica,sans-Serif" font-size="10.00">luaB_error</text>
</a>
</g>
</g>
<!-- Node3&#45;&gt;Node52 -->
<g id="edge8" class="edge"><title>Node3&#45;&gt;Node52</title>
<path fill="none" stroke="midnightblue" d="M461.409,-249.966C448.12,-247.692 433.647,-245.214 421.335,-243.107"/>
<polygon fill="midnightblue" stroke="midnightblue" points="460.838,-253.419 471.285,-251.657 462.019,-246.52 460.838,-253.419"/>
</g>
<!-- Node145 -->
<g id="node11" class="node"><title>Node145</title>
<g id="a_node11"><a xlink:href="lauxlib_8h.html#a994f73d7985c30672469a260d9e86ae6" target="_top" xlink:title=" ">
<polygon fill="white" stroke="red" points="361,-817.5 361,-836.5 420,-836.5 420,-817.5 361,-817.5"/>
<text text-anchor="middle" x="390.5" y="-824.5" font-family="Helvetica,sans-Serif" font-size="10.00">luaL_error</text>
</a>
</g>
</g>
<!-- Node3&#45;&gt;Node145 -->
<g id="edge10" class="edge"><title>Node3&#45;&gt;Node145</title>
<path fill="none" stroke="midnightblue" d="M498.639,-276.827C480.75,-368.691 406.248,-751.269 393.393,-817.279"/>
<polygon fill="midnightblue" stroke="midnightblue" points="502.097,-277.378 500.573,-266.893 495.226,-276.04 502.097,-277.378"/>
</g>
<!-- Node224 -->
<g id="node42" class="node"><title>Node224</title>
<g id="a_node42"><a xlink:href="lua_8c.html#affef5a04b31963c2c3f5028518777e12" target="_top" xlink:title=" ">
<polygon fill="white" stroke="red" points="364,-190.5 364,-209.5 417,-209.5 417,-190.5 364,-190.5"/>
<text text-anchor="middle" x="390.5" y="-197.5" font-family="Helvetica,sans-Serif" font-size="10.00">multiline</text>
</a>
</g>
</g>
<!-- Node3&#45;&gt;Node224 -->
<g id="edge50" class="edge"><title>Node3&#45;&gt;Node224</title>
<path fill="none" stroke="midnightblue" d="M475.106,-242.77C461.293,-235.611 444.273,-226.817 429,-219 423.023,-215.941 416.499,-212.626 410.593,-209.636"/>
<polygon fill="midnightblue" stroke="midnightblue" points="473.607,-245.935 484.096,-247.432 476.83,-239.721 473.607,-245.935"/>
</g>
<!-- Node5 -->
<g id="node5" class="node"><title>Node5</title>
<g id="a_node5"><a xlink:href="lauxlib_8c.html#a4f35430f7ecfcbd5f507e550937046b4" target="_top" xlink:title=" ">
<polygon fill="white" stroke="red" points="211,-1444.5 211,-1463.5 316,-1463.5 316,-1444.5 211,-1444.5"/>
<text text-anchor="middle" x="263.5" y="-1451.5" font-family="Helvetica,sans-Serif" font-size="10.00">pushglobalfuncname</text>
</a>
</g>
</g>
<!-- Node4&#45;&gt;Node5 -->
<g id="edge4" class="edge"><title>Node4&#45;&gt;Node5</title>
<path fill="none" stroke="midnightblue" d="M389.821,-1188.79C389.524,-1237.26 382.048,-1363.17 316,-1435 312.452,-1438.86 308.052,-1441.94 303.329,-1444.39"/>
<polygon fill="midnightblue" stroke="midnightblue" points="393.321,-1188.68 389.781,-1178.7 386.321,-1188.71 393.321,-1188.68"/>
</g>
<!-- Node6 -->
<g id="node6" class="node"><title>Node6</title>
<g id="a_node6"><a xlink:href="lauxlib_8h.html#ad0599591343ae7836d46e685b16e69de" target="_top" xlink:title=" ">
<polygon fill="white" stroke="red" points="98.5,-1330.5 98.5,-1349.5 171.5,-1349.5 171.5,-1330.5 98.5,-1330.5"/>
<text text-anchor="middle" x="135" y="-1337.5" font-family="Helvetica,sans-Serif" font-size="10.00">luaL_argerror</text>
</a>
</g>
</g>
<!-- Node5&#45;&gt;Node6 -->
<g id="edge5" class="edge"><title>Node5&#45;&gt;Node6</title>
<path fill="none" stroke="midnightblue" d="M219.399,-1440.21C216.456,-1438.64 213.622,-1436.9 211,-1435 177.841,-1410.93 151.682,-1368.41 141.098,-1349.51"/>
<polygon fill="midnightblue" stroke="midnightblue" points="217.916,-1443.38 228.455,-1444.47 220.895,-1437.05 217.916,-1443.38"/>
</g>
<!-- Node122 -->
<g id="node8" class="node"><title>Node122</title>
<g id="a_node8"><a xlink:href="lcorolib_8c.html#a1c0429e27f504b08e25f437f733edad1" target="_top" xlink:title=" ">
<polygon fill="white" stroke="black" points="227.5,-228.5 227.5,-247.5 299.5,-247.5 299.5,-228.5 227.5,-228.5"/>
<text text-anchor="middle" x="263.5" y="-235.5" font-family="Helvetica,sans-Serif" font-size="10.00">luaB_cowrap</text>
</a>
</g>
</g>
<!-- Node144&#45;&gt;Node122 -->
<g id="edge7" class="edge"><title>Node144&#45;&gt;Node122</title>
<path fill="none" stroke="midnightblue" d="M348.265,-263.465C331.261,-258.295 311.871,-252.401 296.033,-247.586"/>
<polygon fill="midnightblue" stroke="midnightblue" points="347.372,-266.851 357.957,-266.411 349.408,-260.154 347.372,-266.851"/>
</g>
<!-- Node53 -->
<g id="node10" class="node"><title>Node53</title>
<g id="a_node10"><a xlink:href="lbaselib_8c.html#a8ba9378d5d46ef34a7429d52c3f3e4c7" target="_top" xlink:title=" ">
<polygon fill="white" stroke="black" points="229.5,-190.5 229.5,-209.5 297.5,-209.5 297.5,-190.5 229.5,-190.5"/>
<text text-anchor="middle" x="263.5" y="-197.5" font-family="Helvetica,sans-Serif" font-size="10.00">luaB_assert</text>
</a>
</g>
</g>
<!-- Node52&#45;&gt;Node53 -->
<g id="edge9" class="edge"><title>Node52&#45;&gt;Node53</title>
<path fill="none" stroke="midnightblue" d="M350.007,-225.994C332.617,-220.708 312.467,-214.582 296.096,-209.605"/>
<polygon fill="midnightblue" stroke="midnightblue" points="349.291,-229.435 359.877,-228.995 351.327,-222.737 349.291,-229.435"/>
</g>
<!-- Node145&#45;&gt;Node6 -->
<g id="edge38" class="edge"><title>Node145&#45;&gt;Node6</title>
<path fill="none" stroke="midnightblue" d="M388.078,-846.658C382.72,-915.771 361.682,-1146.4 316,-1202 283.985,-1240.96 251.279,-1214.66 211,-1245 178.439,-1269.53 152.157,-1311.44 141.337,-1330.3"/>
<polygon fill="midnightblue" stroke="midnightblue" points="391.569,-846.91 388.829,-836.676 384.589,-846.385 391.569,-846.91"/>
</g>
<!-- Node146 -->
<g id="node12" class="node"><title>Node146</title>
<g id="a_node12"><a xlink:href="lstrlib_8c.html#ad5f7e3fbcadc8825f7f650ecf458fc72" target="_top" xlink:title=" ">
<polygon fill="white" stroke="black" points="113.5,-1140.5 113.5,-1159.5 156.5,-1159.5 156.5,-1140.5 113.5,-1140.5"/>
<text text-anchor="middle" x="135" y="-1147.5" font-family="Helvetica,sans-Serif" font-size="10.00">add_s</text>
</a>
</g>
</g>
<!-- Node145&#45;&gt;Node146 -->
<g id="edge11" class="edge"><title>Node145&#45;&gt;Node146</title>
<path fill="none" stroke="midnightblue" d="M387.639,-846.809C381.451,-908.119 359.456,-1092.93 316,-1131 271.089,-1170.34 193.691,-1161.75 156.768,-1154.71"/>
<polygon fill="midnightblue" stroke="midnightblue" points="391.15,-846.859 388.64,-836.566 384.184,-846.178 391.15,-846.859"/>
</g>
<!-- Node147 -->
<g id="node13" class="node"><title>Node147</title>
<g id="a_node13"><a xlink:href="lstrlib_8c.html#a853703c83ab694a70212461d5cfe7843" target="_top" xlink:title=" ">
<polygon fill="white" stroke="red" points="0,-1159.5 0,-1178.5 59,-1178.5 59,-1159.5 0,-1159.5"/>
<text text-anchor="middle" x="29.5" y="-1166.5" font-family="Helvetica,sans-Serif" font-size="10.00">add_value</text>
</a>
</g>
</g>
<!-- Node145&#45;&gt;Node147 -->
<g id="edge13" class="edge"><title>Node145&#45;&gt;Node147</title>
<path fill="none" stroke="midnightblue" d="M388.119,-846.98C383.164,-912.288 363.964,-1117.62 316,-1159 242.962,-1222.02 116.104,-1195.05 59.3685,-1178.46"/>
<polygon fill="midnightblue" stroke="midnightblue" points="391.625,-847.025 388.86,-836.797 384.643,-846.517 391.625,-847.025"/>
</g>
<!-- Node148 -->
<g id="node14" class="node"><title>Node148</title>
<g id="a_node14"><a xlink:href="ltablib_8c.html#a598479e00f1b316a182b1582012df5d0" target="_top" xlink:title=" ">
<polygon fill="white" stroke="red" points="238.5,-1064.5 238.5,-1083.5 288.5,-1083.5 288.5,-1064.5 238.5,-1064.5"/>
<text text-anchor="middle" x="263.5" y="-1071.5" font-family="Helvetica,sans-Serif" font-size="10.00">addfield</text>
</a>
</g>
</g>
<!-- Node145&#45;&gt;Node148 -->
<g id="edge14" class="edge"><title>Node145&#45;&gt;Node148</title>
<path fill="none" stroke="midnightblue" d="M388.72,-846.863C385.952,-890.422 373.35,-995.214 316,-1055 308.743,-1062.57 298.214,-1067.14 288.565,-1069.89"/>
<polygon fill="midnightblue" stroke="midnightblue" points="392.223,-846.897 389.252,-836.728 385.233,-846.531 392.223,-846.897"/>
</g>
<!-- Node30 -->
<g id="node15" class="node"><title>Node30</title>
<g id="a_node15"><a xlink:href="lutf8lib_8c.html#a805a182cc5dde6d73e07922e8454eaf7" target="_top" xlink:title=" ">
<polygon fill="white" stroke="black" points="234,-1026.5 234,-1045.5 293,-1045.5 293,-1026.5 234,-1026.5"/>
<text text-anchor="middle" x="263.5" y="-1033.5" font-family="Helvetica,sans-Serif" font-size="10.00">byteoffset</text>
</a>
</g>
</g>
<!-- Node145&#45;&gt;Node30 -->
<g id="edge15" class="edge"><title>Node145&#45;&gt;Node30</title>
<path fill="none" stroke="midnightblue" d="M387.178,-847.138C381.723,-885.412 364.652,-969.104 316,-1017 309.752,-1023.15 301.343,-1027.33 293.134,-1030.17"/>
<polygon fill="midnightblue" stroke="midnightblue" points="390.702,-847.175 388.519,-836.808 383.76,-846.273 390.702,-847.175"/>
</g>
<!-- Node149 -->
<g id="node16" class="node"><title>Node149</title>
<g id="a_node16"><a xlink:href="lstrlib_8c.html#a5e8b364a8f8d4300aa5007c0feb42abf" target="_top" xlink:title=" ">
<polygon fill="white" stroke="red" points="218,-988.5 218,-1007.5 309,-1007.5 309,-988.5 218,-988.5"/>
<text text-anchor="middle" x="263.5" y="-995.5" font-family="Helvetica,sans-Serif" font-size="10.00">capture_to_close</text>
</a>
</g>
</g>
<!-- Node145&#45;&gt;Node149 -->
<g id="edge16" class="edge"><title>Node145&#45;&gt;Node149</title>
<path fill="none" stroke="midnightblue" d="M385.083,-846.629C376.894,-878.681 356.388,-942.349 316,-979 311.766,-982.843 306.687,-985.928 301.393,-988.399"/>
<polygon fill="midnightblue" stroke="midnightblue" points="388.534,-847.248 387.479,-836.706 381.73,-845.605 388.534,-847.248"/>
</g>
<!-- Node156 -->
<g id="node17" class="node"><title>Node156</title>
<g id="a_node17"><a xlink:href="lstrlib_8c.html#aa8c1a193fa762ecfe81888d86981a586" target="_top" xlink:title=" ">
<polygon fill="white" stroke="red" points="223.5,-950.5 223.5,-969.5 303.5,-969.5 303.5,-950.5 223.5,-950.5"/>
<text text-anchor="middle" x="263.5" y="-957.5" font-family="Helvetica,sans-Serif" font-size="10.00">check_capture</text>
</a>
</g>
</g>
<!-- Node145&#45;&gt;Node156 -->
<g id="edge17" class="edge"><title>Node145&#45;&gt;Node156</title>
<path fill="none" stroke="midnightblue" d="M381.738,-846.274C370.693,-871.416 348.153,-915.223 316,-941 311.241,-944.815 305.643,-947.91 299.923,-950.407"/>
<polygon fill="midnightblue" stroke="midnightblue" points="385.095,-847.323 385.763,-836.75 378.647,-844.599 385.095,-847.323"/>
</g>
<!-- Node158 -->
<g id="node18" class="node"><title>Node158</title>
<g id="a_node18"><a xlink:href="loadlib_8c.html#abe3af664b33d2158ef6526094c84bb17" target="_top" xlink:title=" ">
<polygon fill="white" stroke="red" points="233,-912.5 233,-931.5 294,-931.5 294,-912.5 233,-912.5"/>
<text text-anchor="middle" x="263.5" y="-919.5" font-family="Helvetica,sans-Serif" font-size="10.00">checkload</text>
</a>
</g>
</g>
<!-- Node145&#45;&gt;Node158 -->
<g id="edge18" class="edge"><title>Node145&#45;&gt;Node158</title>
<path fill="none" stroke="midnightblue" d="M376.431,-844.522C362.948,-861.525 340.485,-887.036 316,-903 309.374,-907.32 301.631,-910.836 294.192,-913.615"/>
<polygon fill="midnightblue" stroke="midnightblue" points="379.283,-846.555 382.626,-836.502 373.743,-842.276 379.283,-846.555"/>
</g>
<!-- Node164 -->
<g id="node19" class="node"><title>Node164</title>
<g id="a_node19"><a xlink:href="ldblib_8c.html#aef541490d49259cf4cb14e7f9597600e" target="_top" xlink:title=" ">
<polygon fill="white" stroke="red" points="230,-874.5 230,-893.5 297,-893.5 297,-874.5 230,-874.5"/>
<text text-anchor="middle" x="263.5" y="-881.5" font-family="Helvetica,sans-Serif" font-size="10.00">checkstack</text>
</a>
</g>
</g>
<!-- Node145&#45;&gt;Node164 -->
<g id="edge19" class="edge"><title>Node145&#45;&gt;Node164</title>
<path fill="none" stroke="midnightblue" d="M359.33,-840.757C336.491,-851.172 305.704,-865.211 285.49,-874.428"/>
<polygon fill="midnightblue" stroke="midnightblue" points="360.931,-843.874 368.578,-836.541 358.027,-837.505 360.931,-843.874"/>
</g>
<!-- Node166 -->
<g id="node20" class="node"><title>Node166</title>
<g id="a_node20"><a xlink:href="lstrlib_8c.html#a72b26c2a339f5e84ef087e961b547f95" target="_top" xlink:title=" ">
<polygon fill="white" stroke="black" points="235.5,-798.5 235.5,-817.5 291.5,-817.5 291.5,-798.5 235.5,-798.5"/>
<text text-anchor="middle" x="263.5" y="-805.5" font-family="Helvetica,sans-Serif" font-size="10.00">classend</text>
</a>
</g>
</g>
<!-- Node145&#45;&gt;Node166 -->
<g id="edge20" class="edge"><title>Node145&#45;&gt;Node166</title>
<path fill="none" stroke="midnightblue" d="M350.891,-821.131C331.742,-818.221 309.07,-814.775 291.758,-812.143"/>
<polygon fill="midnightblue" stroke="midnightblue" points="350.41,-824.598 360.822,-822.641 351.462,-817.678 350.41,-824.598"/>
</g>
<!-- Node151 -->
<g id="node21" class="node"><title>Node151</title>
<g id="a_node21"><a xlink:href="lstrlib_8c.html#a52a45835b75e5d31ec66421456bbb728" target="_top" xlink:title=" ">
<polygon fill="white" stroke="red" points="113,-798.5 113,-817.5 157,-817.5 157,-798.5 113,-798.5"/>
<text text-anchor="middle" x="135" y="-805.5" font-family="Helvetica,sans-Serif" font-size="10.00">match</text>
</a>
</g>
</g>
<!-- Node145&#45;&gt;Node151 -->
<g id="edge46" class="edge"><title>Node145&#45;&gt;Node151</title>
<path fill="none" stroke="midnightblue" d="M350.774,-829.752C314.502,-831.679 258.861,-832.968 211,-827 192.473,-824.69 171.954,-819.287 157.068,-814.831"/>
<polygon fill="midnightblue" stroke="midnightblue" points="351.141,-833.237 360.923,-829.169 350.739,-826.248 351.141,-833.237"/>
</g>
<!-- Node40 -->
<g id="node22" class="node"><title>Node40</title>
<g id="a_node22"><a xlink:href="lutf8lib_8c.html#af4280cee645f392590f2ed63a6301320" target="_top" xlink:title=" ">
<polygon fill="white" stroke="black" points="105.5,-703.5 105.5,-722.5 164.5,-722.5 164.5,-703.5 105.5,-703.5"/>
<text text-anchor="middle" x="135" y="-710.5" font-family="Helvetica,sans-Serif" font-size="10.00">codepoint</text>
</a>
</g>
</g>
<!-- Node145&#45;&gt;Node40 -->
<g id="edge22" class="edge"><title>Node145&#45;&gt;Node40</title>
<path fill="none" stroke="midnightblue" d="M377.11,-808.979C364.013,-791.376 341.717,-765.219 316,-751 267.366,-724.109 201.688,-716.218 164.603,-713.922"/>
<polygon fill="midnightblue" stroke="midnightblue" points="374.41,-811.22 383.09,-817.296 380.094,-807.134 374.41,-811.22"/>
</g>
<!-- Node167 -->
<g id="node23" class="node"><title>Node167</title>
<g id="a_node23"><a xlink:href="loadlib_8c.html#af8f7333f1a59f3d7aab8c9b79b7a4ab2" target="_top" xlink:title=" ">
<polygon fill="white" stroke="red" points="241.5,-570.5 241.5,-589.5 285.5,-589.5 285.5,-570.5 241.5,-570.5"/>
<text text-anchor="middle" x="263.5" y="-577.5" font-family="Helvetica,sans-Serif" font-size="10.00">findfile</text>
</a>
</g>
</g>
<!-- Node145&#45;&gt;Node167 -->
<g id="edge23" class="edge"><title>Node145&#45;&gt;Node167</title>
<path fill="none" stroke="midnightblue" d="M388.139,-807.047C384.242,-764.595 369.578,-664.288 316,-604 308.071,-595.078 296.132,-589.229 285.745,-585.54"/>
<polygon fill="midnightblue" stroke="midnightblue" points="384.665,-807.504 388.961,-817.189 391.642,-806.939 384.665,-807.504"/>
</g>
<!-- Node168 -->
<g id="node24" class="node"><title>Node168</title>
<g id="a_node24"><a xlink:href="loadlib_8c.html#aeea4101591c7cab25273f4dfe7d811d6" target="_top" xlink:title=" ">
<polygon fill="white" stroke="red" points="234.5,-532.5 234.5,-551.5 292.5,-551.5 292.5,-532.5 234.5,-532.5"/>
<text text-anchor="middle" x="263.5" y="-539.5" font-family="Helvetica,sans-Serif" font-size="10.00">findloader</text>
</a>
</g>
</g>
<!-- Node145&#45;&gt;Node168 -->
<g id="edge24" class="edge"><title>Node145&#45;&gt;Node168</title>
<path fill="none" stroke="midnightblue" d="M389.821,-807.205C389.524,-758.735 382.048,-632.832 316,-561 309.872,-554.335 301.2,-550.001 292.716,-547.185"/>
<polygon fill="midnightblue" stroke="midnightblue" points="386.321,-807.288 389.781,-817.302 393.321,-807.316 386.321,-807.288"/>
</g>
<!-- Node170 -->
<g id="node25" class="node"><title>Node170</title>
<g id="a_node25"><a xlink:href="lbaselib_8c.html#ad467c787e381e8d18e4c7b46b4f1b05d" target="_top" xlink:title=" ">
<polygon fill="white" stroke="red" points="95,-655.5 95,-674.5 175,-674.5 175,-655.5 95,-655.5"/>
<text text-anchor="middle" x="135" y="-662.5" font-family="Helvetica,sans-Serif" font-size="10.00">generic_reader</text>
</a>
</g>
</g>
<!-- Node145&#45;&gt;Node170 -->
<g id="edge25" class="edge"><title>Node145&#45;&gt;Node170</title>
<path fill="none" stroke="midnightblue" d="M386.471,-807.354C380.128,-773.696 362.017,-705.674 316,-675 274.202,-647.138 214.062,-650.281 175.009,-656.504"/>
<polygon fill="midnightblue" stroke="midnightblue" points="383.046,-808.088 388.195,-817.348 389.944,-806.898 383.046,-808.088"/>
</g>
<!-- Node171 -->
<g id="node26" class="node"><title>Node171</title>
<g id="a_node26"><a xlink:href="lstrlib_8c.html#afa9ea8e071a60a2c554c79f7def3bb39" target="_top" xlink:title=" ">
<polygon fill="white" stroke="red" points="222,-1102.5 222,-1121.5 305,-1121.5 305,-1102.5 222,-1102.5"/>
<text text-anchor="middle" x="263.5" y="-1109.5" font-family="Helvetica,sans-Serif" font-size="10.00">get_onecapture</text>
</a>
</g>
</g>
<!-- Node145&#45;&gt;Node171 -->
<g id="edge26" class="edge"><title>Node145&#45;&gt;Node171</title>
<path fill="none" stroke="midnightblue" d="M389.821,-846.795C389.524,-895.265 382.048,-1021.17 316,-1093 312.452,-1096.86 308.052,-1099.94 303.329,-1102.39"/>
<polygon fill="midnightblue" stroke="midnightblue" points="393.321,-846.684 389.781,-836.698 386.321,-846.712 393.321,-846.684"/>
</g>
<!-- Node174 -->
<g id="node27" class="node"><title>Node174</title>
<g id="a_node27"><a xlink:href="loslib_8c.html#aa0a7f676dc564dbc1a3c16c917b933c9" target="_top" xlink:title=" ">
<polygon fill="white" stroke="red" points="240,-494.5 240,-513.5 287,-513.5 287,-494.5 240,-494.5"/>
<text text-anchor="middle" x="263.5" y="-501.5" font-family="Helvetica,sans-Serif" font-size="10.00">getfield</text>
</a>
</g>
</g>
<!-- Node145&#45;&gt;Node174 -->
<g id="edge28" class="edge"><title>Node145&#45;&gt;Node174</title>
<path fill="none" stroke="midnightblue" d="M387.158,-807.227C379.635,-746.798 354.323,-566.058 316,-523 308.587,-514.671 297.193,-509.987 287.005,-507.355"/>
<polygon fill="midnightblue" stroke="midnightblue" points="383.706,-807.839 388.389,-817.342 390.655,-806.993 383.706,-807.839"/>
</g>
<!-- Node175 -->
<g id="node28" class="node"><title>Node175</title>
<g id="a_node28"><a xlink:href="liolib_8c.html#a3bccbdacdc9f21f22a603525be1f3699" target="_top" xlink:title=" ">
<polygon fill="white" stroke="red" points="238.5,-456.5 238.5,-475.5 288.5,-475.5 288.5,-456.5 238.5,-456.5"/>
<text text-anchor="middle" x="263.5" y="-463.5" font-family="Helvetica,sans-Serif" font-size="10.00">getiofile</text>
</a>
</g>
</g>
<!-- Node145&#45;&gt;Node175 -->
<g id="edge29" class="edge"><title>Node145&#45;&gt;Node175</title>
<path fill="none" stroke="midnightblue" d="M387.747,-807.366C381.563,-742.188 358.796,-534.337 316,-485 309.068,-477.009 298.466,-472.376 288.678,-469.691"/>
<polygon fill="midnightblue" stroke="midnightblue" points="384.278,-807.862 388.683,-817.498 391.248,-807.219 384.278,-807.862"/>
</g>
<!-- Node177 -->
<g id="node29" class="node"><title>Node177</title>
<g id="a_node29"><a xlink:href="lstrlib_8c.html#a2e2809fc0c800ac97e4122f33434b94a" target="_top" xlink:title=" ">
<polygon fill="white" stroke="black" points="230,-380.5 230,-399.5 297,-399.5 297,-380.5 230,-380.5"/>
<text text-anchor="middle" x="263.5" y="-387.5" font-family="Helvetica,sans-Serif" font-size="10.00">getnumlimit</text>
</a>
</g>
</g>
<!-- Node145&#45;&gt;Node177 -->
<g id="edge30" class="edge"><title>Node145&#45;&gt;Node177</title>
<path fill="none" stroke="midnightblue" d="M388.341,-806.889C383.719,-732.925 364.454,-477.027 316,-414 311.19,-407.744 304.357,-403.054 297.235,-399.562"/>
<polygon fill="midnightblue" stroke="midnightblue" points="384.863,-807.369 388.959,-817.14 391.851,-806.947 384.863,-807.369"/>
</g>
<!-- Node178 -->
<g id="node30" class="node"><title>Node178</title>
<g id="a_node30"><a xlink:href="lstrlib_8c.html#adcf5c53b9f1a52366c286fea5f9aeda7" target="_top" xlink:title=" ">
<polygon fill="white" stroke="red" points="107,-399.5 107,-418.5 163,-418.5 163,-399.5 107,-399.5"/>
<text text-anchor="middle" x="135" y="-406.5" font-family="Helvetica,sans-Serif" font-size="10.00">getoption</text>
</a>
</g>
</g>
<!-- Node145&#45;&gt;Node178 -->
<g id="edge32" class="edge"><title>Node145&#45;&gt;Node178</title>
<path fill="none" stroke="midnightblue" d="M388.483,-807.237C384.448,-736.747 367.206,-499.084 316,-447 295.008,-425.648 208.207,-415.189 163.257,-411.12"/>
<polygon fill="midnightblue" stroke="midnightblue" points="384.998,-807.601 389.038,-817.395 391.987,-807.219 384.998,-807.601"/>
</g>
<!-- Node17 -->
<g id="node31" class="node"><title>Node17</title>
<g id="a_node31"><a xlink:href="liolib_8c.html#ac37d80ee2cc364b4adafcb6f7c20f28b" target="_top" xlink:title=" ">
<polygon fill="white" stroke="red" points="103.5,-612.5 103.5,-631.5 166.5,-631.5 166.5,-612.5 103.5,-612.5"/>
<text text-anchor="middle" x="135" y="-619.5" font-family="Helvetica,sans-Serif" font-size="10.00">io_readline</text>
</a>
</g>
</g>
<!-- Node145&#45;&gt;Node17 -->
<g id="edge33" class="edge"><title>Node145&#45;&gt;Node17</title>
<path fill="none" stroke="midnightblue" d="M387.629,-807.076C382.945,-769.389 367.137,-687.877 316,-648 272.801,-614.313 205.479,-614.345 166.574,-617.864"/>
<polygon fill="midnightblue" stroke="midnightblue" points="384.178,-807.714 388.752,-817.27 391.135,-806.947 384.178,-807.714"/>
</g>
<!-- Node92 -->
<g id="node32" class="node"><title>Node92</title>
<g id="a_node32"><a xlink:href="lutf8lib_8c.html#ad5fc4a8936de51af672e82150c82a49a" target="_top" xlink:title=" ">
<polygon fill="white" stroke="red" points="238,-342.5 238,-361.5 289,-361.5 289,-342.5 238,-342.5"/>
<text text-anchor="middle" x="263.5" y="-349.5" font-family="Helvetica,sans-Serif" font-size="10.00">iter_aux</text>
</a>
</g>
</g>
<!-- Node145&#45;&gt;Node92 -->
<g id="edge34" class="edge"><title>Node145&#45;&gt;Node92</title>
<path fill="none" stroke="midnightblue" d="M388.898,-807.223C386.128,-728.622 372.216,-439.31 316,-371 309.339,-362.906 298.893,-358.259 289.146,-355.592"/>
<polygon fill="midnightblue" stroke="midnightblue" points="385.401,-807.36 389.23,-817.239 392.397,-807.129 385.401,-807.36"/>
</g>
<!-- Node179 -->
<g id="node33" class="node"><title>Node179</title>
<g id="a_node33"><a xlink:href="lua_8c.html#a6da2ce581018529235ae1da1e32c7919" target="_top" xlink:title=" ">
<polygon fill="white" stroke="red" points="244.5,-304.5 244.5,-323.5 282.5,-323.5 282.5,-304.5 244.5,-304.5"/>
<text text-anchor="middle" x="263.5" y="-311.5" font-family="Helvetica,sans-Serif" font-size="10.00">lstop</text>
</a>
</g>
</g>
<!-- Node145&#45;&gt;Node179 -->
<g id="edge35" class="edge"><title>Node145&#45;&gt;Node179</title>
<path fill="none" stroke="midnightblue" d="M389.169,-807.188C387.404,-724.492 376.723,-407.704 316,-333 307.885,-323.017 294.007,-318.279 282.701,-316.03"/>
<polygon fill="midnightblue" stroke="midnightblue" points="385.671,-807.323 389.363,-817.253 392.669,-807.188 385.671,-807.323"/>
</g>
<!-- Node181 -->
<g id="node34" class="node"><title>Node181</title>
<g id="a_node34"><a xlink:href="lcorolib_8c.html#a3c6a70201b343432bfeb1f3e09cdde6f" target="_top" xlink:title=" ">
<polygon fill="white" stroke="black" points="231,-266.5 231,-285.5 296,-285.5 296,-266.5 231,-266.5"/>
<text text-anchor="middle" x="263.5" y="-273.5" font-family="Helvetica,sans-Serif" font-size="10.00">luaB_close</text>
</a>
</g>
</g>
<!-- Node145&#45;&gt;Node181 -->
<g id="edge36" class="edge"><title>Node145&#45;&gt;Node181</title>
<path fill="none" stroke="midnightblue" d="M389.404,-807.342C388.6,-721.009 381.29,-376.181 316,-295 310.983,-288.762 303.714,-284.572 296.21,-281.758"/>
<polygon fill="midnightblue" stroke="midnightblue" points="385.904,-807.385 389.477,-817.359 392.904,-807.334 385.904,-807.385"/>
</g>
<!-- Node125 -->
<g id="node35" class="node"><title>Node125</title>
<g id="a_node35"><a xlink:href="lbaselib_8c.html#af7799a987ba6d158a96a52e80fb5beaf" target="_top" xlink:title=" ">
<polygon fill="white" stroke="black" points="214.5,-1406.5 214.5,-1425.5 312.5,-1425.5 312.5,-1406.5 214.5,-1406.5"/>
<text text-anchor="middle" x="263.5" y="-1413.5" font-family="Helvetica,sans-Serif" font-size="10.00">luaB_setmetatable</text>
</a>
</g>
</g>
<!-- Node145&#45;&gt;Node125 -->
<g id="edge37" class="edge"><title>Node145&#45;&gt;Node125</title>
<path fill="none" stroke="midnightblue" d="M387.225,-846.845C375.795,-946.272 324.822,-1385.93 316,-1397 312.912,-1400.88 308.953,-1403.96 304.605,-1406.42"/>
<polygon fill="midnightblue" stroke="midnightblue" points="390.729,-847.017 388.392,-836.683 383.774,-846.218 390.729,-847.017"/>
</g>
<!-- Node182 -->
<g id="node36" class="node"><title>Node182</title>
<g id="a_node36"><a xlink:href="lauxlib_8h.html#a724f5a5aeee97c0b40948c8bca91341c" target="_top" xlink:title=" ">
<polygon fill="white" stroke="red" points="218.5,-684.5 218.5,-703.5 308.5,-703.5 308.5,-684.5 218.5,-684.5"/>
<text text-anchor="middle" x="263.5" y="-691.5" font-family="Helvetica,sans-Serif" font-size="10.00">luaL_checkstack</text>
</a>
</g>
</g>
<!-- Node145&#45;&gt;Node182 -->
<g id="edge39" class="edge"><title>Node145&#45;&gt;Node182</title>
<path fill="none" stroke="midnightblue" d="M380.851,-808.245C369.103,-784.523 346.07,-743.679 316,-718 309.024,-712.043 300.32,-707.246 292.064,-703.554"/>
<polygon fill="midnightblue" stroke="midnightblue" points="377.7,-809.769 385.183,-817.269 384.011,-806.74 377.7,-809.769"/>
</g>
<!-- Node212 -->
<g id="node37" class="node"><title>Node212</title>
<g id="a_node37"><a xlink:href="lauxlib_8h.html#ab42194a5a9cd8a6f6ee9123ef1807e52" target="_top" xlink:title=" ">
<polygon fill="white" stroke="black" points="213,-1368.5 213,-1387.5 314,-1387.5 314,-1368.5 213,-1368.5"/>
<text text-anchor="middle" x="263.5" y="-1375.5" font-family="Helvetica,sans-Serif" font-size="10.00">luaL_checkversion_</text>
</a>
</g>
</g>
<!-- Node145&#45;&gt;Node212 -->
<g id="edge43" class="edge"><title>Node145&#45;&gt;Node212</title>
<path fill="none" stroke="midnightblue" d="M387.333,-846.869C376.99,-941.014 332.478,-1338.51 316,-1359 312.894,-1362.86 308.925,-1365.94 304.572,-1368.39"/>
<polygon fill="midnightblue" stroke="midnightblue" points="390.834,-847.043 388.444,-836.722 383.876,-846.281 390.834,-847.043"/>
</g>
<!-- Node213 -->
<g id="node38" class="node"><title>Node213</title>
<g id="a_node38"><a xlink:href="lauxlib_8h.html#ac9d38b77e425247b630afdb212401a05" target="_top" xlink:title=" ">
<polygon fill="white" stroke="red" points="237,-1330.5 237,-1349.5 290,-1349.5 290,-1330.5 237,-1330.5"/>
<text text-anchor="middle" x="263.5" y="-1337.5" font-family="Helvetica,sans-Serif" font-size="10.00">luaL_len</text>
</a>
</g>
</g>
<!-- Node145&#45;&gt;Node213 -->
<g id="edge44" class="edge"><title>Node145&#45;&gt;Node213</title>
<path fill="none" stroke="midnightblue" d="M387.118,-846.857C376.263,-936.762 331.341,-1302.13 316,-1321 309.628,-1328.84 299.703,-1333.44 290.261,-1336.15"/>
<polygon fill="midnightblue" stroke="midnightblue" points="390.599,-847.229 388.319,-836.882 383.649,-846.392 390.599,-847.229"/>
</g>
<!-- Node219 -->
<g id="node39" class="node"><title>Node219</title>
<g id="a_node39"><a xlink:href="lauxlib_8h.html#aef6da057d1e26ed6449b92177f1f2f5a" target="_top" xlink:title=" ">
<polygon fill="white" stroke="red" points="226.5,-1292.5 226.5,-1311.5 300.5,-1311.5 300.5,-1292.5 226.5,-1292.5"/>
<text text-anchor="middle" x="263.5" y="-1299.5" font-family="Helvetica,sans-Serif" font-size="10.00">luaL_tolstring</text>
</a>
</g>
</g>
<!-- Node145&#45;&gt;Node219 -->
<g id="edge45" class="edge"><title>Node145&#45;&gt;Node219</title>
<path fill="none" stroke="midnightblue" d="M387.513,-846.576C378.951,-929.426 344.348,-1248.55 316,-1283 311.943,-1287.93 306.481,-1291.58 300.629,-1294.28"/>
<polygon fill="midnightblue" stroke="midnightblue" points="391.007,-846.812 388.546,-836.508 384.044,-846.099 391.007,-846.812"/>
</g>
<!-- Node226 -->
<g id="node40" class="node"><title>Node226</title>
<g id="a_node40"><a xlink:href="lstrlib_8c.html#aacb8f9104a816720da707ecf5219a96e" target="_top" xlink:title=" ">
<polygon fill="white" stroke="black" points="225,-760.5 225,-779.5 302,-779.5 302,-760.5 225,-760.5"/>
<text text-anchor="middle" x="263.5" y="-767.5" font-family="Helvetica,sans-Serif" font-size="10.00">matchbalance</text>
</a>
</g>
</g>
<!-- Node145&#45;&gt;Node226 -->
<g id="edge47" class="edge"><title>Node145&#45;&gt;Node226</title>
<path fill="none" stroke="midnightblue" d="M363.583,-812.603C349.677,-805.134 332.126,-796.111 316,-789 308.414,-785.655 300.036,-782.389 292.28,-779.535"/>
<polygon fill="midnightblue" stroke="midnightblue" points="362.107,-815.784 372.565,-817.483 365.449,-809.633 362.107,-815.784"/>
</g>
<!-- Node64 -->
<g id="node41" class="node"><title>Node64</title>
<g id="a_node41"><a xlink:href="lmathlib_8c.html#aa3ad02d4204d21d35a0825281915fb22" target="_top" xlink:title=" ">
<polygon fill="white" stroke="black" points="225.5,-1254.5 225.5,-1273.5 301.5,-1273.5 301.5,-1254.5 225.5,-1254.5"/>
<text text-anchor="middle" x="263.5" y="-1261.5" font-family="Helvetica,sans-Serif" font-size="10.00">math_random</text>
</a>
</g>
</g>
<!-- Node145&#45;&gt;Node64 -->
<g id="edge49" class="edge"><title>Node145&#45;&gt;Node64</title>
<path fill="none" stroke="midnightblue" d="M388.341,-847.111C383.719,-921.075 364.454,-1176.97 316,-1240 311.19,-1246.26 304.357,-1250.95 297.235,-1254.44"/>
<polygon fill="midnightblue" stroke="midnightblue" points="391.851,-847.053 388.959,-836.86 384.863,-846.631 391.851,-847.053"/>
</g>
<!-- Node146&#45;&gt;Node147 -->
<g id="edge12" class="edge"><title>Node146&#45;&gt;Node147</title>
<path fill="none" stroke="midnightblue" d="M102.993,-1155.69C89.1173,-1158.24 72.8577,-1161.22 59.2575,-1163.72"/>
<polygon fill="midnightblue" stroke="midnightblue" points="103.852,-1159.09 113.055,-1153.84 102.588,-1152.21 103.852,-1159.09"/>
</g>
<!-- Node166&#45;&gt;Node151 -->
<g id="edge21" class="edge"><title>Node166&#45;&gt;Node151</title>
<path fill="none" stroke="midnightblue" d="M225.275,-808C203.109,-808 175.777,-808 157.237,-808"/>
<polygon fill="midnightblue" stroke="midnightblue" points="225.363,-811.5 235.363,-808 225.363,-804.5 225.363,-811.5"/>
</g>
<!-- Node171&#45;&gt;Node146 -->
<g id="edge27" class="edge"><title>Node171&#45;&gt;Node146</title>
<path fill="none" stroke="midnightblue" d="M220.719,-1124.55C199.278,-1130.99 174.103,-1138.55 156.8,-1143.75"/>
<polygon fill="midnightblue" stroke="midnightblue" points="222.008,-1127.82 230.579,-1121.59 219.995,-1121.11 222.008,-1127.82"/>
</g>
<!-- Node177&#45;&gt;Node178 -->
<g id="edge31" class="edge"><title>Node177&#45;&gt;Node178</title>
<path fill="none" stroke="midnightblue" d="M219.873,-396.402C201.198,-399.207 179.829,-402.417 163.334,-404.894"/>
<polygon fill="midnightblue" stroke="midnightblue" points="220.554,-399.84 229.923,-394.893 219.514,-392.917 220.554,-399.84"/>
</g>
<!-- Node182&#45;&gt;Node40 -->
<g id="edge40" class="edge"><title>Node182&#45;&gt;Node40</title>
<path fill="none" stroke="midnightblue" d="M208.046,-702.179C193.081,-704.427 177.447,-706.775 164.581,-708.707"/>
<polygon fill="midnightblue" stroke="midnightblue" points="208.887,-705.592 218.256,-700.645 207.847,-698.669 208.887,-705.592"/>
</g>
<!-- Node182&#45;&gt;Node170 -->
<g id="edge41" class="edge"><title>Node182&#45;&gt;Node170</title>
<path fill="none" stroke="midnightblue" d="M210.882,-682.167C198.953,-679.432 186.452,-676.566 175.156,-673.977"/>
<polygon fill="midnightblue" stroke="midnightblue" points="210.199,-685.601 220.729,-684.424 211.764,-678.778 210.199,-685.601"/>
</g>
<!-- Node182&#45;&gt;Node17 -->
<g id="edge42" class="edge"><title>Node182&#45;&gt;Node17</title>
<path fill="none" stroke="midnightblue" d="M236.76,-679.35C211.705,-665.089 174.356,-643.831 152.868,-631.601"/>
<polygon fill="midnightblue" stroke="midnightblue" points="235.28,-682.534 245.702,-684.439 238.742,-676.451 235.28,-682.534"/>
</g>
<!-- Node226&#45;&gt;Node151 -->
<g id="edge48" class="edge"><title>Node226&#45;&gt;Node151</title>
<path fill="none" stroke="midnightblue" d="M220.784,-782.531C199.486,-788.929 174.49,-796.438 157.182,-801.637"/>
<polygon fill="midnightblue" stroke="midnightblue" points="222.008,-785.818 230.579,-779.589 219.995,-779.114 222.008,-785.818"/>
</g>
<!-- Node254 -->
<g id="node44" class="node"><title>Node254</title>
<g id="a_node44"><a xlink:href="ldo_8c.html#aa7d32ccef16c2d4fe63604c4c457831d" target="_top" xlink:title=" ">
<polygon fill="white" stroke="red" points="372,-76.5 372,-95.5 409,-95.5 409,-76.5 372,-76.5"/>
<text text-anchor="middle" x="390.5" y="-83.5" font-family="Helvetica,sans-Serif" font-size="10.00">ccall</text>
</a>
</g>
</g>
<!-- Node253&#45;&gt;Node254 -->
<g id="edge52" class="edge"><title>Node253&#45;&gt;Node254</title>
<path fill="none" stroke="midnightblue" d="M464.947,-111.144C446.053,-104.676 424.05,-97.1433 409.088,-92.0212"/>
<polygon fill="midnightblue" stroke="midnightblue" points="463.895,-114.483 474.49,-114.411 466.163,-107.861 463.895,-114.483"/>
</g>
<!-- Node485 -->
<g id="node45" class="node"><title>Node485</title>
<g id="a_node45"><a xlink:href="ldo_8c.html#abd7632c715de5db6e7797b7fa3f7010f" target="_top" xlink:title=" ">
<polygon fill="white" stroke="red" points="239,-114.5 239,-133.5 288,-133.5 288,-114.5 239,-114.5"/>
<text text-anchor="middle" x="263.5" y="-121.5" font-family="Helvetica,sans-Serif" font-size="10.00">resume</text>
</a>
</g>
</g>
<!-- Node253&#45;&gt;Node485 -->
<g id="edge54" class="edge"><title>Node253&#45;&gt;Node485</title>
<path fill="none" stroke="midnightblue" d="M455.296,-124C404.834,-124 326.864,-124 288.081,-124"/>
<polygon fill="midnightblue" stroke="midnightblue" points="455.313,-127.5 465.313,-124 455.312,-120.5 455.313,-127.5"/>
</g>
<!-- Node649 -->
<g id="node46" class="node"><title>Node649</title>
<g id="a_node46"><a xlink:href="ldo_8c.html#a3baab9d298c0c32cb74a9a079d7244de" target="_top" xlink:title=" ">
<polygon fill="white" stroke="red" points="370.5,-152.5 370.5,-171.5 410.5,-171.5 410.5,-152.5 370.5,-152.5"/>
<text text-anchor="middle" x="390.5" y="-159.5" font-family="Helvetica,sans-Serif" font-size="10.00">unroll</text>
</a>
</g>
</g>
<!-- Node253&#45;&gt;Node649 -->
<g id="edge55" class="edge"><title>Node253&#45;&gt;Node649</title>
<path fill="none" stroke="midnightblue" d="M465.004,-136.836C446.791,-143.072 425.676,-150.3 410.763,-155.405"/>
<polygon fill="midnightblue" stroke="midnightblue" points="466.163,-140.139 474.49,-133.589 463.895,-133.517 466.163,-140.139"/>
</g>
<!-- Node254&#45;&gt;Node485 -->
<g id="edge53" class="edge"><title>Node254&#45;&gt;Node485</title>
<path fill="none" stroke="midnightblue" d="M362.057,-94.3427C339.902,-101.078 309.061,-110.453 288.024,-116.849"/>
<polygon fill="midnightblue" stroke="midnightblue" points="363.306,-97.6212 371.856,-91.3639 361.27,-90.9238 363.306,-97.6212"/>
</g>
<!-- Node649&#45;&gt;Node485 -->
<g id="edge56" class="edge"><title>Node649&#45;&gt;Node485</title>
<path fill="none" stroke="midnightblue" d="M360.476,-153.177C338.54,-146.508 308.801,-137.467 288.268,-131.225"/>
<polygon fill="midnightblue" stroke="midnightblue" points="359.657,-156.586 370.243,-156.146 361.693,-149.888 359.657,-156.586"/>
</g>
<!-- Node653&#45;&gt;Node649 -->
<g id="edge58" class="edge"><title>Node653&#45;&gt;Node649</title>
<path fill="none" stroke="midnightblue" d="M454.861,-162C439.288,-162 422.872,-162 410.653,-162"/>
<polygon fill="midnightblue" stroke="midnightblue" points="454.92,-165.5 464.92,-162 454.92,-158.5 454.92,-165.5"/>
</g>
<!-- Node467 -->
<g id="node49" class="node"><title>Node467</title>
<g id="a_node49"><a xlink:href="lobject_8c.html#a874ab64f433ee35f2197a81e10452cb1" target="_top" xlink:title=" ">
<polygon fill="white" stroke="red" points="231.5,-19.5 231.5,-38.5 295.5,-38.5 295.5,-19.5 231.5,-19.5"/>
<text text-anchor="middle" x="263.5" y="-26.5" font-family="Helvetica,sans-Serif" font-size="10.00">addstr2buff</text>
</a>
</g>
</g>
<!-- Node466&#45;&gt;Node467 -->
<g id="edge60" class="edge"><title>Node466&#45;&gt;Node467</title>
<path fill="none" stroke="midnightblue" d="M468.704,-45.302C422.503,-41.6137 340.275,-35.0493 295.553,-31.479"/>
<polygon fill="midnightblue" stroke="midnightblue" points="468.563,-48.8018 478.81,-46.1087 469.12,-41.824 468.563,-48.8018"/>
</g>
<!-- Node616 -->
<g id="node50" class="node"><title>Node616</title>
<g id="a_node50"><a xlink:href="lobject_8c.html#a6ec2716e64cd75e3e6614a87ee92e4d2" target="_top" xlink:title=" ">
<polygon fill="white" stroke="red" points="364,-0.5 364,-19.5 417,-19.5 417,-0.5 364,-0.5"/>
<text text-anchor="middle" x="390.5" y="-7.5" font-family="Helvetica,sans-Serif" font-size="10.00">clearbuff</text>
</a>
</g>
</g>
<!-- Node466&#45;&gt;Node616 -->
<g id="edge61" class="edge"><title>Node466&#45;&gt;Node616</title>
<path fill="none" stroke="midnightblue" d="M469.1,-36.5656C452.502,-30.8836 432.753,-24.1227 417.332,-18.8434"/>
<polygon fill="midnightblue" stroke="midnightblue" points="468.365,-40.0136 478.96,-39.9412 470.632,-33.3909 468.365,-40.0136"/>
</g>
<!-- Node616&#45;&gt;Node467 -->
<g id="edge62" class="edge"><title>Node616&#45;&gt;Node467</title>
<path fill="none" stroke="midnightblue" d="M353.901,-15.411C335.592,-18.194 313.477,-21.5554 295.824,-24.2388"/>
<polygon fill="midnightblue" stroke="midnightblue" points="354.542,-18.8539 363.903,-13.8908 353.49,-11.9333 354.542,-18.8539"/>
</g>
</g>
</svg>
