<?xml version="1.0" encoding="UTF-8" standalone="no"?>
<!DOCTYPE svg PUBLIC "-//W3C//DTD SVG 1.1//EN"
 "http://www.w3.org/Graphics/SVG/1.1/DTD/svg11.dtd">
<!-- Generated by graphviz version 2.38.0 (20140413.2041)
 -->
<!-- Title: dostring Pages: 1 -->
<svg width="1229pt" height="749pt"
 viewBox="0.00 0.00 1229.00 749.06" xmlns="http://www.w3.org/2000/svg" xmlns:xlink="http://www.w3.org/1999/xlink">
<g id="graph0" class="graph" transform="scale(1 1) rotate(0) translate(4 745.06)">
<title>dostring</title>
<polygon fill="white" stroke="none" points="-4,4 -4,-745.06 1225,-745.06 1225,4 -4,4"/>
<!-- Node1 -->
<g id="node1" class="node"><title>Node1</title>
<g id="a_node1"><a xlink:title=" ">
<polygon fill="#bfbfbf" stroke="black" points="0,-118.5 0,-137.5 51,-137.5 51,-118.5 0,-118.5"/>
<text text-anchor="middle" x="25.5" y="-125.5" font-family="Helvetica,sans-Serif" font-size="10.00">dostring</text>
</a>
</g>
</g>
<!-- Node2 -->
<g id="node2" class="node"><title>Node2</title>
<g id="a_node2"><a xlink:href="lua_8c.html#a84103428a06a64ccca2c23a8045f3291" target="_top" xlink:title=" ">
<polygon fill="white" stroke="black" points="87,-118.5 87,-137.5 140,-137.5 140,-118.5 87,-118.5"/>
<text text-anchor="middle" x="113.5" y="-125.5" font-family="Helvetica,sans-Serif" font-size="10.00">dochunk</text>
</a>
</g>
</g>
<!-- Node1&#45;&gt;Node2 -->
<g id="edge1" class="edge"><title>Node1&#45;&gt;Node2</title>
<path fill="none" stroke="midnightblue" d="M51.3748,-128C59.2748,-128 68.1738,-128 76.6862,-128"/>
<polygon fill="midnightblue" stroke="midnightblue" points="76.7846,-131.5 86.7845,-128 76.7845,-124.5 76.7846,-131.5"/>
</g>
<!-- Node3 -->
<g id="node3" class="node"><title>Node3</title>
<g id="a_node3"><a xlink:href="lua_8c.html#a49e04420c2846b52e378ef6272bbf75b" target="_top" xlink:title=" ">
<polygon fill="white" stroke="black" points="176,-142.5 176,-161.5 218,-161.5 218,-142.5 176,-142.5"/>
<text text-anchor="middle" x="197" y="-149.5" font-family="Helvetica,sans-Serif" font-size="10.00">docall</text>
</a>
</g>
</g>
<!-- Node2&#45;&gt;Node3 -->
<g id="edge2" class="edge"><title>Node2&#45;&gt;Node3</title>
<path fill="none" stroke="midnightblue" d="M140.287,-135.594C148.443,-137.996 157.528,-140.671 165.955,-143.152"/>
<polygon fill="midnightblue" stroke="midnightblue" points="165.22,-146.585 175.802,-146.052 167.198,-139.87 165.22,-146.585"/>
</g>
<!-- Node527 -->
<g id="node49" class="node"><title>Node527</title>
<g id="a_node49"><a xlink:href="lua_8c.html#a037f0feafa76682f422cd7e2fb387f44" target="_top" xlink:title=" ">
<polygon fill="white" stroke="black" points="176.5,-95.5 176.5,-114.5 217.5,-114.5 217.5,-95.5 176.5,-95.5"/>
<text text-anchor="middle" x="197" y="-102.5" font-family="Helvetica,sans-Serif" font-size="10.00">report</text>
</a>
</g>
</g>
<!-- Node2&#45;&gt;Node527 -->
<g id="edge70" class="edge"><title>Node2&#45;&gt;Node527</title>
<path fill="none" stroke="midnightblue" d="M140.287,-120.723C148.667,-118.358 158.027,-115.716 166.647,-113.284"/>
<polygon fill="midnightblue" stroke="midnightblue" points="167.65,-116.638 176.323,-110.553 165.748,-109.901 167.65,-116.638"/>
</g>
<!-- Node4 -->
<g id="node4" class="node"><title>Node4</title>
<g id="a_node4"><a xlink:href="lua_8c.html#acbccdc65e78da44329f7ee6be03cf0bd" target="_top" xlink:title=" ">
<polygon fill="white" stroke="black" points="263.5,-114.5 263.5,-133.5 308.5,-133.5 308.5,-114.5 263.5,-114.5"/>
<text text-anchor="middle" x="286" y="-121.5" font-family="Helvetica,sans-Serif" font-size="10.00">laction</text>
</a>
</g>
</g>
<!-- Node3&#45;&gt;Node4 -->
<g id="edge3" class="edge"><title>Node3&#45;&gt;Node4</title>
<path fill="none" stroke="midnightblue" d="M218.178,-145.506C228.767,-142.098 241.972,-137.848 253.842,-134.028"/>
<polygon fill="midnightblue" stroke="midnightblue" points="254.964,-137.344 263.411,-130.948 252.819,-130.68 254.964,-137.344"/>
</g>
<!-- Node464 -->
<g id="node25" class="node"><title>Node464</title>
<g id="a_node25"><a xlink:href="lapi_8c.html#afbb08ecb69421875494105d4de68e5bf" target="_top" xlink:title=" ">
<polygon fill="white" stroke="black" points="853.5,-238.5 853.5,-257.5 915.5,-257.5 915.5,-238.5 853.5,-238.5"/>
<text text-anchor="middle" x="884.5" y="-245.5" font-family="Helvetica,sans-Serif" font-size="10.00">lua_gettop</text>
</a>
</g>
</g>
<!-- Node3&#45;&gt;Node464 -->
<g id="edge31" class="edge"><title>Node3&#45;&gt;Node464</title>
<path fill="none" stroke="midnightblue" d="M218.068,-153.765C252.497,-156.636 325.053,-162 386.5,-162 386.5,-162 386.5,-162 619.5,-162 710.856,-162 811.636,-209.133 857.818,-233.613"/>
<polygon fill="midnightblue" stroke="midnightblue" points="856.358,-236.802 866.821,-238.468 859.681,-230.641 856.358,-236.802"/>
</g>
<!-- Node465 -->
<g id="node26" class="node"><title>Node465</title>
<g id="a_node26"><a xlink:href="lua_8c.html#aaf236b6f4e03469c893b4a32e9a02ab2" target="_top" xlink:title=" ">
<polygon fill="white" stroke="black" points="354,-418.5 354,-437.5 421,-437.5 421,-418.5 354,-418.5"/>
<text text-anchor="middle" x="387.5" y="-425.5" font-family="Helvetica,sans-Serif" font-size="10.00">msghandler</text>
</a>
</g>
</g>
<!-- Node3&#45;&gt;Node465 -->
<g id="edge32" class="edge"><title>Node3&#45;&gt;Node465</title>
<path fill="none" stroke="midnightblue" d="M204.489,-161.501C231.787,-201.471 337.58,-356.372 374.055,-409.778"/>
<polygon fill="midnightblue" stroke="midnightblue" points="371.313,-411.97 379.844,-418.254 377.094,-408.022 371.313,-411.97"/>
</g>
<!-- Node5 -->
<g id="node5" class="node"><title>Node5</title>
<g id="a_node5"><a xlink:href="lua_8c.html#a6da2ce581018529235ae1da1e32c7919" target="_top" xlink:title=" ">
<polygon fill="white" stroke="black" points="368.5,-114.5 368.5,-133.5 406.5,-133.5 406.5,-114.5 368.5,-114.5"/>
<text text-anchor="middle" x="387.5" y="-121.5" font-family="Helvetica,sans-Serif" font-size="10.00">lstop</text>
</a>
</g>
</g>
<!-- Node4&#45;&gt;Node5 -->
<g id="edge4" class="edge"><title>Node4&#45;&gt;Node5</title>
<path fill="none" stroke="midnightblue" d="M308.59,-124C323.079,-124 342.319,-124 358.054,-124"/>
<polygon fill="midnightblue" stroke="midnightblue" points="358.286,-127.5 368.286,-124 358.286,-120.5 358.286,-127.5"/>
</g>
<!-- Node6 -->
<g id="node6" class="node"><title>Node6</title>
<g id="a_node6"><a xlink:href="ldebug_8c.html#ac9d3d168561f5c1a747a3ab198f0f092" target="_top" xlink:title=" ">
<polygon fill="white" stroke="black" points="464,-76.5 464,-95.5 533,-95.5 533,-76.5 464,-76.5"/>
<text text-anchor="middle" x="498.5" y="-83.5" font-family="Helvetica,sans-Serif" font-size="10.00">lua_sethook</text>
</a>
</g>
</g>
<!-- Node4&#45;&gt;Node6 -->
<g id="edge30" class="edge"><title>Node4&#45;&gt;Node6</title>
<path fill="none" stroke="midnightblue" d="M308.529,-117.037C321.571,-113.034 338.608,-108.184 354,-105 387.206,-98.1311 425.273,-93.2247 453.852,-90.1203"/>
<polygon fill="midnightblue" stroke="midnightblue" points="454.347,-93.5875 463.925,-89.0578 453.613,-86.6261 454.347,-93.5875"/>
</g>
<!-- Node5&#45;&gt;Node6 -->
<g id="edge5" class="edge"><title>Node5&#45;&gt;Node6</title>
<path fill="none" stroke="midnightblue" d="M406.99,-117.554C421.545,-112.48 442.301,-105.244 460.266,-98.9807"/>
<polygon fill="midnightblue" stroke="midnightblue" points="461.612,-102.218 469.902,-95.6212 459.307,-95.6083 461.612,-102.218"/>
</g>
<!-- Node8 -->
<g id="node8" class="node"><title>Node8</title>
<g id="a_node8"><a xlink:href="lauxlib_8c.html#a6c51d83d29244779392551388913e08a" target="_top" xlink:title=" ">
<polygon fill="white" stroke="black" points="469,-114.5 469,-133.5 528,-133.5 528,-114.5 469,-114.5"/>
<text text-anchor="middle" x="498.5" y="-121.5" font-family="Helvetica,sans-Serif" font-size="10.00">luaL_error</text>
</a>
</g>
</g>
<!-- Node5&#45;&gt;Node8 -->
<g id="edge7" class="edge"><title>Node5&#45;&gt;Node8</title>
<path fill="none" stroke="midnightblue" d="M406.99,-124C421.105,-124 441.053,-124 458.632,-124"/>
<polygon fill="midnightblue" stroke="midnightblue" points="458.645,-127.5 468.645,-124 458.645,-120.5 458.645,-127.5"/>
</g>
<!-- Node7 -->
<g id="node7" class="node"><title>Node7</title>
<g id="a_node7"><a xlink:href="ldebug_8c.html#ac6e4d5f88c90151adb37f89be98c0309" target="_top" xlink:title=" ">
<polygon fill="white" stroke="black" points="592.5,-0.5 592.5,-19.5 644.5,-19.5 644.5,-0.5 592.5,-0.5"/>
<text text-anchor="middle" x="618.5" y="-7.5" font-family="Helvetica,sans-Serif" font-size="10.00">settraps</text>
</a>
</g>
</g>
<!-- Node6&#45;&gt;Node7 -->
<g id="edge6" class="edge"><title>Node6&#45;&gt;Node7</title>
<path fill="none" stroke="midnightblue" d="M510.888,-76.3066C525.383,-64.2598 551.491,-43.5205 576,-29 578.863,-27.3036 581.904,-25.6524 584.987,-24.0773"/>
<polygon fill="midnightblue" stroke="midnightblue" points="586.747,-27.114 594.227,-19.6109 583.701,-20.8117 586.747,-27.114"/>
</g>
<!-- Node9 -->
<g id="node9" class="node"><title>Node9</title>
<g id="a_node9"><a xlink:href="lapi_8c.html#a1de3afee1daece63d455f23818c883d9" target="_top" xlink:title=" ">
<polygon fill="white" stroke="red" points="586.5,-76.5 586.5,-95.5 650.5,-95.5 650.5,-76.5 586.5,-76.5"/>
<text text-anchor="middle" x="618.5" y="-83.5" font-family="Helvetica,sans-Serif" font-size="10.00">lua_concat</text>
</a>
</g>
</g>
<!-- Node8&#45;&gt;Node9 -->
<g id="edge8" class="edge"><title>Node8&#45;&gt;Node9</title>
<path fill="none" stroke="midnightblue" d="M528.065,-114.801C543.089,-109.963 561.741,-103.956 578.117,-98.6828"/>
<polygon fill="midnightblue" stroke="midnightblue" points="579.521,-101.908 587.966,-95.5109 577.375,-95.2447 579.521,-101.908"/>
</g>
<!-- Node452 -->
<g id="node10" class="node"><title>Node452</title>
<g id="a_node10"><a xlink:href="lapi_8c.html#a6ba7b91143fe8a03910420d800de8e97" target="_top" xlink:title=" ">
<polygon fill="white" stroke="red" points="591.5,-38.5 591.5,-57.5 645.5,-57.5 645.5,-38.5 591.5,-38.5"/>
<text text-anchor="middle" x="618.5" y="-45.5" font-family="Helvetica,sans-Serif" font-size="10.00">lua_error</text>
</a>
</g>
</g>
<!-- Node8&#45;&gt;Node452 -->
<g id="edge9" class="edge"><title>Node8&#45;&gt;Node452</title>
<path fill="none" stroke="midnightblue" d="M523.889,-114.361C529.411,-111.697 535.089,-108.547 540,-105 558.859,-91.3779 557.078,-80.5342 576,-67 578.357,-65.3145 580.886,-63.7229 583.492,-62.2328"/>
<polygon fill="midnightblue" stroke="midnightblue" points="585.23,-65.2741 592.502,-57.5682 582.012,-59.0579 585.23,-65.2741"/>
</g>
<!-- Node453 -->
<g id="node11" class="node"><title>Node453</title>
<g id="a_node11"><a xlink:href="lapi_8c.html#a426c9cb1d582be3e43060c4772854e5a" target="_top" xlink:title=" ">
<polygon fill="white" stroke="black" points="706.5,-114.5 706.5,-133.5 792.5,-133.5 792.5,-114.5 706.5,-114.5"/>
<text text-anchor="middle" x="749.5" y="-121.5" font-family="Helvetica,sans-Serif" font-size="10.00">lua_pushvfstring</text>
</a>
</g>
</g>
<!-- Node8&#45;&gt;Node453 -->
<g id="edge10" class="edge"><title>Node8&#45;&gt;Node453</title>
<path fill="none" stroke="midnightblue" d="M528.063,-124C568.936,-124 644.809,-124 695.977,-124"/>
<polygon fill="midnightblue" stroke="midnightblue" points="696.181,-127.5 706.181,-124 696.181,-120.5 696.181,-127.5"/>
</g>
<!-- Node454 -->
<g id="node19" class="node"><title>Node454</title>
<g id="a_node19"><a xlink:href="lauxlib_8c.html#a0f4d3c30c07eae36aa25605df84279a0" target="_top" xlink:title=" ">
<polygon fill="white" stroke="black" points="586,-304.5 586,-323.5 651,-323.5 651,-304.5 586,-304.5"/>
<text text-anchor="middle" x="618.5" y="-311.5" font-family="Helvetica,sans-Serif" font-size="10.00">luaL_where</text>
</a>
</g>
</g>
<!-- Node8&#45;&gt;Node454 -->
<g id="edge23" class="edge"><title>Node8&#45;&gt;Node454</title>
<path fill="none" stroke="midnightblue" d="M501.365,-133.881C507.242,-162.501 527.916,-246.497 576,-295 577.381,-296.393 578.882,-297.694 580.469,-298.908"/>
<polygon fill="midnightblue" stroke="midnightblue" points="578.617,-301.878 588.937,-304.275 582.365,-295.966 578.617,-301.878"/>
</g>
<!-- Node85 -->
<g id="node12" class="node"><title>Node85</title>
<g id="a_node12"><a xlink:href="lobject_8c.html#aa83fa444a36d79521e846a766fa083d5" target="_top" xlink:title=" ">
<polygon fill="white" stroke="black" points="838,-143.5 838,-162.5 931,-162.5 931,-143.5 838,-143.5"/>
<text text-anchor="middle" x="884.5" y="-150.5" font-family="Helvetica,sans-Serif" font-size="10.00">luaO_pushvfstring</text>
</a>
</g>
</g>
<!-- Node453&#45;&gt;Node85 -->
<g id="edge11" class="edge"><title>Node453&#45;&gt;Node85</title>
<path fill="none" stroke="midnightblue" d="M792.582,-133.176C804.472,-135.768 817.571,-138.625 830.035,-141.342"/>
<polygon fill="midnightblue" stroke="midnightblue" points="829.343,-144.773 839.859,-143.484 830.834,-137.934 829.343,-144.773"/>
</g>
<!-- Node86 -->
<g id="node13" class="node"><title>Node86</title>
<g id="a_node13"><a xlink:href="lobject_8c.html#a1d02fb9304e4700ce1fd20e34ae68784" target="_top" xlink:title=" ">
<polygon fill="white" stroke="red" points="973.5,-219.5 973.5,-238.5 1044.5,-238.5 1044.5,-219.5 973.5,-219.5"/>
<text text-anchor="middle" x="1009" y="-226.5" font-family="Helvetica,sans-Serif" font-size="10.00">addnum2buff</text>
</a>
</g>
</g>
<!-- Node85&#45;&gt;Node86 -->
<g id="edge12" class="edge"><title>Node85&#45;&gt;Node86</title>
<path fill="none" stroke="midnightblue" d="M897.752,-162.599C913.317,-174.549 941.259,-195.189 967,-210 970.015,-211.735 973.216,-213.439 976.448,-215.071"/>
<polygon fill="midnightblue" stroke="midnightblue" points="974.981,-218.249 985.509,-219.444 978.024,-211.945 974.981,-218.249"/>
</g>
<!-- Node87 -->
<g id="node14" class="node"><title>Node87</title>
<g id="a_node14"><a xlink:href="lobject_8c.html#ac4ab924f2ea45ef73319f1159033eab1" target="_top" xlink:title=" ">
<polygon fill="white" stroke="black" points="1087,-219.5 1087,-238.5 1132,-238.5 1132,-219.5 1087,-219.5"/>
<text text-anchor="middle" x="1109.5" y="-226.5" font-family="Helvetica,sans-Serif" font-size="10.00">getbuff</text>
</a>
</g>
</g>
<!-- Node85&#45;&gt;Node87 -->
<g id="edge19" class="edge"><title>Node85&#45;&gt;Node87</title>
<path fill="none" stroke="midnightblue" d="M890.135,-162.652C900.532,-183.028 927.906,-230.029 967,-248 1002.81,-264.463 1048.73,-253.141 1078.39,-242.201"/>
<polygon fill="midnightblue" stroke="midnightblue" points="1079.73,-245.434 1087.78,-238.546 1077.19,-238.91 1079.73,-245.434"/>
</g>
<!-- Node88 -->
<g id="node15" class="node"><title>Node88</title>
<g id="a_node15"><a xlink:href="lobject_8c.html#a6ec2716e64cd75e3e6614a87ee92e4d2" target="_top" xlink:title=" ">
<polygon fill="white" stroke="red" points="1168,-181.5 1168,-200.5 1221,-200.5 1221,-181.5 1168,-181.5"/>
<text text-anchor="middle" x="1194.5" y="-188.5" font-family="Helvetica,sans-Serif" font-size="10.00">clearbuff</text>
</a>
</g>
</g>
<!-- Node85&#45;&gt;Node88 -->
<g id="edge18" class="edge"><title>Node85&#45;&gt;Node88</title>
<path fill="none" stroke="midnightblue" d="M931.187,-158.018C964.435,-161.726 1010.53,-166.98 1051,-172 1087.4,-176.516 1128.96,-182.108 1157.77,-186.053"/>
<polygon fill="midnightblue" stroke="midnightblue" points="1157.39,-189.533 1167.78,-187.426 1158.34,-182.598 1157.39,-189.533"/>
</g>
<!-- Node113 -->
<g id="node16" class="node"><title>Node113</title>
<g id="a_node16"><a xlink:href="lobject_8c.html#a874ab64f433ee35f2197a81e10452cb1" target="_top" xlink:title=" ">
<polygon fill="white" stroke="red" points="977,-181.5 977,-200.5 1041,-200.5 1041,-181.5 977,-181.5"/>
<text text-anchor="middle" x="1009" y="-188.5" font-family="Helvetica,sans-Serif" font-size="10.00">addstr2buff</text>
</a>
</g>
</g>
<!-- Node85&#45;&gt;Node113 -->
<g id="edge15" class="edge"><title>Node85&#45;&gt;Node113</title>
<path fill="none" stroke="midnightblue" d="M916.412,-162.589C931.79,-167.359 950.582,-173.189 967.133,-178.323"/>
<polygon fill="midnightblue" stroke="midnightblue" points="966.51,-181.794 977.098,-181.414 968.584,-175.108 966.51,-181.794"/>
</g>
<!-- Node78 -->
<g id="node17" class="node"><title>Node78</title>
<g id="a_node17"><a xlink:href="ldebug_8c.html#a88d38ca5da2e7a1492fc9d5ad70c32c5" target="_top" xlink:title=" ">
<polygon fill="white" stroke="red" points="971.5,-105.5 971.5,-124.5 1046.5,-124.5 1046.5,-105.5 971.5,-105.5"/>
<text text-anchor="middle" x="1009" y="-112.5" font-family="Helvetica,sans-Serif" font-size="10.00">luaG_runerror</text>
</a>
</g>
</g>
<!-- Node85&#45;&gt;Node78 -->
<g id="edge20" class="edge"><title>Node85&#45;&gt;Node78</title>
<path fill="none" stroke="midnightblue" d="M901.264,-143.408C916.493,-136.914 940.318,-128.901 961.597,-122.824"/>
<polygon fill="midnightblue" stroke="midnightblue" points="962.765,-126.132 971.472,-120.096 960.901,-119.385 962.765,-126.132"/>
</g>
<!-- Node114 -->
<g id="node18" class="node"><title>Node114</title>
<g id="a_node18"><a xlink:href="lobject_8c.html#af3136de4693789b08f78aafda9604676" target="_top" xlink:title=" ">
<polygon fill="white" stroke="black" points="972,-67.5 972,-86.5 1046,-86.5 1046,-67.5 972,-67.5"/>
<text text-anchor="middle" x="1009" y="-74.5" font-family="Helvetica,sans-Serif" font-size="10.00">luaO_utf8esc</text>
</a>
</g>
</g>
<!-- Node85&#45;&gt;Node114 -->
<g id="edge22" class="edge"><title>Node85&#45;&gt;Node114</title>
<path fill="none" stroke="midnightblue" d="M897.752,-143.401C913.317,-131.451 941.259,-110.811 967,-96 970.015,-94.265 973.216,-92.561 976.448,-90.9292"/>
<polygon fill="midnightblue" stroke="midnightblue" points="978.024,-94.055 985.509,-86.5564 974.981,-87.7508 978.024,-94.055"/>
</g>
<!-- Node86&#45;&gt;Node87 -->
<g id="edge13" class="edge"><title>Node86&#45;&gt;Node87</title>
<path fill="none" stroke="midnightblue" d="M1044.73,-229C1055.17,-229 1066.57,-229 1076.8,-229"/>
<polygon fill="midnightblue" stroke="midnightblue" points="1076.96,-232.5 1086.96,-229 1076.96,-225.5 1076.96,-232.5"/>
</g>
<!-- Node87&#45;&gt;Node88 -->
<g id="edge14" class="edge"><title>Node87&#45;&gt;Node88</title>
<path fill="none" stroke="midnightblue" d="M1131.44,-219.411C1141.08,-215.001 1152.69,-209.685 1163.25,-204.851"/>
<polygon fill="midnightblue" stroke="midnightblue" points="1164.93,-207.931 1172.56,-200.586 1162.01,-201.566 1164.93,-207.931"/>
</g>
<!-- Node113&#45;&gt;Node87 -->
<g id="edge17" class="edge"><title>Node113&#45;&gt;Node87</title>
<path fill="none" stroke="midnightblue" d="M1034.86,-200.589C1047.79,-205.578 1063.72,-211.726 1077.46,-217.025"/>
<polygon fill="midnightblue" stroke="midnightblue" points="1076.41,-220.371 1087,-220.705 1078.93,-213.84 1076.41,-220.371"/>
</g>
<!-- Node113&#45;&gt;Node88 -->
<g id="edge16" class="edge"><title>Node113&#45;&gt;Node88</title>
<path fill="none" stroke="midnightblue" d="M1041.13,-191C1073.33,-191 1123.56,-191 1157.46,-191"/>
<polygon fill="midnightblue" stroke="midnightblue" points="1157.85,-194.5 1167.85,-191 1157.85,-187.5 1157.85,-194.5"/>
</g>
<!-- Node78&#45;&gt;Node85 -->
<g id="edge21" class="edge"><title>Node78&#45;&gt;Node85</title>
<path fill="none" stroke="midnightblue" d="M992.275,-124.576C979.148,-130.176 959.615,-136.91 940.831,-142.558"/>
<polygon fill="midnightblue" stroke="midnightblue" points="939.729,-139.234 931.114,-145.401 941.695,-145.952 939.729,-139.234"/>
</g>
<!-- Node455 -->
<g id="node20" class="node"><title>Node455</title>
<g id="a_node20"><a xlink:href="ldebug_8c.html#acaafc35d8e385c4d167229486165df6d" target="_top" xlink:title=" ">
<polygon fill="white" stroke="black" points="853,-342.5 853,-361.5 916,-361.5 916,-342.5 853,-342.5"/>
<text text-anchor="middle" x="884.5" y="-349.5" font-family="Helvetica,sans-Serif" font-size="10.00">lua_getinfo</text>
</a>
</g>
</g>
<!-- Node454&#45;&gt;Node455 -->
<g id="edge24" class="edge"><title>Node454&#45;&gt;Node455</title>
<path fill="none" stroke="midnightblue" d="M651.313,-316.098C687.858,-318.788 749.536,-324.189 802,-333 815.341,-335.24 829.758,-338.365 842.705,-341.433"/>
<polygon fill="midnightblue" stroke="midnightblue" points="842.18,-344.907 852.723,-343.864 843.831,-338.105 842.18,-344.907"/>
</g>
<!-- Node462 -->
<g id="node23" class="node"><title>Node462</title>
<g id="a_node23"><a xlink:href="ldebug_8c.html#ac1fc03c27ee46caa4037df2d70f22110" target="_top" xlink:title=" ">
<polygon fill="white" stroke="black" points="713.5,-380.5 713.5,-399.5 785.5,-399.5 785.5,-380.5 713.5,-380.5"/>
<text text-anchor="middle" x="749.5" y="-387.5" font-family="Helvetica,sans-Serif" font-size="10.00">lua_getstack</text>
</a>
</g>
</g>
<!-- Node454&#45;&gt;Node462 -->
<g id="edge27" class="edge"><title>Node454&#45;&gt;Node462</title>
<path fill="none" stroke="midnightblue" d="M644.498,-323.568C650.156,-326.236 655.973,-329.404 661,-333 679.922,-346.534 677.578,-358.194 697,-371 699.913,-372.921 703.046,-374.68 706.276,-376.286"/>
<polygon fill="midnightblue" stroke="midnightblue" points="704.978,-379.539 715.537,-380.409 707.825,-373.144 704.978,-379.539"/>
</g>
<!-- Node463 -->
<g id="node24" class="node"><title>Node463</title>
<g id="a_node24"><a xlink:href="lapi_8c.html#ab190c226d38b289e6ca57683a9d4e0f0" target="_top" xlink:title=" ">
<polygon fill="white" stroke="black" points="708.5,-228.5 708.5,-247.5 790.5,-247.5 790.5,-228.5 708.5,-228.5"/>
<text text-anchor="middle" x="749.5" y="-235.5" font-family="Helvetica,sans-Serif" font-size="10.00">lua_pushfstring</text>
</a>
</g>
</g>
<!-- Node454&#45;&gt;Node463 -->
<g id="edge28" class="edge"><title>Node454&#45;&gt;Node463</title>
<path fill="none" stroke="midnightblue" d="M642.199,-304.341C648.388,-301.51 655.031,-298.287 661,-295 684.261,-282.191 709.548,-265.38 726.928,-253.34"/>
<polygon fill="midnightblue" stroke="midnightblue" points="729.054,-256.124 735.243,-247.525 725.042,-250.388 729.054,-256.124"/>
</g>
<!-- Node456 -->
<g id="node21" class="node"><title>Node456</title>
<g id="a_node21"><a xlink:href="ldebug_8c.html#ad72fa774194e83872bac4e5bf6ec1160" target="_top" xlink:title=" ">
<polygon fill="white" stroke="red" points="978.5,-361.5 978.5,-380.5 1039.5,-380.5 1039.5,-361.5 978.5,-361.5"/>
<text text-anchor="middle" x="1009" y="-368.5" font-family="Helvetica,sans-Serif" font-size="10.00">auxgetinfo</text>
</a>
</g>
</g>
<!-- Node455&#45;&gt;Node456 -->
<g id="edge25" class="edge"><title>Node455&#45;&gt;Node456</title>
<path fill="none" stroke="midnightblue" d="M916.096,-356.745C931.824,-359.185 951.185,-362.188 968.075,-364.807"/>
<polygon fill="midnightblue" stroke="midnightblue" points="967.798,-368.306 978.217,-366.381 968.871,-361.389 967.798,-368.306"/>
</g>
<!-- Node460 -->
<g id="node22" class="node"><title>Node460</title>
<g id="a_node22"><a xlink:href="ldebug_8c.html#a6e3195fc94af1f75142c2801ca8cf058" target="_top" xlink:title=" ">
<polygon fill="white" stroke="red" points="967,-323.5 967,-342.5 1051,-342.5 1051,-323.5 967,-323.5"/>
<text text-anchor="middle" x="1009" y="-330.5" font-family="Helvetica,sans-Serif" font-size="10.00">collectvalidlines</text>
</a>
</g>
</g>
<!-- Node455&#45;&gt;Node460 -->
<g id="edge26" class="edge"><title>Node455&#45;&gt;Node460</title>
<path fill="none" stroke="midnightblue" d="M916.096,-347.255C928.413,-345.344 942.959,-343.088 956.801,-340.941"/>
<polygon fill="midnightblue" stroke="midnightblue" points="957.368,-344.395 966.714,-339.404 956.296,-337.478 957.368,-344.395"/>
</g>
<!-- Node463&#45;&gt;Node85 -->
<g id="edge29" class="edge"><title>Node463&#45;&gt;Node85</title>
<path fill="none" stroke="midnightblue" d="M765.498,-228.415C788.448,-213.748 832.482,-185.605 859.788,-168.154"/>
<polygon fill="midnightblue" stroke="midnightblue" points="861.811,-171.015 868.352,-162.681 858.041,-165.117 861.811,-171.015"/>
</g>
<!-- Node465&#45;&gt;Node463 -->
<g id="edge33" class="edge"><title>Node465&#45;&gt;Node463</title>
<path fill="none" stroke="midnightblue" d="M393.617,-418.301C412.341,-384.002 481.029,-268.285 576,-227 619.142,-208.246 674.131,-216.584 710.281,-225.868"/>
<polygon fill="midnightblue" stroke="midnightblue" points="709.384,-229.251 719.952,-228.49 711.216,-222.495 709.384,-229.251"/>
</g>
<!-- Node466 -->
<g id="node27" class="node"><title>Node466</title>
<g id="a_node27"><a xlink:href="lapi_8c.html#a652b273947f0656686f998d8e90cd3ea" target="_top" xlink:title=" ">
<polygon fill="white" stroke="black" points="472,-655.5 472,-674.5 525,-674.5 525,-655.5 472,-655.5"/>
<text text-anchor="middle" x="498.5" y="-662.5" font-family="Helvetica,sans-Serif" font-size="10.00">lua_type</text>
</a>
</g>
</g>
<!-- Node465&#45;&gt;Node466 -->
<g id="edge34" class="edge"><title>Node465&#45;&gt;Node466</title>
<path fill="none" stroke="midnightblue" d="M392.908,-437.584C409.272,-473.164 466.723,-598.08 488.783,-646.046"/>
<polygon fill="midnightblue" stroke="midnightblue" points="485.679,-647.674 493.037,-655.297 492.039,-644.749 485.679,-647.674"/>
</g>
<!-- Node468 -->
<g id="node29" class="node"><title>Node468</title>
<g id="a_node29"><a xlink:href="lauxlib_8c.html#abfb23747df76e74d28ac48dabda0c3e1" target="_top" xlink:title=" ">
<polygon fill="white" stroke="black" points="580,-627.5 580,-646.5 657,-646.5 657,-627.5 580,-627.5"/>
<text text-anchor="middle" x="618.5" y="-634.5" font-family="Helvetica,sans-Serif" font-size="10.00">luaL_callmeta</text>
</a>
</g>
</g>
<!-- Node465&#45;&gt;Node468 -->
<g id="edge36" class="edge"><title>Node465&#45;&gt;Node468</title>
<path fill="none" stroke="midnightblue" d="M398.935,-437.523C434.849,-470.301 553.646,-578.722 599.356,-620.441"/>
<polygon fill="midnightblue" stroke="midnightblue" points="597.258,-623.265 607.004,-627.421 601.977,-618.094 597.258,-623.265"/>
</g>
<!-- Node477 -->
<g id="node36" class="node"><title>Node477</title>
<g id="a_node36"><a xlink:href="lauxlib_8c.html#a67bf3728d34d2c9badb2bd2f57c75233" target="_top" xlink:title=" ">
<polygon fill="white" stroke="black" points="457,-418.5 457,-437.5 540,-437.5 540,-418.5 457,-418.5"/>
<text text-anchor="middle" x="498.5" y="-425.5" font-family="Helvetica,sans-Serif" font-size="10.00">luaL_traceback</text>
</a>
</g>
</g>
<!-- Node465&#45;&gt;Node477 -->
<g id="edge45" class="edge"><title>Node465&#45;&gt;Node477</title>
<path fill="none" stroke="midnightblue" d="M421.204,-428C429.226,-428 438.004,-428 446.657,-428"/>
<polygon fill="midnightblue" stroke="midnightblue" points="446.707,-431.5 456.707,-428 446.706,-424.5 446.707,-431.5"/>
</g>
<!-- Node467 -->
<g id="node28" class="node"><title>Node467</title>
<g id="a_node28"><a xlink:href="lapi_8c.html#a7c66797ff8396fc9258bb9fc08e959d8" target="_top" xlink:title=" ">
<polygon fill="white" stroke="black" points="975.5,-608.5 975.5,-627.5 1042.5,-627.5 1042.5,-608.5 975.5,-608.5"/>
<text text-anchor="middle" x="1009" y="-615.5" font-family="Helvetica,sans-Serif" font-size="10.00">index2value</text>
</a>
</g>
</g>
<!-- Node466&#45;&gt;Node467 -->
<g id="edge35" class="edge"><title>Node466&#45;&gt;Node467</title>
<path fill="none" stroke="midnightblue" d="M520.119,-674.657C584.547,-703.35 786.415,-781.924 931,-713 964.054,-697.243 987.52,-659.596 999.314,-636.707"/>
<polygon fill="midnightblue" stroke="midnightblue" points="1002.5,-638.152 1003.78,-627.634 996.223,-635.063 1002.5,-638.152"/>
</g>
<!-- Node469 -->
<g id="node30" class="node"><title>Node469</title>
<g id="a_node30"><a xlink:href="lapi_8c.html#a32821b04960f1c1223132349d04911c1" target="_top" xlink:title=" ">
<polygon fill="white" stroke="black" points="712.5,-684.5 712.5,-703.5 786.5,-703.5 786.5,-684.5 712.5,-684.5"/>
<text text-anchor="middle" x="749.5" y="-691.5" font-family="Helvetica,sans-Serif" font-size="10.00">lua_absindex</text>
</a>
</g>
</g>
<!-- Node468&#45;&gt;Node469 -->
<g id="edge37" class="edge"><title>Node468&#45;&gt;Node469</title>
<path fill="none" stroke="midnightblue" d="M641.092,-646.541C662.021,-655.788 693.981,-669.91 717.601,-680.347"/>
<polygon fill="midnightblue" stroke="midnightblue" points="716.276,-683.588 726.838,-684.428 719.106,-677.185 716.276,-683.588"/>
</g>
<!-- Node470 -->
<g id="node31" class="node"><title>Node470</title>
<g id="a_node31"><a xlink:href="lapi_8c.html#a602f61a9b583d69dc1c72c8970bd65e8" target="_top" xlink:title=" ">
<polygon fill="white" stroke="black" points="846,-684.5 846,-703.5 923,-703.5 923,-684.5 846,-684.5"/>
<text text-anchor="middle" x="884.5" y="-691.5" font-family="Helvetica,sans-Serif" font-size="10.00">lua_pushvalue</text>
</a>
</g>
</g>
<!-- Node468&#45;&gt;Node470 -->
<g id="edge38" class="edge"><title>Node468&#45;&gt;Node470</title>
<path fill="none" stroke="midnightblue" d="M657.305,-644.599C694.252,-652.09 752.067,-663.983 802,-675 812.971,-677.421 824.75,-680.113 835.849,-682.691"/>
<polygon fill="midnightblue" stroke="midnightblue" points="835.273,-686.151 845.807,-685.016 836.864,-679.334 835.273,-686.151"/>
</g>
<!-- Node471 -->
<g id="node32" class="node"><title>Node471</title>
<g id="a_node32"><a xlink:href="lauxlib_8c.html#add7cea31816ff3f61014031248e0daa6" target="_top" xlink:title=" ">
<polygon fill="white" stroke="black" points="703.5,-608.5 703.5,-627.5 795.5,-627.5 795.5,-608.5 703.5,-608.5"/>
<text text-anchor="middle" x="749.5" y="-615.5" font-family="Helvetica,sans-Serif" font-size="10.00">luaL_getmetafield</text>
</a>
</g>
</g>
<!-- Node468&#45;&gt;Node471 -->
<g id="edge40" class="edge"><title>Node468&#45;&gt;Node471</title>
<path fill="none" stroke="midnightblue" d="M657.159,-631.453C668.43,-629.793 681.033,-627.937 693.19,-626.146"/>
<polygon fill="midnightblue" stroke="midnightblue" points="693.876,-629.583 703.259,-624.663 692.856,-622.658 693.876,-629.583"/>
</g>
<!-- Node470&#45;&gt;Node467 -->
<g id="edge39" class="edge"><title>Node470&#45;&gt;Node467</title>
<path fill="none" stroke="midnightblue" d="M911.526,-684.403C918.034,-681.661 924.896,-678.466 931,-675 951.917,-663.124 973.774,-646.475 988.834,-634.237"/>
<polygon fill="midnightblue" stroke="midnightblue" points="991.376,-636.676 996.857,-627.61 986.918,-631.279 991.376,-636.676"/>
</g>
<!-- Node472 -->
<g id="node33" class="node"><title>Node472</title>
<g id="a_node33"><a xlink:href="lapi_8c.html#a4caa9ca5e47a30bd45e33d83bf2d6d6e" target="_top" xlink:title=" ">
<polygon fill="white" stroke="black" points="839,-608.5 839,-627.5 930,-627.5 930,-608.5 839,-608.5"/>
<text text-anchor="middle" x="884.5" y="-615.5" font-family="Helvetica,sans-Serif" font-size="10.00">lua_getmetatable</text>
</a>
</g>
</g>
<!-- Node471&#45;&gt;Node472 -->
<g id="edge41" class="edge"><title>Node471&#45;&gt;Node472</title>
<path fill="none" stroke="midnightblue" d="M795.528,-618C806.259,-618 817.827,-618 828.935,-618"/>
<polygon fill="midnightblue" stroke="midnightblue" points="828.97,-621.5 838.97,-618 828.97,-614.5 828.97,-621.5"/>
</g>
<!-- Node473 -->
<g id="node34" class="node"><title>Node473</title>
<g id="a_node34"><a xlink:href="lapi_8c.html#a771d300f2e64b2197d1df9bf31660ebf" target="_top" xlink:title=" ">
<polygon fill="white" stroke="red" points="844.5,-494.5 844.5,-513.5 924.5,-513.5 924.5,-494.5 844.5,-494.5"/>
<text text-anchor="middle" x="884.5" y="-501.5" font-family="Helvetica,sans-Serif" font-size="10.00">lua_pushstring</text>
</a>
</g>
</g>
<!-- Node471&#45;&gt;Node473 -->
<g id="edge43" class="edge"><title>Node471&#45;&gt;Node473</title>
<path fill="none" stroke="midnightblue" d="M787.42,-608.429C792.711,-605.954 797.781,-602.86 802,-599 829.577,-573.772 810.96,-548.803 838,-523 839.486,-521.582 841.094,-520.262 842.787,-519.036"/>
<polygon fill="midnightblue" stroke="midnightblue" points="845.011,-521.784 851.798,-513.649 841.419,-515.776 845.011,-521.784"/>
</g>
<!-- Node474 -->
<g id="node35" class="node"><title>Node474</title>
<g id="a_node35"><a xlink:href="lapi_8c.html#a52944e714d1c64bda7b83f511c14b2d3" target="_top" xlink:title=" ">
<polygon fill="white" stroke="red" points="853,-646.5 853,-665.5 916,-665.5 916,-646.5 853,-646.5"/>
<text text-anchor="middle" x="884.5" y="-653.5" font-family="Helvetica,sans-Serif" font-size="10.00">lua_rawget</text>
</a>
</g>
</g>
<!-- Node471&#45;&gt;Node474 -->
<g id="edge44" class="edge"><title>Node471&#45;&gt;Node474</title>
<path fill="none" stroke="midnightblue" d="M784.062,-627.589C801.935,-632.696 824.054,-639.016 842.89,-644.397"/>
<polygon fill="midnightblue" stroke="midnightblue" points="842.107,-647.814 852.684,-647.195 844.031,-641.083 842.107,-647.814"/>
</g>
<!-- Node472&#45;&gt;Node467 -->
<g id="edge42" class="edge"><title>Node472&#45;&gt;Node467</title>
<path fill="none" stroke="midnightblue" d="M930.072,-618C941.49,-618 953.745,-618 965.078,-618"/>
<polygon fill="midnightblue" stroke="midnightblue" points="965.176,-621.5 975.176,-618 965.176,-614.5 965.176,-621.5"/>
</g>
<!-- Node477&#45;&gt;Node455 -->
<g id="edge48" class="edge"><title>Node477&#45;&gt;Node455</title>
<path fill="none" stroke="midnightblue" d="M540.323,-433.076C600.059,-438.842 713.765,-443.439 802,-409 826.157,-399.571 850.021,-381.587 865.62,-368.331"/>
<polygon fill="midnightblue" stroke="midnightblue" points="868.164,-370.756 873.386,-361.538 863.555,-365.488 868.164,-370.756"/>
</g>
<!-- Node477&#45;&gt;Node462 -->
<g id="edge49" class="edge"><title>Node477&#45;&gt;Node462</title>
<path fill="none" stroke="midnightblue" d="M540.14,-424.317C572.892,-421.086 620.066,-415.836 661,-409 674.807,-406.694 689.726,-403.66 703.268,-400.695"/>
<polygon fill="midnightblue" stroke="midnightblue" points="704.315,-404.047 713.313,-398.454 702.791,-397.215 704.315,-404.047"/>
</g>
<!-- Node477&#45;&gt;Node463 -->
<g id="edge50" class="edge"><title>Node477&#45;&gt;Node463</title>
<path fill="none" stroke="midnightblue" d="M500.565,-418.181C504.385,-388.232 520.284,-297.616 576,-257 610.939,-231.53 660.914,-228.645 698.087,-231.028"/>
<polygon fill="midnightblue" stroke="midnightblue" points="697.965,-234.529 708.209,-231.825 698.515,-227.55 697.965,-234.529"/>
</g>
<!-- Node478 -->
<g id="node37" class="node"><title>Node478</title>
<g id="a_node37"><a xlink:href="lauxlib_8c.html#af3eb164386f8acd9cfd63e7ea4ad4dad" target="_top" xlink:title=" ">
<polygon fill="white" stroke="black" points="593,-342.5 593,-361.5 644,-361.5 644,-342.5 593,-342.5"/>
<text text-anchor="middle" x="618.5" y="-349.5" font-family="Helvetica,sans-Serif" font-size="10.00">lastlevel</text>
</a>
</g>
</g>
<!-- Node477&#45;&gt;Node478 -->
<g id="edge46" class="edge"><title>Node477&#45;&gt;Node478</title>
<path fill="none" stroke="midnightblue" d="M510.888,-418.307C525.383,-406.26 551.491,-385.521 576,-371 578.863,-369.304 581.904,-367.652 584.987,-366.077"/>
<polygon fill="midnightblue" stroke="midnightblue" points="586.747,-369.114 594.227,-361.611 583.701,-362.812 586.747,-369.114"/>
</g>
<!-- Node479 -->
<g id="node38" class="node"><title>Node479</title>
<g id="a_node38"><a xlink:href="lauxlib_8c.html#aced031f9a3f68375e9f80315933d9a88" target="_top" xlink:title=" ">
<polygon fill="white" stroke="black" points="578.5,-532.5 578.5,-551.5 658.5,-551.5 658.5,-532.5 578.5,-532.5"/>
<text text-anchor="middle" x="618.5" y="-539.5" font-family="Helvetica,sans-Serif" font-size="10.00">luaL_addstring</text>
</a>
</g>
</g>
<!-- Node477&#45;&gt;Node479 -->
<g id="edge51" class="edge"><title>Node477&#45;&gt;Node479</title>
<path fill="none" stroke="midnightblue" d="M505.082,-437.579C516.361,-456.226 543.574,-497.777 576,-523 578.025,-524.575 580.201,-526.056 582.459,-527.441"/>
<polygon fill="midnightblue" stroke="midnightblue" points="580.958,-530.608 591.416,-532.304 584.298,-524.457 580.958,-530.608"/>
</g>
<!-- Node510 -->
<g id="node41" class="node"><title>Node510</title>
<g id="a_node41"><a xlink:href="lauxlib_8c.html#a59a8ac34826fee305ad56101d97aee18" target="_top" xlink:title=" ">
<polygon fill="white" stroke="black" points="711,-570.5 711,-589.5 788,-589.5 788,-570.5 711,-570.5"/>
<text text-anchor="middle" x="749.5" y="-577.5" font-family="Helvetica,sans-Serif" font-size="10.00">luaL_addvalue</text>
</a>
</g>
</g>
<!-- Node477&#45;&gt;Node510 -->
<g id="edge54" class="edge"><title>Node477&#45;&gt;Node510</title>
<path fill="none" stroke="midnightblue" d="M501.859,-437.801C508.526,-463.146 530.079,-530.962 576,-561 612.875,-585.121 663.917,-587.883 700.903,-585.818"/>
<polygon fill="midnightblue" stroke="midnightblue" points="701.206,-589.305 710.939,-585.121 700.721,-582.322 701.206,-589.305"/>
</g>
<!-- Node513 -->
<g id="node43" class="node"><title>Node513</title>
<g id="a_node43"><a xlink:href="lauxlib_8c.html#a0830ef75e335f6d7590b0e058f82a5eb" target="_top" xlink:title=" ">
<polygon fill="white" stroke="black" points="584.5,-380.5 584.5,-399.5 652.5,-399.5 652.5,-380.5 584.5,-380.5"/>
<text text-anchor="middle" x="618.5" y="-387.5" font-family="Helvetica,sans-Serif" font-size="10.00">luaL_buffinit</text>
</a>
</g>
</g>
<!-- Node477&#45;&gt;Node513 -->
<g id="edge58" class="edge"><title>Node477&#45;&gt;Node513</title>
<path fill="none" stroke="midnightblue" d="M529.276,-418.411C544.09,-413.641 562.191,-407.811 578.134,-402.677"/>
<polygon fill="midnightblue" stroke="midnightblue" points="579.287,-405.983 587.733,-399.586 577.142,-399.32 579.287,-405.983"/>
</g>
<!-- Node514 -->
<g id="node44" class="node"><title>Node514</title>
<g id="a_node44"><a xlink:href="lauxlib_8c.html#a3a1f80033814e2057583a7d24cee23b4" target="_top" xlink:title=" ">
<polygon fill="white" stroke="black" points="576,-494.5 576,-513.5 661,-513.5 661,-494.5 576,-494.5"/>
<text text-anchor="middle" x="618.5" y="-501.5" font-family="Helvetica,sans-Serif" font-size="10.00">luaL_pushresult</text>
</a>
</g>
</g>
<!-- Node477&#45;&gt;Node514 -->
<g id="edge59" class="edge"><title>Node477&#45;&gt;Node514</title>
<path fill="none" stroke="midnightblue" d="M512.846,-437.506C527.96,-448.169 553.423,-465.825 576,-480 580.934,-483.098 586.273,-486.296 591.426,-489.308"/>
<polygon fill="midnightblue" stroke="midnightblue" points="589.962,-492.504 600.373,-494.467 593.458,-486.44 589.962,-492.504"/>
</g>
<!-- Node517 -->
<g id="node47" class="node"><title>Node517</title>
<g id="a_node47"><a xlink:href="lauxlib_8c.html#a0aa557042467d3f84d0663c742b32946" target="_top" xlink:title=" ">
<polygon fill="white" stroke="black" points="578.5,-266.5 578.5,-285.5 658.5,-285.5 658.5,-266.5 578.5,-266.5"/>
<text text-anchor="middle" x="618.5" y="-273.5" font-family="Helvetica,sans-Serif" font-size="10.00">pushfuncname</text>
</a>
</g>
</g>
<!-- Node477&#45;&gt;Node517 -->
<g id="edge63" class="edge"><title>Node477&#45;&gt;Node517</title>
<path fill="none" stroke="midnightblue" d="M502.716,-418.298C511.106,-394.327 535.838,-331.604 576,-295 577.665,-293.482 579.473,-292.067 581.371,-290.75"/>
<polygon fill="midnightblue" stroke="midnightblue" points="583.27,-293.694 590.104,-285.598 579.713,-287.665 583.27,-293.694"/>
</g>
<!-- Node478&#45;&gt;Node462 -->
<g id="edge47" class="edge"><title>Node478&#45;&gt;Node462</title>
<path fill="none" stroke="midnightblue" d="M644.068,-359.237C661.658,-364.419 685.78,-371.524 706.41,-377.601"/>
<polygon fill="midnightblue" stroke="midnightblue" points="705.632,-381.021 716.213,-380.489 707.61,-374.306 705.632,-381.021"/>
</g>
<!-- Node480 -->
<g id="node39" class="node"><title>Node480</title>
<g id="a_node39"><a xlink:href="lauxlib_8c.html#a0d56993399c45ae61ebb9b448dc30538" target="_top" xlink:title=" ">
<polygon fill="white" stroke="black" points="708.5,-532.5 708.5,-551.5 790.5,-551.5 790.5,-532.5 708.5,-532.5"/>
<text text-anchor="middle" x="749.5" y="-539.5" font-family="Helvetica,sans-Serif" font-size="10.00">luaL_addlstring</text>
</a>
</g>
</g>
<!-- Node479&#45;&gt;Node480 -->
<g id="edge52" class="edge"><title>Node479&#45;&gt;Node480</title>
<path fill="none" stroke="midnightblue" d="M658.554,-542C670.959,-542 684.86,-542 697.954,-542"/>
<polygon fill="midnightblue" stroke="midnightblue" points="698.239,-545.5 708.239,-542 698.239,-538.5 698.239,-545.5"/>
</g>
<!-- Node481 -->
<g id="node40" class="node"><title>Node481</title>
<g id="a_node40"><a xlink:href="lauxlib_8c.html#a96b72c2bee2d49148b93676ea09818a5" target="_top" xlink:title=" ">
<polygon fill="white" stroke="red" points="850.5,-532.5 850.5,-551.5 918.5,-551.5 918.5,-532.5 850.5,-532.5"/>
<text text-anchor="middle" x="884.5" y="-539.5" font-family="Helvetica,sans-Serif" font-size="10.00">prepbuffsize</text>
</a>
</g>
</g>
<!-- Node480&#45;&gt;Node481 -->
<g id="edge53" class="edge"><title>Node480&#45;&gt;Node481</title>
<path fill="none" stroke="midnightblue" d="M790.765,-542C806.319,-542 824.154,-542 840.001,-542"/>
<polygon fill="midnightblue" stroke="midnightblue" points="840.083,-545.5 850.083,-542 840.083,-538.5 840.083,-545.5"/>
</g>
<!-- Node510&#45;&gt;Node481 -->
<g id="edge57" class="edge"><title>Node510&#45;&gt;Node481</title>
<path fill="none" stroke="midnightblue" d="M784.062,-570.411C801.203,-565.513 822.251,-559.5 840.561,-554.268"/>
<polygon fill="midnightblue" stroke="midnightblue" points="841.756,-557.567 850.41,-551.454 839.833,-550.836 841.756,-557.567"/>
</g>
<!-- Node511 -->
<g id="node42" class="node"><title>Node511</title>
<g id="a_node42"><a xlink:href="lapi_8c.html#a3fc7dbcac3f2610f3d687ec15343bd3f" target="_top" xlink:title=" ">
<polygon fill="white" stroke="red" points="850,-570.5 850,-589.5 919,-589.5 919,-570.5 850,-570.5"/>
<text text-anchor="middle" x="884.5" y="-577.5" font-family="Helvetica,sans-Serif" font-size="10.00">lua_tolstring</text>
</a>
</g>
</g>
<!-- Node510&#45;&gt;Node511 -->
<g id="edge55" class="edge"><title>Node510&#45;&gt;Node511</title>
<path fill="none" stroke="midnightblue" d="M788.257,-580C804.284,-580 823.068,-580 839.701,-580"/>
<polygon fill="midnightblue" stroke="midnightblue" points="839.734,-583.5 849.734,-580 839.734,-576.5 839.734,-583.5"/>
</g>
<!-- Node511&#45;&gt;Node467 -->
<g id="edge56" class="edge"><title>Node511&#45;&gt;Node467</title>
<path fill="none" stroke="midnightblue" d="M916.412,-589.589C931.79,-594.359 950.582,-600.189 967.133,-605.323"/>
<polygon fill="midnightblue" stroke="midnightblue" points="966.51,-608.794 977.098,-608.414 968.584,-602.108 966.51,-608.794"/>
</g>
<!-- Node515 -->
<g id="node45" class="node"><title>Node515</title>
<g id="a_node45"><a xlink:href="lapi_8c.html#a111bd3fa34fe656f415edae5e343e13e" target="_top" xlink:title=" ">
<polygon fill="white" stroke="black" points="856.5,-456.5 856.5,-475.5 912.5,-475.5 912.5,-456.5 856.5,-456.5"/>
<text text-anchor="middle" x="884.5" y="-463.5" font-family="Helvetica,sans-Serif" font-size="10.00">lua_copy</text>
</a>
</g>
</g>
<!-- Node514&#45;&gt;Node515 -->
<g id="edge60" class="edge"><title>Node514&#45;&gt;Node515</title>
<path fill="none" stroke="midnightblue" d="M661.014,-501.168C698.135,-498.282 753.935,-493.072 802,-485 816.5,-482.565 832.273,-479.086 846.046,-475.768"/>
<polygon fill="midnightblue" stroke="midnightblue" points="847.261,-479.074 856.134,-473.283 845.587,-472.277 847.261,-479.074"/>
</g>
<!-- Node516 -->
<g id="node46" class="node"><title>Node516</title>
<g id="a_node46"><a xlink:href="lapi_8c.html#a2c325311534c23450cdf11931a8db0ae" target="_top" xlink:title=" ">
<polygon fill="white" stroke="red" points="708.5,-456.5 708.5,-475.5 790.5,-475.5 790.5,-456.5 708.5,-456.5"/>
<text text-anchor="middle" x="749.5" y="-463.5" font-family="Helvetica,sans-Serif" font-size="10.00">lua_pushlstring</text>
</a>
</g>
</g>
<!-- Node514&#45;&gt;Node516 -->
<g id="edge62" class="edge"><title>Node514&#45;&gt;Node516</title>
<path fill="none" stroke="midnightblue" d="M652.052,-494.411C668.399,-489.596 688.409,-483.701 705.957,-478.532"/>
<polygon fill="midnightblue" stroke="midnightblue" points="707.355,-481.769 715.958,-475.586 705.377,-475.054 707.355,-481.769"/>
</g>
<!-- Node515&#45;&gt;Node467 -->
<g id="edge61" class="edge"><title>Node515&#45;&gt;Node467</title>
<path fill="none" stroke="midnightblue" d="M912.677,-473.98C919.163,-476.753 925.726,-480.367 931,-485 967.259,-516.852 990.722,-570.096 1001.37,-598.597"/>
<polygon fill="midnightblue" stroke="midnightblue" points="998.148,-599.984 1004.82,-608.213 1004.74,-597.619 998.148,-599.984"/>
</g>
<!-- Node517&#45;&gt;Node463 -->
<g id="edge64" class="edge"><title>Node517&#45;&gt;Node463</title>
<path fill="none" stroke="midnightblue" d="M652.052,-266.411C668.399,-261.596 688.409,-255.701 705.957,-250.532"/>
<polygon fill="midnightblue" stroke="midnightblue" points="707.355,-253.769 715.958,-247.586 705.377,-247.054 707.355,-253.769"/>
</g>
<!-- Node518 -->
<g id="node48" class="node"><title>Node518</title>
<g id="a_node48"><a xlink:href="lauxlib_8c.html#a4f35430f7ecfcbd5f507e550937046b4" target="_top" xlink:title=" ">
<polygon fill="white" stroke="red" points="697,-342.5 697,-361.5 802,-361.5 802,-342.5 697,-342.5"/>
<text text-anchor="middle" x="749.5" y="-349.5" font-family="Helvetica,sans-Serif" font-size="10.00">pushglobalfuncname</text>
</a>
</g>
</g>
<!-- Node517&#45;&gt;Node518 -->
<g id="edge65" class="edge"><title>Node517&#45;&gt;Node518</title>
<path fill="none" stroke="midnightblue" d="M642.199,-285.659C648.388,-288.49 655.031,-291.713 661,-295 684.261,-307.809 709.548,-324.62 726.928,-336.66"/>
<polygon fill="midnightblue" stroke="midnightblue" points="725.042,-339.612 735.243,-342.475 729.054,-333.876 725.042,-339.612"/>
</g>
<!-- Node518&#45;&gt;Node455 -->
<g id="edge67" class="edge"><title>Node518&#45;&gt;Node455</title>
<path fill="none" stroke="midnightblue" d="M802.302,-352C815.636,-352 829.8,-352 842.501,-352"/>
<polygon fill="midnightblue" stroke="midnightblue" points="842.776,-355.5 852.776,-352 842.776,-348.5 842.776,-355.5"/>
</g>
<!-- Node518&#45;&gt;Node464 -->
<g id="edge68" class="edge"><title>Node518&#45;&gt;Node464</title>
<path fill="none" stroke="midnightblue" d="M762.774,-342.402C785.736,-324.447 835.386,-285.623 863.333,-263.77"/>
<polygon fill="midnightblue" stroke="midnightblue" points="865.534,-266.492 871.256,-257.574 861.222,-260.977 865.534,-266.492"/>
</g>
<!-- Node518&#45;&gt;Node473 -->
<g id="edge69" class="edge"><title>Node518&#45;&gt;Node473</title>
<path fill="none" stroke="midnightblue" d="M788.941,-361.598C793.781,-364.056 798.317,-367.138 802,-371 838.667,-409.453 802.151,-445.783 838,-485 839.191,-486.303 840.486,-487.52 841.859,-488.655"/>
<polygon fill="midnightblue" stroke="midnightblue" points="840.147,-491.719 850.421,-494.309 844.005,-485.877 840.147,-491.719"/>
</g>
<!-- Node518&#45;&gt;Node515 -->
<g id="edge66" class="edge"><title>Node518&#45;&gt;Node515</title>
<path fill="none" stroke="midnightblue" d="M784.151,-361.594C790.371,-364.135 796.601,-367.246 802,-371 832.151,-391.965 858.01,-426.649 872.105,-447.803"/>
<polygon fill="midnightblue" stroke="midnightblue" points="869.185,-449.734 877.565,-456.217 875.057,-445.924 869.185,-449.734"/>
</g>
<!-- Node528 -->
<g id="node50" class="node"><title>Node528</title>
<g id="a_node50"><a xlink:href="lua_8c.html#ad0f0975de65acf5a5edf0953299b3747" target="_top" xlink:title=" ">
<polygon fill="white" stroke="black" points="254,-76.5 254,-95.5 318,-95.5 318,-76.5 254,-76.5"/>
<text text-anchor="middle" x="286" y="-83.5" font-family="Helvetica,sans-Serif" font-size="10.00">l_message</text>
</a>
</g>
</g>
<!-- Node527&#45;&gt;Node528 -->
<g id="edge71" class="edge"><title>Node527&#45;&gt;Node528</title>
<path fill="none" stroke="midnightblue" d="M217.742,-100.689C225.547,-98.984 234.824,-96.9579 243.957,-94.9635"/>
<polygon fill="midnightblue" stroke="midnightblue" points="244.71,-98.3815 253.733,-92.8284 243.217,-91.5427 244.71,-98.3815"/>
</g>
</g>
</svg>
