<?xml version="1.0" encoding="UTF-8" standalone="no"?>
<!DOCTYPE svg PUBLIC "-//W3C//DTD SVG 1.1//EN"
 "http://www.w3.org/Graphics/SVG/1.1/DTD/svg11.dtd">
<!-- Generated by graphviz version 2.38.0 (20140413.2041)
 -->
<!-- Title: lua_pushlstring Pages: 1 -->
<svg width="967pt" height="1017pt"
 viewBox="0.00 0.00 967.00 1017.13" xmlns="http://www.w3.org/2000/svg" xmlns:xlink="http://www.w3.org/1999/xlink">
<g id="graph0" class="graph" transform="scale(1 1) rotate(0) translate(4 1013.13)">
<title>lua_pushlstring</title>
<polygon fill="white" stroke="none" points="-4,4 -4,-1013.13 963,-1013.13 963,4 -4,4"/>
<!-- Node1 -->
<g id="node1" class="node"><title>Node1</title>
<g id="a_node1"><a xlink:title=" ">
<polygon fill="#bfbfbf" stroke="black" points="877,-267.629 877,-286.629 959,-286.629 959,-267.629 877,-267.629"/>
<text text-anchor="middle" x="918" y="-274.629" font-family="Helvetica,sans-Serif" font-size="10.00">lua_pushlstring</text>
</a>
</g>
</g>
<!-- Node2 -->
<g id="node2" class="node"><title>Node2</title>
<g id="a_node2"><a xlink:href="ldblib_8c.html#a4eb57e66c2efb2d31c9b9e1b01d27e13" target="_top" xlink:title=" ">
<polygon fill="white" stroke="black" points="765,-989.629 765,-1008.63 826,-1008.63 826,-989.629 765,-989.629"/>
<text text-anchor="middle" x="795.5" y="-996.629" font-family="Helvetica,sans-Serif" font-size="10.00">db_getinfo</text>
</a>
</g>
</g>
<!-- Node1&#45;&gt;Node2 -->
<g id="edge1" class="edge"><title>Node1&#45;&gt;Node2</title>
<path fill="none" stroke="midnightblue" d="M917.266,-297.224C918.256,-399.324 918.323,-860.222 841,-975.129 836.884,-981.246 830.677,-985.933 824.196,-989.469"/>
<polygon fill="midnightblue" stroke="midnightblue" points="920.764,-297.019 917.151,-287.059 913.764,-297.097 920.764,-297.019"/>
</g>
<!-- Node3 -->
<g id="node3" class="node"><title>Node3</title>
<g id="a_node3"><a xlink:href="loadlib_8c.html#a91ac5b5231cf039af46226806dcc3884" target="_top" xlink:title=" ">
<polygon fill="white" stroke="black" points="400.5,-723.629 400.5,-742.629 453.5,-742.629 453.5,-723.629 400.5,-723.629"/>
<text text-anchor="middle" x="427" y="-730.629" font-family="Helvetica,sans-Serif" font-size="10.00">loadfunc</text>
</a>
</g>
</g>
<!-- Node1&#45;&gt;Node3 -->
<g id="edge2" class="edge"><title>Node1&#45;&gt;Node3</title>
<path fill="none" stroke="midnightblue" d="M913.867,-296.838C901.207,-371.228 847.942,-639.33 714,-809.129 649.551,-890.83 586.692,-961.69 500,-904.129 442.841,-866.177 430.954,-773 428.574,-742.769"/>
<polygon fill="midnightblue" stroke="midnightblue" points="917.323,-297.389 915.501,-286.952 910.417,-296.248 917.323,-297.389"/>
</g>
<!-- Node7 -->
<g id="node7" class="node"><title>Node7</title>
<g id="a_node7"><a xlink:href="loadlib_8c.html#a1ec05cd98a045c271aeda9f9c6041e1c" target="_top" xlink:title=" ">
<polygon fill="white" stroke="black" points="271,-723.629 271,-742.629 354,-742.629 354,-723.629 271,-723.629"/>
<text text-anchor="middle" x="312.5" y="-730.629" font-family="Helvetica,sans-Serif" font-size="10.00">searcher_Croot</text>
</a>
</g>
</g>
<!-- Node1&#45;&gt;Node7 -->
<g id="edge61" class="edge"><title>Node1&#45;&gt;Node7</title>
<path fill="none" stroke="midnightblue" d="M915.837,-297.095C911.811,-356.889 895.57,-538.982 841,-678.129 786.793,-816.35 811.971,-961.129 663.5,-961.129 663.5,-961.129 663.5,-961.129 536.5,-961.129 412.197,-961.129 334.412,-785.786 317.152,-742.635"/>
<polygon fill="midnightblue" stroke="midnightblue" points="919.349,-297.017 916.487,-286.816 912.363,-296.575 919.349,-297.017"/>
</g>
<!-- Node8 -->
<g id="node8" class="node"><title>Node8</title>
<g id="a_node8"><a xlink:href="lauxlib_8h.html#aac5dfab9ba0ced4f5ae3b22aa35faffe" target="_top" xlink:title=" ">
<polygon fill="white" stroke="black" points="753,-438.629 753,-457.629 838,-457.629 838,-438.629 753,-438.629"/>
<text text-anchor="middle" x="795.5" y="-445.629" font-family="Helvetica,sans-Serif" font-size="10.00">luaL_pushresult</text>
</a>
</g>
</g>
<!-- Node1&#45;&gt;Node8 -->
<g id="edge8" class="edge"><title>Node1&#45;&gt;Node8</title>
<path fill="none" stroke="midnightblue" d="M904.128,-295.394C878.659,-331.537 822.624,-411.056 803.249,-438.551"/>
<polygon fill="midnightblue" stroke="midnightblue" points="907.277,-297.003 910.176,-286.812 901.555,-292.97 907.277,-297.003"/>
</g>
<!-- Node55 -->
<g id="node40" class="node"><title>Node55</title>
<g id="a_node40"><a xlink:href="lutf8lib_8c.html#ae1247f71bc4b3f3be7da9c9d5c7668b1" target="_top" xlink:title=" ">
<polygon fill="white" stroke="black" points="760,-191.629 760,-210.629 831,-210.629 831,-191.629 760,-191.629"/>
<text text-anchor="middle" x="795.5" y="-198.629" font-family="Helvetica,sans-Serif" font-size="10.00">luaopen_utf8</text>
</a>
</g>
</g>
<!-- Node1&#45;&gt;Node55 -->
<g id="edge48" class="edge"><title>Node1&#45;&gt;Node55</title>
<path fill="none" stroke="midnightblue" d="M897.831,-260.707C882.98,-248.503 861.538,-231.984 841,-220.129 835.034,-216.685 828.325,-213.498 821.96,-210.757"/>
<polygon fill="midnightblue" stroke="midnightblue" points="895.839,-263.603 905.758,-267.326 900.325,-258.23 895.839,-263.603"/>
</g>
<!-- Node56 -->
<g id="node41" class="node"><title>Node56</title>
<g id="a_node41"><a xlink:href="lstrlib_8c.html#a24a14b4e6e90bac4610dd334bb0b51b6" target="_top" xlink:title=" ">
<polygon fill="white" stroke="black" points="750,-229.629 750,-248.629 841,-248.629 841,-229.629 750,-229.629"/>
<text text-anchor="middle" x="795.5" y="-236.629" font-family="Helvetica,sans-Serif" font-size="10.00">push_onecapture</text>
</a>
</g>
</g>
<!-- Node1&#45;&gt;Node56 -->
<g id="edge49" class="edge"><title>Node1&#45;&gt;Node56</title>
<path fill="none" stroke="midnightblue" d="M876.79,-264.448C860.508,-259.314 842.023,-253.485 826.898,-248.715"/>
<polygon fill="midnightblue" stroke="midnightblue" points="876.003,-267.87 886.593,-267.54 878.108,-261.194 876.003,-267.87"/>
</g>
<!-- Node64 -->
<g id="node46" class="node"><title>Node64</title>
<g id="a_node46"><a xlink:href="lua_8c.html#a83a7cb21b34095ca93f2a2a863f58fda" target="_top" xlink:title=" ">
<polygon fill="white" stroke="black" points="769,-267.629 769,-286.629 822,-286.629 822,-267.629 769,-267.629"/>
<text text-anchor="middle" x="795.5" y="-274.629" font-family="Helvetica,sans-Serif" font-size="10.00">pushline</text>
</a>
</g>
</g>
<!-- Node1&#45;&gt;Node64 -->
<g id="edge56" class="edge"><title>Node1&#45;&gt;Node64</title>
<path fill="none" stroke="midnightblue" d="M866.471,-277.129C851.171,-277.129 835.012,-277.129 822.083,-277.129"/>
<polygon fill="midnightblue" stroke="midnightblue" points="866.875,-280.629 876.875,-277.129 866.875,-273.629 866.875,-280.629"/>
</g>
<!-- Node67 -->
<g id="node49" class="node"><title>Node67</title>
<g id="a_node49"><a xlink:href="lstrlib_8c.html#a039b391d5f43533a0ce750c5e40d7752" target="_top" xlink:title=" ">
<polygon fill="white" stroke="black" points="771,-153.629 771,-172.629 820,-172.629 820,-153.629 771,-153.629"/>
<text text-anchor="middle" x="795.5" y="-160.629" font-family="Helvetica,sans-Serif" font-size="10.00">str_sub</text>
</a>
</g>
</g>
<!-- Node1&#45;&gt;Node67 -->
<g id="edge62" class="edge"><title>Node1&#45;&gt;Node67</title>
<path fill="none" stroke="midnightblue" d="M906.303,-258.868C893.221,-237.897 869.292,-203.627 841,-182.129 834.847,-177.453 827.369,-173.684 820.313,-170.774"/>
<polygon fill="midnightblue" stroke="midnightblue" points="903.346,-260.741 911.527,-267.473 909.329,-257.109 903.346,-260.741"/>
</g>
<!-- Node68 -->
<g id="node50" class="node"><title>Node68</title>
<g id="a_node50"><a xlink:href="lstrlib_8c.html#a3f3c1925e7829cbe972a744fa9168ec3" target="_top" xlink:title=" ">
<polygon fill="white" stroke="black" points="763,-115.629 763,-134.629 828,-134.629 828,-115.629 763,-115.629"/>
<text text-anchor="middle" x="795.5" y="-122.629" font-family="Helvetica,sans-Serif" font-size="10.00">str_unpack</text>
</a>
</g>
</g>
<!-- Node1&#45;&gt;Node68 -->
<g id="edge63" class="edge"><title>Node1&#45;&gt;Node68</title>
<path fill="none" stroke="midnightblue" d="M910.49,-257.763C900.026,-229.308 876.925,-176.123 841,-144.129 836.734,-140.33 831.595,-137.208 826.347,-134.672"/>
<polygon fill="midnightblue" stroke="midnightblue" points="907.25,-259.099 913.882,-267.361 913.85,-256.767 907.25,-259.099"/>
</g>
<!-- Node4 -->
<g id="node4" class="node"><title>Node4</title>
<g id="a_node4"><a xlink:href="loadlib_8c.html#a9a915ea950c831cee2f1e7b0a3bd9005" target="_top" xlink:title=" ">
<polygon fill="white" stroke="black" points="279.5,-685.629 279.5,-704.629 345.5,-704.629 345.5,-685.629 279.5,-685.629"/>
<text text-anchor="middle" x="312.5" y="-692.629" font-family="Helvetica,sans-Serif" font-size="10.00">searcher_C</text>
</a>
</g>
</g>
<!-- Node3&#45;&gt;Node4 -->
<g id="edge3" class="edge"><title>Node3&#45;&gt;Node4</title>
<path fill="none" stroke="midnightblue" d="M390.995,-721.305C375.136,-715.948 356.637,-709.699 341.691,-704.651"/>
<polygon fill="midnightblue" stroke="midnightblue" points="389.878,-724.622 400.472,-724.506 392.118,-717.99 389.878,-724.622"/>
</g>
<!-- Node3&#45;&gt;Node7 -->
<g id="edge6" class="edge"><title>Node3&#45;&gt;Node7</title>
<path fill="none" stroke="midnightblue" d="M390.395,-733.129C378.945,-733.129 366.169,-733.129 354.371,-733.129"/>
<polygon fill="midnightblue" stroke="midnightblue" points="390.472,-736.629 400.472,-733.129 390.472,-729.629 390.472,-736.629"/>
</g>
<!-- Node5 -->
<g id="node5" class="node"><title>Node5</title>
<g id="a_node5"><a xlink:href="loadlib_8c.html#a8fc66c8b852ee2960dc20797521d1d9e" target="_top" xlink:title=" ">
<polygon fill="white" stroke="black" points="128,-685.629 128,-704.629 235,-704.629 235,-685.629 128,-685.629"/>
<text text-anchor="middle" x="181.5" y="-692.629" font-family="Helvetica,sans-Serif" font-size="10.00">createsearcherstable</text>
</a>
</g>
</g>
<!-- Node4&#45;&gt;Node5 -->
<g id="edge4" class="edge"><title>Node4&#45;&gt;Node5</title>
<path fill="none" stroke="midnightblue" d="M269.185,-695.129C258.298,-695.129 246.452,-695.129 235.112,-695.129"/>
<polygon fill="midnightblue" stroke="midnightblue" points="269.281,-698.629 279.281,-695.129 269.281,-691.629 269.281,-698.629"/>
</g>
<!-- Node6 -->
<g id="node6" class="node"><title>Node6</title>
<g id="a_node6"><a xlink:href="lualib_8h.html#a05e0befc0439f926b6152129ab4f8dea" target="_top" xlink:title=" ">
<polygon fill="white" stroke="black" points="0,-666.629 0,-685.629 92,-685.629 92,-666.629 0,-666.629"/>
<text text-anchor="middle" x="46" y="-673.629" font-family="Helvetica,sans-Serif" font-size="10.00">luaopen_package</text>
</a>
</g>
</g>
<!-- Node5&#45;&gt;Node6 -->
<g id="edge5" class="edge"><title>Node5&#45;&gt;Node6</title>
<path fill="none" stroke="midnightblue" d="M117.665,-686.186C109.021,-684.956 100.289,-683.713 92.0516,-682.54"/>
<polygon fill="midnightblue" stroke="midnightblue" points="117.344,-689.675 127.737,-687.619 118.33,-682.745 117.344,-689.675"/>
</g>
<!-- Node7&#45;&gt;Node5 -->
<g id="edge7" class="edge"><title>Node7&#45;&gt;Node5</title>
<path fill="none" stroke="midnightblue" d="M268.946,-720.593C251.397,-715.424 231.387,-709.53 215.042,-704.715"/>
<polygon fill="midnightblue" stroke="midnightblue" points="268.366,-724.071 278.948,-723.54 270.344,-717.356 268.366,-724.071"/>
</g>
<!-- Node9 -->
<g id="node9" class="node"><title>Node9</title>
<g id="a_node9"><a xlink:href="loadlib_8c.html#aeea4101591c7cab25273f4dfe7d811d6" target="_top" xlink:title=" ">
<polygon fill="white" stroke="black" points="633.5,-267.629 633.5,-286.629 691.5,-286.629 691.5,-267.629 633.5,-267.629"/>
<text text-anchor="middle" x="662.5" y="-274.629" font-family="Helvetica,sans-Serif" font-size="10.00">findloader</text>
</a>
</g>
</g>
<!-- Node8&#45;&gt;Node9 -->
<g id="edge9" class="edge"><title>Node8&#45;&gt;Node9</title>
<path fill="none" stroke="midnightblue" d="M789.096,-428.513C779.311,-396.481 755.705,-332.84 714,-296.129 707.672,-290.558 699.552,-286.556 691.681,-283.708"/>
<polygon fill="midnightblue" stroke="midnightblue" points="785.828,-429.809 791.988,-438.43 792.548,-427.85 785.828,-429.809"/>
</g>
<!-- Node11 -->
<g id="node11" class="node"><title>Node11</title>
<g id="a_node11"><a xlink:href="lauxlib_8h.html#a46672be75da57e1a464c5c6d80f19064" target="_top" xlink:title=" ">
<polygon fill="white" stroke="black" points="632,-723.629 632,-742.629 693,-742.629 693,-723.629 632,-723.629"/>
<text text-anchor="middle" x="662.5" y="-730.629" font-family="Helvetica,sans-Serif" font-size="10.00">luaL_gsub</text>
</a>
</g>
</g>
<!-- Node8&#45;&gt;Node11 -->
<g id="edge11" class="edge"><title>Node8&#45;&gt;Node11</title>
<path fill="none" stroke="midnightblue" d="M794.203,-467.935C792.409,-516.43 781.157,-642.387 714,-714.129 708.431,-720.078 700.814,-724.178 693.185,-726.999"/>
<polygon fill="midnightblue" stroke="midnightblue" points="797.704,-467.924 794.476,-457.833 790.707,-467.734 797.704,-467.924"/>
</g>
<!-- Node12 -->
<g id="node12" class="node"><title>Node12</title>
<g id="a_node12"><a xlink:href="loadlib_8c.html#a9aa5433859d896c2db1a7af366e04b65" target="_top" xlink:title=" ">
<polygon fill="white" stroke="black" points="505,-609.629 505,-628.629 570,-628.629 570,-609.629 505,-609.629"/>
<text text-anchor="middle" x="537.5" y="-616.629" font-family="Helvetica,sans-Serif" font-size="10.00">searchpath</text>
</a>
</g>
</g>
<!-- Node8&#45;&gt;Node12 -->
<g id="edge39" class="edge"><title>Node8&#45;&gt;Node12</title>
<path fill="none" stroke="midnightblue" d="M790.401,-467.579C782.254,-500.937 760.633,-568.513 714,-600.129 670.877,-629.365 607.635,-628.15 570.011,-624.035"/>
<polygon fill="midnightblue" stroke="midnightblue" points="793.848,-468.208 792.664,-457.679 787.024,-466.648 793.848,-468.208"/>
</g>
<!-- Node16 -->
<g id="node15" class="node"><title>Node16</title>
<g id="a_node15"><a xlink:href="lauxlib_8h.html#ac12082513e8da6bfd5b834e840789682" target="_top" xlink:title=" ">
<polygon fill="white" stroke="black" points="611,-780.629 611,-799.629 714,-799.629 714,-780.629 611,-780.629"/>
<text text-anchor="middle" x="662.5" y="-787.629" font-family="Helvetica,sans-Serif" font-size="10.00">luaL_pushresultsize</text>
</a>
</g>
</g>
<!-- Node8&#45;&gt;Node16 -->
<g id="edge18" class="edge"><title>Node8&#45;&gt;Node16</title>
<path fill="none" stroke="midnightblue" d="M793.669,-467.765C790.642,-518.933 776.765,-658.85 714,-752.129 705.915,-764.145 692.741,-773.872 681.876,-780.477"/>
<polygon fill="midnightblue" stroke="midnightblue" points="797.167,-467.904 794.186,-457.737 790.176,-467.544 797.167,-467.904"/>
</g>
<!-- Node22 -->
<g id="node21" class="node"><title>Node22</title>
<g id="a_node21"><a xlink:href="lauxlib_8h.html#a664cc293d6c7a7dc67857fe95583a10e" target="_top" xlink:title=" ">
<polygon fill="white" stroke="black" points="621,-343.629 621,-362.629 704,-362.629 704,-343.629 621,-343.629"/>
<text text-anchor="middle" x="662.5" y="-350.629" font-family="Helvetica,sans-Serif" font-size="10.00">luaL_traceback</text>
</a>
</g>
</g>
<!-- Node8&#45;&gt;Node22 -->
<g id="edge24" class="edge"><title>Node8&#45;&gt;Node22</title>
<path fill="none" stroke="midnightblue" d="M779.577,-430.441C764.506,-413.519 739.821,-388.254 714,-372.129 708.121,-368.457 701.421,-365.32 694.866,-362.716"/>
<polygon fill="midnightblue" stroke="midnightblue" points="777.331,-433.191 786.536,-438.437 782.611,-428.596 777.331,-433.191"/>
</g>
<!-- Node36 -->
<g id="node26" class="node"><title>Node36</title>
<g id="a_node26"><a xlink:href="loslib_8c.html#a6520f2562b500aee87a6a475995adefb" target="_top" xlink:title=" ">
<polygon fill="white" stroke="black" points="637,-685.629 637,-704.629 688,-704.629 688,-685.629 637,-685.629"/>
<text text-anchor="middle" x="662.5" y="-692.629" font-family="Helvetica,sans-Serif" font-size="10.00">os_date</text>
</a>
</g>
</g>
<!-- Node8&#45;&gt;Node36 -->
<g id="edge29" class="edge"><title>Node8&#45;&gt;Node36</title>
<path fill="none" stroke="midnightblue" d="M792.397,-468.077C786.943,-510.521 768.721,-610.812 714,-671.129 707.086,-678.749 697.24,-684.174 688.075,-687.914"/>
<polygon fill="midnightblue" stroke="midnightblue" points="795.897,-468.279 793.593,-457.937 788.946,-467.458 795.897,-468.279"/>
</g>
<!-- Node37 -->
<g id="node27" class="node"><title>Node37</title>
<g id="a_node27"><a xlink:href="loadlib_8c.html#a8c34f770d4f7748069b3b26c070e2473" target="_top" xlink:title=" ">
<polygon fill="white" stroke="black" points="615.5,-571.629 615.5,-590.629 709.5,-590.629 709.5,-571.629 615.5,-571.629"/>
<text text-anchor="middle" x="662.5" y="-578.629" font-family="Helvetica,sans-Serif" font-size="10.00">pusherrornotfound</text>
</a>
</g>
</g>
<!-- Node8&#45;&gt;Node37 -->
<g id="edge30" class="edge"><title>Node8&#45;&gt;Node37</title>
<path fill="none" stroke="midnightblue" d="M785.668,-467.023C773.074,-492.059 747.7,-536.087 714,-562.129 709.034,-565.966 703.208,-569.097 697.313,-571.627"/>
<polygon fill="midnightblue" stroke="midnightblue" points="788.902,-468.377 790.133,-457.854 782.608,-465.312 788.902,-468.377"/>
</g>
<!-- Node38 -->
<g id="node28" class="node"><title>Node38</title>
<g id="a_node28"><a xlink:href="liolib_8c.html#a48a16089fed2e802a76635a3f8bfe8e3" target="_top" xlink:title=" ">
<polygon fill="white" stroke="black" points="637.5,-457.629 637.5,-476.629 687.5,-476.629 687.5,-457.629 637.5,-457.629"/>
<text text-anchor="middle" x="662.5" y="-464.629" font-family="Helvetica,sans-Serif" font-size="10.00">read_all</text>
</a>
</g>
</g>
<!-- Node8&#45;&gt;Node38 -->
<g id="edge32" class="edge"><title>Node8&#45;&gt;Node38</title>
<path fill="none" stroke="midnightblue" d="M742.67,-455.646C723.726,-458.394 703.185,-461.373 687.774,-463.608"/>
<polygon fill="midnightblue" stroke="midnightblue" points="743.297,-459.092 752.691,-454.193 742.292,-452.164 743.297,-459.092"/>
</g>
<!-- Node46 -->
<g id="node31" class="node"><title>Node46</title>
<g id="a_node31"><a xlink:href="liolib_8c.html#a6735c0513432f83bfa1b88b056ab379b" target="_top" xlink:title=" ">
<polygon fill="white" stroke="black" points="630,-533.629 630,-552.629 695,-552.629 695,-533.629 630,-533.629"/>
<text text-anchor="middle" x="662.5" y="-540.629" font-family="Helvetica,sans-Serif" font-size="10.00">read_chars</text>
</a>
</g>
</g>
<!-- Node8&#45;&gt;Node46 -->
<g id="edge35" class="edge"><title>Node8&#45;&gt;Node46</title>
<path fill="none" stroke="midnightblue" d="M779.577,-465.817C764.506,-482.738 739.821,-508.003 714,-524.129 708.121,-527.8 701.421,-530.937 694.866,-533.541"/>
<polygon fill="midnightblue" stroke="midnightblue" points="782.611,-467.661 786.536,-457.821 777.331,-463.066 782.611,-467.661"/>
</g>
<!-- Node47 -->
<g id="node32" class="node"><title>Node47</title>
<g id="a_node32"><a xlink:href="liolib_8c.html#ae697e23c2b1ea23d8935f579aa21200c" target="_top" xlink:title=" ">
<polygon fill="white" stroke="black" points="634.5,-495.629 634.5,-514.629 690.5,-514.629 690.5,-495.629 634.5,-495.629"/>
<text text-anchor="middle" x="662.5" y="-502.629" font-family="Helvetica,sans-Serif" font-size="10.00">read_line</text>
</a>
</g>
</g>
<!-- Node8&#45;&gt;Node47 -->
<g id="edge37" class="edge"><title>Node8&#45;&gt;Node47</title>
<path fill="none" stroke="midnightblue" d="M766.085,-462.232C750.787,-469.65 731.512,-478.715 714,-486.129 706.323,-489.379 697.88,-492.665 690.132,-495.57"/>
<polygon fill="midnightblue" stroke="midnightblue" points="768.056,-465.165 775.505,-457.63 764.983,-458.875 768.056,-465.165"/>
</g>
<!-- Node48 -->
<g id="node33" class="node"><title>Node48</title>
<g id="a_node33"><a xlink:href="loadlib_8c.html#ad3773b767d767b19dc36cab61cf5c57d" target="_top" xlink:title=" ">
<polygon fill="white" stroke="black" points="157,-647.629 157,-666.629 206,-666.629 206,-647.629 157,-647.629"/>
<text text-anchor="middle" x="181.5" y="-654.629" font-family="Helvetica,sans-Serif" font-size="10.00">setpath</text>
</a>
</g>
</g>
<!-- Node8&#45;&gt;Node48 -->
<g id="edge40" class="edge"><title>Node8&#45;&gt;Node48</title>
<path fill="none" stroke="midnightblue" d="M788.42,-467.32C774.794,-509.118 740.894,-606.31 714,-627.129 651.426,-675.567 617.631,-657.129 538.5,-657.129 538.5,-657.129 538.5,-657.129 426,-657.129 345.256,-657.129 249.452,-657.129 206.006,-657.129"/>
<polygon fill="midnightblue" stroke="midnightblue" points="791.768,-468.342 791.5,-457.75 785.105,-466.197 791.768,-468.342"/>
</g>
<!-- Node49 -->
<g id="node34" class="node"><title>Node49</title>
<g id="a_node34"><a xlink:href="lstrlib_8c.html#abc94e3a13f1b6ddb2c9b20c9fd89e87f" target="_top" xlink:title=" ">
<polygon fill="white" stroke="black" points="634,-419.629 634,-438.629 691,-438.629 691,-419.629 634,-419.629"/>
<text text-anchor="middle" x="662.5" y="-426.629" font-family="Helvetica,sans-Serif" font-size="10.00">str_dump</text>
</a>
</g>
</g>
<!-- Node8&#45;&gt;Node49 -->
<g id="edge42" class="edge"><title>Node8&#45;&gt;Node49</title>
<path fill="none" stroke="midnightblue" d="M742.577,-440.598C725.066,-438.058 706.2,-435.322 691.289,-433.159"/>
<polygon fill="midnightblue" stroke="midnightblue" points="742.292,-444.093 752.691,-442.065 743.297,-437.165 742.292,-444.093"/>
</g>
<!-- Node50 -->
<g id="node35" class="node"><title>Node50</title>
<g id="a_node35"><a xlink:href="lstrlib_8c.html#ae26a9374857058119e59d0328208c2f2" target="_top" xlink:title=" ">
<polygon fill="white" stroke="black" points="632.5,-381.629 632.5,-400.629 692.5,-400.629 692.5,-381.629 632.5,-381.629"/>
<text text-anchor="middle" x="662.5" y="-388.629" font-family="Helvetica,sans-Serif" font-size="10.00">str_format</text>
</a>
</g>
</g>
<!-- Node8&#45;&gt;Node50 -->
<g id="edge43" class="edge"><title>Node8&#45;&gt;Node50</title>
<path fill="none" stroke="midnightblue" d="M766.085,-434.025C750.787,-426.608 731.512,-417.542 714,-410.129 706.323,-406.879 697.88,-403.592 690.132,-400.687"/>
<polygon fill="midnightblue" stroke="midnightblue" points="764.983,-437.382 775.505,-438.627 768.056,-431.092 764.983,-437.382"/>
</g>
<!-- Node51 -->
<g id="node36" class="node"><title>Node51</title>
<g id="a_node36"><a xlink:href="lstrlib_8c.html#a42337c674d265175bcc2b2f3809c7339" target="_top" xlink:title=" ">
<polygon fill="white" stroke="black" points="400,-77.6286 400,-96.6286 454,-96.6286 454,-77.6286 400,-77.6286"/>
<text text-anchor="middle" x="427" y="-84.6286" font-family="Helvetica,sans-Serif" font-size="10.00">str_gsub</text>
</a>
</g>
</g>
<!-- Node8&#45;&gt;Node51 -->
<g id="edge44" class="edge"><title>Node8&#45;&gt;Node51</title>
<path fill="none" stroke="midnightblue" d="M788.711,-428.513C770.651,-367.383 716.404,-184.264 714,-182.129 641.781,-117.974 588.097,-183.755 500,-144.129 474.41,-132.618 449.975,-109.993 437.202,-96.9766"/>
<polygon fill="midnightblue" stroke="midnightblue" points="785.452,-429.837 791.641,-438.436 792.166,-427.855 785.452,-429.837"/>
</g>
<!-- Node52 -->
<g id="node37" class="node"><title>Node52</title>
<g id="a_node37"><a xlink:href="lstrlib_8c.html#abcf8553ae8937fd4f4bf85c72f528710" target="_top" xlink:title=" ">
<polygon fill="white" stroke="black" points="635.5,-305.629 635.5,-324.629 689.5,-324.629 689.5,-305.629 635.5,-305.629"/>
<text text-anchor="middle" x="662.5" y="-312.629" font-family="Helvetica,sans-Serif" font-size="10.00">str_pack</text>
</a>
</g>
</g>
<!-- Node8&#45;&gt;Node52 -->
<g id="edge45" class="edge"><title>Node8&#45;&gt;Node52</title>
<path fill="none" stroke="midnightblue" d="M785.668,-429.234C773.074,-404.198 747.7,-360.171 714,-334.129 706.884,-328.63 698.004,-324.583 689.683,-321.673"/>
<polygon fill="midnightblue" stroke="midnightblue" points="782.608,-430.945 790.133,-438.403 788.902,-427.88 782.608,-430.945"/>
</g>
<!-- Node53 -->
<g id="node38" class="node"><title>Node53</title>
<g id="a_node38"><a xlink:href="ltablib_8c.html#add6973c515a288f41265aca8e0ae6412" target="_top" xlink:title=" ">
<polygon fill="white" stroke="black" points="638,-229.629 638,-248.629 687,-248.629 687,-229.629 638,-229.629"/>
<text text-anchor="middle" x="662.5" y="-236.629" font-family="Helvetica,sans-Serif" font-size="10.00">tconcat</text>
</a>
</g>
</g>
<!-- Node8&#45;&gt;Node53 -->
<g id="edge46" class="edge"><title>Node8&#45;&gt;Node53</title>
<path fill="none" stroke="midnightblue" d="M791.34,-427.99C784.311,-389.713 763.888,-306.017 714,-258.129 706.634,-251.058 696.385,-246.564 687.044,-243.734"/>
<polygon fill="midnightblue" stroke="midnightblue" points="787.971,-429.055 793.109,-438.32 794.871,-427.873 787.971,-429.055"/>
</g>
<!-- Node54 -->
<g id="node39" class="node"><title>Node54</title>
<g id="a_node39"><a xlink:href="lutf8lib_8c.html#a7269a837d8746044cb3f33e6db94b00f" target="_top" xlink:title=" ">
<polygon fill="white" stroke="black" points="639.5,-191.629 639.5,-210.629 685.5,-210.629 685.5,-191.629 639.5,-191.629"/>
<text text-anchor="middle" x="662.5" y="-198.629" font-family="Helvetica,sans-Serif" font-size="10.00">utfchar</text>
</a>
</g>
</g>
<!-- Node8&#45;&gt;Node54 -->
<g id="edge47" class="edge"><title>Node8&#45;&gt;Node54</title>
<path fill="none" stroke="midnightblue" d="M788.726,-428.876C772.952,-376.75 729.291,-235.735 714,-220.129 706.461,-212.434 695.505,-207.818 685.722,-205.068"/>
<polygon fill="midnightblue" stroke="midnightblue" points="785.411,-430.008 791.648,-438.573 792.114,-427.988 785.411,-430.008"/>
</g>
<!-- Node10 -->
<g id="node10" class="node"><title>Node10</title>
<g id="a_node10"><a xlink:href="loadlib_8c.html#a136874f5faa236dc52fb50109281e157" target="_top" xlink:title=" ">
<polygon fill="white" stroke="black" points="509.5,-267.629 509.5,-286.629 565.5,-286.629 565.5,-267.629 509.5,-267.629"/>
<text text-anchor="middle" x="537.5" y="-274.629" font-family="Helvetica,sans-Serif" font-size="10.00">ll_require</text>
</a>
</g>
</g>
<!-- Node9&#45;&gt;Node10 -->
<g id="edge10" class="edge"><title>Node9&#45;&gt;Node10</title>
<path fill="none" stroke="midnightblue" d="M623.061,-277.129C604.468,-277.129 582.587,-277.129 565.742,-277.129"/>
<polygon fill="midnightblue" stroke="midnightblue" points="623.281,-280.629 633.281,-277.129 623.281,-273.629 623.281,-280.629"/>
</g>
<!-- Node11&#45;&gt;Node3 -->
<g id="edge12" class="edge"><title>Node11&#45;&gt;Node3</title>
<path fill="none" stroke="midnightblue" d="M621.991,-722.567C607.345,-719.152 590.524,-715.814 575,-714.129 541.861,-710.532 533.056,-709.84 500,-714.129 484.359,-716.158 467.274,-720.568 453.673,-724.629"/>
<polygon fill="midnightblue" stroke="midnightblue" points="621.197,-725.976 631.74,-724.924 622.842,-719.172 621.197,-725.976"/>
</g>
<!-- Node11&#45;&gt;Node12 -->
<g id="edge13" class="edge"><title>Node11&#45;&gt;Node12</title>
<path fill="none" stroke="midnightblue" d="M622.318,-720.955C618.324,-718.973 614.467,-716.707 611,-714.129 578.701,-690.111 553.72,-647.939 543.514,-628.92"/>
<polygon fill="midnightblue" stroke="midnightblue" points="621.202,-724.287 631.767,-725.08 624.003,-717.872 621.202,-724.287"/>
</g>
<!-- Node13 -->
<g id="node13" class="node"><title>Node13</title>
<g id="a_node13"><a xlink:href="loadlib_8c.html#af8f7333f1a59f3d7aab8c9b79b7a4ab2" target="_top" xlink:title=" ">
<polygon fill="white" stroke="red" points="405,-685.629 405,-704.629 449,-704.629 449,-685.629 405,-685.629"/>
<text text-anchor="middle" x="427" y="-692.629" font-family="Helvetica,sans-Serif" font-size="10.00">findfile</text>
</a>
</g>
</g>
<!-- Node12&#45;&gt;Node13 -->
<g id="edge14" class="edge"><title>Node12&#45;&gt;Node13</title>
<path fill="none" stroke="midnightblue" d="M514.425,-634.591C492.606,-649.875 459.915,-672.774 441.63,-685.581"/>
<polygon fill="midnightblue" stroke="midnightblue" points="516.576,-637.358 522.758,-628.754 512.56,-631.625 516.576,-637.358"/>
</g>
<!-- Node15 -->
<g id="node14" class="node"><title>Node15</title>
<g id="a_node14"><a xlink:href="loadlib_8c.html#a3e9eb01c860846336b6f50d6c77448a2" target="_top" xlink:title=" ">
<polygon fill="white" stroke="black" points="390,-609.629 390,-628.629 464,-628.629 464,-609.629 390,-609.629"/>
<text text-anchor="middle" x="427" y="-616.629" font-family="Helvetica,sans-Serif" font-size="10.00">ll_searchpath</text>
</a>
</g>
</g>
<!-- Node12&#45;&gt;Node15 -->
<g id="edge17" class="edge"><title>Node12&#45;&gt;Node15</title>
<path fill="none" stroke="midnightblue" d="M494.615,-619.129C484.548,-619.129 473.881,-619.129 464.103,-619.129"/>
<polygon fill="midnightblue" stroke="midnightblue" points="494.826,-622.629 504.826,-619.129 494.826,-615.629 494.826,-622.629"/>
</g>
<!-- Node13&#45;&gt;Node4 -->
<g id="edge15" class="edge"><title>Node13&#45;&gt;Node4</title>
<path fill="none" stroke="midnightblue" d="M394.812,-695.129C379.5,-695.129 361.074,-695.129 345.637,-695.129"/>
<polygon fill="midnightblue" stroke="midnightblue" points="394.84,-698.629 404.84,-695.129 394.84,-691.629 394.84,-698.629"/>
</g>
<!-- Node13&#45;&gt;Node7 -->
<g id="edge16" class="edge"><title>Node13&#45;&gt;Node7</title>
<path fill="none" stroke="midnightblue" d="M395.027,-705.59C378.381,-711.213 358.006,-718.096 341.789,-723.573"/>
<polygon fill="midnightblue" stroke="midnightblue" points="396.486,-708.792 404.84,-702.276 394.245,-702.16 396.486,-708.792"/>
</g>
<!-- Node17 -->
<g id="node16" class="node"><title>Node17</title>
<g id="a_node16"><a xlink:href="lstrlib_8c.html#a3f7db8b2258dca5459ad52d2cbf9f28c" target="_top" xlink:title=" ">
<polygon fill="white" stroke="black" points="511.5,-837.629 511.5,-856.629 563.5,-856.629 563.5,-837.629 511.5,-837.629"/>
<text text-anchor="middle" x="537.5" y="-844.629" font-family="Helvetica,sans-Serif" font-size="10.00">str_char</text>
</a>
</g>
</g>
<!-- Node16&#45;&gt;Node17 -->
<g id="edge19" class="edge"><title>Node16&#45;&gt;Node17</title>
<path fill="none" stroke="midnightblue" d="M631.813,-803.886C609.34,-814.301 579.045,-828.339 559.155,-837.557"/>
<polygon fill="midnightblue" stroke="midnightblue" points="633.311,-807.049 640.913,-799.669 630.368,-800.698 633.311,-807.049"/>
</g>
<!-- Node18 -->
<g id="node17" class="node"><title>Node18</title>
<g id="a_node17"><a xlink:href="lstrlib_8c.html#ab2235f81205d0482d03c8ae456a98992" target="_top" xlink:title=" ">
<polygon fill="white" stroke="black" points="509.5,-799.629 509.5,-818.629 565.5,-818.629 565.5,-799.629 509.5,-799.629"/>
<text text-anchor="middle" x="537.5" y="-806.629" font-family="Helvetica,sans-Serif" font-size="10.00">str_lower</text>
</a>
</g>
</g>
<!-- Node16&#45;&gt;Node18 -->
<g id="edge20" class="edge"><title>Node16&#45;&gt;Node18</title>
<path fill="none" stroke="midnightblue" d="M600.875,-799.493C588.487,-801.407 576.052,-803.328 565.581,-804.945"/>
<polygon fill="midnightblue" stroke="midnightblue" points="601.413,-802.952 610.761,-797.966 600.344,-796.034 601.413,-802.952"/>
</g>
<!-- Node19 -->
<g id="node18" class="node"><title>Node19</title>
<g id="a_node18"><a xlink:href="lstrlib_8c.html#acaee4c84f29e2ec7366728ca04d3569c" target="_top" xlink:title=" ">
<polygon fill="white" stroke="black" points="514,-761.629 514,-780.629 561,-780.629 561,-761.629 514,-761.629"/>
<text text-anchor="middle" x="537.5" y="-768.629" font-family="Helvetica,sans-Serif" font-size="10.00">str_rep</text>
</a>
</g>
</g>
<!-- Node16&#45;&gt;Node19 -->
<g id="edge21" class="edge"><title>Node16&#45;&gt;Node19</title>
<path fill="none" stroke="midnightblue" d="M600.589,-780.72C586.551,-778.551 572.473,-776.377 561.28,-774.647"/>
<polygon fill="midnightblue" stroke="midnightblue" points="600.344,-784.223 610.761,-782.291 601.413,-777.305 600.344,-784.223"/>
</g>
<!-- Node20 -->
<g id="node19" class="node"><title>Node20</title>
<g id="a_node19"><a xlink:href="lstrlib_8c.html#a4b2ffac60e817b9bfc54b32f8da3a6b4" target="_top" xlink:title=" ">
<polygon fill="white" stroke="black" points="505.5,-723.629 505.5,-742.629 569.5,-742.629 569.5,-723.629 505.5,-723.629"/>
<text text-anchor="middle" x="537.5" y="-730.629" font-family="Helvetica,sans-Serif" font-size="10.00">str_reverse</text>
</a>
</g>
</g>
<!-- Node16&#45;&gt;Node20 -->
<g id="edge22" class="edge"><title>Node16&#45;&gt;Node20</title>
<path fill="none" stroke="midnightblue" d="M631.813,-776.371C609.34,-765.957 579.045,-751.918 559.155,-742.7"/>
<polygon fill="midnightblue" stroke="midnightblue" points="630.368,-779.559 640.913,-780.588 633.311,-773.208 630.368,-779.559"/>
</g>
<!-- Node21 -->
<g id="node20" class="node"><title>Node21</title>
<g id="a_node20"><a xlink:href="lstrlib_8c.html#a38ed99b74af58070449ca344a7351f6a" target="_top" xlink:title=" ">
<polygon fill="white" stroke="black" points="509,-875.629 509,-894.629 566,-894.629 566,-875.629 509,-875.629"/>
<text text-anchor="middle" x="537.5" y="-882.629" font-family="Helvetica,sans-Serif" font-size="10.00">str_upper</text>
</a>
</g>
</g>
<!-- Node16&#45;&gt;Node21 -->
<g id="edge23" class="edge"><title>Node16&#45;&gt;Node21</title>
<path fill="none" stroke="midnightblue" d="M644.674,-807.13C627.945,-823.477 601.081,-848.27 575,-866.129 570.049,-869.519 564.417,-872.73 559.084,-875.515"/>
<polygon fill="midnightblue" stroke="midnightblue" points="647.381,-809.374 652.024,-799.851 642.456,-804.4 647.381,-809.374"/>
</g>
<!-- Node23 -->
<g id="node22" class="node"><title>Node23</title>
<g id="a_node22"><a xlink:href="ldblib_8c.html#ae0792d4f3f6eedd535895e05426b82df" target="_top" xlink:title=" ">
<polygon fill="white" stroke="black" points="500,-305.629 500,-324.629 575,-324.629 575,-305.629 500,-305.629"/>
<text text-anchor="middle" x="537.5" y="-312.629" font-family="Helvetica,sans-Serif" font-size="10.00">db_traceback</text>
</a>
</g>
</g>
<!-- Node22&#45;&gt;Node23 -->
<g id="edge25" class="edge"><title>Node22&#45;&gt;Node23</title>
<path fill="none" stroke="midnightblue" d="M620.455,-340.448C603.836,-335.314 584.968,-329.485 569.528,-324.715"/>
<polygon fill="midnightblue" stroke="midnightblue" points="619.874,-343.932 630.462,-343.54 621.941,-337.244 619.874,-343.932"/>
</g>
<!-- Node24 -->
<g id="node23" class="node"><title>Node24</title>
<g id="a_node23"><a xlink:href="lua_8c.html#aaf236b6f4e03469c893b4a32e9a02ab2" target="_top" xlink:title=" ">
<polygon fill="white" stroke="black" points="504,-343.629 504,-362.629 571,-362.629 571,-343.629 504,-343.629"/>
<text text-anchor="middle" x="537.5" y="-350.629" font-family="Helvetica,sans-Serif" font-size="10.00">msghandler</text>
</a>
</g>
</g>
<!-- Node22&#45;&gt;Node24 -->
<g id="edge26" class="edge"><title>Node22&#45;&gt;Node24</title>
<path fill="none" stroke="midnightblue" d="M610.852,-353.129C597.497,-353.129 583.437,-353.129 571.299,-353.129"/>
<polygon fill="midnightblue" stroke="midnightblue" points="610.884,-356.629 620.884,-353.129 610.884,-349.629 610.884,-356.629"/>
</g>
<!-- Node25 -->
<g id="node24" class="node"><title>Node25</title>
<g id="a_node24"><a xlink:href="lua_8c.html#a49e04420c2846b52e378ef6272bbf75b" target="_top" xlink:title=" ">
<polygon fill="white" stroke="red" points="406,-286.629 406,-305.629 448,-305.629 448,-286.629 406,-286.629"/>
<text text-anchor="middle" x="427" y="-293.629" font-family="Helvetica,sans-Serif" font-size="10.00">docall</text>
</a>
</g>
</g>
<!-- Node24&#45;&gt;Node25 -->
<g id="edge27" class="edge"><title>Node24&#45;&gt;Node25</title>
<path fill="none" stroke="midnightblue" d="M508.988,-338.828C505.954,-337.245 502.911,-335.654 500,-334.129 481.598,-324.483 460.589,-313.385 446.035,-305.683"/>
<polygon fill="midnightblue" stroke="midnightblue" points="507.435,-341.966 517.921,-343.483 510.67,-335.758 507.435,-341.966"/>
</g>
<!-- Node34 -->
<g id="node25" class="node"><title>Node34</title>
<g id="a_node25"><a xlink:href="lua_8c.html#a946f2675cba972bd3580d9046abf2b6b" target="_top" xlink:title=" ">
<polygon fill="white" stroke="red" points="286,-253.629 286,-272.629 339,-272.629 339,-253.629 286,-253.629"/>
<text text-anchor="middle" x="312.5" y="-260.629" font-family="Helvetica,sans-Serif" font-size="10.00">doREPL</text>
</a>
</g>
</g>
<!-- Node25&#45;&gt;Node34 -->
<g id="edge28" class="edge"><title>Node25&#45;&gt;Node34</title>
<path fill="none" stroke="midnightblue" d="M396.078,-287.352C378.417,-282.171 356.284,-275.679 339.378,-270.72"/>
<polygon fill="midnightblue" stroke="midnightblue" points="395.306,-290.773 405.887,-290.229 397.277,-284.056 395.306,-290.773"/>
</g>
<!-- Node37&#45;&gt;Node12 -->
<g id="edge31" class="edge"><title>Node37&#45;&gt;Node12</title>
<path fill="none" stroke="midnightblue" d="M620.455,-593.809C603.836,-598.943 584.968,-604.773 569.528,-609.543"/>
<polygon fill="midnightblue" stroke="midnightblue" points="621.941,-597.014 630.462,-590.718 619.874,-590.325 621.941,-597.014"/>
</g>
<!-- Node39 -->
<g id="node29" class="node"><title>Node39</title>
<g id="a_node29"><a xlink:href="liolib_8c.html#addece2406777a40f0f591e3518293932" target="_top" xlink:title=" ">
<polygon fill="white" stroke="red" points="514.5,-495.629 514.5,-514.629 560.5,-514.629 560.5,-495.629 514.5,-495.629"/>
<text text-anchor="middle" x="537.5" y="-502.629" font-family="Helvetica,sans-Serif" font-size="10.00">g_read</text>
</a>
</g>
</g>
<!-- Node38&#45;&gt;Node39 -->
<g id="edge33" class="edge"><title>Node38&#45;&gt;Node39</title>
<path fill="none" stroke="midnightblue" d="M627.836,-477.529C606.499,-484.121 579.495,-492.463 560.791,-498.242"/>
<polygon fill="midnightblue" stroke="midnightblue" points="628.971,-480.841 637.492,-474.546 626.905,-474.153 628.971,-480.841"/>
</g>
<!-- Node40 -->
<g id="node30" class="node"><title>Node40</title>
<g id="a_node30"><a xlink:href="liolib_8c.html#add5250a74576076467531e4eb8f5f68e" target="_top" xlink:title=" ">
<polygon fill="white" stroke="black" points="405.5,-495.629 405.5,-514.629 448.5,-514.629 448.5,-495.629 405.5,-495.629"/>
<text text-anchor="middle" x="427" y="-502.629" font-family="Helvetica,sans-Serif" font-size="10.00">f_read</text>
</a>
</g>
</g>
<!-- Node39&#45;&gt;Node40 -->
<g id="edge34" class="edge"><title>Node39&#45;&gt;Node40</title>
<path fill="none" stroke="midnightblue" d="M504.223,-505.129C486.251,-505.129 464.407,-505.129 448.718,-505.129"/>
<polygon fill="midnightblue" stroke="midnightblue" points="504.282,-508.629 514.282,-505.129 504.282,-501.629 504.282,-508.629"/>
</g>
<!-- Node46&#45;&gt;Node39 -->
<g id="edge36" class="edge"><title>Node46&#45;&gt;Node39</title>
<path fill="none" stroke="midnightblue" d="M620.64,-530.505C600.609,-524.317 577.274,-517.107 560.605,-511.958"/>
<polygon fill="midnightblue" stroke="midnightblue" points="619.874,-533.932 630.462,-533.54 621.941,-527.244 619.874,-533.932"/>
</g>
<!-- Node47&#45;&gt;Node39 -->
<g id="edge38" class="edge"><title>Node47&#45;&gt;Node39</title>
<path fill="none" stroke="midnightblue" d="M624.144,-505.129C603.455,-505.129 578.433,-505.129 560.792,-505.129"/>
<polygon fill="midnightblue" stroke="midnightblue" points="624.202,-508.629 634.202,-505.129 624.202,-501.629 624.202,-508.629"/>
</g>
<!-- Node48&#45;&gt;Node6 -->
<g id="edge41" class="edge"><title>Node48&#45;&gt;Node6</title>
<path fill="none" stroke="midnightblue" d="M146.656,-661.945C130.124,-664.298 110.002,-667.162 92.1788,-669.699"/>
<polygon fill="midnightblue" stroke="midnightblue" points="147.533,-665.356 156.94,-660.482 146.547,-658.426 147.533,-665.356"/>
</g>
<!-- Node57 -->
<g id="node42" class="node"><title>Node57</title>
<g id="a_node42"><a xlink:href="lstrlib_8c.html#a853703c83ab694a70212461d5cfe7843" target="_top" xlink:title=" ">
<polygon fill="white" stroke="black" points="508,-1.62861 508,-20.6286 567,-20.6286 567,-1.62861 508,-1.62861"/>
<text text-anchor="middle" x="537.5" y="-8.62861" font-family="Helvetica,sans-Serif" font-size="10.00">add_value</text>
</a>
</g>
</g>
<!-- Node56&#45;&gt;Node57 -->
<g id="edge50" class="edge"><title>Node56&#45;&gt;Node57</title>
<path fill="none" stroke="midnightblue" d="M753.109,-223.474C751.996,-222.429 750.954,-221.315 750,-220.129 696.141,-153.151 777.138,-88.4419 714,-30.1286 674.263,6.57147 605.897,1.69715 567.267,-4.8696"/>
<polygon fill="midnightblue" stroke="midnightblue" points="751.15,-226.377 761.297,-229.427 755.266,-220.715 751.15,-226.377"/>
</g>
<!-- Node58 -->
<g id="node43" class="node"><title>Node58</title>
<g id="a_node43"><a xlink:href="lstrlib_8c.html#ad14703c4bc40d7c1951dedb7bc7554f7" target="_top" xlink:title=" ">
<polygon fill="white" stroke="black" points="622.5,-39.6286 622.5,-58.6286 702.5,-58.6286 702.5,-39.6286 622.5,-39.6286"/>
<text text-anchor="middle" x="662.5" y="-46.6286" font-family="Helvetica,sans-Serif" font-size="10.00">push_captures</text>
</a>
</g>
</g>
<!-- Node56&#45;&gt;Node58 -->
<g id="edge52" class="edge"><title>Node56&#45;&gt;Node58</title>
<path fill="none" stroke="midnightblue" d="M753.663,-223.829C752.35,-222.681 751.121,-221.45 750,-220.129 706.476,-168.844 756.486,-125.276 714,-73.1286 708.911,-66.8824 701.813,-62.1636 694.545,-58.6384"/>
<polygon fill="midnightblue" stroke="midnightblue" points="751.704,-226.73 761.923,-229.528 755.68,-220.968 751.704,-226.73"/>
</g>
<!-- Node57&#45;&gt;Node51 -->
<g id="edge51" class="edge"><title>Node57&#45;&gt;Node51</title>
<path fill="none" stroke="midnightblue" d="M507.578,-25.5293C504.978,-27.0192 502.417,-28.5629 500,-30.1286 476.985,-45.0369 452.394,-65.6429 438.735,-77.5604"/>
<polygon fill="midnightblue" stroke="midnightblue" points="509.304,-28.5746 516.412,-20.7178 505.956,-22.4273 509.304,-28.5746"/>
</g>
<!-- Node58&#45;&gt;Node57 -->
<g id="edge53" class="edge"><title>Node58&#45;&gt;Node57</title>
<path fill="none" stroke="midnightblue" d="M620.549,-36.477C603.141,-31.0991 583.252,-24.9544 567.416,-20.0619"/>
<polygon fill="midnightblue" stroke="midnightblue" points="619.874,-39.9318 630.462,-39.5396 621.941,-33.2437 619.874,-39.9318"/>
</g>
<!-- Node59 -->
<g id="node44" class="node"><title>Node59</title>
<g id="a_node44"><a xlink:href="lstrlib_8c.html#ab7cb0ba6191e1aa9455f6522d3483a02" target="_top" xlink:title=" ">
<polygon fill="white" stroke="red" points="502.5,-77.6286 502.5,-96.6286 572.5,-96.6286 572.5,-77.6286 502.5,-77.6286"/>
<text text-anchor="middle" x="537.5" y="-84.6286" font-family="Helvetica,sans-Serif" font-size="10.00">gmatch_aux</text>
</a>
</g>
</g>
<!-- Node58&#45;&gt;Node59 -->
<g id="edge54" class="edge"><title>Node58&#45;&gt;Node59</title>
<path fill="none" stroke="midnightblue" d="M620.455,-61.809C603.836,-66.9434 584.968,-72.7727 569.528,-77.5427"/>
<polygon fill="midnightblue" stroke="midnightblue" points="621.941,-65.0135 630.462,-58.7176 619.874,-58.3254 621.941,-65.0135"/>
</g>
<!-- Node61 -->
<g id="node45" class="node"><title>Node61</title>
<g id="a_node45"><a xlink:href="lstrlib_8c.html#a692514aa32ae2668683a4db15259d26b" target="_top" xlink:title=" ">
<polygon fill="white" stroke="red" points="503,-39.6286 503,-58.6286 572,-58.6286 572,-39.6286 503,-39.6286"/>
<text text-anchor="middle" x="537.5" y="-46.6286" font-family="Helvetica,sans-Serif" font-size="10.00">str_find_aux</text>
</a>
</g>
</g>
<!-- Node58&#45;&gt;Node61 -->
<g id="edge55" class="edge"><title>Node58&#45;&gt;Node61</title>
<path fill="none" stroke="midnightblue" d="M612.142,-49.1286C598.666,-49.1286 584.379,-49.1286 572.013,-49.1286"/>
<polygon fill="midnightblue" stroke="midnightblue" points="612.244,-52.6287 622.244,-49.1286 612.244,-45.6287 612.244,-52.6287"/>
</g>
<!-- Node65 -->
<g id="node47" class="node"><title>Node65</title>
<g id="a_node47"><a xlink:href="lua_8c.html#ad7e840f79b193c164616ed9748e68ec6" target="_top" xlink:title=" ">
<polygon fill="white" stroke="black" points="512.5,-115.629 512.5,-134.629 562.5,-134.629 562.5,-115.629 512.5,-115.629"/>
<text text-anchor="middle" x="537.5" y="-122.629" font-family="Helvetica,sans-Serif" font-size="10.00">loadline</text>
</a>
</g>
</g>
<!-- Node64&#45;&gt;Node65 -->
<g id="edge57" class="edge"><title>Node64&#45;&gt;Node65</title>
<path fill="none" stroke="midnightblue" d="M759.822,-266.345C756.136,-264.091 752.739,-261.382 750,-258.129 705.28,-205.026 768.454,-149.192 714,-106.129 667.606,-69.4392 591.416,-98.8696 556.726,-115.577"/>
<polygon fill="midnightblue" stroke="midnightblue" points="758.266,-269.48 768.776,-270.817 761.394,-263.217 758.266,-269.48"/>
</g>
<!-- Node66 -->
<g id="node48" class="node"><title>Node66</title>
<g id="a_node48"><a xlink:href="lua_8c.html#affef5a04b31963c2c3f5028518777e12" target="_top" xlink:title=" ">
<polygon fill="white" stroke="black" points="636,-115.629 636,-134.629 689,-134.629 689,-115.629 636,-115.629"/>
<text text-anchor="middle" x="662.5" y="-122.629" font-family="Helvetica,sans-Serif" font-size="10.00">multiline</text>
</a>
</g>
</g>
<!-- Node64&#45;&gt;Node66 -->
<g id="edge59" class="edge"><title>Node64&#45;&gt;Node66</title>
<path fill="none" stroke="midnightblue" d="M759.537,-265.779C756.015,-263.635 752.735,-261.105 750,-258.129 715.481,-220.561 747.758,-187.381 714,-149.129 707.448,-141.705 698.101,-136.387 689.225,-132.675"/>
<polygon fill="midnightblue" stroke="midnightblue" points="758.116,-268.982 768.622,-270.353 761.264,-262.73 758.116,-268.982"/>
</g>
<!-- Node65&#45;&gt;Node34 -->
<g id="edge58" class="edge"><title>Node65&#45;&gt;Node34</title>
<path fill="none" stroke="midnightblue" d="M512.058,-140.254C465.856,-168.845 366.934,-230.062 328.868,-253.619"/>
<polygon fill="midnightblue" stroke="midnightblue" points="514.157,-143.071 520.819,-134.833 510.474,-137.119 514.157,-143.071"/>
</g>
<!-- Node66&#45;&gt;Node65 -->
<g id="edge60" class="edge"><title>Node66&#45;&gt;Node65</title>
<path fill="none" stroke="midnightblue" d="M625.584,-125.129C605.308,-125.129 580.518,-125.129 562.58,-125.129"/>
<polygon fill="midnightblue" stroke="midnightblue" points="625.715,-128.629 635.715,-125.129 625.715,-121.629 625.715,-128.629"/>
</g>
</g>
</svg>
