<?xml version="1.0" encoding="UTF-8" standalone="no"?>
<!DOCTYPE svg PUBLIC "-//W3C//DTD SVG 1.1//EN"
 "http://www.w3.org/Graphics/SVG/1.1/DTD/svg11.dtd">
<!-- Generated by graphviz version 2.38.0 (20140413.2041)
 -->
<!-- Title: lua.c Pages: 1 -->
<svg width="525pt" height="252pt"
 viewBox="0.00 0.00 525.00 252.00" xmlns="http://www.w3.org/2000/svg" xmlns:xlink="http://www.w3.org/1999/xlink">
<g id="graph0" class="graph" transform="scale(1 1) rotate(0) translate(4 248)">
<title>lua.c</title>
<polygon fill="white" stroke="none" points="-4,4 -4,-248 521,-248 521,4 -4,4"/>
<!-- Node1 -->
<g id="node1" class="node"><title>Node1</title>
<g id="a_node1"><a xlink:title=" ">
<polygon fill="#bfbfbf" stroke="black" points="212,-224.5 212,-243.5 250,-243.5 250,-224.5 212,-224.5"/>
<text text-anchor="middle" x="231" y="-231.5" font-family="Helvetica,sans-Serif" font-size="10.00">lua.c</text>
</a>
</g>
</g>
<!-- Node2 -->
<g id="node2" class="node"><title>Node2</title>
<g id="a_node2"><a xlink:href="lprefix_8h.html" target="_top" xlink:title=" ">
<polygon fill="white" stroke="black" points="0,-168.5 0,-187.5 50,-187.5 50,-168.5 0,-168.5"/>
<text text-anchor="middle" x="25" y="-175.5" font-family="Helvetica,sans-Serif" font-size="10.00">lprefix.h</text>
</a>
</g>
</g>
<!-- Node1&#45;&gt;Node2 -->
<g id="edge1" class="edge"><title>Node1&#45;&gt;Node2</title>
<path fill="none" stroke="midnightblue" d="M211.989,-228.017C177.43,-218.957 103.836,-199.666 59.9846,-188.171"/>
<polygon fill="midnightblue" stroke="midnightblue" points="60.8719,-184.785 50.3112,-185.635 59.0969,-191.556 60.8719,-184.785"/>
</g>
<!-- Node3 -->
<g id="node3" class="node"><title>Node3</title>
<g id="a_node3"><a xlink:title=" ">
<polygon fill="white" stroke="#bfbfbf" points="138,-112.5 138,-131.5 184,-131.5 184,-112.5 138,-112.5"/>
<text text-anchor="middle" x="161" y="-119.5" font-family="Helvetica,sans-Serif" font-size="10.00">stdio.h</text>
</a>
</g>
</g>
<!-- Node1&#45;&gt;Node3 -->
<g id="edge2" class="edge"><title>Node1&#45;&gt;Node3</title>
<path fill="none" stroke="midnightblue" d="M211.912,-233.042C181.681,-231.946 123.505,-224.86 97,-188 82.7164,-168.136 108.981,-148.574 132.056,-136.185"/>
<polygon fill="midnightblue" stroke="midnightblue" points="133.649,-139.301 140.974,-131.646 130.474,-133.063 133.649,-139.301"/>
</g>
<!-- Node4 -->
<g id="node4" class="node"><title>Node4</title>
<g id="a_node4"><a xlink:title=" ">
<polygon fill="white" stroke="#bfbfbf" points="106,-168.5 106,-187.5 154,-187.5 154,-168.5 106,-168.5"/>
<text text-anchor="middle" x="130" y="-175.5" font-family="Helvetica,sans-Serif" font-size="10.00">stdlib.h</text>
</a>
</g>
</g>
<!-- Node1&#45;&gt;Node4 -->
<g id="edge3" class="edge"><title>Node1&#45;&gt;Node4</title>
<path fill="none" stroke="midnightblue" d="M214.773,-224.324C198.649,-215.703 173.7,-202.364 155.036,-192.386"/>
<polygon fill="midnightblue" stroke="midnightblue" points="156.656,-189.283 146.187,-187.655 153.356,-195.456 156.656,-189.283"/>
</g>
<!-- Node5 -->
<g id="node5" class="node"><title>Node5</title>
<g id="a_node5"><a xlink:title=" ">
<polygon fill="white" stroke="#bfbfbf" points="172.5,-168.5 172.5,-187.5 221.5,-187.5 221.5,-168.5 172.5,-168.5"/>
<text text-anchor="middle" x="197" y="-175.5" font-family="Helvetica,sans-Serif" font-size="10.00">string.h</text>
</a>
</g>
</g>
<!-- Node1&#45;&gt;Node5 -->
<g id="edge4" class="edge"><title>Node1&#45;&gt;Node5</title>
<path fill="none" stroke="midnightblue" d="M225.386,-224.083C220.633,-216.534 213.682,-205.495 207.848,-196.23"/>
<polygon fill="midnightblue" stroke="midnightblue" points="210.8,-194.349 202.51,-187.751 204.876,-198.078 210.8,-194.349"/>
</g>
<!-- Node6 -->
<g id="node6" class="node"><title>Node6</title>
<g id="a_node6"><a xlink:title=" ">
<polygon fill="white" stroke="#bfbfbf" points="240,-168.5 240,-187.5 290,-187.5 290,-168.5 240,-168.5"/>
<text text-anchor="middle" x="265" y="-175.5" font-family="Helvetica,sans-Serif" font-size="10.00">signal.h</text>
</a>
</g>
</g>
<!-- Node1&#45;&gt;Node6 -->
<g id="edge5" class="edge"><title>Node1&#45;&gt;Node6</title>
<path fill="none" stroke="midnightblue" d="M236.614,-224.083C241.367,-216.534 248.318,-205.495 254.152,-196.23"/>
<polygon fill="midnightblue" stroke="midnightblue" points="257.124,-198.078 259.49,-187.751 251.2,-194.349 257.124,-198.078"/>
</g>
<!-- Node7 -->
<g id="node7" class="node"><title>Node7</title>
<g id="a_node7"><a xlink:href="lua_8h.html" target="_top" xlink:title=" ">
<polygon fill="white" stroke="black" points="381,-112.5 381,-131.5 419,-131.5 419,-112.5 381,-112.5"/>
<text text-anchor="middle" x="400" y="-119.5" font-family="Helvetica,sans-Serif" font-size="10.00">lua.h</text>
</a>
</g>
</g>
<!-- Node1&#45;&gt;Node7 -->
<g id="edge6" class="edge"><title>Node1&#45;&gt;Node7</title>
<path fill="none" stroke="midnightblue" d="M250.175,-231.719C279.623,-228.785 336.219,-219.194 371,-188 384.488,-175.903 392.039,-156.34 396.029,-141.832"/>
<polygon fill="midnightblue" stroke="midnightblue" points="399.475,-142.473 398.425,-131.93 392.671,-140.826 399.475,-142.473"/>
</g>
<!-- Node12 -->
<g id="node12" class="node"><title>Node12</title>
<g id="a_node12"><a xlink:href="lauxlib_8h.html" target="_top" xlink:title=" ">
<polygon fill="white" stroke="black" points="308.5,-168.5 308.5,-187.5 361.5,-187.5 361.5,-168.5 308.5,-168.5"/>
<text text-anchor="middle" x="335" y="-175.5" font-family="Helvetica,sans-Serif" font-size="10.00">lauxlib.h</text>
</a>
</g>
</g>
<!-- Node1&#45;&gt;Node12 -->
<g id="edge12" class="edge"><title>Node1&#45;&gt;Node12</title>
<path fill="none" stroke="midnightblue" d="M247.709,-224.324C264.312,-215.703 290.002,-202.364 309.22,-192.386"/>
<polygon fill="midnightblue" stroke="midnightblue" points="311.07,-195.369 318.332,-187.655 307.844,-189.156 311.07,-195.369"/>
</g>
<!-- Node13 -->
<g id="node13" class="node"><title>Node13</title>
<g id="a_node13"><a xlink:href="lualib_8h.html" target="_top" xlink:title=" ">
<polygon fill="white" stroke="black" points="418.5,-168.5 418.5,-187.5 465.5,-187.5 465.5,-168.5 418.5,-168.5"/>
<text text-anchor="middle" x="442" y="-175.5" font-family="Helvetica,sans-Serif" font-size="10.00">lualib.h</text>
</a>
</g>
</g>
<!-- Node1&#45;&gt;Node13 -->
<g id="edge16" class="edge"><title>Node1&#45;&gt;Node13</title>
<path fill="none" stroke="midnightblue" d="M250.097,-228.113C285.954,-218.936 363.764,-199.022 408.511,-187.571"/>
<polygon fill="midnightblue" stroke="midnightblue" points="409.511,-190.928 418.331,-185.057 407.775,-184.146 409.511,-190.928"/>
</g>
<!-- Node8 -->
<g id="node8" class="node"><title>Node8</title>
<g id="a_node8"><a xlink:title=" ">
<polygon fill="white" stroke="#bfbfbf" points="465,-56.5 465,-75.5 517,-75.5 517,-56.5 465,-56.5"/>
<text text-anchor="middle" x="491" y="-63.5" font-family="Helvetica,sans-Serif" font-size="10.00">stdarg.h</text>
</a>
</g>
</g>
<!-- Node7&#45;&gt;Node8 -->
<g id="edge7" class="edge"><title>Node7&#45;&gt;Node8</title>
<path fill="none" stroke="midnightblue" d="M414.621,-112.324C428.949,-103.822 451.013,-90.7288 467.749,-80.7975"/>
<polygon fill="midnightblue" stroke="midnightblue" points="469.602,-83.7677 476.416,-75.6545 466.03,-77.7478 469.602,-83.7677"/>
</g>
<!-- Node9 -->
<g id="node9" class="node"><title>Node9</title>
<g id="a_node9"><a xlink:title=" ">
<polygon fill="white" stroke="#bfbfbf" points="331.5,-0.5 331.5,-19.5 382.5,-19.5 382.5,-0.5 331.5,-0.5"/>
<text text-anchor="middle" x="357" y="-7.5" font-family="Helvetica,sans-Serif" font-size="10.00">stddef.h</text>
</a>
</g>
</g>
<!-- Node7&#45;&gt;Node9 -->
<g id="edge8" class="edge"><title>Node7&#45;&gt;Node9</title>
<path fill="none" stroke="midnightblue" d="M396.515,-112.387C392.864,-103.339 386.978,-88.6897 382,-76 375.86,-60.3478 369.013,-42.5203 364.04,-29.4995"/>
<polygon fill="midnightblue" stroke="midnightblue" points="367.192,-27.9429 360.359,-19.8458 360.652,-30.4366 367.192,-27.9429"/>
</g>
<!-- Node10 -->
<g id="node10" class="node"><title>Node10</title>
<g id="a_node10"><a xlink:href="luaconf_8h.html" target="_top" xlink:title=" ">
<polygon fill="white" stroke="black" points="391,-56.5 391,-75.5 447,-75.5 447,-56.5 391,-56.5"/>
<text text-anchor="middle" x="419" y="-63.5" font-family="Helvetica,sans-Serif" font-size="10.00">luaconf.h</text>
</a>
</g>
</g>
<!-- Node7&#45;&gt;Node10 -->
<g id="edge9" class="edge"><title>Node7&#45;&gt;Node10</title>
<path fill="none" stroke="midnightblue" d="M403.137,-112.083C405.683,-104.849 409.356,-94.4087 412.527,-85.3968"/>
<polygon fill="midnightblue" stroke="midnightblue" points="415.903,-86.3459 415.921,-75.7511 409.3,-84.0225 415.903,-86.3459"/>
</g>
<!-- Node10&#45;&gt;Node9 -->
<g id="edge11" class="edge"><title>Node10&#45;&gt;Node9</title>
<path fill="none" stroke="midnightblue" d="M409.039,-56.324C399.873,-48.3414 386.063,-36.3128 374.972,-26.6529"/>
<polygon fill="midnightblue" stroke="midnightblue" points="376.982,-23.7624 367.143,-19.8339 372.385,-29.041 376.982,-23.7624"/>
</g>
<!-- Node11 -->
<g id="node11" class="node"><title>Node11</title>
<g id="a_node11"><a xlink:title=" ">
<polygon fill="white" stroke="#bfbfbf" points="401,-0.5 401,-19.5 449,-19.5 449,-0.5 401,-0.5"/>
<text text-anchor="middle" x="425" y="-7.5" font-family="Helvetica,sans-Serif" font-size="10.00">limits.h</text>
</a>
</g>
</g>
<!-- Node10&#45;&gt;Node11 -->
<g id="edge10" class="edge"><title>Node10&#45;&gt;Node11</title>
<path fill="none" stroke="midnightblue" d="M419.991,-56.083C420.786,-48.9272 421.929,-38.6353 422.923,-29.6911"/>
<polygon fill="midnightblue" stroke="midnightblue" points="426.402,-30.0765 424.028,-19.7511 419.445,-29.3034 426.402,-30.0765"/>
</g>
<!-- Node12&#45;&gt;Node3 -->
<g id="edge14" class="edge"><title>Node12&#45;&gt;Node3</title>
<path fill="none" stroke="midnightblue" d="M308.194,-168.681C277.438,-159.136 226.998,-143.482 193.892,-133.208"/>
<polygon fill="midnightblue" stroke="midnightblue" points="194.804,-129.826 184.215,-130.205 192.729,-136.512 194.804,-129.826"/>
</g>
<!-- Node12&#45;&gt;Node7 -->
<g id="edge15" class="edge"><title>Node12&#45;&gt;Node7</title>
<path fill="none" stroke="midnightblue" d="M345.443,-168.324C355.146,-160.263 369.815,-148.077 381.5,-138.369"/>
<polygon fill="midnightblue" stroke="midnightblue" points="383.911,-140.916 389.367,-131.834 379.438,-135.532 383.911,-140.916"/>
</g>
<!-- Node12&#45;&gt;Node9 -->
<g id="edge13" class="edge"><title>Node12&#45;&gt;Node9</title>
<path fill="none" stroke="midnightblue" d="M336.183,-168.075C339.646,-141.945 349.815,-65.2106 354.538,-29.577"/>
<polygon fill="midnightblue" stroke="midnightblue" points="358.02,-29.9413 355.864,-19.5681 351.081,-29.0216 358.02,-29.9413"/>
</g>
<!-- Node13&#45;&gt;Node7 -->
<g id="edge17" class="edge"><title>Node13&#45;&gt;Node7</title>
<path fill="none" stroke="midnightblue" d="M435.065,-168.083C429.071,-160.377 420.248,-149.033 412.952,-139.653"/>
<polygon fill="midnightblue" stroke="midnightblue" points="415.709,-137.496 406.806,-131.751 410.183,-141.793 415.709,-137.496"/>
</g>
</g>
</svg>
