<?xml version="1.0" encoding="UTF-8" standalone="no"?>
<!DOCTYPE svg PUBLIC "-//W3C//DTD SVG 1.1//EN"
 "http://www.w3.org/Graphics/SVG/1.1/DTD/svg11.dtd">
<!-- Generated by graphviz version 2.38.0 (20140413.2041)
 -->
<!-- Title: loadSize Pages: 1 -->
<svg width="2091pt" height="583pt"
 viewBox="0.00 0.00 2091.00 583.37" xmlns="http://www.w3.org/2000/svg" xmlns:xlink="http://www.w3.org/1999/xlink">
<g id="graph0" class="graph" transform="scale(1 1) rotate(0) translate(4 579.374)">
<title>loadSize</title>
<polygon fill="white" stroke="none" points="-4,4 -4,-579.374 2087,-579.374 2087,4 -4,4"/>
<!-- Node1 -->
<g id="node1" class="node"><title>Node1</title>
<g id="a_node1"><a xlink:title=" ">
<polygon fill="#bfbfbf" stroke="black" points="0,-261.874 0,-280.874 54,-280.874 54,-261.874 0,-261.874"/>
<text text-anchor="middle" x="27" y="-268.874" font-family="Helvetica,sans-Serif" font-size="10.00">loadSize</text>
</a>
</g>
</g>
<!-- Node2 -->
<g id="node2" class="node"><title>Node2</title>
<g id="a_node2"><a xlink:href="lundump_8c.html#aeba7bac26dc16767005aba9c51d6210c" target="_top" xlink:title=" ">
<polygon fill="white" stroke="black" points="90,-261.874 90,-280.874 165,-280.874 165,-261.874 90,-261.874"/>
<text text-anchor="middle" x="127.5" y="-268.874" font-family="Helvetica,sans-Serif" font-size="10.00">loadUnsigned</text>
</a>
</g>
</g>
<!-- Node1&#45;&gt;Node2 -->
<g id="edge1" class="edge"><title>Node1&#45;&gt;Node2</title>
<path fill="none" stroke="midnightblue" d="M54.1376,-271.374C62.0028,-271.374 70.8851,-271.374 79.6648,-271.374"/>
<polygon fill="midnightblue" stroke="midnightblue" points="79.8573,-274.874 89.8572,-271.374 79.8572,-267.874 79.8573,-274.874"/>
</g>
<!-- Node3 -->
<g id="node3" class="node"><title>Node3</title>
<g id="a_node3"><a xlink:href="lundump_8c.html#a4359a67dfcb96fbedf2becab47365599" target="_top" xlink:title=" ">
<polygon fill="white" stroke="black" points="292,-261.874 292,-280.874 328,-280.874 328,-261.874 292,-261.874"/>
<text text-anchor="middle" x="310" y="-268.874" font-family="Helvetica,sans-Serif" font-size="10.00">error</text>
</a>
</g>
</g>
<!-- Node2&#45;&gt;Node3 -->
<g id="edge2" class="edge"><title>Node2&#45;&gt;Node3</title>
<path fill="none" stroke="midnightblue" d="M165.027,-271.374C199.49,-271.374 250.387,-271.374 281.526,-271.374"/>
<polygon fill="midnightblue" stroke="midnightblue" points="281.657,-274.874 291.657,-271.374 281.657,-267.874 281.657,-274.874"/>
</g>
<!-- Node446 -->
<g id="node50" class="node"><title>Node446</title>
<g id="a_node50"><a xlink:href="lundump_8c.html#a42ccd2fdd0830eda677e6b0b4bb5ec5a" target="_top" xlink:title=" ">
<polygon fill="white" stroke="black" points="201,-242.874 201,-261.874 256,-261.874 256,-242.874 201,-242.874"/>
<text text-anchor="middle" x="228.5" y="-249.874" font-family="Helvetica,sans-Serif" font-size="10.00">loadByte</text>
</a>
</g>
</g>
<!-- Node2&#45;&gt;Node446 -->
<g id="edge68" class="edge"><title>Node2&#45;&gt;Node446</title>
<path fill="none" stroke="midnightblue" d="M165.083,-264.353C173.541,-262.73 182.54,-261.003 190.995,-259.38"/>
<polygon fill="midnightblue" stroke="midnightblue" points="191.805,-262.789 200.966,-257.467 190.485,-255.914 191.805,-262.789"/>
</g>
<!-- Node4 -->
<g id="node4" class="node"><title>Node4</title>
<g id="a_node4"><a xlink:href="ldo_8c.html#a2b46d9db5b9ca3d5402a0c2ac640a6b0" target="_top" xlink:title=" ">
<polygon fill="white" stroke="black" points="364,-365.874 364,-384.874 429,-384.874 429,-365.874 364,-365.874"/>
<text text-anchor="middle" x="396.5" y="-372.874" font-family="Helvetica,sans-Serif" font-size="10.00">luaD_throw</text>
</a>
</g>
</g>
<!-- Node3&#45;&gt;Node4 -->
<g id="edge3" class="edge"><title>Node3&#45;&gt;Node4</title>
<path fill="none" stroke="midnightblue" d="M318.798,-280.972C333.009,-298.462 363.311,-335.757 381.282,-357.875"/>
<polygon fill="midnightblue" stroke="midnightblue" points="378.698,-360.246 387.721,-365.8 384.131,-355.831 378.698,-360.246"/>
</g>
<!-- Node25 -->
<g id="node32" class="node"><title>Node25</title>
<g id="a_node32"><a xlink:href="lobject_8c.html#a8e224db7123c74d695076a96d1bfda61" target="_top" xlink:title=" ">
<polygon fill="white" stroke="black" points="1103,-195.874 1103,-214.874 1192,-214.874 1192,-195.874 1103,-195.874"/>
<text text-anchor="middle" x="1147.5" y="-202.874" font-family="Helvetica,sans-Serif" font-size="10.00">luaO_pushfstring</text>
</a>
</g>
</g>
<!-- Node3&#45;&gt;Node25 -->
<g id="edge67" class="edge"><title>Node3&#45;&gt;Node25</title>
<path fill="none" stroke="midnightblue" d="M326.656,-261.636C357.714,-243.277 429.844,-205.374 496,-205.374 496,-205.374 496,-205.374 879,-205.374 953.169,-205.374 1038.91,-205.374 1092.91,-205.374"/>
<polygon fill="midnightblue" stroke="midnightblue" points="1092.95,-208.874 1102.95,-205.374 1092.95,-201.874 1092.95,-208.874"/>
</g>
<!-- Node4&#45;&gt;Node4 -->
<g id="edge5" class="edge"><title>Node4&#45;&gt;Node4</title>
<path fill="none" stroke="midnightblue" d="M383.245,-385.131C376.796,-393.939 381.215,-403.374 396.5,-403.374 406.053,-403.374 411.362,-399.689 412.425,-394.774"/>
<polygon fill="midnightblue" stroke="midnightblue" points="415.797,-393.835 409.755,-385.131 409.051,-395.703 415.797,-393.835"/>
</g>
<!-- Node5 -->
<g id="node5" class="node"><title>Node5</title>
<g id="a_node5"><a xlink:href="ldo_8c.html#a2a5656cf723dffe2e9b5314260bd8896" target="_top" xlink:title=" ">
<polygon fill="white" stroke="black" points="834.5,-555.874 834.5,-574.874 921.5,-574.874 921.5,-555.874 834.5,-555.874"/>
<text text-anchor="middle" x="878" y="-562.874" font-family="Helvetica,sans-Serif" font-size="10.00">luaD_seterrorobj</text>
</a>
</g>
</g>
<!-- Node4&#45;&gt;Node5 -->
<g id="edge4" class="edge"><title>Node4&#45;&gt;Node5</title>
<path fill="none" stroke="midnightblue" d="M403.875,-385.055C414.725,-400.871 438.225,-432.387 465,-451.374 576.58,-530.5 741.055,-554.782 824.421,-562.177"/>
<polygon fill="midnightblue" stroke="midnightblue" points="824.161,-565.667 834.419,-563.016 824.747,-558.692 824.161,-565.667"/>
</g>
<!-- Node6 -->
<g id="node6" class="node"><title>Node6</title>
<g id="a_node6"><a xlink:href="lfunc_8c.html#ae9fcbf80b5969afd9412b9aed102f94e" target="_top" xlink:title=" ">
<polygon fill="white" stroke="black" points="465,-422.874 465,-441.874 529,-441.874 529,-422.874 465,-422.874"/>
<text text-anchor="middle" x="497" y="-429.874" font-family="Helvetica,sans-Serif" font-size="10.00">luaF_close</text>
</a>
</g>
</g>
<!-- Node4&#45;&gt;Node6 -->
<g id="edge6" class="edge"><title>Node4&#45;&gt;Node6</title>
<path fill="none" stroke="midnightblue" d="M414.209,-385.043C429.727,-394.023 453.046,-407.518 470.819,-417.803"/>
<polygon fill="midnightblue" stroke="midnightblue" points="469.129,-420.868 479.538,-422.848 472.635,-414.81 469.129,-420.868"/>
</g>
<!-- Node7 -->
<g id="node7" class="node"><title>Node7</title>
<g id="a_node7"><a xlink:href="lfunc_8c.html#a4105c820bb9b1b4b4b3bd6613b0ccb05" target="_top" xlink:title=" ">
<polygon fill="white" stroke="black" points="573.5,-403.874 573.5,-422.874 644.5,-422.874 644.5,-403.874 573.5,-403.874"/>
<text text-anchor="middle" x="609" y="-410.874" font-family="Helvetica,sans-Serif" font-size="10.00">callclosemth</text>
</a>
</g>
</g>
<!-- Node6&#45;&gt;Node7 -->
<g id="edge7" class="edge"><title>Node6&#45;&gt;Node7</title>
<path fill="none" stroke="midnightblue" d="M529.227,-426.98C539.732,-425.166 551.668,-423.104 563.016,-421.144"/>
<polygon fill="midnightblue" stroke="midnightblue" points="563.956,-424.534 573.214,-419.383 562.764,-417.636 563.956,-424.534"/>
</g>
<!-- Node92 -->
<g id="node49" class="node"><title>Node92</title>
<g id="a_node49"><a xlink:href="lfunc_8c.html#a3b5a5ae122e85af5c941e9b4ffff53bd" target="_top" xlink:title=" ">
<polygon fill="white" stroke="black" points="565,-441.874 565,-460.874 653,-460.874 653,-441.874 565,-441.874"/>
<text text-anchor="middle" x="609" y="-448.874" font-family="Helvetica,sans-Serif" font-size="10.00">luaF_unlinkupval</text>
</a>
</g>
</g>
<!-- Node6&#45;&gt;Node92 -->
<g id="edge66" class="edge"><title>Node6&#45;&gt;Node92</title>
<path fill="none" stroke="midnightblue" d="M529.227,-437.768C537.257,-439.155 546.124,-440.687 554.926,-442.207"/>
<polygon fill="midnightblue" stroke="midnightblue" points="554.337,-445.657 564.787,-443.91 555.528,-438.759 554.337,-445.657"/>
</g>
<!-- Node7&#45;&gt;Node5 -->
<g id="edge19" class="edge"><title>Node7&#45;&gt;Node5</title>
<path fill="none" stroke="midnightblue" d="M639.523,-423.026C644.414,-425.532 649.141,-428.616 653,-432.374 679.774,-458.453 660.69,-483.972 689,-508.374 709.38,-525.941 776.05,-543.506 824.21,-554.398"/>
<polygon fill="midnightblue" stroke="midnightblue" points="823.661,-557.861 834.183,-556.619 825.183,-551.029 823.661,-557.861"/>
</g>
<!-- Node8 -->
<g id="node8" class="node"><title>Node8</title>
<g id="a_node8"><a xlink:href="lfunc_8c.html#ad6f77f3a49d8b6199525c7edac6fd0a6" target="_top" xlink:title=" ">
<polygon fill="white" stroke="black" points="710.5,-441.874 710.5,-460.874 765.5,-460.874 765.5,-441.874 710.5,-441.874"/>
<text text-anchor="middle" x="738" y="-448.874" font-family="Helvetica,sans-Serif" font-size="10.00">callclose</text>
</a>
</g>
</g>
<!-- Node7&#45;&gt;Node8 -->
<g id="edge8" class="edge"><title>Node7&#45;&gt;Node8</title>
<path fill="none" stroke="midnightblue" d="M642.047,-422.963C659.78,-428.269 681.889,-434.884 700.311,-440.396"/>
<polygon fill="midnightblue" stroke="midnightblue" points="699.531,-443.816 710.115,-443.33 701.538,-437.11 699.531,-443.816"/>
</g>
<!-- Node77 -->
<g id="node11" class="node"><title>Node77</title>
<g id="a_node11"><a xlink:href="ldo_8c.html#a1ad7f845cc62b110e3fcc0ae187d7c85" target="_top" xlink:title=" ">
<polygon fill="white" stroke="black" points="707,-479.874 707,-498.874 769,-498.874 769,-479.874 707,-479.874"/>
<text text-anchor="middle" x="738" y="-486.874" font-family="Helvetica,sans-Serif" font-size="10.00">luaD_pcall</text>
</a>
</g>
</g>
<!-- Node7&#45;&gt;Node77 -->
<g id="edge11" class="edge"><title>Node7&#45;&gt;Node77</title>
<path fill="none" stroke="midnightblue" d="M636.363,-423.043C642.082,-425.672 647.931,-428.799 653,-432.374 672.012,-445.782 669.729,-457.341 689,-470.374 691.747,-472.232 694.702,-473.95 697.749,-475.529"/>
<polygon fill="midnightblue" stroke="midnightblue" points="696.5,-478.808 707.044,-479.853 699.453,-472.461 696.5,-478.808"/>
</g>
<!-- Node79 -->
<g id="node17" class="node"><title>Node79</title>
<g id="a_node17"><a xlink:href="lstate_8c.html#a242ebb018d637c41f24b84a2bbc78f34" target="_top" xlink:title=" ">
<polygon fill="white" stroke="black" points="697.5,-403.874 697.5,-422.874 778.5,-422.874 778.5,-403.874 697.5,-403.874"/>
<text text-anchor="middle" x="738" y="-410.874" font-family="Helvetica,sans-Serif" font-size="10.00">luaE_warnerror</text>
</a>
</g>
</g>
<!-- Node7&#45;&gt;Node79 -->
<g id="edge20" class="edge"><title>Node7&#45;&gt;Node79</title>
<path fill="none" stroke="midnightblue" d="M644.703,-413.374C657.823,-413.374 673.024,-413.374 687.256,-413.374"/>
<polygon fill="midnightblue" stroke="midnightblue" points="687.404,-416.874 697.404,-413.374 687.404,-409.874 687.404,-416.874"/>
</g>
<!-- Node419 -->
<g id="node19" class="node"><title>Node419</title>
<g id="a_node19"><a xlink:href="lfunc_8c.html#a523bc674df9f893ade61463c4ba5f09a" target="_top" xlink:title=" ">
<polygon fill="white" stroke="black" points="689,-365.874 689,-384.874 787,-384.874 787,-365.874 689,-365.874"/>
<text text-anchor="middle" x="738" y="-372.874" font-family="Helvetica,sans-Serif" font-size="10.00">prepclosingmethod</text>
</a>
</g>
</g>
<!-- Node7&#45;&gt;Node419 -->
<g id="edge22" class="edge"><title>Node7&#45;&gt;Node419</title>
<path fill="none" stroke="midnightblue" d="M642.047,-403.785C658.141,-398.97 677.841,-393.075 695.117,-387.906"/>
<polygon fill="midnightblue" stroke="midnightblue" points="696.386,-391.18 704.963,-384.96 694.379,-384.474 696.386,-391.18"/>
</g>
<!-- Node422 -->
<g id="node22" class="node"><title>Node422</title>
<g id="a_node22"><a xlink:href="lfunc_8c.html#a865c4fcb22304c78c59721af224c34b6" target="_top" xlink:title=" ">
<polygon fill="white" stroke="black" points="714,-280.874 714,-299.874 762,-299.874 762,-280.874 714,-280.874"/>
<text text-anchor="middle" x="738" y="-287.874" font-family="Helvetica,sans-Serif" font-size="10.00">varerror</text>
</a>
</g>
</g>
<!-- Node7&#45;&gt;Node422 -->
<g id="edge25" class="edge"><title>Node7&#45;&gt;Node422</title>
<path fill="none" stroke="midnightblue" d="M619.965,-403.723C641.573,-382.795 692.953,-333.034 719.875,-306.959"/>
<polygon fill="midnightblue" stroke="midnightblue" points="722.332,-309.452 727.081,-299.981 717.463,-304.424 722.332,-309.452"/>
</g>
<!-- Node9 -->
<g id="node9" class="node"><title>Node9</title>
<g id="a_node9"><a xlink:href="ldo_8c.html#a61c0a0185ef5ae1493dad10027f4db7e" target="_top" xlink:title=" ">
<polygon fill="white" stroke="black" points="1104,-417.874 1104,-436.874 1191,-436.874 1191,-417.874 1104,-417.874"/>
<text text-anchor="middle" x="1147.5" y="-424.874" font-family="Helvetica,sans-Serif" font-size="10.00">luaD_callnoyield</text>
</a>
</g>
</g>
<!-- Node8&#45;&gt;Node9 -->
<g id="edge9" class="edge"><title>Node8&#45;&gt;Node9</title>
<path fill="none" stroke="midnightblue" d="M765.788,-449.867C821.744,-446.71 955.121,-439.133 1067,-432.374 1075.53,-431.859 1084.58,-431.301 1093.4,-430.751"/>
<polygon fill="midnightblue" stroke="midnightblue" points="1093.83,-434.23 1103.59,-430.112 1093.39,-427.244 1093.83,-434.23"/>
</g>
<!-- Node10 -->
<g id="node10" class="node"><title>Node10</title>
<g id="a_node10"><a xlink:href="ldo_8c.html#aa7d32ccef16c2d4fe63604c4c457831d" target="_top" xlink:title=" ">
<polygon fill="white" stroke="red" points="1256,-417.874 1256,-436.874 1293,-436.874 1293,-417.874 1256,-417.874"/>
<text text-anchor="middle" x="1274.5" y="-424.874" font-family="Helvetica,sans-Serif" font-size="10.00">ccall</text>
</a>
</g>
</g>
<!-- Node9&#45;&gt;Node10 -->
<g id="edge10" class="edge"><title>Node9&#45;&gt;Node10</title>
<path fill="none" stroke="midnightblue" d="M1191.17,-427.374C1209.1,-427.374 1229.46,-427.374 1245.44,-427.374"/>
<polygon fill="midnightblue" stroke="midnightblue" points="1245.73,-430.874 1255.73,-427.374 1245.73,-423.874 1245.73,-430.874"/>
</g>
<!-- Node77&#45;&gt;Node5 -->
<g id="edge13" class="edge"><title>Node77&#45;&gt;Node5</title>
<path fill="none" stroke="midnightblue" d="M761.229,-498.9C769.6,-502.89 779.018,-507.881 787,-513.374 804.88,-525.68 804.385,-535.212 823,-546.374 826.403,-548.414 830.057,-550.28 833.803,-551.977"/>
<polygon fill="midnightblue" stroke="midnightblue" points="832.628,-555.278 843.207,-555.847 835.292,-548.805 832.628,-555.278"/>
</g>
<!-- Node77&#45;&gt;Node6 -->
<g id="edge18" class="edge"><title>Node77&#45;&gt;Node6</title>
<path fill="none" stroke="midnightblue" d="M706.71,-489.687C671.736,-489.22 612.877,-485.868 565,-470.374 548.824,-465.139 532.19,-455.731 519.542,-447.587"/>
<polygon fill="midnightblue" stroke="midnightblue" points="521.362,-444.594 511.101,-441.957 517.478,-450.417 521.362,-444.594"/>
</g>
<!-- Node78 -->
<g id="node12" class="node"><title>Node78</title>
<g id="a_node12"><a xlink:href="ldo_8c.html#ab0872b1738a995ecbf1cdc8a9bc0fdf6" target="_top" xlink:title=" ">
<polygon fill="white" stroke="black" points="823,-479.874 823,-498.874 933,-498.874 933,-479.874 823,-479.874"/>
<text text-anchor="middle" x="878" y="-486.874" font-family="Helvetica,sans-Serif" font-size="10.00">luaD_rawrunprotected</text>
</a>
</g>
</g>
<!-- Node77&#45;&gt;Node78 -->
<g id="edge12" class="edge"><title>Node77&#45;&gt;Node78</title>
<path fill="none" stroke="midnightblue" d="M769.285,-489.374C782.049,-489.374 797.426,-489.374 812.514,-489.374"/>
<polygon fill="midnightblue" stroke="midnightblue" points="812.878,-492.874 822.878,-489.374 812.878,-485.874 812.878,-492.874"/>
</g>
<!-- Node59 -->
<g id="node13" class="node"><title>Node59</title>
<g id="a_node13"><a xlink:href="ldo_8c.html#a219aa86777779dccae2c1bf9008db70a" target="_top" xlink:title=" ">
<polygon fill="white" stroke="black" points="832,-517.874 832,-536.874 924,-536.874 924,-517.874 832,-517.874"/>
<text text-anchor="middle" x="878" y="-524.874" font-family="Helvetica,sans-Serif" font-size="10.00">luaD_shrinkstack</text>
</a>
</g>
</g>
<!-- Node77&#45;&gt;Node59 -->
<g id="edge14" class="edge"><title>Node77&#45;&gt;Node59</title>
<path fill="none" stroke="midnightblue" d="M769.285,-497.713C787.831,-502.82 811.894,-509.446 832.571,-515.14"/>
<polygon fill="midnightblue" stroke="midnightblue" points="831.84,-518.569 842.411,-517.849 833.699,-511.82 831.84,-518.569"/>
</g>
<!-- Node60 -->
<g id="node14" class="node"><title>Node60</title>
<g id="a_node14"><a xlink:href="ldo_8c.html#a75b8b0016e9182d4fd9f71c1a7238e8a" target="_top" xlink:title=" ">
<polygon fill="white" stroke="red" points="971,-555.874 971,-574.874 1065,-574.874 1065,-555.874 971,-555.874"/>
<text text-anchor="middle" x="1018" y="-562.874" font-family="Helvetica,sans-Serif" font-size="10.00">luaD_reallocstack</text>
</a>
</g>
</g>
<!-- Node59&#45;&gt;Node60 -->
<g id="edge15" class="edge"><title>Node59&#45;&gt;Node60</title>
<path fill="none" stroke="midnightblue" d="M913.823,-536.963C931.638,-541.869 953.518,-547.894 972.539,-553.131"/>
<polygon fill="midnightblue" stroke="midnightblue" points="971.618,-556.508 982.188,-555.788 973.476,-549.759 971.618,-556.508"/>
</g>
<!-- Node62 -->
<g id="node15" class="node"><title>Node62</title>
<g id="a_node15"><a xlink:href="lstate_8c.html#a59bcd5586c176d9e24bcdf9e4d07adbe" target="_top" xlink:title=" ">
<polygon fill="white" stroke="black" points="979.5,-517.874 979.5,-536.874 1056.5,-536.874 1056.5,-517.874 979.5,-517.874"/>
<text text-anchor="middle" x="1018" y="-524.874" font-family="Helvetica,sans-Serif" font-size="10.00">luaE_shrinkCI</text>
</a>
</g>
</g>
<!-- Node59&#45;&gt;Node62 -->
<g id="edge16" class="edge"><title>Node59&#45;&gt;Node62</title>
<path fill="none" stroke="midnightblue" d="M924.186,-527.374C938.482,-527.374 954.331,-527.374 968.828,-527.374"/>
<polygon fill="midnightblue" stroke="midnightblue" points="969.103,-530.874 979.103,-527.374 969.103,-523.874 969.103,-530.874"/>
</g>
<!-- Node63 -->
<g id="node16" class="node"><title>Node63</title>
<g id="a_node16"><a xlink:href="ldo_8c.html#ac2956ef8f7aba184c6591001f2017a54" target="_top" xlink:title=" ">
<polygon fill="white" stroke="black" points="986,-479.874 986,-498.874 1050,-498.874 1050,-479.874 986,-479.874"/>
<text text-anchor="middle" x="1018" y="-486.874" font-family="Helvetica,sans-Serif" font-size="10.00">stackinuse</text>
</a>
</g>
</g>
<!-- Node59&#45;&gt;Node63 -->
<g id="edge17" class="edge"><title>Node59&#45;&gt;Node63</title>
<path fill="none" stroke="midnightblue" d="M913.823,-517.785C932.812,-512.556 956.422,-506.055 976.262,-500.592"/>
<polygon fill="midnightblue" stroke="midnightblue" points="977.243,-503.952 985.955,-497.923 975.384,-497.203 977.243,-503.952"/>
</g>
<!-- Node80 -->
<g id="node18" class="node"><title>Node80</title>
<g id="a_node18"><a xlink:href="lstate_8c.html#a7055cc5e36512e37c811a7d5c6fa0be6" target="_top" xlink:title=" ">
<polygon fill="white" stroke="black" points="841,-403.874 841,-422.874 915,-422.874 915,-403.874 841,-403.874"/>
<text text-anchor="middle" x="878" y="-410.874" font-family="Helvetica,sans-Serif" font-size="10.00">luaE_warning</text>
</a>
</g>
</g>
<!-- Node79&#45;&gt;Node80 -->
<g id="edge21" class="edge"><title>Node79&#45;&gt;Node80</title>
<path fill="none" stroke="midnightblue" d="M778.545,-413.374C794.771,-413.374 813.671,-413.374 830.549,-413.374"/>
<polygon fill="midnightblue" stroke="midnightblue" points="830.755,-416.874 840.755,-413.374 830.755,-409.874 830.755,-416.874"/>
</g>
<!-- Node81 -->
<g id="node20" class="node"><title>Node81</title>
<g id="a_node20"><a xlink:href="ltm_8c.html#a0a3a3df9d6e7f17d806f74d411e59b2d" target="_top" xlink:title=" ">
<polygon fill="white" stroke="black" points="834,-365.874 834,-384.874 922,-384.874 922,-365.874 834,-365.874"/>
<text text-anchor="middle" x="878" y="-372.874" font-family="Helvetica,sans-Serif" font-size="10.00">luaT_gettmbyobj</text>
</a>
</g>
</g>
<!-- Node419&#45;&gt;Node81 -->
<g id="edge23" class="edge"><title>Node419&#45;&gt;Node81</title>
<path fill="none" stroke="midnightblue" d="M787.266,-375.374C798.928,-375.374 811.462,-375.374 823.354,-375.374"/>
<polygon fill="midnightblue" stroke="midnightblue" points="823.602,-378.874 833.602,-375.374 823.602,-371.874 823.602,-378.874"/>
</g>
<!-- Node82 -->
<g id="node21" class="node"><title>Node82</title>
<g id="a_node21"><a xlink:href="ltable_8c.html#ae8a52507e1c8966d9cf3f2dd5a0c325f" target="_top" xlink:title=" ">
<polygon fill="white" stroke="black" points="974,-403.874 974,-422.874 1062,-422.874 1062,-403.874 974,-403.874"/>
<text text-anchor="middle" x="1018" y="-410.874" font-family="Helvetica,sans-Serif" font-size="10.00">luaH_getshortstr</text>
</a>
</g>
</g>
<!-- Node81&#45;&gt;Node82 -->
<g id="edge24" class="edge"><title>Node81&#45;&gt;Node82</title>
<path fill="none" stroke="midnightblue" d="M913.823,-384.963C931.638,-389.869 953.518,-395.894 972.539,-401.131"/>
<polygon fill="midnightblue" stroke="midnightblue" points="971.618,-404.508 982.188,-403.788 973.476,-397.759 971.618,-404.508"/>
</g>
<!-- Node423 -->
<g id="node23" class="node"><title>Node423</title>
<g id="a_node23"><a xlink:href="ldebug_8c.html#acf87581237e7d0072502ffc5092e8329" target="_top" xlink:title=" ">
<polygon fill="white" stroke="black" points="839.5,-33.8741 839.5,-52.8741 916.5,-52.8741 916.5,-33.8741 839.5,-33.8741"/>
<text text-anchor="middle" x="878" y="-40.8741" font-family="Helvetica,sans-Serif" font-size="10.00">luaG_findlocal</text>
</a>
</g>
</g>
<!-- Node422&#45;&gt;Node423 -->
<g id="edge26" class="edge"><title>Node422&#45;&gt;Node423</title>
<path fill="none" stroke="midnightblue" d="M744.41,-280.691C765.063,-243.726 839.158,-111.106 866.643,-61.911"/>
<polygon fill="midnightblue" stroke="midnightblue" points="869.806,-63.4269 871.628,-52.9899 863.695,-60.0126 869.806,-63.4269"/>
</g>
<!-- Node18 -->
<g id="node27" class="node"><title>Node18</title>
<g id="a_node27"><a xlink:href="ldebug_8c.html#a88d38ca5da2e7a1492fc9d5ad70c32c5" target="_top" xlink:title=" ">
<polygon fill="white" stroke="black" points="840.5,-280.874 840.5,-299.874 915.5,-299.874 915.5,-280.874 840.5,-280.874"/>
<text text-anchor="middle" x="878" y="-287.874" font-family="Helvetica,sans-Serif" font-size="10.00">luaG_runerror</text>
</a>
</g>
</g>
<!-- Node422&#45;&gt;Node18 -->
<g id="edge30" class="edge"><title>Node422&#45;&gt;Node18</title>
<path fill="none" stroke="midnightblue" d="M762.098,-290.374C780.596,-290.374 807.148,-290.374 830.069,-290.374"/>
<polygon fill="midnightblue" stroke="midnightblue" points="830.303,-293.874 840.303,-290.374 830.303,-286.874 830.303,-293.874"/>
</g>
<!-- Node20 -->
<g id="node24" class="node"><title>Node20</title>
<g id="a_node24"><a xlink:href="ldebug_8c.html#a7db2a3f5cbcf0ac3ef6d4cfa15ab4dbc" target="_top" xlink:title=" ">
<polygon fill="white" stroke="black" points="1119,-14.8741 1119,-33.8741 1176,-33.8741 1176,-14.8741 1119,-14.8741"/>
<text text-anchor="middle" x="1147.5" y="-21.8741" font-family="Helvetica,sans-Serif" font-size="10.00">currentpc</text>
</a>
</g>
</g>
<!-- Node423&#45;&gt;Node20 -->
<g id="edge27" class="edge"><title>Node423&#45;&gt;Node20</title>
<path fill="none" stroke="midnightblue" d="M895.926,-33.7975C913.539,-24.4255 942.236,-10.7926 969,-5.37411 1011.69,3.2687 1023.74,-0.276896 1067,-5.37411 1080.93,-7.01511 1095.95,-10.22 1109.14,-13.5371"/>
<polygon fill="midnightblue" stroke="midnightblue" points="1108.27,-16.926 1118.83,-16.0714 1110.04,-10.154 1108.27,-16.926"/>
</g>
<!-- Node424 -->
<g id="node25" class="node"><title>Node424</title>
<g id="a_node25"><a xlink:href="ldebug_8c.html#adde29da645f7256cd7b78dafeec64cc1" target="_top" xlink:title=" ">
<polygon fill="white" stroke="black" points="989.5,-52.8741 989.5,-71.8741 1046.5,-71.8741 1046.5,-52.8741 989.5,-52.8741"/>
<text text-anchor="middle" x="1018" y="-59.8741" font-family="Helvetica,sans-Serif" font-size="10.00">findvararg</text>
</a>
</g>
</g>
<!-- Node423&#45;&gt;Node424 -->
<g id="edge28" class="edge"><title>Node423&#45;&gt;Node424</title>
<path fill="none" stroke="midnightblue" d="M916.709,-48.5659C936.191,-51.2482 959.895,-54.5119 979.366,-57.1927"/>
<polygon fill="midnightblue" stroke="midnightblue" points="979.021,-60.6781 989.405,-58.5748 979.976,-53.7435 979.021,-60.6781"/>
</g>
<!-- Node136 -->
<g id="node26" class="node"><title>Node136</title>
<g id="a_node26"><a xlink:href="lfunc_8c.html#aaa3cd5bc3901e7edf1ac428151cdfe8c" target="_top" xlink:title=" ">
<polygon fill="white" stroke="black" points="969,-14.8741 969,-33.8741 1067,-33.8741 1067,-14.8741 969,-14.8741"/>
<text text-anchor="middle" x="1018" y="-21.8741" font-family="Helvetica,sans-Serif" font-size="10.00">luaF_getlocalname</text>
</a>
</g>
</g>
<!-- Node423&#45;&gt;Node136 -->
<g id="edge29" class="edge"><title>Node423&#45;&gt;Node136</title>
<path fill="none" stroke="midnightblue" d="M916.709,-38.1823C929.681,-36.3963 944.525,-34.3526 958.744,-32.3948"/>
<polygon fill="midnightblue" stroke="midnightblue" points="959.523,-35.8207 968.952,-30.9894 958.568,-28.8861 959.523,-35.8207"/>
</g>
<!-- Node19 -->
<g id="node28" class="node"><title>Node19</title>
<g id="a_node28"><a xlink:href="ldebug_8c.html#ad6bc24d619df8e849e2ae8b00455d86f" target="_top" xlink:title=" ">
<polygon fill="white" stroke="black" points="980.5,-90.8741 980.5,-109.874 1055.5,-109.874 1055.5,-90.8741 980.5,-90.8741"/>
<text text-anchor="middle" x="1018" y="-97.8741" font-family="Helvetica,sans-Serif" font-size="10.00">getcurrentline</text>
</a>
</g>
</g>
<!-- Node18&#45;&gt;Node19 -->
<g id="edge31" class="edge"><title>Node18&#45;&gt;Node19</title>
<path fill="none" stroke="midnightblue" d="M881.881,-280.857C890.656,-253.279 919.52,-172.24 969,-124.374 972.754,-120.742 977.166,-117.55 981.768,-114.78"/>
<polygon fill="midnightblue" stroke="midnightblue" points="983.575,-117.782 990.727,-109.966 980.261,-111.616 983.575,-117.782"/>
</g>
<!-- Node23 -->
<g id="node30" class="node"><title>Node23</title>
<g id="a_node30"><a xlink:href="ldebug_8c.html#a7e1dc7518150bf19bd9aa5dda166a2eb" target="_top" xlink:title=" ">
<polygon fill="white" stroke="black" points="981.5,-233.874 981.5,-252.874 1054.5,-252.874 1054.5,-233.874 981.5,-233.874"/>
<text text-anchor="middle" x="1018" y="-240.874" font-family="Helvetica,sans-Serif" font-size="10.00">luaG_addinfo</text>
</a>
</g>
</g>
<!-- Node18&#45;&gt;Node23 -->
<g id="edge34" class="edge"><title>Node18&#45;&gt;Node23</title>
<path fill="none" stroke="midnightblue" d="M906.926,-280.863C927.645,-273.807 956.132,-264.104 978.935,-256.338"/>
<polygon fill="midnightblue" stroke="midnightblue" points="980.304,-259.57 988.642,-253.032 978.047,-252.943 980.304,-259.57"/>
</g>
<!-- Node26 -->
<g id="node33" class="node"><title>Node26</title>
<g id="a_node33"><a xlink:href="lobject_8c.html#aa83fa444a36d79521e846a766fa083d5" target="_top" xlink:title=" ">
<polygon fill="white" stroke="black" points="1228,-261.874 1228,-280.874 1321,-280.874 1321,-261.874 1228,-261.874"/>
<text text-anchor="middle" x="1274.5" y="-268.874" font-family="Helvetica,sans-Serif" font-size="10.00">luaO_pushvfstring</text>
</a>
</g>
</g>
<!-- Node18&#45;&gt;Node26 -->
<g id="edge65" class="edge"><title>Node18&#45;&gt;Node26</title>
<path fill="none" stroke="midnightblue" d="M915.759,-284.474C985.189,-277.904 1135.97,-270.395 1217.87,-269.182"/>
<polygon fill="midnightblue" stroke="midnightblue" points="1218.03,-272.681 1227.99,-269.062 1217.94,-265.681 1218.03,-272.681"/>
</g>
<!-- Node126 -->
<g id="node48" class="node"><title>Node126</title>
<g id="a_node48"><a xlink:href="ldebug_8c.html#af7366920f8408bb33ed01b1d6c0e1238" target="_top" xlink:title=" ">
<polygon fill="white" stroke="black" points="978,-365.874 978,-384.874 1058,-384.874 1058,-365.874 978,-365.874"/>
<text text-anchor="middle" x="1018" y="-372.874" font-family="Helvetica,sans-Serif" font-size="10.00">luaG_errormsg</text>
</a>
</g>
</g>
<!-- Node18&#45;&gt;Node126 -->
<g id="edge62" class="edge"><title>Node18&#45;&gt;Node126</title>
<path fill="none" stroke="midnightblue" d="M895.851,-300.011C906.661,-306.354 920.889,-315.003 933,-323.374 949.674,-334.899 951.852,-340.567 969,-351.374 974.483,-354.83 980.53,-358.179 986.431,-361.226"/>
<polygon fill="midnightblue" stroke="midnightblue" points="984.968,-364.407 995.479,-365.734 988.09,-358.142 984.968,-364.407"/>
</g>
<!-- Node19&#45;&gt;Node20 -->
<g id="edge32" class="edge"><title>Node19&#45;&gt;Node20</title>
<path fill="none" stroke="midnightblue" d="M1046.44,-90.8519C1053.31,-88.1085 1060.55,-84.8941 1067,-81.3741 1088.76,-69.5007 1111.55,-52.6358 1127.13,-40.3319"/>
<polygon fill="midnightblue" stroke="midnightblue" points="1129.37,-43.0153 1134.98,-34.0263 1124.99,-37.5563 1129.37,-43.0153"/>
</g>
<!-- Node21 -->
<g id="node29" class="node"><title>Node21</title>
<g id="a_node29"><a xlink:href="ldebug_8c.html#ae7a6d2f88b11cc05758e44acd433ee2f" target="_top" xlink:title=" ">
<polygon fill="white" stroke="red" points="1103,-90.8741 1103,-109.874 1192,-109.874 1192,-90.8741 1103,-90.8741"/>
<text text-anchor="middle" x="1147.5" y="-97.8741" font-family="Helvetica,sans-Serif" font-size="10.00">luaG_getfuncline</text>
</a>
</g>
</g>
<!-- Node19&#45;&gt;Node21 -->
<g id="edge33" class="edge"><title>Node19&#45;&gt;Node21</title>
<path fill="none" stroke="midnightblue" d="M1055.54,-100.374C1067.03,-100.374 1079.99,-100.374 1092.43,-100.374"/>
<polygon fill="midnightblue" stroke="midnightblue" points="1092.73,-103.874 1102.73,-100.374 1092.73,-96.8742 1092.73,-103.874"/>
</g>
<!-- Node24 -->
<g id="node31" class="node"><title>Node24</title>
<g id="a_node31"><a xlink:href="lobject_8c.html#ac331b4119bbeb45a8a7e5a1afe553b2e" target="_top" xlink:title=" ">
<polygon fill="white" stroke="black" points="1109.5,-233.874 1109.5,-252.874 1185.5,-252.874 1185.5,-233.874 1109.5,-233.874"/>
<text text-anchor="middle" x="1147.5" y="-240.874" font-family="Helvetica,sans-Serif" font-size="10.00">luaO_chunkid</text>
</a>
</g>
</g>
<!-- Node23&#45;&gt;Node24 -->
<g id="edge35" class="edge"><title>Node23&#45;&gt;Node24</title>
<path fill="none" stroke="midnightblue" d="M1054.52,-243.374C1068.41,-243.374 1084.54,-243.374 1099.37,-243.374"/>
<polygon fill="midnightblue" stroke="midnightblue" points="1099.4,-246.874 1109.4,-243.374 1099.4,-239.874 1099.4,-246.874"/>
</g>
<!-- Node23&#45;&gt;Node25 -->
<g id="edge36" class="edge"><title>Node23&#45;&gt;Node25</title>
<path fill="none" stroke="midnightblue" d="M1051.17,-233.785C1067.33,-228.97 1087.11,-223.075 1104.45,-217.906"/>
<polygon fill="midnightblue" stroke="midnightblue" points="1105.75,-221.171 1114.34,-214.96 1103.75,-214.462 1105.75,-221.171"/>
</g>
<!-- Node25&#45;&gt;Node26 -->
<g id="edge37" class="edge"><title>Node25&#45;&gt;Node26</title>
<path fill="none" stroke="midnightblue" d="M1171.75,-214.96C1178.36,-217.84 1185.53,-221.106 1192,-224.374 1211.75,-234.341 1233.41,-246.916 1249.43,-256.549"/>
<polygon fill="midnightblue" stroke="midnightblue" points="1247.79,-259.649 1258.16,-261.84 1251.42,-253.663 1247.79,-259.649"/>
</g>
<!-- Node26&#45;&gt;Node18 -->
<g id="edge60" class="edge"><title>Node26&#45;&gt;Node18</title>
<path fill="none" stroke="midnightblue" d="M1227.99,-278.07C1152.57,-284.677 1002.45,-291.927 926.036,-292.672"/>
<polygon fill="midnightblue" stroke="midnightblue" points="925.738,-289.174 915.759,-292.733 925.78,-296.174 925.738,-289.174"/>
</g>
<!-- Node27 -->
<g id="node34" class="node"><title>Node27</title>
<g id="a_node34"><a xlink:href="lobject_8c.html#a1d02fb9304e4700ce1fd20e34ae68784" target="_top" xlink:title=" ">
<polygon fill="white" stroke="black" points="1358.5,-318.874 1358.5,-337.874 1429.5,-337.874 1429.5,-318.874 1358.5,-318.874"/>
<text text-anchor="middle" x="1394" y="-325.874" font-family="Helvetica,sans-Serif" font-size="10.00">addnum2buff</text>
</a>
</g>
</g>
<!-- Node26&#45;&gt;Node27 -->
<g id="edge38" class="edge"><title>Node26&#45;&gt;Node27</title>
<path fill="none" stroke="midnightblue" d="M1295.17,-280.915C1313.98,-290.039 1342.57,-303.909 1363.99,-314.301"/>
<polygon fill="midnightblue" stroke="midnightblue" points="1362.74,-317.587 1373.27,-318.802 1365.8,-311.289 1362.74,-317.587"/>
</g>
<!-- Node28 -->
<g id="node35" class="node"><title>Node28</title>
<g id="a_node35"><a xlink:href="lobject_8c.html#ac4ab924f2ea45ef73319f1159033eab1" target="_top" xlink:title=" ">
<polygon fill="white" stroke="black" points="1476.5,-280.874 1476.5,-299.874 1521.5,-299.874 1521.5,-280.874 1476.5,-280.874"/>
<text text-anchor="middle" x="1499" y="-287.874" font-family="Helvetica,sans-Serif" font-size="10.00">getbuff</text>
</a>
</g>
</g>
<!-- Node26&#45;&gt;Node28 -->
<g id="edge59" class="edge"><title>Node26&#45;&gt;Node28</title>
<path fill="none" stroke="midnightblue" d="M1321.06,-275.265C1364.41,-278.966 1428.49,-284.438 1466.46,-287.681"/>
<polygon fill="midnightblue" stroke="midnightblue" points="1466.18,-291.17 1476.44,-288.533 1466.78,-284.195 1466.18,-291.17"/>
</g>
<!-- Node29 -->
<g id="node36" class="node"><title>Node29</title>
<g id="a_node36"><a xlink:href="lobject_8c.html#a6ec2716e64cd75e3e6614a87ee92e4d2" target="_top" xlink:title=" ">
<polygon fill="white" stroke="black" points="1567,-215.874 1567,-234.874 1620,-234.874 1620,-215.874 1567,-215.874"/>
<text text-anchor="middle" x="1593.5" y="-222.874" font-family="Helvetica,sans-Serif" font-size="10.00">clearbuff</text>
</a>
</g>
</g>
<!-- Node26&#45;&gt;Node29 -->
<g id="edge58" class="edge"><title>Node26&#45;&gt;Node29</title>
<path fill="none" stroke="midnightblue" d="M1291.04,-261.806C1306.95,-252.582 1332.71,-239.193 1357,-233.374 1426.2,-216.796 1510.09,-219.054 1556.76,-222.204"/>
<polygon fill="midnightblue" stroke="midnightblue" points="1556.73,-225.711 1566.96,-222.948 1557.24,-218.73 1556.73,-225.711"/>
</g>
<!-- Node124 -->
<g id="node46" class="node"><title>Node124</title>
<g id="a_node46"><a xlink:href="lobject_8c.html#a874ab64f433ee35f2197a81e10452cb1" target="_top" xlink:title=" ">
<polygon fill="white" stroke="black" points="1362,-242.874 1362,-261.874 1426,-261.874 1426,-242.874 1362,-242.874"/>
<text text-anchor="middle" x="1394" y="-249.874" font-family="Helvetica,sans-Serif" font-size="10.00">addstr2buff</text>
</a>
</g>
</g>
<!-- Node26&#45;&gt;Node124 -->
<g id="edge54" class="edge"><title>Node26&#45;&gt;Node124</title>
<path fill="none" stroke="midnightblue" d="M1321.27,-263.974C1331.31,-262.35 1341.88,-260.64 1351.74,-259.046"/>
<polygon fill="midnightblue" stroke="midnightblue" points="1352.38,-262.488 1361.69,-257.437 1351.26,-255.578 1352.38,-262.488"/>
</g>
<!-- Node125 -->
<g id="node47" class="node"><title>Node125</title>
<g id="a_node47"><a xlink:href="lobject_8c.html#af3136de4693789b08f78aafda9604676" target="_top" xlink:title=" ">
<polygon fill="white" stroke="black" points="1357,-166.874 1357,-185.874 1431,-185.874 1431,-166.874 1357,-166.874"/>
<text text-anchor="middle" x="1394" y="-173.874" font-family="Helvetica,sans-Serif" font-size="10.00">luaO_utf8esc</text>
</a>
</g>
</g>
<!-- Node26&#45;&gt;Node125 -->
<g id="edge61" class="edge"><title>Node26&#45;&gt;Node125</title>
<path fill="none" stroke="midnightblue" d="M1285.69,-261.738C1300.77,-247.65 1330.16,-220.879 1357,-200.374 1360.8,-197.474 1364.93,-194.534 1368.99,-191.753"/>
<polygon fill="midnightblue" stroke="midnightblue" points="1371.25,-194.452 1377.64,-185.994 1367.37,-188.627 1371.25,-194.452"/>
</g>
<!-- Node27&#45;&gt;Node28 -->
<g id="edge39" class="edge"><title>Node27&#45;&gt;Node28</title>
<path fill="none" stroke="midnightblue" d="M1420.99,-318.785C1434.84,-313.676 1451.98,-307.352 1466.57,-301.969"/>
<polygon fill="midnightblue" stroke="midnightblue" points="1468.03,-305.163 1476.2,-298.418 1465.6,-298.596 1468.03,-305.163"/>
</g>
<!-- Node123 -->
<g id="node45" class="node"><title>Node123</title>
<g id="a_node45"><a xlink:href="lobject_8c.html#a8a7886b6335aca97db23dfe3e220c728" target="_top" xlink:title=" ">
<polygon fill="white" stroke="black" points="1467,-318.874 1467,-337.874 1531,-337.874 1531,-318.874 1467,-318.874"/>
<text text-anchor="middle" x="1499" y="-325.874" font-family="Helvetica,sans-Serif" font-size="10.00">tostringbuff</text>
</a>
</g>
</g>
<!-- Node27&#45;&gt;Node123 -->
<g id="edge53" class="edge"><title>Node27&#45;&gt;Node123</title>
<path fill="none" stroke="midnightblue" d="M1429.58,-328.374C1438.24,-328.374 1447.61,-328.374 1456.56,-328.374"/>
<polygon fill="midnightblue" stroke="midnightblue" points="1456.8,-331.874 1466.8,-328.374 1456.8,-324.874 1456.8,-331.874"/>
</g>
<!-- Node28&#45;&gt;Node29 -->
<g id="edge40" class="edge"><title>Node28&#45;&gt;Node29</title>
<path fill="none" stroke="midnightblue" d="M1513.65,-280.783C1528.54,-270.318 1552.61,-253.405 1570.24,-241.014"/>
<polygon fill="midnightblue" stroke="midnightblue" points="1572.63,-243.618 1578.8,-235.004 1568.6,-237.89 1572.63,-243.618"/>
</g>
<!-- Node30 -->
<g id="node37" class="node"><title>Node30</title>
<g id="a_node37"><a xlink:href="lobject_8c.html#a90720e7e38c0e352e9b97d3f8def9e1a" target="_top" xlink:title=" ">
<polygon fill="white" stroke="black" points="1656,-196.874 1656,-215.874 1705,-215.874 1705,-196.874 1656,-196.874"/>
<text text-anchor="middle" x="1680.5" y="-203.874" font-family="Helvetica,sans-Serif" font-size="10.00">pushstr</text>
</a>
</g>
</g>
<!-- Node29&#45;&gt;Node30 -->
<g id="edge41" class="edge"><title>Node29&#45;&gt;Node30</title>
<path fill="none" stroke="midnightblue" d="M1620,-219.673C1628.16,-217.851 1637.31,-215.805 1645.95,-213.874"/>
<polygon fill="midnightblue" stroke="midnightblue" points="1646.76,-217.278 1655.76,-211.681 1645.24,-210.447 1646.76,-217.278"/>
</g>
<!-- Node31 -->
<g id="node38" class="node"><title>Node31</title>
<g id="a_node38"><a xlink:href="lstring_8c.html#ab41fb084ce3ea5e2779f6659ccc2484d" target="_top" xlink:title=" ">
<polygon fill="white" stroke="black" points="1859,-215.874 1859,-234.874 1931,-234.874 1931,-215.874 1859,-215.874"/>
<text text-anchor="middle" x="1895" y="-222.874" font-family="Helvetica,sans-Serif" font-size="10.00">luaS_newlstr</text>
</a>
</g>
</g>
<!-- Node30&#45;&gt;Node31 -->
<g id="edge42" class="edge"><title>Node30&#45;&gt;Node31</title>
<path fill="none" stroke="midnightblue" d="M1705.05,-208.48C1739.57,-211.566 1804.55,-217.376 1848.55,-221.311"/>
<polygon fill="midnightblue" stroke="midnightblue" points="1848.43,-224.814 1858.71,-222.218 1849.06,-217.842 1848.43,-224.814"/>
</g>
<!-- Node116 -->
<g id="node42" class="node"><title>Node116</title>
<g id="a_node42"><a xlink:href="lvm_8c.html#a2f076040af405dcb50d661edd692eca7" target="_top" xlink:title=" ">
<polygon fill="white" stroke="black" points="1741,-144.874 1741,-163.874 1812,-163.874 1812,-144.874 1741,-144.874"/>
<text text-anchor="middle" x="1776.5" y="-151.874" font-family="Helvetica,sans-Serif" font-size="10.00">luaV_concat</text>
</a>
</g>
</g>
<!-- Node30&#45;&gt;Node116 -->
<g id="edge47" class="edge"><title>Node30&#45;&gt;Node116</title>
<path fill="none" stroke="midnightblue" d="M1698.74,-196.837C1712.83,-189.042 1732.98,-177.895 1749.1,-168.978"/>
<polygon fill="midnightblue" stroke="midnightblue" points="1750.99,-171.931 1758.05,-164.027 1747.61,-165.805 1750.99,-171.931"/>
</g>
<!-- Node32 -->
<g id="node39" class="node"><title>Node32</title>
<g id="a_node39"><a xlink:href="lstring_8c.html#a9b2c32c59a280de24f20df1c7f0433a1" target="_top" xlink:title=" ">
<polygon fill="white" stroke="red" points="1998,-215.874 1998,-234.874 2063,-234.874 2063,-215.874 1998,-215.874"/>
<text text-anchor="middle" x="2030.5" y="-222.874" font-family="Helvetica,sans-Serif" font-size="10.00">internshrstr</text>
</a>
</g>
</g>
<!-- Node31&#45;&gt;Node32 -->
<g id="edge43" class="edge"><title>Node31&#45;&gt;Node32</title>
<path fill="none" stroke="midnightblue" d="M1931.08,-225.374C1948.46,-225.374 1969.58,-225.374 1987.8,-225.374"/>
<polygon fill="midnightblue" stroke="midnightblue" points="1987.85,-228.874 1997.85,-225.374 1987.85,-221.874 1987.85,-228.874"/>
</g>
<!-- Node114 -->
<g id="node40" class="node"><title>Node114</title>
<g id="a_node40"><a xlink:href="lmem_8c.html#a8fc7df43dd830ccbe7581fd53f65bdbe" target="_top" xlink:title=" ">
<polygon fill="white" stroke="black" points="1996,-310.874 1996,-329.874 2065,-329.874 2065,-310.874 1996,-310.874"/>
<text text-anchor="middle" x="2030.5" y="-317.874" font-family="Helvetica,sans-Serif" font-size="10.00">luaM_toobig</text>
</a>
</g>
</g>
<!-- Node31&#45;&gt;Node114 -->
<g id="edge44" class="edge"><title>Node31&#45;&gt;Node114</title>
<path fill="none" stroke="midnightblue" d="M1909.78,-235.183C1932.99,-251.695 1980.02,-285.166 2007.73,-304.881"/>
<polygon fill="midnightblue" stroke="midnightblue" points="2005.81,-307.814 2015.99,-310.76 2009.87,-302.11 2005.81,-307.814"/>
</g>
<!-- Node115 -->
<g id="node41" class="node"><title>Node115</title>
<g id="a_node41"><a xlink:href="lstring_8c.html#a8790c7d6e706f935dd6e9eefd068921c" target="_top" xlink:title=" ">
<polygon fill="white" stroke="red" points="1978,-139.874 1978,-158.874 2083,-158.874 2083,-139.874 1978,-139.874"/>
<text text-anchor="middle" x="2030.5" y="-146.874" font-family="Helvetica,sans-Serif" font-size="10.00">luaS_createlngstrobj</text>
</a>
</g>
</g>
<!-- Node31&#45;&gt;Node115 -->
<g id="edge46" class="edge"><title>Node31&#45;&gt;Node115</title>
<path fill="none" stroke="midnightblue" d="M1921.69,-215.747C1928.42,-212.963 1935.58,-209.755 1942,-206.374 1965.5,-194.005 1990.75,-177.131 2008.06,-164.956"/>
<polygon fill="midnightblue" stroke="midnightblue" points="2010.22,-167.716 2016.33,-159.066 2006.16,-162.013 2010.22,-167.716"/>
</g>
<!-- Node114&#45;&gt;Node18 -->
<g id="edge45" class="edge"><title>Node114&#45;&gt;Node18</title>
<path fill="none" stroke="midnightblue" d="M1998.01,-329.905C1950.64,-343.379 1858,-366.374 1777.5,-366.374 1498,-366.374 1498,-366.374 1498,-366.374 1282.89,-366.374 1028.84,-320.599 925.853,-300.099"/>
<polygon fill="midnightblue" stroke="midnightblue" points="926.278,-296.615 915.785,-298.08 924.901,-303.478 926.278,-296.615"/>
</g>
<!-- Node116&#45;&gt;Node18 -->
<g id="edge49" class="edge"><title>Node116&#45;&gt;Node18</title>
<path fill="none" stroke="midnightblue" d="M1740.88,-149.487C1704.51,-144.781 1645.6,-138.374 1594.5,-138.374 1146.5,-138.374 1146.5,-138.374 1146.5,-138.374 1038.06,-138.374 933.384,-233.964 894.699,-273.535"/>
<polygon fill="midnightblue" stroke="midnightblue" points="892.062,-271.227 887.663,-280.866 897.112,-276.074 892.062,-271.227"/>
</g>
<!-- Node116&#45;&gt;Node31 -->
<g id="edge51" class="edge"><title>Node116&#45;&gt;Node31</title>
<path fill="none" stroke="midnightblue" d="M1788.88,-164.133C1802.34,-175.349 1825.75,-193.82 1848,-206.374 1851.28,-208.223 1854.77,-209.994 1858.32,-211.658"/>
<polygon fill="midnightblue" stroke="midnightblue" points="1857.13,-214.959 1867.69,-215.798 1859.95,-208.556 1857.13,-214.959"/>
</g>
<!-- Node116&#45;&gt;Node115 -->
<g id="edge50" class="edge"><title>Node116&#45;&gt;Node115</title>
<path fill="none" stroke="midnightblue" d="M1799.56,-144.775C1813.22,-139.36 1831.29,-133.14 1848,-130.374 1889.22,-123.551 1900.46,-125.916 1942,-130.374 1955.79,-131.855 1970.61,-134.612 1984.05,-137.576"/>
<polygon fill="midnightblue" stroke="midnightblue" points="1983.49,-141.04 1994.02,-139.866 1985.06,-134.217 1983.49,-141.04"/>
</g>
<!-- Node117 -->
<g id="node43" class="node"><title>Node117</title>
<g id="a_node43"><a xlink:href="lvm_8c.html#a7f03a9c23b77ec5cd280bb955ec430b8" target="_top" xlink:title=" ">
<polygon fill="white" stroke="black" points="1866,-139.874 1866,-158.874 1924,-158.874 1924,-139.874 1866,-139.874"/>
<text text-anchor="middle" x="1895" y="-146.874" font-family="Helvetica,sans-Serif" font-size="10.00">copy2buff</text>
</a>
</g>
</g>
<!-- Node116&#45;&gt;Node117 -->
<g id="edge48" class="edge"><title>Node116&#45;&gt;Node117</title>
<path fill="none" stroke="midnightblue" d="M1812.14,-152.887C1825.82,-152.3 1841.6,-151.623 1855.62,-151.021"/>
<polygon fill="midnightblue" stroke="midnightblue" points="1856.11,-154.504 1865.95,-150.578 1855.81,-147.51 1856.11,-154.504"/>
</g>
<!-- Node118 -->
<g id="node44" class="node"><title>Node118</title>
<g id="a_node44"><a xlink:href="ltm_8c.html#addc61bf94c111c5a5bd3fe0032cb9be0" target="_top" xlink:title=" ">
<polygon fill="white" stroke="red" points="1848,-177.874 1848,-196.874 1942,-196.874 1942,-177.874 1848,-177.874"/>
<text text-anchor="middle" x="1895" y="-184.874" font-family="Helvetica,sans-Serif" font-size="10.00">luaT_tryconcatTM</text>
</a>
</g>
</g>
<!-- Node116&#45;&gt;Node118 -->
<g id="edge52" class="edge"><title>Node116&#45;&gt;Node118</title>
<path fill="none" stroke="midnightblue" d="M1811.2,-163.919C1823.51,-167.408 1837.62,-171.405 1850.66,-175.098"/>
<polygon fill="midnightblue" stroke="midnightblue" points="1849.8,-178.493 1860.38,-177.851 1851.71,-171.758 1849.8,-178.493"/>
</g>
<!-- Node124&#45;&gt;Node28 -->
<g id="edge56" class="edge"><title>Node124&#45;&gt;Node28</title>
<path fill="none" stroke="midnightblue" d="M1420.99,-261.963C1434.84,-267.072 1451.98,-273.396 1466.57,-278.78"/>
<polygon fill="midnightblue" stroke="midnightblue" points="1465.6,-282.152 1476.2,-282.33 1468.03,-275.585 1465.6,-282.152"/>
</g>
<!-- Node124&#45;&gt;Node29 -->
<g id="edge55" class="edge"><title>Node124&#45;&gt;Node29</title>
<path fill="none" stroke="midnightblue" d="M1426.29,-248.096C1461.79,-243.244 1519.55,-235.347 1556.78,-230.257"/>
<polygon fill="midnightblue" stroke="midnightblue" points="1557.27,-233.723 1566.7,-228.901 1556.32,-226.788 1557.27,-233.723"/>
</g>
<!-- Node124&#45;&gt;Node30 -->
<g id="edge57" class="edge"><title>Node124&#45;&gt;Node30</title>
<path fill="none" stroke="midnightblue" d="M1424.66,-242.867C1437.61,-238.831 1453,-234.189 1467,-230.374 1511.1,-218.357 1521.61,-211.745 1567,-206.374 1593.29,-203.264 1623.27,-203.447 1645.67,-204.308"/>
<polygon fill="midnightblue" stroke="midnightblue" points="1645.55,-207.806 1655.7,-204.758 1645.87,-200.813 1645.55,-207.806"/>
</g>
<!-- Node126&#45;&gt;Node4 -->
<g id="edge64" class="edge"><title>Node126&#45;&gt;Node4</title>
<path fill="none" stroke="midnightblue" d="M979.562,-365.854C965.093,-362.452 948.351,-358.852 933,-356.374 847.472,-342.568 825.635,-337.374 739,-337.374 608,-337.374 608,-337.374 608,-337.374 548.649,-337.374 481.36,-352.185 439.177,-363.314"/>
<polygon fill="midnightblue" stroke="midnightblue" points="438.02,-360.001 429.274,-365.981 439.84,-366.76 438.02,-360.001"/>
</g>
<!-- Node126&#45;&gt;Node9 -->
<g id="edge63" class="edge"><title>Node126&#45;&gt;Node9</title>
<path fill="none" stroke="midnightblue" d="M1043.45,-384.962C1051.01,-387.951 1059.36,-391.276 1067,-394.374 1082.53,-400.67 1099.7,-407.781 1114.11,-413.786"/>
<polygon fill="midnightblue" stroke="midnightblue" points="1113,-417.118 1123.58,-417.743 1115.7,-410.659 1113,-417.118"/>
</g>
<!-- Node446&#45;&gt;Node3 -->
<g id="edge69" class="edge"><title>Node446&#45;&gt;Node3</title>
<path fill="none" stroke="midnightblue" d="M256.415,-258.807C264.65,-260.775 273.708,-262.94 281.952,-264.91"/>
<polygon fill="midnightblue" stroke="midnightblue" points="281.296,-268.351 291.835,-267.272 282.923,-261.543 281.296,-268.351"/>
</g>
</g>
</svg>
