<?xml version="1.0" encoding="UTF-8" standalone="no"?>
<!DOCTYPE svg PUBLIC "-//W3C//DTD SVG 1.1//EN"
 "http://www.w3.org/Graphics/SVG/1.1/DTD/svg11.dtd">
<!-- Generated by graphviz version 2.38.0 (20140413.2041)
 -->
<!-- Title: codepoint Pages: 1 -->
<svg width="2005pt" height="521pt"
 viewBox="0.00 0.00 2005.00 521.00" xmlns="http://www.w3.org/2000/svg" xmlns:xlink="http://www.w3.org/1999/xlink">
<g id="graph0" class="graph" transform="scale(1 1) rotate(0) translate(4 517)">
<title>codepoint</title>
<polygon fill="white" stroke="none" points="-4,4 -4,-517 2001,-517 2001,4 -4,4"/>
<!-- Node1 -->
<g id="node1" class="node"><title>Node1</title>
<g id="a_node1"><a xlink:title=" ">
<polygon fill="#bfbfbf" stroke="black" points="0,-256.5 0,-275.5 59,-275.5 59,-256.5 0,-256.5"/>
<text text-anchor="middle" x="29.5" y="-263.5" font-family="Helvetica,sans-Serif" font-size="10.00">codepoint</text>
</a>
</g>
</g>
<!-- Node2 -->
<g id="node2" class="node"><title>Node2</title>
<g id="a_node2"><a xlink:href="lapi_8c.html#adcec46ff05dfee9a3c4c05828b40c213" target="_top" xlink:title=" ">
<polygon fill="white" stroke="black" points="95,-389.5 95,-408.5 180,-408.5 180,-389.5 95,-389.5"/>
<text text-anchor="middle" x="137.5" y="-396.5" font-family="Helvetica,sans-Serif" font-size="10.00">lua_pushinteger</text>
</a>
</g>
</g>
<!-- Node1&#45;&gt;Node2 -->
<g id="edge1" class="edge"><title>Node1&#45;&gt;Node2</title>
<path fill="none" stroke="midnightblue" d="M34.1679,-275.533C42.3964,-295.916 64.0608,-344.369 95,-375 98.4415,-378.407 102.463,-381.506 106.622,-384.259"/>
<polygon fill="midnightblue" stroke="midnightblue" points="104.837,-387.27 115.212,-389.416 108.44,-381.268 104.837,-387.27"/>
</g>
<!-- Node3 -->
<g id="node3" class="node"><title>Node3</title>
<g id="a_node3"><a xlink:href="lapi_8c.html#a444aee9aa56b0b06175ee3c7bcf7927c" target="_top" xlink:title=" ">
<polygon fill="white" stroke="black" points="225,-446.5 225,-465.5 302,-465.5 302,-446.5 225,-446.5"/>
<text text-anchor="middle" x="263.5" y="-453.5" font-family="Helvetica,sans-Serif" font-size="10.00">lua_toboolean</text>
</a>
</g>
</g>
<!-- Node1&#45;&gt;Node3 -->
<g id="edge2" class="edge"><title>Node1&#45;&gt;Node3</title>
<path fill="none" stroke="midnightblue" d="M36.5553,-275.606C46.8709,-291.315 69.2537,-322.681 95,-342 128.099,-366.836 145.441,-357.239 180,-380 205.717,-396.937 231.14,-421.947 246.821,-438.595"/>
<polygon fill="midnightblue" stroke="midnightblue" points="244.334,-441.061 253.695,-446.023 249.472,-436.306 244.334,-441.061"/>
</g>
<!-- Node5 -->
<g id="node5" class="node"><title>Node5</title>
<g id="a_node5"><a xlink:href="lauxlib_8c.html#a79405166c5a94624ebe0427e6b0c07e0" target="_top" xlink:title=" ">
<polygon fill="white" stroke="black" points="347,-275.5 347,-294.5 439,-294.5 439,-275.5 347,-275.5"/>
<text text-anchor="middle" x="393" y="-282.5" font-family="Helvetica,sans-Serif" font-size="10.00">luaL_checklstring</text>
</a>
</g>
</g>
<!-- Node1&#45;&gt;Node5 -->
<g id="edge4" class="edge"><title>Node1&#45;&gt;Node5</title>
<path fill="none" stroke="midnightblue" d="M59.1685,-267.507C119.101,-270.657 258.545,-277.986 336.586,-282.088"/>
<polygon fill="midnightblue" stroke="midnightblue" points="336.544,-285.59 346.714,-282.62 336.911,-278.6 336.544,-285.59"/>
</g>
<!-- Node464 -->
<g id="node32" class="node"><title>Node464</title>
<g id="a_node32"><a xlink:href="lauxlib_8c.html#a6c51d83d29244779392551388913e08a" target="_top" xlink:title=" ">
<polygon fill="white" stroke="black" points="843,-237.5 843,-256.5 902,-256.5 902,-237.5 843,-237.5"/>
<text text-anchor="middle" x="872.5" y="-244.5" font-family="Helvetica,sans-Serif" font-size="10.00">luaL_error</text>
</a>
</g>
</g>
<!-- Node1&#45;&gt;Node464 -->
<g id="edge66" class="edge"><title>Node1&#45;&gt;Node464</title>
<path fill="none" stroke="midnightblue" d="M59.0115,-262.155C102.718,-256.603 188.949,-247 262.5,-247 262.5,-247 262.5,-247 628,-247 700.119,-247 784.253,-247 832.361,-247"/>
<polygon fill="midnightblue" stroke="midnightblue" points="832.638,-250.5 842.638,-247 832.638,-243.5 832.638,-250.5"/>
</g>
<!-- Node487 -->
<g id="node41" class="node"><title>Node487</title>
<g id="a_node41"><a xlink:href="lauxlib_8c.html#a7c46517055e0e8cb25e61b959709083a" target="_top" xlink:title=" ">
<polygon fill="white" stroke="black" points="703,-199.5 703,-218.5 793,-218.5 793,-199.5 703,-199.5"/>
<text text-anchor="middle" x="748" y="-206.5" font-family="Helvetica,sans-Serif" font-size="10.00">luaL_checkstack</text>
</a>
</g>
</g>
<!-- Node1&#45;&gt;Node487 -->
<g id="edge59" class="edge"><title>Node1&#45;&gt;Node487</title>
<path fill="none" stroke="midnightblue" d="M45.5233,-256.498C58.2184,-248.923 77.1379,-238.675 95,-233 166.675,-210.229 187.295,-209 262.5,-209 262.5,-209 262.5,-209 514.5,-209 575.48,-209 645.458,-209 692.576,-209"/>
<polygon fill="midnightblue" stroke="midnightblue" points="692.861,-212.5 702.861,-209 692.861,-205.5 692.861,-212.5"/>
</g>
<!-- Node490 -->
<g id="node45" class="node"><title>Node490</title>
<g id="a_node45"><a xlink:href="lauxlib_8c.html#ab10ff110a5ba19b4385947de7834ee3c" target="_top" xlink:title=" ">
<polygon fill="white" stroke="black" points="96,-313.5 96,-332.5 179,-332.5 179,-313.5 96,-313.5"/>
<text text-anchor="middle" x="137.5" y="-320.5" font-family="Helvetica,sans-Serif" font-size="10.00">luaL_optinteger</text>
</a>
</g>
</g>
<!-- Node1&#45;&gt;Node490 -->
<g id="edge67" class="edge"><title>Node1&#45;&gt;Node490</title>
<path fill="none" stroke="midnightblue" d="M48.4815,-275.669C65.334,-284.731 90.7366,-298.391 109.927,-308.711"/>
<polygon fill="midnightblue" stroke="midnightblue" points="108.319,-311.82 118.784,-313.474 111.634,-305.655 108.319,-311.82"/>
</g>
<!-- Node495 -->
<g id="node49" class="node"><title>Node495</title>
<g id="a_node49"><a xlink:href="lutf8lib_8c.html#ad40cd6dc984252dfbce8facac91b25ea" target="_top" xlink:title=" ">
<polygon fill="white" stroke="black" points="106.5,-161.5 106.5,-180.5 168.5,-180.5 168.5,-161.5 106.5,-161.5"/>
<text text-anchor="middle" x="137.5" y="-168.5" font-family="Helvetica,sans-Serif" font-size="10.00">u_posrelat</text>
</a>
</g>
</g>
<!-- Node1&#45;&gt;Node495 -->
<g id="edge74" class="edge"><title>Node1&#45;&gt;Node495</title>
<path fill="none" stroke="midnightblue" d="M37.6392,-256.402C48.7618,-241.888 71.4102,-214.03 95,-195 99.1053,-191.688 103.721,-188.545 108.344,-185.691"/>
<polygon fill="midnightblue" stroke="midnightblue" points="110.227,-188.644 117.108,-180.587 106.705,-182.595 110.227,-188.644"/>
</g>
<!-- Node496 -->
<g id="node50" class="node"><title>Node496</title>
<g id="a_node50"><a xlink:href="lutf8lib_8c.html#a56dac1abc454dd8300df3ca9498303ae" target="_top" xlink:title=" ">
<polygon fill="white" stroke="black" points="103,-123.5 103,-142.5 172,-142.5 172,-123.5 103,-123.5"/>
<text text-anchor="middle" x="137.5" y="-130.5" font-family="Helvetica,sans-Serif" font-size="10.00">utf8_decode</text>
</a>
</g>
</g>
<!-- Node1&#45;&gt;Node496 -->
<g id="edge75" class="edge"><title>Node1&#45;&gt;Node496</title>
<path fill="none" stroke="midnightblue" d="M33.5992,-256.436C40.974,-235.035 61.4953,-182.755 95,-152 96.6601,-150.476 98.4634,-149.056 100.358,-147.737"/>
<polygon fill="midnightblue" stroke="midnightblue" points="102.258,-150.679 109.083,-142.575 98.6943,-144.654 102.258,-150.679"/>
</g>
<!-- Node4 -->
<g id="node4" class="node"><title>Node4</title>
<g id="a_node4"><a xlink:href="lapi_8c.html#a7c66797ff8396fc9258bb9fc08e959d8" target="_top" xlink:title=" ">
<polygon fill="white" stroke="black" points="839,-465.5 839,-484.5 906,-484.5 906,-465.5 839,-465.5"/>
<text text-anchor="middle" x="872.5" y="-472.5" font-family="Helvetica,sans-Serif" font-size="10.00">index2value</text>
</a>
</g>
</g>
<!-- Node3&#45;&gt;Node4 -->
<g id="edge3" class="edge"><title>Node3&#45;&gt;Node4</title>
<path fill="none" stroke="midnightblue" d="M289.062,-465.541C333.115,-481.767 428.782,-513 512.5,-513 512.5,-513 512.5,-513 628,-513 699.102,-513 780.5,-496.987 828.866,-485.751"/>
<polygon fill="midnightblue" stroke="midnightblue" points="829.744,-489.14 838.67,-483.433 828.133,-482.328 829.744,-489.14"/>
</g>
<!-- Node6 -->
<g id="node6" class="node"><title>Node6</title>
<g id="a_node6"><a xlink:href="lapi_8c.html#a3fc7dbcac3f2610f3d687ec15343bd3f" target="_top" xlink:title=" ">
<polygon fill="white" stroke="black" points="713.5,-275.5 713.5,-294.5 782.5,-294.5 782.5,-275.5 713.5,-275.5"/>
<text text-anchor="middle" x="748" y="-282.5" font-family="Helvetica,sans-Serif" font-size="10.00">lua_tolstring</text>
</a>
</g>
</g>
<!-- Node5&#45;&gt;Node6 -->
<g id="edge5" class="edge"><title>Node5&#45;&gt;Node6</title>
<path fill="none" stroke="midnightblue" d="M439.066,-285C507.168,-285 635.497,-285 702.977,-285"/>
<polygon fill="midnightblue" stroke="midnightblue" points="703.267,-288.5 713.267,-285 703.267,-281.5 703.267,-288.5"/>
</g>
<!-- Node450 -->
<g id="node23" class="node"><title>Node450</title>
<g id="a_node23"><a xlink:href="lauxlib_8c.html#ab8e946260debec8d4bbc714b76a1613b" target="_top" xlink:title=" ">
<polygon fill="white" stroke="black" points="486,-332.5 486,-351.5 541,-351.5 541,-332.5 486,-332.5"/>
<text text-anchor="middle" x="513.5" y="-339.5" font-family="Helvetica,sans-Serif" font-size="10.00">tag_error</text>
</a>
</g>
</g>
<!-- Node5&#45;&gt;Node450 -->
<g id="edge30" class="edge"><title>Node5&#45;&gt;Node450</title>
<path fill="none" stroke="midnightblue" d="M413.834,-294.541C432.889,-303.706 461.897,-317.659 483.535,-328.068"/>
<polygon fill="midnightblue" stroke="midnightblue" points="482.072,-331.248 492.601,-332.428 485.107,-324.939 482.072,-331.248"/>
</g>
<!-- Node6&#45;&gt;Node4 -->
<g id="edge6" class="edge"><title>Node6&#45;&gt;Node4</title>
<path fill="none" stroke="midnightblue" d="M780.409,-294.64C785.356,-297.131 790.113,-300.212 794,-304 838.448,-347.307 859.649,-420.782 867.597,-455.597"/>
<polygon fill="midnightblue" stroke="midnightblue" points="864.193,-456.419 869.724,-465.455 871.036,-454.942 864.193,-456.419"/>
</g>
<!-- Node7 -->
<g id="node7" class="node"><title>Node7</title>
<g id="a_node7"><a xlink:href="lobject_8c.html#a53824ade5220a50d44148175f7787199" target="_top" xlink:title=" ">
<polygon fill="white" stroke="black" points="1077,-313.5 1077,-332.5 1151,-332.5 1151,-313.5 1077,-313.5"/>
<text text-anchor="middle" x="1114" y="-320.5" font-family="Helvetica,sans-Serif" font-size="10.00">luaO_tostring</text>
</a>
</g>
</g>
<!-- Node6&#45;&gt;Node7 -->
<g id="edge7" class="edge"><title>Node6&#45;&gt;Node7</title>
<path fill="none" stroke="midnightblue" d="M782.814,-286.73C836.746,-289.733 945.492,-296.789 1037,-309 1046.67,-310.291 1056.98,-311.978 1066.79,-313.733"/>
<polygon fill="midnightblue" stroke="midnightblue" points="1066.31,-317.203 1076.78,-315.571 1067.58,-310.319 1066.31,-317.203"/>
</g>
<!-- Node8 -->
<g id="node8" class="node"><title>Node8</title>
<g id="a_node8"><a xlink:href="lstring_8c.html#ab41fb084ce3ea5e2779f6659ccc2484d" target="_top" xlink:title=" ">
<polygon fill="white" stroke="black" points="1202,-199.5 1202,-218.5 1274,-218.5 1274,-199.5 1202,-199.5"/>
<text text-anchor="middle" x="1238" y="-206.5" font-family="Helvetica,sans-Serif" font-size="10.00">luaS_newlstr</text>
</a>
</g>
</g>
<!-- Node7&#45;&gt;Node8 -->
<g id="edge8" class="edge"><title>Node7&#45;&gt;Node8</title>
<path fill="none" stroke="midnightblue" d="M1125.4,-313.28C1146.2,-293.846 1193.13,-249.989 1219.02,-225.801"/>
<polygon fill="midnightblue" stroke="midnightblue" points="1221.71,-228.08 1226.62,-218.695 1216.93,-222.965 1221.71,-228.08"/>
</g>
<!-- Node110 -->
<g id="node19" class="node"><title>Node110</title>
<g id="a_node19"><a xlink:href="lobject_8c.html#a8a7886b6335aca97db23dfe3e220c728" target="_top" xlink:title=" ">
<polygon fill="white" stroke="black" points="1844,-332.5 1844,-351.5 1908,-351.5 1908,-332.5 1844,-332.5"/>
<text text-anchor="middle" x="1876" y="-339.5" font-family="Helvetica,sans-Serif" font-size="10.00">tostringbuff</text>
</a>
</g>
</g>
<!-- Node7&#45;&gt;Node110 -->
<g id="edge29" class="edge"><title>Node7&#45;&gt;Node110</title>
<path fill="none" stroke="midnightblue" d="M1151,-331.718C1200.56,-342.937 1292.74,-361 1372.5,-361 1372.5,-361 1372.5,-361 1639.5,-361 1707.76,-361 1786.79,-352.971 1833.74,-347.352"/>
<polygon fill="midnightblue" stroke="midnightblue" points="1834.32,-350.807 1843.83,-346.123 1833.48,-343.858 1834.32,-350.807"/>
</g>
<!-- Node9 -->
<g id="node9" class="node"><title>Node9</title>
<g id="a_node9"><a xlink:href="lstring_8c.html#a9b2c32c59a280de24f20df1c7f0433a1" target="_top" xlink:title=" ">
<polygon fill="white" stroke="red" points="1341,-199.5 1341,-218.5 1406,-218.5 1406,-199.5 1341,-199.5"/>
<text text-anchor="middle" x="1373.5" y="-206.5" font-family="Helvetica,sans-Serif" font-size="10.00">internshrstr</text>
</a>
</g>
</g>
<!-- Node8&#45;&gt;Node9 -->
<g id="edge9" class="edge"><title>Node8&#45;&gt;Node9</title>
<path fill="none" stroke="midnightblue" d="M1274.08,-209C1291.46,-209 1312.58,-209 1330.8,-209"/>
<polygon fill="midnightblue" stroke="midnightblue" points="1330.85,-212.5 1340.85,-209 1330.85,-205.5 1330.85,-212.5"/>
</g>
<!-- Node449 -->
<g id="node10" class="node"><title>Node449</title>
<g id="a_node10"><a xlink:href="lmem_8c.html#a8fc7df43dd830ccbe7581fd53f65bdbe" target="_top" xlink:title=" ">
<polygon fill="white" stroke="black" points="1339,-161.5 1339,-180.5 1408,-180.5 1408,-161.5 1339,-161.5"/>
<text text-anchor="middle" x="1373.5" y="-168.5" font-family="Helvetica,sans-Serif" font-size="10.00">luaM_toobig</text>
</a>
</g>
</g>
<!-- Node8&#45;&gt;Node449 -->
<g id="edge10" class="edge"><title>Node8&#45;&gt;Node449</title>
<path fill="none" stroke="midnightblue" d="M1272.69,-199.411C1289.76,-194.551 1310.7,-188.591 1328.98,-183.387"/>
<polygon fill="midnightblue" stroke="midnightblue" points="1330.16,-186.69 1338.82,-180.586 1328.25,-179.957 1330.16,-186.69"/>
</g>
<!-- Node90 -->
<g id="node22" class="node"><title>Node90</title>
<g id="a_node22"><a xlink:href="lstring_8c.html#a8790c7d6e706f935dd6e9eefd068921c" target="_top" xlink:title=" ">
<polygon fill="white" stroke="red" points="1321,-104.5 1321,-123.5 1426,-123.5 1426,-104.5 1321,-104.5"/>
<text text-anchor="middle" x="1373.5" y="-111.5" font-family="Helvetica,sans-Serif" font-size="10.00">luaS_createlngstrobj</text>
</a>
</g>
</g>
<!-- Node8&#45;&gt;Node90 -->
<g id="edge28" class="edge"><title>Node8&#45;&gt;Node90</title>
<path fill="none" stroke="midnightblue" d="M1267.7,-199.336C1273.66,-196.736 1279.73,-193.621 1285,-190 1304.17,-176.824 1303.57,-167.411 1321,-152 1329.96,-144.079 1340.48,-136.103 1349.68,-129.518"/>
<polygon fill="midnightblue" stroke="midnightblue" points="1351.82,-132.29 1357.99,-123.677 1347.8,-126.563 1351.82,-132.29"/>
</g>
<!-- Node76 -->
<g id="node11" class="node"><title>Node76</title>
<g id="a_node11"><a xlink:href="ldebug_8c.html#a88d38ca5da2e7a1492fc9d5ad70c32c5" target="_top" xlink:title=" ">
<polygon fill="white" stroke="red" points="1471.5,-199.5 1471.5,-218.5 1546.5,-218.5 1546.5,-199.5 1471.5,-199.5"/>
<text text-anchor="middle" x="1509" y="-206.5" font-family="Helvetica,sans-Serif" font-size="10.00">luaG_runerror</text>
</a>
</g>
</g>
<!-- Node449&#45;&gt;Node76 -->
<g id="edge11" class="edge"><title>Node449&#45;&gt;Node76</title>
<path fill="none" stroke="midnightblue" d="M1408.19,-180.589C1425.26,-185.449 1446.2,-191.409 1464.48,-196.613"/>
<polygon fill="midnightblue" stroke="midnightblue" points="1463.75,-200.043 1474.32,-199.414 1465.66,-193.31 1463.75,-200.043"/>
</g>
<!-- Node113 -->
<g id="node12" class="node"><title>Node113</title>
<g id="a_node12"><a xlink:href="ldebug_8c.html#af7366920f8408bb33ed01b1d6c0e1238" target="_top" xlink:title=" ">
<polygon fill="white" stroke="black" points="1598.5,-66.5 1598.5,-85.5 1678.5,-85.5 1678.5,-66.5 1598.5,-66.5"/>
<text text-anchor="middle" x="1638.5" y="-73.5" font-family="Helvetica,sans-Serif" font-size="10.00">luaG_errormsg</text>
</a>
</g>
</g>
<!-- Node76&#45;&gt;Node113 -->
<g id="edge12" class="edge"><title>Node76&#45;&gt;Node113</title>
<path fill="none" stroke="midnightblue" d="M1519.17,-199.435C1540.48,-177.209 1593.58,-121.812 1620.82,-93.4033"/>
<polygon fill="midnightblue" stroke="midnightblue" points="1623.68,-95.4781 1628.07,-85.8372 1618.62,-90.6339 1623.68,-95.4781"/>
</g>
<!-- Node83 -->
<g id="node15" class="node"><title>Node83</title>
<g id="a_node15"><a xlink:href="lobject_8c.html#aa83fa444a36d79521e846a766fa083d5" target="_top" xlink:title=" ">
<polygon fill="white" stroke="black" points="1592,-237.5 1592,-256.5 1685,-256.5 1685,-237.5 1592,-237.5"/>
<text text-anchor="middle" x="1638.5" y="-244.5" font-family="Helvetica,sans-Serif" font-size="10.00">luaO_pushvfstring</text>
</a>
</g>
</g>
<!-- Node76&#45;&gt;Node83 -->
<g id="edge16" class="edge"><title>Node76&#45;&gt;Node83</title>
<path fill="none" stroke="midnightblue" d="M1546.54,-213.719C1567.37,-218.985 1592.98,-226.825 1611.71,-233.765"/>
<polygon fill="midnightblue" stroke="midnightblue" points="1610.48,-237.044 1621.07,-237.4 1613.02,-230.519 1610.48,-237.044"/>
</g>
<!-- Node54 -->
<g id="node13" class="node"><title>Node54</title>
<g id="a_node13"><a xlink:href="ldo_8c.html#a61c0a0185ef5ae1493dad10027f4db7e" target="_top" xlink:title=" ">
<polygon fill="white" stroke="red" points="1721,-66.5 1721,-85.5 1808,-85.5 1808,-66.5 1721,-66.5"/>
<text text-anchor="middle" x="1764.5" y="-73.5" font-family="Helvetica,sans-Serif" font-size="10.00">luaD_callnoyield</text>
</a>
</g>
</g>
<!-- Node113&#45;&gt;Node54 -->
<g id="edge13" class="edge"><title>Node113&#45;&gt;Node54</title>
<path fill="none" stroke="midnightblue" d="M1678.73,-76C1688.84,-76 1699.89,-76 1710.57,-76"/>
<polygon fill="midnightblue" stroke="midnightblue" points="1710.65,-79.5001 1720.65,-76 1710.65,-72.5001 1710.65,-79.5001"/>
</g>
<!-- Node114 -->
<g id="node14" class="node"><title>Node114</title>
<g id="a_node14"><a xlink:href="ldo_8c.html#a2b46d9db5b9ca3d5402a0c2ac640a6b0" target="_top" xlink:title=" ">
<polygon fill="white" stroke="red" points="1732,-0.5 1732,-19.5 1797,-19.5 1797,-0.5 1732,-0.5"/>
<text text-anchor="middle" x="1764.5" y="-7.5" font-family="Helvetica,sans-Serif" font-size="10.00">luaD_throw</text>
</a>
</g>
</g>
<!-- Node113&#45;&gt;Node114 -->
<g id="edge14" class="edge"><title>Node113&#45;&gt;Node114</title>
<path fill="none" stroke="midnightblue" d="M1657.53,-66.403C1678.29,-55.3563 1712.58,-37.101 1736.52,-24.3608"/>
<polygon fill="midnightblue" stroke="midnightblue" points="1738.26,-27.3967 1745.45,-19.6085 1734.98,-21.2175 1738.26,-27.3967"/>
</g>
<!-- Node114&#45;&gt;Node114 -->
<g id="edge15" class="edge"><title>Node114&#45;&gt;Node114</title>
<path fill="none" stroke="midnightblue" d="M1747.55,-19.7571C1739.3,-28.5653 1744.95,-38 1764.5,-38 1776.72,-38 1783.51,-34.3146 1784.87,-29.4"/>
<polygon fill="midnightblue" stroke="midnightblue" points="1788.09,-28.0149 1781.45,-19.7571 1781.49,-30.3518 1788.09,-28.0149"/>
</g>
<!-- Node83&#45;&gt;Node76 -->
<g id="edge26" class="edge"><title>Node83&#45;&gt;Node76</title>
<path fill="none" stroke="midnightblue" d="M1591.82,-239.888C1573.13,-234.841 1552.17,-228.287 1536.15,-222.368"/>
<polygon fill="midnightblue" stroke="midnightblue" points="1537,-218.942 1526.41,-218.592 1534.47,-225.469 1537,-218.942"/>
</g>
<!-- Node84 -->
<g id="node16" class="node"><title>Node84</title>
<g id="a_node16"><a xlink:href="lobject_8c.html#a1d02fb9304e4700ce1fd20e34ae68784" target="_top" xlink:title=" ">
<polygon fill="white" stroke="black" points="1729,-313.5 1729,-332.5 1800,-332.5 1800,-313.5 1729,-313.5"/>
<text text-anchor="middle" x="1764.5" y="-320.5" font-family="Helvetica,sans-Serif" font-size="10.00">addnum2buff</text>
</a>
</g>
</g>
<!-- Node83&#45;&gt;Node84 -->
<g id="edge17" class="edge"><title>Node83&#45;&gt;Node84</title>
<path fill="none" stroke="midnightblue" d="M1654.07,-256.634C1670.27,-267.259 1697.26,-284.738 1721,-299 1726.21,-302.131 1731.84,-305.392 1737.24,-308.465"/>
<polygon fill="midnightblue" stroke="midnightblue" points="1735.58,-311.544 1746.01,-313.401 1739.01,-305.444 1735.58,-311.544"/>
</g>
<!-- Node85 -->
<g id="node17" class="node"><title>Node85</title>
<g id="a_node17"><a xlink:href="lobject_8c.html#ac4ab924f2ea45ef73319f1159033eab1" target="_top" xlink:title=" ">
<polygon fill="white" stroke="black" points="1853.5,-275.5 1853.5,-294.5 1898.5,-294.5 1898.5,-275.5 1853.5,-275.5"/>
<text text-anchor="middle" x="1876" y="-282.5" font-family="Helvetica,sans-Serif" font-size="10.00">getbuff</text>
</a>
</g>
</g>
<!-- Node83&#45;&gt;Node85 -->
<g id="edge25" class="edge"><title>Node83&#45;&gt;Node85</title>
<path fill="none" stroke="midnightblue" d="M1676.66,-256.539C1690.51,-259.864 1706.41,-263.407 1721,-266 1762.99,-273.464 1811.95,-278.963 1843.2,-282.073"/>
<polygon fill="midnightblue" stroke="midnightblue" points="1843.18,-285.587 1853.47,-283.072 1843.85,-278.62 1843.18,-285.587"/>
</g>
<!-- Node86 -->
<g id="node18" class="node"><title>Node86</title>
<g id="a_node18"><a xlink:href="lobject_8c.html#a6ec2716e64cd75e3e6614a87ee92e4d2" target="_top" xlink:title=" ">
<polygon fill="white" stroke="red" points="1944,-237.5 1944,-256.5 1997,-256.5 1997,-237.5 1944,-237.5"/>
<text text-anchor="middle" x="1970.5" y="-244.5" font-family="Helvetica,sans-Serif" font-size="10.00">clearbuff</text>
</a>
</g>
</g>
<!-- Node83&#45;&gt;Node86 -->
<g id="edge24" class="edge"><title>Node83&#45;&gt;Node86</title>
<path fill="none" stroke="midnightblue" d="M1672.51,-237.493C1687.21,-233.729 1704.83,-229.859 1721,-228 1796.49,-219.317 1885.35,-231.488 1933.71,-239.988"/>
<polygon fill="midnightblue" stroke="midnightblue" points="1933.22,-243.456 1943.68,-241.79 1934.46,-236.567 1933.22,-243.456"/>
</g>
<!-- Node111 -->
<g id="node20" class="node"><title>Node111</title>
<g id="a_node20"><a xlink:href="lobject_8c.html#a874ab64f433ee35f2197a81e10452cb1" target="_top" xlink:title=" ">
<polygon fill="white" stroke="red" points="1732.5,-237.5 1732.5,-256.5 1796.5,-256.5 1796.5,-237.5 1732.5,-237.5"/>
<text text-anchor="middle" x="1764.5" y="-244.5" font-family="Helvetica,sans-Serif" font-size="10.00">addstr2buff</text>
</a>
</g>
</g>
<!-- Node83&#45;&gt;Node111 -->
<g id="edge21" class="edge"><title>Node83&#45;&gt;Node111</title>
<path fill="none" stroke="midnightblue" d="M1685.32,-247C1697.38,-247 1710.32,-247 1722.13,-247"/>
<polygon fill="midnightblue" stroke="midnightblue" points="1722.17,-250.5 1732.17,-247 1722.17,-243.5 1722.17,-250.5"/>
</g>
<!-- Node112 -->
<g id="node21" class="node"><title>Node112</title>
<g id="a_node21"><a xlink:href="lobject_8c.html#af3136de4693789b08f78aafda9604676" target="_top" xlink:title=" ">
<polygon fill="white" stroke="black" points="1727.5,-161.5 1727.5,-180.5 1801.5,-180.5 1801.5,-161.5 1727.5,-161.5"/>
<text text-anchor="middle" x="1764.5" y="-168.5" font-family="Helvetica,sans-Serif" font-size="10.00">luaO_utf8esc</text>
</a>
</g>
</g>
<!-- Node83&#45;&gt;Node112 -->
<g id="edge27" class="edge"><title>Node83&#45;&gt;Node112</title>
<path fill="none" stroke="midnightblue" d="M1654.07,-237.366C1670.27,-226.741 1697.26,-209.262 1721,-195 1726.21,-191.869 1731.84,-188.608 1737.24,-185.535"/>
<polygon fill="midnightblue" stroke="midnightblue" points="1739.01,-188.556 1746.01,-180.599 1735.58,-182.456 1739.01,-188.556"/>
</g>
<!-- Node84&#45;&gt;Node85 -->
<g id="edge18" class="edge"><title>Node84&#45;&gt;Node85</title>
<path fill="none" stroke="midnightblue" d="M1793.13,-313.411C1808.56,-308.058 1827.82,-301.371 1843.79,-295.83"/>
<polygon fill="midnightblue" stroke="midnightblue" points="1844.94,-299.135 1853.24,-292.55 1842.65,-292.522 1844.94,-299.135"/>
</g>
<!-- Node84&#45;&gt;Node110 -->
<g id="edge20" class="edge"><title>Node84&#45;&gt;Node110</title>
<path fill="none" stroke="midnightblue" d="M1800.15,-329.012C1810.89,-330.876 1822.84,-332.949 1833.97,-334.881"/>
<polygon fill="midnightblue" stroke="midnightblue" points="1833.46,-338.345 1843.91,-336.606 1834.66,-331.448 1833.46,-338.345"/>
</g>
<!-- Node85&#45;&gt;Node86 -->
<g id="edge19" class="edge"><title>Node85&#45;&gt;Node86</title>
<path fill="none" stroke="midnightblue" d="M1898.92,-275.995C1910.25,-271.342 1924.29,-265.573 1936.86,-260.408"/>
<polygon fill="midnightblue" stroke="midnightblue" points="1938.2,-263.643 1946.12,-256.605 1935.54,-257.168 1938.2,-263.643"/>
</g>
<!-- Node111&#45;&gt;Node85 -->
<g id="edge23" class="edge"><title>Node111&#45;&gt;Node85</title>
<path fill="none" stroke="midnightblue" d="M1793.13,-256.589C1808.56,-261.942 1827.82,-268.629 1843.79,-274.17"/>
<polygon fill="midnightblue" stroke="midnightblue" points="1842.65,-277.478 1853.24,-277.45 1844.94,-270.865 1842.65,-277.478"/>
</g>
<!-- Node111&#45;&gt;Node86 -->
<g id="edge22" class="edge"><title>Node111&#45;&gt;Node86</title>
<path fill="none" stroke="midnightblue" d="M1796.93,-247C1833.81,-247 1894.83,-247 1933.56,-247"/>
<polygon fill="midnightblue" stroke="midnightblue" points="1933.85,-250.5 1943.85,-247 1933.85,-243.5 1933.85,-250.5"/>
</g>
<!-- Node451 -->
<g id="node24" class="node"><title>Node451</title>
<g id="a_node24"><a xlink:href="lapi_8c.html#a7d64f87addab440bbda96bb088816e17" target="_top" xlink:title=" ">
<polygon fill="white" stroke="black" points="588.5,-313.5 588.5,-332.5 665.5,-332.5 665.5,-313.5 588.5,-313.5"/>
<text text-anchor="middle" x="627" y="-320.5" font-family="Helvetica,sans-Serif" font-size="10.00">lua_typename</text>
</a>
</g>
</g>
<!-- Node450&#45;&gt;Node451 -->
<g id="edge31" class="edge"><title>Node450&#45;&gt;Node451</title>
<path fill="none" stroke="midnightblue" d="M541.207,-337.449C552.289,-335.561 565.496,-333.31 578.149,-331.154"/>
<polygon fill="midnightblue" stroke="midnightblue" points="578.856,-334.584 588.126,-329.454 577.68,-327.684 578.856,-334.584"/>
</g>
<!-- Node452 -->
<g id="node25" class="node"><title>Node452</title>
<g id="a_node25"><a xlink:href="lauxlib_8c.html#ab8ddc4ac13516f3548a6c102dd6fa114" target="_top" xlink:title=" ">
<polygon fill="white" stroke="black" points="588,-351.5 588,-370.5 666,-370.5 666,-351.5 588,-351.5"/>
<text text-anchor="middle" x="627" y="-358.5" font-family="Helvetica,sans-Serif" font-size="10.00">luaL_typeerror</text>
</a>
</g>
</g>
<!-- Node450&#45;&gt;Node452 -->
<g id="edge32" class="edge"><title>Node450&#45;&gt;Node452</title>
<path fill="none" stroke="midnightblue" d="M541.207,-346.551C552.188,-348.422 565.254,-350.649 577.8,-352.787"/>
<polygon fill="midnightblue" stroke="midnightblue" points="577.255,-356.244 587.701,-354.474 578.431,-349.344 577.255,-356.244"/>
</g>
<!-- Node453 -->
<g id="node26" class="node"><title>Node453</title>
<g id="a_node26"><a xlink:href="lapi_8c.html#ab190c226d38b289e6ca57683a9d4e0f0" target="_top" xlink:title=" ">
<polygon fill="white" stroke="black" points="1073,-351.5 1073,-370.5 1155,-370.5 1155,-351.5 1073,-351.5"/>
<text text-anchor="middle" x="1114" y="-358.5" font-family="Helvetica,sans-Serif" font-size="10.00">lua_pushfstring</text>
</a>
</g>
</g>
<!-- Node452&#45;&gt;Node453 -->
<g id="edge33" class="edge"><title>Node452&#45;&gt;Node453</title>
<path fill="none" stroke="midnightblue" d="M666.053,-357.594C753.343,-350.046 965.92,-333.25 1037,-342 1048.69,-343.439 1061.17,-346.08 1072.57,-348.945"/>
<polygon fill="midnightblue" stroke="midnightblue" points="1071.7,-352.334 1082.26,-351.495 1073.48,-345.565 1071.7,-352.334"/>
</g>
<!-- Node454 -->
<g id="node27" class="node"><title>Node454</title>
<g id="a_node27"><a xlink:href="lapi_8c.html#a652b273947f0656686f998d8e90cd3ea" target="_top" xlink:title=" ">
<polygon fill="white" stroke="black" points="721.5,-427.5 721.5,-446.5 774.5,-446.5 774.5,-427.5 721.5,-427.5"/>
<text text-anchor="middle" x="748" y="-434.5" font-family="Helvetica,sans-Serif" font-size="10.00">lua_type</text>
</a>
</g>
</g>
<!-- Node452&#45;&gt;Node454 -->
<g id="edge35" class="edge"><title>Node452&#45;&gt;Node454</title>
<path fill="none" stroke="midnightblue" d="M638.891,-370.845C652.783,-383.048 677.905,-403.949 702,-418 705.191,-419.861 708.599,-421.639 712.058,-423.308"/>
<polygon fill="midnightblue" stroke="midnightblue" points="710.665,-426.519 721.219,-427.454 713.552,-420.142 710.665,-426.519"/>
</g>
<!-- Node455 -->
<g id="node28" class="node"><title>Node455</title>
<g id="a_node28"><a xlink:href="lauxlib_8c.html#ac607576dd107a3120cd51948989f1ed2" target="_top" xlink:title=" ">
<polygon fill="white" stroke="red" points="711.5,-389.5 711.5,-408.5 784.5,-408.5 784.5,-389.5 711.5,-389.5"/>
<text text-anchor="middle" x="748" y="-396.5" font-family="Helvetica,sans-Serif" font-size="10.00">luaL_argerror</text>
</a>
</g>
</g>
<!-- Node452&#45;&gt;Node455 -->
<g id="edge37" class="edge"><title>Node452&#45;&gt;Node455</title>
<path fill="none" stroke="midnightblue" d="M658.029,-370.589C672.968,-375.359 691.223,-381.189 707.301,-386.323"/>
<polygon fill="midnightblue" stroke="midnightblue" points="706.39,-389.706 716.981,-389.414 708.519,-383.038 706.39,-389.706"/>
</g>
<!-- Node483 -->
<g id="node40" class="node"><title>Node483</title>
<g id="a_node40"><a xlink:href="lauxlib_8c.html#add7cea31816ff3f61014031248e0daa6" target="_top" xlink:title=" ">
<polygon fill="white" stroke="red" points="702,-313.5 702,-332.5 794,-332.5 794,-313.5 702,-313.5"/>
<text text-anchor="middle" x="748" y="-320.5" font-family="Helvetica,sans-Serif" font-size="10.00">luaL_getmetafield</text>
</a>
</g>
</g>
<!-- Node452&#45;&gt;Node483 -->
<g id="edge58" class="edge"><title>Node452&#45;&gt;Node483</title>
<path fill="none" stroke="midnightblue" d="M658.029,-351.411C672.968,-346.641 691.223,-340.811 707.301,-335.677"/>
<polygon fill="midnightblue" stroke="midnightblue" points="708.519,-338.962 716.981,-332.586 706.39,-332.294 708.519,-338.962"/>
</g>
<!-- Node453&#45;&gt;Node83 -->
<g id="edge34" class="edge"><title>Node453&#45;&gt;Node83</title>
<path fill="none" stroke="midnightblue" d="M1155.01,-361.001C1234.12,-359.799 1415.12,-351.033 1556,-299 1578.98,-290.512 1602.25,-274.797 1618.01,-262.857"/>
<polygon fill="midnightblue" stroke="midnightblue" points="1620.2,-265.586 1625.94,-256.681 1615.9,-260.063 1620.2,-265.586"/>
</g>
<!-- Node454&#45;&gt;Node4 -->
<g id="edge36" class="edge"><title>Node454&#45;&gt;Node4</title>
<path fill="none" stroke="midnightblue" d="M774.68,-444.966C790.975,-450.021 812.41,-456.67 830.968,-462.427"/>
<polygon fill="midnightblue" stroke="midnightblue" points="830.061,-465.81 840.649,-465.43 832.135,-459.124 830.061,-465.81"/>
</g>
<!-- Node456 -->
<g id="node29" class="node"><title>Node456</title>
<g id="a_node29"><a xlink:href="ldebug_8c.html#acaafc35d8e385c4d167229486165df6d" target="_top" xlink:title=" ">
<polygon fill="white" stroke="red" points="1082.5,-427.5 1082.5,-446.5 1145.5,-446.5 1145.5,-427.5 1082.5,-427.5"/>
<text text-anchor="middle" x="1114" y="-434.5" font-family="Helvetica,sans-Serif" font-size="10.00">lua_getinfo</text>
</a>
</g>
</g>
<!-- Node455&#45;&gt;Node456 -->
<g id="edge38" class="edge"><title>Node455&#45;&gt;Node456</title>
<path fill="none" stroke="midnightblue" d="M784.786,-405.872C798.841,-408.39 815.138,-411.089 830,-413 915.916,-424.047 1017.19,-431.234 1072.28,-434.657"/>
<polygon fill="midnightblue" stroke="midnightblue" points="1072.14,-438.155 1082.34,-435.272 1072.57,-431.168 1072.14,-438.155"/>
</g>
<!-- Node463 -->
<g id="node31" class="node"><title>Node463</title>
<g id="a_node31"><a xlink:href="ldebug_8c.html#ac1fc03c27ee46caa4037df2d70f22110" target="_top" xlink:title=" ">
<polygon fill="white" stroke="black" points="1078,-389.5 1078,-408.5 1150,-408.5 1150,-389.5 1078,-389.5"/>
<text text-anchor="middle" x="1114" y="-396.5" font-family="Helvetica,sans-Serif" font-size="10.00">lua_getstack</text>
</a>
</g>
</g>
<!-- Node455&#45;&gt;Node463 -->
<g id="edge40" class="edge"><title>Node455&#45;&gt;Node463</title>
<path fill="none" stroke="midnightblue" d="M784.565,-399C851.061,-399 994.12,-399 1067.52,-399"/>
<polygon fill="midnightblue" stroke="midnightblue" points="1067.83,-402.5 1077.83,-399 1067.83,-395.5 1067.83,-402.5"/>
</g>
<!-- Node455&#45;&gt;Node464 -->
<g id="edge41" class="edge"><title>Node455&#45;&gt;Node464</title>
<path fill="none" stroke="midnightblue" d="M756.663,-389.492C776.772,-364.54 831.289,-296.894 857.309,-264.608"/>
<polygon fill="midnightblue" stroke="midnightblue" points="860.29,-266.487 863.84,-256.505 854.84,-262.095 860.29,-266.487"/>
</g>
<!-- Node457 -->
<g id="node30" class="node"><title>Node457</title>
<g id="a_node30"><a xlink:href="ldebug_8c.html#ad72fa774194e83872bac4e5bf6ec1160" target="_top" xlink:title=" ">
<polygon fill="white" stroke="red" points="1207.5,-427.5 1207.5,-446.5 1268.5,-446.5 1268.5,-427.5 1207.5,-427.5"/>
<text text-anchor="middle" x="1238" y="-434.5" font-family="Helvetica,sans-Serif" font-size="10.00">auxgetinfo</text>
</a>
</g>
</g>
<!-- Node456&#45;&gt;Node457 -->
<g id="edge39" class="edge"><title>Node456&#45;&gt;Node457</title>
<path fill="none" stroke="midnightblue" d="M1145.79,-437C1161.45,-437 1180.68,-437 1197.43,-437"/>
<polygon fill="midnightblue" stroke="midnightblue" points="1197.49,-440.5 1207.49,-437 1197.49,-433.5 1197.49,-440.5"/>
</g>
<!-- Node465 -->
<g id="node33" class="node"><title>Node465</title>
<g id="a_node33"><a xlink:href="lapi_8c.html#a1de3afee1daece63d455f23818c883d9" target="_top" xlink:title=" ">
<polygon fill="white" stroke="black" points="962,-199.5 962,-218.5 1026,-218.5 1026,-199.5 962,-199.5"/>
<text text-anchor="middle" x="994" y="-206.5" font-family="Helvetica,sans-Serif" font-size="10.00">lua_concat</text>
</a>
</g>
</g>
<!-- Node464&#45;&gt;Node465 -->
<g id="edge42" class="edge"><title>Node464&#45;&gt;Node465</title>
<path fill="none" stroke="midnightblue" d="M902.123,-237.898C917.477,-233.016 936.635,-226.924 953.397,-221.593"/>
<polygon fill="midnightblue" stroke="midnightblue" points="954.474,-224.924 962.943,-218.558 952.352,-218.253 954.474,-224.924"/>
</g>
<!-- Node466 -->
<g id="node37" class="node"><title>Node466</title>
<g id="a_node37"><a xlink:href="lapi_8c.html#a6ba7b91143fe8a03910420d800de8e97" target="_top" xlink:title=" ">
<polygon fill="white" stroke="black" points="1482,-66.5 1482,-85.5 1536,-85.5 1536,-66.5 1482,-66.5"/>
<text text-anchor="middle" x="1509" y="-73.5" font-family="Helvetica,sans-Serif" font-size="10.00">lua_error</text>
</a>
</g>
</g>
<!-- Node464&#45;&gt;Node466 -->
<g id="edge50" class="edge"><title>Node464&#45;&gt;Node466</title>
<path fill="none" stroke="midnightblue" d="M879.129,-237.317C902.438,-198.598 995.704,-57 1113,-57 1113,-57 1113,-57 1239,-57 1322.44,-57 1420.08,-66.2086 1471.7,-71.8042"/>
<polygon fill="midnightblue" stroke="midnightblue" points="1471.37,-75.2892 1481.7,-72.905 1472.14,-68.3312 1471.37,-75.2892"/>
</g>
<!-- Node467 -->
<g id="node38" class="node"><title>Node467</title>
<g id="a_node38"><a xlink:href="lapi_8c.html#a426c9cb1d582be3e43060c4772854e5a" target="_top" xlink:title=" ">
<polygon fill="white" stroke="black" points="951,-237.5 951,-256.5 1037,-256.5 1037,-237.5 951,-237.5"/>
<text text-anchor="middle" x="994" y="-244.5" font-family="Helvetica,sans-Serif" font-size="10.00">lua_pushvfstring</text>
</a>
</g>
</g>
<!-- Node464&#45;&gt;Node467 -->
<g id="edge52" class="edge"><title>Node464&#45;&gt;Node467</title>
<path fill="none" stroke="midnightblue" d="M902.123,-247C913.565,-247 927.119,-247 940.22,-247"/>
<polygon fill="midnightblue" stroke="midnightblue" points="940.581,-250.5 950.581,-247 940.581,-243.5 940.581,-250.5"/>
</g>
<!-- Node468 -->
<g id="node39" class="node"><title>Node468</title>
<g id="a_node39"><a xlink:href="lauxlib_8c.html#a0f4d3c30c07eae36aa25605df84279a0" target="_top" xlink:title=" ">
<polygon fill="white" stroke="black" points="961.5,-351.5 961.5,-370.5 1026.5,-370.5 1026.5,-351.5 961.5,-351.5"/>
<text text-anchor="middle" x="994" y="-358.5" font-family="Helvetica,sans-Serif" font-size="10.00">luaL_where</text>
</a>
</g>
</g>
<!-- Node464&#45;&gt;Node468 -->
<g id="edge54" class="edge"><title>Node464&#45;&gt;Node468</title>
<path fill="none" stroke="midnightblue" d="M883.689,-256.72C904.061,-276.154 950.034,-320.011 975.388,-344.199"/>
<polygon fill="midnightblue" stroke="midnightblue" points="973.186,-346.935 982.837,-351.305 978.018,-341.87 973.186,-346.935"/>
</g>
<!-- Node465&#45;&gt;Node8 -->
<g id="edge43" class="edge"><title>Node465&#45;&gt;Node8</title>
<path fill="none" stroke="midnightblue" d="M1026.14,-209C1068.12,-209 1143.17,-209 1191.48,-209"/>
<polygon fill="midnightblue" stroke="midnightblue" points="1191.66,-212.5 1201.66,-209 1191.66,-205.5 1191.66,-212.5"/>
</g>
<!-- Node88 -->
<g id="node34" class="node"><title>Node88</title>
<g id="a_node34"><a xlink:href="lvm_8c.html#a2f076040af405dcb50d661edd692eca7" target="_top" xlink:title=" ">
<polygon fill="white" stroke="black" points="1078.5,-161.5 1078.5,-180.5 1149.5,-180.5 1149.5,-161.5 1078.5,-161.5"/>
<text text-anchor="middle" x="1114" y="-168.5" font-family="Helvetica,sans-Serif" font-size="10.00">luaV_concat</text>
</a>
</g>
</g>
<!-- Node465&#45;&gt;Node88 -->
<g id="edge44" class="edge"><title>Node465&#45;&gt;Node88</title>
<path fill="none" stroke="midnightblue" d="M1024.78,-199.411C1039.59,-194.641 1057.69,-188.811 1073.63,-183.677"/>
<polygon fill="midnightblue" stroke="midnightblue" points="1074.79,-186.983 1083.23,-180.586 1072.64,-180.32 1074.79,-186.983"/>
</g>
<!-- Node88&#45;&gt;Node8 -->
<g id="edge48" class="edge"><title>Node88&#45;&gt;Node8</title>
<path fill="none" stroke="midnightblue" d="M1145.79,-180.589C1161.1,-185.359 1179.82,-191.189 1196.3,-196.323"/>
<polygon fill="midnightblue" stroke="midnightblue" points="1195.64,-199.782 1206.22,-199.414 1197.72,-193.099 1195.64,-199.782"/>
</g>
<!-- Node88&#45;&gt;Node76 -->
<g id="edge46" class="edge"><title>Node88&#45;&gt;Node76</title>
<path fill="none" stroke="midnightblue" d="M1123.67,-180.606C1136.7,-194.246 1162.84,-218.612 1191,-228 1285.39,-259.462 1404.22,-237.128 1466.13,-221.207"/>
<polygon fill="midnightblue" stroke="midnightblue" points="1467.16,-224.557 1475.93,-218.618 1465.37,-217.789 1467.16,-224.557"/>
</g>
<!-- Node88&#45;&gt;Node90 -->
<g id="edge47" class="edge"><title>Node88&#45;&gt;Node90</title>
<path fill="none" stroke="midnightblue" d="M1123.67,-161.394C1136.7,-147.754 1162.84,-123.388 1191,-114 1229.23,-101.258 1274.55,-101.245 1310.34,-104.425"/>
<polygon fill="midnightblue" stroke="midnightblue" points="1310.35,-107.943 1320.65,-105.451 1311.05,-100.977 1310.35,-107.943"/>
</g>
<!-- Node89 -->
<g id="node35" class="node"><title>Node89</title>
<g id="a_node35"><a xlink:href="lvm_8c.html#a7f03a9c23b77ec5cd280bb955ec430b8" target="_top" xlink:title=" ">
<polygon fill="white" stroke="black" points="1209,-161.5 1209,-180.5 1267,-180.5 1267,-161.5 1209,-161.5"/>
<text text-anchor="middle" x="1238" y="-168.5" font-family="Helvetica,sans-Serif" font-size="10.00">copy2buff</text>
</a>
</g>
</g>
<!-- Node88&#45;&gt;Node89 -->
<g id="edge45" class="edge"><title>Node88&#45;&gt;Node89</title>
<path fill="none" stroke="midnightblue" d="M1149.63,-171C1164.86,-171 1182.8,-171 1198.45,-171"/>
<polygon fill="midnightblue" stroke="midnightblue" points="1198.85,-174.5 1208.85,-171 1198.85,-167.5 1198.85,-174.5"/>
</g>
<!-- Node91 -->
<g id="node36" class="node"><title>Node91</title>
<g id="a_node36"><a xlink:href="ltm_8c.html#addc61bf94c111c5a5bd3fe0032cb9be0" target="_top" xlink:title=" ">
<polygon fill="white" stroke="red" points="1191,-123.5 1191,-142.5 1285,-142.5 1285,-123.5 1191,-123.5"/>
<text text-anchor="middle" x="1238" y="-130.5" font-family="Helvetica,sans-Serif" font-size="10.00">luaT_tryconcatTM</text>
</a>
</g>
</g>
<!-- Node88&#45;&gt;Node91 -->
<g id="edge49" class="edge"><title>Node88&#45;&gt;Node91</title>
<path fill="none" stroke="midnightblue" d="M1145.79,-161.411C1161.1,-156.641 1179.82,-150.811 1196.3,-145.677"/>
<polygon fill="midnightblue" stroke="midnightblue" points="1197.72,-148.901 1206.22,-142.586 1195.64,-142.218 1197.72,-148.901"/>
</g>
<!-- Node466&#45;&gt;Node113 -->
<g id="edge51" class="edge"><title>Node466&#45;&gt;Node113</title>
<path fill="none" stroke="midnightblue" d="M1536.11,-76C1551.09,-76 1570.39,-76 1588.13,-76"/>
<polygon fill="midnightblue" stroke="midnightblue" points="1588.35,-79.5001 1598.35,-76 1588.35,-72.5001 1588.35,-79.5001"/>
</g>
<!-- Node467&#45;&gt;Node83 -->
<g id="edge53" class="edge"><title>Node467&#45;&gt;Node83</title>
<path fill="none" stroke="midnightblue" d="M1032.44,-256.589C1079.75,-267.846 1163.85,-285 1237,-285 1237,-285 1237,-285 1374.5,-285 1449.05,-285 1534.27,-269.861 1586.99,-258.694"/>
<polygon fill="midnightblue" stroke="midnightblue" points="1587.72,-262.115 1596.76,-256.589 1586.25,-255.272 1587.72,-262.115"/>
</g>
<!-- Node468&#45;&gt;Node453 -->
<g id="edge57" class="edge"><title>Node468&#45;&gt;Node453</title>
<path fill="none" stroke="midnightblue" d="M1026.62,-361C1037.72,-361 1050.47,-361 1062.71,-361"/>
<polygon fill="midnightblue" stroke="midnightblue" points="1062.82,-364.5 1072.82,-361 1062.82,-357.5 1062.82,-364.5"/>
</g>
<!-- Node468&#45;&gt;Node456 -->
<g id="edge55" class="edge"><title>Node468&#45;&gt;Node456</title>
<path fill="none" stroke="midnightblue" d="M1006.68,-370.615C1021.53,-382.58 1048.22,-403.236 1073,-418 1075.84,-419.692 1078.85,-421.351 1081.9,-422.942"/>
<polygon fill="midnightblue" stroke="midnightblue" points="1080.51,-426.157 1091.02,-427.469 1083.62,-419.887 1080.51,-426.157"/>
</g>
<!-- Node468&#45;&gt;Node463 -->
<g id="edge56" class="edge"><title>Node468&#45;&gt;Node463</title>
<path fill="none" stroke="midnightblue" d="M1024.78,-370.589C1039.59,-375.359 1057.69,-381.189 1073.63,-386.323"/>
<polygon fill="midnightblue" stroke="midnightblue" points="1072.64,-389.68 1083.23,-389.414 1074.79,-383.017 1072.64,-389.68"/>
</g>
<!-- Node487&#45;&gt;Node464 -->
<g id="edge65" class="edge"><title>Node487&#45;&gt;Node464</title>
<path fill="none" stroke="midnightblue" d="M779.912,-218.589C796.028,-223.588 815.893,-229.75 832.998,-235.057"/>
<polygon fill="midnightblue" stroke="midnightblue" points="832.114,-238.447 842.702,-238.067 834.188,-231.761 832.114,-238.447"/>
</g>
<!-- Node488 -->
<g id="node42" class="node"><title>Node488</title>
<g id="a_node42"><a xlink:href="lapi_8c.html#a1d762b92d5d82d6fa9f54ccf5c89d6a2" target="_top" xlink:title=" ">
<polygon fill="white" stroke="black" points="830,-104.5 830,-123.5 915,-123.5 915,-104.5 830,-104.5"/>
<text text-anchor="middle" x="872.5" y="-111.5" font-family="Helvetica,sans-Serif" font-size="10.00">lua_checkstack</text>
</a>
</g>
</g>
<!-- Node487&#45;&gt;Node488 -->
<g id="edge60" class="edge"><title>Node487&#45;&gt;Node488</title>
<path fill="none" stroke="midnightblue" d="M761.648,-199.191C782.848,-182.751 825.727,-149.497 851.191,-129.749"/>
<polygon fill="midnightblue" stroke="midnightblue" points="853.346,-132.508 859.103,-123.614 849.056,-126.977 853.346,-132.508"/>
</g>
<!-- Node489 -->
<g id="node43" class="node"><title>Node489</title>
<g id="a_node43"><a xlink:href="ldo_8c.html#a728937587ac9d9e316bd410991f11221" target="_top" xlink:title=" ">
<polygon fill="white" stroke="black" points="1330.5,-9.5 1330.5,-28.5 1416.5,-28.5 1416.5,-9.5 1330.5,-9.5"/>
<text text-anchor="middle" x="1373.5" y="-16.5" font-family="Helvetica,sans-Serif" font-size="10.00">luaD_growstack</text>
</a>
</g>
</g>
<!-- Node488&#45;&gt;Node489 -->
<g id="edge61" class="edge"><title>Node488&#45;&gt;Node489</title>
<path fill="none" stroke="midnightblue" d="M880.309,-104.456C892.412,-88.3755 919.393,-56.336 951,-43 1075.02,9.32636 1238.01,-1.0708 1320.24,-11.1279"/>
<polygon fill="midnightblue" stroke="midnightblue" points="1319.98,-14.6226 1330.34,-12.4116 1320.86,-7.67843 1319.98,-14.6226"/>
</g>
<!-- Node489&#45;&gt;Node76 -->
<g id="edge64" class="edge"><title>Node489&#45;&gt;Node76</title>
<path fill="none" stroke="midnightblue" d="M1381.3,-28.6833C1402.46,-58.7873 1467.31,-151.085 1495.12,-190.665"/>
<polygon fill="midnightblue" stroke="midnightblue" points="1492.44,-192.938 1501.05,-199.108 1498.16,-188.914 1492.44,-192.938"/>
</g>
<!-- Node489&#45;&gt;Node114 -->
<g id="edge63" class="edge"><title>Node489&#45;&gt;Node114</title>
<path fill="none" stroke="midnightblue" d="M1416.87,-18.0197C1491.76,-16.2871 1646.63,-12.7039 1721.36,-10.975"/>
<polygon fill="midnightblue" stroke="midnightblue" points="1721.86,-14.4643 1731.78,-10.7339 1721.7,-7.46618 1721.86,-14.4643"/>
</g>
<!-- Node37 -->
<g id="node44" class="node"><title>Node37</title>
<g id="a_node44"><a xlink:href="ldo_8c.html#a75b8b0016e9182d4fd9f71c1a7238e8a" target="_top" xlink:title=" ">
<polygon fill="white" stroke="red" points="1462,-28.5 1462,-47.5 1556,-47.5 1556,-28.5 1462,-28.5"/>
<text text-anchor="middle" x="1509" y="-35.5" font-family="Helvetica,sans-Serif" font-size="10.00">luaD_reallocstack</text>
</a>
</g>
</g>
<!-- Node489&#45;&gt;Node37 -->
<g id="edge62" class="edge"><title>Node489&#45;&gt;Node37</title>
<path fill="none" stroke="midnightblue" d="M1416.74,-25.0117C1427.85,-26.5926 1440.01,-28.3231 1451.72,-29.9907"/>
<polygon fill="midnightblue" stroke="midnightblue" points="1451.48,-33.4906 1461.87,-31.4347 1452.46,-26.5605 1451.48,-33.4906"/>
</g>
<!-- Node491 -->
<g id="node46" class="node"><title>Node491</title>
<g id="a_node46"><a xlink:href="lauxlib_8c.html#aa15bea412c49bfdee1f3dbff096ce7d2" target="_top" xlink:title=" ">
<polygon fill="white" stroke="black" points="216,-351.5 216,-370.5 311,-370.5 311,-351.5 216,-351.5"/>
<text text-anchor="middle" x="263.5" y="-358.5" font-family="Helvetica,sans-Serif" font-size="10.00">luaL_checkinteger</text>
</a>
</g>
</g>
<!-- Node490&#45;&gt;Node491 -->
<g id="edge68" class="edge"><title>Node490&#45;&gt;Node491</title>
<path fill="none" stroke="midnightblue" d="M169.79,-332.589C185.504,-337.404 204.738,-343.299 221.606,-348.468"/>
<polygon fill="midnightblue" stroke="midnightblue" points="220.633,-351.83 231.22,-351.414 222.684,-345.138 220.633,-351.83"/>
</g>
<!-- Node492 -->
<g id="node47" class="node"><title>Node492</title>
<g id="a_node47"><a xlink:href="lauxlib_8c.html#ac900510f548ea0ea6d53358d2aedd100" target="_top" xlink:title=" ">
<polygon fill="white" stroke="red" points="369.5,-351.5 369.5,-370.5 416.5,-370.5 416.5,-351.5 369.5,-351.5"/>
<text text-anchor="middle" x="393" y="-358.5" font-family="Helvetica,sans-Serif" font-size="10.00">interror</text>
</a>
</g>
</g>
<!-- Node491&#45;&gt;Node492 -->
<g id="edge69" class="edge"><title>Node491&#45;&gt;Node492</title>
<path fill="none" stroke="midnightblue" d="M311.252,-361C327.151,-361 344.572,-361 359.149,-361"/>
<polygon fill="midnightblue" stroke="midnightblue" points="359.199,-364.5 369.199,-361 359.199,-357.5 359.199,-364.5"/>
</g>
<!-- Node494 -->
<g id="node48" class="node"><title>Node494</title>
<g id="a_node48"><a xlink:href="lapi_8c.html#af81c9a68425546e1f8c6354728c95170" target="_top" xlink:title=" ">
<polygon fill="white" stroke="black" points="475,-446.5 475,-465.5 552,-465.5 552,-446.5 475,-446.5"/>
<text text-anchor="middle" x="513.5" y="-453.5" font-family="Helvetica,sans-Serif" font-size="10.00">lua_tointegerx</text>
</a>
</g>
</g>
<!-- Node491&#45;&gt;Node494 -->
<g id="edge72" class="edge"><title>Node491&#45;&gt;Node494</title>
<path fill="none" stroke="midnightblue" d="M289.644,-370.632C334.322,-387.746 427.585,-423.472 478.143,-442.839"/>
<polygon fill="midnightblue" stroke="midnightblue" points="477.067,-446.175 487.658,-446.484 479.572,-439.638 477.067,-446.175"/>
</g>
<!-- Node492&#45;&gt;Node450 -->
<g id="edge71" class="edge"><title>Node492&#45;&gt;Node450</title>
<path fill="none" stroke="midnightblue" d="M416.568,-357.382C433.303,-354.698 456.474,-350.983 475.852,-347.876"/>
<polygon fill="midnightblue" stroke="midnightblue" points="476.553,-351.308 485.873,-346.269 475.445,-344.397 476.553,-351.308"/>
</g>
<!-- Node492&#45;&gt;Node455 -->
<g id="edge70" class="edge"><title>Node492&#45;&gt;Node455</title>
<path fill="none" stroke="midnightblue" d="M416.619,-363.435C473.735,-369.583 624.665,-385.831 701.163,-394.066"/>
<polygon fill="midnightblue" stroke="midnightblue" points="701.129,-397.582 711.446,-395.173 701.878,-390.622 701.129,-397.582"/>
</g>
<!-- Node494&#45;&gt;Node4 -->
<g id="edge73" class="edge"><title>Node494&#45;&gt;Node4</title>
<path fill="none" stroke="midnightblue" d="M552.031,-457.997C618.865,-461.554 758.09,-468.964 828.601,-472.717"/>
<polygon fill="midnightblue" stroke="midnightblue" points="828.726,-476.228 838.898,-473.265 829.098,-469.238 828.726,-476.228"/>
</g>
</g>
</svg>
