<?xml version="1.0" encoding="UTF-8" standalone="no"?>
<!DOCTYPE svg PUBLIC "-//W3C//DTD SVG 1.1//EN"
 "http://www.w3.org/Graphics/SVG/1.1/DTD/svg11.dtd">
<!-- Generated by graphviz version 2.38.0 (20140413.2041)
 -->
<!-- Title: luaV_objlen Pages: 1 -->
<svg width="1087pt" height="934pt"
 viewBox="0.00 0.00 1087.00 934.21" xmlns="http://www.w3.org/2000/svg" xmlns:xlink="http://www.w3.org/1999/xlink">
<g id="graph0" class="graph" transform="scale(1 1) rotate(0) translate(4 930.209)">
<title>luaV_objlen</title>
<polygon fill="white" stroke="none" points="-4,4 -4,-930.209 1083,-930.209 1083,4 -4,4"/>
<!-- Node1 -->
<g id="node1" class="node"><title>Node1</title>
<g id="a_node1"><a xlink:title=" ">
<polygon fill="#bfbfbf" stroke="black" points="0,-285.5 0,-304.5 67,-304.5 67,-285.5 0,-285.5"/>
<text text-anchor="middle" x="33.5" y="-292.5" font-family="Helvetica,sans-Serif" font-size="10.00">luaV_objlen</text>
</a>
</g>
</g>
<!-- Node2 -->
<g id="node2" class="node"><title>Node2</title>
<g id="a_node2"><a xlink:href="ldebug_8c.html#a60bf9ce85441bd5065f2b73640163711" target="_top" xlink:title=" ">
<polygon fill="white" stroke="black" points="107,-479.5 107,-498.5 187,-498.5 187,-479.5 107,-479.5"/>
<text text-anchor="middle" x="147" y="-486.5" font-family="Helvetica,sans-Serif" font-size="10.00">luaG_typeerror</text>
</a>
</g>
</g>
<!-- Node1&#45;&gt;Node2 -->
<g id="edge1" class="edge"><title>Node1&#45;&gt;Node2</title>
<path fill="none" stroke="midnightblue" d="M40.0293,-304.62C57.5664,-335.133 112.15,-430.105 135.371,-470.507"/>
<polygon fill="midnightblue" stroke="midnightblue" points="132.42,-472.395 140.437,-479.321 138.489,-468.907 132.42,-472.395"/>
</g>
<!-- Node439 -->
<g id="node44" class="node"><title>Node439</title>
<g id="a_node44"><a xlink:href="ltable_8c.html#a94d8f30941967078b44e2e21c4dd9a75" target="_top" xlink:title=" ">
<polygon fill="white" stroke="black" points="490.5,-95.5 490.5,-114.5 550.5,-114.5 550.5,-95.5 490.5,-95.5"/>
<text text-anchor="middle" x="520.5" y="-102.5" font-family="Helvetica,sans-Serif" font-size="10.00">luaH_getn</text>
</a>
</g>
</g>
<!-- Node1&#45;&gt;Node439 -->
<g id="edge65" class="edge"><title>Node1&#45;&gt;Node439</title>
<path fill="none" stroke="midnightblue" d="M41.296,-285.161C52.4152,-269.805 75.982,-240.225 103,-224 228.15,-148.844 402.985,-119.243 480.195,-109.324"/>
<polygon fill="midnightblue" stroke="midnightblue" points="480.935,-112.759 490.427,-108.052 480.071,-105.812 480.935,-112.759"/>
</g>
<!-- Node363 -->
<g id="node49" class="node"><title>Node363</title>
<g id="a_node49"><a xlink:href="ltm_8c.html#aad98f3a425ba53e65e7a8f8037320402" target="_top" xlink:title=" ">
<polygon fill="white" stroke="black" points="358,-285.5 358,-304.5 440,-304.5 440,-285.5 358,-285.5"/>
<text text-anchor="middle" x="399" y="-292.5" font-family="Helvetica,sans-Serif" font-size="10.00">luaT_callTMres</text>
</a>
</g>
</g>
<!-- Node1&#45;&gt;Node363 -->
<g id="edge73" class="edge"><title>Node1&#45;&gt;Node363</title>
<path fill="none" stroke="midnightblue" d="M67.0781,-295C130.739,-295 272.026,-295 347.755,-295"/>
<polygon fill="midnightblue" stroke="midnightblue" points="347.991,-298.5 357.991,-295 347.991,-291.5 347.991,-298.5"/>
</g>
<!-- Node77 -->
<g id="node50" class="node"><title>Node77</title>
<g id="a_node50"><a xlink:href="ltm_8c.html#a0a3a3df9d6e7f17d806f74d411e59b2d" target="_top" xlink:title=" ">
<polygon fill="white" stroke="black" points="103,-332.5 103,-351.5 191,-351.5 191,-332.5 103,-332.5"/>
<text text-anchor="middle" x="147" y="-339.5" font-family="Helvetica,sans-Serif" font-size="10.00">luaT_gettmbyobj</text>
</a>
</g>
</g>
<!-- Node1&#45;&gt;Node77 -->
<g id="edge76" class="edge"><title>Node1&#45;&gt;Node77</title>
<path fill="none" stroke="midnightblue" d="M57.0637,-304.511C73.3535,-311.378 95.5867,-320.75 113.748,-328.405"/>
<polygon fill="midnightblue" stroke="midnightblue" points="112.513,-331.683 123.087,-332.342 115.232,-325.232 112.513,-331.683"/>
</g>
<!-- Node3 -->
<g id="node3" class="node"><title>Node3</title>
<g id="a_node3"><a xlink:href="ldebug_8c.html#a88d38ca5da2e7a1492fc9d5ad70c32c5" target="_top" xlink:title=" ">
<polygon fill="white" stroke="black" points="237,-541.5 237,-560.5 312,-560.5 312,-541.5 237,-541.5"/>
<text text-anchor="middle" x="274.5" y="-548.5" font-family="Helvetica,sans-Serif" font-size="10.00">luaG_runerror</text>
</a>
</g>
</g>
<!-- Node2&#45;&gt;Node3 -->
<g id="edge2" class="edge"><title>Node2&#45;&gt;Node3</title>
<path fill="none" stroke="midnightblue" d="M167.334,-498.552C188.002,-508.762 220.994,-525.061 244.716,-536.78"/>
<polygon fill="midnightblue" stroke="midnightblue" points="243.421,-540.044 253.937,-541.335 246.522,-533.768 243.421,-540.044"/>
</g>
<!-- Node332 -->
<g id="node30" class="node"><title>Node332</title>
<g id="a_node30"><a xlink:href="ltm_8c.html#a6774390baf68edcb78194d0e0f8546ab" target="_top" xlink:title=" ">
<polygon fill="white" stroke="black" points="227,-418.5 227,-437.5 322,-437.5 322,-418.5 227,-418.5"/>
<text text-anchor="middle" x="274.5" y="-425.5" font-family="Helvetica,sans-Serif" font-size="10.00">luaT_objtypename</text>
</a>
</g>
</g>
<!-- Node2&#45;&gt;Node332 -->
<g id="edge42" class="edge"><title>Node2&#45;&gt;Node332</title>
<path fill="none" stroke="midnightblue" d="M167.609,-479.469C188.21,-469.456 220.835,-453.598 244.431,-442.129"/>
<polygon fill="midnightblue" stroke="midnightblue" points="246.15,-445.185 253.614,-437.666 243.09,-438.889 246.15,-445.185"/>
</g>
<!-- Node383 -->
<g id="node33" class="node"><title>Node383</title>
<g id="a_node33"><a xlink:href="ldebug_8c.html#a86692faa1669d631d38c24993d511dd5" target="_top" xlink:title=" ">
<polygon fill="white" stroke="black" points="377,-721.5 377,-740.5 421,-740.5 421,-721.5 377,-721.5"/>
<text text-anchor="middle" x="399" y="-728.5" font-family="Helvetica,sans-Serif" font-size="10.00">varinfo</text>
</a>
</g>
</g>
<!-- Node2&#45;&gt;Node383 -->
<g id="edge46" class="edge"><title>Node2&#45;&gt;Node383</title>
<path fill="none" stroke="midnightblue" d="M157.114,-498.606C171.686,-513.906 201.218,-544.668 227,-570 281.734,-623.778 348.4,-685.491 379.88,-714.413"/>
<polygon fill="midnightblue" stroke="midnightblue" points="377.709,-717.17 387.443,-721.352 382.441,-712.012 377.709,-717.17"/>
</g>
<!-- Node4 -->
<g id="node4" class="node"><title>Node4</title>
<g id="a_node4"><a xlink:href="ldebug_8c.html#ad6bc24d619df8e849e2ae8b00455d86f" target="_top" xlink:title=" ">
<polygon fill="white" stroke="black" points="361.5,-588.5 361.5,-607.5 436.5,-607.5 436.5,-588.5 361.5,-588.5"/>
<text text-anchor="middle" x="399" y="-595.5" font-family="Helvetica,sans-Serif" font-size="10.00">getcurrentline</text>
</a>
</g>
</g>
<!-- Node3&#45;&gt;Node4 -->
<g id="edge3" class="edge"><title>Node3&#45;&gt;Node4</title>
<path fill="none" stroke="midnightblue" d="M300.29,-560.511C318.434,-567.473 343.29,-577.009 363.391,-584.721"/>
<polygon fill="midnightblue" stroke="midnightblue" points="362.237,-588.027 372.827,-588.342 364.744,-581.492 362.237,-588.027"/>
</g>
<!-- Node8 -->
<g id="node8" class="node"><title>Node8</title>
<g id="a_node8"><a xlink:href="ldebug_8c.html#a7e1dc7518150bf19bd9aa5dda166a2eb" target="_top" xlink:title=" ">
<polygon fill="white" stroke="black" points="362.5,-626.5 362.5,-645.5 435.5,-645.5 435.5,-626.5 362.5,-626.5"/>
<text text-anchor="middle" x="399" y="-633.5" font-family="Helvetica,sans-Serif" font-size="10.00">luaG_addinfo</text>
</a>
</g>
</g>
<!-- Node3&#45;&gt;Node8 -->
<g id="edge7" class="edge"><title>Node3&#45;&gt;Node8</title>
<path fill="none" stroke="midnightblue" d="M285.847,-560.594C300.922,-574.256 330.167,-599.585 358,-617 360.652,-618.659 363.471,-620.271 366.338,-621.808"/>
<polygon fill="midnightblue" stroke="midnightblue" points="365.003,-625.055 375.508,-626.433 368.155,-618.805 365.003,-625.055"/>
</g>
<!-- Node11 -->
<g id="node11" class="node"><title>Node11</title>
<g id="a_node11"><a xlink:href="lobject_8c.html#aa83fa444a36d79521e846a766fa083d5" target="_top" xlink:title=" ">
<polygon fill="white" stroke="black" points="603.5,-559.5 603.5,-578.5 696.5,-578.5 696.5,-559.5 603.5,-559.5"/>
<text text-anchor="middle" x="650" y="-566.5" font-family="Helvetica,sans-Serif" font-size="10.00">luaO_pushvfstring</text>
</a>
</g>
</g>
<!-- Node3&#45;&gt;Node11 -->
<g id="edge41" class="edge"><title>Node3&#45;&gt;Node11</title>
<path fill="none" stroke="midnightblue" d="M312.335,-548.548C378.032,-548.623 515.774,-555.011 593.164,-561.329"/>
<polygon fill="midnightblue" stroke="midnightblue" points="592.952,-564.824 603.211,-562.179 593.542,-557.849 592.952,-564.824"/>
</g>
<!-- Node438 -->
<g id="node18" class="node"><title>Node438</title>
<g id="a_node18"><a xlink:href="ldebug_8c.html#af7366920f8408bb33ed01b1d6c0e1238" target="_top" xlink:title=" ">
<polygon fill="white" stroke="black" points="359,-456.5 359,-475.5 439,-475.5 439,-456.5 359,-456.5"/>
<text text-anchor="middle" x="399" y="-463.5" font-family="Helvetica,sans-Serif" font-size="10.00">luaG_errormsg</text>
</a>
</g>
</g>
<!-- Node3&#45;&gt;Node438 -->
<g id="edge22" class="edge"><title>Node3&#45;&gt;Node438</title>
<path fill="none" stroke="midnightblue" d="M287.81,-541.316C303.704,-528.951 332.369,-507.108 358,-490 362.515,-486.986 367.408,-483.905 372.172,-480.999"/>
<polygon fill="midnightblue" stroke="midnightblue" points="374.258,-483.829 381.039,-475.689 370.662,-477.824 374.258,-483.829"/>
</g>
<!-- Node5 -->
<g id="node5" class="node"><title>Node5</title>
<g id="a_node5"><a xlink:href="ldebug_8c.html#a7db2a3f5cbcf0ac3ef6d4cfa15ab4dbc" target="_top" xlink:title=" ">
<polygon fill="white" stroke="black" points="492,-664.5 492,-683.5 549,-683.5 549,-664.5 492,-664.5"/>
<text text-anchor="middle" x="520.5" y="-671.5" font-family="Helvetica,sans-Serif" font-size="10.00">currentpc</text>
</a>
</g>
</g>
<!-- Node4&#45;&gt;Node5 -->
<g id="edge4" class="edge"><title>Node4&#45;&gt;Node5</title>
<path fill="none" stroke="midnightblue" d="M424.084,-607.674C429.538,-610.337 435.147,-613.477 440,-617 458.827,-630.667 456.96,-641.632 476,-655 478.403,-656.687 480.979,-658.272 483.635,-659.752"/>
<polygon fill="midnightblue" stroke="midnightblue" points="482.321,-663.008 492.828,-664.367 485.461,-656.752 482.321,-663.008"/>
</g>
<!-- Node6 -->
<g id="node6" class="node"><title>Node6</title>
<g id="a_node6"><a xlink:href="ldebug_8c.html#ae7a6d2f88b11cc05758e44acd433ee2f" target="_top" xlink:title=" ">
<polygon fill="white" stroke="black" points="476,-588.5 476,-607.5 565,-607.5 565,-588.5 476,-588.5"/>
<text text-anchor="middle" x="520.5" y="-595.5" font-family="Helvetica,sans-Serif" font-size="10.00">luaG_getfuncline</text>
</a>
</g>
</g>
<!-- Node4&#45;&gt;Node6 -->
<g id="edge5" class="edge"><title>Node4&#45;&gt;Node6</title>
<path fill="none" stroke="midnightblue" d="M436.503,-598C445.673,-598 455.708,-598 465.532,-598"/>
<polygon fill="midnightblue" stroke="midnightblue" points="465.649,-601.5 475.649,-598 465.649,-594.5 465.649,-601.5"/>
</g>
<!-- Node7 -->
<g id="node7" class="node"><title>Node7</title>
<g id="a_node7"><a xlink:href="ldebug_8c.html#a355ee1f29ee39ff665aa01ef4493f453" target="_top" xlink:title=" ">
<polygon fill="white" stroke="black" points="617,-597.5 617,-616.5 683,-616.5 683,-597.5 617,-597.5"/>
<text text-anchor="middle" x="650" y="-604.5" font-family="Helvetica,sans-Serif" font-size="10.00">getbaseline</text>
</a>
</g>
</g>
<!-- Node6&#45;&gt;Node7 -->
<g id="edge6" class="edge"><title>Node6&#45;&gt;Node7</title>
<path fill="none" stroke="midnightblue" d="M565.022,-601.072C578.456,-602.02 593.226,-603.063 606.585,-604.006"/>
<polygon fill="midnightblue" stroke="midnightblue" points="606.72,-607.524 616.942,-604.737 607.213,-600.542 606.72,-607.524"/>
</g>
<!-- Node9 -->
<g id="node9" class="node"><title>Node9</title>
<g id="a_node9"><a xlink:href="lobject_8c.html#ac331b4119bbeb45a8a7e5a1afe553b2e" target="_top" xlink:title=" ">
<polygon fill="white" stroke="black" points="482.5,-626.5 482.5,-645.5 558.5,-645.5 558.5,-626.5 482.5,-626.5"/>
<text text-anchor="middle" x="520.5" y="-633.5" font-family="Helvetica,sans-Serif" font-size="10.00">luaO_chunkid</text>
</a>
</g>
</g>
<!-- Node8&#45;&gt;Node9 -->
<g id="edge8" class="edge"><title>Node8&#45;&gt;Node9</title>
<path fill="none" stroke="midnightblue" d="M435.53,-636C447.033,-636 459.977,-636 472.194,-636"/>
<polygon fill="midnightblue" stroke="midnightblue" points="472.239,-639.5 482.239,-636 472.238,-632.5 472.239,-639.5"/>
</g>
<!-- Node10 -->
<g id="node10" class="node"><title>Node10</title>
<g id="a_node10"><a xlink:href="lobject_8c.html#a8e224db7123c74d695076a96d1bfda61" target="_top" xlink:title=" ">
<polygon fill="white" stroke="black" points="476,-702.5 476,-721.5 565,-721.5 565,-702.5 476,-702.5"/>
<text text-anchor="middle" x="520.5" y="-709.5" font-family="Helvetica,sans-Serif" font-size="10.00">luaO_pushfstring</text>
</a>
</g>
</g>
<!-- Node8&#45;&gt;Node10 -->
<g id="edge9" class="edge"><title>Node8&#45;&gt;Node10</title>
<path fill="none" stroke="midnightblue" d="M411.261,-645.77C425.608,-657.896 451.49,-678.716 476,-693 479.011,-694.754 482.213,-696.448 485.462,-698.052"/>
<polygon fill="midnightblue" stroke="midnightblue" points="484.079,-701.268 494.622,-702.315 487.033,-694.922 484.079,-701.268"/>
</g>
<!-- Node10&#45;&gt;Node11 -->
<g id="edge10" class="edge"><title>Node10&#45;&gt;Node11</title>
<path fill="none" stroke="midnightblue" d="M552.616,-702.276C557.2,-699.809 561.537,-696.757 565,-693 598.434,-656.724 566.938,-623.687 601,-588 602.392,-586.541 603.911,-585.192 605.522,-583.945"/>
<polygon fill="midnightblue" stroke="midnightblue" points="607.579,-586.786 614.203,-578.517 603.869,-580.851 607.579,-586.786"/>
</g>
<!-- Node11&#45;&gt;Node3 -->
<g id="edge20" class="edge"><title>Node11&#45;&gt;Node3</title>
<path fill="none" stroke="midnightblue" d="M603.211,-571.407C531.8,-570.798 394.633,-564.203 322.491,-557.926"/>
<polygon fill="midnightblue" stroke="midnightblue" points="322.611,-554.422 312.335,-557.003 321.977,-561.393 322.611,-554.422"/>
</g>
<!-- Node12 -->
<g id="node12" class="node"><title>Node12</title>
<g id="a_node12"><a xlink:href="lobject_8c.html#a1d02fb9304e4700ce1fd20e34ae68784" target="_top" xlink:title=" ">
<polygon fill="white" stroke="black" points="748,-635.5 748,-654.5 819,-654.5 819,-635.5 748,-635.5"/>
<text text-anchor="middle" x="783.5" y="-642.5" font-family="Helvetica,sans-Serif" font-size="10.00">addnum2buff</text>
</a>
</g>
</g>
<!-- Node11&#45;&gt;Node12 -->
<g id="edge11" class="edge"><title>Node11&#45;&gt;Node12</title>
<path fill="none" stroke="midnightblue" d="M680.006,-578.506C686.478,-581.159 693.151,-584.338 699,-588 717.396,-599.519 717.146,-608.657 735,-621 740.063,-624.501 745.709,-627.805 751.29,-630.777"/>
<polygon fill="midnightblue" stroke="midnightblue" points="750.005,-634.05 760.508,-635.444 753.167,-627.805 750.005,-634.05"/>
</g>
<!-- Node13 -->
<g id="node13" class="node"><title>Node13</title>
<g id="a_node13"><a xlink:href="lobject_8c.html#ac4ab924f2ea45ef73319f1159033eab1" target="_top" xlink:title=" ">
<polygon fill="white" stroke="black" points="889.5,-597.5 889.5,-616.5 934.5,-616.5 934.5,-597.5 889.5,-597.5"/>
<text text-anchor="middle" x="912" y="-604.5" font-family="Helvetica,sans-Serif" font-size="10.00">getbuff</text>
</a>
</g>
</g>
<!-- Node11&#45;&gt;Node13 -->
<g id="edge19" class="edge"><title>Node11&#45;&gt;Node13</title>
<path fill="none" stroke="midnightblue" d="M688.87,-578.537C703.244,-581.901 719.809,-585.471 735,-588 785.139,-596.349 843.954,-601.84 879.306,-604.682"/>
<polygon fill="midnightblue" stroke="midnightblue" points="879.246,-608.188 889.489,-605.479 879.792,-601.209 879.246,-608.188"/>
</g>
<!-- Node14 -->
<g id="node14" class="node"><title>Node14</title>
<g id="a_node14"><a xlink:href="lobject_8c.html#a6ec2716e64cd75e3e6614a87ee92e4d2" target="_top" xlink:title=" ">
<polygon fill="white" stroke="red" points="1009,-597.5 1009,-616.5 1062,-616.5 1062,-597.5 1009,-597.5"/>
<text text-anchor="middle" x="1035.5" y="-604.5" font-family="Helvetica,sans-Serif" font-size="10.00">clearbuff</text>
</a>
</g>
</g>
<!-- Node11&#45;&gt;Node14 -->
<g id="edge18" class="edge"><title>Node11&#45;&gt;Node14</title>
<path fill="none" stroke="midnightblue" d="M684.93,-578.652C690.038,-581.128 694.944,-584.202 699,-588 726.279,-613.549 703.417,-644.013 735,-664 817.999,-716.524 862.581,-694.339 956,-664 980.328,-656.099 1003.42,-637.511 1018.18,-623.697"/>
<polygon fill="midnightblue" stroke="midnightblue" points="1020.74,-626.089 1025.48,-616.612 1015.86,-621.067 1020.74,-626.089"/>
</g>
<!-- Node437 -->
<g id="node16" class="node"><title>Node437</title>
<g id="a_node16"><a xlink:href="lobject_8c.html#a874ab64f433ee35f2197a81e10452cb1" target="_top" xlink:title=" ">
<polygon fill="white" stroke="red" points="751.5,-559.5 751.5,-578.5 815.5,-578.5 815.5,-559.5 751.5,-559.5"/>
<text text-anchor="middle" x="783.5" y="-566.5" font-family="Helvetica,sans-Serif" font-size="10.00">addstr2buff</text>
</a>
</g>
</g>
<!-- Node11&#45;&gt;Node437 -->
<g id="edge15" class="edge"><title>Node11&#45;&gt;Node437</title>
<path fill="none" stroke="midnightblue" d="M696.623,-569C711.047,-569 726.9,-569 741.018,-569"/>
<polygon fill="midnightblue" stroke="midnightblue" points="741.422,-572.5 751.422,-569 741.422,-565.5 741.422,-572.5"/>
</g>
<!-- Node242 -->
<g id="node17" class="node"><title>Node242</title>
<g id="a_node17"><a xlink:href="lobject_8c.html#af3136de4693789b08f78aafda9604676" target="_top" xlink:title=" ">
<polygon fill="white" stroke="black" points="746.5,-521.5 746.5,-540.5 820.5,-540.5 820.5,-521.5 746.5,-521.5"/>
<text text-anchor="middle" x="783.5" y="-528.5" font-family="Helvetica,sans-Serif" font-size="10.00">luaO_utf8esc</text>
</a>
</g>
</g>
<!-- Node11&#45;&gt;Node242 -->
<g id="edge21" class="edge"><title>Node11&#45;&gt;Node242</title>
<path fill="none" stroke="midnightblue" d="M684.183,-559.411C701.003,-554.551 721.626,-548.591 739.634,-543.387"/>
<polygon fill="midnightblue" stroke="midnightblue" points="740.692,-546.725 749.328,-540.586 738.749,-540 740.692,-546.725"/>
</g>
<!-- Node12&#45;&gt;Node13 -->
<g id="edge12" class="edge"><title>Node12&#45;&gt;Node13</title>
<path fill="none" stroke="midnightblue" d="M816.421,-635.411C835.778,-629.596 860.373,-622.208 879.63,-616.424"/>
<polygon fill="midnightblue" stroke="midnightblue" points="880.863,-619.708 889.433,-613.478 878.849,-613.003 880.863,-619.708"/>
</g>
<!-- Node436 -->
<g id="node15" class="node"><title>Node436</title>
<g id="a_node15"><a xlink:href="lobject_8c.html#a8a7886b6335aca97db23dfe3e220c728" target="_top" xlink:title=" ">
<polygon fill="white" stroke="black" points="880,-635.5 880,-654.5 944,-654.5 944,-635.5 880,-635.5"/>
<text text-anchor="middle" x="912" y="-642.5" font-family="Helvetica,sans-Serif" font-size="10.00">tostringbuff</text>
</a>
</g>
</g>
<!-- Node12&#45;&gt;Node436 -->
<g id="edge14" class="edge"><title>Node12&#45;&gt;Node436</title>
<path fill="none" stroke="midnightblue" d="M819.067,-645C834.669,-645 853.225,-645 869.567,-645"/>
<polygon fill="midnightblue" stroke="midnightblue" points="869.933,-648.5 879.933,-645 869.933,-641.5 869.933,-648.5"/>
</g>
<!-- Node13&#45;&gt;Node14 -->
<g id="edge13" class="edge"><title>Node13&#45;&gt;Node14</title>
<path fill="none" stroke="midnightblue" d="M934.722,-607C952.473,-607 977.934,-607 998.692,-607"/>
<polygon fill="midnightblue" stroke="midnightblue" points="998.752,-610.5 1008.75,-607 998.752,-603.5 998.752,-610.5"/>
</g>
<!-- Node437&#45;&gt;Node13 -->
<g id="edge17" class="edge"><title>Node437&#45;&gt;Node13</title>
<path fill="none" stroke="midnightblue" d="M815.77,-578.393C835.209,-584.233 860.117,-591.715 879.583,-597.562"/>
<polygon fill="midnightblue" stroke="midnightblue" points="878.625,-600.929 889.209,-600.454 880.639,-594.225 878.625,-600.929"/>
</g>
<!-- Node437&#45;&gt;Node14 -->
<g id="edge16" class="edge"><title>Node437&#45;&gt;Node14</title>
<path fill="none" stroke="midnightblue" d="M815.651,-571.254C850.145,-574.027 907.317,-579.447 956,-588 970.197,-590.494 985.65,-594.049 999.061,-597.41"/>
<polygon fill="midnightblue" stroke="midnightblue" points="998.308,-600.83 1008.86,-599.922 1000.05,-594.049 998.308,-600.83"/>
</g>
<!-- Node62 -->
<g id="node19" class="node"><title>Node62</title>
<g id="a_node19"><a xlink:href="ldo_8c.html#a61c0a0185ef5ae1493dad10027f4db7e" target="_top" xlink:title=" ">
<polygon fill="white" stroke="black" points="477,-304.5 477,-323.5 564,-323.5 564,-304.5 477,-304.5"/>
<text text-anchor="middle" x="520.5" y="-311.5" font-family="Helvetica,sans-Serif" font-size="10.00">luaD_callnoyield</text>
</a>
</g>
</g>
<!-- Node438&#45;&gt;Node62 -->
<g id="edge23" class="edge"><title>Node438&#45;&gt;Node62</title>
<path fill="none" stroke="midnightblue" d="M425.939,-456.434C430.948,-453.855 435.904,-450.723 440,-447 476.009,-414.27 500.823,-361.389 512.284,-333.176"/>
<polygon fill="midnightblue" stroke="midnightblue" points="515.622,-334.252 516.019,-323.664 509.106,-331.694 515.622,-334.252"/>
</g>
<!-- Node87 -->
<g id="node23" class="node"><title>Node87</title>
<g id="a_node23"><a xlink:href="ldo_8c.html#a2b46d9db5b9ca3d5402a0c2ac640a6b0" target="_top" xlink:title=" ">
<polygon fill="white" stroke="black" points="879.5,-427.5 879.5,-446.5 944.5,-446.5 944.5,-427.5 879.5,-427.5"/>
<text text-anchor="middle" x="912" y="-434.5" font-family="Helvetica,sans-Serif" font-size="10.00">luaD_throw</text>
</a>
</g>
</g>
<!-- Node438&#45;&gt;Node87 -->
<g id="edge40" class="edge"><title>Node438&#45;&gt;Node87</title>
<path fill="none" stroke="midnightblue" d="M439.23,-467.869C515.349,-470.883 688.239,-474.734 832,-456 844.349,-454.391 857.575,-451.632 869.606,-448.708"/>
<polygon fill="midnightblue" stroke="midnightblue" points="870.548,-452.08 879.385,-446.234 868.832,-445.293 870.548,-452.08"/>
</g>
<!-- Node63 -->
<g id="node20" class="node"><title>Node63</title>
<g id="a_node20"><a xlink:href="ldo_8c.html#aa7d32ccef16c2d4fe63604c4c457831d" target="_top" xlink:title=" ">
<polygon fill="white" stroke="black" points="631.5,-304.5 631.5,-323.5 668.5,-323.5 668.5,-304.5 631.5,-304.5"/>
<text text-anchor="middle" x="650" y="-311.5" font-family="Helvetica,sans-Serif" font-size="10.00">ccall</text>
</a>
</g>
</g>
<!-- Node62&#45;&gt;Node63 -->
<g id="edge24" class="edge"><title>Node62&#45;&gt;Node63</title>
<path fill="none" stroke="midnightblue" d="M564.31,-314C583.063,-314 604.536,-314 621.167,-314"/>
<polygon fill="midnightblue" stroke="midnightblue" points="621.32,-317.5 631.32,-314 621.32,-310.5 621.32,-317.5"/>
</g>
<!-- Node64 -->
<g id="node21" class="node"><title>Node64</title>
<g id="a_node21"><a xlink:href="ldo_8c.html#a6ef9a33a964a596c36af61d452260bf5" target="_top" xlink:title=" ">
<polygon fill="white" stroke="red" points="877,-304.5 877,-323.5 947,-323.5 947,-304.5 877,-304.5"/>
<text text-anchor="middle" x="912" y="-311.5" font-family="Helvetica,sans-Serif" font-size="10.00">luaD_precall</text>
</a>
</g>
</g>
<!-- Node63&#45;&gt;Node64 -->
<g id="edge25" class="edge"><title>Node63&#45;&gt;Node64</title>
<path fill="none" stroke="midnightblue" d="M668.871,-314C709.241,-314 808.484,-314 866.611,-314"/>
<polygon fill="midnightblue" stroke="midnightblue" points="866.615,-317.5 876.614,-314 866.614,-310.5 866.615,-317.5"/>
</g>
<!-- Node86 -->
<g id="node22" class="node"><title>Node86</title>
<g id="a_node22"><a xlink:href="lstate_8c.html#a3da163a7316194f3a2cb950ee2b4e614" target="_top" xlink:title=" ">
<polygon fill="white" stroke="black" points="735,-427.5 735,-446.5 832,-446.5 832,-427.5 735,-427.5"/>
<text text-anchor="middle" x="783.5" y="-434.5" font-family="Helvetica,sans-Serif" font-size="10.00">luaE_checkcstack</text>
</a>
</g>
</g>
<!-- Node63&#45;&gt;Node86 -->
<g id="edge26" class="edge"><title>Node63&#45;&gt;Node86</title>
<path fill="none" stroke="midnightblue" d="M661.319,-323.652C683.692,-344.579 736.892,-394.34 764.768,-420.415"/>
<polygon fill="midnightblue" stroke="midnightblue" points="762.535,-423.118 772.229,-427.393 767.317,-418.006 762.535,-423.118"/>
</g>
<!-- Node88 -->
<g id="node26" class="node"><title>Node88</title>
<g id="a_node26"><a xlink:href="lvm_8c.html#a221e6dd0bc488dc961e9007ed8e21189" target="_top" xlink:title=" ">
<polygon fill="white" stroke="red" points="745.5,-266.5 745.5,-285.5 821.5,-285.5 821.5,-266.5 745.5,-266.5"/>
<text text-anchor="middle" x="783.5" y="-273.5" font-family="Helvetica,sans-Serif" font-size="10.00">luaV_execute</text>
</a>
</g>
</g>
<!-- Node63&#45;&gt;Node88 -->
<g id="edge32" class="edge"><title>Node63&#45;&gt;Node88</title>
<path fill="none" stroke="midnightblue" d="M668.735,-308.875C686.85,-303.64 715.657,-295.316 739.75,-288.354"/>
<polygon fill="midnightblue" stroke="midnightblue" points="740.764,-291.704 749.399,-285.565 738.821,-284.979 740.764,-291.704"/>
</g>
<!-- Node86&#45;&gt;Node3 -->
<g id="edge31" class="edge"><title>Node86&#45;&gt;Node3</title>
<path fill="none" stroke="midnightblue" d="M740.136,-446.526C646.064,-467.678 420.343,-518.432 322.29,-540.479"/>
<polygon fill="midnightblue" stroke="midnightblue" points="321.359,-537.101 312.371,-542.71 322.895,-543.93 321.359,-537.101"/>
</g>
<!-- Node86&#45;&gt;Node87 -->
<g id="edge27" class="edge"><title>Node86&#45;&gt;Node87</title>
<path fill="none" stroke="midnightblue" d="M832.324,-437C844.446,-437 857.372,-437 869.171,-437"/>
<polygon fill="midnightblue" stroke="midnightblue" points="869.201,-440.5 879.201,-437 869.201,-433.5 869.201,-440.5"/>
</g>
<!-- Node87&#45;&gt;Node87 -->
<g id="edge29" class="edge"><title>Node87&#45;&gt;Node87</title>
<path fill="none" stroke="midnightblue" d="M893.196,-446.757C884.048,-455.565 890.316,-465 912,-465 925.891,-465 933.456,-461.128 934.693,-456.029"/>
<polygon fill="midnightblue" stroke="midnightblue" points="937.9,-454.625 930.804,-446.757 931.445,-457.332 937.9,-454.625"/>
</g>
<!-- Node73 -->
<g id="node24" class="node"><title>Node73</title>
<g id="a_node24"><a xlink:href="ldo_8c.html#a2a5656cf723dffe2e9b5314260bd8896" target="_top" xlink:title=" ">
<polygon fill="white" stroke="black" points="992,-427.5 992,-446.5 1079,-446.5 1079,-427.5 992,-427.5"/>
<text text-anchor="middle" x="1035.5" y="-434.5" font-family="Helvetica,sans-Serif" font-size="10.00">luaD_seterrorobj</text>
</a>
</g>
</g>
<!-- Node87&#45;&gt;Node73 -->
<g id="edge28" class="edge"><title>Node87&#45;&gt;Node73</title>
<path fill="none" stroke="midnightblue" d="M944.606,-437C955.812,-437 968.751,-437 981.26,-437"/>
<polygon fill="midnightblue" stroke="midnightblue" points="981.618,-440.5 991.618,-437 981.618,-433.5 981.618,-440.5"/>
</g>
<!-- Node68 -->
<g id="node25" class="node"><title>Node68</title>
<g id="a_node25"><a xlink:href="lfunc_8c.html#ae9fcbf80b5969afd9412b9aed102f94e" target="_top" xlink:title=" ">
<polygon fill="white" stroke="red" points="1003.5,-328.5 1003.5,-347.5 1067.5,-347.5 1067.5,-328.5 1003.5,-328.5"/>
<text text-anchor="middle" x="1035.5" y="-335.5" font-family="Helvetica,sans-Serif" font-size="10.00">luaF_close</text>
</a>
</g>
</g>
<!-- Node87&#45;&gt;Node68 -->
<g id="edge30" class="edge"><title>Node87&#45;&gt;Node68</title>
<path fill="none" stroke="midnightblue" d="M925.094,-427.146C946.126,-410.009 989.611,-374.576 1014.97,-353.916"/>
<polygon fill="midnightblue" stroke="midnightblue" points="1017.27,-356.554 1022.81,-347.523 1012.85,-351.127 1017.27,-356.554"/>
</g>
<!-- Node88&#45;&gt;Node1 -->
<g id="edge39" class="edge"><title>Node88&#45;&gt;Node1</title>
<path fill="none" stroke="midnightblue" d="M745.146,-267.091C694.703,-255.859 601.862,-238 521.5,-238 273.5,-238 273.5,-238 273.5,-238 198.191,-238 113.086,-265.109 67.5133,-281.936"/>
<polygon fill="midnightblue" stroke="midnightblue" points="66.2687,-278.665 58.1395,-285.459 68.7316,-285.217 66.2687,-278.665"/>
</g>
<!-- Node88&#45;&gt;Node64 -->
<g id="edge35" class="edge"><title>Node88&#45;&gt;Node64</title>
<path fill="none" stroke="midnightblue" d="M816.421,-285.589C832.452,-290.404 852.074,-296.299 869.282,-301.468"/>
<polygon fill="midnightblue" stroke="midnightblue" points="868.505,-304.889 879.089,-304.414 870.519,-298.185 868.505,-304.889"/>
</g>
<!-- Node88&#45;&gt;Node68 -->
<g id="edge36" class="edge"><title>Node88&#45;&gt;Node68</title>
<path fill="none" stroke="midnightblue" d="M821.823,-275.984C857.153,-276.93 911.292,-280.889 956,-295 976.248,-301.391 997.245,-313.21 1012.42,-322.842"/>
<polygon fill="midnightblue" stroke="midnightblue" points="1010.78,-325.947 1021.06,-328.488 1014.61,-320.088 1010.78,-325.947"/>
</g>
<!-- Node364 -->
<g id="node27" class="node"><title>Node364</title>
<g id="a_node27"><a xlink:href="ldo_8c.html#a5483fddd87ca999e7d037bf397ab7997" target="_top" xlink:title=" ">
<polygon fill="white" stroke="black" points="884,-228.5 884,-247.5 940,-247.5 940,-228.5 884,-228.5"/>
<text text-anchor="middle" x="912" y="-235.5" font-family="Helvetica,sans-Serif" font-size="10.00">luaD_call</text>
</a>
</g>
</g>
<!-- Node88&#45;&gt;Node364 -->
<g id="edge33" class="edge"><title>Node88&#45;&gt;Node364</title>
<path fill="none" stroke="midnightblue" d="M816.421,-266.411C833.96,-261.142 855.798,-254.582 874.07,-249.094"/>
<polygon fill="midnightblue" stroke="midnightblue" points="875.234,-252.399 883.804,-246.169 873.22,-245.694 875.234,-252.399"/>
</g>
<!-- Node78 -->
<g id="node28" class="node"><title>Node78</title>
<g id="a_node28"><a xlink:href="ltable_8c.html#ae8a52507e1c8966d9cf3f2dd5a0c325f" target="_top" xlink:title=" ">
<polygon fill="white" stroke="black" points="868,-342.5 868,-361.5 956,-361.5 956,-342.5 868,-342.5"/>
<text text-anchor="middle" x="912" y="-349.5" font-family="Helvetica,sans-Serif" font-size="10.00">luaH_getshortstr</text>
</a>
</g>
</g>
<!-- Node88&#45;&gt;Node78 -->
<g id="edge37" class="edge"><title>Node88&#45;&gt;Node78</title>
<path fill="none" stroke="midnightblue" d="M797.048,-285.644C812.992,-297.64 841.616,-318.327 868,-333 871.089,-334.718 874.364,-336.399 877.673,-338.005"/>
<polygon fill="midnightblue" stroke="midnightblue" points="876.42,-341.282 886.965,-342.307 879.361,-334.929 876.42,-341.282"/>
</g>
<!-- Node29 -->
<g id="node29" class="node"><title>Node29</title>
<g id="a_node29"><a xlink:href="ltable_8c.html#a8f20a204b7a78780847939086b847781" target="_top" xlink:title=" ">
<polygon fill="white" stroke="black" points="872,-76.5 872,-95.5 952,-95.5 952,-76.5 872,-76.5"/>
<text text-anchor="middle" x="912" y="-83.5" font-family="Helvetica,sans-Serif" font-size="10.00">luaH_realasize</text>
</a>
</g>
</g>
<!-- Node88&#45;&gt;Node29 -->
<g id="edge38" class="edge"><title>Node88&#45;&gt;Node29</title>
<path fill="none" stroke="midnightblue" d="M790.947,-266.317C810.99,-236.213 872.441,-143.915 898.793,-104.335"/>
<polygon fill="midnightblue" stroke="midnightblue" points="901.786,-106.155 904.414,-95.8917 895.959,-102.276 901.786,-106.155"/>
</g>
<!-- Node364&#45;&gt;Node63 -->
<g id="edge34" class="edge"><title>Node364&#45;&gt;Node63</title>
<path fill="none" stroke="midnightblue" d="M883.847,-236.926C848.466,-236.415 785.199,-238.57 735,-257 710.153,-266.123 685.549,-284.16 669.454,-297.512"/>
<polygon fill="midnightblue" stroke="midnightblue" points="666.768,-295.203 661.441,-304.361 671.317,-300.524 666.768,-295.203"/>
</g>
<!-- Node332&#45;&gt;Node78 -->
<g id="edge43" class="edge"><title>Node332&#45;&gt;Node78</title>
<path fill="none" stroke="midnightblue" d="M313.254,-418.411C360.963,-407.154 445.761,-390 519.5,-390 519.5,-390 519.5,-390 651,-390 724.56,-390 808.607,-374.923 860.745,-363.763"/>
<polygon fill="midnightblue" stroke="midnightblue" points="861.708,-367.136 870.735,-361.589 860.219,-360.296 861.708,-367.136"/>
</g>
<!-- Node333 -->
<g id="node31" class="node"><title>Node333</title>
<g id="a_node31"><a xlink:href="lstring_8c.html#a6d47e53be6b8e58202bb927752f4824b" target="_top" xlink:title=" ">
<polygon fill="white" stroke="black" points="369.5,-418.5 369.5,-437.5 428.5,-437.5 428.5,-418.5 369.5,-418.5"/>
<text text-anchor="middle" x="399" y="-425.5" font-family="Helvetica,sans-Serif" font-size="10.00">luaS_new</text>
</a>
</g>
</g>
<!-- Node332&#45;&gt;Node333 -->
<g id="edge44" class="edge"><title>Node332&#45;&gt;Node333</title>
<path fill="none" stroke="midnightblue" d="M322.161,-428C334.275,-428 347.197,-428 358.878,-428"/>
<polygon fill="midnightblue" stroke="midnightblue" points="359.198,-431.5 369.198,-428 359.198,-424.5 359.198,-431.5"/>
</g>
<!-- Node16 -->
<g id="node32" class="node"><title>Node16</title>
<g id="a_node32"><a xlink:href="lstring_8c.html#ab41fb084ce3ea5e2779f6659ccc2484d" target="_top" xlink:title=" ">
<polygon fill="white" stroke="red" points="484.5,-418.5 484.5,-437.5 556.5,-437.5 556.5,-418.5 484.5,-418.5"/>
<text text-anchor="middle" x="520.5" y="-425.5" font-family="Helvetica,sans-Serif" font-size="10.00">luaS_newlstr</text>
</a>
</g>
</g>
<!-- Node333&#45;&gt;Node16 -->
<g id="edge45" class="edge"><title>Node333&#45;&gt;Node16</title>
<path fill="none" stroke="midnightblue" d="M428.623,-428C442.2,-428 458.752,-428 473.991,-428"/>
<polygon fill="midnightblue" stroke="midnightblue" points="474.279,-431.5 484.279,-428 474.279,-424.5 474.279,-431.5"/>
</g>
<!-- Node383&#45;&gt;Node5 -->
<g id="edge47" class="edge"><title>Node383&#45;&gt;Node5</title>
<path fill="none" stroke="midnightblue" d="M418.608,-721.358C433.914,-713.509 456.226,-702.255 476,-693 479.674,-691.281 483.543,-689.52 487.396,-687.798"/>
<polygon fill="midnightblue" stroke="midnightblue" points="489.085,-690.878 496.823,-683.64 486.261,-684.473 489.085,-690.878"/>
</g>
<!-- Node383&#45;&gt;Node10 -->
<g id="edge64" class="edge"><title>Node383&#45;&gt;Node10</title>
<path fill="none" stroke="midnightblue" d="M421.089,-727.647C433.511,-725.672 449.84,-723.076 465.618,-720.567"/>
<polygon fill="midnightblue" stroke="midnightblue" points="466.533,-723.966 475.86,-718.939 465.434,-717.052 466.533,-723.966"/>
</g>
<!-- Node384 -->
<g id="node34" class="node"><title>Node384</title>
<g id="a_node34"><a xlink:href="ldebug_8c.html#a5ccea5c2124ac2e629562b0ff7f440a6" target="_top" xlink:title=" ">
<polygon fill="white" stroke="black" points="487,-778.5 487,-797.5 554,-797.5 554,-778.5 487,-778.5"/>
<text text-anchor="middle" x="520.5" y="-785.5" font-family="Helvetica,sans-Serif" font-size="10.00">getobjname</text>
</a>
</g>
</g>
<!-- Node383&#45;&gt;Node384 -->
<g id="edge48" class="edge"><title>Node383&#45;&gt;Node384</title>
<path fill="none" stroke="midnightblue" d="M418.608,-740.642C433.914,-748.491 456.226,-759.745 476,-769 479.674,-770.719 483.543,-772.48 487.396,-774.202"/>
<polygon fill="midnightblue" stroke="midnightblue" points="486.261,-777.527 496.823,-778.36 489.085,-771.122 486.261,-777.527"/>
</g>
<!-- Node392 -->
<g id="node42" class="node"><title>Node392</title>
<g id="a_node42"><a xlink:href="ldebug_8c.html#aa34de8e3a8dd64cda6ce15e2296dff9b" target="_top" xlink:title=" ">
<polygon fill="white" stroke="black" points="482.5,-873.5 482.5,-892.5 558.5,-892.5 558.5,-873.5 482.5,-873.5"/>
<text text-anchor="middle" x="520.5" y="-880.5" font-family="Helvetica,sans-Serif" font-size="10.00">getupvalname</text>
</a>
</g>
</g>
<!-- Node383&#45;&gt;Node392 -->
<g id="edge61" class="edge"><title>Node383&#45;&gt;Node392</title>
<path fill="none" stroke="midnightblue" d="M407.475,-740.508C427.092,-765.46 480.274,-833.106 505.657,-865.392"/>
<polygon fill="midnightblue" stroke="midnightblue" points="503.096,-867.797 512.028,-873.495 508.599,-863.471 503.096,-867.797"/>
</g>
<!-- Node393 -->
<g id="node43" class="node"><title>Node393</title>
<g id="a_node43"><a xlink:href="ldebug_8c.html#a9f58a8099ec72d2ec0e0937b868fccdb" target="_top" xlink:title=" ">
<polygon fill="white" stroke="black" points="492.5,-740.5 492.5,-759.5 548.5,-759.5 548.5,-740.5 492.5,-740.5"/>
<text text-anchor="middle" x="520.5" y="-747.5" font-family="Helvetica,sans-Serif" font-size="10.00">isinstack</text>
</a>
</g>
</g>
<!-- Node383&#45;&gt;Node393 -->
<g id="edge63" class="edge"><title>Node383&#45;&gt;Node393</title>
<path fill="none" stroke="midnightblue" d="M421.089,-734.353C437.978,-737.038 462.09,-740.872 482.219,-744.072"/>
<polygon fill="midnightblue" stroke="midnightblue" points="481.897,-747.565 492.323,-745.679 482.997,-740.652 481.897,-747.565"/>
</g>
<!-- Node385 -->
<g id="node35" class="node"><title>Node385</title>
<g id="a_node35"><a xlink:href="ldebug_8c.html#a64baa2f66e5be0dad465b05a73ed7a9a" target="_top" xlink:title=" ">
<polygon fill="white" stroke="red" points="620.5,-854.5 620.5,-873.5 679.5,-873.5 679.5,-854.5 620.5,-854.5"/>
<text text-anchor="middle" x="650" y="-861.5" font-family="Helvetica,sans-Serif" font-size="10.00">findsetreg</text>
</a>
</g>
</g>
<!-- Node384&#45;&gt;Node385 -->
<g id="edge49" class="edge"><title>Node384&#45;&gt;Node385</title>
<path fill="none" stroke="midnightblue" d="M534.986,-797.51C550.563,-808.332 577.118,-826.28 601,-840 606.832,-843.35 613.191,-846.719 619.317,-849.83"/>
<polygon fill="midnightblue" stroke="midnightblue" points="618.13,-853.149 628.642,-854.467 621.246,-846.881 618.13,-853.149"/>
</g>
<!-- Node387 -->
<g id="node36" class="node"><title>Node387</title>
<g id="a_node36"><a xlink:href="ldebug_8c.html#ab68def10378c61ee5258c00d4f779283" target="_top" xlink:title=" ">
<polygon fill="white" stroke="black" points="635.5,-892.5 635.5,-911.5 664.5,-911.5 664.5,-892.5 635.5,-892.5"/>
<text text-anchor="middle" x="650" y="-899.5" font-family="Helvetica,sans-Serif" font-size="10.00">gxf</text>
</a>
</g>
</g>
<!-- Node384&#45;&gt;Node387 -->
<g id="edge50" class="edge"><title>Node384&#45;&gt;Node387</title>
<path fill="none" stroke="midnightblue" d="M531.177,-797.771C544.542,-815.663 570.489,-851.966 601,-874 609.235,-879.947 619.588,-884.353 628.568,-888.197"/>
<polygon fill="midnightblue" stroke="midnightblue" points="627.378,-891.498 637.938,-892.351 630.215,-885.098 627.378,-891.498"/>
</g>
<!-- Node388 -->
<g id="node37" class="node"><title>Node388</title>
<g id="a_node37"><a xlink:href="ldebug_8c.html#ac1d00bafd9dbc2ea15b7b374a760a8fc" target="_top" xlink:title=" ">
<polygon fill="white" stroke="black" points="752.5,-892.5 752.5,-911.5 814.5,-911.5 814.5,-892.5 752.5,-892.5"/>
<text text-anchor="middle" x="783.5" y="-899.5" font-family="Helvetica,sans-Serif" font-size="10.00">upvalname</text>
</a>
</g>
</g>
<!-- Node384&#45;&gt;Node388 -->
<g id="edge60" class="edge"><title>Node384&#45;&gt;Node388</title>
<path fill="none" stroke="midnightblue" d="M554.323,-795.511C590.793,-804.539 650.881,-821.467 699,-845 722.149,-856.321 746.209,-873.404 762.521,-885.916"/>
<polygon fill="midnightblue" stroke="midnightblue" points="760.697,-888.933 770.732,-892.332 765.007,-883.417 760.697,-888.933"/>
</g>
<!-- Node389 -->
<g id="node38" class="node"><title>Node389</title>
<g id="a_node38"><a xlink:href="ldebug_8c.html#aa605689053c7501d28fbd308b73f84ae" target="_top" xlink:title=" ">
<polygon fill="white" stroke="black" points="760.5,-759.5 760.5,-778.5 806.5,-778.5 806.5,-759.5 760.5,-759.5"/>
<text text-anchor="middle" x="783.5" y="-766.5" font-family="Helvetica,sans-Serif" font-size="10.00">kname</text>
</a>
</g>
</g>
<!-- Node384&#45;&gt;Node389 -->
<g id="edge53" class="edge"><title>Node384&#45;&gt;Node389</title>
<path fill="none" stroke="midnightblue" d="M554.028,-785.632C604.188,-781.981 699.857,-775.016 750,-771.366"/>
<polygon fill="midnightblue" stroke="midnightblue" points="750.547,-774.835 760.267,-770.619 750.039,-767.854 750.547,-774.835"/>
</g>
<!-- Node82 -->
<g id="node39" class="node"><title>Node82</title>
<g id="a_node39"><a xlink:href="lfunc_8c.html#aaa3cd5bc3901e7edf1ac428151cdfe8c" target="_top" xlink:title=" ">
<polygon fill="white" stroke="black" points="601,-646.5 601,-665.5 699,-665.5 699,-646.5 601,-646.5"/>
<text text-anchor="middle" x="650" y="-653.5" font-family="Helvetica,sans-Serif" font-size="10.00">luaF_getlocalname</text>
</a>
</g>
</g>
<!-- Node384&#45;&gt;Node82 -->
<g id="edge54" class="edge"><title>Node384&#45;&gt;Node82</title>
<path fill="none" stroke="midnightblue" d="M551.997,-778.348C556.764,-775.858 561.322,-772.78 565,-769 594.755,-738.417 572.048,-711.343 601,-680 604.303,-676.424 608.258,-673.308 612.46,-670.613"/>
<polygon fill="midnightblue" stroke="midnightblue" points="614.289,-673.6 621.304,-665.661 610.869,-667.493 614.289,-673.6"/>
</g>
<!-- Node390 -->
<g id="node40" class="node"><title>Node390</title>
<g id="a_node40"><a xlink:href="ldebug_8c.html#a2513b0afdf7a69ca65cb59eea7551131" target="_top" xlink:title=" ">
<polygon fill="white" stroke="black" points="625.5,-740.5 625.5,-759.5 674.5,-759.5 674.5,-740.5 625.5,-740.5"/>
<text text-anchor="middle" x="650" y="-747.5" font-family="Helvetica,sans-Serif" font-size="10.00">rkname</text>
</a>
</g>
</g>
<!-- Node384&#45;&gt;Node390 -->
<g id="edge55" class="edge"><title>Node384&#45;&gt;Node390</title>
<path fill="none" stroke="midnightblue" d="M553.674,-778.411C572.558,-772.783 596.389,-765.68 615.499,-759.985"/>
<polygon fill="midnightblue" stroke="midnightblue" points="616.705,-763.277 625.289,-757.067 614.706,-756.569 616.705,-763.277"/>
</g>
<!-- Node391 -->
<g id="node41" class="node"><title>Node391</title>
<g id="a_node41"><a xlink:href="ldebug_8c.html#a3b1ec666c4618a5100fc5a6ef21ca3f6" target="_top" xlink:title=" ">
<polygon fill="white" stroke="black" points="761.5,-711.5 761.5,-730.5 805.5,-730.5 805.5,-711.5 761.5,-711.5"/>
<text text-anchor="middle" x="783.5" y="-718.5" font-family="Helvetica,sans-Serif" font-size="10.00">rname</text>
</a>
</g>
</g>
<!-- Node384&#45;&gt;Node391 -->
<g id="edge59" class="edge"><title>Node384&#45;&gt;Node391</title>
<path fill="none" stroke="midnightblue" d="M530.711,-778.382C539.914,-773.104 554.208,-767.576 565,-760 584.04,-746.632 579.89,-731.777 601,-722 649.817,-699.391 714.102,-702.459 751.607,-709.69"/>
<polygon fill="midnightblue" stroke="midnightblue" points="750.926,-713.123 761.44,-711.822 752.409,-706.282 750.926,-713.123"/>
</g>
<!-- Node387&#45;&gt;Node384 -->
<g id="edge51" class="edge"><title>Node387&#45;&gt;Node384</title>
<path fill="none" stroke="midnightblue" d="M635.485,-906.009C625.342,-904.623 611.463,-899.556 601,-892 568.963,-868.864 541.958,-829.997 529.267,-806.573"/>
<polygon fill="midnightblue" stroke="midnightblue" points="532.357,-804.926 524.732,-797.57 526.105,-808.076 532.357,-804.926"/>
</g>
<!-- Node387&#45;&gt;Node388 -->
<g id="edge52" class="edge"><title>Node387&#45;&gt;Node388</title>
<path fill="none" stroke="midnightblue" d="M664.578,-902C682.768,-902 715.828,-902 742.324,-902"/>
<polygon fill="midnightblue" stroke="midnightblue" points="742.478,-905.5 752.478,-902 742.478,-898.5 742.478,-905.5"/>
</g>
<!-- Node390&#45;&gt;Node389 -->
<g id="edge56" class="edge"><title>Node390&#45;&gt;Node389</title>
<path fill="none" stroke="midnightblue" d="M674.51,-753.397C695.522,-756.433 726.517,-760.911 749.918,-764.292"/>
<polygon fill="midnightblue" stroke="midnightblue" points="749.674,-767.793 760.072,-765.759 750.675,-760.865 749.674,-767.793"/>
</g>
<!-- Node390&#45;&gt;Node391 -->
<g id="edge57" class="edge"><title>Node390&#45;&gt;Node391</title>
<path fill="none" stroke="midnightblue" d="M674.51,-744.815C696.003,-740.075 727.94,-733.032 751.512,-727.834"/>
<polygon fill="midnightblue" stroke="midnightblue" points="752.354,-731.232 761.365,-725.661 750.846,-724.397 752.354,-731.232"/>
</g>
<!-- Node391&#45;&gt;Node384 -->
<g id="edge58" class="edge"><title>Node391&#45;&gt;Node384</title>
<path fill="none" stroke="midnightblue" d="M761.44,-722.862C726.326,-721.262 654.406,-715.265 601,-740 579.89,-749.777 584.04,-764.632 565,-778 564.368,-778.444 563.723,-778.881 563.069,-779.31"/>
<polygon fill="midnightblue" stroke="midnightblue" points="561.065,-776.424 554.119,-784.424 564.538,-782.502 561.065,-776.424"/>
</g>
<!-- Node392&#45;&gt;Node388 -->
<g id="edge62" class="edge"><title>Node392&#45;&gt;Node388</title>
<path fill="none" stroke="midnightblue" d="M536.295,-892.565C551.729,-901.929 576.98,-915.554 601,-921 648.872,-931.853 705.278,-922.61 742.355,-913.62"/>
<polygon fill="midnightblue" stroke="midnightblue" points="743.441,-916.956 752.276,-911.109 741.723,-910.17 743.441,-916.956"/>
</g>
<!-- Node439&#45;&gt;Node29 -->
<g id="edge72" class="edge"><title>Node439&#45;&gt;Node29</title>
<path fill="none" stroke="midnightblue" d="M550.776,-103.572C617.114,-100.336 779.488,-92.4152 861.654,-88.4071"/>
<polygon fill="midnightblue" stroke="midnightblue" points="861.926,-91.8981 871.743,-87.915 861.585,-84.9064 861.926,-91.8981"/>
</g>
<!-- Node440 -->
<g id="node45" class="node"><title>Node440</title>
<g id="a_node45"><a xlink:href="ltable_8c.html#adb99d948364402881b0f64e24929c2d9" target="_top" xlink:title=" ">
<polygon fill="white" stroke="black" points="620.5,-152.5 620.5,-171.5 679.5,-171.5 679.5,-152.5 620.5,-152.5"/>
<text text-anchor="middle" x="650" y="-159.5" font-family="Helvetica,sans-Serif" font-size="10.00">binsearch</text>
</a>
</g>
</g>
<!-- Node439&#45;&gt;Node440 -->
<g id="edge66" class="edge"><title>Node439&#45;&gt;Node440</title>
<path fill="none" stroke="midnightblue" d="M540.606,-114.589C556.604,-122.508 580.108,-133.885 601,-143 605.39,-144.915 610.038,-146.859 614.646,-148.735"/>
<polygon fill="midnightblue" stroke="midnightblue" points="613.368,-151.993 623.952,-152.463 615.971,-145.495 613.368,-151.993"/>
</g>
<!-- Node441 -->
<g id="node46" class="node"><title>Node441</title>
<g id="a_node46"><a xlink:href="ltable_8c.html#a26dbf5edabc0c10a514910d82fa0e53c" target="_top" xlink:title=" ">
<polygon fill="white" stroke="black" points="614,-0.5 614,-19.5 686,-19.5 686,-0.5 614,-0.5"/>
<text text-anchor="middle" x="650" y="-7.5" font-family="Helvetica,sans-Serif" font-size="10.00">hash_search</text>
</a>
</g>
</g>
<!-- Node439&#45;&gt;Node441 -->
<g id="edge67" class="edge"><title>Node439&#45;&gt;Node441</title>
<path fill="none" stroke="midnightblue" d="M530.603,-95.3733C544.708,-80.8204 573.133,-52.9141 601,-34 606.136,-30.5139 611.85,-27.2168 617.493,-24.2464"/>
<polygon fill="midnightblue" stroke="midnightblue" points="619.435,-27.1883 626.808,-19.5803 616.3,-20.9296 619.435,-27.1883"/>
</g>
<!-- Node135 -->
<g id="node47" class="node"><title>Node135</title>
<g id="a_node47"><a xlink:href="ltable_8c.html#ae142cefd44452389877c3e3187c7973e" target="_top" xlink:title=" ">
<polygon fill="white" stroke="black" points="751,-38.5 751,-57.5 816,-57.5 816,-38.5 751,-38.5"/>
<text text-anchor="middle" x="783.5" y="-45.5" font-family="Helvetica,sans-Serif" font-size="10.00">luaH_getint</text>
</a>
</g>
</g>
<!-- Node439&#45;&gt;Node135 -->
<g id="edge71" class="edge"><title>Node439&#45;&gt;Node135</title>
<path fill="none" stroke="midnightblue" d="M540.605,-95.3997C556.407,-87.8713 579.64,-77.7384 601,-72 647.998,-59.3738 703.7,-53.2658 740.884,-50.3955"/>
<polygon fill="midnightblue" stroke="midnightblue" points="741.139,-53.8863 750.858,-49.6691 740.63,-46.9048 741.139,-53.8863"/>
</g>
<!-- Node442 -->
<g id="node48" class="node"><title>Node442</title>
<g id="a_node48"><a xlink:href="ltable_8c.html#a1017564c3ae0d59f332cf186ac118bcc" target="_top" xlink:title=" ">
<polygon fill="white" stroke="black" points="607,-114.5 607,-133.5 693,-133.5 693,-114.5 607,-114.5"/>
<text text-anchor="middle" x="650" y="-121.5" font-family="Helvetica,sans-Serif" font-size="10.00">ispow2realasize</text>
</a>
</g>
</g>
<!-- Node439&#45;&gt;Node442 -->
<g id="edge70" class="edge"><title>Node439&#45;&gt;Node442</title>
<path fill="none" stroke="midnightblue" d="M550.751,-109.359C564.381,-111.39 581.022,-113.87 596.706,-116.207"/>
<polygon fill="midnightblue" stroke="midnightblue" points="596.427,-119.704 606.833,-117.716 597.459,-112.781 596.427,-119.704"/>
</g>
<!-- Node441&#45;&gt;Node135 -->
<g id="edge68" class="edge"><title>Node441&#45;&gt;Node135</title>
<path fill="none" stroke="midnightblue" d="M684.183,-19.589C701.388,-24.5607 722.573,-30.6827 740.866,-35.969"/>
<polygon fill="midnightblue" stroke="midnightblue" points="740.11,-39.3935 750.688,-38.8073 742.053,-32.6687 740.11,-39.3935"/>
</g>
<!-- Node135&#45;&gt;Node29 -->
<g id="edge69" class="edge"><title>Node135&#45;&gt;Node29</title>
<path fill="none" stroke="midnightblue" d="M816.095,-57.491C832.245,-62.3424 852.105,-68.3082 869.476,-73.5264"/>
<polygon fill="midnightblue" stroke="midnightblue" points="868.785,-76.9733 879.369,-76.4983 870.799,-70.2693 868.785,-76.9733"/>
</g>
<!-- Node363&#45;&gt;Node62 -->
<g id="edge75" class="edge"><title>Node363&#45;&gt;Node62</title>
<path fill="none" stroke="midnightblue" d="M440.124,-301.38C448.696,-302.742 457.874,-304.202 466.837,-305.627"/>
<polygon fill="midnightblue" stroke="midnightblue" points="466.395,-309.1 476.82,-307.214 467.494,-302.187 466.395,-309.1"/>
</g>
<!-- Node363&#45;&gt;Node364 -->
<g id="edge74" class="edge"><title>Node363&#45;&gt;Node364</title>
<path fill="none" stroke="midnightblue" d="M439.912,-285.48C502.391,-271.117 627.298,-244.569 735,-235 777.942,-231.185 788.897,-234.182 832,-235 845.643,-235.259 860.605,-235.769 873.803,-236.297"/>
<polygon fill="midnightblue" stroke="midnightblue" points="873.814,-239.8 883.951,-236.719 874.105,-232.806 873.814,-239.8"/>
</g>
<!-- Node77&#45;&gt;Node78 -->
<g id="edge77" class="edge"><title>Node77&#45;&gt;Node78</title>
<path fill="none" stroke="midnightblue" d="M191.336,-344.786C241.174,-347.744 325.459,-352 398,-352 398,-352 398,-352 651,-352 722.517,-352 805.099,-352 857.657,-352"/>
<polygon fill="midnightblue" stroke="midnightblue" points="857.756,-355.5 867.756,-352 857.756,-348.5 857.756,-355.5"/>
</g>
</g>
</svg>
