<?xml version="1.0" encoding="UTF-8" standalone="no"?>
<!DOCTYPE svg PUBLIC "-//W3C//DTD SVG 1.1//EN"
 "http://www.w3.org/Graphics/SVG/1.1/DTD/svg11.dtd">
<!-- Generated by graphviz version 2.38.0 (20140413.2041)
 -->
<!-- Title: luaV_equalobj Pages: 1 -->
<svg width="1119pt" height="664pt"
 viewBox="0.00 0.00 1119.00 664.00" xmlns="http://www.w3.org/2000/svg" xmlns:xlink="http://www.w3.org/1999/xlink">
<g id="graph0" class="graph" transform="scale(1 1) rotate(0) translate(4 660)">
<title>luaV_equalobj</title>
<polygon fill="white" stroke="none" points="-4,4 -4,-660 1115,-660 1115,4 -4,4"/>
<!-- Node1 -->
<g id="node1" class="node"><title>Node1</title>
<g id="a_node1"><a xlink:title=" ">
<polygon fill="#bfbfbf" stroke="black" points="1034,-408.5 1034,-427.5 1111,-427.5 1111,-408.5 1034,-408.5"/>
<text text-anchor="middle" x="1072.5" y="-415.5" font-family="Helvetica,sans-Serif" font-size="10.00">luaV_equalobj</text>
</a>
</g>
</g>
<!-- Node2 -->
<g id="node2" class="node"><title>Node2</title>
<g id="a_node2"><a xlink:href="lua_8h.html#a603a5975f5a19c1824e6af53c1326b5c" target="_top" xlink:title=" ">
<polygon fill="white" stroke="black" points="357,-589.5 357,-608.5 429,-608.5 429,-589.5 357,-589.5"/>
<text text-anchor="middle" x="393" y="-596.5" font-family="Helvetica,sans-Serif" font-size="10.00">lua_compare</text>
</a>
</g>
</g>
<!-- Node1&#45;&gt;Node2 -->
<g id="edge1" class="edge"><title>Node1&#45;&gt;Node2</title>
<path fill="none" stroke="midnightblue" d="M1065.52,-437.173C1046.57,-493.74 982.153,-656 867,-656 867,-656 867,-656 645,-656 560.32,-656 463.472,-624.767 418.87,-608.541"/>
<polygon fill="midnightblue" stroke="midnightblue" points="1068.86,-438.217 1068.62,-427.625 1062.21,-436.055 1068.86,-438.217"/>
</g>
<!-- Node10 -->
<g id="node10" class="node"><title>Node10</title>
<g id="a_node10"><a xlink:href="lvm_8h.html#ac430e93ed874f6ab2449d7a16aa6b62f" target="_top" xlink:title=" ">
<polygon fill="white" stroke="black" points="922,-408.5 922,-427.5 998,-427.5 998,-408.5 922,-408.5"/>
<text text-anchor="middle" x="960" y="-415.5" font-family="Helvetica,sans-Serif" font-size="10.00">luaV_execute</text>
</a>
</g>
</g>
<!-- Node1&#45;&gt;Node10 -->
<g id="edge10" class="edge"><title>Node1&#45;&gt;Node10</title>
<path fill="none" stroke="midnightblue" d="M1023.58,-418C1015.07,-418 1006.33,-418 998.174,-418"/>
<polygon fill="midnightblue" stroke="midnightblue" points="1023.78,-421.5 1033.78,-418 1023.78,-414.5 1023.78,-421.5"/>
</g>
<!-- Node3 -->
<g id="node3" class="node"><title>Node3</title>
<g id="a_node3"><a xlink:href="lmathlib_8c.html#a03e3b76e515f5535122c2026a9e8f445" target="_top" xlink:title=" ">
<polygon fill="white" stroke="black" points="244.5,-589.5 244.5,-608.5 306.5,-608.5 306.5,-589.5 244.5,-589.5"/>
<text text-anchor="middle" x="275.5" y="-596.5" font-family="Helvetica,sans-Serif" font-size="10.00">math_max</text>
</a>
</g>
</g>
<!-- Node2&#45;&gt;Node3 -->
<g id="edge2" class="edge"><title>Node2&#45;&gt;Node3</title>
<path fill="none" stroke="midnightblue" d="M346.647,-599C333.169,-599 318.744,-599 306.502,-599"/>
<polygon fill="midnightblue" stroke="midnightblue" points="346.719,-602.5 356.719,-599 346.719,-595.5 346.719,-602.5"/>
</g>
<!-- Node4 -->
<g id="node4" class="node"><title>Node4</title>
<g id="a_node4"><a xlink:href="lmathlib_8c.html#ab0a14d784b5fe2f30062e88a635db320" target="_top" xlink:title=" ">
<polygon fill="white" stroke="black" points="246,-513.5 246,-532.5 305,-532.5 305,-513.5 246,-513.5"/>
<text text-anchor="middle" x="275.5" y="-520.5" font-family="Helvetica,sans-Serif" font-size="10.00">math_min</text>
</a>
</g>
</g>
<!-- Node2&#45;&gt;Node4 -->
<g id="edge3" class="edge"><title>Node2&#45;&gt;Node4</title>
<path fill="none" stroke="midnightblue" d="M354.116,-584.905C351.292,-583.389 348.553,-581.754 346,-580 326.826,-566.824 328.319,-556.34 310,-542 305.577,-538.538 300.45,-535.302 295.557,-532.517"/>
<polygon fill="midnightblue" stroke="midnightblue" points="352.772,-588.142 363.299,-589.336 355.814,-581.838 352.772,-588.142"/>
</g>
<!-- Node5 -->
<g id="node5" class="node"><title>Node5</title>
<g id="a_node5"><a xlink:href="ltablib_8c.html#ae92f4625e74d1876b2ca2a4ced74c807" target="_top" xlink:title=" ">
<polygon fill="white" stroke="black" points="244.5,-551.5 244.5,-570.5 306.5,-570.5 306.5,-551.5 244.5,-551.5"/>
<text text-anchor="middle" x="275.5" y="-558.5" font-family="Helvetica,sans-Serif" font-size="10.00">sort_comp</text>
</a>
</g>
</g>
<!-- Node2&#45;&gt;Node5 -->
<g id="edge4" class="edge"><title>Node2&#45;&gt;Node5</title>
<path fill="none" stroke="midnightblue" d="M353.016,-586.174C337.518,-581.075 319.998,-575.311 305.636,-570.586"/>
<polygon fill="midnightblue" stroke="midnightblue" points="352.262,-589.61 362.854,-589.411 354.449,-582.961 352.262,-589.61"/>
</g>
<!-- Node9 -->
<g id="node9" class="node"><title>Node9</title>
<g id="a_node9"><a xlink:href="ltablib_8c.html#a2206b11cc9a180fbc33aabb81308fd74" target="_top" xlink:title=" ">
<polygon fill="white" stroke="black" points="158.5,-437.5 158.5,-456.5 200.5,-456.5 200.5,-437.5 158.5,-437.5"/>
<text text-anchor="middle" x="179.5" y="-444.5" font-family="Helvetica,sans-Serif" font-size="10.00">tmove</text>
</a>
</g>
</g>
<!-- Node2&#45;&gt;Node9 -->
<g id="edge9" class="edge"><title>Node2&#45;&gt;Node9</title>
<path fill="none" stroke="midnightblue" d="M349.903,-583.68C348.514,-582.538 347.205,-581.313 346,-580 310.076,-540.852 350.456,-500.444 310,-466 279.203,-439.779 228.625,-440.836 200.663,-443.914"/>
<polygon fill="midnightblue" stroke="midnightblue" points="348.279,-586.8 358.56,-589.359 352.119,-580.947 348.279,-586.8"/>
</g>
<!-- Node6 -->
<g id="node6" class="node"><title>Node6</title>
<g id="a_node6"><a xlink:href="ltablib_8c.html#a151c51c8905acb3db7d6f1e58265b709" target="_top" xlink:title=" ">
<polygon fill="white" stroke="black" points="69,-513.5 69,-532.5 118,-532.5 118,-513.5 69,-513.5"/>
<text text-anchor="middle" x="93.5" y="-520.5" font-family="Helvetica,sans-Serif" font-size="10.00">auxsort</text>
</a>
</g>
</g>
<!-- Node5&#45;&gt;Node6 -->
<g id="edge5" class="edge"><title>Node5&#45;&gt;Node6</title>
<path fill="none" stroke="midnightblue" d="M234.301,-556.226C210.732,-553.039 180.478,-548.276 154,-542 141.971,-539.149 128.857,-535.069 118.009,-531.421"/>
<polygon fill="midnightblue" stroke="midnightblue" points="233.921,-559.706 244.292,-557.537 234.832,-552.765 233.921,-559.706"/>
</g>
<!-- Node8 -->
<g id="node8" class="node"><title>Node8</title>
<g id="a_node8"><a xlink:href="ltablib_8c.html#a1d53059f696e353656cd98be725ffbd2" target="_top" xlink:title=" ">
<polygon fill="white" stroke="black" points="154,-513.5 154,-532.5 205,-532.5 205,-513.5 154,-513.5"/>
<text text-anchor="middle" x="179.5" y="-520.5" font-family="Helvetica,sans-Serif" font-size="10.00">partition</text>
</a>
</g>
</g>
<!-- Node5&#45;&gt;Node8 -->
<g id="edge7" class="edge"><title>Node5&#45;&gt;Node8</title>
<path fill="none" stroke="midnightblue" d="M241.324,-547.589C229.077,-542.638 215.455,-537.131 204.213,-532.586"/>
<polygon fill="midnightblue" stroke="midnightblue" points="240.197,-550.908 250.78,-551.411 242.821,-544.418 240.197,-550.908"/>
</g>
<!-- Node7 -->
<g id="node7" class="node"><title>Node7</title>
<g id="a_node7"><a xlink:href="ltablib_8c.html#ae7d3f892e2605bf102dce63de388e626" target="_top" xlink:title=" ">
<polygon fill="white" stroke="black" points="0,-513.5 0,-532.5 33,-532.5 33,-513.5 0,-513.5"/>
<text text-anchor="middle" x="16.5" y="-520.5" font-family="Helvetica,sans-Serif" font-size="10.00">sort</text>
</a>
</g>
</g>
<!-- Node6&#45;&gt;Node7 -->
<g id="edge6" class="edge"><title>Node6&#45;&gt;Node7</title>
<path fill="none" stroke="midnightblue" d="M58.5521,-523C49.6386,-523 40.455,-523 33.04,-523"/>
<polygon fill="midnightblue" stroke="midnightblue" points="58.7696,-526.5 68.7695,-523 58.7695,-519.5 58.7696,-526.5"/>
</g>
<!-- Node8&#45;&gt;Node6 -->
<g id="edge8" class="edge"><title>Node8&#45;&gt;Node6</title>
<path fill="none" stroke="midnightblue" d="M143.615,-523C135.059,-523 126.097,-523 118.206,-523"/>
<polygon fill="midnightblue" stroke="midnightblue" points="143.752,-526.5 153.752,-523 143.752,-519.5 143.752,-526.5"/>
</g>
<!-- Node11 -->
<g id="node11" class="node"><title>Node11</title>
<g id="a_node11"><a xlink:href="ldo_8c.html#aa7d32ccef16c2d4fe63604c4c457831d" target="_top" xlink:title=" ">
<polygon fill="white" stroke="black" points="847.5,-370.5 847.5,-389.5 884.5,-389.5 884.5,-370.5 847.5,-370.5"/>
<text text-anchor="middle" x="866" y="-377.5" font-family="Helvetica,sans-Serif" font-size="10.00">ccall</text>
</a>
</g>
</g>
<!-- Node10&#45;&gt;Node11 -->
<g id="edge11" class="edge"><title>Node10&#45;&gt;Node11</title>
<path fill="none" stroke="midnightblue" d="M926.424,-404.545C912.376,-398.742 896.498,-392.184 884.691,-387.307"/>
<polygon fill="midnightblue" stroke="midnightblue" points="925.206,-407.828 935.785,-408.411 927.878,-401.358 925.206,-407.828"/>
</g>
<!-- Node306 -->
<g id="node46" class="node"><title>Node306</title>
<g id="a_node46"><a xlink:href="ldo_8c.html#abd7632c715de5db6e7797b7fa3f7010f" target="_top" xlink:title=" ">
<polygon fill="white" stroke="black" points="742,-532.5 742,-551.5 791,-551.5 791,-532.5 742,-532.5"/>
<text text-anchor="middle" x="766.5" y="-539.5" font-family="Helvetica,sans-Serif" font-size="10.00">resume</text>
</a>
</g>
</g>
<!-- Node10&#45;&gt;Node306 -->
<g id="edge70" class="edge"><title>Node10&#45;&gt;Node306</title>
<path fill="none" stroke="midnightblue" d="M950.726,-436.599C939.503,-459.553 917.212,-497.993 886,-518 857.018,-536.577 816.537,-541.202 791.184,-542.127"/>
<polygon fill="midnightblue" stroke="midnightblue" points="953.899,-438.077 954.974,-427.536 947.561,-435.105 953.899,-438.077"/>
</g>
<!-- Node302 -->
<g id="node50" class="node"><title>Node302</title>
<g id="a_node50"><a xlink:href="ldo_8c.html#a3baab9d298c0c32cb74a9a079d7244de" target="_top" xlink:title=" ">
<polygon fill="white" stroke="black" points="846,-570.5 846,-589.5 886,-589.5 886,-570.5 846,-570.5"/>
<text text-anchor="middle" x="866" y="-577.5" font-family="Helvetica,sans-Serif" font-size="10.00">unroll</text>
</a>
</g>
</g>
<!-- Node10&#45;&gt;Node302 -->
<g id="edge71" class="edge"><title>Node10&#45;&gt;Node302</title>
<path fill="none" stroke="midnightblue" d="M950.38,-436.863C937.671,-464.021 912.528,-515.341 886,-556 882.748,-560.985 878.704,-566.202 875.185,-570.493"/>
<polygon fill="midnightblue" stroke="midnightblue" points="953.593,-438.255 954.619,-427.71 947.241,-435.313 953.593,-438.255"/>
</g>
<!-- Node12 -->
<g id="node12" class="node"><title>Node12</title>
<g id="a_node12"><a xlink:href="ldo_8h.html#a4797364de1dd297aac52f9c10565523f" target="_top" xlink:title=" ">
<polygon fill="white" stroke="black" points="738.5,-247.5 738.5,-266.5 794.5,-266.5 794.5,-247.5 738.5,-247.5"/>
<text text-anchor="middle" x="766.5" y="-254.5" font-family="Helvetica,sans-Serif" font-size="10.00">luaD_call</text>
</a>
</g>
</g>
<!-- Node11&#45;&gt;Node12 -->
<g id="edge12" class="edge"><title>Node11&#45;&gt;Node12</title>
<path fill="none" stroke="midnightblue" d="M851,-362.339C830.101,-335.974 791.458,-287.224 775.115,-266.607"/>
<polygon fill="midnightblue" stroke="midnightblue" points="848.395,-364.686 857.349,-370.348 853.88,-360.338 848.395,-364.686"/>
</g>
<!-- Node650 -->
<g id="node34" class="node"><title>Node650</title>
<g id="a_node34"><a xlink:href="ldo_8h.html#a5315637506edcbdd30e9271e75416ae1" target="_top" xlink:title=" ">
<polygon fill="white" stroke="black" points="723,-351.5 723,-370.5 810,-370.5 810,-351.5 723,-351.5"/>
<text text-anchor="middle" x="766.5" y="-358.5" font-family="Helvetica,sans-Serif" font-size="10.00">luaD_callnoyield</text>
</a>
</g>
</g>
<!-- Node11&#45;&gt;Node650 -->
<g id="edge44" class="edge"><title>Node11&#45;&gt;Node650</title>
<path fill="none" stroke="midnightblue" d="M837.178,-374.578C828.827,-372.951 819.466,-371.127 810.38,-369.356"/>
<polygon fill="midnightblue" stroke="midnightblue" points="836.632,-378.038 847.117,-376.515 837.971,-371.167 836.632,-378.038"/>
</g>
<!-- Node11&#45;&gt;Node306 -->
<g id="edge65" class="edge"><title>Node11&#45;&gt;Node306</title>
<path fill="none" stroke="midnightblue" d="M854.027,-398.232C833.363,-432.566 789.323,-505.74 773.4,-532.197"/>
<polygon fill="midnightblue" stroke="midnightblue" points="857.035,-400.021 859.193,-389.649 851.037,-396.412 857.035,-400.021"/>
</g>
<!-- Node12&#45;&gt;Node10 -->
<g id="edge43" class="edge"><title>Node12&#45;&gt;Node10</title>
<path fill="none" stroke="midnightblue" d="M804.41,-263.73C829.548,-269.807 862.415,-280.832 886,-300 923.576,-330.538 947.148,-385.865 955.542,-408.229"/>
<polygon fill="midnightblue" stroke="midnightblue" points="805.029,-260.282 794.504,-261.492 803.487,-267.11 805.029,-260.282"/>
</g>
<!-- Node13 -->
<g id="node13" class="node"><title>Node13</title>
<g id="a_node13"><a xlink:href="lua_8h.html#aeebb647cb91c051b1955fac1207de386" target="_top" xlink:title=" ">
<polygon fill="white" stroke="black" points="618.5,-342.5 618.5,-361.5 673.5,-361.5 673.5,-342.5 618.5,-342.5"/>
<text text-anchor="middle" x="646" y="-349.5" font-family="Helvetica,sans-Serif" font-size="10.00">lua_callk</text>
</a>
</g>
</g>
<!-- Node12&#45;&gt;Node13 -->
<g id="edge13" class="edge"><title>Node12&#45;&gt;Node13</title>
<path fill="none" stroke="midnightblue" d="M745.237,-273.245C720.435,-293.128 679.244,-326.15 658.992,-342.386"/>
<polygon fill="midnightblue" stroke="midnightblue" points="747.652,-275.795 753.265,-266.809 743.273,-270.333 747.652,-275.795"/>
</g>
<!-- Node15 -->
<g id="node15" class="node"><title>Node15</title>
<g id="a_node15"><a xlink:href="lua_8h.html#ab03ab465d4ca870dc66e228b8dfd3f06" target="_top" xlink:title=" ">
<polygon fill="white" stroke="black" points="492.5,-152.5 492.5,-171.5 552.5,-171.5 552.5,-152.5 492.5,-152.5"/>
<text text-anchor="middle" x="522.5" y="-159.5" font-family="Helvetica,sans-Serif" font-size="10.00">lua_pcallk</text>
</a>
</g>
</g>
<!-- Node12&#45;&gt;Node15 -->
<g id="edge15" class="edge"><title>Node12&#45;&gt;Node15</title>
<path fill="none" stroke="midnightblue" d="M752.48,-238.754C738.516,-220.747 714.59,-194.072 687,-181 643.615,-160.445 586.759,-158.686 552.797,-159.905"/>
<polygon fill="midnightblue" stroke="midnightblue" points="750.05,-241.348 758.841,-247.262 755.657,-237.157 750.05,-241.348"/>
</g>
<!-- Node18 -->
<g id="node18" class="node"><title>Node18</title>
<g id="a_node18"><a xlink:href="ltm_8h.html#a4380eceaa582fe847011b265423c8fa4" target="_top" xlink:title=" ">
<polygon fill="white" stroke="black" points="612,-228.5 612,-247.5 680,-247.5 680,-228.5 612,-228.5"/>
<text text-anchor="middle" x="646" y="-235.5" font-family="Helvetica,sans-Serif" font-size="10.00">luaT_callTM</text>
</a>
</g>
</g>
<!-- Node12&#45;&gt;Node18 -->
<g id="edge18" class="edge"><title>Node12&#45;&gt;Node18</title>
<path fill="none" stroke="midnightblue" d="M728.144,-251.01C712.842,-248.557 695.274,-245.74 680.406,-243.356"/>
<polygon fill="midnightblue" stroke="midnightblue" points="727.886,-254.514 738.314,-252.641 728.994,-247.602 727.886,-254.514"/>
</g>
<!-- Node128 -->
<g id="node23" class="node"><title>Node128</title>
<g id="a_node23"><a xlink:href="ltm_8h.html#a672b3605311190ae7ed802d566daa1fa" target="_top" xlink:title=" ">
<polygon fill="white" stroke="black" points="605,-190.5 605,-209.5 687,-209.5 687,-190.5 605,-190.5"/>
<text text-anchor="middle" x="646" y="-197.5" font-family="Helvetica,sans-Serif" font-size="10.00">luaT_callTMres</text>
</a>
</g>
</g>
<!-- Node12&#45;&gt;Node128 -->
<g id="edge25" class="edge"><title>Node12&#45;&gt;Node128</title>
<path fill="none" stroke="midnightblue" d="M736.663,-242.978C721.834,-235.783 703.463,-226.895 687,-219 680.622,-215.942 673.663,-212.628 667.363,-209.637"/>
<polygon fill="midnightblue" stroke="midnightblue" points="735.316,-246.214 745.84,-247.434 738.373,-239.917 735.316,-246.214"/>
</g>
<!-- Node14 -->
<g id="node14" class="node"><title>Node14</title>
<g id="a_node14"><a xlink:href="lbaselib_8c.html#a86a4e35d9c9ad4661a0dbbac3758c049" target="_top" xlink:title=" ">
<polygon fill="white" stroke="black" points="361,-380.5 361,-399.5 425,-399.5 425,-380.5 361,-380.5"/>
<text text-anchor="middle" x="393" y="-387.5" font-family="Helvetica,sans-Serif" font-size="10.00">luaB_dofile</text>
</a>
</g>
</g>
<!-- Node13&#45;&gt;Node14 -->
<g id="edge14" class="edge"><title>Node13&#45;&gt;Node14</title>
<path fill="none" stroke="midnightblue" d="M608.447,-362.214C596.008,-365.402 581.971,-368.686 569,-371 519.058,-379.911 460.302,-385.254 425.162,-387.91"/>
<polygon fill="midnightblue" stroke="midnightblue" points="609.68,-365.509 618.462,-359.582 607.9,-358.739 609.68,-365.509"/>
</g>
<!-- Node16 -->
<g id="node16" class="node"><title>Node16</title>
<g id="a_node16"><a xlink:href="lbaselib_8c.html#a1fb2725eed679431d070b2e9e7abc223" target="_top" xlink:title=" ">
<polygon fill="white" stroke="black" points="362,-133.5 362,-152.5 424,-152.5 424,-133.5 362,-133.5"/>
<text text-anchor="middle" x="393" y="-140.5" font-family="Helvetica,sans-Serif" font-size="10.00">luaB_pcall</text>
</a>
</g>
</g>
<!-- Node15&#45;&gt;Node16 -->
<g id="edge16" class="edge"><title>Node15&#45;&gt;Node16</title>
<path fill="none" stroke="midnightblue" d="M482.223,-156.147C463.469,-153.352 441.383,-150.061 424,-147.471"/>
<polygon fill="midnightblue" stroke="midnightblue" points="481.842,-159.629 492.249,-157.641 482.874,-152.705 481.842,-159.629"/>
</g>
<!-- Node17 -->
<g id="node17" class="node"><title>Node17</title>
<g id="a_node17"><a xlink:href="lbaselib_8c.html#a5fbb0094fa1a56f0a4c2547f1ec4c5ab" target="_top" xlink:title=" ">
<polygon fill="white" stroke="black" points="359.5,-171.5 359.5,-190.5 426.5,-190.5 426.5,-171.5 359.5,-171.5"/>
<text text-anchor="middle" x="393" y="-178.5" font-family="Helvetica,sans-Serif" font-size="10.00">luaB_xpcall</text>
</a>
</g>
</g>
<!-- Node15&#45;&gt;Node17 -->
<g id="edge17" class="edge"><title>Node15&#45;&gt;Node17</title>
<path fill="none" stroke="midnightblue" d="M482.175,-167.86C464.39,-170.51 443.618,-173.606 426.704,-176.126"/>
<polygon fill="midnightblue" stroke="midnightblue" points="482.874,-171.295 492.249,-166.359 481.842,-164.371 482.874,-171.295"/>
</g>
<!-- Node19 -->
<g id="node19" class="node"><title>Node19</title>
<g id="a_node19"><a xlink:href="lvm_8h.html#ab932d6ab0da7d7c900e4fa020b08ea76" target="_top" xlink:title=" ">
<polygon fill="white" stroke="black" points="354.5,-228.5 354.5,-247.5 431.5,-247.5 431.5,-228.5 354.5,-228.5"/>
<text text-anchor="middle" x="393" y="-235.5" font-family="Helvetica,sans-Serif" font-size="10.00">luaV_finishset</text>
</a>
</g>
</g>
<!-- Node18&#45;&gt;Node19 -->
<g id="edge19" class="edge"><title>Node18&#45;&gt;Node19</title>
<path fill="none" stroke="midnightblue" d="M601.862,-238C553.919,-238 477.26,-238 431.653,-238"/>
<polygon fill="midnightblue" stroke="midnightblue" points="601.928,-241.5 611.928,-238 601.928,-234.5 601.928,-241.5"/>
</g>
<!-- Node19&#45;&gt;Node10 -->
<g id="edge24" class="edge"><title>Node19&#45;&gt;Node10</title>
<path fill="none" stroke="midnightblue" d="M415.886,-222.254C423.971,-215.86 432.888,-208.079 440,-200 459.798,-177.51 450.609,-158.909 476,-143 540.051,-102.869 569.416,-124 645,-124 767.5,-124 767.5,-124 767.5,-124 906.385,-124 949.781,-357.205 957.613,-408.218"/>
<polygon fill="midnightblue" stroke="midnightblue" points="413.699,-219.52 407.873,-228.369 417.946,-225.085 413.699,-219.52"/>
</g>
<!-- Node20 -->
<g id="node20" class="node"><title>Node20</title>
<g id="a_node20"><a xlink:href="lapi_8c.html#a0667fbf88666853554967226d9a3df4d" target="_top" xlink:title=" ">
<polygon fill="white" stroke="red" points="247,-190.5 247,-209.5 304,-209.5 304,-190.5 247,-190.5"/>
<text text-anchor="middle" x="275.5" y="-197.5" font-family="Helvetica,sans-Serif" font-size="10.00">auxsetstr</text>
</a>
</g>
</g>
<!-- Node19&#45;&gt;Node20 -->
<g id="edge20" class="edge"><title>Node19&#45;&gt;Node20</title>
<path fill="none" stroke="midnightblue" d="M353.161,-225.222C337.051,-219.922 318.735,-213.895 304.046,-209.063"/>
<polygon fill="midnightblue" stroke="midnightblue" points="352.262,-228.61 362.854,-228.411 354.449,-221.961 352.262,-228.61"/>
</g>
<!-- Node123 -->
<g id="node21" class="node"><title>Node123</title>
<g id="a_node21"><a xlink:href="lua_8h.html#a12ba17fc94b8cf0122aa367170688453" target="_top" xlink:title=" ">
<polygon fill="white" stroke="red" points="250.5,-228.5 250.5,-247.5 300.5,-247.5 300.5,-228.5 250.5,-228.5"/>
<text text-anchor="middle" x="275.5" y="-235.5" font-family="Helvetica,sans-Serif" font-size="10.00">lua_seti</text>
</a>
</g>
</g>
<!-- Node19&#45;&gt;Node123 -->
<g id="edge21" class="edge"><title>Node19&#45;&gt;Node123</title>
<path fill="none" stroke="midnightblue" d="M344.016,-238C329.052,-238 313.187,-238 300.598,-238"/>
<polygon fill="midnightblue" stroke="midnightblue" points="344.181,-241.5 354.181,-238 344.181,-234.5 344.181,-241.5"/>
</g>
<!-- Node127 -->
<g id="node22" class="node"><title>Node127</title>
<g id="a_node22"><a xlink:href="lua_8h.html#aeda173d104e3a566ccaac89a1f64a5eb" target="_top" xlink:title=" ">
<polygon fill="white" stroke="black" points="241,-266.5 241,-285.5 310,-285.5 310,-266.5 241,-266.5"/>
<text text-anchor="middle" x="275.5" y="-273.5" font-family="Helvetica,sans-Serif" font-size="10.00">lua_settable</text>
</a>
</g>
</g>
<!-- Node19&#45;&gt;Node127 -->
<g id="edge23" class="edge"><title>Node19&#45;&gt;Node127</title>
<path fill="none" stroke="midnightblue" d="M353.016,-250.826C337.518,-255.925 319.998,-261.689 305.636,-266.414"/>
<polygon fill="midnightblue" stroke="midnightblue" points="354.449,-254.039 362.854,-247.589 352.262,-247.39 354.449,-254.039"/>
</g>
<!-- Node123&#45;&gt;Node9 -->
<g id="edge22" class="edge"><title>Node123&#45;&gt;Node9</title>
<path fill="none" stroke="midnightblue" d="M244.096,-253.67C242.988,-254.722 241.948,-255.832 241,-257 194.763,-313.994 183.616,-406.892 181.15,-437.142"/>
<polygon fill="midnightblue" stroke="midnightblue" points="246.315,-256.38 252.16,-247.543 242.08,-250.806 246.315,-256.38"/>
</g>
<!-- Node128&#45;&gt;Node1 -->
<g id="edge31" class="edge"><title>Node128&#45;&gt;Node1</title>
<path fill="none" stroke="midnightblue" d="M697.352,-208.996C729.947,-215.486 773.044,-225.329 810,-238 921.57,-276.254 1029.34,-376.334 1061.7,-408.144"/>
<polygon fill="midnightblue" stroke="midnightblue" points="697.644,-205.487 687.159,-207.007 696.304,-212.357 697.644,-205.487"/>
</g>
<!-- Node129 -->
<g id="node24" class="node"><title>Node129</title>
<g id="a_node24"><a xlink:href="ltm_8c.html#a68751e8f9bf0714d8c761a5b6ce4daf9" target="_top" xlink:title=" ">
<polygon fill="white" stroke="black" points="493.5,-38.5 493.5,-57.5 551.5,-57.5 551.5,-38.5 493.5,-38.5"/>
<text text-anchor="middle" x="522.5" y="-45.5" font-family="Helvetica,sans-Serif" font-size="10.00">callbinTM</text>
</a>
</g>
</g>
<!-- Node128&#45;&gt;Node129 -->
<g id="edge26" class="edge"><title>Node128&#45;&gt;Node129</title>
<path fill="none" stroke="midnightblue" d="M630.921,-182.387C605.111,-150.097 551.039,-82.4519 531.097,-57.5047"/>
<polygon fill="midnightblue" stroke="midnightblue" points="628.422,-184.866 637.4,-190.492 633.89,-180.495 628.422,-184.866"/>
</g>
<!-- Node400 -->
<g id="node28" class="node"><title>Node400</title>
<g id="a_node28"><a xlink:href="lvm_8h.html#a282d1037898c9b77aae41b12327a6c72" target="_top" xlink:title=" ">
<polygon fill="white" stroke="black" points="354.5,-304.5 354.5,-323.5 431.5,-323.5 431.5,-304.5 354.5,-304.5"/>
<text text-anchor="middle" x="393" y="-311.5" font-family="Helvetica,sans-Serif" font-size="10.00">luaV_finishget</text>
</a>
</g>
</g>
<!-- Node128&#45;&gt;Node400 -->
<g id="edge32" class="edge"><title>Node128&#45;&gt;Node400</title>
<path fill="none" stroke="midnightblue" d="M596.992,-212.273C562.354,-222.055 515.017,-237.358 476,-257 449.054,-270.565 420.856,-292.022 405.556,-304.377"/>
<polygon fill="midnightblue" stroke="midnightblue" points="598.156,-215.582 606.858,-209.539 596.287,-208.837 598.156,-215.582"/>
</g>
<!-- Node410 -->
<g id="node32" class="node"><title>Node410</title>
<g id="a_node32"><a xlink:href="lvm_8h.html#a414b4b487239935324f2f16e1e7715db" target="_top" xlink:title=" ">
<polygon fill="white" stroke="black" points="489,-342.5 489,-361.5 556,-361.5 556,-342.5 489,-342.5"/>
<text text-anchor="middle" x="522.5" y="-349.5" font-family="Helvetica,sans-Serif" font-size="10.00">luaV_objlen</text>
</a>
</g>
</g>
<!-- Node128&#45;&gt;Node410 -->
<g id="edge40" class="edge"><title>Node128&#45;&gt;Node410</title>
<path fill="none" stroke="midnightblue" d="M609.481,-215.099C607.892,-216.314 606.386,-217.613 605,-219 578.586,-245.443 588.791,-263.294 569,-295 557.87,-312.83 542.043,-331.504 532.29,-342.43"/>
<polygon fill="midnightblue" stroke="midnightblue" points="611.392,-218.031 617.945,-209.706 607.631,-212.128 611.392,-218.031"/>
</g>
<!-- Node130 -->
<g id="node25" class="node"><title>Node130</title>
<g id="a_node25"><a xlink:href="ltm_8h.html#a42fa775919957ebfb826d96c80e65f92" target="_top" xlink:title=" ">
<polygon fill="white" stroke="red" points="348,-38.5 348,-57.5 438,-57.5 438,-38.5 348,-38.5"/>
<text text-anchor="middle" x="393" y="-45.5" font-family="Helvetica,sans-Serif" font-size="10.00">luaT_callorderTM</text>
</a>
</g>
</g>
<!-- Node129&#45;&gt;Node130 -->
<g id="edge27" class="edge"><title>Node129&#45;&gt;Node130</title>
<path fill="none" stroke="midnightblue" d="M482.875,-48C468.798,-48 452.774,-48 438.247,-48"/>
<polygon fill="midnightblue" stroke="midnightblue" points="483.204,-51.5001 493.204,-48 483.204,-44.5001 483.204,-51.5001"/>
</g>
<!-- Node136 -->
<g id="node26" class="node"><title>Node136</title>
<g id="a_node26"><a xlink:href="ltm_8h.html#a52f9c211746126a08117801bd7e2d826" target="_top" xlink:title=" ">
<polygon fill="white" stroke="red" points="354.5,-76.5 354.5,-95.5 431.5,-95.5 431.5,-76.5 354.5,-76.5"/>
<text text-anchor="middle" x="393" y="-83.5" font-family="Helvetica,sans-Serif" font-size="10.00">luaT_trybinTM</text>
</a>
</g>
</g>
<!-- Node129&#45;&gt;Node136 -->
<g id="edge28" class="edge"><title>Node129&#45;&gt;Node136</title>
<path fill="none" stroke="midnightblue" d="M483.476,-59.3327C465.256,-64.7629 443.667,-71.1972 426.261,-76.3849"/>
<polygon fill="midnightblue" stroke="midnightblue" points="484.62,-62.6439 493.204,-56.4334 482.62,-55.9355 484.62,-62.6439"/>
</g>
<!-- Node150 -->
<g id="node27" class="node"><title>Node150</title>
<g id="a_node27"><a xlink:href="ltm_8h.html#a57603cad2e23d236a640ef8d7569d18f" target="_top" xlink:title=" ">
<polygon fill="white" stroke="red" points="346,-0.5 346,-19.5 440,-19.5 440,-0.5 346,-0.5"/>
<text text-anchor="middle" x="393" y="-7.5" font-family="Helvetica,sans-Serif" font-size="10.00">luaT_tryconcatTM</text>
</a>
</g>
</g>
<!-- Node129&#45;&gt;Node150 -->
<g id="edge30" class="edge"><title>Node129&#45;&gt;Node150</title>
<path fill="none" stroke="midnightblue" d="M483.476,-36.6673C465.256,-31.2371 443.667,-24.8028 426.261,-19.6151"/>
<polygon fill="midnightblue" stroke="midnightblue" points="482.62,-40.0645 493.204,-39.5666 484.62,-33.3561 482.62,-40.0645"/>
</g>
<!-- Node136&#45;&gt;Node10 -->
<g id="edge29" class="edge"><title>Node136&#45;&gt;Node10</title>
<path fill="none" stroke="midnightblue" d="M442.138,-86C492.666,-86 574.416,-86 645,-86 767.5,-86 767.5,-86 767.5,-86 827.357,-86 848.794,-103.111 886,-150 951.795,-232.917 958.429,-370.67 958.984,-408.266"/>
<polygon fill="midnightblue" stroke="midnightblue" points="441.846,-82.5001 431.846,-86 441.846,-89.5001 441.846,-82.5001"/>
</g>
<!-- Node400&#45;&gt;Node10 -->
<g id="edge39" class="edge"><title>Node400&#45;&gt;Node10</title>
<path fill="none" stroke="midnightblue" d="M442.138,-314C492.666,-314 574.416,-314 645,-314 767.5,-314 767.5,-314 767.5,-314 846.193,-314 923.43,-382.656 949.627,-408.402"/>
<polygon fill="midnightblue" stroke="midnightblue" points="441.846,-310.5 431.846,-314 441.846,-317.5 441.846,-310.5"/>
</g>
<!-- Node401 -->
<g id="node29" class="node"><title>Node401</title>
<g id="a_node29"><a xlink:href="lapi_8c.html#a1b28b3a312121ffb29541632648b9f78" target="_top" xlink:title=" ">
<polygon fill="white" stroke="red" points="247,-304.5 247,-323.5 304,-323.5 304,-304.5 247,-304.5"/>
<text text-anchor="middle" x="275.5" y="-311.5" font-family="Helvetica,sans-Serif" font-size="10.00">auxgetstr</text>
</a>
</g>
</g>
<!-- Node400&#45;&gt;Node401 -->
<g id="edge33" class="edge"><title>Node400&#45;&gt;Node401</title>
<path fill="none" stroke="midnightblue" d="M343.991,-314C330.409,-314 316.086,-314 304.147,-314"/>
<polygon fill="midnightblue" stroke="midnightblue" points="344.181,-317.5 354.181,-314 344.181,-310.5 344.181,-317.5"/>
</g>
<!-- Node408 -->
<g id="node30" class="node"><title>Node408</title>
<g id="a_node30"><a xlink:href="lua_8h.html#aa61540e05598186dd6afb26e0f37716c" target="_top" xlink:title=" ">
<polygon fill="white" stroke="red" points="250.5,-475.5 250.5,-494.5 300.5,-494.5 300.5,-475.5 250.5,-475.5"/>
<text text-anchor="middle" x="275.5" y="-482.5" font-family="Helvetica,sans-Serif" font-size="10.00">lua_geti</text>
</a>
</g>
</g>
<!-- Node400&#45;&gt;Node408 -->
<g id="edge34" class="edge"><title>Node400&#45;&gt;Node408</title>
<path fill="none" stroke="midnightblue" d="M351.245,-328.677C349.381,-330.003 347.618,-331.441 346,-333 302.538,-374.877 283.821,-449.048 278.33,-475.389"/>
<polygon fill="midnightblue" stroke="midnightblue" points="353.08,-331.658 359.908,-323.556 349.518,-325.632 353.08,-331.658"/>
</g>
<!-- Node409 -->
<g id="node31" class="node"><title>Node409</title>
<g id="a_node31"><a xlink:href="lua_8h.html#aaf6927ff4c73814c84d8ffca44d2fda6" target="_top" xlink:title=" ">
<polygon fill="white" stroke="red" points="241,-342.5 241,-361.5 310,-361.5 310,-342.5 241,-342.5"/>
<text text-anchor="middle" x="275.5" y="-349.5" font-family="Helvetica,sans-Serif" font-size="10.00">lua_gettable</text>
</a>
</g>
</g>
<!-- Node400&#45;&gt;Node409 -->
<g id="edge38" class="edge"><title>Node400&#45;&gt;Node409</title>
<path fill="none" stroke="midnightblue" d="M353.016,-326.826C337.518,-331.925 319.998,-337.689 305.636,-342.414"/>
<polygon fill="midnightblue" stroke="midnightblue" points="354.449,-330.039 362.854,-323.589 352.262,-323.39 354.449,-330.039"/>
</g>
<!-- Node408&#45;&gt;Node6 -->
<g id="edge35" class="edge"><title>Node408&#45;&gt;Node6</title>
<path fill="none" stroke="midnightblue" d="M240.143,-488.998C215.887,-492.165 182.722,-497.192 154,-504 141.971,-506.851 128.857,-510.931 118.009,-514.579"/>
<polygon fill="midnightblue" stroke="midnightblue" points="240.802,-492.443 250.283,-487.715 239.923,-485.498 240.802,-492.443"/>
</g>
<!-- Node408&#45;&gt;Node8 -->
<g id="edge36" class="edge"><title>Node408&#45;&gt;Node8</title>
<path fill="none" stroke="midnightblue" d="M241.324,-498.411C229.077,-503.362 215.455,-508.869 204.213,-513.414"/>
<polygon fill="midnightblue" stroke="midnightblue" points="242.821,-501.582 250.78,-494.589 240.197,-495.092 242.821,-501.582"/>
</g>
<!-- Node408&#45;&gt;Node9 -->
<g id="edge37" class="edge"><title>Node408&#45;&gt;Node9</title>
<path fill="none" stroke="midnightblue" d="M241.288,-471.574C227.747,-466.1 212.53,-459.948 200.709,-455.169"/>
<polygon fill="midnightblue" stroke="midnightblue" points="240.197,-474.908 250.78,-475.411 242.821,-468.418 240.197,-474.908"/>
</g>
<!-- Node410&#45;&gt;Node10 -->
<g id="edge42" class="edge"><title>Node410&#45;&gt;Node10</title>
<path fill="none" stroke="midnightblue" d="M540.618,-368.551C556.052,-382.271 580.09,-400.804 605,-409 715.519,-445.363 856.096,-432.881 921.89,-423.9"/>
<polygon fill="midnightblue" stroke="midnightblue" points="542.707,-365.716 532.978,-361.52 537.966,-370.867 542.707,-365.716"/>
</g>
<!-- Node411 -->
<g id="node33" class="node"><title>Node411</title>
<g id="a_node33"><a xlink:href="lua_8h.html#ac7ade66f92b5e325c42371926f879818" target="_top" xlink:title=" ">
<polygon fill="white" stroke="red" points="369.5,-342.5 369.5,-361.5 416.5,-361.5 416.5,-342.5 369.5,-342.5"/>
<text text-anchor="middle" x="393" y="-349.5" font-family="Helvetica,sans-Serif" font-size="10.00">lua_len</text>
</a>
</g>
</g>
<!-- Node410&#45;&gt;Node411 -->
<g id="edge41" class="edge"><title>Node410&#45;&gt;Node411</title>
<path fill="none" stroke="midnightblue" d="M478.822,-352C458.083,-352 433.992,-352 416.796,-352"/>
<polygon fill="midnightblue" stroke="midnightblue" points="478.997,-355.5 488.996,-352 478.996,-348.5 478.997,-355.5"/>
</g>
<!-- Node650&#45;&gt;Node13 -->
<g id="edge55" class="edge"><title>Node650&#45;&gt;Node13</title>
<path fill="none" stroke="midnightblue" d="M712.52,-356.976C699.009,-355.95 685.058,-354.89 673.52,-354.014"/>
<polygon fill="midnightblue" stroke="midnightblue" points="712.482,-360.483 722.719,-357.751 713.013,-353.503 712.482,-360.483"/>
</g>
<!-- Node650&#45;&gt;Node18 -->
<g id="edge63" class="edge"><title>Node650&#45;&gt;Node18</title>
<path fill="none" stroke="midnightblue" d="M755.342,-342.54C742.114,-319.902 717.091,-281.525 687,-257 682.59,-253.406 677.387,-250.302 672.219,-247.705"/>
<polygon fill="midnightblue" stroke="midnightblue" points="752.43,-344.5 760.418,-351.46 758.514,-341.038 752.43,-344.5"/>
</g>
<!-- Node650&#45;&gt;Node128 -->
<g id="edge64" class="edge"><title>Node650&#45;&gt;Node128</title>
<path fill="none" stroke="midnightblue" d="M755.869,-342.086C737.189,-305.632 696.989,-228.392 687,-219 683.079,-215.314 678.312,-212.222 673.454,-209.677"/>
<polygon fill="midnightblue" stroke="midnightblue" points="752.858,-343.884 760.525,-351.197 759.091,-340.699 752.858,-343.884"/>
</g>
<!-- Node651 -->
<g id="node35" class="node"><title>Node651</title>
<g id="a_node35"><a xlink:href="lfunc_8c.html#ad6f77f3a49d8b6199525c7edac6fd0a6" target="_top" xlink:title=" ">
<polygon fill="white" stroke="black" points="618.5,-494.5 618.5,-513.5 673.5,-513.5 673.5,-494.5 618.5,-494.5"/>
<text text-anchor="middle" x="646" y="-501.5" font-family="Helvetica,sans-Serif" font-size="10.00">callclose</text>
</a>
</g>
</g>
<!-- Node650&#45;&gt;Node651 -->
<g id="edge45" class="edge"><title>Node650&#45;&gt;Node651</title>
<path fill="none" stroke="midnightblue" d="M757.599,-379.997C745.73,-406.548 721.011,-454.872 687,-485 682.857,-488.67 677.88,-491.779 672.866,-494.352"/>
<polygon fill="midnightblue" stroke="midnightblue" points="760.876,-381.236 761.638,-370.669 754.452,-378.455 760.876,-381.236"/>
</g>
<!-- Node652 -->
<g id="node39" class="node"><title>Node652</title>
<g id="a_node39"><a xlink:href="lgc_8c.html#a929058f72c03750fa82374f6bfa639ee" target="_top" xlink:title=" ">
<polygon fill="white" stroke="black" points="618,-456.5 618,-475.5 674,-475.5 674,-456.5 618,-456.5"/>
<text text-anchor="middle" x="646" y="-463.5" font-family="Helvetica,sans-Serif" font-size="10.00">dothecall</text>
</a>
</g>
</g>
<!-- Node650&#45;&gt;Node652 -->
<g id="edge51" class="edge"><title>Node650&#45;&gt;Node652</title>
<path fill="none" stroke="midnightblue" d="M746.851,-377.525C721.822,-399.702 678.171,-438.38 657.909,-456.333"/>
<polygon fill="midnightblue" stroke="midnightblue" points="749.401,-379.941 754.564,-370.69 744.758,-374.702 749.401,-379.941"/>
</g>
<!-- Node653 -->
<g id="node41" class="node"><title>Node653</title>
<g id="a_node41"><a xlink:href="lapi_8c.html#ac3926c93fb08234f9f47e24653124910" target="_top" xlink:title=" ">
<polygon fill="white" stroke="black" points="626.5,-266.5 626.5,-285.5 665.5,-285.5 665.5,-266.5 626.5,-266.5"/>
<text text-anchor="middle" x="646" y="-273.5" font-family="Helvetica,sans-Serif" font-size="10.00">f_call</text>
</a>
</g>
</g>
<!-- Node650&#45;&gt;Node653 -->
<g id="edge53" class="edge"><title>Node650&#45;&gt;Node653</title>
<path fill="none" stroke="midnightblue" d="M743.641,-345.321C719.292,-327.855 680.698,-300.171 660.435,-285.637"/>
<polygon fill="midnightblue" stroke="midnightblue" points="741.741,-348.265 751.907,-351.249 745.821,-342.577 741.741,-348.265"/>
</g>
<!-- Node622 -->
<g id="node42" class="node"><title>Node622</title>
<g id="a_node42"><a xlink:href="ldebug_8h.html#acd5ef9f67a8e9d08f6540636fdbeafe6" target="_top" xlink:title=" ">
<polygon fill="white" stroke="black" points="606,-380.5 606,-399.5 686,-399.5 686,-380.5 606,-380.5"/>
<text text-anchor="middle" x="646" y="-387.5" font-family="Helvetica,sans-Serif" font-size="10.00">luaG_errormsg</text>
</a>
</g>
</g>
<!-- Node650&#45;&gt;Node622 -->
<g id="edge56" class="edge"><title>Node650&#45;&gt;Node622</title>
<path fill="none" stroke="midnightblue" d="M716.435,-373.007C706.319,-375.483 695.794,-378.059 686.089,-380.434"/>
<polygon fill="midnightblue" stroke="midnightblue" points="717.489,-376.353 726.37,-370.576 715.825,-369.554 717.489,-376.353"/>
</g>
<!-- Node536 -->
<g id="node36" class="node"><title>Node536</title>
<g id="a_node36"><a xlink:href="lfunc_8c.html#a4105c820bb9b1b4b4b3bd6613b0ccb05" target="_top" xlink:title=" ">
<polygon fill="white" stroke="black" points="487,-494.5 487,-513.5 558,-513.5 558,-494.5 487,-494.5"/>
<text text-anchor="middle" x="522.5" y="-501.5" font-family="Helvetica,sans-Serif" font-size="10.00">callclosemth</text>
</a>
</g>
</g>
<!-- Node651&#45;&gt;Node536 -->
<g id="edge46" class="edge"><title>Node651&#45;&gt;Node536</title>
<path fill="none" stroke="midnightblue" d="M607.904,-504C592.161,-504 573.908,-504 558.411,-504"/>
<polygon fill="midnightblue" stroke="midnightblue" points="608.336,-507.5 618.336,-504 608.336,-500.5 608.336,-507.5"/>
</g>
<!-- Node620 -->
<g id="node38" class="node"><title>Node620</title>
<g id="a_node38"><a xlink:href="lfunc_8h.html#a17478c6ccda97c8d77b4be5488c78c08" target="_top" xlink:title=" ">
<polygon fill="white" stroke="red" points="476,-532.5 476,-551.5 569,-551.5 569,-532.5 476,-532.5"/>
<text text-anchor="middle" x="522.5" y="-539.5" font-family="Helvetica,sans-Serif" font-size="10.00">luaF_newtbcupval</text>
</a>
</g>
</g>
<!-- Node651&#45;&gt;Node620 -->
<g id="edge49" class="edge"><title>Node651&#45;&gt;Node620</title>
<path fill="none" stroke="midnightblue" d="M608.508,-515.413C591.099,-520.858 570.509,-527.298 553.954,-532.475"/>
<polygon fill="midnightblue" stroke="midnightblue" points="609.837,-518.665 618.336,-512.339 607.747,-511.984 609.837,-518.665"/>
</g>
<!-- Node537 -->
<g id="node37" class="node"><title>Node537</title>
<g id="a_node37"><a xlink:href="lfunc_8h.html#add62dd4cd3a4c06e0cc322915196c5f3" target="_top" xlink:title=" ">
<polygon fill="white" stroke="red" points="361,-551.5 361,-570.5 425,-570.5 425,-551.5 361,-551.5"/>
<text text-anchor="middle" x="393" y="-558.5" font-family="Helvetica,sans-Serif" font-size="10.00">luaF_close</text>
</a>
</g>
</g>
<!-- Node536&#45;&gt;Node537 -->
<g id="edge47" class="edge"><title>Node536&#45;&gt;Node537</title>
<path fill="none" stroke="midnightblue" d="M487.927,-517.616C483.884,-519.374 479.833,-521.193 476,-523 459.636,-530.716 456.379,-534.316 440,-542 433.116,-545.229 425.53,-548.484 418.537,-551.364"/>
<polygon fill="midnightblue" stroke="midnightblue" points="489.403,-520.792 497.236,-513.657 486.664,-514.35 489.403,-520.792"/>
</g>
<!-- Node537&#45;&gt;Node10 -->
<g id="edge48" class="edge"><title>Node537&#45;&gt;Node10</title>
<path fill="none" stroke="midnightblue" d="M427.947,-574.598C432.033,-576.359 436.128,-578.183 440,-580 456.379,-587.684 458.71,-593.674 476,-599 548.235,-621.249 569.416,-618 645,-618 767.5,-618 767.5,-618 767.5,-618 820.839,-618 844.298,-632.257 886,-599 942.425,-554.001 955.491,-458.581 958.289,-427.796"/>
<polygon fill="midnightblue" stroke="midnightblue" points="429.111,-571.29 418.537,-570.636 426.395,-577.742 429.111,-571.29"/>
</g>
<!-- Node620&#45;&gt;Node10 -->
<g id="edge50" class="edge"><title>Node620&#45;&gt;Node10</title>
<path fill="none" stroke="midnightblue" d="M579.194,-539.029C611.105,-536.46 651.702,-531.715 687,-523 785.04,-498.795 895.462,-448.549 939.428,-427.549"/>
<polygon fill="midnightblue" stroke="midnightblue" points="578.864,-535.544 569.157,-539.789 579.393,-542.524 578.864,-535.544"/>
</g>
<!-- Node545 -->
<g id="node40" class="node"><title>Node545</title>
<g id="a_node40"><a xlink:href="lgc_8c.html#aaf7c6e9e6a93da6bb64ffe7654668ba3" target="_top" xlink:title=" ">
<polygon fill="white" stroke="red" points="500.5,-456.5 500.5,-475.5 544.5,-475.5 544.5,-456.5 500.5,-456.5"/>
<text text-anchor="middle" x="522.5" y="-463.5" font-family="Helvetica,sans-Serif" font-size="10.00">GCTM</text>
</a>
</g>
</g>
<!-- Node652&#45;&gt;Node545 -->
<g id="edge52" class="edge"><title>Node652&#45;&gt;Node545</title>
<path fill="none" stroke="midnightblue" d="M607.665,-466C586.964,-466 561.98,-466 544.635,-466"/>
<polygon fill="midnightblue" stroke="midnightblue" points="607.733,-469.5 617.733,-466 607.733,-462.5 607.733,-469.5"/>
</g>
<!-- Node653&#45;&gt;Node15 -->
<g id="edge54" class="edge"><title>Node653&#45;&gt;Node15</title>
<path fill="none" stroke="midnightblue" d="M617.033,-264.582C612.826,-262.343 608.673,-259.807 605,-257 571.505,-231.4 541.972,-190.043 529.632,-171.513"/>
<polygon fill="midnightblue" stroke="midnightblue" points="615.633,-267.792 626.16,-268.994 618.68,-261.49 615.633,-267.792"/>
</g>
<!-- Node623 -->
<g id="node43" class="node"><title>Node623</title>
<g id="a_node43"><a xlink:href="lua_8h.html#aae6c05ddea7bd110a3e84595ef92e601" target="_top" xlink:title=" ">
<polygon fill="white" stroke="red" points="495.5,-418.5 495.5,-437.5 549.5,-437.5 549.5,-418.5 495.5,-418.5"/>
<text text-anchor="middle" x="522.5" y="-425.5" font-family="Helvetica,sans-Serif" font-size="10.00">lua_error</text>
</a>
</g>
</g>
<!-- Node622&#45;&gt;Node623 -->
<g id="edge57" class="edge"><title>Node622&#45;&gt;Node623</title>
<path fill="none" stroke="midnightblue" d="M604.605,-402.634C586.489,-408.3 565.642,-414.82 549.621,-419.831"/>
<polygon fill="midnightblue" stroke="midnightblue" points="605.841,-405.914 614.34,-399.589 603.752,-399.234 605.841,-405.914"/>
</g>
<!-- Node331 -->
<g id="node45" class="node"><title>Node331</title>
<g id="a_node45"><a xlink:href="ldebug_8h.html#a6f27f64630215e18a11be9ba21d3c4bf" target="_top" xlink:title=" ">
<polygon fill="white" stroke="red" points="485,-266.5 485,-285.5 560,-285.5 560,-266.5 485,-266.5"/>
<text text-anchor="middle" x="522.5" y="-273.5" font-family="Helvetica,sans-Serif" font-size="10.00">luaG_runerror</text>
</a>
</g>
</g>
<!-- Node622&#45;&gt;Node331 -->
<g id="edge60" class="edge"><title>Node622&#45;&gt;Node331</title>
<path fill="none" stroke="midnightblue" d="M611.64,-375.513C609.324,-374.099 607.084,-372.593 605,-371 587.735,-357.804 547.703,-307.243 531.015,-285.755"/>
<polygon fill="midnightblue" stroke="midnightblue" points="610.332,-378.786 620.788,-380.498 613.682,-372.64 610.332,-378.786"/>
</g>
<!-- Node623&#45;&gt;Node14 -->
<g id="edge59" class="edge"><title>Node623&#45;&gt;Node14</title>
<path fill="none" stroke="midnightblue" d="M485.562,-417.289C466.494,-411.606 443.296,-404.692 425.022,-399.246"/>
<polygon fill="midnightblue" stroke="midnightblue" points="484.808,-420.716 495.391,-420.218 486.807,-414.008 484.808,-420.716"/>
</g>
<!-- Node250 -->
<g id="node44" class="node"><title>Node250</title>
<g id="a_node44"><a xlink:href="lcorolib_8c.html#a777abb20385a69ce4787f72bd90375a7" target="_top" xlink:title=" ">
<polygon fill="white" stroke="red" points="354.5,-475.5 354.5,-494.5 431.5,-494.5 431.5,-475.5 354.5,-475.5"/>
<text text-anchor="middle" x="393" y="-482.5" font-family="Helvetica,sans-Serif" font-size="10.00">luaB_auxwrap</text>
</a>
</g>
</g>
<!-- Node623&#45;&gt;Node250 -->
<g id="edge58" class="edge"><title>Node623&#45;&gt;Node250</title>
<path fill="none" stroke="midnightblue" d="M488.292,-441.693C484.143,-443.455 479.966,-445.254 476,-447 454.747,-456.358 430.661,-467.596 414.121,-475.413"/>
<polygon fill="midnightblue" stroke="midnightblue" points="489.95,-444.793 497.811,-437.69 487.236,-438.34 489.95,-444.793"/>
</g>
<!-- Node331&#45;&gt;Node19 -->
<g id="edge62" class="edge"><title>Node331&#45;&gt;Node19</title>
<path fill="none" stroke="midnightblue" d="M479.441,-263.465C462.096,-258.295 442.319,-252.401 426.163,-247.586"/>
<polygon fill="midnightblue" stroke="midnightblue" points="478.743,-266.909 489.326,-266.411 480.743,-260.2 478.743,-266.909"/>
</g>
<!-- Node331&#45;&gt;Node400 -->
<g id="edge61" class="edge"><title>Node331&#45;&gt;Node400</title>
<path fill="none" stroke="midnightblue" d="M479.441,-288.535C462.096,-293.705 442.319,-299.599 426.163,-304.414"/>
<polygon fill="midnightblue" stroke="midnightblue" points="480.743,-291.8 489.326,-285.589 478.743,-285.091 480.743,-291.8"/>
</g>
<!-- Node303 -->
<g id="node47" class="node"><title>Node303</title>
<g id="a_node47"><a xlink:href="lua_8h.html#a534ce5b580fb7c5391f931b272eff0a0" target="_top" xlink:title=" ">
<polygon fill="white" stroke="black" points="612.5,-570.5 612.5,-589.5 679.5,-589.5 679.5,-570.5 612.5,-570.5"/>
<text text-anchor="middle" x="646" y="-577.5" font-family="Helvetica,sans-Serif" font-size="10.00">lua_resume</text>
</a>
</g>
</g>
<!-- Node306&#45;&gt;Node303 -->
<g id="edge66" class="edge"><title>Node306&#45;&gt;Node303</title>
<path fill="none" stroke="midnightblue" d="M732.087,-552.715C714.763,-558.27 693.774,-565.001 676.977,-570.387"/>
<polygon fill="midnightblue" stroke="midnightblue" points="733.351,-555.985 741.805,-549.599 731.213,-549.319 733.351,-555.985"/>
</g>
<!-- Node304 -->
<g id="node48" class="node"><title>Node304</title>
<g id="a_node48"><a xlink:href="lcorolib_8c.html#aaa37b3a30ab0c6daef7fae8951fef3e7" target="_top" xlink:title=" ">
<polygon fill="white" stroke="black" points="490,-570.5 490,-589.5 555,-589.5 555,-570.5 490,-570.5"/>
<text text-anchor="middle" x="522.5" y="-577.5" font-family="Helvetica,sans-Serif" font-size="10.00">auxresume</text>
</a>
</g>
</g>
<!-- Node303&#45;&gt;Node304 -->
<g id="edge67" class="edge"><title>Node303&#45;&gt;Node304</title>
<path fill="none" stroke="midnightblue" d="M602.098,-580C586.692,-580 569.605,-580 555.309,-580"/>
<polygon fill="midnightblue" stroke="midnightblue" points="602.44,-583.5 612.44,-580 602.44,-576.5 602.44,-583.5"/>
</g>
<!-- Node304&#45;&gt;Node250 -->
<g id="edge68" class="edge"><title>Node304&#45;&gt;Node250</title>
<path fill="none" stroke="midnightblue" d="M482.259,-565.562C480.053,-564.162 477.945,-562.644 476,-561 453.113,-541.662 462.925,-523.293 440,-504 435.505,-500.217 430.152,-497.103 424.714,-494.569"/>
<polygon fill="midnightblue" stroke="midnightblue" points="480.664,-568.678 491.12,-570.388 484.012,-562.531 480.664,-568.678"/>
</g>
<!-- Node305 -->
<g id="node49" class="node"><title>Node305</title>
<g id="a_node49"><a xlink:href="lcorolib_8c.html#a76f5d80387eeb1c7d31eb5f9cb6c9392" target="_top" xlink:title=" ">
<polygon fill="white" stroke="black" points="351,-513.5 351,-532.5 435,-532.5 435,-513.5 351,-513.5"/>
<text text-anchor="middle" x="393" y="-520.5" font-family="Helvetica,sans-Serif" font-size="10.00">luaB_coresume</text>
</a>
</g>
</g>
<!-- Node304&#45;&gt;Node305 -->
<g id="edge69" class="edge"><title>Node304&#45;&gt;Node305</title>
<path fill="none" stroke="midnightblue" d="M487.927,-566.384C483.884,-564.626 479.833,-562.807 476,-561 459.636,-553.284 456.379,-549.684 440,-542 433.116,-538.771 425.53,-535.516 418.537,-532.636"/>
<polygon fill="midnightblue" stroke="midnightblue" points="486.664,-569.65 497.236,-570.343 489.403,-563.208 486.664,-569.65"/>
</g>
<!-- Node302&#45;&gt;Node306 -->
<g id="edge73" class="edge"><title>Node302&#45;&gt;Node306</title>
<path fill="none" stroke="midnightblue" d="M836.327,-568.825C821.973,-563.23 804.804,-556.539 791.205,-551.239"/>
<polygon fill="midnightblue" stroke="midnightblue" points="835.149,-572.122 845.737,-572.492 837.691,-565.6 835.149,-572.122"/>
</g>
<!-- Node302&#45;&gt;Node303 -->
<g id="edge72" class="edge"><title>Node302&#45;&gt;Node303</title>
<path fill="none" stroke="midnightblue" d="M835.58,-580C794.937,-580 721.853,-580 679.594,-580"/>
<polygon fill="midnightblue" stroke="midnightblue" points="835.654,-583.5 845.654,-580 835.654,-576.5 835.654,-583.5"/>
</g>
</g>
</svg>
