<?xml version="1.0" encoding="UTF-8" standalone="no"?>
<!DOCTYPE svg PUBLIC "-//W3C//DTD SVG 1.1//EN"
 "http://www.w3.org/Graphics/SVG/1.1/DTD/svg11.dtd">
<!-- Generated by graphviz version 2.38.0 (20140413.2041)
 -->
<!-- Title: luaV_finishset Pages: 1 -->
<svg width="714pt" height="1491pt"
 viewBox="0.00 0.00 714.00 1491.00" xmlns="http://www.w3.org/2000/svg" xmlns:xlink="http://www.w3.org/1999/xlink">
<g id="graph0" class="graph" transform="scale(1 1) rotate(0) translate(4 1487)">
<title>luaV_finishset</title>
<polygon fill="white" stroke="none" points="-4,4 -4,-1487 710,-1487 710,4 -4,4"/>
<!-- Node1 -->
<g id="node1" class="node"><title>Node1</title>
<g id="a_node1"><a xlink:title=" ">
<polygon fill="#bfbfbf" stroke="black" points="629,-209.5 629,-228.5 706,-228.5 706,-209.5 629,-209.5"/>
<text text-anchor="middle" x="667.5" y="-216.5" font-family="Helvetica,sans-Serif" font-size="10.00">luaV_finishset</text>
</a>
</g>
</g>
<!-- Node2 -->
<g id="node2" class="node"><title>Node2</title>
<g id="a_node2"><a xlink:href="lapi_8c.html#a0667fbf88666853554967226d9a3df4d" target="_top" xlink:title=" ">
<polygon fill="white" stroke="black" points="526.5,-779.5 526.5,-798.5 583.5,-798.5 583.5,-779.5 526.5,-779.5"/>
<text text-anchor="middle" x="555" y="-786.5" font-family="Helvetica,sans-Serif" font-size="10.00">auxsetstr</text>
</a>
</g>
</g>
<!-- Node1&#45;&gt;Node2 -->
<g id="edge1" class="edge"><title>Node1&#45;&gt;Node2</title>
<path fill="none" stroke="midnightblue" d="M662.656,-238.827C644.848,-330.691 570.681,-713.269 557.885,-779.279"/>
<polygon fill="midnightblue" stroke="midnightblue" points="666.115,-239.377 664.582,-228.893 659.243,-238.045 666.115,-239.377"/>
</g>
<!-- Node105 -->
<g id="node36" class="node"><title>Node105</title>
<g id="a_node36"><a xlink:href="lua_8h.html#a12ba17fc94b8cf0122aa367170688453" target="_top" xlink:title=" ">
<polygon fill="white" stroke="black" points="530,-228.5 530,-247.5 580,-247.5 580,-228.5 530,-228.5"/>
<text text-anchor="middle" x="555" y="-235.5" font-family="Helvetica,sans-Serif" font-size="10.00">lua_seti</text>
</a>
</g>
</g>
<!-- Node1&#45;&gt;Node105 -->
<g id="edge53" class="edge"><title>Node1&#45;&gt;Node105</title>
<path fill="none" stroke="midnightblue" d="M618.729,-227.214C605.364,-229.512 591.403,-231.913 580.055,-233.864"/>
<polygon fill="midnightblue" stroke="midnightblue" points="619.519,-230.63 628.781,-225.486 618.333,-223.731 619.519,-230.63"/>
</g>
<!-- Node113 -->
<g id="node43" class="node"><title>Node113</title>
<g id="a_node43"><a xlink:href="lua_8h.html#aeda173d104e3a566ccaac89a1f64a5eb" target="_top" xlink:title=" ">
<polygon fill="white" stroke="black" points="520.5,-190.5 520.5,-209.5 589.5,-209.5 589.5,-190.5 520.5,-190.5"/>
<text text-anchor="middle" x="555" y="-197.5" font-family="Helvetica,sans-Serif" font-size="10.00">lua_settable</text>
</a>
</g>
</g>
<!-- Node1&#45;&gt;Node113 -->
<g id="edge62" class="edge"><title>Node1&#45;&gt;Node113</title>
<path fill="none" stroke="midnightblue" d="M618.793,-210.797C609.048,-209.121 598.984,-207.391 589.845,-205.819"/>
<polygon fill="midnightblue" stroke="midnightblue" points="618.333,-214.269 628.781,-212.514 619.519,-207.37 618.333,-214.269"/>
</g>
<!-- Node114 -->
<g id="node44" class="node"><title>Node114</title>
<g id="a_node44"><a xlink:href="lvm_8h.html#ac430e93ed874f6ab2449d7a16aa6b62f" target="_top" xlink:title=" ">
<polygon fill="white" stroke="black" points="517,-76.5 517,-95.5 593,-95.5 593,-76.5 517,-76.5"/>
<text text-anchor="middle" x="555" y="-83.5" font-family="Helvetica,sans-Serif" font-size="10.00">luaV_execute</text>
</a>
</g>
</g>
<!-- Node1&#45;&gt;Node114 -->
<g id="edge63" class="edge"><title>Node1&#45;&gt;Node114</title>
<path fill="none" stroke="midnightblue" d="M652.024,-201.577C628.512,-173.277 582.782,-118.235 564.173,-95.8372"/>
<polygon fill="midnightblue" stroke="midnightblue" points="649.471,-203.98 658.553,-209.435 654.855,-199.507 649.471,-203.98"/>
</g>
<!-- Node3 -->
<g id="node3" class="node"><title>Node3</title>
<g id="a_node3"><a xlink:href="lua_8h.html#a9580a15c141cbe4bf2a63fea625c3878" target="_top" xlink:title=" ">
<polygon fill="white" stroke="black" points="411.5,-779.5 411.5,-798.5 476.5,-798.5 476.5,-779.5 411.5,-779.5"/>
<text text-anchor="middle" x="444" y="-786.5" font-family="Helvetica,sans-Serif" font-size="10.00">lua_setfield</text>
</a>
</g>
</g>
<!-- Node2&#45;&gt;Node3 -->
<g id="edge2" class="edge"><title>Node2&#45;&gt;Node3</title>
<path fill="none" stroke="midnightblue" d="M516.484,-789C503.543,-789 489.182,-789 476.747,-789"/>
<polygon fill="midnightblue" stroke="midnightblue" points="516.495,-792.5 526.495,-789 516.495,-785.5 516.495,-792.5"/>
</g>
<!-- Node100 -->
<g id="node31" class="node"><title>Node100</title>
<g id="a_node31"><a xlink:href="lua_8h.html#a8da855aa334f38b822cbaceda0d633be" target="_top" xlink:title=" ">
<polygon fill="white" stroke="black" points="407,-1368.5 407,-1387.5 481,-1387.5 481,-1368.5 407,-1368.5"/>
<text text-anchor="middle" x="444" y="-1375.5" font-family="Helvetica,sans-Serif" font-size="10.00">lua_setglobal</text>
</a>
</g>
</g>
<!-- Node2&#45;&gt;Node100 -->
<g id="edge46" class="edge"><title>Node2&#45;&gt;Node100</title>
<path fill="none" stroke="midnightblue" d="M550.378,-808.571C533.083,-902.027 459.226,-1301.13 446.783,-1368.36"/>
<polygon fill="midnightblue" stroke="midnightblue" points="553.821,-809.202 552.199,-798.732 546.938,-807.928 553.821,-809.202"/>
</g>
<!-- Node4 -->
<g id="node4" class="node"><title>Node4</title>
<g id="a_node4"><a xlink:href="loadlib_8c.html#af46f12337af79b3083dc93990be408f2" target="_top" xlink:title=" ">
<polygon fill="white" stroke="red" points="293,-969.5 293,-988.5 349,-988.5 349,-969.5 293,-969.5"/>
<text text-anchor="middle" x="321" y="-976.5" font-family="Helvetica,sans-Serif" font-size="10.00">addtoclib</text>
</a>
</g>
</g>
<!-- Node3&#45;&gt;Node4 -->
<g id="edge3" class="edge"><title>Node3&#45;&gt;Node4</title>
<path fill="none" stroke="midnightblue" d="M439.172,-808.512C431.637,-842.286 411.93,-912.134 371,-955 364.982,-961.303 356.961,-966.175 349.154,-969.831"/>
<polygon fill="midnightblue" stroke="midnightblue" points="442.638,-809.038 441.274,-798.532 435.788,-807.596 442.638,-809.038"/>
</g>
<!-- Node12 -->
<g id="node5" class="node"><title>Node12</title>
<g id="a_node5"><a xlink:href="loadlib_8c.html#a5988b4ef518a60291ed34e836f549b34" target="_top" xlink:title=" ">
<polygon fill="white" stroke="black" points="139,-817.5 139,-836.5 224,-836.5 224,-817.5 139,-817.5"/>
<text text-anchor="middle" x="181.5" y="-824.5" font-family="Helvetica,sans-Serif" font-size="10.00">createclibstable</text>
</a>
</g>
</g>
<!-- Node3&#45;&gt;Node12 -->
<g id="edge4" class="edge"><title>Node3&#45;&gt;Node12</title>
<path fill="none" stroke="midnightblue" d="M401.176,-797.612C391.303,-799.512 380.798,-801.425 371,-803 320.676,-811.087 262.437,-818.155 224.167,-822.487"/>
<polygon fill="midnightblue" stroke="midnightblue" points="402.04,-801.01 411.18,-795.652 400.694,-794.14 402.04,-801.01"/>
</g>
<!-- Node10 -->
<g id="node6" class="node"><title>Node10</title>
<g id="a_node6"><a xlink:href="lualib_8h.html#a05e0befc0439f926b6152129ab4f8dea" target="_top" xlink:title=" ">
<polygon fill="white" stroke="black" points="0,-798.5 0,-817.5 92,-817.5 92,-798.5 0,-798.5"/>
<text text-anchor="middle" x="46" y="-805.5" font-family="Helvetica,sans-Serif" font-size="10.00">luaopen_package</text>
</a>
</g>
</g>
<!-- Node3&#45;&gt;Node10 -->
<g id="edge30" class="edge"><title>Node3&#45;&gt;Node10</title>
<path fill="none" stroke="midnightblue" d="M401.251,-791.003C326.334,-794.598 169.691,-802.113 92.2838,-805.827"/>
<polygon fill="midnightblue" stroke="midnightblue" points="401.442,-794.498 411.263,-790.523 401.107,-787.506 401.442,-794.498"/>
</g>
<!-- Node13 -->
<g id="node7" class="node"><title>Node13</title>
<g id="a_node7"><a xlink:href="liolib_8c.html#a2edb7e84ca2f51dafb5d77b9c81a804c" target="_top" xlink:title=" ">
<polygon fill="white" stroke="red" points="149,-703.5 149,-722.5 214,-722.5 214,-703.5 149,-703.5"/>
<text text-anchor="middle" x="181.5" y="-710.5" font-family="Helvetica,sans-Serif" font-size="10.00">createmeta</text>
</a>
</g>
</g>
<!-- Node3&#45;&gt;Node13 -->
<g id="edge6" class="edge"><title>Node3&#45;&gt;Node13</title>
<path fill="none" stroke="midnightblue" d="M427.263,-772.072C413.738,-758.719 392.986,-740.91 371,-732 319.026,-710.936 252.669,-709.502 214.142,-710.894"/>
<polygon fill="midnightblue" stroke="midnightblue" points="424.853,-774.614 434.346,-779.318 429.859,-769.721 424.853,-774.614"/>
</g>
<!-- Node15 -->
<g id="node8" class="node"><title>Node15</title>
<g id="a_node8"><a xlink:href="lstrlib_8c.html#a16d034da6b46e6beae228472f26ec07b" target="_top" xlink:title=" ">
<polygon fill="white" stroke="red" points="138.5,-589.5 138.5,-608.5 224.5,-608.5 224.5,-589.5 138.5,-589.5"/>
<text text-anchor="middle" x="181.5" y="-596.5" font-family="Helvetica,sans-Serif" font-size="10.00">createmetatable</text>
</a>
</g>
</g>
<!-- Node3&#45;&gt;Node15 -->
<g id="edge7" class="edge"><title>Node3&#45;&gt;Node15</title>
<path fill="none" stroke="midnightblue" d="M441.024,-768.769C436.255,-731.995 420.559,-654.619 371,-618 328.807,-586.823 266.017,-587.12 224.675,-591.774"/>
<polygon fill="midnightblue" stroke="midnightblue" points="437.601,-769.642 442.218,-779.178 444.556,-768.845 437.601,-769.642"/>
</g>
<!-- Node9 -->
<g id="node9" class="node"><title>Node9</title>
<g id="a_node9"><a xlink:href="loadlib_8c.html#a8fc66c8b852ee2960dc20797521d1d9e" target="_top" xlink:title=" ">
<polygon fill="white" stroke="black" points="128,-665.5 128,-684.5 235,-684.5 235,-665.5 128,-665.5"/>
<text text-anchor="middle" x="181.5" y="-672.5" font-family="Helvetica,sans-Serif" font-size="10.00">createsearcherstable</text>
</a>
</g>
</g>
<!-- Node3&#45;&gt;Node9 -->
<g id="edge8" class="edge"><title>Node3&#45;&gt;Node9</title>
<path fill="none" stroke="midnightblue" d="M432.162,-770.496C419.885,-751.322 398.028,-722.09 371,-707 329.265,-683.699 274.839,-676.487 235.205,-674.636"/>
<polygon fill="midnightblue" stroke="midnightblue" points="429.32,-772.556 437.542,-779.237 435.281,-768.886 429.32,-772.556"/>
</g>
<!-- Node17 -->
<g id="node10" class="node"><title>Node17</title>
<g id="a_node10"><a xlink:href="liolib_8c.html#a0a80ad2f9dbb3b7238efae7738bb7569" target="_top" xlink:title=" ">
<polygon fill="white" stroke="red" points="286.5,-475.5 286.5,-494.5 355.5,-494.5 355.5,-475.5 286.5,-475.5"/>
<text text-anchor="middle" x="321" y="-482.5" font-family="Helvetica,sans-Serif" font-size="10.00">createstdfile</text>
</a>
</g>
</g>
<!-- Node3&#45;&gt;Node17 -->
<g id="edge10" class="edge"><title>Node3&#45;&gt;Node17</title>
<path fill="none" stroke="midnightblue" d="M443.811,-769.27C444.808,-718.633 440.479,-582.553 371,-504 366.829,-499.284 361.347,-495.73 355.563,-493.054"/>
<polygon fill="midnightblue" stroke="midnightblue" points="440.307,-769.381 443.51,-779.48 447.304,-769.588 440.307,-769.381"/>
</g>
<!-- Node18 -->
<g id="node11" class="node"><title>Node18</title>
<g id="a_node11"><a xlink:href="ldblib_8c.html#a4eb57e66c2efb2d31c9b9e1b01d27e13" target="_top" xlink:title=" ">
<polygon fill="white" stroke="black" points="151,-399.5 151,-418.5 212,-418.5 212,-399.5 151,-399.5"/>
<text text-anchor="middle" x="181.5" y="-406.5" font-family="Helvetica,sans-Serif" font-size="10.00">db_getinfo</text>
</a>
</g>
</g>
<!-- Node3&#45;&gt;Node18 -->
<g id="edge11" class="edge"><title>Node3&#45;&gt;Node18</title>
<path fill="none" stroke="midnightblue" d="M442.043,-769.168C438.298,-700.494 422.213,-474.499 371,-428 327.654,-388.644 253.454,-394.832 212.262,-402.256"/>
<polygon fill="midnightblue" stroke="midnightblue" points="438.563,-769.635 442.574,-779.442 445.554,-769.274 438.563,-769.635"/>
</g>
<!-- Node19 -->
<g id="node12" class="node"><title>Node19</title>
<g id="a_node12"><a xlink:href="ldblib_8c.html#aa0c362d361f8f9bd8a002c34c393e2b0" target="_top" xlink:title=" ">
<polygon fill="white" stroke="black" points="148,-893.5 148,-912.5 215,-912.5 215,-893.5 148,-893.5"/>
<text text-anchor="middle" x="181.5" y="-900.5" font-family="Helvetica,sans-Serif" font-size="10.00">db_sethook</text>
</a>
</g>
</g>
<!-- Node3&#45;&gt;Node19 -->
<g id="edge12" class="edge"><title>Node3&#45;&gt;Node19</title>
<path fill="none" stroke="midnightblue" d="M434.633,-807.802C423.577,-830.183 401.832,-866.699 371,-884 322.094,-911.443 254.718,-910.759 215.168,-907.241"/>
<polygon fill="midnightblue" stroke="midnightblue" points="437.857,-809.171 438.955,-798.633 431.525,-806.186 437.857,-809.171"/>
</g>
<!-- Node20 -->
<g id="node13" class="node"><title>Node20</title>
<g id="a_node13"><a xlink:href="liolib_8c.html#aae942558ff528b4e1a483297c64e6886" target="_top" xlink:title=" ">
<polygon fill="white" stroke="red" points="297.5,-1197.5 297.5,-1216.5 344.5,-1216.5 344.5,-1197.5 297.5,-1197.5"/>
<text text-anchor="middle" x="321" y="-1204.5" font-family="Helvetica,sans-Serif" font-size="10.00">g_iofile</text>
</a>
</g>
</g>
<!-- Node3&#45;&gt;Node20 -->
<g id="edge13" class="edge"><title>Node3&#45;&gt;Node20</title>
<path fill="none" stroke="midnightblue" d="M441.931,-808.98C437.684,-881.383 419.792,-1128.85 371,-1188 364.439,-1195.95 354.124,-1200.59 344.646,-1203.28"/>
<polygon fill="midnightblue" stroke="midnightblue" points="445.449,-808.76 442.517,-798.579 438.46,-808.366 445.449,-808.76"/>
</g>
<!-- Node23 -->
<g id="node14" class="node"><title>Node23</title>
<g id="a_node14"><a xlink:href="loadlib_8c.html#a136874f5faa236dc52fb50109281e157" target="_top" xlink:title=" ">
<polygon fill="white" stroke="black" points="293,-1159.5 293,-1178.5 349,-1178.5 349,-1159.5 293,-1159.5"/>
<text text-anchor="middle" x="321" y="-1166.5" font-family="Helvetica,sans-Serif" font-size="10.00">ll_require</text>
</a>
</g>
</g>
<!-- Node3&#45;&gt;Node23 -->
<g id="edge14" class="edge"><title>Node3&#45;&gt;Node23</title>
<path fill="none" stroke="midnightblue" d="M441.528,-808.812C436.135,-876.479 415.406,-1097.16 371,-1150 365.423,-1156.64 357.238,-1160.96 349.148,-1163.78"/>
<polygon fill="midnightblue" stroke="midnightblue" points="445.032,-808.907 442.312,-798.667 438.052,-808.368 445.032,-808.907"/>
</g>
<!-- Node24 -->
<g id="node15" class="node"><title>Node24</title>
<g id="a_node15"><a xlink:href="lauxlib_8h.html#a2605da7ef3a12d7e9cfa85939245f941" target="_top" xlink:title=" ">
<polygon fill="white" stroke="black" points="276,-855.5 276,-874.5 366,-874.5 366,-855.5 276,-855.5"/>
<text text-anchor="middle" x="321" y="-862.5" font-family="Helvetica,sans-Serif" font-size="10.00">luaL_getsubtable</text>
</a>
</g>
</g>
<!-- Node3&#45;&gt;Node24 -->
<g id="edge15" class="edge"><title>Node3&#45;&gt;Node24</title>
<path fill="none" stroke="midnightblue" d="M422.931,-804.911C408.826,-815.735 389.285,-830.028 371,-841 362.228,-846.264 352.136,-851.358 343.4,-855.488"/>
<polygon fill="midnightblue" stroke="midnightblue" points="425.2,-807.58 430.95,-798.681 420.906,-802.052 425.2,-807.58"/>
</g>
<!-- Node25 -->
<g id="node16" class="node"><title>Node25</title>
<g id="a_node16"><a xlink:href="lauxlib_8h.html#af6e3e3ca0a445a50f34cfc26f89c7d61" target="_top" xlink:title=" ">
<polygon fill="white" stroke="red" points="146,-931.5 146,-950.5 217,-950.5 217,-931.5 146,-931.5"/>
<text text-anchor="middle" x="181.5" y="-938.5" font-family="Helvetica,sans-Serif" font-size="10.00">luaL_requiref</text>
</a>
</g>
</g>
<!-- Node3&#45;&gt;Node25 -->
<g id="edge22" class="edge"><title>Node3&#45;&gt;Node25</title>
<path fill="none" stroke="midnightblue" d="M437.221,-808.467C427.997,-835.896 407.193,-885.318 371,-910 324.831,-941.486 257.775,-944.954 217.33,-943.646"/>
<polygon fill="midnightblue" stroke="midnightblue" points="440.595,-809.407 440.291,-798.816 433.924,-807.285 440.595,-809.407"/>
</g>
<!-- Node29 -->
<g id="node17" class="node"><title>Node29</title>
<g id="a_node17"><a xlink:href="lauxlib_8h.html#a0e9e032108e7aedc05836b0c1d72a0fa" target="_top" xlink:title=" ">
<polygon fill="white" stroke="red" points="271,-741.5 271,-760.5 371,-760.5 371,-741.5 271,-741.5"/>
<text text-anchor="middle" x="321" y="-748.5" font-family="Helvetica,sans-Serif" font-size="10.00">luaL_newmetatable</text>
</a>
</g>
</g>
<!-- Node3&#45;&gt;Node29 -->
<g id="edge20" class="edge"><title>Node3&#45;&gt;Node29</title>
<path fill="none" stroke="midnightblue" d="M402.623,-776.32C386.274,-771.185 367.712,-765.356 352.524,-760.586"/>
<polygon fill="midnightblue" stroke="midnightblue" points="401.877,-779.754 412.467,-779.411 403.975,-773.076 401.877,-779.754"/>
</g>
<!-- Node86 -->
<g id="node18" class="node"><title>Node86</title>
<g id="a_node18"><a xlink:href="lauxlib_8h.html#a8750009b9bbc508e4c3818ebd15b4e14" target="_top" xlink:title=" ">
<polygon fill="white" stroke="red" points="282.5,-627.5 282.5,-646.5 359.5,-646.5 359.5,-627.5 282.5,-627.5"/>
<text text-anchor="middle" x="321" y="-634.5" font-family="Helvetica,sans-Serif" font-size="10.00">luaL_setfuncs</text>
</a>
</g>
</g>
<!-- Node3&#45;&gt;Node86 -->
<g id="edge23" class="edge"><title>Node3&#45;&gt;Node86</title>
<path fill="none" stroke="midnightblue" d="M436.418,-769.828C426.211,-742.551 404.216,-692.377 371,-661 364.665,-655.016 356.555,-650.233 348.764,-646.561"/>
<polygon fill="midnightblue" stroke="midnightblue" points="433.177,-771.16 439.858,-779.383 439.763,-768.788 433.177,-771.16"/>
</g>
<!-- Node87 -->
<g id="node19" class="node"><title>Node87</title>
<g id="a_node19"><a xlink:href="lualib_8h.html#a1aebe7162861d1f3fe9c0d6d269031d4" target="_top" xlink:title=" ">
<polygon fill="white" stroke="black" points="143,-551.5 143,-570.5 220,-570.5 220,-551.5 143,-551.5"/>
<text text-anchor="middle" x="181.5" y="-558.5" font-family="Helvetica,sans-Serif" font-size="10.00">luaopen_base</text>
</a>
</g>
</g>
<!-- Node3&#45;&gt;Node87 -->
<g id="edge28" class="edge"><title>Node3&#45;&gt;Node87</title>
<path fill="none" stroke="midnightblue" d="M442.479,-769.169C440.227,-727.65 428.703,-631.573 371,-585 328.386,-550.605 261.778,-550.725 220.211,-555.06"/>
<polygon fill="midnightblue" stroke="midnightblue" points="438.99,-769.5 442.9,-779.347 445.984,-769.211 438.99,-769.5"/>
</g>
<!-- Node89 -->
<g id="node20" class="node"><title>Node89</title>
<g id="a_node20"><a xlink:href="lualib_8h.html#ad9a992586e14f1dd04f4983b8740605a" target="_top" xlink:title=" ">
<polygon fill="white" stroke="black" points="282.5,-1121.5 282.5,-1140.5 359.5,-1140.5 359.5,-1121.5 282.5,-1121.5"/>
<text text-anchor="middle" x="321" y="-1128.5" font-family="Helvetica,sans-Serif" font-size="10.00">luaopen_math</text>
</a>
</g>
</g>
<!-- Node3&#45;&gt;Node89 -->
<g id="edge29" class="edge"><title>Node3&#45;&gt;Node89</title>
<path fill="none" stroke="midnightblue" d="M441.03,-808.73C434.397,-871.541 411.02,-1065.45 371,-1112 367.669,-1115.87 363.451,-1118.96 358.892,-1121.42"/>
<polygon fill="midnightblue" stroke="midnightblue" points="444.531,-808.898 442.074,-798.592 437.568,-808.181 444.531,-808.898"/>
</g>
<!-- Node90 -->
<g id="node21" class="node"><title>Node90</title>
<g id="a_node21"><a xlink:href="lutf8lib_8c.html#ae1247f71bc4b3f3be7da9c9d5c7668b1" target="_top" xlink:title=" ">
<polygon fill="white" stroke="black" points="285.5,-1083.5 285.5,-1102.5 356.5,-1102.5 356.5,-1083.5 285.5,-1083.5"/>
<text text-anchor="middle" x="321" y="-1090.5" font-family="Helvetica,sans-Serif" font-size="10.00">luaopen_utf8</text>
</a>
</g>
</g>
<!-- Node3&#45;&gt;Node90 -->
<g id="edge31" class="edge"><title>Node3&#45;&gt;Node90</title>
<path fill="none" stroke="midnightblue" d="M443.811,-808.73C444.808,-859.367 440.479,-995.447 371,-1074 367.071,-1078.44 361.978,-1081.85 356.566,-1084.47"/>
<polygon fill="midnightblue" stroke="midnightblue" points="447.304,-808.412 443.51,-798.52 440.307,-808.619 447.304,-808.412"/>
</g>
<!-- Node27 -->
<g id="node22" class="node"><title>Node27</title>
<g id="a_node22"><a xlink:href="lua_8c.html#aa0f8bc082ef913cb0a4df437bf5f5019" target="_top" xlink:title=" ">
<polygon fill="white" stroke="red" points="160,-1330.5 160,-1349.5 203,-1349.5 203,-1330.5 160,-1330.5"/>
<text text-anchor="middle" x="181.5" y="-1337.5" font-family="Helvetica,sans-Serif" font-size="10.00">pmain</text>
</a>
</g>
</g>
<!-- Node3&#45;&gt;Node27 -->
<g id="edge32" class="edge"><title>Node3&#45;&gt;Node27</title>
<path fill="none" stroke="midnightblue" d="M442.299,-808.795C439.16,-887.49 424.125,-1177.37 371,-1249 329.111,-1305.48 242.852,-1328.57 203.23,-1336.48"/>
<polygon fill="midnightblue" stroke="midnightblue" points="445.798,-808.894 442.679,-798.768 438.803,-808.628 445.798,-808.894"/>
</g>
<!-- Node91 -->
<g id="node23" class="node"><title>Node91</title>
<g id="a_node23"><a xlink:href="loslib_8c.html#a66ff5b88f96a4df4a360cf6928636860" target="_top" xlink:title=" ">
<polygon fill="white" stroke="red" points="288.5,-1045.5 288.5,-1064.5 353.5,-1064.5 353.5,-1045.5 288.5,-1045.5"/>
<text text-anchor="middle" x="321" y="-1052.5" font-family="Helvetica,sans-Serif" font-size="10.00">setboolfield</text>
</a>
</g>
</g>
<!-- Node3&#45;&gt;Node91 -->
<g id="edge33" class="edge"><title>Node3&#45;&gt;Node91</title>
<path fill="none" stroke="midnightblue" d="M442.861,-809.164C441.46,-855.338 431.678,-969.848 371,-1036 366.313,-1041.11 360.09,-1044.86 353.656,-1047.61"/>
<polygon fill="midnightblue" stroke="midnightblue" points="446.364,-809.035 443.062,-798.968 439.365,-808.897 446.364,-809.035"/>
</g>
<!-- Node94 -->
<g id="node24" class="node"><title>Node94</title>
<g id="a_node24"><a xlink:href="loslib_8c.html#aa9bc89c1972a22cc25fb7bce8584f89a" target="_top" xlink:title=" ">
<polygon fill="white" stroke="red" points="297.5,-1007.5 297.5,-1026.5 344.5,-1026.5 344.5,-1007.5 297.5,-1007.5"/>
<text text-anchor="middle" x="321" y="-1014.5" font-family="Helvetica,sans-Serif" font-size="10.00">setfield</text>
</a>
</g>
</g>
<!-- Node3&#45;&gt;Node94 -->
<g id="edge34" class="edge"><title>Node3&#45;&gt;Node94</title>
<path fill="none" stroke="midnightblue" d="M441.616,-808.803C437.734,-849.584 423.304,-943.662 371,-998 363.976,-1005.3 353.831,-1009.84 344.592,-1012.64"/>
<polygon fill="midnightblue" stroke="midnightblue" points="445.108,-809.048 442.454,-798.791 438.132,-808.464 445.108,-809.048"/>
</g>
<!-- Node60 -->
<g id="node25" class="node"><title>Node60</title>
<g id="a_node25"><a xlink:href="loadlib_8c.html#ad3773b767d767b19dc36cab61cf5c57d" target="_top" xlink:title=" ">
<polygon fill="white" stroke="black" points="157,-1102.5 157,-1121.5 206,-1121.5 206,-1102.5 157,-1102.5"/>
<text text-anchor="middle" x="181.5" y="-1109.5" font-family="Helvetica,sans-Serif" font-size="10.00">setpath</text>
</a>
</g>
</g>
<!-- Node3&#45;&gt;Node60 -->
<g id="edge35" class="edge"><title>Node3&#45;&gt;Node60</title>
<path fill="none" stroke="midnightblue" d="M442.956,-809.038C442.322,-887.366 435.543,-1171.22 371,-1226 337.115,-1254.76 310.916,-1245.54 271,-1226 225.319,-1203.63 196.437,-1145.06 186.435,-1121.76"/>
<polygon fill="midnightblue" stroke="midnightblue" points="446.458,-808.678 443.012,-798.659 439.458,-808.64 446.458,-808.678"/>
</g>
<!-- Node95 -->
<g id="node26" class="node"><title>Node95</title>
<g id="a_node26"><a xlink:href="ldblib_8c.html#af88c1e9a59e65c7ffdacfb48b8defaa8" target="_top" xlink:title=" ">
<polygon fill="white" stroke="black" points="294,-361.5 294,-380.5 348,-380.5 348,-361.5 294,-361.5"/>
<text text-anchor="middle" x="321" y="-368.5" font-family="Helvetica,sans-Serif" font-size="10.00">settabsb</text>
</a>
</g>
</g>
<!-- Node3&#45;&gt;Node95 -->
<g id="edge37" class="edge"><title>Node3&#45;&gt;Node95</title>
<path fill="none" stroke="midnightblue" d="M441.695,-768.936C436.683,-697.309 416.625,-455.261 371,-395 365.282,-387.448 356.554,-382.134 348.041,-378.462"/>
<polygon fill="midnightblue" stroke="midnightblue" points="438.226,-769.513 442.394,-779.253 445.21,-769.04 438.226,-769.513"/>
</g>
<!-- Node96 -->
<g id="node27" class="node"><title>Node96</title>
<g id="a_node27"><a xlink:href="ldblib_8c.html#a32d25d4a90662ff3ed4d28104419c5b3" target="_top" xlink:title=" ">
<polygon fill="white" stroke="black" points="295.5,-513.5 295.5,-532.5 346.5,-532.5 346.5,-513.5 295.5,-513.5"/>
<text text-anchor="middle" x="321" y="-520.5" font-family="Helvetica,sans-Serif" font-size="10.00">settabsi</text>
</a>
</g>
</g>
<!-- Node3&#45;&gt;Node96 -->
<g id="edge39" class="edge"><title>Node3&#45;&gt;Node96</title>
<path fill="none" stroke="midnightblue" d="M442.322,-769.298C439.786,-724.582 427.783,-614.106 371,-547 364.636,-539.48 355.356,-534.109 346.58,-530.382"/>
<polygon fill="midnightblue" stroke="midnightblue" points="438.831,-769.582 442.792,-779.408 445.823,-769.257 438.831,-769.582"/>
</g>
<!-- Node97 -->
<g id="node28" class="node"><title>Node97</title>
<g id="a_node28"><a xlink:href="ldblib_8c.html#a91baf8e0a21e990ffed4a8853fc584f3" target="_top" xlink:title=" ">
<polygon fill="white" stroke="black" points="294,-437.5 294,-456.5 348,-456.5 348,-437.5 294,-437.5"/>
<text text-anchor="middle" x="321" y="-444.5" font-family="Helvetica,sans-Serif" font-size="10.00">settabss</text>
</a>
</g>
</g>
<!-- Node3&#45;&gt;Node97 -->
<g id="edge41" class="edge"><title>Node3&#45;&gt;Node97</title>
<path fill="none" stroke="midnightblue" d="M441.03,-769.27C434.397,-706.459 411.02,-512.55 371,-466 365.111,-459.15 356.449,-454.757 348.039,-451.945"/>
<polygon fill="midnightblue" stroke="midnightblue" points="437.568,-769.819 442.074,-779.408 444.531,-769.102 437.568,-769.819"/>
</g>
<!-- Node98 -->
<g id="node29" class="node"><title>Node98</title>
<g id="a_node29"><a xlink:href="ltablib_8c.html#a33b59fd5ba7dbaddc6109c692a9d5dd0" target="_top" xlink:title=" ">
<polygon fill="white" stroke="black" points="300.5,-285.5 300.5,-304.5 341.5,-304.5 341.5,-285.5 300.5,-285.5"/>
<text text-anchor="middle" x="321" y="-292.5" font-family="Helvetica,sans-Serif" font-size="10.00">tpack</text>
</a>
</g>
</g>
<!-- Node3&#45;&gt;Node98 -->
<g id="edge43" class="edge"><title>Node3&#45;&gt;Node98</title>
<path fill="none" stroke="midnightblue" d="M442.566,-768.962C440.433,-688.002 428.674,-385.956 371,-314 363.81,-305.029 351.828,-300.287 341.512,-297.783"/>
<polygon fill="midnightblue" stroke="midnightblue" points="439.074,-769.337 442.816,-779.249 446.072,-769.167 439.074,-769.337"/>
</g>
<!-- Node99 -->
<g id="node30" class="node"><title>Node99</title>
<g id="a_node30"><a xlink:href="ldblib_8c.html#a6269322ee4ae931654d7442fe2be6a46" target="_top" xlink:title=" ">
<polygon fill="white" stroke="black" points="278,-323.5 278,-342.5 364,-342.5 364,-323.5 278,-323.5"/>
<text text-anchor="middle" x="321" y="-330.5" font-family="Helvetica,sans-Serif" font-size="10.00">treatstackoption</text>
</a>
</g>
</g>
<!-- Node3&#45;&gt;Node99 -->
<g id="edge44" class="edge"><title>Node3&#45;&gt;Node99</title>
<path fill="none" stroke="midnightblue" d="M442.28,-769.109C439.133,-692.502 424.253,-417.572 371,-352 367.894,-348.175 363.918,-345.119 359.577,-342.677"/>
<polygon fill="midnightblue" stroke="midnightblue" points="438.79,-769.427 442.676,-779.284 445.785,-769.155 438.79,-769.427"/>
</g>
<!-- Node12&#45;&gt;Node10 -->
<g id="edge5" class="edge"><title>Node12&#45;&gt;Node10</title>
<path fill="none" stroke="midnightblue" d="M129.004,-819.671C116.87,-817.944 104.026,-816.116 92.1941,-814.432"/>
<polygon fill="midnightblue" stroke="midnightblue" points="128.598,-823.148 138.992,-821.092 129.585,-816.218 128.598,-823.148"/>
</g>
<!-- Node9&#45;&gt;Node10 -->
<g id="edge9" class="edge"><title>Node9&#45;&gt;Node10</title>
<path fill="none" stroke="midnightblue" d="M135.792,-688.946C133.055,-690.472 130.429,-692.153 128,-694 89.3481,-723.392 61.6513,-776.439 51.3835,-798.241"/>
<polygon fill="midnightblue" stroke="midnightblue" points="137.336,-692.087 144.81,-684.579 134.285,-685.787 137.336,-692.087"/>
</g>
<!-- Node24&#45;&gt;Node12 -->
<g id="edge16" class="edge"><title>Node24&#45;&gt;Node12</title>
<path fill="none" stroke="midnightblue" d="M275.427,-852.682C256.535,-847.461 234.853,-841.468 217.186,-836.586"/>
<polygon fill="midnightblue" stroke="midnightblue" points="274.732,-856.121 285.303,-855.411 276.597,-849.374 274.732,-856.121"/>
</g>
<!-- Node24&#45;&gt;Node10 -->
<g id="edge19" class="edge"><title>Node24&#45;&gt;Node10</title>
<path fill="none" stroke="midnightblue" d="M265.684,-864.514C226.737,-862.991 173.358,-858.487 128,-846 104.338,-839.486 79.0292,-826.538 63.1198,-817.579"/>
<polygon fill="midnightblue" stroke="midnightblue" points="265.651,-868.014 275.763,-864.854 265.887,-861.018 265.651,-868.014"/>
</g>
<!-- Node24&#45;&gt;Node19 -->
<g id="edge17" class="edge"><title>Node24&#45;&gt;Node19</title>
<path fill="none" stroke="midnightblue" d="M275.654,-877.256C256.03,-882.679 233.357,-888.945 215.293,-893.937"/>
<polygon fill="midnightblue" stroke="midnightblue" points="276.597,-880.626 285.303,-874.589 274.732,-873.879 276.597,-880.626"/>
</g>
<!-- Node24&#45;&gt;Node25 -->
<g id="edge18" class="edge"><title>Node24&#45;&gt;Node25</title>
<path fill="none" stroke="midnightblue" d="M299.212,-881.042C282.522,-893.392 258.135,-910.278 235,-922 227.996,-925.549 220.169,-928.754 212.74,-931.478"/>
<polygon fill="midnightblue" stroke="midnightblue" points="301.746,-883.516 307.636,-874.709 297.539,-877.921 301.746,-883.516"/>
</g>
<!-- Node29&#45;&gt;Node13 -->
<g id="edge21" class="edge"><title>Node29&#45;&gt;Node13</title>
<path fill="none" stroke="midnightblue" d="M275.507,-738.704C255.576,-733.196 232.526,-726.825 214.358,-721.805"/>
<polygon fill="midnightblue" stroke="midnightblue" points="274.732,-742.121 285.303,-741.411 276.597,-735.374 274.732,-742.121"/>
</g>
<!-- Node86&#45;&gt;Node10 -->
<g id="edge27" class="edge"><title>Node86&#45;&gt;Node10</title>
<path fill="none" stroke="midnightblue" d="M272.099,-629.876C230.512,-626.279 170.468,-627.571 128,-656 75.8186,-690.931 54.7414,-770.836 48.8516,-798.424"/>
<polygon fill="midnightblue" stroke="midnightblue" points="271.955,-633.379 282.252,-630.883 272.646,-626.413 271.955,-633.379"/>
</g>
<!-- Node86&#45;&gt;Node13 -->
<g id="edge24" class="edge"><title>Node86&#45;&gt;Node13</title>
<path fill="none" stroke="midnightblue" d="M299.212,-653.042C282.522,-665.392 258.135,-682.278 235,-694 227.996,-697.549 220.169,-700.754 212.74,-703.478"/>
<polygon fill="midnightblue" stroke="midnightblue" points="301.746,-655.516 307.636,-646.709 297.539,-649.921 301.746,-655.516"/>
</g>
<!-- Node86&#45;&gt;Node15 -->
<g id="edge25" class="edge"><title>Node86&#45;&gt;Node15</title>
<path fill="none" stroke="midnightblue" d="M275.427,-624.682C256.535,-619.461 234.853,-613.468 217.186,-608.586"/>
<polygon fill="midnightblue" stroke="midnightblue" points="274.732,-628.121 285.303,-627.411 276.597,-621.374 274.732,-628.121"/>
</g>
<!-- Node86&#45;&gt;Node87 -->
<g id="edge26" class="edge"><title>Node86&#45;&gt;Node87</title>
<path fill="none" stroke="midnightblue" d="M299.212,-620.958C282.522,-608.608 258.135,-591.722 235,-580 227.996,-576.451 220.169,-573.246 212.74,-570.522"/>
<polygon fill="midnightblue" stroke="midnightblue" points="297.539,-624.079 307.636,-627.291 301.746,-618.484 297.539,-624.079"/>
</g>
<!-- Node60&#45;&gt;Node10 -->
<g id="edge36" class="edge"><title>Node60&#45;&gt;Node10</title>
<path fill="none" stroke="midnightblue" d="M172.03,-1092.71C146.352,-1034.24 69.989,-860.35 51.208,-817.582"/>
<polygon fill="midnightblue" stroke="midnightblue" points="168.984,-1094.48 176.209,-1102.23 175.393,-1091.67 168.984,-1094.48"/>
</g>
<!-- Node95&#45;&gt;Node18 -->
<g id="edge38" class="edge"><title>Node95&#45;&gt;Node18</title>
<path fill="none" stroke="midnightblue" d="M284.044,-380.937C261.759,-387.096 233.47,-394.914 212.414,-400.733"/>
<polygon fill="midnightblue" stroke="midnightblue" points="285.107,-384.274 293.814,-378.237 283.243,-377.527 285.107,-384.274"/>
</g>
<!-- Node96&#45;&gt;Node18 -->
<g id="edge40" class="edge"><title>Node96&#45;&gt;Node18</title>
<path fill="none" stroke="midnightblue" d="M285.945,-512.112C280.738,-509.8 275.58,-507.102 271,-504 234.794,-479.476 202.639,-437.565 189.188,-418.702"/>
<polygon fill="midnightblue" stroke="midnightblue" points="284.67,-515.372 295.254,-515.86 287.285,-508.879 284.67,-515.372"/>
</g>
<!-- Node97&#45;&gt;Node18 -->
<g id="edge42" class="edge"><title>Node97&#45;&gt;Node18</title>
<path fill="none" stroke="midnightblue" d="M284.044,-437.063C261.759,-430.904 233.47,-423.086 212.414,-417.267"/>
<polygon fill="midnightblue" stroke="midnightblue" points="283.243,-440.473 293.814,-439.763 285.107,-433.726 283.243,-440.473"/>
</g>
<!-- Node99&#45;&gt;Node18 -->
<g id="edge45" class="edge"><title>Node99&#45;&gt;Node18</title>
<path fill="none" stroke="midnightblue" d="M282.908,-346.458C278.837,-348.207 274.796,-350.067 271,-352 242.827,-366.348 212.315,-387.335 195.492,-399.435"/>
<polygon fill="midnightblue" stroke="midnightblue" points="284.425,-349.618 292.358,-342.595 281.777,-343.139 284.425,-349.618"/>
</g>
<!-- Node100&#45;&gt;Node25 -->
<g id="edge50" class="edge"><title>Node100&#45;&gt;Node25</title>
<path fill="none" stroke="midnightblue" d="M418.114,-1362.9C380.467,-1338.74 309.373,-1287.79 271,-1226 238.695,-1173.98 253.007,-1151.53 235,-1093 218.253,-1038.56 194.859,-974.364 186.045,-950.529"/>
<polygon fill="midnightblue" stroke="midnightblue" points="416.598,-1366.08 426.924,-1368.45 420.331,-1360.16 416.598,-1366.08"/>
</g>
<!-- Node101 -->
<g id="node32" class="node"><title>Node101</title>
<g id="a_node32"><a xlink:href="lua_8c.html#ae97a68ae8a927b55520b65d0a56a59d2" target="_top" xlink:title=" ">
<polygon fill="white" stroke="black" points="282,-1349.5 282,-1368.5 360,-1368.5 360,-1349.5 282,-1349.5"/>
<text text-anchor="middle" x="321" y="-1356.5" font-family="Helvetica,sans-Serif" font-size="10.00">createargtable</text>
</a>
</g>
</g>
<!-- Node100&#45;&gt;Node101 -->
<g id="edge47" class="edge"><title>Node100&#45;&gt;Node101</title>
<path fill="none" stroke="midnightblue" d="M396.463,-1370.69C384.536,-1368.82 371.845,-1366.83 360.381,-1365.03"/>
<polygon fill="midnightblue" stroke="midnightblue" points="396.274,-1374.21 406.696,-1372.3 397.36,-1367.29 396.274,-1374.21"/>
</g>
<!-- Node57 -->
<g id="node33" class="node"><title>Node57</title>
<g id="a_node33"><a xlink:href="lua_8c.html#ad256d556c3f941b29351d92606e67753" target="_top" xlink:title=" ">
<polygon fill="white" stroke="red" points="294.5,-1425.5 294.5,-1444.5 347.5,-1444.5 347.5,-1425.5 294.5,-1425.5"/>
<text text-anchor="middle" x="321" y="-1432.5" font-family="Helvetica,sans-Serif" font-size="10.00">dolibrary</text>
</a>
</g>
</g>
<!-- Node100&#45;&gt;Node57 -->
<g id="edge49" class="edge"><title>Node100&#45;&gt;Node57</title>
<path fill="none" stroke="midnightblue" d="M417.325,-1392.48C403.742,-1399.9 386.674,-1408.85 371,-1416 363.528,-1419.41 355.254,-1422.77 347.665,-1425.69"/>
<polygon fill="midnightblue" stroke="midnightblue" points="419.05,-1395.52 426.112,-1387.63 415.666,-1389.4 419.05,-1395.52"/>
</g>
<!-- Node102 -->
<g id="node34" class="node"><title>Node102</title>
<g id="a_node34"><a xlink:href="lib1_8c.html#ad8a3078ea763354a67decde1bca6bc6d" target="_top" xlink:title=" ">
<polygon fill="white" stroke="black" points="275,-1387.5 275,-1406.5 367,-1406.5 367,-1387.5 275,-1387.5"/>
<text text-anchor="middle" x="321" y="-1394.5" font-family="Helvetica,sans-Serif" font-size="10.00">luaopen_lib1_sub</text>
</a>
</g>
</g>
<!-- Node100&#45;&gt;Node102 -->
<g id="edge51" class="edge"><title>Node100&#45;&gt;Node102</title>
<path fill="none" stroke="midnightblue" d="M396.528,-1385.3C386.932,-1386.8 376.838,-1388.39 367.284,-1389.89"/>
<polygon fill="midnightblue" stroke="midnightblue" points="397.36,-1388.71 406.696,-1383.7 396.274,-1381.79 397.36,-1388.71"/>
</g>
<!-- Node103 -->
<g id="node35" class="node"><title>Node103</title>
<g id="a_node35"><a xlink:href="lib21_8c.html#ab456f192d7085cab2b40bbabe4c2349a" target="_top" xlink:title=" ">
<polygon fill="white" stroke="red" points="285.5,-1463.5 285.5,-1482.5 356.5,-1482.5 356.5,-1463.5 285.5,-1463.5"/>
<text text-anchor="middle" x="321" y="-1470.5" font-family="Helvetica,sans-Serif" font-size="10.00">luaopen_lib2</text>
</a>
</g>
</g>
<!-- Node100&#45;&gt;Node103 -->
<g id="edge52" class="edge"><title>Node100&#45;&gt;Node103</title>
<path fill="none" stroke="midnightblue" d="M430.005,-1395.72C416.789,-1412.67 394.903,-1437.96 371,-1454 365.47,-1457.71 359.109,-1460.85 352.841,-1463.44"/>
<polygon fill="midnightblue" stroke="midnightblue" points="432.828,-1397.79 436.09,-1387.71 427.254,-1393.56 432.828,-1397.79"/>
</g>
<!-- Node101&#45;&gt;Node27 -->
<g id="edge48" class="edge"><title>Node101&#45;&gt;Node27</title>
<path fill="none" stroke="midnightblue" d="M271.558,-1352.31C248.113,-1349.07 221.207,-1345.35 203.16,-1342.85"/>
<polygon fill="midnightblue" stroke="midnightblue" points="271.314,-1355.81 281.699,-1353.71 272.272,-1348.87 271.314,-1355.81"/>
</g>
<!-- Node105&#45;&gt;Node98 -->
<g id="edge60" class="edge"><title>Node105&#45;&gt;Node98</title>
<path fill="none" stroke="midnightblue" d="M538.675,-255.059C525.081,-268.817 503.877,-287.126 481,-295 433.104,-311.484 372.177,-304.337 341.51,-298.966"/>
<polygon fill="midnightblue" stroke="midnightblue" points="541.41,-257.261 545.755,-247.598 536.332,-252.443 541.41,-257.261"/>
</g>
<!-- Node106 -->
<g id="node37" class="node"><title>Node106</title>
<g id="a_node37"><a xlink:href="ltablib_8c.html#a66d39e7dbcc639daedcc8618fd2a18e1" target="_top" xlink:title=" ">
<polygon fill="white" stroke="black" points="426.5,-190.5 426.5,-209.5 461.5,-209.5 461.5,-190.5 426.5,-190.5"/>
<text text-anchor="middle" x="444" y="-197.5" font-family="Helvetica,sans-Serif" font-size="10.00">set2</text>
</a>
</g>
</g>
<!-- Node105&#45;&gt;Node106 -->
<g id="edge54" class="edge"><title>Node105&#45;&gt;Node106</title>
<path fill="none" stroke="midnightblue" d="M520.358,-226.272C500.889,-219.484 477.236,-211.238 461.685,-205.817"/>
<polygon fill="midnightblue" stroke="midnightblue" points="519.215,-229.579 529.809,-229.567 521.519,-222.97 519.215,-229.579"/>
</g>
<!-- Node110 -->
<g id="node40" class="node"><title>Node110</title>
<g id="a_node40"><a xlink:href="ltablib_8c.html#a214ed6966e2b1b4c376ab0de0d09032e" target="_top" xlink:title=" ">
<polygon fill="white" stroke="black" points="422,-152.5 422,-171.5 466,-171.5 466,-152.5 422,-152.5"/>
<text text-anchor="middle" x="444" y="-159.5" font-family="Helvetica,sans-Serif" font-size="10.00">tinsert</text>
</a>
</g>
</g>
<!-- Node105&#45;&gt;Node110 -->
<g id="edge58" class="edge"><title>Node105&#45;&gt;Node110</title>
<path fill="none" stroke="midnightblue" d="M523.406,-223.358C521.183,-221.973 519.022,-220.516 517,-219 498.387,-205.043 499.534,-195.061 481,-181 476.383,-177.497 471.031,-174.289 465.887,-171.546"/>
<polygon fill="midnightblue" stroke="midnightblue" points="521.712,-226.421 532.135,-228.321 525.172,-220.336 521.712,-226.421"/>
</g>
<!-- Node111 -->
<g id="node41" class="node"><title>Node111</title>
<g id="a_node41"><a xlink:href="ltablib_8c.html#a2206b11cc9a180fbc33aabb81308fd74" target="_top" xlink:title=" ">
<polygon fill="white" stroke="black" points="423,-266.5 423,-285.5 465,-285.5 465,-266.5 423,-266.5"/>
<text text-anchor="middle" x="444" y="-273.5" font-family="Helvetica,sans-Serif" font-size="10.00">tmove</text>
</a>
</g>
</g>
<!-- Node105&#45;&gt;Node111 -->
<g id="edge59" class="edge"><title>Node105&#45;&gt;Node111</title>
<path fill="none" stroke="midnightblue" d="M520.205,-249.782C502.145,-256.078 480.523,-263.616 465.107,-268.99"/>
<polygon fill="midnightblue" stroke="midnightblue" points="521.519,-253.03 529.809,-246.433 519.215,-246.421 521.519,-253.03"/>
</g>
<!-- Node112 -->
<g id="node42" class="node"><title>Node112</title>
<g id="a_node42"><a xlink:href="ltablib_8c.html#ad8c41fe887a472709c6fdf075ba39d56" target="_top" xlink:title=" ">
<polygon fill="white" stroke="black" points="419,-228.5 419,-247.5 469,-247.5 469,-228.5 419,-228.5"/>
<text text-anchor="middle" x="444" y="-235.5" font-family="Helvetica,sans-Serif" font-size="10.00">tremove</text>
</a>
</g>
</g>
<!-- Node105&#45;&gt;Node112 -->
<g id="edge61" class="edge"><title>Node105&#45;&gt;Node112</title>
<path fill="none" stroke="midnightblue" d="M519.517,-238C503.125,-238 483.927,-238 469.123,-238"/>
<polygon fill="midnightblue" stroke="midnightblue" points="519.809,-241.5 529.809,-238 519.809,-234.5 519.809,-241.5"/>
</g>
<!-- Node107 -->
<g id="node38" class="node"><title>Node107</title>
<g id="a_node38"><a xlink:href="ltablib_8c.html#a151c51c8905acb3db7d6f1e58265b709" target="_top" xlink:title=" ">
<polygon fill="white" stroke="red" points="157,-190.5 157,-209.5 206,-209.5 206,-190.5 157,-190.5"/>
<text text-anchor="middle" x="181.5" y="-197.5" font-family="Helvetica,sans-Serif" font-size="10.00">auxsort</text>
</a>
</g>
</g>
<!-- Node106&#45;&gt;Node107 -->
<g id="edge55" class="edge"><title>Node106&#45;&gt;Node107</title>
<path fill="none" stroke="midnightblue" d="M416.071,-200C365.012,-200 254.902,-200 206.338,-200"/>
<polygon fill="midnightblue" stroke="midnightblue" points="416.308,-203.5 426.308,-200 416.308,-196.5 416.308,-203.5"/>
</g>
<!-- Node109 -->
<g id="node39" class="node"><title>Node109</title>
<g id="a_node39"><a xlink:href="ltablib_8c.html#a1d53059f696e353656cd98be725ffbd2" target="_top" xlink:title=" ">
<polygon fill="white" stroke="black" points="295.5,-171.5 295.5,-190.5 346.5,-190.5 346.5,-171.5 295.5,-171.5"/>
<text text-anchor="middle" x="321" y="-178.5" font-family="Helvetica,sans-Serif" font-size="10.00">partition</text>
</a>
</g>
</g>
<!-- Node106&#45;&gt;Node109 -->
<g id="edge56" class="edge"><title>Node106&#45;&gt;Node109</title>
<path fill="none" stroke="midnightblue" d="M416.104,-195.777C395.333,-192.515 366.822,-188.038 346.641,-184.869"/>
<polygon fill="midnightblue" stroke="midnightblue" points="415.754,-199.264 426.175,-197.358 416.839,-192.349 415.754,-199.264"/>
</g>
<!-- Node109&#45;&gt;Node107 -->
<g id="edge57" class="edge"><title>Node109&#45;&gt;Node107</title>
<path fill="none" stroke="midnightblue" d="M285.386,-185.783C260.731,-189.19 228.226,-193.681 206.409,-196.696"/>
<polygon fill="midnightblue" stroke="midnightblue" points="285.991,-189.233 295.418,-184.397 285.033,-182.299 285.991,-189.233"/>
</g>
<!-- Node115 -->
<g id="node45" class="node"><title>Node115</title>
<g id="a_node45"><a xlink:href="ldo_8c.html#aa7d32ccef16c2d4fe63604c4c457831d" target="_top" xlink:title=" ">
<polygon fill="white" stroke="black" points="425.5,-38.5 425.5,-57.5 462.5,-57.5 462.5,-38.5 425.5,-38.5"/>
<text text-anchor="middle" x="444" y="-45.5" font-family="Helvetica,sans-Serif" font-size="10.00">ccall</text>
</a>
</g>
</g>
<!-- Node114&#45;&gt;Node115 -->
<g id="edge64" class="edge"><title>Node114&#45;&gt;Node115</title>
<path fill="none" stroke="midnightblue" d="M516.931,-73.0767C498.557,-66.6712 477.229,-59.2359 462.596,-54.1344"/>
<polygon fill="midnightblue" stroke="midnightblue" points="515.9,-76.4239 526.495,-76.411 518.204,-69.8141 515.9,-76.4239"/>
</g>
<!-- Node306 -->
<g id="node48" class="node"><title>Node306</title>
<g id="a_node48"><a xlink:href="ldo_8c.html#abd7632c715de5db6e7797b7fa3f7010f" target="_top" xlink:title=" ">
<polygon fill="white" stroke="black" points="296.5,-76.5 296.5,-95.5 345.5,-95.5 345.5,-76.5 296.5,-76.5"/>
<text text-anchor="middle" x="321" y="-83.5" font-family="Helvetica,sans-Serif" font-size="10.00">resume</text>
</a>
</g>
</g>
<!-- Node114&#45;&gt;Node306 -->
<g id="edge70" class="edge"><title>Node114&#45;&gt;Node306</title>
<path fill="none" stroke="midnightblue" d="M506.966,-86C458.095,-86 383.584,-86 345.782,-86"/>
<polygon fill="midnightblue" stroke="midnightblue" points="506.982,-89.5001 516.982,-86 506.982,-82.5001 506.982,-89.5001"/>
</g>
<!-- Node302 -->
<g id="node50" class="node"><title>Node302</title>
<g id="a_node50"><a xlink:href="ldo_8c.html#a3baab9d298c0c32cb74a9a079d7244de" target="_top" xlink:title=" ">
<polygon fill="white" stroke="black" points="424,-114.5 424,-133.5 464,-133.5 464,-114.5 424,-114.5"/>
<text text-anchor="middle" x="444" y="-121.5" font-family="Helvetica,sans-Serif" font-size="10.00">unroll</text>
</a>
</g>
</g>
<!-- Node114&#45;&gt;Node302 -->
<g id="edge71" class="edge"><title>Node114&#45;&gt;Node302</title>
<path fill="none" stroke="midnightblue" d="M516.996,-98.9005C499.289,-105.074 478.826,-112.208 464.252,-117.288"/>
<polygon fill="midnightblue" stroke="midnightblue" points="518.204,-102.186 526.495,-95.589 515.9,-95.5761 518.204,-102.186"/>
</g>
<!-- Node116 -->
<g id="node46" class="node"><title>Node116</title>
<g id="a_node46"><a xlink:href="ldo_8h.html#a4797364de1dd297aac52f9c10565523f" target="_top" xlink:title=" ">
<polygon fill="white" stroke="red" points="293,-0.5 293,-19.5 349,-19.5 349,-0.5 293,-0.5"/>
<text text-anchor="middle" x="321" y="-7.5" font-family="Helvetica,sans-Serif" font-size="10.00">luaD_call</text>
</a>
</g>
</g>
<!-- Node115&#45;&gt;Node116 -->
<g id="edge65" class="edge"><title>Node115&#45;&gt;Node116</title>
<path fill="none" stroke="midnightblue" d="M415.691,-39.4237C395.76,-33.1643 368.868,-24.719 349.008,-18.4818"/>
<polygon fill="midnightblue" stroke="midnightblue" points="414.816,-42.8174 425.406,-42.4745 416.914,-36.139 414.816,-42.8174"/>
</g>
<!-- Node651 -->
<g id="node47" class="node"><title>Node651</title>
<g id="a_node47"><a xlink:href="ldo_8h.html#a5315637506edcbdd30e9271e75416ae1" target="_top" xlink:title=" ">
<polygon fill="white" stroke="red" points="277.5,-38.5 277.5,-57.5 364.5,-57.5 364.5,-38.5 277.5,-38.5"/>
<text text-anchor="middle" x="321" y="-45.5" font-family="Helvetica,sans-Serif" font-size="10.00">luaD_callnoyield</text>
</a>
</g>
</g>
<!-- Node115&#45;&gt;Node651 -->
<g id="edge67" class="edge"><title>Node115&#45;&gt;Node651</title>
<path fill="none" stroke="midnightblue" d="M415.267,-48C400.299,-48 381.499,-48 364.707,-48"/>
<polygon fill="midnightblue" stroke="midnightblue" points="415.406,-51.5001 425.406,-48 415.406,-44.5001 415.406,-51.5001"/>
</g>
<!-- Node115&#45;&gt;Node306 -->
<g id="edge68" class="edge"><title>Node115&#45;&gt;Node306</title>
<path fill="none" stroke="midnightblue" d="M415.788,-56.5459C394.778,-63.1442 365.99,-72.1851 345.87,-78.5038"/>
<polygon fill="midnightblue" stroke="midnightblue" points="416.914,-59.861 425.406,-53.5255 414.816,-53.1826 416.914,-59.861"/>
</g>
<!-- Node116&#45;&gt;Node114 -->
<g id="edge66" class="edge"><title>Node116&#45;&gt;Node114</title>
<path fill="none" stroke="midnightblue" d="M359.441,-8.88119C392.595,-9.17343 441.688,-12.7976 481,-29 507.462,-39.9063 532.418,-63.2032 545.169,-76.3873"/>
<polygon fill="midnightblue" stroke="midnightblue" points="359.266,-5.38128 349.27,-8.89167 359.273,-12.3813 359.266,-5.38128"/>
</g>
<!-- Node303 -->
<g id="node49" class="node"><title>Node303</title>
<g id="a_node49"><a xlink:href="lua_8h.html#a534ce5b580fb7c5391f931b272eff0a0" target="_top" xlink:title=" ">
<polygon fill="white" stroke="red" points="148,-95.5 148,-114.5 215,-114.5 215,-95.5 148,-95.5"/>
<text text-anchor="middle" x="181.5" y="-102.5" font-family="Helvetica,sans-Serif" font-size="10.00">lua_resume</text>
</a>
</g>
</g>
<!-- Node306&#45;&gt;Node303 -->
<g id="edge69" class="edge"><title>Node306&#45;&gt;Node303</title>
<path fill="none" stroke="midnightblue" d="M286.281,-90.6594C264.589,-93.6568 236.548,-97.5316 215.083,-100.498"/>
<polygon fill="midnightblue" stroke="midnightblue" points="286.936,-94.1022 296.363,-89.2662 285.978,-87.1681 286.936,-94.1022"/>
</g>
<!-- Node302&#45;&gt;Node306 -->
<g id="edge73" class="edge"><title>Node302&#45;&gt;Node306</title>
<path fill="none" stroke="midnightblue" d="M414.186,-114.951C393.256,-108.378 365.277,-99.591 345.652,-93.4279"/>
<polygon fill="midnightblue" stroke="midnightblue" points="413.238,-118.322 423.827,-117.979 415.335,-111.643 413.238,-118.322"/>
</g>
<!-- Node302&#45;&gt;Node303 -->
<g id="edge72" class="edge"><title>Node302&#45;&gt;Node303</title>
<path fill="none" stroke="midnightblue" d="M413.599,-121.856C364.543,-118.278 266.346,-111.115 215.188,-107.384"/>
<polygon fill="midnightblue" stroke="midnightblue" points="413.617,-125.366 423.845,-122.603 414.126,-118.385 413.617,-125.366"/>
</g>
</g>
</svg>
