<?xml version="1.0" encoding="UTF-8" standalone="no"?>
<!DOCTYPE svg PUBLIC "-//W3C//DTD SVG 1.1//EN"
 "http://www.w3.org/Graphics/SVG/1.1/DTD/svg11.dtd">
<!-- Generated by graphviz version 2.38.0 (20140413.2041)
 -->
<!-- Title: luaV_lessequal Pages: 1 -->
<svg width="538pt" height="142pt"
 viewBox="0.00 0.00 538.00 142.00" xmlns="http://www.w3.org/2000/svg" xmlns:xlink="http://www.w3.org/1999/xlink">
<g id="graph0" class="graph" transform="scale(1 1) rotate(0) translate(4 138)">
<title>luaV_lessequal</title>
<polygon fill="white" stroke="none" points="-4,4 -4,-138 534,-138 534,4 -4,4"/>
<!-- Node1 -->
<g id="node1" class="node"><title>Node1</title>
<g id="a_node1"><a xlink:title=" ">
<polygon fill="#bfbfbf" stroke="black" points="447,-57.5 447,-76.5 530,-76.5 530,-57.5 447,-57.5"/>
<text text-anchor="middle" x="488.5" y="-64.5" font-family="Helvetica,sans-Serif" font-size="10.00">luaV_lessequal</text>
</a>
</g>
</g>
<!-- Node2 -->
<g id="node2" class="node"><title>Node2</title>
<g id="a_node2"><a xlink:href="lua_8h.html#a603a5975f5a19c1824e6af53c1326b5c" target="_top" xlink:title=" ">
<polygon fill="white" stroke="black" points="339,-57.5 339,-76.5 411,-76.5 411,-57.5 339,-57.5"/>
<text text-anchor="middle" x="375" y="-64.5" font-family="Helvetica,sans-Serif" font-size="10.00">lua_compare</text>
</a>
</g>
</g>
<!-- Node1&#45;&gt;Node2 -->
<g id="edge1" class="edge"><title>Node1&#45;&gt;Node2</title>
<path fill="none" stroke="midnightblue" d="M436.875,-67C428.2,-67 419.359,-67 411.2,-67"/>
<polygon fill="midnightblue" stroke="midnightblue" points="436.931,-70.5001 446.931,-67 436.93,-63.5001 436.931,-70.5001"/>
</g>
<!-- Node3 -->
<g id="node3" class="node"><title>Node3</title>
<g id="a_node3"><a xlink:href="lmathlib_8c.html#a03e3b76e515f5535122c2026a9e8f445" target="_top" xlink:title=" ">
<polygon fill="white" stroke="black" points="241,-114.5 241,-133.5 303,-133.5 303,-114.5 241,-114.5"/>
<text text-anchor="middle" x="272" y="-121.5" font-family="Helvetica,sans-Serif" font-size="10.00">math_max</text>
</a>
</g>
</g>
<!-- Node2&#45;&gt;Node3 -->
<g id="edge2" class="edge"><title>Node2&#45;&gt;Node3</title>
<path fill="none" stroke="midnightblue" d="M348.141,-81.5939C329.824,-91.9309 305.779,-105.501 289.88,-114.474"/>
<polygon fill="midnightblue" stroke="midnightblue" points="349.878,-84.6323 356.867,-76.6693 346.438,-78.5361 349.878,-84.6323"/>
</g>
<!-- Node4 -->
<g id="node4" class="node"><title>Node4</title>
<g id="a_node4"><a xlink:href="lmathlib_8c.html#ab0a14d784b5fe2f30062e88a635db320" target="_top" xlink:title=" ">
<polygon fill="white" stroke="black" points="242.5,-76.5 242.5,-95.5 301.5,-95.5 301.5,-76.5 242.5,-76.5"/>
<text text-anchor="middle" x="272" y="-83.5" font-family="Helvetica,sans-Serif" font-size="10.00">math_min</text>
</a>
</g>
</g>
<!-- Node2&#45;&gt;Node4 -->
<g id="edge3" class="edge"><title>Node2&#45;&gt;Node4</title>
<path fill="none" stroke="midnightblue" d="M329.022,-75.4613C319.717,-77.2117 310.158,-79.0098 301.631,-80.6139"/>
<polygon fill="midnightblue" stroke="midnightblue" points="329.778,-78.8805 338.959,-73.592 328.484,-72.0011 329.778,-78.8805"/>
</g>
<!-- Node5 -->
<g id="node5" class="node"><title>Node5</title>
<g id="a_node5"><a xlink:href="ltablib_8c.html#ae92f4625e74d1876b2ca2a4ced74c807" target="_top" xlink:title=" ">
<polygon fill="white" stroke="black" points="241,-38.5 241,-57.5 303,-57.5 303,-38.5 241,-38.5"/>
<text text-anchor="middle" x="272" y="-45.5" font-family="Helvetica,sans-Serif" font-size="10.00">sort_comp</text>
</a>
</g>
</g>
<!-- Node2&#45;&gt;Node5 -->
<g id="edge4" class="edge"><title>Node2&#45;&gt;Node5</title>
<path fill="none" stroke="midnightblue" d="M328.927,-58.521C320.244,-56.8875 311.345,-55.2133 303.271,-53.6946"/>
<polygon fill="midnightblue" stroke="midnightblue" points="328.484,-61.9989 338.959,-60.408 329.778,-55.1195 328.484,-61.9989"/>
</g>
<!-- Node9 -->
<g id="node9" class="node"><title>Node9</title>
<g id="a_node9"><a xlink:href="ltablib_8c.html#a2206b11cc9a180fbc33aabb81308fd74" target="_top" xlink:title=" ">
<polygon fill="white" stroke="black" points="251,-0.5 251,-19.5 293,-19.5 293,-0.5 251,-0.5"/>
<text text-anchor="middle" x="272" y="-7.5" font-family="Helvetica,sans-Serif" font-size="10.00">tmove</text>
</a>
</g>
</g>
<!-- Node2&#45;&gt;Node9 -->
<g id="edge9" class="edge"><title>Node2&#45;&gt;Node9</title>
<path fill="none" stroke="midnightblue" d="M348.141,-52.4061C329.824,-42.0691 305.779,-28.4991 289.88,-19.5265"/>
<polygon fill="midnightblue" stroke="midnightblue" points="346.438,-55.4639 356.867,-57.3307 349.878,-49.3677 346.438,-55.4639"/>
</g>
<!-- Node6 -->
<g id="node6" class="node"><title>Node6</title>
<g id="a_node6"><a xlink:href="ltablib_8c.html#a151c51c8905acb3db7d6f1e58265b709" target="_top" xlink:title=" ">
<polygon fill="white" stroke="black" points="69,-38.5 69,-57.5 118,-57.5 118,-38.5 69,-38.5"/>
<text text-anchor="middle" x="93.5" y="-45.5" font-family="Helvetica,sans-Serif" font-size="10.00">auxsort</text>
</a>
</g>
</g>
<!-- Node5&#45;&gt;Node6 -->
<g id="edge5" class="edge"><title>Node5&#45;&gt;Node6</title>
<path fill="none" stroke="midnightblue" d="M230.375,-48C195.666,-48 146.924,-48 118.235,-48"/>
<polygon fill="midnightblue" stroke="midnightblue" points="230.659,-51.5001 240.659,-48 230.659,-44.5001 230.659,-51.5001"/>
</g>
<!-- Node8 -->
<g id="node8" class="node"><title>Node8</title>
<g id="a_node8"><a xlink:href="ltablib_8c.html#a1d53059f696e353656cd98be725ffbd2" target="_top" xlink:title=" ">
<polygon fill="white" stroke="black" points="154,-19.5 154,-38.5 205,-38.5 205,-19.5 154,-19.5"/>
<text text-anchor="middle" x="179.5" y="-26.5" font-family="Helvetica,sans-Serif" font-size="10.00">partition</text>
</a>
</g>
</g>
<!-- Node5&#45;&gt;Node8 -->
<g id="edge7" class="edge"><title>Node5&#45;&gt;Node8</title>
<path fill="none" stroke="midnightblue" d="M231.069,-39.6166C222.223,-37.7596 213.103,-35.8449 205.086,-34.1616"/>
<polygon fill="midnightblue" stroke="midnightblue" points="230.359,-43.0439 240.865,-41.6733 231.797,-36.1932 230.359,-43.0439"/>
</g>
<!-- Node7 -->
<g id="node7" class="node"><title>Node7</title>
<g id="a_node7"><a xlink:href="ltablib_8c.html#ae7d3f892e2605bf102dce63de388e626" target="_top" xlink:title=" ">
<polygon fill="white" stroke="black" points="0,-38.5 0,-57.5 33,-57.5 33,-38.5 0,-38.5"/>
<text text-anchor="middle" x="16.5" y="-45.5" font-family="Helvetica,sans-Serif" font-size="10.00">sort</text>
</a>
</g>
</g>
<!-- Node6&#45;&gt;Node7 -->
<g id="edge6" class="edge"><title>Node6&#45;&gt;Node7</title>
<path fill="none" stroke="midnightblue" d="M58.5521,-48C49.6386,-48 40.455,-48 33.04,-48"/>
<polygon fill="midnightblue" stroke="midnightblue" points="58.7696,-51.5001 68.7695,-48 58.7695,-44.5001 58.7696,-51.5001"/>
</g>
<!-- Node8&#45;&gt;Node6 -->
<g id="edge8" class="edge"><title>Node8&#45;&gt;Node6</title>
<path fill="none" stroke="midnightblue" d="M143.897,-36.8268C135.256,-38.7813 126.184,-40.8334 118.206,-42.6379"/>
<polygon fill="midnightblue" stroke="midnightblue" points="144.77,-40.2179 153.752,-34.5979 143.226,-33.3903 144.77,-40.2179"/>
</g>
</g>
</svg>
