<?xml version="1.0" encoding="UTF-8" standalone="no"?>
<!DOCTYPE svg PUBLIC "-//W3C//DTD SVG 1.1//EN"
 "http://www.w3.org/Graphics/SVG/1.1/DTD/svg11.dtd">
<!-- Generated by graphviz version 2.38.0 (20140413.2041)
 -->
<!-- Title: lua_Debug Pages: 1 -->
<svg width="786pt" height="759pt"
 viewBox="0.00 0.00 786.00 759.00" xmlns="http://www.w3.org/2000/svg" xmlns:xlink="http://www.w3.org/1999/xlink">
<g id="graph0" class="graph" transform="scale(1 1) rotate(0) translate(4 755)">
<title>lua_Debug</title>
<polygon fill="white" stroke="none" points="-4,4 -4,-755 782,-755 782,4 -4,4"/>
<!-- Node1 -->
<g id="node1" class="node"><title>Node1</title>
<g id="a_node1"><a xlink:title=" ">
<polygon fill="#bfbfbf" stroke="black" points="0,-484.5 0,-503.5 62,-503.5 62,-484.5 0,-484.5"/>
<text text-anchor="middle" x="31" y="-491.5" font-family="Helvetica,sans-Serif" font-size="10.00">lua_Debug</text>
</a>
</g>
</g>
<!-- Node2 -->
<g id="node2" class="node"><title>Node2</title>
<g id="a_node2"><a xlink:href="struct_call_info.html" target="_top" xlink:title=" ">
<polygon fill="white" stroke="black" points="13,-569 13,-588 61,-588 61,-569 13,-569"/>
<text text-anchor="middle" x="37" y="-576" font-family="Helvetica,sans-Serif" font-size="10.00">CallInfo</text>
</a>
</g>
</g>
<!-- Node2&#45;&gt;Node1 -->
<g id="edge1" class="edge"><title>Node2&#45;&gt;Node1</title>
<path fill="none" stroke="#9a32cd" stroke-dasharray="5,2" d="M33.7762,-558.79C33.0668,-553.984 32.4065,-548.812 32,-544 30.811,-529.926 30.7435,-513.501 30.843,-503.692"/>
<polygon fill="#9a32cd" stroke="#9a32cd" points="30.375,-559.684 35.4242,-568.998 37.2856,-558.568 30.375,-559.684"/>
<text text-anchor="middle" x="41.5" y="-530.5" font-family="Helvetica,sans-Serif" font-size="10.00"> i_ci</text>
</g>
<!-- Node2&#45;&gt;Node2 -->
<g id="edge32" class="edge"><title>Node2&#45;&gt;Node2</title>
<path fill="none" stroke="#9a32cd" stroke-dasharray="5,2" d="M71.4246,-585.779C75.9786,-584.54 79,-582.113 79,-578.5 79,-572.57 70.8635,-569.837 61.1697,-570.3"/>
<polygon fill="#9a32cd" stroke="#9a32cd" points="70.8168,-582.32 61.1697,-586.7 71.4425,-589.292 70.8168,-582.32"/>
<text text-anchor="middle" x="98.5" y="-581.5" font-family="Helvetica,sans-Serif" font-size="10.00"> previous</text>
<text text-anchor="middle" x="98.5" y="-570.5" font-family="Helvetica,sans-Serif" font-size="10.00">next</text>
</g>
<!-- Node5 -->
<g id="node5" class="node"><title>Node5</title>
<g id="a_node5"><a xlink:href="structlua___state.html" target="_top" xlink:title=" ">
<polygon fill="white" stroke="black" points="212,-484.5 212,-503.5 270,-503.5 270,-484.5 212,-484.5"/>
<text text-anchor="middle" x="241" y="-491.5" font-family="Helvetica,sans-Serif" font-size="10.00">lua_State</text>
</a>
</g>
</g>
<!-- Node2&#45;&gt;Node5 -->
<g id="edge31" class="edge"><title>Node2&#45;&gt;Node5</title>
<path fill="none" stroke="#9a32cd" stroke-dasharray="5,2" d="M58.247,-562.927C66.1917,-557.247 75.1799,-550.538 83,-544 93.8527,-534.927 93.4548,-528.536 106,-522 139.598,-504.496 183.342,-498.317 211.79,-496.149"/>
<polygon fill="#9a32cd" stroke="#9a32cd" points="56.0054,-560.225 49.8385,-568.84 60.0319,-565.951 56.0054,-560.225"/>
<text text-anchor="middle" x="123" y="-536" font-family="Helvetica,sans-Serif" font-size="10.00"> ci</text>
<text text-anchor="middle" x="123" y="-525" font-family="Helvetica,sans-Serif" font-size="10.00">base_ci</text>
</g>
<!-- Node3 -->
<g id="node3" class="node"><title>Node3</title>
<g id="a_node3"><a xlink:href="union_stack_value.html" target="_top" xlink:title=" ">
<polygon fill="white" stroke="black" points="120.5,-653.5 120.5,-672.5 187.5,-672.5 187.5,-653.5 120.5,-653.5"/>
<text text-anchor="middle" x="154" y="-660.5" font-family="Helvetica,sans-Serif" font-size="10.00">StackValue</text>
</a>
</g>
</g>
<!-- Node3&#45;&gt;Node2 -->
<g id="edge2" class="edge"><title>Node3&#45;&gt;Node2</title>
<path fill="none" stroke="#9a32cd" stroke-dasharray="5,2" d="M133.718,-647.699C109.345,-630.512 69.2311,-602.227 49.1899,-588.095"/>
<polygon fill="#9a32cd" stroke="#9a32cd" points="131.73,-650.579 141.92,-653.482 135.764,-644.859 131.73,-650.579"/>
<text text-anchor="middle" x="124" y="-627" font-family="Helvetica,sans-Serif" font-size="10.00"> func</text>
<text text-anchor="middle" x="124" y="-616" font-family="Helvetica,sans-Serif" font-size="10.00">top</text>
</g>
<!-- Node3&#45;&gt;Node5 -->
<g id="edge10" class="edge"><title>Node3&#45;&gt;Node5</title>
<path fill="none" stroke="#9a32cd" stroke-dasharray="5,2" d="M157.502,-643.203C161.89,-622.424 170.631,-588.402 185,-562 197.754,-538.564 219.44,-515.685 231.748,-503.674"/>
<polygon fill="#9a32cd" stroke="#9a32cd" points="154.021,-642.762 155.504,-653.252 160.887,-644.127 154.021,-642.762"/>
<text text-anchor="middle" x="208" y="-587" font-family="Helvetica,sans-Serif" font-size="10.00"> stack</text>
<text text-anchor="middle" x="208" y="-576" font-family="Helvetica,sans-Serif" font-size="10.00">stack_last</text>
<text text-anchor="middle" x="208" y="-565" font-family="Helvetica,sans-Serif" font-size="10.00">top</text>
</g>
<!-- Node4 -->
<g id="node4" class="node"><title>Node4</title>
<g id="a_node4"><a xlink:href="struct_t_value.html" target="_top" xlink:title=" ">
<polygon fill="white" stroke="black" points="429.5,-731.5 429.5,-750.5 476.5,-750.5 476.5,-731.5 429.5,-731.5"/>
<text text-anchor="middle" x="453" y="-738.5" font-family="Helvetica,sans-Serif" font-size="10.00">TValue</text>
</a>
</g>
</g>
<!-- Node4&#45;&gt;Node3 -->
<g id="edge3" class="edge"><title>Node4&#45;&gt;Node3</title>
<path fill="none" stroke="#9a32cd" stroke-dasharray="5,2" d="M419.488,-733.948C392.703,-728.917 354.267,-721.267 321,-713 271.004,-700.575 213.527,-682.965 180.711,-672.588"/>
<polygon fill="#9a32cd" stroke="#9a32cd" points="419.029,-737.422 429.5,-735.808 420.307,-730.54 419.029,-737.422"/>
<text text-anchor="middle" x="328.5" y="-699.5" font-family="Helvetica,sans-Serif" font-size="10.00"> val</text>
</g>
<!-- Node6 -->
<g id="node6" class="node"><title>Node6</title>
<g id="a_node6"><a xlink:href="struct_up_val.html" target="_top" xlink:title=" ">
<polygon fill="white" stroke="black" points="276.5,-614.5 276.5,-633.5 319.5,-633.5 319.5,-614.5 276.5,-614.5"/>
<text text-anchor="middle" x="298" y="-621.5" font-family="Helvetica,sans-Serif" font-size="10.00">UpVal</text>
</a>
</g>
</g>
<!-- Node4&#45;&gt;Node6 -->
<g id="edge7" class="edge"><title>Node4&#45;&gt;Node6</title>
<path fill="none" stroke="#9a32cd" stroke-dasharray="5,2" d="M431.693,-725.496C425.916,-721.497 419.688,-717.124 414,-713 374.91,-684.662 329.577,-649.624 309.077,-633.658"/>
<polygon fill="#9a32cd" stroke="#9a32cd" points="430.033,-728.602 440.256,-731.383 433.998,-722.834 430.033,-728.602"/>
<text text-anchor="middle" x="426.5" y="-705" font-family="Helvetica,sans-Serif" font-size="10.00"> value</text>
<text text-anchor="middle" x="426.5" y="-694" font-family="Helvetica,sans-Serif" font-size="10.00">v</text>
</g>
<!-- Node8 -->
<g id="node8" class="node"><title>Node8</title>
<g id="a_node8"><a xlink:href="structglobal___state.html" target="_top" xlink:title=" ">
<polygon fill="white" stroke="black" points="361.5,-0.5 361.5,-19.5 432.5,-19.5 432.5,-0.5 361.5,-0.5"/>
<text text-anchor="middle" x="397" y="-7.5" font-family="Helvetica,sans-Serif" font-size="10.00">global_State</text>
</a>
</g>
</g>
<!-- Node4&#45;&gt;Node8 -->
<g id="edge27" class="edge"><title>Node4&#45;&gt;Node8</title>
<path fill="none" stroke="#9a32cd" stroke-dasharray="5,2" d="M452.484,-721.001C451.258,-688.175 447.199,-618.892 434,-562 423.736,-517.761 409.131,-510.269 399,-466 370.3,-340.595 376.453,-306.485 370,-178 366.921,-116.695 386.866,-44.1808 394.293,-19.621"/>
<polygon fill="#9a32cd" stroke="#9a32cd" points="448.997,-721.473 452.819,-731.355 455.994,-721.247 448.997,-721.473"/>
<text text-anchor="middle" x="414.5" y="-429" font-family="Helvetica,sans-Serif" font-size="10.00"> l_registry</text>
<text text-anchor="middle" x="414.5" y="-418" font-family="Helvetica,sans-Serif" font-size="10.00">nilvalue</text>
</g>
<!-- Node11 -->
<g id="node11" class="node"><title>Node11</title>
<g id="a_node11"><a xlink:href="struct_table.html" target="_top" xlink:title=" ">
<polygon fill="white" stroke="black" points="547,-74 547,-93 587,-93 587,-74 547,-74"/>
<text text-anchor="middle" x="567" y="-81" font-family="Helvetica,sans-Serif" font-size="10.00">Table</text>
</a>
</g>
</g>
<!-- Node4&#45;&gt;Node11 -->
<g id="edge25" class="edge"><title>Node4&#45;&gt;Node11</title>
<path fill="none" stroke="#9a32cd" stroke-dasharray="5,2" d="M466.995,-723.292C477.828,-708.631 491,-686.234 491,-664 491,-664 491,-664 491,-390.5 491,-284.987 503.864,-257.49 539,-158 547.367,-134.309 558.171,-106.703 563.587,-93.0495"/>
<polygon fill="#9a32cd" stroke="#9a32cd" points="464.095,-721.318 460.69,-731.35 469.608,-725.631 464.095,-721.318"/>
<text text-anchor="middle" x="503.5" y="-458" font-family="Helvetica,sans-Serif" font-size="10.00"> array</text>
</g>
<!-- Node12 -->
<g id="node12" class="node"><title>Node12</title>
<g id="a_node12"><a xlink:href="union_node.html" target="_top" xlink:title=" ">
<polygon fill="white" stroke="black" points="547.5,-158.5 547.5,-177.5 586.5,-177.5 586.5,-158.5 547.5,-158.5"/>
<text text-anchor="middle" x="567" y="-165.5" font-family="Helvetica,sans-Serif" font-size="10.00">Node</text>
</a>
</g>
</g>
<!-- Node4&#45;&gt;Node12 -->
<g id="edge22" class="edge"><title>Node4&#45;&gt;Node12</title>
<path fill="none" stroke="#9a32cd" stroke-dasharray="5,2" d="M487.196,-738.623C566.455,-734.501 756,-718.905 756,-664 756,-664 756,-664 756,-306.5 756,-277.985 751.568,-267.741 732,-247 690.905,-203.441 620.554,-181.685 586.545,-173.281"/>
<polygon fill="#9a32cd" stroke="#9a32cd" points="486.593,-735.148 476.776,-739.131 486.935,-742.14 486.593,-735.148"/>
<text text-anchor="middle" x="767" y="-491.5" font-family="Helvetica,sans-Serif" font-size="10.00"> i_val</text>
</g>
<!-- Node5&#45;&gt;Node2 -->
<g id="edge4" class="edge"><title>Node5&#45;&gt;Node2</title>
<path fill="none" stroke="#9a32cd" stroke-dasharray="5,2" d="M201.77,-497.727C159.216,-501.309 94.5952,-508.754 74,-522 56.4683,-533.275 45.2983,-556.133 40.2113,-568.711"/>
<polygon fill="#9a32cd" stroke="#9a32cd" points="202.122,-501.21 211.808,-496.919 201.56,-494.233 202.122,-501.21"/>
<text text-anchor="middle" x="78.5" y="-530.5" font-family="Helvetica,sans-Serif" font-size="10.00"> k</text>
</g>
<!-- Node5&#45;&gt;Node5 -->
<g id="edge30" class="edge"><title>Node5&#45;&gt;Node5</title>
<path fill="none" stroke="#9a32cd" stroke-dasharray="5,2" d="M280.603,-499.084C285.091,-498.132 288,-496.438 288,-494 288,-490 280.167,-488 270.375,-488"/>
<polygon fill="#9a32cd" stroke="#9a32cd" points="280.023,-495.622 270.375,-500 280.647,-502.594 280.023,-495.622"/>
<text text-anchor="middle" x="302.5" y="-491.5" font-family="Helvetica,sans-Serif" font-size="10.00"> twups</text>
</g>
<!-- Node5&#45;&gt;Node8 -->
<g id="edge28" class="edge"><title>Node5&#45;&gt;Node8</title>
<path fill="none" stroke="#9a32cd" stroke-dasharray="5,2" d="M241,-474.286C241,-461.073 241,-442.952 241,-427 241,-427 241,-427 241,-82.5 241,-29.9162 315.154,-15.8533 361.21,-12.1901"/>
<polygon fill="#9a32cd" stroke="#9a32cd" points="237.5,-474.456 241,-484.456 244.5,-474.456 237.5,-474.456"/>
<text text-anchor="middle" x="265.5" y="-221" font-family="Helvetica,sans-Serif" font-size="10.00"> panic</text>
<text text-anchor="middle" x="265.5" y="-210" font-family="Helvetica,sans-Serif" font-size="10.00">mainthread</text>
<text text-anchor="middle" x="265.5" y="-199" font-family="Helvetica,sans-Serif" font-size="10.00">twups</text>
</g>
<!-- Node14 -->
<g id="node14" class="node"><title>Node14</title>
<g id="a_node14"><a xlink:href="union_value.html" target="_top" xlink:title=" ">
<polygon fill="white" stroke="black" points="541.5,-416.5 541.5,-435.5 582.5,-435.5 582.5,-416.5 541.5,-416.5"/>
<text text-anchor="middle" x="562" y="-423.5" font-family="Helvetica,sans-Serif" font-size="10.00">Value</text>
</a>
</g>
</g>
<!-- Node5&#45;&gt;Node14 -->
<g id="edge21" class="edge"><title>Node5&#45;&gt;Node14</title>
<path fill="none" stroke="#9a32cd" stroke-dasharray="5,2" d="M280.042,-484.973C348.715,-470.853 488.826,-442.045 541.431,-431.229"/>
<polygon fill="#9a32cd" stroke="#9a32cd" points="279.143,-481.584 270.053,-487.027 280.553,-488.441 279.143,-481.584"/>
<text text-anchor="middle" x="424" y="-458" font-family="Helvetica,sans-Serif" font-size="10.00"> f</text>
</g>
<!-- Node6&#45;&gt;Node5 -->
<g id="edge5" class="edge"><title>Node6&#45;&gt;Node5</title>
<path fill="none" stroke="#9a32cd" stroke-dasharray="5,2" d="M267.048,-613.295C258.481,-609.062 250.134,-603.146 245,-595 226.657,-565.896 234.295,-521.992 238.698,-503.591"/>
<polygon fill="#9a32cd" stroke="#9a32cd" points="265.717,-616.532 276.288,-617.254 268.474,-610.098 265.717,-616.532"/>
<text text-anchor="middle" x="268" y="-576" font-family="Helvetica,sans-Serif" font-size="10.00"> openupval</text>
</g>
<!-- Node6&#45;&gt;Node6 -->
<g id="edge6" class="edge"><title>Node6&#45;&gt;Node6</title>
<path fill="none" stroke="#9a32cd" stroke-dasharray="5,2" d="M329.809,-630.42C334.406,-629.397 337.5,-627.256 337.5,-624 337.5,-618.656 329.168,-616.318 319.534,-616.986"/>
<polygon fill="#9a32cd" stroke="#9a32cd" points="329.316,-626.943 319.534,-631.014 329.719,-633.931 329.316,-626.943"/>
<text text-anchor="middle" x="357" y="-627" font-family="Helvetica,sans-Serif" font-size="10.00"> previous</text>
<text text-anchor="middle" x="357" y="-616" font-family="Helvetica,sans-Serif" font-size="10.00">next</text>
</g>
<!-- Node7 -->
<g id="node7" class="node"><title>Node7</title>
<g id="a_node7"><a xlink:href="structlua__longjmp.html" target="_top" xlink:title=" ">
<polygon fill="white" stroke="black" points="300,-569 300,-588 368,-588 368,-569 300,-569"/>
<text text-anchor="middle" x="334" y="-576" font-family="Helvetica,sans-Serif" font-size="10.00">lua_longjmp</text>
</a>
</g>
</g>
<!-- Node7&#45;&gt;Node5 -->
<g id="edge8" class="edge"><title>Node7&#45;&gt;Node5</title>
<path fill="none" stroke="#9a32cd" stroke-dasharray="5,2" d="M316.848,-562.284C297.391,-545.024 266.34,-517.479 250.689,-503.595"/>
<polygon fill="#9a32cd" stroke="#9a32cd" points="314.594,-564.964 324.398,-568.982 319.24,-559.727 314.594,-564.964"/>
<text text-anchor="middle" x="316.5" y="-530.5" font-family="Helvetica,sans-Serif" font-size="10.00"> errorJmp</text>
</g>
<!-- Node7&#45;&gt;Node7 -->
<g id="edge9" class="edge"><title>Node7&#45;&gt;Node7</title>
<path fill="none" stroke="#9a32cd" stroke-dasharray="5,2" d="M378.148,-585.401C382.925,-584.077 386,-581.776 386,-578.5 386,-573.258 378.127,-570.514 368.008,-570.268"/>
<polygon fill="#9a32cd" stroke="#9a32cd" points="377.468,-581.961 368.008,-586.732 378.379,-588.901 377.468,-581.961"/>
<text text-anchor="middle" x="405.5" y="-576" font-family="Helvetica,sans-Serif" font-size="10.00"> previous</text>
</g>
<!-- Node8&#45;&gt;Node5 -->
<g id="edge11" class="edge"><title>Node8&#45;&gt;Node5</title>
<path fill="none" stroke="#9a32cd" stroke-dasharray="5,2" d="M358.984,-23.5818C351.115,-27.3701 343.31,-32.1269 337,-38 320.551,-53.3091 313,-60.0292 313,-82.5 313,-427 313,-427 313,-427 313,-454.81 283.451,-474.075 262.213,-484.33"/>
<polygon fill="#9a32cd" stroke="#9a32cd" points="360.402,-26.7814 368.165,-19.5707 357.6,-20.3668 360.402,-26.7814"/>
<text text-anchor="middle" x="322.5" y="-210" font-family="Helvetica,sans-Serif" font-size="10.00"> l_G</text>
</g>
<!-- Node9 -->
<g id="node9" class="node"><title>Node9</title>
<g id="a_node9"><a xlink:href="structstringtable.html" target="_top" xlink:title=" ">
<polygon fill="white" stroke="black" points="467,-74 467,-93 529,-93 529,-74 467,-74"/>
<text text-anchor="middle" x="498" y="-81" font-family="Helvetica,sans-Serif" font-size="10.00">stringtable</text>
</a>
</g>
</g>
<!-- Node9&#45;&gt;Node8 -->
<g id="edge12" class="edge"><title>Node9&#45;&gt;Node8</title>
<path fill="none" stroke="#9a32cd" stroke-dasharray="5,2" d="M477.253,-67.8131C456.735,-53.2878 426.032,-31.5521 409.17,-19.6157"/>
<polygon fill="#9a32cd" stroke="#9a32cd" points="475.431,-70.8114 485.615,-73.7327 479.476,-65.0981 475.431,-70.8114"/>
<text text-anchor="middle" x="460" y="-41" font-family="Helvetica,sans-Serif" font-size="10.00"> strt</text>
</g>
<!-- Node10 -->
<g id="node10" class="node"><title>Node10</title>
<g id="a_node10"><a xlink:href="struct_t_string.html" target="_top" xlink:title=" ">
<polygon fill="white" stroke="black" points="379.5,-158.5 379.5,-177.5 426.5,-177.5 426.5,-158.5 379.5,-158.5"/>
<text text-anchor="middle" x="403" y="-165.5" font-family="Helvetica,sans-Serif" font-size="10.00">TString</text>
</a>
</g>
</g>
<!-- Node10&#45;&gt;Node8 -->
<g id="edge15" class="edge"><title>Node10&#45;&gt;Node8</title>
<path fill="none" stroke="#9a32cd" stroke-dasharray="5,2" d="M402.259,-147.735C400.95,-113.691 398.276,-44.1804 397.336,-19.7373"/>
<polygon fill="#9a32cd" stroke="#9a32cd" points="398.778,-148.308 402.66,-158.166 405.773,-148.039 398.778,-148.308"/>
<text text-anchor="middle" x="427" y="-92" font-family="Helvetica,sans-Serif" font-size="10.00"> strcache</text>
<text text-anchor="middle" x="427" y="-81" font-family="Helvetica,sans-Serif" font-size="10.00">tmname</text>
<text text-anchor="middle" x="427" y="-70" font-family="Helvetica,sans-Serif" font-size="10.00">memerrmsg</text>
</g>
<!-- Node10&#45;&gt;Node9 -->
<g id="edge13" class="edge"><title>Node10&#45;&gt;Node9</title>
<path fill="none" stroke="#9a32cd" stroke-dasharray="5,2" d="M420.521,-151.784C440.397,-134.524 472.115,-106.979 488.102,-93.0955"/>
<polygon fill="#9a32cd" stroke="#9a32cd" points="418.064,-149.282 412.809,-158.482 422.654,-154.568 418.064,-149.282"/>
<text text-anchor="middle" x="472.5" y="-126.5" font-family="Helvetica,sans-Serif" font-size="10.00"> hash</text>
</g>
<!-- Node10&#45;&gt;Node10 -->
<g id="edge14" class="edge"><title>Node10&#45;&gt;Node10</title>
<path fill="none" stroke="#9a32cd" stroke-dasharray="5,2" d="M437.015,-174.287C441.515,-173.216 444.5,-171.121 444.5,-168 444.5,-162.879 436.46,-160.518 426.882,-160.918"/>
<polygon fill="#9a32cd" stroke="#9a32cd" points="436.578,-170.81 426.882,-175.082 437.125,-177.789 436.578,-170.81"/>
<text text-anchor="middle" x="458.5" y="-165.5" font-family="Helvetica,sans-Serif" font-size="10.00"> hnext</text>
</g>
<!-- Node11&#45;&gt;Node8 -->
<g id="edge16" class="edge"><title>Node11&#45;&gt;Node8</title>
<path fill="none" stroke="#9a32cd" stroke-dasharray="5,2" d="M542.203,-69.0977C540.786,-68.3783 539.378,-67.6746 538,-67 509.588,-53.091 502.371,-49.7484 473,-38 456.359,-31.3436 437.359,-24.5936 422.519,-19.5077"/>
<polygon fill="#9a32cd" stroke="#9a32cd" points="540.969,-72.4015 551.453,-73.9282 544.209,-66.1966 540.969,-72.4015"/>
<text text-anchor="middle" x="507.5" y="-41" font-family="Helvetica,sans-Serif" font-size="10.00"> mt</text>
</g>
<!-- Node11&#45;&gt;Node11 -->
<g id="edge23" class="edge"><title>Node11&#45;&gt;Node11</title>
<path fill="none" stroke="#9a32cd" stroke-dasharray="5,2" d="M597.416,-90.3026C601.94,-89.2429 605,-86.9753 605,-83.5 605,-77.7969 596.76,-75.3463 587.329,-76.1483"/>
<polygon fill="#9a32cd" stroke="#9a32cd" points="597.124,-86.8132 587.329,-90.8517 597.505,-93.8029 597.124,-86.8132"/>
<text text-anchor="middle" x="628" y="-81" font-family="Helvetica,sans-Serif" font-size="10.00"> metatable</text>
</g>
<!-- Node12&#45;&gt;Node11 -->
<g id="edge17" class="edge"><title>Node12&#45;&gt;Node11</title>
<path fill="none" stroke="#9a32cd" stroke-dasharray="5,2" d="M567,-148.433C567,-131.134 567,-106.111 567,-93.0955"/>
<polygon fill="#9a32cd" stroke="#9a32cd" points="563.5,-148.482 567,-158.482 570.5,-148.482 563.5,-148.482"/>
<text text-anchor="middle" x="583" y="-132" font-family="Helvetica,sans-Serif" font-size="10.00"> node</text>
<text text-anchor="middle" x="583" y="-121" font-family="Helvetica,sans-Serif" font-size="10.00">lastfree</text>
</g>
<!-- Node13 -->
<g id="node13" class="node"><title>Node13</title>
<g id="a_node13"><a xlink:href="struct_node_1_1_node_key.html" target="_top" xlink:title=" ">
<polygon fill="white" stroke="black" points="519.5,-298 519.5,-317 604.5,-317 604.5,-298 519.5,-298"/>
<text text-anchor="middle" x="562" y="-305" font-family="Helvetica,sans-Serif" font-size="10.00">Node::NodeKey</text>
</a>
</g>
</g>
<!-- Node13&#45;&gt;Node12 -->
<g id="edge18" class="edge"><title>Node13&#45;&gt;Node12</title>
<path fill="none" stroke="#9a32cd" stroke-dasharray="5,2" d="M562.678,-287.862C563.773,-257.731 565.891,-199.49 566.687,-177.598"/>
<polygon fill="#9a32cd" stroke="#9a32cd" points="559.179,-287.778 562.313,-297.899 566.174,-288.033 559.179,-287.778"/>
<text text-anchor="middle" x="569.5" y="-210" font-family="Helvetica,sans-Serif" font-size="10.00"> u</text>
</g>
<!-- Node14&#45;&gt;Node13 -->
<g id="edge19" class="edge"><title>Node14&#45;&gt;Node13</title>
<path fill="none" stroke="#9a32cd" stroke-dasharray="5,2" d="M562,-405.943C562,-380.272 562,-335.657 562,-317.041"/>
<polygon fill="#9a32cd" stroke="#9a32cd" points="558.5,-406.244 562,-416.244 565.5,-406.244 558.5,-406.244"/>
<text text-anchor="middle" x="580" y="-389" font-family="Helvetica,sans-Serif" font-size="10.00"> key_val</text>
</g>
<!-- Node15 -->
<g id="node15" class="node"><title>Node15</title>
<g id="a_node15"><a xlink:href="struct_g_c_object.html" target="_top" xlink:title=" ">
<polygon fill="white" stroke="black" points="579.5,-569 579.5,-588 638.5,-588 638.5,-569 579.5,-569"/>
<text text-anchor="middle" x="609" y="-576" font-family="Helvetica,sans-Serif" font-size="10.00">GCObject</text>
</a>
</g>
</g>
<!-- Node15&#45;&gt;Node5 -->
<g id="edge29" class="edge"><title>Node15&#45;&gt;Node5</title>
<path fill="none" stroke="#9a32cd" stroke-dasharray="5,2" d="M569.259,-568.591C494.716,-551.879 335.54,-516.194 270.058,-501.514"/>
<polygon fill="#9a32cd" stroke="#9a32cd" points="568.673,-572.046 579.197,-570.819 570.205,-565.216 568.673,-572.046"/>
<text text-anchor="middle" x="471.5" y="-530.5" font-family="Helvetica,sans-Serif" font-size="10.00"> gclist</text>
</g>
<!-- Node15&#45;&gt;Node8 -->
<g id="edge26" class="edge"><title>Node15&#45;&gt;Node8</title>
<path fill="none" stroke="#9a32cd" stroke-dasharray="5,2" d="M632.388,-563.204C652.74,-548.776 679,-524.453 679,-495 679,-495 679,-495 679,-82.5 679,-32.2451 508.598,-16.916 432.715,-12.5812"/>
<polygon fill="#9a32cd" stroke="#9a32cd" points="630.194,-560.461 623.845,-568.944 634.098,-566.272 630.194,-560.461"/>
<text text-anchor="middle" x="703.5" y="-360" font-family="Helvetica,sans-Serif" font-size="10.00"> finobjrold</text>
<text text-anchor="middle" x="703.5" y="-349" font-family="Helvetica,sans-Serif" font-size="10.00">fixedgc</text>
<text text-anchor="middle" x="703.5" y="-338" font-family="Helvetica,sans-Serif" font-size="10.00">gray</text>
<text text-anchor="middle" x="703.5" y="-327" font-family="Helvetica,sans-Serif" font-size="10.00">grayagain</text>
<text text-anchor="middle" x="703.5" y="-316" font-family="Helvetica,sans-Serif" font-size="10.00">tobefnz</text>
<text text-anchor="middle" x="703.5" y="-305" font-family="Helvetica,sans-Serif" font-size="10.00">reallyold</text>
<text text-anchor="middle" x="703.5" y="-294" font-family="Helvetica,sans-Serif" font-size="10.00">allgc</text>
<text text-anchor="middle" x="703.5" y="-283" font-family="Helvetica,sans-Serif" font-size="10.00">survival</text>
<text text-anchor="middle" x="703.5" y="-272" font-family="Helvetica,sans-Serif" font-size="10.00">weak</text>
<text text-anchor="middle" x="703.5" y="-261" font-family="Helvetica,sans-Serif" font-size="10.00">ephemeron</text>
<text text-anchor="middle" x="703.5" y="-250" font-family="Helvetica,sans-Serif" font-size="10.00">...</text>
</g>
<!-- Node15&#45;&gt;Node11 -->
<g id="edge24" class="edge"><title>Node15&#45;&gt;Node11</title>
<path fill="none" stroke="#9a32cd" stroke-dasharray="5,2" d="M617.586,-559.129C624.475,-542.695 633,-517.76 633,-495 633,-495 633,-495 633,-167 633,-133.8 600.007,-106.306 580.675,-93.0454"/>
<polygon fill="#9a32cd" stroke="#9a32cd" points="614.245,-558.03 613.402,-568.592 620.647,-560.861 614.245,-558.03"/>
<text text-anchor="middle" x="646.5" y="-389" font-family="Helvetica,sans-Serif" font-size="10.00"> gclist</text>
</g>
<!-- Node15&#45;&gt;Node14 -->
<g id="edge20" class="edge"><title>Node15&#45;&gt;Node14</title>
<path fill="none" stroke="#9a32cd" stroke-dasharray="5,2" d="M603.346,-559.394C593.198,-526.899 572.253,-459.831 564.749,-435.804"/>
<polygon fill="#9a32cd" stroke="#9a32cd" points="600.017,-560.475 606.338,-568.977 606.698,-558.389 600.017,-560.475"/>
<text text-anchor="middle" x="592" y="-491.5" font-family="Helvetica,sans-Serif" font-size="10.00"> gc</text>
</g>
</g>
</svg>
