<?xml version="1.0" encoding="UTF-8" standalone="no"?>
<!DOCTYPE svg PUBLIC "-//W3C//DTD SVG 1.1//EN"
 "http://www.w3.org/Graphics/SVG/1.1/DTD/svg11.dtd">
<!-- Generated by graphviz version 2.38.0 (20140413.2041)
 -->
<!-- Title: GCUnion Pages: 1 -->
<svg width="1338pt" height="772pt"
 viewBox="0.00 0.00 1338.00 772.00" xmlns="http://www.w3.org/2000/svg" xmlns:xlink="http://www.w3.org/1999/xlink">
<g id="graph0" class="graph" transform="scale(1 1) rotate(0) translate(4 768)">
<title>GCUnion</title>
<polygon fill="white" stroke="none" points="-4,4 -4,-768 1334,-768 1334,4 -4,4"/>
<!-- Node1 -->
<g id="node1" class="node"><title>Node1</title>
<g id="a_node1"><a xlink:title=" ">
<polygon fill="#bfbfbf" stroke="black" points="737,-0.5 737,-19.5 793,-19.5 793,-0.5 737,-0.5"/>
<text text-anchor="middle" x="765" y="-7.5" font-family="Helvetica,sans-Serif" font-size="10.00">GCUnion</text>
</a>
</g>
</g>
<!-- Node2 -->
<g id="node2" class="node"><title>Node2</title>
<g id="a_node2"><a xlink:href="struct_up_val.html" target="_top" xlink:title=" ">
<polygon fill="white" stroke="black" points="492.5,-665.5 492.5,-684.5 535.5,-684.5 535.5,-665.5 492.5,-665.5"/>
<text text-anchor="middle" x="514" y="-672.5" font-family="Helvetica,sans-Serif" font-size="10.00">UpVal</text>
</a>
</g>
</g>
<!-- Node2&#45;&gt;Node1 -->
<g id="edge1" class="edge"><title>Node2&#45;&gt;Node1</title>
<path fill="none" stroke="#9a32cd" stroke-dasharray="5,2" d="M523.961,-656.617C531.294,-644.182 541.733,-627.202 552,-613 558.101,-604.561 562.71,-604.489 567,-595 596.142,-530.55 616,-351.232 616,-280.5 616,-280.5 616,-280.5 616,-76 616,-23.7886 693.813,-13.0939 736.974,-11.1778"/>
<polygon fill="#9a32cd" stroke="#9a32cd" points="520.812,-655.071 518.81,-665.475 526.863,-658.59 520.812,-655.071"/>
<text text-anchor="middle" x="625" y="-277" font-family="Helvetica,sans-Serif" font-size="10.00"> upv</text>
</g>
<!-- Node2&#45;&gt;Node2 -->
<g id="edge2" class="edge"><title>Node2&#45;&gt;Node2</title>
<path fill="none" stroke="#9a32cd" stroke-dasharray="5,2" d="M545.809,-681.758C550.406,-680.681 553.5,-678.428 553.5,-675 553.5,-669.375 545.168,-666.914 535.534,-667.617"/>
<polygon fill="#9a32cd" stroke="#9a32cd" points="545.303,-678.283 535.534,-682.383 545.728,-685.27 545.303,-678.283"/>
<text text-anchor="middle" x="573" y="-678" font-family="Helvetica,sans-Serif" font-size="10.00"> previous</text>
<text text-anchor="middle" x="573" y="-667" font-family="Helvetica,sans-Serif" font-size="10.00">next</text>
</g>
<!-- Node12 -->
<g id="node12" class="node"><title>Node12</title>
<g id="a_node12"><a xlink:href="structlua___state.html" target="_top" xlink:title=" ">
<polygon fill="white" stroke="black" points="708,-574.5 708,-593.5 766,-593.5 766,-574.5 708,-574.5"/>
<text text-anchor="middle" x="737" y="-581.5" font-family="Helvetica,sans-Serif" font-size="10.00">lua_State</text>
</a>
</g>
</g>
<!-- Node2&#45;&gt;Node12 -->
<g id="edge20" class="edge"><title>Node2&#45;&gt;Node12</title>
<path fill="none" stroke="#9a32cd" stroke-dasharray="5,2" d="M533.663,-659.337C553.123,-645.488 584.234,-625.089 614,-613 644.842,-600.474 682.422,-592.951 707.865,-588.907"/>
<polygon fill="#9a32cd" stroke="#9a32cd" points="531.389,-656.662 525.346,-665.364 535.497,-662.33 531.389,-656.662"/>
<text text-anchor="middle" x="637" y="-627" font-family="Helvetica,sans-Serif" font-size="10.00"> openupval</text>
</g>
<!-- Node22 -->
<g id="node22" class="node"><title>Node22</title>
<g id="a_node22"><a xlink:href="struct_l_closure.html" target="_top" xlink:title=" ">
<polygon fill="white" stroke="black" points="368.5,-134.5 368.5,-153.5 423.5,-153.5 423.5,-134.5 368.5,-134.5"/>
<text text-anchor="middle" x="396" y="-141.5" font-family="Helvetica,sans-Serif" font-size="10.00">LClosure</text>
</a>
</g>
</g>
<!-- Node2&#45;&gt;Node22 -->
<g id="edge49" class="edge"><title>Node2&#45;&gt;Node22</title>
<path fill="none" stroke="#9a32cd" stroke-dasharray="5,2" d="M499.393,-657.11C496.726,-653.575 494.12,-649.772 492,-646 452.24,-575.259 446.294,-554.059 428,-475 398.997,-349.664 396.245,-191.647 396.014,-153.545"/>
<polygon fill="#9a32cd" stroke="#9a32cd" points="496.901,-659.595 505.908,-665.174 502.346,-655.196 496.901,-659.595"/>
<text text-anchor="middle" x="443.5" y="-461.5" font-family="Helvetica,sans-Serif" font-size="10.00"> upvals</text>
</g>
<!-- Node3 -->
<g id="node3" class="node"><title>Node3</title>
<g id="a_node3"><a xlink:href="struct_t_value.html" target="_top" xlink:title=" ">
<polygon fill="white" stroke="black" points="773.5,-744.5 773.5,-763.5 820.5,-763.5 820.5,-744.5 773.5,-744.5"/>
<text text-anchor="middle" x="797" y="-751.5" font-family="Helvetica,sans-Serif" font-size="10.00">TValue</text>
</a>
</g>
</g>
<!-- Node3&#45;&gt;Node2 -->
<g id="edge3" class="edge"><title>Node3&#45;&gt;Node2</title>
<path fill="none" stroke="#9a32cd" stroke-dasharray="5,2" d="M763.179,-746.012C739.274,-740.907 706.538,-733.577 678,-726 626.503,-712.327 566.841,-693.33 535.609,-683.138"/>
<polygon fill="#9a32cd" stroke="#9a32cd" points="762.661,-749.48 773.169,-748.127 764.11,-742.632 762.661,-749.48"/>
<text text-anchor="middle" x="690.5" y="-718" font-family="Helvetica,sans-Serif" font-size="10.00"> value</text>
<text text-anchor="middle" x="690.5" y="-707" font-family="Helvetica,sans-Serif" font-size="10.00">v</text>
</g>
<!-- Node4 -->
<g id="node4" class="node"><title>Node4</title>
<g id="a_node4"><a xlink:href="struct_proto.html" target="_top" xlink:title=" ">
<polygon fill="white" stroke="black" points="268,-219 268,-238 308,-238 308,-219 268,-219"/>
<text text-anchor="middle" x="288" y="-226" font-family="Helvetica,sans-Serif" font-size="10.00">Proto</text>
</a>
</g>
</g>
<!-- Node3&#45;&gt;Node4 -->
<g id="edge14" class="edge"><title>Node3&#45;&gt;Node4</title>
<path fill="none" stroke="#9a32cd" stroke-dasharray="5,2" d="M763.228,-753.171C616.048,-753.478 38,-749.975 38,-676 38,-676 38,-676 38,-373.5 38,-319.41 44.0129,-293.031 89,-263 118.139,-243.549 223.208,-234.043 267.782,-230.815"/>
<polygon fill="#9a32cd" stroke="#9a32cd" points="763.462,-756.67 773.452,-753.141 763.442,-749.67 763.462,-756.67"/>
<text text-anchor="middle" x="42.5" y="-541.5" font-family="Helvetica,sans-Serif" font-size="10.00"> k</text>
</g>
<!-- Node11 -->
<g id="node11" class="node"><title>Node11</title>
<g id="a_node11"><a xlink:href="struct_c_closure.html" target="_top" xlink:title=" ">
<polygon fill="white" stroke="black" points="497,-494.5 497,-513.5 553,-513.5 553,-494.5 497,-494.5"/>
<text text-anchor="middle" x="525" y="-501.5" font-family="Helvetica,sans-Serif" font-size="10.00">CClosure</text>
</a>
</g>
</g>
<!-- Node3&#45;&gt;Node11 -->
<g id="edge18" class="edge"><title>Node3&#45;&gt;Node11</title>
<path fill="none" stroke="#9a32cd" stroke-dasharray="5,2" d="M763.271,-750.257C724.114,-746.63 657.771,-739.113 602,-726 547.684,-713.229 527.397,-719.797 483,-686 455.475,-665.047 446.299,-646.204 456,-613 468.106,-571.567 501.489,-530.909 516.949,-513.645"/>
<polygon fill="#9a32cd" stroke="#9a32cd" points="763.054,-753.751 773.326,-751.158 763.679,-746.779 763.054,-753.751"/>
<text text-anchor="middle" x="474" y="-627" font-family="Helvetica,sans-Serif" font-size="10.00"> upvalue</text>
</g>
<!-- Node14 -->
<g id="node14" class="node"><title>Node14</title>
<g id="a_node14"><a xlink:href="union_stack_value.html" target="_top" xlink:title=" ">
<polygon fill="white" stroke="black" points="617.5,-665.5 617.5,-684.5 684.5,-684.5 684.5,-665.5 617.5,-665.5"/>
<text text-anchor="middle" x="651" y="-672.5" font-family="Helvetica,sans-Serif" font-size="10.00">StackValue</text>
</a>
</g>
</g>
<!-- Node3&#45;&gt;Node14 -->
<g id="edge24" class="edge"><title>Node3&#45;&gt;Node14</title>
<path fill="none" stroke="#9a32cd" stroke-dasharray="5,2" d="M771.811,-739.716C741.825,-723.901 692.624,-697.952 667.255,-684.573"/>
<polygon fill="#9a32cd" stroke="#9a32cd" points="770.34,-742.896 780.818,-744.465 773.605,-736.705 770.34,-742.896"/>
<text text-anchor="middle" x="753.5" y="-712.5" font-family="Helvetica,sans-Serif" font-size="10.00"> val</text>
</g>
<!-- Node15 -->
<g id="node15" class="node"><title>Node15</title>
<g id="a_node15"><a xlink:href="structglobal___state.html" target="_top" xlink:title=" ">
<polygon fill="white" stroke="black" points="739.5,-67.5 739.5,-86.5 810.5,-86.5 810.5,-67.5 739.5,-67.5"/>
<text text-anchor="middle" x="775" y="-74.5" font-family="Helvetica,sans-Serif" font-size="10.00">global_State</text>
</a>
</g>
</g>
<!-- Node3&#45;&gt;Node15 -->
<g id="edge40" class="edge"><title>Node3&#45;&gt;Node15</title>
<path fill="none" stroke="#9a32cd" stroke-dasharray="5,2" d="M818.157,-737.993C835.082,-724.071 856,-701.671 856,-676 856,-676 856,-676 856,-463 856,-351.413 879.45,-319.631 850,-212 835.858,-160.313 797.688,-107.184 781.94,-86.7406"/>
<polygon fill="#9a32cd" stroke="#9a32cd" points="815.559,-735.579 809.802,-744.474 819.849,-741.111 815.559,-735.579"/>
<text text-anchor="middle" x="877.5" y="-467" font-family="Helvetica,sans-Serif" font-size="10.00"> l_registry</text>
<text text-anchor="middle" x="877.5" y="-456" font-family="Helvetica,sans-Serif" font-size="10.00">nilvalue</text>
</g>
<!-- Node17 -->
<g id="node17" class="node"><title>Node17</title>
<g id="a_node17"><a xlink:href="struct_table.html" target="_top" xlink:title=" ">
<polygon fill="white" stroke="black" points="1063,-134.5 1063,-153.5 1103,-153.5 1103,-134.5 1063,-134.5"/>
<text text-anchor="middle" x="1083" y="-141.5" font-family="Helvetica,sans-Serif" font-size="10.00">Table</text>
</a>
</g>
</g>
<!-- Node3&#45;&gt;Node17 -->
<g id="edge38" class="edge"><title>Node3&#45;&gt;Node17</title>
<path fill="none" stroke="#9a32cd" stroke-dasharray="5,2" d="M830.544,-752.56C910.654,-751.196 1111.19,-745.844 1175,-726 1216.85,-712.984 1260,-719.829 1260,-676 1260,-676 1260,-676 1260,-463 1260,-395.924 1262.56,-375.592 1236,-314 1204.49,-240.944 1186.11,-225.249 1127,-172 1119.01,-164.802 1108.84,-158.419 1100.29,-153.669"/>
<polygon fill="#9a32cd" stroke="#9a32cd" points="830.447,-749.061 820.505,-752.721 830.559,-756.06 830.447,-749.061"/>
<text text-anchor="middle" x="1272.5" y="-501.5" font-family="Helvetica,sans-Serif" font-size="10.00"> array</text>
</g>
<!-- Node18 -->
<g id="node18" class="node"><title>Node18</title>
<g id="a_node18"><a xlink:href="union_node.html" target="_top" xlink:title=" ">
<polygon fill="white" stroke="black" points="1053.5,-219 1053.5,-238 1092.5,-238 1092.5,-219 1053.5,-219"/>
<text text-anchor="middle" x="1073" y="-226" font-family="Helvetica,sans-Serif" font-size="10.00">Node</text>
</a>
</g>
</g>
<!-- Node3&#45;&gt;Node18 -->
<g id="edge35" class="edge"><title>Node3&#45;&gt;Node18</title>
<path fill="none" stroke="#9a32cd" stroke-dasharray="5,2" d="M830.602,-753.623C926.901,-754.514 1197,-750.384 1197,-676 1197,-676 1197,-676 1197,-543 1197,-413.649 1104.59,-273.993 1079.32,-238.224"/>
<polygon fill="#9a32cd" stroke="#9a32cd" points="830.569,-750.122 820.528,-753.505 830.487,-757.122 830.569,-750.122"/>
<text text-anchor="middle" x="1208" y="-541.5" font-family="Helvetica,sans-Serif" font-size="10.00"> i_val</text>
</g>
<!-- Node24 -->
<g id="node24" class="node"><title>Node24</title>
<g id="a_node24"><a xlink:href="union_u_value.html" target="_top" xlink:title=" ">
<polygon fill="white" stroke="black" points="1282,-620 1282,-639 1330,-639 1330,-620 1282,-620"/>
<text text-anchor="middle" x="1306" y="-627" font-family="Helvetica,sans-Serif" font-size="10.00">UValue</text>
</a>
</g>
</g>
<!-- Node3&#45;&gt;Node24 -->
<g id="edge55" class="edge"><title>Node3&#45;&gt;Node24</title>
<path fill="none" stroke="#9a32cd" stroke-dasharray="5,2" d="M830.983,-753.244C934.18,-753.688 1239.02,-752.705 1274,-726 1301.8,-704.78 1305.69,-658.428 1306.07,-639.164"/>
<polygon fill="#9a32cd" stroke="#9a32cd" points="830.823,-749.743 820.806,-753.192 830.788,-756.743 830.823,-749.743"/>
<text text-anchor="middle" x="1297.5" y="-712.5" font-family="Helvetica,sans-Serif" font-size="10.00"> uv</text>
</g>
<!-- Node4&#45;&gt;Node1 -->
<g id="edge4" class="edge"><title>Node4&#45;&gt;Node1</title>
<path fill="none" stroke="#9a32cd" stroke-dasharray="5,2" d="M300.353,-210.484C308.419,-199.447 319.229,-184.793 329,-172 342.061,-154.9 342.932,-148.312 359,-134 377.329,-117.674 384.051,-115.988 406,-105 478.62,-68.6457 497.49,-58.7729 576,-38 631.915,-23.2055 699.418,-16.035 736.731,-12.9688"/>
<polygon fill="#9a32cd" stroke="#9a32cd" points="297.366,-208.641 294.306,-218.784 303.024,-212.763 297.366,-208.641"/>
<text text-anchor="middle" x="410.5" y="-108" font-family="Helvetica,sans-Serif" font-size="10.00"> p</text>
</g>
<!-- Node4&#45;&gt;Node4 -->
<g id="edge6" class="edge"><title>Node4&#45;&gt;Node4</title>
<path fill="none" stroke="#9a32cd" stroke-dasharray="5,2" d="M318.416,-235.983C322.94,-234.817 326,-232.323 326,-228.5 326,-222.227 317.76,-219.531 308.329,-220.413"/>
<polygon fill="#9a32cd" stroke="#9a32cd" points="318.102,-232.495 308.329,-236.587 318.521,-239.483 318.102,-232.495"/>
<text text-anchor="middle" x="330.5" y="-226" font-family="Helvetica,sans-Serif" font-size="10.00"> p</text>
</g>
<!-- Node4&#45;&gt;Node22 -->
<g id="edge50" class="edge"><title>Node4&#45;&gt;Node22</title>
<path fill="none" stroke="#9a32cd" stroke-dasharray="5,2" d="M307.317,-212.744C329.869,-195.517 366.41,-167.603 384.748,-153.595"/>
<polygon fill="#9a32cd" stroke="#9a32cd" points="304.973,-210.13 299.151,-218.982 309.223,-215.693 304.973,-210.13"/>
<text text-anchor="middle" x="362.5" y="-180.5" font-family="Helvetica,sans-Serif" font-size="10.00"> p</text>
</g>
<!-- Node5 -->
<g id="node5" class="node"><title>Node5</title>
<g id="a_node5"><a xlink:href="struct_abs_line_info.html" target="_top" xlink:title=" ">
<polygon fill="white" stroke="black" points="66.5,-365 66.5,-384 133.5,-384 133.5,-365 66.5,-365"/>
<text text-anchor="middle" x="100" y="-372" font-family="Helvetica,sans-Serif" font-size="10.00">AbsLineInfo</text>
</a>
</g>
</g>
<!-- Node5&#45;&gt;Node4 -->
<g id="edge5" class="edge"><title>Node5&#45;&gt;Node4</title>
<path fill="none" stroke="#9a32cd" stroke-dasharray="5,2" d="M94.9709,-354.943C89.6138,-330.646 84.6574,-288.192 107,-263 128.046,-239.27 225.277,-232.199 267.893,-230.22"/>
<polygon fill="#9a32cd" stroke="#9a32cd" points="91.5829,-355.823 97.3639,-364.702 98.3815,-354.156 91.5829,-355.823"/>
<text text-anchor="middle" x="131.5" y="-277" font-family="Helvetica,sans-Serif" font-size="10.00"> abslineinfo</text>
</g>
<!-- Node6 -->
<g id="node6" class="node"><title>Node6</title>
<g id="a_node6"><a xlink:href="struct_loc_var.html" target="_top" xlink:title=" ">
<polygon fill="white" stroke="black" points="300.5,-365 300.5,-384 347.5,-384 347.5,-365 300.5,-365"/>
<text text-anchor="middle" x="324" y="-372" font-family="Helvetica,sans-Serif" font-size="10.00">LocVar</text>
</a>
</g>
</g>
<!-- Node6&#45;&gt;Node4 -->
<g id="edge7" class="edge"><title>Node6&#45;&gt;Node4</title>
<path fill="none" stroke="#9a32cd" stroke-dasharray="5,2" d="M320.34,-354.835C315.882,-332.757 307.842,-294.963 299,-263 296.65,-254.504 293.463,-244.967 291.125,-238.247"/>
<polygon fill="#9a32cd" stroke="#9a32cd" points="316.946,-355.71 322.331,-364.834 323.811,-354.343 316.946,-355.71"/>
<text text-anchor="middle" x="324" y="-277" font-family="Helvetica,sans-Serif" font-size="10.00"> locvars</text>
</g>
<!-- Node7 -->
<g id="node7" class="node"><title>Node7</title>
<g id="a_node7"><a xlink:href="struct_t_string.html" target="_top" xlink:title=" ">
<polygon fill="white" stroke="black" points="261.5,-494.5 261.5,-513.5 308.5,-513.5 308.5,-494.5 261.5,-494.5"/>
<text text-anchor="middle" x="285" y="-501.5" font-family="Helvetica,sans-Serif" font-size="10.00">TString</text>
</a>
</g>
</g>
<!-- Node7&#45;&gt;Node1 -->
<g id="edge15" class="edge"><title>Node7&#45;&gt;Node1</title>
<path fill="none" stroke="#9a32cd" stroke-dasharray="5,2" d="M251.176,-502.077C202.121,-498.936 111.189,-486.072 57,-435 3.73715,-384.801 0,-353.691 0,-280.5 0,-280.5 0,-280.5 0,-76 0,-38.262 598.85,-16.4199 736.866,-11.8871"/>
<polygon fill="#9a32cd" stroke="#9a32cd" points="251.092,-505.577 261.267,-502.622 251.471,-498.587 251.092,-505.577"/>
<text text-anchor="middle" x="6" y="-180.5" font-family="Helvetica,sans-Serif" font-size="10.00"> ts</text>
</g>
<!-- Node7&#45;&gt;Node4 -->
<g id="edge10" class="edge"><title>Node7&#45;&gt;Node4</title>
<path fill="none" stroke="#9a32cd" stroke-dasharray="5,2" d="M251.866,-491.757C226.876,-481.325 194.367,-463.115 179,-435 153.208,-387.811 155.844,-362.537 179,-314 197.042,-276.181 241.353,-250.581 267.587,-238.167"/>
<polygon fill="#9a32cd" stroke="#9a32cd" points="250.776,-495.089 261.362,-495.505 253.346,-488.578 250.776,-495.089"/>
<text text-anchor="middle" x="195.5" y="-372" font-family="Helvetica,sans-Serif" font-size="10.00"> source</text>
</g>
<!-- Node7&#45;&gt;Node6 -->
<g id="edge8" class="edge"><title>Node7&#45;&gt;Node6</title>
<path fill="none" stroke="#9a32cd" stroke-dasharray="5,2" d="M290.65,-484.53C299.173,-456.666 314.992,-404.949 321.301,-384.325"/>
<polygon fill="#9a32cd" stroke="#9a32cd" points="287.259,-483.65 287.681,-494.236 293.953,-485.698 287.259,-483.65"/>
<text text-anchor="middle" x="320" y="-461.5" font-family="Helvetica,sans-Serif" font-size="10.00"> varname</text>
</g>
<!-- Node7&#45;&gt;Node7 -->
<g id="edge9" class="edge"><title>Node7&#45;&gt;Node7</title>
<path fill="none" stroke="#9a32cd" stroke-dasharray="5,2" d="M319.015,-510.618C323.515,-509.491 326.5,-507.285 326.5,-504 326.5,-498.609 318.46,-496.125 308.882,-496.546"/>
<polygon fill="#9a32cd" stroke="#9a32cd" points="318.56,-507.143 308.882,-511.454 319.136,-514.119 318.56,-507.143"/>
<text text-anchor="middle" x="340.5" y="-501.5" font-family="Helvetica,sans-Serif" font-size="10.00"> hnext</text>
</g>
<!-- Node9 -->
<g id="node9" class="node"><title>Node9</title>
<g id="a_node9"><a xlink:href="struct_upvaldesc.html" target="_top" xlink:title=" ">
<polygon fill="white" stroke="black" points="221.5,-365 221.5,-384 282.5,-384 282.5,-365 221.5,-365"/>
<text text-anchor="middle" x="252" y="-372" font-family="Helvetica,sans-Serif" font-size="10.00">Upvaldesc</text>
</a>
</g>
</g>
<!-- Node7&#45;&gt;Node9 -->
<g id="edge13" class="edge"><title>Node7&#45;&gt;Node9</title>
<path fill="none" stroke="#9a32cd" stroke-dasharray="5,2" d="M270.361,-486.387C267.873,-482.829 265.585,-478.947 264,-475 251.295,-443.352 251.01,-401.84 251.575,-384.12"/>
<polygon fill="#9a32cd" stroke="#9a32cd" points="267.741,-488.716 276.673,-494.413 273.243,-484.389 267.741,-488.716"/>
<text text-anchor="middle" x="278" y="-461.5" font-family="Helvetica,sans-Serif" font-size="10.00"> name</text>
</g>
<!-- Node7&#45;&gt;Node15 -->
<g id="edge28" class="edge"><title>Node7&#45;&gt;Node15</title>
<path fill="none" stroke="#9a32cd" stroke-dasharray="5,2" d="M318.652,-501.331C358.632,-498.609 421.952,-491.723 438,-475 468.92,-442.778 452,-420.158 452,-375.5 452,-375.5 452,-375.5 452,-143 452,-113.971 655.102,-90.1081 739.199,-81.4717"/>
<polygon fill="#9a32cd" stroke="#9a32cd" points="318.305,-497.845 308.543,-501.964 318.743,-504.832 318.305,-497.845"/>
<text text-anchor="middle" x="478" y="-237" font-family="Helvetica,sans-Serif" font-size="10.00"> strcache</text>
<text text-anchor="middle" x="478" y="-226" font-family="Helvetica,sans-Serif" font-size="10.00">tmname</text>
<text text-anchor="middle" x="478" y="-215" font-family="Helvetica,sans-Serif" font-size="10.00">memerrmsg</text>
</g>
<!-- Node16 -->
<g id="node16" class="node"><title>Node16</title>
<g id="a_node16"><a xlink:href="structstringtable.html" target="_top" xlink:title=" ">
<polygon fill="white" stroke="black" points="484,-270 484,-289 546,-289 546,-270 484,-270"/>
<text text-anchor="middle" x="515" y="-277" font-family="Helvetica,sans-Serif" font-size="10.00">stringtable</text>
</a>
</g>
</g>
<!-- Node7&#45;&gt;Node16 -->
<g id="edge27" class="edge"><title>Node7&#45;&gt;Node16</title>
<path fill="none" stroke="#9a32cd" stroke-dasharray="5,2" d="M318.644,-501.977C364.224,-499.895 442.29,-493.638 463,-475 519.379,-424.261 517.541,-319.788 515.673,-289.134"/>
<polygon fill="#9a32cd" stroke="#9a32cd" points="318.474,-498.481 308.627,-502.392 318.763,-505.475 318.474,-498.481"/>
<text text-anchor="middle" x="493.5" y="-461.5" font-family="Helvetica,sans-Serif" font-size="10.00"> hash</text>
</g>
<!-- Node8 -->
<g id="node8" class="node"><title>Node8</title>
<g id="a_node8"><a xlink:href="struct_g_c_object.html" target="_top" xlink:title=" ">
<polygon fill="white" stroke="black" points="949.5,-665.5 949.5,-684.5 1008.5,-684.5 1008.5,-665.5 949.5,-665.5"/>
<text text-anchor="middle" x="979" y="-672.5" font-family="Helvetica,sans-Serif" font-size="10.00">GCObject</text>
</a>
</g>
</g>
<!-- Node8&#45;&gt;Node1 -->
<g id="edge57" class="edge"><title>Node8&#45;&gt;Node1</title>
<path fill="none" stroke="#9a32cd" stroke-dasharray="5,2" d="M979,-655.394C979,-637.388 979,-609.324 979,-585 979,-585 979,-585 979,-76 979,-37.6566 851.63,-19.7886 793.418,-13.6247"/>
<polygon fill="#9a32cd" stroke="#9a32cd" points="975.5,-655.408 979,-665.408 982.5,-655.408 975.5,-655.408"/>
<text text-anchor="middle" x="986" y="-277" font-family="Helvetica,sans-Serif" font-size="10.00"> gc</text>
</g>
<!-- Node8&#45;&gt;Node4 -->
<g id="edge11" class="edge"><title>Node8&#45;&gt;Node4</title>
<path fill="none" stroke="#9a32cd" stroke-dasharray="5,2" d="M939.332,-671.049C856.761,-664.834 672.973,-650.591 660,-646 635.248,-637.241 634.872,-623.933 611,-613 583.357,-600.34 571.481,-609.939 545,-595 500.097,-569.668 481.309,-562.387 461,-515 457.148,-506.013 455.404,-501.018 461,-493 474.279,-473.975 496.721,-494.025 510,-475 515.596,-466.982 513.422,-462.159 510,-453 470.858,-348.231 431.006,-334.495 345,-263 332.995,-253.021 317.659,-244.19 305.918,-238.104"/>
<polygon fill="#9a32cd" stroke="#9a32cd" points="939.116,-674.543 949.35,-671.801 939.64,-667.562 939.116,-674.543"/>
<text text-anchor="middle" x="474.5" y="-501.5" font-family="Helvetica,sans-Serif" font-size="10.00"> gclist</text>
</g>
<!-- Node8&#45;&gt;Node12 -->
<g id="edge42" class="edge"><title>Node8&#45;&gt;Node12</title>
<path fill="none" stroke="#9a32cd" stroke-dasharray="5,2" d="M940.082,-662.446C924.432,-657.62 906.273,-651.795 890,-646 841.779,-628.829 786.19,-605.847 757.111,-593.576"/>
<polygon fill="#9a32cd" stroke="#9a32cd" points="939.373,-665.889 949.96,-665.462 941.418,-659.194 939.373,-665.889"/>
<text text-anchor="middle" x="903.5" y="-627" font-family="Helvetica,sans-Serif" font-size="10.00"> gclist</text>
</g>
<!-- Node8&#45;&gt;Node15 -->
<g id="edge39" class="edge"><title>Node8&#45;&gt;Node15</title>
<path fill="none" stroke="#9a32cd" stroke-dasharray="5,2" d="M969.322,-656.2C967.736,-652.87 966.216,-649.375 965,-646 932.358,-555.429 934.491,-529.481 916,-435 893.265,-318.834 912.52,-283.927 874,-172 862.93,-139.835 862.155,-127.899 837,-105 827.971,-96.7808 816.045,-90.7836 805.067,-86.5596"/>
<polygon fill="#9a32cd" stroke="#9a32cd" points="966.364,-658.104 974.04,-665.406 972.594,-654.911 966.364,-658.104"/>
<text text-anchor="middle" x="940.5" y="-427" font-family="Helvetica,sans-Serif" font-size="10.00"> finobjrold</text>
<text text-anchor="middle" x="940.5" y="-416" font-family="Helvetica,sans-Serif" font-size="10.00">fixedgc</text>
<text text-anchor="middle" x="940.5" y="-405" font-family="Helvetica,sans-Serif" font-size="10.00">gray</text>
<text text-anchor="middle" x="940.5" y="-394" font-family="Helvetica,sans-Serif" font-size="10.00">grayagain</text>
<text text-anchor="middle" x="940.5" y="-383" font-family="Helvetica,sans-Serif" font-size="10.00">tobefnz</text>
<text text-anchor="middle" x="940.5" y="-372" font-family="Helvetica,sans-Serif" font-size="10.00">reallyold</text>
<text text-anchor="middle" x="940.5" y="-361" font-family="Helvetica,sans-Serif" font-size="10.00">allgc</text>
<text text-anchor="middle" x="940.5" y="-350" font-family="Helvetica,sans-Serif" font-size="10.00">survival</text>
<text text-anchor="middle" x="940.5" y="-339" font-family="Helvetica,sans-Serif" font-size="10.00">weak</text>
<text text-anchor="middle" x="940.5" y="-328" font-family="Helvetica,sans-Serif" font-size="10.00">ephemeron</text>
<text text-anchor="middle" x="940.5" y="-317" font-family="Helvetica,sans-Serif" font-size="10.00">...</text>
</g>
<!-- Node8&#45;&gt;Node17 -->
<g id="edge37" class="edge"><title>Node8&#45;&gt;Node17</title>
<path fill="none" stroke="#9a32cd" stroke-dasharray="5,2" d="M1018.74,-666.781C1060.75,-656.589 1121,-633.516 1121,-585 1121,-585 1121,-585 1121,-227.5 1121,-202.061 1118.9,-194.483 1107,-172 1103.36,-165.127 1097.62,-158.577 1092.66,-153.65"/>
<polygon fill="#9a32cd" stroke="#9a32cd" points="1017.74,-663.418 1008.77,-669.046 1019.29,-670.245 1017.74,-663.418"/>
<text text-anchor="middle" x="1134.5" y="-461.5" font-family="Helvetica,sans-Serif" font-size="10.00"> gclist</text>
</g>
<!-- Node20 -->
<g id="node20" class="node"><title>Node20</title>
<g id="a_node20"><a xlink:href="union_value.html" target="_top" xlink:title=" ">
<polygon fill="white" stroke="black" points="1007.5,-494.5 1007.5,-513.5 1048.5,-513.5 1048.5,-494.5 1007.5,-494.5"/>
<text text-anchor="middle" x="1028" y="-501.5" font-family="Helvetica,sans-Serif" font-size="10.00">Value</text>
</a>
</g>
</g>
<!-- Node8&#45;&gt;Node20 -->
<g id="edge33" class="edge"><title>Node8&#45;&gt;Node20</title>
<path fill="none" stroke="#9a32cd" stroke-dasharray="5,2" d="M988.636,-656.185C990.226,-652.856 991.758,-649.365 993,-646 1010.9,-597.491 1022.58,-536.256 1026.52,-513.783"/>
<polygon fill="#9a32cd" stroke="#9a32cd" points="985.364,-654.897 983.924,-665.393 991.595,-658.086 985.364,-654.897"/>
<text text-anchor="middle" x="1022" y="-581.5" font-family="Helvetica,sans-Serif" font-size="10.00"> gc</text>
</g>
<!-- Node23 -->
<g id="node23" class="node"><title>Node23</title>
<g id="a_node23"><a xlink:href="struct_udata.html" target="_top" xlink:title=" ">
<polygon fill="white" stroke="black" points="1138,-67.5 1138,-86.5 1180,-86.5 1180,-67.5 1138,-67.5"/>
<text text-anchor="middle" x="1159" y="-74.5" font-family="Helvetica,sans-Serif" font-size="10.00">Udata</text>
</a>
</g>
</g>
<!-- Node8&#45;&gt;Node23 -->
<g id="edge56" class="edge"><title>Node8&#45;&gt;Node23</title>
<path fill="none" stroke="#9a32cd" stroke-dasharray="5,2" d="M1018.91,-674.34C1047.04,-672.621 1084.15,-666.176 1110,-646 1149.47,-615.189 1205,-441.299 1205,-280.5 1205,-280.5 1205,-280.5 1205,-143 1205,-119.221 1184.23,-98.0533 1170.61,-86.7218"/>
<polygon fill="#9a32cd" stroke="#9a32cd" points="1018.45,-670.857 1008.62,-674.787 1018.76,-677.85 1018.45,-670.857"/>
<text text-anchor="middle" x="1218.5" y="-372" font-family="Helvetica,sans-Serif" font-size="10.00"> gclist</text>
</g>
<!-- Node9&#45;&gt;Node4 -->
<g id="edge12" class="edge"><title>Node9&#45;&gt;Node4</title>
<path fill="none" stroke="#9a32cd" stroke-dasharray="5,2" d="M248.185,-354.711C244.483,-331.976 241.116,-293.016 254,-263 258.38,-252.796 267.49,-244.096 275.179,-238.121"/>
<polygon fill="#9a32cd" stroke="#9a32cd" points="244.774,-355.515 250.013,-364.723 251.66,-354.257 244.774,-355.515"/>
<text text-anchor="middle" x="274.5" y="-277" font-family="Helvetica,sans-Serif" font-size="10.00"> upvalues</text>
</g>
<!-- Node10 -->
<g id="node10" class="node"><title>Node10</title>
<g id="a_node10"><a xlink:href="union_closure.html" target="_top" xlink:title=" ">
<polygon fill="white" stroke="black" points="538,-67.5 538,-86.5 588,-86.5 588,-67.5 538,-67.5"/>
<text text-anchor="middle" x="563" y="-74.5" font-family="Helvetica,sans-Serif" font-size="10.00">Closure</text>
</a>
</g>
</g>
<!-- Node10&#45;&gt;Node1 -->
<g id="edge16" class="edge"><title>Node10&#45;&gt;Node1</title>
<path fill="none" stroke="#9a32cd" stroke-dasharray="5,2" d="M571.925,-58.3461C576.595,-50.8938 583.017,-42.8379 591,-38 614.987,-23.4629 693.987,-15.8936 736.809,-12.7722"/>
<polygon fill="#9a32cd" stroke="#9a32cd" points="568.811,-56.7432 566.961,-67.1753 574.913,-60.1738 568.811,-56.7432"/>
<text text-anchor="middle" x="596.5" y="-41" font-family="Helvetica,sans-Serif" font-size="10.00"> cl</text>
</g>
<!-- Node11&#45;&gt;Node10 -->
<g id="edge17" class="edge"><title>Node11&#45;&gt;Node10</title>
<path fill="none" stroke="#9a32cd" stroke-dasharray="5,2" d="M537.351,-485.701C553.011,-462.022 578,-417.638 578,-375.5 578,-375.5 578,-375.5 578,-143 578,-122.385 570.748,-99.013 566.329,-86.6843"/>
<polygon fill="#9a32cd" stroke="#9a32cd" points="534.26,-484.02 531.499,-494.248 540.036,-487.974 534.26,-484.02"/>
<text text-anchor="middle" x="582.5" y="-226" font-family="Helvetica,sans-Serif" font-size="10.00"> c</text>
</g>
<!-- Node12&#45;&gt;Node1 -->
<g id="edge58" class="edge"><title>Node12&#45;&gt;Node1</title>
<path fill="none" stroke="#9a32cd" stroke-dasharray="5,2" d="M755.256,-567.409C758.872,-563.639 762.36,-559.414 765,-555 834.578,-438.678 812.804,-392.446 853,-263 873.341,-197.494 889.429,-183.772 900,-116 908.42,-62.0193 834.995,-31.3927 793.027,-18.4352"/>
<polygon fill="#9a32cd" stroke="#9a32cd" points="752.718,-564.993 747.888,-574.423 757.545,-570.063 752.718,-564.993"/>
<text text-anchor="middle" x="878" y="-226" font-family="Helvetica,sans-Serif" font-size="10.00"> th</text>
</g>
<!-- Node12&#45;&gt;Node11 -->
<g id="edge19" class="edge"><title>Node12&#45;&gt;Node11</title>
<path fill="none" stroke="#9a32cd" stroke-dasharray="5,2" d="M697.948,-574.49C677.699,-569.626 652.724,-562.918 631,-555 597.927,-542.946 561.146,-524.35 540.773,-513.558"/>
<polygon fill="#9a32cd" stroke="#9a32cd" points="697.233,-577.917 707.768,-576.794 698.832,-571.102 697.233,-577.917"/>
<text text-anchor="middle" x="634" y="-541.5" font-family="Helvetica,sans-Serif" font-size="10.00"> f</text>
</g>
<!-- Node12&#45;&gt;Node12 -->
<g id="edge43" class="edge"><title>Node12&#45;&gt;Node12</title>
<path fill="none" stroke="#9a32cd" stroke-dasharray="5,2" d="M776.603,-590.356C781.091,-589.165 784,-587.047 784,-584 784,-579 776.167,-576.5 766.375,-576.5"/>
<polygon fill="#9a32cd" stroke="#9a32cd" points="775.924,-586.91 766.375,-591.5 776.702,-593.866 775.924,-586.91"/>
<text text-anchor="middle" x="798.5" y="-581.5" font-family="Helvetica,sans-Serif" font-size="10.00"> twups</text>
</g>
<!-- Node12&#45;&gt;Node15 -->
<g id="edge41" class="edge"><title>Node12&#45;&gt;Node15</title>
<path fill="none" stroke="#9a32cd" stroke-dasharray="5,2" d="M745.705,-565.24C747.023,-561.906 748.205,-558.399 749,-555 770.996,-460.917 774.49,-142.955 774.941,-86.5808"/>
<polygon fill="#9a32cd" stroke="#9a32cd" points="742.479,-563.882 741.6,-574.441 748.871,-566.735 742.479,-563.882"/>
<text text-anchor="middle" x="796.5" y="-288" font-family="Helvetica,sans-Serif" font-size="10.00"> panic</text>
<text text-anchor="middle" x="796.5" y="-277" font-family="Helvetica,sans-Serif" font-size="10.00">mainthread</text>
<text text-anchor="middle" x="796.5" y="-266" font-family="Helvetica,sans-Serif" font-size="10.00">twups</text>
</g>
<!-- Node12&#45;&gt;Node20 -->
<g id="edge34" class="edge"><title>Node12&#45;&gt;Node20</title>
<path fill="none" stroke="#9a32cd" stroke-dasharray="5,2" d="M776.12,-572.514C838.664,-555.75 959.033,-523.486 1007.27,-510.558"/>
<polygon fill="#9a32cd" stroke="#9a32cd" points="774.987,-569.194 766.235,-575.164 776.8,-575.956 774.987,-569.194"/>
<text text-anchor="middle" x="921" y="-541.5" font-family="Helvetica,sans-Serif" font-size="10.00"> f</text>
</g>
<!-- Node21 -->
<g id="node21" class="node"><title>Node21</title>
<g id="a_node21"><a xlink:href="struct_call_info.html" target="_top" xlink:title=" ">
<polygon fill="white" stroke="black" points="609,-494.5 609,-513.5 657,-513.5 657,-494.5 609,-494.5"/>
<text text-anchor="middle" x="633" y="-501.5" font-family="Helvetica,sans-Serif" font-size="10.00">CallInfo</text>
</a>
</g>
</g>
<!-- Node12&#45;&gt;Node21 -->
<g id="edge46" class="edge"><title>Node12&#45;&gt;Node21</title>
<path fill="none" stroke="#9a32cd" stroke-dasharray="5,2" d="M698.029,-576.994C682.764,-572.953 666.057,-566.216 654,-555 642.005,-543.842 636.614,-524.753 634.391,-513.669"/>
<polygon fill="#9a32cd" stroke="#9a32cd" points="697.255,-580.407 707.79,-579.279 698.852,-573.591 697.255,-580.407"/>
<text text-anchor="middle" x="658.5" y="-541.5" font-family="Helvetica,sans-Serif" font-size="10.00"> k</text>
</g>
<!-- Node13 -->
<g id="node13" class="node"><title>Node13</title>
<g id="a_node13"><a xlink:href="structlua__longjmp.html" target="_top" xlink:title=" ">
<polygon fill="white" stroke="black" points="703,-665.5 703,-684.5 771,-684.5 771,-665.5 703,-665.5"/>
<text text-anchor="middle" x="737" y="-672.5" font-family="Helvetica,sans-Serif" font-size="10.00">lua_longjmp</text>
</a>
</g>
</g>
<!-- Node13&#45;&gt;Node12 -->
<g id="edge21" class="edge"><title>Node13&#45;&gt;Node12</title>
<path fill="none" stroke="#9a32cd" stroke-dasharray="5,2" d="M737,-655.349C737,-636.383 737,-607.828 737,-593.639"/>
<polygon fill="#9a32cd" stroke="#9a32cd" points="733.5,-655.466 737,-665.466 740.5,-655.466 733.5,-655.466"/>
<text text-anchor="middle" x="757.5" y="-627" font-family="Helvetica,sans-Serif" font-size="10.00"> errorJmp</text>
</g>
<!-- Node13&#45;&gt;Node13 -->
<g id="edge22" class="edge"><title>Node13&#45;&gt;Node13</title>
<path fill="none" stroke="#9a32cd" stroke-dasharray="5,2" d="M781.148,-681.274C785.925,-680.07 789,-677.979 789,-675 789,-670.234 781.127,-667.74 771.008,-667.516"/>
<polygon fill="#9a32cd" stroke="#9a32cd" points="780.524,-677.824 771.008,-682.484 781.353,-684.774 780.524,-677.824"/>
<text text-anchor="middle" x="808.5" y="-672.5" font-family="Helvetica,sans-Serif" font-size="10.00"> previous</text>
</g>
<!-- Node14&#45;&gt;Node12 -->
<g id="edge23" class="edge"><title>Node14&#45;&gt;Node12</title>
<path fill="none" stroke="#9a32cd" stroke-dasharray="5,2" d="M658.626,-655.754C664.799,-642.648 674.511,-625.209 687,-613 695.253,-604.932 706.292,-598.427 715.899,-593.725"/>
<polygon fill="#9a32cd" stroke="#9a32cd" points="655.312,-654.595 654.45,-665.155 661.709,-657.437 655.312,-654.595"/>
<text text-anchor="middle" x="710" y="-638" font-family="Helvetica,sans-Serif" font-size="10.00"> stack</text>
<text text-anchor="middle" x="710" y="-627" font-family="Helvetica,sans-Serif" font-size="10.00">stack_last</text>
<text text-anchor="middle" x="710" y="-616" font-family="Helvetica,sans-Serif" font-size="10.00">top</text>
</g>
<!-- Node14&#45;&gt;Node21 -->
<g id="edge45" class="edge"><title>Node14&#45;&gt;Node21</title>
<path fill="none" stroke="#9a32cd" stroke-dasharray="5,2" d="M607.542,-664.26C582.641,-658.241 555.615,-650.779 552,-646 531.502,-618.9 562.645,-549.87 577,-533 585.312,-523.231 597.859,-516.519 608.972,-512.121"/>
<polygon fill="#9a32cd" stroke="#9a32cd" points="606.748,-667.669 617.286,-666.572 608.364,-660.858 606.748,-667.669"/>
<text text-anchor="middle" x="567" y="-587" font-family="Helvetica,sans-Serif" font-size="10.00"> func</text>
<text text-anchor="middle" x="567" y="-576" font-family="Helvetica,sans-Serif" font-size="10.00">top</text>
</g>
<!-- Node15&#45;&gt;Node12 -->
<g id="edge25" class="edge"><title>Node15&#45;&gt;Node12</title>
<path fill="none" stroke="#9a32cd" stroke-dasharray="5,2" d="M764.86,-95.6691C763.4,-98.7125 762.042,-101.896 761,-105 738.333,-172.538 740.022,-192.015 734,-263 723.551,-386.174 733.532,-536.967 736.323,-574.323"/>
<polygon fill="#9a32cd" stroke="#9a32cd" points="768.026,-97.1698 769.613,-86.6945 761.84,-93.8939 768.026,-97.1698"/>
<text text-anchor="middle" x="743.5" y="-277" font-family="Helvetica,sans-Serif" font-size="10.00"> l_G</text>
</g>
<!-- Node16&#45;&gt;Node15 -->
<g id="edge26" class="edge"><title>Node16&#45;&gt;Node15</title>
<path fill="none" stroke="#9a32cd" stroke-dasharray="5,2" d="M523.255,-260.683C530.482,-246.388 542.003,-226.4 556,-212 616.582,-149.673 711.938,-104.548 753.942,-86.5826"/>
<polygon fill="#9a32cd" stroke="#9a32cd" points="519.988,-259.399 518.777,-269.925 526.287,-262.451 519.988,-259.399"/>
<text text-anchor="middle" x="611" y="-180.5" font-family="Helvetica,sans-Serif" font-size="10.00"> strt</text>
</g>
<!-- Node17&#45;&gt;Node1 -->
<g id="edge51" class="edge"><title>Node17&#45;&gt;Node1</title>
<path fill="none" stroke="#9a32cd" stroke-dasharray="5,2" d="M1073.63,-125.47C1059.62,-101.222 1030.8,-58.1609 993,-38 958.974,-19.8498 846.124,-13.7119 793.05,-11.7967"/>
<polygon fill="#9a32cd" stroke="#9a32cd" points="1070.63,-127.28 1078.55,-134.312 1076.74,-123.873 1070.63,-127.28"/>
<text text-anchor="middle" x="1051.5" y="-74.5" font-family="Helvetica,sans-Serif" font-size="10.00"> h</text>
</g>
<!-- Node17&#45;&gt;Node15 -->
<g id="edge29" class="edge"><title>Node17&#45;&gt;Node15</title>
<path fill="none" stroke="#9a32cd" stroke-dasharray="5,2" d="M1052.93,-136.654C995.785,-124.594 871.76,-98.4201 810.585,-85.5099"/>
<polygon fill="#9a32cd" stroke="#9a32cd" points="1052.28,-140.095 1062.79,-138.735 1053.73,-133.246 1052.28,-140.095"/>
<text text-anchor="middle" x="955.5" y="-108" font-family="Helvetica,sans-Serif" font-size="10.00"> mt</text>
</g>
<!-- Node17&#45;&gt;Node17 -->
<g id="edge36" class="edge"><title>Node17&#45;&gt;Node17</title>
<path fill="none" stroke="#9a32cd" stroke-dasharray="5,2" d="M1113.42,-149.442C1117.94,-148.594 1121,-146.78 1121,-144 1121,-139.438 1112.76,-137.477 1103.33,-138.119"/>
<polygon fill="#9a32cd" stroke="#9a32cd" points="1113.17,-145.949 1103.33,-149.881 1113.47,-152.943 1113.17,-145.949"/>
<text text-anchor="middle" x="1144" y="-141.5" font-family="Helvetica,sans-Serif" font-size="10.00"> metatable</text>
</g>
<!-- Node17&#45;&gt;Node23 -->
<g id="edge53" class="edge"><title>Node17&#45;&gt;Node23</title>
<path fill="none" stroke="#9a32cd" stroke-dasharray="5,2" d="M1100.87,-127.713C1115.85,-114.907 1136.68,-97.0884 1148.91,-86.6273"/>
<polygon fill="#9a32cd" stroke="#9a32cd" points="1098.57,-125.074 1093.25,-134.234 1103.12,-130.394 1098.57,-125.074"/>
<text text-anchor="middle" x="1149" y="-108" font-family="Helvetica,sans-Serif" font-size="10.00"> metatable</text>
</g>
<!-- Node18&#45;&gt;Node17 -->
<g id="edge30" class="edge"><title>Node18&#45;&gt;Node17</title>
<path fill="none" stroke="#9a32cd" stroke-dasharray="5,2" d="M1072.51,-208.455C1072.52,-197.689 1073.04,-184.019 1075,-172 1076.01,-165.824 1078.01,-159.074 1079.76,-153.868"/>
<polygon fill="#9a32cd" stroke="#9a32cd" points="1069.01,-208.827 1072.64,-218.781 1076.01,-208.737 1069.01,-208.827"/>
<text text-anchor="middle" x="1091" y="-186" font-family="Helvetica,sans-Serif" font-size="10.00"> node</text>
<text text-anchor="middle" x="1091" y="-175" font-family="Helvetica,sans-Serif" font-size="10.00">lastfree</text>
</g>
<!-- Node19 -->
<g id="node19" class="node"><title>Node19</title>
<g id="a_node19"><a xlink:href="struct_node_1_1_node_key.html" target="_top" xlink:title=" ">
<polygon fill="white" stroke="black" points="1007.5,-365 1007.5,-384 1092.5,-384 1092.5,-365 1007.5,-365"/>
<text text-anchor="middle" x="1050" y="-372" font-family="Helvetica,sans-Serif" font-size="10.00">Node::NodeKey</text>
</a>
</g>
</g>
<!-- Node19&#45;&gt;Node18 -->
<g id="edge31" class="edge"><title>Node19&#45;&gt;Node18</title>
<path fill="none" stroke="#9a32cd" stroke-dasharray="5,2" d="M1052.97,-354.88C1057.99,-323.466 1067.95,-261.128 1071.61,-238.214"/>
<polygon fill="#9a32cd" stroke="#9a32cd" points="1049.49,-354.496 1051.37,-364.923 1056.4,-355.601 1049.49,-354.496"/>
<text text-anchor="middle" x="1072.5" y="-277" font-family="Helvetica,sans-Serif" font-size="10.00"> u</text>
</g>
<!-- Node20&#45;&gt;Node19 -->
<g id="edge32" class="edge"><title>Node20&#45;&gt;Node19</title>
<path fill="none" stroke="#9a32cd" stroke-dasharray="5,2" d="M1031.25,-484.158C1036.07,-456.209 1044.93,-404.858 1048.48,-384.325"/>
<polygon fill="#9a32cd" stroke="#9a32cd" points="1027.76,-483.787 1029.51,-494.236 1034.66,-484.977 1027.76,-483.787"/>
<text text-anchor="middle" x="1055" y="-461.5" font-family="Helvetica,sans-Serif" font-size="10.00"> key_val</text>
</g>
<!-- Node21&#45;&gt;Node12 -->
<g id="edge44" class="edge"><title>Node21&#45;&gt;Node12</title>
<path fill="none" stroke="#9a32cd" stroke-dasharray="5,2" d="M650.954,-520.591C662.891,-530.736 679.063,-544.065 694,-555 703.345,-561.841 714.287,-568.954 722.795,-574.3"/>
<polygon fill="#9a32cd" stroke="#9a32cd" points="652.958,-517.699 643.088,-513.846 648.401,-523.012 652.958,-517.699"/>
<text text-anchor="middle" x="711" y="-547" font-family="Helvetica,sans-Serif" font-size="10.00"> ci</text>
<text text-anchor="middle" x="711" y="-536" font-family="Helvetica,sans-Serif" font-size="10.00">base_ci</text>
</g>
<!-- Node21&#45;&gt;Node21 -->
<g id="edge47" class="edge"><title>Node21&#45;&gt;Node21</title>
<path fill="none" stroke="#9a32cd" stroke-dasharray="5,2" d="M667.425,-510.618C671.979,-509.491 675,-507.285 675,-504 675,-498.609 666.864,-496.125 657.17,-496.546"/>
<polygon fill="#9a32cd" stroke="#9a32cd" points="666.852,-507.153 657.17,-511.454 667.421,-514.129 666.852,-507.153"/>
<text text-anchor="middle" x="694.5" y="-507" font-family="Helvetica,sans-Serif" font-size="10.00"> previous</text>
<text text-anchor="middle" x="694.5" y="-496" font-family="Helvetica,sans-Serif" font-size="10.00">next</text>
</g>
<!-- Node22&#45;&gt;Node10 -->
<g id="edge48" class="edge"><title>Node22&#45;&gt;Node10</title>
<path fill="none" stroke="#9a32cd" stroke-dasharray="5,2" d="M408.188,-126.021C414.471,-118.472 422.754,-110.146 432,-105 465.479,-86.3679 510.222,-80.5374 537.801,-78.7466"/>
<polygon fill="#9a32cd" stroke="#9a32cd" points="405.143,-124.237 401.794,-134.288 410.68,-128.519 405.143,-124.237"/>
<text text-anchor="middle" x="435" y="-108" font-family="Helvetica,sans-Serif" font-size="10.00"> l</text>
</g>
<!-- Node23&#45;&gt;Node1 -->
<g id="edge52" class="edge"><title>Node23&#45;&gt;Node1</title>
<path fill="none" stroke="#9a32cd" stroke-dasharray="5,2" d="M1131.74,-63.3289C1111.98,-54.7221 1084.39,-43.8734 1059,-38 963.37,-15.8747 846.297,-11.7424 793.373,-11.0647"/>
<polygon fill="#9a32cd" stroke="#9a32cd" points="1130.48,-66.5972 1141.04,-67.4644 1133.32,-60.2016 1130.48,-66.5972"/>
<text text-anchor="middle" x="1100.5" y="-41" font-family="Helvetica,sans-Serif" font-size="10.00"> u</text>
</g>
<!-- Node24&#45;&gt;Node23 -->
<g id="edge54" class="edge"><title>Node24&#45;&gt;Node23</title>
<path fill="none" stroke="#9a32cd" stroke-dasharray="5,2" d="M1308.5,-609.552C1310.51,-592.653 1313,-567.221 1313,-545 1313,-545 1313,-545 1313,-143 1313,-85.9756 1222.27,-78.1961 1180.09,-77.6603"/>
<polygon fill="#9a32cd" stroke="#9a32cd" points="1304.99,-609.387 1307.22,-619.744 1311.94,-610.258 1304.99,-609.387"/>
<text text-anchor="middle" x="1319.5" y="-372" font-family="Helvetica,sans-Serif" font-size="10.00"> uv</text>
</g>
</g>
</svg>
